<svg id="z12741" class="acjk" viewBox="0 0 1024 1024" xmlns="http://www.w3.org/2000/svg">

<style>
<![CDATA[
@keyframes zk { to { stroke-dashoffset:0; } }
svg.acjk path[clip-path] {
    --t:0.8s;
    animation:zk var(--t) linear forwards var(--d);
    stroke-dasharray:3337;
    stroke-dashoffset:3339;
    stroke-width:128;
    stroke-linecap:round;
    fill:none;
}
/* Low opacity for background improves visual overlap at intersections */
svg.acjk .bg { fill:#ccc; opacity: 0.5; } 
]]>
</style>
<defs>
    <clipPath id="z12741c1"><path d="M 522 772 C 498 768 481 719 484 702 C 488 669 489 467 489 336 C 488 303 470 287 442 292 C 416 295 361 315 302 339 C 282 346 265 349 246 344 C 192 331 172 303 239 294 C 305 283 427 253 459 225 C 470 215 482 211 502 220 C 517 226 535 234 556 245 C 570 252 573 266 563 284 C 551 302 551 329 550 363 C 546 483 545 666 557 681 C 561 686 568 688 590 685 C 695 665 728 641 770 648 C 822 656 852 705 789 706 C 730 706 597 735 563 750 C 549 756 533 774 522 772 Z"/></clipPath>
</defs>
<g id="bg-layer">
    <path class="bg" d="M 522 772 C 498 768 481 719 484 702 C 488 669 489 467 489 336 C 488 303 470 287 442 292 C 416 295 361 315 302 339 C 282 346 265 349 246 344 C 192 331 172 303 239 294 C 305 283 427 253 459 225 C 470 215 482 211 502 220 C 517 226 535 234 556 245 C 570 252 573 266 563 284 C 551 302 551 329 550 363 C 546 483 545 666 557 681 C 561 686 568 688 590 685 C 695 665 728 641 770 648 C 822 656 852 705 789 706 C 730 706 597 735 563 750 C 549 756 533 774 522 772 Z"/>
</g>
<g id="anim-layer">
    <path style="--d:1s; stroke:#FF4444;" pathLength="3333" clip-path="url(#z12741c1)" d="M 204 311 L 275 317 L 472 255 L 506 268 L 526 287 L 525 712 L 542 728 L 744 678 L 821 684"/>
</g>
</svg>