<svg id="z140197" class="acjk" viewBox="0 0 1024 1024" xmlns="http://www.w3.org/2000/svg">

<style>
<![CDATA[
@keyframes zk { to { stroke-dashoffset:0; } }
svg.acjk path[clip-path] {
    --t:0.8s;
    animation:zk var(--t) linear forwards var(--d);
    stroke-dasharray:3337;
    stroke-dashoffset:3339;
    stroke-width:128;
    stroke-linecap:round;
    fill:none;
}
/* Low opacity for background improves visual overlap at intersections */
svg.acjk .bg { fill:#ccc; opacity: 0.5; } 
]]>
</style>
<defs>
    <clipPath id="z140197c1"><path d="M 716 275 C 730 222 749 194 765 179 C 781 163 781 146 766 138 C 737 121 717 111 701 104 C 672 91 641 141 346 173 C 302 178 324 194 341 198 C 404 211 478 200 625 164 C 675 152 699 157 685 201 C 679 222 670 242 663 268 C 660 285 713 292 716 275 Z"/></clipPath>
    <clipPath id="z140197c2"><path d="M 368 356 C 385 362 517 324 725 307 C 750 305 733 282 716 275 C 701 266 680 261 663 268 C 621 286 478 313 357 323 C 346 325 357 354 368 356 Z"/></clipPath>
    <clipPath id="z140197c3"><path d="M 654 461 C 692 460 692 500 690 524 C 684 620 669 710 646 776 C 637 802 629 820 621 830 C 616 835 604 836 587 832 C 568 827 551 822 536 817 C 524 813 521 814 522 821 C 524 830 529 838 539 847 C 562 869 578 890 593 913 C 602 927 618 931 632 920 C 690 871 720 815 726 758 C 742 593 754 490 756 484 C 758 479 760 475 763 472 C 771 460 769 446 763 439 C 752 428 736 425 718 413 C 684 390 688 423 362 465 C 347 467 336 466 342 451 C 352 424 359 385 368 356 C 372 345 365 331 357 323 C 351 316 340 310 328 302 C 318 296 313 294 307 298 C 300 302 301 307 306 318 C 315 337 316 374 308 403 C 298 441 283 467 266 482 C 257 490 254 500 258 508 C 262 518 268 535 276 541 C 282 545 293 544 305 534 C 325 516 346 503 369 498 C 547 462 633 462 654 461 Z"/></clipPath>
    <clipPath id="z140197c4"><path d="M 475 622 C 532 623 515 590 480 575 C 452 563 454 601 255 618 C 223 621 232 647 256 651 C 301 659 441 622 475 622 Z"/></clipPath>
    <clipPath id="z140197c5"><path d="M 202 743 C 167 747 192 762 202 768 C 263 802 289 764 569 738 C 616 734 595 720 568 702 C 514 667 491 715 202 743 Z"/></clipPath>
</defs>
<g id="bg-layer">
    <path class="bg" d="M 716 275 C 730 222 749 194 765 179 C 781 163 781 146 766 138 C 737 121 717 111 701 104 C 672 91 641 141 346 173 C 302 178 324 194 341 198 C 404 211 478 200 625 164 C 675 152 699 157 685 201 C 679 222 670 242 663 268 C 660 285 713 292 716 275 Z"/>
    <path class="bg" d="M 368 356 C 385 362 517 324 725 307 C 750 305 733 282 716 275 C 701 266 680 261 663 268 C 621 286 478 313 357 323 C 346 325 357 354 368 356 Z"/>
    <path class="bg" d="M 654 461 C 692 460 692 500 690 524 C 684 620 669 710 646 776 C 637 802 629 820 621 830 C 616 835 604 836 587 832 C 568 827 551 822 536 817 C 524 813 521 814 522 821 C 524 830 529 838 539 847 C 562 869 578 890 593 913 C 602 927 618 931 632 920 C 690 871 720 815 726 758 C 742 593 754 490 756 484 C 758 479 760 475 763 472 C 771 460 769 446 763 439 C 752 428 736 425 718 413 C 684 390 688 423 362 465 C 347 467 336 466 342 451 C 352 424 359 385 368 356 C 372 345 365 331 357 323 C 351 316 340 310 328 302 C 318 296 313 294 307 298 C 300 302 301 307 306 318 C 315 337 316 374 308 403 C 298 441 283 467 266 482 C 257 490 254 500 258 508 C 262 518 268 535 276 541 C 282 545 293 544 305 534 C 325 516 346 503 369 498 C 547 462 633 462 654 461 Z"/>
    <path class="bg" d="M 475 622 C 532 623 515 590 480 575 C 452 563 454 601 255 618 C 223 621 232 647 256 651 C 301 659 441 622 475 622 Z"/>
    <path class="bg" d="M 202 743 C 167 747 192 762 202 768 C 263 802 289 764 569 738 C 616 734 595 720 568 702 C 514 667 491 715 202 743 Z"/>
</g>
<g id="anim-layer">
    <path style="--d:1s; stroke:#FF4444;" pathLength="3333" clip-path="url(#z140197c1)" d="M 326 183 L 690 133 L 733 163 L 680 281"/>
    <path style="--d:2s; stroke:#FF4444;" pathLength="3333" clip-path="url(#z140197c2)" d="M 358 328 L 732 294"/>
    <path style="--d:3s; stroke:#FF4444;" pathLength="3333" clip-path="url(#z140197c3)" d="M 310 305 L 341 349 L 302 482 L 316 504 L 662 436 L 727 467 L 669 820 L 608 880 L 530 823"/>
    <path style="--d:4s; stroke:#000;" pathLength="3333" clip-path="url(#z140197c4)" d="M 239 632 L 506 606"/>
    <path style="--d:5s; stroke:#000;" pathLength="3333" clip-path="url(#z140197c5)" d="M 192 751 L 259 759 L 522 716 L 589 726"/>
</g>
</svg>