<svg id="z14673" class="acjk" viewBox="0 0 1024 1024" xmlns="http://www.w3.org/2000/svg">

<style>
<![CDATA[
@keyframes zk { to { stroke-dashoffset:0; } }
svg.acjk path[clip-path] {
    --t:0.8s;
    animation:zk var(--t) linear forwards var(--d);
    stroke-dasharray:3337;
    stroke-dashoffset:3339;
    stroke-width:128;
    stroke-linecap:round;
    fill:none;
}
/* Low opacity for background improves visual overlap at intersections */
svg.acjk .bg { fill:#ccc; opacity: 0.5; } 
]]>
</style>
<defs>
    <clipPath id="z14673c1"><path d="M 472 131 C 522 123 598 110 705 97 C 738 93 717 75 704 62 C 690 49 666 42 630 53 C 578 69 492 90 281 113 C 262 115 257 121 273 135 C 320 177 359 150 429 139 C 458 134 458 134 472 131 Z"/></clipPath>
    <clipPath id="z14673c2"><path d="M 422 250 C 503 152 527 191 472 131 C 463 120 427 125 429 139 C 433 160 423 190 398 256 C 395 264 417 257 422 250 Z"/></clipPath>
    <clipPath id="z14673c3"><path d="M 344 260 C 337 252 330 248 324 245 C 296 235 295 252 300 268 C 329 338 326 385 338 564 C 338 578 381 573 381 559 C 380 530 379 514 378 488 C 377 471 377 471 376 463 C 375 434 375 411 375 388 C 375 369 375 369 375 359 C 375 339 375 321 376 302 C 376 284 355 274 344 260 Z"/></clipPath>
    <clipPath id="z14673c4"><path d="M 658 522 C 671 372 683 319 692 306 C 701 292 702 274 693 260 C 686 248 668 232 632 204 C 603 182 566 214 422 250 C 406 254 406 254 398 256 C 380 261 367 260 344 260 C 326 260 360 309 376 302 C 440 273 507 270 576 257 C 610 251 607 276 607 299 C 607 344 605 402 600 530 C 600 550 658 542 658 522 Z"/></clipPath>
    <clipPath id="z14673c5"><path d="M 375 388 C 396 396 403 389 467 379 C 558 366 574 343 514 327 C 489 321 473 342 375 359 C 365 361 366 384 375 388 Z"/></clipPath>
    <clipPath id="z14673c6"><path d="M 378 488 C 397 493 425 491 496 481 C 516 478 537 479 552 464 C 569 446 540 436 527 432 C 501 423 500 437 376 463 C 368 465 370 486 378 488 Z"/></clipPath>
    <clipPath id="z14673c7"><path d="M 167 586 C 157 563 147 547 138 538 C 124 525 116 531 118 557 C 120 597 98 648 73 697 C 55 731 60 758 81 807 C 92 835 112 817 117 805 C 128 780 137 753 145 718 C 154 677 159 653 167 628 C 172 615 172 599 167 586 Z"/></clipPath>
    <clipPath id="z14673c8"><path d="M 167 628 C 185 640 203 639 222 633 C 304 607 642 560 722 552 C 765 548 821 539 825 576 C 826 590 816 620 796 660 C 779 693 785 697 816 678 C 851 658 879 643 921 628 C 948 618 965 613 964 603 C 964 593 940 571 889 514 C 874 497 857 487 838 490 C 782 498 722 513 658 522 C 619 527 619 527 600 530 C 537 539 425 554 381 559 C 352 562 352 562 338 564 C 298 568 214 577 167 586 C 153 588 156 620 167 628 Z"/></clipPath>
    <clipPath id="z14673c9"><path d="M 253 704 C 234 747 208 801 184 838 C 165 866 164 896 171 937 C 174 954 186 961 203 948 C 243 919 261 862 272 794 C 278 762 283 733 278 708 C 277 699 272 693 268 692 C 262 691 257 696 253 704 Z"/></clipPath>
    <clipPath id="z14673c10"><path d="M 337 775 C 387 873 462 915 560 922 C 639 927 696 909 727 861 C 736 846 727 840 708 825 C 673 797 651 776 621 746 C 583 710 576 709 599 761 C 618 803 623 833 619 842 C 615 851 595 858 562 862 C 495 870 426 832 356 763 C 343 750 336 747 334 752 C 331 756 331 763 337 775 Z"/></clipPath>
    <clipPath id="z14673c11"><path d="M 426 676 C 469 732 497 762 512 761 C 523 760 530 750 533 733 C 534 722 530 705 519 690 C 499 663 472 646 429 640 C 422 640 419 642 419 654 C 418 661 420 667 426 676 Z"/></clipPath>
    <clipPath id="z14673c12"><path d="M 677 727 C 703 749 730 772 757 802 C 767 811 776 815 786 813 C 794 812 799 805 800 793 C 802 778 799 766 791 742 C 780 708 739 684 667 671 C 644 667 640 672 644 690 C 647 698 658 710 677 727 Z"/></clipPath>
</defs>
<g id="bg-layer">
    <path class="bg" d="M 472 131 C 522 123 598 110 705 97 C 738 93 717 75 704 62 C 690 49 666 42 630 53 C 578 69 492 90 281 113 C 262 115 257 121 273 135 C 320 177 359 150 429 139 C 458 134 458 134 472 131 Z"/>
    <path class="bg" d="M 422 250 C 503 152 527 191 472 131 C 463 120 427 125 429 139 C 433 160 423 190 398 256 C 395 264 417 257 422 250 Z"/>
    <path class="bg" d="M 344 260 C 337 252 330 248 324 245 C 296 235 295 252 300 268 C 329 338 326 385 338 564 C 338 578 381 573 381 559 C 380 530 379 514 378 488 C 377 471 377 471 376 463 C 375 434 375 411 375 388 C 375 369 375 369 375 359 C 375 339 375 321 376 302 C 376 284 355 274 344 260 Z"/>
    <path class="bg" d="M 658 522 C 671 372 683 319 692 306 C 701 292 702 274 693 260 C 686 248 668 232 632 204 C 603 182 566 214 422 250 C 406 254 406 254 398 256 C 380 261 367 260 344 260 C 326 260 360 309 376 302 C 440 273 507 270 576 257 C 610 251 607 276 607 299 C 607 344 605 402 600 530 C 600 550 658 542 658 522 Z"/>
    <path class="bg" d="M 375 388 C 396 396 403 389 467 379 C 558 366 574 343 514 327 C 489 321 473 342 375 359 C 365 361 366 384 375 388 Z"/>
    <path class="bg" d="M 378 488 C 397 493 425 491 496 481 C 516 478 537 479 552 464 C 569 446 540 436 527 432 C 501 423 500 437 376 463 C 368 465 370 486 378 488 Z"/>
    <path class="bg" d="M 167 586 C 157 563 147 547 138 538 C 124 525 116 531 118 557 C 120 597 98 648 73 697 C 55 731 60 758 81 807 C 92 835 112 817 117 805 C 128 780 137 753 145 718 C 154 677 159 653 167 628 C 172 615 172 599 167 586 Z"/>
    <path class="bg" d="M 167 628 C 185 640 203 639 222 633 C 304 607 642 560 722 552 C 765 548 821 539 825 576 C 826 590 816 620 796 660 C 779 693 785 697 816 678 C 851 658 879 643 921 628 C 948 618 965 613 964 603 C 964 593 940 571 889 514 C 874 497 857 487 838 490 C 782 498 722 513 658 522 C 619 527 619 527 600 530 C 537 539 425 554 381 559 C 352 562 352 562 338 564 C 298 568 214 577 167 586 C 153 588 156 620 167 628 Z"/>
    <path class="bg" d="M 253 704 C 234 747 208 801 184 838 C 165 866 164 896 171 937 C 174 954 186 961 203 948 C 243 919 261 862 272 794 C 278 762 283 733 278 708 C 277 699 272 693 268 692 C 262 691 257 696 253 704 Z"/>
    <path class="bg" d="M 337 775 C 387 873 462 915 560 922 C 639 927 696 909 727 861 C 736 846 727 840 708 825 C 673 797 651 776 621 746 C 583 710 576 709 599 761 C 618 803 623 833 619 842 C 615 851 595 858 562 862 C 495 870 426 832 356 763 C 343 750 336 747 334 752 C 331 756 331 763 337 775 Z"/>
    <path class="bg" d="M 426 676 C 469 732 497 762 512 761 C 523 760 530 750 533 733 C 534 722 530 705 519 690 C 499 663 472 646 429 640 C 422 640 419 642 419 654 C 418 661 420 667 426 676 Z"/>
    <path class="bg" d="M 677 727 C 703 749 730 772 757 802 C 767 811 776 815 786 813 C 794 812 799 805 800 793 C 802 778 799 766 791 742 C 780 708 739 684 667 671 C 644 667 640 672 644 690 C 647 698 658 710 677 727 Z"/>
</g>
<g id="anim-layer">
    <path style="--d:1s; stroke:#FF4444;" pathLength="3333" clip-path="url(#z14673c1)" d="M 269 121 L 348 131 L 665 74 L 716 87"/>
    <path style="--d:2s; stroke:#FF4444;" pathLength="3333" clip-path="url(#z14673c2)" d="M 437 135 L 462 176 L 407 254"/>
    <path style="--d:3s; stroke:#000;" pathLength="3333" clip-path="url(#z14673c3)" d="M 306 249 L 345 307 L 365 569"/>
    <path style="--d:4s; stroke:#000;" pathLength="3333" clip-path="url(#z14673c4)" d="M 348 269 L 386 278 L 584 228 L 631 245 L 653 286 L 617 539"/>
    <path style="--d:5s; stroke:#000;" pathLength="3333" clip-path="url(#z14673c5)" d="M 370 375 L 545 349"/>
    <path style="--d:6s; stroke:#000;" pathLength="3333" clip-path="url(#z14673c6)" d="M 373 474 L 552 453"/>
    <path style="--d:7s; stroke:#000;" pathLength="3333" clip-path="url(#z14673c7)" d="M 127 539 L 142 599 L 92 818"/>
    <path style="--d:8s; stroke:#000;" pathLength="3333" clip-path="url(#z14673c8)" d="M 165 592 L 211 607 L 831 524 L 910 608 L 794 685"/>
    <path style="--d:9s; stroke:#000;" pathLength="3333" clip-path="url(#z14673c9)" d="M 268 700 L 189 950"/>
    <path style="--d:10s; stroke:#000;" pathLength="3333" clip-path="url(#z14673c10)" d="M 339 757 L 447 864 L 589 891 L 655 869 L 677 840 L 591 728"/>
    <path style="--d:11s; stroke:#000;" pathLength="3333" clip-path="url(#z14673c11)" d="M 426 649 L 525 751"/>
    <path style="--d:12s; stroke:#000;" pathLength="3333" clip-path="url(#z14673c12)" d="M 649 677 L 750 742 L 791 808"/>
</g>
</svg>