<svg id="z148756" class="acjk" viewBox="0 0 1024 1024" xmlns="http://www.w3.org/2000/svg">

<style>
<![CDATA[
@keyframes zk { to { stroke-dashoffset:0; } }
svg.acjk path[clip-path] {
    --t:0.8s;
    animation:zk var(--t) linear forwards var(--d);
    stroke-dasharray:3337;
    stroke-dashoffset:3339;
    stroke-width:128;
    stroke-linecap:round;
    fill:none;
}
/* Low opacity for background improves visual overlap at intersections */
svg.acjk .bg { fill:#ccc; opacity: 0.5; } 
]]>
</style>
<defs>
    <clipPath id="z148756c1"><path d="M 518 81 C 487 104 425 132 333 173 C 328 175 329 182 333 184 C 346 189 406 177 510 144 C 545 132 580 123 614 115 C 632 110 647 105 628 87 C 591 55 562 40 541 44 C 535 44 532 51 532 58 C 530 66 526 74 518 81 Z"/></clipPath>
    <clipPath id="z148756c2"><path d="M 286 270 C 300 284 315 300 330 318 C 338 327 362 342 373 319 C 377 310 376 295 372 276 C 367 257 338 239 285 224 C 275 221 266 218 264 221 C 248 237 274 258 286 270 Z"/></clipPath>
    <clipPath id="z148756c3"><path d="M 446 209 C 481 255 507 279 522 282 C 524 282 554 282 535 236 C 525 214 495 196 452 185 C 441 182 437 198 446 209 Z"/></clipPath>
    <clipPath id="z148756c4"><path d="M 683 183 C 674 190 644 218 593 267 C 584 275 586 285 597 281 C 689 245 720 230 761 215 C 775 209 781 202 776 190 C 770 176 758 165 744 153 C 716 129 702 131 700 149 C 698 160 694 172 683 183 Z"/></clipPath>
    <clipPath id="z148756c5"><path d="M 541 434 C 599 398 643 374 673 365 C 680 362 684 360 685 355 C 685 348 673 341 658 334 C 610 310 580 298 562 306 C 511 327 422 348 335 367 C 320 370 317 380 331 390 C 343 397 363 402 387 394 C 463 366 529 348 560 350 C 569 350 578 350 579 359 C 579 360 560 384 524 422 C 519 427 535 438 541 434 Z"/></clipPath>
    <clipPath id="z148756c6"><path d="M 549 457 C 548 450 546 442 541 434 C 537 428 530 425 524 422 C 498 412 477 406 459 404 C 452 403 450 406 450 412 C 449 416 451 419 456 424 C 477 443 495 457 509 465 C 521 472 552 470 549 457 Z"/></clipPath>
    <clipPath id="z148756c7"><path d="M 284 504 C 270 494 203 455 223 501 C 254 573 241 700 221 792 C 213 832 194 885 225 916 C 233 923 241 923 249 916 C 272 895 282 842 282 774 C 283 664 289 588 302 534 C 304 523 293 511 284 504 Z"/></clipPath>
    <clipPath id="z148756c8"><path d="M 478 503 C 540 491 635 475 665 474 C 699 472 711 477 713 503 C 725 619 724 730 714 823 C 710 871 647 857 616 851 C 582 844 602 857 621 872 C 645 890 670 910 690 930 C 727 965 749 922 767 893 C 787 859 797 822 794 791 C 787 711 781 624 773 554 C 770 523 777 498 793 476 C 800 465 799 455 790 449 C 774 437 755 429 727 421 C 707 414 701 414 680 423 C 658 432 571 452 549 457 C 522 462 522 462 509 465 C 423 481 314 500 284 504 C 273 506 290 536 302 534 C 319 532 404 516 434 511 C 463 506 463 506 478 503 Z"/></clipPath>
    <clipPath id="z148756c9"><path d="M 561 570 C 526 574 478 586 437 597 C 423 600 420 602 431 593 C 504 530 528 529 478 503 C 464 497 428 497 434 511 C 446 544 422 566 367 611 C 360 616 357 619 360 625 C 363 630 369 638 382 647 C 387 649 394 650 400 646 C 417 633 491 610 574 588 C 581 587 568 569 561 570 Z"/></clipPath>
    <clipPath id="z148756c10"><path d="M 574 588 C 587 606 598 611 608 613 C 614 614 623 612 628 605 C 631 599 630 589 627 581 C 619 561 595 545 556 533 C 549 530 545 532 544 538 C 543 541 547 552 561 570 C 570 582 570 582 574 588 Z"/></clipPath>
    <clipPath id="z148756c11"><path d="M 547 765 C 572 735 595 703 614 683 C 622 674 625 664 616 659 C 604 651 590 646 575 640 C 557 632 543 639 528 645 C 502 654 432 672 368 674 C 339 674 348 689 366 699 C 380 706 417 704 451 695 C 493 683 520 675 525 676 C 550 677 525 717 500 751 C 494 759 481 771 472 780 C 439 809 401 830 361 846 C 336 856 359 858 379 855 C 422 848 471 829 510 800 C 522 790 538 775 547 765 Z"/></clipPath>
    <clipPath id="z148756c12"><path d="M 510 800 C 554 823 601 841 610 841 C 633 839 627 815 612 798 C 600 784 562 769 547 765 C 516 756 516 756 500 751 C 489 747 436 734 380 724 C 370 722 368 736 384 745 C 403 755 445 766 472 780 C 497 793 497 793 510 800 Z"/></clipPath>
</defs>
<g id="bg-layer">
    <path class="bg" d="M 518 81 C 487 104 425 132 333 173 C 328 175 329 182 333 184 C 346 189 406 177 510 144 C 545 132 580 123 614 115 C 632 110 647 105 628 87 C 591 55 562 40 541 44 C 535 44 532 51 532 58 C 530 66 526 74 518 81 Z"/>
    <path class="bg" d="M 286 270 C 300 284 315 300 330 318 C 338 327 362 342 373 319 C 377 310 376 295 372 276 C 367 257 338 239 285 224 C 275 221 266 218 264 221 C 248 237 274 258 286 270 Z"/>
    <path class="bg" d="M 446 209 C 481 255 507 279 522 282 C 524 282 554 282 535 236 C 525 214 495 196 452 185 C 441 182 437 198 446 209 Z"/>
    <path class="bg" d="M 683 183 C 674 190 644 218 593 267 C 584 275 586 285 597 281 C 689 245 720 230 761 215 C 775 209 781 202 776 190 C 770 176 758 165 744 153 C 716 129 702 131 700 149 C 698 160 694 172 683 183 Z"/>
    <path class="bg" d="M 541 434 C 599 398 643 374 673 365 C 680 362 684 360 685 355 C 685 348 673 341 658 334 C 610 310 580 298 562 306 C 511 327 422 348 335 367 C 320 370 317 380 331 390 C 343 397 363 402 387 394 C 463 366 529 348 560 350 C 569 350 578 350 579 359 C 579 360 560 384 524 422 C 519 427 535 438 541 434 Z"/>
    <path class="bg" d="M 549 457 C 548 450 546 442 541 434 C 537 428 530 425 524 422 C 498 412 477 406 459 404 C 452 403 450 406 450 412 C 449 416 451 419 456 424 C 477 443 495 457 509 465 C 521 472 552 470 549 457 Z"/>
    <path class="bg" d="M 284 504 C 270 494 203 455 223 501 C 254 573 241 700 221 792 C 213 832 194 885 225 916 C 233 923 241 923 249 916 C 272 895 282 842 282 774 C 283 664 289 588 302 534 C 304 523 293 511 284 504 Z"/>
    <path class="bg" d="M 478 503 C 540 491 635 475 665 474 C 699 472 711 477 713 503 C 725 619 724 730 714 823 C 710 871 647 857 616 851 C 582 844 602 857 621 872 C 645 890 670 910 690 930 C 727 965 749 922 767 893 C 787 859 797 822 794 791 C 787 711 781 624 773 554 C 770 523 777 498 793 476 C 800 465 799 455 790 449 C 774 437 755 429 727 421 C 707 414 701 414 680 423 C 658 432 571 452 549 457 C 522 462 522 462 509 465 C 423 481 314 500 284 504 C 273 506 290 536 302 534 C 319 532 404 516 434 511 C 463 506 463 506 478 503 Z"/>
    <path class="bg" d="M 561 570 C 526 574 478 586 437 597 C 423 600 420 602 431 593 C 504 530 528 529 478 503 C 464 497 428 497 434 511 C 446 544 422 566 367 611 C 360 616 357 619 360 625 C 363 630 369 638 382 647 C 387 649 394 650 400 646 C 417 633 491 610 574 588 C 581 587 568 569 561 570 Z"/>
    <path class="bg" d="M 574 588 C 587 606 598 611 608 613 C 614 614 623 612 628 605 C 631 599 630 589 627 581 C 619 561 595 545 556 533 C 549 530 545 532 544 538 C 543 541 547 552 561 570 C 570 582 570 582 574 588 Z"/>
    <path class="bg" d="M 547 765 C 572 735 595 703 614 683 C 622 674 625 664 616 659 C 604 651 590 646 575 640 C 557 632 543 639 528 645 C 502 654 432 672 368 674 C 339 674 348 689 366 699 C 380 706 417 704 451 695 C 493 683 520 675 525 676 C 550 677 525 717 500 751 C 494 759 481 771 472 780 C 439 809 401 830 361 846 C 336 856 359 858 379 855 C 422 848 471 829 510 800 C 522 790 538 775 547 765 Z"/>
    <path class="bg" d="M 510 800 C 554 823 601 841 610 841 C 633 839 627 815 612 798 C 600 784 562 769 547 765 C 516 756 516 756 500 751 C 489 747 436 734 380 724 C 370 722 368 736 384 745 C 403 755 445 766 472 780 C 497 793 497 793 510 800 Z"/>
</g>
<g id="anim-layer">
    <path style="--d:1s; stroke:#FF4444;" pathLength="3333" clip-path="url(#z148756c1)" d="M 542 48 L 570 84 L 574 107 L 337 178"/>
    <path style="--d:2s; stroke:#FF4444;" pathLength="3333" clip-path="url(#z148756c2)" d="M 264 227 L 345 288 L 358 327"/>
    <path style="--d:3s; stroke:#FF4444;" pathLength="3333" clip-path="url(#z148756c3)" d="M 449 190 L 529 277"/>
    <path style="--d:4s; stroke:#FF4444;" pathLength="3333" clip-path="url(#z148756c4)" d="M 712 141 L 731 191 L 595 277"/>
    <path style="--d:5s; stroke:#000;" pathLength="3333" clip-path="url(#z148756c5)" d="M 328 377 L 581 328 L 627 364 L 529 426"/>
    <path style="--d:6s; stroke:#000;" pathLength="3333" clip-path="url(#z148756c6)" d="M 455 412 L 544 455"/>
    <path style="--d:7s; stroke:#000;" pathLength="3333" clip-path="url(#z148756c7)" d="M 229 487 L 268 536 L 236 917"/>
    <path style="--d:8s; stroke:#000;" pathLength="3333" clip-path="url(#z148756c8)" d="M 285 509 L 698 445 L 747 465 L 746 851 L 699 899 L 607 853"/>
    <path style="--d:9s; stroke:#000;" pathLength="3333" clip-path="url(#z148756c9)" d="M 440 505 L 468 535 L 400 601 L 407 623 L 569 584"/>
    <path style="--d:10s; stroke:#000;" pathLength="3333" clip-path="url(#z148756c10)" d="M 552 540 L 621 606"/>
    <path style="--d:11s; stroke:#000;" pathLength="3333" clip-path="url(#z148756c11)" d="M 356 681 L 545 658 L 578 681 L 483 796 L 360 853"/>
    <path style="--d:12s; stroke:#000;" pathLength="3333" clip-path="url(#z148756c12)" d="M 380 730 L 622 824"/>
</g>
</svg>