<svg id="z148848" class="acjk" viewBox="0 0 1024 1024" xmlns="http://www.w3.org/2000/svg">

<style>
<![CDATA[
@keyframes zk { to { stroke-dashoffset:0; } }
svg.acjk path[clip-path] {
    --t:0.8s;
    animation:zk var(--t) linear forwards var(--d);
    stroke-dasharray:3337;
    stroke-dashoffset:3339;
    stroke-width:128;
    stroke-linecap:round;
    fill:none;
}
/* Low opacity for background improves visual overlap at intersections */
svg.acjk .bg { fill:#ccc; opacity: 0.5; } 
]]>
</style>
<defs>
    <clipPath id="z148848c1"><path d="M 412 307 C 371 311 283 330 253 337 C 244 339 243 334 244 323 C 246 243 252 205 246 185 C 243 176 235 163 217 153 C 185 135 176 144 187 172 C 202 212 200 290 197 307 C 194 324 188 332 182 342 C 170 359 169 372 173 381 C 177 389 190 398 199 404 C 205 408 212 408 217 404 C 246 374 375 351 413 344 C 425 342 424 305 412 307 Z"/></clipPath>
    <clipPath id="z148848c2"><path d="M 412 541 C 405 680 390 839 392 849 C 394 871 402 893 418 913 C 424 920 433 921 439 912 C 462 874 468 814 465 759 C 457 645 457 481 461 357 C 461 327 461 172 468 142 C 471 122 465 113 454 101 C 443 89 426 81 417 78 C 388 68 379 76 388 106 C 395 130 408 183 412 307 C 413 332 413 332 413 344 C 413 368 415 462 414 496 C 413 526 413 526 412 541 Z"/></clipPath>
    <clipPath id="z148848c3"><path d="M 285 569 C 312 562 352 552 412 541 C 427 538 429 494 414 496 C 287 520 197 534 169 537 C 137 541 141 557 166 568 C 178 574 207 580 228 579 C 245 578 266 573 285 569 Z"/></clipPath>
    <clipPath id="z148848c4"><path d="M 228 579 C 240 613 224 669 114 819 C 94 845 102 854 133 830 C 217 766 258 699 300 645 C 329 607 305 593 285 569 C 273 554 224 560 228 579 Z"/></clipPath>
    <clipPath id="z148848c5"><path d="M 623 509 C 623 460 626 380 627 360 C 628 337 628 337 628 326 C 629 287 633 227 641 182 C 648 145 650 140 635 128 C 599 99 577 96 562 106 C 554 109 554 117 558 125 C 571 157 576 205 576 252 C 575 762 552 849 572 903 C 590 953 612 955 624 900 C 633 858 623 729 623 541 C 623 520 623 520 623 509 Z"/></clipPath>
    <clipPath id="z148848c6"><path d="M 846 293 C 856 110 885 124 862 105 C 847 93 831 85 822 82 C 807 76 788 84 794 98 C 807 128 807 214 809 290 C 809 302 846 305 846 293 Z"/></clipPath>
    <clipPath id="z148848c7"><path d="M 627 360 C 654 356 764 340 860 327 C 883 323 866 299 846 293 C 835 288 821 288 809 290 C 764 300 669 314 628 326 C 617 330 616 362 627 360 Z"/></clipPath>
    <clipPath id="z148848c8"><path d="M 623 541 C 651 541 741 533 791 529 C 803 527 815 530 818 543 C 820 558 821 663 814 745 C 811 785 808 820 815 837 C 832 885 853 890 864 846 C 871 812 862 694 866 592 C 866 567 868 544 877 522 C 883 503 879 492 856 480 C 824 462 817 470 805 475 C 762 489 650 506 623 509 C 612 511 612 541 623 541 Z"/></clipPath>
</defs>
<g id="bg-layer">
    <path class="bg" d="M 412 307 C 371 311 283 330 253 337 C 244 339 243 334 244 323 C 246 243 252 205 246 185 C 243 176 235 163 217 153 C 185 135 176 144 187 172 C 202 212 200 290 197 307 C 194 324 188 332 182 342 C 170 359 169 372 173 381 C 177 389 190 398 199 404 C 205 408 212 408 217 404 C 246 374 375 351 413 344 C 425 342 424 305 412 307 Z"/>
    <path class="bg" d="M 412 541 C 405 680 390 839 392 849 C 394 871 402 893 418 913 C 424 920 433 921 439 912 C 462 874 468 814 465 759 C 457 645 457 481 461 357 C 461 327 461 172 468 142 C 471 122 465 113 454 101 C 443 89 426 81 417 78 C 388 68 379 76 388 106 C 395 130 408 183 412 307 C 413 332 413 332 413 344 C 413 368 415 462 414 496 C 413 526 413 526 412 541 Z"/>
    <path class="bg" d="M 285 569 C 312 562 352 552 412 541 C 427 538 429 494 414 496 C 287 520 197 534 169 537 C 137 541 141 557 166 568 C 178 574 207 580 228 579 C 245 578 266 573 285 569 Z"/>
    <path class="bg" d="M 228 579 C 240 613 224 669 114 819 C 94 845 102 854 133 830 C 217 766 258 699 300 645 C 329 607 305 593 285 569 C 273 554 224 560 228 579 Z"/>
    <path class="bg" d="M 623 509 C 623 460 626 380 627 360 C 628 337 628 337 628 326 C 629 287 633 227 641 182 C 648 145 650 140 635 128 C 599 99 577 96 562 106 C 554 109 554 117 558 125 C 571 157 576 205 576 252 C 575 762 552 849 572 903 C 590 953 612 955 624 900 C 633 858 623 729 623 541 C 623 520 623 520 623 509 Z"/>
    <path class="bg" d="M 846 293 C 856 110 885 124 862 105 C 847 93 831 85 822 82 C 807 76 788 84 794 98 C 807 128 807 214 809 290 C 809 302 846 305 846 293 Z"/>
    <path class="bg" d="M 627 360 C 654 356 764 340 860 327 C 883 323 866 299 846 293 C 835 288 821 288 809 290 C 764 300 669 314 628 326 C 617 330 616 362 627 360 Z"/>
    <path class="bg" d="M 623 541 C 651 541 741 533 791 529 C 803 527 815 530 818 543 C 820 558 821 663 814 745 C 811 785 808 820 815 837 C 832 885 853 890 864 846 C 871 812 862 694 866 592 C 866 567 868 544 877 522 C 883 503 879 492 856 480 C 824 462 817 470 805 475 C 762 489 650 506 623 509 C 612 511 612 541 623 541 Z"/>
</g>
<g id="anim-layer">
    <path style="--d:1s; stroke:#FF4444;" pathLength="3333" clip-path="url(#z148848c1)" d="M 188 153 L 221 198 L 219 368 L 419 323"/>
    <path style="--d:2s; stroke:#FF4444;" pathLength="3333" clip-path="url(#z148848c2)" d="M 392 80 L 434 143 L 425 912"/>
    <path style="--d:3s; stroke:#FF4444;" pathLength="3333" clip-path="url(#z148848c3)" d="M 151 548 L 229 554 L 422 516"/>
    <path style="--d:4s; stroke:#FF4444;" pathLength="3333" clip-path="url(#z148848c4)" d="M 234 570 L 268 625 L 111 838"/>
    <path style="--d:5s; stroke:#000;" pathLength="3333" clip-path="url(#z148848c5)" d="M 562 115 L 608 158 L 598 936"/>
    <path style="--d:6s; stroke:#000;" pathLength="3333" clip-path="url(#z148848c6)" d="M 802 89 L 836 128 L 828 299"/>
    <path style="--d:7s; stroke:#000;" pathLength="3333" clip-path="url(#z148848c7)" d="M 625 349 L 866 313"/>
    <path style="--d:8s; stroke:#000;" pathLength="3333" clip-path="url(#z148848c8)" d="M 618 528 L 809 499 L 844 515 L 844 871"/>
</g>
</svg>