<svg id="z157917" class="acjk" viewBox="0 0 1024 1024" xmlns="http://www.w3.org/2000/svg">

<style>
<![CDATA[
@keyframes zk { to { stroke-dashoffset:0; } }
svg.acjk path[clip-path] {
    --t:0.8s;
    animation:zk var(--t) linear forwards var(--d);
    stroke-dasharray:3337;
    stroke-dashoffset:3339;
    stroke-width:128;
    stroke-linecap:round;
    fill:none;
}
/* Low opacity for background improves visual overlap at intersections */
svg.acjk .bg { fill:#ccc; opacity: 0.5; } 
]]>
</style>
<defs>
    <clipPath id="z157917c1"><path d="M 561 179 C 651 163 764 138 778 130 C 799 119 781 97 742 89 C 718 84 695 88 672 95 C 639 106 525 132 489 140 C 436 153 347 159 318 161 C 308 161 311 189 321 192 C 347 204 439 201 517 187 C 546 182 546 182 561 179 Z"/></clipPath>
    <clipPath id="z157917c2"><path d="M 398 356 C 375 346 375 367 379 380 C 386 417 393 520 389 577 C 387 594 391 607 396 621 C 408 645 417 635 425 618 C 432 604 434 589 435 578 C 440 515 441 441 443 412 C 445 380 413 362 398 356 Z"/></clipPath>
    <clipPath id="z157917c3"><path d="M 689 564 C 704 520 721 466 738 443 C 754 423 752 397 740 382 C 733 373 720 358 705 347 C 691 336 675 335 652 343 C 622 354 560 364 565 329 C 567 309 574 239 581 220 C 588 202 597 195 561 179 C 547 173 515 172 517 187 C 528 226 520 322 511 345 C 498 373 502 375 520 398 C 534 415 546 412 564 410 C 712 391 686 418 636 565 C 629 581 682 580 689 564 Z"/></clipPath>
    <clipPath id="z157917c4"><path d="M 556 627 C 589 620 666 604 703 600 C 729 597 713 574 689 564 C 673 557 653 562 636 565 C 596 573 525 587 493 590 C 470 593 492 620 515 628 C 528 633 542 628 556 627 Z"/></clipPath>
    <clipPath id="z157917c5"><path d="M 560 828 C 581 705 599 671 556 627 C 547 616 513 615 515 628 C 519 661 515 778 510 836 C 510 853 557 845 560 828 Z"/></clipPath>
    <clipPath id="z157917c6"><path d="M 318 161 C 278 118 212 103 237 150 C 272 213 276 578 243 835 C 241 852 231 869 220 886 C 212 898 213 909 219 924 C 225 938 229 950 237 956 C 245 962 259 960 271 950 C 327 908 604 867 784 863 C 836 861 809 828 780 813 C 751 799 669 806 558 826 C 527 832 527 832 511 835 C 476 842 380 858 326 866 C 306 869 305 860 305 850 C 309 735 313 488 315 344 C 316 316 318 208 321 192 C 323 182 324 169 318 161 Z"/></clipPath>
</defs>
<g id="bg-layer">
    <path class="bg" d="M 561 179 C 651 163 764 138 778 130 C 799 119 781 97 742 89 C 718 84 695 88 672 95 C 639 106 525 132 489 140 C 436 153 347 159 318 161 C 308 161 311 189 321 192 C 347 204 439 201 517 187 C 546 182 546 182 561 179 Z"/>
    <path class="bg" d="M 398 356 C 375 346 375 367 379 380 C 386 417 393 520 389 577 C 387 594 391 607 396 621 C 408 645 417 635 425 618 C 432 604 434 589 435 578 C 440 515 441 441 443 412 C 445 380 413 362 398 356 Z"/>
    <path class="bg" d="M 689 564 C 704 520 721 466 738 443 C 754 423 752 397 740 382 C 733 373 720 358 705 347 C 691 336 675 335 652 343 C 622 354 560 364 565 329 C 567 309 574 239 581 220 C 588 202 597 195 561 179 C 547 173 515 172 517 187 C 528 226 520 322 511 345 C 498 373 502 375 520 398 C 534 415 546 412 564 410 C 712 391 686 418 636 565 C 629 581 682 580 689 564 Z"/>
    <path class="bg" d="M 556 627 C 589 620 666 604 703 600 C 729 597 713 574 689 564 C 673 557 653 562 636 565 C 596 573 525 587 493 590 C 470 593 492 620 515 628 C 528 633 542 628 556 627 Z"/>
    <path class="bg" d="M 560 828 C 581 705 599 671 556 627 C 547 616 513 615 515 628 C 519 661 515 778 510 836 C 510 853 557 845 560 828 Z"/>
    <path class="bg" d="M 318 161 C 278 118 212 103 237 150 C 272 213 276 578 243 835 C 241 852 231 869 220 886 C 212 898 213 909 219 924 C 225 938 229 950 237 956 C 245 962 259 960 271 950 C 327 908 604 867 784 863 C 836 861 809 828 780 813 C 751 799 669 806 558 826 C 527 832 527 832 511 835 C 476 842 380 858 326 866 C 306 869 305 860 305 850 C 309 735 313 488 315 344 C 316 316 318 208 321 192 C 323 182 324 169 318 161 Z"/>
</g>
<g id="anim-layer">
    <path style="--d:1s; stroke:#FF4444;" pathLength="3333" clip-path="url(#z157917c1)" d="M 316 167 L 400 177 L 783 119"/>
    <path style="--d:2s; stroke:#000;" pathLength="3333" clip-path="url(#z157917c2)" d="M 386 357 L 413 407 L 408 631"/>
    <path style="--d:3s; stroke:#000;" pathLength="3333" clip-path="url(#z157917c3)" d="M 523 184 L 555 214 L 543 369 L 671 373 L 709 406 L 644 573"/>
    <path style="--d:4s; stroke:#000;" pathLength="3333" clip-path="url(#z157917c4)" d="M 490 599 L 711 589"/>
    <path style="--d:5s; stroke:#000;" pathLength="3333" clip-path="url(#z157917c5)" d="M 522 627 L 549 675 L 525 843"/>
    <path style="--d:6s; stroke:#000;" pathLength="3333" clip-path="url(#z157917c6)" d="M 239 125 L 286 185 L 268 911 L 645 841 L 808 848"/>
</g>
</svg>