<svg id="z19974" class="acjk" viewBox="0 0 1024 1024" xmlns="http://www.w3.org/2000/svg">

<style>
<![CDATA[
@keyframes zk { to { stroke-dashoffset:0; } }
svg.acjk path[clip-path] {
    --t:0.8s;
    animation:zk var(--t) linear forwards var(--d);
    stroke-dasharray:3337;
    stroke-dashoffset:3339;
    stroke-width:128;
    stroke-linecap:round;
    fill:none;
}
/* Low opacity for background improves visual overlap at intersections */
svg.acjk .bg { fill:#ccc; opacity: 0.5; } 
]]>
</style>
<defs>
    <clipPath id="z19974c1"><path d="M 551 254 C 625 244 701 234 781 223 C 835 215 867 206 876 200 C 882 195 884 188 882 182 C 877 171 863 163 843 157 C 819 150 797 151 775 158 C 631 197 483 217 335 224 C 305 225 300 235 321 249 C 352 270 389 275 430 269 C 449 265 472 264 496 261 C 533 256 533 256 551 254 Z"/></clipPath>
    <clipPath id="z19974c2"><path d="M 578 335 C 614 287 592 272 551 254 C 534 247 496 243 496 261 C 498 426 271 694 107 804 C 102 808 101 812 110 812 C 405 703 540 383 578 335 Z"/></clipPath>
</defs>
<g id="bg-layer">
    <path class="bg" d="M 551 254 C 625 244 701 234 781 223 C 835 215 867 206 876 200 C 882 195 884 188 882 182 C 877 171 863 163 843 157 C 819 150 797 151 775 158 C 631 197 483 217 335 224 C 305 225 300 235 321 249 C 352 270 389 275 430 269 C 449 265 472 264 496 261 C 533 256 533 256 551 254 Z"/>
    <path class="bg" d="M 578 335 C 614 287 592 272 551 254 C 534 247 496 243 496 261 C 498 426 271 694 107 804 C 102 808 101 812 110 812 C 405 703 540 383 578 335 Z"/>
</g>
<g id="anim-layer">
    <path style="--d:1s; stroke:#FF4444;" pathLength="3333" clip-path="url(#z19974c1)" d="M 313 234 L 412 245 L 878 183"/>
    <path style="--d:2s; stroke:#000;" pathLength="3333" clip-path="url(#z19974c2)" d="M 504 257 L 543 304 L 414 535 L 282 685 L 109 807"/>
</g>
</svg>