<svg id="z19998" class="acjk" viewBox="0 0 1024 1024" xmlns="http://www.w3.org/2000/svg">

<style>
<![CDATA[
@keyframes zk { to { stroke-dashoffset:0; } }
svg.acjk path[clip-path] {
    --t:0.8s;
    animation:zk var(--t) linear forwards var(--d);
    stroke-dasharray:3337;
    stroke-dashoffset:3339;
    stroke-width:128;
    stroke-linecap:round;
    fill:none;
}
/* Low opacity for background improves visual overlap at intersections */
svg.acjk .bg { fill:#ccc; opacity: 0.5; } 
]]>
</style>
<defs>
    <clipPath id="z19998c1"><path d="M 501 323 C 583 246 639 202 670 192 C 684 187 688 178 685 166 C 681 154 656 134 608 109 C 594 101 578 101 562 108 C 515 124 457 142 388 163 C 369 168 338 170 294 169 C 277 168 270 176 278 191 C 282 200 293 208 307 217 C 329 230 351 225 378 214 C 483 166 546 151 563 161 C 572 166 575 176 570 185 C 545 223 516 264 488 309 C 485 314 496 327 501 323 Z"/></clipPath>
    <clipPath id="z19998c2"><path d="M 540 438 C 526 369 516 339 501 323 C 492 314 492 314 488 309 C 480 300 468 297 457 293 C 444 288 434 288 428 292 C 419 296 418 303 428 311 C 450 328 463 351 471 380 C 485 433 495 486 496 541 C 496 593 492 637 478 670 C 471 685 454 690 434 686 C 415 682 397 678 380 674 C 373 672 370 674 373 682 C 374 687 383 692 394 702 C 418 722 432 742 441 759 C 446 770 456 774 466 774 C 474 773 487 764 505 748 C 537 717 553 656 552 567 C 551 537 550 513 547 487 C 544 470 543 454 540 438 Z"/></clipPath>
    <clipPath id="z19998c3"><path d="M 145 452 C 136 452 131 455 131 461 C 130 465 135 470 145 475 C 175 490 199 494 217 488 C 285 464 323 454 330 456 C 338 457 337 467 331 483 C 298 555 268 608 240 644 C 209 682 168 722 115 763 C 104 771 102 775 110 777 C 116 777 126 774 139 769 C 186 746 230 716 271 678 C 308 642 352 580 399 488 C 406 474 411 462 420 456 C 429 448 431 442 426 435 C 419 427 404 420 381 410 C 365 403 345 407 317 419 C 277 435 219 444 145 452 Z"/></clipPath>
    <clipPath id="z19998c4"><path d="M 579 478 C 605 464 656 435 731 389 C 746 379 761 370 779 364 C 795 358 800 347 793 335 C 784 321 771 309 753 297 C 736 285 723 281 714 282 C 705 282 703 287 704 298 C 705 319 682 352 639 395 C 616 417 591 442 567 466 C 563 470 574 481 579 478 Z"/></clipPath>
    <clipPath id="z19998c5"><path d="M 567 466 C 557 456 548 446 540 438 C 528 426 535 475 547 487 C 687 657 771 746 802 747 C 849 748 896 730 938 722 C 954 718 963 716 964 712 C 964 707 954 700 934 693 C 828 656 760 628 731 608 C 700 586 618 517 579 478 C 571 470 571 470 567 466 Z"/></clipPath>
    <clipPath id="z19998c6"><path d="M 238 857 C 223 858 221 864 232 877 C 241 887 252 895 265 899 C 279 903 292 903 305 901 C 414 876 553 868 722 873 C 733 873 746 874 759 875 C 773 876 782 873 786 867 C 790 858 787 848 775 839 C 739 810 707 798 680 803 C 611 814 464 833 238 857 Z"/></clipPath>
</defs>
<g id="bg-layer">
    <path class="bg" d="M 501 323 C 583 246 639 202 670 192 C 684 187 688 178 685 166 C 681 154 656 134 608 109 C 594 101 578 101 562 108 C 515 124 457 142 388 163 C 369 168 338 170 294 169 C 277 168 270 176 278 191 C 282 200 293 208 307 217 C 329 230 351 225 378 214 C 483 166 546 151 563 161 C 572 166 575 176 570 185 C 545 223 516 264 488 309 C 485 314 496 327 501 323 Z"/>
    <path class="bg" d="M 540 438 C 526 369 516 339 501 323 C 492 314 492 314 488 309 C 480 300 468 297 457 293 C 444 288 434 288 428 292 C 419 296 418 303 428 311 C 450 328 463 351 471 380 C 485 433 495 486 496 541 C 496 593 492 637 478 670 C 471 685 454 690 434 686 C 415 682 397 678 380 674 C 373 672 370 674 373 682 C 374 687 383 692 394 702 C 418 722 432 742 441 759 C 446 770 456 774 466 774 C 474 773 487 764 505 748 C 537 717 553 656 552 567 C 551 537 550 513 547 487 C 544 470 543 454 540 438 Z"/>
    <path class="bg" d="M 145 452 C 136 452 131 455 131 461 C 130 465 135 470 145 475 C 175 490 199 494 217 488 C 285 464 323 454 330 456 C 338 457 337 467 331 483 C 298 555 268 608 240 644 C 209 682 168 722 115 763 C 104 771 102 775 110 777 C 116 777 126 774 139 769 C 186 746 230 716 271 678 C 308 642 352 580 399 488 C 406 474 411 462 420 456 C 429 448 431 442 426 435 C 419 427 404 420 381 410 C 365 403 345 407 317 419 C 277 435 219 444 145 452 Z"/>
    <path class="bg" d="M 579 478 C 605 464 656 435 731 389 C 746 379 761 370 779 364 C 795 358 800 347 793 335 C 784 321 771 309 753 297 C 736 285 723 281 714 282 C 705 282 703 287 704 298 C 705 319 682 352 639 395 C 616 417 591 442 567 466 C 563 470 574 481 579 478 Z"/>
    <path class="bg" d="M 567 466 C 557 456 548 446 540 438 C 528 426 535 475 547 487 C 687 657 771 746 802 747 C 849 748 896 730 938 722 C 954 718 963 716 964 712 C 964 707 954 700 934 693 C 828 656 760 628 731 608 C 700 586 618 517 579 478 C 571 470 571 470 567 466 Z"/>
    <path class="bg" d="M 238 857 C 223 858 221 864 232 877 C 241 887 252 895 265 899 C 279 903 292 903 305 901 C 414 876 553 868 722 873 C 733 873 746 874 759 875 C 773 876 782 873 786 867 C 790 858 787 848 775 839 C 739 810 707 798 680 803 C 611 814 464 833 238 857 Z"/>
</g>
<g id="anim-layer">
    <path style="--d:1s; stroke:#FF4444;" pathLength="3333" clip-path="url(#z19998c1)" d="M 279 178 L 335 197 L 586 136 L 629 182 L 492 315"/>
    <path style="--d:2s; stroke:#FF4444;" pathLength="3333" clip-path="url(#z19998c2)" d="M 427 300 L 469 322 L 501 387 L 521 618 L 504 689 L 464 728 L 380 678"/>
    <path style="--d:3s; stroke:#FF4444;" pathLength="3333" clip-path="url(#z19998c3)" d="M 136 460 L 201 468 L 341 432 L 382 455 L 260 656 L 113 772"/>
    <path style="--d:4s; stroke:#FF4444;" pathLength="3333" clip-path="url(#z19998c4)" d="M 711 286 L 744 340 L 571 470"/>
    <path style="--d:5s; stroke:#FF4444;" pathLength="3333" clip-path="url(#z19998c5)" d="M 542 446 L 598 522 L 778 682 L 831 704 L 958 708"/>
    <path style="--d:6s; stroke:#000;" pathLength="3333" clip-path="url(#z19998c6)" d="M 233 864 L 294 876 L 692 837 L 784 860"/>
</g>
</svg>