<svg id="z20026" class="acjk" viewBox="0 0 1024 1024" xmlns="http://www.w3.org/2000/svg">

<style>
<![CDATA[
@keyframes zk { to { stroke-dashoffset:0; } }
svg.acjk path[clip-path] {
    --t:0.8s;
    animation:zk var(--t) linear forwards var(--d);
    stroke-dasharray:3337;
    stroke-dashoffset:3339;
    stroke-width:128;
    stroke-linecap:round;
    fill:none;
}
/* Low opacity for background improves visual overlap at intersections */
svg.acjk .bg { fill:#ccc; opacity: 0.5; } 
]]>
</style>
<defs>
    <clipPath id="z20026c1"><path d="M 324 196 Q 349 227 378 265 Q 390 281 406 283 Q 416 284 425 271 Q 432 256 428 224 Q 422 185 327 146 Q 311 139 304 141 Q 298 144 298 158 Q 299 170 324 196 Z"/></clipPath>
    <clipPath id="z20026c2"><path d="M 460 404 Q 367 569 357 586 Q 353 589 350 595 Q 263 713 115 842 Q 108 846 104 853 Q 98 863 110 865 Q 143 868 266 765 Q 308 728 349 680 Q 449 559 527 391 C 537 369 537 369 542 358 Q 558 318 574 278 Q 614 175 630 149 Q 643 136 639 120 Q 627 96 598 72 Q 580 54 565 56 Q 550 60 553 77 Q 563 114 552 165 Q 540 196 528 236 Q 503 306 475 370 C 465 393 465 393 460 404 Z"/></clipPath>
    <clipPath id="z20026c3"><path d="M 475 370 Q 459 371 443 375 Q 298 396 216 393 Q 194 390 192 403 Q 191 415 216 432 Q 247 454 277 446 Q 368 421 460 404 C 505 395 505 395 527 391 Q 612 375 699 366 Q 727 365 733 379 Q 742 398 738 446 Q 725 624 692 719 Q 674 779 655 797 Q 642 812 613 804 Q 571 791 533 779 Q 508 772 526 795 Q 581 850 612 894 Q 624 919 648 911 Q 670 907 696 877 Q 772 799 798 494 Q 804 427 829 386 Q 848 361 838 349 Q 819 327 778 309 Q 748 294 717 309 Q 641 337 542 358 C 497 366 497 366 475 370 Z"/></clipPath>
    <clipPath id="z20026c4"><path d="M 496 579 Q 524 609 554 644 Q 564 657 580 658 Q 590 659 597 647 Q 603 634 598 604 Q 591 568 497 532 Q 482 528 476 529 Q 472 532 471 545 Q 472 555 496 579 Z"/></clipPath>
</defs>
<g id="bg-layer">
    <path class="bg" d="M 324 196 Q 349 227 378 265 Q 390 281 406 283 Q 416 284 425 271 Q 432 256 428 224 Q 422 185 327 146 Q 311 139 304 141 Q 298 144 298 158 Q 299 170 324 196 Z"/>
    <path class="bg" d="M 460 404 Q 367 569 357 586 Q 353 589 350 595 Q 263 713 115 842 Q 108 846 104 853 Q 98 863 110 865 Q 143 868 266 765 Q 308 728 349 680 Q 449 559 527 391 C 537 369 537 369 542 358 Q 558 318 574 278 Q 614 175 630 149 Q 643 136 639 120 Q 627 96 598 72 Q 580 54 565 56 Q 550 60 553 77 Q 563 114 552 165 Q 540 196 528 236 Q 503 306 475 370 C 465 393 465 393 460 404 Z"/>
    <path class="bg" d="M 475 370 Q 459 371 443 375 Q 298 396 216 393 Q 194 390 192 403 Q 191 415 216 432 Q 247 454 277 446 Q 368 421 460 404 C 505 395 505 395 527 391 Q 612 375 699 366 Q 727 365 733 379 Q 742 398 738 446 Q 725 624 692 719 Q 674 779 655 797 Q 642 812 613 804 Q 571 791 533 779 Q 508 772 526 795 Q 581 850 612 894 Q 624 919 648 911 Q 670 907 696 877 Q 772 799 798 494 Q 804 427 829 386 Q 848 361 838 349 Q 819 327 778 309 Q 748 294 717 309 Q 641 337 542 358 C 497 366 497 366 475 370 Z"/>
    <path class="bg" d="M 496 579 Q 524 609 554 644 Q 564 657 580 658 Q 590 659 597 647 Q 603 634 598 604 Q 591 568 497 532 Q 482 528 476 529 Q 472 532 471 545 Q 472 555 496 579 Z"/>
</g>
<g id="anim-layer">
    <path style="--d:1s; stroke:#FF4444;" pathLength="3333" clip-path="url(#z20026c1)" d="M 307 145 L 419 276"/>
    <path style="--d:2s; stroke:#000;" pathLength="3333" clip-path="url(#z20026c2)" d="M 562 63 L 596 139 L 439 500 L 305 691 L 111 857"/>
    <path style="--d:3s; stroke:#000;" pathLength="3333" clip-path="url(#z20026c3)" d="M 197 404 L 268 420 L 724 336 L 787 369 L 737 690 L 693 812 L 636 859 L 525 785"/>
    <path style="--d:4s; stroke:#000;" pathLength="3333" clip-path="url(#z20026c4)" d="M 480 536 L 560 602 L 585 653"/>
</g>
</svg>