<svg id="z20060" class="acjk" viewBox="0 0 1024 1024" xmlns="http://www.w3.org/2000/svg">

<style>
<![CDATA[
@keyframes zk { to { stroke-dashoffset:0; } }
svg.acjk path[clip-path] {
    --t:0.8s;
    animation:zk var(--t) linear forwards var(--d);
    stroke-dasharray:3337;
    stroke-dashoffset:3339;
    stroke-width:128;
    stroke-linecap:round;
    fill:none;
}
/* Low opacity for background improves visual overlap at intersections */
svg.acjk .bg { fill:#ccc; opacity: 0.5; } 
]]>
</style>
<defs>
    <clipPath id="z20060c1"><path d="M 403 476 C 476 450 567 415 680 381 C 696 376 704 381 708 391 C 710 399 697 444 671 530 C 660 564 647 574 624 564 C 607 556 591 551 575 547 C 564 544 560 547 563 553 C 566 561 595 586 641 634 C 658 652 670 657 684 642 C 708 614 732 568 750 505 C 766 444 786 401 817 375 C 828 364 827 353 816 344 C 802 333 776 324 740 314 C 725 309 714 312 703 321 C 657 354 514 410 404 443 C 372 452 372 452 356 457 C 273 481 186 504 104 519 C 94 520 88 522 87 530 C 86 534 100 543 130 557 C 148 565 166 564 184 556 C 206 544 264 524 357 492 C 388 481 388 481 403 476 Z"/></clipPath>
    <clipPath id="z20060c2"><path d="M 433 823 C 491 870 618 884 815 860 C 845 856 872 847 896 841 C 915 835 929 829 934 819 C 937 812 934 801 928 786 C 910 744 899 676 889 585 C 887 574 882 566 876 563 C 872 560 868 564 867 575 C 858 619 847 677 833 723 C 823 757 814 775 791 786 C 767 798 704 810 655 811 C 571 813 518 808 470 785 C 433 767 413 713 407 633 C 404 603 400 550 403 476 C 404 454 404 454 404 443 C 406 374 414 322 428 286 C 432 273 432 261 425 253 C 416 243 397 233 370 224 C 347 216 332 217 325 224 C 318 229 321 240 332 255 C 360 306 353 370 356 457 C 357 480 357 480 357 492 C 360 605 343 749 433 823 Z"/></clipPath>
</defs>
<g id="bg-layer">
    <path class="bg" d="M 403 476 C 476 450 567 415 680 381 C 696 376 704 381 708 391 C 710 399 697 444 671 530 C 660 564 647 574 624 564 C 607 556 591 551 575 547 C 564 544 560 547 563 553 C 566 561 595 586 641 634 C 658 652 670 657 684 642 C 708 614 732 568 750 505 C 766 444 786 401 817 375 C 828 364 827 353 816 344 C 802 333 776 324 740 314 C 725 309 714 312 703 321 C 657 354 514 410 404 443 C 372 452 372 452 356 457 C 273 481 186 504 104 519 C 94 520 88 522 87 530 C 86 534 100 543 130 557 C 148 565 166 564 184 556 C 206 544 264 524 357 492 C 388 481 388 481 403 476 Z"/>
    <path class="bg" d="M 433 823 C 491 870 618 884 815 860 C 845 856 872 847 896 841 C 915 835 929 829 934 819 C 937 812 934 801 928 786 C 910 744 899 676 889 585 C 887 574 882 566 876 563 C 872 560 868 564 867 575 C 858 619 847 677 833 723 C 823 757 814 775 791 786 C 767 798 704 810 655 811 C 571 813 518 808 470 785 C 433 767 413 713 407 633 C 404 603 400 550 403 476 C 404 454 404 454 404 443 C 406 374 414 322 428 286 C 432 273 432 261 425 253 C 416 243 397 233 370 224 C 347 216 332 217 325 224 C 318 229 321 240 332 255 C 360 306 353 370 356 457 C 357 480 357 480 357 492 C 360 605 343 749 433 823 Z"/>
</g>
<g id="anim-layer">
    <path style="--d:1s; stroke:#FF4444;" pathLength="3333" clip-path="url(#z20060c1)" d="M 95 528 L 170 533 L 719 348 L 770 381 L 678 589 L 652 608 L 568 552"/>
    <path style="--d:2s; stroke:#000;" pathLength="3333" clip-path="url(#z20060c2)" d="M 326 226 L 388 278 L 386 672 L 413 762 L 455 807 L 660 841 L 848 806 L 889 778 L 877 571"/>
</g>
</svg>