<svg id="z20141" class="acjk" viewBox="0 0 1024 1024" xmlns="http://www.w3.org/2000/svg">

<style>
<![CDATA[
@keyframes zk { to { stroke-dashoffset:0; } }
svg.acjk path[clip-path] {
    --t:0.8s;
    animation:zk var(--t) linear forwards var(--d);
    stroke-dasharray:3337;
    stroke-dashoffset:3339;
    stroke-width:128;
    stroke-linecap:round;
    fill:none;
}
/* Low opacity for background improves visual overlap at intersections */
svg.acjk .bg { fill:#ccc; opacity: 0.5; } 
]]>
</style>
<defs>
    <clipPath id="z20141c1"><path d="M 480 75 C 507 102 529 123 551 131 C 560 134 569 129 575 120 C 579 111 580 100 577 89 C 572 72 563 60 551 53 C 531 40 506 35 477 34 C 472 33 468 34 465 36 C 460 37 460 41 462 50 C 463 57 469 64 480 75 Z"/></clipPath>
    <clipPath id="z20141c2"><path d="M 282 185 C 261 187 258 194 274 207 C 298 227 319 234 340 230 C 493 200 633 181 758 173 C 766 172 775 171 780 161 C 783 153 772 145 757 136 C 731 121 693 123 637 135 C 505 161 397 173 313 182 C 302 183 292 183 282 185 Z"/></clipPath>
    <clipPath id="z20141c3"><path d="M 401 280 C 392 277 380 275 365 273 C 356 271 353 272 351 275 C 347 280 348 286 354 296 C 370 322 384 357 395 402 C 398 414 403 425 412 434 C 424 446 431 448 434 439 C 435 432 437 423 436 414 C 433 393 433 393 431 383 C 425 346 420 321 419 308 C 417 297 412 282 401 280 Z"/></clipPath>
    <clipPath id="z20141c4"><path d="M 641 360 C 657 334 673 318 688 309 C 701 299 702 286 693 276 C 684 266 662 254 631 236 C 620 230 590 239 536 254 C 480 269 435 274 401 280 C 390 282 408 310 419 308 C 439 303 528 288 578 279 C 590 276 599 277 604 283 C 608 288 603 313 589 355 C 583 371 631 374 641 360 Z"/></clipPath>
    <clipPath id="z20141c5"><path d="M 436 414 C 440 414 446 414 452 413 C 494 404 560 397 652 392 C 658 391 662 388 663 383 C 663 378 655 370 641 360 C 627 349 606 352 589 355 C 530 367 477 377 431 383 C 421 385 426 414 436 414 Z"/></clipPath>
    <clipPath id="z20141c6"><path d="M 244 492 C 236 476 228 465 221 460 C 208 449 198 453 199 472 C 199 494 187 523 158 560 C 133 590 124 618 147 661 C 157 679 169 679 183 660 C 191 646 211 600 243 522 C 247 513 248 501 244 492 Z"/></clipPath>
    <clipPath id="z20141c7"><path d="M 243 522 C 261 534 287 535 321 527 C 449 492 596 470 762 461 C 796 459 813 463 813 475 C 813 477 801 499 776 541 C 770 550 768 556 773 560 C 777 563 786 560 799 555 C 839 536 874 526 905 523 C 931 519 944 514 944 509 C 943 501 918 476 871 434 C 856 421 841 414 824 417 C 597 444 446 465 370 477 C 328 483 272 490 244 492 C 234 492 235 516 243 522 Z"/></clipPath>
    <clipPath id="z20141c8"><path d="M 539 592 C 583 585 644 582 721 582 C 733 581 741 578 744 573 C 747 565 743 556 733 549 C 694 523 661 520 633 528 C 555 548 443 567 299 591 C 286 593 284 599 294 609 C 302 617 313 623 325 626 C 337 628 348 627 359 625 C 421 608 476 601 498 598 C 525 594 525 594 539 592 Z"/></clipPath>
    <clipPath id="z20141c9"><path d="M 498 598 C 506 622 513 679 513 757 C 512 801 509 828 505 839 C 501 847 492 851 477 848 C 454 842 432 836 409 832 C 400 830 395 831 395 836 C 394 840 396 845 404 852 C 452 892 483 924 500 947 C 509 959 520 962 529 960 C 537 957 544 943 554 920 C 564 895 572 862 571 818 C 568 747 567 699 571 675 C 574 646 573 623 560 609 C 553 601 545 596 539 592 C 527 585 495 584 498 598 Z"/></clipPath>
</defs>
<g id="bg-layer">
    <path class="bg" d="M 480 75 C 507 102 529 123 551 131 C 560 134 569 129 575 120 C 579 111 580 100 577 89 C 572 72 563 60 551 53 C 531 40 506 35 477 34 C 472 33 468 34 465 36 C 460 37 460 41 462 50 C 463 57 469 64 480 75 Z"/>
    <path class="bg" d="M 282 185 C 261 187 258 194 274 207 C 298 227 319 234 340 230 C 493 200 633 181 758 173 C 766 172 775 171 780 161 C 783 153 772 145 757 136 C 731 121 693 123 637 135 C 505 161 397 173 313 182 C 302 183 292 183 282 185 Z"/>
    <path class="bg" d="M 401 280 C 392 277 380 275 365 273 C 356 271 353 272 351 275 C 347 280 348 286 354 296 C 370 322 384 357 395 402 C 398 414 403 425 412 434 C 424 446 431 448 434 439 C 435 432 437 423 436 414 C 433 393 433 393 431 383 C 425 346 420 321 419 308 C 417 297 412 282 401 280 Z"/>
    <path class="bg" d="M 641 360 C 657 334 673 318 688 309 C 701 299 702 286 693 276 C 684 266 662 254 631 236 C 620 230 590 239 536 254 C 480 269 435 274 401 280 C 390 282 408 310 419 308 C 439 303 528 288 578 279 C 590 276 599 277 604 283 C 608 288 603 313 589 355 C 583 371 631 374 641 360 Z"/>
    <path class="bg" d="M 436 414 C 440 414 446 414 452 413 C 494 404 560 397 652 392 C 658 391 662 388 663 383 C 663 378 655 370 641 360 C 627 349 606 352 589 355 C 530 367 477 377 431 383 C 421 385 426 414 436 414 Z"/>
    <path class="bg" d="M 244 492 C 236 476 228 465 221 460 C 208 449 198 453 199 472 C 199 494 187 523 158 560 C 133 590 124 618 147 661 C 157 679 169 679 183 660 C 191 646 211 600 243 522 C 247 513 248 501 244 492 Z"/>
    <path class="bg" d="M 243 522 C 261 534 287 535 321 527 C 449 492 596 470 762 461 C 796 459 813 463 813 475 C 813 477 801 499 776 541 C 770 550 768 556 773 560 C 777 563 786 560 799 555 C 839 536 874 526 905 523 C 931 519 944 514 944 509 C 943 501 918 476 871 434 C 856 421 841 414 824 417 C 597 444 446 465 370 477 C 328 483 272 490 244 492 C 234 492 235 516 243 522 Z"/>
    <path class="bg" d="M 539 592 C 583 585 644 582 721 582 C 733 581 741 578 744 573 C 747 565 743 556 733 549 C 694 523 661 520 633 528 C 555 548 443 567 299 591 C 286 593 284 599 294 609 C 302 617 313 623 325 626 C 337 628 348 627 359 625 C 421 608 476 601 498 598 C 525 594 525 594 539 592 Z"/>
    <path class="bg" d="M 498 598 C 506 622 513 679 513 757 C 512 801 509 828 505 839 C 501 847 492 851 477 848 C 454 842 432 836 409 832 C 400 830 395 831 395 836 C 394 840 396 845 404 852 C 452 892 483 924 500 947 C 509 959 520 962 529 960 C 537 957 544 943 554 920 C 564 895 572 862 571 818 C 568 747 567 699 571 675 C 574 646 573 623 560 609 C 553 601 545 596 539 592 C 527 585 495 584 498 598 Z"/>
</g>
<g id="anim-layer">
    <path style="--d:1s; stroke:#FF4444;" pathLength="3333" clip-path="url(#z20141c1)" d="M 466 41 L 569 121"/>
    <path style="--d:2s; stroke:#FF4444;" pathLength="3333" clip-path="url(#z20141c2)" d="M 271 194 L 324 206 L 694 151 L 772 159"/>
    <path style="--d:3s; stroke:#000;" pathLength="3333" clip-path="url(#z20141c3)" d="M 356 278 L 390 310 L 426 438"/>
    <path style="--d:4s; stroke:#000;" pathLength="3333" clip-path="url(#z20141c4)" d="M 410 282 L 608 257 L 650 297 L 599 354"/>
    <path style="--d:5s; stroke:#000;" pathLength="3333" clip-path="url(#z20141c5)" d="M 438 388 L 656 378"/>
    <path style="--d:6s; stroke:#000;" pathLength="3333" clip-path="url(#z20141c6)" d="M 210 458 L 219 506 L 155 668"/>
    <path style="--d:7s; stroke:#000;" pathLength="3333" clip-path="url(#z20141c7)" d="M 251 496 L 307 508 L 820 441 L 856 467 L 890 516 L 780 552"/>
    <path style="--d:8s; stroke:#000;" pathLength="3333" clip-path="url(#z20141c8)" d="M 298 603 L 643 554 L 739 560"/>
    <path style="--d:9s; stroke:#000;" pathLength="3333" clip-path="url(#z20141c9)" d="M 506 600 L 541 648 L 526 884 L 500 904 L 402 836"/>
</g>
</svg>