<svg id="z20170" class="acjk" viewBox="0 0 1024 1024" xmlns="http://www.w3.org/2000/svg">

<style>
<![CDATA[
@keyframes zk { to { stroke-dashoffset:0; } }
svg.acjk path[clip-path] {
    --t:0.8s;
    animation:zk var(--t) linear forwards var(--d);
    stroke-dasharray:3337;
    stroke-dashoffset:3339;
    stroke-width:128;
    stroke-linecap:round;
    fill:none;
}
/* Low opacity for background improves visual overlap at intersections */
svg.acjk .bg { fill:#ccc; opacity: 0.5; } 
]]>
</style>
<defs>
    <clipPath id="z20170c1"><path d="M 507 160 C 514 147 520 133 535 122 C 540 117 543 111 542 103 C 541 95 535 87 525 78 C 500 56 474 45 447 49 C 440 49 439 56 440 67 C 445 144 403 257 277 399 C 192 494 112 559 53 610 C 46 615 47 619 56 619 C 108 614 187 562 288 462 C 352 398 422 305 493 184 C 502 168 502 168 507 160 Z"/></clipPath>
    <clipPath id="z20170c2"><path d="M 493 184 C 565 286 646 392 738 503 C 752 520 773 529 800 529 C 890 529 949 528 978 524 C 986 522 992 519 993 515 C 994 510 987 503 975 499 C 853 451 770 415 732 382 C 662 321 587 246 507 160 C 500 153 487 177 493 184 Z"/></clipPath>
    <clipPath id="z20170c3"><path d="M 441 427 C 469 465 496 491 520 504 C 530 506 539 503 547 495 C 551 486 553 476 553 464 C 545 429 496 404 459 388 C 450 384 436 381 430 384 C 425 384 423 389 425 398 C 425 406 431 416 441 427 Z"/></clipPath>
    <clipPath id="z20170c4"><path d="M 294 622 C 271 623 262 623 261 629 C 258 641 264 650 282 662 C 303 676 317 684 330 684 C 344 683 360 675 382 668 C 516 619 590 599 605 621 C 611 630 607 644 597 660 C 589 672 578 697 560 735 C 531 794 508 826 497 837 C 473 858 468 886 475 920 C 478 934 481 944 488 948 C 494 952 502 949 512 942 C 535 923 575 848 632 716 C 649 675 671 649 694 634 C 701 628 705 621 706 614 C 707 605 695 592 671 576 C 646 559 628 550 617 550 C 611 549 605 553 599 557 C 525 591 423 614 294 622 Z"/></clipPath>
</defs>
<g id="bg-layer">
    <path class="bg" d="M 507 160 C 514 147 520 133 535 122 C 540 117 543 111 542 103 C 541 95 535 87 525 78 C 500 56 474 45 447 49 C 440 49 439 56 440 67 C 445 144 403 257 277 399 C 192 494 112 559 53 610 C 46 615 47 619 56 619 C 108 614 187 562 288 462 C 352 398 422 305 493 184 C 502 168 502 168 507 160 Z"/>
    <path class="bg" d="M 493 184 C 565 286 646 392 738 503 C 752 520 773 529 800 529 C 890 529 949 528 978 524 C 986 522 992 519 993 515 C 994 510 987 503 975 499 C 853 451 770 415 732 382 C 662 321 587 246 507 160 C 500 153 487 177 493 184 Z"/>
    <path class="bg" d="M 441 427 C 469 465 496 491 520 504 C 530 506 539 503 547 495 C 551 486 553 476 553 464 C 545 429 496 404 459 388 C 450 384 436 381 430 384 C 425 384 423 389 425 398 C 425 406 431 416 441 427 Z"/>
    <path class="bg" d="M 294 622 C 271 623 262 623 261 629 C 258 641 264 650 282 662 C 303 676 317 684 330 684 C 344 683 360 675 382 668 C 516 619 590 599 605 621 C 611 630 607 644 597 660 C 589 672 578 697 560 735 C 531 794 508 826 497 837 C 473 858 468 886 475 920 C 478 934 481 944 488 948 C 494 952 502 949 512 942 C 535 923 575 848 632 716 C 649 675 671 649 694 634 C 701 628 705 621 706 614 C 707 605 695 592 671 576 C 646 559 628 550 617 550 C 611 549 605 553 599 557 C 525 591 423 614 294 622 Z"/>
</g>
<g id="anim-layer">
    <path style="--d:1s; stroke:#FF4444;" pathLength="3333" clip-path="url(#z20170c1)" d="M 449 57 L 489 115 L 392 293 L 241 473 L 56 614"/>
    <path style="--d:2s; stroke:#FF4444;" pathLength="3333" clip-path="url(#z20170c2)" d="M 505 169 L 778 471 L 986 510"/>
    <path style="--d:3s; stroke:#000;" pathLength="3333" clip-path="url(#z20170c3)" d="M 431 389 L 543 495"/>
    <path style="--d:4s; stroke:#000;" pathLength="3333" clip-path="url(#z20170c4)" d="M 265 631 L 334 651 L 609 584 L 655 616 L 489 943"/>
</g>
</svg>