<svg id="z20211" class="acjk" viewBox="0 0 1024 1024" xmlns="http://www.w3.org/2000/svg">

<style>
<![CDATA[
@keyframes zk { to { stroke-dashoffset:0; } }
svg.acjk path[clip-path] {
    --t:0.8s;
    animation:zk var(--t) linear forwards var(--d);
    stroke-dasharray:3337;
    stroke-dashoffset:3339;
    stroke-width:128;
    stroke-linecap:round;
    fill:none;
}
/* Low opacity for background improves visual overlap at intersections */
svg.acjk .bg { fill:#ccc; opacity: 0.5; } 
]]>
</style>
<defs>
    <clipPath id="z20211c1"><path d="M 227 386 Q 272 322 320 240 Q 348 186 373 160 Q 383 148 377 134 Q 373 121 341 97 Q 313 78 292 79 Q 271 80 281 105 Q 297 139 285 169 Q 246 269 187 362 Q 129 452 50 551 Q 40 561 38 569 Q 34 581 49 578 Q 89 569 193 431 Q 197 427 201 421 C 218 398 218 398 227 386 Z"/></clipPath>
    <clipPath id="z20211c2"><path d="M 201 421 Q 222 479 224 528 Q 223 550 223 573 Q 222 679 193 789 Q 178 838 215 886 Q 216 889 220 892 Q 239 908 251 880 Q 266 838 266 790 Q 269 534 278 475 Q 285 447 275 436 Q 257 414 243 400 Q 236 393 227 386 C 215 377 196 408 201 421 Z"/></clipPath>
    <clipPath id="z20211c3"><path d="M 422 475 Q 423 474 427 475 Q 437 475 577 429 Q 577 428 578 428 Q 585 421 580 414 Q 573 404 547 402 Q 528 401 457 431 Q 439 435 422 442 C 412 446 411 475 422 475 Z"/></clipPath>
    <clipPath id="z20211c4"><path d="M 422 442 Q 422 376 426 351 Q 430 338 420 326 Q 395 304 372 293 Q 353 286 344 292 Q 334 299 343 314 Q 394 419 364 640 Q 355 679 323 721 Q 311 737 319 760 Q 329 788 343 799 Q 356 808 368 790 Q 383 763 519 652 Q 538 639 544 630 Q 548 620 538 620 Q 535 620 429 667 Q 416 674 414 661 Q 421 559 422 475 C 422 453 422 453 422 442 Z"/></clipPath>
    <clipPath id="z20211c5"><path d="M 654 460 Q 714 438 824 386 Q 846 376 871 371 Q 893 367 887 347 Q 878 328 856 308 Q 837 289 824 289 Q 811 288 812 302 Q 812 335 654 439 C 648 443 648 463 654 460 Z"/></clipPath>
    <clipPath id="z20211c6"><path d="M 966 767 Q 982 754 966 725 Q 948 676 942 612 Q 942 602 934 592 Q 924 586 920 610 Q 887 710 877 722 Q 873 734 850 739 Q 772 761 709 737 Q 678 724 665 687 Q 649 639 654 460 C 654 446 654 446 654 439 Q 654 436 655 434 Q 661 247 684 210 Q 691 188 672 175 Q 644 150 605 141 Q 586 137 577 147 Q 570 156 577 165 Q 598 183 603 256 Q 603 641 618 699 Q 627 744 669 774 Q 748 823 894 800 Q 901 797 910 796 Q 950 784 966 767 Z"/></clipPath>
</defs>
<g id="bg-layer">
    <path class="bg" d="M 227 386 Q 272 322 320 240 Q 348 186 373 160 Q 383 148 377 134 Q 373 121 341 97 Q 313 78 292 79 Q 271 80 281 105 Q 297 139 285 169 Q 246 269 187 362 Q 129 452 50 551 Q 40 561 38 569 Q 34 581 49 578 Q 89 569 193 431 Q 197 427 201 421 C 218 398 218 398 227 386 Z"/>
    <path class="bg" d="M 201 421 Q 222 479 224 528 Q 223 550 223 573 Q 222 679 193 789 Q 178 838 215 886 Q 216 889 220 892 Q 239 908 251 880 Q 266 838 266 790 Q 269 534 278 475 Q 285 447 275 436 Q 257 414 243 400 Q 236 393 227 386 C 215 377 196 408 201 421 Z"/>
    <path class="bg" d="M 422 475 Q 423 474 427 475 Q 437 475 577 429 Q 577 428 578 428 Q 585 421 580 414 Q 573 404 547 402 Q 528 401 457 431 Q 439 435 422 442 C 412 446 411 475 422 475 Z"/>
    <path class="bg" d="M 422 442 Q 422 376 426 351 Q 430 338 420 326 Q 395 304 372 293 Q 353 286 344 292 Q 334 299 343 314 Q 394 419 364 640 Q 355 679 323 721 Q 311 737 319 760 Q 329 788 343 799 Q 356 808 368 790 Q 383 763 519 652 Q 538 639 544 630 Q 548 620 538 620 Q 535 620 429 667 Q 416 674 414 661 Q 421 559 422 475 C 422 453 422 453 422 442 Z"/>
    <path class="bg" d="M 654 460 Q 714 438 824 386 Q 846 376 871 371 Q 893 367 887 347 Q 878 328 856 308 Q 837 289 824 289 Q 811 288 812 302 Q 812 335 654 439 C 648 443 648 463 654 460 Z"/>
    <path class="bg" d="M 966 767 Q 982 754 966 725 Q 948 676 942 612 Q 942 602 934 592 Q 924 586 920 610 Q 887 710 877 722 Q 873 734 850 739 Q 772 761 709 737 Q 678 724 665 687 Q 649 639 654 460 C 654 446 654 446 654 439 Q 654 436 655 434 Q 661 247 684 210 Q 691 188 672 175 Q 644 150 605 141 Q 586 137 577 147 Q 570 156 577 165 Q 598 183 603 256 Q 603 641 618 699 Q 627 744 669 774 Q 748 823 894 800 Q 901 797 910 796 Q 950 784 966 767 Z"/>
</g>
<g id="anim-layer">
    <path style="--d:1s; stroke:#FF4444;" pathLength="3333" clip-path="url(#z20211c1)" d="M 286 84 L 334 141 L 320 174 L 183 409 L 42 571"/>
    <path style="--d:2s; stroke:#FF4444;" pathLength="3333" clip-path="url(#z20211c2)" d="M 224 395 L 248 465 L 233 894"/>
    <path style="--d:3s; stroke:#000;" pathLength="3333" clip-path="url(#z20211c3)" d="M 426 467 L 573 419"/>
    <path style="--d:4s; stroke:#000;" pathLength="3333" clip-path="url(#z20211c4)" d="M 347 299 L 395 367 L 396 561 L 360 733 L 381 748 L 539 626"/>
    <path style="--d:5s; stroke:#000;" pathLength="3333" clip-path="url(#z20211c5)" d="M 823 295 L 842 346 L 657 450"/>
    <path style="--d:6s; stroke:#000;" pathLength="3333" clip-path="url(#z20211c6)" d="M 578 154 L 641 204 L 631 610 L 663 734 L 757 776 L 898 759 L 931 723 L 931 598"/>
</g>
</svg>