<svg id="z20238" class="acjk" viewBox="0 0 1024 1024" xmlns="http://www.w3.org/2000/svg">

<style>
<![CDATA[
@keyframes zk { to { stroke-dashoffset:0; } }
svg.acjk path[clip-path] {
    --t:0.8s;
    animation:zk var(--t) linear forwards var(--d);
    stroke-dasharray:3337;
    stroke-dashoffset:3339;
    stroke-width:128;
    stroke-linecap:round;
    fill:none;
}
/* Low opacity for background improves visual overlap at intersections */
svg.acjk .bg { fill:#ccc; opacity: 0.5; } 
]]>
</style>
<defs>
    <clipPath id="z20238c1"><path d="M 264 370 Q 366 214 378 203 Q 388 193 383 178 Q 379 165 350 140 Q 322 121 302 121 Q 283 122 291 146 Q 306 180 292 208 Q 252 302 192 390 Q 134 475 55 568 Q 45 578 42 585 Q 38 597 53 594 Q 86 591 237 407 C 255 382 255 382 264 370 Z"/></clipPath>
    <clipPath id="z20238c2"><path d="M 237 407 Q 238 411 242 416 Q 258 450 259 482 Q 258 524 257 564 Q 254 676 222 793 Q 218 812 226 846 Q 238 880 249 892 Q 267 908 279 881 Q 294 841 293 794 Q 299 514 309 452 Q 316 425 307 414 Q 268 372 264 370 C 253 359 231 393 237 407 Z"/></clipPath>
    <clipPath id="z20238c3"><path d="M 613 349 Q 685 328 761 309 Q 816 293 824 285 Q 833 276 828 268 Q 821 256 790 250 Q 759 246 729 259 Q 674 281 617 300 C 582 310 582 310 565 315 Q 502 330 432 342 Q 395 349 422 365 Q 467 389 526 371 Q 542 365 564 362 C 597 353 597 353 613 349 Z"/></clipPath>
    <clipPath id="z20238c4"><path d="M 602 482 Q 608 415 613 349 C 616 316 616 316 617 300 Q 620 210 643 112 Q 647 102 626 85 Q 590 66 565 60 Q 549 56 540 65 Q 533 72 540 89 Q 564 123 563 147 Q 566 226 565 315 C 564 346 564 346 564 362 Q 563 426 558 498 C 558 514 602 498 602 482 Z"/></clipPath>
    <clipPath id="z20238c5"><path d="M 641 719 Q 681 656 719 560 Q 731 529 752 508 Q 771 490 757 476 Q 742 463 708 452 Q 683 445 654 460 Q 630 470 602 482 C 573 493 573 493 558 498 Q 513 511 446 524 Q 430 525 426 534 Q 422 543 443 549 Q 483 562 536 542 Q 621 508 637 508 Q 659 509 655 534 Q 636 621 599 682 C 584 704 584 704 577 715 Q 505 803 360 847 Q 345 853 358 861 Q 365 867 411 863 Q 522 854 613 756 C 632 731 632 731 641 719 Z"/></clipPath>
    <clipPath id="z20238c6"><path d="M 613 756 Q 760 915 824 910 Q 851 904 947 888 Q 960 885 974 879 Q 981 870 968 862 Q 952 855 822 823 Q 741 802 641 719 C 613 694 613 694 599 682 Q 562 648 523 605 Q 501 580 464 576 Q 452 575 443 582 Q 439 589 448 596 Q 455 602 464 606 Q 486 615 577 715 C 601 742 601 742 613 756 Z"/></clipPath>
</defs>
<g id="bg-layer">
    <path class="bg" d="M 264 370 Q 366 214 378 203 Q 388 193 383 178 Q 379 165 350 140 Q 322 121 302 121 Q 283 122 291 146 Q 306 180 292 208 Q 252 302 192 390 Q 134 475 55 568 Q 45 578 42 585 Q 38 597 53 594 Q 86 591 237 407 C 255 382 255 382 264 370 Z"/>
    <path class="bg" d="M 237 407 Q 238 411 242 416 Q 258 450 259 482 Q 258 524 257 564 Q 254 676 222 793 Q 218 812 226 846 Q 238 880 249 892 Q 267 908 279 881 Q 294 841 293 794 Q 299 514 309 452 Q 316 425 307 414 Q 268 372 264 370 C 253 359 231 393 237 407 Z"/>
    <path class="bg" d="M 613 349 Q 685 328 761 309 Q 816 293 824 285 Q 833 276 828 268 Q 821 256 790 250 Q 759 246 729 259 Q 674 281 617 300 C 582 310 582 310 565 315 Q 502 330 432 342 Q 395 349 422 365 Q 467 389 526 371 Q 542 365 564 362 C 597 353 597 353 613 349 Z"/>
    <path class="bg" d="M 602 482 Q 608 415 613 349 C 616 316 616 316 617 300 Q 620 210 643 112 Q 647 102 626 85 Q 590 66 565 60 Q 549 56 540 65 Q 533 72 540 89 Q 564 123 563 147 Q 566 226 565 315 C 564 346 564 346 564 362 Q 563 426 558 498 C 558 514 602 498 602 482 Z"/>
    <path class="bg" d="M 641 719 Q 681 656 719 560 Q 731 529 752 508 Q 771 490 757 476 Q 742 463 708 452 Q 683 445 654 460 Q 630 470 602 482 C 573 493 573 493 558 498 Q 513 511 446 524 Q 430 525 426 534 Q 422 543 443 549 Q 483 562 536 542 Q 621 508 637 508 Q 659 509 655 534 Q 636 621 599 682 C 584 704 584 704 577 715 Q 505 803 360 847 Q 345 853 358 861 Q 365 867 411 863 Q 522 854 613 756 C 632 731 632 731 641 719 Z"/>
    <path class="bg" d="M 613 756 Q 760 915 824 910 Q 851 904 947 888 Q 960 885 974 879 Q 981 870 968 862 Q 952 855 822 823 Q 741 802 641 719 C 613 694 613 694 599 682 Q 562 648 523 605 Q 501 580 464 576 Q 452 575 443 582 Q 439 589 448 596 Q 455 602 464 606 Q 486 615 577 715 C 601 742 601 742 613 756 Z"/>
</g>
<g id="anim-layer">
    <path style="--d:1s; stroke:#FF4444;" pathLength="3333" clip-path="url(#z20238c1)" d="M 296 126 L 339 196 L 217 395 L 49 585"/>
    <path style="--d:2s; stroke:#FF4444;" pathLength="3333" clip-path="url(#z20238c2)" d="M 263 377 L 283 442 L 255 893"/>
    <path style="--d:3s; stroke:#000;" pathLength="3333" clip-path="url(#z20238c3)" d="M 417 352 L 495 354 L 825 272"/>
    <path style="--d:4s; stroke:#000;" pathLength="3333" clip-path="url(#z20238c4)" d="M 544 70 L 602 121 L 583 453 L 564 488"/>
    <path style="--d:5s; stroke:#000;" pathLength="3333" clip-path="url(#z20238c5)" d="M 431 533 L 501 532 L 654 483 L 709 506 L 577 755 L 474 826 L 359 857"/>
    <path style="--d:6s; stroke:#000;" pathLength="3333" clip-path="url(#z20238c6)" d="M 451 587 L 503 611 L 683 788 L 780 853 L 969 870"/>
</g>
</svg>