<svg id="z20296" class="acjk" viewBox="0 0 1024 1024" xmlns="http://www.w3.org/2000/svg">

<style>
<![CDATA[
@keyframes zk { to { stroke-dashoffset:0; } }
svg.acjk path[clip-path] {
    --t:0.8s;
    animation:zk var(--t) linear forwards var(--d);
    stroke-dasharray:3337;
    stroke-dashoffset:3339;
    stroke-width:128;
    stroke-linecap:round;
    fill:none;
}
/* Low opacity for background improves visual overlap at intersections */
svg.acjk .bg { fill:#ccc; opacity: 0.5; } 
]]>
</style>
<defs>
    <clipPath id="z20296c1"><path d="M 221 363 Q 272 302 326 219 Q 356 170 381 145 Q 391 135 387 119 Q 383 106 353 80 Q 325 59 305 59 Q 284 60 293 85 Q 306 119 293 147 Q 251 241 189 328 Q 129 412 48 503 Q 38 513 34 520 Q 30 533 46 530 Q 85 526 193 396 C 212 374 212 374 221 363 Z"/></clipPath>
    <clipPath id="z20296c2"><path d="M 193 396 Q 196 405 201 412 Q 234 479 214 671 Q 207 726 193 785 Q 178 834 215 882 Q 216 885 220 888 Q 239 904 251 876 Q 266 834 266 786 Q 262 513 270 451 Q 277 423 267 412 Q 249 390 235 376 Q 228 369 221 363 C 211 353 188 383 193 396 Z"/></clipPath>
    <clipPath id="z20296c3"><path d="M 540 313 Q 690 273 887 272 Q 908 272 913 262 Q 917 250 901 238 Q 850 202 813 214 Q 741 233 616 260 Q 585 266 553 273 C 513 280 513 280 493 284 Q 435 294 375 306 Q 354 309 371 325 Q 384 337 403 341 Q 422 345 438 340 Q 457 333 478 328 C 519 318 519 318 540 313 Z"/></clipPath>
    <clipPath id="z20296c4"><path d="M 454 492 Q 508 402 540 313 C 549 286 549 286 553 273 Q 554 266 558 258 Q 589 159 611 128 Q 621 115 616 104 Q 603 74 547 60 Q 531 53 513 62 Q 503 72 512 84 Q 536 109 528 158 Q 513 230 493 284 C 483 313 483 313 478 328 Q 450 404 415 465 Q 373 535 277 642 Q 267 658 278 660 Q 284 661 297 653 Q 369 607 433 523 C 447 502 447 502 454 492 Z"/></clipPath>
    <clipPath id="z20296c5"><path d="M 471 499 Q 462 495 454 492 C 442 487 431 511 433 523 Q 454 604 430 677 Q 411 710 439 751 C 443 755 443 755 445 757 Q 452 769 460 763 Q 487 744 487 593 Q 487 547 489 532 C 491 520 483 504 471 499 Z"/></clipPath>
    <clipPath id="z20296c6"><path d="M 646 499 Q 701 486 732 484 Q 754 483 761 491 Q 774 501 774 540 Q 773 577 772 624 Q 772 657 761 671 Q 754 681 732 675 Q 722 675 709 674 Q 693 668 687 675 Q 683 679 698 691 Q 740 734 764 767 Q 777 780 796 774 Q 808 770 818 743 Q 839 700 837 648 Q 833 533 844 494 Q 851 478 844 469 Q 772 426 737 447 Q 701 459 647 472 C 610 479 610 479 592 483 Q 540 490 471 499 C 459 501 477 537 489 532 Q 492 528 593 510 C 628 503 628 503 646 499 Z"/></clipPath>
    <clipPath id="z20296c7"><path d="M 593 510 Q 594 625 593 789 Q 590 969 610 993 Q 616 1000 623 998 Q 639 988 643 931 Q 650 858 648 787 Q 645 727 646 499 C 647 481 647 481 647 472 Q 650 445 656 412 Q 660 396 645 386 Q 614 364 598 362 Q 585 358 570 367 Q 561 374 569 385 Q 590 430 592 483 C 593 501 593 501 593 510 Z"/></clipPath>
</defs>
<g id="bg-layer">
    <path class="bg" d="M 221 363 Q 272 302 326 219 Q 356 170 381 145 Q 391 135 387 119 Q 383 106 353 80 Q 325 59 305 59 Q 284 60 293 85 Q 306 119 293 147 Q 251 241 189 328 Q 129 412 48 503 Q 38 513 34 520 Q 30 533 46 530 Q 85 526 193 396 C 212 374 212 374 221 363 Z"/>
    <path class="bg" d="M 193 396 Q 196 405 201 412 Q 234 479 214 671 Q 207 726 193 785 Q 178 834 215 882 Q 216 885 220 888 Q 239 904 251 876 Q 266 834 266 786 Q 262 513 270 451 Q 277 423 267 412 Q 249 390 235 376 Q 228 369 221 363 C 211 353 188 383 193 396 Z"/>
    <path class="bg" d="M 540 313 Q 690 273 887 272 Q 908 272 913 262 Q 917 250 901 238 Q 850 202 813 214 Q 741 233 616 260 Q 585 266 553 273 C 513 280 513 280 493 284 Q 435 294 375 306 Q 354 309 371 325 Q 384 337 403 341 Q 422 345 438 340 Q 457 333 478 328 C 519 318 519 318 540 313 Z"/>
    <path class="bg" d="M 454 492 Q 508 402 540 313 C 549 286 549 286 553 273 Q 554 266 558 258 Q 589 159 611 128 Q 621 115 616 104 Q 603 74 547 60 Q 531 53 513 62 Q 503 72 512 84 Q 536 109 528 158 Q 513 230 493 284 C 483 313 483 313 478 328 Q 450 404 415 465 Q 373 535 277 642 Q 267 658 278 660 Q 284 661 297 653 Q 369 607 433 523 C 447 502 447 502 454 492 Z"/>
    <path class="bg" d="M 471 499 Q 462 495 454 492 C 442 487 431 511 433 523 Q 454 604 430 677 Q 411 710 439 751 C 443 755 443 755 445 757 Q 452 769 460 763 Q 487 744 487 593 Q 487 547 489 532 C 491 520 483 504 471 499 Z"/>
    <path class="bg" d="M 646 499 Q 701 486 732 484 Q 754 483 761 491 Q 774 501 774 540 Q 773 577 772 624 Q 772 657 761 671 Q 754 681 732 675 Q 722 675 709 674 Q 693 668 687 675 Q 683 679 698 691 Q 740 734 764 767 Q 777 780 796 774 Q 808 770 818 743 Q 839 700 837 648 Q 833 533 844 494 Q 851 478 844 469 Q 772 426 737 447 Q 701 459 647 472 C 610 479 610 479 592 483 Q 540 490 471 499 C 459 501 477 537 489 532 Q 492 528 593 510 C 628 503 628 503 646 499 Z"/>
    <path class="bg" d="M 593 510 Q 594 625 593 789 Q 590 969 610 993 Q 616 1000 623 998 Q 639 988 643 931 Q 650 858 648 787 Q 645 727 646 499 C 647 481 647 481 647 472 Q 650 445 656 412 Q 660 396 645 386 Q 614 364 598 362 Q 585 358 570 367 Q 561 374 569 385 Q 590 430 592 483 C 593 501 593 501 593 510 Z"/>
</g>
<g id="anim-layer">
    <path style="--d:1s; stroke:#FF4444;" pathLength="3333" clip-path="url(#z20296c1)" d="M 298 68 L 341 135 L 198 355 L 40 522"/>
    <path style="--d:2s; stroke:#FF4444;" pathLength="3333" clip-path="url(#z20296c2)" d="M 212 369 L 242 433 L 226 889"/>
    <path style="--d:3s; stroke:#000;" pathLength="3333" clip-path="url(#z20296c3)" d="M 370 313 L 432 318 L 827 242 L 908 255"/>
    <path style="--d:4s; stroke:#000;" pathLength="3333" clip-path="url(#z20296c4)" d="M 516 69 L 573 116 L 493 361 L 406 520 L 279 652"/>
    <path style="--d:5s; stroke:#000;" pathLength="3333" clip-path="url(#z20296c5)" d="M 447 499 L 465 598 L 453 758"/>
    <path style="--d:6s; stroke:#000;" pathLength="3333" clip-path="url(#z20296c6)" d="M 474 503 L 746 463 L 805 486 L 803 661 L 783 718 L 760 725 L 692 676"/>
    <path style="--d:7s; stroke:#000;" pathLength="3333" clip-path="url(#z20296c7)" d="M 573 373 L 620 415 L 619 993"/>
</g>
</svg>