<svg id="z20381" class="acjk" viewBox="0 0 1024 1024" xmlns="http://www.w3.org/2000/svg">

<style>
<![CDATA[
@keyframes zk { to { stroke-dashoffset:0; } }
svg.acjk path[clip-path] {
    --t:0.8s;
    animation:zk var(--t) linear forwards var(--d);
    stroke-dasharray:3337;
    stroke-dashoffset:3339;
    stroke-width:128;
    stroke-linecap:round;
    fill:none;
}
/* Low opacity for background improves visual overlap at intersections */
svg.acjk .bg { fill:#ccc; opacity: 0.5; } 
]]>
</style>
<defs>
    <clipPath id="z20381c1"><path d="M 226 398 Q 275 337 326 250 Q 351 204 373 180 Q 383 168 377 154 Q 373 141 341 117 Q 313 98 292 98 Q 271 101 281 124 Q 296 155 285 181 Q 230 328 82 519 Q 72 529 70 537 Q 66 549 81 546 Q 111 540 203 428 C 218 408 218 408 226 398 Z"/></clipPath>
    <clipPath id="z20381c2"><path d="M 203 428 Q 227 495 228 541 Q 219 676 217 691 Q 210 743 194 797 Q 184 842 218 893 Q 219 893 221 896 Q 239 912 251 885 Q 266 845 265 798 Q 271 545 281 488 Q 288 461 279 450 Q 237 404 226 398 C 216 390 198 416 203 428 Z"/></clipPath>
    <clipPath id="z20381c3"><path d="M 568 129 Q 602 156 639 188 Q 655 201 672 200 Q 684 199 689 184 Q 693 168 682 135 Q 675 113 637 96 Q 546 71 536 77 Q 530 81 533 95 Q 537 108 568 129 Z"/></clipPath>
    <clipPath id="z20381c4"><path d="M 551 330 Q 651 309 760 288 Q 829 272 838 263 Q 847 256 843 248 Q 836 236 808 228 Q 780 222 750 233 Q 584 291 382 312 Q 346 318 371 334 Q 410 358 467 345 Q 483 341 504 339 C 535 333 535 333 551 330 Z"/></clipPath>
    <clipPath id="z20381c5"><path d="M 545 431 Q 566 394 580 376 Q 587 372 585 361 Q 579 342 551 330 C 536 324 501 323 504 339 Q 517 414 406 561 Q 403 562 402 566 Q 368 608 285 689 Q 278 693 287 696 Q 347 684 445 577 Q 446 574 449 572 C 467 549 467 549 476 538 Q 501 502 535 448 C 542 437 542 437 545 431 Z"/></clipPath>
    <clipPath id="z20381c6"><path d="M 449 572 Q 459 599 459 625 Q 460 739 451 776 Q 447 807 433 825 Q 418 847 428 870 Q 440 904 458 917 Q 468 924 482 905 Q 519 857 644 738 Q 662 722 663 714 Q 664 701 643 713 Q 591 744 533 780 Q 515 793 507 789 Q 500 785 499 766 Q 506 628 514 594 Q 520 573 505 561 Q 490 545 476 538 C 464 531 444 559 449 572 Z"/></clipPath>
    <clipPath id="z20381c7"><path d="M 677 540 Q 734 501 812 443 Q 831 427 854 418 Q 875 408 865 391 Q 852 373 826 360 Q 804 347 790 349 Q 778 350 782 363 Q 785 394 725 461 Q 695 492 665 527 C 661 531 672 544 677 540 Z"/></clipPath>
    <clipPath id="z20381c8"><path d="M 665 527 Q 631 490 595 448 Q 583 430 566 429 Q 553 428 545 431 C 539 433 529 445 535 448 Q 572 467 595 504 Q 784 763 820 774 Q 869 783 971 764 Q 987 763 993 754 Q 997 747 987 743 Q 828 679 750 611 Q 716 580 677 540 C 669 531 669 531 665 527 Z"/></clipPath>
</defs>
<g id="bg-layer">
    <path class="bg" d="M 226 398 Q 275 337 326 250 Q 351 204 373 180 Q 383 168 377 154 Q 373 141 341 117 Q 313 98 292 98 Q 271 101 281 124 Q 296 155 285 181 Q 230 328 82 519 Q 72 529 70 537 Q 66 549 81 546 Q 111 540 203 428 C 218 408 218 408 226 398 Z"/>
    <path class="bg" d="M 203 428 Q 227 495 228 541 Q 219 676 217 691 Q 210 743 194 797 Q 184 842 218 893 Q 219 893 221 896 Q 239 912 251 885 Q 266 845 265 798 Q 271 545 281 488 Q 288 461 279 450 Q 237 404 226 398 C 216 390 198 416 203 428 Z"/>
    <path class="bg" d="M 568 129 Q 602 156 639 188 Q 655 201 672 200 Q 684 199 689 184 Q 693 168 682 135 Q 675 113 637 96 Q 546 71 536 77 Q 530 81 533 95 Q 537 108 568 129 Z"/>
    <path class="bg" d="M 551 330 Q 651 309 760 288 Q 829 272 838 263 Q 847 256 843 248 Q 836 236 808 228 Q 780 222 750 233 Q 584 291 382 312 Q 346 318 371 334 Q 410 358 467 345 Q 483 341 504 339 C 535 333 535 333 551 330 Z"/>
    <path class="bg" d="M 545 431 Q 566 394 580 376 Q 587 372 585 361 Q 579 342 551 330 C 536 324 501 323 504 339 Q 517 414 406 561 Q 403 562 402 566 Q 368 608 285 689 Q 278 693 287 696 Q 347 684 445 577 Q 446 574 449 572 C 467 549 467 549 476 538 Q 501 502 535 448 C 542 437 542 437 545 431 Z"/>
    <path class="bg" d="M 449 572 Q 459 599 459 625 Q 460 739 451 776 Q 447 807 433 825 Q 418 847 428 870 Q 440 904 458 917 Q 468 924 482 905 Q 519 857 644 738 Q 662 722 663 714 Q 664 701 643 713 Q 591 744 533 780 Q 515 793 507 789 Q 500 785 499 766 Q 506 628 514 594 Q 520 573 505 561 Q 490 545 476 538 C 464 531 444 559 449 572 Z"/>
    <path class="bg" d="M 677 540 Q 734 501 812 443 Q 831 427 854 418 Q 875 408 865 391 Q 852 373 826 360 Q 804 347 790 349 Q 778 350 782 363 Q 785 394 725 461 Q 695 492 665 527 C 661 531 672 544 677 540 Z"/>
    <path class="bg" d="M 665 527 Q 631 490 595 448 Q 583 430 566 429 Q 553 428 545 431 C 539 433 529 445 535 448 Q 572 467 595 504 Q 784 763 820 774 Q 869 783 971 764 Q 987 763 993 754 Q 997 747 987 743 Q 828 679 750 611 Q 716 580 677 540 C 669 531 669 531 665 527 Z"/>
</g>
<g id="anim-layer">
    <path style="--d:1s; stroke:#FF4444;" pathLength="3333" clip-path="url(#z20381c1)" d="M 284 106 L 330 152 L 329 177 L 202 391 L 76 541"/>
    <path style="--d:2s; stroke:#FF4444;" pathLength="3333" clip-path="url(#z20381c2)" d="M 225 408 L 253 484 L 231 896"/>
    <path style="--d:3s; stroke:#000;" pathLength="3333" clip-path="url(#z20381c3)" d="M 539 85 L 642 141 L 674 196"/>
    <path style="--d:4s; stroke:#000;" pathLength="3333" clip-path="url(#z20381c4)" d="M 371 323 L 455 325 L 840 252"/>
    <path style="--d:5s; stroke:#000;" pathLength="3333" clip-path="url(#z20381c5)" d="M 512 344 L 543 376 L 484 486 L 406 591 L 293 690"/>
    <path style="--d:6s; stroke:#000;" pathLength="3333" clip-path="url(#z20381c6)" d="M 476 548 L 466 818 L 478 866 L 656 714"/>
    <path style="--d:7s; stroke:#000;" pathLength="3333" clip-path="url(#z20381c7)" d="M 791 359 L 816 407 L 677 528"/>
    <path style="--d:8s; stroke:#000;" pathLength="3333" clip-path="url(#z20381c8)" d="M 540 445 L 572 450 L 820 716 L 985 753"/>
</g>
</svg>