<svg id="z20458" class="acjk" viewBox="0 0 1024 1024" xmlns="http://www.w3.org/2000/svg">

<style>
<![CDATA[
@keyframes zk { to { stroke-dashoffset:0; } }
svg.acjk path[clip-path] {
    --t:0.8s;
    animation:zk var(--t) linear forwards var(--d);
    stroke-dasharray:3337;
    stroke-dashoffset:3339;
    stroke-width:128;
    stroke-linecap:round;
    fill:none;
}
/* Low opacity for background improves visual overlap at intersections */
svg.acjk .bg { fill:#ccc; opacity: 0.5; } 
]]>
</style>
<defs>
    <clipPath id="z20458c1"><path d="M 224 407 Q 276 337 332 239 Q 357 187 382 162 Q 392 150 386 135 Q 382 122 349 97 Q 318 78 298 79 Q 277 82 287 106 Q 303 139 292 168 Q 232 331 70 542 Q 60 554 57 560 Q 54 573 69 569 Q 102 566 200 438 C 216 417 216 417 224 407 Z"/></clipPath>
    <clipPath id="z20458c2"><path d="M 200 438 Q 222 486 224 555 Q 224 678 198 781 Q 188 826 222 877 Q 223 877 225 880 Q 243 896 255 869 Q 270 829 269 782 Q 269 548 277 496 Q 284 469 275 458 Q 232 412 224 407 C 214 399 195 426 200 438 Z"/></clipPath>
    <clipPath id="z20458c3"><path d="M 395 228 Q 355 235 384 253 Q 427 280 488 265 Q 623 238 761 210 Q 825 195 834 187 Q 844 178 839 169 Q 832 156 800 148 Q 767 139 686 170 Q 536 215 395 228 Z"/></clipPath>
    <clipPath id="z20458c4"><path d="M 414 488 Q 417 418 423 394 Q 423 391 423 389 C 423 379 414 371 406 365 Q 387 349 365 343 Q 358 342 351 349 Q 347 353 354 364 Q 393 466 360 671 Q 353 699 343 730 Q 328 781 358 816 Q 368 829 377 816 Q 405 785 407 670 Q 407 615 413 513 C 414 496 414 496 414 488 Z"/></clipPath>
    <clipPath id="z20458c5"><path d="M 423 389 Q 432 386 491 370 Q 507 364 512 373 Q 521 403 526 597 Q 526 759 516 778 Q 512 784 494 779 Q 473 776 453 773 Q 435 769 437 776 Q 483 815 509 844 Q 521 860 534 863 Q 541 867 549 858 Q 582 819 581 770 Q 556 422 577 383 Q 587 367 576 357 Q 558 342 527 330 Q 509 324 462 350 Q 441 357 406 365 C 396 367 413 391 423 389 Z"/></clipPath>
    <clipPath id="z20458c6"><path d="M 413 513 Q 473 573 480 574 Q 486 575 490 567 Q 494 560 490 541 Q 489 525 465 510 Q 443 498 417 488 Q 416 487 414 488 C 406 486 407 507 413 513 Z"/></clipPath>
    <clipPath id="z20458c7"><path d="M 667 337 Q 648 322 625 315 Q 618 314 611 321 Q 608 327 615 337 Q 664 466 626 706 Q 604 794 607 809 Q 614 840 626 852 Q 636 865 645 852 Q 673 818 674 606 Q 674 546 676 505 C 676 485 676 485 676 475 Q 677 393 683 366 C 685 355 676 344 667 337 Z"/></clipPath>
    <clipPath id="z20458c8"><path d="M 771 789 Q 747 783 722 778 Q 703 771 704 780 Q 756 826 785 861 Q 798 879 812 883 Q 821 887 829 877 Q 866 828 865 779 Q 826 404 853 357 Q 863 338 852 329 Q 831 311 796 299 Q 778 292 764 300 Q 737 316 721 323 Q 702 330 667 337 C 656 339 672 368 683 366 Q 692 365 756 344 Q 775 338 780 348 Q 786 363 789 386 Q 805 614 800 752 Q 800 776 793 787 Q 789 791 771 789 Z"/></clipPath>
    <clipPath id="z20458c9"><path d="M 676 505 Q 677 506 680 508 Q 705 530 731 558 Q 740 568 750 568 Q 757 568 762 559 Q 766 549 761 529 Q 755 502 679 475 Q 678 474 676 475 C 666 473 668 499 676 505 Z"/></clipPath>
</defs>
<g id="bg-layer">
    <path class="bg" d="M 224 407 Q 276 337 332 239 Q 357 187 382 162 Q 392 150 386 135 Q 382 122 349 97 Q 318 78 298 79 Q 277 82 287 106 Q 303 139 292 168 Q 232 331 70 542 Q 60 554 57 560 Q 54 573 69 569 Q 102 566 200 438 C 216 417 216 417 224 407 Z"/>
    <path class="bg" d="M 200 438 Q 222 486 224 555 Q 224 678 198 781 Q 188 826 222 877 Q 223 877 225 880 Q 243 896 255 869 Q 270 829 269 782 Q 269 548 277 496 Q 284 469 275 458 Q 232 412 224 407 C 214 399 195 426 200 438 Z"/>
    <path class="bg" d="M 395 228 Q 355 235 384 253 Q 427 280 488 265 Q 623 238 761 210 Q 825 195 834 187 Q 844 178 839 169 Q 832 156 800 148 Q 767 139 686 170 Q 536 215 395 228 Z"/>
    <path class="bg" d="M 414 488 Q 417 418 423 394 Q 423 391 423 389 C 423 379 414 371 406 365 Q 387 349 365 343 Q 358 342 351 349 Q 347 353 354 364 Q 393 466 360 671 Q 353 699 343 730 Q 328 781 358 816 Q 368 829 377 816 Q 405 785 407 670 Q 407 615 413 513 C 414 496 414 496 414 488 Z"/>
    <path class="bg" d="M 423 389 Q 432 386 491 370 Q 507 364 512 373 Q 521 403 526 597 Q 526 759 516 778 Q 512 784 494 779 Q 473 776 453 773 Q 435 769 437 776 Q 483 815 509 844 Q 521 860 534 863 Q 541 867 549 858 Q 582 819 581 770 Q 556 422 577 383 Q 587 367 576 357 Q 558 342 527 330 Q 509 324 462 350 Q 441 357 406 365 C 396 367 413 391 423 389 Z"/>
    <path class="bg" d="M 413 513 Q 473 573 480 574 Q 486 575 490 567 Q 494 560 490 541 Q 489 525 465 510 Q 443 498 417 488 Q 416 487 414 488 C 406 486 407 507 413 513 Z"/>
    <path class="bg" d="M 667 337 Q 648 322 625 315 Q 618 314 611 321 Q 608 327 615 337 Q 664 466 626 706 Q 604 794 607 809 Q 614 840 626 852 Q 636 865 645 852 Q 673 818 674 606 Q 674 546 676 505 C 676 485 676 485 676 475 Q 677 393 683 366 C 685 355 676 344 667 337 Z"/>
    <path class="bg" d="M 771 789 Q 747 783 722 778 Q 703 771 704 780 Q 756 826 785 861 Q 798 879 812 883 Q 821 887 829 877 Q 866 828 865 779 Q 826 404 853 357 Q 863 338 852 329 Q 831 311 796 299 Q 778 292 764 300 Q 737 316 721 323 Q 702 330 667 337 C 656 339 672 368 683 366 Q 692 365 756 344 Q 775 338 780 348 Q 786 363 789 386 Q 805 614 800 752 Q 800 776 793 787 Q 789 791 771 789 Z"/>
    <path class="bg" d="M 676 505 Q 677 506 680 508 Q 705 530 731 558 Q 740 568 750 568 Q 757 568 762 559 Q 766 549 761 529 Q 755 502 679 475 Q 678 474 676 475 C 666 473 668 499 676 505 Z"/>
</g>
<g id="anim-layer">
    <path style="--d:1s; stroke:#FF4444;" pathLength="3333" clip-path="url(#z20458c1)" d="M 290 84 L 339 137 L 337 161 L 198 402 L 63 562"/>
    <path style="--d:2s; stroke:#FF4444;" pathLength="3333" clip-path="url(#z20458c2)" d="M 224 413 L 249 494 L 237 882"/>
    <path style="--d:3s; stroke:#000;" pathLength="3333" clip-path="url(#z20458c3)" d="M 381 240 L 491 240 L 832 166"/>
    <path style="--d:4s; stroke:#000;" pathLength="3333" clip-path="url(#z20458c4)" d="M 358 352 L 395 401 L 368 816"/>
    <path style="--d:5s; stroke:#000;" pathLength="3333" clip-path="url(#z20458c5)" d="M 415 367 L 513 350 L 547 377 L 548 784 L 520 822 L 448 778"/>
    <path style="--d:6s; stroke:#000;" pathLength="3333" clip-path="url(#z20458c6)" d="M 420 496 L 482 568"/>
    <path style="--d:7s; stroke:#000;" pathLength="3333" clip-path="url(#z20458c7)" d="M 617 321 L 656 378 L 636 852"/>
    <path style="--d:8s; stroke:#000;" pathLength="3333" clip-path="url(#z20458c8)" d="M 675 341 L 780 319 L 821 355 L 831 785 L 802 836 L 715 783"/>
    <path style="--d:9s; stroke:#000;" pathLength="3333" clip-path="url(#z20458c9)" d="M 682 487 L 753 561"/>
</g>
</svg>