<svg id="z20505" class="acjk" viewBox="0 0 1024 1024" xmlns="http://www.w3.org/2000/svg">

<style>
<![CDATA[
@keyframes zk { to { stroke-dashoffset:0; } }
svg.acjk path[clip-path] {
    --t:0.8s;
    animation:zk var(--t) linear forwards var(--d);
    stroke-dasharray:3337;
    stroke-dashoffset:3339;
    stroke-width:128;
    stroke-linecap:round;
    fill:none;
}
/* Low opacity for background improves visual overlap at intersections */
svg.acjk .bg { fill:#ccc; opacity: 0.5; } 
]]>
</style>
<defs>
    <clipPath id="z20505c1"><path d="M 238 370 C 255 344 285 292 309 246 C 326 212 340 187 355 170 C 362 161 361 153 358 144 C 354 135 344 122 322 109 C 302 97 285 92 273 94 C 260 95 256 104 263 119 C 272 140 276 159 270 179 C 249 243 221 304 188 364 C 155 421 116 483 69 547 C 62 555 58 560 57 565 C 54 573 59 577 69 574 C 97 564 158 488 210 412 C 229 384 229 384 238 370 Z"/></clipPath>
    <clipPath id="z20505c2"><path d="M 210 412 C 230 452 233 538 217 668 C 212 704 203 742 194 781 C 186 810 194 843 218 877 C 218 877 219 878 221 880 C 232 891 243 887 251 869 C 261 842 264 813 265 782 C 266 600 269 488 277 448 C 280 429 282 421 273 408 C 265 397 252 385 238 370 C 226 358 204 396 210 412 Z"/></clipPath>
    <clipPath id="z20505c3"><path d="M 346 376 C 363 426 367 508 350 624 C 346 646 351 667 369 690 C 374 696 381 698 386 690 C 398 670 402 631 403 577 C 403 492 403 433 410 402 C 412 389 409 380 398 373 C 387 366 378 360 369 356 C 362 353 355 353 349 357 C 344 359 342 366 346 376 Z"/></clipPath>
    <clipPath id="z20505c4"><path d="M 723 265 C 743 222 763 198 780 186 C 792 176 793 160 783 151 C 736 109 694 104 657 121 C 606 143 552 153 499 161 C 488 162 483 165 486 172 C 487 176 494 180 506 185 C 522 191 540 188 563 183 C 642 162 685 158 691 163 C 695 167 697 175 695 187 C 687 219 676 249 664 276 C 657 295 716 284 723 265 Z"/></clipPath>
    <clipPath id="z20505c5"><path d="M 566 324 C 628 311 728 300 867 300 C 877 300 884 297 887 293 C 890 286 886 279 877 272 C 846 248 812 243 774 254 C 758 258 741 261 723 265 C 684 272 684 272 664 276 C 653 278 576 288 434 310 C 422 311 420 315 430 325 C 438 333 446 338 456 341 C 461 342 486 339 530 331 C 554 326 554 326 566 324 Z"/></clipPath>
    <clipPath id="z20505c6"><path d="M 547 454 C 576 415 589 386 601 375 C 606 369 606 362 603 355 C 596 341 584 330 566 324 C 555 319 525 320 530 331 C 545 364 519 426 452 531 C 447 537 443 541 443 545 C 441 550 445 552 452 551 C 466 548 501 512 529 477 C 541 462 541 462 547 454 Z"/></clipPath>
    <clipPath id="z20505c7"><path d="M 628 481 Q 796 442 799 438 Q 808 431 803 423 Q 796 413 770 406 Q 742 402 715 412 Q 676 425 635 437 Q 593 446 547 454 C 537 456 520 473 529 477 Q 553 487 583 488 C 613 483 613 483 628 481 Z"/></clipPath>
    <clipPath id="z20505c8"><path d="M 644 627 C 694 618 758 612 837 611 C 869 610 888 608 892 602 C 895 595 892 587 882 580 C 846 555 815 552 788 561 C 752 572 705 580 651 591 C 613 598 613 598 594 602 C 543 611 490 620 434 629 C 422 630 420 635 430 645 C 438 653 448 657 458 660 C 470 662 480 662 490 660 C 520 650 553 641 588 636 C 625 630 625 630 644 627 Z"/></clipPath>
    <clipPath id="z20505c9"><path d="M 642 633 C 642 631 643 629 644 627 C 649 603 649 603 651 591 C 660 544 662 532 668 519 C 674 503 652 491 628 481 C 614 475 577 474 583 488 C 595 514 602 552 594 602 C 590 625 590 625 588 636 C 573 719 518 788 419 841 C 405 848 390 855 376 863 C 360 871 361 874 381 875 C 435 876 492 855 551 806 C 559 799 565 789 574 780 C 600 749 620 709 634 661 C 639 642 639 642 642 633 Z"/></clipPath>
    <clipPath id="z20505c10"><path d="M 634 661 C 676 727 724 798 783 869 C 801 891 860 892 954 874 C 960 872 963 869 964 867 C 964 864 961 858 953 855 C 867 816 793 773 735 721 C 705 694 674 665 642 633 C 635 626 628 653 634 661 Z"/></clipPath>
</defs>
<g id="bg-layer">
    <path class="bg" d="M 238 370 C 255 344 285 292 309 246 C 326 212 340 187 355 170 C 362 161 361 153 358 144 C 354 135 344 122 322 109 C 302 97 285 92 273 94 C 260 95 256 104 263 119 C 272 140 276 159 270 179 C 249 243 221 304 188 364 C 155 421 116 483 69 547 C 62 555 58 560 57 565 C 54 573 59 577 69 574 C 97 564 158 488 210 412 C 229 384 229 384 238 370 Z"/>
    <path class="bg" d="M 210 412 C 230 452 233 538 217 668 C 212 704 203 742 194 781 C 186 810 194 843 218 877 C 218 877 219 878 221 880 C 232 891 243 887 251 869 C 261 842 264 813 265 782 C 266 600 269 488 277 448 C 280 429 282 421 273 408 C 265 397 252 385 238 370 C 226 358 204 396 210 412 Z"/>
    <path class="bg" d="M 346 376 C 363 426 367 508 350 624 C 346 646 351 667 369 690 C 374 696 381 698 386 690 C 398 670 402 631 403 577 C 403 492 403 433 410 402 C 412 389 409 380 398 373 C 387 366 378 360 369 356 C 362 353 355 353 349 357 C 344 359 342 366 346 376 Z"/>
    <path class="bg" d="M 723 265 C 743 222 763 198 780 186 C 792 176 793 160 783 151 C 736 109 694 104 657 121 C 606 143 552 153 499 161 C 488 162 483 165 486 172 C 487 176 494 180 506 185 C 522 191 540 188 563 183 C 642 162 685 158 691 163 C 695 167 697 175 695 187 C 687 219 676 249 664 276 C 657 295 716 284 723 265 Z"/>
    <path class="bg" d="M 566 324 C 628 311 728 300 867 300 C 877 300 884 297 887 293 C 890 286 886 279 877 272 C 846 248 812 243 774 254 C 758 258 741 261 723 265 C 684 272 684 272 664 276 C 653 278 576 288 434 310 C 422 311 420 315 430 325 C 438 333 446 338 456 341 C 461 342 486 339 530 331 C 554 326 554 326 566 324 Z"/>
    <path class="bg" d="M 547 454 C 576 415 589 386 601 375 C 606 369 606 362 603 355 C 596 341 584 330 566 324 C 555 319 525 320 530 331 C 545 364 519 426 452 531 C 447 537 443 541 443 545 C 441 550 445 552 452 551 C 466 548 501 512 529 477 C 541 462 541 462 547 454 Z"/>
    <path class="bg" d="M 628 481 Q 796 442 799 438 Q 808 431 803 423 Q 796 413 770 406 Q 742 402 715 412 Q 676 425 635 437 Q 593 446 547 454 C 537 456 520 473 529 477 Q 553 487 583 488 C 613 483 613 483 628 481 Z"/>
    <path class="bg" d="M 644 627 C 694 618 758 612 837 611 C 869 610 888 608 892 602 C 895 595 892 587 882 580 C 846 555 815 552 788 561 C 752 572 705 580 651 591 C 613 598 613 598 594 602 C 543 611 490 620 434 629 C 422 630 420 635 430 645 C 438 653 448 657 458 660 C 470 662 480 662 490 660 C 520 650 553 641 588 636 C 625 630 625 630 644 627 Z"/>
    <path class="bg" d="M 642 633 C 642 631 643 629 644 627 C 649 603 649 603 651 591 C 660 544 662 532 668 519 C 674 503 652 491 628 481 C 614 475 577 474 583 488 C 595 514 602 552 594 602 C 590 625 590 625 588 636 C 573 719 518 788 419 841 C 405 848 390 855 376 863 C 360 871 361 874 381 875 C 435 876 492 855 551 806 C 559 799 565 789 574 780 C 600 749 620 709 634 661 C 639 642 639 642 642 633 Z"/>
    <path class="bg" d="M 634 661 C 676 727 724 798 783 869 C 801 891 860 892 954 874 C 960 872 963 869 964 867 C 964 864 961 858 953 855 C 867 816 793 773 735 721 C 705 694 674 665 642 633 C 635 626 628 653 634 661 Z"/>
</g>
<g id="anim-layer">
    <path style="--d:1s; stroke:#FF4444;" pathLength="3333" clip-path="url(#z20505c1)" d="M 268 102 L 315 164 L 217 360 L 63 566"/>
    <path style="--d:2s; stroke:#FF4444;" pathLength="3333" clip-path="url(#z20505c2)" d="M 242 381 L 228 881"/>
    <path style="--d:3s; stroke:#000;" pathLength="3333" clip-path="url(#z20505c3)" d="M 352 360 L 383 397 L 378 690"/>
    <path style="--d:4s; stroke:#000;" pathLength="3333" clip-path="url(#z20505c4)" d="M 494 168 L 717 144 L 741 176 L 696 260 L 670 269"/>
    <path style="--d:5s; stroke:#000;" pathLength="3333" clip-path="url(#z20505c5)" d="M 432 315 L 802 274 L 883 287"/>
    <path style="--d:6s; stroke:#000;" pathLength="3333" clip-path="url(#z20505c6)" d="M 539 334 L 567 374 L 449 544"/>
    <path style="--d:7s; stroke:#000;" pathLength="3333" clip-path="url(#z20505c7)" d="M 537 474 L 798 423"/>
    <path style="--d:8s; stroke:#000;" pathLength="3333" clip-path="url(#z20505c8)" d="M 434 637 L 802 584 L 888 594"/>
    <path style="--d:9s; stroke:#000;" pathLength="3333" clip-path="url(#z20505c9)" d="M 591 489 L 633 525 L 586 718 L 496 818 L 376 868"/>
    <path style="--d:10s; stroke:#000;" pathLength="3333" clip-path="url(#z20505c10)" d="M 642 643 L 820 840 L 959 867"/>
</g>
</svg>