<svg id="z20552" class="acjk" viewBox="0 0 1024 1024" xmlns="http://www.w3.org/2000/svg">

<style>
<![CDATA[
@keyframes zk { to { stroke-dashoffset:0; } }
svg.acjk path[clip-path] {
    --t:0.8s;
    animation:zk var(--t) linear forwards var(--d);
    stroke-dasharray:3337;
    stroke-dashoffset:3339;
    stroke-width:128;
    stroke-linecap:round;
    fill:none;
}
/* Low opacity for background improves visual overlap at intersections */
svg.acjk .bg { fill:#ccc; opacity: 0.5; } 
]]>
</style>
<defs>
    <clipPath id="z20552c1"><path d="M 229 394 C 262 350 296 299 331 241 C 352 205 369 176 387 159 C 393 152 395 144 392 134 C 389 125 378 112 358 97 C 339 83 323 77 310 78 C 297 78 292 87 299 103 C 308 127 309 149 301 170 C 271 238 236 304 194 367 C 153 427 105 493 47 560 C 24 585 32 600 66 575 C 117 538 165 476 202 429 C 220 406 220 406 229 394 Z"/></clipPath>
    <clipPath id="z20552c2"><path d="M 202 429 C 214 455 221 494 222 547 C 222 628 213 702 198 769 C 190 798 194 834 222 865 C 235 879 244 881 255 857 C 266 830 269 801 269 770 C 266 610 266 511 273 476 C 276 457 277 445 271 438 C 254 419 240 405 229 394 C 219 384 197 415 202 429 Z"/></clipPath>
    <clipPath id="z20552c3"><path d="M 492 160 C 485 155 471 151 450 147 C 432 143 428 153 436 170 C 455 211 470 266 478 334 C 480 353 485 370 497 385 C 508 398 515 401 519 391 C 520 386 522 380 522 373 C 522 358 522 358 522 350 C 522 341 521 333 520 325 C 518 312 515 299 514 288 C 511 271 511 271 510 263 C 504 230 502 206 501 192 C 501 181 501 167 492 160 Z"/></clipPath>
    <clipPath id="z20552c4"><path d="M 676 354 C 682 371 690 384 701 390 C 708 394 716 391 725 378 C 734 362 746 311 764 228 C 768 209 778 192 793 177 C 800 168 801 160 794 153 C 784 142 766 128 740 114 C 730 108 703 114 659 123 C 642 126 524 152 492 160 C 481 162 492 199 501 192 C 501 191 501 190 502 190 C 542 177 599 165 673 153 C 696 148 719 157 715 185 C 701 269 690 317 682 330 C 678 337 673 346 676 354 Z"/></clipPath>
    <clipPath id="z20552c5"><path d="M 514 288 C 526 288 569 276 644 264 C 674 258 656 234 623 231 C 600 228 562 239 510 263 C 502 266 506 288 514 288 Z"/></clipPath>
    <clipPath id="z20552c6"><path d="M 522 373 C 541 373 586 364 676 354 C 684 352 689 334 682 330 C 660 315 642 317 522 350 C 514 352 514 373 522 373 Z"/></clipPath>
    <clipPath id="z20552c7"><path d="M 487 477 C 494 467 501 456 511 448 C 517 441 517 433 510 425 C 488 402 470 393 457 395 C 451 395 447 400 448 408 C 448 462 419 516 359 568 C 319 601 311 623 362 597 C 410 574 441 532 474 493 C 483 482 483 482 487 477 Z"/></clipPath>
    <clipPath id="z20552c8"><path d="M 705 865 C 692 861 675 855 653 846 C 643 842 636 844 653 862 C 679 891 695 918 706 940 C 712 952 718 959 727 960 C 739 960 750 953 763 943 C 803 907 832 849 847 764 C 856 705 865 631 871 542 C 872 521 877 503 891 489 C 899 479 903 472 903 467 C 902 462 895 454 883 445 C 865 431 844 422 820 414 C 806 409 774 416 724 430 C 714 432 660 449 487 477 C 480 478 468 490 474 493 C 494 503 520 502 554 497 C 657 478 727 470 764 467 C 800 464 798 463 801 499 C 803 530 806 582 801 655 C 794 739 777 800 758 839 C 744 866 732 873 705 865 Z"/></clipPath>
    <clipPath id="z20552c9"><path d="M 600 605 C 612 586 624 568 637 553 C 642 545 642 538 634 531 C 611 512 594 505 582 507 C 576 507 572 512 574 520 C 580 564 557 616 502 676 C 489 689 478 698 473 706 C 467 713 469 716 478 715 C 486 713 496 708 509 700 C 541 676 569 652 589 622 C 596 611 596 611 600 605 Z"/></clipPath>
    <clipPath id="z20552c10"><path d="M 589 622 C 589 622 624 647 693 699 C 700 704 706 707 715 706 C 719 705 724 702 726 696 C 727 688 724 677 720 664 C 706 625 624 610 600 605 C 593 604 584 618 589 622 Z"/></clipPath>
    <clipPath id="z20552c11"><path d="M 455 643 C 458 634 455 627 450 621 C 439 609 425 599 409 594 C 388 587 384 598 394 615 C 403 630 407 648 407 671 C 405 716 397 751 380 774 C 373 782 372 788 375 795 C 379 805 385 815 395 824 C 401 829 408 828 418 822 C 463 790 540 778 649 781 C 668 781 690 782 712 785 C 723 786 749 789 740 768 C 737 761 732 746 703 738 C 648 723 529 744 451 762 C 431 766 435 753 437 745 C 444 692 449 658 455 643 Z"/></clipPath>
</defs>
<g id="bg-layer">
    <path class="bg" d="M 229 394 C 262 350 296 299 331 241 C 352 205 369 176 387 159 C 393 152 395 144 392 134 C 389 125 378 112 358 97 C 339 83 323 77 310 78 C 297 78 292 87 299 103 C 308 127 309 149 301 170 C 271 238 236 304 194 367 C 153 427 105 493 47 560 C 24 585 32 600 66 575 C 117 538 165 476 202 429 C 220 406 220 406 229 394 Z"/>
    <path class="bg" d="M 202 429 C 214 455 221 494 222 547 C 222 628 213 702 198 769 C 190 798 194 834 222 865 C 235 879 244 881 255 857 C 266 830 269 801 269 770 C 266 610 266 511 273 476 C 276 457 277 445 271 438 C 254 419 240 405 229 394 C 219 384 197 415 202 429 Z"/>
    <path class="bg" d="M 492 160 C 485 155 471 151 450 147 C 432 143 428 153 436 170 C 455 211 470 266 478 334 C 480 353 485 370 497 385 C 508 398 515 401 519 391 C 520 386 522 380 522 373 C 522 358 522 358 522 350 C 522 341 521 333 520 325 C 518 312 515 299 514 288 C 511 271 511 271 510 263 C 504 230 502 206 501 192 C 501 181 501 167 492 160 Z"/>
    <path class="bg" d="M 676 354 C 682 371 690 384 701 390 C 708 394 716 391 725 378 C 734 362 746 311 764 228 C 768 209 778 192 793 177 C 800 168 801 160 794 153 C 784 142 766 128 740 114 C 730 108 703 114 659 123 C 642 126 524 152 492 160 C 481 162 492 199 501 192 C 501 191 501 190 502 190 C 542 177 599 165 673 153 C 696 148 719 157 715 185 C 701 269 690 317 682 330 C 678 337 673 346 676 354 Z"/>
    <path class="bg" d="M 514 288 C 526 288 569 276 644 264 C 674 258 656 234 623 231 C 600 228 562 239 510 263 C 502 266 506 288 514 288 Z"/>
    <path class="bg" d="M 522 373 C 541 373 586 364 676 354 C 684 352 689 334 682 330 C 660 315 642 317 522 350 C 514 352 514 373 522 373 Z"/>
    <path class="bg" d="M 487 477 C 494 467 501 456 511 448 C 517 441 517 433 510 425 C 488 402 470 393 457 395 C 451 395 447 400 448 408 C 448 462 419 516 359 568 C 319 601 311 623 362 597 C 410 574 441 532 474 493 C 483 482 483 482 487 477 Z"/>
    <path class="bg" d="M 705 865 C 692 861 675 855 653 846 C 643 842 636 844 653 862 C 679 891 695 918 706 940 C 712 952 718 959 727 960 C 739 960 750 953 763 943 C 803 907 832 849 847 764 C 856 705 865 631 871 542 C 872 521 877 503 891 489 C 899 479 903 472 903 467 C 902 462 895 454 883 445 C 865 431 844 422 820 414 C 806 409 774 416 724 430 C 714 432 660 449 487 477 C 480 478 468 490 474 493 C 494 503 520 502 554 497 C 657 478 727 470 764 467 C 800 464 798 463 801 499 C 803 530 806 582 801 655 C 794 739 777 800 758 839 C 744 866 732 873 705 865 Z"/>
    <path class="bg" d="M 600 605 C 612 586 624 568 637 553 C 642 545 642 538 634 531 C 611 512 594 505 582 507 C 576 507 572 512 574 520 C 580 564 557 616 502 676 C 489 689 478 698 473 706 C 467 713 469 716 478 715 C 486 713 496 708 509 700 C 541 676 569 652 589 622 C 596 611 596 611 600 605 Z"/>
    <path class="bg" d="M 589 622 C 589 622 624 647 693 699 C 700 704 706 707 715 706 C 719 705 724 702 726 696 C 727 688 724 677 720 664 C 706 625 624 610 600 605 C 593 604 584 618 589 622 Z"/>
    <path class="bg" d="M 455 643 C 458 634 455 627 450 621 C 439 609 425 599 409 594 C 388 587 384 598 394 615 C 403 630 407 648 407 671 C 405 716 397 751 380 774 C 373 782 372 788 375 795 C 379 805 385 815 395 824 C 401 829 408 828 418 822 C 463 790 540 778 649 781 C 668 781 690 782 712 785 C 723 786 749 789 740 768 C 737 761 732 746 703 738 C 648 723 529 744 451 762 C 431 766 435 753 437 745 C 444 692 449 658 455 643 Z"/>
</g>
<g id="anim-layer">
    <path style="--d:1s; stroke:#FF4444;" pathLength="3333" clip-path="url(#z20552c1)" d="M 304 87 L 348 152 L 201 395 L 41 579"/>
    <path style="--d:2s; stroke:#FF4444;" pathLength="3333" clip-path="url(#z20552c2)" d="M 220 400 L 245 470 L 232 871"/>
    <path style="--d:3s; stroke:#000;" pathLength="3333" clip-path="url(#z20552c3)" d="M 439 151 L 472 180 L 512 390"/>
    <path style="--d:4s; stroke:#000;" pathLength="3333" clip-path="url(#z20552c4)" d="M 490 171 L 687 134 L 750 158 L 699 384"/>
    <path style="--d:5s; stroke:#000;" pathLength="3333" clip-path="url(#z20552c5)" d="M 509 276 L 654 255"/>
    <path style="--d:6s; stroke:#000;" pathLength="3333" clip-path="url(#z20552c6)" d="M 523 364 L 681 345"/>
    <path style="--d:7s; stroke:#000;" pathLength="3333" clip-path="url(#z20552c7)" d="M 455 399 L 479 437 L 464 467 L 333 601"/>
    <path style="--d:8s; stroke:#000;" pathLength="3333" clip-path="url(#z20552c8)" d="M 481 488 L 790 439 L 852 482 L 786 856 L 727 914 L 651 849"/>
    <path style="--d:9s; stroke:#000;" pathLength="3333" clip-path="url(#z20552c9)" d="M 581 514 L 605 555 L 547 647 L 475 707"/>
    <path style="--d:10s; stroke:#000;" pathLength="3333" clip-path="url(#z20552c10)" d="M 593 615 L 687 662 L 715 702"/>
    <path style="--d:11s; stroke:#000;" pathLength="3333" clip-path="url(#z20552c11)" d="M 396 599 L 429 633 L 415 791 L 595 758 L 737 765"/>
</g>
</svg>