<svg id="z20731" class="acjk" viewBox="0 0 1024 1024" xmlns="http://www.w3.org/2000/svg">

<style>
<![CDATA[
@keyframes zk { to { stroke-dashoffset:0; } }
svg.acjk path[clip-path] {
    --t:0.8s;
    animation:zk var(--t) linear forwards var(--d);
    stroke-dasharray:3337;
    stroke-dashoffset:3339;
    stroke-width:128;
    stroke-linecap:round;
    fill:none;
}
/* Low opacity for background improves visual overlap at intersections */
svg.acjk .bg { fill:#ccc; opacity: 0.5; } 
]]>
</style>
<defs>
    <clipPath id="z20731c1"><path d="M 204 365 Q 250 301 302 210 Q 326 162 348 139 Q 357 129 352 115 Q 348 102 318 81 Q 291 65 272 65 Q 253 68 263 89 Q 278 119 267 146 Q 236 234 184 319 Q 135 400 65 489 Q 56 499 54 506 Q 51 518 65 514 Q 93 505 179 398 C 196 376 196 376 204 365 Z"/></clipPath>
    <clipPath id="z20731c2"><path d="M 179 398 Q 207 456 188 629 Q 181 677 168 728 Q 158 770 187 812 Q 188 815 191 817 Q 207 832 218 807 Q 231 770 231 729 Q 234 491 242 438 Q 249 413 240 404 Q 210 370 204 365 C 194 355 174 385 179 398 Z"/></clipPath>
    <clipPath id="z20731c3"><path d="M 535 350 Q 554 277 577 255 Q 598 231 576 218 Q 558 208 533 192 Q 515 182 475 207 Q 435 223 399 235 C 391 238 395 263 404 261 Q 411 260 425 256 Q 456 247 484 241 Q 503 237 508 243 Q 511 246 488 342 C 485 358 532 366 535 350 Z"/></clipPath>
    <clipPath id="z20731c4"><path d="M 389 397 Q 390 398 394 399 Q 404 400 416 397 Q 456 387 542 377 Q 552 376 553 367 Q 553 360 535 350 C 521 342 504 339 488 342 Q 484 342 480 344 Q 432 359 393 369 C 384 371 380 393 389 397 Z"/></clipPath>
    <clipPath id="z20731c5"><path d="M 363 514 Q 381 451 389 397 C 392 378 392 378 393 369 Q 394 353 396 335 Q 399 281 404 261 C 405 252 407 240 399 235 Q 386 225 367 217 Q 351 210 342 213 Q 332 219 338 230 Q 374 284 329 500 Q 325 512 322 524 Q 298 597 245 687 Q 241 691 239 697 Q 238 706 246 703 Q 276 697 333 593 Q 339 574 348 558 C 358 529 358 529 363 514 Z"/></clipPath>
    <clipPath id="z20731c6"><path d="M 386 521 Q 377 517 363 514 C 348 511 342 544 348 558 Q 364 612 374 691 Q 375 721 391 742 Q 404 761 410 748 Q 417 729 413 691 C 411 671 411 671 410 661 Q 397 571 396 546 C 396 537 394 524 386 521 Z"/></clipPath>
    <clipPath id="z20731c7"><path d="M 550 642 Q 563 564 585 540 Q 604 515 583 503 Q 564 493 538 478 Q 520 468 478 493 Q 424 512 386 521 C 377 523 387 546 396 546 Q 406 546 421 542 Q 503 521 510 530 Q 517 536 513 568 Q 509 598 503 634 C 500 650 547 658 550 642 Z"/></clipPath>
    <clipPath id="z20731c8"><path d="M 413 691 Q 422 692 432 689 Q 472 679 558 669 Q 568 668 569 659 Q 569 652 550 642 C 536 634 519 631 503 634 Q 499 634 496 636 Q 448 651 410 661 C 400 663 403 691 413 691 Z"/></clipPath>
    <clipPath id="z20731c9"><path d="M 685 104 Q 709 126 734 152 Q 747 165 761 164 Q 771 164 777 151 Q 781 138 774 109 Q 765 78 681 58 Q 666 54 660 57 Q 656 61 656 73 Q 660 83 685 104 Z"/></clipPath>
    <clipPath id="z20731c10"><path d="M 806 246 Q 831 239 861 233 Q 898 223 904 218 Q 911 211 907 203 Q 900 193 873 186 Q 849 182 760 213 Q 696 231 619 242 Q 586 248 610 263 Q 644 279 714 267 Q 741 261 772 254 C 795 249 795 249 806 246 Z"/></clipPath>
    <clipPath id="z20731c11"><path d="M 614 336 Q 647 402 668 407 Q 678 411 687 397 Q 690 387 686 368 Q 682 353 663 341 Q 635 320 623 315 Q 616 312 613 321 Q 610 328 614 336 Z"/></clipPath>
    <clipPath id="z20731c12"><path d="M 764 417 Q 768 410 775 400 Q 794 372 813 337 Q 822 321 837 301 Q 850 291 843 280 Q 834 264 806 246 C 797 239 768 243 772 254 Q 773 255 774 257 Q 783 293 740 399 Q 734 414 732 425 C 730 436 757 426 764 417 Z"/></clipPath>
    <clipPath id="z20731c13"><path d="M 738 461 Q 756 455 909 427 Q 919 428 926 416 Q 927 406 906 397 Q 879 376 793 408 Q 778 411 764 417 C 743 422 743 422 732 425 Q 690 435 653 441 Q 619 447 579 454 Q 554 458 574 473 Q 601 492 640 484 Q 659 478 685 474 C 720 465 720 465 738 461 Z"/></clipPath>
    <clipPath id="z20731c14"><path d="M 756 602 Q 805 593 879 588 Q 918 588 922 578 Q 926 568 910 557 Q 859 526 809 544 Q 785 550 756 560 C 721 569 721 569 703 574 Q 651 584 593 600 Q 575 604 590 617 Q 603 627 619 631 Q 637 634 650 628 Q 675 619 704 614 C 739 606 739 606 756 602 Z"/></clipPath>
    <clipPath id="z20731c15"><path d="M 708 934 Q 712 956 719 965 Q 723 972 731 970 Q 743 961 750 908 Q 757 850 755 794 Q 754 751 756 602 C 756 574 756 574 756 560 Q 756 559 757 559 Q 758 526 766 497 Q 769 481 756 472 Q 746 465 738 461 C 722 452 672 461 685 474 Q 703 492 703 574 C 704 601 704 601 704 614 Q 704 902 708 934 Z"/></clipPath>
</defs>
<g id="bg-layer">
    <path class="bg" d="M 204 365 Q 250 301 302 210 Q 326 162 348 139 Q 357 129 352 115 Q 348 102 318 81 Q 291 65 272 65 Q 253 68 263 89 Q 278 119 267 146 Q 236 234 184 319 Q 135 400 65 489 Q 56 499 54 506 Q 51 518 65 514 Q 93 505 179 398 C 196 376 196 376 204 365 Z"/>
    <path class="bg" d="M 179 398 Q 207 456 188 629 Q 181 677 168 728 Q 158 770 187 812 Q 188 815 191 817 Q 207 832 218 807 Q 231 770 231 729 Q 234 491 242 438 Q 249 413 240 404 Q 210 370 204 365 C 194 355 174 385 179 398 Z"/>
    <path class="bg" d="M 535 350 Q 554 277 577 255 Q 598 231 576 218 Q 558 208 533 192 Q 515 182 475 207 Q 435 223 399 235 C 391 238 395 263 404 261 Q 411 260 425 256 Q 456 247 484 241 Q 503 237 508 243 Q 511 246 488 342 C 485 358 532 366 535 350 Z"/>
    <path class="bg" d="M 389 397 Q 390 398 394 399 Q 404 400 416 397 Q 456 387 542 377 Q 552 376 553 367 Q 553 360 535 350 C 521 342 504 339 488 342 Q 484 342 480 344 Q 432 359 393 369 C 384 371 380 393 389 397 Z"/>
    <path class="bg" d="M 363 514 Q 381 451 389 397 C 392 378 392 378 393 369 Q 394 353 396 335 Q 399 281 404 261 C 405 252 407 240 399 235 Q 386 225 367 217 Q 351 210 342 213 Q 332 219 338 230 Q 374 284 329 500 Q 325 512 322 524 Q 298 597 245 687 Q 241 691 239 697 Q 238 706 246 703 Q 276 697 333 593 Q 339 574 348 558 C 358 529 358 529 363 514 Z"/>
    <path class="bg" d="M 386 521 Q 377 517 363 514 C 348 511 342 544 348 558 Q 364 612 374 691 Q 375 721 391 742 Q 404 761 410 748 Q 417 729 413 691 C 411 671 411 671 410 661 Q 397 571 396 546 C 396 537 394 524 386 521 Z"/>
    <path class="bg" d="M 550 642 Q 563 564 585 540 Q 604 515 583 503 Q 564 493 538 478 Q 520 468 478 493 Q 424 512 386 521 C 377 523 387 546 396 546 Q 406 546 421 542 Q 503 521 510 530 Q 517 536 513 568 Q 509 598 503 634 C 500 650 547 658 550 642 Z"/>
    <path class="bg" d="M 413 691 Q 422 692 432 689 Q 472 679 558 669 Q 568 668 569 659 Q 569 652 550 642 C 536 634 519 631 503 634 Q 499 634 496 636 Q 448 651 410 661 C 400 663 403 691 413 691 Z"/>
    <path class="bg" d="M 685 104 Q 709 126 734 152 Q 747 165 761 164 Q 771 164 777 151 Q 781 138 774 109 Q 765 78 681 58 Q 666 54 660 57 Q 656 61 656 73 Q 660 83 685 104 Z"/>
    <path class="bg" d="M 806 246 Q 831 239 861 233 Q 898 223 904 218 Q 911 211 907 203 Q 900 193 873 186 Q 849 182 760 213 Q 696 231 619 242 Q 586 248 610 263 Q 644 279 714 267 Q 741 261 772 254 C 795 249 795 249 806 246 Z"/>
    <path class="bg" d="M 614 336 Q 647 402 668 407 Q 678 411 687 397 Q 690 387 686 368 Q 682 353 663 341 Q 635 320 623 315 Q 616 312 613 321 Q 610 328 614 336 Z"/>
    <path class="bg" d="M 764 417 Q 768 410 775 400 Q 794 372 813 337 Q 822 321 837 301 Q 850 291 843 280 Q 834 264 806 246 C 797 239 768 243 772 254 Q 773 255 774 257 Q 783 293 740 399 Q 734 414 732 425 C 730 436 757 426 764 417 Z"/>
    <path class="bg" d="M 738 461 Q 756 455 909 427 Q 919 428 926 416 Q 927 406 906 397 Q 879 376 793 408 Q 778 411 764 417 C 743 422 743 422 732 425 Q 690 435 653 441 Q 619 447 579 454 Q 554 458 574 473 Q 601 492 640 484 Q 659 478 685 474 C 720 465 720 465 738 461 Z"/>
    <path class="bg" d="M 756 602 Q 805 593 879 588 Q 918 588 922 578 Q 926 568 910 557 Q 859 526 809 544 Q 785 550 756 560 C 721 569 721 569 703 574 Q 651 584 593 600 Q 575 604 590 617 Q 603 627 619 631 Q 637 634 650 628 Q 675 619 704 614 C 739 606 739 606 756 602 Z"/>
    <path class="bg" d="M 708 934 Q 712 956 719 965 Q 723 972 731 970 Q 743 961 750 908 Q 757 850 755 794 Q 754 751 756 602 C 756 574 756 574 756 560 Q 756 559 757 559 Q 758 526 766 497 Q 769 481 756 472 Q 746 465 738 461 C 722 452 672 461 685 474 Q 703 492 703 574 C 704 601 704 601 704 614 Q 704 902 708 934 Z"/>
</g>
<g id="anim-layer">
    <path style="--d:1s; stroke:#FF4444;" pathLength="3333" clip-path="url(#z20731c1)" d="M 268 73 L 309 137 L 186 355 L 62 507"/>
    <path style="--d:2s; stroke:#FF4444;" pathLength="3333" clip-path="url(#z20731c2)" d="M 203 372 L 218 432 L 203 818"/>
    <path style="--d:3s; stroke:#000;" pathLength="3333" clip-path="url(#z20731c3)" d="M 411 254 L 513 214 L 543 235 L 511 345"/>
    <path style="--d:4s; stroke:#000;" pathLength="3333" clip-path="url(#z20731c4)" d="M 399 392 L 548 365"/>
    <path style="--d:5s; stroke:#000;" pathLength="3333" clip-path="url(#z20731c5)" d="M 344 221 L 377 268 L 356 465 L 308 604 L 246 695"/>
    <path style="--d:6s; stroke:#000;" pathLength="3333" clip-path="url(#z20731c6)" d="M 367 522 L 399 747"/>
    <path style="--d:7s; stroke:#000;" pathLength="3333" clip-path="url(#z20731c7)" d="M 393 523 L 536 511 L 553 534 L 532 638"/>
    <path style="--d:8s; stroke:#000;" pathLength="3333" clip-path="url(#z20731c8)" d="M 417 684 L 562 657"/>
    <path style="--d:9s; stroke:#000;" pathLength="3333" clip-path="url(#z20731c9)" d="M 663 62 L 732 106 L 766 158"/>
    <path style="--d:10s; stroke:#000;" pathLength="3333" clip-path="url(#z20731c10)" d="M 607 251 L 903 205"/>
    <path style="--d:11s; stroke:#000;" pathLength="3333" clip-path="url(#z20731c11)" d="M 621 325 L 674 404"/>
    <path style="--d:12s; stroke:#000;" pathLength="3333" clip-path="url(#z20731c12)" d="M 780 260 L 807 301 L 738 418"/>
    <path style="--d:13s; stroke:#000;" pathLength="3333" clip-path="url(#z20731c13)" d="M 573 463 L 918 412"/>
    <path style="--d:14s; stroke:#000;" pathLength="3333" clip-path="url(#z20731c14)" d="M 589 606 L 917 567"/>
    <path style="--d:15s; stroke:#000;" pathLength="3333" clip-path="url(#z20731c15)" d="M 694 478 L 733 506 L 727 962"/>
</g>
</svg>