<svg id="z20820" class="acjk" viewBox="0 0 1024 1024" xmlns="http://www.w3.org/2000/svg">

<style>
<![CDATA[
@keyframes zk { to { stroke-dashoffset:0; } }
svg.acjk path[clip-path] {
    --t:0.8s;
    animation:zk var(--t) linear forwards var(--d);
    stroke-dasharray:3337;
    stroke-dashoffset:3339;
    stroke-width:128;
    stroke-linecap:round;
    fill:none;
}
/* Low opacity for background improves visual overlap at intersections */
svg.acjk .bg { fill:#ccc; opacity: 0.5; } 
]]>
</style>
<defs>
    <clipPath id="z20820c1"><path d="M 445 168 C 465 145 481 125 498 112 C 504 106 505 99 504 91 C 502 82 495 69 479 55 C 464 41 451 34 440 34 C 428 33 423 41 428 55 C 432 67 432 77 427 88 C 396 147 351 210 289 273 C 283 278 277 281 276 286 C 273 292 276 295 285 295 C 307 294 358 260 430 184 C 440 173 440 173 445 168 Z"/></clipPath>
    <clipPath id="z20820c2"><path d="M 489 347 C 505 332 531 308 566 273 C 599 238 630 211 662 193 C 674 185 677 177 670 169 C 661 159 645 146 619 131 C 607 124 596 128 586 134 C 579 137 548 146 494 160 C 479 163 463 165 445 168 C 438 169 424 180 430 184 C 440 192 465 197 506 191 C 542 185 561 180 564 184 C 566 186 565 192 561 200 C 524 258 495 303 461 351 C 456 359 481 353 489 347 Z"/></clipPath>
    <clipPath id="z20820c3"><path d="M 274 374 C 266 370 250 367 227 364 C 218 362 213 363 211 367 C 207 372 208 378 215 390 C 236 426 254 476 268 539 C 271 557 278 572 290 585 C 304 599 312 601 315 590 C 316 585 317 580 317 574 C 316 552 316 552 315 541 C 313 519 294 448 288 406 C 286 395 285 378 274 374 Z"/></clipPath>
    <clipPath id="z20820c4"><path d="M 690 491 C 712 435 737 402 761 385 C 775 374 776 358 766 347 C 756 335 732 320 696 302 C 683 295 669 295 654 301 C 597 320 542 339 489 347 C 470 350 470 350 461 351 C 400 359 338 368 274 374 C 262 374 276 406 288 406 C 298 406 308 404 321 402 C 353 395 386 392 420 386 C 452 380 452 380 468 377 C 515 368 612 351 612 351 C 637 346 654 347 664 358 C 670 364 672 374 669 388 C 659 424 648 457 637 486 C 630 502 683 507 690 491 Z"/></clipPath>
    <clipPath id="z20820c5"><path d="M 457 553 C 523 542 605 533 703 526 C 709 525 714 522 715 516 C 715 511 706 503 690 491 C 676 480 654 483 637 486 C 576 498 519 513 466 521 C 432 526 432 526 415 528 C 379 532 345 537 315 541 C 304 543 306 574 317 574 C 335 576 377 565 407 561 C 440 556 440 556 457 553 Z"/></clipPath>
    <clipPath id="z20820c6"><path d="M 407 561 C 374 695 278 799 137 877 C 128 881 127 886 135 888 C 174 893 227 868 293 819 C 324 795 360 763 389 714 C 426 647 443 600 457 553 C 463 532 463 532 466 521 C 474 489 488 445 502 425 C 508 414 506 405 497 398 C 486 389 476 382 468 377 C 454 369 414 371 420 386 C 428 404 430 424 428 445 C 425 469 422 496 415 528 C 410 550 410 550 407 561 Z"/></clipPath>
    <clipPath id="z20820c7"><path d="M 936 842 C 927 825 914 791 904 738 C 901 727 901 720 897 718 C 893 715 889 720 887 732 C 872 788 860 826 848 843 C 838 856 818 866 789 873 C 758 880 725 882 689 880 C 657 878 628 871 605 861 C 582 850 569 837 563 824 C 547 789 548 719 569 611 C 572 591 558 573 526 561 C 517 557 510 558 505 562 C 500 564 500 571 504 583 C 512 608 514 634 513 659 C 506 755 509 815 516 843 C 520 860 528 877 545 892 C 589 931 672 947 792 935 C 808 933 825 929 842 925 C 872 916 902 902 931 882 C 943 872 944 858 936 842 Z"/></clipPath>
    <clipPath id="z20820c8"><path d="M 663 691 C 681 709 699 731 718 755 C 724 763 733 768 744 770 C 750 770 756 767 761 759 C 765 750 766 735 763 716 C 759 691 725 668 665 645 C 655 641 647 639 644 641 C 641 642 639 648 639 657 C 639 663 647 675 663 691 Z"/></clipPath>
</defs>
<g id="bg-layer">
    <path class="bg" d="M 445 168 C 465 145 481 125 498 112 C 504 106 505 99 504 91 C 502 82 495 69 479 55 C 464 41 451 34 440 34 C 428 33 423 41 428 55 C 432 67 432 77 427 88 C 396 147 351 210 289 273 C 283 278 277 281 276 286 C 273 292 276 295 285 295 C 307 294 358 260 430 184 C 440 173 440 173 445 168 Z"/>
    <path class="bg" d="M 489 347 C 505 332 531 308 566 273 C 599 238 630 211 662 193 C 674 185 677 177 670 169 C 661 159 645 146 619 131 C 607 124 596 128 586 134 C 579 137 548 146 494 160 C 479 163 463 165 445 168 C 438 169 424 180 430 184 C 440 192 465 197 506 191 C 542 185 561 180 564 184 C 566 186 565 192 561 200 C 524 258 495 303 461 351 C 456 359 481 353 489 347 Z"/>
    <path class="bg" d="M 274 374 C 266 370 250 367 227 364 C 218 362 213 363 211 367 C 207 372 208 378 215 390 C 236 426 254 476 268 539 C 271 557 278 572 290 585 C 304 599 312 601 315 590 C 316 585 317 580 317 574 C 316 552 316 552 315 541 C 313 519 294 448 288 406 C 286 395 285 378 274 374 Z"/>
    <path class="bg" d="M 690 491 C 712 435 737 402 761 385 C 775 374 776 358 766 347 C 756 335 732 320 696 302 C 683 295 669 295 654 301 C 597 320 542 339 489 347 C 470 350 470 350 461 351 C 400 359 338 368 274 374 C 262 374 276 406 288 406 C 298 406 308 404 321 402 C 353 395 386 392 420 386 C 452 380 452 380 468 377 C 515 368 612 351 612 351 C 637 346 654 347 664 358 C 670 364 672 374 669 388 C 659 424 648 457 637 486 C 630 502 683 507 690 491 Z"/>
    <path class="bg" d="M 457 553 C 523 542 605 533 703 526 C 709 525 714 522 715 516 C 715 511 706 503 690 491 C 676 480 654 483 637 486 C 576 498 519 513 466 521 C 432 526 432 526 415 528 C 379 532 345 537 315 541 C 304 543 306 574 317 574 C 335 576 377 565 407 561 C 440 556 440 556 457 553 Z"/>
    <path class="bg" d="M 407 561 C 374 695 278 799 137 877 C 128 881 127 886 135 888 C 174 893 227 868 293 819 C 324 795 360 763 389 714 C 426 647 443 600 457 553 C 463 532 463 532 466 521 C 474 489 488 445 502 425 C 508 414 506 405 497 398 C 486 389 476 382 468 377 C 454 369 414 371 420 386 C 428 404 430 424 428 445 C 425 469 422 496 415 528 C 410 550 410 550 407 561 Z"/>
    <path class="bg" d="M 936 842 C 927 825 914 791 904 738 C 901 727 901 720 897 718 C 893 715 889 720 887 732 C 872 788 860 826 848 843 C 838 856 818 866 789 873 C 758 880 725 882 689 880 C 657 878 628 871 605 861 C 582 850 569 837 563 824 C 547 789 548 719 569 611 C 572 591 558 573 526 561 C 517 557 510 558 505 562 C 500 564 500 571 504 583 C 512 608 514 634 513 659 C 506 755 509 815 516 843 C 520 860 528 877 545 892 C 589 931 672 947 792 935 C 808 933 825 929 842 925 C 872 916 902 902 931 882 C 943 872 944 858 936 842 Z"/>
    <path class="bg" d="M 663 691 C 681 709 699 731 718 755 C 724 763 733 768 744 770 C 750 770 756 767 761 759 C 765 750 766 735 763 716 C 759 691 725 668 665 645 C 655 641 647 639 644 641 C 641 642 639 648 639 657 C 639 663 647 675 663 691 Z"/>
</g>
<g id="anim-layer">
    <path style="--d:1s; stroke:#FF4444;" pathLength="3333" clip-path="url(#z20820c1)" d="M 436 40 L 464 97 L 285 288"/>
    <path style="--d:2s; stroke:#FF4444;" pathLength="3333" clip-path="url(#z20820c2)" d="M 442 179 L 587 156 L 619 185 L 468 344"/>
    <path style="--d:3s; stroke:#000;" pathLength="3333" clip-path="url(#z20820c3)" d="M 216 370 L 257 408 L 302 592"/>
    <path style="--d:4s; stroke:#000;" pathLength="3333" clip-path="url(#z20820c4)" d="M 284 381 L 666 324 L 721 368 L 667 479 L 647 484"/>
    <path style="--d:5s; stroke:#000;" pathLength="3333" clip-path="url(#z20820c5)" d="M 324 566 L 709 510"/>
    <path style="--d:6s; stroke:#000;" pathLength="3333" clip-path="url(#z20820c6)" d="M 429 389 L 466 425 L 421 596 L 367 704 L 265 814 L 137 880"/>
    <path style="--d:7s; stroke:#000;" pathLength="3333" clip-path="url(#z20820c7)" d="M 509 567 L 539 602 L 537 827 L 598 890 L 721 910 L 858 882 L 898 848 L 894 727"/>
    <path style="--d:8s; stroke:#000;" pathLength="3333" clip-path="url(#z20820c8)" d="M 649 647 L 723 710 L 750 765"/>
</g>
</svg>