<svg id="z20845" class="acjk" viewBox="0 0 1024 1024" xmlns="http://www.w3.org/2000/svg">

<style>
<![CDATA[
@keyframes zk { to { stroke-dashoffset:0; } }
svg.acjk path[clip-path] {
    --t:0.8s;
    animation:zk var(--t) linear forwards var(--d);
    stroke-dasharray:3337;
    stroke-dashoffset:3339;
    stroke-width:128;
    stroke-linecap:round;
    fill:none;
}
/* Low opacity for background improves visual overlap at intersections */
svg.acjk .bg { fill:#ccc; opacity: 0.5; } 
]]>
</style>
<defs>
    <clipPath id="z20845c1"><path d="M 462 198 C 482 213 502 233 524 255 C 535 265 548 270 562 270 C 570 269 579 263 582 251 C 591 208 564 167 531 156 C 487 141 433 130 426 136 C 421 139 419 146 422 158 C 424 165 438 178 462 198 Z"/></clipPath>
    <clipPath id="z20845c2"><path d="M 512 436 C 610 424 743 405 882 426 C 909 430 934 412 916 394 C 892 369 852 354 832 348 C 818 344 803 343 782 348 C 732 358 656 370 512 390 C 357 410 228 425 120 427 C 109 427 100 429 100 440 C 99 452 122 469 145 479 C 173 490 206 483 240 477 C 336 458 430 445 512 436 Z"/></clipPath>
    <clipPath id="z20845c3"><path d="M 342 556 C 339 624 291 694 198 762 C 176 777 163 786 148 799 C 138 808 140 811 153 812 C 281 785 329 705 424 621 C 433 612 435 601 426 589 C 401 556 376 539 356 539 C 347 538 342 544 342 556 Z"/></clipPath>
    <clipPath id="z20845c4"><path d="M 611 598 C 652 650 702 711 752 786 C 763 802 771 816 785 821 C 790 823 798 819 806 813 C 816 803 821 772 815 745 C 805 703 758 648 653 583 C 647 579 622 563 618 562 C 592 552 603 588 611 598 Z"/></clipPath>
</defs>
<g id="bg-layer">
    <path class="bg" d="M 462 198 C 482 213 502 233 524 255 C 535 265 548 270 562 270 C 570 269 579 263 582 251 C 591 208 564 167 531 156 C 487 141 433 130 426 136 C 421 139 419 146 422 158 C 424 165 438 178 462 198 Z"/>
    <path class="bg" d="M 512 436 C 610 424 743 405 882 426 C 909 430 934 412 916 394 C 892 369 852 354 832 348 C 818 344 803 343 782 348 C 732 358 656 370 512 390 C 357 410 228 425 120 427 C 109 427 100 429 100 440 C 99 452 122 469 145 479 C 173 490 206 483 240 477 C 336 458 430 445 512 436 Z"/>
    <path class="bg" d="M 342 556 C 339 624 291 694 198 762 C 176 777 163 786 148 799 C 138 808 140 811 153 812 C 281 785 329 705 424 621 C 433 612 435 601 426 589 C 401 556 376 539 356 539 C 347 538 342 544 342 556 Z"/>
    <path class="bg" d="M 611 598 C 652 650 702 711 752 786 C 763 802 771 816 785 821 C 790 823 798 819 806 813 C 816 803 821 772 815 745 C 805 703 758 648 653 583 C 647 579 622 563 618 562 C 592 552 603 588 611 598 Z"/>
</g>
<g id="anim-layer">
    <path style="--d:1s; stroke:#FF4444;" pathLength="3333" clip-path="url(#z20845c1)" d="M 428 144 L 528 201 L 568 264"/>
    <path style="--d:2s; stroke:#FF4444;" pathLength="3333" clip-path="url(#z20845c2)" d="M 105 436 L 197 454 L 790 381 L 916 412"/>
    <path style="--d:3s; stroke:#000;" pathLength="3333" clip-path="url(#z20845c3)" d="M 351 546 L 380 609 L 267 736 L 150 805"/>
    <path style="--d:4s; stroke:#000;" pathLength="3333" clip-path="url(#z20845c4)" d="M 608 568 L 768 735 L 795 816"/>
</g>
</svg>