<svg id="z20936" class="acjk" viewBox="0 0 1024 1024" xmlns="http://www.w3.org/2000/svg">

<style>
<![CDATA[
@keyframes zk { to { stroke-dashoffset:0; } }
svg.acjk path[clip-path] {
    --t:0.8s;
    animation:zk var(--t) linear forwards var(--d);
    stroke-dasharray:3337;
    stroke-dashoffset:3339;
    stroke-width:128;
    stroke-linecap:round;
    fill:none;
}
/* Low opacity for background improves visual overlap at intersections */
svg.acjk .bg { fill:#ccc; opacity: 0.5; } 
]]>
</style>
<defs>
    <clipPath id="z20936c1"><path d="M 183 254 C 203 268 224 285 245 304 C 255 313 266 316 277 315 C 283 314 289 309 293 300 C 296 289 292 273 285 253 C 276 231 240 214 175 204 C 164 202 156 202 152 205 C 147 207 146 213 149 223 C 151 229 163 239 183 254 Z"/></clipPath>
    <clipPath id="z20936c2"><path d="M 104 689 C 98 694 89 697 92 709 C 101 746 113 769 139 795 C 158 813 172 790 175 774 C 183 727 214 636 294 466 C 313 426 288 427 267 458 C 178 589 153 649 104 689 Z"/></clipPath>
    <clipPath id="z20936c3"><path d="M 637 60 C 590 91 499 126 366 172 C 358 174 361 182 366 184 C 388 191 469 176 607 136 C 663 119 707 105 742 104 C 754 103 763 103 766 98 C 769 90 767 80 760 73 C 746 59 723 47 694 31 C 683 25 674 18 665 20 C 658 20 654 27 654 35 C 652 45 647 53 637 60 Z"/></clipPath>
    <clipPath id="z20936c4"><path d="M 395 267 C 418 299 432 318 441 320 C 447 320 453 317 457 311 C 461 303 462 290 461 272 C 460 263 453 253 440 246 C 406 227 385 218 380 221 C 376 222 374 227 374 235 C 373 241 383 250 395 267 Z"/></clipPath>
    <clipPath id="z20936c5"><path d="M 519 220 C 536 251 551 272 567 279 C 574 282 582 281 588 275 C 593 268 595 260 595 251 C 594 238 590 226 581 218 C 564 204 548 197 532 189 C 520 183 509 183 509 196 C 508 202 513 210 519 220 Z"/></clipPath>
    <clipPath id="z20936c6"><path d="M 655 318 C 711 265 753 225 786 205 C 796 198 801 194 798 188 C 792 177 784 165 770 154 C 755 142 740 137 725 137 C 714 137 710 145 713 159 C 714 167 715 178 709 190 C 687 228 652 276 608 334 C 598 347 642 328 655 318 Z"/></clipPath>
    <clipPath id="z20936c7"><path d="M 748 550 C 754 517 761 490 770 469 C 785 434 785 434 792 416 C 799 396 813 384 824 374 C 836 360 837 345 825 335 C 813 325 788 313 750 296 C 736 289 705 300 655 318 C 624 329 624 329 608 334 C 570 346 381 378 374 380 C 361 381 355 385 358 393 C 359 399 368 402 382 408 C 401 415 422 414 450 406 C 477 397 506 394 536 388 C 562 382 562 382 575 379 C 609 370 644 362 680 355 C 698 350 712 351 721 359 C 731 368 733 393 726 431 C 720 460 720 460 717 474 C 711 498 705 522 700 545 C 697 561 745 566 748 550 Z"/></clipPath>
    <clipPath id="z20936c8"><path d="M 770 469 C 802 465 838 463 878 462 C 922 460 946 456 949 450 C 952 442 947 433 937 426 C 915 410 892 401 869 401 C 843 401 815 410 792 416 C 748 426 748 426 726 431 C 691 438 653 447 614 455 C 573 462 573 462 553 466 C 482 478 407 492 327 506 C 314 508 312 514 323 525 C 331 533 341 539 354 542 C 367 544 380 544 390 541 C 440 524 494 510 553 500 C 592 493 592 493 611 490 C 641 484 676 477 717 474 C 752 471 752 471 770 469 Z"/></clipPath>
    <clipPath id="z20936c9"><path d="M 553 579 C 494 591 439 598 389 606 C 373 608 370 615 380 628 C 384 634 390 639 399 642 C 406 644 415 643 426 641 C 458 632 501 624 553 618 C 588 613 588 613 606 611 C 652 604 705 596 766 591 C 773 590 779 586 780 579 C 780 573 769 563 748 550 C 734 542 716 542 700 545 C 683 548 667 553 607 567 C 571 575 571 575 553 579 Z"/></clipPath>
    <clipPath id="z20936c10"><path d="M 536 388 C 548 413 553 441 553 466 C 553 489 553 489 553 500 C 553 526 553 552 553 579 C 553 605 553 605 553 618 C 553 672 551 737 551 813 C 550 851 533 861 504 852 C 486 846 468 836 445 829 C 423 822 425 835 442 850 C 485 890 519 926 547 956 C 554 963 564 961 573 951 C 602 911 613 849 611 768 C 607 672 605 636 606 611 C 607 582 607 582 607 567 C 607 540 608 514 611 490 C 613 467 613 467 614 455 C 617 411 624 404 575 379 C 564 372 531 376 536 388 Z"/></clipPath>
</defs>
<g id="bg-layer">
    <path class="bg" d="M 183 254 C 203 268 224 285 245 304 C 255 313 266 316 277 315 C 283 314 289 309 293 300 C 296 289 292 273 285 253 C 276 231 240 214 175 204 C 164 202 156 202 152 205 C 147 207 146 213 149 223 C 151 229 163 239 183 254 Z"/>
    <path class="bg" d="M 104 689 C 98 694 89 697 92 709 C 101 746 113 769 139 795 C 158 813 172 790 175 774 C 183 727 214 636 294 466 C 313 426 288 427 267 458 C 178 589 153 649 104 689 Z"/>
    <path class="bg" d="M 637 60 C 590 91 499 126 366 172 C 358 174 361 182 366 184 C 388 191 469 176 607 136 C 663 119 707 105 742 104 C 754 103 763 103 766 98 C 769 90 767 80 760 73 C 746 59 723 47 694 31 C 683 25 674 18 665 20 C 658 20 654 27 654 35 C 652 45 647 53 637 60 Z"/>
    <path class="bg" d="M 395 267 C 418 299 432 318 441 320 C 447 320 453 317 457 311 C 461 303 462 290 461 272 C 460 263 453 253 440 246 C 406 227 385 218 380 221 C 376 222 374 227 374 235 C 373 241 383 250 395 267 Z"/>
    <path class="bg" d="M 519 220 C 536 251 551 272 567 279 C 574 282 582 281 588 275 C 593 268 595 260 595 251 C 594 238 590 226 581 218 C 564 204 548 197 532 189 C 520 183 509 183 509 196 C 508 202 513 210 519 220 Z"/>
    <path class="bg" d="M 655 318 C 711 265 753 225 786 205 C 796 198 801 194 798 188 C 792 177 784 165 770 154 C 755 142 740 137 725 137 C 714 137 710 145 713 159 C 714 167 715 178 709 190 C 687 228 652 276 608 334 C 598 347 642 328 655 318 Z"/>
    <path class="bg" d="M 748 550 C 754 517 761 490 770 469 C 785 434 785 434 792 416 C 799 396 813 384 824 374 C 836 360 837 345 825 335 C 813 325 788 313 750 296 C 736 289 705 300 655 318 C 624 329 624 329 608 334 C 570 346 381 378 374 380 C 361 381 355 385 358 393 C 359 399 368 402 382 408 C 401 415 422 414 450 406 C 477 397 506 394 536 388 C 562 382 562 382 575 379 C 609 370 644 362 680 355 C 698 350 712 351 721 359 C 731 368 733 393 726 431 C 720 460 720 460 717 474 C 711 498 705 522 700 545 C 697 561 745 566 748 550 Z"/>
    <path class="bg" d="M 770 469 C 802 465 838 463 878 462 C 922 460 946 456 949 450 C 952 442 947 433 937 426 C 915 410 892 401 869 401 C 843 401 815 410 792 416 C 748 426 748 426 726 431 C 691 438 653 447 614 455 C 573 462 573 462 553 466 C 482 478 407 492 327 506 C 314 508 312 514 323 525 C 331 533 341 539 354 542 C 367 544 380 544 390 541 C 440 524 494 510 553 500 C 592 493 592 493 611 490 C 641 484 676 477 717 474 C 752 471 752 471 770 469 Z"/>
    <path class="bg" d="M 553 579 C 494 591 439 598 389 606 C 373 608 370 615 380 628 C 384 634 390 639 399 642 C 406 644 415 643 426 641 C 458 632 501 624 553 618 C 588 613 588 613 606 611 C 652 604 705 596 766 591 C 773 590 779 586 780 579 C 780 573 769 563 748 550 C 734 542 716 542 700 545 C 683 548 667 553 607 567 C 571 575 571 575 553 579 Z"/>
    <path class="bg" d="M 536 388 C 548 413 553 441 553 466 C 553 489 553 489 553 500 C 553 526 553 552 553 579 C 553 605 553 605 553 618 C 553 672 551 737 551 813 C 550 851 533 861 504 852 C 486 846 468 836 445 829 C 423 822 425 835 442 850 C 485 890 519 926 547 956 C 554 963 564 961 573 951 C 602 911 613 849 611 768 C 607 672 605 636 606 611 C 607 582 607 582 607 567 C 607 540 608 514 611 490 C 613 467 613 467 614 455 C 617 411 624 404 575 379 C 564 372 531 376 536 388 Z"/>
</g>
<g id="anim-layer">
    <path style="--d:1s; stroke:#FF4444;" pathLength="3333" clip-path="url(#z20936c1)" d="M 154 211 L 287 304"/>
    <path style="--d:2s; stroke:#FF4444;" pathLength="3333" clip-path="url(#z20936c2)" d="M 97 703 L 150 739 L 291 440"/>
    <path style="--d:3s; stroke:#000;" pathLength="3333" clip-path="url(#z20936c3)" d="M 665 23 L 714 82 L 368 178"/>
    <path style="--d:4s; stroke:#000;" pathLength="3333" clip-path="url(#z20936c4)" d="M 381 228 L 450 312"/>
    <path style="--d:5s; stroke:#000;" pathLength="3333" clip-path="url(#z20936c5)" d="M 517 193 L 584 272"/>
    <path style="--d:6s; stroke:#000;" pathLength="3333" clip-path="url(#z20936c6)" d="M 718 144 L 754 191 L 615 332"/>
    <path style="--d:7s; stroke:#000;" pathLength="3333" clip-path="url(#z20936c7)" d="M 366 391 L 737 327 L 781 372 L 728 558"/>
    <path style="--d:8s; stroke:#000;" pathLength="3333" clip-path="url(#z20936c8)" d="M 324 514 L 824 435 L 946 442"/>
    <path style="--d:9s; stroke:#000;" pathLength="3333" clip-path="url(#z20936c9)" d="M 380 618 L 707 570 L 775 578"/>
    <path style="--d:10s; stroke:#000;" pathLength="3333" clip-path="url(#z20936c10)" d="M 542 383 L 583 428 L 578 844 L 539 907 L 437 833"/>
</g>
</svg>