<svg id="z20957" class="acjk" viewBox="0 0 1024 1024" xmlns="http://www.w3.org/2000/svg">

<style>
<![CDATA[
@keyframes zk { to { stroke-dashoffset:0; } }
svg.acjk path[clip-path] {
    --t:0.8s;
    animation:zk var(--t) linear forwards var(--d);
    stroke-dasharray:3337;
    stroke-dashoffset:3339;
    stroke-width:128;
    stroke-linecap:round;
    fill:none;
}
/* Low opacity for background improves visual overlap at intersections */
svg.acjk .bg { fill:#ccc; opacity: 0.5; } 
]]>
</style>
<defs>
    <clipPath id="z20957c1"><path d="M 155 255 C 172 273 188 293 206 315 C 212 323 221 328 232 330 C 238 330 244 327 249 319 C 253 310 254 295 251 276 C 247 255 215 232 157 209 C 147 204 139 203 136 205 C 133 206 131 212 131 221 C 131 227 140 238 155 255 Z"/></clipPath>
    <clipPath id="z20957c2"><path d="M 96 645 C 90 649 86 653 89 663 C 100 705 116 730 135 741 C 139 743 144 744 150 743 C 154 742 155 734 156 720 C 157 693 166 662 179 624 C 221 490 243 422 243 421 C 243 415 239 414 234 418 C 228 422 193 483 131 603 C 124 615 113 631 96 645 Z"/></clipPath>
    <clipPath id="z20957c3"><path d="M 357 272 C 391 267 477 222 526 201 C 532 198 536 194 535 189 C 533 184 527 178 518 173 C 497 161 481 157 469 157 C 463 157 460 160 460 166 C 460 184 426 212 358 252 C 352 255 350 273 357 272 Z"/></clipPath>
    <clipPath id="z20957c4"><path d="M 545 336 C 540 325 534 304 529 272 C 528 265 527 261 524 259 C 521 257 519 259 517 267 C 499 315 480 342 462 348 C 435 356 410 357 387 350 C 377 347 371 341 369 337 C 360 322 355 300 357 272 C 358 259 358 259 358 252 C 359 225 359 196 365 166 C 366 155 365 148 359 143 C 350 136 340 130 328 127 C 321 124 315 124 311 128 C 308 130 307 136 311 146 C 318 166 322 187 322 208 C 320 306 328 364 347 377 C 381 399 431 404 498 383 C 512 378 527 370 542 359 C 549 353 549 345 545 336 Z"/></clipPath>
    <clipPath id="z20957c5"><path d="M 332 493 C 347 471 356 453 365 446 C 369 441 369 436 367 431 C 364 425 358 416 345 408 C 333 400 323 397 315 397 C 307 397 304 403 309 413 C 320 434 297 490 236 580 C 232 585 228 588 228 591 C 227 595 229 596 235 596 C 252 592 280 564 319 511 C 328 499 328 499 332 493 Z"/></clipPath>
    <clipPath id="z20957c6"><path d="M 399 516 C 430 512 507 487 513 483 C 517 478 518 473 515 469 C 510 462 500 458 485 456 C 468 453 452 456 437 464 C 422 470 352 489 332 493 C 325 494 312 508 319 511 C 331 517 345 522 360 521 C 386 518 386 518 399 516 Z"/></clipPath>
    <clipPath id="z20957c7"><path d="M 404 646 C 434 636 471 628 513 620 C 521 618 525 615 526 611 C 526 604 521 599 511 595 C 496 589 483 588 471 592 C 450 598 431 604 414 609 C 380 618 380 618 363 623 C 321 634 241 651 213 656 C 206 657 201 659 201 664 C 199 669 203 676 212 682 C 234 696 256 698 278 689 C 304 678 330 668 355 661 C 388 651 388 651 404 646 Z"/></clipPath>
    <clipPath id="z20957c8"><path d="M 355 661 C 345 704 311 758 269 798 C 252 813 232 824 204 844 C 197 848 196 852 203 853 C 230 856 266 839 310 805 C 356 768 385 714 404 646 C 411 621 411 621 414 609 C 420 585 426 567 432 556 C 436 547 434 540 427 534 C 418 526 409 520 399 516 C 387 511 353 510 360 521 C 372 537 375 565 363 623 C 358 648 358 648 355 661 Z"/></clipPath>
    <clipPath id="z20957c9"><path d="M 433 723 C 459 751 476 766 485 768 C 489 768 494 766 498 759 C 501 752 500 741 497 727 C 495 718 487 709 474 703 C 444 688 424 683 416 686 C 413 686 410 690 412 698 C 412 703 421 710 433 723 Z"/></clipPath>
    <clipPath id="z20957c10"><path d="M 721 336 C 785 275 825 241 842 235 C 852 230 855 224 852 215 C 849 206 829 191 790 172 C 780 167 745 178 683 200 C 635 216 599 221 578 221 C 564 221 558 227 565 239 C 568 246 577 252 589 259 C 606 268 625 266 645 255 C 706 220 743 207 756 215 C 763 220 767 226 763 234 C 747 263 727 294 707 328 C 704 333 717 339 721 336 Z"/></clipPath>
    <clipPath id="z20957c11"><path d="M 707 328 C 677 310 653 309 644 314 C 640 315 637 321 642 325 C 691 368 691 368 715 390 C 721 395 728 397 735 397 C 739 397 743 393 746 387 C 752 372 749 352 721 336 C 712 331 712 331 707 328 Z"/></clipPath>
    <clipPath id="z20957c12"><path d="M 696 457 C 730 447 765 440 800 435 C 820 431 831 435 832 445 C 832 453 824 475 807 510 C 802 518 802 524 807 527 C 811 529 816 525 825 519 C 868 483 899 462 917 457 C 931 452 938 447 937 439 C 936 432 914 417 870 396 C 857 389 843 389 827 394 C 782 406 741 417 703 426 C 660 435 608 444 548 453 C 531 455 529 462 542 476 C 552 487 570 489 598 481 C 618 474 640 471 662 466 C 685 460 685 460 696 457 Z"/></clipPath>
    <clipPath id="z20957c13"><path d="M 712 759 C 714 714 716 672 718 634 C 719 613 719 613 719 603 C 720 570 722 521 727 506 C 730 495 730 487 725 482 C 716 472 705 462 696 457 C 686 451 658 455 662 466 C 670 484 675 501 676 519 C 676 535 675 608 674 739 C 674 753 712 773 712 759 Z"/></clipPath>
    <clipPath id="z20957c14"><path d="M 718 634 C 756 634 802 625 857 607 C 857 606 857 606 858 606 C 863 600 863 594 860 590 C 855 583 843 578 825 577 C 815 576 755 591 719 603 C 709 607 708 634 718 634 Z"/></clipPath>
    <clipPath id="z20957c15"><path d="M 587 687 C 597 659 609 635 622 614 C 626 606 625 599 616 593 C 592 577 572 572 560 576 C 553 577 553 582 555 590 C 565 646 536 737 480 814 C 475 819 463 837 440 866 C 434 873 437 877 446 874 C 457 869 471 861 485 847 C 527 802 560 755 580 705 C 585 693 585 693 587 687 Z"/></clipPath>
    <clipPath id="z20957c16"><path d="M 580 705 C 636 761 705 818 787 872 C 800 880 818 883 840 882 C 882 878 925 867 970 853 C 980 849 986 847 987 844 C 987 839 983 835 974 834 C 858 811 769 789 712 759 C 687 746 687 746 674 739 C 646 724 598 691 587 687 C 581 684 575 700 580 705 Z"/></clipPath>
</defs>
<g id="bg-layer">
    <path class="bg" d="M 155 255 C 172 273 188 293 206 315 C 212 323 221 328 232 330 C 238 330 244 327 249 319 C 253 310 254 295 251 276 C 247 255 215 232 157 209 C 147 204 139 203 136 205 C 133 206 131 212 131 221 C 131 227 140 238 155 255 Z"/>
    <path class="bg" d="M 96 645 C 90 649 86 653 89 663 C 100 705 116 730 135 741 C 139 743 144 744 150 743 C 154 742 155 734 156 720 C 157 693 166 662 179 624 C 221 490 243 422 243 421 C 243 415 239 414 234 418 C 228 422 193 483 131 603 C 124 615 113 631 96 645 Z"/>
    <path class="bg" d="M 357 272 C 391 267 477 222 526 201 C 532 198 536 194 535 189 C 533 184 527 178 518 173 C 497 161 481 157 469 157 C 463 157 460 160 460 166 C 460 184 426 212 358 252 C 352 255 350 273 357 272 Z"/>
    <path class="bg" d="M 545 336 C 540 325 534 304 529 272 C 528 265 527 261 524 259 C 521 257 519 259 517 267 C 499 315 480 342 462 348 C 435 356 410 357 387 350 C 377 347 371 341 369 337 C 360 322 355 300 357 272 C 358 259 358 259 358 252 C 359 225 359 196 365 166 C 366 155 365 148 359 143 C 350 136 340 130 328 127 C 321 124 315 124 311 128 C 308 130 307 136 311 146 C 318 166 322 187 322 208 C 320 306 328 364 347 377 C 381 399 431 404 498 383 C 512 378 527 370 542 359 C 549 353 549 345 545 336 Z"/>
    <path class="bg" d="M 332 493 C 347 471 356 453 365 446 C 369 441 369 436 367 431 C 364 425 358 416 345 408 C 333 400 323 397 315 397 C 307 397 304 403 309 413 C 320 434 297 490 236 580 C 232 585 228 588 228 591 C 227 595 229 596 235 596 C 252 592 280 564 319 511 C 328 499 328 499 332 493 Z"/>
    <path class="bg" d="M 399 516 C 430 512 507 487 513 483 C 517 478 518 473 515 469 C 510 462 500 458 485 456 C 468 453 452 456 437 464 C 422 470 352 489 332 493 C 325 494 312 508 319 511 C 331 517 345 522 360 521 C 386 518 386 518 399 516 Z"/>
    <path class="bg" d="M 404 646 C 434 636 471 628 513 620 C 521 618 525 615 526 611 C 526 604 521 599 511 595 C 496 589 483 588 471 592 C 450 598 431 604 414 609 C 380 618 380 618 363 623 C 321 634 241 651 213 656 C 206 657 201 659 201 664 C 199 669 203 676 212 682 C 234 696 256 698 278 689 C 304 678 330 668 355 661 C 388 651 388 651 404 646 Z"/>
    <path class="bg" d="M 355 661 C 345 704 311 758 269 798 C 252 813 232 824 204 844 C 197 848 196 852 203 853 C 230 856 266 839 310 805 C 356 768 385 714 404 646 C 411 621 411 621 414 609 C 420 585 426 567 432 556 C 436 547 434 540 427 534 C 418 526 409 520 399 516 C 387 511 353 510 360 521 C 372 537 375 565 363 623 C 358 648 358 648 355 661 Z"/>
    <path class="bg" d="M 433 723 C 459 751 476 766 485 768 C 489 768 494 766 498 759 C 501 752 500 741 497 727 C 495 718 487 709 474 703 C 444 688 424 683 416 686 C 413 686 410 690 412 698 C 412 703 421 710 433 723 Z"/>
    <path class="bg" d="M 721 336 C 785 275 825 241 842 235 C 852 230 855 224 852 215 C 849 206 829 191 790 172 C 780 167 745 178 683 200 C 635 216 599 221 578 221 C 564 221 558 227 565 239 C 568 246 577 252 589 259 C 606 268 625 266 645 255 C 706 220 743 207 756 215 C 763 220 767 226 763 234 C 747 263 727 294 707 328 C 704 333 717 339 721 336 Z"/>
    <path class="bg" d="M 707 328 C 677 310 653 309 644 314 C 640 315 637 321 642 325 C 691 368 691 368 715 390 C 721 395 728 397 735 397 C 739 397 743 393 746 387 C 752 372 749 352 721 336 C 712 331 712 331 707 328 Z"/>
    <path class="bg" d="M 696 457 C 730 447 765 440 800 435 C 820 431 831 435 832 445 C 832 453 824 475 807 510 C 802 518 802 524 807 527 C 811 529 816 525 825 519 C 868 483 899 462 917 457 C 931 452 938 447 937 439 C 936 432 914 417 870 396 C 857 389 843 389 827 394 C 782 406 741 417 703 426 C 660 435 608 444 548 453 C 531 455 529 462 542 476 C 552 487 570 489 598 481 C 618 474 640 471 662 466 C 685 460 685 460 696 457 Z"/>
    <path class="bg" d="M 712 759 C 714 714 716 672 718 634 C 719 613 719 613 719 603 C 720 570 722 521 727 506 C 730 495 730 487 725 482 C 716 472 705 462 696 457 C 686 451 658 455 662 466 C 670 484 675 501 676 519 C 676 535 675 608 674 739 C 674 753 712 773 712 759 Z"/>
    <path class="bg" d="M 718 634 C 756 634 802 625 857 607 C 857 606 857 606 858 606 C 863 600 863 594 860 590 C 855 583 843 578 825 577 C 815 576 755 591 719 603 C 709 607 708 634 718 634 Z"/>
    <path class="bg" d="M 587 687 C 597 659 609 635 622 614 C 626 606 625 599 616 593 C 592 577 572 572 560 576 C 553 577 553 582 555 590 C 565 646 536 737 480 814 C 475 819 463 837 440 866 C 434 873 437 877 446 874 C 457 869 471 861 485 847 C 527 802 560 755 580 705 C 585 693 585 693 587 687 Z"/>
    <path class="bg" d="M 580 705 C 636 761 705 818 787 872 C 800 880 818 883 840 882 C 882 878 925 867 970 853 C 980 849 986 847 987 844 C 987 839 983 835 974 834 C 858 811 769 789 712 759 C 687 746 687 746 674 739 C 646 724 598 691 587 687 C 581 684 575 700 580 705 Z"/>
</g>
<g id="anim-layer">
    <path style="--d:1s; stroke:#FF4444;" pathLength="3333" clip-path="url(#z20957c1)" d="M 140 212 L 241 323"/>
    <path style="--d:2s; stroke:#FF4444;" pathLength="3333" clip-path="url(#z20957c2)" d="M 99 659 L 131 695 L 237 424"/>
    <path style="--d:3s; stroke:#000;" pathLength="3333" clip-path="url(#z20957c3)" d="M 467 164 L 488 192 L 360 262"/>
    <path style="--d:4s; stroke:#000;" pathLength="3333" clip-path="url(#z20957c4)" d="M 317 131 L 342 164 L 361 360 L 425 374 L 492 359 L 519 337 L 524 267"/>
    <path style="--d:5s; stroke:#000;" pathLength="3333" clip-path="url(#z20957c5)" d="M 316 405 L 336 447 L 236 591"/>
    <path style="--d:6s; stroke:#000;" pathLength="3333" clip-path="url(#z20957c6)" d="M 327 507 L 512 472"/>
    <path style="--d:7s; stroke:#000;" pathLength="3333" clip-path="url(#z20957c7)" d="M 207 666 L 522 607"/>
    <path style="--d:8s; stroke:#000;" pathLength="3333" clip-path="url(#z20957c8)" d="M 369 523 L 401 559 L 357 711 L 290 800 L 208 846"/>
    <path style="--d:9s; stroke:#000;" pathLength="3333" clip-path="url(#z20957c9)" d="M 420 694 L 490 761"/>
    <path style="--d:10s; stroke:#000;" pathLength="3333" clip-path="url(#z20957c10)" d="M 568 231 L 624 239 L 777 196 L 808 228 L 715 326"/>
    <path style="--d:11s; stroke:#000;" pathLength="3333" clip-path="url(#z20957c11)" d="M 648 321 L 736 391"/>
    <path style="--d:12s; stroke:#000;" pathLength="3333" clip-path="url(#z20957c12)" d="M 541 460 L 844 416 L 883 448 L 811 520"/>
    <path style="--d:13s; stroke:#000;" pathLength="3333" clip-path="url(#z20957c13)" d="M 670 468 L 701 498 L 707 750"/>
    <path style="--d:14s; stroke:#000;" pathLength="3333" clip-path="url(#z20957c14)" d="M 727 626 L 857 593"/>
    <path style="--d:15s; stroke:#000;" pathLength="3333" clip-path="url(#z20957c15)" d="M 562 584 L 591 620 L 536 764 L 447 867"/>
    <path style="--d:16s; stroke:#000;" pathLength="3333" clip-path="url(#z20957c16)" d="M 590 694 L 810 838 L 978 845"/>
</g>
</svg>