<svg id="z21010" class="acjk" viewBox="0 0 1024 1024" xmlns="http://www.w3.org/2000/svg">

<style>
<![CDATA[
@keyframes zk { to { stroke-dashoffset:0; } }
svg.acjk path[clip-path] {
    --t:0.8s;
    animation:zk var(--t) linear forwards var(--d);
    stroke-dasharray:3337;
    stroke-dashoffset:3339;
    stroke-width:128;
    stroke-linecap:round;
    fill:none;
}
/* Low opacity for background improves visual overlap at intersections */
svg.acjk .bg { fill:#ccc; opacity: 0.5; } 
]]>
</style>
<defs>
    <clipPath id="z21010c1"><path d="M 323 432 Q 392 413 463 394 Q 517 378 525 369 Q 532 360 528 352 Q 521 340 490 335 Q 459 331 429 345 Q 374 367 317 387 C 290 396 290 396 276 400 Q 212 416 139 429 Q 102 438 130 453 Q 169 474 250 452 Q 265 448 282 444 C 309 436 309 436 323 432 Z"/></clipPath>
    <clipPath id="z21010c2"><path d="M 363 708 Q 405 790 470 853 Q 545 902 567 888 Q 588 881 584 841 Q 575 807 571 687 Q 572 665 566 662 Q 562 661 556 680 Q 534 768 514 785 Q 501 788 471 758 Q 428 715 401 670 C 385 639 385 639 377 624 Q 338 531 323 432 C 319 402 319 402 317 387 Q 304 252 332 184 Q 344 159 303 131 Q 272 107 253 109 Q 234 109 241 137 Q 262 179 262 223 Q 265 314 276 400 C 280 429 280 429 282 444 Q 300 561 341 661 C 356 692 356 692 363 708 Z"/></clipPath>
    <clipPath id="z21010c3"><path d="M 341 661 Q 272 725 135 795 Q 126 801 132 805 Q 139 809 150 807 Q 217 794 279 762 Q 325 740 363 708 C 388 683 388 683 401 670 Q 441 630 484 564 Q 500 540 521 519 Q 531 512 527 500 Q 523 490 498 466 Q 479 450 470 450 Q 457 451 454 466 Q 448 539 377 624 C 353 649 353 649 341 661 Z"/></clipPath>
    <clipPath id="z21010c4"><path d="M 420 209 Q 447 231 475 258 Q 490 271 505 270 Q 515 269 521 256 Q 525 240 515 211 Q 509 192 478 178 Q 408 154 392 161 Q 388 165 389 178 Q 393 188 420 209 Z"/></clipPath>
    <clipPath id="z21010c5"><path d="M 608 312 Q 639 381 618 567 Q 609 600 639 639 Q 649 649 659 638 Q 677 613 677 519 Q 677 375 682 342 Q 689 320 668 307 Q 652 297 635 289 Q 622 285 613 290 Q 604 297 608 312 Z"/></clipPath>
    <clipPath id="z21010c6"><path d="M 795 164 Q 799 203 799 784 Q 799 809 786 818 Q 780 819 714 797 Q 681 781 682 792 Q 683 799 702 818 Q 765 881 779 914 Q 795 953 812 956 Q 828 957 846 920 Q 868 871 869 791 Q 850 535 854 279 Q 857 185 871 135 Q 889 101 828 79 Q 791 60 771 67 Q 752 74 769 99 Q 793 127 795 164 Z"/></clipPath>
</defs>
<g id="bg-layer">
    <path class="bg" d="M 323 432 Q 392 413 463 394 Q 517 378 525 369 Q 532 360 528 352 Q 521 340 490 335 Q 459 331 429 345 Q 374 367 317 387 C 290 396 290 396 276 400 Q 212 416 139 429 Q 102 438 130 453 Q 169 474 250 452 Q 265 448 282 444 C 309 436 309 436 323 432 Z"/>
    <path class="bg" d="M 363 708 Q 405 790 470 853 Q 545 902 567 888 Q 588 881 584 841 Q 575 807 571 687 Q 572 665 566 662 Q 562 661 556 680 Q 534 768 514 785 Q 501 788 471 758 Q 428 715 401 670 C 385 639 385 639 377 624 Q 338 531 323 432 C 319 402 319 402 317 387 Q 304 252 332 184 Q 344 159 303 131 Q 272 107 253 109 Q 234 109 241 137 Q 262 179 262 223 Q 265 314 276 400 C 280 429 280 429 282 444 Q 300 561 341 661 C 356 692 356 692 363 708 Z"/>
    <path class="bg" d="M 341 661 Q 272 725 135 795 Q 126 801 132 805 Q 139 809 150 807 Q 217 794 279 762 Q 325 740 363 708 C 388 683 388 683 401 670 Q 441 630 484 564 Q 500 540 521 519 Q 531 512 527 500 Q 523 490 498 466 Q 479 450 470 450 Q 457 451 454 466 Q 448 539 377 624 C 353 649 353 649 341 661 Z"/>
    <path class="bg" d="M 420 209 Q 447 231 475 258 Q 490 271 505 270 Q 515 269 521 256 Q 525 240 515 211 Q 509 192 478 178 Q 408 154 392 161 Q 388 165 389 178 Q 393 188 420 209 Z"/>
    <path class="bg" d="M 608 312 Q 639 381 618 567 Q 609 600 639 639 Q 649 649 659 638 Q 677 613 677 519 Q 677 375 682 342 Q 689 320 668 307 Q 652 297 635 289 Q 622 285 613 290 Q 604 297 608 312 Z"/>
    <path class="bg" d="M 795 164 Q 799 203 799 784 Q 799 809 786 818 Q 780 819 714 797 Q 681 781 682 792 Q 683 799 702 818 Q 765 881 779 914 Q 795 953 812 956 Q 828 957 846 920 Q 868 871 869 791 Q 850 535 854 279 Q 857 185 871 135 Q 889 101 828 79 Q 791 60 771 67 Q 752 74 769 99 Q 793 127 795 164 Z"/>
</g>
<g id="anim-layer">
    <path style="--d:1s; stroke:#FF4444;" pathLength="3333" clip-path="url(#z21010c1)" d="M 125 440 L 218 436 L 524 360"/>
    <path style="--d:2s; stroke:#FF4444;" pathLength="3333" clip-path="url(#z21010c2)" d="M 248 116 L 295 173 L 305 453 L 383 692 L 474 808 L 541 840 L 563 671"/>
    <path style="--d:3s; stroke:#FF4444;" pathLength="3333" clip-path="url(#z21010c3)" d="M 467 454 L 487 507 L 385 651 L 296 727 L 141 799"/>
    <path style="--d:4s; stroke:#FF4444;" pathLength="3333" clip-path="url(#z21010c4)" d="M 395 167 L 484 221 L 509 265"/>
    <path style="--d:5s; stroke:#000;" pathLength="3333" clip-path="url(#z21010c5)" d="M 618 293 L 652 341 L 645 639"/>
    <path style="--d:6s; stroke:#000;" pathLength="3333" clip-path="url(#z21010c6)" d="M 768 73 L 834 136 L 834 791 L 802 903 L 692 795"/>
</g>
</svg>