<svg id="z21095" class="acjk" viewBox="0 0 1024 1024" xmlns="http://www.w3.org/2000/svg">

<style>
<![CDATA[
@keyframes zk { to { stroke-dashoffset:0; } }
svg.acjk path[clip-path] {
    --t:0.8s;
    animation:zk var(--t) linear forwards var(--d);
    stroke-dasharray:3337;
    stroke-dashoffset:3339;
    stroke-width:128;
    stroke-linecap:round;
    fill:none;
}
/* Low opacity for background improves visual overlap at intersections */
svg.acjk .bg { fill:#ccc; opacity: 0.5; } 
]]>
</style>
<defs>
    <clipPath id="z21095c1"><path d="M 521 261 Q 545 204 568 191 Q 584 173 570 156 Q 554 143 504 119 Q 486 112 466 120 Q 399 147 286 170 C 275 172 290 203 300 199 Q 304 198 312 195 Q 384 182 452 166 Q 470 162 477 169 Q 484 176 483 194 Q 476 228 468 259 C 465 276 514 277 521 261 Z"/></clipPath>
    <clipPath id="z21095c2"><path d="M 279 340 Q 286 340 296 338 Q 372 317 537 295 Q 547 294 549 285 Q 549 276 521 261 C 506 252 485 253 468 259 Q 366 289 283 305 C 271 307 267 340 279 340 Z"/></clipPath>
    <clipPath id="z21095c3"><path d="M 252 502 Q 271 420 279 340 C 282 317 282 317 283 305 Q 286 274 290 245 Q 291 215 300 199 C 304 189 294 177 286 170 Q 273 158 252 149 Q 233 139 220 143 Q 208 150 215 164 Q 236 194 232 253 Q 214 469 182 578 Q 178 591 173 605 Q 134 713 47 846 Q 41 852 40 858 Q 37 868 48 867 Q 75 861 155 746 Q 174 713 194 673 Q 227 600 249 514 C 251 506 251 506 252 502 Z"/></clipPath>
    <clipPath id="z21095c4"><path d="M 445 507 Q 470 500 571 483 Q 581 484 590 470 Q 591 460 568 450 Q 531 428 456 458 Q 453 458 452 459 C 418 468 418 468 401 473 Q 371 479 263 499 Q 256 500 252 502 C 248 503 246 511 249 514 Q 256 521 284 537 Q 297 544 319 536 Q 355 526 399 517 C 430 510 430 510 445 507 Z"/></clipPath>
    <clipPath id="z21095c5"><path d="M 425 637 Q 435 570 445 507 C 450 475 450 475 452 459 Q 452 453 474 378 Q 478 368 461 354 Q 433 335 411 330 Q 398 326 390 333 Q 383 339 389 353 Q 405 378 403 396 Q 403 433 401 473 C 400 502 400 502 399 517 Q 395 578 387 647 C 384 660 422 650 425 637 Z"/></clipPath>
    <clipPath id="z21095c6"><path d="M 306 663 Q 296 657 261 652 Q 249 649 247 654 Q 241 661 249 675 Q 277 732 296 824 Q 300 852 316 869 Q 334 890 338 875 Q 344 859 340 831 C 336 811 336 811 334 801 Q 319 722 315 693 C 313 683 316 667 306 663 Z"/></clipPath>
    <clipPath id="z21095c7"><path d="M 546 771 Q 564 705 595 679 Q 611 661 597 645 Q 581 632 531 610 Q 515 603 494 612 Q 457 627 425 637 C 400 644 400 644 387 647 Q 347 654 306 663 C 296 665 305 695 315 693 Q 495 657 500 658 Q 503 658 505 661 Q 514 668 512 687 Q 506 729 498 764 C 495 780 543 787 546 771 Z"/></clipPath>
    <clipPath id="z21095c8"><path d="M 340 831 Q 341 831 344 832 Q 354 835 367 831 Q 427 816 556 803 Q 566 802 568 792 Q 568 785 546 771 C 532 763 514 764 498 764 Q 494 763 491 765 Q 404 790 334 801 C 324 803 330 829 340 831 Z"/></clipPath>
    <clipPath id="z21095c9"><path d="M 606 319 Q 636 388 615 566 Q 606 603 636 634 Q 645 644 654 634 Q 672 609 672 519 Q 672 381 677 347 Q 684 325 664 314 Q 648 304 631 296 Q 619 292 610 298 Q 603 304 606 319 Z"/></clipPath>
    <clipPath id="z21095c10"><path d="M 784 177 Q 790 214 799 802 Q 798 827 785 836 Q 776 843 696 831 Q 659 821 663 832 Q 666 839 688 854 Q 761 903 782 933 Q 806 967 823 968 Q 839 968 853 930 Q 869 881 864 802 Q 842 547 844 291 Q 845 197 859 146 Q 877 113 816 90 Q 779 71 759 80 Q 740 87 758 111 Q 782 139 784 177 Z"/></clipPath>
</defs>
<g id="bg-layer">
    <path class="bg" d="M 521 261 Q 545 204 568 191 Q 584 173 570 156 Q 554 143 504 119 Q 486 112 466 120 Q 399 147 286 170 C 275 172 290 203 300 199 Q 304 198 312 195 Q 384 182 452 166 Q 470 162 477 169 Q 484 176 483 194 Q 476 228 468 259 C 465 276 514 277 521 261 Z"/>
    <path class="bg" d="M 279 340 Q 286 340 296 338 Q 372 317 537 295 Q 547 294 549 285 Q 549 276 521 261 C 506 252 485 253 468 259 Q 366 289 283 305 C 271 307 267 340 279 340 Z"/>
    <path class="bg" d="M 252 502 Q 271 420 279 340 C 282 317 282 317 283 305 Q 286 274 290 245 Q 291 215 300 199 C 304 189 294 177 286 170 Q 273 158 252 149 Q 233 139 220 143 Q 208 150 215 164 Q 236 194 232 253 Q 214 469 182 578 Q 178 591 173 605 Q 134 713 47 846 Q 41 852 40 858 Q 37 868 48 867 Q 75 861 155 746 Q 174 713 194 673 Q 227 600 249 514 C 251 506 251 506 252 502 Z"/>
    <path class="bg" d="M 445 507 Q 470 500 571 483 Q 581 484 590 470 Q 591 460 568 450 Q 531 428 456 458 Q 453 458 452 459 C 418 468 418 468 401 473 Q 371 479 263 499 Q 256 500 252 502 C 248 503 246 511 249 514 Q 256 521 284 537 Q 297 544 319 536 Q 355 526 399 517 C 430 510 430 510 445 507 Z"/>
    <path class="bg" d="M 425 637 Q 435 570 445 507 C 450 475 450 475 452 459 Q 452 453 474 378 Q 478 368 461 354 Q 433 335 411 330 Q 398 326 390 333 Q 383 339 389 353 Q 405 378 403 396 Q 403 433 401 473 C 400 502 400 502 399 517 Q 395 578 387 647 C 384 660 422 650 425 637 Z"/>
    <path class="bg" d="M 306 663 Q 296 657 261 652 Q 249 649 247 654 Q 241 661 249 675 Q 277 732 296 824 Q 300 852 316 869 Q 334 890 338 875 Q 344 859 340 831 C 336 811 336 811 334 801 Q 319 722 315 693 C 313 683 316 667 306 663 Z"/>
    <path class="bg" d="M 546 771 Q 564 705 595 679 Q 611 661 597 645 Q 581 632 531 610 Q 515 603 494 612 Q 457 627 425 637 C 400 644 400 644 387 647 Q 347 654 306 663 C 296 665 305 695 315 693 Q 495 657 500 658 Q 503 658 505 661 Q 514 668 512 687 Q 506 729 498 764 C 495 780 543 787 546 771 Z"/>
    <path class="bg" d="M 340 831 Q 341 831 344 832 Q 354 835 367 831 Q 427 816 556 803 Q 566 802 568 792 Q 568 785 546 771 C 532 763 514 764 498 764 Q 494 763 491 765 Q 404 790 334 801 C 324 803 330 829 340 831 Z"/>
    <path class="bg" d="M 606 319 Q 636 388 615 566 Q 606 603 636 634 Q 645 644 654 634 Q 672 609 672 519 Q 672 381 677 347 Q 684 325 664 314 Q 648 304 631 296 Q 619 292 610 298 Q 603 304 606 319 Z"/>
    <path class="bg" d="M 784 177 Q 790 214 799 802 Q 798 827 785 836 Q 776 843 696 831 Q 659 821 663 832 Q 666 839 688 854 Q 761 903 782 933 Q 806 967 823 968 Q 839 968 853 930 Q 869 881 864 802 Q 842 547 844 291 Q 845 197 859 146 Q 877 113 816 90 Q 779 71 759 80 Q 740 87 758 111 Q 782 139 784 177 Z"/>
</g>
<g id="anim-layer">
    <path style="--d:1s; stroke:#FF4444;" pathLength="3333" clip-path="url(#z21095c1)" d="M 295 175 L 487 142 L 529 177 L 488 259"/>
    <path style="--d:2s; stroke:#FF4444;" pathLength="3333" clip-path="url(#z21095c2)" d="M 283 333 L 443 287 L 544 286"/>
    <path style="--d:3s; stroke:#FF4444;" pathLength="3333" clip-path="url(#z21095c3)" d="M 221 152 L 265 209 L 221 524 L 162 688 L 47 861"/>
    <path style="--d:4s; stroke:#FF4444;" pathLength="3333" clip-path="url(#z21095c4)" d="M 258 512 L 582 467"/>
    <path style="--d:5s; stroke:#FF4444;" pathLength="3333" clip-path="url(#z21095c5)" d="M 393 340 L 438 386 L 397 643"/>
    <path style="--d:6s; stroke:#FF4444;" pathLength="3333" clip-path="url(#z21095c6)" d="M 253 662 L 283 682 L 325 874"/>
    <path style="--d:7s; stroke:#FF4444;" pathLength="3333" clip-path="url(#z21095c7)" d="M 313 666 L 527 639 L 557 675 L 518 766"/>
    <path style="--d:8s; stroke:#FF4444;" pathLength="3333" clip-path="url(#z21095c8)" d="M 342 804 L 560 793"/>
    <path style="--d:9s; stroke:#000;" pathLength="3333" clip-path="url(#z21095c9)" d="M 613 300 L 647 345 L 643 629"/>
    <path style="--d:10s; stroke:#000;" pathLength="3333" clip-path="url(#z21095c10)" d="M 753 89 L 821 141 L 830 826 L 804 917 L 673 834"/>
</g>
</svg>