<svg id="z21276" class="acjk" viewBox="0 0 1024 1024" xmlns="http://www.w3.org/2000/svg">

<style>
<![CDATA[
@keyframes zk { to { stroke-dashoffset:0; } }
svg.acjk path[clip-path] {
    --t:0.8s;
    animation:zk var(--t) linear forwards var(--d);
    stroke-dasharray:3337;
    stroke-dashoffset:3339;
    stroke-width:128;
    stroke-linecap:round;
    fill:none;
}
/* Low opacity for background improves visual overlap at intersections */
svg.acjk .bg { fill:#ccc; opacity: 0.5; } 
]]>
</style>
<defs>
    <clipPath id="z21276c1"><path d="M 304 189 Q 343 210 391 203 Q 551 187 716 168 Q 792 158 804 149 Q 814 142 810 132 Q 804 119 775 109 Q 745 100 713 109 Q 524 157 306 160 Q 296 160 294 162 C 285 165 295 185 304 189 Z"/></clipPath>
    <clipPath id="z21276c2"><path d="M 455 456 C 473 446 498 435 530 422 C 561 408 561 408 577 401 C 601 391 627 379 657 366 C 669 364 677 366 680 373 C 684 379 676 420 658 494 C 654 519 643 528 626 521 C 598 512 598 512 584 507 C 576 507 573 508 575 512 C 577 519 599 540 640 575 C 652 590 664 592 674 580 C 694 556 708 525 715 487 C 719 463 723 444 731 417 C 737 397 746 371 763 353 C 771 345 770 337 761 329 C 750 323 730 316 700 310 C 689 308 679 310 671 318 C 655 332 631 346 600 360 C 593 363 587 366 583 369 C 550 382 550 382 534 389 C 510 398 486 407 463 417 C 428 429 428 429 411 435 C 379 445 353 453 333 459 C 325 460 320 463 320 468 C 319 472 331 479 355 487 C 369 492 383 491 397 484 C 399 482 403 480 408 478 C 439 463 439 463 455 456 Z"/></clipPath>
    <clipPath id="z21276c3"><path d="M 530 422 Q 529 428 529 435 Q 514 552 518 572 Q 522 582 531 578 Q 549 563 577 401 C 581 380 581 380 583 369 Q 593 311 603 289 Q 613 273 603 261 Q 591 246 567 232 Q 549 222 528 228 Q 518 234 528 249 Q 543 280 534 389 C 531 411 531 411 530 422 Z"/></clipPath>
    <clipPath id="z21276c4"><path d="M 872 671 Q 859 620 857 534 Q 856 519 849 514 Q 842 510 838 527 Q 817 633 801 651 Q 762 688 609 683 Q 527 676 492 659 Q 461 641 456 620 Q 435 566 455 456 C 460 430 460 430 463 417 Q 466 404 472 393 Q 484 365 467 350 Q 422 314 408 317 Q 395 323 401 338 Q 417 372 412 423 Q 411 429 411 435 C 409 464 409 464 408 478 Q 404 593 412 622 Q 421 662 449 686 Q 512 734 719 733 Q 815 732 853 712 Q 881 700 872 671 Z"/></clipPath>
    <clipPath id="z21276c5"><path d="M 294 162 Q 251 137 232 137 Q 219 134 210 142 Q 200 149 215 167 Q 243 203 232 578 Q 217 803 185 831 Q 163 849 176 867 Q 182 885 197 897 Q 212 909 235 894 Q 314 833 727 843 Q 811 844 852 852 Q 877 856 890 850 Q 902 843 902 836 Q 901 821 867 798 Q 833 777 812 778 Q 767 779 418 813 Q 283 832 274 818 Q 265 809 274 673 Q 274 529 295 267 Q 298 210 303 193 Q 304 190 304 189 C 306 180 303 166 294 162 Z"/></clipPath>
</defs>
<g id="bg-layer">
    <path class="bg" d="M 304 189 Q 343 210 391 203 Q 551 187 716 168 Q 792 158 804 149 Q 814 142 810 132 Q 804 119 775 109 Q 745 100 713 109 Q 524 157 306 160 Q 296 160 294 162 C 285 165 295 185 304 189 Z"/>
    <path class="bg" d="M 455 456 C 473 446 498 435 530 422 C 561 408 561 408 577 401 C 601 391 627 379 657 366 C 669 364 677 366 680 373 C 684 379 676 420 658 494 C 654 519 643 528 626 521 C 598 512 598 512 584 507 C 576 507 573 508 575 512 C 577 519 599 540 640 575 C 652 590 664 592 674 580 C 694 556 708 525 715 487 C 719 463 723 444 731 417 C 737 397 746 371 763 353 C 771 345 770 337 761 329 C 750 323 730 316 700 310 C 689 308 679 310 671 318 C 655 332 631 346 600 360 C 593 363 587 366 583 369 C 550 382 550 382 534 389 C 510 398 486 407 463 417 C 428 429 428 429 411 435 C 379 445 353 453 333 459 C 325 460 320 463 320 468 C 319 472 331 479 355 487 C 369 492 383 491 397 484 C 399 482 403 480 408 478 C 439 463 439 463 455 456 Z"/>
    <path class="bg" d="M 530 422 Q 529 428 529 435 Q 514 552 518 572 Q 522 582 531 578 Q 549 563 577 401 C 581 380 581 380 583 369 Q 593 311 603 289 Q 613 273 603 261 Q 591 246 567 232 Q 549 222 528 228 Q 518 234 528 249 Q 543 280 534 389 C 531 411 531 411 530 422 Z"/>
    <path class="bg" d="M 872 671 Q 859 620 857 534 Q 856 519 849 514 Q 842 510 838 527 Q 817 633 801 651 Q 762 688 609 683 Q 527 676 492 659 Q 461 641 456 620 Q 435 566 455 456 C 460 430 460 430 463 417 Q 466 404 472 393 Q 484 365 467 350 Q 422 314 408 317 Q 395 323 401 338 Q 417 372 412 423 Q 411 429 411 435 C 409 464 409 464 408 478 Q 404 593 412 622 Q 421 662 449 686 Q 512 734 719 733 Q 815 732 853 712 Q 881 700 872 671 Z"/>
    <path class="bg" d="M 294 162 Q 251 137 232 137 Q 219 134 210 142 Q 200 149 215 167 Q 243 203 232 578 Q 217 803 185 831 Q 163 849 176 867 Q 182 885 197 897 Q 212 909 235 894 Q 314 833 727 843 Q 811 844 852 852 Q 877 856 890 850 Q 902 843 902 836 Q 901 821 867 798 Q 833 777 812 778 Q 767 779 418 813 Q 283 832 274 818 Q 265 809 274 673 Q 274 529 295 267 Q 298 210 303 193 Q 304 190 304 189 C 306 180 303 166 294 162 Z"/>
</g>
<g id="anim-layer">
    <path style="--d:1s; stroke:#FF4444;" pathLength="3333" clip-path="url(#z21276c1)" d="M 303 167 L 419 178 L 805 133"/>
    <path style="--d:2s; stroke:#000;" pathLength="3333" clip-path="url(#z21276c2)" d="M 329 468 L 388 464 L 692 341 L 724 361 L 672 533 L 652 555 L 584 511"/>
    <path style="--d:3s; stroke:#000;" pathLength="3333" clip-path="url(#z21276c3)" d="M 531 232 L 572 284 L 528 573"/>
    <path style="--d:4s; stroke:#000;" pathLength="3333" clip-path="url(#z21276c4)" d="M 407 322 L 444 376 L 431 610 L 483 680 L 654 708 L 812 689 L 838 668 L 847 521"/>
    <path style="--d:5s; stroke:#000;" pathLength="3333" clip-path="url(#z21276c5)" d="M 212 146 L 265 197 L 249 672 L 223 837 L 237 860 L 584 819 L 897 827"/>
</g>
</svg>