<svg id="z21304" class="acjk" viewBox="0 0 1024 1024" xmlns="http://www.w3.org/2000/svg">

<style>
<![CDATA[
@keyframes zk { to { stroke-dashoffset:0; } }
svg.acjk path[clip-path] {
    --t:0.8s;
    animation:zk var(--t) linear forwards var(--d);
    stroke-dasharray:3337;
    stroke-dashoffset:3339;
    stroke-width:128;
    stroke-linecap:round;
    fill:none;
}
/* Low opacity for background improves visual overlap at intersections */
svg.acjk .bg { fill:#ccc; opacity: 0.5; } 
]]>
</style>
<defs>
    <clipPath id="z21304c1"><path d="M 304 273 C 340 265 401 260 488 249 C 681 222 791 206 815 195 C 816 194 816 193 819 192 C 827 188 829 181 826 173 C 821 161 809 152 790 147 C 762 138 735 139 708 147 C 576 183 441 199 310 215 C 245 222 189 229 139 229 C 128 229 122 232 122 241 C 121 249 128 260 143 271 C 151 277 159 280 165 283 C 183 291 203 292 227 288 C 278 278 278 278 304 273 Z"/></clipPath>
    <clipPath id="z21304c2"><path d="M 227 288 C 229 309 231 346 233 377 C 244 609 232 757 204 821 C 203 822 202 824 201 826 C 188 840 188 840 182 847 C 173 856 176 866 182 878 C 188 890 194 902 207 912 C 219 921 234 924 246 912 C 272 884 359 862 514 852 C 653 842 766 842 853 854 C 888 858 906 852 907 835 C 907 823 894 809 868 794 C 840 777 819 770 805 771 C 779 771 654 782 429 814 C 344 825 299 830 292 821 C 288 816 289 771 290 686 C 291 534 295 412 302 320 C 303 296 302 280 304 273 C 308 247 227 262 227 288 Z"/></clipPath>
</defs>
<g id="bg-layer">
    <path class="bg" d="M 304 273 C 340 265 401 260 488 249 C 681 222 791 206 815 195 C 816 194 816 193 819 192 C 827 188 829 181 826 173 C 821 161 809 152 790 147 C 762 138 735 139 708 147 C 576 183 441 199 310 215 C 245 222 189 229 139 229 C 128 229 122 232 122 241 C 121 249 128 260 143 271 C 151 277 159 280 165 283 C 183 291 203 292 227 288 C 278 278 278 278 304 273 Z"/>
    <path class="bg" d="M 227 288 C 229 309 231 346 233 377 C 244 609 232 757 204 821 C 203 822 202 824 201 826 C 188 840 188 840 182 847 C 173 856 176 866 182 878 C 188 890 194 902 207 912 C 219 921 234 924 246 912 C 272 884 359 862 514 852 C 653 842 766 842 853 854 C 888 858 906 852 907 835 C 907 823 894 809 868 794 C 840 777 819 770 805 771 C 779 771 654 782 429 814 C 344 825 299 830 292 821 C 288 816 289 771 290 686 C 291 534 295 412 302 320 C 303 296 302 280 304 273 C 308 247 227 262 227 288 Z"/>
</g>
<g id="anim-layer">
    <path style="--d:1s; stroke:#FF4444;" pathLength="3333" clip-path="url(#z21304c1)" d="M 128 241 L 224 257 L 823 177"/>
    <path style="--d:2s; stroke:#000;" pathLength="3333" clip-path="url(#z21304c2)" d="M 298 281 L 264 317 L 243 871 L 729 811 L 819 811 L 903 839"/>
</g>
</svg>