<svg id="z21351" class="acjk" viewBox="0 0 1024 1024" xmlns="http://www.w3.org/2000/svg">

<style>
<![CDATA[
@keyframes zk { to { stroke-dashoffset:0; } }
svg.acjk path[clip-path] {
    --t:0.8s;
    animation:zk var(--t) linear forwards var(--d);
    stroke-dasharray:3337;
    stroke-dashoffset:3339;
    stroke-width:128;
    stroke-linecap:round;
    fill:none;
}
/* Low opacity for background improves visual overlap at intersections */
svg.acjk .bg { fill:#ccc; opacity: 0.5; } 
]]>
</style>
<defs>
    <clipPath id="z21351c1"><path d="M 377 233 Q 513 197 515 197 Q 525 188 519 180 Q 512 168 482 161 Q 458 158 364 187 Q 232 212 226 214 C 215 216 225 245 236 247 Q 282 256 315 246 Q 328 242 343 241 C 366 236 366 236 377 233 Z"/></clipPath>
    <clipPath id="z21351c2"><path d="M 385 386 Q 397 299 403 285 Q 410 269 404 259 Q 391 243 377 233 C 368 226 339 230 343 241 Q 349 247 341 400 C 341 415 382 401 385 386 Z"/></clipPath>
    <clipPath id="z21351c3"><path d="M 475 506 Q 496 457 525 437 Q 541 421 528 404 Q 512 391 465 368 Q 449 361 429 368 Q 407 378 385 386 C 356 395 356 395 341 400 Q 283 413 226 422 C 219 423 218 443 225 444 Q 228 444 230 445 Q 252 455 284 443 Q 353 430 417 415 Q 433 411 441 417 Q 448 424 445 439 Q 436 476 425 506 C 419 521 469 521 475 506 Z"/></clipPath>
    <clipPath id="z21351c4"><path d="M 387 556 Q 433 549 492 543 Q 502 542 504 533 Q 504 524 475 506 C 462 496 441 503 425 506 Q 313 536 226 549 Q 220 549 220 551 C 214 553 214 565 219 569 Q 226 576 236 580 Q 246 583 259 579 Q 292 570 344 563 C 373 558 373 558 387 556 Z"/></clipPath>
    <clipPath id="z21351c5"><path d="M 383 725 Q 392 661 399 611 Q 402 572 394 562 Q 390 558 387 556 C 375 547 341 549 344 563 Q 345 570 346 585 Q 346 601 341 732 C 341 746 380 739 383 725 Z"/></clipPath>
    <clipPath id="z21351c6"><path d="M 226 214 Q 214 204 191 192 Q 169 180 161 187 Q 154 194 161 210 Q 179 246 179 311 Q 182 510 161 694 Q 158 733 136 769 Q 126 784 135 804 Q 144 826 154 834 Q 164 841 181 829 Q 263 766 523 753 Q 545 753 546 742 Q 545 727 517 710 Q 502 698 472 707 Q 423 717 383 725 C 355 730 355 730 341 732 Q 290 736 232 752 Q 222 755 217 752 Q 211 751 211 734 Q 215 655 219 569 C 220 557 220 557 220 551 Q 221 499 225 444 C 226 429 226 429 226 422 Q 229 274 236 247 C 238 236 235 221 226 214 Z"/></clipPath>
    <clipPath id="z21351c7"><path d="M 686 411 Q 686 213 704 148 Q 717 121 692 104 Q 676 92 646 75 Q 622 59 601 75 Q 597 79 603 95 Q 639 147 640 210 Q 659 688 618 844 Q 609 887 635 946 Q 642 964 650 967 Q 657 974 664 966 Q 691 942 690 883 Q 687 834 686 441 C 686 421 686 421 686 411 Z"/></clipPath>
    <clipPath id="z21351c8"><path d="M 687 441 Q 775 505 881 598 Q 897 617 914 619 Q 923 620 929 609 Q 939 596 923 553 Q 904 492 686 411 C 677 408 677 436 686 441 C 687 441 687 441 687 441 Z"/></clipPath>
</defs>
<g id="bg-layer">
    <path class="bg" d="M 377 233 Q 513 197 515 197 Q 525 188 519 180 Q 512 168 482 161 Q 458 158 364 187 Q 232 212 226 214 C 215 216 225 245 236 247 Q 282 256 315 246 Q 328 242 343 241 C 366 236 366 236 377 233 Z"/>
    <path class="bg" d="M 385 386 Q 397 299 403 285 Q 410 269 404 259 Q 391 243 377 233 C 368 226 339 230 343 241 Q 349 247 341 400 C 341 415 382 401 385 386 Z"/>
    <path class="bg" d="M 475 506 Q 496 457 525 437 Q 541 421 528 404 Q 512 391 465 368 Q 449 361 429 368 Q 407 378 385 386 C 356 395 356 395 341 400 Q 283 413 226 422 C 219 423 218 443 225 444 Q 228 444 230 445 Q 252 455 284 443 Q 353 430 417 415 Q 433 411 441 417 Q 448 424 445 439 Q 436 476 425 506 C 419 521 469 521 475 506 Z"/>
    <path class="bg" d="M 387 556 Q 433 549 492 543 Q 502 542 504 533 Q 504 524 475 506 C 462 496 441 503 425 506 Q 313 536 226 549 Q 220 549 220 551 C 214 553 214 565 219 569 Q 226 576 236 580 Q 246 583 259 579 Q 292 570 344 563 C 373 558 373 558 387 556 Z"/>
    <path class="bg" d="M 383 725 Q 392 661 399 611 Q 402 572 394 562 Q 390 558 387 556 C 375 547 341 549 344 563 Q 345 570 346 585 Q 346 601 341 732 C 341 746 380 739 383 725 Z"/>
    <path class="bg" d="M 226 214 Q 214 204 191 192 Q 169 180 161 187 Q 154 194 161 210 Q 179 246 179 311 Q 182 510 161 694 Q 158 733 136 769 Q 126 784 135 804 Q 144 826 154 834 Q 164 841 181 829 Q 263 766 523 753 Q 545 753 546 742 Q 545 727 517 710 Q 502 698 472 707 Q 423 717 383 725 C 355 730 355 730 341 732 Q 290 736 232 752 Q 222 755 217 752 Q 211 751 211 734 Q 215 655 219 569 C 220 557 220 557 220 551 Q 221 499 225 444 C 226 429 226 429 226 422 Q 229 274 236 247 C 238 236 235 221 226 214 Z"/>
    <path class="bg" d="M 686 411 Q 686 213 704 148 Q 717 121 692 104 Q 676 92 646 75 Q 622 59 601 75 Q 597 79 603 95 Q 639 147 640 210 Q 659 688 618 844 Q 609 887 635 946 Q 642 964 650 967 Q 657 974 664 966 Q 691 942 690 883 Q 687 834 686 441 C 686 421 686 421 686 411 Z"/>
    <path class="bg" d="M 687 441 Q 775 505 881 598 Q 897 617 914 619 Q 923 620 929 609 Q 939 596 923 553 Q 904 492 686 411 C 677 408 677 436 686 441 C 687 441 687 441 687 441 Z"/>
</g>
<g id="anim-layer">
    <path style="--d:1s; stroke:#FF4444;" pathLength="3333" clip-path="url(#z21351c1)" d="M 235 221 L 514 183"/>
    <path style="--d:2s; stroke:#FF4444;" pathLength="3333" clip-path="url(#z21351c2)" d="M 350 243 L 375 281 L 348 394"/>
    <path style="--d:3s; stroke:#FF4444;" pathLength="3333" clip-path="url(#z21351c3)" d="M 233 438 L 454 393 L 490 426 L 453 497 L 434 498"/>
    <path style="--d:4s; stroke:#FF4444;" pathLength="3333" clip-path="url(#z21351c4)" d="M 223 564 L 498 530"/>
    <path style="--d:5s; stroke:#FF4444;" pathLength="3333" clip-path="url(#z21351c5)" d="M 351 570 L 372 602 L 352 728"/>
    <path style="--d:6s; stroke:#FF4444;" pathLength="3333" clip-path="url(#z21351c6)" d="M 166 189 L 205 251 L 180 787 L 485 729 L 541 741"/>
    <path style="--d:7s; stroke:#000;" pathLength="3333" clip-path="url(#z21351c7)" d="M 606 80 L 671 153 L 651 965"/>
    <path style="--d:8s; stroke:#000;" pathLength="3333" clip-path="url(#z21351c8)" d="M 690 420 L 884 553 L 919 614"/>
</g>
</svg>