<svg id="z21395" class="acjk" viewBox="0 0 1024 1024" xmlns="http://www.w3.org/2000/svg">

<style>
<![CDATA[
@keyframes zk { to { stroke-dashoffset:0; } }
svg.acjk path[clip-path] {
    --t:0.8s;
    animation:zk var(--t) linear forwards var(--d);
    stroke-dasharray:3337;
    stroke-dashoffset:3339;
    stroke-width:128;
    stroke-linecap:round;
    fill:none;
}
/* Low opacity for background improves visual overlap at intersections */
svg.acjk .bg { fill:#ccc; opacity: 0.5; } 
]]>
</style>
<defs>
    <clipPath id="z21395c1"><path d="M 338 185 Q 368 190 404 189 Q 439 187 561 169 Q 772 137 788 126 Q 796 120 794 112 Q 794 111 793 110 Q 784 96 758 87 Q 737 83 683 94 Q 682 94 680 94 Q 478 141 329 148 C 316 148 326 183 338 185 Z"/></clipPath>
    <clipPath id="z21395c2"><path d="M 329 148 Q 323 143 314 138 Q 272 108 252 115 Q 246 118 244 122 Q 241 126 249 141 Q 268 183 265 233 Q 241 500 202 605 Q 156 726 67 859 Q 60 874 60 878 Q 61 884 69 882 Q 96 878 184 755 Q 296 571 319 302 Q 329 206 337 187 Q 337 186 338 185 C 343 173 339 156 329 148 Z"/></clipPath>
    <clipPath id="z21395c3"><path d="M 564 400 Q 719 373 727 367 Q 736 361 734 354 Q 725 336 694 332 Q 664 328 645 336 C 594 349 594 349 568 356 C 533 363 533 363 516 366 Q 499 369 482 371 C 421 377 421 377 390 380 Q 370 383 370 388 Q 370 392 380 400 Q 410 418 457 415 C 496 410 496 410 516 408 C 548 403 548 403 564 400 Z"/></clipPath>
    <clipPath id="z21395c4"><path d="M 555 489 Q 559 414 564 400 C 567 371 567 371 568 356 Q 568 318 587 253 Q 589 245 582 238 C 575 233 575 233 572 230 Q 564 220 541 212 Q 508 202 496 206 Q 488 214 488 213 Q 484 218 491 234 Q 512 261 512 281 Q 519 333 516 366 C 516 394 516 394 516 408 C 515 467 515 467 515 496 C 515 510 555 503 555 489 Z"/></clipPath>
    <clipPath id="z21395c5"><path d="M 515 496 Q 328 527 316 528 Q 294 532 310 548 Q 337 573 370 569 Q 381 568 426 559 Q 631 517 788 517 Q 808 517 812 508 Q 815 501 809 492 Q 805 483 783 471 Q 739 444 710 451 Q 629 465 555 489 C 528 494 528 494 515 496 Z"/></clipPath>
    <clipPath id="z21395c6"><path d="M 357 696 Q 357 700 366 707 Q 394 726 453 720 C 491 715 491 715 510 713 C 546 707 546 707 564 704 C 568 703 568 703 570 702 Q 713 683 727 670 Q 736 665 734 657 Q 727 643 700 635 Q 686 632 675 633 Q 657 634 568 661 C 529 668 529 668 510 672 Q 490 675 470 677 C 409 683 409 683 378 686 Q 357 688 357 696 Z"/></clipPath>
    <clipPath id="z21395c7"><path d="M 557 822 Q 559 737 564 704 C 567 675 567 675 568 661 Q 568 639 570 624 Q 574 608 572 604 Q 570 596 555 582 Q 525 555 508 559 Q 505 559 502 561 Q 492 563 495 573 C 496 576 496 576 496 577 Q 509 612 510 672 C 510 699 510 699 510 713 C 510 788 510 788 510 826 C 510 842 557 838 557 822 Z"/></clipPath>
    <clipPath id="z21395c8"><path d="M 269 849 Q 267 849 266 850 Q 253 851 255 861 Q 257 867 266 876 Q 294 904 331 898 Q 333 898 339 898 Q 549 850 866 869 C 869 869 869 869 870 869 Q 886 869 892 867 Q 894 865 896 864 Q 906 855 896 841 Q 886 829 870 820 Q 827 790 775 794 Q 774 794 762 796 Q 674 809 557 822 C 526 825 526 825 510 826 C 349 841 349 841 269 849 Z"/></clipPath>
</defs>
<g id="bg-layer">
    <path class="bg" d="M 338 185 Q 368 190 404 189 Q 439 187 561 169 Q 772 137 788 126 Q 796 120 794 112 Q 794 111 793 110 Q 784 96 758 87 Q 737 83 683 94 Q 682 94 680 94 Q 478 141 329 148 C 316 148 326 183 338 185 Z"/>
    <path class="bg" d="M 329 148 Q 323 143 314 138 Q 272 108 252 115 Q 246 118 244 122 Q 241 126 249 141 Q 268 183 265 233 Q 241 500 202 605 Q 156 726 67 859 Q 60 874 60 878 Q 61 884 69 882 Q 96 878 184 755 Q 296 571 319 302 Q 329 206 337 187 Q 337 186 338 185 C 343 173 339 156 329 148 Z"/>
    <path class="bg" d="M 564 400 Q 719 373 727 367 Q 736 361 734 354 Q 725 336 694 332 Q 664 328 645 336 C 594 349 594 349 568 356 C 533 363 533 363 516 366 Q 499 369 482 371 C 421 377 421 377 390 380 Q 370 383 370 388 Q 370 392 380 400 Q 410 418 457 415 C 496 410 496 410 516 408 C 548 403 548 403 564 400 Z"/>
    <path class="bg" d="M 555 489 Q 559 414 564 400 C 567 371 567 371 568 356 Q 568 318 587 253 Q 589 245 582 238 C 575 233 575 233 572 230 Q 564 220 541 212 Q 508 202 496 206 Q 488 214 488 213 Q 484 218 491 234 Q 512 261 512 281 Q 519 333 516 366 C 516 394 516 394 516 408 C 515 467 515 467 515 496 C 515 510 555 503 555 489 Z"/>
    <path class="bg" d="M 515 496 Q 328 527 316 528 Q 294 532 310 548 Q 337 573 370 569 Q 381 568 426 559 Q 631 517 788 517 Q 808 517 812 508 Q 815 501 809 492 Q 805 483 783 471 Q 739 444 710 451 Q 629 465 555 489 C 528 494 528 494 515 496 Z"/>
    <path class="bg" d="M 357 696 Q 357 700 366 707 Q 394 726 453 720 C 491 715 491 715 510 713 C 546 707 546 707 564 704 C 568 703 568 703 570 702 Q 713 683 727 670 Q 736 665 734 657 Q 727 643 700 635 Q 686 632 675 633 Q 657 634 568 661 C 529 668 529 668 510 672 Q 490 675 470 677 C 409 683 409 683 378 686 Q 357 688 357 696 Z"/>
    <path class="bg" d="M 557 822 Q 559 737 564 704 C 567 675 567 675 568 661 Q 568 639 570 624 Q 574 608 572 604 Q 570 596 555 582 Q 525 555 508 559 Q 505 559 502 561 Q 492 563 495 573 C 496 576 496 576 496 577 Q 509 612 510 672 C 510 699 510 699 510 713 C 510 788 510 788 510 826 C 510 842 557 838 557 822 Z"/>
    <path class="bg" d="M 269 849 Q 267 849 266 850 Q 253 851 255 861 Q 257 867 266 876 Q 294 904 331 898 Q 333 898 339 898 Q 549 850 866 869 C 869 869 869 869 870 869 Q 886 869 892 867 Q 894 865 896 864 Q 906 855 896 841 Q 886 829 870 820 Q 827 790 775 794 Q 774 794 762 796 Q 674 809 557 822 C 526 825 526 825 510 826 C 349 841 349 841 269 849 Z"/>
</g>
<g id="anim-layer">
    <path style="--d:1s; stroke:#FF4444;" pathLength="3333" clip-path="url(#z21395c1)" d="M 328 158 L 423 164 L 788 110"/>
    <path style="--d:2s; stroke:#FF4444;" pathLength="3333" clip-path="url(#z21395c2)" d="M 249 121 L 301 178 L 250 535 L 180 715 L 69 875"/>
    <path style="--d:3s; stroke:#000;" pathLength="3333" clip-path="url(#z21395c3)" d="M 378 389 L 730 353"/>
    <path style="--d:4s; stroke:#000;" pathLength="3333" clip-path="url(#z21395c4)" d="M 490 217 L 549 258 L 528 501"/>
    <path style="--d:5s; stroke:#000;" pathLength="3333" clip-path="url(#z21395c5)" d="M 309 535 L 372 544 L 720 484 L 808 498"/>
    <path style="--d:6s; stroke:#000;" pathLength="3333" clip-path="url(#z21395c6)" d="M 369 697 L 728 657"/>
    <path style="--d:7s; stroke:#000;" pathLength="3333" clip-path="url(#z21395c7)" d="M 501 565 L 539 611 L 532 834"/>
    <path style="--d:8s; stroke:#000;" pathLength="3333" clip-path="url(#z21395c8)" d="M 260 856 L 318 871 L 779 829 L 896 846"/>
</g>
</svg>