<svg id="z21467" class="acjk" viewBox="0 0 1024 1024" xmlns="http://www.w3.org/2000/svg">

<style>
<![CDATA[
@keyframes zk { to { stroke-dashoffset:0; } }
svg.acjk path[clip-path] {
    --t:0.8s;
    animation:zk var(--t) linear forwards var(--d);
    stroke-dasharray:3337;
    stroke-dashoffset:3339;
    stroke-width:128;
    stroke-linecap:round;
    fill:none;
}
/* Low opacity for background improves visual overlap at intersections */
svg.acjk .bg { fill:#ccc; opacity: 0.5; } 
]]>
</style>
<defs>
    <clipPath id="z21467c1"><path d="M 160 302 C 172 316 183 334 196 353 C 202 362 210 367 221 369 C 226 369 232 366 237 359 C 241 350 242 336 241 318 C 240 307 233 294 216 284 C 175 260 149 250 144 253 C 140 254 138 259 138 268 C 137 274 146 285 160 302 Z"/></clipPath>
    <clipPath id="z21467c2"><path d="M 430 230 C 422 246 408 272 389 308 C 383 317 387 322 396 318 C 418 305 443 286 469 263 C 495 238 518 225 508 213 C 500 203 487 197 472 191 C 457 185 447 183 441 185 C 434 187 432 191 435 199 C 438 208 435 218 430 230 Z"/></clipPath>
    <clipPath id="z21467c3"><path d="M 340 451 C 410 432 446 420 448 418 C 452 413 454 408 451 403 C 446 396 435 390 417 387 C 399 383 375 392 343 403 C 314 412 314 412 299 417 C 253 431 202 443 162 450 C 139 453 137 462 154 471 C 208 486 248 475 295 463 C 325 455 325 455 340 451 Z"/></clipPath>
    <clipPath id="z21467c4"><path d="M 330 580 C 364 569 401 559 442 551 C 452 548 458 544 459 540 C 459 531 453 524 440 519 C 421 512 403 511 388 516 C 369 521 351 528 335 533 C 303 542 303 542 287 547 C 196 573 122 592 66 603 C 57 604 52 608 51 614 C 49 622 53 629 65 636 C 96 652 124 654 149 644 C 199 621 243 605 280 595 C 313 585 313 585 330 580 Z"/></clipPath>
    <clipPath id="z21467c5"><path d="M 280 595 C 261 721 197 815 111 889 C 97 900 89 908 113 904 C 250 879 318 686 330 580 C 333 549 333 549 335 533 C 337 504 338 477 340 451 C 342 419 342 419 343 403 C 351 266 359 181 375 149 C 379 139 379 129 373 123 C 359 109 338 100 312 93 C 295 88 284 88 279 93 C 273 97 272 104 277 112 C 291 136 300 164 302 195 C 305 271 305 344 299 417 C 296 448 296 448 295 463 C 292 492 290 520 287 547 C 282 579 282 579 280 595 Z"/></clipPath>
    <clipPath id="z21467c6"><path d="M 584 332 C 718 264 741 247 790 231 C 806 225 812 217 806 204 C 799 189 787 176 771 164 C 756 152 744 147 734 147 C 725 147 725 151 723 161 C 709 220 630 265 576 311 C 571 316 577 335 584 332 Z"/></clipPath>
    <clipPath id="z21467c7"><path d="M 564 485 C 565 453 572 360 584 332 C 587 325 583 314 576 311 C 554 301 520 284 500 293 C 490 296 489 304 496 313 C 523 351 532 435 506 563 C 478 695 412 774 344 831 C 294 871 309 878 363 850 C 467 793 530 685 551 585 C 554 569 554 569 556 561 C 559 545 562 529 563 513 C 564 494 564 494 564 485 Z"/></clipPath>
    <clipPath id="z21467c8"><path d="M 660 726 C 620 787 565 821 471 860 C 445 870 481 883 519 875 C 592 859 652 824 692 768 C 712 739 712 739 722 725 C 736 704 765 639 803 523 C 809 502 818 486 831 474 C 842 461 844 451 835 444 C 826 437 811 430 789 424 C 772 419 756 425 739 434 C 681 461 619 475 564 485 C 555 487 554 513 563 513 C 583 515 606 513 631 505 C 681 486 711 476 722 476 C 738 476 746 486 743 505 C 727 593 706 653 685 687 C 668 713 668 713 660 726 Z"/></clipPath>
    <clipPath id="z21467c9"><path d="M 551 585 Q 576 603 594 631 Q 628 680 660 726 C 681 754 681 754 692 768 Q 734 825 774 874 Q 789 893 814 894 Q 949 891 962 878 Q 966 871 956 868 Q 808 805 733 736 Q 727 730 722 725 C 697 700 697 700 685 687 Q 642 641 593 580 Q 583 564 566 561 Q 560 560 556 561 C 548 561 544 580 551 585 Z"/></clipPath>
</defs>
<g id="bg-layer">
    <path class="bg" d="M 160 302 C 172 316 183 334 196 353 C 202 362 210 367 221 369 C 226 369 232 366 237 359 C 241 350 242 336 241 318 C 240 307 233 294 216 284 C 175 260 149 250 144 253 C 140 254 138 259 138 268 C 137 274 146 285 160 302 Z"/>
    <path class="bg" d="M 430 230 C 422 246 408 272 389 308 C 383 317 387 322 396 318 C 418 305 443 286 469 263 C 495 238 518 225 508 213 C 500 203 487 197 472 191 C 457 185 447 183 441 185 C 434 187 432 191 435 199 C 438 208 435 218 430 230 Z"/>
    <path class="bg" d="M 340 451 C 410 432 446 420 448 418 C 452 413 454 408 451 403 C 446 396 435 390 417 387 C 399 383 375 392 343 403 C 314 412 314 412 299 417 C 253 431 202 443 162 450 C 139 453 137 462 154 471 C 208 486 248 475 295 463 C 325 455 325 455 340 451 Z"/>
    <path class="bg" d="M 330 580 C 364 569 401 559 442 551 C 452 548 458 544 459 540 C 459 531 453 524 440 519 C 421 512 403 511 388 516 C 369 521 351 528 335 533 C 303 542 303 542 287 547 C 196 573 122 592 66 603 C 57 604 52 608 51 614 C 49 622 53 629 65 636 C 96 652 124 654 149 644 C 199 621 243 605 280 595 C 313 585 313 585 330 580 Z"/>
    <path class="bg" d="M 280 595 C 261 721 197 815 111 889 C 97 900 89 908 113 904 C 250 879 318 686 330 580 C 333 549 333 549 335 533 C 337 504 338 477 340 451 C 342 419 342 419 343 403 C 351 266 359 181 375 149 C 379 139 379 129 373 123 C 359 109 338 100 312 93 C 295 88 284 88 279 93 C 273 97 272 104 277 112 C 291 136 300 164 302 195 C 305 271 305 344 299 417 C 296 448 296 448 295 463 C 292 492 290 520 287 547 C 282 579 282 579 280 595 Z"/>
    <path class="bg" d="M 584 332 C 718 264 741 247 790 231 C 806 225 812 217 806 204 C 799 189 787 176 771 164 C 756 152 744 147 734 147 C 725 147 725 151 723 161 C 709 220 630 265 576 311 C 571 316 577 335 584 332 Z"/>
    <path class="bg" d="M 564 485 C 565 453 572 360 584 332 C 587 325 583 314 576 311 C 554 301 520 284 500 293 C 490 296 489 304 496 313 C 523 351 532 435 506 563 C 478 695 412 774 344 831 C 294 871 309 878 363 850 C 467 793 530 685 551 585 C 554 569 554 569 556 561 C 559 545 562 529 563 513 C 564 494 564 494 564 485 Z"/>
    <path class="bg" d="M 660 726 C 620 787 565 821 471 860 C 445 870 481 883 519 875 C 592 859 652 824 692 768 C 712 739 712 739 722 725 C 736 704 765 639 803 523 C 809 502 818 486 831 474 C 842 461 844 451 835 444 C 826 437 811 430 789 424 C 772 419 756 425 739 434 C 681 461 619 475 564 485 C 555 487 554 513 563 513 C 583 515 606 513 631 505 C 681 486 711 476 722 476 C 738 476 746 486 743 505 C 727 593 706 653 685 687 C 668 713 668 713 660 726 Z"/>
    <path class="bg" d="M 551 585 Q 576 603 594 631 Q 628 680 660 726 C 681 754 681 754 692 768 Q 734 825 774 874 Q 789 893 814 894 Q 949 891 962 878 Q 966 871 956 868 Q 808 805 733 736 Q 727 730 722 725 C 697 700 697 700 685 687 Q 642 641 593 580 Q 583 564 566 561 Q 560 560 556 561 C 548 561 544 580 551 585 Z"/>
</g>
<g id="anim-layer">
    <path style="--d:1s; stroke:#FF4444;" pathLength="3333" clip-path="url(#z21467c1)" d="M 145 258 L 211 320 L 220 364"/>
    <path style="--d:2s; stroke:#FF4444;" pathLength="3333" clip-path="url(#z21467c2)" d="M 444 195 L 467 231 L 393 310"/>
    <path style="--d:3s; stroke:#FF4444;" pathLength="3333" clip-path="url(#z21467c3)" d="M 151 460 L 447 409"/>
    <path style="--d:4s; stroke:#FF4444;" pathLength="3333" clip-path="url(#z21467c4)" d="M 58 615 L 115 622 L 454 536"/>
    <path style="--d:5s; stroke:#FF4444;" pathLength="3333" clip-path="url(#z21467c5)" d="M 280 99 L 337 156 L 295 640 L 229 792 L 104 899"/>
    <path style="--d:6s; stroke:#000;" pathLength="3333" clip-path="url(#z21467c6)" d="M 733 151 L 757 206 L 580 324"/>
    <path style="--d:7s; stroke:#000;" pathLength="3333" clip-path="url(#z21467c7)" d="M 500 302 L 549 339 L 516 621 L 442 759 L 322 861"/>
    <path style="--d:8s; stroke:#000;" pathLength="3333" clip-path="url(#z21467c8)" d="M 560 502 L 742 455 L 792 478 L 725 663 L 658 771 L 565 839 L 469 865"/>
    <path style="--d:9s; stroke:#000;" pathLength="3333" clip-path="url(#z21467c9)" d="M 556 568 L 801 840 L 956 873"/>
</g>
</svg>