<svg id="z21486" class="acjk" viewBox="0 0 1024 1024" xmlns="http://www.w3.org/2000/svg">

<style>
<![CDATA[
@keyframes zk { to { stroke-dashoffset:0; } }
svg.acjk path[clip-path] {
    --t:0.8s;
    animation:zk var(--t) linear forwards var(--d);
    stroke-dasharray:3337;
    stroke-dashoffset:3339;
    stroke-width:128;
    stroke-linecap:round;
    fill:none;
}
/* Low opacity for background improves visual overlap at intersections */
svg.acjk .bg { fill:#ccc; opacity: 0.5; } 
]]>
</style>
<defs>
    <clipPath id="z21486c1"><path d="M 129 297 Q 117 291 92 287 Q 79 283 75 288 Q 68 295 77 312 Q 108 387 125 507 Q 128 543 147 568 Q 166 590 171 575 Q 180 553 175 512 C 172 489 172 489 170 478 Q 151 357 148 326 C 146 315 140 301 129 297 Z"/></clipPath>
    <clipPath id="z21486c2"><path d="M 324 458 Q 343 355 372 322 Q 397 292 370 277 Q 348 264 316 245 Q 294 233 255 258 Q 201 280 129 297 C 118 299 137 328 148 326 Q 158 325 171 322 Q 214 312 251 304 Q 276 298 282 308 Q 292 315 284 358 Q 277 404 266 456 C 262 475 320 477 324 458 Z"/></clipPath>
    <clipPath id="z21486c3"><path d="M 175 512 Q 182 513 191 511 Q 237 501 337 491 Q 347 490 348 481 Q 348 474 324 458 C 307 448 285 452 266 456 Q 212 469 170 478 C 159 480 164 512 175 512 Z"/></clipPath>
    <clipPath id="z21486c4"><path d="M 682 270 Q 776 255 935 255 Q 956 254 960 245 Q 966 233 948 219 Q 894 182 854 190 Q 721 223 420 269 Q 398 272 415 289 Q 451 319 496 305 Q 554 287 623 278 C 662 273 662 273 682 270 Z"/></clipPath>
    <clipPath id="z21486c5"><path d="M 587 817 Q 562 810 530 804 Q 517 800 517 808 Q 517 817 529 827 Q 599 882 646 928 Q 659 938 674 920 Q 719 860 712 774 Q 696 521 707 331 Q 714 301 707 290 Q 700 281 682 270 C 666 258 611 263 623 278 Q 638 293 639 356 Q 643 480 643 767 Q 642 804 631 818 Q 618 827 587 817 Z"/></clipPath>
</defs>
<g id="bg-layer">
    <path class="bg" d="M 129 297 Q 117 291 92 287 Q 79 283 75 288 Q 68 295 77 312 Q 108 387 125 507 Q 128 543 147 568 Q 166 590 171 575 Q 180 553 175 512 C 172 489 172 489 170 478 Q 151 357 148 326 C 146 315 140 301 129 297 Z"/>
    <path class="bg" d="M 324 458 Q 343 355 372 322 Q 397 292 370 277 Q 348 264 316 245 Q 294 233 255 258 Q 201 280 129 297 C 118 299 137 328 148 326 Q 158 325 171 322 Q 214 312 251 304 Q 276 298 282 308 Q 292 315 284 358 Q 277 404 266 456 C 262 475 320 477 324 458 Z"/>
    <path class="bg" d="M 175 512 Q 182 513 191 511 Q 237 501 337 491 Q 347 490 348 481 Q 348 474 324 458 C 307 448 285 452 266 456 Q 212 469 170 478 C 159 480 164 512 175 512 Z"/>
    <path class="bg" d="M 682 270 Q 776 255 935 255 Q 956 254 960 245 Q 966 233 948 219 Q 894 182 854 190 Q 721 223 420 269 Q 398 272 415 289 Q 451 319 496 305 Q 554 287 623 278 C 662 273 662 273 682 270 Z"/>
    <path class="bg" d="M 587 817 Q 562 810 530 804 Q 517 800 517 808 Q 517 817 529 827 Q 599 882 646 928 Q 659 938 674 920 Q 719 860 712 774 Q 696 521 707 331 Q 714 301 707 290 Q 700 281 682 270 C 666 258 611 263 623 278 Q 638 293 639 356 Q 643 480 643 767 Q 642 804 631 818 Q 618 827 587 817 Z"/>
</g>
<g id="anim-layer">
    <path style="--d:1s; stroke:#FF4444;" pathLength="3333" clip-path="url(#z21486c1)" d="M 79 291 L 120 342 L 160 575"/>
    <path style="--d:2s; stroke:#FF4444;" pathLength="3333" clip-path="url(#z21486c2)" d="M 137 299 L 284 273 L 320 289 L 335 312 L 284 456"/>
    <path style="--d:3s; stroke:#FF4444;" pathLength="3333" clip-path="url(#z21486c3)" d="M 176 482 L 342 479"/>
    <path style="--d:4s; stroke:#000;" pathLength="3333" clip-path="url(#z21486c4)" d="M 420 280 L 853 223 L 955 237"/>
    <path style="--d:5s; stroke:#000;" pathLength="3333" clip-path="url(#z21486c5)" d="M 632 282 L 673 310 L 674 818 L 637 881 L 521 811"/>
</g>
</svg>