<svg id="z21623" class="acjk" viewBox="0 0 1024 1024" xmlns="http://www.w3.org/2000/svg">

<style>
<![CDATA[
@keyframes zk { to { stroke-dashoffset:0; } }
svg.acjk path[clip-path] {
    --t:0.8s;
    animation:zk var(--t) linear forwards var(--d);
    stroke-dasharray:3337;
    stroke-dashoffset:3339;
    stroke-width:128;
    stroke-linecap:round;
    fill:none;
}
/* Low opacity for background improves visual overlap at intersections */
svg.acjk .bg { fill:#ccc; opacity: 0.5; } 
]]>
</style>
<defs>
    <clipPath id="z21623c1"><path d="M 151 297 C 143 293 131 290 117 286 C 99 281 94 289 102 309 C 121 357 132 420 138 497 C 139 519 145 538 157 555 C 168 570 174 573 179 563 C 184 548 187 528 185 502 C 182 478 182 478 181 466 C 172 391 169 344 169 325 C 169 314 161 301 151 297 Z"/></clipPath>
    <clipPath id="z21623c2"><path d="M 322 444 C 332 381 347 340 364 321 C 379 303 378 288 362 280 C 348 272 332 262 313 251 C 301 244 280 252 247 268 C 215 282 182 289 151 297 C 140 299 159 329 169 325 C 173 323 201 315 254 305 C 268 301 277 304 282 309 C 286 313 282 355 270 435 C 267 452 319 461 322 444 Z"/></clipPath>
    <clipPath id="z21623c3"><path d="M 185 502 C 203 498 228 490 330 474 C 331 473 361 465 322 444 C 307 435 287 432 270 435 C 253 439 236 449 181 466 C 170 470 173 504 185 502 Z"/></clipPath>
    <clipPath id="z21623c4"><path d="M 444 191 C 435 186 420 183 399 178 C 381 173 372 180 383 205 C 410 268 430 351 440 453 C 442 483 449 509 467 531 C 479 547 488 550 492 538 C 494 529 498 519 498 509 C 497 490 497 490 497 481 C 496 466 494 452 492 437 C 473 329 462 259 459 227 C 456 214 456 196 444 191 Z"/></clipPath>
    <clipPath id="z21623c5"><path d="M 755 475 C 765 511 784 547 812 508 C 824 483 838 404 859 274 C 862 250 875 229 893 211 C 901 201 902 191 894 182 C 882 169 860 154 829 137 C 814 129 801 132 789 135 C 675 159 559 173 444 191 C 431 194 446 230 459 227 C 491 219 529 211 573 205 C 608 200 608 200 625 197 C 671 189 708 186 735 185 C 770 181 808 192 803 235 C 788 355 774 425 765 446 C 761 455 753 465 755 475 Z"/></clipPath>
    <clipPath id="z21623c6"><path d="M 652 344 C 680 338 707 335 733 331 C 769 325 745 298 709 292 C 694 289 676 291 654 298 C 620 308 620 308 603 313 C 573 321 545 330 520 337 C 507 340 507 347 524 358 C 542 369 581 356 603 353 C 636 347 636 347 652 344 Z"/></clipPath>
    <clipPath id="z21623c7"><path d="M 498 509 C 524 509 526 506 600 496 C 633 491 633 491 649 489 C 679 484 725 478 755 475 C 765 473 774 451 765 446 C 746 432 740 436 650 453 C 617 459 617 459 601 462 C 564 468 529 474 497 481 C 488 483 489 509 498 509 Z"/></clipPath>
    <clipPath id="z21623c8"><path d="M 600 496 C 594 684 595 811 597 876 C 602 990 636 943 642 875 C 652 746 648 517 649 489 C 650 465 650 465 650 453 C 650 420 650 383 652 344 C 653 313 653 313 654 298 C 657 218 683 233 625 197 C 610 188 566 189 573 205 C 591 244 603 270 603 313 C 603 340 603 340 603 353 C 603 385 602 422 601 462 C 600 485 600 485 600 496 Z"/></clipPath>
</defs>
<g id="bg-layer">
    <path class="bg" d="M 151 297 C 143 293 131 290 117 286 C 99 281 94 289 102 309 C 121 357 132 420 138 497 C 139 519 145 538 157 555 C 168 570 174 573 179 563 C 184 548 187 528 185 502 C 182 478 182 478 181 466 C 172 391 169 344 169 325 C 169 314 161 301 151 297 Z"/>
    <path class="bg" d="M 322 444 C 332 381 347 340 364 321 C 379 303 378 288 362 280 C 348 272 332 262 313 251 C 301 244 280 252 247 268 C 215 282 182 289 151 297 C 140 299 159 329 169 325 C 173 323 201 315 254 305 C 268 301 277 304 282 309 C 286 313 282 355 270 435 C 267 452 319 461 322 444 Z"/>
    <path class="bg" d="M 185 502 C 203 498 228 490 330 474 C 331 473 361 465 322 444 C 307 435 287 432 270 435 C 253 439 236 449 181 466 C 170 470 173 504 185 502 Z"/>
    <path class="bg" d="M 444 191 C 435 186 420 183 399 178 C 381 173 372 180 383 205 C 410 268 430 351 440 453 C 442 483 449 509 467 531 C 479 547 488 550 492 538 C 494 529 498 519 498 509 C 497 490 497 490 497 481 C 496 466 494 452 492 437 C 473 329 462 259 459 227 C 456 214 456 196 444 191 Z"/>
    <path class="bg" d="M 755 475 C 765 511 784 547 812 508 C 824 483 838 404 859 274 C 862 250 875 229 893 211 C 901 201 902 191 894 182 C 882 169 860 154 829 137 C 814 129 801 132 789 135 C 675 159 559 173 444 191 C 431 194 446 230 459 227 C 491 219 529 211 573 205 C 608 200 608 200 625 197 C 671 189 708 186 735 185 C 770 181 808 192 803 235 C 788 355 774 425 765 446 C 761 455 753 465 755 475 Z"/>
    <path class="bg" d="M 652 344 C 680 338 707 335 733 331 C 769 325 745 298 709 292 C 694 289 676 291 654 298 C 620 308 620 308 603 313 C 573 321 545 330 520 337 C 507 340 507 347 524 358 C 542 369 581 356 603 353 C 636 347 636 347 652 344 Z"/>
    <path class="bg" d="M 498 509 C 524 509 526 506 600 496 C 633 491 633 491 649 489 C 679 484 725 478 755 475 C 765 473 774 451 765 446 C 746 432 740 436 650 453 C 617 459 617 459 601 462 C 564 468 529 474 497 481 C 488 483 489 509 498 509 Z"/>
    <path class="bg" d="M 600 496 C 594 684 595 811 597 876 C 602 990 636 943 642 875 C 652 746 648 517 649 489 C 650 465 650 465 650 453 C 650 420 650 383 652 344 C 653 313 653 313 654 298 C 657 218 683 233 625 197 C 610 188 566 189 573 205 C 591 244 603 270 603 313 C 603 340 603 340 603 353 C 603 385 602 422 601 462 C 600 485 600 485 600 496 Z"/>
</g>
<g id="anim-layer">
    <path style="--d:1s; stroke:#FF4444;" pathLength="3333" clip-path="url(#z21623c1)" d="M 106 291 L 140 329 L 170 564"/>
    <path style="--d:2s; stroke:#FF4444;" pathLength="3333" clip-path="url(#z21623c2)" d="M 154 304 L 291 277 L 324 298 L 304 450"/>
    <path style="--d:3s; stroke:#FF4444;" pathLength="3333" clip-path="url(#z21623c3)" d="M 177 489 L 335 457"/>
    <path style="--d:4s; stroke:#000;" pathLength="3333" clip-path="url(#z21623c4)" d="M 385 185 L 425 222 L 482 541"/>
    <path style="--d:5s; stroke:#000;" pathLength="3333" clip-path="url(#z21623c5)" d="M 443 201 L 765 162 L 834 184 L 851 206 L 782 519"/>
    <path style="--d:6s; stroke:#000;" pathLength="3333" clip-path="url(#z21623c6)" d="M 517 343 L 745 314"/>
    <path style="--d:7s; stroke:#000;" pathLength="3333" clip-path="url(#z21623c7)" d="M 495 499 L 763 451"/>
    <path style="--d:8s; stroke:#000;" pathLength="3333" clip-path="url(#z21623c8)" d="M 580 201 L 628 247 L 617 940"/>
</g>
</svg>