<svg id="z21648" class="acjk" viewBox="0 0 1024 1024" xmlns="http://www.w3.org/2000/svg">

<style>
<![CDATA[
@keyframes zk { to { stroke-dashoffset:0; } }
svg.acjk path[clip-path] {
    --t:0.8s;
    animation:zk var(--t) linear forwards var(--d);
    stroke-dasharray:3337;
    stroke-dashoffset:3339;
    stroke-width:128;
    stroke-linecap:round;
    fill:none;
}
/* Low opacity for background improves visual overlap at intersections */
svg.acjk .bg { fill:#ccc; opacity: 0.5; } 
]]>
</style>
<defs>
    <clipPath id="z21648c1"><path d="M 93 345 Q 83 341 69 339 Q 56 335 53 340 Q 46 346 54 362 Q 81 425 94 525 Q 95 555 112 576 Q 128 598 135 583 Q 142 567 139 534 C 137 513 137 513 136 503 Q 123 395 122 373 Q 122 370 121 368 C 119 356 104 349 93 345 Z"/></clipPath>
    <clipPath id="z21648c2"><path d="M 262 479 Q 277 392 300 365 Q 321 340 299 327 Q 280 317 254 301 Q 238 292 193 317 Q 130 338 93 345 C 81 347 109 370 121 368 Q 125 367 129 366 Q 166 357 199 350 Q 221 346 226 354 Q 233 360 228 395 Q 221 434 214 480 C 211 496 259 495 262 479 Z"/></clipPath>
    <clipPath id="z21648c3"><path d="M 139 534 Q 145 527 275 507 Q 285 506 285 498 Q 285 491 262 479 C 248 471 230 477 214 480 Q 171 492 136 503 C 126 507 130 539 139 534 Z"/></clipPath>
    <clipPath id="z21648c4"><path d="M 394 461 Q 443 382 495 278 Q 520 217 547 186 Q 557 173 549 158 Q 543 145 509 122 Q 476 104 455 106 Q 434 110 446 134 Q 467 171 455 204 Q 398 391 224 641 Q 214 654 212 660 Q 209 673 225 669 Q 268 654 370 498 Q 370 497 371 496 C 386 473 386 473 394 461 Z"/></clipPath>
    <clipPath id="z21648c5"><path d="M 371 496 Q 389 553 390 596 Q 390 702 366 801 Q 356 846 390 897 Q 391 897 393 900 Q 411 916 423 889 Q 438 849 437 802 Q 438 594 445 548 Q 452 521 443 510 Q 401 465 394 461 C 383 453 368 482 371 496 Z"/></clipPath>
    <clipPath id="z21648c6"><path d="M 786 408 Q 846 402 918 402 Q 937 401 941 393 Q 945 381 929 369 Q 878 333 815 352 Q 800 355 786 360 C 750 367 750 367 732 371 Q 626 392 495 415 Q 476 418 490 433 Q 503 445 521 449 Q 540 453 555 449 Q 649 419 732 414 C 768 410 768 410 786 408 Z"/></clipPath>
    <clipPath id="z21648c7"><path d="M 732 414 Q 731 547 731 764 Q 730 786 718 795 Q 712 801 640 792 Q 604 780 607 792 Q 608 799 631 814 Q 698 865 716 894 Q 737 928 753 928 Q 769 929 783 891 Q 802 842 798 763 Q 785 586 786 408 C 786 376 786 376 786 360 Q 786 237 806 163 Q 824 130 764 106 Q 727 87 707 94 Q 688 101 705 126 Q 729 154 730 192 Q 731 210 732 371 C 732 400 732 400 732 414 Z"/></clipPath>
    <clipPath id="z21648c8"><path d="M 530 558 Q 561 609 597 634 Q 612 638 623 627 Q 630 614 631 597 Q 624 554 548 521 Q 532 514 522 516 Q 516 517 517 529 Q 517 542 530 558 Z"/></clipPath>
</defs>
<g id="bg-layer">
    <path class="bg" d="M 93 345 Q 83 341 69 339 Q 56 335 53 340 Q 46 346 54 362 Q 81 425 94 525 Q 95 555 112 576 Q 128 598 135 583 Q 142 567 139 534 C 137 513 137 513 136 503 Q 123 395 122 373 Q 122 370 121 368 C 119 356 104 349 93 345 Z"/>
    <path class="bg" d="M 262 479 Q 277 392 300 365 Q 321 340 299 327 Q 280 317 254 301 Q 238 292 193 317 Q 130 338 93 345 C 81 347 109 370 121 368 Q 125 367 129 366 Q 166 357 199 350 Q 221 346 226 354 Q 233 360 228 395 Q 221 434 214 480 C 211 496 259 495 262 479 Z"/>
    <path class="bg" d="M 139 534 Q 145 527 275 507 Q 285 506 285 498 Q 285 491 262 479 C 248 471 230 477 214 480 Q 171 492 136 503 C 126 507 130 539 139 534 Z"/>
    <path class="bg" d="M 394 461 Q 443 382 495 278 Q 520 217 547 186 Q 557 173 549 158 Q 543 145 509 122 Q 476 104 455 106 Q 434 110 446 134 Q 467 171 455 204 Q 398 391 224 641 Q 214 654 212 660 Q 209 673 225 669 Q 268 654 370 498 Q 370 497 371 496 C 386 473 386 473 394 461 Z"/>
    <path class="bg" d="M 371 496 Q 389 553 390 596 Q 390 702 366 801 Q 356 846 390 897 Q 391 897 393 900 Q 411 916 423 889 Q 438 849 437 802 Q 438 594 445 548 Q 452 521 443 510 Q 401 465 394 461 C 383 453 368 482 371 496 Z"/>
    <path class="bg" d="M 786 408 Q 846 402 918 402 Q 937 401 941 393 Q 945 381 929 369 Q 878 333 815 352 Q 800 355 786 360 C 750 367 750 367 732 371 Q 626 392 495 415 Q 476 418 490 433 Q 503 445 521 449 Q 540 453 555 449 Q 649 419 732 414 C 768 410 768 410 786 408 Z"/>
    <path class="bg" d="M 732 414 Q 731 547 731 764 Q 730 786 718 795 Q 712 801 640 792 Q 604 780 607 792 Q 608 799 631 814 Q 698 865 716 894 Q 737 928 753 928 Q 769 929 783 891 Q 802 842 798 763 Q 785 586 786 408 C 786 376 786 376 786 360 Q 786 237 806 163 Q 824 130 764 106 Q 727 87 707 94 Q 688 101 705 126 Q 729 154 730 192 Q 731 210 732 371 C 732 400 732 400 732 414 Z"/>
    <path class="bg" d="M 530 558 Q 561 609 597 634 Q 612 638 623 627 Q 630 614 631 597 Q 624 554 548 521 Q 532 514 522 516 Q 516 517 517 529 Q 517 542 530 558 Z"/>
</g>
<g id="anim-layer">
    <path style="--d:1s; stroke:#FF4444;" pathLength="3333" clip-path="url(#z21648c1)" d="M 59 348 L 93 381 L 123 583"/>
    <path style="--d:2s; stroke:#FF4444;" pathLength="3333" clip-path="url(#z21648c2)" d="M 104 347 L 238 326 L 269 350 L 226 478"/>
    <path style="--d:3s; stroke:#FF4444;" pathLength="3333" clip-path="url(#z21648c3)" d="M 145 525 L 277 493"/>
    <path style="--d:4s; stroke:#000;" pathLength="3333" clip-path="url(#z21648c4)" d="M 449 112 L 503 185 L 376 445 L 222 664"/>
    <path style="--d:5s; stroke:#000;" pathLength="3333" clip-path="url(#z21648c5)" d="M 394 469 L 416 572 L 401 901"/>
    <path style="--d:6s; stroke:#000;" pathLength="3333" clip-path="url(#z21648c6)" d="M 490 423 L 850 374 L 936 382"/>
    <path style="--d:7s; stroke:#000;" pathLength="3333" clip-path="url(#z21648c7)" d="M 705 101 L 767 154 L 764 786 L 738 876 L 616 791"/>
    <path style="--d:8s; stroke:#000;" pathLength="3333" clip-path="url(#z21648c8)" d="M 524 522 L 617 627"/>
</g>
</svg>