<svg id="z21664" class="acjk" viewBox="0 0 1024 1024" xmlns="http://www.w3.org/2000/svg">

<style>
<![CDATA[
@keyframes zk { to { stroke-dashoffset:0; } }
svg.acjk path[clip-path] {
    --t:0.8s;
    animation:zk var(--t) linear forwards var(--d);
    stroke-dasharray:3337;
    stroke-dashoffset:3339;
    stroke-width:128;
    stroke-linecap:round;
    fill:none;
}
/* Low opacity for background improves visual overlap at intersections */
svg.acjk .bg { fill:#ccc; opacity: 0.5; } 
]]>
</style>
<defs>
    <clipPath id="z21664c1"><path d="M 378 106 Q 366 100 331 96 Q 318 93 315 99 Q 308 106 318 122 Q 349 179 372 274 Q 376 302 394 321 Q 415 343 419 326 Q 423 313 421 291 C 418 272 418 272 416 263 Q 397 169 391 138 C 389 127 389 110 378 106 Z"/></clipPath>
    <clipPath id="z21664c2"><path d="M 645 235 Q 678 165 715 142 Q 734 124 720 104 Q 704 89 652 59 Q 634 50 559 73 Q 478 94 378 106 C 367 108 379 138 391 138 Q 409 138 592 109 Q 613 105 620 114 Q 629 124 623 144 Q 607 195 589 236 C 582 253 638 252 645 235 Z"/></clipPath>
    <clipPath id="z21664c3"><path d="M 421 291 Q 433 297 451 294 Q 518 281 663 274 Q 673 273 675 264 Q 676 257 646 235 C 645 235 645 235 645 235 C 629 225 607 232 589 236 Q 495 255 419 262 Q 418 262 416 263 C 407 265 412 287 421 291 Z"/></clipPath>
    <clipPath id="z21664c4"><path d="M 652 374 Q 691 371 780 371 Q 799 371 804 362 Q 808 352 792 338 Q 741 302 705 310 Q 596 334 240 386 Q 219 389 235 405 Q 248 418 266 423 Q 281 426 340 413 C 371 406 371 406 386 403 Q 483 382 591 377 C 632 375 632 375 652 374 Z"/></clipPath>
    <clipPath id="z21664c5"><path d="M 340 413 Q 349 443 354 531 Q 354 589 358 695 C 358 710 403 705 403 690 Q 404 641 405 598 C 406 578 406 578 406 568 Q 406 534 408 505 C 409 484 409 484 409 474 Q 412 428 408 421 Q 396 411 386 403 C 374 393 337 398 340 413 Z"/></clipPath>
    <clipPath id="z21664c6"><path d="M 672 651 Q 672 486 685 414 Q 689 396 674 387 Q 662 380 652 374 C 635 364 583 358 591 377 Q 591 381 605 403 Q 617 424 617 454 Q 618 539 618 660 C 618 691 618 691 618 707 Q 609 957 634 989 Q 640 996 647 994 Q 665 982 668 925 Q 671 886 672 704 C 672 669 672 669 672 651 Z"/></clipPath>
    <clipPath id="z21664c7"><path d="M 408 505 Q 409 505 413 505 Q 494 490 554 482 Q 579 478 569 464 Q 557 449 531 445 Q 498 442 409 474 C 399 477 398 505 408 505 Z"/></clipPath>
    <clipPath id="z21664c8"><path d="M 405 598 Q 408 598 412 598 Q 491 588 549 582 Q 574 578 565 564 Q 555 548 527 543 Q 497 540 406 568 C 397 572 395 598 405 598 Z"/></clipPath>
    <clipPath id="z21664c9"><path d="M 672 704 Q 748 700 841 701 Q 923 704 932 691 Q 938 678 919 661 Q 853 612 779 632 Q 730 639 672 651 C 636 657 636 657 618 660 Q 566 666 508 676 Q 456 682 403 690 C 373 693 373 693 358 695 Q 252 707 135 722 Q 110 725 128 745 Q 161 778 210 769 Q 390 718 618 707 C 654 705 654 705 672 704 Z"/></clipPath>
</defs>
<g id="bg-layer">
    <path class="bg" d="M 378 106 Q 366 100 331 96 Q 318 93 315 99 Q 308 106 318 122 Q 349 179 372 274 Q 376 302 394 321 Q 415 343 419 326 Q 423 313 421 291 C 418 272 418 272 416 263 Q 397 169 391 138 C 389 127 389 110 378 106 Z"/>
    <path class="bg" d="M 645 235 Q 678 165 715 142 Q 734 124 720 104 Q 704 89 652 59 Q 634 50 559 73 Q 478 94 378 106 C 367 108 379 138 391 138 Q 409 138 592 109 Q 613 105 620 114 Q 629 124 623 144 Q 607 195 589 236 C 582 253 638 252 645 235 Z"/>
    <path class="bg" d="M 421 291 Q 433 297 451 294 Q 518 281 663 274 Q 673 273 675 264 Q 676 257 646 235 C 645 235 645 235 645 235 C 629 225 607 232 589 236 Q 495 255 419 262 Q 418 262 416 263 C 407 265 412 287 421 291 Z"/>
    <path class="bg" d="M 652 374 Q 691 371 780 371 Q 799 371 804 362 Q 808 352 792 338 Q 741 302 705 310 Q 596 334 240 386 Q 219 389 235 405 Q 248 418 266 423 Q 281 426 340 413 C 371 406 371 406 386 403 Q 483 382 591 377 C 632 375 632 375 652 374 Z"/>
    <path class="bg" d="M 340 413 Q 349 443 354 531 Q 354 589 358 695 C 358 710 403 705 403 690 Q 404 641 405 598 C 406 578 406 578 406 568 Q 406 534 408 505 C 409 484 409 484 409 474 Q 412 428 408 421 Q 396 411 386 403 C 374 393 337 398 340 413 Z"/>
    <path class="bg" d="M 672 651 Q 672 486 685 414 Q 689 396 674 387 Q 662 380 652 374 C 635 364 583 358 591 377 Q 591 381 605 403 Q 617 424 617 454 Q 618 539 618 660 C 618 691 618 691 618 707 Q 609 957 634 989 Q 640 996 647 994 Q 665 982 668 925 Q 671 886 672 704 C 672 669 672 669 672 651 Z"/>
    <path class="bg" d="M 408 505 Q 409 505 413 505 Q 494 490 554 482 Q 579 478 569 464 Q 557 449 531 445 Q 498 442 409 474 C 399 477 398 505 408 505 Z"/>
    <path class="bg" d="M 405 598 Q 408 598 412 598 Q 491 588 549 582 Q 574 578 565 564 Q 555 548 527 543 Q 497 540 406 568 C 397 572 395 598 405 598 Z"/>
    <path class="bg" d="M 672 704 Q 748 700 841 701 Q 923 704 932 691 Q 938 678 919 661 Q 853 612 779 632 Q 730 639 672 651 C 636 657 636 657 618 660 Q 566 666 508 676 Q 456 682 403 690 C 373 693 373 693 358 695 Q 252 707 135 722 Q 110 725 128 745 Q 161 778 210 769 Q 390 718 618 707 C 654 705 654 705 672 704 Z"/>
</g>
<g id="anim-layer">
    <path style="--d:1s; stroke:#FF4444;" pathLength="3333" clip-path="url(#z21664c1)" d="M 321 100 L 359 133 L 414 327"/>
    <path style="--d:2s; stroke:#FF4444;" pathLength="3333" clip-path="url(#z21664c2)" d="M 381 114 L 635 85 L 673 135 L 601 244"/>
    <path style="--d:3s; stroke:#FF4444;" pathLength="3333" clip-path="url(#z21664c3)" d="M 416 272 L 668 260"/>
    <path style="--d:4s; stroke:#000;" pathLength="3333" clip-path="url(#z21664c4)" d="M 238 398 L 713 340 L 799 353"/>
    <path style="--d:5s; stroke:#000;" pathLength="3333" clip-path="url(#z21664c5)" d="M 345 406 L 378 438 L 376 702"/>
    <path style="--d:6s; stroke:#000;" pathLength="3333" clip-path="url(#z21664c6)" d="M 598 373 L 650 420 L 649 988"/>
    <path style="--d:7s; stroke:#000;" pathLength="3333" clip-path="url(#z21664c7)" d="M 405 493 L 567 470"/>
    <path style="--d:8s; stroke:#000;" pathLength="3333" clip-path="url(#z21664c8)" d="M 407 590 L 561 562"/>
    <path style="--d:9s; stroke:#000;" pathLength="3333" clip-path="url(#z21664c9)" d="M 128 730 L 197 742 L 820 663 L 929 677"/>
</g>
</svg>