<svg id="z21681" class="acjk" viewBox="0 0 1024 1024" xmlns="http://www.w3.org/2000/svg">

<style>
<![CDATA[
@keyframes zk { to { stroke-dashoffset:0; } }
svg.acjk path[clip-path] {
    --t:0.8s;
    animation:zk var(--t) linear forwards var(--d);
    stroke-dasharray:3337;
    stroke-dashoffset:3339;
    stroke-width:128;
    stroke-linecap:round;
    fill:none;
}
/* Low opacity for background improves visual overlap at intersections */
svg.acjk .bg { fill:#ccc; opacity: 0.5; } 
]]>
</style>
<defs>
    <clipPath id="z21681c1"><path d="M 141 370 C 133 366 119 362 103 359 C 82 355 85 370 90 381 C 110 426 126 485 134 561 C 136 582 141 601 154 617 C 163 630 170 632 174 623 C 177 612 180 596 178 578 C 176 566 174 555 173 544 C 161 468 153 420 151 397 C 151 387 150 374 141 370 Z"/></clipPath>
    <clipPath id="z21681c2"><path d="M 311 511 C 319 448 331 406 348 385 C 362 367 359 354 345 346 C 331 339 315 330 297 320 C 284 313 263 326 226 343 C 181 362 151 366 141 370 C 132 374 142 399 151 397 C 157 396 220 379 242 374 C 279 363 275 405 273 424 C 269 452 266 483 261 517 C 258 534 308 527 311 511 Z"/></clipPath>
    <clipPath id="z21681c3"><path d="M 178 578 C 204 569 268 557 334 547 C 362 542 338 522 311 511 C 295 505 277 511 261 517 C 229 527 199 536 173 544 C 162 548 167 582 178 578 Z"/></clipPath>
    <clipPath id="z21681c4"><path d="M 512 332 C 536 305 577 257 642 177 C 653 162 665 148 681 136 C 695 125 696 113 686 103 C 673 91 656 84 634 79 C 614 73 599 74 591 77 C 582 80 584 84 586 96 C 593 166 525 258 485 335 C 482 343 507 339 512 332 Z"/></clipPath>
    <clipPath id="z21681c5"><path d="M 485 335 C 475 326 464 318 452 316 C 432 311 423 315 429 334 C 442 381 449 394 451 427 C 456 566 453 677 434 757 C 425 794 433 827 457 859 C 463 866 471 868 479 859 C 486 849 490 838 491 827 C 493 804 493 804 494 793 C 496 770 494 679 495 658 C 496 641 496 641 496 632 C 497 589 497 552 497 521 C 497 504 497 504 497 496 C 497 420 498 378 502 371 C 507 359 496 343 485 335 Z"/></clipPath>
    <clipPath id="z21681c6"><path d="M 731 812 C 743 851 746 866 763 895 C 783 931 800 905 817 876 C 830 850 833 818 830 786 C 821 695 813 567 807 402 C 806 379 811 361 822 346 C 828 337 827 328 821 322 C 808 308 782 295 746 279 C 732 273 722 275 711 279 C 634 304 586 323 512 332 C 503 332 494 334 485 335 C 472 338 489 373 502 371 C 524 369 573 358 695 333 C 711 329 725 329 733 337 C 758 362 765 498 756 742 C 755 761 751 786 742 799 C 739 804 730 806 731 812 Z"/></clipPath>
    <clipPath id="z21681c7"><path d="M 671 493 C 685 490 690 483 685 476 C 678 464 665 458 649 457 C 628 455 578 469 497 496 C 489 499 489 523 497 521 C 613 502 613 502 671 493 Z"/></clipPath>
    <clipPath id="z21681c8"><path d="M 495 658 C 517 656 621 640 678 632 C 694 629 698 623 693 616 C 686 605 673 598 657 596 C 634 592 581 605 496 632 C 488 635 486 660 495 658 Z"/></clipPath>
    <clipPath id="z21681c9"><path d="M 491 827 C 555 818 670 812 731 812 C 737 812 745 804 742 799 C 699 740 690 775 494 793 C 483 793 480 829 491 827 Z"/></clipPath>
</defs>
<g id="bg-layer">
    <path class="bg" d="M 141 370 C 133 366 119 362 103 359 C 82 355 85 370 90 381 C 110 426 126 485 134 561 C 136 582 141 601 154 617 C 163 630 170 632 174 623 C 177 612 180 596 178 578 C 176 566 174 555 173 544 C 161 468 153 420 151 397 C 151 387 150 374 141 370 Z"/>
    <path class="bg" d="M 311 511 C 319 448 331 406 348 385 C 362 367 359 354 345 346 C 331 339 315 330 297 320 C 284 313 263 326 226 343 C 181 362 151 366 141 370 C 132 374 142 399 151 397 C 157 396 220 379 242 374 C 279 363 275 405 273 424 C 269 452 266 483 261 517 C 258 534 308 527 311 511 Z"/>
    <path class="bg" d="M 178 578 C 204 569 268 557 334 547 C 362 542 338 522 311 511 C 295 505 277 511 261 517 C 229 527 199 536 173 544 C 162 548 167 582 178 578 Z"/>
    <path class="bg" d="M 512 332 C 536 305 577 257 642 177 C 653 162 665 148 681 136 C 695 125 696 113 686 103 C 673 91 656 84 634 79 C 614 73 599 74 591 77 C 582 80 584 84 586 96 C 593 166 525 258 485 335 C 482 343 507 339 512 332 Z"/>
    <path class="bg" d="M 485 335 C 475 326 464 318 452 316 C 432 311 423 315 429 334 C 442 381 449 394 451 427 C 456 566 453 677 434 757 C 425 794 433 827 457 859 C 463 866 471 868 479 859 C 486 849 490 838 491 827 C 493 804 493 804 494 793 C 496 770 494 679 495 658 C 496 641 496 641 496 632 C 497 589 497 552 497 521 C 497 504 497 504 497 496 C 497 420 498 378 502 371 C 507 359 496 343 485 335 Z"/>
    <path class="bg" d="M 731 812 C 743 851 746 866 763 895 C 783 931 800 905 817 876 C 830 850 833 818 830 786 C 821 695 813 567 807 402 C 806 379 811 361 822 346 C 828 337 827 328 821 322 C 808 308 782 295 746 279 C 732 273 722 275 711 279 C 634 304 586 323 512 332 C 503 332 494 334 485 335 C 472 338 489 373 502 371 C 524 369 573 358 695 333 C 711 329 725 329 733 337 C 758 362 765 498 756 742 C 755 761 751 786 742 799 C 739 804 730 806 731 812 Z"/>
    <path class="bg" d="M 671 493 C 685 490 690 483 685 476 C 678 464 665 458 649 457 C 628 455 578 469 497 496 C 489 499 489 523 497 521 C 613 502 613 502 671 493 Z"/>
    <path class="bg" d="M 495 658 C 517 656 621 640 678 632 C 694 629 698 623 693 616 C 686 605 673 598 657 596 C 634 592 581 605 496 632 C 488 635 486 660 495 658 Z"/>
    <path class="bg" d="M 491 827 C 555 818 670 812 731 812 C 737 812 745 804 742 799 C 699 740 690 775 494 793 C 483 793 480 829 491 827 Z"/>
</g>
<g id="anim-layer">
    <path style="--d:1s; stroke:#FF4444;" pathLength="3333" clip-path="url(#z21681c1)" d="M 93 366 L 124 393 L 166 621"/>
    <path style="--d:2s; stroke:#FF4444;" pathLength="3333" clip-path="url(#z21681c2)" d="M 142 380 L 279 347 L 304 364 L 315 384 L 276 525"/>
    <path style="--d:3s; stroke:#FF4444;" pathLength="3333" clip-path="url(#z21681c3)" d="M 172 569 L 341 535"/>
    <path style="--d:4s; stroke:#000;" pathLength="3333" clip-path="url(#z21681c4)" d="M 591 83 L 637 131 L 494 334"/>
    <path style="--d:5s; stroke:#000;" pathLength="3333" clip-path="url(#z21681c5)" d="M 435 321 L 473 372 L 470 857"/>
    <path style="--d:6s; stroke:#000;" pathLength="3333" clip-path="url(#z21681c6)" d="M 486 345 L 722 303 L 784 346 L 787 908"/>
    <path style="--d:7s; stroke:#000;" pathLength="3333" clip-path="url(#z21681c7)" d="M 497 511 L 680 483"/>
    <path style="--d:8s; stroke:#000;" pathLength="3333" clip-path="url(#z21681c8)" d="M 498 649 L 688 617"/>
    <path style="--d:9s; stroke:#000;" pathLength="3333" clip-path="url(#z21681c9)" d="M 488 816 L 691 789 L 735 803"/>
</g>
</svg>