<svg id="z21692" class="acjk" viewBox="0 0 1024 1024" xmlns="http://www.w3.org/2000/svg">

<style>
<![CDATA[
@keyframes zk { to { stroke-dashoffset:0; } }
svg.acjk path[clip-path] {
    --t:0.8s;
    animation:zk var(--t) linear forwards var(--d);
    stroke-dasharray:3337;
    stroke-dashoffset:3339;
    stroke-width:128;
    stroke-linecap:round;
    fill:none;
}
/* Low opacity for background improves visual overlap at intersections */
svg.acjk .bg { fill:#ccc; opacity: 0.5; } 
]]>
</style>
<defs>
    <clipPath id="z21692c1"><path d="M 350 158 C 312 132 254 121 276 163 C 306 220 314 235 347 484 C 349 499 394 492 392 477 C 386 426 381 376 379 334 C 378 323 377 313 377 303 C 374 262 374 225 374 193 C 374 179 361 166 350 158 Z"/></clipPath>
    <clipPath id="z21692c2"><path d="M 662 437 C 684 284 702 201 718 185 C 727 174 728 163 720 151 C 714 142 693 127 661 104 C 650 96 627 99 588 112 C 506 137 426 152 350 158 C 336 158 360 196 374 193 C 480 168 555 153 599 148 C 617 145 628 146 633 153 C 635 156 633 176 630 213 C 623 290 613 367 605 445 C 601 464 658 456 662 437 Z"/></clipPath>
    <clipPath id="z21692c3"><path d="M 471 464 C 476 417 478 360 479 327 C 479 318 477 311 472 311 C 445 309 402 332 379 334 C 369 336 365 307 375 303 C 417 289 475 259 494 268 C 514 278 546 297 550 304 C 553 310 550 316 546 323 C 533 345 521 402 512 458 C 509 472 468 478 471 464 Z"/></clipPath>
    <clipPath id="z21692c4"><path d="M 214 506 C 179 477 124 457 144 501 C 159 536 173 566 176 595 C 182 661 182 732 175 808 C 173 826 176 841 183 856 C 215 931 237 888 243 860 C 246 843 244 807 239 751 C 230 651 226 583 228 548 C 228 533 226 515 214 506 Z"/></clipPath>
    <clipPath id="z21692c5"><path d="M 228 548 C 258 551 301 524 493 498 C 591 485 694 474 771 474 C 798 473 800 494 799 532 C 794 652 782 747 762 816 C 755 838 742 849 723 844 C 702 838 681 831 662 823 C 636 811 644 833 653 845 C 693 897 721 934 733 959 C 738 970 746 974 753 974 C 763 973 773 963 785 946 C 810 908 835 833 850 718 C 866 586 875 511 888 496 C 901 479 902 472 893 465 C 880 454 860 442 834 426 C 798 403 813 415 662 437 C 624 442 624 442 605 445 C 575 449 540 454 512 458 C 496 460 481 462 471 464 C 448 467 423 472 392 477 C 362 482 362 482 347 484 C 302 490 258 500 214 506 C 199 508 213 548 228 548 Z"/></clipPath>
    <clipPath id="z21692c6"><path d="M 391 599 C 362 585 312 567 335 611 C 353 647 367 695 377 756 C 379 773 385 788 396 800 C 408 814 415 816 419 807 C 421 800 424 790 423 778 C 420 755 420 755 419 743 C 416 717 405 646 403 628 C 401 618 401 603 391 599 Z"/></clipPath>
    <clipPath id="z21692c7"><path d="M 598 724 C 612 677 628 647 643 633 C 660 616 660 602 646 592 C 633 583 617 572 599 559 C 586 550 573 549 560 557 C 526 575 469 589 391 599 C 381 601 393 632 403 628 C 409 624 449 618 521 606 C 562 598 570 617 562 653 C 556 673 551 695 544 719 C 538 736 594 742 598 724 Z"/></clipPath>
    <clipPath id="z21692c8"><path d="M 423 778 C 441 778 451 769 611 758 C 616 757 640 753 598 724 C 582 715 562 716 544 719 C 498 729 456 737 419 743 C 407 745 411 778 423 778 Z"/></clipPath>
</defs>
<g id="bg-layer">
    <path class="bg" d="M 350 158 C 312 132 254 121 276 163 C 306 220 314 235 347 484 C 349 499 394 492 392 477 C 386 426 381 376 379 334 C 378 323 377 313 377 303 C 374 262 374 225 374 193 C 374 179 361 166 350 158 Z"/>
    <path class="bg" d="M 662 437 C 684 284 702 201 718 185 C 727 174 728 163 720 151 C 714 142 693 127 661 104 C 650 96 627 99 588 112 C 506 137 426 152 350 158 C 336 158 360 196 374 193 C 480 168 555 153 599 148 C 617 145 628 146 633 153 C 635 156 633 176 630 213 C 623 290 613 367 605 445 C 601 464 658 456 662 437 Z"/>
    <path class="bg" d="M 471 464 C 476 417 478 360 479 327 C 479 318 477 311 472 311 C 445 309 402 332 379 334 C 369 336 365 307 375 303 C 417 289 475 259 494 268 C 514 278 546 297 550 304 C 553 310 550 316 546 323 C 533 345 521 402 512 458 C 509 472 468 478 471 464 Z"/>
    <path class="bg" d="M 214 506 C 179 477 124 457 144 501 C 159 536 173 566 176 595 C 182 661 182 732 175 808 C 173 826 176 841 183 856 C 215 931 237 888 243 860 C 246 843 244 807 239 751 C 230 651 226 583 228 548 C 228 533 226 515 214 506 Z"/>
    <path class="bg" d="M 228 548 C 258 551 301 524 493 498 C 591 485 694 474 771 474 C 798 473 800 494 799 532 C 794 652 782 747 762 816 C 755 838 742 849 723 844 C 702 838 681 831 662 823 C 636 811 644 833 653 845 C 693 897 721 934 733 959 C 738 970 746 974 753 974 C 763 973 773 963 785 946 C 810 908 835 833 850 718 C 866 586 875 511 888 496 C 901 479 902 472 893 465 C 880 454 860 442 834 426 C 798 403 813 415 662 437 C 624 442 624 442 605 445 C 575 449 540 454 512 458 C 496 460 481 462 471 464 C 448 467 423 472 392 477 C 362 482 362 482 347 484 C 302 490 258 500 214 506 C 199 508 213 548 228 548 Z"/>
    <path class="bg" d="M 391 599 C 362 585 312 567 335 611 C 353 647 367 695 377 756 C 379 773 385 788 396 800 C 408 814 415 816 419 807 C 421 800 424 790 423 778 C 420 755 420 755 419 743 C 416 717 405 646 403 628 C 401 618 401 603 391 599 Z"/>
    <path class="bg" d="M 598 724 C 612 677 628 647 643 633 C 660 616 660 602 646 592 C 633 583 617 572 599 559 C 586 550 573 549 560 557 C 526 575 469 589 391 599 C 381 601 393 632 403 628 C 409 624 449 618 521 606 C 562 598 570 617 562 653 C 556 673 551 695 544 719 C 538 736 594 742 598 724 Z"/>
    <path class="bg" d="M 423 778 C 441 778 451 769 611 758 C 616 757 640 753 598 724 C 582 715 562 716 544 719 C 498 729 456 737 419 743 C 407 745 411 778 423 778 Z"/>
</g>
<g id="anim-layer">
    <path style="--d:1s; stroke:#FF4444;" pathLength="3333" clip-path="url(#z21692c1)" d="M 277 143 L 336 201 L 371 489"/>
    <path style="--d:2s; stroke:#FF4444;" pathLength="3333" clip-path="url(#z21692c2)" d="M 352 164 L 630 124 L 668 145 L 679 169 L 622 454"/>
    <path style="--d:3s; stroke:#FF4444;" pathLength="3333" clip-path="url(#z21692c3)" d="M 373 323 L 469 289 L 513 314 L 483 469"/>
    <path style="--d:4s; stroke:#FF4444;" pathLength="3333" clip-path="url(#z21692c4)" d="M 149 484 L 198 552 L 225 891"/>
    <path style="--d:5s; stroke:#FF4444;" pathLength="3333" clip-path="url(#z21692c5)" d="M 211 517 L 747 448 L 817 456 L 849 492 L 787 850 L 738 920 L 651 826"/>
    <path style="--d:6s; stroke:#000;" pathLength="3333" clip-path="url(#z21692c6)" d="M 338 593 L 373 623 L 409 807"/>
    <path style="--d:7s; stroke:#000;" pathLength="3333" clip-path="url(#z21692c7)" d="M 392 606 L 589 592 L 610 618 L 557 730"/>
    <path style="--d:8s; stroke:#000;" pathLength="3333" clip-path="url(#z21692c8)" d="M 413 756 L 617 751"/>
</g>
</svg>