<svg id="z21734" class="acjk" viewBox="0 0 1024 1024" xmlns="http://www.w3.org/2000/svg">

<style>
<![CDATA[
@keyframes zk { to { stroke-dashoffset:0; } }
svg.acjk path[clip-path] {
    --t:0.8s;
    animation:zk var(--t) linear forwards var(--d);
    stroke-dasharray:3337;
    stroke-dashoffset:3339;
    stroke-width:128;
    stroke-linecap:round;
    fill:none;
}
/* Low opacity for background improves visual overlap at intersections */
svg.acjk .bg { fill:#ccc; opacity: 0.5; } 
]]>
</style>
<defs>
    <clipPath id="z21734c1"><path d="M 130 366 Q 120 359 86 350 Q 74 346 71 351 Q 64 357 72 372 Q 100 451 110 576 Q 111 613 129 640 Q 145 662 151 647 Q 160 623 156 577 C 153 553 153 553 151 541 Q 138 432 135 396 C 133 386 138 372 130 366 Z"/></clipPath>
    <clipPath id="z21734c2"><path d="M 284 509 Q 299 407 326 375 Q 347 348 323 336 Q 304 326 276 311 Q 258 302 213 332 Q 156 356 130 366 C 121 370 125 399 135 396 Q 159 387 223 366 Q 245 359 251 367 Q 261 374 252 416 Q 245 459 235 510 C 232 526 281 525 284 509 Z"/></clipPath>
    <clipPath id="z21734c3"><path d="M 156 577 Q 219 556 300 540 Q 310 537 311 528 Q 310 521 284 509 C 270 501 251 507 235 510 Q 232 510 231 511 Q 188 529 151 541 C 140 545 145 581 156 577 Z"/></clipPath>
    <clipPath id="z21734c4"><path d="M 448 295 Q 505 253 531 244 Q 550 237 541 221 Q 531 205 509 192 Q 488 179 477 180 Q 467 181 469 193 Q 470 221 415 275 Q 387 303 355 336 Q 345 349 360 348 Q 397 327 424 311 C 440 300 440 300 448 295 Z"/></clipPath>
    <clipPath id="z21734c5"><path d="M 665 411 Q 668 410 675 408 Q 748 392 808 379 Q 818 380 827 366 Q 827 354 804 346 Q 762 330 715 350 Q 687 359 658 370 C 629 379 629 379 615 384 Q 612 384 611 385 Q 548 404 490 418 C 461 425 461 425 446 428 Q 400 435 350 447 Q 322 453 345 468 Q 381 492 410 481 Q 425 475 447 471 C 476 462 476 462 490 458 Q 548 440 621 422 C 650 415 650 415 665 411 Z"/></clipPath>
    <clipPath id="z21734c6"><path d="M 490 418 Q 490 376 499 346 Q 506 330 492 319 Q 471 303 448 295 C 439 291 418 303 424 311 Q 425 311 426 313 Q 445 344 445 382 Q 445 404 446 428 C 447 457 447 457 447 471 Q 448 532 448 587 C 448 618 448 618 448 634 Q 445 811 434 820 Q 428 823 365 810 Q 355 807 355 813 Q 355 819 364 826 Q 419 880 438 913 Q 451 928 464 915 Q 497 882 495 826 Q 492 787 490 605 C 490 578 490 578 490 564 Q 490 515 490 458 C 490 431 490 431 490 418 Z"/></clipPath>
    <clipPath id="z21734c7"><path d="M 448 587 Q 372 627 289 671 Q 270 681 236 687 Q 223 691 223 702 Q 224 715 235 722 Q 262 734 299 746 Q 309 747 320 736 Q 362 688 448 634 C 476 615 476 615 490 605 Q 553 560 570 542 Q 582 532 581 523 Q 574 519 562 523 Q 528 542 490 564 C 462 579 462 579 448 587 Z"/></clipPath>
    <clipPath id="z21734c8"><path d="M 683 666 Q 740 817 833 903 Q 891 955 922 955 Q 943 951 936 922 Q 933 876 942 742 Q 943 718 935 717 Q 934 717 889 802 Q 871 839 846 824 Q 836 818 825 808 Q 768 745 719 637 C 708 604 708 604 703 588 Q 696 561 665 411 C 660 384 660 384 658 370 Q 639 219 655 133 Q 668 90 612 67 Q 576 51 555 57 Q 534 64 544 84 Q 590 127 590 163 Q 600 287 615 384 C 619 409 619 409 621 422 Q 636 525 669 625 C 678 652 678 652 683 666 Z"/></clipPath>
    <clipPath id="z21734c9"><path d="M 669 625 Q 639 655 605 678 Q 569 702 551 717 Q 541 730 556 728 Q 595 729 683 666 C 707 647 707 647 719 637 Q 741 616 762 594 Q 799 551 834 517 Q 847 507 836 490 Q 800 450 775 447 Q 763 448 763 462 Q 760 522 703 588 C 680 613 680 613 669 625 Z"/></clipPath>
    <clipPath id="z21734c10"><path d="M 735 219 Q 760 235 786 257 Q 802 267 818 265 Q 830 262 833 248 Q 834 232 821 202 Q 814 186 784 177 Q 709 165 699 173 Q 695 177 698 191 Q 704 201 735 219 Z"/></clipPath>
</defs>
<g id="bg-layer">
    <path class="bg" d="M 130 366 Q 120 359 86 350 Q 74 346 71 351 Q 64 357 72 372 Q 100 451 110 576 Q 111 613 129 640 Q 145 662 151 647 Q 160 623 156 577 C 153 553 153 553 151 541 Q 138 432 135 396 C 133 386 138 372 130 366 Z"/>
    <path class="bg" d="M 284 509 Q 299 407 326 375 Q 347 348 323 336 Q 304 326 276 311 Q 258 302 213 332 Q 156 356 130 366 C 121 370 125 399 135 396 Q 159 387 223 366 Q 245 359 251 367 Q 261 374 252 416 Q 245 459 235 510 C 232 526 281 525 284 509 Z"/>
    <path class="bg" d="M 156 577 Q 219 556 300 540 Q 310 537 311 528 Q 310 521 284 509 C 270 501 251 507 235 510 Q 232 510 231 511 Q 188 529 151 541 C 140 545 145 581 156 577 Z"/>
    <path class="bg" d="M 448 295 Q 505 253 531 244 Q 550 237 541 221 Q 531 205 509 192 Q 488 179 477 180 Q 467 181 469 193 Q 470 221 415 275 Q 387 303 355 336 Q 345 349 360 348 Q 397 327 424 311 C 440 300 440 300 448 295 Z"/>
    <path class="bg" d="M 665 411 Q 668 410 675 408 Q 748 392 808 379 Q 818 380 827 366 Q 827 354 804 346 Q 762 330 715 350 Q 687 359 658 370 C 629 379 629 379 615 384 Q 612 384 611 385 Q 548 404 490 418 C 461 425 461 425 446 428 Q 400 435 350 447 Q 322 453 345 468 Q 381 492 410 481 Q 425 475 447 471 C 476 462 476 462 490 458 Q 548 440 621 422 C 650 415 650 415 665 411 Z"/>
    <path class="bg" d="M 490 418 Q 490 376 499 346 Q 506 330 492 319 Q 471 303 448 295 C 439 291 418 303 424 311 Q 425 311 426 313 Q 445 344 445 382 Q 445 404 446 428 C 447 457 447 457 447 471 Q 448 532 448 587 C 448 618 448 618 448 634 Q 445 811 434 820 Q 428 823 365 810 Q 355 807 355 813 Q 355 819 364 826 Q 419 880 438 913 Q 451 928 464 915 Q 497 882 495 826 Q 492 787 490 605 C 490 578 490 578 490 564 Q 490 515 490 458 C 490 431 490 431 490 418 Z"/>
    <path class="bg" d="M 448 587 Q 372 627 289 671 Q 270 681 236 687 Q 223 691 223 702 Q 224 715 235 722 Q 262 734 299 746 Q 309 747 320 736 Q 362 688 448 634 C 476 615 476 615 490 605 Q 553 560 570 542 Q 582 532 581 523 Q 574 519 562 523 Q 528 542 490 564 C 462 579 462 579 448 587 Z"/>
    <path class="bg" d="M 683 666 Q 740 817 833 903 Q 891 955 922 955 Q 943 951 936 922 Q 933 876 942 742 Q 943 718 935 717 Q 934 717 889 802 Q 871 839 846 824 Q 836 818 825 808 Q 768 745 719 637 C 708 604 708 604 703 588 Q 696 561 665 411 C 660 384 660 384 658 370 Q 639 219 655 133 Q 668 90 612 67 Q 576 51 555 57 Q 534 64 544 84 Q 590 127 590 163 Q 600 287 615 384 C 619 409 619 409 621 422 Q 636 525 669 625 C 678 652 678 652 683 666 Z"/>
    <path class="bg" d="M 669 625 Q 639 655 605 678 Q 569 702 551 717 Q 541 730 556 728 Q 595 729 683 666 C 707 647 707 647 719 637 Q 741 616 762 594 Q 799 551 834 517 Q 847 507 836 490 Q 800 450 775 447 Q 763 448 763 462 Q 760 522 703 588 C 680 613 680 613 669 625 Z"/>
    <path class="bg" d="M 735 219 Q 760 235 786 257 Q 802 267 818 265 Q 830 262 833 248 Q 834 232 821 202 Q 814 186 784 177 Q 709 165 699 173 Q 695 177 698 191 Q 704 201 735 219 Z"/>
</g>
<g id="anim-layer">
    <path style="--d:1s; stroke:#FF4444;" pathLength="3333" clip-path="url(#z21734c1)" d="M 76 356 L 106 387 L 144 646"/>
    <path style="--d:2s; stroke:#FF4444;" pathLength="3333" clip-path="url(#z21734c2)" d="M 141 387 L 242 339 L 288 355 L 249 509"/>
    <path style="--d:3s; stroke:#FF4444;" pathLength="3333" clip-path="url(#z21734c3)" d="M 161 567 L 240 531 L 306 528"/>
    <path style="--d:4s; stroke:#000;" pathLength="3333" clip-path="url(#z21734c4)" d="M 478 184 L 498 231 L 359 341"/>
    <path style="--d:5s; stroke:#000;" pathLength="3333" clip-path="url(#z21734c5)" d="M 343 455 L 395 461 L 822 362"/>
    <path style="--d:6s; stroke:#000;" pathLength="3333" clip-path="url(#z21734c6)" d="M 433 313 L 472 347 L 466 824 L 437 870 L 364 817"/>
    <path style="--d:7s; stroke:#000;" pathLength="3333" clip-path="url(#z21734c7)" d="M 227 702 L 299 707 L 571 527"/>
    <path style="--d:8s; stroke:#000;" pathLength="3333" clip-path="url(#z21734c8)" d="M 546 70 L 618 116 L 652 469 L 749 750 L 820 845 L 904 902 L 935 724"/>
    <path style="--d:9s; stroke:#000;" pathLength="3333" clip-path="url(#z21734c9)" d="M 775 451 L 799 499 L 739 583 L 557 720"/>
    <path style="--d:10s; stroke:#000;" pathLength="3333" clip-path="url(#z21734c10)" d="M 704 179 L 784 212 L 828 256"/>
</g>
</svg>