<svg id="z21747" class="acjk" viewBox="0 0 1024 1024" xmlns="http://www.w3.org/2000/svg">

<style>
<![CDATA[
@keyframes zk { to { stroke-dashoffset:0; } }
svg.acjk path[clip-path] {
    --t:0.8s;
    animation:zk var(--t) linear forwards var(--d);
    stroke-dasharray:3337;
    stroke-dashoffset:3339;
    stroke-width:128;
    stroke-linecap:round;
    fill:none;
}
/* Low opacity for background improves visual overlap at intersections */
svg.acjk .bg { fill:#ccc; opacity: 0.5; } 
]]>
</style>
<defs>
    <clipPath id="z21747c1"><path d="M 114 325 Q 102 321 78 315 Q 66 311 63 316 Q 56 322 64 337 Q 91 398 103 498 Q 104 528 121 549 Q 137 570 143 555 Q 149 540 147 514 C 144 492 144 492 143 481 Q 130 379 128 352 C 128 342 123 329 114 325 Z"/></clipPath>
    <clipPath id="z21747c2"><path d="M 270 461 Q 286 370 310 343 Q 332 316 308 304 Q 289 294 261 278 Q 245 269 189 301 Q 128 320 114 325 C 105 329 118 354 128 352 C 181 338 181 338 208 331 Q 229 325 234 333 Q 240 339 221 456 C 218 472 267 477 270 461 Z"/></clipPath>
    <clipPath id="z21747c3"><path d="M 147 514 Q 154 514 164 512 Q 201 502 282 491 Q 292 490 293 480 Q 293 473 270 461 C 256 453 237 453 221 456 Q 217 456 214 458 Q 174 471 143 481 C 133 485 136 514 147 514 Z"/></clipPath>
    <clipPath id="z21747c4"><path d="M 485 352 Q 507 345 534 339 Q 558 332 561 327 Q 568 320 564 311 Q 557 301 527 296 Q 505 292 486 301 C 454 313 454 313 438 319 Q 389 334 342 343 Q 308 352 334 366 Q 377 385 429 368 Q 432 367 438 366 C 469 357 469 357 485 352 Z"/></clipPath>
    <clipPath id="z21747c5"><path d="M 435 548 Q 434 626 433 721 Q 432 743 420 752 Q 414 755 352 742 Q 321 729 323 739 Q 324 746 343 761 Q 401 810 416 838 Q 432 869 447 872 Q 460 873 476 840 Q 494 797 492 725 Q 485 616 484 507 C 483 486 483 486 483 476 Q 483 413 485 352 C 486 318 486 318 486 301 Q 495 160 505 129 Q 521 101 468 79 Q 437 61 417 68 Q 401 74 416 96 Q 435 121 438 154 Q 439 172 438 319 C 438 350 438 350 438 366 Q 437 426 435 505 C 435 534 435 534 435 548 Z"/></clipPath>
    <clipPath id="z21747c6"><path d="M 435 505 Q 264 604 264 606 Q 249 612 248 621 Q 247 628 260 641 Q 279 654 300 661 Q 313 665 323 653 Q 344 629 435 548 C 468 521 468 521 484 507 Q 547 453 549 451 Q 555 439 545 440 Q 526 441 483 476 C 451 495 451 495 435 505 Z"/></clipPath>
    <clipPath id="z21747c7"><path d="M 675 316 Q 688 309 709 299 Q 754 277 786 255 Q 826 228 863 214 Q 879 210 881 201 Q 882 191 869 182 Q 845 170 799 162 Q 783 158 770 161 Q 764 167 765 177 Q 768 204 657 298 C 651 304 667 320 675 316 Z"/></clipPath>
    <clipPath id="z21747c8"><path d="M 667 434 Q 667 361 673 334 Q 677 324 675 316 C 674 308 664 302 657 298 Q 644 289 624 282 Q 605 273 593 279 Q 583 286 590 299 Q 633 354 602 570 Q 598 589 594 609 Q 572 696 524 786 Q 520 793 519 799 Q 518 809 527 806 Q 540 805 569 762 Q 650 662 665 467 C 666 445 666 445 667 434 Z"/></clipPath>
    <clipPath id="z21747c9"><path d="M 799 440 Q 874 428 950 414 Q 950 413 952 411 Q 955 399 939 389 Q 882 361 830 383 Q 802 392 763 405 Q 717 418 667 434 C 657 437 654 465 665 467 Q 692 473 710 466 Q 726 459 748 454 C 782 445 782 445 799 440 Z"/></clipPath>
    <clipPath id="z21747c10"><path d="M 775 876 Q 779 900 786 909 Q 792 916 799 914 Q 814 905 818 849 Q 818 582 831 478 Q 834 462 821 453 Q 809 446 799 440 C 784 431 741 438 748 454 Q 749 458 755 465 Q 768 487 769 751 Q 770 845 775 876 Z"/></clipPath>
</defs>
<g id="bg-layer">
    <path class="bg" d="M 114 325 Q 102 321 78 315 Q 66 311 63 316 Q 56 322 64 337 Q 91 398 103 498 Q 104 528 121 549 Q 137 570 143 555 Q 149 540 147 514 C 144 492 144 492 143 481 Q 130 379 128 352 C 128 342 123 329 114 325 Z"/>
    <path class="bg" d="M 270 461 Q 286 370 310 343 Q 332 316 308 304 Q 289 294 261 278 Q 245 269 189 301 Q 128 320 114 325 C 105 329 118 354 128 352 C 181 338 181 338 208 331 Q 229 325 234 333 Q 240 339 221 456 C 218 472 267 477 270 461 Z"/>
    <path class="bg" d="M 147 514 Q 154 514 164 512 Q 201 502 282 491 Q 292 490 293 480 Q 293 473 270 461 C 256 453 237 453 221 456 Q 217 456 214 458 Q 174 471 143 481 C 133 485 136 514 147 514 Z"/>
    <path class="bg" d="M 485 352 Q 507 345 534 339 Q 558 332 561 327 Q 568 320 564 311 Q 557 301 527 296 Q 505 292 486 301 C 454 313 454 313 438 319 Q 389 334 342 343 Q 308 352 334 366 Q 377 385 429 368 Q 432 367 438 366 C 469 357 469 357 485 352 Z"/>
    <path class="bg" d="M 435 548 Q 434 626 433 721 Q 432 743 420 752 Q 414 755 352 742 Q 321 729 323 739 Q 324 746 343 761 Q 401 810 416 838 Q 432 869 447 872 Q 460 873 476 840 Q 494 797 492 725 Q 485 616 484 507 C 483 486 483 486 483 476 Q 483 413 485 352 C 486 318 486 318 486 301 Q 495 160 505 129 Q 521 101 468 79 Q 437 61 417 68 Q 401 74 416 96 Q 435 121 438 154 Q 439 172 438 319 C 438 350 438 350 438 366 Q 437 426 435 505 C 435 534 435 534 435 548 Z"/>
    <path class="bg" d="M 435 505 Q 264 604 264 606 Q 249 612 248 621 Q 247 628 260 641 Q 279 654 300 661 Q 313 665 323 653 Q 344 629 435 548 C 468 521 468 521 484 507 Q 547 453 549 451 Q 555 439 545 440 Q 526 441 483 476 C 451 495 451 495 435 505 Z"/>
    <path class="bg" d="M 675 316 Q 688 309 709 299 Q 754 277 786 255 Q 826 228 863 214 Q 879 210 881 201 Q 882 191 869 182 Q 845 170 799 162 Q 783 158 770 161 Q 764 167 765 177 Q 768 204 657 298 C 651 304 667 320 675 316 Z"/>
    <path class="bg" d="M 667 434 Q 667 361 673 334 Q 677 324 675 316 C 674 308 664 302 657 298 Q 644 289 624 282 Q 605 273 593 279 Q 583 286 590 299 Q 633 354 602 570 Q 598 589 594 609 Q 572 696 524 786 Q 520 793 519 799 Q 518 809 527 806 Q 540 805 569 762 Q 650 662 665 467 C 666 445 666 445 667 434 Z"/>
    <path class="bg" d="M 799 440 Q 874 428 950 414 Q 950 413 952 411 Q 955 399 939 389 Q 882 361 830 383 Q 802 392 763 405 Q 717 418 667 434 C 657 437 654 465 665 467 Q 692 473 710 466 Q 726 459 748 454 C 782 445 782 445 799 440 Z"/>
    <path class="bg" d="M 775 876 Q 779 900 786 909 Q 792 916 799 914 Q 814 905 818 849 Q 818 582 831 478 Q 834 462 821 453 Q 809 446 799 440 C 784 431 741 438 748 454 Q 749 458 755 465 Q 768 487 769 751 Q 770 845 775 876 Z"/>
</g>
<g id="anim-layer">
    <path style="--d:1s; stroke:#FF4444;" pathLength="3333" clip-path="url(#z21747c1)" d="M 67 320 L 99 349 L 136 555"/>
    <path style="--d:2s; stroke:#FF4444;" pathLength="3333" clip-path="url(#z21747c2)" d="M 116 332 L 238 303 L 276 326 L 247 468"/>
    <path style="--d:3s; stroke:#FF4444;" pathLength="3333" clip-path="url(#z21747c3)" d="M 141 500 L 287 479"/>
    <path style="--d:4s; stroke:#000;" pathLength="3333" clip-path="url(#z21747c4)" d="M 334 356 L 561 315"/>
    <path style="--d:5s; stroke:#000;" pathLength="3333" clip-path="url(#z21747c5)" d="M 416 75 L 471 120 L 462 738 L 434 820 L 332 740"/>
    <path style="--d:6s; stroke:#000;" pathLength="3333" clip-path="url(#z21747c6)" d="M 254 622 L 302 625 L 545 446"/>
    <path style="--d:7s; stroke:#000;" pathLength="3333" clip-path="url(#z21747c7)" d="M 774 163 L 822 207 L 661 308"/>
    <path style="--d:8s; stroke:#000;" pathLength="3333" clip-path="url(#z21747c8)" d="M 595 288 L 642 335 L 628 562 L 590 691 L 524 798"/>
    <path style="--d:9s; stroke:#000;" pathLength="3333" clip-path="url(#z21747c9)" d="M 662 456 L 859 402 L 947 406"/>
    <path style="--d:10s; stroke:#000;" pathLength="3333" clip-path="url(#z21747c10)" d="M 754 448 L 795 477 L 793 909"/>
</g>
</svg>