<svg id="z21815" class="acjk" viewBox="0 0 1024 1024" xmlns="http://www.w3.org/2000/svg">

<style>
<![CDATA[
@keyframes zk { to { stroke-dashoffset:0; } }
svg.acjk path[clip-path] {
    --t:0.8s;
    animation:zk var(--t) linear forwards var(--d);
    stroke-dasharray:3337;
    stroke-dashoffset:3339;
    stroke-width:128;
    stroke-linecap:round;
    fill:none;
}
/* Low opacity for background improves visual overlap at intersections */
svg.acjk .bg { fill:#ccc; opacity: 0.5; } 
]]>
</style>
<defs>
    <clipPath id="z21815c1"><path d="M 150 293 Q 138 286 105 279 Q 92 275 89 280 Q 82 286 90 302 Q 118 369 133 474 Q 134 505 152 528 Q 168 550 175 535 Q 182 519 180 490 C 177 468 177 468 175 457 Q 160 354 158 322 C 158 312 159 297 150 293 Z"/></clipPath>
    <clipPath id="z21815c2"><path d="M 318 432 Q 334 345 360 318 Q 382 290 358 276 Q 337 266 309 247 Q 288 237 246 263 Q 198 279 150 293 C 141 297 148 324 158 322 Q 165 321 174 318 Q 214 308 249 301 Q 273 297 278 305 Q 287 312 280 349 Q 273 386 265 429 C 262 446 315 449 318 432 Z"/></clipPath>
    <clipPath id="z21815c3"><path d="M 180 490 Q 187 490 196 488 Q 238 476 330 463 Q 340 462 341 452 Q 341 445 318 432 C 303 423 282 423 265 429 Q 264 429 262 430 Q 213 446 175 457 C 165 461 169 490 180 490 Z"/></clipPath>
    <clipPath id="z21815c4"><path d="M 546 111 Q 579 136 613 167 Q 628 180 645 179 Q 655 178 661 164 Q 665 148 654 117 Q 647 95 612 80 Q 528 55 516 61 Q 510 65 513 79 Q 517 89 546 111 Z"/></clipPath>
    <clipPath id="z21815c5"><path d="M 584 251 Q 656 238 868 237 Q 887 237 891 229 Q 895 219 881 205 Q 832 169 797 177 Q 677 202 391 239 Q 372 242 386 257 Q 399 270 416 275 Q 435 279 451 276 Q 488 266 528 260 C 565 254 565 254 584 251 Z"/></clipPath>
    <clipPath id="z21815c6"><path d="M 713 353 Q 623 366 529 383 Q 522 384 520 383 Q 519 382 523 376 Q 575 300 596 280 Q 608 267 600 260 Q 594 254 584 251 C 566 244 528 241 528 260 Q 528 315 484 366 Q 471 382 443 396 Q 421 406 420 416 Q 419 431 429 448 Q 438 464 449 468 Q 456 471 465 466 Q 528 424 726 371 C 733 370 720 352 713 353 Z"/></clipPath>
    <clipPath id="z21815c7"><path d="M 726 371 Q 768 425 778 427 Q 787 428 793 419 Q 800 409 798 383 Q 795 347 702 294 Q 690 288 684 289 Q 680 292 678 302 Q 678 314 713 353 C 722 365 722 365 726 371 Z"/></clipPath>
    <clipPath id="z21815c8"><path d="M 504 697 Q 508 658 512 629 C 514 612 514 612 515 604 Q 519 562 524 548 Q 525 539 524 532 C 524 519 509 509 497 504 Q 476 494 462 493 Q 449 496 453 508 Q 492 614 437 772 Q 406 838 435 881 Q 442 894 452 890 Q 489 868 502 722 C 503 705 503 705 504 697 Z"/></clipPath>
    <clipPath id="z21815c9"><path d="M 524 532 Q 533 532 672 505 Q 693 501 697 512 Q 715 557 713 786 Q 713 822 704 836 Q 700 840 681 837 Q 654 830 627 822 Q 608 815 608 825 Q 663 876 694 913 Q 707 932 723 938 Q 732 942 740 932 Q 782 884 781 829 Q 750 571 775 523 Q 788 504 775 493 Q 753 474 717 459 Q 693 450 651 474 Q 590 498 497 504 C 484 504 511 535 524 532 Z"/></clipPath>
    <clipPath id="z21815c10"><path d="M 512 629 Q 519 630 526 629 Q 590 620 639 615 Q 661 611 653 599 Q 643 586 619 581 Q 586 577 515 604 C 507 607 504 629 512 629 Z"/></clipPath>
    <clipPath id="z21815c11"><path d="M 502 722 Q 509 723 518 723 Q 596 716 653 712 Q 677 709 669 696 Q 659 680 634 675 Q 610 671 568 679 Q 534 689 504 697 C 496 699 494 720 502 722 Z"/></clipPath>
</defs>
<g id="bg-layer">
    <path class="bg" d="M 150 293 Q 138 286 105 279 Q 92 275 89 280 Q 82 286 90 302 Q 118 369 133 474 Q 134 505 152 528 Q 168 550 175 535 Q 182 519 180 490 C 177 468 177 468 175 457 Q 160 354 158 322 C 158 312 159 297 150 293 Z"/>
    <path class="bg" d="M 318 432 Q 334 345 360 318 Q 382 290 358 276 Q 337 266 309 247 Q 288 237 246 263 Q 198 279 150 293 C 141 297 148 324 158 322 Q 165 321 174 318 Q 214 308 249 301 Q 273 297 278 305 Q 287 312 280 349 Q 273 386 265 429 C 262 446 315 449 318 432 Z"/>
    <path class="bg" d="M 180 490 Q 187 490 196 488 Q 238 476 330 463 Q 340 462 341 452 Q 341 445 318 432 C 303 423 282 423 265 429 Q 264 429 262 430 Q 213 446 175 457 C 165 461 169 490 180 490 Z"/>
    <path class="bg" d="M 546 111 Q 579 136 613 167 Q 628 180 645 179 Q 655 178 661 164 Q 665 148 654 117 Q 647 95 612 80 Q 528 55 516 61 Q 510 65 513 79 Q 517 89 546 111 Z"/>
    <path class="bg" d="M 584 251 Q 656 238 868 237 Q 887 237 891 229 Q 895 219 881 205 Q 832 169 797 177 Q 677 202 391 239 Q 372 242 386 257 Q 399 270 416 275 Q 435 279 451 276 Q 488 266 528 260 C 565 254 565 254 584 251 Z"/>
    <path class="bg" d="M 713 353 Q 623 366 529 383 Q 522 384 520 383 Q 519 382 523 376 Q 575 300 596 280 Q 608 267 600 260 Q 594 254 584 251 C 566 244 528 241 528 260 Q 528 315 484 366 Q 471 382 443 396 Q 421 406 420 416 Q 419 431 429 448 Q 438 464 449 468 Q 456 471 465 466 Q 528 424 726 371 C 733 370 720 352 713 353 Z"/>
    <path class="bg" d="M 726 371 Q 768 425 778 427 Q 787 428 793 419 Q 800 409 798 383 Q 795 347 702 294 Q 690 288 684 289 Q 680 292 678 302 Q 678 314 713 353 C 722 365 722 365 726 371 Z"/>
    <path class="bg" d="M 504 697 Q 508 658 512 629 C 514 612 514 612 515 604 Q 519 562 524 548 Q 525 539 524 532 C 524 519 509 509 497 504 Q 476 494 462 493 Q 449 496 453 508 Q 492 614 437 772 Q 406 838 435 881 Q 442 894 452 890 Q 489 868 502 722 C 503 705 503 705 504 697 Z"/>
    <path class="bg" d="M 524 532 Q 533 532 672 505 Q 693 501 697 512 Q 715 557 713 786 Q 713 822 704 836 Q 700 840 681 837 Q 654 830 627 822 Q 608 815 608 825 Q 663 876 694 913 Q 707 932 723 938 Q 732 942 740 932 Q 782 884 781 829 Q 750 571 775 523 Q 788 504 775 493 Q 753 474 717 459 Q 693 450 651 474 Q 590 498 497 504 C 484 504 511 535 524 532 Z"/>
    <path class="bg" d="M 512 629 Q 519 630 526 629 Q 590 620 639 615 Q 661 611 653 599 Q 643 586 619 581 Q 586 577 515 604 C 507 607 504 629 512 629 Z"/>
    <path class="bg" d="M 502 722 Q 509 723 518 723 Q 596 716 653 712 Q 677 709 669 696 Q 659 680 634 675 Q 610 671 568 679 Q 534 689 504 697 C 496 699 494 720 502 722 Z"/>
</g>
<g id="anim-layer">
    <path style="--d:1s; stroke:#FF4444;" pathLength="3333" clip-path="url(#z21815c1)" d="M 92 283 L 130 319 L 160 533"/>
    <path style="--d:2s; stroke:#FF4444;" pathLength="3333" clip-path="url(#z21815c2)" d="M 148 301 L 284 273 L 322 299 L 286 441"/>
    <path style="--d:3s; stroke:#FF4444;" pathLength="3333" clip-path="url(#z21815c3)" d="M 173 474 L 336 448"/>
    <path style="--d:4s; stroke:#000;" pathLength="3333" clip-path="url(#z21815c4)" d="M 519 71 L 614 121 L 651 173"/>
    <path style="--d:5s; stroke:#000;" pathLength="3333" clip-path="url(#z21815c5)" d="M 387 245 L 440 255 L 808 206 L 887 216"/>
    <path style="--d:6s; stroke:#000;" pathLength="3333" clip-path="url(#z21815c6)" d="M 535 252 L 562 285 L 470 397 L 479 425 L 721 364"/>
    <path style="--d:7s; stroke:#000;" pathLength="3333" clip-path="url(#z21815c7)" d="M 686 295 L 784 422"/>
    <path style="--d:8s; stroke:#000;" pathLength="3333" clip-path="url(#z21815c8)" d="M 459 500 L 495 556 L 446 887"/>
    <path style="--d:9s; stroke:#000;" pathLength="3333" clip-path="url(#z21815c9)" d="M 502 510 L 693 480 L 741 512 L 739 855 L 711 888 L 615 824"/>
    <path style="--d:10s; stroke:#000;" pathLength="3333" clip-path="url(#z21815c10)" d="M 511 620 L 647 605"/>
    <path style="--d:11s; stroke:#000;" pathLength="3333" clip-path="url(#z21815c11)" d="M 503 713 L 665 700"/>
</g>
</svg>