<svg id="z21825" class="acjk" viewBox="0 0 1024 1024" xmlns="http://www.w3.org/2000/svg">

<style>
<![CDATA[
@keyframes zk { to { stroke-dashoffset:0; } }
svg.acjk path[clip-path] {
    --t:0.8s;
    animation:zk var(--t) linear forwards var(--d);
    stroke-dasharray:3337;
    stroke-dashoffset:3339;
    stroke-width:128;
    stroke-linecap:round;
    fill:none;
}
/* Low opacity for background improves visual overlap at intersections */
svg.acjk .bg { fill:#ccc; opacity: 0.5; } 
]]>
</style>
<defs>
    <clipPath id="z21825c1"><path d="M 152 291 C 144 286 130 282 113 278 C 104 275 100 276 97 279 C 92 282 93 288 98 301 C 115 346 127 406 132 479 C 133 501 138 519 149 535 C 160 550 166 553 171 543 C 175 532 179 516 178 495 C 176 472 176 472 175 460 C 168 385 164 338 164 318 C 164 308 161 295 152 291 Z"/></clipPath>
    <clipPath id="z21825c2"><path d="M 306 443 C 316 378 329 335 347 314 C 360 297 360 283 345 275 C 304 252 281 243 275 244 C 270 244 265 246 260 250 C 236 266 200 279 152 291 C 142 293 154 320 164 318 C 168 317 175 315 184 314 C 206 309 226 304 245 300 C 257 297 263 299 268 304 C 273 309 275 323 271 349 C 266 374 262 403 258 434 C 255 450 303 459 306 443 Z"/></clipPath>
    <clipPath id="z21825c3"><path d="M 178 495 C 182 495 186 494 192 493 C 216 486 257 478 314 471 C 320 470 324 466 325 460 C 325 456 318 450 306 443 C 292 435 274 431 258 434 C 245 437 195 453 175 460 C 164 464 166 495 178 495 Z"/></clipPath>
    <clipPath id="z21825c4"><path d="M 458 190 C 451 185 442 182 432 178 C 419 172 408 170 400 176 C 393 180 391 188 397 197 C 407 212 418 238 422 279 C 423 289 422 301 423 315 C 427 425 421 525 400 615 C 382 687 349 766 304 853 C 301 857 298 861 298 866 C 296 872 300 876 307 874 C 328 866 361 822 403 740 C 412 720 420 699 428 678 C 461 581 477 452 478 290 C 478 271 479 251 483 231 C 486 215 471 200 458 190 Z"/></clipPath>
    <clipPath id="z21825c5"><path d="M 483 231 C 529 217 643 192 736 178 C 752 175 762 179 772 186 C 781 193 789 218 793 264 C 805 418 807 584 800 762 C 799 788 794 804 785 811 C 776 816 753 815 714 807 C 703 804 697 806 698 813 C 698 817 704 821 712 828 C 748 857 773 886 793 909 C 806 924 819 929 828 927 C 836 925 845 914 853 894 C 864 863 871 824 869 778 C 857 531 849 363 850 273 C 850 246 853 224 862 208 C 870 193 871 181 864 173 C 855 162 835 149 803 133 C 788 125 759 130 712 143 C 628 165 543 178 458 190 C 442 193 467 234 483 231 Z"/></clipPath>
    <clipPath id="z21825c6"><path d="M 646 364 C 660 360 677 356 697 352 C 711 348 721 345 724 343 C 729 338 730 333 727 329 C 722 322 712 317 697 315 C 680 311 665 316 650 321 C 617 332 617 332 601 337 C 589 340 550 346 526 350 C 505 353 503 360 518 368 C 540 380 560 385 602 375 C 631 368 631 368 646 364 Z"/></clipPath>
    <clipPath id="z21825c7"><path d="M 639 437 C 641 412 643 388 646 364 C 649 335 649 335 650 321 C 652 294 655 278 658 273 C 660 266 661 260 663 256 C 664 250 661 242 650 235 C 632 223 615 218 602 216 C 593 214 586 215 582 221 C 578 225 577 231 582 239 C 591 252 599 284 601 337 C 602 362 602 362 602 375 C 602 397 603 420 603 445 C 603 457 639 449 639 437 Z"/></clipPath>
    <clipPath id="z21825c8"><path d="M 603 445 C 571 452 539 455 507 461 C 492 463 490 469 502 478 C 520 491 537 495 552 492 C 624 475 684 463 734 459 C 740 458 746 457 750 449 C 752 443 744 438 732 432 C 709 419 685 426 639 437 C 615 442 615 442 603 445 Z"/></clipPath>
    <clipPath id="z21825c9"><path d="M 542 552 C 535 549 525 547 512 544 C 505 542 500 542 498 545 C 495 547 495 554 500 564 C 513 592 525 630 532 678 C 533 692 538 703 547 714 C 556 725 562 728 566 720 C 569 711 571 699 569 684 C 566 664 566 664 565 654 C 559 615 557 590 557 578 C 557 568 551 556 542 552 Z"/></clipPath>
    <clipPath id="z21825c10"><path d="M 703 645 C 713 610 726 589 737 579 C 752 564 752 550 738 542 C 697 519 676 509 676 509 C 670 509 664 510 659 514 C 638 526 599 539 542 552 C 532 554 547 580 557 578 C 583 572 611 566 640 561 C 654 558 662 559 666 565 C 667 567 664 590 656 635 C 653 651 700 661 703 645 Z"/></clipPath>
    <clipPath id="z21825c11"><path d="M 569 684 C 583 685 625 675 709 672 C 715 671 719 668 720 663 C 720 658 714 652 703 645 C 690 635 672 632 656 635 C 631 642 589 650 565 654 C 555 656 559 684 569 684 Z"/></clipPath>
</defs>
<g id="bg-layer">
    <path class="bg" d="M 152 291 C 144 286 130 282 113 278 C 104 275 100 276 97 279 C 92 282 93 288 98 301 C 115 346 127 406 132 479 C 133 501 138 519 149 535 C 160 550 166 553 171 543 C 175 532 179 516 178 495 C 176 472 176 472 175 460 C 168 385 164 338 164 318 C 164 308 161 295 152 291 Z"/>
    <path class="bg" d="M 306 443 C 316 378 329 335 347 314 C 360 297 360 283 345 275 C 304 252 281 243 275 244 C 270 244 265 246 260 250 C 236 266 200 279 152 291 C 142 293 154 320 164 318 C 168 317 175 315 184 314 C 206 309 226 304 245 300 C 257 297 263 299 268 304 C 273 309 275 323 271 349 C 266 374 262 403 258 434 C 255 450 303 459 306 443 Z"/>
    <path class="bg" d="M 178 495 C 182 495 186 494 192 493 C 216 486 257 478 314 471 C 320 470 324 466 325 460 C 325 456 318 450 306 443 C 292 435 274 431 258 434 C 245 437 195 453 175 460 C 164 464 166 495 178 495 Z"/>
    <path class="bg" d="M 458 190 C 451 185 442 182 432 178 C 419 172 408 170 400 176 C 393 180 391 188 397 197 C 407 212 418 238 422 279 C 423 289 422 301 423 315 C 427 425 421 525 400 615 C 382 687 349 766 304 853 C 301 857 298 861 298 866 C 296 872 300 876 307 874 C 328 866 361 822 403 740 C 412 720 420 699 428 678 C 461 581 477 452 478 290 C 478 271 479 251 483 231 C 486 215 471 200 458 190 Z"/>
    <path class="bg" d="M 483 231 C 529 217 643 192 736 178 C 752 175 762 179 772 186 C 781 193 789 218 793 264 C 805 418 807 584 800 762 C 799 788 794 804 785 811 C 776 816 753 815 714 807 C 703 804 697 806 698 813 C 698 817 704 821 712 828 C 748 857 773 886 793 909 C 806 924 819 929 828 927 C 836 925 845 914 853 894 C 864 863 871 824 869 778 C 857 531 849 363 850 273 C 850 246 853 224 862 208 C 870 193 871 181 864 173 C 855 162 835 149 803 133 C 788 125 759 130 712 143 C 628 165 543 178 458 190 C 442 193 467 234 483 231 Z"/>
    <path class="bg" d="M 646 364 C 660 360 677 356 697 352 C 711 348 721 345 724 343 C 729 338 730 333 727 329 C 722 322 712 317 697 315 C 680 311 665 316 650 321 C 617 332 617 332 601 337 C 589 340 550 346 526 350 C 505 353 503 360 518 368 C 540 380 560 385 602 375 C 631 368 631 368 646 364 Z"/>
    <path class="bg" d="M 639 437 C 641 412 643 388 646 364 C 649 335 649 335 650 321 C 652 294 655 278 658 273 C 660 266 661 260 663 256 C 664 250 661 242 650 235 C 632 223 615 218 602 216 C 593 214 586 215 582 221 C 578 225 577 231 582 239 C 591 252 599 284 601 337 C 602 362 602 362 602 375 C 602 397 603 420 603 445 C 603 457 639 449 639 437 Z"/>
    <path class="bg" d="M 603 445 C 571 452 539 455 507 461 C 492 463 490 469 502 478 C 520 491 537 495 552 492 C 624 475 684 463 734 459 C 740 458 746 457 750 449 C 752 443 744 438 732 432 C 709 419 685 426 639 437 C 615 442 615 442 603 445 Z"/>
    <path class="bg" d="M 542 552 C 535 549 525 547 512 544 C 505 542 500 542 498 545 C 495 547 495 554 500 564 C 513 592 525 630 532 678 C 533 692 538 703 547 714 C 556 725 562 728 566 720 C 569 711 571 699 569 684 C 566 664 566 664 565 654 C 559 615 557 590 557 578 C 557 568 551 556 542 552 Z"/>
    <path class="bg" d="M 703 645 C 713 610 726 589 737 579 C 752 564 752 550 738 542 C 697 519 676 509 676 509 C 670 509 664 510 659 514 C 638 526 599 539 542 552 C 532 554 547 580 557 578 C 583 572 611 566 640 561 C 654 558 662 559 666 565 C 667 567 664 590 656 635 C 653 651 700 661 703 645 Z"/>
    <path class="bg" d="M 569 684 C 583 685 625 675 709 672 C 715 671 719 668 720 663 C 720 658 714 652 703 645 C 690 635 672 632 656 635 C 631 642 589 650 565 654 C 555 656 559 684 569 684 Z"/>
</g>
<g id="anim-layer">
    <path style="--d:1s; stroke:#FF4444;" pathLength="3333" clip-path="url(#z21825c1)" d="M 102 287 L 135 324 L 161 540"/>
    <path style="--d:2s; stroke:#FF4444;" pathLength="3333" clip-path="url(#z21825c2)" d="M 160 296 L 271 272 L 313 299 L 281 438"/>
    <path style="--d:3s; stroke:#FF4444;" pathLength="3333" clip-path="url(#z21825c3)" d="M 180 487 L 247 459 L 317 460"/>
    <path style="--d:4s; stroke:#000;" pathLength="3333" clip-path="url(#z21825c4)" d="M 400 180 L 450 239 L 437 540 L 387 723 L 305 865"/>
    <path style="--d:5s; stroke:#000;" pathLength="3333" clip-path="url(#z21825c5)" d="M 467 191 L 508 204 L 759 153 L 827 198 L 833 800 L 806 877 L 704 814"/>
    <path style="--d:6s; stroke:#000;" pathLength="3333" clip-path="url(#z21825c6)" d="M 518 359 L 722 335"/>
    <path style="--d:7s; stroke:#000;" pathLength="3333" clip-path="url(#z21825c7)" d="M 588 228 L 629 271 L 612 440"/>
    <path style="--d:8s; stroke:#000;" pathLength="3333" clip-path="url(#z21825c8)" d="M 504 469 L 745 448"/>
    <path style="--d:9s; stroke:#000;" pathLength="3333" clip-path="url(#z21825c9)" d="M 504 548 L 535 587 L 558 716"/>
    <path style="--d:10s; stroke:#000;" pathLength="3333" clip-path="url(#z21825c10)" d="M 552 557 L 669 535 L 704 555 L 684 640"/>
    <path style="--d:11s; stroke:#000;" pathLength="3333" clip-path="url(#z21825c11)" d="M 574 662 L 713 660"/>
</g>
</svg>