<svg id="z21888" class="acjk" viewBox="0 0 1024 1024" xmlns="http://www.w3.org/2000/svg">

<style>
<![CDATA[
@keyframes zk { to { stroke-dashoffset:0; } }
svg.acjk path[clip-path] {
    --t:0.8s;
    animation:zk var(--t) linear forwards var(--d);
    stroke-dasharray:3337;
    stroke-dashoffset:3339;
    stroke-width:128;
    stroke-linecap:round;
    fill:none;
}
/* Low opacity for background improves visual overlap at intersections */
svg.acjk .bg { fill:#ccc; opacity: 0.5; } 
]]>
</style>
<defs>
    <clipPath id="z21888c1"><path d="M 117 351 Q 107 344 77 339 Q 64 335 61 340 Q 54 346 62 362 Q 89 425 102 525 Q 103 555 120 576 Q 136 598 143 583 Q 149 568 148 542 C 145 519 145 519 144 507 Q 131 401 130 376 C 130 367 125 355 117 351 Z"/></clipPath>
    <clipPath id="z21888c2"><path d="M 278 479 Q 293 392 316 365 Q 335 340 314 328 Q 295 318 269 303 Q 254 294 205 323 Q 154 341 117 351 C 108 354 121 378 130 376 Q 136 375 145 372 Q 182 362 216 353 Q 238 346 243 355 Q 250 362 245 396 Q 238 433 230 479 C 227 495 275 495 278 479 Z"/></clipPath>
    <clipPath id="z21888c3"><path d="M 148 542 Q 155 542 164 539 Q 204 526 295 511 Q 305 510 306 500 Q 306 493 278 479 C 263 473 246 476 230 479 Q 227 479 226 480 Q 181 496 144 507 C 133 511 136 542 148 542 Z"/></clipPath>
    <clipPath id="z21888c4"><path d="M 542 117 Q 584 169 618 185 Q 633 189 643 175 Q 650 162 647 145 Q 641 120 624 107 Q 576 74 538 74 Q 532 74 529 76 Q 523 77 525 90 Q 526 102 542 117 Z"/></clipPath>
    <clipPath id="z21888c5"><path d="M 433 264 Q 421 239 403 229 Q 400 225 394 229 Q 390 232 388 243 Q 392 276 365 336 Q 355 352 357 370 Q 360 389 369 402 Q 376 414 382 406 Q 394 403 409 357 Q 428 300 434 294 C 439 285 437 273 433 264 Z"/></clipPath>
    <clipPath id="z21888c6"><path d="M 434 294 Q 450 301 487 294 Q 554 267 704 245 Q 731 241 740 242 Q 756 255 754 263 Q 754 267 731 339 Q 727 352 733 355 Q 740 358 754 345 Q 800 303 842 285 Q 875 269 873 261 Q 872 252 803 210 Q 782 197 700 215 Q 642 221 500 252 Q 466 259 433 264 C 423 266 425 290 434 294 Z"/></clipPath>
    <clipPath id="z21888c7"><path d="M 533 398 Q 536 380 512 355 Q 493 339 478 337 Q 463 337 467 355 Q 474 373 466 387 Q 424 468 332 564 Q 323 571 321 576 Q 317 585 328 584 Q 367 578 468 471 C 475 463 475 463 479 459 Q 494 438 508 424 C 517 415 533 410 533 398 Z"/></clipPath>
    <clipPath id="z21888c8"><path d="M 430 705 Q 503 660 587 573 C 602 556 602 556 610 547 Q 692 442 712 431 Q 727 425 728 417 Q 729 405 704 387 Q 674 363 661 362 Q 651 361 639 368 Q 594 383 533 398 C 521 400 496 422 508 424 Q 542 436 600 411 Q 619 408 625 414 Q 629 418 609 458 Q 593 489 569 520 C 556 535 556 535 550 542 Q 463 629 431 652 Q 343 715 227 749 Q 218 750 218 756 Q 218 760 225 761 Q 295 770 404 718 C 421 709 421 709 430 705 Z"/></clipPath>
    <clipPath id="z21888c9"><path d="M 587 573 Q 788 726 826 734 Q 898 734 982 706 Q 1000 702 1001 696 Q 1002 689 987 686 Q 764 626 733 612 Q 646 569 610 547 C 583 529 583 529 569 520 Q 568 519 566 518 Q 500 469 479 459 C 474 456 465 466 468 471 Q 474 483 550 542 C 575 563 575 563 587 573 Z"/></clipPath>
    <clipPath id="z21888c10"><path d="M 467 717 Q 457 711 430 705 C 420 703 399 710 404 718 Q 434 778 450 899 Q 451 930 469 953 Q 485 974 491 959 Q 497 941 495 910 C 492 887 492 887 490 876 Q 475 782 473 749 C 473 738 475 724 467 718 C 467 717 467 717 467 717 Z"/></clipPath>
    <clipPath id="z21888c11"><path d="M 694 841 Q 716 766 748 743 Q 764 724 749 707 Q 733 694 681 670 Q 663 663 593 689 Q 529 707 467 718 C 457 720 463 751 473 749 Q 480 748 492 744 Q 562 731 628 717 Q 646 713 653 720 Q 666 733 640 847 C 636 865 690 859 694 841 Z"/></clipPath>
    <clipPath id="z21888c12"><path d="M 495 910 Q 499 910 507 909 Q 574 894 719 882 Q 729 881 731 872 Q 732 865 702 844 Q 698 843 694 841 C 677 834 658 843 640 847 Q 558 865 490 876 C 479 878 484 910 495 910 Z"/></clipPath>
</defs>
<g id="bg-layer">
    <path class="bg" d="M 117 351 Q 107 344 77 339 Q 64 335 61 340 Q 54 346 62 362 Q 89 425 102 525 Q 103 555 120 576 Q 136 598 143 583 Q 149 568 148 542 C 145 519 145 519 144 507 Q 131 401 130 376 C 130 367 125 355 117 351 Z"/>
    <path class="bg" d="M 278 479 Q 293 392 316 365 Q 335 340 314 328 Q 295 318 269 303 Q 254 294 205 323 Q 154 341 117 351 C 108 354 121 378 130 376 Q 136 375 145 372 Q 182 362 216 353 Q 238 346 243 355 Q 250 362 245 396 Q 238 433 230 479 C 227 495 275 495 278 479 Z"/>
    <path class="bg" d="M 148 542 Q 155 542 164 539 Q 204 526 295 511 Q 305 510 306 500 Q 306 493 278 479 C 263 473 246 476 230 479 Q 227 479 226 480 Q 181 496 144 507 C 133 511 136 542 148 542 Z"/>
    <path class="bg" d="M 542 117 Q 584 169 618 185 Q 633 189 643 175 Q 650 162 647 145 Q 641 120 624 107 Q 576 74 538 74 Q 532 74 529 76 Q 523 77 525 90 Q 526 102 542 117 Z"/>
    <path class="bg" d="M 433 264 Q 421 239 403 229 Q 400 225 394 229 Q 390 232 388 243 Q 392 276 365 336 Q 355 352 357 370 Q 360 389 369 402 Q 376 414 382 406 Q 394 403 409 357 Q 428 300 434 294 C 439 285 437 273 433 264 Z"/>
    <path class="bg" d="M 434 294 Q 450 301 487 294 Q 554 267 704 245 Q 731 241 740 242 Q 756 255 754 263 Q 754 267 731 339 Q 727 352 733 355 Q 740 358 754 345 Q 800 303 842 285 Q 875 269 873 261 Q 872 252 803 210 Q 782 197 700 215 Q 642 221 500 252 Q 466 259 433 264 C 423 266 425 290 434 294 Z"/>
    <path class="bg" d="M 533 398 Q 536 380 512 355 Q 493 339 478 337 Q 463 337 467 355 Q 474 373 466 387 Q 424 468 332 564 Q 323 571 321 576 Q 317 585 328 584 Q 367 578 468 471 C 475 463 475 463 479 459 Q 494 438 508 424 C 517 415 533 410 533 398 Z"/>
    <path class="bg" d="M 430 705 Q 503 660 587 573 C 602 556 602 556 610 547 Q 692 442 712 431 Q 727 425 728 417 Q 729 405 704 387 Q 674 363 661 362 Q 651 361 639 368 Q 594 383 533 398 C 521 400 496 422 508 424 Q 542 436 600 411 Q 619 408 625 414 Q 629 418 609 458 Q 593 489 569 520 C 556 535 556 535 550 542 Q 463 629 431 652 Q 343 715 227 749 Q 218 750 218 756 Q 218 760 225 761 Q 295 770 404 718 C 421 709 421 709 430 705 Z"/>
    <path class="bg" d="M 587 573 Q 788 726 826 734 Q 898 734 982 706 Q 1000 702 1001 696 Q 1002 689 987 686 Q 764 626 733 612 Q 646 569 610 547 C 583 529 583 529 569 520 Q 568 519 566 518 Q 500 469 479 459 C 474 456 465 466 468 471 Q 474 483 550 542 C 575 563 575 563 587 573 Z"/>
    <path class="bg" d="M 467 717 Q 457 711 430 705 C 420 703 399 710 404 718 Q 434 778 450 899 Q 451 930 469 953 Q 485 974 491 959 Q 497 941 495 910 C 492 887 492 887 490 876 Q 475 782 473 749 C 473 738 475 724 467 718 C 467 717 467 717 467 717 Z"/>
    <path class="bg" d="M 694 841 Q 716 766 748 743 Q 764 724 749 707 Q 733 694 681 670 Q 663 663 593 689 Q 529 707 467 718 C 457 720 463 751 473 749 Q 480 748 492 744 Q 562 731 628 717 Q 646 713 653 720 Q 666 733 640 847 C 636 865 690 859 694 841 Z"/>
    <path class="bg" d="M 495 910 Q 499 910 507 909 Q 574 894 719 882 Q 729 881 731 872 Q 732 865 702 844 Q 698 843 694 841 C 677 834 658 843 640 847 Q 558 865 490 876 C 479 878 484 910 495 910 Z"/>
</g>
<g id="anim-layer">
    <path style="--d:1s; stroke:#FF4444;" pathLength="3333" clip-path="url(#z21888c1)" d="M 67 348 L 102 387 L 131 583"/>
    <path style="--d:2s; stroke:#FF4444;" pathLength="3333" clip-path="url(#z21888c2)" d="M 124 352 L 240 326 L 281 347 L 248 478"/>
    <path style="--d:3s; stroke:#FF4444;" pathLength="3333" clip-path="url(#z21888c3)" d="M 153 533 L 225 502 L 299 502"/>
    <path style="--d:4s; stroke:#000;" pathLength="3333" clip-path="url(#z21888c4)" d="M 532 84 L 638 176"/>
    <path style="--d:5s; stroke:#000;" pathLength="3333" clip-path="url(#z21888c5)" d="M 399 234 L 410 284 L 373 401"/>
    <path style="--d:6s; stroke:#000;" pathLength="3333" clip-path="url(#z21888c6)" d="M 441 288 L 750 225 L 819 269 L 738 347"/>
    <path style="--d:7s; stroke:#000;" pathLength="3333" clip-path="url(#z21888c7)" d="M 475 342 L 499 390 L 327 576"/>
    <path style="--d:8s; stroke:#000;" pathLength="3333" clip-path="url(#z21888c8)" d="M 523 418 L 639 388 L 674 421 L 574 551 L 416 688 L 224 755"/>
    <path style="--d:9s; stroke:#000;" pathLength="3333" clip-path="url(#z21888c9)" d="M 478 470 L 782 669 L 839 691 L 992 694"/>
    <path style="--d:10s; stroke:#000;" pathLength="3333" clip-path="url(#z21888c10)" d="M 412 721 L 444 741 L 481 958"/>
    <path style="--d:11s; stroke:#000;" pathLength="3333" clip-path="url(#z21888c11)" d="M 475 720 L 684 704 L 706 730 L 670 831 L 648 840"/>
    <path style="--d:12s; stroke:#000;" pathLength="3333" clip-path="url(#z21888c12)" d="M 497 880 L 726 868"/>
</g>
</svg>