<svg id="z22043" class="acjk" viewBox="0 0 1024 1024" xmlns="http://www.w3.org/2000/svg">

<style>
<![CDATA[
@keyframes zk { to { stroke-dashoffset:0; } }
svg.acjk path[clip-path] {
    --t:0.8s;
    animation:zk var(--t) linear forwards var(--d);
    stroke-dasharray:3337;
    stroke-dashoffset:3339;
    stroke-width:128;
    stroke-linecap:round;
    fill:none;
}
/* Low opacity for background improves visual overlap at intersections */
svg.acjk .bg { fill:#ccc; opacity: 0.5; } 
]]>
</style>
<defs>
    <clipPath id="z22043c1"><path d="M 115 326 C 108 322 95 319 78 315 C 59 310 56 320 64 337 C 83 381 98 439 106 511 C 108 531 113 549 125 565 C 135 578 143 581 147 571 C 152 557 154 536 150 510 C 147 489 147 489 145 479 C 134 412 128 369 128 351 C 128 342 124 329 115 326 Z"/></clipPath>
    <clipPath id="z22043c2"><path d="M 270 462 C 278 402 290 362 305 344 C 318 327 318 314 303 306 C 290 299 275 291 258 282 C 247 276 229 283 200 298 C 176 310 147 317 115 326 C 106 328 120 356 128 351 C 128 349 153 341 203 331 C 231 324 240 334 234 378 C 230 401 227 427 223 455 C 220 471 267 478 270 462 Z"/></clipPath>
    <clipPath id="z22043c3"><path d="M 150 510 C 162 508 178 502 279 489 C 279 488 307 481 270 462 C 256 454 239 452 223 455 C 208 459 193 465 145 479 C 135 483 140 512 150 510 Z"/></clipPath>
    <clipPath id="z22043c4"><path d="M 562 111 C 580 125 598 141 617 159 C 617 159 652 188 665 156 C 668 145 665 129 658 109 C 650 86 615 71 555 61 C 544 59 536 58 532 61 C 517 70 534 89 562 111 Z"/></clipPath>
    <clipPath id="z22043c5"><path d="M 408 282 C 422 284 471 280 555 267 C 713 241 799 226 810 220 C 832 206 811 190 786 184 C 768 179 727 190 661 206 C 553 231 464 241 395 247 C 383 249 396 282 408 282 Z"/></clipPath>
    <clipPath id="z22043c6"><path d="M 395 247 C 367 225 346 216 334 222 C 326 226 324 232 328 241 C 346 275 340 330 338 358 C 316 607 237 739 155 859 C 134 888 159 878 167 873 C 181 865 346 738 388 386 C 395 323 400 288 408 282 C 416 272 405 254 395 247 Z"/></clipPath>
    <clipPath id="z22043c7"><path d="M 523 492 C 550 485 575 479 585 472 C 590 467 590 462 587 458 C 579 447 547 438 525 446 C 495 455 495 455 480 460 C 433 474 405 477 401 479 C 380 483 377 492 394 500 C 418 511 446 511 476 504 C 507 496 507 496 523 492 Z"/></clipPath>
    <clipPath id="z22043c8"><path d="M 521 540 C 521 523 522 507 523 492 C 524 461 524 461 525 446 C 525 425 528 406 535 391 C 538 382 542 375 540 368 C 538 362 513 346 491 334 C 474 324 445 325 458 349 C 469 371 480 405 480 460 C 480 548 480 548 480 592 C 480 694 471 759 463 788 C 457 805 459 833 475 867 C 490 899 504 879 511 862 C 516 851 518 836 518 818 C 517 799 521 716 521 569 C 521 550 521 550 521 540 Z"/></clipPath>
    <clipPath id="z22043c9"><path d="M 476 504 Q 437 612 311 786 Q 307 795 316 795 Q 334 795 421 687 Q 452 647 480 592 C 522 522 506 428 476 504 Z"/></clipPath>
    <clipPath id="z22043c10"><path d="M 521 569 C 549 601 567 619 578 621 C 580 621 603 621 589 585 C 580 563 542 547 521 540 C 512 536 515 561 521 569 Z"/></clipPath>
    <clipPath id="z22043c11"><path d="M 740 454 C 818 436 858 423 860 422 C 864 417 866 412 863 407 C 858 400 847 393 829 390 C 811 386 783 398 742 410 C 712 418 712 418 697 422 C 675 427 651 429 627 434 C 604 437 601 446 618 455 C 635 464 659 472 687 466 C 722 458 722 458 740 454 Z"/></clipPath>
    <clipPath id="z22043c12"><path d="M 739 512 C 739 494 739 471 740 454 C 741 425 741 425 742 410 C 743 385 747 362 754 343 C 757 333 762 325 759 319 C 756 313 730 298 706 283 C 688 271 655 274 670 299 C 695 342 696 375 697 422 C 698 518 698 518 698 566 C 698 684 693 753 690 773 C 680 831 676 855 677 868 C 677 882 686 899 692 909 C 700 923 712 946 731 904 C 737 890 739 874 739 857 C 738 834 739 736 739 564 C 739 529 739 529 739 512 Z"/></clipPath>
    <clipPath id="z22043c13"><path d="M 687 466 C 668 542 620 644 545 774 C 541 779 544 782 551 782 C 562 781 635 705 698 566 C 746 485 705 374 687 466 Z"/></clipPath>
    <clipPath id="z22043c14"><path d="M 739 564 C 769 636 803 700 842 759 C 851 773 861 781 874 784 C 890 787 934 787 966 786 C 990 784 992 781 968 764 C 898 715 850 681 821 638 C 792 596 767 558 739 512 C 730 497 733 548 739 564 Z"/></clipPath>
</defs>
<g id="bg-layer">
    <path class="bg" d="M 115 326 C 108 322 95 319 78 315 C 59 310 56 320 64 337 C 83 381 98 439 106 511 C 108 531 113 549 125 565 C 135 578 143 581 147 571 C 152 557 154 536 150 510 C 147 489 147 489 145 479 C 134 412 128 369 128 351 C 128 342 124 329 115 326 Z"/>
    <path class="bg" d="M 270 462 C 278 402 290 362 305 344 C 318 327 318 314 303 306 C 290 299 275 291 258 282 C 247 276 229 283 200 298 C 176 310 147 317 115 326 C 106 328 120 356 128 351 C 128 349 153 341 203 331 C 231 324 240 334 234 378 C 230 401 227 427 223 455 C 220 471 267 478 270 462 Z"/>
    <path class="bg" d="M 150 510 C 162 508 178 502 279 489 C 279 488 307 481 270 462 C 256 454 239 452 223 455 C 208 459 193 465 145 479 C 135 483 140 512 150 510 Z"/>
    <path class="bg" d="M 562 111 C 580 125 598 141 617 159 C 617 159 652 188 665 156 C 668 145 665 129 658 109 C 650 86 615 71 555 61 C 544 59 536 58 532 61 C 517 70 534 89 562 111 Z"/>
    <path class="bg" d="M 408 282 C 422 284 471 280 555 267 C 713 241 799 226 810 220 C 832 206 811 190 786 184 C 768 179 727 190 661 206 C 553 231 464 241 395 247 C 383 249 396 282 408 282 Z"/>
    <path class="bg" d="M 395 247 C 367 225 346 216 334 222 C 326 226 324 232 328 241 C 346 275 340 330 338 358 C 316 607 237 739 155 859 C 134 888 159 878 167 873 C 181 865 346 738 388 386 C 395 323 400 288 408 282 C 416 272 405 254 395 247 Z"/>
    <path class="bg" d="M 523 492 C 550 485 575 479 585 472 C 590 467 590 462 587 458 C 579 447 547 438 525 446 C 495 455 495 455 480 460 C 433 474 405 477 401 479 C 380 483 377 492 394 500 C 418 511 446 511 476 504 C 507 496 507 496 523 492 Z"/>
    <path class="bg" d="M 521 540 C 521 523 522 507 523 492 C 524 461 524 461 525 446 C 525 425 528 406 535 391 C 538 382 542 375 540 368 C 538 362 513 346 491 334 C 474 324 445 325 458 349 C 469 371 480 405 480 460 C 480 548 480 548 480 592 C 480 694 471 759 463 788 C 457 805 459 833 475 867 C 490 899 504 879 511 862 C 516 851 518 836 518 818 C 517 799 521 716 521 569 C 521 550 521 550 521 540 Z"/>
    <path class="bg" d="M 476 504 Q 437 612 311 786 Q 307 795 316 795 Q 334 795 421 687 Q 452 647 480 592 C 522 522 506 428 476 504 Z"/>
    <path class="bg" d="M 521 569 C 549 601 567 619 578 621 C 580 621 603 621 589 585 C 580 563 542 547 521 540 C 512 536 515 561 521 569 Z"/>
    <path class="bg" d="M 740 454 C 818 436 858 423 860 422 C 864 417 866 412 863 407 C 858 400 847 393 829 390 C 811 386 783 398 742 410 C 712 418 712 418 697 422 C 675 427 651 429 627 434 C 604 437 601 446 618 455 C 635 464 659 472 687 466 C 722 458 722 458 740 454 Z"/>
    <path class="bg" d="M 739 512 C 739 494 739 471 740 454 C 741 425 741 425 742 410 C 743 385 747 362 754 343 C 757 333 762 325 759 319 C 756 313 730 298 706 283 C 688 271 655 274 670 299 C 695 342 696 375 697 422 C 698 518 698 518 698 566 C 698 684 693 753 690 773 C 680 831 676 855 677 868 C 677 882 686 899 692 909 C 700 923 712 946 731 904 C 737 890 739 874 739 857 C 738 834 739 736 739 564 C 739 529 739 529 739 512 Z"/>
    <path class="bg" d="M 687 466 C 668 542 620 644 545 774 C 541 779 544 782 551 782 C 562 781 635 705 698 566 C 746 485 705 374 687 466 Z"/>
    <path class="bg" d="M 739 564 C 769 636 803 700 842 759 C 851 773 861 781 874 784 C 890 787 934 787 966 786 C 990 784 992 781 968 764 C 898 715 850 681 821 638 C 792 596 767 558 739 512 C 730 497 733 548 739 564 Z"/>
</g>
<g id="anim-layer">
    <path style="--d:1s; stroke:#FF4444;" pathLength="3333" clip-path="url(#z22043c1)" d="M 66 322 L 100 351 L 135 572"/>
    <path style="--d:2s; stroke:#FF4444;" pathLength="3333" clip-path="url(#z22043c2)" d="M 115 333 L 223 306 L 271 325 L 234 466"/>
    <path style="--d:3s; stroke:#FF4444;" pathLength="3333" clip-path="url(#z22043c3)" d="M 143 495 L 281 477"/>
    <path style="--d:4s; stroke:#000;" pathLength="3333" clip-path="url(#z22043c4)" d="M 531 69 L 621 116 L 650 166"/>
    <path style="--d:5s; stroke:#000;" pathLength="3333" clip-path="url(#z22043c5)" d="M 394 255 L 815 206"/>
    <path style="--d:6s; stroke:#000;" pathLength="3333" clip-path="url(#z22043c6)" d="M 332 228 L 374 287 L 330 553 L 260 728 L 155 873"/>
    <path style="--d:7s; stroke:#000;" pathLength="3333" clip-path="url(#z22043c7)" d="M 394 489 L 582 468"/>
    <path style="--d:8s; stroke:#000;" pathLength="3333" clip-path="url(#z22043c8)" d="M 461 336 L 507 383 L 492 880"/>
    <path style="--d:9s; stroke:#000;" pathLength="3333" clip-path="url(#z22043c9)" d="M 494 481 L 442 621 L 317 789"/>
    <path style="--d:10s; stroke:#000;" pathLength="3333" clip-path="url(#z22043c10)" d="M 524 545 L 588 610"/>
    <path style="--d:11s; stroke:#000;" pathLength="3333" clip-path="url(#z22043c11)" d="M 614 443 L 857 412"/>
    <path style="--d:12s; stroke:#000;" pathLength="3333" clip-path="url(#z22043c12)" d="M 673 284 L 724 334 L 709 920"/>
    <path style="--d:13s; stroke:#000;" pathLength="3333" clip-path="url(#z22043c13)" d="M 703 438 L 688 537 L 551 776"/>
    <path style="--d:14s; stroke:#000;" pathLength="3333" clip-path="url(#z22043c14)" d="M 738 518 L 856 723 L 978 778"/>
</g>
</svg>