<svg id="z22100" class="acjk" viewBox="0 0 1024 1024" xmlns="http://www.w3.org/2000/svg">

<style>
<![CDATA[
@keyframes zk { to { stroke-dashoffset:0; } }
svg.acjk path[clip-path] {
    --t:0.8s;
    animation:zk var(--t) linear forwards var(--d);
    stroke-dasharray:3337;
    stroke-dashoffset:3339;
    stroke-width:128;
    stroke-linecap:round;
    fill:none;
}
/* Low opacity for background improves visual overlap at intersections */
svg.acjk .bg { fill:#ccc; opacity: 0.5; } 
]]>
</style>
<defs>
    <clipPath id="z22100c1"><path d="M 117 323 Q 107 316 77 311 Q 64 307 61 312 Q 54 318 62 334 Q 89 398 102 500 Q 103 531 120 552 Q 136 574 143 559 Q 150 541 148 511 C 145 488 145 488 144 477 Q 131 377 130 349 C 130 339 126 327 117 323 Z"/></clipPath>
    <clipPath id="z22100c2"><path d="M 277 462 Q 290 369 313 340 Q 334 315 311 302 Q 292 293 266 278 Q 247 266 209 294 Q 158 313 117 323 C 107 325 120 351 130 349 Q 137 348 145 345 Q 182 335 213 328 Q 234 322 239 331 Q 248 337 242 374 Q 238 411 231 453 C 228 468 274 477 277 462 Z"/></clipPath>
    <clipPath id="z22100c3"><path d="M 148 511 Q 155 511 164 510 Q 201 500 286 491 Q 296 490 297 480 Q 297 473 277 462 C 264 454 246 450 231 453 Q 224 454 218 456 Q 178 469 144 477 C 133 479 137 511 148 511 Z"/></clipPath>
    <clipPath id="z22100c4"><path d="M 582 205 Q 589 196 599 188 Q 612 178 607 169 Q 604 160 547 142 Q 532 136 490 157 Q 427 175 383 180 Q 367 181 377 194 Q 398 212 475 194 Q 497 187 506 197 Q 513 213 440 343 C 434 353 434 353 431 358 Q 413 383 397 411 Q 345 486 244 586 Q 234 599 246 598 Q 279 592 373 501 Q 374 498 379 495 Q 463 402 553 243 Q 559 233 568 221 C 577 210 577 210 582 205 Z"/></clipPath>
    <clipPath id="z22100c5"><path d="M 440 343 Q 439 331 431 315 Q 421 300 398 292 Q 362 279 347 276 Q 338 275 338 285 Q 335 294 393 346 Q 414 362 431 358 C 437 357 441 349 440 343 Z"/></clipPath>
    <clipPath id="z22100c6"><path d="M 635 243 Q 711 183 749 161 Q 764 157 760 147 Q 756 134 738 119 Q 722 103 702 102 Q 690 103 691 120 Q 695 138 623 231 C 620 236 630 246 635 243 Z"/></clipPath>
    <clipPath id="z22100c7"><path d="M 716 324 Q 806 275 850 256 Q 866 255 864 244 Q 861 229 846 210 Q 831 192 812 187 Q 799 186 797 203 Q 798 216 788 229 Q 758 262 702 311 C 697 315 710 327 716 324 Z"/></clipPath>
    <clipPath id="z22100c8"><path d="M 702 311 Q 671 280 635 243 C 627 235 627 235 623 231 Q 604 206 588 204 Q 584 204 582 205 C 575 206 562 217 568 221 Q 596 237 618 267 Q 789 495 822 502 Q 886 502 950 487 Q 965 486 970 478 Q 973 472 964 469 Q 808 403 748 352 Q 732 339 716 324 C 707 315 707 315 702 311 Z"/></clipPath>
    <clipPath id="z22100c9"><path d="M 473 416 Q 437 422 463 438 Q 503 462 557 447 Q 606 438 657 428 Q 679 422 683 419 Q 692 412 687 403 Q 680 393 652 385 Q 622 381 594 392 Q 569 399 540 407 Q 509 413 473 416 Z"/></clipPath>
    <clipPath id="z22100c10"><path d="M 463 525 Q 453 519 425 516 Q 415 513 411 518 Q 405 524 413 539 Q 437 582 452 657 Q 455 679 469 693 Q 485 714 490 699 Q 493 690 494 677 C 492 656 492 656 491 646 Q 479 577 478 554 C 478 543 473 530 463 525 Z"/></clipPath>
    <clipPath id="z22100c11"><path d="M 691 622 Q 716 567 741 553 Q 757 537 745 520 Q 673 465 631 490 Q 558 512 463 525 C 452 527 467 556 478 554 Q 488 551 634 526 Q 652 522 658 530 Q 665 537 663 550 Q 654 584 645 615 C 640 630 685 636 691 622 Z"/></clipPath>
    <clipPath id="z22100c12"><path d="M 671 655 Q 683 654 700 652 Q 710 651 711 643 Q 711 636 691 622 C 679 613 661 615 645 615 Q 642 614 640 615 Q 558 634 491 646 C 481 648 484 677 494 677 Q 500 677 508 676 Q 556 664 648 657 C 663 656 663 656 671 655 Z"/></clipPath>
    <clipPath id="z22100c13"><path d="M 436 751 Q 455 775 474 802 Q 484 815 498 817 Q 507 818 513 807 Q 520 795 516 768 Q 515 752 490 735 Q 432 702 420 705 Q 416 708 415 719 Q 416 729 436 751 Z"/></clipPath>
    <clipPath id="z22100c14"><path d="M 632 827 Q 636 820 643 813 Q 662 786 684 753 Q 694 738 710 720 Q 726 710 718 698 Q 699 662 671 655 C 663 653 651 650 648 657 Q 644 661 647 670 Q 656 703 607 810 Q 601 820 598 831 C 594 842 625 836 632 827 Z"/></clipPath>
    <clipPath id="z22100c15"><path d="M 598 831 Q 585 831 571 833 Q 459 843 325 854 Q 304 855 319 873 Q 332 888 350 894 Q 371 901 387 897 Q 579 854 841 875 Q 842 874 844 875 Q 863 876 869 868 Q 876 856 859 842 Q 802 796 748 811 Q 699 817 632 827 C 609 830 609 830 598 831 Z"/></clipPath>
</defs>
<g id="bg-layer">
    <path class="bg" d="M 117 323 Q 107 316 77 311 Q 64 307 61 312 Q 54 318 62 334 Q 89 398 102 500 Q 103 531 120 552 Q 136 574 143 559 Q 150 541 148 511 C 145 488 145 488 144 477 Q 131 377 130 349 C 130 339 126 327 117 323 Z"/>
    <path class="bg" d="M 277 462 Q 290 369 313 340 Q 334 315 311 302 Q 292 293 266 278 Q 247 266 209 294 Q 158 313 117 323 C 107 325 120 351 130 349 Q 137 348 145 345 Q 182 335 213 328 Q 234 322 239 331 Q 248 337 242 374 Q 238 411 231 453 C 228 468 274 477 277 462 Z"/>
    <path class="bg" d="M 148 511 Q 155 511 164 510 Q 201 500 286 491 Q 296 490 297 480 Q 297 473 277 462 C 264 454 246 450 231 453 Q 224 454 218 456 Q 178 469 144 477 C 133 479 137 511 148 511 Z"/>
    <path class="bg" d="M 582 205 Q 589 196 599 188 Q 612 178 607 169 Q 604 160 547 142 Q 532 136 490 157 Q 427 175 383 180 Q 367 181 377 194 Q 398 212 475 194 Q 497 187 506 197 Q 513 213 440 343 C 434 353 434 353 431 358 Q 413 383 397 411 Q 345 486 244 586 Q 234 599 246 598 Q 279 592 373 501 Q 374 498 379 495 Q 463 402 553 243 Q 559 233 568 221 C 577 210 577 210 582 205 Z"/>
    <path class="bg" d="M 440 343 Q 439 331 431 315 Q 421 300 398 292 Q 362 279 347 276 Q 338 275 338 285 Q 335 294 393 346 Q 414 362 431 358 C 437 357 441 349 440 343 Z"/>
    <path class="bg" d="M 635 243 Q 711 183 749 161 Q 764 157 760 147 Q 756 134 738 119 Q 722 103 702 102 Q 690 103 691 120 Q 695 138 623 231 C 620 236 630 246 635 243 Z"/>
    <path class="bg" d="M 716 324 Q 806 275 850 256 Q 866 255 864 244 Q 861 229 846 210 Q 831 192 812 187 Q 799 186 797 203 Q 798 216 788 229 Q 758 262 702 311 C 697 315 710 327 716 324 Z"/>
    <path class="bg" d="M 702 311 Q 671 280 635 243 C 627 235 627 235 623 231 Q 604 206 588 204 Q 584 204 582 205 C 575 206 562 217 568 221 Q 596 237 618 267 Q 789 495 822 502 Q 886 502 950 487 Q 965 486 970 478 Q 973 472 964 469 Q 808 403 748 352 Q 732 339 716 324 C 707 315 707 315 702 311 Z"/>
    <path class="bg" d="M 473 416 Q 437 422 463 438 Q 503 462 557 447 Q 606 438 657 428 Q 679 422 683 419 Q 692 412 687 403 Q 680 393 652 385 Q 622 381 594 392 Q 569 399 540 407 Q 509 413 473 416 Z"/>
    <path class="bg" d="M 463 525 Q 453 519 425 516 Q 415 513 411 518 Q 405 524 413 539 Q 437 582 452 657 Q 455 679 469 693 Q 485 714 490 699 Q 493 690 494 677 C 492 656 492 656 491 646 Q 479 577 478 554 C 478 543 473 530 463 525 Z"/>
    <path class="bg" d="M 691 622 Q 716 567 741 553 Q 757 537 745 520 Q 673 465 631 490 Q 558 512 463 525 C 452 527 467 556 478 554 Q 488 551 634 526 Q 652 522 658 530 Q 665 537 663 550 Q 654 584 645 615 C 640 630 685 636 691 622 Z"/>
    <path class="bg" d="M 671 655 Q 683 654 700 652 Q 710 651 711 643 Q 711 636 691 622 C 679 613 661 615 645 615 Q 642 614 640 615 Q 558 634 491 646 C 481 648 484 677 494 677 Q 500 677 508 676 Q 556 664 648 657 C 663 656 663 656 671 655 Z"/>
    <path class="bg" d="M 436 751 Q 455 775 474 802 Q 484 815 498 817 Q 507 818 513 807 Q 520 795 516 768 Q 515 752 490 735 Q 432 702 420 705 Q 416 708 415 719 Q 416 729 436 751 Z"/>
    <path class="bg" d="M 632 827 Q 636 820 643 813 Q 662 786 684 753 Q 694 738 710 720 Q 726 710 718 698 Q 699 662 671 655 C 663 653 651 650 648 657 Q 644 661 647 670 Q 656 703 607 810 Q 601 820 598 831 C 594 842 625 836 632 827 Z"/>
    <path class="bg" d="M 598 831 Q 585 831 571 833 Q 459 843 325 854 Q 304 855 319 873 Q 332 888 350 894 Q 371 901 387 897 Q 579 854 841 875 Q 842 874 844 875 Q 863 876 869 868 Q 876 856 859 842 Q 802 796 748 811 Q 699 817 632 827 C 609 830 609 830 598 831 Z"/>
</g>
<g id="anim-layer">
    <path style="--d:1s; stroke:#FF4444;" pathLength="3333" clip-path="url(#z22100c1)" d="M 66 317 L 101 357 L 131 559"/>
    <path style="--d:2s; stroke:#FF4444;" pathLength="3333" clip-path="url(#z22100c2)" d="M 126 326 L 244 300 L 279 325 L 263 458"/>
    <path style="--d:3s; stroke:#FF4444;" pathLength="3333" clip-path="url(#z22100c3)" d="M 154 503 L 231 475 L 290 483"/>
    <path style="--d:4s; stroke:#000;" pathLength="3333" clip-path="url(#z22100c4)" d="M 381 185 L 517 168 L 556 190 L 401 439 L 248 592"/>
    <path style="--d:5s; stroke:#000;" pathLength="3333" clip-path="url(#z22100c5)" d="M 347 285 L 428 352"/>
    <path style="--d:6s; stroke:#000;" pathLength="3333" clip-path="url(#z22100c6)" d="M 753 149 L 705 144 L 631 237"/>
    <path style="--d:7s; stroke:#000;" pathLength="3333" clip-path="url(#z22100c7)" d="M 810 190 L 824 240 L 714 311"/>
    <path style="--d:8s; stroke:#000;" pathLength="3333" clip-path="url(#z22100c8)" d="M 577 218 L 825 453 L 964 477"/>
    <path style="--d:9s; stroke:#000;" pathLength="3333" clip-path="url(#z22100c9)" d="M 460 425 L 682 406"/>
    <path style="--d:10s; stroke:#000;" pathLength="3333" clip-path="url(#z22100c10)" d="M 416 523 L 453 564 L 483 697"/>
    <path style="--d:11s; stroke:#000;" pathLength="3333" clip-path="url(#z22100c11)" d="M 473 530 L 678 511 L 705 542 L 660 617"/>
    <path style="--d:12s; stroke:#000;" pathLength="3333" clip-path="url(#z22100c12)" d="M 502 669 L 703 638"/>
    <path style="--d:13s; stroke:#000;" pathLength="3333" clip-path="url(#z22100c13)" d="M 424 714 L 483 764 L 504 812"/>
    <path style="--d:14s; stroke:#000;" pathLength="3333" clip-path="url(#z22100c14)" d="M 654 662 L 683 707 L 607 826"/>
    <path style="--d:15s; stroke:#000;" pathLength="3333" clip-path="url(#z22100c15)" d="M 320 862 L 375 874 L 759 839 L 866 859"/>
</g>
</svg>