<svg id="z22369" class="acjk" viewBox="0 0 1024 1024" xmlns="http://www.w3.org/2000/svg">

<style>
<![CDATA[
@keyframes zk { to { stroke-dashoffset:0; } }
svg.acjk path[clip-path] {
    --t:0.8s;
    animation:zk var(--t) linear forwards var(--d);
    stroke-dasharray:3337;
    stroke-dashoffset:3339;
    stroke-width:128;
    stroke-linecap:round;
    fill:none;
}
/* Low opacity for background improves visual overlap at intersections */
svg.acjk .bg { fill:#ccc; opacity: 0.5; } 
]]>
</style>
<defs>
    <clipPath id="z22369c1"><path d="M 274 451 C 324 436 352 427 357 423 C 361 418 363 412 360 407 C 355 399 343 395 323 392 C 306 389 291 392 276 398 C 245 409 245 409 229 414 C 193 426 157 434 122 443 C 99 448 95 458 114 466 C 156 482 193 473 228 464 C 259 455 259 455 274 451 Z"/></clipPath>
    <clipPath id="z22369c2"><path d="M 266 616 C 268 559 271 504 274 451 C 275 416 275 416 276 398 C 279 308 284 235 300 181 C 302 173 297 161 283 153 C 259 138 237 131 221 129 C 188 124 186 140 197 158 C 235 223 231 292 229 414 C 228 447 228 447 228 464 C 226 518 225 575 222 634 C 222 650 266 632 266 616 Z"/></clipPath>
    <clipPath id="z22369c3"><path d="M 222 634 C 169 655 122 680 72 685 C 63 685 59 691 59 698 C 58 706 60 714 68 719 C 84 728 103 738 127 747 C 133 749 141 745 149 739 C 209 686 289 645 358 597 C 375 584 371 570 351 579 C 324 590 296 603 266 616 C 237 628 237 628 222 634 Z"/></clipPath>
    <clipPath id="z22369c4"><path d="M 647 314 C 687 305 741 289 762 296 C 774 299 776 310 776 316 C 775 317 767 342 751 399 C 743 425 758 420 774 405 C 806 373 836 349 865 335 C 888 323 897 313 897 308 C 895 302 872 285 825 258 C 814 251 793 247 761 254 C 722 264 683 274 649 282 C 616 289 616 289 600 293 C 549 304 506 314 459 324 C 446 327 471 361 484 356 C 505 347 555 333 600 324 C 631 317 631 317 647 314 Z"/></clipPath>
    <clipPath id="z22369c5"><path d="M 459 324 C 433 310 415 304 406 306 C 393 308 392 316 402 332 C 410 345 415 365 417 393 C 425 567 378 749 245 860 C 220 880 229 892 252 879 C 440 778 465 564 478 393 C 479 378 482 364 484 356 C 487 343 471 330 459 324 Z"/></clipPath>
    <clipPath id="z22369c6"><path d="M 638 490 C 640 429 643 370 647 314 C 648 293 648 293 649 282 C 652 226 656 166 671 102 C 672 93 668 84 654 76 C 630 62 610 55 594 53 C 569 48 560 63 571 81 C 610 144 600 229 600 293 C 600 314 600 314 600 324 C 600 380 598 440 595 502 C 595 517 638 505 638 490 Z"/></clipPath>
    <clipPath id="z22369c7"><path d="M 667 719 C 693 669 711 626 732 565 C 738 546 748 530 761 519 C 772 508 775 498 766 491 C 757 483 743 477 723 470 C 711 465 684 477 638 490 C 609 498 609 498 595 502 C 573 508 546 509 515 512 C 506 512 500 514 498 519 C 495 523 499 528 511 533 C 533 541 560 543 591 534 C 628 522 643 516 657 516 C 673 515 677 527 676 546 C 673 574 651 645 633 682 C 626 694 619 707 611 719 C 571 771 527 810 461 833 C 393 856 427 863 474 859 C 532 853 595 809 640 758 C 650 745 659 732 667 719 Z"/></clipPath>
    <clipPath id="z22369c8"><path d="M 640 758 C 668 796 708 842 761 893 C 779 910 803 916 833 915 C 881 912 920 909 961 898 C 968 895 977 890 958 882 C 946 876 902 856 823 828 C 775 810 720 777 667 719 C 644 694 644 694 633 682 C 610 657 586 629 563 598 C 550 581 533 569 511 565 C 504 563 496 563 491 568 C 486 571 488 577 494 582 C 544 625 575 670 611 719 C 630 745 630 745 640 758 Z"/></clipPath>
</defs>
<g id="bg-layer">
    <path class="bg" d="M 274 451 C 324 436 352 427 357 423 C 361 418 363 412 360 407 C 355 399 343 395 323 392 C 306 389 291 392 276 398 C 245 409 245 409 229 414 C 193 426 157 434 122 443 C 99 448 95 458 114 466 C 156 482 193 473 228 464 C 259 455 259 455 274 451 Z"/>
    <path class="bg" d="M 266 616 C 268 559 271 504 274 451 C 275 416 275 416 276 398 C 279 308 284 235 300 181 C 302 173 297 161 283 153 C 259 138 237 131 221 129 C 188 124 186 140 197 158 C 235 223 231 292 229 414 C 228 447 228 447 228 464 C 226 518 225 575 222 634 C 222 650 266 632 266 616 Z"/>
    <path class="bg" d="M 222 634 C 169 655 122 680 72 685 C 63 685 59 691 59 698 C 58 706 60 714 68 719 C 84 728 103 738 127 747 C 133 749 141 745 149 739 C 209 686 289 645 358 597 C 375 584 371 570 351 579 C 324 590 296 603 266 616 C 237 628 237 628 222 634 Z"/>
    <path class="bg" d="M 647 314 C 687 305 741 289 762 296 C 774 299 776 310 776 316 C 775 317 767 342 751 399 C 743 425 758 420 774 405 C 806 373 836 349 865 335 C 888 323 897 313 897 308 C 895 302 872 285 825 258 C 814 251 793 247 761 254 C 722 264 683 274 649 282 C 616 289 616 289 600 293 C 549 304 506 314 459 324 C 446 327 471 361 484 356 C 505 347 555 333 600 324 C 631 317 631 317 647 314 Z"/>
    <path class="bg" d="M 459 324 C 433 310 415 304 406 306 C 393 308 392 316 402 332 C 410 345 415 365 417 393 C 425 567 378 749 245 860 C 220 880 229 892 252 879 C 440 778 465 564 478 393 C 479 378 482 364 484 356 C 487 343 471 330 459 324 Z"/>
    <path class="bg" d="M 638 490 C 640 429 643 370 647 314 C 648 293 648 293 649 282 C 652 226 656 166 671 102 C 672 93 668 84 654 76 C 630 62 610 55 594 53 C 569 48 560 63 571 81 C 610 144 600 229 600 293 C 600 314 600 314 600 324 C 600 380 598 440 595 502 C 595 517 638 505 638 490 Z"/>
    <path class="bg" d="M 667 719 C 693 669 711 626 732 565 C 738 546 748 530 761 519 C 772 508 775 498 766 491 C 757 483 743 477 723 470 C 711 465 684 477 638 490 C 609 498 609 498 595 502 C 573 508 546 509 515 512 C 506 512 500 514 498 519 C 495 523 499 528 511 533 C 533 541 560 543 591 534 C 628 522 643 516 657 516 C 673 515 677 527 676 546 C 673 574 651 645 633 682 C 626 694 619 707 611 719 C 571 771 527 810 461 833 C 393 856 427 863 474 859 C 532 853 595 809 640 758 C 650 745 659 732 667 719 Z"/>
    <path class="bg" d="M 640 758 C 668 796 708 842 761 893 C 779 910 803 916 833 915 C 881 912 920 909 961 898 C 968 895 977 890 958 882 C 946 876 902 856 823 828 C 775 810 720 777 667 719 C 644 694 644 694 633 682 C 610 657 586 629 563 598 C 550 581 533 569 511 565 C 504 563 496 563 491 568 C 486 571 488 577 494 582 C 544 625 575 670 611 719 C 630 745 630 745 640 758 Z"/>
</g>
<g id="anim-layer">
    <path style="--d:1s; stroke:#FF4444;" pathLength="3333" clip-path="url(#z22369c1)" d="M 108 454 L 357 412"/>
    <path style="--d:2s; stroke:#FF4444;" pathLength="3333" clip-path="url(#z22369c2)" d="M 198 135 L 257 182 L 232 635"/>
    <path style="--d:3s; stroke:#FF4444;" pathLength="3333" clip-path="url(#z22369c3)" d="M 65 696 L 125 711 L 361 582"/>
    <path style="--d:4s; stroke:#000;" pathLength="3333" clip-path="url(#z22369c4)" d="M 461 332 L 793 278 L 842 320 L 755 410"/>
    <path style="--d:5s; stroke:#000;" pathLength="3333" clip-path="url(#z22369c5)" d="M 401 312 L 449 362 L 416 629 L 346 776 L 238 879"/>
    <path style="--d:6s; stroke:#000;" pathLength="3333" clip-path="url(#z22369c6)" d="M 573 60 L 631 113 L 608 505"/>
    <path style="--d:7s; stroke:#000;" pathLength="3333" clip-path="url(#z22369c7)" d="M 505 522 L 674 498 L 723 522 L 624 740 L 539 816 L 430 852"/>
    <path style="--d:8s; stroke:#000;" pathLength="3333" clip-path="url(#z22369c8)" d="M 495 572 L 776 852 L 963 889"/>
</g>
</svg>