<svg id="z22367" class="acjk" viewBox="0 0 1024 1024" xmlns="http://www.w3.org/2000/svg">

<style>
<![CDATA[
@keyframes zk { to { stroke-dashoffset:0; } }
svg.acjk path[clip-path] {
    --t:0.8s;
    animation:zk var(--t) linear forwards var(--d);
    stroke-dasharray:3337;
    stroke-dashoffset:3339;
    stroke-width:128;
    stroke-linecap:round;
    fill:none;
}
/* Low opacity for background improves visual overlap at intersections */
svg.acjk .bg { fill:#ccc; opacity: 0.5; } 
]]>
</style>
<defs>
    <clipPath id="z22367c1"><path d="M 308 400 Q 386 372 390 369 Q 399 359 393 352 Q 384 340 353 336 Q 329 335 310 343 C 274 358 274 358 256 366 Q 189 390 125 405 Q 89 415 118 429 Q 164 450 218 428 Q 237 422 257 416 C 291 405 291 405 308 400 Z"/></clipPath>
    <clipPath id="z22367c2"><path d="M 299 610 Q 303 501 308 400 C 309 362 309 362 310 343 Q 311 277 331 174 Q 335 162 313 146 Q 273 125 247 121 Q 228 118 220 128 Q 211 135 221 153 Q 249 193 250 221 Q 254 291 256 366 C 257 399 257 399 257 416 Q 257 516 253 627 C 253 643 299 626 299 610 Z"/></clipPath>
    <clipPath id="z22367c3"><path d="M 253 627 Q 199 645 144 665 Q 125 672 95 673 Q 82 676 80 687 Q 79 700 89 709 Q 114 725 152 742 Q 162 745 175 735 Q 203 708 370 617 Q 392 604 409 590 Q 422 581 422 571 Q 416 565 403 569 Q 354 588 299 610 C 268 621 268 621 253 627 Z"/></clipPath>
    <clipPath id="z22367c4"><path d="M 566 155 Q 606 182 647 214 Q 663 227 681 225 Q 693 224 697 208 Q 700 192 687 160 Q 672 123 556 103 Q 538 102 532 105 Q 526 109 530 123 Q 534 135 566 155 Z"/></clipPath>
    <clipPath id="z22367c5"><path d="M 684 359 Q 775 340 869 320 Q 870 316 874 313 Q 875 300 849 290 Q 810 268 728 299 Q 695 306 663 317 Q 590 336 525 348 Q 479 355 427 365 Q 396 369 421 388 Q 460 413 498 402 Q 564 384 645 367 C 671 362 671 362 684 359 Z"/></clipPath>
    <clipPath id="z22367c6"><path d="M 662 667 Q 714 582 725 457 Q 726 427 733 408 Q 737 395 729 387 Q 707 368 684 359 C 672 354 640 355 645 367 Q 690 499 627 630 C 610 657 610 657 601 670 Q 531 751 384 811 Q 363 814 355 823 Q 349 827 359 832 Q 365 833 379 831 Q 482 813 554 770 Q 600 745 630 709 C 651 681 651 681 662 667 Z"/></clipPath>
    <clipPath id="z22367c7"><path d="M 630 709 Q 733 848 760 858 Q 820 870 928 859 Q 947 858 954 850 Q 958 843 946 838 Q 786 780 736 736 Q 727 732 662 667 C 639 642 639 642 627 630 Q 576 572 517 497 Q 505 476 486 474 Q 458 473 450 480 Q 447 486 456 492 Q 495 516 519 554 Q 561 614 601 670 C 620 696 620 696 630 709 Z"/></clipPath>
</defs>
<g id="bg-layer">
    <path class="bg" d="M 308 400 Q 386 372 390 369 Q 399 359 393 352 Q 384 340 353 336 Q 329 335 310 343 C 274 358 274 358 256 366 Q 189 390 125 405 Q 89 415 118 429 Q 164 450 218 428 Q 237 422 257 416 C 291 405 291 405 308 400 Z"/>
    <path class="bg" d="M 299 610 Q 303 501 308 400 C 309 362 309 362 310 343 Q 311 277 331 174 Q 335 162 313 146 Q 273 125 247 121 Q 228 118 220 128 Q 211 135 221 153 Q 249 193 250 221 Q 254 291 256 366 C 257 399 257 399 257 416 Q 257 516 253 627 C 253 643 299 626 299 610 Z"/>
    <path class="bg" d="M 253 627 Q 199 645 144 665 Q 125 672 95 673 Q 82 676 80 687 Q 79 700 89 709 Q 114 725 152 742 Q 162 745 175 735 Q 203 708 370 617 Q 392 604 409 590 Q 422 581 422 571 Q 416 565 403 569 Q 354 588 299 610 C 268 621 268 621 253 627 Z"/>
    <path class="bg" d="M 566 155 Q 606 182 647 214 Q 663 227 681 225 Q 693 224 697 208 Q 700 192 687 160 Q 672 123 556 103 Q 538 102 532 105 Q 526 109 530 123 Q 534 135 566 155 Z"/>
    <path class="bg" d="M 684 359 Q 775 340 869 320 Q 870 316 874 313 Q 875 300 849 290 Q 810 268 728 299 Q 695 306 663 317 Q 590 336 525 348 Q 479 355 427 365 Q 396 369 421 388 Q 460 413 498 402 Q 564 384 645 367 C 671 362 671 362 684 359 Z"/>
    <path class="bg" d="M 662 667 Q 714 582 725 457 Q 726 427 733 408 Q 737 395 729 387 Q 707 368 684 359 C 672 354 640 355 645 367 Q 690 499 627 630 C 610 657 610 657 601 670 Q 531 751 384 811 Q 363 814 355 823 Q 349 827 359 832 Q 365 833 379 831 Q 482 813 554 770 Q 600 745 630 709 C 651 681 651 681 662 667 Z"/>
    <path class="bg" d="M 630 709 Q 733 848 760 858 Q 820 870 928 859 Q 947 858 954 850 Q 958 843 946 838 Q 786 780 736 736 Q 727 732 662 667 C 639 642 639 642 627 630 Q 576 572 517 497 Q 505 476 486 474 Q 458 473 450 480 Q 447 486 456 492 Q 495 516 519 554 Q 561 614 601 670 C 620 696 620 696 630 709 Z"/>
</g>
<g id="anim-layer">
    <path style="--d:1s; stroke:#FF4444;" pathLength="3333" clip-path="url(#z22367c1)" d="M 113 418 L 387 354"/>
    <path style="--d:2s; stroke:#FF4444;" pathLength="3333" clip-path="url(#z22367c2)" d="M 220 137 L 289 190 L 262 622"/>
    <path style="--d:3s; stroke:#FF4444;" pathLength="3333" clip-path="url(#z22367c3)" d="M 84 688 L 160 701 L 416 575"/>
    <path style="--d:4s; stroke:#000;" pathLength="3333" clip-path="url(#z22367c4)" d="M 536 113 L 639 163 L 689 215"/>
    <path style="--d:5s; stroke:#000;" pathLength="3333" clip-path="url(#z22367c5)" d="M 416 373 L 480 380 L 868 307"/>
    <path style="--d:6s; stroke:#000;" pathLength="3333" clip-path="url(#z22367c6)" d="M 652 371 L 694 406 L 694 458 L 678 567 L 636 661 L 525 762 L 364 825"/>
    <path style="--d:7s; stroke:#000;" pathLength="3333" clip-path="url(#z22367c7)" d="M 460 486 L 494 497 L 757 803 L 948 846"/>
</g>
</svg>