<svg id="z22436" class="acjk" viewBox="0 0 1024 1024" xmlns="http://www.w3.org/2000/svg">

<style>
<![CDATA[
@keyframes zk { to { stroke-dashoffset:0; } }
svg.acjk path[clip-path] {
    --t:0.8s;
    animation:zk var(--t) linear forwards var(--d);
    stroke-dasharray:3337;
    stroke-dashoffset:3339;
    stroke-width:128;
    stroke-linecap:round;
    fill:none;
}
/* Low opacity for background improves visual overlap at intersections */
svg.acjk .bg { fill:#ccc; opacity: 0.5; } 
]]>
</style>
<defs>
    <clipPath id="z22436c1"><path d="M 290 424 Q 383 394 385 393 Q 394 384 388 376 Q 381 364 350 359 Q 319 355 292 369 C 259 382 259 382 242 389 Q 136 417 115 421 Q 78 431 106 445 Q 148 463 234 440 Q 237 439 242 438 C 274 429 274 429 290 424 Z"/></clipPath>
    <clipPath id="z22436c2"><path d="M 282 607 Q 286 513 290 424 C 291 387 291 387 292 369 Q 295 255 313 191 Q 316 179 295 164 Q 258 145 233 141 Q 217 138 208 147 Q 201 154 209 170 Q 237 210 237 237 Q 241 310 242 389 C 242 422 242 422 242 438 Q 242 525 238 622 C 238 637 282 622 282 607 Z"/></clipPath>
    <clipPath id="z22436c3"><path d="M 238 622 Q 108 664 79 667 Q 64 668 63 681 Q 62 696 73 704 Q 100 720 138 739 Q 150 742 162 731 Q 198 698 351 617 Q 373 604 389 590 Q 402 581 402 571 Q 396 565 382 569 Q 333 587 282 607 C 253 617 253 617 238 622 Z"/></clipPath>
    <clipPath id="z22436c4"><path d="M 587 229 Q 663 213 746 198 Q 788 188 795 183 Q 804 174 799 165 Q 792 152 760 144 Q 736 138 623 171 Q 527 192 471 196 Q 431 203 459 221 Q 490 240 543 238 C 572 232 572 232 587 229 Z"/></clipPath>
    <clipPath id="z22436c5"><path d="M 594 457 Q 672 432 750 416 C 760 414 742 391 732 393 Q 629 409 521 437 Q 509 441 506 438 Q 505 435 510 426 Q 607 305 627 286 Q 640 276 634 263 Q 628 251 587 229 C 574 221 541 223 543 238 Q 543 242 545 247 Q 563 311 458 418 Q 398 460 409 482 Q 416 494 436 511 Q 446 521 461 511 Q 498 481 558 467 C 582 460 582 460 594 457 Z"/></clipPath>
    <clipPath id="z22436c6"><path d="M 750 416 Q 766 435 782 459 Q 792 474 807 477 Q 817 478 825 467 Q 832 454 830 424 Q 827 384 721 326 Q 708 320 700 321 Q 696 324 694 336 Q 694 339 732 393 C 744 408 744 408 750 416 Z"/></clipPath>
    <clipPath id="z22436c7"><path d="M 628 649 Q 673 639 722 631 Q 764 622 770 616 Q 780 607 775 598 Q 768 585 735 575 Q 705 569 630 593 C 594 602 594 602 576 607 Q 539 619 444 626 Q 402 633 432 652 Q 477 679 553 662 Q 563 659 577 659 C 611 652 611 652 628 649 Z"/></clipPath>
    <clipPath id="z22436c8"><path d="M 623 767 Q 624 704 628 649 C 629 612 629 612 630 593 Q 631 566 632 541 Q 633 525 634 514 Q 641 495 631 486 Q 612 467 594 457 C 583 451 553 455 558 467 Q 573 495 576 598 Q 575 601 576 607 C 577 642 577 642 577 659 Q 577 707 578 774 C 578 789 623 782 623 767 Z"/></clipPath>
    <clipPath id="z22436c9"><path d="M 578 774 Q 476 787 358 803 Q 334 806 352 825 Q 386 855 439 844 Q 565 810 860 810 Q 882 810 888 800 Q 894 787 875 772 Q 809 726 758 742 Q 703 752 623 767 C 593 772 593 772 578 774 Z"/></clipPath>
</defs>
<g id="bg-layer">
    <path class="bg" d="M 290 424 Q 383 394 385 393 Q 394 384 388 376 Q 381 364 350 359 Q 319 355 292 369 C 259 382 259 382 242 389 Q 136 417 115 421 Q 78 431 106 445 Q 148 463 234 440 Q 237 439 242 438 C 274 429 274 429 290 424 Z"/>
    <path class="bg" d="M 282 607 Q 286 513 290 424 C 291 387 291 387 292 369 Q 295 255 313 191 Q 316 179 295 164 Q 258 145 233 141 Q 217 138 208 147 Q 201 154 209 170 Q 237 210 237 237 Q 241 310 242 389 C 242 422 242 422 242 438 Q 242 525 238 622 C 238 637 282 622 282 607 Z"/>
    <path class="bg" d="M 238 622 Q 108 664 79 667 Q 64 668 63 681 Q 62 696 73 704 Q 100 720 138 739 Q 150 742 162 731 Q 198 698 351 617 Q 373 604 389 590 Q 402 581 402 571 Q 396 565 382 569 Q 333 587 282 607 C 253 617 253 617 238 622 Z"/>
    <path class="bg" d="M 587 229 Q 663 213 746 198 Q 788 188 795 183 Q 804 174 799 165 Q 792 152 760 144 Q 736 138 623 171 Q 527 192 471 196 Q 431 203 459 221 Q 490 240 543 238 C 572 232 572 232 587 229 Z"/>
    <path class="bg" d="M 594 457 Q 672 432 750 416 C 760 414 742 391 732 393 Q 629 409 521 437 Q 509 441 506 438 Q 505 435 510 426 Q 607 305 627 286 Q 640 276 634 263 Q 628 251 587 229 C 574 221 541 223 543 238 Q 543 242 545 247 Q 563 311 458 418 Q 398 460 409 482 Q 416 494 436 511 Q 446 521 461 511 Q 498 481 558 467 C 582 460 582 460 594 457 Z"/>
    <path class="bg" d="M 750 416 Q 766 435 782 459 Q 792 474 807 477 Q 817 478 825 467 Q 832 454 830 424 Q 827 384 721 326 Q 708 320 700 321 Q 696 324 694 336 Q 694 339 732 393 C 744 408 744 408 750 416 Z"/>
    <path class="bg" d="M 628 649 Q 673 639 722 631 Q 764 622 770 616 Q 780 607 775 598 Q 768 585 735 575 Q 705 569 630 593 C 594 602 594 602 576 607 Q 539 619 444 626 Q 402 633 432 652 Q 477 679 553 662 Q 563 659 577 659 C 611 652 611 652 628 649 Z"/>
    <path class="bg" d="M 623 767 Q 624 704 628 649 C 629 612 629 612 630 593 Q 631 566 632 541 Q 633 525 634 514 Q 641 495 631 486 Q 612 467 594 457 C 583 451 553 455 558 467 Q 573 495 576 598 Q 575 601 576 607 C 577 642 577 642 577 659 Q 577 707 578 774 C 578 789 623 782 623 767 Z"/>
    <path class="bg" d="M 578 774 Q 476 787 358 803 Q 334 806 352 825 Q 386 855 439 844 Q 565 810 860 810 Q 882 810 888 800 Q 894 787 875 772 Q 809 726 758 742 Q 703 752 623 767 C 593 772 593 772 578 774 Z"/>
</g>
<g id="anim-layer">
    <path style="--d:1s; stroke:#FF4444;" pathLength="3333" clip-path="url(#z22436c1)" d="M 102 434 L 385 382"/>
    <path style="--d:2s; stroke:#FF4444;" pathLength="3333" clip-path="url(#z22436c2)" d="M 212 153 L 274 206 L 248 614"/>
    <path style="--d:3s; stroke:#FF4444;" pathLength="3333" clip-path="url(#z22436c3)" d="M 67 682 L 143 696 L 394 576"/>
    <path style="--d:4s; stroke:#000;" pathLength="3333" clip-path="url(#z22436c4)" d="M 455 207 L 537 213 L 797 172"/>
    <path style="--d:5s; stroke:#000;" pathLength="3333" clip-path="url(#z22436c5)" d="M 550 245 L 590 280 L 458 450 L 469 473 L 740 409"/>
    <path style="--d:6s; stroke:#000;" pathLength="3333" clip-path="url(#z22436c6)" d="M 704 325 L 789 412 L 815 470"/>
    <path style="--d:7s; stroke:#000;" pathLength="3333" clip-path="url(#z22436c7)" d="M 428 637 L 510 644 L 772 602"/>
    <path style="--d:8s; stroke:#000;" pathLength="3333" clip-path="url(#z22436c8)" d="M 566 472 L 603 508 L 598 770"/>
    <path style="--d:9s; stroke:#000;" pathLength="3333" clip-path="url(#z22436c9)" d="M 351 813 L 780 774 L 885 794"/>
</g>
</svg>