<svg id="z22616" class="acjk" viewBox="0 0 1024 1024" xmlns="http://www.w3.org/2000/svg">

<style>
<![CDATA[
@keyframes zk { to { stroke-dashoffset:0; } }
svg.acjk path[clip-path] {
    --t:0.8s;
    animation:zk var(--t) linear forwards var(--d);
    stroke-dasharray:3337;
    stroke-dashoffset:3339;
    stroke-width:128;
    stroke-linecap:round;
    fill:none;
}
/* Low opacity for background improves visual overlap at intersections */
svg.acjk .bg { fill:#ccc; opacity: 0.5; } 
]]>
</style>
<defs>
    <clipPath id="z22616c1"><path d="M 288 392 C 342 377 372 366 377 362 C 381 357 383 351 380 346 C 375 338 363 334 345 332 C 333 330 313 335 290 343 C 259 353 259 353 244 358 C 201 371 163 382 129 389 C 106 393 104 403 122 411 C 167 429 203 415 244 404 C 273 396 273 396 288 392 Z"/></clipPath>
    <clipPath id="z22616c2"><path d="M 280 562 C 282 503 285 446 288 392 C 289 359 289 359 290 343 C 292 284 296 225 310 168 C 311 161 308 151 294 143 C 272 129 251 123 236 121 C 225 119 217 121 212 127 C 207 131 206 139 213 149 C 253 211 244 294 244 358 C 244 389 244 389 244 404 C 244 460 242 518 240 580 C 240 595 280 577 280 562 Z"/></clipPath>
    <clipPath id="z22616c3"><path d="M 240 580 C 180 606 125 636 68 643 C 59 644 54 649 54 657 C 53 665 56 673 64 678 C 80 687 100 697 126 706 C 132 708 139 703 148 698 C 219 647 293 597 366 546 C 374 539 379 532 377 527 C 374 522 366 523 359 526 C 333 535 308 549 280 562 C 253 574 253 574 240 580 Z"/></clipPath>
    <clipPath id="z22616c4"><path d="M 601 90 C 617 102 635 116 654 132 C 662 139 672 143 683 142 C 689 141 694 136 697 128 C 699 118 697 103 690 85 C 681 64 649 50 593 44 C 582 42 574 43 572 45 C 568 47 567 53 570 61 C 571 67 583 77 601 90 Z"/></clipPath>
    <clipPath id="z22616c5"><path d="M 483 249 C 509 255 531 254 552 251 C 729 218 822 199 830 194 C 835 189 837 184 834 179 C 829 172 819 165 802 161 C 785 156 738 172 658 190 C 601 202 530 212 469 220 C 458 222 472 247 483 249 Z"/></clipPath>
    <clipPath id="z22616c6"><path d="M 469 220 C 441 198 419 188 406 195 C 397 198 394 206 400 215 C 412 235 420 263 417 299 C 414 508 355 684 239 859 C 220 888 234 884 261 860 C 408 721 443 542 468 324 C 472 288 475 263 483 249 C 489 240 478 226 469 220 Z"/></clipPath>
    <clipPath id="z22616c7"><path d="M 777 564 C 783 531 789 504 799 484 C 812 456 812 456 818 442 C 825 425 836 415 845 406 C 856 394 856 380 846 371 C 836 361 813 351 780 338 C 768 333 755 334 742 340 C 716 350 692 362 668 369 C 634 378 634 378 617 383 C 578 393 538 398 499 405 C 469 410 489 421 506 429 C 521 435 540 433 563 426 C 579 420 598 418 618 414 C 649 407 649 407 664 404 C 685 399 705 391 726 389 C 771 382 764 428 759 454 C 754 477 754 477 752 488 C 746 514 738 540 731 565 C 726 580 774 579 777 564 Z"/></clipPath>
    <clipPath id="z22616c8"><path d="M 617 479 C 567 487 515 494 461 502 C 450 503 448 508 457 517 C 464 524 473 529 483 532 C 493 535 503 534 512 532 C 544 521 579 512 616 507 C 643 503 643 503 656 501 C 667 499 698 492 752 488 C 783 485 783 485 799 484 C 829 481 861 479 898 479 C 910 478 923 478 936 478 C 960 477 960 461 946 451 C 929 439 911 431 892 431 C 866 429 841 437 818 442 C 779 450 779 450 759 454 C 712 463 679 468 659 472 C 631 477 631 477 617 479 Z"/></clipPath>
    <clipPath id="z22616c9"><path d="M 611 593 C 569 602 529 605 494 610 C 481 611 475 621 486 629 C 520 651 570 629 608 624 C 633 620 633 620 646 618 C 688 611 740 605 797 600 C 826 597 800 575 777 564 C 764 556 746 562 731 565 C 702 571 674 577 649 584 C 624 590 624 590 611 593 Z"/></clipPath>
    <clipPath id="z22616c10"><path d="M 618 414 C 618 433 617 455 617 479 C 616 498 616 498 616 507 C 614 536 613 567 611 593 C 609 614 609 614 608 624 C 606 641 605 659 613 681 C 615 687 621 690 627 686 C 638 677 642 653 646 618 C 648 595 648 595 649 584 C 651 555 653 527 656 501 C 658 482 658 482 659 472 C 661 447 661 426 664 404 C 667 381 667 381 668 369 C 669 352 672 339 676 330 C 680 319 680 309 673 302 C 664 292 652 284 636 277 C 623 270 609 269 596 276 C 588 279 590 286 597 297 C 610 319 615 348 617 383 C 618 404 618 404 618 414 Z"/></clipPath>
    <clipPath id="z22616c11"><path d="M 477 716 C 444 704 451 724 459 739 C 477 775 491 823 501 884 C 503 901 509 916 520 928 C 546 958 545 929 547 900 C 547 887 544 875 542 863 C 534 817 528 769 527 753 C 527 732 496 724 477 716 Z"/></clipPath>
    <clipPath id="z22616c12"><path d="M 773 843 C 793 793 814 763 833 749 C 846 738 848 722 837 713 C 774 663 758 661 717 678 C 627 713 539 719 477 716 C 456 716 507 757 527 753 C 650 731 650 731 711 720 C 742 714 747 733 744 755 C 741 774 734 800 723 835 C 717 851 767 859 773 843 Z"/></clipPath>
    <clipPath id="z22616c13"><path d="M 547 900 C 571 900 590 892 785 880 C 817 873 797 853 773 843 C 757 837 740 832 723 835 C 662 844 597 856 542 863 C 530 865 535 900 547 900 Z"/></clipPath>
</defs>
<g id="bg-layer">
    <path class="bg" d="M 288 392 C 342 377 372 366 377 362 C 381 357 383 351 380 346 C 375 338 363 334 345 332 C 333 330 313 335 290 343 C 259 353 259 353 244 358 C 201 371 163 382 129 389 C 106 393 104 403 122 411 C 167 429 203 415 244 404 C 273 396 273 396 288 392 Z"/>
    <path class="bg" d="M 280 562 C 282 503 285 446 288 392 C 289 359 289 359 290 343 C 292 284 296 225 310 168 C 311 161 308 151 294 143 C 272 129 251 123 236 121 C 225 119 217 121 212 127 C 207 131 206 139 213 149 C 253 211 244 294 244 358 C 244 389 244 389 244 404 C 244 460 242 518 240 580 C 240 595 280 577 280 562 Z"/>
    <path class="bg" d="M 240 580 C 180 606 125 636 68 643 C 59 644 54 649 54 657 C 53 665 56 673 64 678 C 80 687 100 697 126 706 C 132 708 139 703 148 698 C 219 647 293 597 366 546 C 374 539 379 532 377 527 C 374 522 366 523 359 526 C 333 535 308 549 280 562 C 253 574 253 574 240 580 Z"/>
    <path class="bg" d="M 601 90 C 617 102 635 116 654 132 C 662 139 672 143 683 142 C 689 141 694 136 697 128 C 699 118 697 103 690 85 C 681 64 649 50 593 44 C 582 42 574 43 572 45 C 568 47 567 53 570 61 C 571 67 583 77 601 90 Z"/>
    <path class="bg" d="M 483 249 C 509 255 531 254 552 251 C 729 218 822 199 830 194 C 835 189 837 184 834 179 C 829 172 819 165 802 161 C 785 156 738 172 658 190 C 601 202 530 212 469 220 C 458 222 472 247 483 249 Z"/>
    <path class="bg" d="M 469 220 C 441 198 419 188 406 195 C 397 198 394 206 400 215 C 412 235 420 263 417 299 C 414 508 355 684 239 859 C 220 888 234 884 261 860 C 408 721 443 542 468 324 C 472 288 475 263 483 249 C 489 240 478 226 469 220 Z"/>
    <path class="bg" d="M 777 564 C 783 531 789 504 799 484 C 812 456 812 456 818 442 C 825 425 836 415 845 406 C 856 394 856 380 846 371 C 836 361 813 351 780 338 C 768 333 755 334 742 340 C 716 350 692 362 668 369 C 634 378 634 378 617 383 C 578 393 538 398 499 405 C 469 410 489 421 506 429 C 521 435 540 433 563 426 C 579 420 598 418 618 414 C 649 407 649 407 664 404 C 685 399 705 391 726 389 C 771 382 764 428 759 454 C 754 477 754 477 752 488 C 746 514 738 540 731 565 C 726 580 774 579 777 564 Z"/>
    <path class="bg" d="M 617 479 C 567 487 515 494 461 502 C 450 503 448 508 457 517 C 464 524 473 529 483 532 C 493 535 503 534 512 532 C 544 521 579 512 616 507 C 643 503 643 503 656 501 C 667 499 698 492 752 488 C 783 485 783 485 799 484 C 829 481 861 479 898 479 C 910 478 923 478 936 478 C 960 477 960 461 946 451 C 929 439 911 431 892 431 C 866 429 841 437 818 442 C 779 450 779 450 759 454 C 712 463 679 468 659 472 C 631 477 631 477 617 479 Z"/>
    <path class="bg" d="M 611 593 C 569 602 529 605 494 610 C 481 611 475 621 486 629 C 520 651 570 629 608 624 C 633 620 633 620 646 618 C 688 611 740 605 797 600 C 826 597 800 575 777 564 C 764 556 746 562 731 565 C 702 571 674 577 649 584 C 624 590 624 590 611 593 Z"/>
    <path class="bg" d="M 618 414 C 618 433 617 455 617 479 C 616 498 616 498 616 507 C 614 536 613 567 611 593 C 609 614 609 614 608 624 C 606 641 605 659 613 681 C 615 687 621 690 627 686 C 638 677 642 653 646 618 C 648 595 648 595 649 584 C 651 555 653 527 656 501 C 658 482 658 482 659 472 C 661 447 661 426 664 404 C 667 381 667 381 668 369 C 669 352 672 339 676 330 C 680 319 680 309 673 302 C 664 292 652 284 636 277 C 623 270 609 269 596 276 C 588 279 590 286 597 297 C 610 319 615 348 617 383 C 618 404 618 404 618 414 Z"/>
    <path class="bg" d="M 477 716 C 444 704 451 724 459 739 C 477 775 491 823 501 884 C 503 901 509 916 520 928 C 546 958 545 929 547 900 C 547 887 544 875 542 863 C 534 817 528 769 527 753 C 527 732 496 724 477 716 Z"/>
    <path class="bg" d="M 773 843 C 793 793 814 763 833 749 C 846 738 848 722 837 713 C 774 663 758 661 717 678 C 627 713 539 719 477 716 C 456 716 507 757 527 753 C 650 731 650 731 711 720 C 742 714 747 733 744 755 C 741 774 734 800 723 835 C 717 851 767 859 773 843 Z"/>
    <path class="bg" d="M 547 900 C 571 900 590 892 785 880 C 817 873 797 853 773 843 C 757 837 740 832 723 835 C 662 844 597 856 542 863 C 530 865 535 900 547 900 Z"/>
</g>
<g id="anim-layer">
    <path style="--d:1s; stroke:#FF4444;" pathLength="3333" clip-path="url(#z22616c1)" d="M 117 399 L 377 351"/>
    <path style="--d:2s; stroke:#FF4444;" pathLength="3333" clip-path="url(#z22616c2)" d="M 216 134 L 271 181 L 249 579"/>
    <path style="--d:3s; stroke:#FF4444;" pathLength="3333" clip-path="url(#z22616c3)" d="M 59 653 L 128 667 L 372 532"/>
    <path style="--d:4s; stroke:#000;" pathLength="3333" clip-path="url(#z22616c4)" d="M 574 50 L 694 128"/>
    <path style="--d:5s; stroke:#000;" pathLength="3333" clip-path="url(#z22616c5)" d="M 472 225 L 533 232 L 828 178"/>
    <path style="--d:6s; stroke:#000;" pathLength="3333" clip-path="url(#z22616c6)" d="M 403 202 L 449 257 L 411 533 L 340 726 L 236 870"/>
    <path style="--d:7s; stroke:#000;" pathLength="3333" clip-path="url(#z22616c7)" d="M 491 411 L 741 364 L 790 379 L 807 401 L 743 572"/>
    <path style="--d:8s; stroke:#000;" pathLength="3333" clip-path="url(#z22616c8)" d="M 460 509 L 858 456 L 949 465"/>
    <path style="--d:9s; stroke:#000;" pathLength="3333" clip-path="url(#z22616c9)" d="M 488 618 L 805 586"/>
    <path style="--d:10s; stroke:#000;" pathLength="3333" clip-path="url(#z22616c10)" d="M 598 281 L 644 320 L 625 683"/>
    <path style="--d:11s; stroke:#000;" pathLength="3333" clip-path="url(#z22616c11)" d="M 458 720 L 500 763 L 531 936"/>
    <path style="--d:12s; stroke:#000;" pathLength="3333" clip-path="url(#z22616c12)" d="M 483 722 L 537 734 L 762 701 L 794 736 L 740 848"/>
    <path style="--d:13s; stroke:#000;" pathLength="3333" clip-path="url(#z22616c13)" d="M 538 876 L 797 865"/>
</g>
</svg>