<svg id="z22806" class="acjk" viewBox="0 0 1024 1024" xmlns="http://www.w3.org/2000/svg">

<style>
<![CDATA[
@keyframes zk { to { stroke-dashoffset:0; } }
svg.acjk path[clip-path] {
    --t:0.8s;
    animation:zk var(--t) linear forwards var(--d);
    stroke-dasharray:3337;
    stroke-dashoffset:3339;
    stroke-width:128;
    stroke-linecap:round;
    fill:none;
}
/* Low opacity for background improves visual overlap at intersections */
svg.acjk .bg { fill:#ccc; opacity: 0.5; } 
]]>
</style>
<defs>
    <clipPath id="z22806c1"><path d="M 308 318 Q 324 297 341 275 Q 363 241 381 225 Q 391 215 387 203 Q 384 190 359 168 Q 334 149 317 149 Q 299 150 306 170 Q 315 194 289 249 Q 235 346 132 464 Q 122 473 119 478 Q 115 488 129 487 Q 172 481 298 330 C 305 322 305 322 308 318 Z"/></clipPath>
    <clipPath id="z22806c2"><path d="M 298 330 Q 313 345 348 339 Q 414 321 419 331 Q 426 349 400 415 Q 378 488 302 587 Q 227 693 102 795 Q 77 811 99 809 Q 190 800 312 657 Q 412 522 463 417 Q 491 354 511 336 Q 524 326 518 313 Q 512 301 455 279 Q 442 273 418 286 Q 385 302 308 318 C 303 319 294 327 298 330 Z"/></clipPath>
    <clipPath id="z22806c3"><path d="M 210 487 Q 258 536 295 553 Q 308 554 316 543 Q 320 533 318 518 Q 303 478 221 454 Q 220 453 219 453 Q 206 449 197 453 Q 191 454 194 465 Q 195 475 210 487 Z"/></clipPath>
    <clipPath id="z22806c4"><path d="M 649 360 Q 649 204 669 130 Q 682 103 652 82 Q 636 70 609 55 Q 584 39 563 54 Q 557 60 564 76 Q 601 128 602 182 Q 603 260 607 349 Q 606 503 603 674 Q 599 758 577 836 Q 567 878 594 941 Q 601 960 609 963 Q 616 970 624 961 Q 631 957 642 935 Q 652 908 651 876 Q 650 824 649 387 C 649 369 649 369 649 360 Z"/></clipPath>
    <clipPath id="z22806c5"><path d="M 649 387 Q 742 433 881 522 Q 903 538 919 538 Q 928 537 932 525 Q 942 509 918 469 Q 885 408 649 360 C 640 358 641 383 649 387 Z"/></clipPath>
</defs>
<g id="bg-layer">
    <path class="bg" d="M 308 318 Q 324 297 341 275 Q 363 241 381 225 Q 391 215 387 203 Q 384 190 359 168 Q 334 149 317 149 Q 299 150 306 170 Q 315 194 289 249 Q 235 346 132 464 Q 122 473 119 478 Q 115 488 129 487 Q 172 481 298 330 C 305 322 305 322 308 318 Z"/>
    <path class="bg" d="M 298 330 Q 313 345 348 339 Q 414 321 419 331 Q 426 349 400 415 Q 378 488 302 587 Q 227 693 102 795 Q 77 811 99 809 Q 190 800 312 657 Q 412 522 463 417 Q 491 354 511 336 Q 524 326 518 313 Q 512 301 455 279 Q 442 273 418 286 Q 385 302 308 318 C 303 319 294 327 298 330 Z"/>
    <path class="bg" d="M 210 487 Q 258 536 295 553 Q 308 554 316 543 Q 320 533 318 518 Q 303 478 221 454 Q 220 453 219 453 Q 206 449 197 453 Q 191 454 194 465 Q 195 475 210 487 Z"/>
    <path class="bg" d="M 649 360 Q 649 204 669 130 Q 682 103 652 82 Q 636 70 609 55 Q 584 39 563 54 Q 557 60 564 76 Q 601 128 602 182 Q 603 260 607 349 Q 606 503 603 674 Q 599 758 577 836 Q 567 878 594 941 Q 601 960 609 963 Q 616 970 624 961 Q 631 957 642 935 Q 652 908 651 876 Q 650 824 649 387 C 649 369 649 369 649 360 Z"/>
    <path class="bg" d="M 649 387 Q 742 433 881 522 Q 903 538 919 538 Q 928 537 932 525 Q 942 509 918 469 Q 885 408 649 360 C 640 358 641 383 649 387 Z"/>
</g>
<g id="anim-layer">
    <path style="--d:1s; stroke:#FF4444;" pathLength="3333" clip-path="url(#z22806c1)" d="M 313 156 L 341 220 L 126 481"/>
    <path style="--d:2s; stroke:#FF4444;" pathLength="3333" clip-path="url(#z22806c2)" d="M 306 326 L 435 304 L 469 334 L 302 629 L 202 736 L 96 803"/>
    <path style="--d:3s; stroke:#FF4444;" pathLength="3333" clip-path="url(#z22806c3)" d="M 198 458 L 313 540"/>
    <path style="--d:4s; stroke:#000;" pathLength="3333" clip-path="url(#z22806c4)" d="M 567 61 L 633 121 L 613 960"/>
    <path style="--d:5s; stroke:#000;" pathLength="3333" clip-path="url(#z22806c5)" d="M 649 367 L 852 459 L 926 531"/>
</g>
</svg>