<svg id="z22909" class="acjk" viewBox="0 0 1024 1024" xmlns="http://www.w3.org/2000/svg">

<style>
<![CDATA[
@keyframes zk { to { stroke-dashoffset:0; } }
svg.acjk path[clip-path] {
    --t:0.8s;
    animation:zk var(--t) linear forwards var(--d);
    stroke-dasharray:3337;
    stroke-dashoffset:3339;
    stroke-width:128;
    stroke-linecap:round;
    fill:none;
}
/* Low opacity for background improves visual overlap at intersections */
svg.acjk .bg { fill:#ccc; opacity: 0.5; } 
]]>
</style>
<defs>
    <clipPath id="z22909c1"><path d="M 330 698 C 350 715 373 739 399 766 C 409 776 418 781 424 782 C 430 782 434 778 439 772 C 443 765 445 751 442 730 C 438 705 410 680 361 653 C 333 638 333 638 319 630 C 300 620 280 607 258 596 C 244 589 235 578 240 565 C 252 525 268 487 281 447 C 289 421 289 421 293 408 C 308 357 324 306 337 256 C 344 225 354 202 366 185 C 375 170 377 158 373 150 C 365 136 344 122 313 103 C 300 94 287 92 276 99 C 267 103 266 111 273 122 C 292 152 288 250 247 414 C 240 443 240 443 236 458 C 224 504 209 538 195 564 C 187 578 190 593 206 604 C 236 624 267 643 294 667 C 318 688 318 688 330 698 Z"/></clipPath>
    <clipPath id="z22909c2"><path d="M 294 667 C 290 672 285 677 281 683 C 260 708 232 732 196 757 C 187 763 176 768 165 776 C 144 789 144 789 133 796 C 124 801 123 807 131 808 C 184 813 250 776 327 701 C 380 648 329 699 330 698 C 341 684 335 696 361 653 C 391 603 410 556 421 515 C 434 462 453 404 463 390 C 469 379 467 371 458 363 C 429 337 406 326 387 331 C 378 333 374 340 378 350 C 383 363 388 377 387 393 C 386 410 386 410 385 419 C 379 490 363 563 319 630 C 302 655 302 655 294 667 Z"/></clipPath>
    <clipPath id="z22909c3"><path d="M 387 393 C 356 397 325 403 293 408 C 262 412 262 412 247 414 C 227 416 141 428 115 432 C 100 433 83 431 61 429 C 52 427 47 432 45 438 C 42 446 43 453 49 459 C 61 471 76 486 96 500 C 101 504 109 501 118 498 C 165 475 206 465 236 458 C 266 451 266 451 281 447 C 307 440 361 427 385 419 C 393 416 396 391 387 393 Z"/></clipPath>
    <clipPath id="z22909c4"><path d="M 671 379 C 749 303 799 260 822 252 C 835 247 839 239 835 228 C 831 217 807 199 760 175 C 746 167 731 168 716 175 C 679 190 632 206 575 224 C 560 228 534 231 498 231 C 481 231 474 238 482 252 C 486 261 497 269 511 277 C 532 289 554 286 578 273 C 590 265 628 250 691 224 C 700 219 710 221 719 227 C 727 233 731 241 726 251 C 705 287 680 326 655 369 C 652 374 666 383 671 379 Z"/></clipPath>
    <clipPath id="z22909c5"><path d="M 717 470 C 709 438 691 395 671 379 C 660 372 660 372 655 369 C 650 366 641 362 636 360 C 628 357 615 355 608 360 C 599 365 598 372 608 381 C 631 400 648 436 659 479 C 665 504 665 504 668 516 C 688 601 688 730 658 797 C 649 815 631 821 607 817 C 586 813 566 809 548 806 C 539 804 537 807 542 815 C 544 819 552 825 564 835 C 591 857 608 877 618 895 C 624 907 633 912 645 911 C 654 909 669 901 687 883 C 745 823 769 696 726 509 C 720 483 720 483 717 470 Z"/></clipPath>
    <clipPath id="z22909c6"><path d="M 726 509 C 763 504 837 503 947 503 C 959 502 967 499 971 494 C 975 487 971 478 960 470 C 926 444 888 438 848 446 C 811 452 768 462 717 470 C 678 476 678 476 659 479 C 594 489 525 497 452 507 C 438 508 436 513 447 525 C 455 533 466 539 478 543 C 490 546 502 547 514 544 C 561 531 613 522 668 516 C 707 511 707 511 726 509 Z"/></clipPath>
</defs>
<g id="bg-layer">
    <path class="bg" d="M 330 698 C 350 715 373 739 399 766 C 409 776 418 781 424 782 C 430 782 434 778 439 772 C 443 765 445 751 442 730 C 438 705 410 680 361 653 C 333 638 333 638 319 630 C 300 620 280 607 258 596 C 244 589 235 578 240 565 C 252 525 268 487 281 447 C 289 421 289 421 293 408 C 308 357 324 306 337 256 C 344 225 354 202 366 185 C 375 170 377 158 373 150 C 365 136 344 122 313 103 C 300 94 287 92 276 99 C 267 103 266 111 273 122 C 292 152 288 250 247 414 C 240 443 240 443 236 458 C 224 504 209 538 195 564 C 187 578 190 593 206 604 C 236 624 267 643 294 667 C 318 688 318 688 330 698 Z"/>
    <path class="bg" d="M 294 667 C 290 672 285 677 281 683 C 260 708 232 732 196 757 C 187 763 176 768 165 776 C 144 789 144 789 133 796 C 124 801 123 807 131 808 C 184 813 250 776 327 701 C 380 648 329 699 330 698 C 341 684 335 696 361 653 C 391 603 410 556 421 515 C 434 462 453 404 463 390 C 469 379 467 371 458 363 C 429 337 406 326 387 331 C 378 333 374 340 378 350 C 383 363 388 377 387 393 C 386 410 386 410 385 419 C 379 490 363 563 319 630 C 302 655 302 655 294 667 Z"/>
    <path class="bg" d="M 387 393 C 356 397 325 403 293 408 C 262 412 262 412 247 414 C 227 416 141 428 115 432 C 100 433 83 431 61 429 C 52 427 47 432 45 438 C 42 446 43 453 49 459 C 61 471 76 486 96 500 C 101 504 109 501 118 498 C 165 475 206 465 236 458 C 266 451 266 451 281 447 C 307 440 361 427 385 419 C 393 416 396 391 387 393 Z"/>
    <path class="bg" d="M 671 379 C 749 303 799 260 822 252 C 835 247 839 239 835 228 C 831 217 807 199 760 175 C 746 167 731 168 716 175 C 679 190 632 206 575 224 C 560 228 534 231 498 231 C 481 231 474 238 482 252 C 486 261 497 269 511 277 C 532 289 554 286 578 273 C 590 265 628 250 691 224 C 700 219 710 221 719 227 C 727 233 731 241 726 251 C 705 287 680 326 655 369 C 652 374 666 383 671 379 Z"/>
    <path class="bg" d="M 717 470 C 709 438 691 395 671 379 C 660 372 660 372 655 369 C 650 366 641 362 636 360 C 628 357 615 355 608 360 C 599 365 598 372 608 381 C 631 400 648 436 659 479 C 665 504 665 504 668 516 C 688 601 688 730 658 797 C 649 815 631 821 607 817 C 586 813 566 809 548 806 C 539 804 537 807 542 815 C 544 819 552 825 564 835 C 591 857 608 877 618 895 C 624 907 633 912 645 911 C 654 909 669 901 687 883 C 745 823 769 696 726 509 C 720 483 720 483 717 470 Z"/>
    <path class="bg" d="M 726 509 C 763 504 837 503 947 503 C 959 502 967 499 971 494 C 975 487 971 478 960 470 C 926 444 888 438 848 446 C 811 452 768 462 717 470 C 678 476 678 476 659 479 C 594 489 525 497 452 507 C 438 508 436 513 447 525 C 455 533 466 539 478 543 C 490 546 502 547 514 544 C 561 531 613 522 668 516 C 707 511 707 511 726 509 Z"/>
</g>
<g id="anim-layer">
    <path style="--d:1s; stroke:#FF4444;" pathLength="3333" clip-path="url(#z22909c1)" d="M 275 107 L 329 164 L 216 578 L 399 719 L 426 777"/>
    <path style="--d:2s; stroke:#FF4444;" pathLength="3333" clip-path="url(#z22909c2)" d="M 385 338 L 427 384 L 349 626 L 244 746 L 133 802"/>
    <path style="--d:3s; stroke:#FF4444;" pathLength="3333" clip-path="url(#z22909c3)" d="M 47 440 L 109 466 L 381 402"/>
    <path style="--d:4s; stroke:#000;" pathLength="3333" clip-path="url(#z22909c4)" d="M 484 239 L 542 257 L 708 199 L 755 211 L 782 248 L 663 373"/>
    <path style="--d:5s; stroke:#000;" pathLength="3333" clip-path="url(#z22909c5)" d="M 605 367 L 661 403 L 688 473 L 707 749 L 678 834 L 644 862 L 547 811"/>
    <path style="--d:6s; stroke:#000;" pathLength="3333" clip-path="url(#z22909c6)" d="M 450 517 L 851 474 L 967 485"/>
</g>
</svg>