<svg id="z22931" class="acjk" viewBox="0 0 1024 1024" xmlns="http://www.w3.org/2000/svg">

<style>
<![CDATA[
@keyframes zk { to { stroke-dashoffset:0; } }
svg.acjk path[clip-path] {
    --t:0.8s;
    animation:zk var(--t) linear forwards var(--d);
    stroke-dasharray:3337;
    stroke-dashoffset:3339;
    stroke-width:128;
    stroke-linecap:round;
    fill:none;
}
/* Low opacity for background improves visual overlap at intersections */
svg.acjk .bg { fill:#ccc; opacity: 0.5; } 
]]>
</style>
<defs>
    <clipPath id="z22931c1"><path d="M 350 729 Q 422 796 429 798 Q 436 798 443 788 Q 450 778 446 746 Q 439 713 381 680 C 354 665 354 665 341 658 Q 316 643 282 627 Q 260 617 263 595 Q 276 546 289 497 C 296 470 296 470 299 457 Q 321 366 339 271 Q 346 223 363 198 Q 375 176 367 163 Q 352 145 304 120 Q 283 110 267 118 Q 255 125 266 142 Q 302 191 256 466 C 251 495 251 495 248 510 Q 239 561 218 598 Q 209 619 249 648 Q 285 670 316 700 C 339 719 339 719 350 729 Z"/></clipPath>
    <clipPath id="z22931c2"><path d="M 316 700 Q 309 707 302 718 Q 266 763 164 829 Q 151 838 163 840 Q 176 841 211 830 Q 262 811 302 776 Q 330 754 350 729 C 371 696 371 696 381 680 Q 417 617 431 558 Q 452 468 468 440 Q 478 424 462 414 Q 417 378 393 385 Q 380 388 385 403 Q 392 419 394 437 C 393 456 393 456 392 466 Q 391 478 390 492 Q 384 579 341 658 C 324 686 324 686 316 700 Z"/></clipPath>
    <clipPath id="z22931c3"><path d="M 394 437 Q 346 446 299 457 C 270 463 270 463 256 466 Q 100 491 75 489 Q 62 489 60 498 Q 56 511 64 519 Q 83 537 113 558 Q 123 562 135 555 Q 198 519 248 510 C 275 501 275 501 289 497 Q 361 473 392 466 C 402 464 404 435 394 437 Z"/></clipPath>
    <clipPath id="z22931c4"><path d="M 681 365 Q 736 349 799 334 Q 848 321 856 313 Q 865 304 860 296 Q 853 284 822 278 Q 791 274 761 287 Q 722 300 684 315 C 651 325 651 325 634 330 Q 570 346 496 358 Q 459 365 487 381 Q 532 405 590 387 Q 609 381 633 377 C 665 369 665 369 681 365 Z"/></clipPath>
    <clipPath id="z22931c5"><path d="M 674 481 Q 678 421 681 365 C 683 332 683 332 684 315 Q 688 198 708 116 Q 712 104 691 89 Q 654 70 629 65 Q 613 61 604 70 Q 597 79 605 94 Q 629 128 629 151 Q 633 236 634 330 C 633 361 633 361 633 377 Q 632 434 630 495 C 630 510 674 496 674 481 Z"/></clipPath>
    <clipPath id="z22931c6"><path d="M 698 711 Q 735 650 770 560 Q 783 532 802 512 Q 821 496 808 482 Q 795 470 763 459 Q 738 452 711 466 Q 693 473 674 481 C 645 490 645 490 630 495 Q 587 505 526 515 Q 513 516 509 523 Q 505 530 523 537 Q 559 550 607 534 Q 680 507 694 508 Q 716 512 709 536 Q 690 617 659 675 C 641 702 641 702 632 715 Q 566 796 432 836 Q 417 840 430 849 Q 436 853 480 851 Q 579 842 664 755 C 687 726 687 726 698 711 Z"/></clipPath>
    <clipPath id="z22931c7"><path d="M 664 755 Q 754 864 793 867 Q 877 871 945 864 Q 979 861 978 851 Q 975 842 814 782 Q 769 763 698 711 C 672 687 672 687 659 675 Q 629 647 599 613 Q 563 573 529 572 Q 511 571 507 575 Q 506 582 521 593 Q 558 620 632 715 C 653 742 653 742 664 755 Z"/></clipPath>
</defs>
<g id="bg-layer">
    <path class="bg" d="M 350 729 Q 422 796 429 798 Q 436 798 443 788 Q 450 778 446 746 Q 439 713 381 680 C 354 665 354 665 341 658 Q 316 643 282 627 Q 260 617 263 595 Q 276 546 289 497 C 296 470 296 470 299 457 Q 321 366 339 271 Q 346 223 363 198 Q 375 176 367 163 Q 352 145 304 120 Q 283 110 267 118 Q 255 125 266 142 Q 302 191 256 466 C 251 495 251 495 248 510 Q 239 561 218 598 Q 209 619 249 648 Q 285 670 316 700 C 339 719 339 719 350 729 Z"/>
    <path class="bg" d="M 316 700 Q 309 707 302 718 Q 266 763 164 829 Q 151 838 163 840 Q 176 841 211 830 Q 262 811 302 776 Q 330 754 350 729 C 371 696 371 696 381 680 Q 417 617 431 558 Q 452 468 468 440 Q 478 424 462 414 Q 417 378 393 385 Q 380 388 385 403 Q 392 419 394 437 C 393 456 393 456 392 466 Q 391 478 390 492 Q 384 579 341 658 C 324 686 324 686 316 700 Z"/>
    <path class="bg" d="M 394 437 Q 346 446 299 457 C 270 463 270 463 256 466 Q 100 491 75 489 Q 62 489 60 498 Q 56 511 64 519 Q 83 537 113 558 Q 123 562 135 555 Q 198 519 248 510 C 275 501 275 501 289 497 Q 361 473 392 466 C 402 464 404 435 394 437 Z"/>
    <path class="bg" d="M 681 365 Q 736 349 799 334 Q 848 321 856 313 Q 865 304 860 296 Q 853 284 822 278 Q 791 274 761 287 Q 722 300 684 315 C 651 325 651 325 634 330 Q 570 346 496 358 Q 459 365 487 381 Q 532 405 590 387 Q 609 381 633 377 C 665 369 665 369 681 365 Z"/>
    <path class="bg" d="M 674 481 Q 678 421 681 365 C 683 332 683 332 684 315 Q 688 198 708 116 Q 712 104 691 89 Q 654 70 629 65 Q 613 61 604 70 Q 597 79 605 94 Q 629 128 629 151 Q 633 236 634 330 C 633 361 633 361 633 377 Q 632 434 630 495 C 630 510 674 496 674 481 Z"/>
    <path class="bg" d="M 698 711 Q 735 650 770 560 Q 783 532 802 512 Q 821 496 808 482 Q 795 470 763 459 Q 738 452 711 466 Q 693 473 674 481 C 645 490 645 490 630 495 Q 587 505 526 515 Q 513 516 509 523 Q 505 530 523 537 Q 559 550 607 534 Q 680 507 694 508 Q 716 512 709 536 Q 690 617 659 675 C 641 702 641 702 632 715 Q 566 796 432 836 Q 417 840 430 849 Q 436 853 480 851 Q 579 842 664 755 C 687 726 687 726 698 711 Z"/>
    <path class="bg" d="M 664 755 Q 754 864 793 867 Q 877 871 945 864 Q 979 861 978 851 Q 975 842 814 782 Q 769 763 698 711 C 672 687 672 687 659 675 Q 629 647 599 613 Q 563 573 529 572 Q 511 571 507 575 Q 506 582 521 593 Q 558 620 632 715 C 653 742 653 742 664 755 Z"/>
</g>
<g id="anim-layer">
    <path style="--d:1s; stroke:#FF4444;" pathLength="3333" clip-path="url(#z22931c1)" d="M 267 124 L 325 187 L 241 611 L 402 733 L 436 788"/>
    <path style="--d:2s; stroke:#FF4444;" pathLength="3333" clip-path="url(#z22931c2)" d="M 390 389 L 432 438 L 373 646 L 291 759 L 169 834"/>
    <path style="--d:3s; stroke:#FF4444;" pathLength="3333" clip-path="url(#z22931c3)" d="M 68 500 L 128 521 L 391 448"/>
    <path style="--d:4s; stroke:#000;" pathLength="3333" clip-path="url(#z22931c4)" d="M 483 368 L 573 368 L 857 298"/>
    <path style="--d:5s; stroke:#000;" pathLength="3333" clip-path="url(#z22931c5)" d="M 608 74 L 667 124 L 642 490"/>
    <path style="--d:6s; stroke:#000;" pathLength="3333" clip-path="url(#z22931c6)" d="M 513 526 L 715 485 L 761 509 L 649 734 L 555 808 L 431 839"/>
    <path style="--d:7s; stroke:#000;" pathLength="3333" clip-path="url(#z22931c7)" d="M 518 580 L 769 808 L 968 850"/>
</g>
</svg>