<svg id="z23013" class="acjk" viewBox="0 0 1024 1024" xmlns="http://www.w3.org/2000/svg">

<style>
<![CDATA[
@keyframes zk { to { stroke-dashoffset:0; } }
svg.acjk path[clip-path] {
    --t:0.8s;
    animation:zk var(--t) linear forwards var(--d);
    stroke-dasharray:3337;
    stroke-dashoffset:3339;
    stroke-width:128;
    stroke-linecap:round;
    fill:none;
}
/* Low opacity for background improves visual overlap at intersections */
svg.acjk .bg { fill:#ccc; opacity: 0.5; } 
]]>
</style>
<defs>
    <clipPath id="z23013c1"><path d="M 262 453 Q 286 363 306 272 Q 315 224 333 199 Q 345 177 338 164 Q 323 146 277 120 Q 256 107 240 117 Q 227 124 237 140 Q 271 191 218 463 C 211 493 211 493 208 508 Q 196 572 171 613 Q 161 635 181 652 Q 227 680 266 717 C 289 738 289 738 301 749 Q 376 824 384 826 Q 391 826 399 815 Q 406 805 402 774 Q 398 746 376 731 Q 360 719 331 701 C 304 685 304 685 290 677 Q 265 662 233 645 Q 212 633 215 612 Q 234 554 251 494 C 258 467 258 467 262 453 Z"/></clipPath>
    <clipPath id="z23013c2"><path d="M 266 717 Q 194 798 104 856 Q 91 865 103 868 Q 116 869 152 857 Q 206 836 247 801 Q 280 776 301 749 C 321 717 321 717 331 701 Q 368 637 382 574 Q 401 483 420 450 Q 430 432 415 422 Q 367 386 343 392 Q 328 396 334 411 Q 338 421 342 434 C 346 443 343 454 343 464 Q 334 596 290 677 C 274 704 274 704 266 717 Z"/></clipPath>
    <clipPath id="z23013c3"><path d="M 342 434 Q 303 443 262 453 C 233 460 233 460 218 463 Q 160 473 100 487 Q 79 491 46 488 Q 33 489 31 498 Q 27 511 36 519 Q 55 535 86 556 Q 96 560 107 553 Q 149 528 208 508 C 237 499 237 499 251 494 Q 294 478 343 464 C 352 460 352 432 342 434 Z"/></clipPath>
    <clipPath id="z23013c4"><path d="M 628 345 Q 713 324 724 318 Q 731 311 727 303 Q 720 293 693 287 Q 665 283 639 295 Q 635 296 632 298 C 598 309 598 309 581 314 Q 578 314 577 315 Q 541 324 499 330 Q 465 337 490 351 Q 529 370 580 356 C 612 349 612 349 628 345 Z"/></clipPath>
    <clipPath id="z23013c5"><path d="M 617 462 Q 621 402 628 345 C 631 314 631 314 632 298 Q 638 175 658 119 Q 662 107 642 92 Q 606 73 582 68 Q 566 64 558 73 Q 551 80 558 96 Q 580 127 580 150 Q 583 228 581 314 C 580 342 580 342 580 356 Q 579 410 575 470 C 575 484 617 476 617 462 Z"/></clipPath>
    <clipPath id="z23013c6"><path d="M 694 483 Q 706 480 907 464 Q 925 463 929 455 Q 933 445 918 433 Q 861 400 811 418 Q 774 425 727 438 C 686 447 686 447 666 452 Q 630 456 617 462 C 589 467 589 467 575 470 Q 499 483 418 499 Q 399 503 414 517 Q 427 529 444 532 Q 463 536 477 531 Q 550 507 633 493 Q 634 492 636 493 C 675 486 675 486 694 483 Z"/></clipPath>
    <clipPath id="z23013c7"><path d="M 603 597 Q 676 504 694 483 C 716 453 716 453 727 438 Q 758 389 785 346 Q 816 291 836 265 Q 843 255 836 239 Q 806 187 774 187 Q 758 186 763 207 Q 769 240 760 274 Q 757 278 756 285 Q 723 366 666 452 C 646 479 646 479 636 493 Q 617 517 596 544 Q 586 556 576 568 C 557 590 557 590 547 601 Q 483 668 411 736 Q 404 740 404 748 Q 404 752 409 753 Q 443 747 537 665 Q 540 659 550 652 C 585 615 585 615 603 597 Z"/></clipPath>
    <clipPath id="z23013c8"><path d="M 586 735 Q 658 704 766 647 Q 785 637 808 631 Q 829 627 823 608 Q 814 590 793 573 Q 774 557 763 557 Q 751 556 752 569 Q 752 602 669 657 Q 629 685 587 717 C 582 721 580 737 586 735 Z"/></clipPath>
    <clipPath id="z23013c9"><path d="M 896 819 Q 883 795 861 719 Q 860 703 853 698 Q 846 695 842 713 Q 815 795 798 822 Q 788 834 756 843 Q 684 861 625 842 Q 603 832 597 819 Q 579 780 586 735 C 587 723 587 723 587 717 Q 591 666 602 607 Q 603 601 603 597 C 603 584 587 575 576 568 Q 570 564 563 562 Q 553 558 544 562 Q 538 566 543 582 Q 544 591 547 601 C 553 617 550 635 550 652 Q 543 796 554 836 Q 558 857 577 874 Q 658 934 818 897 Q 855 887 890 862 Q 911 846 896 819 Z"/></clipPath>
</defs>
<g id="bg-layer">
    <path class="bg" d="M 262 453 Q 286 363 306 272 Q 315 224 333 199 Q 345 177 338 164 Q 323 146 277 120 Q 256 107 240 117 Q 227 124 237 140 Q 271 191 218 463 C 211 493 211 493 208 508 Q 196 572 171 613 Q 161 635 181 652 Q 227 680 266 717 C 289 738 289 738 301 749 Q 376 824 384 826 Q 391 826 399 815 Q 406 805 402 774 Q 398 746 376 731 Q 360 719 331 701 C 304 685 304 685 290 677 Q 265 662 233 645 Q 212 633 215 612 Q 234 554 251 494 C 258 467 258 467 262 453 Z"/>
    <path class="bg" d="M 266 717 Q 194 798 104 856 Q 91 865 103 868 Q 116 869 152 857 Q 206 836 247 801 Q 280 776 301 749 C 321 717 321 717 331 701 Q 368 637 382 574 Q 401 483 420 450 Q 430 432 415 422 Q 367 386 343 392 Q 328 396 334 411 Q 338 421 342 434 C 346 443 343 454 343 464 Q 334 596 290 677 C 274 704 274 704 266 717 Z"/>
    <path class="bg" d="M 342 434 Q 303 443 262 453 C 233 460 233 460 218 463 Q 160 473 100 487 Q 79 491 46 488 Q 33 489 31 498 Q 27 511 36 519 Q 55 535 86 556 Q 96 560 107 553 Q 149 528 208 508 C 237 499 237 499 251 494 Q 294 478 343 464 C 352 460 352 432 342 434 Z"/>
    <path class="bg" d="M 628 345 Q 713 324 724 318 Q 731 311 727 303 Q 720 293 693 287 Q 665 283 639 295 Q 635 296 632 298 C 598 309 598 309 581 314 Q 578 314 577 315 Q 541 324 499 330 Q 465 337 490 351 Q 529 370 580 356 C 612 349 612 349 628 345 Z"/>
    <path class="bg" d="M 617 462 Q 621 402 628 345 C 631 314 631 314 632 298 Q 638 175 658 119 Q 662 107 642 92 Q 606 73 582 68 Q 566 64 558 73 Q 551 80 558 96 Q 580 127 580 150 Q 583 228 581 314 C 580 342 580 342 580 356 Q 579 410 575 470 C 575 484 617 476 617 462 Z"/>
    <path class="bg" d="M 694 483 Q 706 480 907 464 Q 925 463 929 455 Q 933 445 918 433 Q 861 400 811 418 Q 774 425 727 438 C 686 447 686 447 666 452 Q 630 456 617 462 C 589 467 589 467 575 470 Q 499 483 418 499 Q 399 503 414 517 Q 427 529 444 532 Q 463 536 477 531 Q 550 507 633 493 Q 634 492 636 493 C 675 486 675 486 694 483 Z"/>
    <path class="bg" d="M 603 597 Q 676 504 694 483 C 716 453 716 453 727 438 Q 758 389 785 346 Q 816 291 836 265 Q 843 255 836 239 Q 806 187 774 187 Q 758 186 763 207 Q 769 240 760 274 Q 757 278 756 285 Q 723 366 666 452 C 646 479 646 479 636 493 Q 617 517 596 544 Q 586 556 576 568 C 557 590 557 590 547 601 Q 483 668 411 736 Q 404 740 404 748 Q 404 752 409 753 Q 443 747 537 665 Q 540 659 550 652 C 585 615 585 615 603 597 Z"/>
    <path class="bg" d="M 586 735 Q 658 704 766 647 Q 785 637 808 631 Q 829 627 823 608 Q 814 590 793 573 Q 774 557 763 557 Q 751 556 752 569 Q 752 602 669 657 Q 629 685 587 717 C 582 721 580 737 586 735 Z"/>
    <path class="bg" d="M 896 819 Q 883 795 861 719 Q 860 703 853 698 Q 846 695 842 713 Q 815 795 798 822 Q 788 834 756 843 Q 684 861 625 842 Q 603 832 597 819 Q 579 780 586 735 C 587 723 587 723 587 717 Q 591 666 602 607 Q 603 601 603 597 C 603 584 587 575 576 568 Q 570 564 563 562 Q 553 558 544 562 Q 538 566 543 582 Q 544 591 547 601 C 553 617 550 635 550 652 Q 543 796 554 836 Q 558 857 577 874 Q 658 934 818 897 Q 855 887 890 862 Q 911 846 896 819 Z"/>
</g>
<g id="anim-layer">
    <path style="--d:1s; stroke:#FF4444;" pathLength="3333" clip-path="url(#z23013c1)" d="M 241 125 L 295 186 L 193 632 L 354 755 L 395 817"/>
    <path style="--d:2s; stroke:#FF4444;" pathLength="3333" clip-path="url(#z23013c2)" d="M 341 397 L 382 444 L 313 685 L 216 798 L 106 863"/>
    <path style="--d:3s; stroke:#FF4444;" pathLength="3333" clip-path="url(#z23013c3)" d="M 37 495 L 96 522 L 339 446"/>
    <path style="--d:4s; stroke:#000;" pathLength="3333" clip-path="url(#z23013c4)" d="M 491 341 L 723 309"/>
    <path style="--d:5s; stroke:#000;" pathLength="3333" clip-path="url(#z23013c5)" d="M 561 78 L 617 124 L 584 466"/>
    <path style="--d:6s; stroke:#000;" pathLength="3333" clip-path="url(#z23013c6)" d="M 414 506 L 836 441 L 926 449"/>
    <path style="--d:7s; stroke:#000;" pathLength="3333" clip-path="url(#z23013c7)" d="M 770 193 L 800 257 L 713 419 L 584 589 L 412 744"/>
    <path style="--d:8s; stroke:#000;" pathLength="3333" clip-path="url(#z23013c8)" d="M 762 560 L 780 611 L 589 724"/>
    <path style="--d:9s; stroke:#000;" pathLength="3333" clip-path="url(#z23013c9)" d="M 548 569 L 575 607 L 569 807 L 608 863 L 710 881 L 821 855 L 855 823 L 852 704"/>
</g>
</svg>