<svg id="z23162" class="acjk" viewBox="0 0 1024 1024" xmlns="http://www.w3.org/2000/svg">

<style>
<![CDATA[
@keyframes zk { to { stroke-dashoffset:0; } }
svg.acjk path[clip-path] {
    --t:0.8s;
    animation:zk var(--t) linear forwards var(--d);
    stroke-dasharray:3337;
    stroke-dashoffset:3339;
    stroke-width:128;
    stroke-linecap:round;
    fill:none;
}
/* Low opacity for background improves visual overlap at intersections */
svg.acjk .bg { fill:#ccc; opacity: 0.5; } 
]]>
</style>
<defs>
    <clipPath id="z23162c1"><path d="M 373 239 Q 463 170 495 163 Q 511 159 507 144 Q 506 129 448 96 Q 432 87 413 94 Q 362 110 287 130 Q 268 136 219 133 Q 200 132 206 150 Q 212 160 228 171 Q 255 187 284 171 Q 395 125 411 135 Q 421 142 416 153 Q 391 189 361 231 C 358 235 369 242 373 239 Z"/></clipPath>
    <clipPath id="z23162c2"><path d="M 386 287 Q 390 278 386 259 Q 383 249 373 239 C 365 234 365 234 361 231 Q 316 207 304 210 Q 300 211 301 220 Q 331 256 364 292 C 369 297 385 294 386 287 Z"/></clipPath>
    <clipPath id="z23162c3"><path d="M 338 322 Q 375 313 414 308 Q 436 301 440 310 Q 439 320 414 357 Q 407 367 412 371 Q 416 375 427 367 Q 488 337 512 333 Q 530 332 530 322 Q 530 318 522 311 C 517 307 517 307 514 305 Q 460 263 409 280 Q 397 283 386 287 C 371 290 371 290 364 292 Q 237 316 143 328 Q 122 329 138 348 Q 151 364 187 353 Q 233 341 283 333 C 320 326 320 326 338 322 Z"/></clipPath>
    <clipPath id="z23162c4"><path d="M 335 358 Q 356 391 349 461 Q 345 495 334 515 Q 324 531 301 524 Q 279 518 258 511 Q 249 508 252 517 Q 255 523 268 533 Q 295 561 302 582 Q 309 595 321 595 Q 331 594 353 576 Q 395 537 393 441 Q 392 387 380 359 Q 370 334 338 322 C 295 305 307 321 335 358 Z"/></clipPath>
    <clipPath id="z23162c5"><path d="M 283 333 Q 273 405 107 547 Q 92 559 112 555 Q 184 543 287 418 Q 291 412 296 407 Q 323 373 335 358 C 347 343 287 314 283 333 Z"/></clipPath>
    <clipPath id="z23162c6"><path d="M 589 254 Q 596 244 606 234 Q 636 200 668 148 Q 681 123 694 112 Q 701 102 697 91 Q 693 79 667 61 Q 643 45 627 46 Q 611 49 618 68 Q 634 98 583 194 Q 559 239 525 289 Q 516 298 515 303 Q 514 304 514 305 C 513 308 519 313 522 311 Q 525 310 571 273 C 583 260 583 260 589 254 Z"/></clipPath>
    <clipPath id="z23162c7"><path d="M 700 271 Q 827 238 832 234 Q 839 227 835 219 Q 828 209 801 203 Q 773 199 747 211 Q 713 224 674 236 Q 634 246 589 254 C 580 256 563 270 571 273 Q 614 294 664 280 C 688 274 688 274 700 271 Z"/></clipPath>
    <clipPath id="z23162c8"><path d="M 672 419 Q 681 404 689 388 Q 714 334 727 322 Q 739 309 727 298 Q 717 283 705 275 Q 702 272 700 271 C 690 263 664 268 664 280 Q 667 323 634 388 C 622 408 622 408 616 418 Q 573 475 480 512 Q 467 516 476 521 Q 515 534 581 501 Q 608 489 648 450 C 664 429 664 429 672 419 Z"/></clipPath>
    <clipPath id="z23162c9"><path d="M 648 450 Q 661 471 736 533 Q 758 555 886 531 Q 914 527 911 519 Q 908 513 839 495 Q 731 459 685 428 Q 678 424 672 419 C 647 398 647 398 634 388 Q 583 348 561 349 Q 546 349 544 353 Q 543 359 556 366 Q 574 376 616 418 C 637 439 637 439 648 450 Z"/></clipPath>
    <clipPath id="z23162c10"><path d="M 452 636 Q 471 596 481 583 Q 491 576 487 567 Q 483 554 445 525 Q 435 515 424 519 Q 411 523 418 538 Q 428 566 400 640 C 389 667 389 667 384 680 Q 372 705 360 723 Q 350 741 353 754 Q 356 764 373 767 Q 424 780 480 808 Q 481 808 481 809 C 511 824 511 824 526 832 Q 596 872 703 954 Q 728 973 746 973 Q 767 973 767 953 Q 767 934 738 888 Q 717 855 561 797 C 528 784 528 784 512 778 Q 457 756 417 746 Q 396 742 407 722 Q 420 695 431 675 C 445 649 445 649 452 636 Z"/></clipPath>
    <clipPath id="z23162c11"><path d="M 627 621 Q 617 614 595 606 Q 558 587 540 594 Q 527 601 538 619 Q 539 622 543 628 C 550 639 554 653 554 666 Q 551 723 512 778 C 491 799 491 799 481 809 Q 478 810 475 813 Q 412 862 218 914 Q 187 920 219 930 Q 342 934 472 871 Q 511 844 526 832 C 549 809 549 809 561 797 Q 600 730 617 682 Q 620 672 624 661 C 629 649 638 629 627 621 Z"/></clipPath>
    <clipPath id="z23162c12"><path d="M 624 661 Q 762 649 908 669 Q 930 672 937 664 Q 944 651 933 640 Q 905 612 864 592 Q 851 586 826 593 Q 804 596 627 621 C 571 626 571 626 543 628 Q 513 628 452 636 C 417 639 417 639 400 640 Q 325 644 281 650 Q 206 659 95 657 Q 82 657 81 668 Q 80 680 97 694 Q 113 707 142 719 Q 152 723 170 716 Q 234 695 384 680 C 415 677 415 677 431 675 Q 458 672 554 666 C 601 663 601 663 624 661 Z"/></clipPath>
</defs>
<g id="bg-layer">
    <path class="bg" d="M 373 239 Q 463 170 495 163 Q 511 159 507 144 Q 506 129 448 96 Q 432 87 413 94 Q 362 110 287 130 Q 268 136 219 133 Q 200 132 206 150 Q 212 160 228 171 Q 255 187 284 171 Q 395 125 411 135 Q 421 142 416 153 Q 391 189 361 231 C 358 235 369 242 373 239 Z"/>
    <path class="bg" d="M 386 287 Q 390 278 386 259 Q 383 249 373 239 C 365 234 365 234 361 231 Q 316 207 304 210 Q 300 211 301 220 Q 331 256 364 292 C 369 297 385 294 386 287 Z"/>
    <path class="bg" d="M 338 322 Q 375 313 414 308 Q 436 301 440 310 Q 439 320 414 357 Q 407 367 412 371 Q 416 375 427 367 Q 488 337 512 333 Q 530 332 530 322 Q 530 318 522 311 C 517 307 517 307 514 305 Q 460 263 409 280 Q 397 283 386 287 C 371 290 371 290 364 292 Q 237 316 143 328 Q 122 329 138 348 Q 151 364 187 353 Q 233 341 283 333 C 320 326 320 326 338 322 Z"/>
    <path class="bg" d="M 335 358 Q 356 391 349 461 Q 345 495 334 515 Q 324 531 301 524 Q 279 518 258 511 Q 249 508 252 517 Q 255 523 268 533 Q 295 561 302 582 Q 309 595 321 595 Q 331 594 353 576 Q 395 537 393 441 Q 392 387 380 359 Q 370 334 338 322 C 295 305 307 321 335 358 Z"/>
    <path class="bg" d="M 283 333 Q 273 405 107 547 Q 92 559 112 555 Q 184 543 287 418 Q 291 412 296 407 Q 323 373 335 358 C 347 343 287 314 283 333 Z"/>
    <path class="bg" d="M 589 254 Q 596 244 606 234 Q 636 200 668 148 Q 681 123 694 112 Q 701 102 697 91 Q 693 79 667 61 Q 643 45 627 46 Q 611 49 618 68 Q 634 98 583 194 Q 559 239 525 289 Q 516 298 515 303 Q 514 304 514 305 C 513 308 519 313 522 311 Q 525 310 571 273 C 583 260 583 260 589 254 Z"/>
    <path class="bg" d="M 700 271 Q 827 238 832 234 Q 839 227 835 219 Q 828 209 801 203 Q 773 199 747 211 Q 713 224 674 236 Q 634 246 589 254 C 580 256 563 270 571 273 Q 614 294 664 280 C 688 274 688 274 700 271 Z"/>
    <path class="bg" d="M 672 419 Q 681 404 689 388 Q 714 334 727 322 Q 739 309 727 298 Q 717 283 705 275 Q 702 272 700 271 C 690 263 664 268 664 280 Q 667 323 634 388 C 622 408 622 408 616 418 Q 573 475 480 512 Q 467 516 476 521 Q 515 534 581 501 Q 608 489 648 450 C 664 429 664 429 672 419 Z"/>
    <path class="bg" d="M 648 450 Q 661 471 736 533 Q 758 555 886 531 Q 914 527 911 519 Q 908 513 839 495 Q 731 459 685 428 Q 678 424 672 419 C 647 398 647 398 634 388 Q 583 348 561 349 Q 546 349 544 353 Q 543 359 556 366 Q 574 376 616 418 C 637 439 637 439 648 450 Z"/>
    <path class="bg" d="M 452 636 Q 471 596 481 583 Q 491 576 487 567 Q 483 554 445 525 Q 435 515 424 519 Q 411 523 418 538 Q 428 566 400 640 C 389 667 389 667 384 680 Q 372 705 360 723 Q 350 741 353 754 Q 356 764 373 767 Q 424 780 480 808 Q 481 808 481 809 C 511 824 511 824 526 832 Q 596 872 703 954 Q 728 973 746 973 Q 767 973 767 953 Q 767 934 738 888 Q 717 855 561 797 C 528 784 528 784 512 778 Q 457 756 417 746 Q 396 742 407 722 Q 420 695 431 675 C 445 649 445 649 452 636 Z"/>
    <path class="bg" d="M 627 621 Q 617 614 595 606 Q 558 587 540 594 Q 527 601 538 619 Q 539 622 543 628 C 550 639 554 653 554 666 Q 551 723 512 778 C 491 799 491 799 481 809 Q 478 810 475 813 Q 412 862 218 914 Q 187 920 219 930 Q 342 934 472 871 Q 511 844 526 832 C 549 809 549 809 561 797 Q 600 730 617 682 Q 620 672 624 661 C 629 649 638 629 627 621 Z"/>
    <path class="bg" d="M 624 661 Q 762 649 908 669 Q 930 672 937 664 Q 944 651 933 640 Q 905 612 864 592 Q 851 586 826 593 Q 804 596 627 621 C 571 626 571 626 543 628 Q 513 628 452 636 C 417 639 417 639 400 640 Q 325 644 281 650 Q 206 659 95 657 Q 82 657 81 668 Q 80 680 97 694 Q 113 707 142 719 Q 152 723 170 716 Q 234 695 384 680 C 415 677 415 677 431 675 Q 458 672 554 666 C 601 663 601 663 624 661 Z"/>
</g>
<g id="anim-layer">
    <path style="--d:1s; stroke:#FF4444;" pathLength="3333" clip-path="url(#z23162c1)" d="M 209 142 L 262 156 L 428 116 L 458 158 L 369 230"/>
    <path style="--d:2s; stroke:#FF4444;" pathLength="3333" clip-path="url(#z23162c2)" d="M 309 214 L 378 286"/>
    <path style="--d:3s; stroke:#FF4444;" pathLength="3333" clip-path="url(#z23162c3)" d="M 137 335 L 431 290 L 481 325 L 417 366"/>
    <path style="--d:4s; stroke:#FF4444;" pathLength="3333" clip-path="url(#z23162c4)" d="M 296 335 L 358 360 L 367 492 L 319 560 L 260 516"/>
    <path style="--d:5s; stroke:#FF4444;" pathLength="3333" clip-path="url(#z23162c5)" d="M 286 339 L 299 368 L 253 429 L 109 551"/>
    <path style="--d:6s; stroke:#FF4444;" pathLength="3333" clip-path="url(#z23162c6)" d="M 625 54 L 657 107 L 522 305"/>
    <path style="--d:7s; stroke:#FF4444;" pathLength="3333" clip-path="url(#z23162c7)" d="M 583 267 L 831 225"/>
    <path style="--d:8s; stroke:#FF4444;" pathLength="3333" clip-path="url(#z23162c8)" d="M 669 289 L 694 323 L 629 437 L 563 490 L 483 517"/>
    <path style="--d:9s; stroke:#FF4444;" pathLength="3333" clip-path="url(#z23162c9)" d="M 551 354 L 755 502 L 901 520"/>
    <path style="--d:10s; stroke:#000;" pathLength="3333" clip-path="url(#z23162c10)" d="M 425 528 L 452 576 L 380 746 L 624 856 L 758 964"/>
    <path style="--d:11s; stroke:#000;" pathLength="3333" clip-path="url(#z23162c11)" d="M 540 599 L 589 640 L 588 666 L 524 801 L 388 882 L 212 920"/>
    <path style="--d:12s; stroke:#000;" pathLength="3333" clip-path="url(#z23162c12)" d="M 86 667 L 157 688 L 831 625 L 935 652"/>
</g>
</svg>