<svg id="z23219" class="acjk" viewBox="0 0 1024 1024" xmlns="http://www.w3.org/2000/svg">

<style>
<![CDATA[
@keyframes zk { to { stroke-dashoffset:0; } }
svg.acjk path[clip-path] {
    --t:0.8s;
    animation:zk var(--t) linear forwards var(--d);
    stroke-dasharray:3337;
    stroke-dashoffset:3339;
    stroke-width:128;
    stroke-linecap:round;
    fill:none;
}
/* Low opacity for background improves visual overlap at intersections */
svg.acjk .bg { fill:#ccc; opacity: 0.5; } 
]]>
</style>
<defs>
    <clipPath id="z23219c1"><path d="M 307 675 C 356 713 381 735 384 736 C 388 736 393 732 397 726 C 401 719 401 706 397 687 C 392 666 371 648 335 631 C 310 619 310 619 297 613 C 281 605 264 597 243 588 C 230 582 222 572 225 562 C 235 522 249 484 261 445 C 269 418 269 418 273 405 C 288 353 300 300 312 247 C 318 218 326 196 337 181 C 345 168 347 157 342 150 C 334 138 314 126 286 109 C 261 94 235 105 250 127 C 269 155 268 250 232 411 C 225 440 225 440 222 455 C 210 507 195 541 185 562 C 177 575 181 589 196 598 C 223 614 250 630 274 649 C 296 666 296 666 307 675 Z"/></clipPath>
    <clipPath id="z23219c2"><path d="M 274 649 C 226 708 176 742 121 774 C 112 778 111 785 119 785 C 203 781 259 734 307 675 C 317 661 326 646 335 631 C 349 603 370 553 382 519 C 398 467 409 423 421 405 C 427 394 424 386 416 380 C 389 358 369 348 353 352 C 344 354 341 359 345 369 C 347 375 352 383 352 392 C 352 411 352 411 352 421 C 352 445 337 536 297 613 C 290 625 282 637 274 649 Z"/></clipPath>
    <clipPath id="z23219c3"><path d="M 352 392 C 326 394 300 401 273 405 C 246 409 246 409 232 411 C 191 416 141 424 109 427 C 94 428 77 427 57 425 C 36 422 36 445 45 455 C 57 467 72 482 92 496 C 97 500 106 498 114 494 C 158 472 194 462 222 455 C 248 448 248 448 261 445 C 293 436 334 424 352 421 C 361 419 362 392 352 392 Z"/></clipPath>
    <clipPath id="z23219c4"><path d="M 569 250 C 650 151 667 124 691 99 C 701 88 702 79 693 71 C 682 62 667 55 649 51 C 632 47 620 49 613 53 C 606 56 606 60 610 69 C 623 101 552 236 547 254 C 544 261 565 256 569 250 Z"/></clipPath>
    <clipPath id="z23219c5"><path d="M 520 257 C 487 227 452 230 468 252 C 494 304 504 387 502 504 C 501 547 512 579 536 590 C 551 597 552 577 554 563 C 555 551 554 541 554 535 C 550 508 547 483 546 468 C 545 452 545 452 544 444 C 542 422 540 401 540 380 C 540 365 540 365 540 357 C 540 308 540 308 540 284 C 540 273 529 264 520 257 Z"/></clipPath>
    <clipPath id="z23219c6"><path d="M 710 546 C 725 597 745 636 770 586 C 780 563 781 528 789 446 C 797 342 806 284 817 271 C 826 258 826 248 821 240 C 815 232 796 222 761 209 C 744 202 729 202 716 208 C 663 227 614 240 569 250 C 554 253 554 253 547 254 C 537 254 528 255 520 257 C 509 259 529 286 540 284 C 577 275 625 262 662 253 C 709 240 743 243 742 295 C 740 350 738 397 735 436 C 733 456 727 499 715 513 C 709 523 708 535 710 546 Z"/></clipPath>
    <clipPath id="z23219c7"><path d="M 540 380 C 552 380 583 372 673 358 C 701 353 681 330 653 327 C 627 324 589 335 540 357 C 533 360 532 380 540 380 Z"/></clipPath>
    <clipPath id="z23219c8"><path d="M 546 468 C 589 465 635 457 679 451 C 711 446 690 422 659 417 C 641 413 602 424 544 444 C 537 447 538 468 546 468 Z"/></clipPath>
    <clipPath id="z23219c9"><path d="M 554 563 C 610 555 665 549 710 546 C 721 546 725 517 715 513 C 693 501 677 512 554 535 C 545 537 545 565 554 563 Z"/></clipPath>
    <clipPath id="z23219c10"><path d="M 434 698 C 422 730 409 761 392 791 C 381 809 382 828 393 849 C 398 859 407 861 419 852 C 448 828 459 792 460 747 C 460 726 461 709 455 696 C 449 684 437 687 434 698 Z"/></clipPath>
    <clipPath id="z23219c11"><path d="M 503 702 C 510 761 533 809 577 843 C 624 879 700 902 805 902 C 836 902 867 897 886 892 C 929 878 900 854 877 835 C 836 802 805 766 777 732 C 759 710 761 730 766 745 C 771 761 783 783 791 817 C 796 841 768 848 750 847 C 663 842 603 819 571 784 C 556 767 545 747 540 721 C 536 706 532 697 525 693 C 518 689 500 680 503 702 Z"/></clipPath>
    <clipPath id="z23219c12"><path d="M 605 660 C 620 675 635 693 652 712 C 660 721 679 734 689 715 C 692 706 692 695 690 679 C 687 666 678 653 661 644 C 621 622 595 612 588 617 C 574 624 590 644 605 660 Z"/></clipPath>
    <clipPath id="z23219c13"><path d="M 836 670 C 858 688 882 709 908 733 C 918 742 942 753 949 731 C 951 722 949 709 945 691 C 938 667 901 644 832 626 C 822 623 814 622 812 625 C 797 641 824 660 836 670 Z"/></clipPath>
</defs>
<g id="bg-layer">
    <path class="bg" d="M 307 675 C 356 713 381 735 384 736 C 388 736 393 732 397 726 C 401 719 401 706 397 687 C 392 666 371 648 335 631 C 310 619 310 619 297 613 C 281 605 264 597 243 588 C 230 582 222 572 225 562 C 235 522 249 484 261 445 C 269 418 269 418 273 405 C 288 353 300 300 312 247 C 318 218 326 196 337 181 C 345 168 347 157 342 150 C 334 138 314 126 286 109 C 261 94 235 105 250 127 C 269 155 268 250 232 411 C 225 440 225 440 222 455 C 210 507 195 541 185 562 C 177 575 181 589 196 598 C 223 614 250 630 274 649 C 296 666 296 666 307 675 Z"/>
    <path class="bg" d="M 274 649 C 226 708 176 742 121 774 C 112 778 111 785 119 785 C 203 781 259 734 307 675 C 317 661 326 646 335 631 C 349 603 370 553 382 519 C 398 467 409 423 421 405 C 427 394 424 386 416 380 C 389 358 369 348 353 352 C 344 354 341 359 345 369 C 347 375 352 383 352 392 C 352 411 352 411 352 421 C 352 445 337 536 297 613 C 290 625 282 637 274 649 Z"/>
    <path class="bg" d="M 352 392 C 326 394 300 401 273 405 C 246 409 246 409 232 411 C 191 416 141 424 109 427 C 94 428 77 427 57 425 C 36 422 36 445 45 455 C 57 467 72 482 92 496 C 97 500 106 498 114 494 C 158 472 194 462 222 455 C 248 448 248 448 261 445 C 293 436 334 424 352 421 C 361 419 362 392 352 392 Z"/>
    <path class="bg" d="M 569 250 C 650 151 667 124 691 99 C 701 88 702 79 693 71 C 682 62 667 55 649 51 C 632 47 620 49 613 53 C 606 56 606 60 610 69 C 623 101 552 236 547 254 C 544 261 565 256 569 250 Z"/>
    <path class="bg" d="M 520 257 C 487 227 452 230 468 252 C 494 304 504 387 502 504 C 501 547 512 579 536 590 C 551 597 552 577 554 563 C 555 551 554 541 554 535 C 550 508 547 483 546 468 C 545 452 545 452 544 444 C 542 422 540 401 540 380 C 540 365 540 365 540 357 C 540 308 540 308 540 284 C 540 273 529 264 520 257 Z"/>
    <path class="bg" d="M 710 546 C 725 597 745 636 770 586 C 780 563 781 528 789 446 C 797 342 806 284 817 271 C 826 258 826 248 821 240 C 815 232 796 222 761 209 C 744 202 729 202 716 208 C 663 227 614 240 569 250 C 554 253 554 253 547 254 C 537 254 528 255 520 257 C 509 259 529 286 540 284 C 577 275 625 262 662 253 C 709 240 743 243 742 295 C 740 350 738 397 735 436 C 733 456 727 499 715 513 C 709 523 708 535 710 546 Z"/>
    <path class="bg" d="M 540 380 C 552 380 583 372 673 358 C 701 353 681 330 653 327 C 627 324 589 335 540 357 C 533 360 532 380 540 380 Z"/>
    <path class="bg" d="M 546 468 C 589 465 635 457 679 451 C 711 446 690 422 659 417 C 641 413 602 424 544 444 C 537 447 538 468 546 468 Z"/>
    <path class="bg" d="M 554 563 C 610 555 665 549 710 546 C 721 546 725 517 715 513 C 693 501 677 512 554 535 C 545 537 545 565 554 563 Z"/>
    <path class="bg" d="M 434 698 C 422 730 409 761 392 791 C 381 809 382 828 393 849 C 398 859 407 861 419 852 C 448 828 459 792 460 747 C 460 726 461 709 455 696 C 449 684 437 687 434 698 Z"/>
    <path class="bg" d="M 503 702 C 510 761 533 809 577 843 C 624 879 700 902 805 902 C 836 902 867 897 886 892 C 929 878 900 854 877 835 C 836 802 805 766 777 732 C 759 710 761 730 766 745 C 771 761 783 783 791 817 C 796 841 768 848 750 847 C 663 842 603 819 571 784 C 556 767 545 747 540 721 C 536 706 532 697 525 693 C 518 689 500 680 503 702 Z"/>
    <path class="bg" d="M 605 660 C 620 675 635 693 652 712 C 660 721 679 734 689 715 C 692 706 692 695 690 679 C 687 666 678 653 661 644 C 621 622 595 612 588 617 C 574 624 590 644 605 660 Z"/>
    <path class="bg" d="M 836 670 C 858 688 882 709 908 733 C 918 742 942 753 949 731 C 951 722 949 709 945 691 C 938 667 901 644 832 626 C 822 623 814 622 812 625 C 797 641 824 660 836 670 Z"/>
</g>
<g id="anim-layer">
    <path style="--d:1s; stroke:#FF4444;" pathLength="3333" clip-path="url(#z23219c1)" d="M 253 110 L 303 170 L 203 575 L 349 671 L 388 729"/>
    <path style="--d:2s; stroke:#FF4444;" pathLength="3333" clip-path="url(#z23219c2)" d="M 349 358 L 388 399 L 321 612 L 245 711 L 123 779"/>
    <path style="--d:3s; stroke:#FF4444;" pathLength="3333" clip-path="url(#z23219c3)" d="M 42 434 L 110 461 L 356 408"/>
    <path style="--d:4s; stroke:#000;" pathLength="3333" clip-path="url(#z23219c4)" d="M 615 61 L 651 99 L 554 252"/>
    <path style="--d:5s; stroke:#000;" pathLength="3333" clip-path="url(#z23219c5)" d="M 471 242 L 511 284 L 539 586"/>
    <path style="--d:6s; stroke:#000;" pathLength="3333" clip-path="url(#z23219c6)" d="M 523 263 L 728 226 L 782 262 L 745 604"/>
    <path style="--d:7s; stroke:#000;" pathLength="3333" clip-path="url(#z23219c7)" d="M 539 371 L 681 347"/>
    <path style="--d:8s; stroke:#000;" pathLength="3333" clip-path="url(#z23219c8)" d="M 545 458 L 690 437"/>
    <path style="--d:9s; stroke:#000;" pathLength="3333" clip-path="url(#z23219c9)" d="M 552 552 L 718 529"/>
    <path style="--d:10s; stroke:#000;" pathLength="3333" clip-path="url(#z23219c10)" d="M 447 694 L 399 853"/>
    <path style="--d:11s; stroke:#000;" pathLength="3333" clip-path="url(#z23219c11)" d="M 512 692 L 572 813 L 735 872 L 858 853 L 768 731"/>
    <path style="--d:12s; stroke:#000;" pathLength="3333" clip-path="url(#z23219c12)" d="M 588 623 L 685 717"/>
    <path style="--d:13s; stroke:#000;" pathLength="3333" clip-path="url(#z23219c13)" d="M 814 634 L 897 682 L 941 735"/>
</g>
</svg>