<svg id="z23380" class="acjk" viewBox="0 0 1024 1024" xmlns="http://www.w3.org/2000/svg">

<style>
<![CDATA[
@keyframes zk { to { stroke-dashoffset:0; } }
svg.acjk path[clip-path] {
    --t:0.8s;
    animation:zk var(--t) linear forwards var(--d);
    stroke-dasharray:3337;
    stroke-dashoffset:3339;
    stroke-width:128;
    stroke-linecap:round;
    fill:none;
}
/* Low opacity for background improves visual overlap at intersections */
svg.acjk .bg { fill:#ccc; opacity: 0.5; } 
]]>
</style>
<defs>
    <clipPath id="z23380c1"><path d="M 357 382 Q 474 265 499 254 Q 520 247 512 229 Q 508 213 436 178 Q 415 169 392 179 Q 337 201 253 228 Q 231 235 178 235 Q 153 235 162 256 Q 171 269 191 281 Q 224 299 261 276 Q 369 213 396 231 Q 411 241 403 257 Q 375 309 342 373 C 340 378 353 386 357 382 Z"/></clipPath>
    <clipPath id="z23380c2"><path d="M 342 373 Q 335 369 327 366 Q 306 359 296 364 Q 283 371 296 384 Q 335 414 352 506 C 356 533 356 533 358 546 Q 373 693 343 768 Q 328 793 293 787 Q 259 781 228 774 Q 216 771 222 782 Q 226 789 246 802 Q 289 836 304 862 Q 314 880 331 878 Q 344 877 371 851 Q 443 778 410 516 C 405 493 405 493 403 481 Q 387 406 357 382 C 347 376 347 376 342 373 Z"/></clipPath>
    <clipPath id="z23380c3"><path d="M 352 506 Q 252 551 143 600 Q 118 612 76 617 Q 63 620 62 631 Q 61 646 72 653 Q 99 668 136 683 Q 148 684 159 674 Q 210 626 358 546 C 393 526 393 526 410 516 Q 482 473 497 458 Q 510 448 509 439 Q 503 433 490 438 Q 447 459 403 481 C 369 498 369 498 352 506 Z"/></clipPath>
    <clipPath id="z23380c4"><path d="M 954 849 Q 976 833 956 794 Q 937 727 935 642 Q 935 630 927 621 Q 917 614 911 639 Q 901 672 886 726 Q 873 778 858 798 Q 854 811 830 816 Q 793 826 743 822 Q 706 821 681 810 Q 648 798 635 755 Q 614 686 626 453 Q 635 231 663 188 Q 679 142 589 114 Q 583 111 578 111 Q 557 107 548 117 Q 539 127 547 137 Q 563 152 571 175 Q 575 202 571 360 Q 559 672 583 767 Q 592 816 637 850 Q 706 904 869 885 Q 881 882 893 880 Q 936 868 954 849 Z"/></clipPath>
</defs>
<g id="bg-layer">
    <path class="bg" d="M 357 382 Q 474 265 499 254 Q 520 247 512 229 Q 508 213 436 178 Q 415 169 392 179 Q 337 201 253 228 Q 231 235 178 235 Q 153 235 162 256 Q 171 269 191 281 Q 224 299 261 276 Q 369 213 396 231 Q 411 241 403 257 Q 375 309 342 373 C 340 378 353 386 357 382 Z"/>
    <path class="bg" d="M 342 373 Q 335 369 327 366 Q 306 359 296 364 Q 283 371 296 384 Q 335 414 352 506 C 356 533 356 533 358 546 Q 373 693 343 768 Q 328 793 293 787 Q 259 781 228 774 Q 216 771 222 782 Q 226 789 246 802 Q 289 836 304 862 Q 314 880 331 878 Q 344 877 371 851 Q 443 778 410 516 C 405 493 405 493 403 481 Q 387 406 357 382 C 347 376 347 376 342 373 Z"/>
    <path class="bg" d="M 352 506 Q 252 551 143 600 Q 118 612 76 617 Q 63 620 62 631 Q 61 646 72 653 Q 99 668 136 683 Q 148 684 159 674 Q 210 626 358 546 C 393 526 393 526 410 516 Q 482 473 497 458 Q 510 448 509 439 Q 503 433 490 438 Q 447 459 403 481 C 369 498 369 498 352 506 Z"/>
    <path class="bg" d="M 954 849 Q 976 833 956 794 Q 937 727 935 642 Q 935 630 927 621 Q 917 614 911 639 Q 901 672 886 726 Q 873 778 858 798 Q 854 811 830 816 Q 793 826 743 822 Q 706 821 681 810 Q 648 798 635 755 Q 614 686 626 453 Q 635 231 663 188 Q 679 142 589 114 Q 583 111 578 111 Q 557 107 548 117 Q 539 127 547 137 Q 563 152 571 175 Q 575 202 571 360 Q 559 672 583 767 Q 592 816 637 850 Q 706 904 869 885 Q 881 882 893 880 Q 936 868 954 849 Z"/>
</g>
<g id="anim-layer">
    <path style="--d:1s; stroke:#FF4444;" pathLength="3333" clip-path="url(#z23380c1)" d="M 166 247 L 233 260 L 387 203 L 442 221 L 456 254 L 350 376"/>
    <path style="--d:2s; stroke:#FF4444;" pathLength="3333" clip-path="url(#z23380c2)" d="M 296 373 L 344 403 L 373 474 L 384 738 L 370 790 L 326 832 L 228 778"/>
    <path style="--d:3s; stroke:#FF4444;" pathLength="3333" clip-path="url(#z23380c3)" d="M 66 632 L 134 645 L 502 443"/>
    <path style="--d:4s; stroke:#000;" pathLength="3333" clip-path="url(#z23380c4)" d="M 548 125 L 618 180 L 595 649 L 631 807 L 736 854 L 892 834 L 917 798 L 922 629"/>
</g>
</svg>