<svg id="z23528" class="acjk" viewBox="0 0 1024 1024" xmlns="http://www.w3.org/2000/svg">

<style>
<![CDATA[
@keyframes zk { to { stroke-dashoffset:0; } }
svg.acjk path[clip-path] {
    --t:0.8s;
    animation:zk var(--t) linear forwards var(--d);
    stroke-dasharray:3337;
    stroke-dashoffset:3339;
    stroke-width:128;
    stroke-linecap:round;
    fill:none;
}
/* Low opacity for background improves visual overlap at intersections */
svg.acjk .bg { fill:#ccc; opacity: 0.5; } 
]]>
</style>
<defs>
    <clipPath id="z23528c1"><path d="M 471 80 C 491 94 511 110 532 128 C 540 134 549 137 559 137 C 565 136 570 132 573 124 C 575 115 573 101 566 83 C 558 62 523 47 464 37 C 453 35 447 34 444 37 C 441 39 439 45 442 53 C 443 59 454 68 471 80 Z"/></clipPath>
    <clipPath id="z23528c2"><path d="M 273 190 C 266 177 259 168 254 164 C 241 154 231 158 233 176 C 234 192 233 209 222 226 C 211 240 197 253 181 270 C 173 277 172 288 174 302 C 176 321 180 337 187 349 C 196 367 208 367 222 349 C 232 334 242 315 250 292 C 264 247 273 223 277 221 C 284 213 278 199 273 190 Z"/></clipPath>
    <clipPath id="z23528c3"><path d="M 277 221 C 293 229 311 230 331 224 C 413 197 528 179 677 165 C 689 163 740 158 740 182 C 739 194 730 206 713 251 C 702 276 713 274 735 260 C 768 237 798 221 826 213 C 849 206 859 198 859 193 C 858 186 835 166 790 134 C 775 123 739 124 681 133 C 522 154 417 172 273 190 C 263 192 267 217 277 221 Z"/></clipPath>
    <clipPath id="z23528c4"><path d="M 603 321 C 629 316 669 314 686 300 C 703 284 686 274 660 268 C 643 263 628 265 613 270 C 576 280 576 280 558 285 C 520 295 479 305 443 310 C 410 314 410 314 394 316 C 372 318 350 318 329 321 C 308 323 304 330 319 340 C 339 354 366 359 399 354 C 428 349 428 349 442 347 C 478 341 517 334 557 328 C 588 323 588 323 603 321 Z"/></clipPath>
    <clipPath id="z23528c5"><path d="M 589 416 C 617 412 644 409 670 406 C 707 400 682 378 652 371 C 638 367 619 371 596 375 C 568 380 568 380 554 382 C 515 388 478 396 442 402 C 416 406 416 406 403 408 C 373 412 345 414 320 420 C 309 422 308 429 322 438 C 350 455 376 446 406 442 C 431 438 431 438 443 436 C 479 430 515 425 551 421 C 576 418 576 418 589 416 Z"/></clipPath>
    <clipPath id="z23528c6"><path d="M 443 310 C 443 283 442 267 435 261 C 422 250 408 241 392 237 C 373 231 363 240 371 256 C 380 275 391 294 394 316 C 397 341 397 341 399 354 C 400 367 401 385 403 408 C 405 431 405 431 406 442 C 407 457 408 476 410 497 C 410 509 446 504 446 492 C 445 472 443 453 443 436 C 442 413 442 413 442 402 C 441 383 441 365 442 347 C 443 322 443 322 443 310 Z"/></clipPath>
    <clipPath id="z23528c7"><path d="M 581 472 C 581 472 585 434 589 416 C 594 389 594 389 596 375 C 599 356 599 338 603 321 C 610 287 610 287 613 270 C 615 259 620 247 624 238 C 626 233 623 224 612 216 C 595 203 578 197 566 194 C 547 189 537 200 545 215 C 555 233 558 256 558 285 C 557 314 557 314 557 328 C 556 344 555 362 554 382 C 552 408 552 408 551 421 C 549 439 547 458 545 478 C 543 490 579 484 581 472 Z"/></clipPath>
    <clipPath id="z23528c8"><path d="M 618 508 C 655 505 715 504 796 505 C 823 505 832 491 809 473 C 774 446 735 442 692 452 C 660 458 623 464 581 472 C 557 476 557 476 545 478 C 510 483 477 487 446 492 C 422 495 422 495 410 497 C 342 506 270 512 196 523 C 183 524 180 531 190 541 C 198 549 208 556 220 559 C 232 562 244 562 255 560 C 285 552 316 545 349 539 C 374 534 374 534 386 532 C 430 523 496 515 585 510 C 607 509 607 509 618 508 Z"/></clipPath>
    <clipPath id="z23528c9"><path d="M 349 539 C 303 639 219 691 130 738 C 109 749 109 758 132 754 C 239 732 316 663 392 594 C 399 587 414 580 414 572 C 413 555 400 538 386 532 C 375 526 354 527 349 539 Z"/></clipPath>
    <clipPath id="z23528c10"><path d="M 585 510 Q 754 697 797 710 Q 857 719 952 699 Q 968 698 970 692 Q 971 686 958 681 Q 913 665 861 650 Q 756 614 618 508 C 609 501 578 501 585 510 Z"/></clipPath>
    <clipPath id="z23528c11"><path d="M 531 696 C 560 691 603 685 666 679 C 694 676 688 658 664 648 C 614 627 599 640 531 655 C 502 661 502 661 487 664 C 456 670 399 675 317 685 C 298 687 294 695 310 705 C 364 740 407 716 488 703 C 517 698 517 698 531 696 Z"/></clipPath>
    <clipPath id="z23528c12"><path d="M 451 856 C 427 851 404 846 381 844 C 362 841 367 851 382 861 C 431 892 464 921 485 943 C 493 951 502 952 510 945 C 529 925 536 883 534 819 C 532 791 531 750 531 696 C 531 669 531 669 531 655 C 531 636 535 620 542 607 C 546 596 544 587 535 579 C 520 566 504 557 488 552 C 465 544 459 554 470 571 C 481 590 485 622 487 664 C 488 690 488 690 488 703 C 490 794 483 845 473 854 C 467 858 460 857 451 856 Z"/></clipPath>
    <clipPath id="z23528c13"><path d="M 325 763 C 306 785 286 806 265 827 C 248 842 243 861 249 883 C 251 893 258 897 272 893 C 306 879 324 853 335 817 C 340 798 348 782 346 768 C 345 762 341 759 338 758 C 333 756 328 758 325 763 Z"/></clipPath>
    <clipPath id="z23528c14"><path d="M 607 765 C 635 793 668 827 702 870 C 711 881 719 890 730 893 C 734 894 739 891 745 886 C 753 878 752 860 747 834 C 741 809 718 785 674 765 C 646 751 623 744 609 737 C 603 734 600 734 599 743 C 597 750 600 758 607 765 Z"/></clipPath>
</defs>
<g id="bg-layer">
    <path class="bg" d="M 471 80 C 491 94 511 110 532 128 C 540 134 549 137 559 137 C 565 136 570 132 573 124 C 575 115 573 101 566 83 C 558 62 523 47 464 37 C 453 35 447 34 444 37 C 441 39 439 45 442 53 C 443 59 454 68 471 80 Z"/>
    <path class="bg" d="M 273 190 C 266 177 259 168 254 164 C 241 154 231 158 233 176 C 234 192 233 209 222 226 C 211 240 197 253 181 270 C 173 277 172 288 174 302 C 176 321 180 337 187 349 C 196 367 208 367 222 349 C 232 334 242 315 250 292 C 264 247 273 223 277 221 C 284 213 278 199 273 190 Z"/>
    <path class="bg" d="M 277 221 C 293 229 311 230 331 224 C 413 197 528 179 677 165 C 689 163 740 158 740 182 C 739 194 730 206 713 251 C 702 276 713 274 735 260 C 768 237 798 221 826 213 C 849 206 859 198 859 193 C 858 186 835 166 790 134 C 775 123 739 124 681 133 C 522 154 417 172 273 190 C 263 192 267 217 277 221 Z"/>
    <path class="bg" d="M 603 321 C 629 316 669 314 686 300 C 703 284 686 274 660 268 C 643 263 628 265 613 270 C 576 280 576 280 558 285 C 520 295 479 305 443 310 C 410 314 410 314 394 316 C 372 318 350 318 329 321 C 308 323 304 330 319 340 C 339 354 366 359 399 354 C 428 349 428 349 442 347 C 478 341 517 334 557 328 C 588 323 588 323 603 321 Z"/>
    <path class="bg" d="M 589 416 C 617 412 644 409 670 406 C 707 400 682 378 652 371 C 638 367 619 371 596 375 C 568 380 568 380 554 382 C 515 388 478 396 442 402 C 416 406 416 406 403 408 C 373 412 345 414 320 420 C 309 422 308 429 322 438 C 350 455 376 446 406 442 C 431 438 431 438 443 436 C 479 430 515 425 551 421 C 576 418 576 418 589 416 Z"/>
    <path class="bg" d="M 443 310 C 443 283 442 267 435 261 C 422 250 408 241 392 237 C 373 231 363 240 371 256 C 380 275 391 294 394 316 C 397 341 397 341 399 354 C 400 367 401 385 403 408 C 405 431 405 431 406 442 C 407 457 408 476 410 497 C 410 509 446 504 446 492 C 445 472 443 453 443 436 C 442 413 442 413 442 402 C 441 383 441 365 442 347 C 443 322 443 322 443 310 Z"/>
    <path class="bg" d="M 581 472 C 581 472 585 434 589 416 C 594 389 594 389 596 375 C 599 356 599 338 603 321 C 610 287 610 287 613 270 C 615 259 620 247 624 238 C 626 233 623 224 612 216 C 595 203 578 197 566 194 C 547 189 537 200 545 215 C 555 233 558 256 558 285 C 557 314 557 314 557 328 C 556 344 555 362 554 382 C 552 408 552 408 551 421 C 549 439 547 458 545 478 C 543 490 579 484 581 472 Z"/>
    <path class="bg" d="M 618 508 C 655 505 715 504 796 505 C 823 505 832 491 809 473 C 774 446 735 442 692 452 C 660 458 623 464 581 472 C 557 476 557 476 545 478 C 510 483 477 487 446 492 C 422 495 422 495 410 497 C 342 506 270 512 196 523 C 183 524 180 531 190 541 C 198 549 208 556 220 559 C 232 562 244 562 255 560 C 285 552 316 545 349 539 C 374 534 374 534 386 532 C 430 523 496 515 585 510 C 607 509 607 509 618 508 Z"/>
    <path class="bg" d="M 349 539 C 303 639 219 691 130 738 C 109 749 109 758 132 754 C 239 732 316 663 392 594 C 399 587 414 580 414 572 C 413 555 400 538 386 532 C 375 526 354 527 349 539 Z"/>
    <path class="bg" d="M 585 510 Q 754 697 797 710 Q 857 719 952 699 Q 968 698 970 692 Q 971 686 958 681 Q 913 665 861 650 Q 756 614 618 508 C 609 501 578 501 585 510 Z"/>
    <path class="bg" d="M 531 696 C 560 691 603 685 666 679 C 694 676 688 658 664 648 C 614 627 599 640 531 655 C 502 661 502 661 487 664 C 456 670 399 675 317 685 C 298 687 294 695 310 705 C 364 740 407 716 488 703 C 517 698 517 698 531 696 Z"/>
    <path class="bg" d="M 451 856 C 427 851 404 846 381 844 C 362 841 367 851 382 861 C 431 892 464 921 485 943 C 493 951 502 952 510 945 C 529 925 536 883 534 819 C 532 791 531 750 531 696 C 531 669 531 669 531 655 C 531 636 535 620 542 607 C 546 596 544 587 535 579 C 520 566 504 557 488 552 C 465 544 459 554 470 571 C 481 590 485 622 487 664 C 488 690 488 690 488 703 C 490 794 483 845 473 854 C 467 858 460 857 451 856 Z"/>
    <path class="bg" d="M 325 763 C 306 785 286 806 265 827 C 248 842 243 861 249 883 C 251 893 258 897 272 893 C 306 879 324 853 335 817 C 340 798 348 782 346 768 C 345 762 341 759 338 758 C 333 756 328 758 325 763 Z"/>
    <path class="bg" d="M 607 765 C 635 793 668 827 702 870 C 711 881 719 890 730 893 C 734 894 739 891 745 886 C 753 878 752 860 747 834 C 741 809 718 785 674 765 C 646 751 623 744 609 737 C 603 734 600 734 599 743 C 597 750 600 758 607 765 Z"/>
</g>
<g id="anim-layer">
    <path style="--d:1s; stroke:#FF4444;" pathLength="3333" clip-path="url(#z23528c1)" d="M 447 47 L 566 128"/>
    <path style="--d:2s; stroke:#FF4444;" pathLength="3333" clip-path="url(#z23528c2)" d="M 242 168 L 254 214 L 199 355"/>
    <path style="--d:3s; stroke:#FF4444;" pathLength="3333" clip-path="url(#z23528c3)" d="M 271 199 L 734 146 L 767 156 L 804 198 L 715 262"/>
    <path style="--d:4s; stroke:#000;" pathLength="3333" clip-path="url(#z23528c4)" d="M 318 329 L 396 335 L 686 288"/>
    <path style="--d:5s; stroke:#000;" pathLength="3333" clip-path="url(#z23528c5)" d="M 321 426 L 679 393"/>
    <path style="--d:6s; stroke:#000;" pathLength="3333" clip-path="url(#z23528c6)" d="M 374 241 L 415 284 L 429 501"/>
    <path style="--d:7s; stroke:#000;" pathLength="3333" clip-path="url(#z23528c7)" d="M 549 200 L 590 243 L 560 481"/>
    <path style="--d:8s; stroke:#000;" pathLength="3333" clip-path="url(#z23528c8)" d="M 192 530 L 252 538 L 713 476 L 817 487"/>
    <path style="--d:9s; stroke:#000;" pathLength="3333" clip-path="url(#z23528c9)" d="M 359 536 L 371 575 L 305 642 L 120 748"/>
    <path style="--d:10s; stroke:#000;" pathLength="3333" clip-path="url(#z23528c10)" d="M 596 513 L 807 671 L 964 689"/>
    <path style="--d:11s; stroke:#000;" pathLength="3333" clip-path="url(#z23528c11)" d="M 306 692 L 373 701 L 678 664"/>
    <path style="--d:12s; stroke:#000;" pathLength="3333" clip-path="url(#z23528c12)" d="M 474 559 L 512 602 L 499 880 L 482 902 L 377 849"/>
    <path style="--d:13s; stroke:#000;" pathLength="3333" clip-path="url(#z23528c13)" d="M 335 764 L 261 890"/>
    <path style="--d:14s; stroke:#000;" pathLength="3333" clip-path="url(#z23528c14)" d="M 605 741 L 703 821 L 738 886"/>
</g>
</svg>