<svg id="z23574" class="acjk" viewBox="0 0 1024 1024" xmlns="http://www.w3.org/2000/svg">

<style>
<![CDATA[
@keyframes zk { to { stroke-dashoffset:0; } }
svg.acjk path[clip-path] {
    --t:0.8s;
    animation:zk var(--t) linear forwards var(--d);
    stroke-dasharray:3337;
    stroke-dashoffset:3339;
    stroke-width:128;
    stroke-linecap:round;
    fill:none;
}
/* Low opacity for background improves visual overlap at intersections */
svg.acjk .bg { fill:#ccc; opacity: 0.5; } 
]]>
</style>
<defs>
    <clipPath id="z23574c1"><path d="M 462 114 C 474 137 484 204 484 317 C 484 349 480 371 477 386 C 475 392 480 410 493 437 C 498 448 508 451 517 445 C 527 437 528 405 528 353 C 526 250 536 182 555 150 C 558 143 558 134 550 127 C 516 97 488 88 469 95 C 460 97 456 104 462 114 Z"/></clipPath>
    <clipPath id="z23574c2"><path d="M 320 264 C 298 293 276 321 251 346 C 232 364 227 387 234 416 C 237 429 247 435 264 428 C 304 409 325 375 336 331 C 341 307 347 287 345 269 C 343 262 340 257 336 257 C 329 256 323 259 320 264 Z"/></clipPath>
    <clipPath id="z23574c3"><path d="M 651 244 C 689 275 732 312 778 359 C 790 372 801 381 812 383 C 818 384 823 379 829 373 C 837 362 835 343 826 313 C 813 273 755 240 651 211 C 643 208 640 209 640 219 C 639 229 643 237 651 244 Z"/></clipPath>
    <clipPath id="z23574c4"><path d="M 519 584 C 571 574 663 560 797 550 C 805 549 814 549 819 538 C 822 529 811 521 796 512 C 769 496 735 494 692 505 C 616 522 561 533 528 539 C 479 548 479 548 454 552 C 427 556 348 567 198 580 C 176 581 173 589 190 603 C 214 622 236 631 256 628 C 316 617 381 608 451 596 C 496 588 496 588 519 584 Z"/></clipPath>
    <clipPath id="z23574c5"><path d="M 451 596 C 439 690 398 759 333 808 C 305 829 257 856 186 888 C 167 896 169 901 191 903 C 203 903 223 899 252 892 C 286 883 319 871 350 857 C 377 843 401 823 425 798 C 458 760 487 706 508 632 C 511 619 513 606 517 593 C 517 590 518 587 519 584 C 522 569 524 554 528 539 C 530 526 533 517 538 511 C 542 505 543 499 539 491 C 535 484 520 479 499 470 C 473 458 455 452 444 458 C 435 462 435 470 442 483 C 449 499 453 521 454 552 C 454 566 452 581 451 596 Z"/></clipPath>
    <clipPath id="z23574c6"><path d="M 508 632 C 524 656 555 700 602 763 C 656 835 704 892 745 934 C 764 954 782 965 800 963 C 850 957 898 950 943 945 C 961 942 970 939 971 935 C 971 930 961 921 940 913 C 833 869 763 839 732 814 C 659 755 588 680 517 593 C 509 582 500 621 508 632 Z"/></clipPath>
</defs>
<g id="bg-layer">
    <path class="bg" d="M 462 114 C 474 137 484 204 484 317 C 484 349 480 371 477 386 C 475 392 480 410 493 437 C 498 448 508 451 517 445 C 527 437 528 405 528 353 C 526 250 536 182 555 150 C 558 143 558 134 550 127 C 516 97 488 88 469 95 C 460 97 456 104 462 114 Z"/>
    <path class="bg" d="M 320 264 C 298 293 276 321 251 346 C 232 364 227 387 234 416 C 237 429 247 435 264 428 C 304 409 325 375 336 331 C 341 307 347 287 345 269 C 343 262 340 257 336 257 C 329 256 323 259 320 264 Z"/>
    <path class="bg" d="M 651 244 C 689 275 732 312 778 359 C 790 372 801 381 812 383 C 818 384 823 379 829 373 C 837 362 835 343 826 313 C 813 273 755 240 651 211 C 643 208 640 209 640 219 C 639 229 643 237 651 244 Z"/>
    <path class="bg" d="M 519 584 C 571 574 663 560 797 550 C 805 549 814 549 819 538 C 822 529 811 521 796 512 C 769 496 735 494 692 505 C 616 522 561 533 528 539 C 479 548 479 548 454 552 C 427 556 348 567 198 580 C 176 581 173 589 190 603 C 214 622 236 631 256 628 C 316 617 381 608 451 596 C 496 588 496 588 519 584 Z"/>
    <path class="bg" d="M 451 596 C 439 690 398 759 333 808 C 305 829 257 856 186 888 C 167 896 169 901 191 903 C 203 903 223 899 252 892 C 286 883 319 871 350 857 C 377 843 401 823 425 798 C 458 760 487 706 508 632 C 511 619 513 606 517 593 C 517 590 518 587 519 584 C 522 569 524 554 528 539 C 530 526 533 517 538 511 C 542 505 543 499 539 491 C 535 484 520 479 499 470 C 473 458 455 452 444 458 C 435 462 435 470 442 483 C 449 499 453 521 454 552 C 454 566 452 581 451 596 Z"/>
    <path class="bg" d="M 508 632 C 524 656 555 700 602 763 C 656 835 704 892 745 934 C 764 954 782 965 800 963 C 850 957 898 950 943 945 C 961 942 970 939 971 935 C 971 930 961 921 940 913 C 833 869 763 839 732 814 C 659 755 588 680 517 593 C 509 582 500 621 508 632 Z"/>
</g>
<g id="anim-layer">
    <path style="--d:1s; stroke:#FF4444;" pathLength="3333" clip-path="url(#z23574c1)" d="M 467 100 L 516 150 L 507 443"/>
    <path style="--d:2s; stroke:#FF4444;" pathLength="3333" clip-path="url(#z23574c2)" d="M 332 263 L 238 419"/>
    <path style="--d:3s; stroke:#FF4444;" pathLength="3333" clip-path="url(#z23574c3)" d="M 645 216 L 773 301 L 817 376"/>
    <path style="--d:4s; stroke:#000;" pathLength="3333" clip-path="url(#z23574c4)" d="M 191 592 L 258 601 L 722 528 L 813 534"/>
    <path style="--d:5s; stroke:#000;" pathLength="3333" clip-path="url(#z23574c5)" d="M 446 462 L 497 513 L 430 745 L 322 845 L 182 896"/>
    <path style="--d:6s; stroke:#000;" pathLength="3333" clip-path="url(#z23574c6)" d="M 518 601 L 590 711 L 763 887 L 815 916 L 963 932"/>
</g>
</svg>