<svg id="z23614" class="acjk" viewBox="0 0 1024 1024" xmlns="http://www.w3.org/2000/svg">

<style>
<![CDATA[
@keyframes zk { to { stroke-dashoffset:0; } }
svg.acjk path[clip-path] {
    --t:0.8s;
    animation:zk var(--t) linear forwards var(--d);
    stroke-dasharray:3337;
    stroke-dashoffset:3339;
    stroke-width:128;
    stroke-linecap:round;
    fill:none;
}
/* Low opacity for background improves visual overlap at intersections */
svg.acjk .bg { fill:#ccc; opacity: 0.5; } 
]]>
</style>
<defs>
    <clipPath id="z23614c1"><path d="M 672 230 C 688 198 706 180 723 168 C 737 157 736 142 726 131 C 716 120 692 105 657 89 C 644 83 630 83 616 89 C 551 114 466 136 359 153 C 348 155 357 188 368 186 C 378 185 529 152 593 139 C 609 135 621 136 628 143 C 635 150 630 179 614 229 C 607 247 663 247 672 230 Z"/></clipPath>
    <clipPath id="z23614c2"><path d="M 338 325 C 346 329 356 329 368 326 C 434 306 540 284 685 263 C 691 262 696 258 697 252 C 697 247 688 240 672 230 C 655 220 633 225 614 229 C 514 257 423 279 343 295 C 333 297 329 321 338 325 Z"/></clipPath>
    <clipPath id="z23614c3"><path d="M 359 153 C 349 144 336 136 323 128 C 310 119 299 116 291 120 C 282 123 279 131 284 140 C 295 160 300 188 297 224 C 282 365 263 450 225 553 C 220 565 215 577 210 589 C 174 666 126 744 65 825 C 61 829 58 834 57 838 C 54 844 56 848 64 847 C 92 843 139 795 203 702 C 212 688 220 674 228 660 C 278 564 316 452 338 325 C 341 305 341 305 343 295 C 354 228 361 192 368 186 C 374 176 368 160 359 153 Z"/></clipPath>
    <clipPath id="z23614c4"><path d="M 489 435 C 525 423 639 379 664 376 C 674 374 682 373 685 368 C 688 361 685 353 677 346 C 665 335 643 325 615 314 C 604 309 595 306 588 308 C 583 309 580 314 580 322 C 579 350 505 392 361 457 C 356 459 357 467 361 468 C 372 470 402 462 448 448 C 475 439 475 439 489 435 Z"/></clipPath>
    <clipPath id="z23614c5"><path d="M 514 570 C 622 539 677 520 681 518 C 685 513 687 508 684 503 C 679 496 667 490 649 487 C 630 483 612 488 595 496 C 571 506 547 516 523 524 C 484 537 484 537 464 543 C 428 554 391 558 354 565 C 331 569 328 579 346 587 C 385 604 421 596 464 584 C 497 575 497 575 514 570 Z"/></clipPath>
    <clipPath id="z23614c6"><path d="M 507 683 C 570 669 660 656 780 647 C 792 646 799 642 802 636 C 804 629 801 620 790 614 C 754 592 725 586 704 593 C 655 607 590 625 507 646 C 478 653 478 653 463 657 C 398 673 330 686 258 702 C 245 704 242 712 254 721 C 276 738 299 740 320 733 C 363 716 412 702 464 692 C 493 686 493 686 507 683 Z"/></clipPath>
    <clipPath id="z23614c7"><path d="M 931 810 C 917 775 907 727 899 667 C 897 656 895 649 889 646 C 884 643 879 648 878 662 C 868 736 861 781 851 795 C 829 821 769 836 673 838 C 620 838 582 833 560 824 C 539 815 528 802 524 789 C 516 768 507 733 507 683 C 507 658 507 658 507 646 C 507 617 509 591 514 570 C 520 539 520 539 523 524 C 524 517 526 511 529 505 C 538 485 535 468 522 458 C 509 448 498 441 489 435 C 477 428 441 436 448 448 C 462 472 464 493 464 543 C 464 570 464 570 464 584 C 464 610 462 635 463 657 C 464 680 464 680 464 692 C 466 776 482 829 516 854 C 557 883 645 894 783 885 C 845 880 889 871 914 858 C 934 847 939 831 931 810 Z"/></clipPath>
</defs>
<g id="bg-layer">
    <path class="bg" d="M 672 230 C 688 198 706 180 723 168 C 737 157 736 142 726 131 C 716 120 692 105 657 89 C 644 83 630 83 616 89 C 551 114 466 136 359 153 C 348 155 357 188 368 186 C 378 185 529 152 593 139 C 609 135 621 136 628 143 C 635 150 630 179 614 229 C 607 247 663 247 672 230 Z"/>
    <path class="bg" d="M 338 325 C 346 329 356 329 368 326 C 434 306 540 284 685 263 C 691 262 696 258 697 252 C 697 247 688 240 672 230 C 655 220 633 225 614 229 C 514 257 423 279 343 295 C 333 297 329 321 338 325 Z"/>
    <path class="bg" d="M 359 153 C 349 144 336 136 323 128 C 310 119 299 116 291 120 C 282 123 279 131 284 140 C 295 160 300 188 297 224 C 282 365 263 450 225 553 C 220 565 215 577 210 589 C 174 666 126 744 65 825 C 61 829 58 834 57 838 C 54 844 56 848 64 847 C 92 843 139 795 203 702 C 212 688 220 674 228 660 C 278 564 316 452 338 325 C 341 305 341 305 343 295 C 354 228 361 192 368 186 C 374 176 368 160 359 153 Z"/>
    <path class="bg" d="M 489 435 C 525 423 639 379 664 376 C 674 374 682 373 685 368 C 688 361 685 353 677 346 C 665 335 643 325 615 314 C 604 309 595 306 588 308 C 583 309 580 314 580 322 C 579 350 505 392 361 457 C 356 459 357 467 361 468 C 372 470 402 462 448 448 C 475 439 475 439 489 435 Z"/>
    <path class="bg" d="M 514 570 C 622 539 677 520 681 518 C 685 513 687 508 684 503 C 679 496 667 490 649 487 C 630 483 612 488 595 496 C 571 506 547 516 523 524 C 484 537 484 537 464 543 C 428 554 391 558 354 565 C 331 569 328 579 346 587 C 385 604 421 596 464 584 C 497 575 497 575 514 570 Z"/>
    <path class="bg" d="M 507 683 C 570 669 660 656 780 647 C 792 646 799 642 802 636 C 804 629 801 620 790 614 C 754 592 725 586 704 593 C 655 607 590 625 507 646 C 478 653 478 653 463 657 C 398 673 330 686 258 702 C 245 704 242 712 254 721 C 276 738 299 740 320 733 C 363 716 412 702 464 692 C 493 686 493 686 507 683 Z"/>
    <path class="bg" d="M 931 810 C 917 775 907 727 899 667 C 897 656 895 649 889 646 C 884 643 879 648 878 662 C 868 736 861 781 851 795 C 829 821 769 836 673 838 C 620 838 582 833 560 824 C 539 815 528 802 524 789 C 516 768 507 733 507 683 C 507 658 507 658 507 646 C 507 617 509 591 514 570 C 520 539 520 539 523 524 C 524 517 526 511 529 505 C 538 485 535 468 522 458 C 509 448 498 441 489 435 C 477 428 441 436 448 448 C 462 472 464 493 464 543 C 464 570 464 570 464 584 C 464 610 462 635 463 657 C 464 680 464 680 464 692 C 466 776 482 829 516 854 C 557 883 645 894 783 885 C 845 880 889 871 914 858 C 934 847 939 831 931 810 Z"/>
</g>
<g id="anim-layer">
    <path style="--d:1s; stroke:#FF4444;" pathLength="3333" clip-path="url(#z23614c1)" d="M 367 157 L 641 114 L 681 156 L 627 228"/>
    <path style="--d:2s; stroke:#FF4444;" pathLength="3333" clip-path="url(#z23614c2)" d="M 341 319 L 689 251"/>
    <path style="--d:3s; stroke:#FF4444;" pathLength="3333" clip-path="url(#z23614c3)" d="M 289 128 L 333 188 L 265 510 L 174 705 L 65 841"/>
    <path style="--d:4s; stroke:#000;" pathLength="3333" clip-path="url(#z23614c4)" d="M 587 316 L 638 355 L 366 461"/>
    <path style="--d:5s; stroke:#000;" pathLength="3333" clip-path="url(#z23614c5)" d="M 344 576 L 679 512"/>
    <path style="--d:6s; stroke:#000;" pathLength="3333" clip-path="url(#z23614c6)" d="M 253 711 L 722 621 L 798 628"/>
    <path style="--d:7s; stroke:#000;" pathLength="3333" clip-path="url(#z23614c7)" d="M 455 449 L 498 485 L 494 771 L 546 844 L 718 862 L 876 830 L 895 803 L 886 653"/>
</g>
</svg>