<svg id="z23632" class="acjk" viewBox="0 0 1024 1024" xmlns="http://www.w3.org/2000/svg">

<style>
<![CDATA[
@keyframes zk { to { stroke-dashoffset:0; } }
svg.acjk path[clip-path] {
    --t:0.8s;
    animation:zk var(--t) linear forwards var(--d);
    stroke-dasharray:3337;
    stroke-dashoffset:3339;
    stroke-width:128;
    stroke-linecap:round;
    fill:none;
}
/* Low opacity for background improves visual overlap at intersections */
svg.acjk .bg { fill:#ccc; opacity: 0.5; } 
]]>
</style>
<defs>
    <clipPath id="z23632c1"><path d="M 690 221 Q 721 166 747 151 Q 766 132 752 112 Q 736 96 681 67 Q 662 57 638 65 Q 518 110 350 126 C 337 129 359 161 372 159 Q 376 159 612 117 Q 639 111 649 122 Q 658 134 630 221 C 624 240 681 239 690 221 Z"/></clipPath>
    <clipPath id="z23632c2"><path d="M 339 293 Q 351 305 375 301 Q 480 277 707 258 Q 717 257 719 248 Q 720 241 690 221 C 673 211 650 217 630 221 Q 470 255 344 269 C 336 270 332 288 339 293 Z"/></clipPath>
    <clipPath id="z23632c3"><path d="M 350 126 Q 310 90 288 98 Q 275 105 280 120 Q 298 147 292 207 Q 261 442 199 579 Q 148 684 46 820 Q 39 827 37 833 Q 33 845 45 843 Q 75 837 169 726 Q 193 692 217 653 Q 304 497 339 293 C 342 277 342 277 344 269 Q 348 241 355 215 Q 359 194 366 175 Q 370 168 372 159 C 374 146 361 134 350 126 Z"/></clipPath>
    <clipPath id="z23632c4"><path d="M 393 363 Q 400 418 297 515 Q 290 519 299 521 Q 350 521 446 409 Q 450 405 453 402 Q 459 398 458 390 Q 457 383 448 373 Q 423 348 399 352 Q 392 353 393 363 Z"/></clipPath>
    <clipPath id="z23632c5"><path d="M 369 648 Q 438 570 462 553 Q 471 546 468 535 Q 467 525 448 503 Q 429 485 415 483 Q 400 482 403 500 Q 415 536 328 634 Q 241 721 209 749 Q 200 756 197 760 Q 193 769 205 768 Q 235 768 343 672 C 360 656 360 656 369 648 Z"/></clipPath>
    <clipPath id="z23632c6"><path d="M 343 672 Q 358 708 342 825 Q 329 852 355 900 Q 358 906 362 910 Q 375 923 385 902 Q 397 869 396 832 Q 392 727 395 704 Q 401 682 393 674 Q 380 658 369 648 C 361 640 339 661 343 672 Z"/></clipPath>
    <clipPath id="z23632c7"><path d="M 658 439 Q 808 405 810 404 Q 817 397 814 390 Q 808 380 784 373 Q 759 367 732 377 Q 698 387 661 398 C 628 405 628 405 611 409 Q 565 416 516 420 Q 485 424 507 440 Q 546 461 610 447 C 611 447 611 447 612 447 C 643 442 643 442 658 439 Z"/></clipPath>
    <clipPath id="z23632c8"><path d="M 647 543 Q 651 489 658 439 C 660 412 660 412 661 398 Q 662 391 663 384 Q 667 363 670 350 Q 674 340 676 330 Q 679 321 662 308 Q 634 292 612 288 Q 599 285 592 292 Q 585 299 592 311 Q 607 332 611 409 C 612 434 612 434 612 447 Q 612 496 611 552 C 611 564 647 555 647 543 Z"/></clipPath>
    <clipPath id="z23632c9"><path d="M 688 741 Q 719 692 748 621 Q 761 593 781 575 Q 800 559 787 546 Q 774 533 744 522 Q 720 515 693 527 Q 672 534 647 543 C 623 549 623 549 611 552 Q 509 568 509 570 Q 505 577 523 585 Q 557 600 607 587 Q 662 568 674 568 Q 698 572 691 597 Q 676 661 650 709 C 636 730 636 730 629 741 Q 569 811 456 844 Q 443 848 454 857 Q 458 861 497 859 Q 585 850 660 777 C 679 753 679 753 688 741 Z"/></clipPath>
    <clipPath id="z23632c10"><path d="M 660 777 Q 768 892 805 891 Q 883 890 945 879 Q 978 875 975 865 Q 972 859 819 814 Q 759 793 688 741 C 663 720 663 720 650 709 Q 625 687 598 661 Q 564 627 533 628 Q 517 628 514 633 Q 513 639 527 648 Q 554 663 629 741 C 650 765 650 765 660 777 Z"/></clipPath>
</defs>
<g id="bg-layer">
    <path class="bg" d="M 690 221 Q 721 166 747 151 Q 766 132 752 112 Q 736 96 681 67 Q 662 57 638 65 Q 518 110 350 126 C 337 129 359 161 372 159 Q 376 159 612 117 Q 639 111 649 122 Q 658 134 630 221 C 624 240 681 239 690 221 Z"/>
    <path class="bg" d="M 339 293 Q 351 305 375 301 Q 480 277 707 258 Q 717 257 719 248 Q 720 241 690 221 C 673 211 650 217 630 221 Q 470 255 344 269 C 336 270 332 288 339 293 Z"/>
    <path class="bg" d="M 350 126 Q 310 90 288 98 Q 275 105 280 120 Q 298 147 292 207 Q 261 442 199 579 Q 148 684 46 820 Q 39 827 37 833 Q 33 845 45 843 Q 75 837 169 726 Q 193 692 217 653 Q 304 497 339 293 C 342 277 342 277 344 269 Q 348 241 355 215 Q 359 194 366 175 Q 370 168 372 159 C 374 146 361 134 350 126 Z"/>
    <path class="bg" d="M 393 363 Q 400 418 297 515 Q 290 519 299 521 Q 350 521 446 409 Q 450 405 453 402 Q 459 398 458 390 Q 457 383 448 373 Q 423 348 399 352 Q 392 353 393 363 Z"/>
    <path class="bg" d="M 369 648 Q 438 570 462 553 Q 471 546 468 535 Q 467 525 448 503 Q 429 485 415 483 Q 400 482 403 500 Q 415 536 328 634 Q 241 721 209 749 Q 200 756 197 760 Q 193 769 205 768 Q 235 768 343 672 C 360 656 360 656 369 648 Z"/>
    <path class="bg" d="M 343 672 Q 358 708 342 825 Q 329 852 355 900 Q 358 906 362 910 Q 375 923 385 902 Q 397 869 396 832 Q 392 727 395 704 Q 401 682 393 674 Q 380 658 369 648 C 361 640 339 661 343 672 Z"/>
    <path class="bg" d="M 658 439 Q 808 405 810 404 Q 817 397 814 390 Q 808 380 784 373 Q 759 367 732 377 Q 698 387 661 398 C 628 405 628 405 611 409 Q 565 416 516 420 Q 485 424 507 440 Q 546 461 610 447 C 611 447 611 447 612 447 C 643 442 643 442 658 439 Z"/>
    <path class="bg" d="M 647 543 Q 651 489 658 439 C 660 412 660 412 661 398 Q 662 391 663 384 Q 667 363 670 350 Q 674 340 676 330 Q 679 321 662 308 Q 634 292 612 288 Q 599 285 592 292 Q 585 299 592 311 Q 607 332 611 409 C 612 434 612 434 612 447 Q 612 496 611 552 C 611 564 647 555 647 543 Z"/>
    <path class="bg" d="M 688 741 Q 719 692 748 621 Q 761 593 781 575 Q 800 559 787 546 Q 774 533 744 522 Q 720 515 693 527 Q 672 534 647 543 C 623 549 623 549 611 552 Q 509 568 509 570 Q 505 577 523 585 Q 557 600 607 587 Q 662 568 674 568 Q 698 572 691 597 Q 676 661 650 709 C 636 730 636 730 629 741 Q 569 811 456 844 Q 443 848 454 857 Q 458 861 497 859 Q 585 850 660 777 C 679 753 679 753 688 741 Z"/>
    <path class="bg" d="M 660 777 Q 768 892 805 891 Q 883 890 945 879 Q 978 875 975 865 Q 972 859 819 814 Q 759 793 688 741 C 663 720 663 720 650 709 Q 625 687 598 661 Q 564 627 533 628 Q 517 628 514 633 Q 513 639 527 648 Q 554 663 629 741 C 650 765 650 765 660 777 Z"/>
</g>
<g id="anim-layer">
    <path style="--d:1s; stroke:#FF4444;" pathLength="3333" clip-path="url(#z23632c1)" d="M 360 128 L 399 138 L 653 89 L 705 140 L 641 218"/>
    <path style="--d:2s; stroke:#FF4444;" pathLength="3333" clip-path="url(#z23632c2)" d="M 343 289 L 712 244"/>
    <path style="--d:3s; stroke:#FF4444;" pathLength="3333" clip-path="url(#z23632c3)" d="M 285 105 L 332 165 L 251 519 L 150 712 L 43 837"/>
    <path style="--d:4s; stroke:#000;" pathLength="3333" clip-path="url(#z23632c4)" d="M 401 361 L 419 402 L 303 515"/>
    <path style="--d:5s; stroke:#000;" pathLength="3333" clip-path="url(#z23632c5)" d="M 410 493 L 431 544 L 297 689 L 200 760"/>
    <path style="--d:6s; stroke:#000;" pathLength="3333" clip-path="url(#z23632c6)" d="M 368 660 L 365 908"/>
    <path style="--d:7s; stroke:#000;" pathLength="3333" clip-path="url(#z23632c7)" d="M 507 428 L 809 394"/>
    <path style="--d:8s; stroke:#000;" pathLength="3333" clip-path="url(#z23632c8)" d="M 595 296 L 640 337 L 620 547"/>
    <path style="--d:9s; stroke:#000;" pathLength="3333" clip-path="url(#z23632c9)" d="M 516 574 L 690 547 L 740 570 L 637 767 L 568 818 L 460 850"/>
    <path style="--d:10s; stroke:#000;" pathLength="3333" clip-path="url(#z23632c10)" d="M 527 637 L 774 836 L 969 869"/>
</g>
</svg>