<svg id="z23660" class="acjk" viewBox="0 0 1024 1024" xmlns="http://www.w3.org/2000/svg">

<style>
<![CDATA[
@keyframes zk { to { stroke-dashoffset:0; } }
svg.acjk path[clip-path] {
    --t:0.8s;
    animation:zk var(--t) linear forwards var(--d);
    stroke-dasharray:3337;
    stroke-dashoffset:3339;
    stroke-width:128;
    stroke-linecap:round;
    fill:none;
}
/* Low opacity for background improves visual overlap at intersections */
svg.acjk .bg { fill:#ccc; opacity: 0.5; } 
]]>
</style>
<defs>
    <clipPath id="z23660c1"><path d="M 668 162 C 688 134 706 121 719 114 C 732 106 733 90 724 79 C 715 68 693 55 661 37 C 650 31 637 28 623 34 C 556 60 467 84 353 102 C 342 104 356 135 367 133 C 369 133 445 116 597 82 C 615 77 627 78 634 86 C 638 92 630 117 611 161 C 604 179 657 177 668 162 Z"/></clipPath>
    <clipPath id="z23660c2"><path d="M 344 247 C 361 246 582 204 678 190 C 702 186 688 171 668 162 C 650 155 630 157 611 161 C 512 185 424 204 348 218 C 338 220 334 249 344 247 Z"/></clipPath>
    <clipPath id="z23660c3"><path d="M 353 102 C 344 94 332 86 319 80 C 289 65 269 73 280 94 C 302 146 295 189 291 240 C 271 475 180 690 52 861 C 36 882 46 894 68 876 C 254 717 315 454 344 247 C 347 228 347 228 348 218 C 352 188 357 158 367 133 C 371 122 362 109 353 102 Z"/></clipPath>
    <clipPath id="z23660c4"><path d="M 501 243 C 506 256 511 290 508 340 C 507 350 510 362 523 378 C 527 382 532 382 537 377 C 541 370 545 351 549 319 C 549 309 550 290 553 264 C 555 242 537 233 520 227 C 505 221 496 231 501 243 Z"/></clipPath>
    <clipPath id="z23660c5"><path d="M 392 281 C 424 305 439 310 463 311 C 472 311 481 305 477 293 C 465 263 416 249 388 257 C 374 260 385 276 392 281 Z"/></clipPath>
    <clipPath id="z23660c6"><path d="M 440 378 C 449 370 460 358 471 352 C 498 334 487 325 462 334 C 438 341 416 344 392 348 C 376 350 375 363 377 366 C 382 378 399 383 407 387 C 417 392 423 389 440 378 Z"/></clipPath>
    <clipPath id="z23660c7"><path d="M 612 275 C 630 269 657 263 675 259 C 683 256 682 245 669 227 C 658 211 641 206 635 218 C 626 234 607 249 589 264 C 570 277 572 286 612 275 Z"/></clipPath>
    <clipPath id="z23660c8"><path d="M 589 321 C 626 351 648 353 665 351 C 673 349 677 347 677 335 C 664 304 619 298 587 297 C 571 299 582 316 589 321 Z"/></clipPath>
    <clipPath id="z23660c9"><path d="M 330 433 C 353 476 366 505 372 529 C 374 537 378 546 387 553 C 401 564 401 558 405 544 C 406 536 404 528 402 521 C 395 500 385 463 382 446 C 379 433 370 416 357 414 C 338 408 316 414 330 433 Z"/></clipPath>
    <clipPath id="z23660c10"><path d="M 665 507 C 669 523 679 526 690 517 C 697 512 709 505 718 490 C 731 463 743 441 764 427 C 775 418 776 409 768 401 C 759 392 741 379 715 363 C 694 350 660 366 467 399 C 412 408 379 410 357 414 C 344 417 369 448 382 446 C 382 446 426 435 445 431 C 457 428 457 428 463 427 C 487 421 517 415 553 410 C 573 407 573 407 583 405 C 622 398 651 392 670 393 C 691 394 696 397 692 416 C 682 452 674 474 670 482 C 667 490 662 499 665 507 Z"/></clipPath>
    <clipPath id="z23660c11"><path d="M 486 507 C 485 479 475 437 463 427 C 459 423 444 425 445 431 C 449 456 452 488 467 511 C 470 517 486 513 486 507 Z"/></clipPath>
    <clipPath id="z23660c12"><path d="M 571 489 C 605 417 616 424 583 405 C 574 400 550 400 553 410 C 561 424 558 451 545 495 C 542 503 568 497 571 489 Z"/></clipPath>
    <clipPath id="z23660c13"><path d="M 461 537 C 537 523 605 513 665 507 C 673 505 678 485 670 482 C 640 467 627 475 571 489 C 554 493 554 493 545 495 C 532 497 497 504 486 507 C 473 510 473 510 467 511 C 444 515 415 519 402 521 C 394 522 397 544 405 544 C 412 545 420 544 427 543 C 450 539 450 539 461 537 Z"/></clipPath>
    <clipPath id="z23660c14"><path d="M 426 622 C 428 620 398 647 441 607 C 458 590 458 590 467 582 C 483 565 484 551 461 537 C 452 530 431 532 427 543 C 412 583 378 626 322 668 C 317 671 316 673 322 674 C 343 675 386 651 410 634 C 416 631 431 618 426 622 Z"/></clipPath>
    <clipPath id="z23660c15"><path d="M 441 607 C 467 613 540 603 663 588 C 728 579 769 565 773 619 C 775 649 772 699 764 769 C 758 809 748 843 734 870 C 727 882 719 890 710 894 C 703 896 680 890 641 878 C 620 871 631 882 641 895 C 663 924 680 949 690 970 C 695 982 701 989 710 990 C 719 990 730 984 741 976 C 776 946 805 889 823 802 C 846 684 848 655 855 634 C 859 619 879 601 879 590 C 878 583 870 576 858 567 C 839 552 819 540 795 533 C 775 526 749 536 664 552 C 621 559 556 570 467 582 C 455 584 429 605 441 607 Z"/></clipPath>
    <clipPath id="z23660c16"><path d="M 328 696 C 321 693 309 691 292 690 C 273 688 278 701 284 710 C 298 730 311 759 323 797 C 326 807 330 817 338 824 C 353 837 354 834 358 816 C 359 806 356 796 354 787 C 348 759 341 733 339 721 C 337 712 336 699 328 696 Z"/></clipPath>
    <clipPath id="z23660c17"><path d="M 582 756 C 596 727 612 711 627 702 C 637 695 637 683 630 675 C 622 667 605 657 580 644 C 571 639 561 638 551 643 C 520 654 492 665 466 671 C 437 678 437 678 422 681 C 391 687 360 690 328 696 C 319 698 330 723 339 721 C 366 714 397 708 422 704 C 450 699 450 699 464 696 C 485 691 506 685 529 681 C 547 676 566 680 562 700 C 558 716 551 732 545 747 C 540 759 576 767 582 756 Z"/></clipPath>
    <clipPath id="z23660c18"><path d="M 459 799 C 495 793 539 788 590 782 C 613 778 596 765 582 756 C 572 748 558 745 545 747 C 525 749 505 757 461 767 C 436 772 436 772 423 775 C 398 780 375 783 354 787 C 344 789 348 818 358 816 C 380 813 404 806 423 804 C 447 801 447 801 459 799 Z"/></clipPath>
    <clipPath id="z23660c19"><path d="M 457 860 C 457 838 457 817 459 799 C 460 778 460 778 461 767 C 462 741 462 717 464 696 C 465 679 465 679 466 671 C 467 654 475 648 461 637 C 448 626 439 622 426 622 C 419 622 408 628 410 634 C 418 650 422 665 422 681 C 422 696 422 696 422 704 C 422 720 423 743 423 775 C 423 794 423 794 423 804 C 423 845 423 845 423 866 C 423 878 457 872 457 860 Z"/></clipPath>
    <clipPath id="z23660c20"><path d="M 550 841 C 519 845 488 854 457 860 C 434 864 434 864 423 866 C 341 880 314 888 262 883 C 255 882 251 885 249 891 C 246 897 246 904 252 909 C 263 920 277 932 294 944 C 299 947 306 944 313 941 C 341 925 370 913 401 906 C 459 890 511 875 563 861 C 571 859 558 839 550 841 Z"/></clipPath>
    <clipPath id="z23660c21"><path d="M 563 861 C 581 888 592 903 598 904 C 615 904 615 881 615 871 C 614 861 607 843 595 831 C 576 811 557 798 540 802 C 537 802 534 805 535 812 C 536 825 544 831 550 841 C 559 854 559 854 563 861 Z"/></clipPath>
</defs>
<g id="bg-layer">
    <path class="bg" d="M 668 162 C 688 134 706 121 719 114 C 732 106 733 90 724 79 C 715 68 693 55 661 37 C 650 31 637 28 623 34 C 556 60 467 84 353 102 C 342 104 356 135 367 133 C 369 133 445 116 597 82 C 615 77 627 78 634 86 C 638 92 630 117 611 161 C 604 179 657 177 668 162 Z"/>
    <path class="bg" d="M 344 247 C 361 246 582 204 678 190 C 702 186 688 171 668 162 C 650 155 630 157 611 161 C 512 185 424 204 348 218 C 338 220 334 249 344 247 Z"/>
    <path class="bg" d="M 353 102 C 344 94 332 86 319 80 C 289 65 269 73 280 94 C 302 146 295 189 291 240 C 271 475 180 690 52 861 C 36 882 46 894 68 876 C 254 717 315 454 344 247 C 347 228 347 228 348 218 C 352 188 357 158 367 133 C 371 122 362 109 353 102 Z"/>
    <path class="bg" d="M 501 243 C 506 256 511 290 508 340 C 507 350 510 362 523 378 C 527 382 532 382 537 377 C 541 370 545 351 549 319 C 549 309 550 290 553 264 C 555 242 537 233 520 227 C 505 221 496 231 501 243 Z"/>
    <path class="bg" d="M 392 281 C 424 305 439 310 463 311 C 472 311 481 305 477 293 C 465 263 416 249 388 257 C 374 260 385 276 392 281 Z"/>
    <path class="bg" d="M 440 378 C 449 370 460 358 471 352 C 498 334 487 325 462 334 C 438 341 416 344 392 348 C 376 350 375 363 377 366 C 382 378 399 383 407 387 C 417 392 423 389 440 378 Z"/>
    <path class="bg" d="M 612 275 C 630 269 657 263 675 259 C 683 256 682 245 669 227 C 658 211 641 206 635 218 C 626 234 607 249 589 264 C 570 277 572 286 612 275 Z"/>
    <path class="bg" d="M 589 321 C 626 351 648 353 665 351 C 673 349 677 347 677 335 C 664 304 619 298 587 297 C 571 299 582 316 589 321 Z"/>
    <path class="bg" d="M 330 433 C 353 476 366 505 372 529 C 374 537 378 546 387 553 C 401 564 401 558 405 544 C 406 536 404 528 402 521 C 395 500 385 463 382 446 C 379 433 370 416 357 414 C 338 408 316 414 330 433 Z"/>
    <path class="bg" d="M 665 507 C 669 523 679 526 690 517 C 697 512 709 505 718 490 C 731 463 743 441 764 427 C 775 418 776 409 768 401 C 759 392 741 379 715 363 C 694 350 660 366 467 399 C 412 408 379 410 357 414 C 344 417 369 448 382 446 C 382 446 426 435 445 431 C 457 428 457 428 463 427 C 487 421 517 415 553 410 C 573 407 573 407 583 405 C 622 398 651 392 670 393 C 691 394 696 397 692 416 C 682 452 674 474 670 482 C 667 490 662 499 665 507 Z"/>
    <path class="bg" d="M 486 507 C 485 479 475 437 463 427 C 459 423 444 425 445 431 C 449 456 452 488 467 511 C 470 517 486 513 486 507 Z"/>
    <path class="bg" d="M 571 489 C 605 417 616 424 583 405 C 574 400 550 400 553 410 C 561 424 558 451 545 495 C 542 503 568 497 571 489 Z"/>
    <path class="bg" d="M 461 537 C 537 523 605 513 665 507 C 673 505 678 485 670 482 C 640 467 627 475 571 489 C 554 493 554 493 545 495 C 532 497 497 504 486 507 C 473 510 473 510 467 511 C 444 515 415 519 402 521 C 394 522 397 544 405 544 C 412 545 420 544 427 543 C 450 539 450 539 461 537 Z"/>
    <path class="bg" d="M 426 622 C 428 620 398 647 441 607 C 458 590 458 590 467 582 C 483 565 484 551 461 537 C 452 530 431 532 427 543 C 412 583 378 626 322 668 C 317 671 316 673 322 674 C 343 675 386 651 410 634 C 416 631 431 618 426 622 Z"/>
    <path class="bg" d="M 441 607 C 467 613 540 603 663 588 C 728 579 769 565 773 619 C 775 649 772 699 764 769 C 758 809 748 843 734 870 C 727 882 719 890 710 894 C 703 896 680 890 641 878 C 620 871 631 882 641 895 C 663 924 680 949 690 970 C 695 982 701 989 710 990 C 719 990 730 984 741 976 C 776 946 805 889 823 802 C 846 684 848 655 855 634 C 859 619 879 601 879 590 C 878 583 870 576 858 567 C 839 552 819 540 795 533 C 775 526 749 536 664 552 C 621 559 556 570 467 582 C 455 584 429 605 441 607 Z"/>
    <path class="bg" d="M 328 696 C 321 693 309 691 292 690 C 273 688 278 701 284 710 C 298 730 311 759 323 797 C 326 807 330 817 338 824 C 353 837 354 834 358 816 C 359 806 356 796 354 787 C 348 759 341 733 339 721 C 337 712 336 699 328 696 Z"/>
    <path class="bg" d="M 582 756 C 596 727 612 711 627 702 C 637 695 637 683 630 675 C 622 667 605 657 580 644 C 571 639 561 638 551 643 C 520 654 492 665 466 671 C 437 678 437 678 422 681 C 391 687 360 690 328 696 C 319 698 330 723 339 721 C 366 714 397 708 422 704 C 450 699 450 699 464 696 C 485 691 506 685 529 681 C 547 676 566 680 562 700 C 558 716 551 732 545 747 C 540 759 576 767 582 756 Z"/>
    <path class="bg" d="M 459 799 C 495 793 539 788 590 782 C 613 778 596 765 582 756 C 572 748 558 745 545 747 C 525 749 505 757 461 767 C 436 772 436 772 423 775 C 398 780 375 783 354 787 C 344 789 348 818 358 816 C 380 813 404 806 423 804 C 447 801 447 801 459 799 Z"/>
    <path class="bg" d="M 457 860 C 457 838 457 817 459 799 C 460 778 460 778 461 767 C 462 741 462 717 464 696 C 465 679 465 679 466 671 C 467 654 475 648 461 637 C 448 626 439 622 426 622 C 419 622 408 628 410 634 C 418 650 422 665 422 681 C 422 696 422 696 422 704 C 422 720 423 743 423 775 C 423 794 423 794 423 804 C 423 845 423 845 423 866 C 423 878 457 872 457 860 Z"/>
    <path class="bg" d="M 550 841 C 519 845 488 854 457 860 C 434 864 434 864 423 866 C 341 880 314 888 262 883 C 255 882 251 885 249 891 C 246 897 246 904 252 909 C 263 920 277 932 294 944 C 299 947 306 944 313 941 C 341 925 370 913 401 906 C 459 890 511 875 563 861 C 571 859 558 839 550 841 Z"/>
    <path class="bg" d="M 563 861 C 581 888 592 903 598 904 C 615 904 615 881 615 871 C 614 861 607 843 595 831 C 576 811 557 798 540 802 C 537 802 534 805 535 812 C 536 825 544 831 550 841 C 559 854 559 854 563 861 Z"/>
</g>
<g id="anim-layer">
    <path style="--d:1s; stroke:#FF4444;" pathLength="3333" clip-path="url(#z23660c1)" d="M 356 109 L 634 56 L 682 95 L 619 168"/>
    <path style="--d:2s; stroke:#FF4444;" pathLength="3333" clip-path="url(#z23660c2)" d="M 346 237 L 686 179"/>
    <path style="--d:3s; stroke:#FF4444;" pathLength="3333" clip-path="url(#z23660c3)" d="M 284 82 L 330 135 L 265 499 L 171 719 L 48 877"/>
    <path style="--d:4s; stroke:#000;" pathLength="3333" clip-path="url(#z23660c4)" d="M 508 229 L 529 258 L 530 376"/>
    <path style="--d:5s; stroke:#000;" pathLength="3333" clip-path="url(#z23660c5)" d="M 390 265 L 473 295"/>
    <path style="--d:6s; stroke:#000;" pathLength="3333" clip-path="url(#z23660c6)" d="M 383 360 L 429 364 L 481 336"/>
    <path style="--d:7s; stroke:#000;" pathLength="3333" clip-path="url(#z23660c7)" d="M 647 217 L 645 249 L 583 273"/>
    <path style="--d:8s; stroke:#000;" pathLength="3333" clip-path="url(#z23660c8)" d="M 585 304 L 670 342"/>
    <path style="--d:9s; stroke:#000;" pathLength="3333" clip-path="url(#z23660c9)" d="M 333 421 L 397 551"/>
    <path style="--d:10s; stroke:#000;" pathLength="3333" clip-path="url(#z23660c10)" d="M 360 418 L 692 376 L 732 415 L 679 517"/>
    <path style="--d:11s; stroke:#000;" pathLength="3333" clip-path="url(#z23660c11)" d="M 454 432 L 474 507"/>
    <path style="--d:12s; stroke:#000;" pathLength="3333" clip-path="url(#z23660c12)" d="M 561 409 L 579 437 L 551 492"/>
    <path style="--d:13s; stroke:#000;" pathLength="3333" clip-path="url(#z23660c13)" d="M 402 532 L 670 497"/>
    <path style="--d:14s; stroke:#000;" pathLength="3333" clip-path="url(#z23660c14)" d="M 440 538 L 442 574 L 328 670"/>
    <path style="--d:15s; stroke:#000;" pathLength="3333" clip-path="url(#z23660c15)" d="M 446 602 L 749 557 L 827 602 L 788 812 L 747 912 L 703 941 L 638 881"/>
    <path style="--d:16s; stroke:#000;" pathLength="3333" clip-path="url(#z23660c16)" d="M 285 697 L 314 715 L 348 826"/>
    <path style="--d:17s; stroke:#000;" pathLength="3333" clip-path="url(#z23660c17)" d="M 332 705 L 565 661 L 598 692 L 557 756"/>
    <path style="--d:18s; stroke:#000;" pathLength="3333" clip-path="url(#z23660c18)" d="M 350 802 L 595 773"/>
    <path style="--d:19s; stroke:#000;" pathLength="3333" clip-path="url(#z23660c19)" d="M 420 632 L 445 662 L 436 870"/>
    <path style="--d:20s; stroke:#000;" pathLength="3333" clip-path="url(#z23660c20)" d="M 252 895 L 304 915 L 559 855"/>
    <path style="--d:21s; stroke:#000;" pathLength="3333" clip-path="url(#z23660c21)" d="M 543 810 L 599 896"/>
</g>
</svg>