<svg id="z23703" class="acjk" viewBox="0 0 1024 1024" xmlns="http://www.w3.org/2000/svg">

<style>
<![CDATA[
@keyframes zk { to { stroke-dashoffset:0; } }
svg.acjk path[clip-path] {
    --t:0.8s;
    animation:zk var(--t) linear forwards var(--d);
    stroke-dasharray:3337;
    stroke-dashoffset:3339;
    stroke-width:128;
    stroke-linecap:round;
    fill:none;
}
/* Low opacity for background improves visual overlap at intersections */
svg.acjk .bg { fill:#ccc; opacity: 0.5; } 
]]>
</style>
<defs>
    <clipPath id="z23703c1"><path d="M 544 270 Q 547 246 577 99 Q 581 89 561 73 Q 527 52 502 47 Q 486 43 478 52 Q 471 59 478 75 Q 499 102 499 278 C 499 293 541 285 544 270 Z"/></clipPath>
    <clipPath id="z23703c2"><path d="M 715 249 Q 624 256 544 270 C 514 275 514 275 499 278 Q 418 291 349 310 Q 328 314 335 290 Q 348 224 339 207 Q 305 167 278 170 Q 268 174 274 193 Q 290 233 283 272 Q 277 309 261 325 Q 242 341 249 357 Q 259 373 277 384 Q 290 393 301 384 Q 338 339 618 293 Q 687 283 709 289 C 722 291 728 249 715 249 Z"/></clipPath>
    <clipPath id="z23703c3"><path d="M 709 289 Q 712 314 719 333 Q 726 351 741 340 Q 771 316 783 228 Q 802 177 810 170 Q 820 155 811 139 Q 792 120 760 97 Q 747 88 734 93 Q 725 97 727 111 Q 739 129 736 184 Q 729 224 715 249 C 708 261 706 276 709 289 Z"/></clipPath>
    <clipPath id="z23703c4"><path d="M 305 440 Q 286 425 265 419 Q 255 418 248 426 Q 244 432 252 444 Q 294 552 254 766 Q 233 856 233 861 Q 233 864 234 867 Q 243 904 255 919 Q 268 934 278 919 Q 312 883 313 763 Q 319 537 331 481 C 334 465 318 450 305 440 Z"/></clipPath>
    <clipPath id="z23703c5"><path d="M 331 481 Q 332 480 336 479 Q 490 445 675 421 Q 702 417 715 430 Q 725 436 729 483 Q 744 639 738 818 Q 738 843 729 852 Q 713 862 637 846 Q 621 843 622 853 Q 623 860 636 866 Q 705 909 741 945 Q 763 964 775 961 Q 788 958 798 929 Q 813 883 810 818 Q 782 491 800 451 Q 812 427 802 414 Q 792 399 743 376 Q 722 364 650 386 Q 473 423 305 440 C 289 443 316 487 331 481 Z"/></clipPath>
    <clipPath id="z23703c6"><path d="M 568 650 Q 593 611 619 556 Q 631 534 644 513 Q 651 504 647 495 Q 641 485 613 467 Q 594 455 584 457 Q 571 460 572 474 Q 575 541 527 623 C 509 649 509 649 500 662 Q 443 728 360 791 Q 353 798 359 801 Q 386 811 477 746 Q 510 724 535 694 C 557 665 557 665 568 650 Z"/></clipPath>
    <clipPath id="z23703c7"><path d="M 535 694 Q 640 791 647 794 Q 654 794 661 786 Q 671 774 659 738 Q 649 705 568 650 C 541 632 541 632 527 623 Q 442 571 396 548 Q 389 544 387 554 Q 387 566 396 574 Q 445 613 500 662 C 523 683 523 683 535 694 Z"/></clipPath>
</defs>
<g id="bg-layer">
    <path class="bg" d="M 544 270 Q 547 246 577 99 Q 581 89 561 73 Q 527 52 502 47 Q 486 43 478 52 Q 471 59 478 75 Q 499 102 499 278 C 499 293 541 285 544 270 Z"/>
    <path class="bg" d="M 715 249 Q 624 256 544 270 C 514 275 514 275 499 278 Q 418 291 349 310 Q 328 314 335 290 Q 348 224 339 207 Q 305 167 278 170 Q 268 174 274 193 Q 290 233 283 272 Q 277 309 261 325 Q 242 341 249 357 Q 259 373 277 384 Q 290 393 301 384 Q 338 339 618 293 Q 687 283 709 289 C 722 291 728 249 715 249 Z"/>
    <path class="bg" d="M 709 289 Q 712 314 719 333 Q 726 351 741 340 Q 771 316 783 228 Q 802 177 810 170 Q 820 155 811 139 Q 792 120 760 97 Q 747 88 734 93 Q 725 97 727 111 Q 739 129 736 184 Q 729 224 715 249 C 708 261 706 276 709 289 Z"/>
    <path class="bg" d="M 305 440 Q 286 425 265 419 Q 255 418 248 426 Q 244 432 252 444 Q 294 552 254 766 Q 233 856 233 861 Q 233 864 234 867 Q 243 904 255 919 Q 268 934 278 919 Q 312 883 313 763 Q 319 537 331 481 C 334 465 318 450 305 440 Z"/>
    <path class="bg" d="M 331 481 Q 332 480 336 479 Q 490 445 675 421 Q 702 417 715 430 Q 725 436 729 483 Q 744 639 738 818 Q 738 843 729 852 Q 713 862 637 846 Q 621 843 622 853 Q 623 860 636 866 Q 705 909 741 945 Q 763 964 775 961 Q 788 958 798 929 Q 813 883 810 818 Q 782 491 800 451 Q 812 427 802 414 Q 792 399 743 376 Q 722 364 650 386 Q 473 423 305 440 C 289 443 316 487 331 481 Z"/>
    <path class="bg" d="M 568 650 Q 593 611 619 556 Q 631 534 644 513 Q 651 504 647 495 Q 641 485 613 467 Q 594 455 584 457 Q 571 460 572 474 Q 575 541 527 623 C 509 649 509 649 500 662 Q 443 728 360 791 Q 353 798 359 801 Q 386 811 477 746 Q 510 724 535 694 C 557 665 557 665 568 650 Z"/>
    <path class="bg" d="M 535 694 Q 640 791 647 794 Q 654 794 661 786 Q 671 774 659 738 Q 649 705 568 650 C 541 632 541 632 527 623 Q 442 571 396 548 Q 389 544 387 554 Q 387 566 396 574 Q 445 613 500 662 C 523 683 523 683 535 694 Z"/>
</g>
<g id="anim-layer">
    <path style="--d:1s; stroke:#FF4444;" pathLength="3333" clip-path="url(#z23703c1)" d="M 481 53 L 533 106 L 516 274"/>
    <path style="--d:2s; stroke:#FF4444;" pathLength="3333" clip-path="url(#z23703c2)" d="M 282 179 L 311 217 L 291 328 L 310 347 L 710 260"/>
    <path style="--d:3s; stroke:#FF4444;" pathLength="3333" clip-path="url(#z23703c3)" d="M 736 98 L 775 164 L 728 338"/>
    <path style="--d:4s; stroke:#000;" pathLength="3333" clip-path="url(#z23703c4)" d="M 253 428 L 298 487 L 260 920"/>
    <path style="--d:5s; stroke:#000;" pathLength="3333" clip-path="url(#z23703c5)" d="M 313 442 L 352 456 L 707 396 L 752 418 L 764 886 L 746 912 L 629 852"/>
    <path style="--d:6s; stroke:#000;" pathLength="3333" clip-path="url(#z23703c6)" d="M 580 467 L 608 510 L 554 626 L 477 719 L 365 793"/>
    <path style="--d:7s; stroke:#000;" pathLength="3333" clip-path="url(#z23703c7)" d="M 394 556 L 594 706 L 657 784"/>
</g>
</svg>