<svg id="z24107" class="acjk" viewBox="0 0 1024 1024" xmlns="http://www.w3.org/2000/svg">

<style>
<![CDATA[
@keyframes zk { to { stroke-dashoffset:0; } }
svg.acjk path[clip-path] {
    --t:0.8s;
    animation:zk var(--t) linear forwards var(--d);
    stroke-dasharray:3337;
    stroke-dashoffset:3339;
    stroke-width:128;
    stroke-linecap:round;
    fill:none;
}
/* Low opacity for background improves visual overlap at intersections */
svg.acjk .bg { fill:#ccc; opacity: 0.5; } 
]]>
</style>
<defs>
    <clipPath id="z24107c1"><path d="M 233 271 Q 281 228 309 201 Q 381 129 397 120 Q 416 107 404 92 Q 388 76 361 66 Q 336 56 325 60 Q 312 63 318 76 Q 327 103 271 185 Q 241 227 210 272 C 205 278 227 276 233 271 Z"/></clipPath>
    <clipPath id="z24107c2"><path d="M 223 519 C 223 486 225 458 225 435 C 225 414 225 414 225 404 C 225 352 227 323 228 317 C 229 311 229 306 229 302 C 229 290 217 281 210 272 C 208 267 198 262 181 256 C 174 253 166 251 160 255 C 154 257 156 264 159 273 C 173 319 179 350 180 364 C 188 502 182 609 164 685 C 155 721 162 753 186 783 C 192 791 200 792 207 783 C 217 769 222 741 222 700 C 222 677 222 677 222 666 C 222 623 223 584 223 548 C 223 529 223 529 223 519 Z"/></clipPath>
    <clipPath id="z24107c3"><path d="M 390 378 C 406 331 424 303 441 289 C 451 279 451 267 442 258 C 434 250 414 240 384 227 C 373 222 361 223 350 229 C 325 240 302 250 280 257 C 263 261 247 266 233 271 C 225 271 217 271 210 272 C 198 274 218 306 229 302 C 243 298 268 291 344 271 C 352 268 359 268 363 272 C 367 276 369 284 367 294 C 361 320 354 345 348 369 C 346 383 385 391 390 378 Z"/></clipPath>
    <clipPath id="z24107c4"><path d="M 225 435 C 231 435 237 434 244 433 C 276 424 328 414 398 405 C 404 404 408 401 409 395 C 409 390 402 384 390 378 C 377 373 362 367 348 369 C 343 369 339 370 336 372 C 295 384 258 395 225 404 C 215 406 215 435 225 435 Z"/></clipPath>
    <clipPath id="z24107c5"><path d="M 396 636 C 410 590 427 560 445 545 C 456 535 456 522 446 513 C 408 480 376 471 353 479 C 351 479 349 480 348 481 C 319 495 277 507 223 519 C 214 521 213 550 223 548 C 227 548 267 541 343 526 C 351 524 356 524 360 528 C 368 536 364 571 350 634 C 347 649 393 651 396 636 Z"/></clipPath>
    <clipPath id="z24107c6"><path d="M 222 700 C 228 700 235 700 244 698 C 278 689 335 680 413 671 C 419 670 424 667 425 661 C 425 655 415 646 396 636 C 383 628 364 628 350 634 C 306 647 259 658 222 666 C 211 668 211 700 222 700 Z"/></clipPath>
    <clipPath id="z24107c7"><path d="M 658 264 C 816 225 898 198 904 193 C 910 187 911 181 908 176 C 903 168 890 161 870 158 C 853 155 810 168 741 192 C 669 216 593 233 516 246 C 491 250 488 258 507 269 C 532 283 564 287 601 278 C 639 269 639 269 658 264 Z"/></clipPath>
    <clipPath id="z24107c8"><path d="M 508 413 C 493 406 480 403 470 406 C 463 407 461 413 465 420 C 483 456 484 507 475 551 C 469 575 467 597 487 624 C 488 625 489 627 492 630 C 497 636 502 638 508 635 C 522 624 530 587 530 523 C 530 474 530 474 530 449 C 530 435 521 418 508 413 Z"/></clipPath>
    <clipPath id="z24107c9"><path d="M 678 417 C 714 409 741 404 761 402 C 779 399 791 401 797 407 C 803 413 808 426 809 447 C 809 467 808 490 809 516 C 809 534 806 547 801 555 C 798 558 780 563 745 561 C 734 560 727 559 723 563 C 720 565 724 570 734 579 C 764 605 786 630 804 651 C 811 660 821 662 832 658 C 838 655 844 646 852 631 C 864 606 871 578 871 547 C 870 478 872 432 880 410 C 883 399 886 388 880 384 C 833 349 796 346 768 361 C 745 372 714 377 679 385 C 642 392 642 392 624 396 C 590 402 551 407 508 413 C 494 415 517 454 530 449 C 536 446 567 439 624 428 C 660 421 660 421 678 417 Z"/></clipPath>
    <clipPath id="z24107c10"><path d="M 624 428 C 624 508 623 605 621 719 C 618 851 624 925 638 941 C 641 945 646 948 651 946 C 663 939 668 914 672 876 C 676 823 680 770 678 717 C 676 674 673 574 678 417 C 679 396 679 396 679 385 C 679 373 681 345 689 302 C 691 289 687 281 678 275 C 671 270 664 266 658 264 C 640 257 591 261 601 278 C 615 302 624 341 624 396 C 624 417 624 417 624 428 Z"/></clipPath>
</defs>
<g id="bg-layer">
    <path class="bg" d="M 233 271 Q 281 228 309 201 Q 381 129 397 120 Q 416 107 404 92 Q 388 76 361 66 Q 336 56 325 60 Q 312 63 318 76 Q 327 103 271 185 Q 241 227 210 272 C 205 278 227 276 233 271 Z"/>
    <path class="bg" d="M 223 519 C 223 486 225 458 225 435 C 225 414 225 414 225 404 C 225 352 227 323 228 317 C 229 311 229 306 229 302 C 229 290 217 281 210 272 C 208 267 198 262 181 256 C 174 253 166 251 160 255 C 154 257 156 264 159 273 C 173 319 179 350 180 364 C 188 502 182 609 164 685 C 155 721 162 753 186 783 C 192 791 200 792 207 783 C 217 769 222 741 222 700 C 222 677 222 677 222 666 C 222 623 223 584 223 548 C 223 529 223 529 223 519 Z"/>
    <path class="bg" d="M 390 378 C 406 331 424 303 441 289 C 451 279 451 267 442 258 C 434 250 414 240 384 227 C 373 222 361 223 350 229 C 325 240 302 250 280 257 C 263 261 247 266 233 271 C 225 271 217 271 210 272 C 198 274 218 306 229 302 C 243 298 268 291 344 271 C 352 268 359 268 363 272 C 367 276 369 284 367 294 C 361 320 354 345 348 369 C 346 383 385 391 390 378 Z"/>
    <path class="bg" d="M 225 435 C 231 435 237 434 244 433 C 276 424 328 414 398 405 C 404 404 408 401 409 395 C 409 390 402 384 390 378 C 377 373 362 367 348 369 C 343 369 339 370 336 372 C 295 384 258 395 225 404 C 215 406 215 435 225 435 Z"/>
    <path class="bg" d="M 396 636 C 410 590 427 560 445 545 C 456 535 456 522 446 513 C 408 480 376 471 353 479 C 351 479 349 480 348 481 C 319 495 277 507 223 519 C 214 521 213 550 223 548 C 227 548 267 541 343 526 C 351 524 356 524 360 528 C 368 536 364 571 350 634 C 347 649 393 651 396 636 Z"/>
    <path class="bg" d="M 222 700 C 228 700 235 700 244 698 C 278 689 335 680 413 671 C 419 670 424 667 425 661 C 425 655 415 646 396 636 C 383 628 364 628 350 634 C 306 647 259 658 222 666 C 211 668 211 700 222 700 Z"/>
    <path class="bg" d="M 658 264 C 816 225 898 198 904 193 C 910 187 911 181 908 176 C 903 168 890 161 870 158 C 853 155 810 168 741 192 C 669 216 593 233 516 246 C 491 250 488 258 507 269 C 532 283 564 287 601 278 C 639 269 639 269 658 264 Z"/>
    <path class="bg" d="M 508 413 C 493 406 480 403 470 406 C 463 407 461 413 465 420 C 483 456 484 507 475 551 C 469 575 467 597 487 624 C 488 625 489 627 492 630 C 497 636 502 638 508 635 C 522 624 530 587 530 523 C 530 474 530 474 530 449 C 530 435 521 418 508 413 Z"/>
    <path class="bg" d="M 678 417 C 714 409 741 404 761 402 C 779 399 791 401 797 407 C 803 413 808 426 809 447 C 809 467 808 490 809 516 C 809 534 806 547 801 555 C 798 558 780 563 745 561 C 734 560 727 559 723 563 C 720 565 724 570 734 579 C 764 605 786 630 804 651 C 811 660 821 662 832 658 C 838 655 844 646 852 631 C 864 606 871 578 871 547 C 870 478 872 432 880 410 C 883 399 886 388 880 384 C 833 349 796 346 768 361 C 745 372 714 377 679 385 C 642 392 642 392 624 396 C 590 402 551 407 508 413 C 494 415 517 454 530 449 C 536 446 567 439 624 428 C 660 421 660 421 678 417 Z"/>
    <path class="bg" d="M 624 428 C 624 508 623 605 621 719 C 618 851 624 925 638 941 C 641 945 646 948 651 946 C 663 939 668 914 672 876 C 676 823 680 770 678 717 C 676 674 673 574 678 417 C 679 396 679 396 679 385 C 679 373 681 345 689 302 C 691 289 687 281 678 275 C 671 270 664 266 658 264 C 640 257 591 261 601 278 C 615 302 624 341 624 396 C 624 417 624 417 624 428 Z"/>
</g>
<g id="anim-layer">
    <path style="--d:1s; stroke:#FF4444;" pathLength="3333" clip-path="url(#z24107c1)" d="M 323 69 L 359 112 L 220 271"/>
    <path style="--d:2s; stroke:#FF4444;" pathLength="3333" clip-path="url(#z24107c2)" d="M 165 261 L 201 315 L 196 784"/>
    <path style="--d:3s; stroke:#FF4444;" pathLength="3333" clip-path="url(#z24107c3)" d="M 214 279 L 387 256 L 406 287 L 364 381"/>
    <path style="--d:4s; stroke:#FF4444;" pathLength="3333" clip-path="url(#z24107c4)" d="M 219 422 L 403 395"/>
    <path style="--d:5s; stroke:#FF4444;" pathLength="3333" clip-path="url(#z24107c5)" d="M 218 539 L 356 501 L 390 512 L 408 538 L 363 642"/>
    <path style="--d:6s; stroke:#FF4444;" pathLength="3333" clip-path="url(#z24107c6)" d="M 216 687 L 419 659"/>
    <path style="--d:7s; stroke:#000;" pathLength="3333" clip-path="url(#z24107c7)" d="M 502 254 L 572 259 L 902 180"/>
    <path style="--d:8s; stroke:#000;" pathLength="3333" clip-path="url(#z24107c8)" d="M 472 415 L 504 453 L 497 631"/>
    <path style="--d:9s; stroke:#000;" pathLength="3333" clip-path="url(#z24107c9)" d="M 510 420 L 781 378 L 823 388 L 844 409 L 832 578 L 798 609 L 728 567"/>
    <path style="--d:10s; stroke:#000;" pathLength="3333" clip-path="url(#z24107c10)" d="M 606 270 L 653 317 L 649 940"/>
</g>
</svg>