<svg id="z24123" class="acjk" viewBox="0 0 1024 1024" xmlns="http://www.w3.org/2000/svg">

<style>
<![CDATA[
@keyframes zk { to { stroke-dashoffset:0; } }
svg.acjk path[clip-path] {
    --t:0.8s;
    animation:zk var(--t) linear forwards var(--d);
    stroke-dasharray:3337;
    stroke-dashoffset:3339;
    stroke-width:128;
    stroke-linecap:round;
    fill:none;
}
/* Low opacity for background improves visual overlap at intersections */
svg.acjk .bg { fill:#ccc; opacity: 0.5; } 
]]>
</style>
<defs>
    <clipPath id="z24123c1"><path d="M 143 365 C 133 355 118 349 100 352 C 91 353 89 358 93 365 C 115 407 111 471 96 534 C 87 567 84 590 106 617 C 111 623 115 626 121 623 C 136 613 145 582 148 532 C 151 461 152 416 154 398 C 154 386 152 372 143 365 Z"/></clipPath>
    <clipPath id="z24123c2"><path d="M 269 537 C 307 570 331 583 351 599 C 359 605 367 605 374 597 C 388 579 397 546 396 499 C 394 442 394 400 399 371 C 400 359 397 350 392 345 C 375 330 361 320 350 315 C 342 311 334 313 330 319 C 326 322 308 332 273 340 C 242 347 242 347 227 350 C 196 356 173 360 143 365 C 132 367 142 398 154 398 C 160 398 166 397 173 396 C 189 391 207 386 227 383 C 257 377 257 377 272 374 C 284 371 298 370 313 368 C 331 364 343 366 345 378 C 353 465 349 516 339 528 C 335 531 316 532 285 529 C 276 528 273 529 269 530 C 267 530 267 536 269 537 Z"/></clipPath>
    <clipPath id="z24123c3"><path d="M 194 799 C 186 825 191 859 208 902 C 212 913 217 919 222 923 C 227 926 229 925 236 921 C 253 908 264 883 264 839 C 264 814 269 713 269 537 C 269 532 269 532 269 530 C 269 482 270 430 272 374 C 273 351 273 351 273 340 C 275 269 276 209 294 164 C 300 145 300 133 283 121 C 272 113 256 103 238 91 C 221 79 206 78 193 89 C 190 91 188 99 194 110 C 212 143 227 174 227 206 C 227 302 227 302 227 350 C 227 372 227 372 227 383 C 227 469 225 550 219 652 C 215 702 208 751 194 799 Z"/></clipPath>
    <clipPath id="z24123c4"><path d="M 656 218 C 684 212 715 206 748 200 C 774 194 790 189 795 186 C 800 181 801 176 799 171 C 795 163 783 157 766 153 C 747 148 729 151 711 158 C 693 163 675 169 658 174 C 624 183 624 183 607 187 C 570 196 532 197 493 202 C 470 204 466 213 483 223 C 516 242 540 242 608 228 C 640 221 640 221 656 218 Z"/></clipPath>
    <clipPath id="z24123c5"><path d="M 648 323 C 686 317 723 312 757 309 C 773 307 778 301 773 292 C 766 281 754 274 736 271 C 722 268 693 270 651 280 C 622 287 622 287 608 290 C 575 297 544 303 516 310 C 504 312 505 319 519 330 C 525 334 554 336 607 329 C 634 325 634 325 648 323 Z"/></clipPath>
    <clipPath id="z24123c6"><path d="M 643 386 Q 644 353 648 323 C 650 294 650 294 651 280 Q 652 249 656 218 C 657 189 657 189 658 174 Q 658 173 659 172 Q 663 147 666 129 Q 670 114 673 104 Q 677 94 659 81 Q 628 65 607 60 Q 594 57 586 65 Q 579 72 586 85 Q 605 110 605 129 Q 606 157 607 187 C 608 214 608 214 608 228 Q 608 258 608 290 C 607 316 607 316 607 329 Q 606 359 606 392 C 606 404 643 398 643 386 Z"/></clipPath>
    <clipPath id="z24123c7"><path d="M 606 392 C 546 401 483 411 419 420 C 406 421 404 426 414 437 C 422 445 432 451 443 454 C 455 457 466 456 476 454 C 582 421 726 405 909 404 C 921 403 928 400 931 395 C 933 388 930 380 921 373 C 889 349 862 341 840 347 C 794 357 683 379 643 386 C 618 390 618 390 606 392 Z"/></clipPath>
    <clipPath id="z24123c8"><path d="M 522 498 C 513 491 503 485 492 483 C 487 481 483 484 479 488 C 476 490 479 494 482 502 C 495 548 500 613 482 687 C 481 687 481 689 481 691 C 476 705 475 718 478 729 C 482 747 488 761 495 769 C 501 777 507 776 513 769 C 524 752 533 704 538 622 C 540 572 543 534 545 524 C 547 513 531 505 522 498 Z"/></clipPath>
    <clipPath id="z24123c9"><path d="M 725 703 C 721 715 722 727 730 741 C 738 757 744 765 750 765 C 758 764 766 754 776 736 C 783 720 788 708 787 696 C 774 602 776 540 795 512 C 801 501 803 493 798 489 C 781 473 758 460 730 450 C 721 446 709 446 695 453 C 646 475 589 492 522 498 C 511 500 534 526 545 524 C 570 519 706 487 715 497 C 722 505 725 525 727 554 C 731 636 729 686 725 703 Z"/></clipPath>
    <clipPath id="z24123c10"><path d="M 603 620 C 604 744 585 824 528 871 C 524 873 520 876 516 880 C 495 895 462 913 417 933 C 409 936 404 937 402 939 C 399 941 402 945 411 947 C 450 952 544 929 591 874 C 622 837 643 760 655 646 C 656 630 659 612 667 594 C 669 587 668 581 664 577 C 653 566 637 557 616 548 C 603 542 591 540 582 544 C 569 548 568 556 579 567 C 594 583 602 601 603 620 Z"/></clipPath>
    <clipPath id="z24123c11"><path d="M 678 814 C 710 849 747 889 785 939 C 794 952 802 962 813 965 C 817 966 823 963 829 958 C 837 950 839 932 833 904 C 825 868 774 829 682 785 C 675 781 672 782 671 791 C 670 799 672 807 678 814 Z"/></clipPath>
</defs>
<g id="bg-layer">
    <path class="bg" d="M 143 365 C 133 355 118 349 100 352 C 91 353 89 358 93 365 C 115 407 111 471 96 534 C 87 567 84 590 106 617 C 111 623 115 626 121 623 C 136 613 145 582 148 532 C 151 461 152 416 154 398 C 154 386 152 372 143 365 Z"/>
    <path class="bg" d="M 269 537 C 307 570 331 583 351 599 C 359 605 367 605 374 597 C 388 579 397 546 396 499 C 394 442 394 400 399 371 C 400 359 397 350 392 345 C 375 330 361 320 350 315 C 342 311 334 313 330 319 C 326 322 308 332 273 340 C 242 347 242 347 227 350 C 196 356 173 360 143 365 C 132 367 142 398 154 398 C 160 398 166 397 173 396 C 189 391 207 386 227 383 C 257 377 257 377 272 374 C 284 371 298 370 313 368 C 331 364 343 366 345 378 C 353 465 349 516 339 528 C 335 531 316 532 285 529 C 276 528 273 529 269 530 C 267 530 267 536 269 537 Z"/>
    <path class="bg" d="M 194 799 C 186 825 191 859 208 902 C 212 913 217 919 222 923 C 227 926 229 925 236 921 C 253 908 264 883 264 839 C 264 814 269 713 269 537 C 269 532 269 532 269 530 C 269 482 270 430 272 374 C 273 351 273 351 273 340 C 275 269 276 209 294 164 C 300 145 300 133 283 121 C 272 113 256 103 238 91 C 221 79 206 78 193 89 C 190 91 188 99 194 110 C 212 143 227 174 227 206 C 227 302 227 302 227 350 C 227 372 227 372 227 383 C 227 469 225 550 219 652 C 215 702 208 751 194 799 Z"/>
    <path class="bg" d="M 656 218 C 684 212 715 206 748 200 C 774 194 790 189 795 186 C 800 181 801 176 799 171 C 795 163 783 157 766 153 C 747 148 729 151 711 158 C 693 163 675 169 658 174 C 624 183 624 183 607 187 C 570 196 532 197 493 202 C 470 204 466 213 483 223 C 516 242 540 242 608 228 C 640 221 640 221 656 218 Z"/>
    <path class="bg" d="M 648 323 C 686 317 723 312 757 309 C 773 307 778 301 773 292 C 766 281 754 274 736 271 C 722 268 693 270 651 280 C 622 287 622 287 608 290 C 575 297 544 303 516 310 C 504 312 505 319 519 330 C 525 334 554 336 607 329 C 634 325 634 325 648 323 Z"/>
    <path class="bg" d="M 643 386 Q 644 353 648 323 C 650 294 650 294 651 280 Q 652 249 656 218 C 657 189 657 189 658 174 Q 658 173 659 172 Q 663 147 666 129 Q 670 114 673 104 Q 677 94 659 81 Q 628 65 607 60 Q 594 57 586 65 Q 579 72 586 85 Q 605 110 605 129 Q 606 157 607 187 C 608 214 608 214 608 228 Q 608 258 608 290 C 607 316 607 316 607 329 Q 606 359 606 392 C 606 404 643 398 643 386 Z"/>
    <path class="bg" d="M 606 392 C 546 401 483 411 419 420 C 406 421 404 426 414 437 C 422 445 432 451 443 454 C 455 457 466 456 476 454 C 582 421 726 405 909 404 C 921 403 928 400 931 395 C 933 388 930 380 921 373 C 889 349 862 341 840 347 C 794 357 683 379 643 386 C 618 390 618 390 606 392 Z"/>
    <path class="bg" d="M 522 498 C 513 491 503 485 492 483 C 487 481 483 484 479 488 C 476 490 479 494 482 502 C 495 548 500 613 482 687 C 481 687 481 689 481 691 C 476 705 475 718 478 729 C 482 747 488 761 495 769 C 501 777 507 776 513 769 C 524 752 533 704 538 622 C 540 572 543 534 545 524 C 547 513 531 505 522 498 Z"/>
    <path class="bg" d="M 725 703 C 721 715 722 727 730 741 C 738 757 744 765 750 765 C 758 764 766 754 776 736 C 783 720 788 708 787 696 C 774 602 776 540 795 512 C 801 501 803 493 798 489 C 781 473 758 460 730 450 C 721 446 709 446 695 453 C 646 475 589 492 522 498 C 511 500 534 526 545 524 C 570 519 706 487 715 497 C 722 505 725 525 727 554 C 731 636 729 686 725 703 Z"/>
    <path class="bg" d="M 603 620 C 604 744 585 824 528 871 C 524 873 520 876 516 880 C 495 895 462 913 417 933 C 409 936 404 937 402 939 C 399 941 402 945 411 947 C 450 952 544 929 591 874 C 622 837 643 760 655 646 C 656 630 659 612 667 594 C 669 587 668 581 664 577 C 653 566 637 557 616 548 C 603 542 591 540 582 544 C 569 548 568 556 579 567 C 594 583 602 601 603 620 Z"/>
    <path class="bg" d="M 678 814 C 710 849 747 889 785 939 C 794 952 802 962 813 965 C 817 966 823 963 829 958 C 837 950 839 932 833 904 C 825 868 774 829 682 785 C 675 781 672 782 671 791 C 670 799 672 807 678 814 Z"/>
</g>
<g id="anim-layer">
    <path style="--d:1s; stroke:#FF4444;" pathLength="3333" clip-path="url(#z24123c1)" d="M 101 360 L 131 416 L 114 619"/>
    <path style="--d:2s; stroke:#FF4444;" pathLength="3333" clip-path="url(#z24123c2)" d="M 150 369 L 339 343 L 368 361 L 365 543 L 344 566 L 278 537"/>
    <path style="--d:3s; stroke:#FF4444;" pathLength="3333" clip-path="url(#z24123c3)" d="M 197 93 L 260 156 L 226 921"/>
    <path style="--d:4s; stroke:#000;" pathLength="3333" clip-path="url(#z24123c4)" d="M 481 210 L 792 176"/>
    <path style="--d:5s; stroke:#000;" pathLength="3333" clip-path="url(#z24123c5)" d="M 515 316 L 769 295"/>
    <path style="--d:6s; stroke:#000;" pathLength="3333" clip-path="url(#z24123c6)" d="M 589 67 L 639 111 L 623 388"/>
    <path style="--d:7s; stroke:#000;" pathLength="3333" clip-path="url(#z24123c7)" d="M 417 428 L 846 375 L 927 386"/>
    <path style="--d:8s; stroke:#000;" pathLength="3333" clip-path="url(#z24123c8)" d="M 485 489 L 518 537 L 502 770"/>
    <path style="--d:9s; stroke:#000;" pathLength="3333" clip-path="url(#z24123c9)" d="M 533 500 L 710 472 L 753 494 L 746 760"/>
    <path style="--d:10s; stroke:#000;" pathLength="3333" clip-path="url(#z24123c10)" d="M 576 553 L 634 592 L 589 831 L 525 898 L 408 941"/>
    <path style="--d:11s; stroke:#000;" pathLength="3333" clip-path="url(#z24123c11)" d="M 678 791 L 785 886 L 821 960"/>
</g>
</svg>