<svg id="z24162" class="acjk" viewBox="0 0 1024 1024" xmlns="http://www.w3.org/2000/svg">

<style>
<![CDATA[
@keyframes zk { to { stroke-dashoffset:0; } }
svg.acjk path[clip-path] {
    --t:0.8s;
    animation:zk var(--t) linear forwards var(--d);
    stroke-dasharray:3337;
    stroke-dashoffset:3339;
    stroke-width:128;
    stroke-linecap:round;
    fill:none;
}
/* Low opacity for background improves visual overlap at intersections */
svg.acjk .bg { fill:#ccc; opacity: 0.5; } 
]]>
</style>
<defs>
    <clipPath id="z24162c1"><path d="M 147 343 Q 129 325 100 328 Q 88 332 94 342 Q 122 393 100 500 Q 79 551 110 585 Q 116 597 124 591 Q 151 570 151 478 Q 151 405 155 379 C 157 367 157 350 147 343 Z"/></clipPath>
    <clipPath id="z24162c2"><path d="M 276 344 Q 321 329 335 337 Q 348 341 349 361 Q 353 410 341 499 Q 341 518 322 518 Q 304 517 289 517 Q 276 514 279 522 Q 280 531 304 548 Q 326 572 340 597 Q 349 604 359 600 Q 387 582 396 511 Q 396 355 407 340 Q 416 330 410 321 Q 401 311 367 294 Q 358 290 294 305 Q 290 305 277 309 C 247 317 247 317 232 321 Q 190 330 147 343 C 135 347 145 387 155 379 Q 164 369 232 354 C 261 347 261 347 276 344 Z"/></clipPath>
    <clipPath id="z24162c3"><path d="M 199 783 Q 187 826 213 882 Q 219 900 227 903 Q 233 909 240 901 Q 247 897 258 877 Q 268 852 267 822 Q 266 774 276 344 C 277 321 277 321 277 309 Q 280 227 297 170 Q 306 155 303 142 Q 296 132 242 99 Q 220 83 199 97 Q 195 101 200 117 Q 231 163 232 210 Q 232 262 232 321 C 232 343 232 343 232 354 Q 232 355 233 357 Q 229 493 224 641 Q 220 714 199 783 Z"/></clipPath>
    <clipPath id="z24162c4"><path d="M 614 90 Q 635 106 658 127 Q 671 137 684 136 Q 694 135 697 124 Q 701 111 691 85 Q 682 61 607 49 Q 594 46 588 49 Q 584 53 586 64 Q 590 74 614 90 Z"/></clipPath>
    <clipPath id="z24162c5"><path d="M 728 196 Q 813 175 815 174 Q 822 167 819 159 Q 812 149 786 141 Q 762 135 662 166 Q 571 185 517 190 Q 483 196 507 211 Q 540 232 610 219 Q 655 210 704 201 C 720 198 720 198 728 196 Z"/></clipPath>
    <clipPath id="z24162c6"><path d="M 526 268 Q 553 325 572 331 Q 582 335 591 321 Q 595 311 591 293 Q 582 268 535 247 Q 528 244 524 253 Q 523 260 526 268 Z"/></clipPath>
    <clipPath id="z24162c7"><path d="M 699 329 Q 703 323 711 315 Q 726 297 741 276 Q 748 266 760 254 Q 773 244 767 235 Q 752 204 728 196 C 720 193 702 193 704 201 Q 703 202 706 208 Q 712 232 679 311 Q 672 324 669 334 C 666 344 693 337 699 329 Z"/></clipPath>
    <clipPath id="z24162c8"><path d="M 669 334 Q 554 350 423 372 Q 404 373 418 389 Q 431 401 447 405 Q 466 409 480 405 Q 675 348 946 348 Q 964 347 968 339 Q 972 329 957 317 Q 903 281 857 296 Q 794 309 699 329 C 679 332 679 332 669 334 Z"/></clipPath>
    <clipPath id="z24162c9"><path d="M 498 458 Q 488 454 470 452 Q 460 449 456 454 Q 452 460 459 474 Q 487 531 505 624 Q 509 652 525 670 Q 541 689 546 675 Q 547 669 548 663 C 548 646 548 646 548 638 Q 547 628 545 614 Q 526 517 521 488 C 519 476 510 463 498 458 Z"/></clipPath>
    <clipPath id="z24162c10"><path d="M 740 636 Q 756 663 773 670 Q 783 677 797 658 Q 809 637 835 525 Q 842 495 865 472 Q 877 460 866 448 Q 853 432 812 408 Q 796 401 715 418 Q 712 418 593 440 Q 541 450 498 458 C 486 460 509 492 521 488 Q 521 487 524 487 Q 558 477 610 468 C 641 463 641 463 656 460 Q 693 453 737 447 Q 767 443 776 453 Q 788 466 785 478 Q 773 554 755 610 C 752 619 734 628 740 636 Z"/></clipPath>
    <clipPath id="z24162c11"><path d="M 673 554 Q 704 547 733 542 Q 754 538 745 527 Q 735 514 713 511 Q 697 510 675 516 C 642 527 642 527 625 532 Q 591 542 562 552 Q 547 556 566 569 Q 570 572 625 564 C 657 557 657 557 673 554 Z"/></clipPath>
    <clipPath id="z24162c12"><path d="M 670 646 Q 704 639 740 636 C 750 634 763 616 755 610 Q 734 592 675 607 Q 672 607 671 608 C 640 615 640 615 625 619 Q 585 628 548 638 C 540 640 540 663 548 663 Q 555 664 566 662 Q 596 656 625 653 C 655 648 655 648 670 646 Z"/></clipPath>
    <clipPath id="z24162c13"><path d="M 665 838 Q 665 798 666 763 C 667 733 667 733 668 718 Q 668 681 670 646 C 671 621 671 621 671 608 Q 672 580 673 554 C 674 529 674 529 675 516 Q 675 507 676 501 Q 685 480 656 460 C 644 450 602 455 610 468 Q 614 475 618 483 Q 624 501 625 532 C 625 553 625 553 625 564 Q 625 585 625 619 C 625 642 625 642 625 653 Q 625 686 624 730 C 624 757 624 757 624 771 Q 624 804 624 844 C 624 858 665 852 665 838 Z"/></clipPath>
    <clipPath id="z24162c14"><path d="M 666 763 Q 777 739 779 738 Q 786 731 783 723 Q 776 713 750 705 Q 723 699 668 718 C 639 726 639 726 624 730 Q 623 729 621 730 Q 578 739 529 742 Q 495 748 519 763 Q 549 782 624 771 C 652 766 652 766 666 763 Z"/></clipPath>
    <clipPath id="z24162c15"><path d="M 624 844 Q 522 856 405 870 Q 383 871 399 889 Q 412 902 431 909 Q 452 915 468 910 Q 597 876 898 876 Q 917 876 923 868 Q 929 856 912 842 Q 857 800 787 818 Q 735 825 665 838 C 638 842 638 842 624 844 Z"/></clipPath>
</defs>
<g id="bg-layer">
    <path class="bg" d="M 147 343 Q 129 325 100 328 Q 88 332 94 342 Q 122 393 100 500 Q 79 551 110 585 Q 116 597 124 591 Q 151 570 151 478 Q 151 405 155 379 C 157 367 157 350 147 343 Z"/>
    <path class="bg" d="M 276 344 Q 321 329 335 337 Q 348 341 349 361 Q 353 410 341 499 Q 341 518 322 518 Q 304 517 289 517 Q 276 514 279 522 Q 280 531 304 548 Q 326 572 340 597 Q 349 604 359 600 Q 387 582 396 511 Q 396 355 407 340 Q 416 330 410 321 Q 401 311 367 294 Q 358 290 294 305 Q 290 305 277 309 C 247 317 247 317 232 321 Q 190 330 147 343 C 135 347 145 387 155 379 Q 164 369 232 354 C 261 347 261 347 276 344 Z"/>
    <path class="bg" d="M 199 783 Q 187 826 213 882 Q 219 900 227 903 Q 233 909 240 901 Q 247 897 258 877 Q 268 852 267 822 Q 266 774 276 344 C 277 321 277 321 277 309 Q 280 227 297 170 Q 306 155 303 142 Q 296 132 242 99 Q 220 83 199 97 Q 195 101 200 117 Q 231 163 232 210 Q 232 262 232 321 C 232 343 232 343 232 354 Q 232 355 233 357 Q 229 493 224 641 Q 220 714 199 783 Z"/>
    <path class="bg" d="M 614 90 Q 635 106 658 127 Q 671 137 684 136 Q 694 135 697 124 Q 701 111 691 85 Q 682 61 607 49 Q 594 46 588 49 Q 584 53 586 64 Q 590 74 614 90 Z"/>
    <path class="bg" d="M 728 196 Q 813 175 815 174 Q 822 167 819 159 Q 812 149 786 141 Q 762 135 662 166 Q 571 185 517 190 Q 483 196 507 211 Q 540 232 610 219 Q 655 210 704 201 C 720 198 720 198 728 196 Z"/>
    <path class="bg" d="M 526 268 Q 553 325 572 331 Q 582 335 591 321 Q 595 311 591 293 Q 582 268 535 247 Q 528 244 524 253 Q 523 260 526 268 Z"/>
    <path class="bg" d="M 699 329 Q 703 323 711 315 Q 726 297 741 276 Q 748 266 760 254 Q 773 244 767 235 Q 752 204 728 196 C 720 193 702 193 704 201 Q 703 202 706 208 Q 712 232 679 311 Q 672 324 669 334 C 666 344 693 337 699 329 Z"/>
    <path class="bg" d="M 669 334 Q 554 350 423 372 Q 404 373 418 389 Q 431 401 447 405 Q 466 409 480 405 Q 675 348 946 348 Q 964 347 968 339 Q 972 329 957 317 Q 903 281 857 296 Q 794 309 699 329 C 679 332 679 332 669 334 Z"/>
    <path class="bg" d="M 498 458 Q 488 454 470 452 Q 460 449 456 454 Q 452 460 459 474 Q 487 531 505 624 Q 509 652 525 670 Q 541 689 546 675 Q 547 669 548 663 C 548 646 548 646 548 638 Q 547 628 545 614 Q 526 517 521 488 C 519 476 510 463 498 458 Z"/>
    <path class="bg" d="M 740 636 Q 756 663 773 670 Q 783 677 797 658 Q 809 637 835 525 Q 842 495 865 472 Q 877 460 866 448 Q 853 432 812 408 Q 796 401 715 418 Q 712 418 593 440 Q 541 450 498 458 C 486 460 509 492 521 488 Q 521 487 524 487 Q 558 477 610 468 C 641 463 641 463 656 460 Q 693 453 737 447 Q 767 443 776 453 Q 788 466 785 478 Q 773 554 755 610 C 752 619 734 628 740 636 Z"/>
    <path class="bg" d="M 673 554 Q 704 547 733 542 Q 754 538 745 527 Q 735 514 713 511 Q 697 510 675 516 C 642 527 642 527 625 532 Q 591 542 562 552 Q 547 556 566 569 Q 570 572 625 564 C 657 557 657 557 673 554 Z"/>
    <path class="bg" d="M 670 646 Q 704 639 740 636 C 750 634 763 616 755 610 Q 734 592 675 607 Q 672 607 671 608 C 640 615 640 615 625 619 Q 585 628 548 638 C 540 640 540 663 548 663 Q 555 664 566 662 Q 596 656 625 653 C 655 648 655 648 670 646 Z"/>
    <path class="bg" d="M 665 838 Q 665 798 666 763 C 667 733 667 733 668 718 Q 668 681 670 646 C 671 621 671 621 671 608 Q 672 580 673 554 C 674 529 674 529 675 516 Q 675 507 676 501 Q 685 480 656 460 C 644 450 602 455 610 468 Q 614 475 618 483 Q 624 501 625 532 C 625 553 625 553 625 564 Q 625 585 625 619 C 625 642 625 642 625 653 Q 625 686 624 730 C 624 757 624 757 624 771 Q 624 804 624 844 C 624 858 665 852 665 838 Z"/>
    <path class="bg" d="M 666 763 Q 777 739 779 738 Q 786 731 783 723 Q 776 713 750 705 Q 723 699 668 718 C 639 726 639 726 624 730 Q 623 729 621 730 Q 578 739 529 742 Q 495 748 519 763 Q 549 782 624 771 C 652 766 652 766 666 763 Z"/>
    <path class="bg" d="M 624 844 Q 522 856 405 870 Q 383 871 399 889 Q 412 902 431 909 Q 452 915 468 910 Q 597 876 898 876 Q 917 876 923 868 Q 929 856 912 842 Q 857 800 787 818 Q 735 825 665 838 C 638 842 638 842 624 844 Z"/>
</g>
<g id="anim-layer">
    <path style="--d:1s; stroke:#FF4444;" pathLength="3333" clip-path="url(#z24162c1)" d="M 100 333 L 131 390 L 116 584"/>
    <path style="--d:2s; stroke:#FF4444;" pathLength="3333" clip-path="url(#z24162c2)" d="M 159 369 L 314 318 L 378 335 L 354 549 L 328 555 L 287 521"/>
    <path style="--d:3s; stroke:#FF4444;" pathLength="3333" clip-path="url(#z24162c3)" d="M 204 101 L 264 154 L 232 900"/>
    <path style="--d:4s; stroke:#000;" pathLength="3333" clip-path="url(#z24162c4)" d="M 593 57 L 690 128"/>
    <path style="--d:5s; stroke:#000;" pathLength="3333" clip-path="url(#z24162c5)" d="M 506 200 L 812 160"/>
    <path style="--d:6s; stroke:#000;" pathLength="3333" clip-path="url(#z24162c6)" d="M 531 253 L 579 327"/>
    <path style="--d:7s; stroke:#000;" pathLength="3333" clip-path="url(#z24162c7)" d="M 710 205 L 734 247 L 676 327"/>
    <path style="--d:8s; stroke:#000;" pathLength="3333" clip-path="url(#z24162c8)" d="M 421 380 L 873 321 L 964 330"/>
    <path style="--d:9s; stroke:#000;" pathLength="3333" clip-path="url(#z24162c9)" d="M 463 461 L 497 498 L 539 676"/>
    <path style="--d:10s; stroke:#000;" pathLength="3333" clip-path="url(#z24162c10)" d="M 508 460 L 800 435 L 828 466 L 757 657"/>
    <path style="--d:11s; stroke:#000;" pathLength="3333" clip-path="url(#z24162c11)" d="M 560 557 L 742 531"/>
    <path style="--d:12s; stroke:#000;" pathLength="3333" clip-path="url(#z24162c12)" d="M 552 655 L 748 614"/>
    <path style="--d:13s; stroke:#000;" pathLength="3333" clip-path="url(#z24162c13)" d="M 618 470 L 650 500 L 644 841"/>
    <path style="--d:14s; stroke:#000;" pathLength="3333" clip-path="url(#z24162c14)" d="M 517 751 L 776 724"/>
    <path style="--d:15s; stroke:#000;" pathLength="3333" clip-path="url(#z24162c15)" d="M 399 877 L 454 888 L 825 844 L 919 859"/>
</g>
</svg>