<svg id="z24321" class="acjk" viewBox="0 0 1024 1024" xmlns="http://www.w3.org/2000/svg">

<style>
<![CDATA[
@keyframes zk { to { stroke-dashoffset:0; } }
svg.acjk path[clip-path] {
    --t:0.8s;
    animation:zk var(--t) linear forwards var(--d);
    stroke-dasharray:3337;
    stroke-dashoffset:3339;
    stroke-width:128;
    stroke-linecap:round;
    fill:none;
}
/* Low opacity for background improves visual overlap at intersections */
svg.acjk .bg { fill:#ccc; opacity: 0.5; } 
]]>
</style>
<defs>
    <clipPath id="z24321c1"><path d="M 661 287 C 580 295 496 307 409 326 C 400 327 394 329 391 326 C 388 323 389 317 396 310 C 481 206 535 147 555 131 C 563 124 566 115 563 106 C 559 97 540 82 507 63 C 495 56 485 53 478 56 C 467 59 464 69 468 85 C 476 125 440 194 356 288 C 341 304 317 316 293 333 C 281 340 278 348 281 357 C 284 369 294 383 311 400 C 319 408 327 409 338 402 C 379 373 501 346 682 313 C 693 311 672 287 661 287 Z"/></clipPath>
    <clipPath id="z24321c2"><path d="M 682 313 C 710 348 723 360 735 362 C 741 362 748 359 753 351 C 758 342 758 327 757 306 C 754 274 713 239 634 202 C 624 197 616 195 612 197 C 607 198 606 204 606 213 C 606 219 625 242 661 287 C 675 304 675 304 682 313 Z"/></clipPath>
    <clipPath id="z24321c3"><path d="M 423 569 C 447 566 567 556 602 556 C 644 556 644 556 665 556 C 733 556 812 555 901 559 C 915 559 925 556 930 550 C 935 541 931 530 918 520 C 878 486 835 477 790 486 C 753 492 712 499 666 505 C 623 510 623 510 601 513 C 550 519 461 529 426 532 C 385 535 385 535 365 537 C 286 543 203 551 115 559 C 99 560 95 567 108 581 C 131 605 162 612 198 604 C 250 591 306 581 366 575 C 404 571 404 571 423 569 Z"/></clipPath>
    <clipPath id="z24321c4"><path d="M 366 575 C 360 693 318 782 242 844 C 231 852 222 859 213 872 C 206 880 205 883 214 884 C 224 884 240 876 262 864 C 292 846 317 824 338 800 C 362 770 389 726 403 685 C 415 646 419 608 423 569 C 425 544 425 544 426 532 C 428 503 431 480 438 462 C 442 449 438 440 427 435 C 388 415 363 409 348 418 C 339 422 336 429 343 439 C 356 459 364 491 365 537 C 365 549 366 562 366 575 Z"/></clipPath>
    <clipPath id="z24321c5"><path d="M 602 556 C 607 777 598 898 618 932 C 619 933 619 935 621 937 C 625 941 630 944 635 942 C 646 936 653 911 658 868 C 658 864 661 760 665 556 C 666 522 666 522 666 505 C 666 483 669 456 676 426 C 678 413 674 403 664 397 C 640 381 622 372 611 370 C 602 367 591 367 580 375 C 572 379 573 387 579 395 C 593 418 599 456 601 513 C 602 542 602 542 602 556 Z"/></clipPath>
</defs>
<g id="bg-layer">
    <path class="bg" d="M 661 287 C 580 295 496 307 409 326 C 400 327 394 329 391 326 C 388 323 389 317 396 310 C 481 206 535 147 555 131 C 563 124 566 115 563 106 C 559 97 540 82 507 63 C 495 56 485 53 478 56 C 467 59 464 69 468 85 C 476 125 440 194 356 288 C 341 304 317 316 293 333 C 281 340 278 348 281 357 C 284 369 294 383 311 400 C 319 408 327 409 338 402 C 379 373 501 346 682 313 C 693 311 672 287 661 287 Z"/>
    <path class="bg" d="M 682 313 C 710 348 723 360 735 362 C 741 362 748 359 753 351 C 758 342 758 327 757 306 C 754 274 713 239 634 202 C 624 197 616 195 612 197 C 607 198 606 204 606 213 C 606 219 625 242 661 287 C 675 304 675 304 682 313 Z"/>
    <path class="bg" d="M 423 569 C 447 566 567 556 602 556 C 644 556 644 556 665 556 C 733 556 812 555 901 559 C 915 559 925 556 930 550 C 935 541 931 530 918 520 C 878 486 835 477 790 486 C 753 492 712 499 666 505 C 623 510 623 510 601 513 C 550 519 461 529 426 532 C 385 535 385 535 365 537 C 286 543 203 551 115 559 C 99 560 95 567 108 581 C 131 605 162 612 198 604 C 250 591 306 581 366 575 C 404 571 404 571 423 569 Z"/>
    <path class="bg" d="M 366 575 C 360 693 318 782 242 844 C 231 852 222 859 213 872 C 206 880 205 883 214 884 C 224 884 240 876 262 864 C 292 846 317 824 338 800 C 362 770 389 726 403 685 C 415 646 419 608 423 569 C 425 544 425 544 426 532 C 428 503 431 480 438 462 C 442 449 438 440 427 435 C 388 415 363 409 348 418 C 339 422 336 429 343 439 C 356 459 364 491 365 537 C 365 549 366 562 366 575 Z"/>
    <path class="bg" d="M 602 556 C 607 777 598 898 618 932 C 619 933 619 935 621 937 C 625 941 630 944 635 942 C 646 936 653 911 658 868 C 658 864 661 760 665 556 C 666 522 666 522 666 505 C 666 483 669 456 676 426 C 678 413 674 403 664 397 C 640 381 622 372 611 370 C 602 367 591 367 580 375 C 572 379 573 387 579 395 C 593 418 599 456 601 513 C 602 542 602 542 602 556 Z"/>
</g>
<g id="anim-layer">
    <path style="--d:1s; stroke:#FF4444;" pathLength="3333" clip-path="url(#z24321c1)" d="M 481 58 L 515 119 L 337 337 L 342 356 L 672 310"/>
    <path style="--d:2s; stroke:#FF4444;" pathLength="3333" clip-path="url(#z24321c2)" d="M 615 205 L 705 285 L 746 356"/>
    <path style="--d:3s; stroke:#000;" pathLength="3333" clip-path="url(#z24321c3)" d="M 107 569 L 170 580 L 812 519 L 927 536"/>
    <path style="--d:4s; stroke:#000;" pathLength="3333" clip-path="url(#z24321c4)" d="M 347 424 L 399 464 L 381 666 L 320 790 L 216 879"/>
    <path style="--d:5s; stroke:#000;" pathLength="3333" clip-path="url(#z24321c5)" d="M 581 381 L 635 426 L 632 938"/>
</g>
</svg>