<svg id="z24378" class="acjk" viewBox="0 0 1024 1024" xmlns="http://www.w3.org/2000/svg">

<style>
<![CDATA[
@keyframes zk { to { stroke-dashoffset:0; } }
svg.acjk path[clip-path] {
    --t:0.8s;
    animation:zk var(--t) linear forwards var(--d);
    stroke-dasharray:3337;
    stroke-dashoffset:3339;
    stroke-width:128;
    stroke-linecap:round;
    fill:none;
}
/* Low opacity for background improves visual overlap at intersections */
svg.acjk .bg { fill:#ccc; opacity: 0.5; } 
]]>
</style>
<defs>
    <clipPath id="z24378c1"><path d="M 373 346 Q 397 252 426 223 Q 451 196 426 181 Q 405 168 377 150 Q 356 138 313 164 Q 274 182 203 198 Q 191 198 193 205 Q 194 209 208 217 Q 226 226 283 211 Q 340 195 347 206 Q 354 213 344 253 Q 331 296 316 346 C 309 364 369 365 373 346 Z"/></clipPath>
    <clipPath id="z24378c2"><path d="M 234 403 Q 283 390 386 377 Q 396 376 397 367 Q 397 360 373 346 C 357 336 334 339 316 346 Q 259 362 213 373 C 201 375 222 405 234 403 Z"/></clipPath>
    <clipPath id="z24378c3"><path d="M 284 540 Q 303 539 311 548 Q 321 563 317 601 Q 307 704 279 772 Q 264 811 250 824 Q 241 834 217 824 Q 192 817 172 812 Q 156 805 158 816 Q 159 829 173 842 Q 203 876 217 905 Q 233 929 256 915 Q 332 857 343 789 Q 382 576 384 576 Q 385 569 391 563 Q 401 545 391 535 Q 379 519 348 503 Q 327 494 261 514 Q 210 526 207 524 Q 203 520 207 509 Q 234 407 234 403 C 236 391 223 379 213 373 Q 203 366 191 360 Q 179 350 170 357 Q 160 363 170 377 Q 188 408 175 457 Q 160 521 133 544 Q 120 557 125 571 Q 132 584 142 592 Q 152 599 171 584 Q 217 541 284 540 Z"/></clipPath>
    <clipPath id="z24378c4"><path d="M 523 223 Q 511 216 475 212 Q 462 209 459 215 Q 452 222 462 238 Q 490 289 510 374 Q 514 399 531 417 Q 550 439 555 422 Q 558 412 558 396 C 555 374 555 374 554 363 Q 538 281 535 253 C 533 242 533 228 523 223 Z"/></clipPath>
    <clipPath id="z24378c5"><path d="M 756 332 Q 780 260 811 244 Q 827 226 813 209 Q 797 196 748 172 Q 730 165 710 172 Q 662 191 618 203 Q 572 213 523 223 C 512 225 524 255 535 253 Q 569 247 696 218 Q 714 214 721 221 Q 733 236 704 330 C 698 346 750 348 756 332 Z"/></clipPath>
    <clipPath id="z24378c6"><path d="M 634 382 Q 689 372 769 364 Q 779 363 780 355 Q 780 348 756 332 C 741 323 721 327 704 330 Q 622 351 554 363 C 543 365 548 400 558 396 Q 557 395 560 395 Q 576 391 597 388 C 622 384 622 384 634 382 Z"/></clipPath>
    <clipPath id="z24378c7"><path d="M 490 514 Q 480 508 445 505 Q 433 502 431 508 Q 425 514 434 528 Q 461 574 481 652 Q 485 676 500 690 Q 518 709 522 695 Q 523 688 524 676 C 521 655 521 655 520 644 Q 505 574 501 546 C 499 535 500 518 490 514 Z"/></clipPath>
    <clipPath id="z24378c8"><path d="M 617 494 Q 554 504 490 514 C 479 516 490 548 501 546 Q 508 545 519 541 Q 567 531 618 522 C 649 516 649 516 664 513 Q 751 492 766 505 Q 775 514 757 591 C 754 607 801 607 807 592 Q 828 543 854 524 Q 870 508 857 490 Q 788 435 736 460 Q 699 472 665 483 C 633 490 633 490 617 494 Z"/></clipPath>
    <clipPath id="z24378c9"><path d="M 524 676 Q 527 676 532 675 Q 566 665 617 656 C 646 651 646 651 660 649 Q 727 636 821 625 Q 831 624 832 615 Q 832 608 807 592 C 793 583 773 588 757 591 Q 705 603 661 615 C 632 622 632 622 617 625 Q 565 635 520 644 C 509 646 513 676 524 676 Z"/></clipPath>
    <clipPath id="z24378c10"><path d="M 597 388 Q 616 437 617 494 C 618 513 618 513 618 522 Q 618 561 617 625 C 617 646 617 646 617 656 Q 617 707 616 774 C 616 788 657 780 657 766 Q 658 705 660 649 C 661 626 661 626 661 615 Q 662 561 664 513 C 665 493 665 493 665 483 Q 665 459 668 433 Q 678 405 636 383 Q 635 382 634 382 C 622 377 592 376 597 388 Z"/></clipPath>
    <clipPath id="z24378c11"><path d="M 616 774 Q 546 787 472 802 Q 448 806 411 802 Q 398 803 395 812 Q 392 825 400 834 Q 421 853 452 875 Q 462 879 474 871 Q 537 837 740 779 Q 783 764 787 763 C 795 760 781 738 772 740 Q 715 752 657 766 C 630 771 630 771 616 774 Z"/></clipPath>
    <clipPath id="z24378c12"><path d="M 787 763 Q 812 803 840 851 Q 849 872 862 878 Q 869 881 877 874 Q 890 865 888 825 Q 888 771 753 675 Q 746 669 742 679 Q 739 691 746 701 Q 758 719 772 740 C 782 755 782 755 787 763 Z"/></clipPath>
</defs>
<g id="bg-layer">
    <path class="bg" d="M 373 346 Q 397 252 426 223 Q 451 196 426 181 Q 405 168 377 150 Q 356 138 313 164 Q 274 182 203 198 Q 191 198 193 205 Q 194 209 208 217 Q 226 226 283 211 Q 340 195 347 206 Q 354 213 344 253 Q 331 296 316 346 C 309 364 369 365 373 346 Z"/>
    <path class="bg" d="M 234 403 Q 283 390 386 377 Q 396 376 397 367 Q 397 360 373 346 C 357 336 334 339 316 346 Q 259 362 213 373 C 201 375 222 405 234 403 Z"/>
    <path class="bg" d="M 284 540 Q 303 539 311 548 Q 321 563 317 601 Q 307 704 279 772 Q 264 811 250 824 Q 241 834 217 824 Q 192 817 172 812 Q 156 805 158 816 Q 159 829 173 842 Q 203 876 217 905 Q 233 929 256 915 Q 332 857 343 789 Q 382 576 384 576 Q 385 569 391 563 Q 401 545 391 535 Q 379 519 348 503 Q 327 494 261 514 Q 210 526 207 524 Q 203 520 207 509 Q 234 407 234 403 C 236 391 223 379 213 373 Q 203 366 191 360 Q 179 350 170 357 Q 160 363 170 377 Q 188 408 175 457 Q 160 521 133 544 Q 120 557 125 571 Q 132 584 142 592 Q 152 599 171 584 Q 217 541 284 540 Z"/>
    <path class="bg" d="M 523 223 Q 511 216 475 212 Q 462 209 459 215 Q 452 222 462 238 Q 490 289 510 374 Q 514 399 531 417 Q 550 439 555 422 Q 558 412 558 396 C 555 374 555 374 554 363 Q 538 281 535 253 C 533 242 533 228 523 223 Z"/>
    <path class="bg" d="M 756 332 Q 780 260 811 244 Q 827 226 813 209 Q 797 196 748 172 Q 730 165 710 172 Q 662 191 618 203 Q 572 213 523 223 C 512 225 524 255 535 253 Q 569 247 696 218 Q 714 214 721 221 Q 733 236 704 330 C 698 346 750 348 756 332 Z"/>
    <path class="bg" d="M 634 382 Q 689 372 769 364 Q 779 363 780 355 Q 780 348 756 332 C 741 323 721 327 704 330 Q 622 351 554 363 C 543 365 548 400 558 396 Q 557 395 560 395 Q 576 391 597 388 C 622 384 622 384 634 382 Z"/>
    <path class="bg" d="M 490 514 Q 480 508 445 505 Q 433 502 431 508 Q 425 514 434 528 Q 461 574 481 652 Q 485 676 500 690 Q 518 709 522 695 Q 523 688 524 676 C 521 655 521 655 520 644 Q 505 574 501 546 C 499 535 500 518 490 514 Z"/>
    <path class="bg" d="M 617 494 Q 554 504 490 514 C 479 516 490 548 501 546 Q 508 545 519 541 Q 567 531 618 522 C 649 516 649 516 664 513 Q 751 492 766 505 Q 775 514 757 591 C 754 607 801 607 807 592 Q 828 543 854 524 Q 870 508 857 490 Q 788 435 736 460 Q 699 472 665 483 C 633 490 633 490 617 494 Z"/>
    <path class="bg" d="M 524 676 Q 527 676 532 675 Q 566 665 617 656 C 646 651 646 651 660 649 Q 727 636 821 625 Q 831 624 832 615 Q 832 608 807 592 C 793 583 773 588 757 591 Q 705 603 661 615 C 632 622 632 622 617 625 Q 565 635 520 644 C 509 646 513 676 524 676 Z"/>
    <path class="bg" d="M 597 388 Q 616 437 617 494 C 618 513 618 513 618 522 Q 618 561 617 625 C 617 646 617 646 617 656 Q 617 707 616 774 C 616 788 657 780 657 766 Q 658 705 660 649 C 661 626 661 626 661 615 Q 662 561 664 513 C 665 493 665 493 665 483 Q 665 459 668 433 Q 678 405 636 383 Q 635 382 634 382 C 622 377 592 376 597 388 Z"/>
    <path class="bg" d="M 616 774 Q 546 787 472 802 Q 448 806 411 802 Q 398 803 395 812 Q 392 825 400 834 Q 421 853 452 875 Q 462 879 474 871 Q 537 837 740 779 Q 783 764 787 763 C 795 760 781 738 772 740 Q 715 752 657 766 C 630 771 630 771 616 774 Z"/>
    <path class="bg" d="M 787 763 Q 812 803 840 851 Q 849 872 862 878 Q 869 881 877 874 Q 890 865 888 825 Q 888 771 753 675 Q 746 669 742 679 Q 739 691 746 701 Q 758 719 772 740 C 782 755 782 755 787 763 Z"/>
</g>
<g id="anim-layer">
    <path style="--d:1s; stroke:#FF4444;" pathLength="3333" clip-path="url(#z24378c1)" d="M 201 202 L 351 175 L 393 200 L 332 345"/>
    <path style="--d:2s; stroke:#FF4444;" pathLength="3333" clip-path="url(#z24378c2)" d="M 223 378 L 392 365"/>
    <path style="--d:3s; stroke:#FF4444;" pathLength="3333" clip-path="url(#z24378c3)" d="M 175 364 L 207 404 L 173 555 L 311 521 L 355 559 L 289 831 L 241 874 L 162 818"/>
    <path style="--d:4s; stroke:#000;" pathLength="3333" clip-path="url(#z24378c4)" d="M 465 221 L 508 267 L 542 424"/>
    <path style="--d:5s; stroke:#000;" pathLength="3333" clip-path="url(#z24378c5)" d="M 531 229 L 739 198 L 771 236 L 716 327"/>
    <path style="--d:6s; stroke:#000;" pathLength="3333" clip-path="url(#z24378c6)" d="M 562 367 L 774 352"/>
    <path style="--d:7s; stroke:#000;" pathLength="3333" clip-path="url(#z24378c7)" d="M 437 512 L 467 531 L 515 694"/>
    <path style="--d:8s; stroke:#000;" pathLength="3333" clip-path="url(#z24378c8)" d="M 499 518 L 780 480 L 816 512 L 775 591"/>
    <path style="--d:9s; stroke:#000;" pathLength="3333" clip-path="url(#z24378c9)" d="M 528 669 L 744 614 L 826 616"/>
    <path style="--d:10s; stroke:#000;" pathLength="3333" clip-path="url(#z24378c10)" d="M 605 391 L 640 431 L 629 770"/>
    <path style="--d:11s; stroke:#000;" pathLength="3333" clip-path="url(#z24378c11)" d="M 398 815 L 464 839 L 780 757"/>
    <path style="--d:12s; stroke:#000;" pathLength="3333" clip-path="url(#z24378c12)" d="M 749 682 L 833 780 L 875 872"/>
</g>
</svg>