<svg id="z24508" class="acjk" viewBox="0 0 1024 1024" xmlns="http://www.w3.org/2000/svg">

<style>
<![CDATA[
@keyframes zk { to { stroke-dashoffset:0; } }
svg.acjk path[clip-path] {
    --t:0.8s;
    animation:zk var(--t) linear forwards var(--d);
    stroke-dasharray:3337;
    stroke-dashoffset:3339;
    stroke-width:128;
    stroke-linecap:round;
    fill:none;
}
/* Low opacity for background improves visual overlap at intersections */
svg.acjk .bg { fill:#ccc; opacity: 0.5; } 
]]>
</style>
<defs>
    <clipPath id="z24508c1"><path d="M 242 135 C 245 147 247 158 243 168 C 213 238 172 299 115 365 C 91 391 107 393 135 377 C 205 337 288 212 313 185 C 327 168 313 150 291 132 C 260 107 232 106 242 135 Z"/></clipPath>
    <clipPath id="z24508c2"><path d="M 217 525 Q 245 488 277 441 Q 299 402 319 385 Q 329 375 324 362 Q 320 350 295 328 Q 270 310 252 310 Q 236 311 242 332 Q 275 410 59 659 Q 49 669 47 675 Q 43 685 57 683 Q 97 676 195 552 C 210 534 210 534 217 525 Z"/></clipPath>
    <clipPath id="z24508c3"><path d="M 257 827 Q 258 812 259 797 Q 258 638 262 602 Q 269 577 260 568 Q 244 549 232 537 Q 225 530 217 525 C 207 519 193 541 195 552 Q 225 660 196 796 Q 186 838 215 880 Q 216 883 219 885 Q 235 900 246 875 Q 253 854 256 833 C 257 829 257 829 257 827 Z"/></clipPath>
    <clipPath id="z24508c4"><path d="M 417 265 C 459 201 492 160 513 140 C 537 116 498 102 470 98 C 429 91 426 106 433 116 C 443 132 423 197 398 267 C 397 267 397 268 397 270 C 394 276 413 270 417 265 Z"/></clipPath>
    <clipPath id="z24508c5"><path d="M 362 279 C 339 271 309 258 324 292 C 340 330 354 379 361 440 C 362 457 368 472 379 486 C 397 510 396 491 401 473 C 402 464 402 456 401 448 C 396 426 394 405 392 391 C 390 378 390 378 389 372 C 384 341 381 320 381 308 C 381 296 373 283 362 279 Z"/></clipPath>
    <clipPath id="z24508c6"><path d="M 528 451 C 528 455 529 459 531 463 C 535 471 540 475 547 475 C 555 474 560 469 564 460 C 570 449 579 418 591 367 C 597 336 611 312 632 294 C 642 284 641 275 632 267 C 621 258 601 246 572 233 C 558 226 507 242 417 265 C 404 268 404 268 397 270 C 384 273 372 275 362 279 C 351 283 370 312 381 308 C 471 278 525 266 546 273 C 546 273 546 272 547 273 C 552 275 554 286 552 307 C 543 368 537 409 532 428 C 530 436 526 443 528 451 Z"/></clipPath>
    <clipPath id="z24508c7"><path d="M 392 391 C 430 387 468 380 506 373 C 533 367 514 346 486 344 C 472 342 439 352 389 372 C 383 374 386 392 392 391 Z"/></clipPath>
    <clipPath id="z24508c8"><path d="M 401 473 C 420 473 451 462 528 451 C 536 450 539 432 532 428 C 494 402 488 424 401 448 C 393 450 393 473 401 473 Z"/></clipPath>
    <clipPath id="z24508c9"><path d="M 514 527 Q 514 518 511 507 Q 498 483 454 470 Q 447 469 445 477 Q 444 483 472 528 Q 476 534 481 538 C 490 545 514 539 514 527 Z"/></clipPath>
    <clipPath id="z24508c10"><path d="M 453 582 C 472 577 510 567 567 559 C 575 557 598 546 564 533 C 554 529 530 521 514 527 C 492 534 492 534 481 538 C 425 556 367 564 310 577 C 295 580 294 585 306 594 C 324 607 340 608 356 606 C 368 604 396 596 421 590 C 442 585 442 585 453 582 Z"/></clipPath>
    <clipPath id="z24508c11"><path d="M 469 640 Q 475 643 490 648 Q 515 657 522 672 Q 529 690 489 784 Q 473 818 457 823 Q 450 823 425 805 Q 400 783 395 786 Q 388 792 399 806 Q 423 851 421 878 Q 422 893 431 899 Q 441 906 472 893 Q 515 868 542 793 Q 554 724 583 703 Q 593 700 595 692 Q 598 685 580 660 Q 561 635 511 625 Q 504 622 494 619 Q 490 618 487 616 C 478 612 460 636 469 640 Z"/></clipPath>
    <clipPath id="z24508c12"><path d="M 256 833 C 256 832 257 832 259 833 C 321 816 391 752 469 640 C 474 631 489 626 487 616 C 487 603 468 588 453 582 C 443 578 421 579 421 590 C 425 651 315 777 257 827 C 256 828 254 833 256 833 Z"/></clipPath>
    <clipPath id="z24508c13"><path d="M 683 400 C 720 324 750 228 762 194 C 776 154 761 149 731 138 C 693 123 663 133 682 157 C 700 180 695 241 662 343 C 647 388 628 435 603 490 C 595 505 588 535 623 498 C 637 483 648 469 668 430 C 678 410 678 410 683 400 Z"/></clipPath>
    <clipPath id="z24508c14"><path d="M 668 430 C 696 436 724 434 753 426 C 787 414 823 404 861 392 C 871 388 903 380 892 363 C 887 356 875 351 855 349 C 839 346 808 356 763 375 C 739 384 712 391 683 400 C 673 404 657 428 668 430 Z"/></clipPath>
    <clipPath id="z24508c15"><path d="M 691 683 C 664 732 632 761 577 805 C 550 824 560 835 589 825 C 649 803 677 777 718 722 C 727 708 735 694 741 679 C 753 645 766 609 778 545 C 780 528 784 512 792 499 C 797 488 795 481 786 475 C 756 455 735 446 720 452 C 712 454 709 460 714 469 C 741 522 717 606 707 641 C 702 655 697 669 691 683 Z"/></clipPath>
    <clipPath id="z24508c16"><path d="M 718 722 C 747 764 778 801 806 836 C 814 846 825 853 840 853 C 882 852 914 849 935 846 C 983 841 961 829 933 815 C 876 786 788 732 741 679 C 718 654 718 654 707 641 C 690 622 674 602 658 581 C 651 572 644 566 636 566 C 619 564 608 567 603 572 C 600 574 601 578 608 583 C 644 605 666 647 691 683 C 709 709 709 709 718 722 Z"/></clipPath>
</defs>
<g id="bg-layer">
    <path class="bg" d="M 242 135 C 245 147 247 158 243 168 C 213 238 172 299 115 365 C 91 391 107 393 135 377 C 205 337 288 212 313 185 C 327 168 313 150 291 132 C 260 107 232 106 242 135 Z"/>
    <path class="bg" d="M 217 525 Q 245 488 277 441 Q 299 402 319 385 Q 329 375 324 362 Q 320 350 295 328 Q 270 310 252 310 Q 236 311 242 332 Q 275 410 59 659 Q 49 669 47 675 Q 43 685 57 683 Q 97 676 195 552 C 210 534 210 534 217 525 Z"/>
    <path class="bg" d="M 257 827 Q 258 812 259 797 Q 258 638 262 602 Q 269 577 260 568 Q 244 549 232 537 Q 225 530 217 525 C 207 519 193 541 195 552 Q 225 660 196 796 Q 186 838 215 880 Q 216 883 219 885 Q 235 900 246 875 Q 253 854 256 833 C 257 829 257 829 257 827 Z"/>
    <path class="bg" d="M 417 265 C 459 201 492 160 513 140 C 537 116 498 102 470 98 C 429 91 426 106 433 116 C 443 132 423 197 398 267 C 397 267 397 268 397 270 C 394 276 413 270 417 265 Z"/>
    <path class="bg" d="M 362 279 C 339 271 309 258 324 292 C 340 330 354 379 361 440 C 362 457 368 472 379 486 C 397 510 396 491 401 473 C 402 464 402 456 401 448 C 396 426 394 405 392 391 C 390 378 390 378 389 372 C 384 341 381 320 381 308 C 381 296 373 283 362 279 Z"/>
    <path class="bg" d="M 528 451 C 528 455 529 459 531 463 C 535 471 540 475 547 475 C 555 474 560 469 564 460 C 570 449 579 418 591 367 C 597 336 611 312 632 294 C 642 284 641 275 632 267 C 621 258 601 246 572 233 C 558 226 507 242 417 265 C 404 268 404 268 397 270 C 384 273 372 275 362 279 C 351 283 370 312 381 308 C 471 278 525 266 546 273 C 546 273 546 272 547 273 C 552 275 554 286 552 307 C 543 368 537 409 532 428 C 530 436 526 443 528 451 Z"/>
    <path class="bg" d="M 392 391 C 430 387 468 380 506 373 C 533 367 514 346 486 344 C 472 342 439 352 389 372 C 383 374 386 392 392 391 Z"/>
    <path class="bg" d="M 401 473 C 420 473 451 462 528 451 C 536 450 539 432 532 428 C 494 402 488 424 401 448 C 393 450 393 473 401 473 Z"/>
    <path class="bg" d="M 514 527 Q 514 518 511 507 Q 498 483 454 470 Q 447 469 445 477 Q 444 483 472 528 Q 476 534 481 538 C 490 545 514 539 514 527 Z"/>
    <path class="bg" d="M 453 582 C 472 577 510 567 567 559 C 575 557 598 546 564 533 C 554 529 530 521 514 527 C 492 534 492 534 481 538 C 425 556 367 564 310 577 C 295 580 294 585 306 594 C 324 607 340 608 356 606 C 368 604 396 596 421 590 C 442 585 442 585 453 582 Z"/>
    <path class="bg" d="M 469 640 Q 475 643 490 648 Q 515 657 522 672 Q 529 690 489 784 Q 473 818 457 823 Q 450 823 425 805 Q 400 783 395 786 Q 388 792 399 806 Q 423 851 421 878 Q 422 893 431 899 Q 441 906 472 893 Q 515 868 542 793 Q 554 724 583 703 Q 593 700 595 692 Q 598 685 580 660 Q 561 635 511 625 Q 504 622 494 619 Q 490 618 487 616 C 478 612 460 636 469 640 Z"/>
    <path class="bg" d="M 256 833 C 256 832 257 832 259 833 C 321 816 391 752 469 640 C 474 631 489 626 487 616 C 487 603 468 588 453 582 C 443 578 421 579 421 590 C 425 651 315 777 257 827 C 256 828 254 833 256 833 Z"/>
    <path class="bg" d="M 683 400 C 720 324 750 228 762 194 C 776 154 761 149 731 138 C 693 123 663 133 682 157 C 700 180 695 241 662 343 C 647 388 628 435 603 490 C 595 505 588 535 623 498 C 637 483 648 469 668 430 C 678 410 678 410 683 400 Z"/>
    <path class="bg" d="M 668 430 C 696 436 724 434 753 426 C 787 414 823 404 861 392 C 871 388 903 380 892 363 C 887 356 875 351 855 349 C 839 346 808 356 763 375 C 739 384 712 391 683 400 C 673 404 657 428 668 430 Z"/>
    <path class="bg" d="M 691 683 C 664 732 632 761 577 805 C 550 824 560 835 589 825 C 649 803 677 777 718 722 C 727 708 735 694 741 679 C 753 645 766 609 778 545 C 780 528 784 512 792 499 C 797 488 795 481 786 475 C 756 455 735 446 720 452 C 712 454 709 460 714 469 C 741 522 717 606 707 641 C 702 655 697 669 691 683 Z"/>
    <path class="bg" d="M 718 722 C 747 764 778 801 806 836 C 814 846 825 853 840 853 C 882 852 914 849 935 846 C 983 841 961 829 933 815 C 876 786 788 732 741 679 C 718 654 718 654 707 641 C 690 622 674 602 658 581 C 651 572 644 566 636 566 C 619 564 608 567 603 572 C 600 574 601 578 608 583 C 644 605 666 647 691 683 C 709 709 709 709 718 722 Z"/>
</g>
<g id="anim-layer">
    <path style="--d:1s; stroke:#FF4444;" pathLength="3333" clip-path="url(#z24508c1)" d="M 248 117 L 282 167 L 193 300 L 110 380"/>
    <path style="--d:2s; stroke:#FF4444;" pathLength="3333" clip-path="url(#z24508c2)" d="M 249 319 L 285 363 L 254 430 L 53 677"/>
    <path style="--d:3s; stroke:#FF4444;" pathLength="3333" clip-path="url(#z24508c3)" d="M 211 530 L 235 602 L 227 886"/>
    <path style="--d:4s; stroke:#000;" pathLength="3333" clip-path="url(#z24508c4)" d="M 435 104 L 477 133 L 405 268"/>
    <path style="--d:5s; stroke:#000;" pathLength="3333" clip-path="url(#z24508c5)" d="M 328 278 L 356 306 L 389 486"/>
    <path style="--d:6s; stroke:#000;" pathLength="3333" clip-path="url(#z24508c6)" d="M 363 284 L 537 252 L 582 268 L 595 288 L 544 468"/>
    <path style="--d:7s; stroke:#000;" pathLength="3333" clip-path="url(#z24508c7)" d="M 389 381 L 513 360"/>
    <path style="--d:8s; stroke:#000;" pathLength="3333" clip-path="url(#z24508c8)" d="M 398 463 L 531 435"/>
    <path style="--d:9s; stroke:#000;" pathLength="3333" clip-path="url(#z24508c9)" d="M 453 476 L 499 537"/>
    <path style="--d:10s; stroke:#000;" pathLength="3333" clip-path="url(#z24508c10)" d="M 305 584 L 576 548"/>
    <path style="--d:11s; stroke:#000;" pathLength="3333" clip-path="url(#z24508c11)" d="M 473 633 L 537 653 L 558 686 L 511 800 L 446 861 L 398 793"/>
    <path style="--d:12s; stroke:#000;" pathLength="3333" clip-path="url(#z24508c12)" d="M 429 589 L 450 623 L 420 668 L 264 826"/>
    <path style="--d:13s; stroke:#000;" pathLength="3333" clip-path="url(#z24508c13)" d="M 685 143 L 729 172 L 726 205 L 666 391 L 602 510"/>
    <path style="--d:14s; stroke:#000;" pathLength="3333" clip-path="url(#z24508c14)" d="M 670 424 L 890 365"/>
    <path style="--d:15s; stroke:#000;" pathLength="3333" clip-path="url(#z24508c15)" d="M 718 458 L 759 493 L 719 674 L 671 748 L 569 824"/>
    <path style="--d:16s; stroke:#000;" pathLength="3333" clip-path="url(#z24508c16)" d="M 607 574 L 641 586 L 831 805 L 955 833"/>
</g>
</svg>