<svg id="z24541" class="acjk" viewBox="0 0 1024 1024" xmlns="http://www.w3.org/2000/svg">

<style>
<![CDATA[
@keyframes zk { to { stroke-dashoffset:0; } }
svg.acjk path[clip-path] {
    --t:0.8s;
    animation:zk var(--t) linear forwards var(--d);
    stroke-dasharray:3337;
    stroke-dashoffset:3339;
    stroke-width:128;
    stroke-linecap:round;
    fill:none;
}
/* Low opacity for background improves visual overlap at intersections */
svg.acjk .bg { fill:#ccc; opacity: 0.5; } 
]]>
</style>
<defs>
    <clipPath id="z24541c1"><path d="M 476 185 Q 560 170 651 156 Q 712 144 721 136 Q 731 127 727 118 Q 720 103 687 94 Q 651 85 562 114 Q 415 148 293 155 Q 251 159 280 180 Q 323 207 406 195 Q 415 194 426 193 C 459 188 459 188 476 185 Z"/></clipPath>
    <clipPath id="z24541c2"><path d="M 594 356 Q 603 352 786 338 Q 799 339 810 325 Q 813 310 785 296 Q 749 266 653 292 Q 580 304 454 329 C 411 335 411 335 390 338 Q 288 341 187 353 Q 151 356 178 378 Q 212 412 267 403 Q 310 394 363 388 C 407 381 407 381 429 378 Q 489 368 559 360 C 582 357 582 357 594 356 Z"/></clipPath>
    <clipPath id="z24541c3"><path d="M 454 329 Q 475 283 506 235 Q 515 225 509 214 Q 503 204 476 185 C 462 176 426 176 426 193 Q 426 250 390 338 C 372 371 372 371 363 388 Q 350 406 338 425 Q 302 476 255 517 Q 209 566 93 645 Q 84 652 91 656 Q 98 660 111 655 Q 319 579 429 378 C 446 345 446 345 454 329 Z"/></clipPath>
    <clipPath id="z24541c4"><path d="M 559 360 Q 754 588 802 600 Q 871 610 969 594 Q 988 593 989 587 Q 992 580 977 574 Q 787 498 767 486 Q 683 434 594 356 C 586 348 552 351 559 360 Z"/></clipPath>
    <clipPath id="z24541c5"><path d="M 418 853 Q 387 849 355 844 Q 342 843 343 850 Q 344 857 356 865 Q 428 923 455 961 Q 470 979 486 963 Q 525 924 520 853 Q 516 801 515 596 Q 516 557 528 531 Q 537 512 520 498 Q 493 476 462 465 Q 443 458 434 465 Q 428 472 439 488 Q 461 528 461 574 Q 467 833 443 851 Q 433 858 418 853 Z"/></clipPath>
    <clipPath id="z24541c6"><path d="M 313 634 Q 282 689 241 737 Q 232 747 229 763 Q 223 788 230 805 Q 236 824 259 815 Q 320 779 332 697 Q 342 663 338 637 Q 334 627 328 626 Q 319 626 313 634 Z"/></clipPath>
    <clipPath id="z24541c7"><path d="M 575 709 Q 600 746 627 789 Q 636 802 649 806 Q 658 809 665 799 Q 672 787 672 761 Q 673 737 645 711 Q 582 660 564 661 Q 560 664 557 675 Q 558 685 575 709 Z"/></clipPath>
    <clipPath id="z24541c8"><path d="M 699 672 Q 745 724 794 784 Q 806 800 822 802 Q 832 803 841 791 Q 848 776 844 744 Q 843 710 799 677 Q 703 613 680 617 Q 674 620 674 634 Q 675 646 699 672 Z"/></clipPath>
</defs>
<g id="bg-layer">
    <path class="bg" d="M 476 185 Q 560 170 651 156 Q 712 144 721 136 Q 731 127 727 118 Q 720 103 687 94 Q 651 85 562 114 Q 415 148 293 155 Q 251 159 280 180 Q 323 207 406 195 Q 415 194 426 193 C 459 188 459 188 476 185 Z"/>
    <path class="bg" d="M 594 356 Q 603 352 786 338 Q 799 339 810 325 Q 813 310 785 296 Q 749 266 653 292 Q 580 304 454 329 C 411 335 411 335 390 338 Q 288 341 187 353 Q 151 356 178 378 Q 212 412 267 403 Q 310 394 363 388 C 407 381 407 381 429 378 Q 489 368 559 360 C 582 357 582 357 594 356 Z"/>
    <path class="bg" d="M 454 329 Q 475 283 506 235 Q 515 225 509 214 Q 503 204 476 185 C 462 176 426 176 426 193 Q 426 250 390 338 C 372 371 372 371 363 388 Q 350 406 338 425 Q 302 476 255 517 Q 209 566 93 645 Q 84 652 91 656 Q 98 660 111 655 Q 319 579 429 378 C 446 345 446 345 454 329 Z"/>
    <path class="bg" d="M 559 360 Q 754 588 802 600 Q 871 610 969 594 Q 988 593 989 587 Q 992 580 977 574 Q 787 498 767 486 Q 683 434 594 356 C 586 348 552 351 559 360 Z"/>
    <path class="bg" d="M 418 853 Q 387 849 355 844 Q 342 843 343 850 Q 344 857 356 865 Q 428 923 455 961 Q 470 979 486 963 Q 525 924 520 853 Q 516 801 515 596 Q 516 557 528 531 Q 537 512 520 498 Q 493 476 462 465 Q 443 458 434 465 Q 428 472 439 488 Q 461 528 461 574 Q 467 833 443 851 Q 433 858 418 853 Z"/>
    <path class="bg" d="M 313 634 Q 282 689 241 737 Q 232 747 229 763 Q 223 788 230 805 Q 236 824 259 815 Q 320 779 332 697 Q 342 663 338 637 Q 334 627 328 626 Q 319 626 313 634 Z"/>
    <path class="bg" d="M 575 709 Q 600 746 627 789 Q 636 802 649 806 Q 658 809 665 799 Q 672 787 672 761 Q 673 737 645 711 Q 582 660 564 661 Q 560 664 557 675 Q 558 685 575 709 Z"/>
    <path class="bg" d="M 699 672 Q 745 724 794 784 Q 806 800 822 802 Q 832 803 841 791 Q 848 776 844 744 Q 843 710 799 677 Q 703 613 680 617 Q 674 620 674 634 Q 675 646 699 672 Z"/>
</g>
<g id="anim-layer">
    <path style="--d:1s; stroke:#FF4444;" pathLength="3333" clip-path="url(#z24541c1)" d="M 279 169 L 393 171 L 722 118"/>
    <path style="--d:2s; stroke:#FF4444;" pathLength="3333" clip-path="url(#z24541c2)" d="M 174 361 L 245 376 L 721 311 L 806 324"/>
    <path style="--d:3s; stroke:#FF4444;" pathLength="3333" clip-path="url(#z24541c3)" d="M 432 197 L 466 231 L 365 431 L 265 542 L 95 651"/>
    <path style="--d:4s; stroke:#FF4444;" pathLength="3333" clip-path="url(#z24541c4)" d="M 567 361 L 804 552 L 981 583"/>
    <path style="--d:5s; stroke:#000;" pathLength="3333" clip-path="url(#z24541c5)" d="M 440 471 L 494 528 L 484 857 L 453 918 L 352 849"/>
    <path style="--d:6s; stroke:#000;" pathLength="3333" clip-path="url(#z24541c6)" d="M 325 632 L 237 810"/>
    <path style="--d:7s; stroke:#000;" pathLength="3333" clip-path="url(#z24541c7)" d="M 565 670 L 635 745 L 651 803"/>
    <path style="--d:8s; stroke:#000;" pathLength="3333" clip-path="url(#z24541c8)" d="M 684 622 L 805 737 L 833 796"/>
</g>
</svg>