<svg id="z24551" class="acjk" viewBox="0 0 1024 1024" xmlns="http://www.w3.org/2000/svg">

<style>
<![CDATA[
@keyframes zk { to { stroke-dashoffset:0; } }
svg.acjk path[clip-path] {
    --t:0.8s;
    animation:zk var(--t) linear forwards var(--d);
    stroke-dasharray:3337;
    stroke-dashoffset:3339;
    stroke-width:128;
    stroke-linecap:round;
    fill:none;
}
/* Low opacity for background improves visual overlap at intersections */
svg.acjk .bg { fill:#ccc; opacity: 0.5; } 
]]>
</style>
<defs>
    <clipPath id="z24551c1"><path d="M 131 372 Q 113 436 85 495 Q 67 531 91 564 Q 101 582 121 566 Q 142 547 153 512 Q 168 466 165 429 Q 166 395 155 369 Q 149 362 143 361 Q 134 362 131 372 Z"/></clipPath>
    <clipPath id="z24551c2"><path d="M 296 324 Q 389 390 392 392 Q 393 392 397 392 Q 406 391 409 380 Q 412 367 404 343 Q 392 313 306 297 Q 300 296 297 297 C 288 297 289 319 296 324 Z"/></clipPath>
    <clipPath id="z24551c3"><path d="M 297 297 Q 300 218 318 165 Q 327 149 324 136 Q 317 126 262 91 Q 238 73 217 89 Q 213 93 218 109 Q 251 157 251 258 Q 251 657 222 786 Q 218 799 214 815 Q 202 854 227 917 Q 234 936 242 939 Q 248 946 256 937 Q 263 933 274 912 Q 284 887 284 856 Q 283 804 296 329 Q 296 326 296 324 C 297 306 297 306 297 297 Z"/></clipPath>
    <clipPath id="z24551c4"><path d="M 594 423 Q 634 413 793 388 Q 803 389 813 376 Q 814 363 790 353 Q 754 332 678 357 Q 606 375 599 377 C 564 385 564 385 546 389 Q 477 398 408 410 Q 378 414 401 432 Q 435 454 479 447 Q 506 441 539 434 C 576 427 576 427 594 423 Z"/></clipPath>
    <clipPath id="z24551c5"><path d="M 539 434 Q 503 681 416 790 Q 388 830 332 882 Q 319 889 317 894 Q 313 901 330 900 Q 364 900 445 823 Q 553 711 594 423 C 597 392 597 392 599 377 Q 600 368 601 360 Q 614 231 638 169 Q 644 157 636 149 Q 618 131 582 115 Q 561 103 544 109 Q 523 115 539 134 Q 566 165 564 196 Q 557 301 546 389 C 541 419 541 419 539 434 Z"/></clipPath>
    <clipPath id="z24551c6"><path d="M 979 819 Q 964 789 942 699 Q 941 683 933 678 Q 926 675 923 693 Q 899 790 882 822 Q 858 855 758 852 Q 721 851 692 837 Q 667 824 659 808 Q 629 750 661 542 Q 667 514 618 493 Q 605 489 597 494 Q 590 498 596 516 Q 609 553 606 591 Q 596 777 611 827 Q 615 851 638 871 Q 722 937 892 904 Q 893 903 898 902 Q 937 890 974 863 Q 995 847 979 819 Z"/></clipPath>
    <clipPath id="z24551c7"><path d="M 741 240 Q 769 264 798 293 Q 811 305 826 305 Q 836 304 841 291 Q 845 278 837 249 Q 828 218 737 194 Q 722 190 716 193 Q 712 197 712 209 Q 716 219 741 240 Z"/></clipPath>
</defs>
<g id="bg-layer">
    <path class="bg" d="M 131 372 Q 113 436 85 495 Q 67 531 91 564 Q 101 582 121 566 Q 142 547 153 512 Q 168 466 165 429 Q 166 395 155 369 Q 149 362 143 361 Q 134 362 131 372 Z"/>
    <path class="bg" d="M 296 324 Q 389 390 392 392 Q 393 392 397 392 Q 406 391 409 380 Q 412 367 404 343 Q 392 313 306 297 Q 300 296 297 297 C 288 297 289 319 296 324 Z"/>
    <path class="bg" d="M 297 297 Q 300 218 318 165 Q 327 149 324 136 Q 317 126 262 91 Q 238 73 217 89 Q 213 93 218 109 Q 251 157 251 258 Q 251 657 222 786 Q 218 799 214 815 Q 202 854 227 917 Q 234 936 242 939 Q 248 946 256 937 Q 263 933 274 912 Q 284 887 284 856 Q 283 804 296 329 Q 296 326 296 324 C 297 306 297 306 297 297 Z"/>
    <path class="bg" d="M 594 423 Q 634 413 793 388 Q 803 389 813 376 Q 814 363 790 353 Q 754 332 678 357 Q 606 375 599 377 C 564 385 564 385 546 389 Q 477 398 408 410 Q 378 414 401 432 Q 435 454 479 447 Q 506 441 539 434 C 576 427 576 427 594 423 Z"/>
    <path class="bg" d="M 539 434 Q 503 681 416 790 Q 388 830 332 882 Q 319 889 317 894 Q 313 901 330 900 Q 364 900 445 823 Q 553 711 594 423 C 597 392 597 392 599 377 Q 600 368 601 360 Q 614 231 638 169 Q 644 157 636 149 Q 618 131 582 115 Q 561 103 544 109 Q 523 115 539 134 Q 566 165 564 196 Q 557 301 546 389 C 541 419 541 419 539 434 Z"/>
    <path class="bg" d="M 979 819 Q 964 789 942 699 Q 941 683 933 678 Q 926 675 923 693 Q 899 790 882 822 Q 858 855 758 852 Q 721 851 692 837 Q 667 824 659 808 Q 629 750 661 542 Q 667 514 618 493 Q 605 489 597 494 Q 590 498 596 516 Q 609 553 606 591 Q 596 777 611 827 Q 615 851 638 871 Q 722 937 892 904 Q 893 903 898 902 Q 937 890 974 863 Q 995 847 979 819 Z"/>
    <path class="bg" d="M 741 240 Q 769 264 798 293 Q 811 305 826 305 Q 836 304 841 291 Q 845 278 837 249 Q 828 218 737 194 Q 722 190 716 193 Q 712 197 712 209 Q 716 219 741 240 Z"/>
</g>
<g id="anim-layer">
    <path style="--d:1s; stroke:#FF4444;" pathLength="3333" clip-path="url(#z24551c1)" d="M 145 364 L 96 565"/>
    <path style="--d:2s; stroke:#FF4444;" pathLength="3333" clip-path="url(#z24551c2)" d="M 303 302 L 388 359 L 399 388"/>
    <path style="--d:3s; stroke:#FF4444;" pathLength="3333" clip-path="url(#z24551c3)" d="M 220 90 L 284 158 L 244 937"/>
    <path style="--d:4s; stroke:#000;" pathLength="3333" clip-path="url(#z24551c4)" d="M 400 420 L 804 372"/>
    <path style="--d:5s; stroke:#000;" pathLength="3333" clip-path="url(#z24551c5)" d="M 540 117 L 601 168 L 538 576 L 453 778 L 327 893"/>
    <path style="--d:6s; stroke:#000;" pathLength="3333" clip-path="url(#z24551c6)" d="M 601 498 L 632 539 L 627 787 L 676 862 L 794 883 L 911 853 L 938 825 L 930 686"/>
    <path style="--d:7s; stroke:#000;" pathLength="3333" clip-path="url(#z24551c7)" d="M 720 202 L 796 247 L 826 301"/>
</g>
</svg>