<svg id="z24666" class="acjk" viewBox="0 0 1024 1024" xmlns="http://www.w3.org/2000/svg">

<style>
<![CDATA[
@keyframes zk { to { stroke-dashoffset:0; } }
svg.acjk path[clip-path] {
    --t:0.8s;
    animation:zk var(--t) linear forwards var(--d);
    stroke-dasharray:3337;
    stroke-dashoffset:3339;
    stroke-width:128;
    stroke-linecap:round;
    fill:none;
}
/* Low opacity for background improves visual overlap at intersections */
svg.acjk .bg { fill:#ccc; opacity: 0.5; } 
]]>
</style>
<defs>
    <clipPath id="z24666c1"><path d="M 532 231 Q 673 201 678 199 Q 687 192 683 184 Q 676 172 648 164 Q 627 158 537 183 C 498 193 498 193 478 198 Q 420 208 350 213 Q 314 217 339 234 Q 378 261 436 247 Q 455 243 480 240 C 515 234 515 234 532 231 Z"/></clipPath>
    <clipPath id="z24666c2"><path d="M 521 321 Q 525 275 532 231 C 535 199 535 199 537 183 Q 537 149 552 111 Q 555 101 536 87 Q 503 68 481 64 Q 465 61 458 69 Q 451 76 458 90 Q 474 111 474 126 Q 477 160 478 198 C 479 226 479 226 480 240 Q 480 280 480 327 C 480 341 521 335 521 321 Z"/></clipPath>
    <clipPath id="z24666c3"><path d="M 499 362 Q 587 349 727 347 Q 784 350 792 338 Q 796 328 781 314 Q 723 275 675 290 Q 612 303 521 321 C 494 325 494 325 480 327 Q 371 343 244 362 Q 223 365 239 381 Q 252 394 270 399 Q 291 403 306 399 Q 376 378 458 368 C 485 364 485 364 499 362 Z"/></clipPath>
    <clipPath id="z24666c4"><path d="M 531 482 Q 649 460 658 454 Q 667 447 662 439 Q 656 429 630 420 Q 605 414 535 436 C 494 445 494 445 473 450 Q 422 459 365 463 Q 332 467 355 483 Q 394 507 446 496 Q 458 492 475 491 C 512 485 512 485 531 482 Z"/></clipPath>
    <clipPath id="z24666c5"><path d="M 525 552 Q 528 515 531 482 C 534 451 534 451 535 436 Q 541 400 535 392 Q 516 373 499 362 C 487 355 453 355 458 368 Q 470 392 473 450 C 474 477 474 477 475 491 Q 475 519 477 559 C 477 575 525 568 525 552 Z"/></clipPath>
    <clipPath id="z24666c6"><path d="M 477 559 Q 372 571 252 587 Q 233 588 247 605 Q 260 618 278 624 Q 297 628 314 625 Q 456 586 755 587 Q 774 587 779 578 Q 783 568 768 554 Q 720 517 665 527 Q 608 537 525 552 C 493 557 493 557 477 559 Z"/></clipPath>
    <clipPath id="z24666c7"><path d="M 213 699 Q 192 751 163 798 Q 142 834 163 871 Q 173 890 195 875 Q 243 833 244 760 Q 248 724 239 698 Q 233 688 227 688 Q 217 689 213 699 Z"/></clipPath>
    <clipPath id="z24666c8"><path d="M 306 717 Q 327 826 414 881 Q 519 945 728 926 Q 767 919 799 904 Q 826 892 827 876 Q 831 866 791 839 Q 728 787 683 733 Q 670 715 664 724 Q 661 727 691 820 Q 700 856 664 865 Q 654 865 640 867 Q 472 874 399 812 Q 366 784 351 735 Q 344 710 330 705 Q 317 698 308 702 Q 302 703 306 717 Z"/></clipPath>
    <clipPath id="z24666c9"><path d="M 467 674 Q 518 726 552 742 Q 567 745 575 731 Q 581 719 578 703 Q 563 658 478 637 Q 462 633 453 636 Q 447 637 450 649 Q 451 661 467 674 Z"/></clipPath>
    <clipPath id="z24666c10"><path d="M 727 660 Q 784 694 854 747 Q 873 763 890 765 Q 899 765 905 753 Q 914 737 893 696 Q 869 645 721 629 Q 711 625 712 638 Q 713 651 727 660 Z"/></clipPath>
</defs>
<g id="bg-layer">
    <path class="bg" d="M 532 231 Q 673 201 678 199 Q 687 192 683 184 Q 676 172 648 164 Q 627 158 537 183 C 498 193 498 193 478 198 Q 420 208 350 213 Q 314 217 339 234 Q 378 261 436 247 Q 455 243 480 240 C 515 234 515 234 532 231 Z"/>
    <path class="bg" d="M 521 321 Q 525 275 532 231 C 535 199 535 199 537 183 Q 537 149 552 111 Q 555 101 536 87 Q 503 68 481 64 Q 465 61 458 69 Q 451 76 458 90 Q 474 111 474 126 Q 477 160 478 198 C 479 226 479 226 480 240 Q 480 280 480 327 C 480 341 521 335 521 321 Z"/>
    <path class="bg" d="M 499 362 Q 587 349 727 347 Q 784 350 792 338 Q 796 328 781 314 Q 723 275 675 290 Q 612 303 521 321 C 494 325 494 325 480 327 Q 371 343 244 362 Q 223 365 239 381 Q 252 394 270 399 Q 291 403 306 399 Q 376 378 458 368 C 485 364 485 364 499 362 Z"/>
    <path class="bg" d="M 531 482 Q 649 460 658 454 Q 667 447 662 439 Q 656 429 630 420 Q 605 414 535 436 C 494 445 494 445 473 450 Q 422 459 365 463 Q 332 467 355 483 Q 394 507 446 496 Q 458 492 475 491 C 512 485 512 485 531 482 Z"/>
    <path class="bg" d="M 525 552 Q 528 515 531 482 C 534 451 534 451 535 436 Q 541 400 535 392 Q 516 373 499 362 C 487 355 453 355 458 368 Q 470 392 473 450 C 474 477 474 477 475 491 Q 475 519 477 559 C 477 575 525 568 525 552 Z"/>
    <path class="bg" d="M 477 559 Q 372 571 252 587 Q 233 588 247 605 Q 260 618 278 624 Q 297 628 314 625 Q 456 586 755 587 Q 774 587 779 578 Q 783 568 768 554 Q 720 517 665 527 Q 608 537 525 552 C 493 557 493 557 477 559 Z"/>
    <path class="bg" d="M 213 699 Q 192 751 163 798 Q 142 834 163 871 Q 173 890 195 875 Q 243 833 244 760 Q 248 724 239 698 Q 233 688 227 688 Q 217 689 213 699 Z"/>
    <path class="bg" d="M 306 717 Q 327 826 414 881 Q 519 945 728 926 Q 767 919 799 904 Q 826 892 827 876 Q 831 866 791 839 Q 728 787 683 733 Q 670 715 664 724 Q 661 727 691 820 Q 700 856 664 865 Q 654 865 640 867 Q 472 874 399 812 Q 366 784 351 735 Q 344 710 330 705 Q 317 698 308 702 Q 302 703 306 717 Z"/>
    <path class="bg" d="M 467 674 Q 518 726 552 742 Q 567 745 575 731 Q 581 719 578 703 Q 563 658 478 637 Q 462 633 453 636 Q 447 637 450 649 Q 451 661 467 674 Z"/>
    <path class="bg" d="M 727 660 Q 784 694 854 747 Q 873 763 890 765 Q 899 765 905 753 Q 914 737 893 696 Q 869 645 721 629 Q 711 625 712 638 Q 713 651 727 660 Z"/>
</g>
<g id="anim-layer">
    <path style="--d:1s; stroke:#FF4444;" pathLength="3333" clip-path="url(#z24666c1)" d="M 336 222 L 396 231 L 680 186"/>
    <path style="--d:2s; stroke:#FF4444;" pathLength="3333" clip-path="url(#z24666c2)" d="M 462 73 L 513 115 L 494 324"/>
    <path style="--d:3s; stroke:#FF4444;" pathLength="3333" clip-path="url(#z24666c3)" d="M 243 375 L 669 319 L 788 327"/>
    <path style="--d:4s; stroke:#FF4444;" pathLength="3333" clip-path="url(#z24666c4)" d="M 356 474 L 659 441"/>
    <path style="--d:5s; stroke:#FF4444;" pathLength="3333" clip-path="url(#z24666c5)" d="M 467 370 L 503 402 L 504 554"/>
    <path style="--d:6s; stroke:#FF4444;" pathLength="3333" clip-path="url(#z24666c6)" d="M 248 594 L 676 556 L 775 569"/>
    <path style="--d:7s; stroke:#000;" pathLength="3333" clip-path="url(#z24666c7)" d="M 227 695 L 171 876"/>
    <path style="--d:8s; stroke:#000;" pathLength="3333" clip-path="url(#z24666c8)" d="M 313 707 L 408 848 L 571 897 L 694 893 L 773 865 L 671 727"/>
    <path style="--d:9s; stroke:#000;" pathLength="3333" clip-path="url(#z24666c9)" d="M 455 642 L 573 730"/>
    <path style="--d:10s; stroke:#000;" pathLength="3333" clip-path="url(#z24666c10)" d="M 717 638 L 851 700 L 899 756"/>
</g>
</svg>