<svg id="z24681" class="acjk" viewBox="0 0 1024 1024" xmlns="http://www.w3.org/2000/svg">

<style>
<![CDATA[
@keyframes zk { to { stroke-dashoffset:0; } }
svg.acjk path[clip-path] {
    --t:0.8s;
    animation:zk var(--t) linear forwards var(--d);
    stroke-dasharray:3337;
    stroke-dashoffset:3339;
    stroke-width:128;
    stroke-linecap:round;
    fill:none;
}
/* Low opacity for background improves visual overlap at intersections */
svg.acjk .bg { fill:#ccc; opacity: 0.5; } 
]]>
</style>
<defs>
    <clipPath id="z24681c1"><path d="M 323 129 C 314 123 304 118 294 117 C 288 116 283 118 280 124 C 278 126 280 131 284 139 C 314 199 326 297 310 432 C 303 482 297 512 300 523 C 302 533 313 557 321 565 C 329 573 334 571 341 564 C 346 557 351 550 353 543 C 356 531 356 519 357 508 C 358 479 358 430 356 329 C 353 246 352 193 354 169 C 354 152 336 139 323 129 Z"/></clipPath>
    <clipPath id="z24681c2"><path d="M 648 515 C 652 536 661 556 678 580 C 701 611 719 581 728 565 C 740 541 737 514 736 485 C 733 419 732 324 732 203 C 731 180 736 162 748 147 C 754 138 755 129 748 122 C 734 107 708 93 672 76 C 659 69 648 71 637 77 C 593 95 536 107 470 116 C 402 125 353 129 323 129 C 306 129 337 172 354 169 C 358 169 444 157 610 133 C 634 129 652 132 665 143 C 678 154 679 256 670 449 C 669 462 664 479 656 489 C 651 497 646 506 648 515 Z"/></clipPath>
    <clipPath id="z24681c3"><path d="M 524 289 C 598 271 636 257 640 255 C 644 250 646 245 643 241 C 638 234 628 229 613 227 C 595 223 569 234 531 247 C 500 257 500 257 484 262 C 457 270 428 272 397 278 C 378 281 375 288 390 296 C 410 307 440 309 478 300 C 509 293 509 293 524 289 Z"/></clipPath>
    <clipPath id="z24681c4"><path d="M 511 337 C 513 328 519 313 524 289 C 529 261 529 261 531 247 C 535 220 539 203 542 195 C 544 188 543 183 539 179 C 534 174 523 169 505 166 C 492 163 483 162 479 165 C 472 168 471 174 474 182 C 479 196 490 223 484 262 C 480 287 480 287 478 300 C 470 346 438 401 396 466 C 393 470 393 474 397 475 C 413 476 438 451 472 406 C 484 389 492 375 503 355 C 505 349 509 343 511 337 Z"/></clipPath>
    <clipPath id="z24681c5"><path d="M 503 355 C 534 379 565 406 589 429 C 597 437 605 443 613 445 C 617 446 620 442 624 438 C 629 430 628 417 621 397 C 612 373 577 353 511 337 C 505 336 498 351 503 355 Z"/></clipPath>
    <clipPath id="z24681c6"><path d="M 353 543 C 364 545 433 534 648 515 C 657 515 663 494 656 489 C 633 469 605 466 581 473 C 502 489 421 501 357 508 C 345 510 341 543 353 543 Z"/></clipPath>
    <clipPath id="z24681c7"><path d="M 196 601 C 177 641 154 680 131 718 C 116 741 115 766 127 793 C 133 806 144 810 160 800 C 177 788 190 770 201 747 C 214 718 221 691 224 667 C 226 642 227 620 222 602 C 219 595 215 591 210 591 C 203 591 198 595 196 601 Z"/></clipPath>
    <clipPath id="z24681c8"><path d="M 309 653 C 322 732 356 794 416 835 C 471 873 541 899 666 901 C 724 900 842 901 863 851 C 865 844 853 832 829 811 C 789 775 756 737 730 699 C 721 686 715 681 712 687 C 708 691 708 699 711 711 C 716 733 720 757 726 783 C 729 799 729 811 725 818 C 717 827 699 832 668 833 C 543 833 456 809 404 760 C 381 739 365 710 355 673 C 350 656 343 645 335 641 C 324 635 317 634 312 637 C 307 638 307 642 309 653 Z"/></clipPath>
    <clipPath id="z24681c9"><path d="M 472 634 C 506 670 532 697 557 706 C 567 709 577 705 583 695 C 587 686 588 675 586 664 C 578 631 543 608 485 593 C 472 589 463 588 457 591 C 452 592 451 596 453 606 C 454 614 461 622 472 634 Z"/></clipPath>
    <clipPath id="z24681c10"><path d="M 785 561 C 821 586 862 615 906 653 C 919 664 930 672 942 673 C 947 673 952 668 957 661 C 963 650 959 632 948 604 C 934 572 879 548 782 530 C 774 528 771 530 772 539 C 772 547 776 555 785 561 Z"/></clipPath>
</defs>
<g id="bg-layer">
    <path class="bg" d="M 323 129 C 314 123 304 118 294 117 C 288 116 283 118 280 124 C 278 126 280 131 284 139 C 314 199 326 297 310 432 C 303 482 297 512 300 523 C 302 533 313 557 321 565 C 329 573 334 571 341 564 C 346 557 351 550 353 543 C 356 531 356 519 357 508 C 358 479 358 430 356 329 C 353 246 352 193 354 169 C 354 152 336 139 323 129 Z"/>
    <path class="bg" d="M 648 515 C 652 536 661 556 678 580 C 701 611 719 581 728 565 C 740 541 737 514 736 485 C 733 419 732 324 732 203 C 731 180 736 162 748 147 C 754 138 755 129 748 122 C 734 107 708 93 672 76 C 659 69 648 71 637 77 C 593 95 536 107 470 116 C 402 125 353 129 323 129 C 306 129 337 172 354 169 C 358 169 444 157 610 133 C 634 129 652 132 665 143 C 678 154 679 256 670 449 C 669 462 664 479 656 489 C 651 497 646 506 648 515 Z"/>
    <path class="bg" d="M 524 289 C 598 271 636 257 640 255 C 644 250 646 245 643 241 C 638 234 628 229 613 227 C 595 223 569 234 531 247 C 500 257 500 257 484 262 C 457 270 428 272 397 278 C 378 281 375 288 390 296 C 410 307 440 309 478 300 C 509 293 509 293 524 289 Z"/>
    <path class="bg" d="M 511 337 C 513 328 519 313 524 289 C 529 261 529 261 531 247 C 535 220 539 203 542 195 C 544 188 543 183 539 179 C 534 174 523 169 505 166 C 492 163 483 162 479 165 C 472 168 471 174 474 182 C 479 196 490 223 484 262 C 480 287 480 287 478 300 C 470 346 438 401 396 466 C 393 470 393 474 397 475 C 413 476 438 451 472 406 C 484 389 492 375 503 355 C 505 349 509 343 511 337 Z"/>
    <path class="bg" d="M 503 355 C 534 379 565 406 589 429 C 597 437 605 443 613 445 C 617 446 620 442 624 438 C 629 430 628 417 621 397 C 612 373 577 353 511 337 C 505 336 498 351 503 355 Z"/>
    <path class="bg" d="M 353 543 C 364 545 433 534 648 515 C 657 515 663 494 656 489 C 633 469 605 466 581 473 C 502 489 421 501 357 508 C 345 510 341 543 353 543 Z"/>
    <path class="bg" d="M 196 601 C 177 641 154 680 131 718 C 116 741 115 766 127 793 C 133 806 144 810 160 800 C 177 788 190 770 201 747 C 214 718 221 691 224 667 C 226 642 227 620 222 602 C 219 595 215 591 210 591 C 203 591 198 595 196 601 Z"/>
    <path class="bg" d="M 309 653 C 322 732 356 794 416 835 C 471 873 541 899 666 901 C 724 900 842 901 863 851 C 865 844 853 832 829 811 C 789 775 756 737 730 699 C 721 686 715 681 712 687 C 708 691 708 699 711 711 C 716 733 720 757 726 783 C 729 799 729 811 725 818 C 717 827 699 832 668 833 C 543 833 456 809 404 760 C 381 739 365 710 355 673 C 350 656 343 645 335 641 C 324 635 317 634 312 637 C 307 638 307 642 309 653 Z"/>
    <path class="bg" d="M 472 634 C 506 670 532 697 557 706 C 567 709 577 705 583 695 C 587 686 588 675 586 664 C 578 631 543 608 485 593 C 472 589 463 588 457 591 C 452 592 451 596 453 606 C 454 614 461 622 472 634 Z"/>
    <path class="bg" d="M 785 561 C 821 586 862 615 906 653 C 919 664 930 672 942 673 C 947 673 952 668 957 661 C 963 650 959 632 948 604 C 934 572 879 548 782 530 C 774 528 771 530 772 539 C 772 547 776 555 785 561 Z"/>
</g>
<g id="anim-layer">
    <path style="--d:1s; stroke:#FF4444;" pathLength="3333" clip-path="url(#z24681c1)" d="M 286 123 L 321 159 L 331 212 L 331 565"/>
    <path style="--d:2s; stroke:#FF4444;" pathLength="3333" clip-path="url(#z24681c2)" d="M 327 139 L 650 102 L 710 141 L 693 588"/>
    <path style="--d:3s; stroke:#FF4444;" pathLength="3333" clip-path="url(#z24681c3)" d="M 388 285 L 638 244"/>
    <path style="--d:4s; stroke:#FF4444;" pathLength="3333" clip-path="url(#z24681c4)" d="M 480 172 L 512 200 L 497 310 L 400 469"/>
    <path style="--d:5s; stroke:#FF4444;" pathLength="3333" clip-path="url(#z24681c5)" d="M 507 344 L 621 437"/>
    <path style="--d:6s; stroke:#FF4444;" pathLength="3333" clip-path="url(#z24681c6)" d="M 350 533 L 655 502"/>
    <path style="--d:7s; stroke:#000;" pathLength="3333" clip-path="url(#z24681c7)" d="M 211 598 L 142 800"/>
    <path style="--d:8s; stroke:#000;" pathLength="3333" clip-path="url(#z24681c8)" d="M 316 643 L 399 789 L 569 860 L 693 866 L 804 844 L 717 692"/>
    <path style="--d:9s; stroke:#000;" pathLength="3333" clip-path="url(#z24681c9)" d="M 458 596 L 580 692"/>
    <path style="--d:10s; stroke:#000;" pathLength="3333" clip-path="url(#z24681c10)" d="M 779 540 L 908 608 L 947 667"/>
</g>
</svg>