<svg id="z24754" class="acjk" viewBox="0 0 1024 1024" xmlns="http://www.w3.org/2000/svg">

<style>
<![CDATA[
@keyframes zk { to { stroke-dashoffset:0; } }
svg.acjk path[clip-path] {
    --t:0.8s;
    animation:zk var(--t) linear forwards var(--d);
    stroke-dasharray:3337;
    stroke-dashoffset:3339;
    stroke-width:128;
    stroke-linecap:round;
    fill:none;
}
/* Low opacity for background improves visual overlap at intersections */
svg.acjk .bg { fill:#ccc; opacity: 0.5; } 
]]>
</style>
<defs>
    <clipPath id="z24754c1"><path d="M 418 460 Q 415 518 427 553 Q 433 565 442 558 Q 463 537 460 462 Q 472 186 475 171 Q 482 152 470 140 Q 454 127 426 114 Q 404 107 382 115 Q 370 124 385 139 Q 397 157 411 222 C 414 245 414 245 415 256 Q 418 295 419 342 C 419 360 419 360 419 369 Q 422 381 419 435 C 418 452 418 452 418 460 Z"/></clipPath>
    <clipPath id="z24754c2"><path d="M 411 222 Q 387 204 297 232 Q 291 232 286 234 Q 256 238 222 240 Q 186 246 211 262 Q 247 287 305 274 Q 407 258 415 256 C 426 254 420 229 411 222 Z"/></clipPath>
    <clipPath id="z24754c3"><path d="M 419 342 Q 391 324 305 351 Q 277 357 236 362 Q 202 368 227 383 Q 264 404 316 391 Q 403 373 419 369 C 428 367 427 346 419 342 Z"/></clipPath>
    <clipPath id="z24754c4"><path d="M 419 435 Q 200 492 171 492 Q 158 493 156 503 Q 155 515 163 523 Q 185 539 215 557 Q 225 560 236 552 Q 257 537 396 471 Q 406 467 418 460 C 425 456 427 433 419 435 Z"/></clipPath>
    <clipPath id="z24754c5"><path d="M 622 424 Q 623 387 624 338 C 625 319 625 319 625 310 Q 625 265 627 218 C 628 197 628 197 628 187 Q 631 156 638 132 Q 645 119 643 107 Q 637 100 590 71 Q 571 56 553 70 Q 549 74 554 87 Q 570 109 576 186 Q 576 426 565 475 Q 564 476 564 480 Q 555 510 576 565 Q 582 581 589 583 Q 593 589 600 582 Q 607 578 615 560 Q 621 544 622 457 C 622 435 622 435 622 424 Z"/></clipPath>
    <clipPath id="z24754c6"><path d="M 627 218 Q 633 219 644 218 Q 732 205 796 197 Q 824 193 813 177 Q 800 161 771 155 Q 740 149 628 187 C 618 191 617 218 627 218 Z"/></clipPath>
    <clipPath id="z24754c7"><path d="M 624 338 Q 627 338 800 319 Q 827 315 817 301 Q 805 285 777 279 Q 749 273 625 310 C 616 313 615 338 624 338 Z"/></clipPath>
    <clipPath id="z24754c8"><path d="M 622 457 Q 646 458 742 451 Q 788 448 834 446 Q 847 445 849 438 Q 850 426 828 409 Q 791 382 739 402 Q 706 411 680 415 Q 650 418 622 424 C 611 426 611 457 622 457 Z"/></clipPath>
    <clipPath id="z24754c9"><path d="M 207 660 Q 186 730 154 795 Q 136 831 159 864 Q 169 882 189 866 Q 241 817 239 717 Q 240 683 231 657 Q 225 650 219 649 Q 210 650 207 660 Z"/></clipPath>
    <clipPath id="z24754c10"><path d="M 318 669 Q 339 786 430 848 Q 554 929 783 902 Q 816 895 845 883 Q 873 871 875 853 Q 879 841 836 817 Q 769 768 719 716 Q 704 700 700 708 Q 697 715 703 730 Q 742 814 733 829 Q 726 841 688 841 Q 496 848 416 775 Q 379 744 362 687 Q 355 662 342 657 Q 329 650 320 654 Q 314 655 318 669 Z"/></clipPath>
    <clipPath id="z24754c11"><path d="M 494 650 Q 519 675 546 705 Q 558 718 573 719 Q 583 720 589 707 Q 595 694 588 664 Q 581 631 493 604 Q 478 600 472 601 Q 468 605 467 617 Q 470 627 494 650 Z"/></clipPath>
    <clipPath id="z24754c12"><path d="M 776 626 Q 825 656 880 692 Q 896 705 913 701 Q 925 700 929 684 Q 932 668 917 636 Q 899 594 763 574 Q 747 573 740 577 Q 734 581 738 595 Q 744 607 776 626 Z"/></clipPath>
</defs>
<g id="bg-layer">
    <path class="bg" d="M 418 460 Q 415 518 427 553 Q 433 565 442 558 Q 463 537 460 462 Q 472 186 475 171 Q 482 152 470 140 Q 454 127 426 114 Q 404 107 382 115 Q 370 124 385 139 Q 397 157 411 222 C 414 245 414 245 415 256 Q 418 295 419 342 C 419 360 419 360 419 369 Q 422 381 419 435 C 418 452 418 452 418 460 Z"/>
    <path class="bg" d="M 411 222 Q 387 204 297 232 Q 291 232 286 234 Q 256 238 222 240 Q 186 246 211 262 Q 247 287 305 274 Q 407 258 415 256 C 426 254 420 229 411 222 Z"/>
    <path class="bg" d="M 419 342 Q 391 324 305 351 Q 277 357 236 362 Q 202 368 227 383 Q 264 404 316 391 Q 403 373 419 369 C 428 367 427 346 419 342 Z"/>
    <path class="bg" d="M 419 435 Q 200 492 171 492 Q 158 493 156 503 Q 155 515 163 523 Q 185 539 215 557 Q 225 560 236 552 Q 257 537 396 471 Q 406 467 418 460 C 425 456 427 433 419 435 Z"/>
    <path class="bg" d="M 622 424 Q 623 387 624 338 C 625 319 625 319 625 310 Q 625 265 627 218 C 628 197 628 197 628 187 Q 631 156 638 132 Q 645 119 643 107 Q 637 100 590 71 Q 571 56 553 70 Q 549 74 554 87 Q 570 109 576 186 Q 576 426 565 475 Q 564 476 564 480 Q 555 510 576 565 Q 582 581 589 583 Q 593 589 600 582 Q 607 578 615 560 Q 621 544 622 457 C 622 435 622 435 622 424 Z"/>
    <path class="bg" d="M 627 218 Q 633 219 644 218 Q 732 205 796 197 Q 824 193 813 177 Q 800 161 771 155 Q 740 149 628 187 C 618 191 617 218 627 218 Z"/>
    <path class="bg" d="M 624 338 Q 627 338 800 319 Q 827 315 817 301 Q 805 285 777 279 Q 749 273 625 310 C 616 313 615 338 624 338 Z"/>
    <path class="bg" d="M 622 457 Q 646 458 742 451 Q 788 448 834 446 Q 847 445 849 438 Q 850 426 828 409 Q 791 382 739 402 Q 706 411 680 415 Q 650 418 622 424 C 611 426 611 457 622 457 Z"/>
    <path class="bg" d="M 207 660 Q 186 730 154 795 Q 136 831 159 864 Q 169 882 189 866 Q 241 817 239 717 Q 240 683 231 657 Q 225 650 219 649 Q 210 650 207 660 Z"/>
    <path class="bg" d="M 318 669 Q 339 786 430 848 Q 554 929 783 902 Q 816 895 845 883 Q 873 871 875 853 Q 879 841 836 817 Q 769 768 719 716 Q 704 700 700 708 Q 697 715 703 730 Q 742 814 733 829 Q 726 841 688 841 Q 496 848 416 775 Q 379 744 362 687 Q 355 662 342 657 Q 329 650 320 654 Q 314 655 318 669 Z"/>
    <path class="bg" d="M 494 650 Q 519 675 546 705 Q 558 718 573 719 Q 583 720 589 707 Q 595 694 588 664 Q 581 631 493 604 Q 478 600 472 601 Q 468 605 467 617 Q 470 627 494 650 Z"/>
    <path class="bg" d="M 776 626 Q 825 656 880 692 Q 896 705 913 701 Q 925 700 929 684 Q 932 668 917 636 Q 899 594 763 574 Q 747 573 740 577 Q 734 581 738 595 Q 744 607 776 626 Z"/>
</g>
<g id="anim-layer">
    <path style="--d:1s; stroke:#FF4444;" pathLength="3333" clip-path="url(#z24754c1)" d="M 383 121 L 439 171 L 434 555"/>
    <path style="--d:2s; stroke:#FF4444;" pathLength="3333" clip-path="url(#z24754c2)" d="M 212 251 L 410 232"/>
    <path style="--d:3s; stroke:#FF4444;" pathLength="3333" clip-path="url(#z24754c3)" d="M 228 372 L 418 355"/>
    <path style="--d:4s; stroke:#FF4444;" pathLength="3333" clip-path="url(#z24754c4)" d="M 163 505 L 221 521 L 415 446"/>
    <path style="--d:5s; stroke:#FF4444;" pathLength="3333" clip-path="url(#z24754c5)" d="M 557 74 L 606 124 L 597 579"/>
    <path style="--d:6s; stroke:#FF4444;" pathLength="3333" clip-path="url(#z24754c6)" d="M 637 210 L 744 179 L 809 184"/>
    <path style="--d:7s; stroke:#FF4444;" pathLength="3333" clip-path="url(#z24754c7)" d="M 630 330 L 812 304"/>
    <path style="--d:8s; stroke:#FF4444;" pathLength="3333" clip-path="url(#z24754c8)" d="M 631 449 L 770 421 L 844 433"/>
    <path style="--d:9s; stroke:#000;" pathLength="3333" clip-path="url(#z24754c9)" d="M 221 652 L 202 772 L 161 863"/>
    <path style="--d:10s; stroke:#000;" pathLength="3333" clip-path="url(#z24754c10)" d="M 325 658 L 423 812 L 579 870 L 735 871 L 814 849 L 704 714"/>
    <path style="--d:11s; stroke:#000;" pathLength="3333" clip-path="url(#z24754c11)" d="M 476 605 L 585 707"/>
    <path style="--d:12s; stroke:#000;" pathLength="3333" clip-path="url(#z24754c12)" d="M 743 583 L 875 644 L 920 692"/>
</g>
</svg>