<svg id="z24763" class="acjk" viewBox="0 0 1024 1024" xmlns="http://www.w3.org/2000/svg">

<style>
<![CDATA[
@keyframes zk { to { stroke-dashoffset:0; } }
svg.acjk path[clip-path] {
    --t:0.8s;
    animation:zk var(--t) linear forwards var(--d);
    stroke-dasharray:3337;
    stroke-dashoffset:3339;
    stroke-width:128;
    stroke-linecap:round;
    fill:none;
}
/* Low opacity for background improves visual overlap at intersections */
svg.acjk .bg { fill:#ccc; opacity: 0.5; } 
]]>
</style>
<defs>
    <clipPath id="z24763c1"><path d="M 113 361 Q 100 430 74 494 Q 61 528 83 558 Q 93 573 111 558 Q 129 539 137 506 Q 152 454 147 411 Q 147 380 136 357 Q 129 350 124 350 Q 117 353 113 361 Z"/></clipPath>
    <clipPath id="z24763c2"><path d="M 281 303 Q 293 310 338 353 Q 350 365 364 364 Q 373 363 377 352 Q 381 339 373 313 Q 364 286 287 270 Q 284 269 282 270 C 271 270 272 296 281 303 Z"/></clipPath>
    <clipPath id="z24763c3"><path d="M 282 270 Q 286 201 302 153 Q 311 137 308 124 Q 301 114 246 79 Q 222 61 201 77 Q 195 81 202 97 Q 232 145 234 231 Q 234 643 203 760 Q 200 769 198 779 Q 185 821 212 881 Q 218 900 226 903 Q 232 910 240 901 Q 247 897 258 876 Q 268 851 268 819 Q 274 561 281 303 C 282 281 282 281 282 270 Z"/></clipPath>
    <clipPath id="z24763c4"><path d="M 626 263 Q 755 224 757 223 Q 764 216 760 207 Q 753 197 723 191 Q 695 187 629 216 C 594 227 594 227 577 232 Q 531 242 483 251 Q 449 260 474 274 Q 520 295 569 278 Q 572 277 577 277 C 594 277 609 266 626 263 Z"/></clipPath>
    <clipPath id="z24763c5"><path d="M 619 352 Q 622 306 626 263 C 628 232 628 232 629 216 Q 632 150 642 114 Q 651 80 640 69 Q 636 66 633 63 Q 599 44 576 41 Q 560 37 552 45 Q 545 52 553 67 Q 572 94 572 113 Q 576 170 577 232 C 577 262 577 262 577 277 Q 577 317 576 360 C 576 375 619 367 619 352 Z"/></clipPath>
    <clipPath id="z24763c6"><path d="M 686 380 Q 756 367 853 366 Q 913 363 917 354 Q 921 342 905 330 Q 854 294 817 306 Q 744 325 619 352 C 590 357 590 357 576 360 Q 480 378 371 398 Q 352 401 367 417 Q 380 429 398 434 Q 419 438 434 432 Q 554 393 664 383 C 679 381 679 381 686 380 Z"/></clipPath>
    <clipPath id="z24763c7"><path d="M 485 482 Q 507 533 528 545 Q 538 551 548 543 Q 555 534 557 521 Q 554 488 502 456 Q 490 449 482 450 Q 478 450 477 460 Q 476 469 485 482 Z"/></clipPath>
    <clipPath id="z24763c8"><path d="M 661 533 Q 671 518 701 463 Q 708 450 721 431 Q 733 421 726 412 Q 711 388 686 380 C 679 378 667 376 664 383 Q 660 386 664 394 Q 673 418 639 520 Q 633 532 632 542 C 630 552 655 541 661 533 Z"/></clipPath>
    <clipPath id="z24763c9"><path d="M 594 591 Q 651 576 732 567 Q 742 568 750 556 Q 751 546 730 537 Q 708 521 676 528 Q 667 529 661 533 C 642 539 642 539 632 542 Q 611 546 592 552 Q 567 558 427 582 Q 402 586 422 601 Q 452 622 475 617 Q 508 610 549 600 C 579 594 579 594 594 591 Z"/></clipPath>
    <clipPath id="z24763c10"><path d="M 625 712 Q 701 702 810 697 Q 867 697 873 686 Q 877 674 861 662 Q 804 623 757 641 Q 703 654 627 671 C 588 679 588 679 568 683 Q 465 701 347 722 Q 328 725 343 741 Q 356 754 374 758 Q 395 762 410 757 Q 485 733 569 720 C 606 715 606 715 625 712 Z"/></clipPath>
    <clipPath id="z24763c11"><path d="M 576 946 Q 580 968 587 977 Q 591 984 599 982 Q 623 964 623 840 Q 622 810 625 712 C 626 685 626 685 627 671 Q 628 658 633 633 Q 636 617 623 608 Q 605 596 594 591 C 581 583 546 585 549 600 Q 549 606 559 616 Q 562 623 568 683 C 569 708 569 708 569 720 Q 573 939 576 946 Z"/></clipPath>
</defs>
<g id="bg-layer">
    <path class="bg" d="M 113 361 Q 100 430 74 494 Q 61 528 83 558 Q 93 573 111 558 Q 129 539 137 506 Q 152 454 147 411 Q 147 380 136 357 Q 129 350 124 350 Q 117 353 113 361 Z"/>
    <path class="bg" d="M 281 303 Q 293 310 338 353 Q 350 365 364 364 Q 373 363 377 352 Q 381 339 373 313 Q 364 286 287 270 Q 284 269 282 270 C 271 270 272 296 281 303 Z"/>
    <path class="bg" d="M 282 270 Q 286 201 302 153 Q 311 137 308 124 Q 301 114 246 79 Q 222 61 201 77 Q 195 81 202 97 Q 232 145 234 231 Q 234 643 203 760 Q 200 769 198 779 Q 185 821 212 881 Q 218 900 226 903 Q 232 910 240 901 Q 247 897 258 876 Q 268 851 268 819 Q 274 561 281 303 C 282 281 282 281 282 270 Z"/>
    <path class="bg" d="M 626 263 Q 755 224 757 223 Q 764 216 760 207 Q 753 197 723 191 Q 695 187 629 216 C 594 227 594 227 577 232 Q 531 242 483 251 Q 449 260 474 274 Q 520 295 569 278 Q 572 277 577 277 C 594 277 609 266 626 263 Z"/>
    <path class="bg" d="M 619 352 Q 622 306 626 263 C 628 232 628 232 629 216 Q 632 150 642 114 Q 651 80 640 69 Q 636 66 633 63 Q 599 44 576 41 Q 560 37 552 45 Q 545 52 553 67 Q 572 94 572 113 Q 576 170 577 232 C 577 262 577 262 577 277 Q 577 317 576 360 C 576 375 619 367 619 352 Z"/>
    <path class="bg" d="M 686 380 Q 756 367 853 366 Q 913 363 917 354 Q 921 342 905 330 Q 854 294 817 306 Q 744 325 619 352 C 590 357 590 357 576 360 Q 480 378 371 398 Q 352 401 367 417 Q 380 429 398 434 Q 419 438 434 432 Q 554 393 664 383 C 679 381 679 381 686 380 Z"/>
    <path class="bg" d="M 485 482 Q 507 533 528 545 Q 538 551 548 543 Q 555 534 557 521 Q 554 488 502 456 Q 490 449 482 450 Q 478 450 477 460 Q 476 469 485 482 Z"/>
    <path class="bg" d="M 661 533 Q 671 518 701 463 Q 708 450 721 431 Q 733 421 726 412 Q 711 388 686 380 C 679 378 667 376 664 383 Q 660 386 664 394 Q 673 418 639 520 Q 633 532 632 542 C 630 552 655 541 661 533 Z"/>
    <path class="bg" d="M 594 591 Q 651 576 732 567 Q 742 568 750 556 Q 751 546 730 537 Q 708 521 676 528 Q 667 529 661 533 C 642 539 642 539 632 542 Q 611 546 592 552 Q 567 558 427 582 Q 402 586 422 601 Q 452 622 475 617 Q 508 610 549 600 C 579 594 579 594 594 591 Z"/>
    <path class="bg" d="M 625 712 Q 701 702 810 697 Q 867 697 873 686 Q 877 674 861 662 Q 804 623 757 641 Q 703 654 627 671 C 588 679 588 679 568 683 Q 465 701 347 722 Q 328 725 343 741 Q 356 754 374 758 Q 395 762 410 757 Q 485 733 569 720 C 606 715 606 715 625 712 Z"/>
    <path class="bg" d="M 576 946 Q 580 968 587 977 Q 591 984 599 982 Q 623 964 623 840 Q 622 810 625 712 C 626 685 626 685 627 671 Q 628 658 633 633 Q 636 617 623 608 Q 605 596 594 591 C 581 583 546 585 549 600 Q 549 606 559 616 Q 562 623 568 683 C 569 708 569 708 569 720 Q 573 939 576 946 Z"/>
</g>
<g id="anim-layer">
    <path style="--d:1s; stroke:#FF4444;" pathLength="3333" clip-path="url(#z24763c1)" d="M 125 358 L 86 558"/>
    <path style="--d:2s; stroke:#FF4444;" pathLength="3333" clip-path="url(#z24763c2)" d="M 288 279 L 370 355"/>
    <path style="--d:3s; stroke:#FF4444;" pathLength="3333" clip-path="url(#z24763c3)" d="M 205 84 L 267 154 L 235 901"/>
    <path style="--d:4s; stroke:#000;" pathLength="3333" clip-path="url(#z24763c4)" d="M 472 263 L 756 208"/>
    <path style="--d:5s; stroke:#000;" pathLength="3333" clip-path="url(#z24763c5)" d="M 555 48 L 608 93 L 588 357"/>
    <path style="--d:6s; stroke:#000;" pathLength="3333" clip-path="url(#z24763c6)" d="M 370 410 L 835 334 L 913 349"/>
    <path style="--d:7s; stroke:#000;" pathLength="3333" clip-path="url(#z24763c7)" d="M 483 458 L 548 538"/>
    <path style="--d:8s; stroke:#000;" pathLength="3333" clip-path="url(#z24763c8)" d="M 670 389 L 695 429 L 637 534"/>
    <path style="--d:9s; stroke:#000;" pathLength="3333" clip-path="url(#z24763c9)" d="M 420 590 L 740 554"/>
    <path style="--d:10s; stroke:#000;" pathLength="3333" clip-path="url(#z24763c10)" d="M 342 729 L 393 737 L 778 667 L 869 681"/>
    <path style="--d:11s; stroke:#000;" pathLength="3333" clip-path="url(#z24763c11)" d="M 558 603 L 598 634 L 593 974"/>
</g>
</svg>