<svg id="z24797" class="acjk" viewBox="0 0 1024 1024" xmlns="http://www.w3.org/2000/svg">

<style>
<![CDATA[
@keyframes zk { to { stroke-dashoffset:0; } }
svg.acjk path[clip-path] {
    --t:0.8s;
    animation:zk var(--t) linear forwards var(--d);
    stroke-dasharray:3337;
    stroke-dashoffset:3339;
    stroke-width:128;
    stroke-linecap:round;
    fill:none;
}
/* Low opacity for background improves visual overlap at intersections */
svg.acjk .bg { fill:#ccc; opacity: 0.5; } 
]]>
</style>
<defs>
    <clipPath id="z24797c1"><path d="M 149 360 Q 133 423 106 482 Q 88 512 112 545 Q 121 561 140 547 Q 183 499 181 411 Q 181 380 171 357 Q 165 350 160 349 Q 153 352 149 360 Z"/></clipPath>
    <clipPath id="z24797c2"><path d="M 299 332 Q 353 395 374 395 Q 387 396 392 379 Q 393 367 384 349 Q 375 333 353 326 Q 319 310 303 308 Q 299 307 300 309 C 293 311 294 326 299 332 Z"/></clipPath>
    <clipPath id="z24797c3"><path d="M 300 309 Q 301 225 319 168 Q 328 153 325 139 Q 318 129 262 95 Q 238 79 217 94 Q 213 98 218 114 Q 249 162 251 226 Q 251 641 237 724 Q 231 751 224 779 Q 212 821 239 882 Q 246 900 254 903 Q 260 910 268 901 Q 275 897 286 876 Q 296 851 295 819 Q 294 770 299 332 C 300 317 300 317 300 309 Z"/></clipPath>
    <clipPath id="z24797c4"><path d="M 618 428 Q 642 200 654 159 Q 658 147 638 132 Q 602 113 578 108 Q 562 104 554 113 Q 547 120 554 136 Q 573 161 573 180 Q 580 298 575 436 C 575 451 615 442 618 428 Z"/></clipPath>
    <clipPath id="z24797c5"><path d="M 427 311 Q 451 339 474 373 Q 484 386 498 388 Q 507 389 513 379 Q 520 367 517 340 Q 516 321 489 301 Q 425 262 412 265 Q 408 268 407 279 Q 408 289 427 311 Z"/></clipPath>
    <clipPath id="z24797c6"><path d="M 742 241 Q 720 280 671 338 Q 665 345 671 353 Q 678 354 687 350 Q 775 286 818 262 Q 837 256 832 245 Q 826 229 806 210 Q 787 192 763 190 Q 747 191 749 211 Q 752 224 742 241 Z"/></clipPath>
    <clipPath id="z24797c7"><path d="M 413 471 Q 398 456 375 448 Q 369 445 364 451 Q 360 458 363 471 Q 399 547 367 734 Q 361 756 369 777 Q 379 798 396 811 Q 409 821 412 810 Q 419 806 423 785 Q 429 764 428 692 Q 428 533 436 509 C 438 494 425 480 413 471 Z"/></clipPath>
    <clipPath id="z24797c8"><path d="M 436 509 Q 443 508 453 504 Q 576 456 778 438 Q 796 438 805 447 Q 812 454 809 469 Q 812 730 795 767 Q 792 776 781 773 Q 751 769 718 761 Q 693 760 711 775 Q 778 824 807 859 Q 823 875 838 861 Q 857 839 865 805 Q 875 769 864 575 Q 858 503 878 466 Q 891 447 885 439 Q 878 426 828 398 Q 809 385 795 391 Q 768 403 718 413 Q 661 420 618 428 C 589 433 589 433 575 436 Q 530 442 413 471 C 398 474 421 512 436 509 Z"/></clipPath>
    <clipPath id="z24797c9"><path d="M 528 557 Q 518 553 496 547 Q 486 544 482 548 Q 478 552 483 567 Q 504 615 513 691 Q 514 713 527 730 Q 540 749 546 736 Q 550 726 550 708 C 549 689 549 689 548 680 Q 541 604 540 582 C 540 573 537 560 528 557 Z"/></clipPath>
    <clipPath id="z24797c10"><path d="M 682 657 Q 698 597 716 580 Q 737 558 716 545 Q 700 535 675 519 Q 659 509 642 519 Q 609 540 528 557 C 519 559 531 584 540 582 Q 547 581 555 579 Q 591 570 622 564 Q 643 560 648 568 Q 654 572 648 599 Q 642 627 635 660 C 632 675 679 672 682 657 Z"/></clipPath>
    <clipPath id="z24797c11"><path d="M 550 708 Q 559 708 569 707 Q 611 697 702 690 Q 711 689 712 682 Q 712 675 686 658 Q 685 657 682 657 C 667 651 650 657 635 660 Q 586 670 548 680 C 539 682 541 708 550 708 Z"/></clipPath>
</defs>
<g id="bg-layer">
    <path class="bg" d="M 149 360 Q 133 423 106 482 Q 88 512 112 545 Q 121 561 140 547 Q 183 499 181 411 Q 181 380 171 357 Q 165 350 160 349 Q 153 352 149 360 Z"/>
    <path class="bg" d="M 299 332 Q 353 395 374 395 Q 387 396 392 379 Q 393 367 384 349 Q 375 333 353 326 Q 319 310 303 308 Q 299 307 300 309 C 293 311 294 326 299 332 Z"/>
    <path class="bg" d="M 300 309 Q 301 225 319 168 Q 328 153 325 139 Q 318 129 262 95 Q 238 79 217 94 Q 213 98 218 114 Q 249 162 251 226 Q 251 641 237 724 Q 231 751 224 779 Q 212 821 239 882 Q 246 900 254 903 Q 260 910 268 901 Q 275 897 286 876 Q 296 851 295 819 Q 294 770 299 332 C 300 317 300 317 300 309 Z"/>
    <path class="bg" d="M 618 428 Q 642 200 654 159 Q 658 147 638 132 Q 602 113 578 108 Q 562 104 554 113 Q 547 120 554 136 Q 573 161 573 180 Q 580 298 575 436 C 575 451 615 442 618 428 Z"/>
    <path class="bg" d="M 427 311 Q 451 339 474 373 Q 484 386 498 388 Q 507 389 513 379 Q 520 367 517 340 Q 516 321 489 301 Q 425 262 412 265 Q 408 268 407 279 Q 408 289 427 311 Z"/>
    <path class="bg" d="M 742 241 Q 720 280 671 338 Q 665 345 671 353 Q 678 354 687 350 Q 775 286 818 262 Q 837 256 832 245 Q 826 229 806 210 Q 787 192 763 190 Q 747 191 749 211 Q 752 224 742 241 Z"/>
    <path class="bg" d="M 413 471 Q 398 456 375 448 Q 369 445 364 451 Q 360 458 363 471 Q 399 547 367 734 Q 361 756 369 777 Q 379 798 396 811 Q 409 821 412 810 Q 419 806 423 785 Q 429 764 428 692 Q 428 533 436 509 C 438 494 425 480 413 471 Z"/>
    <path class="bg" d="M 436 509 Q 443 508 453 504 Q 576 456 778 438 Q 796 438 805 447 Q 812 454 809 469 Q 812 730 795 767 Q 792 776 781 773 Q 751 769 718 761 Q 693 760 711 775 Q 778 824 807 859 Q 823 875 838 861 Q 857 839 865 805 Q 875 769 864 575 Q 858 503 878 466 Q 891 447 885 439 Q 878 426 828 398 Q 809 385 795 391 Q 768 403 718 413 Q 661 420 618 428 C 589 433 589 433 575 436 Q 530 442 413 471 C 398 474 421 512 436 509 Z"/>
    <path class="bg" d="M 528 557 Q 518 553 496 547 Q 486 544 482 548 Q 478 552 483 567 Q 504 615 513 691 Q 514 713 527 730 Q 540 749 546 736 Q 550 726 550 708 C 549 689 549 689 548 680 Q 541 604 540 582 C 540 573 537 560 528 557 Z"/>
    <path class="bg" d="M 682 657 Q 698 597 716 580 Q 737 558 716 545 Q 700 535 675 519 Q 659 509 642 519 Q 609 540 528 557 C 519 559 531 584 540 582 Q 547 581 555 579 Q 591 570 622 564 Q 643 560 648 568 Q 654 572 648 599 Q 642 627 635 660 C 632 675 679 672 682 657 Z"/>
    <path class="bg" d="M 550 708 Q 559 708 569 707 Q 611 697 702 690 Q 711 689 712 682 Q 712 675 686 658 Q 685 657 682 657 C 667 651 650 657 635 660 Q 586 670 548 680 C 539 682 541 708 550 708 Z"/>
</g>
<g id="anim-layer">
    <path style="--d:1s; stroke:#FF4444;" pathLength="3333" clip-path="url(#z24797c1)" d="M 162 357 L 121 548"/>
    <path style="--d:2s; stroke:#FF4444;" pathLength="3333" clip-path="url(#z24797c2)" d="M 305 317 L 384 387"/>
    <path style="--d:3s; stroke:#FF4444;" pathLength="3333" clip-path="url(#z24797c3)" d="M 221 95 L 284 169 L 258 898"/>
    <path style="--d:4s; stroke:#000;" pathLength="3333" clip-path="url(#z24797c4)" d="M 557 116 L 613 165 L 589 432"/>
    <path style="--d:5s; stroke:#000;" pathLength="3333" clip-path="url(#z24797c5)" d="M 414 271 L 489 343 L 495 384"/>
    <path style="--d:6s; stroke:#000;" pathLength="3333" clip-path="url(#z24797c6)" d="M 757 198 L 788 244 L 676 347"/>
    <path style="--d:7s; stroke:#000;" pathLength="3333" clip-path="url(#z24797c7)" d="M 370 456 L 406 514 L 400 810"/>
    <path style="--d:8s; stroke:#000;" pathLength="3333" clip-path="url(#z24797c8)" d="M 421 473 L 453 483 L 788 416 L 842 441 L 831 783 L 807 819 L 711 767"/>
    <path style="--d:9s; stroke:#000;" pathLength="3333" clip-path="url(#z24797c9)" d="M 489 555 L 516 587 L 540 735"/>
    <path style="--d:10s; stroke:#000;" pathLength="3333" clip-path="url(#z24797c10)" d="M 535 560 L 670 548 L 687 570 L 655 658"/>
    <path style="--d:11s; stroke:#000;" pathLength="3333" clip-path="url(#z24797c11)" d="M 554 701 L 702 678"/>
</g>
</svg>