<svg id="z24814" class="acjk" viewBox="0 0 1024 1024" xmlns="http://www.w3.org/2000/svg">

<style>
<![CDATA[
@keyframes zk { to { stroke-dashoffset:0; } }
svg.acjk path[clip-path] {
    --t:0.8s;
    animation:zk var(--t) linear forwards var(--d);
    stroke-dasharray:3337;
    stroke-dashoffset:3339;
    stroke-width:128;
    stroke-linecap:round;
    fill:none;
}
/* Low opacity for background improves visual overlap at intersections */
svg.acjk .bg { fill:#ccc; opacity: 0.5; } 
]]>
</style>
<defs>
    <clipPath id="z24814c1"><path d="M 125 343 Q 115 412 93 477 Q 80 511 106 542 Q 118 558 135 541 Q 178 484 163 393 Q 162 359 148 337 Q 141 330 135 330 Q 128 334 125 343 Z"/></clipPath>
    <clipPath id="z24814c2"><path d="M 285 263 Q 369 332 382 332 C 383 332 383 332 384 332 Q 393 331 397 320 Q 401 307 392 281 Q 379 253 299 237 Q 292 236 287 237 C 278 237 278 258 285 263 Z"/></clipPath>
    <clipPath id="z24814c3"><path d="M 287 237 Q 291 197 302 164 Q 312 149 308 136 Q 301 126 246 91 Q 222 73 201 89 Q 197 95 202 110 Q 232 156 234 232 Q 234 653 214 742 Q 196 814 203 834 Q 218 895 234 903 Q 240 910 248 901 Q 255 897 266 876 Q 276 851 275 819 Q 274 770 283 320 Q 283 289 285 263 C 286 246 286 246 287 237 Z"/></clipPath>
    <clipPath id="z24814c4"><path d="M 486 193 Q 508 220 532 250 Q 542 263 557 265 Q 567 266 573 255 Q 580 242 575 214 Q 574 195 546 177 Q 483 141 468 145 Q 464 148 463 160 Q 464 170 486 193 Z"/></clipPath>
    <clipPath id="z24814c5"><path d="M 637 303 Q 773 143 778 140 Q 779 139 781 138 Q 800 123 785 109 Q 769 96 741 88 Q 716 81 704 85 Q 692 89 699 102 Q 711 127 636 260 Q 621 282 608 308 C 604 317 631 311 637 303 Z"/></clipPath>
    <clipPath id="z24814c6"><path d="M 448 339 Q 438 335 417 331 Q 407 328 403 333 Q 396 339 404 354 Q 434 418 449 524 Q 450 555 469 577 Q 485 598 491 583 Q 494 574 495 564 C 494 547 494 547 494 539 Q 493 527 491 514 Q 472 405 469 371 C 466 358 460 344 448 339 Z"/></clipPath>
    <clipPath id="z24814c7"><path d="M 608 308 Q 580 312 551 319 Q 494 331 448 339 C 435 341 457 376 469 371 Q 508 358 563 347 C 592 341 592 341 607 338 Q 749 308 767 325 Q 777 340 775 354 Q 748 483 734 499 C 728 509 717 521 723 531 Q 738 555 753 563 Q 763 570 778 550 Q 793 528 825 402 Q 834 372 857 348 Q 870 336 859 322 Q 844 306 803 279 Q 788 270 711 289 Q 681 292 637 303 C 618 306 618 306 608 308 Z"/></clipPath>
    <clipPath id="z24814c8"><path d="M 641 444 Q 675 437 708 433 Q 729 430 721 419 Q 711 406 689 402 Q 671 399 646 406 C 608 416 608 416 589 421 Q 547 431 510 441 Q 495 444 514 457 Q 523 464 543 461 Q 565 457 590 453 C 624 447 624 447 641 444 Z"/></clipPath>
    <clipPath id="z24814c9"><path d="M 495 564 Q 505 564 517 563 Q 554 556 589 551 C 622 546 622 546 638 543 Q 681 536 723 531 C 734 529 744 503 734 499 Q 710 490 639 510 C 606 517 606 517 589 520 Q 538 529 494 539 C 486 540 487 564 495 564 Z"/></clipPath>
    <clipPath id="z24814c10"><path d="M 588 643 Q 485 659 364 677 Q 342 680 359 697 Q 393 725 452 710 Q 515 692 588 685 C 621 680 621 680 638 677 Q 737 664 899 663 Q 920 662 924 653 Q 930 641 912 627 Q 854 585 789 604 Q 726 616 638 634 C 605 640 605 640 588 643 Z"/></clipPath>
    <clipPath id="z24814c11"><path d="M 589 551 Q 588 594 588 643 C 588 671 588 671 588 685 Q 579 928 602 965 Q 608 972 615 970 Q 628 961 635 905 Q 636 875 638 677 C 638 648 638 648 638 634 Q 638 594 638 543 C 639 521 639 521 639 510 Q 640 486 641 462 Q 641 452 641 444 C 644 419 644 419 646 406 Q 649 393 651 383 Q 654 365 640 357 Q 621 344 607 338 C 593 332 560 332 563 347 Q 563 354 577 373 Q 587 392 589 421 C 590 442 590 442 590 453 Q 590 484 589 520 C 589 541 589 541 589 551 Z"/></clipPath>
</defs>
<g id="bg-layer">
    <path class="bg" d="M 125 343 Q 115 412 93 477 Q 80 511 106 542 Q 118 558 135 541 Q 178 484 163 393 Q 162 359 148 337 Q 141 330 135 330 Q 128 334 125 343 Z"/>
    <path class="bg" d="M 285 263 Q 369 332 382 332 C 383 332 383 332 384 332 Q 393 331 397 320 Q 401 307 392 281 Q 379 253 299 237 Q 292 236 287 237 C 278 237 278 258 285 263 Z"/>
    <path class="bg" d="M 287 237 Q 291 197 302 164 Q 312 149 308 136 Q 301 126 246 91 Q 222 73 201 89 Q 197 95 202 110 Q 232 156 234 232 Q 234 653 214 742 Q 196 814 203 834 Q 218 895 234 903 Q 240 910 248 901 Q 255 897 266 876 Q 276 851 275 819 Q 274 770 283 320 Q 283 289 285 263 C 286 246 286 246 287 237 Z"/>
    <path class="bg" d="M 486 193 Q 508 220 532 250 Q 542 263 557 265 Q 567 266 573 255 Q 580 242 575 214 Q 574 195 546 177 Q 483 141 468 145 Q 464 148 463 160 Q 464 170 486 193 Z"/>
    <path class="bg" d="M 637 303 Q 773 143 778 140 Q 779 139 781 138 Q 800 123 785 109 Q 769 96 741 88 Q 716 81 704 85 Q 692 89 699 102 Q 711 127 636 260 Q 621 282 608 308 C 604 317 631 311 637 303 Z"/>
    <path class="bg" d="M 448 339 Q 438 335 417 331 Q 407 328 403 333 Q 396 339 404 354 Q 434 418 449 524 Q 450 555 469 577 Q 485 598 491 583 Q 494 574 495 564 C 494 547 494 547 494 539 Q 493 527 491 514 Q 472 405 469 371 C 466 358 460 344 448 339 Z"/>
    <path class="bg" d="M 608 308 Q 580 312 551 319 Q 494 331 448 339 C 435 341 457 376 469 371 Q 508 358 563 347 C 592 341 592 341 607 338 Q 749 308 767 325 Q 777 340 775 354 Q 748 483 734 499 C 728 509 717 521 723 531 Q 738 555 753 563 Q 763 570 778 550 Q 793 528 825 402 Q 834 372 857 348 Q 870 336 859 322 Q 844 306 803 279 Q 788 270 711 289 Q 681 292 637 303 C 618 306 618 306 608 308 Z"/>
    <path class="bg" d="M 641 444 Q 675 437 708 433 Q 729 430 721 419 Q 711 406 689 402 Q 671 399 646 406 C 608 416 608 416 589 421 Q 547 431 510 441 Q 495 444 514 457 Q 523 464 543 461 Q 565 457 590 453 C 624 447 624 447 641 444 Z"/>
    <path class="bg" d="M 495 564 Q 505 564 517 563 Q 554 556 589 551 C 622 546 622 546 638 543 Q 681 536 723 531 C 734 529 744 503 734 499 Q 710 490 639 510 C 606 517 606 517 589 520 Q 538 529 494 539 C 486 540 487 564 495 564 Z"/>
    <path class="bg" d="M 588 643 Q 485 659 364 677 Q 342 680 359 697 Q 393 725 452 710 Q 515 692 588 685 C 621 680 621 680 638 677 Q 737 664 899 663 Q 920 662 924 653 Q 930 641 912 627 Q 854 585 789 604 Q 726 616 638 634 C 605 640 605 640 588 643 Z"/>
    <path class="bg" d="M 589 551 Q 588 594 588 643 C 588 671 588 671 588 685 Q 579 928 602 965 Q 608 972 615 970 Q 628 961 635 905 Q 636 875 638 677 C 638 648 638 648 638 634 Q 638 594 638 543 C 639 521 639 521 639 510 Q 640 486 641 462 Q 641 452 641 444 C 644 419 644 419 646 406 Q 649 393 651 383 Q 654 365 640 357 Q 621 344 607 338 C 593 332 560 332 563 347 Q 563 354 577 373 Q 587 392 589 421 C 590 442 590 442 590 453 Q 590 484 589 520 C 589 541 589 541 589 551 Z"/>
</g>
<g id="anim-layer">
    <path style="--d:1s; stroke:#FF4444;" pathLength="3333" clip-path="url(#z24814c1)" d="M 135 339 L 115 546"/>
    <path style="--d:2s; stroke:#FF4444;" pathLength="3333" clip-path="url(#z24814c2)" d="M 294 242 L 391 323"/>
    <path style="--d:3s; stroke:#FF4444;" pathLength="3333" clip-path="url(#z24814c3)" d="M 205 93 L 268 157 L 241 901"/>
    <path style="--d:4s; stroke:#000;" pathLength="3333" clip-path="url(#z24814c4)" d="M 472 155 L 565 259"/>
    <path style="--d:5s; stroke:#000;" pathLength="3333" clip-path="url(#z24814c5)" d="M 704 89 L 743 131 L 618 302"/>
    <path style="--d:6s; stroke:#000;" pathLength="3333" clip-path="url(#z24814c6)" d="M 407 337 L 442 377 L 480 584"/>
    <path style="--d:7s; stroke:#000;" pathLength="3333" clip-path="url(#z24814c7)" d="M 458 342 L 757 299 L 800 314 L 818 348 L 744 554"/>
    <path style="--d:8s; stroke:#000;" pathLength="3333" clip-path="url(#z24814c8)" d="M 512 447 L 716 424"/>
    <path style="--d:9s; stroke:#000;" pathLength="3333" clip-path="url(#z24814c9)" d="M 501 556 L 728 511"/>
    <path style="--d:10s; stroke:#000;" pathLength="3333" clip-path="url(#z24814c10)" d="M 363 687 L 822 631 L 919 641"/>
    <path style="--d:11s; stroke:#000;" pathLength="3333" clip-path="url(#z24814c11)" d="M 570 351 L 618 386 L 611 965"/>
</g>
</svg>