<svg id="z24833" class="acjk" viewBox="0 0 1024 1024" xmlns="http://www.w3.org/2000/svg">

<style>
<![CDATA[
@keyframes zk { to { stroke-dashoffset:0; } }
svg.acjk path[clip-path] {
    --t:0.8s;
    animation:zk var(--t) linear forwards var(--d);
    stroke-dasharray:3337;
    stroke-dashoffset:3339;
    stroke-width:128;
    stroke-linecap:round;
    fill:none;
}
/* Low opacity for background improves visual overlap at intersections */
svg.acjk .bg { fill:#ccc; opacity: 0.5; } 
]]>
</style>
<defs>
    <clipPath id="z24833c1"><path d="M 379 190 C 406 178 440 159 481 146 C 492 142 499 142 501 136 C 502 128 499 120 491 115 C 476 105 453 98 424 88 C 413 84 403 81 395 84 C 389 85 388 91 388 99 C 384 133 333 163 228 232 C 222 235 225 243 230 244 C 240 244 311 219 337 208 C 365 196 365 196 379 190 Z"/></clipPath>
    <clipPath id="z24833c2"><path d="M 401 340 Q 431 333 466 328 Q 482 325 482 318 Q 483 306 466 298 Q 441 288 406 296 C 373 305 373 305 356 309 Q 191 348 124 355 Q 111 356 109 364 Q 106 374 121 385 Q 160 409 197 396 Q 275 369 330 355 C 377 345 377 345 401 340 Z"/></clipPath>
    <clipPath id="z24833c3"><path d="M 355 407 C 354 483 345 534 342 562 C 340 576 346 596 357 613 C 364 623 372 627 381 621 C 391 613 393 576 392 511 C 390 445 397 368 401 340 C 404 311 404 311 406 296 C 408 278 413 258 426 238 C 429 231 429 223 421 216 C 409 204 394 196 379 190 C 365 184 331 194 337 208 C 349 234 356 267 356 309 C 355 374 355 374 355 407 Z"/></clipPath>
    <clipPath id="z24833c4"><path d="M 330 355 C 303 413 246 480 159 554 C 151 562 150 566 156 567 C 162 569 168 569 176 566 C 232 542 292 489 355 407 C 388 365 350 305 330 355 Z"/></clipPath>
    <clipPath id="z24833c5"><path d="M 444 437 C 456 447 470 459 485 473 C 491 479 498 482 506 482 C 510 481 515 477 518 471 C 520 464 518 453 514 439 C 511 430 502 421 487 415 C 451 401 429 398 424 402 C 421 403 419 408 421 414 C 422 418 430 426 444 437 Z"/></clipPath>
    <clipPath id="z24833c6"><path d="M 504 293 C 533 339 557 363 571 365 C 579 366 586 361 590 352 C 593 344 591 333 586 322 C 576 301 550 284 511 270 C 506 268 502 270 501 277 C 499 281 500 287 504 293 Z"/></clipPath>
    <clipPath id="z24833c7"><path d="M 774 234 C 765 247 744 275 711 318 C 703 328 706 334 717 331 C 743 320 775 301 813 276 C 825 267 838 258 853 252 C 867 245 871 236 864 226 C 856 214 843 205 827 196 C 812 187 801 184 793 185 C 784 186 782 190 784 199 C 786 210 781 222 774 234 Z"/></clipPath>
    <clipPath id="z24833c8"><path d="M 663 381 C 688 235 686 172 689 159 C 693 137 698 129 695 120 C 690 108 657 95 633 89 C 617 84 606 85 601 90 C 595 94 593 103 600 110 C 630 142 644 290 619 398 C 610 435 597 483 540 533 C 524 546 503 558 481 571 C 473 575 468 578 469 581 C 469 583 473 584 481 586 C 487 587 500 584 520 579 C 581 560 626 517 649 446 C 652 434 655 421 658 409 C 661 390 661 390 663 381 Z"/></clipPath>
    <clipPath id="z24833c9"><path d="M 658 409 C 688 457 721 505 758 552 C 769 566 787 575 810 579 C 850 585 892 585 936 582 C 946 581 952 579 954 577 C 956 573 952 569 944 565 C 921 554 895 544 868 533 C 807 508 776 495 663 381 C 656 374 652 401 658 409 Z"/></clipPath>
    <clipPath id="z24833c10"><path d="M 238 675 C 223 719 206 762 185 802 C 180 810 178 819 178 831 C 178 847 181 861 187 872 C 193 884 205 886 218 875 C 253 844 269 795 270 733 C 270 710 270 689 263 673 C 260 667 255 664 251 664 C 245 663 240 668 238 675 Z"/></clipPath>
    <clipPath id="z24833c11"><path d="M 323 704 C 337 780 372 838 432 876 C 505 922 614 941 757 927 C 783 924 808 915 831 906 C 849 898 857 888 860 877 C 861 869 848 860 822 843 C 778 814 742 780 711 748 C 700 737 694 734 692 740 C 690 744 699 770 721 820 C 727 834 729 846 724 855 C 719 862 705 866 681 867 C 559 872 471 851 418 806 C 394 785 376 758 365 722 C 360 705 353 696 346 693 C 337 689 330 688 325 690 C 321 691 321 695 323 704 Z"/></clipPath>
    <clipPath id="z24833c12"><path d="M 498 663 C 536 703 566 730 592 741 C 600 744 609 740 615 731 C 619 723 621 713 619 703 C 610 671 572 645 510 625 C 499 621 491 622 485 624 C 481 625 480 628 482 637 C 483 644 488 653 498 663 Z"/></clipPath>
    <clipPath id="z24833c13"><path d="M 737 652 C 772 676 813 704 856 741 C 869 752 880 759 890 760 C 896 760 900 756 905 749 C 911 738 907 721 896 694 C 883 663 829 640 733 622 C 726 620 723 622 724 630 C 724 638 728 646 737 652 Z"/></clipPath>
</defs>
<g id="bg-layer">
    <path class="bg" d="M 379 190 C 406 178 440 159 481 146 C 492 142 499 142 501 136 C 502 128 499 120 491 115 C 476 105 453 98 424 88 C 413 84 403 81 395 84 C 389 85 388 91 388 99 C 384 133 333 163 228 232 C 222 235 225 243 230 244 C 240 244 311 219 337 208 C 365 196 365 196 379 190 Z"/>
    <path class="bg" d="M 401 340 Q 431 333 466 328 Q 482 325 482 318 Q 483 306 466 298 Q 441 288 406 296 C 373 305 373 305 356 309 Q 191 348 124 355 Q 111 356 109 364 Q 106 374 121 385 Q 160 409 197 396 Q 275 369 330 355 C 377 345 377 345 401 340 Z"/>
    <path class="bg" d="M 355 407 C 354 483 345 534 342 562 C 340 576 346 596 357 613 C 364 623 372 627 381 621 C 391 613 393 576 392 511 C 390 445 397 368 401 340 C 404 311 404 311 406 296 C 408 278 413 258 426 238 C 429 231 429 223 421 216 C 409 204 394 196 379 190 C 365 184 331 194 337 208 C 349 234 356 267 356 309 C 355 374 355 374 355 407 Z"/>
    <path class="bg" d="M 330 355 C 303 413 246 480 159 554 C 151 562 150 566 156 567 C 162 569 168 569 176 566 C 232 542 292 489 355 407 C 388 365 350 305 330 355 Z"/>
    <path class="bg" d="M 444 437 C 456 447 470 459 485 473 C 491 479 498 482 506 482 C 510 481 515 477 518 471 C 520 464 518 453 514 439 C 511 430 502 421 487 415 C 451 401 429 398 424 402 C 421 403 419 408 421 414 C 422 418 430 426 444 437 Z"/>
    <path class="bg" d="M 504 293 C 533 339 557 363 571 365 C 579 366 586 361 590 352 C 593 344 591 333 586 322 C 576 301 550 284 511 270 C 506 268 502 270 501 277 C 499 281 500 287 504 293 Z"/>
    <path class="bg" d="M 774 234 C 765 247 744 275 711 318 C 703 328 706 334 717 331 C 743 320 775 301 813 276 C 825 267 838 258 853 252 C 867 245 871 236 864 226 C 856 214 843 205 827 196 C 812 187 801 184 793 185 C 784 186 782 190 784 199 C 786 210 781 222 774 234 Z"/>
    <path class="bg" d="M 663 381 C 688 235 686 172 689 159 C 693 137 698 129 695 120 C 690 108 657 95 633 89 C 617 84 606 85 601 90 C 595 94 593 103 600 110 C 630 142 644 290 619 398 C 610 435 597 483 540 533 C 524 546 503 558 481 571 C 473 575 468 578 469 581 C 469 583 473 584 481 586 C 487 587 500 584 520 579 C 581 560 626 517 649 446 C 652 434 655 421 658 409 C 661 390 661 390 663 381 Z"/>
    <path class="bg" d="M 658 409 C 688 457 721 505 758 552 C 769 566 787 575 810 579 C 850 585 892 585 936 582 C 946 581 952 579 954 577 C 956 573 952 569 944 565 C 921 554 895 544 868 533 C 807 508 776 495 663 381 C 656 374 652 401 658 409 Z"/>
    <path class="bg" d="M 238 675 C 223 719 206 762 185 802 C 180 810 178 819 178 831 C 178 847 181 861 187 872 C 193 884 205 886 218 875 C 253 844 269 795 270 733 C 270 710 270 689 263 673 C 260 667 255 664 251 664 C 245 663 240 668 238 675 Z"/>
    <path class="bg" d="M 323 704 C 337 780 372 838 432 876 C 505 922 614 941 757 927 C 783 924 808 915 831 906 C 849 898 857 888 860 877 C 861 869 848 860 822 843 C 778 814 742 780 711 748 C 700 737 694 734 692 740 C 690 744 699 770 721 820 C 727 834 729 846 724 855 C 719 862 705 866 681 867 C 559 872 471 851 418 806 C 394 785 376 758 365 722 C 360 705 353 696 346 693 C 337 689 330 688 325 690 C 321 691 321 695 323 704 Z"/>
    <path class="bg" d="M 498 663 C 536 703 566 730 592 741 C 600 744 609 740 615 731 C 619 723 621 713 619 703 C 610 671 572 645 510 625 C 499 621 491 622 485 624 C 481 625 480 628 482 637 C 483 644 488 653 498 663 Z"/>
    <path class="bg" d="M 737 652 C 772 676 813 704 856 741 C 869 752 880 759 890 760 C 896 760 900 756 905 749 C 911 738 907 721 896 694 C 883 663 829 640 733 622 C 726 620 723 622 724 630 C 724 638 728 646 737 652 Z"/>
</g>
<g id="anim-layer">
    <path style="--d:1s; stroke:#FF4444;" pathLength="3333" clip-path="url(#z24833c1)" d="M 401 94 L 447 132 L 233 239"/>
    <path style="--d:2s; stroke:#FF4444;" pathLength="3333" clip-path="url(#z24833c2)" d="M 112 364 L 167 375 L 475 318"/>
    <path style="--d:3s; stroke:#FF4444;" pathLength="3333" clip-path="url(#z24833c3)" d="M 345 212 L 389 241 L 373 619"/>
    <path style="--d:4s; stroke:#FF4444;" pathLength="3333" clip-path="url(#z24833c4)" d="M 347 358 L 273 472 L 160 563"/>
    <path style="--d:5s; stroke:#FF4444;" pathLength="3333" clip-path="url(#z24833c5)" d="M 425 408 L 511 473"/>
    <path style="--d:6s; stroke:#FF4444;" pathLength="3333" clip-path="url(#z24833c6)" d="M 508 280 L 579 357"/>
    <path style="--d:7s; stroke:#FF4444;" pathLength="3333" clip-path="url(#z24833c7)" d="M 791 190 L 816 243 L 715 324"/>
    <path style="--d:8s; stroke:#FF4444;" pathLength="3333" clip-path="url(#z24833c8)" d="M 605 99 L 657 139 L 631 433 L 570 532 L 477 578"/>
    <path style="--d:9s; stroke:#FF4444;" pathLength="3333" clip-path="url(#z24833c9)" d="M 664 391 L 797 538 L 946 571"/>
    <path style="--d:10s; stroke:#000;" pathLength="3333" clip-path="url(#z24833c10)" d="M 251 673 L 202 878"/>
    <path style="--d:11s; stroke:#000;" pathLength="3333" clip-path="url(#z24833c11)" d="M 330 691 L 411 831 L 573 894 L 724 895 L 806 869 L 698 744"/>
    <path style="--d:12s; stroke:#000;" pathLength="3333" clip-path="url(#z24833c12)" d="M 488 633 L 612 728"/>
    <path style="--d:13s; stroke:#000;" pathLength="3333" clip-path="url(#z24833c13)" d="M 730 628 L 849 692 L 901 750"/>
</g>
</svg>