<svg id="z25214" class="acjk" viewBox="0 0 1024 1024" xmlns="http://www.w3.org/2000/svg">

<style>
<![CDATA[
@keyframes zk { to { stroke-dashoffset:0; } }
svg.acjk path[clip-path] {
    --t:0.8s;
    animation:zk var(--t) linear forwards var(--d);
    stroke-dasharray:3337;
    stroke-dashoffset:3339;
    stroke-width:128;
    stroke-linecap:round;
    fill:none;
}
/* Low opacity for background improves visual overlap at intersections */
svg.acjk .bg { fill:#ccc; opacity: 0.5; } 
]]>
</style>
<defs>
    <clipPath id="z25214c1"><path d="M 346 376 C 362 371 425 356 437 345 C 443 338 443 333 440 328 C 435 320 422 314 402 311 C 383 308 365 312 347 319 C 314 332 314 332 297 338 C 273 347 175 371 151 377 C 126 382 122 392 142 401 C 185 419 224 410 297 390 C 330 381 330 381 346 376 Z"/></clipPath>
    <clipPath id="z25214c2"><path d="M 295 584 C 295 638 294 700 293 769 C 292 785 287 795 279 802 C 274 805 265 805 251 801 C 235 796 219 794 205 790 C 182 782 173 780 175 787 C 176 791 182 799 196 810 C 236 844 263 871 274 891 C 286 913 297 925 308 927 C 316 927 326 916 337 893 C 350 863 356 823 354 774 C 350 697 345 621 345 545 C 345 522 345 522 345 510 C 345 465 345 420 346 376 C 347 338 347 338 347 319 C 348 222 359 167 366 155 C 376 134 364 119 328 103 C 304 92 287 86 275 91 C 263 95 261 106 273 121 C 287 139 295 159 296 182 C 296 192 297 243 297 338 C 297 354 297 340 297 390 C 296 432 295 482 295 540 C 295 569 295 569 295 584 Z"/></clipPath>
    <clipPath id="z25214c3"><path d="M 295 540 C 239 573 186 604 138 635 C 115 649 95 657 80 663 C 70 666 65 671 65 677 C 63 682 68 690 79 700 C 91 711 105 718 122 723 C 132 725 140 722 148 715 C 191 669 240 626 295 584 C 328 558 328 558 345 545 C 397 503 423 481 424 480 C 428 471 427 467 420 468 C 414 468 389 483 345 510 C 312 530 312 530 295 540 Z"/></clipPath>
    <clipPath id="z25214c4"><path d="M 609 392 C 717 356 772 334 774 333 C 779 327 780 321 777 316 C 771 307 758 302 738 300 C 717 297 697 303 677 313 C 652 324 628 336 602 346 C 575 356 575 356 561 361 C 526 373 489 380 450 389 C 425 394 422 404 442 413 C 481 430 515 422 569 405 C 596 396 596 396 609 392 Z"/></clipPath>
    <clipPath id="z25214c5"><path d="M 646 665 C 689 757 732 824 808 889 C 855 929 893 931 910 923 C 923 915 930 900 926 874 C 922 847 918 788 919 696 C 919 681 918 672 914 670 C 911 668 906 675 903 688 C 879 771 860 819 842 816 C 800 808 739 735 682 631 C 672 614 667 596 660 579 C 633 515 617 452 609 392 C 606 376 603 361 602 346 C 593 260 595 195 611 153 C 617 134 607 117 579 99 C 555 83 538 77 526 79 C 512 80 506 90 515 108 C 529 137 538 166 541 197 C 544 253 552 307 561 361 C 563 375 566 390 569 405 C 581 479 600 548 626 614 C 632 631 638 648 646 665 Z"/></clipPath>
    <clipPath id="z25214c6"><path d="M 626 614 C 577 664 505 704 420 746 C 413 749 411 754 416 757 C 420 760 427 760 435 759 C 477 752 518 738 559 719 C 591 703 621 687 646 665 C 670 642 670 642 682 631 C 725 590 756 537 797 493 C 802 486 806 481 804 474 C 801 465 791 454 774 438 C 761 426 751 420 745 421 C 735 421 730 426 729 437 C 724 479 706 531 660 579 C 637 602 637 602 626 614 Z"/></clipPath>
    <clipPath id="z25214c7"><path d="M 705 189 C 727 204 750 222 774 241 C 782 247 792 250 803 250 C 809 249 814 244 817 236 C 819 226 815 212 809 194 C 803 180 791 167 768 160 C 716 142 685 138 676 145 C 672 147 671 153 674 161 C 675 167 687 176 705 189 Z"/></clipPath>
</defs>
<g id="bg-layer">
    <path class="bg" d="M 346 376 C 362 371 425 356 437 345 C 443 338 443 333 440 328 C 435 320 422 314 402 311 C 383 308 365 312 347 319 C 314 332 314 332 297 338 C 273 347 175 371 151 377 C 126 382 122 392 142 401 C 185 419 224 410 297 390 C 330 381 330 381 346 376 Z"/>
    <path class="bg" d="M 295 584 C 295 638 294 700 293 769 C 292 785 287 795 279 802 C 274 805 265 805 251 801 C 235 796 219 794 205 790 C 182 782 173 780 175 787 C 176 791 182 799 196 810 C 236 844 263 871 274 891 C 286 913 297 925 308 927 C 316 927 326 916 337 893 C 350 863 356 823 354 774 C 350 697 345 621 345 545 C 345 522 345 522 345 510 C 345 465 345 420 346 376 C 347 338 347 338 347 319 C 348 222 359 167 366 155 C 376 134 364 119 328 103 C 304 92 287 86 275 91 C 263 95 261 106 273 121 C 287 139 295 159 296 182 C 296 192 297 243 297 338 C 297 354 297 340 297 390 C 296 432 295 482 295 540 C 295 569 295 569 295 584 Z"/>
    <path class="bg" d="M 295 540 C 239 573 186 604 138 635 C 115 649 95 657 80 663 C 70 666 65 671 65 677 C 63 682 68 690 79 700 C 91 711 105 718 122 723 C 132 725 140 722 148 715 C 191 669 240 626 295 584 C 328 558 328 558 345 545 C 397 503 423 481 424 480 C 428 471 427 467 420 468 C 414 468 389 483 345 510 C 312 530 312 530 295 540 Z"/>
    <path class="bg" d="M 609 392 C 717 356 772 334 774 333 C 779 327 780 321 777 316 C 771 307 758 302 738 300 C 717 297 697 303 677 313 C 652 324 628 336 602 346 C 575 356 575 356 561 361 C 526 373 489 380 450 389 C 425 394 422 404 442 413 C 481 430 515 422 569 405 C 596 396 596 396 609 392 Z"/>
    <path class="bg" d="M 646 665 C 689 757 732 824 808 889 C 855 929 893 931 910 923 C 923 915 930 900 926 874 C 922 847 918 788 919 696 C 919 681 918 672 914 670 C 911 668 906 675 903 688 C 879 771 860 819 842 816 C 800 808 739 735 682 631 C 672 614 667 596 660 579 C 633 515 617 452 609 392 C 606 376 603 361 602 346 C 593 260 595 195 611 153 C 617 134 607 117 579 99 C 555 83 538 77 526 79 C 512 80 506 90 515 108 C 529 137 538 166 541 197 C 544 253 552 307 561 361 C 563 375 566 390 569 405 C 581 479 600 548 626 614 C 632 631 638 648 646 665 Z"/>
    <path class="bg" d="M 626 614 C 577 664 505 704 420 746 C 413 749 411 754 416 757 C 420 760 427 760 435 759 C 477 752 518 738 559 719 C 591 703 621 687 646 665 C 670 642 670 642 682 631 C 725 590 756 537 797 493 C 802 486 806 481 804 474 C 801 465 791 454 774 438 C 761 426 751 420 745 421 C 735 421 730 426 729 437 C 724 479 706 531 660 579 C 637 602 637 602 626 614 Z"/>
    <path class="bg" d="M 705 189 C 727 204 750 222 774 241 C 782 247 792 250 803 250 C 809 249 814 244 817 236 C 819 226 815 212 809 194 C 803 180 791 167 768 160 C 716 142 685 138 676 145 C 672 147 671 153 674 161 C 675 167 687 176 705 189 Z"/>
</g>
<g id="anim-layer">
    <path style="--d:1s; stroke:#FF4444;" pathLength="3333" clip-path="url(#z25214c1)" d="M 137 388 L 438 336"/>
    <path style="--d:2s; stroke:#FF4444;" pathLength="3333" clip-path="url(#z25214c2)" d="M 273 99 L 331 148 L 321 806 L 294 875 L 182 791"/>
    <path style="--d:3s; stroke:#FF4444;" pathLength="3333" clip-path="url(#z25214c3)" d="M 72 677 L 126 685 L 421 475"/>
    <path style="--d:4s; stroke:#000;" pathLength="3333" clip-path="url(#z25214c4)" d="M 436 400 L 500 400 L 772 324"/>
    <path style="--d:5s; stroke:#000;" pathLength="3333" clip-path="url(#z25214c5)" d="M 518 89 L 574 151 L 580 348 L 620 534 L 726 753 L 826 854 L 887 873 L 913 681"/>
    <path style="--d:6s; stroke:#000;" pathLength="3333" clip-path="url(#z25214c6)" d="M 741 425 L 761 480 L 667 609 L 559 694 L 420 754"/>
    <path style="--d:7s; stroke:#000;" pathLength="3333" clip-path="url(#z25214c7)" d="M 681 148 L 812 239"/>
</g>
</svg>