<svg id="z25259" class="acjk" viewBox="0 0 1024 1024" xmlns="http://www.w3.org/2000/svg">

<style>
<![CDATA[
@keyframes zk { to { stroke-dashoffset:0; } }
svg.acjk path[clip-path] {
    --t:0.8s;
    animation:zk var(--t) linear forwards var(--d);
    stroke-dasharray:3337;
    stroke-dashoffset:3339;
    stroke-width:128;
    stroke-linecap:round;
    fill:none;
}
/* Low opacity for background improves visual overlap at intersections */
svg.acjk .bg { fill:#ccc; opacity: 0.5; } 
]]>
</style>
<defs>
    <clipPath id="z25259c1"><path d="M 317 358 C 371 340 399 329 402 327 C 406 322 407 316 404 311 C 399 304 387 298 367 296 C 350 293 334 297 319 304 C 286 318 286 318 270 325 C 215 348 168 354 137 363 C 114 368 111 377 130 386 C 157 398 195 396 242 381 C 250 378 260 376 270 373 C 301 363 301 363 317 358 Z"/></clipPath>
    <clipPath id="z25259c2"><path d="M 267 557 C 265 617 266 686 265 763 C 264 777 260 788 252 795 C 250 796 227 794 187 783 C 166 777 157 773 159 779 C 159 783 166 791 178 802 C 214 835 238 862 247 881 C 257 902 267 914 277 916 C 285 916 296 906 306 884 C 318 855 325 817 324 769 C 321 686 315 603 315 521 C 315 521 315 499 315 488 C 315 444 315 400 317 358 C 318 322 318 322 319 304 C 321 245 322 195 337 157 C 344 137 334 123 300 107 C 278 96 262 91 249 96 C 238 99 237 109 248 124 C 260 141 268 160 270 182 C 270 192 270 240 270 325 C 270 357 270 357 270 373 C 270 413 269 460 268 514 C 267 543 267 543 267 557 Z"/></clipPath>
    <clipPath id="z25259c3"><path d="M 315 521 C 359 487 384 468 388 464 C 393 455 391 451 384 452 C 373 452 352 467 315 488 C 284 505 284 505 268 514 C 141 584 74 618 69 620 C 59 623 53 627 52 634 C 51 640 54 647 64 656 C 76 666 89 674 104 679 C 114 682 123 679 130 672 C 165 635 212 598 267 557 C 299 533 299 533 315 521 Z"/></clipPath>
    <clipPath id="z25259c4"><path d="M 663 318 C 691 309 720 300 750 296 C 772 292 785 296 786 305 C 786 315 776 342 758 385 C 753 394 754 401 759 403 C 763 405 769 401 778 394 C 824 351 857 324 878 315 C 893 308 900 301 899 293 C 897 285 873 269 824 249 C 809 243 793 244 776 250 C 736 262 699 276 665 286 C 632 295 632 295 615 300 C 579 309 537 319 495 326 C 481 328 491 372 504 367 C 525 357 590 339 615 332 C 647 323 647 323 663 318 Z"/></clipPath>
    <clipPath id="z25259c5"><path d="M 495 326 C 487 321 478 317 469 313 C 456 307 446 305 439 310 C 432 314 429 321 435 329 C 460 362 458 544 428 648 C 410 706 383 766 349 827 C 346 831 343 835 343 839 C 341 845 345 848 351 847 C 373 842 432 750 454 700 C 485 624 507 512 504 367 C 504 353 506 334 495 326 Z"/></clipPath>
    <clipPath id="z25259c6"><path d="M 653 487 C 657 429 659 372 663 318 C 664 297 664 297 665 286 C 668 228 672 170 687 114 C 688 107 685 97 670 88 C 646 73 625 68 610 65 C 599 62 591 64 586 70 C 581 74 580 82 587 93 C 602 116 610 135 611 152 C 613 198 615 248 615 300 C 615 321 615 321 615 332 C 615 386 613 442 611 502 C 611 517 653 502 653 487 Z"/></clipPath>
    <clipPath id="z25259c7"><path d="M 639 719 C 610 761 532 807 432 839 C 423 841 421 845 427 850 C 431 854 442 853 461 851 C 555 838 638 797 669 757 C 688 731 688 731 698 718 C 726 679 745 628 762 567 C 767 545 773 528 786 518 C 795 509 795 499 783 490 C 770 479 753 471 732 464 C 719 459 706 460 692 468 C 679 474 666 482 653 487 C 625 497 625 497 611 502 C 569 516 515 524 512 527 C 507 531 510 536 522 542 C 538 549 558 548 583 540 C 617 528 652 521 687 511 C 699 507 705 511 706 525 C 706 577 690 641 663 683 C 647 707 647 707 639 719 Z"/></clipPath>
    <clipPath id="z25259c8"><path d="M 669 757 Q 715 814 793 885 Q 821 909 865 902 Q 971 887 990 882 Q 997 875 985 866 Q 970 857 851 818 Q 781 793 698 718 C 675 695 675 695 663 683 Q 629 647 592 603 Q 573 579 540 573 Q 528 570 519 577 Q 513 584 523 592 Q 530 598 537 602 Q 561 614 639 719 C 659 744 659 744 669 757 Z"/></clipPath>
</defs>
<g id="bg-layer">
    <path class="bg" d="M 317 358 C 371 340 399 329 402 327 C 406 322 407 316 404 311 C 399 304 387 298 367 296 C 350 293 334 297 319 304 C 286 318 286 318 270 325 C 215 348 168 354 137 363 C 114 368 111 377 130 386 C 157 398 195 396 242 381 C 250 378 260 376 270 373 C 301 363 301 363 317 358 Z"/>
    <path class="bg" d="M 267 557 C 265 617 266 686 265 763 C 264 777 260 788 252 795 C 250 796 227 794 187 783 C 166 777 157 773 159 779 C 159 783 166 791 178 802 C 214 835 238 862 247 881 C 257 902 267 914 277 916 C 285 916 296 906 306 884 C 318 855 325 817 324 769 C 321 686 315 603 315 521 C 315 521 315 499 315 488 C 315 444 315 400 317 358 C 318 322 318 322 319 304 C 321 245 322 195 337 157 C 344 137 334 123 300 107 C 278 96 262 91 249 96 C 238 99 237 109 248 124 C 260 141 268 160 270 182 C 270 192 270 240 270 325 C 270 357 270 357 270 373 C 270 413 269 460 268 514 C 267 543 267 543 267 557 Z"/>
    <path class="bg" d="M 315 521 C 359 487 384 468 388 464 C 393 455 391 451 384 452 C 373 452 352 467 315 488 C 284 505 284 505 268 514 C 141 584 74 618 69 620 C 59 623 53 627 52 634 C 51 640 54 647 64 656 C 76 666 89 674 104 679 C 114 682 123 679 130 672 C 165 635 212 598 267 557 C 299 533 299 533 315 521 Z"/>
    <path class="bg" d="M 663 318 C 691 309 720 300 750 296 C 772 292 785 296 786 305 C 786 315 776 342 758 385 C 753 394 754 401 759 403 C 763 405 769 401 778 394 C 824 351 857 324 878 315 C 893 308 900 301 899 293 C 897 285 873 269 824 249 C 809 243 793 244 776 250 C 736 262 699 276 665 286 C 632 295 632 295 615 300 C 579 309 537 319 495 326 C 481 328 491 372 504 367 C 525 357 590 339 615 332 C 647 323 647 323 663 318 Z"/>
    <path class="bg" d="M 495 326 C 487 321 478 317 469 313 C 456 307 446 305 439 310 C 432 314 429 321 435 329 C 460 362 458 544 428 648 C 410 706 383 766 349 827 C 346 831 343 835 343 839 C 341 845 345 848 351 847 C 373 842 432 750 454 700 C 485 624 507 512 504 367 C 504 353 506 334 495 326 Z"/>
    <path class="bg" d="M 653 487 C 657 429 659 372 663 318 C 664 297 664 297 665 286 C 668 228 672 170 687 114 C 688 107 685 97 670 88 C 646 73 625 68 610 65 C 599 62 591 64 586 70 C 581 74 580 82 587 93 C 602 116 610 135 611 152 C 613 198 615 248 615 300 C 615 321 615 321 615 332 C 615 386 613 442 611 502 C 611 517 653 502 653 487 Z"/>
    <path class="bg" d="M 639 719 C 610 761 532 807 432 839 C 423 841 421 845 427 850 C 431 854 442 853 461 851 C 555 838 638 797 669 757 C 688 731 688 731 698 718 C 726 679 745 628 762 567 C 767 545 773 528 786 518 C 795 509 795 499 783 490 C 770 479 753 471 732 464 C 719 459 706 460 692 468 C 679 474 666 482 653 487 C 625 497 625 497 611 502 C 569 516 515 524 512 527 C 507 531 510 536 522 542 C 538 549 558 548 583 540 C 617 528 652 521 687 511 C 699 507 705 511 706 525 C 706 577 690 641 663 683 C 647 707 647 707 639 719 Z"/>
    <path class="bg" d="M 669 757 Q 715 814 793 885 Q 821 909 865 902 Q 971 887 990 882 Q 997 875 985 866 Q 970 857 851 818 Q 781 793 698 718 C 675 695 675 695 663 683 Q 629 647 592 603 Q 573 579 540 573 Q 528 570 519 577 Q 513 584 523 592 Q 530 598 537 602 Q 561 614 639 719 C 659 744 659 744 669 757 Z"/>
</g>
<g id="anim-layer">
    <path style="--d:1s; stroke:#FF4444;" pathLength="3333" clip-path="url(#z25259c1)" d="M 127 373 L 400 312"/>
    <path style="--d:2s; stroke:#FF4444;" pathLength="3333" clip-path="url(#z25259c2)" d="M 246 102 L 303 157 L 293 785 L 259 861 L 168 782"/>
    <path style="--d:3s; stroke:#FF4444;" pathLength="3333" clip-path="url(#z25259c3)" d="M 56 634 L 107 642 L 386 459"/>
    <path style="--d:4s; stroke:#000;" pathLength="3333" clip-path="url(#z25259c4)" d="M 509 380 L 514 341 L 796 273 L 845 303 L 763 396"/>
    <path style="--d:5s; stroke:#000;" pathLength="3333" clip-path="url(#z25259c5)" d="M 440 317 L 471 341 L 482 394 L 460 605 L 419 730 L 350 840"/>
    <path style="--d:6s; stroke:#000;" pathLength="3333" clip-path="url(#z25259c6)" d="M 591 75 L 648 125 L 620 495"/>
    <path style="--d:7s; stroke:#000;" pathLength="3333" clip-path="url(#z25259c7)" d="M 517 531 L 706 485 L 749 519 L 695 673 L 642 751 L 550 812 L 432 845"/>
    <path style="--d:8s; stroke:#000;" pathLength="3333" clip-path="url(#z25259c8)" d="M 523 580 L 810 846 L 984 874"/>
</g>
</svg>