<svg id="z25325" class="acjk" viewBox="0 0 1024 1024" xmlns="http://www.w3.org/2000/svg">

<style>
<![CDATA[
@keyframes zk { to { stroke-dashoffset:0; } }
svg.acjk path[clip-path] {
    --t:0.8s;
    animation:zk var(--t) linear forwards var(--d);
    stroke-dasharray:3337;
    stroke-dashoffset:3339;
    stroke-width:128;
    stroke-linecap:round;
    fill:none;
}
/* Low opacity for background improves visual overlap at intersections */
svg.acjk .bg { fill:#ccc; opacity: 0.5; } 
]]>
</style>
<defs>
    <clipPath id="z25325c1"><path d="M 326 365 C 338 361 351 356 365 352 C 387 344 399 338 402 335 C 406 329 407 323 404 319 C 399 312 387 307 367 305 C 354 303 341 303 329 309 C 297 323 297 323 281 330 C 228 353 178 364 137 375 C 114 380 111 390 129 398 C 168 415 207 403 280 380 C 311 370 311 370 326 365 Z"/></clipPath>
    <clipPath id="z25325c2"><path d="M 274 538 C 272 602 270 677 268 763 C 267 779 262 790 254 796 C 251 797 226 796 180 785 C 158 779 149 776 151 783 C 151 787 158 794 171 805 C 211 837 236 863 247 882 C 258 904 270 915 280 916 C 288 916 299 906 309 884 C 321 855 327 817 326 770 C 322 679 322 588 322 497 C 322 478 322 478 322 468 C 322 433 324 399 326 365 C 328 328 328 328 329 309 C 333 225 338 165 352 134 C 360 114 349 100 316 83 C 294 72 278 66 266 71 C 254 75 252 84 263 99 C 276 116 283 135 284 158 C 284 170 283 228 281 330 C 280 363 280 363 280 380 C 279 414 276 454 275 500 C 274 525 274 525 274 538 Z"/></clipPath>
    <clipPath id="z25325c3"><path d="M 275 500 C 211 543 150 585 93 628 C 73 642 55 650 43 656 C 35 659 32 664 31 670 C 30 674 34 682 44 690 C 56 699 69 704 84 708 C 93 710 100 706 107 699 C 158 640 215 587 274 538 C 306 511 306 511 322 497 C 360 463 380 445 381 444 C 385 435 383 430 377 432 C 368 433 351 447 322 468 C 291 489 291 489 275 500 Z"/></clipPath>
    <clipPath id="z25325c4"><path d="M 657 384 C 741 359 783 343 785 342 C 789 337 791 332 788 327 C 783 320 771 314 753 311 C 737 308 703 321 649 341 C 622 351 622 351 608 356 C 582 365 512 380 466 389 C 443 392 440 401 458 411 C 485 425 515 426 547 416 C 568 408 601 400 616 396 C 643 388 643 388 657 384 Z"/></clipPath>
    <clipPath id="z25325c5"><path d="M 516 541 C 533 536 552 530 574 525 C 588 521 597 517 600 515 C 604 510 606 505 603 501 C 598 494 588 490 573 488 C 556 485 540 488 525 496 C 508 503 475 515 401 529 C 382 532 379 540 394 548 C 411 557 442 561 483 550 C 505 544 505 544 516 541 Z"/></clipPath>
    <clipPath id="z25325c6"><path d="M 529 664 C 530 572 545 572 537 559 C 531 550 523 545 516 541 C 507 534 481 539 483 550 C 485 554 487 597 490 677 C 490 691 529 678 529 664 Z"/></clipPath>
    <clipPath id="z25325c7"><path d="M 490 677 C 442 692 382 702 361 703 C 353 703 348 707 347 716 C 346 724 349 730 357 735 C 378 747 394 756 404 761 C 414 765 426 763 440 755 C 460 741 516 708 611 659 C 621 653 629 649 633 645 C 637 639 636 634 629 634 C 623 633 589 643 529 664 C 503 673 503 673 490 677 Z"/></clipPath>
    <clipPath id="z25325c8"><path d="M 616 396 C 656 618 733 776 846 869 C 885 901 914 919 934 918 C 946 916 949 904 947 885 C 942 852 944 787 947 690 C 947 674 944 665 939 665 C 935 664 921 697 899 762 C 888 791 874 802 857 792 C 849 787 842 783 836 778 C 748 693 691 563 657 384 C 654 369 651 355 649 341 C 636 273 630 209 639 150 C 642 122 631 104 596 91 C 573 82 555 80 543 85 C 530 89 523 100 533 110 C 560 138 577 159 580 181 C 587 245 597 303 608 356 C 610 369 613 382 616 396 Z"/></clipPath>
    <clipPath id="z25325c9"><path d="M 744 159 C 762 171 780 186 800 202 C 809 210 819 212 830 211 C 836 209 842 205 845 196 C 847 185 843 170 836 152 C 830 139 819 128 798 123 C 746 109 717 107 712 113 C 709 115 707 121 710 130 C 711 136 724 145 744 159 Z"/></clipPath>
</defs>
<g id="bg-layer">
    <path class="bg" d="M 326 365 C 338 361 351 356 365 352 C 387 344 399 338 402 335 C 406 329 407 323 404 319 C 399 312 387 307 367 305 C 354 303 341 303 329 309 C 297 323 297 323 281 330 C 228 353 178 364 137 375 C 114 380 111 390 129 398 C 168 415 207 403 280 380 C 311 370 311 370 326 365 Z"/>
    <path class="bg" d="M 274 538 C 272 602 270 677 268 763 C 267 779 262 790 254 796 C 251 797 226 796 180 785 C 158 779 149 776 151 783 C 151 787 158 794 171 805 C 211 837 236 863 247 882 C 258 904 270 915 280 916 C 288 916 299 906 309 884 C 321 855 327 817 326 770 C 322 679 322 588 322 497 C 322 478 322 478 322 468 C 322 433 324 399 326 365 C 328 328 328 328 329 309 C 333 225 338 165 352 134 C 360 114 349 100 316 83 C 294 72 278 66 266 71 C 254 75 252 84 263 99 C 276 116 283 135 284 158 C 284 170 283 228 281 330 C 280 363 280 363 280 380 C 279 414 276 454 275 500 C 274 525 274 525 274 538 Z"/>
    <path class="bg" d="M 275 500 C 211 543 150 585 93 628 C 73 642 55 650 43 656 C 35 659 32 664 31 670 C 30 674 34 682 44 690 C 56 699 69 704 84 708 C 93 710 100 706 107 699 C 158 640 215 587 274 538 C 306 511 306 511 322 497 C 360 463 380 445 381 444 C 385 435 383 430 377 432 C 368 433 351 447 322 468 C 291 489 291 489 275 500 Z"/>
    <path class="bg" d="M 657 384 C 741 359 783 343 785 342 C 789 337 791 332 788 327 C 783 320 771 314 753 311 C 737 308 703 321 649 341 C 622 351 622 351 608 356 C 582 365 512 380 466 389 C 443 392 440 401 458 411 C 485 425 515 426 547 416 C 568 408 601 400 616 396 C 643 388 643 388 657 384 Z"/>
    <path class="bg" d="M 516 541 C 533 536 552 530 574 525 C 588 521 597 517 600 515 C 604 510 606 505 603 501 C 598 494 588 490 573 488 C 556 485 540 488 525 496 C 508 503 475 515 401 529 C 382 532 379 540 394 548 C 411 557 442 561 483 550 C 505 544 505 544 516 541 Z"/>
    <path class="bg" d="M 529 664 C 530 572 545 572 537 559 C 531 550 523 545 516 541 C 507 534 481 539 483 550 C 485 554 487 597 490 677 C 490 691 529 678 529 664 Z"/>
    <path class="bg" d="M 490 677 C 442 692 382 702 361 703 C 353 703 348 707 347 716 C 346 724 349 730 357 735 C 378 747 394 756 404 761 C 414 765 426 763 440 755 C 460 741 516 708 611 659 C 621 653 629 649 633 645 C 637 639 636 634 629 634 C 623 633 589 643 529 664 C 503 673 503 673 490 677 Z"/>
    <path class="bg" d="M 616 396 C 656 618 733 776 846 869 C 885 901 914 919 934 918 C 946 916 949 904 947 885 C 942 852 944 787 947 690 C 947 674 944 665 939 665 C 935 664 921 697 899 762 C 888 791 874 802 857 792 C 849 787 842 783 836 778 C 748 693 691 563 657 384 C 654 369 651 355 649 341 C 636 273 630 209 639 150 C 642 122 631 104 596 91 C 573 82 555 80 543 85 C 530 89 523 100 533 110 C 560 138 577 159 580 181 C 587 245 597 303 608 356 C 610 369 613 382 616 396 Z"/>
    <path class="bg" d="M 744 159 C 762 171 780 186 800 202 C 809 210 819 212 830 211 C 836 209 842 205 845 196 C 847 185 843 170 836 152 C 830 139 819 128 798 123 C 746 109 717 107 712 113 C 709 115 707 121 710 130 C 711 136 724 145 744 159 Z"/>
</g>
<g id="anim-layer">
    <path style="--d:1s; stroke:#FF4444;" pathLength="3333" clip-path="url(#z25325c1)" d="M 125 384 L 180 386 L 399 321"/>
    <path style="--d:2s; stroke:#FF4444;" pathLength="3333" clip-path="url(#z25325c2)" d="M 263 79 L 318 127 L 294 797 L 261 863 L 159 784"/>
    <path style="--d:3s; stroke:#FF4444;" pathLength="3333" clip-path="url(#z25325c3)" d="M 36 670 L 89 671 L 375 438"/>
    <path style="--d:4s; stroke:#000;" pathLength="3333" clip-path="url(#z25325c4)" d="M 456 400 L 781 333"/>
    <path style="--d:5s; stroke:#000;" pathLength="3333" clip-path="url(#z25325c5)" d="M 394 538 L 597 505"/>
    <path style="--d:6s; stroke:#000;" pathLength="3333" clip-path="url(#z25325c6)" d="M 489 553 L 513 582 L 506 671"/>
    <path style="--d:7s; stroke:#000;" pathLength="3333" clip-path="url(#z25325c7)" d="M 351 716 L 420 729 L 630 643"/>
    <path style="--d:8s; stroke:#000;" pathLength="3333" clip-path="url(#z25325c8)" d="M 534 95 L 604 138 L 659 492 L 766 738 L 840 821 L 917 866 L 938 674"/>
    <path style="--d:9s; stroke:#000;" pathLength="3333" clip-path="url(#z25325c9)" d="M 717 121 L 839 201"/>
</g>
</svg>