<svg id="z25423" class="acjk" viewBox="0 0 1024 1024" xmlns="http://www.w3.org/2000/svg">

<style>
<![CDATA[
@keyframes zk { to { stroke-dashoffset:0; } }
svg.acjk path[clip-path] {
    --t:0.8s;
    animation:zk var(--t) linear forwards var(--d);
    stroke-dasharray:3337;
    stroke-dashoffset:3339;
    stroke-width:128;
    stroke-linecap:round;
    fill:none;
}
/* Low opacity for background improves visual overlap at intersections */
svg.acjk .bg { fill:#ccc; opacity: 0.5; } 
]]>
</style>
<defs>
    <clipPath id="z25423c1"><path d="M 345 344 Q 418 323 424 319 Q 433 312 427 303 Q 420 293 392 286 Q 367 282 346 291 C 313 302 313 302 297 308 Q 209 335 143 344 Q 109 351 134 366 Q 182 387 229 372 Q 260 365 296 356 C 329 348 329 348 345 344 Z"/></clipPath>
    <clipPath id="z25423c2"><path d="M 294 533 Q 293 636 291 770 Q 290 794 277 803 Q 267 810 243 804 Q 215 797 189 792 Q 156 782 159 791 Q 160 798 181 813 Q 251 862 269 892 Q 291 926 308 927 Q 321 927 336 893 Q 354 847 351 774 Q 344 635 342 497 C 342 477 342 477 342 467 Q 342 406 345 344 C 346 309 346 309 346 291 Q 364 138 366 135 Q 384 105 328 83 Q 294 64 275 71 Q 257 77 273 100 Q 295 128 296 161 Q 297 177 297 308 C 296 340 296 340 296 356 Q 295 414 294 494 C 294 520 294 520 294 533 Z"/></clipPath>
    <clipPath id="z25423c3"><path d="M 294 494 Q 195 549 109 603 Q 75 622 53 629 Q 41 633 39 642 Q 38 651 52 664 Q 71 679 92 687 Q 108 691 118 679 Q 199 603 294 533 C 326 509 326 509 342 497 Q 355 485 372 476 Q 394 463 404 448 Q 411 435 400 436 Q 382 437 342 467 C 310 485 310 485 294 494 Z"/></clipPath>
    <clipPath id="z25423c4"><path d="M 501 220 Q 480 207 457 202 Q 450 199 446 204 Q 439 210 448 221 Q 487 281 498 432 Q 499 486 535 515 Q 536 515 539 517 Q 554 521 555 497 C 555 480 555 480 555 472 Q 554 450 546 426 Q 542 404 538 376 C 536 361 536 361 535 353 Q 529 299 525 250 C 525 237 511 228 501 220 Z"/></clipPath>
    <clipPath id="z25423c5"><path d="M 712 476 Q 731 503 749 511 Q 759 518 775 496 Q 791 465 820 297 Q 829 266 852 240 Q 865 227 853 213 Q 837 195 793 170 Q 778 163 696 181 Q 681 181 501 220 C 488 222 513 254 525 250 Q 595 231 716 213 Q 744 209 753 219 Q 769 237 767 256 Q 743 427 724 446 C 717 454 706 467 712 476 Z"/></clipPath>
    <clipPath id="z25423c6"><path d="M 538 376 Q 544 377 555 376 Q 634 361 691 353 Q 715 349 705 336 Q 695 321 669 318 Q 638 315 535 353 C 528 356 530 376 538 376 Z"/></clipPath>
    <clipPath id="z25423c7"><path d="M 555 497 Q 559 497 566 497 Q 648 484 712 476 C 723 474 733 452 724 446 Q 718 442 709 441 Q 685 438 555 472 C 547 474 547 497 555 497 Z"/></clipPath>
    <clipPath id="z25423c8"><path d="M 665 653 Q 798 632 810 623 Q 819 616 814 608 Q 808 596 780 588 Q 750 579 668 607 C 633 615 633 615 615 619 Q 555 629 490 633 Q 456 637 479 654 Q 515 678 586 665 Q 599 662 615 662 C 648 656 648 656 665 653 Z"/></clipPath>
    <clipPath id="z25423c9"><path d="M 658 772 Q 661 708 665 653 C 667 622 667 622 668 607 Q 668 592 670 578 Q 677 560 669 551 Q 647 529 626 519 Q 616 515 607 519 Q 598 523 601 533 Q 610 551 615 615 Q 614 616 615 619 C 615 648 615 648 615 662 Q 615 705 615 776 C 615 790 658 786 658 772 Z"/></clipPath>
    <clipPath id="z25423c10"><path d="M 615 776 Q 506 786 386 798 Q 364 799 379 817 Q 394 832 412 838 Q 434 845 450 841 Q 618 802 889 811 Q 908 811 928 813 Q 949 814 954 805 Q 960 793 943 778 Q 889 736 851 744 Q 778 757 658 772 C 629 775 629 775 615 776 Z"/></clipPath>
</defs>
<g id="bg-layer">
    <path class="bg" d="M 345 344 Q 418 323 424 319 Q 433 312 427 303 Q 420 293 392 286 Q 367 282 346 291 C 313 302 313 302 297 308 Q 209 335 143 344 Q 109 351 134 366 Q 182 387 229 372 Q 260 365 296 356 C 329 348 329 348 345 344 Z"/>
    <path class="bg" d="M 294 533 Q 293 636 291 770 Q 290 794 277 803 Q 267 810 243 804 Q 215 797 189 792 Q 156 782 159 791 Q 160 798 181 813 Q 251 862 269 892 Q 291 926 308 927 Q 321 927 336 893 Q 354 847 351 774 Q 344 635 342 497 C 342 477 342 477 342 467 Q 342 406 345 344 C 346 309 346 309 346 291 Q 364 138 366 135 Q 384 105 328 83 Q 294 64 275 71 Q 257 77 273 100 Q 295 128 296 161 Q 297 177 297 308 C 296 340 296 340 296 356 Q 295 414 294 494 C 294 520 294 520 294 533 Z"/>
    <path class="bg" d="M 294 494 Q 195 549 109 603 Q 75 622 53 629 Q 41 633 39 642 Q 38 651 52 664 Q 71 679 92 687 Q 108 691 118 679 Q 199 603 294 533 C 326 509 326 509 342 497 Q 355 485 372 476 Q 394 463 404 448 Q 411 435 400 436 Q 382 437 342 467 C 310 485 310 485 294 494 Z"/>
    <path class="bg" d="M 501 220 Q 480 207 457 202 Q 450 199 446 204 Q 439 210 448 221 Q 487 281 498 432 Q 499 486 535 515 Q 536 515 539 517 Q 554 521 555 497 C 555 480 555 480 555 472 Q 554 450 546 426 Q 542 404 538 376 C 536 361 536 361 535 353 Q 529 299 525 250 C 525 237 511 228 501 220 Z"/>
    <path class="bg" d="M 712 476 Q 731 503 749 511 Q 759 518 775 496 Q 791 465 820 297 Q 829 266 852 240 Q 865 227 853 213 Q 837 195 793 170 Q 778 163 696 181 Q 681 181 501 220 C 488 222 513 254 525 250 Q 595 231 716 213 Q 744 209 753 219 Q 769 237 767 256 Q 743 427 724 446 C 717 454 706 467 712 476 Z"/>
    <path class="bg" d="M 538 376 Q 544 377 555 376 Q 634 361 691 353 Q 715 349 705 336 Q 695 321 669 318 Q 638 315 535 353 C 528 356 530 376 538 376 Z"/>
    <path class="bg" d="M 555 497 Q 559 497 566 497 Q 648 484 712 476 C 723 474 733 452 724 446 Q 718 442 709 441 Q 685 438 555 472 C 547 474 547 497 555 497 Z"/>
    <path class="bg" d="M 665 653 Q 798 632 810 623 Q 819 616 814 608 Q 808 596 780 588 Q 750 579 668 607 C 633 615 633 615 615 619 Q 555 629 490 633 Q 456 637 479 654 Q 515 678 586 665 Q 599 662 615 662 C 648 656 648 656 665 653 Z"/>
    <path class="bg" d="M 658 772 Q 661 708 665 653 C 667 622 667 622 668 607 Q 668 592 670 578 Q 677 560 669 551 Q 647 529 626 519 Q 616 515 607 519 Q 598 523 601 533 Q 610 551 615 615 Q 614 616 615 619 C 615 648 615 648 615 662 Q 615 705 615 776 C 615 790 658 786 658 772 Z"/>
    <path class="bg" d="M 615 776 Q 506 786 386 798 Q 364 799 379 817 Q 394 832 412 838 Q 434 845 450 841 Q 618 802 889 811 Q 908 811 928 813 Q 949 814 954 805 Q 960 793 943 778 Q 889 736 851 744 Q 778 757 658 772 C 629 775 629 775 615 776 Z"/>
</g>
<g id="anim-layer">
    <path style="--d:1s; stroke:#FF4444;" pathLength="3333" clip-path="url(#z25423c1)" d="M 135 355 L 424 305"/>
    <path style="--d:2s; stroke:#FF4444;" pathLength="3333" clip-path="url(#z25423c2)" d="M 273 76 L 332 137 L 320 795 L 285 875 L 168 792"/>
    <path style="--d:3s; stroke:#FF4444;" pathLength="3333" clip-path="url(#z25423c3)" d="M 44 640 L 99 650 L 400 443"/>
    <path style="--d:4s; stroke:#000;" pathLength="3333" clip-path="url(#z25423c4)" d="M 452 212 L 499 267 L 540 513"/>
    <path style="--d:5s; stroke:#000;" pathLength="3333" clip-path="url(#z25423c5)" d="M 511 224 L 742 191 L 810 229 L 738 503"/>
    <path style="--d:6s; stroke:#000;" pathLength="3333" clip-path="url(#z25423c6)" d="M 541 368 L 702 338"/>
    <path style="--d:7s; stroke:#000;" pathLength="3333" clip-path="url(#z25423c7)" d="M 562 489 L 718 452"/>
    <path style="--d:8s; stroke:#000;" pathLength="3333" clip-path="url(#z25423c8)" d="M 479 644 L 810 609"/>
    <path style="--d:9s; stroke:#000;" pathLength="3333" clip-path="url(#z25423c9)" d="M 606 524 L 642 571 L 632 774"/>
    <path style="--d:10s; stroke:#000;" pathLength="3333" clip-path="url(#z25423c10)" d="M 381 808 L 861 776 L 951 794"/>
</g>
</svg>