<svg id="z25551" class="acjk" viewBox="0 0 1024 1024" xmlns="http://www.w3.org/2000/svg">

<style>
<![CDATA[
@keyframes zk { to { stroke-dashoffset:0; } }
svg.acjk path[clip-path] {
    --t:0.8s;
    animation:zk var(--t) linear forwards var(--d);
    stroke-dasharray:3337;
    stroke-dashoffset:3339;
    stroke-width:128;
    stroke-linecap:round;
    fill:none;
}
/* Low opacity for background improves visual overlap at intersections */
svg.acjk .bg { fill:#ccc; opacity: 0.5; } 
]]>
</style>
<defs>
    <clipPath id="z25551c1"><path d="M 319 376 C 330 373 340 369 352 366 C 374 359 386 354 389 351 C 393 346 395 340 392 335 C 387 328 375 321 355 319 C 342 317 330 318 321 322 C 289 335 289 335 273 341 C 235 355 139 375 126 379 C 103 384 99 395 118 402 C 167 418 199 409 272 389 C 303 380 303 380 319 376 Z"/></clipPath>
    <clipPath id="z25551c2"><path d="M 269 568 C 269 626 267 691 266 763 C 265 779 261 790 253 796 C 249 798 228 799 192 790 C 170 784 161 780 163 787 C 163 791 170 798 183 809 C 219 840 241 865 250 883 C 260 903 269 915 279 916 C 287 917 298 906 308 884 C 320 855 327 817 325 770 C 321 689 317 610 317 531 C 317 510 317 510 317 500 C 317 458 317 416 319 376 C 320 340 320 340 321 322 C 323 250 324 191 341 149 C 348 129 338 115 304 99 C 282 88 266 82 253 87 C 242 90 241 101 252 116 C 264 133 271 152 273 174 C 273 186 275 241 273 341 C 272 373 272 373 272 389 C 271 412 269 511 269 528 C 269 555 269 555 269 568 Z"/></clipPath>
    <clipPath id="z25551c3"><path d="M 269 528 C 216 558 164 586 117 615 C 94 628 75 636 61 641 C 52 643 48 647 47 654 C 46 660 50 667 60 676 C 72 686 85 694 100 699 C 106 701 121 695 140 678 C 173 647 215 609 269 568 C 301 543 301 543 317 531 C 327 523 370 493 376 484 C 381 475 379 471 372 472 C 367 472 349 481 317 500 C 301 509 269 528 269 528 Z"/></clipPath>
    <clipPath id="z25551c4"><path d="M 756 310 C 783 307 831 301 901 304 C 911 304 917 302 920 296 C 922 289 921 280 912 273 C 881 247 851 247 771 263 C 736 270 736 270 719 273 C 676 281 631 287 585 295 C 557 300 557 300 543 302 C 507 308 470 310 433 316 C 415 318 412 324 425 333 C 451 349 492 349 548 338 C 574 333 574 333 587 330 C 612 324 689 315 709 314 C 740 311 740 311 756 310 Z"/></clipPath>
    <clipPath id="z25551c5"><path d="M 585 295 C 583 262 580 233 580 207 C 580 194 574 186 563 182 C 534 170 515 164 504 169 C 491 173 490 182 500 196 C 522 228 537 263 543 302 C 546 326 546 326 548 338 C 551 362 552 387 555 411 C 556 423 563 435 572 444 C 580 452 586 451 589 444 C 593 431 594 418 593 404 C 589 377 588 353 587 330 C 586 307 586 307 585 295 Z"/></clipPath>
    <clipPath id="z25551c6"><path d="M 771 263 C 776 245 783 209 809 160 C 815 147 818 141 812 134 C 802 123 785 113 761 102 C 749 96 738 95 726 103 C 719 107 720 112 725 121 C 738 146 737 198 719 273 C 712 300 712 300 709 314 C 693 378 685 416 686 429 C 686 439 692 440 703 431 C 713 421 733 381 756 310 C 766 279 766 279 771 263 Z"/></clipPath>
    <clipPath id="z25551c7"><path d="M 452 516 C 440 509 427 504 415 501 C 410 499 406 499 404 503 C 399 507 399 512 405 520 C 433 568 448 647 451 759 C 451 781 457 802 469 822 C 477 836 484 845 491 849 C 503 853 509 844 510 824 C 510 814 510 805 509 796 C 496 709 486 629 484 556 C 484 539 467 524 452 516 Z"/></clipPath>
    <clipPath id="z25551c8"><path d="M 783 797 C 785 813 787 838 798 870 C 815 914 838 906 854 874 C 874 830 882 781 887 725 C 889 690 895 652 900 610 C 903 576 913 547 930 527 C 941 512 944 500 935 492 C 919 476 894 462 862 447 C 849 440 830 440 807 449 C 714 483 596 506 452 516 C 435 516 467 559 484 556 C 511 554 570 539 613 532 C 639 527 639 527 652 525 C 757 506 816 493 829 509 C 835 517 837 528 838 539 C 838 601 831 664 822 726 C 819 742 811 768 799 776 C 793 782 781 788 783 797 Z"/></clipPath>
    <clipPath id="z25551c9"><path d="M 673 672 C 703 667 732 662 759 659 C 773 657 778 649 773 643 C 766 633 754 627 739 624 C 724 621 703 624 675 632 C 643 640 643 640 627 644 C 596 651 567 657 539 664 C 528 666 525 676 542 682 C 551 685 574 684 627 678 C 658 674 658 674 673 672 Z"/></clipPath>
    <clipPath id="z25551c10"><path d="M 668 772 C 668 736 671 702 673 672 C 674 645 674 645 675 632 C 675 618 677 584 680 571 C 683 554 675 539 652 525 C 641 518 608 520 613 532 C 619 546 627 583 627 644 C 627 667 627 667 627 678 C 627 704 627 738 628 779 C 628 793 668 786 668 772 Z"/></clipPath>
    <clipPath id="z25551c11"><path d="M 510 824 C 522 828 575 816 783 797 C 792 796 806 781 799 776 C 781 758 725 762 668 772 C 641 777 641 777 628 779 C 586 786 539 792 509 796 C 500 798 501 822 510 824 Z"/></clipPath>
</defs>
<g id="bg-layer">
    <path class="bg" d="M 319 376 C 330 373 340 369 352 366 C 374 359 386 354 389 351 C 393 346 395 340 392 335 C 387 328 375 321 355 319 C 342 317 330 318 321 322 C 289 335 289 335 273 341 C 235 355 139 375 126 379 C 103 384 99 395 118 402 C 167 418 199 409 272 389 C 303 380 303 380 319 376 Z"/>
    <path class="bg" d="M 269 568 C 269 626 267 691 266 763 C 265 779 261 790 253 796 C 249 798 228 799 192 790 C 170 784 161 780 163 787 C 163 791 170 798 183 809 C 219 840 241 865 250 883 C 260 903 269 915 279 916 C 287 917 298 906 308 884 C 320 855 327 817 325 770 C 321 689 317 610 317 531 C 317 510 317 510 317 500 C 317 458 317 416 319 376 C 320 340 320 340 321 322 C 323 250 324 191 341 149 C 348 129 338 115 304 99 C 282 88 266 82 253 87 C 242 90 241 101 252 116 C 264 133 271 152 273 174 C 273 186 275 241 273 341 C 272 373 272 373 272 389 C 271 412 269 511 269 528 C 269 555 269 555 269 568 Z"/>
    <path class="bg" d="M 269 528 C 216 558 164 586 117 615 C 94 628 75 636 61 641 C 52 643 48 647 47 654 C 46 660 50 667 60 676 C 72 686 85 694 100 699 C 106 701 121 695 140 678 C 173 647 215 609 269 568 C 301 543 301 543 317 531 C 327 523 370 493 376 484 C 381 475 379 471 372 472 C 367 472 349 481 317 500 C 301 509 269 528 269 528 Z"/>
    <path class="bg" d="M 756 310 C 783 307 831 301 901 304 C 911 304 917 302 920 296 C 922 289 921 280 912 273 C 881 247 851 247 771 263 C 736 270 736 270 719 273 C 676 281 631 287 585 295 C 557 300 557 300 543 302 C 507 308 470 310 433 316 C 415 318 412 324 425 333 C 451 349 492 349 548 338 C 574 333 574 333 587 330 C 612 324 689 315 709 314 C 740 311 740 311 756 310 Z"/>
    <path class="bg" d="M 585 295 C 583 262 580 233 580 207 C 580 194 574 186 563 182 C 534 170 515 164 504 169 C 491 173 490 182 500 196 C 522 228 537 263 543 302 C 546 326 546 326 548 338 C 551 362 552 387 555 411 C 556 423 563 435 572 444 C 580 452 586 451 589 444 C 593 431 594 418 593 404 C 589 377 588 353 587 330 C 586 307 586 307 585 295 Z"/>
    <path class="bg" d="M 771 263 C 776 245 783 209 809 160 C 815 147 818 141 812 134 C 802 123 785 113 761 102 C 749 96 738 95 726 103 C 719 107 720 112 725 121 C 738 146 737 198 719 273 C 712 300 712 300 709 314 C 693 378 685 416 686 429 C 686 439 692 440 703 431 C 713 421 733 381 756 310 C 766 279 766 279 771 263 Z"/>
    <path class="bg" d="M 452 516 C 440 509 427 504 415 501 C 410 499 406 499 404 503 C 399 507 399 512 405 520 C 433 568 448 647 451 759 C 451 781 457 802 469 822 C 477 836 484 845 491 849 C 503 853 509 844 510 824 C 510 814 510 805 509 796 C 496 709 486 629 484 556 C 484 539 467 524 452 516 Z"/>
    <path class="bg" d="M 783 797 C 785 813 787 838 798 870 C 815 914 838 906 854 874 C 874 830 882 781 887 725 C 889 690 895 652 900 610 C 903 576 913 547 930 527 C 941 512 944 500 935 492 C 919 476 894 462 862 447 C 849 440 830 440 807 449 C 714 483 596 506 452 516 C 435 516 467 559 484 556 C 511 554 570 539 613 532 C 639 527 639 527 652 525 C 757 506 816 493 829 509 C 835 517 837 528 838 539 C 838 601 831 664 822 726 C 819 742 811 768 799 776 C 793 782 781 788 783 797 Z"/>
    <path class="bg" d="M 673 672 C 703 667 732 662 759 659 C 773 657 778 649 773 643 C 766 633 754 627 739 624 C 724 621 703 624 675 632 C 643 640 643 640 627 644 C 596 651 567 657 539 664 C 528 666 525 676 542 682 C 551 685 574 684 627 678 C 658 674 658 674 673 672 Z"/>
    <path class="bg" d="M 668 772 C 668 736 671 702 673 672 C 674 645 674 645 675 632 C 675 618 677 584 680 571 C 683 554 675 539 652 525 C 641 518 608 520 613 532 C 619 546 627 583 627 644 C 627 667 627 667 627 678 C 627 704 627 738 628 779 C 628 793 668 786 668 772 Z"/>
    <path class="bg" d="M 510 824 C 522 828 575 816 783 797 C 792 796 806 781 799 776 C 781 758 725 762 668 772 C 641 777 641 777 628 779 C 586 786 539 792 509 796 C 500 798 501 822 510 824 Z"/>
</g>
<g id="anim-layer">
    <path style="--d:1s; stroke:#FF4444;" pathLength="3333" clip-path="url(#z25551c1)" d="M 112 388 L 389 342"/>
    <path style="--d:2s; stroke:#FF4444;" pathLength="3333" clip-path="url(#z25551c2)" d="M 252 91 L 307 155 L 292 804 L 270 862 L 172 790"/>
    <path style="--d:3s; stroke:#FF4444;" pathLength="3333" clip-path="url(#z25551c3)" d="M 50 653 L 116 655 L 369 480"/>
    <path style="--d:4s; stroke:#000;" pathLength="3333" clip-path="url(#z25551c4)" d="M 428 326 L 916 284"/>
    <path style="--d:5s; stroke:#000;" pathLength="3333" clip-path="url(#z25551c5)" d="M 499 177 L 550 216 L 579 444"/>
    <path style="--d:6s; stroke:#000;" pathLength="3333" clip-path="url(#z25551c6)" d="M 728 106 L 774 152 L 691 427"/>
    <path style="--d:7s; stroke:#000;" pathLength="3333" clip-path="url(#z25551c7)" d="M 408 507 L 454 557 L 491 844"/>
    <path style="--d:8s; stroke:#000;" pathLength="3333" clip-path="url(#z25551c8)" d="M 455 524 L 497 533 L 824 473 L 871 494 L 888 516 L 814 890"/>
    <path style="--d:9s; stroke:#000;" pathLength="3333" clip-path="url(#z25551c9)" d="M 539 673 L 769 647"/>
    <path style="--d:10s; stroke:#000;" pathLength="3333" clip-path="url(#z25551c10)" d="M 620 533 L 652 568 L 642 783"/>
    <path style="--d:11s; stroke:#000;" pathLength="3333" clip-path="url(#z25551c11)" d="M 507 813 L 793 780"/>
</g>
</svg>