<svg id="z25874" class="acjk" viewBox="0 0 1024 1024" xmlns="http://www.w3.org/2000/svg">

<style>
<![CDATA[
@keyframes zk { to { stroke-dashoffset:0; } }
svg.acjk path[clip-path] {
    --t:0.8s;
    animation:zk var(--t) linear forwards var(--d);
    stroke-dasharray:3337;
    stroke-dashoffset:3339;
    stroke-width:128;
    stroke-linecap:round;
    fill:none;
}
/* Low opacity for background improves visual overlap at intersections */
svg.acjk .bg { fill:#ccc; opacity: 0.5; } 
]]>
</style>
<defs>
    <clipPath id="z25874c1"><path d="M 297 341 Q 301 338 310 337 Q 341 327 345 322 Q 352 315 348 306 Q 338 291 299 291 C 282 291 267 300 251 306 Q 176 336 93 353 Q 60 362 86 375 Q 116 390 185 373 Q 216 364 251 355 C 282 346 282 346 297 341 Z"/></clipPath>
    <clipPath id="z25874c2"><path d="M 248 556 Q 247 650 247 769 Q 247 793 234 802 Q 230 805 160 796 Q 129 786 131 795 Q 132 802 152 816 Q 213 862 230 888 Q 249 919 264 920 Q 277 920 291 887 Q 307 844 304 773 Q 297 643 295 514 C 295 493 295 493 295 483 Q 294 411 297 341 C 298 308 298 308 299 291 Q 299 204 317 145 Q 333 117 280 95 Q 249 77 229 84 Q 213 90 228 112 Q 247 137 250 170 Q 251 186 251 306 C 251 339 251 339 251 355 Q 250 422 249 514 C 248 542 248 542 248 556 Z"/></clipPath>
    <clipPath id="z25874c3"><path d="M 249 514 Q 173 563 106 612 Q 75 634 54 642 Q 42 649 41 657 Q 41 666 55 678 Q 74 691 98 696 Q 108 697 131 677 Q 183 616 248 556 C 279 528 279 528 295 514 Q 305 502 317 494 Q 333 481 341 468 Q 347 455 336 456 Q 317 460 295 483 C 264 504 264 504 249 514 Z"/></clipPath>
    <clipPath id="z25874c4"><path d="M 433 247 Q 440 232 449 221 Q 455 212 445 204 Q 411 186 399 189 Q 392 190 395 200 Q 402 239 356 320 Q 352 330 361 326 Q 386 320 422 267 C 429 254 429 254 433 247 Z"/></clipPath>
    <clipPath id="z25874c5"><path d="M 526 260 Q 590 242 592 241 Q 599 235 595 229 Q 589 220 567 216 Q 548 213 531 220 C 504 229 504 229 491 234 Q 463 240 433 247 C 426 248 415 264 422 267 Q 453 280 491 269 C 514 263 514 263 526 260 Z"/></clipPath>
    <clipPath id="z25874c6"><path d="M 521 308 Q 522 283 526 260 C 529 233 529 233 531 220 Q 531 213 547 132 Q 548 125 535 113 Q 510 100 493 96 Q 483 93 476 99 Q 470 105 476 115 Q 488 133 489 145 Q 490 187 491 234 C 491 257 491 257 491 269 Q 490 293 490 319 C 490 330 521 319 521 308 Z"/></clipPath>
    <clipPath id="z25874c7"><path d="M 534 341 Q 556 335 578 332 Q 585 332 591 323 Q 591 314 575 308 Q 548 299 521 308 C 500 315 500 315 490 319 Q 481 320 473 324 Q 416 339 357 351 Q 338 355 354 366 Q 378 381 414 371 Q 423 368 435 366 C 450 362 450 362 458 360 Q 479 353 507 347 C 525 343 525 343 534 341 Z"/></clipPath>
    <clipPath id="z25874c8"><path d="M 435 366 Q 435 367 436 370 Q 445 418 372 508 Q 369 511 369 515 Q 369 518 372 518 Q 417 508 467 416 Q 474 403 479 396 Q 483 389 478 381 Q 468 366 458 360 C 452 355 433 358 435 366 Z"/></clipPath>
    <clipPath id="z25874c9"><path d="M 507 347 Q 522 374 513 412 Q 509 430 501 440 Q 492 453 497 466 Q 504 487 514 494 Q 521 498 529 488 Q 548 463 614 401 Q 624 392 625 388 Q 626 379 614 386 Q 548 419 545 420 Q 541 417 541 406 Q 545 378 549 370 Q 552 358 544 350 Q 540 344 534 341 C 526 336 503 339 507 347 Z"/></clipPath>
    <clipPath id="z25874c10"><path d="M 662 212 Q 671 193 681 179 Q 685 172 676 163 Q 646 145 633 150 Q 626 151 629 161 Q 638 203 592 280 Q 588 290 597 286 Q 618 282 652 230 C 659 218 659 218 662 212 Z"/></clipPath>
    <clipPath id="z25874c11"><path d="M 751 228 Q 784 218 819 210 Q 841 204 844 201 Q 851 195 847 189 Q 841 180 819 176 Q 792 170 755 189 C 728 197 728 197 715 201 Q 690 205 662 212 C 655 213 646 227 652 230 Q 679 242 715 237 C 739 231 739 231 751 228 Z"/></clipPath>
    <clipPath id="z25874c12"><path d="M 744 278 Q 747 251 751 228 C 754 202 754 202 755 189 Q 756 168 760 150 Q 760 143 770 108 Q 773 101 759 89 Q 734 76 717 72 Q 707 69 700 75 Q 694 79 700 91 Q 712 107 712 119 Q 713 158 715 201 C 715 225 715 225 715 237 Q 715 259 714 285 C 714 295 742 288 744 278 Z"/></clipPath>
    <clipPath id="z25874c13"><path d="M 696 318 Q 738 303 853 293 Q 886 293 888 285 Q 891 278 880 269 Q 837 245 794 264 Q 772 270 744 278 C 724 283 724 283 714 285 Q 665 295 610 309 Q 597 312 608 322 Q 618 329 630 332 Q 643 333 653 330 Q 662 326 672 324 C 688 320 688 320 696 318 Z"/></clipPath>
    <clipPath id="z25874c14"><path d="M 672 324 Q 671 324 672 325 Q 681 362 609 460 Q 605 463 605 467 Q 605 470 609 470 Q 651 455 703 371 Q 710 358 715 352 Q 719 345 714 337 Q 704 324 696 318 C 690 313 670 316 672 324 Z"/></clipPath>
    <clipPath id="z25874c15"><path d="M 940 419 Q 931 406 918 364 Q 917 354 912 351 Q 908 348 906 360 Q 890 406 880 420 Q 874 424 859 428 Q 826 432 797 423 Q 787 417 784 410 Q 778 392 791 346 Q 797 325 763 311 Q 754 307 748 311 Q 744 312 746 325 Q 753 353 751 378 Q 745 441 793 461 Q 794 461 796 462 Q 875 486 937 445 Q 947 435 940 419 Z"/></clipPath>
    <clipPath id="z25874c16"><path d="M 506 522 Q 488 509 469 503 Q 462 502 456 508 Q 455 512 460 521 Q 485 585 465 693 Q 441 739 475 781 Q 485 791 492 781 Q 513 757 514 638 Q 515 571 519 550 C 521 540 514 528 506 522 Z"/></clipPath>
    <clipPath id="z25874c17"><path d="M 711 710 Q 705 729 716 746 Q 726 770 734 769 Q 746 768 759 742 Q 772 721 770 705 Q 758 570 781 539 Q 790 524 783 516 Q 758 494 716 476 Q 703 472 681 478 Q 618 508 506 522 C 496 524 509 552 519 550 Q 520 550 613 531 Q 688 513 705 524 Q 711 537 714 575 Q 717 687 711 710 Z"/></clipPath>
    <clipPath id="z25874c18"><path d="M 582 649 Q 585 784 531 848 Q 518 858 502 870 Q 474 889 408 915 Q 398 916 394 920 Q 390 924 402 927 Q 463 933 549 887 Q 561 878 572 867 Q 609 825 628 670 Q 629 649 639 626 Q 643 616 636 610 Q 623 597 594 585 Q 578 578 564 582 Q 548 588 560 601 Q 582 625 582 649 Z"/></clipPath>
    <clipPath id="z25874c19"><path d="M 661 807 Q 706 855 758 922 Q 770 940 783 944 Q 790 945 797 938 Q 807 928 800 890 Q 791 845 664 781 Q 657 777 654 787 Q 653 797 661 807 Z"/></clipPath>
</defs>
<g id="bg-layer">
    <path class="bg" d="M 297 341 Q 301 338 310 337 Q 341 327 345 322 Q 352 315 348 306 Q 338 291 299 291 C 282 291 267 300 251 306 Q 176 336 93 353 Q 60 362 86 375 Q 116 390 185 373 Q 216 364 251 355 C 282 346 282 346 297 341 Z"/>
    <path class="bg" d="M 248 556 Q 247 650 247 769 Q 247 793 234 802 Q 230 805 160 796 Q 129 786 131 795 Q 132 802 152 816 Q 213 862 230 888 Q 249 919 264 920 Q 277 920 291 887 Q 307 844 304 773 Q 297 643 295 514 C 295 493 295 493 295 483 Q 294 411 297 341 C 298 308 298 308 299 291 Q 299 204 317 145 Q 333 117 280 95 Q 249 77 229 84 Q 213 90 228 112 Q 247 137 250 170 Q 251 186 251 306 C 251 339 251 339 251 355 Q 250 422 249 514 C 248 542 248 542 248 556 Z"/>
    <path class="bg" d="M 249 514 Q 173 563 106 612 Q 75 634 54 642 Q 42 649 41 657 Q 41 666 55 678 Q 74 691 98 696 Q 108 697 131 677 Q 183 616 248 556 C 279 528 279 528 295 514 Q 305 502 317 494 Q 333 481 341 468 Q 347 455 336 456 Q 317 460 295 483 C 264 504 264 504 249 514 Z"/>
    <path class="bg" d="M 433 247 Q 440 232 449 221 Q 455 212 445 204 Q 411 186 399 189 Q 392 190 395 200 Q 402 239 356 320 Q 352 330 361 326 Q 386 320 422 267 C 429 254 429 254 433 247 Z"/>
    <path class="bg" d="M 526 260 Q 590 242 592 241 Q 599 235 595 229 Q 589 220 567 216 Q 548 213 531 220 C 504 229 504 229 491 234 Q 463 240 433 247 C 426 248 415 264 422 267 Q 453 280 491 269 C 514 263 514 263 526 260 Z"/>
    <path class="bg" d="M 521 308 Q 522 283 526 260 C 529 233 529 233 531 220 Q 531 213 547 132 Q 548 125 535 113 Q 510 100 493 96 Q 483 93 476 99 Q 470 105 476 115 Q 488 133 489 145 Q 490 187 491 234 C 491 257 491 257 491 269 Q 490 293 490 319 C 490 330 521 319 521 308 Z"/>
    <path class="bg" d="M 534 341 Q 556 335 578 332 Q 585 332 591 323 Q 591 314 575 308 Q 548 299 521 308 C 500 315 500 315 490 319 Q 481 320 473 324 Q 416 339 357 351 Q 338 355 354 366 Q 378 381 414 371 Q 423 368 435 366 C 450 362 450 362 458 360 Q 479 353 507 347 C 525 343 525 343 534 341 Z"/>
    <path class="bg" d="M 435 366 Q 435 367 436 370 Q 445 418 372 508 Q 369 511 369 515 Q 369 518 372 518 Q 417 508 467 416 Q 474 403 479 396 Q 483 389 478 381 Q 468 366 458 360 C 452 355 433 358 435 366 Z"/>
    <path class="bg" d="M 507 347 Q 522 374 513 412 Q 509 430 501 440 Q 492 453 497 466 Q 504 487 514 494 Q 521 498 529 488 Q 548 463 614 401 Q 624 392 625 388 Q 626 379 614 386 Q 548 419 545 420 Q 541 417 541 406 Q 545 378 549 370 Q 552 358 544 350 Q 540 344 534 341 C 526 336 503 339 507 347 Z"/>
    <path class="bg" d="M 662 212 Q 671 193 681 179 Q 685 172 676 163 Q 646 145 633 150 Q 626 151 629 161 Q 638 203 592 280 Q 588 290 597 286 Q 618 282 652 230 C 659 218 659 218 662 212 Z"/>
    <path class="bg" d="M 751 228 Q 784 218 819 210 Q 841 204 844 201 Q 851 195 847 189 Q 841 180 819 176 Q 792 170 755 189 C 728 197 728 197 715 201 Q 690 205 662 212 C 655 213 646 227 652 230 Q 679 242 715 237 C 739 231 739 231 751 228 Z"/>
    <path class="bg" d="M 744 278 Q 747 251 751 228 C 754 202 754 202 755 189 Q 756 168 760 150 Q 760 143 770 108 Q 773 101 759 89 Q 734 76 717 72 Q 707 69 700 75 Q 694 79 700 91 Q 712 107 712 119 Q 713 158 715 201 C 715 225 715 225 715 237 Q 715 259 714 285 C 714 295 742 288 744 278 Z"/>
    <path class="bg" d="M 696 318 Q 738 303 853 293 Q 886 293 888 285 Q 891 278 880 269 Q 837 245 794 264 Q 772 270 744 278 C 724 283 724 283 714 285 Q 665 295 610 309 Q 597 312 608 322 Q 618 329 630 332 Q 643 333 653 330 Q 662 326 672 324 C 688 320 688 320 696 318 Z"/>
    <path class="bg" d="M 672 324 Q 671 324 672 325 Q 681 362 609 460 Q 605 463 605 467 Q 605 470 609 470 Q 651 455 703 371 Q 710 358 715 352 Q 719 345 714 337 Q 704 324 696 318 C 690 313 670 316 672 324 Z"/>
    <path class="bg" d="M 940 419 Q 931 406 918 364 Q 917 354 912 351 Q 908 348 906 360 Q 890 406 880 420 Q 874 424 859 428 Q 826 432 797 423 Q 787 417 784 410 Q 778 392 791 346 Q 797 325 763 311 Q 754 307 748 311 Q 744 312 746 325 Q 753 353 751 378 Q 745 441 793 461 Q 794 461 796 462 Q 875 486 937 445 Q 947 435 940 419 Z"/>
    <path class="bg" d="M 506 522 Q 488 509 469 503 Q 462 502 456 508 Q 455 512 460 521 Q 485 585 465 693 Q 441 739 475 781 Q 485 791 492 781 Q 513 757 514 638 Q 515 571 519 550 C 521 540 514 528 506 522 Z"/>
    <path class="bg" d="M 711 710 Q 705 729 716 746 Q 726 770 734 769 Q 746 768 759 742 Q 772 721 770 705 Q 758 570 781 539 Q 790 524 783 516 Q 758 494 716 476 Q 703 472 681 478 Q 618 508 506 522 C 496 524 509 552 519 550 Q 520 550 613 531 Q 688 513 705 524 Q 711 537 714 575 Q 717 687 711 710 Z"/>
    <path class="bg" d="M 582 649 Q 585 784 531 848 Q 518 858 502 870 Q 474 889 408 915 Q 398 916 394 920 Q 390 924 402 927 Q 463 933 549 887 Q 561 878 572 867 Q 609 825 628 670 Q 629 649 639 626 Q 643 616 636 610 Q 623 597 594 585 Q 578 578 564 582 Q 548 588 560 601 Q 582 625 582 649 Z"/>
    <path class="bg" d="M 661 807 Q 706 855 758 922 Q 770 940 783 944 Q 790 945 797 938 Q 807 928 800 890 Q 791 845 664 781 Q 657 777 654 787 Q 653 797 661 807 Z"/>
</g>
<g id="anim-layer">
    <path style="--d:1s; stroke:#FF4444;" pathLength="3333" clip-path="url(#z25874c1)" d="M 82 363 L 341 309"/>
    <path style="--d:2s; stroke:#FF4444;" pathLength="3333" clip-path="url(#z25874c2)" d="M 226 91 L 283 143 L 275 790 L 252 867 L 141 797"/>
    <path style="--d:3s; stroke:#FF4444;" pathLength="3333" clip-path="url(#z25874c3)" d="M 47 653 L 101 657 L 337 464"/>
    <path style="--d:4s; stroke:#000;" pathLength="3333" clip-path="url(#z25874c4)" d="M 402 199 L 419 234 L 363 320"/>
    <path style="--d:5s; stroke:#000;" pathLength="3333" clip-path="url(#z25874c5)" d="M 431 263 L 591 231"/>
    <path style="--d:6s; stroke:#000;" pathLength="3333" clip-path="url(#z25874c6)" d="M 481 104 L 517 134 L 501 314"/>
    <path style="--d:7s; stroke:#000;" pathLength="3333" clip-path="url(#z25874c7)" d="M 355 356 L 586 322"/>
    <path style="--d:8s; stroke:#000;" pathLength="3333" clip-path="url(#z25874c8)" d="M 455 365 L 441 430 L 379 510"/>
    <path style="--d:9s; stroke:#000;" pathLength="3333" clip-path="url(#z25874c9)" d="M 513 348 L 536 455 L 617 392"/>
    <path style="--d:10s; stroke:#000;" pathLength="3333" clip-path="url(#z25874c10)" d="M 635 157 L 654 187 L 600 280"/>
    <path style="--d:11s; stroke:#000;" pathLength="3333" clip-path="url(#z25874c11)" d="M 661 226 L 840 191"/>
    <path style="--d:12s; stroke:#000;" pathLength="3333" clip-path="url(#z25874c12)" d="M 706 82 L 740 113 L 722 278"/>
    <path style="--d:13s; stroke:#000;" pathLength="3333" clip-path="url(#z25874c13)" d="M 611 313 L 881 278"/>
    <path style="--d:14s; stroke:#000;" pathLength="3333" clip-path="url(#z25874c14)" d="M 697 327 L 613 461"/>
    <path style="--d:15s; stroke:#000;" pathLength="3333" clip-path="url(#z25874c15)" d="M 755 317 L 769 415 L 798 443 L 906 432 L 910 361"/>
    <path style="--d:16s; stroke:#000;" pathLength="3333" clip-path="url(#z25874c16)" d="M 462 509 L 494 552 L 481 777"/>
    <path style="--d:17s; stroke:#000;" pathLength="3333" clip-path="url(#z25874c17)" d="M 514 525 L 699 497 L 735 517 L 731 763"/>
    <path style="--d:18s; stroke:#000;" pathLength="3333" clip-path="url(#z25874c18)" d="M 564 590 L 610 627 L 573 822 L 517 883 L 400 921"/>
    <path style="--d:19s; stroke:#000;" pathLength="3333" clip-path="url(#z25874c19)" d="M 660 787 L 758 876 L 787 939"/>
</g>
</svg>