<svg id="z25968" class="acjk" viewBox="0 0 1024 1024" xmlns="http://www.w3.org/2000/svg">

<style>
<![CDATA[
@keyframes zk { to { stroke-dashoffset:0; } }
svg.acjk path[clip-path] {
    --t:0.8s;
    animation:zk var(--t) linear forwards var(--d);
    stroke-dasharray:3337;
    stroke-dashoffset:3339;
    stroke-width:128;
    stroke-linecap:round;
    fill:none;
}
/* Low opacity for background improves visual overlap at intersections */
svg.acjk .bg { fill:#ccc; opacity: 0.5; } 
]]>
</style>
<defs>
    <clipPath id="z25968c1"><path d="M 240 234 C 255 247 268 263 284 279 C 289 285 298 289 308 290 C 314 290 318 286 321 279 C 323 271 323 259 319 243 C 316 232 306 220 291 213 C 252 195 228 189 220 193 C 216 194 214 200 216 207 C 216 213 226 222 240 234 Z"/></clipPath>
    <clipPath id="z25968c2"><path d="M 488 170 C 477 188 460 210 439 237 C 436 240 434 246 439 249 C 441 251 447 248 451 246 C 493 217 525 196 547 187 C 556 182 560 179 558 174 C 554 164 548 156 538 147 C 527 137 517 130 505 130 C 496 129 493 136 494 146 C 494 152 493 160 488 170 Z"/></clipPath>
    <clipPath id="z25968c3"><path d="M 401 342 C 403 341 448 332 539 320 C 545 319 553 317 557 309 C 559 302 549 296 537 289 C 512 275 464 285 404 300 C 379 306 379 306 366 309 C 342 314 270 328 148 349 C 129 352 127 358 142 369 C 164 385 183 389 200 385 C 236 375 277 368 322 359 C 375 348 375 348 401 342 Z"/></clipPath>
    <clipPath id="z25968c4"><path d="M 363 377 C 361 415 355 444 352 464 C 350 471 354 489 366 514 C 370 524 380 527 389 521 C 396 515 399 461 400 360 C 400 354 400 348 401 342 C 403 314 403 314 404 300 C 409 223 418 168 436 136 C 439 129 439 121 431 114 C 398 85 371 76 354 82 C 345 84 342 91 347 100 C 362 128 369 163 368 208 C 366 246 367 278 366 309 C 364 354 364 354 363 377 Z"/></clipPath>
    <clipPath id="z25968c5"><path d="M 322 359 C 284 419 225 479 145 538 C 135 545 133 548 144 550 C 150 550 164 546 187 537 C 234 516 279 485 318 439 C 334 418 355 390 363 377 C 385 340 348 325 322 359 Z"/></clipPath>
    <clipPath id="z25968c6"><path d="M 437 400 C 464 440 486 461 503 465 C 510 466 518 463 521 452 C 522 444 520 433 516 422 C 512 411 501 404 488 398 C 466 386 452 378 443 377 C 438 376 434 378 433 385 C 431 389 432 394 437 400 Z"/></clipPath>
    <clipPath id="z25968c7"><path d="M 357 600 C 363 586 368 574 375 567 C 380 561 382 556 381 552 C 378 542 365 530 343 514 C 336 509 329 508 323 510 C 316 512 315 516 319 527 C 323 537 321 566 307 607 C 297 636 297 636 292 650 C 282 678 267 700 257 718 C 250 728 249 737 251 745 C 252 750 257 753 268 757 C 299 765 323 779 345 795 C 371 813 371 813 384 822 C 407 837 433 863 467 892 C 480 904 494 911 505 912 C 517 912 524 906 525 894 C 525 882 517 857 501 834 C 492 820 466 801 419 782 C 389 770 389 770 374 764 C 349 754 326 744 309 740 C 295 736 293 730 300 717 C 315 684 327 658 338 638 C 351 613 351 613 357 600 Z"/></clipPath>
    <clipPath id="z25968c8"><path d="M 345 795 C 304 832 242 861 174 889 C 164 892 166 897 177 898 C 261 901 348 850 384 822 C 397 810 408 796 419 782 C 456 729 468 678 479 639 C 485 614 489 598 495 590 C 499 583 499 576 495 571 C 488 562 476 556 462 552 C 449 548 440 547 429 551 C 422 553 417 557 423 565 C 427 571 431 579 432 587 C 434 604 434 604 435 613 C 436 621 432 649 423 673 C 411 705 392 741 374 764 C 364 774 355 785 345 795 Z"/></clipPath>
    <clipPath id="z25968c9"><path d="M 432 587 C 417 588 365 598 357 600 C 324 605 324 605 307 607 C 280 610 218 621 160 627 C 145 628 125 627 105 625 C 94 623 91 628 89 634 C 86 642 87 649 93 655 C 105 667 119 681 140 696 C 144 699 154 698 162 694 C 204 673 248 661 292 650 C 323 642 323 642 338 638 C 362 631 428 614 435 613 C 444 611 441 587 432 587 Z"/></clipPath>
    <clipPath id="z25968c10"><path d="M 614 421 C 649 364 680 295 707 218 C 716 190 725 168 735 154 C 740 146 739 138 734 130 C 729 122 715 112 694 103 C 673 94 657 91 646 95 C 635 98 632 107 641 120 C 671 160 642 279 548 477 C 544 485 540 491 540 495 C 539 503 543 504 552 501 C 561 496 578 476 602 440 C 610 427 610 427 614 421 Z"/></clipPath>
    <clipPath id="z25968c11"><path d="M 751 436 C 852 411 902 392 904 391 C 910 386 911 379 908 375 C 903 367 890 361 872 358 C 856 355 813 370 738 393 C 682 409 641 416 614 421 C 607 422 595 437 602 440 C 625 451 670 455 705 447 C 736 440 736 440 751 436 Z"/></clipPath>
    <clipPath id="z25968c12"><path d="M 712 700 C 747 645 760 585 774 501 C 776 486 777 474 782 469 C 785 463 786 458 783 453 C 780 447 769 442 751 436 C 736 430 699 432 705 447 C 723 501 705 613 679 661 C 671 674 664 687 655 699 C 630 730 585 765 515 803 C 500 811 502 814 520 815 C 564 815 651 773 683 740 C 694 728 703 713 712 700 Z"/></clipPath>
    <clipPath id="z25968c13"><path d="M 683 740 C 745 830 794 879 825 887 C 833 889 877 889 955 886 C 963 885 972 885 981 881 C 987 877 985 870 979 865 C 968 857 925 838 851 807 C 804 787 756 753 712 700 C 690 674 690 674 679 661 C 656 633 633 604 613 572 C 601 555 585 543 564 538 C 554 535 548 535 542 540 C 537 543 539 549 545 555 C 549 559 555 563 560 567 C 574 577 601 621 655 699 C 674 726 674 726 683 740 Z"/></clipPath>
</defs>
<g id="bg-layer">
    <path class="bg" d="M 240 234 C 255 247 268 263 284 279 C 289 285 298 289 308 290 C 314 290 318 286 321 279 C 323 271 323 259 319 243 C 316 232 306 220 291 213 C 252 195 228 189 220 193 C 216 194 214 200 216 207 C 216 213 226 222 240 234 Z"/>
    <path class="bg" d="M 488 170 C 477 188 460 210 439 237 C 436 240 434 246 439 249 C 441 251 447 248 451 246 C 493 217 525 196 547 187 C 556 182 560 179 558 174 C 554 164 548 156 538 147 C 527 137 517 130 505 130 C 496 129 493 136 494 146 C 494 152 493 160 488 170 Z"/>
    <path class="bg" d="M 401 342 C 403 341 448 332 539 320 C 545 319 553 317 557 309 C 559 302 549 296 537 289 C 512 275 464 285 404 300 C 379 306 379 306 366 309 C 342 314 270 328 148 349 C 129 352 127 358 142 369 C 164 385 183 389 200 385 C 236 375 277 368 322 359 C 375 348 375 348 401 342 Z"/>
    <path class="bg" d="M 363 377 C 361 415 355 444 352 464 C 350 471 354 489 366 514 C 370 524 380 527 389 521 C 396 515 399 461 400 360 C 400 354 400 348 401 342 C 403 314 403 314 404 300 C 409 223 418 168 436 136 C 439 129 439 121 431 114 C 398 85 371 76 354 82 C 345 84 342 91 347 100 C 362 128 369 163 368 208 C 366 246 367 278 366 309 C 364 354 364 354 363 377 Z"/>
    <path class="bg" d="M 322 359 C 284 419 225 479 145 538 C 135 545 133 548 144 550 C 150 550 164 546 187 537 C 234 516 279 485 318 439 C 334 418 355 390 363 377 C 385 340 348 325 322 359 Z"/>
    <path class="bg" d="M 437 400 C 464 440 486 461 503 465 C 510 466 518 463 521 452 C 522 444 520 433 516 422 C 512 411 501 404 488 398 C 466 386 452 378 443 377 C 438 376 434 378 433 385 C 431 389 432 394 437 400 Z"/>
    <path class="bg" d="M 357 600 C 363 586 368 574 375 567 C 380 561 382 556 381 552 C 378 542 365 530 343 514 C 336 509 329 508 323 510 C 316 512 315 516 319 527 C 323 537 321 566 307 607 C 297 636 297 636 292 650 C 282 678 267 700 257 718 C 250 728 249 737 251 745 C 252 750 257 753 268 757 C 299 765 323 779 345 795 C 371 813 371 813 384 822 C 407 837 433 863 467 892 C 480 904 494 911 505 912 C 517 912 524 906 525 894 C 525 882 517 857 501 834 C 492 820 466 801 419 782 C 389 770 389 770 374 764 C 349 754 326 744 309 740 C 295 736 293 730 300 717 C 315 684 327 658 338 638 C 351 613 351 613 357 600 Z"/>
    <path class="bg" d="M 345 795 C 304 832 242 861 174 889 C 164 892 166 897 177 898 C 261 901 348 850 384 822 C 397 810 408 796 419 782 C 456 729 468 678 479 639 C 485 614 489 598 495 590 C 499 583 499 576 495 571 C 488 562 476 556 462 552 C 449 548 440 547 429 551 C 422 553 417 557 423 565 C 427 571 431 579 432 587 C 434 604 434 604 435 613 C 436 621 432 649 423 673 C 411 705 392 741 374 764 C 364 774 355 785 345 795 Z"/>
    <path class="bg" d="M 432 587 C 417 588 365 598 357 600 C 324 605 324 605 307 607 C 280 610 218 621 160 627 C 145 628 125 627 105 625 C 94 623 91 628 89 634 C 86 642 87 649 93 655 C 105 667 119 681 140 696 C 144 699 154 698 162 694 C 204 673 248 661 292 650 C 323 642 323 642 338 638 C 362 631 428 614 435 613 C 444 611 441 587 432 587 Z"/>
    <path class="bg" d="M 614 421 C 649 364 680 295 707 218 C 716 190 725 168 735 154 C 740 146 739 138 734 130 C 729 122 715 112 694 103 C 673 94 657 91 646 95 C 635 98 632 107 641 120 C 671 160 642 279 548 477 C 544 485 540 491 540 495 C 539 503 543 504 552 501 C 561 496 578 476 602 440 C 610 427 610 427 614 421 Z"/>
    <path class="bg" d="M 751 436 C 852 411 902 392 904 391 C 910 386 911 379 908 375 C 903 367 890 361 872 358 C 856 355 813 370 738 393 C 682 409 641 416 614 421 C 607 422 595 437 602 440 C 625 451 670 455 705 447 C 736 440 736 440 751 436 Z"/>
    <path class="bg" d="M 712 700 C 747 645 760 585 774 501 C 776 486 777 474 782 469 C 785 463 786 458 783 453 C 780 447 769 442 751 436 C 736 430 699 432 705 447 C 723 501 705 613 679 661 C 671 674 664 687 655 699 C 630 730 585 765 515 803 C 500 811 502 814 520 815 C 564 815 651 773 683 740 C 694 728 703 713 712 700 Z"/>
    <path class="bg" d="M 683 740 C 745 830 794 879 825 887 C 833 889 877 889 955 886 C 963 885 972 885 981 881 C 987 877 985 870 979 865 C 968 857 925 838 851 807 C 804 787 756 753 712 700 C 690 674 690 674 679 661 C 656 633 633 604 613 572 C 601 555 585 543 564 538 C 554 535 548 535 542 540 C 537 543 539 549 545 555 C 549 559 555 563 560 567 C 574 577 601 621 655 699 C 674 726 674 726 683 740 Z"/>
</g>
<g id="anim-layer">
    <path style="--d:1s; stroke:#FF4444;" pathLength="3333" clip-path="url(#z25968c1)" d="M 223 198 L 316 277"/>
    <path style="--d:2s; stroke:#FF4444;" pathLength="3333" clip-path="url(#z25968c2)" d="M 503 141 L 520 171 L 444 242"/>
    <path style="--d:3s; stroke:#FF4444;" pathLength="3333" clip-path="url(#z25968c3)" d="M 143 361 L 553 308"/>
    <path style="--d:4s; stroke:#FF4444;" pathLength="3333" clip-path="url(#z25968c4)" d="M 352 89 L 401 137 L 383 520"/>
    <path style="--d:5s; stroke:#FF4444;" pathLength="3333" clip-path="url(#z25968c5)" d="M 356 359 L 244 483 L 147 542"/>
    <path style="--d:6s; stroke:#FF4444;" pathLength="3333" clip-path="url(#z25968c6)" d="M 440 385 L 510 458"/>
    <path style="--d:7s; stroke:#FF4444;" pathLength="3333" clip-path="url(#z25968c7)" d="M 325 518 L 348 563 L 276 742 L 433 821 L 510 906"/>
    <path style="--d:8s; stroke:#FF4444;" pathLength="3333" clip-path="url(#z25968c8)" d="M 429 556 L 465 586 L 396 773 L 304 852 L 177 893"/>
    <path style="--d:9s; stroke:#FF4444;" pathLength="3333" clip-path="url(#z25968c9)" d="M 92 637 L 155 662 L 432 600"/>
    <path style="--d:10s; stroke:#000;" pathLength="3333" clip-path="url(#z25968c10)" d="M 643 101 L 693 159 L 625 355 L 546 495"/>
    <path style="--d:11s; stroke:#000;" pathLength="3333" clip-path="url(#z25968c11)" d="M 612 438 L 899 382"/>
    <path style="--d:12s; stroke:#000;" pathLength="3333" clip-path="url(#z25968c12)" d="M 711 449 L 749 478 L 700 672 L 637 750 L 516 811"/>
    <path style="--d:13s; stroke:#000;" pathLength="3333" clip-path="url(#z25968c13)" d="M 546 545 L 596 579 L 797 823 L 979 875"/>
</g>
</svg>