<svg id="z26015" class="acjk" viewBox="0 0 1024 1024" xmlns="http://www.w3.org/2000/svg">

<style>
<![CDATA[
@keyframes zk { to { stroke-dashoffset:0; } }
svg.acjk path[clip-path] {
    --t:0.8s;
    animation:zk var(--t) linear forwards var(--d);
    stroke-dasharray:3337;
    stroke-dashoffset:3339;
    stroke-width:128;
    stroke-linecap:round;
    fill:none;
}
/* Low opacity for background improves visual overlap at intersections */
svg.acjk .bg { fill:#ccc; opacity: 0.5; } 
]]>
</style>
<defs>
    <clipPath id="z26015c1"><path d="M 448 247 C 463 243 520 232 515 211 C 513 203 499 198 482 194 C 471 191 460 190 451 194 C 418 204 418 204 402 209 C 386 213 303 237 283 242 C 248 249 248 249 231 253 C 204 258 176 261 148 266 C 125 269 122 276 139 287 C 174 308 201 303 236 295 C 266 288 266 288 281 284 C 319 274 359 266 402 257 C 433 250 433 250 448 247 Z"/></clipPath>
    <clipPath id="z26015c2"><path d="M 283 242 C 283 225 285 215 287 209 C 289 194 286 182 277 174 C 262 161 246 151 229 145 C 219 141 211 141 206 145 C 200 149 199 156 204 166 C 216 194 225 222 231 253 C 234 281 234 281 236 295 C 238 341 240 431 241 563 C 241 577 281 569 281 555 C 280 530 279 507 279 486 C 279 467 279 467 279 458 C 279 413 279 413 279 391 C 279 372 279 372 279 362 C 279 326 279 300 281 284 C 282 256 282 256 283 242 Z"/></clipPath>
    <clipPath id="z26015c3"><path d="M 430 523 C 436 427 443 335 448 247 C 450 212 450 212 451 194 C 453 157 463 122 473 89 C 475 82 470 72 457 64 C 435 49 415 43 400 40 C 382 35 362 44 376 67 C 406 117 402 152 402 209 C 402 241 402 241 402 257 C 402 343 397 435 390 532 C 390 546 430 537 430 523 Z"/></clipPath>
    <clipPath id="z26015c4"><path d="M 279 391 C 311 386 340 382 365 378 C 395 372 372 350 344 347 C 320 344 298 350 279 362 C 271 367 270 393 279 391 Z"/></clipPath>
    <clipPath id="z26015c5"><path d="M 279 486 C 313 480 342 474 366 470 C 393 464 374 442 344 440 C 323 438 299 449 279 458 C 270 461 270 488 279 486 Z"/></clipPath>
    <clipPath id="z26015c6"><path d="M 183 618 C 276 591 390 562 529 547 C 554 544 547 525 530 517 C 511 508 478 512 430 523 C 403 529 403 529 390 532 C 348 541 311 548 281 555 C 254 560 254 560 241 563 C 162 578 140 581 61 588 C 42 589 40 602 57 617 C 84 640 112 638 141 630 C 169 622 169 622 183 618 Z"/></clipPath>
    <clipPath id="z26015c7"><path d="M 279 658 Q 263 686 231 731 Q 227 735 231 741 Q 237 742 242 738 Q 303 689 333 670 Q 345 666 342 658 Q 338 648 322 635 Q 309 622 292 622 Q 282 623 283 637 Q 284 647 279 658 Z"/></clipPath>
    <clipPath id="z26015c8"><path d="M 404 638 Q 429 665 455 696 Q 464 706 476 708 Q 483 709 489 699 Q 495 689 491 665 Q 487 637 405 600 Q 393 596 388 598 Q 384 599 384 610 Q 385 619 404 638 Z"/></clipPath>
    <clipPath id="z26015c9"><path d="M 141 630 Q 166 681 152 767 Q 151 786 129 811 Q 120 821 123 834 Q 127 844 144 856 Q 157 863 169 850 Q 265 796 495 795 Q 499 795 504 795 Q 526 796 533 784 Q 539 774 519 763 Q 456 724 408 747 Q 293 769 218 792 Q 185 805 193 774 Q 200 689 213 655 Q 220 645 214 635 Q 208 626 183 618 C 169 613 136 616 141 630 Z"/></clipPath>
    <clipPath id="z26015c10"><path d="M 586 274 C 600 284 614 297 630 311 C 642 321 663 326 669 308 C 671 299 669 286 663 269 C 656 253 628 242 579 233 C 557 229 554 235 558 248 C 559 254 570 262 586 274 Z"/></clipPath>
    <clipPath id="z26015c11"><path d="M 574 422 C 588 432 602 445 618 459 C 630 469 651 474 657 456 C 659 447 657 434 651 417 C 644 401 616 390 567 381 C 545 377 542 383 546 396 C 547 402 558 410 574 422 Z"/></clipPath>
    <clipPath id="z26015c12"><path d="M 770 561 C 810 554 859 548 917 548 C 937 547 999 540 961 514 C 925 488 888 486 852 498 C 828 505 800 512 770 519 C 737 526 737 526 720 530 C 677 539 556 562 514 571 C 501 573 499 579 510 589 C 538 613 563 606 576 603 C 614 592 674 576 720 569 C 753 564 753 564 770 561 Z"/></clipPath>
    <clipPath id="z26015c13"><path d="M 720 569 C 720 803 717 932 732 953 C 740 964 749 960 755 947 C 766 918 770 790 770 561 C 770 533 770 533 770 519 C 770 361 772 247 776 178 C 777 155 783 134 795 113 C 800 102 795 92 782 83 C 765 70 744 59 716 53 C 698 48 673 58 688 82 C 730 152 720 177 720 530 C 720 556 720 556 720 569 Z"/></clipPath>
</defs>
<g id="bg-layer">
    <path class="bg" d="M 448 247 C 463 243 520 232 515 211 C 513 203 499 198 482 194 C 471 191 460 190 451 194 C 418 204 418 204 402 209 C 386 213 303 237 283 242 C 248 249 248 249 231 253 C 204 258 176 261 148 266 C 125 269 122 276 139 287 C 174 308 201 303 236 295 C 266 288 266 288 281 284 C 319 274 359 266 402 257 C 433 250 433 250 448 247 Z"/>
    <path class="bg" d="M 283 242 C 283 225 285 215 287 209 C 289 194 286 182 277 174 C 262 161 246 151 229 145 C 219 141 211 141 206 145 C 200 149 199 156 204 166 C 216 194 225 222 231 253 C 234 281 234 281 236 295 C 238 341 240 431 241 563 C 241 577 281 569 281 555 C 280 530 279 507 279 486 C 279 467 279 467 279 458 C 279 413 279 413 279 391 C 279 372 279 372 279 362 C 279 326 279 300 281 284 C 282 256 282 256 283 242 Z"/>
    <path class="bg" d="M 430 523 C 436 427 443 335 448 247 C 450 212 450 212 451 194 C 453 157 463 122 473 89 C 475 82 470 72 457 64 C 435 49 415 43 400 40 C 382 35 362 44 376 67 C 406 117 402 152 402 209 C 402 241 402 241 402 257 C 402 343 397 435 390 532 C 390 546 430 537 430 523 Z"/>
    <path class="bg" d="M 279 391 C 311 386 340 382 365 378 C 395 372 372 350 344 347 C 320 344 298 350 279 362 C 271 367 270 393 279 391 Z"/>
    <path class="bg" d="M 279 486 C 313 480 342 474 366 470 C 393 464 374 442 344 440 C 323 438 299 449 279 458 C 270 461 270 488 279 486 Z"/>
    <path class="bg" d="M 183 618 C 276 591 390 562 529 547 C 554 544 547 525 530 517 C 511 508 478 512 430 523 C 403 529 403 529 390 532 C 348 541 311 548 281 555 C 254 560 254 560 241 563 C 162 578 140 581 61 588 C 42 589 40 602 57 617 C 84 640 112 638 141 630 C 169 622 169 622 183 618 Z"/>
    <path class="bg" d="M 279 658 Q 263 686 231 731 Q 227 735 231 741 Q 237 742 242 738 Q 303 689 333 670 Q 345 666 342 658 Q 338 648 322 635 Q 309 622 292 622 Q 282 623 283 637 Q 284 647 279 658 Z"/>
    <path class="bg" d="M 404 638 Q 429 665 455 696 Q 464 706 476 708 Q 483 709 489 699 Q 495 689 491 665 Q 487 637 405 600 Q 393 596 388 598 Q 384 599 384 610 Q 385 619 404 638 Z"/>
    <path class="bg" d="M 141 630 Q 166 681 152 767 Q 151 786 129 811 Q 120 821 123 834 Q 127 844 144 856 Q 157 863 169 850 Q 265 796 495 795 Q 499 795 504 795 Q 526 796 533 784 Q 539 774 519 763 Q 456 724 408 747 Q 293 769 218 792 Q 185 805 193 774 Q 200 689 213 655 Q 220 645 214 635 Q 208 626 183 618 C 169 613 136 616 141 630 Z"/>
    <path class="bg" d="M 586 274 C 600 284 614 297 630 311 C 642 321 663 326 669 308 C 671 299 669 286 663 269 C 656 253 628 242 579 233 C 557 229 554 235 558 248 C 559 254 570 262 586 274 Z"/>
    <path class="bg" d="M 574 422 C 588 432 602 445 618 459 C 630 469 651 474 657 456 C 659 447 657 434 651 417 C 644 401 616 390 567 381 C 545 377 542 383 546 396 C 547 402 558 410 574 422 Z"/>
    <path class="bg" d="M 770 561 C 810 554 859 548 917 548 C 937 547 999 540 961 514 C 925 488 888 486 852 498 C 828 505 800 512 770 519 C 737 526 737 526 720 530 C 677 539 556 562 514 571 C 501 573 499 579 510 589 C 538 613 563 606 576 603 C 614 592 674 576 720 569 C 753 564 753 564 770 561 Z"/>
    <path class="bg" d="M 720 569 C 720 803 717 932 732 953 C 740 964 749 960 755 947 C 766 918 770 790 770 561 C 770 533 770 533 770 519 C 770 361 772 247 776 178 C 777 155 783 134 795 113 C 800 102 795 92 782 83 C 765 70 744 59 716 53 C 698 48 673 58 688 82 C 730 152 720 177 720 530 C 720 556 720 556 720 569 Z"/>
</g>
<g id="anim-layer">
    <path style="--d:1s; stroke:#FF4444;" pathLength="3333" clip-path="url(#z26015c1)" d="M 137 275 L 201 280 L 508 215"/>
    <path style="--d:2s; stroke:#FF4444;" pathLength="3333" clip-path="url(#z26015c2)" d="M 210 149 L 256 219 L 254 568"/>
    <path style="--d:3s; stroke:#FF4444;" pathLength="3333" clip-path="url(#z26015c3)" d="M 377 45 L 433 95 L 406 536"/>
    <path style="--d:4s; stroke:#FF4444;" pathLength="3333" clip-path="url(#z26015c4)" d="M 277 382 L 373 364"/>
    <path style="--d:5s; stroke:#FF4444;" pathLength="3333" clip-path="url(#z26015c5)" d="M 275 476 L 374 456"/>
    <path style="--d:6s; stroke:#FF4444;" pathLength="3333" clip-path="url(#z26015c6)" d="M 49 599 L 109 610 L 539 536"/>
    <path style="--d:7s; stroke:#FF4444;" pathLength="3333" clip-path="url(#z26015c7)" d="M 292 626 L 307 665 L 236 734"/>
    <path style="--d:8s; stroke:#FF4444;" pathLength="3333" clip-path="url(#z26015c8)" d="M 391 602 L 479 704"/>
    <path style="--d:9s; stroke:#FF4444;" pathLength="3333" clip-path="url(#z26015c9)" d="M 147 624 L 184 653 L 174 826 L 436 767 L 528 777"/>
    <path style="--d:10s; stroke:#000;" pathLength="3333" clip-path="url(#z26015c10)" d="M 561 240 L 632 276 L 656 315"/>
    <path style="--d:11s; stroke:#000;" pathLength="3333" clip-path="url(#z26015c11)" d="M 549 388 L 620 424 L 644 463"/>
    <path style="--d:12s; stroke:#000;" pathLength="3333" clip-path="url(#z26015c12)" d="M 509 577 L 968 523"/>
    <path style="--d:13s; stroke:#000;" pathLength="3333" clip-path="url(#z26015c13)" d="M 689 62 L 753 118 L 740 955"/>
</g>
</svg>