<svg id="z26094" class="acjk" viewBox="0 0 1024 1024" xmlns="http://www.w3.org/2000/svg">

<style>
<![CDATA[
@keyframes zk { to { stroke-dashoffset:0; } }
svg.acjk path[clip-path] {
    --t:0.8s;
    animation:zk var(--t) linear forwards var(--d);
    stroke-dasharray:3337;
    stroke-dashoffset:3339;
    stroke-width:128;
    stroke-linecap:round;
    fill:none;
}
/* Low opacity for background improves visual overlap at intersections */
svg.acjk .bg { fill:#ccc; opacity: 0.5; } 
]]>
</style>
<defs>
    <clipPath id="z26094c1"><path d="M 427 266 Q 364 473 197 566 Q 181 576 165 587 Q 150 596 163 600 Q 179 601 216 589 Q 277 565 326 526 Q 369 493 415 427 Q 473 318 488 249 C 493 230 493 230 496 220 Q 508 160 530 126 Q 540 107 524 96 Q 475 54 447 63 Q 432 67 438 83 Q 456 125 435 234 C 430 255 430 255 427 266 Z"/></clipPath>
    <clipPath id="z26094c2"><path d="M 488 249 Q 552 231 600 225 Q 621 221 626 227 Q 629 231 627 240 Q 558 507 703 553 Q 728 560 764 566 Q 887 579 964 531 Q 985 519 975 495 Q 953 446 939 367 Q 936 349 930 351 Q 926 351 922 369 Q 904 463 885 485 Q 869 500 816 504 Q 758 511 711 495 Q 669 482 657 452 Q 632 397 690 266 Q 703 239 721 226 Q 736 213 734 202 Q 733 192 671 162 Q 658 153 641 166 Q 595 197 514 215 Q 504 216 496 220 C 455 229 455 229 435 234 Q 380 244 324 258 Q 281 267 210 265 Q 197 264 198 278 Q 199 290 225 304 Q 252 322 287 308 Q 362 283 427 266 C 468 255 468 255 488 249 Z"/></clipPath>
    <clipPath id="z26094c3"><path d="M 376 607 Q 364 595 343 587 Q 334 583 323 586 Q 317 590 322 602 Q 349 716 325 823 Q 318 829 320 868 Q 320 892 343 919 Q 352 931 362 920 Q 372 907 373 890 C 375 868 375 868 376 857 Q 377 850 377 840 Q 378 788 380 750 C 380 733 380 733 380 724 Q 383 640 386 638 C 388 627 385 614 376 607 Z"/></clipPath>
    <clipPath id="z26094c4"><path d="M 571 870 Q 599 906 620 940 Q 630 958 640 957 Q 656 956 672 922 Q 690 885 687 837 Q 680 776 672 663 Q 671 632 686 611 Q 695 599 686 589 Q 668 570 617 548 Q 601 539 585 548 Q 504 587 376 607 C 365 609 375 640 386 638 Q 588 593 590 593 Q 597 594 603 599 Q 615 614 616 824 Q 615 830 615 835 Q 611 850 596 848 C 585 848 564 861 571 870 Z"/></clipPath>
    <clipPath id="z26094c5"><path d="M 380 750 Q 387 751 396 750 Q 480 738 542 732 Q 564 729 557 716 Q 547 701 521 696 Q 491 690 380 724 C 372 727 371 750 380 750 Z"/></clipPath>
    <clipPath id="z26094c6"><path d="M 373 890 Q 409 878 571 870 C 582 870 605 855 596 848 Q 589 841 576 832 Q 561 823 532 829 Q 447 848 376 857 C 365 859 362 892 373 890 Z"/></clipPath>
</defs>
<g id="bg-layer">
    <path class="bg" d="M 427 266 Q 364 473 197 566 Q 181 576 165 587 Q 150 596 163 600 Q 179 601 216 589 Q 277 565 326 526 Q 369 493 415 427 Q 473 318 488 249 C 493 230 493 230 496 220 Q 508 160 530 126 Q 540 107 524 96 Q 475 54 447 63 Q 432 67 438 83 Q 456 125 435 234 C 430 255 430 255 427 266 Z"/>
    <path class="bg" d="M 488 249 Q 552 231 600 225 Q 621 221 626 227 Q 629 231 627 240 Q 558 507 703 553 Q 728 560 764 566 Q 887 579 964 531 Q 985 519 975 495 Q 953 446 939 367 Q 936 349 930 351 Q 926 351 922 369 Q 904 463 885 485 Q 869 500 816 504 Q 758 511 711 495 Q 669 482 657 452 Q 632 397 690 266 Q 703 239 721 226 Q 736 213 734 202 Q 733 192 671 162 Q 658 153 641 166 Q 595 197 514 215 Q 504 216 496 220 C 455 229 455 229 435 234 Q 380 244 324 258 Q 281 267 210 265 Q 197 264 198 278 Q 199 290 225 304 Q 252 322 287 308 Q 362 283 427 266 C 468 255 468 255 488 249 Z"/>
    <path class="bg" d="M 376 607 Q 364 595 343 587 Q 334 583 323 586 Q 317 590 322 602 Q 349 716 325 823 Q 318 829 320 868 Q 320 892 343 919 Q 352 931 362 920 Q 372 907 373 890 C 375 868 375 868 376 857 Q 377 850 377 840 Q 378 788 380 750 C 380 733 380 733 380 724 Q 383 640 386 638 C 388 627 385 614 376 607 Z"/>
    <path class="bg" d="M 571 870 Q 599 906 620 940 Q 630 958 640 957 Q 656 956 672 922 Q 690 885 687 837 Q 680 776 672 663 Q 671 632 686 611 Q 695 599 686 589 Q 668 570 617 548 Q 601 539 585 548 Q 504 587 376 607 C 365 609 375 640 386 638 Q 588 593 590 593 Q 597 594 603 599 Q 615 614 616 824 Q 615 830 615 835 Q 611 850 596 848 C 585 848 564 861 571 870 Z"/>
    <path class="bg" d="M 380 750 Q 387 751 396 750 Q 480 738 542 732 Q 564 729 557 716 Q 547 701 521 696 Q 491 690 380 724 C 372 727 371 750 380 750 Z"/>
    <path class="bg" d="M 373 890 Q 409 878 571 870 C 582 870 605 855 596 848 Q 589 841 576 832 Q 561 823 532 829 Q 447 848 376 857 C 365 859 362 892 373 890 Z"/>
</g>
<g id="anim-layer">
    <path style="--d:1s; stroke:#FF4444;" pathLength="3333" clip-path="url(#z26094c1)" d="M 444 69 L 489 121 L 415 370 L 316 505 L 164 593"/>
    <path style="--d:2s; stroke:#FF4444;" pathLength="3333" clip-path="url(#z26094c2)" d="M 205 275 L 276 288 L 649 194 L 680 224 L 636 332 L 630 440 L 674 509 L 746 533 L 859 532 L 924 506 L 930 362"/>
    <path style="--d:3s; stroke:#000;" pathLength="3333" clip-path="url(#z26094c3)" d="M 329 595 L 357 636 L 351 920"/>
    <path style="--d:4s; stroke:#000;" pathLength="3333" clip-path="url(#z26094c4)" d="M 385 614 L 594 568 L 646 602 L 649 860 L 628 904 L 591 897"/>
    <path style="--d:5s; stroke:#000;" pathLength="3333" clip-path="url(#z26094c5)" d="M 389 742 L 553 721"/>
    <path style="--d:6s; stroke:#000;" pathLength="3333" clip-path="url(#z26094c6)" d="M 376 883 L 585 846"/>
</g>
</svg>