<svg id="z26104" class="acjk" viewBox="0 0 1024 1024" xmlns="http://www.w3.org/2000/svg">

<style>
<![CDATA[
@keyframes zk { to { stroke-dashoffset:0; } }
svg.acjk path[clip-path] {
    --t:0.8s;
    animation:zk var(--t) linear forwards var(--d);
    stroke-dasharray:3337;
    stroke-dashoffset:3339;
    stroke-width:128;
    stroke-linecap:round;
    fill:none;
}
/* Low opacity for background improves visual overlap at intersections */
svg.acjk .bg { fill:#ccc; opacity: 0.5; } 
]]>
</style>
<defs>
    <clipPath id="z26104c1"><path d="M 203 260 C 194 251 181 245 168 240 C 160 237 152 234 147 239 C 133 248 149 270 153 282 C 168 325 177 437 164 633 C 162 661 155 691 147 724 C 137 760 144 793 169 827 C 175 834 183 836 191 827 C 199 816 202 805 205 790 C 206 778 206 766 207 755 C 207 662 208 601 210 530 C 211 507 211 507 211 496 C 214 378 215 338 217 286 C 217 276 211 266 203 260 Z"/></clipPath>
    <clipPath id="z26104c2"><path d="M 320 778 C 332 817 349 845 357 844 C 365 841 376 829 386 804 C 397 775 399 742 396 709 C 389 636 384 522 381 369 C 380 327 384 297 396 277 C 402 266 403 256 398 249 C 393 242 373 234 342 224 C 324 218 313 219 302 225 C 266 242 233 252 203 260 C 193 262 208 290 217 286 C 232 281 261 275 283 269 C 301 263 314 262 322 270 C 332 279 337 305 338 347 C 340 497 337 613 332 709 C 332 723 331 741 328 757 C 327 764 317 771 320 778 Z"/></clipPath>
    <clipPath id="z26104c3"><path d="M 210 530 C 215 537 243 525 309 511 C 325 507 329 499 322 492 C 313 483 299 477 282 476 C 264 475 233 484 211 496 C 201 502 200 525 210 530 Z"/></clipPath>
    <clipPath id="z26104c4"><path d="M 205 790 C 217 790 239 783 320 778 C 327 778 333 762 328 757 C 307 737 287 735 207 755 C 195 757 193 790 205 790 Z"/></clipPath>
    <clipPath id="z26104c5"><path d="M 705 827 C 685 822 664 817 640 811 C 628 808 623 807 623 810 C 622 812 628 818 640 830 C 662 851 678 876 692 904 C 697 914 704 921 712 924 C 715 925 725 921 739 911 C 777 880 809 840 834 790 C 859 737 884 636 912 489 C 915 470 922 458 931 450 C 939 442 940 431 931 422 C 920 409 904 400 884 388 C 869 379 852 376 834 382 C 815 387 796 392 778 396 C 764 398 643 420 581 432 C 569 434 562 432 560 423 C 558 414 586 368 644 287 C 671 248 693 228 706 223 C 715 219 718 214 719 211 C 719 205 716 200 713 197 C 695 182 678 172 660 165 C 648 159 618 168 565 184 C 511 199 476 202 463 203 C 452 203 446 204 444 208 C 441 211 442 216 447 222 C 451 229 459 235 471 242 C 479 247 500 250 530 241 C 594 221 628 210 629 220 C 630 234 605 287 548 367 C 509 421 486 448 488 460 C 488 465 489 472 494 480 C 505 492 515 479 551 472 C 572 467 572 467 583 465 C 615 458 641 450 679 444 C 708 439 708 439 722 437 C 764 430 797 427 820 427 C 836 427 845 429 847 438 C 859 496 846 588 799 704 C 776 757 755 790 742 804 C 730 815 714 829 705 827 Z"/></clipPath>
    <clipPath id="z26104c6"><path d="M 551 472 C 558 498 540 546 497 607 C 459 661 432 687 428 697 C 427 699 429 701 433 701 C 477 692 534 631 587 553 C 591 545 599 534 611 519 C 615 512 615 503 611 497 C 602 481 592 471 583 465 C 574 458 549 461 551 472 Z"/></clipPath>
    <clipPath id="z26104c7"><path d="M 679 444 C 692 500 664 583 590 692 C 560 735 515 785 460 845 C 455 849 456 852 463 852 C 493 848 547 810 612 730 C 664 664 737 516 745 505 C 754 489 766 477 762 468 C 760 461 756 455 747 449 C 738 443 730 439 722 437 C 709 432 676 430 679 444 Z"/></clipPath>
</defs>
<g id="bg-layer">
    <path class="bg" d="M 203 260 C 194 251 181 245 168 240 C 160 237 152 234 147 239 C 133 248 149 270 153 282 C 168 325 177 437 164 633 C 162 661 155 691 147 724 C 137 760 144 793 169 827 C 175 834 183 836 191 827 C 199 816 202 805 205 790 C 206 778 206 766 207 755 C 207 662 208 601 210 530 C 211 507 211 507 211 496 C 214 378 215 338 217 286 C 217 276 211 266 203 260 Z"/>
    <path class="bg" d="M 320 778 C 332 817 349 845 357 844 C 365 841 376 829 386 804 C 397 775 399 742 396 709 C 389 636 384 522 381 369 C 380 327 384 297 396 277 C 402 266 403 256 398 249 C 393 242 373 234 342 224 C 324 218 313 219 302 225 C 266 242 233 252 203 260 C 193 262 208 290 217 286 C 232 281 261 275 283 269 C 301 263 314 262 322 270 C 332 279 337 305 338 347 C 340 497 337 613 332 709 C 332 723 331 741 328 757 C 327 764 317 771 320 778 Z"/>
    <path class="bg" d="M 210 530 C 215 537 243 525 309 511 C 325 507 329 499 322 492 C 313 483 299 477 282 476 C 264 475 233 484 211 496 C 201 502 200 525 210 530 Z"/>
    <path class="bg" d="M 205 790 C 217 790 239 783 320 778 C 327 778 333 762 328 757 C 307 737 287 735 207 755 C 195 757 193 790 205 790 Z"/>
    <path class="bg" d="M 705 827 C 685 822 664 817 640 811 C 628 808 623 807 623 810 C 622 812 628 818 640 830 C 662 851 678 876 692 904 C 697 914 704 921 712 924 C 715 925 725 921 739 911 C 777 880 809 840 834 790 C 859 737 884 636 912 489 C 915 470 922 458 931 450 C 939 442 940 431 931 422 C 920 409 904 400 884 388 C 869 379 852 376 834 382 C 815 387 796 392 778 396 C 764 398 643 420 581 432 C 569 434 562 432 560 423 C 558 414 586 368 644 287 C 671 248 693 228 706 223 C 715 219 718 214 719 211 C 719 205 716 200 713 197 C 695 182 678 172 660 165 C 648 159 618 168 565 184 C 511 199 476 202 463 203 C 452 203 446 204 444 208 C 441 211 442 216 447 222 C 451 229 459 235 471 242 C 479 247 500 250 530 241 C 594 221 628 210 629 220 C 630 234 605 287 548 367 C 509 421 486 448 488 460 C 488 465 489 472 494 480 C 505 492 515 479 551 472 C 572 467 572 467 583 465 C 615 458 641 450 679 444 C 708 439 708 439 722 437 C 764 430 797 427 820 427 C 836 427 845 429 847 438 C 859 496 846 588 799 704 C 776 757 755 790 742 804 C 730 815 714 829 705 827 Z"/>
    <path class="bg" d="M 551 472 C 558 498 540 546 497 607 C 459 661 432 687 428 697 C 427 699 429 701 433 701 C 477 692 534 631 587 553 C 591 545 599 534 611 519 C 615 512 615 503 611 497 C 602 481 592 471 583 465 C 574 458 549 461 551 472 Z"/>
    <path class="bg" d="M 679 444 C 692 500 664 583 590 692 C 560 735 515 785 460 845 C 455 849 456 852 463 852 C 493 848 547 810 612 730 C 664 664 737 516 745 505 C 754 489 766 477 762 468 C 760 461 756 455 747 449 C 738 443 730 439 722 437 C 709 432 676 430 679 444 Z"/>
</g>
<g id="anim-layer">
    <path style="--d:1s; stroke:#FF4444;" pathLength="3333" clip-path="url(#z26104c1)" d="M 148 243 L 188 301 L 180 829"/>
    <path style="--d:2s; stroke:#FF4444;" pathLength="3333" clip-path="url(#z26104c2)" d="M 206 267 L 318 242 L 366 271 L 348 834"/>
    <path style="--d:3s; stroke:#FF4444;" pathLength="3333" clip-path="url(#z26104c3)" d="M 207 518 L 318 496"/>
    <path style="--d:4s; stroke:#FF4444;" pathLength="3333" clip-path="url(#z26104c4)" d="M 200 780 L 325 763"/>
    <path style="--d:5s; stroke:#000;" pathLength="3333" clip-path="url(#z26104c5)" d="M 448 211 L 505 222 L 641 191 L 673 213 L 537 416 L 532 457 L 833 404 L 893 442 L 842 673 L 782 810 L 713 875 L 629 813"/>
    <path style="--d:6s; stroke:#000;" pathLength="3333" clip-path="url(#z26104c6)" d="M 559 469 L 577 519 L 436 695"/>
    <path style="--d:7s; stroke:#000;" pathLength="3333" clip-path="url(#z26104c7)" d="M 685 444 L 722 483 L 665 607 L 585 732 L 466 848"/>
</g>
</svg>