<svg id="z26137" class="acjk" viewBox="0 0 1024 1024" xmlns="http://www.w3.org/2000/svg">

<style>
<![CDATA[
@keyframes zk { to { stroke-dashoffset:0; } }
svg.acjk path[clip-path] {
    --t:0.8s;
    animation:zk var(--t) linear forwards var(--d);
    stroke-dasharray:3337;
    stroke-dashoffset:3339;
    stroke-width:128;
    stroke-linecap:round;
    fill:none;
}
/* Low opacity for background improves visual overlap at intersections */
svg.acjk .bg { fill:#ccc; opacity: 0.5; } 
]]>
</style>
<defs>
    <clipPath id="z26137c1"><path d="M 361 151 Q 348 147 326 143 Q 313 139 309 145 Q 302 152 311 169 Q 342 236 360 348 Q 364 381 382 403 Q 401 428 408 410 Q 411 401 412 391 C 412 374 412 374 412 366 Q 411 353 409 338 Q 405 311 401 289 C 398 272 398 272 397 263 Q 387 199 387 181 C 387 168 374 154 361 151 Z"/></clipPath>
    <clipPath id="z26137c2"><path d="M 601 366 Q 622 399 640 407 Q 652 416 668 393 Q 684 368 714 235 Q 724 202 749 177 Q 762 164 751 149 Q 735 130 691 103 Q 673 94 594 110 Q 519 120 361 151 C 348 153 374 184 387 181 Q 468 160 604 143 Q 637 139 647 150 Q 660 165 658 180 Q 631 328 613 341 C 606 348 595 359 601 366 Z"/></clipPath>
    <clipPath id="z26137c3"><path d="M 591 255 Q 613 251 605 239 Q 595 226 571 222 Q 550 219 397 263 C 389 266 392 290 401 289 C 528 266 528 266 591 255 Z"/></clipPath>
    <clipPath id="z26137c4"><path d="M 412 391 Q 454 381 601 366 C 610 364 620 347 613 341 Q 607 335 595 333 Q 574 330 412 366 C 404 367 404 393 412 391 Z"/></clipPath>
    <clipPath id="z26137c5"><path d="M 329 485 Q 289 489 316 509 Q 364 539 420 527 Q 526 514 638 497 Q 689 490 697 483 Q 707 474 702 465 Q 695 452 665 442 Q 637 433 520 464 Q 379 483 329 485 Z"/></clipPath>
    <clipPath id="z26137c6"><path d="M 464 636 Q 609 618 842 623 Q 876 624 906 625 Q 928 626 934 616 Q 941 603 923 588 Q 866 543 824 551 Q 626 587 111 636 Q 87 637 104 657 Q 119 673 139 679 Q 161 686 180 681 Q 286 654 407 642 C 445 638 445 638 464 636 Z"/></clipPath>
    <clipPath id="z26137c7"><path d="M 676 783 Q 528 798 372 815 Q 359 816 357 813 Q 356 810 362 804 Q 450 702 482 676 Q 498 663 490 653 Q 483 643 464 636 C 446 629 407 623 407 642 Q 407 702 331 779 Q 309 801 266 821 Q 238 831 236 841 Q 233 859 242 881 Q 251 902 264 909 Q 271 913 283 908 Q 382 857 689 804 C 697 802 684 781 676 783 Z"/></clipPath>
    <clipPath id="z26137c8"><path d="M 689 804 Q 746 900 756 907 Q 763 910 773 902 Q 789 892 786 847 Q 786 795 630 671 Q 623 664 618 676 Q 614 689 622 701 Q 647 738 676 783 C 685 797 685 797 689 804 Z"/></clipPath>
</defs>
<g id="bg-layer">
    <path class="bg" d="M 361 151 Q 348 147 326 143 Q 313 139 309 145 Q 302 152 311 169 Q 342 236 360 348 Q 364 381 382 403 Q 401 428 408 410 Q 411 401 412 391 C 412 374 412 374 412 366 Q 411 353 409 338 Q 405 311 401 289 C 398 272 398 272 397 263 Q 387 199 387 181 C 387 168 374 154 361 151 Z"/>
    <path class="bg" d="M 601 366 Q 622 399 640 407 Q 652 416 668 393 Q 684 368 714 235 Q 724 202 749 177 Q 762 164 751 149 Q 735 130 691 103 Q 673 94 594 110 Q 519 120 361 151 C 348 153 374 184 387 181 Q 468 160 604 143 Q 637 139 647 150 Q 660 165 658 180 Q 631 328 613 341 C 606 348 595 359 601 366 Z"/>
    <path class="bg" d="M 591 255 Q 613 251 605 239 Q 595 226 571 222 Q 550 219 397 263 C 389 266 392 290 401 289 C 528 266 528 266 591 255 Z"/>
    <path class="bg" d="M 412 391 Q 454 381 601 366 C 610 364 620 347 613 341 Q 607 335 595 333 Q 574 330 412 366 C 404 367 404 393 412 391 Z"/>
    <path class="bg" d="M 329 485 Q 289 489 316 509 Q 364 539 420 527 Q 526 514 638 497 Q 689 490 697 483 Q 707 474 702 465 Q 695 452 665 442 Q 637 433 520 464 Q 379 483 329 485 Z"/>
    <path class="bg" d="M 464 636 Q 609 618 842 623 Q 876 624 906 625 Q 928 626 934 616 Q 941 603 923 588 Q 866 543 824 551 Q 626 587 111 636 Q 87 637 104 657 Q 119 673 139 679 Q 161 686 180 681 Q 286 654 407 642 C 445 638 445 638 464 636 Z"/>
    <path class="bg" d="M 676 783 Q 528 798 372 815 Q 359 816 357 813 Q 356 810 362 804 Q 450 702 482 676 Q 498 663 490 653 Q 483 643 464 636 C 446 629 407 623 407 642 Q 407 702 331 779 Q 309 801 266 821 Q 238 831 236 841 Q 233 859 242 881 Q 251 902 264 909 Q 271 913 283 908 Q 382 857 689 804 C 697 802 684 781 676 783 Z"/>
    <path class="bg" d="M 689 804 Q 746 900 756 907 Q 763 910 773 902 Q 789 892 786 847 Q 786 795 630 671 Q 623 664 618 676 Q 614 689 622 701 Q 647 738 676 783 C 685 797 685 797 689 804 Z"/>
</g>
<g id="anim-layer">
    <path style="--d:1s; stroke:#FF4444;" pathLength="3333" clip-path="url(#z26137c1)" d="M 313 148 L 354 186 L 398 411"/>
    <path style="--d:2s; stroke:#FF4444;" pathLength="3333" clip-path="url(#z26137c2)" d="M 366 156 L 641 122 L 689 144 L 706 173 L 624 393"/>
    <path style="--d:3s; stroke:#FF4444;" pathLength="3333" clip-path="url(#z26137c3)" d="M 395 277 L 603 241"/>
    <path style="--d:4s; stroke:#FF4444;" pathLength="3333" clip-path="url(#z26137c4)" d="M 412 380 L 610 345"/>
    <path style="--d:5s; stroke:#000;" pathLength="3333" clip-path="url(#z26137c5)" d="M 313 495 L 381 506 L 699 470"/>
    <path style="--d:6s; stroke:#000;" pathLength="3333" clip-path="url(#z26137c6)" d="M 104 643 L 173 656 L 833 586 L 932 606"/>
    <path style="--d:7s; stroke:#000;" pathLength="3333" clip-path="url(#z26137c7)" d="M 414 639 L 442 680 L 302 821 L 308 873 L 685 796"/>
    <path style="--d:8s; stroke:#000;" pathLength="3333" clip-path="url(#z26137c8)" d="M 624 675 L 749 836 L 763 903"/>
</g>
</svg>