<svg id="z26159" class="acjk" viewBox="0 0 1024 1024" xmlns="http://www.w3.org/2000/svg">

<style>
<![CDATA[
@keyframes zk { to { stroke-dashoffset:0; } }
svg.acjk path[clip-path] {
    --t:0.8s;
    animation:zk var(--t) linear forwards var(--d);
    stroke-dasharray:3337;
    stroke-dashoffset:3339;
    stroke-width:128;
    stroke-linecap:round;
    fill:none;
}
/* Low opacity for background improves visual overlap at intersections */
svg.acjk .bg { fill:#ccc; opacity: 0.5; } 
]]>
</style>
<defs>
    <clipPath id="z26159c1"><path d="M 386 141 C 378 138 365 135 348 131 C 340 129 335 130 333 133 C 328 138 329 145 335 156 C 357 202 374 263 385 339 C 388 361 395 381 408 397 C 419 411 427 413 431 403 C 433 396 435 388 435 378 C 434 362 434 362 434 354 C 433 342 426 316 420 276 C 417 260 417 260 416 252 C 409 213 405 186 403 172 C 401 160 397 145 386 141 Z"/></clipPath>
    <clipPath id="z26159c2"><path d="M 580 363 C 592 379 603 389 613 395 C 620 399 628 395 638 381 C 648 364 660 310 681 221 C 685 200 696 182 712 167 C 720 158 721 150 714 142 C 704 131 685 117 658 100 C 648 93 619 97 572 107 C 568 107 531 114 461 127 C 434 132 409 136 386 141 C 374 143 392 176 403 172 C 483 150 546 140 592 139 C 604 138 613 138 619 145 C 627 154 630 165 629 176 C 614 268 602 321 591 333 C 586 342 574 354 580 363 Z"/></clipPath>
    <clipPath id="z26159c3"><path d="M 420 276 Q 424 277 430 276 Q 506 263 563 255 Q 585 251 577 239 Q 567 226 543 222 Q 513 219 416 252 C 408 255 412 276 420 276 Z"/></clipPath>
    <clipPath id="z26159c4"><path d="M 435 378 Q 438 379 447 378 Q 522 368 580 363 C 591 361 600 338 591 333 Q 585 329 577 328 Q 547 324 434 354 C 426 355 427 378 435 378 Z"/></clipPath>
    <clipPath id="z26159c5"><path d="M 525 482 C 601 474 694 467 804 467 C 856 467 884 464 888 457 C 891 449 887 439 876 431 C 836 400 796 396 753 406 C 621 435 419 462 149 497 C 134 498 131 506 143 517 C 164 537 189 544 215 537 C 301 513 388 496 477 487 C 509 484 509 484 525 482 Z"/></clipPath>
    <clipPath id="z26159c6"><path d="M 530 765 Q 534 696 538 638 C 539 621 539 621 540 613 Q 541 561 547 528 Q 554 507 525 482 C 514 471 469 473 477 487 Q 489 502 489 596 Q 488 647 487 740 C 487 757 530 782 530 765 Z"/></clipPath>
    <clipPath id="z26159c7"><path d="M 538 638 Q 547 642 563 640 Q 648 624 710 613 Q 737 607 726 593 Q 713 577 683 573 Q 653 570 540 613 C 532 616 530 635 538 638 Z"/></clipPath>
    <clipPath id="z26159c8"><path d="M 354 650 C 370 623 378 605 386 599 C 390 595 392 589 391 583 C 389 576 383 570 375 563 C 352 543 331 536 309 543 C 303 544 301 549 304 558 C 316 597 291 663 228 754 C 225 757 222 760 220 764 C 201 788 168 826 120 876 C 115 880 116 884 123 884 C 159 879 209 840 272 770 C 277 764 281 757 287 751 C 301 732 318 708 337 678 C 348 659 348 659 354 650 Z"/></clipPath>
    <clipPath id="z26159c9"><path d="M 337 678 C 459 780 576 859 686 915 C 702 923 731 924 771 916 C 805 908 839 900 875 891 C 897 885 911 877 916 870 C 920 862 915 859 902 858 C 849 852 807 848 775 847 C 690 842 573 790 530 765 C 501 748 501 748 487 740 C 443 714 400 683 354 650 C 345 643 328 671 337 678 Z"/></clipPath>
</defs>
<g id="bg-layer">
    <path class="bg" d="M 386 141 C 378 138 365 135 348 131 C 340 129 335 130 333 133 C 328 138 329 145 335 156 C 357 202 374 263 385 339 C 388 361 395 381 408 397 C 419 411 427 413 431 403 C 433 396 435 388 435 378 C 434 362 434 362 434 354 C 433 342 426 316 420 276 C 417 260 417 260 416 252 C 409 213 405 186 403 172 C 401 160 397 145 386 141 Z"/>
    <path class="bg" d="M 580 363 C 592 379 603 389 613 395 C 620 399 628 395 638 381 C 648 364 660 310 681 221 C 685 200 696 182 712 167 C 720 158 721 150 714 142 C 704 131 685 117 658 100 C 648 93 619 97 572 107 C 568 107 531 114 461 127 C 434 132 409 136 386 141 C 374 143 392 176 403 172 C 483 150 546 140 592 139 C 604 138 613 138 619 145 C 627 154 630 165 629 176 C 614 268 602 321 591 333 C 586 342 574 354 580 363 Z"/>
    <path class="bg" d="M 420 276 Q 424 277 430 276 Q 506 263 563 255 Q 585 251 577 239 Q 567 226 543 222 Q 513 219 416 252 C 408 255 412 276 420 276 Z"/>
    <path class="bg" d="M 435 378 Q 438 379 447 378 Q 522 368 580 363 C 591 361 600 338 591 333 Q 585 329 577 328 Q 547 324 434 354 C 426 355 427 378 435 378 Z"/>
    <path class="bg" d="M 525 482 C 601 474 694 467 804 467 C 856 467 884 464 888 457 C 891 449 887 439 876 431 C 836 400 796 396 753 406 C 621 435 419 462 149 497 C 134 498 131 506 143 517 C 164 537 189 544 215 537 C 301 513 388 496 477 487 C 509 484 509 484 525 482 Z"/>
    <path class="bg" d="M 530 765 Q 534 696 538 638 C 539 621 539 621 540 613 Q 541 561 547 528 Q 554 507 525 482 C 514 471 469 473 477 487 Q 489 502 489 596 Q 488 647 487 740 C 487 757 530 782 530 765 Z"/>
    <path class="bg" d="M 538 638 Q 547 642 563 640 Q 648 624 710 613 Q 737 607 726 593 Q 713 577 683 573 Q 653 570 540 613 C 532 616 530 635 538 638 Z"/>
    <path class="bg" d="M 354 650 C 370 623 378 605 386 599 C 390 595 392 589 391 583 C 389 576 383 570 375 563 C 352 543 331 536 309 543 C 303 544 301 549 304 558 C 316 597 291 663 228 754 C 225 757 222 760 220 764 C 201 788 168 826 120 876 C 115 880 116 884 123 884 C 159 879 209 840 272 770 C 277 764 281 757 287 751 C 301 732 318 708 337 678 C 348 659 348 659 354 650 Z"/>
    <path class="bg" d="M 337 678 C 459 780 576 859 686 915 C 702 923 731 924 771 916 C 805 908 839 900 875 891 C 897 885 911 877 916 870 C 920 862 915 859 902 858 C 849 852 807 848 775 847 C 690 842 573 790 530 765 C 501 748 501 748 487 740 C 443 714 400 683 354 650 C 345 643 328 671 337 678 Z"/>
</g>
<g id="anim-layer">
    <path style="--d:1s; stroke:#FF4444;" pathLength="3333" clip-path="url(#z26159c1)" d="M 338 140 L 376 182 L 421 402"/>
    <path style="--d:2s; stroke:#FF4444;" pathLength="3333" clip-path="url(#z26159c2)" d="M 395 142 L 610 119 L 660 141 L 672 165 L 603 386"/>
    <path style="--d:3s; stroke:#FF4444;" pathLength="3333" clip-path="url(#z26159c3)" d="M 422 258 L 573 244"/>
    <path style="--d:4s; stroke:#FF4444;" pathLength="3333" clip-path="url(#z26159c4)" d="M 437 370 L 586 346"/>
    <path style="--d:5s; stroke:#000;" pathLength="3333" clip-path="url(#z26159c5)" d="M 145 504 L 205 514 L 755 436 L 882 442"/>
    <path style="--d:6s; stroke:#000;" pathLength="3333" clip-path="url(#z26159c6)" d="M 486 489 L 517 521 L 509 733 L 524 757"/>
    <path style="--d:7s; stroke:#000;" pathLength="3333" clip-path="url(#z26159c7)" d="M 546 633 L 720 599"/>
    <path style="--d:8s; stroke:#000;" pathLength="3333" clip-path="url(#z26159c8)" d="M 310 548 L 348 586 L 317 657 L 237 777 L 125 877"/>
    <path style="--d:9s; stroke:#000;" pathLength="3333" clip-path="url(#z26159c9)" d="M 355 657 L 489 768 L 681 871 L 911 866"/>
</g>
</svg>