<svg id="z26161" class="acjk" viewBox="0 0 1024 1024" xmlns="http://www.w3.org/2000/svg">

<style>
<![CDATA[
@keyframes zk { to { stroke-dashoffset:0; } }
svg.acjk path[clip-path] {
    --t:0.8s;
    animation:zk var(--t) linear forwards var(--d);
    stroke-dasharray:3337;
    stroke-dashoffset:3339;
    stroke-width:128;
    stroke-linecap:round;
    fill:none;
}
/* Low opacity for background improves visual overlap at intersections */
svg.acjk .bg { fill:#ccc; opacity: 0.5; } 
]]>
</style>
<defs>
    <clipPath id="z26161c1"><path d="M 330 148 Q 318 144 291 140 Q 278 137 275 142 Q 268 149 278 166 Q 315 238 337 357 Q 341 393 363 416 Q 382 438 387 422 Q 388 413 390 402 C 389 379 389 379 388 368 Q 387 356 384 344 Q 377 316 372 293 C 369 276 369 276 367 268 Q 354 208 351 184 C 348 170 344 151 330 148 Z"/></clipPath>
    <clipPath id="z26161c2"><path d="M 600 379 Q 600 388 604 398 Q 610 417 625 415 Q 641 414 650 396 Q 666 377 695 282 Q 716 222 758 190 Q 780 172 763 154 Q 744 133 686 101 Q 671 91 602 105 Q 467 126 330 148 C 316 151 337 184 351 184 Q 358 184 364 183 Q 437 161 604 142 Q 634 141 644 146 Q 656 153 649 191 Q 619 327 606 356 C 602 371 602 371 600 379 Z"/></clipPath>
    <clipPath id="z26161c3"><path d="M 550 266 Q 575 262 565 248 Q 553 233 527 229 Q 496 226 367 268 C 359 271 364 295 372 293 C 491 275 491 275 550 266 Z"/></clipPath>
    <clipPath id="z26161c4"><path d="M 390 402 Q 400 403 411 401 Q 471 388 600 379 C 608 379 612 362 606 356 Q 576 326 495 349 Q 437 359 388 368 C 377 370 379 402 390 402 Z"/></clipPath>
    <clipPath id="z26161c5"><path d="M 523 510 Q 524 497 522 476 Q 519 463 498 450 Q 447 425 432 429 Q 428 432 427 445 Q 428 455 452 479 Q 464 494 480 518 C 489 530 523 525 523 510 Z"/></clipPath>
    <clipPath id="z26161c6"><path d="M 480 518 Q 446 522 294 537 Q 263 540 286 559 Q 322 589 352 583 Q 499 555 702 537 Q 712 538 723 525 Q 724 512 701 500 Q 662 476 591 495 Q 557 502 523 510 C 494 515 494 515 480 518 Z"/></clipPath>
    <clipPath id="z26161c7"><path d="M 350 670 Q 369 730 394 751 Q 407 758 419 750 Q 429 740 433 724 Q 433 676 377 641 Q 376 640 375 639 Q 362 629 352 629 Q 345 628 344 640 Q 341 652 350 670 Z"/></clipPath>
    <clipPath id="z26161c8"><path d="M 543 783 Q 564 765 617 688 Q 627 672 646 652 Q 664 640 655 627 Q 646 608 615 583 Q 600 570 580 576 Q 568 580 575 593 Q 584 629 529 747 Q 519 769 516 784 Q 515 784 515 785 C 512 794 536 789 543 783 Z"/></clipPath>
    <clipPath id="z26161c9"><path d="M 515 785 Q 425 786 244 817 Q 187 823 139 820 Q 129 819 121 825 Q 112 832 119 843 Q 129 858 185 889 Q 198 896 221 887 Q 380 830 539 821 Q 663 809 902 857 Q 921 861 929 852 Q 936 840 917 823 Q 836 757 796 767 Q 772 773 717 777 Q 626 778 543 783 C 524 784 524 784 515 785 Z"/></clipPath>
</defs>
<g id="bg-layer">
    <path class="bg" d="M 330 148 Q 318 144 291 140 Q 278 137 275 142 Q 268 149 278 166 Q 315 238 337 357 Q 341 393 363 416 Q 382 438 387 422 Q 388 413 390 402 C 389 379 389 379 388 368 Q 387 356 384 344 Q 377 316 372 293 C 369 276 369 276 367 268 Q 354 208 351 184 C 348 170 344 151 330 148 Z"/>
    <path class="bg" d="M 600 379 Q 600 388 604 398 Q 610 417 625 415 Q 641 414 650 396 Q 666 377 695 282 Q 716 222 758 190 Q 780 172 763 154 Q 744 133 686 101 Q 671 91 602 105 Q 467 126 330 148 C 316 151 337 184 351 184 Q 358 184 364 183 Q 437 161 604 142 Q 634 141 644 146 Q 656 153 649 191 Q 619 327 606 356 C 602 371 602 371 600 379 Z"/>
    <path class="bg" d="M 550 266 Q 575 262 565 248 Q 553 233 527 229 Q 496 226 367 268 C 359 271 364 295 372 293 C 491 275 491 275 550 266 Z"/>
    <path class="bg" d="M 390 402 Q 400 403 411 401 Q 471 388 600 379 C 608 379 612 362 606 356 Q 576 326 495 349 Q 437 359 388 368 C 377 370 379 402 390 402 Z"/>
    <path class="bg" d="M 523 510 Q 524 497 522 476 Q 519 463 498 450 Q 447 425 432 429 Q 428 432 427 445 Q 428 455 452 479 Q 464 494 480 518 C 489 530 523 525 523 510 Z"/>
    <path class="bg" d="M 480 518 Q 446 522 294 537 Q 263 540 286 559 Q 322 589 352 583 Q 499 555 702 537 Q 712 538 723 525 Q 724 512 701 500 Q 662 476 591 495 Q 557 502 523 510 C 494 515 494 515 480 518 Z"/>
    <path class="bg" d="M 350 670 Q 369 730 394 751 Q 407 758 419 750 Q 429 740 433 724 Q 433 676 377 641 Q 376 640 375 639 Q 362 629 352 629 Q 345 628 344 640 Q 341 652 350 670 Z"/>
    <path class="bg" d="M 543 783 Q 564 765 617 688 Q 627 672 646 652 Q 664 640 655 627 Q 646 608 615 583 Q 600 570 580 576 Q 568 580 575 593 Q 584 629 529 747 Q 519 769 516 784 Q 515 784 515 785 C 512 794 536 789 543 783 Z"/>
    <path class="bg" d="M 515 785 Q 425 786 244 817 Q 187 823 139 820 Q 129 819 121 825 Q 112 832 119 843 Q 129 858 185 889 Q 198 896 221 887 Q 380 830 539 821 Q 663 809 902 857 Q 921 861 929 852 Q 936 840 917 823 Q 836 757 796 767 Q 772 773 717 777 Q 626 778 543 783 C 524 784 524 784 515 785 Z"/>
</g>
<g id="anim-layer">
    <path style="--d:1s; stroke:#FF4444;" pathLength="3333" clip-path="url(#z26161c1)" d="M 280 149 L 323 196 L 373 423"/>
    <path style="--d:2s; stroke:#FF4444;" pathLength="3333" clip-path="url(#z26161c2)" d="M 338 150 L 376 161 L 631 120 L 690 142 L 715 180 L 623 411"/>
    <path style="--d:3s; stroke:#FF4444;" pathLength="3333" clip-path="url(#z26161c3)" d="M 372 270 L 562 256"/>
    <path style="--d:4s; stroke:#FF4444;" pathLength="3333" clip-path="url(#z26161c4)" d="M 397 394 L 602 363"/>
    <path style="--d:5s; stroke:#000;" pathLength="3333" clip-path="url(#z26161c5)" d="M 434 433 L 505 512"/>
    <path style="--d:6s; stroke:#000;" pathLength="3333" clip-path="url(#z26161c6)" d="M 282 544 L 338 558 L 632 515 L 718 522"/>
    <path style="--d:7s; stroke:#000;" pathLength="3333" clip-path="url(#z26161c7)" d="M 352 635 L 408 749"/>
    <path style="--d:8s; stroke:#000;" pathLength="3333" clip-path="url(#z26161c8)" d="M 580 581 L 614 635 L 526 781"/>
    <path style="--d:9s; stroke:#000;" pathLength="3333" clip-path="url(#z26161c9)" d="M 124 834 L 197 856 L 424 812 L 651 799 L 816 803 L 925 849"/>
</g>
</svg>