<svg id="z26179" class="acjk" viewBox="0 0 1024 1024" xmlns="http://www.w3.org/2000/svg">

<style>
<![CDATA[
@keyframes zk { to { stroke-dashoffset:0; } }
svg.acjk path[clip-path] {
    --t:0.8s;
    animation:zk var(--t) linear forwards var(--d);
    stroke-dasharray:3337;
    stroke-dashoffset:3339;
    stroke-width:128;
    stroke-linecap:round;
    fill:none;
}
/* Low opacity for background improves visual overlap at intersections */
svg.acjk .bg { fill:#ccc; opacity: 0.5; } 
]]>
</style>
<defs>
    <clipPath id="z26179c1"><path d="M 325 118 Q 313 112 284 107 Q 272 104 269 109 Q 262 115 271 131 Q 302 200 318 312 Q 321 346 340 368 Q 358 390 363 375 Q 367 365 367 348 C 366 333 366 333 366 325 Q 365 313 363 301 Q 359 274 355 253 C 352 238 352 238 351 231 Q 342 173 340 151 C 338 139 336 122 325 118 Z"/></clipPath>
    <clipPath id="z26179c2"><path d="M 579 329 Q 594 351 608 359 Q 618 368 635 346 Q 648 327 681 215 Q 691 184 717 160 Q 730 148 720 133 Q 705 115 663 86 Q 644 76 627 81 Q 596 87 552 91 Q 497 97 425 105 Q 370 112 325 118 C 313 120 328 153 340 151 Q 341 150 345 150 Q 430 134 578 123 Q 611 120 620 132 Q 630 145 628 158 Q 606 266 597 282 Q 593 295 579 297 C 568 299 573 320 579 329 Z"/></clipPath>
    <clipPath id="z26179c3"><path d="M 355 253 Q 365 256 379 254 Q 470 241 538 232 Q 562 228 553 216 Q 543 201 517 196 Q 490 190 351 231 C 344 234 348 252 355 253 Z"/></clipPath>
    <clipPath id="z26179c4"><path d="M 478 339 Q 530 332 579 329 C 590 329 590 297 579 297 Q 560 293 366 325 C 358 326 359 348 367 348 Q 376 349 392 348 Q 414 344 438 343 C 465 340 465 340 478 339 Z"/></clipPath>
    <clipPath id="z26179c5"><path d="M 499 551 Q 506 449 519 392 Q 529 376 518 365 Q 496 347 478 339 C 467 332 438 330 438 343 Q 437 347 441 356 Q 447 365 453 433 Q 453 490 458 556 C 458 570 499 565 499 551 Z"/></clipPath>
    <clipPath id="z26179c6"><path d="M 272 464 Q 312 519 339 531 Q 352 535 363 523 Q 370 511 369 495 Q 365 471 348 457 Q 336 448 285 426 Q 270 420 262 424 Q 255 425 257 437 Q 258 449 272 464 Z"/></clipPath>
    <clipPath id="z26179c7"><path d="M 684 447 Q 703 434 725 427 Q 746 420 737 402 Q 727 386 704 371 Q 685 356 672 358 Q 660 358 663 371 Q 663 398 563 495 Q 553 510 569 508 Q 581 502 684 447 Z"/></clipPath>
    <clipPath id="z26179c8"><path d="M 533 585 Q 593 581 798 580 Q 817 580 823 572 Q 827 560 812 546 Q 760 507 722 515 Q 638 531 499 551 C 472 554 472 554 458 556 Q 322 572 165 590 Q 143 591 159 609 Q 172 622 191 629 Q 212 635 228 630 Q 289 614 357 605 C 375 602 375 602 384 601 Q 435 592 483 589 C 516 586 516 586 533 585 Z"/></clipPath>
    <clipPath id="z26179c9"><path d="M 357 605 Q 356 608 356 612 Q 352 705 237 802 Q 234 802 233 805 Q 202 832 126 875 Q 119 881 124 885 Q 148 898 240 850 Q 321 811 394 696 Q 407 677 422 660 Q 431 653 427 642 Q 417 618 384 601 C 376 598 359 596 357 605 Z"/></clipPath>
    <clipPath id="z26179c10"><path d="M 876 826 Q 837 860 698 868 Q 619 867 585 855 Q 555 842 548 821 Q 530 767 556 673 Q 568 619 567 616 Q 564 607 533 585 C 520 575 477 573 483 589 Q 502 628 499 684 Q 492 825 514 857 Q 541 902 637 913 Q 704 922 808 914 Q 902 907 939 885 Q 969 869 956 839 Q 937 787 927 699 Q 926 683 918 678 Q 909 674 906 693 Q 891 802 875 823 C 882 825 882 825 886 826 C 879 826 879 826 876 826 Z"/></clipPath>
</defs>
<g id="bg-layer">
    <path class="bg" d="M 325 118 Q 313 112 284 107 Q 272 104 269 109 Q 262 115 271 131 Q 302 200 318 312 Q 321 346 340 368 Q 358 390 363 375 Q 367 365 367 348 C 366 333 366 333 366 325 Q 365 313 363 301 Q 359 274 355 253 C 352 238 352 238 351 231 Q 342 173 340 151 C 338 139 336 122 325 118 Z"/>
    <path class="bg" d="M 579 329 Q 594 351 608 359 Q 618 368 635 346 Q 648 327 681 215 Q 691 184 717 160 Q 730 148 720 133 Q 705 115 663 86 Q 644 76 627 81 Q 596 87 552 91 Q 497 97 425 105 Q 370 112 325 118 C 313 120 328 153 340 151 Q 341 150 345 150 Q 430 134 578 123 Q 611 120 620 132 Q 630 145 628 158 Q 606 266 597 282 Q 593 295 579 297 C 568 299 573 320 579 329 Z"/>
    <path class="bg" d="M 355 253 Q 365 256 379 254 Q 470 241 538 232 Q 562 228 553 216 Q 543 201 517 196 Q 490 190 351 231 C 344 234 348 252 355 253 Z"/>
    <path class="bg" d="M 478 339 Q 530 332 579 329 C 590 329 590 297 579 297 Q 560 293 366 325 C 358 326 359 348 367 348 Q 376 349 392 348 Q 414 344 438 343 C 465 340 465 340 478 339 Z"/>
    <path class="bg" d="M 499 551 Q 506 449 519 392 Q 529 376 518 365 Q 496 347 478 339 C 467 332 438 330 438 343 Q 437 347 441 356 Q 447 365 453 433 Q 453 490 458 556 C 458 570 499 565 499 551 Z"/>
    <path class="bg" d="M 272 464 Q 312 519 339 531 Q 352 535 363 523 Q 370 511 369 495 Q 365 471 348 457 Q 336 448 285 426 Q 270 420 262 424 Q 255 425 257 437 Q 258 449 272 464 Z"/>
    <path class="bg" d="M 684 447 Q 703 434 725 427 Q 746 420 737 402 Q 727 386 704 371 Q 685 356 672 358 Q 660 358 663 371 Q 663 398 563 495 Q 553 510 569 508 Q 581 502 684 447 Z"/>
    <path class="bg" d="M 533 585 Q 593 581 798 580 Q 817 580 823 572 Q 827 560 812 546 Q 760 507 722 515 Q 638 531 499 551 C 472 554 472 554 458 556 Q 322 572 165 590 Q 143 591 159 609 Q 172 622 191 629 Q 212 635 228 630 Q 289 614 357 605 C 375 602 375 602 384 601 Q 435 592 483 589 C 516 586 516 586 533 585 Z"/>
    <path class="bg" d="M 357 605 Q 356 608 356 612 Q 352 705 237 802 Q 234 802 233 805 Q 202 832 126 875 Q 119 881 124 885 Q 148 898 240 850 Q 321 811 394 696 Q 407 677 422 660 Q 431 653 427 642 Q 417 618 384 601 C 376 598 359 596 357 605 Z"/>
    <path class="bg" d="M 876 826 Q 837 860 698 868 Q 619 867 585 855 Q 555 842 548 821 Q 530 767 556 673 Q 568 619 567 616 Q 564 607 533 585 C 520 575 477 573 483 589 Q 502 628 499 684 Q 492 825 514 857 Q 541 902 637 913 Q 704 922 808 914 Q 902 907 939 885 Q 969 869 956 839 Q 937 787 927 699 Q 926 683 918 678 Q 909 674 906 693 Q 891 802 875 823 C 882 825 882 825 886 826 C 879 826 879 826 876 826 Z"/>
</g>
<g id="anim-layer">
    <path style="--d:1s; stroke:#FF4444;" pathLength="3333" clip-path="url(#z26179c1)" d="M 274 115 L 312 157 L 355 374"/>
    <path style="--d:2s; stroke:#FF4444;" pathLength="3333" clip-path="url(#z26179c2)" d="M 332 121 L 597 104 L 654 120 L 675 151 L 603 355"/>
    <path style="--d:3s; stroke:#FF4444;" pathLength="3333" clip-path="url(#z26179c3)" d="M 357 233 L 546 217"/>
    <path style="--d:4s; stroke:#FF4444;" pathLength="3333" clip-path="url(#z26179c4)" d="M 373 341 L 578 314"/>
    <path style="--d:5s; stroke:#000;" pathLength="3333" clip-path="url(#z26179c5)" d="M 447 349 L 486 386 L 470 554"/>
    <path style="--d:6s; stroke:#000;" pathLength="3333" clip-path="url(#z26179c6)" d="M 264 434 L 338 491 L 351 528"/>
    <path style="--d:7s; stroke:#000;" pathLength="3333" clip-path="url(#z26179c7)" d="M 672 363 L 693 410 L 566 503"/>
    <path style="--d:8s; stroke:#000;" pathLength="3333" clip-path="url(#z26179c8)" d="M 160 598 L 219 608 L 728 547 L 818 556"/>
    <path style="--d:9s; stroke:#000;" pathLength="3333" clip-path="url(#z26179c9)" d="M 364 607 L 388 651 L 316 759 L 232 832 L 126 880"/>
    <path style="--d:10s; stroke:#000;" pathLength="3333" clip-path="url(#z26179c10)" d="M 491 593 L 532 627 L 524 821 L 549 861 L 601 883 L 792 887 L 912 855 L 914 684"/>
</g>
</svg>