<svg id="z26188" class="acjk" viewBox="0 0 1024 1024" xmlns="http://www.w3.org/2000/svg">

<style>
<![CDATA[
@keyframes zk { to { stroke-dashoffset:0; } }
svg.acjk path[clip-path] {
    --t:0.8s;
    animation:zk var(--t) linear forwards var(--d);
    stroke-dasharray:3337;
    stroke-dashoffset:3339;
    stroke-width:128;
    stroke-linecap:round;
    fill:none;
}
/* Low opacity for background improves visual overlap at intersections */
svg.acjk .bg { fill:#ccc; opacity: 0.5; } 
]]>
</style>
<defs>
    <clipPath id="z26188c1"><path d="M 167 255 Q 157 242 129 232 Q 119 228 108 231 Q 101 235 107 248 Q 128 333 129 341 Q 128 344 129 348 Q 141 567 108 696 Q 96 751 130 795 Q 140 808 151 795 Q 163 780 163 755 C 165 735 165 735 166 725 Q 167 701 168 670 Q 169 582 170 513 C 170 490 170 490 170 479 Q 173 295 177 283 C 179 273 173 263 167 255 Z"/></clipPath>
    <clipPath id="z26188c2"><path d="M 256 738 Q 269 759 282 779 Q 298 803 305 800 Q 318 797 332 763 Q 347 724 343 675 Q 318 327 348 274 Q 358 256 350 246 Q 343 236 294 220 Q 270 213 254 222 Q 206 244 167 255 C 157 257 168 286 177 283 Q 181 282 188 280 Q 212 274 240 265 Q 265 258 274 266 Q 289 279 288 336 Q 291 568 279 696 Q 280 703 279 709 C 279 721 249 728 256 738 Z"/></clipPath>
    <clipPath id="z26188c3"><path d="M 170 513 Q 219 500 255 493 Q 276 486 266 475 Q 254 463 230 462 Q 208 462 170 479 C 159 483 159 515 170 513 Z"/></clipPath>
    <clipPath id="z26188c4"><path d="M 163 755 Q 212 745 256 738 C 268 736 290 714 279 709 Q 272 705 261 703 Q 225 699 166 725 C 157 729 153 757 163 755 Z"/></clipPath>
    <clipPath id="z26188c5"><path d="M 500 400 Q 546 339 573 299 Q 633 202 660 181 Q 679 163 662 149 Q 643 136 611 129 Q 581 122 569 129 Q 556 135 565 148 Q 583 178 527 291 Q 500 346 470 407 C 465 416 494 408 500 400 Z"/></clipPath>
    <clipPath id="z26188c6"><path d="M 432 415 Q 414 402 393 395 Q 386 394 379 401 Q 376 407 383 417 Q 425 523 388 705 Q 375 759 378 773 Q 387 804 398 816 Q 408 829 417 816 Q 441 786 443 677 Q 443 514 451 452 C 454 438 443 423 432 415 Z"/></clipPath>
    <clipPath id="z26188c7"><path d="M 451 452 Q 466 437 668 402 Q 713 395 797 386 Q 807 385 813 390 Q 823 397 825 443 Q 837 639 816 750 Q 810 786 780 783 Q 743 777 708 772 Q 695 768 694 775 Q 694 782 705 792 Q 783 847 805 876 Q 818 892 828 889 Q 844 885 856 856 Q 886 796 890 621 Q 886 420 897 393 Q 913 371 900 366 Q 884 351 845 337 Q 821 322 778 341 Q 558 380 500 400 C 480 405 480 405 470 407 Q 451 410 432 415 C 418 418 440 460 451 452 Z"/></clipPath>
    <clipPath id="z26188c8"><path d="M 538 530 Q 529 524 504 519 Q 494 516 490 521 Q 486 525 492 539 Q 513 588 524 666 Q 525 690 539 706 Q 552 725 558 712 Q 562 699 561 679 C 559 660 559 660 558 650 Q 549 577 548 554 C 548 545 546 534 538 530 Z"/></clipPath>
    <clipPath id="z26188c9"><path d="M 694 636 Q 712 575 731 557 Q 752 535 732 522 Q 716 512 692 495 Q 674 485 632 508 Q 598 520 538 530 C 530 532 540 556 548 554 Q 551 554 636 538 Q 658 534 663 543 Q 669 547 662 574 Q 656 599 649 629 C 647 644 691 651 694 636 Z"/></clipPath>
    <clipPath id="z26188c10"><path d="M 561 679 Q 565 679 573 678 Q 613 669 702 662 Q 711 661 712 654 Q 712 648 694 636 C 682 627 664 629 649 629 Q 648 628 645 629 Q 596 642 558 650 C 548 652 551 679 561 679 Z"/></clipPath>
</defs>
<g id="bg-layer">
    <path class="bg" d="M 167 255 Q 157 242 129 232 Q 119 228 108 231 Q 101 235 107 248 Q 128 333 129 341 Q 128 344 129 348 Q 141 567 108 696 Q 96 751 130 795 Q 140 808 151 795 Q 163 780 163 755 C 165 735 165 735 166 725 Q 167 701 168 670 Q 169 582 170 513 C 170 490 170 490 170 479 Q 173 295 177 283 C 179 273 173 263 167 255 Z"/>
    <path class="bg" d="M 256 738 Q 269 759 282 779 Q 298 803 305 800 Q 318 797 332 763 Q 347 724 343 675 Q 318 327 348 274 Q 358 256 350 246 Q 343 236 294 220 Q 270 213 254 222 Q 206 244 167 255 C 157 257 168 286 177 283 Q 181 282 188 280 Q 212 274 240 265 Q 265 258 274 266 Q 289 279 288 336 Q 291 568 279 696 Q 280 703 279 709 C 279 721 249 728 256 738 Z"/>
    <path class="bg" d="M 170 513 Q 219 500 255 493 Q 276 486 266 475 Q 254 463 230 462 Q 208 462 170 479 C 159 483 159 515 170 513 Z"/>
    <path class="bg" d="M 163 755 Q 212 745 256 738 C 268 736 290 714 279 709 Q 272 705 261 703 Q 225 699 166 725 C 157 729 153 757 163 755 Z"/>
    <path class="bg" d="M 500 400 Q 546 339 573 299 Q 633 202 660 181 Q 679 163 662 149 Q 643 136 611 129 Q 581 122 569 129 Q 556 135 565 148 Q 583 178 527 291 Q 500 346 470 407 C 465 416 494 408 500 400 Z"/>
    <path class="bg" d="M 432 415 Q 414 402 393 395 Q 386 394 379 401 Q 376 407 383 417 Q 425 523 388 705 Q 375 759 378 773 Q 387 804 398 816 Q 408 829 417 816 Q 441 786 443 677 Q 443 514 451 452 C 454 438 443 423 432 415 Z"/>
    <path class="bg" d="M 451 452 Q 466 437 668 402 Q 713 395 797 386 Q 807 385 813 390 Q 823 397 825 443 Q 837 639 816 750 Q 810 786 780 783 Q 743 777 708 772 Q 695 768 694 775 Q 694 782 705 792 Q 783 847 805 876 Q 818 892 828 889 Q 844 885 856 856 Q 886 796 890 621 Q 886 420 897 393 Q 913 371 900 366 Q 884 351 845 337 Q 821 322 778 341 Q 558 380 500 400 C 480 405 480 405 470 407 Q 451 410 432 415 C 418 418 440 460 451 452 Z"/>
    <path class="bg" d="M 538 530 Q 529 524 504 519 Q 494 516 490 521 Q 486 525 492 539 Q 513 588 524 666 Q 525 690 539 706 Q 552 725 558 712 Q 562 699 561 679 C 559 660 559 660 558 650 Q 549 577 548 554 C 548 545 546 534 538 530 Z"/>
    <path class="bg" d="M 694 636 Q 712 575 731 557 Q 752 535 732 522 Q 716 512 692 495 Q 674 485 632 508 Q 598 520 538 530 C 530 532 540 556 548 554 Q 551 554 636 538 Q 658 534 663 543 Q 669 547 662 574 Q 656 599 649 629 C 647 644 691 651 694 636 Z"/>
    <path class="bg" d="M 561 679 Q 565 679 573 678 Q 613 669 702 662 Q 711 661 712 654 Q 712 648 694 636 C 682 627 664 629 649 629 Q 648 628 645 629 Q 596 642 558 650 C 548 652 551 679 561 679 Z"/>
</g>
<g id="anim-layer">
    <path style="--d:1s; stroke:#FF4444;" pathLength="3333" clip-path="url(#z26188c1)" d="M 113 237 L 140 264 L 151 341 L 141 795"/>
    <path style="--d:2s; stroke:#FF4444;" pathLength="3333" clip-path="url(#z26188c2)" d="M 173 259 L 271 239 L 318 269 L 311 711 L 290 788"/>
    <path style="--d:3s; stroke:#FF4444;" pathLength="3333" clip-path="url(#z26188c3)" d="M 173 505 L 263 482"/>
    <path style="--d:4s; stroke:#FF4444;" pathLength="3333" clip-path="url(#z26188c4)" d="M 173 745 L 270 711"/>
    <path style="--d:5s; stroke:#000;" pathLength="3333" clip-path="url(#z26188c5)" d="M 569 137 L 616 184 L 477 400"/>
    <path style="--d:6s; stroke:#000;" pathLength="3333" clip-path="url(#z26188c6)" d="M 386 402 L 415 433 L 425 491 L 400 815"/>
    <path style="--d:7s; stroke:#000;" pathLength="3333" clip-path="url(#z26188c7)" d="M 440 416 L 464 427 L 803 359 L 861 386 L 839 792 L 810 838 L 704 777"/>
    <path style="--d:8s; stroke:#000;" pathLength="3333" clip-path="url(#z26188c8)" d="M 496 525 L 526 565 L 550 708"/>
    <path style="--d:9s; stroke:#000;" pathLength="3333" clip-path="url(#z26188c9)" d="M 547 534 L 687 526 L 703 546 L 668 631"/>
    <path style="--d:10s; stroke:#000;" pathLength="3333" clip-path="url(#z26188c10)" d="M 567 672 L 703 653"/>
</g>
</svg>