<svg id="z26191" class="acjk" viewBox="0 0 1024 1024" xmlns="http://www.w3.org/2000/svg">

<style>
<![CDATA[
@keyframes zk { to { stroke-dashoffset:0; } }
svg.acjk path[clip-path] {
    --t:0.8s;
    animation:zk var(--t) linear forwards var(--d);
    stroke-dasharray:3337;
    stroke-dashoffset:3339;
    stroke-width:128;
    stroke-linecap:round;
    fill:none;
}
/* Low opacity for background improves visual overlap at intersections */
svg.acjk .bg { fill:#ccc; opacity: 0.5; } 
]]>
</style>
<defs>
    <clipPath id="z26191c1"><path d="M 357 114 C 349 110 333 107 312 104 C 303 102 299 103 297 107 C 293 111 294 118 300 129 C 321 169 339 223 353 291 C 357 311 363 328 375 341 C 388 355 396 357 399 346 C 400 340 401 333 401 327 C 400 311 400 311 400 303 C 399 290 392 264 387 237 C 384 221 384 221 382 213 C 376 185 372 164 370 150 C 367 137 369 119 357 114 Z"/></clipPath>
    <clipPath id="z26191c2"><path d="M 570 308 C 582 328 593 341 604 347 C 610 353 619 348 631 334 C 641 320 656 274 678 199 C 684 178 695 158 712 142 C 721 133 723 124 715 115 C 704 102 685 87 656 69 C 645 62 614 67 562 76 C 547 78 479 88 357 114 C 344 116 357 152 370 150 C 404 141 490 123 578 111 C 596 108 609 109 616 117 C 623 125 625 134 624 144 C 610 214 598 257 590 275 C 585 287 562 298 570 308 Z"/></clipPath>
    <clipPath id="z26191c3"><path d="M 387 237 C 391 237 395 237 401 237 C 457 228 507 221 551 215 C 565 212 570 206 565 199 C 558 190 547 184 531 181 C 520 178 470 189 382 213 C 374 216 379 237 387 237 Z"/></clipPath>
    <clipPath id="z26191c4"><path d="M 401 327 C 414 328 524 312 570 308 C 583 308 602 280 590 275 C 587 274 585 273 583 273 C 573 271 512 281 400 303 C 392 304 393 327 401 327 Z"/></clipPath>
    <clipPath id="z26191c5"><path d="M 522 403 C 522 396 521 386 518 375 C 514 360 490 348 446 338 C 437 335 431 335 428 337 C 424 339 424 344 425 351 C 425 351 443 371 481 409 C 491 419 522 417 522 403 Z"/></clipPath>
    <clipPath id="z26191c6"><path d="M 283 435 C 274 421 266 411 259 407 C 246 399 239 403 241 419 C 243 435 240 459 220 487 C 194 520 189 550 211 585 C 221 601 231 600 243 582 C 251 567 259 548 265 526 C 271 502 276 482 281 468 C 285 458 290 444 283 435 Z"/></clipPath>
    <clipPath id="z26191c7"><path d="M 281 468 C 291 472 312 472 344 464 C 429 441 538 421 672 412 C 686 410 698 409 704 412 C 713 416 715 423 714 428 C 713 429 703 453 682 498 C 677 506 676 512 681 515 C 685 517 693 515 704 509 C 740 486 772 471 801 464 C 825 457 836 451 836 446 C 835 439 812 419 769 386 C 755 375 742 371 727 374 C 684 380 598 391 522 403 C 495 407 495 407 481 409 C 447 413 311 432 283 435 C 272 437 270 466 281 468 Z"/></clipPath>
    <clipPath id="z26191c8"><path d="M 530 804 C 577 829 634 868 704 919 C 720 931 735 937 747 937 C 761 936 768 929 768 917 C 767 903 756 881 737 852 C 725 834 667 804 561 765 C 527 752 527 752 510 746 C 469 730 434 720 405 714 C 392 711 389 703 396 691 C 406 669 417 650 426 635 C 440 610 440 610 447 598 C 457 578 463 559 476 548 C 481 542 485 537 483 531 C 480 522 466 508 442 488 C 435 482 428 480 420 482 C 411 484 409 490 414 501 C 420 517 414 552 393 604 C 382 629 382 629 377 642 C 368 661 356 676 348 691 C 340 702 338 713 341 721 C 342 727 349 732 361 735 C 413 747 453 763 485 780 C 515 796 515 796 530 804 Z"/></clipPath>
    <clipPath id="z26191c9"><path d="M 485 780 C 434 830 373 856 287 874 C 253 880 235 882 233 884 C 228 886 229 888 235 893 C 237 894 244 895 254 896 C 303 898 345 895 410 879 C 456 867 497 839 532 804 C 543 792 552 779 561 765 C 583 726 604 675 612 651 C 616 638 620 631 625 619 C 630 606 624 590 617 578 C 600 549 583 543 563 544 C 556 544 553 550 554 558 C 554 566 556 576 556 586 C 554 611 554 611 553 623 C 550 655 541 688 510 746 C 503 758 494 770 485 780 Z"/></clipPath>
    <clipPath id="z26191c10"><path d="M 625 619 C 683 615 750 615 824 618 C 844 618 864 618 883 619 C 897 619 906 617 910 611 C 914 602 911 592 899 583 C 861 554 829 543 803 548 C 753 556 691 568 617 578 C 576 583 576 583 556 586 C 523 590 487 593 447 598 C 411 602 411 602 393 604 C 315 612 232 619 146 629 C 131 630 128 636 140 649 C 149 659 161 666 174 670 C 188 674 201 674 213 672 C 264 658 319 650 377 642 C 410 637 410 637 426 635 C 498 624 541 623 553 623 C 601 620 601 620 625 619 Z"/></clipPath>
</defs>
<g id="bg-layer">
    <path class="bg" d="M 357 114 C 349 110 333 107 312 104 C 303 102 299 103 297 107 C 293 111 294 118 300 129 C 321 169 339 223 353 291 C 357 311 363 328 375 341 C 388 355 396 357 399 346 C 400 340 401 333 401 327 C 400 311 400 311 400 303 C 399 290 392 264 387 237 C 384 221 384 221 382 213 C 376 185 372 164 370 150 C 367 137 369 119 357 114 Z"/>
    <path class="bg" d="M 570 308 C 582 328 593 341 604 347 C 610 353 619 348 631 334 C 641 320 656 274 678 199 C 684 178 695 158 712 142 C 721 133 723 124 715 115 C 704 102 685 87 656 69 C 645 62 614 67 562 76 C 547 78 479 88 357 114 C 344 116 357 152 370 150 C 404 141 490 123 578 111 C 596 108 609 109 616 117 C 623 125 625 134 624 144 C 610 214 598 257 590 275 C 585 287 562 298 570 308 Z"/>
    <path class="bg" d="M 387 237 C 391 237 395 237 401 237 C 457 228 507 221 551 215 C 565 212 570 206 565 199 C 558 190 547 184 531 181 C 520 178 470 189 382 213 C 374 216 379 237 387 237 Z"/>
    <path class="bg" d="M 401 327 C 414 328 524 312 570 308 C 583 308 602 280 590 275 C 587 274 585 273 583 273 C 573 271 512 281 400 303 C 392 304 393 327 401 327 Z"/>
    <path class="bg" d="M 522 403 C 522 396 521 386 518 375 C 514 360 490 348 446 338 C 437 335 431 335 428 337 C 424 339 424 344 425 351 C 425 351 443 371 481 409 C 491 419 522 417 522 403 Z"/>
    <path class="bg" d="M 283 435 C 274 421 266 411 259 407 C 246 399 239 403 241 419 C 243 435 240 459 220 487 C 194 520 189 550 211 585 C 221 601 231 600 243 582 C 251 567 259 548 265 526 C 271 502 276 482 281 468 C 285 458 290 444 283 435 Z"/>
    <path class="bg" d="M 281 468 C 291 472 312 472 344 464 C 429 441 538 421 672 412 C 686 410 698 409 704 412 C 713 416 715 423 714 428 C 713 429 703 453 682 498 C 677 506 676 512 681 515 C 685 517 693 515 704 509 C 740 486 772 471 801 464 C 825 457 836 451 836 446 C 835 439 812 419 769 386 C 755 375 742 371 727 374 C 684 380 598 391 522 403 C 495 407 495 407 481 409 C 447 413 311 432 283 435 C 272 437 270 466 281 468 Z"/>
    <path class="bg" d="M 530 804 C 577 829 634 868 704 919 C 720 931 735 937 747 937 C 761 936 768 929 768 917 C 767 903 756 881 737 852 C 725 834 667 804 561 765 C 527 752 527 752 510 746 C 469 730 434 720 405 714 C 392 711 389 703 396 691 C 406 669 417 650 426 635 C 440 610 440 610 447 598 C 457 578 463 559 476 548 C 481 542 485 537 483 531 C 480 522 466 508 442 488 C 435 482 428 480 420 482 C 411 484 409 490 414 501 C 420 517 414 552 393 604 C 382 629 382 629 377 642 C 368 661 356 676 348 691 C 340 702 338 713 341 721 C 342 727 349 732 361 735 C 413 747 453 763 485 780 C 515 796 515 796 530 804 Z"/>
    <path class="bg" d="M 485 780 C 434 830 373 856 287 874 C 253 880 235 882 233 884 C 228 886 229 888 235 893 C 237 894 244 895 254 896 C 303 898 345 895 410 879 C 456 867 497 839 532 804 C 543 792 552 779 561 765 C 583 726 604 675 612 651 C 616 638 620 631 625 619 C 630 606 624 590 617 578 C 600 549 583 543 563 544 C 556 544 553 550 554 558 C 554 566 556 576 556 586 C 554 611 554 611 553 623 C 550 655 541 688 510 746 C 503 758 494 770 485 780 Z"/>
    <path class="bg" d="M 625 619 C 683 615 750 615 824 618 C 844 618 864 618 883 619 C 897 619 906 617 910 611 C 914 602 911 592 899 583 C 861 554 829 543 803 548 C 753 556 691 568 617 578 C 576 583 576 583 556 586 C 523 590 487 593 447 598 C 411 602 411 602 393 604 C 315 612 232 619 146 629 C 131 630 128 636 140 649 C 149 659 161 666 174 670 C 188 674 201 674 213 672 C 264 658 319 650 377 642 C 410 637 410 637 426 635 C 498 624 541 623 553 623 C 601 620 601 620 625 619 Z"/>
</g>
<g id="anim-layer">
    <path style="--d:1s; stroke:#FF4444;" pathLength="3333" clip-path="url(#z26191c1)" d="M 303 110 L 345 162 L 387 347"/>
    <path style="--d:2s; stroke:#FF4444;" pathLength="3333" clip-path="url(#z26191c2)" d="M 364 118 L 607 89 L 646 101 L 671 137 L 591 335"/>
    <path style="--d:3s; stroke:#FF4444;" pathLength="3333" clip-path="url(#z26191c3)" d="M 389 218 L 559 205"/>
    <path style="--d:4s; stroke:#FF4444;" pathLength="3333" clip-path="url(#z26191c4)" d="M 405 319 L 584 281"/>
    <path style="--d:5s; stroke:#000;" pathLength="3333" clip-path="url(#z26191c5)" d="M 434 346 L 510 401"/>
    <path style="--d:6s; stroke:#000;" pathLength="3333" clip-path="url(#z26191c6)" d="M 251 407 L 261 447 L 224 590"/>
    <path style="--d:7s; stroke:#000;" pathLength="3333" clip-path="url(#z26191c7)" d="M 285 462 L 713 393 L 756 415 L 781 454 L 687 508"/>
    <path style="--d:8s; stroke:#000;" pathLength="3333" clip-path="url(#z26191c8)" d="M 419 487 L 448 540 L 367 710 L 633 829 L 758 928"/>
    <path style="--d:9s; stroke:#000;" pathLength="3333" clip-path="url(#z26191c9)" d="M 562 549 L 589 620 L 508 790 L 398 860 L 238 887"/>
    <path style="--d:10s; stroke:#000;" pathLength="3333" clip-path="url(#z26191c10)" d="M 140 636 L 201 648 L 789 583 L 908 605"/>
</g>
</svg>