<svg id="z26345" class="acjk" viewBox="0 0 1024 1024" xmlns="http://www.w3.org/2000/svg">

<style>
<![CDATA[
@keyframes zk { to { stroke-dashoffset:0; } }
svg.acjk path[clip-path] {
    --t:0.8s;
    animation:zk var(--t) linear forwards var(--d);
    stroke-dasharray:3337;
    stroke-dashoffset:3339;
    stroke-width:128;
    stroke-linecap:round;
    fill:none;
}
/* Low opacity for background improves visual overlap at intersections */
svg.acjk .bg { fill:#ccc; opacity: 0.5; } 
]]>
</style>
<defs>
    <clipPath id="z26345c1"><path d="M 360 101 Q 351 97 318 93 Q 308 92 304 96 Q 300 103 308 116 Q 333 156 354 225 Q 358 246 373 259 Q 391 277 394 263 Q 395 259 395 252 C 394 236 394 236 393 228 Q 389 210 384 190 C 381 176 381 176 379 169 Q 373 144 371 131 C 369 120 370 105 360 101 Z"/></clipPath>
    <clipPath id="z26345c2"><path d="M 609 231 C 615 251 632 243 642 231 C 645 226 656 217 666 197 C 678 169 692 145 714 129 C 724 120 726 110 718 102 C 708 91 689 78 662 62 C 651 55 527 70 360 101 C 349 103 361 133 371 131 C 388 131 406 112 597 95 C 638 91 639 99 635 120 C 625 164 616 192 610 204 C 607 212 606 223 609 231 Z"/></clipPath>
    <clipPath id="z26345c3"><path d="M 384 190 C 398 192 436 181 572 166 C 598 163 583 140 557 138 C 538 136 489 146 379 169 C 372 170 377 190 384 190 Z"/></clipPath>
    <clipPath id="z26345c4"><path d="M 499 239 C 529 235 565 232 609 231 C 618 231 618 209 610 204 C 584 186 587 197 393 228 C 385 230 387 252 395 252 C 406 252 427 246 459 243 C 486 240 486 240 499 239 Z"/></clipPath>
    <clipPath id="z26345c5"><path d="M 522 277 C 525 273 524 247 499 239 C 487 234 450 234 459 243 C 470 256 481 269 494 282 C 501 289 520 286 522 277 Z"/></clipPath>
    <clipPath id="z26345c6"><path d="M 494 282 C 456 288 367 296 229 309 C 211 310 208 315 222 328 C 239 344 254 353 280 349 C 450 315 612 293 765 283 C 771 282 803 275 764 251 C 742 237 711 238 665 248 C 634 254 552 271 522 277 C 503 280 503 280 494 282 Z"/></clipPath>
    <clipPath id="z26345c7"><path d="M 330 376 C 315 370 276 357 292 387 C 301 406 312 430 320 461 C 322 469 326 477 332 484 C 345 499 350 488 351 471 C 351 462 349 454 348 446 C 345 429 342 404 342 396 C 342 388 337 379 330 376 Z"/></clipPath>
    <clipPath id="z26345c8"><path d="M 454 434 C 462 413 470 401 478 394 C 489 382 488 371 478 365 C 468 358 457 351 444 343 C 436 338 419 345 393 356 C 368 365 347 370 330 376 C 323 379 335 398 342 396 C 360 389 381 386 401 381 C 427 374 424 391 422 401 C 420 409 417 419 415 431 C 412 444 449 446 454 434 Z"/></clipPath>
    <clipPath id="z26345c9"><path d="M 351 471 C 360 470 389 464 463 458 C 464 457 487 454 454 434 C 443 427 428 429 415 431 C 390 437 368 442 348 446 C 340 447 343 473 351 471 Z"/></clipPath>
    <clipPath id="z26345c10"><path d="M 569 442 C 569 441 569 441 570 441 C 577 441 571 426 571 419 C 569 392 567 374 566 365 C 565 358 564 347 557 345 C 540 339 499 322 516 355 C 524 371 535 392 541 420 C 542 426 545 433 551 439 C 555 443 568 448 569 442 Z"/></clipPath>
    <clipPath id="z26345c11"><path d="M 685 399 C 693 382 701 372 708 367 C 720 355 720 345 709 338 C 700 332 690 323 677 315 C 668 309 658 308 649 314 C 629 324 613 331 557 345 C 550 346 559 368 566 365 C 568 363 589 358 631 351 C 652 347 657 352 652 371 C 649 379 646 390 643 402 C 640 416 679 412 685 399 Z"/></clipPath>
    <clipPath id="z26345c12"><path d="M 570 441 C 570 441 571 441 573 442 C 595 439 665 430 699 426 C 720 422 698 407 686 399 C 685 399 685 399 685 399 C 673 392 657 399 643 402 C 616 408 592 414 571 419 C 564 420 563 440 570 441 Z"/></clipPath>
    <clipPath id="z26345c13"><path d="M 599 529 C 660 520 691 507 693 507 C 701 502 701 490 673 481 C 654 475 634 482 608 489 C 572 498 572 498 554 502 C 533 506 480 516 450 520 C 416 524 416 524 399 526 C 372 529 344 529 315 531 C 298 531 295 536 307 546 C 329 563 378 558 405 555 C 434 552 434 552 448 550 C 482 545 518 539 554 535 C 584 531 584 531 599 529 Z"/></clipPath>
    <clipPath id="z26345c14"><path d="M 588 601 C 618 597 649 592 680 590 C 705 588 691 567 666 561 C 656 558 631 561 593 567 C 567 571 567 571 554 573 C 516 578 481 585 448 590 C 422 593 422 593 409 595 C 376 599 344 603 314 607 C 305 608 304 614 316 622 C 343 641 380 629 412 625 C 436 622 436 622 448 620 C 482 615 517 609 553 605 C 576 602 576 602 588 601 Z"/></clipPath>
    <clipPath id="z26345c15"><path d="M 450 520 C 450 507 448 500 441 494 C 428 484 415 476 402 472 C 395 469 372 466 383 490 C 388 502 396 512 399 526 C 403 545 403 545 405 555 C 407 564 408 585 409 595 C 411 615 411 615 412 625 C 413 635 414 648 416 663 C 418 674 449 670 449 659 C 448 644 448 631 448 620 C 448 600 448 600 448 590 C 448 576 447 563 448 550 C 449 530 449 530 450 520 Z"/></clipPath>
    <clipPath id="z26345c16"><path d="M 581 641 C 583 627 586 613 588 601 C 591 578 591 578 593 567 C 594 554 596 541 599 529 C 605 502 605 502 608 489 C 613 462 607 453 569 442 C 557 440 557 440 551 439 C 548 438 546 439 544 441 C 540 445 539 450 543 457 C 549 467 554 482 554 502 C 554 524 554 524 554 535 C 554 547 554 560 554 573 C 553 594 553 594 553 605 C 552 617 551 631 550 645 C 550 655 579 651 581 641 Z"/></clipPath>
    <clipPath id="z26345c17"><path d="M 459 685 C 576 669 715 666 832 667 C 859 667 862 651 845 637 C 813 612 786 604 765 609 C 716 618 655 631 581 641 C 560 644 560 644 550 645 C 516 649 482 654 449 659 C 427 662 427 662 416 663 C 345 671 270 678 191 688 C 178 689 176 694 186 705 C 209 729 236 726 248 724 C 296 711 346 700 399 693 C 439 688 439 688 459 685 Z"/></clipPath>
    <clipPath id="z26345c18"><path d="M 469 699 C 467 694 464 689 459 685 C 445 671 406 674 399 693 C 388 728 271 809 157 867 C 144 873 145 876 160 877 C 205 879 312 828 373 781 C 392 766 392 766 402 758 C 428 737 442 727 460 713 C 464 710 471 704 469 699 Z"/></clipPath>
    <clipPath id="z26345c19"><path d="M 373 781 C 383 807 385 830 381 850 C 377 867 372 881 365 891 C 355 903 355 916 360 930 C 367 949 374 963 385 971 C 391 975 397 971 406 961 C 423 937 462 896 525 841 C 554 814 541 811 525 820 C 464 851 432 864 429 863 C 424 860 420 852 422 840 C 424 819 429 807 431 803 C 436 781 418 767 402 758 C 392 751 368 770 373 781 Z"/></clipPath>
    <clipPath id="z26345c20"><path d="M 617 790 Q 666 759 694 747 Q 707 744 705 735 Q 701 722 686 707 Q 671 691 653 689 Q 641 689 642 704 Q 642 717 598 776 C 594 783 611 795 617 790 Z"/></clipPath>
    <clipPath id="z26345c21"><path d="M 598 776 C 576 759 553 742 532 724 C 509 704 488 697 469 699 C 463 699 456 710 460 713 C 479 727 533 769 596 827 C 666 892 713 928 739 927 C 789 924 833 916 872 907 C 910 897 898 888 868 881 C 851 877 833 874 816 870 C 733 850 665 825 617 790 C 604 781 604 781 598 776 Z"/></clipPath>
</defs>
<g id="bg-layer">
    <path class="bg" d="M 360 101 Q 351 97 318 93 Q 308 92 304 96 Q 300 103 308 116 Q 333 156 354 225 Q 358 246 373 259 Q 391 277 394 263 Q 395 259 395 252 C 394 236 394 236 393 228 Q 389 210 384 190 C 381 176 381 176 379 169 Q 373 144 371 131 C 369 120 370 105 360 101 Z"/>
    <path class="bg" d="M 609 231 C 615 251 632 243 642 231 C 645 226 656 217 666 197 C 678 169 692 145 714 129 C 724 120 726 110 718 102 C 708 91 689 78 662 62 C 651 55 527 70 360 101 C 349 103 361 133 371 131 C 388 131 406 112 597 95 C 638 91 639 99 635 120 C 625 164 616 192 610 204 C 607 212 606 223 609 231 Z"/>
    <path class="bg" d="M 384 190 C 398 192 436 181 572 166 C 598 163 583 140 557 138 C 538 136 489 146 379 169 C 372 170 377 190 384 190 Z"/>
    <path class="bg" d="M 499 239 C 529 235 565 232 609 231 C 618 231 618 209 610 204 C 584 186 587 197 393 228 C 385 230 387 252 395 252 C 406 252 427 246 459 243 C 486 240 486 240 499 239 Z"/>
    <path class="bg" d="M 522 277 C 525 273 524 247 499 239 C 487 234 450 234 459 243 C 470 256 481 269 494 282 C 501 289 520 286 522 277 Z"/>
    <path class="bg" d="M 494 282 C 456 288 367 296 229 309 C 211 310 208 315 222 328 C 239 344 254 353 280 349 C 450 315 612 293 765 283 C 771 282 803 275 764 251 C 742 237 711 238 665 248 C 634 254 552 271 522 277 C 503 280 503 280 494 282 Z"/>
    <path class="bg" d="M 330 376 C 315 370 276 357 292 387 C 301 406 312 430 320 461 C 322 469 326 477 332 484 C 345 499 350 488 351 471 C 351 462 349 454 348 446 C 345 429 342 404 342 396 C 342 388 337 379 330 376 Z"/>
    <path class="bg" d="M 454 434 C 462 413 470 401 478 394 C 489 382 488 371 478 365 C 468 358 457 351 444 343 C 436 338 419 345 393 356 C 368 365 347 370 330 376 C 323 379 335 398 342 396 C 360 389 381 386 401 381 C 427 374 424 391 422 401 C 420 409 417 419 415 431 C 412 444 449 446 454 434 Z"/>
    <path class="bg" d="M 351 471 C 360 470 389 464 463 458 C 464 457 487 454 454 434 C 443 427 428 429 415 431 C 390 437 368 442 348 446 C 340 447 343 473 351 471 Z"/>
    <path class="bg" d="M 569 442 C 569 441 569 441 570 441 C 577 441 571 426 571 419 C 569 392 567 374 566 365 C 565 358 564 347 557 345 C 540 339 499 322 516 355 C 524 371 535 392 541 420 C 542 426 545 433 551 439 C 555 443 568 448 569 442 Z"/>
    <path class="bg" d="M 685 399 C 693 382 701 372 708 367 C 720 355 720 345 709 338 C 700 332 690 323 677 315 C 668 309 658 308 649 314 C 629 324 613 331 557 345 C 550 346 559 368 566 365 C 568 363 589 358 631 351 C 652 347 657 352 652 371 C 649 379 646 390 643 402 C 640 416 679 412 685 399 Z"/>
    <path class="bg" d="M 570 441 C 570 441 571 441 573 442 C 595 439 665 430 699 426 C 720 422 698 407 686 399 C 685 399 685 399 685 399 C 673 392 657 399 643 402 C 616 408 592 414 571 419 C 564 420 563 440 570 441 Z"/>
    <path class="bg" d="M 599 529 C 660 520 691 507 693 507 C 701 502 701 490 673 481 C 654 475 634 482 608 489 C 572 498 572 498 554 502 C 533 506 480 516 450 520 C 416 524 416 524 399 526 C 372 529 344 529 315 531 C 298 531 295 536 307 546 C 329 563 378 558 405 555 C 434 552 434 552 448 550 C 482 545 518 539 554 535 C 584 531 584 531 599 529 Z"/>
    <path class="bg" d="M 588 601 C 618 597 649 592 680 590 C 705 588 691 567 666 561 C 656 558 631 561 593 567 C 567 571 567 571 554 573 C 516 578 481 585 448 590 C 422 593 422 593 409 595 C 376 599 344 603 314 607 C 305 608 304 614 316 622 C 343 641 380 629 412 625 C 436 622 436 622 448 620 C 482 615 517 609 553 605 C 576 602 576 602 588 601 Z"/>
    <path class="bg" d="M 450 520 C 450 507 448 500 441 494 C 428 484 415 476 402 472 C 395 469 372 466 383 490 C 388 502 396 512 399 526 C 403 545 403 545 405 555 C 407 564 408 585 409 595 C 411 615 411 615 412 625 C 413 635 414 648 416 663 C 418 674 449 670 449 659 C 448 644 448 631 448 620 C 448 600 448 600 448 590 C 448 576 447 563 448 550 C 449 530 449 530 450 520 Z"/>
    <path class="bg" d="M 581 641 C 583 627 586 613 588 601 C 591 578 591 578 593 567 C 594 554 596 541 599 529 C 605 502 605 502 608 489 C 613 462 607 453 569 442 C 557 440 557 440 551 439 C 548 438 546 439 544 441 C 540 445 539 450 543 457 C 549 467 554 482 554 502 C 554 524 554 524 554 535 C 554 547 554 560 554 573 C 553 594 553 594 553 605 C 552 617 551 631 550 645 C 550 655 579 651 581 641 Z"/>
    <path class="bg" d="M 459 685 C 576 669 715 666 832 667 C 859 667 862 651 845 637 C 813 612 786 604 765 609 C 716 618 655 631 581 641 C 560 644 560 644 550 645 C 516 649 482 654 449 659 C 427 662 427 662 416 663 C 345 671 270 678 191 688 C 178 689 176 694 186 705 C 209 729 236 726 248 724 C 296 711 346 700 399 693 C 439 688 439 688 459 685 Z"/>
    <path class="bg" d="M 469 699 C 467 694 464 689 459 685 C 445 671 406 674 399 693 C 388 728 271 809 157 867 C 144 873 145 876 160 877 C 205 879 312 828 373 781 C 392 766 392 766 402 758 C 428 737 442 727 460 713 C 464 710 471 704 469 699 Z"/>
    <path class="bg" d="M 373 781 C 383 807 385 830 381 850 C 377 867 372 881 365 891 C 355 903 355 916 360 930 C 367 949 374 963 385 971 C 391 975 397 971 406 961 C 423 937 462 896 525 841 C 554 814 541 811 525 820 C 464 851 432 864 429 863 C 424 860 420 852 422 840 C 424 819 429 807 431 803 C 436 781 418 767 402 758 C 392 751 368 770 373 781 Z"/>
    <path class="bg" d="M 617 790 Q 666 759 694 747 Q 707 744 705 735 Q 701 722 686 707 Q 671 691 653 689 Q 641 689 642 704 Q 642 717 598 776 C 594 783 611 795 617 790 Z"/>
    <path class="bg" d="M 598 776 C 576 759 553 742 532 724 C 509 704 488 697 469 699 C 463 699 456 710 460 713 C 479 727 533 769 596 827 C 666 892 713 928 739 927 C 789 924 833 916 872 907 C 910 897 898 888 868 881 C 851 877 833 874 816 870 C 733 850 665 825 617 790 C 604 781 604 781 598 776 Z"/>
</g>
<g id="anim-layer">
    <path style="--d:1s; stroke:#FF4444;" pathLength="3333" clip-path="url(#z26345c1)" d="M 311 99 L 345 126 L 386 264"/>
    <path style="--d:2s; stroke:#FF4444;" pathLength="3333" clip-path="url(#z26345c2)" d="M 362 108 L 644 79 L 677 124 L 617 236"/>
    <path style="--d:3s; stroke:#FF4444;" pathLength="3333" clip-path="url(#z26345c3)" d="M 381 178 L 578 154"/>
    <path style="--d:4s; stroke:#FF4444;" pathLength="3333" clip-path="url(#z26345c4)" d="M 391 242 L 612 218"/>
    <path style="--d:5s; stroke:#000;" pathLength="3333" clip-path="url(#z26345c5)" d="M 467 242 L 518 274"/>
    <path style="--d:6s; stroke:#000;" pathLength="3333" clip-path="url(#z26345c6)" d="M 222 316 L 272 327 L 778 264"/>
    <path style="--d:7s; stroke:#000;" pathLength="3333" clip-path="url(#z26345c7)" d="M 295 373 L 320 396 L 341 484"/>
    <path style="--d:8s; stroke:#000;" pathLength="3333" clip-path="url(#z26345c8)" d="M 338 384 L 439 367 L 454 387 L 432 440"/>
    <path style="--d:9s; stroke:#000;" pathLength="3333" clip-path="url(#z26345c9)" d="M 346 458 L 464 451"/>
    <path style="--d:10s; stroke:#000;" pathLength="3333" clip-path="url(#z26345c10)" d="M 520 340 L 563 440"/>
    <path style="--d:11s; stroke:#000;" pathLength="3333" clip-path="url(#z26345c11)" d="M 559 350 L 663 334 L 685 355 L 652 406"/>
    <path style="--d:12s; stroke:#000;" pathLength="3333" clip-path="url(#z26345c12)" d="M 567 431 L 700 416"/>
    <path style="--d:13s; stroke:#000;" pathLength="3333" clip-path="url(#z26345c13)" d="M 304 537 L 690 498"/>
    <path style="--d:14s; stroke:#000;" pathLength="3333" clip-path="url(#z26345c14)" d="M 314 611 L 687 579"/>
    <path style="--d:15s; stroke:#000;" pathLength="3333" clip-path="url(#z26345c15)" d="M 387 475 L 423 512 L 435 666"/>
    <path style="--d:16s; stroke:#000;" pathLength="3333" clip-path="url(#z26345c16)" d="M 547 444 L 581 479 L 560 646"/>
    <path style="--d:17s; stroke:#000;" pathLength="3333" clip-path="url(#z26345c17)" d="M 188 698 L 775 637 L 852 649"/>
    <path style="--d:18s; stroke:#000;" pathLength="3333" clip-path="url(#z26345c18)" d="M 421 678 L 432 702 L 337 781 L 159 871"/>
    <path style="--d:19s; stroke:#000;" pathLength="3333" clip-path="url(#z26345c19)" d="M 395 759 L 408 922 L 534 822"/>
    <path style="--d:20s; stroke:#000;" pathLength="3333" clip-path="url(#z26345c20)" d="M 651 694 L 667 735 L 605 784"/>
    <path style="--d:21s; stroke:#000;" pathLength="3333" clip-path="url(#z26345c21)" d="M 467 708 L 724 883 L 887 895"/>
</g>
</svg>