<svg id="z26356" class="acjk" viewBox="0 0 1024 1024" xmlns="http://www.w3.org/2000/svg">

<style>
<![CDATA[
@keyframes zk { to { stroke-dashoffset:0; } }
svg.acjk path[clip-path] {
    --t:0.8s;
    animation:zk var(--t) linear forwards var(--d);
    stroke-dasharray:3337;
    stroke-dashoffset:3339;
    stroke-width:128;
    stroke-linecap:round;
    fill:none;
}
/* Low opacity for background improves visual overlap at intersections */
svg.acjk .bg { fill:#ccc; opacity: 0.5; } 
]]>
</style>
<defs>
    <clipPath id="z26356c1"><path d="M 503 174 C 551 163 602 153 655 143 C 689 135 709 128 715 124 C 721 118 723 111 720 106 C 714 97 700 89 678 84 C 659 79 616 91 546 111 C 464 133 392 142 331 150 C 304 153 300 163 320 176 C 349 194 381 200 434 189 C 480 179 480 179 503 174 Z"/></clipPath>
    <clipPath id="z26356c2"><path d="M 305 317 C 289 308 272 302 256 300 C 251 299 247 300 244 303 C 239 307 240 312 247 320 C 273 351 292 411 303 499 C 308 540 322 569 348 584 C 348 584 349 584 351 585 C 361 587 370 579 368 562 C 365 539 365 539 364 528 C 362 515 355 503 353 490 C 336 407 330 362 330 354 C 330 339 318 324 305 317 Z"/></clipPath>
    <clipPath id="z26356c3"><path d="M 615 532 C 627 554 640 567 652 576 C 660 582 670 578 682 562 C 694 544 713 486 742 389 C 748 366 760 345 780 327 C 790 317 792 308 783 297 C 772 284 751 267 719 247 C 705 238 670 244 614 257 C 604 259 574 266 521 276 C 485 283 485 283 467 286 C 456 287 341 310 305 317 C 290 319 317 362 330 354 C 336 348 383 336 469 320 C 503 313 503 313 520 310 C 612 291 663 284 676 298 C 685 309 688 321 686 332 C 661 436 643 492 632 502 C 625 511 610 522 615 532 Z"/></clipPath>
    <clipPath id="z26356c4"><path d="M 521 427 C 547 422 573 418 598 414 C 614 411 619 405 613 396 C 606 386 593 379 575 376 C 560 373 542 376 520 383 C 487 392 487 392 470 397 C 439 405 410 414 383 422 C 372 425 374 431 388 441 C 394 445 405 447 419 445 C 435 441 452 439 470 436 C 504 430 504 430 521 427 Z"/></clipPath>
    <clipPath id="z26356c5"><path d="M 517 541 C 545 537 578 534 615 532 C 626 532 642 508 632 502 C 613 487 576 489 519 502 C 484 509 484 509 467 513 C 430 520 396 524 364 528 C 353 530 357 562 368 562 C 372 562 377 562 383 561 C 405 556 432 552 465 548 C 500 543 500 543 517 541 Z"/></clipPath>
    <clipPath id="z26356c6"><path d="M 476 723 C 496 685 512 624 517 541 C 518 515 518 515 519 502 C 520 477 521 452 521 427 C 520 398 520 398 520 383 C 519 358 519 323 520 310 C 521 287 521 287 521 276 C 521 253 523 229 530 206 C 532 197 531 191 525 187 C 519 182 511 178 503 174 C 481 165 417 172 434 189 C 450 205 460 223 463 242 C 465 261 466 271 467 286 C 468 309 468 309 469 320 C 470 346 470 371 470 397 C 470 423 470 423 470 436 C 470 462 468 488 467 513 C 466 536 466 536 465 548 C 461 614 445 659 429 687 C 421 699 413 712 405 724 C 367 773 281 823 148 872 C 139 875 134 876 131 879 C 127 882 129 888 140 888 C 166 887 191 882 238 870 C 274 860 318 845 369 820 C 401 803 428 785 447 763 C 457 750 468 737 476 723 Z"/></clipPath>
    <clipPath id="z26356c7"><path d="M 447 763 C 538 847 619 905 688 937 C 720 952 803 943 932 915 C 941 912 946 906 949 900 C 951 893 944 891 929 888 C 882 879 833 870 782 862 C 689 847 583 805 476 723 C 445 699 445 699 429 687 C 362 636 287 591 245 595 C 236 595 228 596 222 599 C 214 602 213 608 217 614 C 221 620 228 623 237 624 C 263 625 338 661 405 724 C 433 750 433 750 447 763 Z"/></clipPath>
</defs>
<g id="bg-layer">
    <path class="bg" d="M 503 174 C 551 163 602 153 655 143 C 689 135 709 128 715 124 C 721 118 723 111 720 106 C 714 97 700 89 678 84 C 659 79 616 91 546 111 C 464 133 392 142 331 150 C 304 153 300 163 320 176 C 349 194 381 200 434 189 C 480 179 480 179 503 174 Z"/>
    <path class="bg" d="M 305 317 C 289 308 272 302 256 300 C 251 299 247 300 244 303 C 239 307 240 312 247 320 C 273 351 292 411 303 499 C 308 540 322 569 348 584 C 348 584 349 584 351 585 C 361 587 370 579 368 562 C 365 539 365 539 364 528 C 362 515 355 503 353 490 C 336 407 330 362 330 354 C 330 339 318 324 305 317 Z"/>
    <path class="bg" d="M 615 532 C 627 554 640 567 652 576 C 660 582 670 578 682 562 C 694 544 713 486 742 389 C 748 366 760 345 780 327 C 790 317 792 308 783 297 C 772 284 751 267 719 247 C 705 238 670 244 614 257 C 604 259 574 266 521 276 C 485 283 485 283 467 286 C 456 287 341 310 305 317 C 290 319 317 362 330 354 C 336 348 383 336 469 320 C 503 313 503 313 520 310 C 612 291 663 284 676 298 C 685 309 688 321 686 332 C 661 436 643 492 632 502 C 625 511 610 522 615 532 Z"/>
    <path class="bg" d="M 521 427 C 547 422 573 418 598 414 C 614 411 619 405 613 396 C 606 386 593 379 575 376 C 560 373 542 376 520 383 C 487 392 487 392 470 397 C 439 405 410 414 383 422 C 372 425 374 431 388 441 C 394 445 405 447 419 445 C 435 441 452 439 470 436 C 504 430 504 430 521 427 Z"/>
    <path class="bg" d="M 517 541 C 545 537 578 534 615 532 C 626 532 642 508 632 502 C 613 487 576 489 519 502 C 484 509 484 509 467 513 C 430 520 396 524 364 528 C 353 530 357 562 368 562 C 372 562 377 562 383 561 C 405 556 432 552 465 548 C 500 543 500 543 517 541 Z"/>
    <path class="bg" d="M 476 723 C 496 685 512 624 517 541 C 518 515 518 515 519 502 C 520 477 521 452 521 427 C 520 398 520 398 520 383 C 519 358 519 323 520 310 C 521 287 521 287 521 276 C 521 253 523 229 530 206 C 532 197 531 191 525 187 C 519 182 511 178 503 174 C 481 165 417 172 434 189 C 450 205 460 223 463 242 C 465 261 466 271 467 286 C 468 309 468 309 469 320 C 470 346 470 371 470 397 C 470 423 470 423 470 436 C 470 462 468 488 467 513 C 466 536 466 536 465 548 C 461 614 445 659 429 687 C 421 699 413 712 405 724 C 367 773 281 823 148 872 C 139 875 134 876 131 879 C 127 882 129 888 140 888 C 166 887 191 882 238 870 C 274 860 318 845 369 820 C 401 803 428 785 447 763 C 457 750 468 737 476 723 Z"/>
    <path class="bg" d="M 447 763 C 538 847 619 905 688 937 C 720 952 803 943 932 915 C 941 912 946 906 949 900 C 951 893 944 891 929 888 C 882 879 833 870 782 862 C 689 847 583 805 476 723 C 445 699 445 699 429 687 C 362 636 287 591 245 595 C 236 595 228 596 222 599 C 214 602 213 608 217 614 C 221 620 228 623 237 624 C 263 625 338 661 405 724 C 433 750 433 750 447 763 Z"/>
</g>
<g id="anim-layer">
    <path style="--d:1s; stroke:#FF4444;" pathLength="3333" clip-path="url(#z26356c1)" d="M 314 160 L 397 168 L 716 108"/>
    <path style="--d:2s; stroke:#000;" pathLength="3333" clip-path="url(#z26356c2)" d="M 247 305 L 300 354 L 351 581"/>
    <path style="--d:3s; stroke:#000;" pathLength="3333" clip-path="url(#z26356c3)" d="M 309 325 L 633 271 L 709 282 L 738 317 L 645 569"/>
    <path style="--d:4s; stroke:#000;" pathLength="3333" clip-path="url(#z26356c4)" d="M 385 427 L 610 403"/>
    <path style="--d:5s; stroke:#000;" pathLength="3333" clip-path="url(#z26356c5)" d="M 360 544 L 630 510"/>
    <path style="--d:6s; stroke:#000;" pathLength="3333" clip-path="url(#z26356c6)" d="M 439 184 L 494 211 L 488 576 L 453 705 L 348 804 L 138 882"/>
    <path style="--d:7s; stroke:#000;" pathLength="3333" clip-path="url(#z26356c7)" d="M 222 604 L 334 645 L 667 878 L 750 901 L 943 899"/>
</g>
</svg>