<svg id="z26409" class="acjk" viewBox="0 0 1024 1024" xmlns="http://www.w3.org/2000/svg">

<style>
<![CDATA[
@keyframes zk { to { stroke-dashoffset:0; } }
svg.acjk path[clip-path] {
    --t:0.8s;
    animation:zk var(--t) linear forwards var(--d);
    stroke-dasharray:3337;
    stroke-dashoffset:3339;
    stroke-width:128;
    stroke-linecap:round;
    fill:none;
}
/* Low opacity for background improves visual overlap at intersections */
svg.acjk .bg { fill:#ccc; opacity: 0.5; } 
]]>
</style>
<defs>
    <clipPath id="z26409c1"><path d="M 552 396 C 597 391 723 380 883 391 C 940 394 916 361 899 347 C 863 317 831 306 804 311 C 741 321 592 345 552 350 C 513 354 513 354 494 356 C 386 367 264 382 138 393 C 123 394 120 404 132 417 C 151 439 177 451 205 445 C 264 430 432 408 495 402 C 533 398 533 398 552 396 Z"/></clipPath>
    <clipPath id="z26409c2"><path d="M 457 799 C 432 791 407 786 382 780 C 343 771 343 784 364 800 C 424 845 464 884 487 913 C 496 924 513 924 523 916 C 545 896 557 852 556 787 C 555 744 552 526 552 396 C 552 365 552 365 552 350 C 552 272 557 211 565 179 C 568 165 565 147 555 139 C 537 123 512 114 493 108 C 479 104 472 103 467 109 C 462 113 465 133 472 145 C 491 183 493 315 494 356 C 495 387 495 387 495 402 C 498 573 493 784 479 796 C 473 800 466 801 457 799 Z"/></clipPath>
    <clipPath id="z26409c3"><path d="M 309 522 C 285 556 239 644 210 675 C 191 694 186 716 193 743 C 196 754 213 760 229 754 C 270 735 314 640 331 586 C 337 564 345 544 341 527 C 337 512 324 499 309 522 Z"/></clipPath>
    <clipPath id="z26409c4"><path d="M 654 548 C 694 586 750 644 800 703 C 811 716 823 727 835 730 C 841 731 847 727 853 721 C 861 711 862 691 855 659 C 845 618 772 564 658 514 C 650 510 644 512 643 521 C 641 531 646 540 654 548 Z"/></clipPath>
</defs>
<g id="bg-layer">
    <path class="bg" d="M 552 396 C 597 391 723 380 883 391 C 940 394 916 361 899 347 C 863 317 831 306 804 311 C 741 321 592 345 552 350 C 513 354 513 354 494 356 C 386 367 264 382 138 393 C 123 394 120 404 132 417 C 151 439 177 451 205 445 C 264 430 432 408 495 402 C 533 398 533 398 552 396 Z"/>
    <path class="bg" d="M 457 799 C 432 791 407 786 382 780 C 343 771 343 784 364 800 C 424 845 464 884 487 913 C 496 924 513 924 523 916 C 545 896 557 852 556 787 C 555 744 552 526 552 396 C 552 365 552 365 552 350 C 552 272 557 211 565 179 C 568 165 565 147 555 139 C 537 123 512 114 493 108 C 479 104 472 103 467 109 C 462 113 465 133 472 145 C 491 183 493 315 494 356 C 495 387 495 387 495 402 C 498 573 493 784 479 796 C 473 800 466 801 457 799 Z"/>
    <path class="bg" d="M 309 522 C 285 556 239 644 210 675 C 191 694 186 716 193 743 C 196 754 213 760 229 754 C 270 735 314 640 331 586 C 337 564 345 544 341 527 C 337 512 324 499 309 522 Z"/>
    <path class="bg" d="M 654 548 C 694 586 750 644 800 703 C 811 716 823 727 835 730 C 841 731 847 727 853 721 C 861 711 862 691 855 659 C 845 618 772 564 658 514 C 650 510 644 512 643 521 C 641 531 646 540 654 548 Z"/>
</g>
<g id="anim-layer">
    <path style="--d:1s; stroke:#FF4444;" pathLength="3333" clip-path="url(#z26409c1)" d="M 131 401 L 198 416 L 800 349 L 915 371"/>
    <path style="--d:2s; stroke:#000;" pathLength="3333" clip-path="url(#z26409c2)" d="M 471 115 L 524 184 L 517 819 L 485 867 L 355 784"/>
    <path style="--d:3s; stroke:#000;" pathLength="3333" clip-path="url(#z26409c3)" d="M 329 515 L 202 750"/>
    <path style="--d:4s; stroke:#000;" pathLength="3333" clip-path="url(#z26409c4)" d="M 648 521 L 797 640 L 841 725"/>
</g>
</svg>