<svg id="z26412" class="acjk" viewBox="0 0 1024 1024" xmlns="http://www.w3.org/2000/svg">

<style>
<![CDATA[
@keyframes zk { to { stroke-dashoffset:0; } }
svg.acjk path[clip-path] {
    --t:0.8s;
    animation:zk var(--t) linear forwards var(--d);
    stroke-dasharray:3337;
    stroke-dashoffset:3339;
    stroke-width:128;
    stroke-linecap:round;
    fill:none;
}
/* Low opacity for background improves visual overlap at intersections */
svg.acjk .bg { fill:#ccc; opacity: 0.5; } 
]]>
</style>
<defs>
    <clipPath id="z26412c1"><path d="M 524 323 C 566 316 652 302 780 292 C 788 291 798 291 803 279 C 806 270 793 260 778 252 C 747 235 708 236 653 250 C 607 261 547 273 525 277 C 493 282 493 282 477 284 C 456 286 367 298 218 314 C 195 316 191 323 210 339 C 234 357 258 370 275 366 C 287 362 346 350 452 334 C 500 327 500 327 524 323 Z"/></clipPath>
    <clipPath id="z26412c2"><path d="M 524 352 C 524 342 523 332 524 323 C 525 292 525 292 525 277 C 526 226 531 181 545 145 C 549 133 554 122 551 114 C 546 105 522 91 484 67 C 465 54 451 54 437 66 C 432 69 430 77 438 88 C 459 122 474 156 475 192 C 475 221 477 251 477 284 C 476 324 477 364 478 404 C 480 558 474 674 473 691 C 470 720 470 720 468 735 C 462 782 456 802 448 836 C 440 863 446 899 465 945 C 469 956 474 962 481 967 C 485 969 489 969 495 965 C 500 960 508 953 515 938 C 522 920 524 899 524 878 C 523 860 523 811 523 728 C 523 697 523 697 523 682 C 523 607 524 512 524 398 C 524 367 524 367 524 352 Z"/></clipPath>
    <clipPath id="z26412c3"><path d="M 452 334 C 390 476 263 622 75 776 C 65 783 64 788 72 791 C 77 792 85 793 94 789 C 234 712 401 552 478 404 C 512 348 476 273 452 334 Z"/></clipPath>
    <clipPath id="z26412c4"><path d="M 524 398 C 590 494 665 591 753 693 C 766 708 788 719 814 719 C 900 719 958 716 986 712 C 994 710 1000 707 1001 703 C 1002 698 993 692 983 688 C 891 653 797 608 782 595 C 766 582 593 426 524 352 C 513 341 515 386 524 398 Z"/></clipPath>
    <clipPath id="z26412c5"><path d="M 473 691 C 442 696 413 700 386 702 C 363 703 339 705 313 708 C 294 709 292 715 306 728 C 320 741 342 752 372 749 C 401 746 432 739 468 735 C 505 730 505 730 523 728 C 533 726 571 721 640 717 C 646 716 655 715 660 706 C 663 698 651 690 639 683 C 617 668 588 670 523 682 C 490 688 490 688 473 691 Z"/></clipPath>
</defs>
<g id="bg-layer">
    <path class="bg" d="M 524 323 C 566 316 652 302 780 292 C 788 291 798 291 803 279 C 806 270 793 260 778 252 C 747 235 708 236 653 250 C 607 261 547 273 525 277 C 493 282 493 282 477 284 C 456 286 367 298 218 314 C 195 316 191 323 210 339 C 234 357 258 370 275 366 C 287 362 346 350 452 334 C 500 327 500 327 524 323 Z"/>
    <path class="bg" d="M 524 352 C 524 342 523 332 524 323 C 525 292 525 292 525 277 C 526 226 531 181 545 145 C 549 133 554 122 551 114 C 546 105 522 91 484 67 C 465 54 451 54 437 66 C 432 69 430 77 438 88 C 459 122 474 156 475 192 C 475 221 477 251 477 284 C 476 324 477 364 478 404 C 480 558 474 674 473 691 C 470 720 470 720 468 735 C 462 782 456 802 448 836 C 440 863 446 899 465 945 C 469 956 474 962 481 967 C 485 969 489 969 495 965 C 500 960 508 953 515 938 C 522 920 524 899 524 878 C 523 860 523 811 523 728 C 523 697 523 697 523 682 C 523 607 524 512 524 398 C 524 367 524 367 524 352 Z"/>
    <path class="bg" d="M 452 334 C 390 476 263 622 75 776 C 65 783 64 788 72 791 C 77 792 85 793 94 789 C 234 712 401 552 478 404 C 512 348 476 273 452 334 Z"/>
    <path class="bg" d="M 524 398 C 590 494 665 591 753 693 C 766 708 788 719 814 719 C 900 719 958 716 986 712 C 994 710 1000 707 1001 703 C 1002 698 993 692 983 688 C 891 653 797 608 782 595 C 766 582 593 426 524 352 C 513 341 515 386 524 398 Z"/>
    <path class="bg" d="M 473 691 C 442 696 413 700 386 702 C 363 703 339 705 313 708 C 294 709 292 715 306 728 C 320 741 342 752 372 749 C 401 746 432 739 468 735 C 505 730 505 730 523 728 C 533 726 571 721 640 717 C 646 716 655 715 660 706 C 663 698 651 690 639 683 C 617 668 588 670 523 682 C 490 688 490 688 473 691 Z"/>
</g>
<g id="anim-layer">
    <path style="--d:1s; stroke:#FF4444;" pathLength="3333" clip-path="url(#z26412c1)" d="M 205 324 L 275 337 L 698 270 L 798 277"/>
    <path style="--d:2s; stroke:#FF4444;" pathLength="3333" clip-path="url(#z26412c2)" d="M 439 73 L 509 132 L 486 963"/>
    <path style="--d:3s; stroke:#FF4444;" pathLength="3333" clip-path="url(#z26412c3)" d="M 472 319 L 457 386 L 345 549 L 216 680 L 74 785"/>
    <path style="--d:4s; stroke:#FF4444;" pathLength="3333" clip-path="url(#z26412c4)" d="M 526 364 L 791 660 L 995 701"/>
    <path style="--d:5s; stroke:#000;" pathLength="3333" clip-path="url(#z26412c5)" d="M 311 720 L 655 701"/>
</g>
</svg>