<svg id="z26432" class="acjk" viewBox="0 0 1024 1024" xmlns="http://www.w3.org/2000/svg">

<style>
<![CDATA[
@keyframes zk { to { stroke-dashoffset:0; } }
svg.acjk path[clip-path] {
    --t:0.8s;
    animation:zk var(--t) linear forwards var(--d);
    stroke-dasharray:3337;
    stroke-dashoffset:3339;
    stroke-width:128;
    stroke-linecap:round;
    fill:none;
}
/* Low opacity for background improves visual overlap at intersections */
svg.acjk .bg { fill:#ccc; opacity: 0.5; } 
]]>
</style>
<defs>
    <clipPath id="z26432c1"><path d="M 566 271 C 572 264 604 225 673 161 C 680 153 684 143 676 131 C 653 99 630 84 613 84 C 605 83 601 89 600 99 C 594 147 571 200 523 250 C 500 273 500 273 489 285 C 449 325 399 361 356 387 C 321 407 293 422 276 436 C 266 443 268 448 280 449 C 298 449 322 442 351 429 C 418 396 480 358 528 310 C 553 284 553 284 566 271 Z"/></clipPath>
    <clipPath id="z26432c2"><path d="M 528 310 C 648 386 705 430 708 431 C 712 431 716 427 720 422 C 725 413 722 398 712 375 C 700 349 653 313 566 271 C 537 257 537 257 523 250 C 446 212 386 186 343 170 C 338 168 335 170 335 178 C 335 184 339 191 347 196 C 391 222 438 252 489 285 C 515 302 515 302 528 310 Z"/></clipPath>
    <clipPath id="z26432c3"><path d="M 548 556 C 594 553 711 548 871 555 C 885 555 894 553 898 547 C 902 538 899 528 887 519 C 851 490 819 478 792 483 C 729 493 648 506 548 518 C 513 522 513 522 496 524 C 389 536 272 546 146 557 C 131 558 129 564 140 577 C 149 587 160 595 173 599 C 187 603 200 604 213 601 C 302 578 397 564 497 559 C 531 557 531 557 548 556 Z"/></clipPath>
    <clipPath id="z26432c4"><path d="M 459 837 C 428 828 397 818 366 809 C 358 806 354 808 355 814 C 355 818 359 823 366 828 C 426 874 466 912 489 941 C 498 952 509 952 519 944 C 541 924 553 880 552 815 C 551 772 548 686 548 556 C 548 531 548 531 548 518 C 548 499 553 482 559 469 C 564 456 561 446 551 437 C 533 422 515 412 495 406 C 482 402 474 401 469 407 C 464 411 467 418 474 429 C 488 452 494 484 496 524 C 497 547 497 547 497 559 C 501 730 495 822 481 834 C 475 838 468 839 459 837 Z"/></clipPath>
    <clipPath id="z26432c5"><path d="M 309 652 C 284 686 257 718 228 749 C 209 768 204 791 211 817 C 214 829 223 834 239 828 C 280 809 306 770 323 716 C 329 694 335 675 333 657 C 332 650 328 645 324 645 C 318 643 312 646 309 652 Z"/></clipPath>
    <clipPath id="z26432c6"><path d="M 642 658 C 682 696 728 744 778 803 C 789 816 799 827 811 830 C 817 831 823 827 829 821 C 837 811 838 791 831 759 C 821 718 758 674 644 624 C 636 620 632 622 631 631 C 629 641 634 650 642 658 Z"/></clipPath>
</defs>
<g id="bg-layer">
    <path class="bg" d="M 566 271 C 572 264 604 225 673 161 C 680 153 684 143 676 131 C 653 99 630 84 613 84 C 605 83 601 89 600 99 C 594 147 571 200 523 250 C 500 273 500 273 489 285 C 449 325 399 361 356 387 C 321 407 293 422 276 436 C 266 443 268 448 280 449 C 298 449 322 442 351 429 C 418 396 480 358 528 310 C 553 284 553 284 566 271 Z"/>
    <path class="bg" d="M 528 310 C 648 386 705 430 708 431 C 712 431 716 427 720 422 C 725 413 722 398 712 375 C 700 349 653 313 566 271 C 537 257 537 257 523 250 C 446 212 386 186 343 170 C 338 168 335 170 335 178 C 335 184 339 191 347 196 C 391 222 438 252 489 285 C 515 302 515 302 528 310 Z"/>
    <path class="bg" d="M 548 556 C 594 553 711 548 871 555 C 885 555 894 553 898 547 C 902 538 899 528 887 519 C 851 490 819 478 792 483 C 729 493 648 506 548 518 C 513 522 513 522 496 524 C 389 536 272 546 146 557 C 131 558 129 564 140 577 C 149 587 160 595 173 599 C 187 603 200 604 213 601 C 302 578 397 564 497 559 C 531 557 531 557 548 556 Z"/>
    <path class="bg" d="M 459 837 C 428 828 397 818 366 809 C 358 806 354 808 355 814 C 355 818 359 823 366 828 C 426 874 466 912 489 941 C 498 952 509 952 519 944 C 541 924 553 880 552 815 C 551 772 548 686 548 556 C 548 531 548 531 548 518 C 548 499 553 482 559 469 C 564 456 561 446 551 437 C 533 422 515 412 495 406 C 482 402 474 401 469 407 C 464 411 467 418 474 429 C 488 452 494 484 496 524 C 497 547 497 547 497 559 C 501 730 495 822 481 834 C 475 838 468 839 459 837 Z"/>
    <path class="bg" d="M 309 652 C 284 686 257 718 228 749 C 209 768 204 791 211 817 C 214 829 223 834 239 828 C 280 809 306 770 323 716 C 329 694 335 675 333 657 C 332 650 328 645 324 645 C 318 643 312 646 309 652 Z"/>
    <path class="bg" d="M 642 658 C 682 696 728 744 778 803 C 789 816 799 827 811 830 C 817 831 823 827 829 821 C 837 811 838 791 831 759 C 821 718 758 674 644 624 C 636 620 632 622 631 631 C 629 641 634 650 642 658 Z"/>
</g>
<g id="anim-layer">
    <path style="--d:1s; stroke:#FF4444;" pathLength="3333" clip-path="url(#z26432c1)" d="M 611 89 L 632 150 L 528 278 L 404 379 L 277 443"/>
    <path style="--d:2s; stroke:#FF4444;" pathLength="3333" clip-path="url(#z26432c2)" d="M 342 177 L 626 337 L 714 422"/>
    <path style="--d:3s; stroke:#000;" pathLength="3333" clip-path="url(#z26432c3)" d="M 141 565 L 199 577 L 781 518 L 896 537"/>
    <path style="--d:4s; stroke:#000;" pathLength="3333" clip-path="url(#z26432c4)" d="M 475 413 L 525 461 L 517 851 L 490 897 L 359 815"/>
    <path style="--d:5s; stroke:#000;" pathLength="3333" clip-path="url(#z26432c5)" d="M 323 649 L 221 823"/>
    <path style="--d:6s; stroke:#000;" pathLength="3333" clip-path="url(#z26432c6)" d="M 637 631 L 774 740 L 822 824"/>
</g>
</svg>