<svg id="z26464" class="acjk" viewBox="0 0 1024 1024" xmlns="http://www.w3.org/2000/svg">

<style>
<![CDATA[
@keyframes zk { to { stroke-dashoffset:0; } }
svg.acjk path[clip-path] {
    --t:0.8s;
    animation:zk var(--t) linear forwards var(--d);
    stroke-dasharray:3337;
    stroke-dashoffset:3339;
    stroke-width:128;
    stroke-linecap:round;
    fill:none;
}
/* Low opacity for background improves visual overlap at intersections */
svg.acjk .bg { fill:#ccc; opacity: 0.5; } 
]]>
</style>
<defs>
    <clipPath id="z26464c1"><path d="M 323 403 C 352 394 418 378 433 365 C 444 354 439 337 398 331 C 371 326 349 338 325 347 C 292 359 292 359 275 365 C 200 391 104 411 83 417 C 58 422 55 431 74 441 C 133 470 198 439 258 422 C 301 409 301 409 323 403 Z"/></clipPath>
    <clipPath id="z26464c2"><path d="M 320 493 C 320 464 321 434 323 403 C 324 366 324 366 325 347 C 327 267 329 200 348 150 C 355 130 355 117 340 106 C 328 97 310 86 288 71 C 265 55 224 57 242 91 C 260 125 275 166 275 221 C 275 221 276 317 275 365 C 271 468 271 468 269 519 C 265 612 261 716 239 807 C 231 835 237 878 253 916 C 271 961 292 930 303 910 C 311 892 313 872 314 850 C 315 807 315 628 319 523 C 320 503 320 503 320 493 Z"/></clipPath>
    <clipPath id="z26464c3"><path d="M 258 422 C 228 510 166 615 63 761 C 44 787 54 801 77 778 C 152 703 222 615 270 519 C 305 432 287 333 258 421 C 258 422 258 422 258 422 Z"/></clipPath>
    <clipPath id="z26464c4"><path d="M 319 523 C 371 560 392 599 419 599 C 443 599 434 561 430 549 C 419 516 333 493 320 493 C 310 491 311 517 319 523 Z"/></clipPath>
    <clipPath id="z26464c5"><path d="M 625 402 C 749 370 807 354 816 348 C 841 328 794 313 778 310 C 755 305 732 309 710 319 C 679 331 646 343 611 353 C 572 363 530 371 485 378 C 458 381 454 391 475 404 C 501 420 535 424 577 414 C 609 406 609 406 625 402 Z"/></clipPath>
    <clipPath id="z26464c6"><path d="M 637 706 C 649 607 666 489 680 448 C 684 433 660 413 625 402 C 610 396 569 400 577 414 C 591 442 597 452 598 466 C 598 545 598 624 592 712 C 592 727 634 721 637 706 Z"/></clipPath>
    <clipPath id="z26464c7"><path d="M 592 712 C 530 720 465 727 398 736 C 382 737 379 744 392 757 C 425 791 453 783 468 780 C 630 745 843 741 915 746 C 948 747 954 725 931 708 C 893 679 859 667 832 673 C 783 682 719 695 637 706 C 607 710 607 710 592 712 Z"/></clipPath>
</defs>
<g id="bg-layer">
    <path class="bg" d="M 323 403 C 352 394 418 378 433 365 C 444 354 439 337 398 331 C 371 326 349 338 325 347 C 292 359 292 359 275 365 C 200 391 104 411 83 417 C 58 422 55 431 74 441 C 133 470 198 439 258 422 C 301 409 301 409 323 403 Z"/>
    <path class="bg" d="M 320 493 C 320 464 321 434 323 403 C 324 366 324 366 325 347 C 327 267 329 200 348 150 C 355 130 355 117 340 106 C 328 97 310 86 288 71 C 265 55 224 57 242 91 C 260 125 275 166 275 221 C 275 221 276 317 275 365 C 271 468 271 468 269 519 C 265 612 261 716 239 807 C 231 835 237 878 253 916 C 271 961 292 930 303 910 C 311 892 313 872 314 850 C 315 807 315 628 319 523 C 320 503 320 503 320 493 Z"/>
    <path class="bg" d="M 258 422 C 228 510 166 615 63 761 C 44 787 54 801 77 778 C 152 703 222 615 270 519 C 305 432 287 333 258 421 C 258 422 258 422 258 422 Z"/>
    <path class="bg" d="M 319 523 C 371 560 392 599 419 599 C 443 599 434 561 430 549 C 419 516 333 493 320 493 C 310 491 311 517 319 523 Z"/>
    <path class="bg" d="M 625 402 C 749 370 807 354 816 348 C 841 328 794 313 778 310 C 755 305 732 309 710 319 C 679 331 646 343 611 353 C 572 363 530 371 485 378 C 458 381 454 391 475 404 C 501 420 535 424 577 414 C 609 406 609 406 625 402 Z"/>
    <path class="bg" d="M 637 706 C 649 607 666 489 680 448 C 684 433 660 413 625 402 C 610 396 569 400 577 414 C 591 442 597 452 598 466 C 598 545 598 624 592 712 C 592 727 634 721 637 706 Z"/>
    <path class="bg" d="M 592 712 C 530 720 465 727 398 736 C 382 737 379 744 392 757 C 425 791 453 783 468 780 C 630 745 843 741 915 746 C 948 747 954 725 931 708 C 893 679 859 667 832 673 C 783 682 719 695 637 706 C 607 710 607 710 592 712 Z"/>
</g>
<g id="anim-layer">
    <path style="--d:1s; stroke:#FF4444;" pathLength="3333" clip-path="url(#z26464c1)" d="M 68 430 L 434 349"/>
    <path style="--d:2s; stroke:#FF4444;" pathLength="3333" clip-path="url(#z26464c2)" d="M 243 74 L 309 143 L 277 934"/>
    <path style="--d:3s; stroke:#FF4444;" pathLength="3333" clip-path="url(#z26464c3)" d="M 279 394 L 231 542 L 59 781"/>
    <path style="--d:4s; stroke:#FF4444;" pathLength="3333" clip-path="url(#z26464c4)" d="M 319 500 L 423 593"/>
    <path style="--d:5s; stroke:#000;" pathLength="3333" clip-path="url(#z26464c5)" d="M 466 389 L 535 395 L 819 334"/>
    <path style="--d:6s; stroke:#000;" pathLength="3333" clip-path="url(#z26464c6)" d="M 582 410 L 639 452 L 610 718"/>
    <path style="--d:7s; stroke:#000;" pathLength="3333" clip-path="url(#z26464c7)" d="M 390 743 L 451 756 L 836 708 L 941 731"/>
</g>
</svg>