<svg id="z26541" class="acjk" viewBox="0 0 1024 1024" xmlns="http://www.w3.org/2000/svg">

<style>
<![CDATA[
@keyframes zk { to { stroke-dashoffset:0; } }
svg.acjk path[clip-path] {
    --t:0.8s;
    animation:zk var(--t) linear forwards var(--d);
    stroke-dasharray:3337;
    stroke-dashoffset:3339;
    stroke-width:128;
    stroke-linecap:round;
    fill:none;
}
/* Low opacity for background improves visual overlap at intersections */
svg.acjk .bg { fill:#ccc; opacity: 0.5; } 
]]>
</style>
<defs>
    <clipPath id="z26541c1"><path d="M 395 183 C 447 144 485 110 509 103 C 521 96 524 87 517 76 C 508 66 495 57 478 49 C 463 41 451 38 443 41 C 435 41 432 46 436 55 C 438 71 422 115 376 184 C 373 189 390 187 395 183 Z"/></clipPath>
    <clipPath id="z26541c2"><path d="M 385 229 C 501 189 569 174 589 185 C 594 188 598 194 598 204 C 597 228 590 260 581 303 C 577 320 569 326 552 324 C 536 321 522 321 510 320 C 500 318 497 321 499 327 C 500 332 509 340 526 354 C 544 369 554 388 564 406 C 567 412 573 413 580 412 C 584 410 591 403 601 390 C 612 373 626 349 633 313 C 644 244 652 204 665 192 C 671 185 674 177 669 170 C 663 162 646 152 621 139 C 612 134 591 137 557 146 C 553 147 440 180 395 183 C 382 184 382 184 376 184 C 373 184 371 183 369 183 C 353 180 370 235 385 229 Z"/></clipPath>
    <clipPath id="z26541c3"><path d="M 419 268 C 443 298 462 313 475 315 C 483 315 489 310 492 300 C 493 292 491 281 485 271 C 476 256 454 247 423 244 C 417 243 414 246 414 253 C 413 257 414 262 419 268 Z"/></clipPath>
    <clipPath id="z26541c4"><path d="M 370 511 C 389 498 419 488 459 480 C 541 461 626 451 712 446 C 732 444 748 445 758 452 C 766 458 766 476 761 507 C 751 559 743 593 733 609 C 730 613 723 618 714 616 C 697 611 682 603 668 597 C 659 592 654 592 654 597 C 653 599 656 604 660 610 C 682 644 698 671 705 693 C 709 706 715 709 729 706 C 745 702 765 698 775 684 C 787 665 799 620 816 534 C 820 509 827 485 841 464 C 848 452 850 443 842 435 C 829 422 810 408 786 394 C 771 385 755 387 736 395 C 699 410 661 414 620 420 C 571 426 505 437 406 455 C 387 458 376 454 376 440 C 374 322 379 251 385 229 C 388 213 382 193 369 183 C 361 177 352 172 342 169 C 329 164 320 166 315 172 C 311 175 312 180 317 189 C 325 204 329 263 330 365 C 330 407 327 442 320 471 C 316 485 318 498 330 508 C 343 519 357 519 370 511 Z"/></clipPath>
    <clipPath id="z26541c5"><path d="M 516 597 C 554 588 598 582 647 578 C 659 576 664 574 665 568 C 665 559 660 551 648 545 C 629 535 612 533 597 537 C 568 543 542 549 519 554 C 484 561 484 561 466 565 C 358 587 272 598 210 604 C 201 604 195 607 194 613 C 191 621 195 628 206 636 C 232 654 269 657 317 644 C 353 633 387 623 419 617 C 450 611 450 611 465 608 C 499 601 499 601 516 597 Z"/></clipPath>
    <clipPath id="z26541c6"><path d="M 515 611 C 515 606 515 601 516 597 C 518 568 518 568 519 554 C 519 543 526 532 518 521 C 508 507 498 500 481 494 C 473 491 462 490 456 495 C 452 497 452 501 457 508 C 463 517 466 537 466 565 C 465 594 465 594 465 608 C 465 631 465 631 465 643 C 465 655 464 670 464 688 C 460 780 453 833 447 849 C 438 870 446 899 469 936 C 476 947 481 956 488 958 C 494 959 500 955 504 947 C 513 926 514 906 514 886 C 511 801 512 703 514 649 C 515 624 515 624 515 611 Z"/></clipPath>
    <clipPath id="z26541c7"><path d="M 419 617 C 361 697 284 770 188 833 C 176 840 163 847 151 856 C 138 864 137 869 149 871 C 174 873 224 859 291 818 C 335 790 368 756 396 729 C 418 706 441 677 465 643 C 489 602 447 579 419 617 Z"/></clipPath>
    <clipPath id="z26541c8"><path d="M 514 649 C 634 789 709 865 742 872 C 787 880 843 875 909 866 C 921 864 927 862 929 859 C 930 854 927 850 917 846 C 790 795 723 768 716 764 C 653 727 586 676 515 611 C 506 602 506 639 514 649 Z"/></clipPath>
</defs>
<g id="bg-layer">
    <path class="bg" d="M 395 183 C 447 144 485 110 509 103 C 521 96 524 87 517 76 C 508 66 495 57 478 49 C 463 41 451 38 443 41 C 435 41 432 46 436 55 C 438 71 422 115 376 184 C 373 189 390 187 395 183 Z"/>
    <path class="bg" d="M 385 229 C 501 189 569 174 589 185 C 594 188 598 194 598 204 C 597 228 590 260 581 303 C 577 320 569 326 552 324 C 536 321 522 321 510 320 C 500 318 497 321 499 327 C 500 332 509 340 526 354 C 544 369 554 388 564 406 C 567 412 573 413 580 412 C 584 410 591 403 601 390 C 612 373 626 349 633 313 C 644 244 652 204 665 192 C 671 185 674 177 669 170 C 663 162 646 152 621 139 C 612 134 591 137 557 146 C 553 147 440 180 395 183 C 382 184 382 184 376 184 C 373 184 371 183 369 183 C 353 180 370 235 385 229 Z"/>
    <path class="bg" d="M 419 268 C 443 298 462 313 475 315 C 483 315 489 310 492 300 C 493 292 491 281 485 271 C 476 256 454 247 423 244 C 417 243 414 246 414 253 C 413 257 414 262 419 268 Z"/>
    <path class="bg" d="M 370 511 C 389 498 419 488 459 480 C 541 461 626 451 712 446 C 732 444 748 445 758 452 C 766 458 766 476 761 507 C 751 559 743 593 733 609 C 730 613 723 618 714 616 C 697 611 682 603 668 597 C 659 592 654 592 654 597 C 653 599 656 604 660 610 C 682 644 698 671 705 693 C 709 706 715 709 729 706 C 745 702 765 698 775 684 C 787 665 799 620 816 534 C 820 509 827 485 841 464 C 848 452 850 443 842 435 C 829 422 810 408 786 394 C 771 385 755 387 736 395 C 699 410 661 414 620 420 C 571 426 505 437 406 455 C 387 458 376 454 376 440 C 374 322 379 251 385 229 C 388 213 382 193 369 183 C 361 177 352 172 342 169 C 329 164 320 166 315 172 C 311 175 312 180 317 189 C 325 204 329 263 330 365 C 330 407 327 442 320 471 C 316 485 318 498 330 508 C 343 519 357 519 370 511 Z"/>
    <path class="bg" d="M 516 597 C 554 588 598 582 647 578 C 659 576 664 574 665 568 C 665 559 660 551 648 545 C 629 535 612 533 597 537 C 568 543 542 549 519 554 C 484 561 484 561 466 565 C 358 587 272 598 210 604 C 201 604 195 607 194 613 C 191 621 195 628 206 636 C 232 654 269 657 317 644 C 353 633 387 623 419 617 C 450 611 450 611 465 608 C 499 601 499 601 516 597 Z"/>
    <path class="bg" d="M 515 611 C 515 606 515 601 516 597 C 518 568 518 568 519 554 C 519 543 526 532 518 521 C 508 507 498 500 481 494 C 473 491 462 490 456 495 C 452 497 452 501 457 508 C 463 517 466 537 466 565 C 465 594 465 594 465 608 C 465 631 465 631 465 643 C 465 655 464 670 464 688 C 460 780 453 833 447 849 C 438 870 446 899 469 936 C 476 947 481 956 488 958 C 494 959 500 955 504 947 C 513 926 514 906 514 886 C 511 801 512 703 514 649 C 515 624 515 624 515 611 Z"/>
    <path class="bg" d="M 419 617 C 361 697 284 770 188 833 C 176 840 163 847 151 856 C 138 864 137 869 149 871 C 174 873 224 859 291 818 C 335 790 368 756 396 729 C 418 706 441 677 465 643 C 489 602 447 579 419 617 Z"/>
    <path class="bg" d="M 514 649 C 634 789 709 865 742 872 C 787 880 843 875 909 866 C 921 864 927 862 929 859 C 930 854 927 850 917 846 C 790 795 723 768 716 764 C 653 727 586 676 515 611 C 506 602 506 639 514 649 Z"/>
</g>
<g id="anim-layer">
    <path style="--d:1s; stroke:#FF4444;" pathLength="3333" clip-path="url(#z26541c1)" d="M 443 47 L 473 90 L 377 178"/>
    <path style="--d:2s; stroke:#FF4444;" pathLength="3333" clip-path="url(#z26541c2)" d="M 376 189 L 398 204 L 558 163 L 620 171 L 634 192 L 591 349 L 567 368 L 505 325"/>
    <path style="--d:3s; stroke:#FF4444;" pathLength="3333" clip-path="url(#z26541c3)" d="M 422 252 L 487 306"/>
    <path style="--d:4s; stroke:#FF4444;" pathLength="3333" clip-path="url(#z26541c4)" d="M 322 175 L 355 237 L 359 482 L 750 418 L 797 442 L 757 639 L 712 660 L 661 601"/>
    <path style="--d:5s; stroke:#000;" pathLength="3333" clip-path="url(#z26541c5)" d="M 196 616 L 277 624 L 604 559 L 659 567"/>
    <path style="--d:6s; stroke:#000;" pathLength="3333" clip-path="url(#z26541c6)" d="M 460 497 L 494 545 L 488 952"/>
    <path style="--d:7s; stroke:#000;" pathLength="3333" clip-path="url(#z26541c7)" d="M 461 616 L 284 793 L 151 864"/>
    <path style="--d:8s; stroke:#000;" pathLength="3333" clip-path="url(#z26541c8)" d="M 517 623 L 722 812 L 923 855"/>
</g>
</svg>