<svg id="z26578" class="acjk" viewBox="0 0 1024 1024" xmlns="http://www.w3.org/2000/svg">

<style>
<![CDATA[
@keyframes zk { to { stroke-dashoffset:0; } }
svg.acjk path[clip-path] {
    --t:0.8s;
    animation:zk var(--t) linear forwards var(--d);
    stroke-dasharray:3337;
    stroke-dashoffset:3339;
    stroke-width:128;
    stroke-linecap:round;
    fill:none;
}
/* Low opacity for background improves visual overlap at intersections */
svg.acjk .bg { fill:#ccc; opacity: 0.5; } 
]]>
</style>
<defs>
    <clipPath id="z26578c1"><path d="M 286 134 Q 314 152 344 175 Q 359 185 372 182 Q 382 181 385 168 Q 388 153 376 128 Q 366 104 275 91 Q 262 90 256 93 Q 252 97 254 109 Q 258 119 286 134 Z"/></clipPath>
    <clipPath id="z26578c2"><path d="M 213 251 Q 261 287 286 292 Q 299 292 304 280 Q 307 270 302 256 Q 293 237 277 230 Q 213 209 196 221 Q 192 222 195 233 Q 198 242 213 251 Z"/></clipPath>
    <clipPath id="z26578c3"><path d="M 190 442 Q 178 446 181 462 Q 187 480 215 489 Q 245 502 259 501 Q 269 498 274 475 Q 305 424 383 316 Q 389 309 385 302 Q 381 299 374 304 Q 239 427 217 436 Q 214 436 190 442 Z"/></clipPath>
    <clipPath id="z26578c4"><path d="M 548 289 Q 647 241 780 192 Q 790 191 795 177 Q 794 167 770 161 Q 727 152 662 192 Q 638 202 616 216 Q 580 232 547 248 C 520 259 520 259 506 265 Q 500 265 422 296 Q 397 306 420 317 Q 454 332 491 315 Q 498 311 508 308 C 535 295 535 295 548 289 Z"/></clipPath>
    <clipPath id="z26578c5"><path d="M 839 375 Q 823 342 810 285 Q 809 270 801 266 Q 794 262 791 280 Q 778 350 766 362 Q 745 386 653 390 Q 604 389 582 382 Q 551 364 548 289 C 547 262 547 262 547 248 Q 551 172 566 136 Q 576 108 560 93 Q 514 59 499 63 Q 486 67 493 84 Q 511 118 508 168 Q 507 223 506 265 C 507 294 507 294 508 308 Q 509 381 542 407 Q 581 440 731 435 Q 798 432 824 418 Q 852 403 839 375 Z"/></clipPath>
    <clipPath id="z26578c6"><path d="M 547 591 Q 719 567 867 580 Q 889 581 895 574 Q 902 561 890 550 Q 823 489 764 512 Q 724 519 529 550 C 496 554 496 554 480 556 Q 371 568 316 577 Q 252 587 158 590 Q 145 590 143 601 Q 143 613 161 626 Q 177 638 207 649 Q 217 653 235 645 Q 250 639 317 627 Q 368 614 429 605 C 508 596 508 596 547 591 Z"/></clipPath>
    <clipPath id="z26578c7"><path d="M 529 550 Q 530 522 534 507 Q 537 495 530 489 Q 508 470 489 460 Q 477 456 468 463 Q 462 466 469 476 Q 475 485 480 556 C 479 605 479 605 478 630 Q 477 646 477 666 Q 470 808 458 837 Q 449 874 481 924 Q 491 942 500 946 Q 510 947 516 935 Q 529 904 525 874 Q 524 741 526 628 Q 526 616 526 607 C 528 569 528 569 529 550 Z"/></clipPath>
    <clipPath id="z26578c8"><path d="M 429 605 Q 366 719 147 840 Q 128 852 145 855 Q 179 862 275 815 Q 330 784 398 723 Q 438 684 465 648 Q 471 638 478 630 C 511 597 450 563 429 605 Z"/></clipPath>
    <clipPath id="z26578c9"><path d="M 526 607 Q 716 827 762 840 Q 825 849 920 835 Q 939 834 940 828 Q 943 821 928 816 Q 879 795 820 775 Q 699 727 549 593 Q 548 592 547 591 C 533 577 514 592 526 607 Z"/></clipPath>
</defs>
<g id="bg-layer">
    <path class="bg" d="M 286 134 Q 314 152 344 175 Q 359 185 372 182 Q 382 181 385 168 Q 388 153 376 128 Q 366 104 275 91 Q 262 90 256 93 Q 252 97 254 109 Q 258 119 286 134 Z"/>
    <path class="bg" d="M 213 251 Q 261 287 286 292 Q 299 292 304 280 Q 307 270 302 256 Q 293 237 277 230 Q 213 209 196 221 Q 192 222 195 233 Q 198 242 213 251 Z"/>
    <path class="bg" d="M 190 442 Q 178 446 181 462 Q 187 480 215 489 Q 245 502 259 501 Q 269 498 274 475 Q 305 424 383 316 Q 389 309 385 302 Q 381 299 374 304 Q 239 427 217 436 Q 214 436 190 442 Z"/>
    <path class="bg" d="M 548 289 Q 647 241 780 192 Q 790 191 795 177 Q 794 167 770 161 Q 727 152 662 192 Q 638 202 616 216 Q 580 232 547 248 C 520 259 520 259 506 265 Q 500 265 422 296 Q 397 306 420 317 Q 454 332 491 315 Q 498 311 508 308 C 535 295 535 295 548 289 Z"/>
    <path class="bg" d="M 839 375 Q 823 342 810 285 Q 809 270 801 266 Q 794 262 791 280 Q 778 350 766 362 Q 745 386 653 390 Q 604 389 582 382 Q 551 364 548 289 C 547 262 547 262 547 248 Q 551 172 566 136 Q 576 108 560 93 Q 514 59 499 63 Q 486 67 493 84 Q 511 118 508 168 Q 507 223 506 265 C 507 294 507 294 508 308 Q 509 381 542 407 Q 581 440 731 435 Q 798 432 824 418 Q 852 403 839 375 Z"/>
    <path class="bg" d="M 547 591 Q 719 567 867 580 Q 889 581 895 574 Q 902 561 890 550 Q 823 489 764 512 Q 724 519 529 550 C 496 554 496 554 480 556 Q 371 568 316 577 Q 252 587 158 590 Q 145 590 143 601 Q 143 613 161 626 Q 177 638 207 649 Q 217 653 235 645 Q 250 639 317 627 Q 368 614 429 605 C 508 596 508 596 547 591 Z"/>
    <path class="bg" d="M 529 550 Q 530 522 534 507 Q 537 495 530 489 Q 508 470 489 460 Q 477 456 468 463 Q 462 466 469 476 Q 475 485 480 556 C 479 605 479 605 478 630 Q 477 646 477 666 Q 470 808 458 837 Q 449 874 481 924 Q 491 942 500 946 Q 510 947 516 935 Q 529 904 525 874 Q 524 741 526 628 Q 526 616 526 607 C 528 569 528 569 529 550 Z"/>
    <path class="bg" d="M 429 605 Q 366 719 147 840 Q 128 852 145 855 Q 179 862 275 815 Q 330 784 398 723 Q 438 684 465 648 Q 471 638 478 630 C 511 597 450 563 429 605 Z"/>
    <path class="bg" d="M 526 607 Q 716 827 762 840 Q 825 849 920 835 Q 939 834 940 828 Q 943 821 928 816 Q 879 795 820 775 Q 699 727 549 593 Q 548 592 547 591 C 533 577 514 592 526 607 Z"/>
</g>
<g id="anim-layer">
    <path style="--d:1s; stroke:#FF4444;" pathLength="3333" clip-path="url(#z26578c1)" d="M 259 96 L 355 145 L 375 178"/>
    <path style="--d:2s; stroke:#FF4444;" pathLength="3333" clip-path="url(#z26578c2)" d="M 201 228 L 301 276"/>
    <path style="--d:3s; stroke:#FF4444;" pathLength="3333" clip-path="url(#z26578c3)" d="M 185 456 L 249 462 L 380 308"/>
    <path style="--d:4s; stroke:#000;" pathLength="3333" clip-path="url(#z26578c4)" d="M 414 305 L 787 177"/>
    <path style="--d:5s; stroke:#000;" pathLength="3333" clip-path="url(#z26578c5)" d="M 499 66 L 536 111 L 529 315 L 559 393 L 647 412 L 780 397 L 805 379 L 801 271"/>
    <path style="--d:6s; stroke:#000;" pathLength="3333" clip-path="url(#z26578c6)" d="M 148 603 L 212 619 L 784 541 L 892 556"/>
    <path style="--d:7s; stroke:#000;" pathLength="3333" clip-path="url(#z26578c7)" d="M 472 464 L 505 511 L 500 940"/>
    <path style="--d:8s; stroke:#000;" pathLength="3333" clip-path="url(#z26578c8)" d="M 472 607 L 301 771 L 142 848"/>
    <path style="--d:9s; stroke:#000;" pathLength="3333" clip-path="url(#z26578c9)" d="M 534 600 L 761 793 L 934 824"/>
</g>
</svg>