<svg id="z26689" class="acjk" viewBox="0 0 1024 1024" xmlns="http://www.w3.org/2000/svg">

<style>
<![CDATA[
@keyframes zk { to { stroke-dashoffset:0; } }
svg.acjk path[clip-path] {
    --t:0.8s;
    animation:zk var(--t) linear forwards var(--d);
    stroke-dasharray:3337;
    stroke-dashoffset:3339;
    stroke-width:128;
    stroke-linecap:round;
    fill:none;
}
/* Low opacity for background improves visual overlap at intersections */
svg.acjk .bg { fill:#ccc; opacity: 0.5; } 
]]>
</style>
<defs>
    <clipPath id="z26689c1"><path d="M 292 395 C 304 391 317 387 333 383 C 355 377 369 371 373 367 C 377 362 379 356 376 351 C 371 344 359 338 339 335 C 323 332 308 334 294 340 C 265 352 265 352 250 358 C 195 380 141 389 94 399 C 71 403 68 412 86 422 C 125 442 158 435 229 414 C 271 401 271 401 292 395 Z"/></clipPath>
    <clipPath id="z26689c2"><path d="M 290 449 C 290 431 291 413 292 395 C 293 358 293 358 294 340 C 296 264 299 201 316 154 C 319 143 326 134 323 126 C 320 119 297 105 262 82 C 246 71 232 70 219 80 C 215 82 214 90 220 100 C 238 133 250 173 251 225 C 251 269 252 313 250 358 C 246 446 246 446 244 490 C 238 618 231 703 222 745 C 208 801 207 841 219 867 C 220 870 222 875 225 882 C 229 892 234 899 239 903 C 243 906 246 905 252 901 C 269 888 280 864 280 822 C 280 795 281 680 289 477 C 290 458 290 458 290 449 Z"/></clipPath>
    <clipPath id="z26689c3"><path d="M 229 414 C 201 492 137 592 42 720 C 37 725 41 729 48 730 C 52 730 56 727 62 723 C 136 658 197 581 245 490 C 284 425 257 344 229 414 Z"/></clipPath>
    <clipPath id="z26689c4"><path d="M 289 477 C 319 513 339 532 351 534 C 359 535 366 530 369 520 C 371 512 368 501 363 490 C 353 470 329 457 291 449 C 290 449 290 449 290 449 C 281 447 283 470 289 477 Z"/></clipPath>
    <clipPath id="z26689c5"><path d="M 494 153 C 502 173 489 215 453 279 C 435 309 414 341 390 373 C 384 379 380 383 379 387 C 376 393 380 396 388 395 C 416 390 468 343 535 243 C 543 230 551 215 568 201 C 574 195 574 186 572 179 C 569 172 560 161 543 148 C 527 136 513 131 503 132 C 492 132 488 139 494 153 Z"/></clipPath>
    <clipPath id="z26689c6"><path d="M 446 543 C 465 521 485 493 507 462 C 520 442 531 427 541 418 C 546 412 548 405 546 398 C 544 391 535 380 520 368 C 506 356 493 351 483 352 C 472 352 468 359 474 372 C 483 394 464 445 414 522 C 390 557 363 593 330 631 C 324 636 321 640 320 644 C 317 650 320 652 328 651 C 344 648 375 622 422 570 C 438 552 438 552 446 543 Z"/></clipPath>
    <clipPath id="z26689c7"><path d="M 422 570 C 442 590 443 661 429 763 C 420 820 418 860 444 886 C 453 895 463 891 470 876 C 479 853 482 828 482 801 C 481 700 480 638 485 615 C 488 598 488 588 483 582 C 472 570 457 553 446 543 C 437 534 415 560 422 570 Z"/></clipPath>
    <clipPath id="z26689c8"><path d="M 611 293 C 584 298 580 310 602 320 C 637 335 674 332 713 320 C 742 310 774 303 806 294 C 820 289 828 286 830 284 C 836 277 837 270 833 265 C 826 256 812 250 790 248 C 773 246 735 256 676 278 C 656 284 634 288 611 293 Z"/></clipPath>
    <clipPath id="z26689c9"><path d="M 739 481 C 781 473 836 468 904 467 C 934 466 952 464 957 457 C 961 449 956 440 945 433 C 907 408 874 405 845 414 C 787 431 684 450 538 479 C 525 481 523 487 534 497 C 552 514 574 519 600 512 C 628 503 659 494 693 489 C 724 484 724 484 739 481 Z"/></clipPath>
    <clipPath id="z26689c10"><path d="M 662 833 C 649 829 634 828 617 824 C 608 822 604 822 605 828 C 605 834 609 840 617 846 C 657 878 690 909 719 937 C 726 944 737 941 746 930 C 774 889 784 831 780 757 C 774 663 771 593 777 548 C 779 528 782 516 777 509 C 771 500 758 491 739 481 C 726 473 685 476 693 489 C 716 529 717 628 716 802 C 715 816 711 827 705 833 C 697 840 682 838 662 833 Z"/></clipPath>
</defs>
<g id="bg-layer">
    <path class="bg" d="M 292 395 C 304 391 317 387 333 383 C 355 377 369 371 373 367 C 377 362 379 356 376 351 C 371 344 359 338 339 335 C 323 332 308 334 294 340 C 265 352 265 352 250 358 C 195 380 141 389 94 399 C 71 403 68 412 86 422 C 125 442 158 435 229 414 C 271 401 271 401 292 395 Z"/>
    <path class="bg" d="M 290 449 C 290 431 291 413 292 395 C 293 358 293 358 294 340 C 296 264 299 201 316 154 C 319 143 326 134 323 126 C 320 119 297 105 262 82 C 246 71 232 70 219 80 C 215 82 214 90 220 100 C 238 133 250 173 251 225 C 251 269 252 313 250 358 C 246 446 246 446 244 490 C 238 618 231 703 222 745 C 208 801 207 841 219 867 C 220 870 222 875 225 882 C 229 892 234 899 239 903 C 243 906 246 905 252 901 C 269 888 280 864 280 822 C 280 795 281 680 289 477 C 290 458 290 458 290 449 Z"/>
    <path class="bg" d="M 229 414 C 201 492 137 592 42 720 C 37 725 41 729 48 730 C 52 730 56 727 62 723 C 136 658 197 581 245 490 C 284 425 257 344 229 414 Z"/>
    <path class="bg" d="M 289 477 C 319 513 339 532 351 534 C 359 535 366 530 369 520 C 371 512 368 501 363 490 C 353 470 329 457 291 449 C 290 449 290 449 290 449 C 281 447 283 470 289 477 Z"/>
    <path class="bg" d="M 494 153 C 502 173 489 215 453 279 C 435 309 414 341 390 373 C 384 379 380 383 379 387 C 376 393 380 396 388 395 C 416 390 468 343 535 243 C 543 230 551 215 568 201 C 574 195 574 186 572 179 C 569 172 560 161 543 148 C 527 136 513 131 503 132 C 492 132 488 139 494 153 Z"/>
    <path class="bg" d="M 446 543 C 465 521 485 493 507 462 C 520 442 531 427 541 418 C 546 412 548 405 546 398 C 544 391 535 380 520 368 C 506 356 493 351 483 352 C 472 352 468 359 474 372 C 483 394 464 445 414 522 C 390 557 363 593 330 631 C 324 636 321 640 320 644 C 317 650 320 652 328 651 C 344 648 375 622 422 570 C 438 552 438 552 446 543 Z"/>
    <path class="bg" d="M 422 570 C 442 590 443 661 429 763 C 420 820 418 860 444 886 C 453 895 463 891 470 876 C 479 853 482 828 482 801 C 481 700 480 638 485 615 C 488 598 488 588 483 582 C 472 570 457 553 446 543 C 437 534 415 560 422 570 Z"/>
    <path class="bg" d="M 611 293 C 584 298 580 310 602 320 C 637 335 674 332 713 320 C 742 310 774 303 806 294 C 820 289 828 286 830 284 C 836 277 837 270 833 265 C 826 256 812 250 790 248 C 773 246 735 256 676 278 C 656 284 634 288 611 293 Z"/>
    <path class="bg" d="M 739 481 C 781 473 836 468 904 467 C 934 466 952 464 957 457 C 961 449 956 440 945 433 C 907 408 874 405 845 414 C 787 431 684 450 538 479 C 525 481 523 487 534 497 C 552 514 574 519 600 512 C 628 503 659 494 693 489 C 724 484 724 484 739 481 Z"/>
    <path class="bg" d="M 662 833 C 649 829 634 828 617 824 C 608 822 604 822 605 828 C 605 834 609 840 617 846 C 657 878 690 909 719 937 C 726 944 737 941 746 930 C 774 889 784 831 780 757 C 774 663 771 593 777 548 C 779 528 782 516 777 509 C 771 500 758 491 739 481 C 726 473 685 476 693 489 C 716 529 717 628 716 802 C 715 816 711 827 705 833 C 697 840 682 838 662 833 Z"/>
</g>
<g id="anim-layer">
    <path style="--d:1s; stroke:#FF4444;" pathLength="3333" clip-path="url(#z26689c1)" d="M 80 409 L 372 355"/>
    <path style="--d:2s; stroke:#FF4444;" pathLength="3333" clip-path="url(#z26689c2)" d="M 224 85 L 283 145 L 240 898"/>
    <path style="--d:3s; stroke:#FF4444;" pathLength="3333" clip-path="url(#z26689c3)" d="M 242 416 L 182 555 L 48 721"/>
    <path style="--d:4s; stroke:#FF4444;" pathLength="3333" clip-path="url(#z26689c4)" d="M 295 458 L 359 527"/>
    <path style="--d:5s; stroke:#000;" pathLength="3333" clip-path="url(#z26689c5)" d="M 500 136 L 533 189 L 386 388"/>
    <path style="--d:6s; stroke:#000;" pathLength="3333" clip-path="url(#z26689c6)" d="M 480 361 L 503 420 L 326 644"/>
    <path style="--d:7s; stroke:#000;" pathLength="3333" clip-path="url(#z26689c7)" d="M 447 553 L 462 609 L 452 886"/>
    <path style="--d:8s; stroke:#000;" pathLength="3333" clip-path="url(#z26689c8)" d="M 600 309 L 831 271"/>
    <path style="--d:9s; stroke:#000;" pathLength="3333" clip-path="url(#z26689c9)" d="M 535 488 L 865 439 L 952 449"/>
    <path style="--d:10s; stroke:#000;" pathLength="3333" clip-path="url(#z26689c10)" d="M 700 491 L 744 533 L 743 836 L 713 888 L 611 831"/>
</g>
</svg>