<svg id="z26851" class="acjk" viewBox="0 0 1024 1024" xmlns="http://www.w3.org/2000/svg">

<style>
<![CDATA[
@keyframes zk { to { stroke-dashoffset:0; } }
svg.acjk path[clip-path] {
    --t:0.8s;
    animation:zk var(--t) linear forwards var(--d);
    stroke-dasharray:3337;
    stroke-dashoffset:3339;
    stroke-width:128;
    stroke-linecap:round;
    fill:none;
}
/* Low opacity for background improves visual overlap at intersections */
svg.acjk .bg { fill:#ccc; opacity: 0.5; } 
]]>
</style>
<defs>
    <clipPath id="z26851c1"><path d="M 286 365 Q 316 356 348 350 Q 385 341 391 335 Q 400 328 395 319 Q 388 309 360 302 Q 327 296 287 315 C 258 324 258 324 243 328 Q 173 346 100 356 Q 66 363 91 378 Q 128 399 206 381 Q 221 377 240 375 C 271 368 271 368 286 365 Z"/></clipPath>
    <clipPath id="z26851c2"><path d="M 282 474 Q 283 422 286 365 C 287 332 287 332 287 315 Q 287 218 309 146 Q 324 121 294 101 Q 279 89 254 75 Q 232 57 211 73 Q 207 77 212 93 Q 243 139 243 187 Q 243 253 243 328 C 239 445 239 445 237 504 Q 228 675 227 682 Q 220 725 208 767 Q 195 809 221 866 Q 227 884 235 887 Q 241 893 248 885 Q 255 881 266 861 Q 276 836 275 806 Q 275 769 281 507 C 282 485 282 485 282 474 Z"/></clipPath>
    <clipPath id="z26851c3"><path d="M 240 375 Q 194 519 38 735 Q 32 745 44 746 Q 65 746 169 615 Q 205 567 237 504 C 259 467 256 335 240 375 Z"/></clipPath>
    <clipPath id="z26851c4"><path d="M 281 507 Q 294 516 332 561 Q 342 573 355 573 Q 364 574 369 563 Q 373 551 369 527 Q 362 500 290 476 Q 286 475 282 474 C 271 472 272 500 281 507 Z"/></clipPath>
    <clipPath id="z26851c5"><path d="M 758 455 Q 764 409 771 379 C 780 348 780 348 785 333 Q 807 288 817 278 Q 832 259 817 241 Q 799 229 746 208 Q 727 201 707 211 Q 662 229 622 241 C 588 250 588 250 571 255 Q 514 265 456 273 Q 440 274 442 284 Q 445 291 462 297 Q 486 307 519 295 Q 544 289 571 285 C 604 278 604 278 621 274 Q 708 253 719 262 Q 735 277 727 344 C 724 369 724 369 722 382 Q 718 415 711 447 C 708 463 755 471 758 455 Z"/></clipPath>
    <clipPath id="z26851c6"><path d="M 771 379 Q 811 375 858 375 Q 913 375 920 366 Q 924 356 909 344 Q 855 307 792 331 Q 788 331 785 333 C 746 340 746 340 727 344 Q 643 356 619 364 C 587 369 587 369 571 372 Q 483 385 386 401 Q 368 402 382 417 Q 395 429 410 433 Q 428 437 442 433 Q 502 414 571 403 C 602 398 602 398 618 395 Q 661 386 722 382 C 755 380 755 380 771 379 Z"/></clipPath>
    <clipPath id="z26851c7"><path d="M 618 505 Q 682 495 768 486 Q 778 485 780 476 Q 780 469 758 455 C 745 445 727 444 711 447 Q 708 446 618 469 C 587 476 587 476 571 479 Q 499 492 438 501 Q 419 502 431 520 Q 438 529 448 532 Q 458 535 471 532 Q 510 522 570 513 C 602 508 602 508 618 505 Z"/></clipPath>
    <clipPath id="z26851c8"><path d="M 619 580 Q 618 541 618 505 C 618 481 618 481 618 469 Q 617 432 618 395 C 619 374 619 374 619 364 Q 618 318 621 274 C 622 252 622 252 622 241 Q 626 165 639 123 Q 655 92 600 71 Q 566 52 547 59 Q 529 66 546 89 Q 567 116 569 150 Q 570 163 571 255 C 571 275 571 275 571 285 Q 571 322 571 372 C 571 393 571 393 571 403 Q 570 437 571 479 C 570 502 570 502 570 513 Q 569 634 569 801 Q 568 828 554 837 Q 548 843 493 830 Q 460 817 463 827 Q 464 834 483 850 Q 538 901 552 928 Q 568 961 582 963 Q 597 964 612 929 Q 631 883 630 810 Q 623 716 620 623 C 619 594 619 594 619 580 Z"/></clipPath>
    <clipPath id="z26851c9"><path d="M 381 619 Q 438 664 463 659 Q 476 658 477 639 Q 476 626 462 609 Q 434 587 379 593 Q 369 594 372 605 Q 372 612 381 619 Z"/></clipPath>
    <clipPath id="z26851c10"><path d="M 329 793 Q 319 797 321 807 Q 322 817 333 822 Q 357 828 389 833 Q 399 832 406 822 Q 421 794 512 700 Q 525 687 533 673 Q 540 663 538 655 Q 531 654 431 728 Q 344 788 329 793 Z"/></clipPath>
    <clipPath id="z26851c11"><path d="M 694 661 Q 725 642 745 628 Q 790 591 815 580 Q 833 570 823 555 Q 811 540 788 529 Q 767 517 756 521 Q 744 522 749 534 Q 750 555 697 629 Q 690 638 682 649 C 679 654 689 664 694 661 Z"/></clipPath>
    <clipPath id="z26851c12"><path d="M 682 649 Q 643 609 619 580 C 610 569 613 611 620 623 Q 699 740 803 843 Q 825 865 845 864 Q 902 854 951 844 Q 973 840 972 835 Q 973 829 948 819 Q 813 768 765 725 Q 746 709 722 686 Q 707 673 694 661 C 686 653 686 653 682 649 Z"/></clipPath>
</defs>
<g id="bg-layer">
    <path class="bg" d="M 286 365 Q 316 356 348 350 Q 385 341 391 335 Q 400 328 395 319 Q 388 309 360 302 Q 327 296 287 315 C 258 324 258 324 243 328 Q 173 346 100 356 Q 66 363 91 378 Q 128 399 206 381 Q 221 377 240 375 C 271 368 271 368 286 365 Z"/>
    <path class="bg" d="M 282 474 Q 283 422 286 365 C 287 332 287 332 287 315 Q 287 218 309 146 Q 324 121 294 101 Q 279 89 254 75 Q 232 57 211 73 Q 207 77 212 93 Q 243 139 243 187 Q 243 253 243 328 C 239 445 239 445 237 504 Q 228 675 227 682 Q 220 725 208 767 Q 195 809 221 866 Q 227 884 235 887 Q 241 893 248 885 Q 255 881 266 861 Q 276 836 275 806 Q 275 769 281 507 C 282 485 282 485 282 474 Z"/>
    <path class="bg" d="M 240 375 Q 194 519 38 735 Q 32 745 44 746 Q 65 746 169 615 Q 205 567 237 504 C 259 467 256 335 240 375 Z"/>
    <path class="bg" d="M 281 507 Q 294 516 332 561 Q 342 573 355 573 Q 364 574 369 563 Q 373 551 369 527 Q 362 500 290 476 Q 286 475 282 474 C 271 472 272 500 281 507 Z"/>
    <path class="bg" d="M 758 455 Q 764 409 771 379 C 780 348 780 348 785 333 Q 807 288 817 278 Q 832 259 817 241 Q 799 229 746 208 Q 727 201 707 211 Q 662 229 622 241 C 588 250 588 250 571 255 Q 514 265 456 273 Q 440 274 442 284 Q 445 291 462 297 Q 486 307 519 295 Q 544 289 571 285 C 604 278 604 278 621 274 Q 708 253 719 262 Q 735 277 727 344 C 724 369 724 369 722 382 Q 718 415 711 447 C 708 463 755 471 758 455 Z"/>
    <path class="bg" d="M 771 379 Q 811 375 858 375 Q 913 375 920 366 Q 924 356 909 344 Q 855 307 792 331 Q 788 331 785 333 C 746 340 746 340 727 344 Q 643 356 619 364 C 587 369 587 369 571 372 Q 483 385 386 401 Q 368 402 382 417 Q 395 429 410 433 Q 428 437 442 433 Q 502 414 571 403 C 602 398 602 398 618 395 Q 661 386 722 382 C 755 380 755 380 771 379 Z"/>
    <path class="bg" d="M 618 505 Q 682 495 768 486 Q 778 485 780 476 Q 780 469 758 455 C 745 445 727 444 711 447 Q 708 446 618 469 C 587 476 587 476 571 479 Q 499 492 438 501 Q 419 502 431 520 Q 438 529 448 532 Q 458 535 471 532 Q 510 522 570 513 C 602 508 602 508 618 505 Z"/>
    <path class="bg" d="M 619 580 Q 618 541 618 505 C 618 481 618 481 618 469 Q 617 432 618 395 C 619 374 619 374 619 364 Q 618 318 621 274 C 622 252 622 252 622 241 Q 626 165 639 123 Q 655 92 600 71 Q 566 52 547 59 Q 529 66 546 89 Q 567 116 569 150 Q 570 163 571 255 C 571 275 571 275 571 285 Q 571 322 571 372 C 571 393 571 393 571 403 Q 570 437 571 479 C 570 502 570 502 570 513 Q 569 634 569 801 Q 568 828 554 837 Q 548 843 493 830 Q 460 817 463 827 Q 464 834 483 850 Q 538 901 552 928 Q 568 961 582 963 Q 597 964 612 929 Q 631 883 630 810 Q 623 716 620 623 C 619 594 619 594 619 580 Z"/>
    <path class="bg" d="M 381 619 Q 438 664 463 659 Q 476 658 477 639 Q 476 626 462 609 Q 434 587 379 593 Q 369 594 372 605 Q 372 612 381 619 Z"/>
    <path class="bg" d="M 329 793 Q 319 797 321 807 Q 322 817 333 822 Q 357 828 389 833 Q 399 832 406 822 Q 421 794 512 700 Q 525 687 533 673 Q 540 663 538 655 Q 531 654 431 728 Q 344 788 329 793 Z"/>
    <path class="bg" d="M 694 661 Q 725 642 745 628 Q 790 591 815 580 Q 833 570 823 555 Q 811 540 788 529 Q 767 517 756 521 Q 744 522 749 534 Q 750 555 697 629 Q 690 638 682 649 C 679 654 689 664 694 661 Z"/>
    <path class="bg" d="M 682 649 Q 643 609 619 580 C 610 569 613 611 620 623 Q 699 740 803 843 Q 825 865 845 864 Q 902 854 951 844 Q 973 840 972 835 Q 973 829 948 819 Q 813 768 765 725 Q 746 709 722 686 Q 707 673 694 661 C 686 653 686 653 682 649 Z"/>
</g>
<g id="anim-layer">
    <path style="--d:1s; stroke:#FF4444;" pathLength="3333" clip-path="url(#z26851c1)" d="M 89 365 L 392 323"/>
    <path style="--d:2s; stroke:#FF4444;" pathLength="3333" clip-path="url(#z26851c2)" d="M 215 77 L 275 139 L 237 884"/>
    <path style="--d:3s; stroke:#FF4444;" pathLength="3333" clip-path="url(#z26851c3)" d="M 237 391 L 198 529 L 45 739"/>
    <path style="--d:4s; stroke:#FF4444;" pathLength="3333" clip-path="url(#z26851c4)" d="M 287 480 L 360 567"/>
    <path style="--d:5s; stroke:#000;" pathLength="3333" clip-path="url(#z26851c5)" d="M 451 283 L 749 242 L 775 274 L 730 449"/>
    <path style="--d:6s; stroke:#000;" pathLength="3333" clip-path="url(#z26851c6)" d="M 385 408 L 822 349 L 915 354"/>
    <path style="--d:7s; stroke:#000;" pathLength="3333" clip-path="url(#z26851c7)" d="M 432 509 L 776 476"/>
    <path style="--d:8s; stroke:#000;" pathLength="3333" clip-path="url(#z26851c8)" d="M 542 67 L 604 117 L 598 829 L 567 911 L 471 828"/>
    <path style="--d:9s; stroke:#000;" pathLength="3333" clip-path="url(#z26851c9)" d="M 378 600 L 473 646"/>
    <path style="--d:10s; stroke:#000;" pathLength="3333" clip-path="url(#z26851c10)" d="M 324 806 L 382 800 L 533 664"/>
    <path style="--d:11s; stroke:#000;" pathLength="3333" clip-path="url(#z26851c11)" d="M 756 527 L 778 573 L 691 651"/>
    <path style="--d:12s; stroke:#000;" pathLength="3333" clip-path="url(#z26851c12)" d="M 621 594 L 833 816 L 962 835"/>
</g>
</svg>