<svg id="z26967" class="acjk" viewBox="0 0 1024 1024" xmlns="http://www.w3.org/2000/svg">

<style>
<![CDATA[
@keyframes zk { to { stroke-dashoffset:0; } }
svg.acjk path[clip-path] {
    --t:0.8s;
    animation:zk var(--t) linear forwards var(--d);
    stroke-dasharray:3337;
    stroke-dashoffset:3339;
    stroke-width:128;
    stroke-linecap:round;
    fill:none;
}
/* Low opacity for background improves visual overlap at intersections */
svg.acjk .bg { fill:#ccc; opacity: 0.5; } 
]]>
</style>
<defs>
    <clipPath id="z26967c1"><path d="M 292 369 Q 359 351 364 347 Q 373 340 368 331 Q 361 321 332 314 Q 310 311 293 317 C 265 326 265 326 251 331 Q 178 352 111 364 Q 77 371 102 386 Q 150 407 200 391 Q 216 385 240 382 C 275 373 275 373 292 369 Z"/></clipPath>
    <clipPath id="z26967c2"><path d="M 290 453 Q 290 413 292 369 C 293 334 293 334 293 317 Q 296 232 312 175 Q 321 162 318 148 Q 311 139 259 107 Q 237 91 218 105 Q 214 109 219 124 Q 250 170 250 217 Q 250 271 251 331 C 248 441 248 441 247 496 Q 238 697 235 719 Q 229 750 220 783 Q 210 819 233 879 Q 240 895 247 899 Q 253 905 260 898 Q 267 894 277 874 Q 287 850 286 821 Q 285 781 290 480 C 290 462 290 462 290 453 Z"/></clipPath>
    <clipPath id="z26967c3"><path d="M 240 382 Q 198 523 53 731 Q 49 741 60 742 Q 81 742 177 616 Q 214 567 247 496 C 286 398 261 279 240 382 Z"/></clipPath>
    <clipPath id="z26967c4"><path d="M 290 480 Q 335 534 352 534 Q 362 535 369 520 Q 370 510 363 493 Q 354 478 335 471 Q 304 455 290 453 C 281 451 285 473 290 480 Z"/></clipPath>
    <clipPath id="z26967c5"><path d="M 786 407 Q 793 365 802 339 C 814 310 814 310 820 295 Q 829 277 841 266 Q 854 248 841 234 Q 775 189 724 214 Q 709 218 695 225 C 660 235 660 235 642 240 Q 599 249 556 255 Q 543 256 544 265 Q 545 272 562 277 Q 584 286 614 275 Q 627 271 643 269 C 677 262 677 262 694 259 Q 745 244 756 252 Q 765 261 761 309 C 758 332 758 332 756 344 Q 750 375 744 405 C 742 419 783 421 786 407 Z"/></clipPath>
    <clipPath id="z26967c6"><path d="M 802 339 Q 836 335 880 334 Q 922 334 928 325 Q 931 316 918 307 Q 872 277 822 294 Q 821 294 820 295 C 781 304 781 304 761 309 Q 713 313 692 323 C 659 329 659 329 643 332 Q 591 339 536 351 Q 521 352 533 365 Q 543 375 558 379 Q 574 382 586 378 Q 611 369 643 363 C 675 356 675 356 691 353 Q 710 347 756 344 C 787 341 787 341 802 339 Z"/></clipPath>
    <clipPath id="z26967c7"><path d="M 689 454 Q 735 447 801 440 Q 811 439 812 431 Q 812 424 786 407 C 774 400 758 405 744 405 Q 743 404 740 405 Q 713 412 689 419 C 658 426 658 426 643 429 Q 600 436 561 442 Q 542 445 554 460 Q 561 469 570 472 Q 580 473 592 471 Q 613 465 642 462 C 673 457 673 457 689 454 Z"/></clipPath>
    <clipPath id="z26967c8"><path d="M 689 548 Q 716 541 779 533 Q 788 534 794 524 Q 795 515 777 508 Q 752 492 692 511 Q 689 511 689 512 C 657 520 657 520 641 524 Q 626 525 612 528 Q 590 531 567 534 Q 545 537 562 550 Q 583 568 619 560 Q 629 557 641 557 C 673 551 673 551 689 548 Z"/></clipPath>
    <clipPath id="z26967c9"><path d="M 687 644 Q 736 637 814 636 Q 848 639 855 630 Q 859 620 846 611 Q 803 578 735 600 Q 714 603 688 610 C 656 615 656 615 640 618 Q 588 625 533 635 Q 517 636 529 650 Q 539 660 553 663 Q 569 667 581 663 Q 609 656 640 650 C 671 646 671 646 687 644 Z"/></clipPath>
    <clipPath id="z26967c10"><path d="M 640 650 Q 640 746 654 769 Q 666 782 674 764 Q 683 737 687 644 C 688 621 688 621 688 610 Q 688 582 689 548 C 689 524 689 524 689 512 Q 689 484 689 454 C 689 431 689 431 689 419 Q 689 383 691 353 C 692 333 692 333 692 323 Q 692 287 694 259 C 695 236 695 236 695 225 Q 695 179 712 150 Q 718 137 701 123 Q 680 107 643 97 Q 627 93 616 105 Q 607 112 618 122 Q 640 141 642 168 Q 642 198 642 240 C 643 259 643 259 643 269 Q 643 297 643 332 C 643 353 643 353 643 363 Q 643 393 643 429 C 642 451 642 451 642 462 Q 642 495 641 524 C 641 546 641 546 641 557 Q 641 587 640 618 C 640 639 640 639 640 650 Z"/></clipPath>
    <clipPath id="z26967c11"><path d="M 461 556 Q 470 580 437 666 C 428 688 428 688 423 699 Q 395 754 341 825 Q 332 838 336 840 Q 340 843 348 836 Q 423 784 454 718 C 465 696 465 696 471 685 Q 484 654 497 620 Q 513 568 526 552 Q 533 540 527 533 Q 500 509 464 519 Q 443 526 437 521 Q 433 520 438 509 Q 495 392 505 384 Q 521 368 509 355 Q 499 346 466 336 Q 441 326 427 341 Q 382 377 347 390 Q 334 396 343 401 Q 361 413 419 387 Q 431 383 437 389 Q 441 399 430 433 Q 414 491 398 511 Q 388 524 393 537 Q 397 546 416 543 Q 435 540 451 547 Q 461 551 461 556 Z"/></clipPath>
    <clipPath id="z26967c12"><path d="M 437 666 Q 398 644 349 656 Q 339 660 344 670 Q 351 677 362 678 Q 390 679 423 699 C 444 712 444 712 454 718 Q 470 728 488 742 Q 603 838 727 901 Q 772 911 934 865 Q 946 859 948 851 Q 951 842 930 843 Q 875 834 812 831 Q 689 819 488 694 Q 479 688 471 685 C 448 672 448 672 437 666 Z"/></clipPath>
</defs>
<g id="bg-layer">
    <path class="bg" d="M 292 369 Q 359 351 364 347 Q 373 340 368 331 Q 361 321 332 314 Q 310 311 293 317 C 265 326 265 326 251 331 Q 178 352 111 364 Q 77 371 102 386 Q 150 407 200 391 Q 216 385 240 382 C 275 373 275 373 292 369 Z"/>
    <path class="bg" d="M 290 453 Q 290 413 292 369 C 293 334 293 334 293 317 Q 296 232 312 175 Q 321 162 318 148 Q 311 139 259 107 Q 237 91 218 105 Q 214 109 219 124 Q 250 170 250 217 Q 250 271 251 331 C 248 441 248 441 247 496 Q 238 697 235 719 Q 229 750 220 783 Q 210 819 233 879 Q 240 895 247 899 Q 253 905 260 898 Q 267 894 277 874 Q 287 850 286 821 Q 285 781 290 480 C 290 462 290 462 290 453 Z"/>
    <path class="bg" d="M 240 382 Q 198 523 53 731 Q 49 741 60 742 Q 81 742 177 616 Q 214 567 247 496 C 286 398 261 279 240 382 Z"/>
    <path class="bg" d="M 290 480 Q 335 534 352 534 Q 362 535 369 520 Q 370 510 363 493 Q 354 478 335 471 Q 304 455 290 453 C 281 451 285 473 290 480 Z"/>
    <path class="bg" d="M 786 407 Q 793 365 802 339 C 814 310 814 310 820 295 Q 829 277 841 266 Q 854 248 841 234 Q 775 189 724 214 Q 709 218 695 225 C 660 235 660 235 642 240 Q 599 249 556 255 Q 543 256 544 265 Q 545 272 562 277 Q 584 286 614 275 Q 627 271 643 269 C 677 262 677 262 694 259 Q 745 244 756 252 Q 765 261 761 309 C 758 332 758 332 756 344 Q 750 375 744 405 C 742 419 783 421 786 407 Z"/>
    <path class="bg" d="M 802 339 Q 836 335 880 334 Q 922 334 928 325 Q 931 316 918 307 Q 872 277 822 294 Q 821 294 820 295 C 781 304 781 304 761 309 Q 713 313 692 323 C 659 329 659 329 643 332 Q 591 339 536 351 Q 521 352 533 365 Q 543 375 558 379 Q 574 382 586 378 Q 611 369 643 363 C 675 356 675 356 691 353 Q 710 347 756 344 C 787 341 787 341 802 339 Z"/>
    <path class="bg" d="M 689 454 Q 735 447 801 440 Q 811 439 812 431 Q 812 424 786 407 C 774 400 758 405 744 405 Q 743 404 740 405 Q 713 412 689 419 C 658 426 658 426 643 429 Q 600 436 561 442 Q 542 445 554 460 Q 561 469 570 472 Q 580 473 592 471 Q 613 465 642 462 C 673 457 673 457 689 454 Z"/>
    <path class="bg" d="M 689 548 Q 716 541 779 533 Q 788 534 794 524 Q 795 515 777 508 Q 752 492 692 511 Q 689 511 689 512 C 657 520 657 520 641 524 Q 626 525 612 528 Q 590 531 567 534 Q 545 537 562 550 Q 583 568 619 560 Q 629 557 641 557 C 673 551 673 551 689 548 Z"/>
    <path class="bg" d="M 687 644 Q 736 637 814 636 Q 848 639 855 630 Q 859 620 846 611 Q 803 578 735 600 Q 714 603 688 610 C 656 615 656 615 640 618 Q 588 625 533 635 Q 517 636 529 650 Q 539 660 553 663 Q 569 667 581 663 Q 609 656 640 650 C 671 646 671 646 687 644 Z"/>
    <path class="bg" d="M 640 650 Q 640 746 654 769 Q 666 782 674 764 Q 683 737 687 644 C 688 621 688 621 688 610 Q 688 582 689 548 C 689 524 689 524 689 512 Q 689 484 689 454 C 689 431 689 431 689 419 Q 689 383 691 353 C 692 333 692 333 692 323 Q 692 287 694 259 C 695 236 695 236 695 225 Q 695 179 712 150 Q 718 137 701 123 Q 680 107 643 97 Q 627 93 616 105 Q 607 112 618 122 Q 640 141 642 168 Q 642 198 642 240 C 643 259 643 259 643 269 Q 643 297 643 332 C 643 353 643 353 643 363 Q 643 393 643 429 C 642 451 642 451 642 462 Q 642 495 641 524 C 641 546 641 546 641 557 Q 641 587 640 618 C 640 639 640 639 640 650 Z"/>
    <path class="bg" d="M 461 556 Q 470 580 437 666 C 428 688 428 688 423 699 Q 395 754 341 825 Q 332 838 336 840 Q 340 843 348 836 Q 423 784 454 718 C 465 696 465 696 471 685 Q 484 654 497 620 Q 513 568 526 552 Q 533 540 527 533 Q 500 509 464 519 Q 443 526 437 521 Q 433 520 438 509 Q 495 392 505 384 Q 521 368 509 355 Q 499 346 466 336 Q 441 326 427 341 Q 382 377 347 390 Q 334 396 343 401 Q 361 413 419 387 Q 431 383 437 389 Q 441 399 430 433 Q 414 491 398 511 Q 388 524 393 537 Q 397 546 416 543 Q 435 540 451 547 Q 461 551 461 556 Z"/>
    <path class="bg" d="M 437 666 Q 398 644 349 656 Q 339 660 344 670 Q 351 677 362 678 Q 390 679 423 699 C 444 712 444 712 454 718 Q 470 728 488 742 Q 603 838 727 901 Q 772 911 934 865 Q 946 859 948 851 Q 951 842 930 843 Q 875 834 812 831 Q 689 819 488 694 Q 479 688 471 685 C 448 672 448 672 437 666 Z"/>
</g>
<g id="anim-layer">
    <path style="--d:1s; stroke:#FF4444;" pathLength="3333" clip-path="url(#z26967c1)" d="M 101 374 L 366 336"/>
    <path style="--d:2s; stroke:#FF4444;" pathLength="3333" clip-path="url(#z26967c2)" d="M 223 110 L 281 164 L 248 895"/>
    <path style="--d:3s; stroke:#FF4444;" pathLength="3333" clip-path="url(#z26967c3)" d="M 245 387 L 196 545 L 59 734"/>
    <path style="--d:4s; stroke:#FF4444;" pathLength="3333" clip-path="url(#z26967c4)" d="M 296 460 L 363 524"/>
    <path style="--d:5s; stroke:#000;" pathLength="3333" clip-path="url(#z26967c5)" d="M 551 264 L 738 229 L 790 240 L 803 263 L 757 404"/>
    <path style="--d:6s; stroke:#000;" pathLength="3333" clip-path="url(#z26967c6)" d="M 537 358 L 919 316"/>
    <path style="--d:7s; stroke:#000;" pathLength="3333" clip-path="url(#z26967c7)" d="M 554 450 L 802 428"/>
    <path style="--d:8s; stroke:#000;" pathLength="3333" clip-path="url(#z26967c8)" d="M 563 541 L 787 520"/>
    <path style="--d:9s; stroke:#000;" pathLength="3333" clip-path="url(#z26967c9)" d="M 534 642 L 778 614 L 850 628"/>
    <path style="--d:10s; stroke:#000;" pathLength="3333" clip-path="url(#z26967c10)" d="M 618 113 L 677 150 L 663 770"/>
    <path style="--d:11s; stroke:#000;" pathLength="3333" clip-path="url(#z26967c11)" d="M 349 397 L 441 360 L 473 376 L 413 522 L 496 551 L 439 708 L 343 833"/>
    <path style="--d:12s; stroke:#000;" pathLength="3333" clip-path="url(#z26967c12)" d="M 350 666 L 416 675 L 740 860 L 940 853"/>
</g>
</svg>