<svg id="z26976" class="acjk" viewBox="0 0 1024 1024" xmlns="http://www.w3.org/2000/svg">

<style>
<![CDATA[
@keyframes zk { to { stroke-dashoffset:0; } }
svg.acjk path[clip-path] {
    --t:0.8s;
    animation:zk var(--t) linear forwards var(--d);
    stroke-dasharray:3337;
    stroke-dashoffset:3339;
    stroke-width:128;
    stroke-linecap:round;
    fill:none;
}
/* Low opacity for background improves visual overlap at intersections */
svg.acjk .bg { fill:#ccc; opacity: 0.5; } 
]]>
</style>
<defs>
    <clipPath id="z26976c1"><path d="M 304 401 Q 382 386 391 377 Q 401 368 395 360 Q 388 348 358 341 Q 330 337 305 346 C 277 356 277 356 263 361 Q 161 386 101 394 Q 64 401 91 418 Q 137 442 191 426 Q 219 419 251 414 C 286 405 286 405 304 401 Z"/></clipPath>
    <clipPath id="z26976c2"><path d="M 301 535 Q 302 474 304 401 C 305 364 305 364 305 346 Q 305 217 325 146 Q 340 121 310 101 Q 295 89 270 75 Q 248 59 227 73 Q 223 77 229 93 Q 260 144 262 220 Q 262 289 263 361 C 260 462 260 462 258 512 Q 255 678 246 723 Q 240 756 230 791 Q 220 828 244 890 Q 251 908 259 911 Q 265 918 272 909 Q 299 893 299 830 Q 298 796 301 567 C 301 546 301 546 301 535 Z"/></clipPath>
    <clipPath id="z26976c3"><path d="M 251 414 Q 223 493 182 565 Q 139 637 38 768 Q 34 778 44 778 Q 50 779 58 771 Q 185 657 259 512 C 292 428 279 328 251 413 C 251 414 251 414 251 414 Z"/></clipPath>
    <clipPath id="z26976c4"><path d="M 301 567 Q 340 600 353 600 Q 363 600 367 585 Q 368 575 359 560 Q 344 542 301 535 C 291 533 292 561 301 567 Z"/></clipPath>
    <clipPath id="z26976c5"><path d="M 621 338 Q 777 304 783 299 Q 792 292 787 283 Q 780 273 752 265 Q 725 259 629 290 C 594 299 594 299 576 303 Q 524 313 461 320 Q 427 326 451 342 Q 485 363 557 350 Q 563 349 572 348 C 605 341 605 341 621 338 Z"/></clipPath>
    <clipPath id="z26976c6"><path d="M 604 440 Q 613 388 621 338 C 626 306 626 306 629 290 Q 644 182 666 121 Q 670 111 652 94 Q 618 72 594 65 Q 578 61 570 68 Q 561 75 568 91 Q 587 124 586 145 Q 583 221 576 303 C 573 333 573 333 572 348 Q 566 396 560 449 C 557 464 601 455 604 440 Z"/></clipPath>
    <clipPath id="z26976c7"><path d="M 440 476 Q 413 458 389 460 Q 376 464 382 475 Q 424 559 389 713 Q 365 777 396 812 Q 403 825 412 819 Q 440 798 444 700 Q 447 540 450 506 C 450 495 448 482 440 476 Z"/></clipPath>
    <clipPath id="z26976c8"><path d="M 685 460 Q 728 453 795 447 Q 807 446 811 452 Q 820 458 821 500 Q 831 675 810 775 Q 804 809 774 806 Q 746 802 721 798 Q 706 791 706 798 Q 705 805 715 819 Q 779 883 795 913 Q 805 929 816 926 Q 831 923 843 897 Q 879 831 887 631 Q 887 492 901 461 Q 917 440 904 436 Q 888 420 852 406 Q 830 393 775 411 Q 690 421 604 440 C 575 446 575 446 560 449 Q 544 450 529 455 Q 484 467 440 476 C 430 478 440 510 450 506 Q 489 491 656 463 C 675 461 675 461 685 460 Z"/></clipPath>
    <clipPath id="z26976c9"><path d="M 519 523 Q 538 571 561 576 Q 571 579 578 565 Q 581 555 577 539 Q 568 515 526 503 Q 519 500 517 509 Q 514 515 519 523 Z"/></clipPath>
    <clipPath id="z26976c10"><path d="M 639 580 Q 663 556 684 525 Q 691 515 703 504 Q 715 497 709 488 Q 705 475 685 460 C 677 454 656 453 656 463 Q 660 484 627 560 Q 620 573 618 583 Q 617 584 617 585 C 614 592 634 585 639 580 Z"/></clipPath>
    <clipPath id="z26976c11"><path d="M 624 615 Q 642 611 664 607 Q 728 598 734 591 Q 735 582 718 575 Q 685 565 639 580 C 624 583 624 583 617 585 Q 572 594 510 603 Q 491 607 506 618 Q 527 634 560 628 Q 564 627 573 626 C 607 619 607 619 624 615 Z"/></clipPath>
    <clipPath id="z26976c12"><path d="M 625 709 Q 673 699 758 699 Q 771 698 775 692 Q 779 683 767 674 Q 722 644 670 663 Q 649 667 626 674 C 595 681 595 681 579 684 Q 536 690 488 700 Q 473 701 485 714 Q 503 729 549 722 Q 562 718 580 715 C 610 711 610 711 625 709 Z"/></clipPath>
    <clipPath id="z26976c13"><path d="M 587 864 Q 591 883 596 890 Q 600 894 606 893 Q 612 890 615 879 Q 619 866 625 724 Q 624 717 625 709 C 626 686 626 686 626 674 Q 626 665 632 635 Q 633 622 624 615 C 612 603 570 609 573 626 Q 574 629 579 684 C 580 705 580 705 580 715 Q 586 857 587 864 Z"/></clipPath>
</defs>
<g id="bg-layer">
    <path class="bg" d="M 304 401 Q 382 386 391 377 Q 401 368 395 360 Q 388 348 358 341 Q 330 337 305 346 C 277 356 277 356 263 361 Q 161 386 101 394 Q 64 401 91 418 Q 137 442 191 426 Q 219 419 251 414 C 286 405 286 405 304 401 Z"/>
    <path class="bg" d="M 301 535 Q 302 474 304 401 C 305 364 305 364 305 346 Q 305 217 325 146 Q 340 121 310 101 Q 295 89 270 75 Q 248 59 227 73 Q 223 77 229 93 Q 260 144 262 220 Q 262 289 263 361 C 260 462 260 462 258 512 Q 255 678 246 723 Q 240 756 230 791 Q 220 828 244 890 Q 251 908 259 911 Q 265 918 272 909 Q 299 893 299 830 Q 298 796 301 567 C 301 546 301 546 301 535 Z"/>
    <path class="bg" d="M 251 414 Q 223 493 182 565 Q 139 637 38 768 Q 34 778 44 778 Q 50 779 58 771 Q 185 657 259 512 C 292 428 279 328 251 413 C 251 414 251 414 251 414 Z"/>
    <path class="bg" d="M 301 567 Q 340 600 353 600 Q 363 600 367 585 Q 368 575 359 560 Q 344 542 301 535 C 291 533 292 561 301 567 Z"/>
    <path class="bg" d="M 621 338 Q 777 304 783 299 Q 792 292 787 283 Q 780 273 752 265 Q 725 259 629 290 C 594 299 594 299 576 303 Q 524 313 461 320 Q 427 326 451 342 Q 485 363 557 350 Q 563 349 572 348 C 605 341 605 341 621 338 Z"/>
    <path class="bg" d="M 604 440 Q 613 388 621 338 C 626 306 626 306 629 290 Q 644 182 666 121 Q 670 111 652 94 Q 618 72 594 65 Q 578 61 570 68 Q 561 75 568 91 Q 587 124 586 145 Q 583 221 576 303 C 573 333 573 333 572 348 Q 566 396 560 449 C 557 464 601 455 604 440 Z"/>
    <path class="bg" d="M 440 476 Q 413 458 389 460 Q 376 464 382 475 Q 424 559 389 713 Q 365 777 396 812 Q 403 825 412 819 Q 440 798 444 700 Q 447 540 450 506 C 450 495 448 482 440 476 Z"/>
    <path class="bg" d="M 685 460 Q 728 453 795 447 Q 807 446 811 452 Q 820 458 821 500 Q 831 675 810 775 Q 804 809 774 806 Q 746 802 721 798 Q 706 791 706 798 Q 705 805 715 819 Q 779 883 795 913 Q 805 929 816 926 Q 831 923 843 897 Q 879 831 887 631 Q 887 492 901 461 Q 917 440 904 436 Q 888 420 852 406 Q 830 393 775 411 Q 690 421 604 440 C 575 446 575 446 560 449 Q 544 450 529 455 Q 484 467 440 476 C 430 478 440 510 450 506 Q 489 491 656 463 C 675 461 675 461 685 460 Z"/>
    <path class="bg" d="M 519 523 Q 538 571 561 576 Q 571 579 578 565 Q 581 555 577 539 Q 568 515 526 503 Q 519 500 517 509 Q 514 515 519 523 Z"/>
    <path class="bg" d="M 639 580 Q 663 556 684 525 Q 691 515 703 504 Q 715 497 709 488 Q 705 475 685 460 C 677 454 656 453 656 463 Q 660 484 627 560 Q 620 573 618 583 Q 617 584 617 585 C 614 592 634 585 639 580 Z"/>
    <path class="bg" d="M 624 615 Q 642 611 664 607 Q 728 598 734 591 Q 735 582 718 575 Q 685 565 639 580 C 624 583 624 583 617 585 Q 572 594 510 603 Q 491 607 506 618 Q 527 634 560 628 Q 564 627 573 626 C 607 619 607 619 624 615 Z"/>
    <path class="bg" d="M 625 709 Q 673 699 758 699 Q 771 698 775 692 Q 779 683 767 674 Q 722 644 670 663 Q 649 667 626 674 C 595 681 595 681 579 684 Q 536 690 488 700 Q 473 701 485 714 Q 503 729 549 722 Q 562 718 580 715 C 610 711 610 711 625 709 Z"/>
    <path class="bg" d="M 587 864 Q 591 883 596 890 Q 600 894 606 893 Q 612 890 615 879 Q 619 866 625 724 Q 624 717 625 709 C 626 686 626 686 626 674 Q 626 665 632 635 Q 633 622 624 615 C 612 603 570 609 573 626 Q 574 629 579 684 C 580 705 580 705 580 715 Q 586 857 587 864 Z"/>
</g>
<g id="anim-layer">
    <path style="--d:1s; stroke:#FF4444;" pathLength="3333" clip-path="url(#z26976c1)" d="M 86 403 L 160 408 L 392 364"/>
    <path style="--d:2s; stroke:#FF4444;" pathLength="3333" clip-path="url(#z26976c2)" d="M 232 76 L 290 137 L 269 908"/>
    <path style="--d:3s; stroke:#FF4444;" pathLength="3333" clip-path="url(#z26976c3)" d="M 255 422 L 201 572 L 46 772"/>
    <path style="--d:4s; stroke:#FF4444;" pathLength="3333" clip-path="url(#z26976c4)" d="M 308 543 L 358 594"/>
    <path style="--d:5s; stroke:#000;" pathLength="3333" clip-path="url(#z26976c5)" d="M 449 329 L 784 286"/>
    <path style="--d:6s; stroke:#000;" pathLength="3333" clip-path="url(#z26976c6)" d="M 572 76 L 626 125 L 568 445"/>
    <path style="--d:7s; stroke:#000;" pathLength="3333" clip-path="url(#z26976c7)" d="M 387 467 L 424 523 L 409 812"/>
    <path style="--d:8s; stroke:#000;" pathLength="3333" clip-path="url(#z26976c8)" d="M 447 481 L 806 424 L 855 445 L 835 809 L 797 873 L 713 802"/>
    <path style="--d:9s; stroke:#000;" pathLength="3333" clip-path="url(#z26976c9)" d="M 524 512 L 563 573"/>
    <path style="--d:10s; stroke:#000;" pathLength="3333" clip-path="url(#z26976c10)" d="M 663 469 L 677 505 L 625 577"/>
    <path style="--d:11s; stroke:#000;" pathLength="3333" clip-path="url(#z26976c11)" d="M 505 609 L 726 588"/>
    <path style="--d:12s; stroke:#000;" pathLength="3333" clip-path="url(#z26976c12)" d="M 491 708 L 688 679 L 770 688"/>
    <path style="--d:13s; stroke:#000;" pathLength="3333" clip-path="url(#z26976c13)" d="M 579 630 L 605 652 L 601 887"/>
</g>
</svg>