<svg id="z27030" class="acjk" viewBox="0 0 1024 1024" xmlns="http://www.w3.org/2000/svg">

<style>
<![CDATA[
@keyframes zk { to { stroke-dashoffset:0; } }
svg.acjk path[clip-path] {
    --t:0.8s;
    animation:zk var(--t) linear forwards var(--d);
    stroke-dasharray:3337;
    stroke-dashoffset:3339;
    stroke-width:128;
    stroke-linecap:round;
    fill:none;
}
/* Low opacity for background improves visual overlap at intersections */
svg.acjk .bg { fill:#ccc; opacity: 0.5; } 
]]>
</style>
<defs>
    <clipPath id="z27030c1"><path d="M 387 207 C 412 202 436 196 462 191 C 488 185 503 179 507 176 C 511 171 513 166 511 162 C 506 155 495 150 479 146 C 463 142 435 151 392 163 C 359 172 359 172 343 176 C 320 181 280 189 220 196 C 199 198 195 206 211 216 C 236 231 265 232 297 224 C 311 220 327 218 344 215 C 373 210 373 210 387 207 Z"/></clipPath>
    <clipPath id="z27030c2"><path d="M 380 265 C 382 245 385 225 387 207 C 390 178 390 178 392 163 C 394 139 397 121 401 110 C 403 103 404 97 406 93 C 408 87 403 80 393 72 C 374 61 358 54 346 52 C 337 50 330 51 326 56 C 321 60 321 66 326 74 C 334 86 339 96 340 105 C 340 127 341 151 343 176 C 344 202 344 202 344 215 C 344 235 344 255 344 275 C 344 287 378 277 380 265 Z"/></clipPath>
    <clipPath id="z27030c3"><path d="M 344 275 C 302 286 265 290 234 297 C 219 300 218 305 230 314 C 248 327 264 330 280 326 C 341 308 402 295 463 287 C 469 286 475 284 478 277 C 480 271 472 266 460 260 C 443 251 418 254 380 265 C 356 272 356 272 344 275 Z"/></clipPath>
    <clipPath id="z27030c4"><path d="M 186 389 C 181 374 172 362 166 358 C 156 351 150 354 150 368 C 154 384 139 416 104 463 C 93 475 95 496 111 526 C 119 538 128 538 139 524 C 147 509 155 491 163 470 C 169 445 176 425 183 410 C 185 403 189 396 186 389 Z"/></clipPath>
    <clipPath id="z27030c5"><path d="M 183 410 C 197 418 218 417 247 406 C 263 399 311 384 393 365 C 417 359 433 354 441 357 C 452 360 457 366 456 371 C 450 395 416 426 436 446 C 437 447 437 447 437 447 C 439 449 445 447 453 440 C 477 417 501 400 523 390 C 541 381 549 374 548 370 C 547 365 528 351 491 329 C 478 321 440 329 376 343 C 360 346 296 358 186 389 C 179 391 176 407 183 410 Z"/></clipPath>
    <clipPath id="z27030c6"><path d="M 240 454 Q 215 458 234 470 Q 259 483 325 468 Q 406 449 416 444 Q 422 438 418 432 Q 414 425 393 420 Q 378 417 305 441 Q 275 448 240 454 Z"/></clipPath>
    <clipPath id="z27030c7"><path d="M 293 620 C 281 623 266 629 242 638 C 212 649 210 650 196 650 C 185 651 181 651 173 648 C 154 643 138 633 134 624 C 129 614 134 608 148 606 C 188 599 271 584 318 571 C 348 562 348 562 363 558 C 400 547 447 540 464 542 C 479 544 491 551 493 560 C 496 569 491 572 471 576 C 431 584 384 595 360 601 C 331 610 331 610 316 614 C 301 618 301 618 293 620 Z"/></clipPath>
    <clipPath id="z27030c8"><path d="M 330 941 C 321 932 306 905 300 888 C 295 874 295 854 299 840 C 304 826 311 776 314 683 C 315 637 315 637 316 614 C 317 585 317 585 318 571 C 318 565 318 573 317 553 C 317 521 314 502 308 492 C 305 486 305 484 310 481 C 320 475 328 478 351 495 C 364 504 365 506 367 512 C 368 517 368 520 366 528 C 364 541 363 547 363 558 C 361 587 361 587 360 601 C 360 610 359 625 359 644 C 359 659 359 659 359 667 C 359 673 358 733 358 797 C 359 906 359 908 356 917 C 351 937 347 943 338 945 C 335 946 334 945 330 941 Z"/></clipPath>
    <clipPath id="z27030c9"><path d="M 314 683 C 294 710 263 742 244 762 C 212 795 190 812 158 829 C 126 846 108 852 96 850 C 87 848 91 844 120 820 C 197 758 259 685 293 620 C 325 566 352 633 314 683 Z"/></clipPath>
    <clipPath id="z27030c10"><path d="M 359 644 C 384 647 419 655 432 663 C 441 667 446 670 451 676 C 458 683 459 685 462 695 C 469 715 468 726 459 731 C 450 737 443 733 414 709 C 401 698 375 679 359 667 C 353 662 351 642 359 644 Z"/></clipPath>
    <clipPath id="z27030c11"><path d="M 609 184 C 603 179 595 176 587 173 C 576 169 568 166 563 170 C 556 173 555 179 560 186 C 575 212 580 263 567 338 C 561 371 547 407 528 448 C 526 451 523 453 523 457 C 522 463 524 464 529 463 C 548 458 570 433 590 385 C 602 354 613 302 622 229 C 622 225 622 221 623 217 C 625 205 619 191 609 184 Z"/></clipPath>
    <clipPath id="z27030c12"><path d="M 905 402 C 913 398 916 392 911 383 C 903 370 892 362 882 356 C 875 351 864 351 849 358 C 828 366 804 370 777 369 C 760 368 750 361 744 349 C 736 334 737 308 743 270 C 746 245 756 220 781 197 C 790 187 792 178 782 170 C 767 157 752 148 736 142 C 729 139 721 141 710 147 C 682 160 648 172 609 184 C 598 188 612 221 623 217 C 637 212 655 204 679 194 C 689 189 697 186 701 188 C 705 189 708 195 708 203 C 698 305 699 366 713 386 C 715 390 720 394 727 399 C 747 411 777 418 817 418 C 855 418 884 411 905 402 Z"/></clipPath>
    <clipPath id="z27030c13"><path d="M 694 714 C 705 696 740 617 763 549 C 769 530 778 514 790 503 C 800 492 802 482 793 475 C 784 467 770 461 750 456 C 735 452 720 458 703 466 C 655 487 601 501 542 511 C 533 512 526 514 524 519 C 521 523 526 528 539 533 C 562 541 591 542 623 530 C 658 516 678 508 686 508 C 702 506 712 514 710 532 C 701 590 687 638 661 681 C 647 704 647 704 640 715 C 610 762 534 809 467 833 C 458 836 459 839 466 844 C 469 846 483 849 509 847 C 563 841 644 787 668 752 C 685 727 685 727 694 714 Z"/></clipPath>
    <clipPath id="z27030c14"><path d="M 668 752 C 696 789 730 825 766 864 C 776 875 790 883 808 885 C 862 889 911 889 955 887 C 977 885 988 882 987 876 C 986 872 932 852 827 809 C 783 790 738 758 694 714 C 672 692 672 692 661 681 C 638 658 617 631 595 604 C 574 579 553 565 533 564 C 522 563 515 563 514 566 C 511 569 515 575 525 583 C 549 601 587 645 640 715 C 659 740 659 740 668 752 Z"/></clipPath>
</defs>
<g id="bg-layer">
    <path class="bg" d="M 387 207 C 412 202 436 196 462 191 C 488 185 503 179 507 176 C 511 171 513 166 511 162 C 506 155 495 150 479 146 C 463 142 435 151 392 163 C 359 172 359 172 343 176 C 320 181 280 189 220 196 C 199 198 195 206 211 216 C 236 231 265 232 297 224 C 311 220 327 218 344 215 C 373 210 373 210 387 207 Z"/>
    <path class="bg" d="M 380 265 C 382 245 385 225 387 207 C 390 178 390 178 392 163 C 394 139 397 121 401 110 C 403 103 404 97 406 93 C 408 87 403 80 393 72 C 374 61 358 54 346 52 C 337 50 330 51 326 56 C 321 60 321 66 326 74 C 334 86 339 96 340 105 C 340 127 341 151 343 176 C 344 202 344 202 344 215 C 344 235 344 255 344 275 C 344 287 378 277 380 265 Z"/>
    <path class="bg" d="M 344 275 C 302 286 265 290 234 297 C 219 300 218 305 230 314 C 248 327 264 330 280 326 C 341 308 402 295 463 287 C 469 286 475 284 478 277 C 480 271 472 266 460 260 C 443 251 418 254 380 265 C 356 272 356 272 344 275 Z"/>
    <path class="bg" d="M 186 389 C 181 374 172 362 166 358 C 156 351 150 354 150 368 C 154 384 139 416 104 463 C 93 475 95 496 111 526 C 119 538 128 538 139 524 C 147 509 155 491 163 470 C 169 445 176 425 183 410 C 185 403 189 396 186 389 Z"/>
    <path class="bg" d="M 183 410 C 197 418 218 417 247 406 C 263 399 311 384 393 365 C 417 359 433 354 441 357 C 452 360 457 366 456 371 C 450 395 416 426 436 446 C 437 447 437 447 437 447 C 439 449 445 447 453 440 C 477 417 501 400 523 390 C 541 381 549 374 548 370 C 547 365 528 351 491 329 C 478 321 440 329 376 343 C 360 346 296 358 186 389 C 179 391 176 407 183 410 Z"/>
    <path class="bg" d="M 240 454 Q 215 458 234 470 Q 259 483 325 468 Q 406 449 416 444 Q 422 438 418 432 Q 414 425 393 420 Q 378 417 305 441 Q 275 448 240 454 Z"/>
    <path class="bg" d="M 293 620 C 281 623 266 629 242 638 C 212 649 210 650 196 650 C 185 651 181 651 173 648 C 154 643 138 633 134 624 C 129 614 134 608 148 606 C 188 599 271 584 318 571 C 348 562 348 562 363 558 C 400 547 447 540 464 542 C 479 544 491 551 493 560 C 496 569 491 572 471 576 C 431 584 384 595 360 601 C 331 610 331 610 316 614 C 301 618 301 618 293 620 Z"/>
    <path class="bg" d="M 330 941 C 321 932 306 905 300 888 C 295 874 295 854 299 840 C 304 826 311 776 314 683 C 315 637 315 637 316 614 C 317 585 317 585 318 571 C 318 565 318 573 317 553 C 317 521 314 502 308 492 C 305 486 305 484 310 481 C 320 475 328 478 351 495 C 364 504 365 506 367 512 C 368 517 368 520 366 528 C 364 541 363 547 363 558 C 361 587 361 587 360 601 C 360 610 359 625 359 644 C 359 659 359 659 359 667 C 359 673 358 733 358 797 C 359 906 359 908 356 917 C 351 937 347 943 338 945 C 335 946 334 945 330 941 Z"/>
    <path class="bg" d="M 314 683 C 294 710 263 742 244 762 C 212 795 190 812 158 829 C 126 846 108 852 96 850 C 87 848 91 844 120 820 C 197 758 259 685 293 620 C 325 566 352 633 314 683 Z"/>
    <path class="bg" d="M 359 644 C 384 647 419 655 432 663 C 441 667 446 670 451 676 C 458 683 459 685 462 695 C 469 715 468 726 459 731 C 450 737 443 733 414 709 C 401 698 375 679 359 667 C 353 662 351 642 359 644 Z"/>
    <path class="bg" d="M 609 184 C 603 179 595 176 587 173 C 576 169 568 166 563 170 C 556 173 555 179 560 186 C 575 212 580 263 567 338 C 561 371 547 407 528 448 C 526 451 523 453 523 457 C 522 463 524 464 529 463 C 548 458 570 433 590 385 C 602 354 613 302 622 229 C 622 225 622 221 623 217 C 625 205 619 191 609 184 Z"/>
    <path class="bg" d="M 905 402 C 913 398 916 392 911 383 C 903 370 892 362 882 356 C 875 351 864 351 849 358 C 828 366 804 370 777 369 C 760 368 750 361 744 349 C 736 334 737 308 743 270 C 746 245 756 220 781 197 C 790 187 792 178 782 170 C 767 157 752 148 736 142 C 729 139 721 141 710 147 C 682 160 648 172 609 184 C 598 188 612 221 623 217 C 637 212 655 204 679 194 C 689 189 697 186 701 188 C 705 189 708 195 708 203 C 698 305 699 366 713 386 C 715 390 720 394 727 399 C 747 411 777 418 817 418 C 855 418 884 411 905 402 Z"/>
    <path class="bg" d="M 694 714 C 705 696 740 617 763 549 C 769 530 778 514 790 503 C 800 492 802 482 793 475 C 784 467 770 461 750 456 C 735 452 720 458 703 466 C 655 487 601 501 542 511 C 533 512 526 514 524 519 C 521 523 526 528 539 533 C 562 541 591 542 623 530 C 658 516 678 508 686 508 C 702 506 712 514 710 532 C 701 590 687 638 661 681 C 647 704 647 704 640 715 C 610 762 534 809 467 833 C 458 836 459 839 466 844 C 469 846 483 849 509 847 C 563 841 644 787 668 752 C 685 727 685 727 694 714 Z"/>
    <path class="bg" d="M 668 752 C 696 789 730 825 766 864 C 776 875 790 883 808 885 C 862 889 911 889 955 887 C 977 885 988 882 987 876 C 986 872 932 852 827 809 C 783 790 738 758 694 714 C 672 692 672 692 661 681 C 638 658 617 631 595 604 C 574 579 553 565 533 564 C 522 563 515 563 514 566 C 511 569 515 575 525 583 C 549 601 587 645 640 715 C 659 740 659 740 668 752 Z"/>
</g>
<g id="anim-layer">
    <path style="--d:1s; stroke:#FF4444;" pathLength="3333" clip-path="url(#z27030c1)" d="M 211 204 L 506 163"/>
    <path style="--d:2s; stroke:#FF4444;" pathLength="3333" clip-path="url(#z27030c2)" d="M 330 63 L 373 94 L 357 270"/>
    <path style="--d:3s; stroke:#FF4444;" pathLength="3333" clip-path="url(#z27030c3)" d="M 228 303 L 472 277"/>
    <path style="--d:4s; stroke:#FF4444;" pathLength="3333" clip-path="url(#z27030c4)" d="M 159 366 L 123 530"/>
    <path style="--d:5s; stroke:#FF4444;" pathLength="3333" clip-path="url(#z27030c5)" d="M 189 406 L 449 342 L 500 379 L 443 439"/>
    <path style="--d:6s; stroke:#FF4444;" pathLength="3333" clip-path="url(#z27030c6)" d="M 232 460 L 414 439"/>
    <path style="--d:7s; stroke:#000;" pathLength="3333" clip-path="url(#z27030c7)" d="M 143 614 L 485 563"/>
    <path style="--d:8s; stroke:#000;" pathLength="3333" clip-path="url(#z27030c8)" d="M 313 488 L 340 528 L 338 932"/>
    <path style="--d:9s; stroke:#000;" pathLength="3333" clip-path="url(#z27030c9)" d="M 308 628 L 224 752 L 106 842"/>
    <path style="--d:10s; stroke:#000;" pathLength="3333" clip-path="url(#z27030c10)" d="M 365 650 L 429 688 L 450 726"/>
    <path style="--d:11s; stroke:#000;" pathLength="3333" clip-path="url(#z27030c11)" d="M 566 176 L 597 220 L 590 309 L 529 457"/>
    <path style="--d:12s; stroke:#000;" pathLength="3333" clip-path="url(#z27030c12)" d="M 616 188 L 713 165 L 746 186 L 721 278 L 737 378 L 793 393 L 906 379"/>
    <path style="--d:13s; stroke:#000;" pathLength="3333" clip-path="url(#z27030c13)" d="M 531 519 L 710 486 L 753 505 L 651 737 L 549 817 L 469 837"/>
    <path style="--d:14s; stroke:#000;" pathLength="3333" clip-path="url(#z27030c14)" d="M 522 569 L 800 841 L 977 878"/>
</g>
</svg>