<svg id="z27047" class="acjk" viewBox="0 0 1024 1024" xmlns="http://www.w3.org/2000/svg">

<style>
<![CDATA[
@keyframes zk { to { stroke-dashoffset:0; } }
svg.acjk path[clip-path] {
    --t:0.8s;
    animation:zk var(--t) linear forwards var(--d);
    stroke-dasharray:3337;
    stroke-dashoffset:3339;
    stroke-width:128;
    stroke-linecap:round;
    fill:none;
}
/* Low opacity for background improves visual overlap at intersections */
svg.acjk .bg { fill:#ccc; opacity: 0.5; } 
]]>
</style>
<defs>
    <clipPath id="z27047c1"><path d="M 309 349 C 339 341 382 339 408 321 C 422 310 411 292 374 285 C 360 282 323 290 310 294 C 281 303 281 303 266 307 C 202 325 149 335 109 342 C 84 346 79 356 99 366 C 151 392 200 373 252 362 C 290 353 290 353 309 349 Z"/></clipPath>
    <clipPath id="z27047c2"><path d="M 307 425 C 307 400 308 375 309 349 C 310 312 310 312 310 294 C 311 237 314 188 329 150 C 332 139 338 130 335 122 C 331 114 309 101 274 79 C 258 68 214 63 233 97 C 271 165 267 232 266 307 C 264 410 264 410 263 462 C 260 571 254 705 234 783 C 227 807 231 840 248 882 C 266 928 303 898 303 822 C 302 793 307 669 307 449 C 307 433 307 433 307 425 Z"/></clipPath>
    <clipPath id="z27047c3"><path d="M 252 362 C 220 450 166 547 62 694 C 33 734 71 712 76 709 C 156 634 215 558 263 462 C 298 376 287 276 252 362 Z"/></clipPath>
    <clipPath id="z27047c4"><path d="M 307 449 C 348 493 368 514 382 515 C 409 515 401 482 393 468 C 379 443 332 432 307 425 C 299 423 302 443 307 449 Z"/></clipPath>
    <clipPath id="z27047c5"><path d="M 490 217 C 513 224 550 223 565 222 C 583 219 832 180 848 172 C 873 157 836 139 820 135 C 806 131 759 141 680 159 C 556 186 492 182 475 187 C 464 189 479 215 490 217 Z"/></clipPath>
    <clipPath id="z27047c6"><path d="M 603 588 C 594 633 599 668 619 691 C 625 698 632 699 638 692 C 647 679 651 649 652 601 C 654 446 655 363 657 353 C 658 340 657 333 656 328 C 652 318 639 308 616 299 C 608 296 589 291 596 313 C 600 328 607 329 610 364 C 611 387 611 387 612 398 C 613 416 612 439 612 467 C 612 490 612 490 612 501 C 612 515 610 548 608 562 C 605 579 605 579 603 588 Z"/></clipPath>
    <clipPath id="z27047c7"><path d="M 610 364 C 598 363 576 369 544 379 C 534 381 523 381 512 384 C 493 387 491 393 506 401 C 526 411 550 411 579 404 C 589 401 600 399 612 398 C 623 396 621 364 610 364 Z"/></clipPath>
    <clipPath id="z27047c8"><path d="M 612 467 C 610 467 588 471 547 480 C 536 482 524 482 513 484 C 494 486 492 492 506 501 C 525 513 551 515 581 507 C 589 504 599 502 612 501 C 623 501 623 465 612 467 Z"/></clipPath>
    <clipPath id="z27047c9"><path d="M 480 622 C 490 628 502 635 516 641 C 520 642 526 640 531 636 C 544 623 567 607 603 588 C 611 583 616 557 608 562 C 556 592 508 597 480 599 C 472 599 474 617 480 622 Z"/></clipPath>
    <clipPath id="z27047c10"><path d="M 769 566 C 769 538 768 510 769 483 C 770 464 770 464 770 455 C 770 439 772 389 772 367 C 772 350 772 350 772 342 C 772 285 785 274 753 254 C 714 230 702 239 710 259 C 723 294 732 364 731 449 C 728 539 721 597 715 625 C 706 659 713 688 735 715 C 741 722 748 724 754 716 C 763 702 767 662 769 598 C 769 558 769 576 769 566 Z"/></clipPath>
    <clipPath id="z27047c11"><path d="M 772 367 C 794 371 833 370 889 359 C 925 351 902 327 877 326 C 864 325 845 330 801 339 C 792 340 782 341 772 342 C 764 344 764 365 772 367 Z"/></clipPath>
    <clipPath id="z27047c12"><path d="M 769 483 C 831 483 870 473 892 464 C 905 457 897 438 863 436 C 846 434 816 440 770 455 C 761 458 760 483 769 483 Z"/></clipPath>
    <clipPath id="z27047c13"><path d="M 769 598 C 817 594 867 593 916 590 C 936 588 930 570 910 558 C 870 533 857 551 769 566 C 759 568 758 598 769 598 Z"/></clipPath>
    <clipPath id="z27047c14"><path d="M 480 599 C 480 352 487 225 490 217 C 492 206 484 194 475 187 C 448 166 393 143 413 187 C 441 241 447 415 425 709 C 421 757 409 792 396 815 C 389 825 389 837 395 852 C 400 866 405 876 413 882 C 419 887 428 886 441 878 C 481 850 532 831 595 821 C 665 808 768 804 904 808 C 948 809 936 780 897 762 C 876 752 840 756 753 767 C 574 788 493 796 484 795 C 475 794 475 783 476 775 C 476 726 480 675 480 622 C 480 607 480 607 480 599 Z"/></clipPath>
</defs>
<g id="bg-layer">
    <path class="bg" d="M 309 349 C 339 341 382 339 408 321 C 422 310 411 292 374 285 C 360 282 323 290 310 294 C 281 303 281 303 266 307 C 202 325 149 335 109 342 C 84 346 79 356 99 366 C 151 392 200 373 252 362 C 290 353 290 353 309 349 Z"/>
    <path class="bg" d="M 307 425 C 307 400 308 375 309 349 C 310 312 310 312 310 294 C 311 237 314 188 329 150 C 332 139 338 130 335 122 C 331 114 309 101 274 79 C 258 68 214 63 233 97 C 271 165 267 232 266 307 C 264 410 264 410 263 462 C 260 571 254 705 234 783 C 227 807 231 840 248 882 C 266 928 303 898 303 822 C 302 793 307 669 307 449 C 307 433 307 433 307 425 Z"/>
    <path class="bg" d="M 252 362 C 220 450 166 547 62 694 C 33 734 71 712 76 709 C 156 634 215 558 263 462 C 298 376 287 276 252 362 Z"/>
    <path class="bg" d="M 307 449 C 348 493 368 514 382 515 C 409 515 401 482 393 468 C 379 443 332 432 307 425 C 299 423 302 443 307 449 Z"/>
    <path class="bg" d="M 490 217 C 513 224 550 223 565 222 C 583 219 832 180 848 172 C 873 157 836 139 820 135 C 806 131 759 141 680 159 C 556 186 492 182 475 187 C 464 189 479 215 490 217 Z"/>
    <path class="bg" d="M 603 588 C 594 633 599 668 619 691 C 625 698 632 699 638 692 C 647 679 651 649 652 601 C 654 446 655 363 657 353 C 658 340 657 333 656 328 C 652 318 639 308 616 299 C 608 296 589 291 596 313 C 600 328 607 329 610 364 C 611 387 611 387 612 398 C 613 416 612 439 612 467 C 612 490 612 490 612 501 C 612 515 610 548 608 562 C 605 579 605 579 603 588 Z"/>
    <path class="bg" d="M 610 364 C 598 363 576 369 544 379 C 534 381 523 381 512 384 C 493 387 491 393 506 401 C 526 411 550 411 579 404 C 589 401 600 399 612 398 C 623 396 621 364 610 364 Z"/>
    <path class="bg" d="M 612 467 C 610 467 588 471 547 480 C 536 482 524 482 513 484 C 494 486 492 492 506 501 C 525 513 551 515 581 507 C 589 504 599 502 612 501 C 623 501 623 465 612 467 Z"/>
    <path class="bg" d="M 480 622 C 490 628 502 635 516 641 C 520 642 526 640 531 636 C 544 623 567 607 603 588 C 611 583 616 557 608 562 C 556 592 508 597 480 599 C 472 599 474 617 480 622 Z"/>
    <path class="bg" d="M 769 566 C 769 538 768 510 769 483 C 770 464 770 464 770 455 C 770 439 772 389 772 367 C 772 350 772 350 772 342 C 772 285 785 274 753 254 C 714 230 702 239 710 259 C 723 294 732 364 731 449 C 728 539 721 597 715 625 C 706 659 713 688 735 715 C 741 722 748 724 754 716 C 763 702 767 662 769 598 C 769 558 769 576 769 566 Z"/>
    <path class="bg" d="M 772 367 C 794 371 833 370 889 359 C 925 351 902 327 877 326 C 864 325 845 330 801 339 C 792 340 782 341 772 342 C 764 344 764 365 772 367 Z"/>
    <path class="bg" d="M 769 483 C 831 483 870 473 892 464 C 905 457 897 438 863 436 C 846 434 816 440 770 455 C 761 458 760 483 769 483 Z"/>
    <path class="bg" d="M 769 598 C 817 594 867 593 916 590 C 936 588 930 570 910 558 C 870 533 857 551 769 566 C 759 568 758 598 769 598 Z"/>
    <path class="bg" d="M 480 599 C 480 352 487 225 490 217 C 492 206 484 194 475 187 C 448 166 393 143 413 187 C 441 241 447 415 425 709 C 421 757 409 792 396 815 C 389 825 389 837 395 852 C 400 866 405 876 413 882 C 419 887 428 886 441 878 C 481 850 532 831 595 821 C 665 808 768 804 904 808 C 948 809 936 780 897 762 C 876 752 840 756 753 767 C 574 788 493 796 484 795 C 475 794 475 783 476 775 C 476 726 480 675 480 622 C 480 607 480 607 480 599 Z"/>
</g>
<g id="anim-layer">
    <path style="--d:1s; stroke:#FF4444;" pathLength="3333" clip-path="url(#z27047c1)" d="M 95 356 L 409 311"/>
    <path style="--d:2s; stroke:#FF4444;" pathLength="3333" clip-path="url(#z27047c2)" d="M 236 81 L 295 139 L 271 899"/>
    <path style="--d:3s; stroke:#FF4444;" pathLength="3333" clip-path="url(#z27047c3)" d="M 273 339 L 214 502 L 58 711"/>
    <path style="--d:4s; stroke:#FF4444;" pathLength="3333" clip-path="url(#z27047c4)" d="M 309 435 L 391 509"/>
    <path style="--d:5s; stroke:#000;" pathLength="3333" clip-path="url(#z27047c5)" d="M 479 194 L 559 201 L 852 155"/>
    <path style="--d:6s; stroke:#000;" pathLength="3333" clip-path="url(#z27047c6)" d="M 601 300 L 633 349 L 629 692"/>
    <path style="--d:7s; stroke:#000;" pathLength="3333" clip-path="url(#z27047c7)" d="M 504 392 L 616 377"/>
    <path style="--d:8s; stroke:#000;" pathLength="3333" clip-path="url(#z27047c8)" d="M 503 489 L 618 479"/>
    <path style="--d:9s; stroke:#000;" pathLength="3333" clip-path="url(#z27047c9)" d="M 481 610 L 532 614 L 607 570"/>
    <path style="--d:10s; stroke:#000;" pathLength="3333" clip-path="url(#z27047c10)" d="M 714 248 L 748 301 L 736 713"/>
    <path style="--d:11s; stroke:#000;" pathLength="3333" clip-path="url(#z27047c11)" d="M 772 358 L 903 346"/>
    <path style="--d:12s; stroke:#000;" pathLength="3333" clip-path="url(#z27047c12)" d="M 767 474 L 893 454"/>
    <path style="--d:13s; stroke:#000;" pathLength="3333" clip-path="url(#z27047c13)" d="M 764 587 L 924 576"/>
    <path style="--d:14s; stroke:#000;" pathLength="3333" clip-path="url(#z27047c14)" d="M 417 170 L 459 235 L 446 839 L 675 793 L 927 793"/>
</g>
</svg>