<svg id="z27060" class="acjk" viewBox="0 0 1024 1024" xmlns="http://www.w3.org/2000/svg">

<style>
<![CDATA[
@keyframes zk { to { stroke-dashoffset:0; } }
svg.acjk path[clip-path] {
    --t:0.8s;
    animation:zk var(--t) linear forwards var(--d);
    stroke-dasharray:3337;
    stroke-dashoffset:3339;
    stroke-width:128;
    stroke-linecap:round;
    fill:none;
}
/* Low opacity for background improves visual overlap at intersections */
svg.acjk .bg { fill:#ccc; opacity: 0.5; } 
]]>
</style>
<defs>
    <clipPath id="z27060c1"><path d="M 303 408 C 324 401 357 393 373 383 C 378 379 379 372 376 367 C 371 359 359 354 339 351 C 326 348 314 348 304 353 C 275 364 275 364 261 370 C 193 396 135 405 91 415 C 66 419 62 430 82 438 C 144 461 196 437 252 422 C 286 413 286 413 303 408 Z"/></clipPath>
    <clipPath id="z27060c2"><path d="M 301 489 C 302 463 302 436 303 408 C 304 371 304 371 304 353 C 305 277 307 214 325 170 C 331 151 329 138 310 125 C 299 117 286 109 270 99 C 254 89 240 87 227 97 C 223 99 222 107 228 117 C 275 195 264 291 261 370 C 257 471 257 471 255 521 C 250 635 248 707 243 736 C 238 757 233 780 227 803 C 218 831 224 864 241 902 C 246 913 250 919 255 923 C 260 926 262 926 268 921 C 271 917 279 910 286 897 C 293 880 295 862 295 842 C 294 815 298 537 300 508 C 301 495 301 495 301 489 Z"/></clipPath>
    <clipPath id="z27060c3"><path d="M 252 422 C 221 502 161 604 65 722 C 43 750 55 754 74 739 C 146 677 208 605 256 521 C 304 441 287 335 252 422 Z"/></clipPath>
    <clipPath id="z27060c4"><path d="M 300 508 C 336 546 359 565 372 567 C 379 567 387 562 388 552 C 390 524 371 513 351 504 C 336 496 320 490 301 489 C 295 489 296 503 300 508 Z"/></clipPath>
    <clipPath id="z27060c5"><path d="M 448 299 C 526 243 559 211 605 190 C 617 183 621 175 615 165 C 607 153 595 144 580 136 C 565 127 554 124 547 126 C 539 127 539 130 539 139 C 538 177 508 202 434 286 C 430 291 443 303 448 299 Z"/></clipPath>
    <clipPath id="z27060c6"><path d="M 547 388 C 490 426 460 447 458 447 C 453 446 451 439 451 430 C 449 396 450 370 449 350 C 448 334 453 314 448 299 C 447 293 439 290 434 286 C 423 276 413 271 405 271 C 388 269 384 278 392 290 C 422 336 427 397 410 467 C 408 471 406 475 404 480 C 398 492 398 503 404 515 C 412 531 420 543 430 549 C 436 552 442 547 448 538 C 462 511 498 467 554 404 C 558 400 552 385 547 388 Z"/></clipPath>
    <clipPath id="z27060c7"><path d="M 554 404 C 562 424 571 436 577 439 C 581 440 586 438 590 435 C 594 430 597 421 599 408 C 600 391 583 365 545 332 C 536 324 524 323 526 335 C 527 346 532 354 547 388 C 552 399 552 399 554 404 Z"/></clipPath>
    <clipPath id="z27060c8"><path d="M 698 285 C 734 273 766 262 795 258 C 821 253 814 288 813 302 C 805 358 795 399 781 423 C 769 441 754 449 738 446 C 725 443 713 439 702 435 C 687 429 683 436 695 450 C 716 475 732 497 744 516 C 752 529 763 528 775 520 C 808 495 838 446 856 365 C 868 309 877 274 888 263 C 895 254 898 246 894 241 C 888 233 869 223 838 210 C 825 204 813 206 802 214 C 791 220 765 229 726 241 C 685 253 647 261 613 265 C 602 265 596 268 595 275 C 594 279 601 284 616 292 C 629 299 645 301 665 295 C 687 288 687 288 698 285 Z"/></clipPath>
    <clipPath id="z27060c9"><path d="M 665 295 C 669 299 670 308 668 324 C 658 384 623 450 568 524 C 550 546 571 540 589 527 C 620 506 670 439 710 370 C 726 340 737 329 725 311 C 716 298 707 290 698 285 C 688 279 658 286 665 295 Z"/></clipPath>
    <clipPath id="z27060c10"><path d="M 446 610 C 433 602 420 594 406 593 C 391 591 391 602 397 611 C 422 650 438 724 445 831 C 446 856 449 883 464 899 C 489 929 498 897 499 874 C 499 863 496 852 495 842 C 487 793 475 711 471 647 C 471 632 458 619 446 610 Z"/></clipPath>
    <clipPath id="z27060c11"><path d="M 757 850 C 750 896 778 963 809 912 C 825 882 845 816 857 714 C 860 679 867 649 889 624 C 899 611 902 599 894 590 C 880 574 857 561 827 547 C 814 540 796 539 775 547 C 688 576 579 598 446 610 C 431 612 456 649 471 647 C 513 641 557 632 593 625 C 619 620 619 620 632 617 C 672 608 731 599 753 595 C 790 587 800 608 801 637 C 802 666 799 711 787 770 C 782 792 775 811 767 830 C 764 837 758 843 757 850 Z"/></clipPath>
    <clipPath id="z27060c12"><path d="M 653 736 C 681 731 709 726 735 723 C 749 721 754 714 749 707 C 742 698 731 692 715 689 C 700 686 680 689 656 696 C 622 705 622 705 605 709 C 577 716 551 722 527 728 C 516 730 517 735 530 746 C 534 749 560 749 606 743 C 637 738 637 738 653 736 Z"/></clipPath>
    <clipPath id="z27060c13"><path d="M 649 818 C 649 789 651 762 653 736 C 655 709 655 709 656 696 C 660 637 670 642 632 617 C 621 609 588 613 593 625 C 599 635 603 662 605 709 C 606 732 606 732 606 743 C 606 764 606 792 608 826 C 608 840 649 832 649 818 Z"/></clipPath>
    <clipPath id="z27060c14"><path d="M 499 874 C 528 868 688 853 757 850 C 764 850 772 835 767 830 C 738 794 686 815 649 818 C 622 823 622 823 608 826 C 567 832 529 837 495 842 C 484 844 488 876 499 874 Z"/></clipPath>
</defs>
<g id="bg-layer">
    <path class="bg" d="M 303 408 C 324 401 357 393 373 383 C 378 379 379 372 376 367 C 371 359 359 354 339 351 C 326 348 314 348 304 353 C 275 364 275 364 261 370 C 193 396 135 405 91 415 C 66 419 62 430 82 438 C 144 461 196 437 252 422 C 286 413 286 413 303 408 Z"/>
    <path class="bg" d="M 301 489 C 302 463 302 436 303 408 C 304 371 304 371 304 353 C 305 277 307 214 325 170 C 331 151 329 138 310 125 C 299 117 286 109 270 99 C 254 89 240 87 227 97 C 223 99 222 107 228 117 C 275 195 264 291 261 370 C 257 471 257 471 255 521 C 250 635 248 707 243 736 C 238 757 233 780 227 803 C 218 831 224 864 241 902 C 246 913 250 919 255 923 C 260 926 262 926 268 921 C 271 917 279 910 286 897 C 293 880 295 862 295 842 C 294 815 298 537 300 508 C 301 495 301 495 301 489 Z"/>
    <path class="bg" d="M 252 422 C 221 502 161 604 65 722 C 43 750 55 754 74 739 C 146 677 208 605 256 521 C 304 441 287 335 252 422 Z"/>
    <path class="bg" d="M 300 508 C 336 546 359 565 372 567 C 379 567 387 562 388 552 C 390 524 371 513 351 504 C 336 496 320 490 301 489 C 295 489 296 503 300 508 Z"/>
    <path class="bg" d="M 448 299 C 526 243 559 211 605 190 C 617 183 621 175 615 165 C 607 153 595 144 580 136 C 565 127 554 124 547 126 C 539 127 539 130 539 139 C 538 177 508 202 434 286 C 430 291 443 303 448 299 Z"/>
    <path class="bg" d="M 547 388 C 490 426 460 447 458 447 C 453 446 451 439 451 430 C 449 396 450 370 449 350 C 448 334 453 314 448 299 C 447 293 439 290 434 286 C 423 276 413 271 405 271 C 388 269 384 278 392 290 C 422 336 427 397 410 467 C 408 471 406 475 404 480 C 398 492 398 503 404 515 C 412 531 420 543 430 549 C 436 552 442 547 448 538 C 462 511 498 467 554 404 C 558 400 552 385 547 388 Z"/>
    <path class="bg" d="M 554 404 C 562 424 571 436 577 439 C 581 440 586 438 590 435 C 594 430 597 421 599 408 C 600 391 583 365 545 332 C 536 324 524 323 526 335 C 527 346 532 354 547 388 C 552 399 552 399 554 404 Z"/>
    <path class="bg" d="M 698 285 C 734 273 766 262 795 258 C 821 253 814 288 813 302 C 805 358 795 399 781 423 C 769 441 754 449 738 446 C 725 443 713 439 702 435 C 687 429 683 436 695 450 C 716 475 732 497 744 516 C 752 529 763 528 775 520 C 808 495 838 446 856 365 C 868 309 877 274 888 263 C 895 254 898 246 894 241 C 888 233 869 223 838 210 C 825 204 813 206 802 214 C 791 220 765 229 726 241 C 685 253 647 261 613 265 C 602 265 596 268 595 275 C 594 279 601 284 616 292 C 629 299 645 301 665 295 C 687 288 687 288 698 285 Z"/>
    <path class="bg" d="M 665 295 C 669 299 670 308 668 324 C 658 384 623 450 568 524 C 550 546 571 540 589 527 C 620 506 670 439 710 370 C 726 340 737 329 725 311 C 716 298 707 290 698 285 C 688 279 658 286 665 295 Z"/>
    <path class="bg" d="M 446 610 C 433 602 420 594 406 593 C 391 591 391 602 397 611 C 422 650 438 724 445 831 C 446 856 449 883 464 899 C 489 929 498 897 499 874 C 499 863 496 852 495 842 C 487 793 475 711 471 647 C 471 632 458 619 446 610 Z"/>
    <path class="bg" d="M 757 850 C 750 896 778 963 809 912 C 825 882 845 816 857 714 C 860 679 867 649 889 624 C 899 611 902 599 894 590 C 880 574 857 561 827 547 C 814 540 796 539 775 547 C 688 576 579 598 446 610 C 431 612 456 649 471 647 C 513 641 557 632 593 625 C 619 620 619 620 632 617 C 672 608 731 599 753 595 C 790 587 800 608 801 637 C 802 666 799 711 787 770 C 782 792 775 811 767 830 C 764 837 758 843 757 850 Z"/>
    <path class="bg" d="M 653 736 C 681 731 709 726 735 723 C 749 721 754 714 749 707 C 742 698 731 692 715 689 C 700 686 680 689 656 696 C 622 705 622 705 605 709 C 577 716 551 722 527 728 C 516 730 517 735 530 746 C 534 749 560 749 606 743 C 637 738 637 738 653 736 Z"/>
    <path class="bg" d="M 649 818 C 649 789 651 762 653 736 C 655 709 655 709 656 696 C 660 637 670 642 632 617 C 621 609 588 613 593 625 C 599 635 603 662 605 709 C 606 732 606 732 606 743 C 606 764 606 792 608 826 C 608 840 649 832 649 818 Z"/>
    <path class="bg" d="M 499 874 C 528 868 688 853 757 850 C 764 850 772 835 767 830 C 738 794 686 815 649 818 C 622 823 622 823 608 826 C 567 832 529 837 495 842 C 484 844 488 876 499 874 Z"/>
</g>
<g id="anim-layer">
    <path style="--d:1s; stroke:#FF4444;" pathLength="3333" clip-path="url(#z27060c1)" d="M 75 426 L 373 374"/>
    <path style="--d:2s; stroke:#FF4444;" pathLength="3333" clip-path="url(#z27060c2)" d="M 230 104 L 290 163 L 255 918"/>
    <path style="--d:3s; stroke:#FF4444;" pathLength="3333" clip-path="url(#z27060c3)" d="M 276 398 L 200 570 L 60 739"/>
    <path style="--d:4s; stroke:#FF4444;" pathLength="3333" clip-path="url(#z27060c4)" d="M 306 497 L 383 555"/>
    <path style="--d:5s; stroke:#000;" pathLength="3333" clip-path="url(#z27060c5)" d="M 546 136 L 572 177 L 439 292"/>
    <path style="--d:6s; stroke:#000;" pathLength="3333" clip-path="url(#z27060c6)" d="M 398 281 L 428 310 L 444 498 L 548 398"/>
    <path style="--d:7s; stroke:#000;" pathLength="3333" clip-path="url(#z27060c7)" d="M 534 334 L 581 433"/>
    <path style="--d:8s; stroke:#000;" pathLength="3333" clip-path="url(#z27060c8)" d="M 599 273 L 657 277 L 814 233 L 852 257 L 787 462 L 755 486 L 695 439"/>
    <path style="--d:9s; stroke:#000;" pathLength="3333" clip-path="url(#z27060c9)" d="M 671 294 L 696 328 L 688 358 L 569 533"/>
    <path style="--d:10s; stroke:#000;" pathLength="3333" clip-path="url(#z27060c10)" d="M 402 602 L 445 654 L 480 906"/>
    <path style="--d:11s; stroke:#000;" pathLength="3333" clip-path="url(#z27060c11)" d="M 448 618 L 787 568 L 836 594 L 849 613 L 784 926"/>
    <path style="--d:12s; stroke:#000;" pathLength="3333" clip-path="url(#z27060c12)" d="M 526 733 L 743 707"/>
    <path style="--d:13s; stroke:#000;" pathLength="3333" clip-path="url(#z27060c13)" d="M 598 619 L 631 654 L 624 830"/>
    <path style="--d:14s; stroke:#000;" pathLength="3333" clip-path="url(#z27060c14)" d="M 491 859 L 763 834"/>
</g>
</svg>