<svg id="z27176" class="acjk" viewBox="0 0 1024 1024" xmlns="http://www.w3.org/2000/svg">

<style>
<![CDATA[
@keyframes zk { to { stroke-dashoffset:0; } }
svg.acjk path[clip-path] {
    --t:0.8s;
    animation:zk var(--t) linear forwards var(--d);
    stroke-dasharray:3337;
    stroke-dashoffset:3339;
    stroke-width:128;
    stroke-linecap:round;
    fill:none;
}
/* Low opacity for background improves visual overlap at intersections */
svg.acjk .bg { fill:#ccc; opacity: 0.5; } 
]]>
</style>
<defs>
    <clipPath id="z27176c1"><path d="M 310 337 Q 412 312 415 309 Q 425 300 419 292 Q 412 280 382 273 Q 345 267 312 284 C 282 294 282 294 267 299 Q 251 302 234 307 Q 185 320 125 326 Q 88 333 115 350 Q 160 374 218 357 Q 234 353 258 349 C 293 341 293 341 310 337 Z"/></clipPath>
    <clipPath id="z27176c2"><path d="M 308 392 Q 308 365 310 337 C 311 302 311 302 312 284 Q 315 196 334 137 Q 343 121 340 108 Q 333 98 278 63 Q 254 45 233 61 Q 229 65 234 81 Q 267 130 267 180 Q 267 235 267 299 C 264 406 264 406 262 459 Q 258 543 257 634 Q 251 712 230 783 Q 218 822 243 885 Q 250 904 258 907 Q 264 914 272 905 Q 279 901 290 880 Q 300 855 300 824 Q 299 779 307 422 C 308 402 308 402 308 392 Z"/></clipPath>
    <clipPath id="z27176c3"><path d="M 258 349 Q 212 484 58 699 Q 52 709 64 710 Q 88 710 191 575 Q 228 526 262 459 C 312 375 294 258 258 349 Z"/></clipPath>
    <clipPath id="z27176c4"><path d="M 307 422 Q 365 488 386 491 Q 399 492 405 475 Q 406 463 398 444 Q 388 426 363 416 Q 324 397 308 392 C 299 389 301 414 307 422 Z"/></clipPath>
    <clipPath id="z27176c5"><path d="M 796 207 Q 823 159 844 150 Q 860 134 847 116 Q 832 103 784 78 Q 768 71 747 78 Q 654 115 515 136 C 502 138 528 168 541 165 Q 553 164 729 127 Q 750 121 758 130 Q 764 136 762 147 Q 755 178 746 206 C 740 221 789 222 796 207 Z"/></clipPath>
    <clipPath id="z27176c6"><path d="M 526 284 Q 538 287 551 284 Q 633 262 812 243 Q 822 242 824 233 Q 824 224 796 207 C 782 198 762 203 746 206 Q 625 237 528 253 C 518 255 516 282 526 284 Z"/></clipPath>
    <clipPath id="z27176c7"><path d="M 515 136 Q 476 114 462 121 Q 450 128 457 141 Q 476 165 477 221 Q 476 239 475 261 Q 472 426 430 559 Q 396 661 318 790 Q 314 797 311 803 Q 310 813 319 811 Q 347 807 423 684 Q 438 654 453 623 Q 516 473 526 284 C 527 263 527 263 528 253 Q 529 234 532 217 Q 533 198 538 180 Q 542 173 541 165 C 541 152 527 142 515 136 Z"/></clipPath>
    <clipPath id="z27176c8"><path d="M 661 303 Q 674 342 668 414 Q 665 430 683 454 Q 690 461 697 453 Q 703 444 710 363 Q 707 357 713 324 Q 717 308 703 300 Q 691 293 680 287 Q 671 284 664 288 Q 658 292 661 303 Z"/></clipPath>
    <clipPath id="z27176c9"><path d="M 564 336 Q 601 373 618 372 Q 628 372 631 358 Q 631 348 622 334 Q 607 316 565 316 Q 558 315 558 324 Q 558 330 564 336 Z"/></clipPath>
    <clipPath id="z27176c10"><path d="M 539 434 Q 532 435 532 442 Q 531 449 538 454 Q 551 461 572 469 Q 578 470 584 464 Q 591 454 602 446 Q 617 436 631 423 Q 646 411 647 403 Q 643 400 561 430 Q 551 431 539 434 Z"/></clipPath>
    <clipPath id="z27176c11"><path d="M 790 303 Q 772 321 738 347 Q 732 351 735 356 Q 739 359 746 357 Q 807 338 837 331 Q 850 331 849 323 Q 848 310 839 294 Q 829 278 814 273 Q 804 270 800 284 Q 800 294 790 303 Z"/></clipPath>
    <clipPath id="z27176c12"><path d="M 756 418 Q 787 437 821 460 Q 831 467 841 466 Q 848 465 850 456 Q 851 446 843 428 Q 831 401 749 389 Q 739 388 735 390 Q 734 393 735 401 Q 738 408 756 418 Z"/></clipPath>
    <clipPath id="z27176c13"><path d="M 571 588 Q 581 569 602 553 Q 609 546 606 537 Q 603 528 585 512 Q 567 499 555 498 Q 542 499 547 514 Q 559 545 481 647 Q 474 654 473 658 Q 470 665 479 664 Q 498 660 551 608 Q 552 605 556 604 C 562 600 568 595 571 588 Z"/></clipPath>
    <clipPath id="z27176c14"><path d="M 724 600 Q 829 576 835 572 Q 842 565 839 558 Q 832 548 807 542 Q 782 538 756 547 Q 741 551 726 557 C 689 568 689 568 670 573 Q 624 583 571 588 C 564 589 550 600 556 604 Q 565 613 595 619 Q 598 619 670 612 C 706 604 706 604 724 600 Z"/></clipPath>
    <clipPath id="z27176c15"><path d="M 720 727 Q 765 724 920 723 Q 939 723 943 715 Q 947 705 933 693 Q 881 654 823 671 Q 780 678 721 690 C 686 695 686 695 669 697 Q 572 710 459 724 Q 440 725 454 741 Q 467 754 483 758 Q 502 764 516 759 Q 585 741 663 733 Q 664 732 669 733 C 703 729 703 729 720 727 Z"/></clipPath>
    <clipPath id="z27176c16"><path d="M 672 929 Q 676 953 683 961 Q 687 968 695 966 Q 719 947 720 733 Q 720 730 720 727 C 721 702 721 702 721 690 Q 722 650 724 600 C 725 571 725 571 726 557 Q 730 530 733 517 Q 736 501 723 492 Q 693 473 680 470 Q 668 466 654 473 Q 647 480 652 490 Q 670 521 670 573 C 670 599 670 599 670 612 Q 670 651 669 697 C 669 721 669 721 669 733 Q 669 907 672 929 Z"/></clipPath>
</defs>
<g id="bg-layer">
    <path class="bg" d="M 310 337 Q 412 312 415 309 Q 425 300 419 292 Q 412 280 382 273 Q 345 267 312 284 C 282 294 282 294 267 299 Q 251 302 234 307 Q 185 320 125 326 Q 88 333 115 350 Q 160 374 218 357 Q 234 353 258 349 C 293 341 293 341 310 337 Z"/>
    <path class="bg" d="M 308 392 Q 308 365 310 337 C 311 302 311 302 312 284 Q 315 196 334 137 Q 343 121 340 108 Q 333 98 278 63 Q 254 45 233 61 Q 229 65 234 81 Q 267 130 267 180 Q 267 235 267 299 C 264 406 264 406 262 459 Q 258 543 257 634 Q 251 712 230 783 Q 218 822 243 885 Q 250 904 258 907 Q 264 914 272 905 Q 279 901 290 880 Q 300 855 300 824 Q 299 779 307 422 C 308 402 308 402 308 392 Z"/>
    <path class="bg" d="M 258 349 Q 212 484 58 699 Q 52 709 64 710 Q 88 710 191 575 Q 228 526 262 459 C 312 375 294 258 258 349 Z"/>
    <path class="bg" d="M 307 422 Q 365 488 386 491 Q 399 492 405 475 Q 406 463 398 444 Q 388 426 363 416 Q 324 397 308 392 C 299 389 301 414 307 422 Z"/>
    <path class="bg" d="M 796 207 Q 823 159 844 150 Q 860 134 847 116 Q 832 103 784 78 Q 768 71 747 78 Q 654 115 515 136 C 502 138 528 168 541 165 Q 553 164 729 127 Q 750 121 758 130 Q 764 136 762 147 Q 755 178 746 206 C 740 221 789 222 796 207 Z"/>
    <path class="bg" d="M 526 284 Q 538 287 551 284 Q 633 262 812 243 Q 822 242 824 233 Q 824 224 796 207 C 782 198 762 203 746 206 Q 625 237 528 253 C 518 255 516 282 526 284 Z"/>
    <path class="bg" d="M 515 136 Q 476 114 462 121 Q 450 128 457 141 Q 476 165 477 221 Q 476 239 475 261 Q 472 426 430 559 Q 396 661 318 790 Q 314 797 311 803 Q 310 813 319 811 Q 347 807 423 684 Q 438 654 453 623 Q 516 473 526 284 C 527 263 527 263 528 253 Q 529 234 532 217 Q 533 198 538 180 Q 542 173 541 165 C 541 152 527 142 515 136 Z"/>
    <path class="bg" d="M 661 303 Q 674 342 668 414 Q 665 430 683 454 Q 690 461 697 453 Q 703 444 710 363 Q 707 357 713 324 Q 717 308 703 300 Q 691 293 680 287 Q 671 284 664 288 Q 658 292 661 303 Z"/>
    <path class="bg" d="M 564 336 Q 601 373 618 372 Q 628 372 631 358 Q 631 348 622 334 Q 607 316 565 316 Q 558 315 558 324 Q 558 330 564 336 Z"/>
    <path class="bg" d="M 539 434 Q 532 435 532 442 Q 531 449 538 454 Q 551 461 572 469 Q 578 470 584 464 Q 591 454 602 446 Q 617 436 631 423 Q 646 411 647 403 Q 643 400 561 430 Q 551 431 539 434 Z"/>
    <path class="bg" d="M 790 303 Q 772 321 738 347 Q 732 351 735 356 Q 739 359 746 357 Q 807 338 837 331 Q 850 331 849 323 Q 848 310 839 294 Q 829 278 814 273 Q 804 270 800 284 Q 800 294 790 303 Z"/>
    <path class="bg" d="M 756 418 Q 787 437 821 460 Q 831 467 841 466 Q 848 465 850 456 Q 851 446 843 428 Q 831 401 749 389 Q 739 388 735 390 Q 734 393 735 401 Q 738 408 756 418 Z"/>
    <path class="bg" d="M 571 588 Q 581 569 602 553 Q 609 546 606 537 Q 603 528 585 512 Q 567 499 555 498 Q 542 499 547 514 Q 559 545 481 647 Q 474 654 473 658 Q 470 665 479 664 Q 498 660 551 608 Q 552 605 556 604 C 562 600 568 595 571 588 Z"/>
    <path class="bg" d="M 724 600 Q 829 576 835 572 Q 842 565 839 558 Q 832 548 807 542 Q 782 538 756 547 Q 741 551 726 557 C 689 568 689 568 670 573 Q 624 583 571 588 C 564 589 550 600 556 604 Q 565 613 595 619 Q 598 619 670 612 C 706 604 706 604 724 600 Z"/>
    <path class="bg" d="M 720 727 Q 765 724 920 723 Q 939 723 943 715 Q 947 705 933 693 Q 881 654 823 671 Q 780 678 721 690 C 686 695 686 695 669 697 Q 572 710 459 724 Q 440 725 454 741 Q 467 754 483 758 Q 502 764 516 759 Q 585 741 663 733 Q 664 732 669 733 C 703 729 703 729 720 727 Z"/>
    <path class="bg" d="M 672 929 Q 676 953 683 961 Q 687 968 695 966 Q 719 947 720 733 Q 720 730 720 727 C 721 702 721 702 721 690 Q 722 650 724 600 C 725 571 725 571 726 557 Q 730 530 733 517 Q 736 501 723 492 Q 693 473 680 470 Q 668 466 654 473 Q 647 480 652 490 Q 670 521 670 573 C 670 599 670 599 670 612 Q 670 651 669 697 C 669 721 669 721 669 733 Q 669 907 672 929 Z"/>
</g>
<g id="anim-layer">
    <path style="--d:1s; stroke:#FF4444;" pathLength="3333" clip-path="url(#z27176c1)" d="M 112 337 L 416 298"/>
    <path style="--d:2s; stroke:#FF4444;" pathLength="3333" clip-path="url(#z27176c2)" d="M 237 65 L 301 128 L 261 905"/>
    <path style="--d:3s; stroke:#FF4444;" pathLength="3333" clip-path="url(#z27176c3)" d="M 261 355 L 209 508 L 63 702"/>
    <path style="--d:4s; stroke:#FF4444;" pathLength="3333" clip-path="url(#z27176c4)" d="M 312 404 L 392 486"/>
    <path style="--d:5s; stroke:#000;" pathLength="3333" clip-path="url(#z27176c5)" d="M 525 138 L 767 101 L 807 141 L 756 203"/>
    <path style="--d:6s; stroke:#000;" pathLength="3333" clip-path="url(#z27176c6)" d="M 529 278 L 818 230"/>
    <path style="--d:7s; stroke:#000;" pathLength="3333" clip-path="url(#z27176c7)" d="M 463 131 L 507 176 L 480 456 L 420 643 L 319 804"/>
    <path style="--d:8s; stroke:#000;" pathLength="3333" clip-path="url(#z27176c8)" d="M 670 295 L 691 327 L 690 450"/>
    <path style="--d:9s; stroke:#000;" pathLength="3333" clip-path="url(#z27176c9)" d="M 563 323 L 621 367"/>
    <path style="--d:10s; stroke:#000;" pathLength="3333" clip-path="url(#z27176c10)" d="M 537 442 L 578 445 L 638 407"/>
    <path style="--d:11s; stroke:#000;" pathLength="3333" clip-path="url(#z27176c11)" d="M 810 278 L 813 320 L 741 353"/>
    <path style="--d:12s; stroke:#000;" pathLength="3333" clip-path="url(#z27176c12)" d="M 743 397 L 845 457"/>
    <path style="--d:13s; stroke:#000;" pathLength="3333" clip-path="url(#z27176c13)" d="M 555 509 L 573 550 L 481 654"/>
    <path style="--d:14s; stroke:#000;" pathLength="3333" clip-path="url(#z27176c14)" d="M 565 598 L 836 561"/>
    <path style="--d:15s; stroke:#000;" pathLength="3333" clip-path="url(#z27176c15)" d="M 458 732 L 845 695 L 939 704"/>
    <path style="--d:16s; stroke:#000;" pathLength="3333" clip-path="url(#z27176c16)" d="M 658 478 L 699 520 L 692 958"/>
</g>
</svg>