<svg id="z27257" class="acjk" viewBox="0 0 1024 1024" xmlns="http://www.w3.org/2000/svg">

<style>
<![CDATA[
@keyframes zk { to { stroke-dashoffset:0; } }
svg.acjk path[clip-path] {
    --t:0.8s;
    animation:zk var(--t) linear forwards var(--d);
    stroke-dasharray:3337;
    stroke-dashoffset:3339;
    stroke-width:128;
    stroke-linecap:round;
    fill:none;
}
/* Low opacity for background improves visual overlap at intersections */
svg.acjk .bg { fill:#ccc; opacity: 0.5; } 
]]>
</style>
<defs>
    <clipPath id="z27257c1"><path d="M 311 384 Q 381 365 384 363 Q 391 356 387 347 Q 380 337 352 330 Q 331 326 312 332 C 281 342 281 342 266 347 Q 202 366 128 376 Q 94 383 119 398 Q 155 419 224 403 Q 234 400 248 399 C 290 389 290 389 311 384 Z"/></clipPath>
    <clipPath id="z27257c2"><path d="M 309 447 Q 309 416 311 384 C 312 349 312 349 312 332 Q 312 329 313 327 Q 314 233 334 169 Q 343 153 340 140 Q 333 130 278 95 Q 254 77 233 93 Q 227 97 234 113 Q 265 161 266 209 Q 266 273 266 347 C 262 442 262 442 260 490 Q 253 685 250 709 Q 243 752 230 795 Q 217 837 244 897 Q 250 916 258 919 Q 264 926 272 917 Q 279 913 290 892 Q 300 867 300 835 Q 300 793 308 480 C 309 458 309 458 309 447 Z"/></clipPath>
    <clipPath id="z27257c3"><path d="M 248 399 Q 202 529 58 727 Q 52 737 64 738 Q 86 738 184 616 Q 224 564 260 490 C 291 412 279 321 248 399 Z"/></clipPath>
    <clipPath id="z27257c4"><path d="M 308 480 Q 344 534 367 537 Q 379 538 386 524 Q 387 512 381 494 Q 366 463 309 447 C 299 443 301 471 308 480 Z"/></clipPath>
    <clipPath id="z27257c5"><path d="M 570 161 Q 625 95 627 95 Q 626 92 626 90 Q 625 80 604 59 Q 585 43 570 41 Q 555 40 559 58 Q 568 85 509 165 Q 481 201 444 240 Q 435 247 433 252 Q 429 261 440 260 Q 464 257 553 178 C 564 167 564 167 570 161 Z"/></clipPath>
    <clipPath id="z27257c6"><path d="M 632 278 Q 717 191 747 174 Q 763 164 753 153 Q 740 141 708 123 Q 699 120 603 152 Q 588 156 570 161 C 562 163 545 175 553 178 Q 571 187 653 169 Q 660 168 664 169 Q 667 173 662 181 Q 626 247 605 278 Q 602 281 601 284 C 596 293 626 286 632 278 Z"/></clipPath>
    <clipPath id="z27257c7"><path d="M 475 310 Q 465 304 433 300 Q 423 297 419 302 Q 413 308 421 323 Q 448 375 466 459 Q 469 484 484 501 Q 502 522 506 507 Q 507 503 508 499 C 509 484 509 484 509 477 Q 508 465 506 451 Q 491 372 487 342 C 485 331 485 315 475 310 Z"/></clipPath>
    <clipPath id="z27257c8"><path d="M 735 482 Q 739 495 751 495 Q 764 494 771 481 Q 781 468 803 399 Q 819 351 852 325 Q 868 310 854 296 Q 838 280 793 256 Q 781 247 724 262 Q 678 266 632 278 C 611 282 611 282 601 284 Q 585 285 475 310 C 464 312 476 346 487 342 Q 511 330 596 316 C 620 312 620 312 632 310 Q 734 283 764 296 Q 773 302 768 329 Q 747 431 736 453 C 732 462 731 473 735 482 Z"/></clipPath>
    <clipPath id="z27257c9"><path d="M 644 397 Q 675 391 704 388 Q 723 385 717 374 Q 708 362 687 358 Q 671 355 647 362 C 616 369 616 369 601 373 Q 562 382 530 390 Q 517 393 533 405 Q 540 412 559 409 Q 581 405 602 403 C 630 399 630 399 644 397 Z"/></clipPath>
    <clipPath id="z27257c10"><path d="M 639 456 Q 640 425 644 397 C 646 374 646 374 647 362 Q 647 361 648 359 Q 649 352 649 347 Q 656 334 648 325 Q 641 316 632 310 C 622 303 590 306 596 316 Q 597 317 598 318 Q 601 333 601 373 C 602 393 602 393 602 403 Q 602 427 602 462 C 602 474 639 468 639 456 Z"/></clipPath>
    <clipPath id="z27257c11"><path d="M 508 499 Q 517 500 533 500 Q 648 487 734 480 C 743 480 744 458 736 453 Q 732 449 724 448 Q 688 439 639 456 C 614 460 614 460 602 462 Q 553 468 509 477 C 502 478 501 499 508 499 Z"/></clipPath>
    <clipPath id="z27257c12"><path d="M 649 579 Q 844 558 922 567 Q 953 567 957 563 Q 964 553 953 542 Q 898 493 838 512 Q 721 531 623 543 Q 373 570 359 572 Q 349 572 347 581 Q 347 591 362 603 Q 377 613 403 623 Q 412 626 426 619 Q 439 615 493 605 Q 563 589 649 579 Z"/></clipPath>
    <clipPath id="z27257c13"><path d="M 515 655 Q 497 640 477 635 Q 470 634 465 641 Q 462 645 468 654 Q 498 738 472 844 Q 466 865 470 880 Q 477 907 487 917 Q 497 927 504 917 Q 513 907 516 889 C 520 867 520 867 522 856 Q 523 841 524 781 C 524 764 524 764 524 756 Q 524 701 527 682 C 529 672 523 661 515 655 Z"/></clipPath>
    <clipPath id="z27257c14"><path d="M 674 871 Q 698 902 715 933 Q 722 949 733 948 Q 748 947 762 918 Q 780 878 772 794 Q 763 695 781 672 Q 790 660 782 651 Q 766 633 720 612 Q 704 603 690 611 Q 644 632 515 655 C 505 657 517 682 527 682 Q 552 682 676 656 Q 697 652 707 660 Q 713 666 714 820 Q 713 830 712 838 Q 709 845 705 849 C 697 859 666 861 674 871 Z"/></clipPath>
    <clipPath id="z27257c15"><path d="M 524 781 Q 528 782 535 781 Q 602 772 651 767 Q 673 763 665 751 Q 655 738 631 733 Q 595 729 524 756 C 516 759 516 781 524 781 Z"/></clipPath>
    <clipPath id="z27257c16"><path d="M 516 889 Q 520 889 528 888 Q 576 878 674 871 C 687 871 714 858 705 849 Q 698 842 684 833 Q 668 824 640 831 Q 574 847 522 856 C 511 858 505 889 516 889 Z"/></clipPath>
</defs>
<g id="bg-layer">
    <path class="bg" d="M 311 384 Q 381 365 384 363 Q 391 356 387 347 Q 380 337 352 330 Q 331 326 312 332 C 281 342 281 342 266 347 Q 202 366 128 376 Q 94 383 119 398 Q 155 419 224 403 Q 234 400 248 399 C 290 389 290 389 311 384 Z"/>
    <path class="bg" d="M 309 447 Q 309 416 311 384 C 312 349 312 349 312 332 Q 312 329 313 327 Q 314 233 334 169 Q 343 153 340 140 Q 333 130 278 95 Q 254 77 233 93 Q 227 97 234 113 Q 265 161 266 209 Q 266 273 266 347 C 262 442 262 442 260 490 Q 253 685 250 709 Q 243 752 230 795 Q 217 837 244 897 Q 250 916 258 919 Q 264 926 272 917 Q 279 913 290 892 Q 300 867 300 835 Q 300 793 308 480 C 309 458 309 458 309 447 Z"/>
    <path class="bg" d="M 248 399 Q 202 529 58 727 Q 52 737 64 738 Q 86 738 184 616 Q 224 564 260 490 C 291 412 279 321 248 399 Z"/>
    <path class="bg" d="M 308 480 Q 344 534 367 537 Q 379 538 386 524 Q 387 512 381 494 Q 366 463 309 447 C 299 443 301 471 308 480 Z"/>
    <path class="bg" d="M 570 161 Q 625 95 627 95 Q 626 92 626 90 Q 625 80 604 59 Q 585 43 570 41 Q 555 40 559 58 Q 568 85 509 165 Q 481 201 444 240 Q 435 247 433 252 Q 429 261 440 260 Q 464 257 553 178 C 564 167 564 167 570 161 Z"/>
    <path class="bg" d="M 632 278 Q 717 191 747 174 Q 763 164 753 153 Q 740 141 708 123 Q 699 120 603 152 Q 588 156 570 161 C 562 163 545 175 553 178 Q 571 187 653 169 Q 660 168 664 169 Q 667 173 662 181 Q 626 247 605 278 Q 602 281 601 284 C 596 293 626 286 632 278 Z"/>
    <path class="bg" d="M 475 310 Q 465 304 433 300 Q 423 297 419 302 Q 413 308 421 323 Q 448 375 466 459 Q 469 484 484 501 Q 502 522 506 507 Q 507 503 508 499 C 509 484 509 484 509 477 Q 508 465 506 451 Q 491 372 487 342 C 485 331 485 315 475 310 Z"/>
    <path class="bg" d="M 735 482 Q 739 495 751 495 Q 764 494 771 481 Q 781 468 803 399 Q 819 351 852 325 Q 868 310 854 296 Q 838 280 793 256 Q 781 247 724 262 Q 678 266 632 278 C 611 282 611 282 601 284 Q 585 285 475 310 C 464 312 476 346 487 342 Q 511 330 596 316 C 620 312 620 312 632 310 Q 734 283 764 296 Q 773 302 768 329 Q 747 431 736 453 C 732 462 731 473 735 482 Z"/>
    <path class="bg" d="M 644 397 Q 675 391 704 388 Q 723 385 717 374 Q 708 362 687 358 Q 671 355 647 362 C 616 369 616 369 601 373 Q 562 382 530 390 Q 517 393 533 405 Q 540 412 559 409 Q 581 405 602 403 C 630 399 630 399 644 397 Z"/>
    <path class="bg" d="M 639 456 Q 640 425 644 397 C 646 374 646 374 647 362 Q 647 361 648 359 Q 649 352 649 347 Q 656 334 648 325 Q 641 316 632 310 C 622 303 590 306 596 316 Q 597 317 598 318 Q 601 333 601 373 C 602 393 602 393 602 403 Q 602 427 602 462 C 602 474 639 468 639 456 Z"/>
    <path class="bg" d="M 508 499 Q 517 500 533 500 Q 648 487 734 480 C 743 480 744 458 736 453 Q 732 449 724 448 Q 688 439 639 456 C 614 460 614 460 602 462 Q 553 468 509 477 C 502 478 501 499 508 499 Z"/>
    <path class="bg" d="M 649 579 Q 844 558 922 567 Q 953 567 957 563 Q 964 553 953 542 Q 898 493 838 512 Q 721 531 623 543 Q 373 570 359 572 Q 349 572 347 581 Q 347 591 362 603 Q 377 613 403 623 Q 412 626 426 619 Q 439 615 493 605 Q 563 589 649 579 Z"/>
    <path class="bg" d="M 515 655 Q 497 640 477 635 Q 470 634 465 641 Q 462 645 468 654 Q 498 738 472 844 Q 466 865 470 880 Q 477 907 487 917 Q 497 927 504 917 Q 513 907 516 889 C 520 867 520 867 522 856 Q 523 841 524 781 C 524 764 524 764 524 756 Q 524 701 527 682 C 529 672 523 661 515 655 Z"/>
    <path class="bg" d="M 674 871 Q 698 902 715 933 Q 722 949 733 948 Q 748 947 762 918 Q 780 878 772 794 Q 763 695 781 672 Q 790 660 782 651 Q 766 633 720 612 Q 704 603 690 611 Q 644 632 515 655 C 505 657 517 682 527 682 Q 552 682 676 656 Q 697 652 707 660 Q 713 666 714 820 Q 713 830 712 838 Q 709 845 705 849 C 697 859 666 861 674 871 Z"/>
    <path class="bg" d="M 524 781 Q 528 782 535 781 Q 602 772 651 767 Q 673 763 665 751 Q 655 738 631 733 Q 595 729 524 756 C 516 759 516 781 524 781 Z"/>
    <path class="bg" d="M 516 889 Q 520 889 528 888 Q 576 878 674 871 C 687 871 714 858 705 849 Q 698 842 684 833 Q 668 824 640 831 Q 574 847 522 856 C 511 858 505 889 516 889 Z"/>
</g>
<g id="anim-layer">
    <path style="--d:1s; stroke:#FF4444;" pathLength="3333" clip-path="url(#z27257c1)" d="M 118 386 L 380 351"/>
    <path style="--d:2s; stroke:#FF4444;" pathLength="3333" clip-path="url(#z27257c2)" d="M 237 100 L 301 163 L 263 917"/>
    <path style="--d:3s; stroke:#FF4444;" pathLength="3333" clip-path="url(#z27257c3)" d="M 259 402 L 196 560 L 64 732"/>
    <path style="--d:4s; stroke:#FF4444;" pathLength="3333" clip-path="url(#z27257c4)" d="M 316 457 L 380 530"/>
    <path style="--d:5s; stroke:#000;" pathLength="3333" clip-path="url(#z27257c5)" d="M 566 49 L 590 93 L 440 252"/>
    <path style="--d:6s; stroke:#000;" pathLength="3333" clip-path="url(#z27257c6)" d="M 564 177 L 679 146 L 703 157 L 611 279"/>
    <path style="--d:7s; stroke:#000;" pathLength="3333" clip-path="url(#z27257c7)" d="M 424 307 L 457 337 L 497 508"/>
    <path style="--d:8s; stroke:#000;" pathLength="3333" clip-path="url(#z27257c8)" d="M 483 315 L 789 282 L 814 318 L 754 491"/>
    <path style="--d:9s; stroke:#000;" pathLength="3333" clip-path="url(#z27257c9)" d="M 530 394 L 713 377"/>
    <path style="--d:10s; stroke:#000;" pathLength="3333" clip-path="url(#z27257c10)" d="M 604 318 L 626 345 L 613 458"/>
    <path style="--d:11s; stroke:#000;" pathLength="3333" clip-path="url(#z27257c11)" d="M 517 492 L 733 463"/>
    <path style="--d:12s; stroke:#000;" pathLength="3333" clip-path="url(#z27257c12)" d="M 355 583 L 414 594 L 869 535 L 953 557"/>
    <path style="--d:13s; stroke:#000;" pathLength="3333" clip-path="url(#z27257c13)" d="M 472 642 L 503 698 L 491 917"/>
    <path style="--d:14s; stroke:#000;" pathLength="3333" clip-path="url(#z27257c14)" d="M 525 659 L 701 631 L 745 660 L 738 868 L 715 903 L 694 899"/>
    <path style="--d:15s; stroke:#000;" pathLength="3333" clip-path="url(#z27257c15)" d="M 528 773 L 661 750"/>
    <path style="--d:16s; stroke:#000;" pathLength="3333" clip-path="url(#z27257c16)" d="M 525 881 L 695 849"/>
</g>
</svg>