<svg id="z27489" class="acjk" viewBox="0 0 1024 1024" xmlns="http://www.w3.org/2000/svg">

<style>
<![CDATA[
@keyframes zk { to { stroke-dashoffset:0; } }
svg.acjk path[clip-path] {
    --t:0.8s;
    animation:zk var(--t) linear forwards var(--d);
    stroke-dasharray:3337;
    stroke-dashoffset:3339;
    stroke-width:128;
    stroke-linecap:round;
    fill:none;
}
/* Low opacity for background improves visual overlap at intersections */
svg.acjk .bg { fill:#ccc; opacity: 0.5; } 
]]>
</style>
<defs>
    <clipPath id="z27489c1"><path d="M 443 217 C 451 216 494 211 553 214 C 561 214 567 212 570 207 C 572 201 571 192 563 186 C 535 163 494 163 462 170 C 431 176 431 176 415 179 C 383 185 339 194 304 200 C 279 204 279 204 267 206 C 231 211 182 215 143 222 C 126 224 124 230 136 238 C 192 271 229 246 275 238 C 296 234 296 234 307 232 C 336 226 375 222 404 220 C 430 218 430 218 443 217 Z"/></clipPath>
    <clipPath id="z27489c2"><path d="M 304 200 C 302 183 301 168 301 154 C 300 143 296 138 286 134 C 265 125 250 120 239 125 C 229 128 229 137 237 147 C 250 163 261 183 267 206 C 272 227 272 227 275 238 C 281 265 287 284 295 291 C 301 296 307 295 309 290 C 311 282 309 262 307 232 C 305 211 305 211 304 200 Z"/></clipPath>
    <clipPath id="z27489c3"><path d="M 462 170 C 467 155 473 137 486 120 C 492 110 494 104 489 99 C 481 90 469 81 451 71 C 442 66 432 65 423 70 C 416 73 417 78 421 85 C 429 102 426 134 415 179 C 408 206 408 206 404 220 C 393 260 386 284 387 293 C 387 301 392 302 401 295 C 411 285 425 259 443 217 C 456 186 456 186 462 170 Z"/></clipPath>
    <clipPath id="z27489c4"><path d="M 192 356 C 187 353 174 351 156 350 C 148 349 145 350 144 353 C 141 356 142 360 148 370 C 161 389 175 418 187 457 C 190 466 194 476 202 484 C 212 494 219 495 221 487 C 221 482 223 475 222 469 C 220 460 218 451 217 443 C 214 431 203 388 202 377 C 200 369 199 359 192 356 Z"/></clipPath>
    <clipPath id="z27489c5"><path d="M 319 431 C 329 402 339 384 349 375 C 360 363 360 351 350 345 C 340 339 329 331 316 323 C 307 316 297 317 289 323 C 275 331 261 338 243 343 C 228 346 211 351 192 356 C 185 358 195 380 202 377 C 204 375 226 369 270 360 C 296 354 296 370 292 387 C 289 397 286 409 282 423 C 278 435 314 443 319 431 Z"/></clipPath>
    <clipPath id="z27489c6"><path d="M 222 469 C 237 465 271 458 324 451 C 328 450 332 447 333 443 C 333 440 328 436 319 431 C 309 423 294 419 282 423 C 269 428 233 437 217 443 C 209 446 213 471 222 469 Z"/></clipPath>
    <clipPath id="z27489c7"><path d="M 413 327 C 406 324 395 323 382 322 C 376 321 374 322 372 324 C 369 326 369 330 374 339 C 386 358 398 384 407 420 C 409 428 413 438 420 445 C 428 453 434 454 436 448 C 436 445 437 440 437 437 C 436 429 437 421 435 414 C 428 389 424 359 422 348 C 421 340 420 330 413 327 Z"/></clipPath>
    <clipPath id="z27489c8"><path d="M 533 399 C 541 372 551 356 561 347 C 572 335 571 323 561 317 C 528 298 511 291 509 292 C 506 292 503 292 500 295 C 485 304 456 315 413 327 C 406 330 415 349 422 348 C 435 345 466 336 484 333 C 511 327 509 341 505 359 C 501 371 497 384 493 398 C 488 410 530 412 533 399 Z"/></clipPath>
    <clipPath id="z27489c9"><path d="M 437 437 C 456 437 513 425 544 422 C 548 421 551 419 552 415 C 552 411 545 405 533 399 C 522 392 506 395 493 398 C 471 404 451 409 435 414 C 427 416 429 437 437 437 Z"/></clipPath>
    <clipPath id="z27489c10"><path d="M 230 607 C 255 579 275 547 299 518 C 304 511 305 504 304 501 C 302 493 292 489 280 486 C 264 481 254 480 248 483 C 244 484 241 487 240 495 C 228 564 126 667 51 734 C 40 743 42 746 57 743 C 89 735 159 682 201 638 C 220 617 220 617 230 607 Z"/></clipPath>
    <clipPath id="z27489c11"><path d="M 253 801 C 253 731 252 686 257 667 C 260 650 260 639 255 634 C 244 622 236 614 230 607 C 221 596 196 625 201 638 C 219 686 207 781 196 877 C 193 899 185 922 207 960 C 209 965 211 970 216 974 C 225 982 235 979 242 964 C 251 941 254 915 254 889 C 253 864 253 843 253 823 C 253 808 253 808 253 801 Z"/></clipPath>
    <clipPath id="z27489c12"><path d="M 370 470 C 388 492 400 506 411 507 C 414 507 419 504 422 499 C 424 493 425 482 422 471 C 418 457 399 449 370 440 C 362 437 358 437 356 438 C 353 439 352 441 353 448 C 353 451 359 458 370 470 Z"/></clipPath>
    <clipPath id="z27489c13"><path d="M 407 551 C 469 536 500 527 503 526 C 506 523 508 518 506 515 C 503 509 494 506 482 504 C 468 501 456 503 444 508 C 425 515 405 521 384 527 C 361 532 336 535 308 540 C 292 542 288 548 302 555 C 320 564 345 565 373 559 C 396 554 396 554 407 551 Z"/></clipPath>
    <clipPath id="z27489c14"><path d="M 429 636 C 441 632 453 628 466 625 C 480 621 490 617 493 614 C 496 610 495 606 494 603 C 490 598 483 595 470 593 C 457 591 444 596 431 601 C 400 612 400 612 384 618 C 365 624 335 630 311 635 C 294 638 292 644 305 651 C 324 659 362 654 385 648 C 414 640 414 640 429 636 Z"/></clipPath>
    <clipPath id="z27489c15"><path d="M 426 710 C 437 707 448 703 462 700 C 476 696 485 692 488 690 C 492 686 491 682 490 679 C 486 674 478 669 466 668 C 452 666 438 672 427 676 C 399 685 399 685 385 690 C 345 703 319 705 307 708 C 292 710 289 717 301 723 C 315 730 341 731 386 720 C 413 713 413 713 426 710 Z"/></clipPath>
    <clipPath id="z27489c16"><path d="M 423 775 C 423 752 424 730 426 710 C 427 687 427 687 427 676 C 427 662 427 648 429 636 C 430 613 430 613 431 601 C 432 590 436 577 430 570 C 422 562 414 555 407 551 C 397 545 367 549 373 559 C 379 569 383 589 384 619 C 385 638 385 638 385 648 C 385 676 385 676 385 690 C 386 710 386 710 386 720 C 386 762 386 762 386 783 C 386 796 423 788 423 775 Z"/></clipPath>
    <clipPath id="z27489c17"><path d="M 386 783 C 358 789 332 792 308 795 C 290 796 271 797 253 801 C 246 802 247 819 253 823 C 267 833 281 836 295 834 C 371 819 442 807 509 802 C 515 801 522 800 525 793 C 527 786 518 781 508 775 C 489 765 463 766 423 775 C 398 780 398 780 386 783 Z"/></clipPath>
    <clipPath id="z27489c18"><path d="M 658 334 C 677 293 691 262 718 189 C 727 162 735 146 743 132 C 747 123 746 110 742 104 C 737 96 723 87 703 79 C 682 71 667 68 656 72 C 644 75 642 85 652 97 C 679 134 656 244 576 427 C 574 430 573 433 571 438 C 567 446 564 452 564 456 C 563 462 567 464 576 461 C 590 455 615 422 646 359 C 654 342 654 342 658 334 Z"/></clipPath>
    <clipPath id="z27489c19"><path d="M 646 359 C 658 369 677 368 704 358 C 748 340 777 326 787 333 C 798 339 795 351 792 359 C 790 362 784 390 762 439 C 758 446 757 451 761 455 C 763 457 767 454 776 447 C 833 395 876 362 904 349 C 910 345 913 342 913 338 C 912 328 902 321 885 313 C 836 289 806 284 787 294 C 754 309 710 320 658 334 C 649 337 639 353 646 359 Z"/></clipPath>
    <clipPath id="z27489c20"><path d="M 682 640 C 694 589 702 557 710 545 C 717 533 713 524 703 518 C 691 509 680 503 672 498 C 655 488 643 485 630 490 C 621 492 617 499 623 509 C 665 589 597 778 491 842 C 480 848 470 856 460 864 C 451 870 450 874 459 876 C 467 876 483 872 508 864 C 601 829 658 735 674 673 C 679 651 679 651 682 640 Z"/></clipPath>
    <clipPath id="z27489c21"><path d="M 674 673 C 732 756 787 837 831 892 C 839 902 849 908 863 908 C 935 904 975 897 982 890 C 984 887 982 883 978 881 C 887 838 812 785 753 722 C 732 699 712 676 682 640 C 674 632 667 664 674 673 Z"/></clipPath>
</defs>
<g id="bg-layer">
    <path class="bg" d="M 443 217 C 451 216 494 211 553 214 C 561 214 567 212 570 207 C 572 201 571 192 563 186 C 535 163 494 163 462 170 C 431 176 431 176 415 179 C 383 185 339 194 304 200 C 279 204 279 204 267 206 C 231 211 182 215 143 222 C 126 224 124 230 136 238 C 192 271 229 246 275 238 C 296 234 296 234 307 232 C 336 226 375 222 404 220 C 430 218 430 218 443 217 Z"/>
    <path class="bg" d="M 304 200 C 302 183 301 168 301 154 C 300 143 296 138 286 134 C 265 125 250 120 239 125 C 229 128 229 137 237 147 C 250 163 261 183 267 206 C 272 227 272 227 275 238 C 281 265 287 284 295 291 C 301 296 307 295 309 290 C 311 282 309 262 307 232 C 305 211 305 211 304 200 Z"/>
    <path class="bg" d="M 462 170 C 467 155 473 137 486 120 C 492 110 494 104 489 99 C 481 90 469 81 451 71 C 442 66 432 65 423 70 C 416 73 417 78 421 85 C 429 102 426 134 415 179 C 408 206 408 206 404 220 C 393 260 386 284 387 293 C 387 301 392 302 401 295 C 411 285 425 259 443 217 C 456 186 456 186 462 170 Z"/>
    <path class="bg" d="M 192 356 C 187 353 174 351 156 350 C 148 349 145 350 144 353 C 141 356 142 360 148 370 C 161 389 175 418 187 457 C 190 466 194 476 202 484 C 212 494 219 495 221 487 C 221 482 223 475 222 469 C 220 460 218 451 217 443 C 214 431 203 388 202 377 C 200 369 199 359 192 356 Z"/>
    <path class="bg" d="M 319 431 C 329 402 339 384 349 375 C 360 363 360 351 350 345 C 340 339 329 331 316 323 C 307 316 297 317 289 323 C 275 331 261 338 243 343 C 228 346 211 351 192 356 C 185 358 195 380 202 377 C 204 375 226 369 270 360 C 296 354 296 370 292 387 C 289 397 286 409 282 423 C 278 435 314 443 319 431 Z"/>
    <path class="bg" d="M 222 469 C 237 465 271 458 324 451 C 328 450 332 447 333 443 C 333 440 328 436 319 431 C 309 423 294 419 282 423 C 269 428 233 437 217 443 C 209 446 213 471 222 469 Z"/>
    <path class="bg" d="M 413 327 C 406 324 395 323 382 322 C 376 321 374 322 372 324 C 369 326 369 330 374 339 C 386 358 398 384 407 420 C 409 428 413 438 420 445 C 428 453 434 454 436 448 C 436 445 437 440 437 437 C 436 429 437 421 435 414 C 428 389 424 359 422 348 C 421 340 420 330 413 327 Z"/>
    <path class="bg" d="M 533 399 C 541 372 551 356 561 347 C 572 335 571 323 561 317 C 528 298 511 291 509 292 C 506 292 503 292 500 295 C 485 304 456 315 413 327 C 406 330 415 349 422 348 C 435 345 466 336 484 333 C 511 327 509 341 505 359 C 501 371 497 384 493 398 C 488 410 530 412 533 399 Z"/>
    <path class="bg" d="M 437 437 C 456 437 513 425 544 422 C 548 421 551 419 552 415 C 552 411 545 405 533 399 C 522 392 506 395 493 398 C 471 404 451 409 435 414 C 427 416 429 437 437 437 Z"/>
    <path class="bg" d="M 230 607 C 255 579 275 547 299 518 C 304 511 305 504 304 501 C 302 493 292 489 280 486 C 264 481 254 480 248 483 C 244 484 241 487 240 495 C 228 564 126 667 51 734 C 40 743 42 746 57 743 C 89 735 159 682 201 638 C 220 617 220 617 230 607 Z"/>
    <path class="bg" d="M 253 801 C 253 731 252 686 257 667 C 260 650 260 639 255 634 C 244 622 236 614 230 607 C 221 596 196 625 201 638 C 219 686 207 781 196 877 C 193 899 185 922 207 960 C 209 965 211 970 216 974 C 225 982 235 979 242 964 C 251 941 254 915 254 889 C 253 864 253 843 253 823 C 253 808 253 808 253 801 Z"/>
    <path class="bg" d="M 370 470 C 388 492 400 506 411 507 C 414 507 419 504 422 499 C 424 493 425 482 422 471 C 418 457 399 449 370 440 C 362 437 358 437 356 438 C 353 439 352 441 353 448 C 353 451 359 458 370 470 Z"/>
    <path class="bg" d="M 407 551 C 469 536 500 527 503 526 C 506 523 508 518 506 515 C 503 509 494 506 482 504 C 468 501 456 503 444 508 C 425 515 405 521 384 527 C 361 532 336 535 308 540 C 292 542 288 548 302 555 C 320 564 345 565 373 559 C 396 554 396 554 407 551 Z"/>
    <path class="bg" d="M 429 636 C 441 632 453 628 466 625 C 480 621 490 617 493 614 C 496 610 495 606 494 603 C 490 598 483 595 470 593 C 457 591 444 596 431 601 C 400 612 400 612 384 618 C 365 624 335 630 311 635 C 294 638 292 644 305 651 C 324 659 362 654 385 648 C 414 640 414 640 429 636 Z"/>
    <path class="bg" d="M 426 710 C 437 707 448 703 462 700 C 476 696 485 692 488 690 C 492 686 491 682 490 679 C 486 674 478 669 466 668 C 452 666 438 672 427 676 C 399 685 399 685 385 690 C 345 703 319 705 307 708 C 292 710 289 717 301 723 C 315 730 341 731 386 720 C 413 713 413 713 426 710 Z"/>
    <path class="bg" d="M 423 775 C 423 752 424 730 426 710 C 427 687 427 687 427 676 C 427 662 427 648 429 636 C 430 613 430 613 431 601 C 432 590 436 577 430 570 C 422 562 414 555 407 551 C 397 545 367 549 373 559 C 379 569 383 589 384 619 C 385 638 385 638 385 648 C 385 676 385 676 385 690 C 386 710 386 710 386 720 C 386 762 386 762 386 783 C 386 796 423 788 423 775 Z"/>
    <path class="bg" d="M 386 783 C 358 789 332 792 308 795 C 290 796 271 797 253 801 C 246 802 247 819 253 823 C 267 833 281 836 295 834 C 371 819 442 807 509 802 C 515 801 522 800 525 793 C 527 786 518 781 508 775 C 489 765 463 766 423 775 C 398 780 398 780 386 783 Z"/>
    <path class="bg" d="M 658 334 C 677 293 691 262 718 189 C 727 162 735 146 743 132 C 747 123 746 110 742 104 C 737 96 723 87 703 79 C 682 71 667 68 656 72 C 644 75 642 85 652 97 C 679 134 656 244 576 427 C 574 430 573 433 571 438 C 567 446 564 452 564 456 C 563 462 567 464 576 461 C 590 455 615 422 646 359 C 654 342 654 342 658 334 Z"/>
    <path class="bg" d="M 646 359 C 658 369 677 368 704 358 C 748 340 777 326 787 333 C 798 339 795 351 792 359 C 790 362 784 390 762 439 C 758 446 757 451 761 455 C 763 457 767 454 776 447 C 833 395 876 362 904 349 C 910 345 913 342 913 338 C 912 328 902 321 885 313 C 836 289 806 284 787 294 C 754 309 710 320 658 334 C 649 337 639 353 646 359 Z"/>
    <path class="bg" d="M 682 640 C 694 589 702 557 710 545 C 717 533 713 524 703 518 C 691 509 680 503 672 498 C 655 488 643 485 630 490 C 621 492 617 499 623 509 C 665 589 597 778 491 842 C 480 848 470 856 460 864 C 451 870 450 874 459 876 C 467 876 483 872 508 864 C 601 829 658 735 674 673 C 679 651 679 651 682 640 Z"/>
    <path class="bg" d="M 674 673 C 732 756 787 837 831 892 C 839 902 849 908 863 908 C 935 904 975 897 982 890 C 984 887 982 883 978 881 C 887 838 812 785 753 722 C 732 699 712 676 682 640 C 674 632 667 664 674 673 Z"/>
</g>
<g id="anim-layer">
    <path style="--d:1s; stroke:#FF4444;" pathLength="3333" clip-path="url(#z27489c1)" d="M 138 231 L 496 189 L 566 200"/>
    <path style="--d:2s; stroke:#FF4444;" pathLength="3333" clip-path="url(#z27489c2)" d="M 240 133 L 275 157 L 299 289"/>
    <path style="--d:3s; stroke:#FF4444;" pathLength="3333" clip-path="url(#z27489c3)" d="M 425 76 L 458 114 L 393 292"/>
    <path style="--d:4s; stroke:#FF4444;" pathLength="3333" clip-path="url(#z27489c4)" d="M 153 359 L 179 377 L 216 483"/>
    <path style="--d:5s; stroke:#FF4444;" pathLength="3333" clip-path="url(#z27489c5)" d="M 194 363 L 303 342 L 325 366 L 295 432"/>
    <path style="--d:6s; stroke:#FF4444;" pathLength="3333" clip-path="url(#z27489c6)" d="M 216 455 L 328 442"/>
    <path style="--d:7s; stroke:#FF4444;" pathLength="3333" clip-path="url(#z27489c7)" d="M 377 328 L 402 347 L 428 441"/>
    <path style="--d:8s; stroke:#FF4444;" pathLength="3333" clip-path="url(#z27489c8)" d="M 416 333 L 522 319 L 537 340 L 509 405"/>
    <path style="--d:9s; stroke:#FF4444;" pathLength="3333" clip-path="url(#z27489c9)" d="M 433 423 L 544 414"/>
    <path style="--d:10s; stroke:#FF4444;" pathLength="3333" clip-path="url(#z27489c10)" d="M 248 488 L 266 519 L 222 583 L 52 739"/>
    <path style="--d:11s; stroke:#FF4444;" pathLength="3333" clip-path="url(#z27489c11)" d="M 221 610 L 226 972"/>
    <path style="--d:12s; stroke:#FF4444;" pathLength="3333" clip-path="url(#z27489c12)" d="M 361 446 L 417 501"/>
    <path style="--d:13s; stroke:#FF4444;" pathLength="3333" clip-path="url(#z27489c13)" d="M 303 547 L 502 517"/>
    <path style="--d:14s; stroke:#FF4444;" pathLength="3333" clip-path="url(#z27489c14)" d="M 303 642 L 488 606"/>
    <path style="--d:15s; stroke:#FF4444;" pathLength="3333" clip-path="url(#z27489c15)" d="M 301 714 L 484 682"/>
    <path style="--d:16s; stroke:#FF4444;" pathLength="3333" clip-path="url(#z27489c16)" d="M 378 555 L 408 589 L 400 787"/>
    <path style="--d:17s; stroke:#FF4444;" pathLength="3333" clip-path="url(#z27489c17)" d="M 253 808 L 520 791"/>
    <path style="--d:18s; stroke:#000;" pathLength="3333" clip-path="url(#z27489c18)" d="M 653 81 L 692 105 L 701 142 L 571 454"/>
    <path style="--d:19s; stroke:#000;" pathLength="3333" clip-path="url(#z27489c19)" d="M 649 354 L 790 310 L 825 320 L 858 357 L 766 447"/>
    <path style="--d:20s; stroke:#000;" pathLength="3333" clip-path="url(#z27489c20)" d="M 628 499 L 674 545 L 631 709 L 552 818 L 461 870"/>
    <path style="--d:21s; stroke:#000;" pathLength="3333" clip-path="url(#z27489c21)" d="M 680 651 L 859 862 L 975 887"/>
</g>
</svg>