<svg id="z27506" class="acjk" viewBox="0 0 1024 1024" xmlns="http://www.w3.org/2000/svg">

<style>
<![CDATA[
@keyframes zk { to { stroke-dashoffset:0; } }
svg.acjk path[clip-path] {
    --t:0.8s;
    animation:zk var(--t) linear forwards var(--d);
    stroke-dasharray:3337;
    stroke-dashoffset:3339;
    stroke-width:128;
    stroke-linecap:round;
    fill:none;
}
/* Low opacity for background improves visual overlap at intersections */
svg.acjk .bg { fill:#ccc; opacity: 0.5; } 
]]>
</style>
<defs>
    <clipPath id="z27506c1"><path d="M 533 267 C 535 230 538 194 542 159 C 544 140 544 140 545 130 C 546 112 551 96 556 81 C 557 74 553 65 540 57 C 520 45 501 39 486 37 C 475 35 468 36 464 42 C 459 46 458 54 465 63 C 480 83 490 154 492 276 C 492 290 533 281 533 267 Z"/></clipPath>
    <clipPath id="z27506c2"><path d="M 542 159 C 570 165 597 163 625 155 C 690 134 724 124 726 123 C 730 118 731 112 728 107 C 723 100 711 92 691 92 C 663 90 627 114 545 130 C 535 132 532 157 542 159 Z"/></clipPath>
    <clipPath id="z27506c3"><path d="M 391 299 C 381 214 380 176 376 171 C 364 156 334 147 319 144 C 308 141 301 142 297 147 C 292 151 291 159 298 168 C 310 184 329 230 351 308 C 354 321 394 312 391 299 Z"/></clipPath>
    <clipPath id="z27506c4"><path d="M 536 306 C 600 295 679 286 775 280 C 787 279 795 276 798 270 C 801 262 796 253 785 246 C 749 222 710 219 669 232 C 630 243 585 255 533 267 C 506 273 506 273 492 276 C 463 282 431 290 391 299 C 364 305 364 305 351 308 C 296 320 240 329 182 342 C 169 344 167 350 179 361 C 196 377 220 383 247 375 C 340 344 453 319 487 314 C 520 309 520 309 536 306 Z"/></clipPath>
    <clipPath id="z27506c5"><path d="M 579 443 C 620 432 660 424 698 418 C 714 415 719 409 713 400 C 706 390 693 383 675 380 C 642 374 636 382 577 399 C 542 409 542 409 524 414 C 451 434 338 459 263 475 C 252 477 265 506 276 506 C 299 509 456 472 534 454 C 564 447 564 447 579 443 Z"/></clipPath>
    <clipPath id="z27506c6"><path d="M 263 475 C 237 458 215 453 198 461 C 189 464 187 471 193 479 C 209 502 215 542 213 600 C 207 709 134 810 69 870 C 62 876 63 883 70 881 C 184 841 252 708 263 600 C 267 556 272 515 276 506 C 280 496 272 482 263 475 Z"/></clipPath>
    <clipPath id="z27506c7"><path d="M 414 575 C 479 555 511 543 513 543 C 517 538 518 533 515 529 C 510 522 500 517 485 516 C 468 514 452 518 437 525 C 418 533 398 541 378 548 C 355 554 330 559 304 565 C 285 568 282 576 297 584 C 327 600 357 591 380 585 C 403 578 403 578 414 575 Z"/></clipPath>
    <clipPath id="z27506c8"><path d="M 380 585 C 386 613 388 681 383 720 C 380 740 383 759 400 783 C 405 792 418 771 421 761 C 426 750 428 740 429 720 C 430 592 440 599 414 575 C 406 567 378 573 380 585 Z"/></clipPath>
    <clipPath id="z27506c9"><path d="M 291 639 C 285 667 277 695 267 722 C 260 737 263 753 274 769 C 278 775 286 775 295 768 C 304 759 309 746 313 730 C 317 709 318 691 317 675 C 315 659 314 645 308 635 C 306 631 302 629 299 630 C 294 630 291 634 291 639 Z"/></clipPath>
    <clipPath id="z27506c10"><path d="M 203 925 C 198 927 196 931 200 934 C 203 936 209 936 216 935 C 322 910 444 809 504 721 C 513 706 524 693 536 681 C 540 676 542 670 541 665 C 538 658 529 648 514 635 C 503 626 495 621 489 621 C 480 621 475 626 476 635 C 478 674 457 719 420 761 C 407 776 407 776 400 783 C 362 824 275 888 203 925 Z"/></clipPath>
    <clipPath id="z27506c11"><path d="M 763 879 C 818 934 882 979 933 986 C 950 988 960 970 955 948 C 949 923 944 861 944 758 C 943 748 941 743 938 743 C 933 742 931 747 929 756 C 921 780 912 804 905 828 C 894 858 883 875 873 875 C 856 875 832 859 800 832 C 761 797 727 756 697 716 C 686 700 676 686 667 672 C 622 599 592 520 581 442 C 578 426 577 413 577 399 C 577 322 602 334 536 306 C 521 300 477 301 487 314 C 505 334 510 359 524 414 C 531 441 531 441 534 454 C 558 550 588 632 633 711 C 641 725 651 741 661 756 C 689 798 723 839 763 879 Z"/></clipPath>
    <clipPath id="z27506c12"><path d="M 633 711 C 599 749 548 791 501 826 C 494 830 493 837 499 837 C 557 830 635 780 661 756 C 674 743 685 729 697 716 C 733 671 751 641 770 607 C 777 592 786 578 796 566 C 801 558 803 552 800 546 C 796 538 783 527 765 515 C 749 505 740 500 734 502 C 724 504 719 508 720 520 C 721 564 715 600 667 671 C 657 685 644 697 633 711 Z"/></clipPath>
    <clipPath id="z27506c13"><path d="M 758 377 C 774 388 792 401 810 417 C 818 424 828 427 839 426 C 845 424 850 420 853 412 C 855 402 853 387 845 370 C 834 349 806 339 749 332 C 738 330 730 331 728 333 C 724 335 723 341 726 349 C 727 355 739 364 758 377 Z"/></clipPath>
</defs>
<g id="bg-layer">
    <path class="bg" d="M 533 267 C 535 230 538 194 542 159 C 544 140 544 140 545 130 C 546 112 551 96 556 81 C 557 74 553 65 540 57 C 520 45 501 39 486 37 C 475 35 468 36 464 42 C 459 46 458 54 465 63 C 480 83 490 154 492 276 C 492 290 533 281 533 267 Z"/>
    <path class="bg" d="M 542 159 C 570 165 597 163 625 155 C 690 134 724 124 726 123 C 730 118 731 112 728 107 C 723 100 711 92 691 92 C 663 90 627 114 545 130 C 535 132 532 157 542 159 Z"/>
    <path class="bg" d="M 391 299 C 381 214 380 176 376 171 C 364 156 334 147 319 144 C 308 141 301 142 297 147 C 292 151 291 159 298 168 C 310 184 329 230 351 308 C 354 321 394 312 391 299 Z"/>
    <path class="bg" d="M 536 306 C 600 295 679 286 775 280 C 787 279 795 276 798 270 C 801 262 796 253 785 246 C 749 222 710 219 669 232 C 630 243 585 255 533 267 C 506 273 506 273 492 276 C 463 282 431 290 391 299 C 364 305 364 305 351 308 C 296 320 240 329 182 342 C 169 344 167 350 179 361 C 196 377 220 383 247 375 C 340 344 453 319 487 314 C 520 309 520 309 536 306 Z"/>
    <path class="bg" d="M 579 443 C 620 432 660 424 698 418 C 714 415 719 409 713 400 C 706 390 693 383 675 380 C 642 374 636 382 577 399 C 542 409 542 409 524 414 C 451 434 338 459 263 475 C 252 477 265 506 276 506 C 299 509 456 472 534 454 C 564 447 564 447 579 443 Z"/>
    <path class="bg" d="M 263 475 C 237 458 215 453 198 461 C 189 464 187 471 193 479 C 209 502 215 542 213 600 C 207 709 134 810 69 870 C 62 876 63 883 70 881 C 184 841 252 708 263 600 C 267 556 272 515 276 506 C 280 496 272 482 263 475 Z"/>
    <path class="bg" d="M 414 575 C 479 555 511 543 513 543 C 517 538 518 533 515 529 C 510 522 500 517 485 516 C 468 514 452 518 437 525 C 418 533 398 541 378 548 C 355 554 330 559 304 565 C 285 568 282 576 297 584 C 327 600 357 591 380 585 C 403 578 403 578 414 575 Z"/>
    <path class="bg" d="M 380 585 C 386 613 388 681 383 720 C 380 740 383 759 400 783 C 405 792 418 771 421 761 C 426 750 428 740 429 720 C 430 592 440 599 414 575 C 406 567 378 573 380 585 Z"/>
    <path class="bg" d="M 291 639 C 285 667 277 695 267 722 C 260 737 263 753 274 769 C 278 775 286 775 295 768 C 304 759 309 746 313 730 C 317 709 318 691 317 675 C 315 659 314 645 308 635 C 306 631 302 629 299 630 C 294 630 291 634 291 639 Z"/>
    <path class="bg" d="M 203 925 C 198 927 196 931 200 934 C 203 936 209 936 216 935 C 322 910 444 809 504 721 C 513 706 524 693 536 681 C 540 676 542 670 541 665 C 538 658 529 648 514 635 C 503 626 495 621 489 621 C 480 621 475 626 476 635 C 478 674 457 719 420 761 C 407 776 407 776 400 783 C 362 824 275 888 203 925 Z"/>
    <path class="bg" d="M 763 879 C 818 934 882 979 933 986 C 950 988 960 970 955 948 C 949 923 944 861 944 758 C 943 748 941 743 938 743 C 933 742 931 747 929 756 C 921 780 912 804 905 828 C 894 858 883 875 873 875 C 856 875 832 859 800 832 C 761 797 727 756 697 716 C 686 700 676 686 667 672 C 622 599 592 520 581 442 C 578 426 577 413 577 399 C 577 322 602 334 536 306 C 521 300 477 301 487 314 C 505 334 510 359 524 414 C 531 441 531 441 534 454 C 558 550 588 632 633 711 C 641 725 651 741 661 756 C 689 798 723 839 763 879 Z"/>
    <path class="bg" d="M 633 711 C 599 749 548 791 501 826 C 494 830 493 837 499 837 C 557 830 635 780 661 756 C 674 743 685 729 697 716 C 733 671 751 641 770 607 C 777 592 786 578 796 566 C 801 558 803 552 800 546 C 796 538 783 527 765 515 C 749 505 740 500 734 502 C 724 504 719 508 720 520 C 721 564 715 600 667 671 C 657 685 644 697 633 711 Z"/>
    <path class="bg" d="M 758 377 C 774 388 792 401 810 417 C 818 424 828 427 839 426 C 845 424 850 420 853 412 C 855 402 853 387 845 370 C 834 349 806 339 749 332 C 738 330 730 331 728 333 C 724 335 723 341 726 349 C 727 355 739 364 758 377 Z"/>
</g>
<g id="anim-layer">
    <path style="--d:1s; stroke:#FF4444;" pathLength="3333" clip-path="url(#z27506c1)" d="M 466 44 L 516 87 L 506 281"/>
    <path style="--d:2s; stroke:#FF4444;" pathLength="3333" clip-path="url(#z27506c2)" d="M 539 148 L 725 110"/>
    <path style="--d:3s; stroke:#FF4444;" pathLength="3333" clip-path="url(#z27506c3)" d="M 301 152 L 346 189 L 372 311"/>
    <path style="--d:4s; stroke:#FF4444;" pathLength="3333" clip-path="url(#z27506c4)" d="M 178 348 L 241 353 L 696 256 L 794 263"/>
    <path style="--d:5s; stroke:#000;" pathLength="3333" clip-path="url(#z27506c5)" d="M 268 484 L 709 405"/>
    <path style="--d:6s; stroke:#000;" pathLength="3333" clip-path="url(#z27506c6)" d="M 196 466 L 242 510 L 224 672 L 171 779 L 72 875"/>
    <path style="--d:7s; stroke:#000;" pathLength="3333" clip-path="url(#z27506c7)" d="M 295 574 L 512 534"/>
    <path style="--d:8s; stroke:#000;" pathLength="3333" clip-path="url(#z27506c8)" d="M 390 576 L 408 615 L 403 777"/>
    <path style="--d:9s; stroke:#000;" pathLength="3333" clip-path="url(#z27506c9)" d="M 299 635 L 280 768"/>
    <path style="--d:10s; stroke:#000;" pathLength="3333" clip-path="url(#z27506c10)" d="M 486 624 L 505 674 L 438 770 L 322 870 L 207 930"/>
    <path style="--d:11s; stroke:#000;" pathLength="3333" clip-path="url(#z27506c11)" d="M 492 309 L 546 349 L 570 503 L 622 640 L 765 840 L 856 911 L 921 935 L 937 753"/>
    <path style="--d:12s; stroke:#000;" pathLength="3333" clip-path="url(#z27506c12)" d="M 729 511 L 757 564 L 686 689 L 505 830"/>
    <path style="--d:13s; stroke:#000;" pathLength="3333" clip-path="url(#z27506c13)" d="M 730 337 L 845 418"/>
</g>
</svg>