<svg id="z27602" class="acjk" viewBox="0 0 1024 1024" xmlns="http://www.w3.org/2000/svg">

<style>
<![CDATA[
@keyframes zk { to { stroke-dashoffset:0; } }
svg.acjk path[clip-path] {
    --t:0.8s;
    animation:zk var(--t) linear forwards var(--d);
    stroke-dasharray:3337;
    stroke-dashoffset:3339;
    stroke-width:128;
    stroke-linecap:round;
    fill:none;
}
/* Low opacity for background improves visual overlap at intersections */
svg.acjk .bg { fill:#ccc; opacity: 0.5; } 
]]>
</style>
<defs>
    <clipPath id="z27602c1"><path d="M 550 175 Q 712 147 717 142 Q 726 135 722 127 Q 716 115 690 108 Q 663 101 635 110 Q 595 120 555 131 C 514 140 514 140 494 144 Q 421 154 338 159 Q 304 163 328 179 Q 361 204 416 194 Q 455 188 495 183 C 532 178 532 178 550 175 Z"/></clipPath>
    <clipPath id="z27602c2"><path d="M 540 278 Q 567 271 668 258 Q 678 259 685 248 Q 686 238 666 228 Q 639 207 553 235 Q 549 235 544 237 C 511 245 511 245 495 249 Q 387 264 375 266 Q 350 270 370 285 Q 397 304 438 298 Q 463 292 495 286 C 525 281 525 281 540 278 Z"/></clipPath>
    <clipPath id="z27602c3"><path d="M 533 357 Q 536 317 540 278 C 543 251 543 251 544 237 Q 545 206 550 175 C 553 146 553 146 555 131 Q 556 118 560 108 Q 564 95 567 83 Q 571 73 552 59 Q 519 40 497 36 Q 481 32 474 41 Q 467 48 474 62 Q 493 89 494 144 C 495 170 495 170 495 183 Q 495 214 495 249 C 495 274 495 274 495 286 Q 494 323 493 363 C 493 376 533 370 533 357 Z"/></clipPath>
    <clipPath id="z27602c4"><path d="M 493 363 Q 373 381 235 400 Q 216 401 230 417 Q 243 429 259 434 Q 278 438 292 434 Q 481 376 793 376 Q 811 375 815 367 Q 819 357 805 345 Q 760 311 724 319 Q 652 335 533 357 C 506 361 506 361 493 363 Z"/></clipPath>
    <clipPath id="z27602c5"><path d="M 402 462 Q 389 447 369 438 Q 350 428 345 439 Q 339 448 347 458 Q 369 494 344 601 C 337 623 337 623 334 634 Q 310 703 264 748 Q 245 761 248 778 Q 252 794 270 811 Q 286 827 309 809 Q 378 761 607 783 Q 614 783 622 785 C 659 791 659 791 678 794 Q 715 798 753 810 Q 771 817 784 811 Q 797 807 791 792 Q 784 773 763 758 Q 754 746 686 742 C 649 741 649 741 630 740 Q 527 734 353 749 Q 337 750 343 731 Q 362 682 379 629 C 386 608 386 608 389 597 Q 413 507 415 496 C 417 484 409 472 402 462 Z"/></clipPath>
    <clipPath id="z27602c6"><path d="M 703 567 Q 709 516 721 503 Q 740 479 727 465 Q 703 443 664 428 Q 649 421 552 444 Q 434 459 402 462 C 390 464 403 498 415 496 Q 458 492 588 468 Q 616 464 634 477 Q 646 484 645 521 Q 644 548 643 574 C 642 601 642 601 642 614 Q 638 690 630 740 C 625 770 625 770 622 785 Q 613 831 605 849 Q 595 867 571 861 Q 504 851 508 846 Q 477 839 502 864 Q 539 898 566 937 Q 584 961 599 951 Q 665 909 678 794 C 683 759 683 759 686 742 Q 693 667 698 613 C 701 582 701 582 703 567 Z"/></clipPath>
    <clipPath id="z27602c7"><path d="M 472 524 Q 509 578 524 581 Q 534 582 542 569 Q 543 559 539 540 Q 523 513 478 502 Q 471 501 469 509 Q 468 516 472 524 Z"/></clipPath>
    <clipPath id="z27602c8"><path d="M 698 613 Q 768 613 945 621 Q 967 621 973 612 Q 980 599 962 583 Q 898 531 845 548 Q 782 555 703 567 C 663 572 663 572 643 574 Q 580 580 508 587 Q 450 591 389 597 C 359 600 359 600 344 601 Q 214 610 71 620 Q 47 621 64 641 Q 79 657 98 664 Q 122 671 140 667 Q 233 645 334 634 C 364 631 364 631 379 629 Q 406 625 434 624 Q 522 614 642 614 C 679 613 679 613 698 613 Z"/></clipPath>
    <clipPath id="z27602c9"><path d="M 455 657 Q 485 720 507 723 Q 517 727 527 712 Q 530 702 525 682 Q 513 654 463 635 Q 456 632 453 641 Q 450 648 455 657 Z"/></clipPath>
</defs>
<g id="bg-layer">
    <path class="bg" d="M 550 175 Q 712 147 717 142 Q 726 135 722 127 Q 716 115 690 108 Q 663 101 635 110 Q 595 120 555 131 C 514 140 514 140 494 144 Q 421 154 338 159 Q 304 163 328 179 Q 361 204 416 194 Q 455 188 495 183 C 532 178 532 178 550 175 Z"/>
    <path class="bg" d="M 540 278 Q 567 271 668 258 Q 678 259 685 248 Q 686 238 666 228 Q 639 207 553 235 Q 549 235 544 237 C 511 245 511 245 495 249 Q 387 264 375 266 Q 350 270 370 285 Q 397 304 438 298 Q 463 292 495 286 C 525 281 525 281 540 278 Z"/>
    <path class="bg" d="M 533 357 Q 536 317 540 278 C 543 251 543 251 544 237 Q 545 206 550 175 C 553 146 553 146 555 131 Q 556 118 560 108 Q 564 95 567 83 Q 571 73 552 59 Q 519 40 497 36 Q 481 32 474 41 Q 467 48 474 62 Q 493 89 494 144 C 495 170 495 170 495 183 Q 495 214 495 249 C 495 274 495 274 495 286 Q 494 323 493 363 C 493 376 533 370 533 357 Z"/>
    <path class="bg" d="M 493 363 Q 373 381 235 400 Q 216 401 230 417 Q 243 429 259 434 Q 278 438 292 434 Q 481 376 793 376 Q 811 375 815 367 Q 819 357 805 345 Q 760 311 724 319 Q 652 335 533 357 C 506 361 506 361 493 363 Z"/>
    <path class="bg" d="M 402 462 Q 389 447 369 438 Q 350 428 345 439 Q 339 448 347 458 Q 369 494 344 601 C 337 623 337 623 334 634 Q 310 703 264 748 Q 245 761 248 778 Q 252 794 270 811 Q 286 827 309 809 Q 378 761 607 783 Q 614 783 622 785 C 659 791 659 791 678 794 Q 715 798 753 810 Q 771 817 784 811 Q 797 807 791 792 Q 784 773 763 758 Q 754 746 686 742 C 649 741 649 741 630 740 Q 527 734 353 749 Q 337 750 343 731 Q 362 682 379 629 C 386 608 386 608 389 597 Q 413 507 415 496 C 417 484 409 472 402 462 Z"/>
    <path class="bg" d="M 703 567 Q 709 516 721 503 Q 740 479 727 465 Q 703 443 664 428 Q 649 421 552 444 Q 434 459 402 462 C 390 464 403 498 415 496 Q 458 492 588 468 Q 616 464 634 477 Q 646 484 645 521 Q 644 548 643 574 C 642 601 642 601 642 614 Q 638 690 630 740 C 625 770 625 770 622 785 Q 613 831 605 849 Q 595 867 571 861 Q 504 851 508 846 Q 477 839 502 864 Q 539 898 566 937 Q 584 961 599 951 Q 665 909 678 794 C 683 759 683 759 686 742 Q 693 667 698 613 C 701 582 701 582 703 567 Z"/>
    <path class="bg" d="M 472 524 Q 509 578 524 581 Q 534 582 542 569 Q 543 559 539 540 Q 523 513 478 502 Q 471 501 469 509 Q 468 516 472 524 Z"/>
    <path class="bg" d="M 698 613 Q 768 613 945 621 Q 967 621 973 612 Q 980 599 962 583 Q 898 531 845 548 Q 782 555 703 567 C 663 572 663 572 643 574 Q 580 580 508 587 Q 450 591 389 597 C 359 600 359 600 344 601 Q 214 610 71 620 Q 47 621 64 641 Q 79 657 98 664 Q 122 671 140 667 Q 233 645 334 634 C 364 631 364 631 379 629 Q 406 625 434 624 Q 522 614 642 614 C 679 613 679 613 698 613 Z"/>
    <path class="bg" d="M 455 657 Q 485 720 507 723 Q 517 727 527 712 Q 530 702 525 682 Q 513 654 463 635 Q 456 632 453 641 Q 450 648 455 657 Z"/>
</g>
<g id="anim-layer">
    <path style="--d:1s; stroke:#FF4444;" pathLength="3333" clip-path="url(#z27602c1)" d="M 324 167 L 405 175 L 717 129"/>
    <path style="--d:2s; stroke:#FF4444;" pathLength="3333" clip-path="url(#z27602c2)" d="M 369 274 L 679 243"/>
    <path style="--d:3s; stroke:#FF4444;" pathLength="3333" clip-path="url(#z27602c3)" d="M 479 43 L 528 90 L 503 360"/>
    <path style="--d:4s; stroke:#FF4444;" pathLength="3333" clip-path="url(#z27602c4)" d="M 234 408 L 722 348 L 811 358"/>
    <path style="--d:5s; stroke:#000;" pathLength="3333" clip-path="url(#z27602c5)" d="M 353 442 L 383 520 L 300 756 L 313 782 L 562 758 L 735 775 L 787 802"/>
    <path style="--d:6s; stroke:#000;" pathLength="3333" clip-path="url(#z27602c6)" d="M 410 464 L 627 449 L 688 487 L 628 869 L 582 908 L 500 850"/>
    <path style="--d:7s; stroke:#000;" pathLength="3333" clip-path="url(#z27602c7)" d="M 475 510 L 529 575"/>
    <path style="--d:8s; stroke:#000;" pathLength="3333" clip-path="url(#z27602c8)" d="M 66 629 L 120 642 L 863 581 L 970 603"/>
    <path style="--d:9s; stroke:#000;" pathLength="3333" clip-path="url(#z27602c9)" d="M 461 645 L 521 714"/>
</g>
</svg>