<svg id="z27654" class="acjk" viewBox="0 0 1024 1024" xmlns="http://www.w3.org/2000/svg">

<style>
<![CDATA[
@keyframes zk { to { stroke-dashoffset:0; } }
svg.acjk path[clip-path] {
    --t:0.8s;
    animation:zk var(--t) linear forwards var(--d);
    stroke-dasharray:3337;
    stroke-dashoffset:3339;
    stroke-width:128;
    stroke-linecap:round;
    fill:none;
}
/* Low opacity for background improves visual overlap at intersections */
svg.acjk .bg { fill:#ccc; opacity: 0.5; } 
]]>
</style>
<defs>
    <clipPath id="z27654c1"><path d="M 285 304 Q 388 241 421 230 Q 437 226 440 218 Q 441 208 429 198 Q 360 164 331 174 Q 324 178 325 189 Q 326 237 119 368 Q 115 378 122 380 Q 168 365 233 330 Q 237 327 244 325 C 271 311 271 311 285 304 Z"/></clipPath>
    <clipPath id="z27654c2"><path d="M 306 468 Q 414 432 417 430 Q 424 423 420 414 Q 413 404 385 400 Q 349 397 315 417 C 274 433 274 433 253 441 Q 246 442 240 445 Q 188 461 125 473 Q 92 482 118 495 Q 158 514 207 497 Q 229 490 252 485 C 288 474 288 474 306 468 Z"/></clipPath>
    <clipPath id="z27654c3"><path d="M 295 602 Q 349 583 419 567 Q 435 563 436 556 Q 436 543 416 535 Q 388 525 364 533 Q 327 545 296 557 C 265 567 265 567 249 572 Q 120 611 57 623 Q 44 626 42 634 Q 41 646 57 656 Q 102 680 141 662 Q 204 634 249 617 C 280 607 280 607 295 602 Z"/></clipPath>
    <clipPath id="z27654c4"><path d="M 940 814 Q 922 774 908 705 Q 907 687 898 682 Q 889 676 885 699 Q 866 781 853 795 Q 795 855 554 847 Q 424 837 370 811 Q 322 783 313 751 Q 297 708 295 602 C 296 572 296 572 296 557 Q 299 508 306 468 C 312 434 312 434 315 417 Q 319 395 327 380 Q 340 347 320 328 Q 301 313 285 304 C 272 296 239 310 244 325 Q 262 365 253 441 C 252 470 252 470 252 485 Q 251 531 249 572 C 249 602 249 602 249 617 Q 249 719 260 753 Q 276 813 319 846 Q 412 916 720 903 Q 862 896 918 867 Q 952 851 940 814 Z"/></clipPath>
    <clipPath id="z27654c5"><path d="M 515 179 Q 531 197 548 218 Q 558 228 571 230 Q 580 230 585 219 Q 589 207 585 183 Q 579 161 514 140 Q 501 136 496 137 Q 492 140 492 151 Q 493 160 515 179 Z"/></clipPath>
    <clipPath id="z27654c6"><path d="M 693 131 Q 687 143 638 215 Q 629 231 644 227 Q 662 215 731 168 Q 747 153 767 143 Q 786 134 775 119 Q 763 104 740 93 Q 718 83 708 85 Q 696 86 701 99 Q 705 115 693 131 Z"/></clipPath>
    <clipPath id="z27654c7"><path d="M 668 289 Q 780 267 791 259 Q 798 252 794 245 Q 788 236 765 230 Q 741 226 717 234 Q 669 250 618 263 Q 561 276 495 282 Q 465 286 486 301 Q 513 316 546 313 C 569 310 569 310 580 308 Q 608 301 638 296 C 658 291 658 291 668 289 Z"/></clipPath>
    <clipPath id="z27654c8"><path d="M 546 313 Q 549 323 556 467 C 556 478 588 473 588 462 Q 592 318 593 318 C 592 317 592 317 592 317 Q 586 311 580 308 C 570 302 544 302 546 313 Z"/></clipPath>
    <clipPath id="z27654c9"><path d="M 674 448 Q 680 349 687 326 Q 693 313 686 306 Q 677 296 668 289 C 660 283 635 286 638 296 Q 644 302 641 454 C 641 465 674 459 674 448 Z"/></clipPath>
    <clipPath id="z27654c10"><path d="M 460 380 Q 481 413 506 429 Q 516 432 524 423 Q 530 414 529 402 Q 526 384 514 374 Q 481 344 453 350 Q 449 351 450 360 Q 450 367 460 380 Z"/></clipPath>
    <clipPath id="z27654c11"><path d="M 738 330 Q 726 355 698 397 Q 694 404 699 409 Q 705 410 711 405 Q 769 359 799 342 Q 812 338 808 329 Q 802 316 786 303 Q 770 290 751 289 Q 739 290 742 306 Q 745 316 738 330 Z"/></clipPath>
    <clipPath id="z27654c12"><path d="M 556 467 Q 498 474 438 485 Q 420 486 434 501 Q 446 513 462 517 Q 480 521 494 517 Q 617 481 834 482 Q 850 481 855 474 Q 859 464 845 452 Q 796 416 729 436 Q 704 440 674 448 C 652 452 652 452 641 454 Q 631 455 620 457 Q 604 458 588 462 C 567 465 567 465 556 467 Z"/></clipPath>
    <clipPath id="z27654c13"><path d="M 536 558 Q 536 557 535 557 Q 511 547 497 549 Q 487 553 492 562 Q 522 613 502 713 Q 481 741 509 784 Q 510 787 514 790 Q 521 800 528 796 Q 538 787 547 750 C 549 731 549 731 550 722 Q 551 716 551 711 Q 550 686 550 665 C 550 646 550 646 550 637 Q 550 598 552 585 C 554 575 545 563 536 558 Z"/></clipPath>
    <clipPath id="z27654c14"><path d="M 674 738 Q 699 769 717 799 Q 724 812 733 812 Q 746 811 758 785 Q 771 755 766 688 Q 751 589 770 567 Q 777 557 769 548 Q 754 532 711 514 Q 696 507 684 515 Q 639 536 536 558 C 526 560 542 587 552 585 Q 573 582 677 557 Q 693 553 703 560 Q 712 569 712 714 C 712 715 712 715 712 715 Q 708 728 697 725 C 688 725 669 731 674 738 Z"/></clipPath>
    <clipPath id="z27654c15"><path d="M 550 665 Q 617 656 667 651 Q 689 647 681 635 Q 671 622 647 617 Q 602 611 550 637 C 541 640 541 667 550 665 Z"/></clipPath>
    <clipPath id="z27654c16"><path d="M 547 750 Q 619 741 674 738 C 683 738 702 733 697 725 Q 696 724 696 723 Q 689 710 666 704 Q 638 698 550 722 C 541 725 538 752 547 750 Z"/></clipPath>
</defs>
<g id="bg-layer">
    <path class="bg" d="M 285 304 Q 388 241 421 230 Q 437 226 440 218 Q 441 208 429 198 Q 360 164 331 174 Q 324 178 325 189 Q 326 237 119 368 Q 115 378 122 380 Q 168 365 233 330 Q 237 327 244 325 C 271 311 271 311 285 304 Z"/>
    <path class="bg" d="M 306 468 Q 414 432 417 430 Q 424 423 420 414 Q 413 404 385 400 Q 349 397 315 417 C 274 433 274 433 253 441 Q 246 442 240 445 Q 188 461 125 473 Q 92 482 118 495 Q 158 514 207 497 Q 229 490 252 485 C 288 474 288 474 306 468 Z"/>
    <path class="bg" d="M 295 602 Q 349 583 419 567 Q 435 563 436 556 Q 436 543 416 535 Q 388 525 364 533 Q 327 545 296 557 C 265 567 265 567 249 572 Q 120 611 57 623 Q 44 626 42 634 Q 41 646 57 656 Q 102 680 141 662 Q 204 634 249 617 C 280 607 280 607 295 602 Z"/>
    <path class="bg" d="M 940 814 Q 922 774 908 705 Q 907 687 898 682 Q 889 676 885 699 Q 866 781 853 795 Q 795 855 554 847 Q 424 837 370 811 Q 322 783 313 751 Q 297 708 295 602 C 296 572 296 572 296 557 Q 299 508 306 468 C 312 434 312 434 315 417 Q 319 395 327 380 Q 340 347 320 328 Q 301 313 285 304 C 272 296 239 310 244 325 Q 262 365 253 441 C 252 470 252 470 252 485 Q 251 531 249 572 C 249 602 249 602 249 617 Q 249 719 260 753 Q 276 813 319 846 Q 412 916 720 903 Q 862 896 918 867 Q 952 851 940 814 Z"/>
    <path class="bg" d="M 515 179 Q 531 197 548 218 Q 558 228 571 230 Q 580 230 585 219 Q 589 207 585 183 Q 579 161 514 140 Q 501 136 496 137 Q 492 140 492 151 Q 493 160 515 179 Z"/>
    <path class="bg" d="M 693 131 Q 687 143 638 215 Q 629 231 644 227 Q 662 215 731 168 Q 747 153 767 143 Q 786 134 775 119 Q 763 104 740 93 Q 718 83 708 85 Q 696 86 701 99 Q 705 115 693 131 Z"/>
    <path class="bg" d="M 668 289 Q 780 267 791 259 Q 798 252 794 245 Q 788 236 765 230 Q 741 226 717 234 Q 669 250 618 263 Q 561 276 495 282 Q 465 286 486 301 Q 513 316 546 313 C 569 310 569 310 580 308 Q 608 301 638 296 C 658 291 658 291 668 289 Z"/>
    <path class="bg" d="M 546 313 Q 549 323 556 467 C 556 478 588 473 588 462 Q 592 318 593 318 C 592 317 592 317 592 317 Q 586 311 580 308 C 570 302 544 302 546 313 Z"/>
    <path class="bg" d="M 674 448 Q 680 349 687 326 Q 693 313 686 306 Q 677 296 668 289 C 660 283 635 286 638 296 Q 644 302 641 454 C 641 465 674 459 674 448 Z"/>
    <path class="bg" d="M 460 380 Q 481 413 506 429 Q 516 432 524 423 Q 530 414 529 402 Q 526 384 514 374 Q 481 344 453 350 Q 449 351 450 360 Q 450 367 460 380 Z"/>
    <path class="bg" d="M 738 330 Q 726 355 698 397 Q 694 404 699 409 Q 705 410 711 405 Q 769 359 799 342 Q 812 338 808 329 Q 802 316 786 303 Q 770 290 751 289 Q 739 290 742 306 Q 745 316 738 330 Z"/>
    <path class="bg" d="M 556 467 Q 498 474 438 485 Q 420 486 434 501 Q 446 513 462 517 Q 480 521 494 517 Q 617 481 834 482 Q 850 481 855 474 Q 859 464 845 452 Q 796 416 729 436 Q 704 440 674 448 C 652 452 652 452 641 454 Q 631 455 620 457 Q 604 458 588 462 C 567 465 567 465 556 467 Z"/>
    <path class="bg" d="M 536 558 Q 536 557 535 557 Q 511 547 497 549 Q 487 553 492 562 Q 522 613 502 713 Q 481 741 509 784 Q 510 787 514 790 Q 521 800 528 796 Q 538 787 547 750 C 549 731 549 731 550 722 Q 551 716 551 711 Q 550 686 550 665 C 550 646 550 646 550 637 Q 550 598 552 585 C 554 575 545 563 536 558 Z"/>
    <path class="bg" d="M 674 738 Q 699 769 717 799 Q 724 812 733 812 Q 746 811 758 785 Q 771 755 766 688 Q 751 589 770 567 Q 777 557 769 548 Q 754 532 711 514 Q 696 507 684 515 Q 639 536 536 558 C 526 560 542 587 552 585 Q 573 582 677 557 Q 693 553 703 560 Q 712 569 712 714 C 712 715 712 715 712 715 Q 708 728 697 725 C 688 725 669 731 674 738 Z"/>
    <path class="bg" d="M 550 665 Q 617 656 667 651 Q 689 647 681 635 Q 671 622 647 617 Q 602 611 550 637 C 541 640 541 667 550 665 Z"/>
    <path class="bg" d="M 547 750 Q 619 741 674 738 C 683 738 702 733 697 725 Q 696 724 696 723 Q 689 710 666 704 Q 638 698 550 722 C 541 725 538 752 547 750 Z"/>
</g>
<g id="anim-layer">
    <path style="--d:1s; stroke:#FF4444;" pathLength="3333" clip-path="url(#z27654c1)" d="M 335 177 L 385 221 L 123 372"/>
    <path style="--d:2s; stroke:#FF4444;" pathLength="3333" clip-path="url(#z27654c2)" d="M 113 484 L 415 418"/>
    <path style="--d:3s; stroke:#FF4444;" pathLength="3333" clip-path="url(#z27654c3)" d="M 45 634 L 122 638 L 431 552"/>
    <path style="--d:4s; stroke:#FF4444;" pathLength="3333" clip-path="url(#z27654c4)" d="M 250 315 L 293 356 L 272 559 L 282 737 L 350 832 L 551 875 L 817 858 L 900 815 L 895 685"/>
    <path style="--d:5s; stroke:#000;" pathLength="3333" clip-path="url(#z27654c5)" d="M 499 145 L 575 225"/>
    <path style="--d:6s; stroke:#000;" pathLength="3333" clip-path="url(#z27654c6)" d="M 706 89 L 735 133 L 642 219"/>
    <path style="--d:7s; stroke:#000;" pathLength="3333" clip-path="url(#z27654c7)" d="M 482 290 L 789 252"/>
    <path style="--d:8s; stroke:#000;" pathLength="3333" clip-path="url(#z27654c8)" d="M 553 312 L 571 344 L 567 469"/>
    <path style="--d:9s; stroke:#000;" pathLength="3333" clip-path="url(#z27654c9)" d="M 646 292 L 665 326 L 652 457"/>
    <path style="--d:10s; stroke:#000;" pathLength="3333" clip-path="url(#z27654c10)" d="M 458 357 L 519 424"/>
    <path style="--d:11s; stroke:#000;" pathLength="3333" clip-path="url(#z27654c11)" d="M 749 294 L 771 336 L 702 401"/>
    <path style="--d:12s; stroke:#000;" pathLength="3333" clip-path="url(#z27654c12)" d="M 436 490 L 760 456 L 850 466"/>
    <path style="--d:13s; stroke:#000;" pathLength="3333" clip-path="url(#z27654c13)" d="M 497 554 L 529 593 L 520 788"/>
    <path style="--d:14s; stroke:#000;" pathLength="3333" clip-path="url(#z27654c14)" d="M 538 562 L 688 533 L 732 553 L 733 751 L 717 768 L 679 743"/>
    <path style="--d:15s; stroke:#000;" pathLength="3333" clip-path="url(#z27654c15)" d="M 547 655 L 674 638"/>
    <path style="--d:16s; stroke:#000;" pathLength="3333" clip-path="url(#z27654c16)" d="M 547 741 L 692 725"/>
</g>
</svg>