<svg id="z27702" class="acjk" viewBox="0 0 1024 1024" xmlns="http://www.w3.org/2000/svg">

<style>
<![CDATA[
@keyframes zk { to { stroke-dashoffset:0; } }
svg.acjk path[clip-path] {
    --t:0.8s;
    animation:zk var(--t) linear forwards var(--d);
    stroke-dasharray:3337;
    stroke-dashoffset:3339;
    stroke-width:128;
    stroke-linecap:round;
    fill:none;
}
/* Low opacity for background improves visual overlap at intersections */
svg.acjk .bg { fill:#ccc; opacity: 0.5; } 
]]>
</style>
<defs>
    <clipPath id="z27702c1"><path d="M 515 325 C 611 251 674 213 704 206 C 718 202 723 192 720 180 C 717 167 692 146 642 118 C 627 109 611 109 594 116 C 541 136 475 158 396 183 C 375 189 339 192 289 192 C 271 191 264 200 273 215 C 278 224 289 232 304 241 C 327 254 349 247 377 236 C 507 181 580 163 592 168 C 600 171 606 180 601 188 C 569 228 533 262 495 308 C 490 315 508 330 515 325 Z"/></clipPath>
    <clipPath id="z27702c2"><path d="M 538 458 C 530 375 527 357 515 325 C 512 317 503 311 495 308 C 474 301 451 295 444 305 C 439 311 444 317 452 327 C 490 380 507 505 492 713 C 485 801 463 845 439 845 C 425 845 397 838 357 829 C 351 827 346 828 346 831 C 344 833 347 838 353 844 C 391 882 420 914 441 942 C 447 950 453 954 458 954 C 466 953 478 946 495 931 C 529 898 547 849 551 786 C 552 759 557 668 543 513 C 540 476 540 476 538 458 Z"/></clipPath>
    <clipPath id="z27702c3"><path d="M 131 470 C 122 471 117 474 117 480 C 116 484 121 489 132 495 C 165 511 191 513 211 506 C 260 487 295 478 316 472 C 341 463 343 475 336 493 C 279 621 180 727 80 798 C 69 805 67 811 74 813 C 80 814 91 812 107 806 C 251 746 346 615 410 502 C 418 486 426 473 434 467 C 444 458 446 451 441 444 C 434 435 417 428 392 417 C 373 408 350 415 316 430 C 269 449 206 459 131 470 Z"/></clipPath>
    <clipPath id="z27702c4"><path d="M 607 525 C 700 467 772 415 813 398 C 826 391 833 387 831 379 C 826 364 817 349 802 334 C 786 317 768 307 750 306 C 737 304 731 314 732 331 C 732 367 711 391 596 513 C 592 517 603 528 607 525 Z"/></clipPath>
    <clipPath id="z27702c5"><path d="M 596 513 C 576 491 562 478 538 458 C 524 447 530 500 543 513 C 571 545 602 585 636 633 C 666 675 704 715 744 760 C 756 773 770 782 790 784 C 848 788 902 789 952 787 C 976 785 989 782 988 775 C 986 770 927 745 815 696 C 748 667 682 606 607 525 C 600 517 600 517 596 513 Z"/></clipPath>
</defs>
<g id="bg-layer">
    <path class="bg" d="M 515 325 C 611 251 674 213 704 206 C 718 202 723 192 720 180 C 717 167 692 146 642 118 C 627 109 611 109 594 116 C 541 136 475 158 396 183 C 375 189 339 192 289 192 C 271 191 264 200 273 215 C 278 224 289 232 304 241 C 327 254 349 247 377 236 C 507 181 580 163 592 168 C 600 171 606 180 601 188 C 569 228 533 262 495 308 C 490 315 508 330 515 325 Z"/>
    <path class="bg" d="M 538 458 C 530 375 527 357 515 325 C 512 317 503 311 495 308 C 474 301 451 295 444 305 C 439 311 444 317 452 327 C 490 380 507 505 492 713 C 485 801 463 845 439 845 C 425 845 397 838 357 829 C 351 827 346 828 346 831 C 344 833 347 838 353 844 C 391 882 420 914 441 942 C 447 950 453 954 458 954 C 466 953 478 946 495 931 C 529 898 547 849 551 786 C 552 759 557 668 543 513 C 540 476 540 476 538 458 Z"/>
    <path class="bg" d="M 131 470 C 122 471 117 474 117 480 C 116 484 121 489 132 495 C 165 511 191 513 211 506 C 260 487 295 478 316 472 C 341 463 343 475 336 493 C 279 621 180 727 80 798 C 69 805 67 811 74 813 C 80 814 91 812 107 806 C 251 746 346 615 410 502 C 418 486 426 473 434 467 C 444 458 446 451 441 444 C 434 435 417 428 392 417 C 373 408 350 415 316 430 C 269 449 206 459 131 470 Z"/>
    <path class="bg" d="M 607 525 C 700 467 772 415 813 398 C 826 391 833 387 831 379 C 826 364 817 349 802 334 C 786 317 768 307 750 306 C 737 304 731 314 732 331 C 732 367 711 391 596 513 C 592 517 603 528 607 525 Z"/>
    <path class="bg" d="M 596 513 C 576 491 562 478 538 458 C 524 447 530 500 543 513 C 571 545 602 585 636 633 C 666 675 704 715 744 760 C 756 773 770 782 790 784 C 848 788 902 789 952 787 C 976 785 989 782 988 775 C 986 770 927 745 815 696 C 748 667 682 606 607 525 C 600 517 600 517 596 513 Z"/>
</g>
<g id="anim-layer">
    <path style="--d:1s; stroke:#FF4444;" pathLength="3333" clip-path="url(#z27702c1)" d="M 277 203 L 338 219 L 621 146 L 664 189 L 500 318"/>
    <path style="--d:2s; stroke:#000;" pathLength="3333" clip-path="url(#z27702c2)" d="M 447 305 L 490 338 L 511 425 L 517 783 L 498 852 L 450 900 L 354 834"/>
    <path style="--d:3s; stroke:#000;" pathLength="3333" clip-path="url(#z27702c3)" d="M 122 478 L 200 484 L 349 442 L 391 466 L 256 670 L 79 806"/>
    <path style="--d:4s; stroke:#000;" pathLength="3333" clip-path="url(#z27702c4)" d="M 743 309 L 776 375 L 602 519"/>
    <path style="--d:5s; stroke:#000;" pathLength="3333" clip-path="url(#z27702c5)" d="M 536 465 L 665 626 L 783 733 L 979 776"/>
</g>
</svg>