<svg id="z27732" class="acjk" viewBox="0 0 1024 1024" xmlns="http://www.w3.org/2000/svg">

<style>
<![CDATA[
@keyframes zk { to { stroke-dashoffset:0; } }
svg.acjk path[clip-path] {
    --t:0.8s;
    animation:zk var(--t) linear forwards var(--d);
    stroke-dasharray:3337;
    stroke-dashoffset:3339;
    stroke-width:128;
    stroke-linecap:round;
    fill:none;
}
/* Low opacity for background improves visual overlap at intersections */
svg.acjk .bg { fill:#ccc; opacity: 0.5; } 
]]>
</style>
<defs>
    <clipPath id="z27732c1"><path d="M 228 203 C 245 218 261 236 279 255 C 288 265 299 270 311 270 C 319 270 324 264 328 255 C 331 244 330 228 325 206 C 321 193 310 180 289 171 C 240 150 210 144 200 149 C 195 150 194 157 196 167 C 197 175 209 186 228 203 Z"/></clipPath>
    <clipPath id="z27732c2"><path d="M 126 387 C 155 424 180 451 204 461 C 214 465 224 460 231 451 C 236 442 238 431 236 420 C 230 391 198 367 141 346 C 130 342 121 341 114 343 C 109 344 107 348 109 358 C 109 366 116 375 126 387 Z"/></clipPath>
    <clipPath id="z27732c3"><path d="M 118 782 C 110 786 105 792 108 805 C 119 859 138 890 162 904 C 167 907 172 909 181 908 C 185 907 187 897 189 880 C 192 845 231 730 305 534 C 309 523 311 515 311 510 C 310 503 307 502 301 507 C 293 512 285 520 278 533 C 237 603 198 669 163 732 C 153 748 140 767 118 782 Z"/></clipPath>
    <clipPath id="z27732c4"><path d="M 505 319 C 522 295 540 268 559 236 C 577 209 590 178 611 154 C 617 146 617 137 614 128 C 610 119 600 106 578 93 C 558 81 541 76 529 78 C 516 79 511 88 519 103 C 532 129 517 188 470 281 C 447 323 421 368 389 415 C 383 423 378 428 377 433 C 374 441 379 445 389 442 C 409 434 443 402 486 345 C 499 328 499 328 505 319 Z"/></clipPath>
    <clipPath id="z27732c5"><path d="M 486 345 C 530 355 567 356 603 349 C 655 337 708 324 763 311 C 789 304 804 299 808 295 C 814 288 815 282 812 277 C 806 268 792 261 772 258 C 750 253 712 268 653 286 C 563 311 513 317 505 319 C 494 321 475 343 486 345 Z"/></clipPath>
    <clipPath id="z27732c6"><path d="M 403 515 C 393 517 387 520 386 526 C 385 530 387 535 393 537 C 415 542 438 543 460 536 C 503 519 533 505 552 501 C 566 497 575 499 577 504 C 579 510 576 519 567 530 C 466 651 411 742 412 802 C 412 828 428 849 450 866 C 502 906 589 923 712 916 C 778 911 850 892 926 855 C 947 844 953 827 946 812 C 926 773 910 722 892 659 C 889 649 882 646 878 647 C 873 647 871 653 870 665 C 867 687 866 711 865 737 C 862 771 849 798 824 815 C 793 834 741 845 670 851 C 605 854 487 862 468 789 C 455 737 500 665 590 576 C 617 547 645 528 672 517 C 688 510 693 502 689 492 C 683 481 664 467 632 448 C 618 440 603 438 585 448 C 520 480 459 503 403 515 Z"/></clipPath>
</defs>
<g id="bg-layer">
    <path class="bg" d="M 228 203 C 245 218 261 236 279 255 C 288 265 299 270 311 270 C 319 270 324 264 328 255 C 331 244 330 228 325 206 C 321 193 310 180 289 171 C 240 150 210 144 200 149 C 195 150 194 157 196 167 C 197 175 209 186 228 203 Z"/>
    <path class="bg" d="M 126 387 C 155 424 180 451 204 461 C 214 465 224 460 231 451 C 236 442 238 431 236 420 C 230 391 198 367 141 346 C 130 342 121 341 114 343 C 109 344 107 348 109 358 C 109 366 116 375 126 387 Z"/>
    <path class="bg" d="M 118 782 C 110 786 105 792 108 805 C 119 859 138 890 162 904 C 167 907 172 909 181 908 C 185 907 187 897 189 880 C 192 845 231 730 305 534 C 309 523 311 515 311 510 C 310 503 307 502 301 507 C 293 512 285 520 278 533 C 237 603 198 669 163 732 C 153 748 140 767 118 782 Z"/>
    <path class="bg" d="M 505 319 C 522 295 540 268 559 236 C 577 209 590 178 611 154 C 617 146 617 137 614 128 C 610 119 600 106 578 93 C 558 81 541 76 529 78 C 516 79 511 88 519 103 C 532 129 517 188 470 281 C 447 323 421 368 389 415 C 383 423 378 428 377 433 C 374 441 379 445 389 442 C 409 434 443 402 486 345 C 499 328 499 328 505 319 Z"/>
    <path class="bg" d="M 486 345 C 530 355 567 356 603 349 C 655 337 708 324 763 311 C 789 304 804 299 808 295 C 814 288 815 282 812 277 C 806 268 792 261 772 258 C 750 253 712 268 653 286 C 563 311 513 317 505 319 C 494 321 475 343 486 345 Z"/>
    <path class="bg" d="M 403 515 C 393 517 387 520 386 526 C 385 530 387 535 393 537 C 415 542 438 543 460 536 C 503 519 533 505 552 501 C 566 497 575 499 577 504 C 579 510 576 519 567 530 C 466 651 411 742 412 802 C 412 828 428 849 450 866 C 502 906 589 923 712 916 C 778 911 850 892 926 855 C 947 844 953 827 946 812 C 926 773 910 722 892 659 C 889 649 882 646 878 647 C 873 647 871 653 870 665 C 867 687 866 711 865 737 C 862 771 849 798 824 815 C 793 834 741 845 670 851 C 605 854 487 862 468 789 C 455 737 500 665 590 576 C 617 547 645 528 672 517 C 688 510 693 502 689 492 C 683 481 664 467 632 448 C 618 440 603 438 585 448 C 520 480 459 503 403 515 Z"/>
</g>
<g id="anim-layer">
    <path style="--d:1s; stroke:#FF4444;" pathLength="3333" clip-path="url(#z27732c1)" d="M 202 154 L 279 203 L 314 264"/>
    <path style="--d:2s; stroke:#FF4444;" pathLength="3333" clip-path="url(#z27732c2)" d="M 117 353 L 227 450"/>
    <path style="--d:3s; stroke:#FF4444;" pathLength="3333" clip-path="url(#z27732c3)" d="M 111 798 L 171 851 L 304 513"/>
    <path style="--d:4s; stroke:#000;" pathLength="3333" clip-path="url(#z27732c4)" d="M 525 85 L 568 145 L 499 283 L 384 437"/>
    <path style="--d:5s; stroke:#000;" pathLength="3333" clip-path="url(#z27732c5)" d="M 489 339 L 807 280"/>
    <path style="--d:6s; stroke:#000;" pathLength="3333" clip-path="url(#z27732c6)" d="M 392 528 L 592 473 L 633 497 L 497 651 L 445 748 L 451 825 L 530 873 L 726 880 L 861 840 L 901 804 L 878 653"/>
</g>
</svg>