<svg id="z27794" class="acjk" viewBox="0 0 1024 1024" xmlns="http://www.w3.org/2000/svg">

<style>
<![CDATA[
@keyframes zk { to { stroke-dashoffset:0; } }
svg.acjk path[clip-path] {
    --t:0.8s;
    animation:zk var(--t) linear forwards var(--d);
    stroke-dasharray:3337;
    stroke-dashoffset:3339;
    stroke-width:128;
    stroke-linecap:round;
    fill:none;
}
/* Low opacity for background improves visual overlap at intersections */
svg.acjk .bg { fill:#ccc; opacity: 0.5; } 
]]>
</style>
<defs>
    <clipPath id="z27794c1"><path d="M 271 171 C 286 184 301 202 319 220 C 329 230 341 235 353 235 C 361 234 368 229 372 219 C 376 208 375 190 368 166 C 364 153 352 141 331 133 C 279 113 248 107 240 112 C 235 114 233 121 236 132 C 237 140 251 152 271 171 Z"/></clipPath>
    <clipPath id="z27794c2"><path d="M 153 355 C 184 390 208 415 231 423 C 242 426 252 421 258 411 C 262 402 264 391 262 378 C 258 359 248 345 235 337 C 205 318 179 311 159 310 C 150 309 143 309 137 311 C 132 312 131 316 133 326 C 134 334 141 342 153 355 Z"/></clipPath>
    <clipPath id="z27794c3"><path d="M 153 726 C 145 730 139 735 141 748 C 148 802 165 834 189 850 C 194 853 199 856 207 856 C 213 855 215 845 218 827 C 221 800 262 697 340 518 C 344 507 347 499 347 495 C 347 488 343 486 336 490 C 325 496 278 560 196 684 C 186 698 174 714 153 726 Z"/></clipPath>
    <clipPath id="z27794c4"><path d="M 566 180 C 575 161 583 144 593 129 C 599 118 597 109 586 101 C 552 78 527 71 511 77 C 503 79 500 85 503 96 C 519 166 492 253 418 352 C 414 356 402 370 372 411 C 365 420 369 425 380 422 C 393 417 409 408 426 392 C 467 352 500 309 525 264 C 532 252 549 213 552 208 C 561 189 561 189 566 180 Z"/></clipPath>
    <clipPath id="z27794c5"><path d="M 552 208 C 564 214 580 218 601 212 C 678 187 717 176 722 184 C 725 190 725 200 724 215 C 718 257 712 288 702 306 C 688 328 670 335 651 331 C 637 327 623 324 611 319 C 594 312 590 319 604 335 C 626 362 644 385 655 406 C 662 419 671 419 683 413 C 714 396 747 355 770 280 C 783 236 792 206 807 191 C 815 182 818 175 814 169 C 808 161 789 150 757 134 C 744 127 730 128 718 137 C 696 152 646 167 566 180 C 556 182 542 204 552 208 Z"/></clipPath>
    <clipPath id="z27794c6"><path d="M 622 712 C 654 668 679 620 698 560 C 705 536 713 518 727 507 C 737 498 737 487 726 477 C 712 464 694 454 672 446 C 657 440 642 440 628 448 C 591 468 549 484 499 492 C 480 494 467 497 460 502 C 453 506 457 512 470 518 C 488 526 510 525 537 518 C 564 510 593 504 621 496 C 633 492 639 496 640 510 C 640 568 621 624 582 677 C 573 688 565 700 555 711 C 514 753 427 790 337 814 C 326 816 324 820 331 826 C 335 830 348 831 368 829 C 464 819 539 794 588 750 C 600 738 611 725 622 712 Z"/></clipPath>
    <clipPath id="z27794c7"><path d="M 588 750 C 636 807 727 896 756 898 C 830 902 891 893 940 887 C 966 883 978 879 976 871 C 974 865 938 855 870 835 C 767 804 694 775 622 712 C 595 689 595 689 582 677 C 552 651 524 623 496 593 C 469 565 444 551 420 551 C 407 551 399 552 398 556 C 396 560 401 567 413 575 C 446 596 494 639 555 711 C 577 737 577 737 588 750 Z"/></clipPath>
</defs>
<g id="bg-layer">
    <path class="bg" d="M 271 171 C 286 184 301 202 319 220 C 329 230 341 235 353 235 C 361 234 368 229 372 219 C 376 208 375 190 368 166 C 364 153 352 141 331 133 C 279 113 248 107 240 112 C 235 114 233 121 236 132 C 237 140 251 152 271 171 Z"/>
    <path class="bg" d="M 153 355 C 184 390 208 415 231 423 C 242 426 252 421 258 411 C 262 402 264 391 262 378 C 258 359 248 345 235 337 C 205 318 179 311 159 310 C 150 309 143 309 137 311 C 132 312 131 316 133 326 C 134 334 141 342 153 355 Z"/>
    <path class="bg" d="M 153 726 C 145 730 139 735 141 748 C 148 802 165 834 189 850 C 194 853 199 856 207 856 C 213 855 215 845 218 827 C 221 800 262 697 340 518 C 344 507 347 499 347 495 C 347 488 343 486 336 490 C 325 496 278 560 196 684 C 186 698 174 714 153 726 Z"/>
    <path class="bg" d="M 566 180 C 575 161 583 144 593 129 C 599 118 597 109 586 101 C 552 78 527 71 511 77 C 503 79 500 85 503 96 C 519 166 492 253 418 352 C 414 356 402 370 372 411 C 365 420 369 425 380 422 C 393 417 409 408 426 392 C 467 352 500 309 525 264 C 532 252 549 213 552 208 C 561 189 561 189 566 180 Z"/>
    <path class="bg" d="M 552 208 C 564 214 580 218 601 212 C 678 187 717 176 722 184 C 725 190 725 200 724 215 C 718 257 712 288 702 306 C 688 328 670 335 651 331 C 637 327 623 324 611 319 C 594 312 590 319 604 335 C 626 362 644 385 655 406 C 662 419 671 419 683 413 C 714 396 747 355 770 280 C 783 236 792 206 807 191 C 815 182 818 175 814 169 C 808 161 789 150 757 134 C 744 127 730 128 718 137 C 696 152 646 167 566 180 C 556 182 542 204 552 208 Z"/>
    <path class="bg" d="M 622 712 C 654 668 679 620 698 560 C 705 536 713 518 727 507 C 737 498 737 487 726 477 C 712 464 694 454 672 446 C 657 440 642 440 628 448 C 591 468 549 484 499 492 C 480 494 467 497 460 502 C 453 506 457 512 470 518 C 488 526 510 525 537 518 C 564 510 593 504 621 496 C 633 492 639 496 640 510 C 640 568 621 624 582 677 C 573 688 565 700 555 711 C 514 753 427 790 337 814 C 326 816 324 820 331 826 C 335 830 348 831 368 829 C 464 819 539 794 588 750 C 600 738 611 725 622 712 Z"/>
    <path class="bg" d="M 588 750 C 636 807 727 896 756 898 C 830 902 891 893 940 887 C 966 883 978 879 976 871 C 974 865 938 855 870 835 C 767 804 694 775 622 712 C 595 689 595 689 582 677 C 552 651 524 623 496 593 C 469 565 444 551 420 551 C 407 551 399 552 398 556 C 396 560 401 567 413 575 C 446 596 494 639 555 711 C 577 737 577 737 588 750 Z"/>
</g>
<g id="anim-layer">
    <path style="--d:1s; stroke:#FF4444;" pathLength="3333" clip-path="url(#z27794c1)" d="M 242 121 L 325 171 L 362 227"/>
    <path style="--d:2s; stroke:#FF4444;" pathLength="3333" clip-path="url(#z27794c2)" d="M 140 319 L 251 416"/>
    <path style="--d:3s; stroke:#FF4444;" pathLength="3333" clip-path="url(#z27794c3)" d="M 145 739 L 171 735 L 205 800 L 340 496"/>
    <path style="--d:4s; stroke:#000;" pathLength="3333" clip-path="url(#z27794c4)" d="M 511 80 L 551 127 L 515 230 L 452 337 L 375 415"/>
    <path style="--d:5s; stroke:#000;" pathLength="3333" clip-path="url(#z27794c5)" d="M 554 202 L 728 156 L 769 182 L 694 361 L 655 369 L 605 323"/>
    <path style="--d:6s; stroke:#000;" pathLength="3333" clip-path="url(#z27794c6)" d="M 464 505 L 656 472 L 687 504 L 650 609 L 550 748 L 336 820"/>
    <path style="--d:7s; stroke:#000;" pathLength="3333" clip-path="url(#z27794c7)" d="M 406 558 L 746 842 L 969 872"/>
</g>
</svg>