<svg id="z27801" class="acjk" viewBox="0 0 1024 1024" xmlns="http://www.w3.org/2000/svg">

<style>
<![CDATA[
@keyframes zk { to { stroke-dashoffset:0; } }
svg.acjk path[clip-path] {
    --t:0.8s;
    animation:zk var(--t) linear forwards var(--d);
    stroke-dasharray:3337;
    stroke-dashoffset:3339;
    stroke-width:128;
    stroke-linecap:round;
    fill:none;
}
/* Low opacity for background improves visual overlap at intersections */
svg.acjk .bg { fill:#ccc; opacity: 0.5; } 
]]>
</style>
<defs>
    <clipPath id="z27801c1"><path d="M 234 181 C 253 197 272 216 293 237 C 303 247 314 251 326 251 C 334 250 340 245 344 235 C 347 224 347 207 340 184 C 332 161 295 141 229 126 C 217 123 208 122 204 125 C 199 127 197 134 200 144 C 201 152 214 164 234 181 Z"/></clipPath>
    <clipPath id="z27801c2"><path d="M 144 388 C 181 425 209 450 235 459 C 244 462 253 457 259 447 C 263 438 265 428 262 417 C 253 388 217 366 158 349 C 157 348 156 348 156 348 C 144 345 135 345 129 348 C 125 349 124 353 126 362 C 127 369 133 377 144 388 Z"/></clipPath>
    <clipPath id="z27801c3"><path d="M 138 722 C 130 726 126 731 128 743 C 136 795 152 826 176 841 C 181 844 186 847 194 846 C 198 845 200 835 203 818 C 208 779 249 672 324 497 C 328 486 331 478 331 474 C 330 467 327 466 321 471 C 310 477 264 545 183 676 C 173 691 159 708 138 722 Z"/></clipPath>
    <clipPath id="z27801c4"><path d="M 566 108 C 588 149 600 257 587 433 C 584 469 582 498 593 522 C 593 523 594 526 596 529 C 602 539 611 542 622 536 C 630 530 636 499 635 446 C 633 388 636 311 644 219 C 645 200 652 171 666 147 C 669 139 670 130 661 122 C 623 90 593 80 573 88 C 564 90 560 98 566 108 Z"/></clipPath>
    <clipPath id="z27801c5"><path d="M 447 334 C 432 372 415 410 393 445 C 380 464 378 485 392 512 C 397 522 408 524 421 516 C 436 505 446 488 456 467 C 467 440 472 415 474 391 C 475 368 477 348 471 333 C 468 326 463 323 460 324 C 454 324 449 327 447 334 Z"/></clipPath>
    <clipPath id="z27801c6"><path d="M 764 290 C 801 313 844 340 890 375 C 905 386 917 393 929 394 C 935 394 940 389 945 381 C 951 370 946 350 931 320 C 918 293 886 274 834 266 C 801 260 775 259 758 256 C 750 254 747 256 748 266 C 749 276 755 284 764 290 Z"/></clipPath>
    <clipPath id="z27801c7"><path d="M 718 415 C 718 505 660 618 596 697 C 505 810 395 880 302 940 C 295 944 294 949 299 952 C 304 955 312 954 321 952 C 457 906 563 819 634 738 C 672 693 715 623 757 540 C 769 515 783 490 802 467 C 807 459 810 452 807 445 C 802 436 789 425 768 410 C 753 399 741 393 734 395 C 723 396 718 403 718 415 Z"/></clipPath>
</defs>
<g id="bg-layer">
    <path class="bg" d="M 234 181 C 253 197 272 216 293 237 C 303 247 314 251 326 251 C 334 250 340 245 344 235 C 347 224 347 207 340 184 C 332 161 295 141 229 126 C 217 123 208 122 204 125 C 199 127 197 134 200 144 C 201 152 214 164 234 181 Z"/>
    <path class="bg" d="M 144 388 C 181 425 209 450 235 459 C 244 462 253 457 259 447 C 263 438 265 428 262 417 C 253 388 217 366 158 349 C 157 348 156 348 156 348 C 144 345 135 345 129 348 C 125 349 124 353 126 362 C 127 369 133 377 144 388 Z"/>
    <path class="bg" d="M 138 722 C 130 726 126 731 128 743 C 136 795 152 826 176 841 C 181 844 186 847 194 846 C 198 845 200 835 203 818 C 208 779 249 672 324 497 C 328 486 331 478 331 474 C 330 467 327 466 321 471 C 310 477 264 545 183 676 C 173 691 159 708 138 722 Z"/>
    <path class="bg" d="M 566 108 C 588 149 600 257 587 433 C 584 469 582 498 593 522 C 593 523 594 526 596 529 C 602 539 611 542 622 536 C 630 530 636 499 635 446 C 633 388 636 311 644 219 C 645 200 652 171 666 147 C 669 139 670 130 661 122 C 623 90 593 80 573 88 C 564 90 560 98 566 108 Z"/>
    <path class="bg" d="M 447 334 C 432 372 415 410 393 445 C 380 464 378 485 392 512 C 397 522 408 524 421 516 C 436 505 446 488 456 467 C 467 440 472 415 474 391 C 475 368 477 348 471 333 C 468 326 463 323 460 324 C 454 324 449 327 447 334 Z"/>
    <path class="bg" d="M 764 290 C 801 313 844 340 890 375 C 905 386 917 393 929 394 C 935 394 940 389 945 381 C 951 370 946 350 931 320 C 918 293 886 274 834 266 C 801 260 775 259 758 256 C 750 254 747 256 748 266 C 749 276 755 284 764 290 Z"/>
    <path class="bg" d="M 718 415 C 718 505 660 618 596 697 C 505 810 395 880 302 940 C 295 944 294 949 299 952 C 304 955 312 954 321 952 C 457 906 563 819 634 738 C 672 693 715 623 757 540 C 769 515 783 490 802 467 C 807 459 810 452 807 445 C 802 436 789 425 768 410 C 753 399 741 393 734 395 C 723 396 718 403 718 415 Z"/>
</g>
<g id="anim-layer">
    <path style="--d:1s; stroke:#FF4444;" pathLength="3333" clip-path="url(#z27801c1)" d="M 207 129 L 338 242"/>
    <path style="--d:2s; stroke:#FF4444;" pathLength="3333" clip-path="url(#z27801c2)" d="M 130 355 L 254 449"/>
    <path style="--d:3s; stroke:#FF4444;" pathLength="3333" clip-path="url(#z27801c3)" d="M 135 737 L 177 787 L 326 477"/>
    <path style="--d:4s; stroke:#000;" pathLength="3333" clip-path="url(#z27801c4)" d="M 571 94 L 624 143 L 608 534"/>
    <path style="--d:5s; stroke:#000;" pathLength="3333" clip-path="url(#z27801c5)" d="M 459 329 L 397 514"/>
    <path style="--d:6s; stroke:#000;" pathLength="3333" clip-path="url(#z27801c6)" d="M 756 265 L 883 322 L 941 381"/>
    <path style="--d:7s; stroke:#000;" pathLength="3333" clip-path="url(#z27801c7)" d="M 730 402 L 760 465 L 630 701 L 498 834 L 304 948"/>
</g>
</svg>