<svg id="z27865" class="acjk" viewBox="0 0 1024 1024" xmlns="http://www.w3.org/2000/svg">

<style>
<![CDATA[
@keyframes zk { to { stroke-dashoffset:0; } }
svg.acjk path[clip-path] {
    --t:0.8s;
    animation:zk var(--t) linear forwards var(--d);
    stroke-dasharray:3337;
    stroke-dashoffset:3339;
    stroke-width:128;
    stroke-linecap:round;
    fill:none;
}
/* Low opacity for background improves visual overlap at intersections */
svg.acjk .bg { fill:#ccc; opacity: 0.5; } 
]]>
</style>
<defs>
    <clipPath id="z27865c1"><path d="M 234 169 C 254 187 275 208 297 231 C 306 240 334 257 345 231 C 348 221 347 205 342 184 C 336 159 299 138 231 119 C 220 116 212 114 208 117 C 189 127 219 156 234 169 Z"/></clipPath>
    <clipPath id="z27865c2"><path d="M 148 380 C 180 415 203 442 227 450 C 241 454 266 444 259 406 C 252 375 218 353 163 337 C 150 333 140 332 134 335 C 129 336 121 350 148 380 Z"/></clipPath>
    <clipPath id="z27865c3"><path d="M 131 730 C 123 734 118 740 121 752 C 132 804 151 834 173 848 C 196 863 197 840 199 824 C 203 785 240 677 309 501 C 315 483 323 444 287 497 C 266 527 229 590 174 684 C 165 698 152 716 131 730 Z"/></clipPath>
    <clipPath id="z27865c4"><path d="M 606 207 C 720 176 778 155 781 153 C 792 141 787 124 746 119 C 728 116 689 129 629 150 C 569 170 515 180 471 189 C 446 194 443 202 462 213 C 484 224 509 227 550 222 C 569 219 587 212 606 207 Z"/></clipPath>
    <clipPath id="z27865c5"><path d="M 428 363 C 463 405 485 428 496 430 C 521 433 516 388 514 376 C 512 364 502 351 485 341 C 445 318 417 306 408 313 C 389 325 418 352 428 363 Z"/></clipPath>
    <clipPath id="z27865c6"><path d="M 756 276 C 739 304 713 341 679 386 C 673 393 675 410 695 397 C 759 350 803 312 836 296 C 847 289 853 285 850 278 C 845 267 836 254 822 242 C 807 228 792 222 776 222 C 765 222 760 230 762 244 C 763 254 762 264 756 276 Z"/></clipPath>
    <clipPath id="z27865c7"><path d="M 632 527 C 696 518 776 512 873 514 C 915 514 939 513 944 505 C 947 497 943 487 932 479 C 897 452 865 442 838 448 C 787 458 718 471 632 486 C 595 492 595 492 577 495 C 506 506 430 513 349 525 C 334 527 331 534 343 545 C 363 564 391 570 425 562 C 471 550 522 540 576 534 C 613 529 613 529 632 527 Z"/></clipPath>
    <clipPath id="z27865c8"><path d="M 576 534 C 569 783 575 920 584 944 C 588 956 604 971 617 937 C 627 906 636 830 634 709 C 633 676 632 616 632 527 C 632 500 632 500 632 486 C 632 365 639 288 647 254 C 652 227 625 217 606 207 C 589 197 543 204 550 222 C 566 262 577 297 578 307 C 579 361 578 424 577 495 C 576 521 576 521 576 534 Z"/></clipPath>
</defs>
<g id="bg-layer">
    <path class="bg" d="M 234 169 C 254 187 275 208 297 231 C 306 240 334 257 345 231 C 348 221 347 205 342 184 C 336 159 299 138 231 119 C 220 116 212 114 208 117 C 189 127 219 156 234 169 Z"/>
    <path class="bg" d="M 148 380 C 180 415 203 442 227 450 C 241 454 266 444 259 406 C 252 375 218 353 163 337 C 150 333 140 332 134 335 C 129 336 121 350 148 380 Z"/>
    <path class="bg" d="M 131 730 C 123 734 118 740 121 752 C 132 804 151 834 173 848 C 196 863 197 840 199 824 C 203 785 240 677 309 501 C 315 483 323 444 287 497 C 266 527 229 590 174 684 C 165 698 152 716 131 730 Z"/>
    <path class="bg" d="M 606 207 C 720 176 778 155 781 153 C 792 141 787 124 746 119 C 728 116 689 129 629 150 C 569 170 515 180 471 189 C 446 194 443 202 462 213 C 484 224 509 227 550 222 C 569 219 587 212 606 207 Z"/>
    <path class="bg" d="M 428 363 C 463 405 485 428 496 430 C 521 433 516 388 514 376 C 512 364 502 351 485 341 C 445 318 417 306 408 313 C 389 325 418 352 428 363 Z"/>
    <path class="bg" d="M 756 276 C 739 304 713 341 679 386 C 673 393 675 410 695 397 C 759 350 803 312 836 296 C 847 289 853 285 850 278 C 845 267 836 254 822 242 C 807 228 792 222 776 222 C 765 222 760 230 762 244 C 763 254 762 264 756 276 Z"/>
    <path class="bg" d="M 632 527 C 696 518 776 512 873 514 C 915 514 939 513 944 505 C 947 497 943 487 932 479 C 897 452 865 442 838 448 C 787 458 718 471 632 486 C 595 492 595 492 577 495 C 506 506 430 513 349 525 C 334 527 331 534 343 545 C 363 564 391 570 425 562 C 471 550 522 540 576 534 C 613 529 613 529 632 527 Z"/>
    <path class="bg" d="M 576 534 C 569 783 575 920 584 944 C 588 956 604 971 617 937 C 627 906 636 830 634 709 C 633 676 632 616 632 527 C 632 500 632 500 632 486 C 632 365 639 288 647 254 C 652 227 625 217 606 207 C 589 197 543 204 550 222 C 566 262 577 297 578 307 C 579 361 578 424 577 495 C 576 521 576 521 576 534 Z"/>
</g>
<g id="anim-layer">
    <path style="--d:1s; stroke:#FF4444;" pathLength="3333" clip-path="url(#z27865c1)" d="M 207 123 L 308 191 L 336 239"/>
    <path style="--d:2s; stroke:#FF4444;" pathLength="3333" clip-path="url(#z27865c2)" d="M 135 343 L 255 435"/>
    <path style="--d:3s; stroke:#FF4444;" pathLength="3333" clip-path="url(#z27865c3)" d="M 124 745 L 182 794 L 308 476"/>
    <path style="--d:4s; stroke:#000;" pathLength="3333" clip-path="url(#z27865c4)" d="M 457 199 L 549 197 L 781 139"/>
    <path style="--d:5s; stroke:#000;" pathLength="3333" clip-path="url(#z27865c5)" d="M 408 317 L 485 382 L 496 426"/>
    <path style="--d:6s; stroke:#000;" pathLength="3333" clip-path="url(#z27865c6)" d="M 772 232 L 802 282 L 683 395"/>
    <path style="--d:7s; stroke:#000;" pathLength="3333" clip-path="url(#z27865c7)" d="M 342 535 L 842 480 L 940 494"/>
    <path style="--d:8s; stroke:#000;" pathLength="3333" clip-path="url(#z27865c8)" d="M 557 216 L 608 264 L 599 954"/>
</g>
</svg>