<svg id="z27862" class="acjk" viewBox="0 0 1024 1024" xmlns="http://www.w3.org/2000/svg">

<style>
<![CDATA[
@keyframes zk { to { stroke-dashoffset:0; } }
svg.acjk path[clip-path] {
    --t:0.8s;
    animation:zk var(--t) linear forwards var(--d);
    stroke-dasharray:3337;
    stroke-dashoffset:3339;
    stroke-width:128;
    stroke-linecap:round;
    fill:none;
}
/* Low opacity for background improves visual overlap at intersections */
svg.acjk .bg { fill:#ccc; opacity: 0.5; } 
]]>
</style>
<defs>
    <clipPath id="z27862c1"><path d="M 210 196 C 225 210 238 226 254 243 C 264 254 276 259 289 259 C 297 259 303 253 308 243 C 312 232 312 214 305 190 C 301 177 289 165 269 157 C 219 137 189 131 180 136 C 175 138 173 145 175 156 C 176 164 189 177 210 196 Z"/></clipPath>
    <clipPath id="z27862c2"><path d="M 111 388 C 140 424 163 451 187 461 C 197 465 207 460 214 451 C 219 442 221 431 220 418 C 217 399 207 385 195 376 C 181 365 158 355 127 346 C 114 341 104 340 98 343 C 93 344 91 348 93 358 C 93 366 101 375 111 388 Z"/></clipPath>
    <clipPath id="z27862c3"><path d="M 118 754 C 110 758 105 764 108 777 C 119 831 138 862 162 876 C 167 879 172 881 181 880 C 185 879 187 869 189 852 C 192 813 226 710 289 542 C 293 531 295 523 295 518 C 294 511 291 511 285 515 C 279 518 236 582 158 711 C 149 725 137 741 118 754 Z"/></clipPath>
    <clipPath id="z27862c4"><path d="M 400 306 C 501 238 556 196 589 182 C 604 174 609 165 602 153 C 593 140 579 128 561 118 C 544 108 531 104 523 106 C 514 107 514 111 514 121 C 512 167 432 240 383 292 C 378 297 394 310 400 306 Z"/></clipPath>
    <clipPath id="z27862c5"><path d="M 499 488 C 472 500 445 514 419 528 C 398 538 392 526 393 510 C 395 449 397 339 400 306 C 400 299 389 296 383 292 C 356 275 336 268 326 275 C 318 278 320 287 329 300 C 357 339 364 416 344 528 C 340 544 330 561 319 580 C 311 592 310 602 316 610 C 322 618 334 626 350 633 C 360 637 372 635 379 623 C 391 600 428 564 498 519 C 507 514 509 484 499 488 Z"/></clipPath>
    <clipPath id="z27862c6"><path d="M 498 519 C 494 625 446 735 383 798 C 358 822 341 835 338 845 C 336 849 341 853 348 851 C 435 818 477 756 509 691 C 540 624 550 518 555 378 C 555 365 558 355 560 348 C 563 335 559 325 546 319 C 515 304 495 298 485 300 C 472 302 472 309 482 324 C 497 347 501 402 499 488 C 498 509 498 509 498 519 Z"/></clipPath>
    <clipPath id="z27862c7"><path d="M 708 332 C 746 319 778 308 807 303 C 830 298 829 343 830 354 C 831 422 826 471 815 503 C 808 521 796 531 781 530 C 768 528 757 524 747 520 C 730 513 726 519 739 536 C 762 565 778 591 793 611 C 804 625 817 621 829 610 C 864 574 887 506 890 400 C 891 346 893 309 904 293 C 909 283 911 277 907 272 C 901 265 882 258 851 249 C 838 245 827 248 817 257 C 802 268 762 283 698 303 C 688 306 699 336 708 332 Z"/></clipPath>
    <clipPath id="z27862c8"><path d="M 645 946 C 647 962 653 974 658 981 C 661 985 666 988 671 986 C 681 980 688 956 692 916 C 694 886 697 792 697 636 C 696 489 698 388 708 332 C 710 322 707 308 698 303 C 675 288 658 280 649 278 C 640 275 630 276 620 283 C 613 287 615 292 619 301 C 636 338 643 371 644 400 C 645 493 643 612 642 755 C 640 849 640 913 645 946 Z"/></clipPath>
</defs>
<g id="bg-layer">
    <path class="bg" d="M 210 196 C 225 210 238 226 254 243 C 264 254 276 259 289 259 C 297 259 303 253 308 243 C 312 232 312 214 305 190 C 301 177 289 165 269 157 C 219 137 189 131 180 136 C 175 138 173 145 175 156 C 176 164 189 177 210 196 Z"/>
    <path class="bg" d="M 111 388 C 140 424 163 451 187 461 C 197 465 207 460 214 451 C 219 442 221 431 220 418 C 217 399 207 385 195 376 C 181 365 158 355 127 346 C 114 341 104 340 98 343 C 93 344 91 348 93 358 C 93 366 101 375 111 388 Z"/>
    <path class="bg" d="M 118 754 C 110 758 105 764 108 777 C 119 831 138 862 162 876 C 167 879 172 881 181 880 C 185 879 187 869 189 852 C 192 813 226 710 289 542 C 293 531 295 523 295 518 C 294 511 291 511 285 515 C 279 518 236 582 158 711 C 149 725 137 741 118 754 Z"/>
    <path class="bg" d="M 400 306 C 501 238 556 196 589 182 C 604 174 609 165 602 153 C 593 140 579 128 561 118 C 544 108 531 104 523 106 C 514 107 514 111 514 121 C 512 167 432 240 383 292 C 378 297 394 310 400 306 Z"/>
    <path class="bg" d="M 499 488 C 472 500 445 514 419 528 C 398 538 392 526 393 510 C 395 449 397 339 400 306 C 400 299 389 296 383 292 C 356 275 336 268 326 275 C 318 278 320 287 329 300 C 357 339 364 416 344 528 C 340 544 330 561 319 580 C 311 592 310 602 316 610 C 322 618 334 626 350 633 C 360 637 372 635 379 623 C 391 600 428 564 498 519 C 507 514 509 484 499 488 Z"/>
    <path class="bg" d="M 498 519 C 494 625 446 735 383 798 C 358 822 341 835 338 845 C 336 849 341 853 348 851 C 435 818 477 756 509 691 C 540 624 550 518 555 378 C 555 365 558 355 560 348 C 563 335 559 325 546 319 C 515 304 495 298 485 300 C 472 302 472 309 482 324 C 497 347 501 402 499 488 C 498 509 498 509 498 519 Z"/>
    <path class="bg" d="M 708 332 C 746 319 778 308 807 303 C 830 298 829 343 830 354 C 831 422 826 471 815 503 C 808 521 796 531 781 530 C 768 528 757 524 747 520 C 730 513 726 519 739 536 C 762 565 778 591 793 611 C 804 625 817 621 829 610 C 864 574 887 506 890 400 C 891 346 893 309 904 293 C 909 283 911 277 907 272 C 901 265 882 258 851 249 C 838 245 827 248 817 257 C 802 268 762 283 698 303 C 688 306 699 336 708 332 Z"/>
    <path class="bg" d="M 645 946 C 647 962 653 974 658 981 C 661 985 666 988 671 986 C 681 980 688 956 692 916 C 694 886 697 792 697 636 C 696 489 698 388 708 332 C 710 322 707 308 698 303 C 675 288 658 280 649 278 C 640 275 630 276 620 283 C 613 287 615 292 619 301 C 636 338 643 371 644 400 C 645 493 643 612 642 755 C 640 849 640 913 645 946 Z"/>
</g>
<g id="anim-layer">
    <path style="--d:1s; stroke:#FF4444;" pathLength="3333" clip-path="url(#z27862c1)" d="M 181 141 L 262 195 L 295 253"/>
    <path style="--d:2s; stroke:#FF4444;" pathLength="3333" clip-path="url(#z27862c2)" d="M 100 348 L 206 456"/>
    <path style="--d:3s; stroke:#FF4444;" pathLength="3333" clip-path="url(#z27862c3)" d="M 111 769 L 168 826 L 290 521"/>
    <path style="--d:4s; stroke:#000;" pathLength="3333" clip-path="url(#z27862c4)" d="M 521 113 L 550 167 L 389 299"/>
    <path style="--d:5s; stroke:#000;" pathLength="3333" clip-path="url(#z27862c5)" d="M 328 283 L 373 332 L 361 579 L 390 581 L 500 497"/>
    <path style="--d:6s; stroke:#000;" pathLength="3333" clip-path="url(#z27862c6)" d="M 482 308 L 527 345 L 506 625 L 447 752 L 346 845"/>
    <path style="--d:7s; stroke:#000;" pathLength="3333" clip-path="url(#z27862c7)" d="M 697 318 L 830 277 L 867 298 L 828 548 L 801 574 L 739 523"/>
    <path style="--d:8s; stroke:#000;" pathLength="3333" clip-path="url(#z27862c8)" d="M 622 289 L 672 336 L 663 981"/>
</g>
</svg>