<svg id="z27915" class="acjk" viewBox="0 0 1024 1024" xmlns="http://www.w3.org/2000/svg">

<style>
<![CDATA[
@keyframes zk { to { stroke-dashoffset:0; } }
svg.acjk path[clip-path] {
    --t:0.8s;
    animation:zk var(--t) linear forwards var(--d);
    stroke-dasharray:3337;
    stroke-dashoffset:3339;
    stroke-width:128;
    stroke-linecap:round;
    fill:none;
}
/* Low opacity for background improves visual overlap at intersections */
svg.acjk .bg { fill:#ccc; opacity: 0.5; } 
]]>
</style>
<defs>
    <clipPath id="z27915c1"><path d="M 259 167 C 273 178 288 192 305 208 C 315 216 326 220 337 219 C 343 218 349 213 353 204 C 356 193 354 176 346 157 C 338 137 306 125 251 117 C 239 115 232 114 228 117 C 223 119 221 125 225 135 C 226 141 238 151 259 167 Z"/></clipPath>
    <clipPath id="z27915c2"><path d="M 154 343 C 185 371 210 394 235 401 C 244 403 254 397 259 388 C 262 379 263 367 260 357 C 251 329 224 315 185 307 C 162 302 146 300 137 304 C 132 305 131 308 134 318 C 136 324 143 332 154 343 Z"/></clipPath>
    <clipPath id="z27915c3"><path d="M 141 682 C 133 686 129 691 131 703 C 139 751 154 780 179 796 C 183 799 189 801 197 800 C 201 799 203 790 205 774 C 208 741 246 637 317 460 C 321 449 323 442 323 438 C 322 431 319 430 313 435 C 303 441 259 509 183 637 C 174 651 162 669 141 682 Z"/></clipPath>
    <clipPath id="z27915c4"><path d="M 460 145 C 484 183 503 212 525 224 C 532 228 542 225 548 219 C 553 212 555 204 555 194 C 553 170 526 142 476 114 C 467 108 460 108 454 109 C 450 109 448 112 449 120 C 449 126 453 133 460 145 Z"/></clipPath>
    <clipPath id="z27915c5"><path d="M 707 92 C 696 109 664 149 614 213 C 605 223 611 232 622 227 C 659 207 686 187 706 172 C 744 140 774 118 796 109 C 810 102 814 91 807 80 C 797 67 782 56 765 47 C 747 38 735 35 726 37 C 717 38 714 41 717 52 C 720 63 715 77 707 92 Z"/></clipPath>
    <clipPath id="z27915c6"><path d="M 599 325 C 643 317 688 309 734 301 C 768 295 788 288 794 283 C 799 277 801 272 799 268 C 794 258 781 253 764 248 C 748 243 705 254 632 273 C 562 290 493 299 426 305 C 401 307 397 314 415 326 C 436 340 483 346 533 337 C 577 329 577 329 599 325 Z"/></clipPath>
    <clipPath id="z27915c7"><path d="M 621 469 C 647 464 692 455 759 450 C 765 449 773 448 777 440 C 779 433 770 426 758 420 C 718 399 667 421 623 430 C 585 437 585 437 566 441 C 518 450 472 452 428 458 C 411 460 408 467 422 477 C 440 490 464 495 493 491 C 515 487 539 482 566 478 C 603 472 603 472 621 469 Z"/></clipPath>
    <clipPath id="z27915c8"><path d="M 619 615 C 683 606 764 602 864 604 C 906 604 930 603 935 596 C 939 588 934 578 924 570 C 888 543 859 534 834 540 C 781 551 709 563 619 577 C 583 582 583 582 565 585 C 491 595 412 604 329 614 C 314 615 312 620 323 633 C 331 641 342 648 355 652 C 368 656 381 656 392 653 C 445 638 502 629 564 622 C 601 617 601 617 619 615 Z"/></clipPath>
    <clipPath id="z27915c9"><path d="M 565 938 C 567 955 572 966 578 973 C 580 977 586 980 591 978 C 601 972 608 948 613 909 C 616 881 619 783 619 615 C 619 590 619 590 619 577 C 619 544 619 508 621 469 C 622 443 622 443 623 430 C 623 416 627 395 633 367 C 635 354 631 345 622 339 C 613 333 605 328 599 325 C 580 313 516 323 533 337 C 567 363 566 387 566 441 C 566 466 566 466 566 478 C 566 510 566 546 565 585 C 564 610 564 610 564 622 C 559 792 559 897 565 938 Z"/></clipPath>
</defs>
<g id="bg-layer">
    <path class="bg" d="M 259 167 C 273 178 288 192 305 208 C 315 216 326 220 337 219 C 343 218 349 213 353 204 C 356 193 354 176 346 157 C 338 137 306 125 251 117 C 239 115 232 114 228 117 C 223 119 221 125 225 135 C 226 141 238 151 259 167 Z"/>
    <path class="bg" d="M 154 343 C 185 371 210 394 235 401 C 244 403 254 397 259 388 C 262 379 263 367 260 357 C 251 329 224 315 185 307 C 162 302 146 300 137 304 C 132 305 131 308 134 318 C 136 324 143 332 154 343 Z"/>
    <path class="bg" d="M 141 682 C 133 686 129 691 131 703 C 139 751 154 780 179 796 C 183 799 189 801 197 800 C 201 799 203 790 205 774 C 208 741 246 637 317 460 C 321 449 323 442 323 438 C 322 431 319 430 313 435 C 303 441 259 509 183 637 C 174 651 162 669 141 682 Z"/>
    <path class="bg" d="M 460 145 C 484 183 503 212 525 224 C 532 228 542 225 548 219 C 553 212 555 204 555 194 C 553 170 526 142 476 114 C 467 108 460 108 454 109 C 450 109 448 112 449 120 C 449 126 453 133 460 145 Z"/>
    <path class="bg" d="M 707 92 C 696 109 664 149 614 213 C 605 223 611 232 622 227 C 659 207 686 187 706 172 C 744 140 774 118 796 109 C 810 102 814 91 807 80 C 797 67 782 56 765 47 C 747 38 735 35 726 37 C 717 38 714 41 717 52 C 720 63 715 77 707 92 Z"/>
    <path class="bg" d="M 599 325 C 643 317 688 309 734 301 C 768 295 788 288 794 283 C 799 277 801 272 799 268 C 794 258 781 253 764 248 C 748 243 705 254 632 273 C 562 290 493 299 426 305 C 401 307 397 314 415 326 C 436 340 483 346 533 337 C 577 329 577 329 599 325 Z"/>
    <path class="bg" d="M 621 469 C 647 464 692 455 759 450 C 765 449 773 448 777 440 C 779 433 770 426 758 420 C 718 399 667 421 623 430 C 585 437 585 437 566 441 C 518 450 472 452 428 458 C 411 460 408 467 422 477 C 440 490 464 495 493 491 C 515 487 539 482 566 478 C 603 472 603 472 621 469 Z"/>
    <path class="bg" d="M 619 615 C 683 606 764 602 864 604 C 906 604 930 603 935 596 C 939 588 934 578 924 570 C 888 543 859 534 834 540 C 781 551 709 563 619 577 C 583 582 583 582 565 585 C 491 595 412 604 329 614 C 314 615 312 620 323 633 C 331 641 342 648 355 652 C 368 656 381 656 392 653 C 445 638 502 629 564 622 C 601 617 601 617 619 615 Z"/>
    <path class="bg" d="M 565 938 C 567 955 572 966 578 973 C 580 977 586 980 591 978 C 601 972 608 948 613 909 C 616 881 619 783 619 615 C 619 590 619 590 619 577 C 619 544 619 508 621 469 C 622 443 622 443 623 430 C 623 416 627 395 633 367 C 635 354 631 345 622 339 C 613 333 605 328 599 325 C 580 313 516 323 533 337 C 567 363 566 387 566 441 C 566 466 566 466 566 478 C 566 510 566 546 565 585 C 564 610 564 610 564 622 C 559 792 559 897 565 938 Z"/>
</g>
<g id="anim-layer">
    <path style="--d:1s; stroke:#FF4444;" pathLength="3333" clip-path="url(#z27915c1)" d="M 232 124 L 308 165 L 342 213"/>
    <path style="--d:2s; stroke:#FF4444;" pathLength="3333" clip-path="url(#z27915c2)" d="M 140 311 L 252 392"/>
    <path style="--d:3s; stroke:#FF4444;" pathLength="3333" clip-path="url(#z27915c3)" d="M 137 692 L 179 725 L 315 438"/>
    <path style="--d:4s; stroke:#000;" pathLength="3333" clip-path="url(#z27915c4)" d="M 458 114 L 537 220"/>
    <path style="--d:5s; stroke:#000;" pathLength="3333" clip-path="url(#z27915c5)" d="M 725 45 L 753 104 L 618 221"/>
    <path style="--d:6s; stroke:#000;" pathLength="3333" clip-path="url(#z27915c6)" d="M 414 315 L 796 268"/>
    <path style="--d:7s; stroke:#000;" pathLength="3333" clip-path="url(#z27915c7)" d="M 422 467 L 772 436"/>
    <path style="--d:8s; stroke:#000;" pathLength="3333" clip-path="url(#z27915c8)" d="M 322 620 L 381 631 L 845 571 L 930 590"/>
    <path style="--d:9s; stroke:#000;" pathLength="3333" clip-path="url(#z27915c9)" d="M 537 337 L 597 374 L 587 972"/>
</g>
</svg>