<svg id="z27931" class="acjk" viewBox="0 0 1024 1024" xmlns="http://www.w3.org/2000/svg">

<style>
<![CDATA[
@keyframes zk { to { stroke-dashoffset:0; } }
svg.acjk path[clip-path] {
    --t:0.8s;
    animation:zk var(--t) linear forwards var(--d);
    stroke-dasharray:3337;
    stroke-dashoffset:3339;
    stroke-width:128;
    stroke-linecap:round;
    fill:none;
}
/* Low opacity for background improves visual overlap at intersections */
svg.acjk .bg { fill:#ccc; opacity: 0.5; } 
]]>
</style>
<defs>
    <clipPath id="z27931c1"><path d="M 242 186 C 263 200 283 218 305 237 C 315 246 327 249 339 249 C 347 248 353 242 356 232 C 358 220 355 203 348 181 C 343 167 329 153 305 147 C 249 131 216 128 208 133 C 203 135 202 142 205 152 C 207 160 220 171 242 186 Z"/></clipPath>
    <clipPath id="z27931c2"><path d="M 139 380 C 174 410 204 436 234 445 C 244 448 254 442 259 432 C 263 422 262 411 259 400 C 249 371 220 352 174 343 C 145 337 128 336 121 339 C 116 340 115 344 118 354 C 120 362 127 370 139 380 Z"/></clipPath>
    <clipPath id="z27931c3"><path d="M 121 718 C 114 722 109 727 111 739 C 118 787 135 816 159 832 C 164 835 169 837 177 836 C 181 834 183 826 185 810 C 188 781 223 683 289 516 C 293 505 295 498 295 494 C 294 487 291 486 285 491 C 272 499 231 561 161 677 C 152 690 140 705 121 718 Z"/></clipPath>
    <clipPath id="z27931c4"><path d="M 535 223 C 562 184 580 156 596 142 C 602 135 603 127 601 119 C 598 110 588 98 570 84 C 553 71 538 65 527 66 C 514 66 510 74 516 88 C 527 116 506 172 451 256 C 425 294 395 336 359 379 C 353 385 348 390 347 394 C 344 400 347 404 357 403 C 369 401 399 381 440 337 C 452 324 452 324 458 317 C 479 293 502 267 519 245 C 530 230 530 230 535 223 Z"/></clipPath>
    <clipPath id="z27931c5"><path d="M 613 428 C 645 389 678 346 712 299 C 726 278 746 257 772 237 C 782 228 784 222 782 215 C 779 208 757 197 713 178 C 700 172 683 178 657 190 C 619 206 577 215 535 223 C 526 225 511 240 519 245 C 539 259 574 256 627 241 C 640 236 650 239 655 245 C 658 249 653 259 645 275 C 624 313 600 353 571 393 C 556 414 556 414 548 424 C 486 506 395 583 290 669 C 279 677 280 683 291 683 C 297 683 317 673 351 657 C 388 638 428 610 471 574 C 509 541 548 504 586 460 C 604 439 604 439 613 428 Z"/></clipPath>
    <clipPath id="z27931c6"><path d="M 586 460 C 632 504 685 561 758 615 C 767 621 780 622 796 622 C 855 618 909 612 958 602 C 982 596 993 591 991 585 C 989 580 926 567 806 536 C 748 520 682 485 613 428 C 585 405 585 405 571 393 C 554 379 538 364 523 350 C 500 329 478 318 458 317 C 449 316 432 334 440 337 C 462 347 498 376 548 424 C 573 448 573 448 586 460 Z"/></clipPath>
    <clipPath id="z27931c7"><path d="M 457 672 C 449 667 433 663 412 659 C 403 657 397 656 395 660 C 390 664 391 672 397 684 C 416 725 431 780 440 848 C 442 868 447 885 459 899 C 472 914 479 917 483 907 C 485 898 489 886 488 873 C 487 860 486 847 485 835 C 478 775 470 728 468 706 C 466 694 468 677 457 672 Z"/></clipPath>
    <clipPath id="z27931c8"><path d="M 723 818 C 743 764 766 730 791 711 C 805 699 806 684 795 672 C 784 660 758 645 722 626 C 710 619 678 626 627 641 C 579 654 522 663 457 672 C 445 674 456 708 468 706 C 608 686 671 673 683 678 C 695 682 696 700 694 711 C 685 747 676 779 666 809 C 659 827 716 836 723 818 Z"/></clipPath>
    <clipPath id="z27931c9"><path d="M 488 873 C 502 873 526 869 736 858 C 744 857 748 853 750 847 C 750 841 741 831 723 818 C 708 806 685 805 666 809 C 604 819 540 830 485 835 C 473 837 475 873 488 873 Z"/></clipPath>
</defs>
<g id="bg-layer">
    <path class="bg" d="M 242 186 C 263 200 283 218 305 237 C 315 246 327 249 339 249 C 347 248 353 242 356 232 C 358 220 355 203 348 181 C 343 167 329 153 305 147 C 249 131 216 128 208 133 C 203 135 202 142 205 152 C 207 160 220 171 242 186 Z"/>
    <path class="bg" d="M 139 380 C 174 410 204 436 234 445 C 244 448 254 442 259 432 C 263 422 262 411 259 400 C 249 371 220 352 174 343 C 145 337 128 336 121 339 C 116 340 115 344 118 354 C 120 362 127 370 139 380 Z"/>
    <path class="bg" d="M 121 718 C 114 722 109 727 111 739 C 118 787 135 816 159 832 C 164 835 169 837 177 836 C 181 834 183 826 185 810 C 188 781 223 683 289 516 C 293 505 295 498 295 494 C 294 487 291 486 285 491 C 272 499 231 561 161 677 C 152 690 140 705 121 718 Z"/>
    <path class="bg" d="M 535 223 C 562 184 580 156 596 142 C 602 135 603 127 601 119 C 598 110 588 98 570 84 C 553 71 538 65 527 66 C 514 66 510 74 516 88 C 527 116 506 172 451 256 C 425 294 395 336 359 379 C 353 385 348 390 347 394 C 344 400 347 404 357 403 C 369 401 399 381 440 337 C 452 324 452 324 458 317 C 479 293 502 267 519 245 C 530 230 530 230 535 223 Z"/>
    <path class="bg" d="M 613 428 C 645 389 678 346 712 299 C 726 278 746 257 772 237 C 782 228 784 222 782 215 C 779 208 757 197 713 178 C 700 172 683 178 657 190 C 619 206 577 215 535 223 C 526 225 511 240 519 245 C 539 259 574 256 627 241 C 640 236 650 239 655 245 C 658 249 653 259 645 275 C 624 313 600 353 571 393 C 556 414 556 414 548 424 C 486 506 395 583 290 669 C 279 677 280 683 291 683 C 297 683 317 673 351 657 C 388 638 428 610 471 574 C 509 541 548 504 586 460 C 604 439 604 439 613 428 Z"/>
    <path class="bg" d="M 586 460 C 632 504 685 561 758 615 C 767 621 780 622 796 622 C 855 618 909 612 958 602 C 982 596 993 591 991 585 C 989 580 926 567 806 536 C 748 520 682 485 613 428 C 585 405 585 405 571 393 C 554 379 538 364 523 350 C 500 329 478 318 458 317 C 449 316 432 334 440 337 C 462 347 498 376 548 424 C 573 448 573 448 586 460 Z"/>
    <path class="bg" d="M 457 672 C 449 667 433 663 412 659 C 403 657 397 656 395 660 C 390 664 391 672 397 684 C 416 725 431 780 440 848 C 442 868 447 885 459 899 C 472 914 479 917 483 907 C 485 898 489 886 488 873 C 487 860 486 847 485 835 C 478 775 470 728 468 706 C 466 694 468 677 457 672 Z"/>
    <path class="bg" d="M 723 818 C 743 764 766 730 791 711 C 805 699 806 684 795 672 C 784 660 758 645 722 626 C 710 619 678 626 627 641 C 579 654 522 663 457 672 C 445 674 456 708 468 706 C 608 686 671 673 683 678 C 695 682 696 700 694 711 C 685 747 676 779 666 809 C 659 827 716 836 723 818 Z"/>
    <path class="bg" d="M 488 873 C 502 873 526 869 736 858 C 744 857 748 853 750 847 C 750 841 741 831 723 818 C 708 806 685 805 666 809 C 604 819 540 830 485 835 C 473 837 475 873 488 873 Z"/>
</g>
<g id="anim-layer">
    <path style="--d:1s; stroke:#FF4444;" pathLength="3333" clip-path="url(#z27931c1)" d="M 210 143 L 309 190 L 342 244"/>
    <path style="--d:2s; stroke:#FF4444;" pathLength="3333" clip-path="url(#z27931c2)" d="M 121 347 L 255 432"/>
    <path style="--d:3s; stroke:#FF4444;" pathLength="3333" clip-path="url(#z27931c3)" d="M 116 732 L 167 781 L 289 497"/>
    <path style="--d:4s; stroke:#000;" pathLength="3333" clip-path="url(#z27931c4)" d="M 520 71 L 555 107 L 554 138 L 354 396"/>
    <path style="--d:5s; stroke:#000;" pathLength="3333" clip-path="url(#z27931c5)" d="M 524 241 L 682 211 L 726 241 L 512 504 L 293 675"/>
    <path style="--d:6s; stroke:#000;" pathLength="3333" clip-path="url(#z27931c6)" d="M 449 331 L 768 570 L 982 589"/>
    <path style="--d:7s; stroke:#000;" pathLength="3333" clip-path="url(#z27931c7)" d="M 401 662 L 438 703 L 474 906"/>
    <path style="--d:8s; stroke:#000;" pathLength="3333" clip-path="url(#z27931c8)" d="M 458 683 L 695 650 L 724 665 L 747 699 L 685 824"/>
    <path style="--d:9s; stroke:#000;" pathLength="3333" clip-path="url(#z27931c9)" d="M 479 855 L 744 839"/>
</g>
</svg>