<svg id="z27957" class="acjk" viewBox="0 0 1024 1024" xmlns="http://www.w3.org/2000/svg">

<style>
<![CDATA[
@keyframes zk { to { stroke-dashoffset:0; } }
svg.acjk path[clip-path] {
    --t:0.8s;
    animation:zk var(--t) linear forwards var(--d);
    stroke-dasharray:3337;
    stroke-dashoffset:3339;
    stroke-width:128;
    stroke-linecap:round;
    fill:none;
}
/* Low opacity for background improves visual overlap at intersections */
svg.acjk .bg { fill:#ccc; opacity: 0.5; } 
]]>
</style>
<defs>
    <clipPath id="z27957c1"><path d="M 231 184 C 251 200 271 219 293 241 C 303 251 314 255 326 255 C 334 254 340 249 344 239 C 347 228 346 211 339 189 C 334 174 321 160 298 151 C 244 129 211 122 200 129 C 195 131 193 138 196 148 C 197 156 210 168 231 184 Z"/></clipPath>
    <clipPath id="z27957c2"><path d="M 139 360 C 170 397 195 424 219 434 C 229 438 239 433 246 423 C 251 414 254 403 252 390 C 245 357 209 338 156 318 C 142 312 132 313 126 315 C 121 316 120 320 121 330 C 122 338 128 347 139 360 Z"/></clipPath>
    <clipPath id="z27957c3"><path d="M 148 750 C 140 754 136 760 139 772 C 150 824 169 854 193 867 C 198 870 203 872 211 871 C 215 870 217 861 219 843 C 221 814 231 779 245 737 C 292 591 315 516 315 514 C 315 507 311 506 305 511 C 295 517 259 580 192 696 C 176 723 160 741 148 750 Z"/></clipPath>
    <clipPath id="z27957c4"><path d="M 497 297 C 549 225 572 184 575 179 C 585 158 595 143 604 133 C 610 125 611 116 607 108 C 603 99 591 86 570 73 C 550 61 533 57 520 59 C 507 60 503 69 512 84 C 525 107 514 159 475 240 C 457 277 435 317 408 359 C 402 367 397 373 397 377 C 395 385 398 388 409 385 C 422 380 450 360 483 316 C 492 303 492 303 497 297 Z"/></clipPath>
    <clipPath id="z27957c5"><path d="M 483 316 C 507 326 528 329 547 324 C 569 317 631 304 734 287 C 750 284 762 286 770 295 C 782 309 789 334 790 368 C 792 474 791 563 783 633 C 775 691 763 741 748 783 C 741 799 734 811 725 815 C 721 816 695 805 647 784 C 640 781 635 780 634 783 C 631 786 635 793 644 805 C 668 838 681 871 695 898 C 706 920 721 926 733 923 C 766 912 797 865 821 780 C 836 722 847 598 854 410 C 855 361 861 328 875 312 C 885 299 884 285 869 275 C 823 243 784 235 754 244 C 686 262 600 279 497 297 C 489 298 476 313 483 316 Z"/></clipPath>
    <clipPath id="z27957c6"><path d="M 422 441 C 409 433 399 430 390 428 C 385 427 382 426 379 429 C 374 432 374 436 378 445 C 396 482 401 550 393 646 C 389 686 399 713 419 733 C 420 734 420 734 420 734 C 426 740 437 732 439 717 C 441 694 441 694 442 683 C 443 669 439 617 440 599 C 441 580 441 580 441 570 C 442 541 438 487 444 468 C 446 457 431 448 422 441 Z"/></clipPath>
    <clipPath id="z27957c7"><path d="M 573 704 C 573 706 575 709 577 712 C 585 730 592 738 598 738 C 606 737 616 727 626 707 C 634 691 638 677 638 665 C 627 559 630 492 649 466 C 655 457 657 448 652 443 C 636 427 613 414 585 403 C 576 399 564 400 550 406 C 530 413 485 431 422 441 C 411 443 432 468 444 468 C 446 468 450 468 454 467 C 520 450 560 441 566 448 C 573 456 576 479 577 510 C 579 600 576 653 572 671 C 571 671 571 671 571 672 C 567 682 569 694 573 704 Z"/></clipPath>
    <clipPath id="z27957c8"><path d="M 541 580 Q 563 574 554 563 Q 542 550 518 548 Q 482 545 441 570 C 433 575 430 601 440 599 C 507 586 507 586 541 580 Z"/></clipPath>
    <clipPath id="z27957c9"><path d="M 439 717 Q 449 718 459 716 Q 496 709 573 704 C 584 704 579 680 571 672 Q 568 668 562 665 Q 546 656 515 665 Q 475 675 442 683 C 431 685 428 717 439 717 Z"/></clipPath>
</defs>
<g id="bg-layer">
    <path class="bg" d="M 231 184 C 251 200 271 219 293 241 C 303 251 314 255 326 255 C 334 254 340 249 344 239 C 347 228 346 211 339 189 C 334 174 321 160 298 151 C 244 129 211 122 200 129 C 195 131 193 138 196 148 C 197 156 210 168 231 184 Z"/>
    <path class="bg" d="M 139 360 C 170 397 195 424 219 434 C 229 438 239 433 246 423 C 251 414 254 403 252 390 C 245 357 209 338 156 318 C 142 312 132 313 126 315 C 121 316 120 320 121 330 C 122 338 128 347 139 360 Z"/>
    <path class="bg" d="M 148 750 C 140 754 136 760 139 772 C 150 824 169 854 193 867 C 198 870 203 872 211 871 C 215 870 217 861 219 843 C 221 814 231 779 245 737 C 292 591 315 516 315 514 C 315 507 311 506 305 511 C 295 517 259 580 192 696 C 176 723 160 741 148 750 Z"/>
    <path class="bg" d="M 497 297 C 549 225 572 184 575 179 C 585 158 595 143 604 133 C 610 125 611 116 607 108 C 603 99 591 86 570 73 C 550 61 533 57 520 59 C 507 60 503 69 512 84 C 525 107 514 159 475 240 C 457 277 435 317 408 359 C 402 367 397 373 397 377 C 395 385 398 388 409 385 C 422 380 450 360 483 316 C 492 303 492 303 497 297 Z"/>
    <path class="bg" d="M 483 316 C 507 326 528 329 547 324 C 569 317 631 304 734 287 C 750 284 762 286 770 295 C 782 309 789 334 790 368 C 792 474 791 563 783 633 C 775 691 763 741 748 783 C 741 799 734 811 725 815 C 721 816 695 805 647 784 C 640 781 635 780 634 783 C 631 786 635 793 644 805 C 668 838 681 871 695 898 C 706 920 721 926 733 923 C 766 912 797 865 821 780 C 836 722 847 598 854 410 C 855 361 861 328 875 312 C 885 299 884 285 869 275 C 823 243 784 235 754 244 C 686 262 600 279 497 297 C 489 298 476 313 483 316 Z"/>
    <path class="bg" d="M 422 441 C 409 433 399 430 390 428 C 385 427 382 426 379 429 C 374 432 374 436 378 445 C 396 482 401 550 393 646 C 389 686 399 713 419 733 C 420 734 420 734 420 734 C 426 740 437 732 439 717 C 441 694 441 694 442 683 C 443 669 439 617 440 599 C 441 580 441 580 441 570 C 442 541 438 487 444 468 C 446 457 431 448 422 441 Z"/>
    <path class="bg" d="M 573 704 C 573 706 575 709 577 712 C 585 730 592 738 598 738 C 606 737 616 727 626 707 C 634 691 638 677 638 665 C 627 559 630 492 649 466 C 655 457 657 448 652 443 C 636 427 613 414 585 403 C 576 399 564 400 550 406 C 530 413 485 431 422 441 C 411 443 432 468 444 468 C 446 468 450 468 454 467 C 520 450 560 441 566 448 C 573 456 576 479 577 510 C 579 600 576 653 572 671 C 571 671 571 671 571 672 C 567 682 569 694 573 704 Z"/>
    <path class="bg" d="M 541 580 Q 563 574 554 563 Q 542 550 518 548 Q 482 545 441 570 C 433 575 430 601 440 599 C 507 586 507 586 541 580 Z"/>
    <path class="bg" d="M 439 717 Q 449 718 459 716 Q 496 709 573 704 C 584 704 579 680 571 672 Q 568 668 562 665 Q 546 656 515 665 Q 475 675 442 683 C 431 685 428 717 439 717 Z"/>
</g>
<g id="anim-layer">
    <path style="--d:1s; stroke:#FF4444;" pathLength="3333" clip-path="url(#z27957c1)" d="M 199 136 L 300 195 L 325 251"/>
    <path style="--d:2s; stroke:#FF4444;" pathLength="3333" clip-path="url(#z27957c2)" d="M 127 319 L 241 425"/>
    <path style="--d:3s; stroke:#FF4444;" pathLength="3333" clip-path="url(#z27957c3)" d="M 148 762 L 190 798 L 309 518"/>
    <path style="--d:4s; stroke:#000;" pathLength="3333" clip-path="url(#z27957c4)" d="M 516 67 L 562 124 L 406 378"/>
    <path style="--d:5s; stroke:#000;" pathLength="3333" clip-path="url(#z27957c5)" d="M 488 312 L 744 265 L 780 266 L 833 310 L 811 644 L 775 808 L 726 870 L 640 788"/>
    <path style="--d:6s; stroke:#000;" pathLength="3333" clip-path="url(#z27957c6)" d="M 384 437 L 417 478 L 421 728"/>
    <path style="--d:7s; stroke:#000;" pathLength="3333" clip-path="url(#z27957c7)" d="M 434 447 L 568 424 L 611 457 L 600 733"/>
    <path style="--d:8s; stroke:#000;" pathLength="3333" clip-path="url(#z27957c8)" d="M 449 590 L 552 563"/>
    <path style="--d:9s; stroke:#000;" pathLength="3333" clip-path="url(#z27957c9)" d="M 445 710 L 569 682"/>
</g>
</svg>