<svg id="z28006" class="acjk" viewBox="0 0 1024 1024" xmlns="http://www.w3.org/2000/svg">

<style>
<![CDATA[
@keyframes zk { to { stroke-dashoffset:0; } }
svg.acjk path[clip-path] {
    --t:0.8s;
    animation:zk var(--t) linear forwards var(--d);
    stroke-dasharray:3337;
    stroke-dashoffset:3339;
    stroke-width:128;
    stroke-linecap:round;
    fill:none;
}
/* Low opacity for background improves visual overlap at intersections */
svg.acjk .bg { fill:#ccc; opacity: 0.5; } 
]]>
</style>
<defs>
    <clipPath id="z28006c1"><path d="M 239 209 C 258 224 277 244 299 263 C 309 272 320 275 332 275 C 340 274 346 269 349 260 C 352 249 350 232 343 211 C 335 188 297 170 232 157 C 221 154 213 154 208 157 C 203 159 202 165 205 175 C 207 183 219 193 239 209 Z"/></clipPath>
    <clipPath id="z28006c2"><path d="M 139 404 C 180 445 208 473 230 482 C 240 485 249 480 255 471 C 259 462 261 452 259 441 C 252 410 215 385 152 365 C 141 361 132 362 125 364 C 121 364 120 369 121 378 C 122 386 128 393 139 404 Z"/></clipPath>
    <clipPath id="z28006c3"><path d="M 133 766 C 125 770 121 776 125 788 C 138 838 157 866 180 878 C 185 880 190 883 198 881 C 202 879 204 869 204 853 C 204 830 226 741 271 588 C 274 577 275 570 275 566 C 273 559 271 558 265 563 C 259 567 225 622 165 730 C 158 742 148 755 133 766 Z"/></clipPath>
    <clipPath id="z28006c4"><path d="M 609 337 C 692 322 785 314 887 314 C 901 313 909 311 912 305 C 915 297 911 288 901 281 C 868 258 840 251 817 257 C 768 269 690 287 610 302 C 572 309 572 309 553 312 C 495 322 434 331 371 343 C 358 345 356 351 366 361 C 374 369 385 374 397 377 C 409 379 421 380 431 377 C 467 364 508 355 553 347 C 590 340 590 340 609 337 Z"/></clipPath>
    <clipPath id="z28006c5"><path d="M 420 465 C 401 455 385 449 374 451 C 365 452 362 459 366 467 C 397 537 394 636 365 747 C 351 799 346 834 367 862 C 372 869 377 874 384 870 C 408 854 420 808 424 734 C 429 607 434 530 438 503 C 441 489 433 471 420 465 Z"/></clipPath>
    <clipPath id="z28006c6"><path d="M 608 465 C 640 458 675 453 712 447 C 727 444 736 446 745 454 C 750 458 756 473 759 503 C 767 601 769 707 766 820 C 765 836 762 847 756 852 C 747 858 721 860 676 857 C 665 856 660 859 662 865 C 662 869 668 871 677 876 C 719 898 750 921 773 941 C 786 953 798 958 806 956 C 814 953 821 943 827 925 C 836 896 839 860 836 818 C 818 611 815 496 827 472 C 833 458 833 448 828 441 C 820 431 802 419 772 405 C 759 399 747 397 736 401 C 707 409 666 424 608 436 C 571 443 571 443 553 447 C 509 455 464 459 420 465 C 406 468 425 508 438 503 C 462 495 500 486 553 476 C 590 469 590 469 608 465 Z"/></clipPath>
    <clipPath id="z28006c7"><path d="M 608 590 C 634 585 658 581 682 578 C 698 575 703 569 697 560 C 690 550 677 543 659 540 C 645 537 627 539 608 545 C 571 556 571 556 552 561 C 527 568 503 575 480 582 C 468 585 469 591 484 602 C 490 606 499 607 513 605 C 525 602 538 601 552 599 C 589 593 589 593 608 590 Z"/></clipPath>
    <clipPath id="z28006c8"><path d="M 606 717 C 636 712 665 708 693 705 C 709 703 714 697 709 688 C 702 677 689 670 671 667 C 655 664 633 667 607 674 C 570 683 570 683 551 687 C 524 693 498 700 472 706 C 460 708 460 715 475 726 C 481 730 492 733 508 731 C 522 729 536 727 550 725 C 587 720 587 720 606 717 Z"/></clipPath>
    <clipPath id="z28006c9"><path d="M 550 725 C 547 821 556 877 568 892 C 576 903 586 900 592 886 C 599 867 603 811 606 717 C 607 688 607 688 607 674 C 607 648 608 620 608 590 C 608 575 608 560 608 545 C 608 518 608 491 608 465 C 608 455 608 445 608 436 C 608 399 608 366 609 337 C 610 314 610 314 610 302 C 612 207 619 149 633 127 C 638 117 633 106 620 96 C 603 83 580 72 552 65 C 539 61 528 65 520 74 C 513 80 513 87 522 95 C 540 111 551 130 552 152 C 553 192 553 246 553 312 C 553 323 553 335 553 347 C 553 380 553 413 553 447 C 553 456 553 466 553 476 C 553 506 552 535 552 561 C 552 586 552 586 552 599 C 552 633 551 662 551 687 C 550 712 550 712 550 725 Z"/></clipPath>
    <clipPath id="z28006c10"><path d="M 739 144 C 761 157 783 174 806 191 C 815 198 826 200 836 199 C 842 198 847 193 849 184 C 851 174 847 160 839 142 C 833 129 821 117 798 111 C 746 97 715 95 708 101 C 705 103 703 109 706 117 C 707 123 719 132 739 144 Z"/></clipPath>
</defs>
<g id="bg-layer">
    <path class="bg" d="M 239 209 C 258 224 277 244 299 263 C 309 272 320 275 332 275 C 340 274 346 269 349 260 C 352 249 350 232 343 211 C 335 188 297 170 232 157 C 221 154 213 154 208 157 C 203 159 202 165 205 175 C 207 183 219 193 239 209 Z"/>
    <path class="bg" d="M 139 404 C 180 445 208 473 230 482 C 240 485 249 480 255 471 C 259 462 261 452 259 441 C 252 410 215 385 152 365 C 141 361 132 362 125 364 C 121 364 120 369 121 378 C 122 386 128 393 139 404 Z"/>
    <path class="bg" d="M 133 766 C 125 770 121 776 125 788 C 138 838 157 866 180 878 C 185 880 190 883 198 881 C 202 879 204 869 204 853 C 204 830 226 741 271 588 C 274 577 275 570 275 566 C 273 559 271 558 265 563 C 259 567 225 622 165 730 C 158 742 148 755 133 766 Z"/>
    <path class="bg" d="M 609 337 C 692 322 785 314 887 314 C 901 313 909 311 912 305 C 915 297 911 288 901 281 C 868 258 840 251 817 257 C 768 269 690 287 610 302 C 572 309 572 309 553 312 C 495 322 434 331 371 343 C 358 345 356 351 366 361 C 374 369 385 374 397 377 C 409 379 421 380 431 377 C 467 364 508 355 553 347 C 590 340 590 340 609 337 Z"/>
    <path class="bg" d="M 420 465 C 401 455 385 449 374 451 C 365 452 362 459 366 467 C 397 537 394 636 365 747 C 351 799 346 834 367 862 C 372 869 377 874 384 870 C 408 854 420 808 424 734 C 429 607 434 530 438 503 C 441 489 433 471 420 465 Z"/>
    <path class="bg" d="M 608 465 C 640 458 675 453 712 447 C 727 444 736 446 745 454 C 750 458 756 473 759 503 C 767 601 769 707 766 820 C 765 836 762 847 756 852 C 747 858 721 860 676 857 C 665 856 660 859 662 865 C 662 869 668 871 677 876 C 719 898 750 921 773 941 C 786 953 798 958 806 956 C 814 953 821 943 827 925 C 836 896 839 860 836 818 C 818 611 815 496 827 472 C 833 458 833 448 828 441 C 820 431 802 419 772 405 C 759 399 747 397 736 401 C 707 409 666 424 608 436 C 571 443 571 443 553 447 C 509 455 464 459 420 465 C 406 468 425 508 438 503 C 462 495 500 486 553 476 C 590 469 590 469 608 465 Z"/>
    <path class="bg" d="M 608 590 C 634 585 658 581 682 578 C 698 575 703 569 697 560 C 690 550 677 543 659 540 C 645 537 627 539 608 545 C 571 556 571 556 552 561 C 527 568 503 575 480 582 C 468 585 469 591 484 602 C 490 606 499 607 513 605 C 525 602 538 601 552 599 C 589 593 589 593 608 590 Z"/>
    <path class="bg" d="M 606 717 C 636 712 665 708 693 705 C 709 703 714 697 709 688 C 702 677 689 670 671 667 C 655 664 633 667 607 674 C 570 683 570 683 551 687 C 524 693 498 700 472 706 C 460 708 460 715 475 726 C 481 730 492 733 508 731 C 522 729 536 727 550 725 C 587 720 587 720 606 717 Z"/>
    <path class="bg" d="M 550 725 C 547 821 556 877 568 892 C 576 903 586 900 592 886 C 599 867 603 811 606 717 C 607 688 607 688 607 674 C 607 648 608 620 608 590 C 608 575 608 560 608 545 C 608 518 608 491 608 465 C 608 455 608 445 608 436 C 608 399 608 366 609 337 C 610 314 610 314 610 302 C 612 207 619 149 633 127 C 638 117 633 106 620 96 C 603 83 580 72 552 65 C 539 61 528 65 520 74 C 513 80 513 87 522 95 C 540 111 551 130 552 152 C 553 192 553 246 553 312 C 553 323 553 335 553 347 C 553 380 553 413 553 447 C 553 456 553 466 553 476 C 553 506 552 535 552 561 C 552 586 552 586 552 599 C 552 633 551 662 551 687 C 550 712 550 712 550 725 Z"/>
    <path class="bg" d="M 739 144 C 761 157 783 174 806 191 C 815 198 826 200 836 199 C 842 198 847 193 849 184 C 851 174 847 160 839 142 C 833 129 821 117 798 111 C 746 97 715 95 708 101 C 705 103 703 109 706 117 C 707 123 719 132 739 144 Z"/>
</g>
<g id="anim-layer">
    <path style="--d:1s; stroke:#FF4444;" pathLength="3333" clip-path="url(#z28006c1)" d="M 211 166 L 302 217 L 341 265"/>
    <path style="--d:2s; stroke:#FF4444;" pathLength="3333" clip-path="url(#z28006c2)" d="M 128 369 L 250 470"/>
    <path style="--d:3s; stroke:#FF4444;" pathLength="3333" clip-path="url(#z28006c3)" d="M 132 778 L 178 826 L 269 569"/>
    <path style="--d:4s; stroke:#000;" pathLength="3333" clip-path="url(#z28006c4)" d="M 365 350 L 825 285 L 908 294"/>
    <path style="--d:5s; stroke:#000;" pathLength="3333" clip-path="url(#z28006c5)" d="M 372 460 L 411 513 L 381 867"/>
    <path style="--d:6s; stroke:#000;" pathLength="3333" clip-path="url(#z28006c6)" d="M 428 470 L 735 423 L 792 459 L 799 860 L 774 909 L 671 863"/>
    <path style="--d:7s; stroke:#000;" pathLength="3333" clip-path="url(#z28006c7)" d="M 478 589 L 695 564"/>
    <path style="--d:8s; stroke:#000;" pathLength="3333" clip-path="url(#z28006c8)" d="M 472 713 L 705 689"/>
    <path style="--d:9s; stroke:#000;" pathLength="3333" clip-path="url(#z28006c9)" d="M 519 80 L 591 126 L 576 894"/>
    <path style="--d:10s; stroke:#000;" pathLength="3333" clip-path="url(#z28006c10)" d="M 713 107 L 841 188"/>
</g>
</svg>