<svg id="z28165" class="acjk" viewBox="0 0 1024 1024" xmlns="http://www.w3.org/2000/svg">

<style>
<![CDATA[
@keyframes zk { to { stroke-dashoffset:0; } }
svg.acjk path[clip-path] {
    --t:0.8s;
    animation:zk var(--t) linear forwards var(--d);
    stroke-dasharray:3337;
    stroke-dashoffset:3339;
    stroke-width:128;
    stroke-linecap:round;
    fill:none;
}
/* Low opacity for background improves visual overlap at intersections */
svg.acjk .bg { fill:#ccc; opacity: 0.5; } 
]]>
</style>
<defs>
    <clipPath id="z28165c1"><path d="M 217 191 Q 247 216 279 249 Q 294 262 311 262 Q 323 262 328 247 Q 334 231 324 199 Q 318 177 284 160 Q 206 130 188 137 Q 182 141 184 155 Q 188 168 217 191 Z"/></clipPath>
    <clipPath id="z28165c2"><path d="M 123 392 Q 180 450 214 466 Q 230 469 239 455 Q 245 442 242 425 Q 227 380 138 354 Q 137 353 136 353 Q 118 347 109 352 Q 103 353 106 366 Q 107 378 123 392 Z"/></clipPath>
    <clipPath id="z28165c3"><path d="M 137 754 C 130 758 125 763 127 775 C 134 823 151 852 175 868 C 180 871 185 873 193 872 C 197 871 199 862 201 846 C 204 813 244 707 317 528 C 321 517 323 510 323 506 C 322 499 319 498 313 503 C 306 507 298 514 291 526 C 251 590 215 651 180 708 C 171 722 158 740 137 754 Z"/></clipPath>
    <clipPath id="z28165c4"><path d="M 625 208 C 717 189 764 174 767 173 C 773 168 774 162 771 156 C 766 147 754 141 734 137 C 716 132 682 145 629 158 C 592 167 592 167 574 171 C 535 180 493 184 450 190 C 425 192 421 203 439 214 C 467 231 515 229 575 218 C 608 211 608 211 625 208 Z"/></clipPath>
    <clipPath id="z28165c5"><path d="M 617 319 C 699 301 741 291 743 290 C 747 285 749 280 747 275 C 743 267 731 261 714 257 C 692 251 662 263 620 275 C 590 283 590 283 575 287 C 560 290 503 297 465 302 C 442 304 439 313 455 323 C 475 335 505 342 574 328 C 603 322 603 322 617 319 Z"/></clipPath>
    <clipPath id="z28165c6"><path d="M 612 389 C 612 365 615 341 617 319 C 619 290 619 290 620 275 C 621 252 623 230 625 208 C 628 175 628 175 629 158 C 631 131 637 106 644 83 C 646 76 642 66 629 58 C 607 44 587 39 573 37 C 562 35 554 35 550 41 C 545 45 545 53 551 63 C 563 82 570 98 571 112 C 571 130 573 150 574 171 C 575 202 575 202 575 218 C 575 241 575 264 575 287 C 574 314 574 314 574 328 C 573 348 573 371 573 395 C 573 408 612 402 612 389 Z"/></clipPath>
    <clipPath id="z28165c7"><path d="M 573 395 C 500 406 422 417 340 430 C 326 432 324 438 335 449 C 343 457 353 464 366 467 C 379 470 392 470 402 467 C 540 424 713 403 921 403 C 922 403 923 403 924 403 C 936 403 945 400 948 394 C 951 387 947 378 937 370 C 903 344 873 337 849 343 C 793 355 650 383 612 389 C 586 393 586 393 573 395 Z"/></clipPath>
    <clipPath id="z28165c8"><path d="M 496 727 C 497 698 500 673 502 652 C 503 634 503 634 504 625 C 507 585 508 557 512 542 C 514 532 511 521 504 514 C 489 499 471 491 451 494 C 442 495 439 501 443 509 C 469 567 463 667 439 785 C 430 825 418 843 418 845 C 414 861 421 879 436 902 C 441 909 445 913 452 910 C 480 892 487 847 494 766 C 494 762 494 758 495 754 C 496 736 496 736 496 727 Z"/></clipPath>
    <clipPath id="z28165c9"><path d="M 512 542 C 518 541 527 538 538 536 C 622 514 672 507 686 514 C 694 517 697 528 699 546 C 706 660 708 762 703 852 C 701 870 696 881 685 884 C 678 885 659 883 626 875 C 617 872 613 873 614 879 C 614 885 620 890 630 898 C 653 917 670 939 687 961 C 695 971 705 978 716 977 C 726 975 738 957 754 926 C 770 893 777 860 775 828 C 769 749 765 673 759 600 C 756 571 759 544 773 522 C 780 510 781 501 771 492 C 758 481 738 472 713 463 C 697 457 685 458 673 465 C 661 471 644 477 621 484 C 568 499 529 508 504 514 C 494 516 502 544 512 542 Z"/></clipPath>
    <clipPath id="z28165c10"><path d="M 502 652 C 505 652 508 652 512 652 C 532 649 595 640 631 635 C 645 632 650 626 645 619 C 638 610 627 603 611 601 C 594 598 558 607 504 625 C 496 628 493 652 502 652 Z"/></clipPath>
    <clipPath id="z28165c11"><path d="M 495 754 C 498 754 501 754 505 754 C 558 749 596 743 634 740 C 648 738 654 732 649 724 C 642 713 630 707 613 704 C 593 700 554 707 496 727 C 488 730 486 754 495 754 Z"/></clipPath>
</defs>
<g id="bg-layer">
    <path class="bg" d="M 217 191 Q 247 216 279 249 Q 294 262 311 262 Q 323 262 328 247 Q 334 231 324 199 Q 318 177 284 160 Q 206 130 188 137 Q 182 141 184 155 Q 188 168 217 191 Z"/>
    <path class="bg" d="M 123 392 Q 180 450 214 466 Q 230 469 239 455 Q 245 442 242 425 Q 227 380 138 354 Q 137 353 136 353 Q 118 347 109 352 Q 103 353 106 366 Q 107 378 123 392 Z"/>
    <path class="bg" d="M 137 754 C 130 758 125 763 127 775 C 134 823 151 852 175 868 C 180 871 185 873 193 872 C 197 871 199 862 201 846 C 204 813 244 707 317 528 C 321 517 323 510 323 506 C 322 499 319 498 313 503 C 306 507 298 514 291 526 C 251 590 215 651 180 708 C 171 722 158 740 137 754 Z"/>
    <path class="bg" d="M 625 208 C 717 189 764 174 767 173 C 773 168 774 162 771 156 C 766 147 754 141 734 137 C 716 132 682 145 629 158 C 592 167 592 167 574 171 C 535 180 493 184 450 190 C 425 192 421 203 439 214 C 467 231 515 229 575 218 C 608 211 608 211 625 208 Z"/>
    <path class="bg" d="M 617 319 C 699 301 741 291 743 290 C 747 285 749 280 747 275 C 743 267 731 261 714 257 C 692 251 662 263 620 275 C 590 283 590 283 575 287 C 560 290 503 297 465 302 C 442 304 439 313 455 323 C 475 335 505 342 574 328 C 603 322 603 322 617 319 Z"/>
    <path class="bg" d="M 612 389 C 612 365 615 341 617 319 C 619 290 619 290 620 275 C 621 252 623 230 625 208 C 628 175 628 175 629 158 C 631 131 637 106 644 83 C 646 76 642 66 629 58 C 607 44 587 39 573 37 C 562 35 554 35 550 41 C 545 45 545 53 551 63 C 563 82 570 98 571 112 C 571 130 573 150 574 171 C 575 202 575 202 575 218 C 575 241 575 264 575 287 C 574 314 574 314 574 328 C 573 348 573 371 573 395 C 573 408 612 402 612 389 Z"/>
    <path class="bg" d="M 573 395 C 500 406 422 417 340 430 C 326 432 324 438 335 449 C 343 457 353 464 366 467 C 379 470 392 470 402 467 C 540 424 713 403 921 403 C 922 403 923 403 924 403 C 936 403 945 400 948 394 C 951 387 947 378 937 370 C 903 344 873 337 849 343 C 793 355 650 383 612 389 C 586 393 586 393 573 395 Z"/>
    <path class="bg" d="M 496 727 C 497 698 500 673 502 652 C 503 634 503 634 504 625 C 507 585 508 557 512 542 C 514 532 511 521 504 514 C 489 499 471 491 451 494 C 442 495 439 501 443 509 C 469 567 463 667 439 785 C 430 825 418 843 418 845 C 414 861 421 879 436 902 C 441 909 445 913 452 910 C 480 892 487 847 494 766 C 494 762 494 758 495 754 C 496 736 496 736 496 727 Z"/>
    <path class="bg" d="M 512 542 C 518 541 527 538 538 536 C 622 514 672 507 686 514 C 694 517 697 528 699 546 C 706 660 708 762 703 852 C 701 870 696 881 685 884 C 678 885 659 883 626 875 C 617 872 613 873 614 879 C 614 885 620 890 630 898 C 653 917 670 939 687 961 C 695 971 705 978 716 977 C 726 975 738 957 754 926 C 770 893 777 860 775 828 C 769 749 765 673 759 600 C 756 571 759 544 773 522 C 780 510 781 501 771 492 C 758 481 738 472 713 463 C 697 457 685 458 673 465 C 661 471 644 477 621 484 C 568 499 529 508 504 514 C 494 516 502 544 512 542 Z"/>
    <path class="bg" d="M 502 652 C 505 652 508 652 512 652 C 532 649 595 640 631 635 C 645 632 650 626 645 619 C 638 610 627 603 611 601 C 594 598 558 607 504 625 C 496 628 493 652 502 652 Z"/>
    <path class="bg" d="M 495 754 C 498 754 501 754 505 754 C 558 749 596 743 634 740 C 648 738 654 732 649 724 C 642 713 630 707 613 704 C 593 700 554 707 496 727 C 488 730 486 754 495 754 Z"/>
</g>
<g id="anim-layer">
    <path style="--d:1s; stroke:#FF4444;" pathLength="3333" clip-path="url(#z28165c1)" d="M 191 143 L 326 247"/>
    <path style="--d:2s; stroke:#FF4444;" pathLength="3333" clip-path="url(#z28165c2)" d="M 112 356 L 235 453"/>
    <path style="--d:3s; stroke:#FF4444;" pathLength="3333" clip-path="url(#z28165c3)" d="M 131 764 L 184 811 L 315 509"/>
    <path style="--d:4s; stroke:#000;" pathLength="3333" clip-path="url(#z28165c4)" d="M 434 199 L 546 200 L 767 158"/>
    <path style="--d:5s; stroke:#000;" pathLength="3333" clip-path="url(#z28165c5)" d="M 453 311 L 744 279"/>
    <path style="--d:6s; stroke:#000;" pathLength="3333" clip-path="url(#z28165c6)" d="M 551 44 L 606 87 L 594 399"/>
    <path style="--d:7s; stroke:#000;" pathLength="3333" clip-path="url(#z28165c7)" d="M 336 437 L 402 444 L 841 374 L 943 385"/>
    <path style="--d:8s; stroke:#000;" pathLength="3333" clip-path="url(#z28165c8)" d="M 449 503 L 483 537 L 483 595 L 446 906"/>
    <path style="--d:9s; stroke:#000;" pathLength="3333" clip-path="url(#z28165c9)" d="M 504 527 L 689 486 L 736 514 L 733 881 L 697 930 L 620 881"/>
    <path style="--d:10s; stroke:#000;" pathLength="3333" clip-path="url(#z28165c10)" d="M 501 642 L 642 618"/>
    <path style="--d:11s; stroke:#000;" pathLength="3333" clip-path="url(#z28165c11)" d="M 494 745 L 646 726"/>
</g>
</svg>