<svg id="z28383" class="acjk" viewBox="0 0 1024 1024" xmlns="http://www.w3.org/2000/svg">

<style>
<![CDATA[
@keyframes zk { to { stroke-dashoffset:0; } }
svg.acjk path[clip-path] {
    --t:0.8s;
    animation:zk var(--t) linear forwards var(--d);
    stroke-dasharray:3337;
    stroke-dashoffset:3339;
    stroke-width:128;
    stroke-linecap:round;
    fill:none;
}
/* Low opacity for background improves visual overlap at intersections */
svg.acjk .bg { fill:#ccc; opacity: 0.5; } 
]]>
</style>
<defs>
    <clipPath id="z28383c1"><path d="M 206 195 C 222 207 239 222 257 239 C 262 244 293 266 305 236 C 308 225 305 209 298 189 C 289 166 256 153 199 145 C 188 143 180 142 176 145 C 171 147 170 153 173 163 C 175 169 186 180 206 195 Z"/></clipPath>
    <clipPath id="z28383c2"><path d="M 123 372 C 154 406 178 432 202 441 C 223 448 236 424 231 401 C 224 372 182 354 137 334 C 126 329 118 329 109 332 C 105 332 103 337 105 346 C 105 353 113 361 123 372 Z"/></clipPath>
    <clipPath id="z28383c3"><path d="M 111 726 C 103 730 98 736 102 748 C 116 799 136 827 156 838 C 171 845 179 829 181 814 C 183 777 216 678 267 512 C 271 497 276 458 244 510 C 226 540 193 597 148 683 C 140 696 130 713 111 726 Z"/></clipPath>
    <clipPath id="z28383c4"><path d="M 446 323 C 512 305 546 293 549 291 C 553 286 566 268 515 259 C 489 254 468 265 446 273 C 415 283 415 283 400 288 C 387 292 361 302 287 315 C 263 318 261 329 278 338 C 324 362 357 346 400 335 C 431 327 431 327 446 323 Z"/></clipPath>
    <clipPath id="z28383c5"><path d="M 444 458 C 488 445 511 437 513 436 C 523 427 515 413 483 408 C 468 405 456 407 445 412 C 414 423 414 423 398 428 C 349 444 316 448 305 451 C 284 455 281 463 298 472 C 344 494 375 476 397 471 C 428 462 428 462 444 458 Z"/></clipPath>
    <clipPath id="z28383c6"><path d="M 445 603 C 462 598 492 594 522 586 C 528 584 558 571 517 554 C 494 544 470 545 444 555 C 411 566 411 566 395 572 C 363 582 319 590 265 604 C 246 608 245 615 261 625 C 303 650 350 627 394 616 C 428 607 428 607 445 603 Z"/></clipPath>
    <clipPath id="z28383c7"><path d="M 444 555 C 443 522 443 490 444 458 C 445 427 445 427 445 412 C 445 384 446 354 446 323 C 446 290 446 290 446 273 C 446 243 450 204 460 157 C 462 145 458 136 449 130 C 428 115 412 108 402 106 C 387 102 361 107 373 128 C 401 178 400 232 400 288 C 400 319 400 319 400 335 C 400 363 398 393 398 428 C 397 457 397 457 397 471 C 396 501 395 535 395 572 C 394 601 394 601 394 616 C 391 741 384 828 393 878 C 405 948 435 931 440 855 C 441 824 447 740 445 603 C 444 571 444 571 444 555 Z"/></clipPath>
    <clipPath id="z28383c8"><path d="M 660 279 C 708 213 717 187 734 168 C 739 161 739 153 737 146 C 734 139 724 129 707 117 C 691 106 677 101 666 103 C 655 104 651 112 658 124 C 682 167 598 305 556 365 C 532 398 557 389 574 377 C 605 357 634 314 646 298 C 655 285 655 285 660 279 Z"/></clipPath>
    <clipPath id="z28383c9"><path d="M 716 423 C 770 349 807 301 831 284 C 841 276 843 269 835 262 C 826 254 810 244 785 235 C 774 230 765 235 757 240 C 726 256 692 266 660 279 C 653 282 639 296 646 298 C 660 304 688 299 732 287 C 743 283 744 289 741 300 C 726 338 698 398 689 430 C 686 439 710 430 716 423 Z"/></clipPath>
    <clipPath id="z28383c10"><path d="M 835 563 C 851 510 870 478 889 462 C 900 451 901 436 890 428 C 845 392 804 387 769 404 C 751 412 733 418 716 423 C 698 428 698 428 689 430 C 656 438 623 445 590 451 C 579 453 591 483 602 481 C 626 475 651 469 677 464 C 701 459 701 459 713 456 C 765 444 794 439 801 445 C 810 453 805 492 789 561 C 786 576 832 578 835 563 Z"/></clipPath>
    <clipPath id="z28383c11"><path d="M 677 464 C 677 468 678 509 679 589 C 679 602 714 593 716 580 C 726 471 746 489 713 456 C 704 447 677 452 677 464 Z"/></clipPath>
    <clipPath id="z28383c12"><path d="M 588 633 C 614 638 657 619 852 599 C 875 595 856 571 835 563 C 821 557 804 558 789 561 C 788 561 788 561 787 561 C 761 567 737 574 716 580 C 691 586 691 586 679 589 C 646 596 616 599 589 605 C 580 607 579 631 588 633 Z"/></clipPath>
    <clipPath id="z28383c13"><path d="M 962 773 C 952 754 939 716 929 658 C 925 638 917 626 911 652 C 894 714 880 755 869 774 C 860 786 843 796 817 803 C 757 818 699 816 646 795 C 624 786 612 772 606 759 C 590 728 586 687 588 633 C 589 614 589 614 589 605 C 590 566 595 525 602 482 C 604 471 599 458 590 451 C 571 435 521 415 536 456 C 544 481 548 507 548 532 C 543 662 548 744 559 780 C 564 797 572 814 589 828 C 646 874 732 885 847 865 C 887 857 923 839 956 814 C 968 803 970 789 962 773 Z"/></clipPath>
</defs>
<g id="bg-layer">
    <path class="bg" d="M 206 195 C 222 207 239 222 257 239 C 262 244 293 266 305 236 C 308 225 305 209 298 189 C 289 166 256 153 199 145 C 188 143 180 142 176 145 C 171 147 170 153 173 163 C 175 169 186 180 206 195 Z"/>
    <path class="bg" d="M 123 372 C 154 406 178 432 202 441 C 223 448 236 424 231 401 C 224 372 182 354 137 334 C 126 329 118 329 109 332 C 105 332 103 337 105 346 C 105 353 113 361 123 372 Z"/>
    <path class="bg" d="M 111 726 C 103 730 98 736 102 748 C 116 799 136 827 156 838 C 171 845 179 829 181 814 C 183 777 216 678 267 512 C 271 497 276 458 244 510 C 226 540 193 597 148 683 C 140 696 130 713 111 726 Z"/>
    <path class="bg" d="M 446 323 C 512 305 546 293 549 291 C 553 286 566 268 515 259 C 489 254 468 265 446 273 C 415 283 415 283 400 288 C 387 292 361 302 287 315 C 263 318 261 329 278 338 C 324 362 357 346 400 335 C 431 327 431 327 446 323 Z"/>
    <path class="bg" d="M 444 458 C 488 445 511 437 513 436 C 523 427 515 413 483 408 C 468 405 456 407 445 412 C 414 423 414 423 398 428 C 349 444 316 448 305 451 C 284 455 281 463 298 472 C 344 494 375 476 397 471 C 428 462 428 462 444 458 Z"/>
    <path class="bg" d="M 445 603 C 462 598 492 594 522 586 C 528 584 558 571 517 554 C 494 544 470 545 444 555 C 411 566 411 566 395 572 C 363 582 319 590 265 604 C 246 608 245 615 261 625 C 303 650 350 627 394 616 C 428 607 428 607 445 603 Z"/>
    <path class="bg" d="M 444 555 C 443 522 443 490 444 458 C 445 427 445 427 445 412 C 445 384 446 354 446 323 C 446 290 446 290 446 273 C 446 243 450 204 460 157 C 462 145 458 136 449 130 C 428 115 412 108 402 106 C 387 102 361 107 373 128 C 401 178 400 232 400 288 C 400 319 400 319 400 335 C 400 363 398 393 398 428 C 397 457 397 457 397 471 C 396 501 395 535 395 572 C 394 601 394 601 394 616 C 391 741 384 828 393 878 C 405 948 435 931 440 855 C 441 824 447 740 445 603 C 444 571 444 571 444 555 Z"/>
    <path class="bg" d="M 660 279 C 708 213 717 187 734 168 C 739 161 739 153 737 146 C 734 139 724 129 707 117 C 691 106 677 101 666 103 C 655 104 651 112 658 124 C 682 167 598 305 556 365 C 532 398 557 389 574 377 C 605 357 634 314 646 298 C 655 285 655 285 660 279 Z"/>
    <path class="bg" d="M 716 423 C 770 349 807 301 831 284 C 841 276 843 269 835 262 C 826 254 810 244 785 235 C 774 230 765 235 757 240 C 726 256 692 266 660 279 C 653 282 639 296 646 298 C 660 304 688 299 732 287 C 743 283 744 289 741 300 C 726 338 698 398 689 430 C 686 439 710 430 716 423 Z"/>
    <path class="bg" d="M 835 563 C 851 510 870 478 889 462 C 900 451 901 436 890 428 C 845 392 804 387 769 404 C 751 412 733 418 716 423 C 698 428 698 428 689 430 C 656 438 623 445 590 451 C 579 453 591 483 602 481 C 626 475 651 469 677 464 C 701 459 701 459 713 456 C 765 444 794 439 801 445 C 810 453 805 492 789 561 C 786 576 832 578 835 563 Z"/>
    <path class="bg" d="M 677 464 C 677 468 678 509 679 589 C 679 602 714 593 716 580 C 726 471 746 489 713 456 C 704 447 677 452 677 464 Z"/>
    <path class="bg" d="M 588 633 C 614 638 657 619 852 599 C 875 595 856 571 835 563 C 821 557 804 558 789 561 C 788 561 788 561 787 561 C 761 567 737 574 716 580 C 691 586 691 586 679 589 C 646 596 616 599 589 605 C 580 607 579 631 588 633 Z"/>
    <path class="bg" d="M 962 773 C 952 754 939 716 929 658 C 925 638 917 626 911 652 C 894 714 880 755 869 774 C 860 786 843 796 817 803 C 757 818 699 816 646 795 C 624 786 612 772 606 759 C 590 728 586 687 588 633 C 589 614 589 614 589 605 C 590 566 595 525 602 482 C 604 471 599 458 590 451 C 571 435 521 415 536 456 C 544 481 548 507 548 532 C 543 662 548 744 559 780 C 564 797 572 814 589 828 C 646 874 732 885 847 865 C 887 857 923 839 956 814 C 968 803 970 789 962 773 Z"/>
</g>
<g id="anim-layer">
    <path style="--d:1s; stroke:#FF4444;" pathLength="3333" clip-path="url(#z28383c1)" d="M 176 152 L 260 195 L 296 243"/>
    <path style="--d:2s; stroke:#FF4444;" pathLength="3333" clip-path="url(#z28383c2)" d="M 111 335 L 221 433"/>
    <path style="--d:3s; stroke:#FF4444;" pathLength="3333" clip-path="url(#z28383c3)" d="M 105 740 L 167 778 L 264 490"/>
    <path style="--d:4s; stroke:#000;" pathLength="3333" clip-path="url(#z28383c4)" d="M 274 324 L 548 284"/>
    <path style="--d:5s; stroke:#000;" pathLength="3333" clip-path="url(#z28383c5)" d="M 294 460 L 510 423"/>
    <path style="--d:6s; stroke:#000;" pathLength="3333" clip-path="url(#z28383c6)" d="M 257 612 L 534 568"/>
    <path style="--d:7s; stroke:#000;" pathLength="3333" clip-path="url(#z28383c7)" d="M 377 113 L 426 164 L 416 917"/>
    <path style="--d:8s; stroke:#000;" pathLength="3333" clip-path="url(#z28383c8)" d="M 664 110 L 698 148 L 689 181 L 554 379"/>
    <path style="--d:9s; stroke:#000;" pathLength="3333" clip-path="url(#z28383c9)" d="M 649 294 L 757 262 L 790 278 L 697 428"/>
    <path style="--d:10s; stroke:#000;" pathLength="3333" clip-path="url(#z28383c10)" d="M 593 460 L 823 423 L 851 459 L 812 572"/>
    <path style="--d:11s; stroke:#000;" pathLength="3333" clip-path="url(#z28383c11)" d="M 685 458 L 704 496 L 690 592"/>
    <path style="--d:12s; stroke:#000;" pathLength="3333" clip-path="url(#z28383c12)" d="M 586 621 L 858 585"/>
    <path style="--d:13s; stroke:#000;" pathLength="3333" clip-path="url(#z28383c13)" d="M 541 442 L 572 475 L 575 748 L 631 821 L 760 843 L 890 810 L 922 776 L 920 648"/>
</g>
</svg>