<svg id="z28394" class="acjk" viewBox="0 0 1024 1024" xmlns="http://www.w3.org/2000/svg">

<style>
<![CDATA[
@keyframes zk { to { stroke-dashoffset:0; } }
svg.acjk path[clip-path] {
    --t:0.8s;
    animation:zk var(--t) linear forwards var(--d);
    stroke-dasharray:3337;
    stroke-dashoffset:3339;
    stroke-width:128;
    stroke-linecap:round;
    fill:none;
}
/* Low opacity for background improves visual overlap at intersections */
svg.acjk .bg { fill:#ccc; opacity: 0.5; } 
]]>
</style>
<defs>
    <clipPath id="z28394c1"><path d="M 185 187 C 201 201 217 218 235 236 C 244 246 255 250 267 250 C 275 249 280 244 284 235 C 287 224 288 208 281 187 C 273 164 238 147 180 134 C 169 131 161 130 156 133 C 151 135 150 141 152 151 C 154 159 166 171 185 187 Z"/></clipPath>
    <clipPath id="z28394c2"><path d="M 130 384 C 163 417 188 442 212 451 C 222 454 231 448 237 439 C 241 430 242 420 240 409 C 232 382 199 360 142 344 C 130 340 121 341 115 344 C 111 345 110 349 112 358 C 113 365 119 373 130 384 Z"/></clipPath>
    <clipPath id="z28394c3"><path d="M 115 746 C 108 751 104 755 107 767 C 118 815 136 842 159 854 C 164 856 169 858 176 857 C 180 855 181 847 182 830 C 184 791 215 688 271 523 C 274 512 275 505 275 502 C 273 495 271 494 265 499 C 258 503 221 570 153 700 C 145 714 134 732 115 746 Z"/></clipPath>
    <clipPath id="z28394c4"><path d="M 456 286 C 509 231 546 199 566 190 C 576 186 579 179 576 169 C 574 161 555 146 520 125 C 510 120 500 120 489 125 C 459 137 431 151 396 162 C 385 166 364 168 335 167 C 322 167 318 173 323 185 C 327 191 335 198 345 205 C 361 215 378 214 395 202 C 445 177 480 160 489 167 C 497 172 498 178 495 186 C 479 214 462 245 444 278 C 442 282 453 290 456 286 Z"/></clipPath>
    <clipPath id="z28394c5"><path d="M 444 278 Q 439 272 390 257 Q 378 254 374 256 Q 371 260 372 270 Q 374 277 393 294 Q 416 316 441 341 Q 450 351 462 350 Q 470 350 472 340 Q 476 330 470 305 Q 466 295 456 286 C 448 281 448 281 444 278 Z"/></clipPath>
    <clipPath id="z28394c6"><path d="M 426 404 C 450 399 474 390 500 388 C 520 386 530 393 530 403 C 530 411 526 433 516 468 C 513 477 514 482 517 484 C 521 486 526 483 532 476 C 564 437 575 422 585 414 C 594 406 601 397 599 390 C 596 379 571 356 560 348 C 550 341 536 345 523 349 C 476 364 423 379 391 385 C 372 389 350 392 286 402 C 273 404 271 411 281 424 C 289 435 305 437 330 429 C 360 420 377 414 394 410 C 415 406 415 406 426 404 Z"/></clipPath>
    <clipPath id="z28394c7"><path d="M 365 784 Q 343 774 313 766 Q 302 763 303 770 Q 304 777 312 785 Q 372 835 408 873 Q 417 881 429 868 Q 460 816 455 702 Q 450 575 457 463 Q 462 439 458 430 Q 452 420 426 404 C 417 398 392 399 394 410 Q 408 495 408 504 Q 408 759 402 778 Q 399 781 399 785 Q 390 792 365 784 Z"/></clipPath>
    <clipPath id="z28394c8"><path d="M 736 181 C 872 156 921 141 925 137 C 931 133 932 128 929 122 C 925 116 916 109 900 104 C 888 99 867 107 795 126 C 718 146 656 152 613 156 C 593 157 590 165 604 176 C 624 191 656 195 700 187 C 724 183 724 183 736 181 Z"/></clipPath>
    <clipPath id="z28394c9"><path d="M 698 320 Q 701 313 708 305 Q 721 283 736 256 Q 742 243 754 227 Q 765 217 758 207 Q 752 194 736 181 C 727 172 698 175 700 187 Q 706 214 677 304 Q 674 316 671 325 C 668 333 694 328 698 320 Z"/></clipPath>
    <clipPath id="z28394c10"><path d="M 654 325 Q 638 312 620 306 Q 613 305 608 310 Q 605 314 611 325 Q 645 415 622 582 Q 609 638 612 656 Q 620 684 629 695 Q 638 707 645 695 Q 664 665 665 492 Q 665 378 668 350 C 670 341 662 331 654 325 Z"/></clipPath>
    <clipPath id="z28394c11"><path d="M 829 641 C 825 656 828 670 835 684 C 843 703 849 712 855 712 C 863 711 871 700 881 679 C 888 663 894 648 892 634 C 886 577 881 505 880 416 C 879 391 885 368 898 346 C 903 336 904 327 899 322 C 885 306 863 293 836 280 C 829 278 817 277 805 284 C 786 294 715 317 698 320 C 680 323 680 323 671 325 C 665 326 659 325 654 325 C 644 325 658 350 668 350 C 674 351 699 346 745 334 C 784 323 811 318 818 327 C 827 340 831 371 833 414 C 838 541 836 617 829 641 Z"/></clipPath>
    <clipPath id="z28394c12"><path d="M 720 485 C 720 635 699 740 652 796 C 644 805 634 813 623 822 C 602 840 568 860 520 881 C 513 884 508 885 506 887 C 504 889 506 894 514 895 C 557 901 610 881 671 837 C 683 828 692 817 701 806 C 735 760 755 680 761 567 C 763 519 768 484 776 460 C 779 454 778 449 773 444 C 764 434 750 425 732 417 C 720 411 711 409 702 412 C 693 416 692 424 700 434 C 714 451 720 468 720 485 Z"/></clipPath>
    <clipPath id="z28394c13"><path d="M 787 763 C 816 799 849 842 883 893 C 892 907 899 917 908 920 C 913 921 918 918 923 913 C 931 905 931 887 926 859 C 924 844 920 831 911 820 C 901 807 882 793 857 776 C 828 756 806 743 791 734 C 785 730 782 731 781 739 C 780 748 782 756 787 763 Z"/></clipPath>
</defs>
<g id="bg-layer">
    <path class="bg" d="M 185 187 C 201 201 217 218 235 236 C 244 246 255 250 267 250 C 275 249 280 244 284 235 C 287 224 288 208 281 187 C 273 164 238 147 180 134 C 169 131 161 130 156 133 C 151 135 150 141 152 151 C 154 159 166 171 185 187 Z"/>
    <path class="bg" d="M 130 384 C 163 417 188 442 212 451 C 222 454 231 448 237 439 C 241 430 242 420 240 409 C 232 382 199 360 142 344 C 130 340 121 341 115 344 C 111 345 110 349 112 358 C 113 365 119 373 130 384 Z"/>
    <path class="bg" d="M 115 746 C 108 751 104 755 107 767 C 118 815 136 842 159 854 C 164 856 169 858 176 857 C 180 855 181 847 182 830 C 184 791 215 688 271 523 C 274 512 275 505 275 502 C 273 495 271 494 265 499 C 258 503 221 570 153 700 C 145 714 134 732 115 746 Z"/>
    <path class="bg" d="M 456 286 C 509 231 546 199 566 190 C 576 186 579 179 576 169 C 574 161 555 146 520 125 C 510 120 500 120 489 125 C 459 137 431 151 396 162 C 385 166 364 168 335 167 C 322 167 318 173 323 185 C 327 191 335 198 345 205 C 361 215 378 214 395 202 C 445 177 480 160 489 167 C 497 172 498 178 495 186 C 479 214 462 245 444 278 C 442 282 453 290 456 286 Z"/>
    <path class="bg" d="M 444 278 Q 439 272 390 257 Q 378 254 374 256 Q 371 260 372 270 Q 374 277 393 294 Q 416 316 441 341 Q 450 351 462 350 Q 470 350 472 340 Q 476 330 470 305 Q 466 295 456 286 C 448 281 448 281 444 278 Z"/>
    <path class="bg" d="M 426 404 C 450 399 474 390 500 388 C 520 386 530 393 530 403 C 530 411 526 433 516 468 C 513 477 514 482 517 484 C 521 486 526 483 532 476 C 564 437 575 422 585 414 C 594 406 601 397 599 390 C 596 379 571 356 560 348 C 550 341 536 345 523 349 C 476 364 423 379 391 385 C 372 389 350 392 286 402 C 273 404 271 411 281 424 C 289 435 305 437 330 429 C 360 420 377 414 394 410 C 415 406 415 406 426 404 Z"/>
    <path class="bg" d="M 365 784 Q 343 774 313 766 Q 302 763 303 770 Q 304 777 312 785 Q 372 835 408 873 Q 417 881 429 868 Q 460 816 455 702 Q 450 575 457 463 Q 462 439 458 430 Q 452 420 426 404 C 417 398 392 399 394 410 Q 408 495 408 504 Q 408 759 402 778 Q 399 781 399 785 Q 390 792 365 784 Z"/>
    <path class="bg" d="M 736 181 C 872 156 921 141 925 137 C 931 133 932 128 929 122 C 925 116 916 109 900 104 C 888 99 867 107 795 126 C 718 146 656 152 613 156 C 593 157 590 165 604 176 C 624 191 656 195 700 187 C 724 183 724 183 736 181 Z"/>
    <path class="bg" d="M 698 320 Q 701 313 708 305 Q 721 283 736 256 Q 742 243 754 227 Q 765 217 758 207 Q 752 194 736 181 C 727 172 698 175 700 187 Q 706 214 677 304 Q 674 316 671 325 C 668 333 694 328 698 320 Z"/>
    <path class="bg" d="M 654 325 Q 638 312 620 306 Q 613 305 608 310 Q 605 314 611 325 Q 645 415 622 582 Q 609 638 612 656 Q 620 684 629 695 Q 638 707 645 695 Q 664 665 665 492 Q 665 378 668 350 C 670 341 662 331 654 325 Z"/>
    <path class="bg" d="M 829 641 C 825 656 828 670 835 684 C 843 703 849 712 855 712 C 863 711 871 700 881 679 C 888 663 894 648 892 634 C 886 577 881 505 880 416 C 879 391 885 368 898 346 C 903 336 904 327 899 322 C 885 306 863 293 836 280 C 829 278 817 277 805 284 C 786 294 715 317 698 320 C 680 323 680 323 671 325 C 665 326 659 325 654 325 C 644 325 658 350 668 350 C 674 351 699 346 745 334 C 784 323 811 318 818 327 C 827 340 831 371 833 414 C 838 541 836 617 829 641 Z"/>
    <path class="bg" d="M 720 485 C 720 635 699 740 652 796 C 644 805 634 813 623 822 C 602 840 568 860 520 881 C 513 884 508 885 506 887 C 504 889 506 894 514 895 C 557 901 610 881 671 837 C 683 828 692 817 701 806 C 735 760 755 680 761 567 C 763 519 768 484 776 460 C 779 454 778 449 773 444 C 764 434 750 425 732 417 C 720 411 711 409 702 412 C 693 416 692 424 700 434 C 714 451 720 468 720 485 Z"/>
    <path class="bg" d="M 787 763 C 816 799 849 842 883 893 C 892 907 899 917 908 920 C 913 921 918 918 923 913 C 931 905 931 887 926 859 C 924 844 920 831 911 820 C 901 807 882 793 857 776 C 828 756 806 743 791 734 C 785 730 782 731 781 739 C 780 748 782 756 787 763 Z"/>
</g>
<g id="anim-layer">
    <path style="--d:1s; stroke:#FF4444;" pathLength="3333" clip-path="url(#z28394c1)" d="M 157 141 L 248 198 L 269 245"/>
    <path style="--d:2s; stroke:#FF4444;" pathLength="3333" clip-path="url(#z28394c2)" d="M 117 350 L 233 440"/>
    <path style="--d:3s; stroke:#FF4444;" pathLength="3333" clip-path="url(#z28394c3)" d="M 111 758 L 168 802 L 269 505"/>
    <path style="--d:4s; stroke:#000;" pathLength="3333" clip-path="url(#z28394c4)" d="M 326 177 L 377 188 L 496 144 L 529 165 L 536 180 L 452 281"/>
    <path style="--d:5s; stroke:#000;" pathLength="3333" clip-path="url(#z28394c5)" d="M 379 264 L 469 339"/>
    <path style="--d:6s; stroke:#000;" pathLength="3333" clip-path="url(#z28394c6)" d="M 280 412 L 544 372 L 564 395 L 519 476"/>
    <path style="--d:7s; stroke:#000;" pathLength="3333" clip-path="url(#z28394c7)" d="M 401 411 L 430 448 L 424 799 L 401 832 L 310 773"/>
    <path style="--d:8s; stroke:#000;" pathLength="3333" clip-path="url(#z28394c8)" d="M 606 165 L 925 126"/>
    <path style="--d:9s; stroke:#000;" pathLength="3333" clip-path="url(#z28394c9)" d="M 708 183 L 729 219 L 679 325"/>
    <path style="--d:10s; stroke:#000;" pathLength="3333" clip-path="url(#z28394c10)" d="M 615 311 L 644 347 L 640 694"/>
    <path style="--d:11s; stroke:#000;" pathLength="3333" clip-path="url(#z28394c11)" d="M 658 331 L 819 301 L 858 328 L 849 704"/>
    <path style="--d:12s; stroke:#000;" pathLength="3333" clip-path="url(#z28394c12)" d="M 702 418 L 747 460 L 707 744 L 640 834 L 515 889"/>
    <path style="--d:13s; stroke:#000;" pathLength="3333" clip-path="url(#z28394c13)" d="M 786 740 L 884 838 L 914 914"/>
</g>
</svg>