<svg id="z28435" class="acjk" viewBox="0 0 1024 1024" xmlns="http://www.w3.org/2000/svg">

<style>
<![CDATA[
@keyframes zk { to { stroke-dashoffset:0; } }
svg.acjk path[clip-path] {
    --t:0.8s;
    animation:zk var(--t) linear forwards var(--d);
    stroke-dasharray:3337;
    stroke-dashoffset:3339;
    stroke-width:128;
    stroke-linecap:round;
    fill:none;
}
/* Low opacity for background improves visual overlap at intersections */
svg.acjk .bg { fill:#ccc; opacity: 0.5; } 
]]>
</style>
<defs>
    <clipPath id="z28435c1"><path d="M 222 191 C 237 206 252 225 269 245 C 282 260 310 271 320 247 C 324 236 324 219 320 196 C 317 183 306 169 285 159 C 237 135 207 127 196 133 C 191 135 189 142 191 152 C 192 160 204 172 222 191 Z"/></clipPath>
    <clipPath id="z28435c2"><path d="M 114 386 C 140 421 159 453 185 466 C 210 478 220 444 219 429 C 215 397 183 371 132 349 C 121 344 112 342 106 344 C 100 345 96 361 114 386 Z"/></clipPath>
    <clipPath id="z28435c3"><path d="M 118 738 C 111 743 106 747 110 759 C 123 807 140 830 161 841 C 179 850 185 833 186 818 C 187 787 217 682 279 495 C 291 457 271 461 254 495 C 218 562 188 628 158 688 C 150 704 138 722 118 738 Z"/></clipPath>
    <clipPath id="z28435c4"><path d="M 543 101 C 558 114 572 131 589 148 C 604 163 626 169 637 147 C 641 137 637 121 633 101 C 629 88 619 77 599 69 C 552 50 524 43 516 49 C 496 60 531 91 543 101 Z"/></clipPath>
    <clipPath id="z28435c5"><path d="M 621 238 C 663 229 731 216 755 202 C 774 189 744 174 726 170 C 711 166 668 181 595 200 C 503 222 449 227 436 230 C 413 233 410 241 427 251 C 450 264 489 265 542 254 C 558 250 576 246 596 243 C 613 240 613 240 621 238 Z"/></clipPath>
    <clipPath id="z28435c6"><path d="M 600 345 C 612 330 627 311 644 288 C 666 255 657 249 621 238 C 613 235 594 235 596 243 C 601 268 575 316 564 332 C 551 350 551 350 544 359 C 541 361 517 389 490 415 C 469 434 477 437 500 427 C 519 419 562 386 573 375 C 591 355 591 355 600 345 Z"/></clipPath>
    <clipPath id="z28435c7"><path d="M 573 375 C 613 397 639 413 654 422 C 686 440 679 411 667 388 C 658 372 637 358 600 345 C 576 336 576 336 564 332 C 528 319 500 311 480 307 C 475 306 473 308 474 313 C 474 317 477 322 484 326 C 502 335 521 346 544 359 C 563 370 563 370 573 375 Z"/></clipPath>
    <clipPath id="z28435c8"><path d="M 710 436 C 609 446 521 461 446 482 C 433 485 429 478 431 464 C 438 404 442 372 433 360 C 417 339 394 327 379 331 C 372 332 372 340 377 351 C 389 379 394 408 391 437 C 388 464 381 485 370 497 C 359 507 356 516 361 524 C 366 532 374 540 385 547 C 392 551 400 552 405 547 C 446 497 678 465 708 467 C 718 467 720 436 710 436 Z"/></clipPath>
    <clipPath id="z28435c9"><path d="M 708 467 Q 709 486 714 501 Q 718 517 733 509 Q 760 488 781 410 Q 803 359 814 350 Q 824 337 817 322 Q 801 303 774 279 Q 764 270 750 274 Q 743 275 742 289 Q 751 305 742 366 Q 732 403 717 424 Q 713 428 710 436 C 706 446 708 457 708 467 Z"/></clipPath>
    <clipPath id="z28435c10"><path d="M 347 636 C 335 624 288 598 302 637 C 314 672 321 734 306 828 C 303 842 302 855 308 868 C 314 880 322 891 332 899 C 346 910 354 886 357 876 C 359 865 360 842 361 808 C 361 723 364 680 369 677 C 375 663 359 645 347 636 Z"/></clipPath>
    <clipPath id="z28435c11"><path d="M 566 625 C 624 612 708 604 764 602 C 776 601 797 604 795 636 C 786 748 786 812 779 828 C 774 837 767 840 757 839 C 736 836 714 836 692 835 C 672 834 669 841 686 852 C 732 883 766 910 787 935 C 793 943 802 946 811 939 C 832 920 845 870 850 792 C 854 706 860 654 874 637 C 884 623 886 613 883 608 C 876 599 856 584 822 562 C 808 552 798 549 788 554 C 768 562 740 569 705 574 C 658 580 617 585 582 592 C 542 599 542 599 522 603 C 495 607 404 625 347 636 C 332 639 353 677 369 677 C 375 677 381 675 388 673 C 418 660 459 647 514 636 C 549 629 549 629 566 625 Z"/></clipPath>
    <clipPath id="z28435c12"><path d="M 617 719 C 597 720 569 733 528 740 C 522 740 518 737 518 734 C 517 731 532 695 566 625 C 577 603 577 603 582 592 C 596 561 616 552 590 531 C 567 512 548 503 532 502 C 504 500 501 515 513 528 C 523 538 531 565 522 603 C 517 625 517 625 514 636 C 497 703 476 738 462 747 C 438 759 430 777 436 799 C 438 806 440 813 445 819 C 451 828 462 832 468 821 C 478 798 622 741 628 740 C 635 737 625 719 617 719 Z"/></clipPath>
    <clipPath id="z28435c13"><path d="M 628 740 Q 649 794 673 802 Q 686 806 696 791 Q 702 779 698 758 Q 694 736 671 718 Q 637 685 620 676 Q 613 672 608 682 Q 605 688 617 719 C 624 733 624 733 628 740 Z"/></clipPath>
</defs>
<g id="bg-layer">
    <path class="bg" d="M 222 191 C 237 206 252 225 269 245 C 282 260 310 271 320 247 C 324 236 324 219 320 196 C 317 183 306 169 285 159 C 237 135 207 127 196 133 C 191 135 189 142 191 152 C 192 160 204 172 222 191 Z"/>
    <path class="bg" d="M 114 386 C 140 421 159 453 185 466 C 210 478 220 444 219 429 C 215 397 183 371 132 349 C 121 344 112 342 106 344 C 100 345 96 361 114 386 Z"/>
    <path class="bg" d="M 118 738 C 111 743 106 747 110 759 C 123 807 140 830 161 841 C 179 850 185 833 186 818 C 187 787 217 682 279 495 C 291 457 271 461 254 495 C 218 562 188 628 158 688 C 150 704 138 722 118 738 Z"/>
    <path class="bg" d="M 543 101 C 558 114 572 131 589 148 C 604 163 626 169 637 147 C 641 137 637 121 633 101 C 629 88 619 77 599 69 C 552 50 524 43 516 49 C 496 60 531 91 543 101 Z"/>
    <path class="bg" d="M 621 238 C 663 229 731 216 755 202 C 774 189 744 174 726 170 C 711 166 668 181 595 200 C 503 222 449 227 436 230 C 413 233 410 241 427 251 C 450 264 489 265 542 254 C 558 250 576 246 596 243 C 613 240 613 240 621 238 Z"/>
    <path class="bg" d="M 600 345 C 612 330 627 311 644 288 C 666 255 657 249 621 238 C 613 235 594 235 596 243 C 601 268 575 316 564 332 C 551 350 551 350 544 359 C 541 361 517 389 490 415 C 469 434 477 437 500 427 C 519 419 562 386 573 375 C 591 355 591 355 600 345 Z"/>
    <path class="bg" d="M 573 375 C 613 397 639 413 654 422 C 686 440 679 411 667 388 C 658 372 637 358 600 345 C 576 336 576 336 564 332 C 528 319 500 311 480 307 C 475 306 473 308 474 313 C 474 317 477 322 484 326 C 502 335 521 346 544 359 C 563 370 563 370 573 375 Z"/>
    <path class="bg" d="M 710 436 C 609 446 521 461 446 482 C 433 485 429 478 431 464 C 438 404 442 372 433 360 C 417 339 394 327 379 331 C 372 332 372 340 377 351 C 389 379 394 408 391 437 C 388 464 381 485 370 497 C 359 507 356 516 361 524 C 366 532 374 540 385 547 C 392 551 400 552 405 547 C 446 497 678 465 708 467 C 718 467 720 436 710 436 Z"/>
    <path class="bg" d="M 708 467 Q 709 486 714 501 Q 718 517 733 509 Q 760 488 781 410 Q 803 359 814 350 Q 824 337 817 322 Q 801 303 774 279 Q 764 270 750 274 Q 743 275 742 289 Q 751 305 742 366 Q 732 403 717 424 Q 713 428 710 436 C 706 446 708 457 708 467 Z"/>
    <path class="bg" d="M 347 636 C 335 624 288 598 302 637 C 314 672 321 734 306 828 C 303 842 302 855 308 868 C 314 880 322 891 332 899 C 346 910 354 886 357 876 C 359 865 360 842 361 808 C 361 723 364 680 369 677 C 375 663 359 645 347 636 Z"/>
    <path class="bg" d="M 566 625 C 624 612 708 604 764 602 C 776 601 797 604 795 636 C 786 748 786 812 779 828 C 774 837 767 840 757 839 C 736 836 714 836 692 835 C 672 834 669 841 686 852 C 732 883 766 910 787 935 C 793 943 802 946 811 939 C 832 920 845 870 850 792 C 854 706 860 654 874 637 C 884 623 886 613 883 608 C 876 599 856 584 822 562 C 808 552 798 549 788 554 C 768 562 740 569 705 574 C 658 580 617 585 582 592 C 542 599 542 599 522 603 C 495 607 404 625 347 636 C 332 639 353 677 369 677 C 375 677 381 675 388 673 C 418 660 459 647 514 636 C 549 629 549 629 566 625 Z"/>
    <path class="bg" d="M 617 719 C 597 720 569 733 528 740 C 522 740 518 737 518 734 C 517 731 532 695 566 625 C 577 603 577 603 582 592 C 596 561 616 552 590 531 C 567 512 548 503 532 502 C 504 500 501 515 513 528 C 523 538 531 565 522 603 C 517 625 517 625 514 636 C 497 703 476 738 462 747 C 438 759 430 777 436 799 C 438 806 440 813 445 819 C 451 828 462 832 468 821 C 478 798 622 741 628 740 C 635 737 625 719 617 719 Z"/>
    <path class="bg" d="M 628 740 Q 649 794 673 802 Q 686 806 696 791 Q 702 779 698 758 Q 694 736 671 718 Q 637 685 620 676 Q 613 672 608 682 Q 605 688 617 719 C 624 733 624 733 628 740 Z"/>
</g>
<g id="anim-layer">
    <path style="--d:1s; stroke:#FF4444;" pathLength="3333" clip-path="url(#z28435c1)" d="M 196 138 L 282 202 L 310 254"/>
    <path style="--d:2s; stroke:#FF4444;" pathLength="3333" clip-path="url(#z28435c2)" d="M 110 348 L 204 463"/>
    <path style="--d:3s; stroke:#FF4444;" pathLength="3333" clip-path="url(#z28435c3)" d="M 111 749 L 167 786 L 275 475"/>
    <path style="--d:4s; stroke:#000;" pathLength="3333" clip-path="url(#z28435c4)" d="M 516 58 L 597 106 L 629 154"/>
    <path style="--d:5s; stroke:#000;" pathLength="3333" clip-path="url(#z28435c5)" d="M 424 238 L 754 191"/>
    <path style="--d:6s; stroke:#000;" pathLength="3333" clip-path="url(#z28435c6)" d="M 602 247 L 621 274 L 600 312 L 485 427"/>
    <path style="--d:7s; stroke:#000;" pathLength="3333" clip-path="url(#z28435c7)" d="M 480 314 L 671 419"/>
    <path style="--d:8s; stroke:#000;" pathLength="3333" clip-path="url(#z28435c8)" d="M 381 338 L 413 380 L 394 495 L 420 516 L 522 479 L 713 455"/>
    <path style="--d:9s; stroke:#000;" pathLength="3333" clip-path="url(#z28435c9)" d="M 749 279 L 782 339 L 725 508"/>
    <path style="--d:10s; stroke:#000;" pathLength="3333" clip-path="url(#z28435c10)" d="M 307 622 L 340 672 L 331 896"/>
    <path style="--d:11s; stroke:#000;" pathLength="3333" clip-path="url(#z28435c11)" d="M 350 644 L 796 580 L 839 624 L 804 863 L 782 892 L 684 842"/>
    <path style="--d:12s; stroke:#000;" pathLength="3333" clip-path="url(#z28435c12)" d="M 513 509 L 562 564 L 483 777 L 624 733"/>
    <path style="--d:13s; stroke:#000;" pathLength="3333" clip-path="url(#z28435c13)" d="M 617 680 L 685 798"/>
</g>
</svg>