<svg id="z28556" class="acjk" viewBox="0 0 1024 1024" xmlns="http://www.w3.org/2000/svg">

<style>
<![CDATA[
@keyframes zk { to { stroke-dashoffset:0; } }
svg.acjk path[clip-path] {
    --t:0.8s;
    animation:zk var(--t) linear forwards var(--d);
    stroke-dasharray:3337;
    stroke-dashoffset:3339;
    stroke-width:128;
    stroke-linecap:round;
    fill:none;
}
/* Low opacity for background improves visual overlap at intersections */
svg.acjk .bg { fill:#ccc; opacity: 0.5; } 
]]>
</style>
<defs>
    <clipPath id="z28556c1"><path d="M 180 207 C 194 221 208 237 223 254 C 224 256 254 284 269 255 C 273 245 271 230 267 210 C 262 192 233 174 178 159 C 167 156 159 155 156 157 C 151 159 150 165 152 174 C 153 180 163 191 180 207 Z"/></clipPath>
    <clipPath id="z28556c2"><path d="M 106 389 C 131 419 151 444 174 453 C 192 460 208 439 204 413 C 201 396 191 383 180 375 C 171 369 151 360 120 350 C 109 346 100 345 94 348 C 89 349 87 353 89 362 C 89 369 96 377 106 389 Z"/></clipPath>
    <clipPath id="z28556c3"><path d="M 95 745 C 87 749 84 754 86 766 C 94 811 111 839 134 855 C 148 864 157 848 159 833 C 162 794 196 695 258 535 C 262 523 268 474 235 534 C 211 575 182 619 134 703 C 125 716 114 732 95 745 Z"/></clipPath>
    <clipPath id="z28556c4"><path d="M 553 290 C 561 288 609 278 619 270 C 634 255 613 243 590 237 C 578 233 566 233 556 237 C 523 248 523 248 506 253 C 478 261 442 274 395 282 C 365 287 365 287 350 289 C 335 291 319 291 304 294 C 281 297 278 305 295 315 C 310 323 330 332 353 329 C 381 325 381 325 395 323 C 431 317 468 308 506 300 C 537 293 537 293 553 290 Z"/></clipPath>
    <clipPath id="z28556c5"><path d="M 395 282 C 395 253 401 224 408 194 C 409 187 404 178 392 172 C 371 160 353 155 339 154 C 324 152 307 161 320 179 C 335 201 346 237 350 289 C 352 316 352 316 353 329 C 359 411 358 500 358 596 C 358 608 394 601 394 589 C 394 589 394 541 394 518 C 394 499 394 499 394 490 C 394 471 394 452 394 433 C 394 412 394 412 394 401 C 394 374 395 348 395 323 C 395 296 395 296 395 282 Z"/></clipPath>
    <clipPath id="z28556c6"><path d="M 537 559 C 543 466 548 376 553 290 C 555 255 555 255 556 237 C 557 206 562 163 578 110 C 579 103 576 93 562 84 C 538 69 518 63 502 60 C 487 57 462 62 478 88 C 511 142 506 192 506 253 C 506 284 506 284 506 300 C 506 384 501 474 495 568 C 495 582 537 573 537 559 Z"/></clipPath>
    <clipPath id="z28556c7"><path d="M 394 433 C 407 433 416 430 475 417 C 506 409 481 386 450 386 C 435 385 416 391 394 401 C 384 405 383 433 394 433 Z"/></clipPath>
    <clipPath id="z28556c8"><path d="M 470 507 C 501 500 477 479 448 477 C 434 475 416 480 394 490 C 385 493 385 518 394 518 C 412 518 427 515 470 507 Z"/></clipPath>
    <clipPath id="z28556c9"><path d="M 358 596 C 329 601 292 605 257 608 C 238 609 235 623 253 637 C 277 655 303 659 329 651 C 413 623 503 601 601 591 C 626 588 619 569 602 561 C 586 553 564 553 537 559 C 509 565 509 565 495 568 C 454 576 420 583 394 589 C 370 594 370 594 358 596 Z"/></clipPath>
    <clipPath id="z28556c10"><path d="M 336 686 C 332 716 296 766 224 833 C 212 843 214 848 230 843 C 305 814 377 736 400 715 C 409 706 416 687 380 678 C 364 673 338 662 336 686 Z"/></clipPath>
    <clipPath id="z28556c11"><path d="M 470 685 C 482 701 493 720 506 740 C 510 746 525 763 538 747 C 542 740 543 729 543 715 C 542 704 536 691 522 680 C 488 654 467 644 460 646 C 457 646 455 650 455 657 C 454 662 460 672 470 685 Z"/></clipPath>
    <clipPath id="z28556c12"><path d="M 688 340 C 785 281 818 255 853 242 C 898 223 842 189 825 178 C 793 157 781 160 778 181 C 768 235 712 279 680 318 C 674 324 682 345 688 340 Z"/></clipPath>
    <clipPath id="z28556c13"><path d="M 683 436 C 683 377 686 346 688 340 C 690 332 686 323 680 318 C 632 286 590 289 612 320 C 628 343 634 384 635 440 C 640 639 599 730 500 833 C 490 843 452 881 513 853 C 651 780 683 604 683 466 C 683 446 683 446 683 436 Z"/></clipPath>
    <clipPath id="z28556c14"><path d="M 812 447 C 828 442 877 429 961 417 C 980 414 982 397 953 382 C 925 367 896 373 865 386 C 811 407 744 420 683 436 C 673 438 673 466 683 466 C 706 468 737 465 763 459 C 796 451 796 451 812 447 Z"/></clipPath>
    <clipPath id="z28556c15"><path d="M 787 928 C 796 970 816 998 831 901 C 835 867 836 824 836 786 C 833 653 835 532 847 487 C 852 465 828 454 812 447 C 796 441 757 443 763 459 C 786 503 783 561 784 611 C 785 806 780 899 787 928 Z"/></clipPath>
</defs>
<g id="bg-layer">
    <path class="bg" d="M 180 207 C 194 221 208 237 223 254 C 224 256 254 284 269 255 C 273 245 271 230 267 210 C 262 192 233 174 178 159 C 167 156 159 155 156 157 C 151 159 150 165 152 174 C 153 180 163 191 180 207 Z"/>
    <path class="bg" d="M 106 389 C 131 419 151 444 174 453 C 192 460 208 439 204 413 C 201 396 191 383 180 375 C 171 369 151 360 120 350 C 109 346 100 345 94 348 C 89 349 87 353 89 362 C 89 369 96 377 106 389 Z"/>
    <path class="bg" d="M 95 745 C 87 749 84 754 86 766 C 94 811 111 839 134 855 C 148 864 157 848 159 833 C 162 794 196 695 258 535 C 262 523 268 474 235 534 C 211 575 182 619 134 703 C 125 716 114 732 95 745 Z"/>
    <path class="bg" d="M 553 290 C 561 288 609 278 619 270 C 634 255 613 243 590 237 C 578 233 566 233 556 237 C 523 248 523 248 506 253 C 478 261 442 274 395 282 C 365 287 365 287 350 289 C 335 291 319 291 304 294 C 281 297 278 305 295 315 C 310 323 330 332 353 329 C 381 325 381 325 395 323 C 431 317 468 308 506 300 C 537 293 537 293 553 290 Z"/>
    <path class="bg" d="M 395 282 C 395 253 401 224 408 194 C 409 187 404 178 392 172 C 371 160 353 155 339 154 C 324 152 307 161 320 179 C 335 201 346 237 350 289 C 352 316 352 316 353 329 C 359 411 358 500 358 596 C 358 608 394 601 394 589 C 394 589 394 541 394 518 C 394 499 394 499 394 490 C 394 471 394 452 394 433 C 394 412 394 412 394 401 C 394 374 395 348 395 323 C 395 296 395 296 395 282 Z"/>
    <path class="bg" d="M 537 559 C 543 466 548 376 553 290 C 555 255 555 255 556 237 C 557 206 562 163 578 110 C 579 103 576 93 562 84 C 538 69 518 63 502 60 C 487 57 462 62 478 88 C 511 142 506 192 506 253 C 506 284 506 284 506 300 C 506 384 501 474 495 568 C 495 582 537 573 537 559 Z"/>
    <path class="bg" d="M 394 433 C 407 433 416 430 475 417 C 506 409 481 386 450 386 C 435 385 416 391 394 401 C 384 405 383 433 394 433 Z"/>
    <path class="bg" d="M 470 507 C 501 500 477 479 448 477 C 434 475 416 480 394 490 C 385 493 385 518 394 518 C 412 518 427 515 470 507 Z"/>
    <path class="bg" d="M 358 596 C 329 601 292 605 257 608 C 238 609 235 623 253 637 C 277 655 303 659 329 651 C 413 623 503 601 601 591 C 626 588 619 569 602 561 C 586 553 564 553 537 559 C 509 565 509 565 495 568 C 454 576 420 583 394 589 C 370 594 370 594 358 596 Z"/>
    <path class="bg" d="M 336 686 C 332 716 296 766 224 833 C 212 843 214 848 230 843 C 305 814 377 736 400 715 C 409 706 416 687 380 678 C 364 673 338 662 336 686 Z"/>
    <path class="bg" d="M 470 685 C 482 701 493 720 506 740 C 510 746 525 763 538 747 C 542 740 543 729 543 715 C 542 704 536 691 522 680 C 488 654 467 644 460 646 C 457 646 455 650 455 657 C 454 662 460 672 470 685 Z"/>
    <path class="bg" d="M 688 340 C 785 281 818 255 853 242 C 898 223 842 189 825 178 C 793 157 781 160 778 181 C 768 235 712 279 680 318 C 674 324 682 345 688 340 Z"/>
    <path class="bg" d="M 683 436 C 683 377 686 346 688 340 C 690 332 686 323 680 318 C 632 286 590 289 612 320 C 628 343 634 384 635 440 C 640 639 599 730 500 833 C 490 843 452 881 513 853 C 651 780 683 604 683 466 C 683 446 683 446 683 436 Z"/>
    <path class="bg" d="M 812 447 C 828 442 877 429 961 417 C 980 414 982 397 953 382 C 925 367 896 373 865 386 C 811 407 744 420 683 436 C 673 438 673 466 683 466 C 706 468 737 465 763 459 C 796 451 796 451 812 447 Z"/>
    <path class="bg" d="M 787 928 C 796 970 816 998 831 901 C 835 867 836 824 836 786 C 833 653 835 532 847 487 C 852 465 828 454 812 447 C 796 441 757 443 763 459 C 786 503 783 561 784 611 C 785 806 780 899 787 928 Z"/>
</g>
<g id="anim-layer">
    <path style="--d:1s; stroke:#FF4444;" pathLength="3333" clip-path="url(#z28556c1)" d="M 158 164 L 260 261"/>
    <path style="--d:2s; stroke:#FF4444;" pathLength="3333" clip-path="url(#z28556c2)" d="M 95 357 L 193 447"/>
    <path style="--d:3s; stroke:#FF4444;" pathLength="3333" clip-path="url(#z28556c3)" d="M 89 760 L 145 797 L 256 514"/>
    <path style="--d:4s; stroke:#000;" pathLength="3333" clip-path="url(#z28556c4)" d="M 291 301 L 366 307 L 620 258"/>
    <path style="--d:5s; stroke:#000;" pathLength="3333" clip-path="url(#z28556c5)" d="M 322 160 L 373 204 L 371 600"/>
    <path style="--d:6s; stroke:#000;" pathLength="3333" clip-path="url(#z28556c6)" d="M 479 72 L 538 118 L 513 572"/>
    <path style="--d:7s; stroke:#000;" pathLength="3333" clip-path="url(#z28556c7)" d="M 388 421 L 483 406"/>
    <path style="--d:8s; stroke:#000;" pathLength="3333" clip-path="url(#z28556c8)" d="M 391 508 L 479 496"/>
    <path style="--d:9s; stroke:#000;" pathLength="3333" clip-path="url(#z28556c9)" d="M 247 621 L 313 628 L 611 574"/>
    <path style="--d:10s; stroke:#000;" pathLength="3333" clip-path="url(#z28556c10)" d="M 344 676 L 364 712 L 226 839"/>
    <path style="--d:11s; stroke:#000;" pathLength="3333" clip-path="url(#z28556c11)" d="M 463 654 L 531 746"/>
    <path style="--d:12s; stroke:#000;" pathLength="3333" clip-path="url(#z28556c12)" d="M 791 166 L 816 225 L 685 332"/>
    <path style="--d:13s; stroke:#000;" pathLength="3333" clip-path="url(#z28556c13)" d="M 613 302 L 657 343 L 643 626 L 583 766 L 488 856"/>
    <path style="--d:14s; stroke:#000;" pathLength="3333" clip-path="url(#z28556c14)" d="M 678 453 L 970 401"/>
    <path style="--d:15s; stroke:#000;" pathLength="3333" clip-path="url(#z28556c15)" d="M 770 457 L 812 491 L 809 959"/>
</g>
</svg>