<svg id="z28684" class="acjk" viewBox="0 0 1024 1024" xmlns="http://www.w3.org/2000/svg">

<style>
<![CDATA[
@keyframes zk { to { stroke-dashoffset:0; } }
svg.acjk path[clip-path] {
    --t:0.8s;
    animation:zk var(--t) linear forwards var(--d);
    stroke-dasharray:3337;
    stroke-dashoffset:3339;
    stroke-width:128;
    stroke-linecap:round;
    fill:none;
}
/* Low opacity for background improves visual overlap at intersections */
svg.acjk .bg { fill:#ccc; opacity: 0.5; } 
]]>
</style>
<defs>
    <clipPath id="z28684c1"><path d="M 213 200 Q 235 219 257 242 Q 272 255 288 254 Q 300 254 305 240 Q 309 224 299 193 Q 293 175 266 164 Q 197 143 184 149 Q 178 153 180 167 Q 184 177 213 200 Z"/></clipPath>
    <clipPath id="z28684c2"><path d="M 134 365 Q 176 417 210 433 Q 225 437 235 423 Q 242 410 239 393 Q 233 368 216 355 Q 168 322 130 322 Q 124 322 121 324 Q 115 325 117 338 Q 118 350 134 365 Z"/></clipPath>
    <clipPath id="z28684c3"><path d="M 123 725 Q 113 729 113 746 Q 125 818 156 835 Q 162 841 171 838 Q 178 837 182 812 Q 188 776 303 511 Q 310 495 310 490 Q 310 480 300 487 Q 287 493 166 682 Q 152 704 123 725 Z"/></clipPath>
    <clipPath id="z28684c4"><path d="M 608 96 C 624 106 652 115 670 130 C 678 136 687 139 697 137 C 703 136 707 132 709 124 C 711 115 708 102 701 86 C 693 68 650 60 598 56 C 589 55 583 55 580 57 C 577 59 576 64 578 72 C 580 78 590 86 608 96 Z"/></clipPath>
    <clipPath id="z28684c5"><path d="M 699 223 C 774 204 821 192 827 188 C 831 183 833 178 831 174 C 826 166 815 160 799 157 C 782 153 743 168 692 183 C 616 204 544 213 488 220 C 483 220 480 221 478 223 C 470 226 482 244 491 246 C 511 252 544 252 590 244 C 614 239 647 235 674 229 C 691 225 691 225 699 223 Z"/></clipPath>
    <clipPath id="z28684c6"><path d="M 478 223 C 469 216 458 210 445 205 C 434 199 425 197 417 201 C 410 205 409 211 413 219 C 443 277 439 392 401 565 C 397 581 392 598 387 614 C 367 674 331 747 281 832 C 278 836 276 840 275 844 C 274 850 277 852 283 851 C 305 846 339 803 385 722 C 393 707 400 691 408 674 C 446 580 469 473 477 355 C 479 303 483 266 491 246 C 494 238 485 228 478 223 Z"/></clipPath>
    <clipPath id="z28684c7"><path d="M 681 301 C 656 306 627 311 605 317 C 577 324 577 324 563 327 C 513 338 487 342 487 343 C 484 345 488 350 498 356 C 516 365 532 367 544 363 C 550 360 559 357 569 355 C 592 349 592 349 604 346 C 623 341 651 335 679 330 C 704 325 704 325 717 323 C 750 316 779 308 793 315 C 796 316 796 323 794 335 C 784 375 777 399 773 409 C 770 417 766 426 769 434 C 769 434 769 435 770 436 C 772 444 776 447 783 447 C 789 447 795 443 799 436 C 803 432 811 419 822 399 C 830 372 843 351 862 336 C 871 327 873 320 865 312 C 856 303 838 293 813 279 C 803 273 794 272 784 276 C 768 281 744 288 725 292 C 696 298 696 298 681 301 Z"/></clipPath>
    <clipPath id="z28684c8"><path d="M 605 317 C 605 314 605 312 606 311 C 606 300 603 292 597 286 C 586 278 574 272 561 269 C 554 266 549 266 545 270 C 541 272 540 277 544 285 C 552 297 558 311 563 327 C 567 346 567 346 569 355 C 571 373 575 400 580 436 C 582 446 610 440 610 430 C 606 389 604 361 604 346 C 605 327 605 327 605 317 Z"/></clipPath>
    <clipPath id="z28684c9"><path d="M 725 292 C 727 283 731 272 738 259 C 740 254 737 248 730 241 C 718 232 707 226 699 223 C 691 220 673 221 674 229 C 674 231 674 233 676 237 C 680 245 682 266 681 301 C 680 320 680 320 679 330 C 676 358 672 387 668 418 C 666 428 696 421 698 411 C 704 380 711 351 717 323 C 722 302 722 302 725 292 Z"/></clipPath>
    <clipPath id="z28684c10"><path d="M 580 436 C 557 440 535 442 515 445 C 504 446 501 451 509 461 C 512 466 517 469 523 471 C 527 472 534 472 542 470 C 586 458 670 443 769 434 C 777 433 780 413 773 409 C 763 399 741 401 720 405 C 712 406 705 409 698 411 C 678 416 678 416 668 418 C 649 422 626 426 610 430 C 590 434 590 434 580 436 Z"/></clipPath>
    <clipPath id="z28684c11"><path d="M 543 584 C 545 586 550 587 558 586 C 590 579 617 573 641 569 C 653 566 657 561 651 554 C 644 547 634 543 620 541 C 602 539 577 547 545 566 C 540 569 537 582 543 584 Z"/></clipPath>
    <clipPath id="z28684c12"><path d="M 545 566 C 547 551 549 541 551 537 C 553 527 551 519 545 513 C 533 499 522 491 513 490 C 506 488 501 488 499 491 C 494 493 494 498 499 506 C 519 550 517 599 495 654 C 492 656 489 660 487 664 C 480 674 478 684 480 696 C 484 712 490 724 498 731 C 502 735 509 733 517 724 C 535 707 572 679 630 639 C 640 633 645 628 647 625 C 649 618 644 617 633 621 C 577 639 547 648 543 647 C 539 644 539 623 543 584 C 544 572 544 572 545 566 Z"/></clipPath>
    <clipPath id="z28684c13"><path d="M 714 574 C 774 552 819 537 848 530 C 858 530 863 526 863 520 C 862 510 858 498 850 486 C 843 473 833 464 821 460 C 813 458 807 462 805 473 C 803 487 773 514 715 555 C 710 558 708 576 714 574 Z"/></clipPath>
    <clipPath id="z28684c14"><path d="M 929 639 C 922 625 915 597 907 556 C 907 547 905 541 901 539 C 898 536 895 540 892 550 C 875 594 861 624 850 638 C 845 642 836 647 823 651 C 797 659 769 660 739 653 C 730 649 724 644 721 639 C 713 621 710 599 714 574 C 715 561 715 561 715 555 C 715 538 718 520 723 501 C 725 492 723 485 717 479 C 710 472 701 467 689 463 C 682 460 677 460 673 464 C 669 466 668 471 672 480 C 678 500 681 520 680 539 C 676 627 688 677 718 691 C 724 693 732 696 743 700 C 811 716 872 706 924 671 C 934 663 936 652 929 639 Z"/></clipPath>
    <clipPath id="z28684c15"><path d="M 473 762 C 458 784 442 806 424 827 C 408 845 405 865 415 887 C 417 897 426 900 440 895 C 470 877 486 851 490 817 C 494 798 496 780 494 764 C 491 759 488 756 485 755 C 480 755 476 757 473 762 Z"/></clipPath>
    <clipPath id="z28684c16"><path d="M 571 789 C 583 835 594 861 605 867 C 611 871 619 869 628 861 C 632 854 634 844 634 832 C 632 813 615 792 585 770 C 580 767 576 768 573 774 C 570 778 569 783 571 789 Z"/></clipPath>
    <clipPath id="z28684c17"><path d="M 690 777 C 704 823 719 848 733 853 C 739 855 746 853 754 845 C 758 838 759 828 757 815 C 754 797 735 777 701 756 C 696 753 692 755 690 762 C 687 766 687 771 690 777 Z"/></clipPath>
    <clipPath id="z28684c18"><path d="M 796 761 C 820 789 845 823 873 863 C 881 875 889 884 898 888 C 902 888 907 886 913 882 C 921 875 923 858 919 832 C 917 809 896 786 858 764 C 833 750 814 740 801 734 C 796 730 792 731 790 739 C 789 747 791 754 796 761 Z"/></clipPath>
</defs>
<g id="bg-layer">
    <path class="bg" d="M 213 200 Q 235 219 257 242 Q 272 255 288 254 Q 300 254 305 240 Q 309 224 299 193 Q 293 175 266 164 Q 197 143 184 149 Q 178 153 180 167 Q 184 177 213 200 Z"/>
    <path class="bg" d="M 134 365 Q 176 417 210 433 Q 225 437 235 423 Q 242 410 239 393 Q 233 368 216 355 Q 168 322 130 322 Q 124 322 121 324 Q 115 325 117 338 Q 118 350 134 365 Z"/>
    <path class="bg" d="M 123 725 Q 113 729 113 746 Q 125 818 156 835 Q 162 841 171 838 Q 178 837 182 812 Q 188 776 303 511 Q 310 495 310 490 Q 310 480 300 487 Q 287 493 166 682 Q 152 704 123 725 Z"/>
    <path class="bg" d="M 608 96 C 624 106 652 115 670 130 C 678 136 687 139 697 137 C 703 136 707 132 709 124 C 711 115 708 102 701 86 C 693 68 650 60 598 56 C 589 55 583 55 580 57 C 577 59 576 64 578 72 C 580 78 590 86 608 96 Z"/>
    <path class="bg" d="M 699 223 C 774 204 821 192 827 188 C 831 183 833 178 831 174 C 826 166 815 160 799 157 C 782 153 743 168 692 183 C 616 204 544 213 488 220 C 483 220 480 221 478 223 C 470 226 482 244 491 246 C 511 252 544 252 590 244 C 614 239 647 235 674 229 C 691 225 691 225 699 223 Z"/>
    <path class="bg" d="M 478 223 C 469 216 458 210 445 205 C 434 199 425 197 417 201 C 410 205 409 211 413 219 C 443 277 439 392 401 565 C 397 581 392 598 387 614 C 367 674 331 747 281 832 C 278 836 276 840 275 844 C 274 850 277 852 283 851 C 305 846 339 803 385 722 C 393 707 400 691 408 674 C 446 580 469 473 477 355 C 479 303 483 266 491 246 C 494 238 485 228 478 223 Z"/>
    <path class="bg" d="M 681 301 C 656 306 627 311 605 317 C 577 324 577 324 563 327 C 513 338 487 342 487 343 C 484 345 488 350 498 356 C 516 365 532 367 544 363 C 550 360 559 357 569 355 C 592 349 592 349 604 346 C 623 341 651 335 679 330 C 704 325 704 325 717 323 C 750 316 779 308 793 315 C 796 316 796 323 794 335 C 784 375 777 399 773 409 C 770 417 766 426 769 434 C 769 434 769 435 770 436 C 772 444 776 447 783 447 C 789 447 795 443 799 436 C 803 432 811 419 822 399 C 830 372 843 351 862 336 C 871 327 873 320 865 312 C 856 303 838 293 813 279 C 803 273 794 272 784 276 C 768 281 744 288 725 292 C 696 298 696 298 681 301 Z"/>
    <path class="bg" d="M 605 317 C 605 314 605 312 606 311 C 606 300 603 292 597 286 C 586 278 574 272 561 269 C 554 266 549 266 545 270 C 541 272 540 277 544 285 C 552 297 558 311 563 327 C 567 346 567 346 569 355 C 571 373 575 400 580 436 C 582 446 610 440 610 430 C 606 389 604 361 604 346 C 605 327 605 327 605 317 Z"/>
    <path class="bg" d="M 725 292 C 727 283 731 272 738 259 C 740 254 737 248 730 241 C 718 232 707 226 699 223 C 691 220 673 221 674 229 C 674 231 674 233 676 237 C 680 245 682 266 681 301 C 680 320 680 320 679 330 C 676 358 672 387 668 418 C 666 428 696 421 698 411 C 704 380 711 351 717 323 C 722 302 722 302 725 292 Z"/>
    <path class="bg" d="M 580 436 C 557 440 535 442 515 445 C 504 446 501 451 509 461 C 512 466 517 469 523 471 C 527 472 534 472 542 470 C 586 458 670 443 769 434 C 777 433 780 413 773 409 C 763 399 741 401 720 405 C 712 406 705 409 698 411 C 678 416 678 416 668 418 C 649 422 626 426 610 430 C 590 434 590 434 580 436 Z"/>
    <path class="bg" d="M 543 584 C 545 586 550 587 558 586 C 590 579 617 573 641 569 C 653 566 657 561 651 554 C 644 547 634 543 620 541 C 602 539 577 547 545 566 C 540 569 537 582 543 584 Z"/>
    <path class="bg" d="M 545 566 C 547 551 549 541 551 537 C 553 527 551 519 545 513 C 533 499 522 491 513 490 C 506 488 501 488 499 491 C 494 493 494 498 499 506 C 519 550 517 599 495 654 C 492 656 489 660 487 664 C 480 674 478 684 480 696 C 484 712 490 724 498 731 C 502 735 509 733 517 724 C 535 707 572 679 630 639 C 640 633 645 628 647 625 C 649 618 644 617 633 621 C 577 639 547 648 543 647 C 539 644 539 623 543 584 C 544 572 544 572 545 566 Z"/>
    <path class="bg" d="M 714 574 C 774 552 819 537 848 530 C 858 530 863 526 863 520 C 862 510 858 498 850 486 C 843 473 833 464 821 460 C 813 458 807 462 805 473 C 803 487 773 514 715 555 C 710 558 708 576 714 574 Z"/>
    <path class="bg" d="M 929 639 C 922 625 915 597 907 556 C 907 547 905 541 901 539 C 898 536 895 540 892 550 C 875 594 861 624 850 638 C 845 642 836 647 823 651 C 797 659 769 660 739 653 C 730 649 724 644 721 639 C 713 621 710 599 714 574 C 715 561 715 561 715 555 C 715 538 718 520 723 501 C 725 492 723 485 717 479 C 710 472 701 467 689 463 C 682 460 677 460 673 464 C 669 466 668 471 672 480 C 678 500 681 520 680 539 C 676 627 688 677 718 691 C 724 693 732 696 743 700 C 811 716 872 706 924 671 C 934 663 936 652 929 639 Z"/>
    <path class="bg" d="M 473 762 C 458 784 442 806 424 827 C 408 845 405 865 415 887 C 417 897 426 900 440 895 C 470 877 486 851 490 817 C 494 798 496 780 494 764 C 491 759 488 756 485 755 C 480 755 476 757 473 762 Z"/>
    <path class="bg" d="M 571 789 C 583 835 594 861 605 867 C 611 871 619 869 628 861 C 632 854 634 844 634 832 C 632 813 615 792 585 770 C 580 767 576 768 573 774 C 570 778 569 783 571 789 Z"/>
    <path class="bg" d="M 690 777 C 704 823 719 848 733 853 C 739 855 746 853 754 845 C 758 838 759 828 757 815 C 754 797 735 777 701 756 C 696 753 692 755 690 762 C 687 766 687 771 690 777 Z"/>
    <path class="bg" d="M 796 761 C 820 789 845 823 873 863 C 881 875 889 884 898 888 C 902 888 907 886 913 882 C 921 875 923 858 919 832 C 917 809 896 786 858 764 C 833 750 814 740 801 734 C 796 730 792 731 790 739 C 789 747 791 754 796 761 Z"/>
</g>
<g id="anim-layer">
    <path style="--d:1s; stroke:#FF4444;" pathLength="3333" clip-path="url(#z28684c1)" d="M 183 155 L 265 201 L 289 251"/>
    <path style="--d:2s; stroke:#FF4444;" pathLength="3333" clip-path="url(#z28684c2)" d="M 122 329 L 231 423"/>
    <path style="--d:3s; stroke:#FF4444;" pathLength="3333" clip-path="url(#z28684c3)" d="M 117 740 L 171 781 L 302 491"/>
    <path style="--d:4s; stroke:#000;" pathLength="3333" clip-path="url(#z28684c4)" d="M 580 63 L 677 100 L 701 131"/>
    <path style="--d:5s; stroke:#000;" pathLength="3333" clip-path="url(#z28684c5)" d="M 483 229 L 827 179"/>
    <path style="--d:6s; stroke:#000;" pathLength="3333" clip-path="url(#z28684c6)" d="M 415 205 L 458 247 L 432 520 L 371 707 L 280 845"/>
    <path style="--d:7s; stroke:#000;" pathLength="3333" clip-path="url(#z28684c7)" d="M 499 348 L 791 293 L 832 328 L 777 440"/>
    <path style="--d:8s; stroke:#000;" pathLength="3333" clip-path="url(#z28684c8)" d="M 548 273 L 581 306 L 598 437"/>
    <path style="--d:9s; stroke:#000;" pathLength="3333" clip-path="url(#z28684c9)" d="M 683 229 L 710 264 L 680 419"/>
    <path style="--d:10s; stroke:#000;" pathLength="3333" clip-path="url(#z28684c10)" d="M 510 452 L 773 419"/>
    <path style="--d:11s; stroke:#000;" pathLength="3333" clip-path="url(#z28684c11)" d="M 546 576 L 647 559"/>
    <path style="--d:12s; stroke:#000;" pathLength="3333" clip-path="url(#z28684c12)" d="M 502 496 L 531 541 L 520 689 L 640 623"/>
    <path style="--d:13s; stroke:#000;" pathLength="3333" clip-path="url(#z28684c13)" d="M 818 463 L 826 509 L 717 568"/>
    <path style="--d:14s; stroke:#000;" pathLength="3333" clip-path="url(#z28684c14)" d="M 677 467 L 700 500 L 700 628 L 726 671 L 795 682 L 871 663 L 896 642 L 900 545"/>
    <path style="--d:15s; stroke:#000;" pathLength="3333" clip-path="url(#z28684c15)" d="M 486 761 L 424 891"/>
    <path style="--d:16s; stroke:#000;" pathLength="3333" clip-path="url(#z28684c16)" d="M 582 772 L 615 865"/>
    <path style="--d:17s; stroke:#000;" pathLength="3333" clip-path="url(#z28684c17)" d="M 697 760 L 738 849"/>
    <path style="--d:18s; stroke:#000;" pathLength="3333" clip-path="url(#z28684c18)" d="M 795 738 L 885 826 L 900 883"/>
</g>
</svg>