<svg id="z28790" class="acjk" viewBox="0 0 1024 1024" xmlns="http://www.w3.org/2000/svg">

<style>
<![CDATA[
@keyframes zk { to { stroke-dashoffset:0; } }
svg.acjk path[clip-path] {
    --t:0.8s;
    animation:zk var(--t) linear forwards var(--d);
    stroke-dasharray:3337;
    stroke-dashoffset:3339;
    stroke-width:128;
    stroke-linecap:round;
    fill:none;
}
/* Low opacity for background improves visual overlap at intersections */
svg.acjk .bg { fill:#ccc; opacity: 0.5; } 
]]>
</style>
<defs>
    <clipPath id="z28790c1"><path d="M 114 372 Q 108 436 92 499 Q 80 533 109 563 Q 122 578 138 559 Q 175 505 156 419 Q 152 386 136 365 Q 129 358 123 359 Q 116 363 114 372 Z"/></clipPath>
    <clipPath id="z28790c2"><path d="M 302 407 Q 342 389 368 375 Q 437 338 456 333 Q 477 326 469 308 Q 459 290 436 274 Q 415 258 403 259 Q 391 259 393 272 Q 394 299 339 348 Q 321 364 303 382 C 297 388 294 410 302 407 Z"/></clipPath>
    <clipPath id="z28790c3"><path d="M 294 597 Q 297 540 302 407 C 303 390 303 390 303 382 Q 306 228 328 184 Q 335 166 324 155 Q 300 136 259 126 Q 232 119 224 127 Q 214 134 223 147 Q 289 252 240 624 Q 215 750 146 822 Q 116 852 76 884 Q 63 893 64 897 Q 65 901 77 900 Q 92 904 126 887 Q 258 833 290 625 C 293 606 293 606 294 597 Z"/></clipPath>
    <clipPath id="z28790c4"><path d="M 290 625 Q 296 632 308 644 Q 335 672 364 705 Q 374 718 389 718 Q 399 719 405 707 Q 411 694 405 666 Q 398 632 308 600 Q 299 596 294 597 C 285 597 284 617 290 625 Z"/></clipPath>
    <clipPath id="z28790c5"><path d="M 651 499 Q 708 486 772 474 Q 820 462 827 456 Q 837 447 832 438 Q 823 425 790 416 Q 766 410 653 445 C 616 454 616 454 597 459 Q 536 471 467 478 Q 427 485 456 504 Q 504 534 568 516 Q 580 512 597 510 C 633 503 633 503 651 499 Z"/></clipPath>
    <clipPath id="z28790c6"><path d="M 641 746 Q 647 619 651 499 C 652 463 652 463 653 445 Q 653 303 680 185 Q 684 172 660 153 Q 617 131 586 126 Q 567 122 556 132 Q 546 142 557 160 Q 593 212 592 246 Q 596 349 597 459 C 597 493 597 493 597 510 Q 596 625 590 752 C 590 769 641 763 641 746 Z"/></clipPath>
    <clipPath id="z28790c7"><path d="M 590 752 Q 490 765 374 780 Q 350 781 368 801 Q 384 816 403 822 Q 427 829 445 823 Q 598 784 872 785 Q 888 785 904 786 Q 926 786 931 776 Q 938 763 919 748 Q 856 700 781 721 Q 723 730 641 746 C 607 750 607 750 590 752 Z"/></clipPath>
</defs>
<g id="bg-layer">
    <path class="bg" d="M 114 372 Q 108 436 92 499 Q 80 533 109 563 Q 122 578 138 559 Q 175 505 156 419 Q 152 386 136 365 Q 129 358 123 359 Q 116 363 114 372 Z"/>
    <path class="bg" d="M 302 407 Q 342 389 368 375 Q 437 338 456 333 Q 477 326 469 308 Q 459 290 436 274 Q 415 258 403 259 Q 391 259 393 272 Q 394 299 339 348 Q 321 364 303 382 C 297 388 294 410 302 407 Z"/>
    <path class="bg" d="M 294 597 Q 297 540 302 407 C 303 390 303 390 303 382 Q 306 228 328 184 Q 335 166 324 155 Q 300 136 259 126 Q 232 119 224 127 Q 214 134 223 147 Q 289 252 240 624 Q 215 750 146 822 Q 116 852 76 884 Q 63 893 64 897 Q 65 901 77 900 Q 92 904 126 887 Q 258 833 290 625 C 293 606 293 606 294 597 Z"/>
    <path class="bg" d="M 290 625 Q 296 632 308 644 Q 335 672 364 705 Q 374 718 389 718 Q 399 719 405 707 Q 411 694 405 666 Q 398 632 308 600 Q 299 596 294 597 C 285 597 284 617 290 625 Z"/>
    <path class="bg" d="M 651 499 Q 708 486 772 474 Q 820 462 827 456 Q 837 447 832 438 Q 823 425 790 416 Q 766 410 653 445 C 616 454 616 454 597 459 Q 536 471 467 478 Q 427 485 456 504 Q 504 534 568 516 Q 580 512 597 510 C 633 503 633 503 651 499 Z"/>
    <path class="bg" d="M 641 746 Q 647 619 651 499 C 652 463 652 463 653 445 Q 653 303 680 185 Q 684 172 660 153 Q 617 131 586 126 Q 567 122 556 132 Q 546 142 557 160 Q 593 212 592 246 Q 596 349 597 459 C 597 493 597 493 597 510 Q 596 625 590 752 C 590 769 641 763 641 746 Z"/>
    <path class="bg" d="M 590 752 Q 490 765 374 780 Q 350 781 368 801 Q 384 816 403 822 Q 427 829 445 823 Q 598 784 872 785 Q 888 785 904 786 Q 926 786 931 776 Q 938 763 919 748 Q 856 700 781 721 Q 723 730 641 746 C 607 750 607 750 590 752 Z"/>
</g>
<g id="anim-layer">
    <path style="--d:1s; stroke:#FF4444;" pathLength="3333" clip-path="url(#z28790c1)" d="M 123 365 L 115 565"/>
    <path style="--d:2s; stroke:#FF4444;" pathLength="3333" clip-path="url(#z28790c2)" d="M 402 266 L 423 315 L 306 398"/>
    <path style="--d:3s; stroke:#FF4444;" pathLength="3333" clip-path="url(#z28790c3)" d="M 226 132 L 287 182 L 258 659 L 180 822 L 70 894"/>
    <path style="--d:4s; stroke:#FF4444;" pathLength="3333" clip-path="url(#z28790c4)" d="M 298 606 L 395 714"/>
    <path style="--d:5s; stroke:#000;" pathLength="3333" clip-path="url(#z28790c5)" d="M 453 492 L 542 495 L 829 443"/>
    <path style="--d:6s; stroke:#000;" pathLength="3333" clip-path="url(#z28790c6)" d="M 555 140 L 633 198 L 605 750"/>
    <path style="--d:7s; stroke:#000;" pathLength="3333" clip-path="url(#z28790c7)" d="M 365 787 L 422 800 L 812 750 L 927 764"/>
</g>
</svg>