<svg id="z28891" class="acjk" viewBox="0 0 1024 1024" xmlns="http://www.w3.org/2000/svg">

<style>
<![CDATA[
@keyframes zk { to { stroke-dashoffset:0; } }
svg.acjk path[clip-path] {
    --t:0.8s;
    animation:zk var(--t) linear forwards var(--d);
    stroke-dasharray:3337;
    stroke-dashoffset:3339;
    stroke-width:128;
    stroke-linecap:round;
    fill:none;
}
/* Low opacity for background improves visual overlap at intersections */
svg.acjk .bg { fill:#ccc; opacity: 0.5; } 
]]>
</style>
<defs>
    <clipPath id="z28891c1"><path d="M 130 307 Q 123 374 104 437 Q 100 449 103 464 Q 107 486 118 499 Q 130 514 146 496 Q 185 445 169 354 Q 165 323 152 301 Q 145 294 140 295 Q 133 298 130 307 Z"/></clipPath>
    <clipPath id="z28891c2"><path d="M 294 384 Q 390 309 437 282 Q 467 273 426 234 Q 407 218 387 216 Q 372 216 374 235 Q 377 262 295 357 C 289 363 287 389 294 384 Z"/></clipPath>
    <clipPath id="z28891c3"><path d="M 287 563 Q 290 467 294 384 C 295 366 295 366 295 357 Q 298 201 321 150 Q 328 134 316 123 Q 292 104 251 94 Q 224 87 216 95 Q 206 102 215 115 Q 275 211 236 578 Q 220 704 133 784 Q 81 823 80 829 Q 81 833 94 833 Q 106 836 137 821 Q 252 775 284 594 C 286 573 286 573 287 563 Z"/></clipPath>
    <clipPath id="z28891c4"><path d="M 284 594 Q 290 595 362 664 Q 372 674 385 674 Q 392 674 397 663 Q 401 653 395 629 Q 391 607 358 589 Q 325 574 287 563 C 277 559 276 588 284 594 Z"/></clipPath>
    <clipPath id="z28891c5"><path d="M 461 357 Q 446 350 419 348 Q 406 345 403 351 Q 396 358 406 374 Q 436 429 457 520 Q 461 547 479 565 Q 498 587 503 570 Q 506 561 506 549 C 506 538 507 527 503 517 Q 493 487 479 390 C 477 378 473 362 461 357 Z"/></clipPath>
    <clipPath id="z28891c6"><path d="M 782 481 Q 809 397 843 371 Q 861 353 846 335 Q 771 275 710 305 Q 674 317 641 327 C 610 334 610 334 595 337 Q 531 347 461 357 C 449 359 467 392 479 390 Q 488 389 498 385 Q 544 375 596 367 C 625 362 625 362 640 359 Q 673 352 710 345 Q 737 338 747 350 Q 757 359 754 378 Q 745 427 733 470 C 728 486 776 497 782 481 Z"/></clipPath>
    <clipPath id="z28891c7"><path d="M 638 528 Q 701 518 788 510 Q 798 509 800 500 Q 800 493 782 481 C 768 472 750 467 733 470 Q 721 470 639 492 C 610 498 610 498 596 501 Q 545 510 503 517 C 492 519 495 549 506 549 Q 516 550 527 548 Q 555 541 596 535 C 624 530 624 530 638 528 Z"/></clipPath>
    <clipPath id="z28891c8"><path d="M 634 705 Q 635 614 638 528 C 639 504 639 504 639 492 Q 639 425 640 359 C 641 338 641 338 641 327 Q 641 246 663 136 Q 666 124 644 109 Q 607 90 580 86 Q 562 82 554 92 Q 547 101 555 116 Q 591 168 591 202 Q 594 268 595 337 C 596 357 596 357 596 367 Q 597 431 596 501 C 596 524 596 524 596 535 Q 595 622 590 716 C 590 731 634 720 634 705 Z"/></clipPath>
    <clipPath id="z28891c9"><path d="M 762 673 Q 701 688 634 705 C 605 712 605 712 590 716 Q 521 731 447 747 Q 422 754 382 750 Q 369 751 366 761 Q 362 776 372 785 Q 394 804 429 827 Q 439 831 453 822 Q 502 792 741 712 Q 760 705 777 697 C 785 692 771 671 762 673 Z"/></clipPath>
    <clipPath id="z28891c10"><path d="M 777 697 Q 846 821 852 826 Q 859 830 869 822 Q 885 813 884 768 Q 885 705 738 588 Q 731 581 726 592 Q 722 605 729 617 Q 745 642 762 673 C 772 689 772 689 777 697 Z"/></clipPath>
</defs>
<g id="bg-layer">
    <path class="bg" d="M 130 307 Q 123 374 104 437 Q 100 449 103 464 Q 107 486 118 499 Q 130 514 146 496 Q 185 445 169 354 Q 165 323 152 301 Q 145 294 140 295 Q 133 298 130 307 Z"/>
    <path class="bg" d="M 294 384 Q 390 309 437 282 Q 467 273 426 234 Q 407 218 387 216 Q 372 216 374 235 Q 377 262 295 357 C 289 363 287 389 294 384 Z"/>
    <path class="bg" d="M 287 563 Q 290 467 294 384 C 295 366 295 366 295 357 Q 298 201 321 150 Q 328 134 316 123 Q 292 104 251 94 Q 224 87 216 95 Q 206 102 215 115 Q 275 211 236 578 Q 220 704 133 784 Q 81 823 80 829 Q 81 833 94 833 Q 106 836 137 821 Q 252 775 284 594 C 286 573 286 573 287 563 Z"/>
    <path class="bg" d="M 284 594 Q 290 595 362 664 Q 372 674 385 674 Q 392 674 397 663 Q 401 653 395 629 Q 391 607 358 589 Q 325 574 287 563 C 277 559 276 588 284 594 Z"/>
    <path class="bg" d="M 461 357 Q 446 350 419 348 Q 406 345 403 351 Q 396 358 406 374 Q 436 429 457 520 Q 461 547 479 565 Q 498 587 503 570 Q 506 561 506 549 C 506 538 507 527 503 517 Q 493 487 479 390 C 477 378 473 362 461 357 Z"/>
    <path class="bg" d="M 782 481 Q 809 397 843 371 Q 861 353 846 335 Q 771 275 710 305 Q 674 317 641 327 C 610 334 610 334 595 337 Q 531 347 461 357 C 449 359 467 392 479 390 Q 488 389 498 385 Q 544 375 596 367 C 625 362 625 362 640 359 Q 673 352 710 345 Q 737 338 747 350 Q 757 359 754 378 Q 745 427 733 470 C 728 486 776 497 782 481 Z"/>
    <path class="bg" d="M 638 528 Q 701 518 788 510 Q 798 509 800 500 Q 800 493 782 481 C 768 472 750 467 733 470 Q 721 470 639 492 C 610 498 610 498 596 501 Q 545 510 503 517 C 492 519 495 549 506 549 Q 516 550 527 548 Q 555 541 596 535 C 624 530 624 530 638 528 Z"/>
    <path class="bg" d="M 634 705 Q 635 614 638 528 C 639 504 639 504 639 492 Q 639 425 640 359 C 641 338 641 338 641 327 Q 641 246 663 136 Q 666 124 644 109 Q 607 90 580 86 Q 562 82 554 92 Q 547 101 555 116 Q 591 168 591 202 Q 594 268 595 337 C 596 357 596 357 596 367 Q 597 431 596 501 C 596 524 596 524 596 535 Q 595 622 590 716 C 590 731 634 720 634 705 Z"/>
    <path class="bg" d="M 762 673 Q 701 688 634 705 C 605 712 605 712 590 716 Q 521 731 447 747 Q 422 754 382 750 Q 369 751 366 761 Q 362 776 372 785 Q 394 804 429 827 Q 439 831 453 822 Q 502 792 741 712 Q 760 705 777 697 C 785 692 771 671 762 673 Z"/>
    <path class="bg" d="M 777 697 Q 846 821 852 826 Q 859 830 869 822 Q 885 813 884 768 Q 885 705 738 588 Q 731 581 726 592 Q 722 605 729 617 Q 745 642 762 673 C 772 689 772 689 777 697 Z"/>
</g>
<g id="anim-layer">
    <path style="--d:1s; stroke:#FF4444;" pathLength="3333" clip-path="url(#z28891c1)" d="M 141 299 L 120 498"/>
    <path style="--d:2s; stroke:#FF4444;" pathLength="3333" clip-path="url(#z28891c2)" d="M 382 226 L 406 269 L 299 375"/>
    <path style="--d:3s; stroke:#FF4444;" pathLength="3333" clip-path="url(#z28891c3)" d="M 218 100 L 279 150 L 258 599 L 208 732 L 90 827"/>
    <path style="--d:4s; stroke:#FF4444;" pathLength="3333" clip-path="url(#z28891c4)" d="M 294 570 L 389 669"/>
    <path style="--d:5s; stroke:#000;" pathLength="3333" clip-path="url(#z28891c5)" d="M 409 357 L 453 406 L 493 571"/>
    <path style="--d:6s; stroke:#000;" pathLength="3333" clip-path="url(#z28891c6)" d="M 471 361 L 753 320 L 803 357 L 761 476"/>
    <path style="--d:7s; stroke:#000;" pathLength="3333" clip-path="url(#z28891c7)" d="M 515 542 L 727 493 L 795 500"/>
    <path style="--d:8s; stroke:#000;" pathLength="3333" clip-path="url(#z28891c8)" d="M 557 94 L 622 146 L 603 712"/>
    <path style="--d:9s; stroke:#000;" pathLength="3333" clip-path="url(#z28891c9)" d="M 370 764 L 443 787 L 769 684"/>
    <path style="--d:10s; stroke:#000;" pathLength="3333" clip-path="url(#z28891c10)" d="M 732 595 L 834 730 L 864 821"/>
</g>
</svg>