<svg id="z28949" class="acjk" viewBox="0 0 1024 1024" xmlns="http://www.w3.org/2000/svg">

<style>
<![CDATA[
@keyframes zk { to { stroke-dashoffset:0; } }
svg.acjk path[clip-path] {
    --t:0.8s;
    animation:zk var(--t) linear forwards var(--d);
    stroke-dasharray:3337;
    stroke-dashoffset:3339;
    stroke-width:128;
    stroke-linecap:round;
    fill:none;
}
/* Low opacity for background improves visual overlap at intersections */
svg.acjk .bg { fill:#ccc; opacity: 0.5; } 
]]>
</style>
<defs>
    <clipPath id="z28949c1"><path d="M 106 336 Q 116 402 114 467 Q 114 501 145 523 Q 160 533 171 513 Q 195 450 155 371 Q 143 341 126 324 Q 117 320 112 322 Q 105 326 106 336 Z"/></clipPath>
    <clipPath id="z28949c2"><path d="M 297 392 Q 318 380 386 328 Q 402 315 421 306 Q 439 297 430 283 Q 418 270 397 257 Q 376 247 366 249 Q 356 250 359 261 Q 360 280 298 363 C 292 371 289 398 297 392 Z"/></clipPath>
    <clipPath id="z28949c3"><path d="M 285 646 Q 291 594 297 392 C 298 373 298 373 298 363 Q 299 243 323 168 Q 330 153 319 142 Q 295 124 256 114 Q 231 108 222 115 Q 212 122 220 135 Q 281 225 241 601 Q 219 745 154 818 Q 127 846 91 876 Q 79 885 80 890 Q 81 894 93 892 Q 106 896 138 880 Q 249 829 281 670 C 284 654 284 654 285 646 Z"/></clipPath>
    <clipPath id="z28949c4"><path d="M 281 670 Q 285 677 294 687 Q 319 718 347 754 Q 356 766 367 767 Q 376 768 381 759 Q 387 749 385 725 Q 382 694 297 649 Q 290 645 285 646 C 277 646 276 664 281 670 Z"/></clipPath>
    <clipPath id="z28949c5"><path d="M 554 233 Q 618 154 629 146 Q 638 137 634 125 Q 631 113 607 92 Q 585 74 568 74 Q 552 75 558 94 Q 570 121 510 216 Q 482 259 443 305 Q 434 314 432 319 Q 428 329 441 327 Q 463 324 541 247 C 550 238 550 238 554 233 Z"/></clipPath>
    <clipPath id="z28949c6"><path d="M 619 376 Q 707 271 749 244 Q 767 234 754 221 Q 741 208 704 189 Q 688 183 673 193 Q 664 197 596 222 Q 577 228 554 233 C 548 234 536 244 541 247 Q 556 260 615 249 Q 651 240 655 242 Q 659 245 654 255 Q 620 331 599 366 Q 595 375 592 381 C 587 389 614 383 619 376 Z"/></clipPath>
    <clipPath id="z28949c7"><path d="M 446 403 Q 428 391 408 387 Q 395 383 387 389 Q 380 395 387 409 Q 412 448 440 602 C 442 615 480 610 478 597 Q 466 504 467 436 C 467 423 456 411 446 403 Z"/></clipPath>
    <clipPath id="z28949c8"><path d="M 777 557 Q 799 454 823 414 Q 833 404 828 393 Q 821 378 766 354 Q 750 347 738 352 Q 681 364 619 376 C 601 379 601 379 592 381 Q 522 391 446 403 C 433 406 455 441 467 436 Q 488 429 552 417 C 581 412 581 412 595 409 Q 719 382 737 393 Q 744 397 744 415 Q 738 476 723 566 C 719 584 773 575 777 557 Z"/></clipPath>
    <clipPath id="z28949c9"><path d="M 618 620 Q 681 613 909 612 Q 930 612 935 604 Q 939 592 924 578 Q 864 533 793 554 Q 784 554 777 557 C 741 563 741 563 723 566 Q 620 578 610 582 C 575 586 575 586 557 588 Q 518 592 478 597 C 453 600 453 600 440 602 Q 398 605 357 610 Q 336 611 351 629 Q 364 642 383 649 Q 404 655 420 650 Q 480 634 547 627 C 594 622 594 622 618 620 Z"/></clipPath>
    <clipPath id="z28949c10"><path d="M 547 627 Q 514 753 390 835 Q 366 848 335 867 Q 313 880 340 879 Q 358 880 393 867 Q 438 854 476 828 Q 554 780 597 634 C 606 599 606 599 610 582 Q 619 540 626 487 Q 630 459 636 447 Q 643 440 637 430 Q 630 421 595 409 C 581 404 544 404 552 417 Q 553 418 555 423 Q 573 492 557 588 C 550 614 550 614 547 627 Z"/></clipPath>
    <clipPath id="z28949c11"><path d="M 597 634 Q 663 746 750 865 Q 766 886 797 885 Q 897 886 929 882 Q 939 881 940 875 Q 941 871 928 862 Q 783 793 687 693 Q 653 659 618 620 C 608 608 588 622 597 634 Z"/></clipPath>
</defs>
<g id="bg-layer">
    <path class="bg" d="M 106 336 Q 116 402 114 467 Q 114 501 145 523 Q 160 533 171 513 Q 195 450 155 371 Q 143 341 126 324 Q 117 320 112 322 Q 105 326 106 336 Z"/>
    <path class="bg" d="M 297 392 Q 318 380 386 328 Q 402 315 421 306 Q 439 297 430 283 Q 418 270 397 257 Q 376 247 366 249 Q 356 250 359 261 Q 360 280 298 363 C 292 371 289 398 297 392 Z"/>
    <path class="bg" d="M 285 646 Q 291 594 297 392 C 298 373 298 373 298 363 Q 299 243 323 168 Q 330 153 319 142 Q 295 124 256 114 Q 231 108 222 115 Q 212 122 220 135 Q 281 225 241 601 Q 219 745 154 818 Q 127 846 91 876 Q 79 885 80 890 Q 81 894 93 892 Q 106 896 138 880 Q 249 829 281 670 C 284 654 284 654 285 646 Z"/>
    <path class="bg" d="M 281 670 Q 285 677 294 687 Q 319 718 347 754 Q 356 766 367 767 Q 376 768 381 759 Q 387 749 385 725 Q 382 694 297 649 Q 290 645 285 646 C 277 646 276 664 281 670 Z"/>
    <path class="bg" d="M 554 233 Q 618 154 629 146 Q 638 137 634 125 Q 631 113 607 92 Q 585 74 568 74 Q 552 75 558 94 Q 570 121 510 216 Q 482 259 443 305 Q 434 314 432 319 Q 428 329 441 327 Q 463 324 541 247 C 550 238 550 238 554 233 Z"/>
    <path class="bg" d="M 619 376 Q 707 271 749 244 Q 767 234 754 221 Q 741 208 704 189 Q 688 183 673 193 Q 664 197 596 222 Q 577 228 554 233 C 548 234 536 244 541 247 Q 556 260 615 249 Q 651 240 655 242 Q 659 245 654 255 Q 620 331 599 366 Q 595 375 592 381 C 587 389 614 383 619 376 Z"/>
    <path class="bg" d="M 446 403 Q 428 391 408 387 Q 395 383 387 389 Q 380 395 387 409 Q 412 448 440 602 C 442 615 480 610 478 597 Q 466 504 467 436 C 467 423 456 411 446 403 Z"/>
    <path class="bg" d="M 777 557 Q 799 454 823 414 Q 833 404 828 393 Q 821 378 766 354 Q 750 347 738 352 Q 681 364 619 376 C 601 379 601 379 592 381 Q 522 391 446 403 C 433 406 455 441 467 436 Q 488 429 552 417 C 581 412 581 412 595 409 Q 719 382 737 393 Q 744 397 744 415 Q 738 476 723 566 C 719 584 773 575 777 557 Z"/>
    <path class="bg" d="M 618 620 Q 681 613 909 612 Q 930 612 935 604 Q 939 592 924 578 Q 864 533 793 554 Q 784 554 777 557 C 741 563 741 563 723 566 Q 620 578 610 582 C 575 586 575 586 557 588 Q 518 592 478 597 C 453 600 453 600 440 602 Q 398 605 357 610 Q 336 611 351 629 Q 364 642 383 649 Q 404 655 420 650 Q 480 634 547 627 C 594 622 594 622 618 620 Z"/>
    <path class="bg" d="M 547 627 Q 514 753 390 835 Q 366 848 335 867 Q 313 880 340 879 Q 358 880 393 867 Q 438 854 476 828 Q 554 780 597 634 C 606 599 606 599 610 582 Q 619 540 626 487 Q 630 459 636 447 Q 643 440 637 430 Q 630 421 595 409 C 581 404 544 404 552 417 Q 553 418 555 423 Q 573 492 557 588 C 550 614 550 614 547 627 Z"/>
    <path class="bg" d="M 597 634 Q 663 746 750 865 Q 766 886 797 885 Q 897 886 929 882 Q 939 881 940 875 Q 941 871 928 862 Q 783 793 687 693 Q 653 659 618 620 C 608 608 588 622 597 634 Z"/>
</g>
<g id="anim-layer">
    <path style="--d:1s; stroke:#FF4444;" pathLength="3333" clip-path="url(#z28949c1)" d="M 116 325 L 143 520"/>
    <path style="--d:2s; stroke:#FF4444;" pathLength="3333" clip-path="url(#z28949c2)" d="M 367 258 L 387 296 L 302 383"/>
    <path style="--d:3s; stroke:#FF4444;" pathLength="3333" clip-path="url(#z28949c3)" d="M 223 121 L 283 172 L 260 640 L 195 807 L 90 886"/>
    <path style="--d:4s; stroke:#FF4444;" pathLength="3333" clip-path="url(#z28949c4)" d="M 290 652 L 370 762"/>
    <path style="--d:5s; stroke:#000;" pathLength="3333" clip-path="url(#z28949c5)" d="M 565 84 L 594 134 L 441 320"/>
    <path style="--d:6s; stroke:#000;" pathLength="3333" clip-path="url(#z28949c6)" d="M 553 242 L 672 215 L 707 241 L 600 376"/>
    <path style="--d:7s; stroke:#000;" pathLength="3333" clip-path="url(#z28949c7)" d="M 391 395 L 436 445 L 458 599"/>
    <path style="--d:8s; stroke:#000;" pathLength="3333" clip-path="url(#z28949c8)" d="M 457 407 L 756 375 L 786 412 L 752 546 L 730 558"/>
    <path style="--d:9s; stroke:#000;" pathLength="3333" clip-path="url(#z28949c9)" d="M 353 618 L 407 628 L 839 579 L 932 594"/>
    <path style="--d:10s; stroke:#000;" pathLength="3333" clip-path="url(#z28949c10)" d="M 561 420 L 600 449 L 540 712 L 461 810 L 333 873"/>
    <path style="--d:11s; stroke:#000;" pathLength="3333" clip-path="url(#z28949c11)" d="M 606 624 L 788 837 L 931 874"/>
</g>
</svg>