<svg id="z29245" class="acjk" viewBox="0 0 1024 1024" xmlns="http://www.w3.org/2000/svg">

<style>
<![CDATA[
@keyframes zk { to { stroke-dashoffset:0; } }
svg.acjk path[clip-path] {
    --t:0.8s;
    animation:zk var(--t) linear forwards var(--d);
    stroke-dasharray:3337;
    stroke-dashoffset:3339;
    stroke-width:128;
    stroke-linecap:round;
    fill:none;
}
/* Low opacity for background improves visual overlap at intersections */
svg.acjk .bg { fill:#ccc; opacity: 0.5; } 
]]>
</style>
<defs>
    <clipPath id="z29245c1"><path d="M 528 258 C 565 250 602 242 641 234 C 677 226 697 218 703 214 C 707 209 709 204 707 199 C 703 191 691 185 674 181 C 655 176 637 179 619 186 C 589 196 559 207 530 215 C 497 223 497 223 480 227 C 433 238 382 243 329 250 C 306 253 303 260 319 271 C 349 290 398 282 481 267 C 512 261 512 261 528 258 Z"/></clipPath>
    <clipPath id="z29245c2"><path d="M 357 398 C 374 376 389 356 405 341 C 410 334 412 327 405 320 C 384 299 367 290 357 292 C 351 292 348 296 348 304 C 348 326 342 353 323 381 C 310 399 310 399 304 408 C 291 425 262 450 214 495 C 208 500 210 505 218 504 C 262 494 307 456 330 430 C 348 409 348 409 357 398 Z"/></clipPath>
    <clipPath id="z29245c3"><path d="M 330 430 C 342 440 356 451 370 464 C 376 470 383 475 391 477 C 393 477 396 474 400 470 C 404 463 404 449 396 435 C 384 415 366 402 357 398 C 334 387 334 387 323 381 C 291 365 274 356 248 348 C 243 346 242 347 242 353 C 242 359 244 363 250 367 C 266 378 285 392 304 408 C 321 423 321 423 330 430 Z"/></clipPath>
    <clipPath id="z29245c4"><path d="M 337 591 C 352 571 367 553 382 537 C 387 531 387 522 381 516 C 361 496 344 488 333 488 C 327 488 324 492 324 500 C 324 518 318 543 304 572 C 299 581 293 589 287 598 C 265 626 244 648 226 664 C 210 677 197 686 190 695 C 184 701 186 703 194 703 C 222 701 262 676 313 621 C 321 611 329 601 337 591 Z"/></clipPath>
    <clipPath id="z29245c5"><path d="M 313 621 C 350 654 372 671 375 672 C 377 672 380 669 384 666 C 388 661 387 650 382 633 C 377 619 362 605 337 591 C 315 578 315 578 304 572 C 273 554 249 544 232 537 C 227 535 226 536 226 541 C 226 545 227 550 233 555 C 249 568 268 581 287 598 C 304 613 304 613 313 621 Z"/></clipPath>
    <clipPath id="z29245c6"><path d="M 696 367 C 717 340 735 319 752 303 C 757 297 759 288 752 280 C 734 260 717 251 705 251 C 699 251 696 255 697 263 C 697 285 687 314 666 347 C 659 357 650 366 642 376 C 638 380 613 404 558 451 C 551 456 554 460 562 460 C 584 458 619 438 665 399 C 676 389 686 378 696 367 Z"/></clipPath>
    <clipPath id="z29245c7"><path d="M 665 399 C 689 423 702 435 706 436 C 710 436 712 434 716 430 C 720 424 722 414 717 397 C 712 383 705 375 696 367 C 686 359 676 353 666 347 C 648 336 620 322 584 305 C 581 303 578 304 578 310 C 577 314 601 335 642 376 C 657 391 657 391 665 399 Z"/></clipPath>
    <clipPath id="z29245c8"><path d="M 704 564 C 733 533 758 505 783 484 C 789 478 790 470 784 462 C 766 440 750 429 737 428 C 730 427 727 432 727 440 C 725 472 706 507 671 545 C 662 553 654 562 646 570 C 635 579 624 587 613 595 C 596 606 583 614 575 623 C 568 629 570 632 578 632 C 592 632 623 619 670 590 C 682 582 694 574 704 564 Z"/></clipPath>
    <clipPath id="z29245c9"><path d="M 670 590 C 693 609 717 633 743 660 C 751 668 758 675 765 677 C 769 678 772 674 776 670 C 781 662 780 650 775 631 C 769 613 747 589 704 564 C 682 551 682 551 671 545 C 636 525 609 510 590 501 C 585 498 582 500 582 506 C 581 512 584 517 590 522 C 607 536 625 553 646 570 C 662 583 662 583 670 590 Z"/></clipPath>
    <clipPath id="z29245c10"><path d="M 505 600 C 513 543 525 304 528 258 C 529 229 529 229 530 215 C 530 196 537 163 554 117 C 557 106 557 97 550 91 C 535 77 514 68 488 61 C 471 56 459 57 453 62 C 446 66 447 72 452 81 C 463 99 469 118 473 140 C 475 154 479 187 480 227 C 481 254 481 254 481 267 C 481 301 483 398 471 495 C 459 595 453 642 417 701 C 379 761 342 795 287 829 C 245 854 193 876 131 902 C 121 905 117 910 117 913 C 117 915 122 917 130 919 C 146 921 175 919 216 907 C 290 884 349 850 391 814 C 438 771 475 723 498 633 C 500 622 503 611 505 600 Z"/></clipPath>
    <clipPath id="z29245c11"><path d="M 498 633 C 640 819 730 920 768 927 C 833 938 894 936 950 931 C 964 929 971 927 973 924 C 974 919 970 914 960 909 C 921 890 878 872 834 853 C 741 812 635 731 505 600 C 497 592 491 624 498 633 Z"/></clipPath>
</defs>
<g id="bg-layer">
    <path class="bg" d="M 528 258 C 565 250 602 242 641 234 C 677 226 697 218 703 214 C 707 209 709 204 707 199 C 703 191 691 185 674 181 C 655 176 637 179 619 186 C 589 196 559 207 530 215 C 497 223 497 223 480 227 C 433 238 382 243 329 250 C 306 253 303 260 319 271 C 349 290 398 282 481 267 C 512 261 512 261 528 258 Z"/>
    <path class="bg" d="M 357 398 C 374 376 389 356 405 341 C 410 334 412 327 405 320 C 384 299 367 290 357 292 C 351 292 348 296 348 304 C 348 326 342 353 323 381 C 310 399 310 399 304 408 C 291 425 262 450 214 495 C 208 500 210 505 218 504 C 262 494 307 456 330 430 C 348 409 348 409 357 398 Z"/>
    <path class="bg" d="M 330 430 C 342 440 356 451 370 464 C 376 470 383 475 391 477 C 393 477 396 474 400 470 C 404 463 404 449 396 435 C 384 415 366 402 357 398 C 334 387 334 387 323 381 C 291 365 274 356 248 348 C 243 346 242 347 242 353 C 242 359 244 363 250 367 C 266 378 285 392 304 408 C 321 423 321 423 330 430 Z"/>
    <path class="bg" d="M 337 591 C 352 571 367 553 382 537 C 387 531 387 522 381 516 C 361 496 344 488 333 488 C 327 488 324 492 324 500 C 324 518 318 543 304 572 C 299 581 293 589 287 598 C 265 626 244 648 226 664 C 210 677 197 686 190 695 C 184 701 186 703 194 703 C 222 701 262 676 313 621 C 321 611 329 601 337 591 Z"/>
    <path class="bg" d="M 313 621 C 350 654 372 671 375 672 C 377 672 380 669 384 666 C 388 661 387 650 382 633 C 377 619 362 605 337 591 C 315 578 315 578 304 572 C 273 554 249 544 232 537 C 227 535 226 536 226 541 C 226 545 227 550 233 555 C 249 568 268 581 287 598 C 304 613 304 613 313 621 Z"/>
    <path class="bg" d="M 696 367 C 717 340 735 319 752 303 C 757 297 759 288 752 280 C 734 260 717 251 705 251 C 699 251 696 255 697 263 C 697 285 687 314 666 347 C 659 357 650 366 642 376 C 638 380 613 404 558 451 C 551 456 554 460 562 460 C 584 458 619 438 665 399 C 676 389 686 378 696 367 Z"/>
    <path class="bg" d="M 665 399 C 689 423 702 435 706 436 C 710 436 712 434 716 430 C 720 424 722 414 717 397 C 712 383 705 375 696 367 C 686 359 676 353 666 347 C 648 336 620 322 584 305 C 581 303 578 304 578 310 C 577 314 601 335 642 376 C 657 391 657 391 665 399 Z"/>
    <path class="bg" d="M 704 564 C 733 533 758 505 783 484 C 789 478 790 470 784 462 C 766 440 750 429 737 428 C 730 427 727 432 727 440 C 725 472 706 507 671 545 C 662 553 654 562 646 570 C 635 579 624 587 613 595 C 596 606 583 614 575 623 C 568 629 570 632 578 632 C 592 632 623 619 670 590 C 682 582 694 574 704 564 Z"/>
    <path class="bg" d="M 670 590 C 693 609 717 633 743 660 C 751 668 758 675 765 677 C 769 678 772 674 776 670 C 781 662 780 650 775 631 C 769 613 747 589 704 564 C 682 551 682 551 671 545 C 636 525 609 510 590 501 C 585 498 582 500 582 506 C 581 512 584 517 590 522 C 607 536 625 553 646 570 C 662 583 662 583 670 590 Z"/>
    <path class="bg" d="M 505 600 C 513 543 525 304 528 258 C 529 229 529 229 530 215 C 530 196 537 163 554 117 C 557 106 557 97 550 91 C 535 77 514 68 488 61 C 471 56 459 57 453 62 C 446 66 447 72 452 81 C 463 99 469 118 473 140 C 475 154 479 187 480 227 C 481 254 481 254 481 267 C 481 301 483 398 471 495 C 459 595 453 642 417 701 C 379 761 342 795 287 829 C 245 854 193 876 131 902 C 121 905 117 910 117 913 C 117 915 122 917 130 919 C 146 921 175 919 216 907 C 290 884 349 850 391 814 C 438 771 475 723 498 633 C 500 622 503 611 505 600 Z"/>
    <path class="bg" d="M 498 633 C 640 819 730 920 768 927 C 833 938 894 936 950 931 C 964 929 971 927 973 924 C 974 919 970 914 960 909 C 921 890 878 872 834 853 C 741 812 635 731 505 600 C 497 592 491 624 498 633 Z"/>
</g>
<g id="anim-layer">
    <path style="--d:1s; stroke:#FF4444;" pathLength="3333" clip-path="url(#z29245c1)" d="M 318 260 L 700 200"/>
    <path style="--d:2s; stroke:#000;" pathLength="3333" clip-path="url(#z29245c2)" d="M 357 299 L 374 338 L 337 393 L 222 495"/>
    <path style="--d:3s; stroke:#000;" pathLength="3333" clip-path="url(#z29245c3)" d="M 250 356 L 361 426 L 391 469"/>
    <path style="--d:4s; stroke:#000;" pathLength="3333" clip-path="url(#z29245c4)" d="M 335 494 L 352 529 L 322 580 L 199 697"/>
    <path style="--d:5s; stroke:#000;" pathLength="3333" clip-path="url(#z29245c5)" d="M 233 544 L 379 660"/>
    <path style="--d:6s; stroke:#000;" pathLength="3333" clip-path="url(#z29245c6)" d="M 706 256 L 724 292 L 682 356 L 562 454"/>
    <path style="--d:7s; stroke:#000;" pathLength="3333" clip-path="url(#z29245c7)" d="M 586 312 L 690 391 L 706 429"/>
    <path style="--d:8s; stroke:#000;" pathLength="3333" clip-path="url(#z29245c8)" d="M 736 432 L 747 484 L 661 577 L 581 623"/>
    <path style="--d:9s; stroke:#000;" pathLength="3333" clip-path="url(#z29245c9)" d="M 588 506 L 728 610 L 770 672"/>
    <path style="--d:10s; stroke:#000;" pathLength="3333" clip-path="url(#z29245c10)" d="M 456 70 L 514 119 L 492 506 L 464 654 L 416 748 L 353 812 L 256 870 L 127 909"/>
    <path style="--d:11s; stroke:#000;" pathLength="3333" clip-path="url(#z29245c11)" d="M 506 610 L 767 872 L 967 919"/>
</g>
</svg>