<svg id="z29295" class="acjk" viewBox="0 0 1024 1024" xmlns="http://www.w3.org/2000/svg">

<style>
<![CDATA[
@keyframes zk { to { stroke-dashoffset:0; } }
svg.acjk path[clip-path] {
    --t:0.8s;
    animation:zk var(--t) linear forwards var(--d);
    stroke-dasharray:3337;
    stroke-dashoffset:3339;
    stroke-width:128;
    stroke-linecap:round;
    fill:none;
}
/* Low opacity for background improves visual overlap at intersections */
svg.acjk .bg { fill:#ccc; opacity: 0.5; } 
]]>
</style>
<defs>
    <clipPath id="z29295c1"><path d="M 204 393 Q 207 380 247 310 Q 256 297 240 284 Q 192 254 170 262 Q 160 265 163 279 Q 182 348 108 471 Q 96 483 76 516 Q 69 532 84 526 Q 129 513 190 417 C 199 401 199 401 204 393 Z"/></clipPath>
    <clipPath id="z29295c2"><path d="M 354 404 Q 438 380 441 377 Q 450 368 444 360 Q 437 348 406 343 Q 379 339 355 349 C 325 361 325 361 310 367 Q 238 385 204 393 C 195 395 181 414 190 417 Q 232 439 300 418 Q 304 417 309 416 C 339 408 339 408 354 404 Z"/></clipPath>
    <clipPath id="z29295c3"><path d="M 305 607 Q 305 700 280 792 Q 268 834 295 894 Q 302 912 310 915 Q 316 922 324 913 Q 331 909 342 888 Q 352 863 351 831 Q 350 797 352 576 C 352 556 352 556 352 546 Q 352 482 354 404 C 355 367 355 367 355 349 Q 355 228 375 156 Q 390 129 364 112 Q 348 100 318 83 Q 294 67 273 82 Q 269 86 274 102 Q 307 151 308 218 Q 308 291 310 367 C 309 400 309 400 309 416 Q 306 489 305 570 C 305 595 305 595 305 607 Z"/></clipPath>
    <clipPath id="z29295c4"><path d="M 305 570 Q 50 696 49 700 Q 48 709 60 723 Q 78 739 100 748 Q 113 751 128 739 Q 198 676 305 607 C 336 586 336 586 352 576 Q 422 531 428 524 Q 435 511 425 511 Q 409 512 352 546 C 321 562 321 562 305 570 Z"/></clipPath>
    <clipPath id="z29295c5"><path d="M 676 435 Q 746 425 854 422 Q 906 422 913 412 Q 917 399 901 386 Q 841 349 781 367 Q 738 377 680 390 C 645 397 645 397 627 400 Q 537 415 436 433 Q 414 437 431 453 Q 461 480 501 470 Q 559 452 625 443 C 659 438 659 438 676 435 Z"/></clipPath>
    <clipPath id="z29295c6"><path d="M 658 617 Q 667 523 676 435 C 679 405 679 405 680 390 Q 686 261 717 155 Q 721 142 700 124 Q 661 102 633 95 Q 615 91 606 100 Q 596 107 605 126 Q 633 171 632 201 Q 632 297 627 400 C 626 429 626 429 625 443 Q 618 531 610 626 C 610 642 658 633 658 617 Z"/></clipPath>
    <clipPath id="z29295c7"><path d="M 521 638 Q 508 632 480 626 Q 467 622 463 628 Q 456 634 464 651 Q 492 714 505 816 Q 506 847 524 867 Q 542 891 547 875 Q 553 860 553 838 C 551 815 551 815 550 804 Q 537 702 536 671 C 536 659 532 642 521 638 Z"/></clipPath>
    <clipPath id="z29295c8"><path d="M 804 781 Q 835 693 871 668 Q 889 649 874 630 Q 858 615 803 587 Q 784 578 761 586 Q 706 605 658 617 C 626 623 626 623 610 626 Q 565 632 521 638 C 509 640 524 673 536 671 Q 554 668 739 636 Q 761 632 771 641 Q 781 651 777 671 Q 765 728 750 775 C 743 792 797 798 804 781 Z"/></clipPath>
    <clipPath id="z29295c9"><path d="M 553 838 Q 563 842 578 840 Q 654 827 817 820 Q 829 819 830 810 Q 831 801 804 781 C 790 770 768 771 750 775 Q 639 797 550 804 C 539 804 542 836 553 838 Z"/></clipPath>
</defs>
<g id="bg-layer">
    <path class="bg" d="M 204 393 Q 207 380 247 310 Q 256 297 240 284 Q 192 254 170 262 Q 160 265 163 279 Q 182 348 108 471 Q 96 483 76 516 Q 69 532 84 526 Q 129 513 190 417 C 199 401 199 401 204 393 Z"/>
    <path class="bg" d="M 354 404 Q 438 380 441 377 Q 450 368 444 360 Q 437 348 406 343 Q 379 339 355 349 C 325 361 325 361 310 367 Q 238 385 204 393 C 195 395 181 414 190 417 Q 232 439 300 418 Q 304 417 309 416 C 339 408 339 408 354 404 Z"/>
    <path class="bg" d="M 305 607 Q 305 700 280 792 Q 268 834 295 894 Q 302 912 310 915 Q 316 922 324 913 Q 331 909 342 888 Q 352 863 351 831 Q 350 797 352 576 C 352 556 352 556 352 546 Q 352 482 354 404 C 355 367 355 367 355 349 Q 355 228 375 156 Q 390 129 364 112 Q 348 100 318 83 Q 294 67 273 82 Q 269 86 274 102 Q 307 151 308 218 Q 308 291 310 367 C 309 400 309 400 309 416 Q 306 489 305 570 C 305 595 305 595 305 607 Z"/>
    <path class="bg" d="M 305 570 Q 50 696 49 700 Q 48 709 60 723 Q 78 739 100 748 Q 113 751 128 739 Q 198 676 305 607 C 336 586 336 586 352 576 Q 422 531 428 524 Q 435 511 425 511 Q 409 512 352 546 C 321 562 321 562 305 570 Z"/>
    <path class="bg" d="M 676 435 Q 746 425 854 422 Q 906 422 913 412 Q 917 399 901 386 Q 841 349 781 367 Q 738 377 680 390 C 645 397 645 397 627 400 Q 537 415 436 433 Q 414 437 431 453 Q 461 480 501 470 Q 559 452 625 443 C 659 438 659 438 676 435 Z"/>
    <path class="bg" d="M 658 617 Q 667 523 676 435 C 679 405 679 405 680 390 Q 686 261 717 155 Q 721 142 700 124 Q 661 102 633 95 Q 615 91 606 100 Q 596 107 605 126 Q 633 171 632 201 Q 632 297 627 400 C 626 429 626 429 625 443 Q 618 531 610 626 C 610 642 658 633 658 617 Z"/>
    <path class="bg" d="M 521 638 Q 508 632 480 626 Q 467 622 463 628 Q 456 634 464 651 Q 492 714 505 816 Q 506 847 524 867 Q 542 891 547 875 Q 553 860 553 838 C 551 815 551 815 550 804 Q 537 702 536 671 C 536 659 532 642 521 638 Z"/>
    <path class="bg" d="M 804 781 Q 835 693 871 668 Q 889 649 874 630 Q 858 615 803 587 Q 784 578 761 586 Q 706 605 658 617 C 626 623 626 623 610 626 Q 565 632 521 638 C 509 640 524 673 536 671 Q 554 668 739 636 Q 761 632 771 641 Q 781 651 777 671 Q 765 728 750 775 C 743 792 797 798 804 781 Z"/>
    <path class="bg" d="M 553 838 Q 563 842 578 840 Q 654 827 817 820 Q 829 819 830 810 Q 831 801 804 781 C 790 770 768 771 750 775 Q 639 797 550 804 C 539 804 542 836 553 838 Z"/>
</g>
<g id="anim-layer">
    <path style="--d:1s; stroke:#FF4444;" pathLength="3333" clip-path="url(#z29295c1)" d="M 170 268 L 208 309 L 151 437 L 80 519"/>
    <path style="--d:2s; stroke:#FF4444;" pathLength="3333" clip-path="url(#z29295c2)" d="M 200 415 L 441 363"/>
    <path style="--d:3s; stroke:#FF4444;" pathLength="3333" clip-path="url(#z29295c3)" d="M 277 85 L 340 152 L 319 911"/>
    <path style="--d:4s; stroke:#FF4444;" pathLength="3333" clip-path="url(#z29295c4)" d="M 55 702 L 105 710 L 424 518"/>
    <path style="--d:5s; stroke:#000;" pathLength="3333" clip-path="url(#z29295c5)" d="M 430 441 L 908 397"/>
    <path style="--d:6s; stroke:#000;" pathLength="3333" clip-path="url(#z29295c6)" d="M 608 106 L 672 160 L 624 623"/>
    <path style="--d:7s; stroke:#000;" pathLength="3333" clip-path="url(#z29295c7)" d="M 468 635 L 508 682 L 536 874"/>
    <path style="--d:8s; stroke:#000;" pathLength="3333" clip-path="url(#z29295c8)" d="M 529 641 L 786 614 L 829 653 L 766 776"/>
    <path style="--d:9s; stroke:#000;" pathLength="3333" clip-path="url(#z29295c9)" d="M 558 813 L 825 808"/>
</g>
</svg>