<svg id="z29316" class="acjk" viewBox="0 0 1024 1024" xmlns="http://www.w3.org/2000/svg">

<style>
<![CDATA[
@keyframes zk { to { stroke-dashoffset:0; } }
svg.acjk path[clip-path] {
    --t:0.8s;
    animation:zk var(--t) linear forwards var(--d);
    stroke-dasharray:3337;
    stroke-dashoffset:3339;
    stroke-width:128;
    stroke-linecap:round;
    fill:none;
}
/* Low opacity for background improves visual overlap at intersections */
svg.acjk .bg { fill:#ccc; opacity: 0.5; } 
]]>
</style>
<defs>
    <clipPath id="z29316c1"><path d="M 204 379 Q 246 298 247 297 Q 246 293 245 291 Q 241 281 216 265 Q 192 252 177 254 Q 162 257 170 274 Q 188 301 141 403 Q 119 449 87 502 Q 80 512 78 517 Q 77 526 88 523 Q 124 508 190 402 C 199 387 199 387 204 379 Z"/></clipPath>
    <clipPath id="z29316c2"><path d="M 340 387 Q 418 363 422 359 Q 429 352 424 343 Q 417 333 387 328 Q 362 325 341 335 C 313 347 313 347 299 353 Q 235 371 204 379 C 195 381 182 399 190 402 Q 242 424 296 399 C 297 399 297 399 298 399 C 326 391 326 391 340 387 Z"/></clipPath>
    <clipPath id="z29316c3"><path d="M 293 590 Q 287 734 266 803 Q 256 840 280 902 Q 287 920 295 923 Q 301 930 308 921 Q 335 905 335 842 Q 334 805 337 558 C 337 537 337 537 337 527 Q 338 463 340 387 C 341 352 341 352 341 335 Q 341 230 361 158 Q 376 133 346 113 Q 331 101 306 87 Q 284 71 263 85 Q 259 89 265 105 Q 296 154 298 203 Q 298 273 299 353 C 298 384 298 384 298 399 Q 297 472 294 550 C 293 577 293 577 293 590 Z"/></clipPath>
    <clipPath id="z29316c4"><path d="M 294 550 Q 201 598 120 645 Q 86 664 62 670 Q 49 676 46 684 Q 45 693 59 707 Q 78 723 101 732 Q 117 736 128 725 Q 201 656 293 590 C 322 569 322 569 337 558 Q 394 513 396 512 Q 403 499 392 499 Q 377 500 337 527 C 308 542 308 542 294 550 Z"/></clipPath>
    <clipPath id="z29316c5"><path d="M 623 276 Q 675 263 733 252 Q 773 242 779 237 Q 788 230 783 220 Q 776 208 746 201 Q 719 195 637 223 C 602 232 602 232 585 237 Q 533 247 474 254 Q 437 261 463 278 Q 508 302 566 287 Q 567 287 572 287 C 606 280 606 280 623 276 Z"/></clipPath>
    <clipPath id="z29316c6"><path d="M 572 287 Q 539 365 468 421 Q 456 427 454 430 Q 450 436 464 437 Q 488 440 545 400 Q 584 367 621 280 Q 621 277 623 276 C 632 241 632 241 637 223 Q 647 148 662 117 Q 668 107 660 99 Q 644 83 612 67 Q 593 57 577 61 Q 558 67 572 84 Q 608 126 586 232 Q 585 233 585 237 C 576 270 576 270 572 287 Z"/></clipPath>
    <clipPath id="z29316c7"><path d="M 667 337 Q 689 356 712 378 Q 724 388 737 387 Q 744 386 749 376 Q 753 363 745 339 Q 741 323 715 312 Q 654 294 644 297 Q 640 301 641 311 Q 644 321 667 337 Z"/></clipPath>
    <clipPath id="z29316c8"><path d="M 756 454 Q 811 447 882 445 Q 939 445 945 434 Q 949 422 933 410 Q 881 374 845 385 Q 754 409 415 470 Q 396 473 411 489 Q 424 502 442 506 Q 463 510 478 505 Q 595 469 704 459 C 739 456 739 456 756 454 Z"/></clipPath>
    <clipPath id="z29316c9"><path d="M 471 564 Q 461 560 438 556 Q 428 553 424 558 Q 420 562 426 577 Q 450 626 465 706 Q 468 730 482 746 Q 498 765 502 751 Q 506 738 505 715 C 502 695 502 695 500 685 Q 488 612 487 590 C 487 580 480 568 471 564 Z"/></clipPath>
    <clipPath id="z29316c10"><path d="M 640 662 Q 653 604 672 585 Q 693 560 671 548 Q 652 538 626 522 Q 610 513 565 537 Q 514 555 471 564 C 461 566 477 592 487 590 Q 511 586 572 570 Q 593 566 598 574 Q 604 578 600 606 Q 596 631 591 661 C 588 677 637 678 640 662 Z"/></clipPath>
    <clipPath id="z29316c11"><path d="M 505 715 Q 514 716 524 713 Q 564 703 654 693 Q 664 692 665 683 Q 665 676 640 662 C 626 654 607 658 591 661 Q 540 674 500 685 C 490 688 495 715 505 715 Z"/></clipPath>
    <clipPath id="z29316c12"><path d="M 680 862 Q 658 855 629 848 Q 616 845 617 852 Q 617 859 628 869 Q 689 920 731 962 Q 743 972 756 955 Q 798 897 791 824 Q 779 620 784 513 Q 790 485 784 476 Q 777 466 756 454 C 742 444 698 443 704 459 Q 705 463 711 471 Q 723 495 723 535 Q 726 620 729 818 Q 728 849 718 862 Q 708 869 680 862 Z"/></clipPath>
</defs>
<g id="bg-layer">
    <path class="bg" d="M 204 379 Q 246 298 247 297 Q 246 293 245 291 Q 241 281 216 265 Q 192 252 177 254 Q 162 257 170 274 Q 188 301 141 403 Q 119 449 87 502 Q 80 512 78 517 Q 77 526 88 523 Q 124 508 190 402 C 199 387 199 387 204 379 Z"/>
    <path class="bg" d="M 340 387 Q 418 363 422 359 Q 429 352 424 343 Q 417 333 387 328 Q 362 325 341 335 C 313 347 313 347 299 353 Q 235 371 204 379 C 195 381 182 399 190 402 Q 242 424 296 399 C 297 399 297 399 298 399 C 326 391 326 391 340 387 Z"/>
    <path class="bg" d="M 293 590 Q 287 734 266 803 Q 256 840 280 902 Q 287 920 295 923 Q 301 930 308 921 Q 335 905 335 842 Q 334 805 337 558 C 337 537 337 537 337 527 Q 338 463 340 387 C 341 352 341 352 341 335 Q 341 230 361 158 Q 376 133 346 113 Q 331 101 306 87 Q 284 71 263 85 Q 259 89 265 105 Q 296 154 298 203 Q 298 273 299 353 C 298 384 298 384 298 399 Q 297 472 294 550 C 293 577 293 577 293 590 Z"/>
    <path class="bg" d="M 294 550 Q 201 598 120 645 Q 86 664 62 670 Q 49 676 46 684 Q 45 693 59 707 Q 78 723 101 732 Q 117 736 128 725 Q 201 656 293 590 C 322 569 322 569 337 558 Q 394 513 396 512 Q 403 499 392 499 Q 377 500 337 527 C 308 542 308 542 294 550 Z"/>
    <path class="bg" d="M 623 276 Q 675 263 733 252 Q 773 242 779 237 Q 788 230 783 220 Q 776 208 746 201 Q 719 195 637 223 C 602 232 602 232 585 237 Q 533 247 474 254 Q 437 261 463 278 Q 508 302 566 287 Q 567 287 572 287 C 606 280 606 280 623 276 Z"/>
    <path class="bg" d="M 572 287 Q 539 365 468 421 Q 456 427 454 430 Q 450 436 464 437 Q 488 440 545 400 Q 584 367 621 280 Q 621 277 623 276 C 632 241 632 241 637 223 Q 647 148 662 117 Q 668 107 660 99 Q 644 83 612 67 Q 593 57 577 61 Q 558 67 572 84 Q 608 126 586 232 Q 585 233 585 237 C 576 270 576 270 572 287 Z"/>
    <path class="bg" d="M 667 337 Q 689 356 712 378 Q 724 388 737 387 Q 744 386 749 376 Q 753 363 745 339 Q 741 323 715 312 Q 654 294 644 297 Q 640 301 641 311 Q 644 321 667 337 Z"/>
    <path class="bg" d="M 756 454 Q 811 447 882 445 Q 939 445 945 434 Q 949 422 933 410 Q 881 374 845 385 Q 754 409 415 470 Q 396 473 411 489 Q 424 502 442 506 Q 463 510 478 505 Q 595 469 704 459 C 739 456 739 456 756 454 Z"/>
    <path class="bg" d="M 471 564 Q 461 560 438 556 Q 428 553 424 558 Q 420 562 426 577 Q 450 626 465 706 Q 468 730 482 746 Q 498 765 502 751 Q 506 738 505 715 C 502 695 502 695 500 685 Q 488 612 487 590 C 487 580 480 568 471 564 Z"/>
    <path class="bg" d="M 640 662 Q 653 604 672 585 Q 693 560 671 548 Q 652 538 626 522 Q 610 513 565 537 Q 514 555 471 564 C 461 566 477 592 487 590 Q 511 586 572 570 Q 593 566 598 574 Q 604 578 600 606 Q 596 631 591 661 C 588 677 637 678 640 662 Z"/>
    <path class="bg" d="M 505 715 Q 514 716 524 713 Q 564 703 654 693 Q 664 692 665 683 Q 665 676 640 662 C 626 654 607 658 591 661 Q 540 674 500 685 C 490 688 495 715 505 715 Z"/>
    <path class="bg" d="M 680 862 Q 658 855 629 848 Q 616 845 617 852 Q 617 859 628 869 Q 689 920 731 962 Q 743 972 756 955 Q 798 897 791 824 Q 779 620 784 513 Q 790 485 784 476 Q 777 466 756 454 C 742 444 698 443 704 459 Q 705 463 711 471 Q 723 495 723 535 Q 726 620 729 818 Q 728 849 718 862 Q 708 869 680 862 Z"/>
</g>
<g id="anim-layer">
    <path style="--d:1s; stroke:#FF4444;" pathLength="3333" clip-path="url(#z29316c1)" d="M 175 259 L 209 304 L 86 517"/>
    <path style="--d:2s; stroke:#FF4444;" pathLength="3333" clip-path="url(#z29316c2)" d="M 196 397 L 417 347"/>
    <path style="--d:3s; stroke:#FF4444;" pathLength="3333" clip-path="url(#z29316c3)" d="M 268 90 L 329 156 L 307 920"/>
    <path style="--d:4s; stroke:#FF4444;" pathLength="3333" clip-path="url(#z29316c4)" d="M 50 686 L 109 693 L 392 506"/>
    <path style="--d:5s; stroke:#000;" pathLength="3333" clip-path="url(#z29316c5)" d="M 457 265 L 538 269 L 777 224"/>
    <path style="--d:6s; stroke:#000;" pathLength="3333" clip-path="url(#z29316c6)" d="M 572 68 L 627 119 L 598 276 L 533 386 L 463 431"/>
    <path style="--d:7s; stroke:#000;" pathLength="3333" clip-path="url(#z29316c7)" d="M 651 307 L 740 380"/>
    <path style="--d:8s; stroke:#000;" pathLength="3333" clip-path="url(#z29316c8)" d="M 409 477 L 472 483 L 844 415 L 941 425"/>
    <path style="--d:9s; stroke:#000;" pathLength="3333" clip-path="url(#z29316c9)" d="M 429 560 L 461 595 L 494 750"/>
    <path style="--d:10s; stroke:#000;" pathLength="3333" clip-path="url(#z29316c10)" d="M 480 568 L 618 551 L 641 572 L 613 661"/>
    <path style="--d:11s; stroke:#000;" pathLength="3333" clip-path="url(#z29316c11)" d="M 507 690 L 658 685"/>
    <path style="--d:12s; stroke:#000;" pathLength="3333" clip-path="url(#z29316c12)" d="M 712 461 L 754 498 L 756 867 L 723 915 L 624 854"/>
</g>
</svg>