<svg id="z29378" class="acjk" viewBox="0 0 1024 1024" xmlns="http://www.w3.org/2000/svg">

<style>
<![CDATA[
@keyframes zk { to { stroke-dashoffset:0; } }
svg.acjk path[clip-path] {
    --t:0.8s;
    animation:zk var(--t) linear forwards var(--d);
    stroke-dasharray:3337;
    stroke-dashoffset:3339;
    stroke-width:128;
    stroke-linecap:round;
    fill:none;
}
/* Low opacity for background improves visual overlap at intersections */
svg.acjk .bg { fill:#ccc; opacity: 0.5; } 
]]>
</style>
<defs>
    <clipPath id="z29378c1"><path d="M 328 281 Q 359 232 432 150 Q 445 137 431 119 Q 386 74 359 76 Q 346 77 347 94 Q 347 158 301 229 C 280 258 280 258 270 272 Q 204 350 158 385 Q 113 418 91 439 Q 79 455 97 452 Q 167 449 290 323 C 315 295 315 295 328 281 Z"/></clipPath>
    <clipPath id="z29378c2"><path d="M 318 485 Q 327 645 286 763 Q 277 782 266 786 Q 253 786 218 771 Q 187 758 182 764 Q 178 770 187 784 Q 223 823 244 859 Q 266 892 278 891 Q 288 891 310 867 Q 380 771 375 542 Q 366 377 328 281 C 310 246 310 246 301 229 Q 265 172 166 143 Q 163 142 162 142 Q 146 138 144 150 Q 144 165 155 183 Q 168 201 187 201 Q 232 210 270 272 C 283 306 283 306 290 323 Q 299 354 306 388 C 314 453 314 453 318 485 Z"/></clipPath>
    <clipPath id="z29378c3"><path d="M 306 388 Q 243 541 67 698 Q 61 702 55 708 Q 42 721 52 723 Q 62 727 74 721 Q 194 672 308 500 Q 312 491 318 485 C 341 462 318 358 306 388 Z"/></clipPath>
    <clipPath id="z29378c4"><path d="M 651 307 Q 838 270 846 264 Q 856 255 851 246 Q 844 233 811 223 Q 772 214 690 244 Q 572 271 484 279 Q 442 285 472 304 Q 520 331 594 317 C 632 310 632 310 651 307 Z"/></clipPath>
    <clipPath id="z29378c5"><path d="M 666 527 Q 712 515 766 505 Q 809 495 815 489 Q 824 482 819 472 Q 812 460 782 453 Q 752 447 668 477 C 629 488 629 488 609 493 Q 554 503 494 510 Q 457 517 483 534 Q 522 555 594 541 Q 600 540 609 539 C 647 531 647 531 666 527 Z"/></clipPath>
    <clipPath id="z29378c6"><path d="M 659 717 Q 663 614 666 527 C 667 494 667 494 668 477 Q 671 372 673 357 Q 682 330 651 307 C 636 295 591 298 594 317 Q 606 368 609 440 Q 609 461 609 493 C 609 524 609 524 609 539 Q 608 612 608 723 C 608 740 659 734 659 717 Z"/></clipPath>
    <clipPath id="z29378c7"><path d="M 608 723 Q 511 733 402 748 Q 380 749 396 769 Q 412 785 431 791 Q 455 797 472 792 Q 617 756 896 756 Q 912 756 927 757 Q 949 758 955 748 Q 961 735 943 720 Q 886 677 844 685 Q 775 698 659 717 C 625 721 625 721 608 723 Z"/></clipPath>
</defs>
<g id="bg-layer">
    <path class="bg" d="M 328 281 Q 359 232 432 150 Q 445 137 431 119 Q 386 74 359 76 Q 346 77 347 94 Q 347 158 301 229 C 280 258 280 258 270 272 Q 204 350 158 385 Q 113 418 91 439 Q 79 455 97 452 Q 167 449 290 323 C 315 295 315 295 328 281 Z"/>
    <path class="bg" d="M 318 485 Q 327 645 286 763 Q 277 782 266 786 Q 253 786 218 771 Q 187 758 182 764 Q 178 770 187 784 Q 223 823 244 859 Q 266 892 278 891 Q 288 891 310 867 Q 380 771 375 542 Q 366 377 328 281 C 310 246 310 246 301 229 Q 265 172 166 143 Q 163 142 162 142 Q 146 138 144 150 Q 144 165 155 183 Q 168 201 187 201 Q 232 210 270 272 C 283 306 283 306 290 323 Q 299 354 306 388 C 314 453 314 453 318 485 Z"/>
    <path class="bg" d="M 306 388 Q 243 541 67 698 Q 61 702 55 708 Q 42 721 52 723 Q 62 727 74 721 Q 194 672 308 500 Q 312 491 318 485 C 341 462 318 358 306 388 Z"/>
    <path class="bg" d="M 651 307 Q 838 270 846 264 Q 856 255 851 246 Q 844 233 811 223 Q 772 214 690 244 Q 572 271 484 279 Q 442 285 472 304 Q 520 331 594 317 C 632 310 632 310 651 307 Z"/>
    <path class="bg" d="M 666 527 Q 712 515 766 505 Q 809 495 815 489 Q 824 482 819 472 Q 812 460 782 453 Q 752 447 668 477 C 629 488 629 488 609 493 Q 554 503 494 510 Q 457 517 483 534 Q 522 555 594 541 Q 600 540 609 539 C 647 531 647 531 666 527 Z"/>
    <path class="bg" d="M 659 717 Q 663 614 666 527 C 667 494 667 494 668 477 Q 671 372 673 357 Q 682 330 651 307 C 636 295 591 298 594 317 Q 606 368 609 440 Q 609 461 609 493 C 609 524 609 524 609 539 Q 608 612 608 723 C 608 740 659 734 659 717 Z"/>
    <path class="bg" d="M 608 723 Q 511 733 402 748 Q 380 749 396 769 Q 412 785 431 791 Q 455 797 472 792 Q 617 756 896 756 Q 912 756 927 757 Q 949 758 955 748 Q 961 735 943 720 Q 886 677 844 685 Q 775 698 659 717 C 625 721 625 721 608 723 Z"/>
</g>
<g id="anim-layer">
    <path style="--d:1s; stroke:#FF4444;" pathLength="3333" clip-path="url(#z29378c1)" d="M 356 85 L 389 141 L 303 271 L 204 374 L 97 443"/>
    <path style="--d:2s; stroke:#FF4444;" pathLength="3333" clip-path="url(#z29378c2)" d="M 152 150 L 249 207 L 288 255 L 346 508 L 337 692 L 298 814 L 268 838 L 186 772"/>
    <path style="--d:3s; stroke:#FF4444;" pathLength="3333" clip-path="url(#z29378c3)" d="M 303 402 L 291 478 L 224 571 L 53 715"/>
    <path style="--d:4s; stroke:#000;" pathLength="3333" clip-path="url(#z29378c4)" d="M 466 288 L 548 297 L 847 247"/>
    <path style="--d:5s; stroke:#000;" pathLength="3333" clip-path="url(#z29378c5)" d="M 479 522 L 813 476"/>
    <path style="--d:6s; stroke:#000;" pathLength="3333" clip-path="url(#z29378c6)" d="M 602 324 L 639 358 L 629 720"/>
    <path style="--d:7s; stroke:#000;" pathLength="3333" clip-path="url(#z29378c7)" d="M 394 754 L 449 768 L 842 720 L 952 737"/>
</g>
</svg>