<svg id="z29451" class="acjk" viewBox="0 0 1024 1024" xmlns="http://www.w3.org/2000/svg">

<style>
<![CDATA[
@keyframes zk { to { stroke-dashoffset:0; } }
svg.acjk path[clip-path] {
    --t:0.8s;
    animation:zk var(--t) linear forwards var(--d);
    stroke-dasharray:3337;
    stroke-dashoffset:3339;
    stroke-width:128;
    stroke-linecap:round;
    fill:none;
}
/* Low opacity for background improves visual overlap at intersections */
svg.acjk .bg { fill:#ccc; opacity: 0.5; } 
]]>
</style>
<defs>
    <clipPath id="z29451c1"><path d="M 496 255 Q 559 245 653 241 Q 699 241 704 232 Q 708 222 694 212 Q 646 179 592 197 Q 553 206 502 218 C 465 225 465 225 447 228 Q 372 241 285 257 Q 269 260 282 273 Q 309 295 339 287 Q 385 272 438 264 C 477 258 477 258 496 255 Z"/></clipPath>
    <clipPath id="z29451c2"><path d="M 502 218 Q 517 154 525 137 Q 534 121 518 112 Q 476 78 450 87 Q 437 91 443 105 Q 464 136 447 228 C 441 252 441 252 438 264 Q 437 265 437 269 Q 406 369 324 421 Q 311 431 295 442 Q 283 451 295 453 Q 347 453 408 397 Q 456 355 486 277 C 497 238 497 238 502 218 Z"/></clipPath>
    <clipPath id="z29451c3"><path d="M 486 277 Q 540 359 613 447 Q 635 469 756 449 Q 763 448 764 443 Q 764 439 754 433 Q 646 388 579 332 Q 539 298 496 255 C 486 245 478 266 486 277 Z"/></clipPath>
    <clipPath id="z29451c4"><path d="M 653 122 Q 684 147 716 180 Q 726 190 740 190 Q 749 190 753 179 Q 757 167 751 143 Q 742 110 650 83 Q 637 79 632 81 Q 628 85 629 95 Q 632 105 653 122 Z"/></clipPath>
    <clipPath id="z29451c5"><path d="M 312 676 Q 322 673 431 656 Q 441 657 449 645 Q 450 635 429 625 Q 395 604 319 631 C 285 639 285 639 268 643 Q 250 646 115 669 Q 88 673 110 689 Q 140 710 179 702 Q 213 693 260 686 C 295 679 295 679 312 676 Z"/></clipPath>
    <clipPath id="z29451c6"><path d="M 302 710 Q 306 694 312 676 C 317 646 317 646 319 631 Q 328 568 338 550 Q 345 534 331 526 Q 285 496 264 506 Q 252 510 258 523 Q 280 554 268 643 C 263 672 263 672 260 686 Q 259 687 259 692 Q 232 788 123 874 Q 111 884 123 885 Q 135 885 165 871 Q 204 852 232 823 Q 253 805 294 732 Q 294 731 295 729 C 300 716 300 716 302 710 Z"/></clipPath>
    <clipPath id="z29451c7"><path d="M 295 729 Q 349 783 393 832 Q 406 848 419 853 Q 426 854 433 846 Q 443 836 433 798 Q 423 750 302 710 C 296 707 290 724 295 729 Z"/></clipPath>
    <clipPath id="z29451c8"><path d="M 397 538 Q 419 559 444 584 Q 454 594 468 594 Q 477 594 481 583 Q 485 571 479 547 Q 475 531 449 517 Q 389 493 376 497 Q 372 501 373 511 Q 376 521 397 538 Z"/></clipPath>
    <clipPath id="z29451c9"><path d="M 667 665 Q 724 656 809 653 Q 851 653 856 644 Q 860 634 846 624 Q 798 591 736 612 Q 706 618 672 627 C 637 634 637 634 619 638 Q 550 651 473 665 Q 457 668 470 681 Q 497 703 527 695 Q 569 682 615 674 C 650 668 650 668 667 665 Z"/></clipPath>
    <clipPath id="z29451c10"><path d="M 664 677 Q 665 671 667 665 C 670 640 670 640 672 627 Q 682 555 688 543 Q 695 525 680 518 Q 632 490 610 499 Q 598 503 605 518 Q 627 548 619 638 C 616 662 616 662 615 674 Q 591 783 505 858 Q 492 870 478 882 Q 466 892 478 893 Q 529 887 589 826 Q 619 796 657 708 C 662 687 662 687 664 677 Z"/></clipPath>
    <clipPath id="z29451c11"><path d="M 657 708 Q 708 790 774 880 Q 801 910 923 889 Q 930 888 932 883 Q 933 879 922 872 Q 804 818 722 736 Q 694 708 664 677 C 657 670 651 700 657 708 Z"/></clipPath>
    <clipPath id="z29451c12"><path d="M 788 515 Q 813 537 840 567 Q 850 577 864 578 Q 873 578 877 567 Q 881 555 876 531 Q 870 503 786 475 Q 773 471 768 473 Q 764 477 764 487 Q 767 497 788 515 Z"/></clipPath>
</defs>
<g id="bg-layer">
    <path class="bg" d="M 496 255 Q 559 245 653 241 Q 699 241 704 232 Q 708 222 694 212 Q 646 179 592 197 Q 553 206 502 218 C 465 225 465 225 447 228 Q 372 241 285 257 Q 269 260 282 273 Q 309 295 339 287 Q 385 272 438 264 C 477 258 477 258 496 255 Z"/>
    <path class="bg" d="M 502 218 Q 517 154 525 137 Q 534 121 518 112 Q 476 78 450 87 Q 437 91 443 105 Q 464 136 447 228 C 441 252 441 252 438 264 Q 437 265 437 269 Q 406 369 324 421 Q 311 431 295 442 Q 283 451 295 453 Q 347 453 408 397 Q 456 355 486 277 C 497 238 497 238 502 218 Z"/>
    <path class="bg" d="M 486 277 Q 540 359 613 447 Q 635 469 756 449 Q 763 448 764 443 Q 764 439 754 433 Q 646 388 579 332 Q 539 298 496 255 C 486 245 478 266 486 277 Z"/>
    <path class="bg" d="M 653 122 Q 684 147 716 180 Q 726 190 740 190 Q 749 190 753 179 Q 757 167 751 143 Q 742 110 650 83 Q 637 79 632 81 Q 628 85 629 95 Q 632 105 653 122 Z"/>
    <path class="bg" d="M 312 676 Q 322 673 431 656 Q 441 657 449 645 Q 450 635 429 625 Q 395 604 319 631 C 285 639 285 639 268 643 Q 250 646 115 669 Q 88 673 110 689 Q 140 710 179 702 Q 213 693 260 686 C 295 679 295 679 312 676 Z"/>
    <path class="bg" d="M 302 710 Q 306 694 312 676 C 317 646 317 646 319 631 Q 328 568 338 550 Q 345 534 331 526 Q 285 496 264 506 Q 252 510 258 523 Q 280 554 268 643 C 263 672 263 672 260 686 Q 259 687 259 692 Q 232 788 123 874 Q 111 884 123 885 Q 135 885 165 871 Q 204 852 232 823 Q 253 805 294 732 Q 294 731 295 729 C 300 716 300 716 302 710 Z"/>
    <path class="bg" d="M 295 729 Q 349 783 393 832 Q 406 848 419 853 Q 426 854 433 846 Q 443 836 433 798 Q 423 750 302 710 C 296 707 290 724 295 729 Z"/>
    <path class="bg" d="M 397 538 Q 419 559 444 584 Q 454 594 468 594 Q 477 594 481 583 Q 485 571 479 547 Q 475 531 449 517 Q 389 493 376 497 Q 372 501 373 511 Q 376 521 397 538 Z"/>
    <path class="bg" d="M 667 665 Q 724 656 809 653 Q 851 653 856 644 Q 860 634 846 624 Q 798 591 736 612 Q 706 618 672 627 C 637 634 637 634 619 638 Q 550 651 473 665 Q 457 668 470 681 Q 497 703 527 695 Q 569 682 615 674 C 650 668 650 668 667 665 Z"/>
    <path class="bg" d="M 664 677 Q 665 671 667 665 C 670 640 670 640 672 627 Q 682 555 688 543 Q 695 525 680 518 Q 632 490 610 499 Q 598 503 605 518 Q 627 548 619 638 C 616 662 616 662 615 674 Q 591 783 505 858 Q 492 870 478 882 Q 466 892 478 893 Q 529 887 589 826 Q 619 796 657 708 C 662 687 662 687 664 677 Z"/>
    <path class="bg" d="M 657 708 Q 708 790 774 880 Q 801 910 923 889 Q 930 888 932 883 Q 933 879 922 872 Q 804 818 722 736 Q 694 708 664 677 C 657 670 651 700 657 708 Z"/>
    <path class="bg" d="M 788 515 Q 813 537 840 567 Q 850 577 864 578 Q 873 578 877 567 Q 881 555 876 531 Q 870 503 786 475 Q 773 471 768 473 Q 764 477 764 487 Q 767 497 788 515 Z"/>
</g>
<g id="anim-layer">
    <path style="--d:1s; stroke:#FF4444;" pathLength="3333" clip-path="url(#z29451c1)" d="M 282 262 L 612 217 L 700 225"/>
    <path style="--d:2s; stroke:#FF4444;" pathLength="3333" clip-path="url(#z29451c2)" d="M 447 92 L 491 136 L 450 302 L 393 386 L 294 447"/>
    <path style="--d:3s; stroke:#FF4444;" pathLength="3333" clip-path="url(#z29451c3)" d="M 490 261 L 635 416 L 756 441"/>
    <path style="--d:4s; stroke:#FF4444;" pathLength="3333" clip-path="url(#z29451c4)" d="M 636 86 L 745 183"/>
    <path style="--d:5s; stroke:#000;" pathLength="3333" clip-path="url(#z29451c5)" d="M 109 677 L 444 642"/>
    <path style="--d:6s; stroke:#000;" pathLength="3333" clip-path="url(#z29451c6)" d="M 263 511 L 305 547 L 272 724 L 213 815 L 122 878"/>
    <path style="--d:7s; stroke:#000;" pathLength="3333" clip-path="url(#z29451c7)" d="M 301 718 L 385 780 L 427 844"/>
    <path style="--d:8s; stroke:#000;" pathLength="3333" clip-path="url(#z29451c8)" d="M 380 502 L 473 587"/>
    <path style="--d:9s; stroke:#000;" pathLength="3333" clip-path="url(#z29451c9)" d="M 472 672 L 852 634"/>
    <path style="--d:10s; stroke:#000;" pathLength="3333" clip-path="url(#z29451c10)" d="M 609 506 L 654 546 L 632 704 L 569 819 L 479 888"/>
    <path style="--d:11s; stroke:#000;" pathLength="3333" clip-path="url(#z29451c11)" d="M 665 688 L 804 853 L 925 881"/>
    <path style="--d:12s; stroke:#000;" pathLength="3333" clip-path="url(#z29451c12)" d="M 771 479 L 869 570"/>
</g>
</svg>