<svg id="z29492" class="acjk" viewBox="0 0 1024 1024" xmlns="http://www.w3.org/2000/svg">

<style>
<![CDATA[
@keyframes zk { to { stroke-dashoffset:0; } }
svg.acjk path[clip-path] {
    --t:0.8s;
    animation:zk var(--t) linear forwards var(--d);
    stroke-dasharray:3337;
    stroke-dashoffset:3339;
    stroke-width:128;
    stroke-linecap:round;
    fill:none;
}
/* Low opacity for background improves visual overlap at intersections */
svg.acjk .bg { fill:#ccc; opacity: 0.5; } 
]]>
</style>
<defs>
    <clipPath id="z29492c1"><path d="M 295 318 Q 307 303 319 288 Q 353 242 386 203 Q 398 193 385 176 Q 346 137 321 139 Q 311 140 311 155 Q 311 209 275 266 C 255 294 255 294 245 308 Q 242 309 241 313 Q 208 356 167 389 Q 133 416 114 432 Q 104 447 120 443 Q 168 440 258 357 C 283 331 283 331 295 318 Z"/></clipPath>
    <clipPath id="z29492c2"><path d="M 278 504 Q 281 675 255 768 Q 249 784 241 785 Q 226 789 183 785 Q 153 778 149 784 Q 146 790 157 801 Q 199 831 227 860 Q 243 882 252 881 Q 259 884 276 865 Q 363 747 311 386 Q 304 349 295 318 C 282 283 282 283 275 266 Q 239 205 172 178 Q 159 171 155 183 Q 152 196 159 214 Q 168 232 185 235 Q 224 251 245 308 C 254 341 254 341 258 357 Q 265 391 270 428 C 275 479 275 479 278 504 Z"/></clipPath>
    <clipPath id="z29492c3"><path d="M 270 428 Q 204 536 57 678 Q 50 687 61 690 Q 79 693 186 606 Q 232 566 278 504 C 294 484 285 408 270 428 Z"/></clipPath>
    <clipPath id="z29492c4"><path d="M 423 394 Q 487 295 525 219 Q 541 179 559 158 Q 566 148 561 135 Q 555 123 527 105 Q 500 92 482 93 Q 466 97 475 117 Q 487 138 480 174 Q 441 303 339 463 Q 332 473 329 479 Q 328 489 340 486 Q 352 483 399 427 C 415 405 415 405 423 394 Z"/></clipPath>
    <clipPath id="z29492c5"><path d="M 399 427 Q 400 433 405 439 Q 432 502 414 682 Q 407 734 394 789 Q 382 838 417 879 C 418 880 418 880 418 881 Q 434 896 446 871 Q 459 832 459 789 Q 459 531 467 473 Q 474 448 465 438 Q 432 399 423 394 C 411 387 396 414 399 427 Z"/></clipPath>
    <clipPath id="z29492c6"><path d="M 773 287 Q 794 238 816 223 Q 829 207 817 191 Q 748 143 701 171 Q 647 190 596 201 Q 583 202 584 211 Q 587 217 602 221 Q 614 224 708 206 Q 730 200 735 204 Q 742 211 739 226 Q 730 266 720 300 C 714 317 766 304 773 287 Z"/></clipPath>
    <clipPath id="z29492c7"><path d="M 720 300 Q 711 301 704 303 Q 665 310 516 334 Q 491 338 510 353 Q 543 375 565 370 Q 689 340 856 318 Q 865 319 873 308 Q 874 298 854 288 Q 827 269 773 287 C 738 296 738 296 720 300 Z"/></clipPath>
    <clipPath id="z29492c8"><path d="M 602 476 Q 636 419 637 418 Q 630 399 599 392 Q 583 388 575 390 Q 569 393 571 402 Q 580 415 564 456 Q 552 490 508 547 Q 502 551 510 553 Q 558 537 592 488 C 599 480 599 480 602 476 Z"/></clipPath>
    <clipPath id="z29492c9"><path d="M 677 504 Q 689 498 806 469 Q 833 462 837 458 Q 844 451 840 443 Q 833 433 805 427 Q 777 423 751 436 Q 721 448 689 458 Q 652 468 610 473 Q 604 474 602 476 C 597 478 588 485 592 488 Q 601 497 638 505 C 651 508 665 509 677 504 Z"/></clipPath>
    <clipPath id="z29492c10"><path d="M 697 620 Q 764 607 871 605 Q 917 605 924 596 Q 928 586 914 576 Q 862 540 817 560 Q 769 570 699 585 C 663 592 663 592 645 595 Q 570 607 485 621 Q 469 624 482 637 Q 509 661 539 652 Q 585 637 639 629 C 678 623 678 623 697 620 Z"/></clipPath>
    <clipPath id="z29492c11"><path d="M 699 585 Q 703 563 713 546 Q 722 531 708 523 Q 693 511 681 505 Q 680 504 677 504 C 665 499 638 492 638 505 Q 637 508 640 514 Q 644 523 645 595 C 641 618 641 618 639 629 Q 612 747 488 831 Q 476 838 487 841 Q 529 845 595 792 Q 664 738 684 643 C 694 604 694 604 699 585 Z"/></clipPath>
    <clipPath id="z29492c12"><path d="M 684 643 Q 735 734 803 834 Q 816 850 841 852 Q 923 855 951 852 Q 958 851 960 847 Q 961 843 951 836 Q 837 779 761 695 Q 730 661 697 620 C 687 610 677 630 684 643 Z"/></clipPath>
</defs>
<g id="bg-layer">
    <path class="bg" d="M 295 318 Q 307 303 319 288 Q 353 242 386 203 Q 398 193 385 176 Q 346 137 321 139 Q 311 140 311 155 Q 311 209 275 266 C 255 294 255 294 245 308 Q 242 309 241 313 Q 208 356 167 389 Q 133 416 114 432 Q 104 447 120 443 Q 168 440 258 357 C 283 331 283 331 295 318 Z"/>
    <path class="bg" d="M 278 504 Q 281 675 255 768 Q 249 784 241 785 Q 226 789 183 785 Q 153 778 149 784 Q 146 790 157 801 Q 199 831 227 860 Q 243 882 252 881 Q 259 884 276 865 Q 363 747 311 386 Q 304 349 295 318 C 282 283 282 283 275 266 Q 239 205 172 178 Q 159 171 155 183 Q 152 196 159 214 Q 168 232 185 235 Q 224 251 245 308 C 254 341 254 341 258 357 Q 265 391 270 428 C 275 479 275 479 278 504 Z"/>
    <path class="bg" d="M 270 428 Q 204 536 57 678 Q 50 687 61 690 Q 79 693 186 606 Q 232 566 278 504 C 294 484 285 408 270 428 Z"/>
    <path class="bg" d="M 423 394 Q 487 295 525 219 Q 541 179 559 158 Q 566 148 561 135 Q 555 123 527 105 Q 500 92 482 93 Q 466 97 475 117 Q 487 138 480 174 Q 441 303 339 463 Q 332 473 329 479 Q 328 489 340 486 Q 352 483 399 427 C 415 405 415 405 423 394 Z"/>
    <path class="bg" d="M 399 427 Q 400 433 405 439 Q 432 502 414 682 Q 407 734 394 789 Q 382 838 417 879 C 418 880 418 880 418 881 Q 434 896 446 871 Q 459 832 459 789 Q 459 531 467 473 Q 474 448 465 438 Q 432 399 423 394 C 411 387 396 414 399 427 Z"/>
    <path class="bg" d="M 773 287 Q 794 238 816 223 Q 829 207 817 191 Q 748 143 701 171 Q 647 190 596 201 Q 583 202 584 211 Q 587 217 602 221 Q 614 224 708 206 Q 730 200 735 204 Q 742 211 739 226 Q 730 266 720 300 C 714 317 766 304 773 287 Z"/>
    <path class="bg" d="M 720 300 Q 711 301 704 303 Q 665 310 516 334 Q 491 338 510 353 Q 543 375 565 370 Q 689 340 856 318 Q 865 319 873 308 Q 874 298 854 288 Q 827 269 773 287 C 738 296 738 296 720 300 Z"/>
    <path class="bg" d="M 602 476 Q 636 419 637 418 Q 630 399 599 392 Q 583 388 575 390 Q 569 393 571 402 Q 580 415 564 456 Q 552 490 508 547 Q 502 551 510 553 Q 558 537 592 488 C 599 480 599 480 602 476 Z"/>
    <path class="bg" d="M 677 504 Q 689 498 806 469 Q 833 462 837 458 Q 844 451 840 443 Q 833 433 805 427 Q 777 423 751 436 Q 721 448 689 458 Q 652 468 610 473 Q 604 474 602 476 C 597 478 588 485 592 488 Q 601 497 638 505 C 651 508 665 509 677 504 Z"/>
    <path class="bg" d="M 697 620 Q 764 607 871 605 Q 917 605 924 596 Q 928 586 914 576 Q 862 540 817 560 Q 769 570 699 585 C 663 592 663 592 645 595 Q 570 607 485 621 Q 469 624 482 637 Q 509 661 539 652 Q 585 637 639 629 C 678 623 678 623 697 620 Z"/>
    <path class="bg" d="M 699 585 Q 703 563 713 546 Q 722 531 708 523 Q 693 511 681 505 Q 680 504 677 504 C 665 499 638 492 638 505 Q 637 508 640 514 Q 644 523 645 595 C 641 618 641 618 639 629 Q 612 747 488 831 Q 476 838 487 841 Q 529 845 595 792 Q 664 738 684 643 C 694 604 694 604 699 585 Z"/>
    <path class="bg" d="M 684 643 Q 735 734 803 834 Q 816 850 841 852 Q 923 855 951 852 Q 958 851 960 847 Q 961 843 951 836 Q 837 779 761 695 Q 730 661 697 620 C 687 610 677 630 684 643 Z"/>
</g>
<g id="anim-layer">
    <path style="--d:1s; stroke:#FF4444;" pathLength="3333" clip-path="url(#z29492c1)" d="M 321 145 L 349 189 L 295 279 L 212 373 L 118 436"/>
    <path style="--d:2s; stroke:#FF4444;" pathLength="3333" clip-path="url(#z29492c2)" d="M 161 183 L 265 300 L 304 583 L 271 807 L 240 833 L 153 791"/>
    <path style="--d:3s; stroke:#FF4444;" pathLength="3333" clip-path="url(#z29492c3)" d="M 267 440 L 225 533 L 60 681"/>
    <path style="--d:4s; stroke:#000;" pathLength="3333" clip-path="url(#z29492c4)" d="M 479 101 L 522 156 L 429 348 L 337 480"/>
    <path style="--d:5s; stroke:#000;" pathLength="3333" clip-path="url(#z29492c5)" d="M 424 402 L 442 463 L 426 880"/>
    <path style="--d:6s; stroke:#000;" pathLength="3333" clip-path="url(#z29492c6)" d="M 589 209 L 764 191 L 781 213 L 727 292"/>
    <path style="--d:7s; stroke:#000;" pathLength="3333" clip-path="url(#z29492c7)" d="M 511 344 L 865 306"/>
    <path style="--d:8s; stroke:#000;" pathLength="3333" clip-path="url(#z29492c8)" d="M 579 395 L 601 431 L 514 545"/>
    <path style="--d:9s; stroke:#000;" pathLength="3333" clip-path="url(#z29492c9)" d="M 602 487 L 833 449"/>
    <path style="--d:10s; stroke:#000;" pathLength="3333" clip-path="url(#z29492c10)" d="M 482 627 L 828 581 L 918 591"/>
    <path style="--d:11s; stroke:#000;" pathLength="3333" clip-path="url(#z29492c11)" d="M 647 512 L 680 548 L 642 695 L 581 778 L 490 835"/>
    <path style="--d:12s; stroke:#000;" pathLength="3333" clip-path="url(#z29492c12)" d="M 693 631 L 830 807 L 954 842"/>
</g>
</svg>