<svg id="z29556" class="acjk" viewBox="0 0 1024 1024" xmlns="http://www.w3.org/2000/svg">

<style>
<![CDATA[
@keyframes zk { to { stroke-dashoffset:0; } }
svg.acjk path[clip-path] {
    --t:0.8s;
    animation:zk var(--t) linear forwards var(--d);
    stroke-dasharray:3337;
    stroke-dashoffset:3339;
    stroke-width:128;
    stroke-linecap:round;
    fill:none;
}
/* Low opacity for background improves visual overlap at intersections */
svg.acjk .bg { fill:#ccc; opacity: 0.5; } 
]]>
</style>
<defs>
    <clipPath id="z29556c1"><path d="M 290 295 Q 302 280 313 265 Q 350 216 383 175 Q 393 165 381 148 Q 342 109 317 112 Q 307 113 307 127 Q 307 185 263 255 C 244 281 244 281 234 294 Q 200 340 157 374 Q 120 402 102 420 Q 92 435 108 431 Q 160 428 257 332 C 279 307 279 307 290 295 Z"/></clipPath>
    <clipPath id="z29556c2"><path d="M 293 499 Q 299 659 253 781 Q 246 797 235 800 Q 220 800 183 783 Q 155 771 150 776 Q 146 782 154 794 Q 191 833 213 867 Q 229 895 240 896 Q 249 897 268 879 Q 344 792 340 545 C 339 540 339 540 339 537 Q 327 395 317 361 Q 301 313 290 295 C 272 268 272 268 263 255 Q 218 201 143 174 Q 130 167 127 179 Q 124 192 132 210 Q 141 228 158 230 Q 195 245 234 294 C 249 319 249 319 257 332 Q 272 360 284 418 C 290 472 290 472 293 499 Z"/></clipPath>
    <clipPath id="z29556c3"><path d="M 284 418 Q 248 484 205 540 Q 159 598 53 702 Q 46 711 57 714 Q 75 717 187 624 Q 239 576 293 499 C 307 476 296 394 284 418 Z"/></clipPath>
    <clipPath id="z29556c4"><path d="M 695 187 C 733 184 780 179 838 184 C 846 184 852 182 855 177 C 857 171 856 162 848 156 C 810 125 754 138 710 146 C 680 151 680 151 665 154 C 630 160 595 165 559 170 C 534 173 534 173 522 175 C 489 179 455 181 419 187 C 403 189 400 194 412 202 C 435 216 470 221 529 208 C 550 203 550 203 560 201 C 582 196 643 191 657 190 C 682 188 682 188 695 187 Z"/></clipPath>
    <clipPath id="z29556c5"><path d="M 559 170 Q 558 142 557 119 Q 558 104 544 99 Q 514 83 497 88 Q 482 94 494 109 Q 515 136 522 175 C 527 197 527 197 529 208 Q 533 242 545 255 Q 555 264 559 254 Q 565 239 560 201 C 559 180 559 180 559 170 Z"/></clipPath>
    <clipPath id="z29556c6"><path d="M 710 146 Q 716 121 733 93 Q 743 80 735 72 Q 725 59 695 46 Q 680 39 667 47 Q 658 53 665 61 Q 674 77 673 97 Q 670 122 665 154 C 660 178 660 178 657 190 Q 648 220 651 243 Q 652 255 665 244 Q 672 237 695 187 C 705 160 705 160 710 146 Z"/></clipPath>
    <clipPath id="z29556c7"><path d="M 459 295 Q 447 274 433 267 Q 430 263 425 267 Q 421 270 420 280 Q 424 310 400 366 Q 385 391 405 427 Q 412 437 417 429 Q 423 428 429 414 Q 433 408 440 384 Q 452 345 464 322 C 469 314 464 302 459 295 Z"/></clipPath>
    <clipPath id="z29556c8"><path d="M 464 322 C 476 326 498 325 531 316 C 631 288 710 274 766 274 C 768 274 770 272 772 274 C 782 280 786 286 785 291 C 784 291 777 312 764 352 C 761 360 761 365 765 367 C 768 369 775 366 784 360 C 812 337 839 323 864 315 C 884 308 893 300 893 296 C 892 291 871 274 830 246 C 814 235 769 240 695 256 C 689 257 634 264 532 283 C 507 287 483 291 459 295 C 450 297 455 320 464 322 Z"/></clipPath>
    <clipPath id="z29556c9"><path d="M 513 366 Q 485 372 506 384 Q 539 402 585 389 Q 634 377 685 364 Q 709 358 712 355 Q 719 348 715 341 Q 708 332 685 327 Q 660 323 637 334 Q 610 344 582 353 Q 551 360 513 366 Z"/></clipPath>
    <clipPath id="z29556c10"><path d="M 561 474 C 604 464 657 450 723 443 C 729 442 735 440 738 433 C 740 427 732 422 720 416 C 703 406 673 408 626 423 C 615 426 604 427 594 431 C 580 435 529 445 442 461 C 427 463 425 469 438 478 C 455 490 478 492 506 486 C 512 484 520 482 529 481 C 550 476 550 476 561 474 Z"/></clipPath>
    <clipPath id="z29556c11"><path d="M 552 533 Q 562 524 572 521 Q 579 517 579 506 Q 579 491 561 474 C 553 466 531 470 529 481 Q 529 511 418 598 Q 409 602 407 606 Q 403 612 412 613 Q 439 617 529 551 C 544 539 544 539 552 533 Z"/></clipPath>
    <clipPath id="z29556c12"><path d="M 647 600 Q 614 560 552 533 C 543 529 521 546 529 551 Q 541 557 553 565 C 582 588 582 588 597 599 Q 604 606 612 616 C 625 629 635 647 639 666 Q 652 729 633 804 Q 624 835 614 841 Q 604 847 538 839 Q 501 835 500 840 Q 499 847 512 858 Q 576 901 605 932 Q 618 948 631 943 Q 673 924 690 820 Q 702 726 683 666 C 659 622 659 622 647 600 Z"/></clipPath>
    <clipPath id="z29556c13"><path d="M 553 565 Q 543 616 400 708 Q 384 717 403 716 Q 463 716 597 599 C 610 586 557 547 553 565 Z"/></clipPath>
    <clipPath id="z29556c14"><path d="M 612 616 Q 546 725 384 831 Q 371 841 380 843 Q 396 852 466 818 Q 529 788 606 703 Q 634 672 639 666 C 650 651 623 601 612 616 Z"/></clipPath>
    <clipPath id="z29556c15"><path d="M 670 618 Q 755 551 798 525 Q 814 521 810 510 Q 804 495 786 478 Q 767 462 746 461 Q 733 461 734 480 Q 737 493 729 508 Q 704 545 655 606 C 651 611 665 622 670 618 Z"/></clipPath>
    <clipPath id="z29556c16"><path d="M 683 666 Q 737 724 795 781 Q 816 800 850 801 Q 911 802 975 787 Q 991 786 993 781 Q 994 774 981 770 Q 824 718 806 708 Q 803 707 670 618 C 660 610 660 610 655 606 Q 651 603 647 600 C 627 584 668 646 683 666 Z"/></clipPath>
</defs>
<g id="bg-layer">
    <path class="bg" d="M 290 295 Q 302 280 313 265 Q 350 216 383 175 Q 393 165 381 148 Q 342 109 317 112 Q 307 113 307 127 Q 307 185 263 255 C 244 281 244 281 234 294 Q 200 340 157 374 Q 120 402 102 420 Q 92 435 108 431 Q 160 428 257 332 C 279 307 279 307 290 295 Z"/>
    <path class="bg" d="M 293 499 Q 299 659 253 781 Q 246 797 235 800 Q 220 800 183 783 Q 155 771 150 776 Q 146 782 154 794 Q 191 833 213 867 Q 229 895 240 896 Q 249 897 268 879 Q 344 792 340 545 C 339 540 339 540 339 537 Q 327 395 317 361 Q 301 313 290 295 C 272 268 272 268 263 255 Q 218 201 143 174 Q 130 167 127 179 Q 124 192 132 210 Q 141 228 158 230 Q 195 245 234 294 C 249 319 249 319 257 332 Q 272 360 284 418 C 290 472 290 472 293 499 Z"/>
    <path class="bg" d="M 284 418 Q 248 484 205 540 Q 159 598 53 702 Q 46 711 57 714 Q 75 717 187 624 Q 239 576 293 499 C 307 476 296 394 284 418 Z"/>
    <path class="bg" d="M 695 187 C 733 184 780 179 838 184 C 846 184 852 182 855 177 C 857 171 856 162 848 156 C 810 125 754 138 710 146 C 680 151 680 151 665 154 C 630 160 595 165 559 170 C 534 173 534 173 522 175 C 489 179 455 181 419 187 C 403 189 400 194 412 202 C 435 216 470 221 529 208 C 550 203 550 203 560 201 C 582 196 643 191 657 190 C 682 188 682 188 695 187 Z"/>
    <path class="bg" d="M 559 170 Q 558 142 557 119 Q 558 104 544 99 Q 514 83 497 88 Q 482 94 494 109 Q 515 136 522 175 C 527 197 527 197 529 208 Q 533 242 545 255 Q 555 264 559 254 Q 565 239 560 201 C 559 180 559 180 559 170 Z"/>
    <path class="bg" d="M 710 146 Q 716 121 733 93 Q 743 80 735 72 Q 725 59 695 46 Q 680 39 667 47 Q 658 53 665 61 Q 674 77 673 97 Q 670 122 665 154 C 660 178 660 178 657 190 Q 648 220 651 243 Q 652 255 665 244 Q 672 237 695 187 C 705 160 705 160 710 146 Z"/>
    <path class="bg" d="M 459 295 Q 447 274 433 267 Q 430 263 425 267 Q 421 270 420 280 Q 424 310 400 366 Q 385 391 405 427 Q 412 437 417 429 Q 423 428 429 414 Q 433 408 440 384 Q 452 345 464 322 C 469 314 464 302 459 295 Z"/>
    <path class="bg" d="M 464 322 C 476 326 498 325 531 316 C 631 288 710 274 766 274 C 768 274 770 272 772 274 C 782 280 786 286 785 291 C 784 291 777 312 764 352 C 761 360 761 365 765 367 C 768 369 775 366 784 360 C 812 337 839 323 864 315 C 884 308 893 300 893 296 C 892 291 871 274 830 246 C 814 235 769 240 695 256 C 689 257 634 264 532 283 C 507 287 483 291 459 295 C 450 297 455 320 464 322 Z"/>
    <path class="bg" d="M 513 366 Q 485 372 506 384 Q 539 402 585 389 Q 634 377 685 364 Q 709 358 712 355 Q 719 348 715 341 Q 708 332 685 327 Q 660 323 637 334 Q 610 344 582 353 Q 551 360 513 366 Z"/>
    <path class="bg" d="M 561 474 C 604 464 657 450 723 443 C 729 442 735 440 738 433 C 740 427 732 422 720 416 C 703 406 673 408 626 423 C 615 426 604 427 594 431 C 580 435 529 445 442 461 C 427 463 425 469 438 478 C 455 490 478 492 506 486 C 512 484 520 482 529 481 C 550 476 550 476 561 474 Z"/>
    <path class="bg" d="M 552 533 Q 562 524 572 521 Q 579 517 579 506 Q 579 491 561 474 C 553 466 531 470 529 481 Q 529 511 418 598 Q 409 602 407 606 Q 403 612 412 613 Q 439 617 529 551 C 544 539 544 539 552 533 Z"/>
    <path class="bg" d="M 647 600 Q 614 560 552 533 C 543 529 521 546 529 551 Q 541 557 553 565 C 582 588 582 588 597 599 Q 604 606 612 616 C 625 629 635 647 639 666 Q 652 729 633 804 Q 624 835 614 841 Q 604 847 538 839 Q 501 835 500 840 Q 499 847 512 858 Q 576 901 605 932 Q 618 948 631 943 Q 673 924 690 820 Q 702 726 683 666 C 659 622 659 622 647 600 Z"/>
    <path class="bg" d="M 553 565 Q 543 616 400 708 Q 384 717 403 716 Q 463 716 597 599 C 610 586 557 547 553 565 Z"/>
    <path class="bg" d="M 612 616 Q 546 725 384 831 Q 371 841 380 843 Q 396 852 466 818 Q 529 788 606 703 Q 634 672 639 666 C 650 651 623 601 612 616 Z"/>
    <path class="bg" d="M 670 618 Q 755 551 798 525 Q 814 521 810 510 Q 804 495 786 478 Q 767 462 746 461 Q 733 461 734 480 Q 737 493 729 508 Q 704 545 655 606 C 651 611 665 622 670 618 Z"/>
    <path class="bg" d="M 683 666 Q 737 724 795 781 Q 816 800 850 801 Q 911 802 975 787 Q 991 786 993 781 Q 994 774 981 770 Q 824 718 806 708 Q 803 707 670 618 C 660 610 660 610 655 606 Q 651 603 647 600 C 627 584 668 646 683 666 Z"/>
</g>
<g id="anim-layer">
    <path style="--d:1s; stroke:#FF4444;" pathLength="3333" clip-path="url(#z29556c1)" d="M 317 123 L 343 172 L 283 267 L 181 377 L 105 425"/>
    <path style="--d:2s; stroke:#FF4444;" pathLength="3333" clip-path="url(#z29556c2)" d="M 134 179 L 232 255 L 278 322 L 316 533 L 300 727 L 265 824 L 237 848 L 156 781"/>
    <path style="--d:3s; stroke:#FF4444;" pathLength="3333" clip-path="url(#z29556c3)" d="M 282 430 L 269 490 L 214 564 L 58 706"/>
    <path style="--d:4s; stroke:#000;" pathLength="3333" clip-path="url(#z29556c4)" d="M 416 196 L 767 158 L 849 170"/>
    <path style="--d:5s; stroke:#000;" pathLength="3333" clip-path="url(#z29556c5)" d="M 496 93 L 533 124 L 552 249"/>
    <path style="--d:6s; stroke:#000;" pathLength="3333" clip-path="url(#z29556c6)" d="M 671 51 L 705 85 L 656 240"/>
    <path style="--d:7s; stroke:#000;" pathLength="3333" clip-path="url(#z29556c7)" d="M 429 272 L 441 314 L 410 426"/>
    <path style="--d:8s; stroke:#000;" pathLength="3333" clip-path="url(#z29556c8)" d="M 467 298 L 786 258 L 837 302 L 769 359"/>
    <path style="--d:9s; stroke:#000;" pathLength="3333" clip-path="url(#z29556c9)" d="M 509 376 L 710 347"/>
    <path style="--d:10s; stroke:#000;" pathLength="3333" clip-path="url(#z29556c10)" d="M 437 467 L 731 430"/>
    <path style="--d:11s; stroke:#000;" pathLength="3333" clip-path="url(#z29556c11)" d="M 560 481 L 494 556 L 414 605"/>
    <path style="--d:12s; stroke:#000;" pathLength="3333" clip-path="url(#z29556c12)" d="M 538 549 L 609 586 L 657 657 L 666 781 L 617 893 L 507 845"/>
    <path style="--d:13s; stroke:#000;" pathLength="3333" clip-path="url(#z29556c13)" d="M 556 573 L 545 618 L 405 712"/>
    <path style="--d:14s; stroke:#000;" pathLength="3333" clip-path="url(#z29556c14)" d="M 611 628 L 612 659 L 540 738 L 388 838"/>
    <path style="--d:15s; stroke:#000;" pathLength="3333" clip-path="url(#z29556c15)" d="M 743 465 L 769 512 L 662 611"/>
    <path style="--d:16s; stroke:#000;" pathLength="3333" clip-path="url(#z29556c16)" d="M 655 609 L 819 754 L 986 776"/>
</g>
</svg>