<svg id="z29605" class="acjk" viewBox="0 0 1024 1024" xmlns="http://www.w3.org/2000/svg">

<style>
<![CDATA[
@keyframes zk { to { stroke-dashoffset:0; } }
svg.acjk path[clip-path] {
    --t:0.8s;
    animation:zk var(--t) linear forwards var(--d);
    stroke-dasharray:3337;
    stroke-dashoffset:3339;
    stroke-width:128;
    stroke-linecap:round;
    fill:none;
}
/* Low opacity for background improves visual overlap at intersections */
svg.acjk .bg { fill:#ccc; opacity: 0.5; } 
]]>
</style>
<defs>
    <clipPath id="z29605c1"><path d="M 290 259 C 379 233 426 222 429 220 C 435 213 436 207 432 201 C 426 192 412 185 390 182 C 371 179 335 189 281 207 C 238 220 199 226 165 233 C 138 238 134 249 155 260 C 182 274 215 280 251 270 C 277 263 277 263 290 259 Z"/></clipPath>
    <clipPath id="z29605c2"><path d="M 320 459 C 375 442 405 433 409 430 C 413 425 415 420 412 415 C 407 408 395 403 377 400 C 358 397 340 402 322 410 C 288 423 288 423 271 430 C 250 438 191 450 158 457 C 135 461 133 470 150 479 C 177 493 209 493 271 474 C 304 464 304 464 320 459 Z"/></clipPath>
    <clipPath id="z29605c3"><path d="M 315 651 C 317 625 318 486 320 459 C 321 426 321 426 322 410 C 322 391 322 341 328 314 C 331 295 320 277 290 259 C 278 252 246 257 251 270 C 263 296 271 350 271 430 C 271 459 271 459 271 474 C 271 495 272 651 271 665 C 271 680 315 666 315 651 Z"/></clipPath>
    <clipPath id="z29605c4"><path d="M 271 665 C 232 677 178 694 150 703 C 137 706 119 708 97 709 C 88 709 82 713 81 722 C 79 731 82 740 90 745 C 106 756 126 768 151 781 C 157 784 165 781 175 774 C 195 758 268 718 396 657 C 412 648 427 639 440 630 C 448 623 456 617 454 611 C 452 605 443 606 435 609 C 396 621 357 637 315 651 C 286 660 286 660 271 665 Z"/></clipPath>
    <clipPath id="z29605c5"><path d="M 586 504 C 592 470 598 403 602 349 C 603 329 603 329 604 319 C 609 232 611 184 613 176 C 615 165 617 150 608 143 C 582 125 545 113 535 115 C 521 117 519 126 531 141 C 555 187 559 292 545 458 C 539 525 519 599 484 680 C 456 741 404 810 324 884 C 314 893 307 899 306 904 C 304 908 308 910 316 910 C 346 909 393 876 454 809 C 520 734 560 641 581 531 C 584 513 584 513 586 504 Z"/></clipPath>
    <clipPath id="z29605c6"><path d="M 613 176 C 632 170 700 155 737 147 C 751 143 760 146 764 154 C 776 183 786 307 789 524 C 791 698 785 791 778 805 C 775 809 767 810 754 807 C 731 800 707 793 684 786 C 669 781 659 784 664 789 C 705 830 745 858 769 887 C 779 899 787 908 799 912 C 805 914 812 913 818 906 C 846 867 860 830 858 797 C 848 658 840 476 834 252 C 832 211 835 181 846 164 C 853 149 853 139 845 132 C 830 119 809 108 783 98 C 770 93 758 93 747 99 C 710 118 664 133 608 143 C 597 145 602 178 613 176 Z"/></clipPath>
    <clipPath id="z29605c7"><path d="M 602 349 C 618 353 661 348 732 334 C 742 331 749 329 751 328 C 755 323 757 318 755 314 C 750 307 739 301 723 298 C 711 295 682 302 637 313 C 625 315 614 315 604 319 C 595 323 592 347 602 349 Z"/></clipPath>
    <clipPath id="z29605c8"><path d="M 581 531 C 599 537 649 533 733 519 C 745 516 753 514 755 512 C 759 507 761 502 759 498 C 754 491 743 486 727 482 C 710 478 693 479 676 486 C 661 491 646 494 631 498 C 616 500 601 502 586 504 C 577 506 572 529 581 531 Z"/></clipPath>
</defs>
<g id="bg-layer">
    <path class="bg" d="M 290 259 C 379 233 426 222 429 220 C 435 213 436 207 432 201 C 426 192 412 185 390 182 C 371 179 335 189 281 207 C 238 220 199 226 165 233 C 138 238 134 249 155 260 C 182 274 215 280 251 270 C 277 263 277 263 290 259 Z"/>
    <path class="bg" d="M 320 459 C 375 442 405 433 409 430 C 413 425 415 420 412 415 C 407 408 395 403 377 400 C 358 397 340 402 322 410 C 288 423 288 423 271 430 C 250 438 191 450 158 457 C 135 461 133 470 150 479 C 177 493 209 493 271 474 C 304 464 304 464 320 459 Z"/>
    <path class="bg" d="M 315 651 C 317 625 318 486 320 459 C 321 426 321 426 322 410 C 322 391 322 341 328 314 C 331 295 320 277 290 259 C 278 252 246 257 251 270 C 263 296 271 350 271 430 C 271 459 271 459 271 474 C 271 495 272 651 271 665 C 271 680 315 666 315 651 Z"/>
    <path class="bg" d="M 271 665 C 232 677 178 694 150 703 C 137 706 119 708 97 709 C 88 709 82 713 81 722 C 79 731 82 740 90 745 C 106 756 126 768 151 781 C 157 784 165 781 175 774 C 195 758 268 718 396 657 C 412 648 427 639 440 630 C 448 623 456 617 454 611 C 452 605 443 606 435 609 C 396 621 357 637 315 651 C 286 660 286 660 271 665 Z"/>
    <path class="bg" d="M 586 504 C 592 470 598 403 602 349 C 603 329 603 329 604 319 C 609 232 611 184 613 176 C 615 165 617 150 608 143 C 582 125 545 113 535 115 C 521 117 519 126 531 141 C 555 187 559 292 545 458 C 539 525 519 599 484 680 C 456 741 404 810 324 884 C 314 893 307 899 306 904 C 304 908 308 910 316 910 C 346 909 393 876 454 809 C 520 734 560 641 581 531 C 584 513 584 513 586 504 Z"/>
    <path class="bg" d="M 613 176 C 632 170 700 155 737 147 C 751 143 760 146 764 154 C 776 183 786 307 789 524 C 791 698 785 791 778 805 C 775 809 767 810 754 807 C 731 800 707 793 684 786 C 669 781 659 784 664 789 C 705 830 745 858 769 887 C 779 899 787 908 799 912 C 805 914 812 913 818 906 C 846 867 860 830 858 797 C 848 658 840 476 834 252 C 832 211 835 181 846 164 C 853 149 853 139 845 132 C 830 119 809 108 783 98 C 770 93 758 93 747 99 C 710 118 664 133 608 143 C 597 145 602 178 613 176 Z"/>
    <path class="bg" d="M 602 349 C 618 353 661 348 732 334 C 742 331 749 329 751 328 C 755 323 757 318 755 314 C 750 307 739 301 723 298 C 711 295 682 302 637 313 C 625 315 614 315 604 319 C 595 323 592 347 602 349 Z"/>
    <path class="bg" d="M 581 531 C 599 537 649 533 733 519 C 745 516 753 514 755 512 C 759 507 761 502 759 498 C 754 491 743 486 727 482 C 710 478 693 479 676 486 C 661 491 646 494 631 498 C 616 500 601 502 586 504 C 577 506 572 529 581 531 Z"/>
</g>
<g id="anim-layer">
    <path style="--d:1s; stroke:#FF4444;" pathLength="3333" clip-path="url(#z29605c1)" d="M 149 247 L 429 202"/>
    <path style="--d:2s; stroke:#FF4444;" pathLength="3333" clip-path="url(#z29605c2)" d="M 147 468 L 408 422"/>
    <path style="--d:3s; stroke:#FF4444;" pathLength="3333" clip-path="url(#z29605c3)" d="M 257 271 L 295 319 L 279 661"/>
    <path style="--d:4s; stroke:#FF4444;" pathLength="3333" clip-path="url(#z29605c4)" d="M 84 721 L 151 743 L 447 613"/>
    <path style="--d:5s; stroke:#000;" pathLength="3333" clip-path="url(#z29605c5)" d="M 530 123 L 576 159 L 580 202 L 544 587 L 459 768 L 314 904"/>
    <path style="--d:6s; stroke:#000;" pathLength="3333" clip-path="url(#z29605c6)" d="M 619 168 L 761 121 L 809 155 L 817 812 L 786 863 L 672 788"/>
    <path style="--d:7s; stroke:#000;" pathLength="3333" clip-path="url(#z29605c7)" d="M 611 343 L 750 317"/>
    <path style="--d:8s; stroke:#000;" pathLength="3333" clip-path="url(#z29605c8)" d="M 591 525 L 755 500"/>
</g>
</svg>