<svg id="z29827" class="acjk" viewBox="0 0 1024 1024" xmlns="http://www.w3.org/2000/svg">

<style>
<![CDATA[
@keyframes zk { to { stroke-dashoffset:0; } }
svg.acjk path[clip-path] {
    --t:0.8s;
    animation:zk var(--t) linear forwards var(--d);
    stroke-dasharray:3337;
    stroke-dashoffset:3339;
    stroke-width:128;
    stroke-linecap:round;
    fill:none;
}
/* Low opacity for background improves visual overlap at intersections */
svg.acjk .bg { fill:#ccc; opacity: 0.5; } 
]]>
</style>
<defs>
    <clipPath id="z29827c1"><path d="M 264 262 C 356 234 403 216 405 215 C 409 210 411 204 408 199 C 403 191 391 186 371 184 C 352 181 333 186 314 195 C 291 205 267 213 243 222 C 216 230 186 236 154 243 C 131 247 128 257 146 266 C 165 275 192 282 223 274 C 250 266 250 266 264 262 Z"/></clipPath>
    <clipPath id="z29827c2"><path d="M 287 454 C 307 446 327 438 350 431 C 364 426 372 422 375 419 C 379 412 380 407 377 403 C 371 396 358 391 339 390 C 322 388 305 392 289 401 C 256 417 256 417 240 425 C 211 438 185 440 167 446 C 144 453 142 462 161 470 C 180 477 209 483 240 472 C 271 460 271 460 287 454 Z"/></clipPath>
    <clipPath id="z29827c3"><path d="M 283 619 C 283 560 285 505 287 454 C 288 419 288 419 289 401 C 290 366 291 336 297 312 C 300 294 289 278 264 262 C 253 253 218 260 223 274 C 233 296 240 346 240 425 C 240 456 240 456 240 472 C 240 584 240 584 240 640 C 240 656 283 635 283 619 Z"/></clipPath>
    <clipPath id="z29827c4"><path d="M 240 640 C 206 656 170 670 134 688 C 123 692 108 695 90 699 C 81 700 76 706 76 713 C 75 722 79 730 87 734 C 104 742 125 752 150 760 C 157 762 165 757 172 751 C 186 735 240 693 337 626 C 349 617 360 607 370 598 C 377 590 384 584 381 579 C 377 573 343 589 283 619 C 254 633 254 633 240 640 Z"/></clipPath>
    <clipPath id="z29827c5"><path d="M 613 100 C 627 112 642 127 658 144 C 666 152 675 156 686 156 C 692 155 697 151 701 143 C 703 134 701 120 697 101 C 693 89 684 78 666 71 C 623 54 596 48 588 53 C 584 54 582 61 584 69 C 585 76 596 85 613 100 Z"/></clipPath>
    <clipPath id="z29827c6"><path d="M 689 238 C 717 231 746 223 778 217 C 810 209 829 202 835 198 C 839 193 841 187 839 183 C 835 175 823 170 806 166 C 788 161 745 177 673 197 C 571 224 507 230 484 234 C 461 237 457 245 475 255 C 540 275 594 257 656 245 C 678 240 678 240 689 238 Z"/></clipPath>
    <clipPath id="z29827c7"><path d="M 669 339 C 690 315 702 295 713 287 C 718 282 719 276 718 270 C 714 255 704 245 689 238 C 679 234 652 235 656 245 C 661 250 659 266 657 272 C 648 290 638 309 627 327 C 613 348 613 348 606 358 C 590 380 571 403 550 427 C 545 431 542 434 541 437 C 538 441 540 445 548 444 C 564 441 595 419 636 375 C 658 351 658 351 669 339 Z"/></clipPath>
    <clipPath id="z29827c8"><path d="M 636 375 Q 664 388 694 408 Q 707 418 719 419 Q 725 418 728 410 Q 734 400 717 372 Q 704 348 669 339 C 641 331 641 331 627 327 Q 576 314 549 310 Q 542 309 543 317 Q 543 323 606 358 C 626 369 626 369 636 375 Z"/></clipPath>
    <clipPath id="z29827c9"><path d="M 635 486 C 667 478 740 463 768 465 C 778 465 781 434 771 436 C 669 446 579 462 503 483 C 491 486 487 480 490 466 C 492 448 494 429 497 411 C 498 398 497 387 491 379 C 483 369 472 361 459 354 C 453 350 446 350 441 352 C 436 353 434 360 439 371 C 460 423 459 465 432 497 C 422 507 418 515 423 523 C 428 531 436 539 446 545 C 452 549 459 549 465 544 C 479 529 519 512 588 497 C 619 490 619 490 635 486 Z"/></clipPath>
    <clipPath id="z29827c10"><path d="M 768 465 C 768 481 771 495 777 507 C 781 517 787 519 796 513 C 813 498 820 465 833 415 C 845 361 861 337 862 337 C 869 328 870 318 863 310 C 853 298 838 286 819 273 C 811 267 803 267 796 270 C 791 271 786 277 789 285 C 794 298 798 328 792 376 C 788 400 781 420 771 436 C 766 444 768 455 768 465 Z"/></clipPath>
    <clipPath id="z29827c11"><path d="M 437 612 C 422 601 410 596 402 594 C 398 593 396 593 393 597 C 390 599 389 605 393 614 C 411 656 417 724 404 820 C 402 834 402 846 408 858 C 414 870 422 880 432 887 C 440 893 442 891 447 886 C 453 877 459 847 457 790 C 453 701 453 654 458 649 C 462 636 448 621 437 612 Z"/></clipPath>
    <clipPath id="z29827c12"><path d="M 633 604 C 686 593 747 587 814 585 C 839 586 843 595 842 616 C 835 740 829 811 821 828 C 817 834 813 836 805 835 C 788 831 770 829 751 826 C 733 823 729 828 743 840 C 782 873 810 901 827 925 C 834 935 843 936 852 929 C 863 918 871 904 878 887 C 884 868 890 807 894 704 C 895 665 901 636 914 618 C 922 605 924 596 922 592 C 916 583 898 569 868 549 C 856 541 847 538 837 542 C 819 548 793 554 761 559 C 719 564 681 569 649 574 C 612 579 612 579 593 582 C 540 589 496 600 437 612 C 423 615 444 651 458 649 C 462 648 468 647 475 645 C 501 634 536 623 583 614 C 616 607 616 607 633 604 Z"/></clipPath>
    <clipPath id="z29827c13"><path d="M 721 687 Q 711 687 699 690 Q 632 706 591 713 Q 584 712 582 707 Q 581 703 633 604 C 644 584 644 584 649 574 Q 656 561 664 547 Q 686 525 665 507 Q 649 494 635 486 C 621 478 578 484 588 497 Q 609 518 593 582 C 586 603 586 603 583 614 Q 553 702 528 716 Q 486 734 506 780 C 507 782 507 782 508 783 Q 517 798 530 786 Q 536 774 733 708 C 740 705 729 687 721 687 Z"/></clipPath>
    <clipPath id="z29827c14"><path d="M 733 708 Q 752 747 765 753 Q 774 756 781 747 Q 788 737 791 711 Q 792 693 772 672 Q 717 627 708 630 Q 704 631 701 642 Q 701 651 715 675 Q 718 679 721 687 C 729 701 729 701 733 708 Z"/></clipPath>
</defs>
<g id="bg-layer">
    <path class="bg" d="M 264 262 C 356 234 403 216 405 215 C 409 210 411 204 408 199 C 403 191 391 186 371 184 C 352 181 333 186 314 195 C 291 205 267 213 243 222 C 216 230 186 236 154 243 C 131 247 128 257 146 266 C 165 275 192 282 223 274 C 250 266 250 266 264 262 Z"/>
    <path class="bg" d="M 287 454 C 307 446 327 438 350 431 C 364 426 372 422 375 419 C 379 412 380 407 377 403 C 371 396 358 391 339 390 C 322 388 305 392 289 401 C 256 417 256 417 240 425 C 211 438 185 440 167 446 C 144 453 142 462 161 470 C 180 477 209 483 240 472 C 271 460 271 460 287 454 Z"/>
    <path class="bg" d="M 283 619 C 283 560 285 505 287 454 C 288 419 288 419 289 401 C 290 366 291 336 297 312 C 300 294 289 278 264 262 C 253 253 218 260 223 274 C 233 296 240 346 240 425 C 240 456 240 456 240 472 C 240 584 240 584 240 640 C 240 656 283 635 283 619 Z"/>
    <path class="bg" d="M 240 640 C 206 656 170 670 134 688 C 123 692 108 695 90 699 C 81 700 76 706 76 713 C 75 722 79 730 87 734 C 104 742 125 752 150 760 C 157 762 165 757 172 751 C 186 735 240 693 337 626 C 349 617 360 607 370 598 C 377 590 384 584 381 579 C 377 573 343 589 283 619 C 254 633 254 633 240 640 Z"/>
    <path class="bg" d="M 613 100 C 627 112 642 127 658 144 C 666 152 675 156 686 156 C 692 155 697 151 701 143 C 703 134 701 120 697 101 C 693 89 684 78 666 71 C 623 54 596 48 588 53 C 584 54 582 61 584 69 C 585 76 596 85 613 100 Z"/>
    <path class="bg" d="M 689 238 C 717 231 746 223 778 217 C 810 209 829 202 835 198 C 839 193 841 187 839 183 C 835 175 823 170 806 166 C 788 161 745 177 673 197 C 571 224 507 230 484 234 C 461 237 457 245 475 255 C 540 275 594 257 656 245 C 678 240 678 240 689 238 Z"/>
    <path class="bg" d="M 669 339 C 690 315 702 295 713 287 C 718 282 719 276 718 270 C 714 255 704 245 689 238 C 679 234 652 235 656 245 C 661 250 659 266 657 272 C 648 290 638 309 627 327 C 613 348 613 348 606 358 C 590 380 571 403 550 427 C 545 431 542 434 541 437 C 538 441 540 445 548 444 C 564 441 595 419 636 375 C 658 351 658 351 669 339 Z"/>
    <path class="bg" d="M 636 375 Q 664 388 694 408 Q 707 418 719 419 Q 725 418 728 410 Q 734 400 717 372 Q 704 348 669 339 C 641 331 641 331 627 327 Q 576 314 549 310 Q 542 309 543 317 Q 543 323 606 358 C 626 369 626 369 636 375 Z"/>
    <path class="bg" d="M 635 486 C 667 478 740 463 768 465 C 778 465 781 434 771 436 C 669 446 579 462 503 483 C 491 486 487 480 490 466 C 492 448 494 429 497 411 C 498 398 497 387 491 379 C 483 369 472 361 459 354 C 453 350 446 350 441 352 C 436 353 434 360 439 371 C 460 423 459 465 432 497 C 422 507 418 515 423 523 C 428 531 436 539 446 545 C 452 549 459 549 465 544 C 479 529 519 512 588 497 C 619 490 619 490 635 486 Z"/>
    <path class="bg" d="M 768 465 C 768 481 771 495 777 507 C 781 517 787 519 796 513 C 813 498 820 465 833 415 C 845 361 861 337 862 337 C 869 328 870 318 863 310 C 853 298 838 286 819 273 C 811 267 803 267 796 270 C 791 271 786 277 789 285 C 794 298 798 328 792 376 C 788 400 781 420 771 436 C 766 444 768 455 768 465 Z"/>
    <path class="bg" d="M 437 612 C 422 601 410 596 402 594 C 398 593 396 593 393 597 C 390 599 389 605 393 614 C 411 656 417 724 404 820 C 402 834 402 846 408 858 C 414 870 422 880 432 887 C 440 893 442 891 447 886 C 453 877 459 847 457 790 C 453 701 453 654 458 649 C 462 636 448 621 437 612 Z"/>
    <path class="bg" d="M 633 604 C 686 593 747 587 814 585 C 839 586 843 595 842 616 C 835 740 829 811 821 828 C 817 834 813 836 805 835 C 788 831 770 829 751 826 C 733 823 729 828 743 840 C 782 873 810 901 827 925 C 834 935 843 936 852 929 C 863 918 871 904 878 887 C 884 868 890 807 894 704 C 895 665 901 636 914 618 C 922 605 924 596 922 592 C 916 583 898 569 868 549 C 856 541 847 538 837 542 C 819 548 793 554 761 559 C 719 564 681 569 649 574 C 612 579 612 579 593 582 C 540 589 496 600 437 612 C 423 615 444 651 458 649 C 462 648 468 647 475 645 C 501 634 536 623 583 614 C 616 607 616 607 633 604 Z"/>
    <path class="bg" d="M 721 687 Q 711 687 699 690 Q 632 706 591 713 Q 584 712 582 707 Q 581 703 633 604 C 644 584 644 584 649 574 Q 656 561 664 547 Q 686 525 665 507 Q 649 494 635 486 C 621 478 578 484 588 497 Q 609 518 593 582 C 586 603 586 603 583 614 Q 553 702 528 716 Q 486 734 506 780 C 507 782 507 782 508 783 Q 517 798 530 786 Q 536 774 733 708 C 740 705 729 687 721 687 Z"/>
    <path class="bg" d="M 733 708 Q 752 747 765 753 Q 774 756 781 747 Q 788 737 791 711 Q 792 693 772 672 Q 717 627 708 630 Q 704 631 701 642 Q 701 651 715 675 Q 718 679 721 687 C 729 701 729 701 733 708 Z"/>
</g>
<g id="anim-layer">
    <path style="--d:1s; stroke:#FF4444;" pathLength="3333" clip-path="url(#z29827c1)" d="M 142 253 L 203 255 L 402 199"/>
    <path style="--d:2s; stroke:#FF4444;" pathLength="3333" clip-path="url(#z29827c2)" d="M 155 459 L 371 406"/>
    <path style="--d:3s; stroke:#FF4444;" pathLength="3333" clip-path="url(#z29827c3)" d="M 230 271 L 266 314 L 253 642"/>
    <path style="--d:4s; stroke:#FF4444;" pathLength="3333" clip-path="url(#z29827c4)" d="M 82 714 L 154 720 L 374 584"/>
    <path style="--d:5s; stroke:#000;" pathLength="3333" clip-path="url(#z29827c5)" d="M 589 59 L 660 102 L 691 150"/>
    <path style="--d:6s; stroke:#000;" pathLength="3333" clip-path="url(#z29827c6)" d="M 473 244 L 833 183"/>
    <path style="--d:7s; stroke:#000;" pathLength="3333" clip-path="url(#z29827c7)" d="M 665 243 L 682 285 L 546 438"/>
    <path style="--d:8s; stroke:#000;" pathLength="3333" clip-path="url(#z29827c8)" d="M 555 319 L 681 370 L 720 411"/>
    <path style="--d:9s; stroke:#000;" pathLength="3333" clip-path="url(#z29827c9)" d="M 443 360 L 472 396 L 473 514 L 771 443"/>
    <path style="--d:10s; stroke:#000;" pathLength="3333" clip-path="url(#z29827c10)" d="M 796 277 L 831 320 L 794 508"/>
    <path style="--d:11s; stroke:#000;" pathLength="3333" clip-path="url(#z29827c11)" d="M 399 598 L 430 643 L 438 884"/>
    <path style="--d:12s; stroke:#000;" pathLength="3333" clip-path="url(#z29827c12)" d="M 437 617 L 856 573 L 881 613 L 843 868 L 827 883 L 742 831"/>
    <path style="--d:13s; stroke:#000;" pathLength="3333" clip-path="url(#z29827c13)" d="M 594 491 L 635 539 L 545 746 L 730 699"/>
    <path style="--d:14s; stroke:#000;" pathLength="3333" clip-path="url(#z29827c14)" d="M 710 641 L 774 747"/>
</g>
</svg>