<svg id="z29866" class="acjk" viewBox="0 0 1024 1024" xmlns="http://www.w3.org/2000/svg">

<style>
<![CDATA[
@keyframes zk { to { stroke-dashoffset:0; } }
svg.acjk path[clip-path] {
    --t:0.8s;
    animation:zk var(--t) linear forwards var(--d);
    stroke-dasharray:3337;
    stroke-dashoffset:3339;
    stroke-width:128;
    stroke-linecap:round;
    fill:none;
}
/* Low opacity for background improves visual overlap at intersections */
svg.acjk .bg { fill:#ccc; opacity: 0.5; } 
]]>
</style>
<defs>
    <clipPath id="z29866c1"><path d="M 266 272 C 340 250 379 238 381 237 C 387 231 387 225 384 220 C 379 212 366 206 346 203 C 325 200 305 204 285 214 C 265 222 244 229 222 236 C 198 242 171 247 143 253 C 118 258 114 268 134 277 C 161 290 193 292 228 283 C 253 276 253 276 266 272 Z"/></clipPath>
    <clipPath id="z29866c2"><path d="M 290 471 C 338 455 363 445 366 442 C 370 436 371 430 368 426 C 363 419 351 414 333 413 C 318 411 304 415 291 421 C 260 434 260 434 245 441 C 194 463 157 468 140 473 C 117 479 115 488 133 495 C 160 506 191 504 223 493 C 229 490 237 488 245 486 C 245 486 275 476 290 471 Z"/></clipPath>
    <clipPath id="z29866c3"><path d="M 285 632 C 285 574 289 520 290 471 C 291 438 291 438 291 421 C 292 337 300 309 295 295 C 290 283 277 277 266 272 C 254 267 224 270 228 283 C 236 301 243 342 245 403 C 245 414 245 428 245 441 C 245 471 245 471 245 486 C 245 528 244 583 244 649 C 244 664 285 647 285 632 Z"/></clipPath>
    <clipPath id="z29866c4"><path d="M 244 649 C 209 663 173 674 138 689 C 127 693 113 695 97 697 C 88 697 83 703 83 710 C 82 718 85 726 93 731 C 108 740 127 750 151 759 C 157 761 165 758 173 751 C 192 731 244 696 330 646 C 342 638 352 629 362 621 C 369 614 375 608 373 603 C 370 598 362 599 355 602 C 332 610 309 621 285 632 C 258 643 258 643 244 649 Z"/></clipPath>
    <clipPath id="z29866c5"><path d="M 518 137 Q 508 131 478 129 Q 468 126 464 131 Q 460 137 468 151 Q 490 190 508 255 Q 512 274 525 287 Q 541 305 546 291 Q 547 285 548 278 C 550 269 547 259 545 250 Q 545 249 545 248 Q 533 187 530 164 C 528 154 527 141 518 137 Z"/></clipPath>
    <clipPath id="z29866c6"><path d="M 704 221 Q 722 179 745 165 Q 760 150 747 135 Q 734 123 690 101 Q 672 94 616 115 Q 571 127 518 137 C 508 139 520 166 530 164 Q 533 163 646 143 Q 659 139 665 145 Q 671 151 670 163 Q 664 194 656 222 C 653 238 698 236 704 221 Z"/></clipPath>
    <clipPath id="z29866c7"><path d="M 548 278 Q 555 279 565 277 Q 614 264 719 251 Q 728 250 729 242 Q 729 235 704 221 C 690 213 672 219 656 222 Q 593 238 545 250 C 536 252 539 278 548 278 Z"/></clipPath>
    <clipPath id="z29866c8"><path d="M 428 350 Q 418 344 392 340 Q 383 337 380 342 Q 376 346 382 359 Q 401 399 413 466 Q 416 485 427 499 Q 440 515 445 504 Q 448 495 448 481 C 447 465 447 465 446 457 Q 436 393 435 372 C 435 364 435 353 428 350 Z"/></clipPath>
    <clipPath id="z29866c9"><path d="M 555 438 Q 565 386 582 370 Q 600 351 581 339 Q 530 311 520 315 Q 516 315 514 318 Q 493 333 428 350 C 420 352 428 375 435 372 Q 442 368 498 358 Q 516 354 520 361 Q 526 367 514 437 C 511 450 552 451 555 438 Z"/></clipPath>
    <clipPath id="z29866c10"><path d="M 448 481 Q 449 480 451 481 Q 460 482 470 480 Q 501 473 568 465 Q 575 464 577 456 Q 577 450 555 438 C 543 431 527 432 514 437 Q 477 449 446 457 C 438 459 440 481 448 481 Z"/></clipPath>
    <clipPath id="z29866c11"><path d="M 651 315 Q 641 311 625 308 Q 615 307 612 310 Q 608 314 614 327 Q 633 364 646 428 Q 647 447 659 459 Q 672 475 677 464 Q 680 457 680 445 C 679 429 679 429 678 421 Q 668 357 667 338 C 667 329 660 318 651 315 Z"/></clipPath>
    <clipPath id="z29866c12"><path d="M 801 399 Q 816 354 832 341 Q 851 319 832 306 Q 814 296 791 280 Q 776 271 730 294 Q 691 306 651 315 C 642 317 658 340 667 338 Q 668 338 744 324 Q 760 321 764 328 Q 767 331 752 404 C 749 420 795 414 801 399 Z"/></clipPath>
    <clipPath id="z29866c13"><path d="M 680 445 Q 681 445 683 446 Q 692 447 702 445 Q 739 436 819 428 Q 828 427 828 420 Q 829 414 804 399 Q 803 398 801 399 C 785 396 768 401 752 404 Q 712 413 678 421 C 670 423 672 443 680 445 Z"/></clipPath>
    <clipPath id="z29866c14"><path d="M 648 584 Q 720 574 824 573 Q 875 576 884 565 Q 888 555 873 541 Q 818 501 764 521 Q 712 531 635 546 C 602 551 602 551 585 554 Q 492 567 387 583 Q 368 586 382 601 Q 395 614 413 618 Q 432 622 447 619 Q 498 603 555 596 C 617 588 617 588 648 584 Z"/></clipPath>
    <clipPath id="z29866c15"><path d="M 635 546 Q 638 507 633 503 Q 611 484 594 476 Q 582 472 574 479 Q 568 483 575 492 Q 578 498 585 554 C 585 613 585 613 585 643 Q 585 782 570 818 Q 561 852 594 901 Q 604 919 611 922 Q 621 923 627 911 Q 639 881 635 853 Q 632 772 632 609 C 634 567 634 567 635 546 Z"/></clipPath>
    <clipPath id="z29866c16"><path d="M 555 596 Q 528 687 369 821 Q 354 833 369 834 Q 379 835 413 816 Q 453 798 489 766 Q 519 738 553 693 Q 572 666 585 643 C 609 602 564 549 555 596 Z"/></clipPath>
    <clipPath id="z29866c17"><path d="M 632 609 Q 698 703 782 805 Q 798 824 827 823 Q 924 819 954 814 Q 963 811 964 807 Q 965 803 952 795 Q 829 749 741 673 Q 696 634 648 584 C 633 569 619 592 632 609 Z"/></clipPath>
</defs>
<g id="bg-layer">
    <path class="bg" d="M 266 272 C 340 250 379 238 381 237 C 387 231 387 225 384 220 C 379 212 366 206 346 203 C 325 200 305 204 285 214 C 265 222 244 229 222 236 C 198 242 171 247 143 253 C 118 258 114 268 134 277 C 161 290 193 292 228 283 C 253 276 253 276 266 272 Z"/>
    <path class="bg" d="M 290 471 C 338 455 363 445 366 442 C 370 436 371 430 368 426 C 363 419 351 414 333 413 C 318 411 304 415 291 421 C 260 434 260 434 245 441 C 194 463 157 468 140 473 C 117 479 115 488 133 495 C 160 506 191 504 223 493 C 229 490 237 488 245 486 C 245 486 275 476 290 471 Z"/>
    <path class="bg" d="M 285 632 C 285 574 289 520 290 471 C 291 438 291 438 291 421 C 292 337 300 309 295 295 C 290 283 277 277 266 272 C 254 267 224 270 228 283 C 236 301 243 342 245 403 C 245 414 245 428 245 441 C 245 471 245 471 245 486 C 245 528 244 583 244 649 C 244 664 285 647 285 632 Z"/>
    <path class="bg" d="M 244 649 C 209 663 173 674 138 689 C 127 693 113 695 97 697 C 88 697 83 703 83 710 C 82 718 85 726 93 731 C 108 740 127 750 151 759 C 157 761 165 758 173 751 C 192 731 244 696 330 646 C 342 638 352 629 362 621 C 369 614 375 608 373 603 C 370 598 362 599 355 602 C 332 610 309 621 285 632 C 258 643 258 643 244 649 Z"/>
    <path class="bg" d="M 518 137 Q 508 131 478 129 Q 468 126 464 131 Q 460 137 468 151 Q 490 190 508 255 Q 512 274 525 287 Q 541 305 546 291 Q 547 285 548 278 C 550 269 547 259 545 250 Q 545 249 545 248 Q 533 187 530 164 C 528 154 527 141 518 137 Z"/>
    <path class="bg" d="M 704 221 Q 722 179 745 165 Q 760 150 747 135 Q 734 123 690 101 Q 672 94 616 115 Q 571 127 518 137 C 508 139 520 166 530 164 Q 533 163 646 143 Q 659 139 665 145 Q 671 151 670 163 Q 664 194 656 222 C 653 238 698 236 704 221 Z"/>
    <path class="bg" d="M 548 278 Q 555 279 565 277 Q 614 264 719 251 Q 728 250 729 242 Q 729 235 704 221 C 690 213 672 219 656 222 Q 593 238 545 250 C 536 252 539 278 548 278 Z"/>
    <path class="bg" d="M 428 350 Q 418 344 392 340 Q 383 337 380 342 Q 376 346 382 359 Q 401 399 413 466 Q 416 485 427 499 Q 440 515 445 504 Q 448 495 448 481 C 447 465 447 465 446 457 Q 436 393 435 372 C 435 364 435 353 428 350 Z"/>
    <path class="bg" d="M 555 438 Q 565 386 582 370 Q 600 351 581 339 Q 530 311 520 315 Q 516 315 514 318 Q 493 333 428 350 C 420 352 428 375 435 372 Q 442 368 498 358 Q 516 354 520 361 Q 526 367 514 437 C 511 450 552 451 555 438 Z"/>
    <path class="bg" d="M 448 481 Q 449 480 451 481 Q 460 482 470 480 Q 501 473 568 465 Q 575 464 577 456 Q 577 450 555 438 C 543 431 527 432 514 437 Q 477 449 446 457 C 438 459 440 481 448 481 Z"/>
    <path class="bg" d="M 651 315 Q 641 311 625 308 Q 615 307 612 310 Q 608 314 614 327 Q 633 364 646 428 Q 647 447 659 459 Q 672 475 677 464 Q 680 457 680 445 C 679 429 679 429 678 421 Q 668 357 667 338 C 667 329 660 318 651 315 Z"/>
    <path class="bg" d="M 801 399 Q 816 354 832 341 Q 851 319 832 306 Q 814 296 791 280 Q 776 271 730 294 Q 691 306 651 315 C 642 317 658 340 667 338 Q 668 338 744 324 Q 760 321 764 328 Q 767 331 752 404 C 749 420 795 414 801 399 Z"/>
    <path class="bg" d="M 680 445 Q 681 445 683 446 Q 692 447 702 445 Q 739 436 819 428 Q 828 427 828 420 Q 829 414 804 399 Q 803 398 801 399 C 785 396 768 401 752 404 Q 712 413 678 421 C 670 423 672 443 680 445 Z"/>
    <path class="bg" d="M 648 584 Q 720 574 824 573 Q 875 576 884 565 Q 888 555 873 541 Q 818 501 764 521 Q 712 531 635 546 C 602 551 602 551 585 554 Q 492 567 387 583 Q 368 586 382 601 Q 395 614 413 618 Q 432 622 447 619 Q 498 603 555 596 C 617 588 617 588 648 584 Z"/>
    <path class="bg" d="M 635 546 Q 638 507 633 503 Q 611 484 594 476 Q 582 472 574 479 Q 568 483 575 492 Q 578 498 585 554 C 585 613 585 613 585 643 Q 585 782 570 818 Q 561 852 594 901 Q 604 919 611 922 Q 621 923 627 911 Q 639 881 635 853 Q 632 772 632 609 C 634 567 634 567 635 546 Z"/>
    <path class="bg" d="M 555 596 Q 528 687 369 821 Q 354 833 369 834 Q 379 835 413 816 Q 453 798 489 766 Q 519 738 553 693 Q 572 666 585 643 C 609 602 564 549 555 596 Z"/>
    <path class="bg" d="M 632 609 Q 698 703 782 805 Q 798 824 827 823 Q 924 819 954 814 Q 963 811 964 807 Q 965 803 952 795 Q 829 749 741 673 Q 696 634 648 584 C 633 569 619 592 632 609 Z"/>
</g>
<g id="anim-layer">
    <path style="--d:1s; stroke:#FF4444;" pathLength="3333" clip-path="url(#z29866c1)" d="M 129 264 L 382 230"/>
    <path style="--d:2s; stroke:#FF4444;" pathLength="3333" clip-path="url(#z29866c2)" d="M 128 485 L 363 428"/>
    <path style="--d:3s; stroke:#FF4444;" pathLength="3333" clip-path="url(#z29866c3)" d="M 235 288 L 266 312 L 252 643"/>
    <path style="--d:4s; stroke:#FF4444;" pathLength="3333" clip-path="url(#z29866c4)" d="M 89 711 L 155 721 L 368 610"/>
    <path style="--d:5s; stroke:#000;" pathLength="3333" clip-path="url(#z29866c5)" d="M 470 136 L 499 157 L 535 290"/>
    <path style="--d:6s; stroke:#000;" pathLength="3333" clip-path="url(#z29866c6)" d="M 528 141 L 680 124 L 711 152 L 672 221"/>
    <path style="--d:7s; stroke:#000;" pathLength="3333" clip-path="url(#z29866c7)" d="M 554 271 L 724 240"/>
    <path style="--d:8s; stroke:#000;" pathLength="3333" clip-path="url(#z29866c8)" d="M 386 349 L 413 376 L 438 500"/>
    <path style="--d:9s; stroke:#000;" pathLength="3333" clip-path="url(#z29866c9)" d="M 434 353 L 519 336 L 548 350 L 541 436"/>
    <path style="--d:10s; stroke:#000;" pathLength="3333" clip-path="url(#z29866c10)" d="M 451 473 L 569 455"/>
    <path style="--d:11s; stroke:#000;" pathLength="3333" clip-path="url(#z29866c11)" d="M 618 315 L 644 341 L 671 460"/>
    <path style="--d:12s; stroke:#000;" pathLength="3333" clip-path="url(#z29866c12)" d="M 661 320 L 764 301 L 799 320 L 769 402"/>
    <path style="--d:13s; stroke:#000;" pathLength="3333" clip-path="url(#z29866c13)" d="M 685 438 L 823 420"/>
    <path style="--d:14s; stroke:#000;" pathLength="3333" clip-path="url(#z29866c14)" d="M 387 595 L 781 545 L 879 556"/>
    <path style="--d:15s; stroke:#000;" pathLength="3333" clip-path="url(#z29866c15)" d="M 580 480 L 610 542 L 611 916"/>
    <path style="--d:16s; stroke:#000;" pathLength="3333" clip-path="url(#z29866c16)" d="M 575 601 L 498 727 L 371 827"/>
    <path style="--d:17s; stroke:#000;" pathLength="3333" clip-path="url(#z29866c17)" d="M 639 590 L 818 779 L 959 805"/>
</g>
</svg>