<svg id="z29926" class="acjk" viewBox="0 0 1024 1024" xmlns="http://www.w3.org/2000/svg">

<style>
<![CDATA[
@keyframes zk { to { stroke-dashoffset:0; } }
svg.acjk path[clip-path] {
    --t:0.8s;
    animation:zk var(--t) linear forwards var(--d);
    stroke-dasharray:3337;
    stroke-dashoffset:3339;
    stroke-width:128;
    stroke-linecap:round;
    fill:none;
}
/* Low opacity for background improves visual overlap at intersections */
svg.acjk .bg { fill:#ccc; opacity: 0.5; } 
]]>
</style>
<defs>
    <clipPath id="z29926c1"><path d="M 369 230 Q 516 205 672 179 Q 750 164 761 155 Q 771 146 767 137 Q 760 124 729 114 Q 696 107 664 118 Q 456 179 248 193 Q 208 197 236 217 Q 272 239 326 237 C 355 232 355 232 369 230 Z"/></clipPath>
    <clipPath id="z29926c2"><path d="M 380 407 Q 384 349 406 295 Q 419 268 369 230 C 358 221 321 224 326 237 Q 327 238 328 241 Q 344 298 337 359 Q 325 486 270 675 Q 257 726 205 769 Q 189 782 193 808 Q 197 839 209 853 Q 221 865 237 849 Q 265 821 476 724 Q 500 715 506 707 Q 513 697 503 695 Q 485 694 327 737 Q 308 741 311 726 Q 353 564 376 431 C 379 415 379 415 380 407 Z"/></clipPath>
    <clipPath id="z29926c3"><path d="M 937 879 Q 971 869 959 834 Q 940 780 940 697 Q 940 675 934 669 Q 924 662 919 679 Q 904 722 892 756 Q 877 799 855 814 Q 834 826 789 826 Q 731 823 692 802 Q 605 748 605 622 Q 605 445 678 387 Q 708 362 673 349 Q 655 340 616 328 Q 589 318 564 337 Q 491 388 380 407 C 372 409 368 431 376 431 Q 404 435 549 396 Q 562 392 569 397 Q 575 404 562 537 Q 535 766 665 853 Q 737 898 815 901 Q 876 901 937 879 Z"/></clipPath>
    <clipPath id="z29926c4"><path d="M 398 553 Q 429 578 464 609 Q 476 619 488 619 Q 497 618 501 607 Q 505 595 497 571 Q 488 538 394 514 Q 381 511 376 513 Q 372 517 373 527 Q 376 537 398 553 Z"/></clipPath>
</defs>
<g id="bg-layer">
    <path class="bg" d="M 369 230 Q 516 205 672 179 Q 750 164 761 155 Q 771 146 767 137 Q 760 124 729 114 Q 696 107 664 118 Q 456 179 248 193 Q 208 197 236 217 Q 272 239 326 237 C 355 232 355 232 369 230 Z"/>
    <path class="bg" d="M 380 407 Q 384 349 406 295 Q 419 268 369 230 C 358 221 321 224 326 237 Q 327 238 328 241 Q 344 298 337 359 Q 325 486 270 675 Q 257 726 205 769 Q 189 782 193 808 Q 197 839 209 853 Q 221 865 237 849 Q 265 821 476 724 Q 500 715 506 707 Q 513 697 503 695 Q 485 694 327 737 Q 308 741 311 726 Q 353 564 376 431 C 379 415 379 415 380 407 Z"/>
    <path class="bg" d="M 937 879 Q 971 869 959 834 Q 940 780 940 697 Q 940 675 934 669 Q 924 662 919 679 Q 904 722 892 756 Q 877 799 855 814 Q 834 826 789 826 Q 731 823 692 802 Q 605 748 605 622 Q 605 445 678 387 Q 708 362 673 349 Q 655 340 616 328 Q 589 318 564 337 Q 491 388 380 407 C 372 409 368 431 376 431 Q 404 435 549 396 Q 562 392 569 397 Q 575 404 562 537 Q 535 766 665 853 Q 737 898 815 901 Q 876 901 937 879 Z"/>
    <path class="bg" d="M 398 553 Q 429 578 464 609 Q 476 619 488 619 Q 497 618 501 607 Q 505 595 497 571 Q 488 538 394 514 Q 381 511 376 513 Q 372 517 373 527 Q 376 537 398 553 Z"/>
</g>
<g id="anim-layer">
    <path style="--d:1s; stroke:#FF4444;" pathLength="3333" clip-path="url(#z29926c1)" d="M 233 203 L 328 211 L 762 139"/>
    <path style="--d:2s; stroke:#000;" pathLength="3333" clip-path="url(#z29926c2)" d="M 334 241 L 371 305 L 242 803 L 499 701"/>
    <path style="--d:3s; stroke:#000;" pathLength="3333" clip-path="url(#z29926c3)" d="M 387 424 L 564 364 L 638 380 L 589 508 L 587 684 L 628 781 L 721 848 L 808 863 L 904 839 L 928 672"/>
    <path style="--d:4s; stroke:#000;" pathLength="3333" clip-path="url(#z29926c4)" d="M 382 523 L 461 569 L 489 613"/>
</g>
</svg>