<svg id="z30005" class="acjk" viewBox="0 0 1024 1024" xmlns="http://www.w3.org/2000/svg">

<style>
<![CDATA[
@keyframes zk { to { stroke-dashoffset:0; } }
svg.acjk path[clip-path] {
    --t:0.8s;
    animation:zk var(--t) linear forwards var(--d);
    stroke-dasharray:3337;
    stroke-dashoffset:3339;
    stroke-width:128;
    stroke-linecap:round;
    fill:none;
}
/* Low opacity for background improves visual overlap at intersections */
svg.acjk .bg { fill:#ccc; opacity: 0.5; } 
]]>
</style>
<defs>
    <clipPath id="z30005c1"><path d="M 272 347 Q 244 331 214 323 Q 207 322 201 327 Q 192 334 203 346 Q 255 427 269 615 Q 270 678 312 713 Q 315 714 319 717 Q 338 723 339 687 Q 339 683 339 679 C 336 656 336 656 335 644 Q 308 524 296 386 C 296 371 286 354 272 347 Z"/></clipPath>
    <clipPath id="z30005c2"><path d="M 614 650 Q 633 680 652 688 Q 665 698 683 672 Q 705 633 745 425 Q 755 388 783 358 Q 799 343 785 326 Q 766 307 716 275 Q 695 266 610 286 Q 603 286 498 306 C 463 312 463 312 445 315 Q 424 318 405 322 Q 332 337 272 347 C 257 350 282 392 296 386 Q 295 385 298 385 Q 356 367 445 352 C 479 346 479 346 496 343 Q 548 333 612 324 Q 657 317 671 333 Q 690 355 686 379 Q 647 599 624 614 C 615 623 607 640 614 650 Z"/></clipPath>
    <clipPath id="z30005c3"><path d="M 491 503 Q 543 494 589 489 Q 614 486 605 472 Q 595 456 568 451 Q 526 444 492 460 C 459 468 459 468 443 472 Q 389 482 344 494 Q 326 498 347 514 Q 359 523 442 510 C 475 505 475 505 491 503 Z"/></clipPath>
    <clipPath id="z30005c4"><path d="M 490 660 Q 544 653 614 650 C 626 650 633 623 624 614 Q 621 610 616 607 Q 600 598 490 620 C 455 627 455 627 437 630 Q 383 637 335 644 C 323 646 327 679 339 679 Q 346 680 358 678 Q 389 671 437 666 C 472 662 472 662 490 660 Z"/></clipPath>
    <clipPath id="z30005c5"><path d="M 942 839 Q 921 781 913 680 Q 912 664 905 656 Q 898 649 892 665 Q 877 725 861 770 Q 854 801 825 819 Q 791 856 630 854 Q 569 848 545 836 Q 526 823 513 799 Q 494 759 490 660 C 490 633 490 633 490 620 Q 490 556 491 503 C 492 474 492 474 492 460 Q 493 394 496 343 C 497 318 497 318 498 306 Q 504 218 515 176 Q 522 154 492 131 Q 467 115 445 103 Q 426 90 408 102 Q 396 108 418 137 Q 443 171 444 220 Q 445 253 445 315 C 445 340 445 340 445 352 Q 444 404 443 472 C 442 497 442 497 442 510 Q 441 532 441 556 Q 438 596 437 630 C 437 654 437 654 437 666 Q 437 799 490 860 Q 544 921 756 910 Q 850 906 920 873 Q 953 864 942 839 Z"/></clipPath>
</defs>
<g id="bg-layer">
    <path class="bg" d="M 272 347 Q 244 331 214 323 Q 207 322 201 327 Q 192 334 203 346 Q 255 427 269 615 Q 270 678 312 713 Q 315 714 319 717 Q 338 723 339 687 Q 339 683 339 679 C 336 656 336 656 335 644 Q 308 524 296 386 C 296 371 286 354 272 347 Z"/>
    <path class="bg" d="M 614 650 Q 633 680 652 688 Q 665 698 683 672 Q 705 633 745 425 Q 755 388 783 358 Q 799 343 785 326 Q 766 307 716 275 Q 695 266 610 286 Q 603 286 498 306 C 463 312 463 312 445 315 Q 424 318 405 322 Q 332 337 272 347 C 257 350 282 392 296 386 Q 295 385 298 385 Q 356 367 445 352 C 479 346 479 346 496 343 Q 548 333 612 324 Q 657 317 671 333 Q 690 355 686 379 Q 647 599 624 614 C 615 623 607 640 614 650 Z"/>
    <path class="bg" d="M 491 503 Q 543 494 589 489 Q 614 486 605 472 Q 595 456 568 451 Q 526 444 492 460 C 459 468 459 468 443 472 Q 389 482 344 494 Q 326 498 347 514 Q 359 523 442 510 C 475 505 475 505 491 503 Z"/>
    <path class="bg" d="M 490 660 Q 544 653 614 650 C 626 650 633 623 624 614 Q 621 610 616 607 Q 600 598 490 620 C 455 627 455 627 437 630 Q 383 637 335 644 C 323 646 327 679 339 679 Q 346 680 358 678 Q 389 671 437 666 C 472 662 472 662 490 660 Z"/>
    <path class="bg" d="M 942 839 Q 921 781 913 680 Q 912 664 905 656 Q 898 649 892 665 Q 877 725 861 770 Q 854 801 825 819 Q 791 856 630 854 Q 569 848 545 836 Q 526 823 513 799 Q 494 759 490 660 C 490 633 490 633 490 620 Q 490 556 491 503 C 492 474 492 474 492 460 Q 493 394 496 343 C 497 318 497 318 498 306 Q 504 218 515 176 Q 522 154 492 131 Q 467 115 445 103 Q 426 90 408 102 Q 396 108 418 137 Q 443 171 444 220 Q 445 253 445 315 C 445 340 445 340 445 352 Q 444 404 443 472 C 442 497 442 497 442 510 Q 441 532 441 556 Q 438 596 437 630 C 437 654 437 654 437 666 Q 437 799 490 860 Q 544 921 756 910 Q 850 906 920 873 Q 953 864 942 839 Z"/>
</g>
<g id="anim-layer">
    <path style="--d:1s; stroke:#FF4444;" pathLength="3333" clip-path="url(#z30005c1)" d="M 205 333 L 264 398 L 322 714"/>
    <path style="--d:2s; stroke:#FF4444;" pathLength="3333" clip-path="url(#z30005c2)" d="M 280 349 L 315 360 L 667 299 L 723 329 L 738 356 L 641 680"/>
    <path style="--d:3s; stroke:#FF4444;" pathLength="3333" clip-path="url(#z30005c3)" d="M 343 501 L 601 475"/>
    <path style="--d:4s; stroke:#FF4444;" pathLength="3333" clip-path="url(#z30005c4)" d="M 341 647 L 619 620"/>
    <path style="--d:5s; stroke:#000;" pathLength="3333" clip-path="url(#z30005c5)" d="M 411 109 L 477 173 L 465 703 L 480 788 L 516 848 L 641 882 L 779 876 L 861 849 L 898 826 L 900 663"/>
</g>
</svg>