<svg id="z30218" class="acjk" viewBox="0 0 1024 1024" xmlns="http://www.w3.org/2000/svg">

<style>
<![CDATA[
@keyframes zk { to { stroke-dashoffset:0; } }
svg.acjk path[clip-path] {
    --t:0.8s;
    animation:zk var(--t) linear forwards var(--d);
    stroke-dasharray:3337;
    stroke-dashoffset:3339;
    stroke-width:128;
    stroke-linecap:round;
    fill:none;
}
/* Low opacity for background improves visual overlap at intersections */
svg.acjk .bg { fill:#ccc; opacity: 0.5; } 
]]>
</style>
<defs>
    <clipPath id="z30218c1"><path d="M 504 99 Q 532 121 562 147 Q 575 159 590 157 Q 600 156 605 144 Q 609 129 599 101 Q 587 68 497 53 Q 482 50 476 53 Q 472 57 473 69 Q 477 79 504 99 Z"/></clipPath>
    <clipPath id="z30218c2"><path d="M 364 261 Q 373 270 450 261 Q 582 243 719 224 Q 786 214 797 205 Q 807 198 802 188 Q 796 175 767 166 Q 736 159 642 185 Q 482 218 344 223 Q 343 223 342 224 C 328 227 351 255 364 261 Z"/></clipPath>
    <clipPath id="z30218c3"><path d="M 266 525 Q 232 693 107 877 Q 103 884 100 890 Q 97 900 108 899 Q 144 892 221 774 Q 237 746 254 714 Q 326 560 344 375 Q 353 282 364 261 C 369 248 354 231 342 224 Q 299 197 283 202 Q 270 209 277 223 Q 298 260 291 337 Q 290 340 290 346 Q 284 421 273 488 C 268 513 268 513 266 525 Z"/></clipPath>
    <clipPath id="z30218c4"><path d="M 133 355 Q 166 406 192 421 Q 205 425 215 415 Q 222 405 222 388 Q 216 343 156 324 Q 153 323 150 321 Q 135 314 126 317 Q 120 317 121 329 Q 121 339 133 355 Z"/></clipPath>
    <clipPath id="z30218c5"><path d="M 273 488 Q 96 575 69 577 Q 56 581 56 591 Q 56 604 67 611 Q 92 621 128 635 Q 138 636 149 625 Q 162 607 266 525 C 276 517 284 482 273 488 Z"/></clipPath>
    <clipPath id="z30218c6"><path d="M 401 532 Q 401 531 402 531 Q 439 483 479 410 Q 495 376 511 359 Q 518 349 514 338 Q 510 328 483 309 Q 458 294 442 296 Q 426 299 434 317 Q 465 371 314 600 Q 311 604 308 609 Q 301 618 298 624 Q 297 634 308 631 Q 324 625 380 561 C 394 542 394 542 401 532 Z"/></clipPath>
    <clipPath id="z30218c7"><path d="M 380 561 Q 395 609 395 645 Q 380 787 365 836 Q 353 876 385 919 Q 386 920 388 922 Q 404 935 414 912 Q 427 878 426 837 Q 436 648 445 607 Q 452 583 443 574 Q 427 556 416 544 Q 409 537 401 532 C 391 526 378 549 380 561 Z"/></clipPath>
    <clipPath id="z30218c8"><path d="M 742 430 Q 761 382 787 368 Q 800 352 788 336 Q 775 326 729 303 Q 713 297 695 304 Q 667 317 639 326 Q 603 338 564 345 Q 551 346 552 355 Q 555 361 570 365 Q 585 369 669 351 Q 700 342 706 348 Q 713 355 710 368 Q 701 410 689 442 C 683 459 735 447 742 430 Z"/></clipPath>
    <clipPath id="z30218c9"><path d="M 591 493 Q 667 469 833 469 Q 848 468 851 462 Q 855 452 842 443 Q 797 413 744 429 Q 743 429 742 430 C 707 438 707 438 689 442 Q 671 443 651 449 Q 582 461 501 475 Q 485 476 497 490 Q 507 500 522 503 Q 538 507 549 503 Q 552 502 557 501 C 580 496 580 496 591 493 Z"/></clipPath>
    <clipPath id="z30218c10"><path d="M 587 573 Q 608 545 616 538 Q 623 531 619 521 Q 613 505 591 493 C 581 487 555 490 557 501 Q 569 537 485 654 Q 478 661 476 666 Q 473 673 483 672 Q 502 668 572 592 C 582 579 582 579 587 573 Z"/></clipPath>
    <clipPath id="z30218c11"><path d="M 663 602 Q 664 601 668 600 Q 788 570 792 566 Q 799 559 795 551 Q 788 541 761 535 Q 733 531 707 543 Q 682 553 653 561 Q 623 568 587 573 C 579 575 565 589 572 592 Q 587 598 615 608 C 630 614 648 608 663 602 Z"/></clipPath>
    <clipPath id="z30218c12"><path d="M 678 720 Q 735 710 866 710 Q 882 709 887 702 Q 891 692 877 680 Q 825 646 764 664 Q 725 670 671 682 C 636 688 636 688 619 691 Q 552 701 478 713 Q 460 714 474 729 Q 486 741 502 745 Q 520 749 534 745 Q 570 735 612 728 C 656 723 656 723 678 720 Z"/></clipPath>
    <clipPath id="z30218c13"><path d="M 671 682 Q 674 640 683 628 Q 689 622 684 614 Q 680 610 663 602 C 648 596 612 592 615 608 Q 621 639 619 691 C 614 716 614 716 612 728 Q 597 798 552 837 Q 528 861 467 893 Q 448 905 471 904 Q 507 907 568 871 Q 622 841 659 735 C 667 700 667 700 671 682 Z"/></clipPath>
    <clipPath id="z30218c14"><path d="M 659 735 Q 714 819 788 906 Q 809 930 932 909 Q 939 908 940 903 Q 940 899 930 893 Q 809 842 749 786 Q 715 756 678 720 C 667 709 649 722 659 735 Z"/></clipPath>
</defs>
<g id="bg-layer">
    <path class="bg" d="M 504 99 Q 532 121 562 147 Q 575 159 590 157 Q 600 156 605 144 Q 609 129 599 101 Q 587 68 497 53 Q 482 50 476 53 Q 472 57 473 69 Q 477 79 504 99 Z"/>
    <path class="bg" d="M 364 261 Q 373 270 450 261 Q 582 243 719 224 Q 786 214 797 205 Q 807 198 802 188 Q 796 175 767 166 Q 736 159 642 185 Q 482 218 344 223 Q 343 223 342 224 C 328 227 351 255 364 261 Z"/>
    <path class="bg" d="M 266 525 Q 232 693 107 877 Q 103 884 100 890 Q 97 900 108 899 Q 144 892 221 774 Q 237 746 254 714 Q 326 560 344 375 Q 353 282 364 261 C 369 248 354 231 342 224 Q 299 197 283 202 Q 270 209 277 223 Q 298 260 291 337 Q 290 340 290 346 Q 284 421 273 488 C 268 513 268 513 266 525 Z"/>
    <path class="bg" d="M 133 355 Q 166 406 192 421 Q 205 425 215 415 Q 222 405 222 388 Q 216 343 156 324 Q 153 323 150 321 Q 135 314 126 317 Q 120 317 121 329 Q 121 339 133 355 Z"/>
    <path class="bg" d="M 273 488 Q 96 575 69 577 Q 56 581 56 591 Q 56 604 67 611 Q 92 621 128 635 Q 138 636 149 625 Q 162 607 266 525 C 276 517 284 482 273 488 Z"/>
    <path class="bg" d="M 401 532 Q 401 531 402 531 Q 439 483 479 410 Q 495 376 511 359 Q 518 349 514 338 Q 510 328 483 309 Q 458 294 442 296 Q 426 299 434 317 Q 465 371 314 600 Q 311 604 308 609 Q 301 618 298 624 Q 297 634 308 631 Q 324 625 380 561 C 394 542 394 542 401 532 Z"/>
    <path class="bg" d="M 380 561 Q 395 609 395 645 Q 380 787 365 836 Q 353 876 385 919 Q 386 920 388 922 Q 404 935 414 912 Q 427 878 426 837 Q 436 648 445 607 Q 452 583 443 574 Q 427 556 416 544 Q 409 537 401 532 C 391 526 378 549 380 561 Z"/>
    <path class="bg" d="M 742 430 Q 761 382 787 368 Q 800 352 788 336 Q 775 326 729 303 Q 713 297 695 304 Q 667 317 639 326 Q 603 338 564 345 Q 551 346 552 355 Q 555 361 570 365 Q 585 369 669 351 Q 700 342 706 348 Q 713 355 710 368 Q 701 410 689 442 C 683 459 735 447 742 430 Z"/>
    <path class="bg" d="M 591 493 Q 667 469 833 469 Q 848 468 851 462 Q 855 452 842 443 Q 797 413 744 429 Q 743 429 742 430 C 707 438 707 438 689 442 Q 671 443 651 449 Q 582 461 501 475 Q 485 476 497 490 Q 507 500 522 503 Q 538 507 549 503 Q 552 502 557 501 C 580 496 580 496 591 493 Z"/>
    <path class="bg" d="M 587 573 Q 608 545 616 538 Q 623 531 619 521 Q 613 505 591 493 C 581 487 555 490 557 501 Q 569 537 485 654 Q 478 661 476 666 Q 473 673 483 672 Q 502 668 572 592 C 582 579 582 579 587 573 Z"/>
    <path class="bg" d="M 663 602 Q 664 601 668 600 Q 788 570 792 566 Q 799 559 795 551 Q 788 541 761 535 Q 733 531 707 543 Q 682 553 653 561 Q 623 568 587 573 C 579 575 565 589 572 592 Q 587 598 615 608 C 630 614 648 608 663 602 Z"/>
    <path class="bg" d="M 678 720 Q 735 710 866 710 Q 882 709 887 702 Q 891 692 877 680 Q 825 646 764 664 Q 725 670 671 682 C 636 688 636 688 619 691 Q 552 701 478 713 Q 460 714 474 729 Q 486 741 502 745 Q 520 749 534 745 Q 570 735 612 728 C 656 723 656 723 678 720 Z"/>
    <path class="bg" d="M 671 682 Q 674 640 683 628 Q 689 622 684 614 Q 680 610 663 602 C 648 596 612 592 615 608 Q 621 639 619 691 C 614 716 614 716 612 728 Q 597 798 552 837 Q 528 861 467 893 Q 448 905 471 904 Q 507 907 568 871 Q 622 841 659 735 C 667 700 667 700 671 682 Z"/>
    <path class="bg" d="M 659 735 Q 714 819 788 906 Q 809 930 932 909 Q 939 908 940 903 Q 940 899 930 893 Q 809 842 749 786 Q 715 756 678 720 C 667 709 649 722 659 735 Z"/>
</g>
<g id="anim-layer">
    <path style="--d:1s; stroke:#FF4444;" pathLength="3333" clip-path="url(#z30218c1)" d="M 480 61 L 561 105 L 597 150"/>
    <path style="--d:2s; stroke:#FF4444;" pathLength="3333" clip-path="url(#z30218c2)" d="M 352 228 L 407 242 L 799 192"/>
    <path style="--d:3s; stroke:#FF4444;" pathLength="3333" clip-path="url(#z30218c3)" d="M 280 209 L 327 267 L 284 560 L 217 735 L 108 894"/>
    <path style="--d:4s; stroke:#FF4444;" pathLength="3333" clip-path="url(#z30218c4)" d="M 128 321 L 211 414"/>
    <path style="--d:5s; stroke:#FF4444;" pathLength="3333" clip-path="url(#z30218c5)" d="M 61 587 L 127 597 L 265 496"/>
    <path style="--d:6s; stroke:#000;" pathLength="3333" clip-path="url(#z30218c6)" d="M 441 304 L 476 343 L 470 364 L 306 624"/>
    <path style="--d:7s; stroke:#000;" pathLength="3333" clip-path="url(#z30218c7)" d="M 401 540 L 419 598 L 397 922"/>
    <path style="--d:8s; stroke:#000;" pathLength="3333" clip-path="url(#z30218c8)" d="M 560 355 L 719 326 L 752 353 L 698 437"/>
    <path style="--d:9s; stroke:#000;" pathLength="3333" clip-path="url(#z30218c9)" d="M 501 480 L 772 447 L 845 459"/>
    <path style="--d:10s; stroke:#000;" pathLength="3333" clip-path="url(#z30218c10)" d="M 564 506 L 583 542 L 484 667"/>
    <path style="--d:11s; stroke:#000;" pathLength="3333" clip-path="url(#z30218c11)" d="M 581 589 L 789 553"/>
    <path style="--d:12s; stroke:#000;" pathLength="3333" clip-path="url(#z30218c12)" d="M 481 724 L 809 684 L 881 696"/>
    <path style="--d:13s; stroke:#000;" pathLength="3333" clip-path="url(#z30218c13)" d="M 622 614 L 652 641 L 607 800 L 552 860 L 466 898"/>
    <path style="--d:14s; stroke:#000;" pathLength="3333" clip-path="url(#z30218c14)" d="M 667 724 L 815 879 L 933 903"/>
</g>
</svg>