<svg id="z30272" class="acjk" viewBox="0 0 1024 1024" xmlns="http://www.w3.org/2000/svg">

<style>
<![CDATA[
@keyframes zk { to { stroke-dashoffset:0; } }
svg.acjk path[clip-path] {
    --t:0.8s;
    animation:zk var(--t) linear forwards var(--d);
    stroke-dasharray:3337;
    stroke-dashoffset:3339;
    stroke-width:128;
    stroke-linecap:round;
    fill:none;
}
/* Low opacity for background improves visual overlap at intersections */
svg.acjk .bg { fill:#ccc; opacity: 0.5; } 
]]>
</style>
<defs>
    <clipPath id="z30272c1"><path d="M 522 100 Q 544 116 570 136 Q 586 148 602 144 Q 612 143 617 128 Q 620 112 606 82 Q 599 66 569 58 Q 497 46 488 53 Q 484 57 486 71 Q 492 81 522 100 Z"/></clipPath>
    <clipPath id="z30272c2"><path d="M 659 214 Q 779 193 789 186 Q 798 179 794 171 Q 788 159 762 151 Q 743 145 633 172 Q 470 205 346 211 Q 343 211 341 213 C 330 217 347 241 358 243 Q 389 252 424 247 Q 521 234 621 219 C 646 216 646 216 659 214 Z"/></clipPath>
    <clipPath id="z30272c3"><path d="M 341 213 Q 328 203 307 193 Q 288 183 274 188 Q 262 195 269 209 Q 287 236 288 292 Q 287 311 286 334 Q 283 407 274 474 C 270 497 270 497 268 509 Q 238 674 161 801 Q 139 843 115 881 Q 109 888 108 894 Q 105 904 116 902 Q 149 896 227 772 Q 242 744 259 710 Q 323 554 344 322 Q 347 274 358 243 C 362 232 350 220 341 213 Z"/></clipPath>
    <clipPath id="z30272c4"><path d="M 156 351 Q 204 411 220 414 Q 230 415 237 403 Q 243 390 238 360 Q 234 333 157 305 Q 142 299 136 301 Q 132 304 131 317 Q 132 327 156 351 Z"/></clipPath>
    <clipPath id="z30272c5"><path d="M 274 474 Q 190 522 91 579 Q 78 586 54 592 Q 42 596 43 606 Q 44 619 54 624 Q 79 633 114 643 Q 124 643 133 633 Q 152 606 265 512 Q 266 511 268 509 C 276 501 285 469 274 474 Z"/></clipPath>
    <clipPath id="z30272c6"><path d="M 675 350 Q 720 344 758 340 Q 768 341 777 329 Q 778 319 756 308 Q 734 292 685 301 C 650 310 650 310 632 314 Q 611 317 520 336 C 490 339 490 339 475 341 Q 441 344 404 349 Q 377 352 398 369 Q 428 393 467 384 Q 473 383 481 382 C 508 377 508 377 521 375 Q 570 365 630 356 C 660 352 660 352 675 350 Z"/></clipPath>
    <clipPath id="z30272c7"><path d="M 520 336 Q 520 314 522 307 Q 523 288 511 279 Q 492 264 469 257 Q 457 253 450 259 Q 444 263 450 276 Q 469 310 475 341 C 479 368 479 368 481 382 Q 485 407 490 449 C 492 460 524 455 524 444 Q 521 404 521 375 C 520 349 520 349 520 336 Z"/></clipPath>
    <clipPath id="z30272c8"><path d="M 660 423 Q 667 386 675 350 C 682 317 682 317 685 301 Q 685 300 686 300 Q 692 273 702 256 Q 706 247 691 233 Q 673 220 659 214 C 647 209 618 206 621 219 Q 621 223 624 229 Q 636 248 635 261 Q 634 286 632 314 C 631 342 631 342 630 356 Q 626 390 622 429 C 619 442 657 436 660 423 Z"/></clipPath>
    <clipPath id="z30272c9"><path d="M 579 470 Q 669 455 813 455 Q 867 458 875 447 Q 879 437 865 425 Q 814 385 756 404 Q 714 411 660 423 C 635 427 635 427 622 429 Q 604 430 588 434 Q 555 438 524 444 C 501 447 501 447 490 449 Q 420 458 347 468 Q 328 469 342 485 Q 355 498 371 502 Q 390 506 404 503 Q 467 484 539 475 C 566 472 566 472 579 470 Z"/></clipPath>
    <clipPath id="z30272c10"><path d="M 424 567 Q 414 563 395 560 Q 383 557 381 562 Q 375 566 383 581 Q 408 635 423 722 Q 426 749 442 766 Q 458 785 462 771 Q 463 764 465 756 C 464 737 464 737 464 728 Q 451 662 444 598 C 442 586 435 572 424 567 Z"/></clipPath>
    <clipPath id="z30272c11"><path d="M 681 735 Q 682 736 683 738 Q 687 753 699 751 Q 712 750 718 736 Q 728 723 745 662 Q 758 614 791 586 Q 809 570 793 557 Q 777 541 730 519 Q 718 512 658 525 Q 604 531 599 534 C 567 540 567 540 551 543 Q 550 543 424 567 C 412 569 433 603 444 598 Q 444 597 446 597 Q 483 585 551 575 C 582 570 582 570 598 567 Q 685 554 700 561 Q 709 565 705 592 Q 693 688 682 710 C 679 718 677 728 681 735 Z"/></clipPath>
    <clipPath id="z30272c12"><path d="M 594 652 Q 621 646 645 644 Q 664 641 657 630 Q 648 618 627 614 Q 614 613 595 617 C 566 624 566 624 551 628 Q 515 637 486 646 Q 473 649 489 661 Q 496 667 512 664 Q 531 660 552 658 C 580 654 580 654 594 652 Z"/></clipPath>
    <clipPath id="z30272c13"><path d="M 599 534 Q 599 533 600 532 Q 603 493 599 487 Q 589 477 579 470 C 569 462 534 463 539 475 Q 545 490 551 543 C 551 564 551 564 551 575 Q 551 597 551 628 C 552 648 552 648 552 658 Q 552 683 553 715 C 553 728 592 721 592 708 Q 593 678 594 652 C 595 629 595 629 595 617 Q 596 590 598 567 C 599 545 599 545 599 534 Z"/></clipPath>
    <clipPath id="z30272c14"><path d="M 465 756 Q 472 759 484 756 Q 547 743 681 735 C 689 735 688 716 682 710 Q 678 706 670 701 Q 655 692 592 708 C 566 713 566 713 553 715 Q 504 722 464 728 C 455 730 456 754 465 756 Z"/></clipPath>
    <clipPath id="z30272c15"><path d="M 469 798 Q 453 846 322 929 Q 300 939 326 941 Q 392 945 506 856 Q 521 844 530 840 Q 542 831 541 822 Q 540 809 517 798 Q 492 785 480 786 Q 473 786 469 798 Z"/></clipPath>
    <clipPath id="z30272c16"><path d="M 647 810 Q 696 859 753 928 Q 766 949 781 953 Q 790 954 797 946 Q 810 933 799 892 Q 793 853 722 816 Q 676 791 650 781 Q 641 775 639 787 Q 638 800 647 810 Z"/></clipPath>
</defs>
<g id="bg-layer">
    <path class="bg" d="M 522 100 Q 544 116 570 136 Q 586 148 602 144 Q 612 143 617 128 Q 620 112 606 82 Q 599 66 569 58 Q 497 46 488 53 Q 484 57 486 71 Q 492 81 522 100 Z"/>
    <path class="bg" d="M 659 214 Q 779 193 789 186 Q 798 179 794 171 Q 788 159 762 151 Q 743 145 633 172 Q 470 205 346 211 Q 343 211 341 213 C 330 217 347 241 358 243 Q 389 252 424 247 Q 521 234 621 219 C 646 216 646 216 659 214 Z"/>
    <path class="bg" d="M 341 213 Q 328 203 307 193 Q 288 183 274 188 Q 262 195 269 209 Q 287 236 288 292 Q 287 311 286 334 Q 283 407 274 474 C 270 497 270 497 268 509 Q 238 674 161 801 Q 139 843 115 881 Q 109 888 108 894 Q 105 904 116 902 Q 149 896 227 772 Q 242 744 259 710 Q 323 554 344 322 Q 347 274 358 243 C 362 232 350 220 341 213 Z"/>
    <path class="bg" d="M 156 351 Q 204 411 220 414 Q 230 415 237 403 Q 243 390 238 360 Q 234 333 157 305 Q 142 299 136 301 Q 132 304 131 317 Q 132 327 156 351 Z"/>
    <path class="bg" d="M 274 474 Q 190 522 91 579 Q 78 586 54 592 Q 42 596 43 606 Q 44 619 54 624 Q 79 633 114 643 Q 124 643 133 633 Q 152 606 265 512 Q 266 511 268 509 C 276 501 285 469 274 474 Z"/>
    <path class="bg" d="M 675 350 Q 720 344 758 340 Q 768 341 777 329 Q 778 319 756 308 Q 734 292 685 301 C 650 310 650 310 632 314 Q 611 317 520 336 C 490 339 490 339 475 341 Q 441 344 404 349 Q 377 352 398 369 Q 428 393 467 384 Q 473 383 481 382 C 508 377 508 377 521 375 Q 570 365 630 356 C 660 352 660 352 675 350 Z"/>
    <path class="bg" d="M 520 336 Q 520 314 522 307 Q 523 288 511 279 Q 492 264 469 257 Q 457 253 450 259 Q 444 263 450 276 Q 469 310 475 341 C 479 368 479 368 481 382 Q 485 407 490 449 C 492 460 524 455 524 444 Q 521 404 521 375 C 520 349 520 349 520 336 Z"/>
    <path class="bg" d="M 660 423 Q 667 386 675 350 C 682 317 682 317 685 301 Q 685 300 686 300 Q 692 273 702 256 Q 706 247 691 233 Q 673 220 659 214 C 647 209 618 206 621 219 Q 621 223 624 229 Q 636 248 635 261 Q 634 286 632 314 C 631 342 631 342 630 356 Q 626 390 622 429 C 619 442 657 436 660 423 Z"/>
    <path class="bg" d="M 579 470 Q 669 455 813 455 Q 867 458 875 447 Q 879 437 865 425 Q 814 385 756 404 Q 714 411 660 423 C 635 427 635 427 622 429 Q 604 430 588 434 Q 555 438 524 444 C 501 447 501 447 490 449 Q 420 458 347 468 Q 328 469 342 485 Q 355 498 371 502 Q 390 506 404 503 Q 467 484 539 475 C 566 472 566 472 579 470 Z"/>
    <path class="bg" d="M 424 567 Q 414 563 395 560 Q 383 557 381 562 Q 375 566 383 581 Q 408 635 423 722 Q 426 749 442 766 Q 458 785 462 771 Q 463 764 465 756 C 464 737 464 737 464 728 Q 451 662 444 598 C 442 586 435 572 424 567 Z"/>
    <path class="bg" d="M 681 735 Q 682 736 683 738 Q 687 753 699 751 Q 712 750 718 736 Q 728 723 745 662 Q 758 614 791 586 Q 809 570 793 557 Q 777 541 730 519 Q 718 512 658 525 Q 604 531 599 534 C 567 540 567 540 551 543 Q 550 543 424 567 C 412 569 433 603 444 598 Q 444 597 446 597 Q 483 585 551 575 C 582 570 582 570 598 567 Q 685 554 700 561 Q 709 565 705 592 Q 693 688 682 710 C 679 718 677 728 681 735 Z"/>
    <path class="bg" d="M 594 652 Q 621 646 645 644 Q 664 641 657 630 Q 648 618 627 614 Q 614 613 595 617 C 566 624 566 624 551 628 Q 515 637 486 646 Q 473 649 489 661 Q 496 667 512 664 Q 531 660 552 658 C 580 654 580 654 594 652 Z"/>
    <path class="bg" d="M 599 534 Q 599 533 600 532 Q 603 493 599 487 Q 589 477 579 470 C 569 462 534 463 539 475 Q 545 490 551 543 C 551 564 551 564 551 575 Q 551 597 551 628 C 552 648 552 648 552 658 Q 552 683 553 715 C 553 728 592 721 592 708 Q 593 678 594 652 C 595 629 595 629 595 617 Q 596 590 598 567 C 599 545 599 545 599 534 Z"/>
    <path class="bg" d="M 465 756 Q 472 759 484 756 Q 547 743 681 735 C 689 735 688 716 682 710 Q 678 706 670 701 Q 655 692 592 708 C 566 713 566 713 553 715 Q 504 722 464 728 C 455 730 456 754 465 756 Z"/>
    <path class="bg" d="M 469 798 Q 453 846 322 929 Q 300 939 326 941 Q 392 945 506 856 Q 521 844 530 840 Q 542 831 541 822 Q 540 809 517 798 Q 492 785 480 786 Q 473 786 469 798 Z"/>
    <path class="bg" d="M 647 810 Q 696 859 753 928 Q 766 949 781 953 Q 790 954 797 946 Q 810 933 799 892 Q 793 853 722 816 Q 676 791 650 781 Q 641 775 639 787 Q 638 800 647 810 Z"/>
</g>
<g id="anim-layer">
    <path style="--d:1s; stroke:#FF4444;" pathLength="3333" clip-path="url(#z30272c1)" d="M 491 61 L 612 132"/>
    <path style="--d:2s; stroke:#FF4444;" pathLength="3333" clip-path="url(#z30272c2)" d="M 343 219 L 425 226 L 790 176"/>
    <path style="--d:3s; stroke:#FF4444;" pathLength="3333" clip-path="url(#z30272c3)" d="M 273 195 L 321 242 L 288 532 L 237 702 L 115 897"/>
    <path style="--d:4s; stroke:#FF4444;" pathLength="3333" clip-path="url(#z30272c4)" d="M 138 310 L 207 364 L 225 407"/>
    <path style="--d:5s; stroke:#FF4444;" pathLength="3333" clip-path="url(#z30272c5)" d="M 47 604 L 110 608 L 274 483"/>
    <path style="--d:6s; stroke:#000;" pathLength="3333" clip-path="url(#z30272c6)" d="M 396 356 L 771 327"/>
    <path style="--d:7s; stroke:#000;" pathLength="3333" clip-path="url(#z30272c7)" d="M 453 261 L 493 302 L 507 453"/>
    <path style="--d:8s; stroke:#000;" pathLength="3333" clip-path="url(#z30272c8)" d="M 629 219 L 668 261 L 635 434"/>
    <path style="--d:9s; stroke:#000;" pathLength="3333" clip-path="url(#z30272c9)" d="M 342 474 L 391 483 L 795 426 L 871 440"/>
    <path style="--d:10s; stroke:#000;" pathLength="3333" clip-path="url(#z30272c10)" d="M 387 566 L 417 596 L 454 771"/>
    <path style="--d:11s; stroke:#000;" pathLength="3333" clip-path="url(#z30272c11)" d="M 425 572 L 729 548 L 753 573 L 691 745"/>
    <path style="--d:12s; stroke:#000;" pathLength="3333" clip-path="url(#z30272c12)" d="M 487 653 L 653 635"/>
    <path style="--d:13s; stroke:#000;" pathLength="3333" clip-path="url(#z30272c13)" d="M 545 475 L 575 517 L 576 718"/>
    <path style="--d:14s; stroke:#000;" pathLength="3333" clip-path="url(#z30272c14)" d="M 460 739 L 682 724"/>
    <path style="--d:15s; stroke:#000;" pathLength="3333" clip-path="url(#z30272c15)" d="M 480 790 L 490 833 L 320 935"/>
    <path style="--d:16s; stroke:#000;" pathLength="3333" clip-path="url(#z30272c16)" d="M 646 791 L 759 882 L 795 945"/>
</g>
</svg>