<svg id="z30399" class="acjk" viewBox="0 0 1024 1024" xmlns="http://www.w3.org/2000/svg">

<style>
<![CDATA[
@keyframes zk { to { stroke-dashoffset:0; } }
svg.acjk path[clip-path] {
    --t:0.8s;
    animation:zk var(--t) linear forwards var(--d);
    stroke-dasharray:3337;
    stroke-dashoffset:3339;
    stroke-width:128;
    stroke-linecap:round;
    fill:none;
}
/* Low opacity for background improves visual overlap at intersections */
svg.acjk .bg { fill:#ccc; opacity: 0.5; } 
]]>
</style>
<defs>
    <clipPath id="z30399c1"><path d="M 241 366 C 226 358 211 353 196 350 C 185 347 176 348 171 354 C 166 358 166 366 173 377 C 190 404 206 431 216 461 C 225 489 240 563 264 681 C 266 696 310 691 308 676 C 275 493 270 426 269 404 C 269 388 255 373 241 366 Z"/></clipPath>
    <clipPath id="z30399c2"><path d="M 730 634 C 760 506 789 416 823 369 C 829 359 834 352 831 345 C 826 334 802 318 761 297 C 750 291 739 290 729 293 C 581 322 418 346 241 366 C 225 369 253 407 269 404 C 303 396 338 389 374 383 C 391 380 391 380 400 378 C 446 368 494 360 544 353 C 575 348 575 348 590 346 C 662 334 707 330 727 343 C 735 348 738 362 735 382 C 721 454 700 541 672 642 C 666 661 726 653 730 634 Z"/></clipPath>
    <clipPath id="z30399c3"><path d="M 438 663 C 449 567 420 457 400 378 C 398 369 372 374 374 383 C 381 418 386 473 387 515 C 387 595 396 645 416 665 C 421 670 437 670 438 663 Z"/></clipPath>
    <clipPath id="z30399c4"><path d="M 605 451 C 611 421 620 400 627 386 C 629 380 626 371 616 362 C 607 354 598 350 590 346 C 576 340 538 339 544 353 C 551 366 559 388 559 403 C 553 481 544 565 529 655 C 527 667 564 664 566 652 C 580 581 591 513 605 451 Z"/></clipPath>
    <clipPath id="z30399c5"><path d="M 619 694 C 733 685 837 687 930 700 C 946 702 957 700 963 694 C 969 685 967 676 958 667 C 937 646 911 628 880 614 C 869 609 855 611 837 616 C 801 624 765 629 730 634 C 691 639 691 639 672 642 C 631 647 596 649 566 652 C 541 654 541 654 529 655 C 489 658 458 661 438 663 C 423 664 423 664 416 665 C 373 668 337 672 308 676 C 279 679 279 679 264 681 C 213 686 151 688 77 688 C 67 688 61 691 61 700 C 60 708 66 718 80 729 C 91 737 108 747 131 757 C 138 760 149 757 163 753 C 175 748 209 744 263 734 C 391 708 499 703 619 694 Z"/></clipPath>
</defs>
<g id="bg-layer">
    <path class="bg" d="M 241 366 C 226 358 211 353 196 350 C 185 347 176 348 171 354 C 166 358 166 366 173 377 C 190 404 206 431 216 461 C 225 489 240 563 264 681 C 266 696 310 691 308 676 C 275 493 270 426 269 404 C 269 388 255 373 241 366 Z"/>
    <path class="bg" d="M 730 634 C 760 506 789 416 823 369 C 829 359 834 352 831 345 C 826 334 802 318 761 297 C 750 291 739 290 729 293 C 581 322 418 346 241 366 C 225 369 253 407 269 404 C 303 396 338 389 374 383 C 391 380 391 380 400 378 C 446 368 494 360 544 353 C 575 348 575 348 590 346 C 662 334 707 330 727 343 C 735 348 738 362 735 382 C 721 454 700 541 672 642 C 666 661 726 653 730 634 Z"/>
    <path class="bg" d="M 438 663 C 449 567 420 457 400 378 C 398 369 372 374 374 383 C 381 418 386 473 387 515 C 387 595 396 645 416 665 C 421 670 437 670 438 663 Z"/>
    <path class="bg" d="M 605 451 C 611 421 620 400 627 386 C 629 380 626 371 616 362 C 607 354 598 350 590 346 C 576 340 538 339 544 353 C 551 366 559 388 559 403 C 553 481 544 565 529 655 C 527 667 564 664 566 652 C 580 581 591 513 605 451 Z"/>
    <path class="bg" d="M 619 694 C 733 685 837 687 930 700 C 946 702 957 700 963 694 C 969 685 967 676 958 667 C 937 646 911 628 880 614 C 869 609 855 611 837 616 C 801 624 765 629 730 634 C 691 639 691 639 672 642 C 631 647 596 649 566 652 C 541 654 541 654 529 655 C 489 658 458 661 438 663 C 423 664 423 664 416 665 C 373 668 337 672 308 676 C 279 679 279 679 264 681 C 213 686 151 688 77 688 C 67 688 61 691 61 700 C 60 708 66 718 80 729 C 91 737 108 747 131 757 C 138 760 149 757 163 753 C 175 748 209 744 263 734 C 391 708 499 703 619 694 Z"/>
</g>
<g id="anim-layer">
    <path style="--d:1s; stroke:#FF4444;" pathLength="3333" clip-path="url(#z30399c1)" d="M 175 357 L 236 414 L 293 686"/>
    <path style="--d:2s; stroke:#000;" pathLength="3333" clip-path="url(#z30399c2)" d="M 243 373 L 748 322 L 783 367 L 690 650"/>
    <path style="--d:3s; stroke:#000;" pathLength="3333" clip-path="url(#z30399c3)" d="M 387 379 L 426 663"/>
    <path style="--d:4s; stroke:#000;" pathLength="3333" clip-path="url(#z30399c4)" d="M 551 352 L 593 389 L 546 660"/>
    <path style="--d:5s; stroke:#000;" pathLength="3333" clip-path="url(#z30399c5)" d="M 68 702 L 137 722 L 859 651 L 961 685"/>
</g>
</svg>