<svg id="z30433" class="acjk" viewBox="0 0 1024 1024" xmlns="http://www.w3.org/2000/svg">

<style>
<![CDATA[
@keyframes zk { to { stroke-dashoffset:0; } }
svg.acjk path[clip-path] {
    --t:0.8s;
    animation:zk var(--t) linear forwards var(--d);
    stroke-dasharray:3337;
    stroke-dashoffset:3339;
    stroke-width:128;
    stroke-linecap:round;
    fill:none;
}
/* Low opacity for background improves visual overlap at intersections */
svg.acjk .bg { fill:#ccc; opacity: 0.5; } 
]]>
</style>
<defs>
    <clipPath id="z30433c1"><path d="M 682 354 C 688 327 694 304 703 287 C 718 256 718 256 725 240 C 732 224 742 214 752 206 C 764 194 765 180 754 169 C 744 159 720 146 683 129 C 670 123 656 124 642 130 C 607 142 576 154 546 161 C 507 170 507 170 488 174 C 447 183 405 185 364 190 C 333 192 347 209 370 217 C 410 230 449 213 489 207 C 525 201 525 201 543 198 C 568 193 593 185 620 183 C 668 178 661 218 656 251 C 651 276 651 276 649 289 C 645 307 639 326 634 346 C 631 362 679 370 682 354 Z"/></clipPath>
    <clipPath id="z30433c2"><path d="M 703 287 C 747 285 796 283 848 284 C 900 285 930 283 935 276 C 939 268 935 258 924 250 C 900 232 875 221 848 220 C 806 220 763 233 725 240 C 679 247 679 247 656 251 C 619 256 580 262 539 268 C 506 272 506 272 490 274 C 385 286 273 300 153 314 C 138 315 136 321 147 333 C 155 341 166 348 179 352 C 192 356 205 356 216 354 C 288 334 379 314 490 303 C 521 300 521 300 537 298 C 569 294 607 290 649 289 C 685 288 685 288 703 287 Z"/></clipPath>
    <clipPath id="z30433c3"><path d="M 530 405 C 574 398 628 394 691 386 C 718 382 704 366 682 354 C 668 346 650 343 634 346 C 632 346 599 357 533 369 C 503 374 503 374 488 377 C 448 384 410 389 375 393 C 361 394 358 400 367 412 C 371 418 377 422 384 425 C 390 427 398 426 407 425 C 428 420 455 415 487 411 C 516 407 516 407 530 405 Z"/></clipPath>
    <clipPath id="z30433c4"><path d="M 525 476 C 527 451 528 427 530 405 C 532 381 532 381 533 369 C 535 344 535 320 537 298 C 538 278 538 278 539 268 C 540 244 541 220 543 198 C 545 173 545 173 546 161 C 548 124 557 100 563 86 C 565 79 560 69 546 60 C 522 45 501 40 486 37 C 475 34 467 36 462 42 C 457 46 456 54 463 64 C 487 99 486 136 488 174 C 489 196 489 196 489 207 C 489 227 490 249 490 274 C 490 293 490 293 490 303 C 490 327 488 351 488 377 C 487 400 487 400 487 411 C 486 433 485 457 483 483 C 483 497 525 490 525 476 Z"/></clipPath>
    <clipPath id="z30433c5"><path d="M 483 483 C 427 492 378 492 337 497 C 318 499 316 505 330 517 C 350 533 369 539 388 536 C 507 514 617 499 717 491 C 723 490 731 489 736 481 C 738 474 729 467 716 459 C 701 449 681 443 655 448 C 612 456 569 468 525 476 C 497 481 497 481 483 483 Z"/></clipPath>
    <clipPath id="z30433c6"><path d="M 262 540 C 241 567 220 594 196 617 C 178 632 172 652 179 681 C 181 693 190 697 206 692 C 240 678 261 647 276 602 C 282 580 288 562 286 545 C 284 537 280 533 277 533 C 271 532 265 535 262 540 Z"/></clipPath>
    <clipPath id="z30433c7"><path d="M 377 584 C 396 616 411 638 426 646 C 432 649 439 648 444 643 C 449 637 451 629 451 622 C 449 601 429 581 392 559 C 385 555 379 553 374 554 C 371 554 369 556 369 563 C 368 568 372 575 377 584 Z"/></clipPath>
    <clipPath id="z30433c8"><path d="M 512 584 C 543 612 560 629 569 630 C 573 630 577 626 581 619 C 583 612 583 600 579 585 C 574 570 550 558 509 547 C 500 544 494 543 492 545 C 488 547 488 552 489 558 C 489 564 498 571 512 584 Z"/></clipPath>
    <clipPath id="z30433c9"><path d="M 694 572 C 720 590 747 611 776 636 C 784 643 794 647 806 646 C 812 645 818 640 821 632 C 824 621 820 606 814 587 C 808 571 794 556 767 546 C 710 524 675 518 664 525 C 660 526 659 533 661 542 C 662 549 674 558 694 572 Z"/></clipPath>
    <clipPath id="z30433c10"><path d="M 317 703 C 310 700 299 698 284 696 C 276 694 271 694 269 698 C 264 702 265 710 271 720 C 301 757 306 808 324 876 C 326 887 360 885 358 874 C 352 823 346 781 340 733 C 338 721 329 708 317 703 Z"/></clipPath>
    <clipPath id="z30433c11"><path d="M 699 841 C 705 821 711 801 717 783 C 724 758 739 737 757 719 C 770 705 766 691 749 679 C 731 666 715 655 699 646 C 688 639 663 648 619 656 C 502 675 427 688 317 703 C 305 705 328 735 340 733 C 368 726 392 720 416 717 C 425 716 425 716 430 715 C 455 711 489 705 532 699 C 557 695 557 695 570 693 C 643 681 676 667 668 732 C 664 758 655 797 642 848 C 639 867 695 860 699 841 Z"/></clipPath>
    <clipPath id="z30433c12"><path d="M 470 864 C 466 811 470 729 430 715 C 426 713 415 712 416 717 C 427 774 416 822 440 867 C 444 876 470 874 470 864 Z"/></clipPath>
    <clipPath id="z30433c13"><path d="M 556 857 C 597 720 627 731 570 693 C 559 686 527 687 532 699 C 554 756 539 768 529 859 C 527 868 554 866 556 857 Z"/></clipPath>
    <clipPath id="z30433c14"><path d="M 324 876 C 269 879 213 883 155 888 C 139 889 136 895 148 909 C 157 919 169 927 182 932 C 197 937 212 937 224 935 C 392 897 613 885 889 901 C 920 902 937 886 906 863 C 864 831 825 821 782 829 C 756 833 728 837 699 841 C 661 846 661 846 642 848 C 615 851 586 854 556 857 C 538 858 538 858 529 859 C 509 860 488 862 470 864 C 450 866 450 866 440 867 C 413 869 386 872 358 874 C 335 875 335 875 324 876 Z"/></clipPath>
</defs>
<g id="bg-layer">
    <path class="bg" d="M 682 354 C 688 327 694 304 703 287 C 718 256 718 256 725 240 C 732 224 742 214 752 206 C 764 194 765 180 754 169 C 744 159 720 146 683 129 C 670 123 656 124 642 130 C 607 142 576 154 546 161 C 507 170 507 170 488 174 C 447 183 405 185 364 190 C 333 192 347 209 370 217 C 410 230 449 213 489 207 C 525 201 525 201 543 198 C 568 193 593 185 620 183 C 668 178 661 218 656 251 C 651 276 651 276 649 289 C 645 307 639 326 634 346 C 631 362 679 370 682 354 Z"/>
    <path class="bg" d="M 703 287 C 747 285 796 283 848 284 C 900 285 930 283 935 276 C 939 268 935 258 924 250 C 900 232 875 221 848 220 C 806 220 763 233 725 240 C 679 247 679 247 656 251 C 619 256 580 262 539 268 C 506 272 506 272 490 274 C 385 286 273 300 153 314 C 138 315 136 321 147 333 C 155 341 166 348 179 352 C 192 356 205 356 216 354 C 288 334 379 314 490 303 C 521 300 521 300 537 298 C 569 294 607 290 649 289 C 685 288 685 288 703 287 Z"/>
    <path class="bg" d="M 530 405 C 574 398 628 394 691 386 C 718 382 704 366 682 354 C 668 346 650 343 634 346 C 632 346 599 357 533 369 C 503 374 503 374 488 377 C 448 384 410 389 375 393 C 361 394 358 400 367 412 C 371 418 377 422 384 425 C 390 427 398 426 407 425 C 428 420 455 415 487 411 C 516 407 516 407 530 405 Z"/>
    <path class="bg" d="M 525 476 C 527 451 528 427 530 405 C 532 381 532 381 533 369 C 535 344 535 320 537 298 C 538 278 538 278 539 268 C 540 244 541 220 543 198 C 545 173 545 173 546 161 C 548 124 557 100 563 86 C 565 79 560 69 546 60 C 522 45 501 40 486 37 C 475 34 467 36 462 42 C 457 46 456 54 463 64 C 487 99 486 136 488 174 C 489 196 489 196 489 207 C 489 227 490 249 490 274 C 490 293 490 293 490 303 C 490 327 488 351 488 377 C 487 400 487 400 487 411 C 486 433 485 457 483 483 C 483 497 525 490 525 476 Z"/>
    <path class="bg" d="M 483 483 C 427 492 378 492 337 497 C 318 499 316 505 330 517 C 350 533 369 539 388 536 C 507 514 617 499 717 491 C 723 490 731 489 736 481 C 738 474 729 467 716 459 C 701 449 681 443 655 448 C 612 456 569 468 525 476 C 497 481 497 481 483 483 Z"/>
    <path class="bg" d="M 262 540 C 241 567 220 594 196 617 C 178 632 172 652 179 681 C 181 693 190 697 206 692 C 240 678 261 647 276 602 C 282 580 288 562 286 545 C 284 537 280 533 277 533 C 271 532 265 535 262 540 Z"/>
    <path class="bg" d="M 377 584 C 396 616 411 638 426 646 C 432 649 439 648 444 643 C 449 637 451 629 451 622 C 449 601 429 581 392 559 C 385 555 379 553 374 554 C 371 554 369 556 369 563 C 368 568 372 575 377 584 Z"/>
    <path class="bg" d="M 512 584 C 543 612 560 629 569 630 C 573 630 577 626 581 619 C 583 612 583 600 579 585 C 574 570 550 558 509 547 C 500 544 494 543 492 545 C 488 547 488 552 489 558 C 489 564 498 571 512 584 Z"/>
    <path class="bg" d="M 694 572 C 720 590 747 611 776 636 C 784 643 794 647 806 646 C 812 645 818 640 821 632 C 824 621 820 606 814 587 C 808 571 794 556 767 546 C 710 524 675 518 664 525 C 660 526 659 533 661 542 C 662 549 674 558 694 572 Z"/>
    <path class="bg" d="M 317 703 C 310 700 299 698 284 696 C 276 694 271 694 269 698 C 264 702 265 710 271 720 C 301 757 306 808 324 876 C 326 887 360 885 358 874 C 352 823 346 781 340 733 C 338 721 329 708 317 703 Z"/>
    <path class="bg" d="M 699 841 C 705 821 711 801 717 783 C 724 758 739 737 757 719 C 770 705 766 691 749 679 C 731 666 715 655 699 646 C 688 639 663 648 619 656 C 502 675 427 688 317 703 C 305 705 328 735 340 733 C 368 726 392 720 416 717 C 425 716 425 716 430 715 C 455 711 489 705 532 699 C 557 695 557 695 570 693 C 643 681 676 667 668 732 C 664 758 655 797 642 848 C 639 867 695 860 699 841 Z"/>
    <path class="bg" d="M 470 864 C 466 811 470 729 430 715 C 426 713 415 712 416 717 C 427 774 416 822 440 867 C 444 876 470 874 470 864 Z"/>
    <path class="bg" d="M 556 857 C 597 720 627 731 570 693 C 559 686 527 687 532 699 C 554 756 539 768 529 859 C 527 868 554 866 556 857 Z"/>
    <path class="bg" d="M 324 876 C 269 879 213 883 155 888 C 139 889 136 895 148 909 C 157 919 169 927 182 932 C 197 937 212 937 224 935 C 392 897 613 885 889 901 C 920 902 937 886 906 863 C 864 831 825 821 782 829 C 756 833 728 837 699 841 C 661 846 661 846 642 848 C 615 851 586 854 556 857 C 538 858 538 858 529 859 C 509 860 488 862 470 864 C 450 866 450 866 440 867 C 413 869 386 872 358 874 C 335 875 335 875 324 876 Z"/>
</g>
<g id="anim-layer">
    <path style="--d:1s; stroke:#FF4444;" pathLength="3333" clip-path="url(#z30433c1)" d="M 355 198 L 666 158 L 710 200 L 648 358"/>
    <path style="--d:2s; stroke:#FF4444;" pathLength="3333" clip-path="url(#z30433c2)" d="M 148 322 L 200 332 L 826 252 L 933 265"/>
    <path style="--d:3s; stroke:#FF4444;" pathLength="3333" clip-path="url(#z30433c3)" d="M 370 401 L 697 372"/>
    <path style="--d:4s; stroke:#FF4444;" pathLength="3333" clip-path="url(#z30433c4)" d="M 465 43 L 522 93 L 495 488"/>
    <path style="--d:5s; stroke:#FF4444;" pathLength="3333" clip-path="url(#z30433c5)" d="M 329 505 L 731 478"/>
    <path style="--d:6s; stroke:#000;" pathLength="3333" clip-path="url(#z30433c6)" d="M 274 539 L 188 688"/>
    <path style="--d:7s; stroke:#000;" pathLength="3333" clip-path="url(#z30433c7)" d="M 377 561 L 439 642"/>
    <path style="--d:8s; stroke:#000;" pathLength="3333" clip-path="url(#z30433c8)" d="M 495 551 L 572 624"/>
    <path style="--d:9s; stroke:#000;" pathLength="3333" clip-path="url(#z30433c9)" d="M 666 535 L 767 584 L 810 641"/>
    <path style="--d:10s; stroke:#000;" pathLength="3333" clip-path="url(#z30433c10)" d="M 274 704 L 315 742 L 341 881"/>
    <path style="--d:11s; stroke:#000;" pathLength="3333" clip-path="url(#z30433c11)" d="M 318 707 L 680 668 L 716 713 L 657 857"/>
    <path style="--d:12s; stroke:#000;" pathLength="3333" clip-path="url(#z30433c12)" d="M 424 719 L 457 867"/>
    <path style="--d:13s; stroke:#000;" pathLength="3333" clip-path="url(#z30433c13)" d="M 537 694 L 572 738 L 540 861"/>
    <path style="--d:14s; stroke:#000;" pathLength="3333" clip-path="url(#z30433c14)" d="M 147 895 L 202 910 L 800 861 L 917 878"/>
</g>
</svg>