<svg id="z30446" class="acjk" viewBox="0 0 1024 1024" xmlns="http://www.w3.org/2000/svg">

<style>
<![CDATA[
@keyframes zk { to { stroke-dashoffset:0; } }
svg.acjk path[clip-path] {
    --t:0.8s;
    animation:zk var(--t) linear forwards var(--d);
    stroke-dasharray:3337;
    stroke-dashoffset:3339;
    stroke-width:128;
    stroke-linecap:round;
    fill:none;
}
/* Low opacity for background improves visual overlap at intersections */
svg.acjk .bg { fill:#ccc; opacity: 0.5; } 
]]>
</style>
<defs>
    <clipPath id="z30446c1"><path d="M 329 186 C 320 179 310 172 302 169 C 291 165 283 161 273 168 C 257 177 274 193 281 215 C 294 255 305 388 291 613 C 289 645 280 679 271 716 C 260 757 267 795 295 830 C 302 839 311 840 320 831 C 330 818 334 809 339 785 C 341 772 343 760 343 748 C 342 694 343 677 343 564 C 343 542 343 542 343 531 C 343 521 345 422 345 407 C 345 386 345 386 345 375 C 345 350 346 251 352 223 C 355 209 341 195 329 186 Z"/></clipPath>
    <clipPath id="z30446c2"><path d="M 637 771 C 647 801 651 825 669 857 C 691 896 713 874 728 837 C 739 806 741 772 739 739 C 730 625 723 466 717 263 C 716 236 722 217 735 201 C 742 191 740 181 735 175 C 719 159 691 143 653 125 C 637 118 626 119 614 125 C 534 158 439 177 329 186 C 314 186 338 225 352 223 C 378 221 436 209 586 183 C 608 179 626 180 636 190 C 663 217 673 383 660 693 C 659 713 657 738 643 747 C 637 752 634 763 637 771 Z"/></clipPath>
    <clipPath id="z30446c3"><path d="M 345 407 C 361 411 423 406 539 389 C 552 386 577 381 586 378 C 611 367 567 346 558 344 C 538 338 521 341 503 347 C 450 363 395 369 345 375 C 334 377 335 405 345 407 Z"/></clipPath>
    <clipPath id="z30446c4"><path d="M 343 564 C 359 569 434 565 540 552 C 560 549 579 546 589 542 C 612 530 573 510 562 507 C 542 501 525 503 507 508 C 451 522 396 529 343 531 C 332 531 332 562 343 564 Z"/></clipPath>
    <clipPath id="z30446c5"><path d="M 339 785 C 350 795 361 781 637 771 C 645 771 649 753 643 747 C 634 738 629 733 612 722 C 601 714 584 713 562 717 C 483 731 408 742 343 748 C 331 750 329 778 339 785 Z"/></clipPath>
</defs>
<g id="bg-layer">
    <path class="bg" d="M 329 186 C 320 179 310 172 302 169 C 291 165 283 161 273 168 C 257 177 274 193 281 215 C 294 255 305 388 291 613 C 289 645 280 679 271 716 C 260 757 267 795 295 830 C 302 839 311 840 320 831 C 330 818 334 809 339 785 C 341 772 343 760 343 748 C 342 694 343 677 343 564 C 343 542 343 542 343 531 C 343 521 345 422 345 407 C 345 386 345 386 345 375 C 345 350 346 251 352 223 C 355 209 341 195 329 186 Z"/>
    <path class="bg" d="M 637 771 C 647 801 651 825 669 857 C 691 896 713 874 728 837 C 739 806 741 772 739 739 C 730 625 723 466 717 263 C 716 236 722 217 735 201 C 742 191 740 181 735 175 C 719 159 691 143 653 125 C 637 118 626 119 614 125 C 534 158 439 177 329 186 C 314 186 338 225 352 223 C 378 221 436 209 586 183 C 608 179 626 180 636 190 C 663 217 673 383 660 693 C 659 713 657 738 643 747 C 637 752 634 763 637 771 Z"/>
    <path class="bg" d="M 345 407 C 361 411 423 406 539 389 C 552 386 577 381 586 378 C 611 367 567 346 558 344 C 538 338 521 341 503 347 C 450 363 395 369 345 375 C 334 377 335 405 345 407 Z"/>
    <path class="bg" d="M 343 564 C 359 569 434 565 540 552 C 560 549 579 546 589 542 C 612 530 573 510 562 507 C 542 501 525 503 507 508 C 451 522 396 529 343 531 C 332 531 332 562 343 564 Z"/>
    <path class="bg" d="M 339 785 C 350 795 361 781 637 771 C 645 771 649 753 643 747 C 634 738 629 733 612 722 C 601 714 584 713 562 717 C 483 731 408 742 343 748 C 331 750 329 778 339 785 Z"/>
</g>
<g id="anim-layer">
    <path style="--d:1s; stroke:#FF4444;" pathLength="3333" clip-path="url(#z30446c1)" d="M 274 177 L 319 228 L 305 832"/>
    <path style="--d:2s; stroke:#FF4444;" pathLength="3333" clip-path="url(#z30446c2)" d="M 331 191 L 373 201 L 630 151 L 693 199 L 693 873"/>
    <path style="--d:3s; stroke:#000;" pathLength="3333" clip-path="url(#z30446c3)" d="M 341 394 L 589 365"/>
    <path style="--d:4s; stroke:#000;" pathLength="3333" clip-path="url(#z30446c4)" d="M 339 545 L 590 531"/>
    <path style="--d:5s; stroke:#000;" pathLength="3333" clip-path="url(#z30446c5)" d="M 334 770 L 642 752"/>
</g>
</svg>