<svg id="z30490" class="acjk" viewBox="0 0 1024 1024" xmlns="http://www.w3.org/2000/svg">

<style>
<![CDATA[
@keyframes zk { to { stroke-dashoffset:0; } }
svg.acjk path[clip-path] {
    --t:0.8s;
    animation:zk var(--t) linear forwards var(--d);
    stroke-dasharray:3337;
    stroke-dashoffset:3339;
    stroke-width:128;
    stroke-linecap:round;
    fill:none;
}
/* Low opacity for background improves visual overlap at intersections */
svg.acjk .bg { fill:#ccc; opacity: 0.5; } 
]]>
</style>
<defs>
    <clipPath id="z30490c1"><path d="M 363 210 Q 382 182 400 161 Q 410 149 397 134 Q 357 101 334 103 Q 324 104 324 119 Q 333 200 238 303 Q 232 306 197 345 Q 190 358 204 355 Q 220 354 242 338 Q 311 290 351 228 C 351 227 351 227 351 227 C 359 216 359 216 363 210 Z"/></clipPath>
    <clipPath id="z30490c2"><path d="M 552 229 Q 604 219 661 211 Q 710 201 718 195 Q 727 188 722 180 Q 716 167 688 160 Q 660 153 630 163 Q 593 173 555 184 C 515 192 515 192 495 196 Q 434 205 367 209 Q 363 209 363 210 C 356 211 346 223 351 227 Q 384 260 452 244 Q 471 240 496 238 C 533 232 533 232 552 229 Z"/></clipPath>
    <clipPath id="z30490c3"><path d="M 546 343 Q 612 336 679 327 Q 683 324 689 318 Q 690 308 671 299 Q 641 275 553 305 Q 550 305 548 306 C 514 313 514 313 497 316 Q 463 320 431 325 Q 397 326 360 332 Q 335 333 354 349 Q 376 364 417 365 Q 454 356 498 352 C 530 346 530 346 546 343 Z"/></clipPath>
    <clipPath id="z30490c4"><path d="M 542 426 Q 543 383 546 343 C 547 318 547 318 548 306 Q 551 231 552 229 C 554 199 554 199 555 184 Q 556 148 563 129 Q 573 110 561 99 Q 530 74 503 67 Q 490 64 477 74 Q 473 81 477 91 Q 493 115 494 183 Q 494 189 495 196 C 496 224 496 224 496 238 Q 496 275 497 316 C 498 340 498 340 498 352 Q 498 389 500 431 C 500 445 542 440 542 426 Z"/></clipPath>
    <clipPath id="z30490c5"><path d="M 500 431 Q 325 447 122 468 Q 100 469 116 489 Q 131 505 151 511 Q 173 518 192 513 Q 412 456 857 456 Q 882 456 907 457 Q 929 458 934 448 Q 941 435 923 420 Q 857 368 809 386 Q 706 402 542 426 C 514 429 514 429 500 431 Z"/></clipPath>
    <clipPath id="z30490c6"><path d="M 390 544 Q 378 532 357 523 Q 347 519 336 522 Q 329 526 334 539 Q 335 546 339 553 Q 360 599 339 779 Q 314 864 350 910 Q 360 923 371 912 Q 378 900 382 887 C 385 864 385 864 387 852 Q 388 839 389 820 Q 390 795 391 774 C 392 757 392 757 392 748 Q 393 708 396 678 C 397 660 397 660 397 651 Q 400 593 402 586 Q 403 580 403 576 C 403 564 399 551 390 544 Z"/></clipPath>
    <clipPath id="z30490c7"><path d="M 600 868 Q 627 904 647 939 Q 657 958 668 957 Q 686 956 702 921 Q 721 881 718 832 Q 711 756 704 615 Q 704 584 721 561 Q 731 548 721 538 Q 702 517 650 492 Q 631 482 616 491 Q 544 522 390 544 C 379 546 392 578 403 576 Q 436 573 592 542 Q 620 538 633 547 Q 660 568 642 828 Q 638 844 625 842 C 613 842 593 858 600 868 Z"/></clipPath>
    <clipPath id="z30490c8"><path d="M 396 678 Q 400 679 410 678 Q 500 665 566 656 Q 590 652 581 640 Q 571 625 545 620 Q 524 616 397 651 C 388 654 387 678 396 678 Z"/></clipPath>
    <clipPath id="z30490c9"><path d="M 391 774 Q 398 777 412 775 Q 506 763 576 757 Q 601 754 593 740 Q 583 724 556 718 Q 534 714 392 748 C 383 749 382 772 391 774 Z"/></clipPath>
    <clipPath id="z30490c10"><path d="M 382 887 Q 383 887 387 887 Q 456 874 600 868 C 612 868 634 851 625 842 Q 618 835 606 827 Q 597 821 580 822 Q 581 821 583 822 Q 573 821 559 824 Q 465 843 387 852 C 375 854 370 887 382 887 Z"/></clipPath>
</defs>
<g id="bg-layer">
    <path class="bg" d="M 363 210 Q 382 182 400 161 Q 410 149 397 134 Q 357 101 334 103 Q 324 104 324 119 Q 333 200 238 303 Q 232 306 197 345 Q 190 358 204 355 Q 220 354 242 338 Q 311 290 351 228 C 351 227 351 227 351 227 C 359 216 359 216 363 210 Z"/>
    <path class="bg" d="M 552 229 Q 604 219 661 211 Q 710 201 718 195 Q 727 188 722 180 Q 716 167 688 160 Q 660 153 630 163 Q 593 173 555 184 C 515 192 515 192 495 196 Q 434 205 367 209 Q 363 209 363 210 C 356 211 346 223 351 227 Q 384 260 452 244 Q 471 240 496 238 C 533 232 533 232 552 229 Z"/>
    <path class="bg" d="M 546 343 Q 612 336 679 327 Q 683 324 689 318 Q 690 308 671 299 Q 641 275 553 305 Q 550 305 548 306 C 514 313 514 313 497 316 Q 463 320 431 325 Q 397 326 360 332 Q 335 333 354 349 Q 376 364 417 365 Q 454 356 498 352 C 530 346 530 346 546 343 Z"/>
    <path class="bg" d="M 542 426 Q 543 383 546 343 C 547 318 547 318 548 306 Q 551 231 552 229 C 554 199 554 199 555 184 Q 556 148 563 129 Q 573 110 561 99 Q 530 74 503 67 Q 490 64 477 74 Q 473 81 477 91 Q 493 115 494 183 Q 494 189 495 196 C 496 224 496 224 496 238 Q 496 275 497 316 C 498 340 498 340 498 352 Q 498 389 500 431 C 500 445 542 440 542 426 Z"/>
    <path class="bg" d="M 500 431 Q 325 447 122 468 Q 100 469 116 489 Q 131 505 151 511 Q 173 518 192 513 Q 412 456 857 456 Q 882 456 907 457 Q 929 458 934 448 Q 941 435 923 420 Q 857 368 809 386 Q 706 402 542 426 C 514 429 514 429 500 431 Z"/>
    <path class="bg" d="M 390 544 Q 378 532 357 523 Q 347 519 336 522 Q 329 526 334 539 Q 335 546 339 553 Q 360 599 339 779 Q 314 864 350 910 Q 360 923 371 912 Q 378 900 382 887 C 385 864 385 864 387 852 Q 388 839 389 820 Q 390 795 391 774 C 392 757 392 757 392 748 Q 393 708 396 678 C 397 660 397 660 397 651 Q 400 593 402 586 Q 403 580 403 576 C 403 564 399 551 390 544 Z"/>
    <path class="bg" d="M 600 868 Q 627 904 647 939 Q 657 958 668 957 Q 686 956 702 921 Q 721 881 718 832 Q 711 756 704 615 Q 704 584 721 561 Q 731 548 721 538 Q 702 517 650 492 Q 631 482 616 491 Q 544 522 390 544 C 379 546 392 578 403 576 Q 436 573 592 542 Q 620 538 633 547 Q 660 568 642 828 Q 638 844 625 842 C 613 842 593 858 600 868 Z"/>
    <path class="bg" d="M 396 678 Q 400 679 410 678 Q 500 665 566 656 Q 590 652 581 640 Q 571 625 545 620 Q 524 616 397 651 C 388 654 387 678 396 678 Z"/>
    <path class="bg" d="M 391 774 Q 398 777 412 775 Q 506 763 576 757 Q 601 754 593 740 Q 583 724 556 718 Q 534 714 392 748 C 383 749 382 772 391 774 Z"/>
    <path class="bg" d="M 382 887 Q 383 887 387 887 Q 456 874 600 868 C 612 868 634 851 625 842 Q 618 835 606 827 Q 597 821 580 822 Q 581 821 583 822 Q 573 821 559 824 Q 465 843 387 852 C 375 854 370 887 382 887 Z"/>
</g>
<g id="anim-layer">
    <path style="--d:1s; stroke:#FF4444;" pathLength="3333" clip-path="url(#z30490c1)" d="M 333 112 L 361 161 L 289 273 L 203 348"/>
    <path style="--d:2s; stroke:#FF4444;" pathLength="3333" clip-path="url(#z30490c2)" d="M 353 221 L 719 183"/>
    <path style="--d:3s; stroke:#FF4444;" pathLength="3333" clip-path="url(#z30490c3)" d="M 353 338 L 681 315"/>
    <path style="--d:4s; stroke:#FF4444;" pathLength="3333" clip-path="url(#z30490c4)" d="M 481 77 L 529 121 L 513 436"/>
    <path style="--d:5s; stroke:#FF4444;" pathLength="3333" clip-path="url(#z30490c5)" d="M 118 478 L 185 488 L 833 418 L 932 439"/>
    <path style="--d:6s; stroke:#000;" pathLength="3333" clip-path="url(#z30490c6)" d="M 340 527 L 374 570 L 359 911"/>
    <path style="--d:7s; stroke:#000;" pathLength="3333" clip-path="url(#z30490c7)" d="M 390 553 L 623 515 L 674 542 L 679 845 L 655 904 L 603 868"/>
    <path style="--d:8s; stroke:#000;" pathLength="3333" clip-path="url(#z30490c8)" d="M 395 670 L 578 641"/>
    <path style="--d:9s; stroke:#000;" pathLength="3333" clip-path="url(#z30490c9)" d="M 386 761 L 587 738"/>
    <path style="--d:10s; stroke:#000;" pathLength="3333" clip-path="url(#z30490c10)" d="M 379 876 L 623 848"/>
</g>
</svg>