<svg id="z30522" class="acjk" viewBox="0 0 1024 1024" xmlns="http://www.w3.org/2000/svg">

<style>
<![CDATA[
@keyframes zk { to { stroke-dashoffset:0; } }
svg.acjk path[clip-path] {
    --t:0.8s;
    animation:zk var(--t) linear forwards var(--d);
    stroke-dasharray:3337;
    stroke-dashoffset:3339;
    stroke-width:128;
    stroke-linecap:round;
    fill:none;
}
/* Low opacity for background improves visual overlap at intersections */
svg.acjk .bg { fill:#ccc; opacity: 0.5; } 
]]>
</style>
<defs>
    <clipPath id="z30522c1"><path d="M 156 240 C 148 232 136 225 121 220 C 114 217 107 216 100 219 C 94 220 96 226 99 236 C 113 289 119 320 120 328 C 120 328 119 330 120 334 C 130 471 122 585 100 676 C 90 712 99 745 122 775 C 128 783 135 783 143 775 C 151 764 153 751 155 738 C 156 727 157 717 158 707 C 159 655 159 613 160 570 C 160 546 160 546 160 534 C 160 493 163 458 163 429 C 163 406 163 406 163 395 C 163 352 164 278 169 266 C 171 256 164 246 156 240 Z"/></clipPath>
    <clipPath id="z30522c2"><path d="M 343 603 C 335 504 336 280 352 254 C 358 242 359 232 354 226 C 349 219 330 211 298 201 C 281 195 268 195 257 202 C 220 220 186 232 156 240 C 146 242 159 268 169 266 C 191 260 215 254 239 246 C 292 226 291 287 292 317 C 293 459 290 572 284 656 C 283 669 281 695 274 704 C 270 711 258 717 262 724 C 270 740 275 753 286 767 C 311 799 321 785 337 750 C 347 724 349 684 345 630 C 344 612 344 612 343 603 Z"/></clipPath>
    <clipPath id="z30522c3"><path d="M 163 429 Q 208 420 242 414 Q 264 407 254 395 Q 241 382 216 381 Q 194 381 163 395 C 152 399 152 431 163 429 Z"/></clipPath>
    <clipPath id="z30522c4"><path d="M 160 570 Q 205 563 241 557 Q 263 551 254 540 Q 242 527 216 524 Q 194 523 160 534 C 149 538 148 572 160 570 Z"/></clipPath>
    <clipPath id="z30522c5"><path d="M 155 738 C 193 731 232 726 262 724 C 270 724 279 709 274 704 C 245 676 184 696 158 707 C 148 711 145 740 155 738 Z"/></clipPath>
    <clipPath id="z30522c6"><path d="M 506 541 C 496 639 462 718 411 777 C 390 800 363 823 334 849 C 327 854 323 859 324 862 C 324 864 328 863 336 864 C 345 864 360 860 384 849 C 460 811 512 736 536 620 C 548 556 556 445 561 287 C 561 271 564 250 574 227 C 577 217 577 209 569 203 C 554 191 534 183 509 178 C 493 174 482 175 477 180 C 472 184 472 191 477 199 C 505 245 523 367 509 511 C 507 531 507 531 506 541 Z"/></clipPath>
    <clipPath id="z30522c7"><path d="M 398 409 C 410 418 422 430 436 443 C 444 450 453 453 463 453 C 469 452 474 448 477 440 C 479 431 478 417 471 399 C 465 384 438 373 392 365 C 381 363 375 362 372 365 C 369 367 367 373 369 381 C 370 388 381 396 398 409 Z"/></clipPath>
    <clipPath id="z30522c8"><path d="M 509 511 C 417 567 361 597 343 603 C 334 606 336 629 345 630 C 383 638 396 645 407 643 C 417 640 476 568 506 541 C 513 534 517 505 509 511 Z"/></clipPath>
    <clipPath id="z30522c9"><path d="M 672 492 C 672 471 673 451 674 431 C 675 415 675 415 675 407 C 681 260 697 177 712 153 C 719 139 714 128 702 118 C 683 102 663 90 639 85 C 626 82 617 83 612 90 C 607 95 605 102 611 108 C 620 117 629 126 632 141 C 635 158 636 221 632 329 C 623 543 625 681 641 744 C 647 771 661 794 685 812 C 726 842 794 852 886 840 C 890 839 894 837 900 836 C 924 829 941 820 952 811 C 962 801 961 789 955 770 C 944 738 940 701 940 660 C 939 653 939 646 934 641 C 928 635 924 641 919 656 C 913 671 903 690 894 717 C 879 753 863 775 845 781 C 799 794 758 791 724 777 C 708 770 694 756 686 733 C 675 702 668 575 671 518 C 672 501 672 501 672 492 Z"/></clipPath>
    <clipPath id="z30522c10"><path d="M 674 431 C 735 398 805 339 842 322 C 855 315 860 305 853 295 C 845 283 831 274 814 264 C 799 255 787 251 779 253 C 770 253 770 257 770 267 C 766 332 697 383 675 407 C 669 413 667 435 674 431 Z"/></clipPath>
    <clipPath id="z30522c11"><path d="M 671 518 C 709 548 754 585 802 631 C 812 641 822 648 831 650 C 835 650 840 648 845 642 C 851 633 849 616 841 592 C 830 563 774 530 672 492 C 664 489 664 513 671 518 Z"/></clipPath>
</defs>
<g id="bg-layer">
    <path class="bg" d="M 156 240 C 148 232 136 225 121 220 C 114 217 107 216 100 219 C 94 220 96 226 99 236 C 113 289 119 320 120 328 C 120 328 119 330 120 334 C 130 471 122 585 100 676 C 90 712 99 745 122 775 C 128 783 135 783 143 775 C 151 764 153 751 155 738 C 156 727 157 717 158 707 C 159 655 159 613 160 570 C 160 546 160 546 160 534 C 160 493 163 458 163 429 C 163 406 163 406 163 395 C 163 352 164 278 169 266 C 171 256 164 246 156 240 Z"/>
    <path class="bg" d="M 343 603 C 335 504 336 280 352 254 C 358 242 359 232 354 226 C 349 219 330 211 298 201 C 281 195 268 195 257 202 C 220 220 186 232 156 240 C 146 242 159 268 169 266 C 191 260 215 254 239 246 C 292 226 291 287 292 317 C 293 459 290 572 284 656 C 283 669 281 695 274 704 C 270 711 258 717 262 724 C 270 740 275 753 286 767 C 311 799 321 785 337 750 C 347 724 349 684 345 630 C 344 612 344 612 343 603 Z"/>
    <path class="bg" d="M 163 429 Q 208 420 242 414 Q 264 407 254 395 Q 241 382 216 381 Q 194 381 163 395 C 152 399 152 431 163 429 Z"/>
    <path class="bg" d="M 160 570 Q 205 563 241 557 Q 263 551 254 540 Q 242 527 216 524 Q 194 523 160 534 C 149 538 148 572 160 570 Z"/>
    <path class="bg" d="M 155 738 C 193 731 232 726 262 724 C 270 724 279 709 274 704 C 245 676 184 696 158 707 C 148 711 145 740 155 738 Z"/>
    <path class="bg" d="M 506 541 C 496 639 462 718 411 777 C 390 800 363 823 334 849 C 327 854 323 859 324 862 C 324 864 328 863 336 864 C 345 864 360 860 384 849 C 460 811 512 736 536 620 C 548 556 556 445 561 287 C 561 271 564 250 574 227 C 577 217 577 209 569 203 C 554 191 534 183 509 178 C 493 174 482 175 477 180 C 472 184 472 191 477 199 C 505 245 523 367 509 511 C 507 531 507 531 506 541 Z"/>
    <path class="bg" d="M 398 409 C 410 418 422 430 436 443 C 444 450 453 453 463 453 C 469 452 474 448 477 440 C 479 431 478 417 471 399 C 465 384 438 373 392 365 C 381 363 375 362 372 365 C 369 367 367 373 369 381 C 370 388 381 396 398 409 Z"/>
    <path class="bg" d="M 509 511 C 417 567 361 597 343 603 C 334 606 336 629 345 630 C 383 638 396 645 407 643 C 417 640 476 568 506 541 C 513 534 517 505 509 511 Z"/>
    <path class="bg" d="M 672 492 C 672 471 673 451 674 431 C 675 415 675 415 675 407 C 681 260 697 177 712 153 C 719 139 714 128 702 118 C 683 102 663 90 639 85 C 626 82 617 83 612 90 C 607 95 605 102 611 108 C 620 117 629 126 632 141 C 635 158 636 221 632 329 C 623 543 625 681 641 744 C 647 771 661 794 685 812 C 726 842 794 852 886 840 C 890 839 894 837 900 836 C 924 829 941 820 952 811 C 962 801 961 789 955 770 C 944 738 940 701 940 660 C 939 653 939 646 934 641 C 928 635 924 641 919 656 C 913 671 903 690 894 717 C 879 753 863 775 845 781 C 799 794 758 791 724 777 C 708 770 694 756 686 733 C 675 702 668 575 671 518 C 672 501 672 501 672 492 Z"/>
    <path class="bg" d="M 674 431 C 735 398 805 339 842 322 C 855 315 860 305 853 295 C 845 283 831 274 814 264 C 799 255 787 251 779 253 C 770 253 770 257 770 267 C 766 332 697 383 675 407 C 669 413 667 435 674 431 Z"/>
    <path class="bg" d="M 671 518 C 709 548 754 585 802 631 C 812 641 822 648 831 650 C 835 650 840 648 845 642 C 851 633 849 616 841 592 C 830 563 774 530 672 492 C 664 489 664 513 671 518 Z"/>
</g>
<g id="anim-layer">
    <path style="--d:1s; stroke:#FF4444;" pathLength="3333" clip-path="url(#z30522c1)" d="M 103 222 L 140 287 L 128 777"/>
    <path style="--d:2s; stroke:#FF4444;" pathLength="3333" clip-path="url(#z30522c2)" d="M 156 248 L 273 220 L 321 249 L 299 779"/>
    <path style="--d:3s; stroke:#FF4444;" pathLength="3333" clip-path="url(#z30522c3)" d="M 160 418 L 251 402"/>
    <path style="--d:4s; stroke:#FF4444;" pathLength="3333" clip-path="url(#z30522c4)" d="M 155 560 L 252 542"/>
    <path style="--d:5s; stroke:#FF4444;" pathLength="3333" clip-path="url(#z30522c5)" d="M 154 729 L 271 712"/>
    <path style="--d:6s; stroke:#000;" pathLength="3333" clip-path="url(#z30522c6)" d="M 481 186 L 535 228 L 515 617 L 448 767 L 330 857"/>
    <path style="--d:7s; stroke:#000;" pathLength="3333" clip-path="url(#z30522c7)" d="M 373 373 L 473 442"/>
    <path style="--d:8s; stroke:#000;" pathLength="3333" clip-path="url(#z30522c8)" d="M 343 618 L 397 612 L 507 517"/>
    <path style="--d:9s; stroke:#000;" pathLength="3333" clip-path="url(#z30522c9)" d="M 611 96 L 674 147 L 648 522 L 671 760 L 754 813 L 871 808 L 918 776 L 931 648"/>
    <path style="--d:10s; stroke:#000;" pathLength="3333" clip-path="url(#z30522c10)" d="M 777 261 L 806 310 L 675 424"/>
    <path style="--d:11s; stroke:#000;" pathLength="3333" clip-path="url(#z30522c11)" d="M 672 498 L 799 587 L 839 642"/>
</g>
</svg>