<svg id="z30743" class="acjk" viewBox="0 0 1024 1024" xmlns="http://www.w3.org/2000/svg">

<style>
<![CDATA[
@keyframes zk { to { stroke-dashoffset:0; } }
svg.acjk path[clip-path] {
    --t:0.8s;
    animation:zk var(--t) linear forwards var(--d);
    stroke-dasharray:3337;
    stroke-dashoffset:3339;
    stroke-width:128;
    stroke-linecap:round;
    fill:none;
}
/* Low opacity for background improves visual overlap at intersections */
svg.acjk .bg { fill:#ccc; opacity: 0.5; } 
]]>
</style>
<defs>
    <clipPath id="z30743c1"><path d="M 309 279 C 403 255 450 242 452 241 C 458 235 459 229 456 224 C 451 216 438 210 418 206 C 397 202 377 205 356 214 C 331 223 305 232 277 240 C 246 247 212 252 177 258 C 152 262 148 272 167 282 C 196 296 229 299 262 291 C 293 283 293 283 309 279 Z"/></clipPath>
    <clipPath id="z30743c2"><path d="M 262 470 C 281 435 302 393 326 343 C 336 321 342 308 342 306 C 338 293 326 285 309 279 C 294 273 259 275 262 291 C 270 327 246 417 214 473 C 195 506 195 506 185 522 C 157 568 109 624 48 693 C 43 697 44 701 51 700 C 81 695 155 632 198 570 C 227 527 227 527 242 506 C 249 495 262 470 262 470 Z"/></clipPath>
    <clipPath id="z30743c3"><path d="M 214 473 C 207 470 199 467 189 465 C 180 462 175 465 173 468 C 168 472 168 479 174 490 C 178 498 181 509 185 522 C 194 554 194 554 198 570 C 205 595 210 625 214 659 C 216 679 220 697 232 712 C 242 726 250 729 255 719 C 260 706 262 687 259 663 C 256 639 256 639 254 627 C 245 564 242 524 242 506 C 242 492 227 478 214 473 Z"/></clipPath>
    <clipPath id="z30743c4"><path d="M 392 606 C 404 551 420 517 436 501 C 451 485 450 471 435 462 C 396 438 373 427 365 429 C 360 430 356 431 352 434 C 334 446 299 461 262 470 C 246 473 231 475 214 473 C 200 471 228 511 242 506 C 255 502 277 496 337 484 C 349 481 356 483 360 488 C 363 492 364 505 360 527 C 355 549 349 574 343 602 C 340 618 389 622 392 606 Z"/></clipPath>
    <clipPath id="z30743c5"><path d="M 259 663 C 258 662 258 662 260 662 C 290 654 339 646 405 639 C 411 638 416 634 417 628 C 417 623 408 616 392 606 C 378 598 358 596 343 602 C 322 610 280 619 254 627 C 243 631 249 670 259 663 Z"/></clipPath>
    <clipPath id="z30743c6"><path d="M 632 284 C 779 254 856 239 862 235 C 868 229 870 223 867 217 C 862 208 849 201 828 196 C 807 191 785 193 763 201 C 727 212 690 226 652 233 C 617 239 617 239 599 242 C 568 247 536 248 503 252 C 476 255 472 264 492 277 C 515 292 546 301 582 294 C 615 287 615 287 632 284 Z"/></clipPath>
    <clipPath id="z30743c7"><path d="M 710 508 C 750 501 785 499 813 497 C 841 494 856 489 857 482 C 858 472 848 460 828 449 C 806 436 768 445 711 459 C 680 466 680 466 664 470 C 604 483 557 488 555 483 C 554 480 556 473 561 463 C 579 420 602 360 632 284 C 645 250 645 250 652 233 C 671 184 683 149 703 133 C 715 122 718 113 710 106 C 672 71 644 57 628 60 C 621 61 620 68 625 83 C 633 109 625 162 599 242 C 588 277 588 277 582 294 C 551 386 521 447 487 477 C 471 490 468 511 481 545 C 485 555 493 558 505 554 C 549 536 602 524 665 515 C 695 510 695 510 710 508 Z"/></clipPath>
    <clipPath id="z30743c8"><path d="M 663 649 C 596 660 523 668 445 680 C 430 682 428 689 440 701 C 449 711 461 717 474 721 C 488 724 501 724 514 721 C 559 707 609 702 661 695 C 694 690 694 690 711 688 C 764 680 840 679 937 680 C 951 680 960 677 964 671 C 968 662 964 652 952 643 C 912 614 869 608 822 619 C 790 626 752 633 710 641 C 679 646 679 646 663 649 Z"/></clipPath>
    <clipPath id="z30743c9"><path d="M 711 459 C 711 436 713 417 716 404 C 717 395 716 390 711 386 C 694 372 681 360 668 356 C 659 352 652 355 646 360 C 642 362 643 366 648 374 C 655 385 662 417 664 470 C 665 500 665 500 665 515 C 666 559 665 603 663 649 C 662 680 662 680 661 695 C 657 781 649 831 646 846 C 639 871 649 901 672 935 C 680 947 686 956 692 958 C 699 959 705 954 709 946 C 717 924 718 903 717 883 C 712 814 712 749 711 688 C 709 623 710 656 710 641 C 709 596 709 552 710 508 C 710 491 711 459 711 459 Z"/></clipPath>
</defs>
<g id="bg-layer">
    <path class="bg" d="M 309 279 C 403 255 450 242 452 241 C 458 235 459 229 456 224 C 451 216 438 210 418 206 C 397 202 377 205 356 214 C 331 223 305 232 277 240 C 246 247 212 252 177 258 C 152 262 148 272 167 282 C 196 296 229 299 262 291 C 293 283 293 283 309 279 Z"/>
    <path class="bg" d="M 262 470 C 281 435 302 393 326 343 C 336 321 342 308 342 306 C 338 293 326 285 309 279 C 294 273 259 275 262 291 C 270 327 246 417 214 473 C 195 506 195 506 185 522 C 157 568 109 624 48 693 C 43 697 44 701 51 700 C 81 695 155 632 198 570 C 227 527 227 527 242 506 C 249 495 262 470 262 470 Z"/>
    <path class="bg" d="M 214 473 C 207 470 199 467 189 465 C 180 462 175 465 173 468 C 168 472 168 479 174 490 C 178 498 181 509 185 522 C 194 554 194 554 198 570 C 205 595 210 625 214 659 C 216 679 220 697 232 712 C 242 726 250 729 255 719 C 260 706 262 687 259 663 C 256 639 256 639 254 627 C 245 564 242 524 242 506 C 242 492 227 478 214 473 Z"/>
    <path class="bg" d="M 392 606 C 404 551 420 517 436 501 C 451 485 450 471 435 462 C 396 438 373 427 365 429 C 360 430 356 431 352 434 C 334 446 299 461 262 470 C 246 473 231 475 214 473 C 200 471 228 511 242 506 C 255 502 277 496 337 484 C 349 481 356 483 360 488 C 363 492 364 505 360 527 C 355 549 349 574 343 602 C 340 618 389 622 392 606 Z"/>
    <path class="bg" d="M 259 663 C 258 662 258 662 260 662 C 290 654 339 646 405 639 C 411 638 416 634 417 628 C 417 623 408 616 392 606 C 378 598 358 596 343 602 C 322 610 280 619 254 627 C 243 631 249 670 259 663 Z"/>
    <path class="bg" d="M 632 284 C 779 254 856 239 862 235 C 868 229 870 223 867 217 C 862 208 849 201 828 196 C 807 191 785 193 763 201 C 727 212 690 226 652 233 C 617 239 617 239 599 242 C 568 247 536 248 503 252 C 476 255 472 264 492 277 C 515 292 546 301 582 294 C 615 287 615 287 632 284 Z"/>
    <path class="bg" d="M 710 508 C 750 501 785 499 813 497 C 841 494 856 489 857 482 C 858 472 848 460 828 449 C 806 436 768 445 711 459 C 680 466 680 466 664 470 C 604 483 557 488 555 483 C 554 480 556 473 561 463 C 579 420 602 360 632 284 C 645 250 645 250 652 233 C 671 184 683 149 703 133 C 715 122 718 113 710 106 C 672 71 644 57 628 60 C 621 61 620 68 625 83 C 633 109 625 162 599 242 C 588 277 588 277 582 294 C 551 386 521 447 487 477 C 471 490 468 511 481 545 C 485 555 493 558 505 554 C 549 536 602 524 665 515 C 695 510 695 510 710 508 Z"/>
    <path class="bg" d="M 663 649 C 596 660 523 668 445 680 C 430 682 428 689 440 701 C 449 711 461 717 474 721 C 488 724 501 724 514 721 C 559 707 609 702 661 695 C 694 690 694 690 711 688 C 764 680 840 679 937 680 C 951 680 960 677 964 671 C 968 662 964 652 952 643 C 912 614 869 608 822 619 C 790 626 752 633 710 641 C 679 646 679 646 663 649 Z"/>
    <path class="bg" d="M 711 459 C 711 436 713 417 716 404 C 717 395 716 390 711 386 C 694 372 681 360 668 356 C 659 352 652 355 646 360 C 642 362 643 366 648 374 C 655 385 662 417 664 470 C 665 500 665 500 665 515 C 666 559 665 603 663 649 C 662 680 662 680 661 695 C 657 781 649 831 646 846 C 639 871 649 901 672 935 C 680 947 686 956 692 958 C 699 959 705 954 709 946 C 717 924 718 903 717 883 C 712 814 712 749 711 688 C 709 623 710 656 710 641 C 709 596 709 552 710 508 C 710 491 711 459 711 459 Z"/>
</g>
<g id="anim-layer">
    <path style="--d:1s; stroke:#FF4444;" pathLength="3333" clip-path="url(#z30743c1)" d="M 162 267 L 236 271 L 450 223"/>
    <path style="--d:2s; stroke:#FF4444;" pathLength="3333" clip-path="url(#z30743c2)" d="M 268 297 L 301 325 L 239 469 L 155 592 L 55 693"/>
    <path style="--d:3s; stroke:#FF4444;" pathLength="3333" clip-path="url(#z30743c3)" d="M 178 474 L 215 524 L 247 718"/>
    <path style="--d:4s; stroke:#FF4444;" pathLength="3333" clip-path="url(#z30743c4)" d="M 221 480 L 265 485 L 355 457 L 389 470 L 404 491 L 358 602"/>
    <path style="--d:5s; stroke:#FF4444;" pathLength="3333" clip-path="url(#z30743c5)" d="M 266 655 L 332 626 L 409 628"/>
    <path style="--d:6s; stroke:#000;" pathLength="3333" clip-path="url(#z30743c6)" d="M 491 264 L 563 271 L 862 225"/>
    <path style="--d:7s; stroke:#000;" pathLength="3333" clip-path="url(#z30743c7)" d="M 630 65 L 668 132 L 520 515 L 788 470 L 851 479"/>
    <path style="--d:8s; stroke:#000;" pathLength="3333" clip-path="url(#z30743c8)" d="M 441 688 L 498 698 L 849 647 L 961 661"/>
    <path style="--d:9s; stroke:#000;" pathLength="3333" clip-path="url(#z30743c9)" d="M 652 362 L 687 410 L 685 950"/>
</g>
</svg>