<svg id="z30874" class="acjk" viewBox="0 0 1024 1024" xmlns="http://www.w3.org/2000/svg">

<style>
<![CDATA[
@keyframes zk { to { stroke-dashoffset:0; } }
svg.acjk path[clip-path] {
    --t:0.8s;
    animation:zk var(--t) linear forwards var(--d);
    stroke-dasharray:3337;
    stroke-dashoffset:3339;
    stroke-width:128;
    stroke-linecap:round;
    fill:none;
}
/* Low opacity for background improves visual overlap at intersections */
svg.acjk .bg { fill:#ccc; opacity: 0.5; } 
]]>
</style>
<defs>
    <clipPath id="z30874c1"><path d="M 253 311 C 355 281 410 266 417 261 C 428 250 423 233 382 227 C 361 223 341 229 321 238 C 242 271 192 278 139 289 C 114 293 111 303 130 313 C 152 325 180 332 212 323 C 239 315 239 315 253 311 Z"/></clipPath>
    <clipPath id="z30874c2"><path d="M 223 526 C 274 426 273 399 290 363 C 299 341 269 320 253 311 C 241 304 207 310 212 323 C 219 343 221 360 219 381 C 212 427 199 477 176 527 C 163 556 163 556 156 570 C 112 663 65 726 35 769 C 26 781 31 791 51 778 C 85 755 125 713 171 626 C 206 559 206 559 223 526 Z"/></clipPath>
    <clipPath id="z30874c3"><path d="M 176 527 C 157 523 133 512 146 545 C 149 552 152 561 156 570 C 162 588 167 607 171 626 C 176 657 183 681 187 716 C 189 736 194 753 206 769 C 216 782 222 785 226 775 C 230 763 232 746 230 726 C 228 715 227 704 226 694 C 217 639 207 581 207 561 C 207 546 191 530 176 527 Z"/></clipPath>
    <clipPath id="z30874c4"><path d="M 366 663 C 376 602 389 563 404 545 C 417 528 416 514 402 507 C 361 486 340 479 338 479 C 332 479 326 481 322 485 C 302 501 270 513 223 526 C 211 529 195 527 176 527 C 161 527 192 564 207 561 C 225 558 243 550 303 534 C 337 524 339 541 334 579 C 330 603 324 631 319 662 C 316 677 363 678 366 663 Z"/></clipPath>
    <clipPath id="z30874c5"><path d="M 230 726 C 243 726 263 714 383 695 C 413 687 384 667 366 663 C 351 658 334 659 319 662 C 308 664 279 678 226 694 C 216 698 219 726 230 726 Z"/></clipPath>
    <clipPath id="z30874c6"><path d="M 586 144 C 607 157 627 174 650 191 C 652 192 687 217 697 184 C 700 173 696 157 687 138 C 677 117 639 102 574 95 C 563 93 555 94 552 97 C 548 99 547 105 550 115 C 551 121 565 130 586 144 Z"/></clipPath>
    <clipPath id="z30874c7"><path d="M 738 298 C 761 293 811 283 823 273 C 845 251 799 238 790 237 C 774 233 726 249 644 270 C 578 286 532 290 509 294 C 484 298 480 308 499 318 C 562 351 596 326 703 305 C 726 300 726 300 738 298 Z"/></clipPath>
    <clipPath id="z30874c8"><path d="M 500 423 C 514 439 527 458 542 478 C 548 486 569 504 581 483 C 585 474 586 462 584 444 C 581 427 555 405 503 381 C 494 377 487 375 484 377 C 480 377 479 383 479 391 C 479 397 486 408 500 423 Z"/></clipPath>
    <clipPath id="z30874c9"><path d="M 689 510 C 711 470 740 402 776 357 C 783 347 785 341 781 334 C 774 324 760 312 738 298 C 728 292 701 293 703 305 C 711 347 700 379 656 517 C 652 527 684 520 689 510 Z"/></clipPath>
    <clipPath id="z30874c10"><path d="M 656 517 C 578 533 500 547 423 562 C 409 564 407 570 419 581 C 437 598 466 602 486 596 C 612 556 746 536 889 536 C 929 535 920 513 905 502 C 867 474 832 474 796 484 C 777 489 730 501 689 510 C 667 515 667 515 656 517 Z"/></clipPath>
    <clipPath id="z30874c11"><path d="M 520 677 C 456 657 456 668 467 691 C 487 732 501 788 512 857 C 515 877 520 894 532 908 C 544 922 551 925 555 915 C 557 907 559 897 559 886 C 558 873 557 861 556 849 C 548 787 537 731 535 709 C 533 697 532 679 520 677 Z"/></clipPath>
    <clipPath id="z30874c12"><path d="M 779 816 C 795 754 816 715 839 696 C 851 685 851 669 840 658 C 830 648 805 636 769 620 C 755 613 725 626 675 642 C 601 664 548 671 520 677 C 508 679 523 711 535 709 C 543 708 602 696 714 673 C 740 667 751 681 749 706 C 744 746 734 783 726 816 C 723 833 776 833 779 816 Z"/></clipPath>
    <clipPath id="z30874c13"><path d="M 559 886 C 586 886 600 872 799 856 C 806 855 832 850 780 816 C 779 816 779 816 779 816 C 763 809 743 813 726 816 C 663 830 606 841 556 849 C 544 851 547 886 559 886 Z"/></clipPath>
</defs>
<g id="bg-layer">
    <path class="bg" d="M 253 311 C 355 281 410 266 417 261 C 428 250 423 233 382 227 C 361 223 341 229 321 238 C 242 271 192 278 139 289 C 114 293 111 303 130 313 C 152 325 180 332 212 323 C 239 315 239 315 253 311 Z"/>
    <path class="bg" d="M 223 526 C 274 426 273 399 290 363 C 299 341 269 320 253 311 C 241 304 207 310 212 323 C 219 343 221 360 219 381 C 212 427 199 477 176 527 C 163 556 163 556 156 570 C 112 663 65 726 35 769 C 26 781 31 791 51 778 C 85 755 125 713 171 626 C 206 559 206 559 223 526 Z"/>
    <path class="bg" d="M 176 527 C 157 523 133 512 146 545 C 149 552 152 561 156 570 C 162 588 167 607 171 626 C 176 657 183 681 187 716 C 189 736 194 753 206 769 C 216 782 222 785 226 775 C 230 763 232 746 230 726 C 228 715 227 704 226 694 C 217 639 207 581 207 561 C 207 546 191 530 176 527 Z"/>
    <path class="bg" d="M 366 663 C 376 602 389 563 404 545 C 417 528 416 514 402 507 C 361 486 340 479 338 479 C 332 479 326 481 322 485 C 302 501 270 513 223 526 C 211 529 195 527 176 527 C 161 527 192 564 207 561 C 225 558 243 550 303 534 C 337 524 339 541 334 579 C 330 603 324 631 319 662 C 316 677 363 678 366 663 Z"/>
    <path class="bg" d="M 230 726 C 243 726 263 714 383 695 C 413 687 384 667 366 663 C 351 658 334 659 319 662 C 308 664 279 678 226 694 C 216 698 219 726 230 726 Z"/>
    <path class="bg" d="M 586 144 C 607 157 627 174 650 191 C 652 192 687 217 697 184 C 700 173 696 157 687 138 C 677 117 639 102 574 95 C 563 93 555 94 552 97 C 548 99 547 105 550 115 C 551 121 565 130 586 144 Z"/>
    <path class="bg" d="M 738 298 C 761 293 811 283 823 273 C 845 251 799 238 790 237 C 774 233 726 249 644 270 C 578 286 532 290 509 294 C 484 298 480 308 499 318 C 562 351 596 326 703 305 C 726 300 726 300 738 298 Z"/>
    <path class="bg" d="M 500 423 C 514 439 527 458 542 478 C 548 486 569 504 581 483 C 585 474 586 462 584 444 C 581 427 555 405 503 381 C 494 377 487 375 484 377 C 480 377 479 383 479 391 C 479 397 486 408 500 423 Z"/>
    <path class="bg" d="M 689 510 C 711 470 740 402 776 357 C 783 347 785 341 781 334 C 774 324 760 312 738 298 C 728 292 701 293 703 305 C 711 347 700 379 656 517 C 652 527 684 520 689 510 Z"/>
    <path class="bg" d="M 656 517 C 578 533 500 547 423 562 C 409 564 407 570 419 581 C 437 598 466 602 486 596 C 612 556 746 536 889 536 C 929 535 920 513 905 502 C 867 474 832 474 796 484 C 777 489 730 501 689 510 C 667 515 667 515 656 517 Z"/>
    <path class="bg" d="M 520 677 C 456 657 456 668 467 691 C 487 732 501 788 512 857 C 515 877 520 894 532 908 C 544 922 551 925 555 915 C 557 907 559 897 559 886 C 558 873 557 861 556 849 C 548 787 537 731 535 709 C 533 697 532 679 520 677 Z"/>
    <path class="bg" d="M 779 816 C 795 754 816 715 839 696 C 851 685 851 669 840 658 C 830 648 805 636 769 620 C 755 613 725 626 675 642 C 601 664 548 671 520 677 C 508 679 523 711 535 709 C 543 708 602 696 714 673 C 740 667 751 681 749 706 C 744 746 734 783 726 816 C 723 833 776 833 779 816 Z"/>
    <path class="bg" d="M 559 886 C 586 886 600 872 799 856 C 806 855 832 850 780 816 C 779 816 779 816 779 816 C 763 809 743 813 726 816 C 663 830 606 841 556 849 C 544 851 547 886 559 886 Z"/>
</g>
<g id="anim-layer">
    <path style="--d:1s; stroke:#FF4444;" pathLength="3333" clip-path="url(#z30874c1)" d="M 124 299 L 202 301 L 418 247"/>
    <path style="--d:2s; stroke:#FF4444;" pathLength="3333" clip-path="url(#z30874c2)" d="M 218 318 L 255 357 L 222 474 L 134 653 L 37 778"/>
    <path style="--d:3s; stroke:#FF4444;" pathLength="3333" clip-path="url(#z30874c3)" d="M 150 529 L 182 565 L 216 775"/>
    <path style="--d:4s; stroke:#FF4444;" pathLength="3333" clip-path="url(#z30874c4)" d="M 180 532 L 214 542 L 331 506 L 369 526 L 342 672"/>
    <path style="--d:5s; stroke:#FF4444;" pathLength="3333" clip-path="url(#z30874c5)" d="M 222 711 L 391 684"/>
    <path style="--d:6s; stroke:#000;" pathLength="3333" clip-path="url(#z30874c6)" d="M 552 106 L 691 188"/>
    <path style="--d:7s; stroke:#000;" pathLength="3333" clip-path="url(#z30874c7)" d="M 494 305 L 567 310 L 825 261"/>
    <path style="--d:8s; stroke:#000;" pathLength="3333" clip-path="url(#z30874c8)" d="M 485 384 L 574 487"/>
    <path style="--d:9s; stroke:#000;" pathLength="3333" clip-path="url(#z30874c9)" d="M 710 300 L 743 346 L 662 515"/>
    <path style="--d:10s; stroke:#000;" pathLength="3333" clip-path="url(#z30874c10)" d="M 418 570 L 818 508 L 912 521"/>
    <path style="--d:11s; stroke:#000;" pathLength="3333" clip-path="url(#z30874c11)" d="M 468 672 L 506 708 L 541 915"/>
    <path style="--d:12s; stroke:#000;" pathLength="3333" clip-path="url(#z30874c12)" d="M 522 687 L 736 646 L 779 661 L 798 686 L 737 825"/>
    <path style="--d:13s; stroke:#000;" pathLength="3333" clip-path="url(#z30874c13)" d="M 550 867 L 752 836 L 805 847"/>
</g>
</svg>