<svg id="z30921" class="acjk" viewBox="0 0 1024 1024" xmlns="http://www.w3.org/2000/svg">

<style>
<![CDATA[
@keyframes zk { to { stroke-dashoffset:0; } }
svg.acjk path[clip-path] {
    --t:0.8s;
    animation:zk var(--t) linear forwards var(--d);
    stroke-dasharray:3337;
    stroke-dashoffset:3339;
    stroke-width:128;
    stroke-linecap:round;
    fill:none;
}
/* Low opacity for background improves visual overlap at intersections */
svg.acjk .bg { fill:#ccc; opacity: 0.5; } 
]]>
</style>
<defs>
    <clipPath id="z30921c1"><path d="M 218 285 C 328 256 374 242 385 237 C 394 232 408 211 350 203 C 330 200 292 213 235 232 C 185 247 145 251 120 257 C 95 262 91 271 110 281 C 130 291 154 296 191 292 C 200 290 209 287 218 285 Z"/></clipPath>
    <clipPath id="z30921c2"><path d="M 206 460 C 223 423 239 394 258 345 C 268 317 278 301 218 285 C 209 283 188 283 191 292 C 215 342 172 431 157 467 C 151 480 145 493 138 506 C 113 549 81 591 39 646 C 35 650 36 653 42 652 C 64 647 112 608 151 553 C 170 524 190 491 206 460 Z"/></clipPath>
    <clipPath id="z30921c3"><path d="M 157 467 C 128 453 119 454 138 506 C 143 521 146 537 151 553 C 157 577 161 605 165 637 C 166 655 171 671 182 685 C 192 698 198 701 202 692 C 206 679 207 660 205 636 C 202 617 202 613 201 602 C 194 545 190 510 190 496 C 190 481 171 472 157 467 Z"/></clipPath>
    <clipPath id="z30921c4"><path d="M 332 580 C 342 534 355 504 368 489 C 381 472 380 459 366 452 C 353 445 339 433 322 424 C 308 416 284 431 265 440 C 245 448 222 455 206 460 C 190 463 170 466 157 467 C 143 469 176 501 190 496 C 198 493 224 487 269 476 C 299 468 302 482 296 516 C 292 534 288 555 284 579 C 281 595 329 596 332 580 Z"/></clipPath>
    <clipPath id="z30921c5"><path d="M 205 636 C 215 635 232 629 349 615 C 361 613 374 602 332 580 C 318 572 300 576 284 579 C 283 579 283 579 283 579 C 252 589 225 596 201 602 C 190 604 194 638 205 636 Z"/></clipPath>
    <clipPath id="z30921c6"><path d="M 670 202 C 683 189 697 172 712 153 C 722 139 733 126 749 120 C 757 116 761 113 762 108 C 762 101 755 93 741 83 C 723 69 711 61 704 61 C 697 60 692 63 685 66 C 609 90 554 103 521 106 C 500 107 489 109 488 114 C 487 116 489 118 493 121 C 501 127 513 132 531 134 C 559 135 599 121 654 107 C 675 101 679 108 659 141 C 649 157 638 173 623 187 C 612 197 602 208 590 217 C 547 246 520 258 478 273 C 451 283 450 291 480 290 C 517 289 582 274 631 238 C 645 227 657 214 670 202 Z"/></clipPath>
    <clipPath id="z30921c7"><path d="M 631 238 C 650 247 671 256 693 270 C 703 276 711 279 719 279 C 723 278 726 275 728 270 C 734 237 704 216 670 202 C 657 197 638 191 623 187 C 592 178 560 171 521 163 C 498 159 494 174 514 182 C 543 193 563 203 590 217 C 603 224 617 231 631 238 Z"/></clipPath>
    <clipPath id="z30921c8"><path d="M 531 439 C 578 389 601 353 615 343 C 623 337 624 332 622 327 C 620 322 604 314 573 301 C 562 296 553 297 543 304 C 532 310 518 316 501 322 C 472 330 444 337 418 341 C 408 342 405 346 414 354 C 425 364 459 361 513 347 C 527 343 539 345 525 370 C 515 386 506 404 493 422 C 479 441 479 441 472 450 C 447 482 414 505 384 532 C 376 538 377 542 385 542 C 413 538 454 517 499 472 C 520 450 520 450 531 439 Z"/></clipPath>
    <clipPath id="z30921c9"><path d="M 499 472 C 529 496 540 503 553 507 C 573 513 573 495 567 478 C 559 457 550 450 531 439 C 519 431 505 427 493 422 C 457 405 433 397 421 397 C 416 397 415 399 417 404 C 417 405 435 420 472 450 C 490 465 490 465 499 472 Z"/></clipPath>
    <clipPath id="z30921c10"><path d="M 776 409 C 818 367 839 333 855 323 C 862 317 864 313 862 308 C 860 303 844 294 813 281 C 802 276 793 277 783 284 C 773 290 760 295 744 300 C 717 307 691 313 667 317 C 656 318 654 322 662 330 C 673 340 703 337 752 326 C 775 320 774 332 765 349 C 756 363 747 380 735 396 C 720 415 720 415 712 424 C 703 434 672 465 645 484 C 627 497 631 507 652 498 C 686 484 724 458 742 442 C 765 420 765 420 776 409 Z"/></clipPath>
    <clipPath id="z30921c11"><path d="M 742 442 C 764 455 789 468 814 487 C 841 506 863 499 839 452 C 831 438 812 420 776 409 C 749 400 749 400 735 396 C 705 386 681 377 661 373 C 637 368 635 382 653 392 C 671 401 691 411 712 424 C 732 436 732 436 742 442 Z"/></clipPath>
    <clipPath id="z30921c12"><path d="M 648 606 C 702 599 771 592 854 592 C 882 591 941 590 905 561 C 875 537 847 529 824 535 C 777 545 717 560 640 572 C 609 577 609 577 594 579 C 531 588 465 598 395 608 C 382 609 379 615 390 625 C 415 650 436 646 452 642 C 486 632 522 621 561 617 C 619 610 619 610 648 606 Z"/></clipPath>
    <clipPath id="z30921c13"><path d="M 640 572 C 641 543 642 527 640 526 C 626 513 613 504 603 500 C 594 496 573 500 585 515 C 591 523 594 545 594 579 C 593 632 593 632 593 658 C 591 749 586 808 577 835 C 569 855 578 881 598 913 C 608 930 620 944 630 924 C 638 905 637 886 638 868 C 638 819 637 647 638 625 C 639 590 639 590 640 572 Z"/></clipPath>
    <clipPath id="z30921c14"><path d="M 561 617 C 521 699 418 772 344 816 C 315 833 323 845 354 835 C 490 791 564 700 593 658 C 617 618 582 576 561 617 Z"/></clipPath>
    <clipPath id="z30921c15"><path d="M 638 625 C 680 683 725 740 773 795 C 785 809 803 817 826 820 C 866 824 908 823 952 819 C 982 816 975 807 960 802 C 845 763 746 696 648 606 C 636 594 628 612 638 625 Z"/></clipPath>
</defs>
<g id="bg-layer">
    <path class="bg" d="M 218 285 C 328 256 374 242 385 237 C 394 232 408 211 350 203 C 330 200 292 213 235 232 C 185 247 145 251 120 257 C 95 262 91 271 110 281 C 130 291 154 296 191 292 C 200 290 209 287 218 285 Z"/>
    <path class="bg" d="M 206 460 C 223 423 239 394 258 345 C 268 317 278 301 218 285 C 209 283 188 283 191 292 C 215 342 172 431 157 467 C 151 480 145 493 138 506 C 113 549 81 591 39 646 C 35 650 36 653 42 652 C 64 647 112 608 151 553 C 170 524 190 491 206 460 Z"/>
    <path class="bg" d="M 157 467 C 128 453 119 454 138 506 C 143 521 146 537 151 553 C 157 577 161 605 165 637 C 166 655 171 671 182 685 C 192 698 198 701 202 692 C 206 679 207 660 205 636 C 202 617 202 613 201 602 C 194 545 190 510 190 496 C 190 481 171 472 157 467 Z"/>
    <path class="bg" d="M 332 580 C 342 534 355 504 368 489 C 381 472 380 459 366 452 C 353 445 339 433 322 424 C 308 416 284 431 265 440 C 245 448 222 455 206 460 C 190 463 170 466 157 467 C 143 469 176 501 190 496 C 198 493 224 487 269 476 C 299 468 302 482 296 516 C 292 534 288 555 284 579 C 281 595 329 596 332 580 Z"/>
    <path class="bg" d="M 205 636 C 215 635 232 629 349 615 C 361 613 374 602 332 580 C 318 572 300 576 284 579 C 283 579 283 579 283 579 C 252 589 225 596 201 602 C 190 604 194 638 205 636 Z"/>
    <path class="bg" d="M 670 202 C 683 189 697 172 712 153 C 722 139 733 126 749 120 C 757 116 761 113 762 108 C 762 101 755 93 741 83 C 723 69 711 61 704 61 C 697 60 692 63 685 66 C 609 90 554 103 521 106 C 500 107 489 109 488 114 C 487 116 489 118 493 121 C 501 127 513 132 531 134 C 559 135 599 121 654 107 C 675 101 679 108 659 141 C 649 157 638 173 623 187 C 612 197 602 208 590 217 C 547 246 520 258 478 273 C 451 283 450 291 480 290 C 517 289 582 274 631 238 C 645 227 657 214 670 202 Z"/>
    <path class="bg" d="M 631 238 C 650 247 671 256 693 270 C 703 276 711 279 719 279 C 723 278 726 275 728 270 C 734 237 704 216 670 202 C 657 197 638 191 623 187 C 592 178 560 171 521 163 C 498 159 494 174 514 182 C 543 193 563 203 590 217 C 603 224 617 231 631 238 Z"/>
    <path class="bg" d="M 531 439 C 578 389 601 353 615 343 C 623 337 624 332 622 327 C 620 322 604 314 573 301 C 562 296 553 297 543 304 C 532 310 518 316 501 322 C 472 330 444 337 418 341 C 408 342 405 346 414 354 C 425 364 459 361 513 347 C 527 343 539 345 525 370 C 515 386 506 404 493 422 C 479 441 479 441 472 450 C 447 482 414 505 384 532 C 376 538 377 542 385 542 C 413 538 454 517 499 472 C 520 450 520 450 531 439 Z"/>
    <path class="bg" d="M 499 472 C 529 496 540 503 553 507 C 573 513 573 495 567 478 C 559 457 550 450 531 439 C 519 431 505 427 493 422 C 457 405 433 397 421 397 C 416 397 415 399 417 404 C 417 405 435 420 472 450 C 490 465 490 465 499 472 Z"/>
    <path class="bg" d="M 776 409 C 818 367 839 333 855 323 C 862 317 864 313 862 308 C 860 303 844 294 813 281 C 802 276 793 277 783 284 C 773 290 760 295 744 300 C 717 307 691 313 667 317 C 656 318 654 322 662 330 C 673 340 703 337 752 326 C 775 320 774 332 765 349 C 756 363 747 380 735 396 C 720 415 720 415 712 424 C 703 434 672 465 645 484 C 627 497 631 507 652 498 C 686 484 724 458 742 442 C 765 420 765 420 776 409 Z"/>
    <path class="bg" d="M 742 442 C 764 455 789 468 814 487 C 841 506 863 499 839 452 C 831 438 812 420 776 409 C 749 400 749 400 735 396 C 705 386 681 377 661 373 C 637 368 635 382 653 392 C 671 401 691 411 712 424 C 732 436 732 436 742 442 Z"/>
    <path class="bg" d="M 648 606 C 702 599 771 592 854 592 C 882 591 941 590 905 561 C 875 537 847 529 824 535 C 777 545 717 560 640 572 C 609 577 609 577 594 579 C 531 588 465 598 395 608 C 382 609 379 615 390 625 C 415 650 436 646 452 642 C 486 632 522 621 561 617 C 619 610 619 610 648 606 Z"/>
    <path class="bg" d="M 640 572 C 641 543 642 527 640 526 C 626 513 613 504 603 500 C 594 496 573 500 585 515 C 591 523 594 545 594 579 C 593 632 593 632 593 658 C 591 749 586 808 577 835 C 569 855 578 881 598 913 C 608 930 620 944 630 924 C 638 905 637 886 638 868 C 638 819 637 647 638 625 C 639 590 639 590 640 572 Z"/>
    <path class="bg" d="M 561 617 C 521 699 418 772 344 816 C 315 833 323 845 354 835 C 490 791 564 700 593 658 C 617 618 582 576 561 617 Z"/>
    <path class="bg" d="M 638 625 C 680 683 725 740 773 795 C 785 809 803 817 826 820 C 866 824 908 823 952 819 C 982 816 975 807 960 802 C 845 763 746 696 648 606 C 636 594 628 612 638 625 Z"/>
</g>
<g id="anim-layer">
    <path style="--d:1s; stroke:#FF4444;" pathLength="3333" clip-path="url(#z30921c1)" d="M 106 269 L 389 224"/>
    <path style="--d:2s; stroke:#FF4444;" pathLength="3333" clip-path="url(#z30921c2)" d="M 196 292 L 231 324 L 201 419 L 123 562 L 43 646"/>
    <path style="--d:3s; stroke:#FF4444;" pathLength="3333" clip-path="url(#z30921c3)" d="M 135 466 L 164 499 L 194 691"/>
    <path style="--d:4s; stroke:#FF4444;" pathLength="3333" clip-path="url(#z30921c4)" d="M 162 471 L 324 462 L 337 481 L 307 590"/>
    <path style="--d:5s; stroke:#FF4444;" pathLength="3333" clip-path="url(#z30921c5)" d="M 196 618 L 354 604"/>
    <path style="--d:6s; stroke:#000;" pathLength="3333" clip-path="url(#z30921c6)" d="M 495 114 L 683 83 L 715 114 L 608 229 L 464 282"/>
    <path style="--d:7s; stroke:#000;" pathLength="3333" clip-path="url(#z30921c7)" d="M 512 171 L 669 228 L 723 270"/>
    <path style="--d:8s; stroke:#000;" pathLength="3333" clip-path="url(#z30921c8)" d="M 418 348 L 537 323 L 577 343 L 477 470 L 387 538"/>
    <path style="--d:9s; stroke:#000;" pathLength="3333" clip-path="url(#z30921c9)" d="M 427 404 L 565 500"/>
    <path style="--d:10s; stroke:#000;" pathLength="3333" clip-path="url(#z30921c10)" d="M 668 324 L 774 304 L 816 326 L 729 431 L 642 493"/>
    <path style="--d:11s; stroke:#000;" pathLength="3333" clip-path="url(#z30921c11)" d="M 647 378 L 796 444 L 844 488"/>
    <path style="--d:12s; stroke:#000;" pathLength="3333" clip-path="url(#z30921c12)" d="M 390 615 L 820 564 L 911 571"/>
    <path style="--d:13s; stroke:#000;" pathLength="3333" clip-path="url(#z30921c13)" d="M 590 507 L 617 541 L 614 929"/>
    <path style="--d:14s; stroke:#000;" pathLength="3333" clip-path="url(#z30921c14)" d="M 582 604 L 567 654 L 506 724 L 333 833"/>
    <path style="--d:15s; stroke:#000;" pathLength="3333" clip-path="url(#z30921c15)" d="M 639 610 L 804 772 L 967 812"/>
</g>
</svg>