<svg id="z30964" class="acjk" viewBox="0 0 1024 1024" xmlns="http://www.w3.org/2000/svg">

<style>
<![CDATA[
@keyframes zk { to { stroke-dashoffset:0; } }
svg.acjk path[clip-path] {
    --t:0.8s;
    animation:zk var(--t) linear forwards var(--d);
    stroke-dasharray:3337;
    stroke-dashoffset:3339;
    stroke-width:128;
    stroke-linecap:round;
    fill:none;
}
/* Low opacity for background improves visual overlap at intersections */
svg.acjk .bg { fill:#ccc; opacity: 0.5; } 
]]>
</style>
<defs>
    <clipPath id="z30964c1"><path d="M 223 244 C 258 237 298 226 333 219 C 350 215 381 210 371 191 C 367 183 354 178 336 174 C 316 169 297 173 278 181 C 226 200 174 208 120 216 C 97 219 94 228 111 238 C 129 248 152 256 177 252 C 208 247 208 247 223 244 Z"/></clipPath>
    <clipPath id="z30964c2"><path d="M 189 450 C 213 410 245 312 259 283 C 266 266 252 247 223 244 C 208 241 174 237 177 252 C 192 322 172 393 140 456 C 126 483 126 483 119 496 C 103 525 73 569 31 629 C 27 634 27 637 34 636 C 54 629 105 585 132 543 C 170 481 170 481 189 450 Z"/></clipPath>
    <clipPath id="z30964c3"><path d="M 140 456 C 95 435 103 464 119 496 C 125 510 128 527 132 543 C 137 570 146 609 151 650 C 153 671 158 689 170 705 C 180 718 185 720 190 711 C 200 686 191 642 190 633 C 188 623 187 613 186 603 C 177 540 170 500 170 484 C 170 470 153 461 140 456 Z"/></clipPath>
    <clipPath id="z30964c4"><path d="M 320 574 C 330 525 342 493 356 477 C 370 460 369 448 354 440 C 341 433 327 424 310 414 C 300 407 279 419 243 433 C 225 439 202 447 189 450 C 173 453 155 454 140 456 C 127 459 156 488 168 483 C 168 483 203 473 253 463 C 284 456 290 465 284 506 C 280 528 276 551 272 577 C 269 593 317 590 320 574 Z"/></clipPath>
    <clipPath id="z30964c5"><path d="M 190 633 C 200 633 209 624 336 603 C 356 597 335 579 320 574 C 305 568 287 572 272 577 C 239 587 210 595 186 603 C 176 606 180 635 190 633 Z"/></clipPath>
    <clipPath id="z30964c6"><path d="M 478 329 C 455 376 424 426 381 476 C 371 487 370 489 381 487 C 447 471 526 353 568 215 C 576 188 583 170 591 161 C 596 154 597 147 593 142 C 589 137 571 131 540 124 C 533 122 524 125 513 134 C 500 143 476 154 442 167 C 435 169 435 174 442 180 C 448 186 460 185 478 179 C 502 169 516 165 519 169 C 523 175 521 192 517 221 C 513 243 505 271 490 304 C 482 321 482 321 478 329 Z"/></clipPath>
    <clipPath id="z30964c7"><path d="M 490 304 C 482 274 450 254 420 254 C 409 254 395 253 398 268 C 400 284 445 326 478 329 C 487 331 493 313 490 304 Z"/></clipPath>
    <clipPath id="z30964c8"><path d="M 654 184 C 694 151 722 125 745 114 C 771 100 742 81 730 71 C 712 56 678 44 681 76 C 682 94 669 120 639 171 C 636 177 649 188 654 184 Z"/></clipPath>
    <clipPath id="z30964c9"><path d="M 723 261 C 779 236 809 223 850 212 C 875 204 861 183 850 166 C 836 146 812 126 802 155 C 793 177 769 199 709 246 C 704 250 717 264 723 261 Z"/></clipPath>
    <clipPath id="z30964c10"><path d="M 709 246 C 684 220 671 203 654 184 C 649 179 644 174 639 171 C 622 160 604 169 599 176 C 596 179 598 183 604 187 C 624 199 640 215 654 235 C 715 321 772 393 823 454 C 831 464 844 471 860 471 C 944 466 988 458 994 450 C 996 446 994 442 988 440 C 891 398 820 354 773 310 C 757 295 740 279 723 261 C 714 251 714 251 709 246 Z"/></clipPath>
    <clipPath id="z30964c11"><path d="M 522 388 C 501 391 498 399 514 408 C 533 418 570 418 623 407 C 639 403 656 398 675 395 C 684 393 706 388 699 374 C 695 366 683 362 667 359 C 650 356 633 359 616 366 C 587 376 555 382 522 388 Z"/></clipPath>
    <clipPath id="z30964c12"><path d="M 484 504 C 466 499 423 482 441 517 C 454 544 468 578 478 622 C 480 634 485 645 494 655 C 513 677 515 659 516 641 C 516 630 513 620 512 611 C 507 582 501 548 499 534 C 497 523 495 506 484 504 Z"/></clipPath>
    <clipPath id="z30964c13"><path d="M 707 589 C 723 560 740 544 755 535 C 767 526 768 512 759 502 C 750 492 729 479 699 463 C 688 457 676 457 663 462 C 624 475 564 490 484 504 C 473 506 488 536 499 534 C 527 528 577 520 649 508 C 659 506 667 505 672 511 C 676 516 671 541 657 585 C 651 601 700 604 707 589 Z"/></clipPath>
    <clipPath id="z30964c14"><path d="M 516 641 C 527 639 563 629 717 618 C 725 617 735 609 707 589 C 694 579 673 582 657 585 C 604 595 556 604 512 611 C 502 613 506 643 516 641 Z"/></clipPath>
    <clipPath id="z30964c15"><path d="M 471 738 C 481 749 491 762 502 776 C 512 789 532 797 541 779 C 544 770 546 757 542 740 C 537 723 512 709 471 696 C 450 689 447 692 448 708 C 448 714 457 723 471 738 Z"/></clipPath>
    <clipPath id="z30964c16"><path d="M 642 804 C 686 754 716 714 742 698 C 768 680 735 663 722 655 C 702 643 666 632 671 666 C 676 706 638 766 617 807 C 613 814 637 811 642 804 Z"/></clipPath>
    <clipPath id="z30964c17"><path d="M 617 807 C 582 811 427 825 333 834 C 319 835 316 841 327 853 C 349 878 381 879 396 876 C 540 840 704 830 891 844 C 916 845 936 830 912 810 C 874 778 841 772 813 779 C 768 788 711 795 642 804 C 625 806 625 806 617 807 Z"/></clipPath>
</defs>
<g id="bg-layer">
    <path class="bg" d="M 223 244 C 258 237 298 226 333 219 C 350 215 381 210 371 191 C 367 183 354 178 336 174 C 316 169 297 173 278 181 C 226 200 174 208 120 216 C 97 219 94 228 111 238 C 129 248 152 256 177 252 C 208 247 208 247 223 244 Z"/>
    <path class="bg" d="M 189 450 C 213 410 245 312 259 283 C 266 266 252 247 223 244 C 208 241 174 237 177 252 C 192 322 172 393 140 456 C 126 483 126 483 119 496 C 103 525 73 569 31 629 C 27 634 27 637 34 636 C 54 629 105 585 132 543 C 170 481 170 481 189 450 Z"/>
    <path class="bg" d="M 140 456 C 95 435 103 464 119 496 C 125 510 128 527 132 543 C 137 570 146 609 151 650 C 153 671 158 689 170 705 C 180 718 185 720 190 711 C 200 686 191 642 190 633 C 188 623 187 613 186 603 C 177 540 170 500 170 484 C 170 470 153 461 140 456 Z"/>
    <path class="bg" d="M 320 574 C 330 525 342 493 356 477 C 370 460 369 448 354 440 C 341 433 327 424 310 414 C 300 407 279 419 243 433 C 225 439 202 447 189 450 C 173 453 155 454 140 456 C 127 459 156 488 168 483 C 168 483 203 473 253 463 C 284 456 290 465 284 506 C 280 528 276 551 272 577 C 269 593 317 590 320 574 Z"/>
    <path class="bg" d="M 190 633 C 200 633 209 624 336 603 C 356 597 335 579 320 574 C 305 568 287 572 272 577 C 239 587 210 595 186 603 C 176 606 180 635 190 633 Z"/>
    <path class="bg" d="M 478 329 C 455 376 424 426 381 476 C 371 487 370 489 381 487 C 447 471 526 353 568 215 C 576 188 583 170 591 161 C 596 154 597 147 593 142 C 589 137 571 131 540 124 C 533 122 524 125 513 134 C 500 143 476 154 442 167 C 435 169 435 174 442 180 C 448 186 460 185 478 179 C 502 169 516 165 519 169 C 523 175 521 192 517 221 C 513 243 505 271 490 304 C 482 321 482 321 478 329 Z"/>
    <path class="bg" d="M 490 304 C 482 274 450 254 420 254 C 409 254 395 253 398 268 C 400 284 445 326 478 329 C 487 331 493 313 490 304 Z"/>
    <path class="bg" d="M 654 184 C 694 151 722 125 745 114 C 771 100 742 81 730 71 C 712 56 678 44 681 76 C 682 94 669 120 639 171 C 636 177 649 188 654 184 Z"/>
    <path class="bg" d="M 723 261 C 779 236 809 223 850 212 C 875 204 861 183 850 166 C 836 146 812 126 802 155 C 793 177 769 199 709 246 C 704 250 717 264 723 261 Z"/>
    <path class="bg" d="M 709 246 C 684 220 671 203 654 184 C 649 179 644 174 639 171 C 622 160 604 169 599 176 C 596 179 598 183 604 187 C 624 199 640 215 654 235 C 715 321 772 393 823 454 C 831 464 844 471 860 471 C 944 466 988 458 994 450 C 996 446 994 442 988 440 C 891 398 820 354 773 310 C 757 295 740 279 723 261 C 714 251 714 251 709 246 Z"/>
    <path class="bg" d="M 522 388 C 501 391 498 399 514 408 C 533 418 570 418 623 407 C 639 403 656 398 675 395 C 684 393 706 388 699 374 C 695 366 683 362 667 359 C 650 356 633 359 616 366 C 587 376 555 382 522 388 Z"/>
    <path class="bg" d="M 484 504 C 466 499 423 482 441 517 C 454 544 468 578 478 622 C 480 634 485 645 494 655 C 513 677 515 659 516 641 C 516 630 513 620 512 611 C 507 582 501 548 499 534 C 497 523 495 506 484 504 Z"/>
    <path class="bg" d="M 707 589 C 723 560 740 544 755 535 C 767 526 768 512 759 502 C 750 492 729 479 699 463 C 688 457 676 457 663 462 C 624 475 564 490 484 504 C 473 506 488 536 499 534 C 527 528 577 520 649 508 C 659 506 667 505 672 511 C 676 516 671 541 657 585 C 651 601 700 604 707 589 Z"/>
    <path class="bg" d="M 516 641 C 527 639 563 629 717 618 C 725 617 735 609 707 589 C 694 579 673 582 657 585 C 604 595 556 604 512 611 C 502 613 506 643 516 641 Z"/>
    <path class="bg" d="M 471 738 C 481 749 491 762 502 776 C 512 789 532 797 541 779 C 544 770 546 757 542 740 C 537 723 512 709 471 696 C 450 689 447 692 448 708 C 448 714 457 723 471 738 Z"/>
    <path class="bg" d="M 642 804 C 686 754 716 714 742 698 C 768 680 735 663 722 655 C 702 643 666 632 671 666 C 676 706 638 766 617 807 C 613 814 637 811 642 804 Z"/>
    <path class="bg" d="M 617 807 C 582 811 427 825 333 834 C 319 835 316 841 327 853 C 349 878 381 879 396 876 C 540 840 704 830 891 844 C 916 845 936 830 912 810 C 874 778 841 772 813 779 C 768 788 711 795 642 804 C 625 806 625 806 617 807 Z"/>
</g>
<g id="anim-layer">
    <path style="--d:1s; stroke:#FF4444;" pathLength="3333" clip-path="url(#z30964c1)" d="M 109 226 L 368 192"/>
    <path style="--d:2s; stroke:#FF4444;" pathLength="3333" clip-path="url(#z30964c2)" d="M 183 249 L 221 281 L 189 398 L 104 553 L 34 630"/>
    <path style="--d:3s; stroke:#FF4444;" pathLength="3333" clip-path="url(#z30964c3)" d="M 114 455 L 147 498 L 181 708"/>
    <path style="--d:4s; stroke:#FF4444;" pathLength="3333" clip-path="url(#z30964c4)" d="M 143 461 L 310 449 L 325 467 L 291 585"/>
    <path style="--d:5s; stroke:#FF4444;" pathLength="3333" clip-path="url(#z30964c5)" d="M 182 621 L 337 590"/>
    <path style="--d:6s; stroke:#000;" pathLength="3333" clip-path="url(#z30964c6)" d="M 443 172 L 525 148 L 557 171 L 486 356 L 381 480"/>
    <path style="--d:7s; stroke:#000;" pathLength="3333" clip-path="url(#z30964c7)" d="M 406 263 L 487 316"/>
    <path style="--d:8s; stroke:#000;" pathLength="3333" clip-path="url(#z30964c8)" d="M 690 66 L 713 108 L 647 179"/>
    <path style="--d:9s; stroke:#000;" pathLength="3333" clip-path="url(#z30964c9)" d="M 814 148 L 821 195 L 713 250"/>
    <path style="--d:10s; stroke:#000;" pathLength="3333" clip-path="url(#z30964c10)" d="M 602 179 L 640 193 L 857 425 L 986 445"/>
    <path style="--d:11s; stroke:#000;" pathLength="3333" clip-path="url(#z30964c11)" d="M 512 397 L 695 376"/>
    <path style="--d:12s; stroke:#000;" pathLength="3333" clip-path="url(#z30964c12)" d="M 445 503 L 475 533 L 504 657"/>
    <path style="--d:13s; stroke:#000;" pathLength="3333" clip-path="url(#z30964c13)" d="M 488 510 L 685 487 L 718 525 L 668 594"/>
    <path style="--d:14s; stroke:#000;" pathLength="3333" clip-path="url(#z30964c14)" d="M 509 628 L 718 611"/>
    <path style="--d:15s; stroke:#000;" pathLength="3333" clip-path="url(#z30964c15)" d="M 453 698 L 532 784"/>
    <path style="--d:16s; stroke:#000;" pathLength="3333" clip-path="url(#z30964c16)" d="M 679 651 L 709 692 L 625 804"/>
    <path style="--d:17s; stroke:#000;" pathLength="3333" clip-path="url(#z30964c17)" d="M 329 841 L 386 853 L 831 808 L 919 828"/>
</g>
</svg>