<svg id="z31067" class="acjk" viewBox="0 0 1024 1024" xmlns="http://www.w3.org/2000/svg">

<style>
<![CDATA[
@keyframes zk { to { stroke-dashoffset:0; } }
svg.acjk path[clip-path] {
    --t:0.8s;
    animation:zk var(--t) linear forwards var(--d);
    stroke-dasharray:3337;
    stroke-dashoffset:3339;
    stroke-width:128;
    stroke-linecap:round;
    fill:none;
}
/* Low opacity for background improves visual overlap at intersections */
svg.acjk .bg { fill:#ccc; opacity: 0.5; } 
]]>
</style>
<defs>
    <clipPath id="z31067c1"><path d="M 299 134 Q 332 156 368 184 Q 384 196 401 193 Q 413 192 417 176 Q 420 160 406 128 Q 397 107 362 95 Q 275 77 264 85 Q 258 89 262 104 Q 268 114 299 134 Z"/></clipPath>
    <clipPath id="z31067c2"><path d="M 274 523 Q 307 480 344 424 Q 375 372 420 339 Q 436 327 423 312 Q 404 297 374 287 Q 352 278 334 290 Q 253 350 97 362 Q 85 361 82 368 Q 79 378 95 389 Q 134 414 151 412 Q 160 409 300 353 Q 319 346 323 354 Q 327 361 316 384 Q 244 522 84 673 Q 69 683 72 687 Q 75 690 88 685 Q 155 651 248 553 C 265 533 265 533 274 523 Z"/></clipPath>
    <clipPath id="z31067c3"><path d="M 248 553 Q 247 553 248 554 Q 279 626 246 794 Q 230 842 264 890 Q 265 891 267 893 Q 283 908 294 883 Q 307 846 307 805 Q 306 633 310 594 Q 317 569 308 560 Q 278 526 274 523 C 265 514 245 540 248 553 Z"/></clipPath>
    <clipPath id="z31067c4"><path d="M 322 507 Q 362 562 384 566 Q 394 567 401 552 Q 402 542 396 525 Q 381 498 326 485 Q 319 484 317 493 Q 316 500 322 507 Z"/></clipPath>
    <clipPath id="z31067c5"><path d="M 682 379 Q 811 349 815 345 Q 825 336 819 328 Q 812 316 782 309 Q 748 305 685 330 C 651 339 651 339 634 343 Q 589 352 541 358 Q 504 365 531 382 Q 574 406 631 390 Q 632 389 634 390 C 666 383 666 383 682 379 Z"/></clipPath>
    <clipPath id="z31067c6"><path d="M 674 510 Q 678 443 682 379 C 684 346 684 346 685 330 Q 689 215 708 136 Q 712 124 691 109 Q 654 90 629 85 Q 613 81 604 90 Q 597 99 605 114 Q 629 148 629 172 Q 633 254 634 343 C 634 374 634 374 634 390 Q 633 451 630 517 C 630 532 674 525 674 510 Z"/></clipPath>
    <clipPath id="z31067c7"><path d="M 650 553 Q 649 552 651 552 Q 742 536 893 532 Q 950 532 956 522 Q 960 510 945 498 Q 894 462 857 471 Q 788 487 674 510 C 645 515 645 515 630 517 Q 534 533 427 550 Q 408 553 423 569 Q 436 582 454 586 Q 475 590 490 586 Q 542 570 602 560 C 634 555 634 555 650 553 Z"/></clipPath>
    <clipPath id="z31067c8"><path d="M 773 724 Q 554 764 550 762 Q 549 758 555 751 Q 646 628 682 597 Q 698 582 688 572 Q 678 560 650 553 C 634 550 602 544 602 560 Q 601 564 603 575 Q 612 620 510 740 Q 489 756 459 774 Q 422 790 435 822 Q 436 828 441 836 Q 451 855 465 861 Q 474 864 485 858 Q 573 797 776 746 Q 779 745 784 744 C 791 743 780 723 773 724 Z"/></clipPath>
    <clipPath id="z31067c9"><path d="M 784 744 Q 850 864 852 866 Q 859 869 869 862 Q 885 853 885 810 Q 885 756 746 632 Q 739 625 734 636 Q 730 648 736 660 Q 754 688 773 724 C 780 737 780 737 784 744 Z"/></clipPath>
</defs>
<g id="bg-layer">
    <path class="bg" d="M 299 134 Q 332 156 368 184 Q 384 196 401 193 Q 413 192 417 176 Q 420 160 406 128 Q 397 107 362 95 Q 275 77 264 85 Q 258 89 262 104 Q 268 114 299 134 Z"/>
    <path class="bg" d="M 274 523 Q 307 480 344 424 Q 375 372 420 339 Q 436 327 423 312 Q 404 297 374 287 Q 352 278 334 290 Q 253 350 97 362 Q 85 361 82 368 Q 79 378 95 389 Q 134 414 151 412 Q 160 409 300 353 Q 319 346 323 354 Q 327 361 316 384 Q 244 522 84 673 Q 69 683 72 687 Q 75 690 88 685 Q 155 651 248 553 C 265 533 265 533 274 523 Z"/>
    <path class="bg" d="M 248 553 Q 247 553 248 554 Q 279 626 246 794 Q 230 842 264 890 Q 265 891 267 893 Q 283 908 294 883 Q 307 846 307 805 Q 306 633 310 594 Q 317 569 308 560 Q 278 526 274 523 C 265 514 245 540 248 553 Z"/>
    <path class="bg" d="M 322 507 Q 362 562 384 566 Q 394 567 401 552 Q 402 542 396 525 Q 381 498 326 485 Q 319 484 317 493 Q 316 500 322 507 Z"/>
    <path class="bg" d="M 682 379 Q 811 349 815 345 Q 825 336 819 328 Q 812 316 782 309 Q 748 305 685 330 C 651 339 651 339 634 343 Q 589 352 541 358 Q 504 365 531 382 Q 574 406 631 390 Q 632 389 634 390 C 666 383 666 383 682 379 Z"/>
    <path class="bg" d="M 674 510 Q 678 443 682 379 C 684 346 684 346 685 330 Q 689 215 708 136 Q 712 124 691 109 Q 654 90 629 85 Q 613 81 604 90 Q 597 99 605 114 Q 629 148 629 172 Q 633 254 634 343 C 634 374 634 374 634 390 Q 633 451 630 517 C 630 532 674 525 674 510 Z"/>
    <path class="bg" d="M 650 553 Q 649 552 651 552 Q 742 536 893 532 Q 950 532 956 522 Q 960 510 945 498 Q 894 462 857 471 Q 788 487 674 510 C 645 515 645 515 630 517 Q 534 533 427 550 Q 408 553 423 569 Q 436 582 454 586 Q 475 590 490 586 Q 542 570 602 560 C 634 555 634 555 650 553 Z"/>
    <path class="bg" d="M 773 724 Q 554 764 550 762 Q 549 758 555 751 Q 646 628 682 597 Q 698 582 688 572 Q 678 560 650 553 C 634 550 602 544 602 560 Q 601 564 603 575 Q 612 620 510 740 Q 489 756 459 774 Q 422 790 435 822 Q 436 828 441 836 Q 451 855 465 861 Q 474 864 485 858 Q 573 797 776 746 Q 779 745 784 744 C 791 743 780 723 773 724 Z"/>
    <path class="bg" d="M 784 744 Q 850 864 852 866 Q 859 869 869 862 Q 885 853 885 810 Q 885 756 746 632 Q 739 625 734 636 Q 730 648 736 660 Q 754 688 773 724 C 780 737 780 737 784 744 Z"/>
</g>
<g id="anim-layer">
    <path style="--d:1s; stroke:#FF4444;" pathLength="3333" clip-path="url(#z31067c1)" d="M 266 89 L 414 178"/>
    <path style="--d:2s; stroke:#FF4444;" pathLength="3333" clip-path="url(#z31067c2)" d="M 86 370 L 155 383 L 338 319 L 375 344 L 223 553 L 82 681"/>
    <path style="--d:3s; stroke:#FF4444;" pathLength="3333" clip-path="url(#z31067c3)" d="M 265 528 L 285 578 L 278 894"/>
    <path style="--d:4s; stroke:#FF4444;" pathLength="3333" clip-path="url(#z31067c4)" d="M 325 491 L 393 559"/>
    <path style="--d:5s; stroke:#000;" pathLength="3333" clip-path="url(#z31067c5)" d="M 524 368 L 597 373 L 815 330"/>
    <path style="--d:6s; stroke:#000;" pathLength="3333" clip-path="url(#z31067c6)" d="M 607 91 L 667 144 L 654 522"/>
    <path style="--d:7s; stroke:#000;" pathLength="3333" clip-path="url(#z31067c7)" d="M 422 558 L 865 501 L 952 513"/>
    <path style="--d:8s; stroke:#000;" pathLength="3333" clip-path="url(#z31067c8)" d="M 609 556 L 646 590 L 488 779 L 493 816 L 780 736"/>
    <path style="--d:9s; stroke:#000;" pathLength="3333" clip-path="url(#z31067c9)" d="M 740 637 L 842 783 L 866 861"/>
</g>
</svg>