<svg id="z31071" class="acjk" viewBox="0 0 1024 1024" xmlns="http://www.w3.org/2000/svg">

<style>
<![CDATA[
@keyframes zk { to { stroke-dashoffset:0; } }
svg.acjk path[clip-path] {
    --t:0.8s;
    animation:zk var(--t) linear forwards var(--d);
    stroke-dasharray:3337;
    stroke-dashoffset:3339;
    stroke-width:128;
    stroke-linecap:round;
    fill:none;
}
/* Low opacity for background improves visual overlap at intersections */
svg.acjk .bg { fill:#ccc; opacity: 0.5; } 
]]>
</style>
<defs>
    <clipPath id="z31071c1"><path d="M 529 247 Q 545 243 565 240 Q 646 227 678 230 C 689 230 692 198 681 198 Q 602 204 531 216 C 494 221 494 221 476 224 Q 406 234 346 251 Q 333 252 338 237 Q 356 180 350 167 Q 340 151 321 135 Q 312 128 303 129 Q 293 130 297 148 Q 307 184 296 216 Q 287 247 272 259 Q 256 272 260 286 Q 269 299 283 310 Q 289 316 311 306 Q 339 285 476 258 C 511 251 511 251 529 247 Z"/></clipPath>
    <clipPath id="z31071c2"><path d="M 678 230 Q 679 246 687 260 Q 694 273 706 264 Q 719 249 736 209 Q 737 190 756 155 Q 768 134 750 119 Q 737 106 722 92 Q 712 85 700 89 Q 690 93 691 109 Q 697 130 681 198 C 679 219 679 219 678 230 Z"/></clipPath>
    <clipPath id="z31071c3"><path d="M 518 391 Q 524 316 529 247 C 530 226 530 226 531 216 Q 532 159 551 90 Q 554 80 534 64 Q 498 45 474 41 Q 458 37 450 46 Q 443 53 451 69 Q 470 97 471 117 Q 474 168 476 224 C 476 247 476 247 476 258 Q 476 325 475 399 C 475 414 518 406 518 391 Z"/></clipPath>
    <clipPath id="z31071c4"><path d="M 688 367 Q 597 376 518 391 C 489 396 489 396 475 399 Q 397 412 332 432 Q 325 432 329 424 Q 347 394 341 373 Q 332 354 314 336 Q 305 329 296 328 Q 286 329 288 348 Q 297 411 257 439 Q 238 452 243 466 Q 252 481 266 493 Q 276 502 287 495 Q 309 477 446 442 Q 632 390 690 401 C 701 403 699 367 688 367 Z"/></clipPath>
    <clipPath id="z31071c5"><path d="M 690 401 Q 690 444 712 467 Q 722 477 731 465 Q 738 450 744 390 Q 744 372 747 346 Q 753 324 733 314 Q 717 304 700 297 Q 687 293 679 299 Q 672 306 676 320 Q 683 336 688 367 C 689 390 689 390 690 401 Z"/></clipPath>
    <clipPath id="z31071c6"><path d="M 358 528 Q 322 534 347 550 Q 387 574 442 562 Q 518 547 600 532 Q 637 525 642 519 Q 651 512 647 504 Q 640 492 612 485 Q 588 479 484 509 Q 381 525 358 528 Z"/></clipPath>
    <clipPath id="z31071c7"><path d="M 503 663 Q 755 635 830 640 Q 927 640 930 639 Q 930 638 931 638 Q 938 625 926 614 Q 862 556 797 577 Q 707 595 476 628 Q 344 644 278 654 Q 205 667 94 670 Q 81 670 79 681 Q 79 693 97 706 Q 113 718 143 729 Q 153 733 171 725 Q 189 718 266 703 Q 351 681 458 668 C 488 665 488 665 503 663 Z"/></clipPath>
    <clipPath id="z31071c8"><path d="M 458 668 Q 473 707 473 826 Q 472 860 469 867 Q 465 879 443 874 Q 419 867 393 862 Q 380 861 379 868 Q 376 874 388 884 Q 448 942 466 974 Q 479 990 491 988 Q 503 984 517 948 Q 536 912 534 846 Q 530 770 531 743 Q 538 700 520 677 Q 511 668 503 663 C 490 655 452 654 458 668 Z"/></clipPath>
    <clipPath id="z31071c9"><path d="M 277 752 Q 244 800 203 841 Q 176 871 187 909 Q 191 928 215 920 Q 272 893 292 816 Q 304 785 301 757 Q 298 747 292 745 Q 283 745 277 752 Z"/></clipPath>
    <clipPath id="z31071c10"><path d="M 639 760 Q 699 809 770 883 Q 788 902 804 907 Q 814 908 821 897 Q 834 882 818 837 Q 802 776 639 727 Q 629 723 627 735 Q 627 750 639 760 Z"/></clipPath>
</defs>
<g id="bg-layer">
    <path class="bg" d="M 529 247 Q 545 243 565 240 Q 646 227 678 230 C 689 230 692 198 681 198 Q 602 204 531 216 C 494 221 494 221 476 224 Q 406 234 346 251 Q 333 252 338 237 Q 356 180 350 167 Q 340 151 321 135 Q 312 128 303 129 Q 293 130 297 148 Q 307 184 296 216 Q 287 247 272 259 Q 256 272 260 286 Q 269 299 283 310 Q 289 316 311 306 Q 339 285 476 258 C 511 251 511 251 529 247 Z"/>
    <path class="bg" d="M 678 230 Q 679 246 687 260 Q 694 273 706 264 Q 719 249 736 209 Q 737 190 756 155 Q 768 134 750 119 Q 737 106 722 92 Q 712 85 700 89 Q 690 93 691 109 Q 697 130 681 198 C 679 219 679 219 678 230 Z"/>
    <path class="bg" d="M 518 391 Q 524 316 529 247 C 530 226 530 226 531 216 Q 532 159 551 90 Q 554 80 534 64 Q 498 45 474 41 Q 458 37 450 46 Q 443 53 451 69 Q 470 97 471 117 Q 474 168 476 224 C 476 247 476 247 476 258 Q 476 325 475 399 C 475 414 518 406 518 391 Z"/>
    <path class="bg" d="M 688 367 Q 597 376 518 391 C 489 396 489 396 475 399 Q 397 412 332 432 Q 325 432 329 424 Q 347 394 341 373 Q 332 354 314 336 Q 305 329 296 328 Q 286 329 288 348 Q 297 411 257 439 Q 238 452 243 466 Q 252 481 266 493 Q 276 502 287 495 Q 309 477 446 442 Q 632 390 690 401 C 701 403 699 367 688 367 Z"/>
    <path class="bg" d="M 690 401 Q 690 444 712 467 Q 722 477 731 465 Q 738 450 744 390 Q 744 372 747 346 Q 753 324 733 314 Q 717 304 700 297 Q 687 293 679 299 Q 672 306 676 320 Q 683 336 688 367 C 689 390 689 390 690 401 Z"/>
    <path class="bg" d="M 358 528 Q 322 534 347 550 Q 387 574 442 562 Q 518 547 600 532 Q 637 525 642 519 Q 651 512 647 504 Q 640 492 612 485 Q 588 479 484 509 Q 381 525 358 528 Z"/>
    <path class="bg" d="M 503 663 Q 755 635 830 640 Q 927 640 930 639 Q 930 638 931 638 Q 938 625 926 614 Q 862 556 797 577 Q 707 595 476 628 Q 344 644 278 654 Q 205 667 94 670 Q 81 670 79 681 Q 79 693 97 706 Q 113 718 143 729 Q 153 733 171 725 Q 189 718 266 703 Q 351 681 458 668 C 488 665 488 665 503 663 Z"/>
    <path class="bg" d="M 458 668 Q 473 707 473 826 Q 472 860 469 867 Q 465 879 443 874 Q 419 867 393 862 Q 380 861 379 868 Q 376 874 388 884 Q 448 942 466 974 Q 479 990 491 988 Q 503 984 517 948 Q 536 912 534 846 Q 530 770 531 743 Q 538 700 520 677 Q 511 668 503 663 C 490 655 452 654 458 668 Z"/>
    <path class="bg" d="M 277 752 Q 244 800 203 841 Q 176 871 187 909 Q 191 928 215 920 Q 272 893 292 816 Q 304 785 301 757 Q 298 747 292 745 Q 283 745 277 752 Z"/>
    <path class="bg" d="M 639 760 Q 699 809 770 883 Q 788 902 804 907 Q 814 908 821 897 Q 834 882 818 837 Q 802 776 639 727 Q 629 723 627 735 Q 627 750 639 760 Z"/>
</g>
<g id="anim-layer">
    <path style="--d:1s; stroke:#FF4444;" pathLength="3333" clip-path="url(#z31071c1)" d="M 305 134 L 326 179 L 298 263 L 315 280 L 679 211"/>
    <path style="--d:2s; stroke:#FF4444;" pathLength="3333" clip-path="url(#z31071c2)" d="M 704 91 L 725 145 L 694 261"/>
    <path style="--d:3s; stroke:#FF4444;" pathLength="3333" clip-path="url(#z31071c3)" d="M 453 48 L 510 96 L 486 396"/>
    <path style="--d:4s; stroke:#FF4444;" pathLength="3333" clip-path="url(#z31071c4)" d="M 297 334 L 315 380 L 289 449 L 308 464 L 533 403 L 686 388"/>
    <path style="--d:5s; stroke:#FF4444;" pathLength="3333" clip-path="url(#z31071c5)" d="M 683 304 L 716 340 L 721 466"/>
    <path style="--d:6s; stroke:#000;" pathLength="3333" clip-path="url(#z31071c6)" d="M 346 538 L 644 510"/>
    <path style="--d:7s; stroke:#000;" pathLength="3333" clip-path="url(#z31071c7)" d="M 84 683 L 148 699 L 817 606 L 929 627"/>
    <path style="--d:8s; stroke:#000;" pathLength="3333" clip-path="url(#z31071c8)" d="M 468 674 L 500 713 L 496 899 L 469 931 L 384 870"/>
    <path style="--d:9s; stroke:#000;" pathLength="3333" clip-path="url(#z31071c9)" d="M 288 751 L 197 917"/>
    <path style="--d:10s; stroke:#000;" pathLength="3333" clip-path="url(#z31071c10)" d="M 633 730 L 759 819 L 817 897"/>
</g>
</svg>