<svg id="z31160" class="acjk" viewBox="0 0 1024 1024" xmlns="http://www.w3.org/2000/svg">

<style>
<![CDATA[
@keyframes zk { to { stroke-dashoffset:0; } }
svg.acjk path[clip-path] {
    --t:0.8s;
    animation:zk var(--t) linear forwards var(--d);
    stroke-dasharray:3337;
    stroke-dashoffset:3339;
    stroke-width:128;
    stroke-linecap:round;
    fill:none;
}
/* Low opacity for background improves visual overlap at intersections */
svg.acjk .bg { fill:#ccc; opacity: 0.5; } 
]]>
</style>
<defs>
    <clipPath id="z31160c1"><path d="M 270 316 Q 246 297 220 287 Q 210 284 202 294 Q 198 301 206 313 Q 251 424 214 690 Q 205 744 186 798 Q 176 826 181 849 Q 191 888 203 902 Q 215 918 227 903 Q 260 864 269 653 Q 278 422 287 362 C 290 346 283 326 270 316 Z"/></clipPath>
    <clipPath id="z31160c2"><path d="M 542 317 C 594 309 639 300 695 294 C 713 291 727 294 736 304 C 744 308 751 330 755 370 C 765 502 769 642 765 792 C 765 814 761 829 753 835 C 743 841 714 840 668 830 C 655 827 649 829 650 837 C 650 843 656 848 666 853 C 708 885 741 915 763 941 C 779 955 792 962 802 960 C 810 958 819 946 829 924 C 839 889 844 847 844 797 C 830 603 822 470 822 398 C 822 368 826 344 835 327 C 843 310 844 297 837 288 C 828 277 806 262 770 244 C 755 237 740 235 726 239 C 685 251 646 259 559 276 C 520 283 520 283 500 287 C 433 299 339 309 270 316 C 254 319 272 368 287 362 C 309 354 460 329 488 325 C 524 320 524 320 542 317 Z"/></clipPath>
    <clipPath id="z31160c3"><path d="M 509 76 C 507 78 508 84 508 87 C 515 104 524 115 525 134 C 531 165 513 243 500 287 C 492 312 492 312 488 325 C 460 412 415 524 402 541 C 396 549 390 558 383 565 C 369 579 343 593 339 611 C 337 619 338 628 340 636 C 346 653 355 670 368 681 C 386 688 405 672 418 664 C 451 643 487 631 521 618 C 564 602 601 592 642 581 C 653 577 633 549 622 553 C 564 570 512 580 457 589 C 433 591 440 581 446 565 C 478 475 510 393 542 317 C 553 290 553 290 559 276 C 573 241 588 204 603 174 C 609 161 619 150 622 137 C 623 132 622 128 620 125 C 600 100 557 82 530 74 C 523 73 513 71 509 76 Z"/></clipPath>
    <clipPath id="z31160c4"><path d="M 642 581 C 673 625 685 643 693 646 C 699 648 704 645 709 639 C 713 631 716 618 717 601 C 717 571 683 532 614 488 C 606 482 599 479 596 481 C 592 481 589 487 589 495 C 588 501 595 513 606 529 C 610 535 615 543 622 553 C 635 572 635 572 642 581 Z"/></clipPath>
</defs>
<g id="bg-layer">
    <path class="bg" d="M 270 316 Q 246 297 220 287 Q 210 284 202 294 Q 198 301 206 313 Q 251 424 214 690 Q 205 744 186 798 Q 176 826 181 849 Q 191 888 203 902 Q 215 918 227 903 Q 260 864 269 653 Q 278 422 287 362 C 290 346 283 326 270 316 Z"/>
    <path class="bg" d="M 542 317 C 594 309 639 300 695 294 C 713 291 727 294 736 304 C 744 308 751 330 755 370 C 765 502 769 642 765 792 C 765 814 761 829 753 835 C 743 841 714 840 668 830 C 655 827 649 829 650 837 C 650 843 656 848 666 853 C 708 885 741 915 763 941 C 779 955 792 962 802 960 C 810 958 819 946 829 924 C 839 889 844 847 844 797 C 830 603 822 470 822 398 C 822 368 826 344 835 327 C 843 310 844 297 837 288 C 828 277 806 262 770 244 C 755 237 740 235 726 239 C 685 251 646 259 559 276 C 520 283 520 283 500 287 C 433 299 339 309 270 316 C 254 319 272 368 287 362 C 309 354 460 329 488 325 C 524 320 524 320 542 317 Z"/>
    <path class="bg" d="M 509 76 C 507 78 508 84 508 87 C 515 104 524 115 525 134 C 531 165 513 243 500 287 C 492 312 492 312 488 325 C 460 412 415 524 402 541 C 396 549 390 558 383 565 C 369 579 343 593 339 611 C 337 619 338 628 340 636 C 346 653 355 670 368 681 C 386 688 405 672 418 664 C 451 643 487 631 521 618 C 564 602 601 592 642 581 C 653 577 633 549 622 553 C 564 570 512 580 457 589 C 433 591 440 581 446 565 C 478 475 510 393 542 317 C 553 290 553 290 559 276 C 573 241 588 204 603 174 C 609 161 619 150 622 137 C 623 132 622 128 620 125 C 600 100 557 82 530 74 C 523 73 513 71 509 76 Z"/>
    <path class="bg" d="M 642 581 C 673 625 685 643 693 646 C 699 648 704 645 709 639 C 713 631 716 618 717 601 C 717 571 683 532 614 488 C 606 482 599 479 596 481 C 592 481 589 487 589 495 C 588 501 595 513 606 529 C 610 535 615 543 622 553 C 635 572 635 572 642 581 Z"/>
</g>
<g id="anim-layer">
    <path style="--d:1s; stroke:#FF4444;" pathLength="3333" clip-path="url(#z31160c1)" d="M 208 292 L 255 370 L 211 906"/>
    <path style="--d:2s; stroke:#FF4444;" pathLength="3333" clip-path="url(#z31160c2)" d="M 279 320 L 313 335 L 724 267 L 789 303 L 793 876 L 766 906 L 655 836"/>
    <path style="--d:3s; stroke:#000;" pathLength="3333" clip-path="url(#z31160c3)" d="M 519 83 L 564 142 L 420 567 L 377 615 L 388 647 L 621 572"/>
    <path style="--d:4s; stroke:#000;" pathLength="3333" clip-path="url(#z31160c4)" d="M 600 487 L 706 636"/>
</g>
</svg>