<svg id="z31238" class="acjk" viewBox="0 0 1024 1024" xmlns="http://www.w3.org/2000/svg">

<style>
<![CDATA[
@keyframes zk { to { stroke-dashoffset:0; } }
svg.acjk path[clip-path] {
    --t:0.8s;
    animation:zk var(--t) linear forwards var(--d);
    stroke-dasharray:3337;
    stroke-dashoffset:3339;
    stroke-width:128;
    stroke-linecap:round;
    fill:none;
}
/* Low opacity for background improves visual overlap at intersections */
svg.acjk .bg { fill:#ccc; opacity: 0.5; } 
]]>
</style>
<defs>
    <clipPath id="z31238c1"><path d="M 322 232 Q 424 178 461 168 Q 479 165 482 157 Q 485 147 472 135 Q 403 96 372 103 Q 365 107 365 119 Q 366 165 136 292 Q 132 302 138 304 Q 150 304 295 244 C 313 236 313 236 322 232 Z"/></clipPath>
    <clipPath id="z31238c2"><path d="M 354 425 Q 399 415 454 405 Q 470 402 470 395 Q 471 382 453 374 Q 417 362 355 382 C 328 389 328 389 314 393 Q 167 427 100 437 Q 87 438 84 447 Q 81 457 97 468 Q 136 493 177 480 Q 241 455 291 442 C 333 431 333 431 354 425 Z"/></clipPath>
    <clipPath id="z31238c3"><path d="M 353 509 Q 353 467 354 425 C 355 396 355 396 355 382 Q 356 312 364 277 Q 365 264 359 258 Q 338 240 322 232 C 313 228 290 236 295 244 Q 310 266 314 393 C 313 465 313 465 312 501 Q 312 699 289 800 Q 271 813 302 877 Q 311 904 332 918 Q 344 919 349 906 Q 361 875 358 843 Q 354 677 353 535 C 353 518 353 518 353 509 Z"/></clipPath>
    <clipPath id="z31238c4"><path d="M 291 442 Q 234 572 79 760 Q 73 769 84 770 Q 90 771 99 763 Q 232 655 312 501 C 342 451 312 388 291 442 Z"/></clipPath>
    <clipPath id="z31238c5"><path d="M 353 535 Q 411 601 431 602 Q 443 603 449 588 Q 450 576 442 559 Q 424 529 360 510 Q 357 510 353 509 C 344 508 348 528 353 535 Z"/></clipPath>
    <clipPath id="z31238c6"><path d="M 562 223 Q 550 216 516 212 Q 504 208 501 214 Q 494 220 503 236 Q 533 297 551 398 Q 554 429 572 449 Q 590 471 595 455 Q 598 446 598 434 C 598 422 600 410 596 399 Q 587 374 572 254 C 570 243 572 228 562 223 Z"/></clipPath>
    <clipPath id="z31238c7"><path d="M 808 377 Q 838 281 876 255 Q 894 236 879 217 Q 863 202 808 175 Q 790 166 711 193 Q 630 212 562 223 C 551 225 562 258 572 254 Q 587 248 748 220 Q 767 216 776 224 Q 786 234 782 255 Q 767 321 749 372 C 742 390 801 395 808 377 Z"/></clipPath>
    <clipPath id="z31238c8"><path d="M 598 434 Q 602 434 607 433 Q 674 420 819 410 Q 829 409 831 401 Q 831 394 808 377 C 792 365 768 368 749 372 Q 664 390 596 399 C 585 401 586 434 598 434 Z"/></clipPath>
    <clipPath id="z31238c9"><path d="M 541 577 Q 529 571 503 567 Q 490 563 487 569 Q 480 575 489 592 Q 523 668 540 793 Q 543 830 563 856 Q 582 878 587 863 Q 593 847 592 822 C 589 795 589 795 588 781 Q 566 648 561 610 C 559 597 553 582 541 577 Z"/></clipPath>
    <clipPath id="z31238c10"><path d="M 852 759 Q 880 645 922 613 Q 941 591 925 571 Q 906 555 847 526 Q 826 516 801 526 Q 692 563 541 577 C 528 577 548 613 561 610 Q 567 609 574 607 Q 677 591 775 575 Q 800 569 811 580 Q 832 602 791 749 C 787 769 848 779 852 759 Z"/></clipPath>
    <clipPath id="z31238c11"><path d="M 592 822 Q 602 822 612 821 Q 691 806 864 800 Q 877 799 878 789 Q 879 780 852 759 C 836 747 812 749 791 749 Q 790 748 788 749 Q 677 771 588 781 C 575 784 578 822 592 822 Z"/></clipPath>
</defs>
<g id="bg-layer">
    <path class="bg" d="M 322 232 Q 424 178 461 168 Q 479 165 482 157 Q 485 147 472 135 Q 403 96 372 103 Q 365 107 365 119 Q 366 165 136 292 Q 132 302 138 304 Q 150 304 295 244 C 313 236 313 236 322 232 Z"/>
    <path class="bg" d="M 354 425 Q 399 415 454 405 Q 470 402 470 395 Q 471 382 453 374 Q 417 362 355 382 C 328 389 328 389 314 393 Q 167 427 100 437 Q 87 438 84 447 Q 81 457 97 468 Q 136 493 177 480 Q 241 455 291 442 C 333 431 333 431 354 425 Z"/>
    <path class="bg" d="M 353 509 Q 353 467 354 425 C 355 396 355 396 355 382 Q 356 312 364 277 Q 365 264 359 258 Q 338 240 322 232 C 313 228 290 236 295 244 Q 310 266 314 393 C 313 465 313 465 312 501 Q 312 699 289 800 Q 271 813 302 877 Q 311 904 332 918 Q 344 919 349 906 Q 361 875 358 843 Q 354 677 353 535 C 353 518 353 518 353 509 Z"/>
    <path class="bg" d="M 291 442 Q 234 572 79 760 Q 73 769 84 770 Q 90 771 99 763 Q 232 655 312 501 C 342 451 312 388 291 442 Z"/>
    <path class="bg" d="M 353 535 Q 411 601 431 602 Q 443 603 449 588 Q 450 576 442 559 Q 424 529 360 510 Q 357 510 353 509 C 344 508 348 528 353 535 Z"/>
    <path class="bg" d="M 562 223 Q 550 216 516 212 Q 504 208 501 214 Q 494 220 503 236 Q 533 297 551 398 Q 554 429 572 449 Q 590 471 595 455 Q 598 446 598 434 C 598 422 600 410 596 399 Q 587 374 572 254 C 570 243 572 228 562 223 Z"/>
    <path class="bg" d="M 808 377 Q 838 281 876 255 Q 894 236 879 217 Q 863 202 808 175 Q 790 166 711 193 Q 630 212 562 223 C 551 225 562 258 572 254 Q 587 248 748 220 Q 767 216 776 224 Q 786 234 782 255 Q 767 321 749 372 C 742 390 801 395 808 377 Z"/>
    <path class="bg" d="M 598 434 Q 602 434 607 433 Q 674 420 819 410 Q 829 409 831 401 Q 831 394 808 377 C 792 365 768 368 749 372 Q 664 390 596 399 C 585 401 586 434 598 434 Z"/>
    <path class="bg" d="M 541 577 Q 529 571 503 567 Q 490 563 487 569 Q 480 575 489 592 Q 523 668 540 793 Q 543 830 563 856 Q 582 878 587 863 Q 593 847 592 822 C 589 795 589 795 588 781 Q 566 648 561 610 C 559 597 553 582 541 577 Z"/>
    <path class="bg" d="M 852 759 Q 880 645 922 613 Q 941 591 925 571 Q 906 555 847 526 Q 826 516 801 526 Q 692 563 541 577 C 528 577 548 613 561 610 Q 567 609 574 607 Q 677 591 775 575 Q 800 569 811 580 Q 832 602 791 749 C 787 769 848 779 852 759 Z"/>
    <path class="bg" d="M 592 822 Q 602 822 612 821 Q 691 806 864 800 Q 877 799 878 789 Q 879 780 852 759 C 836 747 812 749 791 749 Q 790 748 788 749 Q 677 771 588 781 C 575 784 578 822 592 822 Z"/>
</g>
<g id="anim-layer">
    <path style="--d:1s; stroke:#FF4444;" pathLength="3333" clip-path="url(#z31238c1)" d="M 374 110 L 420 159 L 141 297"/>
    <path style="--d:2s; stroke:#FF4444;" pathLength="3333" clip-path="url(#z31238c2)" d="M 89 450 L 144 458 L 466 392"/>
    <path style="--d:3s; stroke:#FF4444;" pathLength="3333" clip-path="url(#z31238c3)" d="M 300 238 L 335 277 L 327 911"/>
    <path style="--d:4s; stroke:#FF4444;" pathLength="3333" clip-path="url(#z31238c4)" d="M 309 425 L 242 576 L 85 764"/>
    <path style="--d:5s; stroke:#FF4444;" pathLength="3333" clip-path="url(#z31238c5)" d="M 356 518 L 433 598"/>
    <path style="--d:6s; stroke:#000;" pathLength="3333" clip-path="url(#z31238c6)" d="M 504 216 L 541 247 L 583 456"/>
    <path style="--d:7s; stroke:#000;" pathLength="3333" clip-path="url(#z31238c7)" d="M 565 232 L 768 197 L 809 210 L 834 240 L 766 385"/>
    <path style="--d:8s; stroke:#000;" pathLength="3333" clip-path="url(#z31238c8)" d="M 591 420 L 824 399"/>
    <path style="--d:9s; stroke:#000;" pathLength="3333" clip-path="url(#z31238c9)" d="M 491 573 L 532 618 L 573 864"/>
    <path style="--d:10s; stroke:#000;" pathLength="3333" clip-path="url(#z31238c10)" d="M 543 584 L 837 557 L 878 602 L 810 766"/>
    <path style="--d:11s; stroke:#000;" pathLength="3333" clip-path="url(#z31238c11)" d="M 581 800 L 872 780"/>
</g>
</svg>