<svg id="z31230" class="acjk" viewBox="0 0 1024 1024" xmlns="http://www.w3.org/2000/svg">

<style>
<![CDATA[
@keyframes zk { to { stroke-dashoffset:0; } }
svg.acjk path[clip-path] {
    --t:0.8s;
    animation:zk var(--t) linear forwards var(--d);
    stroke-dasharray:3337;
    stroke-dashoffset:3339;
    stroke-width:128;
    stroke-linecap:round;
    fill:none;
}
/* Low opacity for background improves visual overlap at intersections */
svg.acjk .bg { fill:#ccc; opacity: 0.5; } 
]]>
</style>
<defs>
    <clipPath id="z31230c1"><path d="M 268 213 Q 319 180 378 162 Q 394 161 396 152 Q 399 142 387 133 Q 366 120 324 109 Q 309 103 298 106 Q 291 110 292 120 Q 295 157 116 261 Q 112 270 117 272 Q 129 272 212 237 Q 225 231 239 226 C 258 217 258 217 268 213 Z"/></clipPath>
    <clipPath id="z31230c2"><path d="M 295 394 Q 338 381 395 372 Q 410 369 410 362 Q 411 350 394 342 Q 361 330 297 352 C 268 359 268 359 254 363 Q 115 396 67 403 Q 55 404 52 413 Q 51 423 65 433 Q 99 454 156 437 Q 201 419 239 410 C 276 399 276 399 295 394 Z"/></clipPath>
    <clipPath id="z31230c3"><path d="M 293 454 Q 293 415 295 394 C 296 366 296 366 297 352 Q 300 288 307 257 Q 310 244 302 238 Q 284 222 268 213 C 259 208 234 217 239 226 Q 254 247 254 363 C 251 447 251 447 249 489 Q 249 595 223 739 Q 205 751 233 812 Q 245 848 264 859 Q 276 860 281 847 Q 294 814 291 784 Q 290 621 292 483 C 293 464 293 464 293 454 Z"/></clipPath>
    <clipPath id="z31230c4"><path d="M 239 410 Q 194 527 51 713 Q 47 722 56 722 Q 60 723 69 716 Q 178 626 249 489 C 287 425 267 341 239 410 Z"/></clipPath>
    <clipPath id="z31230c5"><path d="M 292 483 Q 344 555 363 557 Q 375 558 382 544 Q 385 532 378 514 Q 371 495 347 483 Q 311 459 295 454 C 294 454 294 454 293 454 C 283 452 286 475 292 483 Z"/></clipPath>
    <clipPath id="z31230c6"><path d="M 484 343 Q 471 312 452 301 Q 449 297 444 301 Q 440 304 438 314 Q 442 345 411 411 Q 401 426 402 443 Q 405 461 413 474 Q 420 484 425 478 Q 437 475 453 429 Q 469 383 478 367 C 478 366 478 366 478 366 C 481 359 487 350 484 343 Z"/></clipPath>
    <clipPath id="z31230c7"><path d="M 617 339 Q 713 309 732 313 Q 747 323 745 330 Q 746 334 741 348 Q 714 418 721 423 Q 728 426 740 414 Q 786 371 826 353 Q 857 337 856 328 Q 855 321 789 282 Q 767 270 701 289 Q 659 295 625 308 C 592 316 592 316 575 320 Q 515 332 484 343 C 477 346 471 362 478 366 Q 500 379 524 371 Q 543 362 565 355 C 600 344 600 344 617 339 Z"/></clipPath>
    <clipPath id="z31230c8"><path d="M 571 474 Q 596 419 617 339 C 622 318 622 318 625 308 Q 626 296 631 284 Q 656 179 676 145 Q 686 129 679 119 Q 666 92 613 83 Q 598 79 582 88 Q 572 98 582 108 Q 610 132 603 192 Q 602 198 575 320 C 568 343 568 343 565 355 Q 540 443 505 513 Q 466 586 377 700 C 378 716 378 716 378 724 Q 433 696 495 611 C 509 590 509 590 516 580 Q 540 541 562 495 C 568 481 568 481 571 474 Z"/></clipPath>
    <clipPath id="z31230c9"><path d="M 495 611 Q 505 636 505 661 Q 505 758 497 790 Q 493 818 480 834 Q 467 855 476 875 Q 486 906 502 918 Q 512 925 524 907 Q 554 868 653 771 Q 669 758 670 750 Q 671 737 652 748 Q 556 805 548 802 Q 541 798 541 781 Q 548 663 555 633 Q 559 615 547 604 Q 531 586 516 580 C 504 575 490 599 495 611 Z"/></clipPath>
    <clipPath id="z31230c10"><path d="M 688 584 Q 776 521 820 498 Q 836 494 833 483 Q 827 468 810 450 Q 792 434 771 431 Q 758 431 758 449 Q 759 473 676 570 C 672 574 683 588 688 584 Z"/></clipPath>
    <clipPath id="z31230c11"><path d="M 562 495 Q 590 514 610 544 Q 788 797 823 804 Q 913 804 960 798 Q 976 797 982 790 Q 986 783 976 780 Q 834 726 755 653 Q 724 622 688 584 C 680 575 680 575 676 570 Q 645 534 611 492 Q 601 476 584 473 Q 577 472 571 474 C 564 475 556 490 562 495 Z"/></clipPath>
</defs>
<g id="bg-layer">
    <path class="bg" d="M 268 213 Q 319 180 378 162 Q 394 161 396 152 Q 399 142 387 133 Q 366 120 324 109 Q 309 103 298 106 Q 291 110 292 120 Q 295 157 116 261 Q 112 270 117 272 Q 129 272 212 237 Q 225 231 239 226 C 258 217 258 217 268 213 Z"/>
    <path class="bg" d="M 295 394 Q 338 381 395 372 Q 410 369 410 362 Q 411 350 394 342 Q 361 330 297 352 C 268 359 268 359 254 363 Q 115 396 67 403 Q 55 404 52 413 Q 51 423 65 433 Q 99 454 156 437 Q 201 419 239 410 C 276 399 276 399 295 394 Z"/>
    <path class="bg" d="M 293 454 Q 293 415 295 394 C 296 366 296 366 297 352 Q 300 288 307 257 Q 310 244 302 238 Q 284 222 268 213 C 259 208 234 217 239 226 Q 254 247 254 363 C 251 447 251 447 249 489 Q 249 595 223 739 Q 205 751 233 812 Q 245 848 264 859 Q 276 860 281 847 Q 294 814 291 784 Q 290 621 292 483 C 293 464 293 464 293 454 Z"/>
    <path class="bg" d="M 239 410 Q 194 527 51 713 Q 47 722 56 722 Q 60 723 69 716 Q 178 626 249 489 C 287 425 267 341 239 410 Z"/>
    <path class="bg" d="M 292 483 Q 344 555 363 557 Q 375 558 382 544 Q 385 532 378 514 Q 371 495 347 483 Q 311 459 295 454 C 294 454 294 454 293 454 C 283 452 286 475 292 483 Z"/>
    <path class="bg" d="M 484 343 Q 471 312 452 301 Q 449 297 444 301 Q 440 304 438 314 Q 442 345 411 411 Q 401 426 402 443 Q 405 461 413 474 Q 420 484 425 478 Q 437 475 453 429 Q 469 383 478 367 C 478 366 478 366 478 366 C 481 359 487 350 484 343 Z"/>
    <path class="bg" d="M 617 339 Q 713 309 732 313 Q 747 323 745 330 Q 746 334 741 348 Q 714 418 721 423 Q 728 426 740 414 Q 786 371 826 353 Q 857 337 856 328 Q 855 321 789 282 Q 767 270 701 289 Q 659 295 625 308 C 592 316 592 316 575 320 Q 515 332 484 343 C 477 346 471 362 478 366 Q 500 379 524 371 Q 543 362 565 355 C 600 344 600 344 617 339 Z"/>
    <path class="bg" d="M 571 474 Q 596 419 617 339 C 622 318 622 318 625 308 Q 626 296 631 284 Q 656 179 676 145 Q 686 129 679 119 Q 666 92 613 83 Q 598 79 582 88 Q 572 98 582 108 Q 610 132 603 192 Q 602 198 575 320 C 568 343 568 343 565 355 Q 540 443 505 513 Q 466 586 377 700 C 378 716 378 716 378 724 Q 433 696 495 611 C 509 590 509 590 516 580 Q 540 541 562 495 C 568 481 568 481 571 474 Z"/>
    <path class="bg" d="M 495 611 Q 505 636 505 661 Q 505 758 497 790 Q 493 818 480 834 Q 467 855 476 875 Q 486 906 502 918 Q 512 925 524 907 Q 554 868 653 771 Q 669 758 670 750 Q 671 737 652 748 Q 556 805 548 802 Q 541 798 541 781 Q 548 663 555 633 Q 559 615 547 604 Q 531 586 516 580 C 504 575 490 599 495 611 Z"/>
    <path class="bg" d="M 688 584 Q 776 521 820 498 Q 836 494 833 483 Q 827 468 810 450 Q 792 434 771 431 Q 758 431 758 449 Q 759 473 676 570 C 672 574 683 588 688 584 Z"/>
    <path class="bg" d="M 562 495 Q 590 514 610 544 Q 788 797 823 804 Q 913 804 960 798 Q 976 797 982 790 Q 986 783 976 780 Q 834 726 755 653 Q 724 622 688 584 C 680 575 680 575 676 570 Q 645 534 611 492 Q 601 476 584 473 Q 577 472 571 474 C 564 475 556 490 562 495 Z"/>
</g>
<g id="anim-layer">
    <path style="--d:1s; stroke:#FF4444;" pathLength="3333" clip-path="url(#z31230c1)" d="M 300 115 L 336 155 L 120 266"/>
    <path style="--d:2s; stroke:#FF4444;" pathLength="3333" clip-path="url(#z31230c2)" d="M 56 413 L 118 419 L 404 358"/>
    <path style="--d:3s; stroke:#FF4444;" pathLength="3333" clip-path="url(#z31230c3)" d="M 246 223 L 278 257 L 262 854"/>
    <path style="--d:4s; stroke:#FF4444;" pathLength="3333" clip-path="url(#z31230c4)" d="M 257 391 L 194 544 L 56 715"/>
    <path style="--d:5s; stroke:#FF4444;" pathLength="3333" clip-path="url(#z31230c5)" d="M 294 462 L 369 550"/>
    <path style="--d:6s; stroke:#000;" pathLength="3333" clip-path="url(#z31230c6)" d="M 446 307 L 459 347 L 421 474"/>
    <path style="--d:7s; stroke:#000;" pathLength="3333" clip-path="url(#z31230c7)" d="M 478 359 L 758 299 L 801 332 L 728 417"/>
    <path style="--d:8s; stroke:#000;" pathLength="3333" clip-path="url(#z31230c8)" d="M 586 99 L 642 143 L 570 416 L 501 563 L 382 716"/>
    <path style="--d:9s; stroke:#000;" pathLength="3333" clip-path="url(#z31230c9)" d="M 510 585 L 529 636 L 519 863 L 664 751"/>
    <path style="--d:10s; stroke:#000;" pathLength="3333" clip-path="url(#z31230c10)" d="M 768 437 L 792 479 L 679 577"/>
    <path style="--d:11s; stroke:#000;" pathLength="3333" clip-path="url(#z31230c11)" d="M 563 486 L 820 751 L 974 788"/>
</g>
</svg>