<svg id="z31235" class="acjk" viewBox="0 0 1024 1024" xmlns="http://www.w3.org/2000/svg">

<style>
<![CDATA[
@keyframes zk { to { stroke-dashoffset:0; } }
svg.acjk path[clip-path] {
    --t:0.8s;
    animation:zk var(--t) linear forwards var(--d);
    stroke-dasharray:3337;
    stroke-dashoffset:3339;
    stroke-width:128;
    stroke-linecap:round;
    fill:none;
}
/* Low opacity for background improves visual overlap at intersections */
svg.acjk .bg { fill:#ccc; opacity: 0.5; } 
]]>
</style>
<defs>
    <clipPath id="z31235c1"><path d="M 310 230 C 339 217 410 184 430 176 C 451 166 455 157 439 146 C 423 136 401 125 374 116 C 359 111 342 109 340 131 C 336 167 280 201 164 273 C 158 276 160 283 166 284 C 183 285 260 251 280 243 C 300 234 300 234 310 230 Z"/></clipPath>
    <clipPath id="z31235c2"><path d="M 335 420 C 358 413 385 406 415 400 C 442 394 430 377 413 371 C 396 364 371 366 337 377 C 309 386 309 386 295 390 C 197 420 131 434 98 439 C 82 441 74 455 96 469 C 121 484 147 486 173 476 C 213 459 247 445 276 437 C 315 426 315 426 335 420 Z"/></clipPath>
    <clipPath id="z31235c3"><path d="M 333 489 C 334 459 334 436 335 420 C 336 391 336 391 337 377 C 342 249 371 262 310 230 C 300 226 274 234 280 243 C 290 259 298 308 295 390 C 292 475 292 475 290 517 C 286 598 290 691 265 790 C 258 813 256 842 283 888 C 298 914 312 925 321 903 C 329 880 331 859 331 839 C 328 722 328 613 332 514 C 333 497 333 497 333 489 Z"/></clipPath>
    <clipPath id="z31235c4"><path d="M 276 437 C 242 523 173 634 70 771 C 67 777 69 781 76 782 C 90 782 212 677 290 517 C 319 444 305 364 276 437 Z"/></clipPath>
    <clipPath id="z31235c5"><path d="M 332 514 C 364 552 388 572 403 575 C 406 575 435 570 414 531 C 396 498 355 491 333 489 C 325 487 327 507 332 514 Z"/></clipPath>
    <clipPath id="z31235c6"><path d="M 668 91 C 661 120 603 157 498 201 C 471 209 473 226 500 219 C 584 199 672 167 737 146 C 763 137 765 129 739 107 C 720 91 703 81 683 79 C 676 78 669 83 668 91 Z"/></clipPath>
    <clipPath id="z31235c7"><path d="M 470 317 C 482 329 493 343 506 358 C 513 366 533 377 541 359 C 543 352 544 340 541 325 C 537 306 512 292 469 280 C 460 277 455 275 452 277 C 448 278 447 283 448 290 C 448 296 456 304 470 317 Z"/></clipPath>
    <clipPath id="z31235c8"><path d="M 572 268 C 592 295 609 316 626 325 C 635 330 651 318 649 298 C 646 275 624 256 584 241 C 576 237 569 237 565 238 C 562 238 561 241 562 248 C 562 252 565 259 572 268 Z"/></clipPath>
    <clipPath id="z31235c9"><path d="M 683 327 C 674 335 679 345 689 340 C 789 285 816 260 843 250 C 870 239 850 214 820 195 C 790 176 776 181 779 197 C 782 213 774 225 683 327 Z"/></clipPath>
    <clipPath id="z31235c10"><path d="M 666 524 C 726 470 766 440 787 433 C 799 428 802 421 799 412 C 795 402 774 386 733 366 C 719 359 689 368 642 387 C 580 410 531 420 498 420 C 483 420 478 426 484 438 C 488 446 497 452 509 459 C 527 468 547 466 571 454 C 642 417 685 403 697 410 C 705 414 708 421 704 430 C 689 456 671 484 654 516 C 652 520 662 527 666 524 Z"/></clipPath>
    <clipPath id="z31235c11"><path d="M 703 582 C 695 551 679 537 666 524 C 662 520 658 518 654 516 C 645 510 624 501 612 508 C 603 512 602 518 612 527 C 632 544 644 565 651 591 C 654 603 658 615 660 628 C 671 709 673 785 647 838 C 630 869 592 852 564 843 C 527 831 528 844 556 866 C 583 887 599 909 609 927 C 614 937 623 942 634 942 C 642 941 657 934 673 917 C 743 840 726 712 713 623 C 710 609 706 595 703 582 Z"/></clipPath>
    <clipPath id="z31235c12"><path d="M 713 623 C 763 618 830 614 916 615 C 942 615 951 599 929 582 C 892 553 851 550 809 561 C 778 568 743 575 703 582 C 668 588 668 588 651 591 C 570 604 488 614 408 626 C 394 628 392 634 403 645 C 430 672 454 666 470 663 C 542 645 617 632 660 628 C 695 625 695 625 713 623 Z"/></clipPath>
</defs>
<g id="bg-layer">
    <path class="bg" d="M 310 230 C 339 217 410 184 430 176 C 451 166 455 157 439 146 C 423 136 401 125 374 116 C 359 111 342 109 340 131 C 336 167 280 201 164 273 C 158 276 160 283 166 284 C 183 285 260 251 280 243 C 300 234 300 234 310 230 Z"/>
    <path class="bg" d="M 335 420 C 358 413 385 406 415 400 C 442 394 430 377 413 371 C 396 364 371 366 337 377 C 309 386 309 386 295 390 C 197 420 131 434 98 439 C 82 441 74 455 96 469 C 121 484 147 486 173 476 C 213 459 247 445 276 437 C 315 426 315 426 335 420 Z"/>
    <path class="bg" d="M 333 489 C 334 459 334 436 335 420 C 336 391 336 391 337 377 C 342 249 371 262 310 230 C 300 226 274 234 280 243 C 290 259 298 308 295 390 C 292 475 292 475 290 517 C 286 598 290 691 265 790 C 258 813 256 842 283 888 C 298 914 312 925 321 903 C 329 880 331 859 331 839 C 328 722 328 613 332 514 C 333 497 333 497 333 489 Z"/>
    <path class="bg" d="M 276 437 C 242 523 173 634 70 771 C 67 777 69 781 76 782 C 90 782 212 677 290 517 C 319 444 305 364 276 437 Z"/>
    <path class="bg" d="M 332 514 C 364 552 388 572 403 575 C 406 575 435 570 414 531 C 396 498 355 491 333 489 C 325 487 327 507 332 514 Z"/>
    <path class="bg" d="M 668 91 C 661 120 603 157 498 201 C 471 209 473 226 500 219 C 584 199 672 167 737 146 C 763 137 765 129 739 107 C 720 91 703 81 683 79 C 676 78 669 83 668 91 Z"/>
    <path class="bg" d="M 470 317 C 482 329 493 343 506 358 C 513 366 533 377 541 359 C 543 352 544 340 541 325 C 537 306 512 292 469 280 C 460 277 455 275 452 277 C 448 278 447 283 448 290 C 448 296 456 304 470 317 Z"/>
    <path class="bg" d="M 572 268 C 592 295 609 316 626 325 C 635 330 651 318 649 298 C 646 275 624 256 584 241 C 576 237 569 237 565 238 C 562 238 561 241 562 248 C 562 252 565 259 572 268 Z"/>
    <path class="bg" d="M 683 327 C 674 335 679 345 689 340 C 789 285 816 260 843 250 C 870 239 850 214 820 195 C 790 176 776 181 779 197 C 782 213 774 225 683 327 Z"/>
    <path class="bg" d="M 666 524 C 726 470 766 440 787 433 C 799 428 802 421 799 412 C 795 402 774 386 733 366 C 719 359 689 368 642 387 C 580 410 531 420 498 420 C 483 420 478 426 484 438 C 488 446 497 452 509 459 C 527 468 547 466 571 454 C 642 417 685 403 697 410 C 705 414 708 421 704 430 C 689 456 671 484 654 516 C 652 520 662 527 666 524 Z"/>
    <path class="bg" d="M 703 582 C 695 551 679 537 666 524 C 662 520 658 518 654 516 C 645 510 624 501 612 508 C 603 512 602 518 612 527 C 632 544 644 565 651 591 C 654 603 658 615 660 628 C 671 709 673 785 647 838 C 630 869 592 852 564 843 C 527 831 528 844 556 866 C 583 887 599 909 609 927 C 614 937 623 942 634 942 C 642 941 657 934 673 917 C 743 840 726 712 713 623 C 710 609 706 595 703 582 Z"/>
    <path class="bg" d="M 713 623 C 763 618 830 614 916 615 C 942 615 951 599 929 582 C 892 553 851 550 809 561 C 778 568 743 575 703 582 C 668 588 668 588 651 591 C 570 604 488 614 408 626 C 394 628 392 634 403 645 C 430 672 454 666 470 663 C 542 645 617 632 660 628 C 695 625 695 625 713 623 Z"/>
</g>
<g id="anim-layer">
    <path style="--d:1s; stroke:#FF4444;" pathLength="3333" clip-path="url(#z31235c1)" d="M 351 117 L 394 168 L 170 277"/>
    <path style="--d:2s; stroke:#FF4444;" pathLength="3333" clip-path="url(#z31235c2)" d="M 87 448 L 145 456 L 425 387"/>
    <path style="--d:3s; stroke:#FF4444;" pathLength="3333" clip-path="url(#z31235c3)" d="M 285 240 L 319 274 L 299 908"/>
    <path style="--d:4s; stroke:#FF4444;" pathLength="3333" clip-path="url(#z31235c4)" d="M 294 418 L 228 581 L 75 776"/>
    <path style="--d:5s; stroke:#FF4444;" pathLength="3333" clip-path="url(#z31235c5)" d="M 336 497 L 414 566"/>
    <path style="--d:6s; stroke:#000;" pathLength="3333" clip-path="url(#z31235c6)" d="M 679 83 L 694 133 L 486 214"/>
    <path style="--d:7s; stroke:#000;" pathLength="3333" clip-path="url(#z31235c7)" d="M 455 283 L 535 361"/>
    <path style="--d:8s; stroke:#000;" pathLength="3333" clip-path="url(#z31235c8)" d="M 570 245 L 631 321"/>
    <path style="--d:9s; stroke:#000;" pathLength="3333" clip-path="url(#z31235c9)" d="M 784 189 L 811 233 L 684 335"/>
    <path style="--d:10s; stroke:#000;" pathLength="3333" clip-path="url(#z31235c10)" d="M 485 427 L 536 440 L 720 391 L 751 427 L 661 517"/>
    <path style="--d:11s; stroke:#000;" pathLength="3333" clip-path="url(#z31235c11)" d="M 613 517 L 664 555 L 685 616 L 690 806 L 669 866 L 630 898 L 543 844"/>
    <path style="--d:12s; stroke:#000;" pathLength="3333" clip-path="url(#z31235c12)" d="M 401 632 L 455 642 L 844 585 L 937 599"/>
</g>
</svg>