<svg id="z31245" class="acjk" viewBox="0 0 1024 1024" xmlns="http://www.w3.org/2000/svg">

<style>
<![CDATA[
@keyframes zk { to { stroke-dashoffset:0; } }
svg.acjk path[clip-path] {
    --t:0.8s;
    animation:zk var(--t) linear forwards var(--d);
    stroke-dasharray:3337;
    stroke-dashoffset:3339;
    stroke-width:128;
    stroke-linecap:round;
    fill:none;
}
/* Low opacity for background improves visual overlap at intersections */
svg.acjk .bg { fill:#ccc; opacity: 0.5; } 
]]>
</style>
<defs>
    <clipPath id="z31245c1"><path d="M 325 233 C 358 219 416 187 457 172 C 480 163 482 152 467 142 C 430 116 397 107 374 112 C 368 112 367 119 368 127 C 369 154 305 200 184 273 C 178 276 181 284 186 284 C 233 273 258 260 296 245 C 315 237 315 237 325 233 Z"/></clipPath>
    <clipPath id="z31245c2"><path d="M 354 411 C 380 404 411 398 446 392 C 456 390 461 386 462 382 C 462 373 457 366 446 362 C 427 354 397 358 356 370 C 327 378 327 378 313 382 C 215 409 144 421 103 427 C 95 428 89 430 88 436 C 86 442 91 450 101 457 C 123 471 152 474 186 463 C 228 448 265 434 297 426 C 335 416 335 416 354 411 Z"/></clipPath>
    <clipPath id="z31245c3"><path d="M 353 494 C 353 466 352 438 354 411 C 355 384 355 384 356 370 C 359 305 381 267 325 233 C 316 228 291 236 296 245 C 304 257 314 303 313 382 C 312 462 312 462 311 502 C 308 627 311 723 289 780 C 283 793 283 813 302 857 C 309 875 337 915 349 886 C 357 865 358 844 358 823 C 354 716 353 617 353 526 C 353 505 353 505 353 494 Z"/></clipPath>
    <clipPath id="z31245c4"><path d="M 297 426 C 262 506 194 606 95 727 C 89 734 67 755 84 758 C 88 758 93 756 100 751 C 192 677 262 594 312 502 C 350 438 325 357 297 426 Z"/></clipPath>
    <clipPath id="z31245c5"><path d="M 353 526 C 357 528 378 545 414 580 C 420 586 428 590 437 590 C 443 590 446 586 449 579 C 451 572 453 559 446 545 C 434 523 388 503 353 494 C 343 491 344 520 353 526 Z"/></clipPath>
    <clipPath id="z31245c6"><path d="M 672 402 C 686 244 696 153 704 131 C 706 124 701 115 688 107 C 666 93 647 86 633 84 C 611 80 598 94 610 110 C 641 153 636 191 633 412 C 633 425 672 415 672 402 Z"/></clipPath>
    <clipPath id="z31245c7"><path d="M 498 278 C 515 313 531 338 549 350 C 556 354 565 353 572 346 C 577 340 581 332 581 322 C 580 293 557 268 516 248 C 507 243 500 241 495 241 C 491 241 489 244 489 252 C 488 258 492 266 498 278 Z"/></clipPath>
    <clipPath id="z31245c8"><path d="M 789 221 C 780 236 759 268 729 318 C 722 327 727 334 737 330 C 760 317 792 292 832 259 C 843 249 855 239 870 231 C 882 223 885 213 878 204 C 869 193 855 184 838 177 C 821 170 810 168 803 170 C 795 172 793 176 796 185 C 799 195 796 207 789 221 Z"/></clipPath>
    <clipPath id="z31245c9"><path d="M 563 658 C 564 627 565 600 567 576 C 568 560 568 560 568 552 C 569 518 572 473 575 450 C 577 441 571 430 563 425 C 551 415 523 405 510 407 C 501 408 498 415 502 423 C 535 495 525 619 503 753 C 495 800 474 835 503 874 C 523 902 534 853 540 837 C 559 778 561 708 562 685 C 563 667 563 667 563 658 Z"/></clipPath>
    <clipPath id="z31245c10"><path d="M 575 450 C 619 443 665 432 709 426 C 744 421 761 431 763 462 C 770 588 774 701 768 801 C 766 820 760 832 749 836 C 740 838 716 832 674 826 C 646 821 662 837 679 849 C 705 868 727 891 747 914 C 757 925 768 930 780 929 C 792 927 803 906 820 873 C 837 837 845 803 842 767 C 834 682 828 600 822 522 C 819 491 822 462 837 438 C 843 426 845 418 835 409 C 823 398 804 388 779 379 C 757 370 729 387 672 402 C 646 409 646 409 633 412 C 602 419 579 422 563 425 C 554 427 566 452 575 450 Z"/></clipPath>
    <clipPath id="z31245c11"><path d="M 567 576 C 614 573 670 561 715 555 C 729 552 734 546 729 539 C 722 530 711 524 695 522 C 675 519 632 530 568 552 C 560 555 559 576 567 576 Z"/></clipPath>
    <clipPath id="z31245c12"><path d="M 562 685 C 614 681 673 670 722 664 C 738 661 742 656 737 648 C 730 638 718 630 701 628 C 680 625 634 636 563 658 C 555 661 553 685 562 685 Z"/></clipPath>
</defs>
<g id="bg-layer">
    <path class="bg" d="M 325 233 C 358 219 416 187 457 172 C 480 163 482 152 467 142 C 430 116 397 107 374 112 C 368 112 367 119 368 127 C 369 154 305 200 184 273 C 178 276 181 284 186 284 C 233 273 258 260 296 245 C 315 237 315 237 325 233 Z"/>
    <path class="bg" d="M 354 411 C 380 404 411 398 446 392 C 456 390 461 386 462 382 C 462 373 457 366 446 362 C 427 354 397 358 356 370 C 327 378 327 378 313 382 C 215 409 144 421 103 427 C 95 428 89 430 88 436 C 86 442 91 450 101 457 C 123 471 152 474 186 463 C 228 448 265 434 297 426 C 335 416 335 416 354 411 Z"/>
    <path class="bg" d="M 353 494 C 353 466 352 438 354 411 C 355 384 355 384 356 370 C 359 305 381 267 325 233 C 316 228 291 236 296 245 C 304 257 314 303 313 382 C 312 462 312 462 311 502 C 308 627 311 723 289 780 C 283 793 283 813 302 857 C 309 875 337 915 349 886 C 357 865 358 844 358 823 C 354 716 353 617 353 526 C 353 505 353 505 353 494 Z"/>
    <path class="bg" d="M 297 426 C 262 506 194 606 95 727 C 89 734 67 755 84 758 C 88 758 93 756 100 751 C 192 677 262 594 312 502 C 350 438 325 357 297 426 Z"/>
    <path class="bg" d="M 353 526 C 357 528 378 545 414 580 C 420 586 428 590 437 590 C 443 590 446 586 449 579 C 451 572 453 559 446 545 C 434 523 388 503 353 494 C 343 491 344 520 353 526 Z"/>
    <path class="bg" d="M 672 402 C 686 244 696 153 704 131 C 706 124 701 115 688 107 C 666 93 647 86 633 84 C 611 80 598 94 610 110 C 641 153 636 191 633 412 C 633 425 672 415 672 402 Z"/>
    <path class="bg" d="M 498 278 C 515 313 531 338 549 350 C 556 354 565 353 572 346 C 577 340 581 332 581 322 C 580 293 557 268 516 248 C 507 243 500 241 495 241 C 491 241 489 244 489 252 C 488 258 492 266 498 278 Z"/>
    <path class="bg" d="M 789 221 C 780 236 759 268 729 318 C 722 327 727 334 737 330 C 760 317 792 292 832 259 C 843 249 855 239 870 231 C 882 223 885 213 878 204 C 869 193 855 184 838 177 C 821 170 810 168 803 170 C 795 172 793 176 796 185 C 799 195 796 207 789 221 Z"/>
    <path class="bg" d="M 563 658 C 564 627 565 600 567 576 C 568 560 568 560 568 552 C 569 518 572 473 575 450 C 577 441 571 430 563 425 C 551 415 523 405 510 407 C 501 408 498 415 502 423 C 535 495 525 619 503 753 C 495 800 474 835 503 874 C 523 902 534 853 540 837 C 559 778 561 708 562 685 C 563 667 563 667 563 658 Z"/>
    <path class="bg" d="M 575 450 C 619 443 665 432 709 426 C 744 421 761 431 763 462 C 770 588 774 701 768 801 C 766 820 760 832 749 836 C 740 838 716 832 674 826 C 646 821 662 837 679 849 C 705 868 727 891 747 914 C 757 925 768 930 780 929 C 792 927 803 906 820 873 C 837 837 845 803 842 767 C 834 682 828 600 822 522 C 819 491 822 462 837 438 C 843 426 845 418 835 409 C 823 398 804 388 779 379 C 757 370 729 387 672 402 C 646 409 646 409 633 412 C 602 419 579 422 563 425 C 554 427 566 452 575 450 Z"/>
    <path class="bg" d="M 567 576 C 614 573 670 561 715 555 C 729 552 734 546 729 539 C 722 530 711 524 695 522 C 675 519 632 530 568 552 C 560 555 559 576 567 576 Z"/>
    <path class="bg" d="M 562 685 C 614 681 673 670 722 664 C 738 661 742 656 737 648 C 730 638 718 630 701 628 C 680 625 634 636 563 658 C 555 661 553 685 562 685 Z"/>
</g>
<g id="anim-layer">
    <path style="--d:1s; stroke:#FF4444;" pathLength="3333" clip-path="url(#z31245c1)" d="M 375 118 L 417 163 L 188 278"/>
    <path style="--d:2s; stroke:#FF4444;" pathLength="3333" clip-path="url(#z31245c2)" d="M 94 436 L 144 445 L 456 377"/>
    <path style="--d:3s; stroke:#FF4444;" pathLength="3333" clip-path="url(#z31245c3)" d="M 301 240 L 336 304 L 330 891"/>
    <path style="--d:4s; stroke:#FF4444;" pathLength="3333" clip-path="url(#z31245c4)" d="M 318 405 L 261 542 L 85 751"/>
    <path style="--d:5s; stroke:#FF4444;" pathLength="3333" clip-path="url(#z31245c5)" d="M 354 499 L 443 581"/>
    <path style="--d:6s; stroke:#000;" pathLength="3333" clip-path="url(#z31245c6)" d="M 611 91 L 667 141 L 651 414"/>
    <path style="--d:7s; stroke:#000;" pathLength="3333" clip-path="url(#z31245c7)" d="M 496 251 L 574 341"/>
    <path style="--d:8s; stroke:#000;" pathLength="3333" clip-path="url(#z31245c8)" d="M 802 176 L 833 222 L 733 323"/>
    <path style="--d:9s; stroke:#000;" pathLength="3333" clip-path="url(#z31245c9)" d="M 507 416 L 546 461 L 509 874"/>
    <path style="--d:10s; stroke:#000;" pathLength="3333" clip-path="url(#z31245c10)" d="M 567 428 L 759 403 L 800 432 L 799 830 L 768 881 L 667 832"/>
    <path style="--d:11s; stroke:#000;" pathLength="3333" clip-path="url(#z31245c11)" d="M 565 567 L 724 543"/>
    <path style="--d:12s; stroke:#000;" pathLength="3333" clip-path="url(#z31245c12)" d="M 562 676 L 731 649"/>
</g>
</svg>