<svg id="z31262" class="acjk" viewBox="0 0 1024 1024" xmlns="http://www.w3.org/2000/svg">

<style>
<![CDATA[
@keyframes zk { to { stroke-dashoffset:0; } }
svg.acjk path[clip-path] {
    --t:0.8s;
    animation:zk var(--t) linear forwards var(--d);
    stroke-dasharray:3337;
    stroke-dashoffset:3339;
    stroke-width:128;
    stroke-linecap:round;
    fill:none;
}
/* Low opacity for background improves visual overlap at intersections */
svg.acjk .bg { fill:#ccc; opacity: 0.5; } 
]]>
</style>
<defs>
    <clipPath id="z31262c1"><path d="M 268 213 Q 319 180 378 162 Q 394 161 396 152 Q 399 142 387 133 Q 366 120 324 109 Q 309 103 298 106 Q 291 110 292 120 Q 295 157 116 261 Q 112 270 117 272 Q 129 272 212 237 Q 225 231 239 226 C 258 217 258 217 268 213 Z"/></clipPath>
    <clipPath id="z31262c2"><path d="M 295 394 Q 338 381 395 372 Q 410 369 410 362 Q 411 350 394 342 Q 361 330 297 352 C 268 359 268 359 254 363 Q 115 396 67 403 Q 55 404 52 413 Q 51 423 65 433 Q 99 454 156 437 Q 201 419 239 410 C 276 399 276 399 295 394 Z"/></clipPath>
    <clipPath id="z31262c3"><path d="M 293 454 Q 293 415 295 394 C 296 366 296 366 297 352 Q 300 288 307 257 Q 310 244 302 238 Q 284 222 268 213 C 259 208 234 217 239 226 Q 254 247 254 363 C 251 447 251 447 249 489 Q 249 595 223 739 Q 205 751 233 812 Q 245 848 264 859 Q 276 860 281 847 Q 294 814 291 784 Q 290 621 292 483 C 293 464 293 464 293 454 Z"/></clipPath>
    <clipPath id="z31262c4"><path d="M 239 410 Q 194 527 51 713 Q 47 722 56 722 Q 60 723 69 716 Q 178 626 249 489 C 287 425 267 341 239 410 Z"/></clipPath>
    <clipPath id="z31262c5"><path d="M 292 483 Q 344 555 363 557 Q 375 558 382 544 Q 385 532 378 514 Q 371 495 347 483 Q 311 459 295 454 C 294 454 294 454 293 454 C 283 452 286 475 292 483 Z"/></clipPath>
    <clipPath id="z31262c6"><path d="M 448 170 Q 439 166 421 163 Q 411 160 407 165 Q 400 171 408 186 Q 439 256 455 371 Q 458 405 477 429 Q 493 450 499 435 Q 500 429 502 423 C 505 415 503 406 503 397 Q 502 381 499 360 Q 477 231 473 199 C 471 186 460 175 448 170 Z"/></clipPath>
    <clipPath id="z31262c7"><path d="M 692 395 Q 708 422 724 431 Q 734 440 751 418 Q 770 391 809 239 Q 819 209 843 185 Q 856 173 845 159 Q 832 141 789 114 Q 770 104 690 124 Q 686 124 448 170 C 435 173 461 204 473 199 Q 513 186 572 175 C 593 171 593 171 603 169 Q 732 139 749 156 Q 762 174 759 191 Q 723 347 704 366 C 698 374 686 387 692 395 Z"/></clipPath>
    <clipPath id="z31262c8"><path d="M 626 295 Q 656 288 684 284 Q 706 280 697 267 Q 687 254 663 251 Q 647 250 626 255 C 596 266 596 266 581 271 Q 548 281 522 291 Q 506 295 526 309 C 563 306 563 306 582 305 C 611 298 611 298 626 295 Z"/></clipPath>
    <clipPath id="z31262c9"><path d="M 626 404 Q 659 398 692 395 C 702 393 714 369 704 366 Q 677 353 626 370 C 597 377 597 377 582 380 Q 540 387 503 397 C 495 400 493 423 502 423 Q 506 423 515 422 Q 549 415 583 411 C 612 406 612 406 626 404 Z"/></clipPath>
    <clipPath id="z31262c10"><path d="M 629 523 Q 701 511 858 510 Q 874 509 879 502 Q 883 492 869 480 Q 820 444 756 464 Q 702 473 625 489 C 596 494 596 494 582 496 Q 501 506 410 521 Q 392 522 406 537 Q 418 549 434 553 Q 452 557 466 553 Q 506 540 552 534 C 603 527 603 527 629 523 Z"/></clipPath>
    <clipPath id="z31262c11"><path d="M 625 489 Q 625 446 626 404 C 626 381 626 381 626 370 Q 626 337 627 305 Q 626 299 626 295 C 626 268 626 268 626 255 Q 627 209 630 200 Q 633 190 624 182 Q 617 176 603 169 C 593 165 568 165 572 175 Q 579 187 580 212 Q 580 240 581 271 C 582 294 582 294 582 305 Q 582 342 582 380 C 583 401 583 401 583 411 Q 583 453 582 496 C 581 555 581 555 580 585 Q 580 780 567 871 Q 564 910 588 942 Q 598 955 609 939 Q 627 906 627 833 Q 624 784 624 553 C 625 510 625 510 625 489 Z"/></clipPath>
    <clipPath id="z31262c12"><path d="M 552 534 Q 491 660 323 794 Q 311 806 320 807 Q 329 811 340 806 Q 463 755 562 609 Q 572 593 580 585 C 616 549 575 488 552 534 Z"/></clipPath>
    <clipPath id="z31262c13"><path d="M 624 553 Q 697 658 793 770 Q 812 789 841 788 Q 941 784 973 778 Q 983 777 984 771 Q 984 767 971 759 Q 818 699 762 647 Q 699 593 629 523 C 614 508 611 536 624 553 Z"/></clipPath>
</defs>
<g id="bg-layer">
    <path class="bg" d="M 268 213 Q 319 180 378 162 Q 394 161 396 152 Q 399 142 387 133 Q 366 120 324 109 Q 309 103 298 106 Q 291 110 292 120 Q 295 157 116 261 Q 112 270 117 272 Q 129 272 212 237 Q 225 231 239 226 C 258 217 258 217 268 213 Z"/>
    <path class="bg" d="M 295 394 Q 338 381 395 372 Q 410 369 410 362 Q 411 350 394 342 Q 361 330 297 352 C 268 359 268 359 254 363 Q 115 396 67 403 Q 55 404 52 413 Q 51 423 65 433 Q 99 454 156 437 Q 201 419 239 410 C 276 399 276 399 295 394 Z"/>
    <path class="bg" d="M 293 454 Q 293 415 295 394 C 296 366 296 366 297 352 Q 300 288 307 257 Q 310 244 302 238 Q 284 222 268 213 C 259 208 234 217 239 226 Q 254 247 254 363 C 251 447 251 447 249 489 Q 249 595 223 739 Q 205 751 233 812 Q 245 848 264 859 Q 276 860 281 847 Q 294 814 291 784 Q 290 621 292 483 C 293 464 293 464 293 454 Z"/>
    <path class="bg" d="M 239 410 Q 194 527 51 713 Q 47 722 56 722 Q 60 723 69 716 Q 178 626 249 489 C 287 425 267 341 239 410 Z"/>
    <path class="bg" d="M 292 483 Q 344 555 363 557 Q 375 558 382 544 Q 385 532 378 514 Q 371 495 347 483 Q 311 459 295 454 C 294 454 294 454 293 454 C 283 452 286 475 292 483 Z"/>
    <path class="bg" d="M 448 170 Q 439 166 421 163 Q 411 160 407 165 Q 400 171 408 186 Q 439 256 455 371 Q 458 405 477 429 Q 493 450 499 435 Q 500 429 502 423 C 505 415 503 406 503 397 Q 502 381 499 360 Q 477 231 473 199 C 471 186 460 175 448 170 Z"/>
    <path class="bg" d="M 692 395 Q 708 422 724 431 Q 734 440 751 418 Q 770 391 809 239 Q 819 209 843 185 Q 856 173 845 159 Q 832 141 789 114 Q 770 104 690 124 Q 686 124 448 170 C 435 173 461 204 473 199 Q 513 186 572 175 C 593 171 593 171 603 169 Q 732 139 749 156 Q 762 174 759 191 Q 723 347 704 366 C 698 374 686 387 692 395 Z"/>
    <path class="bg" d="M 626 295 Q 656 288 684 284 Q 706 280 697 267 Q 687 254 663 251 Q 647 250 626 255 C 596 266 596 266 581 271 Q 548 281 522 291 Q 506 295 526 309 C 563 306 563 306 582 305 C 611 298 611 298 626 295 Z"/>
    <path class="bg" d="M 626 404 Q 659 398 692 395 C 702 393 714 369 704 366 Q 677 353 626 370 C 597 377 597 377 582 380 Q 540 387 503 397 C 495 400 493 423 502 423 Q 506 423 515 422 Q 549 415 583 411 C 612 406 612 406 626 404 Z"/>
    <path class="bg" d="M 629 523 Q 701 511 858 510 Q 874 509 879 502 Q 883 492 869 480 Q 820 444 756 464 Q 702 473 625 489 C 596 494 596 494 582 496 Q 501 506 410 521 Q 392 522 406 537 Q 418 549 434 553 Q 452 557 466 553 Q 506 540 552 534 C 603 527 603 527 629 523 Z"/>
    <path class="bg" d="M 625 489 Q 625 446 626 404 C 626 381 626 381 626 370 Q 626 337 627 305 Q 626 299 626 295 C 626 268 626 268 626 255 Q 627 209 630 200 Q 633 190 624 182 Q 617 176 603 169 C 593 165 568 165 572 175 Q 579 187 580 212 Q 580 240 581 271 C 582 294 582 294 582 305 Q 582 342 582 380 C 583 401 583 401 583 411 Q 583 453 582 496 C 581 555 581 555 580 585 Q 580 780 567 871 Q 564 910 588 942 Q 598 955 609 939 Q 627 906 627 833 Q 624 784 624 553 C 625 510 625 510 625 489 Z"/>
    <path class="bg" d="M 552 534 Q 491 660 323 794 Q 311 806 320 807 Q 329 811 340 806 Q 463 755 562 609 Q 572 593 580 585 C 616 549 575 488 552 534 Z"/>
    <path class="bg" d="M 624 553 Q 697 658 793 770 Q 812 789 841 788 Q 941 784 973 778 Q 983 777 984 771 Q 984 767 971 759 Q 818 699 762 647 Q 699 593 629 523 C 614 508 611 536 624 553 Z"/>
</g>
<g id="anim-layer">
    <path style="--d:1s; stroke:#FF4444;" pathLength="3333" clip-path="url(#z31262c1)" d="M 300 115 L 336 155 L 120 266"/>
    <path style="--d:2s; stroke:#FF4444;" pathLength="3333" clip-path="url(#z31262c2)" d="M 56 413 L 118 419 L 404 358"/>
    <path style="--d:3s; stroke:#FF4444;" pathLength="3333" clip-path="url(#z31262c3)" d="M 246 223 L 278 257 L 262 854"/>
    <path style="--d:4s; stroke:#FF4444;" pathLength="3333" clip-path="url(#z31262c4)" d="M 257 391 L 194 544 L 56 715"/>
    <path style="--d:5s; stroke:#FF4444;" pathLength="3333" clip-path="url(#z31262c5)" d="M 294 462 L 369 550"/>
    <path style="--d:6s; stroke:#000;" pathLength="3333" clip-path="url(#z31262c6)" d="M 411 168 L 445 203 L 489 437"/>
    <path style="--d:7s; stroke:#000;" pathLength="3333" clip-path="url(#z31262c7)" d="M 453 175 L 727 132 L 781 144 L 803 179 L 716 424"/>
    <path style="--d:8s; stroke:#000;" pathLength="3333" clip-path="url(#z31262c8)" d="M 520 298 L 695 269"/>
    <path style="--d:9s; stroke:#000;" pathLength="3333" clip-path="url(#z31262c9)" d="M 502 414 L 704 376"/>
    <path style="--d:10s; stroke:#000;" pathLength="3333" clip-path="url(#z31262c10)" d="M 407 526 L 873 490"/>
    <path style="--d:11s; stroke:#000;" pathLength="3333" clip-path="url(#z31262c11)" d="M 579 170 L 604 199 L 598 942"/>
    <path style="--d:12s; stroke:#000;" pathLength="3333" clip-path="url(#z31262c12)" d="M 573 521 L 560 571 L 478 680 L 323 802"/>
    <path style="--d:13s; stroke:#000;" pathLength="3333" clip-path="url(#z31262c13)" d="M 622 524 L 830 744 L 977 768"/>
</g>
</svg>