<svg id="z31278" class="acjk" viewBox="0 0 1024 1024" xmlns="http://www.w3.org/2000/svg">

<style>
<![CDATA[
@keyframes zk { to { stroke-dashoffset:0; } }
svg.acjk path[clip-path] {
    --t:0.8s;
    animation:zk var(--t) linear forwards var(--d);
    stroke-dasharray:3337;
    stroke-dashoffset:3339;
    stroke-width:128;
    stroke-linecap:round;
    fill:none;
}
/* Low opacity for background improves visual overlap at intersections */
svg.acjk .bg { fill:#ccc; opacity: 0.5; } 
]]>
</style>
<defs>
    <clipPath id="z31278c1"><path d="M 294 221 C 328 207 391 178 428 168 C 438 165 445 164 447 159 C 449 152 446 144 438 138 C 400 112 369 100 347 105 C 341 106 339 112 340 120 C 340 142 278 183 160 253 C 154 256 157 263 162 264 C 188 264 246 239 266 232 C 285 225 285 225 294 221 Z"/></clipPath>
    <clipPath id="z31278c2"><path d="M 330 388 C 354 381 382 375 414 369 C 424 367 430 363 431 359 C 431 350 425 343 413 338 C 393 329 366 334 332 344 C 301 353 301 353 285 357 C 193 382 127 395 87 401 C 78 402 73 405 72 411 C 70 417 74 424 85 432 C 110 448 137 452 165 442 C 207 425 244 411 276 403 C 312 393 312 393 330 388 Z"/></clipPath>
    <clipPath id="z31278c3"><path d="M 282 499 C 280 591 279 686 258 781 C 248 825 255 866 296 907 C 299 910 299 910 300 911 C 306 917 314 907 318 898 C 326 875 328 853 328 832 C 324 710 327 598 327 496 C 327 481 327 481 327 474 C 327 456 328 427 330 388 C 331 359 331 359 332 344 C 333 312 336 287 340 271 C 341 262 339 256 335 252 C 319 238 306 227 294 221 C 285 216 260 224 266 232 C 278 244 286 285 285 357 C 283 452 283 452 282 499 Z"/></clipPath>
    <clipPath id="z31278c4"><path d="M 276 403 C 238 495 160 608 47 743 C 41 748 44 753 52 754 C 56 754 61 752 68 747 C 154 679 225 596 283 499 C 331 419 311 316 276 403 Z"/></clipPath>
    <clipPath id="z31278c5"><path d="M 327 496 C 331 500 336 505 344 511 C 362 525 380 542 398 560 C 404 566 412 570 421 570 C 427 570 430 566 433 559 C 435 552 434 541 430 525 C 425 507 396 490 341 474 C 334 472 330 472 327 474 C 320 475 322 491 327 496 Z"/></clipPath>
    <clipPath id="z31278c6"><path d="M 643 190 C 689 175 729 160 775 151 C 785 148 792 148 795 144 C 798 137 795 129 788 123 C 775 111 755 100 728 88 C 718 83 708 79 701 81 C 696 81 692 87 692 95 C 691 121 620 159 481 217 C 476 219 477 226 481 228 C 488 231 562 214 604 202 C 630 194 630 194 643 190 Z"/></clipPath>
    <clipPath id="z31278c7"><path d="M 680 309 C 698 305 773 297 904 286 C 914 285 922 283 925 278 C 928 271 924 263 914 256 C 880 233 846 232 810 243 C 776 253 733 263 682 274 C 649 281 649 281 632 284 C 575 295 514 307 449 320 C 437 322 435 328 446 337 C 464 351 487 355 514 347 C 550 335 589 324 633 317 C 664 312 664 312 680 309 Z"/></clipPath>
    <clipPath id="z31278c8"><path d="M 501 411 C 494 408 484 405 470 404 C 463 403 458 404 456 407 C 453 409 454 416 459 426 C 478 464 496 516 508 582 C 511 600 517 616 529 630 C 539 642 547 644 550 635 C 551 630 552 625 552 620 C 551 599 551 599 551 589 C 550 583 549 577 548 571 C 534 508 525 465 521 443 C 519 431 513 416 501 411 Z"/></clipPath>
    <clipPath id="z31278c9"><path d="M 741 592 C 751 608 762 620 772 627 C 778 631 787 628 798 615 C 808 601 823 555 847 479 C 853 458 864 440 880 425 C 888 416 889 408 882 399 C 872 388 854 373 827 356 C 815 348 786 354 740 364 C 722 367 702 371 679 376 C 648 382 648 382 633 385 C 620 387 529 405 501 411 C 489 413 509 447 521 443 C 551 432 588 422 632 415 C 663 410 663 410 678 407 C 740 396 776 389 790 400 C 798 406 800 415 798 427 C 777 509 762 555 752 565 C 746 573 735 584 741 592 Z"/></clipPath>
    <clipPath id="z31278c10"><path d="M 676 506 C 694 503 713 501 731 499 C 745 496 750 490 745 483 C 738 474 727 468 711 465 C 701 463 689 462 677 466 C 646 474 646 474 631 478 C 607 484 586 490 567 496 C 556 498 557 503 570 514 C 572 515 591 518 630 513 C 661 508 661 508 676 506 Z"/></clipPath>
    <clipPath id="z31278c11"><path d="M 674 600 C 694 597 716 594 741 592 C 751 592 760 571 752 565 C 749 562 746 559 742 558 C 728 551 706 557 675 564 C 644 571 644 571 629 574 C 601 580 575 583 551 589 C 541 591 542 622 552 620 C 572 616 608 608 629 606 C 659 602 659 602 674 600 Z"/></clipPath>
    <clipPath id="z31278c12"><path d="M 672 805 C 672 805 671 753 672 728 C 673 698 673 698 673 683 C 673 654 673 626 674 600 C 675 576 675 576 675 564 C 675 544 675 524 676 506 C 677 479 677 479 677 466 C 677 446 677 426 678 407 C 679 386 679 386 679 376 C 679 353 678 331 680 309 C 681 286 681 286 682 274 C 682 264 685 255 687 249 C 690 236 686 226 680 219 C 667 206 655 196 643 190 C 631 183 599 189 604 202 C 618 230 631 257 632 284 C 633 306 633 306 633 317 C 633 339 633 362 633 385 C 632 405 632 405 632 415 C 631 421 631 466 631 478 C 630 501 630 501 630 513 C 629 531 629 552 629 574 C 629 595 629 595 629 606 C 629 634 627 664 627 697 C 626 724 626 724 626 738 C 625 762 626 810 626 810 C 626 825 672 820 672 805 Z"/></clipPath>
    <clipPath id="z31278c13"><path d="M 672 728 C 747 711 785 699 787 698 C 793 693 794 688 791 683 C 786 676 775 669 758 666 C 735 661 708 672 673 683 C 642 692 642 692 627 697 C 598 705 564 709 524 714 C 501 716 497 725 515 735 C 546 752 578 748 626 738 C 657 731 657 731 672 728 Z"/></clipPath>
    <clipPath id="z31278c14"><path d="M 626 810 C 562 816 493 823 421 831 C 407 832 404 838 415 849 C 423 858 433 865 445 869 C 458 873 470 873 481 871 C 590 844 726 835 886 841 C 898 841 910 841 922 842 C 934 842 942 839 946 834 C 950 827 947 818 936 809 C 900 780 868 774 841 780 C 797 789 741 797 672 805 C 641 808 641 808 626 810 Z"/></clipPath>
</defs>
<g id="bg-layer">
    <path class="bg" d="M 294 221 C 328 207 391 178 428 168 C 438 165 445 164 447 159 C 449 152 446 144 438 138 C 400 112 369 100 347 105 C 341 106 339 112 340 120 C 340 142 278 183 160 253 C 154 256 157 263 162 264 C 188 264 246 239 266 232 C 285 225 285 225 294 221 Z"/>
    <path class="bg" d="M 330 388 C 354 381 382 375 414 369 C 424 367 430 363 431 359 C 431 350 425 343 413 338 C 393 329 366 334 332 344 C 301 353 301 353 285 357 C 193 382 127 395 87 401 C 78 402 73 405 72 411 C 70 417 74 424 85 432 C 110 448 137 452 165 442 C 207 425 244 411 276 403 C 312 393 312 393 330 388 Z"/>
    <path class="bg" d="M 282 499 C 280 591 279 686 258 781 C 248 825 255 866 296 907 C 299 910 299 910 300 911 C 306 917 314 907 318 898 C 326 875 328 853 328 832 C 324 710 327 598 327 496 C 327 481 327 481 327 474 C 327 456 328 427 330 388 C 331 359 331 359 332 344 C 333 312 336 287 340 271 C 341 262 339 256 335 252 C 319 238 306 227 294 221 C 285 216 260 224 266 232 C 278 244 286 285 285 357 C 283 452 283 452 282 499 Z"/>
    <path class="bg" d="M 276 403 C 238 495 160 608 47 743 C 41 748 44 753 52 754 C 56 754 61 752 68 747 C 154 679 225 596 283 499 C 331 419 311 316 276 403 Z"/>
    <path class="bg" d="M 327 496 C 331 500 336 505 344 511 C 362 525 380 542 398 560 C 404 566 412 570 421 570 C 427 570 430 566 433 559 C 435 552 434 541 430 525 C 425 507 396 490 341 474 C 334 472 330 472 327 474 C 320 475 322 491 327 496 Z"/>
    <path class="bg" d="M 643 190 C 689 175 729 160 775 151 C 785 148 792 148 795 144 C 798 137 795 129 788 123 C 775 111 755 100 728 88 C 718 83 708 79 701 81 C 696 81 692 87 692 95 C 691 121 620 159 481 217 C 476 219 477 226 481 228 C 488 231 562 214 604 202 C 630 194 630 194 643 190 Z"/>
    <path class="bg" d="M 680 309 C 698 305 773 297 904 286 C 914 285 922 283 925 278 C 928 271 924 263 914 256 C 880 233 846 232 810 243 C 776 253 733 263 682 274 C 649 281 649 281 632 284 C 575 295 514 307 449 320 C 437 322 435 328 446 337 C 464 351 487 355 514 347 C 550 335 589 324 633 317 C 664 312 664 312 680 309 Z"/>
    <path class="bg" d="M 501 411 C 494 408 484 405 470 404 C 463 403 458 404 456 407 C 453 409 454 416 459 426 C 478 464 496 516 508 582 C 511 600 517 616 529 630 C 539 642 547 644 550 635 C 551 630 552 625 552 620 C 551 599 551 599 551 589 C 550 583 549 577 548 571 C 534 508 525 465 521 443 C 519 431 513 416 501 411 Z"/>
    <path class="bg" d="M 741 592 C 751 608 762 620 772 627 C 778 631 787 628 798 615 C 808 601 823 555 847 479 C 853 458 864 440 880 425 C 888 416 889 408 882 399 C 872 388 854 373 827 356 C 815 348 786 354 740 364 C 722 367 702 371 679 376 C 648 382 648 382 633 385 C 620 387 529 405 501 411 C 489 413 509 447 521 443 C 551 432 588 422 632 415 C 663 410 663 410 678 407 C 740 396 776 389 790 400 C 798 406 800 415 798 427 C 777 509 762 555 752 565 C 746 573 735 584 741 592 Z"/>
    <path class="bg" d="M 676 506 C 694 503 713 501 731 499 C 745 496 750 490 745 483 C 738 474 727 468 711 465 C 701 463 689 462 677 466 C 646 474 646 474 631 478 C 607 484 586 490 567 496 C 556 498 557 503 570 514 C 572 515 591 518 630 513 C 661 508 661 508 676 506 Z"/>
    <path class="bg" d="M 674 600 C 694 597 716 594 741 592 C 751 592 760 571 752 565 C 749 562 746 559 742 558 C 728 551 706 557 675 564 C 644 571 644 571 629 574 C 601 580 575 583 551 589 C 541 591 542 622 552 620 C 572 616 608 608 629 606 C 659 602 659 602 674 600 Z"/>
    <path class="bg" d="M 672 805 C 672 805 671 753 672 728 C 673 698 673 698 673 683 C 673 654 673 626 674 600 C 675 576 675 576 675 564 C 675 544 675 524 676 506 C 677 479 677 479 677 466 C 677 446 677 426 678 407 C 679 386 679 386 679 376 C 679 353 678 331 680 309 C 681 286 681 286 682 274 C 682 264 685 255 687 249 C 690 236 686 226 680 219 C 667 206 655 196 643 190 C 631 183 599 189 604 202 C 618 230 631 257 632 284 C 633 306 633 306 633 317 C 633 339 633 362 633 385 C 632 405 632 405 632 415 C 631 421 631 466 631 478 C 630 501 630 501 630 513 C 629 531 629 552 629 574 C 629 595 629 595 629 606 C 629 634 627 664 627 697 C 626 724 626 724 626 738 C 625 762 626 810 626 810 C 626 825 672 820 672 805 Z"/>
    <path class="bg" d="M 672 728 C 747 711 785 699 787 698 C 793 693 794 688 791 683 C 786 676 775 669 758 666 C 735 661 708 672 673 683 C 642 692 642 692 627 697 C 598 705 564 709 524 714 C 501 716 497 725 515 735 C 546 752 578 748 626 738 C 657 731 657 731 672 728 Z"/>
    <path class="bg" d="M 626 810 C 562 816 493 823 421 831 C 407 832 404 838 415 849 C 423 858 433 865 445 869 C 458 873 470 873 481 871 C 590 844 726 835 886 841 C 898 841 910 841 922 842 C 934 842 942 839 946 834 C 950 827 947 818 936 809 C 900 780 868 774 841 780 C 797 789 741 797 672 805 C 641 808 641 808 626 810 Z"/>
</g>
<g id="anim-layer">
    <path style="--d:1s; stroke:#FF4444;" pathLength="3333" clip-path="url(#z31278c1)" d="M 348 108 L 389 157 L 164 258"/>
    <path style="--d:2s; stroke:#FF4444;" pathLength="3333" clip-path="url(#z31278c2)" d="M 80 413 L 143 419 L 423 353"/>
    <path style="--d:3s; stroke:#FF4444;" pathLength="3333" clip-path="url(#z31278c3)" d="M 273 229 L 310 267 L 296 906"/>
    <path style="--d:4s; stroke:#FF4444;" pathLength="3333" clip-path="url(#z31278c4)" d="M 299 377 L 219 555 L 52 746"/>
    <path style="--d:5s; stroke:#FF4444;" pathLength="3333" clip-path="url(#z31278c5)" d="M 330 481 L 428 561"/>
    <path style="--d:6s; stroke:#000;" pathLength="3333" clip-path="url(#z31278c6)" d="M 702 88 L 739 133 L 486 221"/>
    <path style="--d:7s; stroke:#000;" pathLength="3333" clip-path="url(#z31278c7)" d="M 448 329 L 829 265 L 920 271"/>
    <path style="--d:8s; stroke:#000;" pathLength="3333" clip-path="url(#z31278c8)" d="M 461 410 L 499 455 L 540 635"/>
    <path style="--d:9s; stroke:#000;" pathLength="3333" clip-path="url(#z31278c9)" d="M 503 417 L 814 381 L 842 418 L 762 618"/>
    <path style="--d:10s; stroke:#000;" pathLength="3333" clip-path="url(#z31278c10)" d="M 568 503 L 740 485"/>
    <path style="--d:11s; stroke:#000;" pathLength="3333" clip-path="url(#z31278c11)" d="M 550 607 L 750 572"/>
    <path style="--d:12s; stroke:#000;" pathLength="3333" clip-path="url(#z31278c12)" d="M 611 200 L 657 256 L 639 816"/>
    <path style="--d:13s; stroke:#000;" pathLength="3333" clip-path="url(#z31278c13)" d="M 512 723 L 784 687"/>
    <path style="--d:14s; stroke:#000;" pathLength="3333" clip-path="url(#z31278c14)" d="M 415 839 L 846 809 L 943 825"/>
</g>
</svg>