<svg id="z31291" class="acjk" viewBox="0 0 1024 1024" xmlns="http://www.w3.org/2000/svg">

<style>
<![CDATA[
@keyframes zk { to { stroke-dashoffset:0; } }
svg.acjk path[clip-path] {
    --t:0.8s;
    animation:zk var(--t) linear forwards var(--d);
    stroke-dasharray:3337;
    stroke-dashoffset:3339;
    stroke-width:128;
    stroke-linecap:round;
    fill:none;
}
/* Low opacity for background improves visual overlap at intersections */
svg.acjk .bg { fill:#ccc; opacity: 0.5; } 
]]>
</style>
<defs>
    <clipPath id="z31291c1"><path d="M 283 228 C 336 211 376 195 408 191 C 418 189 425 188 428 184 C 431 177 428 169 421 163 C 408 151 387 141 359 129 C 350 124 341 120 332 122 C 326 123 324 129 324 136 C 323 161 256 199 125 257 C 120 259 121 268 125 268 C 176 262 239 241 253 237 C 273 231 273 231 283 228 Z"/></clipPath>
    <clipPath id="z31291c2"><path d="M 311 406 C 341 398 375 388 414 381 C 424 378 430 375 431 371 C 431 362 425 354 413 350 C 391 341 358 348 312 361 C 285 368 285 368 271 372 C 191 393 131 403 95 409 C 86 410 81 413 80 419 C 78 425 82 432 93 440 C 111 452 130 457 149 455 C 175 451 204 433 256 420 C 293 411 293 411 311 406 Z"/></clipPath>
    <clipPath id="z31291c3"><path d="M 310 472 C 310 450 310 428 311 406 C 312 376 312 376 312 361 C 312 320 315 288 319 269 C 320 260 317 254 314 251 C 303 241 293 233 283 228 C 274 223 247 229 253 237 C 265 253 271 300 271 372 C 270 456 270 456 270 498 C 269 623 270 716 250 769 C 245 780 244 798 258 836 C 264 852 277 875 292 882 C 298 884 304 878 308 870 C 316 849 316 829 316 810 C 310 699 310 596 310 502 C 310 482 310 482 310 472 Z"/></clipPath>
    <clipPath id="z31291c4"><path d="M 256 420 C 220 508 147 618 42 755 C 37 760 41 765 48 766 C 52 766 56 763 63 758 C 148 684 218 598 271 498 C 299 429 284 351 256 420 Z"/></clipPath>
    <clipPath id="z31291c5"><path d="M 310 502 C 340 540 360 559 373 561 C 379 561 386 558 389 549 C 390 542 389 533 385 523 C 379 510 368 501 355 494 C 336 483 321 476 310 472 C 301 468 304 494 310 502 Z"/></clipPath>
    <clipPath id="z31291c6"><path d="M 695 119 C 655 147 599 171 528 202 C 522 204 523 212 527 214 C 542 221 607 204 687 184 C 712 177 751 164 775 163 C 785 162 791 162 794 156 C 797 150 797 140 791 133 C 761 95 734 78 718 81 C 713 81 710 86 709 95 C 706 104 703 113 695 119 Z"/></clipPath>
    <clipPath id="z31291c7"><path d="M 461 327 Q 480 349 499 378 Q 506 390 519 391 Q 528 392 533 383 Q 539 373 537 349 Q 534 322 465 290 Q 453 284 448 286 Q 444 287 443 298 Q 444 307 461 327 Z"/></clipPath>
    <clipPath id="z31291c8"><path d="M 593 286 Q 617 331 640 350 Q 650 354 660 347 Q 667 338 668 325 Q 665 294 610 260 Q 598 253 590 254 Q 586 254 585 264 Q 584 273 593 286 Z"/></clipPath>
    <clipPath id="z31291c9"><path d="M 791 267 Q 769 300 687 390 Q 677 406 694 403 Q 713 391 831 311 Q 850 295 874 286 Q 895 276 884 259 Q 871 243 846 227 Q 824 214 811 216 Q 798 217 802 231 Q 805 249 791 267 Z"/></clipPath>
    <clipPath id="z31291c10"><path d="M 480 539 C 520 512 567 484 589 475 C 599 470 604 462 599 454 C 593 444 583 437 571 429 C 561 422 552 419 546 418 C 538 417 536 422 536 429 C 531 462 507 482 466 526 C 461 531 475 543 480 539 Z"/></clipPath>
    <clipPath id="z31291c11"><path d="M 466 526 C 459 522 446 518 429 514 C 420 511 416 511 413 515 C 408 519 409 525 414 537 C 435 593 450 666 456 755 C 457 781 462 804 477 824 C 495 848 500 833 505 808 C 507 796 507 783 506 772 C 501 730 497 705 493 670 C 490 649 490 649 489 638 C 485 609 481 555 480 539 C 480 533 472 529 466 526 Z"/></clipPath>
    <clipPath id="z31291c12"><path d="M 493 670 C 531 661 566 655 596 649 C 610 645 615 638 610 632 C 602 622 589 616 572 615 C 545 612 517 620 489 638 C 480 644 482 672 493 670 Z"/></clipPath>
    <clipPath id="z31291c13"><path d="M 772 789 C 772 806 774 830 789 860 C 808 899 823 867 832 850 C 853 806 867 757 874 700 C 878 663 884 625 890 584 C 893 555 904 532 921 516 C 931 505 933 495 927 487 C 915 472 895 459 870 445 C 859 438 843 436 824 443 C 805 448 786 456 766 461 C 746 465 721 469 691 472 C 686 472 682 472 682 475 C 680 478 683 483 690 488 C 707 499 728 503 752 499 C 802 489 829 486 833 494 C 836 502 839 511 839 521 C 838 547 834 575 831 604 C 828 629 828 629 826 641 C 822 666 818 692 812 718 C 808 737 802 762 791 770 C 785 776 772 780 772 789 Z"/></clipPath>
    <clipPath id="z31291c14"><path d="M 831 604 C 812 594 768 601 697 619 C 685 621 685 626 699 639 C 703 643 710 644 720 644 C 758 641 794 641 826 641 C 838 641 843 609 831 604 Z"/></clipPath>
    <clipPath id="z31291c15"><path d="M 505 808 C 515 810 554 800 772 789 C 781 789 796 777 791 770 C 752 711 741 746 506 772 C 494 774 493 808 505 808 Z"/></clipPath>
</defs>
<g id="bg-layer">
    <path class="bg" d="M 283 228 C 336 211 376 195 408 191 C 418 189 425 188 428 184 C 431 177 428 169 421 163 C 408 151 387 141 359 129 C 350 124 341 120 332 122 C 326 123 324 129 324 136 C 323 161 256 199 125 257 C 120 259 121 268 125 268 C 176 262 239 241 253 237 C 273 231 273 231 283 228 Z"/>
    <path class="bg" d="M 311 406 C 341 398 375 388 414 381 C 424 378 430 375 431 371 C 431 362 425 354 413 350 C 391 341 358 348 312 361 C 285 368 285 368 271 372 C 191 393 131 403 95 409 C 86 410 81 413 80 419 C 78 425 82 432 93 440 C 111 452 130 457 149 455 C 175 451 204 433 256 420 C 293 411 293 411 311 406 Z"/>
    <path class="bg" d="M 310 472 C 310 450 310 428 311 406 C 312 376 312 376 312 361 C 312 320 315 288 319 269 C 320 260 317 254 314 251 C 303 241 293 233 283 228 C 274 223 247 229 253 237 C 265 253 271 300 271 372 C 270 456 270 456 270 498 C 269 623 270 716 250 769 C 245 780 244 798 258 836 C 264 852 277 875 292 882 C 298 884 304 878 308 870 C 316 849 316 829 316 810 C 310 699 310 596 310 502 C 310 482 310 482 310 472 Z"/>
    <path class="bg" d="M 256 420 C 220 508 147 618 42 755 C 37 760 41 765 48 766 C 52 766 56 763 63 758 C 148 684 218 598 271 498 C 299 429 284 351 256 420 Z"/>
    <path class="bg" d="M 310 502 C 340 540 360 559 373 561 C 379 561 386 558 389 549 C 390 542 389 533 385 523 C 379 510 368 501 355 494 C 336 483 321 476 310 472 C 301 468 304 494 310 502 Z"/>
    <path class="bg" d="M 695 119 C 655 147 599 171 528 202 C 522 204 523 212 527 214 C 542 221 607 204 687 184 C 712 177 751 164 775 163 C 785 162 791 162 794 156 C 797 150 797 140 791 133 C 761 95 734 78 718 81 C 713 81 710 86 709 95 C 706 104 703 113 695 119 Z"/>
    <path class="bg" d="M 461 327 Q 480 349 499 378 Q 506 390 519 391 Q 528 392 533 383 Q 539 373 537 349 Q 534 322 465 290 Q 453 284 448 286 Q 444 287 443 298 Q 444 307 461 327 Z"/>
    <path class="bg" d="M 593 286 Q 617 331 640 350 Q 650 354 660 347 Q 667 338 668 325 Q 665 294 610 260 Q 598 253 590 254 Q 586 254 585 264 Q 584 273 593 286 Z"/>
    <path class="bg" d="M 791 267 Q 769 300 687 390 Q 677 406 694 403 Q 713 391 831 311 Q 850 295 874 286 Q 895 276 884 259 Q 871 243 846 227 Q 824 214 811 216 Q 798 217 802 231 Q 805 249 791 267 Z"/>
    <path class="bg" d="M 480 539 C 520 512 567 484 589 475 C 599 470 604 462 599 454 C 593 444 583 437 571 429 C 561 422 552 419 546 418 C 538 417 536 422 536 429 C 531 462 507 482 466 526 C 461 531 475 543 480 539 Z"/>
    <path class="bg" d="M 466 526 C 459 522 446 518 429 514 C 420 511 416 511 413 515 C 408 519 409 525 414 537 C 435 593 450 666 456 755 C 457 781 462 804 477 824 C 495 848 500 833 505 808 C 507 796 507 783 506 772 C 501 730 497 705 493 670 C 490 649 490 649 489 638 C 485 609 481 555 480 539 C 480 533 472 529 466 526 Z"/>
    <path class="bg" d="M 493 670 C 531 661 566 655 596 649 C 610 645 615 638 610 632 C 602 622 589 616 572 615 C 545 612 517 620 489 638 C 480 644 482 672 493 670 Z"/>
    <path class="bg" d="M 772 789 C 772 806 774 830 789 860 C 808 899 823 867 832 850 C 853 806 867 757 874 700 C 878 663 884 625 890 584 C 893 555 904 532 921 516 C 931 505 933 495 927 487 C 915 472 895 459 870 445 C 859 438 843 436 824 443 C 805 448 786 456 766 461 C 746 465 721 469 691 472 C 686 472 682 472 682 475 C 680 478 683 483 690 488 C 707 499 728 503 752 499 C 802 489 829 486 833 494 C 836 502 839 511 839 521 C 838 547 834 575 831 604 C 828 629 828 629 826 641 C 822 666 818 692 812 718 C 808 737 802 762 791 770 C 785 776 772 780 772 789 Z"/>
    <path class="bg" d="M 831 604 C 812 594 768 601 697 619 C 685 621 685 626 699 639 C 703 643 710 644 720 644 C 758 641 794 641 826 641 C 838 641 843 609 831 604 Z"/>
    <path class="bg" d="M 505 808 C 515 810 554 800 772 789 C 781 789 796 777 791 770 C 752 711 741 746 506 772 C 494 774 493 808 505 808 Z"/>
</g>
<g id="anim-layer">
    <path style="--d:1s; stroke:#FF4444;" pathLength="3333" clip-path="url(#z31291c1)" d="M 335 126 L 366 181 L 130 261"/>
    <path style="--d:2s; stroke:#FF4444;" pathLength="3333" clip-path="url(#z31291c2)" d="M 88 421 L 142 428 L 423 363"/>
    <path style="--d:3s; stroke:#FF4444;" pathLength="3333" clip-path="url(#z31291c3)" d="M 259 238 L 292 271 L 289 874"/>
    <path style="--d:4s; stroke:#FF4444;" pathLength="3333" clip-path="url(#z31291c4)" d="M 274 400 L 220 541 L 48 758"/>
    <path style="--d:5s; stroke:#FF4444;" pathLength="3333" clip-path="url(#z31291c5)" d="M 310 479 L 376 556"/>
    <path style="--d:6s; stroke:#000;" pathLength="3333" clip-path="url(#z31291c6)" d="M 720 87 L 740 141 L 532 207"/>
    <path style="--d:7s; stroke:#000;" pathLength="3333" clip-path="url(#z31291c7)" d="M 451 290 L 526 383"/>
    <path style="--d:8s; stroke:#000;" pathLength="3333" clip-path="url(#z31291c8)" d="M 595 264 L 655 345"/>
    <path style="--d:9s; stroke:#000;" pathLength="3333" clip-path="url(#z31291c9)" d="M 808 224 L 833 278 L 690 395"/>
    <path style="--d:10s; stroke:#000;" pathLength="3333" clip-path="url(#z31291c10)" d="M 545 425 L 562 462 L 473 532"/>
    <path style="--d:11s; stroke:#000;" pathLength="3333" clip-path="url(#z31291c11)" d="M 419 523 L 451 552 L 489 828"/>
    <path style="--d:12s; stroke:#000;" pathLength="3333" clip-path="url(#z31291c12)" d="M 490 660 L 606 637"/>
    <path style="--d:13s; stroke:#000;" pathLength="3333" clip-path="url(#z31291c13)" d="M 687 477 L 840 465 L 884 507 L 796 870"/>
    <path style="--d:14s; stroke:#000;" pathLength="3333" clip-path="url(#z31291c14)" d="M 697 628 L 835 623"/>
    <path style="--d:15s; stroke:#000;" pathLength="3333" clip-path="url(#z31291c15)" d="M 501 796 L 786 770"/>
</g>
</svg>