<svg id="z31295" class="acjk" viewBox="0 0 1024 1024" xmlns="http://www.w3.org/2000/svg">

<style>
<![CDATA[
@keyframes zk { to { stroke-dashoffset:0; } }
svg.acjk path[clip-path] {
    --t:0.8s;
    animation:zk var(--t) linear forwards var(--d);
    stroke-dasharray:3337;
    stroke-dashoffset:3339;
    stroke-width:128;
    stroke-linecap:round;
    fill:none;
}
/* Low opacity for background improves visual overlap at intersections */
svg.acjk .bg { fill:#ccc; opacity: 0.5; } 
]]>
</style>
<defs>
    <clipPath id="z31295c1"><path d="M 311 213 C 390 188 428 173 460 162 C 471 158 478 158 481 153 C 483 146 481 138 473 131 C 459 119 437 109 409 98 C 398 93 388 89 381 91 C 375 92 372 98 372 106 C 371 132 300 174 161 240 C 154 243 157 251 162 252 C 175 253 253 230 285 221 C 302 216 302 216 311 213 Z"/></clipPath>
    <clipPath id="z31295c2"><path d="M 346 378 C 374 369 406 363 442 357 C 452 355 458 351 459 347 C 459 338 453 330 441 326 C 416 316 386 324 348 335 C 321 342 321 342 307 346 C 207 372 136 386 95 393 C 86 394 81 397 80 403 C 78 409 82 416 93 424 C 118 440 145 444 173 434 C 215 417 253 404 286 395 C 326 384 326 384 346 378 Z"/></clipPath>
    <clipPath id="z31295c3"><path d="M 345 425 C 345 408 345 392 346 378 C 347 349 347 349 348 335 C 349 302 351 277 355 259 C 356 250 354 244 350 241 C 335 228 326 223 311 213 C 303 208 280 213 285 221 C 297 243 307 279 307 346 C 306 427 306 427 306 467 C 304 607 284 761 281 774 C 274 796 283 824 305 860 C 312 872 317 880 324 882 C 330 883 336 879 340 871 C 348 850 348 830 348 810 C 343 682 340 564 344 458 C 345 436 345 436 345 425 Z"/></clipPath>
    <clipPath id="z31295c4"><path d="M 286 395 C 254 481 186 592 86 731 C 81 737 83 741 92 742 C 106 742 149 698 221 609 C 251 570 279 523 307 467 C 343 407 308 328 286 394 C 286 395 286 395 286 395 Z"/></clipPath>
    <clipPath id="z31295c5"><path d="M 344 458 C 384 492 410 509 423 509 C 431 508 437 502 439 491 C 439 483 435 472 428 461 C 416 444 388 432 345 425 C 334 423 335 451 344 458 Z"/></clipPath>
    <clipPath id="z31295c6"><path d="M 638 107 C 656 121 674 137 693 155 C 702 163 713 167 725 167 C 731 166 737 161 741 152 C 744 141 741 125 734 105 C 726 82 691 67 631 57 C 620 55 612 54 608 57 C 603 59 602 65 605 75 C 607 81 618 92 638 107 Z"/></clipPath>
    <clipPath id="z31295c7"><path d="M 492 247 C 473 249 471 256 486 268 C 508 284 528 290 547 286 C 660 259 761 239 850 230 C 856 229 865 227 869 218 C 872 210 861 205 847 197 C 826 185 789 188 728 203 C 620 228 540 239 492 247 Z"/></clipPath>
    <clipPath id="z31295c8"><path d="M 577 349 C 570 346 557 344 538 341 C 531 339 526 339 524 343 C 521 346 521 353 527 363 C 541 387 554 420 565 463 C 568 475 573 485 581 494 C 592 506 599 508 602 499 C 603 494 604 489 604 483 C 602 464 602 464 601 454 C 598 425 590 389 589 376 C 587 366 586 353 577 349 Z"/></clipPath>
    <clipPath id="z31295c9"><path d="M 768 424 C 780 395 794 378 807 368 C 817 359 818 344 808 337 C 767 304 728 301 696 315 C 664 328 624 338 577 349 C 567 351 579 378 589 376 C 621 371 722 348 726 351 C 729 353 731 359 731 367 C 728 387 725 406 722 424 C 719 439 762 438 768 424 Z"/></clipPath>
    <clipPath id="z31295c10"><path d="M 604 483 Q 610 483 617 482 Q 669 469 782 455 Q 792 454 792 446 Q 792 439 768 424 C 755 416 737 421 722 424 Q 652 443 601 454 C 591 456 594 483 604 483 Z"/></clipPath>
    <clipPath id="z31295c11"><path d="M 482 565 C 469 552 451 545 429 549 C 420 550 418 556 422 564 C 450 616 446 692 431 768 C 429 777 422 786 427 807 C 431 824 437 836 448 849 C 453 856 458 859 464 855 C 482 842 491 807 491 751 C 490 673 490 622 490 600 C 490 588 492 572 482 565 Z"/></clipPath>
    <clipPath id="z31295c12"><path d="M 490 600 C 496 600 502 599 508 597 C 586 567 696 546 840 540 C 850 539 857 545 863 552 C 867 557 865 562 865 572 C 861 704 859 780 851 799 C 848 804 844 806 837 805 C 817 801 796 796 774 793 C 757 790 754 797 767 807 C 811 840 843 867 862 891 C 870 901 879 902 887 894 C 898 882 905 866 911 849 C 917 828 919 766 918 660 C 917 620 921 589 933 571 C 940 557 943 550 941 546 C 935 538 918 525 889 506 C 878 498 861 499 835 507 C 821 510 782 516 744 521 C 663 532 576 545 482 565 C 470 567 478 600 490 600 Z"/></clipPath>
    <clipPath id="z31295c13"><path d="M 589 638 C 582 634 569 631 552 628 C 545 626 540 626 538 630 C 535 632 535 638 540 648 C 552 674 563 708 572 751 C 574 763 579 773 586 782 C 596 794 603 796 606 788 C 607 783 608 776 609 768 C 609 758 608 749 607 740 C 601 701 597 675 597 662 C 597 654 597 641 589 638 Z"/></clipPath>
    <clipPath id="z31295c14"><path d="M 747 719 C 757 690 769 672 779 662 C 792 648 792 634 779 626 C 768 618 755 610 739 600 C 728 593 717 593 706 600 C 680 614 641 626 589 638 C 581 640 589 664 597 662 C 599 662 629 656 687 644 C 699 641 707 642 712 648 C 713 650 709 673 699 719 C 696 735 741 734 747 719 Z"/></clipPath>
    <clipPath id="z31295c15"><path d="M 609 768 C 629 768 701 754 762 750 C 768 749 771 746 772 742 C 772 737 763 729 747 719 C 733 711 715 716 699 719 C 665 727 634 734 607 740 C 598 742 600 768 609 768 Z"/></clipPath>
</defs>
<g id="bg-layer">
    <path class="bg" d="M 311 213 C 390 188 428 173 460 162 C 471 158 478 158 481 153 C 483 146 481 138 473 131 C 459 119 437 109 409 98 C 398 93 388 89 381 91 C 375 92 372 98 372 106 C 371 132 300 174 161 240 C 154 243 157 251 162 252 C 175 253 253 230 285 221 C 302 216 302 216 311 213 Z"/>
    <path class="bg" d="M 346 378 C 374 369 406 363 442 357 C 452 355 458 351 459 347 C 459 338 453 330 441 326 C 416 316 386 324 348 335 C 321 342 321 342 307 346 C 207 372 136 386 95 393 C 86 394 81 397 80 403 C 78 409 82 416 93 424 C 118 440 145 444 173 434 C 215 417 253 404 286 395 C 326 384 326 384 346 378 Z"/>
    <path class="bg" d="M 345 425 C 345 408 345 392 346 378 C 347 349 347 349 348 335 C 349 302 351 277 355 259 C 356 250 354 244 350 241 C 335 228 326 223 311 213 C 303 208 280 213 285 221 C 297 243 307 279 307 346 C 306 427 306 427 306 467 C 304 607 284 761 281 774 C 274 796 283 824 305 860 C 312 872 317 880 324 882 C 330 883 336 879 340 871 C 348 850 348 830 348 810 C 343 682 340 564 344 458 C 345 436 345 436 345 425 Z"/>
    <path class="bg" d="M 286 395 C 254 481 186 592 86 731 C 81 737 83 741 92 742 C 106 742 149 698 221 609 C 251 570 279 523 307 467 C 343 407 308 328 286 394 C 286 395 286 395 286 395 Z"/>
    <path class="bg" d="M 344 458 C 384 492 410 509 423 509 C 431 508 437 502 439 491 C 439 483 435 472 428 461 C 416 444 388 432 345 425 C 334 423 335 451 344 458 Z"/>
    <path class="bg" d="M 638 107 C 656 121 674 137 693 155 C 702 163 713 167 725 167 C 731 166 737 161 741 152 C 744 141 741 125 734 105 C 726 82 691 67 631 57 C 620 55 612 54 608 57 C 603 59 602 65 605 75 C 607 81 618 92 638 107 Z"/>
    <path class="bg" d="M 492 247 C 473 249 471 256 486 268 C 508 284 528 290 547 286 C 660 259 761 239 850 230 C 856 229 865 227 869 218 C 872 210 861 205 847 197 C 826 185 789 188 728 203 C 620 228 540 239 492 247 Z"/>
    <path class="bg" d="M 577 349 C 570 346 557 344 538 341 C 531 339 526 339 524 343 C 521 346 521 353 527 363 C 541 387 554 420 565 463 C 568 475 573 485 581 494 C 592 506 599 508 602 499 C 603 494 604 489 604 483 C 602 464 602 464 601 454 C 598 425 590 389 589 376 C 587 366 586 353 577 349 Z"/>
    <path class="bg" d="M 768 424 C 780 395 794 378 807 368 C 817 359 818 344 808 337 C 767 304 728 301 696 315 C 664 328 624 338 577 349 C 567 351 579 378 589 376 C 621 371 722 348 726 351 C 729 353 731 359 731 367 C 728 387 725 406 722 424 C 719 439 762 438 768 424 Z"/>
    <path class="bg" d="M 604 483 Q 610 483 617 482 Q 669 469 782 455 Q 792 454 792 446 Q 792 439 768 424 C 755 416 737 421 722 424 Q 652 443 601 454 C 591 456 594 483 604 483 Z"/>
    <path class="bg" d="M 482 565 C 469 552 451 545 429 549 C 420 550 418 556 422 564 C 450 616 446 692 431 768 C 429 777 422 786 427 807 C 431 824 437 836 448 849 C 453 856 458 859 464 855 C 482 842 491 807 491 751 C 490 673 490 622 490 600 C 490 588 492 572 482 565 Z"/>
    <path class="bg" d="M 490 600 C 496 600 502 599 508 597 C 586 567 696 546 840 540 C 850 539 857 545 863 552 C 867 557 865 562 865 572 C 861 704 859 780 851 799 C 848 804 844 806 837 805 C 817 801 796 796 774 793 C 757 790 754 797 767 807 C 811 840 843 867 862 891 C 870 901 879 902 887 894 C 898 882 905 866 911 849 C 917 828 919 766 918 660 C 917 620 921 589 933 571 C 940 557 943 550 941 546 C 935 538 918 525 889 506 C 878 498 861 499 835 507 C 821 510 782 516 744 521 C 663 532 576 545 482 565 C 470 567 478 600 490 600 Z"/>
    <path class="bg" d="M 589 638 C 582 634 569 631 552 628 C 545 626 540 626 538 630 C 535 632 535 638 540 648 C 552 674 563 708 572 751 C 574 763 579 773 586 782 C 596 794 603 796 606 788 C 607 783 608 776 609 768 C 609 758 608 749 607 740 C 601 701 597 675 597 662 C 597 654 597 641 589 638 Z"/>
    <path class="bg" d="M 747 719 C 757 690 769 672 779 662 C 792 648 792 634 779 626 C 768 618 755 610 739 600 C 728 593 717 593 706 600 C 680 614 641 626 589 638 C 581 640 589 664 597 662 C 599 662 629 656 687 644 C 699 641 707 642 712 648 C 713 650 709 673 699 719 C 696 735 741 734 747 719 Z"/>
    <path class="bg" d="M 609 768 C 629 768 701 754 762 750 C 768 749 771 746 772 742 C 772 737 763 729 747 719 C 733 711 715 716 699 719 C 665 727 634 734 607 740 C 598 742 600 768 609 768 Z"/>
</g>
<g id="anim-layer">
    <path style="--d:1s; stroke:#FF4444;" pathLength="3333" clip-path="url(#z31295c1)" d="M 384 98 L 431 140 L 165 246"/>
    <path style="--d:2s; stroke:#FF4444;" pathLength="3333" clip-path="url(#z31295c2)" d="M 86 402 L 147 411 L 378 347 L 452 346"/>
    <path style="--d:3s; stroke:#FF4444;" pathLength="3333" clip-path="url(#z31295c3)" d="M 292 224 L 326 258 L 327 878"/>
    <path style="--d:4s; stroke:#FF4444;" pathLength="3333" clip-path="url(#z31295c4)" d="M 299 398 L 232 554 L 91 734"/>
    <path style="--d:5s; stroke:#FF4444;" pathLength="3333" clip-path="url(#z31295c5)" d="M 350 432 L 433 497"/>
    <path style="--d:6s; stroke:#000;" pathLength="3333" clip-path="url(#z31295c6)" d="M 611 62 L 733 158"/>
    <path style="--d:7s; stroke:#000;" pathLength="3333" clip-path="url(#z31295c7)" d="M 483 255 L 861 218"/>
    <path style="--d:8s; stroke:#000;" pathLength="3333" clip-path="url(#z31295c8)" d="M 529 346 L 565 384 L 594 497"/>
    <path style="--d:9s; stroke:#000;" pathLength="3333" clip-path="url(#z31295c9)" d="M 585 354 L 750 334 L 772 360 L 742 423"/>
    <path style="--d:10s; stroke:#000;" pathLength="3333" clip-path="url(#z31295c10)" d="M 609 476 L 787 444"/>
    <path style="--d:11s; stroke:#000;" pathLength="3333" clip-path="url(#z31295c11)" d="M 428 557 L 465 607 L 458 851"/>
    <path style="--d:12s; stroke:#000;" pathLength="3333" clip-path="url(#z31295c12)" d="M 496 592 L 689 541 L 882 532 L 904 558 L 882 818 L 861 852 L 768 800"/>
    <path style="--d:13s; stroke:#000;" pathLength="3333" clip-path="url(#z31295c13)" d="M 544 636 L 573 664 L 597 787"/>
    <path style="--d:14s; stroke:#000;" pathLength="3333" clip-path="url(#z31295c14)" d="M 598 647 L 721 622 L 749 649 L 712 718"/>
    <path style="--d:15s; stroke:#000;" pathLength="3333" clip-path="url(#z31295c15)" d="M 617 761 L 767 738"/>
</g>
</svg>