<svg id="z31515" class="acjk" viewBox="0 0 1024 1024" xmlns="http://www.w3.org/2000/svg">

<style>
<![CDATA[
@keyframes zk { to { stroke-dashoffset:0; } }
svg.acjk path[clip-path] {
    --t:0.8s;
    animation:zk var(--t) linear forwards var(--d);
    stroke-dasharray:3337;
    stroke-dashoffset:3339;
    stroke-width:128;
    stroke-linecap:round;
    fill:none;
}
/* Low opacity for background improves visual overlap at intersections */
svg.acjk .bg { fill:#ccc; opacity: 0.5; } 
]]>
</style>
<defs>
    <clipPath id="z31515c1"><path d="M 339 206 C 348 189 357 173 368 160 C 374 151 373 142 363 134 C 333 111 310 103 295 106 C 288 107 285 112 287 123 C 295 191 265 266 193 347 C 175 366 160 379 153 392 C 147 401 150 404 160 402 C 171 399 185 392 202 379 C 229 356 253 333 273 309 C 294 284 309 258 323 234 C 334 215 334 215 339 206 Z"/></clipPath>
    <clipPath id="z31515c2"><path d="M 323 234 C 349 240 396 237 466 227 C 476 225 488 223 500 221 C 514 218 523 216 526 214 C 532 209 534 204 531 199 C 526 192 515 185 498 181 C 479 176 461 179 443 185 C 407 196 372 201 339 206 C 328 208 312 232 323 234 Z"/></clipPath>
    <clipPath id="z31515c3"><path d="M 331 359 C 342 369 352 381 364 395 C 371 403 380 407 390 407 C 396 406 402 403 405 395 C 408 386 407 372 403 355 C 400 344 391 334 376 329 C 338 315 314 310 308 313 C 304 314 302 320 304 328 C 304 334 315 344 331 359 Z"/></clipPath>
    <clipPath id="z31515c4"><path d="M 671 174 C 681 157 691 141 702 127 C 708 118 707 108 696 99 C 666 74 641 64 624 69 C 615 70 613 76 615 87 C 624 147 600 215 539 286 C 534 290 519 303 501 331 C 494 341 497 344 508 342 C 518 339 531 333 547 322 C 593 285 626 248 656 199 C 666 182 666 182 671 174 Z"/></clipPath>
    <clipPath id="z31515c5"><path d="M 656 199 C 682 211 719 213 768 203 C 840 187 877 178 880 177 C 886 171 886 165 883 160 C 877 152 866 144 846 141 C 825 137 804 141 784 149 C 746 162 707 169 671 174 C 661 176 647 195 656 199 Z"/></clipPath>
    <clipPath id="z31515c6"><path d="M 662 328 C 678 339 694 353 712 369 C 721 377 731 380 742 379 C 748 378 754 373 757 364 C 759 353 756 338 749 319 C 741 300 709 287 654 280 C 643 278 635 278 632 281 C 628 282 627 289 630 298 C 631 304 643 314 662 328 Z"/></clipPath>
    <clipPath id="z31515c7"><path d="M 277 517 C 260 506 242 498 225 493 C 220 491 216 492 212 496 C 207 500 208 505 214 514 C 247 571 265 664 268 792 C 269 836 281 868 308 887 C 322 897 327 878 330 865 C 332 853 331 842 329 829 C 325 808 322 803 321 788 C 304 650 299 572 299 556 C 299 541 289 526 277 517 Z"/></clipPath>
    <clipPath id="z31515c8"><path d="M 475 501 C 419 509 336 517 277 517 C 262 517 284 556 299 556 C 303 556 308 555 314 555 C 360 546 414 536 476 527 C 511 522 511 522 529 519 C 571 512 617 506 667 498 C 691 494 710 495 721 509 C 728 518 730 530 730 542 C 730 617 722 692 709 766 C 707 778 707 799 686 801 C 671 804 666 829 669 844 C 672 864 675 886 691 918 C 697 930 703 937 711 936 C 721 934 729 923 738 905 C 760 857 774 802 779 739 C 782 698 787 655 792 610 C 795 575 805 547 822 527 C 834 512 836 501 828 492 C 812 475 787 461 755 446 C 742 439 724 440 700 448 C 647 464 592 482 533 492 C 494 498 494 498 475 501 Z"/></clipPath>
    <clipPath id="z31515c9"><path d="M 521 686 C 555 681 591 677 624 674 C 640 672 646 665 641 657 C 633 645 620 636 602 634 C 587 631 551 634 523 641 C 492 648 492 648 477 651 C 439 659 405 666 373 673 C 360 675 361 682 376 694 C 384 700 396 704 413 702 C 434 698 454 694 476 692 C 506 688 506 688 521 686 Z"/></clipPath>
    <clipPath id="z31515c10"><path d="M 533 492 C 535 477 539 453 547 422 C 549 413 544 404 530 396 C 507 382 487 375 470 373 C 459 371 451 373 446 379 C 441 383 440 391 447 401 C 462 426 472 446 473 462 C 473 474 474 487 475 501 C 476 518 476 518 476 527 C 477 566 478 608 477 651 C 476 678 476 678 476 692 C 475 731 477 773 475 816 C 475 830 517 825 517 811 C 519 768 519 726 521 686 C 522 656 522 656 523 641 C 524 598 523 557 529 519 C 532 501 532 501 533 492 Z"/></clipPath>
    <clipPath id="z31515c11"><path d="M 330 865 C 334 865 339 866 346 865 C 412 854 528 847 669 844 C 684 844 699 809 686 801 C 669 789 601 800 517 811 C 489 814 489 814 475 816 C 422 822 373 826 329 829 C 317 829 318 865 330 865 Z"/></clipPath>
</defs>
<g id="bg-layer">
    <path class="bg" d="M 339 206 C 348 189 357 173 368 160 C 374 151 373 142 363 134 C 333 111 310 103 295 106 C 288 107 285 112 287 123 C 295 191 265 266 193 347 C 175 366 160 379 153 392 C 147 401 150 404 160 402 C 171 399 185 392 202 379 C 229 356 253 333 273 309 C 294 284 309 258 323 234 C 334 215 334 215 339 206 Z"/>
    <path class="bg" d="M 323 234 C 349 240 396 237 466 227 C 476 225 488 223 500 221 C 514 218 523 216 526 214 C 532 209 534 204 531 199 C 526 192 515 185 498 181 C 479 176 461 179 443 185 C 407 196 372 201 339 206 C 328 208 312 232 323 234 Z"/>
    <path class="bg" d="M 331 359 C 342 369 352 381 364 395 C 371 403 380 407 390 407 C 396 406 402 403 405 395 C 408 386 407 372 403 355 C 400 344 391 334 376 329 C 338 315 314 310 308 313 C 304 314 302 320 304 328 C 304 334 315 344 331 359 Z"/>
    <path class="bg" d="M 671 174 C 681 157 691 141 702 127 C 708 118 707 108 696 99 C 666 74 641 64 624 69 C 615 70 613 76 615 87 C 624 147 600 215 539 286 C 534 290 519 303 501 331 C 494 341 497 344 508 342 C 518 339 531 333 547 322 C 593 285 626 248 656 199 C 666 182 666 182 671 174 Z"/>
    <path class="bg" d="M 656 199 C 682 211 719 213 768 203 C 840 187 877 178 880 177 C 886 171 886 165 883 160 C 877 152 866 144 846 141 C 825 137 804 141 784 149 C 746 162 707 169 671 174 C 661 176 647 195 656 199 Z"/>
    <path class="bg" d="M 662 328 C 678 339 694 353 712 369 C 721 377 731 380 742 379 C 748 378 754 373 757 364 C 759 353 756 338 749 319 C 741 300 709 287 654 280 C 643 278 635 278 632 281 C 628 282 627 289 630 298 C 631 304 643 314 662 328 Z"/>
    <path class="bg" d="M 277 517 C 260 506 242 498 225 493 C 220 491 216 492 212 496 C 207 500 208 505 214 514 C 247 571 265 664 268 792 C 269 836 281 868 308 887 C 322 897 327 878 330 865 C 332 853 331 842 329 829 C 325 808 322 803 321 788 C 304 650 299 572 299 556 C 299 541 289 526 277 517 Z"/>
    <path class="bg" d="M 475 501 C 419 509 336 517 277 517 C 262 517 284 556 299 556 C 303 556 308 555 314 555 C 360 546 414 536 476 527 C 511 522 511 522 529 519 C 571 512 617 506 667 498 C 691 494 710 495 721 509 C 728 518 730 530 730 542 C 730 617 722 692 709 766 C 707 778 707 799 686 801 C 671 804 666 829 669 844 C 672 864 675 886 691 918 C 697 930 703 937 711 936 C 721 934 729 923 738 905 C 760 857 774 802 779 739 C 782 698 787 655 792 610 C 795 575 805 547 822 527 C 834 512 836 501 828 492 C 812 475 787 461 755 446 C 742 439 724 440 700 448 C 647 464 592 482 533 492 C 494 498 494 498 475 501 Z"/>
    <path class="bg" d="M 521 686 C 555 681 591 677 624 674 C 640 672 646 665 641 657 C 633 645 620 636 602 634 C 587 631 551 634 523 641 C 492 648 492 648 477 651 C 439 659 405 666 373 673 C 360 675 361 682 376 694 C 384 700 396 704 413 702 C 434 698 454 694 476 692 C 506 688 506 688 521 686 Z"/>
    <path class="bg" d="M 533 492 C 535 477 539 453 547 422 C 549 413 544 404 530 396 C 507 382 487 375 470 373 C 459 371 451 373 446 379 C 441 383 440 391 447 401 C 462 426 472 446 473 462 C 473 474 474 487 475 501 C 476 518 476 518 476 527 C 477 566 478 608 477 651 C 476 678 476 678 476 692 C 475 731 477 773 475 816 C 475 830 517 825 517 811 C 519 768 519 726 521 686 C 522 656 522 656 523 641 C 524 598 523 557 529 519 C 532 501 532 501 533 492 Z"/>
    <path class="bg" d="M 330 865 C 334 865 339 866 346 865 C 412 854 528 847 669 844 C 684 844 699 809 686 801 C 669 789 601 800 517 811 C 489 814 489 814 475 816 C 422 822 373 826 329 829 C 317 829 318 865 330 865 Z"/>
</g>
<g id="anim-layer">
    <path style="--d:1s; stroke:#FF4444;" pathLength="3333" clip-path="url(#z31515c1)" d="M 294 116 L 329 156 L 300 224 L 226 335 L 156 394"/>
    <path style="--d:2s; stroke:#FF4444;" pathLength="3333" clip-path="url(#z31515c2)" d="M 328 227 L 527 205"/>
    <path style="--d:3s; stroke:#FF4444;" pathLength="3333" clip-path="url(#z31515c3)" d="M 312 322 L 372 359 L 396 402"/>
    <path style="--d:4s; stroke:#FF4444;" pathLength="3333" clip-path="url(#z31515c4)" d="M 623 76 L 660 115 L 642 164 L 596 246 L 505 336"/>
    <path style="--d:5s; stroke:#FF4444;" pathLength="3333" clip-path="url(#z31515c5)" d="M 660 193 L 880 165"/>
    <path style="--d:6s; stroke:#FF4444;" pathLength="3333" clip-path="url(#z31515c6)" d="M 636 289 L 706 322 L 747 372"/>
    <path style="--d:7s; stroke:#000;" pathLength="3333" clip-path="url(#z31515c7)" d="M 215 500 L 268 560 L 313 884"/>
    <path style="--d:8s; stroke:#000;" pathLength="3333" clip-path="url(#z31515c8)" d="M 280 525 L 328 535 L 701 472 L 761 491 L 781 519 L 704 929"/>
    <path style="--d:9s; stroke:#000;" pathLength="3333" clip-path="url(#z31515c9)" d="M 370 678 L 637 662"/>
    <path style="--d:10s; stroke:#000;" pathLength="3333" clip-path="url(#z31515c10)" d="M 450 384 L 508 439 L 487 821"/>
    <path style="--d:11s; stroke:#000;" pathLength="3333" clip-path="url(#z31515c11)" d="M 322 849 L 688 813"/>
</g>
</svg>