<svg id="z31572" class="acjk" viewBox="0 0 1024 1024" xmlns="http://www.w3.org/2000/svg">

<style>
<![CDATA[
@keyframes zk { to { stroke-dashoffset:0; } }
svg.acjk path[clip-path] {
    --t:0.8s;
    animation:zk var(--t) linear forwards var(--d);
    stroke-dasharray:3337;
    stroke-dashoffset:3339;
    stroke-width:128;
    stroke-linecap:round;
    fill:none;
}
/* Low opacity for background improves visual overlap at intersections */
svg.acjk .bg { fill:#ccc; opacity: 0.5; } 
]]>
</style>
<defs>
    <clipPath id="z31572c1"><path d="M 338 186 C 348 167 358 149 370 133 C 376 124 375 114 364 106 C 332 83 308 74 293 78 C 285 79 283 85 285 96 C 297 159 265 239 202 320 C 197 325 182 341 157 372 C 149 381 154 384 164 382 C 199 372 246 334 298 258 C 316 231 322 213 325 210 C 334 194 334 194 338 186 Z"/></clipPath>
    <clipPath id="z31572c2"><path d="M 325 210 C 343 220 376 222 424 215 C 444 211 467 207 492 204 C 504 201 512 199 515 198 C 520 193 521 188 519 183 C 515 175 503 169 486 165 C 475 162 442 168 388 179 C 372 182 355 184 338 186 C 329 188 317 206 325 210 Z"/></clipPath>
    <clipPath id="z31572c3"><path d="M 332 296 Q 356 324 389 344 Q 401 345 408 335 Q 412 325 410 312 Q 406 294 391 285 Q 373 273 341 266 Q 328 262 321 266 Q 317 267 318 276 Q 319 285 332 296 Z"/></clipPath>
    <clipPath id="z31572c4"><path d="M 639 153 C 650 134 662 118 674 104 C 680 95 680 86 670 78 C 644 56 622 47 605 49 C 598 49 594 55 596 65 C 603 117 579 178 518 248 C 504 263 491 273 485 284 C 479 293 482 297 492 295 C 501 292 513 286 527 277 C 567 246 601 214 625 176 C 634 161 634 161 639 153 Z"/></clipPath>
    <clipPath id="z31572c5"><path d="M 625 176 C 649 188 687 191 737 185 C 761 181 787 177 815 174 C 829 171 838 169 842 167 C 848 162 849 157 847 152 C 842 143 830 137 812 132 C 793 127 774 128 754 135 C 737 140 719 143 700 147 C 681 149 661 151 639 153 C 630 155 617 173 625 176 Z"/></clipPath>
    <clipPath id="z31572c6"><path d="M 626 273 Q 665 318 697 333 Q 710 336 719 323 Q 725 311 722 296 Q 713 259 637 237 Q 621 233 613 237 Q 607 238 610 249 Q 611 259 626 273 Z"/></clipPath>
    <clipPath id="z31572c7"><path d="M 507 392 Q 534 361 532 352 Q 528 339 501 330 Q 470 318 457 322 Q 450 323 446 338 Q 416 471 93 715 Q 71 731 100 727 Q 224 709 429 484 Q 435 475 490 412 C 501 399 501 399 507 392 Z"/></clipPath>
    <clipPath id="z31572c8"><path d="M 490 412 Q 736 661 796 670 Q 889 670 964 651 Q 983 648 985 642 Q 986 635 971 630 Q 764 561 739 549 Q 651 504 563 436 Q 529 408 507 392 C 500 387 484 406 490 412 Z"/></clipPath>
    <clipPath id="z31572c9"><path d="M 372 574 Q 335 581 363 597 Q 399 616 476 602 Q 518 593 565 582 Q 587 576 592 573 Q 601 564 596 556 Q 589 544 558 538 Q 527 534 497 546 Q 470 555 442 563 Q 411 570 372 574 Z"/></clipPath>
    <clipPath id="z31572c10"><path d="M 358 706 Q 357 705 356 704 Q 343 697 302 692 Q 289 689 285 695 Q 278 702 289 719 Q 319 771 340 861 Q 344 888 362 904 Q 383 928 387 910 Q 388 903 390 894 C 392 883 389 871 387 860 Q 380 838 366 743 C 364 731 368 714 358 706 Z"/></clipPath>
    <clipPath id="z31572c11"><path d="M 641 830 Q 665 755 694 733 Q 712 712 696 693 Q 609 633 555 663 Q 473 690 358 706 C 346 708 354 745 366 743 Q 373 740 559 707 Q 581 703 589 711 Q 599 718 598 738 Q 592 786 584 827 C 581 846 634 848 641 830 Z"/></clipPath>
    <clipPath id="z31572c12"><path d="M 390 894 Q 396 895 403 894 Q 482 878 655 866 Q 665 865 667 856 Q 667 849 641 830 C 626 818 603 824 584 827 Q 475 849 387 860 C 376 862 379 894 390 894 Z"/></clipPath>
</defs>
<g id="bg-layer">
    <path class="bg" d="M 338 186 C 348 167 358 149 370 133 C 376 124 375 114 364 106 C 332 83 308 74 293 78 C 285 79 283 85 285 96 C 297 159 265 239 202 320 C 197 325 182 341 157 372 C 149 381 154 384 164 382 C 199 372 246 334 298 258 C 316 231 322 213 325 210 C 334 194 334 194 338 186 Z"/>
    <path class="bg" d="M 325 210 C 343 220 376 222 424 215 C 444 211 467 207 492 204 C 504 201 512 199 515 198 C 520 193 521 188 519 183 C 515 175 503 169 486 165 C 475 162 442 168 388 179 C 372 182 355 184 338 186 C 329 188 317 206 325 210 Z"/>
    <path class="bg" d="M 332 296 Q 356 324 389 344 Q 401 345 408 335 Q 412 325 410 312 Q 406 294 391 285 Q 373 273 341 266 Q 328 262 321 266 Q 317 267 318 276 Q 319 285 332 296 Z"/>
    <path class="bg" d="M 639 153 C 650 134 662 118 674 104 C 680 95 680 86 670 78 C 644 56 622 47 605 49 C 598 49 594 55 596 65 C 603 117 579 178 518 248 C 504 263 491 273 485 284 C 479 293 482 297 492 295 C 501 292 513 286 527 277 C 567 246 601 214 625 176 C 634 161 634 161 639 153 Z"/>
    <path class="bg" d="M 625 176 C 649 188 687 191 737 185 C 761 181 787 177 815 174 C 829 171 838 169 842 167 C 848 162 849 157 847 152 C 842 143 830 137 812 132 C 793 127 774 128 754 135 C 737 140 719 143 700 147 C 681 149 661 151 639 153 C 630 155 617 173 625 176 Z"/>
    <path class="bg" d="M 626 273 Q 665 318 697 333 Q 710 336 719 323 Q 725 311 722 296 Q 713 259 637 237 Q 621 233 613 237 Q 607 238 610 249 Q 611 259 626 273 Z"/>
    <path class="bg" d="M 507 392 Q 534 361 532 352 Q 528 339 501 330 Q 470 318 457 322 Q 450 323 446 338 Q 416 471 93 715 Q 71 731 100 727 Q 224 709 429 484 Q 435 475 490 412 C 501 399 501 399 507 392 Z"/>
    <path class="bg" d="M 490 412 Q 736 661 796 670 Q 889 670 964 651 Q 983 648 985 642 Q 986 635 971 630 Q 764 561 739 549 Q 651 504 563 436 Q 529 408 507 392 C 500 387 484 406 490 412 Z"/>
    <path class="bg" d="M 372 574 Q 335 581 363 597 Q 399 616 476 602 Q 518 593 565 582 Q 587 576 592 573 Q 601 564 596 556 Q 589 544 558 538 Q 527 534 497 546 Q 470 555 442 563 Q 411 570 372 574 Z"/>
    <path class="bg" d="M 358 706 Q 357 705 356 704 Q 343 697 302 692 Q 289 689 285 695 Q 278 702 289 719 Q 319 771 340 861 Q 344 888 362 904 Q 383 928 387 910 Q 388 903 390 894 C 392 883 389 871 387 860 Q 380 838 366 743 C 364 731 368 714 358 706 Z"/>
    <path class="bg" d="M 641 830 Q 665 755 694 733 Q 712 712 696 693 Q 609 633 555 663 Q 473 690 358 706 C 346 708 354 745 366 743 Q 373 740 559 707 Q 581 703 589 711 Q 599 718 598 738 Q 592 786 584 827 C 581 846 634 848 641 830 Z"/>
    <path class="bg" d="M 390 894 Q 396 895 403 894 Q 482 878 655 866 Q 665 865 667 856 Q 667 849 641 830 C 626 818 603 824 584 827 Q 475 849 387 860 C 376 862 379 894 390 894 Z"/>
</g>
<g id="anim-layer">
    <path style="--d:1s; stroke:#FF4444;" pathLength="3333" clip-path="url(#z31572c1)" d="M 294 84 L 330 132 L 291 221 L 159 376"/>
    <path style="--d:2s; stroke:#FF4444;" pathLength="3333" clip-path="url(#z31572c2)" d="M 330 204 L 516 189"/>
    <path style="--d:3s; stroke:#FF4444;" pathLength="3333" clip-path="url(#z31572c3)" d="M 324 272 L 398 337"/>
    <path style="--d:4s; stroke:#FF4444;" pathLength="3333" clip-path="url(#z31572c4)" d="M 603 56 L 637 98 L 590 187 L 488 288"/>
    <path style="--d:5s; stroke:#FF4444;" pathLength="3333" clip-path="url(#z31572c5)" d="M 633 171 L 842 150"/>
    <path style="--d:6s; stroke:#FF4444;" pathLength="3333" clip-path="url(#z31572c6)" d="M 616 242 L 713 328"/>
    <path style="--d:7s; stroke:#000;" pathLength="3333" clip-path="url(#z31572c7)" d="M 457 327 L 484 361 L 379 499 L 211 652 L 94 721"/>
    <path style="--d:8s; stroke:#000;" pathLength="3333" clip-path="url(#z31572c8)" d="M 501 397 L 777 612 L 977 638"/>
    <path style="--d:9s; stroke:#000;" pathLength="3333" clip-path="url(#z31572c9)" d="M 358 583 L 592 555"/>
    <path style="--d:10s; stroke:#000;" pathLength="3333" clip-path="url(#z31572c10)" d="M 290 699 L 332 729 L 376 912"/>
    <path style="--d:11s; stroke:#000;" pathLength="3333" clip-path="url(#z31572c11)" d="M 356 714 L 582 679 L 621 691 L 650 724 L 600 839"/>
    <path style="--d:12s; stroke:#000;" pathLength="3333" clip-path="url(#z31572c12)" d="M 383 878 L 660 854"/>
</g>
</svg>