<svg id="z31584" class="acjk" viewBox="0 0 1024 1024" xmlns="http://www.w3.org/2000/svg">

<style>
<![CDATA[
@keyframes zk { to { stroke-dashoffset:0; } }
svg.acjk path[clip-path] {
    --t:0.8s;
    animation:zk var(--t) linear forwards var(--d);
    stroke-dasharray:3337;
    stroke-dashoffset:3339;
    stroke-width:128;
    stroke-linecap:round;
    fill:none;
}
/* Low opacity for background improves visual overlap at intersections */
svg.acjk .bg { fill:#ccc; opacity: 0.5; } 
]]>
</style>
<defs>
    <clipPath id="z31584c1"><path d="M 318 209 Q 333 182 348 160 Q 358 147 343 133 Q 300 100 275 106 Q 265 109 267 123 Q 280 216 191 323 Q 182 327 153 368 Q 146 384 160 378 Q 176 375 198 358 Q 265 303 303 235 Q 304 231 307 228 C 314 215 314 215 318 209 Z"/></clipPath>
    <clipPath id="z31584c2"><path d="M 307 228 Q 308 228 311 230 Q 351 254 405 238 Q 436 231 470 225 Q 486 221 488 219 Q 495 212 491 203 Q 484 193 456 186 Q 426 182 398 194 Q 356 204 320 208 Q 317 208 318 209 C 311 210 300 225 307 228 Z"/></clipPath>
    <clipPath id="z31584c3"><path d="M 310 329 Q 343 363 368 373 Q 381 374 388 364 Q 392 354 389 339 Q 382 320 367 310 Q 340 295 307 295 Q 301 294 297 297 Q 291 298 294 309 Q 295 318 310 329 Z"/></clipPath>
    <clipPath id="z31584c4"><path d="M 601 178 Q 623 139 644 108 Q 654 95 639 81 Q 596 48 571 54 Q 561 57 563 71 Q 576 164 487 271 Q 478 275 449 316 Q 442 332 456 326 Q 472 323 494 306 Q 551 258 587 203 C 596 186 596 186 601 178 Z"/></clipPath>
    <clipPath id="z31584c5"><path d="M 587 203 Q 626 218 668 209 Q 791 188 799 182 Q 806 175 803 167 Q 796 157 770 149 Q 749 145 670 166 Q 654 169 601 178 C 592 180 578 199 587 203 Z"/></clipPath>
    <clipPath id="z31584c6"><path d="M 634 315 Q 656 330 683 348 Q 696 357 710 354 Q 719 353 721 340 Q 722 327 711 303 Q 704 288 677 281 Q 614 269 603 277 Q 600 281 603 292 Q 607 301 634 315 Z"/></clipPath>
    <clipPath id="z31584c7"><path d="M 317 556 Q 393 537 400 531 Q 409 524 404 515 Q 397 505 368 499 Q 341 495 319 504 C 286 516 286 516 269 522 Q 217 537 151 548 Q 117 555 142 570 Q 181 588 247 573 Q 257 570 271 568 C 302 560 302 560 317 556 Z"/></clipPath>
    <clipPath id="z31584c8"><path d="M 308 695 Q 312 622 317 556 C 318 521 318 521 319 504 Q 319 501 320 499 Q 327 450 334 431 Q 337 421 319 409 Q 288 393 267 389 Q 254 386 246 393 Q 239 400 247 413 Q 266 438 266 457 Q 267 488 269 522 C 270 553 270 553 271 568 Q 271 635 270 709 C 270 722 308 708 308 695 Z"/></clipPath>
    <clipPath id="z31584c9"><path d="M 270 709 Q 215 727 158 748 Q 140 755 111 755 Q 98 758 96 768 Q 95 781 105 790 Q 130 805 165 822 Q 175 825 188 815 Q 221 787 259 765 Q 317 735 375 703 Q 397 691 413 678 Q 426 669 426 659 Q 420 653 308 695 C 283 704 283 704 270 709 Z"/></clipPath>
    <clipPath id="z31584c10"><path d="M 538 455 Q 575 404 593 387 Q 602 380 598 367 Q 595 357 571 336 Q 549 320 533 319 Q 517 320 524 339 Q 536 366 484 451 Q 460 491 426 534 Q 417 543 416 548 Q 412 557 424 555 Q 442 552 519 477 C 532 462 532 462 538 455 Z"/></clipPath>
    <clipPath id="z31584c11"><path d="M 668 859 Q 656 862 593 838 Q 583 834 583 840 Q 582 844 593 855 Q 633 901 650 934 Q 659 955 672 955 Q 690 956 707 937 Q 773 885 788 755 Q 801 667 808 531 Q 809 501 828 477 Q 841 464 839 456 Q 838 449 819 435 Q 792 416 757 406 Q 732 399 714 407 Q 698 414 659 425 Q 605 441 567 448 Q 551 451 538 455 C 529 459 509 475 519 477 Q 547 483 669 460 Q 723 450 730 458 Q 740 485 738 643 Q 729 769 698 828 Q 686 856 668 859 Z"/></clipPath>
    <clipPath id="z31584c12"><path d="M 514 596 Q 545 609 580 627 Q 593 634 605 630 Q 612 627 614 616 Q 614 604 601 584 Q 591 568 561 563 Q 495 557 483 565 Q 480 569 484 579 Q 490 586 514 596 Z"/></clipPath>
    <clipPath id="z31584c13"><path d="M 459 723 Q 447 726 447 736 Q 446 749 456 755 Q 480 768 513 781 Q 522 781 547 758 Q 550 752 611 704 Q 620 697 626 689 Q 638 680 637 672 Q 631 668 495 716 Q 477 719 459 723 Z"/></clipPath>
</defs>
<g id="bg-layer">
    <path class="bg" d="M 318 209 Q 333 182 348 160 Q 358 147 343 133 Q 300 100 275 106 Q 265 109 267 123 Q 280 216 191 323 Q 182 327 153 368 Q 146 384 160 378 Q 176 375 198 358 Q 265 303 303 235 Q 304 231 307 228 C 314 215 314 215 318 209 Z"/>
    <path class="bg" d="M 307 228 Q 308 228 311 230 Q 351 254 405 238 Q 436 231 470 225 Q 486 221 488 219 Q 495 212 491 203 Q 484 193 456 186 Q 426 182 398 194 Q 356 204 320 208 Q 317 208 318 209 C 311 210 300 225 307 228 Z"/>
    <path class="bg" d="M 310 329 Q 343 363 368 373 Q 381 374 388 364 Q 392 354 389 339 Q 382 320 367 310 Q 340 295 307 295 Q 301 294 297 297 Q 291 298 294 309 Q 295 318 310 329 Z"/>
    <path class="bg" d="M 601 178 Q 623 139 644 108 Q 654 95 639 81 Q 596 48 571 54 Q 561 57 563 71 Q 576 164 487 271 Q 478 275 449 316 Q 442 332 456 326 Q 472 323 494 306 Q 551 258 587 203 C 596 186 596 186 601 178 Z"/>
    <path class="bg" d="M 587 203 Q 626 218 668 209 Q 791 188 799 182 Q 806 175 803 167 Q 796 157 770 149 Q 749 145 670 166 Q 654 169 601 178 C 592 180 578 199 587 203 Z"/>
    <path class="bg" d="M 634 315 Q 656 330 683 348 Q 696 357 710 354 Q 719 353 721 340 Q 722 327 711 303 Q 704 288 677 281 Q 614 269 603 277 Q 600 281 603 292 Q 607 301 634 315 Z"/>
    <path class="bg" d="M 317 556 Q 393 537 400 531 Q 409 524 404 515 Q 397 505 368 499 Q 341 495 319 504 C 286 516 286 516 269 522 Q 217 537 151 548 Q 117 555 142 570 Q 181 588 247 573 Q 257 570 271 568 C 302 560 302 560 317 556 Z"/>
    <path class="bg" d="M 308 695 Q 312 622 317 556 C 318 521 318 521 319 504 Q 319 501 320 499 Q 327 450 334 431 Q 337 421 319 409 Q 288 393 267 389 Q 254 386 246 393 Q 239 400 247 413 Q 266 438 266 457 Q 267 488 269 522 C 270 553 270 553 271 568 Q 271 635 270 709 C 270 722 308 708 308 695 Z"/>
    <path class="bg" d="M 270 709 Q 215 727 158 748 Q 140 755 111 755 Q 98 758 96 768 Q 95 781 105 790 Q 130 805 165 822 Q 175 825 188 815 Q 221 787 259 765 Q 317 735 375 703 Q 397 691 413 678 Q 426 669 426 659 Q 420 653 308 695 C 283 704 283 704 270 709 Z"/>
    <path class="bg" d="M 538 455 Q 575 404 593 387 Q 602 380 598 367 Q 595 357 571 336 Q 549 320 533 319 Q 517 320 524 339 Q 536 366 484 451 Q 460 491 426 534 Q 417 543 416 548 Q 412 557 424 555 Q 442 552 519 477 C 532 462 532 462 538 455 Z"/>
    <path class="bg" d="M 668 859 Q 656 862 593 838 Q 583 834 583 840 Q 582 844 593 855 Q 633 901 650 934 Q 659 955 672 955 Q 690 956 707 937 Q 773 885 788 755 Q 801 667 808 531 Q 809 501 828 477 Q 841 464 839 456 Q 838 449 819 435 Q 792 416 757 406 Q 732 399 714 407 Q 698 414 659 425 Q 605 441 567 448 Q 551 451 538 455 C 529 459 509 475 519 477 Q 547 483 669 460 Q 723 450 730 458 Q 740 485 738 643 Q 729 769 698 828 Q 686 856 668 859 Z"/>
    <path class="bg" d="M 514 596 Q 545 609 580 627 Q 593 634 605 630 Q 612 627 614 616 Q 614 604 601 584 Q 591 568 561 563 Q 495 557 483 565 Q 480 569 484 579 Q 490 586 514 596 Z"/>
    <path class="bg" d="M 459 723 Q 447 726 447 736 Q 446 749 456 755 Q 480 768 513 781 Q 522 781 547 758 Q 550 752 611 704 Q 620 697 626 689 Q 638 680 637 672 Q 631 668 495 716 Q 477 719 459 723 Z"/>
</g>
<g id="anim-layer">
    <path style="--d:1s; stroke:#FF4444;" pathLength="3333" clip-path="url(#z31584c1)" d="M 274 113 L 309 151 L 290 203 L 249 279 L 157 373"/>
    <path style="--d:2s; stroke:#FF4444;" pathLength="3333" clip-path="url(#z31584c2)" d="M 316 226 L 488 205"/>
    <path style="--d:3s; stroke:#FF4444;" pathLength="3333" clip-path="url(#z31584c3)" d="M 301 306 L 381 365"/>
    <path style="--d:4s; stroke:#FF4444;" pathLength="3333" clip-path="url(#z31584c4)" d="M 570 60 L 605 98 L 574 177 L 453 320"/>
    <path style="--d:5s; stroke:#FF4444;" pathLength="3333" clip-path="url(#z31584c5)" d="M 592 199 L 797 171"/>
    <path style="--d:6s; stroke:#FF4444;" pathLength="3333" clip-path="url(#z31584c6)" d="M 610 285 L 716 344"/>
    <path style="--d:7s; stroke:#000;" pathLength="3333" clip-path="url(#z31584c7)" d="M 143 559 L 402 516"/>
    <path style="--d:8s; stroke:#000;" pathLength="3333" clip-path="url(#z31584c8)" d="M 250 398 L 299 438 L 283 703"/>
    <path style="--d:9s; stroke:#000;" pathLength="3333" clip-path="url(#z31584c9)" d="M 100 770 L 172 783 L 418 664"/>
    <path style="--d:10s; stroke:#000;" pathLength="3333" clip-path="url(#z31584c10)" d="M 531 323 L 559 378 L 423 547"/>
    <path style="--d:11s; stroke:#000;" pathLength="3333" clip-path="url(#z31584c11)" d="M 530 472 L 720 429 L 786 467 L 757 748 L 720 865 L 670 907 L 591 843"/>
    <path style="--d:12s; stroke:#000;" pathLength="3333" clip-path="url(#z31584c12)" d="M 489 570 L 581 598 L 603 624"/>
    <path style="--d:13s; stroke:#000;" pathLength="3333" clip-path="url(#z31584c13)" d="M 453 737 L 517 743 L 629 680"/>
</g>
</svg>