<svg id="z31637" class="acjk" viewBox="0 0 1024 1024" xmlns="http://www.w3.org/2000/svg">

<style>
<![CDATA[
@keyframes zk { to { stroke-dashoffset:0; } }
svg.acjk path[clip-path] {
    --t:0.8s;
    animation:zk var(--t) linear forwards var(--d);
    stroke-dasharray:3337;
    stroke-dashoffset:3339;
    stroke-width:128;
    stroke-linecap:round;
    fill:none;
}
/* Low opacity for background improves visual overlap at intersections */
svg.acjk .bg { fill:#ccc; opacity: 0.5; } 
]]>
</style>
<defs>
    <clipPath id="z31637c1"><path d="M 339 157 C 346 145 352 133 361 124 C 366 117 366 108 357 100 C 331 78 310 72 296 75 C 289 76 286 80 288 90 C 296 140 274 198 219 262 C 205 277 194 288 189 297 C 183 305 186 307 195 306 C 224 300 263 270 307 209 C 309 204 316 194 327 177 C 335 164 335 164 339 157 Z"/></clipPath>
    <clipPath id="z31637c2"><path d="M 327 177 C 357 191 387 191 419 182 C 469 167 495 162 497 162 C 501 157 503 152 500 147 C 495 140 483 135 465 132 C 446 129 418 136 380 150 C 367 154 353 155 339 157 C 331 159 320 174 327 177 Z"/></clipPath>
    <clipPath id="z31637c3"><path d="M 356 238 C 387 273 409 291 424 291 C 432 291 437 286 440 276 C 441 269 439 259 432 249 C 419 230 393 220 358 216 C 353 215 350 218 350 225 C 349 229 351 233 356 238 Z"/></clipPath>
    <clipPath id="z31637c4"><path d="M 621 118 C 627 106 634 95 642 86 C 646 79 646 70 637 63 C 610 43 588 37 577 41 C 570 42 569 47 571 56 C 578 141 526 184 496 238 C 491 246 493 248 503 246 C 510 244 520 240 531 231 C 563 204 588 172 608 140 C 617 125 617 125 621 118 Z"/></clipPath>
    <clipPath id="z31637c5"><path d="M 608 140 C 628 150 662 152 709 144 C 737 138 766 133 796 127 C 812 123 820 119 823 118 C 828 113 830 108 827 103 C 822 96 811 89 793 86 C 775 82 757 85 739 92 C 721 98 702 103 684 108 C 664 112 643 115 621 118 C 613 119 600 137 608 140 Z"/></clipPath>
    <clipPath id="z31637c6"><path d="M 652 224 C 668 235 683 249 700 263 C 707 269 716 272 725 272 C 731 271 735 267 737 260 C 739 251 738 238 732 223 C 724 204 695 191 646 185 C 637 183 630 183 628 185 C 624 186 624 192 626 199 C 627 205 636 213 652 224 Z"/></clipPath>
    <clipPath id="z31637c7"><path d="M 648 388 C 676 384 703 380 729 379 C 735 378 743 377 748 369 C 750 362 741 356 728 347 C 710 335 687 331 657 339 C 615 349 615 349 594 354 C 536 367 477 378 418 385 C 378 390 378 390 358 392 C 325 395 291 397 257 401 C 238 403 236 409 250 421 C 264 432 284 441 312 439 C 328 437 346 433 366 430 C 399 424 399 424 415 421 C 478 409 541 400 595 394 C 630 390 630 390 648 388 Z"/></clipPath>
    <clipPath id="z31637c8"><path d="M 418 385 C 419 366 422 348 410 337 C 395 324 378 316 361 309 C 352 305 344 304 338 309 C 332 312 331 320 336 331 C 343 351 353 370 358 392 C 363 417 363 417 366 430 C 373 467 375 611 377 687 C 377 700 417 696 417 683 C 416 658 415 634 415 612 C 414 595 414 595 414 587 C 413 564 414 542 414 520 C 414 505 414 505 414 497 C 414 457 414 431 415 421 C 417 397 417 397 418 385 Z"/></clipPath>
    <clipPath id="z31637c9"><path d="M 626 658 C 634 564 645 404 648 388 C 654 355 654 355 657 339 C 658 328 662 314 668 297 C 670 290 666 280 653 272 C 631 257 611 251 596 248 C 585 245 577 246 572 252 C 567 256 566 264 572 274 C 585 296 593 322 594 354 C 595 381 595 381 595 394 C 597 477 591 567 585 663 C 585 677 626 672 626 658 Z"/></clipPath>
    <clipPath id="z31637c10"><path d="M 414 520 C 428 520 507 504 549 498 C 561 495 566 490 561 483 C 554 474 543 468 529 467 C 505 464 466 475 414 497 C 407 500 406 520 414 520 Z"/></clipPath>
    <clipPath id="z31637c11"><path d="M 415 612 C 428 613 507 596 548 590 C 562 587 566 582 561 575 C 554 566 543 560 529 559 C 512 556 474 566 414 587 C 406 590 407 612 415 612 Z"/></clipPath>
    <clipPath id="z31637c12"><path d="M 377 687 C 295 695 210 702 122 712 C 107 713 104 720 116 733 C 125 744 137 750 151 755 C 165 759 179 760 192 757 C 336 718 556 700 850 700 C 866 700 883 700 899 701 C 913 701 922 698 926 692 C 930 683 927 673 915 664 C 876 633 843 622 816 628 C 765 637 702 648 626 658 C 599 661 599 661 585 663 C 527 670 470 677 417 683 C 390 686 390 686 377 687 Z"/></clipPath>
    <clipPath id="z31637c13"><path d="M 360 775 C 347 812 295 865 199 928 C 183 937 184 940 203 941 C 247 942 307 914 385 853 C 405 837 420 826 429 820 C 437 813 440 806 440 799 C 439 790 430 782 413 774 C 394 765 380 761 372 762 C 367 762 362 766 360 775 Z"/></clipPath>
    <clipPath id="z31637c14"><path d="M 593 781 C 627 815 666 858 708 910 C 719 924 728 935 739 938 C 745 939 751 935 757 929 C 765 919 765 900 760 869 C 753 832 698 793 595 748 C 588 745 584 746 583 755 C 581 764 585 773 593 781 Z"/></clipPath>
</defs>
<g id="bg-layer">
    <path class="bg" d="M 339 157 C 346 145 352 133 361 124 C 366 117 366 108 357 100 C 331 78 310 72 296 75 C 289 76 286 80 288 90 C 296 140 274 198 219 262 C 205 277 194 288 189 297 C 183 305 186 307 195 306 C 224 300 263 270 307 209 C 309 204 316 194 327 177 C 335 164 335 164 339 157 Z"/>
    <path class="bg" d="M 327 177 C 357 191 387 191 419 182 C 469 167 495 162 497 162 C 501 157 503 152 500 147 C 495 140 483 135 465 132 C 446 129 418 136 380 150 C 367 154 353 155 339 157 C 331 159 320 174 327 177 Z"/>
    <path class="bg" d="M 356 238 C 387 273 409 291 424 291 C 432 291 437 286 440 276 C 441 269 439 259 432 249 C 419 230 393 220 358 216 C 353 215 350 218 350 225 C 349 229 351 233 356 238 Z"/>
    <path class="bg" d="M 621 118 C 627 106 634 95 642 86 C 646 79 646 70 637 63 C 610 43 588 37 577 41 C 570 42 569 47 571 56 C 578 141 526 184 496 238 C 491 246 493 248 503 246 C 510 244 520 240 531 231 C 563 204 588 172 608 140 C 617 125 617 125 621 118 Z"/>
    <path class="bg" d="M 608 140 C 628 150 662 152 709 144 C 737 138 766 133 796 127 C 812 123 820 119 823 118 C 828 113 830 108 827 103 C 822 96 811 89 793 86 C 775 82 757 85 739 92 C 721 98 702 103 684 108 C 664 112 643 115 621 118 C 613 119 600 137 608 140 Z"/>
    <path class="bg" d="M 652 224 C 668 235 683 249 700 263 C 707 269 716 272 725 272 C 731 271 735 267 737 260 C 739 251 738 238 732 223 C 724 204 695 191 646 185 C 637 183 630 183 628 185 C 624 186 624 192 626 199 C 627 205 636 213 652 224 Z"/>
    <path class="bg" d="M 648 388 C 676 384 703 380 729 379 C 735 378 743 377 748 369 C 750 362 741 356 728 347 C 710 335 687 331 657 339 C 615 349 615 349 594 354 C 536 367 477 378 418 385 C 378 390 378 390 358 392 C 325 395 291 397 257 401 C 238 403 236 409 250 421 C 264 432 284 441 312 439 C 328 437 346 433 366 430 C 399 424 399 424 415 421 C 478 409 541 400 595 394 C 630 390 630 390 648 388 Z"/>
    <path class="bg" d="M 418 385 C 419 366 422 348 410 337 C 395 324 378 316 361 309 C 352 305 344 304 338 309 C 332 312 331 320 336 331 C 343 351 353 370 358 392 C 363 417 363 417 366 430 C 373 467 375 611 377 687 C 377 700 417 696 417 683 C 416 658 415 634 415 612 C 414 595 414 595 414 587 C 413 564 414 542 414 520 C 414 505 414 505 414 497 C 414 457 414 431 415 421 C 417 397 417 397 418 385 Z"/>
    <path class="bg" d="M 626 658 C 634 564 645 404 648 388 C 654 355 654 355 657 339 C 658 328 662 314 668 297 C 670 290 666 280 653 272 C 631 257 611 251 596 248 C 585 245 577 246 572 252 C 567 256 566 264 572 274 C 585 296 593 322 594 354 C 595 381 595 381 595 394 C 597 477 591 567 585 663 C 585 677 626 672 626 658 Z"/>
    <path class="bg" d="M 414 520 C 428 520 507 504 549 498 C 561 495 566 490 561 483 C 554 474 543 468 529 467 C 505 464 466 475 414 497 C 407 500 406 520 414 520 Z"/>
    <path class="bg" d="M 415 612 C 428 613 507 596 548 590 C 562 587 566 582 561 575 C 554 566 543 560 529 559 C 512 556 474 566 414 587 C 406 590 407 612 415 612 Z"/>
    <path class="bg" d="M 377 687 C 295 695 210 702 122 712 C 107 713 104 720 116 733 C 125 744 137 750 151 755 C 165 759 179 760 192 757 C 336 718 556 700 850 700 C 866 700 883 700 899 701 C 913 701 922 698 926 692 C 930 683 927 673 915 664 C 876 633 843 622 816 628 C 765 637 702 648 626 658 C 599 661 599 661 585 663 C 527 670 470 677 417 683 C 390 686 390 686 377 687 Z"/>
    <path class="bg" d="M 360 775 C 347 812 295 865 199 928 C 183 937 184 940 203 941 C 247 942 307 914 385 853 C 405 837 420 826 429 820 C 437 813 440 806 440 799 C 439 790 430 782 413 774 C 394 765 380 761 372 762 C 367 762 362 766 360 775 Z"/>
    <path class="bg" d="M 593 781 C 627 815 666 858 708 910 C 719 924 728 935 739 938 C 745 939 751 935 757 929 C 765 919 765 900 760 869 C 753 832 698 793 595 748 C 588 745 584 746 583 755 C 581 764 585 773 593 781 Z"/>
</g>
<g id="anim-layer">
    <path style="--d:1s; stroke:#FF4444;" pathLength="3333" clip-path="url(#z31637c1)" d="M 295 80 L 326 115 L 313 151 L 195 299"/>
    <path style="--d:2s; stroke:#FF4444;" pathLength="3333" clip-path="url(#z31637c2)" d="M 331 172 L 496 154"/>
    <path style="--d:3s; stroke:#FF4444;" pathLength="3333" clip-path="url(#z31637c3)" d="M 356 226 L 429 284"/>
    <path style="--d:4s; stroke:#FF4444;" pathLength="3333" clip-path="url(#z31637c4)" d="M 578 45 L 607 86 L 502 241"/>
    <path style="--d:5s; stroke:#FF4444;" pathLength="3333" clip-path="url(#z31637c5)" d="M 612 134 L 823 105"/>
    <path style="--d:6s; stroke:#FF4444;" pathLength="3333" clip-path="url(#z31637c6)" d="M 632 192 L 698 225 L 728 267"/>
    <path style="--d:7s; stroke:#000;" pathLength="3333" clip-path="url(#z31637c7)" d="M 248 410 L 742 364"/>
    <path style="--d:8s; stroke:#000;" pathLength="3333" clip-path="url(#z31637c8)" d="M 339 315 L 388 374 L 393 692"/>
    <path style="--d:9s; stroke:#000;" pathLength="3333" clip-path="url(#z31637c9)" d="M 574 258 L 628 303 L 605 669"/>
    <path style="--d:10s; stroke:#000;" pathLength="3333" clip-path="url(#z31637c10)" d="M 413 511 L 557 486"/>
    <path style="--d:11s; stroke:#000;" pathLength="3333" clip-path="url(#z31637c11)" d="M 414 601 L 558 577"/>
    <path style="--d:12s; stroke:#000;" pathLength="3333" clip-path="url(#z31637c12)" d="M 116 718 L 176 733 L 825 663 L 924 682"/>
    <path style="--d:13s; stroke:#000;" pathLength="3333" clip-path="url(#z31637c13)" d="M 373 766 L 385 814 L 197 934"/>
    <path style="--d:14s; stroke:#000;" pathLength="3333" clip-path="url(#z31637c14)" d="M 590 752 L 716 861 L 752 931"/>
</g>
</svg>