<svg id="z31644" class="acjk" viewBox="0 0 1024 1024" xmlns="http://www.w3.org/2000/svg">

<style>
<![CDATA[
@keyframes zk { to { stroke-dashoffset:0; } }
svg.acjk path[clip-path] {
    --t:0.8s;
    animation:zk var(--t) linear forwards var(--d);
    stroke-dasharray:3337;
    stroke-dashoffset:3339;
    stroke-width:128;
    stroke-linecap:round;
    fill:none;
}
/* Low opacity for background improves visual overlap at intersections */
svg.acjk .bg { fill:#ccc; opacity: 0.5; } 
]]>
</style>
<defs>
    <clipPath id="z31644c1"><path d="M 332 184 C 339 172 346 161 354 152 C 358 147 366 132 325 113 C 298 101 275 96 280 119 C 289 171 270 216 217 287 C 189 323 181 348 227 314 C 268 283 296 242 323 199 C 329 189 329 189 332 184 Z"/></clipPath>
    <clipPath id="z31644c2"><path d="M 323 199 C 355 215 386 214 420 208 C 445 202 485 194 508 186 C 528 178 502 157 477 155 C 458 153 440 156 423 163 C 380 178 347 179 332 184 C 326 185 318 197 323 199 Z"/></clipPath>
    <clipPath id="z31644c3"><path d="M 331 272 C 358 308 380 326 395 327 C 400 327 425 321 405 283 C 400 274 391 268 378 263 C 357 254 343 249 335 248 C 329 247 326 250 326 257 C 325 261 326 266 331 272 Z"/></clipPath>
    <clipPath id="z31644c4"><path d="M 615 170 C 616 167 625 146 649 108 C 654 98 653 89 643 83 C 613 64 590 58 577 62 C 570 63 568 70 571 79 C 583 120 573 176 529 236 C 500 273 498 301 542 264 C 568 242 583 224 604 189 C 611 176 611 176 615 170 Z"/></clipPath>
    <clipPath id="z31644c5"><path d="M 604 189 C 630 201 669 202 722 192 C 757 184 808 176 824 166 C 844 152 806 136 793 134 C 774 130 756 135 739 142 C 688 160 653 164 615 170 C 608 171 597 186 604 189 Z"/></clipPath>
    <clipPath id="z31644c6"><path d="M 639 281 C 656 292 672 306 690 321 C 699 328 723 338 729 316 C 731 307 729 294 722 278 C 714 261 683 248 631 240 C 622 238 615 238 612 241 C 608 242 607 248 610 256 C 611 262 622 270 639 281 Z"/></clipPath>
    <clipPath id="z31644c7"><path d="M 540 381 C 542 373 542 360 538 345 C 535 334 526 325 510 320 C 472 306 449 302 444 305 C 440 306 439 312 441 319 C 442 323 451 331 465 343 C 477 352 492 367 510 385 C 517 392 538 391 540 381 Z"/></clipPath>
    <clipPath id="z31644c8"><path d="M 278 415 C 272 402 265 393 260 389 C 249 380 241 383 241 399 C 239 424 223 456 187 493 C 173 507 174 531 191 565 C 199 581 212 583 223 565 C 246 525 261 481 281 440 C 285 433 282 423 278 415 Z"/></clipPath>
    <clipPath id="z31644c9"><path d="M 281 440 C 295 450 318 456 350 448 C 433 425 543 404 682 394 C 694 393 722 398 719 415 C 714 435 711 451 702 473 C 691 500 708 494 719 487 C 751 464 781 451 809 444 C 836 436 850 429 826 408 C 815 398 796 384 771 365 C 755 353 721 354 666 363 C 616 370 574 376 540 381 C 520 384 520 384 510 385 C 435 394 316 412 278 415 C 270 415 274 435 281 440 Z"/></clipPath>
    <clipPath id="z31644c10"><path d="M 371 491 Q 375 501 370 510 Q 352 547 289 615 Q 280 621 278 625 Q 274 632 284 633 Q 318 633 403 558 Q 415 546 424 542 Q 433 535 431 525 Q 430 515 412 495 Q 396 479 382 475 Q 369 474 371 491 Z"/></clipPath>
    <clipPath id="z31644c11"><path d="M 576 511 Q 606 536 638 565 Q 650 577 664 576 Q 673 575 677 563 Q 681 550 673 525 Q 667 506 636 490 Q 567 463 552 469 Q 548 473 549 484 Q 552 494 576 511 Z"/></clipPath>
    <clipPath id="z31644c12"><path d="M 516 675 C 550 670 585 663 621 658 C 649 653 664 648 669 645 C 679 636 686 615 638 607 C 603 601 557 618 492 631 C 449 638 389 644 356 647 C 331 648 327 657 344 670 C 384 700 429 687 473 681 C 502 677 502 677 516 675 Z"/></clipPath>
    <clipPath id="z31644c13"><path d="M 525 827 C 538 702 557 715 516 675 C 506 665 468 668 473 681 C 477 685 479 735 479 831 C 479 846 522 842 525 827 Z"/></clipPath>
    <clipPath id="z31644c14"><path d="M 479 831 C 396 838 307 845 211 852 C 195 853 192 859 204 873 C 209 879 239 908 280 899 C 424 866 608 858 833 873 C 866 875 872 853 850 835 C 812 803 779 792 752 797 C 695 806 619 818 525 827 C 494 830 494 830 479 831 Z"/></clipPath>
</defs>
<g id="bg-layer">
    <path class="bg" d="M 332 184 C 339 172 346 161 354 152 C 358 147 366 132 325 113 C 298 101 275 96 280 119 C 289 171 270 216 217 287 C 189 323 181 348 227 314 C 268 283 296 242 323 199 C 329 189 329 189 332 184 Z"/>
    <path class="bg" d="M 323 199 C 355 215 386 214 420 208 C 445 202 485 194 508 186 C 528 178 502 157 477 155 C 458 153 440 156 423 163 C 380 178 347 179 332 184 C 326 185 318 197 323 199 Z"/>
    <path class="bg" d="M 331 272 C 358 308 380 326 395 327 C 400 327 425 321 405 283 C 400 274 391 268 378 263 C 357 254 343 249 335 248 C 329 247 326 250 326 257 C 325 261 326 266 331 272 Z"/>
    <path class="bg" d="M 615 170 C 616 167 625 146 649 108 C 654 98 653 89 643 83 C 613 64 590 58 577 62 C 570 63 568 70 571 79 C 583 120 573 176 529 236 C 500 273 498 301 542 264 C 568 242 583 224 604 189 C 611 176 611 176 615 170 Z"/>
    <path class="bg" d="M 604 189 C 630 201 669 202 722 192 C 757 184 808 176 824 166 C 844 152 806 136 793 134 C 774 130 756 135 739 142 C 688 160 653 164 615 170 C 608 171 597 186 604 189 Z"/>
    <path class="bg" d="M 639 281 C 656 292 672 306 690 321 C 699 328 723 338 729 316 C 731 307 729 294 722 278 C 714 261 683 248 631 240 C 622 238 615 238 612 241 C 608 242 607 248 610 256 C 611 262 622 270 639 281 Z"/>
    <path class="bg" d="M 540 381 C 542 373 542 360 538 345 C 535 334 526 325 510 320 C 472 306 449 302 444 305 C 440 306 439 312 441 319 C 442 323 451 331 465 343 C 477 352 492 367 510 385 C 517 392 538 391 540 381 Z"/>
    <path class="bg" d="M 278 415 C 272 402 265 393 260 389 C 249 380 241 383 241 399 C 239 424 223 456 187 493 C 173 507 174 531 191 565 C 199 581 212 583 223 565 C 246 525 261 481 281 440 C 285 433 282 423 278 415 Z"/>
    <path class="bg" d="M 281 440 C 295 450 318 456 350 448 C 433 425 543 404 682 394 C 694 393 722 398 719 415 C 714 435 711 451 702 473 C 691 500 708 494 719 487 C 751 464 781 451 809 444 C 836 436 850 429 826 408 C 815 398 796 384 771 365 C 755 353 721 354 666 363 C 616 370 574 376 540 381 C 520 384 520 384 510 385 C 435 394 316 412 278 415 C 270 415 274 435 281 440 Z"/>
    <path class="bg" d="M 371 491 Q 375 501 370 510 Q 352 547 289 615 Q 280 621 278 625 Q 274 632 284 633 Q 318 633 403 558 Q 415 546 424 542 Q 433 535 431 525 Q 430 515 412 495 Q 396 479 382 475 Q 369 474 371 491 Z"/>
    <path class="bg" d="M 576 511 Q 606 536 638 565 Q 650 577 664 576 Q 673 575 677 563 Q 681 550 673 525 Q 667 506 636 490 Q 567 463 552 469 Q 548 473 549 484 Q 552 494 576 511 Z"/>
    <path class="bg" d="M 516 675 C 550 670 585 663 621 658 C 649 653 664 648 669 645 C 679 636 686 615 638 607 C 603 601 557 618 492 631 C 449 638 389 644 356 647 C 331 648 327 657 344 670 C 384 700 429 687 473 681 C 502 677 502 677 516 675 Z"/>
    <path class="bg" d="M 525 827 C 538 702 557 715 516 675 C 506 665 468 668 473 681 C 477 685 479 735 479 831 C 479 846 522 842 525 827 Z"/>
    <path class="bg" d="M 479 831 C 396 838 307 845 211 852 C 195 853 192 859 204 873 C 209 879 239 908 280 899 C 424 866 608 858 833 873 C 866 875 872 853 850 835 C 812 803 779 792 752 797 C 695 806 619 818 525 827 C 494 830 494 830 479 831 Z"/>
</g>
<g id="anim-layer">
    <path style="--d:1s; stroke:#FF4444;" pathLength="3333" clip-path="url(#z31644c1)" d="M 287 109 L 318 152 L 201 321"/>
    <path style="--d:2s; stroke:#FF4444;" pathLength="3333" clip-path="url(#z31644c2)" d="M 327 195 L 508 174"/>
    <path style="--d:3s; stroke:#FF4444;" pathLength="3333" clip-path="url(#z31644c3)" d="M 333 255 L 405 321"/>
    <path style="--d:4s; stroke:#FF4444;" pathLength="3333" clip-path="url(#z31644c4)" d="M 578 68 L 611 97 L 608 121 L 516 276"/>
    <path style="--d:5s; stroke:#FF4444;" pathLength="3333" clip-path="url(#z31644c5)" d="M 606 184 L 822 153"/>
    <path style="--d:6s; stroke:#FF4444;" pathLength="3333" clip-path="url(#z31644c6)" d="M 613 249 L 689 284 L 720 323"/>
    <path style="--d:7s; stroke:#000;" pathLength="3333" clip-path="url(#z31644c7)" d="M 446 312 L 534 382"/>
    <path style="--d:8s; stroke:#000;" pathLength="3333" clip-path="url(#z31644c8)" d="M 249 389 L 258 431 L 207 524 L 205 574"/>
    <path style="--d:9s; stroke:#000;" pathLength="3333" clip-path="url(#z31644c9)" d="M 278 423 L 733 379 L 783 433 L 706 486"/>
    <path style="--d:10s; stroke:#000;" pathLength="3333" clip-path="url(#z31644c10)" d="M 380 484 L 395 530 L 285 626"/>
    <path style="--d:11s; stroke:#000;" pathLength="3333" clip-path="url(#z31644c11)" d="M 554 475 L 641 528 L 662 573"/>
    <path style="--d:12s; stroke:#000;" pathLength="3333" clip-path="url(#z31644c12)" d="M 341 658 L 672 631"/>
    <path style="--d:13s; stroke:#000;" pathLength="3333" clip-path="url(#z31644c13)" d="M 480 678 L 509 719 L 499 839"/>
    <path style="--d:14s; stroke:#000;" pathLength="3333" clip-path="url(#z31644c14)" d="M 205 863 L 263 874 L 744 832 L 859 855"/>
</g>
</svg>