<svg id="z31807" class="acjk" viewBox="0 0 1024 1024" xmlns="http://www.w3.org/2000/svg">

<style>
<![CDATA[
@keyframes zk { to { stroke-dashoffset:0; } }
svg.acjk path[clip-path] {
    --t:0.8s;
    animation:zk var(--t) linear forwards var(--d);
    stroke-dasharray:3337;
    stroke-dashoffset:3339;
    stroke-width:128;
    stroke-linecap:round;
    fill:none;
}
/* Low opacity for background improves visual overlap at intersections */
svg.acjk .bg { fill:#ccc; opacity: 0.5; } 
]]>
</style>
<defs>
    <clipPath id="z31807c1"><path d="M 351 172 Q 367 148 385 129 Q 395 119 383 105 Q 352 74 327 76 Q 317 77 318 90 Q 324 160 243 244 Q 239 244 209 278 Q 202 290 215 287 Q 228 286 247 274 Q 302 238 336 192 C 346 179 346 179 351 172 Z"/></clipPath>
    <clipPath id="z31807c2"><path d="M 336 192 Q 367 207 403 197 Q 446 190 491 180 Q 512 176 515 173 Q 522 167 518 161 Q 514 152 491 146 C 398 163 398 163 351 172 C 343 174 328 189 336 192 Z"/></clipPath>
    <clipPath id="z31807c3"><path d="M 361 267 Q 400 306 413 306 Q 422 306 425 295 Q 429 285 422 261 Q 416 243 357 230 Q 344 227 340 230 Q 336 233 337 243 Q 340 250 361 267 Z"/></clipPath>
    <clipPath id="z31807c4"><path d="M 605 149 Q 612 134 640 91 Q 647 81 635 70 Q 605 46 581 50 Q 572 53 575 64 Q 587 127 535 191 Q 522 207 516 218 Q 510 231 522 226 Q 546 223 592 167 C 601 155 601 155 605 149 Z"/></clipPath>
    <clipPath id="z31807c5"><path d="M 592 167 Q 629 185 672 171 Q 721 158 771 145 Q 793 138 797 135 Q 804 128 799 121 Q 792 112 769 108 Q 744 105 721 116 Q 696 126 668 135 Q 638 142 605 149 C 598 150 585 164 592 167 Z"/></clipPath>
    <clipPath id="z31807c6"><path d="M 657 233 Q 696 266 708 266 Q 715 265 718 256 Q 719 246 712 226 Q 708 214 689 208 Q 644 196 636 202 Q 632 205 634 213 Q 637 220 657 233 Z"/></clipPath>
    <clipPath id="z31807c7"><path d="M 248 398 Q 267 416 288 437 Q 300 449 315 448 Q 325 448 329 435 Q 333 422 325 395 Q 321 379 296 368 Q 233 350 224 353 Q 220 357 221 369 Q 224 379 248 398 Z"/></clipPath>
    <clipPath id="z31807c8"><path d="M 160 522 Q 194 567 221 580 Q 234 583 243 571 Q 250 559 248 544 Q 244 522 227 509 Q 173 473 149 485 Q 145 486 146 497 Q 147 507 160 522 Z"/></clipPath>
    <clipPath id="z31807c9"><path d="M 154 776 Q 144 779 144 795 Q 157 864 183 880 Q 189 887 199 885 Q 206 884 207 861 Q 213 825 312 605 Q 319 592 318 585 Q 318 576 310 582 Q 304 585 191 742 Q 179 760 154 776 Z"/></clipPath>
    <clipPath id="z31807c10"><path d="M 589 351 Q 706 321 707 321 Q 714 315 710 309 Q 706 300 683 294 Q 665 291 593 314 C 559 323 559 323 542 328 Q 500 335 454 340 Q 426 344 446 357 Q 473 372 531 362 Q 537 361 546 360 C 575 354 575 354 589 351 Z"/></clipPath>
    <clipPath id="z31807c11"><path d="M 419 426 Q 403 416 386 412 Q 380 411 377 415 Q 370 419 378 428 Q 402 462 409 545 Q 412 599 443 618 Q 456 622 458 597 Q 459 572 450 541 Q 447 490 443 454 C 441 442 429 433 419 426 Z"/></clipPath>
    <clipPath id="z31807c12"><path d="M 587 422 Q 695 401 714 411 Q 721 415 716 438 Q 695 520 687 537 Q 680 552 684 566 Q 688 579 699 580 Q 711 579 718 566 Q 727 557 747 508 Q 762 465 794 440 Q 810 427 797 414 Q 782 398 741 375 Q 728 366 659 382 Q 644 382 587 394 C 561 399 561 399 548 401 Q 529 404 515 408 Q 457 420 419 426 C 407 428 432 459 443 454 Q 485 439 549 429 C 574 424 574 424 587 422 Z"/></clipPath>
    <clipPath id="z31807c13"><path d="M 584 501 Q 614 494 642 489 Q 661 485 653 474 Q 643 462 622 460 Q 607 459 585 465 C 561 474 561 474 549 478 Q 518 488 493 497 Q 480 501 497 513 Q 504 517 519 514 Q 532 510 549 508 C 572 503 572 503 584 501 Z"/></clipPath>
    <clipPath id="z31807c14"><path d="M 581 576 Q 609 569 637 565 Q 656 561 649 550 Q 639 538 619 536 Q 604 535 582 540 C 559 548 559 548 547 552 Q 519 561 493 569 Q 480 573 497 585 Q 498 585 546 582 C 569 578 569 578 581 576 Z"/></clipPath>
    <clipPath id="z31807c15"><path d="M 546 582 Q 546 603 554 626 Q 558 636 566 630 Q 575 621 581 576 C 582 552 582 552 582 540 Q 583 519 584 501 C 585 477 585 477 585 465 Q 585 443 587 422 C 587 403 587 403 587 394 Q 587 370 589 351 C 592 326 592 326 593 314 Q 597 277 592 271 Q 580 261 557 249 Q 538 242 520 250 Q 510 257 522 270 Q 538 300 542 328 C 545 349 545 349 546 360 Q 547 379 548 401 C 549 420 549 420 549 429 Q 549 451 549 478 C 549 498 549 498 549 508 Q 548 530 547 552 C 546 572 546 572 546 582 Z"/></clipPath>
    <clipPath id="z31807c16"><path d="M 788 309 Q 803 325 818 345 Q 828 358 843 358 Q 852 358 857 347 Q 861 335 857 309 Q 850 284 787 268 Q 774 264 768 265 Q 764 268 764 280 Q 765 290 788 309 Z"/></clipPath>
    <clipPath id="z31807c17"><path d="M 696 668 Q 766 661 855 660 Q 916 660 923 651 Q 927 641 913 629 Q 864 592 801 610 Q 756 619 699 631 C 654 639 654 639 632 643 Q 619 644 604 647 Q 475 666 323 688 Q 304 689 318 705 Q 331 717 347 722 Q 366 726 380 722 Q 515 683 639 673 C 677 670 677 670 696 668 Z"/></clipPath>
    <clipPath id="z31807c18"><path d="M 603 867 Q 581 866 558 864 Q 545 863 547 870 Q 548 876 559 883 Q 617 932 637 964 Q 652 980 666 966 Q 700 929 694 843 Q 688 698 696 668 C 698 656 707 641 699 631 Q 686 610 641 594 Q 623 587 616 595 Q 610 601 620 616 Q 627 629 632 643 C 637 663 637 663 639 673 Q 648 733 640 834 Q 639 856 626 864 Q 617 871 603 867 Z"/></clipPath>
    <clipPath id="z31807c19"><path d="M 473 787 Q 489 800 506 818 Q 519 828 532 828 Q 541 827 545 816 Q 549 803 540 777 Q 536 764 513 755 Q 461 740 448 745 Q 444 749 445 760 Q 449 770 473 787 Z"/></clipPath>
</defs>
<g id="bg-layer">
    <path class="bg" d="M 351 172 Q 367 148 385 129 Q 395 119 383 105 Q 352 74 327 76 Q 317 77 318 90 Q 324 160 243 244 Q 239 244 209 278 Q 202 290 215 287 Q 228 286 247 274 Q 302 238 336 192 C 346 179 346 179 351 172 Z"/>
    <path class="bg" d="M 336 192 Q 367 207 403 197 Q 446 190 491 180 Q 512 176 515 173 Q 522 167 518 161 Q 514 152 491 146 C 398 163 398 163 351 172 C 343 174 328 189 336 192 Z"/>
    <path class="bg" d="M 361 267 Q 400 306 413 306 Q 422 306 425 295 Q 429 285 422 261 Q 416 243 357 230 Q 344 227 340 230 Q 336 233 337 243 Q 340 250 361 267 Z"/>
    <path class="bg" d="M 605 149 Q 612 134 640 91 Q 647 81 635 70 Q 605 46 581 50 Q 572 53 575 64 Q 587 127 535 191 Q 522 207 516 218 Q 510 231 522 226 Q 546 223 592 167 C 601 155 601 155 605 149 Z"/>
    <path class="bg" d="M 592 167 Q 629 185 672 171 Q 721 158 771 145 Q 793 138 797 135 Q 804 128 799 121 Q 792 112 769 108 Q 744 105 721 116 Q 696 126 668 135 Q 638 142 605 149 C 598 150 585 164 592 167 Z"/>
    <path class="bg" d="M 657 233 Q 696 266 708 266 Q 715 265 718 256 Q 719 246 712 226 Q 708 214 689 208 Q 644 196 636 202 Q 632 205 634 213 Q 637 220 657 233 Z"/>
    <path class="bg" d="M 248 398 Q 267 416 288 437 Q 300 449 315 448 Q 325 448 329 435 Q 333 422 325 395 Q 321 379 296 368 Q 233 350 224 353 Q 220 357 221 369 Q 224 379 248 398 Z"/>
    <path class="bg" d="M 160 522 Q 194 567 221 580 Q 234 583 243 571 Q 250 559 248 544 Q 244 522 227 509 Q 173 473 149 485 Q 145 486 146 497 Q 147 507 160 522 Z"/>
    <path class="bg" d="M 154 776 Q 144 779 144 795 Q 157 864 183 880 Q 189 887 199 885 Q 206 884 207 861 Q 213 825 312 605 Q 319 592 318 585 Q 318 576 310 582 Q 304 585 191 742 Q 179 760 154 776 Z"/>
    <path class="bg" d="M 589 351 Q 706 321 707 321 Q 714 315 710 309 Q 706 300 683 294 Q 665 291 593 314 C 559 323 559 323 542 328 Q 500 335 454 340 Q 426 344 446 357 Q 473 372 531 362 Q 537 361 546 360 C 575 354 575 354 589 351 Z"/>
    <path class="bg" d="M 419 426 Q 403 416 386 412 Q 380 411 377 415 Q 370 419 378 428 Q 402 462 409 545 Q 412 599 443 618 Q 456 622 458 597 Q 459 572 450 541 Q 447 490 443 454 C 441 442 429 433 419 426 Z"/>
    <path class="bg" d="M 587 422 Q 695 401 714 411 Q 721 415 716 438 Q 695 520 687 537 Q 680 552 684 566 Q 688 579 699 580 Q 711 579 718 566 Q 727 557 747 508 Q 762 465 794 440 Q 810 427 797 414 Q 782 398 741 375 Q 728 366 659 382 Q 644 382 587 394 C 561 399 561 399 548 401 Q 529 404 515 408 Q 457 420 419 426 C 407 428 432 459 443 454 Q 485 439 549 429 C 574 424 574 424 587 422 Z"/>
    <path class="bg" d="M 584 501 Q 614 494 642 489 Q 661 485 653 474 Q 643 462 622 460 Q 607 459 585 465 C 561 474 561 474 549 478 Q 518 488 493 497 Q 480 501 497 513 Q 504 517 519 514 Q 532 510 549 508 C 572 503 572 503 584 501 Z"/>
    <path class="bg" d="M 581 576 Q 609 569 637 565 Q 656 561 649 550 Q 639 538 619 536 Q 604 535 582 540 C 559 548 559 548 547 552 Q 519 561 493 569 Q 480 573 497 585 Q 498 585 546 582 C 569 578 569 578 581 576 Z"/>
    <path class="bg" d="M 546 582 Q 546 603 554 626 Q 558 636 566 630 Q 575 621 581 576 C 582 552 582 552 582 540 Q 583 519 584 501 C 585 477 585 477 585 465 Q 585 443 587 422 C 587 403 587 403 587 394 Q 587 370 589 351 C 592 326 592 326 593 314 Q 597 277 592 271 Q 580 261 557 249 Q 538 242 520 250 Q 510 257 522 270 Q 538 300 542 328 C 545 349 545 349 546 360 Q 547 379 548 401 C 549 420 549 420 549 429 Q 549 451 549 478 C 549 498 549 498 549 508 Q 548 530 547 552 C 546 572 546 572 546 582 Z"/>
    <path class="bg" d="M 788 309 Q 803 325 818 345 Q 828 358 843 358 Q 852 358 857 347 Q 861 335 857 309 Q 850 284 787 268 Q 774 264 768 265 Q 764 268 764 280 Q 765 290 788 309 Z"/>
    <path class="bg" d="M 696 668 Q 766 661 855 660 Q 916 660 923 651 Q 927 641 913 629 Q 864 592 801 610 Q 756 619 699 631 C 654 639 654 639 632 643 Q 619 644 604 647 Q 475 666 323 688 Q 304 689 318 705 Q 331 717 347 722 Q 366 726 380 722 Q 515 683 639 673 C 677 670 677 670 696 668 Z"/>
    <path class="bg" d="M 603 867 Q 581 866 558 864 Q 545 863 547 870 Q 548 876 559 883 Q 617 932 637 964 Q 652 980 666 966 Q 700 929 694 843 Q 688 698 696 668 C 698 656 707 641 699 631 Q 686 610 641 594 Q 623 587 616 595 Q 610 601 620 616 Q 627 629 632 643 C 637 663 637 663 639 673 Q 648 733 640 834 Q 639 856 626 864 Q 617 871 603 867 Z"/>
    <path class="bg" d="M 473 787 Q 489 800 506 818 Q 519 828 532 828 Q 541 827 545 816 Q 549 803 540 777 Q 536 764 513 755 Q 461 740 448 745 Q 444 749 445 760 Q 449 770 473 787 Z"/>
</g>
<g id="anim-layer">
    <path style="--d:1s; stroke:#FF4444;" pathLength="3333" clip-path="url(#z31807c1)" d="M 328 81 L 352 126 L 214 282"/>
    <path style="--d:2s; stroke:#FF4444;" pathLength="3333" clip-path="url(#z31807c2)" d="M 340 188 L 515 165"/>
    <path style="--d:3s; stroke:#FF4444;" pathLength="3333" clip-path="url(#z31807c3)" d="M 343 239 L 419 296"/>
    <path style="--d:4s; stroke:#FF4444;" pathLength="3333" clip-path="url(#z31807c4)" d="M 581 56 L 608 94 L 520 221"/>
    <path style="--d:5s; stroke:#FF4444;" pathLength="3333" clip-path="url(#z31807c5)" d="M 598 163 L 794 125"/>
    <path style="--d:6s; stroke:#FF4444;" pathLength="3333" clip-path="url(#z31807c6)" d="M 638 206 L 709 258"/>
    <path style="--d:7s; stroke:#000;" pathLength="3333" clip-path="url(#z31807c7)" d="M 228 359 L 320 442"/>
    <path style="--d:8s; stroke:#000;" pathLength="3333" clip-path="url(#z31807c8)" d="M 155 494 L 235 573"/>
    <path style="--d:9s; stroke:#000;" pathLength="3333" clip-path="url(#z31807c9)" d="M 149 792 L 196 831 L 310 591"/>
    <path style="--d:10s; stroke:#000;" pathLength="3333" clip-path="url(#z31807c10)" d="M 447 350 L 704 311"/>
    <path style="--d:11s; stroke:#000;" pathLength="3333" clip-path="url(#z31807c11)" d="M 381 419 L 419 460 L 445 612"/>
    <path style="--d:12s; stroke:#000;" pathLength="3333" clip-path="url(#z31807c12)" d="M 423 430 L 735 397 L 759 431 L 695 574"/>
    <path style="--d:13s; stroke:#000;" pathLength="3333" clip-path="url(#z31807c13)" d="M 495 505 L 647 476"/>
    <path style="--d:14s; stroke:#000;" pathLength="3333" clip-path="url(#z31807c14)" d="M 497 577 L 643 554"/>
    <path style="--d:15s; stroke:#000;" pathLength="3333" clip-path="url(#z31807c15)" d="M 525 257 L 566 296 L 563 624"/>
    <path style="--d:16s; stroke:#000;" pathLength="3333" clip-path="url(#z31807c16)" d="M 772 271 L 851 351"/>
    <path style="--d:17s; stroke:#000;" pathLength="3333" clip-path="url(#z31807c17)" d="M 319 694 L 373 702 L 828 632 L 919 638"/>
    <path style="--d:18s; stroke:#000;" pathLength="3333" clip-path="url(#z31807c18)" d="M 620 598 L 669 649 L 664 873 L 634 920 L 552 871"/>
    <path style="--d:19s; stroke:#000;" pathLength="3333" clip-path="url(#z31807c19)" d="M 451 753 L 538 822"/>
</g>
</svg>