<svg id="z31922" class="acjk" viewBox="0 0 1024 1024" xmlns="http://www.w3.org/2000/svg">

<style>
<![CDATA[
@keyframes zk { to { stroke-dashoffset:0; } }
svg.acjk path[clip-path] {
    --t:0.8s;
    animation:zk var(--t) linear forwards var(--d);
    stroke-dasharray:3337;
    stroke-dashoffset:3339;
    stroke-width:128;
    stroke-linecap:round;
    fill:none;
}
/* Low opacity for background improves visual overlap at intersections */
svg.acjk .bg { fill:#ccc; opacity: 0.5; } 
]]>
</style>
<defs>
    <clipPath id="z31922c1"><path d="M 386 255 Q 390 212 395 172 C 397 155 397 155 398 146 Q 398 140 410 91 Q 411 82 397 71 Q 369 55 351 52 Q 338 49 332 56 Q 326 62 332 74 Q 345 90 345 101 Q 352 176 352 262 C 352 274 386 267 386 255 Z"/></clipPath>
    <clipPath id="z31922c2"><path d="M 395 172 Q 398 173 406 172 Q 469 162 516 155 Q 538 151 529 139 Q 519 126 495 122 Q 456 119 398 146 C 390 149 386 172 395 172 Z"/></clipPath>
    <clipPath id="z31922c3"><path d="M 275 332 Q 299 302 314 293 C 322 287 330 274 325 265 Q 307 229 279 225 Q 266 225 269 241 Q 279 277 164 395 Q 157 401 153 405 Q 150 412 160 412 Q 182 412 256 350 C 269 338 269 338 275 332 Z"/></clipPath>
    <clipPath id="z31922c4"><path d="M 314 293 Q 326 293 403 281 Q 418 278 423 284 Q 426 290 415 305 Q 352 417 173 544 Q 161 553 173 555 Q 299 528 465 327 Q 483 305 512 282 Q 525 275 521 266 Q 520 259 470 236 Q 455 226 438 237 Q 419 247 389 254 Q 386 254 386 255 C 363 260 363 260 352 262 Q 337 263 325 265 C 315 267 304 293 314 293 Z"/></clipPath>
    <clipPath id="z31922c5"><path d="M 256 350 Q 292 395 309 398 Q 319 399 325 385 Q 326 375 320 359 Q 307 338 275 332 C 266 330 251 343 256 350 Z"/></clipPath>
    <clipPath id="z31922c6"><path d="M 709 312 Q 737 275 763 219 Q 775 194 794 178 Q 810 165 800 152 Q 790 140 761 129 Q 746 123 661 153 Q 616 166 554 177 Q 542 178 538 184 Q 535 191 551 197 Q 584 207 626 194 Q 689 170 700 171 Q 716 175 710 192 Q 695 252 666 292 C 649 313 649 313 640 323 Q 591 371 480 401 Q 467 405 478 413 Q 482 416 519 414 Q 565 411 619 385 Q 650 370 675 348 C 698 324 698 324 709 312 Z"/></clipPath>
    <clipPath id="z31922c7"><path d="M 675 348 Q 730 388 791 438 Q 807 453 820 455 Q 827 455 833 446 Q 840 433 826 398 Q 811 362 709 312 C 680 299 680 299 666 292 Q 608 264 571 251 Q 564 247 563 258 Q 564 270 574 277 Q 605 298 640 323 C 663 340 663 340 675 348 Z"/></clipPath>
    <clipPath id="z31922c8"><path d="M 339 526 Q 375 568 404 583 Q 416 586 424 575 Q 428 565 427 551 Q 420 518 350 495 Q 337 491 329 493 Q 325 494 326 504 Q 327 514 339 526 Z"/></clipPath>
    <clipPath id="z31922c9"><path d="M 630 471 Q 606 499 561 543 Q 554 550 559 557 Q 566 560 574 556 Q 659 516 699 501 Q 717 498 714 487 Q 710 471 694 450 Q 678 431 656 425 Q 641 424 640 442 Q 641 455 630 471 Z"/></clipPath>
    <clipPath id="z31922c10"><path d="M 531 646 Q 684 631 860 642 Q 881 642 886 633 Q 892 621 875 607 Q 818 562 770 574 Q 674 590 523 611 C 492 614 492 614 477 615 Q 332 628 166 645 Q 144 646 159 665 Q 174 680 192 686 Q 214 692 231 688 Q 328 663 438 654 C 500 649 500 649 531 646 Z"/></clipPath>
    <clipPath id="z31922c11"><path d="M 523 611 Q 524 532 530 499 Q 533 487 526 481 Q 504 462 485 452 Q 473 448 464 455 Q 458 459 465 468 Q 480 489 477 615 C 474 668 474 668 473 694 Q 464 830 457 853 Q 448 889 481 940 Q 491 958 500 962 Q 510 963 516 951 Q 528 920 525 890 Q 522 772 522 672 C 523 631 523 631 523 611 Z"/></clipPath>
    <clipPath id="z31922c12"><path d="M 438 654 Q 431 670 413 690 Q 358 753 300 792 Q 251 829 151 877 Q 133 887 148 891 Q 181 900 282 855 Q 372 794 397 774 Q 439 738 465 704 Q 469 698 473 694 C 506 661 455 611 438 654 Z"/></clipPath>
    <clipPath id="z31922c13"><path d="M 522 672 Q 702 870 755 880 Q 845 880 908 867 Q 926 864 927 859 Q 930 852 915 847 Q 744 790 708 770 Q 612 713 531 646 C 515 634 510 656 522 672 Z"/></clipPath>
</defs>
<g id="bg-layer">
    <path class="bg" d="M 386 255 Q 390 212 395 172 C 397 155 397 155 398 146 Q 398 140 410 91 Q 411 82 397 71 Q 369 55 351 52 Q 338 49 332 56 Q 326 62 332 74 Q 345 90 345 101 Q 352 176 352 262 C 352 274 386 267 386 255 Z"/>
    <path class="bg" d="M 395 172 Q 398 173 406 172 Q 469 162 516 155 Q 538 151 529 139 Q 519 126 495 122 Q 456 119 398 146 C 390 149 386 172 395 172 Z"/>
    <path class="bg" d="M 275 332 Q 299 302 314 293 C 322 287 330 274 325 265 Q 307 229 279 225 Q 266 225 269 241 Q 279 277 164 395 Q 157 401 153 405 Q 150 412 160 412 Q 182 412 256 350 C 269 338 269 338 275 332 Z"/>
    <path class="bg" d="M 314 293 Q 326 293 403 281 Q 418 278 423 284 Q 426 290 415 305 Q 352 417 173 544 Q 161 553 173 555 Q 299 528 465 327 Q 483 305 512 282 Q 525 275 521 266 Q 520 259 470 236 Q 455 226 438 237 Q 419 247 389 254 Q 386 254 386 255 C 363 260 363 260 352 262 Q 337 263 325 265 C 315 267 304 293 314 293 Z"/>
    <path class="bg" d="M 256 350 Q 292 395 309 398 Q 319 399 325 385 Q 326 375 320 359 Q 307 338 275 332 C 266 330 251 343 256 350 Z"/>
    <path class="bg" d="M 709 312 Q 737 275 763 219 Q 775 194 794 178 Q 810 165 800 152 Q 790 140 761 129 Q 746 123 661 153 Q 616 166 554 177 Q 542 178 538 184 Q 535 191 551 197 Q 584 207 626 194 Q 689 170 700 171 Q 716 175 710 192 Q 695 252 666 292 C 649 313 649 313 640 323 Q 591 371 480 401 Q 467 405 478 413 Q 482 416 519 414 Q 565 411 619 385 Q 650 370 675 348 C 698 324 698 324 709 312 Z"/>
    <path class="bg" d="M 675 348 Q 730 388 791 438 Q 807 453 820 455 Q 827 455 833 446 Q 840 433 826 398 Q 811 362 709 312 C 680 299 680 299 666 292 Q 608 264 571 251 Q 564 247 563 258 Q 564 270 574 277 Q 605 298 640 323 C 663 340 663 340 675 348 Z"/>
    <path class="bg" d="M 339 526 Q 375 568 404 583 Q 416 586 424 575 Q 428 565 427 551 Q 420 518 350 495 Q 337 491 329 493 Q 325 494 326 504 Q 327 514 339 526 Z"/>
    <path class="bg" d="M 630 471 Q 606 499 561 543 Q 554 550 559 557 Q 566 560 574 556 Q 659 516 699 501 Q 717 498 714 487 Q 710 471 694 450 Q 678 431 656 425 Q 641 424 640 442 Q 641 455 630 471 Z"/>
    <path class="bg" d="M 531 646 Q 684 631 860 642 Q 881 642 886 633 Q 892 621 875 607 Q 818 562 770 574 Q 674 590 523 611 C 492 614 492 614 477 615 Q 332 628 166 645 Q 144 646 159 665 Q 174 680 192 686 Q 214 692 231 688 Q 328 663 438 654 C 500 649 500 649 531 646 Z"/>
    <path class="bg" d="M 523 611 Q 524 532 530 499 Q 533 487 526 481 Q 504 462 485 452 Q 473 448 464 455 Q 458 459 465 468 Q 480 489 477 615 C 474 668 474 668 473 694 Q 464 830 457 853 Q 448 889 481 940 Q 491 958 500 962 Q 510 963 516 951 Q 528 920 525 890 Q 522 772 522 672 C 523 631 523 631 523 611 Z"/>
    <path class="bg" d="M 438 654 Q 431 670 413 690 Q 358 753 300 792 Q 251 829 151 877 Q 133 887 148 891 Q 181 900 282 855 Q 372 794 397 774 Q 439 738 465 704 Q 469 698 473 694 C 506 661 455 611 438 654 Z"/>
    <path class="bg" d="M 522 672 Q 702 870 755 880 Q 845 880 908 867 Q 926 864 927 859 Q 930 852 915 847 Q 744 790 708 770 Q 612 713 531 646 C 515 634 510 656 522 672 Z"/>
</g>
<g id="anim-layer">
    <path style="--d:1s; stroke:#FF4444;" pathLength="3333" clip-path="url(#z31922c1)" d="M 337 62 L 377 93 L 366 258"/>
    <path style="--d:2s; stroke:#FF4444;" pathLength="3333" clip-path="url(#z31922c2)" d="M 402 165 L 525 142"/>
    <path style="--d:3s; stroke:#FF4444;" pathLength="3333" clip-path="url(#z31922c3)" d="M 277 230 L 288 281 L 159 406"/>
    <path style="--d:4s; stroke:#FF4444;" pathLength="3333" clip-path="url(#z31922c4)" d="M 325 286 L 437 256 L 472 281 L 304 465 L 177 548"/>
    <path style="--d:5s; stroke:#FF4444;" pathLength="3333" clip-path="url(#z31922c5)" d="M 265 345 L 315 393"/>
    <path style="--d:6s; stroke:#FF4444;" pathLength="3333" clip-path="url(#z31922c6)" d="M 545 185 L 726 153 L 756 174 L 657 336 L 567 388 L 480 406"/>
    <path style="--d:7s; stroke:#FF4444;" pathLength="3333" clip-path="url(#z31922c7)" d="M 570 261 L 763 376 L 823 448"/>
    <path style="--d:8s; stroke:#000;" pathLength="3333" clip-path="url(#z31922c8)" d="M 333 499 L 418 577"/>
    <path style="--d:9s; stroke:#000;" pathLength="3333" clip-path="url(#z31922c9)" d="M 653 429 L 669 485 L 565 550"/>
    <path style="--d:10s; stroke:#000;" pathLength="3333" clip-path="url(#z31922c10)" d="M 160 653 L 231 663 L 778 605 L 883 623"/>
    <path style="--d:11s; stroke:#000;" pathLength="3333" clip-path="url(#z31922c11)" d="M 469 458 L 502 496 L 489 865 L 504 955"/>
    <path style="--d:12s; stroke:#000;" pathLength="3333" clip-path="url(#z31922c12)" d="M 470 658 L 321 803 L 149 884"/>
    <path style="--d:13s; stroke:#000;" pathLength="3333" clip-path="url(#z31922c13)" d="M 527 658 L 743 830 L 918 855"/>
</g>
</svg>