<svg id="z31949" class="acjk" viewBox="0 0 1024 1024" xmlns="http://www.w3.org/2000/svg">

<style>
<![CDATA[
@keyframes zk { to { stroke-dashoffset:0; } }
svg.acjk path[clip-path] {
    --t:0.8s;
    animation:zk var(--t) linear forwards var(--d);
    stroke-dasharray:3337;
    stroke-dashoffset:3339;
    stroke-width:128;
    stroke-linecap:round;
    fill:none;
}
/* Low opacity for background improves visual overlap at intersections */
svg.acjk .bg { fill:#ccc; opacity: 0.5; } 
]]>
</style>
<defs>
    <clipPath id="z31949c1"><path d="M 147 331 Q 184 385 197 388 Q 207 389 213 379 Q 220 367 217 340 Q 214 319 151 290 Q 138 284 132 285 Q 128 288 126 299 Q 127 309 147 331 Z"/></clipPath>
    <clipPath id="z31949c2"><path d="M 365 263 Q 355 290 330 333 Q 326 340 331 345 Q 338 345 344 340 Q 401 291 430 272 Q 443 265 439 257 Q 432 244 414 231 Q 395 218 377 219 Q 364 220 367 237 Q 371 247 365 263 Z"/></clipPath>
    <clipPath id="z31949c3"><path d="M 305 453 Q 348 444 385 437 Q 395 438 403 425 Q 403 415 381 406 Q 354 390 324 399 Q 314 402 306 406 C 278 415 278 415 264 419 Q 252 422 242 425 Q 227 428 82 461 Q 55 465 77 481 Q 113 502 137 495 Q 180 482 238 469 C 283 458 283 458 305 453 Z"/></clipPath>
    <clipPath id="z31949c4"><path d="M 303 501 Q 304 477 305 453 C 306 422 306 422 306 406 Q 306 262 328 187 Q 337 174 334 160 Q 327 151 275 119 Q 253 103 234 117 Q 230 121 235 136 Q 265 181 265 255 Q 265 402 264 419 C 261 492 261 492 260 528 Q 251 712 250 719 Q 226 830 228 838 Q 228 847 246 887 Q 252 903 259 907 Q 265 913 272 905 Q 279 901 289 882 Q 299 858 298 829 Q 297 792 303 525 C 303 509 303 509 303 501 Z"/></clipPath>
    <clipPath id="z31949c5"><path d="M 238 469 Q 190 587 47 768 Q 41 777 52 778 Q 58 779 66 771 Q 186 672 260 528 C 282 474 260 415 238 469 Z"/></clipPath>
    <clipPath id="z31949c6"><path d="M 303 525 Q 345 579 364 582 Q 374 583 381 568 Q 382 558 376 541 Q 361 514 306 501 Q 303 500 303 501 C 295 500 298 519 303 525 Z"/></clipPath>
    <clipPath id="z31949c7"><path d="M 513 229 Q 534 254 556 286 Q 566 299 581 301 Q 591 302 597 291 Q 604 278 600 250 Q 599 231 572 213 Q 512 177 496 181 Q 492 184 490 196 Q 491 206 513 229 Z"/></clipPath>
    <clipPath id="z31949c8"><path d="M 657 350 Q 688 311 759 215 Q 772 193 794 176 Q 813 160 796 144 Q 778 131 747 125 Q 719 118 707 125 Q 694 131 703 143 Q 713 164 666 279 Q 648 315 631 355 C 628 363 652 357 657 350 Z"/></clipPath>
    <clipPath id="z31949c9"><path d="M 511 418 Q 649 379 874 379 Q 895 379 900 370 Q 904 358 889 346 Q 831 304 777 325 Q 728 335 657 350 C 640 353 640 353 631 355 Q 534 370 419 390 Q 400 393 415 409 Q 439 433 480 427 C 501 421 501 421 511 418 Z"/></clipPath>
    <clipPath id="z31949c10"><path d="M 534 624 Q 495 624 464 624 Q 436 625 450 607 Q 496 534 539 478 Q 551 465 548 457 Q 547 445 513 419 Q 512 418 511 418 C 502 412 478 416 480 427 Q 492 460 434 570 Q 422 594 395 618 Q 380 630 381 640 Q 385 656 397 671 Q 403 677 430 668 Q 470 650 522 644 C 530 642 542 624 534 624 Z"/></clipPath>
    <clipPath id="z31949c11"><path d="M 575 755 Q 532 762 484 778 Q 459 788 474 767 Q 582 610 633 567 Q 643 557 638 548 Q 628 532 598 515 Q 583 508 575 510 Q 566 513 568 527 Q 569 557 534 624 C 526 637 526 637 522 644 Q 521 645 520 648 Q 433 778 405 793 Q 393 802 396 814 Q 397 826 421 843 Q 431 853 444 842 Q 495 803 582 770 C 583 770 583 770 584 770 C 590 769 581 754 575 755 Z"/></clipPath>
    <clipPath id="z31949c12"><path d="M 584 770 Q 603 804 613 808 Q 620 809 626 803 Q 632 794 633 773 Q 633 751 578 715 Q 569 709 564 710 Q 560 711 558 720 Q 558 727 571 747 Q 572 750 575 755 C 581 765 581 765 584 770 Z"/></clipPath>
    <clipPath id="z31949c13"><path d="M 785 604 Q 742 604 707 604 Q 676 604 692 586 Q 737 519 779 469 Q 791 453 789 447 Q 788 434 753 407 Q 738 394 722 398 Q 712 401 718 414 Q 730 447 672 551 Q 660 573 635 596 Q 619 609 620 619 Q 624 635 636 652 Q 645 662 656 655 Q 680 642 758 628 Q 764 627 771 627 C 780 627 794 604 785 604 Z"/></clipPath>
    <clipPath id="z31949c14"><path d="M 838 739 Q 792 746 735 763 Q 707 773 725 749 Q 756 706 831 617 Q 858 581 881 561 Q 893 551 887 542 Q 877 524 845 506 Q 830 499 821 501 Q 812 504 814 518 Q 815 545 785 604 C 776 619 776 619 771 627 Q 680 762 652 776 Q 639 783 642 797 Q 643 810 668 828 Q 678 840 692 828 Q 758 783 846 757 C 852 756 844 738 838 739 Z"/></clipPath>
    <clipPath id="z31949c15"><path d="M 846 757 Q 889 839 891 841 Q 897 844 905 838 Q 918 831 919 795 Q 919 750 820 664 Q 814 658 809 667 Q 805 677 811 688 Q 824 710 838 739 C 843 751 843 751 846 757 Z"/></clipPath>
</defs>
<g id="bg-layer">
    <path class="bg" d="M 147 331 Q 184 385 197 388 Q 207 389 213 379 Q 220 367 217 340 Q 214 319 151 290 Q 138 284 132 285 Q 128 288 126 299 Q 127 309 147 331 Z"/>
    <path class="bg" d="M 365 263 Q 355 290 330 333 Q 326 340 331 345 Q 338 345 344 340 Q 401 291 430 272 Q 443 265 439 257 Q 432 244 414 231 Q 395 218 377 219 Q 364 220 367 237 Q 371 247 365 263 Z"/>
    <path class="bg" d="M 305 453 Q 348 444 385 437 Q 395 438 403 425 Q 403 415 381 406 Q 354 390 324 399 Q 314 402 306 406 C 278 415 278 415 264 419 Q 252 422 242 425 Q 227 428 82 461 Q 55 465 77 481 Q 113 502 137 495 Q 180 482 238 469 C 283 458 283 458 305 453 Z"/>
    <path class="bg" d="M 303 501 Q 304 477 305 453 C 306 422 306 422 306 406 Q 306 262 328 187 Q 337 174 334 160 Q 327 151 275 119 Q 253 103 234 117 Q 230 121 235 136 Q 265 181 265 255 Q 265 402 264 419 C 261 492 261 492 260 528 Q 251 712 250 719 Q 226 830 228 838 Q 228 847 246 887 Q 252 903 259 907 Q 265 913 272 905 Q 279 901 289 882 Q 299 858 298 829 Q 297 792 303 525 C 303 509 303 509 303 501 Z"/>
    <path class="bg" d="M 238 469 Q 190 587 47 768 Q 41 777 52 778 Q 58 779 66 771 Q 186 672 260 528 C 282 474 260 415 238 469 Z"/>
    <path class="bg" d="M 303 525 Q 345 579 364 582 Q 374 583 381 568 Q 382 558 376 541 Q 361 514 306 501 Q 303 500 303 501 C 295 500 298 519 303 525 Z"/>
    <path class="bg" d="M 513 229 Q 534 254 556 286 Q 566 299 581 301 Q 591 302 597 291 Q 604 278 600 250 Q 599 231 572 213 Q 512 177 496 181 Q 492 184 490 196 Q 491 206 513 229 Z"/>
    <path class="bg" d="M 657 350 Q 688 311 759 215 Q 772 193 794 176 Q 813 160 796 144 Q 778 131 747 125 Q 719 118 707 125 Q 694 131 703 143 Q 713 164 666 279 Q 648 315 631 355 C 628 363 652 357 657 350 Z"/>
    <path class="bg" d="M 511 418 Q 649 379 874 379 Q 895 379 900 370 Q 904 358 889 346 Q 831 304 777 325 Q 728 335 657 350 C 640 353 640 353 631 355 Q 534 370 419 390 Q 400 393 415 409 Q 439 433 480 427 C 501 421 501 421 511 418 Z"/>
    <path class="bg" d="M 534 624 Q 495 624 464 624 Q 436 625 450 607 Q 496 534 539 478 Q 551 465 548 457 Q 547 445 513 419 Q 512 418 511 418 C 502 412 478 416 480 427 Q 492 460 434 570 Q 422 594 395 618 Q 380 630 381 640 Q 385 656 397 671 Q 403 677 430 668 Q 470 650 522 644 C 530 642 542 624 534 624 Z"/>
    <path class="bg" d="M 575 755 Q 532 762 484 778 Q 459 788 474 767 Q 582 610 633 567 Q 643 557 638 548 Q 628 532 598 515 Q 583 508 575 510 Q 566 513 568 527 Q 569 557 534 624 C 526 637 526 637 522 644 Q 521 645 520 648 Q 433 778 405 793 Q 393 802 396 814 Q 397 826 421 843 Q 431 853 444 842 Q 495 803 582 770 C 583 770 583 770 584 770 C 590 769 581 754 575 755 Z"/>
    <path class="bg" d="M 584 770 Q 603 804 613 808 Q 620 809 626 803 Q 632 794 633 773 Q 633 751 578 715 Q 569 709 564 710 Q 560 711 558 720 Q 558 727 571 747 Q 572 750 575 755 C 581 765 581 765 584 770 Z"/>
    <path class="bg" d="M 785 604 Q 742 604 707 604 Q 676 604 692 586 Q 737 519 779 469 Q 791 453 789 447 Q 788 434 753 407 Q 738 394 722 398 Q 712 401 718 414 Q 730 447 672 551 Q 660 573 635 596 Q 619 609 620 619 Q 624 635 636 652 Q 645 662 656 655 Q 680 642 758 628 Q 764 627 771 627 C 780 627 794 604 785 604 Z"/>
    <path class="bg" d="M 838 739 Q 792 746 735 763 Q 707 773 725 749 Q 756 706 831 617 Q 858 581 881 561 Q 893 551 887 542 Q 877 524 845 506 Q 830 499 821 501 Q 812 504 814 518 Q 815 545 785 604 C 776 619 776 619 771 627 Q 680 762 652 776 Q 639 783 642 797 Q 643 810 668 828 Q 678 840 692 828 Q 758 783 846 757 C 852 756 844 738 838 739 Z"/>
    <path class="bg" d="M 846 757 Q 889 839 891 841 Q 897 844 905 838 Q 918 831 919 795 Q 919 750 820 664 Q 814 658 809 667 Q 805 677 811 688 Q 824 710 838 739 C 843 751 843 751 846 757 Z"/>
</g>
<g id="anim-layer">
    <path style="--d:1s; stroke:#FF4444;" pathLength="3333" clip-path="url(#z31949c1)" d="M 134 290 L 203 382"/>
    <path style="--d:2s; stroke:#FF4444;" pathLength="3333" clip-path="url(#z31949c2)" d="M 375 228 L 401 265 L 334 337"/>
    <path style="--d:3s; stroke:#FF4444;" pathLength="3333" clip-path="url(#z31949c3)" d="M 73 468 L 397 421"/>
    <path style="--d:4s; stroke:#FF4444;" pathLength="3333" clip-path="url(#z31949c4)" d="M 239 122 L 296 175 L 266 904"/>
    <path style="--d:5s; stroke:#FF4444;" pathLength="3333" clip-path="url(#z31949c5)" d="M 253 472 L 185 612 L 54 772"/>
    <path style="--d:6s; stroke:#FF4444;" pathLength="3333" clip-path="url(#z31949c6)" d="M 309 507 L 365 577"/>
    <path style="--d:7s; stroke:#000;" pathLength="3333" clip-path="url(#z31949c7)" d="M 499 186 L 588 295"/>
    <path style="--d:8s; stroke:#000;" pathLength="3333" clip-path="url(#z31949c8)" d="M 706 131 L 752 170 L 639 349"/>
    <path style="--d:9s; stroke:#000;" pathLength="3333" clip-path="url(#z31949c9)" d="M 418 402 L 792 350 L 897 363"/>
    <path style="--d:10s; stroke:#000;" pathLength="3333" clip-path="url(#z31949c10)" d="M 486 429 L 512 469 L 418 636 L 524 630"/>
    <path style="--d:11s; stroke:#000;" pathLength="3333" clip-path="url(#z31949c11)" d="M 576 519 L 598 564 L 435 793 L 455 814 L 576 764"/>
    <path style="--d:12s; stroke:#000;" pathLength="3333" clip-path="url(#z31949c12)" d="M 567 715 L 618 802"/>
    <path style="--d:13s; stroke:#000;" pathLength="3333" clip-path="url(#z31949c13)" d="M 725 406 L 752 451 L 656 611 L 667 629 L 776 611"/>
    <path style="--d:14s; stroke:#000;" pathLength="3333" clip-path="url(#z31949c14)" d="M 822 509 L 846 556 L 682 777 L 702 799 L 841 748"/>
    <path style="--d:15s; stroke:#000;" pathLength="3333" clip-path="url(#z31949c15)" d="M 816 674 L 888 780 L 901 837"/>
</g>
</svg>