<svg id="z31966" class="acjk" viewBox="0 0 1024 1024" xmlns="http://www.w3.org/2000/svg">

<style>
<![CDATA[
@keyframes zk { to { stroke-dashoffset:0; } }
svg.acjk path[clip-path] {
    --t:0.8s;
    animation:zk var(--t) linear forwards var(--d);
    stroke-dasharray:3337;
    stroke-dashoffset:3339;
    stroke-width:128;
    stroke-linecap:round;
    fill:none;
}
/* Low opacity for background improves visual overlap at intersections */
svg.acjk .bg { fill:#ccc; opacity: 0.5; } 
]]>
</style>
<defs>
    <clipPath id="z31966c1"><path d="M 338 127 C 366 150 389 168 410 174 C 417 176 424 171 428 164 C 431 157 431 149 428 141 C 419 118 391 102 344 96 C 335 94 328 96 324 98 C 321 98 321 101 323 108 C 324 113 329 119 338 127 Z"/></clipPath>
    <clipPath id="z31966c2"><path d="M 647 76 C 634 92 615 112 589 137 C 585 140 582 145 587 149 C 590 151 595 150 600 148 C 648 125 682 108 706 102 C 716 99 720 97 719 90 C 716 81 711 70 702 58 C 693 46 682 37 670 36 C 661 34 656 40 656 51 C 655 59 653 68 647 76 Z"/></clipPath>
    <clipPath id="z31966c3"><path d="M 579 214 C 582 213 631 204 728 196 C 734 195 741 194 745 186 C 747 179 738 174 727 167 C 707 154 672 159 615 171 C 577 178 552 185 530 189 C 502 194 502 194 488 196 C 455 201 387 209 284 220 C 268 221 265 227 278 237 C 297 251 314 258 327 256 C 359 250 393 243 431 237 C 495 226 495 226 527 221 C 535 219 543 219 553 218 C 570 215 570 215 579 214 Z"/></clipPath>
    <clipPath id="z31966c4"><path d="M 530 189 C 533 146 539 112 553 87 C 555 81 554 73 548 67 C 536 55 520 48 504 41 C 493 36 485 35 477 38 C 469 40 466 46 471 55 C 480 72 490 118 488 196 C 487 221 487 221 487 234 C 486 266 480 289 481 305 C 481 322 486 339 494 351 C 515 382 519 339 521 321 C 526 281 525 241 527 221 C 529 200 529 200 530 189 Z"/></clipPath>
    <clipPath id="z31966c5"><path d="M 431 237 C 399 289 326 344 214 403 C 189 423 223 420 252 408 C 350 383 432 312 487 234 C 517 194 461 197 431 237 Z"/></clipPath>
    <clipPath id="z31966c6"><path d="M 553 218 C 653 318 718 370 747 371 C 789 372 835 361 870 352 C 887 347 898 341 874 336 C 849 330 821 323 792 317 C 741 305 671 271 579 214 C 571 209 547 212 553 218 Z"/></clipPath>
    <clipPath id="z31966c7"><path d="M 361 404 C 354 401 341 398 322 397 C 301 395 305 409 312 420 C 330 450 347 490 361 542 C 364 556 369 569 381 579 C 396 592 403 590 403 576 C 402 568 403 560 402 553 C 394 513 382 474 375 434 C 373 423 371 408 361 404 Z"/></clipPath>
    <clipPath id="z31966c8"><path d="M 615 556 C 621 576 630 578 650 558 C 656 551 665 529 678 492 C 687 463 703 440 724 423 C 734 414 735 405 727 396 C 717 385 697 374 669 358 C 660 352 638 355 599 363 C 561 369 513 376 361 404 C 350 406 365 438 375 434 C 387 428 420 420 474 412 C 498 408 498 408 510 406 C 582 393 626 387 642 395 C 646 397 647 407 644 424 C 632 478 623 513 619 527 C 617 537 611 547 615 556 Z"/></clipPath>
    <clipPath id="z31966c9"><path d="M 521 485 C 545 481 568 476 590 473 C 600 471 604 466 601 461 C 596 454 587 448 575 447 C 548 443 533 452 523 455 C 494 462 494 462 480 466 C 460 471 441 476 425 480 C 417 481 417 485 428 493 C 429 494 447 495 481 491 C 508 487 508 487 521 485 Z"/></clipPath>
    <clipPath id="z31966c10"><path d="M 518 536 C 518 517 519 500 521 485 C 522 465 522 465 523 455 C 523 443 528 421 510 406 C 501 397 472 400 474 412 C 476 418 478 435 480 466 C 481 483 481 483 481 491 C 481 503 481 520 483 541 C 483 553 518 548 518 536 Z"/></clipPath>
    <clipPath id="z31966c11"><path d="M 403 576 C 433 573 550 561 615 556 C 625 556 628 531 619 527 C 599 516 578 527 518 536 C 495 539 495 539 483 541 C 454 545 427 547 402 553 C 394 555 395 578 403 576 Z"/></clipPath>
    <clipPath id="z31966c12"><path d="M 617 666 C 657 662 694 659 729 657 C 757 655 753 643 729 627 C 710 614 679 610 635 622 C 612 627 589 630 566 635 C 521 642 472 651 432 655 C 399 658 399 658 382 659 C 346 661 308 663 269 666 C 252 666 249 673 262 685 C 276 697 296 705 322 704 C 342 702 365 697 391 694 C 420 690 420 690 435 688 C 473 682 516 675 563 671 C 599 668 599 668 617 666 Z"/></clipPath>
    <clipPath id="z31966c13"><path d="M 432 655 C 428 612 440 606 378 595 C 350 589 350 601 359 615 C 367 628 377 642 382 659 C 388 682 388 682 391 694 C 395 712 400 739 408 773 C 410 785 445 781 443 769 C 439 736 436 709 435 688 C 433 666 433 666 432 655 Z"/></clipPath>
    <clipPath id="z31966c14"><path d="M 591 753 C 599 722 606 692 617 666 C 629 637 629 637 635 622 C 638 613 630 601 626 598 C 609 584 595 575 582 571 C 564 565 553 574 559 590 C 562 598 567 613 566 635 C 564 659 564 659 563 671 C 560 697 557 726 553 758 C 550 771 588 766 591 753 Z"/></clipPath>
    <clipPath id="z31966c15"><path d="M 408 773 C 320 783 226 788 126 797 C 111 798 108 804 119 817 C 128 827 139 834 152 838 C 166 842 179 842 190 840 C 393 791 627 775 892 789 C 901 789 917 788 922 781 C 926 773 922 763 911 754 C 875 725 844 715 819 720 C 759 730 682 740 591 753 C 566 756 566 756 553 758 C 515 762 477 765 443 769 C 420 772 420 772 408 773 Z"/></clipPath>
    <clipPath id="z31966c16"><path d="M 369 832 C 355 866 312 910 238 961 C 224 970 224 973 242 973 C 278 973 342 939 432 871 C 439 865 441 858 441 853 C 440 844 432 837 417 830 C 400 821 388 817 380 819 C 375 819 372 824 369 832 Z"/></clipPath>
    <clipPath id="z31966c17"><path d="M 593 842 C 627 873 665 909 706 954 C 717 966 726 975 737 978 C 742 979 747 975 753 969 C 760 959 759 941 752 913 C 748 898 742 885 730 875 C 717 864 697 853 669 841 C 636 826 610 818 594 812 C 587 809 583 810 583 819 C 582 827 586 835 593 842 Z"/></clipPath>
</defs>
<g id="bg-layer">
    <path class="bg" d="M 338 127 C 366 150 389 168 410 174 C 417 176 424 171 428 164 C 431 157 431 149 428 141 C 419 118 391 102 344 96 C 335 94 328 96 324 98 C 321 98 321 101 323 108 C 324 113 329 119 338 127 Z"/>
    <path class="bg" d="M 647 76 C 634 92 615 112 589 137 C 585 140 582 145 587 149 C 590 151 595 150 600 148 C 648 125 682 108 706 102 C 716 99 720 97 719 90 C 716 81 711 70 702 58 C 693 46 682 37 670 36 C 661 34 656 40 656 51 C 655 59 653 68 647 76 Z"/>
    <path class="bg" d="M 579 214 C 582 213 631 204 728 196 C 734 195 741 194 745 186 C 747 179 738 174 727 167 C 707 154 672 159 615 171 C 577 178 552 185 530 189 C 502 194 502 194 488 196 C 455 201 387 209 284 220 C 268 221 265 227 278 237 C 297 251 314 258 327 256 C 359 250 393 243 431 237 C 495 226 495 226 527 221 C 535 219 543 219 553 218 C 570 215 570 215 579 214 Z"/>
    <path class="bg" d="M 530 189 C 533 146 539 112 553 87 C 555 81 554 73 548 67 C 536 55 520 48 504 41 C 493 36 485 35 477 38 C 469 40 466 46 471 55 C 480 72 490 118 488 196 C 487 221 487 221 487 234 C 486 266 480 289 481 305 C 481 322 486 339 494 351 C 515 382 519 339 521 321 C 526 281 525 241 527 221 C 529 200 529 200 530 189 Z"/>
    <path class="bg" d="M 431 237 C 399 289 326 344 214 403 C 189 423 223 420 252 408 C 350 383 432 312 487 234 C 517 194 461 197 431 237 Z"/>
    <path class="bg" d="M 553 218 C 653 318 718 370 747 371 C 789 372 835 361 870 352 C 887 347 898 341 874 336 C 849 330 821 323 792 317 C 741 305 671 271 579 214 C 571 209 547 212 553 218 Z"/>
    <path class="bg" d="M 361 404 C 354 401 341 398 322 397 C 301 395 305 409 312 420 C 330 450 347 490 361 542 C 364 556 369 569 381 579 C 396 592 403 590 403 576 C 402 568 403 560 402 553 C 394 513 382 474 375 434 C 373 423 371 408 361 404 Z"/>
    <path class="bg" d="M 615 556 C 621 576 630 578 650 558 C 656 551 665 529 678 492 C 687 463 703 440 724 423 C 734 414 735 405 727 396 C 717 385 697 374 669 358 C 660 352 638 355 599 363 C 561 369 513 376 361 404 C 350 406 365 438 375 434 C 387 428 420 420 474 412 C 498 408 498 408 510 406 C 582 393 626 387 642 395 C 646 397 647 407 644 424 C 632 478 623 513 619 527 C 617 537 611 547 615 556 Z"/>
    <path class="bg" d="M 521 485 C 545 481 568 476 590 473 C 600 471 604 466 601 461 C 596 454 587 448 575 447 C 548 443 533 452 523 455 C 494 462 494 462 480 466 C 460 471 441 476 425 480 C 417 481 417 485 428 493 C 429 494 447 495 481 491 C 508 487 508 487 521 485 Z"/>
    <path class="bg" d="M 518 536 C 518 517 519 500 521 485 C 522 465 522 465 523 455 C 523 443 528 421 510 406 C 501 397 472 400 474 412 C 476 418 478 435 480 466 C 481 483 481 483 481 491 C 481 503 481 520 483 541 C 483 553 518 548 518 536 Z"/>
    <path class="bg" d="M 403 576 C 433 573 550 561 615 556 C 625 556 628 531 619 527 C 599 516 578 527 518 536 C 495 539 495 539 483 541 C 454 545 427 547 402 553 C 394 555 395 578 403 576 Z"/>
    <path class="bg" d="M 617 666 C 657 662 694 659 729 657 C 757 655 753 643 729 627 C 710 614 679 610 635 622 C 612 627 589 630 566 635 C 521 642 472 651 432 655 C 399 658 399 658 382 659 C 346 661 308 663 269 666 C 252 666 249 673 262 685 C 276 697 296 705 322 704 C 342 702 365 697 391 694 C 420 690 420 690 435 688 C 473 682 516 675 563 671 C 599 668 599 668 617 666 Z"/>
    <path class="bg" d="M 432 655 C 428 612 440 606 378 595 C 350 589 350 601 359 615 C 367 628 377 642 382 659 C 388 682 388 682 391 694 C 395 712 400 739 408 773 C 410 785 445 781 443 769 C 439 736 436 709 435 688 C 433 666 433 666 432 655 Z"/>
    <path class="bg" d="M 591 753 C 599 722 606 692 617 666 C 629 637 629 637 635 622 C 638 613 630 601 626 598 C 609 584 595 575 582 571 C 564 565 553 574 559 590 C 562 598 567 613 566 635 C 564 659 564 659 563 671 C 560 697 557 726 553 758 C 550 771 588 766 591 753 Z"/>
    <path class="bg" d="M 408 773 C 320 783 226 788 126 797 C 111 798 108 804 119 817 C 128 827 139 834 152 838 C 166 842 179 842 190 840 C 393 791 627 775 892 789 C 901 789 917 788 922 781 C 926 773 922 763 911 754 C 875 725 844 715 819 720 C 759 730 682 740 591 753 C 566 756 566 756 553 758 C 515 762 477 765 443 769 C 420 772 420 772 408 773 Z"/>
    <path class="bg" d="M 369 832 C 355 866 312 910 238 961 C 224 970 224 973 242 973 C 278 973 342 939 432 871 C 439 865 441 858 441 853 C 440 844 432 837 417 830 C 400 821 388 817 380 819 C 375 819 372 824 369 832 Z"/>
    <path class="bg" d="M 593 842 C 627 873 665 909 706 954 C 717 966 726 975 737 978 C 742 979 747 975 753 969 C 760 959 759 941 752 913 C 748 898 742 885 730 875 C 717 864 697 853 669 841 C 636 826 610 818 594 812 C 587 809 583 810 583 819 C 582 827 586 835 593 842 Z"/>
</g>
<g id="anim-layer">
    <path style="--d:1s; stroke:#FF4444;" pathLength="3333" clip-path="url(#z31966c1)" d="M 329 104 L 424 166"/>
    <path style="--d:2s; stroke:#FF4444;" pathLength="3333" clip-path="url(#z31966c2)" d="M 668 38 L 683 84 L 589 143"/>
    <path style="--d:3s; stroke:#FF4444;" pathLength="3333" clip-path="url(#z31966c3)" d="M 281 229 L 741 183"/>
    <path style="--d:4s; stroke:#FF4444;" pathLength="3333" clip-path="url(#z31966c4)" d="M 475 45 L 518 91 L 503 355"/>
    <path style="--d:5s; stroke:#FF4444;" pathLength="3333" clip-path="url(#z31966c5)" d="M 490 211 L 359 337 L 210 409"/>
    <path style="--d:6s; stroke:#FF4444;" pathLength="3333" clip-path="url(#z31966c6)" d="M 564 220 L 748 338 L 879 344"/>
    <path style="--d:7s; stroke:#000;" pathLength="3333" clip-path="url(#z31966c7)" d="M 315 407 L 348 431 L 394 581"/>
    <path style="--d:8s; stroke:#000;" pathLength="3333" clip-path="url(#z31966c8)" d="M 363 413 L 655 377 L 688 419 L 627 565"/>
    <path style="--d:9s; stroke:#000;" pathLength="3333" clip-path="url(#z31966c9)" d="M 431 486 L 593 464"/>
    <path style="--d:10s; stroke:#000;" pathLength="3333" clip-path="url(#z31966c10)" d="M 482 406 L 501 445 L 493 543"/>
    <path style="--d:11s; stroke:#000;" pathLength="3333" clip-path="url(#z31966c11)" d="M 399 565 L 620 544"/>
    <path style="--d:12s; stroke:#000;" pathLength="3333" clip-path="url(#z31966c12)" d="M 260 672 L 329 683 L 688 637 L 743 649"/>
    <path style="--d:13s; stroke:#000;" pathLength="3333" clip-path="url(#z31966c13)" d="M 363 604 L 403 634 L 433 777"/>
    <path style="--d:14s; stroke:#000;" pathLength="3333" clip-path="url(#z31966c14)" d="M 566 574 L 600 623 L 563 761"/>
    <path style="--d:15s; stroke:#000;" pathLength="3333" clip-path="url(#z31966c15)" d="M 118 804 L 172 817 L 828 752 L 919 774"/>
    <path style="--d:16s; stroke:#000;" pathLength="3333" clip-path="url(#z31966c16)" d="M 380 823 L 389 870 L 238 967"/>
    <path style="--d:17s; stroke:#000;" pathLength="3333" clip-path="url(#z31966c17)" d="M 589 818 L 703 899 L 738 974"/>
</g>
</svg>