<svg id="z32427" class="acjk" viewBox="0 0 1024 1024" xmlns="http://www.w3.org/2000/svg">

<style>
<![CDATA[
@keyframes zk { to { stroke-dashoffset:0; } }
svg.acjk path[clip-path] {
    --t:0.8s;
    animation:zk var(--t) linear forwards var(--d);
    stroke-dasharray:3337;
    stroke-dashoffset:3339;
    stroke-width:128;
    stroke-linecap:round;
    fill:none;
}
/* Low opacity for background improves visual overlap at intersections */
svg.acjk .bg { fill:#ccc; opacity: 0.5; } 
]]>
</style>
<defs>
    <clipPath id="z32427c1"><path d="M 329 406 Q 277 405 234 403 Q 200 403 218 382 Q 294 261 366 172 Q 382 156 379 147 Q 378 132 339 101 Q 323 86 305 90 Q 293 91 299 108 Q 317 150 218 317 Q 196 356 153 392 Q 134 405 135 418 Q 139 437 152 455 Q 162 465 175 459 Q 203 446 294 433 Q 301 432 310 432 C 321 432 340 406 329 406 Z"/></clipPath>
    <clipPath id="z32427c2"><path d="M 310 432 Q 220 550 196 562 Q 183 571 185 585 Q 186 598 211 618 Q 221 630 236 618 Q 296 576 389 548 Q 408 544 411 535 Q 414 525 394 528 Q 345 535 283 550 Q 253 560 273 537 Q 310 486 399 384 Q 427 347 453 327 Q 465 317 459 307 Q 449 288 417 269 Q 401 260 392 262 Q 382 266 384 281 Q 387 320 329 406 C 316 423 316 423 310 432 Z"/></clipPath>
    <clipPath id="z32427c3"><path d="M 125 743 Q 112 746 111 757 Q 110 770 121 778 Q 146 791 182 808 Q 192 809 204 800 Q 309 730 417 658 Q 430 648 429 639 Q 423 635 411 638 Q 305 684 171 734 Q 155 741 125 743 Z"/></clipPath>
    <clipPath id="z32427c4"><path d="M 681 330 Q 736 318 790 313 Q 806 312 809 320 Q 819 339 815 388 Q 805 569 771 666 Q 753 727 734 745 Q 722 757 699 749 Q 668 739 640 728 Q 618 721 632 743 Q 675 794 699 833 Q 708 855 729 850 Q 750 846 776 816 Q 851 732 869 433 Q 873 366 898 325 Q 914 303 905 292 Q 889 273 852 258 Q 827 245 798 258 Q 735 283 637 301 Q 552 316 503 315 Q 484 314 483 324 Q 482 334 504 348 Q 531 367 556 358 Q 596 346 639 338 C 667 333 667 333 681 330 Z"/></clipPath>
    <clipPath id="z32427c5"><path d="M 639 338 Q 654 446 549 652 Q 462 781 404 840 Q 397 844 394 851 Q 390 861 400 860 Q 412 860 457 827 Q 601 725 678 474 Q 699 407 708 391 Q 720 379 715 365 Q 703 347 681 330 C 671 320 636 324 639 338 Z"/></clipPath>
    <clipPath id="z32427c6"><path d="M 515 456 Q 497 499 472 538 Q 456 562 470 593 Q 477 608 494 598 Q 536 565 537 504 Q 541 476 535 456 Q 531 449 526 448 Q 519 449 515 456 Z"/></clipPath>
</defs>
<g id="bg-layer">
    <path class="bg" d="M 329 406 Q 277 405 234 403 Q 200 403 218 382 Q 294 261 366 172 Q 382 156 379 147 Q 378 132 339 101 Q 323 86 305 90 Q 293 91 299 108 Q 317 150 218 317 Q 196 356 153 392 Q 134 405 135 418 Q 139 437 152 455 Q 162 465 175 459 Q 203 446 294 433 Q 301 432 310 432 C 321 432 340 406 329 406 Z"/>
    <path class="bg" d="M 310 432 Q 220 550 196 562 Q 183 571 185 585 Q 186 598 211 618 Q 221 630 236 618 Q 296 576 389 548 Q 408 544 411 535 Q 414 525 394 528 Q 345 535 283 550 Q 253 560 273 537 Q 310 486 399 384 Q 427 347 453 327 Q 465 317 459 307 Q 449 288 417 269 Q 401 260 392 262 Q 382 266 384 281 Q 387 320 329 406 C 316 423 316 423 310 432 Z"/>
    <path class="bg" d="M 125 743 Q 112 746 111 757 Q 110 770 121 778 Q 146 791 182 808 Q 192 809 204 800 Q 309 730 417 658 Q 430 648 429 639 Q 423 635 411 638 Q 305 684 171 734 Q 155 741 125 743 Z"/>
    <path class="bg" d="M 681 330 Q 736 318 790 313 Q 806 312 809 320 Q 819 339 815 388 Q 805 569 771 666 Q 753 727 734 745 Q 722 757 699 749 Q 668 739 640 728 Q 618 721 632 743 Q 675 794 699 833 Q 708 855 729 850 Q 750 846 776 816 Q 851 732 869 433 Q 873 366 898 325 Q 914 303 905 292 Q 889 273 852 258 Q 827 245 798 258 Q 735 283 637 301 Q 552 316 503 315 Q 484 314 483 324 Q 482 334 504 348 Q 531 367 556 358 Q 596 346 639 338 C 667 333 667 333 681 330 Z"/>
    <path class="bg" d="M 639 338 Q 654 446 549 652 Q 462 781 404 840 Q 397 844 394 851 Q 390 861 400 860 Q 412 860 457 827 Q 601 725 678 474 Q 699 407 708 391 Q 720 379 715 365 Q 703 347 681 330 C 671 320 636 324 639 338 Z"/>
    <path class="bg" d="M 515 456 Q 497 499 472 538 Q 456 562 470 593 Q 477 608 494 598 Q 536 565 537 504 Q 541 476 535 456 Q 531 449 526 448 Q 519 449 515 456 Z"/>
</g>
<g id="anim-layer">
    <path style="--d:1s; stroke:#FF4444;" pathLength="3333" clip-path="url(#z32427c1)" d="M 306 93 L 336 156 L 175 411 L 186 430 L 322 412"/>
    <path style="--d:2s; stroke:#FF4444;" pathLength="3333" clip-path="url(#z32427c2)" d="M 394 269 L 419 316 L 227 568 L 247 588 L 404 535"/>
    <path style="--d:3s; stroke:#FF4444;" pathLength="3333" clip-path="url(#z32427c3)" d="M 114 755 L 186 768 L 420 642"/>
    <path style="--d:4s; stroke:#000;" pathLength="3333" clip-path="url(#z32427c4)" d="M 491 324 L 546 336 L 815 284 L 861 316 L 815 630 L 773 755 L 719 801 L 631 733"/>
    <path style="--d:5s; stroke:#000;" pathLength="3333" clip-path="url(#z32427c5)" d="M 647 341 L 678 381 L 604 597 L 535 716 L 402 853"/>
    <path style="--d:6s; stroke:#000;" pathLength="3333" clip-path="url(#z32427c6)" d="M 526 454 L 475 592"/>
</g>
</svg>