<svg id="z32447" class="acjk" viewBox="0 0 1024 1024" xmlns="http://www.w3.org/2000/svg">

<style>
<![CDATA[
@keyframes zk { to { stroke-dashoffset:0; } }
svg.acjk path[clip-path] {
    --t:0.8s;
    animation:zk var(--t) linear forwards var(--d);
    stroke-dasharray:3337;
    stroke-dashoffset:3339;
    stroke-width:128;
    stroke-linecap:round;
    fill:none;
}
/* Low opacity for background improves visual overlap at intersections */
svg.acjk .bg { fill:#ccc; opacity: 0.5; } 
]]>
</style>
<defs>
    <clipPath id="z32447c1"><path d="M 308 422 Q 256 422 213 422 Q 180 422 198 402 Q 274 278 347 188 Q 362 170 359 163 Q 358 148 319 117 Q 303 102 285 106 Q 273 109 279 124 Q 295 166 198 336 Q 177 375 133 412 Q 114 425 115 438 Q 119 457 133 475 Q 143 485 156 479 Q 181 466 271 450 Q 278 449 287 449 C 298 449 319 422 308 422 Z"/></clipPath>
    <clipPath id="z32447c2"><path d="M 287 449 Q 185 576 165 586 Q 152 595 154 609 Q 155 622 181 641 Q 191 653 206 641 Q 275 593 386 557 Q 405 551 407 543 Q 410 533 390 537 Q 326 549 250 572 Q 226 581 241 561 Q 284 503 386 388 Q 414 351 440 331 Q 453 322 447 312 Q 437 293 405 273 Q 389 263 380 266 Q 370 269 372 284 Q 375 326 308 422 C 294 440 294 440 287 449 Z"/></clipPath>
    <clipPath id="z32447c3"><path d="M 126 761 Q 113 765 112 776 Q 112 789 124 797 Q 151 810 188 825 Q 200 826 211 816 Q 241 785 387 688 Q 408 675 422 658 Q 435 648 433 638 Q 426 634 414 638 Q 308 690 173 750 Q 155 757 126 761 Z"/></clipPath>
    <clipPath id="z32447c4"><path d="M 622 372 Q 745 333 750 329 Q 757 320 752 312 Q 745 300 714 296 Q 683 292 653 308 Q 634 315 614 324 C 587 333 587 333 573 338 Q 530 351 478 361 Q 441 371 470 385 Q 513 404 570 387 Q 574 386 582 384 C 609 376 609 376 622 372 Z"/></clipPath>
    <clipPath id="z32447c5"><path d="M 653 504 Q 696 489 805 466 Q 815 466 824 452 Q 824 439 799 431 Q 757 415 686 445 Q 664 452 642 461 C 615 470 615 470 602 474 Q 563 484 531 492 Q 494 499 453 510 Q 425 517 449 532 Q 486 556 515 545 Q 558 530 613 515 C 640 508 640 508 653 504 Z"/></clipPath>
    <clipPath id="z32447c6"><path d="M 693 726 Q 741 831 834 905 Q 892 953 921 951 Q 940 947 934 919 Q 930 867 935 713 Q 935 691 927 689 Q 920 690 914 711 Q 899 757 887 794 Q 874 834 860 835 Q 847 836 821 814 Q 767 762 725 691 C 708 657 708 657 700 640 Q 673 579 653 504 C 646 475 646 475 642 461 Q 630 415 622 372 C 617 340 617 340 614 324 Q 599 237 607 154 Q 617 114 564 95 Q 530 82 511 89 Q 492 96 501 115 Q 547 152 548 186 Q 560 268 573 338 C 579 369 579 369 582 384 Q 591 432 602 474 C 609 501 609 501 613 515 Q 628 584 670 677 C 685 710 685 710 693 726 Z"/></clipPath>
    <clipPath id="z32447c7"><path d="M 670 677 Q 664 681 659 688 Q 598 754 451 831 Q 442 837 448 841 Q 475 856 588 800 Q 646 775 687 731 Q 688 728 693 726 C 707 718 714 702 725 691 Q 752 658 782 614 Q 798 592 817 571 Q 827 564 824 552 Q 820 542 794 518 Q 775 502 765 502 Q 752 503 750 518 Q 746 572 700 640 C 680 665 680 665 670 677 Z"/></clipPath>
    <clipPath id="z32447c8"><path d="M 696 169 Q 724 194 754 224 Q 767 237 781 236 Q 791 236 797 223 Q 801 210 794 181 Q 790 160 758 145 Q 686 115 672 121 Q 668 125 668 137 Q 671 147 696 169 Z"/></clipPath>
</defs>
<g id="bg-layer">
    <path class="bg" d="M 308 422 Q 256 422 213 422 Q 180 422 198 402 Q 274 278 347 188 Q 362 170 359 163 Q 358 148 319 117 Q 303 102 285 106 Q 273 109 279 124 Q 295 166 198 336 Q 177 375 133 412 Q 114 425 115 438 Q 119 457 133 475 Q 143 485 156 479 Q 181 466 271 450 Q 278 449 287 449 C 298 449 319 422 308 422 Z"/>
    <path class="bg" d="M 287 449 Q 185 576 165 586 Q 152 595 154 609 Q 155 622 181 641 Q 191 653 206 641 Q 275 593 386 557 Q 405 551 407 543 Q 410 533 390 537 Q 326 549 250 572 Q 226 581 241 561 Q 284 503 386 388 Q 414 351 440 331 Q 453 322 447 312 Q 437 293 405 273 Q 389 263 380 266 Q 370 269 372 284 Q 375 326 308 422 C 294 440 294 440 287 449 Z"/>
    <path class="bg" d="M 126 761 Q 113 765 112 776 Q 112 789 124 797 Q 151 810 188 825 Q 200 826 211 816 Q 241 785 387 688 Q 408 675 422 658 Q 435 648 433 638 Q 426 634 414 638 Q 308 690 173 750 Q 155 757 126 761 Z"/>
    <path class="bg" d="M 622 372 Q 745 333 750 329 Q 757 320 752 312 Q 745 300 714 296 Q 683 292 653 308 Q 634 315 614 324 C 587 333 587 333 573 338 Q 530 351 478 361 Q 441 371 470 385 Q 513 404 570 387 Q 574 386 582 384 C 609 376 609 376 622 372 Z"/>
    <path class="bg" d="M 653 504 Q 696 489 805 466 Q 815 466 824 452 Q 824 439 799 431 Q 757 415 686 445 Q 664 452 642 461 C 615 470 615 470 602 474 Q 563 484 531 492 Q 494 499 453 510 Q 425 517 449 532 Q 486 556 515 545 Q 558 530 613 515 C 640 508 640 508 653 504 Z"/>
    <path class="bg" d="M 693 726 Q 741 831 834 905 Q 892 953 921 951 Q 940 947 934 919 Q 930 867 935 713 Q 935 691 927 689 Q 920 690 914 711 Q 899 757 887 794 Q 874 834 860 835 Q 847 836 821 814 Q 767 762 725 691 C 708 657 708 657 700 640 Q 673 579 653 504 C 646 475 646 475 642 461 Q 630 415 622 372 C 617 340 617 340 614 324 Q 599 237 607 154 Q 617 114 564 95 Q 530 82 511 89 Q 492 96 501 115 Q 547 152 548 186 Q 560 268 573 338 C 579 369 579 369 582 384 Q 591 432 602 474 C 609 501 609 501 613 515 Q 628 584 670 677 C 685 710 685 710 693 726 Z"/>
    <path class="bg" d="M 670 677 Q 664 681 659 688 Q 598 754 451 831 Q 442 837 448 841 Q 475 856 588 800 Q 646 775 687 731 Q 688 728 693 726 C 707 718 714 702 725 691 Q 752 658 782 614 Q 798 592 817 571 Q 827 564 824 552 Q 820 542 794 518 Q 775 502 765 502 Q 752 503 750 518 Q 746 572 700 640 C 680 665 680 665 670 677 Z"/>
    <path class="bg" d="M 696 169 Q 724 194 754 224 Q 767 237 781 236 Q 791 236 797 223 Q 801 210 794 181 Q 790 160 758 145 Q 686 115 672 121 Q 668 125 668 137 Q 671 147 696 169 Z"/>
</g>
<g id="anim-layer">
    <path style="--d:1s; stroke:#FF4444;" pathLength="3333" clip-path="url(#z32447c1)" d="M 285 114 L 317 168 L 156 428 L 170 450 L 301 428"/>
    <path style="--d:2s; stroke:#FF4444;" pathLength="3333" clip-path="url(#z32447c2)" d="M 384 269 L 406 321 L 199 590 L 218 610 L 400 542"/>
    <path style="--d:3s; stroke:#FF4444;" pathLength="3333" clip-path="url(#z32447c3)" d="M 116 775 L 192 784 L 425 642"/>
    <path style="--d:4s; stroke:#000;" pathLength="3333" clip-path="url(#z32447c4)" d="M 466 373 L 749 321"/>
    <path style="--d:5s; stroke:#000;" pathLength="3333" clip-path="url(#z32447c5)" d="M 444 518 L 507 522 L 818 447"/>
    <path style="--d:6s; stroke:#000;" pathLength="3333" clip-path="url(#z32447c6)" d="M 502 103 L 572 140 L 637 527 L 748 772 L 826 857 L 902 901 L 926 696"/>
    <path style="--d:7s; stroke:#000;" pathLength="3333" clip-path="url(#z32447c7)" d="M 761 508 L 782 561 L 681 702 L 581 780 L 451 835"/>
    <path style="--d:8s; stroke:#000;" pathLength="3333" clip-path="url(#z32447c8)" d="M 675 126 L 789 228"/>
</g>
</svg>