<svg id="z32467" class="acjk" viewBox="0 0 1024 1024" xmlns="http://www.w3.org/2000/svg">

<style>
<![CDATA[
@keyframes zk { to { stroke-dashoffset:0; } }
svg.acjk path[clip-path] {
    --t:0.8s;
    animation:zk var(--t) linear forwards var(--d);
    stroke-dasharray:3337;
    stroke-dashoffset:3339;
    stroke-width:128;
    stroke-linecap:round;
    fill:none;
}
/* Low opacity for background improves visual overlap at intersections */
svg.acjk .bg { fill:#ccc; opacity: 0.5; } 
]]>
</style>
<defs>
    <clipPath id="z32467c1"><path d="M 323 402 Q 274 402 232 401 Q 196 401 215 379 Q 285 267 352 182 Q 367 164 364 156 Q 363 141 322 108 Q 306 95 286 98 Q 274 101 281 117 Q 288 135 282 161 Q 269 212 207 320 Q 188 357 148 391 Q 129 406 130 418 Q 134 437 148 456 Q 158 468 172 461 Q 211 440 304 428 C 315 426 334 402 323 402 Z"/></clipPath>
    <clipPath id="z32467c2"><path d="M 304 428 Q 208 560 184 571 Q 171 580 173 593 Q 174 606 200 626 Q 210 638 225 625 Q 288 582 398 544 Q 417 540 419 531 Q 422 521 402 525 Q 342 535 270 556 Q 243 566 260 544 Q 300 487 397 373 Q 425 336 449 315 Q 462 305 456 295 Q 446 276 413 258 Q 397 248 388 251 Q 378 254 380 270 Q 383 310 323 402 C 310 419 310 419 304 428 Z"/></clipPath>
    <clipPath id="z32467c3"><path d="M 131 745 Q 118 748 117 760 Q 116 773 128 781 Q 155 794 192 810 Q 204 811 215 801 Q 242 773 397 672 Q 419 659 434 642 Q 446 632 445 623 Q 439 617 426 622 Q 180 739 131 745 Z"/></clipPath>
    <clipPath id="z32467c4"><path d="M 692 375 Q 759 362 834 349 Q 900 336 910 327 Q 920 318 915 309 Q 908 296 877 287 Q 844 280 812 292 Q 754 310 695 325 C 661 333 661 333 644 337 Q 559 353 460 361 Q 420 365 448 385 Q 491 412 552 400 Q 595 393 643 384 C 676 378 676 378 692 375 Z"/></clipPath>
    <clipPath id="z32467c5"><path d="M 683 506 Q 687 439 692 375 C 694 342 694 342 695 325 Q 701 181 721 126 Q 725 113 703 98 Q 666 77 640 73 Q 622 69 614 78 Q 605 85 615 102 Q 640 139 640 164 Q 644 246 644 337 C 643 368 643 368 643 384 Q 642 447 638 515 C 638 530 683 521 683 506 Z"/></clipPath>
    <clipPath id="z32467c6"><path d="M 638 515 Q 605 519 575 522 Q 542 525 505 529 Q 477 532 498 549 Q 528 574 556 568 Q 661 550 821 531 Q 831 532 840 521 Q 841 511 820 500 Q 790 478 710 500 Q 697 501 683 506 C 653 512 653 512 638 515 Z"/></clipPath>
    <clipPath id="z32467c7"><path d="M 531 656 Q 521 652 495 647 Q 482 644 479 649 Q 472 656 481 673 Q 509 731 527 828 Q 530 856 547 876 Q 566 898 571 882 Q 575 872 575 856 C 572 831 572 831 571 818 Q 555 718 553 689 C 553 676 543 661 531 656 Z"/></clipPath>
    <clipPath id="z32467c8"><path d="M 797 793 Q 824 703 860 679 Q 878 660 862 641 Q 844 626 790 600 Q 769 591 691 622 Q 582 649 531 656 C 518 658 540 691 553 689 Q 601 677 731 652 Q 752 646 760 655 Q 770 665 767 686 Q 757 741 743 788 C 736 805 793 811 797 793 Z"/></clipPath>
    <clipPath id="z32467c9"><path d="M 575 856 Q 585 857 597 855 Q 666 842 813 834 Q 825 833 827 823 Q 827 814 797 793 C 781 784 761 785 743 788 Q 742 788 741 788 Q 647 809 571 818 C 558 820 562 856 575 856 Z"/></clipPath>
</defs>
<g id="bg-layer">
    <path class="bg" d="M 323 402 Q 274 402 232 401 Q 196 401 215 379 Q 285 267 352 182 Q 367 164 364 156 Q 363 141 322 108 Q 306 95 286 98 Q 274 101 281 117 Q 288 135 282 161 Q 269 212 207 320 Q 188 357 148 391 Q 129 406 130 418 Q 134 437 148 456 Q 158 468 172 461 Q 211 440 304 428 C 315 426 334 402 323 402 Z"/>
    <path class="bg" d="M 304 428 Q 208 560 184 571 Q 171 580 173 593 Q 174 606 200 626 Q 210 638 225 625 Q 288 582 398 544 Q 417 540 419 531 Q 422 521 402 525 Q 342 535 270 556 Q 243 566 260 544 Q 300 487 397 373 Q 425 336 449 315 Q 462 305 456 295 Q 446 276 413 258 Q 397 248 388 251 Q 378 254 380 270 Q 383 310 323 402 C 310 419 310 419 304 428 Z"/>
    <path class="bg" d="M 131 745 Q 118 748 117 760 Q 116 773 128 781 Q 155 794 192 810 Q 204 811 215 801 Q 242 773 397 672 Q 419 659 434 642 Q 446 632 445 623 Q 439 617 426 622 Q 180 739 131 745 Z"/>
    <path class="bg" d="M 692 375 Q 759 362 834 349 Q 900 336 910 327 Q 920 318 915 309 Q 908 296 877 287 Q 844 280 812 292 Q 754 310 695 325 C 661 333 661 333 644 337 Q 559 353 460 361 Q 420 365 448 385 Q 491 412 552 400 Q 595 393 643 384 C 676 378 676 378 692 375 Z"/>
    <path class="bg" d="M 683 506 Q 687 439 692 375 C 694 342 694 342 695 325 Q 701 181 721 126 Q 725 113 703 98 Q 666 77 640 73 Q 622 69 614 78 Q 605 85 615 102 Q 640 139 640 164 Q 644 246 644 337 C 643 368 643 368 643 384 Q 642 447 638 515 C 638 530 683 521 683 506 Z"/>
    <path class="bg" d="M 638 515 Q 605 519 575 522 Q 542 525 505 529 Q 477 532 498 549 Q 528 574 556 568 Q 661 550 821 531 Q 831 532 840 521 Q 841 511 820 500 Q 790 478 710 500 Q 697 501 683 506 C 653 512 653 512 638 515 Z"/>
    <path class="bg" d="M 531 656 Q 521 652 495 647 Q 482 644 479 649 Q 472 656 481 673 Q 509 731 527 828 Q 530 856 547 876 Q 566 898 571 882 Q 575 872 575 856 C 572 831 572 831 571 818 Q 555 718 553 689 C 553 676 543 661 531 656 Z"/>
    <path class="bg" d="M 797 793 Q 824 703 860 679 Q 878 660 862 641 Q 844 626 790 600 Q 769 591 691 622 Q 582 649 531 656 C 518 658 540 691 553 689 Q 601 677 731 652 Q 752 646 760 655 Q 770 665 767 686 Q 757 741 743 788 C 736 805 793 811 797 793 Z"/>
    <path class="bg" d="M 575 856 Q 585 857 597 855 Q 666 842 813 834 Q 825 833 827 823 Q 827 814 797 793 C 781 784 761 785 743 788 Q 742 788 741 788 Q 647 809 571 818 C 558 820 562 856 575 856 Z"/>
</g>
<g id="anim-layer">
    <path style="--d:1s; stroke:#FF4444;" pathLength="3333" clip-path="url(#z32467c1)" d="M 286 103 L 321 165 L 171 406 L 186 430 L 316 409"/>
    <path style="--d:2s; stroke:#FF4444;" pathLength="3333" clip-path="url(#z32467c2)" d="M 387 259 L 414 308 L 217 575 L 238 595 L 411 531"/>
    <path style="--d:3s; stroke:#FF4444;" pathLength="3333" clip-path="url(#z32467c3)" d="M 122 761 L 202 765 L 438 626"/>
    <path style="--d:4s; stroke:#000;" pathLength="3333" clip-path="url(#z32467c4)" d="M 445 371 L 541 377 L 910 310"/>
    <path style="--d:5s; stroke:#000;" pathLength="3333" clip-path="url(#z32467c5)" d="M 617 83 L 679 133 L 646 507"/>
    <path style="--d:6s; stroke:#000;" pathLength="3333" clip-path="url(#z32467c6)" d="M 499 540 L 833 517"/>
    <path style="--d:7s; stroke:#000;" pathLength="3333" clip-path="url(#z32467c7)" d="M 484 656 L 523 696 L 564 880"/>
    <path style="--d:8s; stroke:#000;" pathLength="3333" clip-path="url(#z32467c8)" d="M 541 659 L 755 625 L 790 636 L 818 672 L 758 789"/>
    <path style="--d:9s; stroke:#000;" pathLength="3333" clip-path="url(#z32467c9)" d="M 577 820 L 819 818"/>
</g>
</svg>