<svg id="z32486" class="acjk" viewBox="0 0 1024 1024" xmlns="http://www.w3.org/2000/svg">

<style>
<![CDATA[
@keyframes zk { to { stroke-dashoffset:0; } }
svg.acjk path[clip-path] {
    --t:0.8s;
    animation:zk var(--t) linear forwards var(--d);
    stroke-dasharray:3337;
    stroke-dashoffset:3339;
    stroke-width:128;
    stroke-linecap:round;
    fill:none;
}
/* Low opacity for background improves visual overlap at intersections */
svg.acjk .bg { fill:#ccc; opacity: 0.5; } 
]]>
</style>
<defs>
    <clipPath id="z32486c1"><path d="M 295 390 Q 246 390 206 392 Q 178 393 192 375 Q 265 257 334 169 Q 349 153 346 146 Q 345 133 308 101 Q 292 88 275 91 Q 265 94 270 109 Q 285 151 192 312 Q 171 349 130 385 Q 111 400 113 411 Q 117 429 131 446 Q 141 456 153 450 Q 178 435 262 416 Q 271 415 279 414 C 288 412 305 390 295 390 Z"/></clipPath>
    <clipPath id="z32486c2"><path d="M 279 414 Q 185 543 161 555 Q 148 564 151 577 Q 152 590 176 608 Q 186 620 201 608 Q 252 569 335 540 Q 353 536 355 527 Q 358 517 339 521 Q 296 528 243 542 Q 216 552 234 530 Q 354 362 409 317 Q 421 307 415 298 Q 405 280 373 262 Q 358 253 349 256 Q 340 259 342 274 Q 345 310 295 390 C 284 406 284 406 279 414 Z"/></clipPath>
    <clipPath id="z32486c3"><path d="M 100 723 Q 87 726 86 737 Q 85 750 96 758 Q 121 771 158 787 Q 168 788 180 778 Q 207 751 358 657 Q 379 644 394 630 Q 406 620 405 611 Q 399 607 387 610 Q 150 719 100 723 Z"/></clipPath>
    <clipPath id="z32486c4"><path d="M 586 202 Q 590 187 637 116 Q 647 103 631 89 Q 589 58 563 63 Q 551 66 555 80 Q 573 162 474 292 Q 459 298 433 340 Q 426 356 440 350 Q 458 347 507 304 C 520 291 520 291 526 285 Q 550 257 570 229 C 581 211 581 211 586 202 Z"/></clipPath>
    <clipPath id="z32486c5"><path d="M 665 380 Q 702 334 740 269 Q 756 244 781 228 Q 796 221 796 213 Q 796 200 770 184 Q 737 162 724 161 Q 714 161 703 168 Q 685 175 642 188 Q 602 198 586 202 C 576 204 560 225 570 229 Q 600 241 665 213 Q 684 207 693 213 Q 699 217 678 265 Q 662 305 631 346 Q 630 347 627 351 C 614 368 614 368 607 376 Q 523 469 407 516 Q 397 520 398 524 Q 399 528 406 528 Q 514 532 636 413 Q 639 409 642 407 C 657 389 657 389 665 380 Z"/></clipPath>
    <clipPath id="z32486c6"><path d="M 642 407 Q 771 536 824 532 Q 900 525 960 508 Q 991 501 988 492 Q 987 488 954 481 Q 786 453 711 409 Q 687 394 665 380 C 640 361 640 361 627 351 Q 602 332 577 311 Q 550 289 526 285 C 517 283 499 299 507 304 Q 544 320 607 376 C 630 397 630 397 642 407 Z"/></clipPath>
    <clipPath id="z32486c7"><path d="M 654 633 Q 694 624 802 610 Q 812 611 821 598 Q 822 586 799 577 Q 766 555 683 582 Q 668 585 655 589 C 621 597 621 597 604 601 Q 564 608 530 613 Q 493 617 452 623 Q 424 627 446 644 Q 480 669 507 662 Q 550 652 605 642 C 638 636 638 636 654 633 Z"/></clipPath>
    <clipPath id="z32486c8"><path d="M 570 839 Q 545 835 518 829 Q 506 826 507 834 Q 508 840 518 848 Q 576 905 597 938 Q 610 954 626 941 Q 662 913 660 842 Q 657 814 654 633 C 655 604 655 604 655 589 Q 658 565 665 547 Q 674 529 658 517 Q 633 496 605 487 Q 587 480 580 488 Q 574 494 584 508 Q 602 541 604 601 C 605 628 605 628 605 642 Q 609 822 591 837 Q 584 843 570 839 Z"/></clipPath>
    <clipPath id="z32486c9"><path d="M 479 703 Q 445 749 405 788 Q 378 813 388 850 Q 391 868 414 861 Q 468 837 491 763 Q 503 733 502 708 Q 499 699 493 697 Q 486 697 479 703 Z"/></clipPath>
    <clipPath id="z32486c10"><path d="M 727 712 Q 775 763 830 834 Q 845 856 860 861 Q 869 862 877 854 Q 890 841 881 795 Q 875 753 803 716 Q 757 691 731 681 Q 722 675 719 687 Q 718 700 727 712 Z"/></clipPath>
</defs>
<g id="bg-layer">
    <path class="bg" d="M 295 390 Q 246 390 206 392 Q 178 393 192 375 Q 265 257 334 169 Q 349 153 346 146 Q 345 133 308 101 Q 292 88 275 91 Q 265 94 270 109 Q 285 151 192 312 Q 171 349 130 385 Q 111 400 113 411 Q 117 429 131 446 Q 141 456 153 450 Q 178 435 262 416 Q 271 415 279 414 C 288 412 305 390 295 390 Z"/>
    <path class="bg" d="M 279 414 Q 185 543 161 555 Q 148 564 151 577 Q 152 590 176 608 Q 186 620 201 608 Q 252 569 335 540 Q 353 536 355 527 Q 358 517 339 521 Q 296 528 243 542 Q 216 552 234 530 Q 354 362 409 317 Q 421 307 415 298 Q 405 280 373 262 Q 358 253 349 256 Q 340 259 342 274 Q 345 310 295 390 C 284 406 284 406 279 414 Z"/>
    <path class="bg" d="M 100 723 Q 87 726 86 737 Q 85 750 96 758 Q 121 771 158 787 Q 168 788 180 778 Q 207 751 358 657 Q 379 644 394 630 Q 406 620 405 611 Q 399 607 387 610 Q 150 719 100 723 Z"/>
    <path class="bg" d="M 586 202 Q 590 187 637 116 Q 647 103 631 89 Q 589 58 563 63 Q 551 66 555 80 Q 573 162 474 292 Q 459 298 433 340 Q 426 356 440 350 Q 458 347 507 304 C 520 291 520 291 526 285 Q 550 257 570 229 C 581 211 581 211 586 202 Z"/>
    <path class="bg" d="M 665 380 Q 702 334 740 269 Q 756 244 781 228 Q 796 221 796 213 Q 796 200 770 184 Q 737 162 724 161 Q 714 161 703 168 Q 685 175 642 188 Q 602 198 586 202 C 576 204 560 225 570 229 Q 600 241 665 213 Q 684 207 693 213 Q 699 217 678 265 Q 662 305 631 346 Q 630 347 627 351 C 614 368 614 368 607 376 Q 523 469 407 516 Q 397 520 398 524 Q 399 528 406 528 Q 514 532 636 413 Q 639 409 642 407 C 657 389 657 389 665 380 Z"/>
    <path class="bg" d="M 642 407 Q 771 536 824 532 Q 900 525 960 508 Q 991 501 988 492 Q 987 488 954 481 Q 786 453 711 409 Q 687 394 665 380 C 640 361 640 361 627 351 Q 602 332 577 311 Q 550 289 526 285 C 517 283 499 299 507 304 Q 544 320 607 376 C 630 397 630 397 642 407 Z"/>
    <path class="bg" d="M 654 633 Q 694 624 802 610 Q 812 611 821 598 Q 822 586 799 577 Q 766 555 683 582 Q 668 585 655 589 C 621 597 621 597 604 601 Q 564 608 530 613 Q 493 617 452 623 Q 424 627 446 644 Q 480 669 507 662 Q 550 652 605 642 C 638 636 638 636 654 633 Z"/>
    <path class="bg" d="M 570 839 Q 545 835 518 829 Q 506 826 507 834 Q 508 840 518 848 Q 576 905 597 938 Q 610 954 626 941 Q 662 913 660 842 Q 657 814 654 633 C 655 604 655 604 655 589 Q 658 565 665 547 Q 674 529 658 517 Q 633 496 605 487 Q 587 480 580 488 Q 574 494 584 508 Q 602 541 604 601 C 605 628 605 628 605 642 Q 609 822 591 837 Q 584 843 570 839 Z"/>
    <path class="bg" d="M 479 703 Q 445 749 405 788 Q 378 813 388 850 Q 391 868 414 861 Q 468 837 491 763 Q 503 733 502 708 Q 499 699 493 697 Q 486 697 479 703 Z"/>
    <path class="bg" d="M 727 712 Q 775 763 830 834 Q 845 856 860 861 Q 869 862 877 854 Q 890 841 881 795 Q 875 753 803 716 Q 757 691 731 681 Q 722 675 719 687 Q 718 700 727 712 Z"/>
</g>
<g id="anim-layer">
    <path style="--d:1s; stroke:#FF4444;" pathLength="3333" clip-path="url(#z32486c1)" d="M 276 96 L 307 150 L 156 403 L 171 422 L 284 395"/>
    <path style="--d:2s; stroke:#FF4444;" pathLength="3333" clip-path="url(#z32486c2)" d="M 349 261 L 376 308 L 189 556 L 207 579 L 346 526"/>
    <path style="--d:3s; stroke:#FF4444;" pathLength="3333" clip-path="url(#z32486c3)" d="M 90 737 L 153 750 L 400 617"/>
    <path style="--d:4s; stroke:#000;" pathLength="3333" clip-path="url(#z32486c4)" d="M 562 72 L 598 116 L 532 245 L 438 345"/>
    <path style="--d:5s; stroke:#000;" pathLength="3333" clip-path="url(#z32486c5)" d="M 580 226 L 708 189 L 742 226 L 587 428 L 407 523"/>
    <path style="--d:6s; stroke:#000;" pathLength="3333" clip-path="url(#z32486c6)" d="M 520 299 L 797 486 L 981 494"/>
    <path style="--d:7s; stroke:#000;" pathLength="3333" clip-path="url(#z32486c7)" d="M 443 631 L 496 640 L 813 595"/>
    <path style="--d:8s; stroke:#000;" pathLength="3333" clip-path="url(#z32486c8)" d="M 585 490 L 633 542 L 624 859 L 595 893 L 516 835"/>
    <path style="--d:9s; stroke:#000;" pathLength="3333" clip-path="url(#z32486c9)" d="M 492 701 L 396 855"/>
    <path style="--d:10s; stroke:#000;" pathLength="3333" clip-path="url(#z32486c10)" d="M 725 685 L 839 787 L 864 857"/>
</g>
</svg>