<svg id="z32507" class="acjk" viewBox="0 0 1024 1024" xmlns="http://www.w3.org/2000/svg">

<style>
<![CDATA[
@keyframes zk { to { stroke-dashoffset:0; } }
svg.acjk path[clip-path] {
    --t:0.8s;
    animation:zk var(--t) linear forwards var(--d);
    stroke-dasharray:3337;
    stroke-dashoffset:3339;
    stroke-width:128;
    stroke-linecap:round;
    fill:none;
}
/* Low opacity for background improves visual overlap at intersections */
svg.acjk .bg { fill:#ccc; opacity: 0.5; } 
]]>
</style>
<defs>
    <clipPath id="z32507c1"><path d="M 300 399 Q 299 398 297 399 Q 252 399 215 399 Q 181 400 199 379 Q 263 276 324 198 Q 340 179 337 172 Q 334 157 294 124 Q 278 111 258 114 Q 246 117 253 133 Q 269 175 186 325 Q 168 359 131 391 Q 112 407 114 419 Q 118 438 133 457 Q 142 466 173 453 Q 224 432 282 425 C 292 423 311 399 300 399 Z"/></clipPath>
    <clipPath id="z32507c2"><path d="M 282 425 Q 192 551 167 563 Q 154 572 157 585 Q 158 598 184 618 Q 194 630 209 617 Q 272 574 362 544 Q 381 540 383 531 Q 386 521 366 524 Q 317 531 254 549 Q 224 559 244 535 Q 280 484 366 381 Q 394 344 418 323 Q 430 313 424 303 Q 414 284 380 266 Q 364 257 355 259 Q 345 263 348 278 Q 349 312 300 399 C 288 416 288 416 282 425 Z"/></clipPath>
    <clipPath id="z32507c3"><path d="M 106 725 Q 93 729 93 739 Q 93 752 104 759 Q 129 771 164 784 Q 174 785 185 776 Q 210 748 239 728 Q 285 697 329 666 Q 347 654 358 642 Q 370 632 369 623 Q 360 617 254 668 Q 128 722 106 725 Z"/></clipPath>
    <clipPath id="z32507c4"><path d="M 464 218 Q 483 239 503 264 Q 512 274 524 276 Q 531 277 537 267 Q 543 257 539 233 Q 535 209 465 180 Q 453 176 448 178 Q 444 179 444 190 Q 445 199 464 218 Z"/></clipPath>
    <clipPath id="z32507c5"><path d="M 718 171 Q 702 196 668 236 Q 662 242 667 249 Q 674 250 681 247 Q 751 208 786 194 Q 802 190 800 180 Q 796 164 778 146 Q 762 128 740 125 Q 727 125 726 143 Q 727 156 718 171 Z"/></clipPath>
    <clipPath id="z32507c6"><path d="M 611 353 Q 665 340 722 330 Q 761 321 767 315 Q 776 308 771 299 Q 764 289 736 281 Q 714 277 619 305 C 585 314 585 314 568 318 Q 520 327 469 332 Q 433 338 459 354 Q 501 378 553 364 Q 554 363 560 363 C 594 356 594 356 611 353 Z"/></clipPath>
    <clipPath id="z32507c7"><path d="M 580 470 Q 595 464 670 458 C 690 457 690 457 700 456 Q 748 450 849 450 Q 868 449 872 441 Q 876 429 861 417 Q 804 381 750 399 Q 692 411 605 428 Q 598 429 592 431 C 558 437 558 437 541 440 Q 471 450 395 463 Q 376 466 390 481 Q 403 494 421 498 Q 440 502 455 497 Q 489 487 529 479 C 563 473 563 473 580 470 Z"/></clipPath>
    <clipPath id="z32507c8"><path d="M 526 591 Q 526 590 527 590 Q 557 545 580 470 C 588 444 588 444 592 431 Q 602 392 611 353 C 616 321 616 321 619 305 Q 620 283 624 262 Q 639 156 654 117 Q 660 107 652 99 Q 636 83 604 67 Q 585 57 569 62 Q 550 68 564 84 Q 589 112 587 141 Q 581 240 568 318 C 563 348 563 348 560 363 Q 554 390 541 440 C 533 466 533 466 529 479 Q 484 599 375 689 Q 327 719 317 730 Q 313 736 328 737 Q 382 743 492 634 Q 492 633 494 632 C 515 605 515 605 526 591 Z"/></clipPath>
    <clipPath id="z32507c9"><path d="M 670 458 Q 799 656 837 669 Q 918 669 967 661 Q 974 660 976 655 Q 977 651 966 644 Q 843 595 764 520 Q 733 490 700 456 C 693 449 664 450 670 458 Z"/></clipPath>
    <clipPath id="z32507c10"><path d="M 546 629 Q 609 610 655 601 Q 665 600 667 603 Q 671 609 671 626 Q 671 675 661 697 Q 648 721 627 717 Q 606 710 588 700 Q 569 693 581 713 Q 615 752 631 780 Q 641 793 653 784 Q 695 762 719 645 Q 725 617 737 603 Q 747 593 741 585 Q 734 576 693 558 Q 677 551 662 562 Q 641 577 538 599 C 528 601 536 631 546 629 Z"/></clipPath>
    <clipPath id="z32507c11"><path d="M 850 824 Q 837 799 813 721 Q 812 706 805 702 Q 799 699 796 716 Q 778 801 763 829 Q 738 863 642 858 Q 605 857 577 844 Q 552 831 544 815 Q 523 770 546 629 C 548 619 545 606 538 599 Q 534 595 526 591 C 511 582 491 615 494 632 Q 498 651 497 671 Q 488 834 522 870 Q 540 888 586 904 Q 737 941 847 866 Q 866 850 850 824 Z"/></clipPath>
</defs>
<g id="bg-layer">
    <path class="bg" d="M 300 399 Q 299 398 297 399 Q 252 399 215 399 Q 181 400 199 379 Q 263 276 324 198 Q 340 179 337 172 Q 334 157 294 124 Q 278 111 258 114 Q 246 117 253 133 Q 269 175 186 325 Q 168 359 131 391 Q 112 407 114 419 Q 118 438 133 457 Q 142 466 173 453 Q 224 432 282 425 C 292 423 311 399 300 399 Z"/>
    <path class="bg" d="M 282 425 Q 192 551 167 563 Q 154 572 157 585 Q 158 598 184 618 Q 194 630 209 617 Q 272 574 362 544 Q 381 540 383 531 Q 386 521 366 524 Q 317 531 254 549 Q 224 559 244 535 Q 280 484 366 381 Q 394 344 418 323 Q 430 313 424 303 Q 414 284 380 266 Q 364 257 355 259 Q 345 263 348 278 Q 349 312 300 399 C 288 416 288 416 282 425 Z"/>
    <path class="bg" d="M 106 725 Q 93 729 93 739 Q 93 752 104 759 Q 129 771 164 784 Q 174 785 185 776 Q 210 748 239 728 Q 285 697 329 666 Q 347 654 358 642 Q 370 632 369 623 Q 360 617 254 668 Q 128 722 106 725 Z"/>
    <path class="bg" d="M 464 218 Q 483 239 503 264 Q 512 274 524 276 Q 531 277 537 267 Q 543 257 539 233 Q 535 209 465 180 Q 453 176 448 178 Q 444 179 444 190 Q 445 199 464 218 Z"/>
    <path class="bg" d="M 718 171 Q 702 196 668 236 Q 662 242 667 249 Q 674 250 681 247 Q 751 208 786 194 Q 802 190 800 180 Q 796 164 778 146 Q 762 128 740 125 Q 727 125 726 143 Q 727 156 718 171 Z"/>
    <path class="bg" d="M 611 353 Q 665 340 722 330 Q 761 321 767 315 Q 776 308 771 299 Q 764 289 736 281 Q 714 277 619 305 C 585 314 585 314 568 318 Q 520 327 469 332 Q 433 338 459 354 Q 501 378 553 364 Q 554 363 560 363 C 594 356 594 356 611 353 Z"/>
    <path class="bg" d="M 580 470 Q 595 464 670 458 C 690 457 690 457 700 456 Q 748 450 849 450 Q 868 449 872 441 Q 876 429 861 417 Q 804 381 750 399 Q 692 411 605 428 Q 598 429 592 431 C 558 437 558 437 541 440 Q 471 450 395 463 Q 376 466 390 481 Q 403 494 421 498 Q 440 502 455 497 Q 489 487 529 479 C 563 473 563 473 580 470 Z"/>
    <path class="bg" d="M 526 591 Q 526 590 527 590 Q 557 545 580 470 C 588 444 588 444 592 431 Q 602 392 611 353 C 616 321 616 321 619 305 Q 620 283 624 262 Q 639 156 654 117 Q 660 107 652 99 Q 636 83 604 67 Q 585 57 569 62 Q 550 68 564 84 Q 589 112 587 141 Q 581 240 568 318 C 563 348 563 348 560 363 Q 554 390 541 440 C 533 466 533 466 529 479 Q 484 599 375 689 Q 327 719 317 730 Q 313 736 328 737 Q 382 743 492 634 Q 492 633 494 632 C 515 605 515 605 526 591 Z"/>
    <path class="bg" d="M 670 458 Q 799 656 837 669 Q 918 669 967 661 Q 974 660 976 655 Q 977 651 966 644 Q 843 595 764 520 Q 733 490 700 456 C 693 449 664 450 670 458 Z"/>
    <path class="bg" d="M 546 629 Q 609 610 655 601 Q 665 600 667 603 Q 671 609 671 626 Q 671 675 661 697 Q 648 721 627 717 Q 606 710 588 700 Q 569 693 581 713 Q 615 752 631 780 Q 641 793 653 784 Q 695 762 719 645 Q 725 617 737 603 Q 747 593 741 585 Q 734 576 693 558 Q 677 551 662 562 Q 641 577 538 599 C 528 601 536 631 546 629 Z"/>
    <path class="bg" d="M 850 824 Q 837 799 813 721 Q 812 706 805 702 Q 799 699 796 716 Q 778 801 763 829 Q 738 863 642 858 Q 605 857 577 844 Q 552 831 544 815 Q 523 770 546 629 C 548 619 545 606 538 599 Q 534 595 526 591 C 511 582 491 615 494 632 Q 498 651 497 671 Q 488 834 522 870 Q 540 888 586 904 Q 737 941 847 866 Q 866 850 850 824 Z"/>
</g>
<g id="anim-layer">
    <path style="--d:1s; stroke:#FF4444;" pathLength="3333" clip-path="url(#z32507c1)" d="M 258 120 L 295 173 L 157 409 L 171 429 L 292 406"/>
    <path style="--d:2s; stroke:#FF4444;" pathLength="3333" clip-path="url(#z32507c2)" d="M 358 264 L 384 309 L 202 570 L 220 587 L 376 532"/>
    <path style="--d:3s; stroke:#FF4444;" pathLength="3333" clip-path="url(#z32507c3)" d="M 98 735 L 172 742 L 362 628"/>
    <path style="--d:4s; stroke:#000;" pathLength="3333" clip-path="url(#z32507c4)" d="M 452 185 L 529 270"/>
    <path style="--d:5s; stroke:#000;" pathLength="3333" clip-path="url(#z32507c5)" d="M 738 129 L 759 176 L 671 241"/>
    <path style="--d:6s; stroke:#000;" pathLength="3333" clip-path="url(#z32507c6)" d="M 457 342 L 765 306"/>
    <path style="--d:7s; stroke:#000;" pathLength="3333" clip-path="url(#z32507c7)" d="M 390 471 L 766 423 L 869 433"/>
    <path style="--d:8s; stroke:#000;" pathLength="3333" clip-path="url(#z32507c8)" d="M 564 74 L 621 121 L 547 495 L 445 651 L 323 731"/>
    <path style="--d:9s; stroke:#000;" pathLength="3333" clip-path="url(#z32507c9)" d="M 680 464 L 846 629 L 963 653"/>
    <path style="--d:10s; stroke:#000;" pathLength="3333" clip-path="url(#z32507c10)" d="M 545 605 L 671 580 L 705 601 L 651 747 L 585 705"/>
    <path style="--d:11s; stroke:#000;" pathLength="3333" clip-path="url(#z32507c11)" d="M 527 600 L 519 805 L 570 869 L 690 887 L 795 854 L 814 829 L 805 709"/>
</g>
</svg>