<svg id="z32526" class="acjk" viewBox="0 0 1024 1024" xmlns="http://www.w3.org/2000/svg">

<style>
<![CDATA[
@keyframes zk { to { stroke-dashoffset:0; } }
svg.acjk path[clip-path] {
    --t:0.8s;
    animation:zk var(--t) linear forwards var(--d);
    stroke-dasharray:3337;
    stroke-dashoffset:3339;
    stroke-width:128;
    stroke-linecap:round;
    fill:none;
}
/* Low opacity for background improves visual overlap at intersections */
svg.acjk .bg { fill:#ccc; opacity: 0.5; } 
]]>
</style>
<defs>
    <clipPath id="z32526c1"><path d="M 276 399 Q 237 398 203 398 Q 169 398 187 378 Q 248 272 308 193 Q 321 177 319 169 Q 318 156 279 126 Q 263 113 246 117 Q 236 120 241 134 Q 259 174 178 323 Q 162 357 125 390 Q 107 403 109 415 Q 113 434 126 450 Q 135 459 151 452 Q 187 433 261 423 C 270 421 285 399 276 399 Z"/></clipPath>
    <clipPath id="z32526c2"><path d="M 261 423 Q 168 556 148 568 Q 135 578 139 590 Q 140 603 166 620 Q 176 630 190 619 Q 250 574 348 537 Q 366 531 367 523 Q 368 513 351 517 Q 296 529 230 552 Q 205 562 220 540 Q 254 488 338 381 Q 363 345 386 324 Q 398 314 391 305 Q 381 287 349 271 Q 333 262 325 265 Q 315 269 318 284 Q 321 323 276 399 C 266 415 266 415 261 423 Z"/></clipPath>
    <clipPath id="z32526c3"><path d="M 115 721 Q 103 724 103 734 Q 103 746 112 752 Q 134 764 167 777 Q 177 778 186 769 Q 211 742 326 668 Q 342 658 354 645 Q 364 636 364 628 Q 360 624 348 628 Q 153 718 115 721 Z"/></clipPath>
    <clipPath id="z32526c4"><path d="M 465 307 Q 510 253 555 193 Q 568 172 588 156 Q 606 141 590 127 Q 574 115 545 109 Q 518 102 507 109 Q 495 113 503 125 Q 515 149 463 263 Q 456 278 448 295 C 445 301 461 313 465 307 Z"/></clipPath>
    <clipPath id="z32526c5"><path d="M 474 643 Q 474 589 473 535 C 473 517 473 517 473 508 Q 473 459 474 423 C 474 404 474 404 474 394 Q 475 351 479 333 Q 480 315 465 307 C 454 299 454 299 448 295 Q 432 285 415 280 Q 406 279 400 287 Q 396 293 404 303 Q 431 363 431 427 Q 438 571 432 652 Q 431 659 431 668 C 426 705 426 705 424 724 Q 417 766 405 808 Q 390 856 424 900 Q 436 913 446 899 Q 473 869 474 685 C 474 657 474 657 474 643 Z"/></clipPath>
    <clipPath id="z32526c6"><path d="M 474 423 Q 478 417 589 400 Q 611 394 602 383 Q 590 370 566 368 Q 530 365 474 394 C 465 398 465 427 474 423 Z"/></clipPath>
    <clipPath id="z32526c7"><path d="M 473 535 Q 474 535 481 534 Q 541 521 585 512 Q 607 506 598 495 Q 586 482 562 480 Q 528 477 473 508 C 465 513 464 537 473 535 Z"/></clipPath>
    <clipPath id="z32526c8"><path d="M 474 685 Q 567 609 571 605 Q 581 595 580 588 Q 574 584 563 589 Q 521 614 474 643 C 445 660 445 660 431 668 Q 320 728 299 734 Q 287 738 288 747 Q 289 760 299 764 Q 323 774 356 783 Q 366 784 374 774 Q 396 746 424 724 C 457 698 457 698 474 685 Z"/></clipPath>
    <clipPath id="z32526c9"><path d="M 670 218 Q 660 211 643 206 Q 628 199 619 204 Q 612 211 617 220 Q 618 223 622 227 Q 650 255 623 388 Q 622 391 620 397 Q 616 410 611 423 Q 607 429 607 433 Q 606 442 613 439 Q 637 435 661 374 Q 680 317 681 253 C 681 241 680 225 670 218 Z"/></clipPath>
    <clipPath id="z32526c10"><path d="M 959 407 Q 972 401 964 387 Q 949 369 931 360 Q 919 356 898 365 Q 870 380 836 380 Q 814 380 806 364 Q 797 345 811 294 Q 815 263 850 232 Q 866 217 851 204 Q 829 185 803 173 Q 793 167 776 177 Q 737 196 705 209 Q 687 213 670 218 C 658 222 670 258 681 253 Q 687 250 694 248 Q 763 221 765 221 Q 772 222 772 235 Q 768 274 762 307 Q 753 347 760 374 Q 766 396 787 411 Q 817 427 874 426 Q 931 423 959 407 Z"/></clipPath>
    <clipPath id="z32526c11"><path d="M 769 713 Q 770 710 773 707 Q 807 653 830 566 Q 837 532 857 513 Q 873 498 854 483 Q 832 467 799 454 Q 777 447 756 459 Q 716 481 658 490 Q 633 491 621 498 Q 612 504 630 514 Q 655 527 694 517 Q 719 510 747 504 Q 772 497 770 524 Q 770 596 731 675 C 713 703 713 703 704 717 Q 700 721 696 728 Q 653 774 540 814 Q 525 818 535 826 Q 542 830 570 826 Q 646 816 691 792 Q 713 779 734 759 C 757 728 757 728 769 713 Z"/></clipPath>
    <clipPath id="z32526c12"><path d="M 734 759 Q 764 799 809 850 Q 834 872 874 868 Q 926 864 965 859 Q 977 858 988 854 Q 995 848 986 839 Q 973 829 867 780 Q 833 765 769 713 C 744 688 744 688 731 675 Q 694 635 656 584 Q 641 563 614 557 Q 604 556 596 560 Q 592 564 598 572 Q 604 578 610 583 Q 631 596 699 708 Q 700 712 704 717 C 724 745 724 745 734 759 Z"/></clipPath>
</defs>
<g id="bg-layer">
    <path class="bg" d="M 276 399 Q 237 398 203 398 Q 169 398 187 378 Q 248 272 308 193 Q 321 177 319 169 Q 318 156 279 126 Q 263 113 246 117 Q 236 120 241 134 Q 259 174 178 323 Q 162 357 125 390 Q 107 403 109 415 Q 113 434 126 450 Q 135 459 151 452 Q 187 433 261 423 C 270 421 285 399 276 399 Z"/>
    <path class="bg" d="M 261 423 Q 168 556 148 568 Q 135 578 139 590 Q 140 603 166 620 Q 176 630 190 619 Q 250 574 348 537 Q 366 531 367 523 Q 368 513 351 517 Q 296 529 230 552 Q 205 562 220 540 Q 254 488 338 381 Q 363 345 386 324 Q 398 314 391 305 Q 381 287 349 271 Q 333 262 325 265 Q 315 269 318 284 Q 321 323 276 399 C 266 415 266 415 261 423 Z"/>
    <path class="bg" d="M 115 721 Q 103 724 103 734 Q 103 746 112 752 Q 134 764 167 777 Q 177 778 186 769 Q 211 742 326 668 Q 342 658 354 645 Q 364 636 364 628 Q 360 624 348 628 Q 153 718 115 721 Z"/>
    <path class="bg" d="M 465 307 Q 510 253 555 193 Q 568 172 588 156 Q 606 141 590 127 Q 574 115 545 109 Q 518 102 507 109 Q 495 113 503 125 Q 515 149 463 263 Q 456 278 448 295 C 445 301 461 313 465 307 Z"/>
    <path class="bg" d="M 474 643 Q 474 589 473 535 C 473 517 473 517 473 508 Q 473 459 474 423 C 474 404 474 404 474 394 Q 475 351 479 333 Q 480 315 465 307 C 454 299 454 299 448 295 Q 432 285 415 280 Q 406 279 400 287 Q 396 293 404 303 Q 431 363 431 427 Q 438 571 432 652 Q 431 659 431 668 C 426 705 426 705 424 724 Q 417 766 405 808 Q 390 856 424 900 Q 436 913 446 899 Q 473 869 474 685 C 474 657 474 657 474 643 Z"/>
    <path class="bg" d="M 474 423 Q 478 417 589 400 Q 611 394 602 383 Q 590 370 566 368 Q 530 365 474 394 C 465 398 465 427 474 423 Z"/>
    <path class="bg" d="M 473 535 Q 474 535 481 534 Q 541 521 585 512 Q 607 506 598 495 Q 586 482 562 480 Q 528 477 473 508 C 465 513 464 537 473 535 Z"/>
    <path class="bg" d="M 474 685 Q 567 609 571 605 Q 581 595 580 588 Q 574 584 563 589 Q 521 614 474 643 C 445 660 445 660 431 668 Q 320 728 299 734 Q 287 738 288 747 Q 289 760 299 764 Q 323 774 356 783 Q 366 784 374 774 Q 396 746 424 724 C 457 698 457 698 474 685 Z"/>
    <path class="bg" d="M 670 218 Q 660 211 643 206 Q 628 199 619 204 Q 612 211 617 220 Q 618 223 622 227 Q 650 255 623 388 Q 622 391 620 397 Q 616 410 611 423 Q 607 429 607 433 Q 606 442 613 439 Q 637 435 661 374 Q 680 317 681 253 C 681 241 680 225 670 218 Z"/>
    <path class="bg" d="M 959 407 Q 972 401 964 387 Q 949 369 931 360 Q 919 356 898 365 Q 870 380 836 380 Q 814 380 806 364 Q 797 345 811 294 Q 815 263 850 232 Q 866 217 851 204 Q 829 185 803 173 Q 793 167 776 177 Q 737 196 705 209 Q 687 213 670 218 C 658 222 670 258 681 253 Q 687 250 694 248 Q 763 221 765 221 Q 772 222 772 235 Q 768 274 762 307 Q 753 347 760 374 Q 766 396 787 411 Q 817 427 874 426 Q 931 423 959 407 Z"/>
    <path class="bg" d="M 769 713 Q 770 710 773 707 Q 807 653 830 566 Q 837 532 857 513 Q 873 498 854 483 Q 832 467 799 454 Q 777 447 756 459 Q 716 481 658 490 Q 633 491 621 498 Q 612 504 630 514 Q 655 527 694 517 Q 719 510 747 504 Q 772 497 770 524 Q 770 596 731 675 C 713 703 713 703 704 717 Q 700 721 696 728 Q 653 774 540 814 Q 525 818 535 826 Q 542 830 570 826 Q 646 816 691 792 Q 713 779 734 759 C 757 728 757 728 769 713 Z"/>
    <path class="bg" d="M 734 759 Q 764 799 809 850 Q 834 872 874 868 Q 926 864 965 859 Q 977 858 988 854 Q 995 848 986 839 Q 973 829 867 780 Q 833 765 769 713 C 744 688 744 688 731 675 Q 694 635 656 584 Q 641 563 614 557 Q 604 556 596 560 Q 592 564 598 572 Q 604 578 610 583 Q 631 596 699 708 Q 700 712 704 717 C 724 745 724 745 734 759 Z"/>
</g>
<g id="anim-layer">
    <path style="--d:1s; stroke:#FF4444;" pathLength="3333" clip-path="url(#z32526c1)" d="M 248 124 L 280 176 L 149 406 L 163 425 L 269 406"/>
    <path style="--d:2s; stroke:#FF4444;" pathLength="3333" clip-path="url(#z32526c2)" d="M 327 269 L 354 312 L 179 570 L 199 590 L 359 523"/>
    <path style="--d:3s; stroke:#FF4444;" pathLength="3333" clip-path="url(#z32526c3)" d="M 108 733 L 170 741 L 355 631"/>
    <path style="--d:4s; stroke:#000;" pathLength="3333" clip-path="url(#z32526c4)" d="M 507 115 L 549 151 L 455 299"/>
    <path style="--d:5s; stroke:#000;" pathLength="3333" clip-path="url(#z32526c5)" d="M 405 289 L 450 339 L 453 656 L 429 898"/>
    <path style="--d:6s; stroke:#000;" pathLength="3333" clip-path="url(#z32526c6)" d="M 480 413 L 600 383"/>
    <path style="--d:7s; stroke:#000;" pathLength="3333" clip-path="url(#z32526c7)" d="M 478 527 L 593 498"/>
    <path style="--d:8s; stroke:#000;" pathLength="3333" clip-path="url(#z32526c8)" d="M 294 747 L 354 748 L 572 593"/>
    <path style="--d:9s; stroke:#000;" pathLength="3333" clip-path="url(#z32526c9)" d="M 625 213 L 658 277 L 614 433"/>
    <path style="--d:10s; stroke:#000;" pathLength="3333" clip-path="url(#z32526c10)" d="M 678 226 L 782 198 L 805 210 L 780 338 L 799 391 L 961 392"/>
    <path style="--d:11s; stroke:#000;" pathLength="3333" clip-path="url(#z32526c11)" d="M 627 502 L 774 478 L 816 512 L 766 664 L 707 751 L 539 821"/>
    <path style="--d:12s; stroke:#000;" pathLength="3333" clip-path="url(#z32526c12)" d="M 606 567 L 819 802 L 985 847"/>
</g>
</svg>