<svg id="z32529" class="acjk" viewBox="0 0 1024 1024" xmlns="http://www.w3.org/2000/svg">

<style>
<![CDATA[
@keyframes zk { to { stroke-dashoffset:0; } }
svg.acjk path[clip-path] {
    --t:0.8s;
    animation:zk var(--t) linear forwards var(--d);
    stroke-dasharray:3337;
    stroke-dashoffset:3339;
    stroke-width:128;
    stroke-linecap:round;
    fill:none;
}
/* Low opacity for background improves visual overlap at intersections */
svg.acjk .bg { fill:#ccc; opacity: 0.5; } 
]]>
</style>
<defs>
    <clipPath id="z32529c1"><path d="M 275 400 Q 271 399 263 399 Q 229 399 200 398 Q 166 399 183 378 Q 240 273 294 194 Q 306 178 303 171 Q 300 158 263 131 Q 248 119 231 124 Q 221 127 227 141 Q 245 177 174 325 Q 158 359 124 392 Q 108 405 110 417 Q 114 433 128 450 Q 138 460 149 452 Q 165 442 224 426 Q 249 422 263 417 C 269 414 282 401 275 400 Z"/></clipPath>
    <clipPath id="z32529c2"><path d="M 263 417 Q 170 552 148 564 Q 135 574 139 586 Q 140 599 166 616 Q 176 626 190 615 Q 241 573 324 541 Q 342 535 343 527 Q 344 517 327 521 Q 284 530 230 547 Q 205 557 220 536 Q 256 482 341 373 Q 366 337 390 316 Q 402 306 395 297 Q 385 279 353 263 Q 337 254 329 257 Q 319 261 322 275 Q 325 314 275 400 C 267 411 267 411 263 417 Z"/></clipPath>
    <clipPath id="z32529c3"><path d="M 101 741 Q 89 745 90 754 Q 90 767 100 772 Q 122 782 155 794 Q 165 795 174 785 Q 204 751 322 671 Q 338 658 351 645 Q 361 636 360 628 Q 354 624 344 628 Q 149 734 101 741 Z"/></clipPath>
    <clipPath id="z32529c4"><path d="M 427 412 Q 466 360 520 253 Q 535 216 550 198 Q 557 188 551 177 Q 547 167 519 149 Q 494 136 478 138 Q 462 142 471 160 Q 484 182 478 202 Q 462 269 429 335 Q 399 398 355 468 Q 348 478 346 484 Q 345 494 356 490 Q 365 487 405 442 C 420 422 420 422 427 412 Z"/></clipPath>
    <clipPath id="z32529c5"><path d="M 405 442 Q 406 449 411 455 Q 441 519 417 679 Q 410 727 397 776 Q 385 816 417 859 Q 418 860 420 862 Q 436 875 446 852 Q 459 818 458 777 Q 461 540 469 487 Q 476 463 467 454 Q 451 436 440 424 Q 434 417 427 412 C 417 404 403 430 405 442 Z"/></clipPath>
    <clipPath id="z32529c6"><path d="M 772 322 Q 793 256 822 232 Q 835 216 823 201 Q 756 153 705 183 Q 651 204 595 216 Q 582 217 583 226 Q 586 233 602 237 Q 624 244 653 233 Q 737 215 741 218 Q 748 225 746 240 Q 737 292 724 332 C 718 347 766 337 772 322 Z"/></clipPath>
    <clipPath id="z32529c7"><path d="M 588 392 Q 714 353 893 353 Q 908 352 912 345 Q 915 336 902 327 Q 856 297 807 313 Q 791 316 772 322 C 740 329 740 329 724 332 Q 721 332 532 367 Q 517 368 529 381 Q 542 394 565 396 C 573 398 580 394 588 392 Z"/></clipPath>
    <clipPath id="z32529c8"><path d="M 608 476 Q 617 458 632 443 Q 639 436 634 425 Q 630 416 609 401 Q 599 394 588 392 C 580 390 565 388 565 396 Q 564 400 568 408 Q 586 435 519 553 Q 512 560 511 566 Q 510 573 519 571 Q 540 567 594 496 C 603 483 603 483 608 476 Z"/></clipPath>
    <clipPath id="z32529c9"><path d="M 679 503 Q 829 470 835 464 Q 842 457 839 450 Q 832 440 807 434 Q 789 431 688 462 Q 651 469 608 476 C 600 477 586 493 594 496 Q 615 506 643 508 C 667 505 667 505 679 503 Z"/></clipPath>
    <clipPath id="z32529c10"><path d="M 711 634 Q 771 624 866 620 Q 912 616 917 610 Q 921 600 906 588 Q 855 555 792 576 Q 753 585 703 598 C 669 605 669 605 652 608 Q 583 621 505 636 Q 487 639 502 653 Q 532 675 562 667 Q 601 654 646 645 C 689 638 689 638 711 634 Z"/></clipPath>
    <clipPath id="z32529c11"><path d="M 703 598 Q 706 552 715 536 Q 721 530 716 522 Q 710 513 679 503 C 668 499 639 497 643 508 Q 656 535 652 608 C 648 633 648 633 646 645 Q 619 753 548 808 Q 524 824 490 845 Q 471 857 495 855 Q 534 858 596 818 Q 662 778 691 655 C 699 617 699 617 703 598 Z"/></clipPath>
    <clipPath id="z32529c12"><path d="M 691 655 Q 692 656 694 658 Q 817 850 855 861 Q 954 861 979 857 Q 986 856 988 851 Q 989 847 978 840 Q 863 792 787 716 Q 750 679 711 634 C 698 621 680 640 691 655 Z"/></clipPath>
</defs>
<g id="bg-layer">
    <path class="bg" d="M 275 400 Q 271 399 263 399 Q 229 399 200 398 Q 166 399 183 378 Q 240 273 294 194 Q 306 178 303 171 Q 300 158 263 131 Q 248 119 231 124 Q 221 127 227 141 Q 245 177 174 325 Q 158 359 124 392 Q 108 405 110 417 Q 114 433 128 450 Q 138 460 149 452 Q 165 442 224 426 Q 249 422 263 417 C 269 414 282 401 275 400 Z"/>
    <path class="bg" d="M 263 417 Q 170 552 148 564 Q 135 574 139 586 Q 140 599 166 616 Q 176 626 190 615 Q 241 573 324 541 Q 342 535 343 527 Q 344 517 327 521 Q 284 530 230 547 Q 205 557 220 536 Q 256 482 341 373 Q 366 337 390 316 Q 402 306 395 297 Q 385 279 353 263 Q 337 254 329 257 Q 319 261 322 275 Q 325 314 275 400 C 267 411 267 411 263 417 Z"/>
    <path class="bg" d="M 101 741 Q 89 745 90 754 Q 90 767 100 772 Q 122 782 155 794 Q 165 795 174 785 Q 204 751 322 671 Q 338 658 351 645 Q 361 636 360 628 Q 354 624 344 628 Q 149 734 101 741 Z"/>
    <path class="bg" d="M 427 412 Q 466 360 520 253 Q 535 216 550 198 Q 557 188 551 177 Q 547 167 519 149 Q 494 136 478 138 Q 462 142 471 160 Q 484 182 478 202 Q 462 269 429 335 Q 399 398 355 468 Q 348 478 346 484 Q 345 494 356 490 Q 365 487 405 442 C 420 422 420 422 427 412 Z"/>
    <path class="bg" d="M 405 442 Q 406 449 411 455 Q 441 519 417 679 Q 410 727 397 776 Q 385 816 417 859 Q 418 860 420 862 Q 436 875 446 852 Q 459 818 458 777 Q 461 540 469 487 Q 476 463 467 454 Q 451 436 440 424 Q 434 417 427 412 C 417 404 403 430 405 442 Z"/>
    <path class="bg" d="M 772 322 Q 793 256 822 232 Q 835 216 823 201 Q 756 153 705 183 Q 651 204 595 216 Q 582 217 583 226 Q 586 233 602 237 Q 624 244 653 233 Q 737 215 741 218 Q 748 225 746 240 Q 737 292 724 332 C 718 347 766 337 772 322 Z"/>
    <path class="bg" d="M 588 392 Q 714 353 893 353 Q 908 352 912 345 Q 915 336 902 327 Q 856 297 807 313 Q 791 316 772 322 C 740 329 740 329 724 332 Q 721 332 532 367 Q 517 368 529 381 Q 542 394 565 396 C 573 398 580 394 588 392 Z"/>
    <path class="bg" d="M 608 476 Q 617 458 632 443 Q 639 436 634 425 Q 630 416 609 401 Q 599 394 588 392 C 580 390 565 388 565 396 Q 564 400 568 408 Q 586 435 519 553 Q 512 560 511 566 Q 510 573 519 571 Q 540 567 594 496 C 603 483 603 483 608 476 Z"/>
    <path class="bg" d="M 679 503 Q 829 470 835 464 Q 842 457 839 450 Q 832 440 807 434 Q 789 431 688 462 Q 651 469 608 476 C 600 477 586 493 594 496 Q 615 506 643 508 C 667 505 667 505 679 503 Z"/>
    <path class="bg" d="M 711 634 Q 771 624 866 620 Q 912 616 917 610 Q 921 600 906 588 Q 855 555 792 576 Q 753 585 703 598 C 669 605 669 605 652 608 Q 583 621 505 636 Q 487 639 502 653 Q 532 675 562 667 Q 601 654 646 645 C 689 638 689 638 711 634 Z"/>
    <path class="bg" d="M 703 598 Q 706 552 715 536 Q 721 530 716 522 Q 710 513 679 503 C 668 499 639 497 643 508 Q 656 535 652 608 C 648 633 648 633 646 645 Q 619 753 548 808 Q 524 824 490 845 Q 471 857 495 855 Q 534 858 596 818 Q 662 778 691 655 C 699 617 699 617 703 598 Z"/>
    <path class="bg" d="M 691 655 Q 692 656 694 658 Q 817 850 855 861 Q 954 861 979 857 Q 986 856 988 851 Q 989 847 978 840 Q 863 792 787 716 Q 750 679 711 634 C 698 621 680 640 691 655 Z"/>
</g>
<g id="anim-layer">
    <path style="--d:1s; stroke:#FF4444;" pathLength="3333" clip-path="url(#z32529c1)" d="M 232 127 L 265 181 L 150 407 L 165 427 L 264 403"/>
    <path style="--d:2s; stroke:#FF4444;" pathLength="3333" clip-path="url(#z32529c2)" d="M 331 264 L 357 308 L 182 569 L 204 584 L 334 527"/>
    <path style="--d:3s; stroke:#FF4444;" pathLength="3333" clip-path="url(#z32529c3)" d="M 94 750 L 156 759 L 354 634"/>
    <path style="--d:4s; stroke:#000;" pathLength="3333" clip-path="url(#z32529c4)" d="M 477 146 L 516 192 L 448 344 L 352 485"/>
    <path style="--d:5s; stroke:#000;" pathLength="3333" clip-path="url(#z32529c5)" d="M 426 421 L 446 478 L 429 862"/>
    <path style="--d:6s; stroke:#000;" pathLength="3333" clip-path="url(#z32529c6)" d="M 587 223 L 766 201 L 786 227 L 731 327"/>
    <path style="--d:7s; stroke:#000;" pathLength="3333" clip-path="url(#z32529c7)" d="M 531 372 L 831 331 L 903 340"/>
    <path style="--d:8s; stroke:#000;" pathLength="3333" clip-path="url(#z32529c8)" d="M 572 400 L 601 441 L 520 565"/>
    <path style="--d:9s; stroke:#000;" pathLength="3333" clip-path="url(#z32529c9)" d="M 601 493 L 834 451"/>
    <path style="--d:10s; stroke:#000;" pathLength="3333" clip-path="url(#z32529c10)" d="M 500 641 L 551 648 L 834 594 L 913 603"/>
    <path style="--d:11s; stroke:#000;" pathLength="3333" clip-path="url(#z32529c11)" d="M 651 512 L 685 542 L 642 726 L 580 806 L 491 848"/>
    <path style="--d:12s; stroke:#000;" pathLength="3333" clip-path="url(#z32529c12)" d="M 700 641 L 863 823 L 977 848"/>
</g>
</svg>