<svg id="z32540" class="acjk" viewBox="0 0 1024 1024" xmlns="http://www.w3.org/2000/svg">

<style>
<![CDATA[
@keyframes zk { to { stroke-dashoffset:0; } }
svg.acjk path[clip-path] {
    --t:0.8s;
    animation:zk var(--t) linear forwards var(--d);
    stroke-dasharray:3337;
    stroke-dashoffset:3339;
    stroke-width:128;
    stroke-linecap:round;
    fill:none;
}
/* Low opacity for background improves visual overlap at intersections */
svg.acjk .bg { fill:#ccc; opacity: 0.5; } 
]]>
</style>
<defs>
    <clipPath id="z32540c1"><path d="M 306 424 Q 263 424 225 424 Q 189 425 207 403 Q 270 291 330 207 Q 343 189 341 182 Q 338 167 298 138 Q 282 125 263 129 Q 253 133 259 148 Q 280 196 184 370 Q 168 392 143 417 Q 125 432 127 444 Q 131 463 146 480 Q 156 490 169 483 Q 193 470 275 452 Q 281 451 287 451 C 298 451 317 424 306 424 Z"/></clipPath>
    <clipPath id="z32540c2"><path d="M 287 451 Q 194 580 174 590 Q 161 600 164 614 Q 165 627 193 647 Q 203 659 219 646 Q 279 600 358 570 Q 377 564 379 555 Q 382 545 361 549 Q 318 556 263 573 Q 236 583 253 560 Q 289 509 374 406 Q 402 366 427 344 Q 440 334 433 324 Q 423 305 387 285 Q 371 276 361 279 Q 351 283 353 299 Q 356 342 306 424 C 293 442 293 442 287 451 Z"/></clipPath>
    <clipPath id="z32540c3"><path d="M 102 763 Q 89 767 89 777 Q 89 790 100 795 Q 124 807 158 819 Q 168 820 178 810 Q 202 782 345 686 Q 364 673 379 657 Q 389 648 388 639 Q 382 635 371 640 Q 145 757 102 763 Z"/></clipPath>
    <clipPath id="z32540c4"><path d="M 645 251 Q 711 236 782 224 Q 834 214 842 206 Q 851 199 847 191 Q 840 181 814 173 Q 786 166 759 177 Q 705 193 652 208 C 618 215 618 215 601 219 Q 541 229 477 234 Q 443 238 467 255 Q 501 276 570 264 Q 583 261 600 259 C 630 254 630 254 645 251 Z"/></clipPath>
    <clipPath id="z32540c5"><path d="M 633 327 Q 639 287 645 251 C 650 222 650 222 652 208 Q 658 154 667 129 Q 679 101 662 86 Q 632 67 611 62 Q 598 58 590 65 Q 583 72 589 85 Q 602 107 602 121 Q 603 167 601 219 C 600 246 600 246 600 259 Q 597 295 594 335 C 594 348 630 340 633 327 Z"/></clipPath>
    <clipPath id="z32540c6"><path d="M 524 339 Q 514 332 504 327 Q 494 324 486 328 Q 479 332 482 341 Q 497 371 501 449 Q 501 516 505 685 C 505 698 544 694 544 681 Q 544 653 544 625 C 544 610 544 610 544 603 Q 544 575 544 548 C 544 534 544 534 544 527 Q 544 493 545 463 C 545 450 545 450 545 443 Q 545 383 549 370 C 552 357 535 347 524 339 Z"/></clipPath>
    <clipPath id="z32540c7"><path d="M 780 650 Q 781 401 802 371 Q 814 358 802 342 Q 793 332 748 305 Q 735 295 714 305 Q 680 315 633 327 C 607 332 607 332 594 335 Q 561 338 524 339 C 511 339 536 373 549 370 Q 553 369 559 368 Q 661 346 702 344 Q 718 341 724 348 Q 730 360 732 657 C 732 673 780 666 780 650 Z"/></clipPath>
    <clipPath id="z32540c8"><path d="M 545 463 Q 552 464 564 463 Q 639 447 694 437 Q 713 433 705 422 Q 695 410 675 408 Q 651 407 545 443 C 539 445 538 463 545 463 Z"/></clipPath>
    <clipPath id="z32540c9"><path d="M 544 548 Q 550 549 558 548 Q 637 533 697 524 Q 716 521 709 510 Q 700 498 679 495 Q 655 492 544 527 C 538 530 537 548 544 548 Z"/></clipPath>
    <clipPath id="z32540c10"><path d="M 544 625 Q 548 626 557 625 Q 636 615 696 608 Q 715 605 709 594 Q 700 582 679 577 Q 652 573 544 603 C 537 605 537 625 544 625 Z"/></clipPath>
    <clipPath id="z32540c11"><path d="M 505 685 Q 444 691 380 699 Q 361 700 375 717 Q 388 730 405 736 Q 426 742 441 738 Q 595 696 896 697 Q 912 697 930 698 Q 949 699 954 690 Q 960 680 944 666 Q 890 624 834 639 Q 809 643 780 650 C 748 655 748 655 732 657 Q 690 661 643 669 Q 595 673 544 681 C 518 684 518 684 505 685 Z"/></clipPath>
    <clipPath id="z32540c12"><path d="M 514 768 Q 493 828 362 917 Q 340 929 367 929 Q 436 929 539 842 Q 567 820 581 809 Q 591 799 591 790 Q 590 777 565 766 Q 538 753 526 755 Q 519 756 514 768 Z"/></clipPath>
    <clipPath id="z32540c13"><path d="M 698 769 Q 752 827 815 913 Q 828 935 844 941 Q 853 942 861 934 Q 874 921 867 876 Q 860 819 703 737 Q 694 731 691 744 Q 690 757 698 769 Z"/></clipPath>
</defs>
<g id="bg-layer">
    <path class="bg" d="M 306 424 Q 263 424 225 424 Q 189 425 207 403 Q 270 291 330 207 Q 343 189 341 182 Q 338 167 298 138 Q 282 125 263 129 Q 253 133 259 148 Q 280 196 184 370 Q 168 392 143 417 Q 125 432 127 444 Q 131 463 146 480 Q 156 490 169 483 Q 193 470 275 452 Q 281 451 287 451 C 298 451 317 424 306 424 Z"/>
    <path class="bg" d="M 287 451 Q 194 580 174 590 Q 161 600 164 614 Q 165 627 193 647 Q 203 659 219 646 Q 279 600 358 570 Q 377 564 379 555 Q 382 545 361 549 Q 318 556 263 573 Q 236 583 253 560 Q 289 509 374 406 Q 402 366 427 344 Q 440 334 433 324 Q 423 305 387 285 Q 371 276 361 279 Q 351 283 353 299 Q 356 342 306 424 C 293 442 293 442 287 451 Z"/>
    <path class="bg" d="M 102 763 Q 89 767 89 777 Q 89 790 100 795 Q 124 807 158 819 Q 168 820 178 810 Q 202 782 345 686 Q 364 673 379 657 Q 389 648 388 639 Q 382 635 371 640 Q 145 757 102 763 Z"/>
    <path class="bg" d="M 645 251 Q 711 236 782 224 Q 834 214 842 206 Q 851 199 847 191 Q 840 181 814 173 Q 786 166 759 177 Q 705 193 652 208 C 618 215 618 215 601 219 Q 541 229 477 234 Q 443 238 467 255 Q 501 276 570 264 Q 583 261 600 259 C 630 254 630 254 645 251 Z"/>
    <path class="bg" d="M 633 327 Q 639 287 645 251 C 650 222 650 222 652 208 Q 658 154 667 129 Q 679 101 662 86 Q 632 67 611 62 Q 598 58 590 65 Q 583 72 589 85 Q 602 107 602 121 Q 603 167 601 219 C 600 246 600 246 600 259 Q 597 295 594 335 C 594 348 630 340 633 327 Z"/>
    <path class="bg" d="M 524 339 Q 514 332 504 327 Q 494 324 486 328 Q 479 332 482 341 Q 497 371 501 449 Q 501 516 505 685 C 505 698 544 694 544 681 Q 544 653 544 625 C 544 610 544 610 544 603 Q 544 575 544 548 C 544 534 544 534 544 527 Q 544 493 545 463 C 545 450 545 450 545 443 Q 545 383 549 370 C 552 357 535 347 524 339 Z"/>
    <path class="bg" d="M 780 650 Q 781 401 802 371 Q 814 358 802 342 Q 793 332 748 305 Q 735 295 714 305 Q 680 315 633 327 C 607 332 607 332 594 335 Q 561 338 524 339 C 511 339 536 373 549 370 Q 553 369 559 368 Q 661 346 702 344 Q 718 341 724 348 Q 730 360 732 657 C 732 673 780 666 780 650 Z"/>
    <path class="bg" d="M 545 463 Q 552 464 564 463 Q 639 447 694 437 Q 713 433 705 422 Q 695 410 675 408 Q 651 407 545 443 C 539 445 538 463 545 463 Z"/>
    <path class="bg" d="M 544 548 Q 550 549 558 548 Q 637 533 697 524 Q 716 521 709 510 Q 700 498 679 495 Q 655 492 544 527 C 538 530 537 548 544 548 Z"/>
    <path class="bg" d="M 544 625 Q 548 626 557 625 Q 636 615 696 608 Q 715 605 709 594 Q 700 582 679 577 Q 652 573 544 603 C 537 605 537 625 544 625 Z"/>
    <path class="bg" d="M 505 685 Q 444 691 380 699 Q 361 700 375 717 Q 388 730 405 736 Q 426 742 441 738 Q 595 696 896 697 Q 912 697 930 698 Q 949 699 954 690 Q 960 680 944 666 Q 890 624 834 639 Q 809 643 780 650 C 748 655 748 655 732 657 Q 690 661 643 669 Q 595 673 544 681 C 518 684 518 684 505 685 Z"/>
    <path class="bg" d="M 514 768 Q 493 828 362 917 Q 340 929 367 929 Q 436 929 539 842 Q 567 820 581 809 Q 591 799 591 790 Q 590 777 565 766 Q 538 753 526 755 Q 519 756 514 768 Z"/>
    <path class="bg" d="M 698 769 Q 752 827 815 913 Q 828 935 844 941 Q 853 942 861 934 Q 874 921 867 876 Q 860 819 703 737 Q 694 731 691 744 Q 690 757 698 769 Z"/>
</g>
<g id="anim-layer">
    <path style="--d:1s; stroke:#FF4444;" pathLength="3333" clip-path="url(#z32540c1)" d="M 266 134 L 301 188 L 165 431 L 178 452 L 301 432"/>
    <path style="--d:2s; stroke:#FF4444;" pathLength="3333" clip-path="url(#z32540c2)" d="M 362 285 L 392 333 L 208 592 L 231 613 L 375 555"/>
    <path style="--d:3s; stroke:#FF4444;" pathLength="3333" clip-path="url(#z32540c3)" d="M 92 773 L 164 780 L 379 641"/>
    <path style="--d:4s; stroke:#000;" pathLength="3333" clip-path="url(#z32540c4)" d="M 466 244 L 844 198"/>
    <path style="--d:5s; stroke:#000;" pathLength="3333" clip-path="url(#z32540c5)" d="M 593 65 L 636 110 L 607 337"/>
    <path style="--d:6s; stroke:#000;" pathLength="3333" clip-path="url(#z32540c6)" d="M 490 332 L 521 376 L 522 691"/>
    <path style="--d:7s; stroke:#000;" pathLength="3333" clip-path="url(#z32540c7)" d="M 526 344 L 718 322 L 760 347 L 753 664"/>
    <path style="--d:8s; stroke:#000;" pathLength="3333" clip-path="url(#z32540c8)" d="M 546 455 L 698 426"/>
    <path style="--d:9s; stroke:#000;" pathLength="3333" clip-path="url(#z32540c9)" d="M 547 540 L 704 512"/>
    <path style="--d:10s; stroke:#000;" pathLength="3333" clip-path="url(#z32540c10)" d="M 542 614 L 705 599"/>
    <path style="--d:11s; stroke:#000;" pathLength="3333" clip-path="url(#z32540c11)" d="M 375 705 L 432 716 L 849 666 L 952 681"/>
    <path style="--d:12s; stroke:#000;" pathLength="3333" clip-path="url(#z32540c12)" d="M 527 757 L 545 796 L 439 887 L 361 924"/>
    <path style="--d:13s; stroke:#000;" pathLength="3333" clip-path="url(#z32540c13)" d="M 699 741 L 821 861 L 852 936"/>
</g>
</svg>