<svg id="z32543" class="acjk" viewBox="0 0 1024 1024" xmlns="http://www.w3.org/2000/svg">

<style>
<![CDATA[
@keyframes zk { to { stroke-dashoffset:0; } }
svg.acjk path[clip-path] {
    --t:0.8s;
    animation:zk var(--t) linear forwards var(--d);
    stroke-dasharray:3337;
    stroke-dashoffset:3339;
    stroke-width:128;
    stroke-linecap:round;
    fill:none;
}
/* Low opacity for background improves visual overlap at intersections */
svg.acjk .bg { fill:#ccc; opacity: 0.5; } 
]]>
</style>
<defs>
    <clipPath id="z32543c1"><path d="M 305 400 Q 259 400 221 400 Q 187 401 204 380 Q 270 265 333 179 Q 346 161 344 154 Q 343 139 302 109 Q 286 96 268 100 Q 256 104 263 119 Q 282 162 182 346 Q 164 368 139 393 Q 121 408 123 420 Q 127 438 142 456 Q 152 466 165 459 Q 187 446 267 428 Q 277 427 287 426 C 297 424 316 400 305 400 Z"/></clipPath>
    <clipPath id="z32543c2"><path d="M 287 426 Q 193 558 174 567 Q 161 576 164 590 Q 165 603 192 622 Q 202 634 217 622 Q 278 580 374 548 Q 393 544 395 535 Q 398 525 378 528 Q 326 535 262 553 Q 229 566 250 538 Q 290 478 384 358 Q 411 321 435 298 Q 447 288 440 278 Q 430 260 396 242 Q 380 233 371 237 Q 361 240 364 255 Q 367 300 307 398 Q 306 398 305 400 C 293 417 293 417 287 426 Z"/></clipPath>
    <clipPath id="z32543c3"><path d="M 114 763 Q 101 767 101 777 Q 101 790 112 795 Q 136 807 170 819 Q 180 820 190 810 Q 209 786 340 695 Q 359 683 371 669 Q 381 660 380 651 Q 374 647 363 652 Q 162 757 114 763 Z"/></clipPath>
    <clipPath id="z32543c4"><path d="M 591 120 Q 619 139 650 163 Q 665 173 679 171 Q 689 170 693 156 Q 696 141 684 114 Q 671 87 580 75 Q 565 74 560 77 Q 556 81 558 93 Q 562 103 591 120 Z"/></clipPath>
    <clipPath id="z32543c5"><path d="M 494 244 Q 458 250 483 266 Q 519 291 577 278 Q 671 262 767 243 Q 812 233 818 227 Q 827 220 823 212 Q 816 200 788 192 Q 760 186 730 197 Q 679 213 625 226 Q 564 239 494 244 Z"/></clipPath>
    <clipPath id="z32543c6"><path d="M 546 353 Q 536 347 506 345 Q 496 344 492 348 Q 488 354 496 367 Q 518 404 536 465 Q 540 484 553 495 Q 569 513 574 499 Q 575 492 576 480 C 573 461 573 461 571 451 Q 561 399 558 380 C 556 370 555 357 546 353 Z"/></clipPath>
    <clipPath id="z32543c7"><path d="M 744 430 Q 765 385 785 373 Q 800 357 787 342 Q 774 332 729 310 Q 713 303 695 310 Q 644 332 546 353 C 536 355 548 382 558 380 Q 561 379 685 352 Q 700 348 706 355 Q 712 361 699 425 C 696 440 738 444 744 430 Z"/></clipPath>
    <clipPath id="z32543c8"><path d="M 576 480 Q 582 480 589 479 Q 641 467 753 458 Q 763 457 764 450 Q 764 443 744 430 C 732 421 714 422 699 425 Q 698 425 697 425 Q 627 441 571 451 C 561 453 566 480 576 480 Z"/></clipPath>
    <clipPath id="z32543c9"><path d="M 460 574 Q 438 564 422 565 Q 410 569 416 579 Q 449 642 426 766 Q 407 826 437 857 Q 444 869 452 863 Q 479 844 479 706 Q 479 637 481 613 C 481 598 474 579 460 574 Z"/></clipPath>
    <clipPath id="z32543c10"><path d="M 481 613 Q 488 612 497 609 Q 611 564 795 550 Q 816 551 824 562 Q 831 571 827 585 Q 833 778 821 808 Q 818 815 808 812 Q 781 808 752 802 Q 724 798 743 817 Q 809 869 835 908 Q 848 923 861 911 Q 877 892 885 864 Q 895 834 888 672 Q 885 611 902 581 Q 917 560 910 553 Q 903 540 852 509 Q 833 496 818 502 Q 790 514 739 524 Q 585 543 526 560 Q 489 569 460 574 C 445 576 467 616 481 613 Z"/></clipPath>
    <clipPath id="z32543c11"><path d="M 568 647 Q 559 643 542 640 Q 533 637 530 641 Q 526 645 531 658 Q 550 697 560 759 Q 561 778 572 791 Q 585 807 589 796 Q 593 787 592 771 C 590 752 590 752 589 743 Q 582 688 581 670 C 581 661 576 650 568 647 Z"/></clipPath>
    <clipPath id="z32543c12"><path d="M 726 728 Q 741 680 758 667 Q 777 645 758 633 Q 742 623 720 609 Q 704 599 662 622 Q 616 637 568 647 C 559 648 573 673 581 670 Q 588 667 665 650 Q 687 646 694 654 Q 698 658 693 681 Q 689 699 683 720 C 680 734 721 742 726 728 Z"/></clipPath>
    <clipPath id="z32543c13"><path d="M 592 771 Q 598 771 605 770 Q 645 761 734 754 Q 743 753 744 746 Q 744 740 726 728 C 715 719 697 717 683 720 Q 679 720 677 721 Q 628 734 589 743 C 580 745 583 771 592 771 Z"/></clipPath>
</defs>
<g id="bg-layer">
    <path class="bg" d="M 305 400 Q 259 400 221 400 Q 187 401 204 380 Q 270 265 333 179 Q 346 161 344 154 Q 343 139 302 109 Q 286 96 268 100 Q 256 104 263 119 Q 282 162 182 346 Q 164 368 139 393 Q 121 408 123 420 Q 127 438 142 456 Q 152 466 165 459 Q 187 446 267 428 Q 277 427 287 426 C 297 424 316 400 305 400 Z"/>
    <path class="bg" d="M 287 426 Q 193 558 174 567 Q 161 576 164 590 Q 165 603 192 622 Q 202 634 217 622 Q 278 580 374 548 Q 393 544 395 535 Q 398 525 378 528 Q 326 535 262 553 Q 229 566 250 538 Q 290 478 384 358 Q 411 321 435 298 Q 447 288 440 278 Q 430 260 396 242 Q 380 233 371 237 Q 361 240 364 255 Q 367 300 307 398 Q 306 398 305 400 C 293 417 293 417 287 426 Z"/>
    <path class="bg" d="M 114 763 Q 101 767 101 777 Q 101 790 112 795 Q 136 807 170 819 Q 180 820 190 810 Q 209 786 340 695 Q 359 683 371 669 Q 381 660 380 651 Q 374 647 363 652 Q 162 757 114 763 Z"/>
    <path class="bg" d="M 591 120 Q 619 139 650 163 Q 665 173 679 171 Q 689 170 693 156 Q 696 141 684 114 Q 671 87 580 75 Q 565 74 560 77 Q 556 81 558 93 Q 562 103 591 120 Z"/>
    <path class="bg" d="M 494 244 Q 458 250 483 266 Q 519 291 577 278 Q 671 262 767 243 Q 812 233 818 227 Q 827 220 823 212 Q 816 200 788 192 Q 760 186 730 197 Q 679 213 625 226 Q 564 239 494 244 Z"/>
    <path class="bg" d="M 546 353 Q 536 347 506 345 Q 496 344 492 348 Q 488 354 496 367 Q 518 404 536 465 Q 540 484 553 495 Q 569 513 574 499 Q 575 492 576 480 C 573 461 573 461 571 451 Q 561 399 558 380 C 556 370 555 357 546 353 Z"/>
    <path class="bg" d="M 744 430 Q 765 385 785 373 Q 800 357 787 342 Q 774 332 729 310 Q 713 303 695 310 Q 644 332 546 353 C 536 355 548 382 558 380 Q 561 379 685 352 Q 700 348 706 355 Q 712 361 699 425 C 696 440 738 444 744 430 Z"/>
    <path class="bg" d="M 576 480 Q 582 480 589 479 Q 641 467 753 458 Q 763 457 764 450 Q 764 443 744 430 C 732 421 714 422 699 425 Q 698 425 697 425 Q 627 441 571 451 C 561 453 566 480 576 480 Z"/>
    <path class="bg" d="M 460 574 Q 438 564 422 565 Q 410 569 416 579 Q 449 642 426 766 Q 407 826 437 857 Q 444 869 452 863 Q 479 844 479 706 Q 479 637 481 613 C 481 598 474 579 460 574 Z"/>
    <path class="bg" d="M 481 613 Q 488 612 497 609 Q 611 564 795 550 Q 816 551 824 562 Q 831 571 827 585 Q 833 778 821 808 Q 818 815 808 812 Q 781 808 752 802 Q 724 798 743 817 Q 809 869 835 908 Q 848 923 861 911 Q 877 892 885 864 Q 895 834 888 672 Q 885 611 902 581 Q 917 560 910 553 Q 903 540 852 509 Q 833 496 818 502 Q 790 514 739 524 Q 585 543 526 560 Q 489 569 460 574 C 445 576 467 616 481 613 Z"/>
    <path class="bg" d="M 568 647 Q 559 643 542 640 Q 533 637 530 641 Q 526 645 531 658 Q 550 697 560 759 Q 561 778 572 791 Q 585 807 589 796 Q 593 787 592 771 C 590 752 590 752 589 743 Q 582 688 581 670 C 581 661 576 650 568 647 Z"/>
    <path class="bg" d="M 726 728 Q 741 680 758 667 Q 777 645 758 633 Q 742 623 720 609 Q 704 599 662 622 Q 616 637 568 647 C 559 648 573 673 581 670 Q 588 667 665 650 Q 687 646 694 654 Q 698 658 693 681 Q 689 699 683 720 C 680 734 721 742 726 728 Z"/>
    <path class="bg" d="M 592 771 Q 598 771 605 770 Q 645 761 734 754 Q 743 753 744 746 Q 744 740 726 728 C 715 719 697 717 683 720 Q 679 720 677 721 Q 628 734 589 743 C 580 745 583 771 592 771 Z"/>
</g>
<g id="anim-layer">
    <path style="--d:1s; stroke:#FF4444;" pathLength="3333" clip-path="url(#z32543c1)" d="M 269 106 L 302 163 L 164 410 L 179 430 L 297 406"/>
    <path style="--d:2s; stroke:#FF4444;" pathLength="3333" clip-path="url(#z32543c2)" d="M 371 243 L 401 289 L 208 570 L 227 592 L 387 536"/>
    <path style="--d:3s; stroke:#FF4444;" pathLength="3333" clip-path="url(#z32543c3)" d="M 108 777 L 173 781 L 373 657"/>
    <path style="--d:4s; stroke:#000;" pathLength="3333" clip-path="url(#z32543c4)" d="M 565 84 L 645 120 L 685 165"/>
    <path style="--d:5s; stroke:#000;" pathLength="3333" clip-path="url(#z32543c5)" d="M 481 253 L 551 260 L 820 214"/>
    <path style="--d:6s; stroke:#000;" pathLength="3333" clip-path="url(#z32543c6)" d="M 500 355 L 531 379 L 568 497"/>
    <path style="--d:7s; stroke:#000;" pathLength="3333" clip-path="url(#z32543c7)" d="M 554 358 L 714 330 L 750 365 L 717 426"/>
    <path style="--d:8s; stroke:#000;" pathLength="3333" clip-path="url(#z32543c8)" d="M 579 457 L 758 447"/>
    <path style="--d:9s; stroke:#000;" pathLength="3333" clip-path="url(#z32543c9)" d="M 422 573 L 455 617 L 446 859"/>
    <path style="--d:10s; stroke:#000;" pathLength="3333" clip-path="url(#z32543c10)" d="M 471 579 L 811 527 L 858 549 L 850 844 L 828 864 L 744 810"/>
    <path style="--d:11s; stroke:#000;" pathLength="3333" clip-path="url(#z32543c11)" d="M 537 647 L 564 687 L 582 794"/>
    <path style="--d:12s; stroke:#000;" pathLength="3333" clip-path="url(#z32543c12)" d="M 576 649 L 709 632 L 731 658 L 697 722"/>
    <path style="--d:13s; stroke:#000;" pathLength="3333" clip-path="url(#z32543c13)" d="M 598 764 L 739 745"/>
</g>
</svg>