<svg id="z32641" class="acjk" viewBox="0 0 1024 1024" xmlns="http://www.w3.org/2000/svg">

<style>
<![CDATA[
@keyframes zk { to { stroke-dashoffset:0; } }
svg.acjk path[clip-path] {
    --t:0.8s;
    animation:zk var(--t) linear forwards var(--d);
    stroke-dasharray:3337;
    stroke-dashoffset:3339;
    stroke-width:128;
    stroke-linecap:round;
    fill:none;
}
/* Low opacity for background improves visual overlap at intersections */
svg.acjk .bg { fill:#ccc; opacity: 0.5; } 
]]>
</style>
<defs>
    <clipPath id="z32641c1"><path d="M 313 141 Q 301 137 273 133 Q 261 130 259 135 Q 253 142 262 156 Q 287 199 306 274 Q 310 296 324 310 Q 342 329 346 315 Q 347 309 348 303 C 350 294 347 285 346 276 Q 346 275 328 175 C 326 163 325 143 313 141 Z"/></clipPath>
    <clipPath id="z32641c2"><path d="M 664 264 Q 668 276 679 276 Q 694 275 724 231 Q 742 185 776 159 Q 795 146 780 130 Q 764 114 720 87 Q 707 78 624 94 Q 605 94 313 141 C 301 143 316 180 328 175 Q 327 174 329 174 Q 366 162 425 153 C 438 150 438 150 445 149 Q 484 143 539 137 C 562 132 562 132 574 130 Q 671 115 692 127 Q 696 131 693 149 Q 675 212 665 235 C 661 244 660 255 664 264 Z"/></clipPath>
    <clipPath id="z32641c3"><path d="M 468 258 Q 468 257 469 256 Q 473 198 447 151 Q 446 150 445 149 C 442 143 425 146 425 153 Q 432 237 437 245 Q 441 254 447 261 C 451 267 467 265 468 258 Z"/></clipPath>
    <clipPath id="z32641c4"><path d="M 556 243 Q 562 234 584 189 Q 588 180 596 168 Q 606 158 599 150 Q 592 140 574 130 C 564 124 535 126 539 137 Q 548 155 536 229 Q 532 239 532 247 C 532 255 551 249 556 243 Z"/></clipPath>
    <clipPath id="z32641c5"><path d="M 426 296 Q 558 274 664 264 C 674 264 674 238 665 235 Q 661 234 656 232 Q 632 226 556 243 C 540 246 540 246 532 247 Q 499 251 468 258 C 454 260 454 260 447 261 Q 393 267 346 276 C 337 278 339 303 348 303 Q 349 303 408 298 C 420 297 420 297 426 296 Z"/></clipPath>
    <clipPath id="z32641c6"><path d="M 449 396 Q 524 387 529 380 Q 530 371 513 363 Q 489 348 468 354 Q 464 355 462 356 C 428 364 428 364 411 368 Q 360 377 314 389 C 285 393 285 393 270 395 Q 251 396 171 406 Q 149 409 166 422 Q 190 441 225 434 Q 249 428 278 424 C 303 420 303 420 315 418 Q 358 408 408 401 C 435 398 435 398 449 396 Z"/></clipPath>
    <clipPath id="z32641c7"><path d="M 314 389 Q 314 370 315 362 Q 319 347 308 340 Q 296 333 274 327 Q 258 323 243 333 Q 236 340 248 349 Q 258 365 270 395 C 275 414 275 414 278 424 Q 279 430 281 437 Q 294 503 303 517 Q 309 524 315 518 Q 316 514 318 506 C 319 490 319 490 319 482 Q 319 454 315 418 C 314 399 314 399 314 389 Z"/></clipPath>
    <clipPath id="z32641c8"><path d="M 429 465 Q 439 428 449 396 C 458 369 458 369 462 356 Q 463 350 472 338 Q 475 331 464 318 Q 443 303 426 296 C 420 294 410 292 408 298 Q 404 302 408 312 Q 414 322 411 368 C 409 390 409 390 408 401 Q 404 429 399 462 C 397 472 427 475 429 465 Z"/></clipPath>
    <clipPath id="z32641c9"><path d="M 355 502 Q 386 495 440 490 Q 447 489 448 483 Q 448 477 429 465 C 421 459 409 462 399 462 Q 395 461 391 463 Q 351 475 319 482 C 311 484 310 506 318 506 Q 322 506 327 506 C 346 503 346 503 355 502 Z"/></clipPath>
    <clipPath id="z32641c10"><path d="M 236 580 Q 226 576 199 573 Q 189 572 186 576 Q 182 582 190 594 Q 209 625 227 681 Q 231 697 242 707 Q 258 725 261 711 Q 262 707 263 700 C 264 691 262 683 260 674 Q 250 622 247 604 C 245 595 244 583 236 580 Z"/></clipPath>
    <clipPath id="z32641c11"><path d="M 476 637 Q 497 595 517 585 Q 530 572 519 558 Q 507 548 468 528 Q 456 521 379 549 C 351 556 351 556 337 560 Q 286 570 236 580 C 227 581 238 605 247 604 Q 295 592 338 584 C 364 579 364 579 377 576 Q 398 570 419 566 Q 440 560 448 569 Q 452 573 451 585 Q 444 615 434 640 C 429 653 470 650 476 637 Z"/></clipPath>
    <clipPath id="z32641c12"><path d="M 373 682 Q 422 675 494 668 Q 503 667 504 660 Q 504 654 480 638 Q 479 637 476 637 C 463 632 448 638 434 640 Q 403 646 373 654 C 348 659 348 659 336 661 Q 296 668 260 674 C 251 675 254 700 263 700 Q 269 700 277 699 Q 299 693 334 688 C 360 684 360 684 373 682 Z"/></clipPath>
    <clipPath id="z32641c13"><path d="M 371 778 Q 411 768 459 761 Q 472 760 474 753 Q 475 741 459 734 Q 432 722 371 741 C 343 748 343 748 329 751 Q 229 773 139 787 Q 129 788 126 795 Q 123 804 136 813 Q 172 837 205 824 Q 274 800 320 789 Q 321 788 325 788 C 356 781 356 781 371 778 Z"/></clipPath>
    <clipPath id="z32641c14"><path d="M 371 741 Q 371 710 373 682 C 373 663 373 663 373 654 Q 373 650 374 647 Q 375 604 377 576 C 378 558 378 558 379 549 Q 380 542 382 535 Q 383 525 378 520 Q 365 508 355 502 C 347 497 322 498 327 506 Q 336 521 337 560 C 338 576 338 576 338 584 Q 338 617 336 661 C 335 679 335 679 334 688 Q 331 722 329 751 C 326 776 326 776 325 788 Q 324 798 323 810 Q 322 832 317 844 Q 308 871 336 915 Q 345 931 351 934 Q 360 935 364 925 Q 374 900 372 875 Q 371 824 371 778 C 371 753 371 753 371 741 Z"/></clipPath>
    <clipPath id="z32641c15"><path d="M 724 586 Q 745 520 751 493 Q 757 418 797 378 Q 813 362 797 349 Q 779 334 732 315 Q 717 308 675 323 Q 644 329 617 340 Q 592 349 574 352 Q 559 353 557 358 Q 554 362 570 372 Q 601 385 619 378 Q 641 369 693 359 Q 702 358 705 359 Q 717 365 713 399 Q 701 526 692 552 Q 686 576 699 591 C 704 598 721 594 724 586 Z"/></clipPath>
    <clipPath id="z32641c16"><path d="M 699 591 Q 668 595 629 603 Q 610 607 609 589 Q 612 490 626 461 Q 632 446 626 436 Q 611 420 588 409 Q 572 402 564 410 Q 558 414 565 425 Q 577 461 561 594 Q 558 603 556 614 Q 550 633 564 646 Q 582 661 601 648 Q 646 618 801 605 Q 829 596 849 614 Q 859 624 847 660 Q 840 712 828 766 Q 821 808 800 834 Q 790 844 767 839 Q 736 830 709 823 Q 694 819 695 825 Q 695 829 703 838 Q 752 887 771 921 Q 778 940 795 931 Q 852 901 864 845 Q 883 770 896 686 Q 903 653 921 626 Q 933 613 922 601 Q 907 582 875 563 Q 856 553 831 563 Q 816 567 724 586 C 707 589 707 589 699 591 Z"/></clipPath>
    <clipPath id="z32641c17"><path d="M 671 749 Q 749 742 792 745 Q 811 746 814 738 Q 820 728 809 719 Q 754 677 697 696 Q 685 697 674 701 Q 517 725 509 726 Q 499 727 498 736 Q 499 746 515 756 Q 528 765 554 772 Q 563 773 576 766 Q 618 756 671 749 Z"/></clipPath>
</defs>
<g id="bg-layer">
    <path class="bg" d="M 313 141 Q 301 137 273 133 Q 261 130 259 135 Q 253 142 262 156 Q 287 199 306 274 Q 310 296 324 310 Q 342 329 346 315 Q 347 309 348 303 C 350 294 347 285 346 276 Q 346 275 328 175 C 326 163 325 143 313 141 Z"/>
    <path class="bg" d="M 664 264 Q 668 276 679 276 Q 694 275 724 231 Q 742 185 776 159 Q 795 146 780 130 Q 764 114 720 87 Q 707 78 624 94 Q 605 94 313 141 C 301 143 316 180 328 175 Q 327 174 329 174 Q 366 162 425 153 C 438 150 438 150 445 149 Q 484 143 539 137 C 562 132 562 132 574 130 Q 671 115 692 127 Q 696 131 693 149 Q 675 212 665 235 C 661 244 660 255 664 264 Z"/>
    <path class="bg" d="M 468 258 Q 468 257 469 256 Q 473 198 447 151 Q 446 150 445 149 C 442 143 425 146 425 153 Q 432 237 437 245 Q 441 254 447 261 C 451 267 467 265 468 258 Z"/>
    <path class="bg" d="M 556 243 Q 562 234 584 189 Q 588 180 596 168 Q 606 158 599 150 Q 592 140 574 130 C 564 124 535 126 539 137 Q 548 155 536 229 Q 532 239 532 247 C 532 255 551 249 556 243 Z"/>
    <path class="bg" d="M 426 296 Q 558 274 664 264 C 674 264 674 238 665 235 Q 661 234 656 232 Q 632 226 556 243 C 540 246 540 246 532 247 Q 499 251 468 258 C 454 260 454 260 447 261 Q 393 267 346 276 C 337 278 339 303 348 303 Q 349 303 408 298 C 420 297 420 297 426 296 Z"/>
    <path class="bg" d="M 449 396 Q 524 387 529 380 Q 530 371 513 363 Q 489 348 468 354 Q 464 355 462 356 C 428 364 428 364 411 368 Q 360 377 314 389 C 285 393 285 393 270 395 Q 251 396 171 406 Q 149 409 166 422 Q 190 441 225 434 Q 249 428 278 424 C 303 420 303 420 315 418 Q 358 408 408 401 C 435 398 435 398 449 396 Z"/>
    <path class="bg" d="M 314 389 Q 314 370 315 362 Q 319 347 308 340 Q 296 333 274 327 Q 258 323 243 333 Q 236 340 248 349 Q 258 365 270 395 C 275 414 275 414 278 424 Q 279 430 281 437 Q 294 503 303 517 Q 309 524 315 518 Q 316 514 318 506 C 319 490 319 490 319 482 Q 319 454 315 418 C 314 399 314 399 314 389 Z"/>
    <path class="bg" d="M 429 465 Q 439 428 449 396 C 458 369 458 369 462 356 Q 463 350 472 338 Q 475 331 464 318 Q 443 303 426 296 C 420 294 410 292 408 298 Q 404 302 408 312 Q 414 322 411 368 C 409 390 409 390 408 401 Q 404 429 399 462 C 397 472 427 475 429 465 Z"/>
    <path class="bg" d="M 355 502 Q 386 495 440 490 Q 447 489 448 483 Q 448 477 429 465 C 421 459 409 462 399 462 Q 395 461 391 463 Q 351 475 319 482 C 311 484 310 506 318 506 Q 322 506 327 506 C 346 503 346 503 355 502 Z"/>
    <path class="bg" d="M 236 580 Q 226 576 199 573 Q 189 572 186 576 Q 182 582 190 594 Q 209 625 227 681 Q 231 697 242 707 Q 258 725 261 711 Q 262 707 263 700 C 264 691 262 683 260 674 Q 250 622 247 604 C 245 595 244 583 236 580 Z"/>
    <path class="bg" d="M 476 637 Q 497 595 517 585 Q 530 572 519 558 Q 507 548 468 528 Q 456 521 379 549 C 351 556 351 556 337 560 Q 286 570 236 580 C 227 581 238 605 247 604 Q 295 592 338 584 C 364 579 364 579 377 576 Q 398 570 419 566 Q 440 560 448 569 Q 452 573 451 585 Q 444 615 434 640 C 429 653 470 650 476 637 Z"/>
    <path class="bg" d="M 373 682 Q 422 675 494 668 Q 503 667 504 660 Q 504 654 480 638 Q 479 637 476 637 C 463 632 448 638 434 640 Q 403 646 373 654 C 348 659 348 659 336 661 Q 296 668 260 674 C 251 675 254 700 263 700 Q 269 700 277 699 Q 299 693 334 688 C 360 684 360 684 373 682 Z"/>
    <path class="bg" d="M 371 778 Q 411 768 459 761 Q 472 760 474 753 Q 475 741 459 734 Q 432 722 371 741 C 343 748 343 748 329 751 Q 229 773 139 787 Q 129 788 126 795 Q 123 804 136 813 Q 172 837 205 824 Q 274 800 320 789 Q 321 788 325 788 C 356 781 356 781 371 778 Z"/>
    <path class="bg" d="M 371 741 Q 371 710 373 682 C 373 663 373 663 373 654 Q 373 650 374 647 Q 375 604 377 576 C 378 558 378 558 379 549 Q 380 542 382 535 Q 383 525 378 520 Q 365 508 355 502 C 347 497 322 498 327 506 Q 336 521 337 560 C 338 576 338 576 338 584 Q 338 617 336 661 C 335 679 335 679 334 688 Q 331 722 329 751 C 326 776 326 776 325 788 Q 324 798 323 810 Q 322 832 317 844 Q 308 871 336 915 Q 345 931 351 934 Q 360 935 364 925 Q 374 900 372 875 Q 371 824 371 778 C 371 753 371 753 371 741 Z"/>
    <path class="bg" d="M 724 586 Q 745 520 751 493 Q 757 418 797 378 Q 813 362 797 349 Q 779 334 732 315 Q 717 308 675 323 Q 644 329 617 340 Q 592 349 574 352 Q 559 353 557 358 Q 554 362 570 372 Q 601 385 619 378 Q 641 369 693 359 Q 702 358 705 359 Q 717 365 713 399 Q 701 526 692 552 Q 686 576 699 591 C 704 598 721 594 724 586 Z"/>
    <path class="bg" d="M 699 591 Q 668 595 629 603 Q 610 607 609 589 Q 612 490 626 461 Q 632 446 626 436 Q 611 420 588 409 Q 572 402 564 410 Q 558 414 565 425 Q 577 461 561 594 Q 558 603 556 614 Q 550 633 564 646 Q 582 661 601 648 Q 646 618 801 605 Q 829 596 849 614 Q 859 624 847 660 Q 840 712 828 766 Q 821 808 800 834 Q 790 844 767 839 Q 736 830 709 823 Q 694 819 695 825 Q 695 829 703 838 Q 752 887 771 921 Q 778 940 795 931 Q 852 901 864 845 Q 883 770 896 686 Q 903 653 921 626 Q 933 613 922 601 Q 907 582 875 563 Q 856 553 831 563 Q 816 567 724 586 C 707 589 707 589 699 591 Z"/>
    <path class="bg" d="M 671 749 Q 749 742 792 745 Q 811 746 814 738 Q 820 728 809 719 Q 754 677 697 696 Q 685 697 674 701 Q 517 725 509 726 Q 499 727 498 736 Q 499 746 515 756 Q 528 765 554 772 Q 563 773 576 766 Q 618 756 671 749 Z"/>
</g>
<g id="anim-layer">
    <path style="--d:1s; stroke:#FF4444;" pathLength="3333" clip-path="url(#z32641c1)" d="M 264 138 L 305 186 L 336 316"/>
    <path style="--d:2s; stroke:#FF4444;" pathLength="3333" clip-path="url(#z32641c2)" d="M 321 144 L 706 108 L 739 148 L 672 269"/>
    <path style="--d:3s; stroke:#FF4444;" pathLength="3333" clip-path="url(#z32641c3)" d="M 439 154 L 458 254"/>
    <path style="--d:4s; stroke:#FF4444;" pathLength="3333" clip-path="url(#z32641c4)" d="M 548 141 L 571 173 L 542 242"/>
    <path style="--d:5s; stroke:#FF4444;" pathLength="3333" clip-path="url(#z32641c5)" d="M 352 296 L 664 249"/>
    <path style="--d:6s; stroke:#000;" pathLength="3333" clip-path="url(#z32641c6)" d="M 168 414 L 522 378"/>
    <path style="--d:7s; stroke:#000;" pathLength="3333" clip-path="url(#z32641c7)" d="M 247 336 L 287 360 L 308 512"/>
    <path style="--d:8s; stroke:#000;" pathLength="3333" clip-path="url(#z32641c8)" d="M 415 301 L 442 338 L 415 463"/>
    <path style="--d:9s; stroke:#000;" pathLength="3333" clip-path="url(#z32641c9)" d="M 322 499 L 442 482"/>
    <path style="--d:10s; stroke:#000;" pathLength="3333" clip-path="url(#z32641c10)" d="M 193 581 L 225 611 L 251 710"/>
    <path style="--d:11s; stroke:#000;" pathLength="3333" clip-path="url(#z32641c11)" d="M 245 583 L 452 546 L 487 570 L 442 635"/>
    <path style="--d:12s; stroke:#000;" pathLength="3333" clip-path="url(#z32641c12)" d="M 267 681 L 498 661"/>
    <path style="--d:13s; stroke:#000;" pathLength="3333" clip-path="url(#z32641c13)" d="M 132 798 L 469 748"/>
    <path style="--d:14s; stroke:#000;" pathLength="3333" clip-path="url(#z32641c14)" d="M 335 510 L 359 542 L 351 929"/>
    <path style="--d:15s; stroke:#000;" pathLength="3333" clip-path="url(#z32641c15)" d="M 565 360 L 701 337 L 757 370 L 710 588"/>
    <path style="--d:16s; stroke:#000;" pathLength="3333" clip-path="url(#z32641c16)" d="M 570 413 L 599 451 L 592 625 L 831 582 L 888 613 L 813 871 L 774 884 L 703 829"/>
    <path style="--d:17s; stroke:#000;" pathLength="3333" clip-path="url(#z32641c17)" d="M 504 734 L 551 745 L 744 717 L 810 735"/>
</g>
</svg>