<svg id="z32681" class="acjk" viewBox="0 0 1024 1024" xmlns="http://www.w3.org/2000/svg">

<style>
<![CDATA[
@keyframes zk { to { stroke-dashoffset:0; } }
svg.acjk path[clip-path] {
    --t:0.8s;
    animation:zk var(--t) linear forwards var(--d);
    stroke-dasharray:3337;
    stroke-dashoffset:3339;
    stroke-width:128;
    stroke-linecap:round;
    fill:none;
}
/* Low opacity for background improves visual overlap at intersections */
svg.acjk .bg { fill:#ccc; opacity: 0.5; } 
]]>
</style>
<defs>
    <clipPath id="z32681c1"><path d="M 382 104 C 395 115 407 129 422 144 C 429 152 438 155 447 155 C 453 154 458 151 461 143 C 463 134 462 121 458 105 C 453 90 427 75 379 62 C 370 59 363 58 360 61 C 356 62 355 68 357 76 C 358 82 367 91 382 104 Z"/></clipPath>
    <clipPath id="z32681c2"><path d="M 583 54 C 577 61 558 87 523 132 C 516 140 518 147 528 143 C 571 121 612 94 656 72 C 668 65 673 58 666 48 C 659 37 646 29 632 20 C 619 11 609 8 601 10 C 593 11 591 14 593 22 C 595 32 591 42 583 54 Z"/></clipPath>
    <clipPath id="z32681c3"><path d="M 509 224 C 549 215 592 207 637 198 C 675 190 696 182 702 178 C 707 173 710 168 707 163 C 702 156 691 149 674 145 C 658 140 613 152 539 174 C 460 196 385 206 313 214 C 290 216 286 224 303 235 C 324 249 384 249 465 233 C 494 227 494 227 509 224 Z"/></clipPath>
    <clipPath id="z32681c4"><path d="M 519 310 C 539 305 578 295 639 289 C 645 288 651 287 654 280 C 656 274 648 270 637 264 C 618 253 573 263 523 276 C 487 285 487 285 469 289 C 436 296 399 299 359 306 C 344 308 343 313 354 322 C 368 333 392 336 426 329 C 438 326 453 323 470 320 C 503 313 503 313 519 310 Z"/></clipPath>
    <clipPath id="z32681c5"><path d="M 514 374 C 514 351 516 330 519 310 C 522 287 522 287 523 276 C 525 255 524 238 509 224 C 498 213 465 218 465 233 C 465 235 467 253 469 289 C 470 310 470 310 470 320 C 470 336 470 357 472 382 C 472 396 514 388 514 374 Z"/></clipPath>
    <clipPath id="z32681c6"><path d="M 472 382 C 429 390 339 404 265 417 C 254 418 253 424 262 433 C 277 447 300 452 328 444 C 433 413 556 396 698 396 C 698 396 692 396 700 396 C 710 395 717 392 720 388 C 723 381 719 374 710 368 C 678 345 644 342 608 353 C 581 360 550 367 514 374 C 486 379 486 379 472 382 Z"/></clipPath>
    <clipPath id="z32681c7"><path d="M 351 543 C 394 525 421 513 436 511 C 444 509 450 507 452 503 C 453 498 451 492 445 487 C 415 463 390 454 371 459 C 367 459 366 464 366 470 C 365 492 313 525 212 579 C 207 581 209 587 213 588 C 216 588 258 580 331 551 C 344 546 344 546 351 543 Z"/></clipPath>
    <clipPath id="z32681c8"><path d="M 591 575 C 623 567 659 559 698 553 C 708 551 714 547 715 543 C 715 534 709 526 697 522 C 674 513 637 521 583 537 C 551 546 551 546 535 551 C 476 568 428 581 391 592 C 364 599 364 599 350 603 C 267 625 207 632 175 637 C 166 638 161 641 160 647 C 158 653 162 660 173 668 C 198 684 235 684 282 667 C 308 657 333 648 358 640 C 387 630 387 630 402 625 C 436 613 484 599 547 585 C 576 578 576 578 591 575 Z"/></clipPath>
    <clipPath id="z32681c9"><path d="M 391 592 C 380 568 365 553 351 543 C 345 539 327 545 331 551 C 333 553 340 570 350 603 C 353 615 356 627 358 640 C 361 660 362 684 364 710 C 364 721 365 733 365 745 C 365 813 357 855 339 870 C 336 871 309 867 260 856 C 253 854 248 853 245 855 C 241 856 243 860 253 869 C 285 899 308 928 327 953 C 336 965 348 968 359 963 C 372 956 386 936 397 903 C 410 858 414 798 411 724 C 410 713 410 702 410 692 C 408 665 406 642 402 625 C 399 613 395 602 391 592 Z"/></clipPath>
    <clipPath id="z32681c10"><path d="M 364 710 C 298 735 227 758 154 785 C 139 790 118 794 92 795 C 83 795 78 799 78 807 C 77 815 79 822 86 827 C 100 837 118 848 140 858 C 146 860 153 857 161 852 C 191 827 259 793 365 745 C 396 731 396 731 411 724 C 434 713 473 691 489 681 C 497 675 503 670 501 664 C 499 660 492 659 484 662 C 459 669 435 682 410 692 C 379 704 379 704 364 710 Z"/></clipPath>
    <clipPath id="z32681c11"><path d="M 633 764 C 704 878 788 949 884 977 C 888 978 893 980 899 980 C 917 979 925 965 919 943 C 913 923 906 869 901 778 C 900 769 898 763 894 763 C 890 762 888 768 885 777 C 878 797 869 816 863 836 C 854 862 845 874 836 874 C 808 873 769 847 720 795 C 714 788 697 769 673 736 C 663 723 654 710 647 697 C 614 638 596 597 591 575 C 588 562 585 549 583 537 C 579 515 581 495 585 479 C 587 466 574 453 548 440 C 521 427 504 422 497 426 C 488 429 484 438 491 448 C 502 464 519 496 535 551 C 538 562 543 573 547 585 C 563 637 584 685 611 728 C 618 739 625 752 633 764 Z"/></clipPath>
    <clipPath id="z32681c12"><path d="M 611 728 C 559 764 508 793 460 818 C 454 820 453 823 460 825 C 496 832 554 811 633 764 C 646 755 659 745 673 736 C 697 717 728 692 765 660 C 781 646 789 638 790 636 C 791 629 788 621 783 613 C 767 588 749 576 730 576 C 724 576 721 579 721 587 C 718 615 702 641 647 697 C 631 712 624 719 611 728 Z"/></clipPath>
    <clipPath id="z32681c13"><path d="M 759 484 C 778 496 797 511 818 527 C 827 534 837 536 847 535 C 853 534 858 529 861 520 C 863 510 860 495 852 478 C 843 459 808 446 748 439 C 738 437 731 438 728 441 C 725 443 723 449 726 457 C 727 463 740 472 759 484 Z"/></clipPath>
</defs>
<g id="bg-layer">
    <path class="bg" d="M 382 104 C 395 115 407 129 422 144 C 429 152 438 155 447 155 C 453 154 458 151 461 143 C 463 134 462 121 458 105 C 453 90 427 75 379 62 C 370 59 363 58 360 61 C 356 62 355 68 357 76 C 358 82 367 91 382 104 Z"/>
    <path class="bg" d="M 583 54 C 577 61 558 87 523 132 C 516 140 518 147 528 143 C 571 121 612 94 656 72 C 668 65 673 58 666 48 C 659 37 646 29 632 20 C 619 11 609 8 601 10 C 593 11 591 14 593 22 C 595 32 591 42 583 54 Z"/>
    <path class="bg" d="M 509 224 C 549 215 592 207 637 198 C 675 190 696 182 702 178 C 707 173 710 168 707 163 C 702 156 691 149 674 145 C 658 140 613 152 539 174 C 460 196 385 206 313 214 C 290 216 286 224 303 235 C 324 249 384 249 465 233 C 494 227 494 227 509 224 Z"/>
    <path class="bg" d="M 519 310 C 539 305 578 295 639 289 C 645 288 651 287 654 280 C 656 274 648 270 637 264 C 618 253 573 263 523 276 C 487 285 487 285 469 289 C 436 296 399 299 359 306 C 344 308 343 313 354 322 C 368 333 392 336 426 329 C 438 326 453 323 470 320 C 503 313 503 313 519 310 Z"/>
    <path class="bg" d="M 514 374 C 514 351 516 330 519 310 C 522 287 522 287 523 276 C 525 255 524 238 509 224 C 498 213 465 218 465 233 C 465 235 467 253 469 289 C 470 310 470 310 470 320 C 470 336 470 357 472 382 C 472 396 514 388 514 374 Z"/>
    <path class="bg" d="M 472 382 C 429 390 339 404 265 417 C 254 418 253 424 262 433 C 277 447 300 452 328 444 C 433 413 556 396 698 396 C 698 396 692 396 700 396 C 710 395 717 392 720 388 C 723 381 719 374 710 368 C 678 345 644 342 608 353 C 581 360 550 367 514 374 C 486 379 486 379 472 382 Z"/>
    <path class="bg" d="M 351 543 C 394 525 421 513 436 511 C 444 509 450 507 452 503 C 453 498 451 492 445 487 C 415 463 390 454 371 459 C 367 459 366 464 366 470 C 365 492 313 525 212 579 C 207 581 209 587 213 588 C 216 588 258 580 331 551 C 344 546 344 546 351 543 Z"/>
    <path class="bg" d="M 591 575 C 623 567 659 559 698 553 C 708 551 714 547 715 543 C 715 534 709 526 697 522 C 674 513 637 521 583 537 C 551 546 551 546 535 551 C 476 568 428 581 391 592 C 364 599 364 599 350 603 C 267 625 207 632 175 637 C 166 638 161 641 160 647 C 158 653 162 660 173 668 C 198 684 235 684 282 667 C 308 657 333 648 358 640 C 387 630 387 630 402 625 C 436 613 484 599 547 585 C 576 578 576 578 591 575 Z"/>
    <path class="bg" d="M 391 592 C 380 568 365 553 351 543 C 345 539 327 545 331 551 C 333 553 340 570 350 603 C 353 615 356 627 358 640 C 361 660 362 684 364 710 C 364 721 365 733 365 745 C 365 813 357 855 339 870 C 336 871 309 867 260 856 C 253 854 248 853 245 855 C 241 856 243 860 253 869 C 285 899 308 928 327 953 C 336 965 348 968 359 963 C 372 956 386 936 397 903 C 410 858 414 798 411 724 C 410 713 410 702 410 692 C 408 665 406 642 402 625 C 399 613 395 602 391 592 Z"/>
    <path class="bg" d="M 364 710 C 298 735 227 758 154 785 C 139 790 118 794 92 795 C 83 795 78 799 78 807 C 77 815 79 822 86 827 C 100 837 118 848 140 858 C 146 860 153 857 161 852 C 191 827 259 793 365 745 C 396 731 396 731 411 724 C 434 713 473 691 489 681 C 497 675 503 670 501 664 C 499 660 492 659 484 662 C 459 669 435 682 410 692 C 379 704 379 704 364 710 Z"/>
    <path class="bg" d="M 633 764 C 704 878 788 949 884 977 C 888 978 893 980 899 980 C 917 979 925 965 919 943 C 913 923 906 869 901 778 C 900 769 898 763 894 763 C 890 762 888 768 885 777 C 878 797 869 816 863 836 C 854 862 845 874 836 874 C 808 873 769 847 720 795 C 714 788 697 769 673 736 C 663 723 654 710 647 697 C 614 638 596 597 591 575 C 588 562 585 549 583 537 C 579 515 581 495 585 479 C 587 466 574 453 548 440 C 521 427 504 422 497 426 C 488 429 484 438 491 448 C 502 464 519 496 535 551 C 538 562 543 573 547 585 C 563 637 584 685 611 728 C 618 739 625 752 633 764 Z"/>
    <path class="bg" d="M 611 728 C 559 764 508 793 460 818 C 454 820 453 823 460 825 C 496 832 554 811 633 764 C 646 755 659 745 673 736 C 697 717 728 692 765 660 C 781 646 789 638 790 636 C 791 629 788 621 783 613 C 767 588 749 576 730 576 C 724 576 721 579 721 587 C 718 615 702 641 647 697 C 631 712 624 719 611 728 Z"/>
    <path class="bg" d="M 759 484 C 778 496 797 511 818 527 C 827 534 837 536 847 535 C 853 534 858 529 861 520 C 863 510 860 495 852 478 C 843 459 808 446 748 439 C 738 437 731 438 728 441 C 725 443 723 449 726 457 C 727 463 740 472 759 484 Z"/>
</g>
<g id="anim-layer">
    <path style="--d:1s; stroke:#FF4444;" pathLength="3333" clip-path="url(#z32681c1)" d="M 360 66 L 424 107 L 448 150"/>
    <path style="--d:2s; stroke:#FF4444;" pathLength="3333" clip-path="url(#z32681c2)" d="M 599 15 L 622 62 L 526 137"/>
    <path style="--d:3s; stroke:#FF4444;" pathLength="3333" clip-path="url(#z32681c3)" d="M 299 221 L 406 222 L 703 166"/>
    <path style="--d:4s; stroke:#FF4444;" pathLength="3333" clip-path="url(#z32681c4)" d="M 356 314 L 647 278"/>
    <path style="--d:5s; stroke:#FF4444;" pathLength="3333" clip-path="url(#z32681c5)" d="M 472 229 L 496 267 L 494 386"/>
    <path style="--d:6s; stroke:#FF4444;" pathLength="3333" clip-path="url(#z32681c6)" d="M 265 424 L 615 374 L 716 384"/>
    <path style="--d:7s; stroke:#000;" pathLength="3333" clip-path="url(#z32681c7)" d="M 374 467 L 396 503 L 219 581"/>
    <path style="--d:8s; stroke:#000;" pathLength="3333" clip-path="url(#z32681c8)" d="M 166 646 L 248 651 L 708 537"/>
    <path style="--d:9s; stroke:#000;" pathLength="3333" clip-path="url(#z32681c9)" d="M 339 547 L 381 635 L 379 858 L 344 917 L 252 859"/>
    <path style="--d:10s; stroke:#000;" pathLength="3333" clip-path="url(#z32681c10)" d="M 82 805 L 148 822 L 495 669"/>
    <path style="--d:11s; stroke:#000;" pathLength="3333" clip-path="url(#z32681c11)" d="M 494 434 L 550 485 L 629 714 L 754 868 L 825 912 L 888 927 L 893 771"/>
    <path style="--d:12s; stroke:#000;" pathLength="3333" clip-path="url(#z32681c12)" d="M 729 582 L 748 630 L 693 687 L 583 770 L 464 822"/>
    <path style="--d:13s; stroke:#000;" pathLength="3333" clip-path="url(#z32681c13)" d="M 729 449 L 854 525"/>
</g>
</svg>