<svg id="z32772" class="acjk" viewBox="0 0 1024 1024" xmlns="http://www.w3.org/2000/svg">

<style>
<![CDATA[
@keyframes zk { to { stroke-dashoffset:0; } }
svg.acjk path[clip-path] {
    --t:0.8s;
    animation:zk var(--t) linear forwards var(--d);
    stroke-dasharray:3337;
    stroke-dashoffset:3339;
    stroke-width:128;
    stroke-linecap:round;
    fill:none;
}
/* Low opacity for background improves visual overlap at intersections */
svg.acjk .bg { fill:#ccc; opacity: 0.5; } 
]]>
</style>
<defs>
    <clipPath id="z32772c1"><path d="M 515 215 C 573 202 595 200 603 194 C 618 180 598 166 574 161 C 555 156 537 162 519 167 C 484 176 484 176 467 180 C 410 194 374 196 364 198 C 342 202 338 209 355 219 C 395 243 430 233 469 225 C 500 218 500 218 515 215 Z"/></clipPath>
    <clipPath id="z32772c2"><path d="M 506 294 C 508 267 512 241 515 215 C 518 183 518 183 519 167 C 520 146 526 126 532 106 C 533 99 529 91 518 84 C 499 72 482 66 468 64 C 454 61 436 68 449 88 C 457 100 464 129 467 180 C 468 210 468 210 469 225 C 470 247 470 272 470 299 C 470 311 506 306 506 294 Z"/></clipPath>
    <clipPath id="z32772c3"><path d="M 553 321 C 629 313 729 310 851 309 C 886 308 881 286 864 274 C 824 244 788 240 754 249 C 710 260 658 269 598 279 C 557 286 557 286 537 289 C 526 290 516 292 506 294 C 482 297 482 297 470 299 C 369 312 264 328 152 342 C 138 343 135 350 147 361 C 168 380 192 386 216 380 C 294 358 386 338 495 327 C 534 323 534 323 553 321 Z"/></clipPath>
    <clipPath id="z32772c4"><path d="M 458 402 C 489 379 522 349 553 321 C 583 293 583 293 598 279 C 651 229 682 191 700 174 C 717 157 712 147 706 135 C 695 112 685 97 669 93 C 660 90 656 95 655 108 C 650 138 645 155 643 159 C 617 201 583 246 537 289 C 509 314 509 314 495 327 C 480 340 464 353 446 367 C 421 385 421 385 409 394 C 396 403 311 471 135 559 C 124 564 118 580 147 572 C 222 549 280 525 412 434 C 443 413 443 413 458 402 Z"/></clipPath>
    <clipPath id="z32772c5"><path d="M 447 450 C 570 420 601 408 629 407 C 640 406 646 400 644 390 C 641 379 634 368 625 357 C 605 333 598 336 593 347 C 572 386 492 414 448 435 C 443 437 442 451 447 450 Z"/></clipPath>
    <clipPath id="z32772c6"><path d="M 544 520 C 632 522 689 505 716 491 C 729 483 734 473 728 459 C 720 442 712 421 708 394 C 705 379 697 367 692 389 C 683 422 674 440 669 447 C 662 454 650 463 633 469 C 610 476 583 480 551 483 C 515 485 488 484 474 479 C 446 468 450 460 447 450 C 445 445 447 439 448 435 C 448 423 452 412 458 402 C 464 391 456 375 446 367 C 438 359 382 330 398 365 C 401 373 406 382 409 394 C 412 406 411 420 412 434 C 414 465 422 488 443 502 C 455 510 476 518 507 519 C 532 520 532 520 544 520 Z"/></clipPath>
    <clipPath id="z32772c7"><path d="M 475 596 C 517 584 538 578 574 572 C 580 570 626 566 544 520 C 533 514 509 507 507 519 C 507 527 502 533 494 539 C 461 562 399 586 310 618 C 304 620 305 626 309 628 C 317 630 397 616 444 604 C 465 599 465 599 475 596 Z"/></clipPath>
    <clipPath id="z32772c8"><path d="M 516 689 C 546 683 578 677 612 672 C 648 666 668 658 674 654 C 693 637 658 623 646 620 C 627 615 609 617 591 624 C 570 631 549 637 528 643 C 483 654 483 654 461 659 C 412 670 358 673 301 679 C 278 681 275 688 291 699 C 316 716 346 718 380 712 C 393 709 448 700 462 698 C 498 692 498 692 516 689 Z"/></clipPath>
    <clipPath id="z32772c9"><path d="M 505 790 C 573 777 649 766 735 760 C 762 757 755 738 737 729 C 720 720 703 717 688 720 C 615 732 555 744 506 754 C 475 760 475 760 460 763 C 365 781 283 788 219 790 C 201 790 193 805 213 821 C 239 841 266 846 293 839 C 355 820 411 806 460 798 C 490 793 490 793 505 790 Z"/></clipPath>
    <clipPath id="z32772c10"><path d="M 934 865 C 923 834 914 793 910 742 C 908 724 895 708 890 736 C 877 798 867 836 858 847 C 834 873 770 888 668 887 C 611 886 571 878 549 868 C 521 854 503 828 505 790 C 506 766 506 766 506 754 C 506 727 511 705 516 689 C 524 658 524 658 528 643 C 532 626 508 611 475 596 C 465 592 439 595 444 604 C 447 613 459 619 461 659 C 462 685 462 685 462 698 C 462 722 460 744 460 763 C 460 786 460 786 460 798 C 460 842 477 874 506 897 C 544 927 636 941 780 935 C 844 932 889 921 916 909 C 934 899 940 885 934 865 Z"/></clipPath>
</defs>
<g id="bg-layer">
    <path class="bg" d="M 515 215 C 573 202 595 200 603 194 C 618 180 598 166 574 161 C 555 156 537 162 519 167 C 484 176 484 176 467 180 C 410 194 374 196 364 198 C 342 202 338 209 355 219 C 395 243 430 233 469 225 C 500 218 500 218 515 215 Z"/>
    <path class="bg" d="M 506 294 C 508 267 512 241 515 215 C 518 183 518 183 519 167 C 520 146 526 126 532 106 C 533 99 529 91 518 84 C 499 72 482 66 468 64 C 454 61 436 68 449 88 C 457 100 464 129 467 180 C 468 210 468 210 469 225 C 470 247 470 272 470 299 C 470 311 506 306 506 294 Z"/>
    <path class="bg" d="M 553 321 C 629 313 729 310 851 309 C 886 308 881 286 864 274 C 824 244 788 240 754 249 C 710 260 658 269 598 279 C 557 286 557 286 537 289 C 526 290 516 292 506 294 C 482 297 482 297 470 299 C 369 312 264 328 152 342 C 138 343 135 350 147 361 C 168 380 192 386 216 380 C 294 358 386 338 495 327 C 534 323 534 323 553 321 Z"/>
    <path class="bg" d="M 458 402 C 489 379 522 349 553 321 C 583 293 583 293 598 279 C 651 229 682 191 700 174 C 717 157 712 147 706 135 C 695 112 685 97 669 93 C 660 90 656 95 655 108 C 650 138 645 155 643 159 C 617 201 583 246 537 289 C 509 314 509 314 495 327 C 480 340 464 353 446 367 C 421 385 421 385 409 394 C 396 403 311 471 135 559 C 124 564 118 580 147 572 C 222 549 280 525 412 434 C 443 413 443 413 458 402 Z"/>
    <path class="bg" d="M 447 450 C 570 420 601 408 629 407 C 640 406 646 400 644 390 C 641 379 634 368 625 357 C 605 333 598 336 593 347 C 572 386 492 414 448 435 C 443 437 442 451 447 450 Z"/>
    <path class="bg" d="M 544 520 C 632 522 689 505 716 491 C 729 483 734 473 728 459 C 720 442 712 421 708 394 C 705 379 697 367 692 389 C 683 422 674 440 669 447 C 662 454 650 463 633 469 C 610 476 583 480 551 483 C 515 485 488 484 474 479 C 446 468 450 460 447 450 C 445 445 447 439 448 435 C 448 423 452 412 458 402 C 464 391 456 375 446 367 C 438 359 382 330 398 365 C 401 373 406 382 409 394 C 412 406 411 420 412 434 C 414 465 422 488 443 502 C 455 510 476 518 507 519 C 532 520 532 520 544 520 Z"/>
    <path class="bg" d="M 475 596 C 517 584 538 578 574 572 C 580 570 626 566 544 520 C 533 514 509 507 507 519 C 507 527 502 533 494 539 C 461 562 399 586 310 618 C 304 620 305 626 309 628 C 317 630 397 616 444 604 C 465 599 465 599 475 596 Z"/>
    <path class="bg" d="M 516 689 C 546 683 578 677 612 672 C 648 666 668 658 674 654 C 693 637 658 623 646 620 C 627 615 609 617 591 624 C 570 631 549 637 528 643 C 483 654 483 654 461 659 C 412 670 358 673 301 679 C 278 681 275 688 291 699 C 316 716 346 718 380 712 C 393 709 448 700 462 698 C 498 692 498 692 516 689 Z"/>
    <path class="bg" d="M 505 790 C 573 777 649 766 735 760 C 762 757 755 738 737 729 C 720 720 703 717 688 720 C 615 732 555 744 506 754 C 475 760 475 760 460 763 C 365 781 283 788 219 790 C 201 790 193 805 213 821 C 239 841 266 846 293 839 C 355 820 411 806 460 798 C 490 793 490 793 505 790 Z"/>
    <path class="bg" d="M 934 865 C 923 834 914 793 910 742 C 908 724 895 708 890 736 C 877 798 867 836 858 847 C 834 873 770 888 668 887 C 611 886 571 878 549 868 C 521 854 503 828 505 790 C 506 766 506 766 506 754 C 506 727 511 705 516 689 C 524 658 524 658 528 643 C 532 626 508 611 475 596 C 465 592 439 595 444 604 C 447 613 459 619 461 659 C 462 685 462 685 462 698 C 462 722 460 744 460 763 C 460 786 460 786 460 798 C 460 842 477 874 506 897 C 544 927 636 941 780 935 C 844 932 889 921 916 909 C 934 899 940 885 934 865 Z"/>
</g>
<g id="anim-layer">
    <path style="--d:1s; stroke:#FF4444;" pathLength="3333" clip-path="url(#z32772c1)" d="M 352 208 L 602 180"/>
    <path style="--d:2s; stroke:#FF4444;" pathLength="3333" clip-path="url(#z32772c2)" d="M 453 75 L 496 109 L 486 303"/>
    <path style="--d:3s; stroke:#FF4444;" pathLength="3333" clip-path="url(#z32772c3)" d="M 147 353 L 757 279 L 873 291"/>
    <path style="--d:4s; stroke:#FF4444;" pathLength="3333" clip-path="url(#z32772c4)" d="M 663 101 L 675 160 L 519 329 L 305 484 L 132 567"/>
    <path style="--d:5s; stroke:#FF4444;" pathLength="3333" clip-path="url(#z32772c5)" d="M 602 347 L 607 386 L 450 443"/>
    <path style="--d:6s; stroke:#FF4444;" pathLength="3333" clip-path="url(#z32772c6)" d="M 403 355 L 434 390 L 439 474 L 499 501 L 690 470 L 700 388"/>
    <path style="--d:7s; stroke:#000;" pathLength="3333" clip-path="url(#z32772c7)" d="M 517 519 L 535 556 L 311 623"/>
    <path style="--d:8s; stroke:#000;" pathLength="3333" clip-path="url(#z32772c8)" d="M 290 688 L 675 643"/>
    <path style="--d:9s; stroke:#000;" pathLength="3333" clip-path="url(#z32772c9)" d="M 206 803 L 289 813 L 748 744"/>
    <path style="--d:10s; stroke:#000;" pathLength="3333" clip-path="url(#z32772c10)" d="M 451 604 L 494 644 L 489 837 L 567 899 L 729 911 L 864 889 L 900 857 L 900 729"/>
</g>
</svg>