<svg id="z32873" class="acjk" viewBox="0 0 1024 1024" xmlns="http://www.w3.org/2000/svg">

<style>
<![CDATA[
@keyframes zk { to { stroke-dashoffset:0; } }
svg.acjk path[clip-path] {
    --t:0.8s;
    animation:zk var(--t) linear forwards var(--d);
    stroke-dasharray:3337;
    stroke-dashoffset:3339;
    stroke-width:128;
    stroke-linecap:round;
    fill:none;
}
/* Low opacity for background improves visual overlap at intersections */
svg.acjk .bg { fill:#ccc; opacity: 0.5; } 
]]>
</style>
<defs>
    <clipPath id="z32873c1"><path d="M 357 187 Q 450 168 454 164 Q 461 157 458 150 Q 452 140 428 133 Q 407 127 313 154 Q 198 176 137 181 Q 106 185 127 200 Q 131 203 165 214 C 176 219 191 219 202 214 Q 206 211 327 193 C 347 189 347 189 357 187 Z"/></clipPath>
    <clipPath id="z32873c2"><path d="M 165 214 Q 164 217 166 222 Q 182 261 185 292 Q 185 524 184 622 C 184 636 225 622 225 608 Q 226 539 228 478 C 229 459 229 459 229 449 Q 230 406 232 365 C 233 344 233 344 233 333 Q 233 293 236 265 Q 246 237 204 215 Q 203 214 202 214 C 191 209 165 202 165 214 Z"/></clipPath>
    <clipPath id="z32873c3"><path d="M 385 395 Q 385 206 383 204 Q 382 203 381 202 Q 372 195 357 187 C 348 182 323 184 327 193 Q 345 226 340 568 C 340 591 340 591 340 602 Q 340 635 331 807 Q 328 846 352 878 Q 364 891 373 875 Q 397 832 391 784 Q 387 738 386 657 Q 386 618 385 580 C 385 561 385 561 385 551 Q 385 481 385 408 C 385 399 385 399 385 395 Z"/></clipPath>
    <clipPath id="z32873c4"><path d="M 232 365 Q 278 355 311 347 Q 330 340 322 330 Q 310 320 288 318 Q 267 318 233 333 C 223 337 222 367 232 365 Z"/></clipPath>
    <clipPath id="z32873c5"><path d="M 228 478 Q 227 477 230 477 Q 281 467 318 459 Q 339 453 330 443 Q 320 431 296 429 Q 275 428 240 442 Q 233 445 229 449 C 221 455 219 480 228 478 Z"/></clipPath>
    <clipPath id="z32873c6"><path d="M 184 622 Q 90 649 68 649 Q 55 650 54 661 Q 53 674 62 682 Q 84 698 118 715 Q 128 718 140 709 Q 185 673 340 602 C 370 587 370 587 385 580 Q 424 552 426 544 Q 420 538 408 542 Q 396 546 385 551 C 355 562 355 562 340 568 Q 282 587 225 608 C 198 617 198 617 184 622 Z"/></clipPath>
    <clipPath id="z32873c7"><path d="M 503 193 Q 493 187 462 185 Q 452 182 448 187 Q 444 193 452 207 Q 473 241 489 301 Q 493 320 505 330 Q 521 349 526 335 Q 527 328 528 319 C 529 310 527 301 525 292 Q 515 240 514 220 C 514 210 512 197 503 193 Z"/></clipPath>
    <clipPath id="z32873c8"><path d="M 781 253 Q 802 214 821 205 Q 836 190 824 175 Q 811 163 769 141 Q 754 134 736 141 Q 696 156 660 166 C 625 173 625 173 608 177 Q 556 186 503 193 C 493 195 505 224 514 220 Q 521 217 609 201 C 642 195 642 195 658 192 Q 683 186 711 181 Q 736 175 745 185 Q 751 194 734 254 C 729 269 774 267 781 253 Z"/></clipPath>
    <clipPath id="z32873c9"><path d="M 651 302 Q 711 293 797 286 Q 806 285 807 278 Q 808 271 782 253 C 781 253 781 253 781 253 C 767 246 749 251 734 254 Q 691 263 653 272 C 625 277 625 277 611 280 Q 565 287 525 292 C 516 293 519 317 528 319 Q 538 322 549 320 Q 574 313 611 308 C 638 304 638 304 651 302 Z"/></clipPath>
    <clipPath id="z32873c10"><path d="M 647 356 Q 648 328 651 302 C 652 282 652 282 653 272 Q 654 230 658 192 C 659 175 659 175 660 166 Q 660 141 674 91 Q 677 81 659 69 Q 628 53 607 49 Q 594 46 586 53 Q 579 60 587 73 Q 603 98 605 115 Q 606 145 608 177 C 609 193 609 193 609 201 Q 610 238 611 280 C 611 299 611 299 611 308 Q 610 333 610 362 C 610 374 647 368 647 356 Z"/></clipPath>
    <clipPath id="z32873c11"><path d="M 610 362 Q 507 375 390 393 Q 386 393 385 395 C 381 397 382 405 385 408 Q 397 420 414 425 Q 432 429 445 426 Q 626 375 910 374 Q 926 373 931 366 Q 935 356 921 344 Q 876 311 844 319 Q 771 335 647 356 C 622 360 622 360 610 362 Z"/></clipPath>
    <clipPath id="z32873c12"><path d="M 536 458 Q 520 445 500 439 Q 493 438 487 445 Q 484 449 490 459 Q 521 532 495 666 Q 482 691 489 718 Q 496 746 507 757 Q 517 769 525 757 Q 546 732 547 612 Q 547 510 552 485 C 554 475 544 464 536 458 Z"/></clipPath>
    <clipPath id="z32873c13"><path d="M 733 695 Q 726 714 738 734 Q 750 759 758 757 Q 771 756 784 728 Q 797 706 795 688 Q 774 519 804 476 Q 813 461 806 453 Q 781 431 738 413 Q 725 409 704 416 Q 629 449 536 458 C 526 460 542 489 552 485 Q 574 476 679 459 Q 712 453 723 461 Q 732 477 736 525 Q 740 667 733 695 Z"/></clipPath>
    <clipPath id="z32873c14"><path d="M 609 601 Q 621 784 531 854 Q 500 879 433 912 Q 421 916 418 919 Q 414 923 427 927 Q 481 930 577 872 Q 593 860 605 844 Q 651 784 659 653 Q 663 595 672 573 Q 676 563 669 556 Q 653 541 620 529 Q 601 520 586 526 Q 568 533 583 548 Q 608 573 609 601 Z"/></clipPath>
    <clipPath id="z32873c15"><path d="M 700 799 Q 749 845 807 913 Q 822 932 837 938 Q 846 939 853 929 Q 866 917 854 873 Q 845 827 702 768 Q 693 764 691 775 Q 690 788 700 799 Z"/></clipPath>
</defs>
<g id="bg-layer">
    <path class="bg" d="M 357 187 Q 450 168 454 164 Q 461 157 458 150 Q 452 140 428 133 Q 407 127 313 154 Q 198 176 137 181 Q 106 185 127 200 Q 131 203 165 214 C 176 219 191 219 202 214 Q 206 211 327 193 C 347 189 347 189 357 187 Z"/>
    <path class="bg" d="M 165 214 Q 164 217 166 222 Q 182 261 185 292 Q 185 524 184 622 C 184 636 225 622 225 608 Q 226 539 228 478 C 229 459 229 459 229 449 Q 230 406 232 365 C 233 344 233 344 233 333 Q 233 293 236 265 Q 246 237 204 215 Q 203 214 202 214 C 191 209 165 202 165 214 Z"/>
    <path class="bg" d="M 385 395 Q 385 206 383 204 Q 382 203 381 202 Q 372 195 357 187 C 348 182 323 184 327 193 Q 345 226 340 568 C 340 591 340 591 340 602 Q 340 635 331 807 Q 328 846 352 878 Q 364 891 373 875 Q 397 832 391 784 Q 387 738 386 657 Q 386 618 385 580 C 385 561 385 561 385 551 Q 385 481 385 408 C 385 399 385 399 385 395 Z"/>
    <path class="bg" d="M 232 365 Q 278 355 311 347 Q 330 340 322 330 Q 310 320 288 318 Q 267 318 233 333 C 223 337 222 367 232 365 Z"/>
    <path class="bg" d="M 228 478 Q 227 477 230 477 Q 281 467 318 459 Q 339 453 330 443 Q 320 431 296 429 Q 275 428 240 442 Q 233 445 229 449 C 221 455 219 480 228 478 Z"/>
    <path class="bg" d="M 184 622 Q 90 649 68 649 Q 55 650 54 661 Q 53 674 62 682 Q 84 698 118 715 Q 128 718 140 709 Q 185 673 340 602 C 370 587 370 587 385 580 Q 424 552 426 544 Q 420 538 408 542 Q 396 546 385 551 C 355 562 355 562 340 568 Q 282 587 225 608 C 198 617 198 617 184 622 Z"/>
    <path class="bg" d="M 503 193 Q 493 187 462 185 Q 452 182 448 187 Q 444 193 452 207 Q 473 241 489 301 Q 493 320 505 330 Q 521 349 526 335 Q 527 328 528 319 C 529 310 527 301 525 292 Q 515 240 514 220 C 514 210 512 197 503 193 Z"/>
    <path class="bg" d="M 781 253 Q 802 214 821 205 Q 836 190 824 175 Q 811 163 769 141 Q 754 134 736 141 Q 696 156 660 166 C 625 173 625 173 608 177 Q 556 186 503 193 C 493 195 505 224 514 220 Q 521 217 609 201 C 642 195 642 195 658 192 Q 683 186 711 181 Q 736 175 745 185 Q 751 194 734 254 C 729 269 774 267 781 253 Z"/>
    <path class="bg" d="M 651 302 Q 711 293 797 286 Q 806 285 807 278 Q 808 271 782 253 C 781 253 781 253 781 253 C 767 246 749 251 734 254 Q 691 263 653 272 C 625 277 625 277 611 280 Q 565 287 525 292 C 516 293 519 317 528 319 Q 538 322 549 320 Q 574 313 611 308 C 638 304 638 304 651 302 Z"/>
    <path class="bg" d="M 647 356 Q 648 328 651 302 C 652 282 652 282 653 272 Q 654 230 658 192 C 659 175 659 175 660 166 Q 660 141 674 91 Q 677 81 659 69 Q 628 53 607 49 Q 594 46 586 53 Q 579 60 587 73 Q 603 98 605 115 Q 606 145 608 177 C 609 193 609 193 609 201 Q 610 238 611 280 C 611 299 611 299 611 308 Q 610 333 610 362 C 610 374 647 368 647 356 Z"/>
    <path class="bg" d="M 610 362 Q 507 375 390 393 Q 386 393 385 395 C 381 397 382 405 385 408 Q 397 420 414 425 Q 432 429 445 426 Q 626 375 910 374 Q 926 373 931 366 Q 935 356 921 344 Q 876 311 844 319 Q 771 335 647 356 C 622 360 622 360 610 362 Z"/>
    <path class="bg" d="M 536 458 Q 520 445 500 439 Q 493 438 487 445 Q 484 449 490 459 Q 521 532 495 666 Q 482 691 489 718 Q 496 746 507 757 Q 517 769 525 757 Q 546 732 547 612 Q 547 510 552 485 C 554 475 544 464 536 458 Z"/>
    <path class="bg" d="M 733 695 Q 726 714 738 734 Q 750 759 758 757 Q 771 756 784 728 Q 797 706 795 688 Q 774 519 804 476 Q 813 461 806 453 Q 781 431 738 413 Q 725 409 704 416 Q 629 449 536 458 C 526 460 542 489 552 485 Q 574 476 679 459 Q 712 453 723 461 Q 732 477 736 525 Q 740 667 733 695 Z"/>
    <path class="bg" d="M 609 601 Q 621 784 531 854 Q 500 879 433 912 Q 421 916 418 919 Q 414 923 427 927 Q 481 930 577 872 Q 593 860 605 844 Q 651 784 659 653 Q 663 595 672 573 Q 676 563 669 556 Q 653 541 620 529 Q 601 520 586 526 Q 568 533 583 548 Q 608 573 609 601 Z"/>
    <path class="bg" d="M 700 799 Q 749 845 807 913 Q 822 932 837 938 Q 846 939 853 929 Q 866 917 854 873 Q 845 827 702 768 Q 693 764 691 775 Q 690 788 700 799 Z"/>
</g>
<g id="anim-layer">
    <path style="--d:1s; stroke:#FF4444;" pathLength="3333" clip-path="url(#z32873c1)" d="M 130 192 L 454 151"/>
    <path style="--d:2s; stroke:#FF4444;" pathLength="3333" clip-path="url(#z32873c2)" d="M 173 218 L 209 276 L 193 614"/>
    <path style="--d:3s; stroke:#FF4444;" pathLength="3333" clip-path="url(#z32873c3)" d="M 336 195 L 361 254 L 357 876"/>
    <path style="--d:4s; stroke:#FF4444;" pathLength="3333" clip-path="url(#z32873c4)" d="M 240 356 L 317 333"/>
    <path style="--d:5s; stroke:#FF4444;" pathLength="3333" clip-path="url(#z32873c5)" d="M 235 469 L 326 448"/>
    <path style="--d:6s; stroke:#FF4444;" pathLength="3333" clip-path="url(#z32873c6)" d="M 59 663 L 119 678 L 419 545"/>
    <path style="--d:7s; stroke:#000;" pathLength="3333" clip-path="url(#z32873c7)" d="M 453 190 L 482 208 L 517 334"/>
    <path style="--d:8s; stroke:#000;" pathLength="3333" clip-path="url(#z32873c8)" d="M 510 194 L 751 161 L 787 193 L 747 251"/>
    <path style="--d:9s; stroke:#000;" pathLength="3333" clip-path="url(#z32873c9)" d="M 532 299 L 798 277"/>
    <path style="--d:10s; stroke:#000;" pathLength="3333" clip-path="url(#z32873c10)" d="M 589 57 L 639 99 L 621 358"/>
    <path style="--d:11s; stroke:#000;" pathLength="3333" clip-path="url(#z32873c11)" d="M 391 398 L 855 346 L 928 359"/>
    <path style="--d:12s; stroke:#000;" pathLength="3333" clip-path="url(#z32873c12)" d="M 495 446 L 527 496 L 513 755"/>
    <path style="--d:13s; stroke:#000;" pathLength="3333" clip-path="url(#z32873c13)" d="M 545 463 L 712 435 L 760 459 L 759 750"/>
    <path style="--d:14s; stroke:#000;" pathLength="3333" clip-path="url(#z32873c14)" d="M 581 536 L 639 574 L 611 782 L 550 865 L 424 919"/>
    <path style="--d:15s; stroke:#000;" pathLength="3333" clip-path="url(#z32873c15)" d="M 699 777 L 805 860 L 844 934"/>
</g>
</svg>