<svg id="z32887" class="acjk" viewBox="0 0 1024 1024" xmlns="http://www.w3.org/2000/svg">

<style>
<![CDATA[
@keyframes zk { to { stroke-dashoffset:0; } }
svg.acjk path[clip-path] {
    --t:0.8s;
    animation:zk var(--t) linear forwards var(--d);
    stroke-dasharray:3337;
    stroke-dashoffset:3339;
    stroke-width:128;
    stroke-linecap:round;
    fill:none;
}
/* Low opacity for background improves visual overlap at intersections */
svg.acjk .bg { fill:#ccc; opacity: 0.5; } 
]]>
</style>
<defs>
    <clipPath id="z32887c1"><path d="M 331 231 C 341 228 353 225 367 222 C 393 215 407 210 411 207 C 416 201 418 196 415 191 C 410 184 399 176 380 173 C 360 168 340 172 321 180 C 292 190 262 200 231 208 C 196 216 157 222 116 228 C 93 231 90 240 107 250 C 117 256 129 261 144 263 C 160 264 176 264 193 262 C 201 260 235 250 295 239 C 307 236 319 233 331 231 Z"/></clipPath>
    <clipPath id="z32887c2"><path d="M 144 263 C 156 291 162 315 163 335 C 163 359 163 472 162 674 C 162 687 200 674 200 661 C 200 618 199 577 201 538 C 202 518 202 518 202 508 C 203 475 202 444 203 414 C 204 393 204 393 204 383 C 205 345 204 315 207 296 C 208 285 204 274 193 262 C 183 249 138 248 144 263 Z"/></clipPath>
    <clipPath id="z32887c3"><path d="M 350 604 C 350 444 351 331 359 267 C 360 257 349 245 331 231 C 321 224 290 228 295 239 C 306 258 312 326 311 444 C 311 494 311 584 308 621 C 306 645 306 645 305 657 C 297 750 291 802 288 814 C 280 835 290 864 313 900 C 320 911 325 920 332 922 C 338 923 344 918 348 910 C 356 889 357 869 356 850 C 351 773 350 700 350 632 C 350 613 350 613 350 604 Z"/></clipPath>
    <clipPath id="z32887c4"><path d="M 203 414 Q 246 407 278 402 Q 297 398 289 387 Q 279 374 256 372 Q 235 371 204 383 C 194 387 193 416 203 414 Z"/></clipPath>
    <clipPath id="z32887c5"><path d="M 201 538 Q 244 531 277 526 Q 298 522 289 511 Q 279 498 256 496 Q 235 495 202 508 C 193 512 191 540 201 538 Z"/></clipPath>
    <clipPath id="z32887c6"><path d="M 350 632 Q 360 625 370 617 Q 382 610 381 600 Q 377 596 364 598 Q 357 599 350 604 C 322 615 322 615 308 621 Q 256 639 200 661 C 175 670 175 670 162 674 Q 99 690 87 691 Q 74 694 73 703 Q 72 716 81 723 Q 103 736 136 753 Q 146 754 157 746 Q 193 715 305 657 C 335 640 335 640 350 632 Z"/></clipPath>
    <clipPath id="z32887c7"><path d="M 479 136 C 502 167 520 188 538 195 C 546 198 554 194 560 187 C 564 180 565 172 564 162 C 561 147 554 136 545 128 C 522 110 501 100 479 100 C 475 99 471 100 469 101 C 466 101 464 105 465 113 C 465 119 471 126 479 136 Z"/></clipPath>
    <clipPath id="z32887c8"><path d="M 581 266 Q 591 262 603 259 Q 628 250 633 247 Q 640 240 635 233 Q 628 224 605 220 Q 584 217 522 243 Q 474 258 420 269 Q 392 276 413 288 Q 441 303 512 284 Q 533 278 556 273 C 573 268 573 268 581 266 Z"/></clipPath>
    <clipPath id="z32887c9"><path d="M 423 334 C 435 374 446 396 458 401 C 464 403 470 402 476 395 C 479 389 481 380 480 370 C 479 361 471 353 463 344 C 449 329 440 320 433 317 C 428 314 426 316 424 321 C 422 324 421 327 423 334 Z"/></clipPath>
    <clipPath id="z32887c10"><path d="M 560 413 C 562 410 575 385 599 340 C 601 332 607 322 615 312 C 621 305 622 299 618 294 C 613 286 599 274 581 266 C 573 263 553 265 556 273 C 565 293 561 332 545 389 C 542 399 539 408 539 418 C 539 425 557 419 560 413 Z"/></clipPath>
    <clipPath id="z32887c11"><path d="M 539 418 C 492 429 443 439 393 452 C 381 454 379 460 390 469 C 407 483 428 487 450 480 C 519 455 594 434 677 424 C 704 421 704 421 718 419 C 732 417 768 412 826 407 C 836 406 843 403 846 398 C 848 391 844 383 834 377 C 802 355 764 356 713 372 C 686 380 686 380 673 384 C 656 389 580 408 560 413 C 546 416 546 416 539 418 Z"/></clipPath>
    <clipPath id="z32887c12"><path d="M 441 535 C 435 529 423 524 415 522 C 409 520 403 517 400 522 C 393 531 400 541 403 545 C 414 563 417 633 412 713 C 409 753 404 780 425 804 C 430 810 434 810 440 804 C 444 797 447 790 448 783 C 449 763 449 763 450 753 C 452 723 449 692 449 662 C 449 647 449 647 449 639 C 449 613 449 586 450 560 C 450 551 448 540 441 535 Z"/></clipPath>
    <clipPath id="z32887c13"><path d="M 557 772 C 581 812 595 835 600 836 C 605 837 611 829 616 817 C 623 796 625 754 622 690 C 617 607 616 558 622 543 C 625 532 624 524 618 519 C 613 514 601 507 582 498 C 570 492 482 530 441 535 C 432 536 441 561 450 560 C 456 559 463 558 472 555 C 494 546 519 539 548 533 C 556 531 562 531 565 535 C 570 541 573 591 574 685 C 574 717 574 737 571 745 C 569 749 564 751 560 751 C 553 752 553 766 557 772 Z"/></clipPath>
    <clipPath id="z32887c14"><path d="M 449 662 C 467 661 514 653 538 649 C 550 646 554 640 549 634 C 542 626 532 621 518 620 C 496 617 473 624 449 639 C 442 643 441 662 449 662 Z"/></clipPath>
    <clipPath id="z32887c15"><path d="M 448 783 Q 455 784 465 782 Q 493 775 557 772 C 564 772 566 755 560 751 Q 527 726 453 752 Q 452 752 450 753 C 441 757 438 783 448 783 Z"/></clipPath>
    <clipPath id="z32887c16"><path d="M 677 424 C 683 496 695 568 716 642 C 719 653 722 665 726 677 C 753 767 794 842 852 899 C 888 934 918 951 937 950 C 951 948 954 936 952 918 C 947 888 949 829 951 741 C 951 726 948 718 943 718 C 938 717 934 724 930 738 C 921 760 912 781 905 800 C 896 819 889 830 883 830 C 874 829 861 822 848 806 C 820 774 790 721 761 648 C 755 633 751 618 748 604 C 737 560 727 498 718 419 C 716 403 714 387 713 372 C 706 288 707 218 724 166 C 731 140 722 120 688 103 C 665 91 648 87 636 91 C 623 94 615 103 624 115 C 647 146 661 169 662 191 C 663 261 668 326 673 384 C 674 397 675 410 677 424 Z"/></clipPath>
    <clipPath id="z32887c17"><path d="M 716 642 C 675 680 650 699 646 705 C 639 713 641 716 651 715 C 665 713 691 702 726 677 C 738 668 750 659 761 648 C 785 620 805 593 881 504 C 887 496 888 488 880 479 C 857 454 836 443 820 445 C 813 445 810 450 811 460 C 811 500 791 547 748 604 C 738 617 728 630 716 642 Z"/></clipPath>
    <clipPath id="z32887c18"><path d="M 787 166 C 807 183 827 203 848 224 C 856 232 864 236 874 236 C 880 235 886 231 889 223 C 892 214 890 201 886 183 C 882 169 871 155 850 146 C 804 125 774 116 764 121 C 760 122 759 128 760 136 C 761 142 771 152 787 166 Z"/></clipPath>
</defs>
<g id="bg-layer">
    <path class="bg" d="M 331 231 C 341 228 353 225 367 222 C 393 215 407 210 411 207 C 416 201 418 196 415 191 C 410 184 399 176 380 173 C 360 168 340 172 321 180 C 292 190 262 200 231 208 C 196 216 157 222 116 228 C 93 231 90 240 107 250 C 117 256 129 261 144 263 C 160 264 176 264 193 262 C 201 260 235 250 295 239 C 307 236 319 233 331 231 Z"/>
    <path class="bg" d="M 144 263 C 156 291 162 315 163 335 C 163 359 163 472 162 674 C 162 687 200 674 200 661 C 200 618 199 577 201 538 C 202 518 202 518 202 508 C 203 475 202 444 203 414 C 204 393 204 393 204 383 C 205 345 204 315 207 296 C 208 285 204 274 193 262 C 183 249 138 248 144 263 Z"/>
    <path class="bg" d="M 350 604 C 350 444 351 331 359 267 C 360 257 349 245 331 231 C 321 224 290 228 295 239 C 306 258 312 326 311 444 C 311 494 311 584 308 621 C 306 645 306 645 305 657 C 297 750 291 802 288 814 C 280 835 290 864 313 900 C 320 911 325 920 332 922 C 338 923 344 918 348 910 C 356 889 357 869 356 850 C 351 773 350 700 350 632 C 350 613 350 613 350 604 Z"/>
    <path class="bg" d="M 203 414 Q 246 407 278 402 Q 297 398 289 387 Q 279 374 256 372 Q 235 371 204 383 C 194 387 193 416 203 414 Z"/>
    <path class="bg" d="M 201 538 Q 244 531 277 526 Q 298 522 289 511 Q 279 498 256 496 Q 235 495 202 508 C 193 512 191 540 201 538 Z"/>
    <path class="bg" d="M 350 632 Q 360 625 370 617 Q 382 610 381 600 Q 377 596 364 598 Q 357 599 350 604 C 322 615 322 615 308 621 Q 256 639 200 661 C 175 670 175 670 162 674 Q 99 690 87 691 Q 74 694 73 703 Q 72 716 81 723 Q 103 736 136 753 Q 146 754 157 746 Q 193 715 305 657 C 335 640 335 640 350 632 Z"/>
    <path class="bg" d="M 479 136 C 502 167 520 188 538 195 C 546 198 554 194 560 187 C 564 180 565 172 564 162 C 561 147 554 136 545 128 C 522 110 501 100 479 100 C 475 99 471 100 469 101 C 466 101 464 105 465 113 C 465 119 471 126 479 136 Z"/>
    <path class="bg" d="M 581 266 Q 591 262 603 259 Q 628 250 633 247 Q 640 240 635 233 Q 628 224 605 220 Q 584 217 522 243 Q 474 258 420 269 Q 392 276 413 288 Q 441 303 512 284 Q 533 278 556 273 C 573 268 573 268 581 266 Z"/>
    <path class="bg" d="M 423 334 C 435 374 446 396 458 401 C 464 403 470 402 476 395 C 479 389 481 380 480 370 C 479 361 471 353 463 344 C 449 329 440 320 433 317 C 428 314 426 316 424 321 C 422 324 421 327 423 334 Z"/>
    <path class="bg" d="M 560 413 C 562 410 575 385 599 340 C 601 332 607 322 615 312 C 621 305 622 299 618 294 C 613 286 599 274 581 266 C 573 263 553 265 556 273 C 565 293 561 332 545 389 C 542 399 539 408 539 418 C 539 425 557 419 560 413 Z"/>
    <path class="bg" d="M 539 418 C 492 429 443 439 393 452 C 381 454 379 460 390 469 C 407 483 428 487 450 480 C 519 455 594 434 677 424 C 704 421 704 421 718 419 C 732 417 768 412 826 407 C 836 406 843 403 846 398 C 848 391 844 383 834 377 C 802 355 764 356 713 372 C 686 380 686 380 673 384 C 656 389 580 408 560 413 C 546 416 546 416 539 418 Z"/>
    <path class="bg" d="M 441 535 C 435 529 423 524 415 522 C 409 520 403 517 400 522 C 393 531 400 541 403 545 C 414 563 417 633 412 713 C 409 753 404 780 425 804 C 430 810 434 810 440 804 C 444 797 447 790 448 783 C 449 763 449 763 450 753 C 452 723 449 692 449 662 C 449 647 449 647 449 639 C 449 613 449 586 450 560 C 450 551 448 540 441 535 Z"/>
    <path class="bg" d="M 557 772 C 581 812 595 835 600 836 C 605 837 611 829 616 817 C 623 796 625 754 622 690 C 617 607 616 558 622 543 C 625 532 624 524 618 519 C 613 514 601 507 582 498 C 570 492 482 530 441 535 C 432 536 441 561 450 560 C 456 559 463 558 472 555 C 494 546 519 539 548 533 C 556 531 562 531 565 535 C 570 541 573 591 574 685 C 574 717 574 737 571 745 C 569 749 564 751 560 751 C 553 752 553 766 557 772 Z"/>
    <path class="bg" d="M 449 662 C 467 661 514 653 538 649 C 550 646 554 640 549 634 C 542 626 532 621 518 620 C 496 617 473 624 449 639 C 442 643 441 662 449 662 Z"/>
    <path class="bg" d="M 448 783 Q 455 784 465 782 Q 493 775 557 772 C 564 772 566 755 560 751 Q 527 726 453 752 Q 452 752 450 753 C 441 757 438 783 448 783 Z"/>
    <path class="bg" d="M 677 424 C 683 496 695 568 716 642 C 719 653 722 665 726 677 C 753 767 794 842 852 899 C 888 934 918 951 937 950 C 951 948 954 936 952 918 C 947 888 949 829 951 741 C 951 726 948 718 943 718 C 938 717 934 724 930 738 C 921 760 912 781 905 800 C 896 819 889 830 883 830 C 874 829 861 822 848 806 C 820 774 790 721 761 648 C 755 633 751 618 748 604 C 737 560 727 498 718 419 C 716 403 714 387 713 372 C 706 288 707 218 724 166 C 731 140 722 120 688 103 C 665 91 648 87 636 91 C 623 94 615 103 624 115 C 647 146 661 169 662 191 C 663 261 668 326 673 384 C 674 397 675 410 677 424 Z"/>
    <path class="bg" d="M 716 642 C 675 680 650 699 646 705 C 639 713 641 716 651 715 C 665 713 691 702 726 677 C 738 668 750 659 761 648 C 785 620 805 593 881 504 C 887 496 888 488 880 479 C 857 454 836 443 820 445 C 813 445 810 450 811 460 C 811 500 791 547 748 604 C 738 617 728 630 716 642 Z"/>
    <path class="bg" d="M 787 166 C 807 183 827 203 848 224 C 856 232 864 236 874 236 C 880 235 886 231 889 223 C 892 214 890 201 886 183 C 882 169 871 155 850 146 C 804 125 774 116 764 121 C 760 122 759 128 760 136 C 761 142 771 152 787 166 Z"/>
</g>
<g id="anim-layer">
    <path style="--d:1s; stroke:#FF4444;" pathLength="3333" clip-path="url(#z32887c1)" d="M 104 238 L 411 193"/>
    <path style="--d:2s; stroke:#FF4444;" pathLength="3333" clip-path="url(#z32887c2)" d="M 150 262 L 183 301 L 176 676"/>
    <path style="--d:3s; stroke:#FF4444;" pathLength="3333" clip-path="url(#z32887c3)" d="M 301 235 L 331 272 L 331 916"/>
    <path style="--d:4s; stroke:#FF4444;" pathLength="3333" clip-path="url(#z32887c4)" d="M 203 402 L 285 392"/>
    <path style="--d:5s; stroke:#FF4444;" pathLength="3333" clip-path="url(#z32887c5)" d="M 202 529 L 287 514"/>
    <path style="--d:6s; stroke:#FF4444;" pathLength="3333" clip-path="url(#z32887c6)" d="M 77 701 L 136 717 L 375 605"/>
    <path style="--d:7s; stroke:#000;" pathLength="3333" clip-path="url(#z32887c7)" d="M 472 105 L 553 190"/>
    <path style="--d:8s; stroke:#000;" pathLength="3333" clip-path="url(#z32887c8)" d="M 413 279 L 632 237"/>
    <path style="--d:9s; stroke:#000;" pathLength="3333" clip-path="url(#z32887c9)" d="M 430 321 L 464 397"/>
    <path style="--d:10s; stroke:#000;" pathLength="3333" clip-path="url(#z32887c10)" d="M 562 270 L 589 309 L 548 416"/>
    <path style="--d:11s; stroke:#000;" pathLength="3333" clip-path="url(#z32887c11)" d="M 389 459 L 764 386 L 842 392"/>
    <path style="--d:12s; stroke:#000;" pathLength="3333" clip-path="url(#z32887c12)" d="M 404 524 L 429 557 L 430 802"/>
    <path style="--d:13s; stroke:#000;" pathLength="3333" clip-path="url(#z32887c13)" d="M 441 543 L 569 515 L 595 534 L 596 827"/>
    <path style="--d:14s; stroke:#000;" pathLength="3333" clip-path="url(#z32887c14)" d="M 449 654 L 545 638"/>
    <path style="--d:15s; stroke:#000;" pathLength="3333" clip-path="url(#z32887c15)" d="M 444 771 L 560 761"/>
    <path style="--d:16s; stroke:#000;" pathLength="3333" clip-path="url(#z32887c16)" d="M 626 102 L 691 154 L 711 529 L 777 745 L 846 847 L 910 898 L 942 725"/>
    <path style="--d:17s; stroke:#000;" pathLength="3333" clip-path="url(#z32887c17)" d="M 818 451 L 845 496 L 808 555 L 737 645 L 650 708"/>
    <path style="--d:18s; stroke:#000;" pathLength="3333" clip-path="url(#z32887c18)" d="M 765 129 L 846 179 L 881 228"/>
</g>
</svg>