<svg id="z32900" class="acjk" viewBox="0 0 1024 1024" xmlns="http://www.w3.org/2000/svg">

<style>
<![CDATA[
@keyframes zk { to { stroke-dashoffset:0; } }
svg.acjk path[clip-path] {
    --t:0.8s;
    animation:zk var(--t) linear forwards var(--d);
    stroke-dasharray:3337;
    stroke-dashoffset:3339;
    stroke-width:128;
    stroke-linecap:round;
    fill:none;
}
/* Low opacity for background improves visual overlap at intersections */
svg.acjk .bg { fill:#ccc; opacity: 0.5; } 
]]>
</style>
<defs>
    <clipPath id="z32900c1"><path d="M 244 233 Q 319 220 401 172 Q 411 165 425 161 Q 435 157 435 149 Q 432 143 418 133 Q 387 117 369 117 Q 360 117 360 126 Q 360 156 245 217 C 240 220 239 234 244 233 Z"/></clipPath>
    <clipPath id="z32900c2"><path d="M 474 286 Q 461 255 452 203 Q 451 190 445 186 Q 439 182 436 198 Q 421 262 411 273 Q 404 283 384 289 Q 315 308 268 296 Q 253 290 250 280 Q 244 265 244 233 C 245 222 245 222 245 217 Q 248 172 258 151 Q 267 127 252 115 Q 212 87 201 89 Q 189 93 195 107 Q 211 135 208 179 Q 207 287 227 311 Q 245 329 290 335 Q 327 339 387 336 Q 441 332 461 321 Q 483 309 474 286 Z"/></clipPath>
    <clipPath id="z32900c3"><path d="M 245 439 Q 258 417 271 400 Q 278 390 267 379 Q 234 354 213 357 Q 204 358 206 370 Q 218 430 161 500 Q 148 516 140 526 Q 134 539 146 534 Q 182 528 230 462 C 240 447 240 447 245 439 Z"/></clipPath>
    <clipPath id="z32900c4"><path d="M 324 463 Q 361 453 403 445 Q 425 439 428 436 Q 435 429 431 422 Q 424 412 399 407 Q 386 404 297 429 Q 272 435 245 439 C 236 441 222 459 230 462 Q 254 471 280 471 C 309 466 309 466 324 463 Z"/></clipPath>
    <clipPath id="z32900c5"><path d="M 327 593 Q 376 581 442 572 Q 457 569 458 562 Q 459 550 442 542 Q 411 529 338 550 C 302 559 302 559 284 563 Q 149 590 100 595 Q 88 596 85 604 Q 82 614 97 625 Q 131 649 181 634 Q 233 615 277 605 C 310 597 310 597 327 593 Z"/></clipPath>
    <clipPath id="z32900c6"><path d="M 277 605 Q 240 729 147 788 Q 134 798 120 807 Q 108 814 119 817 Q 164 821 230 764 Q 302 704 326 600 Q 326 597 327 593 C 334 564 334 564 338 550 Q 338 549 339 547 Q 342 523 354 502 Q 361 486 348 479 Q 335 469 324 463 C 311 455 275 457 280 471 Q 290 490 284 563 C 279 591 279 591 277 605 Z"/></clipPath>
    <clipPath id="z32900c7"><path d="M 343 690 Q 365 715 391 747 Q 400 759 412 760 Q 419 761 425 751 Q 431 741 427 717 Q 426 698 400 680 Q 342 646 328 650 Q 324 651 323 662 Q 324 671 343 690 Z"/></clipPath>
    <clipPath id="z32900c8"><path d="M 796 396 Q 805 353 815 326 C 828 295 828 295 835 279 Q 848 257 863 244 Q 879 225 865 207 Q 849 194 796 170 Q 778 163 757 171 Q 714 187 675 198 C 642 205 642 205 626 208 Q 583 214 536 219 Q 520 220 521 230 Q 524 237 542 245 Q 567 255 602 245 Q 614 242 626 242 C 658 237 658 237 674 234 Q 755 216 767 226 Q 780 238 777 263 Q 774 276 772 292 C 767 317 767 317 765 330 Q 758 364 748 397 C 745 413 793 412 796 396 Z"/></clipPath>
    <clipPath id="z32900c9"><path d="M 815 326 Q 852 323 950 322 Q 968 321 971 314 Q 975 304 961 292 Q 910 256 849 276 Q 842 276 835 279 C 793 288 793 288 772 292 Q 700 301 672 309 C 641 314 641 314 625 317 Q 547 327 462 341 Q 444 342 458 357 Q 470 369 486 373 Q 504 377 518 373 Q 567 357 625 348 C 656 343 656 343 671 341 Q 675 335 765 330 C 798 327 798 327 815 326 Z"/></clipPath>
    <clipPath id="z32900c10"><path d="M 670 451 Q 731 441 816 434 Q 826 433 828 425 Q 828 416 798 396 C 797 396 797 396 796 396 C 781 390 764 394 748 397 Q 706 406 670 415 C 639 421 639 421 624 424 Q 566 434 515 441 Q 494 442 507 460 Q 514 469 524 473 Q 534 474 547 472 Q 578 465 624 458 C 655 453 655 453 670 451 Z"/></clipPath>
    <clipPath id="z32900c11"><path d="M 670 558 Q 686 554 785 540 Q 794 541 801 530 Q 802 520 783 512 Q 756 493 674 519 Q 671 519 670 520 C 639 527 639 527 623 530 Q 536 540 527 543 Q 503 547 522 561 Q 552 582 578 576 Q 597 570 622 567 C 654 561 654 561 670 558 Z"/></clipPath>
    <clipPath id="z32900c12"><path d="M 670 676 Q 737 666 845 664 Q 894 664 900 654 Q 904 642 889 630 Q 834 593 772 611 Q 730 621 670 634 C 637 639 637 639 620 642 Q 545 655 459 670 Q 440 673 455 689 Q 468 702 486 706 Q 507 710 522 706 Q 567 693 619 684 C 653 679 653 679 670 676 Z"/></clipPath>
    <clipPath id="z32900c13"><path d="M 619 684 Q 606 891 632 943 C 633 944 633 944 633 945 Q 646 958 655 939 Q 671 891 670 676 C 670 648 670 648 670 634 Q 670 598 670 558 C 670 533 670 533 670 520 Q 670 483 670 451 C 670 427 670 427 670 415 Q 670 375 671 341 C 672 320 672 320 672 309 Q 672 267 674 234 C 675 210 675 210 675 198 Q 675 147 696 111 Q 703 96 684 82 Q 662 63 621 53 Q 603 49 592 61 Q 582 68 594 80 Q 624 105 626 143 Q 626 171 626 208 C 626 231 626 231 626 242 Q 625 276 625 317 C 625 338 625 338 625 348 Q 624 382 624 424 C 624 447 624 447 624 458 Q 624 494 623 530 C 622 555 622 555 622 567 Q 621 607 620 642 C 619 670 619 670 619 684 Z"/></clipPath>
</defs>
<g id="bg-layer">
    <path class="bg" d="M 244 233 Q 319 220 401 172 Q 411 165 425 161 Q 435 157 435 149 Q 432 143 418 133 Q 387 117 369 117 Q 360 117 360 126 Q 360 156 245 217 C 240 220 239 234 244 233 Z"/>
    <path class="bg" d="M 474 286 Q 461 255 452 203 Q 451 190 445 186 Q 439 182 436 198 Q 421 262 411 273 Q 404 283 384 289 Q 315 308 268 296 Q 253 290 250 280 Q 244 265 244 233 C 245 222 245 222 245 217 Q 248 172 258 151 Q 267 127 252 115 Q 212 87 201 89 Q 189 93 195 107 Q 211 135 208 179 Q 207 287 227 311 Q 245 329 290 335 Q 327 339 387 336 Q 441 332 461 321 Q 483 309 474 286 Z"/>
    <path class="bg" d="M 245 439 Q 258 417 271 400 Q 278 390 267 379 Q 234 354 213 357 Q 204 358 206 370 Q 218 430 161 500 Q 148 516 140 526 Q 134 539 146 534 Q 182 528 230 462 C 240 447 240 447 245 439 Z"/>
    <path class="bg" d="M 324 463 Q 361 453 403 445 Q 425 439 428 436 Q 435 429 431 422 Q 424 412 399 407 Q 386 404 297 429 Q 272 435 245 439 C 236 441 222 459 230 462 Q 254 471 280 471 C 309 466 309 466 324 463 Z"/>
    <path class="bg" d="M 327 593 Q 376 581 442 572 Q 457 569 458 562 Q 459 550 442 542 Q 411 529 338 550 C 302 559 302 559 284 563 Q 149 590 100 595 Q 88 596 85 604 Q 82 614 97 625 Q 131 649 181 634 Q 233 615 277 605 C 310 597 310 597 327 593 Z"/>
    <path class="bg" d="M 277 605 Q 240 729 147 788 Q 134 798 120 807 Q 108 814 119 817 Q 164 821 230 764 Q 302 704 326 600 Q 326 597 327 593 C 334 564 334 564 338 550 Q 338 549 339 547 Q 342 523 354 502 Q 361 486 348 479 Q 335 469 324 463 C 311 455 275 457 280 471 Q 290 490 284 563 C 279 591 279 591 277 605 Z"/>
    <path class="bg" d="M 343 690 Q 365 715 391 747 Q 400 759 412 760 Q 419 761 425 751 Q 431 741 427 717 Q 426 698 400 680 Q 342 646 328 650 Q 324 651 323 662 Q 324 671 343 690 Z"/>
    <path class="bg" d="M 796 396 Q 805 353 815 326 C 828 295 828 295 835 279 Q 848 257 863 244 Q 879 225 865 207 Q 849 194 796 170 Q 778 163 757 171 Q 714 187 675 198 C 642 205 642 205 626 208 Q 583 214 536 219 Q 520 220 521 230 Q 524 237 542 245 Q 567 255 602 245 Q 614 242 626 242 C 658 237 658 237 674 234 Q 755 216 767 226 Q 780 238 777 263 Q 774 276 772 292 C 767 317 767 317 765 330 Q 758 364 748 397 C 745 413 793 412 796 396 Z"/>
    <path class="bg" d="M 815 326 Q 852 323 950 322 Q 968 321 971 314 Q 975 304 961 292 Q 910 256 849 276 Q 842 276 835 279 C 793 288 793 288 772 292 Q 700 301 672 309 C 641 314 641 314 625 317 Q 547 327 462 341 Q 444 342 458 357 Q 470 369 486 373 Q 504 377 518 373 Q 567 357 625 348 C 656 343 656 343 671 341 Q 675 335 765 330 C 798 327 798 327 815 326 Z"/>
    <path class="bg" d="M 670 451 Q 731 441 816 434 Q 826 433 828 425 Q 828 416 798 396 C 797 396 797 396 796 396 C 781 390 764 394 748 397 Q 706 406 670 415 C 639 421 639 421 624 424 Q 566 434 515 441 Q 494 442 507 460 Q 514 469 524 473 Q 534 474 547 472 Q 578 465 624 458 C 655 453 655 453 670 451 Z"/>
    <path class="bg" d="M 670 558 Q 686 554 785 540 Q 794 541 801 530 Q 802 520 783 512 Q 756 493 674 519 Q 671 519 670 520 C 639 527 639 527 623 530 Q 536 540 527 543 Q 503 547 522 561 Q 552 582 578 576 Q 597 570 622 567 C 654 561 654 561 670 558 Z"/>
    <path class="bg" d="M 670 676 Q 737 666 845 664 Q 894 664 900 654 Q 904 642 889 630 Q 834 593 772 611 Q 730 621 670 634 C 637 639 637 639 620 642 Q 545 655 459 670 Q 440 673 455 689 Q 468 702 486 706 Q 507 710 522 706 Q 567 693 619 684 C 653 679 653 679 670 676 Z"/>
    <path class="bg" d="M 619 684 Q 606 891 632 943 C 633 944 633 944 633 945 Q 646 958 655 939 Q 671 891 670 676 C 670 648 670 648 670 634 Q 670 598 670 558 C 670 533 670 533 670 520 Q 670 483 670 451 C 670 427 670 427 670 415 Q 670 375 671 341 C 672 320 672 320 672 309 Q 672 267 674 234 C 675 210 675 210 675 198 Q 675 147 696 111 Q 703 96 684 82 Q 662 63 621 53 Q 603 49 592 61 Q 582 68 594 80 Q 624 105 626 143 Q 626 171 626 208 C 626 231 626 231 626 242 Q 625 276 625 317 C 625 338 625 338 625 348 Q 624 382 624 424 C 624 447 624 447 624 458 Q 624 494 623 530 C 622 555 622 555 622 567 Q 621 607 620 642 C 619 670 619 670 619 684 Z"/>
</g>
<g id="anim-layer">
    <path style="--d:1s; stroke:#FF4444;" pathLength="3333" clip-path="url(#z32900c1)" d="M 369 123 L 385 156 L 249 226"/>
    <path style="--d:2s; stroke:#FF4444;" pathLength="3333" clip-path="url(#z32900c2)" d="M 201 95 L 232 131 L 227 254 L 259 310 L 341 318 L 436 296 L 442 191"/>
    <path style="--d:3s; stroke:#FF4444;" pathLength="3333" clip-path="url(#z32900c3)" d="M 212 363 L 239 404 L 144 529"/>
    <path style="--d:4s; stroke:#FF4444;" pathLength="3333" clip-path="url(#z32900c4)" d="M 236 457 L 424 424"/>
    <path style="--d:5s; stroke:#FF4444;" pathLength="3333" clip-path="url(#z32900c5)" d="M 90 607 L 151 614 L 453 559"/>
    <path style="--d:6s; stroke:#FF4444;" pathLength="3333" clip-path="url(#z32900c6)" d="M 288 468 L 321 505 L 278 668 L 205 763 L 122 810"/>
    <path style="--d:7s; stroke:#FF4444;" pathLength="3333" clip-path="url(#z32900c7)" d="M 329 658 L 417 755"/>
    <path style="--d:8s; stroke:#000;" pathLength="3333" clip-path="url(#z32900c8)" d="M 527 228 L 765 195 L 817 221 L 761 405"/>
    <path style="--d:9s; stroke:#000;" pathLength="3333" clip-path="url(#z32900c9)" d="M 460 347 L 888 296 L 968 308"/>
    <path style="--d:10s; stroke:#000;" pathLength="3333" clip-path="url(#z32900c10)" d="M 509 449 L 820 422"/>
    <path style="--d:11s; stroke:#000;" pathLength="3333" clip-path="url(#z32900c11)" d="M 522 550 L 796 527"/>
    <path style="--d:12s; stroke:#000;" pathLength="3333" clip-path="url(#z32900c12)" d="M 453 676 L 505 685 L 789 636 L 897 649"/>
    <path style="--d:13s; stroke:#000;" pathLength="3333" clip-path="url(#z32900c13)" d="M 594 71 L 661 118 L 641 944"/>
</g>
</svg>