<svg id="z33000" class="acjk" viewBox="0 0 1024 1024" xmlns="http://www.w3.org/2000/svg">

<style>
<![CDATA[
@keyframes zk { to { stroke-dashoffset:0; } }
svg.acjk path[clip-path] {
    --t:0.8s;
    animation:zk var(--t) linear forwards var(--d);
    stroke-dasharray:3337;
    stroke-dashoffset:3339;
    stroke-width:128;
    stroke-linecap:round;
    fill:none;
}
/* Low opacity for background improves visual overlap at intersections */
svg.acjk .bg { fill:#ccc; opacity: 0.5; } 
]]>
</style>
<defs>
    <clipPath id="z33000c1"><path d="M 232 499 Q 238 445 240 392 C 240 367 240 367 240 354 Q 240 240 242 216 C 242 205 241 191 232 185 Q 216 175 192 167 Q 173 158 161 165 Q 151 172 159 185 Q 180 209 185 273 Q 185 285 187 300 Q 197 459 169 595 Q 144 706 79 830 Q 75 837 74 843 Q 73 853 83 850 Q 111 841 174 718 Q 186 688 198 656 Q 214 601 226 539 C 230 512 230 512 232 499 Z"/></clipPath>
    <clipPath id="z33000c2"><path d="M 242 216 Q 254 216 316 198 Q 335 192 341 203 Q 356 245 354 524 Q 351 752 337 772 Q 333 778 313 773 Q 286 766 259 758 Q 240 751 240 761 Q 295 812 326 849 Q 339 868 354 874 Q 364 878 372 868 Q 414 825 413 766 Q 389 273 418 216 Q 431 197 418 186 Q 397 167 360 152 Q 339 143 293 169 Q 263 178 232 185 C 221 187 231 216 242 216 Z"/></clipPath>
    <clipPath id="z33000c3"><path d="M 240 392 Q 279 385 309 379 Q 333 372 322 360 Q 309 347 282 345 Q 263 345 240 354 C 228 359 228 394 240 392 Z"/></clipPath>
    <clipPath id="z33000c4"><path d="M 226 539 Q 272 530 307 527 Q 332 521 322 508 Q 309 493 282 491 Q 261 490 232 499 C 219 502 213 542 226 539 Z"/></clipPath>
    <clipPath id="z33000c5"><path d="M 614 304 Q 825 256 831 253 Q 840 246 835 236 Q 828 224 798 217 Q 767 210 736 223 Q 685 239 632 254 C 600 261 600 261 584 264 Q 542 270 498 274 Q 461 280 487 298 Q 520 316 568 313 C 599 307 599 307 614 304 Z"/></clipPath>
    <clipPath id="z33000c6"><path d="M 715 533 Q 890 511 894 509 Q 895 506 896 505 Q 897 490 868 473 Q 847 461 719 489 C 682 496 682 496 663 499 Q 611 506 554 515 Q 535 518 533 514 Q 532 510 539 494 Q 567 427 614 304 C 626 271 626 271 632 254 Q 668 158 690 139 Q 708 124 697 113 Q 642 65 619 69 Q 609 70 616 91 Q 625 130 584 264 C 573 297 573 297 568 313 Q 517 463 467 508 Q 445 526 461 572 Q 467 588 483 581 Q 567 550 664 540 C 698 535 698 535 715 533 Z"/></clipPath>
    <clipPath id="z33000c7"><path d="M 719 489 Q 722 473 727 461 Q 736 442 719 429 Q 694 407 664 398 Q 645 391 637 399 Q 631 406 642 421 Q 663 457 663 499 C 664 526 664 526 664 540 Q 670 775 649 792 Q 640 798 562 784 Q 550 783 551 790 Q 552 797 563 804 Q 633 862 659 898 Q 674 914 689 900 Q 723 869 722 795 Q 715 741 715 533 C 718 504 718 504 719 489 Z"/></clipPath>
    <clipPath id="z33000c8"><path d="M 525 635 Q 497 692 461 743 Q 440 771 454 804 Q 460 820 480 810 Q 534 774 545 689 Q 552 659 546 636 Q 542 629 537 627 Q 530 628 525 635 Z"/></clipPath>
    <clipPath id="z33000c9"><path d="M 794 649 Q 840 701 895 776 Q 908 798 924 805 Q 933 806 941 798 Q 956 785 947 740 Q 946 715 929 697 Q 913 681 871 656 Q 825 629 799 617 Q 790 611 787 623 Q 786 636 794 649 Z"/></clipPath>
</defs>
<g id="bg-layer">
    <path class="bg" d="M 232 499 Q 238 445 240 392 C 240 367 240 367 240 354 Q 240 240 242 216 C 242 205 241 191 232 185 Q 216 175 192 167 Q 173 158 161 165 Q 151 172 159 185 Q 180 209 185 273 Q 185 285 187 300 Q 197 459 169 595 Q 144 706 79 830 Q 75 837 74 843 Q 73 853 83 850 Q 111 841 174 718 Q 186 688 198 656 Q 214 601 226 539 C 230 512 230 512 232 499 Z"/>
    <path class="bg" d="M 242 216 Q 254 216 316 198 Q 335 192 341 203 Q 356 245 354 524 Q 351 752 337 772 Q 333 778 313 773 Q 286 766 259 758 Q 240 751 240 761 Q 295 812 326 849 Q 339 868 354 874 Q 364 878 372 868 Q 414 825 413 766 Q 389 273 418 216 Q 431 197 418 186 Q 397 167 360 152 Q 339 143 293 169 Q 263 178 232 185 C 221 187 231 216 242 216 Z"/>
    <path class="bg" d="M 240 392 Q 279 385 309 379 Q 333 372 322 360 Q 309 347 282 345 Q 263 345 240 354 C 228 359 228 394 240 392 Z"/>
    <path class="bg" d="M 226 539 Q 272 530 307 527 Q 332 521 322 508 Q 309 493 282 491 Q 261 490 232 499 C 219 502 213 542 226 539 Z"/>
    <path class="bg" d="M 614 304 Q 825 256 831 253 Q 840 246 835 236 Q 828 224 798 217 Q 767 210 736 223 Q 685 239 632 254 C 600 261 600 261 584 264 Q 542 270 498 274 Q 461 280 487 298 Q 520 316 568 313 C 599 307 599 307 614 304 Z"/>
    <path class="bg" d="M 715 533 Q 890 511 894 509 Q 895 506 896 505 Q 897 490 868 473 Q 847 461 719 489 C 682 496 682 496 663 499 Q 611 506 554 515 Q 535 518 533 514 Q 532 510 539 494 Q 567 427 614 304 C 626 271 626 271 632 254 Q 668 158 690 139 Q 708 124 697 113 Q 642 65 619 69 Q 609 70 616 91 Q 625 130 584 264 C 573 297 573 297 568 313 Q 517 463 467 508 Q 445 526 461 572 Q 467 588 483 581 Q 567 550 664 540 C 698 535 698 535 715 533 Z"/>
    <path class="bg" d="M 719 489 Q 722 473 727 461 Q 736 442 719 429 Q 694 407 664 398 Q 645 391 637 399 Q 631 406 642 421 Q 663 457 663 499 C 664 526 664 526 664 540 Q 670 775 649 792 Q 640 798 562 784 Q 550 783 551 790 Q 552 797 563 804 Q 633 862 659 898 Q 674 914 689 900 Q 723 869 722 795 Q 715 741 715 533 C 718 504 718 504 719 489 Z"/>
    <path class="bg" d="M 525 635 Q 497 692 461 743 Q 440 771 454 804 Q 460 820 480 810 Q 534 774 545 689 Q 552 659 546 636 Q 542 629 537 627 Q 530 628 525 635 Z"/>
    <path class="bg" d="M 794 649 Q 840 701 895 776 Q 908 798 924 805 Q 933 806 941 798 Q 956 785 947 740 Q 946 715 929 697 Q 913 681 871 656 Q 825 629 799 617 Q 790 611 787 623 Q 786 636 794 649 Z"/>
</g>
<g id="anim-layer">
    <path style="--d:1s; stroke:#FF4444;" pathLength="3333" clip-path="url(#z33000c1)" d="M 163 173 L 210 220 L 208 500 L 166 681 L 80 842"/>
    <path style="--d:2s; stroke:#FF4444;" pathLength="3333" clip-path="url(#z33000c2)" d="M 239 190 L 335 173 L 384 208 L 375 782 L 349 824 L 250 764"/>
    <path style="--d:3s; stroke:#FF4444;" pathLength="3333" clip-path="url(#z33000c3)" d="M 247 383 L 320 365"/>
    <path style="--d:4s; stroke:#FF4444;" pathLength="3333" clip-path="url(#z33000c4)" d="M 233 530 L 317 510"/>
    <path style="--d:5s; stroke:#000;" pathLength="3333" clip-path="url(#z33000c5)" d="M 485 286 L 572 289 L 832 236"/>
    <path style="--d:6s; stroke:#000;" pathLength="3333" clip-path="url(#z33000c6)" d="M 621 75 L 658 127 L 498 544 L 890 499"/>
    <path style="--d:7s; stroke:#000;" pathLength="3333" clip-path="url(#z33000c7)" d="M 642 403 L 694 455 L 685 815 L 659 854 L 559 790"/>
    <path style="--d:8s; stroke:#000;" pathLength="3333" clip-path="url(#z33000c8)" d="M 537 633 L 467 809"/>
    <path style="--d:9s; stroke:#000;" pathLength="3333" clip-path="url(#z33000c9)" d="M 794 625 L 898 718 L 936 800"/>
</g>
</svg>