<svg id="z33145" class="acjk" viewBox="0 0 1024 1024" xmlns="http://www.w3.org/2000/svg">

<style>
<![CDATA[
@keyframes zk { to { stroke-dashoffset:0; } }
svg.acjk path[clip-path] {
    --t:0.8s;
    animation:zk var(--t) linear forwards var(--d);
    stroke-dasharray:3337;
    stroke-dashoffset:3339;
    stroke-width:128;
    stroke-linecap:round;
    fill:none;
}
/* Low opacity for background improves visual overlap at intersections */
svg.acjk .bg { fill:#ccc; opacity: 0.5; } 
]]>
</style>
<defs>
    <clipPath id="z33145c1"><path d="M 206 188 Q 161 164 144 172 Q 134 179 141 193 Q 162 217 167 290 Q 167 300 168 313 Q 177 491 145 619 Q 118 719 48 861 Q 44 868 42 874 Q 41 884 51 882 Q 88 870 152 736 Q 162 711 173 682 Q 192 624 205 557 C 208 536 208 536 210 525 Q 210 524 211 522 Q 218 461 221 400 C 222 377 222 377 222 365 Q 222 242 230 217 C 232 205 217 194 206 188 Z"/></clipPath>
    <clipPath id="z33145c2"><path d="M 390 709 Q 369 256 393 212 Q 405 193 393 182 Q 371 164 335 149 Q 316 142 301 150 Q 274 166 258 173 Q 240 180 206 188 C 194 190 218 221 230 217 Q 233 216 239 214 Q 266 205 292 196 Q 311 190 317 200 Q 332 239 332 525 Q 332 756 315 783 Q 311 789 242 780 Q 218 777 221 785 Q 278 827 310 858 Q 323 877 340 881 Q 349 885 357 874 Q 390 829 392 760 Q 391 742 390 723 C 390 714 390 714 390 709 Z"/></clipPath>
    <clipPath id="z33145c3"><path d="M 221 400 Q 261 391 291 385 Q 312 378 302 367 Q 290 355 266 355 Q 248 355 222 365 C 211 369 210 402 221 400 Z"/></clipPath>
    <clipPath id="z33145c4"><path d="M 291 541 Q 312 534 302 523 Q 290 511 266 510 Q 244 510 210 525 C 200 529 194 559 205 557 C 262 546 262 546 291 541 Z"/></clipPath>
    <clipPath id="z33145c5"><path d="M 558 162 Q 576 128 594 99 Q 603 86 588 73 Q 543 43 518 48 Q 508 51 511 65 Q 529 149 447 259 Q 435 269 412 304 Q 405 320 420 314 Q 481 296 546 185 C 554 170 554 170 558 162 Z"/></clipPath>
    <clipPath id="z33145c6"><path d="M 546 185 Q 562 192 586 198 Q 611 201 706 179 Q 832 149 836 145 Q 845 136 840 128 Q 831 116 802 110 Q 771 104 741 118 Q 701 131 659 144 Q 613 154 558 162 C 549 163 538 182 546 185 Z"/></clipPath>
    <clipPath id="z33145c7"><path d="M 555 508 Q 556 502 558 496 C 562 486 561 475 561 465 Q 561 462 556 404 C 555 386 555 386 554 377 Q 551 328 551 314 C 551 302 538 291 527 286 Q 517 282 502 278 Q 490 274 487 279 Q 480 283 487 300 Q 509 358 518 452 Q 518 479 533 499 C 537 506 553 516 555 508 Z"/></clipPath>
    <clipPath id="z33145c8"><path d="M 679 484 Q 680 487 683 491 Q 702 528 728 501 Q 740 488 754 450 Q 766 357 797 320 Q 812 301 799 285 Q 781 266 750 246 Q 734 239 717 244 Q 629 272 527 286 C 515 288 539 316 551 314 Q 695 277 715 289 Q 722 293 718 317 Q 708 381 699 436 Q 695 451 688 457 C 681 464 675 476 679 484 Z"/></clipPath>
    <clipPath id="z33145c9"><path d="M 556 404 Q 620 395 668 387 Q 690 383 681 371 Q 671 358 647 354 Q 601 351 554 377 C 546 382 547 406 556 404 Z"/></clipPath>
    <clipPath id="z33145c10"><path d="M 558 496 Q 582 487 679 484 C 688 484 695 464 688 457 Q 684 453 678 449 Q 663 442 637 448 Q 595 458 561 465 C 551 467 548 500 558 496 Z"/></clipPath>
    <clipPath id="z33145c11"><path d="M 571 570 Q 577 563 584 555 Q 594 545 583 530 Q 570 517 555 508 C 540 502 540 502 533 499 Q 529 498 526 498 Q 516 499 517 512 Q 518 597 422 681 Q 401 697 390 709 C 387 712 385 723 390 723 Q 426 723 503 651 C 515 638 515 638 521 632 Q 524 626 550 596 C 564 579 564 579 571 570 Z"/></clipPath>
    <clipPath id="z33145c12"><path d="M 611 751 Q 542 817 401 849 Q 388 852 398 861 Q 404 865 448 863 Q 550 854 642 785 C 663 763 663 763 674 752 Q 711 706 745 639 Q 760 612 781 596 Q 800 583 789 568 Q 779 555 748 541 Q 726 531 698 542 Q 673 551 639 559 Q 612 565 571 570 C 560 572 539 592 550 596 Q 583 606 627 597 Q 670 582 677 582 Q 698 586 690 608 Q 671 675 637 722 C 620 741 620 741 611 751 Z"/></clipPath>
    <clipPath id="z33145c13"><path d="M 503 651 Q 537 667 611 751 C 632 774 632 774 642 785 Q 688 834 766 896 Q 794 915 833 905 Q 885 893 923 884 Q 935 881 946 875 Q 953 868 941 861 Q 928 854 814 824 Q 754 811 674 752 C 649 732 649 732 637 722 Q 603 691 563 653 Q 547 637 521 632 C 512 631 495 647 503 651 Z"/></clipPath>
</defs>
<g id="bg-layer">
    <path class="bg" d="M 206 188 Q 161 164 144 172 Q 134 179 141 193 Q 162 217 167 290 Q 167 300 168 313 Q 177 491 145 619 Q 118 719 48 861 Q 44 868 42 874 Q 41 884 51 882 Q 88 870 152 736 Q 162 711 173 682 Q 192 624 205 557 C 208 536 208 536 210 525 Q 210 524 211 522 Q 218 461 221 400 C 222 377 222 377 222 365 Q 222 242 230 217 C 232 205 217 194 206 188 Z"/>
    <path class="bg" d="M 390 709 Q 369 256 393 212 Q 405 193 393 182 Q 371 164 335 149 Q 316 142 301 150 Q 274 166 258 173 Q 240 180 206 188 C 194 190 218 221 230 217 Q 233 216 239 214 Q 266 205 292 196 Q 311 190 317 200 Q 332 239 332 525 Q 332 756 315 783 Q 311 789 242 780 Q 218 777 221 785 Q 278 827 310 858 Q 323 877 340 881 Q 349 885 357 874 Q 390 829 392 760 Q 391 742 390 723 C 390 714 390 714 390 709 Z"/>
    <path class="bg" d="M 221 400 Q 261 391 291 385 Q 312 378 302 367 Q 290 355 266 355 Q 248 355 222 365 C 211 369 210 402 221 400 Z"/>
    <path class="bg" d="M 291 541 Q 312 534 302 523 Q 290 511 266 510 Q 244 510 210 525 C 200 529 194 559 205 557 C 262 546 262 546 291 541 Z"/>
    <path class="bg" d="M 558 162 Q 576 128 594 99 Q 603 86 588 73 Q 543 43 518 48 Q 508 51 511 65 Q 529 149 447 259 Q 435 269 412 304 Q 405 320 420 314 Q 481 296 546 185 C 554 170 554 170 558 162 Z"/>
    <path class="bg" d="M 546 185 Q 562 192 586 198 Q 611 201 706 179 Q 832 149 836 145 Q 845 136 840 128 Q 831 116 802 110 Q 771 104 741 118 Q 701 131 659 144 Q 613 154 558 162 C 549 163 538 182 546 185 Z"/>
    <path class="bg" d="M 555 508 Q 556 502 558 496 C 562 486 561 475 561 465 Q 561 462 556 404 C 555 386 555 386 554 377 Q 551 328 551 314 C 551 302 538 291 527 286 Q 517 282 502 278 Q 490 274 487 279 Q 480 283 487 300 Q 509 358 518 452 Q 518 479 533 499 C 537 506 553 516 555 508 Z"/>
    <path class="bg" d="M 679 484 Q 680 487 683 491 Q 702 528 728 501 Q 740 488 754 450 Q 766 357 797 320 Q 812 301 799 285 Q 781 266 750 246 Q 734 239 717 244 Q 629 272 527 286 C 515 288 539 316 551 314 Q 695 277 715 289 Q 722 293 718 317 Q 708 381 699 436 Q 695 451 688 457 C 681 464 675 476 679 484 Z"/>
    <path class="bg" d="M 556 404 Q 620 395 668 387 Q 690 383 681 371 Q 671 358 647 354 Q 601 351 554 377 C 546 382 547 406 556 404 Z"/>
    <path class="bg" d="M 558 496 Q 582 487 679 484 C 688 484 695 464 688 457 Q 684 453 678 449 Q 663 442 637 448 Q 595 458 561 465 C 551 467 548 500 558 496 Z"/>
    <path class="bg" d="M 571 570 Q 577 563 584 555 Q 594 545 583 530 Q 570 517 555 508 C 540 502 540 502 533 499 Q 529 498 526 498 Q 516 499 517 512 Q 518 597 422 681 Q 401 697 390 709 C 387 712 385 723 390 723 Q 426 723 503 651 C 515 638 515 638 521 632 Q 524 626 550 596 C 564 579 564 579 571 570 Z"/>
    <path class="bg" d="M 611 751 Q 542 817 401 849 Q 388 852 398 861 Q 404 865 448 863 Q 550 854 642 785 C 663 763 663 763 674 752 Q 711 706 745 639 Q 760 612 781 596 Q 800 583 789 568 Q 779 555 748 541 Q 726 531 698 542 Q 673 551 639 559 Q 612 565 571 570 C 560 572 539 592 550 596 Q 583 606 627 597 Q 670 582 677 582 Q 698 586 690 608 Q 671 675 637 722 C 620 741 620 741 611 751 Z"/>
    <path class="bg" d="M 503 651 Q 537 667 611 751 C 632 774 632 774 642 785 Q 688 834 766 896 Q 794 915 833 905 Q 885 893 923 884 Q 935 881 946 875 Q 953 868 941 861 Q 928 854 814 824 Q 754 811 674 752 C 649 732 649 732 637 722 Q 603 691 563 653 Q 547 637 521 632 C 512 631 495 647 503 651 Z"/>
</g>
<g id="anim-layer">
    <path style="--d:1s; stroke:#FF4444;" pathLength="3333" clip-path="url(#z33145c1)" d="M 146 175 L 195 227 L 189 503 L 144 695 L 50 874"/>
    <path style="--d:2s; stroke:#FF4444;" pathLength="3333" clip-path="url(#z33145c2)" d="M 214 189 L 315 170 L 360 207 L 355 778 L 328 833 L 230 784"/>
    <path style="--d:3s; stroke:#FF4444;" pathLength="3333" clip-path="url(#z33145c3)" d="M 227 391 L 299 374"/>
    <path style="--d:4s; stroke:#FF4444;" pathLength="3333" clip-path="url(#z33145c4)" d="M 214 548 L 297 528"/>
    <path style="--d:5s; stroke:#000;" pathLength="3333" clip-path="url(#z33145c5)" d="M 519 53 L 555 93 L 540 136 L 488 235 L 417 308"/>
    <path style="--d:6s; stroke:#000;" pathLength="3333" clip-path="url(#z33145c6)" d="M 551 180 L 835 132"/>
    <path style="--d:7s; stroke:#000;" pathLength="3333" clip-path="url(#z33145c7)" d="M 493 287 L 525 331 L 547 502"/>
    <path style="--d:8s; stroke:#000;" pathLength="3333" clip-path="url(#z33145c8)" d="M 537 287 L 714 265 L 755 287 L 727 442 L 693 502"/>
    <path style="--d:9s; stroke:#000;" pathLength="3333" clip-path="url(#z33145c9)" d="M 564 396 L 677 372"/>
    <path style="--d:10s; stroke:#000;" pathLength="3333" clip-path="url(#z33145c10)" d="M 562 487 L 682 461"/>
    <path style="--d:11s; stroke:#000;" pathLength="3333" clip-path="url(#z33145c11)" d="M 525 506 L 549 551 L 472 656 L 395 715"/>
    <path style="--d:12s; stroke:#000;" pathLength="3333" clip-path="url(#z33145c12)" d="M 562 593 L 726 570 L 742 593 L 679 703 L 551 817 L 405 855"/>
    <path style="--d:13s; stroke:#000;" pathLength="3333" clip-path="url(#z33145c13)" d="M 514 645 L 778 855 L 939 873"/>
</g>
</svg>