<svg id="z33203" class="acjk" viewBox="0 0 1024 1024" xmlns="http://www.w3.org/2000/svg">

<style>
<![CDATA[
@keyframes zk { to { stroke-dashoffset:0; } }
svg.acjk path[clip-path] {
    --t:0.8s;
    animation:zk var(--t) linear forwards var(--d);
    stroke-dasharray:3337;
    stroke-dashoffset:3339;
    stroke-width:128;
    stroke-linecap:round;
    fill:none;
}
/* Low opacity for background improves visual overlap at intersections */
svg.acjk .bg { fill:#ccc; opacity: 0.5; } 
]]>
</style>
<defs>
    <clipPath id="z33203c1"><path d="M 198 510 Q 199 494 204 477 Q 210 431 213 385 C 214 365 214 365 215 355 Q 216 328 217 303 Q 217 204 223 198 C 227 188 213 177 204 170 Q 171 146 150 155 Q 141 162 147 173 Q 162 191 170 243 Q 170 442 149 551 Q 146 558 145 567 Q 115 672 52 789 Q 48 795 47 800 Q 46 810 54 807 Q 66 804 98 756 Q 155 681 191 539 C 196 520 196 520 198 510 Z"/></clipPath>
    <clipPath id="z33203c2"><path d="M 223 198 Q 226 197 233 195 Q 254 188 275 181 Q 293 177 298 186 Q 310 219 315 509 Q 315 737 302 757 Q 262 756 221 754 Q 220 754 221 756 Q 269 796 296 825 Q 309 843 322 846 Q 331 850 338 841 Q 374 793 371 747 Q 344 266 363 206 Q 364 200 367 196 Q 377 178 367 169 Q 348 153 314 139 Q 298 133 284 140 Q 262 153 246 159 Q 230 163 204 170 C 193 172 212 200 223 198 Z"/></clipPath>
    <clipPath id="z33203c3"><path d="M 213 385 Q 250 378 279 373 Q 298 369 289 358 Q 279 348 258 345 Q 240 345 215 355 C 206 359 203 387 213 385 Z"/></clipPath>
    <clipPath id="z33203c4"><path d="M 191 539 Q 242 530 281 525 Q 300 521 293 510 Q 283 498 263 496 Q 224 493 198 510 C 189 515 181 541 191 539 Z"/></clipPath>
    <clipPath id="z33203c5"><path d="M 496 158 Q 514 177 534 201 Q 544 214 558 214 Q 568 214 573 203 Q 577 191 573 165 Q 564 135 495 116 Q 482 112 476 113 Q 472 117 472 128 Q 473 138 496 158 Z"/></clipPath>
    <clipPath id="z33203c6"><path d="M 688 110 Q 679 126 630 198 Q 621 214 637 211 Q 676 189 697 173 Q 760 125 768 123 Q 787 113 777 97 Q 764 81 739 69 Q 715 57 704 60 Q 691 61 696 75 Q 700 91 688 110 Z"/></clipPath>
    <clipPath id="z33203c7"><path d="M 623 280 Q 677 270 735 263 Q 778 256 785 250 Q 794 243 790 235 Q 784 223 758 216 Q 737 210 620 238 Q 515 253 470 255 Q 436 259 460 275 Q 493 299 576 286 C 577 286 577 286 578 286 C 608 282 608 282 623 280 Z"/></clipPath>
    <clipPath id="z33203c8"><path d="M 635 374 Q 743 359 749 355 Q 756 349 754 342 Q 748 332 726 324 Q 711 320 636 335 C 605 341 605 341 590 344 Q 544 350 493 351 Q 463 354 483 369 Q 511 387 590 380 C 620 376 620 376 635 374 Z"/></clipPath>
    <clipPath id="z33203c9"><path d="M 631 467 Q 650 464 802 449 Q 811 450 820 440 Q 821 430 801 419 Q 773 398 713 414 Q 677 420 641 428 Q 635 429 633 430 C 604 435 604 435 590 437 Q 551 441 519 444 Q 479 445 433 450 Q 408 453 426 469 Q 448 487 488 488 Q 533 479 590 472 C 617 469 617 469 631 467 Z"/></clipPath>
    <clipPath id="z33203c10"><path d="M 628 599 Q 629 529 631 467 C 632 442 632 442 633 430 Q 633 400 635 374 C 636 348 636 348 636 335 Q 639 296 636 291 Q 629 284 623 280 C 611 271 570 273 578 286 Q 590 304 590 344 C 590 368 590 368 590 380 Q 590 402 590 437 C 590 460 590 460 590 472 Q 590 526 590 604 C 590 617 628 612 628 599 Z"/></clipPath>
    <clipPath id="z33203c11"><path d="M 456 532 Q 484 581 504 585 Q 514 586 522 573 Q 523 563 519 544 Q 512 534 497 526 Q 473 513 463 510 Q 456 507 453 517 Q 452 524 456 532 Z"/></clipPath>
    <clipPath id="z33203c12"><path d="M 729 502 Q 713 523 681 553 Q 675 559 679 564 Q 685 567 691 564 Q 755 536 785 528 Q 800 527 798 517 Q 795 504 782 486 Q 769 470 752 465 Q 740 464 738 479 Q 739 491 729 502 Z"/></clipPath>
    <clipPath id="z33203c13"><path d="M 590 604 Q 493 613 384 624 Q 365 625 378 642 Q 406 667 451 658 Q 652 607 907 627 Q 926 627 930 620 Q 934 610 920 596 Q 875 562 841 567 Q 765 582 635 598 Q 631 598 628 599 C 603 602 603 602 590 604 Z"/></clipPath>
    <clipPath id="z33203c14"><path d="M 485 718 Q 475 714 457 712 Q 447 708 443 713 Q 437 719 445 734 Q 469 783 484 862 Q 487 886 501 901 Q 517 922 522 907 Q 526 897 526 879 C 523 857 523 857 522 846 Q 510 767 509 746 C 509 734 496 723 485 718 Z"/></clipPath>
    <clipPath id="z33203c15"><path d="M 752 832 Q 777 762 805 745 Q 821 729 808 711 Q 793 698 744 673 Q 728 666 707 673 Q 634 700 485 718 C 473 720 497 748 509 746 Q 513 746 688 718 Q 707 714 716 722 Q 723 729 721 746 Q 714 789 703 826 C 697 841 746 847 752 832 Z"/></clipPath>
    <clipPath id="z33203c16"><path d="M 526 879 Q 533 880 546 880 Q 616 870 765 869 Q 775 869 778 860 Q 778 853 752 832 C 739 822 719 823 703 826 Q 601 842 522 846 C 511 846 515 877 526 879 Z"/></clipPath>
</defs>
<g id="bg-layer">
    <path class="bg" d="M 198 510 Q 199 494 204 477 Q 210 431 213 385 C 214 365 214 365 215 355 Q 216 328 217 303 Q 217 204 223 198 C 227 188 213 177 204 170 Q 171 146 150 155 Q 141 162 147 173 Q 162 191 170 243 Q 170 442 149 551 Q 146 558 145 567 Q 115 672 52 789 Q 48 795 47 800 Q 46 810 54 807 Q 66 804 98 756 Q 155 681 191 539 C 196 520 196 520 198 510 Z"/>
    <path class="bg" d="M 223 198 Q 226 197 233 195 Q 254 188 275 181 Q 293 177 298 186 Q 310 219 315 509 Q 315 737 302 757 Q 262 756 221 754 Q 220 754 221 756 Q 269 796 296 825 Q 309 843 322 846 Q 331 850 338 841 Q 374 793 371 747 Q 344 266 363 206 Q 364 200 367 196 Q 377 178 367 169 Q 348 153 314 139 Q 298 133 284 140 Q 262 153 246 159 Q 230 163 204 170 C 193 172 212 200 223 198 Z"/>
    <path class="bg" d="M 213 385 Q 250 378 279 373 Q 298 369 289 358 Q 279 348 258 345 Q 240 345 215 355 C 206 359 203 387 213 385 Z"/>
    <path class="bg" d="M 191 539 Q 242 530 281 525 Q 300 521 293 510 Q 283 498 263 496 Q 224 493 198 510 C 189 515 181 541 191 539 Z"/>
    <path class="bg" d="M 496 158 Q 514 177 534 201 Q 544 214 558 214 Q 568 214 573 203 Q 577 191 573 165 Q 564 135 495 116 Q 482 112 476 113 Q 472 117 472 128 Q 473 138 496 158 Z"/>
    <path class="bg" d="M 688 110 Q 679 126 630 198 Q 621 214 637 211 Q 676 189 697 173 Q 760 125 768 123 Q 787 113 777 97 Q 764 81 739 69 Q 715 57 704 60 Q 691 61 696 75 Q 700 91 688 110 Z"/>
    <path class="bg" d="M 623 280 Q 677 270 735 263 Q 778 256 785 250 Q 794 243 790 235 Q 784 223 758 216 Q 737 210 620 238 Q 515 253 470 255 Q 436 259 460 275 Q 493 299 576 286 C 577 286 577 286 578 286 C 608 282 608 282 623 280 Z"/>
    <path class="bg" d="M 635 374 Q 743 359 749 355 Q 756 349 754 342 Q 748 332 726 324 Q 711 320 636 335 C 605 341 605 341 590 344 Q 544 350 493 351 Q 463 354 483 369 Q 511 387 590 380 C 620 376 620 376 635 374 Z"/>
    <path class="bg" d="M 631 467 Q 650 464 802 449 Q 811 450 820 440 Q 821 430 801 419 Q 773 398 713 414 Q 677 420 641 428 Q 635 429 633 430 C 604 435 604 435 590 437 Q 551 441 519 444 Q 479 445 433 450 Q 408 453 426 469 Q 448 487 488 488 Q 533 479 590 472 C 617 469 617 469 631 467 Z"/>
    <path class="bg" d="M 628 599 Q 629 529 631 467 C 632 442 632 442 633 430 Q 633 400 635 374 C 636 348 636 348 636 335 Q 639 296 636 291 Q 629 284 623 280 C 611 271 570 273 578 286 Q 590 304 590 344 C 590 368 590 368 590 380 Q 590 402 590 437 C 590 460 590 460 590 472 Q 590 526 590 604 C 590 617 628 612 628 599 Z"/>
    <path class="bg" d="M 456 532 Q 484 581 504 585 Q 514 586 522 573 Q 523 563 519 544 Q 512 534 497 526 Q 473 513 463 510 Q 456 507 453 517 Q 452 524 456 532 Z"/>
    <path class="bg" d="M 729 502 Q 713 523 681 553 Q 675 559 679 564 Q 685 567 691 564 Q 755 536 785 528 Q 800 527 798 517 Q 795 504 782 486 Q 769 470 752 465 Q 740 464 738 479 Q 739 491 729 502 Z"/>
    <path class="bg" d="M 590 604 Q 493 613 384 624 Q 365 625 378 642 Q 406 667 451 658 Q 652 607 907 627 Q 926 627 930 620 Q 934 610 920 596 Q 875 562 841 567 Q 765 582 635 598 Q 631 598 628 599 C 603 602 603 602 590 604 Z"/>
    <path class="bg" d="M 485 718 Q 475 714 457 712 Q 447 708 443 713 Q 437 719 445 734 Q 469 783 484 862 Q 487 886 501 901 Q 517 922 522 907 Q 526 897 526 879 C 523 857 523 857 522 846 Q 510 767 509 746 C 509 734 496 723 485 718 Z"/>
    <path class="bg" d="M 752 832 Q 777 762 805 745 Q 821 729 808 711 Q 793 698 744 673 Q 728 666 707 673 Q 634 700 485 718 C 473 720 497 748 509 746 Q 513 746 688 718 Q 707 714 716 722 Q 723 729 721 746 Q 714 789 703 826 C 697 841 746 847 752 832 Z"/>
    <path class="bg" d="M 526 879 Q 533 880 546 880 Q 616 870 765 869 Q 775 869 778 860 Q 778 853 752 832 C 739 822 719 823 703 826 Q 601 842 522 846 C 511 846 515 877 526 879 Z"/>
</g>
<g id="anim-layer">
    <path style="--d:1s; stroke:#FF4444;" pathLength="3333" clip-path="url(#z33203c1)" d="M 151 162 L 192 204 L 182 474 L 146 624 L 53 801"/>
    <path style="--d:2s; stroke:#FF4444;" pathLength="3333" clip-path="url(#z33203c2)" d="M 213 173 L 301 159 L 337 192 L 337 762 L 309 801 L 228 757"/>
    <path style="--d:3s; stroke:#FF4444;" pathLength="3333" clip-path="url(#z33203c3)" d="M 221 377 L 285 363"/>
    <path style="--d:4s; stroke:#FF4444;" pathLength="3333" clip-path="url(#z33203c4)" d="M 199 532 L 286 512"/>
    <path style="--d:5s; stroke:#000;" pathLength="3333" clip-path="url(#z33203c5)" d="M 480 122 L 538 162 L 559 210"/>
    <path style="--d:6s; stroke:#000;" pathLength="3333" clip-path="url(#z33203c6)" d="M 702 66 L 732 114 L 634 204"/>
    <path style="--d:7s; stroke:#000;" pathLength="3333" clip-path="url(#z33203c7)" d="M 456 262 L 785 237"/>
    <path style="--d:8s; stroke:#000;" pathLength="3333" clip-path="url(#z33203c8)" d="M 484 358 L 748 338"/>
    <path style="--d:9s; stroke:#000;" pathLength="3333" clip-path="url(#z33203c9)" d="M 425 457 L 812 440"/>
    <path style="--d:10s; stroke:#000;" pathLength="3333" clip-path="url(#z33203c10)" d="M 585 288 L 613 310 L 606 601"/>
    <path style="--d:11s; stroke:#000;" pathLength="3333" clip-path="url(#z33203c11)" d="M 459 516 L 512 579"/>
    <path style="--d:12s; stroke:#000;" pathLength="3333" clip-path="url(#z33203c12)" d="M 749 473 L 762 513 L 686 559"/>
    <path style="--d:13s; stroke:#000;" pathLength="3333" clip-path="url(#z33203c13)" d="M 380 629 L 440 639 L 847 594 L 927 612"/>
    <path style="--d:14s; stroke:#000;" pathLength="3333" clip-path="url(#z33203c14)" d="M 449 720 L 484 761 L 511 908"/>
    <path style="--d:15s; stroke:#000;" pathLength="3333" clip-path="url(#z33203c15)" d="M 495 721 L 732 699 L 767 734 L 722 828"/>
    <path style="--d:16s; stroke:#000;" pathLength="3333" clip-path="url(#z33203c16)" d="M 530 854 L 771 856"/>
</g>
</svg>