<svg id="z33252" class="acjk" viewBox="0 0 1024 1024" xmlns="http://www.w3.org/2000/svg">

<style>
<![CDATA[
@keyframes zk { to { stroke-dashoffset:0; } }
svg.acjk path[clip-path] {
    --t:0.8s;
    animation:zk var(--t) linear forwards var(--d);
    stroke-dasharray:3337;
    stroke-dashoffset:3339;
    stroke-width:128;
    stroke-linecap:round;
    fill:none;
}
/* Low opacity for background improves visual overlap at intersections */
svg.acjk .bg { fill:#ccc; opacity: 0.5; } 
]]>
</style>
<defs>
    <clipPath id="z33252c1"><path d="M 357 204 C 443 184 476 179 488 171 C 511 154 462 135 456 134 C 442 131 418 133 388 143 C 348 155 287 174 192 186 C 181 188 194 216 205 216 C 251 220 281 220 321 212 C 345 207 345 207 357 204 Z"/></clipPath>
    <clipPath id="z33252c2"><path d="M 363 353 C 379 225 401 240 357 204 C 347 196 317 200 321 212 C 325 216 324 267 318 367 C 318 383 360 368 363 353 Z"/></clipPath>
    <clipPath id="z33252c3"><path d="M 439 478 C 455 446 474 428 492 414 C 504 403 504 389 494 379 C 488 373 470 356 433 341 C 408 331 388 344 363 353 C 333 362 333 362 318 367 C 277 379 230 385 192 391 C 184 392 183 412 191 414 C 223 422 312 401 376 391 C 416 385 409 411 402 434 C 393 462 393 462 388 476 C 383 492 431 493 439 478 Z"/></clipPath>
    <clipPath id="z33252c4"><path d="M 388 476 C 355 487 294 499 186 522 C 181 523 182 534 186 537 C 209 554 259 541 318 532 C 344 528 344 528 357 526 C 389 520 415 518 456 514 C 483 511 472 493 439 478 C 423 472 404 470 388 476 Z"/></clipPath>
    <clipPath id="z33252c5"><path d="M 359 700 C 372 546 397 564 357 526 C 348 517 315 519 318 532 C 323 554 321 587 314 710 C 314 725 359 715 359 700 Z"/></clipPath>
    <clipPath id="z33252c6"><path d="M 192 186 C 188 182 181 178 174 173 C 137 149 118 155 131 184 C 162 254 145 531 130 677 C 128 694 128 711 121 724 C 112 739 112 739 107 747 C 100 757 100 769 106 782 C 108 788 111 794 114 800 C 122 816 135 818 151 807 C 201 768 298 743 445 735 C 486 732 471 710 439 694 C 427 687 402 690 359 700 C 329 707 329 707 314 710 C 285 716 252 721 224 729 C 202 734 175 741 177 714 C 177 714 186 596 186 537 C 186 527 186 527 186 522 C 186 502 190 435 191 414 C 192 399 192 399 192 391 C 196 295 199 236 205 216 C 207 205 201 193 192 186 Z"/></clipPath>
    <clipPath id="z33252c7"><path d="M 699 667 C 752 584 786 501 804 426 C 811 396 821 369 843 346 C 855 332 856 321 843 313 C 823 300 805 294 790 293 C 772 290 751 292 728 303 C 669 328 601 344 545 356 C 525 360 528 370 539 381 C 561 403 601 406 655 382 C 697 362 719 348 726 349 C 737 349 745 355 744 369 C 735 429 725 507 660 626 C 651 640 642 654 632 668 C 572 741 514 784 431 840 C 404 857 452 848 457 847 C 536 814 598 782 664 714 C 677 699 688 683 699 667 Z"/></clipPath>
    <clipPath id="z33252c8"><path d="M 664 714 C 717 790 760 826 784 829 C 838 834 892 839 943 839 C 968 839 981 835 980 828 C 979 826 922 799 811 745 C 777 728 736 706 699 667 C 673 640 673 640 660 626 C 628 592 604 561 586 536 C 564 506 534 488 511 485 C 490 482 488 496 502 508 C 531 534 578 590 632 668 C 653 699 653 699 664 714 Z"/></clipPath>
</defs>
<g id="bg-layer">
    <path class="bg" d="M 357 204 C 443 184 476 179 488 171 C 511 154 462 135 456 134 C 442 131 418 133 388 143 C 348 155 287 174 192 186 C 181 188 194 216 205 216 C 251 220 281 220 321 212 C 345 207 345 207 357 204 Z"/>
    <path class="bg" d="M 363 353 C 379 225 401 240 357 204 C 347 196 317 200 321 212 C 325 216 324 267 318 367 C 318 383 360 368 363 353 Z"/>
    <path class="bg" d="M 439 478 C 455 446 474 428 492 414 C 504 403 504 389 494 379 C 488 373 470 356 433 341 C 408 331 388 344 363 353 C 333 362 333 362 318 367 C 277 379 230 385 192 391 C 184 392 183 412 191 414 C 223 422 312 401 376 391 C 416 385 409 411 402 434 C 393 462 393 462 388 476 C 383 492 431 493 439 478 Z"/>
    <path class="bg" d="M 388 476 C 355 487 294 499 186 522 C 181 523 182 534 186 537 C 209 554 259 541 318 532 C 344 528 344 528 357 526 C 389 520 415 518 456 514 C 483 511 472 493 439 478 C 423 472 404 470 388 476 Z"/>
    <path class="bg" d="M 359 700 C 372 546 397 564 357 526 C 348 517 315 519 318 532 C 323 554 321 587 314 710 C 314 725 359 715 359 700 Z"/>
    <path class="bg" d="M 192 186 C 188 182 181 178 174 173 C 137 149 118 155 131 184 C 162 254 145 531 130 677 C 128 694 128 711 121 724 C 112 739 112 739 107 747 C 100 757 100 769 106 782 C 108 788 111 794 114 800 C 122 816 135 818 151 807 C 201 768 298 743 445 735 C 486 732 471 710 439 694 C 427 687 402 690 359 700 C 329 707 329 707 314 710 C 285 716 252 721 224 729 C 202 734 175 741 177 714 C 177 714 186 596 186 537 C 186 527 186 527 186 522 C 186 502 190 435 191 414 C 192 399 192 399 192 391 C 196 295 199 236 205 216 C 207 205 201 193 192 186 Z"/>
    <path class="bg" d="M 699 667 C 752 584 786 501 804 426 C 811 396 821 369 843 346 C 855 332 856 321 843 313 C 823 300 805 294 790 293 C 772 290 751 292 728 303 C 669 328 601 344 545 356 C 525 360 528 370 539 381 C 561 403 601 406 655 382 C 697 362 719 348 726 349 C 737 349 745 355 744 369 C 735 429 725 507 660 626 C 651 640 642 654 632 668 C 572 741 514 784 431 840 C 404 857 452 848 457 847 C 536 814 598 782 664 714 C 677 699 688 683 699 667 Z"/>
    <path class="bg" d="M 664 714 C 717 790 760 826 784 829 C 838 834 892 839 943 839 C 968 839 981 835 980 828 C 979 826 922 799 811 745 C 777 728 736 706 699 667 C 673 640 673 640 660 626 C 628 592 604 561 586 536 C 564 506 534 488 511 485 C 490 482 488 496 502 508 C 531 534 578 590 632 668 C 653 699 653 699 664 714 Z"/>
</g>
<g id="anim-layer">
    <path style="--d:1s; stroke:#FF4444;" pathLength="3333" clip-path="url(#z33252c1)" d="M 195 194 L 486 159"/>
    <path style="--d:2s; stroke:#FF4444;" pathLength="3333" clip-path="url(#z33252c2)" d="M 328 212 L 353 253 L 331 371"/>
    <path style="--d:3s; stroke:#FF4444;" pathLength="3333" clip-path="url(#z33252c3)" d="M 188 403 L 415 367 L 454 403 L 398 485"/>
    <path style="--d:4s; stroke:#FF4444;" pathLength="3333" clip-path="url(#z33252c4)" d="M 187 527 L 465 501"/>
    <path style="--d:5s; stroke:#FF4444;" pathLength="3333" clip-path="url(#z33252c5)" d="M 325 526 L 349 564 L 331 715"/>
    <path style="--d:6s; stroke:#FF4444;" pathLength="3333" clip-path="url(#z33252c6)" d="M 135 164 L 173 218 L 147 762 L 383 717 L 464 721"/>
    <path style="--d:7s; stroke:#000;" pathLength="3333" clip-path="url(#z33252c7)" d="M 536 368 L 611 369 L 736 324 L 799 349 L 729 551 L 656 681 L 564 769 L 431 846"/>
    <path style="--d:8s; stroke:#000;" pathLength="3333" clip-path="url(#z33252c8)" d="M 499 493 L 768 772 L 972 829"/>
</g>
</svg>