<svg id="z33258" class="acjk" viewBox="0 0 1024 1024" xmlns="http://www.w3.org/2000/svg">

<style>
<![CDATA[
@keyframes zk { to { stroke-dashoffset:0; } }
svg.acjk path[clip-path] {
    --t:0.8s;
    animation:zk var(--t) linear forwards var(--d);
    stroke-dasharray:3337;
    stroke-dashoffset:3339;
    stroke-width:128;
    stroke-linecap:round;
    fill:none;
}
/* Low opacity for background improves visual overlap at intersections */
svg.acjk .bg { fill:#ccc; opacity: 0.5; } 
]]>
</style>
<defs>
    <clipPath id="z33258c1"><path d="M 427 274 C 501 169 523 133 553 109 C 566 98 565 85 554 76 C 541 66 524 61 503 57 C 482 53 469 53 461 58 C 452 62 451 68 457 77 C 466 92 454 141 422 222 C 414 240 405 259 397 280 C 393 289 421 282 427 274 Z"/></clipPath>
    <clipPath id="z33258c2"><path d="M 361 286 C 332 263 310 252 297 259 C 291 261 291 268 295 278 C 318 346 314 420 314 478 C 313 583 307 661 301 697 C 291 751 291 794 311 824 C 318 835 330 842 339 833 C 343 827 345 824 349 813 C 352 800 354 787 355 774 C 357 724 359 682 359 635 C 359 616 359 616 359 606 C 359 559 361 519 363 486 C 364 467 364 467 364 458 C 365 412 365 346 369 321 C 371 309 371 293 361 286 Z"/></clipPath>
    <clipPath id="z33258c3"><path d="M 654 792 C 659 816 665 852 684 882 C 691 894 700 901 708 901 C 720 900 732 886 744 860 C 756 831 762 798 759 762 C 750 665 742 526 734 347 C 732 322 737 302 750 285 C 756 275 756 266 749 259 C 734 244 706 228 667 211 C 652 204 640 205 628 212 C 596 227 519 255 427 274 C 407 278 407 278 397 280 C 382 282 370 284 361 286 C 349 288 357 321 369 321 C 385 321 463 304 605 271 C 625 266 642 266 653 275 C 679 296 686 448 676 728 C 675 744 678 763 667 772 C 661 778 652 784 654 792 Z"/></clipPath>
    <clipPath id="z33258c4"><path d="M 363 486 C 365 486 437 474 581 451 C 597 448 603 441 597 433 C 589 421 574 414 557 412 C 538 409 474 425 364 458 C 355 461 354 488 363 486 Z"/></clipPath>
    <clipPath id="z33258c5"><path d="M 359 635 C 377 637 515 616 584 607 C 602 604 607 597 601 589 C 593 577 577 567 552 566 C 501 562 422 590 359 606 C 350 608 349 635 359 635 Z"/></clipPath>
    <clipPath id="z33258c6"><path d="M 349 813 C 373 814 562 795 654 792 C 662 792 673 778 667 772 C 607 716 601 749 355 774 C 342 776 336 813 349 813 Z"/></clipPath>
</defs>
<g id="bg-layer">
    <path class="bg" d="M 427 274 C 501 169 523 133 553 109 C 566 98 565 85 554 76 C 541 66 524 61 503 57 C 482 53 469 53 461 58 C 452 62 451 68 457 77 C 466 92 454 141 422 222 C 414 240 405 259 397 280 C 393 289 421 282 427 274 Z"/>
    <path class="bg" d="M 361 286 C 332 263 310 252 297 259 C 291 261 291 268 295 278 C 318 346 314 420 314 478 C 313 583 307 661 301 697 C 291 751 291 794 311 824 C 318 835 330 842 339 833 C 343 827 345 824 349 813 C 352 800 354 787 355 774 C 357 724 359 682 359 635 C 359 616 359 616 359 606 C 359 559 361 519 363 486 C 364 467 364 467 364 458 C 365 412 365 346 369 321 C 371 309 371 293 361 286 Z"/>
    <path class="bg" d="M 654 792 C 659 816 665 852 684 882 C 691 894 700 901 708 901 C 720 900 732 886 744 860 C 756 831 762 798 759 762 C 750 665 742 526 734 347 C 732 322 737 302 750 285 C 756 275 756 266 749 259 C 734 244 706 228 667 211 C 652 204 640 205 628 212 C 596 227 519 255 427 274 C 407 278 407 278 397 280 C 382 282 370 284 361 286 C 349 288 357 321 369 321 C 385 321 463 304 605 271 C 625 266 642 266 653 275 C 679 296 686 448 676 728 C 675 744 678 763 667 772 C 661 778 652 784 654 792 Z"/>
    <path class="bg" d="M 363 486 C 365 486 437 474 581 451 C 597 448 603 441 597 433 C 589 421 574 414 557 412 C 538 409 474 425 364 458 C 355 461 354 488 363 486 Z"/>
    <path class="bg" d="M 359 635 C 377 637 515 616 584 607 C 602 604 607 597 601 589 C 593 577 577 567 552 566 C 501 562 422 590 359 606 C 350 608 349 635 359 635 Z"/>
    <path class="bg" d="M 349 813 C 373 814 562 795 654 792 C 662 792 673 778 667 772 C 607 716 601 749 355 774 C 342 776 336 813 349 813 Z"/>
</g>
<g id="anim-layer">
    <path style="--d:1s; stroke:#FF4444;" pathLength="3333" clip-path="url(#z33258c1)" d="M 459 63 L 509 102 L 406 279"/>
    <path style="--d:2s; stroke:#000;" pathLength="3333" clip-path="url(#z33258c2)" d="M 300 266 L 338 313 L 328 833"/>
    <path style="--d:3s; stroke:#000;" pathLength="3333" clip-path="url(#z33258c3)" d="M 360 297 L 643 237 L 708 281 L 703 895"/>
    <path style="--d:4s; stroke:#000;" pathLength="3333" clip-path="url(#z33258c4)" d="M 359 475 L 591 437"/>
    <path style="--d:5s; stroke:#000;" pathLength="3333" clip-path="url(#z33258c5)" d="M 359 623 L 598 592"/>
    <path style="--d:6s; stroke:#000;" pathLength="3333" clip-path="url(#z33258c6)" d="M 344 802 L 664 775"/>
</g>
</svg>