<svg id="z33255" class="acjk" viewBox="0 0 1024 1024" xmlns="http://www.w3.org/2000/svg">

<style>
<![CDATA[
@keyframes zk { to { stroke-dashoffset:0; } }
svg.acjk path[clip-path] {
    --t:0.8s;
    animation:zk var(--t) linear forwards var(--d);
    stroke-dasharray:3337;
    stroke-dashoffset:3339;
    stroke-width:128;
    stroke-linecap:round;
    fill:none;
}
/* Low opacity for background improves visual overlap at intersections */
svg.acjk .bg { fill:#ccc; opacity: 0.5; } 
]]>
</style>
<defs>
    <clipPath id="z33255c1"><path d="M 632 297 C 722 279 769 266 774 263 C 788 252 777 236 744 228 C 727 223 688 233 627 250 C 598 258 598 258 583 262 C 519 279 401 292 351 298 C 342 300 348 322 357 326 C 381 336 408 337 437 332 C 486 322 538 314 590 305 C 618 300 618 300 632 297 Z"/></clipPath>
    <clipPath id="z33255c2"><path d="M 351 298 C 315 269 262 264 281 293 C 289 305 297 343 299 412 C 299 413 299 413 299 413 C 299 434 299 434 299 444 C 298 474 296 505 293 535 C 291 552 291 552 290 560 C 274 662 244 762 169 888 C 159 902 159 919 183 898 C 321 762 339 543 352 361 C 352 349 353 337 357 326 C 361 317 359 304 351 298 Z"/></clipPath>
    <clipPath id="z33255c3"><path d="M 299 413 C 269 417 243 424 223 433 C 215 436 212 432 214 423 C 217 391 219 358 224 327 C 225 314 225 303 219 295 C 201 273 183 263 169 267 C 163 268 162 276 167 287 C 180 320 185 352 181 385 C 176 416 168 439 156 453 C 146 463 144 473 149 480 C 154 488 164 494 174 499 C 182 502 188 502 193 497 C 219 458 285 448 299 444 C 309 442 309 411 299 413 Z"/></clipPath>
    <clipPath id="z33255c4"><path d="M 293 535 C 184 559 122 569 106 570 C 89 570 94 590 99 595 C 108 604 122 613 139 623 C 149 628 156 619 163 616 C 180 606 180 606 189 601 C 197 596 230 581 290 560 C 298 557 301 533 293 535 Z"/></clipPath>
    <clipPath id="z33255c5"><path d="M 163 616 C 159 681 124 754 83 804 C 78 809 69 832 96 811 C 176 748 192 672 211 642 C 221 623 201 610 189 601 C 180 596 163 606 163 616 Z"/></clipPath>
    <clipPath id="z33255c6"><path d="M 512 428 C 527 424 542 419 560 416 C 568 414 589 409 583 397 C 579 390 569 387 555 384 C 546 382 518 389 469 403 C 435 412 423 412 414 413 C 406 414 417 434 425 436 C 451 441 469 436 487 433 C 504 430 504 430 512 428 Z"/></clipPath>
    <clipPath id="z33255c7"><path d="M 520 515 C 528 443 543 449 512 428 C 505 423 487 425 487 433 C 488 462 488 496 489 527 C 489 538 518 526 520 515 Z"/></clipPath>
    <clipPath id="z33255c8"><path d="M 579 612 C 591 581 603 564 614 556 C 623 548 623 537 615 530 C 607 522 589 514 565 505 C 553 500 539 507 520 515 C 499 523 499 523 489 527 C 473 532 452 537 419 545 C 411 546 410 570 418 568 C 422 568 460 560 533 544 C 539 542 544 542 547 545 C 551 549 550 570 544 606 C 542 618 575 623 579 612 Z"/></clipPath>
    <clipPath id="z33255c9"><path d="M 516 647 C 535 643 559 640 587 637 C 593 636 605 625 579 612 C 569 606 556 604 544 606 C 520 613 443 630 415 638 C 410 640 411 651 415 655 C 429 669 465 656 483 653 C 505 649 505 649 516 647 Z"/></clipPath>
    <clipPath id="z33255c10"><path d="M 517 741 C 525 678 535 669 516 647 C 508 639 483 642 483 653 C 485 684 484 717 485 749 C 485 760 515 752 517 741 Z"/></clipPath>
    <clipPath id="z33255c11"><path d="M 414 413 Q 405 406 391 399 Q 376 392 370 396 Q 366 402 371 412 Q 407 482 372 742 Q 368 758 357 778 Q 350 788 357 804 Q 364 819 371 825 Q 378 831 391 821 Q 433 785 578 769 Q 596 768 595 760 Q 594 750 573 737 Q 560 727 517 741 C 496 746 496 746 485 749 Q 482 748 480 749 Q 455 753 423 762 Q 419 763 415 763 Q 411 762 411 751 Q 412 705 415 655 C 415 644 415 644 415 638 Q 416 604 418 568 C 419 553 419 553 419 545 Q 419 464 425 436 C 426 428 421 418 414 413 Z"/></clipPath>
    <clipPath id="z33255c12"><path d="M 701 706 C 739 782 784 842 837 888 C 877 920 908 936 928 936 C 942 933 946 922 941 902 C 936 870 932 807 929 714 C 928 712 926 661 908 710 C 903 725 895 749 885 781 C 877 809 864 818 847 809 C 841 805 834 799 826 793 C 790 757 757 712 729 659 C 715 627 715 627 708 611 C 672 522 646 417 632 297 C 629 266 629 266 627 250 C 623 216 624 177 630 135 C 638 108 624 88 588 75 C 565 65 547 62 535 68 C 522 72 519 81 525 93 C 555 119 570 143 570 165 C 574 197 578 230 583 262 C 588 291 588 291 590 305 C 610 443 640 561 681 661 C 694 691 694 691 701 706 Z"/></clipPath>
    <clipPath id="z33255c13"><path d="M 681 661 C 654 710 618 773 560 841 C 551 851 554 866 576 848 C 621 808 668 761 701 706 C 720 675 720 675 729 659 C 765 598 803 498 827 460 C 831 452 830 443 824 436 C 800 407 778 393 759 395 C 749 395 746 402 751 416 C 763 457 739 553 708 611 C 690 644 690 644 681 661 Z"/></clipPath>
    <clipPath id="z33255c14"><path d="M 708 143 C 726 157 745 175 766 194 C 771 199 797 215 805 191 C 807 182 806 169 801 153 C 796 140 785 127 766 120 C 721 102 693 96 684 101 C 680 102 679 108 681 116 C 682 122 692 131 708 143 Z"/></clipPath>
</defs>
<g id="bg-layer">
    <path class="bg" d="M 632 297 C 722 279 769 266 774 263 C 788 252 777 236 744 228 C 727 223 688 233 627 250 C 598 258 598 258 583 262 C 519 279 401 292 351 298 C 342 300 348 322 357 326 C 381 336 408 337 437 332 C 486 322 538 314 590 305 C 618 300 618 300 632 297 Z"/>
    <path class="bg" d="M 351 298 C 315 269 262 264 281 293 C 289 305 297 343 299 412 C 299 413 299 413 299 413 C 299 434 299 434 299 444 C 298 474 296 505 293 535 C 291 552 291 552 290 560 C 274 662 244 762 169 888 C 159 902 159 919 183 898 C 321 762 339 543 352 361 C 352 349 353 337 357 326 C 361 317 359 304 351 298 Z"/>
    <path class="bg" d="M 299 413 C 269 417 243 424 223 433 C 215 436 212 432 214 423 C 217 391 219 358 224 327 C 225 314 225 303 219 295 C 201 273 183 263 169 267 C 163 268 162 276 167 287 C 180 320 185 352 181 385 C 176 416 168 439 156 453 C 146 463 144 473 149 480 C 154 488 164 494 174 499 C 182 502 188 502 193 497 C 219 458 285 448 299 444 C 309 442 309 411 299 413 Z"/>
    <path class="bg" d="M 293 535 C 184 559 122 569 106 570 C 89 570 94 590 99 595 C 108 604 122 613 139 623 C 149 628 156 619 163 616 C 180 606 180 606 189 601 C 197 596 230 581 290 560 C 298 557 301 533 293 535 Z"/>
    <path class="bg" d="M 163 616 C 159 681 124 754 83 804 C 78 809 69 832 96 811 C 176 748 192 672 211 642 C 221 623 201 610 189 601 C 180 596 163 606 163 616 Z"/>
    <path class="bg" d="M 512 428 C 527 424 542 419 560 416 C 568 414 589 409 583 397 C 579 390 569 387 555 384 C 546 382 518 389 469 403 C 435 412 423 412 414 413 C 406 414 417 434 425 436 C 451 441 469 436 487 433 C 504 430 504 430 512 428 Z"/>
    <path class="bg" d="M 520 515 C 528 443 543 449 512 428 C 505 423 487 425 487 433 C 488 462 488 496 489 527 C 489 538 518 526 520 515 Z"/>
    <path class="bg" d="M 579 612 C 591 581 603 564 614 556 C 623 548 623 537 615 530 C 607 522 589 514 565 505 C 553 500 539 507 520 515 C 499 523 499 523 489 527 C 473 532 452 537 419 545 C 411 546 410 570 418 568 C 422 568 460 560 533 544 C 539 542 544 542 547 545 C 551 549 550 570 544 606 C 542 618 575 623 579 612 Z"/>
    <path class="bg" d="M 516 647 C 535 643 559 640 587 637 C 593 636 605 625 579 612 C 569 606 556 604 544 606 C 520 613 443 630 415 638 C 410 640 411 651 415 655 C 429 669 465 656 483 653 C 505 649 505 649 516 647 Z"/>
    <path class="bg" d="M 517 741 C 525 678 535 669 516 647 C 508 639 483 642 483 653 C 485 684 484 717 485 749 C 485 760 515 752 517 741 Z"/>
    <path class="bg" d="M 414 413 Q 405 406 391 399 Q 376 392 370 396 Q 366 402 371 412 Q 407 482 372 742 Q 368 758 357 778 Q 350 788 357 804 Q 364 819 371 825 Q 378 831 391 821 Q 433 785 578 769 Q 596 768 595 760 Q 594 750 573 737 Q 560 727 517 741 C 496 746 496 746 485 749 Q 482 748 480 749 Q 455 753 423 762 Q 419 763 415 763 Q 411 762 411 751 Q 412 705 415 655 C 415 644 415 644 415 638 Q 416 604 418 568 C 419 553 419 553 419 545 Q 419 464 425 436 C 426 428 421 418 414 413 Z"/>
    <path class="bg" d="M 701 706 C 739 782 784 842 837 888 C 877 920 908 936 928 936 C 942 933 946 922 941 902 C 936 870 932 807 929 714 C 928 712 926 661 908 710 C 903 725 895 749 885 781 C 877 809 864 818 847 809 C 841 805 834 799 826 793 C 790 757 757 712 729 659 C 715 627 715 627 708 611 C 672 522 646 417 632 297 C 629 266 629 266 627 250 C 623 216 624 177 630 135 C 638 108 624 88 588 75 C 565 65 547 62 535 68 C 522 72 519 81 525 93 C 555 119 570 143 570 165 C 574 197 578 230 583 262 C 588 291 588 291 590 305 C 610 443 640 561 681 661 C 694 691 694 691 701 706 Z"/>
    <path class="bg" d="M 681 661 C 654 710 618 773 560 841 C 551 851 554 866 576 848 C 621 808 668 761 701 706 C 720 675 720 675 729 659 C 765 598 803 498 827 460 C 831 452 830 443 824 436 C 800 407 778 393 759 395 C 749 395 746 402 751 416 C 763 457 739 553 708 611 C 690 644 690 644 681 661 Z"/>
    <path class="bg" d="M 708 143 C 726 157 745 175 766 194 C 771 199 797 215 805 191 C 807 182 806 169 801 153 C 796 140 785 127 766 120 C 721 102 693 96 684 101 C 680 102 679 108 681 116 C 682 122 692 131 708 143 Z"/>
</g>
<g id="anim-layer">
    <path style="--d:1s; stroke:#FF4444;" pathLength="3333" clip-path="url(#z33255c1)" d="M 354 306 L 436 310 L 773 251"/>
    <path style="--d:2s; stroke:#FF4444;" pathLength="3333" clip-path="url(#z33255c2)" d="M 285 284 L 325 319 L 307 584 L 251 770 L 168 900"/>
    <path style="--d:3s; stroke:#FF4444;" pathLength="3333" clip-path="url(#z33255c3)" d="M 170 271 L 202 323 L 187 459 L 304 430"/>
    <path style="--d:4s; stroke:#FF4444;" pathLength="3333" clip-path="url(#z33255c4)" d="M 100 581 L 151 593 L 292 543"/>
    <path style="--d:5s; stroke:#FF4444;" pathLength="3333" clip-path="url(#z33255c5)" d="M 182 604 L 161 704 L 85 813"/>
    <path style="--d:6s; stroke:#FF4444;" pathLength="3333" clip-path="url(#z33255c6)" d="M 420 418 L 576 402"/>
    <path style="--d:7s; stroke:#FF4444;" pathLength="3333" clip-path="url(#z33255c7)" d="M 498 432 L 503 528"/>
    <path style="--d:8s; stroke:#FF4444;" pathLength="3333" clip-path="url(#z33255c8)" d="M 415 558 L 559 527 L 585 550 L 562 615"/>
    <path style="--d:9s; stroke:#000;" pathLength="3333" clip-path="url(#z33255c9)" d="M 417 645 L 590 626"/>
    <path style="--d:10s; stroke:#000;" pathLength="3333" clip-path="url(#z33255c10)" d="M 500 644 L 495 751"/>
    <path style="--d:11s; stroke:#000;" pathLength="3333" clip-path="url(#z33255c11)" d="M 376 404 L 403 438 L 390 791 L 589 756"/>
    <path style="--d:12s; stroke:#000;" pathLength="3333" clip-path="url(#z33255c12)" d="M 526 78 L 598 130 L 637 451 L 746 737 L 838 844 L 911 885 L 922 697"/>
    <path style="--d:13s; stroke:#000;" pathLength="3333" clip-path="url(#z33255c13)" d="M 757 403 L 792 449 L 733 608 L 561 850"/>
    <path style="--d:14s; stroke:#000;" pathLength="3333" clip-path="url(#z33255c14)" d="M 686 108 L 798 192"/>
</g>
</svg>