<svg id="z33285" class="acjk" viewBox="0 0 1024 1024" xmlns="http://www.w3.org/2000/svg">

<style>
<![CDATA[
@keyframes zk { to { stroke-dashoffset:0; } }
svg.acjk path[clip-path] {
    --t:0.8s;
    animation:zk var(--t) linear forwards var(--d);
    stroke-dasharray:3337;
    stroke-dashoffset:3339;
    stroke-width:128;
    stroke-linecap:round;
    fill:none;
}
/* Low opacity for background improves visual overlap at intersections */
svg.acjk .bg { fill:#ccc; opacity: 0.5; } 
]]>
</style>
<defs>
    <clipPath id="z33285c1"><path d="M 330 184 Q 453 126 455 125 Q 474 119 468 102 Q 458 86 437 71 Q 418 56 407 57 Q 397 57 398 69 Q 398 84 337 148 Q 327 155 317 167 C 312 172 323 187 330 184 Z"/></clipPath>
    <clipPath id="z33285c2"><path d="M 368 325 Q 365 310 350 260 C 345 244 345 244 343 236 Q 333 197 331 186 Q 330 185 330 184 C 327 177 324 168 317 167 Q 305 163 272 162 Q 259 161 257 166 Q 251 173 262 188 Q 295 236 323 319 Q 329 344 347 359 Q 366 378 370 362 Q 371 358 371 351 C 369 334 369 334 368 325 Z"/></clipPath>
    <clipPath id="z33285c3"><path d="M 350 260 Q 417 248 468 242 Q 489 238 481 227 Q 471 214 449 210 Q 422 209 343 236 C 335 239 342 262 350 260 Z"/></clipPath>
    <clipPath id="z33285c4"><path d="M 663 320 Q 667 336 680 336 Q 693 335 701 321 Q 713 308 738 242 Q 757 194 795 170 Q 814 157 801 140 Q 785 122 740 93 Q 728 84 630 95 Q 606 98 591 98 Q 576 97 574 100 Q 570 104 583 115 Q 601 127 639 129 Q 684 122 702 130 Q 709 136 703 163 Q 699 179 694 195 C 689 215 689 215 687 225 Q 672 274 664 293 C 661 301 660 312 663 320 Z"/></clipPath>
    <clipPath id="z33285c5"><path d="M 694 195 Q 693 192 686 191 Q 665 187 628 192 Q 594 199 564 206 Q 548 207 565 222 Q 571 228 585 227 Q 642 226 687 225 C 697 225 702 201 694 195 Z"/></clipPath>
    <clipPath id="z33285c6"><path d="M 664 293 Q 646 281 481 310 Q 423 317 368 325 C 359 326 362 351 371 351 Q 381 351 396 350 Q 547 329 662 319 C 671 318 672 296 664 293 Z"/></clipPath>
    <clipPath id="z33285c7"><path d="M 336 410 Q 326 404 288 401 Q 275 400 273 404 Q 267 411 277 426 Q 308 478 332 567 Q 338 594 355 610 Q 374 629 378 614 Q 379 610 380 605 C 379 588 379 588 379 580 Q 378 571 347 442 C 345 431 346 414 336 410 Z"/></clipPath>
    <clipPath id="z33285c8"><path d="M 631 572 Q 647 602 664 611 Q 674 620 691 599 Q 704 583 736 488 Q 746 457 771 432 Q 784 420 774 406 Q 759 388 717 359 Q 699 350 618 367 Q 594 368 336 410 C 325 412 336 444 347 442 Q 399 429 476 416 C 502 412 502 412 515 410 Q 656 385 677 404 Q 686 416 683 427 Q 659 535 644 546 C 637 553 627 563 631 572 Z"/></clipPath>
    <clipPath id="z33285c9"><path d="M 532 497 Q 575 490 615 485 Q 636 482 629 471 Q 619 458 597 453 Q 576 449 539 458 Q 536 458 535 460 C 501 468 501 468 484 472 Q 444 481 407 489 Q 392 492 410 506 Q 417 512 486 503 C 517 499 517 499 532 497 Z"/></clipPath>
    <clipPath id="z33285c10"><path d="M 528 555 Q 529 524 532 497 C 534 472 534 472 535 460 Q 536 456 536 452 Q 543 436 535 428 Q 525 418 515 410 C 505 402 471 404 476 416 Q 480 420 484 472 C 485 493 485 493 486 503 Q 486 527 489 562 C 489 575 528 568 528 555 Z"/></clipPath>
    <clipPath id="z33285c11"><path d="M 497 590 Q 569 578 631 572 C 641 570 652 551 644 546 Q 640 542 633 541 Q 620 538 528 555 C 502 560 502 560 489 562 Q 431 569 379 580 C 371 581 372 605 380 605 Q 390 605 403 604 Q 431 600 459 596 C 484 592 484 592 497 590 Z"/></clipPath>
    <clipPath id="z33285c12"><path d="M 500 706 Q 585 690 658 684 Q 692 683 697 692 Q 704 704 697 734 Q 681 818 658 853 Q 633 892 598 882 Q 571 878 549 870 Q 521 863 542 888 Q 584 930 604 961 Q 617 983 637 970 Q 667 955 692 924 Q 720 888 758 766 Q 771 723 790 704 Q 806 691 800 677 Q 791 664 734 632 Q 712 619 688 633 Q 651 651 517 673 C 471 680 471 680 448 684 Q 345 697 256 698 Q 235 697 231 708 Q 228 717 256 732 Q 284 753 308 745 Q 372 729 435 718 C 478 710 478 710 500 706 Z"/></clipPath>
    <clipPath id="z33285c13"><path d="M 435 718 Q 366 868 226 920 Q 210 927 192 934 Q 177 938 189 944 Q 202 948 237 944 Q 286 937 326 914 Q 428 866 479 748 Q 489 726 500 706 C 511 684 511 684 517 673 Q 524 661 533 652 Q 546 637 533 625 Q 514 601 497 590 C 486 583 457 583 459 596 Q 459 597 460 599 Q 464 617 450 678 Q 449 679 448 684 C 439 707 439 707 435 718 Z"/></clipPath>
</defs>
<g id="bg-layer">
    <path class="bg" d="M 330 184 Q 453 126 455 125 Q 474 119 468 102 Q 458 86 437 71 Q 418 56 407 57 Q 397 57 398 69 Q 398 84 337 148 Q 327 155 317 167 C 312 172 323 187 330 184 Z"/>
    <path class="bg" d="M 368 325 Q 365 310 350 260 C 345 244 345 244 343 236 Q 333 197 331 186 Q 330 185 330 184 C 327 177 324 168 317 167 Q 305 163 272 162 Q 259 161 257 166 Q 251 173 262 188 Q 295 236 323 319 Q 329 344 347 359 Q 366 378 370 362 Q 371 358 371 351 C 369 334 369 334 368 325 Z"/>
    <path class="bg" d="M 350 260 Q 417 248 468 242 Q 489 238 481 227 Q 471 214 449 210 Q 422 209 343 236 C 335 239 342 262 350 260 Z"/>
    <path class="bg" d="M 663 320 Q 667 336 680 336 Q 693 335 701 321 Q 713 308 738 242 Q 757 194 795 170 Q 814 157 801 140 Q 785 122 740 93 Q 728 84 630 95 Q 606 98 591 98 Q 576 97 574 100 Q 570 104 583 115 Q 601 127 639 129 Q 684 122 702 130 Q 709 136 703 163 Q 699 179 694 195 C 689 215 689 215 687 225 Q 672 274 664 293 C 661 301 660 312 663 320 Z"/>
    <path class="bg" d="M 694 195 Q 693 192 686 191 Q 665 187 628 192 Q 594 199 564 206 Q 548 207 565 222 Q 571 228 585 227 Q 642 226 687 225 C 697 225 702 201 694 195 Z"/>
    <path class="bg" d="M 664 293 Q 646 281 481 310 Q 423 317 368 325 C 359 326 362 351 371 351 Q 381 351 396 350 Q 547 329 662 319 C 671 318 672 296 664 293 Z"/>
    <path class="bg" d="M 336 410 Q 326 404 288 401 Q 275 400 273 404 Q 267 411 277 426 Q 308 478 332 567 Q 338 594 355 610 Q 374 629 378 614 Q 379 610 380 605 C 379 588 379 588 379 580 Q 378 571 347 442 C 345 431 346 414 336 410 Z"/>
    <path class="bg" d="M 631 572 Q 647 602 664 611 Q 674 620 691 599 Q 704 583 736 488 Q 746 457 771 432 Q 784 420 774 406 Q 759 388 717 359 Q 699 350 618 367 Q 594 368 336 410 C 325 412 336 444 347 442 Q 399 429 476 416 C 502 412 502 412 515 410 Q 656 385 677 404 Q 686 416 683 427 Q 659 535 644 546 C 637 553 627 563 631 572 Z"/>
    <path class="bg" d="M 532 497 Q 575 490 615 485 Q 636 482 629 471 Q 619 458 597 453 Q 576 449 539 458 Q 536 458 535 460 C 501 468 501 468 484 472 Q 444 481 407 489 Q 392 492 410 506 Q 417 512 486 503 C 517 499 517 499 532 497 Z"/>
    <path class="bg" d="M 528 555 Q 529 524 532 497 C 534 472 534 472 535 460 Q 536 456 536 452 Q 543 436 535 428 Q 525 418 515 410 C 505 402 471 404 476 416 Q 480 420 484 472 C 485 493 485 493 486 503 Q 486 527 489 562 C 489 575 528 568 528 555 Z"/>
    <path class="bg" d="M 497 590 Q 569 578 631 572 C 641 570 652 551 644 546 Q 640 542 633 541 Q 620 538 528 555 C 502 560 502 560 489 562 Q 431 569 379 580 C 371 581 372 605 380 605 Q 390 605 403 604 Q 431 600 459 596 C 484 592 484 592 497 590 Z"/>
    <path class="bg" d="M 500 706 Q 585 690 658 684 Q 692 683 697 692 Q 704 704 697 734 Q 681 818 658 853 Q 633 892 598 882 Q 571 878 549 870 Q 521 863 542 888 Q 584 930 604 961 Q 617 983 637 970 Q 667 955 692 924 Q 720 888 758 766 Q 771 723 790 704 Q 806 691 800 677 Q 791 664 734 632 Q 712 619 688 633 Q 651 651 517 673 C 471 680 471 680 448 684 Q 345 697 256 698 Q 235 697 231 708 Q 228 717 256 732 Q 284 753 308 745 Q 372 729 435 718 C 478 710 478 710 500 706 Z"/>
    <path class="bg" d="M 435 718 Q 366 868 226 920 Q 210 927 192 934 Q 177 938 189 944 Q 202 948 237 944 Q 286 937 326 914 Q 428 866 479 748 Q 489 726 500 706 C 511 684 511 684 517 673 Q 524 661 533 652 Q 546 637 533 625 Q 514 601 497 590 C 486 583 457 583 459 596 Q 459 597 460 599 Q 464 617 450 678 Q 449 679 448 684 C 439 707 439 707 435 718 Z"/>
</g>
<g id="anim-layer">
    <path style="--d:1s; stroke:#FF4444;" pathLength="3333" clip-path="url(#z33285c1)" d="M 407 61 L 421 111 L 329 177"/>
    <path style="--d:2s; stroke:#FF4444;" pathLength="3333" clip-path="url(#z33285c2)" d="M 263 167 L 305 202 L 363 364"/>
    <path style="--d:3s; stroke:#FF4444;" pathLength="3333" clip-path="url(#z33285c3)" d="M 351 238 L 476 229"/>
    <path style="--d:4s; stroke:#FF4444;" pathLength="3333" clip-path="url(#z33285c4)" d="M 581 104 L 706 108 L 748 144 L 675 331"/>
    <path style="--d:5s; stroke:#FF4444;" pathLength="3333" clip-path="url(#z33285c5)" d="M 566 213 L 691 207"/>
    <path style="--d:6s; stroke:#FF4444;" pathLength="3333" clip-path="url(#z33285c6)" d="M 374 330 L 661 305"/>
    <path style="--d:7s; stroke:#000;" pathLength="3333" clip-path="url(#z33285c7)" d="M 281 410 L 322 452 L 365 615"/>
    <path style="--d:8s; stroke:#000;" pathLength="3333" clip-path="url(#z33285c8)" d="M 344 412 L 701 386 L 730 423 L 657 604"/>
    <path style="--d:9s; stroke:#000;" pathLength="3333" clip-path="url(#z33285c9)" d="M 412 497 L 624 474"/>
    <path style="--d:10s; stroke:#000;" pathLength="3333" clip-path="url(#z33285c10)" d="M 485 418 L 511 449 L 508 557"/>
    <path style="--d:11s; stroke:#000;" pathLength="3333" clip-path="url(#z33285c11)" d="M 385 597 L 637 551"/>
    <path style="--d:12s; stroke:#000;" pathLength="3333" clip-path="url(#z33285c12)" d="M 237 708 L 303 722 L 716 661 L 750 702 L 675 887 L 617 929 L 542 875"/>
    <path style="--d:13s; stroke:#000;" pathLength="3333" clip-path="url(#z33285c13)" d="M 466 604 L 497 643 L 401 824 L 295 908 L 192 937"/>
</g>
</svg>