<svg id="z33335" class="acjk" viewBox="0 0 1024 1024" xmlns="http://www.w3.org/2000/svg">

<style>
<![CDATA[
@keyframes zk { to { stroke-dashoffset:0; } }
svg.acjk path[clip-path] {
    --t:0.8s;
    animation:zk var(--t) linear forwards var(--d);
    stroke-dasharray:3337;
    stroke-dashoffset:3339;
    stroke-width:128;
    stroke-linecap:round;
    fill:none;
}
/* Low opacity for background improves visual overlap at intersections */
svg.acjk .bg { fill:#ccc; opacity: 0.5; } 
]]>
</style>
<defs>
    <clipPath id="z33335c1"><path d="M 277 291 C 277 289 312 251 378 174 C 387 163 397 151 410 142 C 422 132 423 121 414 113 C 403 103 388 97 369 92 C 352 87 340 87 332 90 C 323 93 322 97 327 106 C 334 119 317 170 258 284 C 255 290 273 296 277 291 Z"/></clipPath>
    <clipPath id="z33335c2"><path d="M 258 284 C 232 271 214 266 205 272 C 198 276 196 283 202 291 C 211 302 221 323 226 398 C 229 448 230 501 224 552 C 220 582 220 582 218 597 C 206 681 171 777 120 884 C 117 888 114 891 114 896 C 112 902 115 903 122 902 C 129 900 143 883 166 852 C 212 787 250 698 265 582 C 268 555 268 555 270 541 C 275 499 276 437 276 355 C 276 345 277 333 279 320 C 284 296 280 295 258 284 Z"/></clipPath>
    <clipPath id="z33335c3"><path d="M 279 320 C 297 313 330 304 355 298 C 366 294 375 296 378 302 C 384 318 392 389 392 514 C 392 530 392 530 392 538 C 392 724 388 824 379 839 C 376 842 368 842 357 840 C 338 835 320 830 302 825 C 289 821 280 823 285 828 C 319 861 351 884 371 908 C 379 918 387 925 397 929 C 401 931 407 930 413 924 C 437 892 449 861 448 831 C 442 718 437 570 436 387 C 435 352 437 327 446 312 C 452 300 453 292 446 286 C 433 274 416 265 394 256 C 383 251 372 251 363 257 C 344 267 302 283 277 291 C 268 295 270 324 279 320 Z"/></clipPath>
    <clipPath id="z33335c4"><path d="M 294 403 C 315 443 333 464 345 467 C 352 468 357 466 362 457 C 365 450 364 441 361 431 C 356 413 336 397 302 383 C 297 381 294 383 293 389 C 291 393 291 397 294 403 Z"/></clipPath>
    <clipPath id="z33335c5"><path d="M 265 582 C 298 571 359 551 392 538 C 399 535 400 512 392 514 C 353 522 312 530 270 541 C 239 548 239 548 224 552 C 190 560 150 567 119 571 C 106 572 88 573 66 572 C 57 571 52 576 51 582 C 49 590 50 597 56 603 C 68 615 84 628 106 641 C 112 644 119 642 127 638 C 155 620 186 607 218 597 C 249 587 249 587 265 582 Z"/></clipPath>
    <clipPath id="z33335c6"><path d="M 294 668 C 302 680 310 695 319 711 C 323 719 330 724 339 726 C 343 726 348 724 353 719 C 358 712 360 701 360 685 C 358 666 337 649 300 631 C 293 627 288 625 284 626 C 281 626 278 630 278 638 C 277 644 284 653 294 668 Z"/></clipPath>
    <clipPath id="z33335c7"><path d="M 620 191 C 638 207 656 226 675 247 C 684 257 695 262 707 262 C 715 262 720 256 724 247 C 727 236 727 219 722 198 C 718 183 705 170 684 161 C 635 139 604 131 592 137 C 587 138 586 145 588 155 C 589 163 601 174 620 191 Z"/></clipPath>
    <clipPath id="z33335c8"><path d="M 656 369 C 700 360 772 350 873 347 C 905 346 925 344 929 337 C 932 329 927 320 917 313 C 881 288 845 286 807 296 C 701 322 590 341 475 363 C 462 365 460 371 470 381 C 488 398 510 403 536 396 C 562 388 589 381 618 376 C 643 371 643 371 656 369 Z"/></clipPath>
    <clipPath id="z33335c9"><path d="M 680 602 C 647 599 616 597 588 597 C 565 596 562 590 573 576 C 611 524 645 477 681 438 C 690 427 694 419 694 414 C 692 405 680 390 656 369 C 647 360 616 363 618 376 C 624 402 604 454 557 533 C 546 550 531 568 510 585 C 498 594 492 601 493 609 C 494 621 499 633 508 645 C 513 652 522 653 530 650 C 548 641 586 633 663 626 C 673 624 690 602 680 602 Z"/></clipPath>
    <clipPath id="z33335c10"><path d="M 776 761 C 718 769 654 781 587 799 C 566 804 563 800 577 784 C 612 739 671 671 754 579 C 775 555 794 535 812 522 C 820 515 822 508 819 501 C 812 488 798 474 777 460 C 766 453 757 450 751 452 C 744 453 741 460 742 471 C 742 497 722 542 680 602 C 669 618 669 618 663 626 C 613 695 517 796 496 808 C 485 813 481 822 483 832 C 483 840 493 851 510 867 C 517 874 524 874 536 868 C 599 830 681 802 780 780 C 780 779 783 779 787 779 C 794 779 783 760 776 761 Z"/></clipPath>
    <clipPath id="z33335c11"><path d="M 787 779 C 829 849 852 887 857 890 C 861 892 868 891 873 886 C 881 875 892 862 885 835 C 875 797 841 750 753 687 C 748 683 744 684 742 691 C 739 697 751 720 776 761 C 783 773 783 773 787 779 Z"/></clipPath>
</defs>
<g id="bg-layer">
    <path class="bg" d="M 277 291 C 277 289 312 251 378 174 C 387 163 397 151 410 142 C 422 132 423 121 414 113 C 403 103 388 97 369 92 C 352 87 340 87 332 90 C 323 93 322 97 327 106 C 334 119 317 170 258 284 C 255 290 273 296 277 291 Z"/>
    <path class="bg" d="M 258 284 C 232 271 214 266 205 272 C 198 276 196 283 202 291 C 211 302 221 323 226 398 C 229 448 230 501 224 552 C 220 582 220 582 218 597 C 206 681 171 777 120 884 C 117 888 114 891 114 896 C 112 902 115 903 122 902 C 129 900 143 883 166 852 C 212 787 250 698 265 582 C 268 555 268 555 270 541 C 275 499 276 437 276 355 C 276 345 277 333 279 320 C 284 296 280 295 258 284 Z"/>
    <path class="bg" d="M 279 320 C 297 313 330 304 355 298 C 366 294 375 296 378 302 C 384 318 392 389 392 514 C 392 530 392 530 392 538 C 392 724 388 824 379 839 C 376 842 368 842 357 840 C 338 835 320 830 302 825 C 289 821 280 823 285 828 C 319 861 351 884 371 908 C 379 918 387 925 397 929 C 401 931 407 930 413 924 C 437 892 449 861 448 831 C 442 718 437 570 436 387 C 435 352 437 327 446 312 C 452 300 453 292 446 286 C 433 274 416 265 394 256 C 383 251 372 251 363 257 C 344 267 302 283 277 291 C 268 295 270 324 279 320 Z"/>
    <path class="bg" d="M 294 403 C 315 443 333 464 345 467 C 352 468 357 466 362 457 C 365 450 364 441 361 431 C 356 413 336 397 302 383 C 297 381 294 383 293 389 C 291 393 291 397 294 403 Z"/>
    <path class="bg" d="M 265 582 C 298 571 359 551 392 538 C 399 535 400 512 392 514 C 353 522 312 530 270 541 C 239 548 239 548 224 552 C 190 560 150 567 119 571 C 106 572 88 573 66 572 C 57 571 52 576 51 582 C 49 590 50 597 56 603 C 68 615 84 628 106 641 C 112 644 119 642 127 638 C 155 620 186 607 218 597 C 249 587 249 587 265 582 Z"/>
    <path class="bg" d="M 294 668 C 302 680 310 695 319 711 C 323 719 330 724 339 726 C 343 726 348 724 353 719 C 358 712 360 701 360 685 C 358 666 337 649 300 631 C 293 627 288 625 284 626 C 281 626 278 630 278 638 C 277 644 284 653 294 668 Z"/>
    <path class="bg" d="M 620 191 C 638 207 656 226 675 247 C 684 257 695 262 707 262 C 715 262 720 256 724 247 C 727 236 727 219 722 198 C 718 183 705 170 684 161 C 635 139 604 131 592 137 C 587 138 586 145 588 155 C 589 163 601 174 620 191 Z"/>
    <path class="bg" d="M 656 369 C 700 360 772 350 873 347 C 905 346 925 344 929 337 C 932 329 927 320 917 313 C 881 288 845 286 807 296 C 701 322 590 341 475 363 C 462 365 460 371 470 381 C 488 398 510 403 536 396 C 562 388 589 381 618 376 C 643 371 643 371 656 369 Z"/>
    <path class="bg" d="M 680 602 C 647 599 616 597 588 597 C 565 596 562 590 573 576 C 611 524 645 477 681 438 C 690 427 694 419 694 414 C 692 405 680 390 656 369 C 647 360 616 363 618 376 C 624 402 604 454 557 533 C 546 550 531 568 510 585 C 498 594 492 601 493 609 C 494 621 499 633 508 645 C 513 652 522 653 530 650 C 548 641 586 633 663 626 C 673 624 690 602 680 602 Z"/>
    <path class="bg" d="M 776 761 C 718 769 654 781 587 799 C 566 804 563 800 577 784 C 612 739 671 671 754 579 C 775 555 794 535 812 522 C 820 515 822 508 819 501 C 812 488 798 474 777 460 C 766 453 757 450 751 452 C 744 453 741 460 742 471 C 742 497 722 542 680 602 C 669 618 669 618 663 626 C 613 695 517 796 496 808 C 485 813 481 822 483 832 C 483 840 493 851 510 867 C 517 874 524 874 536 868 C 599 830 681 802 780 780 C 780 779 783 779 787 779 C 794 779 783 760 776 761 Z"/>
    <path class="bg" d="M 787 779 C 829 849 852 887 857 890 C 861 892 868 891 873 886 C 881 875 892 862 885 835 C 875 797 841 750 753 687 C 748 683 744 684 742 691 C 739 697 751 720 776 761 C 783 773 783 773 787 779 Z"/>
</g>
<g id="anim-layer">
    <path style="--d:1s; stroke:#FF4444;" pathLength="3333" clip-path="url(#z33335c1)" d="M 333 95 L 370 137 L 268 286"/>
    <path style="--d:2s; stroke:#FF4444;" pathLength="3333" clip-path="url(#z33335c2)" d="M 206 280 L 249 322 L 245 564 L 201 746 L 121 897"/>
    <path style="--d:3s; stroke:#FF4444;" pathLength="3333" clip-path="url(#z33335c3)" d="M 278 310 L 378 275 L 415 302 L 412 850 L 386 885 L 292 827"/>
    <path style="--d:4s; stroke:#FF4444;" pathLength="3333" clip-path="url(#z33335c4)" d="M 298 387 L 356 458"/>
    <path style="--d:5s; stroke:#FF4444;" pathLength="3333" clip-path="url(#z33335c5)" d="M 55 583 L 114 606 L 394 524"/>
    <path style="--d:6s; stroke:#FF4444;" pathLength="3333" clip-path="url(#z33335c6)" d="M 286 634 L 345 719"/>
    <path style="--d:7s; stroke:#000;" pathLength="3333" clip-path="url(#z33335c7)" d="M 593 141 L 680 199 L 712 254"/>
    <path style="--d:8s; stroke:#000;" pathLength="3333" clip-path="url(#z33335c8)" d="M 472 370 L 840 319 L 926 329"/>
    <path style="--d:9s; stroke:#000;" pathLength="3333" clip-path="url(#z33335c9)" d="M 625 370 L 654 415 L 536 609 L 676 610"/>
    <path style="--d:10s; stroke:#000;" pathLength="3333" clip-path="url(#z33335c10)" d="M 752 454 L 779 503 L 527 817 L 547 836 L 781 773"/>
    <path style="--d:11s; stroke:#000;" pathLength="3333" clip-path="url(#z33335c11)" d="M 748 692 L 836 802 L 865 886"/>
</g>
</svg>