<svg id="z33351" class="acjk" viewBox="0 0 1024 1024" xmlns="http://www.w3.org/2000/svg">

<style>
<![CDATA[
@keyframes zk { to { stroke-dashoffset:0; } }
svg.acjk path[clip-path] {
    --t:0.8s;
    animation:zk var(--t) linear forwards var(--d);
    stroke-dasharray:3337;
    stroke-dashoffset:3339;
    stroke-width:128;
    stroke-linecap:round;
    fill:none;
}
/* Low opacity for background improves visual overlap at intersections */
svg.acjk .bg { fill:#ccc; opacity: 0.5; } 
]]>
</style>
<defs>
    <clipPath id="z33351c1"><path d="M 251 264 C 326 159 339 135 371 111 C 382 101 383 90 374 83 C 363 73 347 69 329 65 C 311 61 300 61 293 65 C 286 68 285 72 290 81 C 296 96 285 146 247 229 C 241 240 235 251 229 266 C 226 273 247 270 251 264 Z"/></clipPath>
    <clipPath id="z33351c2"><path d="M 223 265 C 217 262 212 260 206 258 C 194 254 185 251 178 255 C 170 258 169 265 175 273 C 184 283 195 308 197 349 C 199 411 201 474 193 537 C 189 567 189 567 187 582 C 173 682 133 779 80 873 C 77 877 75 880 75 884 C 74 890 76 892 82 891 C 89 888 103 871 126 841 C 173 776 216 687 231 568 C 234 541 234 541 236 528 C 253 385 241 307 251 298 C 256 285 236 270 223 265 Z"/></clipPath>
    <clipPath id="z33351c3"><path d="M 409 797 C 398 685 398 540 397 367 C 396 331 398 307 407 292 C 413 280 413 270 406 265 C 393 253 375 244 354 236 C 342 231 332 230 323 236 C 302 247 263 261 251 264 C 236 265 236 265 229 266 C 227 266 225 265 223 265 C 209 262 238 303 251 298 C 277 289 298 282 315 278 C 327 275 335 275 338 282 C 345 299 347 374 353 502 C 354 519 354 519 354 527 C 355 557 351 811 342 824 C 339 827 314 825 274 817 C 260 814 252 815 257 820 C 287 850 316 871 336 893 C 344 902 352 909 362 914 C 366 915 372 914 378 908 C 398 880 413 845 410 808 C 409 801 409 801 409 797 Z"/></clipPath>
    <clipPath id="z33351c4"><path d="M 263 379 C 275 419 287 443 301 449 C 307 451 314 449 320 442 C 323 436 325 426 324 415 C 323 406 315 398 306 389 C 290 374 280 364 274 361 C 269 358 266 359 264 365 C 261 369 261 373 263 379 Z"/></clipPath>
    <clipPath id="z33351c5"><path d="M 193 537 C 162 543 131 547 100 554 C 87 556 69 556 50 555 C 41 554 36 557 35 564 C 32 571 34 578 40 584 C 52 594 66 607 87 620 C 92 623 100 621 108 617 C 132 602 159 590 187 582 C 216 573 216 573 231 568 C 274 554 327 535 354 527 C 362 524 361 501 353 502 C 316 510 277 519 236 528 C 207 534 207 534 193 537 Z"/></clipPath>
    <clipPath id="z33351c6"><path d="M 255 617 Q 289 678 311 684 Q 323 687 330 672 Q 334 662 328 642 Q 316 612 263 594 Q 256 591 253 601 Q 250 608 255 617 Z"/></clipPath>
    <clipPath id="z33351c7"><path d="M 745 310 C 777 297 807 277 844 270 C 854 267 861 266 863 261 C 865 254 861 247 854 241 C 840 231 819 224 793 215 C 781 211 773 207 766 210 C 760 211 758 216 759 224 C 759 247 706 285 604 345 C 598 348 600 355 605 356 C 616 357 653 346 712 323 C 734 314 734 314 745 310 Z"/></clipPath>
    <clipPath id="z33351c8"><path d="M 766 480 C 784 475 822 466 882 457 C 888 456 895 454 898 447 C 900 440 891 435 879 429 C 859 417 825 424 768 441 C 739 450 739 450 724 454 C 704 459 685 462 667 465 C 648 468 628 471 606 475 C 590 477 587 483 602 493 C 618 505 641 509 667 503 C 683 499 702 495 724 490 C 752 483 752 483 766 480 Z"/></clipPath>
    <clipPath id="z33351c9"><path d="M 760 619 C 762 569 764 522 766 480 C 767 454 767 454 768 441 C 770 369 775 339 771 332 C 764 321 753 316 745 310 C 735 304 708 312 712 323 C 720 341 724 384 724 454 C 724 478 724 478 724 490 C 723 526 722 572 722 627 C 722 640 760 632 760 619 Z"/></clipPath>
    <clipPath id="z33351c10"><path d="M 722 626 C 706 628 676 631 628 637 C 609 638 607 644 622 657 C 639 670 664 677 695 672 C 769 659 828 649 874 648 C 880 647 888 646 893 637 C 895 630 885 624 872 616 C 837 596 806 610 760 619 C 735 624 735 624 722 626 Z"/></clipPath>
    <clipPath id="z33351c11"><path d="M 519 513 Q 531 546 496 638 C 488 658 488 658 484 668 Q 439 767 409 797 C 406 800 406 809 410 808 Q 411 811 419 803 Q 480 755 516 686 C 525 665 525 665 530 654 Q 543 617 556 577 Q 569 522 580 506 Q 587 496 580 488 Q 568 478 554 475 Q 541 471 520 478 Q 501 485 495 482 Q 491 479 496 468 Q 517 425 537 377 Q 553 346 567 331 Q 583 315 571 304 Q 561 295 531 285 Q 509 275 494 289 Q 454 320 423 330 Q 410 334 418 341 Q 436 353 487 333 Q 497 330 501 336 Q 507 346 495 385 Q 477 451 459 472 Q 449 485 454 497 Q 458 504 477 502 Q 513 496 519 513 Z"/></clipPath>
    <clipPath id="z33351c12"><path d="M 496 638 C 478 629 456 630 432 637 C 425 638 424 643 428 649 C 431 653 437 656 444 657 C 456 657 470 660 484 668 C 505 680 505 680 516 686 C 529 693 543 703 557 715 C 636 783 705 835 769 858 C 798 868 864 854 964 826 C 970 824 974 818 976 813 C 977 806 972 806 959 805 C 926 802 890 798 853 795 C 782 789 681 746 551 667 C 543 662 537 657 530 654 C 507 643 507 643 496 638 Z"/></clipPath>
</defs>
<g id="bg-layer">
    <path class="bg" d="M 251 264 C 326 159 339 135 371 111 C 382 101 383 90 374 83 C 363 73 347 69 329 65 C 311 61 300 61 293 65 C 286 68 285 72 290 81 C 296 96 285 146 247 229 C 241 240 235 251 229 266 C 226 273 247 270 251 264 Z"/>
    <path class="bg" d="M 223 265 C 217 262 212 260 206 258 C 194 254 185 251 178 255 C 170 258 169 265 175 273 C 184 283 195 308 197 349 C 199 411 201 474 193 537 C 189 567 189 567 187 582 C 173 682 133 779 80 873 C 77 877 75 880 75 884 C 74 890 76 892 82 891 C 89 888 103 871 126 841 C 173 776 216 687 231 568 C 234 541 234 541 236 528 C 253 385 241 307 251 298 C 256 285 236 270 223 265 Z"/>
    <path class="bg" d="M 409 797 C 398 685 398 540 397 367 C 396 331 398 307 407 292 C 413 280 413 270 406 265 C 393 253 375 244 354 236 C 342 231 332 230 323 236 C 302 247 263 261 251 264 C 236 265 236 265 229 266 C 227 266 225 265 223 265 C 209 262 238 303 251 298 C 277 289 298 282 315 278 C 327 275 335 275 338 282 C 345 299 347 374 353 502 C 354 519 354 519 354 527 C 355 557 351 811 342 824 C 339 827 314 825 274 817 C 260 814 252 815 257 820 C 287 850 316 871 336 893 C 344 902 352 909 362 914 C 366 915 372 914 378 908 C 398 880 413 845 410 808 C 409 801 409 801 409 797 Z"/>
    <path class="bg" d="M 263 379 C 275 419 287 443 301 449 C 307 451 314 449 320 442 C 323 436 325 426 324 415 C 323 406 315 398 306 389 C 290 374 280 364 274 361 C 269 358 266 359 264 365 C 261 369 261 373 263 379 Z"/>
    <path class="bg" d="M 193 537 C 162 543 131 547 100 554 C 87 556 69 556 50 555 C 41 554 36 557 35 564 C 32 571 34 578 40 584 C 52 594 66 607 87 620 C 92 623 100 621 108 617 C 132 602 159 590 187 582 C 216 573 216 573 231 568 C 274 554 327 535 354 527 C 362 524 361 501 353 502 C 316 510 277 519 236 528 C 207 534 207 534 193 537 Z"/>
    <path class="bg" d="M 255 617 Q 289 678 311 684 Q 323 687 330 672 Q 334 662 328 642 Q 316 612 263 594 Q 256 591 253 601 Q 250 608 255 617 Z"/>
    <path class="bg" d="M 745 310 C 777 297 807 277 844 270 C 854 267 861 266 863 261 C 865 254 861 247 854 241 C 840 231 819 224 793 215 C 781 211 773 207 766 210 C 760 211 758 216 759 224 C 759 247 706 285 604 345 C 598 348 600 355 605 356 C 616 357 653 346 712 323 C 734 314 734 314 745 310 Z"/>
    <path class="bg" d="M 766 480 C 784 475 822 466 882 457 C 888 456 895 454 898 447 C 900 440 891 435 879 429 C 859 417 825 424 768 441 C 739 450 739 450 724 454 C 704 459 685 462 667 465 C 648 468 628 471 606 475 C 590 477 587 483 602 493 C 618 505 641 509 667 503 C 683 499 702 495 724 490 C 752 483 752 483 766 480 Z"/>
    <path class="bg" d="M 760 619 C 762 569 764 522 766 480 C 767 454 767 454 768 441 C 770 369 775 339 771 332 C 764 321 753 316 745 310 C 735 304 708 312 712 323 C 720 341 724 384 724 454 C 724 478 724 478 724 490 C 723 526 722 572 722 627 C 722 640 760 632 760 619 Z"/>
    <path class="bg" d="M 722 626 C 706 628 676 631 628 637 C 609 638 607 644 622 657 C 639 670 664 677 695 672 C 769 659 828 649 874 648 C 880 647 888 646 893 637 C 895 630 885 624 872 616 C 837 596 806 610 760 619 C 735 624 735 624 722 626 Z"/>
    <path class="bg" d="M 519 513 Q 531 546 496 638 C 488 658 488 658 484 668 Q 439 767 409 797 C 406 800 406 809 410 808 Q 411 811 419 803 Q 480 755 516 686 C 525 665 525 665 530 654 Q 543 617 556 577 Q 569 522 580 506 Q 587 496 580 488 Q 568 478 554 475 Q 541 471 520 478 Q 501 485 495 482 Q 491 479 496 468 Q 517 425 537 377 Q 553 346 567 331 Q 583 315 571 304 Q 561 295 531 285 Q 509 275 494 289 Q 454 320 423 330 Q 410 334 418 341 Q 436 353 487 333 Q 497 330 501 336 Q 507 346 495 385 Q 477 451 459 472 Q 449 485 454 497 Q 458 504 477 502 Q 513 496 519 513 Z"/>
    <path class="bg" d="M 496 638 C 478 629 456 630 432 637 C 425 638 424 643 428 649 C 431 653 437 656 444 657 C 456 657 470 660 484 668 C 505 680 505 680 516 686 C 529 693 543 703 557 715 C 636 783 705 835 769 858 C 798 868 864 854 964 826 C 970 824 974 818 976 813 C 977 806 972 806 959 805 C 926 802 890 798 853 795 C 782 789 681 746 551 667 C 543 662 537 657 530 654 C 507 643 507 643 496 638 Z"/>
</g>
<g id="anim-layer">
    <path style="--d:1s; stroke:#FF4444;" pathLength="3333" clip-path="url(#z33351c1)" d="M 293 72 L 333 111 L 236 264"/>
    <path style="--d:2s; stroke:#FF4444;" pathLength="3333" clip-path="url(#z33351c2)" d="M 177 260 L 222 305 L 212 552 L 173 718 L 82 883"/>
    <path style="--d:3s; stroke:#FF4444;" pathLength="3333" clip-path="url(#z33351c3)" d="M 229 272 L 338 255 L 376 285 L 375 835 L 349 870 L 260 820"/>
    <path style="--d:4s; stroke:#FF4444;" pathLength="3333" clip-path="url(#z33351c4)" d="M 270 366 L 306 446"/>
    <path style="--d:5s; stroke:#FF4444;" pathLength="3333" clip-path="url(#z33351c5)" d="M 38 564 L 97 587 L 356 515"/>
    <path style="--d:6s; stroke:#FF4444;" pathLength="3333" clip-path="url(#z33351c6)" d="M 258 599 L 322 678"/>
    <path style="--d:7s; stroke:#000;" pathLength="3333" clip-path="url(#z33351c7)" d="M 768 217 L 805 263 L 609 350"/>
    <path style="--d:8s; stroke:#000;" pathLength="3333" clip-path="url(#z33351c8)" d="M 601 482 L 895 442"/>
    <path style="--d:9s; stroke:#000;" pathLength="3333" clip-path="url(#z33351c9)" d="M 719 319 L 746 348 L 736 631"/>
    <path style="--d:10s; stroke:#000;" pathLength="3333" clip-path="url(#z33351c10)" d="M 622 648 L 886 630"/>
    <path style="--d:11s; stroke:#000;" pathLength="3333" clip-path="url(#z33351c11)" d="M 424 337 L 509 308 L 537 321 L 473 483 L 552 511 L 497 683 L 413 800"/>
    <path style="--d:12s; stroke:#000;" pathLength="3333" clip-path="url(#z33351c12)" d="M 432 643 L 513 664 L 774 819 L 969 813"/>
</g>
</svg>