<svg id="z33436" class="acjk" viewBox="0 0 1024 1024" xmlns="http://www.w3.org/2000/svg">

<style>
<![CDATA[
@keyframes zk { to { stroke-dashoffset:0; } }
svg.acjk path[clip-path] {
    --t:0.8s;
    animation:zk var(--t) linear forwards var(--d);
    stroke-dasharray:3337;
    stroke-dashoffset:3339;
    stroke-width:128;
    stroke-linecap:round;
    fill:none;
}
/* Low opacity for background improves visual overlap at intersections */
svg.acjk .bg { fill:#ccc; opacity: 0.5; } 
]]>
</style>
<defs>
    <clipPath id="z33436c1"><path d="M 627 233 Q 699 220 815 228 Q 831 229 835 219 Q 839 209 827 194 Q 779 154 687 178 Q 668 179 648 185 C 611 192 611 192 593 195 Q 514 207 424 221 C 395 225 395 225 380 227 Q 301 234 214 246 Q 186 250 206 265 Q 249 292 326 274 Q 356 265 388 260 C 415 255 415 255 428 253 Q 482 243 583 236 C 612 234 612 234 627 233 Z"/></clipPath>
    <clipPath id="z33436c2"><path d="M 424 221 Q 420 182 418 153 Q 419 134 400 129 Q 361 111 341 119 Q 323 128 338 146 Q 368 179 380 227 C 385 249 385 249 388 260 Q 391 291 411 313 Q 424 323 428 311 Q 435 292 430 271 Q 429 261 428 253 C 425 232 425 232 424 221 Z"/></clipPath>
    <clipPath id="z33436c3"><path d="M 648 185 Q 657 160 681 120 Q 694 105 685 95 Q 673 77 638 60 Q 622 50 604 59 Q 594 65 602 76 Q 614 106 593 195 C 586 222 586 222 583 236 Q 571 266 570 297 Q 571 310 588 300 Q 597 291 627 233 C 641 201 641 201 648 185 Z"/></clipPath>
    <clipPath id="z33436c4"><path d="M 482 419 Q 687 383 698 375 Q 708 366 703 357 Q 696 344 665 335 Q 632 328 599 339 Q 542 357 480 370 Q 413 383 332 389 Q 292 393 320 413 Q 362 440 427 427 Q 430 427 436 427 C 467 422 467 422 482 419 Z"/></clipPath>
    <clipPath id="z33436c5"><path d="M 540 572 Q 643 562 786 562 Q 859 565 867 553 Q 873 541 856 527 Q 795 482 735 501 Q 639 519 489 542 Q 488 542 488 543 C 446 548 446 548 425 551 Q 298 567 153 585 Q 131 586 147 605 Q 180 635 219 626 Q 310 601 415 587 C 456 582 456 582 477 579 Q 484 578 495 577 C 525 574 525 574 540 572 Z"/></clipPath>
    <clipPath id="z33436c6"><path d="M 488 543 Q 494 516 513 472 Q 525 453 506 438 Q 493 426 482 419 C 469 411 433 412 436 427 Q 445 463 425 551 C 418 575 418 575 415 587 Q 376 704 331 768 Q 327 772 324 778 Q 287 832 187 890 Q 169 900 165 905 Q 161 912 173 915 Q 215 921 295 870 Q 388 807 434 691 Q 455 643 477 579 C 484 555 484 555 488 543 Z"/></clipPath>
    <clipPath id="z33436c7"><path d="M 906 867 Q 888 815 879 724 Q 878 708 870 702 Q 861 696 857 718 Q 838 829 822 849 Q 795 879 688 880 Q 628 879 603 870 Q 581 858 575 844 Q 566 819 566 751 Q 570 678 584 644 Q 596 611 576 595 Q 555 580 540 572 C 527 564 492 562 495 577 Q 495 580 498 585 Q 520 624 517 682 Q 516 821 525 848 Q 532 882 557 900 Q 605 939 778 934 Q 856 931 887 915 Q 918 899 906 867 Z"/></clipPath>
</defs>
<g id="bg-layer">
    <path class="bg" d="M 627 233 Q 699 220 815 228 Q 831 229 835 219 Q 839 209 827 194 Q 779 154 687 178 Q 668 179 648 185 C 611 192 611 192 593 195 Q 514 207 424 221 C 395 225 395 225 380 227 Q 301 234 214 246 Q 186 250 206 265 Q 249 292 326 274 Q 356 265 388 260 C 415 255 415 255 428 253 Q 482 243 583 236 C 612 234 612 234 627 233 Z"/>
    <path class="bg" d="M 424 221 Q 420 182 418 153 Q 419 134 400 129 Q 361 111 341 119 Q 323 128 338 146 Q 368 179 380 227 C 385 249 385 249 388 260 Q 391 291 411 313 Q 424 323 428 311 Q 435 292 430 271 Q 429 261 428 253 C 425 232 425 232 424 221 Z"/>
    <path class="bg" d="M 648 185 Q 657 160 681 120 Q 694 105 685 95 Q 673 77 638 60 Q 622 50 604 59 Q 594 65 602 76 Q 614 106 593 195 C 586 222 586 222 583 236 Q 571 266 570 297 Q 571 310 588 300 Q 597 291 627 233 C 641 201 641 201 648 185 Z"/>
    <path class="bg" d="M 482 419 Q 687 383 698 375 Q 708 366 703 357 Q 696 344 665 335 Q 632 328 599 339 Q 542 357 480 370 Q 413 383 332 389 Q 292 393 320 413 Q 362 440 427 427 Q 430 427 436 427 C 467 422 467 422 482 419 Z"/>
    <path class="bg" d="M 540 572 Q 643 562 786 562 Q 859 565 867 553 Q 873 541 856 527 Q 795 482 735 501 Q 639 519 489 542 Q 488 542 488 543 C 446 548 446 548 425 551 Q 298 567 153 585 Q 131 586 147 605 Q 180 635 219 626 Q 310 601 415 587 C 456 582 456 582 477 579 Q 484 578 495 577 C 525 574 525 574 540 572 Z"/>
    <path class="bg" d="M 488 543 Q 494 516 513 472 Q 525 453 506 438 Q 493 426 482 419 C 469 411 433 412 436 427 Q 445 463 425 551 C 418 575 418 575 415 587 Q 376 704 331 768 Q 327 772 324 778 Q 287 832 187 890 Q 169 900 165 905 Q 161 912 173 915 Q 215 921 295 870 Q 388 807 434 691 Q 455 643 477 579 C 484 555 484 555 488 543 Z"/>
    <path class="bg" d="M 906 867 Q 888 815 879 724 Q 878 708 870 702 Q 861 696 857 718 Q 838 829 822 849 Q 795 879 688 880 Q 628 879 603 870 Q 581 858 575 844 Q 566 819 566 751 Q 570 678 584 644 Q 596 611 576 595 Q 555 580 540 572 C 527 564 492 562 495 577 Q 495 580 498 585 Q 520 624 517 682 Q 516 821 525 848 Q 532 882 557 900 Q 605 939 778 934 Q 856 931 887 915 Q 918 899 906 867 Z"/>
</g>
<g id="anim-layer">
    <path style="--d:1s; stroke:#FF4444;" pathLength="3333" clip-path="url(#z33436c1)" d="M 209 256 L 739 197 L 832 213"/>
    <path style="--d:2s; stroke:#FF4444;" pathLength="3333" clip-path="url(#z33436c2)" d="M 337 126 L 387 159 L 416 310"/>
    <path style="--d:3s; stroke:#FF4444;" pathLength="3333" clip-path="url(#z33436c3)" d="M 606 64 L 647 106 L 581 298"/>
    <path style="--d:4s; stroke:#000;" pathLength="3333" clip-path="url(#z33436c4)" d="M 317 398 L 402 406 L 699 361"/>
    <path style="--d:5s; stroke:#000;" pathLength="3333" clip-path="url(#z33436c5)" d="M 147 593 L 216 602 L 772 528 L 864 545"/>
    <path style="--d:6s; stroke:#000;" pathLength="3333" clip-path="url(#z33436c6)" d="M 443 431 L 476 472 L 380 740 L 303 836 L 171 909"/>
    <path style="--d:7s; stroke:#000;" pathLength="3333" clip-path="url(#z33436c7)" d="M 505 581 L 550 619 L 545 824 L 595 893 L 743 906 L 854 881 L 869 709"/>
</g>
</svg>