<svg id="z33455" class="acjk" viewBox="0 0 1024 1024" xmlns="http://www.w3.org/2000/svg">

<style>
<![CDATA[
@keyframes zk { to { stroke-dashoffset:0; } }
svg.acjk path[clip-path] {
    --t:0.8s;
    animation:zk var(--t) linear forwards var(--d);
    stroke-dasharray:3337;
    stroke-dashoffset:3339;
    stroke-width:128;
    stroke-linecap:round;
    fill:none;
}
/* Low opacity for background improves visual overlap at intersections */
svg.acjk .bg { fill:#ccc; opacity: 0.5; } 
]]>
</style>
<defs>
    <clipPath id="z33455c1"><path d="M 640 287 C 692 284 755 276 830 281 C 840 281 848 279 851 273 C 854 265 852 254 843 246 C 822 228 796 221 765 220 C 741 220 696 230 657 237 C 617 244 617 244 597 247 C 552 254 463 268 391 278 C 357 283 357 283 340 285 C 284 292 226 297 167 305 C 147 307 143 315 158 325 C 187 344 222 349 259 341 C 288 334 317 324 348 320 C 379 315 379 315 394 313 C 449 304 526 293 588 290 C 623 288 623 288 640 287 Z"/></clipPath>
    <clipPath id="z33455c2"><path d="M 391 278 C 388 245 384 215 383 189 C 382 174 376 166 362 161 C 333 148 310 141 294 148 C 279 153 279 164 291 179 C 323 218 333 255 340 285 C 345 308 345 308 348 320 C 358 365 363 397 378 411 C 387 419 394 418 398 410 C 402 398 398 367 394 313 C 392 290 392 290 391 278 Z"/></clipPath>
    <clipPath id="z33455c3"><path d="M 657 237 C 667 205 675 172 695 142 C 703 128 705 121 698 114 C 686 102 669 89 643 77 C 630 70 617 70 604 79 C 597 83 597 89 602 98 C 611 116 614 137 612 159 C 609 185 603 214 597 247 C 591 276 591 276 588 290 C 576 343 567 376 569 391 C 569 401 576 403 589 394 C 599 386 618 350 640 287 C 651 254 651 254 657 237 Z"/></clipPath>
    <clipPath id="z33455c4"><path d="M 205 562 C 186 610 165 655 140 698 C 125 722 126 746 139 770 C 145 782 156 785 171 775 C 210 744 229 692 234 624 C 235 599 237 578 231 562 C 228 554 223 551 219 551 C 212 551 207 555 205 562 Z"/></clipPath>
    <clipPath id="z33455c5"><path d="M 854 829 C 851 820 845 808 832 795 C 811 773 774 728 721 659 C 717 654 713 650 709 650 C 706 649 705 653 707 659 C 715 693 724 728 731 766 C 734 781 730 794 721 802 C 710 810 689 815 658 817 C 613 819 568 816 524 806 C 449 788 400 749 378 688 C 364 649 355 609 350 569 C 347 550 340 537 328 529 C 317 521 310 519 305 524 C 304 524 313 561 326 639 C 338 714 360 775 405 814 C 477 877 587 899 731 882 C 741 880 752 878 764 875 C 786 869 811 857 840 843 C 850 837 855 833 854 829 Z"/></clipPath>
    <clipPath id="z33455c6"><path d="M 466 531 C 486 551 507 574 529 600 C 537 610 548 616 561 617 C 569 617 575 613 580 603 C 584 592 584 575 580 552 C 577 535 565 518 541 507 C 483 479 449 468 440 473 C 435 475 432 481 434 491 C 435 500 447 512 466 531 Z"/></clipPath>
    <clipPath id="z33455c7"><path d="M 690 500 C 736 532 786 573 841 622 C 855 634 867 643 880 645 C 886 645 891 640 897 633 C 904 622 901 601 889 569 C 877 539 845 513 788 495 C 744 480 710 471 688 465 C 679 462 675 465 676 475 C 676 485 681 493 690 500 Z"/></clipPath>
</defs>
<g id="bg-layer">
    <path class="bg" d="M 640 287 C 692 284 755 276 830 281 C 840 281 848 279 851 273 C 854 265 852 254 843 246 C 822 228 796 221 765 220 C 741 220 696 230 657 237 C 617 244 617 244 597 247 C 552 254 463 268 391 278 C 357 283 357 283 340 285 C 284 292 226 297 167 305 C 147 307 143 315 158 325 C 187 344 222 349 259 341 C 288 334 317 324 348 320 C 379 315 379 315 394 313 C 449 304 526 293 588 290 C 623 288 623 288 640 287 Z"/>
    <path class="bg" d="M 391 278 C 388 245 384 215 383 189 C 382 174 376 166 362 161 C 333 148 310 141 294 148 C 279 153 279 164 291 179 C 323 218 333 255 340 285 C 345 308 345 308 348 320 C 358 365 363 397 378 411 C 387 419 394 418 398 410 C 402 398 398 367 394 313 C 392 290 392 290 391 278 Z"/>
    <path class="bg" d="M 657 237 C 667 205 675 172 695 142 C 703 128 705 121 698 114 C 686 102 669 89 643 77 C 630 70 617 70 604 79 C 597 83 597 89 602 98 C 611 116 614 137 612 159 C 609 185 603 214 597 247 C 591 276 591 276 588 290 C 576 343 567 376 569 391 C 569 401 576 403 589 394 C 599 386 618 350 640 287 C 651 254 651 254 657 237 Z"/>
    <path class="bg" d="M 205 562 C 186 610 165 655 140 698 C 125 722 126 746 139 770 C 145 782 156 785 171 775 C 210 744 229 692 234 624 C 235 599 237 578 231 562 C 228 554 223 551 219 551 C 212 551 207 555 205 562 Z"/>
    <path class="bg" d="M 854 829 C 851 820 845 808 832 795 C 811 773 774 728 721 659 C 717 654 713 650 709 650 C 706 649 705 653 707 659 C 715 693 724 728 731 766 C 734 781 730 794 721 802 C 710 810 689 815 658 817 C 613 819 568 816 524 806 C 449 788 400 749 378 688 C 364 649 355 609 350 569 C 347 550 340 537 328 529 C 317 521 310 519 305 524 C 304 524 313 561 326 639 C 338 714 360 775 405 814 C 477 877 587 899 731 882 C 741 880 752 878 764 875 C 786 869 811 857 840 843 C 850 837 855 833 854 829 Z"/>
    <path class="bg" d="M 466 531 C 486 551 507 574 529 600 C 537 610 548 616 561 617 C 569 617 575 613 580 603 C 584 592 584 575 580 552 C 577 535 565 518 541 507 C 483 479 449 468 440 473 C 435 475 432 481 434 491 C 435 500 447 512 466 531 Z"/>
    <path class="bg" d="M 690 500 C 736 532 786 573 841 622 C 855 634 867 643 880 645 C 886 645 891 640 897 633 C 904 622 901 601 889 569 C 877 539 845 513 788 495 C 744 480 710 471 688 465 C 679 462 675 465 676 475 C 676 485 681 493 690 500 Z"/>
</g>
<g id="anim-layer">
    <path style="--d:1s; stroke:#FF4444;" pathLength="3333" clip-path="url(#z33455c1)" d="M 156 313 L 231 321 L 736 250 L 847 269"/>
    <path style="--d:2s; stroke:#FF4444;" pathLength="3333" clip-path="url(#z33455c2)" d="M 288 159 L 349 197 L 390 410"/>
    <path style="--d:3s; stroke:#FF4444;" pathLength="3333" clip-path="url(#z33455c3)" d="M 605 85 L 658 131 L 581 395"/>
    <path style="--d:4s; stroke:#000;" pathLength="3333" clip-path="url(#z33455c4)" d="M 220 558 L 144 771"/>
    <path style="--d:5s; stroke:#000;" pathLength="3333" clip-path="url(#z33455c5)" d="M 313 531 L 384 748 L 489 829 L 681 851 L 800 815 L 712 658"/>
    <path style="--d:6s; stroke:#000;" pathLength="3333" clip-path="url(#z33455c6)" d="M 442 481 L 536 550 L 572 610"/>
    <path style="--d:7s; stroke:#000;" pathLength="3333" clip-path="url(#z33455c7)" d="M 682 476 L 826 556 L 891 635"/>
</g>
</svg>