<svg id="z33463" class="acjk" viewBox="0 0 1024 1024" xmlns="http://www.w3.org/2000/svg">

<style>
<![CDATA[
@keyframes zk { to { stroke-dashoffset:0; } }
svg.acjk path[clip-path] {
    --t:0.8s;
    animation:zk var(--t) linear forwards var(--d);
    stroke-dasharray:3337;
    stroke-dashoffset:3339;
    stroke-width:128;
    stroke-linecap:round;
    fill:none;
}
/* Low opacity for background improves visual overlap at intersections */
svg.acjk .bg { fill:#ccc; opacity: 0.5; } 
]]>
</style>
<defs>
    <clipPath id="z33463c1"><path d="M 639 256 Q 747 247 836 253 Q 854 254 859 244 Q 865 231 850 215 Q 796 170 693 195 Q 675 196 659 201 C 621 208 621 208 602 211 Q 520 224 430 237 C 396 241 396 241 379 243 Q 297 253 205 263 Q 172 267 195 284 Q 240 315 304 303 Q 344 291 388 284 C 419 279 419 279 434 276 Q 455 267 591 259 C 623 257 623 257 639 256 Z"/></clipPath>
    <clipPath id="z33463c2"><path d="M 430 237 Q 427 195 425 163 Q 426 142 405 136 Q 363 115 339 123 Q 320 133 336 153 Q 369 192 379 243 C 385 270 385 270 388 284 Q 403 344 415 356 Q 428 366 434 354 Q 440 336 434 276 C 431 250 431 250 430 237 Z"/></clipPath>
    <clipPath id="z33463c3"><path d="M 659 201 Q 668 168 696 115 Q 711 99 700 88 Q 687 70 649 53 Q 630 43 612 53 Q 602 60 610 72 Q 622 97 618 128 Q 614 165 602 211 C 595 243 595 243 591 259 Q 573 328 574 344 Q 575 360 592 347 Q 607 332 639 256 C 652 219 652 219 659 201 Z"/></clipPath>
    <clipPath id="z33463c4"><path d="M 530 783 Q 536 671 541 567 C 542 545 542 545 543 534 Q 543 486 562 401 Q 566 389 544 373 Q 507 354 480 349 Q 462 346 454 355 Q 447 364 455 379 Q 480 415 481 439 Q 491 601 486 789 C 486 804 530 798 530 783 Z"/></clipPath>
    <clipPath id="z33463c5"><path d="M 541 567 Q 592 583 638 571 Q 686 562 737 552 Q 759 548 763 544 Q 773 535 768 525 Q 759 512 726 504 Q 692 498 658 512 Q 633 519 605 526 Q 575 530 543 534 C 532 536 530 565 541 567 Z"/></clipPath>
    <clipPath id="z33463c6"><path d="M 367 800 Q 355 641 361 591 Q 362 566 347 552 Q 320 533 290 523 Q 274 519 264 525 Q 255 532 263 549 Q 284 583 294 621 Q 301 658 321 804 C 324 819 367 815 367 800 Z"/></clipPath>
    <clipPath id="z33463c7"><path d="M 486 789 Q 428 792 367 800 C 336 803 336 803 321 804 Q 242 810 156 818 Q 131 819 148 841 Q 184 877 229 867 Q 481 807 857 828 Q 857 827 860 828 Q 884 829 890 819 Q 897 806 878 789 Q 815 741 773 749 Q 682 765 530 783 C 501 787 501 787 486 789 Z"/></clipPath>
</defs>
<g id="bg-layer">
    <path class="bg" d="M 639 256 Q 747 247 836 253 Q 854 254 859 244 Q 865 231 850 215 Q 796 170 693 195 Q 675 196 659 201 C 621 208 621 208 602 211 Q 520 224 430 237 C 396 241 396 241 379 243 Q 297 253 205 263 Q 172 267 195 284 Q 240 315 304 303 Q 344 291 388 284 C 419 279 419 279 434 276 Q 455 267 591 259 C 623 257 623 257 639 256 Z"/>
    <path class="bg" d="M 430 237 Q 427 195 425 163 Q 426 142 405 136 Q 363 115 339 123 Q 320 133 336 153 Q 369 192 379 243 C 385 270 385 270 388 284 Q 403 344 415 356 Q 428 366 434 354 Q 440 336 434 276 C 431 250 431 250 430 237 Z"/>
    <path class="bg" d="M 659 201 Q 668 168 696 115 Q 711 99 700 88 Q 687 70 649 53 Q 630 43 612 53 Q 602 60 610 72 Q 622 97 618 128 Q 614 165 602 211 C 595 243 595 243 591 259 Q 573 328 574 344 Q 575 360 592 347 Q 607 332 639 256 C 652 219 652 219 659 201 Z"/>
    <path class="bg" d="M 530 783 Q 536 671 541 567 C 542 545 542 545 543 534 Q 543 486 562 401 Q 566 389 544 373 Q 507 354 480 349 Q 462 346 454 355 Q 447 364 455 379 Q 480 415 481 439 Q 491 601 486 789 C 486 804 530 798 530 783 Z"/>
    <path class="bg" d="M 541 567 Q 592 583 638 571 Q 686 562 737 552 Q 759 548 763 544 Q 773 535 768 525 Q 759 512 726 504 Q 692 498 658 512 Q 633 519 605 526 Q 575 530 543 534 C 532 536 530 565 541 567 Z"/>
    <path class="bg" d="M 367 800 Q 355 641 361 591 Q 362 566 347 552 Q 320 533 290 523 Q 274 519 264 525 Q 255 532 263 549 Q 284 583 294 621 Q 301 658 321 804 C 324 819 367 815 367 800 Z"/>
    <path class="bg" d="M 486 789 Q 428 792 367 800 C 336 803 336 803 321 804 Q 242 810 156 818 Q 131 819 148 841 Q 184 877 229 867 Q 481 807 857 828 Q 857 827 860 828 Q 884 829 890 819 Q 897 806 878 789 Q 815 741 773 749 Q 682 765 530 783 C 501 787 501 787 486 789 Z"/>
</g>
<g id="anim-layer">
    <path style="--d:1s; stroke:#FF4444;" pathLength="3333" clip-path="url(#z33463c1)" d="M 197 274 L 302 278 L 734 219 L 856 236"/>
    <path style="--d:2s; stroke:#FF4444;" pathLength="3333" clip-path="url(#z33463c2)" d="M 335 135 L 393 174 L 424 355"/>
    <path style="--d:3s; stroke:#FF4444;" pathLength="3333" clip-path="url(#z33463c3)" d="M 613 58 L 661 108 L 584 348"/>
    <path style="--d:4s; stroke:#000;" pathLength="3333" clip-path="url(#z33463c4)" d="M 458 362 L 520 409 L 499 786"/>
    <path style="--d:5s; stroke:#000;" pathLength="3333" clip-path="url(#z33463c5)" d="M 549 562 L 766 528"/>
    <path style="--d:6s; stroke:#000;" pathLength="3333" clip-path="url(#z33463c6)" d="M 266 529 L 322 584 L 338 802"/>
    <path style="--d:7s; stroke:#000;" pathLength="3333" clip-path="url(#z33463c7)" d="M 147 825 L 213 841 L 768 786 L 888 808"/>
</g>
</svg>