<svg id="z33503" class="acjk" viewBox="0 0 1024 1024" xmlns="http://www.w3.org/2000/svg">

<style>
<![CDATA[
@keyframes zk { to { stroke-dashoffset:0; } }
svg.acjk path[clip-path] {
    --t:0.8s;
    animation:zk var(--t) linear forwards var(--d);
    stroke-dasharray:3337;
    stroke-dashoffset:3339;
    stroke-width:128;
    stroke-linecap:round;
    fill:none;
}
/* Low opacity for background improves visual overlap at intersections */
svg.acjk .bg { fill:#ccc; opacity: 0.5; } 
]]>
</style>
<defs>
    <clipPath id="z33503c1"><path d="M 625 227 C 707 220 781 214 850 219 C 871 220 883 201 862 183 C 826 151 781 148 729 162 C 701 169 673 173 645 178 C 607 185 607 185 588 188 C 533 197 475 206 415 215 C 386 219 386 219 371 221 C 310 229 248 235 184 244 C 163 246 159 253 175 264 C 202 282 224 292 275 281 C 303 274 360 259 378 257 C 405 253 405 253 418 251 C 444 247 550 233 577 231 C 609 228 609 228 625 227 Z"/></clipPath>
    <clipPath id="z33503c2"><path d="M 415 215 C 412 184 410 156 410 132 C 410 119 404 112 392 107 C 365 94 345 88 331 94 C 318 99 317 108 328 122 C 351 151 364 185 371 221 C 376 245 376 245 378 257 C 382 279 388 297 399 308 C 406 315 414 314 417 307 C 422 293 420 275 418 251 C 416 227 416 227 415 215 Z"/></clipPath>
    <clipPath id="z33503c3"><path d="M 645 178 C 654 155 662 131 678 110 C 686 98 688 90 682 83 C 672 72 657 60 634 48 C 613 36 584 45 596 66 C 607 85 603 127 588 188 C 581 217 581 217 577 231 C 566 271 561 295 562 304 C 562 313 568 315 580 307 C 590 298 606 272 625 227 C 638 194 638 194 645 178 Z"/></clipPath>
    <clipPath id="z33503c4"><path d="M 444 417 C 459 401 475 385 483 377 C 492 366 502 347 461 334 C 440 327 427 325 419 327 C 414 327 409 332 408 343 C 402 380 360 439 273 515 C 259 526 260 529 279 527 C 313 522 362 495 420 440 C 436 425 436 425 444 417 Z"/></clipPath>
    <clipPath id="z33503c5"><path d="M 570 852 C 554 847 533 838 505 826 C 496 822 487 823 505 843 C 535 876 557 906 569 931 C 576 946 583 954 594 954 C 606 954 618 947 632 937 C 677 899 710 837 726 745 C 736 682 747 602 755 505 C 756 483 763 463 778 448 C 786 439 791 431 791 425 C 790 420 782 412 769 402 C 750 387 728 377 704 369 C 684 362 689 360 605 384 C 566 394 503 407 444 417 C 433 419 409 438 420 440 C 480 448 546 434 607 427 C 644 422 678 409 683 452 C 688 495 687 567 675 668 C 666 736 647 787 629 825 C 614 853 598 861 570 852 Z"/></clipPath>
    <clipPath id="z33503c6"><path d="M 251 571 C 239 565 199 555 222 593 C 238 625 254 669 265 724 C 268 739 273 753 283 764 C 295 778 303 780 307 770 C 309 761 310 748 310 735 C 309 722 307 710 306 699 C 298 651 290 608 292 598 C 292 582 266 577 251 571 Z"/></clipPath>
    <clipPath id="z33503c7"><path d="M 483 687 C 501 643 520 616 536 603 C 548 592 548 577 538 567 C 528 557 505 544 471 528 C 459 522 445 522 432 529 C 379 552 273 567 251 571 C 235 574 276 598 292 598 C 302 598 353 587 417 581 C 442 577 446 582 444 606 C 443 622 439 645 434 675 C 431 692 477 703 483 687 Z"/></clipPath>
    <clipPath id="z33503c8"><path d="M 310 735 C 323 734 343 726 490 720 C 498 719 517 714 483 687 C 470 677 450 672 434 675 C 419 678 397 683 306 699 C 294 701 298 737 310 735 Z"/></clipPath>
</defs>
<g id="bg-layer">
    <path class="bg" d="M 625 227 C 707 220 781 214 850 219 C 871 220 883 201 862 183 C 826 151 781 148 729 162 C 701 169 673 173 645 178 C 607 185 607 185 588 188 C 533 197 475 206 415 215 C 386 219 386 219 371 221 C 310 229 248 235 184 244 C 163 246 159 253 175 264 C 202 282 224 292 275 281 C 303 274 360 259 378 257 C 405 253 405 253 418 251 C 444 247 550 233 577 231 C 609 228 609 228 625 227 Z"/>
    <path class="bg" d="M 415 215 C 412 184 410 156 410 132 C 410 119 404 112 392 107 C 365 94 345 88 331 94 C 318 99 317 108 328 122 C 351 151 364 185 371 221 C 376 245 376 245 378 257 C 382 279 388 297 399 308 C 406 315 414 314 417 307 C 422 293 420 275 418 251 C 416 227 416 227 415 215 Z"/>
    <path class="bg" d="M 645 178 C 654 155 662 131 678 110 C 686 98 688 90 682 83 C 672 72 657 60 634 48 C 613 36 584 45 596 66 C 607 85 603 127 588 188 C 581 217 581 217 577 231 C 566 271 561 295 562 304 C 562 313 568 315 580 307 C 590 298 606 272 625 227 C 638 194 638 194 645 178 Z"/>
    <path class="bg" d="M 444 417 C 459 401 475 385 483 377 C 492 366 502 347 461 334 C 440 327 427 325 419 327 C 414 327 409 332 408 343 C 402 380 360 439 273 515 C 259 526 260 529 279 527 C 313 522 362 495 420 440 C 436 425 436 425 444 417 Z"/>
    <path class="bg" d="M 570 852 C 554 847 533 838 505 826 C 496 822 487 823 505 843 C 535 876 557 906 569 931 C 576 946 583 954 594 954 C 606 954 618 947 632 937 C 677 899 710 837 726 745 C 736 682 747 602 755 505 C 756 483 763 463 778 448 C 786 439 791 431 791 425 C 790 420 782 412 769 402 C 750 387 728 377 704 369 C 684 362 689 360 605 384 C 566 394 503 407 444 417 C 433 419 409 438 420 440 C 480 448 546 434 607 427 C 644 422 678 409 683 452 C 688 495 687 567 675 668 C 666 736 647 787 629 825 C 614 853 598 861 570 852 Z"/>
    <path class="bg" d="M 251 571 C 239 565 199 555 222 593 C 238 625 254 669 265 724 C 268 739 273 753 283 764 C 295 778 303 780 307 770 C 309 761 310 748 310 735 C 309 722 307 710 306 699 C 298 651 290 608 292 598 C 292 582 266 577 251 571 Z"/>
    <path class="bg" d="M 483 687 C 501 643 520 616 536 603 C 548 592 548 577 538 567 C 528 557 505 544 471 528 C 459 522 445 522 432 529 C 379 552 273 567 251 571 C 235 574 276 598 292 598 C 302 598 353 587 417 581 C 442 577 446 582 444 606 C 443 622 439 645 434 675 C 431 692 477 703 483 687 Z"/>
    <path class="bg" d="M 310 735 C 323 734 343 726 490 720 C 498 719 517 714 483 687 C 470 677 450 672 434 675 C 419 678 397 683 306 699 C 294 701 298 737 310 735 Z"/>
</g>
<g id="anim-layer">
    <path style="--d:1s; stroke:#FF4444;" pathLength="3333" clip-path="url(#z33503c1)" d="M 173 253 L 250 260 L 758 187 L 869 200"/>
    <path style="--d:2s; stroke:#FF4444;" pathLength="3333" clip-path="url(#z33503c2)" d="M 326 107 L 378 138 L 407 308"/>
    <path style="--d:3s; stroke:#FF4444;" pathLength="3333" clip-path="url(#z33503c3)" d="M 600 49 L 643 99 L 569 305"/>
    <path style="--d:4s; stroke:#000;" pathLength="3333" clip-path="url(#z33503c4)" d="M 419 331 L 440 374 L 274 522"/>
    <path style="--d:5s; stroke:#000;" pathLength="3333" clip-path="url(#z33503c5)" d="M 427 434 L 663 394 L 738 439 L 692 751 L 648 863 L 584 903 L 501 830"/>
    <path style="--d:6s; stroke:#000;" pathLength="3333" clip-path="url(#z33503c6)" d="M 223 572 L 261 603 L 292 771"/>
    <path style="--d:7s; stroke:#000;" pathLength="3333" clip-path="url(#z33503c7)" d="M 254 573 L 456 555 L 495 594 L 462 692"/>
    <path style="--d:8s; stroke:#000;" pathLength="3333" clip-path="url(#z33503c8)" d="M 301 715 L 497 707"/>
</g>
</svg>