<svg id="z33642" class="acjk" viewBox="0 0 1024 1024" xmlns="http://www.w3.org/2000/svg">

<style>
<![CDATA[
@keyframes zk { to { stroke-dashoffset:0; } }
svg.acjk path[clip-path] {
    --t:0.8s;
    animation:zk var(--t) linear forwards var(--d);
    stroke-dasharray:3337;
    stroke-dashoffset:3339;
    stroke-width:128;
    stroke-linecap:round;
    fill:none;
}
/* Low opacity for background improves visual overlap at intersections */
svg.acjk .bg { fill:#ccc; opacity: 0.5; } 
]]>
</style>
<defs>
    <clipPath id="z33642c1"><path d="M 624 250 Q 718 243 817 249 Q 833 250 839 241 Q 843 229 830 214 Q 781 169 697 192 Q 670 195 645 201 C 608 206 608 206 590 209 Q 512 219 428 231 C 394 235 394 235 377 237 Q 293 244 208 254 Q 178 257 199 273 Q 247 301 299 291 Q 344 279 387 273 C 417 268 417 268 432 266 Q 456 257 578 253 C 609 251 609 251 624 250 Z"/></clipPath>
    <clipPath id="z33642c2"><path d="M 428 231 Q 425 194 423 166 Q 424 145 402 139 Q 357 120 336 129 Q 317 139 334 159 Q 359 187 377 237 C 384 261 384 261 387 273 Q 399 315 414 332 Q 429 342 433 330 Q 439 312 432 266 C 429 243 429 243 428 231 Z"/></clipPath>
    <clipPath id="z33642c3"><path d="M 645 201 Q 649 182 677 136 Q 692 121 681 111 Q 669 93 634 76 Q 618 66 601 75 Q 591 81 598 92 Q 610 122 590 209 C 582 238 582 238 578 253 Q 560 314 562 325 Q 563 338 580 328 Q 598 312 624 250 C 638 217 638 217 645 201 Z"/></clipPath>
    <clipPath id="z33642c4"><path d="M 354 542 Q 441 449 469 438 Q 487 431 480 416 Q 476 403 413 373 Q 395 366 376 374 Q 330 393 260 417 Q 242 424 198 424 Q 176 424 184 442 Q 191 454 209 463 Q 237 479 268 459 Q 361 407 379 419 Q 392 428 386 441 Q 364 483 340 533 C 337 538 351 546 354 542 Z"/></clipPath>
    <clipPath id="z33642c5"><path d="M 385 598 Q 373 556 354 542 C 345 536 345 536 340 533 Q 333 529 324 526 Q 305 519 295 524 Q 283 530 296 543 Q 327 567 339 622 C 343 645 343 645 345 656 Q 357 764 331 825 Q 318 841 295 833 Q 270 824 248 816 Q 238 812 240 822 Q 243 829 256 843 Q 284 877 292 903 Q 299 919 315 919 Q 327 918 353 897 Q 431 827 392 628 C 387 608 387 608 385 598 Z"/></clipPath>
    <clipPath id="z33642c6"><path d="M 392 628 Q 431 604 455 581 Q 465 572 464 563 Q 458 559 447 564 Q 416 580 385 598 C 354 614 354 614 339 622 Q 252 665 155 715 Q 134 725 98 731 Q 85 735 86 744 Q 86 757 96 763 Q 120 775 154 787 Q 164 788 174 779 Q 214 737 345 656 C 376 637 376 637 392 628 Z"/></clipPath>
    <clipPath id="z33642c7"><path d="M 612 821 Q 581 814 550 805 Q 538 802 539 810 Q 539 816 549 824 Q 613 885 636 922 Q 649 938 665 925 Q 701 889 699 825 Q 695 782 689 499 Q 688 453 698 422 Q 705 404 690 392 Q 665 373 637 363 Q 619 357 612 365 Q 606 371 617 386 Q 639 422 639 462 Q 654 801 631 819 Q 624 825 612 821 Z"/></clipPath>
    <clipPath id="z33642c8"><path d="M 518 585 Q 497 640 467 691 Q 451 719 466 749 Q 473 765 491 753 Q 537 717 542 635 Q 546 607 539 584 Q 535 577 529 576 Q 522 577 518 585 Z"/></clipPath>
    <clipPath id="z33642c9"><path d="M 762 599 Q 802 645 850 710 Q 863 731 877 736 Q 884 739 893 730 Q 906 718 898 676 Q 895 637 830 602 Q 788 580 766 569 Q 757 563 755 575 Q 754 588 762 599 Z"/></clipPath>
</defs>
<g id="bg-layer">
    <path class="bg" d="M 624 250 Q 718 243 817 249 Q 833 250 839 241 Q 843 229 830 214 Q 781 169 697 192 Q 670 195 645 201 C 608 206 608 206 590 209 Q 512 219 428 231 C 394 235 394 235 377 237 Q 293 244 208 254 Q 178 257 199 273 Q 247 301 299 291 Q 344 279 387 273 C 417 268 417 268 432 266 Q 456 257 578 253 C 609 251 609 251 624 250 Z"/>
    <path class="bg" d="M 428 231 Q 425 194 423 166 Q 424 145 402 139 Q 357 120 336 129 Q 317 139 334 159 Q 359 187 377 237 C 384 261 384 261 387 273 Q 399 315 414 332 Q 429 342 433 330 Q 439 312 432 266 C 429 243 429 243 428 231 Z"/>
    <path class="bg" d="M 645 201 Q 649 182 677 136 Q 692 121 681 111 Q 669 93 634 76 Q 618 66 601 75 Q 591 81 598 92 Q 610 122 590 209 C 582 238 582 238 578 253 Q 560 314 562 325 Q 563 338 580 328 Q 598 312 624 250 C 638 217 638 217 645 201 Z"/>
    <path class="bg" d="M 354 542 Q 441 449 469 438 Q 487 431 480 416 Q 476 403 413 373 Q 395 366 376 374 Q 330 393 260 417 Q 242 424 198 424 Q 176 424 184 442 Q 191 454 209 463 Q 237 479 268 459 Q 361 407 379 419 Q 392 428 386 441 Q 364 483 340 533 C 337 538 351 546 354 542 Z"/>
    <path class="bg" d="M 385 598 Q 373 556 354 542 C 345 536 345 536 340 533 Q 333 529 324 526 Q 305 519 295 524 Q 283 530 296 543 Q 327 567 339 622 C 343 645 343 645 345 656 Q 357 764 331 825 Q 318 841 295 833 Q 270 824 248 816 Q 238 812 240 822 Q 243 829 256 843 Q 284 877 292 903 Q 299 919 315 919 Q 327 918 353 897 Q 431 827 392 628 C 387 608 387 608 385 598 Z"/>
    <path class="bg" d="M 392 628 Q 431 604 455 581 Q 465 572 464 563 Q 458 559 447 564 Q 416 580 385 598 C 354 614 354 614 339 622 Q 252 665 155 715 Q 134 725 98 731 Q 85 735 86 744 Q 86 757 96 763 Q 120 775 154 787 Q 164 788 174 779 Q 214 737 345 656 C 376 637 376 637 392 628 Z"/>
    <path class="bg" d="M 612 821 Q 581 814 550 805 Q 538 802 539 810 Q 539 816 549 824 Q 613 885 636 922 Q 649 938 665 925 Q 701 889 699 825 Q 695 782 689 499 Q 688 453 698 422 Q 705 404 690 392 Q 665 373 637 363 Q 619 357 612 365 Q 606 371 617 386 Q 639 422 639 462 Q 654 801 631 819 Q 624 825 612 821 Z"/>
    <path class="bg" d="M 518 585 Q 497 640 467 691 Q 451 719 466 749 Q 473 765 491 753 Q 537 717 542 635 Q 546 607 539 584 Q 535 577 529 576 Q 522 577 518 585 Z"/>
    <path class="bg" d="M 762 599 Q 802 645 850 710 Q 863 731 877 736 Q 884 739 893 730 Q 906 718 898 676 Q 895 637 830 602 Q 788 580 766 569 Q 757 563 755 575 Q 754 588 762 599 Z"/>
</g>
<g id="anim-layer">
    <path style="--d:1s; stroke:#FF4444;" pathLength="3333" clip-path="url(#z33642c1)" d="M 198 262 L 261 271 L 738 215 L 836 233"/>
    <path style="--d:2s; stroke:#FF4444;" pathLength="3333" clip-path="url(#z33642c2)" d="M 331 140 L 391 176 L 422 330"/>
    <path style="--d:3s; stroke:#FF4444;" pathLength="3333" clip-path="url(#z33642c3)" d="M 604 81 L 643 128 L 571 327"/>
    <path style="--d:4s; stroke:#000;" pathLength="3333" clip-path="url(#z33642c4)" d="M 189 433 L 246 445 L 405 401 L 434 430 L 347 531"/>
    <path style="--d:5s; stroke:#000;" pathLength="3333" clip-path="url(#z33642c5)" d="M 297 531 L 354 585 L 374 780 L 324 873 L 247 821"/>
    <path style="--d:6s; stroke:#000;" pathLength="3333" clip-path="url(#z33642c6)" d="M 90 741 L 160 750 L 456 565"/>
    <path style="--d:7s; stroke:#000;" pathLength="3333" clip-path="url(#z33642c7)" d="M 616 367 L 666 416 L 667 818 L 634 877 L 543 813"/>
    <path style="--d:8s; stroke:#000;" pathLength="3333" clip-path="url(#z33642c8)" d="M 528 582 L 471 748"/>
    <path style="--d:9s; stroke:#000;" pathLength="3333" clip-path="url(#z33642c9)" d="M 762 576 L 849 654 L 887 732"/>
</g>
</svg>