<svg id="z33743" class="acjk" viewBox="0 0 1024 1024" xmlns="http://www.w3.org/2000/svg">

<style>
<![CDATA[
@keyframes zk { to { stroke-dashoffset:0; } }
svg.acjk path[clip-path] {
    --t:0.8s;
    animation:zk var(--t) linear forwards var(--d);
    stroke-dasharray:3337;
    stroke-dashoffset:3339;
    stroke-width:128;
    stroke-linecap:round;
    fill:none;
}
/* Low opacity for background improves visual overlap at intersections */
svg.acjk .bg { fill:#ccc; opacity: 0.5; } 
]]>
</style>
<defs>
    <clipPath id="z33743c1"><path d="M 635 223 Q 710 214 817 221 Q 833 222 839 213 Q 843 201 830 186 Q 785 144 675 168 Q 665 169 654 172 C 617 179 617 179 598 182 Q 514 194 420 206 C 389 210 389 210 374 212 Q 292 219 204 230 Q 173 233 195 249 Q 237 273 312 262 Q 346 253 382 248 C 409 243 409 243 423 241 Q 468 232 587 225 C 619 224 619 224 635 223 Z"/></clipPath>
    <clipPath id="z33743c2"><path d="M 420 206 Q 419 175 417 150 Q 418 131 399 126 Q 357 108 340 114 Q 324 123 337 141 Q 364 174 374 212 C 379 236 379 236 382 248 Q 394 311 408 325 Q 421 335 425 324 Q 428 312 423 241 C 421 218 421 218 420 206 Z"/></clipPath>
    <clipPath id="z33743c3"><path d="M 654 172 Q 663 145 682 111 Q 695 96 686 86 Q 673 70 638 53 Q 622 43 604 53 Q 594 59 602 70 Q 615 101 598 182 C 591 211 591 211 587 225 Q 565 306 566 321 Q 567 334 583 323 Q 599 308 635 223 C 648 189 648 189 654 172 Z"/></clipPath>
    <clipPath id="z33743c4"><path d="M 236 381 Q 258 402 282 427 Q 294 440 309 440 Q 319 440 325 427 Q 329 414 322 385 Q 318 367 291 353 Q 227 329 212 333 Q 208 337 208 349 Q 211 359 236 381 Z"/></clipPath>
    <clipPath id="z33743c5"><path d="M 162 525 Q 201 567 233 582 Q 246 583 255 571 Q 261 559 258 544 Q 251 522 234 511 Q 210 496 173 489 Q 157 485 149 488 Q 143 489 146 501 Q 147 511 162 525 Z"/></clipPath>
    <clipPath id="z33743c6"><path d="M 149 793 Q 137 796 138 812 Q 145 885 177 906 Q 183 913 193 912 Q 200 911 204 887 Q 210 850 315 630 Q 322 617 322 610 Q 322 600 313 606 Q 300 613 187 761 Q 174 777 149 793 Z"/></clipPath>
    <clipPath id="z33743c7"><path d="M 715 405 Q 763 401 822 400 Q 877 400 884 390 Q 888 378 873 366 Q 822 330 785 339 Q 670 366 367 414 Q 348 417 363 433 Q 376 446 394 451 Q 415 455 430 450 Q 550 416 669 408 C 700 406 700 406 715 405 Z"/></clipPath>
    <clipPath id="z33743c8"><path d="M 437 536 Q 428 532 408 527 Q 398 524 394 529 Q 390 533 396 547 Q 417 596 428 674 Q 429 698 443 714 Q 456 733 462 720 Q 466 707 465 687 C 463 669 463 669 462 660 Q 453 584 452 562 C 452 552 446 540 437 536 Z"/></clipPath>
    <clipPath id="z33743c9"><path d="M 593 644 Q 609 580 628 561 Q 649 537 627 524 Q 569 493 564 493 Q 555 493 547 499 Q 517 517 437 536 C 427 538 442 564 452 562 Q 459 561 469 559 Q 502 552 530 546 Q 549 542 554 550 Q 560 554 555 580 Q 551 605 546 638 C 543 654 590 659 593 644 Z"/></clipPath>
    <clipPath id="z33743c10"><path d="M 465 687 Q 474 688 485 686 Q 522 677 602 670 Q 611 669 612 662 Q 612 656 593 644 C 579 636 561 635 546 638 C 545 638 545 638 545 638 Q 499 651 462 660 C 453 662 456 687 465 687 Z"/></clipPath>
    <clipPath id="z33743c11"><path d="M 634 861 Q 609 854 577 848 Q 564 844 565 852 Q 566 861 577 870 Q 646 921 691 965 Q 704 975 718 958 Q 760 906 755 820 Q 743 603 753 472 Q 760 444 753 433 Q 744 421 715 405 C 702 397 666 393 669 408 Q 670 415 677 427 Q 687 452 688 830 Q 685 851 677 862 Q 665 869 634 861 Z"/></clipPath>
</defs>
<g id="bg-layer">
    <path class="bg" d="M 635 223 Q 710 214 817 221 Q 833 222 839 213 Q 843 201 830 186 Q 785 144 675 168 Q 665 169 654 172 C 617 179 617 179 598 182 Q 514 194 420 206 C 389 210 389 210 374 212 Q 292 219 204 230 Q 173 233 195 249 Q 237 273 312 262 Q 346 253 382 248 C 409 243 409 243 423 241 Q 468 232 587 225 C 619 224 619 224 635 223 Z"/>
    <path class="bg" d="M 420 206 Q 419 175 417 150 Q 418 131 399 126 Q 357 108 340 114 Q 324 123 337 141 Q 364 174 374 212 C 379 236 379 236 382 248 Q 394 311 408 325 Q 421 335 425 324 Q 428 312 423 241 C 421 218 421 218 420 206 Z"/>
    <path class="bg" d="M 654 172 Q 663 145 682 111 Q 695 96 686 86 Q 673 70 638 53 Q 622 43 604 53 Q 594 59 602 70 Q 615 101 598 182 C 591 211 591 211 587 225 Q 565 306 566 321 Q 567 334 583 323 Q 599 308 635 223 C 648 189 648 189 654 172 Z"/>
    <path class="bg" d="M 236 381 Q 258 402 282 427 Q 294 440 309 440 Q 319 440 325 427 Q 329 414 322 385 Q 318 367 291 353 Q 227 329 212 333 Q 208 337 208 349 Q 211 359 236 381 Z"/>
    <path class="bg" d="M 162 525 Q 201 567 233 582 Q 246 583 255 571 Q 261 559 258 544 Q 251 522 234 511 Q 210 496 173 489 Q 157 485 149 488 Q 143 489 146 501 Q 147 511 162 525 Z"/>
    <path class="bg" d="M 149 793 Q 137 796 138 812 Q 145 885 177 906 Q 183 913 193 912 Q 200 911 204 887 Q 210 850 315 630 Q 322 617 322 610 Q 322 600 313 606 Q 300 613 187 761 Q 174 777 149 793 Z"/>
    <path class="bg" d="M 715 405 Q 763 401 822 400 Q 877 400 884 390 Q 888 378 873 366 Q 822 330 785 339 Q 670 366 367 414 Q 348 417 363 433 Q 376 446 394 451 Q 415 455 430 450 Q 550 416 669 408 C 700 406 700 406 715 405 Z"/>
    <path class="bg" d="M 437 536 Q 428 532 408 527 Q 398 524 394 529 Q 390 533 396 547 Q 417 596 428 674 Q 429 698 443 714 Q 456 733 462 720 Q 466 707 465 687 C 463 669 463 669 462 660 Q 453 584 452 562 C 452 552 446 540 437 536 Z"/>
    <path class="bg" d="M 593 644 Q 609 580 628 561 Q 649 537 627 524 Q 569 493 564 493 Q 555 493 547 499 Q 517 517 437 536 C 427 538 442 564 452 562 Q 459 561 469 559 Q 502 552 530 546 Q 549 542 554 550 Q 560 554 555 580 Q 551 605 546 638 C 543 654 590 659 593 644 Z"/>
    <path class="bg" d="M 465 687 Q 474 688 485 686 Q 522 677 602 670 Q 611 669 612 662 Q 612 656 593 644 C 579 636 561 635 546 638 C 545 638 545 638 545 638 Q 499 651 462 660 C 453 662 456 687 465 687 Z"/>
    <path class="bg" d="M 634 861 Q 609 854 577 848 Q 564 844 565 852 Q 566 861 577 870 Q 646 921 691 965 Q 704 975 718 958 Q 760 906 755 820 Q 743 603 753 472 Q 760 444 753 433 Q 744 421 715 405 C 702 397 666 393 669 408 Q 670 415 677 427 Q 687 452 688 830 Q 685 851 677 862 Q 665 869 634 861 Z"/>
</g>
<g id="anim-layer">
    <path style="--d:1s; stroke:#FF4444;" pathLength="3333" clip-path="url(#z33743c1)" d="M 194 238 L 715 189 L 837 201"/>
    <path style="--d:2s; stroke:#FF4444;" pathLength="3333" clip-path="url(#z33743c2)" d="M 339 124 L 386 156 L 416 325"/>
    <path style="--d:3s; stroke:#FF4444;" pathLength="3333" clip-path="url(#z33743c3)" d="M 604 57 L 648 105 L 572 320"/>
    <path style="--d:4s; stroke:#000;" pathLength="3333" clip-path="url(#z33743c4)" d="M 215 341 L 291 391 L 315 434"/>
    <path style="--d:5s; stroke:#000;" pathLength="3333" clip-path="url(#z33743c5)" d="M 153 496 L 247 572"/>
    <path style="--d:6s; stroke:#000;" pathLength="3333" clip-path="url(#z33743c6)" d="M 141 804 L 194 853 L 315 612"/>
    <path style="--d:7s; stroke:#000;" pathLength="3333" clip-path="url(#z33743c7)" d="M 363 423 L 788 369 L 880 385"/>
    <path style="--d:8s; stroke:#000;" pathLength="3333" clip-path="url(#z33743c8)" d="M 400 536 L 429 564 L 455 718"/>
    <path style="--d:9s; stroke:#000;" pathLength="3333" clip-path="url(#z33743c9)" d="M 438 540 L 556 520 L 587 536 L 565 650"/>
    <path style="--d:10s; stroke:#000;" pathLength="3333" clip-path="url(#z33743c10)" d="M 458 672 L 606 658"/>
    <path style="--d:11s; stroke:#000;" pathLength="3333" clip-path="url(#z33743c11)" d="M 677 406 L 719 452 L 716 872 L 685 917 L 571 854"/>
</g>
</svg>