<svg id="z33750" class="acjk" viewBox="0 0 1024 1024" xmlns="http://www.w3.org/2000/svg">

<style>
<![CDATA[
@keyframes zk { to { stroke-dashoffset:0; } }
svg.acjk path[clip-path] {
    --t:0.8s;
    animation:zk var(--t) linear forwards var(--d);
    stroke-dasharray:3337;
    stroke-dashoffset:3339;
    stroke-width:128;
    stroke-linecap:round;
    fill:none;
}
/* Low opacity for background improves visual overlap at intersections */
svg.acjk .bg { fill:#ccc; opacity: 0.5; } 
]]>
</style>
<defs>
    <clipPath id="z33750c1"><path d="M 631 220 C 695 218 758 214 821 221 C 831 222 838 219 842 213 C 846 205 844 194 834 186 C 779 138 732 159 650 170 C 615 175 615 175 597 177 C 542 184 484 193 422 199 C 390 202 390 202 374 203 C 319 207 261 212 200 218 C 179 219 176 227 191 237 C 219 256 253 264 291 257 C 322 250 352 244 382 240 C 411 236 411 236 425 234 C 443 231 533 222 587 221 C 616 220 616 220 631 220 Z"/></clipPath>
    <clipPath id="z33750c2"><path d="M 422 199 C 420 176 418 157 419 140 C 419 127 412 120 400 115 C 374 102 354 96 339 103 C 326 108 325 118 336 131 C 353 151 367 174 374 203 C 379 228 379 228 382 240 C 388 269 395 289 407 300 C 415 307 422 306 425 299 C 432 275 426 256 425 234 C 423 211 423 211 422 199 Z"/></clipPath>
    <clipPath id="z33750c3"><path d="M 650 170 C 656 153 661 130 678 105 C 685 93 686 87 681 81 C 672 70 657 60 635 49 C 624 43 613 43 602 50 C 595 53 596 58 601 66 C 611 85 609 123 597 177 C 590 206 590 206 587 221 C 578 257 572 280 574 293 C 574 301 580 302 591 295 C 597 290 613 266 631 220 C 644 187 644 187 650 170 Z"/></clipPath>
    <clipPath id="z33750c4"><path d="M 358 352 C 351 347 336 344 313 340 C 306 338 301 338 299 342 C 295 346 295 352 301 363 C 321 403 337 456 348 523 C 351 543 357 559 369 573 C 390 598 392 577 396 556 C 397 547 396 538 394 530 C 390 517 382 480 381 470 C 378 454 378 454 377 446 C 372 418 369 397 367 385 C 365 374 368 357 358 352 Z"/></clipPath>
    <clipPath id="z33750c5"><path d="M 595 538 C 605 554 610 565 620 571 C 626 575 635 572 646 559 C 655 546 669 503 692 430 C 698 409 709 392 725 377 C 733 368 735 359 728 351 C 718 339 699 325 672 307 C 662 300 632 305 582 314 C 535 321 375 346 358 352 C 347 354 356 389 367 385 C 401 373 477 360 594 345 C 618 341 647 351 642 378 C 624 460 608 501 603 510 C 599 519 589 530 595 538 Z"/></clipPath>
    <clipPath id="z33750c6"><path d="M 381 470 C 400 474 452 467 558 450 C 572 448 578 442 573 435 C 566 425 555 419 539 416 C 524 412 503 414 478 421 C 441 429 408 438 377 446 C 369 447 373 468 381 470 Z"/></clipPath>
    <clipPath id="z33750c7"><path d="M 396 556 C 405 557 417 553 595 538 C 605 538 611 515 603 510 C 566 488 565 507 394 530 C 385 532 387 556 396 556 Z"/></clipPath>
    <clipPath id="z33750c8"><path d="M 289 628 C 272 617 255 610 238 606 C 233 604 229 605 226 609 C 221 613 222 618 228 626 C 253 665 270 732 276 825 C 278 866 290 895 315 914 C 329 924 337 907 340 888 C 341 876 337 864 335 853 C 328 825 323 786 322 779 C 319 760 319 760 318 750 C 314 721 311 695 311 671 C 311 655 302 638 289 628 Z"/></clipPath>
    <clipPath id="z33750c9"><path d="M 660 872 C 660 888 660 913 673 946 C 685 979 705 960 719 937 C 733 912 752 846 774 740 C 779 710 784 678 807 653 C 818 639 822 628 814 619 C 799 602 775 588 744 572 C 730 565 713 563 690 571 C 631 589 568 604 502 613 C 444 620 373 624 289 628 C 273 628 295 668 311 671 C 320 676 359 665 663 622 C 687 618 707 619 714 634 C 726 660 719 720 698 808 C 694 826 688 843 680 851 C 674 859 660 862 660 872 Z"/></clipPath>
    <clipPath id="z33750c10"><path d="M 322 779 Q 332 779 347 778 Q 492 760 600 751 Q 624 750 616 736 Q 607 720 582 714 Q 563 711 318 750 C 308 752 312 779 322 779 Z"/></clipPath>
    <clipPath id="z33750c11"><path d="M 340 888 C 353 891 375 881 660 872 C 670 872 686 859 680 851 C 635 790 624 829 335 853 C 323 853 328 886 340 888 Z"/></clipPath>
</defs>
<g id="bg-layer">
    <path class="bg" d="M 631 220 C 695 218 758 214 821 221 C 831 222 838 219 842 213 C 846 205 844 194 834 186 C 779 138 732 159 650 170 C 615 175 615 175 597 177 C 542 184 484 193 422 199 C 390 202 390 202 374 203 C 319 207 261 212 200 218 C 179 219 176 227 191 237 C 219 256 253 264 291 257 C 322 250 352 244 382 240 C 411 236 411 236 425 234 C 443 231 533 222 587 221 C 616 220 616 220 631 220 Z"/>
    <path class="bg" d="M 422 199 C 420 176 418 157 419 140 C 419 127 412 120 400 115 C 374 102 354 96 339 103 C 326 108 325 118 336 131 C 353 151 367 174 374 203 C 379 228 379 228 382 240 C 388 269 395 289 407 300 C 415 307 422 306 425 299 C 432 275 426 256 425 234 C 423 211 423 211 422 199 Z"/>
    <path class="bg" d="M 650 170 C 656 153 661 130 678 105 C 685 93 686 87 681 81 C 672 70 657 60 635 49 C 624 43 613 43 602 50 C 595 53 596 58 601 66 C 611 85 609 123 597 177 C 590 206 590 206 587 221 C 578 257 572 280 574 293 C 574 301 580 302 591 295 C 597 290 613 266 631 220 C 644 187 644 187 650 170 Z"/>
    <path class="bg" d="M 358 352 C 351 347 336 344 313 340 C 306 338 301 338 299 342 C 295 346 295 352 301 363 C 321 403 337 456 348 523 C 351 543 357 559 369 573 C 390 598 392 577 396 556 C 397 547 396 538 394 530 C 390 517 382 480 381 470 C 378 454 378 454 377 446 C 372 418 369 397 367 385 C 365 374 368 357 358 352 Z"/>
    <path class="bg" d="M 595 538 C 605 554 610 565 620 571 C 626 575 635 572 646 559 C 655 546 669 503 692 430 C 698 409 709 392 725 377 C 733 368 735 359 728 351 C 718 339 699 325 672 307 C 662 300 632 305 582 314 C 535 321 375 346 358 352 C 347 354 356 389 367 385 C 401 373 477 360 594 345 C 618 341 647 351 642 378 C 624 460 608 501 603 510 C 599 519 589 530 595 538 Z"/>
    <path class="bg" d="M 381 470 C 400 474 452 467 558 450 C 572 448 578 442 573 435 C 566 425 555 419 539 416 C 524 412 503 414 478 421 C 441 429 408 438 377 446 C 369 447 373 468 381 470 Z"/>
    <path class="bg" d="M 396 556 C 405 557 417 553 595 538 C 605 538 611 515 603 510 C 566 488 565 507 394 530 C 385 532 387 556 396 556 Z"/>
    <path class="bg" d="M 289 628 C 272 617 255 610 238 606 C 233 604 229 605 226 609 C 221 613 222 618 228 626 C 253 665 270 732 276 825 C 278 866 290 895 315 914 C 329 924 337 907 340 888 C 341 876 337 864 335 853 C 328 825 323 786 322 779 C 319 760 319 760 318 750 C 314 721 311 695 311 671 C 311 655 302 638 289 628 Z"/>
    <path class="bg" d="M 660 872 C 660 888 660 913 673 946 C 685 979 705 960 719 937 C 733 912 752 846 774 740 C 779 710 784 678 807 653 C 818 639 822 628 814 619 C 799 602 775 588 744 572 C 730 565 713 563 690 571 C 631 589 568 604 502 613 C 444 620 373 624 289 628 C 273 628 295 668 311 671 C 320 676 359 665 663 622 C 687 618 707 619 714 634 C 726 660 719 720 698 808 C 694 826 688 843 680 851 C 674 859 660 862 660 872 Z"/>
    <path class="bg" d="M 322 779 Q 332 779 347 778 Q 492 760 600 751 Q 624 750 616 736 Q 607 720 582 714 Q 563 711 318 750 C 308 752 312 779 322 779 Z"/>
    <path class="bg" d="M 340 888 C 353 891 375 881 660 872 C 670 872 686 859 680 851 C 635 790 624 829 335 853 C 323 853 328 886 340 888 Z"/>
</g>
<g id="anim-layer">
    <path style="--d:1s; stroke:#FF4444;" pathLength="3333" clip-path="url(#z33750c1)" d="M 188 225 L 276 235 L 738 186 L 839 206"/>
    <path style="--d:2s; stroke:#FF4444;" pathLength="3333" clip-path="url(#z33750c2)" d="M 334 116 L 386 144 L 413 300"/>
    <path style="--d:3s; stroke:#FF4444;" pathLength="3333" clip-path="url(#z33750c3)" d="M 604 55 L 645 90 L 580 293"/>
    <path style="--d:4s; stroke:#000;" pathLength="3333" clip-path="url(#z33750c4)" d="M 304 344 L 337 372 L 381 579"/>
    <path style="--d:5s; stroke:#000;" pathLength="3333" clip-path="url(#z33750c5)" d="M 357 367 L 658 334 L 687 369 L 613 563"/>
    <path style="--d:6s; stroke:#000;" pathLength="3333" clip-path="url(#z33750c6)" d="M 379 458 L 570 437"/>
    <path style="--d:7s; stroke:#000;" pathLength="3333" clip-path="url(#z33750c7)" d="M 394 544 L 603 522"/>
    <path style="--d:8s; stroke:#000;" pathLength="3333" clip-path="url(#z33750c8)" d="M 231 614 L 278 661 L 323 911"/>
    <path style="--d:9s; stroke:#000;" pathLength="3333" clip-path="url(#z33750c9)" d="M 292 634 L 351 647 L 694 595 L 750 616 L 768 646 L 688 959"/>
    <path style="--d:10s; stroke:#000;" pathLength="3333" clip-path="url(#z33750c10)" d="M 317 765 L 611 742"/>
    <path style="--d:11s; stroke:#000;" pathLength="3333" clip-path="url(#z33750c11)" d="M 333 863 L 675 852"/>
</g>
</svg>