<svg id="z34174" class="acjk" viewBox="0 0 1024 1024" xmlns="http://www.w3.org/2000/svg">

<style>
<![CDATA[
@keyframes zk { to { stroke-dashoffset:0; } }
svg.acjk path[clip-path] {
    --t:0.8s;
    animation:zk var(--t) linear forwards var(--d);
    stroke-dasharray:3337;
    stroke-dashoffset:3339;
    stroke-width:128;
    stroke-linecap:round;
    fill:none;
}
/* Low opacity for background improves visual overlap at intersections */
svg.acjk .bg { fill:#ccc; opacity: 0.5; } 
]]>
</style>
<defs>
    <clipPath id="z34174c1"><path d="M 627 189 C 699 183 766 181 827 185 C 837 185 844 183 847 178 C 850 171 848 161 839 153 C 808 126 763 123 708 135 C 687 139 666 142 646 146 C 611 152 611 152 594 155 C 537 164 478 170 418 179 C 388 183 388 183 373 185 C 313 192 250 196 186 204 C 167 206 164 211 178 221 C 200 236 236 243 285 234 C 316 227 347 220 381 215 C 407 211 407 211 420 209 C 447 204 561 193 584 192 C 613 190 613 190 627 189 Z"/></clipPath>
    <clipPath id="z34174c2"><path d="M 418 179 C 416 160 416 143 416 129 C 416 116 410 109 399 105 C 372 94 353 89 342 94 C 331 98 329 108 339 120 C 354 138 366 159 373 185 C 378 205 378 205 381 215 C 388 244 393 263 404 273 C 412 280 417 279 420 272 C 423 261 422 242 420 209 C 419 189 419 189 418 179 Z"/></clipPath>
    <clipPath id="z34174c3"><path d="M 646 146 C 654 127 662 112 671 98 C 677 87 679 83 674 76 C 666 66 653 55 633 44 C 622 38 612 37 603 43 C 596 46 596 51 600 59 C 607 74 606 107 594 155 C 587 180 587 180 584 192 C 576 220 569 241 571 255 C 571 263 590 255 595 248 C 599 244 611 224 627 189 C 640 160 640 160 646 146 Z"/></clipPath>
    <clipPath id="z34174c4"><path d="M 571 255 C 488 278 407 289 330 295 C 307 296 303 304 319 315 C 334 325 355 329 383 329 C 409 329 433 325 457 322 C 486 317 486 317 501 315 C 535 309 572 303 611 297 C 643 291 661 286 666 282 C 670 277 672 272 670 267 C 666 258 655 252 638 248 C 623 244 608 243 595 248 C 579 253 579 253 571 255 Z"/></clipPath>
    <clipPath id="z34174c5"><path d="M 244 418 C 236 403 228 394 221 390 C 208 381 200 385 202 402 C 203 422 197 448 176 479 C 154 508 142 527 145 540 C 149 562 155 578 163 589 C 173 605 185 604 198 586 C 208 569 216 548 224 523 C 232 493 239 468 247 448 C 251 439 248 427 244 418 Z"/></clipPath>
    <clipPath id="z34174c6"><path d="M 472 388 C 337 405 262 416 244 418 C 234 420 238 444 247 448 C 263 456 283 458 305 452 C 377 432 433 422 474 417 C 503 413 503 413 517 411 C 639 393 720 377 751 388 C 763 392 765 403 764 408 C 763 410 753 434 737 477 C 733 486 732 491 737 495 C 741 497 749 494 761 486 C 795 461 827 446 856 438 C 880 430 891 423 891 418 C 890 411 865 390 817 357 C 801 346 764 348 708 356 C 631 366 568 375 518 382 C 487 386 487 386 472 388 Z"/></clipPath>
    <clipPath id="z34174c7"><path d="M 457 322 C 467 344 470 366 472 388 C 473 407 473 407 474 417 C 475 443 475 484 466 541 C 462 560 466 580 485 602 C 490 608 497 609 502 602 C 513 582 517 540 518 478 C 518 456 516 433 517 411 C 518 392 518 392 518 382 C 519 334 534 335 501 315 C 489 306 451 308 457 322 Z"/></clipPath>
    <clipPath id="z34174c8"><path d="M 332 496 C 368 521 393 533 410 531 C 416 530 421 524 421 512 C 421 505 416 497 407 488 C 392 473 366 469 329 474 C 324 474 322 477 323 484 C 323 488 326 492 332 496 Z"/></clipPath>
    <clipPath id="z34174c9"><path d="M 326 581 C 359 609 383 622 397 621 C 403 620 409 614 410 604 C 410 597 405 588 398 579 C 391 571 381 567 369 565 C 348 560 333 558 325 559 C 320 559 318 561 319 568 C 319 572 321 577 326 581 Z"/></clipPath>
    <clipPath id="z34174c10"><path d="M 583 460 C 622 488 648 500 661 498 C 668 496 674 491 674 480 C 674 473 668 465 660 456 C 644 439 617 433 581 438 C 576 438 574 442 575 448 C 575 452 578 456 583 460 Z"/></clipPath>
    <clipPath id="z34174c11"><path d="M 578 549 C 611 577 635 590 649 589 C 655 588 661 582 662 572 C 662 565 657 556 650 547 C 643 539 633 535 621 533 C 600 528 585 526 577 527 C 572 527 570 529 571 536 C 571 540 573 545 578 549 Z"/></clipPath>
    <clipPath id="z34174c12"><path d="M 308 661 C 294 652 279 645 264 641 C 259 639 255 641 252 644 C 247 647 247 653 253 661 C 275 694 292 759 298 856 C 300 893 310 923 335 942 C 357 959 357 911 357 906 C 356 895 354 885 353 875 C 345 828 334 757 333 700 C 333 685 320 670 308 661 Z"/></clipPath>
    <clipPath id="z34174c13"><path d="M 630 885 C 630 905 634 925 648 955 C 662 986 680 972 693 944 C 705 916 722 857 736 761 C 740 728 749 701 766 683 C 777 669 780 658 772 650 C 757 634 734 620 704 605 C 691 598 674 598 652 606 C 559 636 444 654 308 661 C 293 661 318 705 333 700 C 337 697 378 692 454 680 C 481 675 481 675 495 673 C 535 666 579 660 627 654 C 647 650 663 651 671 663 C 682 681 681 727 669 800 C 662 834 656 847 647 854 C 639 862 630 873 630 885 Z"/></clipPath>
    <clipPath id="z34174c14"><path d="M 519 781 C 545 777 572 773 598 771 C 612 769 618 762 613 755 C 606 745 595 739 579 736 C 564 732 545 736 521 742 C 485 751 485 751 467 755 C 439 761 412 765 387 772 C 376 774 377 783 390 790 C 397 793 407 796 421 794 C 437 791 452 790 468 788 C 502 783 502 783 519 781 Z"/></clipPath>
    <clipPath id="z34174c15"><path d="M 514 856 C 514 829 517 804 519 781 C 520 755 520 755 521 742 C 523 691 531 695 495 673 C 483 666 447 668 454 680 C 460 688 465 712 467 755 C 468 777 468 777 468 788 C 468 808 469 833 471 863 C 471 878 514 871 514 856 Z"/></clipPath>
    <clipPath id="z34174c16"><path d="M 357 906 C 371 909 390 899 630 885 C 642 885 658 858 647 854 C 618 839 579 845 514 856 C 485 861 485 861 471 863 C 428 869 389 871 353 875 C 343 877 347 904 357 906 Z"/></clipPath>
</defs>
<g id="bg-layer">
    <path class="bg" d="M 627 189 C 699 183 766 181 827 185 C 837 185 844 183 847 178 C 850 171 848 161 839 153 C 808 126 763 123 708 135 C 687 139 666 142 646 146 C 611 152 611 152 594 155 C 537 164 478 170 418 179 C 388 183 388 183 373 185 C 313 192 250 196 186 204 C 167 206 164 211 178 221 C 200 236 236 243 285 234 C 316 227 347 220 381 215 C 407 211 407 211 420 209 C 447 204 561 193 584 192 C 613 190 613 190 627 189 Z"/>
    <path class="bg" d="M 418 179 C 416 160 416 143 416 129 C 416 116 410 109 399 105 C 372 94 353 89 342 94 C 331 98 329 108 339 120 C 354 138 366 159 373 185 C 378 205 378 205 381 215 C 388 244 393 263 404 273 C 412 280 417 279 420 272 C 423 261 422 242 420 209 C 419 189 419 189 418 179 Z"/>
    <path class="bg" d="M 646 146 C 654 127 662 112 671 98 C 677 87 679 83 674 76 C 666 66 653 55 633 44 C 622 38 612 37 603 43 C 596 46 596 51 600 59 C 607 74 606 107 594 155 C 587 180 587 180 584 192 C 576 220 569 241 571 255 C 571 263 590 255 595 248 C 599 244 611 224 627 189 C 640 160 640 160 646 146 Z"/>
    <path class="bg" d="M 571 255 C 488 278 407 289 330 295 C 307 296 303 304 319 315 C 334 325 355 329 383 329 C 409 329 433 325 457 322 C 486 317 486 317 501 315 C 535 309 572 303 611 297 C 643 291 661 286 666 282 C 670 277 672 272 670 267 C 666 258 655 252 638 248 C 623 244 608 243 595 248 C 579 253 579 253 571 255 Z"/>
    <path class="bg" d="M 244 418 C 236 403 228 394 221 390 C 208 381 200 385 202 402 C 203 422 197 448 176 479 C 154 508 142 527 145 540 C 149 562 155 578 163 589 C 173 605 185 604 198 586 C 208 569 216 548 224 523 C 232 493 239 468 247 448 C 251 439 248 427 244 418 Z"/>
    <path class="bg" d="M 472 388 C 337 405 262 416 244 418 C 234 420 238 444 247 448 C 263 456 283 458 305 452 C 377 432 433 422 474 417 C 503 413 503 413 517 411 C 639 393 720 377 751 388 C 763 392 765 403 764 408 C 763 410 753 434 737 477 C 733 486 732 491 737 495 C 741 497 749 494 761 486 C 795 461 827 446 856 438 C 880 430 891 423 891 418 C 890 411 865 390 817 357 C 801 346 764 348 708 356 C 631 366 568 375 518 382 C 487 386 487 386 472 388 Z"/>
    <path class="bg" d="M 457 322 C 467 344 470 366 472 388 C 473 407 473 407 474 417 C 475 443 475 484 466 541 C 462 560 466 580 485 602 C 490 608 497 609 502 602 C 513 582 517 540 518 478 C 518 456 516 433 517 411 C 518 392 518 392 518 382 C 519 334 534 335 501 315 C 489 306 451 308 457 322 Z"/>
    <path class="bg" d="M 332 496 C 368 521 393 533 410 531 C 416 530 421 524 421 512 C 421 505 416 497 407 488 C 392 473 366 469 329 474 C 324 474 322 477 323 484 C 323 488 326 492 332 496 Z"/>
    <path class="bg" d="M 326 581 C 359 609 383 622 397 621 C 403 620 409 614 410 604 C 410 597 405 588 398 579 C 391 571 381 567 369 565 C 348 560 333 558 325 559 C 320 559 318 561 319 568 C 319 572 321 577 326 581 Z"/>
    <path class="bg" d="M 583 460 C 622 488 648 500 661 498 C 668 496 674 491 674 480 C 674 473 668 465 660 456 C 644 439 617 433 581 438 C 576 438 574 442 575 448 C 575 452 578 456 583 460 Z"/>
    <path class="bg" d="M 578 549 C 611 577 635 590 649 589 C 655 588 661 582 662 572 C 662 565 657 556 650 547 C 643 539 633 535 621 533 C 600 528 585 526 577 527 C 572 527 570 529 571 536 C 571 540 573 545 578 549 Z"/>
    <path class="bg" d="M 308 661 C 294 652 279 645 264 641 C 259 639 255 641 252 644 C 247 647 247 653 253 661 C 275 694 292 759 298 856 C 300 893 310 923 335 942 C 357 959 357 911 357 906 C 356 895 354 885 353 875 C 345 828 334 757 333 700 C 333 685 320 670 308 661 Z"/>
    <path class="bg" d="M 630 885 C 630 905 634 925 648 955 C 662 986 680 972 693 944 C 705 916 722 857 736 761 C 740 728 749 701 766 683 C 777 669 780 658 772 650 C 757 634 734 620 704 605 C 691 598 674 598 652 606 C 559 636 444 654 308 661 C 293 661 318 705 333 700 C 337 697 378 692 454 680 C 481 675 481 675 495 673 C 535 666 579 660 627 654 C 647 650 663 651 671 663 C 682 681 681 727 669 800 C 662 834 656 847 647 854 C 639 862 630 873 630 885 Z"/>
    <path class="bg" d="M 519 781 C 545 777 572 773 598 771 C 612 769 618 762 613 755 C 606 745 595 739 579 736 C 564 732 545 736 521 742 C 485 751 485 751 467 755 C 439 761 412 765 387 772 C 376 774 377 783 390 790 C 397 793 407 796 421 794 C 437 791 452 790 468 788 C 502 783 502 783 519 781 Z"/>
    <path class="bg" d="M 514 856 C 514 829 517 804 519 781 C 520 755 520 755 521 742 C 523 691 531 695 495 673 C 483 666 447 668 454 680 C 460 688 465 712 467 755 C 468 777 468 777 468 788 C 468 808 469 833 471 863 C 471 878 514 871 514 856 Z"/>
    <path class="bg" d="M 357 906 C 371 909 390 899 630 885 C 642 885 658 858 647 854 C 618 839 579 845 514 856 C 485 861 485 861 471 863 C 428 869 389 871 353 875 C 343 877 347 904 357 906 Z"/>
</g>
<g id="anim-layer">
    <path style="--d:1s; stroke:#FF4444;" pathLength="3333" clip-path="url(#z34174c1)" d="M 179 213 L 737 156 L 842 171"/>
    <path style="--d:2s; stroke:#FF4444;" pathLength="3333" clip-path="url(#z34174c2)" d="M 340 100 L 385 132 L 409 270"/>
    <path style="--d:3s; stroke:#FF4444;" pathLength="3333" clip-path="url(#z34174c3)" d="M 604 47 L 640 84 L 578 249"/>
    <path style="--d:4s; stroke:#000;" pathLength="3333" clip-path="url(#z34174c4)" d="M 314 302 L 420 306 L 666 265"/>
    <path style="--d:5s; stroke:#000;" pathLength="3333" clip-path="url(#z34174c5)" d="M 210 392 L 223 438 L 175 596"/>
    <path style="--d:6s; stroke:#000;" pathLength="3333" clip-path="url(#z34174c6)" d="M 242 428 L 768 370 L 837 423 L 744 491"/>
    <path style="--d:7s; stroke:#000;" pathLength="3333" clip-path="url(#z34174c7)" d="M 464 318 L 495 351 L 489 600"/>
    <path style="--d:8s; stroke:#000;" pathLength="3333" clip-path="url(#z34174c8)" d="M 331 482 L 418 512"/>
    <path style="--d:9s; stroke:#000;" pathLength="3333" clip-path="url(#z34174c9)" d="M 326 567 L 404 612"/>
    <path style="--d:10s; stroke:#000;" pathLength="3333" clip-path="url(#z34174c10)" d="M 580 444 L 669 478"/>
    <path style="--d:11s; stroke:#000;" pathLength="3333" clip-path="url(#z34174c11)" d="M 578 535 L 656 580"/>
    <path style="--d:12s; stroke:#000;" pathLength="3333" clip-path="url(#z34174c12)" d="M 253 648 L 301 695 L 337 940"/>
    <path style="--d:13s; stroke:#000;" pathLength="3333" clip-path="url(#z34174c13)" d="M 308 667 L 339 679 L 652 628 L 700 641 L 726 675 L 668 968"/>
    <path style="--d:14s; stroke:#000;" pathLength="3333" clip-path="url(#z34174c14)" d="M 386 777 L 610 759"/>
    <path style="--d:15s; stroke:#000;" pathLength="3333" clip-path="url(#z34174c15)" d="M 461 675 L 493 709 L 489 868"/>
    <path style="--d:16s; stroke:#000;" pathLength="3333" clip-path="url(#z34174c16)" d="M 352 887 L 646 868"/>
</g>
</svg>