<svg id="z34249" class="acjk" viewBox="0 0 1024 1024" xmlns="http://www.w3.org/2000/svg">

<style>
<![CDATA[
@keyframes zk { to { stroke-dashoffset:0; } }
svg.acjk path[clip-path] {
    --t:0.8s;
    animation:zk var(--t) linear forwards var(--d);
    stroke-dasharray:3337;
    stroke-dashoffset:3339;
    stroke-width:128;
    stroke-linecap:round;
    fill:none;
}
/* Low opacity for background improves visual overlap at intersections */
svg.acjk .bg { fill:#ccc; opacity: 0.5; } 
]]>
</style>
<defs>
    <clipPath id="z34249c1"><path d="M 632 186 C 727 179 793 185 823 185 C 842 185 860 175 836 157 C 799 127 766 122 734 131 C 707 137 678 142 647 147 C 612 152 612 152 595 155 C 540 163 485 169 431 175 C 400 178 400 178 384 180 C 326 186 266 193 204 200 C 191 201 187 206 198 217 C 216 237 241 242 263 237 C 303 227 347 217 393 211 C 420 207 420 207 434 205 C 465 200 563 190 590 189 C 618 187 618 187 632 186 Z"/></clipPath>
    <clipPath id="z34249c2"><path d="M 431 175 C 429 155 427 139 427 125 C 427 112 420 105 408 101 C 381 90 361 85 349 92 C 336 97 336 106 347 119 C 363 136 377 156 384 180 C 390 201 390 201 393 211 C 401 241 410 261 419 269 C 426 275 433 275 436 267 C 438 257 437 235 434 205 C 432 185 432 185 431 175 Z"/></clipPath>
    <clipPath id="z34249c3"><path d="M 647 147 C 651 134 657 119 668 106 C 675 96 676 89 671 83 C 663 73 649 64 629 53 C 609 42 591 49 597 68 C 603 88 601 111 595 155 C 592 178 592 178 590 189 C 584 227 573 251 575 262 C 575 269 580 271 590 264 C 598 257 615 229 632 186 C 642 160 642 160 647 147 Z"/></clipPath>
    <clipPath id="z34249c4"><path d="M 357 409 C 379 400 427 394 444 384 C 461 372 435 357 415 354 C 399 351 381 356 361 362 C 329 371 329 371 313 376 C 271 388 232 394 199 400 C 178 403 174 411 190 420 C 228 440 273 428 314 419 C 343 412 343 412 357 409 Z"/></clipPath>
    <clipPath id="z34249c5"><path d="M 353 501 C 376 495 418 487 432 477 C 445 466 421 452 407 451 C 390 449 374 456 354 462 C 328 469 328 469 315 473 C 244 493 205 499 201 500 C 182 502 179 509 194 517 C 231 535 276 519 315 510 C 340 504 340 504 353 501 Z"/></clipPath>
    <clipPath id="z34249c6"><path d="M 352 600 C 374 594 397 587 423 583 C 448 578 439 560 422 554 C 402 546 379 549 352 558 C 327 565 327 565 315 569 C 212 599 141 612 110 617 C 92 619 90 633 108 645 C 131 660 156 663 181 654 C 223 637 259 623 290 616 C 331 605 331 605 352 600 Z"/></clipPath>
    <clipPath id="z34249c7"><path d="M 351 662 C 351 642 352 621 352 600 C 352 572 352 572 352 558 C 352 539 352 520 353 501 C 354 475 354 475 354 462 C 354 444 355 426 357 409 C 360 378 360 378 361 362 C 362 347 365 335 370 324 C 373 314 378 306 375 299 C 372 293 353 282 322 262 C 308 253 271 249 286 279 C 300 307 312 336 313 376 C 314 405 314 405 314 419 C 314 436 315 453 315 473 C 315 498 315 498 315 510 C 315 528 315 547 315 569 C 313 640 313 640 312 675 C 310 742 305 800 292 848 C 286 868 289 896 304 933 C 318 970 334 946 343 928 C 349 914 351 898 351 881 C 350 862 351 798 351 688 C 351 671 351 671 351 662 Z"/></clipPath>
    <clipPath id="z34249c8"><path d="M 290 616 C 252 696 181 773 86 858 C 67 874 86 877 103 870 C 193 830 256 753 312 675 C 348 627 312 560 290 616 Z"/></clipPath>
    <clipPath id="z34249c9"><path d="M 351 688 C 353 688 375 706 419 742 C 433 752 462 757 446 709 C 435 678 372 664 351 662 C 342 661 344 683 351 688 Z"/></clipPath>
    <clipPath id="z34249c10"><path d="M 726 378 C 740 374 792 365 803 356 C 818 341 793 329 775 325 C 760 321 746 322 734 327 C 698 339 698 339 680 345 C 658 352 626 361 583 368 C 553 373 553 373 538 375 C 523 377 508 377 492 380 C 471 382 467 390 483 400 C 498 409 513 414 542 414 C 555 413 568 411 581 408 C 605 402 644 395 678 388 C 710 381 710 381 726 378 Z"/></clipPath>
    <clipPath id="z34249c11"><path d="M 583 368 C 583 349 594 326 578 312 C 565 300 551 293 537 288 C 528 285 506 282 516 306 C 522 322 534 344 538 375 C 541 401 541 401 542 414 C 544 436 544 467 548 506 C 550 517 582 512 582 501 C 581 464 579 432 581 408 C 582 381 582 381 583 368 Z"/></clipPath>
    <clipPath id="z34249c12"><path d="M 710 477 C 714 442 720 410 726 378 C 731 344 731 344 734 327 C 737 306 743 289 749 276 C 751 270 748 261 737 253 C 719 239 701 233 688 230 C 672 225 656 233 667 252 C 684 282 681 311 680 345 C 679 374 679 374 678 388 C 676 418 675 451 672 485 C 672 498 707 490 710 477 Z"/></clipPath>
    <clipPath id="z34249c13"><path d="M 548 506 C 515 510 481 514 447 520 C 434 521 431 527 442 537 C 467 562 495 556 504 554 C 596 529 718 517 869 516 C 897 515 897 498 881 485 C 849 459 821 453 710 477 C 685 482 685 482 672 485 C 654 488 603 497 582 501 C 559 504 559 504 548 506 Z"/></clipPath>
    <clipPath id="z34249c14"><path d="M 551 617 C 541 596 480 572 495 611 C 515 667 520 734 504 817 C 498 846 492 866 496 878 C 501 896 508 909 515 917 C 521 924 526 924 532 917 C 537 908 544 895 547 877 C 550 856 550 856 551 845 C 552 835 551 805 553 757 C 554 739 554 739 554 730 C 555 690 554 662 556 646 C 558 636 557 625 551 617 Z"/></clipPath>
    <clipPath id="z34249c15"><path d="M 722 867 C 732 899 755 978 785 913 C 795 890 800 865 798 837 C 794 799 789 744 785 674 C 784 655 788 639 798 627 C 802 619 802 612 798 607 C 787 595 766 582 734 569 C 723 564 713 564 705 569 C 682 581 652 592 615 602 C 588 608 567 613 551 617 C 541 619 546 648 556 646 C 562 645 609 635 696 615 C 708 612 717 613 723 617 C 738 635 742 698 735 804 C 733 819 732 834 729 844 C 728 844 728 844 728 844 C 724 851 720 859 722 867 Z"/></clipPath>
    <clipPath id="z34249c16"><path d="M 553 757 C 562 757 615 748 687 739 C 719 734 698 710 667 705 C 649 701 611 711 554 730 C 545 733 544 757 553 757 Z"/></clipPath>
    <clipPath id="z34249c17"><path d="M 547 877 C 558 877 669 864 722 867 C 730 867 734 850 728 844 C 695 804 682 823 551 845 C 540 847 536 877 547 877 Z"/></clipPath>
</defs>
<g id="bg-layer">
    <path class="bg" d="M 632 186 C 727 179 793 185 823 185 C 842 185 860 175 836 157 C 799 127 766 122 734 131 C 707 137 678 142 647 147 C 612 152 612 152 595 155 C 540 163 485 169 431 175 C 400 178 400 178 384 180 C 326 186 266 193 204 200 C 191 201 187 206 198 217 C 216 237 241 242 263 237 C 303 227 347 217 393 211 C 420 207 420 207 434 205 C 465 200 563 190 590 189 C 618 187 618 187 632 186 Z"/>
    <path class="bg" d="M 431 175 C 429 155 427 139 427 125 C 427 112 420 105 408 101 C 381 90 361 85 349 92 C 336 97 336 106 347 119 C 363 136 377 156 384 180 C 390 201 390 201 393 211 C 401 241 410 261 419 269 C 426 275 433 275 436 267 C 438 257 437 235 434 205 C 432 185 432 185 431 175 Z"/>
    <path class="bg" d="M 647 147 C 651 134 657 119 668 106 C 675 96 676 89 671 83 C 663 73 649 64 629 53 C 609 42 591 49 597 68 C 603 88 601 111 595 155 C 592 178 592 178 590 189 C 584 227 573 251 575 262 C 575 269 580 271 590 264 C 598 257 615 229 632 186 C 642 160 642 160 647 147 Z"/>
    <path class="bg" d="M 357 409 C 379 400 427 394 444 384 C 461 372 435 357 415 354 C 399 351 381 356 361 362 C 329 371 329 371 313 376 C 271 388 232 394 199 400 C 178 403 174 411 190 420 C 228 440 273 428 314 419 C 343 412 343 412 357 409 Z"/>
    <path class="bg" d="M 353 501 C 376 495 418 487 432 477 C 445 466 421 452 407 451 C 390 449 374 456 354 462 C 328 469 328 469 315 473 C 244 493 205 499 201 500 C 182 502 179 509 194 517 C 231 535 276 519 315 510 C 340 504 340 504 353 501 Z"/>
    <path class="bg" d="M 352 600 C 374 594 397 587 423 583 C 448 578 439 560 422 554 C 402 546 379 549 352 558 C 327 565 327 565 315 569 C 212 599 141 612 110 617 C 92 619 90 633 108 645 C 131 660 156 663 181 654 C 223 637 259 623 290 616 C 331 605 331 605 352 600 Z"/>
    <path class="bg" d="M 351 662 C 351 642 352 621 352 600 C 352 572 352 572 352 558 C 352 539 352 520 353 501 C 354 475 354 475 354 462 C 354 444 355 426 357 409 C 360 378 360 378 361 362 C 362 347 365 335 370 324 C 373 314 378 306 375 299 C 372 293 353 282 322 262 C 308 253 271 249 286 279 C 300 307 312 336 313 376 C 314 405 314 405 314 419 C 314 436 315 453 315 473 C 315 498 315 498 315 510 C 315 528 315 547 315 569 C 313 640 313 640 312 675 C 310 742 305 800 292 848 C 286 868 289 896 304 933 C 318 970 334 946 343 928 C 349 914 351 898 351 881 C 350 862 351 798 351 688 C 351 671 351 671 351 662 Z"/>
    <path class="bg" d="M 290 616 C 252 696 181 773 86 858 C 67 874 86 877 103 870 C 193 830 256 753 312 675 C 348 627 312 560 290 616 Z"/>
    <path class="bg" d="M 351 688 C 353 688 375 706 419 742 C 433 752 462 757 446 709 C 435 678 372 664 351 662 C 342 661 344 683 351 688 Z"/>
    <path class="bg" d="M 726 378 C 740 374 792 365 803 356 C 818 341 793 329 775 325 C 760 321 746 322 734 327 C 698 339 698 339 680 345 C 658 352 626 361 583 368 C 553 373 553 373 538 375 C 523 377 508 377 492 380 C 471 382 467 390 483 400 C 498 409 513 414 542 414 C 555 413 568 411 581 408 C 605 402 644 395 678 388 C 710 381 710 381 726 378 Z"/>
    <path class="bg" d="M 583 368 C 583 349 594 326 578 312 C 565 300 551 293 537 288 C 528 285 506 282 516 306 C 522 322 534 344 538 375 C 541 401 541 401 542 414 C 544 436 544 467 548 506 C 550 517 582 512 582 501 C 581 464 579 432 581 408 C 582 381 582 381 583 368 Z"/>
    <path class="bg" d="M 710 477 C 714 442 720 410 726 378 C 731 344 731 344 734 327 C 737 306 743 289 749 276 C 751 270 748 261 737 253 C 719 239 701 233 688 230 C 672 225 656 233 667 252 C 684 282 681 311 680 345 C 679 374 679 374 678 388 C 676 418 675 451 672 485 C 672 498 707 490 710 477 Z"/>
    <path class="bg" d="M 548 506 C 515 510 481 514 447 520 C 434 521 431 527 442 537 C 467 562 495 556 504 554 C 596 529 718 517 869 516 C 897 515 897 498 881 485 C 849 459 821 453 710 477 C 685 482 685 482 672 485 C 654 488 603 497 582 501 C 559 504 559 504 548 506 Z"/>
    <path class="bg" d="M 551 617 C 541 596 480 572 495 611 C 515 667 520 734 504 817 C 498 846 492 866 496 878 C 501 896 508 909 515 917 C 521 924 526 924 532 917 C 537 908 544 895 547 877 C 550 856 550 856 551 845 C 552 835 551 805 553 757 C 554 739 554 739 554 730 C 555 690 554 662 556 646 C 558 636 557 625 551 617 Z"/>
    <path class="bg" d="M 722 867 C 732 899 755 978 785 913 C 795 890 800 865 798 837 C 794 799 789 744 785 674 C 784 655 788 639 798 627 C 802 619 802 612 798 607 C 787 595 766 582 734 569 C 723 564 713 564 705 569 C 682 581 652 592 615 602 C 588 608 567 613 551 617 C 541 619 546 648 556 646 C 562 645 609 635 696 615 C 708 612 717 613 723 617 C 738 635 742 698 735 804 C 733 819 732 834 729 844 C 728 844 728 844 728 844 C 724 851 720 859 722 867 Z"/>
    <path class="bg" d="M 553 757 C 562 757 615 748 687 739 C 719 734 698 710 667 705 C 649 701 611 711 554 730 C 545 733 544 757 553 757 Z"/>
    <path class="bg" d="M 547 877 C 558 877 669 864 722 867 C 730 867 734 850 728 844 C 695 804 682 823 551 845 C 540 847 536 877 547 877 Z"/>
</g>
<g id="anim-layer">
    <path style="--d:1s; stroke:#FF4444;" pathLength="3333" clip-path="url(#z34249c1)" d="M 198 208 L 753 155 L 843 170"/>
    <path style="--d:2s; stroke:#FF4444;" pathLength="3333" clip-path="url(#z34249c2)" d="M 344 101 L 398 133 L 424 269"/>
    <path style="--d:3s; stroke:#FF4444;" pathLength="3333" clip-path="url(#z34249c3)" d="M 604 57 L 636 103 L 581 262"/>
    <path style="--d:4s; stroke:#000;" pathLength="3333" clip-path="url(#z34249c4)" d="M 187 407 L 442 374"/>
    <path style="--d:5s; stroke:#000;" pathLength="3333" clip-path="url(#z34249c5)" d="M 194 508 L 429 466"/>
    <path style="--d:6s; stroke:#000;" pathLength="3333" clip-path="url(#z34249c6)" d="M 101 625 L 154 634 L 432 567"/>
    <path style="--d:7s; stroke:#000;" pathLength="3333" clip-path="url(#z34249c7)" d="M 289 261 L 340 313 L 315 946"/>
    <path style="--d:8s; stroke:#000;" pathLength="3333" clip-path="url(#z34249c8)" d="M 308 602 L 298 653 L 240 733 L 82 866"/>
    <path style="--d:9s; stroke:#000;" pathLength="3333" clip-path="url(#z34249c9)" d="M 350 672 L 441 743"/>
    <path style="--d:10s; stroke:#000;" pathLength="3333" clip-path="url(#z34249c10)" d="M 478 388 L 545 394 L 802 342"/>
    <path style="--d:11s; stroke:#000;" pathLength="3333" clip-path="url(#z34249c11)" d="M 521 294 L 558 334 L 564 509"/>
    <path style="--d:12s; stroke:#000;" pathLength="3333" clip-path="url(#z34249c12)" d="M 670 236 L 714 280 L 684 488"/>
    <path style="--d:13s; stroke:#000;" pathLength="3333" clip-path="url(#z34249c13)" d="M 445 530 L 887 495"/>
    <path style="--d:14s; stroke:#000;" pathLength="3333" clip-path="url(#z34249c14)" d="M 500 599 L 528 629 L 533 677 L 513 913"/>
    <path style="--d:15s; stroke:#000;" pathLength="3333" clip-path="url(#z34249c15)" d="M 547 629 L 713 589 L 763 619 L 764 931"/>
    <path style="--d:16s; stroke:#000;" pathLength="3333" clip-path="url(#z34249c16)" d="M 555 748 L 698 727"/>
    <path style="--d:17s; stroke:#000;" pathLength="3333" clip-path="url(#z34249c17)" d="M 544 867 L 726 848"/>
</g>
</svg>