<svg id="z34309" class="acjk" viewBox="0 0 1024 1024" xmlns="http://www.w3.org/2000/svg">

<style>
<![CDATA[
@keyframes zk { to { stroke-dashoffset:0; } }
svg.acjk path[clip-path] {
    --t:0.8s;
    animation:zk var(--t) linear forwards var(--d);
    stroke-dasharray:3337;
    stroke-dashoffset:3339;
    stroke-width:128;
    stroke-linecap:round;
    fill:none;
}
/* Low opacity for background improves visual overlap at intersections */
svg.acjk .bg { fill:#ccc; opacity: 0.5; } 
]]>
</style>
<defs>
    <clipPath id="z34309c1"><path d="M 623 177 Q 684 168 797 179 Q 813 180 818 171 Q 822 161 811 146 Q 762 101 655 127 Q 649 127 645 129 C 606 134 606 134 587 137 Q 503 146 411 157 C 378 160 378 160 361 162 Q 285 168 203 175 Q 175 178 194 193 Q 233 220 306 209 Q 337 202 371 197 C 400 192 400 192 415 190 Q 452 181 577 178 C 608 177 608 177 623 177 Z"/></clipPath>
    <clipPath id="z34309c2"><path d="M 411 157 Q 410 132 408 111 Q 409 92 389 86 Q 349 68 327 76 Q 309 85 325 104 Q 349 129 361 162 C 368 185 368 185 371 197 Q 386 248 399 261 Q 412 271 417 259 Q 420 246 415 190 C 412 168 412 168 411 157 Z"/></clipPath>
    <clipPath id="z34309c3"><path d="M 645 129 Q 652 116 662 100 Q 675 87 667 77 Q 657 61 624 44 Q 609 34 593 42 Q 583 48 590 58 Q 597 77 587 137 C 580 164 580 164 577 178 Q 558 239 559 253 Q 560 266 575 256 Q 587 246 623 177 C 638 145 638 145 645 129 Z"/></clipPath>
    <clipPath id="z34309c4"><path d="M 245 271 Q 254 293 208 364 Q 186 395 156 431 Q 147 438 144 444 Q 141 453 152 452 Q 194 446 286 346 Q 299 330 309 323 Q 318 316 315 303 Q 314 293 292 271 Q 271 255 256 253 Q 240 253 245 271 Z"/></clipPath>
    <clipPath id="z34309c5"><path d="M 233 569 Q 305 479 317 471 Q 326 464 323 451 Q 322 441 300 419 Q 279 403 264 401 Q 248 401 253 419 Q 262 444 251 463 Q 217 527 168 586 Q 122 643 60 703 Q 51 710 48 716 Q 45 725 56 724 Q 86 720 208 598 C 225 579 225 579 233 569 Z"/></clipPath>
    <clipPath id="z34309c6"><path d="M 208 598 Q 235 652 203 788 Q 187 818 215 868 Q 218 877 224 882 Q 240 895 250 872 Q 263 838 262 797 Q 263 667 269 639 Q 276 615 267 606 Q 251 588 240 576 Q 236 572 233 569 C 224 560 203 586 208 598 Z"/></clipPath>
    <clipPath id="z34309c7"><path d="M 465 317 Q 498 271 498 269 Q 497 268 497 267 Q 496 258 478 244 Q 462 232 450 232 Q 438 233 443 246 Q 455 280 369 393 Q 362 399 361 403 Q 358 410 367 408 Q 388 404 450 335 C 460 323 460 323 465 317 Z"/></clipPath>
    <clipPath id="z34309c8"><path d="M 503 429 Q 597 344 609 337 Q 624 328 614 317 Q 604 307 573 288 Q 570 288 465 317 C 457 319 443 332 450 335 Q 465 344 522 331 Q 528 330 530 331 Q 531 332 529 340 Q 505 392 490 418 Q 484 428 483 433 C 480 439 498 433 503 429 Z"/></clipPath>
    <clipPath id="z34309c9"><path d="M 386 453 Q 379 449 357 444 Q 347 440 344 445 Q 340 449 345 462 Q 367 514 377 596 Q 378 621 392 638 Q 405 656 409 644 Q 410 638 412 630 C 413 615 413 615 413 608 Q 413 599 412 590 Q 400 506 399 479 C 399 469 395 457 386 453 Z"/></clipPath>
    <clipPath id="z34309c10"><path d="M 554 615 Q 569 634 581 641 Q 590 647 601 630 Q 611 611 632 510 Q 639 485 656 466 Q 666 456 657 445 Q 645 432 611 413 Q 598 407 538 421 Q 520 424 503 429 C 490 432 490 432 483 433 Q 465 434 451 439 Q 417 446 386 453 C 376 455 390 483 399 479 Q 414 473 460 465 C 483 460 483 460 494 458 Q 570 440 583 451 Q 593 461 591 474 Q 576 585 561 595 C 556 600 550 609 554 615 Z"/></clipPath>
    <clipPath id="z34309c11"><path d="M 505 542 Q 527 536 550 533 Q 569 529 561 518 Q 551 508 530 505 Q 520 504 507 507 C 478 516 478 516 464 521 Q 443 530 425 537 Q 412 541 429 552 Q 433 555 465 551 C 492 545 492 545 505 542 Z"/></clipPath>
    <clipPath id="z34309c12"><path d="M 502 587 Q 503 562 505 542 C 506 519 506 519 507 507 Q 507 504 508 503 Q 514 478 508 471 Q 501 464 494 458 C 486 450 460 453 460 465 Q 460 472 464 521 C 465 541 465 541 465 551 Q 465 569 467 595 C 467 607 502 599 502 587 Z"/></clipPath>
    <clipPath id="z34309c13"><path d="M 488 622 Q 522 616 554 615 C 561 615 567 599 561 595 Q 554 588 541 586 Q 525 582 502 587 C 479 592 479 592 467 595 Q 439 601 413 608 C 406 609 405 630 412 630 Q 418 630 445 627 C 474 624 474 624 488 622 Z"/></clipPath>
    <clipPath id="z34309c14"><path d="M 492 720 Q 540 714 645 713 Q 660 712 663 706 Q 667 696 654 687 Q 608 656 562 672 Q 535 676 503 685 C 466 692 466 692 448 695 Q 378 705 297 719 Q 281 720 293 734 Q 303 744 317 747 Q 333 751 345 747 Q 388 734 441 727 C 475 722 475 722 492 720 Z"/></clipPath>
    <clipPath id="z34309c15"><path d="M 441 727 Q 419 827 336 870 Q 323 879 309 888 Q 297 895 307 897 Q 350 901 404 860 Q 465 818 489 732 Q 490 725 492 720 C 499 697 499 697 503 685 Q 507 672 514 661 Q 523 648 511 639 Q 498 627 488 622 C 476 615 438 615 445 627 Q 457 646 448 695 C 443 716 443 716 441 727 Z"/></clipPath>
    <clipPath id="z34309c16"><path d="M 522 802 Q 550 830 578 864 Q 588 877 602 877 Q 612 878 617 867 Q 623 855 618 828 Q 614 798 523 760 Q 510 756 504 757 Q 500 760 499 771 Q 502 781 522 802 Z"/></clipPath>
    <clipPath id="z34309c17"><path d="M 687 353 Q 650 362 678 377 Q 724 398 778 380 Q 817 371 856 361 Q 875 357 877 353 Q 886 344 880 336 Q 873 324 842 319 Q 818 316 742 343 Q 715 349 687 353 Z"/></clipPath>
    <clipPath id="z34309c18"><path d="M 789 504 Q 814 495 924 493 Q 960 493 964 484 Q 968 474 954 464 Q 908 431 847 452 Q 760 470 665 489 Q 649 492 662 505 Q 686 524 727 516 Q 733 513 745 513 C 774 507 774 507 789 504 Z"/></clipPath>
    <clipPath id="z34309c19"><path d="M 712 865 Q 694 862 672 860 Q 660 857 661 864 Q 662 871 672 880 Q 730 923 767 957 Q 779 966 791 950 Q 828 896 822 825 Q 812 675 818 562 Q 824 537 818 527 Q 811 517 789 504 C 776 496 742 498 745 513 Q 757 553 762 678 Q 762 846 756 862 Q 753 863 753 866 Q 741 873 712 865 Z"/></clipPath>
</defs>
<g id="bg-layer">
    <path class="bg" d="M 623 177 Q 684 168 797 179 Q 813 180 818 171 Q 822 161 811 146 Q 762 101 655 127 Q 649 127 645 129 C 606 134 606 134 587 137 Q 503 146 411 157 C 378 160 378 160 361 162 Q 285 168 203 175 Q 175 178 194 193 Q 233 220 306 209 Q 337 202 371 197 C 400 192 400 192 415 190 Q 452 181 577 178 C 608 177 608 177 623 177 Z"/>
    <path class="bg" d="M 411 157 Q 410 132 408 111 Q 409 92 389 86 Q 349 68 327 76 Q 309 85 325 104 Q 349 129 361 162 C 368 185 368 185 371 197 Q 386 248 399 261 Q 412 271 417 259 Q 420 246 415 190 C 412 168 412 168 411 157 Z"/>
    <path class="bg" d="M 645 129 Q 652 116 662 100 Q 675 87 667 77 Q 657 61 624 44 Q 609 34 593 42 Q 583 48 590 58 Q 597 77 587 137 C 580 164 580 164 577 178 Q 558 239 559 253 Q 560 266 575 256 Q 587 246 623 177 C 638 145 638 145 645 129 Z"/>
    <path class="bg" d="M 245 271 Q 254 293 208 364 Q 186 395 156 431 Q 147 438 144 444 Q 141 453 152 452 Q 194 446 286 346 Q 299 330 309 323 Q 318 316 315 303 Q 314 293 292 271 Q 271 255 256 253 Q 240 253 245 271 Z"/>
    <path class="bg" d="M 233 569 Q 305 479 317 471 Q 326 464 323 451 Q 322 441 300 419 Q 279 403 264 401 Q 248 401 253 419 Q 262 444 251 463 Q 217 527 168 586 Q 122 643 60 703 Q 51 710 48 716 Q 45 725 56 724 Q 86 720 208 598 C 225 579 225 579 233 569 Z"/>
    <path class="bg" d="M 208 598 Q 235 652 203 788 Q 187 818 215 868 Q 218 877 224 882 Q 240 895 250 872 Q 263 838 262 797 Q 263 667 269 639 Q 276 615 267 606 Q 251 588 240 576 Q 236 572 233 569 C 224 560 203 586 208 598 Z"/>
    <path class="bg" d="M 465 317 Q 498 271 498 269 Q 497 268 497 267 Q 496 258 478 244 Q 462 232 450 232 Q 438 233 443 246 Q 455 280 369 393 Q 362 399 361 403 Q 358 410 367 408 Q 388 404 450 335 C 460 323 460 323 465 317 Z"/>
    <path class="bg" d="M 503 429 Q 597 344 609 337 Q 624 328 614 317 Q 604 307 573 288 Q 570 288 465 317 C 457 319 443 332 450 335 Q 465 344 522 331 Q 528 330 530 331 Q 531 332 529 340 Q 505 392 490 418 Q 484 428 483 433 C 480 439 498 433 503 429 Z"/>
    <path class="bg" d="M 386 453 Q 379 449 357 444 Q 347 440 344 445 Q 340 449 345 462 Q 367 514 377 596 Q 378 621 392 638 Q 405 656 409 644 Q 410 638 412 630 C 413 615 413 615 413 608 Q 413 599 412 590 Q 400 506 399 479 C 399 469 395 457 386 453 Z"/>
    <path class="bg" d="M 554 615 Q 569 634 581 641 Q 590 647 601 630 Q 611 611 632 510 Q 639 485 656 466 Q 666 456 657 445 Q 645 432 611 413 Q 598 407 538 421 Q 520 424 503 429 C 490 432 490 432 483 433 Q 465 434 451 439 Q 417 446 386 453 C 376 455 390 483 399 479 Q 414 473 460 465 C 483 460 483 460 494 458 Q 570 440 583 451 Q 593 461 591 474 Q 576 585 561 595 C 556 600 550 609 554 615 Z"/>
    <path class="bg" d="M 505 542 Q 527 536 550 533 Q 569 529 561 518 Q 551 508 530 505 Q 520 504 507 507 C 478 516 478 516 464 521 Q 443 530 425 537 Q 412 541 429 552 Q 433 555 465 551 C 492 545 492 545 505 542 Z"/>
    <path class="bg" d="M 502 587 Q 503 562 505 542 C 506 519 506 519 507 507 Q 507 504 508 503 Q 514 478 508 471 Q 501 464 494 458 C 486 450 460 453 460 465 Q 460 472 464 521 C 465 541 465 541 465 551 Q 465 569 467 595 C 467 607 502 599 502 587 Z"/>
    <path class="bg" d="M 488 622 Q 522 616 554 615 C 561 615 567 599 561 595 Q 554 588 541 586 Q 525 582 502 587 C 479 592 479 592 467 595 Q 439 601 413 608 C 406 609 405 630 412 630 Q 418 630 445 627 C 474 624 474 624 488 622 Z"/>
    <path class="bg" d="M 492 720 Q 540 714 645 713 Q 660 712 663 706 Q 667 696 654 687 Q 608 656 562 672 Q 535 676 503 685 C 466 692 466 692 448 695 Q 378 705 297 719 Q 281 720 293 734 Q 303 744 317 747 Q 333 751 345 747 Q 388 734 441 727 C 475 722 475 722 492 720 Z"/>
    <path class="bg" d="M 441 727 Q 419 827 336 870 Q 323 879 309 888 Q 297 895 307 897 Q 350 901 404 860 Q 465 818 489 732 Q 490 725 492 720 C 499 697 499 697 503 685 Q 507 672 514 661 Q 523 648 511 639 Q 498 627 488 622 C 476 615 438 615 445 627 Q 457 646 448 695 C 443 716 443 716 441 727 Z"/>
    <path class="bg" d="M 522 802 Q 550 830 578 864 Q 588 877 602 877 Q 612 878 617 867 Q 623 855 618 828 Q 614 798 523 760 Q 510 756 504 757 Q 500 760 499 771 Q 502 781 522 802 Z"/>
    <path class="bg" d="M 687 353 Q 650 362 678 377 Q 724 398 778 380 Q 817 371 856 361 Q 875 357 877 353 Q 886 344 880 336 Q 873 324 842 319 Q 818 316 742 343 Q 715 349 687 353 Z"/>
    <path class="bg" d="M 789 504 Q 814 495 924 493 Q 960 493 964 484 Q 968 474 954 464 Q 908 431 847 452 Q 760 470 665 489 Q 649 492 662 505 Q 686 524 727 516 Q 733 513 745 513 C 774 507 774 507 789 504 Z"/>
    <path class="bg" d="M 712 865 Q 694 862 672 860 Q 660 857 661 864 Q 662 871 672 880 Q 730 923 767 957 Q 779 966 791 950 Q 828 896 822 825 Q 812 675 818 562 Q 824 537 818 527 Q 811 517 789 504 C 776 496 742 498 745 513 Q 757 553 762 678 Q 762 846 756 862 Q 753 863 753 866 Q 741 873 712 865 Z"/>
</g>
<g id="anim-layer">
    <path style="--d:1s; stroke:#FF4444;" pathLength="3333" clip-path="url(#z34309c1)" d="M 195 185 L 706 145 L 815 156"/>
    <path style="--d:2s; stroke:#FF4444;" pathLength="3333" clip-path="url(#z34309c2)" d="M 321 84 L 374 112 L 409 257"/>
    <path style="--d:3s; stroke:#FF4444;" pathLength="3333" clip-path="url(#z34309c3)" d="M 594 44 L 631 90 L 568 254"/>
    <path style="--d:4s; stroke:#000;" pathLength="3333" clip-path="url(#z34309c4)" d="M 253 258 L 278 308 L 151 445"/>
    <path style="--d:5s; stroke:#000;" pathLength="3333" clip-path="url(#z34309c5)" d="M 261 409 L 288 459 L 183 597 L 55 717"/>
    <path style="--d:6s; stroke:#000;" pathLength="3333" clip-path="url(#z34309c6)" d="M 232 576 L 230 881"/>
    <path style="--d:7s; stroke:#000;" pathLength="3333" clip-path="url(#z34309c7)" d="M 451 244 L 466 280 L 369 402"/>
    <path style="--d:8s; stroke:#000;" pathLength="3333" clip-path="url(#z34309c8)" d="M 460 332 L 534 313 L 573 333 L 490 426"/>
    <path style="--d:9s; stroke:#000;" pathLength="3333" clip-path="url(#z34309c9)" d="M 348 449 L 378 489 L 403 641"/>
    <path style="--d:10s; stroke:#000;" pathLength="3333" clip-path="url(#z34309c10)" d="M 395 458 L 574 430 L 620 450 L 573 633"/>
    <path style="--d:11s; stroke:#000;" pathLength="3333" clip-path="url(#z34309c11)" d="M 427 544 L 555 521"/>
    <path style="--d:12s; stroke:#000;" pathLength="3333" clip-path="url(#z34309c12)" d="M 466 473 L 487 501 L 482 591"/>
    <path style="--d:13s; stroke:#000;" pathLength="3333" clip-path="url(#z34309c13)" d="M 420 622 L 555 597"/>
    <path style="--d:14s; stroke:#000;" pathLength="3333" clip-path="url(#z34309c14)" d="M 298 725 L 657 698"/>
    <path style="--d:15s; stroke:#000;" pathLength="3333" clip-path="url(#z34309c15)" d="M 454 632 L 484 664 L 442 789 L 395 847 L 312 892"/>
    <path style="--d:16s; stroke:#000;" pathLength="3333" clip-path="url(#z34309c16)" d="M 506 763 L 609 873"/>
    <path style="--d:17s; stroke:#000;" pathLength="3333" clip-path="url(#z34309c17)" d="M 672 363 L 878 345"/>
    <path style="--d:18s; stroke:#000;" pathLength="3333" clip-path="url(#z34309c18)" d="M 663 495 L 960 477"/>
    <path style="--d:19s; stroke:#000;" pathLength="3333" clip-path="url(#z34309c19)" d="M 752 521 L 788 560 L 788 871 L 764 913 L 668 868"/>
</g>
</svg>