<svg id="z34468" class="acjk" viewBox="0 0 1024 1024" xmlns="http://www.w3.org/2000/svg">

<style>
<![CDATA[
@keyframes zk { to { stroke-dashoffset:0; } }
svg.acjk path[clip-path] {
    --t:0.8s;
    animation:zk var(--t) linear forwards var(--d);
    stroke-dasharray:3337;
    stroke-dashoffset:3339;
    stroke-width:128;
    stroke-linecap:round;
    fill:none;
}
/* Low opacity for background improves visual overlap at intersections */
svg.acjk .bg { fill:#ccc; opacity: 0.5; } 
]]>
</style>
<defs>
    <clipPath id="z34468c1"><path d="M 526 359 Q 589 292 658 197 Q 676 172 702 157 Q 718 150 718 141 Q 719 128 693 110 Q 660 85 647 84 Q 637 84 624 91 Q 588 101 498 118 Q 401 133 374 133 Q 337 133 335 141 Q 334 145 340 150 Q 388 193 584 138 Q 603 134 609 141 Q 615 145 593 186 Q 556 258 483 332 C 466 349 466 349 457 358 Q 319 490 116 552 Q 106 555 106 560 Q 106 564 113 565 Q 230 583 410 460 Q 447 433 486 398 Q 490 394 496 389 C 516 369 516 369 526 359 Z"/></clipPath>
    <clipPath id="z34468c2"><path d="M 496 389 Q 698 543 771 542 Q 772 541 776 541 Q 873 529 948 510 Q 960 506 963 496 Q 966 487 944 487 Q 877 474 802 466 Q 685 450 526 359 C 497 341 497 341 483 332 Q 464 319 444 304 Q 329 217 267 230 Q 261 230 257 232 Q 247 236 253 246 Q 259 255 270 255 Q 328 258 457 358 C 483 379 483 379 496 389 Z"/></clipPath>
    <clipPath id="z34468c3"><path d="M 413 216 Q 465 258 486 257 Q 496 256 498 241 Q 498 231 487 217 Q 477 205 457 202 Q 426 195 413 195 Q 406 195 407 204 Q 407 211 413 216 Z"/></clipPath>
    <clipPath id="z34468c4"><path d="M 336 582 Q 324 576 289 573 Q 277 572 275 576 Q 269 583 279 597 Q 306 642 328 717 Q 332 741 348 754 Q 367 773 370 758 Q 371 752 371 745 C 369 724 369 724 368 714 Q 367 711 345 614 C 343 603 346 586 336 582 Z"/></clipPath>
    <clipPath id="z34468c5"><path d="M 670 677 Q 694 613 722 596 Q 738 580 725 562 Q 710 549 661 524 Q 645 517 624 524 Q 575 540 529 553 C 492 560 492 560 473 564 Q 406 574 336 582 C 325 584 334 616 345 614 Q 429 596 474 591 C 508 585 508 585 525 582 Q 559 575 593 570 Q 621 563 633 576 Q 640 583 639 599 Q 632 636 623 670 C 620 686 664 692 670 677 Z"/></clipPath>
    <clipPath id="z34468c6"><path d="M 520 724 Q 587 714 680 708 Q 690 707 691 699 Q 691 692 670 677 C 657 667 639 667 623 670 Q 622 669 620 670 Q 566 680 521 691 C 492 696 492 696 478 699 Q 420 706 368 714 C 358 716 361 745 371 745 Q 377 746 384 745 Q 421 736 478 729 C 506 726 506 726 520 724 Z"/></clipPath>
    <clipPath id="z34468c7"><path d="M 515 816 Q 516 768 520 724 C 521 702 521 702 521 691 Q 522 634 525 582 C 528 563 528 563 529 553 Q 529 538 540 501 Q 543 491 524 477 Q 493 461 470 457 Q 455 454 448 462 Q 441 469 449 483 Q 471 513 471 533 Q 472 548 473 564 C 474 582 474 582 474 591 Q 477 643 478 699 C 478 719 478 719 478 729 Q 478 772 477 822 C 477 835 515 829 515 816 Z"/></clipPath>
    <clipPath id="z34468c8"><path d="M 653 793 Q 586 803 515 816 C 490 820 490 820 477 822 Q 291 849 258 846 Q 233 837 225 852 Q 221 865 229 874 Q 248 893 278 917 Q 288 921 301 916 Q 362 886 520 852 Q 661 816 668 813 C 676 810 661 791 653 793 Z"/></clipPath>
    <clipPath id="z34468c9"><path d="M 668 813 Q 699 858 735 915 Q 747 937 761 943 Q 768 946 777 938 Q 790 928 787 885 Q 783 828 646 747 Q 639 740 634 751 Q 631 761 653 793 C 663 806 663 806 668 813 Z"/></clipPath>
</defs>
<g id="bg-layer">
    <path class="bg" d="M 526 359 Q 589 292 658 197 Q 676 172 702 157 Q 718 150 718 141 Q 719 128 693 110 Q 660 85 647 84 Q 637 84 624 91 Q 588 101 498 118 Q 401 133 374 133 Q 337 133 335 141 Q 334 145 340 150 Q 388 193 584 138 Q 603 134 609 141 Q 615 145 593 186 Q 556 258 483 332 C 466 349 466 349 457 358 Q 319 490 116 552 Q 106 555 106 560 Q 106 564 113 565 Q 230 583 410 460 Q 447 433 486 398 Q 490 394 496 389 C 516 369 516 369 526 359 Z"/>
    <path class="bg" d="M 496 389 Q 698 543 771 542 Q 772 541 776 541 Q 873 529 948 510 Q 960 506 963 496 Q 966 487 944 487 Q 877 474 802 466 Q 685 450 526 359 C 497 341 497 341 483 332 Q 464 319 444 304 Q 329 217 267 230 Q 261 230 257 232 Q 247 236 253 246 Q 259 255 270 255 Q 328 258 457 358 C 483 379 483 379 496 389 Z"/>
    <path class="bg" d="M 413 216 Q 465 258 486 257 Q 496 256 498 241 Q 498 231 487 217 Q 477 205 457 202 Q 426 195 413 195 Q 406 195 407 204 Q 407 211 413 216 Z"/>
    <path class="bg" d="M 336 582 Q 324 576 289 573 Q 277 572 275 576 Q 269 583 279 597 Q 306 642 328 717 Q 332 741 348 754 Q 367 773 370 758 Q 371 752 371 745 C 369 724 369 724 368 714 Q 367 711 345 614 C 343 603 346 586 336 582 Z"/>
    <path class="bg" d="M 670 677 Q 694 613 722 596 Q 738 580 725 562 Q 710 549 661 524 Q 645 517 624 524 Q 575 540 529 553 C 492 560 492 560 473 564 Q 406 574 336 582 C 325 584 334 616 345 614 Q 429 596 474 591 C 508 585 508 585 525 582 Q 559 575 593 570 Q 621 563 633 576 Q 640 583 639 599 Q 632 636 623 670 C 620 686 664 692 670 677 Z"/>
    <path class="bg" d="M 520 724 Q 587 714 680 708 Q 690 707 691 699 Q 691 692 670 677 C 657 667 639 667 623 670 Q 622 669 620 670 Q 566 680 521 691 C 492 696 492 696 478 699 Q 420 706 368 714 C 358 716 361 745 371 745 Q 377 746 384 745 Q 421 736 478 729 C 506 726 506 726 520 724 Z"/>
    <path class="bg" d="M 515 816 Q 516 768 520 724 C 521 702 521 702 521 691 Q 522 634 525 582 C 528 563 528 563 529 553 Q 529 538 540 501 Q 543 491 524 477 Q 493 461 470 457 Q 455 454 448 462 Q 441 469 449 483 Q 471 513 471 533 Q 472 548 473 564 C 474 582 474 582 474 591 Q 477 643 478 699 C 478 719 478 719 478 729 Q 478 772 477 822 C 477 835 515 829 515 816 Z"/>
    <path class="bg" d="M 653 793 Q 586 803 515 816 C 490 820 490 820 477 822 Q 291 849 258 846 Q 233 837 225 852 Q 221 865 229 874 Q 248 893 278 917 Q 288 921 301 916 Q 362 886 520 852 Q 661 816 668 813 C 676 810 661 791 653 793 Z"/>
    <path class="bg" d="M 668 813 Q 699 858 735 915 Q 747 937 761 943 Q 768 946 777 938 Q 790 928 787 885 Q 783 828 646 747 Q 639 740 634 751 Q 631 761 653 793 C 663 806 663 806 668 813 Z"/>
</g>
<g id="anim-layer">
    <path style="--d:1s; stroke:#FF4444;" pathLength="3333" clip-path="url(#z34468c1)" d="M 343 140 L 431 148 L 625 111 L 661 150 L 517 333 L 397 440 L 253 522 L 113 558"/>
    <path style="--d:2s; stroke:#FF4444;" pathLength="3333" clip-path="url(#z34468c2)" d="M 260 241 L 342 260 L 732 493 L 957 497"/>
    <path style="--d:3s; stroke:#FF4444;" pathLength="3333" clip-path="url(#z34468c3)" d="M 413 203 L 491 249"/>
    <path style="--d:4s; stroke:#000;" pathLength="3333" clip-path="url(#z34468c4)" d="M 281 579 L 316 607 L 359 758"/>
    <path style="--d:5s; stroke:#000;" pathLength="3333" clip-path="url(#z34468c5)" d="M 344 586 L 643 547 L 685 585 L 643 672"/>
    <path style="--d:6s; stroke:#000;" pathLength="3333" clip-path="url(#z34468c6)" d="M 378 738 L 618 691 L 685 698"/>
    <path style="--d:7s; stroke:#000;" pathLength="3333" clip-path="url(#z34468c7)" d="M 452 466 L 504 510 L 496 818"/>
    <path style="--d:8s; stroke:#000;" pathLength="3333" clip-path="url(#z34468c8)" d="M 230 858 L 295 881 L 659 810"/>
    <path style="--d:9s; stroke:#000;" pathLength="3333" clip-path="url(#z34468c9)" d="M 640 751 L 749 874 L 769 938"/>
</g>
</svg>