<svg id="z34659" class="acjk" viewBox="0 0 1024 1024" xmlns="http://www.w3.org/2000/svg">

<style>
<![CDATA[
@keyframes zk { to { stroke-dashoffset:0; } }
svg.acjk path[clip-path] {
    --t:0.8s;
    animation:zk var(--t) linear forwards var(--d);
    stroke-dasharray:3337;
    stroke-dashoffset:3339;
    stroke-width:128;
    stroke-linecap:round;
    fill:none;
}
/* Low opacity for background improves visual overlap at intersections */
svg.acjk .bg { fill:#ccc; opacity: 0.5; } 
]]>
</style>
<defs>
    <clipPath id="z34659c1"><path d="M 119 349 Q 109 345 82 340 Q 72 339 68 343 Q 64 349 71 362 Q 95 405 112 478 Q 116 500 129 514 Q 145 533 150 519 Q 151 512 152 502 C 151 483 151 483 150 473 Q 138 401 133 376 C 131 366 128 353 119 349 Z"/></clipPath>
    <clipPath id="z34659c2"><path d="M 321 442 Q 339 370 367 347 Q 380 331 367 318 Q 354 308 310 291 Q 295 287 242 311 C 213 322 213 322 198 328 Q 158 338 119 349 C 109 351 123 378 133 376 Q 143 373 155 369 Q 174 362 198 357 C 227 349 227 349 241 345 Q 254 341 270 336 Q 285 332 291 337 Q 303 349 282 439 C 279 452 318 455 321 442 Z"/></clipPath>
    <clipPath id="z34659c3"><path d="M 236 486 Q 276 479 335 471 Q 344 470 345 462 Q 345 455 321 442 C 310 435 295 437 282 439 Q 278 439 277 440 Q 255 444 238 451 C 211 458 211 458 198 462 Q 171 468 150 473 C 140 475 142 502 152 502 Q 158 502 165 501 Q 178 497 197 494 C 223 489 223 489 236 486 Z"/></clipPath>
    <clipPath id="z34659c4"><path d="M 232 587 Q 233 535 236 486 C 237 463 237 463 238 451 Q 239 397 241 345 C 242 322 242 322 242 311 Q 242 236 261 166 Q 264 156 245 142 Q 211 126 189 121 Q 173 118 166 126 Q 159 133 167 148 Q 194 187 194 213 Q 197 268 198 328 C 198 347 198 347 198 357 Q 198 408 198 462 C 197 483 197 483 197 494 Q 196 546 193 602 C 193 616 232 601 232 587 Z"/></clipPath>
    <clipPath id="z34659c5"><path d="M 298 561 Q 264 573 232 587 C 206 597 206 597 193 602 Q 94 636 69 639 Q 57 642 56 652 Q 55 665 65 671 Q 87 684 121 699 Q 131 702 141 692 Q 162 670 288 595 Q 298 589 307 583 C 314 579 305 558 298 561 Z"/></clipPath>
    <clipPath id="z34659c6"><path d="M 307 583 Q 314 602 328 608 Q 338 614 349 602 Q 353 592 353 573 Q 347 543 299 509 Q 292 505 288 513 Q 282 519 298 561 C 304 576 304 576 307 583 Z"/></clipPath>
    <clipPath id="z34659c7"><path d="M 448 176 Q 475 201 503 234 Q 516 247 532 248 Q 542 248 549 235 Q 555 220 547 190 Q 543 169 512 152 Q 436 119 424 125 Q 420 129 419 142 Q 423 152 448 176 Z"/></clipPath>
    <clipPath id="z34659c8"><path d="M 477 380 Q 576 344 579 342 Q 586 333 580 326 Q 573 316 545 314 Q 515 313 445 347 Q 415 357 379 365 Q 348 375 373 387 Q 397 396 435 393 C 450 393 463 385 477 380 Z"/></clipPath>
    <clipPath id="z34659c9"><path d="M 468 490 Q 516 496 526 510 Q 538 534 495 655 Q 473 712 451 720 Q 441 726 405 714 Q 374 701 370 706 Q 366 713 381 724 Q 411 746 425 782 Q 429 797 439 802 Q 451 806 478 787 Q 524 748 556 614 Q 571 545 591 532 Q 600 528 601 520 Q 602 513 582 491 Q 555 467 508 467 Q 484 464 481 463 C 471 461 458 488 468 490 Z"/></clipPath>
    <clipPath id="z34659c10"><path d="M 481 463 Q 499 424 505 418 Q 511 414 508 405 Q 502 389 477 380 C 463 375 432 379 435 393 Q 450 472 348 625 Q 345 628 344 631 Q 313 677 232 766 Q 225 770 234 772 Q 285 763 377 648 Q 419 588 468 490 C 477 472 477 472 481 463 Z"/></clipPath>
    <clipPath id="z34659c11"><path d="M 668 282 Q 695 245 723 187 Q 733 160 745 147 Q 752 137 746 127 Q 742 117 716 101 Q 692 89 677 92 Q 662 96 671 112 Q 698 157 594 346 Q 587 356 586 361 Q 585 371 595 367 Q 613 358 651 307 C 662 290 662 290 668 282 Z"/></clipPath>
    <clipPath id="z34659c12"><path d="M 651 307 Q 699 323 745 306 Q 791 293 840 278 Q 862 271 866 267 Q 873 258 868 251 Q 861 241 831 236 Q 804 233 726 267 C 687 277 687 277 668 282 C 658 284 642 303 651 307 Z"/></clipPath>
    <clipPath id="z34659c13"><path d="M 724 512 Q 826 422 849 416 Q 865 409 860 395 Q 856 382 797 353 Q 781 346 761 354 Q 719 373 655 397 Q 639 404 597 405 Q 576 406 585 423 Q 592 433 609 443 Q 637 456 665 437 Q 743 388 763 395 Q 773 401 770 413 Q 745 456 714 507 C 712 510 721 514 724 512 Z"/></clipPath>
    <clipPath id="z34659c14"><path d="M 762 565 Q 744 525 724 512 C 717 509 717 509 714 507 Q 708 503 701 501 Q 682 494 672 500 Q 659 507 672 519 Q 700 540 711 574 C 716 596 716 596 719 607 Q 743 730 710 806 Q 697 825 670 817 Q 642 808 616 799 Q 606 795 609 806 Q 612 813 628 828 Q 662 864 671 890 Q 678 908 695 906 Q 708 905 735 882 Q 792 831 782 679 Q 778 633 771 600 C 765 577 765 577 762 565 Z"/></clipPath>
    <clipPath id="z34659c15"><path d="M 771 600 Q 829 591 935 592 Q 951 592 955 584 Q 959 574 946 564 Q 898 530 846 547 Q 810 554 762 565 C 728 571 728 571 711 574 Q 653 581 586 593 Q 568 596 582 609 Q 594 621 608 624 Q 626 628 639 624 Q 676 614 719 607 C 754 602 754 602 771 600 Z"/></clipPath>
</defs>
<g id="bg-layer">
    <path class="bg" d="M 119 349 Q 109 345 82 340 Q 72 339 68 343 Q 64 349 71 362 Q 95 405 112 478 Q 116 500 129 514 Q 145 533 150 519 Q 151 512 152 502 C 151 483 151 483 150 473 Q 138 401 133 376 C 131 366 128 353 119 349 Z"/>
    <path class="bg" d="M 321 442 Q 339 370 367 347 Q 380 331 367 318 Q 354 308 310 291 Q 295 287 242 311 C 213 322 213 322 198 328 Q 158 338 119 349 C 109 351 123 378 133 376 Q 143 373 155 369 Q 174 362 198 357 C 227 349 227 349 241 345 Q 254 341 270 336 Q 285 332 291 337 Q 303 349 282 439 C 279 452 318 455 321 442 Z"/>
    <path class="bg" d="M 236 486 Q 276 479 335 471 Q 344 470 345 462 Q 345 455 321 442 C 310 435 295 437 282 439 Q 278 439 277 440 Q 255 444 238 451 C 211 458 211 458 198 462 Q 171 468 150 473 C 140 475 142 502 152 502 Q 158 502 165 501 Q 178 497 197 494 C 223 489 223 489 236 486 Z"/>
    <path class="bg" d="M 232 587 Q 233 535 236 486 C 237 463 237 463 238 451 Q 239 397 241 345 C 242 322 242 322 242 311 Q 242 236 261 166 Q 264 156 245 142 Q 211 126 189 121 Q 173 118 166 126 Q 159 133 167 148 Q 194 187 194 213 Q 197 268 198 328 C 198 347 198 347 198 357 Q 198 408 198 462 C 197 483 197 483 197 494 Q 196 546 193 602 C 193 616 232 601 232 587 Z"/>
    <path class="bg" d="M 298 561 Q 264 573 232 587 C 206 597 206 597 193 602 Q 94 636 69 639 Q 57 642 56 652 Q 55 665 65 671 Q 87 684 121 699 Q 131 702 141 692 Q 162 670 288 595 Q 298 589 307 583 C 314 579 305 558 298 561 Z"/>
    <path class="bg" d="M 307 583 Q 314 602 328 608 Q 338 614 349 602 Q 353 592 353 573 Q 347 543 299 509 Q 292 505 288 513 Q 282 519 298 561 C 304 576 304 576 307 583 Z"/>
    <path class="bg" d="M 448 176 Q 475 201 503 234 Q 516 247 532 248 Q 542 248 549 235 Q 555 220 547 190 Q 543 169 512 152 Q 436 119 424 125 Q 420 129 419 142 Q 423 152 448 176 Z"/>
    <path class="bg" d="M 477 380 Q 576 344 579 342 Q 586 333 580 326 Q 573 316 545 314 Q 515 313 445 347 Q 415 357 379 365 Q 348 375 373 387 Q 397 396 435 393 C 450 393 463 385 477 380 Z"/>
    <path class="bg" d="M 468 490 Q 516 496 526 510 Q 538 534 495 655 Q 473 712 451 720 Q 441 726 405 714 Q 374 701 370 706 Q 366 713 381 724 Q 411 746 425 782 Q 429 797 439 802 Q 451 806 478 787 Q 524 748 556 614 Q 571 545 591 532 Q 600 528 601 520 Q 602 513 582 491 Q 555 467 508 467 Q 484 464 481 463 C 471 461 458 488 468 490 Z"/>
    <path class="bg" d="M 481 463 Q 499 424 505 418 Q 511 414 508 405 Q 502 389 477 380 C 463 375 432 379 435 393 Q 450 472 348 625 Q 345 628 344 631 Q 313 677 232 766 Q 225 770 234 772 Q 285 763 377 648 Q 419 588 468 490 C 477 472 477 472 481 463 Z"/>
    <path class="bg" d="M 668 282 Q 695 245 723 187 Q 733 160 745 147 Q 752 137 746 127 Q 742 117 716 101 Q 692 89 677 92 Q 662 96 671 112 Q 698 157 594 346 Q 587 356 586 361 Q 585 371 595 367 Q 613 358 651 307 C 662 290 662 290 668 282 Z"/>
    <path class="bg" d="M 651 307 Q 699 323 745 306 Q 791 293 840 278 Q 862 271 866 267 Q 873 258 868 251 Q 861 241 831 236 Q 804 233 726 267 C 687 277 687 277 668 282 C 658 284 642 303 651 307 Z"/>
    <path class="bg" d="M 724 512 Q 826 422 849 416 Q 865 409 860 395 Q 856 382 797 353 Q 781 346 761 354 Q 719 373 655 397 Q 639 404 597 405 Q 576 406 585 423 Q 592 433 609 443 Q 637 456 665 437 Q 743 388 763 395 Q 773 401 770 413 Q 745 456 714 507 C 712 510 721 514 724 512 Z"/>
    <path class="bg" d="M 762 565 Q 744 525 724 512 C 717 509 717 509 714 507 Q 708 503 701 501 Q 682 494 672 500 Q 659 507 672 519 Q 700 540 711 574 C 716 596 716 596 719 607 Q 743 730 710 806 Q 697 825 670 817 Q 642 808 616 799 Q 606 795 609 806 Q 612 813 628 828 Q 662 864 671 890 Q 678 908 695 906 Q 708 905 735 882 Q 792 831 782 679 Q 778 633 771 600 C 765 577 765 577 762 565 Z"/>
    <path class="bg" d="M 771 600 Q 829 591 935 592 Q 951 592 955 584 Q 959 574 946 564 Q 898 530 846 547 Q 810 554 762 565 C 728 571 728 571 711 574 Q 653 581 586 593 Q 568 596 582 609 Q 594 621 608 624 Q 626 628 639 624 Q 676 614 719 607 C 754 602 754 602 771 600 Z"/>
</g>
<g id="anim-layer">
    <path style="--d:1s; stroke:#FF4444;" pathLength="3333" clip-path="url(#z34659c1)" d="M 74 348 L 108 383 L 140 518"/>
    <path style="--d:2s; stroke:#FF4444;" pathLength="3333" clip-path="url(#z34659c2)" d="M 127 353 L 292 313 L 322 324 L 334 342 L 293 439"/>
    <path style="--d:3s; stroke:#FF4444;" pathLength="3333" clip-path="url(#z34659c3)" d="M 159 494 L 340 459"/>
    <path style="--d:4s; stroke:#FF4444;" pathLength="3333" clip-path="url(#z34659c4)" d="M 171 132 L 226 179 L 199 594"/>
    <path style="--d:5s; stroke:#FF4444;" pathLength="3333" clip-path="url(#z34659c5)" d="M 61 653 L 123 662 L 298 570"/>
    <path style="--d:6s; stroke:#FF4444;" pathLength="3333" clip-path="url(#z34659c6)" d="M 294 514 L 337 605"/>
    <path style="--d:7s; stroke:#000;" pathLength="3333" clip-path="url(#z34659c7)" d="M 427 131 L 545 236"/>
    <path style="--d:8s; stroke:#000;" pathLength="3333" clip-path="url(#z34659c8)" d="M 368 377 L 578 334"/>
    <path style="--d:9s; stroke:#000;" pathLength="3333" clip-path="url(#z34659c9)" d="M 474 485 L 533 488 L 564 518 L 510 683 L 449 761 L 377 710"/>
    <path style="--d:10s; stroke:#000;" pathLength="3333" clip-path="url(#z34659c10)" d="M 440 401 L 471 429 L 408 563 L 324 685 L 236 767"/>
    <path style="--d:11s; stroke:#000;" pathLength="3333" clip-path="url(#z34659c11)" d="M 675 99 L 712 138 L 592 360"/>
    <path style="--d:12s; stroke:#000;" pathLength="3333" clip-path="url(#z34659c12)" d="M 660 304 L 863 258"/>
    <path style="--d:13s; stroke:#000;" pathLength="3333" clip-path="url(#z34659c13)" d="M 586 413 L 635 424 L 758 374 L 792 381 L 815 408 L 721 506"/>
    <path style="--d:14s; stroke:#000;" pathLength="3333" clip-path="url(#z34659c14)" d="M 677 511 L 713 530 L 742 591 L 748 788 L 731 833 L 689 862 L 615 805"/>
    <path style="--d:15s; stroke:#000;" pathLength="3333" clip-path="url(#z34659c15)" d="M 581 599 L 882 566 L 950 579"/>
</g>
</svg>