<svg id="z34903" class="acjk" viewBox="0 0 1024 1024" xmlns="http://www.w3.org/2000/svg">

<style>
<![CDATA[
@keyframes zk { to { stroke-dashoffset:0; } }
svg.acjk path[clip-path] {
    --t:0.8s;
    animation:zk var(--t) linear forwards var(--d);
    stroke-dasharray:3337;
    stroke-dashoffset:3339;
    stroke-width:128;
    stroke-linecap:round;
    fill:none;
}
/* Low opacity for background improves visual overlap at intersections */
svg.acjk .bg { fill:#ccc; opacity: 0.5; } 
]]>
</style>
<defs>
    <clipPath id="z34903c1"><path d="M 302 81 C 308 103 289 144 243 203 C 221 230 196 259 166 289 C 160 294 154 297 153 302 C 150 308 153 311 161 311 C 191 310 249 271 328 186 C 344 168 357 152 372 142 C 379 136 381 128 380 120 C 379 112 371 99 355 83 C 340 68 327 60 315 60 C 303 59 298 67 302 81 Z"/></clipPath>
    <clipPath id="z34903c2"><path d="M 264 483 C 334 396 367 354 368 349 C 368 346 371 342 362 330 C 356 320 349 314 338 304 C 322 290 308 283 296 283 C 284 282 279 290 284 305 C 290 325 290 342 282 358 C 234 450 159 550 57 655 C 50 661 45 665 44 670 C 41 676 44 680 53 679 C 81 675 147 625 237 516 C 255 494 255 494 264 483 Z"/></clipPath>
    <clipPath id="z34903c3"><path d="M 237 516 Q 268 576 238 752 Q 213 834 254 877 Q 270 892 282 867 Q 295 828 295 785 Q 296 599 303 557 Q 310 532 301 522 Q 270 485 264 483 C 252 476 232 503 237 516 Z"/></clipPath>
    <clipPath id="z34903c4"><path d="M 540 296 C 560 290 581 283 603 278 C 619 273 629 269 633 266 C 637 261 639 255 636 250 C 631 243 619 238 601 236 C 582 233 564 240 544 248 C 511 260 511 260 494 266 C 476 272 441 279 409 285 C 386 289 384 298 402 307 C 427 319 458 319 494 309 C 525 300 525 300 540 296 Z"/></clipPath>
    <clipPath id="z34903c5"><path d="M 533 383 C 535 353 537 324 540 296 C 543 264 543 264 544 248 C 548 193 553 149 564 115 C 566 108 561 99 548 91 C 526 77 507 70 493 68 C 482 66 474 67 470 73 C 465 77 464 85 470 94 C 481 111 486 125 489 138 C 492 159 494 201 494 266 C 494 295 494 295 494 309 C 494 335 493 364 493 395 C 493 409 533 397 533 383 Z"/></clipPath>
    <clipPath id="z34903c6"><path d="M 510 430 C 534 423 581 411 650 399 C 656 397 664 396 667 388 C 669 381 659 375 646 369 C 623 359 587 366 533 383 C 506 391 506 391 493 395 C 466 402 440 407 416 413 C 395 417 373 421 350 426 C 333 429 331 435 345 445 C 366 459 384 463 407 457 C 422 452 464 442 478 439 C 499 433 499 433 510 430 Z"/></clipPath>
    <clipPath id="z34903c7"><path d="M 540 562 C 598 544 627 532 629 532 C 634 527 634 522 631 518 C 626 511 615 506 599 504 C 572 500 556 509 543 515 C 509 529 509 529 492 536 C 475 542 424 553 393 559 C 372 563 369 572 386 580 C 411 592 433 593 492 576 C 524 567 524 567 540 562 Z"/></clipPath>
    <clipPath id="z34903c8"><path d="M 533 664 C 535 627 538 593 540 562 C 542 531 542 531 543 515 C 543 505 546 494 549 483 C 552 471 549 463 544 457 C 532 444 520 436 510 430 C 500 424 474 429 478 439 C 484 451 492 483 492 536 C 492 563 492 563 492 576 C 492 641 492 641 492 673 C 492 687 533 678 533 664 Z"/></clipPath>
    <clipPath id="z34903c9"><path d="M 492 673 C 412 690 364 696 348 696 C 340 696 335 700 334 706 C 332 714 333 722 339 727 C 352 738 369 750 390 763 C 396 766 404 764 412 759 C 432 744 495 717 602 676 C 616 670 629 662 640 656 C 648 650 655 646 654 641 C 653 636 645 634 637 637 C 604 644 570 655 533 664 C 506 670 506 670 492 673 Z"/></clipPath>
    <clipPath id="z34903c10"><path d="M 681 246 C 654 253 652 263 673 272 C 700 283 742 279 796 263 C 818 256 841 249 865 241 C 877 236 884 232 887 230 C 892 223 893 217 889 212 C 882 204 868 198 848 197 C 830 195 795 209 742 230 C 722 237 701 240 681 246 Z"/></clipPath>
    <clipPath id="z34903c11"><path d="M 787 442 C 801 439 849 428 937 425 C 963 423 977 421 981 415 C 983 408 980 400 970 393 C 934 370 899 369 864 379 C 768 405 693 420 642 431 C 629 433 627 440 638 449 C 657 464 673 469 697 463 C 707 459 725 454 739 452 C 771 445 771 445 787 442 Z"/></clipPath>
    <clipPath id="z34903c12"><path d="M 701 841 C 686 837 669 835 652 832 C 643 830 640 831 641 836 C 641 840 645 846 653 853 C 693 884 728 912 757 939 C 764 946 774 944 783 932 C 806 896 818 847 816 788 C 811 685 806 590 815 501 C 816 482 820 470 816 464 C 811 457 801 450 787 442 C 773 434 731 438 739 452 C 747 460 752 491 753 547 C 753 601 754 683 755 793 C 755 817 751 834 743 842 C 736 848 721 845 701 841 Z"/></clipPath>
</defs>
<g id="bg-layer">
    <path class="bg" d="M 302 81 C 308 103 289 144 243 203 C 221 230 196 259 166 289 C 160 294 154 297 153 302 C 150 308 153 311 161 311 C 191 310 249 271 328 186 C 344 168 357 152 372 142 C 379 136 381 128 380 120 C 379 112 371 99 355 83 C 340 68 327 60 315 60 C 303 59 298 67 302 81 Z"/>
    <path class="bg" d="M 264 483 C 334 396 367 354 368 349 C 368 346 371 342 362 330 C 356 320 349 314 338 304 C 322 290 308 283 296 283 C 284 282 279 290 284 305 C 290 325 290 342 282 358 C 234 450 159 550 57 655 C 50 661 45 665 44 670 C 41 676 44 680 53 679 C 81 675 147 625 237 516 C 255 494 255 494 264 483 Z"/>
    <path class="bg" d="M 237 516 Q 268 576 238 752 Q 213 834 254 877 Q 270 892 282 867 Q 295 828 295 785 Q 296 599 303 557 Q 310 532 301 522 Q 270 485 264 483 C 252 476 232 503 237 516 Z"/>
    <path class="bg" d="M 540 296 C 560 290 581 283 603 278 C 619 273 629 269 633 266 C 637 261 639 255 636 250 C 631 243 619 238 601 236 C 582 233 564 240 544 248 C 511 260 511 260 494 266 C 476 272 441 279 409 285 C 386 289 384 298 402 307 C 427 319 458 319 494 309 C 525 300 525 300 540 296 Z"/>
    <path class="bg" d="M 533 383 C 535 353 537 324 540 296 C 543 264 543 264 544 248 C 548 193 553 149 564 115 C 566 108 561 99 548 91 C 526 77 507 70 493 68 C 482 66 474 67 470 73 C 465 77 464 85 470 94 C 481 111 486 125 489 138 C 492 159 494 201 494 266 C 494 295 494 295 494 309 C 494 335 493 364 493 395 C 493 409 533 397 533 383 Z"/>
    <path class="bg" d="M 510 430 C 534 423 581 411 650 399 C 656 397 664 396 667 388 C 669 381 659 375 646 369 C 623 359 587 366 533 383 C 506 391 506 391 493 395 C 466 402 440 407 416 413 C 395 417 373 421 350 426 C 333 429 331 435 345 445 C 366 459 384 463 407 457 C 422 452 464 442 478 439 C 499 433 499 433 510 430 Z"/>
    <path class="bg" d="M 540 562 C 598 544 627 532 629 532 C 634 527 634 522 631 518 C 626 511 615 506 599 504 C 572 500 556 509 543 515 C 509 529 509 529 492 536 C 475 542 424 553 393 559 C 372 563 369 572 386 580 C 411 592 433 593 492 576 C 524 567 524 567 540 562 Z"/>
    <path class="bg" d="M 533 664 C 535 627 538 593 540 562 C 542 531 542 531 543 515 C 543 505 546 494 549 483 C 552 471 549 463 544 457 C 532 444 520 436 510 430 C 500 424 474 429 478 439 C 484 451 492 483 492 536 C 492 563 492 563 492 576 C 492 641 492 641 492 673 C 492 687 533 678 533 664 Z"/>
    <path class="bg" d="M 492 673 C 412 690 364 696 348 696 C 340 696 335 700 334 706 C 332 714 333 722 339 727 C 352 738 369 750 390 763 C 396 766 404 764 412 759 C 432 744 495 717 602 676 C 616 670 629 662 640 656 C 648 650 655 646 654 641 C 653 636 645 634 637 637 C 604 644 570 655 533 664 C 506 670 506 670 492 673 Z"/>
    <path class="bg" d="M 681 246 C 654 253 652 263 673 272 C 700 283 742 279 796 263 C 818 256 841 249 865 241 C 877 236 884 232 887 230 C 892 223 893 217 889 212 C 882 204 868 198 848 197 C 830 195 795 209 742 230 C 722 237 701 240 681 246 Z"/>
    <path class="bg" d="M 787 442 C 801 439 849 428 937 425 C 963 423 977 421 981 415 C 983 408 980 400 970 393 C 934 370 899 369 864 379 C 768 405 693 420 642 431 C 629 433 627 440 638 449 C 657 464 673 469 697 463 C 707 459 725 454 739 452 C 771 445 771 445 787 442 Z"/>
    <path class="bg" d="M 701 841 C 686 837 669 835 652 832 C 643 830 640 831 641 836 C 641 840 645 846 653 853 C 693 884 728 912 757 939 C 764 946 774 944 783 932 C 806 896 818 847 816 788 C 811 685 806 590 815 501 C 816 482 820 470 816 464 C 811 457 801 450 787 442 C 773 434 731 438 739 452 C 747 460 752 491 753 547 C 753 601 754 683 755 793 C 755 817 751 834 743 842 C 736 848 721 845 701 841 Z"/>
</g>
<g id="anim-layer">
    <path style="--d:1s; stroke:#FF4444;" pathLength="3333" clip-path="url(#z34903c1)" d="M 310 69 L 337 126 L 159 303"/>
    <path style="--d:2s; stroke:#FF4444;" pathLength="3333" clip-path="url(#z34903c2)" d="M 291 291 L 327 349 L 182 547 L 53 668"/>
    <path style="--d:3s; stroke:#FF4444;" pathLength="3333" clip-path="url(#z34903c3)" d="M 259 486 L 276 541 L 262 878"/>
    <path style="--d:4s; stroke:#000;" pathLength="3333" clip-path="url(#z34903c4)" d="M 396 293 L 630 256"/>
    <path style="--d:5s; stroke:#000;" pathLength="3333" clip-path="url(#z34903c5)" d="M 474 79 L 526 122 L 505 398"/>
    <path style="--d:6s; stroke:#000;" pathLength="3333" clip-path="url(#z34903c6)" d="M 344 434 L 661 384"/>
    <path style="--d:7s; stroke:#000;" pathLength="3333" clip-path="url(#z34903c7)" d="M 382 570 L 627 518"/>
    <path style="--d:8s; stroke:#000;" pathLength="3333" clip-path="url(#z34903c8)" d="M 484 438 L 520 486 L 509 677"/>
    <path style="--d:9s; stroke:#000;" pathLength="3333" clip-path="url(#z34903c9)" d="M 339 703 L 400 727 L 646 643"/>
    <path style="--d:10s; stroke:#000;" pathLength="3333" clip-path="url(#z34903c10)" d="M 667 259 L 887 215"/>
    <path style="--d:11s; stroke:#000;" pathLength="3333" clip-path="url(#z34903c11)" d="M 640 439 L 894 400 L 977 408"/>
    <path style="--d:12s; stroke:#000;" pathLength="3333" clip-path="url(#z34903c12)" d="M 744 446 L 783 479 L 782 838 L 750 894 L 649 837"/>
</g>
</svg>