<svg id="z35492" class="acjk" viewBox="0 0 1024 1024" xmlns="http://www.w3.org/2000/svg">

<style>
<![CDATA[
@keyframes zk { to { stroke-dashoffset:0; } }
svg.acjk path[clip-path] {
    --t:0.8s;
    animation:zk var(--t) linear forwards var(--d);
    stroke-dasharray:3337;
    stroke-dashoffset:3339;
    stroke-width:128;
    stroke-linecap:round;
    fill:none;
}
/* Low opacity for background improves visual overlap at intersections */
svg.acjk .bg { fill:#ccc; opacity: 0.5; } 
]]>
</style>
<defs>
    <clipPath id="z35492c1"><path d="M 287 154 C 302 165 316 179 333 194 C 343 203 355 206 368 205 C 375 204 381 198 384 188 C 386 176 383 158 375 137 C 370 126 358 116 338 110 C 290 95 261 94 252 101 C 248 103 245 110 249 120 C 251 129 266 139 287 154 Z"/></clipPath>
    <clipPath id="z35492c2"><path d="M 47 358 C 38 359 32 362 31 369 C 28 376 33 384 45 392 C 74 410 104 413 133 401 C 205 370 288 344 385 324 C 396 321 402 318 403 313 C 403 302 397 294 383 290 C 363 282 345 282 329 287 C 198 325 104 349 47 358 Z"/></clipPath>
    <clipPath id="z35492c3"><path d="M 200 449 C 179 453 176 464 193 471 C 220 481 254 478 292 467 C 312 461 333 456 355 450 C 365 446 372 443 374 442 C 379 436 379 430 376 426 C 371 419 359 415 341 413 C 324 411 295 420 252 437 C 236 443 218 444 200 449 Z"/></clipPath>
    <clipPath id="z35492c4"><path d="M 203 555 C 182 560 179 569 197 576 C 224 586 252 583 281 573 C 304 564 329 557 355 549 C 365 545 372 542 374 540 C 378 535 379 530 376 526 C 371 519 360 515 343 514 C 330 513 301 523 256 541 C 240 546 222 549 203 555 Z"/></clipPath>
    <clipPath id="z35492c5"><path d="M 182 667 C 175 664 164 661 148 660 C 126 657 129 673 136 685 C 154 717 171 760 184 814 C 187 829 193 842 203 853 C 216 867 223 869 227 858 C 228 851 231 841 229 829 C 227 818 225 807 223 797 C 212 740 205 705 205 692 C 205 681 193 671 182 667 Z"/></clipPath>
    <clipPath id="z35492c6"><path d="M 353 765 C 363 724 376 697 389 684 C 404 667 403 653 387 645 C 346 622 323 613 318 614 C 313 614 308 615 304 619 C 281 635 240 651 182 667 C 171 671 194 696 205 692 C 209 689 236 682 286 670 C 318 661 318 686 314 706 C 310 724 306 745 302 767 C 299 784 350 782 353 765 Z"/></clipPath>
    <clipPath id="z35492c7"><path d="M 229 829 C 269 815 315 803 369 794 C 393 782 375 772 353 765 C 337 759 318 761 302 767 C 273 777 247 787 223 797 C 213 800 219 833 229 829 Z"/></clipPath>
    <clipPath id="z35492c8"><path d="M 531 166 C 524 162 508 160 484 157 C 461 153 466 171 473 182 C 493 215 510 261 525 319 C 529 336 536 351 547 362 C 559 374 567 376 570 366 C 571 361 574 355 573 348 C 571 336 569 324 568 313 C 562 274 550 236 543 198 C 541 187 542 170 531 166 Z"/></clipPath>
    <clipPath id="z35492c9"><path d="M 743 287 C 763 235 786 204 807 187 C 819 176 820 160 810 151 C 792 133 773 124 757 117 C 718 97 706 109 684 121 C 645 141 592 152 531 166 C 520 168 532 202 543 198 C 557 193 606 181 691 162 C 716 156 724 170 720 191 C 711 225 701 255 691 282 C 685 298 737 303 743 287 Z"/></clipPath>
    <clipPath id="z35492c10"><path d="M 573 348 C 611 338 673 328 757 319 C 785 310 766 300 743 287 C 728 278 708 279 691 282 C 645 294 604 305 568 313 C 556 315 561 350 573 348 Z"/></clipPath>
    <clipPath id="z35492c11"><path d="M 728 400 C 680 415 599 441 492 455 C 444 461 452 477 487 492 C 507 500 543 485 579 479 C 611 473 611 473 627 470 C 672 461 733 449 776 447 C 841 443 849 428 805 403 C 780 389 755 390 728 400 Z"/></clipPath>
    <clipPath id="z35492c12"><path d="M 643 605 C 679 598 752 580 903 584 C 930 584 939 569 917 551 C 884 524 844 523 803 534 C 755 545 705 557 644 569 C 606 576 606 576 587 580 C 534 590 469 599 413 609 C 400 611 398 617 408 627 C 416 635 426 641 439 644 C 451 647 463 646 473 643 C 503 633 545 622 581 616 C 622 609 622 609 643 605 Z"/></clipPath>
    <clipPath id="z35492c13"><path d="M 579 479 C 587 499 595 529 587 580 C 583 604 583 604 581 616 C 558 751 463 816 363 871 C 347 879 350 884 369 883 C 529 867 606 740 631 629 C 640 589 640 589 644 569 C 662 485 678 489 627 470 C 612 464 573 464 579 479 Z"/></clipPath>
    <clipPath id="z35492c14"><path d="M 631 629 C 735 797 794 886 826 894 C 860 900 904 897 977 886 C 983 885 987 883 989 879 C 989 875 984 870 975 866 C 878 822 817 779 772 739 C 728 701 691 656 643 605 C 632 594 622 616 631 629 Z"/></clipPath>
</defs>
<g id="bg-layer">
    <path class="bg" d="M 287 154 C 302 165 316 179 333 194 C 343 203 355 206 368 205 C 375 204 381 198 384 188 C 386 176 383 158 375 137 C 370 126 358 116 338 110 C 290 95 261 94 252 101 C 248 103 245 110 249 120 C 251 129 266 139 287 154 Z"/>
    <path class="bg" d="M 47 358 C 38 359 32 362 31 369 C 28 376 33 384 45 392 C 74 410 104 413 133 401 C 205 370 288 344 385 324 C 396 321 402 318 403 313 C 403 302 397 294 383 290 C 363 282 345 282 329 287 C 198 325 104 349 47 358 Z"/>
    <path class="bg" d="M 200 449 C 179 453 176 464 193 471 C 220 481 254 478 292 467 C 312 461 333 456 355 450 C 365 446 372 443 374 442 C 379 436 379 430 376 426 C 371 419 359 415 341 413 C 324 411 295 420 252 437 C 236 443 218 444 200 449 Z"/>
    <path class="bg" d="M 203 555 C 182 560 179 569 197 576 C 224 586 252 583 281 573 C 304 564 329 557 355 549 C 365 545 372 542 374 540 C 378 535 379 530 376 526 C 371 519 360 515 343 514 C 330 513 301 523 256 541 C 240 546 222 549 203 555 Z"/>
    <path class="bg" d="M 182 667 C 175 664 164 661 148 660 C 126 657 129 673 136 685 C 154 717 171 760 184 814 C 187 829 193 842 203 853 C 216 867 223 869 227 858 C 228 851 231 841 229 829 C 227 818 225 807 223 797 C 212 740 205 705 205 692 C 205 681 193 671 182 667 Z"/>
    <path class="bg" d="M 353 765 C 363 724 376 697 389 684 C 404 667 403 653 387 645 C 346 622 323 613 318 614 C 313 614 308 615 304 619 C 281 635 240 651 182 667 C 171 671 194 696 205 692 C 209 689 236 682 286 670 C 318 661 318 686 314 706 C 310 724 306 745 302 767 C 299 784 350 782 353 765 Z"/>
    <path class="bg" d="M 229 829 C 269 815 315 803 369 794 C 393 782 375 772 353 765 C 337 759 318 761 302 767 C 273 777 247 787 223 797 C 213 800 219 833 229 829 Z"/>
    <path class="bg" d="M 531 166 C 524 162 508 160 484 157 C 461 153 466 171 473 182 C 493 215 510 261 525 319 C 529 336 536 351 547 362 C 559 374 567 376 570 366 C 571 361 574 355 573 348 C 571 336 569 324 568 313 C 562 274 550 236 543 198 C 541 187 542 170 531 166 Z"/>
    <path class="bg" d="M 743 287 C 763 235 786 204 807 187 C 819 176 820 160 810 151 C 792 133 773 124 757 117 C 718 97 706 109 684 121 C 645 141 592 152 531 166 C 520 168 532 202 543 198 C 557 193 606 181 691 162 C 716 156 724 170 720 191 C 711 225 701 255 691 282 C 685 298 737 303 743 287 Z"/>
    <path class="bg" d="M 573 348 C 611 338 673 328 757 319 C 785 310 766 300 743 287 C 728 278 708 279 691 282 C 645 294 604 305 568 313 C 556 315 561 350 573 348 Z"/>
    <path class="bg" d="M 728 400 C 680 415 599 441 492 455 C 444 461 452 477 487 492 C 507 500 543 485 579 479 C 611 473 611 473 627 470 C 672 461 733 449 776 447 C 841 443 849 428 805 403 C 780 389 755 390 728 400 Z"/>
    <path class="bg" d="M 643 605 C 679 598 752 580 903 584 C 930 584 939 569 917 551 C 884 524 844 523 803 534 C 755 545 705 557 644 569 C 606 576 606 576 587 580 C 534 590 469 599 413 609 C 400 611 398 617 408 627 C 416 635 426 641 439 644 C 451 647 463 646 473 643 C 503 633 545 622 581 616 C 622 609 622 609 643 605 Z"/>
    <path class="bg" d="M 579 479 C 587 499 595 529 587 580 C 583 604 583 604 581 616 C 558 751 463 816 363 871 C 347 879 350 884 369 883 C 529 867 606 740 631 629 C 640 589 640 589 644 569 C 662 485 678 489 627 470 C 612 464 573 464 579 479 Z"/>
    <path class="bg" d="M 631 629 C 735 797 794 886 826 894 C 860 900 904 897 977 886 C 983 885 987 883 989 879 C 989 875 984 870 975 866 C 878 822 817 779 772 739 C 728 701 691 656 643 605 C 632 594 622 616 631 629 Z"/>
</g>
<g id="anim-layer">
    <path style="--d:1s; stroke:#FF4444;" pathLength="3333" clip-path="url(#z35492c1)" d="M 252 109 L 343 153 L 370 200"/>
    <path style="--d:2s; stroke:#FF4444;" pathLength="3333" clip-path="url(#z35492c2)" d="M 35 373 L 105 377 L 398 307"/>
    <path style="--d:3s; stroke:#FF4444;" pathLength="3333" clip-path="url(#z35492c3)" d="M 189 457 L 372 427"/>
    <path style="--d:4s; stroke:#FF4444;" pathLength="3333" clip-path="url(#z35492c4)" d="M 190 566 L 372 533"/>
    <path style="--d:5s; stroke:#FF4444;" pathLength="3333" clip-path="url(#z35492c5)" d="M 138 667 L 175 695 L 219 858"/>
    <path style="--d:6s; stroke:#FF4444;" pathLength="3333" clip-path="url(#z35492c6)" d="M 184 674 L 308 642 L 344 657 L 356 680 L 317 776"/>
    <path style="--d:7s; stroke:#FF4444;" pathLength="3333" clip-path="url(#z35492c7)" d="M 222 822 L 326 781 L 374 787"/>
    <path style="--d:8s; stroke:#000;" pathLength="3333" clip-path="url(#z35492c8)" d="M 474 164 L 510 185 L 561 366"/>
    <path style="--d:9s; stroke:#000;" pathLength="3333" clip-path="url(#z35492c9)" d="M 530 176 L 716 134 L 744 146 L 769 173 L 704 293"/>
    <path style="--d:10s; stroke:#000;" pathLength="3333" clip-path="url(#z35492c10)" d="M 566 337 L 696 303 L 765 307"/>
    <path style="--d:11s; stroke:#000;" pathLength="3333" clip-path="url(#z35492c11)" d="M 466 469 L 825 426"/>
    <path style="--d:12s; stroke:#000;" pathLength="3333" clip-path="url(#z35492c12)" d="M 411 617 L 809 558 L 925 566"/>
    <path style="--d:13s; stroke:#000;" pathLength="3333" clip-path="url(#z35492c13)" d="M 586 476 L 625 505 L 570 723 L 489 816 L 363 877"/>
    <path style="--d:14s; stroke:#000;" pathLength="3333" clip-path="url(#z35492c14)" d="M 637 606 L 828 841 L 979 876"/>
</g>
</svg>