<svg id="z35500" class="acjk" viewBox="0 0 1024 1024" xmlns="http://www.w3.org/2000/svg">

<style>
<![CDATA[
@keyframes zk { to { stroke-dashoffset:0; } }
svg.acjk path[clip-path] {
    --t:0.8s;
    animation:zk var(--t) linear forwards var(--d);
    stroke-dasharray:3337;
    stroke-dashoffset:3339;
    stroke-width:128;
    stroke-linecap:round;
    fill:none;
}
/* Low opacity for background improves visual overlap at intersections */
svg.acjk .bg { fill:#ccc; opacity: 0.5; } 
]]>
</style>
<defs>
    <clipPath id="z35500c1"><path d="M 288 130 Q 324 155 361 185 Q 377 198 393 196 Q 405 195 409 180 Q 412 164 400 133 Q 393 111 355 97 Q 268 72 256 81 Q 252 85 254 99 Q 258 109 288 130 Z"/></clipPath>
    <clipPath id="z35500c2"><path d="M 52 342 Q 39 343 36 353 Q 32 363 49 376 Q 91 404 137 388 Q 273 337 436 308 Q 454 305 454 297 Q 455 282 435 274 Q 407 262 382 269 Q 148 329 52 342 Z"/></clipPath>
    <clipPath id="z35500c3"><path d="M 213 437 Q 180 446 206 459 Q 246 478 295 461 C 344 448 344 448 369 441 Q 387 437 389 434 Q 396 427 392 418 Q 385 408 357 404 Q 339 403 266 426 Q 242 433 213 437 Z"/></clipPath>
    <clipPath id="z35500c4"><path d="M 206 545 Q 173 552 198 567 Q 234 582 310 565 Q 388 544 393 542 Q 400 535 395 527 Q 388 517 361 511 Q 333 508 307 520 Q 285 529 262 535 Q 237 542 206 545 Z"/></clipPath>
    <clipPath id="z35500c5"><path d="M 199 666 Q 187 660 156 656 Q 144 653 141 658 Q 134 665 144 681 Q 172 735 191 824 Q 195 852 212 869 Q 230 891 235 874 Q 242 855 234 816 Q 233 815 233 814 C 230 794 230 794 228 784 Q 215 714 212 692 C 210 682 208 670 199 666 Z"/></clipPath>
    <clipPath id="z35500c6"><path d="M 382 753 Q 401 692 421 676 Q 442 652 420 639 Q 402 629 377 612 Q 361 602 342 612 Q 300 642 199 666 C 189 668 203 695 212 692 Q 272 673 314 660 Q 344 653 351 663 Q 354 666 334 751 C 331 767 376 768 382 753 Z"/></clipPath>
    <clipPath id="z35500c7"><path d="M 233 814 Q 240 815 253 811 Q 296 798 395 781 Q 405 780 405 771 Q 405 764 382 753 C 367 747 350 748 334 751 C 333 751 333 751 332 751 Q 274 772 228 784 C 218 786 223 814 233 814 Z"/></clipPath>
    <clipPath id="z35500c8"><path d="M 507 196 Q 541 247 575 267 Q 588 271 599 259 Q 606 247 605 231 Q 598 192 523 160 Q 507 153 498 156 Q 492 157 493 169 Q 494 181 507 196 Z"/></clipPath>
    <clipPath id="z35500c9"><path d="M 739 147 Q 729 166 650 277 Q 640 295 658 290 Q 709 253 785 188 Q 803 170 827 159 Q 848 146 835 130 Q 820 114 793 101 Q 768 88 755 92 Q 742 95 748 108 Q 752 127 739 147 Z"/></clipPath>
    <clipPath id="z35500c10"><path d="M 513 361 Q 501 355 471 352 Q 458 349 455 355 Q 448 362 458 378 Q 486 427 506 509 Q 510 533 526 549 Q 547 571 551 554 Q 552 547 554 538 C 556 528 553 518 551 508 Q 550 505 531 392 C 529 380 524 365 513 361 Z"/></clipPath>
    <clipPath id="z35500c11"><path d="M 754 485 Q 785 406 818 384 Q 837 365 821 345 Q 736 281 686 313 Q 620 337 513 361 C 501 363 520 396 531 392 Q 537 389 693 353 Q 711 349 719 355 Q 728 365 724 383 Q 711 432 697 474 C 690 492 747 503 754 485 Z"/></clipPath>
    <clipPath id="z35500c12"><path d="M 672 522 Q 708 516 757 511 Q 767 510 768 500 Q 768 494 754 485 C 737 475 716 474 697 474 Q 694 473 691 474 Q 612 498 551 508 C 541 510 545 534 554 538 Q 566 544 584 538 Q 606 531 643 526 C 662 523 662 523 672 522 Z"/></clipPath>
    <clipPath id="z35500c13"><path d="M 549 582 Q 561 639 470 755 Q 467 756 466 759 Q 441 790 373 853 Q 366 857 375 860 Q 426 860 521 757 Q 522 754 526 752 Q 559 715 610 638 Q 617 628 621 623 Q 628 619 627 609 Q 626 600 614 590 Q 586 565 555 569 Q 548 570 549 582 Z"/></clipPath>
    <clipPath id="z35500c14"><path d="M 643 526 Q 642 530 646 543 Q 658 583 653 622 Q 640 778 651 822 Q 654 843 673 861 Q 746 922 905 894 Q 908 893 911 893 Q 948 883 984 860 Q 1005 842 989 813 Q 974 786 950 704 Q 949 686 941 682 Q 934 678 930 698 Q 905 789 887 816 Q 877 828 848 835 Q 779 850 727 827 Q 706 817 701 803 Q 677 751 713 573 Q 720 540 672 522 C 663 518 643 516 643 526 Z"/></clipPath>
</defs>
<g id="bg-layer">
    <path class="bg" d="M 288 130 Q 324 155 361 185 Q 377 198 393 196 Q 405 195 409 180 Q 412 164 400 133 Q 393 111 355 97 Q 268 72 256 81 Q 252 85 254 99 Q 258 109 288 130 Z"/>
    <path class="bg" d="M 52 342 Q 39 343 36 353 Q 32 363 49 376 Q 91 404 137 388 Q 273 337 436 308 Q 454 305 454 297 Q 455 282 435 274 Q 407 262 382 269 Q 148 329 52 342 Z"/>
    <path class="bg" d="M 213 437 Q 180 446 206 459 Q 246 478 295 461 C 344 448 344 448 369 441 Q 387 437 389 434 Q 396 427 392 418 Q 385 408 357 404 Q 339 403 266 426 Q 242 433 213 437 Z"/>
    <path class="bg" d="M 206 545 Q 173 552 198 567 Q 234 582 310 565 Q 388 544 393 542 Q 400 535 395 527 Q 388 517 361 511 Q 333 508 307 520 Q 285 529 262 535 Q 237 542 206 545 Z"/>
    <path class="bg" d="M 199 666 Q 187 660 156 656 Q 144 653 141 658 Q 134 665 144 681 Q 172 735 191 824 Q 195 852 212 869 Q 230 891 235 874 Q 242 855 234 816 Q 233 815 233 814 C 230 794 230 794 228 784 Q 215 714 212 692 C 210 682 208 670 199 666 Z"/>
    <path class="bg" d="M 382 753 Q 401 692 421 676 Q 442 652 420 639 Q 402 629 377 612 Q 361 602 342 612 Q 300 642 199 666 C 189 668 203 695 212 692 Q 272 673 314 660 Q 344 653 351 663 Q 354 666 334 751 C 331 767 376 768 382 753 Z"/>
    <path class="bg" d="M 233 814 Q 240 815 253 811 Q 296 798 395 781 Q 405 780 405 771 Q 405 764 382 753 C 367 747 350 748 334 751 C 333 751 333 751 332 751 Q 274 772 228 784 C 218 786 223 814 233 814 Z"/>
    <path class="bg" d="M 507 196 Q 541 247 575 267 Q 588 271 599 259 Q 606 247 605 231 Q 598 192 523 160 Q 507 153 498 156 Q 492 157 493 169 Q 494 181 507 196 Z"/>
    <path class="bg" d="M 739 147 Q 729 166 650 277 Q 640 295 658 290 Q 709 253 785 188 Q 803 170 827 159 Q 848 146 835 130 Q 820 114 793 101 Q 768 88 755 92 Q 742 95 748 108 Q 752 127 739 147 Z"/>
    <path class="bg" d="M 513 361 Q 501 355 471 352 Q 458 349 455 355 Q 448 362 458 378 Q 486 427 506 509 Q 510 533 526 549 Q 547 571 551 554 Q 552 547 554 538 C 556 528 553 518 551 508 Q 550 505 531 392 C 529 380 524 365 513 361 Z"/>
    <path class="bg" d="M 754 485 Q 785 406 818 384 Q 837 365 821 345 Q 736 281 686 313 Q 620 337 513 361 C 501 363 520 396 531 392 Q 537 389 693 353 Q 711 349 719 355 Q 728 365 724 383 Q 711 432 697 474 C 690 492 747 503 754 485 Z"/>
    <path class="bg" d="M 672 522 Q 708 516 757 511 Q 767 510 768 500 Q 768 494 754 485 C 737 475 716 474 697 474 Q 694 473 691 474 Q 612 498 551 508 C 541 510 545 534 554 538 Q 566 544 584 538 Q 606 531 643 526 C 662 523 662 523 672 522 Z"/>
    <path class="bg" d="M 549 582 Q 561 639 470 755 Q 467 756 466 759 Q 441 790 373 853 Q 366 857 375 860 Q 426 860 521 757 Q 522 754 526 752 Q 559 715 610 638 Q 617 628 621 623 Q 628 619 627 609 Q 626 600 614 590 Q 586 565 555 569 Q 548 570 549 582 Z"/>
    <path class="bg" d="M 643 526 Q 642 530 646 543 Q 658 583 653 622 Q 640 778 651 822 Q 654 843 673 861 Q 746 922 905 894 Q 908 893 911 893 Q 948 883 984 860 Q 1005 842 989 813 Q 974 786 950 704 Q 949 686 941 682 Q 934 678 930 698 Q 905 789 887 816 Q 877 828 848 835 Q 779 850 727 827 Q 706 817 701 803 Q 677 751 713 573 Q 720 540 672 522 C 663 518 643 516 643 526 Z"/>
</g>
<g id="anim-layer">
    <path style="--d:1s; stroke:#FF4444;" pathLength="3333" clip-path="url(#z35500c1)" d="M 261 89 L 351 132 L 403 185"/>
    <path style="--d:2s; stroke:#FF4444;" pathLength="3333" clip-path="url(#z35500c2)" d="M 39 356 L 110 363 L 450 293"/>
    <path style="--d:3s; stroke:#FF4444;" pathLength="3333" clip-path="url(#z35500c3)" d="M 202 446 L 386 424"/>
    <path style="--d:4s; stroke:#FF4444;" pathLength="3333" clip-path="url(#z35500c4)" d="M 194 554 L 389 532"/>
    <path style="--d:5s; stroke:#FF4444;" pathLength="3333" clip-path="url(#z35500c5)" d="M 145 661 L 179 684 L 225 876"/>
    <path style="--d:6s; stroke:#FF4444;" pathLength="3333" clip-path="url(#z35500c6)" d="M 200 676 L 363 637 L 390 664 L 347 760"/>
    <path style="--d:7s; stroke:#FF4444;" pathLength="3333" clip-path="url(#z35500c7)" d="M 227 800 L 400 771"/>
    <path style="--d:8s; stroke:#000;" pathLength="3333" clip-path="url(#z35500c8)" d="M 500 160 L 591 261"/>
    <path style="--d:9s; stroke:#000;" pathLength="3333" clip-path="url(#z35500c9)" d="M 754 101 L 782 158 L 655 283"/>
    <path style="--d:10s; stroke:#000;" pathLength="3333" clip-path="url(#z35500c10)" d="M 461 356 L 500 391 L 543 556"/>
    <path style="--d:11s; stroke:#000;" pathLength="3333" clip-path="url(#z35500c11)" d="M 516 367 L 704 328 L 749 338 L 776 370 L 715 490"/>
    <path style="--d:12s; stroke:#000;" pathLength="3333" clip-path="url(#z35500c12)" d="M 550 523 L 762 500"/>
    <path style="--d:13s; stroke:#000;" pathLength="3333" clip-path="url(#z35500c13)" d="M 557 578 L 586 621 L 548 684 L 380 856"/>
    <path style="--d:14s; stroke:#000;" pathLength="3333" clip-path="url(#z35500c14)" d="M 650 528 L 684 574 L 673 805 L 713 853 L 812 872 L 922 845 L 948 813 L 937 689"/>
</g>
</svg>