<svg id="z35506" class="acjk" viewBox="0 0 1024 1024" xmlns="http://www.w3.org/2000/svg">

<style>
<![CDATA[
@keyframes zk { to { stroke-dashoffset:0; } }
svg.acjk path[clip-path] {
    --t:0.8s;
    animation:zk var(--t) linear forwards var(--d);
    stroke-dasharray:3337;
    stroke-dashoffset:3339;
    stroke-width:128;
    stroke-linecap:round;
    fill:none;
}
/* Low opacity for background improves visual overlap at intersections */
svg.acjk .bg { fill:#ccc; opacity: 0.5; } 
]]>
</style>
<defs>
    <clipPath id="z35506c1"><path d="M 287 97 C 305 115 323 133 341 151 C 350 160 360 165 372 165 C 378 164 385 160 389 151 C 392 141 391 124 386 104 C 380 80 344 62 283 47 C 271 44 264 42 260 45 C 255 47 254 52 256 62 C 257 69 270 80 287 97 Z"/></clipPath>
    <clipPath id="z35506c2"><path d="M 47 291 C 38 292 32 296 31 302 C 28 308 32 316 45 324 C 69 339 102 342 138 330 C 204 305 286 280 386 259 C 396 256 402 252 403 248 C 403 239 396 231 384 226 C 364 218 348 218 332 223 C 197 259 102 281 47 291 Z"/></clipPath>
    <clipPath id="z35506c3"><path d="M 198 380 C 176 386 174 397 193 403 C 216 410 250 407 290 394 C 305 389 321 382 340 377 C 348 374 353 371 355 370 C 359 363 360 357 357 354 C 351 346 339 343 321 343 C 307 342 280 352 239 369 C 226 374 212 375 198 380 Z"/></clipPath>
    <clipPath id="z35506c4"><path d="M 187 487 C 166 492 164 499 181 507 C 200 516 232 515 274 503 C 292 497 313 490 336 484 C 346 481 352 478 354 476 C 358 470 358 466 356 462 C 350 455 340 450 323 449 C 305 447 277 458 238 474 C 222 480 204 482 187 487 Z"/></clipPath>
    <clipPath id="z35506c5"><path d="M 153 610 C 144 607 133 606 121 604 C 112 602 109 603 107 606 C 103 611 104 617 109 627 C 128 664 144 714 156 776 C 159 794 165 809 176 821 C 188 834 201 799 196 765 C 192 742 192 742 190 730 C 184 700 173 650 174 634 C 174 623 163 612 153 610 Z"/></clipPath>
    <clipPath id="z35506c6"><path d="M 328 703 C 338 662 350 636 362 623 C 376 606 375 593 360 585 C 347 578 332 569 314 559 C 302 552 289 552 278 561 C 251 579 210 596 153 610 C 143 612 164 638 174 634 C 204 624 231 615 256 609 C 272 604 281 606 287 612 C 290 615 291 625 288 644 C 284 660 282 678 279 698 C 276 714 325 719 328 703 Z"/></clipPath>
    <clipPath id="z35506c7"><path d="M 196 765 C 262 748 310 737 340 732 C 346 730 350 726 350 720 C 350 715 342 709 328 703 C 313 697 294 692 279 698 C 265 702 214 721 190 730 C 179 734 184 767 196 765 Z"/></clipPath>
    <clipPath id="z35506c8"><path d="M 474 180 C 467 177 456 174 442 171 C 434 169 429 169 427 173 C 422 177 422 184 428 194 C 448 240 463 301 472 376 C 474 398 481 417 493 433 C 503 446 511 449 515 439 C 516 434 518 428 518 421 C 518 400 518 400 518 389 C 518 381 515 370 514 363 C 507 310 495 235 493 212 C 492 211 492 211 494 211 C 497 199 485 185 474 180 Z"/></clipPath>
    <clipPath id="z35506c9"><path d="M 717 394 C 727 410 738 420 748 427 C 754 432 764 429 775 414 C 786 397 801 342 826 251 C 831 230 843 211 860 195 C 868 186 869 177 862 168 C 851 156 832 142 804 124 C 789 115 762 120 722 131 C 700 136 643 146 569 160 C 533 166 502 174 474 180 C 462 182 482 215 494 211 C 516 204 544 196 578 190 C 607 184 607 184 622 181 C 705 164 753 160 765 169 C 773 175 776 186 774 201 C 756 295 740 348 727 362 C 720 371 710 385 717 394 Z"/></clipPath>
    <clipPath id="z35506c10"><path d="M 637 294 C 659 288 682 284 705 280 C 719 277 722 270 717 263 C 709 254 698 248 682 247 C 671 246 657 247 640 254 C 608 266 608 266 592 272 C 572 279 554 285 538 291 C 527 294 526 305 542 309 C 558 313 577 307 594 304 C 623 297 623 297 637 294 Z"/></clipPath>
    <clipPath id="z35506c11"><path d="M 632 403 C 655 399 684 397 717 394 C 728 394 737 368 727 362 C 717 352 685 353 633 366 C 608 372 608 372 595 375 C 568 381 542 384 518 389 C 507 391 508 423 518 421 C 528 420 567 411 595 408 C 620 405 620 405 632 403 Z"/></clipPath>
    <clipPath id="z35506c12"><path d="M 631 539 C 689 530 763 522 854 522 C 890 521 912 520 916 513 C 919 505 915 496 905 489 C 873 465 845 457 821 463 C 774 473 711 487 631 502 C 605 507 605 507 592 509 C 529 520 462 527 391 539 C 378 541 376 547 386 557 C 394 565 404 571 417 574 C 428 576 441 576 451 574 C 485 563 520 555 558 550 C 607 543 607 543 631 539 Z"/></clipPath>
    <clipPath id="z35506c13"><path d="M 631 502 C 631 469 631 436 632 403 C 633 378 633 378 633 366 C 633 339 635 315 637 294 C 639 267 639 267 640 254 C 641 231 646 210 643 202 C 640 193 628 186 622 181 C 609 173 572 176 578 190 C 586 206 589 227 592 272 C 593 293 593 293 594 304 C 595 326 595 349 595 375 C 595 397 595 397 595 408 C 595 438 593 472 592 509 C 589 566 589 566 588 594 C 581 738 568 821 561 848 C 553 875 564 902 586 942 C 593 954 601 965 608 967 C 615 969 622 963 626 954 C 634 931 635 909 635 888 C 630 777 631 673 631 575 C 631 551 631 551 631 539 C 631 514 631 514 631 502 Z"/></clipPath>
    <clipPath id="z35506c14"><path d="M 558 550 C 536 620 458 705 325 805 C 315 813 315 817 325 818 C 345 820 384 801 443 761 C 465 745 498 713 540 665 C 560 640 576 615 588 593 C 613 552 576 506 558 550 Z"/></clipPath>
    <clipPath id="z35506c15"><path d="M 631 575 C 673 631 718 684 767 736 C 783 752 804 761 832 763 C 882 765 933 762 985 752 C 997 751 1005 749 1006 745 C 1008 740 1004 735 993 731 C 871 691 787 655 743 625 C 723 612 704 598 686 584 C 660 563 642 547 631 539 C 621 532 624 565 631 575 Z"/></clipPath>
</defs>
<g id="bg-layer">
    <path class="bg" d="M 287 97 C 305 115 323 133 341 151 C 350 160 360 165 372 165 C 378 164 385 160 389 151 C 392 141 391 124 386 104 C 380 80 344 62 283 47 C 271 44 264 42 260 45 C 255 47 254 52 256 62 C 257 69 270 80 287 97 Z"/>
    <path class="bg" d="M 47 291 C 38 292 32 296 31 302 C 28 308 32 316 45 324 C 69 339 102 342 138 330 C 204 305 286 280 386 259 C 396 256 402 252 403 248 C 403 239 396 231 384 226 C 364 218 348 218 332 223 C 197 259 102 281 47 291 Z"/>
    <path class="bg" d="M 198 380 C 176 386 174 397 193 403 C 216 410 250 407 290 394 C 305 389 321 382 340 377 C 348 374 353 371 355 370 C 359 363 360 357 357 354 C 351 346 339 343 321 343 C 307 342 280 352 239 369 C 226 374 212 375 198 380 Z"/>
    <path class="bg" d="M 187 487 C 166 492 164 499 181 507 C 200 516 232 515 274 503 C 292 497 313 490 336 484 C 346 481 352 478 354 476 C 358 470 358 466 356 462 C 350 455 340 450 323 449 C 305 447 277 458 238 474 C 222 480 204 482 187 487 Z"/>
    <path class="bg" d="M 153 610 C 144 607 133 606 121 604 C 112 602 109 603 107 606 C 103 611 104 617 109 627 C 128 664 144 714 156 776 C 159 794 165 809 176 821 C 188 834 201 799 196 765 C 192 742 192 742 190 730 C 184 700 173 650 174 634 C 174 623 163 612 153 610 Z"/>
    <path class="bg" d="M 328 703 C 338 662 350 636 362 623 C 376 606 375 593 360 585 C 347 578 332 569 314 559 C 302 552 289 552 278 561 C 251 579 210 596 153 610 C 143 612 164 638 174 634 C 204 624 231 615 256 609 C 272 604 281 606 287 612 C 290 615 291 625 288 644 C 284 660 282 678 279 698 C 276 714 325 719 328 703 Z"/>
    <path class="bg" d="M 196 765 C 262 748 310 737 340 732 C 346 730 350 726 350 720 C 350 715 342 709 328 703 C 313 697 294 692 279 698 C 265 702 214 721 190 730 C 179 734 184 767 196 765 Z"/>
    <path class="bg" d="M 474 180 C 467 177 456 174 442 171 C 434 169 429 169 427 173 C 422 177 422 184 428 194 C 448 240 463 301 472 376 C 474 398 481 417 493 433 C 503 446 511 449 515 439 C 516 434 518 428 518 421 C 518 400 518 400 518 389 C 518 381 515 370 514 363 C 507 310 495 235 493 212 C 492 211 492 211 494 211 C 497 199 485 185 474 180 Z"/>
    <path class="bg" d="M 717 394 C 727 410 738 420 748 427 C 754 432 764 429 775 414 C 786 397 801 342 826 251 C 831 230 843 211 860 195 C 868 186 869 177 862 168 C 851 156 832 142 804 124 C 789 115 762 120 722 131 C 700 136 643 146 569 160 C 533 166 502 174 474 180 C 462 182 482 215 494 211 C 516 204 544 196 578 190 C 607 184 607 184 622 181 C 705 164 753 160 765 169 C 773 175 776 186 774 201 C 756 295 740 348 727 362 C 720 371 710 385 717 394 Z"/>
    <path class="bg" d="M 637 294 C 659 288 682 284 705 280 C 719 277 722 270 717 263 C 709 254 698 248 682 247 C 671 246 657 247 640 254 C 608 266 608 266 592 272 C 572 279 554 285 538 291 C 527 294 526 305 542 309 C 558 313 577 307 594 304 C 623 297 623 297 637 294 Z"/>
    <path class="bg" d="M 632 403 C 655 399 684 397 717 394 C 728 394 737 368 727 362 C 717 352 685 353 633 366 C 608 372 608 372 595 375 C 568 381 542 384 518 389 C 507 391 508 423 518 421 C 528 420 567 411 595 408 C 620 405 620 405 632 403 Z"/>
    <path class="bg" d="M 631 539 C 689 530 763 522 854 522 C 890 521 912 520 916 513 C 919 505 915 496 905 489 C 873 465 845 457 821 463 C 774 473 711 487 631 502 C 605 507 605 507 592 509 C 529 520 462 527 391 539 C 378 541 376 547 386 557 C 394 565 404 571 417 574 C 428 576 441 576 451 574 C 485 563 520 555 558 550 C 607 543 607 543 631 539 Z"/>
    <path class="bg" d="M 631 502 C 631 469 631 436 632 403 C 633 378 633 378 633 366 C 633 339 635 315 637 294 C 639 267 639 267 640 254 C 641 231 646 210 643 202 C 640 193 628 186 622 181 C 609 173 572 176 578 190 C 586 206 589 227 592 272 C 593 293 593 293 594 304 C 595 326 595 349 595 375 C 595 397 595 397 595 408 C 595 438 593 472 592 509 C 589 566 589 566 588 594 C 581 738 568 821 561 848 C 553 875 564 902 586 942 C 593 954 601 965 608 967 C 615 969 622 963 626 954 C 634 931 635 909 635 888 C 630 777 631 673 631 575 C 631 551 631 551 631 539 C 631 514 631 514 631 502 Z"/>
    <path class="bg" d="M 558 550 C 536 620 458 705 325 805 C 315 813 315 817 325 818 C 345 820 384 801 443 761 C 465 745 498 713 540 665 C 560 640 576 615 588 593 C 613 552 576 506 558 550 Z"/>
    <path class="bg" d="M 631 575 C 673 631 718 684 767 736 C 783 752 804 761 832 763 C 882 765 933 762 985 752 C 997 751 1005 749 1006 745 C 1008 740 1004 735 993 731 C 871 691 787 655 743 625 C 723 612 704 598 686 584 C 660 563 642 547 631 539 C 621 532 624 565 631 575 Z"/>
</g>
<g id="anim-layer">
    <path style="--d:1s; stroke:#FF4444;" pathLength="3333" clip-path="url(#z35506c1)" d="M 260 55 L 342 104 L 380 157"/>
    <path style="--d:2s; stroke:#FF4444;" pathLength="3333" clip-path="url(#z35506c2)" d="M 34 304 L 101 309 L 397 245"/>
    <path style="--d:3s; stroke:#FF4444;" pathLength="3333" clip-path="url(#z35506c3)" d="M 189 392 L 353 358"/>
    <path style="--d:4s; stroke:#FF4444;" pathLength="3333" clip-path="url(#z35506c4)" d="M 177 496 L 352 466"/>
    <path style="--d:5s; stroke:#FF4444;" pathLength="3333" clip-path="url(#z35506c5)" d="M 112 611 L 147 641 L 181 818"/>
    <path style="--d:6s; stroke:#FF4444;" pathLength="3333" clip-path="url(#z35506c6)" d="M 159 616 L 290 580 L 322 598 L 298 710"/>
    <path style="--d:7s; stroke:#FF4444;" pathLength="3333" clip-path="url(#z35506c7)" d="M 192 757 L 287 719 L 345 720"/>
    <path style="--d:8s; stroke:#000;" pathLength="3333" clip-path="url(#z35506c8)" d="M 430 175 L 465 211 L 502 436"/>
    <path style="--d:9s; stroke:#000;" pathLength="3333" clip-path="url(#z35506c9)" d="M 478 187 L 791 151 L 820 189 L 740 419"/>
    <path style="--d:10s; stroke:#000;" pathLength="3333" clip-path="url(#z35506c10)" d="M 538 298 L 712 269"/>
    <path style="--d:11s; stroke:#000;" pathLength="3333" clip-path="url(#z35506c11)" d="M 515 411 L 727 374"/>
    <path style="--d:12s; stroke:#000;" pathLength="3333" clip-path="url(#z35506c12)" d="M 388 547 L 828 492 L 913 503"/>
    <path style="--d:13s; stroke:#000;" pathLength="3333" clip-path="url(#z35506c13)" d="M 584 183 L 615 213 L 596 857 L 610 962"/>
    <path style="--d:14s; stroke:#000;" pathLength="3333" clip-path="url(#z35506c14)" d="M 575 539 L 565 590 L 489 691 L 325 810"/>
    <path style="--d:15s; stroke:#000;" pathLength="3333" clip-path="url(#z35506c15)" d="M 631 549 L 804 709 L 998 741"/>
</g>
</svg>