<svg id="z35745" class="acjk" viewBox="0 0 1024 1024" xmlns="http://www.w3.org/2000/svg">

<style>
<![CDATA[
@keyframes zk { to { stroke-dashoffset:0; } }
svg.acjk path[clip-path] {
    --t:0.8s;
    animation:zk var(--t) linear forwards var(--d);
    stroke-dasharray:3337;
    stroke-dashoffset:3339;
    stroke-width:128;
    stroke-linecap:round;
    fill:none;
}
/* Low opacity for background improves visual overlap at intersections */
svg.acjk .bg { fill:#ccc; opacity: 0.5; } 
]]>
</style>
<defs>
    <clipPath id="z35745c1"><path d="M 342 135 Q 382 165 425 200 Q 441 213 459 212 Q 472 211 476 196 Q 480 178 469 145 Q 454 105 333 80 Q 315 77 308 80 Q 302 86 305 100 Q 309 113 342 135 Z"/></clipPath>
    <clipPath id="z35745c2"><path d="M 162 374 Q 107 389 79 390 Q 63 389 60 397 Q 56 406 67 414 Q 106 441 147 428 Q 202 407 254 383 Q 285 370 295 378 Q 307 385 299 416 Q 299 461 297 505 Q 297 632 263 750 Q 245 781 292 838 Q 302 851 314 844 Q 321 837 334 811 Q 371 763 447 682 Q 460 669 458 662 Q 457 653 444 663 Q 410 682 377 705 Q 325 748 334 684 Q 333 608 357 423 Q 361 398 385 373 Q 398 361 388 348 Q 376 330 335 312 Q 322 305 304 317 Q 213 360 162 374 Z"/></clipPath>
    <clipPath id="z35745c3"><path d="M 720 437 Q 817 428 935 427 Q 956 426 960 417 Q 966 405 948 391 Q 888 349 824 369 Q 779 378 721 391 C 682 398 682 398 663 402 Q 561 418 444 437 Q 422 440 439 457 Q 475 487 521 473 Q 587 454 663 445 C 701 440 701 440 720 437 Z"/></clipPath>
    <clipPath id="z35745c4"><path d="M 663 445 Q 663 650 659 717 Q 656 886 676 920 Q 691 936 700 914 Q 718 875 719 464 Q 719 449 720 437 C 721 406 721 406 721 391 Q 722 184 743 153 Q 750 126 733 113 Q 708 94 663 81 Q 642 77 629 91 Q 619 98 632 112 Q 660 136 662 170 Q 663 252 663 402 C 663 431 663 431 663 445 Z"/></clipPath>
</defs>
<g id="bg-layer">
    <path class="bg" d="M 342 135 Q 382 165 425 200 Q 441 213 459 212 Q 472 211 476 196 Q 480 178 469 145 Q 454 105 333 80 Q 315 77 308 80 Q 302 86 305 100 Q 309 113 342 135 Z"/>
    <path class="bg" d="M 162 374 Q 107 389 79 390 Q 63 389 60 397 Q 56 406 67 414 Q 106 441 147 428 Q 202 407 254 383 Q 285 370 295 378 Q 307 385 299 416 Q 299 461 297 505 Q 297 632 263 750 Q 245 781 292 838 Q 302 851 314 844 Q 321 837 334 811 Q 371 763 447 682 Q 460 669 458 662 Q 457 653 444 663 Q 410 682 377 705 Q 325 748 334 684 Q 333 608 357 423 Q 361 398 385 373 Q 398 361 388 348 Q 376 330 335 312 Q 322 305 304 317 Q 213 360 162 374 Z"/>
    <path class="bg" d="M 720 437 Q 817 428 935 427 Q 956 426 960 417 Q 966 405 948 391 Q 888 349 824 369 Q 779 378 721 391 C 682 398 682 398 663 402 Q 561 418 444 437 Q 422 440 439 457 Q 475 487 521 473 Q 587 454 663 445 C 701 440 701 440 720 437 Z"/>
    <path class="bg" d="M 663 445 Q 663 650 659 717 Q 656 886 676 920 Q 691 936 700 914 Q 718 875 719 464 Q 719 449 720 437 C 721 406 721 406 721 391 Q 722 184 743 153 Q 750 126 733 113 Q 708 94 663 81 Q 642 77 629 91 Q 619 98 632 112 Q 660 136 662 170 Q 663 252 663 402 C 663 431 663 431 663 445 Z"/>
</g>
<g id="anim-layer">
    <path style="--d:1s; stroke:#FF4444;" pathLength="3333" clip-path="url(#z35745c1)" d="M 309 86 L 426 152 L 465 204"/>
    <path style="--d:2s; stroke:#FF4444;" pathLength="3333" clip-path="url(#z35745c2)" d="M 69 402 L 125 408 L 300 347 L 338 359 L 302 757 L 326 790 L 451 665"/>
    <path style="--d:3s; stroke:#000;" pathLength="3333" clip-path="url(#z35745c3)" d="M 442 446 L 866 395 L 955 409"/>
    <path style="--d:4s; stroke:#000;" pathLength="3333" clip-path="url(#z35745c4)" d="M 632 94 L 702 147 L 687 919"/>
</g>
</svg>