<svg id="z35837" class="acjk" viewBox="0 0 1024 1024" xmlns="http://www.w3.org/2000/svg">

<style>
<![CDATA[
@keyframes zk { to { stroke-dashoffset:0; } }
svg.acjk path[clip-path] {
    --t:0.8s;
    animation:zk var(--t) linear forwards var(--d);
    stroke-dasharray:3337;
    stroke-dashoffset:3339;
    stroke-width:128;
    stroke-linecap:round;
    fill:none;
}
/* Low opacity for background improves visual overlap at intersections */
svg.acjk .bg { fill:#ccc; opacity: 0.5; } 
]]>
</style>
<defs>
    <clipPath id="z35837c1"><path d="M 282 146 Q 312 171 343 202 Q 358 215 375 215 Q 387 214 392 199 Q 398 183 387 151 Q 375 117 276 93 Q 260 89 252 93 Q 246 97 248 111 Q 252 124 282 146 Z"/></clipPath>
    <clipPath id="z35837c2"><path d="M 136 375 Q 84 393 57 395 Q 42 395 40 403 Q 36 412 47 419 Q 89 444 117 432 Q 168 408 215 383 Q 242 368 251 376 Q 261 383 257 410 Q 257 447 255 487 Q 254 598 225 700 Q 209 733 254 783 Q 264 796 275 788 Q 282 781 294 756 Q 330 705 405 617 Q 417 605 414 598 Q 413 589 401 600 Q 365 625 329 653 Q 286 690 292 636 Q 291 572 312 416 Q 316 392 338 367 Q 351 357 340 344 Q 328 328 289 311 Q 276 304 259 316 Q 180 359 136 375 Z"/></clipPath>
    <clipPath id="z35837c3"><path d="M 524 772 Q 515 809 538 864 Q 545 880 552 883 Q 558 889 564 882 Q 571 878 580 858 Q 589 836 588 807 Q 587 764 589 372 Q 589 291 604 236 Q 611 223 609 210 Q 603 201 552 171 Q 530 155 512 170 Q 508 174 513 189 Q 541 229 542 270 Q 543 301 544 338 C 545 360 545 360 545 371 Q 545 422 545 474 C 544 497 544 497 544 509 Q 543 566 543 628 C 542 647 542 647 542 656 Q 538 716 524 772 Z"/></clipPath>
    <clipPath id="z35837c4"><path d="M 544 338 Q 519 329 454 355 Q 435 359 413 363 Q 382 370 406 384 Q 436 396 501 382 Q 522 376 545 371 C 556 369 555 340 544 338 Z"/></clipPath>
    <clipPath id="z35837c5"><path d="M 545 474 Q 544 473 541 473 Q 520 472 460 497 Q 436 504 411 509 Q 383 518 405 528 Q 435 540 503 521 Q 522 515 544 509 C 555 507 556 476 545 474 Z"/></clipPath>
    <clipPath id="z35837c6"><path d="M 543 628 Q 393 686 372 687 Q 362 690 360 699 Q 360 711 369 717 Q 390 727 420 741 Q 424 741 449 724 Q 467 706 542 656 C 550 651 552 625 543 628 Z"/></clipPath>
    <clipPath id="z35837c7"><path d="M 755 619 Q 754 561 753 490 C 752 471 752 471 752 462 Q 751 408 751 349 C 751 329 751 329 751 319 Q 751 217 766 150 Q 781 123 748 103 Q 732 91 705 76 Q 680 60 659 76 Q 653 82 661 97 Q 695 146 698 196 Q 722 653 692 793 Q 689 802 687 813 Q 675 856 706 918 Q 713 936 721 939 Q 728 946 735 938 Q 763 919 761 852 Q 758 821 755 652 C 755 630 755 630 755 619 Z"/></clipPath>
    <clipPath id="z35837c8"><path d="M 751 349 Q 794 353 889 332 Q 892 331 898 330 Q 914 326 917 323 Q 924 316 920 307 Q 913 297 883 291 Q 855 287 826 301 Q 808 307 789 312 Q 771 316 751 319 C 741 321 741 349 751 349 Z"/></clipPath>
    <clipPath id="z35837c9"><path d="M 753 490 Q 786 497 891 479 Q 904 476 907 474 Q 916 467 911 459 Q 904 449 877 442 Q 858 439 791 457 Q 773 460 752 462 C 743 464 744 488 753 490 Z"/></clipPath>
    <clipPath id="z35837c10"><path d="M 755 652 Q 809 661 831 657 Q 832 656 835 656 Q 940 641 950 637 Q 959 630 955 620 Q 948 608 918 599 Q 887 592 857 603 Q 833 610 808 614 Q 783 617 755 619 C 744 619 744 650 755 652 Z"/></clipPath>
</defs>
<g id="bg-layer">
    <path class="bg" d="M 282 146 Q 312 171 343 202 Q 358 215 375 215 Q 387 214 392 199 Q 398 183 387 151 Q 375 117 276 93 Q 260 89 252 93 Q 246 97 248 111 Q 252 124 282 146 Z"/>
    <path class="bg" d="M 136 375 Q 84 393 57 395 Q 42 395 40 403 Q 36 412 47 419 Q 89 444 117 432 Q 168 408 215 383 Q 242 368 251 376 Q 261 383 257 410 Q 257 447 255 487 Q 254 598 225 700 Q 209 733 254 783 Q 264 796 275 788 Q 282 781 294 756 Q 330 705 405 617 Q 417 605 414 598 Q 413 589 401 600 Q 365 625 329 653 Q 286 690 292 636 Q 291 572 312 416 Q 316 392 338 367 Q 351 357 340 344 Q 328 328 289 311 Q 276 304 259 316 Q 180 359 136 375 Z"/>
    <path class="bg" d="M 524 772 Q 515 809 538 864 Q 545 880 552 883 Q 558 889 564 882 Q 571 878 580 858 Q 589 836 588 807 Q 587 764 589 372 Q 589 291 604 236 Q 611 223 609 210 Q 603 201 552 171 Q 530 155 512 170 Q 508 174 513 189 Q 541 229 542 270 Q 543 301 544 338 C 545 360 545 360 545 371 Q 545 422 545 474 C 544 497 544 497 544 509 Q 543 566 543 628 C 542 647 542 647 542 656 Q 538 716 524 772 Z"/>
    <path class="bg" d="M 544 338 Q 519 329 454 355 Q 435 359 413 363 Q 382 370 406 384 Q 436 396 501 382 Q 522 376 545 371 C 556 369 555 340 544 338 Z"/>
    <path class="bg" d="M 545 474 Q 544 473 541 473 Q 520 472 460 497 Q 436 504 411 509 Q 383 518 405 528 Q 435 540 503 521 Q 522 515 544 509 C 555 507 556 476 545 474 Z"/>
    <path class="bg" d="M 543 628 Q 393 686 372 687 Q 362 690 360 699 Q 360 711 369 717 Q 390 727 420 741 Q 424 741 449 724 Q 467 706 542 656 C 550 651 552 625 543 628 Z"/>
    <path class="bg" d="M 755 619 Q 754 561 753 490 C 752 471 752 471 752 462 Q 751 408 751 349 C 751 329 751 329 751 319 Q 751 217 766 150 Q 781 123 748 103 Q 732 91 705 76 Q 680 60 659 76 Q 653 82 661 97 Q 695 146 698 196 Q 722 653 692 793 Q 689 802 687 813 Q 675 856 706 918 Q 713 936 721 939 Q 728 946 735 938 Q 763 919 761 852 Q 758 821 755 652 C 755 630 755 630 755 619 Z"/>
    <path class="bg" d="M 751 349 Q 794 353 889 332 Q 892 331 898 330 Q 914 326 917 323 Q 924 316 920 307 Q 913 297 883 291 Q 855 287 826 301 Q 808 307 789 312 Q 771 316 751 319 C 741 321 741 349 751 349 Z"/>
    <path class="bg" d="M 753 490 Q 786 497 891 479 Q 904 476 907 474 Q 916 467 911 459 Q 904 449 877 442 Q 858 439 791 457 Q 773 460 752 462 C 743 464 744 488 753 490 Z"/>
    <path class="bg" d="M 755 652 Q 809 661 831 657 Q 832 656 835 656 Q 940 641 950 637 Q 959 630 955 620 Q 948 608 918 599 Q 887 592 857 603 Q 833 610 808 614 Q 783 617 755 619 C 744 619 744 650 755 652 Z"/>
</g>
<g id="anim-layer">
    <path style="--d:1s; stroke:#FF4444;" pathLength="3333" clip-path="url(#z35837c1)" d="M 251 101 L 342 152 L 384 206"/>
    <path style="--d:2s; stroke:#FF4444;" pathLength="3333" clip-path="url(#z35837c2)" d="M 43 404 L 98 412 L 248 346 L 299 365 L 258 689 L 279 738 L 408 602"/>
    <path style="--d:3s; stroke:#000;" pathLength="3333" clip-path="url(#z35837c3)" d="M 516 171 L 573 237 L 555 879"/>
    <path style="--d:4s; stroke:#000;" pathLength="3333" clip-path="url(#z35837c4)" d="M 404 373 L 544 353"/>
    <path style="--d:5s; stroke:#000;" pathLength="3333" clip-path="url(#z35837c5)" d="M 404 521 L 541 484"/>
    <path style="--d:6s; stroke:#000;" pathLength="3333" clip-path="url(#z35837c6)" d="M 363 698 L 415 708 L 539 639"/>
    <path style="--d:7s; stroke:#000;" pathLength="3333" clip-path="url(#z35837c7)" d="M 664 83 L 730 146 L 722 937"/>
    <path style="--d:8s; stroke:#000;" pathLength="3333" clip-path="url(#z35837c8)" d="M 757 342 L 917 315"/>
    <path style="--d:9s; stroke:#000;" pathLength="3333" clip-path="url(#z35837c9)" d="M 757 483 L 907 465"/>
    <path style="--d:10s; stroke:#000;" pathLength="3333" clip-path="url(#z35837c10)" d="M 761 625 L 949 622"/>
</g>
</svg>