<svg id="z36139" class="acjk" viewBox="0 0 1024 1024" xmlns="http://www.w3.org/2000/svg">

<style>
<![CDATA[
@keyframes zk { to { stroke-dashoffset:0; } }
svg.acjk path[clip-path] {
    --t:0.8s;
    animation:zk var(--t) linear forwards var(--d);
    stroke-dasharray:3337;
    stroke-dashoffset:3339;
    stroke-width:128;
    stroke-linecap:round;
    fill:none;
}
/* Low opacity for background improves visual overlap at intersections */
svg.acjk .bg { fill:#ccc; opacity: 0.5; } 
]]>
</style>
<defs>
    <clipPath id="z36139c1"><path d="M 342 119 Q 346 138 337 153 Q 306 199 264 241 Q 224 281 172 323 Q 162 330 158 335 Q 154 344 165 344 Q 213 348 357 220 Q 384 193 402 183 Q 412 176 412 163 Q 411 151 391 126 Q 372 105 356 101 Q 340 100 342 119 Z"/></clipPath>
    <clipPath id="z36139c2"><path d="M 544 64 Q 550 68 557 72 Q 578 82 663 180 Q 780 316 840 314 Q 847 313 855 311 Q 904 301 940 294 Q 952 291 963 286 Q 969 279 958 273 Q 945 266 838 236 Q 745 211 606 66 Q 588 47 560 44 Q 548 43 539 50 Q 535 57 544 64 Z"/></clipPath>
    <clipPath id="z36139c3"><path d="M 453 262 Q 514 243 564 234 Q 580 231 583 236 Q 589 243 587 262 Q 586 314 576 339 Q 560 367 534 362 Q 515 358 498 351 Q 476 344 491 366 Q 525 403 540 432 Q 552 447 564 437 Q 612 409 641 284 Q 648 253 661 238 Q 671 226 666 216 Q 659 206 611 185 Q 592 178 574 190 Q 556 200 485 219 Q 415 240 353 245 Q 337 246 335 255 Q 334 262 356 272 Q 378 285 396 278 Q 409 274 425 269 C 444 264 444 264 453 262 Z"/></clipPath>
    <clipPath id="z36139c4"><path d="M 425 269 Q 424 269 425 270 Q 425 325 289 445 Q 280 448 277 457 Q 277 461 281 461 Q 311 467 391 399 Q 425 368 449 341 Q 462 323 472 316 Q 479 309 475 296 Q 466 275 453 262 C 446 255 425 259 425 269 Z"/></clipPath>
    <clipPath id="z36139c5"><path d="M 374 489 Q 373 488 372 487 Q 350 471 325 464 Q 318 463 311 470 Q 308 476 315 485 Q 339 536 324 664 Q 311 697 317 722 Q 327 753 337 765 Q 347 777 357 764 Q 378 739 379 627 Q 379 543 384 518 C 386 508 382 495 374 489 Z"/></clipPath>
    <clipPath id="z36139c6"><path d="M 630 692 Q 623 714 636 735 Q 649 763 658 762 Q 671 761 687 729 Q 700 704 700 684 Q 681 546 708 507 Q 721 485 699 473 Q 674 454 637 438 Q 621 432 599 440 Q 500 480 374 489 C 364 489 375 522 384 518 Q 387 515 498 497 Q 597 475 619 490 Q 626 505 630 545 Q 636 668 630 692 Z"/></clipPath>
    <clipPath id="z36139c7"><path d="M 471 611 Q 477 758 431 815 Q 386 869 227 919 Q 214 920 211 923 Q 205 927 219 933 Q 304 946 426 887 Q 444 877 458 863 Q 510 812 522 666 Q 525 609 537 583 Q 541 573 533 565 Q 517 549 484 536 Q 465 527 448 533 Q 430 540 445 556 Q 470 583 471 611 Z"/></clipPath>
    <clipPath id="z36139c8"><path d="M 597 805 Q 648 854 707 923 Q 723 945 740 950 Q 749 951 757 941 Q 770 928 758 881 Q 751 839 674 804 Q 626 782 599 772 Q 589 766 587 779 Q 586 794 597 805 Z"/></clipPath>
</defs>
<g id="bg-layer">
    <path class="bg" d="M 342 119 Q 346 138 337 153 Q 306 199 264 241 Q 224 281 172 323 Q 162 330 158 335 Q 154 344 165 344 Q 213 348 357 220 Q 384 193 402 183 Q 412 176 412 163 Q 411 151 391 126 Q 372 105 356 101 Q 340 100 342 119 Z"/>
    <path class="bg" d="M 544 64 Q 550 68 557 72 Q 578 82 663 180 Q 780 316 840 314 Q 847 313 855 311 Q 904 301 940 294 Q 952 291 963 286 Q 969 279 958 273 Q 945 266 838 236 Q 745 211 606 66 Q 588 47 560 44 Q 548 43 539 50 Q 535 57 544 64 Z"/>
    <path class="bg" d="M 453 262 Q 514 243 564 234 Q 580 231 583 236 Q 589 243 587 262 Q 586 314 576 339 Q 560 367 534 362 Q 515 358 498 351 Q 476 344 491 366 Q 525 403 540 432 Q 552 447 564 437 Q 612 409 641 284 Q 648 253 661 238 Q 671 226 666 216 Q 659 206 611 185 Q 592 178 574 190 Q 556 200 485 219 Q 415 240 353 245 Q 337 246 335 255 Q 334 262 356 272 Q 378 285 396 278 Q 409 274 425 269 C 444 264 444 264 453 262 Z"/>
    <path class="bg" d="M 425 269 Q 424 269 425 270 Q 425 325 289 445 Q 280 448 277 457 Q 277 461 281 461 Q 311 467 391 399 Q 425 368 449 341 Q 462 323 472 316 Q 479 309 475 296 Q 466 275 453 262 C 446 255 425 259 425 269 Z"/>
    <path class="bg" d="M 374 489 Q 373 488 372 487 Q 350 471 325 464 Q 318 463 311 470 Q 308 476 315 485 Q 339 536 324 664 Q 311 697 317 722 Q 327 753 337 765 Q 347 777 357 764 Q 378 739 379 627 Q 379 543 384 518 C 386 508 382 495 374 489 Z"/>
    <path class="bg" d="M 630 692 Q 623 714 636 735 Q 649 763 658 762 Q 671 761 687 729 Q 700 704 700 684 Q 681 546 708 507 Q 721 485 699 473 Q 674 454 637 438 Q 621 432 599 440 Q 500 480 374 489 C 364 489 375 522 384 518 Q 387 515 498 497 Q 597 475 619 490 Q 626 505 630 545 Q 636 668 630 692 Z"/>
    <path class="bg" d="M 471 611 Q 477 758 431 815 Q 386 869 227 919 Q 214 920 211 923 Q 205 927 219 933 Q 304 946 426 887 Q 444 877 458 863 Q 510 812 522 666 Q 525 609 537 583 Q 541 573 533 565 Q 517 549 484 536 Q 465 527 448 533 Q 430 540 445 556 Q 470 583 471 611 Z"/>
    <path class="bg" d="M 597 805 Q 648 854 707 923 Q 723 945 740 950 Q 749 951 757 941 Q 770 928 758 881 Q 751 839 674 804 Q 626 782 599 772 Q 589 766 587 779 Q 586 794 597 805 Z"/>
</g>
<g id="anim-layer">
    <path style="--d:1s; stroke:#FF4444;" pathLength="3333" clip-path="url(#z36139c1)" d="M 353 105 L 371 167 L 166 335"/>
    <path style="--d:2s; stroke:#FF4444;" pathLength="3333" clip-path="url(#z36139c2)" d="M 544 52 L 793 258 L 957 281"/>
    <path style="--d:3s; stroke:#FF4444;" pathLength="3333" clip-path="url(#z36139c3)" d="M 340 254 L 610 216 L 627 235 L 579 379 L 543 401 L 491 355"/>
    <path style="--d:4s; stroke:#FF4444;" pathLength="3333" clip-path="url(#z36139c4)" d="M 451 269 L 414 347 L 286 456"/>
    <path style="--d:5s; stroke:#000;" pathLength="3333" clip-path="url(#z36139c5)" d="M 319 473 L 354 518 L 347 765"/>
    <path style="--d:6s; stroke:#000;" pathLength="3333" clip-path="url(#z36139c6)" d="M 381 491 L 608 460 L 656 484 L 652 757"/>
    <path style="--d:7s; stroke:#000;" pathLength="3333" clip-path="url(#z36139c7)" d="M 444 546 L 502 582 L 460 817 L 363 890 L 215 925"/>
    <path style="--d:8s; stroke:#000;" pathLength="3333" clip-path="url(#z36139c8)" d="M 593 777 L 706 865 L 739 946"/>
</g>
</svg>