<svg id="z36151" class="acjk" viewBox="0 0 1024 1024" xmlns="http://www.w3.org/2000/svg">

<style>
<![CDATA[
@keyframes zk { to { stroke-dashoffset:0; } }
svg.acjk path[clip-path] {
    --t:0.8s;
    animation:zk var(--t) linear forwards var(--d);
    stroke-dasharray:3337;
    stroke-dashoffset:3339;
    stroke-width:128;
    stroke-linecap:round;
    fill:none;
}
/* Low opacity for background improves visual overlap at intersections */
svg.acjk .bg { fill:#ccc; opacity: 0.5; } 
]]>
</style>
<defs>
    <clipPath id="z36151c1"><path d="M 319 233 Q 332 220 347 204 Q 374 173 394 158 Q 404 151 403 137 Q 402 124 379 99 Q 357 77 340 75 Q 322 74 326 95 Q 347 167 111 373 Q 101 380 97 386 Q 93 396 105 396 Q 156 390 292 261 C 310 242 310 242 319 233 Z"/></clipPath>
    <clipPath id="z36151c2"><path d="M 292 261 Q 292 262 293 264 Q 293 333 286 364 Q 276 397 306 438 C 307 439 307 439 307 439 Q 320 451 329 431 Q 339 400 340 364 Q 340 300 342 284 Q 348 265 340 256 Q 328 243 319 233 C 310 224 289 248 292 261 Z"/></clipPath>
    <clipPath id="z36151c3"><path d="M 606 235 Q 730 183 732 181 Q 739 171 733 163 Q 724 153 693 150 Q 662 149 634 166 Q 607 179 579 194 C 552 207 552 207 539 213 Q 484 235 419 252 Q 383 265 413 277 Q 452 293 542 259 Q 551 255 562 252 C 591 241 591 241 606 235 Z"/></clipPath>
    <clipPath id="z36151c4"><path d="M 562 252 Q 659 402 786 458 Q 789 458 794 461 Q 849 483 881 482 Q 903 475 893 446 Q 881 421 865 295 Q 864 283 858 283 Q 854 283 835 354 Q 825 393 804 393 Q 788 389 757 374 Q 678 332 606 235 C 588 208 588 208 579 194 Q 546 137 548 84 Q 549 65 508 51 Q 468 39 457 45 Q 447 52 455 68 Q 482 87 499 130 Q 518 173 539 213 C 554 239 554 239 562 252 Z"/></clipPath>
    <clipPath id="z36151c5"><path d="M 717 89 Q 744 111 772 138 Q 785 148 799 148 Q 809 148 813 135 Q 817 122 808 95 Q 799 67 712 46 Q 697 42 692 45 Q 688 49 689 61 Q 693 71 717 89 Z"/></clipPath>
    <clipPath id="z36151c6"><path d="M 388 473 Q 367 457 341 448 Q 334 447 327 454 Q 324 458 331 469 Q 364 535 339 686 Q 326 737 330 753 Q 339 784 350 796 Q 360 809 369 796 Q 393 769 393 637 Q 393 498 409 497 C 417 490 397 479 388 473 Z"/></clipPath>
    <clipPath id="z36151c7"><path d="M 626 721 Q 619 745 634 766 Q 649 796 658 794 Q 673 793 687 759 Q 702 732 700 711 Q 673 531 703 484 Q 715 465 694 449 Q 667 431 630 416 Q 615 412 592 420 Q 505 459 388 473 C 378 475 399 499 409 497 Q 458 485 501 478 Q 589 454 610 467 Q 619 486 625 537 Q 632 691 626 721 Z"/></clipPath>
    <clipPath id="z36151c8"><path d="M 481 590 Q 484 804 372 877 Q 335 904 250 937 Q 238 940 234 943 Q 230 947 244 952 Q 290 956 388 915 Q 439 890 460 865 Q 514 799 534 618 Q 537 593 548 564 Q 552 554 545 546 Q 529 530 496 516 Q 477 506 461 511 Q 442 518 457 534 Q 482 562 481 590 Z"/></clipPath>
    <clipPath id="z36151c9"><path d="M 569 817 Q 627 872 695 951 Q 711 973 728 978 Q 737 979 745 969 Q 758 956 746 909 Q 736 849 571 784 Q 561 778 559 791 Q 558 806 569 817 Z"/></clipPath>
</defs>
<g id="bg-layer">
    <path class="bg" d="M 319 233 Q 332 220 347 204 Q 374 173 394 158 Q 404 151 403 137 Q 402 124 379 99 Q 357 77 340 75 Q 322 74 326 95 Q 347 167 111 373 Q 101 380 97 386 Q 93 396 105 396 Q 156 390 292 261 C 310 242 310 242 319 233 Z"/>
    <path class="bg" d="M 292 261 Q 292 262 293 264 Q 293 333 286 364 Q 276 397 306 438 C 307 439 307 439 307 439 Q 320 451 329 431 Q 339 400 340 364 Q 340 300 342 284 Q 348 265 340 256 Q 328 243 319 233 C 310 224 289 248 292 261 Z"/>
    <path class="bg" d="M 606 235 Q 730 183 732 181 Q 739 171 733 163 Q 724 153 693 150 Q 662 149 634 166 Q 607 179 579 194 C 552 207 552 207 539 213 Q 484 235 419 252 Q 383 265 413 277 Q 452 293 542 259 Q 551 255 562 252 C 591 241 591 241 606 235 Z"/>
    <path class="bg" d="M 562 252 Q 659 402 786 458 Q 789 458 794 461 Q 849 483 881 482 Q 903 475 893 446 Q 881 421 865 295 Q 864 283 858 283 Q 854 283 835 354 Q 825 393 804 393 Q 788 389 757 374 Q 678 332 606 235 C 588 208 588 208 579 194 Q 546 137 548 84 Q 549 65 508 51 Q 468 39 457 45 Q 447 52 455 68 Q 482 87 499 130 Q 518 173 539 213 C 554 239 554 239 562 252 Z"/>
    <path class="bg" d="M 717 89 Q 744 111 772 138 Q 785 148 799 148 Q 809 148 813 135 Q 817 122 808 95 Q 799 67 712 46 Q 697 42 692 45 Q 688 49 689 61 Q 693 71 717 89 Z"/>
    <path class="bg" d="M 388 473 Q 367 457 341 448 Q 334 447 327 454 Q 324 458 331 469 Q 364 535 339 686 Q 326 737 330 753 Q 339 784 350 796 Q 360 809 369 796 Q 393 769 393 637 Q 393 498 409 497 C 417 490 397 479 388 473 Z"/>
    <path class="bg" d="M 626 721 Q 619 745 634 766 Q 649 796 658 794 Q 673 793 687 759 Q 702 732 700 711 Q 673 531 703 484 Q 715 465 694 449 Q 667 431 630 416 Q 615 412 592 420 Q 505 459 388 473 C 378 475 399 499 409 497 Q 458 485 501 478 Q 589 454 610 467 Q 619 486 625 537 Q 632 691 626 721 Z"/>
    <path class="bg" d="M 481 590 Q 484 804 372 877 Q 335 904 250 937 Q 238 940 234 943 Q 230 947 244 952 Q 290 956 388 915 Q 439 890 460 865 Q 514 799 534 618 Q 537 593 548 564 Q 552 554 545 546 Q 529 530 496 516 Q 477 506 461 511 Q 442 518 457 534 Q 482 562 481 590 Z"/>
    <path class="bg" d="M 569 817 Q 627 872 695 951 Q 711 973 728 978 Q 737 979 745 969 Q 758 956 746 909 Q 736 849 571 784 Q 561 778 559 791 Q 558 806 569 817 Z"/>
</g>
<g id="anim-layer">
    <path style="--d:1s; stroke:#FF4444;" pathLength="3333" clip-path="url(#z36151c1)" d="M 335 83 L 363 128 L 350 157 L 225 295 L 103 390"/>
    <path style="--d:2s; stroke:#FF4444;" pathLength="3333" clip-path="url(#z36151c2)" d="M 315 249 L 317 438"/>
    <path style="--d:3s; stroke:#FF4444;" pathLength="3333" clip-path="url(#z36151c3)" d="M 407 267 L 731 171"/>
    <path style="--d:4s; stroke:#FF4444;" pathLength="3333" clip-path="url(#z36151c4)" d="M 456 55 L 516 89 L 600 266 L 739 398 L 858 433 L 859 294"/>
    <path style="--d:5s; stroke:#FF4444;" pathLength="3333" clip-path="url(#z36151c5)" d="M 697 51 L 809 138"/>
    <path style="--d:6s; stroke:#000;" pathLength="3333" clip-path="url(#z36151c6)" d="M 333 457 L 376 502 L 356 796"/>
    <path style="--d:7s; stroke:#000;" pathLength="3333" clip-path="url(#z36151c7)" d="M 397 475 L 613 439 L 650 462 L 656 788"/>
    <path style="--d:8s; stroke:#000;" pathLength="3333" clip-path="url(#z36151c8)" d="M 455 519 L 514 569 L 464 810 L 374 900 L 239 946"/>
    <path style="--d:9s; stroke:#000;" pathLength="3333" clip-path="url(#z36151c9)" d="M 565 788 L 701 900 L 733 972"/>
</g>
</svg>