<svg id="z36284" class="acjk" viewBox="0 0 1024 1024" xmlns="http://www.w3.org/2000/svg">

<style>
<![CDATA[
@keyframes zk { to { stroke-dashoffset:0; } }
svg.acjk path[clip-path] {
    --t:0.8s;
    animation:zk var(--t) linear forwards var(--d);
    stroke-dasharray:3337;
    stroke-dashoffset:3339;
    stroke-width:128;
    stroke-linecap:round;
    fill:none;
}
/* Low opacity for background improves visual overlap at intersections */
svg.acjk .bg { fill:#ccc; opacity: 0.5; } 
]]>
</style>
<defs>
    <clipPath id="z36284c1"><path d="M 208 183 Q 198 179 177 175 Q 167 172 163 177 Q 156 183 165 198 Q 190 255 206 347 Q 209 375 225 393 Q 241 414 246 399 Q 250 389 250 374 C 249 355 249 355 248 346 Q 248 342 248 339 Q 232 237 229 210 C 227 199 219 187 208 183 Z"/></clipPath>
    <clipPath id="z36284c2"><path d="M 395 325 Q 413 235 437 208 Q 459 183 437 168 Q 374 135 371 135 Q 362 135 354 140 Q 308 165 208 183 C 197 185 218 214 229 210 Q 232 207 325 189 Q 353 183 359 194 Q 368 203 345 320 C 342 337 392 341 395 325 Z"/></clipPath>
    <clipPath id="z36284c3"><path d="M 313 365 Q 349 358 403 351 Q 412 350 413 342 Q 413 335 395 325 C 381 316 361 314 345 320 Q 293 336 248 346 C 239 348 241 374 250 374 Q 257 375 269 373 C 298 368 298 368 313 365 Z"/></clipPath>
    <clipPath id="z36284c4"><path d="M 329 671 Q 330 583 333 511 C 334 491 334 491 334 481 Q 334 445 336 409 Q 343 388 313 365 C 301 356 261 360 269 373 Q 281 391 285 513 Q 285 576 287 685 C 287 700 329 686 329 671 Z"/></clipPath>
    <clipPath id="z36284c5"><path d="M 333 511 Q 385 501 425 494 Q 446 490 437 479 Q 427 466 404 464 Q 383 463 347 474 Q 340 477 334 481 C 325 486 323 513 333 511 Z"/></clipPath>
    <clipPath id="z36284c6"><path d="M 221 705 Q 211 572 214 544 Q 215 523 202 513 Q 180 497 155 490 Q 142 486 134 492 Q 127 498 134 512 Q 152 540 161 571 Q 168 599 184 716 C 187 729 221 718 221 705 Z"/></clipPath>
    <clipPath id="z36284c7"><path d="M 184 716 Q 130 731 105 731 Q 92 732 90 744 Q 89 757 98 766 Q 122 782 156 800 Q 168 804 179 794 Q 218 764 260 744 Q 326 714 390 683 Q 415 671 433 657 Q 446 650 446 640 Q 440 634 428 637 Q 380 653 329 671 C 301 680 301 680 287 685 Q 253 694 221 705 C 196 712 196 712 184 716 Z"/></clipPath>
    <clipPath id="z36284c8"><path d="M 738 284 Q 762 278 789 274 Q 835 265 842 259 Q 851 252 847 244 Q 840 232 812 224 Q 791 218 675 249 Q 575 268 510 273 Q 474 277 499 294 Q 532 316 611 305 Q 647 299 686 292 C 721 287 721 287 738 284 Z"/></clipPath>
    <clipPath id="z36284c9"><path d="M 768 511 Q 820 507 884 507 Q 935 510 943 499 Q 947 489 933 477 Q 885 438 810 459 Q 789 462 768 468 C 732 474 732 474 714 477 Q 639 486 592 496 C 558 501 558 501 541 503 Q 492 509 443 516 Q 424 517 438 533 Q 451 546 467 550 Q 480 553 539 541 C 572 534 572 534 589 531 Q 640 519 714 515 C 750 512 750 512 768 511 Z"/></clipPath>
    <clipPath id="z36284c10"><path d="M 592 496 Q 598 417 602 395 Q 608 376 589 367 Q 544 345 531 347 Q 512 350 527 370 Q 545 404 541 503 C 540 528 540 528 539 541 Q 538 548 538 557 Q 526 707 411 811 Q 398 823 395 829 Q 394 836 404 835 Q 438 835 498 773 Q 565 703 589 531 C 591 508 591 508 592 496 Z"/></clipPath>
    <clipPath id="z36284c11"><path d="M 713 902 Q 719 927 726 937 Q 732 944 739 942 Q 754 932 761 873 Q 770 797 768 722 Q 765 671 768 511 C 768 482 768 482 768 468 Q 768 402 781 331 Q 784 312 770 303 Q 751 290 738 284 C 722 277 683 275 686 292 Q 686 299 701 319 Q 713 343 714 462 Q 714 468 714 477 C 714 502 714 502 714 515 Q 708 855 713 902 Z"/></clipPath>
</defs>
<g id="bg-layer">
    <path class="bg" d="M 208 183 Q 198 179 177 175 Q 167 172 163 177 Q 156 183 165 198 Q 190 255 206 347 Q 209 375 225 393 Q 241 414 246 399 Q 250 389 250 374 C 249 355 249 355 248 346 Q 248 342 248 339 Q 232 237 229 210 C 227 199 219 187 208 183 Z"/>
    <path class="bg" d="M 395 325 Q 413 235 437 208 Q 459 183 437 168 Q 374 135 371 135 Q 362 135 354 140 Q 308 165 208 183 C 197 185 218 214 229 210 Q 232 207 325 189 Q 353 183 359 194 Q 368 203 345 320 C 342 337 392 341 395 325 Z"/>
    <path class="bg" d="M 313 365 Q 349 358 403 351 Q 412 350 413 342 Q 413 335 395 325 C 381 316 361 314 345 320 Q 293 336 248 346 C 239 348 241 374 250 374 Q 257 375 269 373 C 298 368 298 368 313 365 Z"/>
    <path class="bg" d="M 329 671 Q 330 583 333 511 C 334 491 334 491 334 481 Q 334 445 336 409 Q 343 388 313 365 C 301 356 261 360 269 373 Q 281 391 285 513 Q 285 576 287 685 C 287 700 329 686 329 671 Z"/>
    <path class="bg" d="M 333 511 Q 385 501 425 494 Q 446 490 437 479 Q 427 466 404 464 Q 383 463 347 474 Q 340 477 334 481 C 325 486 323 513 333 511 Z"/>
    <path class="bg" d="M 221 705 Q 211 572 214 544 Q 215 523 202 513 Q 180 497 155 490 Q 142 486 134 492 Q 127 498 134 512 Q 152 540 161 571 Q 168 599 184 716 C 187 729 221 718 221 705 Z"/>
    <path class="bg" d="M 184 716 Q 130 731 105 731 Q 92 732 90 744 Q 89 757 98 766 Q 122 782 156 800 Q 168 804 179 794 Q 218 764 260 744 Q 326 714 390 683 Q 415 671 433 657 Q 446 650 446 640 Q 440 634 428 637 Q 380 653 329 671 C 301 680 301 680 287 685 Q 253 694 221 705 C 196 712 196 712 184 716 Z"/>
    <path class="bg" d="M 738 284 Q 762 278 789 274 Q 835 265 842 259 Q 851 252 847 244 Q 840 232 812 224 Q 791 218 675 249 Q 575 268 510 273 Q 474 277 499 294 Q 532 316 611 305 Q 647 299 686 292 C 721 287 721 287 738 284 Z"/>
    <path class="bg" d="M 768 511 Q 820 507 884 507 Q 935 510 943 499 Q 947 489 933 477 Q 885 438 810 459 Q 789 462 768 468 C 732 474 732 474 714 477 Q 639 486 592 496 C 558 501 558 501 541 503 Q 492 509 443 516 Q 424 517 438 533 Q 451 546 467 550 Q 480 553 539 541 C 572 534 572 534 589 531 Q 640 519 714 515 C 750 512 750 512 768 511 Z"/>
    <path class="bg" d="M 592 496 Q 598 417 602 395 Q 608 376 589 367 Q 544 345 531 347 Q 512 350 527 370 Q 545 404 541 503 C 540 528 540 528 539 541 Q 538 548 538 557 Q 526 707 411 811 Q 398 823 395 829 Q 394 836 404 835 Q 438 835 498 773 Q 565 703 589 531 C 591 508 591 508 592 496 Z"/>
    <path class="bg" d="M 713 902 Q 719 927 726 937 Q 732 944 739 942 Q 754 932 761 873 Q 770 797 768 722 Q 765 671 768 511 C 768 482 768 482 768 468 Q 768 402 781 331 Q 784 312 770 303 Q 751 290 738 284 C 722 277 683 275 686 292 Q 686 299 701 319 Q 713 343 714 462 Q 714 468 714 477 C 714 502 714 502 714 515 Q 708 855 713 902 Z"/>
</g>
<g id="anim-layer">
    <path style="--d:1s; stroke:#FF4444;" pathLength="3333" clip-path="url(#z36284c1)" d="M 167 180 L 205 229 L 235 400"/>
    <path style="--d:2s; stroke:#FF4444;" pathLength="3333" clip-path="url(#z36284c2)" d="M 219 187 L 359 161 L 400 183 L 357 319"/>
    <path style="--d:3s; stroke:#FF4444;" pathLength="3333" clip-path="url(#z36284c3)" d="M 255 367 L 406 340"/>
    <path style="--d:4s; stroke:#FF4444;" pathLength="3333" clip-path="url(#z36284c4)" d="M 279 379 L 308 411 L 297 677"/>
    <path style="--d:5s; stroke:#FF4444;" pathLength="3333" clip-path="url(#z36284c5)" d="M 337 503 L 431 486"/>
    <path style="--d:6s; stroke:#FF4444;" pathLength="3333" clip-path="url(#z36284c6)" d="M 139 500 L 185 547 L 201 710"/>
    <path style="--d:7s; stroke:#FF4444;" pathLength="3333" clip-path="url(#z36284c7)" d="M 94 743 L 164 761 L 436 641"/>
    <path style="--d:8s; stroke:#000;" pathLength="3333" clip-path="url(#z36284c8)" d="M 498 284 L 844 250"/>
    <path style="--d:9s; stroke:#000;" pathLength="3333" clip-path="url(#z36284c9)" d="M 440 523 L 938 484"/>
    <path style="--d:10s; stroke:#000;" pathLength="3333" clip-path="url(#z36284c10)" d="M 527 354 L 570 404 L 546 635 L 496 744 L 405 829"/>
    <path style="--d:11s; stroke:#000;" pathLength="3333" clip-path="url(#z36284c11)" d="M 696 298 L 744 336 L 731 937"/>
</g>
</svg>