<svg id="z36344" class="acjk" viewBox="0 0 1024 1024" xmlns="http://www.w3.org/2000/svg">

<style>
<![CDATA[
@keyframes zk { to { stroke-dashoffset:0; } }
svg.acjk path[clip-path] {
    --t:0.8s;
    animation:zk var(--t) linear forwards var(--d);
    stroke-dasharray:3337;
    stroke-dashoffset:3339;
    stroke-width:128;
    stroke-linecap:round;
    fill:none;
}
/* Low opacity for background improves visual overlap at intersections */
svg.acjk .bg { fill:#ccc; opacity: 0.5; } 
]]>
</style>
<defs>
    <clipPath id="z36344c1"><path d="M 219 214 Q 209 208 182 203 Q 170 200 167 205 Q 160 211 168 226 Q 193 280 207 368 Q 210 395 225 413 Q 241 434 247 419 Q 250 409 250 394 C 249 373 249 373 248 363 Q 236 267 233 240 C 231 230 228 218 219 214 Z"/></clipPath>
    <clipPath id="z36344c2"><path d="M 386 339 Q 404 260 426 235 Q 448 210 424 196 Q 405 186 378 169 Q 357 159 316 184 Q 253 205 219 214 C 209 216 224 244 233 240 Q 236 236 318 219 Q 343 215 348 223 Q 355 229 350 261 Q 343 295 336 337 C 333 353 383 355 386 339 Z"/></clipPath>
    <clipPath id="z36344c3"><path d="M 312 383 Q 343 376 399 369 Q 409 368 409 359 Q 409 352 386 339 C 372 330 351 331 336 337 Q 287 353 248 363 C 238 365 240 394 250 394 Q 257 395 268 392 Q 269 391 274 391 C 299 386 299 386 312 383 Z"/></clipPath>
    <clipPath id="z36344c4"><path d="M 333 671 Q 336 601 338 539 C 339 520 339 520 339 510 Q 342 411 343 410 Q 327 392 312 383 C 301 376 269 379 274 391 Q 289 421 289 444 Q 290 469 291 685 C 291 700 333 686 333 671 Z"/></clipPath>
    <clipPath id="z36344c5"><path d="M 338 539 Q 401 527 448 520 Q 470 516 461 503 Q 451 490 426 487 Q 396 484 339 510 C 330 514 329 541 338 539 Z"/></clipPath>
    <clipPath id="z36344c6"><path d="M 228 704 Q 213 571 217 542 Q 218 520 204 510 Q 182 494 154 487 Q 141 483 133 490 Q 126 496 133 510 Q 160 552 190 716 C 193 729 231 717 228 704 Z"/></clipPath>
    <clipPath id="z36344c7"><path d="M 190 716 Q 123 731 109 731 Q 96 732 94 744 Q 93 757 102 766 Q 126 782 160 800 Q 172 803 183 794 Q 214 767 374 690 Q 396 678 413 665 Q 426 658 426 648 Q 420 642 408 645 Q 371 657 333 671 C 305 680 305 680 291 685 Q 260 694 228 704 C 203 712 203 712 190 716 Z"/></clipPath>
    <clipPath id="z36344c8"><path d="M 632 265 Q 653 258 642 247 Q 630 235 606 235 Q 563 236 526 268 C 520 273 517 293 525 292 C 596 274 596 274 632 265 Z"/></clipPath>
    <clipPath id="z36344c9"><path d="M 526 268 Q 527 216 532 198 Q 536 180 523 170 Q 501 148 483 145 Q 471 144 466 147 Q 457 154 468 166 Q 486 197 486 226 Q 490 337 483 374 Q 479 401 467 415 Q 454 434 461 454 Q 471 484 486 494 Q 495 501 507 485 Q 535 454 627 376 Q 643 364 646 358 Q 647 346 629 355 Q 539 392 531 390 Q 525 386 525 292 C 526 276 526 276 526 268 Z"/></clipPath>
    <clipPath id="z36344c10"><path d="M 705 273 Q 799 227 844 212 Q 860 211 859 201 Q 856 185 842 166 Q 829 147 809 142 Q 796 139 794 157 Q 794 178 707 249 C 701 254 698 277 705 273 Z"/></clipPath>
    <clipPath id="z36344c11"><path d="M 707 249 Q 711 192 723 163 Q 733 135 716 121 Q 670 87 655 91 Q 642 97 649 112 Q 668 146 665 196 Q 664 401 693 429 Q 708 444 753 453 Q 792 460 854 458 Q 911 457 933 446 Q 960 431 947 403 Q 931 372 918 317 Q 917 302 909 298 Q 902 294 899 312 Q 884 379 874 390 Q 858 408 790 413 Q 753 413 736 408 Q 708 392 705 287 Q 705 280 705 273 C 706 257 706 257 707 249 Z"/></clipPath>
    <clipPath id="z36344c12"><path d="M 695 627 Q 762 621 917 620 Q 939 620 944 611 Q 950 598 932 583 Q 875 541 812 557 Q 763 566 695 580 C 657 586 657 586 638 589 Q 548 601 445 616 Q 423 619 440 637 Q 455 652 474 657 Q 496 663 514 658 Q 572 642 639 634 C 676 629 676 629 695 627 Z"/></clipPath>
    <clipPath id="z36344c13"><path d="M 647 920 Q 651 945 658 953 Q 664 960 671 958 Q 686 949 690 893 Q 690 875 695 627 C 695 596 695 596 695 580 Q 695 579 703 514 Q 706 498 693 489 Q 662 468 647 466 Q 635 462 620 470 Q 611 477 619 488 Q 637 533 637 572 Q 637 579 638 589 C 639 619 639 619 639 634 Q 643 904 647 920 Z"/></clipPath>
</defs>
<g id="bg-layer">
    <path class="bg" d="M 219 214 Q 209 208 182 203 Q 170 200 167 205 Q 160 211 168 226 Q 193 280 207 368 Q 210 395 225 413 Q 241 434 247 419 Q 250 409 250 394 C 249 373 249 373 248 363 Q 236 267 233 240 C 231 230 228 218 219 214 Z"/>
    <path class="bg" d="M 386 339 Q 404 260 426 235 Q 448 210 424 196 Q 405 186 378 169 Q 357 159 316 184 Q 253 205 219 214 C 209 216 224 244 233 240 Q 236 236 318 219 Q 343 215 348 223 Q 355 229 350 261 Q 343 295 336 337 C 333 353 383 355 386 339 Z"/>
    <path class="bg" d="M 312 383 Q 343 376 399 369 Q 409 368 409 359 Q 409 352 386 339 C 372 330 351 331 336 337 Q 287 353 248 363 C 238 365 240 394 250 394 Q 257 395 268 392 Q 269 391 274 391 C 299 386 299 386 312 383 Z"/>
    <path class="bg" d="M 333 671 Q 336 601 338 539 C 339 520 339 520 339 510 Q 342 411 343 410 Q 327 392 312 383 C 301 376 269 379 274 391 Q 289 421 289 444 Q 290 469 291 685 C 291 700 333 686 333 671 Z"/>
    <path class="bg" d="M 338 539 Q 401 527 448 520 Q 470 516 461 503 Q 451 490 426 487 Q 396 484 339 510 C 330 514 329 541 338 539 Z"/>
    <path class="bg" d="M 228 704 Q 213 571 217 542 Q 218 520 204 510 Q 182 494 154 487 Q 141 483 133 490 Q 126 496 133 510 Q 160 552 190 716 C 193 729 231 717 228 704 Z"/>
    <path class="bg" d="M 190 716 Q 123 731 109 731 Q 96 732 94 744 Q 93 757 102 766 Q 126 782 160 800 Q 172 803 183 794 Q 214 767 374 690 Q 396 678 413 665 Q 426 658 426 648 Q 420 642 408 645 Q 371 657 333 671 C 305 680 305 680 291 685 Q 260 694 228 704 C 203 712 203 712 190 716 Z"/>
    <path class="bg" d="M 632 265 Q 653 258 642 247 Q 630 235 606 235 Q 563 236 526 268 C 520 273 517 293 525 292 C 596 274 596 274 632 265 Z"/>
    <path class="bg" d="M 526 268 Q 527 216 532 198 Q 536 180 523 170 Q 501 148 483 145 Q 471 144 466 147 Q 457 154 468 166 Q 486 197 486 226 Q 490 337 483 374 Q 479 401 467 415 Q 454 434 461 454 Q 471 484 486 494 Q 495 501 507 485 Q 535 454 627 376 Q 643 364 646 358 Q 647 346 629 355 Q 539 392 531 390 Q 525 386 525 292 C 526 276 526 276 526 268 Z"/>
    <path class="bg" d="M 705 273 Q 799 227 844 212 Q 860 211 859 201 Q 856 185 842 166 Q 829 147 809 142 Q 796 139 794 157 Q 794 178 707 249 C 701 254 698 277 705 273 Z"/>
    <path class="bg" d="M 707 249 Q 711 192 723 163 Q 733 135 716 121 Q 670 87 655 91 Q 642 97 649 112 Q 668 146 665 196 Q 664 401 693 429 Q 708 444 753 453 Q 792 460 854 458 Q 911 457 933 446 Q 960 431 947 403 Q 931 372 918 317 Q 917 302 909 298 Q 902 294 899 312 Q 884 379 874 390 Q 858 408 790 413 Q 753 413 736 408 Q 708 392 705 287 Q 705 280 705 273 C 706 257 706 257 707 249 Z"/>
    <path class="bg" d="M 695 627 Q 762 621 917 620 Q 939 620 944 611 Q 950 598 932 583 Q 875 541 812 557 Q 763 566 695 580 C 657 586 657 586 638 589 Q 548 601 445 616 Q 423 619 440 637 Q 455 652 474 657 Q 496 663 514 658 Q 572 642 639 634 C 676 629 676 629 695 627 Z"/>
    <path class="bg" d="M 647 920 Q 651 945 658 953 Q 664 960 671 958 Q 686 949 690 893 Q 690 875 695 627 C 695 596 695 596 695 580 Q 695 579 703 514 Q 706 498 693 489 Q 662 468 647 466 Q 635 462 620 470 Q 611 477 619 488 Q 637 533 637 572 Q 637 579 638 589 C 639 619 639 619 639 634 Q 643 904 647 920 Z"/>
</g>
<g id="anim-layer">
    <path style="--d:1s; stroke:#FF4444;" pathLength="3333" clip-path="url(#z36344c1)" d="M 170 209 L 206 249 L 237 418"/>
    <path style="--d:2s; stroke:#FF4444;" pathLength="3333" clip-path="url(#z36344c2)" d="M 228 217 L 351 193 L 384 210 L 349 336"/>
    <path style="--d:3s; stroke:#FF4444;" pathLength="3333" clip-path="url(#z36344c3)" d="M 255 386 L 401 355"/>
    <path style="--d:4s; stroke:#FF4444;" pathLength="3333" clip-path="url(#z36344c4)" d="M 281 394 L 315 423 L 301 681"/>
    <path style="--d:5s; stroke:#FF4444;" pathLength="3333" clip-path="url(#z36344c5)" d="M 347 530 L 456 504"/>
    <path style="--d:6s; stroke:#FF4444;" pathLength="3333" clip-path="url(#z36344c6)" d="M 137 498 L 182 537 L 200 712"/>
    <path style="--d:7s; stroke:#FF4444;" pathLength="3333" clip-path="url(#z36344c7)" d="M 98 745 L 168 760 L 417 651"/>
    <path style="--d:8s; stroke:#000;" pathLength="3333" clip-path="url(#z36344c8)" d="M 532 284 L 640 255"/>
    <path style="--d:9s; stroke:#000;" pathLength="3333" clip-path="url(#z36344c9)" d="M 471 154 L 507 191 L 503 437 L 639 358"/>
    <path style="--d:10s; stroke:#000;" pathLength="3333" clip-path="url(#z36344c10)" d="M 804 149 L 816 196 L 712 266"/>
    <path style="--d:11s; stroke:#000;" pathLength="3333" clip-path="url(#z36344c11)" d="M 655 99 L 694 145 L 687 321 L 714 418 L 797 435 L 908 413 L 906 306"/>
    <path style="--d:12s; stroke:#000;" pathLength="3333" clip-path="url(#z36344c12)" d="M 440 623 L 495 635 L 836 587 L 940 597"/>
    <path style="--d:13s; stroke:#000;" pathLength="3333" clip-path="url(#z36344c13)" d="M 622 473 L 667 514 L 667 952"/>
</g>
</svg>