<svg id="z36485" class="acjk" viewBox="0 0 1024 1024" xmlns="http://www.w3.org/2000/svg">

<style>
<![CDATA[
@keyframes zk { to { stroke-dashoffset:0; } }
svg.acjk path[clip-path] {
    --t:0.8s;
    animation:zk var(--t) linear forwards var(--d);
    stroke-dasharray:3337;
    stroke-dashoffset:3339;
    stroke-width:128;
    stroke-linecap:round;
    fill:none;
}
/* Low opacity for background improves visual overlap at intersections */
svg.acjk .bg { fill:#ccc; opacity: 0.5; } 
]]>
</style>
<defs>
    <clipPath id="z36485c1"><path d="M 197 185 Q 187 181 158 177 Q 148 174 144 179 Q 140 185 147 199 Q 172 245 191 324 Q 195 346 209 362 Q 225 381 230 367 Q 233 357 232 338 C 229 319 229 319 227 310 Q 211 234 209 210 C 207 201 206 188 197 185 Z"/></clipPath>
    <clipPath id="z36485c2"><path d="M 376 286 Q 394 222 414 203 Q 435 179 413 166 Q 395 156 370 139 Q 352 127 310 153 Q 253 172 197 185 C 188 187 200 212 209 210 Q 258 198 310 186 Q 335 180 342 190 Q 348 194 342 223 Q 335 248 328 280 C 325 296 373 302 376 286 Z"/></clipPath>
    <clipPath id="z36485c3"><path d="M 289 327 Q 325 318 383 311 Q 392 310 393 302 Q 393 295 376 286 C 362 278 343 274 328 280 Q 327 280 325 281 Q 270 299 227 310 C 218 312 223 338 232 338 Q 239 339 249 336 Q 250 335 253 336 C 277 330 277 330 289 327 Z"/></clipPath>
    <clipPath id="z36485c4"><path d="M 313 619 Q 314 549 316 488 C 316 468 316 468 316 458 Q 319 353 318 350 C 317 349 317 349 317 349 Q 302 336 289 327 C 279 319 248 325 253 336 Q 266 360 270 462 Q 270 522 272 633 C 272 647 313 633 313 619 Z"/></clipPath>
    <clipPath id="z36485c5"><path d="M 316 488 Q 359 476 395 469 Q 414 465 406 454 Q 396 444 374 442 Q 355 441 321 455 Q 318 456 316 458 C 307 463 306 490 316 488 Z"/></clipPath>
    <clipPath id="z36485c6"><path d="M 207 654 Q 195 524 198 509 Q 199 490 186 479 Q 165 466 141 459 Q 128 455 121 461 Q 114 467 121 479 Q 148 522 171 666 C 173 678 207 667 207 654 Z"/></clipPath>
    <clipPath id="z36485c7"><path d="M 171 666 Q 149 672 130 679 Q 111 685 80 685 Q 67 686 66 697 Q 65 710 74 718 Q 96 734 130 751 Q 140 754 152 745 Q 273 678 397 609 Q 410 602 410 592 Q 404 586 392 590 Q 353 603 313 619 C 286 628 286 628 272 633 Q 239 643 207 654 C 183 662 183 662 171 666 Z"/></clipPath>
    <clipPath id="z36485c8"><path d="M 492 127 Q 483 123 459 121 Q 449 120 446 124 Q 442 130 450 142 Q 475 185 495 259 Q 499 281 514 295 Q 518 299 522 302 C 524 304 531 304 532 301 Q 532 300 533 299 Q 534 293 535 285 C 536 278 534 272 533 265 Q 532 258 530 250 Q 514 183 509 157 C 507 146 503 131 492 127 Z"/></clipPath>
    <clipPath id="z36485c9"><path d="M 759 260 Q 772 282 785 290 Q 792 297 808 280 Q 818 267 846 193 Q 856 166 878 145 Q 890 135 880 122 Q 867 106 831 81 Q 816 72 746 87 Q 734 87 599 110 Q 541 120 492 127 C 481 129 498 157 509 157 Q 513 157 520 156 Q 547 149 583 142 C 596 140 596 140 602 139 Q 636 132 678 126 C 701 123 701 123 713 121 Q 780 106 798 122 Q 805 132 802 140 Q 786 213 778 224 Q 775 233 758 237 C 751 240 754 254 759 260 Z"/></clipPath>
    <clipPath id="z36485c10"><path d="M 623 246 Q 623 245 624 242 Q 625 227 608 154 Q 607 145 602 139 C 599 134 583 136 583 142 Q 583 229 608 249 C 612 253 622 251 623 246 Z"/></clipPath>
    <clipPath id="z36485c11"><path d="M 699 230 Q 699 224 728 142 Q 731 136 721 127 Q 717 123 713 121 C 703 115 674 115 678 126 Q 685 138 672 235 C 670 244 697 239 699 230 Z"/></clipPath>
    <clipPath id="z36485c12"><path d="M 535 285 Q 545 289 563 287 Q 674 271 755 261 Q 756 260 759 260 C 767 258 765 241 758 237 Q 749 230 737 228 Q 721 225 699 230 C 681 233 681 233 672 235 Q 645 241 623 246 C 613 248 613 248 608 249 Q 568 256 533 265 C 526 266 528 284 535 285 Z"/></clipPath>
    <clipPath id="z36485c13"><path d="M 522 302 Q 518 305 521 315 Q 530 342 442 449 Q 435 455 433 458 Q 430 465 439 464 Q 452 464 521 406 C 536 391 536 391 544 383 Q 553 367 571 356 Q 578 350 576 341 Q 575 332 557 315 Q 544 305 532 301 C 529 300 523 299 522 302 Z"/></clipPath>
    <clipPath id="z36485c14"><path d="M 521 406 Q 537 409 558 408 C 581 406 581 406 593 405 Q 770 377 795 376 Q 808 376 814 382 Q 836 424 826 630 Q 819 732 789 794 Q 776 828 756 830 Q 746 834 681 821 Q 671 818 671 824 Q 671 828 682 837 Q 722 876 740 904 Q 750 922 761 921 Q 780 922 799 900 Q 863 845 879 700 Q 889 603 890 457 Q 890 424 909 398 Q 922 385 921 376 Q 920 369 900 356 Q 873 337 838 327 Q 819 321 727 347 Q 723 347 720 349 Q 639 367 544 383 C 533 385 510 404 521 406 Z"/></clipPath>
    <clipPath id="z36485c15"><path d="M 479 507 Q 470 503 448 502 Q 438 501 436 504 Q 432 510 439 521 Q 461 555 479 615 Q 483 633 494 644 Q 510 660 513 647 Q 514 641 514 634 C 512 617 512 617 511 609 Q 499 555 494 533 C 492 523 488 511 479 507 Z"/></clipPath>
    <clipPath id="z36485c16"><path d="M 576 491 Q 530 498 479 507 C 469 509 484 535 494 533 Q 501 532 511 529 Q 542 522 576 516 C 605 510 605 510 619 507 Q 679 494 689 502 Q 695 508 693 520 Q 687 548 680 574 C 676 587 716 591 721 578 Q 740 532 764 518 Q 777 503 766 489 Q 706 441 655 467 Q 636 473 619 479 C 590 487 590 487 576 491 Z"/></clipPath>
    <clipPath id="z36485c17"><path d="M 514 634 Q 515 634 578 625 C 604 621 604 621 617 619 Q 663 610 730 604 Q 739 603 740 596 Q 740 590 721 578 C 709 571 694 572 680 574 Q 646 580 617 589 C 591 595 591 595 578 598 Q 542 604 511 609 C 503 610 506 636 514 634 Z"/></clipPath>
    <clipPath id="z36485c18"><path d="M 558 408 Q 570 432 576 491 C 576 508 576 508 576 516 Q 576 547 578 598 C 578 616 578 616 578 625 Q 578 664 578 716 C 578 729 615 719 615 706 Q 616 660 617 619 C 617 599 617 599 617 589 Q 618 546 619 507 C 619 488 619 488 619 479 Q 619 476 620 475 Q 623 432 619 426 Q 606 413 593 405 C 583 399 554 397 558 408 Z"/></clipPath>
    <clipPath id="z36485c19"><path d="M 578 716 Q 526 726 471 740 Q 455 744 427 742 Q 417 743 414 751 Q 413 761 419 769 Q 438 784 464 801 Q 471 804 482 797 Q 515 776 671 718 Q 687 711 701 704 C 707 701 698 685 691 686 Q 654 695 615 706 C 590 713 590 713 578 716 Z"/></clipPath>
    <clipPath id="z36485c20"><path d="M 701 704 Q 728 755 737 759 Q 744 762 750 755 Q 756 748 758 728 Q 759 700 697 652 Q 690 646 684 646 Q 680 647 678 655 Q 678 659 691 686 C 698 698 698 698 701 704 Z"/></clipPath>
</defs>
<g id="bg-layer">
    <path class="bg" d="M 197 185 Q 187 181 158 177 Q 148 174 144 179 Q 140 185 147 199 Q 172 245 191 324 Q 195 346 209 362 Q 225 381 230 367 Q 233 357 232 338 C 229 319 229 319 227 310 Q 211 234 209 210 C 207 201 206 188 197 185 Z"/>
    <path class="bg" d="M 376 286 Q 394 222 414 203 Q 435 179 413 166 Q 395 156 370 139 Q 352 127 310 153 Q 253 172 197 185 C 188 187 200 212 209 210 Q 258 198 310 186 Q 335 180 342 190 Q 348 194 342 223 Q 335 248 328 280 C 325 296 373 302 376 286 Z"/>
    <path class="bg" d="M 289 327 Q 325 318 383 311 Q 392 310 393 302 Q 393 295 376 286 C 362 278 343 274 328 280 Q 327 280 325 281 Q 270 299 227 310 C 218 312 223 338 232 338 Q 239 339 249 336 Q 250 335 253 336 C 277 330 277 330 289 327 Z"/>
    <path class="bg" d="M 313 619 Q 314 549 316 488 C 316 468 316 468 316 458 Q 319 353 318 350 C 317 349 317 349 317 349 Q 302 336 289 327 C 279 319 248 325 253 336 Q 266 360 270 462 Q 270 522 272 633 C 272 647 313 633 313 619 Z"/>
    <path class="bg" d="M 316 488 Q 359 476 395 469 Q 414 465 406 454 Q 396 444 374 442 Q 355 441 321 455 Q 318 456 316 458 C 307 463 306 490 316 488 Z"/>
    <path class="bg" d="M 207 654 Q 195 524 198 509 Q 199 490 186 479 Q 165 466 141 459 Q 128 455 121 461 Q 114 467 121 479 Q 148 522 171 666 C 173 678 207 667 207 654 Z"/>
    <path class="bg" d="M 171 666 Q 149 672 130 679 Q 111 685 80 685 Q 67 686 66 697 Q 65 710 74 718 Q 96 734 130 751 Q 140 754 152 745 Q 273 678 397 609 Q 410 602 410 592 Q 404 586 392 590 Q 353 603 313 619 C 286 628 286 628 272 633 Q 239 643 207 654 C 183 662 183 662 171 666 Z"/>
    <path class="bg" d="M 492 127 Q 483 123 459 121 Q 449 120 446 124 Q 442 130 450 142 Q 475 185 495 259 Q 499 281 514 295 Q 518 299 522 302 C 524 304 531 304 532 301 Q 532 300 533 299 Q 534 293 535 285 C 536 278 534 272 533 265 Q 532 258 530 250 Q 514 183 509 157 C 507 146 503 131 492 127 Z"/>
    <path class="bg" d="M 759 260 Q 772 282 785 290 Q 792 297 808 280 Q 818 267 846 193 Q 856 166 878 145 Q 890 135 880 122 Q 867 106 831 81 Q 816 72 746 87 Q 734 87 599 110 Q 541 120 492 127 C 481 129 498 157 509 157 Q 513 157 520 156 Q 547 149 583 142 C 596 140 596 140 602 139 Q 636 132 678 126 C 701 123 701 123 713 121 Q 780 106 798 122 Q 805 132 802 140 Q 786 213 778 224 Q 775 233 758 237 C 751 240 754 254 759 260 Z"/>
    <path class="bg" d="M 623 246 Q 623 245 624 242 Q 625 227 608 154 Q 607 145 602 139 C 599 134 583 136 583 142 Q 583 229 608 249 C 612 253 622 251 623 246 Z"/>
    <path class="bg" d="M 699 230 Q 699 224 728 142 Q 731 136 721 127 Q 717 123 713 121 C 703 115 674 115 678 126 Q 685 138 672 235 C 670 244 697 239 699 230 Z"/>
    <path class="bg" d="M 535 285 Q 545 289 563 287 Q 674 271 755 261 Q 756 260 759 260 C 767 258 765 241 758 237 Q 749 230 737 228 Q 721 225 699 230 C 681 233 681 233 672 235 Q 645 241 623 246 C 613 248 613 248 608 249 Q 568 256 533 265 C 526 266 528 284 535 285 Z"/>
    <path class="bg" d="M 522 302 Q 518 305 521 315 Q 530 342 442 449 Q 435 455 433 458 Q 430 465 439 464 Q 452 464 521 406 C 536 391 536 391 544 383 Q 553 367 571 356 Q 578 350 576 341 Q 575 332 557 315 Q 544 305 532 301 C 529 300 523 299 522 302 Z"/>
    <path class="bg" d="M 521 406 Q 537 409 558 408 C 581 406 581 406 593 405 Q 770 377 795 376 Q 808 376 814 382 Q 836 424 826 630 Q 819 732 789 794 Q 776 828 756 830 Q 746 834 681 821 Q 671 818 671 824 Q 671 828 682 837 Q 722 876 740 904 Q 750 922 761 921 Q 780 922 799 900 Q 863 845 879 700 Q 889 603 890 457 Q 890 424 909 398 Q 922 385 921 376 Q 920 369 900 356 Q 873 337 838 327 Q 819 321 727 347 Q 723 347 720 349 Q 639 367 544 383 C 533 385 510 404 521 406 Z"/>
    <path class="bg" d="M 479 507 Q 470 503 448 502 Q 438 501 436 504 Q 432 510 439 521 Q 461 555 479 615 Q 483 633 494 644 Q 510 660 513 647 Q 514 641 514 634 C 512 617 512 617 511 609 Q 499 555 494 533 C 492 523 488 511 479 507 Z"/>
    <path class="bg" d="M 576 491 Q 530 498 479 507 C 469 509 484 535 494 533 Q 501 532 511 529 Q 542 522 576 516 C 605 510 605 510 619 507 Q 679 494 689 502 Q 695 508 693 520 Q 687 548 680 574 C 676 587 716 591 721 578 Q 740 532 764 518 Q 777 503 766 489 Q 706 441 655 467 Q 636 473 619 479 C 590 487 590 487 576 491 Z"/>
    <path class="bg" d="M 514 634 Q 515 634 578 625 C 604 621 604 621 617 619 Q 663 610 730 604 Q 739 603 740 596 Q 740 590 721 578 C 709 571 694 572 680 574 Q 646 580 617 589 C 591 595 591 595 578 598 Q 542 604 511 609 C 503 610 506 636 514 634 Z"/>
    <path class="bg" d="M 558 408 Q 570 432 576 491 C 576 508 576 508 576 516 Q 576 547 578 598 C 578 616 578 616 578 625 Q 578 664 578 716 C 578 729 615 719 615 706 Q 616 660 617 619 C 617 599 617 599 617 589 Q 618 546 619 507 C 619 488 619 488 619 479 Q 619 476 620 475 Q 623 432 619 426 Q 606 413 593 405 C 583 399 554 397 558 408 Z"/>
    <path class="bg" d="M 578 716 Q 526 726 471 740 Q 455 744 427 742 Q 417 743 414 751 Q 413 761 419 769 Q 438 784 464 801 Q 471 804 482 797 Q 515 776 671 718 Q 687 711 701 704 C 707 701 698 685 691 686 Q 654 695 615 706 C 590 713 590 713 578 716 Z"/>
    <path class="bg" d="M 701 704 Q 728 755 737 759 Q 744 762 750 755 Q 756 748 758 728 Q 759 700 697 652 Q 690 646 684 646 Q 680 647 678 655 Q 678 659 691 686 C 698 698 698 698 701 704 Z"/>
</g>
<g id="anim-layer">
    <path style="--d:1s; stroke:#FF4444;" pathLength="3333" clip-path="url(#z36485c1)" d="M 151 187 L 184 217 L 221 366"/>
    <path style="--d:2s; stroke:#FF4444;" pathLength="3333" clip-path="url(#z36485c2)" d="M 206 191 L 360 166 L 384 191 L 351 282"/>
    <path style="--d:3s; stroke:#FF4444;" pathLength="3333" clip-path="url(#z36485c3)" d="M 234 312 L 386 301"/>
    <path style="--d:4s; stroke:#FF4444;" pathLength="3333" clip-path="url(#z36485c4)" d="M 260 338 L 291 365 L 282 628"/>
    <path style="--d:5s; stroke:#FF4444;" pathLength="3333" clip-path="url(#z36485c5)" d="M 321 479 L 403 458"/>
    <path style="--d:6s; stroke:#FF4444;" pathLength="3333" clip-path="url(#z36485c6)" d="M 125 469 L 167 507 L 182 662"/>
    <path style="--d:7s; stroke:#FF4444;" pathLength="3333" clip-path="url(#z36485c7)" d="M 71 700 L 133 715 L 405 597"/>
    <path style="--d:8s; stroke:#000;" pathLength="3333" clip-path="url(#z36485c8)" d="M 452 128 L 485 162 L 524 298"/>
    <path style="--d:9s; stroke:#000;" pathLength="3333" clip-path="url(#z36485c9)" d="M 502 131 L 813 100 L 842 138 L 778 282"/>
    <path style="--d:10s; stroke:#000;" pathLength="3333" clip-path="url(#z36485c10)" d="M 596 146 L 614 244"/>
    <path style="--d:11s; stroke:#000;" pathLength="3333" clip-path="url(#z36485c11)" d="M 685 130 L 704 157 L 682 230"/>
    <path style="--d:12s; stroke:#000;" pathLength="3333" clip-path="url(#z36485c12)" d="M 540 272 L 757 248"/>
    <path style="--d:13s; stroke:#000;" pathLength="3333" clip-path="url(#z36485c13)" d="M 528 312 L 543 351 L 443 455"/>
    <path style="--d:14s; stroke:#000;" pathLength="3333" clip-path="url(#z36485c14)" d="M 536 399 L 812 352 L 870 389 L 847 711 L 819 810 L 760 875 L 677 827"/>
    <path style="--d:15s; stroke:#000;" pathLength="3333" clip-path="url(#z36485c15)" d="M 444 511 L 476 544 L 508 645"/>
    <path style="--d:16s; stroke:#000;" pathLength="3333" clip-path="url(#z36485c16)" d="M 487 509 L 701 481 L 731 509 L 692 572"/>
    <path style="--d:17s; stroke:#000;" pathLength="3333" clip-path="url(#z36485c17)" d="M 518 612 L 735 594"/>
    <path style="--d:18s; stroke:#000;" pathLength="3333" clip-path="url(#z36485c18)" d="M 566 412 L 595 440 L 593 711"/>
    <path style="--d:19s; stroke:#000;" pathLength="3333" clip-path="url(#z36485c19)" d="M 418 754 L 470 771 L 695 694"/>
    <path style="--d:20s; stroke:#000;" pathLength="3333" clip-path="url(#z36485c20)" d="M 686 655 L 746 750"/>
</g>
</svg>