<svg id="z36749" class="acjk" viewBox="0 0 1024 1024" xmlns="http://www.w3.org/2000/svg">

<style>
<![CDATA[
@keyframes zk { to { stroke-dashoffset:0; } }
svg.acjk path[clip-path] {
    --t:0.8s;
    animation:zk var(--t) linear forwards var(--d);
    stroke-dasharray:3337;
    stroke-dashoffset:3339;
    stroke-width:128;
    stroke-linecap:round;
    fill:none;
}
/* Low opacity for background improves visual overlap at intersections */
svg.acjk .bg { fill:#ccc; opacity: 0.5; } 
]]>
</style>
<defs>
    <clipPath id="z36749c1"><path d="M 277 283 Q 416 244 420 242 Q 427 235 423 227 Q 416 217 389 211 Q 361 207 299 232 C 263 244 263 244 245 250 Q 196 262 143 270 Q 109 277 134 291 Q 173 309 226 295 Q 227 295 231 295 C 262 287 262 287 277 283 Z"/></clipPath>
    <clipPath id="z36749c2"><path d="M 341 479 Q 372 470 404 468 Q 432 465 424 451 Q 414 439 398 433 Q 386 429 343 443 C 314 451 314 451 299 455 Q 211 473 208 472 Q 202 460 277 283 C 292 249 292 249 299 232 Q 329 163 343 151 Q 355 139 339 120 Q 314 95 293 82 Q 280 75 270 77 Q 263 81 268 103 Q 278 137 245 250 C 236 280 236 280 231 295 Q 186 427 141 474 Q 126 490 131 505 Q 138 524 149 535 Q 159 544 169 538 Q 224 505 299 490 C 327 483 327 483 341 479 Z"/></clipPath>
    <clipPath id="z36749c3"><path d="M 292 637 Q 283 778 272 806 Q 263 840 294 889 Q 304 905 311 910 Q 321 911 327 899 Q 339 871 336 842 Q 335 718 337 611 C 337 590 337 590 337 579 Q 338 560 339 543 Q 340 507 341 479 C 342 455 342 455 343 443 Q 344 415 349 397 Q 350 385 345 380 Q 323 361 306 351 Q 294 348 286 355 Q 280 358 287 367 Q 297 385 299 455 C 299 478 299 478 299 490 Q 298 536 295 597 C 293 624 293 624 292 637 Z"/></clipPath>
    <clipPath id="z36749c4"><path d="M 337 611 Q 341 608 346 606 Q 367 594 382 581 Q 394 572 393 564 Q 387 560 376 563 Q 357 570 337 579 C 309 591 309 591 295 597 Q 222 624 142 655 Q 126 662 97 663 Q 85 666 84 676 Q 83 689 93 695 Q 115 708 149 724 Q 159 725 169 716 Q 205 682 292 637 C 322 620 322 620 337 611 Z"/></clipPath>
    <clipPath id="z36749c5"><path d="M 575 373 Q 590 342 605 296 Q 615 272 632 256 Q 644 247 643 240 Q 642 230 616 221 Q 586 208 575 208 Q 566 209 558 218 Q 494 249 474 253 Q 446 254 444 262 Q 444 265 449 269 Q 461 276 485 278 Q 501 277 531 257 Q 549 248 558 252 Q 565 256 555 304 Q 551 329 539 355 C 528 377 528 377 522 388 Q 497 434 440 476 Q 433 480 435 484 Q 436 488 441 486 Q 498 471 551 412 C 567 386 567 386 575 373 Z"/></clipPath>
    <clipPath id="z36749c6"><path d="M 551 412 Q 584 439 591 441 Q 595 441 600 434 Q 607 425 596 399 Q 593 392 575 373 C 566 364 551 360 539 355 Q 503 342 468 328 Q 462 325 462 333 Q 462 339 522 388 C 541 404 541 404 551 412 Z"/></clipPath>
    <clipPath id="z36749c7"><path d="M 778 351 Q 800 314 820 256 Q 830 231 851 214 Q 863 207 862 198 Q 861 188 835 176 Q 804 160 791 161 Q 782 162 773 171 Q 700 202 685 206 Q 654 207 652 214 Q 651 217 657 221 Q 670 231 695 233 Q 713 230 742 212 Q 761 202 771 208 Q 778 211 766 263 Q 765 270 740 333 C 727 354 727 354 721 365 Q 679 420 628 456 Q 621 460 623 464 Q 624 468 630 467 Q 699 451 751 390 C 769 364 769 364 778 351 Z"/></clipPath>
    <clipPath id="z36749c8"><path d="M 751 390 Q 844 460 845 462 Q 852 462 856 454 Q 865 442 852 410 Q 842 382 778 351 C 753 339 753 339 740 333 Q 691 309 662 299 Q 655 296 654 306 Q 654 315 721 365 C 741 382 741 382 751 390 Z"/></clipPath>
    <clipPath id="z36749c9"><path d="M 544 676 Q 562 645 580 601 Q 590 579 610 563 Q 620 556 620 548 Q 619 538 596 527 Q 568 512 556 513 Q 547 514 538 522 Q 465 553 451 557 Q 423 558 420 566 Q 420 569 425 573 Q 437 580 461 583 Q 480 580 511 561 Q 527 554 536 558 Q 542 562 530 605 Q 523 630 509 657 C 498 676 498 676 492 685 Q 450 742 392 776 Q 385 780 387 784 Q 388 788 393 787 Q 453 783 519 711 C 536 688 536 688 544 676 Z"/></clipPath>
    <clipPath id="z36749c10"><path d="M 519 711 Q 564 756 576 758 Q 588 759 592 756 Q 598 749 593 731 Q 584 698 544 676 C 521 663 521 663 509 657 Q 463 632 449 629 Q 442 630 445 636 Q 445 637 492 685 C 510 702 510 702 519 711 Z"/></clipPath>
    <clipPath id="z36749c11"><path d="M 760 703 Q 788 655 806 583 Q 810 552 825 536 Q 838 523 822 510 Q 803 498 773 489 Q 754 485 737 495 Q 716 511 685 523 Q 663 526 653 533 Q 646 539 662 546 Q 689 558 733 534 Q 751 527 752 548 Q 752 600 725 669 C 712 694 712 694 705 707 Q 669 761 567 799 Q 554 803 563 810 Q 570 814 594 809 Q 684 796 731 746 C 750 717 750 717 760 703 Z"/></clipPath>
    <clipPath id="z36749c12"><path d="M 731 746 Q 761 786 809 839 Q 831 858 867 853 Q 913 847 948 843 Q 958 842 969 838 Q 976 832 967 824 Q 955 817 860 772 Q 818 754 760 703 C 737 680 737 680 725 669 Q 700 641 671 604 Q 658 586 633 581 Q 624 580 617 583 Q 613 589 619 595 Q 623 599 630 604 Q 645 613 705 707 C 722 733 722 733 731 746 Z"/></clipPath>
</defs>
<g id="bg-layer">
    <path class="bg" d="M 277 283 Q 416 244 420 242 Q 427 235 423 227 Q 416 217 389 211 Q 361 207 299 232 C 263 244 263 244 245 250 Q 196 262 143 270 Q 109 277 134 291 Q 173 309 226 295 Q 227 295 231 295 C 262 287 262 287 277 283 Z"/>
    <path class="bg" d="M 341 479 Q 372 470 404 468 Q 432 465 424 451 Q 414 439 398 433 Q 386 429 343 443 C 314 451 314 451 299 455 Q 211 473 208 472 Q 202 460 277 283 C 292 249 292 249 299 232 Q 329 163 343 151 Q 355 139 339 120 Q 314 95 293 82 Q 280 75 270 77 Q 263 81 268 103 Q 278 137 245 250 C 236 280 236 280 231 295 Q 186 427 141 474 Q 126 490 131 505 Q 138 524 149 535 Q 159 544 169 538 Q 224 505 299 490 C 327 483 327 483 341 479 Z"/>
    <path class="bg" d="M 292 637 Q 283 778 272 806 Q 263 840 294 889 Q 304 905 311 910 Q 321 911 327 899 Q 339 871 336 842 Q 335 718 337 611 C 337 590 337 590 337 579 Q 338 560 339 543 Q 340 507 341 479 C 342 455 342 455 343 443 Q 344 415 349 397 Q 350 385 345 380 Q 323 361 306 351 Q 294 348 286 355 Q 280 358 287 367 Q 297 385 299 455 C 299 478 299 478 299 490 Q 298 536 295 597 C 293 624 293 624 292 637 Z"/>
    <path class="bg" d="M 337 611 Q 341 608 346 606 Q 367 594 382 581 Q 394 572 393 564 Q 387 560 376 563 Q 357 570 337 579 C 309 591 309 591 295 597 Q 222 624 142 655 Q 126 662 97 663 Q 85 666 84 676 Q 83 689 93 695 Q 115 708 149 724 Q 159 725 169 716 Q 205 682 292 637 C 322 620 322 620 337 611 Z"/>
    <path class="bg" d="M 575 373 Q 590 342 605 296 Q 615 272 632 256 Q 644 247 643 240 Q 642 230 616 221 Q 586 208 575 208 Q 566 209 558 218 Q 494 249 474 253 Q 446 254 444 262 Q 444 265 449 269 Q 461 276 485 278 Q 501 277 531 257 Q 549 248 558 252 Q 565 256 555 304 Q 551 329 539 355 C 528 377 528 377 522 388 Q 497 434 440 476 Q 433 480 435 484 Q 436 488 441 486 Q 498 471 551 412 C 567 386 567 386 575 373 Z"/>
    <path class="bg" d="M 551 412 Q 584 439 591 441 Q 595 441 600 434 Q 607 425 596 399 Q 593 392 575 373 C 566 364 551 360 539 355 Q 503 342 468 328 Q 462 325 462 333 Q 462 339 522 388 C 541 404 541 404 551 412 Z"/>
    <path class="bg" d="M 778 351 Q 800 314 820 256 Q 830 231 851 214 Q 863 207 862 198 Q 861 188 835 176 Q 804 160 791 161 Q 782 162 773 171 Q 700 202 685 206 Q 654 207 652 214 Q 651 217 657 221 Q 670 231 695 233 Q 713 230 742 212 Q 761 202 771 208 Q 778 211 766 263 Q 765 270 740 333 C 727 354 727 354 721 365 Q 679 420 628 456 Q 621 460 623 464 Q 624 468 630 467 Q 699 451 751 390 C 769 364 769 364 778 351 Z"/>
    <path class="bg" d="M 751 390 Q 844 460 845 462 Q 852 462 856 454 Q 865 442 852 410 Q 842 382 778 351 C 753 339 753 339 740 333 Q 691 309 662 299 Q 655 296 654 306 Q 654 315 721 365 C 741 382 741 382 751 390 Z"/>
    <path class="bg" d="M 544 676 Q 562 645 580 601 Q 590 579 610 563 Q 620 556 620 548 Q 619 538 596 527 Q 568 512 556 513 Q 547 514 538 522 Q 465 553 451 557 Q 423 558 420 566 Q 420 569 425 573 Q 437 580 461 583 Q 480 580 511 561 Q 527 554 536 558 Q 542 562 530 605 Q 523 630 509 657 C 498 676 498 676 492 685 Q 450 742 392 776 Q 385 780 387 784 Q 388 788 393 787 Q 453 783 519 711 C 536 688 536 688 544 676 Z"/>
    <path class="bg" d="M 519 711 Q 564 756 576 758 Q 588 759 592 756 Q 598 749 593 731 Q 584 698 544 676 C 521 663 521 663 509 657 Q 463 632 449 629 Q 442 630 445 636 Q 445 637 492 685 C 510 702 510 702 519 711 Z"/>
    <path class="bg" d="M 760 703 Q 788 655 806 583 Q 810 552 825 536 Q 838 523 822 510 Q 803 498 773 489 Q 754 485 737 495 Q 716 511 685 523 Q 663 526 653 533 Q 646 539 662 546 Q 689 558 733 534 Q 751 527 752 548 Q 752 600 725 669 C 712 694 712 694 705 707 Q 669 761 567 799 Q 554 803 563 810 Q 570 814 594 809 Q 684 796 731 746 C 750 717 750 717 760 703 Z"/>
    <path class="bg" d="M 731 746 Q 761 786 809 839 Q 831 858 867 853 Q 913 847 948 843 Q 958 842 969 838 Q 976 832 967 824 Q 955 817 860 772 Q 818 754 760 703 C 737 680 737 680 725 669 Q 700 641 671 604 Q 658 586 633 581 Q 624 580 617 583 Q 613 589 619 595 Q 623 599 630 604 Q 645 613 705 707 C 722 733 722 733 731 746 Z"/>
</g>
<g id="anim-layer">
    <path style="--d:1s; stroke:#FF4444;" pathLength="3333" clip-path="url(#z36749c1)" d="M 135 281 L 419 228"/>
    <path style="--d:2s; stroke:#FF4444;" pathLength="3333" clip-path="url(#z36749c2)" d="M 274 83 L 308 143 L 173 488 L 189 505 L 421 454"/>
    <path style="--d:3s; stroke:#FF4444;" pathLength="3333" clip-path="url(#z36749c3)" d="M 289 356 L 322 395 L 313 901"/>
    <path style="--d:4s; stroke:#FF4444;" pathLength="3333" clip-path="url(#z36749c4)" d="M 88 674 L 155 686 L 384 567"/>
    <path style="--d:5s; stroke:#000;" pathLength="3333" clip-path="url(#z36749c5)" d="M 452 261 L 567 230 L 601 255 L 532 406 L 445 480"/>
    <path style="--d:6s; stroke:#000;" pathLength="3333" clip-path="url(#z36749c6)" d="M 472 337 L 595 431"/>
    <path style="--d:7s; stroke:#000;" pathLength="3333" clip-path="url(#z36749c7)" d="M 660 215 L 783 185 L 817 212 L 737 376 L 633 460"/>
    <path style="--d:8s; stroke:#000;" pathLength="3333" clip-path="url(#z36749c8)" d="M 661 306 L 817 406 L 853 454"/>
    <path style="--d:9s; stroke:#000;" pathLength="3333" clip-path="url(#z36749c9)" d="M 431 568 L 544 537 L 578 558 L 506 697 L 396 781"/>
    <path style="--d:10s; stroke:#000;" pathLength="3333" clip-path="url(#z36749c10)" d="M 452 636 L 587 753"/>
    <path style="--d:11s; stroke:#000;" pathLength="3333" clip-path="url(#z36749c11)" d="M 662 537 L 754 512 L 790 532 L 762 640 L 702 744 L 565 805"/>
    <path style="--d:12s; stroke:#000;" pathLength="3333" clip-path="url(#z36749c12)" d="M 622 587 L 833 805 L 967 831"/>
</g>
</svg>