<svg id="z36758" class="acjk" viewBox="0 0 1024 1024" xmlns="http://www.w3.org/2000/svg">

<style>
<![CDATA[
@keyframes zk { to { stroke-dashoffset:0; } }
svg.acjk path[clip-path] {
    --t:0.8s;
    animation:zk var(--t) linear forwards var(--d);
    stroke-dasharray:3337;
    stroke-dashoffset:3339;
    stroke-width:128;
    stroke-linecap:round;
    fill:none;
}
/* Low opacity for background improves visual overlap at intersections */
svg.acjk .bg { fill:#ccc; opacity: 0.5; } 
]]>
</style>
<defs>
    <clipPath id="z36758c1"><path d="M 287 298 Q 335 285 388 274 Q 422 264 428 259 Q 435 252 431 243 Q 424 233 396 226 Q 371 223 312 244 C 278 255 278 255 261 260 Q 257 260 255 261 Q 209 273 152 280 Q 116 287 143 302 Q 182 326 237 309 Q 238 308 244 308 C 273 301 273 301 287 298 Z"/></clipPath>
    <clipPath id="z36758c2"><path d="M 350 497 Q 390 487 428 484 Q 456 481 448 467 Q 438 455 422 449 Q 407 443 352 463 C 321 471 321 471 306 475 Q 269 482 227 492 Q 214 495 213 492 Q 212 491 213 480 Q 244 396 287 298 C 304 262 304 262 312 244 Q 342 168 366 144 Q 379 132 362 113 Q 337 86 318 74 Q 305 67 295 69 Q 286 73 292 94 Q 299 130 261 260 C 250 292 250 292 244 308 Q 183 456 146 494 Q 131 510 136 525 Q 143 544 153 554 Q 163 564 173 559 Q 209 537 301 510 Q 302 509 306 509 C 335 501 335 501 350 497 Z"/></clipPath>
    <clipPath id="z36758c3"><path d="M 300 662 Q 291 794 282 825 Q 273 862 305 912 Q 315 930 324 934 Q 334 935 340 923 Q 352 892 349 862 Q 346 744 347 639 C 348 617 348 617 348 606 Q 348 534 350 497 C 351 474 351 474 352 463 Q 353 432 358 415 Q 361 403 354 397 Q 332 378 312 368 Q 302 364 292 371 Q 286 375 293 384 Q 305 403 306 475 C 306 498 306 498 306 509 Q 305 555 303 616 Q 302 619 302 622 C 301 649 301 649 300 662 Z"/></clipPath>
    <clipPath id="z36758c4"><path d="M 347 639 Q 416 600 417 600 Q 430 593 429 584 Q 425 580 413 582 Q 382 592 348 606 C 317 617 317 617 302 622 Q 223 647 136 676 Q 117 683 84 683 Q 72 684 71 695 Q 70 708 78 715 Q 100 730 132 747 Q 142 750 153 741 Q 204 702 300 662 C 331 647 331 647 347 639 Z"/></clipPath>
    <clipPath id="z36758c5"><path d="M 620 137 Q 641 155 663 176 Q 679 189 696 188 Q 708 187 712 172 Q 716 156 705 123 Q 693 96 612 84 Q 594 81 588 85 Q 582 89 585 103 Q 589 116 620 137 Z"/></clipPath>
    <clipPath id="z36758c6"><path d="M 518 256 Q 503 232 492 225 Q 489 221 484 225 Q 480 228 478 238 Q 482 269 451 335 Q 441 350 442 367 Q 445 385 453 398 Q 460 408 465 402 Q 477 399 493 353 Q 509 307 518 291 Q 521 287 523 282 C 526 274 523 263 518 256 Z"/></clipPath>
    <clipPath id="z36758c7"><path d="M 523 282 Q 538 288 586 275 Q 670 245 774 235 Q 781 234 787 235 Q 799 242 797 249 Q 798 252 794 262 Q 770 314 777 319 Q 783 323 796 313 Q 839 285 875 275 Q 905 266 904 259 Q 903 252 843 209 Q 824 194 733 215 Q 679 221 518 256 C 509 257 514 280 523 282 Z"/></clipPath>
    <clipPath id="z36758c8"><path d="M 667 417 Q 787 387 792 383 Q 799 376 795 369 Q 788 360 765 355 Q 740 351 717 361 Q 693 370 671 378 C 637 387 637 387 620 392 Q 580 399 538 406 Q 508 412 530 424 Q 560 439 622 428 C 652 421 652 421 667 417 Z"/></clipPath>
    <clipPath id="z36758c9"><path d="M 661 517 Q 700 507 741 498 Q 771 491 775 487 Q 782 480 779 473 Q 772 464 749 459 Q 721 453 664 477 C 636 485 636 485 622 489 Q 585 496 542 502 Q 514 508 534 521 Q 570 540 622 525 C 648 520 648 520 661 517 Z"/></clipPath>
    <clipPath id="z36758c10"><path d="M 654 610 Q 724 594 840 591 Q 888 591 892 582 Q 896 572 882 560 Q 836 530 779 544 Q 730 556 657 572 C 632 577 632 577 620 579 Q 547 592 462 608 Q 444 611 458 625 Q 488 647 518 639 Q 564 623 619 615 C 642 612 642 612 654 610 Z"/></clipPath>
    <clipPath id="z36758c11"><path d="M 657 572 Q 658 544 661 517 C 663 490 663 490 664 477 Q 667 426 667 417 C 670 391 670 391 671 378 Q 672 362 676 351 Q 683 335 673 325 Q 660 312 636 301 Q 617 294 598 301 Q 588 308 600 322 Q 609 344 620 392 C 621 416 621 416 622 428 Q 622 456 622 489 C 622 513 622 513 622 525 Q 621 553 620 579 C 619 603 619 603 619 615 Q 619 645 625 662 Q 631 672 639 666 Q 648 656 654 610 C 656 585 656 585 657 572 Z"/></clipPath>
    <clipPath id="z36758c12"><path d="M 533 711 Q 521 707 500 703 Q 488 700 485 705 Q 478 712 487 728 Q 512 780 529 866 Q 533 891 548 909 Q 566 931 571 915 Q 575 905 574 887 C 572 864 572 864 571 853 Q 558 768 555 742 C 553 730 545 713 533 711 Z"/></clipPath>
    <clipPath id="z36758c13"><path d="M 791 835 Q 818 757 848 735 Q 864 716 850 699 Q 780 641 723 669 Q 651 694 533 711 C 521 713 543 744 555 742 Q 742 703 754 713 Q 763 720 761 738 Q 754 784 743 824 C 738 840 785 850 791 835 Z"/></clipPath>
    <clipPath id="z36758c14"><path d="M 574 887 Q 581 887 591 886 Q 657 873 799 866 Q 809 865 811 856 Q 811 849 791 835 C 777 827 759 824 743 824 Q 739 824 735 825 Q 644 844 571 853 C 560 855 563 887 574 887 Z"/></clipPath>
</defs>
<g id="bg-layer">
    <path class="bg" d="M 287 298 Q 335 285 388 274 Q 422 264 428 259 Q 435 252 431 243 Q 424 233 396 226 Q 371 223 312 244 C 278 255 278 255 261 260 Q 257 260 255 261 Q 209 273 152 280 Q 116 287 143 302 Q 182 326 237 309 Q 238 308 244 308 C 273 301 273 301 287 298 Z"/>
    <path class="bg" d="M 350 497 Q 390 487 428 484 Q 456 481 448 467 Q 438 455 422 449 Q 407 443 352 463 C 321 471 321 471 306 475 Q 269 482 227 492 Q 214 495 213 492 Q 212 491 213 480 Q 244 396 287 298 C 304 262 304 262 312 244 Q 342 168 366 144 Q 379 132 362 113 Q 337 86 318 74 Q 305 67 295 69 Q 286 73 292 94 Q 299 130 261 260 C 250 292 250 292 244 308 Q 183 456 146 494 Q 131 510 136 525 Q 143 544 153 554 Q 163 564 173 559 Q 209 537 301 510 Q 302 509 306 509 C 335 501 335 501 350 497 Z"/>
    <path class="bg" d="M 300 662 Q 291 794 282 825 Q 273 862 305 912 Q 315 930 324 934 Q 334 935 340 923 Q 352 892 349 862 Q 346 744 347 639 C 348 617 348 617 348 606 Q 348 534 350 497 C 351 474 351 474 352 463 Q 353 432 358 415 Q 361 403 354 397 Q 332 378 312 368 Q 302 364 292 371 Q 286 375 293 384 Q 305 403 306 475 C 306 498 306 498 306 509 Q 305 555 303 616 Q 302 619 302 622 C 301 649 301 649 300 662 Z"/>
    <path class="bg" d="M 347 639 Q 416 600 417 600 Q 430 593 429 584 Q 425 580 413 582 Q 382 592 348 606 C 317 617 317 617 302 622 Q 223 647 136 676 Q 117 683 84 683 Q 72 684 71 695 Q 70 708 78 715 Q 100 730 132 747 Q 142 750 153 741 Q 204 702 300 662 C 331 647 331 647 347 639 Z"/>
    <path class="bg" d="M 620 137 Q 641 155 663 176 Q 679 189 696 188 Q 708 187 712 172 Q 716 156 705 123 Q 693 96 612 84 Q 594 81 588 85 Q 582 89 585 103 Q 589 116 620 137 Z"/>
    <path class="bg" d="M 518 256 Q 503 232 492 225 Q 489 221 484 225 Q 480 228 478 238 Q 482 269 451 335 Q 441 350 442 367 Q 445 385 453 398 Q 460 408 465 402 Q 477 399 493 353 Q 509 307 518 291 Q 521 287 523 282 C 526 274 523 263 518 256 Z"/>
    <path class="bg" d="M 523 282 Q 538 288 586 275 Q 670 245 774 235 Q 781 234 787 235 Q 799 242 797 249 Q 798 252 794 262 Q 770 314 777 319 Q 783 323 796 313 Q 839 285 875 275 Q 905 266 904 259 Q 903 252 843 209 Q 824 194 733 215 Q 679 221 518 256 C 509 257 514 280 523 282 Z"/>
    <path class="bg" d="M 667 417 Q 787 387 792 383 Q 799 376 795 369 Q 788 360 765 355 Q 740 351 717 361 Q 693 370 671 378 C 637 387 637 387 620 392 Q 580 399 538 406 Q 508 412 530 424 Q 560 439 622 428 C 652 421 652 421 667 417 Z"/>
    <path class="bg" d="M 661 517 Q 700 507 741 498 Q 771 491 775 487 Q 782 480 779 473 Q 772 464 749 459 Q 721 453 664 477 C 636 485 636 485 622 489 Q 585 496 542 502 Q 514 508 534 521 Q 570 540 622 525 C 648 520 648 520 661 517 Z"/>
    <path class="bg" d="M 654 610 Q 724 594 840 591 Q 888 591 892 582 Q 896 572 882 560 Q 836 530 779 544 Q 730 556 657 572 C 632 577 632 577 620 579 Q 547 592 462 608 Q 444 611 458 625 Q 488 647 518 639 Q 564 623 619 615 C 642 612 642 612 654 610 Z"/>
    <path class="bg" d="M 657 572 Q 658 544 661 517 C 663 490 663 490 664 477 Q 667 426 667 417 C 670 391 670 391 671 378 Q 672 362 676 351 Q 683 335 673 325 Q 660 312 636 301 Q 617 294 598 301 Q 588 308 600 322 Q 609 344 620 392 C 621 416 621 416 622 428 Q 622 456 622 489 C 622 513 622 513 622 525 Q 621 553 620 579 C 619 603 619 603 619 615 Q 619 645 625 662 Q 631 672 639 666 Q 648 656 654 610 C 656 585 656 585 657 572 Z"/>
    <path class="bg" d="M 533 711 Q 521 707 500 703 Q 488 700 485 705 Q 478 712 487 728 Q 512 780 529 866 Q 533 891 548 909 Q 566 931 571 915 Q 575 905 574 887 C 572 864 572 864 571 853 Q 558 768 555 742 C 553 730 545 713 533 711 Z"/>
    <path class="bg" d="M 791 835 Q 818 757 848 735 Q 864 716 850 699 Q 780 641 723 669 Q 651 694 533 711 C 521 713 543 744 555 742 Q 742 703 754 713 Q 763 720 761 738 Q 754 784 743 824 C 738 840 785 850 791 835 Z"/>
    <path class="bg" d="M 574 887 Q 581 887 591 886 Q 657 873 799 866 Q 809 865 811 856 Q 811 849 791 835 C 777 827 759 824 743 824 Q 739 824 735 825 Q 644 844 571 853 C 560 855 563 887 574 887 Z"/>
</g>
<g id="anim-layer">
    <path style="--d:1s; stroke:#FF4444;" pathLength="3333" clip-path="url(#z36758c1)" d="M 140 289 L 216 292 L 427 244"/>
    <path style="--d:2s; stroke:#FF4444;" pathLength="3333" clip-path="url(#z36758c2)" d="M 299 75 L 331 132 L 175 510 L 189 526 L 444 472"/>
    <path style="--d:3s; stroke:#FF4444;" pathLength="3333" clip-path="url(#z36758c3)" d="M 296 372 L 331 416 L 314 832 L 328 927"/>
    <path style="--d:4s; stroke:#FF4444;" pathLength="3333" clip-path="url(#z36758c4)" d="M 75 696 L 136 712 L 424 590"/>
    <path style="--d:5s; stroke:#000;" pathLength="3333" clip-path="url(#z36758c5)" d="M 592 92 L 671 136 L 702 180"/>
    <path style="--d:6s; stroke:#000;" pathLength="3333" clip-path="url(#z36758c6)" d="M 487 230 L 499 274 L 460 398"/>
    <path style="--d:7s; stroke:#000;" pathLength="3333" clip-path="url(#z36758c7)" d="M 524 261 L 803 221 L 849 261 L 784 313"/>
    <path style="--d:8s; stroke:#000;" pathLength="3333" clip-path="url(#z36758c8)" d="M 528 414 L 789 371"/>
    <path style="--d:9s; stroke:#000;" pathLength="3333" clip-path="url(#z36758c9)" d="M 536 511 L 775 477"/>
    <path style="--d:10s; stroke:#000;" pathLength="3333" clip-path="url(#z36758c10)" d="M 459 616 L 801 566 L 886 577"/>
    <path style="--d:11s; stroke:#000;" pathLength="3333" clip-path="url(#z36758c11)" d="M 602 310 L 645 347 L 635 661"/>
    <path style="--d:12s; stroke:#000;" pathLength="3333" clip-path="url(#z36758c12)" d="M 490 713 L 526 749 L 565 915"/>
    <path style="--d:13s; stroke:#000;" pathLength="3333" clip-path="url(#z36758c13)" d="M 543 713 L 765 686 L 808 724 L 766 828"/>
    <path style="--d:14s; stroke:#000;" pathLength="3333" clip-path="url(#z36758c14)" d="M 578 862 L 804 856"/>
</g>
</svg>