<svg id="z36767" class="acjk" viewBox="0 0 1024 1024" xmlns="http://www.w3.org/2000/svg">

<style>
<![CDATA[
@keyframes zk { to { stroke-dashoffset:0; } }
svg.acjk path[clip-path] {
    --t:0.8s;
    animation:zk var(--t) linear forwards var(--d);
    stroke-dasharray:3337;
    stroke-dashoffset:3339;
    stroke-width:128;
    stroke-linecap:round;
    fill:none;
}
/* Low opacity for background improves visual overlap at intersections */
svg.acjk .bg { fill:#ccc; opacity: 0.5; } 
]]>
</style>
<defs>
    <clipPath id="z36767c1"><path d="M 442 338 Q 466 272 494 248 Q 510 230 495 213 Q 479 201 428 179 Q 410 172 343 202 Q 301 214 260 227 C 249 231 261 261 272 259 Q 279 258 291 253 Q 400 229 404 232 Q 416 244 394 334 C 391 350 436 353 442 338 Z"/></clipPath>
    <clipPath id="z36767c2"><path d="M 247 403 Q 257 406 271 402 Q 329 386 457 371 Q 467 370 469 360 Q 469 353 442 338 C 428 330 409 328 394 334 Q 393 334 391 335 Q 313 357 252 370 C 241 372 236 401 247 403 Z"/></clipPath>
    <clipPath id="z36767c3"><path d="M 260 227 Q 218 194 199 202 Q 189 209 194 221 Q 233 284 171 529 Q 164 551 157 573 Q 133 637 55 764 Q 51 770 48 775 Q 45 785 55 783 Q 91 776 161 664 Q 170 648 179 630 Q 194 599 207 563 C 217 530 217 530 222 514 Q 241 430 247 403 C 250 381 250 381 252 370 Q 253 360 255 351 Q 264 266 272 259 C 278 249 269 234 260 227 Z"/></clipPath>
    <clipPath id="z36767c4"><path d="M 207 563 Q 225 617 235 697 Q 236 728 253 749 Q 269 770 275 755 Q 284 734 277 689 C 274 666 274 666 272 655 Q 262 571 260 547 C 258 537 254 524 244 520 Q 235 516 222 514 C 205 511 201 547 207 563 Z"/></clipPath>
    <clipPath id="z36767c5"><path d="M 434 635 Q 450 569 470 547 Q 492 522 469 508 Q 450 496 423 479 Q 404 469 386 480 Q 347 502 244 520 C 234 522 250 549 260 547 Q 266 546 276 544 Q 321 535 359 528 Q 384 524 391 534 Q 398 538 393 571 Q 389 598 384 629 C 381 645 431 651 434 635 Z"/></clipPath>
    <clipPath id="z36767c6"><path d="M 277 689 Q 283 689 291 687 Q 340 677 444 667 Q 454 666 456 656 Q 456 649 434 635 C 421 625 401 629 384 629 Q 381 628 379 629 Q 319 645 272 655 C 261 657 266 689 277 689 Z"/></clipPath>
    <clipPath id="z36767c7"><path d="M 630 103 Q 655 122 681 147 Q 697 160 713 159 Q 723 158 729 144 Q 733 128 722 97 Q 709 64 623 53 Q 607 49 600 53 Q 594 57 597 71 Q 601 81 630 103 Z"/></clipPath>
    <clipPath id="z36767c8"><path d="M 532 254 Q 495 261 523 277 Q 568 301 623 284 Q 711 262 804 239 Q 846 227 852 221 Q 861 212 856 204 Q 849 192 818 186 Q 787 182 756 195 Q 710 214 657 229 Q 600 244 532 254 Z"/></clipPath>
    <clipPath id="z36767c9"><path d="M 541 358 Q 577 434 598 442 Q 610 446 620 432 Q 624 420 621 400 Q 608 361 552 336 Q 545 332 540 342 Q 537 349 541 358 Z"/></clipPath>
    <clipPath id="z36767c10"><path d="M 725 438 Q 746 408 768 371 Q 778 355 795 334 Q 808 324 802 313 Q 793 297 767 277 Q 754 267 738 272 Q 728 276 733 287 Q 742 321 690 435 Q 687 441 685 448 C 680 461 717 449 725 438 Z"/></clipPath>
    <clipPath id="z36767c11"><path d="M 685 448 Q 598 466 498 487 Q 479 491 494 505 Q 524 527 565 515 Q 592 506 621 500 C 654 492 654 492 671 488 Q 713 470 897 458 Q 945 454 949 447 Q 953 437 938 425 Q 890 395 835 410 Q 790 422 725 438 C 698 445 698 445 685 448 Z"/></clipPath>
    <clipPath id="z36767c12"><path d="M 643 612 Q 576 624 498 640 Q 479 643 494 657 Q 507 669 524 672 Q 543 676 557 671 Q 597 658 643 650 C 682 643 682 643 701 640 Q 765 630 861 625 Q 906 625 913 615 Q 917 605 902 593 Q 845 560 787 579 Q 750 588 702 600 C 663 608 663 608 643 612 Z"/></clipPath>
    <clipPath id="z36767c13"><path d="M 621 500 Q 622 501 624 504 Q 642 535 642 596 Q 642 602 643 612 C 643 637 643 637 643 650 Q 643 933 655 955 Q 655 958 658 961 Q 664 968 671 966 Q 698 948 698 745 Q 698 705 701 640 C 702 613 702 613 702 600 Q 702 588 706 560 Q 713 515 701 506 Q 683 494 671 488 C 655 482 611 486 621 500 Z"/></clipPath>
</defs>
<g id="bg-layer">
    <path class="bg" d="M 442 338 Q 466 272 494 248 Q 510 230 495 213 Q 479 201 428 179 Q 410 172 343 202 Q 301 214 260 227 C 249 231 261 261 272 259 Q 279 258 291 253 Q 400 229 404 232 Q 416 244 394 334 C 391 350 436 353 442 338 Z"/>
    <path class="bg" d="M 247 403 Q 257 406 271 402 Q 329 386 457 371 Q 467 370 469 360 Q 469 353 442 338 C 428 330 409 328 394 334 Q 393 334 391 335 Q 313 357 252 370 C 241 372 236 401 247 403 Z"/>
    <path class="bg" d="M 260 227 Q 218 194 199 202 Q 189 209 194 221 Q 233 284 171 529 Q 164 551 157 573 Q 133 637 55 764 Q 51 770 48 775 Q 45 785 55 783 Q 91 776 161 664 Q 170 648 179 630 Q 194 599 207 563 C 217 530 217 530 222 514 Q 241 430 247 403 C 250 381 250 381 252 370 Q 253 360 255 351 Q 264 266 272 259 C 278 249 269 234 260 227 Z"/>
    <path class="bg" d="M 207 563 Q 225 617 235 697 Q 236 728 253 749 Q 269 770 275 755 Q 284 734 277 689 C 274 666 274 666 272 655 Q 262 571 260 547 C 258 537 254 524 244 520 Q 235 516 222 514 C 205 511 201 547 207 563 Z"/>
    <path class="bg" d="M 434 635 Q 450 569 470 547 Q 492 522 469 508 Q 450 496 423 479 Q 404 469 386 480 Q 347 502 244 520 C 234 522 250 549 260 547 Q 266 546 276 544 Q 321 535 359 528 Q 384 524 391 534 Q 398 538 393 571 Q 389 598 384 629 C 381 645 431 651 434 635 Z"/>
    <path class="bg" d="M 277 689 Q 283 689 291 687 Q 340 677 444 667 Q 454 666 456 656 Q 456 649 434 635 C 421 625 401 629 384 629 Q 381 628 379 629 Q 319 645 272 655 C 261 657 266 689 277 689 Z"/>
    <path class="bg" d="M 630 103 Q 655 122 681 147 Q 697 160 713 159 Q 723 158 729 144 Q 733 128 722 97 Q 709 64 623 53 Q 607 49 600 53 Q 594 57 597 71 Q 601 81 630 103 Z"/>
    <path class="bg" d="M 532 254 Q 495 261 523 277 Q 568 301 623 284 Q 711 262 804 239 Q 846 227 852 221 Q 861 212 856 204 Q 849 192 818 186 Q 787 182 756 195 Q 710 214 657 229 Q 600 244 532 254 Z"/>
    <path class="bg" d="M 541 358 Q 577 434 598 442 Q 610 446 620 432 Q 624 420 621 400 Q 608 361 552 336 Q 545 332 540 342 Q 537 349 541 358 Z"/>
    <path class="bg" d="M 725 438 Q 746 408 768 371 Q 778 355 795 334 Q 808 324 802 313 Q 793 297 767 277 Q 754 267 738 272 Q 728 276 733 287 Q 742 321 690 435 Q 687 441 685 448 C 680 461 717 449 725 438 Z"/>
    <path class="bg" d="M 685 448 Q 598 466 498 487 Q 479 491 494 505 Q 524 527 565 515 Q 592 506 621 500 C 654 492 654 492 671 488 Q 713 470 897 458 Q 945 454 949 447 Q 953 437 938 425 Q 890 395 835 410 Q 790 422 725 438 C 698 445 698 445 685 448 Z"/>
    <path class="bg" d="M 643 612 Q 576 624 498 640 Q 479 643 494 657 Q 507 669 524 672 Q 543 676 557 671 Q 597 658 643 650 C 682 643 682 643 701 640 Q 765 630 861 625 Q 906 625 913 615 Q 917 605 902 593 Q 845 560 787 579 Q 750 588 702 600 C 663 608 663 608 643 612 Z"/>
    <path class="bg" d="M 621 500 Q 622 501 624 504 Q 642 535 642 596 Q 642 602 643 612 C 643 637 643 637 643 650 Q 643 933 655 955 Q 655 958 658 961 Q 664 968 671 966 Q 698 948 698 745 Q 698 705 701 640 C 702 613 702 613 702 600 Q 702 588 706 560 Q 713 515 701 506 Q 683 494 671 488 C 655 482 611 486 621 500 Z"/>
</g>
<g id="anim-layer">
    <path style="--d:1s; stroke:#FF4444;" pathLength="3333" clip-path="url(#z36767c1)" d="M 259 238 L 405 205 L 434 216 L 454 243 L 408 344"/>
    <path style="--d:2s; stroke:#FF4444;" pathLength="3333" clip-path="url(#z36767c2)" d="M 247 393 L 410 354 L 463 362"/>
    <path style="--d:3s; stroke:#FF4444;" pathLength="3333" clip-path="url(#z36767c3)" d="M 202 208 L 240 255 L 202 499 L 149 643 L 53 774"/>
    <path style="--d:4s; stroke:#FF4444;" pathLength="3333" clip-path="url(#z36767c4)" d="M 221 518 L 263 753"/>
    <path style="--d:5s; stroke:#FF4444;" pathLength="3333" clip-path="url(#z36767c5)" d="M 248 526 L 411 508 L 437 530 L 407 642"/>
    <path style="--d:6s; stroke:#FF4444;" pathLength="3333" clip-path="url(#z36767c6)" d="M 270 674 L 450 654"/>
    <path style="--d:7s; stroke:#000;" pathLength="3333" clip-path="url(#z36767c7)" d="M 604 58 L 721 151"/>
    <path style="--d:8s; stroke:#000;" pathLength="3333" clip-path="url(#z36767c8)" d="M 519 263 L 602 265 L 853 205"/>
    <path style="--d:9s; stroke:#000;" pathLength="3333" clip-path="url(#z36767c9)" d="M 548 340 L 604 439"/>
    <path style="--d:10s; stroke:#000;" pathLength="3333" clip-path="url(#z36767c10)" d="M 739 280 L 767 324 L 692 448"/>
    <path style="--d:11s; stroke:#000;" pathLength="3333" clip-path="url(#z36767c11)" d="M 495 495 L 842 435 L 944 440"/>
    <path style="--d:12s; stroke:#000;" pathLength="3333" clip-path="url(#z36767c12)" d="M 497 648 L 814 600 L 907 611"/>
    <path style="--d:13s; stroke:#000;" pathLength="3333" clip-path="url(#z36767c13)" d="M 627 496 L 672 531 L 664 959"/>
</g>
</svg>