<svg id="z36924" class="acjk" viewBox="0 0 1024 1024" xmlns="http://www.w3.org/2000/svg">

<style>
<![CDATA[
@keyframes zk { to { stroke-dashoffset:0; } }
svg.acjk path[clip-path] {
    --t:0.8s;
    animation:zk var(--t) linear forwards var(--d);
    stroke-dasharray:3337;
    stroke-dashoffset:3339;
    stroke-width:128;
    stroke-linecap:round;
    fill:none;
}
/* Low opacity for background improves visual overlap at intersections */
svg.acjk .bg { fill:#ccc; opacity: 0.5; } 
]]>
</style>
<defs>
    <clipPath id="z36924c1"><path d="M 461 148 C 438 150 434 159 451 170 C 476 186 508 188 545 181 C 607 168 671 157 736 144 C 764 138 781 131 787 127 C 792 122 794 117 791 112 C 786 104 775 93 756 93 C 709 90 626 128 461 148 Z"/></clipPath>
    <clipPath id="z36924c2"><path d="M 505 267 C 497 262 482 258 461 256 C 436 252 443 268 449 278 C 463 306 476 343 485 390 C 487 404 494 414 501 425 C 515 446 519 437 525 421 C 528 410 525 399 524 389 C 518 346 512 309 513 296 C 513 286 514 271 505 267 Z"/></clipPath>
    <clipPath id="z36924c3"><path d="M 717 367 C 731 330 749 306 768 291 C 780 280 780 266 770 257 C 760 247 737 236 705 221 C 690 214 684 230 505 267 C 495 269 503 298 513 296 C 557 286 603 276 648 268 C 671 264 687 267 684 290 C 680 314 673 338 667 360 C 662 376 711 383 717 367 Z"/></clipPath>
    <clipPath id="z36924c4"><path d="M 525 421 C 538 420 667 401 725 396 C 749 390 733 376 717 367 C 703 358 684 357 667 360 C 619 369 567 381 524 389 C 513 391 515 423 525 421 Z"/></clipPath>
    <clipPath id="z36924c5"><path d="M 447 494 C 419 482 404 480 396 480 C 373 478 377 492 383 504 C 406 549 424 610 436 685 C 439 707 446 726 460 741 C 483 766 483 748 487 721 C 487 712 486 704 485 696 C 477 649 462 585 454 529 C 452 517 458 498 447 494 Z"/></clipPath>
    <clipPath id="z36924c6"><path d="M 742 695 C 748 743 760 755 791 721 C 802 707 811 654 831 570 C 836 547 847 528 864 511 C 872 502 873 493 865 484 C 854 471 834 456 804 440 C 790 432 778 434 767 437 C 661 461 542 476 447 494 C 435 496 442 531 454 529 C 494 519 546 509 580 504 C 608 499 608 499 622 497 C 650 492 703 486 732 483 C 748 481 778 488 775 520 C 770 555 760 657 743 673 C 738 679 741 688 742 695 Z"/></clipPath>
    <clipPath id="z36924c7"><path d="M 632 605 C 656 601 680 597 702 595 C 716 593 722 586 717 579 C 710 569 699 563 683 560 C 670 557 654 559 635 564 C 602 572 602 572 586 576 C 556 583 528 589 503 596 C 492 598 493 604 506 614 C 512 618 522 620 536 618 C 552 615 569 613 587 611 C 617 607 617 607 632 605 Z"/></clipPath>
    <clipPath id="z36924c8"><path d="M 629 674 C 629 649 630 626 632 605 C 634 578 634 578 635 564 C 638 511 645 515 622 497 C 611 488 575 491 580 504 C 586 517 585 559 586 576 C 587 599 587 599 587 611 C 587 629 587 652 589 680 C 589 693 629 687 629 674 Z"/></clipPath>
    <clipPath id="z36924c9"><path d="M 487 721 C 501 721 529 714 742 695 C 749 695 749 677 743 673 C 717 654 709 661 629 674 C 602 678 602 678 589 680 C 552 685 517 690 485 696 C 477 697 479 721 487 721 Z"/></clipPath>
    <clipPath id="z36924c10"><path d="M 241 178 C 259 193 277 211 295 229 C 305 239 315 243 327 243 C 335 242 341 237 345 227 C 348 216 346 200 340 179 C 332 156 297 139 236 126 C 225 123 217 122 212 125 C 207 127 205 133 208 143 C 209 151 222 162 241 178 Z"/></clipPath>
    <clipPath id="z36924c11"><path d="M 315 730 C 329 711 333 685 324 652 C 319 637 306 614 288 583 C 272 557 277 525 300 487 C 313 464 324 445 338 433 C 351 419 352 409 339 399 C 326 388 307 379 284 369 C 268 361 257 363 244 375 C 225 391 201 401 176 413 C 141 428 118 434 107 435 C 89 435 97 445 105 449 C 130 460 174 452 236 428 C 241 425 247 428 254 435 C 267 449 268 466 253 484 C 222 517 219 549 242 587 C 276 643 288 691 284 727 C 284 737 309 738 315 730 Z"/></clipPath>
    <clipPath id="z36924c12"><path d="M 284 727 C 247 727 222 729 192 741 C 167 750 137 755 102 763 C 78 767 90 781 98 789 C 109 801 123 811 140 818 C 147 821 157 817 170 808 C 215 773 262 758 308 767 C 352 775 417 801 505 842 C 651 910 754 940 812 923 C 855 909 898 886 932 864 C 947 853 947 847 931 848 C 788 853 654 838 529 800 C 450 775 407 754 315 730 C 304 727 294 726 284 727 Z"/></clipPath>
</defs>
<g id="bg-layer">
    <path class="bg" d="M 461 148 C 438 150 434 159 451 170 C 476 186 508 188 545 181 C 607 168 671 157 736 144 C 764 138 781 131 787 127 C 792 122 794 117 791 112 C 786 104 775 93 756 93 C 709 90 626 128 461 148 Z"/>
    <path class="bg" d="M 505 267 C 497 262 482 258 461 256 C 436 252 443 268 449 278 C 463 306 476 343 485 390 C 487 404 494 414 501 425 C 515 446 519 437 525 421 C 528 410 525 399 524 389 C 518 346 512 309 513 296 C 513 286 514 271 505 267 Z"/>
    <path class="bg" d="M 717 367 C 731 330 749 306 768 291 C 780 280 780 266 770 257 C 760 247 737 236 705 221 C 690 214 684 230 505 267 C 495 269 503 298 513 296 C 557 286 603 276 648 268 C 671 264 687 267 684 290 C 680 314 673 338 667 360 C 662 376 711 383 717 367 Z"/>
    <path class="bg" d="M 525 421 C 538 420 667 401 725 396 C 749 390 733 376 717 367 C 703 358 684 357 667 360 C 619 369 567 381 524 389 C 513 391 515 423 525 421 Z"/>
    <path class="bg" d="M 447 494 C 419 482 404 480 396 480 C 373 478 377 492 383 504 C 406 549 424 610 436 685 C 439 707 446 726 460 741 C 483 766 483 748 487 721 C 487 712 486 704 485 696 C 477 649 462 585 454 529 C 452 517 458 498 447 494 Z"/>
    <path class="bg" d="M 742 695 C 748 743 760 755 791 721 C 802 707 811 654 831 570 C 836 547 847 528 864 511 C 872 502 873 493 865 484 C 854 471 834 456 804 440 C 790 432 778 434 767 437 C 661 461 542 476 447 494 C 435 496 442 531 454 529 C 494 519 546 509 580 504 C 608 499 608 499 622 497 C 650 492 703 486 732 483 C 748 481 778 488 775 520 C 770 555 760 657 743 673 C 738 679 741 688 742 695 Z"/>
    <path class="bg" d="M 632 605 C 656 601 680 597 702 595 C 716 593 722 586 717 579 C 710 569 699 563 683 560 C 670 557 654 559 635 564 C 602 572 602 572 586 576 C 556 583 528 589 503 596 C 492 598 493 604 506 614 C 512 618 522 620 536 618 C 552 615 569 613 587 611 C 617 607 617 607 632 605 Z"/>
    <path class="bg" d="M 629 674 C 629 649 630 626 632 605 C 634 578 634 578 635 564 C 638 511 645 515 622 497 C 611 488 575 491 580 504 C 586 517 585 559 586 576 C 587 599 587 599 587 611 C 587 629 587 652 589 680 C 589 693 629 687 629 674 Z"/>
    <path class="bg" d="M 487 721 C 501 721 529 714 742 695 C 749 695 749 677 743 673 C 717 654 709 661 629 674 C 602 678 602 678 589 680 C 552 685 517 690 485 696 C 477 697 479 721 487 721 Z"/>
    <path class="bg" d="M 241 178 C 259 193 277 211 295 229 C 305 239 315 243 327 243 C 335 242 341 237 345 227 C 348 216 346 200 340 179 C 332 156 297 139 236 126 C 225 123 217 122 212 125 C 207 127 205 133 208 143 C 209 151 222 162 241 178 Z"/>
    <path class="bg" d="M 315 730 C 329 711 333 685 324 652 C 319 637 306 614 288 583 C 272 557 277 525 300 487 C 313 464 324 445 338 433 C 351 419 352 409 339 399 C 326 388 307 379 284 369 C 268 361 257 363 244 375 C 225 391 201 401 176 413 C 141 428 118 434 107 435 C 89 435 97 445 105 449 C 130 460 174 452 236 428 C 241 425 247 428 254 435 C 267 449 268 466 253 484 C 222 517 219 549 242 587 C 276 643 288 691 284 727 C 284 737 309 738 315 730 Z"/>
    <path class="bg" d="M 284 727 C 247 727 222 729 192 741 C 167 750 137 755 102 763 C 78 767 90 781 98 789 C 109 801 123 811 140 818 C 147 821 157 817 170 808 C 215 773 262 758 308 767 C 352 775 417 801 505 842 C 651 910 754 940 812 923 C 855 909 898 886 932 864 C 947 853 947 847 931 848 C 788 853 654 838 529 800 C 450 775 407 754 315 730 C 304 727 294 726 284 727 Z"/>
</g>
<g id="anim-layer">
    <path style="--d:1s; stroke:#FF4444;" pathLength="3333" clip-path="url(#z36924c1)" d="M 449 158 L 786 116"/>
    <path style="--d:2s; stroke:#FF4444;" pathLength="3333" clip-path="url(#z36924c2)" d="M 450 262 L 486 290 L 514 431"/>
    <path style="--d:3s; stroke:#FF4444;" pathLength="3333" clip-path="url(#z36924c3)" d="M 503 277 L 698 248 L 730 284 L 689 374"/>
    <path style="--d:4s; stroke:#FF4444;" pathLength="3333" clip-path="url(#z36924c4)" d="M 523 409 L 730 384"/>
    <path style="--d:5s; stroke:#FF4444;" pathLength="3333" clip-path="url(#z36924c5)" d="M 385 488 L 425 519 L 474 744"/>
    <path style="--d:6s; stroke:#FF4444;" pathLength="3333" clip-path="url(#z36924c6)" d="M 444 510 L 784 465 L 822 508 L 763 735"/>
    <path style="--d:7s; stroke:#FF4444;" pathLength="3333" clip-path="url(#z36924c7)" d="M 505 602 L 713 586"/>
    <path style="--d:8s; stroke:#FF4444;" pathLength="3333" clip-path="url(#z36924c8)" d="M 587 502 L 611 531 L 603 684"/>
    <path style="--d:9s; stroke:#FF4444;" pathLength="3333" clip-path="url(#z36924c9)" d="M 482 707 L 743 684"/>
    <path style="--d:10s; stroke:#000;" pathLength="3333" clip-path="url(#z36924c10)" d="M 211 134 L 295 180 L 332 238"/>
    <path style="--d:11s; stroke:#000;" pathLength="3333" clip-path="url(#z36924c11)" d="M 107 441 L 255 397 L 305 429 L 253 536 L 304 674 L 297 731"/>
    <path style="--d:12s; stroke:#000;" pathLength="3333" clip-path="url(#z36924c12)" d="M 94 771 L 143 786 L 239 749 L 321 750 L 737 883 L 934 853"/>
</g>
</svg>