<svg id="z37236" class="acjk" viewBox="0 0 1024 1024" xmlns="http://www.w3.org/2000/svg">

<style>
<![CDATA[
@keyframes zk { to { stroke-dashoffset:0; } }
svg.acjk path[clip-path] {
    --t:0.8s;
    animation:zk var(--t) linear forwards var(--d);
    stroke-dasharray:3337;
    stroke-dashoffset:3339;
    stroke-width:128;
    stroke-linecap:round;
    fill:none;
}
/* Low opacity for background improves visual overlap at intersections */
svg.acjk .bg { fill:#ccc; opacity: 0.5; } 
]]>
</style>
<defs>
    <clipPath id="z37236c1"><path d="M 291 204 Q 328 194 372 186 Q 412 176 419 170 Q 426 163 423 155 Q 416 145 390 138 Q 369 134 258 168 Q 203 183 116 194 Q 82 200 107 215 Q 135 230 165 228 C 191 225 191 225 204 223 Q 226 217 254 212 C 279 207 279 207 291 204 Z"/></clipPath>
    <clipPath id="z37236c2"><path d="M 116 374 Q 109 362 80 351 Q 71 347 61 350 Q 55 354 60 366 Q 61 373 66 382 Q 93 436 72 650 Q 51 737 83 775 Q 93 787 102 776 Q 109 763 112 750 C 114 727 114 727 115 715 Q 118 562 121 402 C 121 393 122 382 116 374 Z"/></clipPath>
    <clipPath id="z37236c3"><path d="M 312 728 Q 337 761 355 793 Q 362 809 373 808 Q 388 807 402 778 Q 414 748 416 675 Q 400 414 425 380 Q 432 368 425 359 Q 409 343 363 321 Q 347 312 301 333 C 279 340 279 340 268 344 Q 247 348 224 355 C 200 360 200 360 188 362 Q 142 369 116 374 C 107 376 112 402 121 402 Q 137 402 163 395 Q 175 392 187 390 C 211 385 211 385 223 383 Q 242 377 266 373 C 287 369 287 369 298 367 Q 302 364 310 364 Q 337 358 351 368 Q 363 380 364 497 C 364 517 364 517 364 527 Q 361 636 352 698 Q 348 716 331 707 Q 330 706 328 705 C 320 700 306 721 312 728 Z"/></clipPath>
    <clipPath id="z37236c4"><path d="M 165 228 Q 186 264 188 362 C 187 381 187 381 187 390 Q 183 435 146 547 Q 146 554 152 551 Q 161 550 178 521 Q 208 475 223 383 C 224 364 224 364 224 355 Q 225 327 225 299 Q 222 266 225 251 Q 229 241 223 233 Q 214 227 204 223 C 192 218 159 216 165 228 Z"/></clipPath>
    <clipPath id="z37236c5"><path d="M 301 333 Q 305 287 322 234 Q 326 222 318 215 Q 309 208 291 204 C 279 202 249 200 254 212 Q 269 243 271 260 Q 271 272 268 344 C 267 363 267 363 266 373 Q 257 493 291 521 Q 300 530 339 530 Q 354 530 364 527 C 374 525 374 499 364 497 Q 363 496 359 496 Q 323 493 315 485 Q 288 463 298 367 C 300 344 300 344 301 333 Z"/></clipPath>
    <clipPath id="z37236c6"><path d="M 146 616 Q 130 620 150 633 Q 157 639 174 635 Q 250 620 308 611 Q 330 607 321 595 Q 311 582 287 578 Q 265 577 226 588 Q 183 604 146 616 Z"/></clipPath>
    <clipPath id="z37236c7"><path d="M 112 750 Q 118 750 127 749 Q 185 736 312 728 C 321 728 335 712 328 705 Q 295 672 218 696 Q 163 706 115 715 C 104 717 100 750 112 750 Z"/></clipPath>
    <clipPath id="z37236c8"><path d="M 643 197 Q 658 152 667 142 Q 674 136 670 126 Q 658 101 617 97 Q 596 94 586 98 Q 579 102 583 113 Q 614 177 524 344 Q 520 350 517 356 Q 490 402 419 497 Q 412 503 423 504 Q 498 473 577 336 Q 578 332 582 328 Q 604 288 634 218 C 640 204 640 204 643 197 Z"/></clipPath>
    <clipPath id="z37236c9"><path d="M 634 218 Q 695 312 819 436 Q 832 446 858 447 Q 949 440 979 434 Q 986 431 988 427 Q 988 423 976 417 Q 841 372 791 329 Q 727 277 652 204 Q 648 200 643 197 C 637 192 629 212 634 218 Z"/></clipPath>
    <clipPath id="z37236c10"><path d="M 633 472 Q 733 444 737 440 Q 744 433 739 426 Q 732 416 707 412 Q 682 409 656 421 Q 631 431 602 441 Q 571 450 533 455 Q 502 462 526 476 Q 557 489 598 482 C 621 475 621 475 633 472 Z"/></clipPath>
    <clipPath id="z37236c11"><path d="M 665 601 Q 717 592 793 588 Q 836 588 841 578 Q 845 568 830 556 Q 778 523 721 546 Q 696 552 667 560 C 631 569 631 569 613 573 Q 537 589 449 608 Q 431 612 446 625 Q 459 635 474 639 Q 493 643 506 637 Q 555 619 614 611 C 648 604 648 604 665 601 Z"/></clipPath>
    <clipPath id="z37236c12"><path d="M 573 845 Q 551 838 524 829 Q 514 825 513 832 Q 513 839 522 848 Q 579 897 615 936 Q 625 945 638 931 Q 671 888 671 795 Q 662 681 665 601 C 666 574 666 574 667 560 Q 667 545 669 531 Q 673 507 669 498 Q 662 486 633 472 C 623 466 594 470 598 482 Q 613 527 613 573 C 614 598 614 598 614 611 Q 615 686 616 808 Q 615 836 606 846 Q 597 852 573 845 Z"/></clipPath>
    <clipPath id="z37236c13"><path d="M 492 695 Q 471 741 443 781 Q 425 808 439 833 Q 445 848 462 838 Q 502 811 511 741 Q 515 716 511 696 Q 507 689 502 688 Q 495 689 492 695 Z"/></clipPath>
    <clipPath id="z37236c14"><path d="M 723 701 Q 769 746 822 810 Q 835 829 850 833 Q 857 834 865 826 Q 877 814 867 774 Q 857 723 725 673 Q 718 667 715 679 Q 714 691 723 701 Z"/></clipPath>
</defs>
<g id="bg-layer">
    <path class="bg" d="M 291 204 Q 328 194 372 186 Q 412 176 419 170 Q 426 163 423 155 Q 416 145 390 138 Q 369 134 258 168 Q 203 183 116 194 Q 82 200 107 215 Q 135 230 165 228 C 191 225 191 225 204 223 Q 226 217 254 212 C 279 207 279 207 291 204 Z"/>
    <path class="bg" d="M 116 374 Q 109 362 80 351 Q 71 347 61 350 Q 55 354 60 366 Q 61 373 66 382 Q 93 436 72 650 Q 51 737 83 775 Q 93 787 102 776 Q 109 763 112 750 C 114 727 114 727 115 715 Q 118 562 121 402 C 121 393 122 382 116 374 Z"/>
    <path class="bg" d="M 312 728 Q 337 761 355 793 Q 362 809 373 808 Q 388 807 402 778 Q 414 748 416 675 Q 400 414 425 380 Q 432 368 425 359 Q 409 343 363 321 Q 347 312 301 333 C 279 340 279 340 268 344 Q 247 348 224 355 C 200 360 200 360 188 362 Q 142 369 116 374 C 107 376 112 402 121 402 Q 137 402 163 395 Q 175 392 187 390 C 211 385 211 385 223 383 Q 242 377 266 373 C 287 369 287 369 298 367 Q 302 364 310 364 Q 337 358 351 368 Q 363 380 364 497 C 364 517 364 517 364 527 Q 361 636 352 698 Q 348 716 331 707 Q 330 706 328 705 C 320 700 306 721 312 728 Z"/>
    <path class="bg" d="M 165 228 Q 186 264 188 362 C 187 381 187 381 187 390 Q 183 435 146 547 Q 146 554 152 551 Q 161 550 178 521 Q 208 475 223 383 C 224 364 224 364 224 355 Q 225 327 225 299 Q 222 266 225 251 Q 229 241 223 233 Q 214 227 204 223 C 192 218 159 216 165 228 Z"/>
    <path class="bg" d="M 301 333 Q 305 287 322 234 Q 326 222 318 215 Q 309 208 291 204 C 279 202 249 200 254 212 Q 269 243 271 260 Q 271 272 268 344 C 267 363 267 363 266 373 Q 257 493 291 521 Q 300 530 339 530 Q 354 530 364 527 C 374 525 374 499 364 497 Q 363 496 359 496 Q 323 493 315 485 Q 288 463 298 367 C 300 344 300 344 301 333 Z"/>
    <path class="bg" d="M 146 616 Q 130 620 150 633 Q 157 639 174 635 Q 250 620 308 611 Q 330 607 321 595 Q 311 582 287 578 Q 265 577 226 588 Q 183 604 146 616 Z"/>
    <path class="bg" d="M 112 750 Q 118 750 127 749 Q 185 736 312 728 C 321 728 335 712 328 705 Q 295 672 218 696 Q 163 706 115 715 C 104 717 100 750 112 750 Z"/>
    <path class="bg" d="M 643 197 Q 658 152 667 142 Q 674 136 670 126 Q 658 101 617 97 Q 596 94 586 98 Q 579 102 583 113 Q 614 177 524 344 Q 520 350 517 356 Q 490 402 419 497 Q 412 503 423 504 Q 498 473 577 336 Q 578 332 582 328 Q 604 288 634 218 C 640 204 640 204 643 197 Z"/>
    <path class="bg" d="M 634 218 Q 695 312 819 436 Q 832 446 858 447 Q 949 440 979 434 Q 986 431 988 427 Q 988 423 976 417 Q 841 372 791 329 Q 727 277 652 204 Q 648 200 643 197 C 637 192 629 212 634 218 Z"/>
    <path class="bg" d="M 633 472 Q 733 444 737 440 Q 744 433 739 426 Q 732 416 707 412 Q 682 409 656 421 Q 631 431 602 441 Q 571 450 533 455 Q 502 462 526 476 Q 557 489 598 482 C 621 475 621 475 633 472 Z"/>
    <path class="bg" d="M 665 601 Q 717 592 793 588 Q 836 588 841 578 Q 845 568 830 556 Q 778 523 721 546 Q 696 552 667 560 C 631 569 631 569 613 573 Q 537 589 449 608 Q 431 612 446 625 Q 459 635 474 639 Q 493 643 506 637 Q 555 619 614 611 C 648 604 648 604 665 601 Z"/>
    <path class="bg" d="M 573 845 Q 551 838 524 829 Q 514 825 513 832 Q 513 839 522 848 Q 579 897 615 936 Q 625 945 638 931 Q 671 888 671 795 Q 662 681 665 601 C 666 574 666 574 667 560 Q 667 545 669 531 Q 673 507 669 498 Q 662 486 633 472 C 623 466 594 470 598 482 Q 613 527 613 573 C 614 598 614 598 614 611 Q 615 686 616 808 Q 615 836 606 846 Q 597 852 573 845 Z"/>
    <path class="bg" d="M 492 695 Q 471 741 443 781 Q 425 808 439 833 Q 445 848 462 838 Q 502 811 511 741 Q 515 716 511 696 Q 507 689 502 688 Q 495 689 492 695 Z"/>
    <path class="bg" d="M 723 701 Q 769 746 822 810 Q 835 829 850 833 Q 857 834 865 826 Q 877 814 867 774 Q 857 723 725 673 Q 718 667 715 679 Q 714 691 723 701 Z"/>
</g>
<g id="anim-layer">
    <path style="--d:1s; stroke:#FF4444;" pathLength="3333" clip-path="url(#z37236c1)" d="M 109 205 L 420 159"/>
    <path style="--d:2s; stroke:#FF4444;" pathLength="3333" clip-path="url(#z37236c2)" d="M 66 358 L 99 425 L 93 777"/>
    <path style="--d:3s; stroke:#FF4444;" pathLength="3333" clip-path="url(#z37236c3)" d="M 124 377 L 342 340 L 390 370 L 383 708 L 356 758 L 318 722"/>
    <path style="--d:4s; stroke:#FF4444;" pathLength="3333" clip-path="url(#z37236c4)" d="M 173 231 L 203 256 L 206 366 L 152 546"/>
    <path style="--d:5s; stroke:#FF4444;" pathLength="3333" clip-path="url(#z37236c5)" d="M 261 214 L 295 236 L 287 478 L 308 506 L 362 515"/>
    <path style="--d:6s; stroke:#FF4444;" pathLength="3333" clip-path="url(#z37236c6)" d="M 146 622 L 318 602"/>
    <path style="--d:7s; stroke:#FF4444;" pathLength="3333" clip-path="url(#z37236c7)" d="M 119 743 L 321 711"/>
    <path style="--d:8s; stroke:#000;" pathLength="3333" clip-path="url(#z37236c8)" d="M 589 104 L 631 139 L 581 281 L 504 412 L 424 497"/>
    <path style="--d:9s; stroke:#000;" pathLength="3333" clip-path="url(#z37236c9)" d="M 646 204 L 835 401 L 980 426"/>
    <path style="--d:10s; stroke:#000;" pathLength="3333" clip-path="url(#z37236c10)" d="M 524 465 L 735 431"/>
    <path style="--d:11s; stroke:#000;" pathLength="3333" clip-path="url(#z37236c11)" d="M 446 615 L 836 567"/>
    <path style="--d:12s; stroke:#000;" pathLength="3333" clip-path="url(#z37236c12)" d="M 604 485 L 640 518 L 639 846 L 613 893 L 521 835"/>
    <path style="--d:13s; stroke:#000;" pathLength="3333" clip-path="url(#z37236c13)" d="M 502 693 L 444 835"/>
    <path style="--d:14s; stroke:#000;" pathLength="3333" clip-path="url(#z37236c14)" d="M 722 681 L 814 752 L 859 827"/>
</g>
</svg>