<svg id="z38029" class="acjk" viewBox="0 0 1024 1024" xmlns="http://www.w3.org/2000/svg">

<style>
<![CDATA[
@keyframes zk { to { stroke-dashoffset:0; } }
svg.acjk path[clip-path] {
    --t:0.8s;
    animation:zk var(--t) linear forwards var(--d);
    stroke-dasharray:3337;
    stroke-dashoffset:3339;
    stroke-width:128;
    stroke-linecap:round;
    fill:none;
}
/* Low opacity for background improves visual overlap at intersections */
svg.acjk .bg { fill:#ccc; opacity: 0.5; } 
]]>
</style>
<defs>
    <clipPath id="z38029c1"><path d="M 294 274 Q 354 174 377 152 Q 387 142 382 128 Q 378 115 350 92 Q 323 74 305 74 Q 286 75 294 97 Q 309 131 295 159 Q 255 253 194 341 Q 136 426 55 518 Q 45 528 43 534 Q 39 544 53 542 Q 107 535 270 310 Q 271 306 275 302 C 288 283 288 283 294 274 Z"/></clipPath>
    <clipPath id="z38029c2"><path d="M 275 302 Q 315 309 387 289 Q 463 264 466 262 Q 473 253 468 246 Q 461 236 433 233 Q 408 232 337 262 Q 316 266 294 274 C 284 278 264 300 275 302 Z"/></clipPath>
    <clipPath id="z38029c3"><path d="M 310 440 Q 353 425 401 412 Q 423 405 426 402 Q 433 393 428 386 Q 421 376 393 372 Q 365 369 339 383 Q 315 393 289 402 Q 259 411 225 417 Q 192 426 217 439 Q 235 448 258 448 C 293 443 293 443 310 440 Z"/></clipPath>
    <clipPath id="z38029c4"><path d="M 325 572 Q 454 532 457 530 Q 464 523 460 515 Q 453 505 425 499 Q 403 496 326 526 C 295 537 295 537 279 542 Q 228 555 170 565 Q 137 572 162 587 Q 204 605 260 588 Q 269 585 280 584 C 310 576 310 576 325 572 Z"/></clipPath>
    <clipPath id="z38029c5"><path d="M 280 584 Q 276 710 252 753 Q 225 793 231 811 Q 241 838 254 850 Q 267 857 278 841 Q 291 813 432 687 Q 448 674 452 666 Q 456 656 446 656 Q 436 656 325 725 Q 318 731 316 723 Q 323 641 325 572 C 326 541 326 541 326 526 Q 326 498 330 476 Q 336 455 310 440 C 295 431 251 432 258 448 Q 276 490 279 542 C 280 570 280 570 280 584 Z"/></clipPath>
    <clipPath id="z38029c6"><path d="M 704 490 Q 851 459 854 457 Q 864 450 859 440 Q 852 428 822 420 Q 791 413 760 425 Q 732 434 705 442 C 671 449 671 449 654 453 Q 605 462 546 466 Q 509 472 535 490 Q 580 514 637 502 Q 643 501 654 499 C 687 493 687 493 704 490 Z"/></clipPath>
    <clipPath id="z38029c7"><path d="M 696 726 Q 700 605 704 490 C 705 458 705 458 705 442 Q 708 274 730 174 Q 734 161 710 144 Q 668 122 640 118 Q 621 114 612 124 Q 603 134 613 151 Q 647 200 648 235 Q 654 340 654 453 C 654 484 654 484 654 499 Q 653 611 647 733 C 647 749 696 742 696 726 Z"/></clipPath>
    <clipPath id="z38029c8"><path d="M 647 733 Q 554 743 449 754 Q 428 755 443 773 Q 456 786 475 793 Q 496 799 512 795 Q 635 762 915 763 Q 928 763 945 764 Q 966 764 970 756 Q 976 744 960 730 Q 903 685 852 702 Q 791 712 696 726 C 663 731 663 731 647 733 Z"/></clipPath>
</defs>
<g id="bg-layer">
    <path class="bg" d="M 294 274 Q 354 174 377 152 Q 387 142 382 128 Q 378 115 350 92 Q 323 74 305 74 Q 286 75 294 97 Q 309 131 295 159 Q 255 253 194 341 Q 136 426 55 518 Q 45 528 43 534 Q 39 544 53 542 Q 107 535 270 310 Q 271 306 275 302 C 288 283 288 283 294 274 Z"/>
    <path class="bg" d="M 275 302 Q 315 309 387 289 Q 463 264 466 262 Q 473 253 468 246 Q 461 236 433 233 Q 408 232 337 262 Q 316 266 294 274 C 284 278 264 300 275 302 Z"/>
    <path class="bg" d="M 310 440 Q 353 425 401 412 Q 423 405 426 402 Q 433 393 428 386 Q 421 376 393 372 Q 365 369 339 383 Q 315 393 289 402 Q 259 411 225 417 Q 192 426 217 439 Q 235 448 258 448 C 293 443 293 443 310 440 Z"/>
    <path class="bg" d="M 325 572 Q 454 532 457 530 Q 464 523 460 515 Q 453 505 425 499 Q 403 496 326 526 C 295 537 295 537 279 542 Q 228 555 170 565 Q 137 572 162 587 Q 204 605 260 588 Q 269 585 280 584 C 310 576 310 576 325 572 Z"/>
    <path class="bg" d="M 280 584 Q 276 710 252 753 Q 225 793 231 811 Q 241 838 254 850 Q 267 857 278 841 Q 291 813 432 687 Q 448 674 452 666 Q 456 656 446 656 Q 436 656 325 725 Q 318 731 316 723 Q 323 641 325 572 C 326 541 326 541 326 526 Q 326 498 330 476 Q 336 455 310 440 C 295 431 251 432 258 448 Q 276 490 279 542 C 280 570 280 570 280 584 Z"/>
    <path class="bg" d="M 704 490 Q 851 459 854 457 Q 864 450 859 440 Q 852 428 822 420 Q 791 413 760 425 Q 732 434 705 442 C 671 449 671 449 654 453 Q 605 462 546 466 Q 509 472 535 490 Q 580 514 637 502 Q 643 501 654 499 C 687 493 687 493 704 490 Z"/>
    <path class="bg" d="M 696 726 Q 700 605 704 490 C 705 458 705 458 705 442 Q 708 274 730 174 Q 734 161 710 144 Q 668 122 640 118 Q 621 114 612 124 Q 603 134 613 151 Q 647 200 648 235 Q 654 340 654 453 C 654 484 654 484 654 499 Q 653 611 647 733 C 647 749 696 742 696 726 Z"/>
    <path class="bg" d="M 647 733 Q 554 743 449 754 Q 428 755 443 773 Q 456 786 475 793 Q 496 799 512 795 Q 635 762 915 763 Q 928 763 945 764 Q 966 764 970 756 Q 976 744 960 730 Q 903 685 852 702 Q 791 712 696 726 C 663 731 663 731 647 733 Z"/>
</g>
<g id="anim-layer">
    <path style="--d:1s; stroke:#FF4444;" pathLength="3333" clip-path="url(#z38029c1)" d="M 299 81 L 342 139 L 183 392 L 49 534"/>
    <path style="--d:2s; stroke:#FF4444;" pathLength="3333" clip-path="url(#z38029c2)" d="M 284 297 L 463 252"/>
    <path style="--d:3s; stroke:#FF4444;" pathLength="3333" clip-path="url(#z38029c3)" d="M 217 429 L 425 389"/>
    <path style="--d:4s; stroke:#FF4444;" pathLength="3333" clip-path="url(#z38029c4)" d="M 160 576 L 453 515"/>
    <path style="--d:5s; stroke:#FF4444;" pathLength="3333" clip-path="url(#z38029c5)" d="M 266 450 L 301 488 L 280 800 L 445 662"/>
    <path style="--d:6s; stroke:#000;" pathLength="3333" clip-path="url(#z38029c6)" d="M 533 478 L 856 446"/>
    <path style="--d:7s; stroke:#000;" pathLength="3333" clip-path="url(#z38029c7)" d="M 616 130 L 686 187 L 665 729"/>
    <path style="--d:8s; stroke:#000;" pathLength="3333" clip-path="url(#z38029c8)" d="M 443 760 L 499 773 L 875 730 L 966 740"/>
</g>
</svg>