<svg id="z38035" class="acjk" viewBox="0 0 1024 1024" xmlns="http://www.w3.org/2000/svg">

<style>
<![CDATA[
@keyframes zk { to { stroke-dashoffset:0; } }
svg.acjk path[clip-path] {
    --t:0.8s;
    animation:zk var(--t) linear forwards var(--d);
    stroke-dasharray:3337;
    stroke-dashoffset:3339;
    stroke-width:128;
    stroke-linecap:round;
    fill:none;
}
/* Low opacity for background improves visual overlap at intersections */
svg.acjk .bg { fill:#ccc; opacity: 0.5; } 
]]>
</style>
<defs>
    <clipPath id="z38035c1"><path d="M 309 260 Q 352 178 386 147 Q 396 137 391 122 Q 387 109 357 84 Q 329 65 310 65 Q 291 66 299 90 Q 314 124 300 152 Q 260 248 199 337 Q 139 422 59 516 Q 49 526 46 533 Q 42 545 57 542 Q 109 536 285 295 Q 286 289 291 286 C 303 269 303 269 309 260 Z"/></clipPath>
    <clipPath id="z38035c2"><path d="M 291 286 Q 333 304 390 285 Q 430 275 472 262 Q 491 256 494 253 Q 501 244 497 236 Q 488 224 457 220 Q 435 217 359 247 Q 358 247 309 260 C 299 262 281 282 291 286 Z"/></clipPath>
    <clipPath id="z38035c3"><path d="M 304 438 Q 311 432 421 400 Q 446 391 450 387 Q 457 378 452 371 Q 445 361 415 357 Q 391 354 323 383 Q 272 401 225 411 Q 191 421 217 434 Q 235 443 265 443 C 278 443 292 444 304 438 Z"/></clipPath>
    <clipPath id="z38035c4"><path d="M 341 595 Q 464 550 466 549 Q 473 539 469 532 Q 460 520 430 516 Q 403 513 342 541 C 309 555 309 555 293 562 Q 286 563 280 566 Q 228 584 166 597 Q 129 607 158 621 Q 203 640 258 621 Q 274 615 294 610 C 325 600 325 600 341 595 Z"/></clipPath>
    <clipPath id="z38035c5"><path d="M 294 610 Q 290 746 259 794 Q 217 840 263 888 C 264 889 264 889 265 889 Q 278 896 289 880 Q 305 849 454 717 Q 473 704 476 694 Q 480 684 470 684 Q 454 685 339 759 Q 332 763 330 757 Q 339 669 341 595 C 342 559 342 559 342 541 Q 342 513 347 490 Q 351 477 343 466 Q 324 447 304 438 C 293 431 263 430 265 443 Q 265 447 269 453 Q 293 504 293 562 C 294 594 294 594 294 610 Z"/></clipPath>
    <clipPath id="z38035c6"><path d="M 597 350 Q 654 253 690 175 Q 706 130 724 107 Q 731 95 725 82 Q 719 69 686 50 Q 655 35 636 39 Q 617 43 629 65 Q 645 90 639 115 Q 620 197 584 278 Q 550 356 498 443 Q 489 456 488 462 Q 487 474 500 469 Q 524 460 582 373 C 592 358 592 358 597 350 Z"/></clipPath>
    <clipPath id="z38035c7"><path d="M 732 843 Q 720 846 657 826 Q 647 822 647 828 Q 646 832 658 842 Q 697 888 714 919 Q 724 938 736 939 Q 758 940 777 917 Q 850 851 870 670 Q 879 573 883 434 Q 882 397 904 369 Q 917 356 916 346 Q 915 339 894 325 Q 866 306 829 295 Q 801 288 783 297 Q 767 304 728 316 Q 673 332 635 341 Q 613 345 597 350 C 589 353 573 373 582 373 Q 615 377 744 354 Q 795 345 804 352 Q 828 395 813 624 Q 801 735 769 804 Q 753 841 732 843 Z"/></clipPath>
    <clipPath id="z38035c8"><path d="M 551 552 Q 593 609 627 625 Q 643 629 654 615 Q 661 602 660 582 Q 654 555 635 540 Q 614 524 567 510 Q 548 503 538 507 Q 531 508 533 522 Q 534 535 551 552 Z"/></clipPath>
</defs>
<g id="bg-layer">
    <path class="bg" d="M 309 260 Q 352 178 386 147 Q 396 137 391 122 Q 387 109 357 84 Q 329 65 310 65 Q 291 66 299 90 Q 314 124 300 152 Q 260 248 199 337 Q 139 422 59 516 Q 49 526 46 533 Q 42 545 57 542 Q 109 536 285 295 Q 286 289 291 286 C 303 269 303 269 309 260 Z"/>
    <path class="bg" d="M 291 286 Q 333 304 390 285 Q 430 275 472 262 Q 491 256 494 253 Q 501 244 497 236 Q 488 224 457 220 Q 435 217 359 247 Q 358 247 309 260 C 299 262 281 282 291 286 Z"/>
    <path class="bg" d="M 304 438 Q 311 432 421 400 Q 446 391 450 387 Q 457 378 452 371 Q 445 361 415 357 Q 391 354 323 383 Q 272 401 225 411 Q 191 421 217 434 Q 235 443 265 443 C 278 443 292 444 304 438 Z"/>
    <path class="bg" d="M 341 595 Q 464 550 466 549 Q 473 539 469 532 Q 460 520 430 516 Q 403 513 342 541 C 309 555 309 555 293 562 Q 286 563 280 566 Q 228 584 166 597 Q 129 607 158 621 Q 203 640 258 621 Q 274 615 294 610 C 325 600 325 600 341 595 Z"/>
    <path class="bg" d="M 294 610 Q 290 746 259 794 Q 217 840 263 888 C 264 889 264 889 265 889 Q 278 896 289 880 Q 305 849 454 717 Q 473 704 476 694 Q 480 684 470 684 Q 454 685 339 759 Q 332 763 330 757 Q 339 669 341 595 C 342 559 342 559 342 541 Q 342 513 347 490 Q 351 477 343 466 Q 324 447 304 438 C 293 431 263 430 265 443 Q 265 447 269 453 Q 293 504 293 562 C 294 594 294 594 294 610 Z"/>
    <path class="bg" d="M 597 350 Q 654 253 690 175 Q 706 130 724 107 Q 731 95 725 82 Q 719 69 686 50 Q 655 35 636 39 Q 617 43 629 65 Q 645 90 639 115 Q 620 197 584 278 Q 550 356 498 443 Q 489 456 488 462 Q 487 474 500 469 Q 524 460 582 373 C 592 358 592 358 597 350 Z"/>
    <path class="bg" d="M 732 843 Q 720 846 657 826 Q 647 822 647 828 Q 646 832 658 842 Q 697 888 714 919 Q 724 938 736 939 Q 758 940 777 917 Q 850 851 870 670 Q 879 573 883 434 Q 882 397 904 369 Q 917 356 916 346 Q 915 339 894 325 Q 866 306 829 295 Q 801 288 783 297 Q 767 304 728 316 Q 673 332 635 341 Q 613 345 597 350 C 589 353 573 373 582 373 Q 615 377 744 354 Q 795 345 804 352 Q 828 395 813 624 Q 801 735 769 804 Q 753 841 732 843 Z"/>
    <path class="bg" d="M 551 552 Q 593 609 627 625 Q 643 629 654 615 Q 661 602 660 582 Q 654 555 635 540 Q 614 524 567 510 Q 548 503 538 507 Q 531 508 533 522 Q 534 535 551 552 Z"/>
</g>
<g id="anim-layer">
    <path style="--d:1s; stroke:#FF4444;" pathLength="3333" clip-path="url(#z38035c1)" d="M 304 70 L 346 141 L 221 345 L 53 535"/>
    <path style="--d:2s; stroke:#FF4444;" pathLength="3333" clip-path="url(#z38035c2)" d="M 300 282 L 493 243"/>
    <path style="--d:3s; stroke:#FF4444;" pathLength="3333" clip-path="url(#z38035c3)" d="M 215 422 L 447 377"/>
    <path style="--d:4s; stroke:#FF4444;" pathLength="3333" clip-path="url(#z38035c4)" d="M 154 609 L 463 534"/>
    <path style="--d:5s; stroke:#FF4444;" pathLength="3333" clip-path="url(#z38035c5)" d="M 274 449 L 317 504 L 291 842 L 468 690"/>
    <path style="--d:6s; stroke:#000;" pathLength="3333" clip-path="url(#z38035c6)" d="M 629 45 L 684 101 L 589 320 L 496 462"/>
    <path style="--d:7s; stroke:#000;" pathLength="3333" clip-path="url(#z38035c7)" d="M 592 368 L 798 320 L 864 362 L 839 666 L 793 835 L 729 891 L 654 830"/>
    <path style="--d:8s; stroke:#000;" pathLength="3333" clip-path="url(#z38035c8)" d="M 539 514 L 647 618"/>
</g>
</svg>