<svg id="z38058" class="acjk" viewBox="0 0 1024 1024" xmlns="http://www.w3.org/2000/svg">

<style>
<![CDATA[
@keyframes zk { to { stroke-dashoffset:0; } }
svg.acjk path[clip-path] {
    --t:0.8s;
    animation:zk var(--t) linear forwards var(--d);
    stroke-dasharray:3337;
    stroke-dashoffset:3339;
    stroke-width:128;
    stroke-linecap:round;
    fill:none;
}
/* Low opacity for background improves visual overlap at intersections */
svg.acjk .bg { fill:#ccc; opacity: 0.5; } 
]]>
</style>
<defs>
    <clipPath id="z38058c1"><path d="M 292 267 Q 355 159 368 147 Q 377 137 371 123 Q 367 110 338 89 Q 311 71 292 72 Q 274 75 283 96 Q 298 127 286 155 Q 229 308 74 505 Q 64 515 62 522 Q 59 532 73 530 Q 121 524 273 298 Q 274 294 278 290 C 287 275 287 275 292 267 Z"/></clipPath>
    <clipPath id="z38058c2"><path d="M 278 290 Q 321 309 373 292 Q 407 283 443 274 Q 459 270 461 267 Q 468 260 464 251 Q 457 241 427 236 Q 399 232 370 246 Q 349 253 292 267 C 283 268 270 287 278 290 Z"/></clipPath>
    <clipPath id="z38058c3"><path d="M 292 439 Q 355 418 421 396 Q 428 389 424 382 Q 417 372 391 369 Q 364 366 340 379 Q 315 389 287 399 Q 256 409 220 415 Q 189 424 213 436 Q 228 442 248 444 C 262 447 278 444 292 439 Z"/></clipPath>
    <clipPath id="z38058c4"><path d="M 323 576 Q 435 540 442 534 Q 449 525 444 518 Q 437 508 409 504 Q 382 503 322 530 C 291 542 291 542 276 548 Q 272 548 271 549 Q 222 565 165 577 Q 132 586 157 599 Q 187 612 257 596 Q 264 593 278 590 C 308 581 308 581 323 576 Z"/></clipPath>
    <clipPath id="z38058c5"><path d="M 278 590 Q 278 722 247 771 Q 205 819 252 861 Q 265 868 275 853 Q 290 825 426 711 Q 444 698 448 690 Q 452 680 442 680 Q 432 680 327 739 Q 317 745 315 735 Q 322 647 323 576 C 322 545 322 545 322 530 Q 322 505 326 484 Q 330 471 322 460 Q 306 447 292 439 C 279 431 239 432 248 444 Q 270 466 276 548 C 277 576 277 576 278 590 Z"/></clipPath>
    <clipPath id="z38058c6"><path d="M 611 174 Q 642 196 673 224 Q 689 237 705 235 Q 715 234 721 220 Q 725 204 713 173 Q 701 140 603 124 Q 587 121 580 125 Q 574 129 577 143 Q 581 153 611 174 Z"/></clipPath>
    <clipPath id="z38058c7"><path d="M 489 344 Q 450 351 479 369 Q 524 393 584 376 Q 684 352 786 326 Q 832 313 840 307 Q 849 297 844 289 Q 835 276 804 270 Q 773 264 667 304 Q 577 331 489 344 Z"/></clipPath>
    <clipPath id="z38058c8"><path d="M 565 486 Q 531 468 520 470 Q 502 473 516 492 Q 543 546 516 680 Q 509 710 494 745 Q 473 793 420 840 Q 407 852 403 857 Q 402 863 412 863 Q 443 863 493 815 Q 565 746 582 546 Q 588 518 589 508 C 591 497 575 491 565 486 Z"/></clipPath>
    <clipPath id="z38058c9"><path d="M 961 867 Q 992 857 980 825 Q 961 780 956 708 Q 955 689 949 684 Q 942 680 937 694 Q 909 794 890 809 Q 845 833 784 801 Q 724 762 726 667 Q 729 531 788 482 Q 815 461 785 449 Q 769 442 736 430 Q 714 421 691 437 Q 642 473 565 486 C 554 488 578 510 589 508 Q 613 504 676 488 Q 689 484 694 490 Q 700 499 687 603 Q 660 853 845 882 Q 858 883 874 884 Q 917 883 961 867 Z"/></clipPath>
</defs>
<g id="bg-layer">
    <path class="bg" d="M 292 267 Q 355 159 368 147 Q 377 137 371 123 Q 367 110 338 89 Q 311 71 292 72 Q 274 75 283 96 Q 298 127 286 155 Q 229 308 74 505 Q 64 515 62 522 Q 59 532 73 530 Q 121 524 273 298 Q 274 294 278 290 C 287 275 287 275 292 267 Z"/>
    <path class="bg" d="M 278 290 Q 321 309 373 292 Q 407 283 443 274 Q 459 270 461 267 Q 468 260 464 251 Q 457 241 427 236 Q 399 232 370 246 Q 349 253 292 267 C 283 268 270 287 278 290 Z"/>
    <path class="bg" d="M 292 439 Q 355 418 421 396 Q 428 389 424 382 Q 417 372 391 369 Q 364 366 340 379 Q 315 389 287 399 Q 256 409 220 415 Q 189 424 213 436 Q 228 442 248 444 C 262 447 278 444 292 439 Z"/>
    <path class="bg" d="M 323 576 Q 435 540 442 534 Q 449 525 444 518 Q 437 508 409 504 Q 382 503 322 530 C 291 542 291 542 276 548 Q 272 548 271 549 Q 222 565 165 577 Q 132 586 157 599 Q 187 612 257 596 Q 264 593 278 590 C 308 581 308 581 323 576 Z"/>
    <path class="bg" d="M 278 590 Q 278 722 247 771 Q 205 819 252 861 Q 265 868 275 853 Q 290 825 426 711 Q 444 698 448 690 Q 452 680 442 680 Q 432 680 327 739 Q 317 745 315 735 Q 322 647 323 576 C 322 545 322 545 322 530 Q 322 505 326 484 Q 330 471 322 460 Q 306 447 292 439 C 279 431 239 432 248 444 Q 270 466 276 548 C 277 576 277 576 278 590 Z"/>
    <path class="bg" d="M 611 174 Q 642 196 673 224 Q 689 237 705 235 Q 715 234 721 220 Q 725 204 713 173 Q 701 140 603 124 Q 587 121 580 125 Q 574 129 577 143 Q 581 153 611 174 Z"/>
    <path class="bg" d="M 489 344 Q 450 351 479 369 Q 524 393 584 376 Q 684 352 786 326 Q 832 313 840 307 Q 849 297 844 289 Q 835 276 804 270 Q 773 264 667 304 Q 577 331 489 344 Z"/>
    <path class="bg" d="M 565 486 Q 531 468 520 470 Q 502 473 516 492 Q 543 546 516 680 Q 509 710 494 745 Q 473 793 420 840 Q 407 852 403 857 Q 402 863 412 863 Q 443 863 493 815 Q 565 746 582 546 Q 588 518 589 508 C 591 497 575 491 565 486 Z"/>
    <path class="bg" d="M 961 867 Q 992 857 980 825 Q 961 780 956 708 Q 955 689 949 684 Q 942 680 937 694 Q 909 794 890 809 Q 845 833 784 801 Q 724 762 726 667 Q 729 531 788 482 Q 815 461 785 449 Q 769 442 736 430 Q 714 421 691 437 Q 642 473 565 486 C 554 488 578 510 589 508 Q 613 504 676 488 Q 689 484 694 490 Q 700 499 687 603 Q 660 853 845 882 Q 858 883 874 884 Q 917 883 961 867 Z"/>
</g>
<g id="anim-layer">
    <path style="--d:1s; stroke:#FF4444;" pathLength="3333" clip-path="url(#z38058c1)" d="M 288 80 L 332 135 L 216 342 L 70 526"/>
    <path style="--d:2s; stroke:#FF4444;" pathLength="3333" clip-path="url(#z38058c2)" d="M 285 286 L 461 260"/>
    <path style="--d:3s; stroke:#FF4444;" pathLength="3333" clip-path="url(#z38058c3)" d="M 209 425 L 419 379"/>
    <path style="--d:4s; stroke:#FF4444;" pathLength="3333" clip-path="url(#z38058c4)" d="M 155 588 L 441 524"/>
    <path style="--d:5s; stroke:#FF4444;" pathLength="3333" clip-path="url(#z38058c5)" d="M 258 448 L 297 482 L 275 808 L 442 686"/>
    <path style="--d:6s; stroke:#000;" pathLength="3333" clip-path="url(#z38058c6)" d="M 584 132 L 676 181 L 713 227"/>
    <path style="--d:7s; stroke:#000;" pathLength="3333" clip-path="url(#z38058c7)" d="M 477 357 L 841 295"/>
    <path style="--d:8s; stroke:#000;" pathLength="3333" clip-path="url(#z38058c8)" d="M 517 478 L 557 519 L 532 703 L 479 804 L 414 856"/>
    <path style="--d:9s; stroke:#000;" pathLength="3333" clip-path="url(#z38058c9)" d="M 574 487 L 703 457 L 748 479 L 721 532 L 706 701 L 736 790 L 784 832 L 866 851 L 938 827 L 948 690"/>
</g>
</svg>