<svg id="z38094" class="acjk" viewBox="0 0 1024 1024" xmlns="http://www.w3.org/2000/svg">

<style>
<![CDATA[
@keyframes zk { to { stroke-dashoffset:0; } }
svg.acjk path[clip-path] {
    --t:0.8s;
    animation:zk var(--t) linear forwards var(--d);
    stroke-dasharray:3337;
    stroke-dashoffset:3339;
    stroke-width:128;
    stroke-linecap:round;
    fill:none;
}
/* Low opacity for background improves visual overlap at intersections */
svg.acjk .bg { fill:#ccc; opacity: 0.5; } 
]]>
</style>
<defs>
    <clipPath id="z38094c1"><path d="M 280 267 Q 340 161 363 139 Q 372 129 367 115 Q 363 102 334 81 Q 307 63 289 64 Q 270 65 279 87 Q 292 118 282 145 Q 248 233 193 317 Q 141 396 70 485 Q 60 495 58 502 Q 55 512 69 510 Q 120 501 262 294 C 274 276 274 276 280 267 Z"/></clipPath>
    <clipPath id="z38094c2"><path d="M 262 294 Q 296 309 343 294 Q 386 282 430 271 Q 449 265 453 262 Q 460 255 456 246 Q 449 236 421 232 Q 393 228 367 241 Q 345 250 320 257 Q 301 261 280 267 C 269 269 252 290 262 294 Z"/></clipPath>
    <clipPath id="z38094c3"><path d="M 297 425 Q 296 424 298 424 Q 415 391 421 384 Q 428 377 424 370 Q 417 360 391 357 Q 364 354 340 367 Q 315 377 287 387 Q 256 397 220 403 Q 189 412 213 424 Q 228 430 250 432 C 266 435 283 432 297 425 Z"/></clipPath>
    <clipPath id="z38094c4"><path d="M 323 565 Q 353 555 386 546 Q 420 536 425 530 Q 432 523 428 514 Q 421 504 393 500 Q 357 497 323 517 C 292 529 292 529 276 535 Q 213 554 157 565 Q 124 574 150 587 Q 190 606 239 589 Q 258 583 277 578 C 308 569 308 569 323 565 Z"/></clipPath>
    <clipPath id="z38094c5"><path d="M 277 578 Q 277 707 235 763 Q 214 793 254 833 C 255 834 255 834 256 834 Q 268 841 279 825 Q 292 797 420 676 Q 436 663 440 654 Q 444 644 434 645 Q 422 645 324 708 Q 317 714 315 707 Q 322 629 323 565 C 323 533 323 533 323 517 Q 323 490 326 468 Q 332 447 297 425 C 284 415 244 417 250 432 Q 271 477 276 535 C 277 564 277 564 277 578 Z"/></clipPath>
    <clipPath id="z38094c6"><path d="M 664 336 Q 704 288 746 213 Q 762 186 788 168 Q 803 161 803 151 Q 803 138 774 122 Q 740 100 725 99 Q 715 100 703 108 Q 600 145 538 152 Q 501 153 498 162 Q 497 165 504 170 Q 544 203 665 157 Q 684 150 693 156 Q 700 160 680 210 Q 671 235 624 305 C 611 321 611 321 604 329 Q 526 410 431 451 Q 421 455 422 460 Q 423 464 430 464 Q 532 467 638 364 C 655 345 655 345 664 336 Z"/></clipPath>
    <clipPath id="z38094c7"><path d="M 638 364 Q 767 493 807 489 Q 883 485 945 472 Q 976 465 973 457 Q 972 451 815 416 Q 754 397 664 336 C 637 315 637 315 624 305 Q 599 283 572 258 Q 538 227 509 228 Q 493 229 491 233 Q 490 239 504 247 Q 529 260 546 278 Q 573 299 604 329 C 627 352 627 352 638 364 Z"/></clipPath>
    <clipPath id="z38094c8"><path d="M 657 575 Q 753 551 759 547 Q 768 540 763 531 Q 756 521 728 514 Q 706 510 659 525 C 641 532 622 543 602 543 Q 598 543 595 544 Q 552 554 500 560 Q 466 567 491 582 Q 530 606 587 590 Q 593 589 603 587 C 639 579 639 579 657 575 Z"/></clipPath>
    <clipPath id="z38094c9"><path d="M 655 709 Q 733 696 849 696 Q 868 695 873 686 Q 877 674 861 662 Q 809 626 753 642 Q 713 651 655 665 C 620 672 620 672 603 676 Q 525 689 435 706 Q 416 709 431 725 Q 444 738 462 742 Q 483 746 498 741 Q 546 726 603 717 C 638 712 638 712 655 709 Z"/></clipPath>
    <clipPath id="z38094c10"><path d="M 655 665 Q 655 626 657 575 C 658 542 658 542 659 525 Q 659 507 667 471 Q 670 455 656 445 Q 625 424 611 422 Q 599 418 584 426 Q 575 433 582 443 Q 597 468 602 540 Q 601 540 602 543 C 603 572 603 572 603 587 Q 603 627 603 676 C 603 703 603 703 603 717 Q 603 909 618 933 Q 624 940 631 938 Q 644 929 651 873 Q 654 837 655 709 C 655 680 655 680 655 665 Z"/></clipPath>
</defs>
<g id="bg-layer">
    <path class="bg" d="M 280 267 Q 340 161 363 139 Q 372 129 367 115 Q 363 102 334 81 Q 307 63 289 64 Q 270 65 279 87 Q 292 118 282 145 Q 248 233 193 317 Q 141 396 70 485 Q 60 495 58 502 Q 55 512 69 510 Q 120 501 262 294 C 274 276 274 276 280 267 Z"/>
    <path class="bg" d="M 262 294 Q 296 309 343 294 Q 386 282 430 271 Q 449 265 453 262 Q 460 255 456 246 Q 449 236 421 232 Q 393 228 367 241 Q 345 250 320 257 Q 301 261 280 267 C 269 269 252 290 262 294 Z"/>
    <path class="bg" d="M 297 425 Q 296 424 298 424 Q 415 391 421 384 Q 428 377 424 370 Q 417 360 391 357 Q 364 354 340 367 Q 315 377 287 387 Q 256 397 220 403 Q 189 412 213 424 Q 228 430 250 432 C 266 435 283 432 297 425 Z"/>
    <path class="bg" d="M 323 565 Q 353 555 386 546 Q 420 536 425 530 Q 432 523 428 514 Q 421 504 393 500 Q 357 497 323 517 C 292 529 292 529 276 535 Q 213 554 157 565 Q 124 574 150 587 Q 190 606 239 589 Q 258 583 277 578 C 308 569 308 569 323 565 Z"/>
    <path class="bg" d="M 277 578 Q 277 707 235 763 Q 214 793 254 833 C 255 834 255 834 256 834 Q 268 841 279 825 Q 292 797 420 676 Q 436 663 440 654 Q 444 644 434 645 Q 422 645 324 708 Q 317 714 315 707 Q 322 629 323 565 C 323 533 323 533 323 517 Q 323 490 326 468 Q 332 447 297 425 C 284 415 244 417 250 432 Q 271 477 276 535 C 277 564 277 564 277 578 Z"/>
    <path class="bg" d="M 664 336 Q 704 288 746 213 Q 762 186 788 168 Q 803 161 803 151 Q 803 138 774 122 Q 740 100 725 99 Q 715 100 703 108 Q 600 145 538 152 Q 501 153 498 162 Q 497 165 504 170 Q 544 203 665 157 Q 684 150 693 156 Q 700 160 680 210 Q 671 235 624 305 C 611 321 611 321 604 329 Q 526 410 431 451 Q 421 455 422 460 Q 423 464 430 464 Q 532 467 638 364 C 655 345 655 345 664 336 Z"/>
    <path class="bg" d="M 638 364 Q 767 493 807 489 Q 883 485 945 472 Q 976 465 973 457 Q 972 451 815 416 Q 754 397 664 336 C 637 315 637 315 624 305 Q 599 283 572 258 Q 538 227 509 228 Q 493 229 491 233 Q 490 239 504 247 Q 529 260 546 278 Q 573 299 604 329 C 627 352 627 352 638 364 Z"/>
    <path class="bg" d="M 657 575 Q 753 551 759 547 Q 768 540 763 531 Q 756 521 728 514 Q 706 510 659 525 C 641 532 622 543 602 543 Q 598 543 595 544 Q 552 554 500 560 Q 466 567 491 582 Q 530 606 587 590 Q 593 589 603 587 C 639 579 639 579 657 575 Z"/>
    <path class="bg" d="M 655 709 Q 733 696 849 696 Q 868 695 873 686 Q 877 674 861 662 Q 809 626 753 642 Q 713 651 655 665 C 620 672 620 672 603 676 Q 525 689 435 706 Q 416 709 431 725 Q 444 738 462 742 Q 483 746 498 741 Q 546 726 603 717 C 638 712 638 712 655 709 Z"/>
    <path class="bg" d="M 655 665 Q 655 626 657 575 C 658 542 658 542 659 525 Q 659 507 667 471 Q 670 455 656 445 Q 625 424 611 422 Q 599 418 584 426 Q 575 433 582 443 Q 597 468 602 540 Q 601 540 602 543 C 603 572 603 572 603 587 Q 603 627 603 676 C 603 703 603 703 603 717 Q 603 909 618 933 Q 624 940 631 938 Q 644 929 651 873 Q 654 837 655 709 C 655 680 655 680 655 665 Z"/>
</g>
<g id="anim-layer">
    <path style="--d:1s; stroke:#FF4444;" pathLength="3333" clip-path="url(#z38094c1)" d="M 283 70 L 323 109 L 319 143 L 195 352 L 64 502"/>
    <path style="--d:2s; stroke:#FF4444;" pathLength="3333" clip-path="url(#z38094c2)" d="M 268 290 L 452 248"/>
    <path style="--d:3s; stroke:#FF4444;" pathLength="3333" clip-path="url(#z38094c3)" d="M 208 412 L 419 367"/>
    <path style="--d:4s; stroke:#FF4444;" pathLength="3333" clip-path="url(#z38094c4)" d="M 147 576 L 424 518"/>
    <path style="--d:5s; stroke:#FF4444;" pathLength="3333" clip-path="url(#z38094c5)" d="M 259 435 L 292 458 L 298 498 L 277 780 L 432 651"/>
    <path style="--d:6s; stroke:#000;" pathLength="3333" clip-path="url(#z38094c6)" d="M 507 162 L 696 131 L 749 155 L 610 357 L 524 423 L 433 458"/>
    <path style="--d:7s; stroke:#000;" pathLength="3333" clip-path="url(#z38094c7)" d="M 499 234 L 792 447 L 965 460"/>
    <path style="--d:8s; stroke:#000;" pathLength="3333" clip-path="url(#z38094c8)" d="M 490 570 L 759 533"/>
    <path style="--d:9s; stroke:#000;" pathLength="3333" clip-path="url(#z38094c9)" d="M 430 714 L 867 672"/>
    <path style="--d:10s; stroke:#000;" pathLength="3333" clip-path="url(#z38094c10)" d="M 586 430 L 631 476 L 627 932"/>
</g>
</svg>