<svg id="z38106" class="acjk" viewBox="0 0 1024 1024" xmlns="http://www.w3.org/2000/svg">

<style>
<![CDATA[
@keyframes zk { to { stroke-dashoffset:0; } }
svg.acjk path[clip-path] {
    --t:0.8s;
    animation:zk var(--t) linear forwards var(--d);
    stroke-dasharray:3337;
    stroke-dashoffset:3339;
    stroke-width:128;
    stroke-linecap:round;
    fill:none;
}
/* Low opacity for background improves visual overlap at intersections */
svg.acjk .bg { fill:#ccc; opacity: 0.5; } 
]]>
</style>
<defs>
    <clipPath id="z38106c1"><path d="M 290 277 Q 350 175 370 155 Q 380 145 375 131 Q 371 118 342 97 Q 315 78 297 79 Q 278 80 286 103 Q 302 137 289 165 Q 249 261 190 350 Q 133 435 54 530 Q 44 540 42 546 Q 39 556 53 554 Q 101 547 266 315 Q 267 311 271 307 C 284 287 284 287 290 277 Z"/></clipPath>
    <clipPath id="z38106c2"><path d="M 271 307 Q 314 310 392 289 Q 405 285 420 281 Q 436 277 438 274 Q 445 265 440 258 Q 433 248 405 245 Q 393 245 318 269 Q 303 272 290 277 C 279 281 259 307 271 307 Z"/></clipPath>
    <clipPath id="z38106c3"><path d="M 291 443 Q 414 406 418 402 Q 425 393 420 386 Q 413 376 385 373 Q 357 370 331 384 Q 306 394 277 405 Q 246 414 209 421 Q 176 430 201 443 Q 219 452 244 452 C 275 446 275 446 291 443 Z"/></clipPath>
    <clipPath id="z38106c4"><path d="M 312 569 Q 420 535 421 534 Q 428 527 424 519 Q 417 509 389 504 Q 365 501 313 522 C 281 533 281 533 265 539 Q 175 560 154 565 Q 121 572 146 587 Q 188 608 237 589 Q 252 585 267 581 C 297 573 297 573 312 569 Z"/></clipPath>
    <clipPath id="z38106c5"><path d="M 267 581 Q 267 722 223 783 Q 202 792 212 821 Q 222 848 235 861 Q 247 868 258 852 Q 274 825 410 714 Q 428 702 432 694 Q 436 684 427 684 Q 411 685 312 739 Q 302 745 301 735 Q 310 644 312 569 C 313 538 313 538 313 522 Q 316 465 314 462 Q 304 452 291 443 C 279 433 239 437 244 452 Q 262 492 265 539 C 266 567 266 567 267 581 Z"/></clipPath>
    <clipPath id="z38106c6"><path d="M 644 229 Q 843 190 850 185 Q 860 178 855 168 Q 848 156 818 148 Q 787 141 756 152 Q 705 168 649 181 Q 588 194 515 199 Q 478 203 504 222 Q 543 244 597 237 C 628 232 628 232 644 229 Z"/></clipPath>
    <clipPath id="z38106c7"><path d="M 643 463 Q 692 448 765 434 Q 775 430 785 427 C 794 423 774 405 765 407 Q 669 420 566 443 Q 556 447 552 443 Q 551 440 556 431 Q 656 301 679 280 Q 691 270 685 258 Q 679 246 644 229 C 629 223 591 222 597 237 Q 598 238 599 243 Q 614 289 538 389 Q 514 422 465 454 Q 452 464 455 476 Q 459 492 484 513 Q 494 523 508 514 Q 544 486 602 473 C 629 466 629 466 643 463 Z"/></clipPath>
    <clipPath id="z38106c8"><path d="M 785 427 Q 827 469 838 470 Q 848 470 853 459 Q 859 447 853 421 Q 849 394 813 371 Q 776 352 735 336 Q 722 332 716 333 Q 712 336 712 348 C 747 387 747 387 765 407 C 778 420 778 420 785 427 Z"/></clipPath>
    <clipPath id="z38106c9"><path d="M 678 641 Q 798 614 799 613 Q 808 606 803 596 Q 796 584 766 576 Q 730 569 680 590 C 641 600 641 600 621 605 Q 575 614 522 618 Q 485 624 511 642 Q 557 666 622 651 C 659 644 659 644 678 641 Z"/></clipPath>
    <clipPath id="z38106c10"><path d="M 673 782 Q 676 706 678 641 C 679 607 679 607 680 590 Q 681 569 682 550 Q 683 534 684 524 Q 691 503 681 493 Q 662 474 643 463 C 631 456 596 460 602 473 Q 617 501 621 597 Q 620 600 621 605 C 622 636 622 636 622 651 Q 622 706 624 789 C 624 805 673 798 673 782 Z"/></clipPath>
    <clipPath id="z38106c11"><path d="M 624 789 Q 521 799 401 813 Q 379 814 395 833 Q 410 848 428 854 Q 450 860 467 855 Q 635 813 891 821 Q 910 821 929 822 Q 948 822 954 813 Q 961 801 943 787 Q 883 741 832 757 Q 769 767 673 782 C 640 787 640 787 624 789 Z"/></clipPath>
</defs>
<g id="bg-layer">
    <path class="bg" d="M 290 277 Q 350 175 370 155 Q 380 145 375 131 Q 371 118 342 97 Q 315 78 297 79 Q 278 80 286 103 Q 302 137 289 165 Q 249 261 190 350 Q 133 435 54 530 Q 44 540 42 546 Q 39 556 53 554 Q 101 547 266 315 Q 267 311 271 307 C 284 287 284 287 290 277 Z"/>
    <path class="bg" d="M 271 307 Q 314 310 392 289 Q 405 285 420 281 Q 436 277 438 274 Q 445 265 440 258 Q 433 248 405 245 Q 393 245 318 269 Q 303 272 290 277 C 279 281 259 307 271 307 Z"/>
    <path class="bg" d="M 291 443 Q 414 406 418 402 Q 425 393 420 386 Q 413 376 385 373 Q 357 370 331 384 Q 306 394 277 405 Q 246 414 209 421 Q 176 430 201 443 Q 219 452 244 452 C 275 446 275 446 291 443 Z"/>
    <path class="bg" d="M 312 569 Q 420 535 421 534 Q 428 527 424 519 Q 417 509 389 504 Q 365 501 313 522 C 281 533 281 533 265 539 Q 175 560 154 565 Q 121 572 146 587 Q 188 608 237 589 Q 252 585 267 581 C 297 573 297 573 312 569 Z"/>
    <path class="bg" d="M 267 581 Q 267 722 223 783 Q 202 792 212 821 Q 222 848 235 861 Q 247 868 258 852 Q 274 825 410 714 Q 428 702 432 694 Q 436 684 427 684 Q 411 685 312 739 Q 302 745 301 735 Q 310 644 312 569 C 313 538 313 538 313 522 Q 316 465 314 462 Q 304 452 291 443 C 279 433 239 437 244 452 Q 262 492 265 539 C 266 567 266 567 267 581 Z"/>
    <path class="bg" d="M 644 229 Q 843 190 850 185 Q 860 178 855 168 Q 848 156 818 148 Q 787 141 756 152 Q 705 168 649 181 Q 588 194 515 199 Q 478 203 504 222 Q 543 244 597 237 C 628 232 628 232 644 229 Z"/>
    <path class="bg" d="M 643 463 Q 692 448 765 434 Q 775 430 785 427 C 794 423 774 405 765 407 Q 669 420 566 443 Q 556 447 552 443 Q 551 440 556 431 Q 656 301 679 280 Q 691 270 685 258 Q 679 246 644 229 C 629 223 591 222 597 237 Q 598 238 599 243 Q 614 289 538 389 Q 514 422 465 454 Q 452 464 455 476 Q 459 492 484 513 Q 494 523 508 514 Q 544 486 602 473 C 629 466 629 466 643 463 Z"/>
    <path class="bg" d="M 785 427 Q 827 469 838 470 Q 848 470 853 459 Q 859 447 853 421 Q 849 394 813 371 Q 776 352 735 336 Q 722 332 716 333 Q 712 336 712 348 C 747 387 747 387 765 407 C 778 420 778 420 785 427 Z"/>
    <path class="bg" d="M 678 641 Q 798 614 799 613 Q 808 606 803 596 Q 796 584 766 576 Q 730 569 680 590 C 641 600 641 600 621 605 Q 575 614 522 618 Q 485 624 511 642 Q 557 666 622 651 C 659 644 659 644 678 641 Z"/>
    <path class="bg" d="M 673 782 Q 676 706 678 641 C 679 607 679 607 680 590 Q 681 569 682 550 Q 683 534 684 524 Q 691 503 681 493 Q 662 474 643 463 C 631 456 596 460 602 473 Q 617 501 621 597 Q 620 600 621 605 C 622 636 622 636 622 651 Q 622 706 624 789 C 624 805 673 798 673 782 Z"/>
    <path class="bg" d="M 624 789 Q 521 799 401 813 Q 379 814 395 833 Q 410 848 428 854 Q 450 860 467 855 Q 635 813 891 821 Q 910 821 929 822 Q 948 822 954 813 Q 961 801 943 787 Q 883 741 832 757 Q 769 767 673 782 C 640 787 640 787 624 789 Z"/>
</g>
<g id="anim-layer">
    <path style="--d:1s; stroke:#FF4444;" pathLength="3333" clip-path="url(#z38106c1)" d="M 291 88 L 331 154 L 181 398 L 46 544"/>
    <path style="--d:2s; stroke:#FF4444;" pathLength="3333" clip-path="url(#z38106c2)" d="M 284 302 L 437 265"/>
    <path style="--d:3s; stroke:#FF4444;" pathLength="3333" clip-path="url(#z38106c3)" d="M 200 433 L 417 392"/>
    <path style="--d:4s; stroke:#FF4444;" pathLength="3333" clip-path="url(#z38106c4)" d="M 142 574 L 418 519"/>
    <path style="--d:5s; stroke:#FF4444;" pathLength="3333" clip-path="url(#z38106c5)" d="M 254 457 L 287 484 L 259 806 L 426 690"/>
    <path style="--d:6s; stroke:#000;" pathLength="3333" clip-path="url(#z38106c6)" d="M 499 208 L 591 214 L 850 170"/>
    <path style="--d:7s; stroke:#000;" pathLength="3333" clip-path="url(#z38106c7)" d="M 604 239 L 641 277 L 511 444 L 515 471 L 779 423"/>
    <path style="--d:8s; stroke:#000;" pathLength="3333" clip-path="url(#z38106c8)" d="M 719 341 L 817 415 L 841 465"/>
    <path style="--d:9s; stroke:#000;" pathLength="3333" clip-path="url(#z38106c9)" d="M 509 629 L 800 596"/>
    <path style="--d:10s; stroke:#000;" pathLength="3333" clip-path="url(#z38106c10)" d="M 610 477 L 650 510 L 637 785"/>
    <path style="--d:11s; stroke:#000;" pathLength="3333" clip-path="url(#z38106c11)" d="M 395 821 L 451 832 L 867 786 L 951 802"/>
</g>
</svg>