<svg id="z38165" class="acjk" viewBox="0 0 1024 1024" xmlns="http://www.w3.org/2000/svg">

<style>
<![CDATA[
@keyframes zk { to { stroke-dashoffset:0; } }
svg.acjk path[clip-path] {
    --t:0.8s;
    animation:zk var(--t) linear forwards var(--d);
    stroke-dasharray:3337;
    stroke-dashoffset:3339;
    stroke-width:128;
    stroke-linecap:round;
    fill:none;
}
/* Low opacity for background improves visual overlap at intersections */
svg.acjk .bg { fill:#ccc; opacity: 0.5; } 
]]>
</style>
<defs>
    <clipPath id="z38165c1"><path d="M 255 312 Q 337 149 338 144 Q 337 141 336 139 Q 332 127 303 109 Q 276 96 259 97 Q 241 100 251 120 Q 267 150 259 178 Q 231 271 183 359 Q 137 444 71 539 Q 64 549 62 555 Q 59 565 72 562 Q 108 552 235 348 Q 238 342 242 336 C 251 320 251 320 255 312 Z"/></clipPath>
    <clipPath id="z38165c2"><path d="M 242 336 Q 287 348 330 329 Q 348 323 366 318 Q 373 315 376 314 Q 382 305 377 298 Q 368 288 341 287 Q 313 286 288 302 Q 279 305 269 308 Q 262 309 255 312 C 247 315 233 334 242 336 Z"/></clipPath>
    <clipPath id="z38165c3"><path d="M 267 476 Q 267 475 269 475 Q 303 462 340 449 Q 356 443 359 440 Q 366 433 360 425 Q 353 416 327 414 Q 300 413 242 444 Q 218 451 190 459 Q 160 469 185 479 Q 200 485 225 486 C 253 479 253 479 267 476 Z"/></clipPath>
    <clipPath id="z38165c4"><path d="M 290 604 Q 312 595 338 588 Q 366 578 370 574 Q 377 565 372 558 Q 365 548 337 545 Q 313 542 291 553 C 260 566 260 566 245 573 Q 169 597 136 605 Q 105 614 129 627 Q 169 639 246 618 C 275 609 275 609 290 604 Z"/></clipPath>
    <clipPath id="z38165c5"><path d="M 246 618 Q 246 742 203 798 Q 182 826 218 863 Q 218 864 221 866 Q 233 873 243 858 Q 253 834 357 730 Q 373 717 376 709 Q 379 700 370 701 Q 364 701 286 747 Q 282 751 279 746 Q 288 668 290 604 C 291 570 291 570 291 553 Q 292 534 296 518 Q 300 506 292 496 Q 279 484 267 476 C 255 469 220 473 225 486 Q 243 526 245 573 C 246 603 246 603 246 618 Z"/></clipPath>
    <clipPath id="z38165c6"><path d="M 458 289 Q 480 282 505 269 Q 518 262 527 269 Q 533 273 525 291 Q 488 375 495 392 Q 529 426 530 478 Q 529 481 526 485 Q 522 492 505 491 Q 486 488 463 489 Q 442 488 465 501 Q 502 523 538 552 Q 548 562 560 553 Q 572 546 579 525 Q 592 477 540 408 Q 539 405 537 404 Q 504 356 583 277 Q 587 271 593 268 Q 609 258 601 246 Q 589 230 556 215 Q 538 208 527 218 Q 491 248 438 266 C 429 270 449 293 458 289 Z"/></clipPath>
    <clipPath id="z38165c7"><path d="M 438 266 Q 419 250 396 244 Q 387 243 381 250 Q 378 256 385 266 Q 442 396 404 669 Q 397 714 383 759 Q 376 784 381 803 Q 390 836 401 848 Q 411 861 421 848 Q 448 820 450 632 Q 453 461 458 289 C 458 279 446 272 438 266 Z"/></clipPath>
    <clipPath id="z38165c8"><path d="M 846 289 Q 978 282 985 273 Q 989 261 973 250 Q 919 214 861 234 Q 752 261 606 291 Q 587 294 602 309 Q 615 321 633 325 Q 652 329 668 323 Q 749 296 797 296 C 830 291 830 291 846 289 Z"/></clipPath>
    <clipPath id="z38165c9"><path d="M 626 431 Q 619 427 601 424 Q 591 421 588 425 Q 584 429 589 442 Q 608 482 618 549 Q 619 568 631 582 Q 644 600 649 588 Q 652 581 653 570 C 655 560 653 550 651 540 Q 644 471 643 453 C 643 444 635 434 626 431 Z"/></clipPath>
    <clipPath id="z38165c10"><path d="M 754 522 Q 769 467 786 450 Q 805 428 785 417 Q 769 408 746 394 Q 731 385 715 395 Q 699 407 676 415 Q 655 422 626 431 C 617 434 634 455 643 453 Q 649 452 656 449 Q 681 442 704 437 Q 720 434 723 440 Q 729 444 723 470 Q 717 494 710 521 C 705 535 751 536 754 522 Z"/></clipPath>
    <clipPath id="z38165c11"><path d="M 653 570 Q 699 558 767 551 Q 777 550 777 542 Q 777 535 754 522 C 741 514 724 516 710 521 C 709 521 709 521 709 521 Q 675 533 651 540 C 641 542 643 572 653 570 Z"/></clipPath>
    <clipPath id="z38165c12"><path d="M 769 793 Q 744 786 712 780 Q 700 777 701 784 Q 702 791 713 801 Q 782 850 825 891 Q 837 900 850 884 Q 881 838 882 743 Q 867 533 876 349 Q 882 321 876 312 Q 869 302 846 289 C 832 281 791 281 797 296 Q 812 345 815 361 Q 815 365 815 371 Q 830 768 810 793 Q 798 800 769 793 Z"/></clipPath>
</defs>
<g id="bg-layer">
    <path class="bg" d="M 255 312 Q 337 149 338 144 Q 337 141 336 139 Q 332 127 303 109 Q 276 96 259 97 Q 241 100 251 120 Q 267 150 259 178 Q 231 271 183 359 Q 137 444 71 539 Q 64 549 62 555 Q 59 565 72 562 Q 108 552 235 348 Q 238 342 242 336 C 251 320 251 320 255 312 Z"/>
    <path class="bg" d="M 242 336 Q 287 348 330 329 Q 348 323 366 318 Q 373 315 376 314 Q 382 305 377 298 Q 368 288 341 287 Q 313 286 288 302 Q 279 305 269 308 Q 262 309 255 312 C 247 315 233 334 242 336 Z"/>
    <path class="bg" d="M 267 476 Q 267 475 269 475 Q 303 462 340 449 Q 356 443 359 440 Q 366 433 360 425 Q 353 416 327 414 Q 300 413 242 444 Q 218 451 190 459 Q 160 469 185 479 Q 200 485 225 486 C 253 479 253 479 267 476 Z"/>
    <path class="bg" d="M 290 604 Q 312 595 338 588 Q 366 578 370 574 Q 377 565 372 558 Q 365 548 337 545 Q 313 542 291 553 C 260 566 260 566 245 573 Q 169 597 136 605 Q 105 614 129 627 Q 169 639 246 618 C 275 609 275 609 290 604 Z"/>
    <path class="bg" d="M 246 618 Q 246 742 203 798 Q 182 826 218 863 Q 218 864 221 866 Q 233 873 243 858 Q 253 834 357 730 Q 373 717 376 709 Q 379 700 370 701 Q 364 701 286 747 Q 282 751 279 746 Q 288 668 290 604 C 291 570 291 570 291 553 Q 292 534 296 518 Q 300 506 292 496 Q 279 484 267 476 C 255 469 220 473 225 486 Q 243 526 245 573 C 246 603 246 603 246 618 Z"/>
    <path class="bg" d="M 458 289 Q 480 282 505 269 Q 518 262 527 269 Q 533 273 525 291 Q 488 375 495 392 Q 529 426 530 478 Q 529 481 526 485 Q 522 492 505 491 Q 486 488 463 489 Q 442 488 465 501 Q 502 523 538 552 Q 548 562 560 553 Q 572 546 579 525 Q 592 477 540 408 Q 539 405 537 404 Q 504 356 583 277 Q 587 271 593 268 Q 609 258 601 246 Q 589 230 556 215 Q 538 208 527 218 Q 491 248 438 266 C 429 270 449 293 458 289 Z"/>
    <path class="bg" d="M 438 266 Q 419 250 396 244 Q 387 243 381 250 Q 378 256 385 266 Q 442 396 404 669 Q 397 714 383 759 Q 376 784 381 803 Q 390 836 401 848 Q 411 861 421 848 Q 448 820 450 632 Q 453 461 458 289 C 458 279 446 272 438 266 Z"/>
    <path class="bg" d="M 846 289 Q 978 282 985 273 Q 989 261 973 250 Q 919 214 861 234 Q 752 261 606 291 Q 587 294 602 309 Q 615 321 633 325 Q 652 329 668 323 Q 749 296 797 296 C 830 291 830 291 846 289 Z"/>
    <path class="bg" d="M 626 431 Q 619 427 601 424 Q 591 421 588 425 Q 584 429 589 442 Q 608 482 618 549 Q 619 568 631 582 Q 644 600 649 588 Q 652 581 653 570 C 655 560 653 550 651 540 Q 644 471 643 453 C 643 444 635 434 626 431 Z"/>
    <path class="bg" d="M 754 522 Q 769 467 786 450 Q 805 428 785 417 Q 769 408 746 394 Q 731 385 715 395 Q 699 407 676 415 Q 655 422 626 431 C 617 434 634 455 643 453 Q 649 452 656 449 Q 681 442 704 437 Q 720 434 723 440 Q 729 444 723 470 Q 717 494 710 521 C 705 535 751 536 754 522 Z"/>
    <path class="bg" d="M 653 570 Q 699 558 767 551 Q 777 550 777 542 Q 777 535 754 522 C 741 514 724 516 710 521 C 709 521 709 521 709 521 Q 675 533 651 540 C 641 542 643 572 653 570 Z"/>
    <path class="bg" d="M 769 793 Q 744 786 712 780 Q 700 777 701 784 Q 702 791 713 801 Q 782 850 825 891 Q 837 900 850 884 Q 881 838 882 743 Q 867 533 876 349 Q 882 321 876 312 Q 869 302 846 289 C 832 281 791 281 797 296 Q 812 345 815 361 Q 815 365 815 371 Q 830 768 810 793 Q 798 800 769 793 Z"/>
</g>
<g id="anim-layer">
    <path style="--d:1s; stroke:#FF4444;" pathLength="3333" clip-path="url(#z38165c1)" d="M 254 107 L 299 149 L 271 223 L 188 389 L 68 555"/>
    <path style="--d:2s; stroke:#FF4444;" pathLength="3333" clip-path="url(#z38165c2)" d="M 254 332 L 373 304"/>
    <path style="--d:3s; stroke:#FF4444;" pathLength="3333" clip-path="url(#z38165c3)" d="M 180 470 L 355 427"/>
    <path style="--d:4s; stroke:#FF4444;" pathLength="3333" clip-path="url(#z38165c4)" d="M 130 618 L 369 563"/>
    <path style="--d:5s; stroke:#FF4444;" pathLength="3333" clip-path="url(#z38165c5)" d="M 232 490 L 268 521 L 241 808 L 371 708"/>
    <path style="--d:6s; stroke:#000;" pathLength="3333" clip-path="url(#z38165c6)" d="M 446 265 L 536 241 L 565 260 L 511 384 L 554 497 L 534 523 L 464 493"/>
    <path style="--d:7s; stroke:#000;" pathLength="3333" clip-path="url(#z38165c7)" d="M 388 253 L 429 301 L 436 404 L 408 846"/>
    <path style="--d:8s; stroke:#000;" pathLength="3333" clip-path="url(#z38165c8)" d="M 601 299 L 885 257 L 978 268"/>
    <path style="--d:9s; stroke:#000;" pathLength="3333" clip-path="url(#z38165c9)" d="M 594 430 L 619 457 L 645 586"/>
    <path style="--d:10s; stroke:#000;" pathLength="3333" clip-path="url(#z38165c10)" d="M 632 431 L 728 414 L 755 432 L 722 518"/>
    <path style="--d:11s; stroke:#000;" pathLength="3333" clip-path="url(#z38165c11)" d="M 660 561 L 768 540"/>
    <path style="--d:12s; stroke:#000;" pathLength="3333" clip-path="url(#z38165c12)" d="M 804 301 L 845 341 L 846 789 L 820 844 L 707 786"/>
</g>
</svg>