<svg id="z38186" class="acjk" viewBox="0 0 1024 1024" xmlns="http://www.w3.org/2000/svg">

<style>
<![CDATA[
@keyframes zk { to { stroke-dashoffset:0; } }
svg.acjk path[clip-path] {
    --t:0.8s;
    animation:zk var(--t) linear forwards var(--d);
    stroke-dasharray:3337;
    stroke-dashoffset:3339;
    stroke-width:128;
    stroke-linecap:round;
    fill:none;
}
/* Low opacity for background improves visual overlap at intersections */
svg.acjk .bg { fill:#ccc; opacity: 0.5; } 
]]>
</style>
<defs>
    <clipPath id="z38186c1"><path d="M 290 283 Q 338 199 362 176 Q 371 166 366 152 Q 362 139 334 116 Q 307 98 289 99 Q 270 100 278 122 Q 293 153 281 181 Q 244 272 187 356 Q 133 437 59 526 Q 49 536 46 542 Q 43 552 57 550 Q 114 541 267 318 Q 268 314 272 310 C 284 292 284 292 290 283 Z"/></clipPath>
    <clipPath id="z38186c2"><path d="M 272 310 Q 308 320 378 304 Q 399 298 423 293 Q 439 289 441 286 Q 448 279 444 270 Q 437 260 409 256 Q 384 253 324 276 Q 321 276 290 283 C 279 285 261 308 272 310 Z"/></clipPath>
    <clipPath id="z38186c3"><path d="M 278 449 Q 281 448 285 446 Q 393 413 398 408 Q 405 401 400 394 Q 393 384 367 381 Q 343 380 271 411 Q 241 420 208 427 Q 177 436 201 448 Q 213 452 230 455 C 246 458 263 455 278 449 Z"/></clipPath>
    <clipPath id="z38186c4"><path d="M 295 577 Q 404 541 409 538 Q 416 529 412 522 Q 405 512 377 508 Q 349 505 296 531 C 267 542 267 542 252 547 Q 248 547 246 549 Q 203 562 149 573 Q 116 582 142 595 Q 181 614 231 596 Q 240 593 253 590 C 281 581 281 581 295 577 Z"/></clipPath>
    <clipPath id="z38186c5"><path d="M 253 590 Q 249 713 220 759 Q 187 801 231 839 Q 243 846 253 830 Q 265 803 386 683 Q 401 670 404 661 Q 407 652 398 653 Q 391 653 293 718 Q 289 722 287 718 Q 294 640 295 577 C 296 546 296 546 296 531 Q 296 506 300 486 Q 304 471 278 449 C 267 438 224 440 230 455 Q 249 497 252 547 C 253 576 253 576 253 590 Z"/></clipPath>
    <clipPath id="z38186c6"><path d="M 531 262 Q 555 223 581 170 Q 593 142 605 127 Q 612 117 606 107 Q 602 97 576 81 Q 552 69 537 72 Q 522 76 531 92 Q 561 140 446 342 Q 439 352 438 357 Q 437 366 447 363 Q 471 353 522 276 C 528 267 528 267 531 262 Z"/></clipPath>
    <clipPath id="z38186c7"><path d="M 700 269 Q 728 262 759 260 Q 775 259 779 264 Q 789 280 780 322 Q 761 437 729 487 Q 711 517 685 512 Q 663 506 642 499 Q 620 492 635 514 Q 674 551 692 580 Q 711 602 730 584 Q 761 563 783 525 Q 810 480 831 340 Q 838 291 856 266 Q 868 256 863 245 Q 854 235 808 212 Q 789 203 772 215 Q 730 239 565 260 Q 535 260 531 262 C 526 263 518 272 522 276 Q 540 294 567 298 C 579 300 592 294 604 290 Q 629 283 656 278 C 685 272 685 272 700 269 Z"/></clipPath>
    <clipPath id="z38186c8"><path d="M 567 298 Q 566 302 565 310 Q 538 388 465 470 Q 461 474 461 478 Q 461 482 465 481 Q 498 481 595 352 Q 595 342 614 322 Q 618 315 614 304 Q 610 297 604 290 C 596 280 569 286 567 298 Z"/></clipPath>
    <clipPath id="z38186c9"><path d="M 656 278 Q 669 335 592 458 Q 591 459 589 462 Q 565 496 504 566 Q 498 572 506 572 Q 558 560 640 451 Q 641 448 644 445 Q 672 403 714 321 Q 720 309 724 305 Q 728 301 727 292 Q 720 273 700 269 C 685 267 653 263 656 278 Z"/></clipPath>
    <clipPath id="z38186c10"><path d="M 430 661 Q 411 721 380 775 Q 365 808 381 833 Q 388 849 407 837 Q 455 794 455 711 Q 458 681 451 660 Q 447 653 441 653 Q 434 654 430 661 Z"/></clipPath>
    <clipPath id="z38186c11"><path d="M 486 678 Q 498 774 566 825 Q 650 885 823 886 Q 860 883 892 872 Q 914 865 918 850 Q 922 841 888 816 Q 837 767 801 718 Q 789 700 785 707 Q 781 714 784 728 Q 803 807 795 817 Q 786 827 748 827 Q 613 821 559 764 Q 534 739 526 698 Q 520 676 510 669 Q 497 662 490 665 Q 484 666 486 678 Z"/></clipPath>
    <clipPath id="z38186c12"><path d="M 591 622 Q 633 686 657 703 Q 670 709 680 699 Q 687 689 688 674 Q 685 635 608 591 Q 595 584 586 585 Q 582 585 581 596 Q 580 606 591 622 Z"/></clipPath>
    <clipPath id="z38186c13"><path d="M 804 611 Q 844 645 891 694 Q 904 710 919 714 Q 926 715 933 706 Q 943 693 930 656 Q 921 620 862 601 Q 825 589 804 584 Q 797 580 795 590 Q 795 602 804 611 Z"/></clipPath>
</defs>
<g id="bg-layer">
    <path class="bg" d="M 290 283 Q 338 199 362 176 Q 371 166 366 152 Q 362 139 334 116 Q 307 98 289 99 Q 270 100 278 122 Q 293 153 281 181 Q 244 272 187 356 Q 133 437 59 526 Q 49 536 46 542 Q 43 552 57 550 Q 114 541 267 318 Q 268 314 272 310 C 284 292 284 292 290 283 Z"/>
    <path class="bg" d="M 272 310 Q 308 320 378 304 Q 399 298 423 293 Q 439 289 441 286 Q 448 279 444 270 Q 437 260 409 256 Q 384 253 324 276 Q 321 276 290 283 C 279 285 261 308 272 310 Z"/>
    <path class="bg" d="M 278 449 Q 281 448 285 446 Q 393 413 398 408 Q 405 401 400 394 Q 393 384 367 381 Q 343 380 271 411 Q 241 420 208 427 Q 177 436 201 448 Q 213 452 230 455 C 246 458 263 455 278 449 Z"/>
    <path class="bg" d="M 295 577 Q 404 541 409 538 Q 416 529 412 522 Q 405 512 377 508 Q 349 505 296 531 C 267 542 267 542 252 547 Q 248 547 246 549 Q 203 562 149 573 Q 116 582 142 595 Q 181 614 231 596 Q 240 593 253 590 C 281 581 281 581 295 577 Z"/>
    <path class="bg" d="M 253 590 Q 249 713 220 759 Q 187 801 231 839 Q 243 846 253 830 Q 265 803 386 683 Q 401 670 404 661 Q 407 652 398 653 Q 391 653 293 718 Q 289 722 287 718 Q 294 640 295 577 C 296 546 296 546 296 531 Q 296 506 300 486 Q 304 471 278 449 C 267 438 224 440 230 455 Q 249 497 252 547 C 253 576 253 576 253 590 Z"/>
    <path class="bg" d="M 531 262 Q 555 223 581 170 Q 593 142 605 127 Q 612 117 606 107 Q 602 97 576 81 Q 552 69 537 72 Q 522 76 531 92 Q 561 140 446 342 Q 439 352 438 357 Q 437 366 447 363 Q 471 353 522 276 C 528 267 528 267 531 262 Z"/>
    <path class="bg" d="M 700 269 Q 728 262 759 260 Q 775 259 779 264 Q 789 280 780 322 Q 761 437 729 487 Q 711 517 685 512 Q 663 506 642 499 Q 620 492 635 514 Q 674 551 692 580 Q 711 602 730 584 Q 761 563 783 525 Q 810 480 831 340 Q 838 291 856 266 Q 868 256 863 245 Q 854 235 808 212 Q 789 203 772 215 Q 730 239 565 260 Q 535 260 531 262 C 526 263 518 272 522 276 Q 540 294 567 298 C 579 300 592 294 604 290 Q 629 283 656 278 C 685 272 685 272 700 269 Z"/>
    <path class="bg" d="M 567 298 Q 566 302 565 310 Q 538 388 465 470 Q 461 474 461 478 Q 461 482 465 481 Q 498 481 595 352 Q 595 342 614 322 Q 618 315 614 304 Q 610 297 604 290 C 596 280 569 286 567 298 Z"/>
    <path class="bg" d="M 656 278 Q 669 335 592 458 Q 591 459 589 462 Q 565 496 504 566 Q 498 572 506 572 Q 558 560 640 451 Q 641 448 644 445 Q 672 403 714 321 Q 720 309 724 305 Q 728 301 727 292 Q 720 273 700 269 C 685 267 653 263 656 278 Z"/>
    <path class="bg" d="M 430 661 Q 411 721 380 775 Q 365 808 381 833 Q 388 849 407 837 Q 455 794 455 711 Q 458 681 451 660 Q 447 653 441 653 Q 434 654 430 661 Z"/>
    <path class="bg" d="M 486 678 Q 498 774 566 825 Q 650 885 823 886 Q 860 883 892 872 Q 914 865 918 850 Q 922 841 888 816 Q 837 767 801 718 Q 789 700 785 707 Q 781 714 784 728 Q 803 807 795 817 Q 786 827 748 827 Q 613 821 559 764 Q 534 739 526 698 Q 520 676 510 669 Q 497 662 490 665 Q 484 666 486 678 Z"/>
    <path class="bg" d="M 591 622 Q 633 686 657 703 Q 670 709 680 699 Q 687 689 688 674 Q 685 635 608 591 Q 595 584 586 585 Q 582 585 581 596 Q 580 606 591 622 Z"/>
    <path class="bg" d="M 804 611 Q 844 645 891 694 Q 904 710 919 714 Q 926 715 933 706 Q 943 693 930 656 Q 921 620 862 601 Q 825 589 804 584 Q 797 580 795 590 Q 795 602 804 611 Z"/>
</g>
<g id="anim-layer">
    <path style="--d:1s; stroke:#FF4444;" pathLength="3333" clip-path="url(#z38186c1)" d="M 284 109 L 323 172 L 183 399 L 51 543"/>
    <path style="--d:2s; stroke:#FF4444;" pathLength="3333" clip-path="url(#z38186c2)" d="M 278 306 L 439 270"/>
    <path style="--d:3s; stroke:#FF4444;" pathLength="3333" clip-path="url(#z38186c3)" d="M 196 436 L 398 399"/>
    <path style="--d:4s; stroke:#FF4444;" pathLength="3333" clip-path="url(#z38186c4)" d="M 137 582 L 407 530"/>
    <path style="--d:5s; stroke:#FF4444;" pathLength="3333" clip-path="url(#z38186c5)" d="M 238 457 L 272 491 L 252 785 L 398 660"/>
    <path style="--d:6s; stroke:#000;" pathLength="3333" clip-path="url(#z38186c6)" d="M 535 81 L 573 121 L 445 355"/>
    <path style="--d:7s; stroke:#000;" pathLength="3333" clip-path="url(#z38186c7)" d="M 527 273 L 780 235 L 824 264 L 747 519 L 701 552 L 634 504"/>
    <path style="--d:8s; stroke:#000;" pathLength="3333" clip-path="url(#z38186c8)" d="M 598 297 L 469 476"/>
    <path style="--d:9s; stroke:#000;" pathLength="3333" clip-path="url(#z38186c9)" d="M 662 285 L 690 313 L 638 418 L 508 566"/>
    <path style="--d:10s; stroke:#000;" pathLength="3333" clip-path="url(#z38186c10)" d="M 443 656 L 390 838"/>
    <path style="--d:11s; stroke:#000;" pathLength="3333" clip-path="url(#z38186c11)" d="M 494 669 L 565 797 L 707 850 L 810 852 L 866 833 L 789 713"/>
    <path style="--d:12s; stroke:#000;" pathLength="3333" clip-path="url(#z38186c12)" d="M 589 593 L 676 698"/>
    <path style="--d:13s; stroke:#000;" pathLength="3333" clip-path="url(#z38186c13)" d="M 802 590 L 891 650 L 922 709"/>
</g>
</svg>