<svg id="z38209" class="acjk" viewBox="0 0 1024 1024" xmlns="http://www.w3.org/2000/svg">

<style>
<![CDATA[
@keyframes zk { to { stroke-dashoffset:0; } }
svg.acjk path[clip-path] {
    --t:0.8s;
    animation:zk var(--t) linear forwards var(--d);
    stroke-dasharray:3337;
    stroke-dashoffset:3339;
    stroke-width:128;
    stroke-linecap:round;
    fill:none;
}
/* Low opacity for background improves visual overlap at intersections */
svg.acjk .bg { fill:#ccc; opacity: 0.5; } 
]]>
</style>
<defs>
    <clipPath id="z38209c1"><path d="M 290 281 Q 338 188 367 161 Q 377 151 372 136 Q 368 123 338 101 Q 310 82 291 83 Q 272 84 281 107 Q 296 140 284 168 Q 247 262 189 351 Q 134 436 58 529 Q 48 539 46 545 Q 43 557 57 554 Q 108 548 269 313 Q 270 309 274 305 C 285 289 285 289 290 281 Z"/></clipPath>
    <clipPath id="z38209c2"><path d="M 274 305 Q 313 321 360 308 Q 394 301 430 292 Q 446 288 448 286 Q 455 279 451 271 Q 444 261 417 255 Q 390 251 330 273 Q 323 273 290 281 C 281 283 265 301 274 305 Z"/></clipPath>
    <clipPath id="z38209c3"><path d="M 282 461 Q 328 445 380 430 Q 402 421 406 418 Q 413 409 408 402 Q 401 392 373 389 Q 345 388 319 401 Q 294 413 265 423 Q 234 433 196 441 Q 163 451 189 463 Q 210 470 232 471 C 265 464 265 464 282 461 Z"/></clipPath>
    <clipPath id="z38209c4"><path d="M 301 595 Q 338 582 379 570 Q 413 560 418 554 Q 425 545 420 538 Q 413 528 385 524 Q 349 523 302 548 C 269 561 269 561 252 568 Q 206 583 153 593 Q 120 602 145 615 Q 182 630 243 612 Q 247 611 253 610 C 285 600 285 600 301 595 Z"/></clipPath>
    <clipPath id="z38209c5"><path d="M 253 610 Q 249 728 221 775 Q 176 824 225 869 C 226 870 226 870 227 870 Q 240 877 252 860 Q 265 829 408 693 Q 424 680 429 670 Q 432 660 422 661 Q 407 661 297 737 Q 293 741 290 737 Q 297 659 301 595 C 302 564 302 564 302 548 Q 302 523 307 502 Q 313 484 282 461 C 269 450 227 455 232 471 Q 250 516 252 568 C 253 596 253 596 253 610 Z"/></clipPath>
    <clipPath id="z38209c6"><path d="M 512 168 Q 546 223 571 236 Q 583 240 592 231 Q 599 221 598 207 Q 597 188 584 174 Q 569 159 527 138 Q 514 131 506 134 Q 500 134 501 144 Q 501 154 512 168 Z"/></clipPath>
    <clipPath id="z38209c7"><path d="M 717 113 Q 705 137 645 231 Q 638 247 653 242 Q 698 208 722 184 Q 770 135 795 120 Q 813 110 802 94 Q 787 81 763 70 Q 741 60 729 64 Q 717 67 723 79 Q 727 95 717 113 Z"/></clipPath>
    <clipPath id="z38209c8"><path d="M 635 313 Q 692 300 753 288 Q 793 278 799 272 Q 806 265 803 258 Q 796 248 771 242 Q 746 238 720 247 Q 674 263 624 276 Q 569 289 503 296 Q 472 302 495 316 Q 526 332 595 322 C 622 316 622 316 635 313 Z"/></clipPath>
    <clipPath id="z38209c9"><path d="M 648 418 Q 678 411 762 399 Q 771 400 778 389 Q 779 380 760 372 Q 733 354 654 381 Q 651 381 650 382 C 618 389 618 389 602 393 Q 581 396 499 409 Q 477 412 494 426 Q 521 444 555 437 Q 574 431 603 427 C 633 421 633 421 648 418 Z"/></clipPath>
    <clipPath id="z38209c10"><path d="M 644 492 Q 645 452 648 418 C 649 394 649 394 650 382 Q 651 373 652 366 Q 652 329 651 328 Q 642 319 635 313 C 624 304 593 309 595 322 Q 598 334 602 393 C 603 416 603 416 603 427 Q 603 455 605 499 C 605 512 644 505 644 492 Z"/></clipPath>
    <clipPath id="z38209c11"><path d="M 605 499 Q 532 509 450 525 Q 432 526 446 541 Q 459 553 474 557 Q 492 561 506 556 Q 653 514 849 514 C 850 514 850 514 851 514 Q 867 513 872 506 Q 876 496 862 484 Q 807 448 762 467 Q 714 477 644 492 C 618 497 618 497 605 499 Z"/></clipPath>
    <clipPath id="z38209c12"><path d="M 652 656 Q 700 646 792 645 Q 808 644 812 636 Q 816 626 802 616 Q 756 583 694 604 Q 673 608 649 616 C 609 625 609 625 589 629 Q 540 638 485 649 Q 469 652 482 665 Q 503 684 550 674 Q 563 670 583 667 C 629 660 629 660 652 656 Z"/></clipPath>
    <clipPath id="z38209c13"><path d="M 649 616 Q 649 615 650 615 Q 654 596 660 587 Q 667 580 661 570 Q 655 563 627 552 Q 596 536 581 542 Q 571 548 579 563 Q 588 590 589 629 C 585 654 585 654 583 667 Q 565 775 442 840 Q 409 855 361 875 Q 336 885 365 888 Q 458 892 548 823 Q 555 816 564 808 Q 606 765 636 675 C 645 636 645 636 649 616 Z"/></clipPath>
    <clipPath id="z38209c14"><path d="M 636 675 Q 700 772 785 876 Q 801 892 829 892 Q 922 888 950 882 Q 959 879 960 875 Q 961 871 949 864 Q 811 804 755 753 Q 706 711 652 656 C 641 645 627 662 636 675 Z"/></clipPath>
</defs>
<g id="bg-layer">
    <path class="bg" d="M 290 281 Q 338 188 367 161 Q 377 151 372 136 Q 368 123 338 101 Q 310 82 291 83 Q 272 84 281 107 Q 296 140 284 168 Q 247 262 189 351 Q 134 436 58 529 Q 48 539 46 545 Q 43 557 57 554 Q 108 548 269 313 Q 270 309 274 305 C 285 289 285 289 290 281 Z"/>
    <path class="bg" d="M 274 305 Q 313 321 360 308 Q 394 301 430 292 Q 446 288 448 286 Q 455 279 451 271 Q 444 261 417 255 Q 390 251 330 273 Q 323 273 290 281 C 281 283 265 301 274 305 Z"/>
    <path class="bg" d="M 282 461 Q 328 445 380 430 Q 402 421 406 418 Q 413 409 408 402 Q 401 392 373 389 Q 345 388 319 401 Q 294 413 265 423 Q 234 433 196 441 Q 163 451 189 463 Q 210 470 232 471 C 265 464 265 464 282 461 Z"/>
    <path class="bg" d="M 301 595 Q 338 582 379 570 Q 413 560 418 554 Q 425 545 420 538 Q 413 528 385 524 Q 349 523 302 548 C 269 561 269 561 252 568 Q 206 583 153 593 Q 120 602 145 615 Q 182 630 243 612 Q 247 611 253 610 C 285 600 285 600 301 595 Z"/>
    <path class="bg" d="M 253 610 Q 249 728 221 775 Q 176 824 225 869 C 226 870 226 870 227 870 Q 240 877 252 860 Q 265 829 408 693 Q 424 680 429 670 Q 432 660 422 661 Q 407 661 297 737 Q 293 741 290 737 Q 297 659 301 595 C 302 564 302 564 302 548 Q 302 523 307 502 Q 313 484 282 461 C 269 450 227 455 232 471 Q 250 516 252 568 C 253 596 253 596 253 610 Z"/>
    <path class="bg" d="M 512 168 Q 546 223 571 236 Q 583 240 592 231 Q 599 221 598 207 Q 597 188 584 174 Q 569 159 527 138 Q 514 131 506 134 Q 500 134 501 144 Q 501 154 512 168 Z"/>
    <path class="bg" d="M 717 113 Q 705 137 645 231 Q 638 247 653 242 Q 698 208 722 184 Q 770 135 795 120 Q 813 110 802 94 Q 787 81 763 70 Q 741 60 729 64 Q 717 67 723 79 Q 727 95 717 113 Z"/>
    <path class="bg" d="M 635 313 Q 692 300 753 288 Q 793 278 799 272 Q 806 265 803 258 Q 796 248 771 242 Q 746 238 720 247 Q 674 263 624 276 Q 569 289 503 296 Q 472 302 495 316 Q 526 332 595 322 C 622 316 622 316 635 313 Z"/>
    <path class="bg" d="M 648 418 Q 678 411 762 399 Q 771 400 778 389 Q 779 380 760 372 Q 733 354 654 381 Q 651 381 650 382 C 618 389 618 389 602 393 Q 581 396 499 409 Q 477 412 494 426 Q 521 444 555 437 Q 574 431 603 427 C 633 421 633 421 648 418 Z"/>
    <path class="bg" d="M 644 492 Q 645 452 648 418 C 649 394 649 394 650 382 Q 651 373 652 366 Q 652 329 651 328 Q 642 319 635 313 C 624 304 593 309 595 322 Q 598 334 602 393 C 603 416 603 416 603 427 Q 603 455 605 499 C 605 512 644 505 644 492 Z"/>
    <path class="bg" d="M 605 499 Q 532 509 450 525 Q 432 526 446 541 Q 459 553 474 557 Q 492 561 506 556 Q 653 514 849 514 C 850 514 850 514 851 514 Q 867 513 872 506 Q 876 496 862 484 Q 807 448 762 467 Q 714 477 644 492 C 618 497 618 497 605 499 Z"/>
    <path class="bg" d="M 652 656 Q 700 646 792 645 Q 808 644 812 636 Q 816 626 802 616 Q 756 583 694 604 Q 673 608 649 616 C 609 625 609 625 589 629 Q 540 638 485 649 Q 469 652 482 665 Q 503 684 550 674 Q 563 670 583 667 C 629 660 629 660 652 656 Z"/>
    <path class="bg" d="M 649 616 Q 649 615 650 615 Q 654 596 660 587 Q 667 580 661 570 Q 655 563 627 552 Q 596 536 581 542 Q 571 548 579 563 Q 588 590 589 629 C 585 654 585 654 583 667 Q 565 775 442 840 Q 409 855 361 875 Q 336 885 365 888 Q 458 892 548 823 Q 555 816 564 808 Q 606 765 636 675 C 645 636 645 636 649 616 Z"/>
    <path class="bg" d="M 636 675 Q 700 772 785 876 Q 801 892 829 892 Q 922 888 950 882 Q 959 879 960 875 Q 961 871 949 864 Q 811 804 755 753 Q 706 711 652 656 C 641 645 627 662 636 675 Z"/>
</g>
<g id="anim-layer">
    <path style="--d:1s; stroke:#FF4444;" pathLength="3333" clip-path="url(#z38209c1)" d="M 286 90 L 329 152 L 186 394 L 51 547"/>
    <path style="--d:2s; stroke:#FF4444;" pathLength="3333" clip-path="url(#z38209c2)" d="M 281 301 L 448 275"/>
    <path style="--d:3s; stroke:#FF4444;" pathLength="3333" clip-path="url(#z38209c3)" d="M 185 452 L 403 408"/>
    <path style="--d:4s; stroke:#FF4444;" pathLength="3333" clip-path="url(#z38209c4)" d="M 143 605 L 417 544"/>
    <path style="--d:5s; stroke:#FF4444;" pathLength="3333" clip-path="url(#z38209c5)" d="M 241 475 L 276 502 L 247 815 L 422 667"/>
    <path style="--d:6s; stroke:#000;" pathLength="3333" clip-path="url(#z38209c6)" d="M 508 141 L 585 231"/>
    <path style="--d:7s; stroke:#000;" pathLength="3333" clip-path="url(#z38209c7)" d="M 732 74 L 759 115 L 650 234"/>
    <path style="--d:8s; stroke:#000;" pathLength="3333" clip-path="url(#z38209c8)" d="M 495 307 L 798 257"/>
    <path style="--d:9s; stroke:#000;" pathLength="3333" clip-path="url(#z38209c9)" d="M 493 414 L 773 388"/>
    <path style="--d:10s; stroke:#000;" pathLength="3333" clip-path="url(#z38209c10)" d="M 601 324 L 626 350 L 622 495"/>
    <path style="--d:11s; stroke:#000;" pathLength="3333" clip-path="url(#z38209c11)" d="M 448 531 L 798 487 L 869 502"/>
    <path style="--d:12s; stroke:#000;" pathLength="3333" clip-path="url(#z38209c12)" d="M 483 655 L 731 621 L 808 632"/>
    <path style="--d:13s; stroke:#000;" pathLength="3333" clip-path="url(#z38209c13)" d="M 584 549 L 625 591 L 566 767 L 469 848 L 359 880"/>
    <path style="--d:14s; stroke:#000;" pathLength="3333" clip-path="url(#z38209c14)" d="M 644 665 L 811 843 L 951 874"/>
</g>
</svg>