<svg id="z38224" class="acjk" viewBox="0 0 1024 1024" xmlns="http://www.w3.org/2000/svg">

<style>
<![CDATA[
@keyframes zk { to { stroke-dashoffset:0; } }
svg.acjk path[clip-path] {
    --t:0.8s;
    animation:zk var(--t) linear forwards var(--d);
    stroke-dasharray:3337;
    stroke-dashoffset:3339;
    stroke-width:128;
    stroke-linecap:round;
    fill:none;
}
/* Low opacity for background improves visual overlap at intersections */
svg.acjk .bg { fill:#ccc; opacity: 0.5; } 
]]>
</style>
<defs>
    <clipPath id="z38224c1"><path d="M 202 430 Q 203 426 207 424 Q 244 378 282 316 C 297 291 297 291 305 279 Q 344 198 380 161 Q 390 149 384 136 Q 380 123 350 101 Q 322 83 303 84 Q 284 85 293 108 Q 309 142 296 170 Q 259 267 202 357 Q 147 445 70 541 Q 60 551 58 558 Q 55 568 69 566 Q 100 557 191 445 C 198 435 198 435 202 430 Z"/></clipPath>
    <clipPath id="z38224c2"><path d="M 282 316 Q 318 319 423 280 Q 427 277 434 276 Q 453 269 455 266 Q 462 257 457 250 Q 448 240 421 238 Q 400 238 328 271 Q 316 274 305 279 C 292 284 267 316 282 316 Z"/></clipPath>
    <clipPath id="z38224c3"><path d="M 283 447 Q 403 408 405 407 Q 412 400 407 393 Q 400 384 377 381 Q 352 378 329 390 Q 304 402 274 412 Q 243 422 204 429 Q 203 429 202 430 C 196 432 185 443 191 445 Q 212 454 246 456 C 271 450 271 450 283 447 Z"/></clipPath>
    <clipPath id="z38224c4"><path d="M 315 580 Q 342 570 373 561 Q 404 551 410 546 Q 417 537 412 530 Q 405 520 377 516 Q 335 512 316 531 C 303 541 286 543 271 549 Q 226 565 153 581 Q 120 590 145 603 Q 187 621 235 604 Q 251 598 273 593 C 301 584 301 584 315 580 Z"/></clipPath>
    <clipPath id="z38224c5"><path d="M 273 593 Q 269 713 242 756 Q 208 807 248 842 Q 260 849 271 834 Q 283 807 405 694 Q 421 681 424 673 Q 427 664 418 665 Q 409 665 314 723 Q 308 727 307 722 Q 314 644 315 580 C 316 547 316 547 316 531 Q 316 512 320 494 Q 326 473 283 447 C 272 440 237 447 246 456 Q 265 475 271 549 C 272 578 272 578 273 593 Z"/></clipPath>
    <clipPath id="z38224c6"><path d="M 602 125 Q 636 149 674 177 Q 687 189 703 186 Q 713 185 717 172 Q 720 157 709 130 Q 696 97 593 80 Q 577 79 572 81 Q 568 85 570 97 Q 574 107 602 125 Z"/></clipPath>
    <clipPath id="z38224c7"><path d="M 507 247 Q 479 251 501 268 Q 538 292 563 285 Q 692 255 826 234 Q 836 235 846 222 Q 846 212 823 201 Q 796 180 718 206 Q 697 210 677 216 Q 638 225 507 247 Z"/></clipPath>
    <clipPath id="z38224c8"><path d="M 565 361 Q 555 355 527 353 Q 517 352 514 355 Q 510 361 517 374 Q 539 413 557 479 Q 561 498 574 511 Q 590 529 593 515 Q 596 505 595 490 C 592 472 592 472 590 463 Q 578 409 576 388 C 574 378 574 365 565 361 Z"/></clipPath>
    <clipPath id="z38224c9"><path d="M 759 432 Q 777 389 801 373 Q 814 357 802 343 Q 789 333 744 312 Q 731 306 663 333 Q 630 345 565 361 C 555 363 566 390 576 388 Q 717 352 721 355 C 722 356 722 356 723 356 Q 729 362 727 374 Q 720 407 712 433 C 706 448 753 447 759 432 Z"/></clipPath>
    <clipPath id="z38224c10"><path d="M 595 490 Q 602 491 613 489 Q 664 476 774 463 Q 784 462 784 454 Q 784 447 759 432 C 746 424 727 430 712 433 Q 642 452 590 463 C 581 465 586 490 595 490 Z"/></clipPath>
    <clipPath id="z38224c11"><path d="M 497 574 Q 476 553 448 556 Q 436 560 442 569 Q 481 648 444 771 Q 422 816 454 853 Q 460 863 469 859 Q 496 838 497 730 Q 497 645 501 612 C 503 600 507 582 497 574 Z"/></clipPath>
    <clipPath id="z38224c12"><path d="M 501 612 Q 514 613 527 608 Q 638 563 817 546 Q 833 547 842 556 Q 849 563 845 576 Q 846 789 831 819 Q 828 828 817 825 Q 790 822 762 817 Q 737 816 755 831 Q 816 877 842 911 Q 855 926 869 913 Q 885 895 894 866 Q 904 835 899 668 Q 895 607 913 575 Q 926 556 921 548 Q 914 536 866 508 Q 850 496 805 512 Q 786 516 760 523 Q 633 541 497 574 C 485 576 488 612 501 612 Z"/></clipPath>
    <clipPath id="z38224c13"><path d="M 587 652 Q 577 648 556 644 Q 547 643 544 646 Q 540 650 546 663 Q 565 700 578 761 Q 579 779 591 791 Q 604 807 609 796 Q 612 789 612 775 C 610 757 610 757 609 748 Q 600 691 600 674 C 600 665 595 655 587 652 Z"/></clipPath>
    <clipPath id="z38224c14"><path d="M 740 730 Q 755 684 770 670 Q 789 649 770 637 Q 754 627 731 613 Q 715 604 700 613 Q 663 635 587 652 C 579 654 592 675 600 674 Q 639 665 681 655 Q 700 651 706 659 Q 710 662 706 683 Q 702 702 697 726 C 694 740 735 743 740 730 Z"/></clipPath>
    <clipPath id="z38224c15"><path d="M 612 775 Q 621 775 633 774 Q 670 765 750 758 Q 759 757 760 750 Q 760 743 740 730 C 728 723 711 726 697 726 Q 696 725 693 726 Q 647 739 609 748 C 600 750 603 775 612 775 Z"/></clipPath>
</defs>
<g id="bg-layer">
    <path class="bg" d="M 202 430 Q 203 426 207 424 Q 244 378 282 316 C 297 291 297 291 305 279 Q 344 198 380 161 Q 390 149 384 136 Q 380 123 350 101 Q 322 83 303 84 Q 284 85 293 108 Q 309 142 296 170 Q 259 267 202 357 Q 147 445 70 541 Q 60 551 58 558 Q 55 568 69 566 Q 100 557 191 445 C 198 435 198 435 202 430 Z"/>
    <path class="bg" d="M 282 316 Q 318 319 423 280 Q 427 277 434 276 Q 453 269 455 266 Q 462 257 457 250 Q 448 240 421 238 Q 400 238 328 271 Q 316 274 305 279 C 292 284 267 316 282 316 Z"/>
    <path class="bg" d="M 283 447 Q 403 408 405 407 Q 412 400 407 393 Q 400 384 377 381 Q 352 378 329 390 Q 304 402 274 412 Q 243 422 204 429 Q 203 429 202 430 C 196 432 185 443 191 445 Q 212 454 246 456 C 271 450 271 450 283 447 Z"/>
    <path class="bg" d="M 315 580 Q 342 570 373 561 Q 404 551 410 546 Q 417 537 412 530 Q 405 520 377 516 Q 335 512 316 531 C 303 541 286 543 271 549 Q 226 565 153 581 Q 120 590 145 603 Q 187 621 235 604 Q 251 598 273 593 C 301 584 301 584 315 580 Z"/>
    <path class="bg" d="M 273 593 Q 269 713 242 756 Q 208 807 248 842 Q 260 849 271 834 Q 283 807 405 694 Q 421 681 424 673 Q 427 664 418 665 Q 409 665 314 723 Q 308 727 307 722 Q 314 644 315 580 C 316 547 316 547 316 531 Q 316 512 320 494 Q 326 473 283 447 C 272 440 237 447 246 456 Q 265 475 271 549 C 272 578 272 578 273 593 Z"/>
    <path class="bg" d="M 602 125 Q 636 149 674 177 Q 687 189 703 186 Q 713 185 717 172 Q 720 157 709 130 Q 696 97 593 80 Q 577 79 572 81 Q 568 85 570 97 Q 574 107 602 125 Z"/>
    <path class="bg" d="M 507 247 Q 479 251 501 268 Q 538 292 563 285 Q 692 255 826 234 Q 836 235 846 222 Q 846 212 823 201 Q 796 180 718 206 Q 697 210 677 216 Q 638 225 507 247 Z"/>
    <path class="bg" d="M 565 361 Q 555 355 527 353 Q 517 352 514 355 Q 510 361 517 374 Q 539 413 557 479 Q 561 498 574 511 Q 590 529 593 515 Q 596 505 595 490 C 592 472 592 472 590 463 Q 578 409 576 388 C 574 378 574 365 565 361 Z"/>
    <path class="bg" d="M 759 432 Q 777 389 801 373 Q 814 357 802 343 Q 789 333 744 312 Q 731 306 663 333 Q 630 345 565 361 C 555 363 566 390 576 388 Q 717 352 721 355 C 722 356 722 356 723 356 Q 729 362 727 374 Q 720 407 712 433 C 706 448 753 447 759 432 Z"/>
    <path class="bg" d="M 595 490 Q 602 491 613 489 Q 664 476 774 463 Q 784 462 784 454 Q 784 447 759 432 C 746 424 727 430 712 433 Q 642 452 590 463 C 581 465 586 490 595 490 Z"/>
    <path class="bg" d="M 497 574 Q 476 553 448 556 Q 436 560 442 569 Q 481 648 444 771 Q 422 816 454 853 Q 460 863 469 859 Q 496 838 497 730 Q 497 645 501 612 C 503 600 507 582 497 574 Z"/>
    <path class="bg" d="M 501 612 Q 514 613 527 608 Q 638 563 817 546 Q 833 547 842 556 Q 849 563 845 576 Q 846 789 831 819 Q 828 828 817 825 Q 790 822 762 817 Q 737 816 755 831 Q 816 877 842 911 Q 855 926 869 913 Q 885 895 894 866 Q 904 835 899 668 Q 895 607 913 575 Q 926 556 921 548 Q 914 536 866 508 Q 850 496 805 512 Q 786 516 760 523 Q 633 541 497 574 C 485 576 488 612 501 612 Z"/>
    <path class="bg" d="M 587 652 Q 577 648 556 644 Q 547 643 544 646 Q 540 650 546 663 Q 565 700 578 761 Q 579 779 591 791 Q 604 807 609 796 Q 612 789 612 775 C 610 757 610 757 609 748 Q 600 691 600 674 C 600 665 595 655 587 652 Z"/>
    <path class="bg" d="M 740 730 Q 755 684 770 670 Q 789 649 770 637 Q 754 627 731 613 Q 715 604 700 613 Q 663 635 587 652 C 579 654 592 675 600 674 Q 639 665 681 655 Q 700 651 706 659 Q 710 662 706 683 Q 702 702 697 726 C 694 740 735 743 740 730 Z"/>
    <path class="bg" d="M 612 775 Q 621 775 633 774 Q 670 765 750 758 Q 759 757 760 750 Q 760 743 740 730 C 728 723 711 726 697 726 Q 696 725 693 726 Q 647 739 609 748 C 600 750 603 775 612 775 Z"/>
</g>
<g id="anim-layer">
    <path style="--d:1s; stroke:#FF4444;" pathLength="3333" clip-path="url(#z38224c1)" d="M 297 90 L 342 152 L 227 360 L 65 559"/>
    <path style="--d:2s; stroke:#FF4444;" pathLength="3333" clip-path="url(#z38224c2)" d="M 292 311 L 452 258"/>
    <path style="--d:3s; stroke:#FF4444;" pathLength="3333" clip-path="url(#z38224c3)" d="M 198 440 L 405 399"/>
    <path style="--d:4s; stroke:#FF4444;" pathLength="3333" clip-path="url(#z38224c4)" d="M 142 592 L 409 537"/>
    <path style="--d:5s; stroke:#FF4444;" pathLength="3333" clip-path="url(#z38224c5)" d="M 253 456 L 293 502 L 270 786 L 417 671"/>
    <path style="--d:6s; stroke:#000;" pathLength="3333" clip-path="url(#z38224c6)" d="M 576 86 L 711 176"/>
    <path style="--d:7s; stroke:#000;" pathLength="3333" clip-path="url(#z38224c7)" d="M 498 254 L 555 263 L 838 218"/>
    <path style="--d:8s; stroke:#000;" pathLength="3333" clip-path="url(#z38224c8)" d="M 520 362 L 554 399 L 581 516"/>
    <path style="--d:9s; stroke:#000;" pathLength="3333" clip-path="url(#z38224c9)" d="M 572 363 L 733 334 L 767 361 L 723 430"/>
    <path style="--d:10s; stroke:#000;" pathLength="3333" clip-path="url(#z38224c10)" d="M 597 469 L 776 450"/>
    <path style="--d:11s; stroke:#000;" pathLength="3333" clip-path="url(#z38224c11)" d="M 449 564 L 479 610 L 464 856"/>
    <path style="--d:12s; stroke:#000;" pathLength="3333" clip-path="url(#z38224c12)" d="M 508 605 L 695 547 L 822 526 L 873 544 L 859 852 L 839 872 L 755 823"/>
    <path style="--d:13s; stroke:#000;" pathLength="3333" clip-path="url(#z38224c13)" d="M 549 649 L 579 682 L 600 793"/>
    <path style="--d:14s; stroke:#000;" pathLength="3333" clip-path="url(#z38224c14)" d="M 595 654 L 718 635 L 743 663 L 718 727"/>
    <path style="--d:15s; stroke:#000;" pathLength="3333" clip-path="url(#z38224c15)" d="M 618 767 L 753 750"/>
</g>
</svg>