<svg id="z38236" class="acjk" viewBox="0 0 1024 1024" xmlns="http://www.w3.org/2000/svg">

<style>
<![CDATA[
@keyframes zk { to { stroke-dashoffset:0; } }
svg.acjk path[clip-path] {
    --t:0.8s;
    animation:zk var(--t) linear forwards var(--d);
    stroke-dasharray:3337;
    stroke-dashoffset:3339;
    stroke-width:128;
    stroke-linecap:round;
    fill:none;
}
/* Low opacity for background improves visual overlap at intersections */
svg.acjk .bg { fill:#ccc; opacity: 0.5; } 
]]>
</style>
<defs>
    <clipPath id="z38236c1"><path d="M 292 276 Q 358 170 377 152 Q 387 142 382 128 Q 378 115 350 92 Q 323 74 305 74 Q 286 75 294 97 Q 309 131 295 159 Q 255 253 194 341 Q 136 426 55 518 Q 45 528 43 534 Q 39 544 53 542 Q 105 535 270 309 Q 273 305 276 301 C 287 284 287 284 292 276 Z"/></clipPath>
    <clipPath id="z38236c2"><path d="M 276 301 Q 318 310 383 293 Q 447 275 458 270 Q 465 261 460 254 Q 453 244 425 240 Q 398 239 334 265 Q 313 269 292 276 C 283 280 266 299 276 301 Z"/></clipPath>
    <clipPath id="z38236c3"><path d="M 277 448 Q 295 442 380 418 Q 402 411 405 408 Q 412 401 407 394 Q 400 384 375 380 Q 357 377 276 408 Q 243 417 209 423 Q 178 430 202 444 Q 215 450 235 452 C 249 454 264 453 277 448 Z"/></clipPath>
    <clipPath id="z38236c4"><path d="M 311 577 Q 428 544 432 542 Q 439 535 435 527 Q 428 517 401 510 Q 370 506 310 532 C 279 542 279 542 263 547 Q 259 547 257 548 Q 205 561 143 570 Q 110 577 134 591 Q 170 609 259 589 Q 262 588 265 588 C 296 581 296 581 311 577 Z"/></clipPath>
    <clipPath id="z38236c5"><path d="M 265 588 Q 268 715 228 781 Q 195 794 233 848 Q 237 852 243 858 Q 256 865 267 849 Q 279 822 404 704 Q 420 691 424 682 Q 428 672 418 673 Q 408 673 312 732 Q 305 738 303 731 Q 310 646 311 577 C 310 547 310 547 310 532 Q 310 513 314 496 Q 318 483 310 472 Q 294 457 277 448 C 265 441 230 439 235 452 Q 235 455 239 461 Q 258 501 263 547 C 264 574 264 574 265 588 Z"/></clipPath>
    <clipPath id="z38236c6"><path d="M 604 96 Q 629 114 656 137 Q 669 147 684 145 Q 694 144 697 132 Q 700 119 690 92 Q 678 65 596 52 Q 581 51 576 53 Q 572 57 574 69 Q 578 79 604 96 Z"/></clipPath>
    <clipPath id="z38236c7"><path d="M 728 202 Q 743 198 762 194 Q 798 185 803 180 Q 810 173 807 166 Q 800 156 775 150 Q 750 146 724 156 Q 634 189 531 200 Q 500 206 522 220 Q 552 236 618 225 Q 654 216 696 209 C 717 204 717 204 728 202 Z"/></clipPath>
    <clipPath id="z38236c8"><path d="M 519 276 Q 552 339 572 343 Q 582 347 591 333 Q 594 323 589 304 Q 585 289 566 279 Q 539 260 527 255 Q 520 252 517 261 Q 514 268 519 276 Z"/></clipPath>
    <clipPath id="z38236c9"><path d="M 691 353 Q 712 323 734 284 Q 741 271 756 253 Q 769 243 761 234 Q 754 219 728 202 C 719 196 692 199 696 209 Q 697 210 698 212 Q 705 240 668 338 Q 664 348 661 359 C 658 369 685 361 691 353 Z"/></clipPath>
    <clipPath id="z38236c10"><path d="M 661 359 Q 658 359 438 397 Q 420 398 434 413 Q 447 425 462 429 Q 480 433 494 428 Q 660 377 881 378 C 882 378 882 378 883 378 Q 899 377 904 370 Q 908 360 894 348 Q 843 314 788 332 Q 746 341 691 353 C 671 357 671 357 661 359 Z"/></clipPath>
    <clipPath id="z38236c11"><path d="M 519 466 Q 512 462 495 459 Q 485 455 481 460 Q 475 464 482 480 Q 504 534 515 621 Q 515 633 534 671 C 538 677 552 668 553 661 Q 554 655 555 650 C 555 633 555 633 555 624 Q 554 620 554 615 Q 551 590 548 571 C 547 558 547 558 546 551 Q 542 506 542 492 C 542 480 530 470 519 466 Z"/></clipPath>
    <clipPath id="z38236c12"><path d="M 718 629 Q 718 630 719 631 Q 725 644 735 643 Q 747 642 753 628 Q 762 616 777 555 Q 790 512 820 485 Q 836 470 821 458 Q 806 445 763 423 Q 751 417 689 430 Q 632 440 582 452 Q 545 461 519 466 C 508 468 531 496 542 492 Q 591 476 706 458 Q 727 457 734 460 Q 743 464 739 490 Q 727 583 718 605 C 715 612 714 622 718 629 Z"/></clipPath>
    <clipPath id="z38236c13"><path d="M 548 571 Q 552 572 562 571 Q 629 558 678 549 Q 697 545 689 534 Q 679 522 658 520 Q 628 517 546 551 C 540 553 541 571 548 571 Z"/></clipPath>
    <clipPath id="z38236c14"><path d="M 687 633 Q 700 630 718 629 C 726 629 724 611 718 605 Q 714 601 708 598 Q 695 591 670 598 Q 606 614 555 624 C 547 626 546 650 555 650 Q 564 651 574 650 Q 598 643 639 639 C 671 635 671 635 687 633 Z"/></clipPath>
    <clipPath id="z38236c15"><path d="M 534 671 Q 534 785 346 901 Q 339 907 344 910 Q 365 920 442 878 Q 506 844 570 745 Q 580 729 593 714 Q 600 707 597 698 Q 593 689 570 671 Q 561 664 553 661 C 546 658 534 664 534 671 Z"/></clipPath>
    <clipPath id="z38236c16"><path d="M 971 848 Q 959 826 944 757 Q 943 742 937 738 Q 931 735 927 751 Q 903 826 887 848 Q 877 861 848 868 Q 779 884 724 863 Q 702 853 696 839 Q 678 803 699 662 Q 702 649 687 633 C 676 622 636 623 639 639 Q 649 673 649 707 Q 642 854 672 889 Q 690 907 730 920 Q 865 956 965 885 Q 983 872 971 848 Z"/></clipPath>
</defs>
<g id="bg-layer">
    <path class="bg" d="M 292 276 Q 358 170 377 152 Q 387 142 382 128 Q 378 115 350 92 Q 323 74 305 74 Q 286 75 294 97 Q 309 131 295 159 Q 255 253 194 341 Q 136 426 55 518 Q 45 528 43 534 Q 39 544 53 542 Q 105 535 270 309 Q 273 305 276 301 C 287 284 287 284 292 276 Z"/>
    <path class="bg" d="M 276 301 Q 318 310 383 293 Q 447 275 458 270 Q 465 261 460 254 Q 453 244 425 240 Q 398 239 334 265 Q 313 269 292 276 C 283 280 266 299 276 301 Z"/>
    <path class="bg" d="M 277 448 Q 295 442 380 418 Q 402 411 405 408 Q 412 401 407 394 Q 400 384 375 380 Q 357 377 276 408 Q 243 417 209 423 Q 178 430 202 444 Q 215 450 235 452 C 249 454 264 453 277 448 Z"/>
    <path class="bg" d="M 311 577 Q 428 544 432 542 Q 439 535 435 527 Q 428 517 401 510 Q 370 506 310 532 C 279 542 279 542 263 547 Q 259 547 257 548 Q 205 561 143 570 Q 110 577 134 591 Q 170 609 259 589 Q 262 588 265 588 C 296 581 296 581 311 577 Z"/>
    <path class="bg" d="M 265 588 Q 268 715 228 781 Q 195 794 233 848 Q 237 852 243 858 Q 256 865 267 849 Q 279 822 404 704 Q 420 691 424 682 Q 428 672 418 673 Q 408 673 312 732 Q 305 738 303 731 Q 310 646 311 577 C 310 547 310 547 310 532 Q 310 513 314 496 Q 318 483 310 472 Q 294 457 277 448 C 265 441 230 439 235 452 Q 235 455 239 461 Q 258 501 263 547 C 264 574 264 574 265 588 Z"/>
    <path class="bg" d="M 604 96 Q 629 114 656 137 Q 669 147 684 145 Q 694 144 697 132 Q 700 119 690 92 Q 678 65 596 52 Q 581 51 576 53 Q 572 57 574 69 Q 578 79 604 96 Z"/>
    <path class="bg" d="M 728 202 Q 743 198 762 194 Q 798 185 803 180 Q 810 173 807 166 Q 800 156 775 150 Q 750 146 724 156 Q 634 189 531 200 Q 500 206 522 220 Q 552 236 618 225 Q 654 216 696 209 C 717 204 717 204 728 202 Z"/>
    <path class="bg" d="M 519 276 Q 552 339 572 343 Q 582 347 591 333 Q 594 323 589 304 Q 585 289 566 279 Q 539 260 527 255 Q 520 252 517 261 Q 514 268 519 276 Z"/>
    <path class="bg" d="M 691 353 Q 712 323 734 284 Q 741 271 756 253 Q 769 243 761 234 Q 754 219 728 202 C 719 196 692 199 696 209 Q 697 210 698 212 Q 705 240 668 338 Q 664 348 661 359 C 658 369 685 361 691 353 Z"/>
    <path class="bg" d="M 661 359 Q 658 359 438 397 Q 420 398 434 413 Q 447 425 462 429 Q 480 433 494 428 Q 660 377 881 378 C 882 378 882 378 883 378 Q 899 377 904 370 Q 908 360 894 348 Q 843 314 788 332 Q 746 341 691 353 C 671 357 671 357 661 359 Z"/>
    <path class="bg" d="M 519 466 Q 512 462 495 459 Q 485 455 481 460 Q 475 464 482 480 Q 504 534 515 621 Q 515 633 534 671 C 538 677 552 668 553 661 Q 554 655 555 650 C 555 633 555 633 555 624 Q 554 620 554 615 Q 551 590 548 571 C 547 558 547 558 546 551 Q 542 506 542 492 C 542 480 530 470 519 466 Z"/>
    <path class="bg" d="M 718 629 Q 718 630 719 631 Q 725 644 735 643 Q 747 642 753 628 Q 762 616 777 555 Q 790 512 820 485 Q 836 470 821 458 Q 806 445 763 423 Q 751 417 689 430 Q 632 440 582 452 Q 545 461 519 466 C 508 468 531 496 542 492 Q 591 476 706 458 Q 727 457 734 460 Q 743 464 739 490 Q 727 583 718 605 C 715 612 714 622 718 629 Z"/>
    <path class="bg" d="M 548 571 Q 552 572 562 571 Q 629 558 678 549 Q 697 545 689 534 Q 679 522 658 520 Q 628 517 546 551 C 540 553 541 571 548 571 Z"/>
    <path class="bg" d="M 687 633 Q 700 630 718 629 C 726 629 724 611 718 605 Q 714 601 708 598 Q 695 591 670 598 Q 606 614 555 624 C 547 626 546 650 555 650 Q 564 651 574 650 Q 598 643 639 639 C 671 635 671 635 687 633 Z"/>
    <path class="bg" d="M 534 671 Q 534 785 346 901 Q 339 907 344 910 Q 365 920 442 878 Q 506 844 570 745 Q 580 729 593 714 Q 600 707 597 698 Q 593 689 570 671 Q 561 664 553 661 C 546 658 534 664 534 671 Z"/>
    <path class="bg" d="M 971 848 Q 959 826 944 757 Q 943 742 937 738 Q 931 735 927 751 Q 903 826 887 848 Q 877 861 848 868 Q 779 884 724 863 Q 702 853 696 839 Q 678 803 699 662 Q 702 649 687 633 C 676 622 636 623 639 639 Q 649 673 649 707 Q 642 854 672 889 Q 690 907 730 920 Q 865 956 965 885 Q 983 872 971 848 Z"/>
</g>
<g id="anim-layer">
    <path style="--d:1s; stroke:#FF4444;" pathLength="3333" clip-path="url(#z38236c1)" d="M 299 80 L 339 128 L 334 154 L 201 367 L 49 534"/>
    <path style="--d:2s; stroke:#FF4444;" pathLength="3333" clip-path="url(#z38236c2)" d="M 287 297 L 455 260"/>
    <path style="--d:3s; stroke:#FF4444;" pathLength="3333" clip-path="url(#z38236c3)" d="M 200 433 L 403 399"/>
    <path style="--d:4s; stroke:#FF4444;" pathLength="3333" clip-path="url(#z38236c4)" d="M 132 579 L 431 529"/>
    <path style="--d:5s; stroke:#FF4444;" pathLength="3333" clip-path="url(#z38236c5)" d="M 246 460 L 285 497 L 262 800 L 416 679"/>
    <path style="--d:6s; stroke:#000;" pathLength="3333" clip-path="url(#z38236c6)" d="M 580 61 L 650 94 L 683 140"/>
    <path style="--d:7s; stroke:#000;" pathLength="3333" clip-path="url(#z38236c7)" d="M 519 210 L 803 171"/>
    <path style="--d:8s; stroke:#000;" pathLength="3333" clip-path="url(#z38236c8)" d="M 524 263 L 578 340"/>
    <path style="--d:9s; stroke:#000;" pathLength="3333" clip-path="url(#z38236c9)" d="M 703 215 L 728 251 L 667 352"/>
    <path style="--d:10s; stroke:#000;" pathLength="3333" clip-path="url(#z38236c10)" d="M 437 404 L 799 354 L 900 364"/>
    <path style="--d:11s; stroke:#000;" pathLength="3333" clip-path="url(#z38236c11)" d="M 488 463 L 518 503 L 542 665"/>
    <path style="--d:12s; stroke:#000;" pathLength="3333" clip-path="url(#z38236c12)" d="M 526 467 L 756 445 L 784 475 L 732 637"/>
    <path style="--d:13s; stroke:#000;" pathLength="3333" clip-path="url(#z38236c13)" d="M 553 564 L 686 537"/>
    <path style="--d:14s; stroke:#000;" pathLength="3333" clip-path="url(#z38236c14)" d="M 561 642 L 715 611"/>
    <path style="--d:15s; stroke:#000;" pathLength="3333" clip-path="url(#z38236c15)" d="M 551 667 L 564 703 L 512 788 L 354 906"/>
    <path style="--d:16s; stroke:#000;" pathLength="3333" clip-path="url(#z38236c16)" d="M 646 642 L 673 667 L 677 852 L 728 892 L 826 902 L 907 879 L 935 852 L 935 743"/>
</g>
</svg>