<svg id="z38381" class="acjk" viewBox="0 0 1024 1024" xmlns="http://www.w3.org/2000/svg">

<style>
<![CDATA[
@keyframes zk { to { stroke-dashoffset:0; } }
svg.acjk path[clip-path] {
    --t:0.8s;
    animation:zk var(--t) linear forwards var(--d);
    stroke-dasharray:3337;
    stroke-dashoffset:3339;
    stroke-width:128;
    stroke-linecap:round;
    fill:none;
}
/* Low opacity for background improves visual overlap at intersections */
svg.acjk .bg { fill:#ccc; opacity: 0.5; } 
]]>
</style>
<defs>
    <clipPath id="z38381c1"><path d="M 309 161 Q 379 239 403 240 Q 418 241 425 220 Q 426 207 415 184 Q 403 165 376 154 Q 333 135 314 132 Q 304 131 303 143 Q 302 152 309 161 Z"/></clipPath>
    <clipPath id="z38381c2"><path d="M 196 248 Q 220 314 219 377 Q 223 638 179 770 Q 160 821 193 869 C 194 870 194 870 195 871 Q 208 886 218 871 Q 255 832 256 674 Q 262 356 276 283 Q 279 264 262 253 Q 237 232 209 223 Q 199 222 192 230 Q 188 236 196 248 Z"/></clipPath>
    <clipPath id="z38381c3"><path d="M 503 177 Q 485 176 490 187 Q 497 200 521 212 Q 533 221 570 213 Q 747 164 771 197 Q 792 236 799 514 Q 800 640 796 775 Q 796 815 781 826 Q 763 839 674 821 Q 656 820 658 829 Q 659 836 674 842 Q 753 887 797 924 Q 819 943 833 941 Q 846 937 857 907 Q 872 858 868 789 Q 843 416 844 277 Q 844 237 856 211 Q 869 189 857 176 Q 847 160 797 135 Q 776 125 689 148 Q 560 170 503 177 Z"/></clipPath>
    <clipPath id="z38381c4"><path d="M 600 455 Q 616 452 729 438 Q 739 439 749 426 Q 750 414 727 404 Q 696 382 608 409 Q 602 409 599 411 C 567 418 567 418 551 422 Q 494 434 332 455 Q 304 459 326 476 Q 357 503 387 495 Q 445 482 521 469 C 574 460 574 460 600 455 Z"/></clipPath>
    <clipPath id="z38381c5"><path d="M 553 516 Q 554 738 537 752 Q 528 761 430 736 Q 418 735 419 742 Q 420 748 431 755 Q 516 813 549 852 Q 564 868 578 854 Q 605 821 606 746 Q 602 692 600 455 C 599 426 599 426 599 411 Q 599 371 610 342 Q 617 324 602 312 Q 577 293 549 283 Q 531 277 524 284 Q 518 291 529 305 Q 550 341 550 382 Q 550 401 551 422 C 552 485 552 485 553 516 Z"/></clipPath>
    <clipPath id="z38381c6"><path d="M 521 469 Q 503 568 301 709 Q 286 721 300 722 Q 336 726 414 671 Q 463 631 504 585 Q 535 548 553 516 C 578 474 531 421 521 469 Z"/></clipPath>
</defs>
<g id="bg-layer">
    <path class="bg" d="M 309 161 Q 379 239 403 240 Q 418 241 425 220 Q 426 207 415 184 Q 403 165 376 154 Q 333 135 314 132 Q 304 131 303 143 Q 302 152 309 161 Z"/>
    <path class="bg" d="M 196 248 Q 220 314 219 377 Q 223 638 179 770 Q 160 821 193 869 C 194 870 194 870 195 871 Q 208 886 218 871 Q 255 832 256 674 Q 262 356 276 283 Q 279 264 262 253 Q 237 232 209 223 Q 199 222 192 230 Q 188 236 196 248 Z"/>
    <path class="bg" d="M 503 177 Q 485 176 490 187 Q 497 200 521 212 Q 533 221 570 213 Q 747 164 771 197 Q 792 236 799 514 Q 800 640 796 775 Q 796 815 781 826 Q 763 839 674 821 Q 656 820 658 829 Q 659 836 674 842 Q 753 887 797 924 Q 819 943 833 941 Q 846 937 857 907 Q 872 858 868 789 Q 843 416 844 277 Q 844 237 856 211 Q 869 189 857 176 Q 847 160 797 135 Q 776 125 689 148 Q 560 170 503 177 Z"/>
    <path class="bg" d="M 600 455 Q 616 452 729 438 Q 739 439 749 426 Q 750 414 727 404 Q 696 382 608 409 Q 602 409 599 411 C 567 418 567 418 551 422 Q 494 434 332 455 Q 304 459 326 476 Q 357 503 387 495 Q 445 482 521 469 C 574 460 574 460 600 455 Z"/>
    <path class="bg" d="M 553 516 Q 554 738 537 752 Q 528 761 430 736 Q 418 735 419 742 Q 420 748 431 755 Q 516 813 549 852 Q 564 868 578 854 Q 605 821 606 746 Q 602 692 600 455 C 599 426 599 426 599 411 Q 599 371 610 342 Q 617 324 602 312 Q 577 293 549 283 Q 531 277 524 284 Q 518 291 529 305 Q 550 341 550 382 Q 550 401 551 422 C 552 485 552 485 553 516 Z"/>
    <path class="bg" d="M 521 469 Q 503 568 301 709 Q 286 721 300 722 Q 336 726 414 671 Q 463 631 504 585 Q 535 548 553 516 C 578 474 531 421 521 469 Z"/>
</g>
<g id="anim-layer">
    <path style="--d:1s; stroke:#FF4444;" pathLength="3333" clip-path="url(#z38381c1)" d="M 310 137 L 417 230"/>
    <path style="--d:2s; stroke:#FF4444;" pathLength="3333" clip-path="url(#z38381c2)" d="M 198 233 L 241 275 L 244 340 L 229 679 L 198 871"/>
    <path style="--d:3s; stroke:#FF4444;" pathLength="3333" clip-path="url(#z38381c3)" d="M 496 184 L 758 159 L 820 203 L 824 849 L 805 890 L 665 828"/>
    <path style="--d:4s; stroke:#000;" pathLength="3333" clip-path="url(#z38381c4)" d="M 323 463 L 378 472 L 741 423"/>
    <path style="--d:5s; stroke:#000;" pathLength="3333" clip-path="url(#z38381c5)" d="M 529 288 L 578 336 L 571 769 L 548 809 L 430 743"/>
    <path style="--d:6s; stroke:#000;" pathLength="3333" clip-path="url(#z38381c6)" d="M 545 472 L 475 588 L 302 717"/>
</g>
</svg>