<svg id="z38450" class="acjk" viewBox="0 0 1024 1024" xmlns="http://www.w3.org/2000/svg">

<style>
<![CDATA[
@keyframes zk { to { stroke-dashoffset:0; } }
svg.acjk path[clip-path] {
    --t:0.8s;
    animation:zk var(--t) linear forwards var(--d);
    stroke-dasharray:3337;
    stroke-dashoffset:3339;
    stroke-width:128;
    stroke-linecap:round;
    fill:none;
}
/* Low opacity for background improves visual overlap at intersections */
svg.acjk .bg { fill:#ccc; opacity: 0.5; } 
]]>
</style>
<defs>
    <clipPath id="z38450c1"><path d="M 228 235 Q 271 225 315 204 Q 334 192 346 204 Q 352 211 340 230 Q 318 270 297 311 Q 282 336 298 358 Q 361 446 346 466 Q 340 479 314 477 Q 283 476 248 480 Q 223 481 253 493 Q 314 515 370 546 Q 385 558 397 544 Q 410 534 416 507 Q 422 483 403 443 Q 384 398 347 365 Q 331 346 328 337 Q 324 321 337 305 Q 395 226 425 207 Q 446 194 436 180 Q 423 161 383 139 Q 361 129 346 142 Q 292 184 217 203 C 206 205 217 237 228 235 Z"/></clipPath>
    <clipPath id="z38450c2"><path d="M 217 203 Q 216 202 214 201 Q 190 180 161 172 Q 151 171 144 179 Q 140 186 148 197 Q 178 263 176 335 Q 185 618 140 759 Q 133 787 137 808 Q 147 845 159 859 Q 172 874 182 859 Q 215 814 217 639 Q 217 303 228 235 C 230 224 226 210 217 203 Z"/></clipPath>
    <clipPath id="z38450c3"><path d="M 613 155 Q 641 185 672 221 Q 688 237 707 239 Q 720 239 728 223 Q 735 205 727 168 Q 723 144 687 124 Q 608 88 584 92 Q 577 96 578 113 Q 582 126 613 155 Z"/></clipPath>
    <clipPath id="z38450c4"><path d="M 630 377 Q 634 371 748 361 Q 811 355 890 352 Q 950 352 957 341 Q 961 328 944 315 Q 887 278 850 288 Q 724 321 400 376 Q 378 380 395 397 Q 431 427 468 414 Q 517 399 572 388 C 591 384 612 386 630 377 Z"/></clipPath>
    <clipPath id="z38450c5"><path d="M 623 486 Q 644 496 715 506 Q 742 510 751 525 Q 767 555 706 717 Q 675 795 642 805 Q 627 808 588 786 Q 551 764 546 770 Q 539 779 556 793 Q 598 841 603 878 Q 607 896 619 903 Q 632 910 669 890 Q 717 857 755 754 Q 815 568 831 553 Q 843 549 845 537 Q 846 527 822 501 Q 777 459 740 472 Q 712 472 638 455 C 627 453 612 482 623 486 Z"/></clipPath>
    <clipPath id="z38450c6"><path d="M 638 455 Q 647 439 657 424 Q 666 414 660 402 Q 654 392 630 377 C 613 367 572 368 572 388 Q 578 532 434 683 Q 430 684 428 688 Q 388 734 284 812 Q 275 821 283 824 Q 290 827 303 822 Q 376 794 437 746 Q 545 667 623 486 C 633 465 633 465 638 455 Z"/></clipPath>
</defs>
<g id="bg-layer">
    <path class="bg" d="M 228 235 Q 271 225 315 204 Q 334 192 346 204 Q 352 211 340 230 Q 318 270 297 311 Q 282 336 298 358 Q 361 446 346 466 Q 340 479 314 477 Q 283 476 248 480 Q 223 481 253 493 Q 314 515 370 546 Q 385 558 397 544 Q 410 534 416 507 Q 422 483 403 443 Q 384 398 347 365 Q 331 346 328 337 Q 324 321 337 305 Q 395 226 425 207 Q 446 194 436 180 Q 423 161 383 139 Q 361 129 346 142 Q 292 184 217 203 C 206 205 217 237 228 235 Z"/>
    <path class="bg" d="M 217 203 Q 216 202 214 201 Q 190 180 161 172 Q 151 171 144 179 Q 140 186 148 197 Q 178 263 176 335 Q 185 618 140 759 Q 133 787 137 808 Q 147 845 159 859 Q 172 874 182 859 Q 215 814 217 639 Q 217 303 228 235 C 230 224 226 210 217 203 Z"/>
    <path class="bg" d="M 613 155 Q 641 185 672 221 Q 688 237 707 239 Q 720 239 728 223 Q 735 205 727 168 Q 723 144 687 124 Q 608 88 584 92 Q 577 96 578 113 Q 582 126 613 155 Z"/>
    <path class="bg" d="M 630 377 Q 634 371 748 361 Q 811 355 890 352 Q 950 352 957 341 Q 961 328 944 315 Q 887 278 850 288 Q 724 321 400 376 Q 378 380 395 397 Q 431 427 468 414 Q 517 399 572 388 C 591 384 612 386 630 377 Z"/>
    <path class="bg" d="M 623 486 Q 644 496 715 506 Q 742 510 751 525 Q 767 555 706 717 Q 675 795 642 805 Q 627 808 588 786 Q 551 764 546 770 Q 539 779 556 793 Q 598 841 603 878 Q 607 896 619 903 Q 632 910 669 890 Q 717 857 755 754 Q 815 568 831 553 Q 843 549 845 537 Q 846 527 822 501 Q 777 459 740 472 Q 712 472 638 455 C 627 453 612 482 623 486 Z"/>
    <path class="bg" d="M 638 455 Q 647 439 657 424 Q 666 414 660 402 Q 654 392 630 377 C 613 367 572 368 572 388 Q 578 532 434 683 Q 430 684 428 688 Q 388 734 284 812 Q 275 821 283 824 Q 290 827 303 822 Q 376 794 437 746 Q 545 667 623 486 C 633 465 633 465 638 455 Z"/>
</g>
<g id="anim-layer">
    <path style="--d:1s; stroke:#FF4444;" pathLength="3333" clip-path="url(#z38450c1)" d="M 223 208 L 353 170 L 392 194 L 309 331 L 367 426 L 377 496 L 358 512 L 246 485"/>
    <path style="--d:2s; stroke:#FF4444;" pathLength="3333" clip-path="url(#z38450c2)" d="M 151 184 L 198 247 L 167 860"/>
    <path style="--d:3s; stroke:#000;" pathLength="3333" clip-path="url(#z38450c3)" d="M 587 101 L 675 163 L 720 231"/>
    <path style="--d:4s; stroke:#000;" pathLength="3333" clip-path="url(#z38450c4)" d="M 399 388 L 865 319 L 951 333"/>
    <path style="--d:5s; stroke:#000;" pathLength="3333" clip-path="url(#z38450c5)" d="M 630 482 L 757 493 L 799 542 L 673 834 L 626 854 L 552 777"/>
    <path style="--d:6s; stroke:#000;" pathLength="3333" clip-path="url(#z38450c6)" d="M 579 391 L 616 421 L 535 598 L 423 727 L 290 816"/>
</g>
</svg>