<svg id="z38485" class="acjk" viewBox="0 0 1024 1024" xmlns="http://www.w3.org/2000/svg">

<style>
<![CDATA[
@keyframes zk { to { stroke-dashoffset:0; } }
svg.acjk path[clip-path] {
    --t:0.8s;
    animation:zk var(--t) linear forwards var(--d);
    stroke-dasharray:3337;
    stroke-dashoffset:3339;
    stroke-width:128;
    stroke-linecap:round;
    fill:none;
}
/* Low opacity for background improves visual overlap at intersections */
svg.acjk .bg { fill:#ccc; opacity: 0.5; } 
]]>
</style>
<defs>
    <clipPath id="z38485c1"><path d="M 238 220 C 260 216 284 208 309 197 C 317 192 325 192 332 198 C 335 200 335 207 331 220 C 308 282 298 313 306 332 C 320 366 351 388 359 424 C 359 428 357 431 355 435 C 350 441 340 444 325 442 C 305 439 284 437 264 437 C 248 436 248 441 267 450 C 305 468 343 487 378 511 C 388 518 395 517 404 510 C 411 502 419 491 422 475 C 428 439 411 397 370 354 C 338 321 334 299 350 277 C 378 236 395 207 412 197 C 424 188 427 179 421 171 C 411 158 393 144 368 134 C 353 128 341 131 332 139 C 300 164 262 180 218 190 C 206 192 226 222 238 220 Z"/></clipPath>
    <clipPath id="z38485c2"><path d="M 218 190 C 203 177 187 167 169 164 C 162 162 156 165 152 171 C 148 175 154 179 157 189 C 186 300 199 472 171 681 C 160 761 147 794 149 812 C 151 837 163 853 171 863 C 179 873 187 872 194 863 C 215 832 227 746 228 602 C 228 390 231 262 238 220 C 240 208 228 197 218 190 Z"/></clipPath>
    <clipPath id="z38485c3"><path d="M 637 282 C 735 260 786 246 791 243 C 796 238 798 232 795 227 C 790 220 779 212 760 209 C 740 204 701 220 640 236 C 608 244 608 244 592 248 C 558 256 523 259 489 264 C 464 267 461 275 479 286 C 504 300 537 304 575 295 C 579 294 584 293 592 292 C 622 285 622 285 637 282 Z"/></clipPath>
    <clipPath id="z38485c4"><path d="M 463 413 C 474 426 485 441 497 458 C 503 466 510 471 519 472 C 523 472 528 469 533 463 C 537 456 537 444 536 427 C 535 416 528 404 513 396 C 475 374 453 366 448 369 C 445 370 443 375 443 383 C 443 389 450 398 463 413 Z"/></clipPath>
    <clipPath id="z38485c5"><path d="M 737 350 C 724 368 703 393 676 424 C 671 428 670 434 675 437 C 679 439 684 437 689 435 C 740 404 776 382 802 372 C 812 367 816 364 815 358 C 812 348 805 337 794 326 C 783 315 771 307 758 306 C 749 305 744 311 745 323 C 745 331 743 340 737 350 Z"/></clipPath>
    <clipPath id="z38485c6"><path d="M 633 554 C 695 546 774 542 869 544 C 909 544 933 543 939 536 C 943 528 939 518 928 510 C 893 483 863 474 838 480 C 785 491 714 503 626 517 C 595 522 595 522 579 524 C 504 535 423 543 336 554 C 322 555 320 561 331 573 C 339 582 350 588 363 592 C 376 596 389 596 400 593 C 454 578 513 568 575 561 C 614 556 614 556 633 554 Z"/></clipPath>
    <clipPath id="z38485c7"><path d="M 575 561 C 564 660 524 732 466 779 C 430 807 380 834 319 862 C 310 866 305 870 305 873 C 305 875 310 876 318 878 C 330 880 353 876 386 867 C 440 852 486 827 525 792 C 572 747 612 682 620 591 C 624 542 624 542 626 517 C 629 479 632 355 637 282 C 639 251 639 251 640 236 C 641 208 648 170 666 125 C 670 114 669 106 662 99 C 647 85 626 76 600 69 C 583 64 571 64 565 69 C 558 73 558 80 564 89 C 578 113 589 141 590 174 C 590 174 591 223 592 248 C 592 262 592 214 592 292 C 591 370 587 448 579 524 C 576 549 576 549 575 561 Z"/></clipPath>
    <clipPath id="z38485c8"><path d="M 620 591 Q 771 870 821 874 Q 887 873 943 873 Q 968 873 968 867 Q 969 860 944 845 Q 815 778 779 741 Q 700 657 633 554 C 619 531 608 567 620 591 Z"/></clipPath>
</defs>
<g id="bg-layer">
    <path class="bg" d="M 238 220 C 260 216 284 208 309 197 C 317 192 325 192 332 198 C 335 200 335 207 331 220 C 308 282 298 313 306 332 C 320 366 351 388 359 424 C 359 428 357 431 355 435 C 350 441 340 444 325 442 C 305 439 284 437 264 437 C 248 436 248 441 267 450 C 305 468 343 487 378 511 C 388 518 395 517 404 510 C 411 502 419 491 422 475 C 428 439 411 397 370 354 C 338 321 334 299 350 277 C 378 236 395 207 412 197 C 424 188 427 179 421 171 C 411 158 393 144 368 134 C 353 128 341 131 332 139 C 300 164 262 180 218 190 C 206 192 226 222 238 220 Z"/>
    <path class="bg" d="M 218 190 C 203 177 187 167 169 164 C 162 162 156 165 152 171 C 148 175 154 179 157 189 C 186 300 199 472 171 681 C 160 761 147 794 149 812 C 151 837 163 853 171 863 C 179 873 187 872 194 863 C 215 832 227 746 228 602 C 228 390 231 262 238 220 C 240 208 228 197 218 190 Z"/>
    <path class="bg" d="M 637 282 C 735 260 786 246 791 243 C 796 238 798 232 795 227 C 790 220 779 212 760 209 C 740 204 701 220 640 236 C 608 244 608 244 592 248 C 558 256 523 259 489 264 C 464 267 461 275 479 286 C 504 300 537 304 575 295 C 579 294 584 293 592 292 C 622 285 622 285 637 282 Z"/>
    <path class="bg" d="M 463 413 C 474 426 485 441 497 458 C 503 466 510 471 519 472 C 523 472 528 469 533 463 C 537 456 537 444 536 427 C 535 416 528 404 513 396 C 475 374 453 366 448 369 C 445 370 443 375 443 383 C 443 389 450 398 463 413 Z"/>
    <path class="bg" d="M 737 350 C 724 368 703 393 676 424 C 671 428 670 434 675 437 C 679 439 684 437 689 435 C 740 404 776 382 802 372 C 812 367 816 364 815 358 C 812 348 805 337 794 326 C 783 315 771 307 758 306 C 749 305 744 311 745 323 C 745 331 743 340 737 350 Z"/>
    <path class="bg" d="M 633 554 C 695 546 774 542 869 544 C 909 544 933 543 939 536 C 943 528 939 518 928 510 C 893 483 863 474 838 480 C 785 491 714 503 626 517 C 595 522 595 522 579 524 C 504 535 423 543 336 554 C 322 555 320 561 331 573 C 339 582 350 588 363 592 C 376 596 389 596 400 593 C 454 578 513 568 575 561 C 614 556 614 556 633 554 Z"/>
    <path class="bg" d="M 575 561 C 564 660 524 732 466 779 C 430 807 380 834 319 862 C 310 866 305 870 305 873 C 305 875 310 876 318 878 C 330 880 353 876 386 867 C 440 852 486 827 525 792 C 572 747 612 682 620 591 C 624 542 624 542 626 517 C 629 479 632 355 637 282 C 639 251 639 251 640 236 C 641 208 648 170 666 125 C 670 114 669 106 662 99 C 647 85 626 76 600 69 C 583 64 571 64 565 69 C 558 73 558 80 564 89 C 578 113 589 141 590 174 C 590 174 591 223 592 248 C 592 262 592 214 592 292 C 591 370 587 448 579 524 C 576 549 576 549 575 561 Z"/>
    <path class="bg" d="M 620 591 Q 771 870 821 874 Q 887 873 943 873 Q 968 873 968 867 Q 969 860 944 845 Q 815 778 779 741 Q 700 657 633 554 C 619 531 608 567 620 591 Z"/>
</g>
<g id="anim-layer">
    <path style="--d:1s; stroke:#FF4444;" pathLength="3333" clip-path="url(#z38485c1)" d="M 227 192 L 343 165 L 379 194 L 322 306 L 384 417 L 382 469 L 263 443"/>
    <path style="--d:2s; stroke:#FF4444;" pathLength="3333" clip-path="url(#z38485c2)" d="M 158 173 L 205 229 L 210 329 L 180 864"/>
    <path style="--d:3s; stroke:#000;" pathLength="3333" clip-path="url(#z38485c3)" d="M 475 272 L 542 278 L 789 234"/>
    <path style="--d:4s; stroke:#000;" pathLength="3333" clip-path="url(#z38485c4)" d="M 451 377 L 524 464"/>
    <path style="--d:5s; stroke:#000;" pathLength="3333" clip-path="url(#z38485c5)" d="M 754 313 L 774 358 L 680 430"/>
    <path style="--d:6s; stroke:#000;" pathLength="3333" clip-path="url(#z38485c6)" d="M 330 560 L 389 571 L 856 511 L 935 525"/>
    <path style="--d:7s; stroke:#000;" pathLength="3333" clip-path="url(#z38485c7)" d="M 566 73 L 626 129 L 580 650 L 482 797 L 311 870"/>
    <path style="--d:8s; stroke:#000;" pathLength="3333" clip-path="url(#z38485c8)" d="M 628 561 L 704 693 L 808 816 L 962 861"/>
</g>
</svg>