<svg id="z38516" class="acjk" viewBox="0 0 1024 1024" xmlns="http://www.w3.org/2000/svg">

<style>
<![CDATA[
@keyframes zk { to { stroke-dashoffset:0; } }
svg.acjk path[clip-path] {
    --t:0.8s;
    animation:zk var(--t) linear forwards var(--d);
    stroke-dasharray:3337;
    stroke-dashoffset:3339;
    stroke-width:128;
    stroke-linecap:round;
    fill:none;
}
/* Low opacity for background improves visual overlap at intersections */
svg.acjk .bg { fill:#ccc; opacity: 0.5; } 
]]>
</style>
<defs>
    <clipPath id="z38516c1"><path d="M 193 232 C 217 225 244 216 271 202 C 282 196 291 194 299 201 C 303 204 302 212 297 224 C 286 248 278 274 268 298 C 261 313 260 325 269 339 C 309 402 322 441 311 455 C 305 461 296 464 282 462 C 263 459 244 457 224 457 C 209 456 209 461 226 470 C 260 487 295 505 327 529 C 336 536 344 536 354 529 C 363 521 370 510 375 494 C 379 477 376 456 366 429 C 354 398 337 372 315 348 C 295 326 294 307 304 291 C 327 248 356 211 373 200 C 385 191 388 183 381 175 C 372 164 356 152 331 141 C 318 135 306 136 298 144 C 267 170 229 190 183 204 C 174 208 183 234 193 232 Z"/></clipPath>
    <clipPath id="z38516c2"><path d="M 183 204 C 168 189 149 177 125 172 C 118 170 112 173 108 180 C 105 183 109 188 113 197 C 133 242 140 288 142 334 C 149 522 138 662 111 755 C 105 773 104 790 108 805 C 113 829 122 845 131 855 C 139 864 146 864 154 855 C 174 828 187 766 187 670 C 185 436 185 290 193 232 C 195 222 191 210 183 204 Z"/></clipPath>
    <clipPath id="z38516c3"><path d="M 509 219 C 525 203 559 166 585 140 C 596 128 607 116 621 106 C 633 97 635 87 625 78 C 615 68 599 61 581 55 C 564 49 552 49 544 52 C 536 54 535 59 539 68 C 544 81 531 118 503 177 C 495 192 486 207 478 225 C 474 235 502 226 509 219 Z"/></clipPath>
    <clipPath id="z38516c4"><path d="M 438 232 C 431 229 420 226 406 223 C 398 221 393 222 391 225 C 386 229 387 235 392 246 C 412 290 428 349 437 422 C 439 443 444 462 457 477 C 468 490 475 493 479 483 C 480 480 480 478 481 476 C 484 469 483 461 483 454 C 483 446 481 420 480 412 C 470 346 459 288 457 265 C 455 252 450 237 438 232 Z"/></clipPath>
    <clipPath id="z38516c5"><path d="M 689 448 C 699 464 710 473 721 479 C 728 482 736 479 746 465 C 756 448 768 392 789 297 C 793 276 805 257 820 242 C 828 233 829 224 821 216 C 810 205 791 189 763 174 C 751 167 717 173 662 187 C 640 192 515 217 509 219 C 488 223 488 223 478 225 C 463 227 450 229 438 232 C 425 234 445 270 457 265 C 481 257 518 247 569 238 C 598 233 598 233 612 230 C 678 217 716 210 727 222 C 736 232 739 243 738 254 C 722 354 708 408 697 418 C 691 426 683 440 689 448 Z"/></clipPath>
    <clipPath id="z38516c6"><path d="M 607 354 Q 641 347 672 344 Q 691 341 685 330 Q 676 318 655 314 Q 639 311 614 318 C 581 327 581 327 565 332 Q 537 339 510 346 Q 497 349 513 361 Q 519 365 560 361 C 591 356 591 356 607 354 Z"/></clipPath>
    <clipPath id="z38516c7"><path d="M 574 465 C 616 458 653 451 689 448 C 699 448 707 420 697 418 C 687 416 672 417 652 422 C 629 426 607 430 585 435 C 555 441 555 441 540 444 C 520 447 496 453 483 454 C 476 455 474 476 481 476 C 495 478 510 474 529 472 C 559 467 559 467 574 465 Z"/></clipPath>
    <clipPath id="z38516c8"><path d="M 478 610 C 526 560 565 488 574 465 C 581 445 581 445 585 435 C 593 411 601 381 607 354 C 612 330 612 330 614 318 C 616 307 621 277 627 268 C 631 261 633 253 630 247 C 626 240 619 235 612 230 C 601 221 564 224 569 238 C 569 238 570 240 571 244 C 572 247 571 291 565 332 C 562 351 562 351 560 361 C 552 405 544 433 540 444 C 533 463 533 463 529 472 C 511 517 485 557 447 613 C 442 622 472 618 478 610 Z"/></clipPath>
    <clipPath id="z38516c9"><path d="M 676 625 C 724 622 778 620 839 622 C 883 623 907 621 911 614 C 914 607 910 598 900 590 C 864 561 824 555 782 565 C 752 571 717 576 677 583 C 638 589 638 589 619 592 C 578 598 504 607 478 610 C 457 612 457 612 447 613 C 427 614 346 624 292 631 C 279 632 277 638 287 649 C 295 658 305 664 317 668 C 330 672 342 671 353 669 C 444 644 534 632 620 628 C 657 626 657 626 676 625 Z"/></clipPath>
    <clipPath id="z38516c10"><path d="M 623 920 C 625 936 629 947 634 953 C 637 957 642 960 647 958 C 663 947 671 879 673 757 C 673 726 675 638 676 625 C 677 597 677 597 677 583 C 677 570 679 560 681 554 C 683 544 684 534 686 527 C 688 516 685 507 676 501 C 655 486 640 480 631 478 C 622 476 613 475 604 481 C 597 484 597 491 602 499 C 612 516 617 552 619 592 C 620 616 620 616 620 628 C 625 807 620 905 623 920 Z"/></clipPath>
</defs>
<g id="bg-layer">
    <path class="bg" d="M 193 232 C 217 225 244 216 271 202 C 282 196 291 194 299 201 C 303 204 302 212 297 224 C 286 248 278 274 268 298 C 261 313 260 325 269 339 C 309 402 322 441 311 455 C 305 461 296 464 282 462 C 263 459 244 457 224 457 C 209 456 209 461 226 470 C 260 487 295 505 327 529 C 336 536 344 536 354 529 C 363 521 370 510 375 494 C 379 477 376 456 366 429 C 354 398 337 372 315 348 C 295 326 294 307 304 291 C 327 248 356 211 373 200 C 385 191 388 183 381 175 C 372 164 356 152 331 141 C 318 135 306 136 298 144 C 267 170 229 190 183 204 C 174 208 183 234 193 232 Z"/>
    <path class="bg" d="M 183 204 C 168 189 149 177 125 172 C 118 170 112 173 108 180 C 105 183 109 188 113 197 C 133 242 140 288 142 334 C 149 522 138 662 111 755 C 105 773 104 790 108 805 C 113 829 122 845 131 855 C 139 864 146 864 154 855 C 174 828 187 766 187 670 C 185 436 185 290 193 232 C 195 222 191 210 183 204 Z"/>
    <path class="bg" d="M 509 219 C 525 203 559 166 585 140 C 596 128 607 116 621 106 C 633 97 635 87 625 78 C 615 68 599 61 581 55 C 564 49 552 49 544 52 C 536 54 535 59 539 68 C 544 81 531 118 503 177 C 495 192 486 207 478 225 C 474 235 502 226 509 219 Z"/>
    <path class="bg" d="M 438 232 C 431 229 420 226 406 223 C 398 221 393 222 391 225 C 386 229 387 235 392 246 C 412 290 428 349 437 422 C 439 443 444 462 457 477 C 468 490 475 493 479 483 C 480 480 480 478 481 476 C 484 469 483 461 483 454 C 483 446 481 420 480 412 C 470 346 459 288 457 265 C 455 252 450 237 438 232 Z"/>
    <path class="bg" d="M 689 448 C 699 464 710 473 721 479 C 728 482 736 479 746 465 C 756 448 768 392 789 297 C 793 276 805 257 820 242 C 828 233 829 224 821 216 C 810 205 791 189 763 174 C 751 167 717 173 662 187 C 640 192 515 217 509 219 C 488 223 488 223 478 225 C 463 227 450 229 438 232 C 425 234 445 270 457 265 C 481 257 518 247 569 238 C 598 233 598 233 612 230 C 678 217 716 210 727 222 C 736 232 739 243 738 254 C 722 354 708 408 697 418 C 691 426 683 440 689 448 Z"/>
    <path class="bg" d="M 607 354 Q 641 347 672 344 Q 691 341 685 330 Q 676 318 655 314 Q 639 311 614 318 C 581 327 581 327 565 332 Q 537 339 510 346 Q 497 349 513 361 Q 519 365 560 361 C 591 356 591 356 607 354 Z"/>
    <path class="bg" d="M 574 465 C 616 458 653 451 689 448 C 699 448 707 420 697 418 C 687 416 672 417 652 422 C 629 426 607 430 585 435 C 555 441 555 441 540 444 C 520 447 496 453 483 454 C 476 455 474 476 481 476 C 495 478 510 474 529 472 C 559 467 559 467 574 465 Z"/>
    <path class="bg" d="M 478 610 C 526 560 565 488 574 465 C 581 445 581 445 585 435 C 593 411 601 381 607 354 C 612 330 612 330 614 318 C 616 307 621 277 627 268 C 631 261 633 253 630 247 C 626 240 619 235 612 230 C 601 221 564 224 569 238 C 569 238 570 240 571 244 C 572 247 571 291 565 332 C 562 351 562 351 560 361 C 552 405 544 433 540 444 C 533 463 533 463 529 472 C 511 517 485 557 447 613 C 442 622 472 618 478 610 Z"/>
    <path class="bg" d="M 676 625 C 724 622 778 620 839 622 C 883 623 907 621 911 614 C 914 607 910 598 900 590 C 864 561 824 555 782 565 C 752 571 717 576 677 583 C 638 589 638 589 619 592 C 578 598 504 607 478 610 C 457 612 457 612 447 613 C 427 614 346 624 292 631 C 279 632 277 638 287 649 C 295 658 305 664 317 668 C 330 672 342 671 353 669 C 444 644 534 632 620 628 C 657 626 657 626 676 625 Z"/>
    <path class="bg" d="M 623 920 C 625 936 629 947 634 953 C 637 957 642 960 647 958 C 663 947 671 879 673 757 C 673 726 675 638 676 625 C 677 597 677 597 677 583 C 677 570 679 560 681 554 C 683 544 684 534 686 527 C 688 516 685 507 676 501 C 655 486 640 480 631 478 C 622 476 613 475 604 481 C 597 484 597 491 602 499 C 612 516 617 552 619 592 C 620 616 620 616 620 628 C 625 807 620 905 623 920 Z"/>
</g>
<g id="anim-layer">
    <path style="--d:1s; stroke:#FF4444;" pathLength="3333" clip-path="url(#z38516c1)" d="M 189 207 L 308 169 L 342 200 L 280 318 L 337 424 L 338 487 L 224 460"/>
    <path style="--d:2s; stroke:#FF4444;" pathLength="3333" clip-path="url(#z38516c2)" d="M 114 182 L 162 244 L 140 856"/>
    <path style="--d:3s; stroke:#000;" pathLength="3333" clip-path="url(#z38516c3)" d="M 545 58 L 583 95 L 487 221"/>
    <path style="--d:4s; stroke:#000;" pathLength="3333" clip-path="url(#z38516c4)" d="M 395 232 L 435 289 L 471 482"/>
    <path style="--d:5s; stroke:#000;" pathLength="3333" clip-path="url(#z38516c5)" d="M 449 236 L 713 196 L 757 206 L 782 237 L 717 474"/>
    <path style="--d:6s; stroke:#000;" pathLength="3333" clip-path="url(#z38516c6)" d="M 513 353 L 681 331"/>
    <path style="--d:7s; stroke:#000;" pathLength="3333" clip-path="url(#z38516c7)" d="M 488 469 L 693 429"/>
    <path style="--d:8s; stroke:#000;" pathLength="3333" clip-path="url(#z38516c8)" d="M 577 245 L 599 276 L 564 431 L 503 558 L 456 607"/>
    <path style="--d:9s; stroke:#000;" pathLength="3333" clip-path="url(#z38516c9)" d="M 289 639 L 344 648 L 807 591 L 907 604"/>
    <path style="--d:10s; stroke:#000;" pathLength="3333" clip-path="url(#z38516c10)" d="M 608 488 L 649 522 L 644 952"/>
</g>
</svg>