<svg id="z38780" class="acjk" viewBox="0 0 1024 1024" xmlns="http://www.w3.org/2000/svg">

<style>
<![CDATA[
@keyframes zk { to { stroke-dashoffset:0; } }
svg.acjk path[clip-path] {
    --t:0.8s;
    animation:zk var(--t) linear forwards var(--d);
    stroke-dasharray:3337;
    stroke-dashoffset:3339;
    stroke-width:128;
    stroke-linecap:round;
    fill:none;
}
/* Low opacity for background improves visual overlap at intersections */
svg.acjk .bg { fill:#ccc; opacity: 0.5; } 
]]>
</style>
<defs>
    <clipPath id="z38780c1"><path d="M 423 249 C 436 246 476 241 492 238 C 506 234 527 227 490 208 C 471 198 453 195 436 200 C 401 210 401 210 383 215 C 366 219 302 235 286 239 C 257 245 257 245 242 248 C 222 252 169 259 119 266 C 97 268 106 279 114 285 C 125 293 147 301 161 300 C 180 299 218 289 249 283 C 275 278 275 278 288 275 C 314 269 344 262 376 257 C 407 252 407 252 423 249 Z"/></clipPath>
    <clipPath id="z38780c2"><path d="M 286 239 C 285 222 283 207 284 192 C 284 181 280 174 269 169 C 244 157 226 151 215 156 C 204 160 203 168 212 180 C 226 201 237 224 242 248 C 247 271 247 271 249 283 C 254 312 255 342 258 370 C 259 382 265 392 273 401 C 279 407 286 408 289 401 C 290 396 290 392 291 389 C 292 364 292 364 292 352 C 290 324 289 298 288 275 C 287 251 287 251 286 239 Z"/></clipPath>
    <clipPath id="z38780c3"><path d="M 398 335 C 406 305 415 276 423 249 C 432 216 432 216 436 200 C 444 169 453 147 458 134 C 464 118 465 118 454 107 C 438 91 422 84 409 79 C 397 74 375 73 385 98 C 399 135 389 176 383 215 C 378 243 378 243 376 257 C 372 279 366 304 361 331 C 359 343 396 347 398 335 Z"/></clipPath>
    <clipPath id="z38780c4"><path d="M 321 378 C 346 372 371 368 411 363 C 437 359 418 341 398 335 C 386 330 373 326 361 331 C 345 336 317 344 292 352 C 280 356 280 394 291 389 C 291 389 310 380 321 378 Z"/></clipPath>
    <clipPath id="z38780c5"><path d="M 200 469 Q 191 466 174 465 Q 164 464 160 468 Q 156 474 164 487 Q 186 524 204 588 Q 208 607 221 619 Q 237 637 242 623 Q 243 617 244 611 C 246 601 242 590 240 580 Q 227 516 225 496 C 223 484 212 471 200 469 Z"/></clipPath>
    <clipPath id="z38780c6"><path d="M 455 542 Q 477 494 503 479 Q 518 463 505 448 Q 492 436 447 414 Q 431 407 412 413 Q 381 426 351 437 C 320 446 320 446 304 450 Q 252 460 200 469 C 188 471 213 498 225 496 Q 232 495 242 491 Q 273 484 306 478 C 335 471 335 471 349 468 Q 412 450 423 460 Q 429 466 427 478 Q 420 509 410 534 C 404 548 449 556 455 542 Z"/></clipPath>
    <clipPath id="z38780c7"><path d="M 346 589 C 377 581 416 576 462 569 C 473 567 489 561 455 542 C 442 534 424 529 410 534 C 394 539 364 548 347 553 C 320 560 320 560 306 564 C 283 570 261 575 240 580 C 230 582 234 613 244 611 C 253 610 273 604 305 598 C 332 592 332 592 346 589 Z"/></clipPath>
    <clipPath id="z38780c8"><path d="M 346 696 C 386 686 430 677 480 670 C 513 664 495 644 480 638 C 461 629 444 628 429 632 C 398 639 370 646 346 653 C 317 660 317 660 302 664 C 192 691 114 703 69 708 C 53 709 40 722 65 740 C 92 759 120 762 149 753 C 208 732 258 716 299 707 C 330 700 330 700 346 696 Z"/></clipPath>
    <clipPath id="z38780c9"><path d="M 299 707 C 294 771 289 810 286 823 C 279 845 288 872 309 905 C 320 922 333 937 343 915 C 351 895 352 875 351 857 C 347 800 346 746 346 696 C 346 667 346 667 346 653 C 346 631 345 610 346 589 C 347 565 347 565 347 553 C 347 519 347 490 349 468 C 350 447 350 447 351 437 C 353 404 345 394 321 378 C 316 374 288 383 291 389 C 299 401 301 421 304 450 C 305 469 305 469 306 478 C 308 506 306 535 306 564 C 305 587 305 587 305 598 C 304 611 304 634 302 664 C 300 693 300 693 299 707 Z"/></clipPath>
    <clipPath id="z38780c10"><path d="M 587 312 C 570 305 513 278 532 321 C 552 375 566 446 573 533 C 574 559 580 582 593 600 C 611 626 615 605 620 585 C 622 574 622 563 621 553 C 617 528 612 491 609 460 C 607 443 607 443 606 435 C 601 394 596 365 596 347 C 596 335 598 316 587 312 Z"/></clipPath>
    <clipPath id="z38780c11"><path d="M 745 574 C 759 604 787 625 808 592 C 820 572 833 505 854 394 C 858 371 869 351 886 334 C 894 325 895 315 887 306 C 876 294 855 281 825 263 C 795 245 813 259 587 312 C 575 314 585 351 596 347 C 616 339 636 331 754 308 C 782 302 801 318 797 348 C 779 470 763 535 751 543 C 744 550 740 565 745 574 Z"/></clipPath>
    <clipPath id="z38780c12"><path d="M 609 460 C 621 458 658 454 735 445 C 767 440 747 413 713 409 C 693 406 657 415 606 435 C 598 438 601 462 609 460 Z"/></clipPath>
    <clipPath id="z38780c13"><path d="M 620 585 C 632 584 675 576 745 574 C 756 574 760 548 751 543 C 715 517 713 533 621 553 C 611 555 610 587 620 585 Z"/></clipPath>
    <clipPath id="z38780c14"><path d="M 469 729 C 454 730 451 736 463 749 C 487 774 519 774 535 771 C 686 734 933 741 945 742 C 978 742 979 722 960 707 C 920 675 884 671 849 678 C 745 698 617 711 469 729 Z"/></clipPath>
</defs>
<g id="bg-layer">
    <path class="bg" d="M 423 249 C 436 246 476 241 492 238 C 506 234 527 227 490 208 C 471 198 453 195 436 200 C 401 210 401 210 383 215 C 366 219 302 235 286 239 C 257 245 257 245 242 248 C 222 252 169 259 119 266 C 97 268 106 279 114 285 C 125 293 147 301 161 300 C 180 299 218 289 249 283 C 275 278 275 278 288 275 C 314 269 344 262 376 257 C 407 252 407 252 423 249 Z"/>
    <path class="bg" d="M 286 239 C 285 222 283 207 284 192 C 284 181 280 174 269 169 C 244 157 226 151 215 156 C 204 160 203 168 212 180 C 226 201 237 224 242 248 C 247 271 247 271 249 283 C 254 312 255 342 258 370 C 259 382 265 392 273 401 C 279 407 286 408 289 401 C 290 396 290 392 291 389 C 292 364 292 364 292 352 C 290 324 289 298 288 275 C 287 251 287 251 286 239 Z"/>
    <path class="bg" d="M 398 335 C 406 305 415 276 423 249 C 432 216 432 216 436 200 C 444 169 453 147 458 134 C 464 118 465 118 454 107 C 438 91 422 84 409 79 C 397 74 375 73 385 98 C 399 135 389 176 383 215 C 378 243 378 243 376 257 C 372 279 366 304 361 331 C 359 343 396 347 398 335 Z"/>
    <path class="bg" d="M 321 378 C 346 372 371 368 411 363 C 437 359 418 341 398 335 C 386 330 373 326 361 331 C 345 336 317 344 292 352 C 280 356 280 394 291 389 C 291 389 310 380 321 378 Z"/>
    <path class="bg" d="M 200 469 Q 191 466 174 465 Q 164 464 160 468 Q 156 474 164 487 Q 186 524 204 588 Q 208 607 221 619 Q 237 637 242 623 Q 243 617 244 611 C 246 601 242 590 240 580 Q 227 516 225 496 C 223 484 212 471 200 469 Z"/>
    <path class="bg" d="M 455 542 Q 477 494 503 479 Q 518 463 505 448 Q 492 436 447 414 Q 431 407 412 413 Q 381 426 351 437 C 320 446 320 446 304 450 Q 252 460 200 469 C 188 471 213 498 225 496 Q 232 495 242 491 Q 273 484 306 478 C 335 471 335 471 349 468 Q 412 450 423 460 Q 429 466 427 478 Q 420 509 410 534 C 404 548 449 556 455 542 Z"/>
    <path class="bg" d="M 346 589 C 377 581 416 576 462 569 C 473 567 489 561 455 542 C 442 534 424 529 410 534 C 394 539 364 548 347 553 C 320 560 320 560 306 564 C 283 570 261 575 240 580 C 230 582 234 613 244 611 C 253 610 273 604 305 598 C 332 592 332 592 346 589 Z"/>
    <path class="bg" d="M 346 696 C 386 686 430 677 480 670 C 513 664 495 644 480 638 C 461 629 444 628 429 632 C 398 639 370 646 346 653 C 317 660 317 660 302 664 C 192 691 114 703 69 708 C 53 709 40 722 65 740 C 92 759 120 762 149 753 C 208 732 258 716 299 707 C 330 700 330 700 346 696 Z"/>
    <path class="bg" d="M 299 707 C 294 771 289 810 286 823 C 279 845 288 872 309 905 C 320 922 333 937 343 915 C 351 895 352 875 351 857 C 347 800 346 746 346 696 C 346 667 346 667 346 653 C 346 631 345 610 346 589 C 347 565 347 565 347 553 C 347 519 347 490 349 468 C 350 447 350 447 351 437 C 353 404 345 394 321 378 C 316 374 288 383 291 389 C 299 401 301 421 304 450 C 305 469 305 469 306 478 C 308 506 306 535 306 564 C 305 587 305 587 305 598 C 304 611 304 634 302 664 C 300 693 300 693 299 707 Z"/>
    <path class="bg" d="M 587 312 C 570 305 513 278 532 321 C 552 375 566 446 573 533 C 574 559 580 582 593 600 C 611 626 615 605 620 585 C 622 574 622 563 621 553 C 617 528 612 491 609 460 C 607 443 607 443 606 435 C 601 394 596 365 596 347 C 596 335 598 316 587 312 Z"/>
    <path class="bg" d="M 745 574 C 759 604 787 625 808 592 C 820 572 833 505 854 394 C 858 371 869 351 886 334 C 894 325 895 315 887 306 C 876 294 855 281 825 263 C 795 245 813 259 587 312 C 575 314 585 351 596 347 C 616 339 636 331 754 308 C 782 302 801 318 797 348 C 779 470 763 535 751 543 C 744 550 740 565 745 574 Z"/>
    <path class="bg" d="M 609 460 C 621 458 658 454 735 445 C 767 440 747 413 713 409 C 693 406 657 415 606 435 C 598 438 601 462 609 460 Z"/>
    <path class="bg" d="M 620 585 C 632 584 675 576 745 574 C 756 574 760 548 751 543 C 715 517 713 533 621 553 C 611 555 610 587 620 585 Z"/>
    <path class="bg" d="M 469 729 C 454 730 451 736 463 749 C 487 774 519 774 535 771 C 686 734 933 741 945 742 C 978 742 979 722 960 707 C 920 675 884 671 849 678 C 745 698 617 711 469 729 Z"/>
</g>
<g id="anim-layer">
    <path style="--d:1s; stroke:#FF4444;" pathLength="3333" clip-path="url(#z38780c1)" d="M 114 275 L 505 226"/>
    <path style="--d:2s; stroke:#FF4444;" pathLength="3333" clip-path="url(#z38780c2)" d="M 214 167 L 256 197 L 277 402"/>
    <path style="--d:3s; stroke:#FF4444;" pathLength="3333" clip-path="url(#z38780c3)" d="M 392 83 L 427 129 L 379 340"/>
    <path style="--d:4s; stroke:#FF4444;" pathLength="3333" clip-path="url(#z38780c4)" d="M 290 380 L 367 349 L 418 353"/>
    <path style="--d:5s; stroke:#FF4444;" pathLength="3333" clip-path="url(#z38780c5)" d="M 167 474 L 200 501 L 233 623"/>
    <path style="--d:6s; stroke:#FF4444;" pathLength="3333" clip-path="url(#z38780c6)" d="M 203 474 L 426 434 L 469 469 L 426 547"/>
    <path style="--d:7s; stroke:#FF4444;" pathLength="3333" clip-path="url(#z38780c7)" d="M 236 597 L 469 555"/>
    <path style="--d:8s; stroke:#FF4444;" pathLength="3333" clip-path="url(#z38780c8)" d="M 56 722 L 132 728 L 494 653"/>
    <path style="--d:9s; stroke:#FF4444;" pathLength="3333" clip-path="url(#z38780c9)" d="M 299 390 L 327 432 L 328 921"/>
    <path style="--d:10s; stroke:#000;" pathLength="3333" clip-path="url(#z38780c10)" d="M 535 302 L 569 341 L 604 606"/>
    <path style="--d:11s; stroke:#000;" pathLength="3333" clip-path="url(#z38780c11)" d="M 583 325 L 781 284 L 844 322 L 770 602"/>
    <path style="--d:12s; stroke:#000;" pathLength="3333" clip-path="url(#z38780c12)" d="M 604 448 L 746 433"/>
    <path style="--d:13s; stroke:#000;" pathLength="3333" clip-path="url(#z38780c13)" d="M 615 573 L 753 559"/>
    <path style="--d:14s; stroke:#000;" pathLength="3333" clip-path="url(#z38780c14)" d="M 461 736 L 518 748 L 855 708 L 969 727"/>
</g>
</svg>