<svg id="z38781" class="acjk" viewBox="0 0 1024 1024" xmlns="http://www.w3.org/2000/svg">

<style>
<![CDATA[
@keyframes zk { to { stroke-dashoffset:0; } }
svg.acjk path[clip-path] {
    --t:0.8s;
    animation:zk var(--t) linear forwards var(--d);
    stroke-dasharray:3337;
    stroke-dashoffset:3339;
    stroke-width:128;
    stroke-linecap:round;
    fill:none;
}
/* Low opacity for background improves visual overlap at intersections */
svg.acjk .bg { fill:#ccc; opacity: 0.5; } 
]]>
</style>
<defs>
    <clipPath id="z38781c1"><path d="M 401 251 C 429 246 457 240 484 238 C 490 237 497 236 501 228 C 503 221 495 215 482 208 C 457 194 436 197 412 204 C 378 213 378 213 361 217 C 346 220 276 237 258 241 C 230 246 230 246 216 249 C 196 252 160 253 108 262 C 90 264 87 271 102 281 C 121 295 144 300 169 295 C 183 291 200 287 220 284 C 246 279 246 279 259 276 C 287 270 320 263 356 258 C 386 253 386 253 401 251 Z"/></clipPath>
    <clipPath id="z38781c2"><path d="M 258 241 C 257 216 255 194 257 175 C 257 162 253 155 241 150 C 216 138 198 131 186 135 C 173 138 172 148 181 161 C 198 188 212 217 216 249 C 219 272 219 272 220 284 C 223 310 223 337 226 364 C 227 376 232 388 241 397 C 248 404 254 403 257 397 C 259 391 262 385 262 379 C 261 358 261 358 261 348 C 260 322 259 298 259 276 C 258 253 258 253 258 241 Z"/></clipPath>
    <clipPath id="z38781c3"><path d="M 381 330 C 387 303 394 277 401 251 C 408 220 408 220 412 204 C 421 165 430 137 441 119 C 444 113 441 104 431 95 C 413 79 397 71 385 67 C 376 64 369 64 364 68 C 359 71 357 78 361 87 C 368 104 372 116 371 127 C 367 155 364 185 361 217 C 358 244 358 244 356 258 C 353 278 348 300 344 324 C 342 336 379 342 381 330 Z"/></clipPath>
    <clipPath id="z38781c4"><path d="M 296 375 C 318 370 350 365 394 361 C 400 360 404 357 405 351 C 405 346 397 339 381 330 C 370 324 356 319 344 324 C 319 331 281 342 261 348 C 251 351 252 381 262 379 C 273 377 284 376 296 375 Z"/></clipPath>
    <clipPath id="z38781c5"><path d="M 171 462 C 164 459 149 456 126 453 C 119 452 114 453 112 456 C 109 458 110 465 115 475 C 116 476 116 476 116 477 C 116 477 117 479 120 483 C 134 505 147 537 159 579 C 162 591 168 601 177 611 C 188 622 195 624 198 615 C 199 610 201 604 200 599 C 197 580 197 580 195 571 C 188 532 181 505 179 490 C 177 480 180 466 171 462 Z"/></clipPath>
    <clipPath id="z38781c6"><path d="M 430 534 C 444 498 461 477 477 465 C 488 456 488 443 479 434 C 470 425 451 414 422 401 C 411 396 400 396 388 402 C 367 410 347 419 328 425 C 294 434 294 434 277 439 C 242 448 207 455 171 462 C 161 464 170 494 179 490 C 195 485 214 480 278 466 C 309 459 309 459 325 455 C 366 445 391 439 400 448 C 405 453 400 479 388 525 C 385 539 425 547 430 534 Z"/></clipPath>
    <clipPath id="z38781c7"><path d="M 320 576 C 352 570 390 563 434 559 C 440 558 444 555 444 550 C 444 546 439 540 430 534 C 418 527 402 522 388 525 C 384 525 362 532 321 543 C 292 550 292 550 277 554 C 247 561 219 566 195 571 C 186 573 191 599 200 599 C 204 599 208 599 213 598 C 229 593 250 588 276 584 C 305 579 305 579 320 576 Z"/></clipPath>
    <clipPath id="z38781c8"><path d="M 319 681 C 359 671 405 661 457 653 C 467 651 473 647 474 643 C 474 634 469 626 457 622 C 439 614 422 613 407 617 C 374 624 345 633 319 640 C 288 647 288 647 273 651 C 185 671 118 682 72 689 C 63 690 58 693 57 699 C 55 705 59 712 69 720 C 93 737 119 743 149 733 C 195 717 235 701 270 693 C 303 685 303 685 319 681 Z"/></clipPath>
    <clipPath id="z38781c9"><path d="M 270 693 C 264 767 257 811 254 825 C 247 849 256 878 277 912 C 284 923 289 932 296 934 C 302 935 308 931 312 923 C 320 902 321 882 321 862 C 319 798 319 737 319 681 C 319 681 319 653 319 640 C 319 618 319 596 320 576 C 321 554 321 554 321 543 C 322 507 322 477 325 455 C 327 435 327 435 328 425 C 328 421 329 417 330 415 C 332 407 330 400 326 397 C 315 388 305 381 296 375 C 287 368 256 369 262 379 C 262 379 263 381 265 384 C 272 395 276 414 277 439 C 278 457 278 457 278 466 C 279 492 278 521 277 554 C 276 574 276 574 276 584 C 275 594 273 639 273 651 C 271 679 271 679 270 693 Z"/></clipPath>
    <clipPath id="z38781c10"><path d="M 519 291 C 532 306 545 323 560 343 C 566 350 574 356 584 357 C 590 357 595 354 599 347 C 603 339 603 326 601 308 C 599 295 590 283 574 274 C 533 252 509 242 502 245 C 498 246 497 251 497 259 C 497 265 505 275 519 291 Z"/></clipPath>
    <clipPath id="z38781c11"><path d="M 807 223 C 794 243 775 270 749 302 C 745 306 743 313 749 317 C 752 319 759 317 765 314 C 818 282 856 256 883 246 C 894 241 899 236 897 230 C 893 218 884 206 872 194 C 859 180 845 173 829 173 C 819 172 814 179 815 193 C 815 201 813 211 807 223 Z"/></clipPath>
    <clipPath id="z38781c12"><path d="M 705 447 C 791 427 835 415 837 413 C 843 407 844 401 841 396 C 836 388 823 381 804 377 C 782 372 751 383 705 397 C 670 407 670 407 653 412 C 618 422 581 424 543 430 C 518 433 513 443 533 454 C 561 470 594 472 624 466 C 634 463 645 460 653 459 C 688 451 688 451 705 447 Z"/></clipPath>
    <clipPath id="z38781c13"><path d="M 705 592 C 758 585 816 582 917 581 C 929 580 939 578 942 572 C 945 564 941 554 930 546 C 890 517 851 510 815 523 C 778 536 748 540 705 548 C 670 554 670 554 652 557 C 592 567 547 570 478 580 C 464 581 461 587 473 599 C 492 618 517 625 543 618 C 583 607 606 605 652 599 C 687 594 687 594 705 592 Z"/></clipPath>
    <clipPath id="z38781c14"><path d="M 652 599 C 652 803 650 917 666 940 C 674 951 684 948 690 934 C 702 899 705 785 705 592 C 705 563 705 563 705 548 C 705 527 705 467 705 447 C 705 414 705 414 705 397 C 705 299 708 225 712 175 C 713 152 719 131 731 112 C 737 101 731 89 718 80 C 701 66 677 56 650 49 C 636 45 626 49 618 58 C 611 64 611 70 620 79 C 639 95 652 116 653 141 C 655 189 653 385 653 412 C 653 443 653 443 653 459 C 653 509 652 541 652 557 C 652 585 652 585 652 599 Z"/></clipPath>
</defs>
<g id="bg-layer">
    <path class="bg" d="M 401 251 C 429 246 457 240 484 238 C 490 237 497 236 501 228 C 503 221 495 215 482 208 C 457 194 436 197 412 204 C 378 213 378 213 361 217 C 346 220 276 237 258 241 C 230 246 230 246 216 249 C 196 252 160 253 108 262 C 90 264 87 271 102 281 C 121 295 144 300 169 295 C 183 291 200 287 220 284 C 246 279 246 279 259 276 C 287 270 320 263 356 258 C 386 253 386 253 401 251 Z"/>
    <path class="bg" d="M 258 241 C 257 216 255 194 257 175 C 257 162 253 155 241 150 C 216 138 198 131 186 135 C 173 138 172 148 181 161 C 198 188 212 217 216 249 C 219 272 219 272 220 284 C 223 310 223 337 226 364 C 227 376 232 388 241 397 C 248 404 254 403 257 397 C 259 391 262 385 262 379 C 261 358 261 358 261 348 C 260 322 259 298 259 276 C 258 253 258 253 258 241 Z"/>
    <path class="bg" d="M 381 330 C 387 303 394 277 401 251 C 408 220 408 220 412 204 C 421 165 430 137 441 119 C 444 113 441 104 431 95 C 413 79 397 71 385 67 C 376 64 369 64 364 68 C 359 71 357 78 361 87 C 368 104 372 116 371 127 C 367 155 364 185 361 217 C 358 244 358 244 356 258 C 353 278 348 300 344 324 C 342 336 379 342 381 330 Z"/>
    <path class="bg" d="M 296 375 C 318 370 350 365 394 361 C 400 360 404 357 405 351 C 405 346 397 339 381 330 C 370 324 356 319 344 324 C 319 331 281 342 261 348 C 251 351 252 381 262 379 C 273 377 284 376 296 375 Z"/>
    <path class="bg" d="M 171 462 C 164 459 149 456 126 453 C 119 452 114 453 112 456 C 109 458 110 465 115 475 C 116 476 116 476 116 477 C 116 477 117 479 120 483 C 134 505 147 537 159 579 C 162 591 168 601 177 611 C 188 622 195 624 198 615 C 199 610 201 604 200 599 C 197 580 197 580 195 571 C 188 532 181 505 179 490 C 177 480 180 466 171 462 Z"/>
    <path class="bg" d="M 430 534 C 444 498 461 477 477 465 C 488 456 488 443 479 434 C 470 425 451 414 422 401 C 411 396 400 396 388 402 C 367 410 347 419 328 425 C 294 434 294 434 277 439 C 242 448 207 455 171 462 C 161 464 170 494 179 490 C 195 485 214 480 278 466 C 309 459 309 459 325 455 C 366 445 391 439 400 448 C 405 453 400 479 388 525 C 385 539 425 547 430 534 Z"/>
    <path class="bg" d="M 320 576 C 352 570 390 563 434 559 C 440 558 444 555 444 550 C 444 546 439 540 430 534 C 418 527 402 522 388 525 C 384 525 362 532 321 543 C 292 550 292 550 277 554 C 247 561 219 566 195 571 C 186 573 191 599 200 599 C 204 599 208 599 213 598 C 229 593 250 588 276 584 C 305 579 305 579 320 576 Z"/>
    <path class="bg" d="M 319 681 C 359 671 405 661 457 653 C 467 651 473 647 474 643 C 474 634 469 626 457 622 C 439 614 422 613 407 617 C 374 624 345 633 319 640 C 288 647 288 647 273 651 C 185 671 118 682 72 689 C 63 690 58 693 57 699 C 55 705 59 712 69 720 C 93 737 119 743 149 733 C 195 717 235 701 270 693 C 303 685 303 685 319 681 Z"/>
    <path class="bg" d="M 270 693 C 264 767 257 811 254 825 C 247 849 256 878 277 912 C 284 923 289 932 296 934 C 302 935 308 931 312 923 C 320 902 321 882 321 862 C 319 798 319 737 319 681 C 319 681 319 653 319 640 C 319 618 319 596 320 576 C 321 554 321 554 321 543 C 322 507 322 477 325 455 C 327 435 327 435 328 425 C 328 421 329 417 330 415 C 332 407 330 400 326 397 C 315 388 305 381 296 375 C 287 368 256 369 262 379 C 262 379 263 381 265 384 C 272 395 276 414 277 439 C 278 457 278 457 278 466 C 279 492 278 521 277 554 C 276 574 276 574 276 584 C 275 594 273 639 273 651 C 271 679 271 679 270 693 Z"/>
    <path class="bg" d="M 519 291 C 532 306 545 323 560 343 C 566 350 574 356 584 357 C 590 357 595 354 599 347 C 603 339 603 326 601 308 C 599 295 590 283 574 274 C 533 252 509 242 502 245 C 498 246 497 251 497 259 C 497 265 505 275 519 291 Z"/>
    <path class="bg" d="M 807 223 C 794 243 775 270 749 302 C 745 306 743 313 749 317 C 752 319 759 317 765 314 C 818 282 856 256 883 246 C 894 241 899 236 897 230 C 893 218 884 206 872 194 C 859 180 845 173 829 173 C 819 172 814 179 815 193 C 815 201 813 211 807 223 Z"/>
    <path class="bg" d="M 705 447 C 791 427 835 415 837 413 C 843 407 844 401 841 396 C 836 388 823 381 804 377 C 782 372 751 383 705 397 C 670 407 670 407 653 412 C 618 422 581 424 543 430 C 518 433 513 443 533 454 C 561 470 594 472 624 466 C 634 463 645 460 653 459 C 688 451 688 451 705 447 Z"/>
    <path class="bg" d="M 705 592 C 758 585 816 582 917 581 C 929 580 939 578 942 572 C 945 564 941 554 930 546 C 890 517 851 510 815 523 C 778 536 748 540 705 548 C 670 554 670 554 652 557 C 592 567 547 570 478 580 C 464 581 461 587 473 599 C 492 618 517 625 543 618 C 583 607 606 605 652 599 C 687 594 687 594 705 592 Z"/>
    <path class="bg" d="M 652 599 C 652 803 650 917 666 940 C 674 951 684 948 690 934 C 702 899 705 785 705 592 C 705 563 705 563 705 548 C 705 527 705 467 705 447 C 705 414 705 414 705 397 C 705 299 708 225 712 175 C 713 152 719 131 731 112 C 737 101 731 89 718 80 C 701 66 677 56 650 49 C 636 45 626 49 618 58 C 611 64 611 70 620 79 C 639 95 652 116 653 141 C 655 189 653 385 653 412 C 653 443 653 443 653 459 C 653 509 652 541 652 557 C 652 585 652 585 652 599 Z"/>
</g>
<g id="anim-layer">
    <path style="--d:1s; stroke:#FF4444;" pathLength="3333" clip-path="url(#z38781c1)" d="M 99 269 L 497 226"/>
    <path style="--d:2s; stroke:#FF4444;" pathLength="3333" clip-path="url(#z38781c2)" d="M 183 142 L 227 179 L 248 395"/>
    <path style="--d:3s; stroke:#FF4444;" pathLength="3333" clip-path="url(#z38781c3)" d="M 368 70 L 406 114 L 360 326"/>
    <path style="--d:4s; stroke:#FF4444;" pathLength="3333" clip-path="url(#z38781c4)" d="M 265 371 L 400 346"/>
    <path style="--d:5s; stroke:#FF4444;" pathLength="3333" clip-path="url(#z38781c5)" d="M 119 463 L 151 484 L 192 613"/>
    <path style="--d:6s; stroke:#FF4444;" pathLength="3333" clip-path="url(#z38781c6)" d="M 178 465 L 408 423 L 442 455 L 410 529"/>
    <path style="--d:7s; stroke:#FF4444;" pathLength="3333" clip-path="url(#z38781c7)" d="M 203 573 L 436 547"/>
    <path style="--d:8s; stroke:#FF4444;" pathLength="3333" clip-path="url(#z38781c8)" d="M 64 700 L 132 708 L 467 637"/>
    <path style="--d:9s; stroke:#FF4444;" pathLength="3333" clip-path="url(#z38781c9)" d="M 270 381 L 302 410 L 294 929"/>
    <path style="--d:10s; stroke:#000;" pathLength="3333" clip-path="url(#z38781c10)" d="M 505 252 L 590 352"/>
    <path style="--d:11s; stroke:#000;" pathLength="3333" clip-path="url(#z38781c11)" d="M 824 181 L 851 232 L 752 309"/>
    <path style="--d:12s; stroke:#000;" pathLength="3333" clip-path="url(#z38781c12)" d="M 529 440 L 594 446 L 838 400"/>
    <path style="--d:13s; stroke:#000;" pathLength="3333" clip-path="url(#z38781c13)" d="M 474 588 L 848 549 L 938 563"/>
    <path style="--d:14s; stroke:#000;" pathLength="3333" clip-path="url(#z38781c14)" d="M 621 69 L 690 108 L 679 942"/>
</g>
</svg>