<svg id="z38819" class="acjk" viewBox="0 0 1024 1024" xmlns="http://www.w3.org/2000/svg">

<style>
<![CDATA[
@keyframes zk { to { stroke-dashoffset:0; } }
svg.acjk path[clip-path] {
    --t:0.8s;
    animation:zk var(--t) linear forwards var(--d);
    stroke-dasharray:3337;
    stroke-dashoffset:3339;
    stroke-width:128;
    stroke-linecap:round;
    fill:none;
}
/* Low opacity for background improves visual overlap at intersections */
svg.acjk .bg { fill:#ccc; opacity: 0.5; } 
]]>
</style>
<defs>
    <clipPath id="z38819c1"><path d="M 371 255 Q 414 248 450 243 Q 459 244 466 233 Q 466 224 448 216 Q 444 212 430 208 Q 411 202 381 213 C 349 222 349 222 333 226 Q 314 230 298 235 Q 267 242 238 248 C 211 253 211 253 198 255 Q 180 255 99 269 Q 77 272 94 286 Q 121 304 155 297 Q 177 291 204 287 C 228 282 228 282 240 279 Q 280 269 329 262 C 357 257 357 257 371 255 Z"/></clipPath>
    <clipPath id="z38819c2"><path d="M 238 248 Q 238 167 236 164 Q 233 163 233 162 Q 220 153 198 146 Q 180 142 165 151 Q 158 158 169 169 Q 184 184 198 255 C 202 276 202 276 204 287 Q 213 368 223 384 Q 227 391 234 386 Q 237 382 239 373 C 240 358 240 358 241 351 Q 242 332 241 313 Q 240 295 240 279 C 239 258 239 258 238 248 Z"/></clipPath>
    <clipPath id="z38819c3"><path d="M 352 333 Q 361 293 371 255 C 378 227 378 227 381 213 Q 393 149 409 124 Q 413 117 399 102 Q 372 83 354 76 Q 341 72 334 77 Q 327 83 332 96 Q 342 118 342 132 Q 339 177 333 226 C 330 250 330 250 329 262 Q 323 295 317 331 C 315 342 350 344 352 333 Z"/></clipPath>
    <clipPath id="z38819c4"><path d="M 272 371 Q 303 364 364 358 Q 371 357 372 351 Q 372 345 352 333 C 342 327 329 329 317 331 Q 316 331 315 331 Q 275 343 241 351 C 233 352 233 374 241 374 Q 242 374 245 374 C 263 372 263 372 272 371 Z"/></clipPath>
    <clipPath id="z38819c5"><path d="M 156 452 Q 146 448 119 445 Q 109 444 106 448 Q 102 454 110 466 Q 132 502 150 562 Q 154 580 166 591 Q 182 609 185 595 Q 186 588 187 578 C 189 570 186 563 184 555 Q 172 497 168 477 C 166 468 165 455 156 452 Z"/></clipPath>
    <clipPath id="z38819c6"><path d="M 400 525 Q 421 477 442 464 Q 455 451 445 436 Q 388 393 339 414 Q 321 418 305 425 C 275 432 275 432 260 436 Q 208 445 156 452 C 147 454 159 480 168 477 Q 184 471 261 460 C 289 455 289 455 303 452 Q 322 448 342 444 Q 363 440 371 448 Q 377 452 375 464 Q 369 495 361 521 C 357 533 395 537 400 525 Z"/></clipPath>
    <clipPath id="z38819c7"><path d="M 298 564 Q 344 557 410 552 Q 419 551 420 544 Q 420 538 400 525 C 389 518 374 519 361 521 Q 360 520 358 521 Q 327 528 299 535 C 274 540 274 540 261 543 Q 221 549 184 554 Q 183 554 184 555 C 177 558 179 577 187 578 Q 188 578 191 579 Q 198 580 209 579 Q 230 573 260 570 C 285 566 285 566 298 564 Z"/></clipPath>
    <clipPath id="z38819c8"><path d="M 297 668 Q 342 658 399 649 Q 412 648 413 641 Q 414 629 399 622 Q 372 610 297 632 C 270 639 270 639 256 642 Q 163 660 71 675 Q 61 676 58 683 Q 55 692 68 701 Q 105 725 137 713 Q 204 689 254 678 C 283 671 283 671 297 668 Z"/></clipPath>
    <clipPath id="z38819c9"><path d="M 297 632 Q 297 596 298 564 C 299 545 299 545 299 535 Q 300 486 303 452 C 304 434 304 434 305 425 Q 306 418 308 411 Q 311 401 304 394 Q 286 379 272 371 C 264 366 243 365 245 374 Q 244 377 249 383 Q 258 399 260 436 C 261 452 261 452 261 460 Q 261 496 261 543 C 260 561 260 561 260 570 Q 259 588 259 608 Q 258 624 256 642 C 255 666 255 666 254 678 Q 245 786 237 811 Q 228 842 258 889 Q 268 907 275 910 Q 285 911 290 900 Q 302 872 299 844 Q 298 751 297 668 C 297 644 297 644 297 632 Z"/></clipPath>
    <clipPath id="z38819c10"><path d="M 664 233 Q 754 161 785 154 Q 801 148 796 135 Q 795 122 740 91 Q 724 82 650 108 Q 572 132 527 131 Q 508 130 514 147 Q 521 157 536 167 Q 561 180 589 165 Q 689 119 705 128 Q 715 134 711 144 Q 683 181 652 224 C 649 228 660 236 664 233 Z"/></clipPath>
    <clipPath id="z38819c11"><path d="M 678 278 Q 679 268 676 249 Q 675 240 664 233 C 656 227 656 227 652 224 C 652 223 652 223 652 223 Q 601 202 592 206 Q 588 207 589 217 Q 590 224 608 240 Q 627 258 647 279 Q 648 280 651 283 C 657 289 678 287 678 278 Z"/></clipPath>
    <clipPath id="z38819c12"><path d="M 659 308 Q 702 298 751 292 Q 778 288 781 299 Q 780 309 757 351 Q 750 363 756 367 Q 760 371 773 362 Q 837 323 861 317 Q 880 316 881 304 Q 880 294 819 258 Q 801 249 778 254 Q 724 266 678 278 C 660 281 660 281 651 283 Q 488 305 456 310 Q 432 311 450 332 Q 463 348 504 338 Q 553 326 604 319 C 641 312 641 312 659 308 Z"/></clipPath>
    <clipPath id="z38819c13"><path d="M 645 336 Q 666 357 661 403 Q 660 422 653 434 Q 646 450 624 448 Q 608 447 593 446 Q 586 445 589 452 Q 592 456 603 464 Q 625 483 634 498 Q 641 510 653 507 Q 662 506 678 486 Q 706 449 698 382 Q 691 322 659 308 C 649 304 639 328 645 336 Z"/></clipPath>
    <clipPath id="z38819c14"><path d="M 604 319 Q 585 388 457 482 Q 444 492 456 494 Q 465 495 495 481 Q 526 469 553 448 Q 577 429 604 396 Q 607 392 645 336 C 675 296 614 270 604 319 Z"/></clipPath>
    <clipPath id="z38819c15"><path d="M 664 584 Q 725 577 878 576 Q 894 576 899 569 Q 903 559 889 548 Q 847 515 791 528 Q 736 538 661 551 C 627 556 627 556 610 559 Q 529 569 438 582 Q 422 583 434 598 Q 461 622 491 614 Q 531 602 578 596 C 635 588 635 588 664 584 Z"/></clipPath>
    <clipPath id="z38819c16"><path d="M 661 551 Q 662 542 656 538 Q 635 520 619 512 Q 609 508 600 515 Q 594 518 601 527 Q 608 537 610 559 C 611 606 611 606 611 630 Q 610 655 610 687 Q 604 810 596 831 Q 587 862 618 910 Q 628 926 635 930 Q 645 931 650 919 Q 660 891 658 864 Q 655 752 655 609 C 659 570 659 570 661 551 Z"/></clipPath>
    <clipPath id="z38819c17"><path d="M 578 596 Q 545 689 373 810 Q 358 820 372 822 Q 382 823 415 809 Q 455 794 493 766 Q 526 741 562 698 Q 592 665 609 634 Q 610 631 611 630 C 632 595 593 559 578 596 Z"/></clipPath>
    <clipPath id="z38819c18"><path d="M 655 609 Q 719 700 803 798 Q 819 814 845 813 Q 935 807 963 801 Q 970 800 972 795 Q 972 791 961 784 Q 832 733 769 680 Q 718 637 664 584 C 651 571 644 594 655 609 Z"/></clipPath>
</defs>
<g id="bg-layer">
    <path class="bg" d="M 371 255 Q 414 248 450 243 Q 459 244 466 233 Q 466 224 448 216 Q 444 212 430 208 Q 411 202 381 213 C 349 222 349 222 333 226 Q 314 230 298 235 Q 267 242 238 248 C 211 253 211 253 198 255 Q 180 255 99 269 Q 77 272 94 286 Q 121 304 155 297 Q 177 291 204 287 C 228 282 228 282 240 279 Q 280 269 329 262 C 357 257 357 257 371 255 Z"/>
    <path class="bg" d="M 238 248 Q 238 167 236 164 Q 233 163 233 162 Q 220 153 198 146 Q 180 142 165 151 Q 158 158 169 169 Q 184 184 198 255 C 202 276 202 276 204 287 Q 213 368 223 384 Q 227 391 234 386 Q 237 382 239 373 C 240 358 240 358 241 351 Q 242 332 241 313 Q 240 295 240 279 C 239 258 239 258 238 248 Z"/>
    <path class="bg" d="M 352 333 Q 361 293 371 255 C 378 227 378 227 381 213 Q 393 149 409 124 Q 413 117 399 102 Q 372 83 354 76 Q 341 72 334 77 Q 327 83 332 96 Q 342 118 342 132 Q 339 177 333 226 C 330 250 330 250 329 262 Q 323 295 317 331 C 315 342 350 344 352 333 Z"/>
    <path class="bg" d="M 272 371 Q 303 364 364 358 Q 371 357 372 351 Q 372 345 352 333 C 342 327 329 329 317 331 Q 316 331 315 331 Q 275 343 241 351 C 233 352 233 374 241 374 Q 242 374 245 374 C 263 372 263 372 272 371 Z"/>
    <path class="bg" d="M 156 452 Q 146 448 119 445 Q 109 444 106 448 Q 102 454 110 466 Q 132 502 150 562 Q 154 580 166 591 Q 182 609 185 595 Q 186 588 187 578 C 189 570 186 563 184 555 Q 172 497 168 477 C 166 468 165 455 156 452 Z"/>
    <path class="bg" d="M 400 525 Q 421 477 442 464 Q 455 451 445 436 Q 388 393 339 414 Q 321 418 305 425 C 275 432 275 432 260 436 Q 208 445 156 452 C 147 454 159 480 168 477 Q 184 471 261 460 C 289 455 289 455 303 452 Q 322 448 342 444 Q 363 440 371 448 Q 377 452 375 464 Q 369 495 361 521 C 357 533 395 537 400 525 Z"/>
    <path class="bg" d="M 298 564 Q 344 557 410 552 Q 419 551 420 544 Q 420 538 400 525 C 389 518 374 519 361 521 Q 360 520 358 521 Q 327 528 299 535 C 274 540 274 540 261 543 Q 221 549 184 554 Q 183 554 184 555 C 177 558 179 577 187 578 Q 188 578 191 579 Q 198 580 209 579 Q 230 573 260 570 C 285 566 285 566 298 564 Z"/>
    <path class="bg" d="M 297 668 Q 342 658 399 649 Q 412 648 413 641 Q 414 629 399 622 Q 372 610 297 632 C 270 639 270 639 256 642 Q 163 660 71 675 Q 61 676 58 683 Q 55 692 68 701 Q 105 725 137 713 Q 204 689 254 678 C 283 671 283 671 297 668 Z"/>
    <path class="bg" d="M 297 632 Q 297 596 298 564 C 299 545 299 545 299 535 Q 300 486 303 452 C 304 434 304 434 305 425 Q 306 418 308 411 Q 311 401 304 394 Q 286 379 272 371 C 264 366 243 365 245 374 Q 244 377 249 383 Q 258 399 260 436 C 261 452 261 452 261 460 Q 261 496 261 543 C 260 561 260 561 260 570 Q 259 588 259 608 Q 258 624 256 642 C 255 666 255 666 254 678 Q 245 786 237 811 Q 228 842 258 889 Q 268 907 275 910 Q 285 911 290 900 Q 302 872 299 844 Q 298 751 297 668 C 297 644 297 644 297 632 Z"/>
    <path class="bg" d="M 664 233 Q 754 161 785 154 Q 801 148 796 135 Q 795 122 740 91 Q 724 82 650 108 Q 572 132 527 131 Q 508 130 514 147 Q 521 157 536 167 Q 561 180 589 165 Q 689 119 705 128 Q 715 134 711 144 Q 683 181 652 224 C 649 228 660 236 664 233 Z"/>
    <path class="bg" d="M 678 278 Q 679 268 676 249 Q 675 240 664 233 C 656 227 656 227 652 224 C 652 223 652 223 652 223 Q 601 202 592 206 Q 588 207 589 217 Q 590 224 608 240 Q 627 258 647 279 Q 648 280 651 283 C 657 289 678 287 678 278 Z"/>
    <path class="bg" d="M 659 308 Q 702 298 751 292 Q 778 288 781 299 Q 780 309 757 351 Q 750 363 756 367 Q 760 371 773 362 Q 837 323 861 317 Q 880 316 881 304 Q 880 294 819 258 Q 801 249 778 254 Q 724 266 678 278 C 660 281 660 281 651 283 Q 488 305 456 310 Q 432 311 450 332 Q 463 348 504 338 Q 553 326 604 319 C 641 312 641 312 659 308 Z"/>
    <path class="bg" d="M 645 336 Q 666 357 661 403 Q 660 422 653 434 Q 646 450 624 448 Q 608 447 593 446 Q 586 445 589 452 Q 592 456 603 464 Q 625 483 634 498 Q 641 510 653 507 Q 662 506 678 486 Q 706 449 698 382 Q 691 322 659 308 C 649 304 639 328 645 336 Z"/>
    <path class="bg" d="M 604 319 Q 585 388 457 482 Q 444 492 456 494 Q 465 495 495 481 Q 526 469 553 448 Q 577 429 604 396 Q 607 392 645 336 C 675 296 614 270 604 319 Z"/>
    <path class="bg" d="M 664 584 Q 725 577 878 576 Q 894 576 899 569 Q 903 559 889 548 Q 847 515 791 528 Q 736 538 661 551 C 627 556 627 556 610 559 Q 529 569 438 582 Q 422 583 434 598 Q 461 622 491 614 Q 531 602 578 596 C 635 588 635 588 664 584 Z"/>
    <path class="bg" d="M 661 551 Q 662 542 656 538 Q 635 520 619 512 Q 609 508 600 515 Q 594 518 601 527 Q 608 537 610 559 C 611 606 611 606 611 630 Q 610 655 610 687 Q 604 810 596 831 Q 587 862 618 910 Q 628 926 635 930 Q 645 931 650 919 Q 660 891 658 864 Q 655 752 655 609 C 659 570 659 570 661 551 Z"/>
    <path class="bg" d="M 578 596 Q 545 689 373 810 Q 358 820 372 822 Q 382 823 415 809 Q 455 794 493 766 Q 526 741 562 698 Q 592 665 609 634 Q 610 631 611 630 C 632 595 593 559 578 596 Z"/>
    <path class="bg" d="M 655 609 Q 719 700 803 798 Q 819 814 845 813 Q 935 807 963 801 Q 970 800 972 795 Q 972 791 961 784 Q 832 733 769 680 Q 718 637 664 584 C 651 571 644 594 655 609 Z"/>
</g>
<g id="anim-layer">
    <path style="--d:1s; stroke:#FF4444;" pathLength="3333" clip-path="url(#z38819c1)" d="M 93 274 L 459 229"/>
    <path style="--d:2s; stroke:#FF4444;" pathLength="3333" clip-path="url(#z38819c2)" d="M 169 155 L 210 182 L 229 380"/>
    <path style="--d:3s; stroke:#FF4444;" pathLength="3333" clip-path="url(#z38819c3)" d="M 339 84 L 375 125 L 328 329"/>
    <path style="--d:4s; stroke:#FF4444;" pathLength="3333" clip-path="url(#z38819c4)" d="M 245 366 L 366 351"/>
    <path style="--d:5s; stroke:#FF4444;" pathLength="3333" clip-path="url(#z38819c5)" d="M 112 451 L 144 480 L 175 594"/>
    <path style="--d:6s; stroke:#FF4444;" pathLength="3333" clip-path="url(#z38819c6)" d="M 165 453 L 370 425 L 412 457 L 375 522"/>
    <path style="--d:7s; stroke:#FF4444;" pathLength="3333" clip-path="url(#z38819c7)" d="M 190 556 L 414 544"/>
    <path style="--d:8s; stroke:#FF4444;" pathLength="3333" clip-path="url(#z38819c8)" d="M 62 684 L 125 691 L 406 633"/>
    <path style="--d:9s; stroke:#FF4444;" pathLength="3333" clip-path="url(#z38819c9)" d="M 254 377 L 283 407 L 280 906"/>
    <path style="--d:10s; stroke:#000;" pathLength="3333" clip-path="url(#z38819c10)" d="M 520 140 L 569 149 L 729 114 L 754 143 L 659 226"/>
    <path style="--d:11s; stroke:#000;" pathLength="3333" clip-path="url(#z38819c11)" d="M 597 212 L 663 280"/>
    <path style="--d:12s; stroke:#000;" pathLength="3333" clip-path="url(#z38819c12)" d="M 449 318 L 788 274 L 826 317 L 759 361"/>
    <path style="--d:13s; stroke:#000;" pathLength="3333" clip-path="url(#z38819c13)" d="M 661 315 L 680 380 L 671 450 L 642 477 L 595 451"/>
    <path style="--d:14s; stroke:#000;" pathLength="3333" clip-path="url(#z38819c14)" d="M 649 314 L 544 433 L 458 485"/>
    <path style="--d:15s; stroke:#000;" pathLength="3333" clip-path="url(#z38819c15)" d="M 435 588 L 805 551 L 895 561"/>
    <path style="--d:16s; stroke:#000;" pathLength="3333" clip-path="url(#z38819c16)" d="M 606 519 L 635 555 L 637 920"/>
    <path style="--d:17s; stroke:#000;" pathLength="3333" clip-path="url(#z38819c17)" d="M 605 600 L 494 740 L 375 814"/>
    <path style="--d:18s; stroke:#000;" pathLength="3333" clip-path="url(#z38819c18)" d="M 662 590 L 827 766 L 966 792"/>
</g>
</svg>