<svg id="z38913" class="acjk" viewBox="0 0 1024 1024" xmlns="http://www.w3.org/2000/svg">

<style>
<![CDATA[
@keyframes zk { to { stroke-dashoffset:0; } }
svg.acjk path[clip-path] {
    --t:0.8s;
    animation:zk var(--t) linear forwards var(--d);
    stroke-dasharray:3337;
    stroke-dashoffset:3339;
    stroke-width:128;
    stroke-linecap:round;
    fill:none;
}
/* Low opacity for background improves visual overlap at intersections */
svg.acjk .bg { fill:#ccc; opacity: 0.5; } 
]]>
</style>
<defs>
    <clipPath id="z38913c1"><path d="M 486 145 C 497 143 547 134 639 132 C 661 131 741 130 877 130 C 891 129 899 127 903 121 C 907 113 903 104 892 95 C 849 60 816 58 786 65 C 657 94 463 113 209 141 C 194 142 191 148 203 161 C 212 171 224 177 236 181 C 250 185 263 186 275 183 C 327 168 384 157 445 150 C 472 147 472 147 486 145 Z"/></clipPath>
    <clipPath id="z38913c2"><path d="M 431 297 Q 450 275 464 259 Q 516 196 526 190 Q 542 175 528 163 Q 512 151 486 145 C 472 142 442 136 445 150 Q 444 153 448 159 Q 457 183 403 300 C 400 309 425 305 431 297 Z"/></clipPath>
    <clipPath id="z38913c3"><path d="M 358 303 C 352 298 345 294 337 292 C 330 289 323 289 315 292 C 310 294 309 300 313 310 C 335 372 341 461 331 578 C 325 636 319 680 331 702 C 334 708 339 715 345 723 C 351 731 359 732 367 723 C 373 714 377 705 378 695 C 380 672 380 672 381 660 C 381 653 382 623 382 570 C 382 553 382 553 382 544 C 382 507 383 476 383 450 C 383 433 383 433 383 424 C 383 383 384 360 385 356 C 385 347 386 340 386 334 C 386 320 369 311 358 303 Z"/></clipPath>
    <clipPath id="z38913c4"><path d="M 662 670 C 662 676 667 682 672 691 C 684 712 691 722 698 722 C 708 720 718 708 731 684 C 740 664 747 647 746 632 C 738 571 734 493 734 397 C 734 369 740 343 756 320 C 762 309 764 298 758 292 C 739 273 711 258 677 244 C 666 239 652 241 635 248 C 584 267 517 287 431 297 C 412 299 412 299 403 300 C 386 301 371 301 358 303 C 344 305 372 334 386 334 C 387 336 391 333 394 333 C 478 313 550 298 611 289 C 631 285 645 289 653 300 C 663 314 669 345 670 394 C 672 532 670 630 663 644 C 660 652 660 661 662 670 Z"/></clipPath>
    <clipPath id="z38913c5"><path d="M 383 450 Q 393 453 410 451 Q 522 432 605 421 Q 630 418 621 404 Q 611 388 583 383 Q 562 380 383 424 C 374 425 375 448 383 450 Z"/></clipPath>
    <clipPath id="z38913c6"><path d="M 382 570 Q 392 573 410 571 Q 525 555 609 545 Q 634 542 625 528 Q 615 512 588 507 Q 563 503 519 513 Q 446 529 382 544 C 373 545 374 568 382 570 Z"/></clipPath>
    <clipPath id="z38913c7"><path d="M 378 695 Q 468 680 662 670 C 671 670 669 650 663 644 Q 656 638 646 631 Q 630 621 600 627 Q 479 649 381 660 C 370 662 367 697 378 695 Z"/></clipPath>
    <clipPath id="z38913c8"><path d="M 399 741 C 388 787 323 854 199 939 C 182 949 184 951 204 952 C 252 952 335 904 419 837 C 432 826 459 801 476 787 C 484 779 487 771 487 764 C 485 754 476 746 457 738 C 435 728 421 724 412 726 C 406 727 401 731 399 741 Z"/></clipPath>
    <clipPath id="z38913c9"><path d="M 615 768 C 653 812 694 865 738 929 C 749 945 759 956 770 961 C 776 963 782 959 789 953 C 798 943 800 923 797 889 C 792 845 735 793 621 733 C 613 729 609 730 607 740 C 604 749 607 759 615 768 Z"/></clipPath>
</defs>
<g id="bg-layer">
    <path class="bg" d="M 486 145 C 497 143 547 134 639 132 C 661 131 741 130 877 130 C 891 129 899 127 903 121 C 907 113 903 104 892 95 C 849 60 816 58 786 65 C 657 94 463 113 209 141 C 194 142 191 148 203 161 C 212 171 224 177 236 181 C 250 185 263 186 275 183 C 327 168 384 157 445 150 C 472 147 472 147 486 145 Z"/>
    <path class="bg" d="M 431 297 Q 450 275 464 259 Q 516 196 526 190 Q 542 175 528 163 Q 512 151 486 145 C 472 142 442 136 445 150 Q 444 153 448 159 Q 457 183 403 300 C 400 309 425 305 431 297 Z"/>
    <path class="bg" d="M 358 303 C 352 298 345 294 337 292 C 330 289 323 289 315 292 C 310 294 309 300 313 310 C 335 372 341 461 331 578 C 325 636 319 680 331 702 C 334 708 339 715 345 723 C 351 731 359 732 367 723 C 373 714 377 705 378 695 C 380 672 380 672 381 660 C 381 653 382 623 382 570 C 382 553 382 553 382 544 C 382 507 383 476 383 450 C 383 433 383 433 383 424 C 383 383 384 360 385 356 C 385 347 386 340 386 334 C 386 320 369 311 358 303 Z"/>
    <path class="bg" d="M 662 670 C 662 676 667 682 672 691 C 684 712 691 722 698 722 C 708 720 718 708 731 684 C 740 664 747 647 746 632 C 738 571 734 493 734 397 C 734 369 740 343 756 320 C 762 309 764 298 758 292 C 739 273 711 258 677 244 C 666 239 652 241 635 248 C 584 267 517 287 431 297 C 412 299 412 299 403 300 C 386 301 371 301 358 303 C 344 305 372 334 386 334 C 387 336 391 333 394 333 C 478 313 550 298 611 289 C 631 285 645 289 653 300 C 663 314 669 345 670 394 C 672 532 670 630 663 644 C 660 652 660 661 662 670 Z"/>
    <path class="bg" d="M 383 450 Q 393 453 410 451 Q 522 432 605 421 Q 630 418 621 404 Q 611 388 583 383 Q 562 380 383 424 C 374 425 375 448 383 450 Z"/>
    <path class="bg" d="M 382 570 Q 392 573 410 571 Q 525 555 609 545 Q 634 542 625 528 Q 615 512 588 507 Q 563 503 519 513 Q 446 529 382 544 C 373 545 374 568 382 570 Z"/>
    <path class="bg" d="M 378 695 Q 468 680 662 670 C 671 670 669 650 663 644 Q 656 638 646 631 Q 630 621 600 627 Q 479 649 381 660 C 370 662 367 697 378 695 Z"/>
    <path class="bg" d="M 399 741 C 388 787 323 854 199 939 C 182 949 184 951 204 952 C 252 952 335 904 419 837 C 432 826 459 801 476 787 C 484 779 487 771 487 764 C 485 754 476 746 457 738 C 435 728 421 724 412 726 C 406 727 401 731 399 741 Z"/>
    <path class="bg" d="M 615 768 C 653 812 694 865 738 929 C 749 945 759 956 770 961 C 776 963 782 959 789 953 C 798 943 800 923 797 889 C 792 845 735 793 621 733 C 613 729 609 730 607 740 C 604 749 607 759 615 768 Z"/>
</g>
<g id="anim-layer">
    <path style="--d:1s; stroke:#FF4444;" pathLength="3333" clip-path="url(#z38913c1)" d="M 205 151 L 807 94 L 900 113"/>
    <path style="--d:2s; stroke:#000;" pathLength="3333" clip-path="url(#z38913c2)" d="M 453 156 L 488 187 L 414 297"/>
    <path style="--d:3s; stroke:#000;" pathLength="3333" clip-path="url(#z38913c3)" d="M 320 299 L 356 359 L 353 725"/>
    <path style="--d:4s; stroke:#000;" pathLength="3333" clip-path="url(#z38913c4)" d="M 366 304 L 406 315 L 651 266 L 699 297 L 714 325 L 698 717"/>
    <path style="--d:5s; stroke:#000;" pathLength="3333" clip-path="url(#z38913c5)" d="M 391 443 L 617 406"/>
    <path style="--d:6s; stroke:#000;" pathLength="3333" clip-path="url(#z38913c6)" d="M 389 563 L 621 533"/>
    <path style="--d:7s; stroke:#000;" pathLength="3333" clip-path="url(#z38913c7)" d="M 385 687 L 661 656"/>
    <path style="--d:8s; stroke:#000;" pathLength="3333" clip-path="url(#z38913c8)" d="M 410 734 L 437 774 L 344 861 L 200 947"/>
    <path style="--d:9s; stroke:#000;" pathLength="3333" clip-path="url(#z38913c9)" d="M 614 736 L 747 871 L 783 955"/>
</g>
</svg>