<svg id="z39073" class="acjk" viewBox="0 0 1024 1024" xmlns="http://www.w3.org/2000/svg">

<style>
<![CDATA[
@keyframes zk { to { stroke-dashoffset:0; } }
svg.acjk path[clip-path] {
    --t:0.8s;
    animation:zk var(--t) linear forwards var(--d);
    stroke-dasharray:3337;
    stroke-dashoffset:3339;
    stroke-width:128;
    stroke-linecap:round;
    fill:none;
}
/* Low opacity for background improves visual overlap at intersections */
svg.acjk .bg { fill:#ccc; opacity: 0.5; } 
]]>
</style>
<defs>
    <clipPath id="z39073c1"><path d="M 399 233 Q 417 214 436 191 Q 452 167 480 144 Q 493 135 488 127 Q 487 120 436 101 Q 421 94 384 115 Q 311 139 258 148 Q 242 151 254 162 Q 273 177 349 156 Q 385 147 391 152 Q 394 158 385 172 Q 373 194 355 219 C 339 239 339 239 331 249 Q 303 279 253 320 Q 241 330 253 330 Q 274 330 364 267 C 387 244 387 244 399 233 Z"/></clipPath>
    <clipPath id="z39073c2"><path d="M 364 267 Q 419 301 431 302 Q 437 302 440 294 Q 446 284 430 258 Q 418 237 399 233 C 370 224 370 224 355 219 Q 337 210 276 203 Q 269 202 270 209 Q 271 218 281 222 Q 305 234 331 249 C 353 261 353 261 364 267 Z"/></clipPath>
    <clipPath id="z39073c3"><path d="M 273 465 Q 292 438 316 401 Q 325 385 333 377 Q 343 370 338 362 Q 331 352 304 342 Q 289 333 242 353 Q 161 368 142 371 Q 132 371 132 378 Q 131 382 142 388 Q 176 406 197 398 Q 260 376 266 377 Q 273 380 265 395 Q 249 426 235 449 C 221 468 221 468 214 478 Q 163 527 137 546 Q 125 553 133 556 Q 166 562 237 503 Q 238 502 242 499 C 263 476 263 476 273 465 Z"/></clipPath>
    <clipPath id="z39073c4"><path d="M 242 499 Q 254 506 266 517 Q 276 527 287 529 Q 293 529 296 522 Q 303 513 291 487 Q 285 474 273 465 C 248 454 248 454 235 449 Q 228 442 168 428 Q 162 425 162 433 Q 163 442 170 447 Q 191 460 214 478 C 233 492 233 492 242 499 Z"/></clipPath>
    <clipPath id="z39073c5"><path d="M 459 446 Q 480 421 506 374 Q 513 358 521 351 Q 531 344 525 336 Q 518 327 492 318 Q 476 311 463 318 Q 450 325 426 333 Q 399 339 359 344 Q 349 345 349 351 Q 348 355 359 361 Q 392 377 410 369 Q 453 353 457 352 Q 464 353 457 371 Q 441 408 427 431 C 414 449 414 449 407 458 Q 389 477 364 498 Q 354 507 361 508 Q 379 511 429 475 C 449 456 449 456 459 446 Z"/></clipPath>
    <clipPath id="z39073c6"><path d="M 429 475 Q 495 523 499 525 Q 505 525 508 518 Q 515 509 503 483 Q 497 462 459 446 C 438 436 438 436 427 431 Q 381 412 356 404 Q 350 401 350 409 Q 351 418 358 423 Q 380 438 407 458 C 422 469 422 469 429 475 Z"/></clipPath>
    <clipPath id="z39073c7"><path d="M 370 606 Q 428 594 501 586 Q 517 585 517 577 Q 518 565 502 557 Q 478 547 458 551 Q 412 561 373 570 C 342 576 342 576 327 579 Q 168 607 105 613 Q 93 614 90 621 Q 87 631 101 641 Q 137 668 173 655 Q 237 636 290 623 C 343 612 343 612 370 606 Z"/></clipPath>
    <clipPath id="z39073c8"><path d="M 326 658 Q 326 784 311 831 Q 302 861 331 906 Q 341 922 347 926 Q 357 927 361 916 Q 371 889 369 863 Q 366 662 370 606 C 372 582 372 582 373 570 Q 374 564 375 561 Q 376 551 371 545 Q 352 529 336 520 Q 326 516 318 523 Q 312 526 319 534 Q 326 544 327 579 C 326 632 326 632 326 658 Z"/></clipPath>
    <clipPath id="z39073c9"><path d="M 290 623 Q 259 713 74 837 Q 58 847 72 850 Q 82 851 119 838 Q 162 823 201 795 Q 235 768 274 726 Q 305 692 324 661 Q 324 660 326 658 C 349 619 307 581 290 623 Z"/></clipPath>
    <clipPath id="z39073c10"><path d="M 424 702 Q 448 724 472 751 Q 482 761 496 762 Q 505 762 509 751 Q 513 739 508 715 Q 502 688 422 663 Q 409 659 404 661 Q 400 665 400 675 Q 403 685 424 702 Z"/></clipPath>
    <clipPath id="z39073c11"><path d="M 668 210 Q 773 189 885 178 Q 895 179 905 166 Q 906 154 883 144 Q 855 123 767 147 Q 662 168 544 183 Q 516 187 538 204 Q 568 231 601 222 Q 617 218 637 216 C 658 212 658 212 668 210 Z"/></clipPath>
    <clipPath id="z39073c12"><path d="M 624 346 Q 640 334 677 282 Q 683 273 694 262 Q 707 252 700 243 Q 693 228 668 210 C 659 205 635 206 637 216 Q 646 240 618 315 Q 606 342 610 348 C 611 353 620 349 624 346 Z"/></clipPath>
    <clipPath id="z39073c13"><path d="M 598 350 Q 580 337 560 332 Q 553 331 547 338 Q 544 342 551 352 Q 588 436 566 589 Q 554 638 559 655 Q 569 683 579 693 Q 589 705 596 692 Q 614 671 615 543 Q 606 437 614 376 C 616 366 606 356 598 350 Z"/></clipPath>
    <clipPath id="z39073c14"><path d="M 787 635 Q 780 657 793 676 Q 806 703 814 702 Q 827 701 841 671 Q 854 647 853 628 Q 826 421 862 365 Q 880 338 799 303 Q 795 302 793 301 Q 778 295 756 304 Q 720 322 675 335 Q 647 342 624 346 C 615 347 615 347 610 348 Q 604 348 598 350 C 588 352 604 378 614 376 Q 621 376 698 358 Q 762 340 777 350 Q 787 371 792 428 Q 796 602 787 635 Z"/></clipPath>
    <clipPath id="z39073c15"><path d="M 674 497 Q 681 710 616 791 Q 606 801 594 813 Q 566 840 500 875 Q 488 879 486 883 Q 482 887 496 890 Q 535 894 620 844 Q 722 778 724 561 Q 724 510 737 468 Q 741 458 733 451 Q 717 438 684 425 Q 665 418 650 423 Q 632 430 647 445 Q 672 470 674 497 Z"/></clipPath>
    <clipPath id="z39073c16"><path d="M 745 756 Q 791 811 845 888 Q 858 910 872 916 Q 881 919 889 910 Q 902 898 896 854 Q 893 802 750 726 Q 743 719 739 731 Q 736 744 745 756 Z"/></clipPath>
</defs>
<g id="bg-layer">
    <path class="bg" d="M 399 233 Q 417 214 436 191 Q 452 167 480 144 Q 493 135 488 127 Q 487 120 436 101 Q 421 94 384 115 Q 311 139 258 148 Q 242 151 254 162 Q 273 177 349 156 Q 385 147 391 152 Q 394 158 385 172 Q 373 194 355 219 C 339 239 339 239 331 249 Q 303 279 253 320 Q 241 330 253 330 Q 274 330 364 267 C 387 244 387 244 399 233 Z"/>
    <path class="bg" d="M 364 267 Q 419 301 431 302 Q 437 302 440 294 Q 446 284 430 258 Q 418 237 399 233 C 370 224 370 224 355 219 Q 337 210 276 203 Q 269 202 270 209 Q 271 218 281 222 Q 305 234 331 249 C 353 261 353 261 364 267 Z"/>
    <path class="bg" d="M 273 465 Q 292 438 316 401 Q 325 385 333 377 Q 343 370 338 362 Q 331 352 304 342 Q 289 333 242 353 Q 161 368 142 371 Q 132 371 132 378 Q 131 382 142 388 Q 176 406 197 398 Q 260 376 266 377 Q 273 380 265 395 Q 249 426 235 449 C 221 468 221 468 214 478 Q 163 527 137 546 Q 125 553 133 556 Q 166 562 237 503 Q 238 502 242 499 C 263 476 263 476 273 465 Z"/>
    <path class="bg" d="M 242 499 Q 254 506 266 517 Q 276 527 287 529 Q 293 529 296 522 Q 303 513 291 487 Q 285 474 273 465 C 248 454 248 454 235 449 Q 228 442 168 428 Q 162 425 162 433 Q 163 442 170 447 Q 191 460 214 478 C 233 492 233 492 242 499 Z"/>
    <path class="bg" d="M 459 446 Q 480 421 506 374 Q 513 358 521 351 Q 531 344 525 336 Q 518 327 492 318 Q 476 311 463 318 Q 450 325 426 333 Q 399 339 359 344 Q 349 345 349 351 Q 348 355 359 361 Q 392 377 410 369 Q 453 353 457 352 Q 464 353 457 371 Q 441 408 427 431 C 414 449 414 449 407 458 Q 389 477 364 498 Q 354 507 361 508 Q 379 511 429 475 C 449 456 449 456 459 446 Z"/>
    <path class="bg" d="M 429 475 Q 495 523 499 525 Q 505 525 508 518 Q 515 509 503 483 Q 497 462 459 446 C 438 436 438 436 427 431 Q 381 412 356 404 Q 350 401 350 409 Q 351 418 358 423 Q 380 438 407 458 C 422 469 422 469 429 475 Z"/>
    <path class="bg" d="M 370 606 Q 428 594 501 586 Q 517 585 517 577 Q 518 565 502 557 Q 478 547 458 551 Q 412 561 373 570 C 342 576 342 576 327 579 Q 168 607 105 613 Q 93 614 90 621 Q 87 631 101 641 Q 137 668 173 655 Q 237 636 290 623 C 343 612 343 612 370 606 Z"/>
    <path class="bg" d="M 326 658 Q 326 784 311 831 Q 302 861 331 906 Q 341 922 347 926 Q 357 927 361 916 Q 371 889 369 863 Q 366 662 370 606 C 372 582 372 582 373 570 Q 374 564 375 561 Q 376 551 371 545 Q 352 529 336 520 Q 326 516 318 523 Q 312 526 319 534 Q 326 544 327 579 C 326 632 326 632 326 658 Z"/>
    <path class="bg" d="M 290 623 Q 259 713 74 837 Q 58 847 72 850 Q 82 851 119 838 Q 162 823 201 795 Q 235 768 274 726 Q 305 692 324 661 Q 324 660 326 658 C 349 619 307 581 290 623 Z"/>
    <path class="bg" d="M 424 702 Q 448 724 472 751 Q 482 761 496 762 Q 505 762 509 751 Q 513 739 508 715 Q 502 688 422 663 Q 409 659 404 661 Q 400 665 400 675 Q 403 685 424 702 Z"/>
    <path class="bg" d="M 668 210 Q 773 189 885 178 Q 895 179 905 166 Q 906 154 883 144 Q 855 123 767 147 Q 662 168 544 183 Q 516 187 538 204 Q 568 231 601 222 Q 617 218 637 216 C 658 212 658 212 668 210 Z"/>
    <path class="bg" d="M 624 346 Q 640 334 677 282 Q 683 273 694 262 Q 707 252 700 243 Q 693 228 668 210 C 659 205 635 206 637 216 Q 646 240 618 315 Q 606 342 610 348 C 611 353 620 349 624 346 Z"/>
    <path class="bg" d="M 598 350 Q 580 337 560 332 Q 553 331 547 338 Q 544 342 551 352 Q 588 436 566 589 Q 554 638 559 655 Q 569 683 579 693 Q 589 705 596 692 Q 614 671 615 543 Q 606 437 614 376 C 616 366 606 356 598 350 Z"/>
    <path class="bg" d="M 787 635 Q 780 657 793 676 Q 806 703 814 702 Q 827 701 841 671 Q 854 647 853 628 Q 826 421 862 365 Q 880 338 799 303 Q 795 302 793 301 Q 778 295 756 304 Q 720 322 675 335 Q 647 342 624 346 C 615 347 615 347 610 348 Q 604 348 598 350 C 588 352 604 378 614 376 Q 621 376 698 358 Q 762 340 777 350 Q 787 371 792 428 Q 796 602 787 635 Z"/>
    <path class="bg" d="M 674 497 Q 681 710 616 791 Q 606 801 594 813 Q 566 840 500 875 Q 488 879 486 883 Q 482 887 496 890 Q 535 894 620 844 Q 722 778 724 561 Q 724 510 737 468 Q 741 458 733 451 Q 717 438 684 425 Q 665 418 650 423 Q 632 430 647 445 Q 672 470 674 497 Z"/>
    <path class="bg" d="M 745 756 Q 791 811 845 888 Q 858 910 872 916 Q 881 919 889 910 Q 902 898 896 854 Q 893 802 750 726 Q 743 719 739 731 Q 736 744 745 756 Z"/>
</g>
<g id="anim-layer">
    <path style="--d:1s; stroke:#FF4444;" pathLength="3333" clip-path="url(#z39073c1)" d="M 256 153 L 405 126 L 439 148 L 349 256 L 256 325"/>
    <path style="--d:2s; stroke:#FF4444;" pathLength="3333" clip-path="url(#z39073c2)" d="M 278 210 L 437 291"/>
    <path style="--d:3s; stroke:#FF4444;" pathLength="3333" clip-path="url(#z39073c3)" d="M 144 379 L 277 358 L 303 379 L 235 480 L 139 549"/>
    <path style="--d:4s; stroke:#FF4444;" pathLength="3333" clip-path="url(#z39073c4)" d="M 168 433 L 262 485 L 289 524"/>
    <path style="--d:5s; stroke:#FF4444;" pathLength="3333" clip-path="url(#z39073c5)" d="M 356 350 L 461 334 L 492 348 L 437 445 L 369 505"/>
    <path style="--d:6s; stroke:#FF4444;" pathLength="3333" clip-path="url(#z39073c6)" d="M 357 411 L 506 515"/>
    <path style="--d:7s; stroke:#FF4444;" pathLength="3333" clip-path="url(#z39073c7)" d="M 97 621 L 152 633 L 460 570 L 512 577"/>
    <path style="--d:8s; stroke:#FF4444;" pathLength="3333" clip-path="url(#z39073c8)" d="M 321 523 L 350 555 L 345 918"/>
    <path style="--d:9s; stroke:#FF4444;" pathLength="3333" clip-path="url(#z39073c9)" d="M 321 622 L 202 767 L 73 843"/>
    <path style="--d:10s; stroke:#FF4444;" pathLength="3333" clip-path="url(#z39073c10)" d="M 406 667 L 503 751"/>
    <path style="--d:11s; stroke:#000;" pathLength="3333" clip-path="url(#z39073c11)" d="M 536 192 L 897 166"/>
    <path style="--d:12s; stroke:#000;" pathLength="3333" clip-path="url(#z39073c12)" d="M 645 222 L 667 258 L 616 339"/>
    <path style="--d:13s; stroke:#000;" pathLength="3333" clip-path="url(#z39073c13)" d="M 554 340 L 589 391 L 584 694"/>
    <path style="--d:14s; stroke:#000;" pathLength="3333" clip-path="url(#z39073c14)" d="M 608 354 L 765 323 L 820 354 L 812 695"/>
    <path style="--d:15s; stroke:#000;" pathLength="3333" clip-path="url(#z39073c15)" d="M 644 433 L 704 474 L 677 724 L 627 811 L 493 884"/>
    <path style="--d:16s; stroke:#000;" pathLength="3333" clip-path="url(#z39073c16)" d="M 745 735 L 853 840 L 879 910"/>
</g>
</svg>