<svg id="z39131" class="acjk" viewBox="0 0 1024 1024" xmlns="http://www.w3.org/2000/svg">

<style>
<![CDATA[
@keyframes zk { to { stroke-dashoffset:0; } }
svg.acjk path[clip-path] {
    --t:0.8s;
    animation:zk var(--t) linear forwards var(--d);
    stroke-dasharray:3337;
    stroke-dashoffset:3339;
    stroke-width:128;
    stroke-linecap:round;
    fill:none;
}
/* Low opacity for background improves visual overlap at intersections */
svg.acjk .bg { fill:#ccc; opacity: 0.5; } 
]]>
</style>
<defs>
    <clipPath id="z39131c1"><path d="M 364 140 C 351 141 347 142 352 150 C 357 158 368 168 389 177 C 404 184 420 183 437 178 C 505 153 553 136 581 130 C 595 126 606 128 613 136 C 618 142 619 152 619 166 C 618 344 691 454 838 495 C 846 497 856 498 866 498 C 880 496 884 487 881 471 C 873 437 869 395 866 345 C 865 340 863 336 860 334 C 857 332 854 334 852 343 C 846 361 842 380 835 400 C 829 414 820 419 809 420 C 800 420 781 415 754 399 C 719 377 697 350 684 321 C 669 288 666 245 673 193 C 676 168 683 147 700 132 C 708 124 710 118 704 110 C 697 101 685 92 668 83 C 649 73 627 77 596 88 C 524 113 446 130 364 140 Z"/></clipPath>
    <clipPath id="z39131c2"><path d="M 737 231 C 771 199 797 176 817 165 C 825 160 828 156 826 151 C 821 142 813 135 802 127 C 790 118 778 114 767 116 C 759 116 755 122 758 133 C 761 143 749 174 720 228 C 717 233 732 234 737 231 Z"/></clipPath>
    <clipPath id="z39131c3"><path d="M 720 228 C 707 225 697 223 689 222 C 684 221 681 223 682 229 C 682 235 686 239 693 243 C 725 259 762 280 802 308 C 811 314 819 318 827 318 C 831 318 833 315 836 310 C 839 303 836 291 826 272 C 816 254 792 241 751 233 C 723 227 741 231 737 231 C 731 230 720 228 720 228 Z"/></clipPath>
    <clipPath id="z39131c4"><path d="M 322 367 C 355 350 378 338 393 335 C 407 331 412 323 407 312 C 401 299 390 289 377 278 C 364 267 354 262 346 262 C 338 261 335 265 336 274 C 336 294 289 336 200 408 C 191 414 195 424 205 421 C 240 409 267 394 290 383 C 311 372 311 372 322 367 Z"/></clipPath>
    <clipPath id="z39131c5"><path d="M 367 482 C 367 478 368 456 376 417 C 378 402 375 393 362 386 C 345 377 332 371 322 367 C 311 363 283 374 290 383 C 304 397 313 436 309 498 C 307 526 307 526 306 540 C 295 685 252 793 169 861 C 149 877 136 888 134 895 C 132 899 136 901 144 902 C 168 903 204 882 250 836 C 300 784 334 706 352 603 C 356 578 360 551 363 522 C 366 495 366 495 367 482 Z"/></clipPath>
    <clipPath id="z39131c6"><path d="M 510 480 C 547 470 566 464 573 468 C 579 471 578 477 579 490 C 582 678 638 805 734 876 C 777 908 842 938 933 956 C 948 959 963 956 974 949 C 981 943 980 930 975 914 C 961 873 950 817 938 748 C 936 739 932 734 928 732 C 923 729 921 733 919 743 C 901 815 889 857 880 864 C 868 872 849 868 825 858 C 743 823 689 771 663 701 C 647 660 638 618 636 576 C 633 530 640 493 658 467 C 664 458 665 451 661 445 C 654 437 635 424 602 410 C 592 405 581 408 569 415 C 554 422 535 431 511 439 C 482 448 482 448 468 453 C 438 462 405 471 367 482 C 328 493 328 493 309 498 C 276 506 219 519 172 526 C 157 527 147 529 142 533 C 135 536 135 541 142 550 C 148 558 161 564 180 569 C 196 573 210 573 223 568 C 249 557 277 549 306 540 C 344 528 344 528 363 522 C 395 511 430 500 467 491 C 496 484 496 484 510 480 Z"/></clipPath>
    <clipPath id="z39131c7"><path d="M 721 618 C 753 585 777 561 795 549 C 803 543 806 539 803 534 C 798 526 789 518 778 511 C 765 503 754 500 742 502 C 734 503 730 508 734 520 C 737 530 727 561 703 613 C 700 618 717 623 721 618 Z"/></clipPath>
    <clipPath id="z39131c8"><path d="M 703 613 C 684 607 668 605 657 603 C 652 601 650 603 651 609 C 651 615 655 621 662 625 C 697 645 739 670 784 702 C 794 709 802 715 810 715 C 814 715 817 711 820 706 C 824 697 821 684 811 665 C 800 646 773 631 729 619 C 726 618 723 618 721 618 C 715 618 709 614 703 613 Z"/></clipPath>
    <clipPath id="z39131c9"><path d="M 467 491 C 466 509 466 528 466 548 C 462 684 452 771 442 810 C 434 839 445 871 468 906 C 476 918 481 928 488 931 C 496 933 502 927 506 918 C 514 895 515 873 515 852 C 509 717 507 593 510 480 C 511 453 511 453 511 439 C 512 368 515 317 521 287 C 522 278 521 271 516 267 C 499 252 484 242 470 236 C 462 232 454 234 448 240 C 444 242 445 247 450 254 C 462 271 471 338 468 453 C 467 478 467 478 467 491 Z"/></clipPath>
</defs>
<g id="bg-layer">
    <path class="bg" d="M 364 140 C 351 141 347 142 352 150 C 357 158 368 168 389 177 C 404 184 420 183 437 178 C 505 153 553 136 581 130 C 595 126 606 128 613 136 C 618 142 619 152 619 166 C 618 344 691 454 838 495 C 846 497 856 498 866 498 C 880 496 884 487 881 471 C 873 437 869 395 866 345 C 865 340 863 336 860 334 C 857 332 854 334 852 343 C 846 361 842 380 835 400 C 829 414 820 419 809 420 C 800 420 781 415 754 399 C 719 377 697 350 684 321 C 669 288 666 245 673 193 C 676 168 683 147 700 132 C 708 124 710 118 704 110 C 697 101 685 92 668 83 C 649 73 627 77 596 88 C 524 113 446 130 364 140 Z"/>
    <path class="bg" d="M 737 231 C 771 199 797 176 817 165 C 825 160 828 156 826 151 C 821 142 813 135 802 127 C 790 118 778 114 767 116 C 759 116 755 122 758 133 C 761 143 749 174 720 228 C 717 233 732 234 737 231 Z"/>
    <path class="bg" d="M 720 228 C 707 225 697 223 689 222 C 684 221 681 223 682 229 C 682 235 686 239 693 243 C 725 259 762 280 802 308 C 811 314 819 318 827 318 C 831 318 833 315 836 310 C 839 303 836 291 826 272 C 816 254 792 241 751 233 C 723 227 741 231 737 231 C 731 230 720 228 720 228 Z"/>
    <path class="bg" d="M 322 367 C 355 350 378 338 393 335 C 407 331 412 323 407 312 C 401 299 390 289 377 278 C 364 267 354 262 346 262 C 338 261 335 265 336 274 C 336 294 289 336 200 408 C 191 414 195 424 205 421 C 240 409 267 394 290 383 C 311 372 311 372 322 367 Z"/>
    <path class="bg" d="M 367 482 C 367 478 368 456 376 417 C 378 402 375 393 362 386 C 345 377 332 371 322 367 C 311 363 283 374 290 383 C 304 397 313 436 309 498 C 307 526 307 526 306 540 C 295 685 252 793 169 861 C 149 877 136 888 134 895 C 132 899 136 901 144 902 C 168 903 204 882 250 836 C 300 784 334 706 352 603 C 356 578 360 551 363 522 C 366 495 366 495 367 482 Z"/>
    <path class="bg" d="M 510 480 C 547 470 566 464 573 468 C 579 471 578 477 579 490 C 582 678 638 805 734 876 C 777 908 842 938 933 956 C 948 959 963 956 974 949 C 981 943 980 930 975 914 C 961 873 950 817 938 748 C 936 739 932 734 928 732 C 923 729 921 733 919 743 C 901 815 889 857 880 864 C 868 872 849 868 825 858 C 743 823 689 771 663 701 C 647 660 638 618 636 576 C 633 530 640 493 658 467 C 664 458 665 451 661 445 C 654 437 635 424 602 410 C 592 405 581 408 569 415 C 554 422 535 431 511 439 C 482 448 482 448 468 453 C 438 462 405 471 367 482 C 328 493 328 493 309 498 C 276 506 219 519 172 526 C 157 527 147 529 142 533 C 135 536 135 541 142 550 C 148 558 161 564 180 569 C 196 573 210 573 223 568 C 249 557 277 549 306 540 C 344 528 344 528 363 522 C 395 511 430 500 467 491 C 496 484 496 484 510 480 Z"/>
    <path class="bg" d="M 721 618 C 753 585 777 561 795 549 C 803 543 806 539 803 534 C 798 526 789 518 778 511 C 765 503 754 500 742 502 C 734 503 730 508 734 520 C 737 530 727 561 703 613 C 700 618 717 623 721 618 Z"/>
    <path class="bg" d="M 703 613 C 684 607 668 605 657 603 C 652 601 650 603 651 609 C 651 615 655 621 662 625 C 697 645 739 670 784 702 C 794 709 802 715 810 715 C 814 715 817 711 820 706 C 824 697 821 684 811 665 C 800 646 773 631 729 619 C 726 618 723 618 721 618 C 715 618 709 614 703 613 Z"/>
    <path class="bg" d="M 467 491 C 466 509 466 528 466 548 C 462 684 452 771 442 810 C 434 839 445 871 468 906 C 476 918 481 928 488 931 C 496 933 502 927 506 918 C 514 895 515 873 515 852 C 509 717 507 593 510 480 C 511 453 511 453 511 439 C 512 368 515 317 521 287 C 522 278 521 271 516 267 C 499 252 484 242 470 236 C 462 232 454 234 448 240 C 444 242 445 247 450 254 C 462 271 471 338 468 453 C 467 478 467 478 467 491 Z"/>
</g>
<g id="anim-layer">
    <path style="--d:1s; stroke:#FF4444;" pathLength="3333" clip-path="url(#z39131c1)" d="M 360 149 L 416 157 L 637 109 L 662 136 L 645 194 L 655 296 L 709 392 L 782 443 L 848 456 L 857 345"/>
    <path style="--d:2s; stroke:#FF4444;" pathLength="3333" clip-path="url(#z39131c2)" d="M 767 120 L 790 156 L 731 227"/>
    <path style="--d:3s; stroke:#FF4444;" pathLength="3333" clip-path="url(#z39131c3)" d="M 692 232 L 787 269 L 829 312"/>
    <path style="--d:4s; stroke:#000;" pathLength="3333" clip-path="url(#z39131c4)" d="M 346 266 L 363 315 L 201 413"/>
    <path style="--d:5s; stroke:#000;" pathLength="3333" clip-path="url(#z39131c5)" d="M 298 385 L 341 414 L 311 673 L 251 802 L 142 895"/>
    <path style="--d:6s; stroke:#000;" pathLength="3333" clip-path="url(#z39131c6)" d="M 142 538 L 208 546 L 589 440 L 622 467 L 608 537 L 629 677 L 722 830 L 830 894 L 928 911 L 926 740"/>
    <path style="--d:7s; stroke:#000;" pathLength="3333" clip-path="url(#z39131c7)" d="M 742 509 L 766 543 L 712 612"/>
    <path style="--d:8s; stroke:#000;" pathLength="3333" clip-path="url(#z39131c8)" d="M 658 610 L 770 661 L 811 709"/>
    <path style="--d:9s; stroke:#000;" pathLength="3333" clip-path="url(#z39131c9)" d="M 453 244 L 491 295 L 477 834 L 492 923"/>
</g>
</svg>