<svg id="z39299" class="acjk" viewBox="0 0 1024 1024" xmlns="http://www.w3.org/2000/svg">

<style>
<![CDATA[
@keyframes zk { to { stroke-dashoffset:0; } }
svg.acjk path[clip-path] {
    --t:0.8s;
    animation:zk var(--t) linear forwards var(--d);
    stroke-dasharray:3337;
    stroke-dashoffset:3339;
    stroke-width:128;
    stroke-linecap:round;
    fill:none;
}
/* Low opacity for background improves visual overlap at intersections */
svg.acjk .bg { fill:#ccc; opacity: 0.5; } 
]]>
</style>
<defs>
    <clipPath id="z39299c1"><path d="M 259 306 C 279 266 301 216 326 156 C 330 144 334 135 339 131 C 343 126 344 120 342 114 C 339 107 333 101 323 94 C 296 76 272 71 251 81 C 245 83 244 88 247 97 C 268 154 242 249 166 377 C 148 406 109 465 51 537 C 46 542 47 546 55 545 C 91 537 133 497 198 411 C 211 393 243 336 248 328 C 255 313 255 313 259 306 Z"/></clipPath>
    <clipPath id="z39299c2"><path d="M 248 328 C 272 331 292 328 350 312 C 354 310 358 310 361 312 C 362 313 363 316 361 322 C 347 364 335 396 326 418 C 322 426 320 432 320 436 C 319 442 323 444 331 440 C 337 436 358 413 392 372 C 413 345 431 321 445 309 C 455 299 455 296 450 286 C 445 277 421 258 407 256 C 396 253 339 281 259 306 C 251 309 240 326 248 328 Z"/></clipPath>
    <clipPath id="z39299c3"><path d="M 293 490 C 295 481 295 472 289 466 C 273 450 258 439 244 433 C 231 427 222 427 217 431 C 210 435 210 441 215 452 C 239 505 242 583 232 684 C 228 716 217 749 193 783 C 185 793 185 806 190 820 C 196 838 204 851 214 858 C 222 863 231 860 238 848 C 247 829 289 779 370 698 C 380 687 388 680 391 674 C 393 667 390 664 384 665 C 379 665 344 684 282 725 C 279 726 275 728 276 725 C 281 654 288 591 288 536 C 288 519 289 503 293 490 Z"/></clipPath>
    <clipPath id="z39299c4"><path d="M 493 180 Q 481 176 458 171 Q 446 168 443 173 Q 436 180 445 195 Q 478 267 495 382 Q 498 416 518 440 Q 536 462 541 447 Q 542 440 544 430 C 545 414 545 414 545 406 Q 544 390 541 371 Q 519 250 514 213 C 512 200 505 185 493 180 Z"/></clipPath>
    <clipPath id="z39299c5"><path d="M 714 404 C 726 424 739 437 751 443 C 757 449 766 444 777 429 C 787 412 802 355 826 258 C 831 236 843 218 860 202 C 868 193 869 184 862 175 C 851 162 832 147 803 131 C 791 124 758 129 704 140 C 696 141 655 147 583 163 C 550 169 520 175 493 180 C 480 183 502 218 514 213 C 513 212 514 212 516 212 C 540 205 569 198 605 192 C 624 189 624 189 634 187 C 660 182 690 176 724 172 C 744 169 757 170 763 177 C 772 187 775 198 773 210 C 755 304 741 359 732 375 C 726 385 707 395 714 404 Z"/></clipPath>
    <clipPath id="z39299c6"><path d="M 661 304 Q 689 298 717 295 Q 739 291 731 279 Q 721 266 697 261 Q 681 260 661 264 C 631 273 631 273 616 277 Q 582 287 553 296 Q 537 300 556 313 Q 559 316 616 311 C 646 306 646 306 661 304 Z"/></clipPath>
    <clipPath id="z39299c7"><path d="M 661 412 Q 688 406 714 404 C 725 404 742 381 732 375 Q 716 363 663 376 Q 660 376 661 377 C 632 384 632 384 617 388 Q 580 395 545 406 C 537 408 536 430 544 430 Q 550 430 558 429 Q 586 423 617 419 C 646 414 646 414 661 412 Z"/></clipPath>
    <clipPath id="z39299c8"><path d="M 664 547 C 698 542 774 541 894 541 C 906 541 914 538 917 533 C 920 526 916 517 906 509 C 870 480 837 476 806 485 C 768 495 719 501 661 509 C 632 513 632 513 617 515 C 557 523 493 529 426 539 C 413 540 411 547 420 557 C 428 566 438 572 450 575 C 462 578 474 578 485 576 C 517 567 552 560 590 556 C 607 554 607 554 616 553 C 648 549 648 549 664 547 Z"/></clipPath>
    <clipPath id="z39299c9"><path d="M 616 608 C 616 698 611 781 605 855 C 602 881 609 905 626 926 C 633 935 641 933 647 923 C 663 891 668 860 665 832 C 661 803 661 720 661 584 C 661 534 661 534 661 509 C 661 476 661 444 661 412 C 661 389 661 389 661 377 C 661 358 661 321 661 304 C 661 277 661 277 661 264 C 661 239 662 224 664 220 C 666 213 664 207 658 202 C 652 197 644 192 634 187 C 626 182 601 183 605 192 C 606 193 606 193 606 194 C 608 200 616 227 616 277 C 616 300 616 300 616 311 C 616 335 617 361 617 388 C 617 409 617 409 617 419 C 617 451 617 483 617 515 C 616 540 616 540 616 553 C 616 590 616 590 616 608 Z"/></clipPath>
    <clipPath id="z39299c10"><path d="M 590 556 Q 524 673 350 791 Q 337 801 346 803 Q 353 807 366 804 Q 475 771 616 608 C 651 573 612 511 590 556 Z"/></clipPath>
    <clipPath id="z39299c11"><path d="M 661 584 C 705 648 757 713 815 781 C 825 793 840 798 860 797 C 922 794 954 790 974 786 C 980 784 983 781 984 779 C 984 776 980 772 972 768 C 879 731 821 693 779 654 C 742 622 704 586 664 547 C 646 532 647 565 661 584 Z"/></clipPath>
</defs>
<g id="bg-layer">
    <path class="bg" d="M 259 306 C 279 266 301 216 326 156 C 330 144 334 135 339 131 C 343 126 344 120 342 114 C 339 107 333 101 323 94 C 296 76 272 71 251 81 C 245 83 244 88 247 97 C 268 154 242 249 166 377 C 148 406 109 465 51 537 C 46 542 47 546 55 545 C 91 537 133 497 198 411 C 211 393 243 336 248 328 C 255 313 255 313 259 306 Z"/>
    <path class="bg" d="M 248 328 C 272 331 292 328 350 312 C 354 310 358 310 361 312 C 362 313 363 316 361 322 C 347 364 335 396 326 418 C 322 426 320 432 320 436 C 319 442 323 444 331 440 C 337 436 358 413 392 372 C 413 345 431 321 445 309 C 455 299 455 296 450 286 C 445 277 421 258 407 256 C 396 253 339 281 259 306 C 251 309 240 326 248 328 Z"/>
    <path class="bg" d="M 293 490 C 295 481 295 472 289 466 C 273 450 258 439 244 433 C 231 427 222 427 217 431 C 210 435 210 441 215 452 C 239 505 242 583 232 684 C 228 716 217 749 193 783 C 185 793 185 806 190 820 C 196 838 204 851 214 858 C 222 863 231 860 238 848 C 247 829 289 779 370 698 C 380 687 388 680 391 674 C 393 667 390 664 384 665 C 379 665 344 684 282 725 C 279 726 275 728 276 725 C 281 654 288 591 288 536 C 288 519 289 503 293 490 Z"/>
    <path class="bg" d="M 493 180 Q 481 176 458 171 Q 446 168 443 173 Q 436 180 445 195 Q 478 267 495 382 Q 498 416 518 440 Q 536 462 541 447 Q 542 440 544 430 C 545 414 545 414 545 406 Q 544 390 541 371 Q 519 250 514 213 C 512 200 505 185 493 180 Z"/>
    <path class="bg" d="M 714 404 C 726 424 739 437 751 443 C 757 449 766 444 777 429 C 787 412 802 355 826 258 C 831 236 843 218 860 202 C 868 193 869 184 862 175 C 851 162 832 147 803 131 C 791 124 758 129 704 140 C 696 141 655 147 583 163 C 550 169 520 175 493 180 C 480 183 502 218 514 213 C 513 212 514 212 516 212 C 540 205 569 198 605 192 C 624 189 624 189 634 187 C 660 182 690 176 724 172 C 744 169 757 170 763 177 C 772 187 775 198 773 210 C 755 304 741 359 732 375 C 726 385 707 395 714 404 Z"/>
    <path class="bg" d="M 661 304 Q 689 298 717 295 Q 739 291 731 279 Q 721 266 697 261 Q 681 260 661 264 C 631 273 631 273 616 277 Q 582 287 553 296 Q 537 300 556 313 Q 559 316 616 311 C 646 306 646 306 661 304 Z"/>
    <path class="bg" d="M 661 412 Q 688 406 714 404 C 725 404 742 381 732 375 Q 716 363 663 376 Q 660 376 661 377 C 632 384 632 384 617 388 Q 580 395 545 406 C 537 408 536 430 544 430 Q 550 430 558 429 Q 586 423 617 419 C 646 414 646 414 661 412 Z"/>
    <path class="bg" d="M 664 547 C 698 542 774 541 894 541 C 906 541 914 538 917 533 C 920 526 916 517 906 509 C 870 480 837 476 806 485 C 768 495 719 501 661 509 C 632 513 632 513 617 515 C 557 523 493 529 426 539 C 413 540 411 547 420 557 C 428 566 438 572 450 575 C 462 578 474 578 485 576 C 517 567 552 560 590 556 C 607 554 607 554 616 553 C 648 549 648 549 664 547 Z"/>
    <path class="bg" d="M 616 608 C 616 698 611 781 605 855 C 602 881 609 905 626 926 C 633 935 641 933 647 923 C 663 891 668 860 665 832 C 661 803 661 720 661 584 C 661 534 661 534 661 509 C 661 476 661 444 661 412 C 661 389 661 389 661 377 C 661 358 661 321 661 304 C 661 277 661 277 661 264 C 661 239 662 224 664 220 C 666 213 664 207 658 202 C 652 197 644 192 634 187 C 626 182 601 183 605 192 C 606 193 606 193 606 194 C 608 200 616 227 616 277 C 616 300 616 300 616 311 C 616 335 617 361 617 388 C 617 409 617 409 617 419 C 617 451 617 483 617 515 C 616 540 616 540 616 553 C 616 590 616 590 616 608 Z"/>
    <path class="bg" d="M 590 556 Q 524 673 350 791 Q 337 801 346 803 Q 353 807 366 804 Q 475 771 616 608 C 651 573 612 511 590 556 Z"/>
    <path class="bg" d="M 661 584 C 705 648 757 713 815 781 C 825 793 840 798 860 797 C 922 794 954 790 974 786 C 980 784 983 781 984 779 C 984 776 980 772 972 768 C 879 731 821 693 779 654 C 742 622 704 586 664 547 C 646 532 647 565 661 584 Z"/>
</g>
<g id="anim-layer">
    <path style="--d:1s; stroke:#FF4444;" pathLength="3333" clip-path="url(#z39299c1)" d="M 251 87 L 298 134 L 242 285 L 164 420 L 57 538"/>
    <path style="--d:2s; stroke:#FF4444;" pathLength="3333" clip-path="url(#z39299c2)" d="M 257 323 L 379 286 L 412 302 L 327 436"/>
    <path style="--d:3s; stroke:#FF4444;" pathLength="3333" clip-path="url(#z39299c3)" d="M 219 436 L 262 489 L 234 802 L 384 671"/>
    <path style="--d:4s; stroke:#000;" pathLength="3333" clip-path="url(#z39299c4)" d="M 448 180 L 484 217 L 531 447"/>
    <path style="--d:5s; stroke:#000;" pathLength="3333" clip-path="url(#z39299c5)" d="M 502 182 L 751 151 L 809 177 L 819 199 L 741 435"/>
    <path style="--d:6s; stroke:#000;" pathLength="3333" clip-path="url(#z39299c6)" d="M 554 303 L 726 281"/>
    <path style="--d:7s; stroke:#000;" pathLength="3333" clip-path="url(#z39299c7)" d="M 551 423 L 725 382"/>
    <path style="--d:8s; stroke:#000;" pathLength="3333" clip-path="url(#z39299c8)" d="M 424 548 L 823 510 L 913 523"/>
    <path style="--d:9s; stroke:#000;" pathLength="3333" clip-path="url(#z39299c9)" d="M 613 199 L 639 231 L 636 927"/>
    <path style="--d:10s; stroke:#000;" pathLength="3333" clip-path="url(#z39299c10)" d="M 608 561 L 491 706 L 351 797"/>
    <path style="--d:11s; stroke:#000;" pathLength="3333" clip-path="url(#z39299c11)" d="M 668 559 L 848 754 L 976 779"/>
</g>
</svg>