<svg id="z39318" class="acjk" viewBox="0 0 1024 1024" xmlns="http://www.w3.org/2000/svg">

<style>
<![CDATA[
@keyframes zk { to { stroke-dashoffset:0; } }
svg.acjk path[clip-path] {
    --t:0.8s;
    animation:zk var(--t) linear forwards var(--d);
    stroke-dasharray:3337;
    stroke-dashoffset:3339;
    stroke-width:128;
    stroke-linecap:round;
    fill:none;
}
/* Low opacity for background improves visual overlap at intersections */
svg.acjk .bg { fill:#ccc; opacity: 0.5; } 
]]>
</style>
<defs>
    <clipPath id="z39318c1"><path d="M 367 142 C 396 181 419 209 441 219 C 450 223 460 219 467 211 C 472 203 475 192 474 181 C 470 152 439 127 384 104 C 373 99 364 98 358 100 C 353 101 352 104 353 113 C 353 121 358 130 367 142 Z"/></clipPath>
    <clipPath id="z39318c2"><path d="M 532 280 C 550 264 596 219 670 145 C 682 132 695 120 711 111 C 724 102 727 91 718 81 C 707 69 691 61 672 54 C 653 47 640 45 632 48 C 623 50 621 55 625 65 C 631 82 615 122 577 182 C 537 242 514 275 510 283 C 506 289 526 284 532 280 Z"/></clipPath>
    <clipPath id="z39318c3"><path d="M 491 319 C 567 309 706 304 908 304 C 922 304 931 301 935 295 C 939 286 935 276 923 267 C 881 234 839 229 796 239 C 728 254 639 265 532 280 C 517 282 517 282 510 283 C 395 298 271 309 138 324 C 123 325 121 333 132 345 C 141 355 153 362 166 366 C 180 370 193 370 206 367 C 282 346 364 334 450 324 C 477 321 477 321 491 319 Z"/></clipPath>
    <clipPath id="z39318c4"><path d="M 434 463 C 458 432 480 399 508 370 C 516 361 519 357 516 350 C 511 340 503 329 491 319 C 480 310 450 310 450 324 C 447 375 429 403 399 468 C 395 479 427 472 434 463 Z"/></clipPath>
    <clipPath id="z39318c5"><path d="M 376 469 C 365 461 353 454 340 452 C 334 450 328 452 325 458 C 322 461 325 466 329 474 C 358 534 363 631 337 762 C 329 799 321 824 325 839 C 331 861 337 876 345 884 C 365 903 378 874 382 846 C 383 835 386 826 387 816 C 388 784 390 764 392 723 C 393 706 393 706 393 697 C 394 667 392 637 394 608 C 395 593 395 593 395 586 C 396 544 397 515 401 500 C 404 487 387 477 376 469 Z"/></clipPath>
    <clipPath id="z39318c6"><path d="M 618 829 C 627 855 640 881 655 906 C 662 918 668 925 676 925 C 688 924 699 912 710 889 C 722 862 724 832 722 800 C 717 739 711 652 708 539 C 707 518 713 500 725 485 C 731 476 732 467 726 461 C 713 447 689 433 654 416 C 641 409 630 410 620 415 C 584 430 501 453 434 463 C 411 466 411 466 399 468 C 390 469 382 468 376 469 C 363 469 388 502 401 500 C 419 498 484 487 595 466 C 613 462 627 463 637 471 C 649 480 655 559 653 705 C 652 746 650 798 636 809 C 630 815 615 821 618 829 Z"/></clipPath>
    <clipPath id="z39318c7"><path d="M 394 608 C 398 610 406 611 418 610 C 476 602 526 596 570 592 C 584 590 590 584 585 576 C 578 565 566 558 549 555 C 534 552 483 563 395 586 C 388 587 387 605 394 608 Z"/></clipPath>
    <clipPath id="z39318c8"><path d="M 392 723 C 396 723 403 724 412 724 C 474 718 529 712 577 708 C 593 706 598 700 593 692 C 586 681 574 673 558 670 C 538 665 483 675 393 697 C 384 699 383 723 392 723 Z"/></clipPath>
    <clipPath id="z39318c9"><path d="M 382 846 C 386 846 392 846 400 846 C 474 838 560 832 618 829 C 627 829 642 815 636 809 C 629 800 618 793 602 789 C 586 785 563 785 533 791 C 484 799 429 808 387 816 C 377 818 372 846 382 846 Z"/></clipPath>
</defs>
<g id="bg-layer">
    <path class="bg" d="M 367 142 C 396 181 419 209 441 219 C 450 223 460 219 467 211 C 472 203 475 192 474 181 C 470 152 439 127 384 104 C 373 99 364 98 358 100 C 353 101 352 104 353 113 C 353 121 358 130 367 142 Z"/>
    <path class="bg" d="M 532 280 C 550 264 596 219 670 145 C 682 132 695 120 711 111 C 724 102 727 91 718 81 C 707 69 691 61 672 54 C 653 47 640 45 632 48 C 623 50 621 55 625 65 C 631 82 615 122 577 182 C 537 242 514 275 510 283 C 506 289 526 284 532 280 Z"/>
    <path class="bg" d="M 491 319 C 567 309 706 304 908 304 C 922 304 931 301 935 295 C 939 286 935 276 923 267 C 881 234 839 229 796 239 C 728 254 639 265 532 280 C 517 282 517 282 510 283 C 395 298 271 309 138 324 C 123 325 121 333 132 345 C 141 355 153 362 166 366 C 180 370 193 370 206 367 C 282 346 364 334 450 324 C 477 321 477 321 491 319 Z"/>
    <path class="bg" d="M 434 463 C 458 432 480 399 508 370 C 516 361 519 357 516 350 C 511 340 503 329 491 319 C 480 310 450 310 450 324 C 447 375 429 403 399 468 C 395 479 427 472 434 463 Z"/>
    <path class="bg" d="M 376 469 C 365 461 353 454 340 452 C 334 450 328 452 325 458 C 322 461 325 466 329 474 C 358 534 363 631 337 762 C 329 799 321 824 325 839 C 331 861 337 876 345 884 C 365 903 378 874 382 846 C 383 835 386 826 387 816 C 388 784 390 764 392 723 C 393 706 393 706 393 697 C 394 667 392 637 394 608 C 395 593 395 593 395 586 C 396 544 397 515 401 500 C 404 487 387 477 376 469 Z"/>
    <path class="bg" d="M 618 829 C 627 855 640 881 655 906 C 662 918 668 925 676 925 C 688 924 699 912 710 889 C 722 862 724 832 722 800 C 717 739 711 652 708 539 C 707 518 713 500 725 485 C 731 476 732 467 726 461 C 713 447 689 433 654 416 C 641 409 630 410 620 415 C 584 430 501 453 434 463 C 411 466 411 466 399 468 C 390 469 382 468 376 469 C 363 469 388 502 401 500 C 419 498 484 487 595 466 C 613 462 627 463 637 471 C 649 480 655 559 653 705 C 652 746 650 798 636 809 C 630 815 615 821 618 829 Z"/>
    <path class="bg" d="M 394 608 C 398 610 406 611 418 610 C 476 602 526 596 570 592 C 584 590 590 584 585 576 C 578 565 566 558 549 555 C 534 552 483 563 395 586 C 388 587 387 605 394 608 Z"/>
    <path class="bg" d="M 392 723 C 396 723 403 724 412 724 C 474 718 529 712 577 708 C 593 706 598 700 593 692 C 586 681 574 673 558 670 C 538 665 483 675 393 697 C 384 699 383 723 392 723 Z"/>
    <path class="bg" d="M 382 846 C 386 846 392 846 400 846 C 474 838 560 832 618 829 C 627 829 642 815 636 809 C 629 800 618 793 602 789 C 586 785 563 785 533 791 C 484 799 429 808 387 816 C 377 818 372 846 382 846 Z"/>
</g>
<g id="anim-layer">
    <path style="--d:1s; stroke:#FF4444;" pathLength="3333" clip-path="url(#z39318c1)" d="M 359 107 L 461 213"/>
    <path style="--d:2s; stroke:#FF4444;" pathLength="3333" clip-path="url(#z39318c2)" d="M 630 52 L 670 101 L 519 281"/>
    <path style="--d:3s; stroke:#FF4444;" pathLength="3333" clip-path="url(#z39318c3)" d="M 131 332 L 195 343 L 829 269 L 930 289"/>
    <path style="--d:4s; stroke:#000;" pathLength="3333" clip-path="url(#z39318c4)" d="M 457 323 L 480 359 L 404 466"/>
    <path style="--d:5s; stroke:#000;" pathLength="3333" clip-path="url(#z39318c5)" d="M 332 461 L 372 505 L 355 885"/>
    <path style="--d:6s; stroke:#000;" pathLength="3333" clip-path="url(#z39318c6)" d="M 379 475 L 626 438 L 682 473 L 670 920"/>
    <path style="--d:7s; stroke:#000;" pathLength="3333" clip-path="url(#z39318c7)" d="M 392 597 L 581 578"/>
    <path style="--d:8s; stroke:#000;" pathLength="3333" clip-path="url(#z39318c8)" d="M 389 712 L 589 693"/>
    <path style="--d:9s; stroke:#000;" pathLength="3333" clip-path="url(#z39318c9)" d="M 384 837 L 628 813"/>
</g>
</svg>