<svg id="z40067" class="acjk" viewBox="0 0 1024 1024" xmlns="http://www.w3.org/2000/svg">

<style>
<![CDATA[
@keyframes zk { to { stroke-dashoffset:0; } }
svg.acjk path[clip-path] {
    --t:0.8s;
    animation:zk var(--t) linear forwards var(--d);
    stroke-dasharray:3337;
    stroke-dashoffset:3339;
    stroke-width:128;
    stroke-linecap:round;
    fill:none;
}
/* Low opacity for background improves visual overlap at intersections */
svg.acjk .bg { fill:#ccc; opacity: 0.5; } 
]]>
</style>
<defs>
    <clipPath id="z40067c1"><path d="M 267 214 Q 307 155 323 141 Q 328 136 329 130 Q 331 116 302 89 Q 280 73 264 72 Q 247 73 255 91 Q 267 129 194 238 Q 159 286 110 343 Q 108 345 107 347 Q 88 369 106 365 Q 145 359 251 234 C 262 221 262 221 267 214 Z"/></clipPath>
    <clipPath id="z40067c2"><path d="M 294 373 Q 311 355 349 305 Q 386 257 419 232 Q 435 222 424 210 Q 413 200 380 183 Q 368 179 346 189 Q 296 207 267 214 C 259 215 243 232 251 234 Q 269 239 325 229 Q 333 228 334 229 Q 341 236 304 311 Q 270 375 270 379 C 267 387 289 380 294 373 Z"/></clipPath>
    <clipPath id="z40067c3"><path d="M 145 410 Q 106 394 99 403 Q 94 408 102 426 Q 129 501 141 598 Q 143 630 161 652 Q 175 673 180 658 Q 184 650 186 635 C 186 620 186 620 186 612 C 169 497 169 497 161 439 C 159 428 155 414 145 410 Z"/></clipPath>
    <clipPath id="z40067c4"><path d="M 325 608 Q 339 629 351 633 Q 363 637 374 620 Q 388 594 412 465 Q 416 451 421 438 C 432 422 432 422 438 414 Q 446 402 437 392 Q 425 379 385 356 Q 368 349 355 355 C 318 366 318 366 300 371 Q 296 371 294 373 C 278 377 278 377 270 379 Q 258 379 145 410 C 135 413 151 442 161 439 Q 188 430 231 418 C 252 414 252 414 263 412 C 282 407 282 407 292 404 Q 341 391 355 399 Q 367 415 365 428 Q 353 512 349 533 Q 340 575 325 582 C 318 586 320 601 325 608 Z"/></clipPath>
    <clipPath id="z40067c5"><path d="M 280 512 Q 313 507 323 506 Q 343 502 336 492 Q 320 473 282 480 C 255 487 255 487 241 490 Q 212 498 192 506 Q 178 508 194 520 Q 198 523 241 519 C 267 514 267 514 280 512 Z"/></clipPath>
    <clipPath id="z40067c6"><path d="M 276 584 Q 277 548 280 512 C 281 491 281 491 282 480 C 283 455 283 455 284 443 Q 283 430 263 412 C 255 404 229 407 231 418 Q 237 444 241 490 C 241 509 241 509 241 519 Q 241 533 241 594 C 241 606 276 596 276 584 Z"/></clipPath>
    <clipPath id="z40067c7"><path d="M 186 635 Q 221 627 325 608 C 334 607 333 585 325 582 Q 310 576 276 584 C 253 591 253 591 241 594 C 204 606 204 606 186 612 C 179 615 178 637 186 635 Z"/></clipPath>
    <clipPath id="z40067c8"><path d="M 78 757 Q 65 759 63 770 Q 61 781 69 790 Q 91 806 123 826 Q 133 831 145 822 Q 176 798 367 724 Q 379 719 390 713 Q 424 694 425 683 Q 421 677 408 680 Q 130 759 78 757 Z"/></clipPath>
    <clipPath id="z40067c9"><path d="M 819 488 Q 845 381 878 354 Q 894 336 878 318 Q 862 304 808 285 Q 802 281 796 281 Q 784 280 759 290 Q 675 328 554 351 C 543 353 552 387 563 383 Q 564 383 566 382 C 617 369 617 369 643 363 C 666 358 666 358 677 355 Q 745 336 760 334 Q 776 332 782 337 Q 794 348 792 371 Q 783 437 770 490 C 767 506 816 504 819 488 Z"/></clipPath>
    <clipPath id="z40067c10"><path d="M 643 363 Q 644 365 645 374 Q 647 396 645 527 C 645 541 686 530 686 516 Q 694 414 700 399 Q 707 385 700 375 Q 690 361 677 355 C 667 349 641 352 643 363 Z"/></clipPath>
    <clipPath id="z40067c11"><path d="M 542 582 Q 551 583 566 580 Q 672 552 840 526 Q 850 526 853 516 Q 853 507 819 488 C 805 480 785 484 770 490 Q 719 505 686 516 C 659 523 659 523 645 527 Q 583 537 544 547 C 532 549 530 582 542 582 Z"/></clipPath>
    <clipPath id="z40067c12"><path d="M 554 351 Q 547 344 538 339 Q 512 324 499 332 Q 493 336 498 355 Q 511 398 509 430 Q 494 706 517 779 Q 523 804 548 826 Q 605 873 725 871 Q 806 869 862 851 Q 909 838 956 804 Q 975 789 960 763 Q 949 740 924 657 Q 923 641 916 637 Q 910 633 906 652 Q 884 739 868 768 Q 853 786 806 800 Q 733 822 661 810 Q 584 800 564 759 Q 537 706 542 582 C 543 559 543 559 544 547 Q 547 474 563 383 C 565 372 563 358 554 351 Z"/></clipPath>
</defs>
<g id="bg-layer">
    <path class="bg" d="M 267 214 Q 307 155 323 141 Q 328 136 329 130 Q 331 116 302 89 Q 280 73 264 72 Q 247 73 255 91 Q 267 129 194 238 Q 159 286 110 343 Q 108 345 107 347 Q 88 369 106 365 Q 145 359 251 234 C 262 221 262 221 267 214 Z"/>
    <path class="bg" d="M 294 373 Q 311 355 349 305 Q 386 257 419 232 Q 435 222 424 210 Q 413 200 380 183 Q 368 179 346 189 Q 296 207 267 214 C 259 215 243 232 251 234 Q 269 239 325 229 Q 333 228 334 229 Q 341 236 304 311 Q 270 375 270 379 C 267 387 289 380 294 373 Z"/>
    <path class="bg" d="M 145 410 Q 106 394 99 403 Q 94 408 102 426 Q 129 501 141 598 Q 143 630 161 652 Q 175 673 180 658 Q 184 650 186 635 C 186 620 186 620 186 612 C 169 497 169 497 161 439 C 159 428 155 414 145 410 Z"/>
    <path class="bg" d="M 325 608 Q 339 629 351 633 Q 363 637 374 620 Q 388 594 412 465 Q 416 451 421 438 C 432 422 432 422 438 414 Q 446 402 437 392 Q 425 379 385 356 Q 368 349 355 355 C 318 366 318 366 300 371 Q 296 371 294 373 C 278 377 278 377 270 379 Q 258 379 145 410 C 135 413 151 442 161 439 Q 188 430 231 418 C 252 414 252 414 263 412 C 282 407 282 407 292 404 Q 341 391 355 399 Q 367 415 365 428 Q 353 512 349 533 Q 340 575 325 582 C 318 586 320 601 325 608 Z"/>
    <path class="bg" d="M 280 512 Q 313 507 323 506 Q 343 502 336 492 Q 320 473 282 480 C 255 487 255 487 241 490 Q 212 498 192 506 Q 178 508 194 520 Q 198 523 241 519 C 267 514 267 514 280 512 Z"/>
    <path class="bg" d="M 276 584 Q 277 548 280 512 C 281 491 281 491 282 480 C 283 455 283 455 284 443 Q 283 430 263 412 C 255 404 229 407 231 418 Q 237 444 241 490 C 241 509 241 509 241 519 Q 241 533 241 594 C 241 606 276 596 276 584 Z"/>
    <path class="bg" d="M 186 635 Q 221 627 325 608 C 334 607 333 585 325 582 Q 310 576 276 584 C 253 591 253 591 241 594 C 204 606 204 606 186 612 C 179 615 178 637 186 635 Z"/>
    <path class="bg" d="M 78 757 Q 65 759 63 770 Q 61 781 69 790 Q 91 806 123 826 Q 133 831 145 822 Q 176 798 367 724 Q 379 719 390 713 Q 424 694 425 683 Q 421 677 408 680 Q 130 759 78 757 Z"/>
    <path class="bg" d="M 819 488 Q 845 381 878 354 Q 894 336 878 318 Q 862 304 808 285 Q 802 281 796 281 Q 784 280 759 290 Q 675 328 554 351 C 543 353 552 387 563 383 Q 564 383 566 382 C 617 369 617 369 643 363 C 666 358 666 358 677 355 Q 745 336 760 334 Q 776 332 782 337 Q 794 348 792 371 Q 783 437 770 490 C 767 506 816 504 819 488 Z"/>
    <path class="bg" d="M 643 363 Q 644 365 645 374 Q 647 396 645 527 C 645 541 686 530 686 516 Q 694 414 700 399 Q 707 385 700 375 Q 690 361 677 355 C 667 349 641 352 643 363 Z"/>
    <path class="bg" d="M 542 582 Q 551 583 566 580 Q 672 552 840 526 Q 850 526 853 516 Q 853 507 819 488 C 805 480 785 484 770 490 Q 719 505 686 516 C 659 523 659 523 645 527 Q 583 537 544 547 C 532 549 530 582 542 582 Z"/>
    <path class="bg" d="M 554 351 Q 547 344 538 339 Q 512 324 499 332 Q 493 336 498 355 Q 511 398 509 430 Q 494 706 517 779 Q 523 804 548 826 Q 605 873 725 871 Q 806 869 862 851 Q 909 838 956 804 Q 975 789 960 763 Q 949 740 924 657 Q 923 641 916 637 Q 910 633 906 652 Q 884 739 868 768 Q 853 786 806 800 Q 733 822 661 810 Q 584 800 564 759 Q 537 706 542 582 C 543 559 543 559 544 547 Q 547 474 563 383 C 565 372 563 358 554 351 Z"/>
</g>
<g id="anim-layer">
    <path style="--d:1s; stroke:#FF4444;" pathLength="3333" clip-path="url(#z40067c1)" d="M 261 78 L 290 128 L 208 253 L 104 360"/>
    <path style="--d:2s; stroke:#FF4444;" pathLength="3333" clip-path="url(#z40067c2)" d="M 257 230 L 353 207 L 381 223 L 279 374"/>
    <path style="--d:3s; stroke:#FF4444;" pathLength="3333" clip-path="url(#z40067c3)" d="M 104 406 L 137 453 L 170 658"/>
    <path style="--d:4s; stroke:#FF4444;" pathLength="3333" clip-path="url(#z40067c4)" d="M 152 412 L 351 376 L 392 395 L 403 415 L 347 629"/>
    <path style="--d:5s; stroke:#FF4444;" pathLength="3333" clip-path="url(#z40067c5)" d="M 195 511 L 330 493"/>
    <path style="--d:6s; stroke:#FF4444;" pathLength="3333" clip-path="url(#z40067c6)" d="M 239 422 L 261 455 L 251 588"/>
    <path style="--d:7s; stroke:#FF4444;" pathLength="3333" clip-path="url(#z40067c7)" d="M 189 627 L 322 593"/>
    <path style="--d:8s; stroke:#FF4444;" pathLength="3333" clip-path="url(#z40067c8)" d="M 67 768 L 135 788 L 417 683"/>
    <path style="--d:9s; stroke:#000;" pathLength="3333" clip-path="url(#z40067c9)" d="M 560 354 L 769 309 L 825 326 L 838 349 L 786 489"/>
    <path style="--d:10s; stroke:#000;" pathLength="3333" clip-path="url(#z40067c10)" d="M 650 368 L 674 400 L 655 523"/>
    <path style="--d:11s; stroke:#000;" pathLength="3333" clip-path="url(#z40067c11)" d="M 549 574 L 755 517 L 846 513"/>
    <path style="--d:12s; stroke:#000;" pathLength="3333" clip-path="url(#z40067c12)" d="M 504 334 L 535 390 L 527 714 L 563 802 L 703 842 L 864 815 L 921 767 L 914 645"/>
</g>
</svg>