<svg id="z40074" class="acjk" viewBox="0 0 1024 1024" xmlns="http://www.w3.org/2000/svg">

<style>
<![CDATA[
@keyframes zk { to { stroke-dashoffset:0; } }
svg.acjk path[clip-path] {
    --t:0.8s;
    animation:zk var(--t) linear forwards var(--d);
    stroke-dasharray:3337;
    stroke-dashoffset:3339;
    stroke-width:128;
    stroke-linecap:round;
    fill:none;
}
/* Low opacity for background improves visual overlap at intersections */
svg.acjk .bg { fill:#ccc; opacity: 0.5; } 
]]>
</style>
<defs>
    <clipPath id="z40074c1"><path d="M 297 220 C 341 160 363 129 363 127 C 362 125 362 123 362 122 C 360 115 351 104 335 90 C 320 79 307 73 296 72 C 285 72 282 79 286 93 C 302 131 254 215 143 347 C 136 353 132 357 131 361 C 129 367 132 370 141 369 C 167 366 213 324 279 243 C 291 228 291 228 297 220 Z"/></clipPath>
    <clipPath id="z40074c2"><path d="M 341 380 C 411 292 451 243 463 235 C 473 227 475 220 467 213 C 458 205 443 195 420 184 C 414 181 383 191 328 211 C 326 211 315 214 297 220 C 288 224 269 241 279 243 C 289 247 317 243 364 234 C 368 233 371 233 373 235 C 375 237 375 241 373 249 C 351 305 339 328 313 386 C 309 395 335 388 341 380 Z"/></clipPath>
    <clipPath id="z40074c3"><path d="M 175 420 C 168 417 160 415 150 413 C 142 410 137 410 135 414 C 130 418 130 425 136 435 C 154 479 168 537 178 609 C 178 629 185 647 197 663 C 207 677 215 679 219 669 C 219 665 220 660 222 656 C 225 648 226 639 224 630 C 223 621 222 611 221 599 C 208 516 201 465 200 447 C 200 435 186 425 175 420 Z"/></clipPath>
    <clipPath id="z40074c4"><path d="M 373 630 C 381 640 389 648 397 652 C 403 656 411 652 419 640 C 429 622 441 566 459 473 C 462 454 472 438 486 423 C 492 416 493 408 486 400 C 477 390 460 378 434 364 C 422 358 412 359 403 363 C 386 368 357 376 341 380 C 322 384 322 384 313 386 C 292 390 198 414 175 420 C 163 422 189 452 200 447 C 218 440 242 432 272 426 C 290 422 290 422 299 420 C 320 415 343 408 370 404 C 386 401 398 401 403 407 C 412 416 415 427 414 438 C 399 536 386 589 374 599 C 367 606 367 622 373 630 Z"/></clipPath>
    <clipPath id="z40074c5"><path d="M 327 524 C 343 520 358 517 374 515 C 386 512 390 507 385 500 C 378 492 368 487 354 486 C 347 485 339 486 329 488 C 299 497 299 497 284 502 C 265 508 248 513 233 519 C 224 521 225 527 237 535 C 237 535 253 534 285 532 C 313 527 313 527 327 524 Z"/></clipPath>
    <clipPath id="z40074c6"><path d="M 322 603 C 322 574 324 548 327 524 C 328 500 328 500 329 488 C 329 478 329 470 331 465 C 335 455 334 447 329 442 C 319 432 309 424 299 420 C 290 417 269 417 272 426 C 278 442 282 468 284 502 C 285 522 285 522 285 532 C 285 554 285 581 286 614 C 286 627 322 616 322 603 Z"/></clipPath>
    <clipPath id="z40074c7"><path d="M 222 656 C 226 656 232 655 238 654 C 266 645 311 637 373 630 C 383 628 383 604 374 599 C 373 598 372 597 371 597 C 362 593 346 595 322 603 C 298 610 298 610 286 614 C 263 618 242 624 224 630 C 216 633 213 656 222 656 Z"/></clipPath>
    <clipPath id="z40074c8"><path d="M 99 760 C 90 760 84 764 84 771 C 82 779 85 787 91 792 C 105 803 122 816 145 829 C 151 832 159 830 168 824 C 186 810 256 777 381 726 C 397 719 411 710 424 702 C 432 696 439 691 438 686 C 437 681 429 680 421 683 C 242 734 135 760 99 760 Z"/></clipPath>
    <clipPath id="z40074c9"><path d="M 580 345 Q 581 339 587 334 Q 627 273 670 182 Q 686 140 704 119 Q 711 109 706 96 Q 700 83 671 66 Q 643 51 625 54 Q 607 58 618 78 Q 660 150 483 434 Q 474 444 473 451 Q 472 461 484 458 Q 508 448 569 362 C 576 351 576 351 580 345 Z"/></clipPath>
    <clipPath id="z40074c10"><path d="M 668 375 Q 667 374 669 374 Q 904 317 912 311 Q 919 304 915 295 Q 908 285 880 278 Q 850 274 822 285 Q 771 304 716 319 Q 655 335 584 344 Q 581 344 580 345 C 573 346 563 359 569 362 Q 576 369 625 380 C 639 382 655 381 668 375 Z"/></clipPath>
    <clipPath id="z40074c11"><path d="M 684 618 Q 684 567 685 515 C 685 496 685 496 685 486 Q 686 434 692 409 Q 692 393 668 375 C 656 366 618 368 625 380 Q 650 416 632 715 Q 625 808 619 825 Q 604 862 654 929 Q 658 935 664 938 Q 676 939 681 926 Q 693 893 689 863 Q 685 748 684 648 C 684 628 684 628 684 618 Z"/></clipPath>
    <clipPath id="z40074c12"><path d="M 685 515 Q 730 522 848 494 Q 855 487 851 479 Q 844 469 817 462 Q 802 459 727 478 Q 706 482 685 486 C 675 488 676 513 685 515 Z"/></clipPath>
    <clipPath id="z40074c13"><path d="M 684 648 Q 742 657 858 630 C 859 630 859 630 859 630 Q 866 623 863 615 Q 856 605 830 597 Q 817 594 734 612 Q 710 615 684 618 C 674 620 674 646 684 648 Z"/></clipPath>
</defs>
<g id="bg-layer">
    <path class="bg" d="M 297 220 C 341 160 363 129 363 127 C 362 125 362 123 362 122 C 360 115 351 104 335 90 C 320 79 307 73 296 72 C 285 72 282 79 286 93 C 302 131 254 215 143 347 C 136 353 132 357 131 361 C 129 367 132 370 141 369 C 167 366 213 324 279 243 C 291 228 291 228 297 220 Z"/>
    <path class="bg" d="M 341 380 C 411 292 451 243 463 235 C 473 227 475 220 467 213 C 458 205 443 195 420 184 C 414 181 383 191 328 211 C 326 211 315 214 297 220 C 288 224 269 241 279 243 C 289 247 317 243 364 234 C 368 233 371 233 373 235 C 375 237 375 241 373 249 C 351 305 339 328 313 386 C 309 395 335 388 341 380 Z"/>
    <path class="bg" d="M 175 420 C 168 417 160 415 150 413 C 142 410 137 410 135 414 C 130 418 130 425 136 435 C 154 479 168 537 178 609 C 178 629 185 647 197 663 C 207 677 215 679 219 669 C 219 665 220 660 222 656 C 225 648 226 639 224 630 C 223 621 222 611 221 599 C 208 516 201 465 200 447 C 200 435 186 425 175 420 Z"/>
    <path class="bg" d="M 373 630 C 381 640 389 648 397 652 C 403 656 411 652 419 640 C 429 622 441 566 459 473 C 462 454 472 438 486 423 C 492 416 493 408 486 400 C 477 390 460 378 434 364 C 422 358 412 359 403 363 C 386 368 357 376 341 380 C 322 384 322 384 313 386 C 292 390 198 414 175 420 C 163 422 189 452 200 447 C 218 440 242 432 272 426 C 290 422 290 422 299 420 C 320 415 343 408 370 404 C 386 401 398 401 403 407 C 412 416 415 427 414 438 C 399 536 386 589 374 599 C 367 606 367 622 373 630 Z"/>
    <path class="bg" d="M 327 524 C 343 520 358 517 374 515 C 386 512 390 507 385 500 C 378 492 368 487 354 486 C 347 485 339 486 329 488 C 299 497 299 497 284 502 C 265 508 248 513 233 519 C 224 521 225 527 237 535 C 237 535 253 534 285 532 C 313 527 313 527 327 524 Z"/>
    <path class="bg" d="M 322 603 C 322 574 324 548 327 524 C 328 500 328 500 329 488 C 329 478 329 470 331 465 C 335 455 334 447 329 442 C 319 432 309 424 299 420 C 290 417 269 417 272 426 C 278 442 282 468 284 502 C 285 522 285 522 285 532 C 285 554 285 581 286 614 C 286 627 322 616 322 603 Z"/>
    <path class="bg" d="M 222 656 C 226 656 232 655 238 654 C 266 645 311 637 373 630 C 383 628 383 604 374 599 C 373 598 372 597 371 597 C 362 593 346 595 322 603 C 298 610 298 610 286 614 C 263 618 242 624 224 630 C 216 633 213 656 222 656 Z"/>
    <path class="bg" d="M 99 760 C 90 760 84 764 84 771 C 82 779 85 787 91 792 C 105 803 122 816 145 829 C 151 832 159 830 168 824 C 186 810 256 777 381 726 C 397 719 411 710 424 702 C 432 696 439 691 438 686 C 437 681 429 680 421 683 C 242 734 135 760 99 760 Z"/>
    <path class="bg" d="M 580 345 Q 581 339 587 334 Q 627 273 670 182 Q 686 140 704 119 Q 711 109 706 96 Q 700 83 671 66 Q 643 51 625 54 Q 607 58 618 78 Q 660 150 483 434 Q 474 444 473 451 Q 472 461 484 458 Q 508 448 569 362 C 576 351 576 351 580 345 Z"/>
    <path class="bg" d="M 668 375 Q 667 374 669 374 Q 904 317 912 311 Q 919 304 915 295 Q 908 285 880 278 Q 850 274 822 285 Q 771 304 716 319 Q 655 335 584 344 Q 581 344 580 345 C 573 346 563 359 569 362 Q 576 369 625 380 C 639 382 655 381 668 375 Z"/>
    <path class="bg" d="M 684 618 Q 684 567 685 515 C 685 496 685 496 685 486 Q 686 434 692 409 Q 692 393 668 375 C 656 366 618 368 625 380 Q 650 416 632 715 Q 625 808 619 825 Q 604 862 654 929 Q 658 935 664 938 Q 676 939 681 926 Q 693 893 689 863 Q 685 748 684 648 C 684 628 684 628 684 618 Z"/>
    <path class="bg" d="M 685 515 Q 730 522 848 494 Q 855 487 851 479 Q 844 469 817 462 Q 802 459 727 478 Q 706 482 685 486 C 675 488 676 513 685 515 Z"/>
    <path class="bg" d="M 684 648 Q 742 657 858 630 C 859 630 859 630 859 630 Q 866 623 863 615 Q 856 605 830 597 Q 817 594 734 612 Q 710 615 684 618 C 674 620 674 646 684 648 Z"/>
</g>
<g id="anim-layer">
    <path style="--d:1s; stroke:#FF4444;" pathLength="3333" clip-path="url(#z40074c1)" d="M 292 78 L 320 136 L 229 272 L 136 362"/>
    <path style="--d:2s; stroke:#FF4444;" pathLength="3333" clip-path="url(#z40074c2)" d="M 289 239 L 385 211 L 422 232 L 323 380"/>
    <path style="--d:3s; stroke:#FF4444;" pathLength="3333" clip-path="url(#z40074c3)" d="M 140 420 L 175 461 L 212 669"/>
    <path style="--d:4s; stroke:#FF4444;" pathLength="3333" clip-path="url(#z40074c4)" d="M 182 420 L 406 382 L 442 405 L 396 649"/>
    <path style="--d:5s; stroke:#FF4444;" pathLength="3333" clip-path="url(#z40074c5)" d="M 233 524 L 378 503"/>
    <path style="--d:6s; stroke:#FF4444;" pathLength="3333" clip-path="url(#z40074c6)" d="M 279 429 L 307 463 L 300 609"/>
    <path style="--d:7s; stroke:#FF4444;" pathLength="3333" clip-path="url(#z40074c7)" d="M 227 648 L 372 611"/>
    <path style="--d:8s; stroke:#FF4444;" pathLength="3333" clip-path="url(#z40074c8)" d="M 90 770 L 158 790 L 427 689"/>
    <path style="--d:9s; stroke:#000;" pathLength="3333" clip-path="url(#z40074c9)" d="M 621 59 L 667 110 L 593 283 L 480 452"/>
    <path style="--d:10s; stroke:#000;" pathLength="3333" clip-path="url(#z40074c10)" d="M 578 360 L 912 300"/>
    <path style="--d:11s; stroke:#000;" pathLength="3333" clip-path="url(#z40074c11)" d="M 633 382 L 663 413 L 652 843 L 668 933"/>
    <path style="--d:12s; stroke:#000;" pathLength="3333" clip-path="url(#z40074c12)" d="M 690 508 L 845 481"/>
    <path style="--d:13s; stroke:#000;" pathLength="3333" clip-path="url(#z40074c13)" d="M 688 641 L 856 620"/>
</g>
</svg>