<svg id="z40078" class="acjk" viewBox="0 0 1024 1024" xmlns="http://www.w3.org/2000/svg">

<style>
<![CDATA[
@keyframes zk { to { stroke-dashoffset:0; } }
svg.acjk path[clip-path] {
    --t:0.8s;
    animation:zk var(--t) linear forwards var(--d);
    stroke-dasharray:3337;
    stroke-dashoffset:3339;
    stroke-width:128;
    stroke-linecap:round;
    fill:none;
}
/* Low opacity for background improves visual overlap at intersections */
svg.acjk .bg { fill:#ccc; opacity: 0.5; } 
]]>
</style>
<defs>
    <clipPath id="z40078c1"><path d="M 307 193 Q 326 212 346 235 Q 358 248 373 248 Q 383 248 389 235 Q 393 222 387 193 Q 383 177 358 164 Q 301 140 284 145 Q 280 149 280 161 Q 283 171 307 193 Z"/></clipPath>
    <clipPath id="z40078c2"><path d="M 441 140 Q 462 168 483 199 Q 492 212 505 216 Q 515 217 521 207 Q 528 195 526 169 Q 523 139 447 98 Q 434 92 428 93 Q 424 96 422 107 Q 423 117 441 140 Z"/></clipPath>
    <clipPath id="z40078c3"><path d="M 631 110 Q 607 156 558 230 Q 552 239 559 245 Q 568 246 575 240 Q 666 155 712 123 Q 731 116 725 104 Q 716 88 694 70 Q 672 54 647 54 Q 631 55 634 77 Q 638 92 631 110 Z"/></clipPath>
    <clipPath id="z40078c4"><path d="M 238 306 Q 228 284 218 276 Q 200 261 197 287 Q 203 323 142 382 Q 121 404 147 461 Q 160 488 182 461 Q 192 446 238 337 Q 239 334 240 332 C 243 324 241 314 238 306 Z"/></clipPath>
    <clipPath id="z40078c5"><path d="M 240 332 Q 268 351 297 344 Q 352 326 412 315 C 431 312 431 312 441 310 Q 691 265 737 276 Q 755 288 752 296 Q 752 299 721 377 Q 714 390 721 395 Q 728 399 745 386 Q 800 344 846 329 Q 885 314 883 305 Q 882 295 808 244 Q 786 228 711 240 Q 474 271 357 291 Q 300 300 243 305 Q 239 305 238 306 C 229 308 233 327 240 332 Z"/></clipPath>
    <clipPath id="z40078c6"><path d="M 412 315 Q 412 316 413 318 Q 420 342 367 412 Q 342 443 307 479 Q 300 485 297 489 Q 294 496 304 496 Q 332 496 432 398 C 442 387 442 387 447 381 Q 457 369 466 364 Q 473 357 472 347 Q 469 329 441 310 C 433 304 410 305 412 315 Z"/></clipPath>
    <clipPath id="z40078c7"><path d="M 432 398 Q 451 408 527 395 Q 534 394 537 396 Q 540 399 536 407 Q 506 474 487 505 Q 484 509 482 514 C 477 523 506 515 513 508 Q 609 411 626 401 Q 642 391 632 379 Q 619 367 585 347 Q 578 344 491 371 Q 458 378 447 381 C 440 382 425 395 432 398 Z"/></clipPath>
    <clipPath id="z40078c8"><path d="M 338 541 Q 326 537 300 531 Q 288 528 285 533 Q 278 540 287 555 Q 315 615 332 712 Q 335 740 352 760 Q 370 782 375 767 Q 376 760 378 752 C 378 735 378 735 378 726 Q 377 713 355 572 C 353 560 349 545 338 541 Z"/></clipPath>
    <clipPath id="z40078c9"><path d="M 482 514 Q 458 517 433 523 Q 381 533 338 541 C 326 543 345 578 355 572 Q 361 566 458 548 C 480 544 480 544 491 542 Q 606 517 624 532 Q 636 545 633 560 Q 608 684 594 699 C 588 707 577 719 583 727 Q 598 749 613 758 Q 623 765 637 746 Q 650 724 681 605 Q 688 577 711 554 Q 724 542 713 529 Q 700 513 659 489 Q 644 480 576 496 Q 555 499 513 508 C 492 512 492 512 482 514 Z"/></clipPath>
    <clipPath id="z40078c10"><path d="M 511 640 Q 545 633 576 629 Q 597 626 589 615 Q 579 602 557 598 Q 539 595 513 602 C 483 611 483 611 468 615 Q 431 624 398 633 Q 383 636 402 649 Q 406 653 469 646 C 497 642 497 642 511 640 Z"/></clipPath>
    <clipPath id="z40078c11"><path d="M 507 700 Q 508 667 511 640 C 512 615 512 615 513 602 Q 513 598 514 596 Q 514 560 498 547 Q 495 544 491 542 C 482 535 456 537 458 548 Q 465 572 468 615 C 469 636 469 636 469 646 Q 469 671 470 708 C 470 721 507 713 507 700 Z"/></clipPath>
    <clipPath id="z40078c12"><path d="M 378 752 Q 385 752 396 751 Q 502 735 583 727 C 593 725 603 703 594 699 Q 587 695 577 692 Q 550 686 507 700 C 482 705 482 705 470 708 Q 421 715 378 726 C 369 727 369 752 378 752 Z"/></clipPath>
    <clipPath id="z40078c13"><path d="M 501 873 Q 544 872 587 868 Q 686 859 817 872 Q 839 876 846 867 Q 853 854 842 843 Q 814 816 772 797 Q 759 791 734 798 Q 656 813 470 831 Q 209 853 175 854 Q 162 853 160 864 Q 159 876 177 890 Q 193 902 223 914 Q 233 918 250 911 Q 263 907 325 897 Q 403 881 501 873 Z"/></clipPath>
</defs>
<g id="bg-layer">
    <path class="bg" d="M 307 193 Q 326 212 346 235 Q 358 248 373 248 Q 383 248 389 235 Q 393 222 387 193 Q 383 177 358 164 Q 301 140 284 145 Q 280 149 280 161 Q 283 171 307 193 Z"/>
    <path class="bg" d="M 441 140 Q 462 168 483 199 Q 492 212 505 216 Q 515 217 521 207 Q 528 195 526 169 Q 523 139 447 98 Q 434 92 428 93 Q 424 96 422 107 Q 423 117 441 140 Z"/>
    <path class="bg" d="M 631 110 Q 607 156 558 230 Q 552 239 559 245 Q 568 246 575 240 Q 666 155 712 123 Q 731 116 725 104 Q 716 88 694 70 Q 672 54 647 54 Q 631 55 634 77 Q 638 92 631 110 Z"/>
    <path class="bg" d="M 238 306 Q 228 284 218 276 Q 200 261 197 287 Q 203 323 142 382 Q 121 404 147 461 Q 160 488 182 461 Q 192 446 238 337 Q 239 334 240 332 C 243 324 241 314 238 306 Z"/>
    <path class="bg" d="M 240 332 Q 268 351 297 344 Q 352 326 412 315 C 431 312 431 312 441 310 Q 691 265 737 276 Q 755 288 752 296 Q 752 299 721 377 Q 714 390 721 395 Q 728 399 745 386 Q 800 344 846 329 Q 885 314 883 305 Q 882 295 808 244 Q 786 228 711 240 Q 474 271 357 291 Q 300 300 243 305 Q 239 305 238 306 C 229 308 233 327 240 332 Z"/>
    <path class="bg" d="M 412 315 Q 412 316 413 318 Q 420 342 367 412 Q 342 443 307 479 Q 300 485 297 489 Q 294 496 304 496 Q 332 496 432 398 C 442 387 442 387 447 381 Q 457 369 466 364 Q 473 357 472 347 Q 469 329 441 310 C 433 304 410 305 412 315 Z"/>
    <path class="bg" d="M 432 398 Q 451 408 527 395 Q 534 394 537 396 Q 540 399 536 407 Q 506 474 487 505 Q 484 509 482 514 C 477 523 506 515 513 508 Q 609 411 626 401 Q 642 391 632 379 Q 619 367 585 347 Q 578 344 491 371 Q 458 378 447 381 C 440 382 425 395 432 398 Z"/>
    <path class="bg" d="M 338 541 Q 326 537 300 531 Q 288 528 285 533 Q 278 540 287 555 Q 315 615 332 712 Q 335 740 352 760 Q 370 782 375 767 Q 376 760 378 752 C 378 735 378 735 378 726 Q 377 713 355 572 C 353 560 349 545 338 541 Z"/>
    <path class="bg" d="M 482 514 Q 458 517 433 523 Q 381 533 338 541 C 326 543 345 578 355 572 Q 361 566 458 548 C 480 544 480 544 491 542 Q 606 517 624 532 Q 636 545 633 560 Q 608 684 594 699 C 588 707 577 719 583 727 Q 598 749 613 758 Q 623 765 637 746 Q 650 724 681 605 Q 688 577 711 554 Q 724 542 713 529 Q 700 513 659 489 Q 644 480 576 496 Q 555 499 513 508 C 492 512 492 512 482 514 Z"/>
    <path class="bg" d="M 511 640 Q 545 633 576 629 Q 597 626 589 615 Q 579 602 557 598 Q 539 595 513 602 C 483 611 483 611 468 615 Q 431 624 398 633 Q 383 636 402 649 Q 406 653 469 646 C 497 642 497 642 511 640 Z"/>
    <path class="bg" d="M 507 700 Q 508 667 511 640 C 512 615 512 615 513 602 Q 513 598 514 596 Q 514 560 498 547 Q 495 544 491 542 C 482 535 456 537 458 548 Q 465 572 468 615 C 469 636 469 636 469 646 Q 469 671 470 708 C 470 721 507 713 507 700 Z"/>
    <path class="bg" d="M 378 752 Q 385 752 396 751 Q 502 735 583 727 C 593 725 603 703 594 699 Q 587 695 577 692 Q 550 686 507 700 C 482 705 482 705 470 708 Q 421 715 378 726 C 369 727 369 752 378 752 Z"/>
    <path class="bg" d="M 501 873 Q 544 872 587 868 Q 686 859 817 872 Q 839 876 846 867 Q 853 854 842 843 Q 814 816 772 797 Q 759 791 734 798 Q 656 813 470 831 Q 209 853 175 854 Q 162 853 160 864 Q 159 876 177 890 Q 193 902 223 914 Q 233 918 250 911 Q 263 907 325 897 Q 403 881 501 873 Z"/>
</g>
<g id="anim-layer">
    <path style="--d:1s; stroke:#FF4444;" pathLength="3333" clip-path="url(#z40078c1)" d="M 287 152 L 382 238"/>
    <path style="--d:2s; stroke:#FF4444;" pathLength="3333" clip-path="url(#z40078c2)" d="M 430 101 L 511 210"/>
    <path style="--d:3s; stroke:#FF4444;" pathLength="3333" clip-path="url(#z40078c3)" d="M 643 61 L 678 110 L 562 240"/>
    <path style="--d:4s; stroke:#FF4444;" pathLength="3333" clip-path="url(#z40078c4)" d="M 206 277 L 216 324 L 154 467"/>
    <path style="--d:5s; stroke:#FF4444;" pathLength="3333" clip-path="url(#z40078c5)" d="M 246 313 L 295 322 L 753 256 L 829 312 L 728 388"/>
    <path style="--d:6s; stroke:#000;" pathLength="3333" clip-path="url(#z40078c6)" d="M 419 320 L 437 357 L 308 488"/>
    <path style="--d:7s; stroke:#000;" pathLength="3333" clip-path="url(#z40078c7)" d="M 443 394 L 545 373 L 584 398 L 489 507"/>
    <path style="--d:8s; stroke:#000;" pathLength="3333" clip-path="url(#z40078c8)" d="M 290 539 L 328 581 L 365 767"/>
    <path style="--d:9s; stroke:#000;" pathLength="3333" clip-path="url(#z40078c9)" d="M 348 545 L 600 508 L 656 521 L 675 552 L 611 754"/>
    <path style="--d:10s; stroke:#000;" pathLength="3333" clip-path="url(#z40078c10)" d="M 399 639 L 583 616"/>
    <path style="--d:11s; stroke:#000;" pathLength="3333" clip-path="url(#z40078c11)" d="M 466 550 L 489 589 L 489 703"/>
    <path style="--d:12s; stroke:#000;" pathLength="3333" clip-path="url(#z40078c12)" d="M 387 744 L 588 704"/>
    <path style="--d:13s; stroke:#000;" pathLength="3333" clip-path="url(#z40078c13)" d="M 166 866 L 236 882 L 739 831 L 844 855"/>
</g>
</svg>