<svg id="z40117" class="acjk" viewBox="0 0 1024 1024" xmlns="http://www.w3.org/2000/svg">

<style>
<![CDATA[
@keyframes zk { to { stroke-dashoffset:0; } }
svg.acjk path[clip-path] {
    --t:0.8s;
    animation:zk var(--t) linear forwards var(--d);
    stroke-dasharray:3337;
    stroke-dashoffset:3339;
    stroke-width:128;
    stroke-linecap:round;
    fill:none;
}
/* Low opacity for background improves visual overlap at intersections */
svg.acjk .bg { fill:#ccc; opacity: 0.5; } 
]]>
</style>
<defs>
    <clipPath id="z40117c1"><path d="M 264 228 Q 286 200 310 166 Q 326 138 341 126 Q 350 117 346 106 Q 342 96 320 76 Q 298 60 283 60 Q 267 61 274 80 Q 295 137 146 319 Q 137 326 136 332 Q 132 341 144 339 Q 171 335 235 261 Q 241 254 249 246 C 259 234 259 234 264 228 Z"/></clipPath>
    <clipPath id="z40117c2"><path d="M 299 381 Q 315 362 353 313 Q 386 267 420 241 Q 435 231 424 220 Q 412 210 379 193 Q 370 190 297 218 Q 273 225 264 228 C 257 231 242 244 249 246 Q 267 255 328 240 Q 334 239 335 241 Q 339 244 335 253 Q 305 331 286 367 Q 279 379 278 386 C 277 393 295 387 299 381 Z"/></clipPath>
    <clipPath id="z40117c3"><path d="M 159 413 Q 147 409 121 404 Q 111 400 107 405 Q 100 411 109 426 Q 137 487 153 587 Q 156 617 173 637 Q 189 658 194 643 Q 195 636 197 629 C 198 615 198 615 198 608 Q 198 602 173 440 C 171 430 169 415 159 413 Z"/></clipPath>
    <clipPath id="z40117c4"><path d="M 348 607 Q 361 623 373 630 Q 382 636 394 618 Q 407 594 430 466 Q 437 441 455 419 Q 465 409 456 398 Q 443 385 407 364 Q 389 355 299 381 C 285 384 285 384 278 386 Q 251 390 223 398 Q 187 407 159 413 C 149 415 163 443 173 440 Q 201 430 243 421 C 262 417 262 417 272 415 Q 363 391 377 404 Q 389 417 387 432 Q 366 573 350 581 C 344 587 343 600 348 607 Z"/></clipPath>
    <clipPath id="z40117c5"><path d="M 296 516 Q 321 509 346 507 Q 364 503 357 494 Q 348 484 329 480 Q 316 479 297 483 C 269 492 269 492 255 496 Q 230 503 209 510 Q 196 514 212 525 Q 215 526 256 523 C 283 518 283 518 296 516 Z"/></clipPath>
    <clipPath id="z40117c6"><path d="M 293 585 Q 294 548 296 516 C 297 494 297 494 297 483 Q 297 470 299 456 Q 305 437 272 415 C 264 410 239 412 243 421 Q 252 440 255 496 C 256 514 256 514 256 523 Q 256 551 259 594 C 259 606 293 597 293 585 Z"/></clipPath>
    <clipPath id="z40117c7"><path d="M 197 629 Q 201 629 206 629 Q 287 616 348 607 C 357 606 359 583 350 581 Q 346 580 343 579 Q 327 576 296 584 Q 293 584 293 585 C 270 591 270 591 259 594 Q 226 600 198 608 C 191 610 190 629 197 629 Z"/></clipPath>
    <clipPath id="z40117c8"><path d="M 100 738 Q 87 739 85 749 Q 82 762 91 770 Q 113 786 145 807 Q 155 811 167 803 Q 204 778 246 760 Q 309 736 371 710 Q 395 701 412 688 Q 425 681 426 672 Q 422 668 409 669 Q 294 702 148 735 Q 130 739 100 738 Z"/></clipPath>
    <clipPath id="z40117c9"><path d="M 504 287 Q 504 286 505 286 Q 553 255 579 231 Q 633 180 658 169 Q 679 157 667 141 Q 652 125 626 113 Q 601 101 589 105 Q 576 108 582 121 Q 588 148 497 274 Q 496 275 495 279 C 494 283 501 289 504 287 Z"/></clipPath>
    <clipPath id="z40117c10"><path d="M 538 495 Q 537 480 534 464 Q 527 430 522 402 C 519 385 519 385 518 377 Q 508 316 507 299 Q 507 290 504 287 C 503 283 499 280 495 279 Q 483 273 452 267 Q 440 264 437 269 Q 430 276 439 292 Q 472 362 489 475 Q 493 509 512 533 Q 530 555 535 539 Q 536 532 538 525 C 538 505 538 505 538 495 Z"/></clipPath>
    <clipPath id="z40117c11"><path d="M 522 402 Q 573 393 610 386 Q 629 382 621 371 Q 611 358 588 356 Q 567 355 531 369 Q 524 373 518 377 C 511 381 514 404 522 402 Z"/></clipPath>
    <clipPath id="z40117c12"><path d="M 756 505 Q 757 509 759 514 Q 763 529 775 527 Q 788 526 794 512 Q 810 485 833 362 Q 846 316 880 288 Q 896 273 882 259 Q 866 244 820 220 Q 802 211 714 234 Q 692 240 676 242 Q 663 241 660 246 Q 656 250 670 260 Q 698 275 715 270 Q 734 264 778 260 Q 785 259 788 261 Q 801 268 795 307 Q 791 332 786 355 C 783 373 783 373 782 382 Q 769 446 761 473 C 757 483 754 494 756 505 Z"/></clipPath>
    <clipPath id="z40117c13"><path d="M 786 355 Q 762 340 681 364 Q 680 364 679 365 Q 664 368 682 382 Q 686 386 697 385 Q 745 382 782 382 C 791 382 794 359 786 355 Z"/></clipPath>
    <clipPath id="z40117c14"><path d="M 667 512 Q 704 508 756 505 C 767 505 767 482 761 473 Q 760 470 756 468 Q 741 459 712 465 Q 615 486 538 495 C 528 497 528 523 538 525 Q 548 528 560 525 Q 590 518 637 515 C 657 513 657 513 667 512 Z"/></clipPath>
    <clipPath id="z40117c15"><path d="M 528 575 Q 540 687 368 827 Q 361 834 367 837 Q 391 846 464 795 Q 531 749 580 646 Q 589 630 600 613 Q 607 604 603 595 Q 597 585 569 567 Q 550 555 540 557 Q 527 560 528 575 Z"/></clipPath>
    <clipPath id="z40117c16"><path d="M 969 784 Q 957 756 943 674 Q 943 659 937 654 Q 931 651 927 667 Q 899 755 881 782 Q 874 794 847 800 Q 786 815 733 792 Q 712 782 706 768 Q 682 720 706 558 Q 712 527 667 512 C 658 508 637 505 637 515 Q 636 519 640 532 Q 653 571 652 608 Q 646 749 659 788 Q 668 830 736 855 Q 869 894 963 822 Q 981 809 969 784 Z"/></clipPath>
</defs>
<g id="bg-layer">
    <path class="bg" d="M 264 228 Q 286 200 310 166 Q 326 138 341 126 Q 350 117 346 106 Q 342 96 320 76 Q 298 60 283 60 Q 267 61 274 80 Q 295 137 146 319 Q 137 326 136 332 Q 132 341 144 339 Q 171 335 235 261 Q 241 254 249 246 C 259 234 259 234 264 228 Z"/>
    <path class="bg" d="M 299 381 Q 315 362 353 313 Q 386 267 420 241 Q 435 231 424 220 Q 412 210 379 193 Q 370 190 297 218 Q 273 225 264 228 C 257 231 242 244 249 246 Q 267 255 328 240 Q 334 239 335 241 Q 339 244 335 253 Q 305 331 286 367 Q 279 379 278 386 C 277 393 295 387 299 381 Z"/>
    <path class="bg" d="M 159 413 Q 147 409 121 404 Q 111 400 107 405 Q 100 411 109 426 Q 137 487 153 587 Q 156 617 173 637 Q 189 658 194 643 Q 195 636 197 629 C 198 615 198 615 198 608 Q 198 602 173 440 C 171 430 169 415 159 413 Z"/>
    <path class="bg" d="M 348 607 Q 361 623 373 630 Q 382 636 394 618 Q 407 594 430 466 Q 437 441 455 419 Q 465 409 456 398 Q 443 385 407 364 Q 389 355 299 381 C 285 384 285 384 278 386 Q 251 390 223 398 Q 187 407 159 413 C 149 415 163 443 173 440 Q 201 430 243 421 C 262 417 262 417 272 415 Q 363 391 377 404 Q 389 417 387 432 Q 366 573 350 581 C 344 587 343 600 348 607 Z"/>
    <path class="bg" d="M 296 516 Q 321 509 346 507 Q 364 503 357 494 Q 348 484 329 480 Q 316 479 297 483 C 269 492 269 492 255 496 Q 230 503 209 510 Q 196 514 212 525 Q 215 526 256 523 C 283 518 283 518 296 516 Z"/>
    <path class="bg" d="M 293 585 Q 294 548 296 516 C 297 494 297 494 297 483 Q 297 470 299 456 Q 305 437 272 415 C 264 410 239 412 243 421 Q 252 440 255 496 C 256 514 256 514 256 523 Q 256 551 259 594 C 259 606 293 597 293 585 Z"/>
    <path class="bg" d="M 197 629 Q 201 629 206 629 Q 287 616 348 607 C 357 606 359 583 350 581 Q 346 580 343 579 Q 327 576 296 584 Q 293 584 293 585 C 270 591 270 591 259 594 Q 226 600 198 608 C 191 610 190 629 197 629 Z"/>
    <path class="bg" d="M 100 738 Q 87 739 85 749 Q 82 762 91 770 Q 113 786 145 807 Q 155 811 167 803 Q 204 778 246 760 Q 309 736 371 710 Q 395 701 412 688 Q 425 681 426 672 Q 422 668 409 669 Q 294 702 148 735 Q 130 739 100 738 Z"/>
    <path class="bg" d="M 504 287 Q 504 286 505 286 Q 553 255 579 231 Q 633 180 658 169 Q 679 157 667 141 Q 652 125 626 113 Q 601 101 589 105 Q 576 108 582 121 Q 588 148 497 274 Q 496 275 495 279 C 494 283 501 289 504 287 Z"/>
    <path class="bg" d="M 538 495 Q 537 480 534 464 Q 527 430 522 402 C 519 385 519 385 518 377 Q 508 316 507 299 Q 507 290 504 287 C 503 283 499 280 495 279 Q 483 273 452 267 Q 440 264 437 269 Q 430 276 439 292 Q 472 362 489 475 Q 493 509 512 533 Q 530 555 535 539 Q 536 532 538 525 C 538 505 538 505 538 495 Z"/>
    <path class="bg" d="M 522 402 Q 573 393 610 386 Q 629 382 621 371 Q 611 358 588 356 Q 567 355 531 369 Q 524 373 518 377 C 511 381 514 404 522 402 Z"/>
    <path class="bg" d="M 756 505 Q 757 509 759 514 Q 763 529 775 527 Q 788 526 794 512 Q 810 485 833 362 Q 846 316 880 288 Q 896 273 882 259 Q 866 244 820 220 Q 802 211 714 234 Q 692 240 676 242 Q 663 241 660 246 Q 656 250 670 260 Q 698 275 715 270 Q 734 264 778 260 Q 785 259 788 261 Q 801 268 795 307 Q 791 332 786 355 C 783 373 783 373 782 382 Q 769 446 761 473 C 757 483 754 494 756 505 Z"/>
    <path class="bg" d="M 786 355 Q 762 340 681 364 Q 680 364 679 365 Q 664 368 682 382 Q 686 386 697 385 Q 745 382 782 382 C 791 382 794 359 786 355 Z"/>
    <path class="bg" d="M 667 512 Q 704 508 756 505 C 767 505 767 482 761 473 Q 760 470 756 468 Q 741 459 712 465 Q 615 486 538 495 C 528 497 528 523 538 525 Q 548 528 560 525 Q 590 518 637 515 C 657 513 657 513 667 512 Z"/>
    <path class="bg" d="M 528 575 Q 540 687 368 827 Q 361 834 367 837 Q 391 846 464 795 Q 531 749 580 646 Q 589 630 600 613 Q 607 604 603 595 Q 597 585 569 567 Q 550 555 540 557 Q 527 560 528 575 Z"/>
    <path class="bg" d="M 969 784 Q 957 756 943 674 Q 943 659 937 654 Q 931 651 927 667 Q 899 755 881 782 Q 874 794 847 800 Q 786 815 733 792 Q 712 782 706 768 Q 682 720 706 558 Q 712 527 667 512 C 658 508 637 505 637 515 Q 636 519 640 532 Q 653 571 652 608 Q 646 749 659 788 Q 668 830 736 855 Q 869 894 963 822 Q 981 809 969 784 Z"/>
</g>
<g id="anim-layer">
    <path style="--d:1s; stroke:#FF4444;" pathLength="3333" clip-path="url(#z40117c1)" d="M 280 68 L 310 115 L 143 333"/>
    <path style="--d:2s; stroke:#FF4444;" pathLength="3333" clip-path="url(#z40117c2)" d="M 259 243 L 340 220 L 382 239 L 285 378"/>
    <path style="--d:3s; stroke:#FF4444;" pathLength="3333" clip-path="url(#z40117c3)" d="M 112 409 L 143 437 L 187 643"/>
    <path style="--d:4s; stroke:#FF4444;" pathLength="3333" clip-path="url(#z40117c4)" d="M 167 418 L 370 381 L 412 399 L 378 625"/>
    <path style="--d:5s; stroke:#FF4444;" pathLength="3333" clip-path="url(#z40117c5)" d="M 214 517 L 353 497"/>
    <path style="--d:6s; stroke:#FF4444;" pathLength="3333" clip-path="url(#z40117c6)" d="M 250 425 L 276 457 L 271 590"/>
    <path style="--d:7s; stroke:#FF4444;" pathLength="3333" clip-path="url(#z40117c7)" d="M 204 621 L 343 586"/>
    <path style="--d:8s; stroke:#FF4444;" pathLength="3333" clip-path="url(#z40117c8)" d="M 90 748 L 152 771 L 420 675"/>
    <path style="--d:9s; stroke:#000;" pathLength="3333" clip-path="url(#z40117c9)" d="M 586 110 L 620 159 L 504 277"/>
    <path style="--d:10s; stroke:#000;" pathLength="3333" clip-path="url(#z40117c10)" d="M 441 274 L 477 302 L 529 538"/>
    <path style="--d:11s; stroke:#000;" pathLength="3333" clip-path="url(#z40117c11)" d="M 528 394 L 616 376"/>
    <path style="--d:12s; stroke:#000;" pathLength="3333" clip-path="url(#z40117c12)" d="M 668 249 L 797 239 L 842 275 L 773 521"/>
    <path style="--d:13s; stroke:#000;" pathLength="3333" clip-path="url(#z40117c13)" d="M 679 371 L 781 363"/>
    <path style="--d:14s; stroke:#000;" pathLength="3333" clip-path="url(#z40117c14)" d="M 542 518 L 758 482"/>
    <path style="--d:15s; stroke:#000;" pathLength="3333" clip-path="url(#z40117c15)" d="M 536 563 L 565 607 L 519 702 L 374 829"/>
    <path style="--d:16s; stroke:#000;" pathLength="3333" clip-path="url(#z40117c16)" d="M 645 521 L 677 556 L 680 769 L 720 817 L 802 837 L 905 813 L 931 786 L 934 660"/>
</g>
</svg>