<svg id="z40143" class="acjk" viewBox="0 0 1024 1024" xmlns="http://www.w3.org/2000/svg">

<style>
<![CDATA[
@keyframes zk { to { stroke-dashoffset:0; } }
svg.acjk path[clip-path] {
    --t:0.8s;
    animation:zk var(--t) linear forwards var(--d);
    stroke-dasharray:3337;
    stroke-dashoffset:3339;
    stroke-width:128;
    stroke-linecap:round;
    fill:none;
}
/* Low opacity for background improves visual overlap at intersections */
svg.acjk .bg { fill:#ccc; opacity: 0.5; } 
]]>
</style>
<defs>
    <clipPath id="z40143c1"><path d="M 281 216 Q 333 143 349 130 Q 356 121 353 110 Q 350 100 328 80 Q 306 64 291 64 Q 275 65 281 83 Q 290 101 283 117 Q 261 169 229 217 Q 198 263 154 315 Q 147 322 144 328 Q 140 337 152 335 Q 191 329 265 235 C 276 222 276 222 281 216 Z"/></clipPath>
    <clipPath id="z40143c2"><path d="M 310 380 Q 412 269 449 246 Q 467 237 456 224 Q 443 211 408 189 Q 392 182 378 191 Q 371 194 310 211 Q 297 214 281 216 C 273 217 258 231 265 235 Q 278 247 346 237 Q 353 236 354 237 Q 358 241 352 252 Q 307 339 276 387 C 270 397 303 389 310 380 Z"/></clipPath>
    <clipPath id="z40143c3"><path d="M 163 413 Q 153 409 126 404 Q 116 401 112 406 Q 108 412 115 426 Q 146 489 164 591 Q 168 622 185 642 Q 201 661 206 647 Q 207 641 208 635 C 208 615 208 615 208 605 Q 207 593 204 580 Q 180 471 176 439 C 174 429 172 417 163 413 Z"/></clipPath>
    <clipPath id="z40143c4"><path d="M 354 613 Q 367 635 381 642 Q 390 648 402 631 Q 418 604 447 463 Q 454 438 473 417 Q 483 407 474 395 Q 461 382 426 360 Q 408 351 310 380 C 287 385 287 385 276 387 Q 260 390 243 394 Q 198 404 163 413 C 153 415 166 441 176 439 Q 180 439 188 437 Q 216 427 261 418 C 284 413 284 413 295 410 Q 382 388 397 399 Q 410 415 407 431 Q 379 575 365 589 C 360 596 349 606 354 613 Z"/></clipPath>
    <clipPath id="z40143c5"><path d="M 307 510 Q 331 504 354 501 Q 373 497 365 486 Q 355 474 334 472 Q 324 471 308 474 C 282 482 282 482 269 486 Q 239 496 213 505 Q 200 509 217 521 C 252 518 252 518 270 517 C 295 512 295 512 307 510 Z"/></clipPath>
    <clipPath id="z40143c6"><path d="M 304 581 Q 305 542 307 510 C 308 486 308 486 308 474 Q 308 458 310 441 Q 314 426 295 410 C 287 402 257 407 261 418 Q 265 427 269 486 C 270 507 270 507 270 517 Q 270 545 272 590 C 272 601 304 592 304 581 Z"/></clipPath>
    <clipPath id="z40143c7"><path d="M 208 635 Q 214 635 221 634 Q 264 622 354 613 C 363 612 371 595 365 589 Q 361 585 350 578 Q 335 571 309 579 Q 305 580 304 581 C 283 587 283 587 272 590 Q 236 597 208 605 C 198 607 198 635 208 635 Z"/></clipPath>
    <clipPath id="z40143c8"><path d="M 111 738 Q 99 739 97 748 Q 96 760 103 768 Q 124 783 152 801 Q 162 805 173 797 Q 200 778 352 715 Q 374 708 389 696 Q 401 689 402 681 Q 398 677 386 678 Q 158 739 111 738 Z"/></clipPath>
    <clipPath id="z40143c9"><path d="M 505 179 Q 499 178 494 177 Q 484 174 480 179 Q 476 185 483 199 Q 511 248 530 333 Q 534 358 549 374 Q 565 393 570 379 Q 571 375 572 368 C 571 351 571 351 571 342 Q 570 333 568 324 Q 547 227 544 205 C 541 190 520 182 505 179 Z"/></clipPath>
    <clipPath id="z40143c10"><path d="M 777 342 Q 789 361 800 370 Q 809 377 824 360 Q 837 344 872 246 Q 882 219 904 199 Q 917 189 908 177 Q 895 161 860 135 Q 847 126 772 141 Q 757 141 630 160 Q 566 172 515 176 Q 508 176 505 179 C 490 185 529 211 544 205 Q 547 202 610 191 C 624 189 624 189 631 188 Q 665 181 711 175 C 739 172 739 172 753 170 Q 766 167 783 166 Q 816 162 826 173 Q 835 186 831 197 Q 800 306 784 314 C 777 321 771 334 777 342 Z"/></clipPath>
    <clipPath id="z40143c11"><path d="M 656 328 Q 656 327 657 325 Q 660 276 634 193 Q 633 190 631 188 C 627 182 610 184 610 191 Q 620 314 639 332 C 643 337 655 334 656 328 Z"/></clipPath>
    <clipPath id="z40143c12"><path d="M 728 312 Q 750 243 771 203 Q 780 193 772 185 Q 766 178 753 170 C 741 163 706 162 711 175 Q 726 203 701 309 Q 700 313 699 319 C 697 329 724 321 728 312 Z"/></clipPath>
    <clipPath id="z40143c13"><path d="M 572 368 Q 579 368 589 367 Q 649 352 777 342 C 787 342 792 320 784 314 Q 783 313 780 310 Q 767 303 728 312 C 709 317 709 317 699 319 Q 677 323 656 328 C 645 331 645 331 639 332 Q 602 336 571 342 C 562 344 563 368 572 368 Z"/></clipPath>
    <clipPath id="z40143c14"><path d="M 639 405 Q 667 448 641 735 Q 626 843 634 867 Q 646 915 672 930 Q 684 931 689 919 Q 702 886 698 855 Q 695 515 707 437 Q 710 424 703 418 Q 679 397 660 388 Q 647 384 638 391 Q 632 395 639 405 Z"/></clipPath>
    <clipPath id="z40143c15"><path d="M 521 473 Q 521 510 443 602 Q 427 615 448 610 Q 490 606 557 523 Q 573 502 581 493 Q 588 483 585 476 Q 581 466 560 462 Q 538 458 528 460 Q 522 463 521 473 Z"/></clipPath>
    <clipPath id="z40143c16"><path d="M 539 598 Q 533 670 383 825 Q 367 840 389 834 Q 468 812 564 672 Q 589 635 602 619 Q 609 609 607 600 Q 603 590 580 586 Q 555 580 546 584 Q 539 585 539 598 Z"/></clipPath>
    <clipPath id="z40143c17"><path d="M 785 495 Q 818 520 854 550 Q 867 560 880 560 Q 889 559 893 548 Q 897 535 888 509 Q 876 478 779 453 Q 766 452 760 453 Q 756 457 757 468 Q 761 478 785 495 Z"/></clipPath>
    <clipPath id="z40143c18"><path d="M 766 633 Q 815 684 875 757 Q 888 776 902 781 Q 909 782 917 774 Q 929 762 920 722 Q 911 671 769 605 Q 762 599 759 611 Q 758 623 766 633 Z"/></clipPath>
</defs>
<g id="bg-layer">
    <path class="bg" d="M 281 216 Q 333 143 349 130 Q 356 121 353 110 Q 350 100 328 80 Q 306 64 291 64 Q 275 65 281 83 Q 290 101 283 117 Q 261 169 229 217 Q 198 263 154 315 Q 147 322 144 328 Q 140 337 152 335 Q 191 329 265 235 C 276 222 276 222 281 216 Z"/>
    <path class="bg" d="M 310 380 Q 412 269 449 246 Q 467 237 456 224 Q 443 211 408 189 Q 392 182 378 191 Q 371 194 310 211 Q 297 214 281 216 C 273 217 258 231 265 235 Q 278 247 346 237 Q 353 236 354 237 Q 358 241 352 252 Q 307 339 276 387 C 270 397 303 389 310 380 Z"/>
    <path class="bg" d="M 163 413 Q 153 409 126 404 Q 116 401 112 406 Q 108 412 115 426 Q 146 489 164 591 Q 168 622 185 642 Q 201 661 206 647 Q 207 641 208 635 C 208 615 208 615 208 605 Q 207 593 204 580 Q 180 471 176 439 C 174 429 172 417 163 413 Z"/>
    <path class="bg" d="M 354 613 Q 367 635 381 642 Q 390 648 402 631 Q 418 604 447 463 Q 454 438 473 417 Q 483 407 474 395 Q 461 382 426 360 Q 408 351 310 380 C 287 385 287 385 276 387 Q 260 390 243 394 Q 198 404 163 413 C 153 415 166 441 176 439 Q 180 439 188 437 Q 216 427 261 418 C 284 413 284 413 295 410 Q 382 388 397 399 Q 410 415 407 431 Q 379 575 365 589 C 360 596 349 606 354 613 Z"/>
    <path class="bg" d="M 307 510 Q 331 504 354 501 Q 373 497 365 486 Q 355 474 334 472 Q 324 471 308 474 C 282 482 282 482 269 486 Q 239 496 213 505 Q 200 509 217 521 C 252 518 252 518 270 517 C 295 512 295 512 307 510 Z"/>
    <path class="bg" d="M 304 581 Q 305 542 307 510 C 308 486 308 486 308 474 Q 308 458 310 441 Q 314 426 295 410 C 287 402 257 407 261 418 Q 265 427 269 486 C 270 507 270 507 270 517 Q 270 545 272 590 C 272 601 304 592 304 581 Z"/>
    <path class="bg" d="M 208 635 Q 214 635 221 634 Q 264 622 354 613 C 363 612 371 595 365 589 Q 361 585 350 578 Q 335 571 309 579 Q 305 580 304 581 C 283 587 283 587 272 590 Q 236 597 208 605 C 198 607 198 635 208 635 Z"/>
    <path class="bg" d="M 111 738 Q 99 739 97 748 Q 96 760 103 768 Q 124 783 152 801 Q 162 805 173 797 Q 200 778 352 715 Q 374 708 389 696 Q 401 689 402 681 Q 398 677 386 678 Q 158 739 111 738 Z"/>
    <path class="bg" d="M 505 179 Q 499 178 494 177 Q 484 174 480 179 Q 476 185 483 199 Q 511 248 530 333 Q 534 358 549 374 Q 565 393 570 379 Q 571 375 572 368 C 571 351 571 351 571 342 Q 570 333 568 324 Q 547 227 544 205 C 541 190 520 182 505 179 Z"/>
    <path class="bg" d="M 777 342 Q 789 361 800 370 Q 809 377 824 360 Q 837 344 872 246 Q 882 219 904 199 Q 917 189 908 177 Q 895 161 860 135 Q 847 126 772 141 Q 757 141 630 160 Q 566 172 515 176 Q 508 176 505 179 C 490 185 529 211 544 205 Q 547 202 610 191 C 624 189 624 189 631 188 Q 665 181 711 175 C 739 172 739 172 753 170 Q 766 167 783 166 Q 816 162 826 173 Q 835 186 831 197 Q 800 306 784 314 C 777 321 771 334 777 342 Z"/>
    <path class="bg" d="M 656 328 Q 656 327 657 325 Q 660 276 634 193 Q 633 190 631 188 C 627 182 610 184 610 191 Q 620 314 639 332 C 643 337 655 334 656 328 Z"/>
    <path class="bg" d="M 728 312 Q 750 243 771 203 Q 780 193 772 185 Q 766 178 753 170 C 741 163 706 162 711 175 Q 726 203 701 309 Q 700 313 699 319 C 697 329 724 321 728 312 Z"/>
    <path class="bg" d="M 572 368 Q 579 368 589 367 Q 649 352 777 342 C 787 342 792 320 784 314 Q 783 313 780 310 Q 767 303 728 312 C 709 317 709 317 699 319 Q 677 323 656 328 C 645 331 645 331 639 332 Q 602 336 571 342 C 562 344 563 368 572 368 Z"/>
    <path class="bg" d="M 639 405 Q 667 448 641 735 Q 626 843 634 867 Q 646 915 672 930 Q 684 931 689 919 Q 702 886 698 855 Q 695 515 707 437 Q 710 424 703 418 Q 679 397 660 388 Q 647 384 638 391 Q 632 395 639 405 Z"/>
    <path class="bg" d="M 521 473 Q 521 510 443 602 Q 427 615 448 610 Q 490 606 557 523 Q 573 502 581 493 Q 588 483 585 476 Q 581 466 560 462 Q 538 458 528 460 Q 522 463 521 473 Z"/>
    <path class="bg" d="M 539 598 Q 533 670 383 825 Q 367 840 389 834 Q 468 812 564 672 Q 589 635 602 619 Q 609 609 607 600 Q 603 590 580 586 Q 555 580 546 584 Q 539 585 539 598 Z"/>
    <path class="bg" d="M 785 495 Q 818 520 854 550 Q 867 560 880 560 Q 889 559 893 548 Q 897 535 888 509 Q 876 478 779 453 Q 766 452 760 453 Q 756 457 757 468 Q 761 478 785 495 Z"/>
    <path class="bg" d="M 766 633 Q 815 684 875 757 Q 888 776 902 781 Q 909 782 917 774 Q 929 762 920 722 Q 911 671 769 605 Q 762 599 759 611 Q 758 623 766 633 Z"/>
</g>
<g id="anim-layer">
    <path style="--d:1s; stroke:#FF4444;" pathLength="3333" clip-path="url(#z40143c1)" d="M 287 70 L 318 119 L 153 328"/>
    <path style="--d:2s; stroke:#FF4444;" pathLength="3333" clip-path="url(#z40143c2)" d="M 272 232 L 373 212 L 406 242 L 286 382"/>
    <path style="--d:3s; stroke:#FF4444;" pathLength="3333" clip-path="url(#z40143c3)" d="M 119 414 L 151 446 L 201 647"/>
    <path style="--d:4s; stroke:#FF4444;" pathLength="3333" clip-path="url(#z40143c4)" d="M 171 418 L 385 377 L 435 400 L 379 637"/>
    <path style="--d:5s; stroke:#FF4444;" pathLength="3333" clip-path="url(#z40143c5)" d="M 212 510 L 358 489"/>
    <path style="--d:6s; stroke:#FF4444;" pathLength="3333" clip-path="url(#z40143c6)" d="M 269 423 L 289 449 L 286 585"/>
    <path style="--d:7s; stroke:#FF4444;" pathLength="3333" clip-path="url(#z40143c7)" d="M 216 626 L 359 595"/>
    <path style="--d:8s; stroke:#FF4444;" pathLength="3333" clip-path="url(#z40143c8)" d="M 104 752 L 160 767 L 395 683"/>
    <path style="--d:9s; stroke:#000;" pathLength="3333" clip-path="url(#z40143c9)" d="M 487 186 L 520 216 L 558 379"/>
    <path style="--d:10s; stroke:#000;" pathLength="3333" clip-path="url(#z40143c10)" d="M 514 179 L 845 157 L 870 194 L 797 366"/>
    <path style="--d:11s; stroke:#000;" pathLength="3333" clip-path="url(#z40143c11)" d="M 616 197 L 647 326"/>
    <path style="--d:12s; stroke:#000;" pathLength="3333" clip-path="url(#z40143c12)" d="M 719 179 L 745 210 L 706 311"/>
    <path style="--d:13s; stroke:#000;" pathLength="3333" clip-path="url(#z40143c13)" d="M 575 361 L 779 321"/>
    <path style="--d:14s; stroke:#000;" pathLength="3333" clip-path="url(#z40143c14)" d="M 643 393 L 678 435 L 672 924"/>
    <path style="--d:15s; stroke:#000;" pathLength="3333" clip-path="url(#z40143c15)" d="M 580 478 L 544 488 L 446 602"/>
    <path style="--d:16s; stroke:#000;" pathLength="3333" clip-path="url(#z40143c16)" d="M 601 601 L 562 616 L 488 737 L 386 828"/>
    <path style="--d:17s; stroke:#000;" pathLength="3333" clip-path="url(#z40143c17)" d="M 766 463 L 889 549"/>
    <path style="--d:18s; stroke:#000;" pathLength="3333" clip-path="url(#z40143c18)" d="M 767 614 L 873 704 L 909 776"/>
</g>
</svg>