<svg id="z40482" class="acjk" viewBox="0 0 1024 1024" xmlns="http://www.w3.org/2000/svg">

<style>
<![CDATA[
@keyframes zk { to { stroke-dashoffset:0; } }
svg.acjk path[clip-path] {
    --t:0.8s;
    animation:zk var(--t) linear forwards var(--d);
    stroke-dasharray:3337;
    stroke-dashoffset:3339;
    stroke-width:128;
    stroke-linecap:round;
    fill:none;
}
/* Low opacity for background improves visual overlap at intersections */
svg.acjk .bg { fill:#ccc; opacity: 0.5; } 
]]>
</style>
<defs>
    <clipPath id="z40482c1"><path d="M 531 222 Q 550 215 573 211 Q 628 196 635 189 Q 645 180 639 172 Q 632 160 602 153 Q 563 147 500 177 C 473 186 473 186 459 190 Q 314 226 249 234 Q 212 241 239 257 Q 284 281 339 266 Q 412 248 489 231 C 517 225 517 225 531 222 Z"/></clipPath>
    <clipPath id="z40482c2"><path d="M 489 231 Q 631 408 776 442 Q 843 457 856 440 Q 869 428 854 401 Q 844 377 825 286 Q 824 268 818 266 Q 814 266 812 282 Q 788 378 762 379 Q 651 358 531 222 C 510 192 510 192 500 177 Q 470 129 466 96 Q 463 74 423 71 Q 390 68 378 77 Q 365 86 382 102 Q 403 114 459 190 C 479 217 479 217 489 231 Z"/></clipPath>
    <clipPath id="z40482c3"><path d="M 627 121 Q 654 139 682 161 Q 695 171 709 169 Q 718 168 721 156 Q 724 143 713 118 Q 701 91 618 80 Q 605 79 600 81 Q 596 85 598 96 Q 602 106 627 121 Z"/></clipPath>
    <clipPath id="z40482c4"><path d="M 366 433 Q 426 393 458 368 Q 474 355 493 346 Q 511 337 502 323 Q 490 310 469 297 Q 448 287 438 289 Q 428 290 431 301 Q 434 328 393 375 Q 374 399 353 424 C 349 428 362 436 366 433 Z"/></clipPath>
    <clipPath id="z40482c5"><path d="M 382 474 Q 424 453 567 425 Q 576 424 583 428 Q 590 432 590 444 Q 589 474 577 526 Q 573 551 550 546 Q 522 543 500 540 Q 487 539 491 546 Q 492 553 516 569 Q 544 591 562 616 Q 568 623 576 622 Q 582 621 594 602 Q 610 580 628 502 Q 637 442 649 432 Q 656 422 651 413 Q 642 403 607 388 Q 598 384 549 397 Q 528 397 378 443 C 368 447 372 478 382 474 Z"/></clipPath>
    <clipPath id="z40482c6"><path d="M 418 501 Q 454 544 470 546 Q 480 547 484 534 Q 485 524 479 509 Q 464 488 421 481 Q 414 480 413 488 Q 412 494 418 501 Z"/></clipPath>
    <clipPath id="z40482c7"><path d="M 365 704 Q 396 685 453 675 Q 576 650 704 648 Q 737 644 751 657 Q 764 669 751 714 Q 745 751 737 792 Q 731 823 717 842 Q 707 855 681 851 Q 645 842 614 834 Q 598 830 599 837 Q 599 843 608 851 Q 666 905 687 942 Q 697 963 715 952 Q 773 921 783 873 Q 822 695 823 693 Q 827 681 835 671 Q 848 655 837 641 Q 818 619 780 598 Q 758 585 729 598 Q 674 617 622 621 Q 550 625 401 650 Q 376 654 373 632 Q 373 505 382 474 C 384 464 384 451 378 443 Q 374 436 366 433 C 357 427 357 427 353 424 Q 346 420 338 417 Q 319 411 311 420 Q 305 424 313 436 Q 329 479 322 633 Q 319 648 316 663 Q 310 684 325 700 Q 346 716 365 704 Z"/></clipPath>
    <clipPath id="z40482c8"><path d="M 425 784 Q 456 783 488 779 Q 558 770 658 779 Q 679 780 683 773 Q 690 761 679 751 Q 616 697 562 718 Q 271 763 171 766 Q 158 766 158 776 Q 157 786 174 799 Q 189 809 216 819 Q 226 823 241 815 Q 277 800 425 784 Z"/></clipPath>
</defs>
<g id="bg-layer">
    <path class="bg" d="M 531 222 Q 550 215 573 211 Q 628 196 635 189 Q 645 180 639 172 Q 632 160 602 153 Q 563 147 500 177 C 473 186 473 186 459 190 Q 314 226 249 234 Q 212 241 239 257 Q 284 281 339 266 Q 412 248 489 231 C 517 225 517 225 531 222 Z"/>
    <path class="bg" d="M 489 231 Q 631 408 776 442 Q 843 457 856 440 Q 869 428 854 401 Q 844 377 825 286 Q 824 268 818 266 Q 814 266 812 282 Q 788 378 762 379 Q 651 358 531 222 C 510 192 510 192 500 177 Q 470 129 466 96 Q 463 74 423 71 Q 390 68 378 77 Q 365 86 382 102 Q 403 114 459 190 C 479 217 479 217 489 231 Z"/>
    <path class="bg" d="M 627 121 Q 654 139 682 161 Q 695 171 709 169 Q 718 168 721 156 Q 724 143 713 118 Q 701 91 618 80 Q 605 79 600 81 Q 596 85 598 96 Q 602 106 627 121 Z"/>
    <path class="bg" d="M 366 433 Q 426 393 458 368 Q 474 355 493 346 Q 511 337 502 323 Q 490 310 469 297 Q 448 287 438 289 Q 428 290 431 301 Q 434 328 393 375 Q 374 399 353 424 C 349 428 362 436 366 433 Z"/>
    <path class="bg" d="M 382 474 Q 424 453 567 425 Q 576 424 583 428 Q 590 432 590 444 Q 589 474 577 526 Q 573 551 550 546 Q 522 543 500 540 Q 487 539 491 546 Q 492 553 516 569 Q 544 591 562 616 Q 568 623 576 622 Q 582 621 594 602 Q 610 580 628 502 Q 637 442 649 432 Q 656 422 651 413 Q 642 403 607 388 Q 598 384 549 397 Q 528 397 378 443 C 368 447 372 478 382 474 Z"/>
    <path class="bg" d="M 418 501 Q 454 544 470 546 Q 480 547 484 534 Q 485 524 479 509 Q 464 488 421 481 Q 414 480 413 488 Q 412 494 418 501 Z"/>
    <path class="bg" d="M 365 704 Q 396 685 453 675 Q 576 650 704 648 Q 737 644 751 657 Q 764 669 751 714 Q 745 751 737 792 Q 731 823 717 842 Q 707 855 681 851 Q 645 842 614 834 Q 598 830 599 837 Q 599 843 608 851 Q 666 905 687 942 Q 697 963 715 952 Q 773 921 783 873 Q 822 695 823 693 Q 827 681 835 671 Q 848 655 837 641 Q 818 619 780 598 Q 758 585 729 598 Q 674 617 622 621 Q 550 625 401 650 Q 376 654 373 632 Q 373 505 382 474 C 384 464 384 451 378 443 Q 374 436 366 433 C 357 427 357 427 353 424 Q 346 420 338 417 Q 319 411 311 420 Q 305 424 313 436 Q 329 479 322 633 Q 319 648 316 663 Q 310 684 325 700 Q 346 716 365 704 Z"/>
    <path class="bg" d="M 425 784 Q 456 783 488 779 Q 558 770 658 779 Q 679 780 683 773 Q 690 761 679 751 Q 616 697 562 718 Q 271 763 171 766 Q 158 766 158 776 Q 157 786 174 799 Q 189 809 216 819 Q 226 823 241 815 Q 277 800 425 784 Z"/>
</g>
<g id="anim-layer">
    <path style="--d:1s; stroke:#FF4444;" pathLength="3333" clip-path="url(#z40482c1)" d="M 236 245 L 309 248 L 636 176"/>
    <path style="--d:2s; stroke:#FF4444;" pathLength="3333" clip-path="url(#z40482c2)" d="M 379 83 L 436 108 L 592 313 L 707 390 L 820 401 L 819 277"/>
    <path style="--d:3s; stroke:#FF4444;" pathLength="3333" clip-path="url(#z40482c3)" d="M 605 89 L 715 162"/>
    <path style="--d:4s; stroke:#000;" pathLength="3333" clip-path="url(#z40482c4)" d="M 439 298 L 460 339 L 359 423"/>
    <path style="--d:5s; stroke:#000;" pathLength="3333" clip-path="url(#z40482c5)" d="M 386 465 L 523 417 L 607 414 L 620 437 L 578 576 L 498 546"/>
    <path style="--d:6s; stroke:#000;" pathLength="3333" clip-path="url(#z40482c6)" d="M 420 486 L 480 536"/>
    <path style="--d:7s; stroke:#000;" pathLength="3333" clip-path="url(#z40482c7)" d="M 318 422 L 349 457 L 358 676 L 728 622 L 790 646 L 763 819 L 731 886 L 698 904 L 609 840"/>
    <path style="--d:8s; stroke:#000;" pathLength="3333" clip-path="url(#z40482c8)" d="M 164 777 L 217 791 L 596 743 L 682 763"/>
</g>
</svg>