<svg id="z40483" class="acjk" viewBox="0 0 1024 1024" xmlns="http://www.w3.org/2000/svg">

<style>
<![CDATA[
@keyframes zk { to { stroke-dashoffset:0; } }
svg.acjk path[clip-path] {
    --t:0.8s;
    animation:zk var(--t) linear forwards var(--d);
    stroke-dasharray:3337;
    stroke-dashoffset:3339;
    stroke-width:128;
    stroke-linecap:round;
    fill:none;
}
/* Low opacity for background improves visual overlap at intersections */
svg.acjk .bg { fill:#ccc; opacity: 0.5; } 
]]>
</style>
<defs>
    <clipPath id="z40483c1"><path d="M 150 343 Q 138 336 109 331 Q 96 327 93 332 Q 86 338 94 354 Q 124 426 136 541 Q 137 575 156 600 Q 172 622 179 607 Q 188 585 183 546 C 180 525 180 525 179 514 Q 163 403 162 371 C 162 361 159 348 150 343 Z"/></clipPath>
    <clipPath id="z40483c2"><path d="M 319 483 Q 334 389 359 358 Q 380 333 356 319 Q 337 309 309 293 Q 290 283 272 295 Q 239 320 150 343 C 140 345 153 376 162 371 Q 166 365 249 346 Q 274 339 281 349 Q 290 356 284 394 Q 277 437 269 488 C 266 505 316 499 319 483 Z"/></clipPath>
    <clipPath id="z40483c3"><path d="M 183 546 Q 189 546 196 544 Q 241 531 339 517 Q 349 516 349 507 Q 349 500 319 483 C 305 474 285 483 269 488 Q 218 504 179 514 C 168 516 172 546 183 546 Z"/></clipPath>
    <clipPath id="z40483c4"><path d="M 499 218 Q 602 125 635 106 Q 654 96 642 79 Q 629 64 602 54 Q 578 44 567 47 Q 555 50 560 62 Q 566 87 498 188 Q 492 197 485 208 C 482 213 494 221 499 218 Z"/></clipPath>
    <clipPath id="z40483c5"><path d="M 516 261 Q 526 249 682 223 Q 692 222 699 227 Q 711 233 710 251 Q 709 296 688 375 Q 684 399 662 394 Q 632 390 609 385 Q 596 382 599 390 Q 600 399 624 416 Q 655 443 674 471 Q 681 481 691 477 Q 698 476 713 452 Q 731 425 746 347 Q 756 251 771 237 Q 781 228 776 218 Q 769 206 734 186 Q 721 177 659 192 Q 656 192 506 222 C 493 224 505 269 516 261 Z"/></clipPath>
    <clipPath id="z40483c6"><path d="M 534 307 Q 574 362 596 366 Q 606 367 613 352 Q 614 342 608 325 Q 593 298 538 285 Q 531 284 529 293 Q 528 300 534 307 Z"/></clipPath>
    <clipPath id="z40483c7"><path d="M 493 606 Q 517 591 566 580 Q 669 556 776 552 Q 809 549 822 563 Q 831 572 801 764 Q 794 822 767 858 Q 757 871 731 870 Q 683 857 642 846 Q 626 842 627 849 Q 627 855 637 863 Q 713 918 741 959 Q 751 980 769 969 Q 832 932 846 857 Q 865 757 879 646 Q 886 607 905 576 Q 918 560 906 546 Q 888 525 850 504 Q 828 491 799 504 Q 753 522 711 526 Q 651 532 529 552 Q 502 556 502 534 Q 502 302 516 261 C 521 249 518 229 506 222 Q 503 219 499 218 C 490 211 490 211 485 208 Q 478 204 469 200 Q 450 194 441 203 Q 434 209 443 221 Q 459 254 458 322 Q 457 377 456 445 Q 456 512 443 567 Q 437 588 453 603 Q 474 619 493 606 Z"/></clipPath>
    <clipPath id="z40483c8"><path d="M 517 723 Q 550 720 581 716 Q 647 707 750 712 Q 769 713 774 706 Q 781 696 770 686 Q 745 664 707 649 Q 695 645 674 652 Q 671 652 370 701 Q 330 708 266 712 Q 256 712 254 722 Q 254 732 270 743 Q 285 753 311 762 Q 320 765 335 758 Q 345 754 389 745 Q 446 732 517 723 Z"/></clipPath>
</defs>
<g id="bg-layer">
    <path class="bg" d="M 150 343 Q 138 336 109 331 Q 96 327 93 332 Q 86 338 94 354 Q 124 426 136 541 Q 137 575 156 600 Q 172 622 179 607 Q 188 585 183 546 C 180 525 180 525 179 514 Q 163 403 162 371 C 162 361 159 348 150 343 Z"/>
    <path class="bg" d="M 319 483 Q 334 389 359 358 Q 380 333 356 319 Q 337 309 309 293 Q 290 283 272 295 Q 239 320 150 343 C 140 345 153 376 162 371 Q 166 365 249 346 Q 274 339 281 349 Q 290 356 284 394 Q 277 437 269 488 C 266 505 316 499 319 483 Z"/>
    <path class="bg" d="M 183 546 Q 189 546 196 544 Q 241 531 339 517 Q 349 516 349 507 Q 349 500 319 483 C 305 474 285 483 269 488 Q 218 504 179 514 C 168 516 172 546 183 546 Z"/>
    <path class="bg" d="M 499 218 Q 602 125 635 106 Q 654 96 642 79 Q 629 64 602 54 Q 578 44 567 47 Q 555 50 560 62 Q 566 87 498 188 Q 492 197 485 208 C 482 213 494 221 499 218 Z"/>
    <path class="bg" d="M 516 261 Q 526 249 682 223 Q 692 222 699 227 Q 711 233 710 251 Q 709 296 688 375 Q 684 399 662 394 Q 632 390 609 385 Q 596 382 599 390 Q 600 399 624 416 Q 655 443 674 471 Q 681 481 691 477 Q 698 476 713 452 Q 731 425 746 347 Q 756 251 771 237 Q 781 228 776 218 Q 769 206 734 186 Q 721 177 659 192 Q 656 192 506 222 C 493 224 505 269 516 261 Z"/>
    <path class="bg" d="M 534 307 Q 574 362 596 366 Q 606 367 613 352 Q 614 342 608 325 Q 593 298 538 285 Q 531 284 529 293 Q 528 300 534 307 Z"/>
    <path class="bg" d="M 493 606 Q 517 591 566 580 Q 669 556 776 552 Q 809 549 822 563 Q 831 572 801 764 Q 794 822 767 858 Q 757 871 731 870 Q 683 857 642 846 Q 626 842 627 849 Q 627 855 637 863 Q 713 918 741 959 Q 751 980 769 969 Q 832 932 846 857 Q 865 757 879 646 Q 886 607 905 576 Q 918 560 906 546 Q 888 525 850 504 Q 828 491 799 504 Q 753 522 711 526 Q 651 532 529 552 Q 502 556 502 534 Q 502 302 516 261 C 521 249 518 229 506 222 Q 503 219 499 218 C 490 211 490 211 485 208 Q 478 204 469 200 Q 450 194 441 203 Q 434 209 443 221 Q 459 254 458 322 Q 457 377 456 445 Q 456 512 443 567 Q 437 588 453 603 Q 474 619 493 606 Z"/>
    <path class="bg" d="M 517 723 Q 550 720 581 716 Q 647 707 750 712 Q 769 713 774 706 Q 781 696 770 686 Q 745 664 707 649 Q 695 645 674 652 Q 671 652 370 701 Q 330 708 266 712 Q 256 712 254 722 Q 254 732 270 743 Q 285 753 311 762 Q 320 765 335 758 Q 345 754 389 745 Q 446 732 517 723 Z"/>
</g>
<g id="anim-layer">
    <path style="--d:1s; stroke:#FF4444;" pathLength="3333" clip-path="url(#z40483c1)" d="M 97 337 L 134 382 L 169 608"/>
    <path style="--d:2s; stroke:#FF4444;" pathLength="3333" clip-path="url(#z40483c2)" d="M 158 345 L 282 317 L 316 334 L 327 352 L 281 485"/>
    <path style="--d:3s; stroke:#FF4444;" pathLength="3333" clip-path="url(#z40483c3)" d="M 190 538 L 274 507 L 343 508"/>
    <path style="--d:4s; stroke:#000;" pathLength="3333" clip-path="url(#z40483c4)" d="M 568 54 L 598 97 L 496 212"/>
    <path style="--d:5s; stroke:#000;" pathLength="3333" clip-path="url(#z40483c5)" d="M 518 252 L 678 206 L 737 222 L 700 414 L 676 435 L 603 392"/>
    <path style="--d:6s; stroke:#000;" pathLength="3333" clip-path="url(#z40483c6)" d="M 536 293 L 608 353"/>
    <path style="--d:7s; stroke:#000;" pathLength="3333" clip-path="url(#z40483c7)" d="M 445 208 L 486 266 L 482 577 L 810 526 L 868 565 L 796 886 L 745 921 L 633 851"/>
    <path style="--d:8s; stroke:#000;" pathLength="3333" clip-path="url(#z40483c8)" d="M 261 723 L 318 735 L 692 679 L 768 696"/>
</g>
</svg>