<svg id="z40498" class="acjk" viewBox="0 0 1024 1024" xmlns="http://www.w3.org/2000/svg">

<style>
<![CDATA[
@keyframes zk { to { stroke-dashoffset:0; } }
svg.acjk path[clip-path] {
    --t:0.8s;
    animation:zk var(--t) linear forwards var(--d);
    stroke-dasharray:3337;
    stroke-dashoffset:3339;
    stroke-width:128;
    stroke-linecap:round;
    fill:none;
}
/* Low opacity for background improves visual overlap at intersections */
svg.acjk .bg { fill:#ccc; opacity: 0.5; } 
]]>
</style>
<defs>
    <clipPath id="z40498c1"><path d="M 221 332 Q 221 331 222 331 Q 256 282 290 209 Q 303 175 318 158 Q 325 148 320 137 Q 314 127 287 109 Q 262 96 246 99 Q 230 103 239 121 Q 263 155 203 286 Q 175 346 134 412 Q 127 422 125 428 Q 124 438 136 434 Q 155 428 203 360 C 215 341 215 341 221 332 Z"/></clipPath>
    <clipPath id="z40498c2"><path d="M 204 360 Q 226 373 246 366 Q 355 336 363 349 Q 370 365 370 408 Q 366 567 341 651 Q 328 705 312 722 Q 302 735 275 731 Q 245 727 218 721 Q 196 718 214 736 Q 257 775 282 806 Q 292 824 311 817 Q 329 813 351 786 Q 412 708 421 447 Q 422 387 443 351 Q 458 332 449 323 Q 434 307 402 294 Q 380 284 355 295 Q 328 308 221 332 C 210 334 193 356 203 360 C 204 360 204 360 204 360 Z"/></clipPath>
    <clipPath id="z40498c3"><path d="M 149 460 Q 139 456 121 451 Q 111 448 108 452 Q 104 456 109 470 Q 128 518 138 595 Q 139 617 152 634 Q 165 652 169 640 Q 175 627 173 601 C 172 584 172 584 171 576 Q 162 500 162 481 C 162 473 157 463 149 460 Z"/></clipPath>
    <clipPath id="z40498c4"><path d="M 274 557 Q 286 497 303 478 Q 319 457 301 446 Q 285 439 264 425 Q 248 418 234 427 Q 218 439 195 446 Q 176 453 149 460 C 141 462 154 483 162 481 Q 177 477 222 467 Q 237 463 241 470 Q 247 474 243 501 Q 239 526 234 557 C 232 570 271 570 274 557 Z"/></clipPath>
    <clipPath id="z40498c5"><path d="M 173 601 Q 180 602 190 600 Q 221 593 288 585 Q 295 584 297 576 Q 297 570 274 557 C 263 550 246 552 234 557 Q 200 567 171 576 C 163 579 165 601 173 601 Z"/></clipPath>
    <clipPath id="z40498c6"><path d="M 552 245 Q 586 212 604 191 Q 653 131 668 122 Q 684 109 672 96 Q 656 83 630 76 Q 606 69 596 74 Q 586 78 591 89 Q 601 113 569 177 Q 554 205 538 236 C 536 241 548 248 552 245 Z"/></clipPath>
    <clipPath id="z40498c7"><path d="M 558 285 Q 564 285 571 283 Q 610 267 710 247 Q 719 246 725 250 Q 735 254 735 272 Q 734 312 716 387 Q 712 409 691 406 Q 663 402 641 397 Q 628 394 631 402 Q 632 411 656 428 Q 684 455 702 483 Q 709 492 719 489 Q 726 488 740 465 Q 758 437 772 358 Q 784 271 795 261 Q 805 252 800 242 Q 793 232 760 211 Q 747 202 691 217 Q 681 217 556 248 C 544 250 546 285 558 285 Z"/></clipPath>
    <clipPath id="z40498c8"><path d="M 574 331 Q 613 377 631 378 Q 640 379 644 366 Q 645 357 638 343 Q 622 319 576 313 Q 570 312 569 320 Q 568 326 574 331 Z"/></clipPath>
    <clipPath id="z40498c9"><path d="M 537 615 Q 592 576 768 567 Q 799 564 813 576 Q 825 588 813 631 Q 806 689 794 751 Q 787 799 765 829 Q 756 841 732 837 Q 698 827 666 818 Q 650 814 651 821 Q 651 827 659 834 Q 717 886 737 923 Q 746 944 764 933 Q 822 903 837 837 Q 855 752 868 658 Q 875 621 894 590 Q 907 574 896 561 Q 878 540 841 519 Q 820 507 792 520 Q 755 535 720 538 Q 672 542 572 562 Q 547 566 544 546 Q 544 333 558 285 C 560 273 566 256 556 248 Q 555 247 552 245 C 543 239 543 239 538 236 Q 529 229 519 225 Q 501 219 493 227 Q 487 233 495 243 Q 507 270 504 442 Q 504 520 490 575 Q 484 594 498 610 Q 517 626 537 615 Z"/></clipPath>
    <clipPath id="z40498c10"><path d="M 594 721 Q 615 720 634 716 Q 695 707 741 711 Q 760 712 765 704 Q 769 692 759 683 Q 732 664 694 651 Q 682 647 662 656 Q 478 695 408 705 Q 398 706 397 715 Q 397 725 414 736 Q 429 745 456 752 Q 465 753 479 746 Q 515 731 594 721 Z"/></clipPath>
</defs>
<g id="bg-layer">
    <path class="bg" d="M 221 332 Q 221 331 222 331 Q 256 282 290 209 Q 303 175 318 158 Q 325 148 320 137 Q 314 127 287 109 Q 262 96 246 99 Q 230 103 239 121 Q 263 155 203 286 Q 175 346 134 412 Q 127 422 125 428 Q 124 438 136 434 Q 155 428 203 360 C 215 341 215 341 221 332 Z"/>
    <path class="bg" d="M 204 360 Q 226 373 246 366 Q 355 336 363 349 Q 370 365 370 408 Q 366 567 341 651 Q 328 705 312 722 Q 302 735 275 731 Q 245 727 218 721 Q 196 718 214 736 Q 257 775 282 806 Q 292 824 311 817 Q 329 813 351 786 Q 412 708 421 447 Q 422 387 443 351 Q 458 332 449 323 Q 434 307 402 294 Q 380 284 355 295 Q 328 308 221 332 C 210 334 193 356 203 360 C 204 360 204 360 204 360 Z"/>
    <path class="bg" d="M 149 460 Q 139 456 121 451 Q 111 448 108 452 Q 104 456 109 470 Q 128 518 138 595 Q 139 617 152 634 Q 165 652 169 640 Q 175 627 173 601 C 172 584 172 584 171 576 Q 162 500 162 481 C 162 473 157 463 149 460 Z"/>
    <path class="bg" d="M 274 557 Q 286 497 303 478 Q 319 457 301 446 Q 285 439 264 425 Q 248 418 234 427 Q 218 439 195 446 Q 176 453 149 460 C 141 462 154 483 162 481 Q 177 477 222 467 Q 237 463 241 470 Q 247 474 243 501 Q 239 526 234 557 C 232 570 271 570 274 557 Z"/>
    <path class="bg" d="M 173 601 Q 180 602 190 600 Q 221 593 288 585 Q 295 584 297 576 Q 297 570 274 557 C 263 550 246 552 234 557 Q 200 567 171 576 C 163 579 165 601 173 601 Z"/>
    <path class="bg" d="M 552 245 Q 586 212 604 191 Q 653 131 668 122 Q 684 109 672 96 Q 656 83 630 76 Q 606 69 596 74 Q 586 78 591 89 Q 601 113 569 177 Q 554 205 538 236 C 536 241 548 248 552 245 Z"/>
    <path class="bg" d="M 558 285 Q 564 285 571 283 Q 610 267 710 247 Q 719 246 725 250 Q 735 254 735 272 Q 734 312 716 387 Q 712 409 691 406 Q 663 402 641 397 Q 628 394 631 402 Q 632 411 656 428 Q 684 455 702 483 Q 709 492 719 489 Q 726 488 740 465 Q 758 437 772 358 Q 784 271 795 261 Q 805 252 800 242 Q 793 232 760 211 Q 747 202 691 217 Q 681 217 556 248 C 544 250 546 285 558 285 Z"/>
    <path class="bg" d="M 574 331 Q 613 377 631 378 Q 640 379 644 366 Q 645 357 638 343 Q 622 319 576 313 Q 570 312 569 320 Q 568 326 574 331 Z"/>
    <path class="bg" d="M 537 615 Q 592 576 768 567 Q 799 564 813 576 Q 825 588 813 631 Q 806 689 794 751 Q 787 799 765 829 Q 756 841 732 837 Q 698 827 666 818 Q 650 814 651 821 Q 651 827 659 834 Q 717 886 737 923 Q 746 944 764 933 Q 822 903 837 837 Q 855 752 868 658 Q 875 621 894 590 Q 907 574 896 561 Q 878 540 841 519 Q 820 507 792 520 Q 755 535 720 538 Q 672 542 572 562 Q 547 566 544 546 Q 544 333 558 285 C 560 273 566 256 556 248 Q 555 247 552 245 C 543 239 543 239 538 236 Q 529 229 519 225 Q 501 219 493 227 Q 487 233 495 243 Q 507 270 504 442 Q 504 520 490 575 Q 484 594 498 610 Q 517 626 537 615 Z"/>
    <path class="bg" d="M 594 721 Q 615 720 634 716 Q 695 707 741 711 Q 760 712 765 704 Q 769 692 759 683 Q 732 664 694 651 Q 682 647 662 656 Q 478 695 408 705 Q 398 706 397 715 Q 397 725 414 736 Q 429 745 456 752 Q 465 753 479 746 Q 515 731 594 721 Z"/>
</g>
<g id="anim-layer">
    <path style="--d:1s; stroke:#FF4444;" pathLength="3333" clip-path="url(#z40498c1)" d="M 244 106 L 282 154 L 222 294 L 132 428"/>
    <path style="--d:2s; stroke:#FF4444;" pathLength="3333" clip-path="url(#z40498c2)" d="M 210 357 L 370 319 L 409 347 L 375 636 L 344 734 L 299 775 L 217 728"/>
    <path style="--d:3s; stroke:#FF4444;" pathLength="3333" clip-path="url(#z40498c3)" d="M 115 459 L 140 492 L 160 638"/>
    <path style="--d:4s; stroke:#FF4444;" pathLength="3333" clip-path="url(#z40498c4)" d="M 158 462 L 243 444 L 276 463 L 250 556"/>
    <path style="--d:5s; stroke:#FF4444;" pathLength="3333" clip-path="url(#z40498c5)" d="M 177 593 L 291 578"/>
    <path style="--d:6s; stroke:#000;" pathLength="3333" clip-path="url(#z40498c6)" d="M 595 78 L 633 115 L 546 238"/>
    <path style="--d:7s; stroke:#000;" pathLength="3333" clip-path="url(#z40498c7)" d="M 564 277 L 712 229 L 766 253 L 714 444 L 636 403"/>
    <path style="--d:8s; stroke:#000;" pathLength="3333" clip-path="url(#z40498c8)" d="M 577 321 L 639 367"/>
    <path style="--d:9s; stroke:#000;" pathLength="3333" clip-path="url(#z40498c9)" d="M 500 233 L 529 270 L 524 584 L 813 542 L 859 585 L 793 854 L 747 887 L 657 825"/>
    <path style="--d:10s; stroke:#000;" pathLength="3333" clip-path="url(#z40498c10)" d="M 403 713 L 456 725 L 687 680 L 759 691"/>
</g>
</svg>