<svg id="z40507" class="acjk" viewBox="0 0 1024 1024" xmlns="http://www.w3.org/2000/svg">

<style>
<![CDATA[
@keyframes zk { to { stroke-dashoffset:0; } }
svg.acjk path[clip-path] {
    --t:0.8s;
    animation:zk var(--t) linear forwards var(--d);
    stroke-dasharray:3337;
    stroke-dashoffset:3339;
    stroke-width:128;
    stroke-linecap:round;
    fill:none;
}
/* Low opacity for background improves visual overlap at intersections */
svg.acjk .bg { fill:#ccc; opacity: 0.5; } 
]]>
</style>
<defs>
    <clipPath id="z40507c1"><path d="M 208 81 Q 216 98 208 113 Q 169 192 74 296 Q 65 304 62 309 Q 58 318 68 318 Q 69 317 71 317 Q 113 317 233 183 Q 246 161 269 141 Q 282 131 282 122 Q 283 118 282 114 Q 281 104 261 85 Q 239 63 220 60 Q 204 60 208 81 Z"/></clipPath>
    <clipPath id="z40507c2"><path d="M 232 371 Q 258 335 277 318 Q 298 302 257 266 Q 235 247 219 247 Q 204 247 210 266 Q 228 316 121 453 C 96 482 96 482 84 496 Q 76 501 65 516 Q 65 518 64 518 Q 60 528 70 527 Q 71 527 73 526 Q 100 523 137 485 C 156 465 156 465 165 455 C 210 399 210 399 232 371 Z"/></clipPath>
    <clipPath id="z40507c3"><path d="M 137 485 Q 151 518 154 590 Q 154 667 137 753 Q 127 800 130 820 Q 134 843 155 867 Q 162 880 174 873 Q 180 868 184 859 Q 197 820 197 777 Q 198 575 206 532 Q 212 506 204 496 Q 187 478 165 455 C 155 445 132 472 137 485 Z"/></clipPath>
    <clipPath id="z40507c4"><path d="M 296 218 Q 258 228 287 243 Q 329 261 370 251 C 412 240 412 240 433 234 Q 455 228 458 225 Q 472 207 447 196 Q 436 190 420 189 Q 398 186 380 194 Q 348 208 318 214 Q 308 216 296 218 Z"/></clipPath>
    <clipPath id="z40507c5"><path d="M 362 421 Q 398 408 449 413 Q 475 416 482 410 Q 485 408 486 404 Q 491 394 474 383 Q 444 359 406 364 Q 387 367 316 386 Q 271 399 234 408 Q 220 411 227 422 Q 237 435 261 439 Q 276 443 294 438 Q 313 433 324 430 C 349 424 349 424 362 421 Z"/></clipPath>
    <clipPath id="z40507c6"><path d="M 324 430 Q 339 476 341 499 Q 341 640 345 785 Q 344 816 333 826 Q 324 832 261 814 Q 230 804 230 810 Q 230 818 247 833 C 286 866 286 866 305 882 Q 323 900 345 922 Q 355 931 368 916 Q 402 865 403 771 Q 392 623 400 483 Q 406 458 400 448 Q 393 436 362 421 C 351 414 319 418 324 430 Z"/></clipPath>
    <clipPath id="z40507c7"><path d="M 564 243 Q 676 122 680 120 Q 696 106 684 92 Q 659 73 625 69 Q 613 69 608 71 Q 598 75 603 87 Q 613 110 580 175 C 560 214 560 214 550 234 C 548 239 561 247 564 243 Z"/></clipPath>
    <clipPath id="z40507c8"><path d="M 572 283 Q 636 262 711 245 Q 733 242 736 267 Q 737 268 737 270 Q 737 312 722 389 Q 721 408 702 407 C 669 399 669 399 653 395 Q 643 392 643 396 C 643 399 643 399 643 400 Q 644 408 664 427 Q 698 459 712 486 Q 719 496 729 491 Q 745 484 760 439 Q 770 412 776 377 Q 782 271 798 257 Q 808 247 802 238 Q 794 227 761 208 Q 747 200 694 214 Q 666 214 566 245 C 554 250 560 288 572 283 Z"/></clipPath>
    <clipPath id="z40507c9"><path d="M 586 330 Q 645 398 657 364 Q 659 336 624 321 Q 609 314 588 311 Q 581 310 580 318 Q 580 325 586 330 Z"/></clipPath>
    <clipPath id="z40507c10"><path d="M 518 586 Q 533 598 547 594 C 572 583 572 583 584 577 Q 598 571 613 568 Q 692 547 780 541 Q 829 537 832 567 Q 833 581 825 607 Q 809 743 796 780 Q 790 800 778 817 Q 762 829 706 813 Q 666 804 666 809 Q 666 815 675 822 Q 730 874 749 912 Q 759 931 776 922 Q 836 888 851 822 Q 868 736 882 633 Q 889 595 909 563 Q 917 549 914 542 Q 913 539 909 535 Q 890 516 854 494 Q 837 484 813 491 C 784 501 784 501 769 506 Q 753 510 735 512 Q 684 518 592 537 Q 564 540 563 521 Q 559 330 572 283 C 575 270 575 254 566 245 Q 565 243 564 243 C 562 238 554 237 550 234 Q 539 224 523 222 Q 511 220 505 226 Q 498 232 507 241 Q 519 268 520 410 Q 520 498 510 551 Q 504 570 518 586 Z"/></clipPath>
    <clipPath id="z40507c11"><path d="M 517 741 Q 557 724 649 718 Q 710 712 745 714 Q 764 716 768 708 Q 774 696 763 687 Q 731 665 700 653 Q 689 649 666 658 Q 633 671 594 679 Q 508 696 447 700 Q 434 700 435 710 Q 437 728 494 747 Q 502 749 517 741 Z"/></clipPath>
</defs>
<g id="bg-layer">
    <path class="bg" d="M 208 81 Q 216 98 208 113 Q 169 192 74 296 Q 65 304 62 309 Q 58 318 68 318 Q 69 317 71 317 Q 113 317 233 183 Q 246 161 269 141 Q 282 131 282 122 Q 283 118 282 114 Q 281 104 261 85 Q 239 63 220 60 Q 204 60 208 81 Z"/>
    <path class="bg" d="M 232 371 Q 258 335 277 318 Q 298 302 257 266 Q 235 247 219 247 Q 204 247 210 266 Q 228 316 121 453 C 96 482 96 482 84 496 Q 76 501 65 516 Q 65 518 64 518 Q 60 528 70 527 Q 71 527 73 526 Q 100 523 137 485 C 156 465 156 465 165 455 C 210 399 210 399 232 371 Z"/>
    <path class="bg" d="M 137 485 Q 151 518 154 590 Q 154 667 137 753 Q 127 800 130 820 Q 134 843 155 867 Q 162 880 174 873 Q 180 868 184 859 Q 197 820 197 777 Q 198 575 206 532 Q 212 506 204 496 Q 187 478 165 455 C 155 445 132 472 137 485 Z"/>
    <path class="bg" d="M 296 218 Q 258 228 287 243 Q 329 261 370 251 C 412 240 412 240 433 234 Q 455 228 458 225 Q 472 207 447 196 Q 436 190 420 189 Q 398 186 380 194 Q 348 208 318 214 Q 308 216 296 218 Z"/>
    <path class="bg" d="M 362 421 Q 398 408 449 413 Q 475 416 482 410 Q 485 408 486 404 Q 491 394 474 383 Q 444 359 406 364 Q 387 367 316 386 Q 271 399 234 408 Q 220 411 227 422 Q 237 435 261 439 Q 276 443 294 438 Q 313 433 324 430 C 349 424 349 424 362 421 Z"/>
    <path class="bg" d="M 324 430 Q 339 476 341 499 Q 341 640 345 785 Q 344 816 333 826 Q 324 832 261 814 Q 230 804 230 810 Q 230 818 247 833 C 286 866 286 866 305 882 Q 323 900 345 922 Q 355 931 368 916 Q 402 865 403 771 Q 392 623 400 483 Q 406 458 400 448 Q 393 436 362 421 C 351 414 319 418 324 430 Z"/>
    <path class="bg" d="M 564 243 Q 676 122 680 120 Q 696 106 684 92 Q 659 73 625 69 Q 613 69 608 71 Q 598 75 603 87 Q 613 110 580 175 C 560 214 560 214 550 234 C 548 239 561 247 564 243 Z"/>
    <path class="bg" d="M 572 283 Q 636 262 711 245 Q 733 242 736 267 Q 737 268 737 270 Q 737 312 722 389 Q 721 408 702 407 C 669 399 669 399 653 395 Q 643 392 643 396 C 643 399 643 399 643 400 Q 644 408 664 427 Q 698 459 712 486 Q 719 496 729 491 Q 745 484 760 439 Q 770 412 776 377 Q 782 271 798 257 Q 808 247 802 238 Q 794 227 761 208 Q 747 200 694 214 Q 666 214 566 245 C 554 250 560 288 572 283 Z"/>
    <path class="bg" d="M 586 330 Q 645 398 657 364 Q 659 336 624 321 Q 609 314 588 311 Q 581 310 580 318 Q 580 325 586 330 Z"/>
    <path class="bg" d="M 518 586 Q 533 598 547 594 C 572 583 572 583 584 577 Q 598 571 613 568 Q 692 547 780 541 Q 829 537 832 567 Q 833 581 825 607 Q 809 743 796 780 Q 790 800 778 817 Q 762 829 706 813 Q 666 804 666 809 Q 666 815 675 822 Q 730 874 749 912 Q 759 931 776 922 Q 836 888 851 822 Q 868 736 882 633 Q 889 595 909 563 Q 917 549 914 542 Q 913 539 909 535 Q 890 516 854 494 Q 837 484 813 491 C 784 501 784 501 769 506 Q 753 510 735 512 Q 684 518 592 537 Q 564 540 563 521 Q 559 330 572 283 C 575 270 575 254 566 245 Q 565 243 564 243 C 562 238 554 237 550 234 Q 539 224 523 222 Q 511 220 505 226 Q 498 232 507 241 Q 519 268 520 410 Q 520 498 510 551 Q 504 570 518 586 Z"/>
    <path class="bg" d="M 517 741 Q 557 724 649 718 Q 710 712 745 714 Q 764 716 768 708 Q 774 696 763 687 Q 731 665 700 653 Q 689 649 666 658 Q 633 671 594 679 Q 508 696 447 700 Q 434 700 435 710 Q 437 728 494 747 Q 502 749 517 741 Z"/>
</g>
<g id="anim-layer">
    <path style="--d:1s; stroke:#FF4444;" pathLength="3333" clip-path="url(#z40507c1)" d="M 217 69 L 242 123 L 69 310"/>
    <path style="--d:2s; stroke:#FF4444;" pathLength="3333" clip-path="url(#z40507c2)" d="M 217 256 L 244 309 L 139 458 L 67 519"/>
    <path style="--d:3s; stroke:#FF4444;" pathLength="3333" clip-path="url(#z40507c3)" d="M 164 470 L 164 869"/>
    <path style="--d:4s; stroke:#FF4444;" pathLength="3333" clip-path="url(#z40507c4)" d="M 281 229 L 457 214"/>
    <path style="--d:5s; stroke:#FF4444;" pathLength="3333" clip-path="url(#z40507c5)" d="M 235 418 L 404 388 L 482 396"/>
    <path style="--d:6s; stroke:#FF4444;" pathLength="3333" clip-path="url(#z40507c6)" d="M 332 434 L 369 465 L 370 819 L 336 875 L 237 816"/>
    <path style="--d:7s; stroke:#000;" pathLength="3333" clip-path="url(#z40507c7)" d="M 607 75 L 646 112 L 558 237"/>
    <path style="--d:8s; stroke:#000;" pathLength="3333" clip-path="url(#z40507c8)" d="M 577 274 L 732 225 L 769 250 L 723 445 L 650 402"/>
    <path style="--d:9s; stroke:#000;" pathLength="3333" clip-path="url(#z40507c9)" d="M 585 318 L 649 368"/>
    <path style="--d:10s; stroke:#000;" pathLength="3333" clip-path="url(#z40507c10)" d="M 511 229 L 542 272 L 544 560 L 810 517 L 872 552 L 803 845 L 759 872 L 672 812"/>
    <path style="--d:11s; stroke:#000;" pathLength="3333" clip-path="url(#z40507c11)" d="M 442 708 L 500 721 L 699 683 L 766 700"/>
</g>
</svg>