<svg id="z40565" class="acjk" viewBox="0 0 1024 1024" xmlns="http://www.w3.org/2000/svg">

<style>
<![CDATA[
@keyframes zk { to { stroke-dashoffset:0; } }
svg.acjk path[clip-path] {
    --t:0.8s;
    animation:zk var(--t) linear forwards var(--d);
    stroke-dasharray:3337;
    stroke-dashoffset:3339;
    stroke-width:128;
    stroke-linecap:round;
    fill:none;
}
/* Low opacity for background improves visual overlap at intersections */
svg.acjk .bg { fill:#ccc; opacity: 0.5; } 
]]>
</style>
<defs>
    <clipPath id="z40565c1"><path d="M 515 326 C 519 280 525 236 530 195 C 532 174 532 174 533 164 C 534 143 541 122 548 104 C 550 96 545 85 531 77 C 507 62 485 56 469 52 C 458 49 449 50 444 57 C 438 62 437 71 444 81 C 477 129 470 263 470 334 C 470 349 515 341 515 326 Z"/></clipPath>
    <clipPath id="z40565c2"><path d="M 530 195 C 564 199 591 196 614 190 C 683 169 720 159 722 157 C 726 151 727 145 724 140 C 719 132 706 126 686 124 C 671 122 637 132 582 151 C 566 156 549 159 533 164 C 523 167 520 193 530 195 Z"/></clipPath>
    <clipPath id="z40565c3"><path d="M 274 357 C 265 348 253 342 239 337 C 231 334 223 330 215 336 C 204 343 216 368 221 379 C 238 415 242 531 230 726 C 228 754 221 783 213 816 C 202 857 210 894 236 926 C 244 935 251 936 259 927 C 268 914 274 899 276 880 C 277 868 277 857 277 846 C 276 766 284 599 284 573 C 284 563 284 563 284 558 C 284 504 289 411 291 395 C 294 381 285 365 274 357 Z"/></clipPath>
    <clipPath id="z40565c4"><path d="M 690 854 C 698 887 709 920 725 945 C 750 984 775 944 785 925 C 799 896 799 864 797 828 C 790 732 785 595 783 420 C 782 395 788 374 801 357 C 807 347 808 337 801 330 C 786 314 758 298 718 279 C 703 272 691 273 679 279 C 632 298 577 314 515 326 C 485 331 485 331 470 334 C 394 347 328 353 274 357 C 260 357 277 398 291 395 C 313 393 424 373 625 335 C 659 328 687 330 704 346 C 727 367 731 499 723 707 C 721 746 717 823 702 833 C 697 839 688 846 690 854 Z"/></clipPath>
    <clipPath id="z40565c5"><path d="M 507 574 C 527 544 547 500 575 448 C 585 429 590 418 590 416 C 589 411 584 406 577 400 C 560 386 543 380 524 385 C 519 386 518 391 520 398 C 528 426 515 480 472 553 C 459 575 459 575 452 586 C 426 627 382 675 324 734 C 320 737 320 741 326 741 C 364 736 443 665 482 610 C 499 586 499 586 507 574 Z"/></clipPath>
    <clipPath id="z40565c6"><path d="M 482 610 C 570 681 612 719 617 721 C 620 721 624 718 628 714 C 633 706 633 692 625 670 C 616 645 577 616 507 574 C 484 560 484 560 472 553 C 430 527 395 511 370 500 C 365 497 362 499 362 506 C 362 512 365 518 372 523 C 396 541 423 562 452 586 C 472 602 472 602 482 610 Z"/></clipPath>
    <clipPath id="z40565c7"><path d="M 388 428 C 416 460 436 477 451 479 C 458 479 465 474 468 464 C 469 456 466 445 460 435 C 449 418 426 408 391 404 C 385 403 382 406 382 413 C 381 417 383 422 388 428 Z"/></clipPath>
    <clipPath id="z40565c8"><path d="M 284 573 C 286 577 293 582 304 590 C 318 599 332 611 347 623 C 353 628 360 630 368 630 C 372 629 376 626 378 620 C 379 613 376 603 372 590 C 369 581 360 572 345 567 C 309 555 288 554 284 558 C 279 560 281 569 284 573 Z"/></clipPath>
    <clipPath id="z40565c9"><path d="M 609 531 C 621 541 635 554 650 569 C 656 575 664 578 673 578 C 678 577 682 574 685 567 C 687 560 686 549 682 533 C 679 523 670 513 654 508 C 616 494 593 490 588 493 C 584 494 583 500 585 507 C 586 511 595 519 609 531 Z"/></clipPath>
    <clipPath id="z40565c10"><path d="M 448 732 C 469 759 487 779 506 787 C 514 790 522 787 528 779 C 532 772 533 763 532 753 C 529 738 522 727 512 721 C 476 698 451 691 437 697 C 434 698 433 701 434 709 C 434 715 440 722 448 732 Z"/></clipPath>
    <clipPath id="z40565c11"><path d="M 276 880 C 290 882 394 866 690 854 C 698 854 708 839 702 833 C 678 807 646 803 612 809 C 487 827 376 840 277 846 C 266 846 265 880 276 880 Z"/></clipPath>
</defs>
<g id="bg-layer">
    <path class="bg" d="M 515 326 C 519 280 525 236 530 195 C 532 174 532 174 533 164 C 534 143 541 122 548 104 C 550 96 545 85 531 77 C 507 62 485 56 469 52 C 458 49 449 50 444 57 C 438 62 437 71 444 81 C 477 129 470 263 470 334 C 470 349 515 341 515 326 Z"/>
    <path class="bg" d="M 530 195 C 564 199 591 196 614 190 C 683 169 720 159 722 157 C 726 151 727 145 724 140 C 719 132 706 126 686 124 C 671 122 637 132 582 151 C 566 156 549 159 533 164 C 523 167 520 193 530 195 Z"/>
    <path class="bg" d="M 274 357 C 265 348 253 342 239 337 C 231 334 223 330 215 336 C 204 343 216 368 221 379 C 238 415 242 531 230 726 C 228 754 221 783 213 816 C 202 857 210 894 236 926 C 244 935 251 936 259 927 C 268 914 274 899 276 880 C 277 868 277 857 277 846 C 276 766 284 599 284 573 C 284 563 284 563 284 558 C 284 504 289 411 291 395 C 294 381 285 365 274 357 Z"/>
    <path class="bg" d="M 690 854 C 698 887 709 920 725 945 C 750 984 775 944 785 925 C 799 896 799 864 797 828 C 790 732 785 595 783 420 C 782 395 788 374 801 357 C 807 347 808 337 801 330 C 786 314 758 298 718 279 C 703 272 691 273 679 279 C 632 298 577 314 515 326 C 485 331 485 331 470 334 C 394 347 328 353 274 357 C 260 357 277 398 291 395 C 313 393 424 373 625 335 C 659 328 687 330 704 346 C 727 367 731 499 723 707 C 721 746 717 823 702 833 C 697 839 688 846 690 854 Z"/>
    <path class="bg" d="M 507 574 C 527 544 547 500 575 448 C 585 429 590 418 590 416 C 589 411 584 406 577 400 C 560 386 543 380 524 385 C 519 386 518 391 520 398 C 528 426 515 480 472 553 C 459 575 459 575 452 586 C 426 627 382 675 324 734 C 320 737 320 741 326 741 C 364 736 443 665 482 610 C 499 586 499 586 507 574 Z"/>
    <path class="bg" d="M 482 610 C 570 681 612 719 617 721 C 620 721 624 718 628 714 C 633 706 633 692 625 670 C 616 645 577 616 507 574 C 484 560 484 560 472 553 C 430 527 395 511 370 500 C 365 497 362 499 362 506 C 362 512 365 518 372 523 C 396 541 423 562 452 586 C 472 602 472 602 482 610 Z"/>
    <path class="bg" d="M 388 428 C 416 460 436 477 451 479 C 458 479 465 474 468 464 C 469 456 466 445 460 435 C 449 418 426 408 391 404 C 385 403 382 406 382 413 C 381 417 383 422 388 428 Z"/>
    <path class="bg" d="M 284 573 C 286 577 293 582 304 590 C 318 599 332 611 347 623 C 353 628 360 630 368 630 C 372 629 376 626 378 620 C 379 613 376 603 372 590 C 369 581 360 572 345 567 C 309 555 288 554 284 558 C 279 560 281 569 284 573 Z"/>
    <path class="bg" d="M 609 531 C 621 541 635 554 650 569 C 656 575 664 578 673 578 C 678 577 682 574 685 567 C 687 560 686 549 682 533 C 679 523 670 513 654 508 C 616 494 593 490 588 493 C 584 494 583 500 585 507 C 586 511 595 519 609 531 Z"/>
    <path class="bg" d="M 448 732 C 469 759 487 779 506 787 C 514 790 522 787 528 779 C 532 772 533 763 532 753 C 529 738 522 727 512 721 C 476 698 451 691 437 697 C 434 698 433 701 434 709 C 434 715 440 722 448 732 Z"/>
    <path class="bg" d="M 276 880 C 290 882 394 866 690 854 C 698 854 708 839 702 833 C 678 807 646 803 612 809 C 487 827 376 840 277 846 C 266 846 265 880 276 880 Z"/>
</g>
<g id="anim-layer">
    <path style="--d:1s; stroke:#FF4444;" pathLength="3333" clip-path="url(#z40565c1)" d="M 444 63 L 504 110 L 491 339"/>
    <path style="--d:2s; stroke:#FF4444;" pathLength="3333" clip-path="url(#z40565c2)" d="M 530 184 L 719 142"/>
    <path style="--d:3s; stroke:#FF4444;" pathLength="3333" clip-path="url(#z40565c3)" d="M 217 342 L 260 395 L 250 925"/>
    <path style="--d:4s; stroke:#FF4444;" pathLength="3333" clip-path="url(#z40565c4)" d="M 275 362 L 344 369 L 692 304 L 752 344 L 745 958"/>
    <path style="--d:5s; stroke:#FF4444;" pathLength="3333" clip-path="url(#z40565c5)" d="M 528 390 L 554 428 L 499 548 L 330 737"/>
    <path style="--d:6s; stroke:#000;" pathLength="3333" clip-path="url(#z40565c6)" d="M 368 505 L 568 645 L 619 715"/>
    <path style="--d:7s; stroke:#000;" pathLength="3333" clip-path="url(#z40565c7)" d="M 390 413 L 461 468"/>
    <path style="--d:8s; stroke:#000;" pathLength="3333" clip-path="url(#z40565c8)" d="M 290 567 L 371 624"/>
    <path style="--d:9s; stroke:#000;" pathLength="3333" clip-path="url(#z40565c9)" d="M 589 502 L 675 570"/>
    <path style="--d:10s; stroke:#000;" pathLength="3333" clip-path="url(#z40565c10)" d="M 441 703 L 524 779"/>
    <path style="--d:11s; stroke:#000;" pathLength="3333" clip-path="url(#z40565c11)" d="M 271 866 L 699 838"/>
</g>
</svg>