<svg id="z40674" class="acjk" viewBox="0 0 1024 1024" xmlns="http://www.w3.org/2000/svg">

<style>
<![CDATA[
@keyframes zk { to { stroke-dashoffset:0; } }
svg.acjk path[clip-path] {
    --t:0.8s;
    animation:zk var(--t) linear forwards var(--d);
    stroke-dasharray:3337;
    stroke-dashoffset:3339;
    stroke-width:128;
    stroke-linecap:round;
    fill:none;
}
/* Low opacity for background improves visual overlap at intersections */
svg.acjk .bg { fill:#ccc; opacity: 0.5; } 
]]>
</style>
<defs>
    <clipPath id="z40674c1"><path d="M 170 221 Q 160 217 135 212 Q 125 209 122 214 Q 118 218 124 233 Q 155 300 173 408 Q 176 441 194 462 Q 210 481 214 467 Q 215 460 216 453 C 217 438 217 438 217 431 Q 216 415 212 396 Q 188 284 183 249 C 181 239 180 225 170 221 Z"/></clipPath>
    <clipPath id="z40674c2"><path d="M 401 419 Q 401 422 403 426 Q 407 439 419 439 Q 432 438 439 424 Q 452 405 474 311 Q 489 265 521 237 Q 537 222 524 209 Q 508 193 462 170 Q 450 164 387 177 Q 365 177 253 204 Q 204 214 170 221 C 160 223 173 249 183 249 Q 192 250 200 248 Q 225 238 272 229 C 295 224 295 224 306 222 Q 412 198 433 208 Q 443 215 437 247 Q 413 376 402 400 C 400 406 400 413 401 419 Z"/></clipPath>
    <clipPath id="z40674c3"><path d="M 222 336 Q 243 370 254 373 Q 261 374 266 367 Q 270 358 269 339 Q 268 329 255 320 Q 219 299 212 302 Q 208 303 208 312 Q 208 319 222 336 Z"/></clipPath>
    <clipPath id="z40674c4"><path d="M 368 292 Q 358 314 338 352 Q 335 356 339 360 Q 343 361 348 357 Q 393 314 415 297 Q 425 291 422 285 Q 416 276 402 267 Q 389 258 375 259 Q 365 260 368 273 Q 371 280 368 292 Z"/></clipPath>
    <clipPath id="z40674c5"><path d="M 327 432 Q 364 425 398 419 Q 399 418 401 419 C 407 419 407 404 402 400 Q 395 393 381 392 Q 362 389 330 399 Q 329 399 328 400 C 303 407 303 407 290 411 Q 250 421 217 431 C 210 433 209 453 216 453 Q 223 453 234 451 Q 261 445 289 440 C 314 435 314 435 327 432 Z"/></clipPath>
    <clipPath id="z40674c6"><path d="M 323 607 Q 323 573 324 540 C 325 511 325 511 325 496 Q 325 462 327 432 C 328 411 328 411 328 400 Q 329 346 331 298 Q 334 247 331 242 Q 318 230 306 222 C 297 215 266 219 272 229 Q 278 241 284 251 Q 291 275 290 411 C 289 430 289 430 289 440 Q 288 470 288 508 C 287 536 287 536 287 550 Q 287 580 287 615 C 287 627 323 619 323 607 Z"/></clipPath>
    <clipPath id="z40674c7"><path d="M 324 540 Q 400 519 404 516 Q 411 509 407 502 Q 400 492 375 487 Q 350 484 325 496 C 300 504 300 504 288 508 Q 281 509 275 512 Q 247 519 214 523 Q 183 530 206 544 Q 236 560 287 550 C 312 543 312 543 324 540 Z"/></clipPath>
    <clipPath id="z40674c8"><path d="M 287 615 Q 235 622 180 634 Q 162 638 133 635 Q 123 635 120 643 Q 117 653 124 661 Q 142 677 167 695 Q 174 698 186 692 Q 225 670 394 617 Q 419 610 437 599 Q 449 593 449 586 Q 445 582 435 582 Q 381 594 323 607 C 299 612 299 612 287 615 Z"/></clipPath>
    <clipPath id="z40674c9"><path d="M 137 734 Q 121 786 94 832 Q 79 865 97 893 Q 104 909 123 896 Q 168 857 165 785 Q 166 755 159 733 Q 155 726 148 725 Q 141 726 137 734 Z"/></clipPath>
    <clipPath id="z40674c10"><path d="M 217 743 Q 233 824 253 835 Q 262 841 273 831 Q 279 822 280 805 Q 277 766 230 726 Q 224 722 219 729 Q 215 733 217 743 Z"/></clipPath>
    <clipPath id="z40674c11"><path d="M 310 723 Q 331 792 349 800 Q 358 806 368 794 Q 374 785 373 768 Q 367 738 322 705 Q 315 701 311 709 Q 308 715 310 723 Z"/></clipPath>
    <clipPath id="z40674c12"><path d="M 409 712 Q 443 766 454 769 Q 461 770 466 763 Q 470 756 470 735 Q 470 722 453 706 Q 408 676 400 678 Q 396 679 395 688 Q 396 695 409 712 Z"/></clipPath>
    <clipPath id="z40674c13"><path d="M 771 259 Q 696 268 616 286 Q 607 289 605 287 Q 602 283 608 275 Q 696 151 716 129 Q 726 119 721 108 Q 714 96 669 75 Q 653 68 644 72 Q 632 78 638 97 Q 659 158 563 266 Q 545 282 521 300 Q 508 312 512 322 Q 518 338 542 357 Q 552 367 564 356 Q 606 325 781 281 Q 782 280 787 280 C 796 278 780 257 771 259 Z"/></clipPath>
    <clipPath id="z40674c14"><path d="M 787 280 Q 836 346 840 347 Q 846 348 853 342 Q 863 333 859 299 Q 856 257 747 198 Q 741 194 738 203 Q 737 213 771 259 C 782 273 782 273 787 280 Z"/></clipPath>
    <clipPath id="z40674c15"><path d="M 567 393 Q 567 448 475 526 Q 472 527 470 531 Q 463 541 474 540 Q 510 544 580 479 Q 584 467 624 435 Q 634 428 624 414 Q 594 381 576 381 Q 567 381 567 393 Z"/></clipPath>
    <clipPath id="z40674c16"><path d="M 746 408 Q 780 441 816 481 Q 826 493 839 493 Q 848 494 853 483 Q 859 471 854 447 Q 847 408 746 368 Q 733 364 728 365 Q 724 368 724 379 Q 725 389 746 408 Z"/></clipPath>
    <clipPath id="z40674c17"><path d="M 645 552 Q 646 548 650 546 Q 656 542 654 533 Q 653 526 641 516 Q 617 495 588 500 Q 581 503 583 513 Q 595 547 542 632 Q 541 633 540 635 Q 524 657 484 702 Q 478 706 486 709 Q 534 691 575 647 C 588 632 588 632 594 625 Q 606 609 623 585 C 638 563 638 563 645 552 Z"/></clipPath>
    <clipPath id="z40674c18"><path d="M 660 744 Q 603 822 475 861 Q 462 865 474 873 Q 480 877 519 875 Q 612 866 689 782 C 708 755 708 755 718 742 Q 751 687 781 606 Q 791 579 809 562 Q 825 547 814 535 Q 802 525 773 515 Q 751 508 727 521 Q 706 531 678 542 Q 663 546 645 552 C 633 557 610 585 623 585 Q 645 586 674 577 Q 705 561 712 559 Q 733 563 726 584 Q 710 657 682 709 C 667 732 667 732 660 744 Z"/></clipPath>
    <clipPath id="z40674c19"><path d="M 575 647 Q 602 668 660 744 C 679 769 679 769 689 782 Q 767 882 804 886 Q 879 890 940 885 Q 971 884 970 874 Q 865 825 759 775 Q 755 771 751 769 Q 735 756 718 742 C 694 720 694 720 682 709 Q 660 685 636 658 Q 615 633 594 625 C 585 621 567 641 575 647 Z"/></clipPath>
</defs>
<g id="bg-layer">
    <path class="bg" d="M 170 221 Q 160 217 135 212 Q 125 209 122 214 Q 118 218 124 233 Q 155 300 173 408 Q 176 441 194 462 Q 210 481 214 467 Q 215 460 216 453 C 217 438 217 438 217 431 Q 216 415 212 396 Q 188 284 183 249 C 181 239 180 225 170 221 Z"/>
    <path class="bg" d="M 401 419 Q 401 422 403 426 Q 407 439 419 439 Q 432 438 439 424 Q 452 405 474 311 Q 489 265 521 237 Q 537 222 524 209 Q 508 193 462 170 Q 450 164 387 177 Q 365 177 253 204 Q 204 214 170 221 C 160 223 173 249 183 249 Q 192 250 200 248 Q 225 238 272 229 C 295 224 295 224 306 222 Q 412 198 433 208 Q 443 215 437 247 Q 413 376 402 400 C 400 406 400 413 401 419 Z"/>
    <path class="bg" d="M 222 336 Q 243 370 254 373 Q 261 374 266 367 Q 270 358 269 339 Q 268 329 255 320 Q 219 299 212 302 Q 208 303 208 312 Q 208 319 222 336 Z"/>
    <path class="bg" d="M 368 292 Q 358 314 338 352 Q 335 356 339 360 Q 343 361 348 357 Q 393 314 415 297 Q 425 291 422 285 Q 416 276 402 267 Q 389 258 375 259 Q 365 260 368 273 Q 371 280 368 292 Z"/>
    <path class="bg" d="M 327 432 Q 364 425 398 419 Q 399 418 401 419 C 407 419 407 404 402 400 Q 395 393 381 392 Q 362 389 330 399 Q 329 399 328 400 C 303 407 303 407 290 411 Q 250 421 217 431 C 210 433 209 453 216 453 Q 223 453 234 451 Q 261 445 289 440 C 314 435 314 435 327 432 Z"/>
    <path class="bg" d="M 323 607 Q 323 573 324 540 C 325 511 325 511 325 496 Q 325 462 327 432 C 328 411 328 411 328 400 Q 329 346 331 298 Q 334 247 331 242 Q 318 230 306 222 C 297 215 266 219 272 229 Q 278 241 284 251 Q 291 275 290 411 C 289 430 289 430 289 440 Q 288 470 288 508 C 287 536 287 536 287 550 Q 287 580 287 615 C 287 627 323 619 323 607 Z"/>
    <path class="bg" d="M 324 540 Q 400 519 404 516 Q 411 509 407 502 Q 400 492 375 487 Q 350 484 325 496 C 300 504 300 504 288 508 Q 281 509 275 512 Q 247 519 214 523 Q 183 530 206 544 Q 236 560 287 550 C 312 543 312 543 324 540 Z"/>
    <path class="bg" d="M 287 615 Q 235 622 180 634 Q 162 638 133 635 Q 123 635 120 643 Q 117 653 124 661 Q 142 677 167 695 Q 174 698 186 692 Q 225 670 394 617 Q 419 610 437 599 Q 449 593 449 586 Q 445 582 435 582 Q 381 594 323 607 C 299 612 299 612 287 615 Z"/>
    <path class="bg" d="M 137 734 Q 121 786 94 832 Q 79 865 97 893 Q 104 909 123 896 Q 168 857 165 785 Q 166 755 159 733 Q 155 726 148 725 Q 141 726 137 734 Z"/>
    <path class="bg" d="M 217 743 Q 233 824 253 835 Q 262 841 273 831 Q 279 822 280 805 Q 277 766 230 726 Q 224 722 219 729 Q 215 733 217 743 Z"/>
    <path class="bg" d="M 310 723 Q 331 792 349 800 Q 358 806 368 794 Q 374 785 373 768 Q 367 738 322 705 Q 315 701 311 709 Q 308 715 310 723 Z"/>
    <path class="bg" d="M 409 712 Q 443 766 454 769 Q 461 770 466 763 Q 470 756 470 735 Q 470 722 453 706 Q 408 676 400 678 Q 396 679 395 688 Q 396 695 409 712 Z"/>
    <path class="bg" d="M 771 259 Q 696 268 616 286 Q 607 289 605 287 Q 602 283 608 275 Q 696 151 716 129 Q 726 119 721 108 Q 714 96 669 75 Q 653 68 644 72 Q 632 78 638 97 Q 659 158 563 266 Q 545 282 521 300 Q 508 312 512 322 Q 518 338 542 357 Q 552 367 564 356 Q 606 325 781 281 Q 782 280 787 280 C 796 278 780 257 771 259 Z"/>
    <path class="bg" d="M 787 280 Q 836 346 840 347 Q 846 348 853 342 Q 863 333 859 299 Q 856 257 747 198 Q 741 194 738 203 Q 737 213 771 259 C 782 273 782 273 787 280 Z"/>
    <path class="bg" d="M 567 393 Q 567 448 475 526 Q 472 527 470 531 Q 463 541 474 540 Q 510 544 580 479 Q 584 467 624 435 Q 634 428 624 414 Q 594 381 576 381 Q 567 381 567 393 Z"/>
    <path class="bg" d="M 746 408 Q 780 441 816 481 Q 826 493 839 493 Q 848 494 853 483 Q 859 471 854 447 Q 847 408 746 368 Q 733 364 728 365 Q 724 368 724 379 Q 725 389 746 408 Z"/>
    <path class="bg" d="M 645 552 Q 646 548 650 546 Q 656 542 654 533 Q 653 526 641 516 Q 617 495 588 500 Q 581 503 583 513 Q 595 547 542 632 Q 541 633 540 635 Q 524 657 484 702 Q 478 706 486 709 Q 534 691 575 647 C 588 632 588 632 594 625 Q 606 609 623 585 C 638 563 638 563 645 552 Z"/>
    <path class="bg" d="M 660 744 Q 603 822 475 861 Q 462 865 474 873 Q 480 877 519 875 Q 612 866 689 782 C 708 755 708 755 718 742 Q 751 687 781 606 Q 791 579 809 562 Q 825 547 814 535 Q 802 525 773 515 Q 751 508 727 521 Q 706 531 678 542 Q 663 546 645 552 C 633 557 610 585 623 585 Q 645 586 674 577 Q 705 561 712 559 Q 733 563 726 584 Q 710 657 682 709 C 667 732 667 732 660 744 Z"/>
    <path class="bg" d="M 575 647 Q 602 668 660 744 C 679 769 679 769 689 782 Q 767 882 804 886 Q 879 890 940 885 Q 971 884 970 874 Q 865 825 759 775 Q 755 771 751 769 Q 735 756 718 742 C 694 720 694 720 682 709 Q 660 685 636 658 Q 615 633 594 625 C 585 621 567 641 575 647 Z"/>
</g>
<g id="anim-layer">
    <path style="--d:1s; stroke:#FF4444;" pathLength="3333" clip-path="url(#z40674c1)" d="M 129 220 L 160 259 L 202 468"/>
    <path style="--d:2s; stroke:#FF4444;" pathLength="3333" clip-path="url(#z40674c2)" d="M 178 225 L 415 188 L 466 201 L 483 228 L 420 435"/>
    <path style="--d:3s; stroke:#FF4444;" pathLength="3333" clip-path="url(#z40674c3)" d="M 216 310 L 256 368"/>
    <path style="--d:4s; stroke:#FF4444;" pathLength="3333" clip-path="url(#z40674c4)" d="M 416 286 L 379 290 L 343 352"/>
    <path style="--d:5s; stroke:#FF4444;" pathLength="3333" clip-path="url(#z40674c5)" d="M 224 444 L 397 410"/>
    <path style="--d:6s; stroke:#FF4444;" pathLength="3333" clip-path="url(#z40674c6)" d="M 281 235 L 309 262 L 300 611"/>
    <path style="--d:7s; stroke:#FF4444;" pathLength="3333" clip-path="url(#z40674c7)" d="M 205 535 L 402 508"/>
    <path style="--d:8s; stroke:#FF4444;" pathLength="3333" clip-path="url(#z40674c8)" d="M 124 647 L 176 665 L 442 587"/>
    <path style="--d:9s; stroke:#FF4444;" pathLength="3333" clip-path="url(#z40674c9)" d="M 150 732 L 107 898"/>
    <path style="--d:10s; stroke:#FF4444;" pathLength="3333" clip-path="url(#z40674c10)" d="M 225 731 L 262 832"/>
    <path style="--d:11s; stroke:#FF4444;" pathLength="3333" clip-path="url(#z40674c11)" d="M 317 710 L 362 795"/>
    <path style="--d:12s; stroke:#FF4444;" pathLength="3333" clip-path="url(#z40674c12)" d="M 404 688 L 461 762"/>
    <path style="--d:13s; stroke:#000;" pathLength="3333" clip-path="url(#z40674c13)" d="M 641 80 L 680 125 L 560 309 L 577 323 L 778 273"/>
    <path style="--d:14s; stroke:#000;" pathLength="3333" clip-path="url(#z40674c14)" d="M 744 203 L 832 296 L 845 341"/>
    <path style="--d:15s; stroke:#000;" pathLength="3333" clip-path="url(#z40674c15)" d="M 577 388 L 592 430 L 476 535"/>
    <path style="--d:16s; stroke:#000;" pathLength="3333" clip-path="url(#z40674c16)" d="M 733 376 L 847 485"/>
    <path style="--d:17s; stroke:#000;" pathLength="3333" clip-path="url(#z40674c17)" d="M 593 508 L 617 547 L 492 700"/>
    <path style="--d:18s; stroke:#000;" pathLength="3333" clip-path="url(#z40674c18)" d="M 631 580 L 736 538 L 770 554 L 702 721 L 598 829 L 475 866"/>
    <path style="--d:19s; stroke:#000;" pathLength="3333" clip-path="url(#z40674c19)" d="M 582 644 L 778 827 L 960 875"/>
</g>
</svg>