<svg id="z11933" class="acjk" viewBox="0 0 1024 1024" xmlns="http://www.w3.org/2000/svg">
<style>
<![CDATA[
svg.acjk path[clip-path] {
    animation-duration: 5.7s;
    animation-timing-function: linear;
    animation-iteration-count: infinite;
    stroke-dasharray: 3337;
    stroke-dashoffset: 3339;
    stroke-width: 128;
    stroke-linecap: round;
    fill: none;
    stroke: #FF4444;
}
svg.acjk .bg { fill: #ccc; opacity: 0.5; }

/* Stroke 1: Starts at 0.0%, finishes at 14.0%, holds until 56.1% */
@keyframes zk1 {
    0%, 0.0% { stroke-dashoffset: 3339; }
    14.0%, 56.1% { stroke-dashoffset: 0; }
    56.2%, 100% { stroke-dashoffset: 3339; }
}
svg.acjk #stroke-p1 { animation-name: zk1; }
/* Stroke 2: Starts at 14.0%, finishes at 28.1%, holds until 56.1% */
@keyframes zk2 {
    0%, 14.0% { stroke-dashoffset: 3339; }
    28.1%, 56.1% { stroke-dashoffset: 0; }
    56.2%, 100% { stroke-dashoffset: 3339; }
}
svg.acjk #stroke-p2 { animation-name: zk2; }
/* Stroke 3: Starts at 28.1%, finishes at 42.1%, holds until 56.1% */
@keyframes zk3 {
    0%, 28.1% { stroke-dashoffset: 3339; }
    42.1%, 56.1% { stroke-dashoffset: 0; }
    56.2%, 100% { stroke-dashoffset: 3339; }
}
svg.acjk #stroke-p3 { animation-name: zk3; }
/* Stroke 4: Starts at 42.1%, finishes at 56.1%, holds until 56.1% */
@keyframes zk4 {
    0%, 42.1% { stroke-dashoffset: 3339; }
    56.1%, 56.1% { stroke-dashoffset: 0; }
    56.2%, 100% { stroke-dashoffset: 3339; }
}
svg.acjk #stroke-p4 { animation-name: zk4; }
]]>
</style>
<defs>
    <path id="p1" d="M 384 510 C 386 434 388 386 390 365 C 391 344 391 344 392 334 C 398 233 394 177 396 165 C 396 154 391 140 381 134 C 361 121 323 110 313 113 C 299 115 298 123 310 140 C 324 161 335 200 335 257 C 336 491 322 620 308 721 C 299 781 284 806 301 870 C 316 927 347 928 364 870 C 375 829 380 615 383 539 C 384 520 384 520 384 510 Z"/>
    <path id="p2" d="M 396 165 C 415 163 464 153 585 131 C 610 126 614 141 618 159 C 626 211 632 327 633 510 C 633 633 628 718 624 764 C 620 792 612 806 588 801 C 566 796 545 793 525 789 C 493 783 499 789 525 807 C 561 833 587 860 609 884 C 620 895 629 904 641 909 C 646 911 654 909 661 902 C 691 865 703 826 701 787 C 691 647 687 465 685 243 C 684 199 688 169 699 150 C 707 135 706 124 699 117 C 681 102 660 90 634 80 C 621 75 608 73 597 80 C 526 118 447 128 381 134 C 370 136 385 167 396 165 Z"/>
    <path id="p3" d="M 390 365 C 433 365 491 358 542 350 C 553 348 582 346 575 331 C 570 323 558 317 542 313 C 522 307 506 313 487 317 C 462 321 422 331 392 334 C 382 336 380 365 390 365 Z"/>
    <path id="p4" d="M 383 539 C 405 545 448 542 537 526 C 548 523 583 520 575 503 C 570 495 558 489 542 485 C 522 480 505 483 487 489 C 456 497 420 506 384 510 C 374 512 374 537 383 539 Z"/>

    <clipPath id="z11933c1"><use href="#p1"/></clipPath>
    <clipPath id="z11933c2"><use href="#p2"/></clipPath>
    <clipPath id="z11933c3"><use href="#p3"/></clipPath>
    <clipPath id="z11933c4"><use href="#p4"/></clipPath>
</defs>
<g id="bg-layer" class="bg">
<use href="#p1"/>
<use href="#p2"/>
<use href="#p3"/>
<use href="#p4"/>
</g>
<g id="anim-layer">
    <path id="stroke-p1" style="stroke:#FF4444" pathLength="3333" clip-path="url(#z11933c1)" d="M 310 122 L 359 162 L 365 250 L 324 906"/>
    <path id="stroke-p2" style="stroke:#FF4444" pathLength="3333" clip-path="url(#z11933c2)" d="M 383 140 L 604 104 L 660 140 L 657 811 L 628 859 L 511 790"/>
    <path id="stroke-p3" style="stroke:#000" pathLength="3333" clip-path="url(#z11933c3)" d="M 389 355 L 569 336"/>
    <path id="stroke-p4" style="stroke:#000" pathLength="3333" clip-path="url(#z11933c4)" d="M 382 526 L 569 504"/>
</g>
</svg>