<svg id="z12761" class="acjk" viewBox="0 0 1024 1024" xmlns="http://www.w3.org/2000/svg">
<style>
<![CDATA[
svg.acjk path[clip-path] {
    animation-duration: 3.3s;
    animation-timing-function: linear;
    animation-iteration-count: infinite;
    stroke-dasharray: 3337;
    stroke-dashoffset: 3339;
    stroke-width: 128;
    stroke-linecap: round;
    fill: none;
    stroke: #FF4444;
}
svg.acjk .bg { fill: #ccc; opacity: 0.5; }

/* Stroke 1: Starts at 0.0%, finishes at 24.2%, holds until 24.2% */
@keyframes zk1 {
    0%, 0.0% { stroke-dashoffset: 3339; }
    24.2%, 24.2% { stroke-dashoffset: 0; }
    24.3%, 100% { stroke-dashoffset: 3339; }
}
svg.acjk #stroke-p1 { animation-name: zk1; }
]]>
</style>
<defs>
    <path id="p1" d="M 455 733 C 450 757 441 775 432 786 C 423 798 421 812 429 827 C 436 841 462 855 474 862 C 481 865 490 863 498 852 C 516 827 574 761 662 681 C 713 635 693 624 655 649 C 617 674 556 721 527 739 C 517 745 509 744 511 733 C 525 575 548 286 560 234 C 565 210 569 195 558 185 C 543 171 517 162 500 157 C 480 150 467 151 459 161 C 453 169 457 179 464 190 C 475 206 482 218 486 238 C 490 263 489 313 487 358 C 484 468 465 670 455 733 Z"/>

    <clipPath id="z12761c1"><use href="#p1"/></clipPath>
</defs>
<g id="bg-layer" class="bg">
<use href="#p1"/>
</g>
<g id="anim-layer">
    <path id="stroke-p1" style="stroke:#FF4444" pathLength="3333" clip-path="url(#z12761c1)" d="M 462 164 L 517 199 L 525 231 L 469 789 L 506 805 L 686 644"/>
</g>
</svg>