<svg id="z148848" class="acjk" viewBox="0 0 1024 1024" xmlns="http://www.w3.org/2000/svg">
<style>
<![CDATA[
svg.acjk path[clip-path] {
    animation-duration: 8.9s;
    animation-timing-function: linear;
    animation-iteration-count: infinite;
    stroke-dasharray: 3337;
    stroke-dashoffset: 3339;
    stroke-width: 128;
    stroke-linecap: round;
    fill: none;
    stroke: #FF4444;
}
svg.acjk .bg { fill: #ccc; opacity: 0.5; }

/* Stroke 1: Starts at 0.0%, finishes at 9.0%, holds until 71.9% */
@keyframes zk1 {
    0%, 0.0% { stroke-dashoffset: 3339; }
    9.0%, 71.9% { stroke-dashoffset: 0; }
    72.0%, 100% { stroke-dashoffset: 3339; }
}
svg.acjk #stroke-p1 { animation-name: zk1; }
/* Stroke 2: Starts at 9.0%, finishes at 18.0%, holds until 71.9% */
@keyframes zk2 {
    0%, 9.0% { stroke-dashoffset: 3339; }
    18.0%, 71.9% { stroke-dashoffset: 0; }
    72.0%, 100% { stroke-dashoffset: 3339; }
}
svg.acjk #stroke-p2 { animation-name: zk2; }
/* Stroke 3: Starts at 18.0%, finishes at 27.0%, holds until 71.9% */
@keyframes zk3 {
    0%, 18.0% { stroke-dashoffset: 3339; }
    27.0%, 71.9% { stroke-dashoffset: 0; }
    72.0%, 100% { stroke-dashoffset: 3339; }
}
svg.acjk #stroke-p3 { animation-name: zk3; }
/* Stroke 4: Starts at 27.0%, finishes at 36.0%, holds until 71.9% */
@keyframes zk4 {
    0%, 27.0% { stroke-dashoffset: 3339; }
    36.0%, 71.9% { stroke-dashoffset: 0; }
    72.0%, 100% { stroke-dashoffset: 3339; }
}
svg.acjk #stroke-p4 { animation-name: zk4; }
/* Stroke 5: Starts at 36.0%, finishes at 44.9%, holds until 71.9% */
@keyframes zk5 {
    0%, 36.0% { stroke-dashoffset: 3339; }
    44.9%, 71.9% { stroke-dashoffset: 0; }
    72.0%, 100% { stroke-dashoffset: 3339; }
}
svg.acjk #stroke-p5 { animation-name: zk5; }
/* Stroke 6: Starts at 44.9%, finishes at 53.9%, holds until 71.9% */
@keyframes zk6 {
    0%, 44.9% { stroke-dashoffset: 3339; }
    53.9%, 71.9% { stroke-dashoffset: 0; }
    72.0%, 100% { stroke-dashoffset: 3339; }
}
svg.acjk #stroke-p6 { animation-name: zk6; }
/* Stroke 7: Starts at 53.9%, finishes at 62.9%, holds until 71.9% */
@keyframes zk7 {
    0%, 53.9% { stroke-dashoffset: 3339; }
    62.9%, 71.9% { stroke-dashoffset: 0; }
    72.0%, 100% { stroke-dashoffset: 3339; }
}
svg.acjk #stroke-p7 { animation-name: zk7; }
/* Stroke 8: Starts at 62.9%, finishes at 71.9%, holds until 71.9% */
@keyframes zk8 {
    0%, 62.9% { stroke-dashoffset: 3339; }
    71.9%, 71.9% { stroke-dashoffset: 0; }
    72.0%, 100% { stroke-dashoffset: 3339; }
}
svg.acjk #stroke-p8 { animation-name: zk8; }
]]>
</style>
<defs>
    <path id="p1" d="M 412 307 C 371 311 283 330 253 337 C 244 339 243 334 244 323 C 246 243 252 205 246 185 C 243 176 235 163 217 153 C 185 135 176 144 187 172 C 202 212 200 290 197 307 C 194 324 188 332 182 342 C 170 359 169 372 173 381 C 177 389 190 398 199 404 C 205 408 212 408 217 404 C 246 374 375 351 413 344 C 425 342 424 305 412 307 Z"/>
    <path id="p2" d="M 412 541 C 405 680 390 839 392 849 C 394 871 402 893 418 913 C 424 920 433 921 439 912 C 462 874 468 814 465 759 C 457 645 457 481 461 357 C 461 327 461 172 468 142 C 471 122 465 113 454 101 C 443 89 426 81 417 78 C 388 68 379 76 388 106 C 395 130 408 183 412 307 C 413 332 413 332 413 344 C 413 368 415 462 414 496 C 413 526 413 526 412 541 Z"/>
    <path id="p3" d="M 285 569 C 312 562 352 552 412 541 C 427 538 429 494 414 496 C 287 520 197 534 169 537 C 137 541 141 557 166 568 C 178 574 207 580 228 579 C 245 578 266 573 285 569 Z"/>
    <path id="p4" d="M 228 579 C 240 613 224 669 114 819 C 94 845 102 854 133 830 C 217 766 258 699 300 645 C 329 607 305 593 285 569 C 273 554 224 560 228 579 Z"/>
    <path id="p5" d="M 623 509 C 623 460 626 380 627 360 C 628 337 628 337 628 326 C 629 287 633 227 641 182 C 648 145 650 140 635 128 C 599 99 577 96 562 106 C 554 109 554 117 558 125 C 571 157 576 205 576 252 C 575 762 552 849 572 903 C 590 953 612 955 624 900 C 633 858 623 729 623 541 C 623 520 623 520 623 509 Z"/>
    <path id="p6" d="M 846 293 C 856 110 885 124 862 105 C 847 93 831 85 822 82 C 807 76 788 84 794 98 C 807 128 807 214 809 290 C 809 302 846 305 846 293 Z"/>
    <path id="p7" d="M 627 360 C 654 356 764 340 860 327 C 883 323 866 299 846 293 C 835 288 821 288 809 290 C 764 300 669 314 628 326 C 617 330 616 362 627 360 Z"/>
    <path id="p8" d="M 623 541 C 651 541 741 533 791 529 C 803 527 815 530 818 543 C 820 558 821 663 814 745 C 811 785 808 820 815 837 C 832 885 853 890 864 846 C 871 812 862 694 866 592 C 866 567 868 544 877 522 C 883 503 879 492 856 480 C 824 462 817 470 805 475 C 762 489 650 506 623 509 C 612 511 612 541 623 541 Z"/>

    <clipPath id="z148848c1"><use href="#p1"/></clipPath>
    <clipPath id="z148848c2"><use href="#p2"/></clipPath>
    <clipPath id="z148848c3"><use href="#p3"/></clipPath>
    <clipPath id="z148848c4"><use href="#p4"/></clipPath>
    <clipPath id="z148848c5"><use href="#p5"/></clipPath>
    <clipPath id="z148848c6"><use href="#p6"/></clipPath>
    <clipPath id="z148848c7"><use href="#p7"/></clipPath>
    <clipPath id="z148848c8"><use href="#p8"/></clipPath>
</defs>
<g id="bg-layer" class="bg">
<use href="#p1"/>
<use href="#p2"/>
<use href="#p3"/>
<use href="#p4"/>
<use href="#p5"/>
<use href="#p6"/>
<use href="#p7"/>
<use href="#p8"/>
</g>
<g id="anim-layer">
    <path id="stroke-p1" style="stroke:#FF4444" pathLength="3333" clip-path="url(#z148848c1)" d="M 188 153 L 221 198 L 219 368 L 419 323"/>
    <path id="stroke-p2" style="stroke:#FF4444" pathLength="3333" clip-path="url(#z148848c2)" d="M 392 80 L 434 143 L 425 912"/>
    <path id="stroke-p3" style="stroke:#FF4444" pathLength="3333" clip-path="url(#z148848c3)" d="M 151 548 L 229 554 L 422 516"/>
    <path id="stroke-p4" style="stroke:#FF4444" pathLength="3333" clip-path="url(#z148848c4)" d="M 234 570 L 268 625 L 111 838"/>
    <path id="stroke-p5" style="stroke:#000" pathLength="3333" clip-path="url(#z148848c5)" d="M 562 115 L 608 158 L 598 936"/>
    <path id="stroke-p6" style="stroke:#000" pathLength="3333" clip-path="url(#z148848c6)" d="M 802 89 L 836 128 L 828 299"/>
    <path id="stroke-p7" style="stroke:#000" pathLength="3333" clip-path="url(#z148848c7)" d="M 625 349 L 866 313"/>
    <path id="stroke-p8" style="stroke:#000" pathLength="3333" clip-path="url(#z148848c8)" d="M 618 528 L 809 499 L 844 515 L 844 871"/>
</g>
</svg>