<svg id="z15043" class="acjk" viewBox="0 0 1024 1024" xmlns="http://www.w3.org/2000/svg">
<style>
<![CDATA[
svg.acjk path[clip-path] {
    animation-duration: 7.300000000000001s;
    animation-timing-function: linear;
    animation-iteration-count: infinite;
    stroke-dasharray: 3337;
    stroke-dashoffset: 3339;
    stroke-width: 128;
    stroke-linecap: round;
    fill: none;
    stroke: #FF4444;
}
svg.acjk .bg { fill: #ccc; opacity: 0.5; }

/* Stroke 1: Starts at 0.0%, finishes at 11.0%, holds until 65.8% */
@keyframes zk1 {
    0%, 0.0% { stroke-dashoffset: 3339; }
    11.0%, 65.8% { stroke-dashoffset: 0; }
    65.9%, 100% { stroke-dashoffset: 3339; }
}
svg.acjk #stroke-p1 { animation-name: zk1; }
/* Stroke 2: Starts at 11.0%, finishes at 21.9%, holds until 65.8% */
@keyframes zk2 {
    0%, 11.0% { stroke-dashoffset: 3339; }
    21.9%, 65.8% { stroke-dashoffset: 0; }
    65.9%, 100% { stroke-dashoffset: 3339; }
}
svg.acjk #stroke-p2 { animation-name: zk2; }
/* Stroke 3: Starts at 21.9%, finishes at 32.9%, holds until 65.8% */
@keyframes zk3 {
    0%, 21.9% { stroke-dashoffset: 3339; }
    32.9%, 65.8% { stroke-dashoffset: 0; }
    65.9%, 100% { stroke-dashoffset: 3339; }
}
svg.acjk #stroke-p3 { animation-name: zk3; }
/* Stroke 4: Starts at 32.9%, finishes at 43.8%, holds until 65.8% */
@keyframes zk4 {
    0%, 32.9% { stroke-dashoffset: 3339; }
    43.8%, 65.8% { stroke-dashoffset: 0; }
    65.9%, 100% { stroke-dashoffset: 3339; }
}
svg.acjk #stroke-p4 { animation-name: zk4; }
/* Stroke 5: Starts at 43.8%, finishes at 54.8%, holds until 65.8% */
@keyframes zk5 {
    0%, 43.8% { stroke-dashoffset: 3339; }
    54.8%, 65.8% { stroke-dashoffset: 0; }
    65.9%, 100% { stroke-dashoffset: 3339; }
}
svg.acjk #stroke-p5 { animation-name: zk5; }
/* Stroke 6: Starts at 54.8%, finishes at 65.8%, holds until 65.8% */
@keyframes zk6 {
    0%, 54.8% { stroke-dashoffset: 3339; }
    65.8%, 65.8% { stroke-dashoffset: 0; }
    65.9%, 100% { stroke-dashoffset: 3339; }
}
svg.acjk #stroke-p6 { animation-name: zk6; }
]]>
</style>
<defs>
    <path id="p1" d="M 318 181 C 336 197 356 216 377 237 C 387 247 397 251 410 251 C 418 250 424 245 428 235 C 431 224 431 206 424 184 C 416 160 378 141 313 126 C 300 123 292 122 288 125 C 283 127 281 133 284 144 C 285 151 297 164 318 181 Z"/>
    <path id="p2" d="M 313 405 C 333 400 417 383 495 367 C 530 359 505 339 490 332 C 466 321 435 322 394 336 C 295 366 188 389 115 402 C 94 405 92 412 109 424 C 133 439 155 445 175 440 C 203 431 236 423 272 415 C 299 408 299 408 313 405 Z"/>
    <path id="p3" d="M 304 508 C 328 518 364 515 381 540 C 385 545 382 563 377 591 C 370 625 362 665 348 710 C 333 754 317 779 300 786 C 292 788 269 786 241 772 C 210 756 181 757 213 782 C 242 804 261 827 271 855 C 274 864 278 873 287 877 C 294 880 311 875 331 860 C 360 836 388 785 405 708 C 422 626 434 578 453 567 C 459 563 463 560 465 554 C 465 548 457 537 444 521 C 416 486 423 499 322 479 C 311 477 293 504 304 508 Z"/>
    <path id="p4" d="M 322 479 C 343 444 371 432 313 405 C 300 400 272 401 272 415 C 277 480 206 592 63 744 C 34 775 38 780 74 761 C 180 703 242 607 304 508 C 316 489 316 489 322 479 Z"/>
    <path id="p5" d="M 657 506 C 662 474 672 338 678 262 C 680 227 683 189 697 150 C 699 141 698 136 693 131 C 679 120 660 110 638 100 C 600 82 576 101 595 122 C 627 158 625 202 624 261 C 623 364 614 452 602 526 C 583 636 527 731 423 800 C 359 842 401 832 429 824 C 582 783 636 630 650 548 C 655 520 655 520 657 506 Z"/>
    <path id="p6" d="M 650 548 C 758 744 809 830 843 831 C 884 832 924 828 960 829 C 993 829 982 814 961 801 C 872 748 816 712 797 688 C 759 642 692 560 657 506 C 650 494 644 535 650 548 Z"/>

    <clipPath id="z15043c1"><use href="#p1"/></clipPath>
    <clipPath id="z15043c2"><use href="#p2"/></clipPath>
    <clipPath id="z15043c3"><use href="#p3"/></clipPath>
    <clipPath id="z15043c4"><use href="#p4"/></clipPath>
    <clipPath id="z15043c5"><use href="#p5"/></clipPath>
    <clipPath id="z15043c6"><use href="#p6"/></clipPath>
</defs>
<g id="bg-layer" class="bg">
<use href="#p1"/>
<use href="#p2"/>
<use href="#p3"/>
<use href="#p4"/>
<use href="#p5"/>
<use href="#p6"/>
</g>
<g id="anim-layer">
    <path id="stroke-p1" style="stroke:#FF4444" pathLength="3333" clip-path="url(#z15043c1)" d="M 289 129 L 424 239"/>
    <path id="stroke-p2" style="stroke:#FF4444" pathLength="3333" clip-path="url(#z15043c2)" d="M 103 411 L 169 416 L 508 353"/>
    <path id="stroke-p3" style="stroke:#FF4444" pathLength="3333" clip-path="url(#z15043c3)" d="M 306 501 L 392 514 L 422 551 L 361 756 L 296 832 L 205 768"/>
    <path id="stroke-p4" style="stroke:#FF4444" pathLength="3333" clip-path="url(#z15043c4)" d="M 280 413 L 306 451 L 255 541 L 156 672 L 52 766"/>
    <path id="stroke-p5" style="stroke:#000" pathLength="3333" clip-path="url(#z15043c5)" d="M 595 101 L 658 155 L 616 582 L 529 740 L 397 826"/>
    <path id="stroke-p6" style="stroke:#000" pathLength="3333" clip-path="url(#z15043c6)" d="M 654 514 L 827 767 L 976 816"/>
</g>
</svg>