<svg id="z15063" class="acjk" viewBox="0 0 1024 1024" xmlns="http://www.w3.org/2000/svg">
<style>
<![CDATA[
svg.acjk path[clip-path] {
    animation-duration: 8.100000000000001s;
    animation-timing-function: linear;
    animation-iteration-count: infinite;
    stroke-dasharray: 3337;
    stroke-dashoffset: 3339;
    stroke-width: 128;
    stroke-linecap: round;
    fill: none;
    stroke: #FF4444;
}
svg.acjk .bg { fill: #ccc; opacity: 0.5; }

/* Stroke 1: Starts at 0.0%, finishes at 9.9%, holds until 69.1% */
@keyframes zk1 {
    0%, 0.0% { stroke-dashoffset: 3339; }
    9.9%, 69.1% { stroke-dashoffset: 0; }
    69.2%, 100% { stroke-dashoffset: 3339; }
}
svg.acjk #stroke-p1 { animation-name: zk1; }
/* Stroke 2: Starts at 9.9%, finishes at 19.8%, holds until 69.1% */
@keyframes zk2 {
    0%, 9.9% { stroke-dashoffset: 3339; }
    19.8%, 69.1% { stroke-dashoffset: 0; }
    69.2%, 100% { stroke-dashoffset: 3339; }
}
svg.acjk #stroke-p2 { animation-name: zk2; }
/* Stroke 3: Starts at 19.8%, finishes at 29.6%, holds until 69.1% */
@keyframes zk3 {
    0%, 19.8% { stroke-dashoffset: 3339; }
    29.6%, 69.1% { stroke-dashoffset: 0; }
    69.2%, 100% { stroke-dashoffset: 3339; }
}
svg.acjk #stroke-p3 { animation-name: zk3; }
/* Stroke 4: Starts at 29.6%, finishes at 39.5%, holds until 69.1% */
@keyframes zk4 {
    0%, 29.6% { stroke-dashoffset: 3339; }
    39.5%, 69.1% { stroke-dashoffset: 0; }
    69.2%, 100% { stroke-dashoffset: 3339; }
}
svg.acjk #stroke-p4 { animation-name: zk4; }
/* Stroke 5: Starts at 39.5%, finishes at 49.4%, holds until 69.1% */
@keyframes zk5 {
    0%, 39.5% { stroke-dashoffset: 3339; }
    49.4%, 69.1% { stroke-dashoffset: 0; }
    69.2%, 100% { stroke-dashoffset: 3339; }
}
svg.acjk #stroke-p5 { animation-name: zk5; }
/* Stroke 6: Starts at 49.4%, finishes at 59.3%, holds until 69.1% */
@keyframes zk6 {
    0%, 49.4% { stroke-dashoffset: 3339; }
    59.3%, 69.1% { stroke-dashoffset: 0; }
    69.2%, 100% { stroke-dashoffset: 3339; }
}
svg.acjk #stroke-p6 { animation-name: zk6; }
/* Stroke 7: Starts at 59.3%, finishes at 69.1%, holds until 69.1% */
@keyframes zk7 {
    0%, 59.3% { stroke-dashoffset: 3339; }
    69.1%, 69.1% { stroke-dashoffset: 0; }
    69.2%, 100% { stroke-dashoffset: 3339; }
}
svg.acjk #stroke-p7 { animation-name: zk7; }
]]>
</style>
<defs>
    <path id="p1" d="M 343 175 C 323 164 304 156 284 153 C 280 152 275 153 272 157 C 267 162 274 171 277 175 C 304 214 324 274 334 357 C 338 391 347 418 365 433 C 390 453 397 439 400 412 C 401 400 397 389 394 379 C 383 350 380 329 375 305 C 371 287 371 287 369 278 C 364 258 363 236 359 210 C 356 197 354 181 343 175 Z"/>
    <path id="p2" d="M 604 385 C 615 403 625 415 637 422 C 656 432 670 400 676 388 C 684 370 698 325 719 253 C 725 229 742 209 757 195 C 763 188 764 182 763 176 C 759 163 739 142 698 120 C 650 94 658 118 343 175 C 330 178 346 212 359 210 C 448 188 536 173 610 161 C 637 156 670 167 666 192 C 645 294 626 348 612 355 C 605 362 598 377 604 385 Z"/>
    <path id="p3" d="M 375 305 C 452 306 552 286 594 273 C 601 270 607 263 602 257 C 596 250 589 244 580 241 C 563 235 536 236 501 245 C 413 267 413 267 369 278 C 360 280 366 305 375 305 Z"/>
    <path id="p4" d="M 400 412 C 418 412 439 403 604 385 C 614 383 620 361 612 355 C 578 326 567 347 394 379 C 383 381 389 412 400 412 Z"/>
    <path id="p5" d="M 523 603 C 589 551 634 523 657 517 C 669 513 672 506 669 496 C 666 486 646 469 607 447 C 595 440 582 439 569 445 C 529 459 478 474 419 491 C 402 495 376 497 339 496 C 324 495 319 501 325 514 C 329 522 337 529 349 536 C 366 546 386 541 411 532 C 505 494 559 483 568 488 C 574 491 578 499 574 506 C 555 533 531 561 509 593 C 506 598 518 606 523 603 Z"/>
    <path id="p6" d="M 550 642 C 541 621 531 611 523 603 C 519 598 513 596 509 593 C 485 575 467 568 458 567 C 451 565 445 570 448 584 C 451 603 483 615 496 649 C 500 660 501 672 503 684 C 510 765 511 831 495 858 C 487 870 434 861 419 858 C 376 849 375 855 400 877 C 415 890 434 907 455 926 C 467 937 478 951 489 967 C 493 973 499 974 507 971 C 515 966 529 952 543 928 C 564 890 569 827 558 681 C 556 667 555 654 550 642 Z"/>
    <path id="p7" d="M 558 681 C 638 676 732 673 845 677 C 867 677 889 678 910 679 C 924 679 934 676 938 670 C 943 661 938 650 926 640 C 887 607 844 598 796 607 C 730 618 647 629 550 642 C 514 647 514 647 496 649 C 375 664 244 674 103 687 C 87 688 83 695 96 709 C 117 732 145 741 175 734 C 289 707 398 689 503 684 C 540 682 540 682 558 681 Z"/>

    <clipPath id="z15063c1"><use href="#p1"/></clipPath>
    <clipPath id="z15063c2"><use href="#p2"/></clipPath>
    <clipPath id="z15063c3"><use href="#p3"/></clipPath>
    <clipPath id="z15063c4"><use href="#p4"/></clipPath>
    <clipPath id="z15063c5"><use href="#p5"/></clipPath>
    <clipPath id="z15063c6"><use href="#p6"/></clipPath>
    <clipPath id="z15063c7"><use href="#p7"/></clipPath>
</defs>
<g id="bg-layer" class="bg">
<use href="#p1"/>
<use href="#p2"/>
<use href="#p3"/>
<use href="#p4"/>
<use href="#p5"/>
<use href="#p6"/>
<use href="#p7"/>
</g>
<g id="anim-layer">
    <path id="stroke-p1" style="stroke:#FF4444" pathLength="3333" clip-path="url(#z15063c1)" d="M 279 162 L 325 199 L 380 436"/>
    <path id="stroke-p2" style="stroke:#FF4444" pathLength="3333" clip-path="url(#z15063c2)" d="M 345 185 L 630 136 L 690 153 L 714 186 L 631 416"/>
    <path id="stroke-p3" style="stroke:#FF4444" pathLength="3333" clip-path="url(#z15063c3)" d="M 368 290 L 599 261"/>
    <path id="stroke-p4" style="stroke:#FF4444" pathLength="3333" clip-path="url(#z15063c4)" d="M 391 391 L 609 364"/>
    <path id="stroke-p5" style="stroke:#000" pathLength="3333" clip-path="url(#z15063c5)" d="M 331 507 L 383 518 L 591 470 L 621 507 L 515 596"/>
    <path id="stroke-p6" style="stroke:#000" pathLength="3333" clip-path="url(#z15063c6)" d="M 455 573 L 525 653 L 529 863 L 488 919 L 392 862"/>
    <path id="stroke-p7" style="stroke:#000" pathLength="3333" clip-path="url(#z15063c7)" d="M 93 696 L 168 708 L 785 641 L 936 660"/>
</g>
</svg>