<svg id="z150803" class="acjk" viewBox="0 0 1024 1024" xmlns="http://www.w3.org/2000/svg">
<style>
<![CDATA[
svg.acjk path[clip-path] {
    animation-duration: 6.5s;
    animation-timing-function: linear;
    animation-iteration-count: infinite;
    stroke-dasharray: 3337;
    stroke-dashoffset: 3339;
    stroke-width: 128;
    stroke-linecap: round;
    fill: none;
    stroke: #FF4444;
}
svg.acjk .bg { fill: #ccc; opacity: 0.5; }

/* Stroke 1: Starts at 0.0%, finishes at 12.3%, holds until 61.5% */
@keyframes zk1 {
    0%, 0.0% { stroke-dashoffset: 3339; }
    12.3%, 61.5% { stroke-dashoffset: 0; }
    61.6%, 100% { stroke-dashoffset: 3339; }
}
svg.acjk #stroke-p1 { animation-name: zk1; }
/* Stroke 2: Starts at 12.3%, finishes at 24.6%, holds until 61.5% */
@keyframes zk2 {
    0%, 12.3% { stroke-dashoffset: 3339; }
    24.6%, 61.5% { stroke-dashoffset: 0; }
    61.6%, 100% { stroke-dashoffset: 3339; }
}
svg.acjk #stroke-p2 { animation-name: zk2; }
/* Stroke 3: Starts at 24.6%, finishes at 36.9%, holds until 61.5% */
@keyframes zk3 {
    0%, 24.6% { stroke-dashoffset: 3339; }
    36.9%, 61.5% { stroke-dashoffset: 0; }
    61.6%, 100% { stroke-dashoffset: 3339; }
}
svg.acjk #stroke-p3 { animation-name: zk3; }
/* Stroke 4: Starts at 36.9%, finishes at 49.2%, holds until 61.5% */
@keyframes zk4 {
    0%, 36.9% { stroke-dashoffset: 3339; }
    49.2%, 61.5% { stroke-dashoffset: 0; }
    61.6%, 100% { stroke-dashoffset: 3339; }
}
svg.acjk #stroke-p4 { animation-name: zk4; }
/* Stroke 5: Starts at 49.2%, finishes at 61.5%, holds until 61.5% */
@keyframes zk5 {
    0%, 49.2% { stroke-dashoffset: 3339; }
    61.5%, 61.5% { stroke-dashoffset: 0; }
    61.6%, 100% { stroke-dashoffset: 3339; }
}
svg.acjk #stroke-p5 { animation-name: zk5; }
]]>
</style>
<defs>
    <path id="p1" d="M 513 225 C 557 217 642 210 687 206 C 771 197 891 212 777 149 C 761 140 742 137 722 143 C 606 176 395 204 212 221 C 174 224 162 237 203 254 C 246 271 266 273 303 264 C 345 254 392 244 457 234 C 494 228 494 228 513 225 Z"/>
    <path id="p2" d="M 517 658 C 519 585 520 518 523 457 C 524 438 524 438 524 429 C 526 348 525 299 531 270 C 534 253 529 239 513 225 C 500 212 450 216 457 234 C 467 254 471 275 471 300 C 471 324 471 429 469 629 C 469 648 517 677 517 658 Z"/>
    <path id="p3" d="M 523 457 C 557 467 588 467 620 460 C 686 444 733 436 738 433 C 744 427 745 420 742 415 C 736 406 722 399 702 396 C 687 393 641 402 585 418 C 567 422 546 426 524 429 C 515 431 514 455 523 457 Z"/>
    <path id="p4" d="M 330 529 C 353 484 364 454 374 443 C 378 438 380 432 378 426 C 376 419 370 412 361 406 C 350 398 338 392 324 391 C 309 388 276 382 284 404 C 299 450 277 531 209 643 C 170 705 120 762 82 806 C 77 810 81 819 87 816 C 213 733 268 647 318 552 C 326 537 326 537 330 529 Z"/>
    <path id="p5" d="M 318 552 C 444 654 575 750 708 844 C 727 857 749 863 776 862 C 825 858 875 846 926 832 C 948 825 949 815 932 810 C 883 795 829 782 772 768 C 695 748 609 713 517 658 C 485 639 485 639 469 629 C 419 599 378 561 330 529 C 323 524 311 547 318 552 Z"/>

    <clipPath id="z150803c1"><use href="#p1"/></clipPath>
    <clipPath id="z150803c2"><use href="#p2"/></clipPath>
    <clipPath id="z150803c3"><use href="#p3"/></clipPath>
    <clipPath id="z150803c4"><use href="#p4"/></clipPath>
    <clipPath id="z150803c5"><use href="#p5"/></clipPath>
</defs>
<g id="bg-layer" class="bg">
<use href="#p1"/>
<use href="#p2"/>
<use href="#p3"/>
<use href="#p4"/>
<use href="#p5"/>
</g>
<g id="anim-layer">
    <path id="stroke-p1" style="stroke:#FF4444" pathLength="3333" clip-path="url(#z150803c1)" d="M 184 233 L 276 242 L 750 171 L 818 185"/>
    <path id="stroke-p2" style="stroke:#000" pathLength="3333" clip-path="url(#z150803c2)" d="M 462 228 L 500 264 L 501 660"/>
    <path id="stroke-p3" style="stroke:#000" pathLength="3333" clip-path="url(#z150803c3)" d="M 520 446 L 739 422"/>
    <path id="stroke-p4" style="stroke:#000" pathLength="3333" clip-path="url(#z150803c4)" d="M 290 397 L 333 438 L 288 551 L 216 673 L 86 810"/>
    <path id="stroke-p5" style="stroke:#000" pathLength="3333" clip-path="url(#z150803c5)" d="M 326 533 L 476 654 L 736 807 L 935 818"/>
</g>
</svg>