<svg id="z151637" class="acjk" viewBox="0 0 1024 1024" xmlns="http://www.w3.org/2000/svg">
<style>
<![CDATA[
svg.acjk path[clip-path] {
    animation-duration: 10.5s;
    animation-timing-function: linear;
    animation-iteration-count: infinite;
    stroke-dasharray: 3337;
    stroke-dashoffset: 3339;
    stroke-width: 128;
    stroke-linecap: round;
    fill: none;
    stroke: #FF4444;
}
svg.acjk .bg { fill: #ccc; opacity: 0.5; }

/* Stroke 1: Starts at 0.0%, finishes at 7.6%, holds until 76.2% */
@keyframes zk1 {
    0%, 0.0% { stroke-dashoffset: 3339; }
    7.6%, 76.2% { stroke-dashoffset: 0; }
    76.3%, 100% { stroke-dashoffset: 3339; }
}
svg.acjk #stroke-p1 { animation-name: zk1; }
/* Stroke 2: Starts at 7.6%, finishes at 15.2%, holds until 76.2% */
@keyframes zk2 {
    0%, 7.6% { stroke-dashoffset: 3339; }
    15.2%, 76.2% { stroke-dashoffset: 0; }
    76.3%, 100% { stroke-dashoffset: 3339; }
}
svg.acjk #stroke-p2 { animation-name: zk2; }
/* Stroke 3: Starts at 15.2%, finishes at 22.9%, holds until 76.2% */
@keyframes zk3 {
    0%, 15.2% { stroke-dashoffset: 3339; }
    22.9%, 76.2% { stroke-dashoffset: 0; }
    76.3%, 100% { stroke-dashoffset: 3339; }
}
svg.acjk #stroke-p3 { animation-name: zk3; }
/* Stroke 4: Starts at 22.9%, finishes at 30.5%, holds until 76.2% */
@keyframes zk4 {
    0%, 22.9% { stroke-dashoffset: 3339; }
    30.5%, 76.2% { stroke-dashoffset: 0; }
    76.3%, 100% { stroke-dashoffset: 3339; }
}
svg.acjk #stroke-p4 { animation-name: zk4; }
/* Stroke 5: Starts at 30.5%, finishes at 38.1%, holds until 76.2% */
@keyframes zk5 {
    0%, 30.5% { stroke-dashoffset: 3339; }
    38.1%, 76.2% { stroke-dashoffset: 0; }
    76.3%, 100% { stroke-dashoffset: 3339; }
}
svg.acjk #stroke-p5 { animation-name: zk5; }
/* Stroke 6: Starts at 38.1%, finishes at 45.7%, holds until 76.2% */
@keyframes zk6 {
    0%, 38.1% { stroke-dashoffset: 3339; }
    45.7%, 76.2% { stroke-dashoffset: 0; }
    76.3%, 100% { stroke-dashoffset: 3339; }
}
svg.acjk #stroke-p6 { animation-name: zk6; }
/* Stroke 7: Starts at 45.7%, finishes at 53.3%, holds until 76.2% */
@keyframes zk7 {
    0%, 45.7% { stroke-dashoffset: 3339; }
    53.3%, 76.2% { stroke-dashoffset: 0; }
    76.3%, 100% { stroke-dashoffset: 3339; }
}
svg.acjk #stroke-p7 { animation-name: zk7; }
/* Stroke 8: Starts at 53.3%, finishes at 61.0%, holds until 76.2% */
@keyframes zk8 {
    0%, 53.3% { stroke-dashoffset: 3339; }
    61.0%, 76.2% { stroke-dashoffset: 0; }
    76.3%, 100% { stroke-dashoffset: 3339; }
}
svg.acjk #stroke-p8 { animation-name: zk8; }
/* Stroke 9: Starts at 61.0%, finishes at 68.6%, holds until 76.2% */
@keyframes zk9 {
    0%, 61.0% { stroke-dashoffset: 3339; }
    68.6%, 76.2% { stroke-dashoffset: 0; }
    76.3%, 100% { stroke-dashoffset: 3339; }
}
svg.acjk #stroke-p9 { animation-name: zk9; }
/* Stroke 10: Starts at 68.6%, finishes at 76.2%, holds until 76.2% */
@keyframes zk10 {
    0%, 68.6% { stroke-dashoffset: 3339; }
    76.2%, 76.2% { stroke-dashoffset: 0; }
    76.3%, 100% { stroke-dashoffset: 3339; }
}
svg.acjk #stroke-p10 { animation-name: zk10; }
]]>
</style>
<defs>
    <path id="p1" d="M 337 164 C 317 155 248 127 272 177 C 298 232 318 305 331 396 C 334 423 341 446 357 465 C 374 484 382 477 386 457 C 387 448 388 439 387 431 C 382 381 363 301 348 200 C 346 188 349 169 337 164 Z"/>
    <path id="p2" d="M 584 435 C 597 455 605 467 617 476 C 625 480 635 478 647 461 C 660 441 679 371 709 255 C 715 231 728 212 746 194 C 756 184 756 173 748 164 C 737 149 715 133 684 114 C 669 105 657 106 646 109 C 544 130 440 147 337 164 C 325 166 336 202 348 200 C 360 198 383 194 462 179 C 481 176 481 176 490 174 C 575 157 625 152 640 165 C 651 173 656 187 651 205 C 612 368 604 396 592 407 C 585 414 578 427 584 435 Z"/>
    <path id="p3" d="M 462 179 C 484 224 438 310 405 365 C 393 384 392 397 416 376 C 443 351 454 344 483 295 C 490 282 490 282 494 276 C 505 257 516 235 523 217 C 532 197 521 191 490 174 C 482 169 458 170 462 179 Z"/>
    <path id="p4" d="M 483 295 C 525 327 547 344 569 357 C 596 373 590 335 584 324 C 575 307 549 292 494 276 C 487 273 477 291 483 295 Z"/>
    <path id="p5" d="M 386 457 C 407 460 437 453 584 435 C 594 433 600 412 592 407 C 553 383 528 404 387 431 C 378 433 377 455 386 457 Z"/>
    <path id="p6" d="M 291 588 C 271 580 200 549 224 599 C 265 686 278 818 288 846 C 293 859 331 857 331 843 C 331 789 310 713 300 624 C 298 612 302 593 291 588 Z"/>
    <path id="p7" d="M 702 808 C 709 777 717 746 725 717 C 737 674 756 639 784 609 C 799 592 795 576 775 563 C 753 548 734 535 715 523 C 703 515 674 524 623 535 C 604 539 494 553 291 588 C 279 590 288 628 300 624 C 333 615 362 607 387 603 C 404 600 404 600 413 598 C 444 593 481 588 520 583 C 543 580 543 580 555 578 C 620 570 664 560 678 575 C 688 586 687 607 682 631 C 673 680 657 742 634 816 C 626 837 698 830 702 808 Z"/>
    <path id="p8" d="M 440 835 C 445 782 432 635 413 598 C 410 590 387 594 387 603 C 395 691 383 759 413 837 C 416 846 440 844 440 835 Z"/>
    <path id="p9" d="M 550 825 C 592 606 630 628 555 578 C 546 571 518 571 520 583 C 532 672 531 682 510 830 C 507 843 547 838 550 825 Z"/>
    <path id="p10" d="M 288 846 C 246 849 163 852 121 855 C 104 856 100 862 113 876 C 124 888 151 909 188 901 C 350 866 637 859 891 873 C 935 875 920 847 907 836 C 854 790 761 800 702 808 C 657 813 657 813 634 816 C 607 820 579 822 550 825 C 523 828 523 828 510 830 C 492 832 458 834 440 835 C 422 836 422 836 413 837 C 386 840 358 841 331 843 C 302 845 302 845 288 846 Z"/>

    <clipPath id="z151637c1"><use href="#p1"/></clipPath>
    <clipPath id="z151637c2"><use href="#p2"/></clipPath>
    <clipPath id="z151637c3"><use href="#p3"/></clipPath>
    <clipPath id="z151637c4"><use href="#p4"/></clipPath>
    <clipPath id="z151637c5"><use href="#p5"/></clipPath>
    <clipPath id="z151637c6"><use href="#p6"/></clipPath>
    <clipPath id="z151637c7"><use href="#p7"/></clipPath>
    <clipPath id="z151637c8"><use href="#p8"/></clipPath>
    <clipPath id="z151637c9"><use href="#p9"/></clipPath>
    <clipPath id="z151637c10"><use href="#p10"/></clipPath>
</defs>
<g id="bg-layer" class="bg">
<use href="#p1"/>
<use href="#p2"/>
<use href="#p3"/>
<use href="#p4"/>
<use href="#p5"/>
<use href="#p6"/>
<use href="#p7"/>
<use href="#p8"/>
<use href="#p9"/>
<use href="#p10"/>
</g>
<g id="anim-layer">
    <path id="stroke-p1" style="stroke:#FF4444" pathLength="3333" clip-path="url(#z151637c1)" d="M 274 158 L 316 193 L 369 470"/>
    <path id="stroke-p2" style="stroke:#FF4444" pathLength="3333" clip-path="url(#z151637c2)" d="M 334 172 L 640 134 L 690 161 L 703 187 L 605 464"/>
    <path id="stroke-p3" style="stroke:#FF4444" pathLength="3333" clip-path="url(#z151637c3)" d="M 469 179 L 494 223 L 403 379"/>
    <path id="stroke-p4" style="stroke:#FF4444" pathLength="3333" clip-path="url(#z151637c4)" d="M 485 288 L 580 356"/>
    <path id="stroke-p5" style="stroke:#FF4444" pathLength="3333" clip-path="url(#z151637c5)" d="M 383 446 L 592 421"/>
    <path id="stroke-p6" style="stroke:#000" pathLength="3333" clip-path="url(#z151637c6)" d="M 227 580 L 268 617 L 313 852"/>
    <path id="stroke-p7" style="stroke:#000" pathLength="3333" clip-path="url(#z151637c7)" d="M 292 598 L 700 551 L 738 603 L 652 826"/>
    <path id="stroke-p8" style="stroke:#000" pathLength="3333" clip-path="url(#z151637c8)" d="M 401 597 L 424 839"/>
    <path id="stroke-p9" style="stroke:#000" pathLength="3333" clip-path="url(#z151637c9)" d="M 526 578 L 562 631 L 528 836"/>
    <path id="stroke-p10" style="stroke:#000" pathLength="3333" clip-path="url(#z151637c10)" d="M 112 865 L 175 877 L 771 834 L 917 859"/>
</g>
</svg>