<svg id="z18034" class="acjk" viewBox="0 0 1024 1024" xmlns="http://www.w3.org/2000/svg">
<style>
<![CDATA[
svg.acjk path[clip-path] {
    animation-duration: 9.7s;
    animation-timing-function: linear;
    animation-iteration-count: infinite;
    stroke-dasharray: 3337;
    stroke-dashoffset: 3339;
    stroke-width: 128;
    stroke-linecap: round;
    fill: none;
    stroke: #FF4444;
}
svg.acjk .bg { fill: #ccc; opacity: 0.5; }

/* Stroke 1: Starts at 0.0%, finishes at 8.2%, holds until 74.2% */
@keyframes zk1 {
    0%, 0.0% { stroke-dashoffset: 3339; }
    8.2%, 74.2% { stroke-dashoffset: 0; }
    74.3%, 100% { stroke-dashoffset: 3339; }
}
svg.acjk #stroke-p1 { animation-name: zk1; }
/* Stroke 2: Starts at 8.2%, finishes at 16.5%, holds until 74.2% */
@keyframes zk2 {
    0%, 8.2% { stroke-dashoffset: 3339; }
    16.5%, 74.2% { stroke-dashoffset: 0; }
    74.3%, 100% { stroke-dashoffset: 3339; }
}
svg.acjk #stroke-p2 { animation-name: zk2; }
/* Stroke 3: Starts at 16.5%, finishes at 24.7%, holds until 74.2% */
@keyframes zk3 {
    0%, 16.5% { stroke-dashoffset: 3339; }
    24.7%, 74.2% { stroke-dashoffset: 0; }
    74.3%, 100% { stroke-dashoffset: 3339; }
}
svg.acjk #stroke-p3 { animation-name: zk3; }
/* Stroke 4: Starts at 24.7%, finishes at 33.0%, holds until 74.2% */
@keyframes zk4 {
    0%, 24.7% { stroke-dashoffset: 3339; }
    33.0%, 74.2% { stroke-dashoffset: 0; }
    74.3%, 100% { stroke-dashoffset: 3339; }
}
svg.acjk #stroke-p4 { animation-name: zk4; }
/* Stroke 5: Starts at 33.0%, finishes at 41.2%, holds until 74.2% */
@keyframes zk5 {
    0%, 33.0% { stroke-dashoffset: 3339; }
    41.2%, 74.2% { stroke-dashoffset: 0; }
    74.3%, 100% { stroke-dashoffset: 3339; }
}
svg.acjk #stroke-p5 { animation-name: zk5; }
/* Stroke 6: Starts at 41.2%, finishes at 49.5%, holds until 74.2% */
@keyframes zk6 {
    0%, 41.2% { stroke-dashoffset: 3339; }
    49.5%, 74.2% { stroke-dashoffset: 0; }
    74.3%, 100% { stroke-dashoffset: 3339; }
}
svg.acjk #stroke-p6 { animation-name: zk6; }
/* Stroke 7: Starts at 49.5%, finishes at 57.7%, holds until 74.2% */
@keyframes zk7 {
    0%, 49.5% { stroke-dashoffset: 3339; }
    57.7%, 74.2% { stroke-dashoffset: 0; }
    74.3%, 100% { stroke-dashoffset: 3339; }
}
svg.acjk #stroke-p7 { animation-name: zk7; }
/* Stroke 8: Starts at 57.7%, finishes at 66.0%, holds until 74.2% */
@keyframes zk8 {
    0%, 57.7% { stroke-dashoffset: 3339; }
    66.0%, 74.2% { stroke-dashoffset: 0; }
    74.3%, 100% { stroke-dashoffset: 3339; }
}
svg.acjk #stroke-p8 { animation-name: zk8; }
/* Stroke 9: Starts at 66.0%, finishes at 74.2%, holds until 74.2% */
@keyframes zk9 {
    0%, 66.0% { stroke-dashoffset: 3339; }
    74.2%, 74.2% { stroke-dashoffset: 0; }
    74.3%, 100% { stroke-dashoffset: 3339; }
}
svg.acjk #stroke-p9 { animation-name: zk9; }
]]>
</style>
<defs>
    <path id="p1" d="M 597 150 C 672 139 711 126 715 124 C 729 114 728 94 681 82 C 658 76 610 89 534 106 C 444 126 370 130 312 135 C 285 137 280 147 299 160 C 312 169 330 177 358 181 C 374 184 391 182 407 179 C 445 172 498 164 552 157 C 582 152 582 152 597 150 Z"/>
    <path id="p2" d="M 253 308 C 233 303 166 284 194 329 C 217 365 240 412 256 473 C 261 491 268 505 280 517 C 304 540 307 520 308 500 C 308 490 306 481 303 472 C 294 439 286 406 274 347 C 271 333 267 311 253 308 Z"/>
    <path id="p3" d="M 699 462 C 712 512 760 448 773 419 C 790 382 809 352 837 331 C 853 319 854 308 843 296 C 829 282 804 265 769 243 C 734 221 744 232 621 252 C 582 259 582 259 563 262 C 528 267 479 274 441 281 C 409 286 409 286 393 288 C 339 296 292 303 253 308 C 238 310 259 349 274 347 C 284 347 300 338 397 321 C 427 316 427 316 442 313 C 476 308 515 301 559 297 C 594 293 594 293 612 291 C 675 285 714 279 731 290 C 736 293 737 303 733 319 C 720 377 708 414 700 430 C 695 439 697 452 699 462 Z"/>
    <path id="p4" d="M 358 181 C 366 197 384 224 393 288 C 396 310 396 310 397 321 C 401 352 405 399 412 459 C 415 472 454 466 451 453 C 445 397 445 351 442 313 C 441 292 441 292 441 281 C 436 199 452 202 407 179 C 392 173 351 166 358 181 Z"/>
    <path id="p5" d="M 621 252 C 637 182 650 189 597 150 C 585 141 547 143 552 157 C 553 158 553 158 553 158 C 562 193 566 228 563 262 C 560 285 560 285 559 297 C 556 331 549 377 541 440 C 539 455 584 448 586 433 C 595 375 603 330 612 291 C 618 265 618 265 621 252 Z"/>
    <path id="p6" d="M 700 430 C 664 418 635 425 586 433 C 556 438 556 438 541 440 C 510 444 479 448 451 453 C 425 457 425 457 412 459 C 374 465 337 466 303 472 C 294 474 299 500 308 500 C 334 502 440 486 699 462 C 709 460 710 432 700 430 Z"/>
    <path id="p7" d="M 521 646 C 567 641 682 639 868 639 C 912 639 894 612 883 603 C 842 572 808 564 774 571 C 711 583 630 595 531 608 C 487 613 487 613 465 616 C 368 627 264 638 154 649 C 139 650 135 655 148 669 C 160 683 187 700 221 692 C 294 674 431 654 460 652 C 501 648 501 648 521 646 Z"/>
    <path id="p8" d="M 517 658 C 518 654 519 650 521 646 C 528 621 528 621 531 608 C 542 565 554 553 507 533 C 428 498 449 541 452 546 C 463 565 464 586 465 616 C 465 628 462 640 460 652 C 428 785 325 839 164 893 C 144 899 142 907 167 909 C 263 915 458 856 507 692 C 514 669 514 669 517 658 Z"/>
    <path id="p9" d="M 507 692 C 625 836 702 912 740 919 C 786 927 848 924 921 913 C 965 905 944 896 930 891 C 797 842 723 809 703 798 C 666 775 604 729 517 658 C 509 650 500 683 507 692 Z"/>

    <clipPath id="z18034c1"><use href="#p1"/></clipPath>
    <clipPath id="z18034c2"><use href="#p2"/></clipPath>
    <clipPath id="z18034c3"><use href="#p3"/></clipPath>
    <clipPath id="z18034c4"><use href="#p4"/></clipPath>
    <clipPath id="z18034c5"><use href="#p5"/></clipPath>
    <clipPath id="z18034c6"><use href="#p6"/></clipPath>
    <clipPath id="z18034c7"><use href="#p7"/></clipPath>
    <clipPath id="z18034c8"><use href="#p8"/></clipPath>
    <clipPath id="z18034c9"><use href="#p9"/></clipPath>
</defs>
<g id="bg-layer" class="bg">
<use href="#p1"/>
<use href="#p2"/>
<use href="#p3"/>
<use href="#p4"/>
<use href="#p5"/>
<use href="#p6"/>
<use href="#p7"/>
<use href="#p8"/>
<use href="#p9"/>
</g>
<g id="anim-layer">
    <path id="stroke-p1" style="stroke:#FF4444" pathLength="3333" clip-path="url(#z18034c1)" d="M 293 144 L 398 154 L 717 100"/>
    <path id="stroke-p2" style="stroke:#FF4444" pathLength="3333" clip-path="url(#z18034c2)" d="M 192 305 L 242 344 L 293 523"/>
    <path id="stroke-p3" style="stroke:#FF4444" pathLength="3333" clip-path="url(#z18034c3)" d="M 253 317 L 739 260 L 796 319 L 716 476"/>
    <path id="stroke-p4" style="stroke:#FF4444" pathLength="3333" clip-path="url(#z18034c4)" d="M 365 177 L 408 215 L 428 464"/>
    <path id="stroke-p5" style="stroke:#FF4444" pathLength="3333" clip-path="url(#z18034c5)" d="M 559 154 L 598 199 L 561 446"/>
    <path id="stroke-p6" style="stroke:#FF4444" pathLength="3333" clip-path="url(#z18034c6)" d="M 304 478 L 704 442"/>
    <path id="stroke-p7" style="stroke:#000" pathLength="3333" clip-path="url(#z18034c7)" d="M 147 658 L 212 668 L 793 604 L 891 616"/>
    <path id="stroke-p8" style="stroke:#000" pathLength="3333" clip-path="url(#z18034c8)" d="M 453 529 L 501 589 L 443 758 L 337 846 L 155 902"/>
    <path id="stroke-p9" style="stroke:#000" pathLength="3333" clip-path="url(#z18034c9)" d="M 512 666 L 737 866 L 940 901"/>
</g>
</svg>