<svg id="z20115" class="acjk" viewBox="0 0 1024 1024" xmlns="http://www.w3.org/2000/svg">
<style>
<![CDATA[
svg.acjk path[clip-path] {
    animation-duration: 5.7s;
    animation-timing-function: linear;
    animation-iteration-count: infinite;
    stroke-dasharray: 3337;
    stroke-dashoffset: 3339;
    stroke-width: 128;
    stroke-linecap: round;
    fill: none;
    stroke: #FF4444;
}
svg.acjk .bg { fill: #ccc; opacity: 0.5; }

/* Stroke 1: Starts at 0.0%, finishes at 14.0%, holds until 56.1% */
@keyframes zk1 {
    0%, 0.0% { stroke-dashoffset: 3339; }
    14.0%, 56.1% { stroke-dashoffset: 0; }
    56.2%, 100% { stroke-dashoffset: 3339; }
}
svg.acjk #stroke-p1 { animation-name: zk1; }
/* Stroke 2: Starts at 14.0%, finishes at 28.1%, holds until 56.1% */
@keyframes zk2 {
    0%, 14.0% { stroke-dashoffset: 3339; }
    28.1%, 56.1% { stroke-dashoffset: 0; }
    56.2%, 100% { stroke-dashoffset: 3339; }
}
svg.acjk #stroke-p2 { animation-name: zk2; }
/* Stroke 3: Starts at 28.1%, finishes at 42.1%, holds until 56.1% */
@keyframes zk3 {
    0%, 28.1% { stroke-dashoffset: 3339; }
    42.1%, 56.1% { stroke-dashoffset: 0; }
    56.2%, 100% { stroke-dashoffset: 3339; }
}
svg.acjk #stroke-p3 { animation-name: zk3; }
/* Stroke 4: Starts at 42.1%, finishes at 56.1%, holds until 56.1% */
@keyframes zk4 {
    0%, 42.1% { stroke-dashoffset: 3339; }
    56.1%, 56.1% { stroke-dashoffset: 0; }
    56.2%, 100% { stroke-dashoffset: 3339; }
}
svg.acjk #stroke-p4 { animation-name: zk4; }
]]>
</style>
<defs>
    <path id="p1" d="M 356 197 C 329 199 324 208 344 221 C 373 240 408 244 449 238 C 516 226 586 217 657 206 C 689 200 708 194 713 191 C 719 185 721 178 719 173 C 714 164 702 155 681 150 C 662 145 616 159 540 174 C 438 193 376 195 356 197 Z"/>
    <path id="p2" d="M 627 414 C 689 409 759 405 838 407 C 892 407 922 406 928 398 C 932 389 928 378 915 368 C 875 338 835 328 797 336 C 670 361 452 394 142 431 C 126 432 123 439 136 453 C 157 475 184 483 215 476 C 253 466 294 456 336 449 C 368 443 368 443 384 440 C 438 429 533 420 586 417 C 613 415 613 415 627 414 Z"/>
    <path id="p3" d="M 336 449 C 358 495 360 563 336 650 C 312 730 256 798 175 856 C 166 862 166 867 175 868 C 211 869 252 845 301 800 C 324 777 351 748 369 705 C 387 658 396 623 403 596 C 411 557 419 505 428 488 C 434 475 430 467 420 461 C 400 448 389 440 384 440 C 369 434 330 434 336 449 Z"/>
    <path id="p4" d="M 586 417 C 598 443 604 509 604 617 C 604 717 597 783 588 817 C 577 853 597 893 631 931 C 641 942 649 931 653 922 C 661 899 663 877 662 856 C 652 652 652 518 661 455 C 662 446 661 439 656 435 C 646 426 636 419 627 414 C 615 407 581 404 586 417 Z"/>

    <clipPath id="z20115c1"><use href="#p1"/></clipPath>
    <clipPath id="z20115c2"><use href="#p2"/></clipPath>
    <clipPath id="z20115c3"><use href="#p3"/></clipPath>
    <clipPath id="z20115c4"><use href="#p4"/></clipPath>
</defs>
<g id="bg-layer" class="bg">
<use href="#p1"/>
<use href="#p2"/>
<use href="#p3"/>
<use href="#p4"/>
</g>
<g id="anim-layer">
    <path id="stroke-p1" style="stroke:#FF4444" pathLength="3333" clip-path="url(#z20115c1)" d="M 343 208 L 715 181"/>
    <path id="stroke-p2" style="stroke:#FF4444" pathLength="3333" clip-path="url(#z20115c2)" d="M 134 438 L 203 450 L 816 370 L 925 391"/>
    <path id="stroke-p3" style="stroke:#000" pathLength="3333" clip-path="url(#z20115c3)" d="M 346 454 L 390 484 L 356 668 L 276 795 L 178 862"/>
    <path id="stroke-p4" style="stroke:#000" pathLength="3333" clip-path="url(#z20115c4)" d="M 593 418 L 628 446 L 638 930"/>
</g>
</svg>