<svg id="z20130" class="acjk" viewBox="0 0 1024 1024" xmlns="http://www.w3.org/2000/svg">
<style>
<![CDATA[
svg.acjk path[clip-path] {
    animation-duration: 5.7s;
    animation-timing-function: linear;
    animation-iteration-count: infinite;
    stroke-dasharray: 3337;
    stroke-dashoffset: 3339;
    stroke-width: 128;
    stroke-linecap: round;
    fill: none;
    stroke: #FF4444;
}
svg.acjk .bg { fill: #ccc; opacity: 0.5; }

/* Stroke 1: Starts at 0.0%, finishes at 14.0%, holds until 56.1% */
@keyframes zk1 {
    0%, 0.0% { stroke-dashoffset: 3339; }
    14.0%, 56.1% { stroke-dashoffset: 0; }
    56.2%, 100% { stroke-dashoffset: 3339; }
}
svg.acjk #stroke-p1 { animation-name: zk1; }
/* Stroke 2: Starts at 14.0%, finishes at 28.1%, holds until 56.1% */
@keyframes zk2 {
    0%, 14.0% { stroke-dashoffset: 3339; }
    28.1%, 56.1% { stroke-dashoffset: 0; }
    56.2%, 100% { stroke-dashoffset: 3339; }
}
svg.acjk #stroke-p2 { animation-name: zk2; }
/* Stroke 3: Starts at 28.1%, finishes at 42.1%, holds until 56.1% */
@keyframes zk3 {
    0%, 28.1% { stroke-dashoffset: 3339; }
    42.1%, 56.1% { stroke-dashoffset: 0; }
    56.2%, 100% { stroke-dashoffset: 3339; }
}
svg.acjk #stroke-p3 { animation-name: zk3; }
/* Stroke 4: Starts at 42.1%, finishes at 56.1%, holds until 56.1% */
@keyframes zk4 {
    0%, 42.1% { stroke-dashoffset: 3339; }
    56.1%, 56.1% { stroke-dashoffset: 0; }
    56.2%, 100% { stroke-dashoffset: 3339; }
}
svg.acjk #stroke-p4 { animation-name: zk4; }
]]>
</style>
<defs>
    <path id="p1" d="M 458 129 C 480 147 504 169 529 193 C 539 203 550 207 562 207 C 570 206 576 201 580 191 C 583 180 582 163 576 141 C 568 114 527 92 453 74 C 441 71 432 70 428 73 C 423 75 421 82 424 92 C 425 100 438 112 458 129 Z"/>
    <path id="p2" d="M 186 315 C 161 317 158 326 177 342 C 204 364 231 376 252 369 C 260 365 381 338 624 302 C 690 291 751 283 806 280 C 814 279 825 278 831 266 C 834 256 822 247 804 237 C 777 221 752 216 728 222 C 553 264 393 292 247 308 C 227 310 206 312 186 315 Z"/>
    <path id="p3" d="M 397 443 C 365 425 349 423 336 432 C 327 437 325 443 331 453 C 354 491 364 556 343 647 C 319 748 261 808 197 868 C 189 875 189 882 198 880 C 344 830 402 690 414 534 C 415 509 417 488 423 473 C 428 461 409 449 397 443 Z"/>
    <path id="p4" d="M 913 876 C 933 866 939 851 930 830 C 914 793 903 746 899 689 C 897 673 895 663 890 661 C 883 657 878 660 876 672 C 857 755 840 805 824 819 C 813 827 795 833 769 836 C 704 841 652 822 620 775 C 586 726 587 640 620 524 C 630 486 648 460 670 443 C 689 426 688 415 666 405 C 654 399 636 392 610 383 C 593 377 577 380 559 390 C 507 417 455 429 397 443 C 384 445 410 475 423 473 C 447 470 488 456 540 448 C 564 444 564 457 564 475 C 564 498 559 535 554 588 C 544 679 549 757 576 807 C 601 855 646 888 694 900 C 758 915 834 913 913 876 Z"/>

    <clipPath id="z20130c1"><use href="#p1"/></clipPath>
    <clipPath id="z20130c2"><use href="#p2"/></clipPath>
    <clipPath id="z20130c3"><use href="#p3"/></clipPath>
    <clipPath id="z20130c4"><use href="#p4"/></clipPath>
</defs>
<g id="bg-layer" class="bg">
<use href="#p1"/>
<use href="#p2"/>
<use href="#p3"/>
<use href="#p4"/>
</g>
<g id="anim-layer">
    <path id="stroke-p1" style="stroke:#FF4444" pathLength="3333" clip-path="url(#z20130c1)" d="M 429 80 L 537 148 L 562 203"/>
    <path id="stroke-p2" style="stroke:#FF4444" pathLength="3333" clip-path="url(#z20130c2)" d="M 171 324 L 254 338 L 734 253 L 827 259"/>
    <path id="stroke-p3" style="stroke:#000" pathLength="3333" clip-path="url(#z20130c3)" d="M 334 440 L 385 478 L 363 669 L 304 784 L 199 873"/>
    <path id="stroke-p4" style="stroke:#000" pathLength="3333" clip-path="url(#z20130c4)" d="M 402 450 L 574 415 L 628 435 L 584 553 L 575 723 L 604 801 L 674 858 L 793 870 L 885 832 L 886 666"/>
</g>
</svg>