<svg id="z20335" class="acjk" viewBox="0 0 1024 1024" xmlns="http://www.w3.org/2000/svg">
<style>
<![CDATA[
svg.acjk path[clip-path] {
    animation-duration: 8.9s;
    animation-timing-function: linear;
    animation-iteration-count: infinite;
    stroke-dasharray: 3337;
    stroke-dashoffset: 3339;
    stroke-width: 128;
    stroke-linecap: round;
    fill: none;
    stroke: #FF4444;
}
svg.acjk .bg { fill: #ccc; opacity: 0.5; }

/* Stroke 1: Starts at 0.0%, finishes at 9.0%, holds until 71.9% */
@keyframes zk1 {
    0%, 0.0% { stroke-dashoffset: 3339; }
    9.0%, 71.9% { stroke-dashoffset: 0; }
    72.0%, 100% { stroke-dashoffset: 3339; }
}
svg.acjk #stroke-p1 { animation-name: zk1; }
/* Stroke 2: Starts at 9.0%, finishes at 18.0%, holds until 71.9% */
@keyframes zk2 {
    0%, 9.0% { stroke-dashoffset: 3339; }
    18.0%, 71.9% { stroke-dashoffset: 0; }
    72.0%, 100% { stroke-dashoffset: 3339; }
}
svg.acjk #stroke-p2 { animation-name: zk2; }
/* Stroke 3: Starts at 18.0%, finishes at 27.0%, holds until 71.9% */
@keyframes zk3 {
    0%, 18.0% { stroke-dashoffset: 3339; }
    27.0%, 71.9% { stroke-dashoffset: 0; }
    72.0%, 100% { stroke-dashoffset: 3339; }
}
svg.acjk #stroke-p3 { animation-name: zk3; }
/* Stroke 4: Starts at 27.0%, finishes at 36.0%, holds until 71.9% */
@keyframes zk4 {
    0%, 27.0% { stroke-dashoffset: 3339; }
    36.0%, 71.9% { stroke-dashoffset: 0; }
    72.0%, 100% { stroke-dashoffset: 3339; }
}
svg.acjk #stroke-p4 { animation-name: zk4; }
/* Stroke 5: Starts at 36.0%, finishes at 44.9%, holds until 71.9% */
@keyframes zk5 {
    0%, 36.0% { stroke-dashoffset: 3339; }
    44.9%, 71.9% { stroke-dashoffset: 0; }
    72.0%, 100% { stroke-dashoffset: 3339; }
}
svg.acjk #stroke-p5 { animation-name: zk5; }
/* Stroke 6: Starts at 44.9%, finishes at 53.9%, holds until 71.9% */
@keyframes zk6 {
    0%, 44.9% { stroke-dashoffset: 3339; }
    53.9%, 71.9% { stroke-dashoffset: 0; }
    72.0%, 100% { stroke-dashoffset: 3339; }
}
svg.acjk #stroke-p6 { animation-name: zk6; }
/* Stroke 7: Starts at 53.9%, finishes at 62.9%, holds until 71.9% */
@keyframes zk7 {
    0%, 53.9% { stroke-dashoffset: 3339; }
    62.9%, 71.9% { stroke-dashoffset: 0; }
    72.0%, 100% { stroke-dashoffset: 3339; }
}
svg.acjk #stroke-p7 { animation-name: zk7; }
/* Stroke 8: Starts at 62.9%, finishes at 71.9%, holds until 71.9% */
@keyframes zk8 {
    0%, 62.9% { stroke-dashoffset: 3339; }
    71.9%, 71.9% { stroke-dashoffset: 0; }
    72.0%, 100% { stroke-dashoffset: 3339; }
}
svg.acjk #stroke-p8 { animation-name: zk8; }
]]>
</style>
<defs>
    <path id="p1" d="M 239 352 Q 281 300 328 230 Q 356 182 381 160 Q 391 150 386 134 Q 382 121 353 96 Q 326 77 306 76 Q 287 77 294 100 Q 307 133 295 160 Q 225 316 60 500 Q 50 510 47 517 Q 43 529 57 526 Q 102 520 212 384 C 230 363 230 363 239 352 Z"/>
    <path id="p2" d="M 212 384 Q 248 459 225 633 Q 218 684 204 737 Q 192 788 226 827 Q 227 830 230 832 Q 246 848 258 822 Q 273 782 272 737 Q 275 488 284 433 Q 291 406 282 396 Q 246 357 239 352 C 228 343 207 371 212 384 Z"/>
    <path id="p3" d="M 478 137 Q 500 164 524 194 Q 534 207 549 209 Q 559 210 565 199 Q 572 186 567 158 Q 566 139 538 121 Q 475 85 460 89 Q 456 92 455 104 Q 456 114 478 137 Z"/>
    <path id="p4" d="M 696 93 Q 687 112 629 210 Q 622 228 637 222 Q 677 191 743 131 Q 759 112 781 100 Q 800 87 788 71 Q 772 56 745 46 Q 720 36 708 40 Q 696 44 702 56 Q 708 74 696 93 Z"/>
    <path id="p5" d="M 608 309 Q 779 270 783 267 Q 792 260 787 251 Q 780 241 752 233 Q 728 227 604 264 Q 502 283 461 288 Q 427 294 451 310 Q 490 334 545 321 Q 546 320 552 320 C 589 313 589 313 608 309 Z"/>
    <path id="p6" d="M 628 466 Q 775 433 778 431 Q 787 424 783 416 Q 776 404 748 396 Q 724 390 629 419 C 593 428 593 428 575 432 Q 515 442 450 448 Q 414 454 439 470 Q 472 494 547 480 Q 559 477 575 476 C 610 469 610 469 628 466 Z"/>
    <path id="p7" d="M 625 614 Q 722 601 867 601 Q 934 601 940 591 Q 946 578 928 563 Q 873 524 831 532 Q 753 550 626 572 C 591 577 591 577 574 580 Q 457 596 325 616 Q 303 619 320 637 Q 335 652 354 657 Q 376 663 394 657 Q 478 633 573 622 C 608 617 608 617 625 614 Z"/>
    <path id="p8" d="M 574 911 Q 580 936 586 945 Q 592 952 599 950 Q 617 938 620 883 Q 624 841 625 614 C 626 586 626 586 626 572 Q 626 524 628 466 C 629 435 629 435 629 419 Q 632 377 640 349 Q 643 331 629 322 Q 617 315 608 309 C 592 299 545 302 552 320 Q 573 371 575 380 Q 575 405 575 432 C 575 461 575 461 575 476 Q 575 524 574 580 C 573 608 573 608 573 622 Q 567 839 574 911 Z"/>

    <clipPath id="z20335c1"><use href="#p1"/></clipPath>
    <clipPath id="z20335c2"><use href="#p2"/></clipPath>
    <clipPath id="z20335c3"><use href="#p3"/></clipPath>
    <clipPath id="z20335c4"><use href="#p4"/></clipPath>
    <clipPath id="z20335c5"><use href="#p5"/></clipPath>
    <clipPath id="z20335c6"><use href="#p6"/></clipPath>
    <clipPath id="z20335c7"><use href="#p7"/></clipPath>
    <clipPath id="z20335c8"><use href="#p8"/></clipPath>
</defs>
<g id="bg-layer" class="bg">
<use href="#p1"/>
<use href="#p2"/>
<use href="#p3"/>
<use href="#p4"/>
<use href="#p5"/>
<use href="#p6"/>
<use href="#p7"/>
<use href="#p8"/>
</g>
<g id="anim-layer">
    <path id="stroke-p1" style="stroke:#FF4444" pathLength="3333" clip-path="url(#z20335c1)" d="M 300 83 L 342 150 L 222 335 L 54 520"/>
    <path id="stroke-p2" style="stroke:#FF4444" pathLength="3333" clip-path="url(#z20335c2)" d="M 238 359 L 256 413 L 239 833"/>
    <path id="stroke-p3" style="stroke:#000" pathLength="3333" clip-path="url(#z20335c3)" d="M 464 99 L 557 203"/>
    <path id="stroke-p4" style="stroke:#000" pathLength="3333" clip-path="url(#z20335c4)" d="M 708 45 L 743 92 L 632 215"/>
    <path id="stroke-p5" style="stroke:#000" pathLength="3333" clip-path="url(#z20335c5)" d="M 448 296 L 528 301 L 783 253"/>
    <path id="stroke-p6" style="stroke:#000" pathLength="3333" clip-path="url(#z20335c6)" d="M 437 457 L 780 419"/>
    <path id="stroke-p7" style="stroke:#000" pathLength="3333" clip-path="url(#z20335c7)" d="M 322 625 L 375 634 L 838 566 L 937 580"/>
    <path id="stroke-p8" style="stroke:#000" pathLength="3333" clip-path="url(#z20335c8)" d="M 562 325 L 607 363 L 595 944"/>
</g>
</svg>