<svg id="z20356" class="acjk" viewBox="0 0 1024 1024" xmlns="http://www.w3.org/2000/svg">
<style>
<![CDATA[
svg.acjk path[clip-path] {
    animation-duration: 8.9s;
    animation-timing-function: linear;
    animation-iteration-count: infinite;
    stroke-dasharray: 3337;
    stroke-dashoffset: 3339;
    stroke-width: 128;
    stroke-linecap: round;
    fill: none;
    stroke: #FF4444;
}
svg.acjk .bg { fill: #ccc; opacity: 0.5; }

/* Stroke 1: Starts at 0.0%, finishes at 9.0%, holds until 71.9% */
@keyframes zk1 {
    0%, 0.0% { stroke-dashoffset: 3339; }
    9.0%, 71.9% { stroke-dashoffset: 0; }
    72.0%, 100% { stroke-dashoffset: 3339; }
}
svg.acjk #stroke-p1 { animation-name: zk1; }
/* Stroke 2: Starts at 9.0%, finishes at 18.0%, holds until 71.9% */
@keyframes zk2 {
    0%, 9.0% { stroke-dashoffset: 3339; }
    18.0%, 71.9% { stroke-dashoffset: 0; }
    72.0%, 100% { stroke-dashoffset: 3339; }
}
svg.acjk #stroke-p2 { animation-name: zk2; }
/* Stroke 3: Starts at 18.0%, finishes at 27.0%, holds until 71.9% */
@keyframes zk3 {
    0%, 18.0% { stroke-dashoffset: 3339; }
    27.0%, 71.9% { stroke-dashoffset: 0; }
    72.0%, 100% { stroke-dashoffset: 3339; }
}
svg.acjk #stroke-p3 { animation-name: zk3; }
/* Stroke 4: Starts at 27.0%, finishes at 36.0%, holds until 71.9% */
@keyframes zk4 {
    0%, 27.0% { stroke-dashoffset: 3339; }
    36.0%, 71.9% { stroke-dashoffset: 0; }
    72.0%, 100% { stroke-dashoffset: 3339; }
}
svg.acjk #stroke-p4 { animation-name: zk4; }
/* Stroke 5: Starts at 36.0%, finishes at 44.9%, holds until 71.9% */
@keyframes zk5 {
    0%, 36.0% { stroke-dashoffset: 3339; }
    44.9%, 71.9% { stroke-dashoffset: 0; }
    72.0%, 100% { stroke-dashoffset: 3339; }
}
svg.acjk #stroke-p5 { animation-name: zk5; }
/* Stroke 6: Starts at 44.9%, finishes at 53.9%, holds until 71.9% */
@keyframes zk6 {
    0%, 44.9% { stroke-dashoffset: 3339; }
    53.9%, 71.9% { stroke-dashoffset: 0; }
    72.0%, 100% { stroke-dashoffset: 3339; }
}
svg.acjk #stroke-p6 { animation-name: zk6; }
/* Stroke 7: Starts at 53.9%, finishes at 62.9%, holds until 71.9% */
@keyframes zk7 {
    0%, 53.9% { stroke-dashoffset: 3339; }
    62.9%, 71.9% { stroke-dashoffset: 0; }
    72.0%, 100% { stroke-dashoffset: 3339; }
}
svg.acjk #stroke-p7 { animation-name: zk7; }
/* Stroke 8: Starts at 62.9%, finishes at 71.9%, holds until 71.9% */
@keyframes zk8 {
    0%, 62.9% { stroke-dashoffset: 3339; }
    71.9%, 71.9% { stroke-dashoffset: 0; }
    72.0%, 100% { stroke-dashoffset: 3339; }
}
svg.acjk #stroke-p8 { animation-name: zk8; }
]]>
</style>
<defs>
    <path id="p1" d="M 231 392 Q 280 331 335 247 Q 363 195 390 171 Q 400 161 395 146 Q 391 133 361 108 Q 334 89 314 88 Q 295 89 303 113 Q 316 147 303 176 Q 263 270 200 359 Q 140 444 60 536 Q 50 546 46 553 Q 42 565 57 562 Q 96 558 203 426 C 203 425 203 425 203 425 C 222 403 222 403 231 392 Z"/>
    <path id="p2" d="M 203 425 Q 221 464 228 524 Q 228 684 202 789 Q 192 834 226 885 Q 227 885 229 888 Q 247 904 259 877 Q 274 837 273 790 Q 270 534 277 476 Q 284 449 275 438 Q 236 396 231 392 C 220 383 198 412 203 425 Z"/>
    <path id="p3" d="M 569 266 Q 648 248 733 232 Q 779 222 787 215 Q 797 206 791 197 Q 784 184 752 176 Q 727 170 622 203 Q 535 225 439 236 Q 399 243 427 261 Q 460 282 518 276 C 552 269 552 269 569 266 Z"/>
    <path id="p4" d="M 574 484 Q 632 466 735 446 C 744 444 727 422 718 424 Q 609 439 492 467 Q 480 471 476 468 Q 475 464 480 456 Q 577 336 598 316 Q 611 307 605 294 Q 601 284 569 266 C 554 257 512 260 518 276 Q 518 277 519 279 Q 531 321 463 413 Q 439 446 390 478 Q 375 488 379 500 Q 383 516 408 537 Q 418 547 432 538 Q 462 514 540 493 C 563 487 563 487 574 484 Z"/>
    <path id="p5" d="M 735 446 Q 777 504 790 507 Q 799 508 805 499 Q 812 489 811 463 Q 808 418 698 350 Q 686 344 680 346 Q 676 347 674 358 Q 674 367 718 424 C 729 439 729 439 735 446 Z"/>
    <path id="p6" d="M 607 651 Q 743 618 747 615 Q 756 608 751 599 Q 744 589 716 581 Q 694 577 609 603 C 574 612 574 612 557 617 Q 500 630 437 636 Q 401 642 427 658 Q 463 677 533 665 Q 543 662 558 661 C 591 654 591 654 607 651 Z"/>
    <path id="p7" d="M 602 784 Q 605 712 607 651 C 608 619 608 619 609 603 Q 610 582 611 564 Q 615 519 610 512 Q 592 494 574 484 C 564 478 536 482 540 493 Q 539 493 540 494 Q 553 527 557 597 Q 556 606 557 617 C 558 646 558 646 558 661 Q 558 712 559 789 C 559 803 602 798 602 784 Z"/>
    <path id="p8" d="M 559 789 Q 459 799 345 813 Q 323 814 339 833 Q 354 848 372 854 Q 394 860 411 855 Q 573 813 827 821 Q 846 821 865 822 Q 886 822 891 813 Q 897 801 879 787 Q 827 745 787 754 Q 718 767 602 784 C 573 787 573 787 559 789 Z"/>

    <clipPath id="z20356c1"><use href="#p1"/></clipPath>
    <clipPath id="z20356c2"><use href="#p2"/></clipPath>
    <clipPath id="z20356c3"><use href="#p3"/></clipPath>
    <clipPath id="z20356c4"><use href="#p4"/></clipPath>
    <clipPath id="z20356c5"><use href="#p5"/></clipPath>
    <clipPath id="z20356c6"><use href="#p6"/></clipPath>
    <clipPath id="z20356c7"><use href="#p7"/></clipPath>
    <clipPath id="z20356c8"><use href="#p8"/></clipPath>
</defs>
<g id="bg-layer" class="bg">
<use href="#p1"/>
<use href="#p2"/>
<use href="#p3"/>
<use href="#p4"/>
<use href="#p5"/>
<use href="#p6"/>
<use href="#p7"/>
<use href="#p8"/>
</g>
<g id="anim-layer">
    <path id="stroke-p1" style="stroke:#FF4444" pathLength="3333" clip-path="url(#z20356c1)" d="M 308 93 L 350 165 L 216 375 L 53 558"/>
    <path id="stroke-p2" style="stroke:#FF4444" pathLength="3333" clip-path="url(#z20356c2)" d="M 229 400 L 250 491 L 243 889"/>
    <path id="stroke-p3" style="stroke:#000" pathLength="3333" clip-path="url(#z20356c3)" d="M 423 246 L 512 251 L 785 199"/>
    <path id="stroke-p4" style="stroke:#000" pathLength="3333" clip-path="url(#z20356c4)" d="M 526 279 L 559 316 L 428 477 L 438 499 L 727 442"/>
    <path id="stroke-p5" style="stroke:#000" pathLength="3333" clip-path="url(#z20356c5)" d="M 682 353 L 799 498"/>
    <path id="stroke-p6" style="stroke:#000" pathLength="3333" clip-path="url(#z20356c6)" d="M 424 645 L 497 649 L 746 600"/>
    <path id="stroke-p7" style="stroke:#000" pathLength="3333" clip-path="url(#z20356c7)" d="M 549 500 L 582 535 L 573 787"/>
    <path id="stroke-p8" style="stroke:#000" pathLength="3333" clip-path="url(#z20356c8)" d="M 338 820 L 394 832 L 792 786 L 888 804"/>
</g>
</svg>