<svg id="z20806" class="acjk" viewBox="0 0 1024 1024" xmlns="http://www.w3.org/2000/svg">
<style>
<![CDATA[
svg.acjk path[clip-path] {
    animation-duration: 7.300000000000001s;
    animation-timing-function: linear;
    animation-iteration-count: infinite;
    stroke-dasharray: 3337;
    stroke-dashoffset: 3339;
    stroke-width: 128;
    stroke-linecap: round;
    fill: none;
    stroke: #FF4444;
}
svg.acjk .bg { fill: #ccc; opacity: 0.5; }

/* Stroke 1: Starts at 0.0%, finishes at 11.0%, holds until 65.8% */
@keyframes zk1 {
    0%, 0.0% { stroke-dashoffset: 3339; }
    11.0%, 65.8% { stroke-dashoffset: 0; }
    65.9%, 100% { stroke-dashoffset: 3339; }
}
svg.acjk #stroke-p1 { animation-name: zk1; }
/* Stroke 2: Starts at 11.0%, finishes at 21.9%, holds until 65.8% */
@keyframes zk2 {
    0%, 11.0% { stroke-dashoffset: 3339; }
    21.9%, 65.8% { stroke-dashoffset: 0; }
    65.9%, 100% { stroke-dashoffset: 3339; }
}
svg.acjk #stroke-p2 { animation-name: zk2; }
/* Stroke 3: Starts at 21.9%, finishes at 32.9%, holds until 65.8% */
@keyframes zk3 {
    0%, 21.9% { stroke-dashoffset: 3339; }
    32.9%, 65.8% { stroke-dashoffset: 0; }
    65.9%, 100% { stroke-dashoffset: 3339; }
}
svg.acjk #stroke-p3 { animation-name: zk3; }
/* Stroke 4: Starts at 32.9%, finishes at 43.8%, holds until 65.8% */
@keyframes zk4 {
    0%, 32.9% { stroke-dashoffset: 3339; }
    43.8%, 65.8% { stroke-dashoffset: 0; }
    65.9%, 100% { stroke-dashoffset: 3339; }
}
svg.acjk #stroke-p4 { animation-name: zk4; }
/* Stroke 5: Starts at 43.8%, finishes at 54.8%, holds until 65.8% */
@keyframes zk5 {
    0%, 43.8% { stroke-dashoffset: 3339; }
    54.8%, 65.8% { stroke-dashoffset: 0; }
    65.9%, 100% { stroke-dashoffset: 3339; }
}
svg.acjk #stroke-p5 { animation-name: zk5; }
/* Stroke 6: Starts at 54.8%, finishes at 65.8%, holds until 65.8% */
@keyframes zk6 {
    0%, 54.8% { stroke-dashoffset: 3339; }
    65.8%, 65.8% { stroke-dashoffset: 0; }
    65.9%, 100% { stroke-dashoffset: 3339; }
}
svg.acjk #stroke-p6 { animation-name: zk6; }
]]>
</style>
<defs>
    <path id="p1" d="M 378 542 Q 356 717 224 834 Q 155 885 153 890 Q 149 897 166 896 Q 179 896 228 871 Q 262 853 314 807 Q 441 690 443 362 Q 443 281 459 221 Q 463 208 454 201 Q 435 185 398 172 Q 376 163 359 170 Q 338 179 356 196 Q 386 224 387 255 Q 394 403 382 507 C 379 530 379 530 378 542 Z"/>
    <path id="p2" d="M 238 376 Q 265 398 294 426 Q 307 438 322 437 Q 332 436 337 423 Q 341 410 332 381 Q 326 362 296 348 Q 224 323 212 329 Q 208 333 209 345 Q 212 355 238 376 Z"/>
    <path id="p3" d="M 382 507 Q 187 609 141 615 Q 128 619 128 630 Q 128 643 139 650 Q 166 662 202 675 Q 214 676 224 665 Q 239 647 369 549 Q 373 545 378 542 C 387 535 393 502 382 507 Z"/>
    <path id="p4" d="M 599 495 Q 599 300 631 193 Q 638 154 638 151 Q 635 144 627 139 Q 599 114 561 104 Q 542 100 534 109 Q 525 118 533 128 Q 555 149 557 224 Q 557 270 554 351 Q 539 672 563 766 Q 572 820 619 855 Q 697 912 861 894 Q 874 891 886 889 Q 931 876 950 857 Q 972 841 953 802 Q 934 736 934 652 Q 934 642 926 633 Q 916 626 912 650 Q 902 681 889 736 Q 879 787 863 808 Q 857 821 831 827 Q 791 839 733 834 Q 691 833 664 820 Q 625 802 610 755 Q 595 707 598 521 C 599 504 599 504 599 495 Z"/>
    <path id="p5" d="M 732 298 Q 716 328 650 410 Q 641 426 658 423 Q 700 396 775 340 Q 793 324 816 313 Q 837 303 825 286 Q 812 270 786 256 Q 762 243 750 247 Q 737 248 742 261 Q 746 280 732 298 Z"/>
    <path id="p6" d="M 598 521 Q 679 570 777 643 Q 796 659 811 660 Q 818 660 825 649 Q 834 634 814 596 Q 792 544 627 502 Q 611 498 599 495 C 590 493 591 516 598 521 Z"/>

    <clipPath id="z20806c1"><use href="#p1"/></clipPath>
    <clipPath id="z20806c2"><use href="#p2"/></clipPath>
    <clipPath id="z20806c3"><use href="#p3"/></clipPath>
    <clipPath id="z20806c4"><use href="#p4"/></clipPath>
    <clipPath id="z20806c5"><use href="#p5"/></clipPath>
    <clipPath id="z20806c6"><use href="#p6"/></clipPath>
</defs>
<g id="bg-layer" class="bg">
<use href="#p1"/>
<use href="#p2"/>
<use href="#p3"/>
<use href="#p4"/>
<use href="#p5"/>
<use href="#p6"/>
</g>
<g id="anim-layer">
    <path id="stroke-p1" style="stroke:#FF4444" pathLength="3333" clip-path="url(#z20806c1)" d="M 352 182 L 423 231 L 390 614 L 312 774 L 160 891"/>
    <path id="stroke-p2" style="stroke:#000" pathLength="3333" clip-path="url(#z20806c2)" d="M 217 339 L 332 427"/>
    <path id="stroke-p3" style="stroke:#000" pathLength="3333" clip-path="url(#z20806c3)" d="M 132 631 L 202 636 L 375 516"/>
    <path id="stroke-p4" style="stroke:#000" pathLength="3333" clip-path="url(#z20806c4)" d="M 536 113 L 596 167 L 573 638 L 584 753 L 612 813 L 697 860 L 877 851 L 918 807 L 924 641"/>
    <path id="stroke-p5" style="stroke:#000" pathLength="3333" clip-path="url(#z20806c5)" d="M 749 253 L 776 307 L 653 415"/>
    <path id="stroke-p6" style="stroke:#000" pathLength="3333" clip-path="url(#z20806c6)" d="M 605 506 L 755 584 L 818 653"/>
</g>
</svg>