<svg id="z20841" class="acjk" viewBox="0 0 1024 1024" xmlns="http://www.w3.org/2000/svg">
<style>
<![CDATA[
svg.acjk path[clip-path] {
    animation-duration: 8.9s;
    animation-timing-function: linear;
    animation-iteration-count: infinite;
    stroke-dasharray: 3337;
    stroke-dashoffset: 3339;
    stroke-width: 128;
    stroke-linecap: round;
    fill: none;
    stroke: #FF4444;
}
svg.acjk .bg { fill: #ccc; opacity: 0.5; }

/* Stroke 1: Starts at 0.0%, finishes at 9.0%, holds until 71.9% */
@keyframes zk1 {
    0%, 0.0% { stroke-dashoffset: 3339; }
    9.0%, 71.9% { stroke-dashoffset: 0; }
    72.0%, 100% { stroke-dashoffset: 3339; }
}
svg.acjk #stroke-p1 { animation-name: zk1; }
/* Stroke 2: Starts at 9.0%, finishes at 18.0%, holds until 71.9% */
@keyframes zk2 {
    0%, 9.0% { stroke-dashoffset: 3339; }
    18.0%, 71.9% { stroke-dashoffset: 0; }
    72.0%, 100% { stroke-dashoffset: 3339; }
}
svg.acjk #stroke-p2 { animation-name: zk2; }
/* Stroke 3: Starts at 18.0%, finishes at 27.0%, holds until 71.9% */
@keyframes zk3 {
    0%, 18.0% { stroke-dashoffset: 3339; }
    27.0%, 71.9% { stroke-dashoffset: 0; }
    72.0%, 100% { stroke-dashoffset: 3339; }
}
svg.acjk #stroke-p3 { animation-name: zk3; }
/* Stroke 4: Starts at 27.0%, finishes at 36.0%, holds until 71.9% */
@keyframes zk4 {
    0%, 27.0% { stroke-dashoffset: 3339; }
    36.0%, 71.9% { stroke-dashoffset: 0; }
    72.0%, 100% { stroke-dashoffset: 3339; }
}
svg.acjk #stroke-p4 { animation-name: zk4; }
/* Stroke 5: Starts at 36.0%, finishes at 44.9%, holds until 71.9% */
@keyframes zk5 {
    0%, 36.0% { stroke-dashoffset: 3339; }
    44.9%, 71.9% { stroke-dashoffset: 0; }
    72.0%, 100% { stroke-dashoffset: 3339; }
}
svg.acjk #stroke-p5 { animation-name: zk5; }
/* Stroke 6: Starts at 44.9%, finishes at 53.9%, holds until 71.9% */
@keyframes zk6 {
    0%, 44.9% { stroke-dashoffset: 3339; }
    53.9%, 71.9% { stroke-dashoffset: 0; }
    72.0%, 100% { stroke-dashoffset: 3339; }
}
svg.acjk #stroke-p6 { animation-name: zk6; }
/* Stroke 7: Starts at 53.9%, finishes at 62.9%, holds until 71.9% */
@keyframes zk7 {
    0%, 53.9% { stroke-dashoffset: 3339; }
    62.9%, 71.9% { stroke-dashoffset: 0; }
    72.0%, 100% { stroke-dashoffset: 3339; }
}
svg.acjk #stroke-p7 { animation-name: zk7; }
/* Stroke 8: Starts at 62.9%, finishes at 71.9%, holds until 71.9% */
@keyframes zk8 {
    0%, 62.9% { stroke-dashoffset: 3339; }
    71.9%, 71.9% { stroke-dashoffset: 0; }
    72.0%, 100% { stroke-dashoffset: 3339; }
}
svg.acjk #stroke-p8 { animation-name: zk8; }
]]>
</style>
<defs>
    <path id="p1" d="M 490 207 C 624 186 695 172 701 168 C 708 162 709 155 707 150 C 702 139 689 131 667 126 C 648 121 606 128 542 144 C 462 163 388 171 321 175 C 292 176 288 186 308 200 C 339 220 380 223 431 216 C 470 210 470 210 490 207 Z"/>
    <path id="p2" d="M 192 430 C 170 412 151 402 136 398 C 131 396 128 397 125 402 C 122 406 120 414 125 423 C 142 458 153 489 155 520 C 157 588 155 661 147 738 C 145 754 145 770 153 785 C 160 800 171 811 184 820 C 193 826 196 824 201 817 C 203 812 208 805 211 790 C 214 773 214 736 210 678 C 202 577 201 508 204 471 C 204 457 203 439 192 430 Z"/>
    <path id="p3" d="M 510 414 C 670 391 720 384 769 386 C 805 387 802 433 803 453 C 803 583 795 686 778 760 C 772 784 758 796 738 791 C 693 780 693 780 670 774 C 659 771 654 769 654 774 C 653 778 654 787 663 796 C 711 845 743 880 756 904 C 761 915 770 918 779 918 C 789 916 798 906 810 887 C 826 857 838 826 846 792 C 855 745 865 640 874 477 C 875 448 879 424 890 409 C 901 391 902 385 894 379 C 881 369 860 352 833 339 C 815 330 798 328 779 333 C 735 343 608 359 510 375 C 473 381 473 381 454 384 C 365 398 273 418 192 430 C 178 432 190 473 204 471 C 228 468 381 432 454 422 C 491 417 491 417 510 414 Z"/>
    <path id="p4" d="M 454 422 C 454 570 453 675 459 735 C 466 809 491 797 504 735 C 515 679 511 621 510 414 C 510 388 510 388 510 375 C 510 224 550 251 490 207 C 474 195 424 198 431 216 C 455 272 454 330 454 384 C 454 409 454 409 454 422 Z"/>
    <path id="p5" d="M 317 574 C 311 606 291 638 257 670 C 246 679 237 685 233 692 C 228 698 230 700 237 699 C 296 681 320 640 352 603 C 361 591 320 559 317 574 Z"/>
    <path id="p6" d="M 352 603 C 388 632 407 649 410 649 C 429 647 419 609 417 603 C 408 577 356 545 261 508 C 256 506 254 507 254 514 C 253 519 256 525 262 530 C 278 542 296 557 317 574 C 340 593 340 593 352 603 Z"/>
    <path id="p7" d="M 614 542 C 608 570 587 601 551 633 C 540 642 531 648 526 655 C 520 661 522 665 530 664 C 592 651 631 599 652 578 C 664 566 617 525 614 542 Z"/>
    <path id="p8" d="M 652 578 C 671 596 692 616 713 638 C 725 651 739 665 753 650 C 759 642 760 625 751 602 C 736 564 677 522 556 464 C 551 461 547 463 547 470 C 545 477 548 484 555 490 C 573 504 593 522 614 542 C 639 566 639 566 652 578 Z"/>

    <clipPath id="z20841c1"><use href="#p1"/></clipPath>
    <clipPath id="z20841c2"><use href="#p2"/></clipPath>
    <clipPath id="z20841c3"><use href="#p3"/></clipPath>
    <clipPath id="z20841c4"><use href="#p4"/></clipPath>
    <clipPath id="z20841c5"><use href="#p5"/></clipPath>
    <clipPath id="z20841c6"><use href="#p6"/></clipPath>
    <clipPath id="z20841c7"><use href="#p7"/></clipPath>
    <clipPath id="z20841c8"><use href="#p8"/></clipPath>
</defs>
<g id="bg-layer" class="bg">
<use href="#p1"/>
<use href="#p2"/>
<use href="#p3"/>
<use href="#p4"/>
<use href="#p5"/>
<use href="#p6"/>
<use href="#p7"/>
<use href="#p8"/>
</g>
<g id="anim-layer">
    <path id="stroke-p1" style="stroke:#FF4444" pathLength="3333" clip-path="url(#z20841c1)" d="M 302 183 L 377 195 L 702 157"/>
    <path id="stroke-p2" style="stroke:#FF4444" pathLength="3333" clip-path="url(#z20841c2)" d="M 130 405 L 176 479 L 183 817"/>
    <path id="stroke-p3" style="stroke:#FF4444" pathLength="3333" clip-path="url(#z20841c3)" d="M 192 440 L 733 363 L 819 371 L 850 405 L 798 813 L 761 863 L 661 777"/>
    <path id="stroke-p4" style="stroke:#FF4444" pathLength="3333" clip-path="url(#z20841c4)" d="M 437 211 L 485 262 L 480 781"/>
    <path id="stroke-p5" style="stroke:#000" pathLength="3333" clip-path="url(#z20841c5)" d="M 322 580 L 323 613 L 239 692"/>
    <path id="stroke-p6" style="stroke:#000" pathLength="3333" clip-path="url(#z20841c6)" d="M 260 515 L 375 590 L 411 642"/>
    <path id="stroke-p7" style="stroke:#000" pathLength="3333" clip-path="url(#z20841c7)" d="M 621 543 L 626 577 L 531 658"/>
    <path id="stroke-p8" style="stroke:#000" pathLength="3333" clip-path="url(#z20841c8)" d="M 554 470 L 710 592 L 749 650"/>
</g>
</svg>