<svg id="z20846" class="acjk" viewBox="0 0 1024 1024" xmlns="http://www.w3.org/2000/svg">
<style>
<![CDATA[
svg.acjk path[clip-path] {
    animation-duration: 5.7s;
    animation-timing-function: linear;
    animation-iteration-count: infinite;
    stroke-dasharray: 3337;
    stroke-dashoffset: 3339;
    stroke-width: 128;
    stroke-linecap: round;
    fill: none;
    stroke: #FF4444;
}
svg.acjk .bg { fill: #ccc; opacity: 0.5; }

/* Stroke 1: Starts at 0.0%, finishes at 14.0%, holds until 56.1% */
@keyframes zk1 {
    0%, 0.0% { stroke-dashoffset: 3339; }
    14.0%, 56.1% { stroke-dashoffset: 0; }
    56.2%, 100% { stroke-dashoffset: 3339; }
}
svg.acjk #stroke-p1 { animation-name: zk1; }
/* Stroke 2: Starts at 14.0%, finishes at 28.1%, holds until 56.1% */
@keyframes zk2 {
    0%, 14.0% { stroke-dashoffset: 3339; }
    28.1%, 56.1% { stroke-dashoffset: 0; }
    56.2%, 100% { stroke-dashoffset: 3339; }
}
svg.acjk #stroke-p2 { animation-name: zk2; }
/* Stroke 3: Starts at 28.1%, finishes at 42.1%, holds until 56.1% */
@keyframes zk3 {
    0%, 28.1% { stroke-dashoffset: 3339; }
    42.1%, 56.1% { stroke-dashoffset: 0; }
    56.2%, 100% { stroke-dashoffset: 3339; }
}
svg.acjk #stroke-p3 { animation-name: zk3; }
/* Stroke 4: Starts at 42.1%, finishes at 56.1%, holds until 56.1% */
@keyframes zk4 {
    0%, 42.1% { stroke-dashoffset: 3339; }
    56.1%, 56.1% { stroke-dashoffset: 0; }
    56.2%, 100% { stroke-dashoffset: 3339; }
}
svg.acjk #stroke-p4 { animation-name: zk4; }
]]>
</style>
<defs>
    <path id="p1" d="M 327 215 C 324 253 309 290 285 329 C 242 400 165 452 95 505 C 39 546 95 531 106 527 C 130 520 238 466 321 365 C 349 330 376 299 404 272 C 412 263 414 253 405 243 C 379 213 356 199 340 199 C 331 198 327 204 327 215 Z"/>
    <path id="p2" d="M 485 101 C 525 120 553 153 580 193 C 677 337 744 431 781 454 C 797 464 863 459 974 446 C 1004 442 1000 433 974 426 C 863 396 785 363 744 323 C 681 263 625 193 570 117 C 555 96 535 85 511 85 C 465 83 483 100 485 101 Z"/>
    <path id="p3" d="M 467 443 C 519 433 577 419 642 414 C 652 413 678 400 639 381 C 617 370 584 369 533 384 C 462 403 388 413 316 423 C 297 425 295 432 310 444 C 320 451 332 456 345 459 C 370 463 394 456 419 452 C 451 446 451 446 467 443 Z"/>
    <path id="p4" d="M 358 666 C 388 642 435 624 497 609 C 536 598 579 595 581 649 C 579 705 558 755 533 801 C 516 830 501 837 470 833 C 454 831 432 829 405 822 C 379 814 381 824 399 840 C 428 866 451 893 471 918 C 487 938 512 928 528 915 C 567 880 600 822 621 743 C 640 665 647 624 651 621 C 659 612 660 603 652 595 C 640 583 620 573 594 562 C 579 556 564 555 548 562 C 499 580 438 590 424 593 C 415 594 413 590 418 583 C 450 532 471 500 483 490 C 492 480 496 470 489 460 C 484 453 475 448 467 443 C 453 435 416 436 419 452 C 427 485 387 547 379 559 C 370 571 352 584 329 602 C 316 611 311 623 313 635 C 313 645 319 655 331 666 C 339 673 348 673 358 666 Z"/>

    <clipPath id="z20846c1"><use href="#p1"/></clipPath>
    <clipPath id="z20846c2"><use href="#p2"/></clipPath>
    <clipPath id="z20846c3"><use href="#p3"/></clipPath>
    <clipPath id="z20846c4"><use href="#p4"/></clipPath>
</defs>
<g id="bg-layer" class="bg">
<use href="#p1"/>
<use href="#p2"/>
<use href="#p3"/>
<use href="#p4"/>
</g>
<g id="anim-layer">
    <path id="stroke-p1" style="stroke:#FF4444" pathLength="3333" clip-path="url(#z20846c1)" d="M 338 203 L 362 265 L 291 363 L 210 443 L 80 525"/>
    <path id="stroke-p2" style="stroke:#FF4444" pathLength="3333" clip-path="url(#z20846c2)" d="M 486 91 L 551 125 L 783 402 L 986 437"/>
    <path id="stroke-p3" style="stroke:#000" pathLength="3333" clip-path="url(#z20846c3)" d="M 307 430 L 654 402"/>
    <path id="stroke-p4" style="stroke:#000" pathLength="3333" clip-path="url(#z20846c4)" d="M 427 444 L 454 478 L 372 597 L 374 633 L 553 582 L 618 619 L 585 761 L 530 859 L 490 882 L 391 825"/>
</g>
</svg>