<svg id="z20867" class="acjk" viewBox="0 0 1024 1024" xmlns="http://www.w3.org/2000/svg">
<style>
<![CDATA[
svg.acjk path[clip-path] {
    animation-duration: 5.7s;
    animation-timing-function: linear;
    animation-iteration-count: infinite;
    stroke-dasharray: 3337;
    stroke-dashoffset: 3339;
    stroke-width: 128;
    stroke-linecap: round;
    fill: none;
    stroke: #FF4444;
}
svg.acjk .bg { fill: #ccc; opacity: 0.5; }

/* Stroke 1: Starts at 0.0%, finishes at 14.0%, holds until 56.1% */
@keyframes zk1 {
    0%, 0.0% { stroke-dashoffset: 3339; }
    14.0%, 56.1% { stroke-dashoffset: 0; }
    56.2%, 100% { stroke-dashoffset: 3339; }
}
svg.acjk #stroke-p1 { animation-name: zk1; }
/* Stroke 2: Starts at 14.0%, finishes at 28.1%, holds until 56.1% */
@keyframes zk2 {
    0%, 14.0% { stroke-dashoffset: 3339; }
    28.1%, 56.1% { stroke-dashoffset: 0; }
    56.2%, 100% { stroke-dashoffset: 3339; }
}
svg.acjk #stroke-p2 { animation-name: zk2; }
/* Stroke 3: Starts at 28.1%, finishes at 42.1%, holds until 56.1% */
@keyframes zk3 {
    0%, 28.1% { stroke-dashoffset: 3339; }
    42.1%, 56.1% { stroke-dashoffset: 0; }
    56.2%, 100% { stroke-dashoffset: 3339; }
}
svg.acjk #stroke-p3 { animation-name: zk3; }
/* Stroke 4: Starts at 42.1%, finishes at 56.1%, holds until 56.1% */
@keyframes zk4 {
    0%, 42.1% { stroke-dashoffset: 3339; }
    56.1%, 56.1% { stroke-dashoffset: 0; }
    56.2%, 100% { stroke-dashoffset: 3339; }
}
svg.acjk #stroke-p4 { animation-name: zk4; }
]]>
</style>
<defs>
    <path id="p1" d="M 294 358 C 300 277 298 303 303 238 C 303 225 298 211 289 202 C 266 178 246 166 218 171 C 204 173 199 182 204 194 C 248 292 241 472 197 650 C 184 704 169 726 169 746 C 168 774 179 805 187 823 C 193 835 203 840 213 835 C 255 811 271 736 276 615 C 280 514 281 520 294 358 Z"/>
    <path id="p2" d="M 303 238 C 332 238 501 191 599 177 C 676 166 691 174 695 236 C 705 410 714 586 707 721 C 704 758 692 775 655 769 C 639 764 615 758 586 750 C 559 741 559 760 592 786 C 630 817 657 857 685 893 C 736 961 760 880 780 841 C 803 788 815 739 812 689 C 800 566 793 438 784 327 C 780 281 784 230 805 196 C 815 178 816 164 802 149 C 782 131 761 118 719 102 C 696 93 676 94 657 105 C 633 115 600 128 558 140 C 441 171 338 193 289 202 C 276 205 290 238 303 238 Z"/>
    <path id="p3" d="M 364 406 C 388 420 467 404 638 372 C 668 364 634 335 604 331 C 578 327 556 336 462 357 C 432 363 401 367 369 370 C 316 373 339 391 364 406 Z"/>
    <path id="p4" d="M 364 581 C 393 589 436 583 545 570 C 613 562 649 553 653 549 C 680 523 638 513 615 509 C 588 504 540 520 468 530 C 431 535 393 541 359 546 C 315 550 342 575 364 581 Z"/>

    <clipPath id="z20867c1"><use href="#p1"/></clipPath>
    <clipPath id="z20867c2"><use href="#p2"/></clipPath>
    <clipPath id="z20867c3"><use href="#p3"/></clipPath>
    <clipPath id="z20867c4"><use href="#p4"/></clipPath>
</defs>
<g id="bg-layer" class="bg">
<use href="#p1"/>
<use href="#p2"/>
<use href="#p3"/>
<use href="#p4"/>
</g>
<g id="anim-layer">
    <path id="stroke-p1" style="stroke:#FF4444" pathLength="3333" clip-path="url(#z20867c1)" d="M 208 180 L 261 233 L 264 357 L 207 833"/>
    <path id="stroke-p2" style="stroke:#FF4444" pathLength="3333" clip-path="url(#z20867c2)" d="M 287 211 L 678 136 L 760 181 L 752 764 L 701 867 L 574 752"/>
    <path id="stroke-p3" style="stroke:#000" pathLength="3333" clip-path="url(#z20867c3)" d="M 347 384 L 645 359"/>
    <path id="stroke-p4" style="stroke:#000" pathLength="3333" clip-path="url(#z20867c4)" d="M 338 556 L 657 534"/>
</g>
</svg>