<svg id="z20876" class="acjk" viewBox="0 0 1024 1024" xmlns="http://www.w3.org/2000/svg">
<style>
<![CDATA[
svg.acjk path[clip-path] {
    animation-duration: 6.5s;
    animation-timing-function: linear;
    animation-iteration-count: infinite;
    stroke-dasharray: 3337;
    stroke-dashoffset: 3339;
    stroke-width: 128;
    stroke-linecap: round;
    fill: none;
    stroke: #FF4444;
}
svg.acjk .bg { fill: #ccc; opacity: 0.5; }

/* Stroke 1: Starts at 0.0%, finishes at 12.3%, holds until 61.5% */
@keyframes zk1 {
    0%, 0.0% { stroke-dashoffset: 3339; }
    12.3%, 61.5% { stroke-dashoffset: 0; }
    61.6%, 100% { stroke-dashoffset: 3339; }
}
svg.acjk #stroke-p1 { animation-name: zk1; }
/* Stroke 2: Starts at 12.3%, finishes at 24.6%, holds until 61.5% */
@keyframes zk2 {
    0%, 12.3% { stroke-dashoffset: 3339; }
    24.6%, 61.5% { stroke-dashoffset: 0; }
    61.6%, 100% { stroke-dashoffset: 3339; }
}
svg.acjk #stroke-p2 { animation-name: zk2; }
/* Stroke 3: Starts at 24.6%, finishes at 36.9%, holds until 61.5% */
@keyframes zk3 {
    0%, 24.6% { stroke-dashoffset: 3339; }
    36.9%, 61.5% { stroke-dashoffset: 0; }
    61.6%, 100% { stroke-dashoffset: 3339; }
}
svg.acjk #stroke-p3 { animation-name: zk3; }
/* Stroke 4: Starts at 36.9%, finishes at 49.2%, holds until 61.5% */
@keyframes zk4 {
    0%, 36.9% { stroke-dashoffset: 3339; }
    49.2%, 61.5% { stroke-dashoffset: 0; }
    61.6%, 100% { stroke-dashoffset: 3339; }
}
svg.acjk #stroke-p4 { animation-name: zk4; }
/* Stroke 5: Starts at 49.2%, finishes at 61.5%, holds until 61.5% */
@keyframes zk5 {
    0%, 49.2% { stroke-dashoffset: 3339; }
    61.5%, 61.5% { stroke-dashoffset: 0; }
    61.6%, 100% { stroke-dashoffset: 3339; }
}
svg.acjk #stroke-p5 { animation-name: zk5; }
]]>
</style>
<defs>
    <path id="p1" d="M 302 192 C 292 185 279 179 264 174 C 251 169 240 167 233 172 C 225 175 224 183 230 192 C 242 210 253 234 256 267 C 259 313 262 397 256 464 C 253 498 253 498 251 515 C 240 619 198 733 136 858 C 133 862 130 866 130 871 C 128 877 132 879 139 878 C 149 875 163 856 187 823 C 237 749 287 617 299 507 C 302 476 302 476 304 460 C 308 417 309 351 310 263 C 310 250 312 237 314 225 C 314 223 315 221 315 221 C 317 211 310 198 302 192 Z"/>
    <path id="p2" d="M 460 447 C 463 312 464 236 475 219 C 482 206 482 197 475 191 C 461 179 444 167 421 158 C 409 153 398 153 389 158 C 370 168 355 177 344 181 C 333 184 319 187 302 192 C 292 196 305 225 315 221 C 333 216 360 208 380 202 C 392 198 400 199 403 206 C 411 226 412 308 412 450 C 412 477 412 477 412 491 C 412 661 401 753 392 767 C 389 770 382 771 372 768 C 353 762 336 754 318 747 C 306 742 296 743 300 748 C 332 786 361 815 378 841 C 386 853 394 861 404 865 C 410 867 415 866 421 860 C 449 828 464 791 463 749 C 461 675 456 587 459 486 C 460 460 460 460 460 447 Z"/>
    <path id="p3" d="M 561 480 C 555 594 517 723 447 869 C 444 873 442 878 442 882 C 441 888 444 892 451 890 C 471 883 504 836 547 747 C 556 726 564 704 572 680 C 590 620 604 552 610 477 C 612 448 612 448 613 434 C 615 395 616 356 615 318 C 612 248 613 208 618 198 C 622 186 607 172 595 167 C 586 162 575 159 564 155 C 550 150 540 147 532 153 C 524 158 524 166 529 174 C 541 192 553 216 557 247 C 564 299 566 372 563 438 C 562 466 562 466 561 480 Z"/>
    <path id="p4" d="M 733 471 C 733 675 727 786 716 803 C 713 806 705 807 693 804 C 675 799 658 793 640 787 C 625 782 615 783 620 789 C 652 828 683 857 703 885 C 711 897 721 906 732 911 C 738 913 744 911 751 905 C 780 872 797 837 796 799 C 792 708 786 598 786 470 C 786 434 786 434 786 416 C 786 284 789 209 799 193 C 806 179 807 169 799 162 C 784 149 764 137 738 127 C 723 121 703 129 674 144 C 647 157 619 161 595 167 C 582 170 605 201 618 198 C 642 192 667 184 693 176 C 705 171 716 172 719 180 C 728 206 733 288 733 424 C 733 455 733 455 733 471 Z"/>
    <path id="p5" d="M 786 470 C 850 469 900 478 936 483 C 952 485 961 484 966 478 C 971 469 971 461 963 453 C 944 434 920 416 891 403 C 883 399 848 408 786 416 C 715 424 387 454 256 464 C 211 467 159 468 99 468 C 90 467 84 470 84 478 C 82 486 88 496 101 506 C 111 514 127 523 148 532 C 154 534 164 533 177 529 C 187 525 211 520 251 515 C 390 494 640 472 786 470 Z"/>

    <clipPath id="z20876c1"><use href="#p1"/></clipPath>
    <clipPath id="z20876c2"><use href="#p2"/></clipPath>
    <clipPath id="z20876c3"><use href="#p3"/></clipPath>
    <clipPath id="z20876c4"><use href="#p4"/></clipPath>
    <clipPath id="z20876c5"><use href="#p5"/></clipPath>
</defs>
<g id="bg-layer" class="bg">
<use href="#p1"/>
<use href="#p2"/>
<use href="#p3"/>
<use href="#p4"/>
<use href="#p5"/>
</g>
<g id="anim-layer">
    <path id="stroke-p1" style="stroke:#FF4444" pathLength="3333" clip-path="url(#z20876c1)" d="M 237 181 L 283 236 L 275 514 L 219 722 L 137 869"/>
    <path id="stroke-p2" style="stroke:#FF4444" pathLength="3333" clip-path="url(#z20876c2)" d="M 311 196 L 407 179 L 444 219 L 424 783 L 393 817 L 306 750"/>
    <path id="stroke-p3" style="stroke:#000" pathLength="3333" clip-path="url(#z20876c3)" d="M 534 160 L 584 213 L 582 514 L 531 727 L 449 883"/>
    <path id="stroke-p4" style="stroke:#000" pathLength="3333" clip-path="url(#z20876c4)" d="M 603 168 L 723 151 L 763 185 L 754 818 L 720 859 L 630 789"/>
    <path id="stroke-p5" style="stroke:#000" pathLength="3333" clip-path="url(#z20876c5)" d="M 89 480 L 157 500 L 842 439 L 965 464"/>
</g>
</svg>