<svg id="z20914" class="acjk" viewBox="0 0 1024 1024" xmlns="http://www.w3.org/2000/svg">
<style>
<![CDATA[
svg.acjk path[clip-path] {
    animation-duration: 7.300000000000001s;
    animation-timing-function: linear;
    animation-iteration-count: infinite;
    stroke-dasharray: 3337;
    stroke-dashoffset: 3339;
    stroke-width: 128;
    stroke-linecap: round;
    fill: none;
    stroke: #FF4444;
}
svg.acjk .bg { fill: #ccc; opacity: 0.5; }

/* Stroke 1: Starts at 0.0%, finishes at 11.0%, holds until 65.8% */
@keyframes zk1 {
    0%, 0.0% { stroke-dashoffset: 3339; }
    11.0%, 65.8% { stroke-dashoffset: 0; }
    65.9%, 100% { stroke-dashoffset: 3339; }
}
svg.acjk #stroke-p1 { animation-name: zk1; }
/* Stroke 2: Starts at 11.0%, finishes at 21.9%, holds until 65.8% */
@keyframes zk2 {
    0%, 11.0% { stroke-dashoffset: 3339; }
    21.9%, 65.8% { stroke-dashoffset: 0; }
    65.9%, 100% { stroke-dashoffset: 3339; }
}
svg.acjk #stroke-p2 { animation-name: zk2; }
/* Stroke 3: Starts at 21.9%, finishes at 32.9%, holds until 65.8% */
@keyframes zk3 {
    0%, 21.9% { stroke-dashoffset: 3339; }
    32.9%, 65.8% { stroke-dashoffset: 0; }
    65.9%, 100% { stroke-dashoffset: 3339; }
}
svg.acjk #stroke-p3 { animation-name: zk3; }
/* Stroke 4: Starts at 32.9%, finishes at 43.8%, holds until 65.8% */
@keyframes zk4 {
    0%, 32.9% { stroke-dashoffset: 3339; }
    43.8%, 65.8% { stroke-dashoffset: 0; }
    65.9%, 100% { stroke-dashoffset: 3339; }
}
svg.acjk #stroke-p4 { animation-name: zk4; }
/* Stroke 5: Starts at 43.8%, finishes at 54.8%, holds until 65.8% */
@keyframes zk5 {
    0%, 43.8% { stroke-dashoffset: 3339; }
    54.8%, 65.8% { stroke-dashoffset: 0; }
    65.9%, 100% { stroke-dashoffset: 3339; }
}
svg.acjk #stroke-p5 { animation-name: zk5; }
/* Stroke 6: Starts at 54.8%, finishes at 65.8%, holds until 65.8% */
@keyframes zk6 {
    0%, 54.8% { stroke-dashoffset: 3339; }
    65.8%, 65.8% { stroke-dashoffset: 0; }
    65.9%, 100% { stroke-dashoffset: 3339; }
}
svg.acjk #stroke-p6 { animation-name: zk6; }
]]>
</style>
<defs>
    <path id="p1" d="M 211 210 C 231 228 251 249 272 271 C 282 281 294 287 308 288 C 316 288 323 282 328 271 C 332 259 332 240 325 216 C 317 189 277 167 207 150 C 194 146 185 145 180 148 C 175 149 172 157 175 169 C 176 177 189 190 211 210 Z"/>
    <path id="p2" d="M 119 718 C 111 722 106 727 108 740 C 115 794 133 826 157 842 C 162 845 167 848 176 847 C 180 846 183 836 186 819 C 189 788 231 680 312 494 C 316 483 319 475 319 471 C 318 462 314 462 308 467 C 296 475 248 543 165 673 C 155 687 141 704 119 718 Z"/>
    <path id="p3" d="M 419 346 C 410 342 395 338 374 335 C 365 333 360 334 357 338 C 352 343 354 350 360 362 C 381 404 399 460 412 531 C 415 551 421 569 434 584 C 454 608 461 595 463 569 C 463 556 463 543 461 531 C 454 495 446 463 436 382 C 434 369 431 351 419 346 Z"/>
    <path id="p4" d="M 823 488 C 847 426 872 388 893 370 C 910 354 905 339 886 325 C 867 311 848 297 830 285 C 818 277 805 274 788 281 C 739 298 694 302 648 310 C 607 317 607 317 586 320 C 529 329 474 339 419 346 C 406 349 425 389 436 382 C 456 371 506 361 586 351 C 627 346 627 346 648 343 C 684 338 726 332 774 329 C 803 326 798 350 795 370 C 790 396 778 433 758 486 C 750 506 815 508 823 488 Z"/>
    <path id="p5" d="M 644 546 C 700 540 765 534 841 530 C 849 529 854 525 855 519 C 855 513 844 502 823 488 C 806 475 779 482 758 486 C 717 492 679 501 644 507 C 605 513 605 513 585 516 C 540 522 499 527 461 531 C 448 533 450 569 463 569 C 473 569 549 555 585 552 C 624 548 624 548 644 546 Z"/>
    <path id="p6" d="M 585 552 C 585 788 589 914 594 930 C 601 954 617 957 625 934 C 636 897 644 768 644 546 C 644 520 644 520 644 507 C 644 444 648 389 648 343 C 648 321 648 321 648 310 C 648 267 652 232 654 205 C 655 183 662 163 673 145 C 679 133 673 121 659 110 C 641 95 616 85 586 78 C 571 74 560 77 551 87 C 544 93 545 100 554 109 C 572 126 583 145 585 169 C 586 207 586 258 586 320 C 586 341 586 341 586 351 C 586 402 585 478 585 516 C 585 540 585 540 585 552 Z"/>

    <clipPath id="z20914c1"><use href="#p1"/></clipPath>
    <clipPath id="z20914c2"><use href="#p2"/></clipPath>
    <clipPath id="z20914c3"><use href="#p3"/></clipPath>
    <clipPath id="z20914c4"><use href="#p4"/></clipPath>
    <clipPath id="z20914c5"><use href="#p5"/></clipPath>
    <clipPath id="z20914c6"><use href="#p6"/></clipPath>
</defs>
<g id="bg-layer" class="bg">
<use href="#p1"/>
<use href="#p2"/>
<use href="#p3"/>
<use href="#p4"/>
<use href="#p5"/>
<use href="#p6"/>
</g>
<g id="anim-layer">
    <path id="stroke-p1" style="stroke:#FF4444" pathLength="3333" clip-path="url(#z20914c1)" d="M 182 157 L 283 223 L 307 284"/>
    <path id="stroke-p2" style="stroke:#FF4444" pathLength="3333" clip-path="url(#z20914c2)" d="M 112 731 L 143 721 L 174 792 L 313 474"/>
    <path id="stroke-p3" style="stroke:#000" pathLength="3333" clip-path="url(#z20914c3)" d="M 363 342 L 402 374 L 445 588"/>
    <path id="stroke-p4" style="stroke:#000" pathLength="3333" clip-path="url(#z20914c4)" d="M 422 351 L 808 307 L 848 362 L 791 483 L 765 496"/>
    <path id="stroke-p5" style="stroke:#000" pathLength="3333" clip-path="url(#z20914c5)" d="M 454 550 L 782 507 L 847 517"/>
    <path id="stroke-p6" style="stroke:#000" pathLength="3333" clip-path="url(#z20914c6)" d="M 554 92 L 629 146 L 610 943"/>
</g>
</svg>