<svg id="z20919" class="acjk" viewBox="0 0 1024 1024" xmlns="http://www.w3.org/2000/svg">
<style>
<![CDATA[
svg.acjk path[clip-path] {
    animation-duration: 8.100000000000001s;
    animation-timing-function: linear;
    animation-iteration-count: infinite;
    stroke-dasharray: 3337;
    stroke-dashoffset: 3339;
    stroke-width: 128;
    stroke-linecap: round;
    fill: none;
    stroke: #FF4444;
}
svg.acjk .bg { fill: #ccc; opacity: 0.5; }

/* Stroke 1: Starts at 0.0%, finishes at 9.9%, holds until 69.1% */
@keyframes zk1 {
    0%, 0.0% { stroke-dashoffset: 3339; }
    9.9%, 69.1% { stroke-dashoffset: 0; }
    69.2%, 100% { stroke-dashoffset: 3339; }
}
svg.acjk #stroke-p1 { animation-name: zk1; }
/* Stroke 2: Starts at 9.9%, finishes at 19.8%, holds until 69.1% */
@keyframes zk2 {
    0%, 9.9% { stroke-dashoffset: 3339; }
    19.8%, 69.1% { stroke-dashoffset: 0; }
    69.2%, 100% { stroke-dashoffset: 3339; }
}
svg.acjk #stroke-p2 { animation-name: zk2; }
/* Stroke 3: Starts at 19.8%, finishes at 29.6%, holds until 69.1% */
@keyframes zk3 {
    0%, 19.8% { stroke-dashoffset: 3339; }
    29.6%, 69.1% { stroke-dashoffset: 0; }
    69.2%, 100% { stroke-dashoffset: 3339; }
}
svg.acjk #stroke-p3 { animation-name: zk3; }
/* Stroke 4: Starts at 29.6%, finishes at 39.5%, holds until 69.1% */
@keyframes zk4 {
    0%, 29.6% { stroke-dashoffset: 3339; }
    39.5%, 69.1% { stroke-dashoffset: 0; }
    69.2%, 100% { stroke-dashoffset: 3339; }
}
svg.acjk #stroke-p4 { animation-name: zk4; }
/* Stroke 5: Starts at 39.5%, finishes at 49.4%, holds until 69.1% */
@keyframes zk5 {
    0%, 39.5% { stroke-dashoffset: 3339; }
    49.4%, 69.1% { stroke-dashoffset: 0; }
    69.2%, 100% { stroke-dashoffset: 3339; }
}
svg.acjk #stroke-p5 { animation-name: zk5; }
/* Stroke 6: Starts at 49.4%, finishes at 59.3%, holds until 69.1% */
@keyframes zk6 {
    0%, 49.4% { stroke-dashoffset: 3339; }
    59.3%, 69.1% { stroke-dashoffset: 0; }
    69.2%, 100% { stroke-dashoffset: 3339; }
}
svg.acjk #stroke-p6 { animation-name: zk6; }
/* Stroke 7: Starts at 59.3%, finishes at 69.1%, holds until 69.1% */
@keyframes zk7 {
    0%, 59.3% { stroke-dashoffset: 3339; }
    69.1%, 69.1% { stroke-dashoffset: 0; }
    69.2%, 100% { stroke-dashoffset: 3339; }
}
svg.acjk #stroke-p7 { animation-name: zk7; }
]]>
</style>
<defs>
    <path id="p1" d="M 174 239 C 192 257 210 277 229 300 C 237 310 248 316 261 317 C 269 317 275 312 280 303 C 284 292 284 275 280 252 C 277 237 265 222 243 211 C 191 185 158 176 148 181 C 143 183 140 189 142 199 C 143 208 155 220 174 239 Z"/>
    <path id="p2" d="M 93 677 C 85 681 81 685 83 697 C 90 745 106 774 126 789 C 131 792 135 795 142 794 C 146 793 149 784 152 768 C 156 737 195 641 268 479 C 272 468 275 461 275 458 C 274 451 270 449 265 454 C 256 459 212 520 134 637 C 124 650 112 666 93 677 Z"/>
    <path id="p3" d="M 568 201 C 578 182 590 168 601 158 C 608 150 609 141 606 131 C 603 122 591 108 569 93 C 549 79 532 73 518 74 C 504 74 499 83 507 100 C 517 122 516 142 510 163 C 497 205 453 292 414 353 C 376 411 331 473 279 538 C 272 546 267 551 266 556 C 262 564 267 568 278 566 C 318 556 399 463 484 339 C 513 295 535 259 555 224 C 564 209 564 209 568 201 Z"/>
    <path id="p4" d="M 555 224 C 617 302 684 379 755 453 C 771 469 792 478 820 481 C 870 485 920 482 973 475 C 985 473 993 472 995 468 C 997 463 992 459 982 455 C 847 397 779 367 776 366 C 703 322 612 241 568 201 C 562 195 550 217 555 224 Z"/>
    <path id="p5" d="M 511 445 C 529 461 547 480 566 502 C 573 510 583 515 593 516 C 599 516 605 511 609 503 C 612 494 611 479 608 460 C 605 447 594 433 573 423 C 529 401 499 392 488 397 C 484 398 482 405 484 413 C 484 419 495 430 511 445 Z"/>
    <path id="p6" d="M 579 802 C 661 700 720 639 757 623 C 770 617 774 610 770 597 C 766 586 741 568 691 545 C 676 538 661 539 645 546 C 599 564 540 582 471 605 C 452 610 421 614 377 613 C 360 612 353 621 361 635 C 366 644 377 652 391 661 C 413 674 436 670 462 656 C 477 647 531 630 619 597 C 629 592 639 593 649 600 C 658 606 662 615 657 626 C 629 677 597 732 563 792 C 560 797 575 807 579 802 Z"/>
    <path id="p7" d="M 563 792 C 526 769 496 755 475 745 C 468 741 464 742 463 751 C 461 760 465 769 472 777 C 512 818 557 866 604 926 C 615 940 624 951 635 954 C 641 955 647 951 653 945 C 661 935 662 916 656 885 C 650 857 624 830 579 802 C 568 795 568 795 563 792 Z"/>

    <clipPath id="z20919c1"><use href="#p1"/></clipPath>
    <clipPath id="z20919c2"><use href="#p2"/></clipPath>
    <clipPath id="z20919c3"><use href="#p3"/></clipPath>
    <clipPath id="z20919c4"><use href="#p4"/></clipPath>
    <clipPath id="z20919c5"><use href="#p5"/></clipPath>
    <clipPath id="z20919c6"><use href="#p6"/></clipPath>
    <clipPath id="z20919c7"><use href="#p7"/></clipPath>
</defs>
<g id="bg-layer" class="bg">
<use href="#p1"/>
<use href="#p2"/>
<use href="#p3"/>
<use href="#p4"/>
<use href="#p5"/>
<use href="#p6"/>
<use href="#p7"/>
</g>
<g id="anim-layer">
    <path id="stroke-p1" style="stroke:#FF4444" pathLength="3333" clip-path="url(#z20919c1)" d="M 149 189 L 236 251 L 266 311"/>
    <path id="stroke-p2" style="stroke:#FF4444" pathLength="3333" clip-path="url(#z20919c2)" d="M 96 688 L 131 737 L 268 460"/>
    <path id="stroke-p3" style="stroke:#000" pathLength="3333" clip-path="url(#z20919c3)" d="M 512 80 L 559 151 L 436 365 L 273 562"/>
    <path id="stroke-p4" style="stroke:#000" pathLength="3333" clip-path="url(#z20919c4)" d="M 570 212 L 788 422 L 989 467"/>
    <path id="stroke-p5" style="stroke:#000" pathLength="3333" clip-path="url(#z20919c5)" d="M 492 405 L 574 463 L 593 512"/>
    <path id="stroke-p6" style="stroke:#000" pathLength="3333" clip-path="url(#z20919c6)" d="M 363 624 L 433 640 L 635 572 L 693 587 L 716 618 L 571 796"/>
    <path id="stroke-p7" style="stroke:#000" pathLength="3333" clip-path="url(#z20919c7)" d="M 470 752 L 610 874 L 641 949"/>
</g>
</svg>