<svg id="z20961" class="acjk" viewBox="0 0 1024 1024" xmlns="http://www.w3.org/2000/svg">
<style>
<![CDATA[
svg.acjk path[clip-path] {
    animation-duration: 4.9s;
    animation-timing-function: linear;
    animation-iteration-count: infinite;
    stroke-dasharray: 3337;
    stroke-dashoffset: 3339;
    stroke-width: 128;
    stroke-linecap: round;
    fill: none;
    stroke: #FF4444;
}
svg.acjk .bg { fill: #ccc; opacity: 0.5; }

/* Stroke 1: Starts at 0.0%, finishes at 16.3%, holds until 49.0% */
@keyframes zk1 {
    0%, 0.0% { stroke-dashoffset: 3339; }
    16.3%, 49.0% { stroke-dashoffset: 0; }
    49.1%, 100% { stroke-dashoffset: 3339; }
}
svg.acjk #stroke-p1 { animation-name: zk1; }
/* Stroke 2: Starts at 16.3%, finishes at 32.7%, holds until 49.0% */
@keyframes zk2 {
    0%, 16.3% { stroke-dashoffset: 3339; }
    32.7%, 49.0% { stroke-dashoffset: 0; }
    49.1%, 100% { stroke-dashoffset: 3339; }
}
svg.acjk #stroke-p2 { animation-name: zk2; }
/* Stroke 3: Starts at 32.7%, finishes at 49.0%, holds until 49.0% */
@keyframes zk3 {
    0%, 32.7% { stroke-dashoffset: 3339; }
    49.0%, 49.0% { stroke-dashoffset: 0; }
    49.1%, 100% { stroke-dashoffset: 3339; }
}
svg.acjk #stroke-p3 { animation-name: zk3; }
]]>
</style>
<defs>
    <path id="p1" d="M 393 437 C 395 420 395 372 396 360 C 399 296 403 252 411 230 C 416 217 405 197 392 192 C 359 174 334 169 316 179 C 307 183 304 191 311 201 C 334 237 346 307 342 412 C 340 442 336 475 329 510 C 301 633 237 733 143 816 C 131 825 121 836 112 846 C 103 854 104 860 114 860 C 124 860 141 851 165 837 C 209 809 245 775 277 738 C 321 684 352 626 375 541 C 383 510 388 475 390 462 C 392 445 392 445 393 437 Z"/>
    <path id="p2" d="M 411 230 C 421 228 471 214 560 186 C 570 182 578 179 583 183 C 587 186 585 250 577 372 C 561 594 568 721 580 760 C 587 785 609 822 674 844 C 727 861 781 863 845 857 C 887 852 928 840 971 822 C 985 816 990 806 986 789 C 977 757 970 719 967 675 C 964 651 961 636 957 633 C 951 628 947 631 944 640 C 914 714 887 759 863 774 C 848 783 824 791 792 793 C 749 794 715 788 691 781 C 666 773 648 762 639 749 C 616 719 612 640 623 512 C 630 412 642 329 659 264 C 666 234 683 209 708 186 C 720 173 717 159 705 150 C 688 137 661 124 624 112 C 609 107 594 110 580 120 C 525 157 462 182 392 192 C 378 195 397 233 411 230 Z"/>
    <path id="p3" d="M 390 462 C 394 466 402 472 411 480 C 432 498 454 518 478 540 C 486 547 494 551 503 551 C 509 550 514 547 517 539 C 519 530 518 517 514 501 C 507 478 476 458 411 440 C 405 438 398 438 393 437 C 385 435 383 457 390 462 Z"/>

    <clipPath id="z20961c1"><use href="#p1"/></clipPath>
    <clipPath id="z20961c2"><use href="#p2"/></clipPath>
    <clipPath id="z20961c3"><use href="#p3"/></clipPath>
</defs>
<g id="bg-layer" class="bg">
<use href="#p1"/>
<use href="#p2"/>
<use href="#p3"/>
</g>
<g id="anim-layer">
    <path id="stroke-p1" style="stroke:#FF4444" pathLength="3333" clip-path="url(#z20961c1)" d="M 312 190 L 358 211 L 370 245 L 347 543 L 270 709 L 115 854"/>
    <path id="stroke-p2" style="stroke:#FF4444" pathLength="3333" clip-path="url(#z20961c2)" d="M 400 195 L 436 204 L 599 147 L 662 179 L 616 288 L 592 569 L 598 721 L 628 781 L 745 823 L 878 812 L 947 770 L 951 638"/>
    <path id="stroke-p3" style="stroke:#000" pathLength="3333" clip-path="url(#z20961c3)" d="M 399 442 L 511 542"/>
</g>
</svg>