<svg id="z21069" class="acjk" viewBox="0 0 1024 1024" xmlns="http://www.w3.org/2000/svg">
<style>
<![CDATA[
svg.acjk path[clip-path] {
    animation-duration: 9.7s;
    animation-timing-function: linear;
    animation-iteration-count: infinite;
    stroke-dasharray: 3337;
    stroke-dashoffset: 3339;
    stroke-width: 128;
    stroke-linecap: round;
    fill: none;
    stroke: #FF4444;
}
svg.acjk .bg { fill: #ccc; opacity: 0.5; }

/* Stroke 1: Starts at 0.0%, finishes at 8.2%, holds until 74.2% */
@keyframes zk1 {
    0%, 0.0% { stroke-dashoffset: 3339; }
    8.2%, 74.2% { stroke-dashoffset: 0; }
    74.3%, 100% { stroke-dashoffset: 3339; }
}
svg.acjk #stroke-p1 { animation-name: zk1; }
/* Stroke 2: Starts at 8.2%, finishes at 16.5%, holds until 74.2% */
@keyframes zk2 {
    0%, 8.2% { stroke-dashoffset: 3339; }
    16.5%, 74.2% { stroke-dashoffset: 0; }
    74.3%, 100% { stroke-dashoffset: 3339; }
}
svg.acjk #stroke-p2 { animation-name: zk2; }
/* Stroke 3: Starts at 16.5%, finishes at 24.7%, holds until 74.2% */
@keyframes zk3 {
    0%, 16.5% { stroke-dashoffset: 3339; }
    24.7%, 74.2% { stroke-dashoffset: 0; }
    74.3%, 100% { stroke-dashoffset: 3339; }
}
svg.acjk #stroke-p3 { animation-name: zk3; }
/* Stroke 4: Starts at 24.7%, finishes at 33.0%, holds until 74.2% */
@keyframes zk4 {
    0%, 24.7% { stroke-dashoffset: 3339; }
    33.0%, 74.2% { stroke-dashoffset: 0; }
    74.3%, 100% { stroke-dashoffset: 3339; }
}
svg.acjk #stroke-p4 { animation-name: zk4; }
/* Stroke 5: Starts at 33.0%, finishes at 41.2%, holds until 74.2% */
@keyframes zk5 {
    0%, 33.0% { stroke-dashoffset: 3339; }
    41.2%, 74.2% { stroke-dashoffset: 0; }
    74.3%, 100% { stroke-dashoffset: 3339; }
}
svg.acjk #stroke-p5 { animation-name: zk5; }
/* Stroke 6: Starts at 41.2%, finishes at 49.5%, holds until 74.2% */
@keyframes zk6 {
    0%, 41.2% { stroke-dashoffset: 3339; }
    49.5%, 74.2% { stroke-dashoffset: 0; }
    74.3%, 100% { stroke-dashoffset: 3339; }
}
svg.acjk #stroke-p6 { animation-name: zk6; }
/* Stroke 7: Starts at 49.5%, finishes at 57.7%, holds until 74.2% */
@keyframes zk7 {
    0%, 49.5% { stroke-dashoffset: 3339; }
    57.7%, 74.2% { stroke-dashoffset: 0; }
    74.3%, 100% { stroke-dashoffset: 3339; }
}
svg.acjk #stroke-p7 { animation-name: zk7; }
/* Stroke 8: Starts at 57.7%, finishes at 66.0%, holds until 74.2% */
@keyframes zk8 {
    0%, 57.7% { stroke-dashoffset: 3339; }
    66.0%, 74.2% { stroke-dashoffset: 0; }
    74.3%, 100% { stroke-dashoffset: 3339; }
}
svg.acjk #stroke-p8 { animation-name: zk8; }
/* Stroke 9: Starts at 66.0%, finishes at 74.2%, holds until 74.2% */
@keyframes zk9 {
    0%, 66.0% { stroke-dashoffset: 3339; }
    74.2%, 74.2% { stroke-dashoffset: 0; }
    74.3%, 100% { stroke-dashoffset: 3339; }
}
svg.acjk #stroke-p9 { animation-name: zk9; }
]]>
</style>
<defs>
    <path id="p1" d="M 378 138 C 418 180 443 202 453 203 C 459 203 465 199 469 191 C 473 182 472 168 468 148 C 465 135 454 123 436 114 C 394 93 366 84 356 89 C 352 90 350 97 351 105 C 351 111 362 122 378 138 Z"/>
    <path id="p2" d="M 640 90 C 627 110 603 144 570 193 C 562 204 566 211 578 207 C 591 201 627 176 686 134 C 700 123 713 113 730 105 C 745 97 748 86 739 75 C 729 63 715 53 697 44 C 680 35 667 32 658 34 C 649 35 646 39 649 50 C 651 62 648 75 640 90 Z"/>
    <path id="p3" d="M 520 286 C 659 271 811 261 935 271 C 950 272 961 269 965 264 C 970 255 968 246 960 239 C 914 196 867 189 816 202 C 748 219 603 234 384 262 C 291 273 192 286 113 288 C 104 288 98 291 98 299 C 97 307 104 316 117 326 C 143 345 166 352 194 346 C 298 320 418 296 520 286 Z"/>
    <path id="p4" d="M 303 532 C 305 494 306 455 312 441 C 315 433 312 421 305 415 C 289 399 271 392 251 394 C 242 396 239 401 243 409 C 270 491 266 590 237 717 C 227 758 213 779 214 786 C 214 805 221 822 232 838 C 237 845 241 849 248 846 C 275 824 289 733 294 669 C 295 648 295 648 296 637 C 297 608 299 582 301 559 C 302 541 302 541 303 532 Z"/>
    <path id="p5" d="M 312 441 C 312 440 346 432 414 417 C 424 414 433 414 436 420 C 447 451 450 549 446 711 C 444 759 443 790 437 792 C 423 795 407 790 390 786 C 360 779 348 780 371 800 C 395 820 420 850 446 874 C 454 881 461 879 467 873 C 489 847 503 812 501 771 C 489 570 485 457 500 431 C 505 419 506 411 500 406 C 488 395 471 385 451 377 C 441 372 431 373 422 378 C 391 394 352 407 305 415 C 296 417 304 444 312 441 Z"/>
    <path id="p6" d="M 301 559 Q 304 559 308 559 Q 363 549 404 544 Q 426 540 417 527 Q 407 514 382 511 Q 343 508 303 532 C 295 537 292 559 301 559 Z"/>
    <path id="p7" d="M 294 669 Q 354 662 399 656 Q 421 652 413 640 Q 403 625 377 621 Q 332 615 296 637 C 287 642 284 671 294 669 Z"/>
    <path id="p8" d="M 569 436 C 585 474 591 544 575 646 C 571 665 575 684 593 706 C 598 712 604 713 610 706 C 623 688 628 664 627 638 C 623 567 624 509 634 463 C 636 448 633 439 622 433 C 611 427 602 420 593 416 C 586 413 579 413 573 417 C 568 419 565 426 569 436 Z"/>
    <path id="p9" d="M 692 836 C 677 830 662 823 645 817 C 637 814 633 815 633 819 C 632 825 634 831 641 838 C 676 876 705 912 729 943 C 734 950 744 947 754 937 C 780 907 797 857 794 790 C 787 637 778 505 788 393 C 789 373 792 361 788 356 C 781 347 765 336 740 323 C 729 316 720 315 713 321 C 706 326 707 336 715 351 C 722 365 728 426 730 534 C 733 715 733 815 728 829 C 723 840 709 842 692 836 Z"/>

    <clipPath id="z21069c1"><use href="#p1"/></clipPath>
    <clipPath id="z21069c2"><use href="#p2"/></clipPath>
    <clipPath id="z21069c3"><use href="#p3"/></clipPath>
    <clipPath id="z21069c4"><use href="#p4"/></clipPath>
    <clipPath id="z21069c5"><use href="#p5"/></clipPath>
    <clipPath id="z21069c6"><use href="#p6"/></clipPath>
    <clipPath id="z21069c7"><use href="#p7"/></clipPath>
    <clipPath id="z21069c8"><use href="#p8"/></clipPath>
    <clipPath id="z21069c9"><use href="#p9"/></clipPath>
</defs>
<g id="bg-layer" class="bg">
<use href="#p1"/>
<use href="#p2"/>
<use href="#p3"/>
<use href="#p4"/>
<use href="#p5"/>
<use href="#p6"/>
<use href="#p7"/>
<use href="#p8"/>
<use href="#p9"/>
</g>
<g id="anim-layer">
    <path id="stroke-p1" style="stroke:#FF4444" pathLength="3333" clip-path="url(#z21069c1)" d="M 359 98 L 438 154 L 456 196"/>
    <path id="stroke-p2" style="stroke:#FF4444" pathLength="3333" clip-path="url(#z21069c2)" d="M 656 38 L 688 97 L 574 202"/>
    <path id="stroke-p3" style="stroke:#FF4444" pathLength="3333" clip-path="url(#z21069c3)" d="M 106 301 L 190 315 L 840 232 L 964 253"/>
    <path id="stroke-p4" style="stroke:#000" pathLength="3333" clip-path="url(#z21069c4)" d="M 248 402 L 282 437 L 282 537 L 236 841"/>
    <path id="stroke-p5" style="stroke:#000" pathLength="3333" clip-path="url(#z21069c5)" d="M 307 427 L 427 395 L 471 421 L 469 801 L 444 835 L 368 788"/>
    <path id="stroke-p6" style="stroke:#000" pathLength="3333" clip-path="url(#z21069c6)" d="M 303 550 L 413 530"/>
    <path id="stroke-p7" style="stroke:#000" pathLength="3333" clip-path="url(#z21069c7)" d="M 293 661 L 410 640"/>
    <path id="stroke-p8" style="stroke:#000" pathLength="3333" clip-path="url(#z21069c8)" d="M 576 420 L 607 472 L 598 704"/>
    <path id="stroke-p9" style="stroke:#000" pathLength="3333" clip-path="url(#z21069c9)" d="M 715 323 L 755 370 L 760 834 L 722 895 L 640 824"/>
</g>
</svg>