<svg id="z21315" class="acjk" viewBox="0 0 1024 1024" xmlns="http://www.w3.org/2000/svg">
<style>
<![CDATA[
svg.acjk path[clip-path] {
    animation-duration: 4.9s;
    animation-timing-function: linear;
    animation-iteration-count: infinite;
    stroke-dasharray: 3337;
    stroke-dashoffset: 3339;
    stroke-width: 128;
    stroke-linecap: round;
    fill: none;
    stroke: #FF4444;
}
svg.acjk .bg { fill: #ccc; opacity: 0.5; }

/* Stroke 1: Starts at 0.0%, finishes at 16.3%, holds until 49.0% */
@keyframes zk1 {
    0%, 0.0% { stroke-dashoffset: 3339; }
    16.3%, 49.0% { stroke-dashoffset: 0; }
    49.1%, 100% { stroke-dashoffset: 3339; }
}
svg.acjk #stroke-p1 { animation-name: zk1; }
/* Stroke 2: Starts at 16.3%, finishes at 32.7%, holds until 49.0% */
@keyframes zk2 {
    0%, 16.3% { stroke-dashoffset: 3339; }
    32.7%, 49.0% { stroke-dashoffset: 0; }
    49.1%, 100% { stroke-dashoffset: 3339; }
}
svg.acjk #stroke-p2 { animation-name: zk2; }
/* Stroke 3: Starts at 32.7%, finishes at 49.0%, holds until 49.0% */
@keyframes zk3 {
    0%, 32.7% { stroke-dashoffset: 3339; }
    49.0%, 49.0% { stroke-dashoffset: 0; }
    49.1%, 100% { stroke-dashoffset: 3339; }
}
svg.acjk #stroke-p3 { animation-name: zk3; }
]]>
</style>
<defs>
    <path id="p1" d="M 510 192 C 590 166 643 140 678 137 C 690 135 698 134 701 129 C 704 121 701 112 693 105 C 678 91 654 81 625 67 C 612 61 604 57 595 59 C 588 60 586 66 586 74 C 585 84 579 92 570 100 C 551 114 521 131 480 153 C 427 180 359 205 282 239 C 274 242 276 250 282 252 C 291 255 450 211 460 208 C 493 197 493 197 510 192 Z"/>
    <path id="p2" d="M 545 459 C 671 447 768 444 839 449 C 887 452 915 451 918 447 C 923 439 921 428 913 421 C 892 400 864 379 833 372 C 815 367 784 377 722 388 C 682 395 572 407 545 411 C 508 416 508 416 489 418 C 450 422 405 427 301 439 C 256 444 200 449 133 450 C 123 450 117 454 117 462 C 116 470 123 479 136 490 C 161 509 191 516 225 508 C 255 500 310 488 392 476 C 422 471 454 467 489 464 C 526 461 526 461 545 459 Z"/>
    <path id="p3" d="M 486 891 C 489 909 495 922 501 929 C 504 933 510 937 515 934 C 525 925 545 866 544 826 C 541 721 545 499 545 459 C 545 427 545 427 545 411 C 545 339 549 282 559 242 C 561 229 556 219 547 213 C 532 203 520 196 510 192 C 494 186 451 193 460 208 C 470 224 470 224 475 232 C 484 247 488 269 489 294 C 489 315 489 376 489 418 C 489 449 489 449 489 464 C 489 781 478 847 486 891 Z"/>

    <clipPath id="z21315c1"><use href="#p1"/></clipPath>
    <clipPath id="z21315c2"><use href="#p2"/></clipPath>
    <clipPath id="z21315c3"><use href="#p3"/></clipPath>
</defs>
<g id="bg-layer" class="bg">
<use href="#p1"/>
<use href="#p2"/>
<use href="#p3"/>
</g>
<g id="anim-layer">
    <path id="stroke-p1" style="stroke:#FF4444" pathLength="3333" clip-path="url(#z21315c1)" d="M 596 67 L 647 113 L 285 245"/>
    <path id="stroke-p2" style="stroke:#000" pathLength="3333" clip-path="url(#z21315c2)" d="M 121 459 L 207 479 L 813 409 L 916 433"/>
    <path id="stroke-p3" style="stroke:#000" pathLength="3333" clip-path="url(#z21315c3)" d="M 470 209 L 522 245 L 510 930"/>
</g>
</svg>