<svg id="z21324" class="acjk" viewBox="0 0 1024 1024" xmlns="http://www.w3.org/2000/svg">
<style>
<![CDATA[
svg.acjk path[clip-path] {
    animation-duration: 6.5s;
    animation-timing-function: linear;
    animation-iteration-count: infinite;
    stroke-dasharray: 3337;
    stroke-dashoffset: 3339;
    stroke-width: 128;
    stroke-linecap: round;
    fill: none;
    stroke: #FF4444;
}
svg.acjk .bg { fill: #ccc; opacity: 0.5; }

/* Stroke 1: Starts at 0.0%, finishes at 12.3%, holds until 61.5% */
@keyframes zk1 {
    0%, 0.0% { stroke-dashoffset: 3339; }
    12.3%, 61.5% { stroke-dashoffset: 0; }
    61.6%, 100% { stroke-dashoffset: 3339; }
}
svg.acjk #stroke-p1 { animation-name: zk1; }
/* Stroke 2: Starts at 12.3%, finishes at 24.6%, holds until 61.5% */
@keyframes zk2 {
    0%, 12.3% { stroke-dashoffset: 3339; }
    24.6%, 61.5% { stroke-dashoffset: 0; }
    61.6%, 100% { stroke-dashoffset: 3339; }
}
svg.acjk #stroke-p2 { animation-name: zk2; }
/* Stroke 3: Starts at 24.6%, finishes at 36.9%, holds until 61.5% */
@keyframes zk3 {
    0%, 24.6% { stroke-dashoffset: 3339; }
    36.9%, 61.5% { stroke-dashoffset: 0; }
    61.6%, 100% { stroke-dashoffset: 3339; }
}
svg.acjk #stroke-p3 { animation-name: zk3; }
/* Stroke 4: Starts at 36.9%, finishes at 49.2%, holds until 61.5% */
@keyframes zk4 {
    0%, 36.9% { stroke-dashoffset: 3339; }
    49.2%, 61.5% { stroke-dashoffset: 0; }
    61.6%, 100% { stroke-dashoffset: 3339; }
}
svg.acjk #stroke-p4 { animation-name: zk4; }
/* Stroke 5: Starts at 49.2%, finishes at 61.5%, holds until 61.5% */
@keyframes zk5 {
    0%, 49.2% { stroke-dashoffset: 3339; }
    61.5%, 61.5% { stroke-dashoffset: 0; }
    61.6%, 100% { stroke-dashoffset: 3339; }
}
svg.acjk #stroke-p5 { animation-name: zk5; }
]]>
</style>
<defs>
    <path id="p1" d="M 768 492 Q 846 492 938 503 Q 962 506 968 497 Q 975 484 963 472 Q 935 444 891 424 Q 876 418 850 426 Q 814 436 768 444 C 737 447 737 447 721 449 Q 658 453 603 461 C 572 464 572 464 556 466 Q 498 470 449 478 C 421 481 421 481 407 483 Q 358 487 314 494 C 279 498 279 498 261 500 Q 161 512 86 512 Q 73 512 71 523 Q 70 536 89 550 Q 129 583 165 571 Q 195 559 256 545 C 291 537 291 537 309 533 Q 348 526 406 519 C 434 516 434 516 448 514 Q 496 507 556 503 C 587 500 587 500 603 499 Q 664 490 720 492 C 752 492 752 492 768 492 Z"/>
    <path id="p2" d="M 314 494 Q 323 412 323 302 Q 327 280 328 269 Q 334 247 312 237 Q 261 213 245 216 Q 224 220 242 243 Q 272 294 261 495 Q 261 496 261 500 C 258 530 258 530 256 545 Q 229 698 135 799 Q 84 850 81 856 Q 80 863 92 862 Q 134 862 208 778 Q 289 685 309 533 C 312 507 312 507 314 494 Z"/>
    <path id="p3" d="M 449 478 Q 449 375 462 332 Q 474 314 448 296 Q 436 287 420 278 Q 404 265 387 277 Q 383 281 388 292 Q 401 313 408 372 Q 408 463 407 483 C 406 507 406 507 406 519 Q 406 622 393 672 Q 384 702 404 747 Q 408 760 415 763 Q 419 767 425 762 Q 446 744 445 701 Q 445 679 448 514 C 449 490 449 490 449 478 Z"/>
    <path id="p4" d="M 603 461 Q 609 340 617 316 Q 624 303 622 292 Q 616 283 570 254 Q 551 241 533 253 Q 529 257 534 270 Q 550 295 556 377 Q 556 420 556 466 C 556 491 556 491 556 503 Q 552 635 546 669 Q 530 724 553 777 Q 557 792 565 795 Q 569 801 576 794 Q 583 790 592 772 Q 599 751 599 725 Q 599 700 603 499 C 603 474 603 474 603 461 Z"/>
    <path id="p5" d="M 720 492 Q 720 715 708 783 Q 684 871 709 925 Q 710 931 714 938 Q 721 956 729 959 Q 736 966 743 957 Q 752 953 762 931 Q 772 904 770 872 Q 769 829 768 492 C 768 460 768 460 768 444 Q 768 242 785 178 Q 798 151 773 133 Q 755 121 725 103 Q 700 87 679 103 Q 673 107 681 124 Q 711 166 718 263 Q 721 371 721 449 C 720 478 720 478 720 492 Z"/>

    <clipPath id="z21324c1"><use href="#p1"/></clipPath>
    <clipPath id="z21324c2"><use href="#p2"/></clipPath>
    <clipPath id="z21324c3"><use href="#p3"/></clipPath>
    <clipPath id="z21324c4"><use href="#p4"/></clipPath>
    <clipPath id="z21324c5"><use href="#p5"/></clipPath>
</defs>
<g id="bg-layer" class="bg">
<use href="#p1"/>
<use href="#p2"/>
<use href="#p3"/>
<use href="#p4"/>
<use href="#p5"/>
</g>
<g id="anim-layer">
    <path id="stroke-p1" style="stroke:#FF4444" pathLength="3333" clip-path="url(#z21324c1)" d="M 77 523 L 148 542 L 867 458 L 965 491"/>
    <path id="stroke-p2" style="stroke:#FF4444" pathLength="3333" clip-path="url(#z21324c2)" d="M 241 226 L 293 273 L 272 593 L 209 740 L 91 855"/>
    <path id="stroke-p3" style="stroke:#000" pathLength="3333" clip-path="url(#z21324c3)" d="M 393 283 L 433 325 L 421 759"/>
    <path id="stroke-p4" style="stroke:#000" pathLength="3333" clip-path="url(#z21324c4)" d="M 538 259 L 585 305 L 571 790"/>
    <path id="stroke-p5" style="stroke:#000" pathLength="3333" clip-path="url(#z21324c5)" d="M 682 106 L 746 163 L 740 956"/>
</g>
</svg>