<svg id="z21338" class="acjk" viewBox="0 0 1024 1024" xmlns="http://www.w3.org/2000/svg">
<style>
<![CDATA[
svg.acjk path[clip-path] {
    animation-duration: 12.100000000000001s;
    animation-timing-function: linear;
    animation-iteration-count: infinite;
    stroke-dasharray: 3337;
    stroke-dashoffset: 3339;
    stroke-width: 128;
    stroke-linecap: round;
    fill: none;
    stroke: #FF4444;
}
svg.acjk .bg { fill: #ccc; opacity: 0.5; }

/* Stroke 1: Starts at 0.0%, finishes at 6.6%, holds until 79.3% */
@keyframes zk1 {
    0%, 0.0% { stroke-dashoffset: 3339; }
    6.6%, 79.3% { stroke-dashoffset: 0; }
    79.4%, 100% { stroke-dashoffset: 3339; }
}
svg.acjk #stroke-p1 { animation-name: zk1; }
/* Stroke 2: Starts at 6.6%, finishes at 13.2%, holds until 79.3% */
@keyframes zk2 {
    0%, 6.6% { stroke-dashoffset: 3339; }
    13.2%, 79.3% { stroke-dashoffset: 0; }
    79.4%, 100% { stroke-dashoffset: 3339; }
}
svg.acjk #stroke-p2 { animation-name: zk2; }
/* Stroke 3: Starts at 13.2%, finishes at 19.8%, holds until 79.3% */
@keyframes zk3 {
    0%, 13.2% { stroke-dashoffset: 3339; }
    19.8%, 79.3% { stroke-dashoffset: 0; }
    79.4%, 100% { stroke-dashoffset: 3339; }
}
svg.acjk #stroke-p3 { animation-name: zk3; }
/* Stroke 4: Starts at 19.8%, finishes at 26.4%, holds until 79.3% */
@keyframes zk4 {
    0%, 19.8% { stroke-dashoffset: 3339; }
    26.4%, 79.3% { stroke-dashoffset: 0; }
    79.4%, 100% { stroke-dashoffset: 3339; }
}
svg.acjk #stroke-p4 { animation-name: zk4; }
/* Stroke 5: Starts at 26.4%, finishes at 33.1%, holds until 79.3% */
@keyframes zk5 {
    0%, 26.4% { stroke-dashoffset: 3339; }
    33.1%, 79.3% { stroke-dashoffset: 0; }
    79.4%, 100% { stroke-dashoffset: 3339; }
}
svg.acjk #stroke-p5 { animation-name: zk5; }
/* Stroke 6: Starts at 33.1%, finishes at 39.7%, holds until 79.3% */
@keyframes zk6 {
    0%, 33.1% { stroke-dashoffset: 3339; }
    39.7%, 79.3% { stroke-dashoffset: 0; }
    79.4%, 100% { stroke-dashoffset: 3339; }
}
svg.acjk #stroke-p6 { animation-name: zk6; }
/* Stroke 7: Starts at 39.7%, finishes at 46.3%, holds until 79.3% */
@keyframes zk7 {
    0%, 39.7% { stroke-dashoffset: 3339; }
    46.3%, 79.3% { stroke-dashoffset: 0; }
    79.4%, 100% { stroke-dashoffset: 3339; }
}
svg.acjk #stroke-p7 { animation-name: zk7; }
/* Stroke 8: Starts at 46.3%, finishes at 52.9%, holds until 79.3% */
@keyframes zk8 {
    0%, 46.3% { stroke-dashoffset: 3339; }
    52.9%, 79.3% { stroke-dashoffset: 0; }
    79.4%, 100% { stroke-dashoffset: 3339; }
}
svg.acjk #stroke-p8 { animation-name: zk8; }
/* Stroke 9: Starts at 52.9%, finishes at 59.5%, holds until 79.3% */
@keyframes zk9 {
    0%, 52.9% { stroke-dashoffset: 3339; }
    59.5%, 79.3% { stroke-dashoffset: 0; }
    79.4%, 100% { stroke-dashoffset: 3339; }
}
svg.acjk #stroke-p9 { animation-name: zk9; }
/* Stroke 10: Starts at 59.5%, finishes at 66.1%, holds until 79.3% */
@keyframes zk10 {
    0%, 59.5% { stroke-dashoffset: 3339; }
    66.1%, 79.3% { stroke-dashoffset: 0; }
    79.4%, 100% { stroke-dashoffset: 3339; }
}
svg.acjk #stroke-p10 { animation-name: zk10; }
/* Stroke 11: Starts at 66.1%, finishes at 72.7%, holds until 79.3% */
@keyframes zk11 {
    0%, 66.1% { stroke-dashoffset: 3339; }
    72.7%, 79.3% { stroke-dashoffset: 0; }
    79.4%, 100% { stroke-dashoffset: 3339; }
}
svg.acjk #stroke-p11 { animation-name: zk11; }
/* Stroke 12: Starts at 72.7%, finishes at 79.3%, holds until 79.3% */
@keyframes zk12 {
    0%, 72.7% { stroke-dashoffset: 3339; }
    79.3%, 79.3% { stroke-dashoffset: 0; }
    79.4%, 100% { stroke-dashoffset: 3339; }
}
svg.acjk #stroke-p12 { animation-name: zk12; }
]]>
</style>
<defs>
    <path id="p1" d="M 281 389 Q 380 356 381 355 Q 388 348 384 339 Q 377 329 347 323 Q 317 320 283 337 C 250 350 250 350 233 356 Q 149 380 94 391 Q 60 400 86 414 Q 131 432 184 416 Q 206 409 233 403 C 265 394 265 394 281 389 Z"/>
    <path id="p2" d="M 202 783 Q 189 825 216 885 Q 222 904 230 907 Q 236 914 244 905 Q 271 889 272 823 Q 271 778 281 389 C 282 354 282 354 283 337 Q 284 252 302 192 Q 311 177 308 164 Q 301 154 246 119 Q 222 101 201 117 Q 197 121 202 138 Q 232 183 233 228 Q 233 288 233 356 C 233 387 233 387 233 403 Q 229 518 226 646 Q 222 716 202 783 Z"/>
    <path id="p3" d="M 617 183 Q 657 171 701 161 Q 735 151 740 147 Q 747 140 743 133 Q 736 124 713 119 Q 688 115 665 126 Q 643 135 620 143 C 581 154 581 154 562 160 Q 525 167 485 174 Q 457 180 478 192 Q 511 210 557 198 Q 558 197 563 197 C 599 188 599 188 617 183 Z"/>
    <path id="p4" d="M 446 289 Q 422 268 395 265 Q 389 264 386 269 Q 382 276 387 286 Q 421 337 420 468 Q 419 489 428 506 Q 441 522 456 532 Q 469 539 471 529 Q 483 517 470 440 Q 457 353 456 321 C 456 310 455 296 446 289 Z"/>
    <path id="p5" d="M 611 281 Q 722 253 742 263 Q 752 267 748 298 Q 733 412 725 434 Q 718 453 725 469 Q 731 485 744 483 Q 757 480 764 465 Q 776 450 794 376 Q 807 324 843 292 Q 861 276 844 260 Q 825 244 775 220 Q 762 213 685 233 Q 673 233 613 249 C 580 257 580 257 563 261 Q 547 264 534 268 Q 482 281 446 289 C 435 291 445 321 456 321 Q 463 321 471 319 Q 505 306 564 292 C 595 285 595 285 611 281 Z"/>
    <path id="p6" d="M 608 365 Q 642 355 677 350 Q 698 346 689 335 Q 679 322 656 320 Q 637 319 609 328 C 579 339 579 339 564 344 Q 533 354 505 364 Q 492 368 510 381 Q 514 384 564 375 C 593 368 593 368 608 365 Z"/>
    <path id="p7" d="M 604 449 Q 644 440 681 434 Q 700 430 693 419 Q 683 406 661 403 Q 639 402 606 413 C 577 422 577 422 563 427 Q 532 436 506 444 Q 491 448 510 461 Q 517 467 536 463 Q 549 459 564 457 C 591 452 591 452 604 449 Z"/>
    <path id="p8" d="M 564 457 Q 564 511 574 530 Q 586 542 594 525 Q 600 507 604 449 C 605 425 605 425 606 413 Q 606 391 608 365 C 609 340 609 340 609 328 Q 609 304 611 281 C 612 260 612 260 613 249 Q 614 212 617 183 C 619 156 619 156 620 143 Q 626 106 634 96 Q 640 83 623 70 Q 604 54 568 45 Q 552 41 542 52 Q 533 59 544 68 Q 560 81 562 101 Q 562 125 562 160 C 563 185 563 185 563 197 Q 563 225 563 261 C 564 282 564 282 564 292 Q 564 320 564 344 C 564 365 564 365 564 375 Q 564 400 563 427 C 564 447 564 447 564 457 Z"/>
    <path id="p9" d="M 761 111 Q 797 151 827 165 Q 840 166 848 155 Q 852 145 850 129 Q 844 110 828 98 Q 806 83 772 77 Q 757 73 749 77 Q 743 78 746 89 Q 747 99 761 111 Z"/>
    <path id="p10" d="M 725 607 Q 797 600 887 600 Q 954 600 960 590 Q 964 580 949 566 Q 892 527 839 543 Q 791 552 731 566 C 690 573 690 573 669 576 Q 645 579 620 584 Q 484 603 324 626 Q 303 629 319 645 Q 332 658 350 663 Q 371 667 386 663 Q 551 615 670 612 C 707 609 707 609 725 607 Z"/>
    <path id="p11" d="M 639 848 Q 606 841 575 833 Q 562 830 563 838 Q 564 845 574 854 Q 643 920 666 959 Q 681 977 697 962 Q 736 922 735 853 Q 725 744 724 613 Q 724 610 725 607 C 729 580 729 580 731 566 Q 732 556 737 547 Q 746 528 728 514 Q 701 492 670 481 Q 651 474 642 483 Q 636 490 647 505 Q 666 539 669 576 C 670 600 670 600 670 612 Q 682 829 660 846 Q 653 853 639 848 Z"/>
    <path id="p12" d="M 501 714 Q 517 733 534 756 Q 546 769 560 771 Q 570 771 577 759 Q 583 746 578 716 Q 572 692 501 668 Q 486 664 480 665 Q 476 668 475 681 Q 476 691 501 714 Z"/>

    <clipPath id="z21338c1"><use href="#p1"/></clipPath>
    <clipPath id="z21338c2"><use href="#p2"/></clipPath>
    <clipPath id="z21338c3"><use href="#p3"/></clipPath>
    <clipPath id="z21338c4"><use href="#p4"/></clipPath>
    <clipPath id="z21338c5"><use href="#p5"/></clipPath>
    <clipPath id="z21338c6"><use href="#p6"/></clipPath>
    <clipPath id="z21338c7"><use href="#p7"/></clipPath>
    <clipPath id="z21338c8"><use href="#p8"/></clipPath>
    <clipPath id="z21338c9"><use href="#p9"/></clipPath>
    <clipPath id="z21338c10"><use href="#p10"/></clipPath>
    <clipPath id="z21338c11"><use href="#p11"/></clipPath>
    <clipPath id="z21338c12"><use href="#p12"/></clipPath>
</defs>
<g id="bg-layer" class="bg">
<use href="#p1"/>
<use href="#p2"/>
<use href="#p3"/>
<use href="#p4"/>
<use href="#p5"/>
<use href="#p6"/>
<use href="#p7"/>
<use href="#p8"/>
<use href="#p9"/>
<use href="#p10"/>
<use href="#p11"/>
<use href="#p12"/>
</g>
<g id="anim-layer">
    <path id="stroke-p1" style="stroke:#FF4444" pathLength="3333" clip-path="url(#z21338c1)" d="M 81 402 L 379 338"/>
    <path id="stroke-p2" style="stroke:#FF4444" pathLength="3333" clip-path="url(#z21338c2)" d="M 205 119 L 269 184 L 236 906"/>
    <path id="stroke-p3" style="stroke:#000" pathLength="3333" clip-path="url(#z21338c3)" d="M 479 182 L 737 135"/>
    <path id="stroke-p4" style="stroke:#000" pathLength="3333" clip-path="url(#z21338c4)" d="M 391 269 L 428 315 L 455 529"/>
    <path id="stroke-p5" style="stroke:#000" pathLength="3333" clip-path="url(#z21338c5)" d="M 454 296 L 732 240 L 780 255 L 800 280 L 742 479"/>
    <path id="stroke-p6" style="stroke:#000" pathLength="3333" clip-path="url(#z21338c6)" d="M 507 371 L 684 339"/>
    <path id="stroke-p7" style="stroke:#000" pathLength="3333" clip-path="url(#z21338c7)" d="M 505 450 L 688 424"/>
    <path id="stroke-p8" style="stroke:#000" pathLength="3333" clip-path="url(#z21338c8)" d="M 542 57 L 598 92 L 585 529"/>
    <path id="stroke-p9" style="stroke:#000" pathLength="3333" clip-path="url(#z21338c9)" d="M 752 87 L 846 154"/>
    <path id="stroke-p10" style="stroke:#000" pathLength="3333" clip-path="url(#z21338c10)" d="M 319 635 L 862 569 L 956 579"/>
    <path id="stroke-p11" style="stroke:#000" pathLength="3333" clip-path="url(#z21338c11)" d="M 647 487 L 702 541 L 695 873 L 668 915 L 569 839"/>
    <path id="stroke-p12" style="stroke:#000" pathLength="3333" clip-path="url(#z21338c12)" d="M 484 669 L 565 766"/>
</g>
</svg>