<svg id="z21387" class="acjk" viewBox="0 0 1024 1024" xmlns="http://www.w3.org/2000/svg">
<style>
<![CDATA[
svg.acjk path[clip-path] {
    animation-duration: 7.300000000000001s;
    animation-timing-function: linear;
    animation-iteration-count: infinite;
    stroke-dasharray: 3337;
    stroke-dashoffset: 3339;
    stroke-width: 128;
    stroke-linecap: round;
    fill: none;
    stroke: #FF4444;
}
svg.acjk .bg { fill: #ccc; opacity: 0.5; }

/* Stroke 1: Starts at 0.0%, finishes at 11.0%, holds until 65.8% */
@keyframes zk1 {
    0%, 0.0% { stroke-dashoffset: 3339; }
    11.0%, 65.8% { stroke-dashoffset: 0; }
    65.9%, 100% { stroke-dashoffset: 3339; }
}
svg.acjk #stroke-p1 { animation-name: zk1; }
/* Stroke 2: Starts at 11.0%, finishes at 21.9%, holds until 65.8% */
@keyframes zk2 {
    0%, 11.0% { stroke-dashoffset: 3339; }
    21.9%, 65.8% { stroke-dashoffset: 0; }
    65.9%, 100% { stroke-dashoffset: 3339; }
}
svg.acjk #stroke-p2 { animation-name: zk2; }
/* Stroke 3: Starts at 21.9%, finishes at 32.9%, holds until 65.8% */
@keyframes zk3 {
    0%, 21.9% { stroke-dashoffset: 3339; }
    32.9%, 65.8% { stroke-dashoffset: 0; }
    65.9%, 100% { stroke-dashoffset: 3339; }
}
svg.acjk #stroke-p3 { animation-name: zk3; }
/* Stroke 4: Starts at 32.9%, finishes at 43.8%, holds until 65.8% */
@keyframes zk4 {
    0%, 32.9% { stroke-dashoffset: 3339; }
    43.8%, 65.8% { stroke-dashoffset: 0; }
    65.9%, 100% { stroke-dashoffset: 3339; }
}
svg.acjk #stroke-p4 { animation-name: zk4; }
/* Stroke 5: Starts at 43.8%, finishes at 54.8%, holds until 65.8% */
@keyframes zk5 {
    0%, 43.8% { stroke-dashoffset: 3339; }
    54.8%, 65.8% { stroke-dashoffset: 0; }
    65.9%, 100% { stroke-dashoffset: 3339; }
}
svg.acjk #stroke-p5 { animation-name: zk5; }
/* Stroke 6: Starts at 54.8%, finishes at 65.8%, holds until 65.8% */
@keyframes zk6 {
    0%, 54.8% { stroke-dashoffset: 3339; }
    65.8%, 65.8% { stroke-dashoffset: 0; }
    65.9%, 100% { stroke-dashoffset: 3339; }
}
svg.acjk #stroke-p6 { animation-name: zk6; }
]]>
</style>
<defs>
    <path id="p1" d="M 333 226 Q 370 241 421 232 Q 553 208 690 184 Q 753 171 762 163 Q 772 154 767 145 Q 760 132 729 123 Q 696 116 595 148 Q 460 182 334 193 C 323 195 323 222 333 226 Z"/>
    <path id="p2" d="M 334 193 Q 318 175 286 161 Q 267 149 253 154 Q 240 161 247 176 Q 265 203 262 273 Q 241 463 225 528 Q 213 570 200 609 Q 154 723 72 844 Q 66 851 64 857 Q 61 869 72 866 Q 102 860 182 749 Q 203 716 222 678 Q 294 528 316 331 Q 325 244 333 226 C 337 216 341 202 334 193 Z"/>
    <path id="p3" d="M 573 533 Q 633 521 696 512 Q 753 500 762 493 Q 771 486 767 476 Q 760 464 730 455 Q 700 448 668 459 Q 622 472 575 485 C 541 492 541 492 524 496 Q 448 509 363 515 Q 326 519 352 538 Q 394 563 465 550 Q 493 544 524 541 C 557 536 557 536 573 533 Z"/>
    <path id="p4" d="M 562 756 Q 568 641 573 533 C 574 501 574 501 575 485 Q 575 443 596 328 Q 600 316 579 301 Q 542 282 517 277 Q 501 273 492 282 Q 485 291 493 306 Q 520 346 520 372 Q 523 432 524 496 C 524 526 524 526 524 541 Q 524 644 518 761 C 518 776 562 771 562 756 Z"/>
    <path id="p5" d="M 518 761 Q 397 774 258 788 Q 236 789 252 809 Q 268 825 287 831 Q 311 838 328 833 Q 482 796 810 796 Q 828 796 847 797 Q 869 798 874 788 Q 881 775 863 760 Q 805 715 764 724 Q 688 737 562 756 C 533 759 533 759 518 761 Z"/>
    <path id="p6" d="M 780 620 Q 811 651 844 688 Q 854 701 869 702 Q 879 703 885 691 Q 891 678 885 650 Q 878 611 780 576 Q 767 572 760 573 Q 756 576 755 588 Q 758 598 780 620 Z"/>

    <clipPath id="z21387c1"><use href="#p1"/></clipPath>
    <clipPath id="z21387c2"><use href="#p2"/></clipPath>
    <clipPath id="z21387c3"><use href="#p3"/></clipPath>
    <clipPath id="z21387c4"><use href="#p4"/></clipPath>
    <clipPath id="z21387c5"><use href="#p5"/></clipPath>
    <clipPath id="z21387c6"><use href="#p6"/></clipPath>
</defs>
<g id="bg-layer" class="bg">
<use href="#p1"/>
<use href="#p2"/>
<use href="#p3"/>
<use href="#p4"/>
<use href="#p5"/>
<use href="#p6"/>
</g>
<g id="anim-layer">
    <path id="stroke-p1" style="stroke:#FF4444" pathLength="3333" clip-path="url(#z21387c1)" d="M 338 220 L 764 150"/>
    <path id="stroke-p2" style="stroke:#FF4444" pathLength="3333" clip-path="url(#z21387c2)" d="M 250 160 L 297 209 L 250 534 L 187 695 L 73 859"/>
    <path id="stroke-p3" style="stroke:#000" pathLength="3333" clip-path="url(#z21387c3)" d="M 348 525 L 452 529 L 761 479"/>
    <path id="stroke-p4" style="stroke:#000" pathLength="3333" clip-path="url(#z21387c4)" d="M 497 289 L 556 348 L 529 759"/>
    <path id="stroke-p5" style="stroke:#000" pathLength="3333" clip-path="url(#z21387c5)" d="M 251 797 L 303 809 L 771 759 L 871 775"/>
    <path id="stroke-p6" style="stroke:#000" pathLength="3333" clip-path="url(#z21387c6)" d="M 764 581 L 848 647 L 875 698"/>
</g>
</svg>