<svg id="z21534" class="acjk" viewBox="0 0 1024 1024" xmlns="http://www.w3.org/2000/svg">
<style>
<![CDATA[
svg.acjk path[clip-path] {
    animation-duration: 8.100000000000001s;
    animation-timing-function: linear;
    animation-iteration-count: infinite;
    stroke-dasharray: 3337;
    stroke-dashoffset: 3339;
    stroke-width: 128;
    stroke-linecap: round;
    fill: none;
    stroke: #FF4444;
}
svg.acjk .bg { fill: #ccc; opacity: 0.5; }

/* Stroke 1: Starts at 0.0%, finishes at 9.9%, holds until 69.1% */
@keyframes zk1 {
    0%, 0.0% { stroke-dashoffset: 3339; }
    9.9%, 69.1% { stroke-dashoffset: 0; }
    69.2%, 100% { stroke-dashoffset: 3339; }
}
svg.acjk #stroke-p1 { animation-name: zk1; }
/* Stroke 2: Starts at 9.9%, finishes at 19.8%, holds until 69.1% */
@keyframes zk2 {
    0%, 9.9% { stroke-dashoffset: 3339; }
    19.8%, 69.1% { stroke-dashoffset: 0; }
    69.2%, 100% { stroke-dashoffset: 3339; }
}
svg.acjk #stroke-p2 { animation-name: zk2; }
/* Stroke 3: Starts at 19.8%, finishes at 29.6%, holds until 69.1% */
@keyframes zk3 {
    0%, 19.8% { stroke-dashoffset: 3339; }
    29.6%, 69.1% { stroke-dashoffset: 0; }
    69.2%, 100% { stroke-dashoffset: 3339; }
}
svg.acjk #stroke-p3 { animation-name: zk3; }
/* Stroke 4: Starts at 29.6%, finishes at 39.5%, holds until 69.1% */
@keyframes zk4 {
    0%, 29.6% { stroke-dashoffset: 3339; }
    39.5%, 69.1% { stroke-dashoffset: 0; }
    69.2%, 100% { stroke-dashoffset: 3339; }
}
svg.acjk #stroke-p4 { animation-name: zk4; }
/* Stroke 5: Starts at 39.5%, finishes at 49.4%, holds until 69.1% */
@keyframes zk5 {
    0%, 39.5% { stroke-dashoffset: 3339; }
    49.4%, 69.1% { stroke-dashoffset: 0; }
    69.2%, 100% { stroke-dashoffset: 3339; }
}
svg.acjk #stroke-p5 { animation-name: zk5; }
/* Stroke 6: Starts at 49.4%, finishes at 59.3%, holds until 69.1% */
@keyframes zk6 {
    0%, 49.4% { stroke-dashoffset: 3339; }
    59.3%, 69.1% { stroke-dashoffset: 0; }
    69.2%, 100% { stroke-dashoffset: 3339; }
}
svg.acjk #stroke-p6 { animation-name: zk6; }
/* Stroke 7: Starts at 59.3%, finishes at 69.1%, holds until 69.1% */
@keyframes zk7 {
    0%, 59.3% { stroke-dashoffset: 3339; }
    69.1%, 69.1% { stroke-dashoffset: 0; }
    69.2%, 100% { stroke-dashoffset: 3339; }
}
svg.acjk #stroke-p7 { animation-name: zk7; }
]]>
</style>
<defs>
    <path id="p1" d="M 476 191 Q 680 146 687 141 Q 696 134 691 124 Q 684 112 654 104 Q 623 98 525 132 Q 354 163 334 166 Q 297 173 323 190 Q 363 211 438 198 C 463 193 463 193 476 191 Z"/>
    <path id="p2" d="M 572 388 Q 671 379 845 380 Q 866 380 871 371 Q 877 358 859 343 Q 796 297 735 317 Q 639 335 487 357 Q 474 358 461 361 C 422 366 422 366 402 369 Q 282 382 149 400 Q 127 403 144 421 Q 159 436 178 442 Q 200 448 218 442 Q 296 420 383 409 C 422 404 422 404 442 401 Q 446 395 538 390 C 561 389 561 389 572 388 Z"/>
    <path id="p3" d="M 461 361 Q 488 295 519 246 Q 528 236 522 225 Q 509 201 476 191 C 464 186 438 185 438 198 Q 437 199 438 203 Q 441 273 402 369 C 389 396 389 396 383 409 Q 290 559 120 690 Q 98 705 72 725 Q 65 732 71 736 Q 78 739 91 735 Q 179 699 254 640 Q 365 559 442 401 C 455 374 455 374 461 361 Z"/>
    <path id="p4" d="M 538 390 Q 539 391 543 396 Q 736 634 791 650 Q 869 662 965 647 Q 984 646 987 640 Q 990 633 974 626 Q 922 604 860 583 Q 733 535 572 388 C 563 381 531 381 538 390 Z"/>
    <path id="p5" d="M 354 655 Q 341 649 307 643 Q 294 640 291 645 Q 284 652 293 669 Q 326 736 344 848 Q 348 882 367 904 Q 386 926 391 910 Q 395 895 395 873 C 392 847 392 847 390 834 Q 371 726 366 690 C 364 678 365 660 354 655 Z"/>
    <path id="p6" d="M 660 809 Q 687 713 726 681 Q 744 662 729 642 Q 711 627 656 601 Q 637 592 614 601 Q 515 637 354 655 C 342 657 354 692 366 690 Q 609 651 614 652 Q 620 653 624 658 Q 636 668 633 692 Q 623 752 609 802 C 604 818 657 826 660 809 Z"/>
    <path id="p7" d="M 395 873 Q 401 873 409 872 Q 494 857 676 850 Q 689 849 690 839 Q 691 830 660 809 C 646 799 626 802 609 802 Q 608 801 605 802 Q 484 826 390 834 C 377 834 382 873 395 873 Z"/>

    <clipPath id="z21534c1"><use href="#p1"/></clipPath>
    <clipPath id="z21534c2"><use href="#p2"/></clipPath>
    <clipPath id="z21534c3"><use href="#p3"/></clipPath>
    <clipPath id="z21534c4"><use href="#p4"/></clipPath>
    <clipPath id="z21534c5"><use href="#p5"/></clipPath>
    <clipPath id="z21534c6"><use href="#p6"/></clipPath>
    <clipPath id="z21534c7"><use href="#p7"/></clipPath>
</defs>
<g id="bg-layer" class="bg">
<use href="#p1"/>
<use href="#p2"/>
<use href="#p3"/>
<use href="#p4"/>
<use href="#p5"/>
<use href="#p6"/>
<use href="#p7"/>
</g>
<g id="anim-layer">
    <path id="stroke-p1" style="stroke:#FF4444" pathLength="3333" clip-path="url(#z21534c1)" d="M 319 178 L 686 125"/>
    <path id="stroke-p2" style="stroke:#FF4444" pathLength="3333" clip-path="url(#z21534c2)" d="M 145 409 L 211 418 L 753 346 L 868 361"/>
    <path id="stroke-p3" style="stroke:#FF4444" pathLength="3333" clip-path="url(#z21534c3)" d="M 445 206 L 479 246 L 359 490 L 247 614 L 73 729"/>
    <path id="stroke-p4" style="stroke:#FF4444" pathLength="3333" clip-path="url(#z21534c4)" d="M 550 395 L 789 599 L 978 635"/>
    <path id="stroke-p5" style="stroke:#000" pathLength="3333" clip-path="url(#z21534c5)" d="M 295 649 L 337 697 L 381 910"/>
    <path id="stroke-p6" style="stroke:#000" pathLength="3333" clip-path="url(#z21534c6)" d="M 362 659 L 642 630 L 684 671 L 632 805"/>
    <path id="stroke-p7" style="stroke:#000" pathLength="3333" clip-path="url(#z21534c7)" d="M 398 840 L 685 838"/>
</g>
</svg>