<svg id="z21563" class="acjk" viewBox="0 0 1024 1024" xmlns="http://www.w3.org/2000/svg">
<style>
<![CDATA[
svg.acjk path[clip-path] {
    animation-duration: 8.100000000000001s;
    animation-timing-function: linear;
    animation-iteration-count: infinite;
    stroke-dasharray: 3337;
    stroke-dashoffset: 3339;
    stroke-width: 128;
    stroke-linecap: round;
    fill: none;
    stroke: #FF4444;
}
svg.acjk .bg { fill: #ccc; opacity: 0.5; }

/* Stroke 1: Starts at 0.0%, finishes at 9.9%, holds until 69.1% */
@keyframes zk1 {
    0%, 0.0% { stroke-dashoffset: 3339; }
    9.9%, 69.1% { stroke-dashoffset: 0; }
    69.2%, 100% { stroke-dashoffset: 3339; }
}
svg.acjk #stroke-p1 { animation-name: zk1; }
/* Stroke 2: Starts at 9.9%, finishes at 19.8%, holds until 69.1% */
@keyframes zk2 {
    0%, 9.9% { stroke-dashoffset: 3339; }
    19.8%, 69.1% { stroke-dashoffset: 0; }
    69.2%, 100% { stroke-dashoffset: 3339; }
}
svg.acjk #stroke-p2 { animation-name: zk2; }
/* Stroke 3: Starts at 19.8%, finishes at 29.6%, holds until 69.1% */
@keyframes zk3 {
    0%, 19.8% { stroke-dashoffset: 3339; }
    29.6%, 69.1% { stroke-dashoffset: 0; }
    69.2%, 100% { stroke-dashoffset: 3339; }
}
svg.acjk #stroke-p3 { animation-name: zk3; }
/* Stroke 4: Starts at 29.6%, finishes at 39.5%, holds until 69.1% */
@keyframes zk4 {
    0%, 29.6% { stroke-dashoffset: 3339; }
    39.5%, 69.1% { stroke-dashoffset: 0; }
    69.2%, 100% { stroke-dashoffset: 3339; }
}
svg.acjk #stroke-p4 { animation-name: zk4; }
/* Stroke 5: Starts at 39.5%, finishes at 49.4%, holds until 69.1% */
@keyframes zk5 {
    0%, 39.5% { stroke-dashoffset: 3339; }
    49.4%, 69.1% { stroke-dashoffset: 0; }
    69.2%, 100% { stroke-dashoffset: 3339; }
}
svg.acjk #stroke-p5 { animation-name: zk5; }
/* Stroke 6: Starts at 49.4%, finishes at 59.3%, holds until 69.1% */
@keyframes zk6 {
    0%, 49.4% { stroke-dashoffset: 3339; }
    59.3%, 69.1% { stroke-dashoffset: 0; }
    69.2%, 100% { stroke-dashoffset: 3339; }
}
svg.acjk #stroke-p6 { animation-name: zk6; }
/* Stroke 7: Starts at 59.3%, finishes at 69.1%, holds until 69.1% */
@keyframes zk7 {
    0%, 59.3% { stroke-dashoffset: 3339; }
    69.1%, 69.1% { stroke-dashoffset: 0; }
    69.2%, 100% { stroke-dashoffset: 3339; }
}
svg.acjk #stroke-p7 { animation-name: zk7; }
]]>
</style>
<defs>
    <path id="p1" d="M 163 336 Q 150 329 120 322 Q 107 318 103 323 Q 96 329 104 347 Q 132 420 144 536 Q 145 570 164 595 Q 180 619 188 603 Q 197 581 193 542 C 191 520 191 520 190 509 Q 177 392 175 363 C 175 353 172 340 163 336 Z"/>
    <path id="p2" d="M 328 482 Q 344 385 370 355 Q 392 330 368 316 Q 307 283 299 284 Q 292 285 284 290 Q 251 311 163 336 C 154 340 166 366 175 363 Q 174 362 176 362 Q 221 349 260 340 Q 285 333 292 344 Q 302 351 294 392 Q 287 434 279 482 C 276 498 325 498 328 482 Z"/>
    <path id="p3" d="M 193 542 Q 214 530 343 513 Q 353 512 353 503 Q 353 496 328 482 C 314 474 294 476 279 482 Q 230 498 190 509 C 179 511 183 546 193 542 Z"/>
    <path id="p4" d="M 488 348 Q 492 338 501 328 Q 538 276 578 196 Q 594 159 610 140 Q 619 128 612 115 Q 606 102 574 82 Q 543 66 524 68 Q 505 72 516 94 Q 529 116 524 137 Q 508 207 475 276 Q 444 342 399 415 Q 390 427 388 434 Q 387 446 401 441 Q 423 435 474 366 C 479 360 485 355 488 348 Z"/>
    <path id="p5" d="M 712 342 Q 758 332 786 332 Q 801 331 806 338 Q 824 381 787 607 Q 763 713 726 779 Q 707 813 685 813 Q 670 816 593 782 Q 583 778 583 784 Q 582 788 593 799 Q 636 851 655 887 Q 665 909 680 909 Q 701 912 723 892 Q 801 832 833 685 Q 855 583 875 425 Q 879 389 903 363 Q 918 350 917 341 Q 916 332 896 318 Q 868 296 831 283 Q 806 274 750 293 Q 729 297 703 305 Q 594 332 488 348 C 481 349 467 365 474 366 Q 499 373 525 373 C 550 370 550 370 562 368 Q 613 359 659 351 C 694 345 694 345 712 342 Z"/>
    <path id="p6" d="M 525 373 Q 537 400 503 466 Q 472 538 382 635 Q 376 639 376 645 Q 376 649 381 649 Q 453 634 561 463 Q 561 457 588 420 Q 595 410 588 398 Q 575 379 562 368 C 553 359 520 361 525 373 Z"/>
    <path id="p7" d="M 659 351 Q 680 543 436 769 Q 418 784 399 802 Q 392 809 398 813 Q 405 814 416 810 Q 486 776 544 722 Q 644 637 710 442 Q 722 411 737 381 Q 744 371 738 361 Q 732 354 712 342 C 697 333 659 333 659 351 Z"/>

    <clipPath id="z21563c1"><use href="#p1"/></clipPath>
    <clipPath id="z21563c2"><use href="#p2"/></clipPath>
    <clipPath id="z21563c3"><use href="#p3"/></clipPath>
    <clipPath id="z21563c4"><use href="#p4"/></clipPath>
    <clipPath id="z21563c5"><use href="#p5"/></clipPath>
    <clipPath id="z21563c6"><use href="#p6"/></clipPath>
    <clipPath id="z21563c7"><use href="#p7"/></clipPath>
</defs>
<g id="bg-layer" class="bg">
<use href="#p1"/>
<use href="#p2"/>
<use href="#p3"/>
<use href="#p4"/>
<use href="#p5"/>
<use href="#p6"/>
<use href="#p7"/>
</g>
<g id="anim-layer">
    <path id="stroke-p1" style="stroke:#FF4444" pathLength="3333" clip-path="url(#z21563c1)" d="M 107 326 L 144 368 L 175 604"/>
    <path id="stroke-p2" style="stroke:#FF4444" pathLength="3333" clip-path="url(#z21563c2)" d="M 171 340 L 295 312 L 334 337 L 291 480"/>
    <path id="stroke-p3" style="stroke:#FF4444" pathLength="3333" clip-path="url(#z21563c3)" d="M 195 534 L 348 501"/>
    <path id="stroke-p4" style="stroke:#000" pathLength="3333" clip-path="url(#z21563c4)" d="M 520 72 L 567 137 L 506 273 L 398 435"/>
    <path id="stroke-p5" style="stroke:#000" pathLength="3333" clip-path="url(#z21563c5)" d="M 480 363 L 796 306 L 866 359 L 804 670 L 749 809 L 678 861 L 588 788"/>
    <path id="stroke-p6" style="stroke:#000" pathLength="3333" clip-path="url(#z21563c6)" d="M 532 379 L 556 417 L 525 475 L 385 640"/>
    <path id="stroke-p7" style="stroke:#000" pathLength="3333" clip-path="url(#z21563c7)" d="M 666 360 L 700 391 L 618 592 L 510 725 L 402 807"/>
</g>
</svg>