<svg id="z21624" class="acjk" viewBox="0 0 1024 1024" xmlns="http://www.w3.org/2000/svg">
<style>
<![CDATA[
svg.acjk path[clip-path] {
    animation-duration: 8.9s;
    animation-timing-function: linear;
    animation-iteration-count: infinite;
    stroke-dasharray: 3337;
    stroke-dashoffset: 3339;
    stroke-width: 128;
    stroke-linecap: round;
    fill: none;
    stroke: #FF4444;
}
svg.acjk .bg { fill: #ccc; opacity: 0.5; }

/* Stroke 1: Starts at 0.0%, finishes at 9.0%, holds until 71.9% */
@keyframes zk1 {
    0%, 0.0% { stroke-dashoffset: 3339; }
    9.0%, 71.9% { stroke-dashoffset: 0; }
    72.0%, 100% { stroke-dashoffset: 3339; }
}
svg.acjk #stroke-p1 { animation-name: zk1; }
/* Stroke 2: Starts at 9.0%, finishes at 18.0%, holds until 71.9% */
@keyframes zk2 {
    0%, 9.0% { stroke-dashoffset: 3339; }
    18.0%, 71.9% { stroke-dashoffset: 0; }
    72.0%, 100% { stroke-dashoffset: 3339; }
}
svg.acjk #stroke-p2 { animation-name: zk2; }
/* Stroke 3: Starts at 18.0%, finishes at 27.0%, holds until 71.9% */
@keyframes zk3 {
    0%, 18.0% { stroke-dashoffset: 3339; }
    27.0%, 71.9% { stroke-dashoffset: 0; }
    72.0%, 100% { stroke-dashoffset: 3339; }
}
svg.acjk #stroke-p3 { animation-name: zk3; }
/* Stroke 4: Starts at 27.0%, finishes at 36.0%, holds until 71.9% */
@keyframes zk4 {
    0%, 27.0% { stroke-dashoffset: 3339; }
    36.0%, 71.9% { stroke-dashoffset: 0; }
    72.0%, 100% { stroke-dashoffset: 3339; }
}
svg.acjk #stroke-p4 { animation-name: zk4; }
/* Stroke 5: Starts at 36.0%, finishes at 44.9%, holds until 71.9% */
@keyframes zk5 {
    0%, 36.0% { stroke-dashoffset: 3339; }
    44.9%, 71.9% { stroke-dashoffset: 0; }
    72.0%, 100% { stroke-dashoffset: 3339; }
}
svg.acjk #stroke-p5 { animation-name: zk5; }
/* Stroke 6: Starts at 44.9%, finishes at 53.9%, holds until 71.9% */
@keyframes zk6 {
    0%, 44.9% { stroke-dashoffset: 3339; }
    53.9%, 71.9% { stroke-dashoffset: 0; }
    72.0%, 100% { stroke-dashoffset: 3339; }
}
svg.acjk #stroke-p6 { animation-name: zk6; }
/* Stroke 7: Starts at 53.9%, finishes at 62.9%, holds until 71.9% */
@keyframes zk7 {
    0%, 53.9% { stroke-dashoffset: 3339; }
    62.9%, 71.9% { stroke-dashoffset: 0; }
    72.0%, 100% { stroke-dashoffset: 3339; }
}
svg.acjk #stroke-p7 { animation-name: zk7; }
/* Stroke 8: Starts at 62.9%, finishes at 71.9%, holds until 71.9% */
@keyframes zk8 {
    0%, 62.9% { stroke-dashoffset: 3339; }
    71.9%, 71.9% { stroke-dashoffset: 0; }
    72.0%, 100% { stroke-dashoffset: 3339; }
}
svg.acjk #stroke-p8 { animation-name: zk8; }
]]>
</style>
<defs>
    <path id="p1" d="M 123 348 Q 113 341 81 335 Q 68 331 65 336 Q 58 342 66 358 Q 97 434 111 558 Q 112 595 132 620 Q 148 642 155 627 Q 162 606 160 570 C 157 547 157 547 155 536 Q 136 415 134 378 C 134 367 133 353 123 348 Z"/>
    <path id="p2" d="M 300 505 Q 310 400 335 366 Q 357 338 331 325 Q 310 315 281 299 Q 262 290 218 316 Q 161 338 123 348 C 113 350 123 380 134 378 Q 143 377 154 373 Q 191 363 224 355 Q 246 349 251 358 Q 260 364 248 507 C 248 524 300 522 300 505 Z"/>
    <path id="p3" d="M 160 570 Q 199 557 318 539 Q 328 538 329 528 Q 329 521 300 505 C 285 496 264 502 248 507 Q 194 525 155 536 C 144 540 149 574 160 570 Z"/>
    <path id="p4" d="M 667 229 Q 706 220 827 206 Q 839 207 849 193 Q 850 180 825 169 Q 783 145 704 172 Q 599 194 405 225 Q 374 229 397 248 Q 433 276 465 268 Q 531 253 612 239 C 649 232 649 232 667 229 Z"/>
    <path id="p5" d="M 588 421 Q 669 295 689 277 Q 696 273 696 262 Q 693 244 667 229 C 651 219 612 220 612 239 Q 612 287 555 387 C 541 409 541 409 534 420 Q 444 540 331 637 Q 283 676 218 728 Q 209 732 220 736 Q 296 727 445 593 Q 502 533 551 472 C 576 438 576 438 588 421 Z"/>
    <path id="p6" d="M 551 472 Q 557 581 538 673 Q 526 722 561 763 C 562 764 562 764 562 765 Q 578 780 590 755 Q 603 716 603 673 Q 599 507 603 469 Q 610 444 601 434 Q 594 427 588 421 C 566 398 566 398 555 387 Q 549 383 544 381 Q 534 380 530 386 Q 524 399 534 420 C 541 437 551 454 551 472 Z"/>
    <path id="p7" d="M 700 490 Q 781 547 879 631 Q 897 650 913 652 Q 922 652 929 641 Q 939 626 922 583 Q 903 523 698 458 Q 688 454 688 467 Q 688 480 700 490 Z"/>
    <path id="p8" d="M 354 848 Q 332 851 348 869 Q 363 884 382 890 Q 404 897 422 892 Q 626 846 836 864 Q 858 864 863 855 Q 869 842 851 827 Q 788 779 727 799 Q 526 827 354 848 Z"/>

    <clipPath id="z21624c1"><use href="#p1"/></clipPath>
    <clipPath id="z21624c2"><use href="#p2"/></clipPath>
    <clipPath id="z21624c3"><use href="#p3"/></clipPath>
    <clipPath id="z21624c4"><use href="#p4"/></clipPath>
    <clipPath id="z21624c5"><use href="#p5"/></clipPath>
    <clipPath id="z21624c6"><use href="#p6"/></clipPath>
    <clipPath id="z21624c7"><use href="#p7"/></clipPath>
    <clipPath id="z21624c8"><use href="#p8"/></clipPath>
</defs>
<g id="bg-layer" class="bg">
<use href="#p1"/>
<use href="#p2"/>
<use href="#p3"/>
<use href="#p4"/>
<use href="#p5"/>
<use href="#p6"/>
<use href="#p7"/>
<use href="#p8"/>
</g>
<g id="anim-layer">
    <path id="stroke-p1" style="stroke:#FF4444" pathLength="3333" clip-path="url(#z21624c1)" d="M 68 338 L 101 363 L 143 624"/>
    <path id="stroke-p2" style="stroke:#FF4444" pathLength="3333" clip-path="url(#z21624c2)" d="M 122 359 L 257 326 L 297 350 L 269 517"/>
    <path id="stroke-p3" style="stroke:#FF4444" pathLength="3333" clip-path="url(#z21624c3)" d="M 152 559 L 320 522"/>
    <path id="stroke-p4" style="stroke:#000" pathLength="3333" clip-path="url(#z21624c4)" d="M 393 232 L 447 244 L 746 188 L 844 190"/>
    <path id="stroke-p5" style="stroke:#000" pathLength="3333" clip-path="url(#z21624c5)" d="M 621 230 L 650 270 L 549 438 L 395 609 L 223 730"/>
    <path id="stroke-p6" style="stroke:#000" pathLength="3333" clip-path="url(#z21624c6)" d="M 537 390 L 578 454 L 573 766"/>
    <path id="stroke-p7" style="stroke:#000" pathLength="3333" clip-path="url(#z21624c7)" d="M 695 462 L 875 578 L 920 645"/>
    <path id="stroke-p8" style="stroke:#000" pathLength="3333" clip-path="url(#z21624c8)" d="M 346 855 L 402 868 L 758 826 L 859 840"/>
</g>
</svg>