<svg id="z21715" class="acjk" viewBox="0 0 1024 1024" xmlns="http://www.w3.org/2000/svg">
<style>
<![CDATA[
svg.acjk path[clip-path] {
    animation-duration: 9.7s;
    animation-timing-function: linear;
    animation-iteration-count: infinite;
    stroke-dasharray: 3337;
    stroke-dashoffset: 3339;
    stroke-width: 128;
    stroke-linecap: round;
    fill: none;
    stroke: #FF4444;
}
svg.acjk .bg { fill: #ccc; opacity: 0.5; }

/* Stroke 1: Starts at 0.0%, finishes at 8.2%, holds until 74.2% */
@keyframes zk1 {
    0%, 0.0% { stroke-dashoffset: 3339; }
    8.2%, 74.2% { stroke-dashoffset: 0; }
    74.3%, 100% { stroke-dashoffset: 3339; }
}
svg.acjk #stroke-p1 { animation-name: zk1; }
/* Stroke 2: Starts at 8.2%, finishes at 16.5%, holds until 74.2% */
@keyframes zk2 {
    0%, 8.2% { stroke-dashoffset: 3339; }
    16.5%, 74.2% { stroke-dashoffset: 0; }
    74.3%, 100% { stroke-dashoffset: 3339; }
}
svg.acjk #stroke-p2 { animation-name: zk2; }
/* Stroke 3: Starts at 16.5%, finishes at 24.7%, holds until 74.2% */
@keyframes zk3 {
    0%, 16.5% { stroke-dashoffset: 3339; }
    24.7%, 74.2% { stroke-dashoffset: 0; }
    74.3%, 100% { stroke-dashoffset: 3339; }
}
svg.acjk #stroke-p3 { animation-name: zk3; }
/* Stroke 4: Starts at 24.7%, finishes at 33.0%, holds until 74.2% */
@keyframes zk4 {
    0%, 24.7% { stroke-dashoffset: 3339; }
    33.0%, 74.2% { stroke-dashoffset: 0; }
    74.3%, 100% { stroke-dashoffset: 3339; }
}
svg.acjk #stroke-p4 { animation-name: zk4; }
/* Stroke 5: Starts at 33.0%, finishes at 41.2%, holds until 74.2% */
@keyframes zk5 {
    0%, 33.0% { stroke-dashoffset: 3339; }
    41.2%, 74.2% { stroke-dashoffset: 0; }
    74.3%, 100% { stroke-dashoffset: 3339; }
}
svg.acjk #stroke-p5 { animation-name: zk5; }
/* Stroke 6: Starts at 41.2%, finishes at 49.5%, holds until 74.2% */
@keyframes zk6 {
    0%, 41.2% { stroke-dashoffset: 3339; }
    49.5%, 74.2% { stroke-dashoffset: 0; }
    74.3%, 100% { stroke-dashoffset: 3339; }
}
svg.acjk #stroke-p6 { animation-name: zk6; }
/* Stroke 7: Starts at 49.5%, finishes at 57.7%, holds until 74.2% */
@keyframes zk7 {
    0%, 49.5% { stroke-dashoffset: 3339; }
    57.7%, 74.2% { stroke-dashoffset: 0; }
    74.3%, 100% { stroke-dashoffset: 3339; }
}
svg.acjk #stroke-p7 { animation-name: zk7; }
/* Stroke 8: Starts at 57.7%, finishes at 66.0%, holds until 74.2% */
@keyframes zk8 {
    0%, 57.7% { stroke-dashoffset: 3339; }
    66.0%, 74.2% { stroke-dashoffset: 0; }
    74.3%, 100% { stroke-dashoffset: 3339; }
}
svg.acjk #stroke-p8 { animation-name: zk8; }
/* Stroke 9: Starts at 66.0%, finishes at 74.2%, holds until 74.2% */
@keyframes zk9 {
    0%, 66.0% { stroke-dashoffset: 3339; }
    74.2%, 74.2% { stroke-dashoffset: 0; }
    74.3%, 100% { stroke-dashoffset: 3339; }
}
svg.acjk #stroke-p9 { animation-name: zk9; }
]]>
</style>
<defs>
    <path id="p1" d="M 138 329 Q 126 323 100 318 Q 87 314 83 320 Q 76 326 85 343 Q 113 410 128 517 Q 129 550 147 571 Q 166 595 171 579 Q 178 560 176 527 C 173 503 173 503 171 491 Q 156 383 156 357 C 156 346 148 333 138 329 Z"/>
    <path id="p2" d="M 310 464 Q 326 377 352 350 Q 374 322 350 308 Q 284 275 283 275 Q 273 275 262 282 Q 222 309 138 329 C 127 331 145 359 156 357 Q 162 356 170 353 Q 210 343 243 335 Q 265 329 271 338 Q 278 345 256 466 C 252 484 306 482 310 464 Z"/>
    <path id="p3" d="M 176 527 Q 183 527 191 525 Q 234 513 329 501 Q 341 500 341 490 Q 341 481 310 464 C 295 455 273 460 256 466 Q 208 481 171 491 C 160 495 164 527 176 527 Z"/>
    <path id="p4" d="M 597 269 Q 729 227 737 221 Q 746 212 740 204 Q 733 192 702 187 Q 678 184 575 225 C 551 234 551 234 539 238 Q 481 257 411 269 Q 374 279 402 293 Q 447 311 539 285 Q 548 282 558 280 C 584 273 584 273 597 269 Z"/>
    <path id="p5" d="M 655 425 Q 767 561 877 568 Q 899 564 891 534 Q 881 512 865 399 Q 864 389 858 387 Q 854 387 852 399 Q 845 424 837 447 Q 828 478 817 479 Q 780 480 695 402 C 674 379 674 379 664 367 Q 655 355 597 269 C 582 240 582 240 575 225 Q 545 153 555 103 Q 558 84 520 68 Q 483 52 473 57 Q 463 63 468 78 Q 492 100 504 141 Q 520 193 539 238 C 552 266 552 266 558 280 Q 583 332 628 391 C 646 414 646 414 655 425 Z"/>
    <path id="p6" d="M 695 402 Q 747 365 783 353 Q 793 349 795 336 Q 796 324 784 297 Q 771 272 756 266 Q 741 260 739 280 Q 738 305 722 319 Q 694 344 664 367 C 640 383 640 383 628 391 Q 514 454 472 475 Q 460 479 457 483 Q 450 490 462 494 Q 498 498 655 425 C 682 410 682 410 695 402 Z"/>
    <path id="p7" d="M 638 590 Q 743 578 755 569 Q 755 568 757 566 Q 758 554 735 544 Q 705 523 623 547 Q 599 551 577 558 Q 507 573 384 587 Q 356 591 378 608 Q 408 635 441 627 Q 453 623 468 621 C 495 616 495 616 509 613 Q 546 606 589 599 C 622 593 622 593 638 590 Z"/>
    <path id="p8" d="M 468 621 Q 483 669 444 761 Q 404 842 298 895 Q 285 901 296 905 Q 381 911 453 831 Q 454 830 456 828 Q 495 770 523 699 Q 529 680 541 662 Q 551 647 538 638 Q 525 623 513 616 Q 512 615 509 613 C 498 604 465 607 468 621 Z"/>
    <path id="p9" d="M 589 599 Q 608 636 604 689 Q 598 849 626 881 Q 641 905 707 916 Q 756 923 836 922 Q 906 921 935 905 Q 963 890 952 859 Q 934 816 923 739 Q 922 723 914 718 Q 905 714 902 733 Q 886 827 871 843 Q 849 867 754 872 Q 702 872 680 864 Q 661 854 656 841 Q 647 817 649 754 Q 655 687 669 654 Q 681 623 662 607 Q 649 597 638 590 C 624 581 582 584 589 599 Z"/>

    <clipPath id="z21715c1"><use href="#p1"/></clipPath>
    <clipPath id="z21715c2"><use href="#p2"/></clipPath>
    <clipPath id="z21715c3"><use href="#p3"/></clipPath>
    <clipPath id="z21715c4"><use href="#p4"/></clipPath>
    <clipPath id="z21715c5"><use href="#p5"/></clipPath>
    <clipPath id="z21715c6"><use href="#p6"/></clipPath>
    <clipPath id="z21715c7"><use href="#p7"/></clipPath>
    <clipPath id="z21715c8"><use href="#p8"/></clipPath>
    <clipPath id="z21715c9"><use href="#p9"/></clipPath>
</defs>
<g id="bg-layer" class="bg">
<use href="#p1"/>
<use href="#p2"/>
<use href="#p3"/>
<use href="#p4"/>
<use href="#p5"/>
<use href="#p6"/>
<use href="#p7"/>
<use href="#p8"/>
<use href="#p9"/>
</g>
<g id="anim-layer">
    <path id="stroke-p1" style="stroke:#FF4444" pathLength="3333" clip-path="url(#z21715c1)" d="M 88 326 L 125 363 L 161 578"/>
    <path id="stroke-p2" style="stroke:#FF4444" pathLength="3333" clip-path="url(#z21715c2)" d="M 146 332 L 270 305 L 308 323 L 268 464"/>
    <path id="stroke-p3" style="stroke:#FF4444" pathLength="3333" clip-path="url(#z21715c3)" d="M 182 518 L 336 485"/>
    <path id="stroke-p4" style="stroke:#000" pathLength="3333" clip-path="url(#z21715c4)" d="M 398 282 L 736 203"/>
    <path id="stroke-p5" style="stroke:#000" pathLength="3333" clip-path="url(#z21715c5)" d="M 475 65 L 525 108 L 587 293 L 722 460 L 801 511 L 857 518 L 858 393"/>
    <path id="stroke-p6" style="stroke:#000" pathLength="3333" clip-path="url(#z21715c6)" d="M 750 270 L 752 336 L 462 487"/>
    <path id="stroke-p7" style="stroke:#000" pathLength="3333" clip-path="url(#z21715c7)" d="M 375 595 L 429 605 L 750 562"/>
    <path id="stroke-p8" style="stroke:#000" pathLength="3333" clip-path="url(#z21715c8)" d="M 477 629 L 507 664 L 449 797 L 391 859 L 304 900"/>
    <path id="stroke-p9" style="stroke:#000" pathLength="3333" clip-path="url(#z21715c9)" d="M 598 603 L 637 633 L 629 826 L 675 886 L 784 896 L 904 873 L 910 725"/>
</g>
</svg>