<svg id="z21861" class="acjk" viewBox="0 0 1024 1024" xmlns="http://www.w3.org/2000/svg">
<style>
<![CDATA[
svg.acjk path[clip-path] {
    animation-duration: 11.3s;
    animation-timing-function: linear;
    animation-iteration-count: infinite;
    stroke-dasharray: 3337;
    stroke-dashoffset: 3339;
    stroke-width: 128;
    stroke-linecap: round;
    fill: none;
    stroke: #FF4444;
}
svg.acjk .bg { fill: #ccc; opacity: 0.5; }

/* Stroke 1: Starts at 0.0%, finishes at 7.1%, holds until 77.9% */
@keyframes zk1 {
    0%, 0.0% { stroke-dashoffset: 3339; }
    7.1%, 77.9% { stroke-dashoffset: 0; }
    78.0%, 100% { stroke-dashoffset: 3339; }
}
svg.acjk #stroke-p1 { animation-name: zk1; }
/* Stroke 2: Starts at 7.1%, finishes at 14.2%, holds until 77.9% */
@keyframes zk2 {
    0%, 7.1% { stroke-dashoffset: 3339; }
    14.2%, 77.9% { stroke-dashoffset: 0; }
    78.0%, 100% { stroke-dashoffset: 3339; }
}
svg.acjk #stroke-p2 { animation-name: zk2; }
/* Stroke 3: Starts at 14.2%, finishes at 21.2%, holds until 77.9% */
@keyframes zk3 {
    0%, 14.2% { stroke-dashoffset: 3339; }
    21.2%, 77.9% { stroke-dashoffset: 0; }
    78.0%, 100% { stroke-dashoffset: 3339; }
}
svg.acjk #stroke-p3 { animation-name: zk3; }
/* Stroke 4: Starts at 21.2%, finishes at 28.3%, holds until 77.9% */
@keyframes zk4 {
    0%, 21.2% { stroke-dashoffset: 3339; }
    28.3%, 77.9% { stroke-dashoffset: 0; }
    78.0%, 100% { stroke-dashoffset: 3339; }
}
svg.acjk #stroke-p4 { animation-name: zk4; }
/* Stroke 5: Starts at 28.3%, finishes at 35.4%, holds until 77.9% */
@keyframes zk5 {
    0%, 28.3% { stroke-dashoffset: 3339; }
    35.4%, 77.9% { stroke-dashoffset: 0; }
    78.0%, 100% { stroke-dashoffset: 3339; }
}
svg.acjk #stroke-p5 { animation-name: zk5; }
/* Stroke 6: Starts at 35.4%, finishes at 42.5%, holds until 77.9% */
@keyframes zk6 {
    0%, 35.4% { stroke-dashoffset: 3339; }
    42.5%, 77.9% { stroke-dashoffset: 0; }
    78.0%, 100% { stroke-dashoffset: 3339; }
}
svg.acjk #stroke-p6 { animation-name: zk6; }
/* Stroke 7: Starts at 42.5%, finishes at 49.6%, holds until 77.9% */
@keyframes zk7 {
    0%, 42.5% { stroke-dashoffset: 3339; }
    49.6%, 77.9% { stroke-dashoffset: 0; }
    78.0%, 100% { stroke-dashoffset: 3339; }
}
svg.acjk #stroke-p7 { animation-name: zk7; }
/* Stroke 8: Starts at 49.6%, finishes at 56.6%, holds until 77.9% */
@keyframes zk8 {
    0%, 49.6% { stroke-dashoffset: 3339; }
    56.6%, 77.9% { stroke-dashoffset: 0; }
    78.0%, 100% { stroke-dashoffset: 3339; }
}
svg.acjk #stroke-p8 { animation-name: zk8; }
/* Stroke 9: Starts at 56.6%, finishes at 63.7%, holds until 77.9% */
@keyframes zk9 {
    0%, 56.6% { stroke-dashoffset: 3339; }
    63.7%, 77.9% { stroke-dashoffset: 0; }
    78.0%, 100% { stroke-dashoffset: 3339; }
}
svg.acjk #stroke-p9 { animation-name: zk9; }
/* Stroke 10: Starts at 63.7%, finishes at 70.8%, holds until 77.9% */
@keyframes zk10 {
    0%, 63.7% { stroke-dashoffset: 3339; }
    70.8%, 77.9% { stroke-dashoffset: 0; }
    78.0%, 100% { stroke-dashoffset: 3339; }
}
svg.acjk #stroke-p10 { animation-name: zk10; }
/* Stroke 11: Starts at 70.8%, finishes at 77.9%, holds until 77.9% */
@keyframes zk11 {
    0%, 70.8% { stroke-dashoffset: 3339; }
    77.9%, 77.9% { stroke-dashoffset: 0; }
    78.0%, 100% { stroke-dashoffset: 3339; }
}
svg.acjk #stroke-p11 { animation-name: zk11; }
]]>
</style>
<defs>
    <path id="p1" d="M 130 383 Q 120 377 90 371 Q 78 368 75 373 Q 68 379 76 394 Q 106 460 121 567 Q 122 598 141 621 Q 157 642 163 627 Q 170 608 165 570 C 162 550 162 550 160 540 Q 144 438 141 409 C 139 400 138 387 130 383 Z"/>
    <path id="p2" d="M 290 516 Q 302 425 325 396 Q 344 371 323 358 Q 304 349 277 334 Q 262 327 216 353 Q 162 372 130 383 C 121 386 132 412 141 409 Q 165 400 225 385 Q 246 379 252 388 Q 261 394 255 432 Q 251 469 243 513 C 240 528 287 531 290 516 Z"/>
    <path id="p3" d="M 165 570 Q 172 571 185 568 Q 222 558 303 545 Q 313 544 313 535 Q 313 528 290 516 C 277 508 258 508 243 513 Q 242 513 240 514 Q 195 530 160 540 C 151 544 155 570 165 570 Z"/>
    <path id="p4" d="M 585 205 Q 597 175 615 153 Q 622 147 619 137 Q 610 113 570 102 Q 549 98 539 101 Q 530 104 534 116 Q 552 192 449 349 Q 401 412 324 497 Q 317 503 327 504 Q 375 495 471 388 Q 528 310 574 226 C 581 212 581 212 585 205 Z"/>
    <path id="p5" d="M 574 226 Q 668 337 770 437 Q 792 461 829 462 Q 896 466 968 454 Q 987 453 988 448 Q 991 441 976 435 Q 927 416 870 396 Q 806 372 758 340 Q 700 304 641 254 Q 604 220 585 205 C 579 200 569 220 574 226 Z"/>
    <path id="p6" d="M 573 464 Q 693 434 695 434 Q 704 427 699 419 Q 692 409 666 402 Q 638 398 611 408 Q 578 420 544 428 Q 505 438 460 442 Q 426 448 451 463 Q 479 478 524 476 C 557 468 557 468 573 464 Z"/>
    <path id="p7" d="M 575 600 Q 650 588 770 585 Q 821 585 828 575 Q 832 565 817 553 Q 771 520 711 535 Q 657 547 580 564 C 548 569 548 569 532 572 Q 442 585 342 604 Q 323 607 338 621 Q 351 633 367 637 Q 386 641 401 637 Q 461 618 530 607 C 560 602 560 602 575 600 Z"/>
    <path id="p8" d="M 557 706 Q 566 651 575 600 C 578 576 578 576 580 564 Q 586 530 600 495 Q 603 486 588 473 Q 581 467 573 464 C 557 458 515 462 524 476 Q 534 495 534 508 Q 533 539 532 572 C 531 595 531 595 530 607 Q 526 658 521 713 C 519 725 555 718 557 706 Z"/>
    <path id="p9" d="M 404 720 Q 392 717 389 722 Q 382 729 391 744 Q 419 796 436 882 Q 440 907 456 925 Q 474 947 479 931 Q 483 921 482 903 C 479 881 479 881 478 870 Q 460 776 460 753 C 460 731 425 724 404 720 Z"/>
    <path id="p10" d="M 711 854 Q 738 773 770 749 Q 786 731 772 714 Q 703 656 653 680 Q 602 696 557 706 C 533 711 533 711 521 713 Q 431 722 404 720 C 382 720 439 757 460 753 Q 463 752 646 723 Q 668 719 677 727 Q 690 740 665 843 C 662 859 705 869 711 854 Z"/>
    <path id="p11" d="M 482 903 Q 488 904 495 903 Q 565 891 718 886 Q 728 885 730 876 Q 731 869 711 854 C 698 845 681 843 665 843 Q 661 842 655 843 Q 558 862 478 870 C 467 872 471 903 482 903 Z"/>

    <clipPath id="z21861c1"><use href="#p1"/></clipPath>
    <clipPath id="z21861c2"><use href="#p2"/></clipPath>
    <clipPath id="z21861c3"><use href="#p3"/></clipPath>
    <clipPath id="z21861c4"><use href="#p4"/></clipPath>
    <clipPath id="z21861c5"><use href="#p5"/></clipPath>
    <clipPath id="z21861c6"><use href="#p6"/></clipPath>
    <clipPath id="z21861c7"><use href="#p7"/></clipPath>
    <clipPath id="z21861c8"><use href="#p8"/></clipPath>
    <clipPath id="z21861c9"><use href="#p9"/></clipPath>
    <clipPath id="z21861c10"><use href="#p10"/></clipPath>
    <clipPath id="z21861c11"><use href="#p11"/></clipPath>
</defs>
<g id="bg-layer" class="bg">
<use href="#p1"/>
<use href="#p2"/>
<use href="#p3"/>
<use href="#p4"/>
<use href="#p5"/>
<use href="#p6"/>
<use href="#p7"/>
<use href="#p8"/>
<use href="#p9"/>
<use href="#p10"/>
<use href="#p11"/>
</g>
<g id="anim-layer">
    <path id="stroke-p1" style="stroke:#FF4444" pathLength="3333" clip-path="url(#z21861c1)" d="M 79 380 L 114 416 L 154 627"/>
    <path id="stroke-p2" style="stroke:#FF4444" pathLength="3333" clip-path="url(#z21861c2)" d="M 138 383 L 259 359 L 285 373 L 261 513"/>
    <path id="stroke-p3" style="stroke:#FF4444" pathLength="3333" clip-path="url(#z21861c3)" d="M 166 546 L 308 536"/>
    <path id="stroke-p4" style="stroke:#000" pathLength="3333" clip-path="url(#z21861c4)" d="M 540 108 L 577 150 L 522 270 L 449 382 L 328 498"/>
    <path id="stroke-p5" style="stroke:#000" pathLength="3333" clip-path="url(#z21861c5)" d="M 585 214 L 801 412 L 981 446"/>
    <path id="stroke-p6" style="stroke:#000" pathLength="3333" clip-path="url(#z21861c6)" d="M 451 452 L 695 424"/>
    <path id="stroke-p7" style="stroke:#000" pathLength="3333" clip-path="url(#z21861c7)" d="M 339 613 L 734 558 L 823 565"/>
    <path id="stroke-p8" style="stroke:#000" pathLength="3333" clip-path="url(#z21861c8)" d="M 532 480 L 567 509 L 530 709"/>
    <path id="stroke-p9" style="stroke:#000" pathLength="3333" clip-path="url(#z21861c9)" d="M 395 725 L 433 770 L 469 933"/>
    <path id="stroke-p10" style="stroke:#000" pathLength="3333" clip-path="url(#z21861c10)" d="M 419 724 L 700 704 L 729 743 L 686 847"/>
    <path id="stroke-p11" style="stroke:#000" pathLength="3333" clip-path="url(#z21861c11)" d="M 485 874 L 725 873"/>
</g>
</svg>