<svg id="z21878" class="acjk" viewBox="0 0 1024 1024" xmlns="http://www.w3.org/2000/svg">
<style>
<![CDATA[
svg.acjk path[clip-path] {
    animation-duration: 11.3s;
    animation-timing-function: linear;
    animation-iteration-count: infinite;
    stroke-dasharray: 3337;
    stroke-dashoffset: 3339;
    stroke-width: 128;
    stroke-linecap: round;
    fill: none;
    stroke: #FF4444;
}
svg.acjk .bg { fill: #ccc; opacity: 0.5; }

/* Stroke 1: Starts at 0.0%, finishes at 7.1%, holds until 77.9% */
@keyframes zk1 {
    0%, 0.0% { stroke-dashoffset: 3339; }
    7.1%, 77.9% { stroke-dashoffset: 0; }
    78.0%, 100% { stroke-dashoffset: 3339; }
}
svg.acjk #stroke-p1 { animation-name: zk1; }
/* Stroke 2: Starts at 7.1%, finishes at 14.2%, holds until 77.9% */
@keyframes zk2 {
    0%, 7.1% { stroke-dashoffset: 3339; }
    14.2%, 77.9% { stroke-dashoffset: 0; }
    78.0%, 100% { stroke-dashoffset: 3339; }
}
svg.acjk #stroke-p2 { animation-name: zk2; }
/* Stroke 3: Starts at 14.2%, finishes at 21.2%, holds until 77.9% */
@keyframes zk3 {
    0%, 14.2% { stroke-dashoffset: 3339; }
    21.2%, 77.9% { stroke-dashoffset: 0; }
    78.0%, 100% { stroke-dashoffset: 3339; }
}
svg.acjk #stroke-p3 { animation-name: zk3; }
/* Stroke 4: Starts at 21.2%, finishes at 28.3%, holds until 77.9% */
@keyframes zk4 {
    0%, 21.2% { stroke-dashoffset: 3339; }
    28.3%, 77.9% { stroke-dashoffset: 0; }
    78.0%, 100% { stroke-dashoffset: 3339; }
}
svg.acjk #stroke-p4 { animation-name: zk4; }
/* Stroke 5: Starts at 28.3%, finishes at 35.4%, holds until 77.9% */
@keyframes zk5 {
    0%, 28.3% { stroke-dashoffset: 3339; }
    35.4%, 77.9% { stroke-dashoffset: 0; }
    78.0%, 100% { stroke-dashoffset: 3339; }
}
svg.acjk #stroke-p5 { animation-name: zk5; }
/* Stroke 6: Starts at 35.4%, finishes at 42.5%, holds until 77.9% */
@keyframes zk6 {
    0%, 35.4% { stroke-dashoffset: 3339; }
    42.5%, 77.9% { stroke-dashoffset: 0; }
    78.0%, 100% { stroke-dashoffset: 3339; }
}
svg.acjk #stroke-p6 { animation-name: zk6; }
/* Stroke 7: Starts at 42.5%, finishes at 49.6%, holds until 77.9% */
@keyframes zk7 {
    0%, 42.5% { stroke-dashoffset: 3339; }
    49.6%, 77.9% { stroke-dashoffset: 0; }
    78.0%, 100% { stroke-dashoffset: 3339; }
}
svg.acjk #stroke-p7 { animation-name: zk7; }
/* Stroke 8: Starts at 49.6%, finishes at 56.6%, holds until 77.9% */
@keyframes zk8 {
    0%, 49.6% { stroke-dashoffset: 3339; }
    56.6%, 77.9% { stroke-dashoffset: 0; }
    78.0%, 100% { stroke-dashoffset: 3339; }
}
svg.acjk #stroke-p8 { animation-name: zk8; }
/* Stroke 9: Starts at 56.6%, finishes at 63.7%, holds until 77.9% */
@keyframes zk9 {
    0%, 56.6% { stroke-dashoffset: 3339; }
    63.7%, 77.9% { stroke-dashoffset: 0; }
    78.0%, 100% { stroke-dashoffset: 3339; }
}
svg.acjk #stroke-p9 { animation-name: zk9; }
/* Stroke 10: Starts at 63.7%, finishes at 70.8%, holds until 77.9% */
@keyframes zk10 {
    0%, 63.7% { stroke-dashoffset: 3339; }
    70.8%, 77.9% { stroke-dashoffset: 0; }
    78.0%, 100% { stroke-dashoffset: 3339; }
}
svg.acjk #stroke-p10 { animation-name: zk10; }
/* Stroke 11: Starts at 70.8%, finishes at 77.9%, holds until 77.9% */
@keyframes zk11 {
    0%, 70.8% { stroke-dashoffset: 3339; }
    77.9%, 77.9% { stroke-dashoffset: 0; }
    78.0%, 100% { stroke-dashoffset: 3339; }
}
svg.acjk #stroke-p11 { animation-name: zk11; }
]]>
</style>
<defs>
    <path id="p1" d="M 122 366 Q 112 360 85 354 Q 72 350 69 355 Q 62 361 70 378 Q 98 451 109 568 Q 110 602 129 628 Q 145 650 151 635 Q 161 610 155 559 C 152 536 152 536 150 525 Q 137 419 137 392 C 137 382 131 370 122 366 Z"/>
    <path id="p2" d="M 285 504 Q 301 416 326 387 Q 348 362 324 348 Q 305 338 278 321 Q 259 311 241 322 Q 208 343 122 366 C 112 368 128 396 137 392 Q 138 389 219 372 Q 243 366 248 376 Q 257 383 250 421 Q 243 458 236 500 C 233 516 282 520 285 504 Z"/>
    <path id="p3" d="M 155 559 Q 162 559 172 557 Q 212 547 298 535 Q 308 534 309 524 Q 309 517 285 504 C 271 496 252 497 236 500 Q 232 500 230 501 Q 187 516 150 525 C 139 527 144 559 155 559 Z"/>
    <path id="p4" d="M 528 146 Q 564 171 601 201 Q 617 214 633 212 Q 645 211 649 196 Q 652 180 640 149 Q 633 127 595 113 Q 508 88 496 97 Q 492 101 494 115 Q 498 125 528 146 Z"/>
    <path id="p5" d="M 426 296 Q 408 266 388 254 Q 384 250 378 254 Q 374 258 373 270 Q 380 304 352 378 Q 342 397 345 416 Q 349 435 361 451 Q 370 461 375 453 Q 382 452 389 434 Q 393 427 402 397 Q 418 328 426 322 C 430 315 431 303 426 296 Z"/>
    <path id="p6" d="M 426 322 Q 447 334 489 325 Q 573 291 717 273 Q 739 270 749 270 Q 765 282 762 289 Q 749 332 735 378 C 736 379 736 379 737 379 Q 744 383 760 370 Q 812 331 855 317 Q 889 304 889 296 Q 888 286 815 239 Q 793 223 670 249 Q 667 249 502 282 Q 465 289 426 295 Q 425 295 426 296 C 418 299 418 318 426 322 Z"/>
    <path id="p7" d="M 599 462 Q 725 432 727 430 Q 734 423 731 415 Q 724 405 698 398 Q 673 392 597 418 Q 528 436 468 442 Q 434 448 459 463 Q 498 484 548 472 Q 549 471 554 472 C 584 465 584 465 599 462 Z"/>
    <path id="p8" d="M 608 777 Q 611 698 616 631 C 617 614 617 614 617 605 Q 618 542 624 511 Q 633 487 599 462 C 587 452 549 457 554 472 Q 563 487 565 593 Q 564 648 563 751 C 563 768 608 794 608 777 Z"/>
    <path id="p9" d="M 616 631 Q 646 638 722 623 Q 741 617 763 613 Q 779 609 781 606 Q 788 599 784 590 Q 777 580 749 576 Q 724 573 664 596 Q 663 596 617 605 C 608 607 607 629 616 631 Z"/>
    <path id="p10" d="M 445 670 Q 455 649 468 632 Q 478 619 463 605 Q 423 575 395 578 Q 383 581 387 595 Q 403 686 305 811 Q 278 838 253 872 Q 246 888 260 882 Q 279 878 302 858 Q 378 794 419 717 Q 423 708 428 700 C 439 680 439 680 445 670 Z"/>
    <path id="p11" d="M 428 700 Q 431 701 436 706 Q 587 839 749 921 Q 773 927 854 910 Q 879 904 908 898 Q 944 886 953 874 Q 957 861 937 861 Q 867 852 825 851 Q 714 842 610 778 Q 609 777 608 777 C 578 760 578 760 563 751 Q 505 715 445 670 C 436 663 419 693 428 700 Z"/>

    <clipPath id="z21878c1"><use href="#p1"/></clipPath>
    <clipPath id="z21878c2"><use href="#p2"/></clipPath>
    <clipPath id="z21878c3"><use href="#p3"/></clipPath>
    <clipPath id="z21878c4"><use href="#p4"/></clipPath>
    <clipPath id="z21878c5"><use href="#p5"/></clipPath>
    <clipPath id="z21878c6"><use href="#p6"/></clipPath>
    <clipPath id="z21878c7"><use href="#p7"/></clipPath>
    <clipPath id="z21878c8"><use href="#p8"/></clipPath>
    <clipPath id="z21878c9"><use href="#p9"/></clipPath>
    <clipPath id="z21878c10"><use href="#p10"/></clipPath>
    <clipPath id="z21878c11"><use href="#p11"/></clipPath>
</defs>
<g id="bg-layer" class="bg">
<use href="#p1"/>
<use href="#p2"/>
<use href="#p3"/>
<use href="#p4"/>
<use href="#p5"/>
<use href="#p6"/>
<use href="#p7"/>
<use href="#p8"/>
<use href="#p9"/>
<use href="#p10"/>
<use href="#p11"/>
</g>
<g id="anim-layer">
    <path id="stroke-p1" style="stroke:#FF4444" pathLength="3333" clip-path="url(#z21878c1)" d="M 74 360 L 108 401 L 141 635"/>
    <path id="stroke-p2" style="stroke:#FF4444" pathLength="3333" clip-path="url(#z21878c2)" d="M 129 368 L 243 344 L 293 370 L 266 502"/>
    <path id="stroke-p3" style="stroke:#FF4444" pathLength="3333" clip-path="url(#z21878c3)" d="M 158 553 L 224 524 L 304 522"/>
    <path id="stroke-p4" style="stroke:#000" pathLength="3333" clip-path="url(#z21878c4)" d="M 501 100 L 643 203"/>
    <path id="stroke-p5" style="stroke:#000" pathLength="3333" clip-path="url(#z21878c5)" d="M 383 261 L 399 305 L 370 450"/>
    <path id="stroke-p6" style="stroke:#000" pathLength="3333" clip-path="url(#z21878c6)" d="M 433 317 L 760 251 L 835 298 L 745 375"/>
    <path id="stroke-p7" style="stroke:#000" pathLength="3333" clip-path="url(#z21878c7)" d="M 457 450 L 728 420"/>
    <path id="stroke-p8" style="stroke:#000" pathLength="3333" clip-path="url(#z21878c8)" d="M 561 477 L 594 510 L 586 742 L 601 769"/>
    <path id="stroke-p9" style="stroke:#000" pathLength="3333" clip-path="url(#z21878c9)" d="M 623 624 L 781 599"/>
    <path id="stroke-p10" style="stroke:#000" pathLength="3333" clip-path="url(#z21878c10)" d="M 395 588 L 429 624 L 395 709 L 260 878"/>
    <path id="stroke-p11" style="stroke:#000" pathLength="3333" clip-path="url(#z21878c11)" d="M 445 680 L 533 758 L 714 864 L 796 885 L 945 872"/>
</g>
</svg>