<svg id="z21939" class="acjk" viewBox="0 0 1024 1024" xmlns="http://www.w3.org/2000/svg">
<style>
<![CDATA[
svg.acjk path[clip-path] {
    animation-duration: 12.100000000000001s;
    animation-timing-function: linear;
    animation-iteration-count: infinite;
    stroke-dasharray: 3337;
    stroke-dashoffset: 3339;
    stroke-width: 128;
    stroke-linecap: round;
    fill: none;
    stroke: #FF4444;
}
svg.acjk .bg { fill: #ccc; opacity: 0.5; }

/* Stroke 1: Starts at 0.0%, finishes at 6.6%, holds until 79.3% */
@keyframes zk1 {
    0%, 0.0% { stroke-dashoffset: 3339; }
    6.6%, 79.3% { stroke-dashoffset: 0; }
    79.4%, 100% { stroke-dashoffset: 3339; }
}
svg.acjk #stroke-p1 { animation-name: zk1; }
/* Stroke 2: Starts at 6.6%, finishes at 13.2%, holds until 79.3% */
@keyframes zk2 {
    0%, 6.6% { stroke-dashoffset: 3339; }
    13.2%, 79.3% { stroke-dashoffset: 0; }
    79.4%, 100% { stroke-dashoffset: 3339; }
}
svg.acjk #stroke-p2 { animation-name: zk2; }
/* Stroke 3: Starts at 13.2%, finishes at 19.8%, holds until 79.3% */
@keyframes zk3 {
    0%, 13.2% { stroke-dashoffset: 3339; }
    19.8%, 79.3% { stroke-dashoffset: 0; }
    79.4%, 100% { stroke-dashoffset: 3339; }
}
svg.acjk #stroke-p3 { animation-name: zk3; }
/* Stroke 4: Starts at 19.8%, finishes at 26.4%, holds until 79.3% */
@keyframes zk4 {
    0%, 19.8% { stroke-dashoffset: 3339; }
    26.4%, 79.3% { stroke-dashoffset: 0; }
    79.4%, 100% { stroke-dashoffset: 3339; }
}
svg.acjk #stroke-p4 { animation-name: zk4; }
/* Stroke 5: Starts at 26.4%, finishes at 33.1%, holds until 79.3% */
@keyframes zk5 {
    0%, 26.4% { stroke-dashoffset: 3339; }
    33.1%, 79.3% { stroke-dashoffset: 0; }
    79.4%, 100% { stroke-dashoffset: 3339; }
}
svg.acjk #stroke-p5 { animation-name: zk5; }
/* Stroke 6: Starts at 33.1%, finishes at 39.7%, holds until 79.3% */
@keyframes zk6 {
    0%, 33.1% { stroke-dashoffset: 3339; }
    39.7%, 79.3% { stroke-dashoffset: 0; }
    79.4%, 100% { stroke-dashoffset: 3339; }
}
svg.acjk #stroke-p6 { animation-name: zk6; }
/* Stroke 7: Starts at 39.7%, finishes at 46.3%, holds until 79.3% */
@keyframes zk7 {
    0%, 39.7% { stroke-dashoffset: 3339; }
    46.3%, 79.3% { stroke-dashoffset: 0; }
    79.4%, 100% { stroke-dashoffset: 3339; }
}
svg.acjk #stroke-p7 { animation-name: zk7; }
/* Stroke 8: Starts at 46.3%, finishes at 52.9%, holds until 79.3% */
@keyframes zk8 {
    0%, 46.3% { stroke-dashoffset: 3339; }
    52.9%, 79.3% { stroke-dashoffset: 0; }
    79.4%, 100% { stroke-dashoffset: 3339; }
}
svg.acjk #stroke-p8 { animation-name: zk8; }
/* Stroke 9: Starts at 52.9%, finishes at 59.5%, holds until 79.3% */
@keyframes zk9 {
    0%, 52.9% { stroke-dashoffset: 3339; }
    59.5%, 79.3% { stroke-dashoffset: 0; }
    79.4%, 100% { stroke-dashoffset: 3339; }
}
svg.acjk #stroke-p9 { animation-name: zk9; }
/* Stroke 10: Starts at 59.5%, finishes at 66.1%, holds until 79.3% */
@keyframes zk10 {
    0%, 59.5% { stroke-dashoffset: 3339; }
    66.1%, 79.3% { stroke-dashoffset: 0; }
    79.4%, 100% { stroke-dashoffset: 3339; }
}
svg.acjk #stroke-p10 { animation-name: zk10; }
/* Stroke 11: Starts at 66.1%, finishes at 72.7%, holds until 79.3% */
@keyframes zk11 {
    0%, 66.1% { stroke-dashoffset: 3339; }
    72.7%, 79.3% { stroke-dashoffset: 0; }
    79.4%, 100% { stroke-dashoffset: 3339; }
}
svg.acjk #stroke-p11 { animation-name: zk11; }
/* Stroke 12: Starts at 72.7%, finishes at 79.3%, holds until 79.3% */
@keyframes zk12 {
    0%, 72.7% { stroke-dashoffset: 3339; }
    79.3%, 79.3% { stroke-dashoffset: 0; }
    79.4%, 100% { stroke-dashoffset: 3339; }
}
svg.acjk #stroke-p12 { animation-name: zk12; }
]]>
</style>
<defs>
    <path id="p1" d="M 127 341 Q 117 334 82 327 Q 70 323 67 328 Q 60 334 68 349 Q 96 416 110 526 Q 111 557 129 581 Q 145 602 151 587 Q 157 571 155 542 C 153 521 153 521 152 511 Q 136 405 132 370 C 130 361 135 348 127 342 C 127 341 127 341 127 341 Z"/>
    <path id="p2" d="M 287 486 Q 302 392 327 363 Q 348 336 324 323 Q 305 313 277 297 Q 258 287 240 299 Q 212 318 127 342 C 118 346 123 372 132 370 Q 138 370 223 349 Q 244 345 249 352 Q 258 359 251 396 Q 244 438 237 487 C 234 503 284 502 287 486 Z"/>
    <path id="p3" d="M 155 542 Q 161 542 168 541 Q 211 529 302 517 Q 312 516 313 507 Q 313 500 287 486 C 273 477 253 484 237 487 Q 191 500 152 511 C 142 513 145 542 155 542 Z"/>
    <path id="p4" d="M 622 303 Q 649 297 817 274 Q 827 275 837 262 Q 838 250 815 240 Q 782 218 698 244 Q 665 251 631 261 Q 622 262 615 265 C 588 271 588 271 575 274 Q 530 281 489 287 Q 441 291 388 299 Q 360 303 382 320 Q 412 345 454 336 Q 488 327 533 320 C 592 309 592 309 622 303 Z"/>
    <path id="p5" d="M 615 265 Q 618 178 641 131 Q 647 122 636 109 Q 584 70 558 79 Q 545 83 551 97 Q 576 134 574 196 Q 575 238 575 274 C 574 318 574 318 574 340 Q 571 403 566 432 Q 565 442 581 482 Q 591 497 605 489 Q 612 483 613 353 Q 612 340 612 326 C 614 285 614 285 615 265 Z"/>
    <path id="p6" d="M 533 320 Q 500 413 333 534 Q 318 544 332 546 Q 342 547 375 532 Q 415 517 452 488 Q 483 461 520 419 Q 548 385 566 354 Q 570 347 574 340 C 595 305 548 282 533 320 Z"/>
    <path id="p7" d="M 612 326 Q 685 408 763 483 Q 784 502 818 504 Q 879 505 943 493 Q 959 490 961 486 Q 962 480 950 475 Q 776 420 694 360 Q 676 347 660 334 Q 638 315 622 303 C 608 294 602 313 612 326 Z"/>
    <path id="p8" d="M 480 551 Q 470 544 437 540 Q 427 536 423 542 Q 417 548 425 563 Q 453 621 469 717 Q 472 745 489 765 Q 505 786 510 771 Q 511 765 513 759 C 516 751 516 742 514 734 Q 508 689 503 666 C 500 650 500 650 499 642 Q 492 602 490 583 C 488 572 490 556 480 551 Z"/>
    <path id="p9" d="M 664 746 Q 677 764 689 770 Q 698 777 713 758 Q 726 739 756 625 Q 765 597 787 574 Q 799 562 789 549 Q 774 533 735 509 Q 720 500 652 516 Q 646 516 480 551 C 469 553 479 585 490 583 Q 553 564 667 547 Q 692 543 700 552 Q 710 565 708 578 Q 683 705 665 715 C 657 721 658 738 664 746 Z"/>
    <path id="p10" d="M 503 666 Q 507 666 514 666 Q 593 656 651 649 Q 672 646 665 635 Q 655 622 633 617 Q 612 613 499 642 C 491 644 495 666 503 666 Z"/>
    <path id="p11" d="M 513 759 Q 517 759 524 759 Q 603 749 664 746 C 674 746 675 719 665 715 Q 664 714 658 712 Q 636 708 514 734 C 506 736 505 759 513 759 Z"/>
    <path id="p12" d="M 334 854 Q 312 855 327 873 Q 342 888 360 894 Q 382 901 398 897 Q 566 858 837 867 Q 856 867 876 869 Q 897 870 902 861 Q 908 849 891 834 Q 837 792 799 800 Q 691 818 334 854 Z"/>

    <clipPath id="z21939c1"><use href="#p1"/></clipPath>
    <clipPath id="z21939c2"><use href="#p2"/></clipPath>
    <clipPath id="z21939c3"><use href="#p3"/></clipPath>
    <clipPath id="z21939c4"><use href="#p4"/></clipPath>
    <clipPath id="z21939c5"><use href="#p5"/></clipPath>
    <clipPath id="z21939c6"><use href="#p6"/></clipPath>
    <clipPath id="z21939c7"><use href="#p7"/></clipPath>
    <clipPath id="z21939c8"><use href="#p8"/></clipPath>
    <clipPath id="z21939c9"><use href="#p9"/></clipPath>
    <clipPath id="z21939c10"><use href="#p10"/></clipPath>
    <clipPath id="z21939c11"><use href="#p11"/></clipPath>
    <clipPath id="z21939c12"><use href="#p12"/></clipPath>
</defs>
<g id="bg-layer" class="bg">
<use href="#p1"/>
<use href="#p2"/>
<use href="#p3"/>
<use href="#p4"/>
<use href="#p5"/>
<use href="#p6"/>
<use href="#p7"/>
<use href="#p8"/>
<use href="#p9"/>
<use href="#p10"/>
<use href="#p11"/>
<use href="#p12"/>
</g>
<g id="anim-layer">
    <path id="stroke-p1" style="stroke:#FF4444" pathLength="3333" clip-path="url(#z21939c1)" d="M 73 336 L 104 366 L 141 587"/>
    <path id="stroke-p2" style="stroke:#FF4444" pathLength="3333" clip-path="url(#z21939c2)" d="M 135 364 L 252 320 L 294 347 L 249 485"/>
    <path id="stroke-p3" style="stroke:#FF4444" pathLength="3333" clip-path="url(#z21939c3)" d="M 159 535 L 306 508"/>
    <path id="stroke-p4" style="stroke:#000" pathLength="3333" clip-path="url(#z21939c4)" d="M 381 308 L 830 256"/>
    <path id="stroke-p5" style="stroke:#000" pathLength="3333" clip-path="url(#z21939c5)" d="M 556 86 L 606 132 L 593 485"/>
    <path id="stroke-p6" style="stroke:#000" pathLength="3333" clip-path="url(#z21939c6)" d="M 563 321 L 454 460 L 337 539"/>
    <path id="stroke-p7" style="stroke:#000" pathLength="3333" clip-path="url(#z21939c7)" d="M 619 312 L 793 458 L 951 485"/>
    <path id="stroke-p8" style="stroke:#000" pathLength="3333" clip-path="url(#z21939c8)" d="M 427 546 L 457 568 L 498 767"/>
    <path id="stroke-p9" style="stroke:#000" pathLength="3333" clip-path="url(#z21939c9)" d="M 487 553 L 692 526 L 731 540 L 750 569 L 683 764"/>
    <path id="stroke-p10" style="stroke:#000" pathLength="3333" clip-path="url(#z21939c10)" d="M 505 644 L 660 639"/>
    <path id="stroke-p11" style="stroke:#000" pathLength="3333" clip-path="url(#z21939c11)" d="M 519 751 L 663 727"/>
    <path id="stroke-p12" style="stroke:#000" pathLength="3333" clip-path="url(#z21939c12)" d="M 330 865 L 809 832 L 899 849"/>
</g>
</svg>