<svg id="z21950" class="acjk" viewBox="0 0 1024 1024" xmlns="http://www.w3.org/2000/svg">
<style>
<![CDATA[
svg.acjk path[clip-path] {
    animation-duration: 12.100000000000001s;
    animation-timing-function: linear;
    animation-iteration-count: infinite;
    stroke-dasharray: 3337;
    stroke-dashoffset: 3339;
    stroke-width: 128;
    stroke-linecap: round;
    fill: none;
    stroke: #FF4444;
}
svg.acjk .bg { fill: #ccc; opacity: 0.5; }

/* Stroke 1: Starts at 0.0%, finishes at 6.6%, holds until 79.3% */
@keyframes zk1 {
    0%, 0.0% { stroke-dashoffset: 3339; }
    6.6%, 79.3% { stroke-dashoffset: 0; }
    79.4%, 100% { stroke-dashoffset: 3339; }
}
svg.acjk #stroke-p1 { animation-name: zk1; }
/* Stroke 2: Starts at 6.6%, finishes at 13.2%, holds until 79.3% */
@keyframes zk2 {
    0%, 6.6% { stroke-dashoffset: 3339; }
    13.2%, 79.3% { stroke-dashoffset: 0; }
    79.4%, 100% { stroke-dashoffset: 3339; }
}
svg.acjk #stroke-p2 { animation-name: zk2; }
/* Stroke 3: Starts at 13.2%, finishes at 19.8%, holds until 79.3% */
@keyframes zk3 {
    0%, 13.2% { stroke-dashoffset: 3339; }
    19.8%, 79.3% { stroke-dashoffset: 0; }
    79.4%, 100% { stroke-dashoffset: 3339; }
}
svg.acjk #stroke-p3 { animation-name: zk3; }
/* Stroke 4: Starts at 19.8%, finishes at 26.4%, holds until 79.3% */
@keyframes zk4 {
    0%, 19.8% { stroke-dashoffset: 3339; }
    26.4%, 79.3% { stroke-dashoffset: 0; }
    79.4%, 100% { stroke-dashoffset: 3339; }
}
svg.acjk #stroke-p4 { animation-name: zk4; }
/* Stroke 5: Starts at 26.4%, finishes at 33.1%, holds until 79.3% */
@keyframes zk5 {
    0%, 26.4% { stroke-dashoffset: 3339; }
    33.1%, 79.3% { stroke-dashoffset: 0; }
    79.4%, 100% { stroke-dashoffset: 3339; }
}
svg.acjk #stroke-p5 { animation-name: zk5; }
/* Stroke 6: Starts at 33.1%, finishes at 39.7%, holds until 79.3% */
@keyframes zk6 {
    0%, 33.1% { stroke-dashoffset: 3339; }
    39.7%, 79.3% { stroke-dashoffset: 0; }
    79.4%, 100% { stroke-dashoffset: 3339; }
}
svg.acjk #stroke-p6 { animation-name: zk6; }
/* Stroke 7: Starts at 39.7%, finishes at 46.3%, holds until 79.3% */
@keyframes zk7 {
    0%, 39.7% { stroke-dashoffset: 3339; }
    46.3%, 79.3% { stroke-dashoffset: 0; }
    79.4%, 100% { stroke-dashoffset: 3339; }
}
svg.acjk #stroke-p7 { animation-name: zk7; }
/* Stroke 8: Starts at 46.3%, finishes at 52.9%, holds until 79.3% */
@keyframes zk8 {
    0%, 46.3% { stroke-dashoffset: 3339; }
    52.9%, 79.3% { stroke-dashoffset: 0; }
    79.4%, 100% { stroke-dashoffset: 3339; }
}
svg.acjk #stroke-p8 { animation-name: zk8; }
/* Stroke 9: Starts at 52.9%, finishes at 59.5%, holds until 79.3% */
@keyframes zk9 {
    0%, 52.9% { stroke-dashoffset: 3339; }
    59.5%, 79.3% { stroke-dashoffset: 0; }
    79.4%, 100% { stroke-dashoffset: 3339; }
}
svg.acjk #stroke-p9 { animation-name: zk9; }
/* Stroke 10: Starts at 59.5%, finishes at 66.1%, holds until 79.3% */
@keyframes zk10 {
    0%, 59.5% { stroke-dashoffset: 3339; }
    66.1%, 79.3% { stroke-dashoffset: 0; }
    79.4%, 100% { stroke-dashoffset: 3339; }
}
svg.acjk #stroke-p10 { animation-name: zk10; }
/* Stroke 11: Starts at 66.1%, finishes at 72.7%, holds until 79.3% */
@keyframes zk11 {
    0%, 66.1% { stroke-dashoffset: 3339; }
    72.7%, 79.3% { stroke-dashoffset: 0; }
    79.4%, 100% { stroke-dashoffset: 3339; }
}
svg.acjk #stroke-p11 { animation-name: zk11; }
/* Stroke 12: Starts at 72.7%, finishes at 79.3%, holds until 79.3% */
@keyframes zk12 {
    0%, 72.7% { stroke-dashoffset: 3339; }
    79.3%, 79.3% { stroke-dashoffset: 0; }
    79.4%, 100% { stroke-dashoffset: 3339; }
}
svg.acjk #stroke-p12 { animation-name: zk12; }
]]>
</style>
<defs>
    <path id="p1" d="M 310 196 Q 343 221 378 254 Q 391 266 406 265 Q 416 264 421 251 Q 425 238 416 209 Q 410 187 376 171 Q 295 144 284 149 Q 280 153 281 165 Q 285 175 310 196 Z"/>
    <path id="p2" d="M 446 121 Q 500 205 527 209 Q 542 212 550 193 Q 554 180 546 157 Q 525 120 454 93 Q 444 90 442 103 Q 439 110 446 121 Z"/>
    <path id="p3" d="M 615 276 Q 697 195 741 162 Q 760 155 753 144 Q 744 128 722 111 Q 698 95 674 95 Q 658 98 662 118 Q 666 133 660 151 Q 635 200 582 280 C 576 290 607 284 615 276 Z"/>
    <path id="p4" d="M 262 322 Q 261 321 261 318 Q 249 293 237 284 Q 218 269 216 296 Q 219 323 190 367 Q 139 415 171 477 Q 187 505 207 476 Q 223 452 235 416 Q 250 374 260 345 C 263 338 264 330 262 322 Z"/>
    <path id="p5" d="M 582 280 Q 497 289 378 308 Q 323 315 268 321 Q 264 321 262 322 C 254 323 253 341 260 345 Q 288 366 330 357 Q 474 314 699 296 Q 735 292 749 295 Q 765 307 763 314 Q 763 317 729 393 Q 722 406 729 411 Q 736 415 753 403 Q 810 363 857 350 Q 894 337 894 329 Q 893 319 820 265 Q 799 249 775 253 Q 702 263 615 276 C 593 279 593 279 582 280 Z"/>
    <path id="p6" d="M 362 496 Q 374 477 388 463 Q 398 451 385 438 Q 346 405 323 408 Q 313 409 314 424 Q 323 479 261 561 Q 254 564 233 593 Q 226 606 239 603 Q 284 597 347 518 Q 348 512 354 507 C 359 500 359 500 362 496 Z"/>
    <path id="p7" d="M 534 514 Q 684 484 690 479 Q 699 472 695 464 Q 688 452 660 444 Q 639 438 538 467 C 500 476 500 476 481 480 Q 430 487 374 493 Q 365 494 362 496 C 358 498 350 504 354 507 Q 390 543 460 526 Q 470 523 483 523 C 517 517 517 517 534 514 Z"/>
    <path id="p8" d="M 525 610 Q 529 561 534 514 C 537 483 537 483 538 467 Q 539 458 540 450 Q 543 429 546 416 Q 550 403 552 395 Q 556 385 537 370 Q 503 352 481 349 Q 465 345 458 354 Q 451 361 459 375 Q 475 397 476 412 Q 479 445 481 480 C 482 509 482 509 483 523 Q 484 566 484 616 C 484 630 525 624 525 610 Z"/>
    <path id="p9" d="M 484 616 Q 345 632 182 652 Q 158 653 176 673 Q 192 689 211 695 Q 235 701 252 696 Q 453 645 791 645 Q 812 645 831 646 Q 853 646 859 636 Q 866 623 847 608 Q 790 565 748 573 Q 663 589 525 610 C 498 614 498 614 484 616 Z"/>
    <path id="p10" d="M 372 749 Q 360 743 332 740 Q 320 737 317 742 Q 310 749 320 764 Q 345 813 365 896 Q 369 921 384 937 Q 402 959 407 943 Q 408 936 410 928 C 408 903 408 903 407 891 Q 392 812 389 783 C 387 771 384 754 372 749 Z"/>
    <path id="p11" d="M 658 866 Q 686 800 715 783 Q 734 764 719 745 Q 703 730 648 701 Q 629 692 607 700 Q 529 728 372 749 C 360 751 377 785 389 783 Q 392 783 586 752 Q 608 748 616 758 Q 623 765 622 782 Q 615 824 604 859 C 597 876 651 883 658 866 Z"/>
    <path id="p12" d="M 410 928 Q 420 929 433 928 Q 509 913 673 906 Q 685 905 687 895 Q 687 886 658 866 C 643 855 622 856 604 859 Q 603 858 601 859 Q 493 881 407 891 C 395 893 398 928 410 928 Z"/>

    <clipPath id="z21950c1"><use href="#p1"/></clipPath>
    <clipPath id="z21950c2"><use href="#p2"/></clipPath>
    <clipPath id="z21950c3"><use href="#p3"/></clipPath>
    <clipPath id="z21950c4"><use href="#p4"/></clipPath>
    <clipPath id="z21950c5"><use href="#p5"/></clipPath>
    <clipPath id="z21950c6"><use href="#p6"/></clipPath>
    <clipPath id="z21950c7"><use href="#p7"/></clipPath>
    <clipPath id="z21950c8"><use href="#p8"/></clipPath>
    <clipPath id="z21950c9"><use href="#p9"/></clipPath>
    <clipPath id="z21950c10"><use href="#p10"/></clipPath>
    <clipPath id="z21950c11"><use href="#p11"/></clipPath>
    <clipPath id="z21950c12"><use href="#p12"/></clipPath>
</defs>
<g id="bg-layer" class="bg">
<use href="#p1"/>
<use href="#p2"/>
<use href="#p3"/>
<use href="#p4"/>
<use href="#p5"/>
<use href="#p6"/>
<use href="#p7"/>
<use href="#p8"/>
<use href="#p9"/>
<use href="#p10"/>
<use href="#p11"/>
<use href="#p12"/>
</g>
<g id="anim-layer">
    <path id="stroke-p1" style="stroke:#FF4444" pathLength="3333" clip-path="url(#z21950c1)" d="M 288 154 L 416 253"/>
    <path id="stroke-p2" style="stroke:#FF4444" pathLength="3333" clip-path="url(#z21950c2)" d="M 450 99 L 541 202"/>
    <path id="stroke-p3" style="stroke:#FF4444" pathLength="3333" clip-path="url(#z21950c3)" d="M 672 99 L 707 152 L 589 279"/>
    <path id="stroke-p4" style="stroke:#FF4444" pathLength="3333" clip-path="url(#z21950c4)" d="M 227 282 L 238 324 L 188 486"/>
    <path id="stroke-p5" style="stroke:#FF4444" pathLength="3333" clip-path="url(#z21950c5)" d="M 259 333 L 758 275 L 799 292 L 839 333 L 733 405"/>
    <path id="stroke-p6" style="stroke:#000" pathLength="3333" clip-path="url(#z21950c6)" d="M 321 413 L 353 455 L 298 544 L 236 596"/>
    <path id="stroke-p7" style="stroke:#000" pathLength="3333" clip-path="url(#z21950c7)" d="M 359 504 L 690 462"/>
    <path id="stroke-p8" style="stroke:#000" pathLength="3333" clip-path="url(#z21950c8)" d="M 461 357 L 514 404 L 505 621"/>
    <path id="stroke-p9" style="stroke:#000" pathLength="3333" clip-path="url(#z21950c9)" d="M 175 664 L 745 609 L 856 624"/>
    <path id="stroke-p10" style="stroke:#000" pathLength="3333" clip-path="url(#z21950c10)" d="M 323 749 L 356 773 L 401 943"/>
    <path id="stroke-p11" style="stroke:#000" pathLength="3333" clip-path="url(#z21950c11)" d="M 376 756 L 628 726 L 673 775 L 622 873"/>
    <path id="stroke-p12" style="stroke:#000" pathLength="3333" clip-path="url(#z21950c12)" d="M 400 909 L 613 883 L 682 896"/>
</g>
</svg>