<svg id="z22055" class="acjk" viewBox="0 0 1024 1024" xmlns="http://www.w3.org/2000/svg">
<style>
<![CDATA[
svg.acjk path[clip-path] {
    animation-duration: 13.700000000000001s;
    animation-timing-function: linear;
    animation-iteration-count: infinite;
    stroke-dasharray: 3337;
    stroke-dashoffset: 3339;
    stroke-width: 128;
    stroke-linecap: round;
    fill: none;
    stroke: #FF4444;
}
svg.acjk .bg { fill: #ccc; opacity: 0.5; }

/* Stroke 1: Starts at 0.0%, finishes at 5.8%, holds until 81.8% */
@keyframes zk1 {
    0%, 0.0% { stroke-dashoffset: 3339; }
    5.8%, 81.8% { stroke-dashoffset: 0; }
    81.9%, 100% { stroke-dashoffset: 3339; }
}
svg.acjk #stroke-p1 { animation-name: zk1; }
/* Stroke 2: Starts at 5.8%, finishes at 11.7%, holds until 81.8% */
@keyframes zk2 {
    0%, 5.8% { stroke-dashoffset: 3339; }
    11.7%, 81.8% { stroke-dashoffset: 0; }
    81.9%, 100% { stroke-dashoffset: 3339; }
}
svg.acjk #stroke-p2 { animation-name: zk2; }
/* Stroke 3: Starts at 11.7%, finishes at 17.5%, holds until 81.8% */
@keyframes zk3 {
    0%, 11.7% { stroke-dashoffset: 3339; }
    17.5%, 81.8% { stroke-dashoffset: 0; }
    81.9%, 100% { stroke-dashoffset: 3339; }
}
svg.acjk #stroke-p3 { animation-name: zk3; }
/* Stroke 4: Starts at 17.5%, finishes at 23.4%, holds until 81.8% */
@keyframes zk4 {
    0%, 17.5% { stroke-dashoffset: 3339; }
    23.4%, 81.8% { stroke-dashoffset: 0; }
    81.9%, 100% { stroke-dashoffset: 3339; }
}
svg.acjk #stroke-p4 { animation-name: zk4; }
/* Stroke 5: Starts at 23.4%, finishes at 29.2%, holds until 81.8% */
@keyframes zk5 {
    0%, 23.4% { stroke-dashoffset: 3339; }
    29.2%, 81.8% { stroke-dashoffset: 0; }
    81.9%, 100% { stroke-dashoffset: 3339; }
}
svg.acjk #stroke-p5 { animation-name: zk5; }
/* Stroke 6: Starts at 29.2%, finishes at 35.0%, holds until 81.8% */
@keyframes zk6 {
    0%, 29.2% { stroke-dashoffset: 3339; }
    35.0%, 81.8% { stroke-dashoffset: 0; }
    81.9%, 100% { stroke-dashoffset: 3339; }
}
svg.acjk #stroke-p6 { animation-name: zk6; }
/* Stroke 7: Starts at 35.0%, finishes at 40.9%, holds until 81.8% */
@keyframes zk7 {
    0%, 35.0% { stroke-dashoffset: 3339; }
    40.9%, 81.8% { stroke-dashoffset: 0; }
    81.9%, 100% { stroke-dashoffset: 3339; }
}
svg.acjk #stroke-p7 { animation-name: zk7; }
/* Stroke 8: Starts at 40.9%, finishes at 46.7%, holds until 81.8% */
@keyframes zk8 {
    0%, 40.9% { stroke-dashoffset: 3339; }
    46.7%, 81.8% { stroke-dashoffset: 0; }
    81.9%, 100% { stroke-dashoffset: 3339; }
}
svg.acjk #stroke-p8 { animation-name: zk8; }
/* Stroke 9: Starts at 46.7%, finishes at 52.6%, holds until 81.8% */
@keyframes zk9 {
    0%, 46.7% { stroke-dashoffset: 3339; }
    52.6%, 81.8% { stroke-dashoffset: 0; }
    81.9%, 100% { stroke-dashoffset: 3339; }
}
svg.acjk #stroke-p9 { animation-name: zk9; }
/* Stroke 10: Starts at 52.6%, finishes at 58.4%, holds until 81.8% */
@keyframes zk10 {
    0%, 52.6% { stroke-dashoffset: 3339; }
    58.4%, 81.8% { stroke-dashoffset: 0; }
    81.9%, 100% { stroke-dashoffset: 3339; }
}
svg.acjk #stroke-p10 { animation-name: zk10; }
/* Stroke 11: Starts at 58.4%, finishes at 64.2%, holds until 81.8% */
@keyframes zk11 {
    0%, 58.4% { stroke-dashoffset: 3339; }
    64.2%, 81.8% { stroke-dashoffset: 0; }
    81.9%, 100% { stroke-dashoffset: 3339; }
}
svg.acjk #stroke-p11 { animation-name: zk11; }
/* Stroke 12: Starts at 64.2%, finishes at 70.1%, holds until 81.8% */
@keyframes zk12 {
    0%, 64.2% { stroke-dashoffset: 3339; }
    70.1%, 81.8% { stroke-dashoffset: 0; }
    81.9%, 100% { stroke-dashoffset: 3339; }
}
svg.acjk #stroke-p12 { animation-name: zk12; }
/* Stroke 13: Starts at 70.1%, finishes at 75.9%, holds until 81.8% */
@keyframes zk13 {
    0%, 70.1% { stroke-dashoffset: 3339; }
    75.9%, 81.8% { stroke-dashoffset: 0; }
    81.9%, 100% { stroke-dashoffset: 3339; }
}
svg.acjk #stroke-p13 { animation-name: zk13; }
/* Stroke 14: Starts at 75.9%, finishes at 81.8%, holds until 81.8% */
@keyframes zk14 {
    0%, 75.9% { stroke-dashoffset: 3339; }
    81.8%, 81.8% { stroke-dashoffset: 0; }
    81.9%, 100% { stroke-dashoffset: 3339; }
}
svg.acjk #stroke-p14 { animation-name: zk14; }
]]>
</style>
<defs>
    <path id="p1" d="M 119 384 Q 107 377 78 371 Q 66 367 63 372 Q 56 376 64 393 Q 92 463 103 575 Q 104 609 121 632 Q 137 654 143 639 Q 150 620 147 582 C 144 560 144 560 143 549 Q 130 444 128 412 C 128 402 128 388 119 384 Z"/>
    <path id="p2" d="M 280 518 Q 295 428 319 398 Q 340 373 316 359 Q 297 349 269 334 Q 251 325 209 351 Q 176 367 119 384 C 110 387 119 416 128 412 Q 131 411 214 387 Q 236 381 242 390 Q 251 396 231 520 C 228 536 277 534 280 518 Z"/>
    <path id="p3" d="M 147 582 Q 157 583 168 579 Q 208 566 299 551 Q 309 550 310 540 Q 310 533 280 518 C 266 510 246 514 231 520 C 230 520 230 520 230 520 Q 181 539 143 549 C 132 551 136 582 147 582 Z"/>
    <path id="p4" d="M 587 125 Q 617 144 650 170 Q 665 180 679 179 Q 689 178 693 164 Q 696 149 684 122 Q 677 103 644 92 Q 568 74 556 81 Q 552 85 554 97 Q 558 107 587 125 Z"/>
    <path id="p5" d="M 444 266 Q 435 244 416 228 Q 412 224 407 227 Q 401 230 400 241 Q 401 277 369 339 Q 359 355 359 373 Q 360 392 369 406 Q 376 418 382 410 Q 388 410 397 395 Q 401 388 412 361 Q 431 315 440 298 Q 443 294 445 290 C 449 283 447 273 444 266 Z"/>
    <path id="p6" d="M 445 290 Q 466 302 504 293 Q 577 262 715 242 Q 739 239 750 239 Q 766 246 765 254 Q 765 255 740 320 Q 736 332 741 335 Q 747 338 760 328 Q 805 294 843 280 Q 874 268 873 261 Q 872 252 809 210 Q 788 195 725 211 Q 665 220 517 252 Q 483 259 446 265 Q 445 265 444 266 C 437 269 438 286 445 290 Z"/>
    <path id="p7" d="M 412 431 Q 390 479 360 521 Q 344 540 355 573 Q 361 588 378 579 Q 423 545 430 477 Q 434 452 431 432 Q 427 425 422 424 Q 415 425 412 431 Z"/>
    <path id="p8" d="M 576 564 Q 721 609 811 577 Q 830 570 833 558 Q 836 549 804 527 Q 755 484 719 439 Q 709 426 705 432 Q 714 480 726 528 Q 713 540 688 540 Q 642 539 607 531 C 578 522 578 522 564 517 Q 504 487 491 430 Q 482 390 460 401 Q 456 402 457 413 Q 466 498 536 546 C 563 558 563 558 576 564 Z"/>
    <path id="p9" d="M 540 352 Q 573 397 598 413 Q 608 416 616 407 Q 622 398 621 386 Q 615 356 552 325 Q 540 321 533 322 Q 529 323 530 332 Q 530 339 540 352 Z"/>
    <path id="p10" d="M 536 546 Q 461 615 322 689 Q 315 693 320 698 Q 326 701 336 699 Q 408 683 472 645 Q 533 612 576 564 C 597 542 597 542 607 531 Q 644 488 683 423 Q 699 398 720 373 Q 729 366 725 356 Q 721 346 698 327 Q 682 314 673 314 Q 661 315 660 328 Q 654 412 564 517 C 545 536 545 536 536 546 Z"/>
    <path id="p11" d="M 785 415 Q 824 440 864 472 Q 877 482 889 480 Q 898 479 901 468 Q 904 455 895 432 Q 888 410 852 395 Q 774 373 760 377 Q 756 381 758 391 Q 762 400 785 415 Z"/>
    <path id="p12" d="M 623 808 Q 638 688 651 639 Q 655 629 638 616 Q 608 600 588 596 Q 575 592 568 600 Q 561 606 568 619 Q 589 644 587 813 C 587 825 621 820 623 808 Z"/>
    <path id="p13" d="M 779 789 Q 694 795 623 808 C 599 811 599 811 587 813 Q 524 822 471 836 Q 452 840 458 818 Q 462 791 469 764 Q 473 742 465 727 Q 452 709 429 695 Q 419 688 409 690 Q 399 694 405 712 Q 420 754 411 794 Q 404 833 387 849 Q 369 865 375 879 Q 385 894 401 905 Q 414 914 424 906 Q 467 861 716 827 Q 758 821 773 826 C 785 828 791 789 779 789 Z"/>
    <path id="p14" d="M 774 828 Q 781 856 791 873 Q 801 888 811 876 Q 833 852 832 773 Q 841 700 849 688 Q 856 673 845 661 Q 826 648 795 632 Q 783 626 772 632 Q 765 636 768 648 Q 795 682 780 786 Q 779 787 779 789 C 776 802 771 815 774 828 Z"/>

    <clipPath id="z22055c1"><use href="#p1"/></clipPath>
    <clipPath id="z22055c2"><use href="#p2"/></clipPath>
    <clipPath id="z22055c3"><use href="#p3"/></clipPath>
    <clipPath id="z22055c4"><use href="#p4"/></clipPath>
    <clipPath id="z22055c5"><use href="#p5"/></clipPath>
    <clipPath id="z22055c6"><use href="#p6"/></clipPath>
    <clipPath id="z22055c7"><use href="#p7"/></clipPath>
    <clipPath id="z22055c8"><use href="#p8"/></clipPath>
    <clipPath id="z22055c9"><use href="#p9"/></clipPath>
    <clipPath id="z22055c10"><use href="#p10"/></clipPath>
    <clipPath id="z22055c11"><use href="#p11"/></clipPath>
    <clipPath id="z22055c12"><use href="#p12"/></clipPath>
    <clipPath id="z22055c13"><use href="#p13"/></clipPath>
    <clipPath id="z22055c14"><use href="#p14"/></clipPath>
</defs>
<g id="bg-layer" class="bg">
<use href="#p1"/>
<use href="#p2"/>
<use href="#p3"/>
<use href="#p4"/>
<use href="#p5"/>
<use href="#p6"/>
<use href="#p7"/>
<use href="#p8"/>
<use href="#p9"/>
<use href="#p10"/>
<use href="#p11"/>
<use href="#p12"/>
<use href="#p13"/>
<use href="#p14"/>
</g>
<g id="anim-layer">
    <path id="stroke-p1" style="stroke:#FF4444" pathLength="3333" clip-path="url(#z22055c1)" d="M 68 378 L 103 425 L 132 639"/>
    <path id="stroke-p2" style="stroke:#FF4444" pathLength="3333" clip-path="url(#z22055c2)" d="M 127 389 L 248 360 L 285 383 L 251 519"/>
    <path id="stroke-p3" style="stroke:#FF4444" pathLength="3333" clip-path="url(#z22055c3)" d="M 152 575 L 303 538"/>
    <path id="stroke-p4" style="stroke:#000" pathLength="3333" clip-path="url(#z22055c4)" d="M 559 87 L 688 171"/>
    <path id="stroke-p5" style="stroke:#000" pathLength="3333" clip-path="url(#z22055c5)" d="M 410 232 L 420 277 L 379 407"/>
    <path id="stroke-p6" style="stroke:#000" pathLength="3333" clip-path="url(#z22055c6)" d="M 451 271 L 761 222 L 818 268 L 746 329"/>
    <path id="stroke-p7" style="stroke:#000" pathLength="3333" clip-path="url(#z22055c7)" d="M 423 429 L 359 572"/>
    <path id="stroke-p8" style="stroke:#000" pathLength="3333" clip-path="url(#z22055c8)" d="M 466 406 L 536 523 L 672 563 L 782 538 L 713 441"/>
    <path id="stroke-p9" style="stroke:#000" pathLength="3333" clip-path="url(#z22055c9)" d="M 539 330 L 606 409"/>
    <path id="stroke-p10" style="stroke:#000" pathLength="3333" clip-path="url(#z22055c10)" d="M 670 319 L 690 361 L 574 537 L 453 634 L 329 693"/>
    <path id="stroke-p11" style="stroke:#000" pathLength="3333" clip-path="url(#z22055c11)" d="M 765 384 L 860 432 L 890 474"/>
    <path id="stroke-p12" style="stroke:#000" pathLength="3333" clip-path="url(#z22055c12)" d="M 573 608 L 616 644 L 606 809"/>
    <path id="stroke-p13" style="stroke:#000" pathLength="3333" clip-path="url(#z22055c13)" d="M 412 697 L 441 745 L 415 853 L 430 869 L 774 814"/>
    <path id="stroke-p14" style="stroke:#000" pathLength="3333" clip-path="url(#z22055c14)" d="M 773 635 L 816 680 L 797 873"/>
</g>
</svg>