<svg id="z22065" class="acjk" viewBox="0 0 1024 1024" xmlns="http://www.w3.org/2000/svg">
<style>
<![CDATA[
svg.acjk path[clip-path] {
    animation-duration: 14.5s;
    animation-timing-function: linear;
    animation-iteration-count: infinite;
    stroke-dasharray: 3337;
    stroke-dashoffset: 3339;
    stroke-width: 128;
    stroke-linecap: round;
    fill: none;
    stroke: #FF4444;
}
svg.acjk .bg { fill: #ccc; opacity: 0.5; }

/* Stroke 1: Starts at 0.0%, finishes at 5.5%, holds until 82.8% */
@keyframes zk1 {
    0%, 0.0% { stroke-dashoffset: 3339; }
    5.5%, 82.8% { stroke-dashoffset: 0; }
    82.9%, 100% { stroke-dashoffset: 3339; }
}
svg.acjk #stroke-p1 { animation-name: zk1; }
/* Stroke 2: Starts at 5.5%, finishes at 11.0%, holds until 82.8% */
@keyframes zk2 {
    0%, 5.5% { stroke-dashoffset: 3339; }
    11.0%, 82.8% { stroke-dashoffset: 0; }
    82.9%, 100% { stroke-dashoffset: 3339; }
}
svg.acjk #stroke-p2 { animation-name: zk2; }
/* Stroke 3: Starts at 11.0%, finishes at 16.6%, holds until 82.8% */
@keyframes zk3 {
    0%, 11.0% { stroke-dashoffset: 3339; }
    16.6%, 82.8% { stroke-dashoffset: 0; }
    82.9%, 100% { stroke-dashoffset: 3339; }
}
svg.acjk #stroke-p3 { animation-name: zk3; }
/* Stroke 4: Starts at 16.6%, finishes at 22.1%, holds until 82.8% */
@keyframes zk4 {
    0%, 16.6% { stroke-dashoffset: 3339; }
    22.1%, 82.8% { stroke-dashoffset: 0; }
    82.9%, 100% { stroke-dashoffset: 3339; }
}
svg.acjk #stroke-p4 { animation-name: zk4; }
/* Stroke 5: Starts at 22.1%, finishes at 27.6%, holds until 82.8% */
@keyframes zk5 {
    0%, 22.1% { stroke-dashoffset: 3339; }
    27.6%, 82.8% { stroke-dashoffset: 0; }
    82.9%, 100% { stroke-dashoffset: 3339; }
}
svg.acjk #stroke-p5 { animation-name: zk5; }
/* Stroke 6: Starts at 27.6%, finishes at 33.1%, holds until 82.8% */
@keyframes zk6 {
    0%, 27.6% { stroke-dashoffset: 3339; }
    33.1%, 82.8% { stroke-dashoffset: 0; }
    82.9%, 100% { stroke-dashoffset: 3339; }
}
svg.acjk #stroke-p6 { animation-name: zk6; }
/* Stroke 7: Starts at 33.1%, finishes at 38.6%, holds until 82.8% */
@keyframes zk7 {
    0%, 33.1% { stroke-dashoffset: 3339; }
    38.6%, 82.8% { stroke-dashoffset: 0; }
    82.9%, 100% { stroke-dashoffset: 3339; }
}
svg.acjk #stroke-p7 { animation-name: zk7; }
/* Stroke 8: Starts at 38.6%, finishes at 44.1%, holds until 82.8% */
@keyframes zk8 {
    0%, 38.6% { stroke-dashoffset: 3339; }
    44.1%, 82.8% { stroke-dashoffset: 0; }
    82.9%, 100% { stroke-dashoffset: 3339; }
}
svg.acjk #stroke-p8 { animation-name: zk8; }
/* Stroke 9: Starts at 44.1%, finishes at 49.7%, holds until 82.8% */
@keyframes zk9 {
    0%, 44.1% { stroke-dashoffset: 3339; }
    49.7%, 82.8% { stroke-dashoffset: 0; }
    82.9%, 100% { stroke-dashoffset: 3339; }
}
svg.acjk #stroke-p9 { animation-name: zk9; }
/* Stroke 10: Starts at 49.7%, finishes at 55.2%, holds until 82.8% */
@keyframes zk10 {
    0%, 49.7% { stroke-dashoffset: 3339; }
    55.2%, 82.8% { stroke-dashoffset: 0; }
    82.9%, 100% { stroke-dashoffset: 3339; }
}
svg.acjk #stroke-p10 { animation-name: zk10; }
/* Stroke 11: Starts at 55.2%, finishes at 60.7%, holds until 82.8% */
@keyframes zk11 {
    0%, 55.2% { stroke-dashoffset: 3339; }
    60.7%, 82.8% { stroke-dashoffset: 0; }
    82.9%, 100% { stroke-dashoffset: 3339; }
}
svg.acjk #stroke-p11 { animation-name: zk11; }
/* Stroke 12: Starts at 60.7%, finishes at 66.2%, holds until 82.8% */
@keyframes zk12 {
    0%, 60.7% { stroke-dashoffset: 3339; }
    66.2%, 82.8% { stroke-dashoffset: 0; }
    82.9%, 100% { stroke-dashoffset: 3339; }
}
svg.acjk #stroke-p12 { animation-name: zk12; }
/* Stroke 13: Starts at 66.2%, finishes at 71.7%, holds until 82.8% */
@keyframes zk13 {
    0%, 66.2% { stroke-dashoffset: 3339; }
    71.7%, 82.8% { stroke-dashoffset: 0; }
    82.9%, 100% { stroke-dashoffset: 3339; }
}
svg.acjk #stroke-p13 { animation-name: zk13; }
/* Stroke 14: Starts at 71.7%, finishes at 77.2%, holds until 82.8% */
@keyframes zk14 {
    0%, 71.7% { stroke-dashoffset: 3339; }
    77.2%, 82.8% { stroke-dashoffset: 0; }
    82.9%, 100% { stroke-dashoffset: 3339; }
}
svg.acjk #stroke-p14 { animation-name: zk14; }
/* Stroke 15: Starts at 77.2%, finishes at 82.8%, holds until 82.8% */
@keyframes zk15 {
    0%, 77.2% { stroke-dashoffset: 3339; }
    82.8%, 82.8% { stroke-dashoffset: 0; }
    82.9%, 100% { stroke-dashoffset: 3339; }
}
svg.acjk #stroke-p15 { animation-name: zk15; }
]]>
</style>
<defs>
    <path id="p1" d="M 144 324 C 137 319 123 315 102 311 C 93 309 89 309 87 312 C 82 316 83 322 88 333 C 106 373 120 427 127 494 C 129 513 133 530 145 545 C 155 558 163 561 167 551 C 171 540 172 525 171 506 C 170 495 168 484 167 473 C 158 408 153 366 152 348 C 152 340 151 329 144 324 Z"/>
    <path id="p2" d="M 305 452 C 311 393 322 354 338 335 C 350 318 349 305 335 298 C 322 291 307 282 289 274 C 277 268 257 278 227 295 C 205 307 176 314 144 324 C 136 327 144 349 152 348 C 154 348 183 341 239 326 C 251 322 259 323 264 328 C 269 333 268 371 258 444 C 255 460 302 468 305 452 Z"/>
    <path id="p3" d="M 171 506 C 199 496 245 486 311 477 C 317 476 321 473 321 467 C 321 463 315 458 305 452 C 291 444 273 439 258 444 C 239 450 190 466 167 473 C 157 477 161 510 171 506 Z"/>
    <path id="p4" d="M 751 247 C 765 214 781 193 797 181 C 808 171 808 159 799 150 C 789 141 769 130 739 116 C 728 111 717 112 705 117 C 645 141 569 160 477 174 C 467 176 480 203 490 201 C 496 201 560 186 685 160 C 699 156 709 158 715 163 C 719 166 721 173 720 181 C 716 203 711 223 707 241 C 705 256 746 261 751 247 Z"/>
    <path id="p5" d="M 465 321 Q 471 327 492 323 Q 577 301 761 277 Q 771 276 772 267 Q 772 260 751 247 C 738 239 722 241 707 241 Q 703 240 700 242 Q 571 276 469 293 C 460 295 457 317 465 321 Z"/>
    <path id="p6" d="M 477 174 C 468 165 457 158 444 152 C 431 145 421 141 414 145 C 405 148 405 155 408 165 C 425 223 420 271 418 294 C 404 415 384 515 346 607 C 315 679 267 757 207 843 C 204 846 201 850 200 855 C 197 861 200 864 208 863 C 230 859 270 817 326 737 C 338 718 350 697 362 675 C 414 573 445 454 465 321 C 468 302 468 302 469 293 C 471 277 482 222 490 201 C 494 192 485 180 477 174 Z"/>
    <path id="p7" d="M 637 385 C 670 375 704 364 732 358 C 741 355 748 355 750 351 C 752 345 751 337 744 332 C 710 305 683 292 666 296 C 661 296 660 302 659 308 C 655 330 599 359 497 406 C 492 408 493 415 497 416 C 510 417 570 404 596 397 C 623 389 623 389 637 385 Z"/>
    <path id="p8" d="M 511 467 C 505 463 491 459 471 456 C 464 455 459 455 458 458 C 455 461 456 468 461 477 C 473 501 485 535 495 579 C 497 591 502 602 510 611 C 520 623 527 624 530 615 C 531 608 533 601 532 591 C 531 581 529 571 528 562 C 523 529 520 506 519 493 C 519 484 519 471 511 467 Z"/>
    <path id="p9" d="M 757 527 C 767 500 781 486 795 476 C 806 467 805 454 797 446 C 789 437 769 427 740 414 C 730 409 719 409 708 414 C 687 422 667 431 647 437 C 619 445 619 445 605 449 C 575 457 543 461 511 467 C 502 469 510 495 519 493 C 527 492 583 479 605 475 C 632 469 632 469 646 466 C 689 456 714 454 718 458 C 722 463 719 485 711 522 C 708 537 751 541 757 527 Z"/>
    <path id="p10" d="M 643 571 C 677 565 718 558 766 554 C 772 553 775 550 776 546 C 776 542 769 535 757 527 C 745 518 725 516 711 522 C 687 530 665 534 644 539 C 618 545 618 545 605 548 C 578 554 552 557 528 562 C 518 564 522 593 532 591 C 548 589 579 581 605 577 C 630 573 630 573 643 571 Z"/>
    <path id="p11" d="M 434 659 C 422 647 414 642 403 638 C 399 636 391 636 388 641 C 385 643 384 649 388 656 C 402 688 408 744 399 826 C 397 838 396 850 402 861 C 407 872 414 879 423 886 C 429 890 433 892 440 884 C 444 879 444 877 446 866 C 447 857 448 837 447 805 C 444 751 445 713 447 691 C 447 679 443 666 434 659 Z"/>
    <path id="p12" d="M 641 647 C 685 639 735 631 790 629 C 802 628 811 633 817 640 C 821 644 819 650 820 660 C 821 766 823 826 818 842 C 815 848 811 850 803 850 C 782 847 760 845 737 844 C 721 843 718 849 732 858 C 777 885 811 907 832 929 C 839 937 847 937 854 930 C 868 913 878 877 877 821 C 875 728 875 673 885 656 C 892 643 895 634 892 630 C 887 623 868 612 839 593 C 827 585 818 582 809 586 C 792 592 769 598 739 604 C 702 610 669 615 641 620 C 616 624 616 624 604 626 C 565 632 459 654 436 658 C 435 658 434 658 434 659 C 423 663 436 689 447 691 C 457 693 468 692 480 688 C 508 678 548 662 604 653 C 629 649 629 649 641 647 Z"/>
    <path id="p13" d="M 639 746 C 639 711 641 678 641 647 C 641 629 641 629 641 620 C 641 603 642 587 643 571 C 644 550 644 550 644 539 C 644 513 645 488 646 466 C 647 447 647 447 647 437 C 647 411 650 394 637 385 C 626 376 589 385 596 397 C 602 403 605 420 605 449 C 605 466 605 466 605 475 C 605 524 605 524 605 548 C 605 567 605 567 605 577 C 605 591 604 608 604 626 C 604 644 604 644 604 653 C 604 681 603 715 603 753 C 603 765 639 758 639 746 Z"/>
    <path id="p14" d="M 717 728 C 690 732 664 741 639 746 C 615 751 615 751 603 753 C 544 764 506 769 488 769 C 481 769 476 771 475 777 C 473 783 475 789 480 794 C 490 803 503 813 521 825 C 525 827 531 826 539 822 C 557 810 607 787 727 745 C 733 743 723 727 717 728 Z"/>
    <path id="p15" d="M 727 745 C 748 782 759 804 766 807 C 769 808 774 806 778 803 C 782 798 784 790 785 778 C 786 758 765 728 720 691 C 715 687 711 686 708 686 C 705 686 703 689 703 695 C 702 701 707 711 717 728 C 724 739 724 739 727 745 Z"/>

    <clipPath id="z22065c1"><use href="#p1"/></clipPath>
    <clipPath id="z22065c2"><use href="#p2"/></clipPath>
    <clipPath id="z22065c3"><use href="#p3"/></clipPath>
    <clipPath id="z22065c4"><use href="#p4"/></clipPath>
    <clipPath id="z22065c5"><use href="#p5"/></clipPath>
    <clipPath id="z22065c6"><use href="#p6"/></clipPath>
    <clipPath id="z22065c7"><use href="#p7"/></clipPath>
    <clipPath id="z22065c8"><use href="#p8"/></clipPath>
    <clipPath id="z22065c9"><use href="#p9"/></clipPath>
    <clipPath id="z22065c10"><use href="#p10"/></clipPath>
    <clipPath id="z22065c11"><use href="#p11"/></clipPath>
    <clipPath id="z22065c12"><use href="#p12"/></clipPath>
    <clipPath id="z22065c13"><use href="#p13"/></clipPath>
    <clipPath id="z22065c14"><use href="#p14"/></clipPath>
    <clipPath id="z22065c15"><use href="#p15"/></clipPath>
</defs>
<g id="bg-layer" class="bg">
<use href="#p1"/>
<use href="#p2"/>
<use href="#p3"/>
<use href="#p4"/>
<use href="#p5"/>
<use href="#p6"/>
<use href="#p7"/>
<use href="#p8"/>
<use href="#p9"/>
<use href="#p10"/>
<use href="#p11"/>
<use href="#p12"/>
<use href="#p13"/>
<use href="#p14"/>
<use href="#p15"/>
</g>
<g id="anim-layer">
    <path id="stroke-p1" style="stroke:#FF4444" pathLength="3333" clip-path="url(#z22065c1)" d="M 92 318 L 122 344 L 159 551"/>
    <path id="stroke-p2" style="stroke:#FF4444" pathLength="3333" clip-path="url(#z22065c2)" d="M 152 328 L 268 298 L 301 315 L 286 448"/>
    <path id="stroke-p3" style="stroke:#FF4444" pathLength="3333" clip-path="url(#z22065c3)" d="M 174 498 L 256 465 L 315 469"/>
    <path id="stroke-p4" style="stroke:#000" pathLength="3333" clip-path="url(#z22065c4)" d="M 486 177 L 725 138 L 762 170 L 727 243"/>
    <path id="stroke-p5" style="stroke:#000" pathLength="3333" clip-path="url(#z22065c5)" d="M 473 317 L 765 266"/>
    <path id="stroke-p6" style="stroke:#000" pathLength="3333" clip-path="url(#z22065c6)" d="M 416 150 L 455 206 L 397 529 L 324 699 L 209 856"/>
    <path id="stroke-p7" style="stroke:#000" pathLength="3333" clip-path="url(#z22065c7)" d="M 676 304 L 693 341 L 502 410"/>
    <path id="stroke-p8" style="stroke:#000" pathLength="3333" clip-path="url(#z22065c8)" d="M 465 467 L 493 489 L 518 614"/>
    <path id="stroke-p9" style="stroke:#000" pathLength="3333" clip-path="url(#z22065c9)" d="M 520 473 L 724 434 L 760 459 L 728 523"/>
    <path id="stroke-p10" style="stroke:#000" pathLength="3333" clip-path="url(#z22065c10)" d="M 537 571 L 771 541"/>
    <path id="stroke-p11" style="stroke:#000" pathLength="3333" clip-path="url(#z22065c11)" d="M 395 646 L 423 694 L 424 881"/>
    <path id="stroke-p12" style="stroke:#000" pathLength="3333" clip-path="url(#z22065c12)" d="M 441 663 L 823 612 L 857 646 L 845 859 L 826 892 L 736 851"/>
    <path id="stroke-p13" style="stroke:#000" pathLength="3333" clip-path="url(#z22065c13)" d="M 604 401 L 626 432 L 617 749"/>
    <path id="stroke-p14" style="stroke:#000" pathLength="3333" clip-path="url(#z22065c14)" d="M 479 778 L 533 794 L 721 739"/>
    <path id="stroke-p15" style="stroke:#000" pathLength="3333" clip-path="url(#z22065c15)" d="M 711 697 L 770 802"/>
</g>
</svg>