<svg id="z22123" class="acjk" viewBox="0 0 1024 1024" xmlns="http://www.w3.org/2000/svg">
<style>
<![CDATA[
svg.acjk path[clip-path] {
    animation-duration: 15.3s;
    animation-timing-function: linear;
    animation-iteration-count: infinite;
    stroke-dasharray: 3337;
    stroke-dashoffset: 3339;
    stroke-width: 128;
    stroke-linecap: round;
    fill: none;
    stroke: #FF4444;
}
svg.acjk .bg { fill: #ccc; opacity: 0.5; }

/* Stroke 1: Starts at 0.0%, finishes at 5.2%, holds until 83.7% */
@keyframes zk1 {
    0%, 0.0% { stroke-dashoffset: 3339; }
    5.2%, 83.7% { stroke-dashoffset: 0; }
    83.8%, 100% { stroke-dashoffset: 3339; }
}
svg.acjk #stroke-p1 { animation-name: zk1; }
/* Stroke 2: Starts at 5.2%, finishes at 10.5%, holds until 83.7% */
@keyframes zk2 {
    0%, 5.2% { stroke-dashoffset: 3339; }
    10.5%, 83.7% { stroke-dashoffset: 0; }
    83.8%, 100% { stroke-dashoffset: 3339; }
}
svg.acjk #stroke-p2 { animation-name: zk2; }
/* Stroke 3: Starts at 10.5%, finishes at 15.7%, holds until 83.7% */
@keyframes zk3 {
    0%, 10.5% { stroke-dashoffset: 3339; }
    15.7%, 83.7% { stroke-dashoffset: 0; }
    83.8%, 100% { stroke-dashoffset: 3339; }
}
svg.acjk #stroke-p3 { animation-name: zk3; }
/* Stroke 4: Starts at 15.7%, finishes at 20.9%, holds until 83.7% */
@keyframes zk4 {
    0%, 15.7% { stroke-dashoffset: 3339; }
    20.9%, 83.7% { stroke-dashoffset: 0; }
    83.8%, 100% { stroke-dashoffset: 3339; }
}
svg.acjk #stroke-p4 { animation-name: zk4; }
/* Stroke 5: Starts at 20.9%, finishes at 26.1%, holds until 83.7% */
@keyframes zk5 {
    0%, 20.9% { stroke-dashoffset: 3339; }
    26.1%, 83.7% { stroke-dashoffset: 0; }
    83.8%, 100% { stroke-dashoffset: 3339; }
}
svg.acjk #stroke-p5 { animation-name: zk5; }
/* Stroke 6: Starts at 26.1%, finishes at 31.4%, holds until 83.7% */
@keyframes zk6 {
    0%, 26.1% { stroke-dashoffset: 3339; }
    31.4%, 83.7% { stroke-dashoffset: 0; }
    83.8%, 100% { stroke-dashoffset: 3339; }
}
svg.acjk #stroke-p6 { animation-name: zk6; }
/* Stroke 7: Starts at 31.4%, finishes at 36.6%, holds until 83.7% */
@keyframes zk7 {
    0%, 31.4% { stroke-dashoffset: 3339; }
    36.6%, 83.7% { stroke-dashoffset: 0; }
    83.8%, 100% { stroke-dashoffset: 3339; }
}
svg.acjk #stroke-p7 { animation-name: zk7; }
/* Stroke 8: Starts at 36.6%, finishes at 41.8%, holds until 83.7% */
@keyframes zk8 {
    0%, 36.6% { stroke-dashoffset: 3339; }
    41.8%, 83.7% { stroke-dashoffset: 0; }
    83.8%, 100% { stroke-dashoffset: 3339; }
}
svg.acjk #stroke-p8 { animation-name: zk8; }
/* Stroke 9: Starts at 41.8%, finishes at 47.1%, holds until 83.7% */
@keyframes zk9 {
    0%, 41.8% { stroke-dashoffset: 3339; }
    47.1%, 83.7% { stroke-dashoffset: 0; }
    83.8%, 100% { stroke-dashoffset: 3339; }
}
svg.acjk #stroke-p9 { animation-name: zk9; }
/* Stroke 10: Starts at 47.1%, finishes at 52.3%, holds until 83.7% */
@keyframes zk10 {
    0%, 47.1% { stroke-dashoffset: 3339; }
    52.3%, 83.7% { stroke-dashoffset: 0; }
    83.8%, 100% { stroke-dashoffset: 3339; }
}
svg.acjk #stroke-p10 { animation-name: zk10; }
/* Stroke 11: Starts at 52.3%, finishes at 57.5%, holds until 83.7% */
@keyframes zk11 {
    0%, 52.3% { stroke-dashoffset: 3339; }
    57.5%, 83.7% { stroke-dashoffset: 0; }
    83.8%, 100% { stroke-dashoffset: 3339; }
}
svg.acjk #stroke-p11 { animation-name: zk11; }
/* Stroke 12: Starts at 57.5%, finishes at 62.7%, holds until 83.7% */
@keyframes zk12 {
    0%, 57.5% { stroke-dashoffset: 3339; }
    62.7%, 83.7% { stroke-dashoffset: 0; }
    83.8%, 100% { stroke-dashoffset: 3339; }
}
svg.acjk #stroke-p12 { animation-name: zk12; }
/* Stroke 13: Starts at 62.7%, finishes at 68.0%, holds until 83.7% */
@keyframes zk13 {
    0%, 62.7% { stroke-dashoffset: 3339; }
    68.0%, 83.7% { stroke-dashoffset: 0; }
    83.8%, 100% { stroke-dashoffset: 3339; }
}
svg.acjk #stroke-p13 { animation-name: zk13; }
/* Stroke 14: Starts at 68.0%, finishes at 73.2%, holds until 83.7% */
@keyframes zk14 {
    0%, 68.0% { stroke-dashoffset: 3339; }
    73.2%, 83.7% { stroke-dashoffset: 0; }
    83.8%, 100% { stroke-dashoffset: 3339; }
}
svg.acjk #stroke-p14 { animation-name: zk14; }
/* Stroke 15: Starts at 73.2%, finishes at 78.4%, holds until 83.7% */
@keyframes zk15 {
    0%, 73.2% { stroke-dashoffset: 3339; }
    78.4%, 83.7% { stroke-dashoffset: 0; }
    83.8%, 100% { stroke-dashoffset: 3339; }
}
svg.acjk #stroke-p15 { animation-name: zk15; }
/* Stroke 16: Starts at 78.4%, finishes at 83.7%, holds until 83.7% */
@keyframes zk16 {
    0%, 78.4% { stroke-dashoffset: 3339; }
    83.7%, 83.7% { stroke-dashoffset: 0; }
    83.8%, 100% { stroke-dashoffset: 3339; }
}
svg.acjk #stroke-p16 { animation-name: zk16; }
]]>
</style>
<defs>
    <path id="p1" d="M 128 352 Q 118 345 86 339 Q 74 335 71 340 Q 64 346 72 361 Q 100 428 114 538 Q 115 569 133 593 Q 149 614 155 599 Q 162 580 159 546 C 156 525 156 525 154 514 Q 138 412 136 380 C 136 370 137 356 128 352 Z"/>
    <path id="p2" d="M 283 490 Q 298 402 322 375 Q 344 350 320 336 Q 301 326 274 309 Q 258 300 210 326 Q 143 347 128 352 C 119 356 127 384 136 380 Q 142 377 217 360 Q 239 356 245 364 Q 252 370 247 406 Q 240 445 233 492 C 230 508 280 506 283 490 Z"/>
    <path id="p3" d="M 159 546 Q 165 546 173 544 Q 212 534 299 521 Q 309 520 309 511 Q 309 504 283 490 C 269 481 248 486 233 492 Q 188 505 154 514 C 143 516 148 546 159 546 Z"/>
    <path id="p4" d="M 553 86 Q 580 104 608 126 Q 621 136 636 134 Q 646 133 649 120 Q 652 105 640 80 Q 633 64 604 54 Q 537 36 524 45 Q 520 49 522 61 Q 526 71 553 86 Z"/>
    <path id="p5" d="M 712 188 Q 722 185 734 184 Q 783 174 790 168 Q 797 161 794 154 Q 788 144 764 137 Q 745 131 659 155 Q 536 183 453 189 Q 422 193 443 208 Q 482 229 526 220 Q 593 208 663 197 C 696 191 696 191 712 188 Z"/>
    <path id="p6" d="M 499 285 Q 520 324 532 326 Q 539 327 546 319 Q 552 309 550 287 Q 547 271 503 250 Q 493 246 488 246 Q 484 247 483 257 Q 483 266 499 285 Z"/>
    <path id="p7" d="M 650 329 Q 665 314 700 259 Q 709 246 723 230 Q 736 220 730 209 Q 724 199 712 188 C 700 176 663 180 663 197 Q 666 216 630 307 Q 623 322 621 333 C 619 343 644 337 650 329 Z"/>
    <path id="p8" d="M 621 333 Q 498 351 351 372 Q 332 373 346 389 Q 359 401 375 406 Q 394 410 408 406 Q 597 348 909 348 Q 927 347 931 339 Q 935 329 921 317 Q 876 283 840 291 Q 768 307 650 329 C 631 332 631 332 621 333 Z"/>
    <path id="p9" d="M 465 453 Q 455 449 431 444 Q 419 440 416 445 Q 412 451 418 465 Q 445 523 459 618 Q 462 646 478 666 Q 494 685 498 671 Q 499 664 501 657 C 501 638 501 638 501 628 Q 497 598 492 569 C 489 554 489 554 488 547 Q 481 504 479 484 C 477 473 476 457 465 453 Z"/>
    <path id="p10" d="M 671 643 Q 687 664 701 671 Q 711 678 726 657 Q 738 638 762 529 Q 769 498 792 474 Q 805 462 794 449 Q 778 433 737 408 Q 722 401 652 416 Q 643 416 465 453 C 454 455 468 484 479 484 Q 483 484 488 483 Q 552 465 666 449 Q 691 445 699 454 Q 709 466 708 478 Q 690 604 672 613 C 664 619 665 635 671 643 Z"/>
    <path id="p11" d="M 492 569 Q 496 570 506 569 Q 588 556 647 549 Q 668 546 661 535 Q 651 522 629 517 Q 607 514 488 547 C 481 548 485 569 492 569 Z"/>
    <path id="p12" d="M 501 657 Q 505 658 512 657 Q 563 647 671 643 C 681 643 680 619 672 613 Q 669 610 666 608 Q 653 601 626 606 Q 557 619 501 628 C 492 630 491 657 501 657 Z"/>
    <path id="p13" d="M 375 714 Q 354 772 323 825 Q 305 859 324 892 Q 333 908 353 896 Q 402 853 404 771 Q 407 737 399 713 Q 393 706 388 704 Q 379 705 375 714 Z"/>
    <path id="p14" d="M 459 735 Q 471 834 543 887 Q 648 959 832 946 Q 859 942 883 933 Q 907 924 910 909 Q 914 899 877 876 Q 822 830 781 781 Q 769 765 765 772 Q 762 775 785 854 Q 791 890 740 888 Q 593 885 535 824 Q 508 799 498 754 Q 494 730 482 725 Q 469 718 462 721 Q 456 722 459 735 Z"/>
    <path id="p15" d="M 602 741 Q 662 793 675 793 Q 685 792 689 780 Q 693 767 684 739 Q 675 714 596 697 Q 581 694 576 697 Q 572 701 573 713 Q 577 723 602 741 Z"/>
    <path id="p16" d="M 817 699 Q 869 718 924 746 Q 940 753 954 749 Q 964 746 965 732 Q 965 717 949 692 Q 936 670 891 660 Q 791 650 779 661 Q 775 665 781 677 Q 787 687 817 699 Z"/>

    <clipPath id="z22123c1"><use href="#p1"/></clipPath>
    <clipPath id="z22123c2"><use href="#p2"/></clipPath>
    <clipPath id="z22123c3"><use href="#p3"/></clipPath>
    <clipPath id="z22123c4"><use href="#p4"/></clipPath>
    <clipPath id="z22123c5"><use href="#p5"/></clipPath>
    <clipPath id="z22123c6"><use href="#p6"/></clipPath>
    <clipPath id="z22123c7"><use href="#p7"/></clipPath>
    <clipPath id="z22123c8"><use href="#p8"/></clipPath>
    <clipPath id="z22123c9"><use href="#p9"/></clipPath>
    <clipPath id="z22123c10"><use href="#p10"/></clipPath>
    <clipPath id="z22123c11"><use href="#p11"/></clipPath>
    <clipPath id="z22123c12"><use href="#p12"/></clipPath>
    <clipPath id="z22123c13"><use href="#p13"/></clipPath>
    <clipPath id="z22123c14"><use href="#p14"/></clipPath>
    <clipPath id="z22123c15"><use href="#p15"/></clipPath>
    <clipPath id="z22123c16"><use href="#p16"/></clipPath>
</defs>
<g id="bg-layer" class="bg">
<use href="#p1"/>
<use href="#p2"/>
<use href="#p3"/>
<use href="#p4"/>
<use href="#p5"/>
<use href="#p6"/>
<use href="#p7"/>
<use href="#p8"/>
<use href="#p9"/>
<use href="#p10"/>
<use href="#p11"/>
<use href="#p12"/>
<use href="#p13"/>
<use href="#p14"/>
<use href="#p15"/>
<use href="#p16"/>
</g>
<g id="anim-layer">
    <path id="stroke-p1" style="stroke:#FF4444" pathLength="3333" clip-path="url(#z22123c1)" d="M 77 348 L 111 390 L 145 599"/>
    <path id="stroke-p2" style="stroke:#FF4444" pathLength="3333" clip-path="url(#z22123c2)" d="M 140 372 L 239 336 L 288 357 L 248 491"/>
    <path id="stroke-p3" style="stroke:#FF4444" pathLength="3333" clip-path="url(#z22123c3)" d="M 161 540 L 305 510"/>
    <path id="stroke-p4" style="stroke:#000" pathLength="3333" clip-path="url(#z22123c4)" d="M 527 50 L 643 126"/>
    <path id="stroke-p5" style="stroke:#000" pathLength="3333" clip-path="url(#z22123c5)" d="M 445 199 L 790 158"/>
    <path id="stroke-p6" style="stroke:#000" pathLength="3333" clip-path="url(#z22123c6)" d="M 492 251 L 535 318"/>
    <path id="stroke-p7" style="stroke:#000" pathLength="3333" clip-path="url(#z22123c7)" d="M 670 202 L 691 233 L 633 328"/>
    <path id="stroke-p8" style="stroke:#000" pathLength="3333" clip-path="url(#z22123c8)" d="M 349 380 L 825 321 L 927 331"/>
    <path id="stroke-p9" style="stroke:#000" pathLength="3333" clip-path="url(#z22123c9)" d="M 422 451 L 455 491 L 487 669"/>
    <path id="stroke-p10" style="stroke:#000" pathLength="3333" clip-path="url(#z22123c10)" d="M 472 456 L 696 427 L 737 447 L 753 468 L 699 667"/>
    <path id="stroke-p11" style="stroke:#000" pathLength="3333" clip-path="url(#z22123c11)" d="M 494 550 L 656 538"/>
    <path id="stroke-p12" style="stroke:#000" pathLength="3333" clip-path="url(#z22123c12)" d="M 506 649 L 670 624"/>
    <path id="stroke-p13" style="stroke:#000" pathLength="3333" clip-path="url(#z22123c13)" d="M 387 714 L 336 897"/>
    <path id="stroke-p14" style="stroke:#000" pathLength="3333" clip-path="url(#z22123c14)" d="M 466 724 L 534 852 L 680 912 L 785 916 L 857 896 L 771 777"/>
    <path id="stroke-p15" style="stroke:#000" pathLength="3333" clip-path="url(#z22123c15)" d="M 581 702 L 683 782"/>
    <path id="stroke-p16" style="stroke:#000" pathLength="3333" clip-path="url(#z22123c16)" d="M 781 666 L 901 698 L 961 737"/>
</g>
</svg>