<svg id="z22191" class="acjk" viewBox="0 0 1024 1024" xmlns="http://www.w3.org/2000/svg">
<style>
<![CDATA[
svg.acjk path[clip-path] {
    animation-duration: 17.700000000000003s;
    animation-timing-function: linear;
    animation-iteration-count: infinite;
    stroke-dasharray: 3337;
    stroke-dashoffset: 3339;
    stroke-width: 128;
    stroke-linecap: round;
    fill: none;
    stroke: #FF4444;
}
svg.acjk .bg { fill: #ccc; opacity: 0.5; }

/* Stroke 1: Starts at 0.0%, finishes at 4.5%, holds until 85.9% */
@keyframes zk1 {
    0%, 0.0% { stroke-dashoffset: 3339; }
    4.5%, 85.9% { stroke-dashoffset: 0; }
    86.0%, 100% { stroke-dashoffset: 3339; }
}
svg.acjk #stroke-p1 { animation-name: zk1; }
/* Stroke 2: Starts at 4.5%, finishes at 9.0%, holds until 85.9% */
@keyframes zk2 {
    0%, 4.5% { stroke-dashoffset: 3339; }
    9.0%, 85.9% { stroke-dashoffset: 0; }
    86.0%, 100% { stroke-dashoffset: 3339; }
}
svg.acjk #stroke-p2 { animation-name: zk2; }
/* Stroke 3: Starts at 9.0%, finishes at 13.6%, holds until 85.9% */
@keyframes zk3 {
    0%, 9.0% { stroke-dashoffset: 3339; }
    13.6%, 85.9% { stroke-dashoffset: 0; }
    86.0%, 100% { stroke-dashoffset: 3339; }
}
svg.acjk #stroke-p3 { animation-name: zk3; }
/* Stroke 4: Starts at 13.6%, finishes at 18.1%, holds until 85.9% */
@keyframes zk4 {
    0%, 13.6% { stroke-dashoffset: 3339; }
    18.1%, 85.9% { stroke-dashoffset: 0; }
    86.0%, 100% { stroke-dashoffset: 3339; }
}
svg.acjk #stroke-p4 { animation-name: zk4; }
/* Stroke 5: Starts at 18.1%, finishes at 22.6%, holds until 85.9% */
@keyframes zk5 {
    0%, 18.1% { stroke-dashoffset: 3339; }
    22.6%, 85.9% { stroke-dashoffset: 0; }
    86.0%, 100% { stroke-dashoffset: 3339; }
}
svg.acjk #stroke-p5 { animation-name: zk5; }
/* Stroke 6: Starts at 22.6%, finishes at 27.1%, holds until 85.9% */
@keyframes zk6 {
    0%, 22.6% { stroke-dashoffset: 3339; }
    27.1%, 85.9% { stroke-dashoffset: 0; }
    86.0%, 100% { stroke-dashoffset: 3339; }
}
svg.acjk #stroke-p6 { animation-name: zk6; }
/* Stroke 7: Starts at 27.1%, finishes at 31.6%, holds until 85.9% */
@keyframes zk7 {
    0%, 27.1% { stroke-dashoffset: 3339; }
    31.6%, 85.9% { stroke-dashoffset: 0; }
    86.0%, 100% { stroke-dashoffset: 3339; }
}
svg.acjk #stroke-p7 { animation-name: zk7; }
/* Stroke 8: Starts at 31.6%, finishes at 36.2%, holds until 85.9% */
@keyframes zk8 {
    0%, 31.6% { stroke-dashoffset: 3339; }
    36.2%, 85.9% { stroke-dashoffset: 0; }
    86.0%, 100% { stroke-dashoffset: 3339; }
}
svg.acjk #stroke-p8 { animation-name: zk8; }
/* Stroke 9: Starts at 36.2%, finishes at 40.7%, holds until 85.9% */
@keyframes zk9 {
    0%, 36.2% { stroke-dashoffset: 3339; }
    40.7%, 85.9% { stroke-dashoffset: 0; }
    86.0%, 100% { stroke-dashoffset: 3339; }
}
svg.acjk #stroke-p9 { animation-name: zk9; }
/* Stroke 10: Starts at 40.7%, finishes at 45.2%, holds until 85.9% */
@keyframes zk10 {
    0%, 40.7% { stroke-dashoffset: 3339; }
    45.2%, 85.9% { stroke-dashoffset: 0; }
    86.0%, 100% { stroke-dashoffset: 3339; }
}
svg.acjk #stroke-p10 { animation-name: zk10; }
/* Stroke 11: Starts at 45.2%, finishes at 49.7%, holds until 85.9% */
@keyframes zk11 {
    0%, 45.2% { stroke-dashoffset: 3339; }
    49.7%, 85.9% { stroke-dashoffset: 0; }
    86.0%, 100% { stroke-dashoffset: 3339; }
}
svg.acjk #stroke-p11 { animation-name: zk11; }
/* Stroke 12: Starts at 49.7%, finishes at 54.2%, holds until 85.9% */
@keyframes zk12 {
    0%, 49.7% { stroke-dashoffset: 3339; }
    54.2%, 85.9% { stroke-dashoffset: 0; }
    86.0%, 100% { stroke-dashoffset: 3339; }
}
svg.acjk #stroke-p12 { animation-name: zk12; }
/* Stroke 13: Starts at 54.2%, finishes at 58.8%, holds until 85.9% */
@keyframes zk13 {
    0%, 54.2% { stroke-dashoffset: 3339; }
    58.8%, 85.9% { stroke-dashoffset: 0; }
    86.0%, 100% { stroke-dashoffset: 3339; }
}
svg.acjk #stroke-p13 { animation-name: zk13; }
/* Stroke 14: Starts at 58.8%, finishes at 63.3%, holds until 85.9% */
@keyframes zk14 {
    0%, 58.8% { stroke-dashoffset: 3339; }
    63.3%, 85.9% { stroke-dashoffset: 0; }
    86.0%, 100% { stroke-dashoffset: 3339; }
}
svg.acjk #stroke-p14 { animation-name: zk14; }
/* Stroke 15: Starts at 63.3%, finishes at 67.8%, holds until 85.9% */
@keyframes zk15 {
    0%, 63.3% { stroke-dashoffset: 3339; }
    67.8%, 85.9% { stroke-dashoffset: 0; }
    86.0%, 100% { stroke-dashoffset: 3339; }
}
svg.acjk #stroke-p15 { animation-name: zk15; }
/* Stroke 16: Starts at 67.8%, finishes at 72.3%, holds until 85.9% */
@keyframes zk16 {
    0%, 67.8% { stroke-dashoffset: 3339; }
    72.3%, 85.9% { stroke-dashoffset: 0; }
    86.0%, 100% { stroke-dashoffset: 3339; }
}
svg.acjk #stroke-p16 { animation-name: zk16; }
/* Stroke 17: Starts at 72.3%, finishes at 76.8%, holds until 85.9% */
@keyframes zk17 {
    0%, 72.3% { stroke-dashoffset: 3339; }
    76.8%, 85.9% { stroke-dashoffset: 0; }
    86.0%, 100% { stroke-dashoffset: 3339; }
}
svg.acjk #stroke-p17 { animation-name: zk17; }
/* Stroke 18: Starts at 76.8%, finishes at 81.4%, holds until 85.9% */
@keyframes zk18 {
    0%, 76.8% { stroke-dashoffset: 3339; }
    81.4%, 85.9% { stroke-dashoffset: 0; }
    86.0%, 100% { stroke-dashoffset: 3339; }
}
svg.acjk #stroke-p18 { animation-name: zk18; }
/* Stroke 19: Starts at 81.4%, finishes at 85.9%, holds until 85.9% */
@keyframes zk19 {
    0%, 81.4% { stroke-dashoffset: 3339; }
    85.9%, 85.9% { stroke-dashoffset: 0; }
    86.0%, 100% { stroke-dashoffset: 3339; }
}
svg.acjk #stroke-p19 { animation-name: zk19; }
]]>
</style>
<defs>
    <path id="p1" d="M 122 326 Q 112 320 85 314 Q 72 310 69 315 Q 62 321 70 338 Q 98 408 109 519 Q 110 553 128 576 Q 144 598 151 583 Q 161 561 155 516 C 152 493 152 493 151 482 Q 138 382 138 353 C 138 343 131 331 122 326 Z"/>
    <path id="p2" d="M 278 459 Q 291 374 315 346 Q 336 319 313 307 Q 292 297 265 281 Q 247 272 204 298 Q 149 317 122 326 C 112 330 128 357 138 353 Q 163 344 213 334 Q 232 330 237 337 Q 244 343 240 377 Q 236 414 228 460 C 225 476 275 475 278 459 Z"/>
    <path id="p3" d="M 155 516 Q 161 517 172 514 Q 211 504 297 495 Q 307 494 309 484 Q 309 477 278 459 C 264 450 244 455 228 460 Q 185 473 151 482 C 140 484 144 516 155 516 Z"/>
    <path id="p4" d="M 600 154 Q 750 126 754 122 Q 763 115 758 107 Q 752 97 726 89 Q 698 82 671 93 Q 632 105 590 114 Q 544 123 489 126 Q 455 130 479 147 Q 512 168 560 161 C 587 156 587 156 600 154 Z"/>
    <path id="p5" d="M 421 253 Q 408 226 391 217 Q 387 213 382 217 Q 378 221 377 232 Q 381 262 353 328 Q 343 344 344 362 Q 348 381 357 395 Q 364 405 370 398 Q 382 395 397 348 Q 412 302 420 286 Q 423 282 424 277 C 427 270 425 260 421 253 Z"/>
    <path id="p6" d="M 615 251 Q 733 221 780 226 Q 793 233 792 240 Q 780 276 768 314 C 769 315 769 315 769 315 Q 776 319 791 309 Q 840 279 878 272 Q 911 263 910 256 Q 909 246 843 198 Q 821 182 749 197 Q 677 206 616 220 C 589 225 589 225 575 227 Q 544 231 509 239 Q 469 246 427 252 Q 423 252 421 253 C 413 255 417 273 424 277 Q 449 293 476 286 Q 522 270 571 259 Q 572 258 576 259 C 602 254 602 254 615 251 Z"/>
    <path id="p7" d="M 576 259 Q 579 275 569 358 Q 565 382 586 414 Q 593 423 601 413 Q 614 395 615 309 Q 615 285 615 251 C 616 230 616 230 616 220 Q 617 202 620 185 Q 624 167 609 158 Q 605 155 600 154 C 587 149 555 148 560 161 Q 569 177 575 227 C 576 248 576 248 576 259 Z"/>
    <path id="p8" d="M 458 334 Q 506 367 523 366 Q 533 365 534 350 Q 533 340 522 328 Q 500 309 456 315 Q 449 315 451 324 Q 451 330 458 334 Z"/>
    <path id="p9" d="M 452 399 Q 498 441 518 440 Q 528 440 531 426 Q 530 416 521 402 Q 509 387 453 379 Q 446 379 446 388 Q 446 394 452 399 Z"/>
    <path id="p10" d="M 662 307 Q 725 347 739 345 Q 749 344 750 330 Q 749 320 738 307 Q 728 297 706 293 Q 673 286 660 287 Q 653 287 655 296 Q 655 302 662 307 Z"/>
    <path id="p11" d="M 661 380 Q 718 426 738 425 Q 748 424 751 409 Q 750 399 740 385 Q 719 360 661 359 Q 654 359 654 368 Q 654 375 661 380 Z"/>
    <path id="p12" d="M 449 607 Q 491 559 533 509 Q 543 497 540 489 Q 537 476 513 470 Q 486 461 474 464 Q 467 465 465 478 Q 450 571 236 744 Q 217 759 242 755 Q 297 748 419 637 Q 420 636 422 635 C 433 628 441 617 449 607 Z"/>
    <path id="p13" d="M 479 848 Q 480 709 486 678 Q 493 653 484 644 Q 468 625 456 613 Q 452 609 449 607 C 439 599 417 623 422 635 Q 450 708 416 860 Q 406 902 435 944 Q 436 947 439 949 Q 455 964 466 939 Q 476 905 478 869 C 479 855 479 855 479 848 Z"/>
    <path id="p14" d="M 616 461 Q 634 476 653 494 Q 663 503 674 502 Q 681 501 685 492 Q 689 480 682 459 Q 678 446 656 437 Q 607 419 596 426 Q 592 429 593 438 Q 597 445 616 461 Z"/>
    <path id="p15" d="M 674 566 Q 717 556 763 548 Q 794 541 799 536 Q 806 529 803 522 Q 796 512 771 506 Q 750 503 660 529 Q 576 544 551 548 Q 520 554 542 568 Q 579 589 626 576 Q 627 575 631 576 C 660 569 660 569 674 566 Z"/>
    <path id="p16" d="M 691 661 Q 734 651 776 646 Q 797 642 789 631 Q 779 618 757 614 Q 736 611 699 622 Q 695 622 693 625 C 677 635 657 635 639 639 Q 591 649 550 661 Q 535 664 554 677 Q 564 684 587 681 Q 612 675 640 671 C 674 664 674 664 691 661 Z"/>
    <path id="p17" d="M 685 755 Q 734 745 779 739 Q 801 735 793 723 Q 783 710 759 705 Q 729 702 687 715 C 656 724 656 724 640 728 Q 585 741 539 752 Q 523 755 542 769 Q 554 778 578 773 Q 609 767 640 762 C 670 757 670 757 685 755 Z"/>
    <path id="p18" d="M 681 820 Q 682 786 685 755 C 686 728 686 728 687 715 Q 688 687 691 661 C 692 637 692 637 693 625 Q 697 585 680 571 Q 677 568 674 566 C 663 557 626 562 631 576 Q 637 582 639 639 C 640 660 640 660 640 671 Q 640 693 640 728 C 640 751 640 751 640 762 Q 640 790 640 827 C 640 841 681 834 681 820 Z"/>
    <path id="p19" d="M 640 827 Q 567 836 480 847 Q 479 847 479 848 C 472 851 472 865 478 869 Q 508 891 539 884 Q 633 860 834 860 Q 844 860 856 861 Q 874 861 879 853 Q 883 843 868 829 Q 817 790 755 807 Q 724 811 681 820 C 654 825 654 825 640 827 Z"/>

    <clipPath id="z22191c1"><use href="#p1"/></clipPath>
    <clipPath id="z22191c2"><use href="#p2"/></clipPath>
    <clipPath id="z22191c3"><use href="#p3"/></clipPath>
    <clipPath id="z22191c4"><use href="#p4"/></clipPath>
    <clipPath id="z22191c5"><use href="#p5"/></clipPath>
    <clipPath id="z22191c6"><use href="#p6"/></clipPath>
    <clipPath id="z22191c7"><use href="#p7"/></clipPath>
    <clipPath id="z22191c8"><use href="#p8"/></clipPath>
    <clipPath id="z22191c9"><use href="#p9"/></clipPath>
    <clipPath id="z22191c10"><use href="#p10"/></clipPath>
    <clipPath id="z22191c11"><use href="#p11"/></clipPath>
    <clipPath id="z22191c12"><use href="#p12"/></clipPath>
    <clipPath id="z22191c13"><use href="#p13"/></clipPath>
    <clipPath id="z22191c14"><use href="#p14"/></clipPath>
    <clipPath id="z22191c15"><use href="#p15"/></clipPath>
    <clipPath id="z22191c16"><use href="#p16"/></clipPath>
    <clipPath id="z22191c17"><use href="#p17"/></clipPath>
    <clipPath id="z22191c18"><use href="#p18"/></clipPath>
    <clipPath id="z22191c19"><use href="#p19"/></clipPath>
</defs>
<g id="bg-layer" class="bg">
<use href="#p1"/>
<use href="#p2"/>
<use href="#p3"/>
<use href="#p4"/>
<use href="#p5"/>
<use href="#p6"/>
<use href="#p7"/>
<use href="#p8"/>
<use href="#p9"/>
<use href="#p10"/>
<use href="#p11"/>
<use href="#p12"/>
<use href="#p13"/>
<use href="#p14"/>
<use href="#p15"/>
<use href="#p16"/>
<use href="#p17"/>
<use href="#p18"/>
<use href="#p19"/>
</g>
<g id="anim-layer">
    <path id="stroke-p1" style="stroke:#FF4444" pathLength="3333" clip-path="url(#z22191c1)" d="M 73 320 L 108 354 L 138 584"/>
    <path id="stroke-p2" style="stroke:#FF4444" pathLength="3333" clip-path="url(#z22191c2)" d="M 125 335 L 242 306 L 282 331 L 248 470"/>
    <path id="stroke-p3" style="stroke:#FF4444" pathLength="3333" clip-path="url(#z22191c3)" d="M 147 499 L 301 483"/>
    <path id="stroke-p4" style="stroke:#000" pathLength="3333" clip-path="url(#z22191c4)" d="M 476 134 L 754 109"/>
    <path id="stroke-p5" style="stroke:#000" pathLength="3333" clip-path="url(#z22191c5)" d="M 387 219 L 399 272 L 361 393"/>
    <path id="stroke-p6" style="stroke:#000" pathLength="3333" clip-path="url(#z22191c6)" d="M 423 263 L 800 210 L 857 266 L 779 309"/>
    <path id="stroke-p7" style="stroke:#000" pathLength="3333" clip-path="url(#z22191c7)" d="M 566 158 L 596 189 L 593 409"/>
    <path id="stroke-p8" style="stroke:#000" pathLength="3333" clip-path="url(#z22191c8)" d="M 455 322 L 529 356"/>
    <path id="stroke-p9" style="stroke:#000" pathLength="3333" clip-path="url(#z22191c9)" d="M 451 386 L 527 426"/>
    <path id="stroke-p10" style="stroke:#000" pathLength="3333" clip-path="url(#z22191c10)" d="M 661 296 L 746 335"/>
    <path id="stroke-p11" style="stroke:#000" pathLength="3333" clip-path="url(#z22191c11)" d="M 660 368 L 746 412"/>
    <path id="stroke-p12" style="stroke:#000" pathLength="3333" clip-path="url(#z22191c12)" d="M 472 472 L 497 505 L 432 591 L 239 751"/>
    <path id="stroke-p13" style="stroke:#000" pathLength="3333" clip-path="url(#z22191c13)" d="M 443 609 L 460 665 L 443 950"/>
    <path id="stroke-p14" style="stroke:#000" pathLength="3333" clip-path="url(#z22191c14)" d="M 598 433 L 681 493"/>
    <path id="stroke-p15" style="stroke:#000" pathLength="3333" clip-path="url(#z22191c15)" d="M 544 558 L 796 522"/>
    <path id="stroke-p16" style="stroke:#000" pathLength="3333" clip-path="url(#z22191c16)" d="M 554 668 L 782 634"/>
    <path id="stroke-p17" style="stroke:#000" pathLength="3333" clip-path="url(#z22191c17)" d="M 541 759 L 786 726"/>
    <path id="stroke-p18" style="stroke:#000" pathLength="3333" clip-path="url(#z22191c18)" d="M 638 573 L 666 614 L 660 832"/>
    <path id="stroke-p19" style="stroke:#000" pathLength="3333" clip-path="url(#z22191c19)" d="M 477 856 L 875 841"/>
</g>
</svg>