<svg id="z22265" class="acjk" viewBox="0 0 1024 1024" xmlns="http://www.w3.org/2000/svg">
<style>
<![CDATA[
svg.acjk path[clip-path] {
    animation-duration: 8.9s;
    animation-timing-function: linear;
    animation-iteration-count: infinite;
    stroke-dasharray: 3337;
    stroke-dashoffset: 3339;
    stroke-width: 128;
    stroke-linecap: round;
    fill: none;
    stroke: #FF4444;
}
svg.acjk .bg { fill: #ccc; opacity: 0.5; }

/* Stroke 1: Starts at 0.0%, finishes at 9.0%, holds until 71.9% */
@keyframes zk1 {
    0%, 0.0% { stroke-dashoffset: 3339; }
    9.0%, 71.9% { stroke-dashoffset: 0; }
    72.0%, 100% { stroke-dashoffset: 3339; }
}
svg.acjk #stroke-p1 { animation-name: zk1; }
/* Stroke 2: Starts at 9.0%, finishes at 18.0%, holds until 71.9% */
@keyframes zk2 {
    0%, 9.0% { stroke-dashoffset: 3339; }
    18.0%, 71.9% { stroke-dashoffset: 0; }
    72.0%, 100% { stroke-dashoffset: 3339; }
}
svg.acjk #stroke-p2 { animation-name: zk2; }
/* Stroke 3: Starts at 18.0%, finishes at 27.0%, holds until 71.9% */
@keyframes zk3 {
    0%, 18.0% { stroke-dashoffset: 3339; }
    27.0%, 71.9% { stroke-dashoffset: 0; }
    72.0%, 100% { stroke-dashoffset: 3339; }
}
svg.acjk #stroke-p3 { animation-name: zk3; }
/* Stroke 4: Starts at 27.0%, finishes at 36.0%, holds until 71.9% */
@keyframes zk4 {
    0%, 27.0% { stroke-dashoffset: 3339; }
    36.0%, 71.9% { stroke-dashoffset: 0; }
    72.0%, 100% { stroke-dashoffset: 3339; }
}
svg.acjk #stroke-p4 { animation-name: zk4; }
/* Stroke 5: Starts at 36.0%, finishes at 44.9%, holds until 71.9% */
@keyframes zk5 {
    0%, 36.0% { stroke-dashoffset: 3339; }
    44.9%, 71.9% { stroke-dashoffset: 0; }
    72.0%, 100% { stroke-dashoffset: 3339; }
}
svg.acjk #stroke-p5 { animation-name: zk5; }
/* Stroke 6: Starts at 44.9%, finishes at 53.9%, holds until 71.9% */
@keyframes zk6 {
    0%, 44.9% { stroke-dashoffset: 3339; }
    53.9%, 71.9% { stroke-dashoffset: 0; }
    72.0%, 100% { stroke-dashoffset: 3339; }
}
svg.acjk #stroke-p6 { animation-name: zk6; }
/* Stroke 7: Starts at 53.9%, finishes at 62.9%, holds until 71.9% */
@keyframes zk7 {
    0%, 53.9% { stroke-dashoffset: 3339; }
    62.9%, 71.9% { stroke-dashoffset: 0; }
    72.0%, 100% { stroke-dashoffset: 3339; }
}
svg.acjk #stroke-p7 { animation-name: zk7; }
/* Stroke 8: Starts at 62.9%, finishes at 71.9%, holds until 71.9% */
@keyframes zk8 {
    0%, 62.9% { stroke-dashoffset: 3339; }
    71.9%, 71.9% { stroke-dashoffset: 0; }
    72.0%, 100% { stroke-dashoffset: 3339; }
}
svg.acjk #stroke-p8 { animation-name: zk8; }
]]>
</style>
<defs>
    <path id="p1" d="M 261 168 C 253 158 237 149 217 141 C 203 135 181 135 190 160 C 208 213 214 226 216 267 C 222 430 224 596 183 756 C 171 800 179 839 207 874 C 215 884 223 885 232 875 C 241 863 245 850 247 837 C 250 808 250 808 252 793 C 255 765 263 251 271 212 C 274 197 270 180 261 168 Z"/>
    <path id="p2" d="M 750 814 C 757 840 757 854 774 890 C 788 921 809 921 825 890 C 844 851 841 772 837 646 C 828 381 827 227 839 206 C 844 196 858 184 858 173 C 857 164 845 151 823 136 C 781 107 745 98 717 109 C 689 118 413 166 261 168 C 246 168 257 217 271 212 C 287 206 322 194 434 181 C 538 168 631 157 712 151 C 741 148 749 161 755 199 C 762 249 767 345 768 488 C 768 608 771 683 772 712 C 772 727 769 780 758 793 C 757 793 757 793 757 793 C 752 798 749 807 750 814 Z"/>
    <path id="p3" d="M 284 516 C 389 469 488 315 499 298 C 506 286 506 286 510 280 C 514 271 521 262 533 250 C 544 237 533 229 521 220 C 501 206 484 199 465 202 C 460 202 457 207 459 215 C 463 231 459 254 448 281 C 409 373 348 435 277 502 C 258 515 263 525 284 516 Z"/>
    <path id="p4" d="M 499 298 C 508 310 551 368 629 453 C 642 468 686 467 757 449 C 763 447 769 440 755 435 C 682 406 625 378 586 346 C 547 314 522 292 510 280 C 505 275 495 292 499 298 Z"/>
    <path id="p5" d="M 455 418 C 480 447 498 463 512 463 C 520 463 525 458 528 448 C 529 441 526 431 520 421 C 512 408 491 400 458 396 C 449 394 446 408 455 418 Z"/>
    <path id="p6" d="M 518 651 C 586 589 628 554 645 548 C 655 543 659 536 656 527 C 653 518 633 503 594 484 C 584 479 557 486 514 502 C 452 524 402 535 366 537 C 351 537 346 544 353 555 C 356 562 365 569 377 575 C 395 584 413 579 433 570 C 507 533 551 521 560 527 C 566 531 570 537 566 545 C 548 575 527 608 506 644 C 504 648 514 654 518 651 Z"/>
    <path id="p7" d="M 506 644 C 491 635 468 625 438 613 C 427 608 426 625 437 635 C 463 659 493 689 526 726 C 534 735 541 742 549 744 C 552 744 556 742 561 738 C 566 731 567 717 561 697 C 555 676 539 663 518 651 C 510 646 510 646 506 644 Z"/>
    <path id="p8" d="M 247 837 C 253 837 260 837 267 837 C 365 822 542 814 750 814 C 757 814 762 798 757 793 C 688 717 714 762 252 793 C 237 793 232 837 247 837 Z"/>

    <clipPath id="z22265c1"><use href="#p1"/></clipPath>
    <clipPath id="z22265c2"><use href="#p2"/></clipPath>
    <clipPath id="z22265c3"><use href="#p3"/></clipPath>
    <clipPath id="z22265c4"><use href="#p4"/></clipPath>
    <clipPath id="z22265c5"><use href="#p5"/></clipPath>
    <clipPath id="z22265c6"><use href="#p6"/></clipPath>
    <clipPath id="z22265c7"><use href="#p7"/></clipPath>
    <clipPath id="z22265c8"><use href="#p8"/></clipPath>
</defs>
<g id="bg-layer" class="bg">
<use href="#p1"/>
<use href="#p2"/>
<use href="#p3"/>
<use href="#p4"/>
<use href="#p5"/>
<use href="#p6"/>
<use href="#p7"/>
<use href="#p8"/>
</g>
<g id="anim-layer">
    <path id="stroke-p1" style="stroke:#FF4444" pathLength="3333" clip-path="url(#z22265c1)" d="M 195 146 L 236 191 L 241 245 L 218 878"/>
    <path id="stroke-p2" style="stroke:#FF4444" pathLength="3333" clip-path="url(#z22265c2)" d="M 258 181 L 728 128 L 794 165 L 796 909"/>
    <path id="stroke-p3" style="stroke:#000" pathLength="3333" clip-path="url(#z22265c3)" d="M 466 207 L 496 249 L 460 313 L 382 419 L 274 512"/>
    <path id="stroke-p4" style="stroke:#000" pathLength="3333" clip-path="url(#z22265c4)" d="M 506 285 L 644 423 L 757 441"/>
    <path id="stroke-p5" style="stroke:#000" pathLength="3333" clip-path="url(#z22265c5)" d="M 457 404 L 517 457"/>
    <path id="stroke-p6" style="stroke:#000" pathLength="3333" clip-path="url(#z22265c6)" d="M 355 545 L 411 554 L 582 509 L 612 539 L 513 648"/>
    <path id="stroke-p7" style="stroke:#000" pathLength="3333" clip-path="url(#z22265c7)" d="M 437 622 L 528 689 L 550 739"/>
    <path id="stroke-p8" style="stroke:#000" pathLength="3333" clip-path="url(#z22265c8)" d="M 240 823 L 619 785 L 753 797"/>
</g>
</svg>