<svg id="z22282" class="acjk" viewBox="0 0 1024 1024" xmlns="http://www.w3.org/2000/svg">
<style>
<![CDATA[
svg.acjk path[clip-path] {
    animation-duration: 11.3s;
    animation-timing-function: linear;
    animation-iteration-count: infinite;
    stroke-dasharray: 3337;
    stroke-dashoffset: 3339;
    stroke-width: 128;
    stroke-linecap: round;
    fill: none;
    stroke: #FF4444;
}
svg.acjk .bg { fill: #ccc; opacity: 0.5; }

/* Stroke 1: Starts at 0.0%, finishes at 7.1%, holds until 77.9% */
@keyframes zk1 {
    0%, 0.0% { stroke-dashoffset: 3339; }
    7.1%, 77.9% { stroke-dashoffset: 0; }
    78.0%, 100% { stroke-dashoffset: 3339; }
}
svg.acjk #stroke-p1 { animation-name: zk1; }
/* Stroke 2: Starts at 7.1%, finishes at 14.2%, holds until 77.9% */
@keyframes zk2 {
    0%, 7.1% { stroke-dashoffset: 3339; }
    14.2%, 77.9% { stroke-dashoffset: 0; }
    78.0%, 100% { stroke-dashoffset: 3339; }
}
svg.acjk #stroke-p2 { animation-name: zk2; }
/* Stroke 3: Starts at 14.2%, finishes at 21.2%, holds until 77.9% */
@keyframes zk3 {
    0%, 14.2% { stroke-dashoffset: 3339; }
    21.2%, 77.9% { stroke-dashoffset: 0; }
    78.0%, 100% { stroke-dashoffset: 3339; }
}
svg.acjk #stroke-p3 { animation-name: zk3; }
/* Stroke 4: Starts at 21.2%, finishes at 28.3%, holds until 77.9% */
@keyframes zk4 {
    0%, 21.2% { stroke-dashoffset: 3339; }
    28.3%, 77.9% { stroke-dashoffset: 0; }
    78.0%, 100% { stroke-dashoffset: 3339; }
}
svg.acjk #stroke-p4 { animation-name: zk4; }
/* Stroke 5: Starts at 28.3%, finishes at 35.4%, holds until 77.9% */
@keyframes zk5 {
    0%, 28.3% { stroke-dashoffset: 3339; }
    35.4%, 77.9% { stroke-dashoffset: 0; }
    78.0%, 100% { stroke-dashoffset: 3339; }
}
svg.acjk #stroke-p5 { animation-name: zk5; }
/* Stroke 6: Starts at 35.4%, finishes at 42.5%, holds until 77.9% */
@keyframes zk6 {
    0%, 35.4% { stroke-dashoffset: 3339; }
    42.5%, 77.9% { stroke-dashoffset: 0; }
    78.0%, 100% { stroke-dashoffset: 3339; }
}
svg.acjk #stroke-p6 { animation-name: zk6; }
/* Stroke 7: Starts at 42.5%, finishes at 49.6%, holds until 77.9% */
@keyframes zk7 {
    0%, 42.5% { stroke-dashoffset: 3339; }
    49.6%, 77.9% { stroke-dashoffset: 0; }
    78.0%, 100% { stroke-dashoffset: 3339; }
}
svg.acjk #stroke-p7 { animation-name: zk7; }
/* Stroke 8: Starts at 49.6%, finishes at 56.6%, holds until 77.9% */
@keyframes zk8 {
    0%, 49.6% { stroke-dashoffset: 3339; }
    56.6%, 77.9% { stroke-dashoffset: 0; }
    78.0%, 100% { stroke-dashoffset: 3339; }
}
svg.acjk #stroke-p8 { animation-name: zk8; }
/* Stroke 9: Starts at 56.6%, finishes at 63.7%, holds until 77.9% */
@keyframes zk9 {
    0%, 56.6% { stroke-dashoffset: 3339; }
    63.7%, 77.9% { stroke-dashoffset: 0; }
    78.0%, 100% { stroke-dashoffset: 3339; }
}
svg.acjk #stroke-p9 { animation-name: zk9; }
/* Stroke 10: Starts at 63.7%, finishes at 70.8%, holds until 77.9% */
@keyframes zk10 {
    0%, 63.7% { stroke-dashoffset: 3339; }
    70.8%, 77.9% { stroke-dashoffset: 0; }
    78.0%, 100% { stroke-dashoffset: 3339; }
}
svg.acjk #stroke-p10 { animation-name: zk10; }
/* Stroke 11: Starts at 70.8%, finishes at 77.9%, holds until 77.9% */
@keyframes zk11 {
    0%, 70.8% { stroke-dashoffset: 3339; }
    77.9%, 77.9% { stroke-dashoffset: 0; }
    78.0%, 100% { stroke-dashoffset: 3339; }
}
svg.acjk #stroke-p11 { animation-name: zk11; }
]]>
</style>
<defs>
    <path id="p1" d="M 251 168 C 242 159 227 150 208 141 C 199 137 190 135 182 140 C 175 143 176 150 180 161 C 197 221 205 264 206 288 C 207 518 192 678 167 771 C 154 818 162 859 190 893 C 198 903 207 904 216 895 C 223 886 229 876 231 865 C 234 840 234 840 236 828 C 239 802 239 769 241 730 C 252 390 260 216 264 209 C 267 195 262 177 251 168 Z"/>
    <path id="p2" d="M 732 846 C 740 854 753 874 771 908 C 778 922 786 930 797 930 C 805 929 811 921 819 907 C 839 868 836 786 828 657 C 808 376 811 218 824 200 C 826 195 828 191 832 188 C 840 179 843 172 843 166 C 842 157 830 145 808 130 C 769 102 737 94 711 103 C 698 107 678 110 652 114 C 545 127 428 143 300 165 C 283 167 262 169 251 168 C 237 168 251 214 264 209 C 304 194 409 176 578 157 C 620 152 661 148 701 146 C 717 145 726 150 733 158 C 747 175 757 287 761 497 C 763 623 765 701 768 731 C 770 763 767 786 761 801 C 757 809 754 813 750 814 C 747 814 743 814 738 813 C 727 811 725 837 732 846 Z"/>
    <path id="p3" d="M 520 284 C 537 280 555 276 577 272 C 597 268 608 263 611 261 C 615 256 616 253 614 249 C 610 243 602 237 587 234 C 571 230 551 237 525 245 C 490 254 490 254 473 259 C 456 263 406 269 386 272 C 367 274 364 280 378 289 C 399 303 422 303 475 293 C 505 287 505 287 520 284 Z"/>
    <path id="p4" d="M 513 364 C 533 360 555 355 579 351 C 597 347 608 343 611 341 C 615 336 616 333 614 329 C 610 323 602 317 587 314 C 571 310 548 318 516 327 C 489 334 489 334 476 337 C 461 340 414 345 394 348 C 375 350 373 356 386 365 C 401 375 432 379 477 371 C 501 366 501 366 513 364 Z"/>
    <path id="p5" d="M 509 410 C 509 394 511 378 513 364 C 515 339 515 339 516 327 C 517 312 518 298 520 284 C 523 258 523 258 525 245 C 526 237 530 226 532 221 C 533 216 530 209 520 202 C 503 191 488 185 476 184 C 468 183 461 184 458 188 C 453 191 453 198 458 205 C 467 219 471 237 473 259 C 474 282 474 282 475 293 C 475 307 475 321 476 337 C 477 360 477 360 477 371 C 477 386 477 416 477 416 C 477 427 509 421 509 410 Z"/>
    <path id="p6" d="M 477 416 C 422 426 363 434 301 445 C 290 446 289 452 298 461 C 315 477 337 481 363 473 C 457 443 575 428 718 428 C 718 428 719 428 720 428 C 730 428 737 425 740 420 C 742 413 739 406 730 400 C 696 377 661 375 623 386 C 591 394 553 401 509 410 C 488 414 488 414 477 416 Z"/>
    <path id="p7" d="M 416 660 C 417 639 419 621 420 607 C 421 590 421 590 421 581 C 422 554 422 541 426 529 C 429 522 430 512 424 507 C 408 491 387 484 379 486 C 371 487 371 492 373 499 C 389 556 381 634 368 699 C 360 732 357 756 372 777 C 376 783 379 787 385 784 C 406 768 412 732 415 679 C 416 666 416 666 416 660 Z"/>
    <path id="p8" d="M 426 529 C 434 529 445 526 458 523 C 519 507 556 502 566 507 C 573 510 574 520 576 536 C 581 596 585 651 584 700 C 583 710 580 715 575 718 C 568 720 547 719 512 715 C 505 714 501 716 502 720 C 502 724 508 727 518 734 C 541 749 559 767 576 785 C 584 793 594 797 604 796 C 610 795 617 784 627 765 C 637 744 641 724 640 704 C 636 655 633 608 630 563 C 628 545 631 528 639 514 C 644 504 645 496 637 489 C 626 479 609 472 588 465 C 575 460 564 461 554 467 C 545 471 532 477 515 482 C 474 493 444 501 424 507 C 417 508 419 529 426 529 Z"/>
    <path id="p9" d="M 420 607 C 460 599 495 593 525 589 C 537 587 542 581 537 574 C 530 565 520 561 507 560 C 485 557 456 565 421 581 C 413 584 411 609 420 607 Z"/>
    <path id="p10" d="M 415 679 C 417 679 456 676 532 668 C 544 666 549 661 545 654 C 539 645 529 640 515 638 C 497 635 464 642 416 660 C 410 662 409 679 415 679 Z"/>
    <path id="p11" d="M 231 865 C 237 867 246 868 256 867 C 356 852 515 845 732 846 C 743 846 747 820 738 813 C 732 808 727 803 723 800 C 711 791 693 790 670 793 C 509 814 364 825 236 828 C 224 828 219 863 231 865 Z"/>

    <clipPath id="z22282c1"><use href="#p1"/></clipPath>
    <clipPath id="z22282c2"><use href="#p2"/></clipPath>
    <clipPath id="z22282c3"><use href="#p3"/></clipPath>
    <clipPath id="z22282c4"><use href="#p4"/></clipPath>
    <clipPath id="z22282c5"><use href="#p5"/></clipPath>
    <clipPath id="z22282c6"><use href="#p6"/></clipPath>
    <clipPath id="z22282c7"><use href="#p7"/></clipPath>
    <clipPath id="z22282c8"><use href="#p8"/></clipPath>
    <clipPath id="z22282c9"><use href="#p9"/></clipPath>
    <clipPath id="z22282c10"><use href="#p10"/></clipPath>
    <clipPath id="z22282c11"><use href="#p11"/></clipPath>
</defs>
<g id="bg-layer" class="bg">
<use href="#p1"/>
<use href="#p2"/>
<use href="#p3"/>
<use href="#p4"/>
<use href="#p5"/>
<use href="#p6"/>
<use href="#p7"/>
<use href="#p8"/>
<use href="#p9"/>
<use href="#p10"/>
<use href="#p11"/>
</g>
<g id="anim-layer">
    <path id="stroke-p1" style="stroke:#FF4444" pathLength="3333" clip-path="url(#z22282c1)" d="M 186 147 L 221 186 L 232 266 L 203 897"/>
    <path id="stroke-p2" style="stroke:#FF4444" pathLength="3333" clip-path="url(#z22282c2)" d="M 260 172 L 294 184 L 716 123 L 792 172 L 801 795 L 782 876 L 736 838"/>
    <path id="stroke-p3" style="stroke:#000" pathLength="3333" clip-path="url(#z22282c3)" d="M 381 281 L 606 251"/>
    <path id="stroke-p4" style="stroke:#000" pathLength="3333" clip-path="url(#z22282c4)" d="M 389 357 L 607 331"/>
    <path id="stroke-p5" style="stroke:#000" pathLength="3333" clip-path="url(#z22282c5)" d="M 462 193 L 501 227 L 487 411"/>
    <path id="stroke-p6" style="stroke:#000" pathLength="3333" clip-path="url(#z22282c6)" d="M 300 452 L 633 406 L 736 415"/>
    <path id="stroke-p7" style="stroke:#000" pathLength="3333" clip-path="url(#z22282c7)" d="M 380 493 L 405 531 L 382 775"/>
    <path id="stroke-p8" style="stroke:#000" pathLength="3333" clip-path="url(#z22282c8)" d="M 434 521 L 568 485 L 607 506 L 607 730 L 589 757 L 509 722"/>
    <path id="stroke-p9" style="stroke:#000" pathLength="3333" clip-path="url(#z22282c9)" d="M 427 598 L 534 574"/>
    <path id="stroke-p10" style="stroke:#000" pathLength="3333" clip-path="url(#z22282c10)" d="M 418 672 L 542 655"/>
    <path id="stroke-p11" style="stroke:#000" pathLength="3333" clip-path="url(#z22282c11)" d="M 239 860 L 732 818"/>
</g>
</svg>