<svg id="z22363" class="acjk" viewBox="0 0 1024 1024" xmlns="http://www.w3.org/2000/svg">
<style>
<![CDATA[
svg.acjk path[clip-path] {
    animation-duration: 8.100000000000001s;
    animation-timing-function: linear;
    animation-iteration-count: infinite;
    stroke-dasharray: 3337;
    stroke-dashoffset: 3339;
    stroke-width: 128;
    stroke-linecap: round;
    fill: none;
    stroke: #FF4444;
}
svg.acjk .bg { fill: #ccc; opacity: 0.5; }

/* Stroke 1: Starts at 0.0%, finishes at 9.9%, holds until 69.1% */
@keyframes zk1 {
    0%, 0.0% { stroke-dashoffset: 3339; }
    9.9%, 69.1% { stroke-dashoffset: 0; }
    69.2%, 100% { stroke-dashoffset: 3339; }
}
svg.acjk #stroke-p1 { animation-name: zk1; }
/* Stroke 2: Starts at 9.9%, finishes at 19.8%, holds until 69.1% */
@keyframes zk2 {
    0%, 9.9% { stroke-dashoffset: 3339; }
    19.8%, 69.1% { stroke-dashoffset: 0; }
    69.2%, 100% { stroke-dashoffset: 3339; }
}
svg.acjk #stroke-p2 { animation-name: zk2; }
/* Stroke 3: Starts at 19.8%, finishes at 29.6%, holds until 69.1% */
@keyframes zk3 {
    0%, 19.8% { stroke-dashoffset: 3339; }
    29.6%, 69.1% { stroke-dashoffset: 0; }
    69.2%, 100% { stroke-dashoffset: 3339; }
}
svg.acjk #stroke-p3 { animation-name: zk3; }
/* Stroke 4: Starts at 29.6%, finishes at 39.5%, holds until 69.1% */
@keyframes zk4 {
    0%, 29.6% { stroke-dashoffset: 3339; }
    39.5%, 69.1% { stroke-dashoffset: 0; }
    69.2%, 100% { stroke-dashoffset: 3339; }
}
svg.acjk #stroke-p4 { animation-name: zk4; }
/* Stroke 5: Starts at 39.5%, finishes at 49.4%, holds until 69.1% */
@keyframes zk5 {
    0%, 39.5% { stroke-dashoffset: 3339; }
    49.4%, 69.1% { stroke-dashoffset: 0; }
    69.2%, 100% { stroke-dashoffset: 3339; }
}
svg.acjk #stroke-p5 { animation-name: zk5; }
/* Stroke 6: Starts at 49.4%, finishes at 59.3%, holds until 69.1% */
@keyframes zk6 {
    0%, 49.4% { stroke-dashoffset: 3339; }
    59.3%, 69.1% { stroke-dashoffset: 0; }
    69.2%, 100% { stroke-dashoffset: 3339; }
}
svg.acjk #stroke-p6 { animation-name: zk6; }
/* Stroke 7: Starts at 59.3%, finishes at 69.1%, holds until 69.1% */
@keyframes zk7 {
    0%, 59.3% { stroke-dashoffset: 3339; }
    69.1%, 69.1% { stroke-dashoffset: 0; }
    69.2%, 100% { stroke-dashoffset: 3339; }
}
svg.acjk #stroke-p7 { animation-name: zk7; }
]]>
</style>
<defs>
    <path id="p1" d="M 312 395 C 366 379 396 369 401 365 C 407 359 407 353 404 348 C 399 340 386 333 366 331 C 347 328 330 332 314 339 C 281 352 281 352 264 359 C 224 374 180 383 135 393 C 110 398 107 408 126 417 C 155 430 189 431 226 420 C 238 416 250 412 264 409 C 296 400 296 400 312 395 Z"/>
    <path id="p2" d="M 302 604 C 306 532 309 462 312 395 C 313 358 313 358 314 339 C 316 263 323 198 338 145 C 340 136 335 126 320 117 C 296 102 274 96 256 93 C 243 90 235 92 230 99 C 225 103 224 112 231 123 C 248 152 259 175 260 194 C 262 246 264 301 264 359 C 264 392 264 392 264 409 C 264 475 261 546 258 620 C 258 636 302 620 302 604 Z"/>
    <path id="p3" d="M 258 620 C 165 653 106 670 83 673 C 72 674 67 679 67 687 C 66 695 69 703 77 709 C 93 720 114 731 140 742 C 146 744 154 741 163 734 C 187 712 248 674 348 620 C 362 612 374 602 385 594 C 393 587 400 581 398 575 C 395 569 386 570 379 573 C 354 582 329 594 302 604 C 273 615 273 615 258 620 Z"/>
    <path id="p4" d="M 518 278 C 490 282 486 291 507 304 C 536 321 573 322 618 311 C 663 299 711 289 759 278 C 781 272 793 267 796 264 C 802 257 804 251 800 245 C 794 236 780 228 758 225 C 735 221 712 226 690 235 C 666 244 641 253 614 260 C 584 267 552 272 518 278 Z"/>
    <path id="p5" d="M 613 482 C 655 474 750 457 906 457 C 920 457 930 454 933 448 C 936 439 932 429 921 422 C 884 397 853 389 829 396 C 748 416 606 443 404 477 C 389 479 387 485 399 497 C 415 513 443 519 481 510 C 507 503 534 496 564 491 C 597 485 597 485 613 482 Z"/>
    <path id="p6" d="M 770 699 C 691 709 609 723 525 743 C 516 745 510 746 508 744 C 505 741 506 735 512 728 C 586 615 632 550 650 532 C 657 524 659 517 655 509 C 651 502 637 493 613 482 C 599 473 561 475 564 491 C 580 539 549 616 468 716 C 455 731 435 742 417 758 C 399 772 407 794 439 820 C 447 826 455 826 464 819 C 499 790 606 759 784 724 C 793 722 779 697 770 699 Z"/>
    <path id="p7" d="M 784 724 C 822 792 840 831 846 834 C 851 837 858 835 866 830 C 876 823 882 804 883 772 C 883 742 861 704 817 660 C 781 624 752 597 732 580 C 727 575 721 576 718 584 C 714 592 715 602 721 611 C 736 638 752 667 770 699 C 779 716 779 716 784 724 Z"/>

    <clipPath id="z22363c1"><use href="#p1"/></clipPath>
    <clipPath id="z22363c2"><use href="#p2"/></clipPath>
    <clipPath id="z22363c3"><use href="#p3"/></clipPath>
    <clipPath id="z22363c4"><use href="#p4"/></clipPath>
    <clipPath id="z22363c5"><use href="#p5"/></clipPath>
    <clipPath id="z22363c6"><use href="#p6"/></clipPath>
    <clipPath id="z22363c7"><use href="#p7"/></clipPath>
</defs>
<g id="bg-layer" class="bg">
<use href="#p1"/>
<use href="#p2"/>
<use href="#p3"/>
<use href="#p4"/>
<use href="#p5"/>
<use href="#p6"/>
<use href="#p7"/>
</g>
<g id="anim-layer">
    <path id="stroke-p1" style="stroke:#FF4444" pathLength="3333" clip-path="url(#z22363c1)" d="M 122 406 L 401 352"/>
    <path id="stroke-p2" style="stroke:#FF4444" pathLength="3333" clip-path="url(#z22363c2)" d="M 233 103 L 296 155 L 271 614"/>
    <path id="stroke-p3" style="stroke:#FF4444" pathLength="3333" clip-path="url(#z22363c3)" d="M 72 688 L 145 700 L 390 579"/>
    <path id="stroke-p4" style="stroke:#000" pathLength="3333" clip-path="url(#z22363c4)" d="M 500 289 L 569 294 L 796 249"/>
    <path id="stroke-p5" style="stroke:#000" pathLength="3333" clip-path="url(#z22363c5)" d="M 405 488 L 832 426 L 927 442"/>
    <path id="stroke-p6" style="stroke:#000" pathLength="3333" clip-path="url(#z22363c6)" d="M 573 496 L 611 532 L 462 755 L 467 774 L 777 718"/>
    <path id="stroke-p7" style="stroke:#000" pathLength="3333" clip-path="url(#z22363c7)" d="M 726 584 L 829 730 L 863 830"/>
</g>
</svg>