<svg id="z22420" class="acjk" viewBox="0 0 1024 1024" xmlns="http://www.w3.org/2000/svg">
<style>
<![CDATA[
svg.acjk path[clip-path] {
    animation-duration: 9.7s;
    animation-timing-function: linear;
    animation-iteration-count: infinite;
    stroke-dasharray: 3337;
    stroke-dashoffset: 3339;
    stroke-width: 128;
    stroke-linecap: round;
    fill: none;
    stroke: #FF4444;
}
svg.acjk .bg { fill: #ccc; opacity: 0.5; }

/* Stroke 1: Starts at 0.0%, finishes at 8.2%, holds until 74.2% */
@keyframes zk1 {
    0%, 0.0% { stroke-dashoffset: 3339; }
    8.2%, 74.2% { stroke-dashoffset: 0; }
    74.3%, 100% { stroke-dashoffset: 3339; }
}
svg.acjk #stroke-p1 { animation-name: zk1; }
/* Stroke 2: Starts at 8.2%, finishes at 16.5%, holds until 74.2% */
@keyframes zk2 {
    0%, 8.2% { stroke-dashoffset: 3339; }
    16.5%, 74.2% { stroke-dashoffset: 0; }
    74.3%, 100% { stroke-dashoffset: 3339; }
}
svg.acjk #stroke-p2 { animation-name: zk2; }
/* Stroke 3: Starts at 16.5%, finishes at 24.7%, holds until 74.2% */
@keyframes zk3 {
    0%, 16.5% { stroke-dashoffset: 3339; }
    24.7%, 74.2% { stroke-dashoffset: 0; }
    74.3%, 100% { stroke-dashoffset: 3339; }
}
svg.acjk #stroke-p3 { animation-name: zk3; }
/* Stroke 4: Starts at 24.7%, finishes at 33.0%, holds until 74.2% */
@keyframes zk4 {
    0%, 24.7% { stroke-dashoffset: 3339; }
    33.0%, 74.2% { stroke-dashoffset: 0; }
    74.3%, 100% { stroke-dashoffset: 3339; }
}
svg.acjk #stroke-p4 { animation-name: zk4; }
/* Stroke 5: Starts at 33.0%, finishes at 41.2%, holds until 74.2% */
@keyframes zk5 {
    0%, 33.0% { stroke-dashoffset: 3339; }
    41.2%, 74.2% { stroke-dashoffset: 0; }
    74.3%, 100% { stroke-dashoffset: 3339; }
}
svg.acjk #stroke-p5 { animation-name: zk5; }
/* Stroke 6: Starts at 41.2%, finishes at 49.5%, holds until 74.2% */
@keyframes zk6 {
    0%, 41.2% { stroke-dashoffset: 3339; }
    49.5%, 74.2% { stroke-dashoffset: 0; }
    74.3%, 100% { stroke-dashoffset: 3339; }
}
svg.acjk #stroke-p6 { animation-name: zk6; }
/* Stroke 7: Starts at 49.5%, finishes at 57.7%, holds until 74.2% */
@keyframes zk7 {
    0%, 49.5% { stroke-dashoffset: 3339; }
    57.7%, 74.2% { stroke-dashoffset: 0; }
    74.3%, 100% { stroke-dashoffset: 3339; }
}
svg.acjk #stroke-p7 { animation-name: zk7; }
/* Stroke 8: Starts at 57.7%, finishes at 66.0%, holds until 74.2% */
@keyframes zk8 {
    0%, 57.7% { stroke-dashoffset: 3339; }
    66.0%, 74.2% { stroke-dashoffset: 0; }
    74.3%, 100% { stroke-dashoffset: 3339; }
}
svg.acjk #stroke-p8 { animation-name: zk8; }
/* Stroke 9: Starts at 66.0%, finishes at 74.2%, holds until 74.2% */
@keyframes zk9 {
    0%, 66.0% { stroke-dashoffset: 3339; }
    74.2%, 74.2% { stroke-dashoffset: 0; }
    74.3%, 100% { stroke-dashoffset: 3339; }
}
svg.acjk #stroke-p9 { animation-name: zk9; }
]]>
</style>
<defs>
    <path id="p1" d="M 567 171 Q 732 144 740 138 Q 750 131 746 121 Q 739 108 709 98 Q 678 88 644 99 Q 571 118 493 133 Q 406 146 305 149 Q 265 153 292 173 Q 338 201 396 193 Q 397 192 400 193 C 421 190 421 190 432 189 Q 475 182 523 177 C 552 173 552 173 567 171 Z"/>
    <path id="p2" d="M 273 311 Q 252 301 231 296 Q 224 293 219 299 Q 212 306 221 317 Q 263 372 279 507 Q 282 561 319 592 Q 322 595 327 597 Q 343 601 344 573 C 341 547 341 547 340 534 Q 319 462 306 347 C 303 331 288 317 273 311 Z"/>
    <path id="p3" d="M 671 544 Q 686 566 700 575 Q 710 585 729 563 Q 748 535 791 385 Q 803 351 829 326 Q 844 313 832 297 Q 817 278 772 248 Q 753 236 688 252 Q 615 258 583 267 C 554 271 554 271 539 273 Q 502 277 466 285 C 436 290 436 290 421 292 Q 339 304 273 311 C 257 314 292 355 306 347 Q 310 341 421 323 C 450 318 450 318 464 315 Q 497 308 537 303 C 564 300 564 300 577 298 Q 701 274 730 296 Q 746 309 739 332 Q 700 489 680 506 C 671 515 663 534 671 544 Z"/>
    <path id="p4" d="M 400 193 Q 400 197 406 205 Q 418 220 421 292 C 421 313 421 313 421 323 Q 412 392 365 451 Q 355 461 352 467 Q 351 471 360 472 Q 411 466 447 392 Q 456 365 464 315 C 465 295 465 295 466 285 Q 469 234 472 223 Q 476 207 459 200 Q 443 193 432 189 C 422 185 398 182 400 193 Z"/>
    <path id="p5" d="M 583 267 Q 590 239 601 209 Q 605 196 598 186 Q 588 177 567 171 C 553 166 515 164 523 177 Q 524 181 530 189 Q 539 201 539 273 C 538 293 538 293 537 303 Q 536 325 534 350 Q 530 405 553 424 Q 571 440 650 433 Q 681 432 692 416 Q 701 406 694 399 Q 685 393 610 392 Q 562 392 577 298 C 581 277 581 277 583 267 Z"/>
    <path id="p6" d="M 495 555 Q 570 548 671 544 C 684 544 689 515 680 506 Q 676 502 670 498 Q 652 486 617 493 Q 464 521 340 534 C 327 536 331 573 344 573 Q 345 573 349 573 Q 392 563 461 558 C 484 556 484 556 495 555 Z"/>
    <path id="p7" d="M 533 728 Q 585 718 640 711 Q 689 702 697 696 Q 707 687 703 678 Q 696 663 663 654 Q 635 647 537 672 C 497 681 497 681 477 686 Q 410 696 334 699 Q 292 703 320 724 Q 362 751 445 739 Q 460 736 477 736 C 514 731 514 731 533 728 Z"/>
    <path id="p8" d="M 526 835 Q 529 777 533 728 C 536 691 536 691 537 672 Q 540 591 541 590 C 540 589 540 589 540 589 Q 516 565 495 555 C 485 549 461 547 461 558 Q 458 564 471 585 Q 474 594 477 686 C 477 719 477 719 477 736 Q 477 779 477 840 C 477 856 526 851 526 835 Z"/>
    <path id="p9" d="M 477 840 Q 323 852 145 865 Q 118 866 137 889 Q 173 928 223 918 Q 463 864 886 887 Q 911 888 918 878 Q 925 865 905 845 Q 838 791 767 806 Q 670 819 526 835 C 493 838 493 838 477 840 Z"/>

    <clipPath id="z22420c1"><use href="#p1"/></clipPath>
    <clipPath id="z22420c2"><use href="#p2"/></clipPath>
    <clipPath id="z22420c3"><use href="#p3"/></clipPath>
    <clipPath id="z22420c4"><use href="#p4"/></clipPath>
    <clipPath id="z22420c5"><use href="#p5"/></clipPath>
    <clipPath id="z22420c6"><use href="#p6"/></clipPath>
    <clipPath id="z22420c7"><use href="#p7"/></clipPath>
    <clipPath id="z22420c8"><use href="#p8"/></clipPath>
    <clipPath id="z22420c9"><use href="#p9"/></clipPath>
</defs>
<g id="bg-layer" class="bg">
<use href="#p1"/>
<use href="#p2"/>
<use href="#p3"/>
<use href="#p4"/>
<use href="#p5"/>
<use href="#p6"/>
<use href="#p7"/>
<use href="#p8"/>
<use href="#p9"/>
</g>
<g id="anim-layer">
    <path id="stroke-p1" style="stroke:#FF4444" pathLength="3333" clip-path="url(#z22420c1)" d="M 288 158 L 385 169 L 742 123"/>
    <path id="stroke-p2" style="stroke:#FF4444" pathLength="3333" clip-path="url(#z22420c2)" d="M 224 304 L 277 357 L 327 593"/>
    <path id="stroke-p3" style="stroke:#FF4444" pathLength="3333" clip-path="url(#z22420c3)" d="M 278 316 L 751 273 L 789 315 L 704 573"/>
    <path id="stroke-p4" style="stroke:#FF4444" pathLength="3333" clip-path="url(#z22420c4)" d="M 410 194 L 444 224 L 439 340 L 412 414 L 360 467"/>
    <path id="stroke-p5" style="stroke:#FF4444" pathLength="3333" clip-path="url(#z22420c5)" d="M 530 175 L 569 205 L 564 398 L 692 407"/>
    <path id="stroke-p6" style="stroke:#FF4444" pathLength="3333" clip-path="url(#z22420c6)" d="M 334 555 L 682 524"/>
    <path id="stroke-p7" style="stroke:#000" pathLength="3333" clip-path="url(#z22420c7)" d="M 315 710 L 399 719 L 698 686"/>
    <path id="stroke-p8" style="stroke:#000" pathLength="3333" clip-path="url(#z22420c8)" d="M 466 559 L 507 599 L 497 848"/>
    <path id="stroke-p9" style="stroke:#000" pathLength="3333" clip-path="url(#z22420c9)" d="M 137 876 L 203 890 L 795 842 L 915 863"/>
</g>
</svg>