<svg id="z22432" class="acjk" viewBox="0 0 1024 1024" xmlns="http://www.w3.org/2000/svg">
<style>
<![CDATA[
svg.acjk path[clip-path] {
    animation-duration: 9.7s;
    animation-timing-function: linear;
    animation-iteration-count: infinite;
    stroke-dasharray: 3337;
    stroke-dashoffset: 3339;
    stroke-width: 128;
    stroke-linecap: round;
    fill: none;
    stroke: #FF4444;
}
svg.acjk .bg { fill: #ccc; opacity: 0.5; }

/* Stroke 1: Starts at 0.0%, finishes at 8.2%, holds until 74.2% */
@keyframes zk1 {
    0%, 0.0% { stroke-dashoffset: 3339; }
    8.2%, 74.2% { stroke-dashoffset: 0; }
    74.3%, 100% { stroke-dashoffset: 3339; }
}
svg.acjk #stroke-p1 { animation-name: zk1; }
/* Stroke 2: Starts at 8.2%, finishes at 16.5%, holds until 74.2% */
@keyframes zk2 {
    0%, 8.2% { stroke-dashoffset: 3339; }
    16.5%, 74.2% { stroke-dashoffset: 0; }
    74.3%, 100% { stroke-dashoffset: 3339; }
}
svg.acjk #stroke-p2 { animation-name: zk2; }
/* Stroke 3: Starts at 16.5%, finishes at 24.7%, holds until 74.2% */
@keyframes zk3 {
    0%, 16.5% { stroke-dashoffset: 3339; }
    24.7%, 74.2% { stroke-dashoffset: 0; }
    74.3%, 100% { stroke-dashoffset: 3339; }
}
svg.acjk #stroke-p3 { animation-name: zk3; }
/* Stroke 4: Starts at 24.7%, finishes at 33.0%, holds until 74.2% */
@keyframes zk4 {
    0%, 24.7% { stroke-dashoffset: 3339; }
    33.0%, 74.2% { stroke-dashoffset: 0; }
    74.3%, 100% { stroke-dashoffset: 3339; }
}
svg.acjk #stroke-p4 { animation-name: zk4; }
/* Stroke 5: Starts at 33.0%, finishes at 41.2%, holds until 74.2% */
@keyframes zk5 {
    0%, 33.0% { stroke-dashoffset: 3339; }
    41.2%, 74.2% { stroke-dashoffset: 0; }
    74.3%, 100% { stroke-dashoffset: 3339; }
}
svg.acjk #stroke-p5 { animation-name: zk5; }
/* Stroke 6: Starts at 41.2%, finishes at 49.5%, holds until 74.2% */
@keyframes zk6 {
    0%, 41.2% { stroke-dashoffset: 3339; }
    49.5%, 74.2% { stroke-dashoffset: 0; }
    74.3%, 100% { stroke-dashoffset: 3339; }
}
svg.acjk #stroke-p6 { animation-name: zk6; }
/* Stroke 7: Starts at 49.5%, finishes at 57.7%, holds until 74.2% */
@keyframes zk7 {
    0%, 49.5% { stroke-dashoffset: 3339; }
    57.7%, 74.2% { stroke-dashoffset: 0; }
    74.3%, 100% { stroke-dashoffset: 3339; }
}
svg.acjk #stroke-p7 { animation-name: zk7; }
/* Stroke 8: Starts at 57.7%, finishes at 66.0%, holds until 74.2% */
@keyframes zk8 {
    0%, 57.7% { stroke-dashoffset: 3339; }
    66.0%, 74.2% { stroke-dashoffset: 0; }
    74.3%, 100% { stroke-dashoffset: 3339; }
}
svg.acjk #stroke-p8 { animation-name: zk8; }
/* Stroke 9: Starts at 66.0%, finishes at 74.2%, holds until 74.2% */
@keyframes zk9 {
    0%, 66.0% { stroke-dashoffset: 3339; }
    74.2%, 74.2% { stroke-dashoffset: 0; }
    74.3%, 100% { stroke-dashoffset: 3339; }
}
svg.acjk #stroke-p9 { animation-name: zk9; }
]]>
</style>
<defs>
    <path id="p1" d="M 301 420 C 352 404 379 392 382 389 C 398 371 374 358 345 356 C 329 354 314 357 302 363 C 269 376 269 376 252 383 C 199 404 152 415 117 425 C 92 431 90 440 110 449 C 159 470 205 449 252 435 C 285 425 285 425 301 420 Z"/>
    <path id="p2" d="M 295 593 C 297 534 300 476 301 420 C 302 382 302 382 302 363 C 303 278 311 214 323 172 C 325 164 319 153 304 145 C 279 131 257 125 240 122 C 223 119 198 125 215 152 C 244 199 252 261 252 383 C 252 418 252 418 252 435 C 252 491 251 550 250 612 C 250 628 295 609 295 593 Z"/>
    <path id="p3" d="M 250 612 C 210 628 175 641 125 660 C 112 664 96 665 77 669 C 55 672 59 697 72 705 C 89 715 110 726 136 736 C 143 738 151 735 159 728 C 196 691 349 606 385 578 C 407 559 399 548 378 558 C 350 570 323 580 295 593 C 265 606 265 606 250 612 Z"/>
    <path id="p4" d="M 636 417 C 646 440 665 432 677 412 C 684 397 695 358 709 294 C 716 257 734 228 759 205 C 772 192 771 181 760 171 C 747 160 721 148 686 131 C 648 112 649 136 480 181 C 468 183 478 220 489 216 C 516 206 540 197 631 176 C 651 171 666 171 661 218 C 656 260 646 318 631 393 C 629 401 632 410 636 417 Z"/>
    <path id="p5" d="M 487 322 C 487 321 519 315 586 298 C 618 289 592 265 560 265 C 532 264 508 273 486 290 C 478 297 477 324 487 322 Z"/>
    <path id="p6" d="M 488 442 C 528 436 586 425 636 417 C 644 415 638 398 631 393 C 607 369 532 398 488 412 C 479 416 478 444 488 442 Z"/>
    <path id="p7" d="M 488 412 C 488 381 487 351 487 322 C 486 301 486 301 486 290 C 485 263 485 238 489 216 C 491 204 490 188 480 181 C 410 125 396 154 407 175 C 448 254 455 437 433 724 C 430 757 415 791 389 825 C 380 835 379 848 385 864 C 391 882 398 895 409 903 C 417 908 426 905 434 894 C 446 875 501 826 606 752 C 635 730 655 705 592 730 C 571 738 540 753 499 773 C 487 778 480 774 481 764 C 485 661 488 566 488 479 C 488 456 488 456 488 444 C 488 443 488 443 488 442 C 488 422 488 422 488 412 Z"/>
    <path id="p8" d="M 633 576 C 731 511 772 482 804 470 C 818 464 823 454 816 444 C 792 410 767 396 743 398 C 735 398 735 403 734 412 C 726 466 699 482 618 563 C 613 568 628 580 633 576 Z"/>
    <path id="p9" d="M 618 563 C 588 537 561 507 533 476 C 518 459 503 449 488 444 C 477 440 479 472 488 479 C 518 501 561 549 623 622 C 705 719 763 768 794 769 C 863 770 916 765 951 761 C 993 755 986 744 952 732 C 923 722 875 714 810 692 C 746 670 690 625 633 576 C 623 567 623 567 618 563 Z"/>

    <clipPath id="z22432c1"><use href="#p1"/></clipPath>
    <clipPath id="z22432c2"><use href="#p2"/></clipPath>
    <clipPath id="z22432c3"><use href="#p3"/></clipPath>
    <clipPath id="z22432c4"><use href="#p4"/></clipPath>
    <clipPath id="z22432c5"><use href="#p5"/></clipPath>
    <clipPath id="z22432c6"><use href="#p6"/></clipPath>
    <clipPath id="z22432c7"><use href="#p7"/></clipPath>
    <clipPath id="z22432c8"><use href="#p8"/></clipPath>
    <clipPath id="z22432c9"><use href="#p9"/></clipPath>
</defs>
<g id="bg-layer" class="bg">
<use href="#p1"/>
<use href="#p2"/>
<use href="#p3"/>
<use href="#p4"/>
<use href="#p5"/>
<use href="#p6"/>
<use href="#p7"/>
<use href="#p8"/>
<use href="#p9"/>
</g>
<g id="anim-layer">
    <path id="stroke-p1" style="stroke:#FF4444" pathLength="3333" clip-path="url(#z22432c1)" d="M 103 435 L 383 382"/>
    <path id="stroke-p2" style="stroke:#FF4444" pathLength="3333" clip-path="url(#z22432c2)" d="M 214 132 L 280 188 L 263 615"/>
    <path id="stroke-p3" style="stroke:#FF4444" pathLength="3333" clip-path="url(#z22432c3)" d="M 64 685 L 134 698 L 389 559"/>
    <path id="stroke-p4" style="stroke:#000" pathLength="3333" clip-path="url(#z22432c4)" d="M 482 208 L 641 151 L 711 187 L 653 426"/>
    <path id="stroke-p5" style="stroke:#000" pathLength="3333" clip-path="url(#z22432c5)" d="M 486 315 L 594 281"/>
    <path id="stroke-p6" style="stroke:#000" pathLength="3333" clip-path="url(#z22432c6)" d="M 485 432 L 634 408"/>
    <path id="stroke-p7" style="stroke:#000" pathLength="3333" clip-path="url(#z22432c7)" d="M 410 159 L 455 204 L 465 346 L 458 725 L 425 826 L 447 855 L 627 727"/>
    <path id="stroke-p8" style="stroke:#000" pathLength="3333" clip-path="url(#z22432c8)" d="M 743 406 L 769 455 L 629 571"/>
    <path id="stroke-p9" style="stroke:#000" pathLength="3333" clip-path="url(#z22432c9)" d="M 486 448 L 747 704 L 807 731 L 973 751"/>
</g>
</svg>