<svg id="z22456" class="acjk" viewBox="0 0 1024 1024" xmlns="http://www.w3.org/2000/svg">
<style>
<![CDATA[
svg.acjk path[clip-path] {
    animation-duration: 10.5s;
    animation-timing-function: linear;
    animation-iteration-count: infinite;
    stroke-dasharray: 3337;
    stroke-dashoffset: 3339;
    stroke-width: 128;
    stroke-linecap: round;
    fill: none;
    stroke: #FF4444;
}
svg.acjk .bg { fill: #ccc; opacity: 0.5; }

/* Stroke 1: Starts at 0.0%, finishes at 7.6%, holds until 76.2% */
@keyframes zk1 {
    0%, 0.0% { stroke-dashoffset: 3339; }
    7.6%, 76.2% { stroke-dashoffset: 0; }
    76.3%, 100% { stroke-dashoffset: 3339; }
}
svg.acjk #stroke-p1 { animation-name: zk1; }
/* Stroke 2: Starts at 7.6%, finishes at 15.2%, holds until 76.2% */
@keyframes zk2 {
    0%, 7.6% { stroke-dashoffset: 3339; }
    15.2%, 76.2% { stroke-dashoffset: 0; }
    76.3%, 100% { stroke-dashoffset: 3339; }
}
svg.acjk #stroke-p2 { animation-name: zk2; }
/* Stroke 3: Starts at 15.2%, finishes at 22.9%, holds until 76.2% */
@keyframes zk3 {
    0%, 15.2% { stroke-dashoffset: 3339; }
    22.9%, 76.2% { stroke-dashoffset: 0; }
    76.3%, 100% { stroke-dashoffset: 3339; }
}
svg.acjk #stroke-p3 { animation-name: zk3; }
/* Stroke 4: Starts at 22.9%, finishes at 30.5%, holds until 76.2% */
@keyframes zk4 {
    0%, 22.9% { stroke-dashoffset: 3339; }
    30.5%, 76.2% { stroke-dashoffset: 0; }
    76.3%, 100% { stroke-dashoffset: 3339; }
}
svg.acjk #stroke-p4 { animation-name: zk4; }
/* Stroke 5: Starts at 30.5%, finishes at 38.1%, holds until 76.2% */
@keyframes zk5 {
    0%, 30.5% { stroke-dashoffset: 3339; }
    38.1%, 76.2% { stroke-dashoffset: 0; }
    76.3%, 100% { stroke-dashoffset: 3339; }
}
svg.acjk #stroke-p5 { animation-name: zk5; }
/* Stroke 6: Starts at 38.1%, finishes at 45.7%, holds until 76.2% */
@keyframes zk6 {
    0%, 38.1% { stroke-dashoffset: 3339; }
    45.7%, 76.2% { stroke-dashoffset: 0; }
    76.3%, 100% { stroke-dashoffset: 3339; }
}
svg.acjk #stroke-p6 { animation-name: zk6; }
/* Stroke 7: Starts at 45.7%, finishes at 53.3%, holds until 76.2% */
@keyframes zk7 {
    0%, 45.7% { stroke-dashoffset: 3339; }
    53.3%, 76.2% { stroke-dashoffset: 0; }
    76.3%, 100% { stroke-dashoffset: 3339; }
}
svg.acjk #stroke-p7 { animation-name: zk7; }
/* Stroke 8: Starts at 53.3%, finishes at 61.0%, holds until 76.2% */
@keyframes zk8 {
    0%, 53.3% { stroke-dashoffset: 3339; }
    61.0%, 76.2% { stroke-dashoffset: 0; }
    76.3%, 100% { stroke-dashoffset: 3339; }
}
svg.acjk #stroke-p8 { animation-name: zk8; }
/* Stroke 9: Starts at 61.0%, finishes at 68.6%, holds until 76.2% */
@keyframes zk9 {
    0%, 61.0% { stroke-dashoffset: 3339; }
    68.6%, 76.2% { stroke-dashoffset: 0; }
    76.3%, 100% { stroke-dashoffset: 3339; }
}
svg.acjk #stroke-p9 { animation-name: zk9; }
/* Stroke 10: Starts at 68.6%, finishes at 76.2%, holds until 76.2% */
@keyframes zk10 {
    0%, 68.6% { stroke-dashoffset: 3339; }
    76.2%, 76.2% { stroke-dashoffset: 0; }
    76.3%, 100% { stroke-dashoffset: 3339; }
}
svg.acjk #stroke-p10 { animation-name: zk10; }
]]>
</style>
<defs>
    <path id="p1" d="M 285 463 Q 360 439 361 439 Q 368 432 364 423 Q 357 413 327 407 Q 306 404 287 410 C 252 423 252 423 234 430 Q 162 448 123 455 Q 89 464 114 478 Q 159 499 212 481 Q 221 477 235 476 C 268 467 268 467 285 463 Z"/>
    <path id="p2" d="M 279 637 Q 282 547 285 463 C 286 428 286 428 287 410 Q 287 310 307 236 Q 310 224 288 209 Q 251 190 224 186 Q 206 182 198 192 Q 191 199 199 216 Q 227 253 227 281 Q 231 353 234 430 C 235 461 235 461 235 476 Q 236 563 234 657 C 234 673 279 653 279 637 Z"/>
    <path id="p3" d="M 234 657 Q 185 676 133 698 Q 117 705 88 707 Q 75 710 74 721 Q 73 734 84 742 Q 109 755 146 771 Q 156 772 168 762 Q 192 737 339 645 Q 360 632 374 618 Q 386 608 385 599 Q 379 595 367 598 Q 325 617 279 637 C 249 650 249 650 234 657 Z"/>
    <path id="p4" d="M 556 157 Q 590 181 626 210 Q 641 222 657 220 Q 669 219 673 204 Q 676 188 664 158 Q 651 125 547 108 Q 531 105 524 109 Q 520 113 522 127 Q 526 137 556 157 Z"/>
    <path id="p5" d="M 463 299 Q 445 271 429 262 Q 426 258 420 262 Q 416 266 415 277 Q 421 305 394 377 Q 384 395 386 413 Q 390 432 401 447 Q 410 457 414 449 Q 421 448 428 431 Q 432 424 441 397 Q 459 334 465 327 C 470 319 469 306 463 299 Z"/>
    <path id="p6" d="M 465 327 Q 486 339 533 326 Q 627 290 729 279 Q 739 278 745 278 Q 760 282 760 290 Q 760 293 731 351 Q 724 363 729 368 Q 736 372 751 362 Q 803 334 843 327 Q 877 320 877 312 Q 876 302 810 250 Q 786 231 725 247 Q 634 262 529 287 Q 496 294 463 299 C 454 301 456 324 465 327 Z"/>
    <path id="p7" d="M 506 429 Q 469 439 498 453 Q 544 474 598 455 Q 643 443 689 430 Q 711 424 713 421 Q 722 412 716 404 Q 709 392 678 388 Q 647 384 617 399 Q 593 409 568 416 Q 540 423 506 429 Z"/>
    <path id="p8" d="M 679 562 Q 730 553 822 554 Q 841 553 845 545 Q 849 533 833 521 Q 778 484 734 501 Q 604 531 427 563 Q 408 566 422 581 Q 435 593 453 597 Q 472 601 487 597 Q 577 569 627 568 C 662 564 662 564 679 562 Z"/>
    <path id="p9" d="M 500 627 Q 501 718 407 803 Q 404 804 403 806 Q 378 831 313 875 Q 306 882 311 885 Q 338 895 415 848 Q 484 809 546 704 Q 556 688 569 671 Q 578 664 573 653 Q 569 643 541 623 Q 522 610 513 610 Q 500 613 500 627 Z"/>
    <path id="p10" d="M 957 832 Q 944 799 932 702 Q 931 687 925 682 Q 919 679 915 695 Q 888 798 869 830 Q 848 857 773 852 Q 745 851 722 840 Q 703 830 697 817 Q 673 772 700 602 Q 704 578 679 562 C 664 553 618 553 627 568 Q 639 580 640 650 Q 640 651 640 655 Q 631 841 666 874 Q 708 910 808 914 Q 895 911 951 869 Q 969 856 957 832 Z"/>

    <clipPath id="z22456c1"><use href="#p1"/></clipPath>
    <clipPath id="z22456c2"><use href="#p2"/></clipPath>
    <clipPath id="z22456c3"><use href="#p3"/></clipPath>
    <clipPath id="z22456c4"><use href="#p4"/></clipPath>
    <clipPath id="z22456c5"><use href="#p5"/></clipPath>
    <clipPath id="z22456c6"><use href="#p6"/></clipPath>
    <clipPath id="z22456c7"><use href="#p7"/></clipPath>
    <clipPath id="z22456c8"><use href="#p8"/></clipPath>
    <clipPath id="z22456c9"><use href="#p9"/></clipPath>
    <clipPath id="z22456c10"><use href="#p10"/></clipPath>
</defs>
<g id="bg-layer" class="bg">
<use href="#p1"/>
<use href="#p2"/>
<use href="#p3"/>
<use href="#p4"/>
<use href="#p5"/>
<use href="#p6"/>
<use href="#p7"/>
<use href="#p8"/>
<use href="#p9"/>
<use href="#p10"/>
</g>
<g id="anim-layer">
    <path id="stroke-p1" style="stroke:#FF4444" pathLength="3333" clip-path="url(#z22456c1)" d="M 112 467 L 359 429"/>
    <path id="stroke-p2" style="stroke:#FF4444" pathLength="3333" clip-path="url(#z22456c2)" d="M 200 194 L 265 246 L 243 651"/>
    <path id="stroke-p3" style="stroke:#FF4444" pathLength="3333" clip-path="url(#z22456c3)" d="M 78 721 L 142 735 L 380 605"/>
    <path id="stroke-p4" style="stroke:#000" pathLength="3333" clip-path="url(#z22456c4)" d="M 529 117 L 627 167 L 666 211"/>
    <path id="stroke-p5" style="stroke:#000" pathLength="3333" clip-path="url(#z22456c5)" d="M 425 269 L 439 317 L 407 448"/>
    <path id="stroke-p6" style="stroke:#000" pathLength="3333" clip-path="url(#z22456c6)" d="M 470 301 L 507 311 L 757 259 L 823 313 L 734 363"/>
    <path id="stroke-p7" style="stroke:#000" pathLength="3333" clip-path="url(#z22456c7)" d="M 496 442 L 714 414"/>
    <path id="stroke-p8" style="stroke:#000" pathLength="3333" clip-path="url(#z22456c8)" d="M 421 570 L 759 525 L 840 541"/>
    <path id="stroke-p9" style="stroke:#000" pathLength="3333" clip-path="url(#z22456c9)" d="M 513 613 L 536 657 L 487 748 L 426 815 L 318 877"/>
    <path id="stroke-p10" style="stroke:#000" pathLength="3333" clip-path="url(#z22456c10)" d="M 636 572 L 669 605 L 667 810 L 707 865 L 808 883 L 904 852 L 923 692"/>
</g>
</svg>