<svg id="z22516" class="acjk" viewBox="0 0 1024 1024" xmlns="http://www.w3.org/2000/svg">
<style>
<![CDATA[
svg.acjk path[clip-path] {
    animation-duration: 11.3s;
    animation-timing-function: linear;
    animation-iteration-count: infinite;
    stroke-dasharray: 3337;
    stroke-dashoffset: 3339;
    stroke-width: 128;
    stroke-linecap: round;
    fill: none;
    stroke: #FF4444;
}
svg.acjk .bg { fill: #ccc; opacity: 0.5; }

/* Stroke 1: Starts at 0.0%, finishes at 7.1%, holds until 77.9% */
@keyframes zk1 {
    0%, 0.0% { stroke-dashoffset: 3339; }
    7.1%, 77.9% { stroke-dashoffset: 0; }
    78.0%, 100% { stroke-dashoffset: 3339; }
}
svg.acjk #stroke-p1 { animation-name: zk1; }
/* Stroke 2: Starts at 7.1%, finishes at 14.2%, holds until 77.9% */
@keyframes zk2 {
    0%, 7.1% { stroke-dashoffset: 3339; }
    14.2%, 77.9% { stroke-dashoffset: 0; }
    78.0%, 100% { stroke-dashoffset: 3339; }
}
svg.acjk #stroke-p2 { animation-name: zk2; }
/* Stroke 3: Starts at 14.2%, finishes at 21.2%, holds until 77.9% */
@keyframes zk3 {
    0%, 14.2% { stroke-dashoffset: 3339; }
    21.2%, 77.9% { stroke-dashoffset: 0; }
    78.0%, 100% { stroke-dashoffset: 3339; }
}
svg.acjk #stroke-p3 { animation-name: zk3; }
/* Stroke 4: Starts at 21.2%, finishes at 28.3%, holds until 77.9% */
@keyframes zk4 {
    0%, 21.2% { stroke-dashoffset: 3339; }
    28.3%, 77.9% { stroke-dashoffset: 0; }
    78.0%, 100% { stroke-dashoffset: 3339; }
}
svg.acjk #stroke-p4 { animation-name: zk4; }
/* Stroke 5: Starts at 28.3%, finishes at 35.4%, holds until 77.9% */
@keyframes zk5 {
    0%, 28.3% { stroke-dashoffset: 3339; }
    35.4%, 77.9% { stroke-dashoffset: 0; }
    78.0%, 100% { stroke-dashoffset: 3339; }
}
svg.acjk #stroke-p5 { animation-name: zk5; }
/* Stroke 6: Starts at 35.4%, finishes at 42.5%, holds until 77.9% */
@keyframes zk6 {
    0%, 35.4% { stroke-dashoffset: 3339; }
    42.5%, 77.9% { stroke-dashoffset: 0; }
    78.0%, 100% { stroke-dashoffset: 3339; }
}
svg.acjk #stroke-p6 { animation-name: zk6; }
/* Stroke 7: Starts at 42.5%, finishes at 49.6%, holds until 77.9% */
@keyframes zk7 {
    0%, 42.5% { stroke-dashoffset: 3339; }
    49.6%, 77.9% { stroke-dashoffset: 0; }
    78.0%, 100% { stroke-dashoffset: 3339; }
}
svg.acjk #stroke-p7 { animation-name: zk7; }
/* Stroke 8: Starts at 49.6%, finishes at 56.6%, holds until 77.9% */
@keyframes zk8 {
    0%, 49.6% { stroke-dashoffset: 3339; }
    56.6%, 77.9% { stroke-dashoffset: 0; }
    78.0%, 100% { stroke-dashoffset: 3339; }
}
svg.acjk #stroke-p8 { animation-name: zk8; }
/* Stroke 9: Starts at 56.6%, finishes at 63.7%, holds until 77.9% */
@keyframes zk9 {
    0%, 56.6% { stroke-dashoffset: 3339; }
    63.7%, 77.9% { stroke-dashoffset: 0; }
    78.0%, 100% { stroke-dashoffset: 3339; }
}
svg.acjk #stroke-p9 { animation-name: zk9; }
/* Stroke 10: Starts at 63.7%, finishes at 70.8%, holds until 77.9% */
@keyframes zk10 {
    0%, 63.7% { stroke-dashoffset: 3339; }
    70.8%, 77.9% { stroke-dashoffset: 0; }
    78.0%, 100% { stroke-dashoffset: 3339; }
}
svg.acjk #stroke-p10 { animation-name: zk10; }
/* Stroke 11: Starts at 70.8%, finishes at 77.9%, holds until 77.9% */
@keyframes zk11 {
    0%, 70.8% { stroke-dashoffset: 3339; }
    77.9%, 77.9% { stroke-dashoffset: 0; }
    78.0%, 100% { stroke-dashoffset: 3339; }
}
svg.acjk #stroke-p11 { animation-name: zk11; }
]]>
</style>
<defs>
    <path id="p1" d="M 306 470 Q 390 443 393 441 Q 402 432 396 424 Q 389 412 358 407 Q 333 403 309 413 C 274 427 274 427 257 434 Q 154 461 135 465 Q 98 475 126 489 Q 168 507 257 484 C 290 475 290 475 306 470 Z"/>
    <path id="p2" d="M 298 651 Q 302 557 306 470 C 308 432 308 432 309 413 Q 310 328 330 225 Q 334 213 312 197 Q 275 178 248 173 Q 230 170 222 179 Q 215 188 223 203 Q 251 243 251 271 Q 255 349 257 434 C 257 467 257 467 257 484 Q 257 572 254 669 C 254 685 298 667 298 651 Z"/>
    <path id="p3" d="M 254 669 Q 203 685 148 707 Q 132 714 102 715 Q 89 718 88 728 Q 87 741 97 750 Q 122 765 157 781 Q 169 782 180 773 Q 288 704 397 634 Q 410 625 410 615 Q 403 611 391 614 Q 348 632 298 651 C 269 663 269 663 254 669 Z"/>
    <path id="p4" d="M 622 280 Q 683 267 749 256 Q 798 246 806 239 Q 815 232 811 224 Q 804 212 776 204 Q 748 197 718 208 Q 675 221 631 234 C 594 242 594 242 576 246 Q 518 256 454 261 Q 418 265 443 282 Q 476 303 553 292 Q 560 291 572 289 C 605 283 605 283 622 280 Z"/>
    <path id="p5" d="M 599 399 Q 611 338 622 280 C 628 249 628 249 631 234 Q 638 186 659 139 Q 663 129 646 113 Q 615 91 593 85 Q 578 81 570 87 Q 561 94 568 108 Q 583 136 582 153 Q 581 198 576 246 C 573 275 573 275 572 289 Q 565 344 558 407 C 555 421 596 413 599 399 Z"/>
    <path id="p6" d="M 514 411 Q 496 395 479 388 Q 467 385 459 389 Q 452 393 454 403 Q 475 448 477 483 Q 480 520 483 839 C 483 853 525 849 525 835 Q 525 798 525 762 C 525 745 525 745 525 736 Q 525 696 525 657 C 525 638 525 638 525 629 Q 525 592 525 556 C 525 538 525 538 525 529 Q 525 487 525 446 C 525 434 524 418 514 411 Z"/>
    <path id="p7" d="M 752 812 Q 753 479 781 440 Q 793 425 780 409 Q 771 399 723 371 Q 708 361 686 371 Q 652 384 599 399 C 572 404 572 404 558 407 Q 537 408 514 411 C 502 413 513 446 525 446 Q 535 446 550 442 Q 691 409 700 421 Q 707 436 705 818 C 705 834 752 828 752 812 Z"/>
    <path id="p8" d="M 525 556 Q 528 556 532 556 Q 601 543 652 535 Q 674 531 665 519 Q 655 506 631 502 Q 594 499 525 529 C 517 532 516 556 525 556 Z"/>
    <path id="p9" d="M 525 657 Q 595 648 647 643 Q 669 639 661 627 Q 651 614 627 609 Q 594 603 525 629 C 516 632 516 659 525 657 Z"/>
    <path id="p10" d="M 525 762 Q 528 762 532 762 Q 602 755 654 750 Q 676 747 669 735 Q 659 722 635 716 Q 601 710 525 736 C 517 739 516 762 525 762 Z"/>
    <path id="p11" d="M 483 839 Q 411 843 335 849 Q 313 850 328 869 Q 341 885 361 892 Q 383 899 401 895 Q 590 852 898 875 Q 920 876 925 867 Q 932 854 915 839 Q 851 788 790 806 Q 772 807 752 812 C 721 816 721 816 705 818 Q 659 822 602 828 Q 565 831 525 835 C 497 838 497 838 483 839 Z"/>

    <clipPath id="z22516c1"><use href="#p1"/></clipPath>
    <clipPath id="z22516c2"><use href="#p2"/></clipPath>
    <clipPath id="z22516c3"><use href="#p3"/></clipPath>
    <clipPath id="z22516c4"><use href="#p4"/></clipPath>
    <clipPath id="z22516c5"><use href="#p5"/></clipPath>
    <clipPath id="z22516c6"><use href="#p6"/></clipPath>
    <clipPath id="z22516c7"><use href="#p7"/></clipPath>
    <clipPath id="z22516c8"><use href="#p8"/></clipPath>
    <clipPath id="z22516c9"><use href="#p9"/></clipPath>
    <clipPath id="z22516c10"><use href="#p10"/></clipPath>
    <clipPath id="z22516c11"><use href="#p11"/></clipPath>
</defs>
<g id="bg-layer" class="bg">
<use href="#p1"/>
<use href="#p2"/>
<use href="#p3"/>
<use href="#p4"/>
<use href="#p5"/>
<use href="#p6"/>
<use href="#p7"/>
<use href="#p8"/>
<use href="#p9"/>
<use href="#p10"/>
<use href="#p11"/>
</g>
<g id="anim-layer">
    <path id="stroke-p1" style="stroke:#FF4444" pathLength="3333" clip-path="url(#z22516c1)" d="M 121 477 L 393 430"/>
    <path id="stroke-p2" style="stroke:#FF4444" pathLength="3333" clip-path="url(#z22516c2)" d="M 226 184 L 289 236 L 262 662"/>
    <path id="stroke-p3" style="stroke:#FF4444" pathLength="3333" clip-path="url(#z22516c3)" d="M 93 726 L 157 743 L 401 618"/>
    <path id="stroke-p4" style="stroke:#000" pathLength="3333" clip-path="url(#z22516c4)" d="M 439 269 L 508 276 L 808 230"/>
    <path id="stroke-p5" style="stroke:#000" pathLength="3333" clip-path="url(#z22516c5)" d="M 572 94 L 620 143 L 573 403"/>
    <path id="stroke-p6" style="stroke:#000" pathLength="3333" clip-path="url(#z22516c6)" d="M 460 397 L 498 446 L 501 836"/>
    <path id="stroke-p7" style="stroke:#000" pathLength="3333" clip-path="url(#z22516c7)" d="M 522 417 L 701 392 L 735 411 L 726 815"/>
    <path id="stroke-p8" style="stroke:#000" pathLength="3333" clip-path="url(#z22516c8)" d="M 530 548 L 661 522"/>
    <path id="stroke-p9" style="stroke:#000" pathLength="3333" clip-path="url(#z22516c9)" d="M 534 648 L 655 633"/>
    <path id="stroke-p10" style="stroke:#000" pathLength="3333" clip-path="url(#z22516c10)" d="M 532 754 L 666 739"/>
    <path id="stroke-p11" style="stroke:#000" pathLength="3333" clip-path="url(#z22516c11)" d="M 330 859 L 824 836 L 922 863"/>
</g>
</svg>