<svg id="z22737" class="acjk" viewBox="0 0 1024 1024" xmlns="http://www.w3.org/2000/svg">
<style>
<![CDATA[
svg.acjk path[clip-path] {
    animation-duration: 16.1s;
    animation-timing-function: linear;
    animation-iteration-count: infinite;
    stroke-dasharray: 3337;
    stroke-dashoffset: 3339;
    stroke-width: 128;
    stroke-linecap: round;
    fill: none;
    stroke: #FF4444;
}
svg.acjk .bg { fill: #ccc; opacity: 0.5; }

/* Stroke 1: Starts at 0.0%, finishes at 5.0%, holds until 84.5% */
@keyframes zk1 {
    0%, 0.0% { stroke-dashoffset: 3339; }
    5.0%, 84.5% { stroke-dashoffset: 0; }
    84.6%, 100% { stroke-dashoffset: 3339; }
}
svg.acjk #stroke-p1 { animation-name: zk1; }
/* Stroke 2: Starts at 5.0%, finishes at 9.9%, holds until 84.5% */
@keyframes zk2 {
    0%, 5.0% { stroke-dashoffset: 3339; }
    9.9%, 84.5% { stroke-dashoffset: 0; }
    84.6%, 100% { stroke-dashoffset: 3339; }
}
svg.acjk #stroke-p2 { animation-name: zk2; }
/* Stroke 3: Starts at 9.9%, finishes at 14.9%, holds until 84.5% */
@keyframes zk3 {
    0%, 9.9% { stroke-dashoffset: 3339; }
    14.9%, 84.5% { stroke-dashoffset: 0; }
    84.6%, 100% { stroke-dashoffset: 3339; }
}
svg.acjk #stroke-p3 { animation-name: zk3; }
/* Stroke 4: Starts at 14.9%, finishes at 19.9%, holds until 84.5% */
@keyframes zk4 {
    0%, 14.9% { stroke-dashoffset: 3339; }
    19.9%, 84.5% { stroke-dashoffset: 0; }
    84.6%, 100% { stroke-dashoffset: 3339; }
}
svg.acjk #stroke-p4 { animation-name: zk4; }
/* Stroke 5: Starts at 19.9%, finishes at 24.8%, holds until 84.5% */
@keyframes zk5 {
    0%, 19.9% { stroke-dashoffset: 3339; }
    24.8%, 84.5% { stroke-dashoffset: 0; }
    84.6%, 100% { stroke-dashoffset: 3339; }
}
svg.acjk #stroke-p5 { animation-name: zk5; }
/* Stroke 6: Starts at 24.8%, finishes at 29.8%, holds until 84.5% */
@keyframes zk6 {
    0%, 24.8% { stroke-dashoffset: 3339; }
    29.8%, 84.5% { stroke-dashoffset: 0; }
    84.6%, 100% { stroke-dashoffset: 3339; }
}
svg.acjk #stroke-p6 { animation-name: zk6; }
/* Stroke 7: Starts at 29.8%, finishes at 34.8%, holds until 84.5% */
@keyframes zk7 {
    0%, 29.8% { stroke-dashoffset: 3339; }
    34.8%, 84.5% { stroke-dashoffset: 0; }
    84.6%, 100% { stroke-dashoffset: 3339; }
}
svg.acjk #stroke-p7 { animation-name: zk7; }
/* Stroke 8: Starts at 34.8%, finishes at 39.8%, holds until 84.5% */
@keyframes zk8 {
    0%, 34.8% { stroke-dashoffset: 3339; }
    39.8%, 84.5% { stroke-dashoffset: 0; }
    84.6%, 100% { stroke-dashoffset: 3339; }
}
svg.acjk #stroke-p8 { animation-name: zk8; }
/* Stroke 9: Starts at 39.8%, finishes at 44.7%, holds until 84.5% */
@keyframes zk9 {
    0%, 39.8% { stroke-dashoffset: 3339; }
    44.7%, 84.5% { stroke-dashoffset: 0; }
    84.6%, 100% { stroke-dashoffset: 3339; }
}
svg.acjk #stroke-p9 { animation-name: zk9; }
/* Stroke 10: Starts at 44.7%, finishes at 49.7%, holds until 84.5% */
@keyframes zk10 {
    0%, 44.7% { stroke-dashoffset: 3339; }
    49.7%, 84.5% { stroke-dashoffset: 0; }
    84.6%, 100% { stroke-dashoffset: 3339; }
}
svg.acjk #stroke-p10 { animation-name: zk10; }
/* Stroke 11: Starts at 49.7%, finishes at 54.7%, holds until 84.5% */
@keyframes zk11 {
    0%, 49.7% { stroke-dashoffset: 3339; }
    54.7%, 84.5% { stroke-dashoffset: 0; }
    84.6%, 100% { stroke-dashoffset: 3339; }
}
svg.acjk #stroke-p11 { animation-name: zk11; }
/* Stroke 12: Starts at 54.7%, finishes at 59.6%, holds until 84.5% */
@keyframes zk12 {
    0%, 54.7% { stroke-dashoffset: 3339; }
    59.6%, 84.5% { stroke-dashoffset: 0; }
    84.6%, 100% { stroke-dashoffset: 3339; }
}
svg.acjk #stroke-p12 { animation-name: zk12; }
/* Stroke 13: Starts at 59.6%, finishes at 64.6%, holds until 84.5% */
@keyframes zk13 {
    0%, 59.6% { stroke-dashoffset: 3339; }
    64.6%, 84.5% { stroke-dashoffset: 0; }
    84.6%, 100% { stroke-dashoffset: 3339; }
}
svg.acjk #stroke-p13 { animation-name: zk13; }
/* Stroke 14: Starts at 64.6%, finishes at 69.6%, holds until 84.5% */
@keyframes zk14 {
    0%, 64.6% { stroke-dashoffset: 3339; }
    69.6%, 84.5% { stroke-dashoffset: 0; }
    84.6%, 100% { stroke-dashoffset: 3339; }
}
svg.acjk #stroke-p14 { animation-name: zk14; }
/* Stroke 15: Starts at 69.6%, finishes at 74.5%, holds until 84.5% */
@keyframes zk15 {
    0%, 69.6% { stroke-dashoffset: 3339; }
    74.5%, 84.5% { stroke-dashoffset: 0; }
    84.6%, 100% { stroke-dashoffset: 3339; }
}
svg.acjk #stroke-p15 { animation-name: zk15; }
/* Stroke 16: Starts at 74.5%, finishes at 79.5%, holds until 84.5% */
@keyframes zk16 {
    0%, 74.5% { stroke-dashoffset: 3339; }
    79.5%, 84.5% { stroke-dashoffset: 0; }
    84.6%, 100% { stroke-dashoffset: 3339; }
}
svg.acjk #stroke-p16 { animation-name: zk16; }
/* Stroke 17: Starts at 79.5%, finishes at 84.5%, holds until 84.5% */
@keyframes zk17 {
    0%, 79.5% { stroke-dashoffset: 3339; }
    84.5%, 84.5% { stroke-dashoffset: 0; }
    84.6%, 100% { stroke-dashoffset: 3339; }
}
svg.acjk #stroke-p17 { animation-name: zk17; }
]]>
</style>
<defs>
    <path id="p1" d="M 401 213 Q 405 174 409 141 C 410 135 408 129 410 123 Q 410 122 411 121 Q 417 94 419 90 Q 422 81 405 70 Q 378 57 359 53 Q 346 52 340 58 Q 334 64 341 75 Q 359 99 368 220 C 368 231 399 224 401 213 Z"/>
    <path id="p2" d="M 524 130 Q 545 126 537 115 Q 527 102 505 99 Q 472 95 410 123 C 404 125 403 141 409 141 C 410 141 410 141 410 141 C 486 134 486 134 524 130 Z"/>
    <path id="p3" d="M 225 252 Q 225 231 205 217 Q 190 204 188 226 Q 191 244 178 268 Q 165 281 147 295 Q 138 305 141 322 Q 144 347 151 362 Q 163 384 180 362 Q 180 361 219 277 C 223 260 223 260 225 252 Z"/>
    <path id="p4" d="M 219 277 Q 237 283 281 270 Q 384 231 489 221 Q 493 221 497 221 Q 509 228 507 235 Q 508 239 492 289 Q 488 299 493 303 Q 499 306 511 296 Q 551 266 584 255 Q 612 245 611 239 Q 610 232 550 194 Q 529 181 472 197 Q 417 206 401 213 C 379 218 379 218 368 220 Q 290 232 225 252 C 217 255 211 275 219 277 Z"/>
    <path id="p5" d="M 288 303 Q 261 310 281 321 Q 308 333 378 317 Q 400 310 426 304 Q 442 300 445 297 Q 451 290 447 285 Q 441 276 419 272 Q 410 272 336 294 Q 314 300 288 303 Z"/>
    <path id="p6" d="M 245 350 Q 246 380 176 447 Q 169 451 166 455 Q 163 461 171 461 Q 195 464 269 406 Q 279 396 286 393 Q 293 389 292 380 Q 291 371 278 355 Q 265 340 254 338 Q 244 337 245 350 Z"/>
    <path id="p7" d="M 433 352 Q 485 394 506 393 Q 516 392 518 377 Q 518 367 507 353 Q 497 341 477 338 Q 446 331 433 331 Q 426 331 427 340 Q 427 347 433 352 Z"/>
    <path id="p8" d="M 272 528 Q 300 503 327 476 Q 358 442 377 426 C 382 421 390 416 390 409 Q 390 406 390 404 Q 389 394 368 386 Q 346 377 337 379 Q 330 380 328 390 Q 298 480 84 622 Q 68 632 89 632 Q 146 628 229 561 Q 238 554 248 547 C 264 534 264 534 272 528 Z"/>
    <path id="p9" d="M 377 426 Q 444 453 494 487 Q 504 497 515 499 Q 524 500 527 488 Q 528 478 521 460 Q 515 441 476 426 Q 454 419 390 409 C 383 408 370 423 377 426 Z"/>
    <path id="p10" d="M 292 534 Q 285 530 272 528 C 262 526 244 538 248 547 Q 266 584 277 647 Q 280 666 291 679 Q 304 695 309 684 Q 312 675 312 661 C 310 643 310 643 309 634 Q 300 576 299 557 C 299 549 299 537 292 534 Z"/>
    <path id="p11" d="M 444 610 Q 457 562 473 547 Q 491 526 472 515 Q 418 485 408 491 Q 405 491 404 493 Q 371 515 292 534 C 284 536 291 559 299 557 Q 305 556 312 554 Q 351 544 383 536 Q 405 530 410 539 Q 411 540 404 605 C 402 618 441 623 444 610 Z"/>
    <path id="p12" d="M 312 661 Q 316 661 322 659 Q 362 647 452 633 Q 461 632 461 624 Q 461 620 444 610 C 432 603 417 602 404 605 Q 400 605 398 606 Q 349 624 309 634 C 300 636 303 663 312 661 Z"/>
    <path id="p13" d="M 728 477 Q 765 414 799 313 Q 809 286 827 269 Q 843 253 832 241 Q 819 231 790 221 Q 768 215 744 228 Q 722 238 693 248 Q 663 258 614 265 Q 602 266 598 272 Q 595 279 611 285 Q 644 297 686 283 Q 722 267 728 266 Q 750 270 743 294 Q 728 372 692 444 C 677 467 677 467 670 478 Q 604 556 495 593 Q 482 597 494 605 Q 500 609 538 607 Q 623 600 700 515 C 719 490 719 490 728 477 Z"/>
    <path id="p14" d="M 700 515 Q 772 602 806 607 Q 881 610 941 604 Q 972 601 970 593 Q 969 589 826 535 Q 787 520 728 477 C 704 455 704 455 692 444 Q 661 414 629 379 Q 598 345 569 344 Q 554 343 551 347 Q 550 353 562 363 Q 592 381 670 478 C 690 503 690 503 700 515 Z"/>
    <path id="p15" d="M 551 776 Q 695 748 698 745 Q 707 738 703 728 Q 696 716 666 707 Q 639 701 556 726 C 511 735 511 735 489 740 Q 426 750 355 755 Q 318 759 344 778 Q 383 802 459 790 Q 475 787 493 785 C 532 779 532 779 551 776 Z"/>
    <path id="p16" d="M 540 872 Q 546 823 551 776 C 554 743 554 743 556 726 Q 557 713 561 705 Q 564 695 566 688 Q 570 678 550 663 Q 516 645 492 641 Q 476 638 468 647 Q 461 654 469 669 Q 482 685 484 699 Q 485 718 489 740 C 492 770 492 770 493 785 Q 496 828 499 876 C 499 890 537 885 540 872 Z"/>
    <path id="p17" d="M 499 876 Q 369 888 218 902 Q 196 903 211 921 Q 226 936 244 942 Q 266 949 282 945 Q 525 888 849 909 Q 849 908 852 909 Q 873 910 878 901 Q 884 889 867 874 Q 815 832 775 840 Q 687 855 540 872 C 513 875 513 875 499 876 Z"/>

    <clipPath id="z22737c1"><use href="#p1"/></clipPath>
    <clipPath id="z22737c2"><use href="#p2"/></clipPath>
    <clipPath id="z22737c3"><use href="#p3"/></clipPath>
    <clipPath id="z22737c4"><use href="#p4"/></clipPath>
    <clipPath id="z22737c5"><use href="#p5"/></clipPath>
    <clipPath id="z22737c6"><use href="#p6"/></clipPath>
    <clipPath id="z22737c7"><use href="#p7"/></clipPath>
    <clipPath id="z22737c8"><use href="#p8"/></clipPath>
    <clipPath id="z22737c9"><use href="#p9"/></clipPath>
    <clipPath id="z22737c10"><use href="#p10"/></clipPath>
    <clipPath id="z22737c11"><use href="#p11"/></clipPath>
    <clipPath id="z22737c12"><use href="#p12"/></clipPath>
    <clipPath id="z22737c13"><use href="#p13"/></clipPath>
    <clipPath id="z22737c14"><use href="#p14"/></clipPath>
    <clipPath id="z22737c15"><use href="#p15"/></clipPath>
    <clipPath id="z22737c16"><use href="#p16"/></clipPath>
    <clipPath id="z22737c17"><use href="#p17"/></clipPath>
</defs>
<g id="bg-layer" class="bg">
<use href="#p1"/>
<use href="#p2"/>
<use href="#p3"/>
<use href="#p4"/>
<use href="#p5"/>
<use href="#p6"/>
<use href="#p7"/>
<use href="#p8"/>
<use href="#p9"/>
<use href="#p10"/>
<use href="#p11"/>
<use href="#p12"/>
<use href="#p13"/>
<use href="#p14"/>
<use href="#p15"/>
<use href="#p16"/>
<use href="#p17"/>
</g>
<g id="anim-layer">
    <path id="stroke-p1" style="stroke:#FF4444" pathLength="3333" clip-path="url(#z22737c1)" d="M 346 62 L 386 96 L 381 217"/>
    <path id="stroke-p2" style="stroke:#FF4444" pathLength="3333" clip-path="url(#z22737c2)" d="M 413 133 L 532 116"/>
    <path id="stroke-p3" style="stroke:#FF4444" pathLength="3333" clip-path="url(#z22737c3)" d="M 198 217 L 202 264 L 162 366"/>
    <path id="stroke-p4" style="stroke:#FF4444" pathLength="3333" clip-path="url(#z22737c4)" d="M 229 272 L 503 205 L 557 245 L 496 298"/>
    <path id="stroke-p5" style="stroke:#FF4444" pathLength="3333" clip-path="url(#z22737c5)" d="M 281 311 L 442 289"/>
    <path id="stroke-p6" style="stroke:#FF4444" pathLength="3333" clip-path="url(#z22737c6)" d="M 254 344 L 263 382 L 176 454"/>
    <path id="stroke-p7" style="stroke:#FF4444" pathLength="3333" clip-path="url(#z22737c7)" d="M 433 339 L 511 385"/>
    <path id="stroke-p8" style="stroke:#FF4444" pathLength="3333" clip-path="url(#z22737c8)" d="M 385 403 L 347 411 L 232 536 L 87 627"/>
    <path id="stroke-p9" style="stroke:#FF4444" pathLength="3333" clip-path="url(#z22737c9)" d="M 384 423 L 467 444 L 521 489"/>
    <path id="stroke-p10" style="stroke:#FF4444" pathLength="3333" clip-path="url(#z22737c10)" d="M 255 550 L 280 568 L 299 681"/>
    <path id="stroke-p11" style="stroke:#FF4444" pathLength="3333" clip-path="url(#z22737c11)" d="M 298 536 L 439 525 L 415 604"/>
    <path id="stroke-p12" style="stroke:#FF4444" pathLength="3333" clip-path="url(#z22737c12)" d="M 318 652 L 455 623"/>
    <path id="stroke-p13" style="stroke:#FF4444" pathLength="3333" clip-path="url(#z22737c13)" d="M 605 273 L 736 248 L 789 270 L 685 497 L 587 574 L 495 601"/>
    <path id="stroke-p14" style="stroke:#FF4444" pathLength="3333" clip-path="url(#z22737c14)" d="M 560 350 L 796 562 L 960 595"/>
    <path id="stroke-p15" style="stroke:#000" pathLength="3333" clip-path="url(#z22737c15)" d="M 341 765 L 699 735"/>
    <path id="stroke-p16" style="stroke:#000" pathLength="3333" clip-path="url(#z22737c16)" d="M 471 648 L 524 688 L 519 873"/>
    <path id="stroke-p17" style="stroke:#000" pathLength="3333" clip-path="url(#z22737c17)" d="M 210 909 L 269 921 L 779 872 L 875 892"/>
</g>
</svg>