<svg id="z22820" class="acjk" viewBox="0 0 1024 1024" xmlns="http://www.w3.org/2000/svg">
<style>
<![CDATA[
svg.acjk path[clip-path] {
    animation-duration: 13.700000000000001s;
    animation-timing-function: linear;
    animation-iteration-count: infinite;
    stroke-dasharray: 3337;
    stroke-dashoffset: 3339;
    stroke-width: 128;
    stroke-linecap: round;
    fill: none;
    stroke: #FF4444;
}
svg.acjk .bg { fill: #ccc; opacity: 0.5; }

/* Stroke 1: Starts at 0.0%, finishes at 5.8%, holds until 81.8% */
@keyframes zk1 {
    0%, 0.0% { stroke-dashoffset: 3339; }
    5.8%, 81.8% { stroke-dashoffset: 0; }
    81.9%, 100% { stroke-dashoffset: 3339; }
}
svg.acjk #stroke-p1 { animation-name: zk1; }
/* Stroke 2: Starts at 5.8%, finishes at 11.7%, holds until 81.8% */
@keyframes zk2 {
    0%, 5.8% { stroke-dashoffset: 3339; }
    11.7%, 81.8% { stroke-dashoffset: 0; }
    81.9%, 100% { stroke-dashoffset: 3339; }
}
svg.acjk #stroke-p2 { animation-name: zk2; }
/* Stroke 3: Starts at 11.7%, finishes at 17.5%, holds until 81.8% */
@keyframes zk3 {
    0%, 11.7% { stroke-dashoffset: 3339; }
    17.5%, 81.8% { stroke-dashoffset: 0; }
    81.9%, 100% { stroke-dashoffset: 3339; }
}
svg.acjk #stroke-p3 { animation-name: zk3; }
/* Stroke 4: Starts at 17.5%, finishes at 23.4%, holds until 81.8% */
@keyframes zk4 {
    0%, 17.5% { stroke-dashoffset: 3339; }
    23.4%, 81.8% { stroke-dashoffset: 0; }
    81.9%, 100% { stroke-dashoffset: 3339; }
}
svg.acjk #stroke-p4 { animation-name: zk4; }
/* Stroke 5: Starts at 23.4%, finishes at 29.2%, holds until 81.8% */
@keyframes zk5 {
    0%, 23.4% { stroke-dashoffset: 3339; }
    29.2%, 81.8% { stroke-dashoffset: 0; }
    81.9%, 100% { stroke-dashoffset: 3339; }
}
svg.acjk #stroke-p5 { animation-name: zk5; }
/* Stroke 6: Starts at 29.2%, finishes at 35.0%, holds until 81.8% */
@keyframes zk6 {
    0%, 29.2% { stroke-dashoffset: 3339; }
    35.0%, 81.8% { stroke-dashoffset: 0; }
    81.9%, 100% { stroke-dashoffset: 3339; }
}
svg.acjk #stroke-p6 { animation-name: zk6; }
/* Stroke 7: Starts at 35.0%, finishes at 40.9%, holds until 81.8% */
@keyframes zk7 {
    0%, 35.0% { stroke-dashoffset: 3339; }
    40.9%, 81.8% { stroke-dashoffset: 0; }
    81.9%, 100% { stroke-dashoffset: 3339; }
}
svg.acjk #stroke-p7 { animation-name: zk7; }
/* Stroke 8: Starts at 40.9%, finishes at 46.7%, holds until 81.8% */
@keyframes zk8 {
    0%, 40.9% { stroke-dashoffset: 3339; }
    46.7%, 81.8% { stroke-dashoffset: 0; }
    81.9%, 100% { stroke-dashoffset: 3339; }
}
svg.acjk #stroke-p8 { animation-name: zk8; }
/* Stroke 9: Starts at 46.7%, finishes at 52.6%, holds until 81.8% */
@keyframes zk9 {
    0%, 46.7% { stroke-dashoffset: 3339; }
    52.6%, 81.8% { stroke-dashoffset: 0; }
    81.9%, 100% { stroke-dashoffset: 3339; }
}
svg.acjk #stroke-p9 { animation-name: zk9; }
/* Stroke 10: Starts at 52.6%, finishes at 58.4%, holds until 81.8% */
@keyframes zk10 {
    0%, 52.6% { stroke-dashoffset: 3339; }
    58.4%, 81.8% { stroke-dashoffset: 0; }
    81.9%, 100% { stroke-dashoffset: 3339; }
}
svg.acjk #stroke-p10 { animation-name: zk10; }
/* Stroke 11: Starts at 58.4%, finishes at 64.2%, holds until 81.8% */
@keyframes zk11 {
    0%, 58.4% { stroke-dashoffset: 3339; }
    64.2%, 81.8% { stroke-dashoffset: 0; }
    81.9%, 100% { stroke-dashoffset: 3339; }
}
svg.acjk #stroke-p11 { animation-name: zk11; }
/* Stroke 12: Starts at 64.2%, finishes at 70.1%, holds until 81.8% */
@keyframes zk12 {
    0%, 64.2% { stroke-dashoffset: 3339; }
    70.1%, 81.8% { stroke-dashoffset: 0; }
    81.9%, 100% { stroke-dashoffset: 3339; }
}
svg.acjk #stroke-p12 { animation-name: zk12; }
/* Stroke 13: Starts at 70.1%, finishes at 75.9%, holds until 81.8% */
@keyframes zk13 {
    0%, 70.1% { stroke-dashoffset: 3339; }
    75.9%, 81.8% { stroke-dashoffset: 0; }
    81.9%, 100% { stroke-dashoffset: 3339; }
}
svg.acjk #stroke-p13 { animation-name: zk13; }
/* Stroke 14: Starts at 75.9%, finishes at 81.8%, holds until 81.8% */
@keyframes zk14 {
    0%, 75.9% { stroke-dashoffset: 3339; }
    81.8%, 81.8% { stroke-dashoffset: 0; }
    81.9%, 100% { stroke-dashoffset: 3339; }
}
svg.acjk #stroke-p14 { animation-name: zk14; }
]]>
</style>
<defs>
    <path id="p1" d="M 486 118 Q 490 114 496 113 Q 506 109 507 99 Q 508 89 497 65 Q 485 44 473 38 Q 460 34 458 51 Q 458 102 258 202 Q 248 205 244 209 Q 238 215 249 218 Q 273 221 354 187 Q 357 186 363 184 C 378 177 378 177 385 174 Q 410 159 446 140 C 473 125 473 125 486 118 Z"/>
    <path id="p2" d="M 484 273 Q 574 221 621 187 Q 643 168 676 151 Q 689 145 687 136 Q 687 129 641 98 Q 628 86 578 104 Q 568 105 486 118 C 471 121 432 134 446 140 Q 464 152 570 138 Q 579 138 581 142 Q 582 145 575 153 Q 497 237 299 321 Q 284 328 296 332 Q 336 338 440 294 Q 444 293 450 290 C 473 279 473 279 484 273 Z"/>
    <path id="p3" d="M 363 184 Q 367 190 379 199 Q 398 215 419 236 Q 426 243 436 243 Q 443 243 446 235 Q 449 228 444 209 Q 437 185 385 174 C 377 172 358 178 363 184 Z"/>
    <path id="p4" d="M 450 290 Q 456 300 482 317 Q 498 330 514 346 Q 527 356 543 354 Q 553 353 557 340 Q 560 325 549 298 Q 537 277 484 273 C 471 273 442 280 450 290 Z"/>
    <path id="p5" d="M 252 401 Q 240 376 229 369 Q 210 354 208 381 Q 214 420 151 491 Q 130 518 159 573 Q 175 601 195 572 Q 213 545 225 507 Q 238 464 250 437 C 254 426 257 412 252 401 Z"/>
    <path id="p6" d="M 250 437 Q 265 443 322 432 Q 485 387 718 374 Q 745 373 757 375 Q 775 388 772 397 Q 773 401 768 415 Q 738 485 745 491 Q 752 495 769 482 Q 823 442 867 427 Q 904 414 903 405 Q 902 395 828 343 Q 804 327 718 342 Q 513 364 358 388 Q 304 395 252 401 C 240 403 238 435 250 437 Z"/>
    <path id="p7" d="M 515 486 Q 542 480 639 472 Q 649 473 656 462 Q 657 452 639 443 Q 611 422 536 444 Q 521 445 509 449 Q 463 458 419 462 Q 389 463 356 468 Q 331 469 350 485 Q 369 500 406 502 Q 433 496 468 493 C 499 488 499 488 515 486 Z"/>
    <path id="p8" d="M 322 559 Q 292 555 289 559 Q 283 566 292 581 Q 320 632 342 716 Q 346 741 363 757 Q 382 779 387 762 Q 387 761 387 760 C 388 745 388 745 389 737 Q 388 724 385 707 Q 366 622 362 594 C 359 577 339 562 322 559 Z"/>
    <path id="p9" d="M 624 737 Q 624 741 626 745 Q 632 760 644 759 Q 657 758 664 743 Q 674 733 694 674 Q 710 623 746 594 Q 765 579 749 564 Q 731 548 683 521 Q 670 514 594 526 Q 572 526 531 534 C 495 539 495 539 477 541 Q 450 542 426 548 Q 360 557 322 559 C 304 559 345 597 362 594 Q 405 582 478 573 C 513 569 513 569 530 567 Q 633 554 650 565 Q 657 569 654 596 Q 638 686 629 709 C 626 718 622 728 624 737 Z"/>
    <path id="p10" d="M 527 658 Q 564 652 599 649 Q 620 646 613 635 Q 603 622 581 617 Q 562 613 528 621 C 496 628 496 628 480 632 Q 438 641 403 649 Q 388 652 406 666 Q 415 673 434 670 Q 456 666 481 664 C 512 660 512 660 527 658 Z"/>
    <path id="p11" d="M 531 534 Q 532 530 532 525 Q 539 507 530 498 Q 523 491 515 486 C 501 478 465 477 468 493 Q 469 494 477 541 C 478 562 478 562 478 573 Q 478 595 480 632 C 481 653 481 653 481 664 Q 481 689 482 722 C 482 737 525 729 525 714 Q 526 684 527 658 C 528 633 528 633 528 621 Q 528 593 530 567 C 531 545 531 545 531 534 Z"/>
    <path id="p12" d="M 387 760 Q 400 761 415 760 Q 535 744 624 737 C 633 737 637 714 629 709 Q 623 705 616 704 Q 586 698 525 714 C 496 719 496 719 482 722 Q 433 728 389 737 C 381 738 379 760 387 760 Z"/>
    <path id="p13" d="M 362 802 Q 344 853 211 940 Q 186 952 216 953 Q 285 957 389 880 Q 419 859 432 850 Q 445 840 444 829 Q 443 814 417 802 Q 389 786 375 788 Q 368 788 362 802 Z"/>
    <path id="p14" d="M 580 820 Q 635 865 702 931 Q 720 952 736 955 Q 746 956 753 945 Q 766 930 749 885 Q 737 845 664 815 Q 640 803 579 787 Q 569 781 568 795 Q 568 810 580 820 Z"/>

    <clipPath id="z22820c1"><use href="#p1"/></clipPath>
    <clipPath id="z22820c2"><use href="#p2"/></clipPath>
    <clipPath id="z22820c3"><use href="#p3"/></clipPath>
    <clipPath id="z22820c4"><use href="#p4"/></clipPath>
    <clipPath id="z22820c5"><use href="#p5"/></clipPath>
    <clipPath id="z22820c6"><use href="#p6"/></clipPath>
    <clipPath id="z22820c7"><use href="#p7"/></clipPath>
    <clipPath id="z22820c8"><use href="#p8"/></clipPath>
    <clipPath id="z22820c9"><use href="#p9"/></clipPath>
    <clipPath id="z22820c10"><use href="#p10"/></clipPath>
    <clipPath id="z22820c11"><use href="#p11"/></clipPath>
    <clipPath id="z22820c12"><use href="#p12"/></clipPath>
    <clipPath id="z22820c13"><use href="#p13"/></clipPath>
    <clipPath id="z22820c14"><use href="#p14"/></clipPath>
</defs>
<g id="bg-layer" class="bg">
<use href="#p1"/>
<use href="#p2"/>
<use href="#p3"/>
<use href="#p4"/>
<use href="#p5"/>
<use href="#p6"/>
<use href="#p7"/>
<use href="#p8"/>
<use href="#p9"/>
<use href="#p10"/>
<use href="#p11"/>
<use href="#p12"/>
<use href="#p13"/>
<use href="#p14"/>
</g>
<g id="anim-layer">
    <path id="stroke-p1" style="stroke:#FF4444" pathLength="3333" clip-path="url(#z22820c1)" d="M 467 44 L 473 94 L 250 212"/>
    <path id="stroke-p2" style="stroke:#FF4444" pathLength="3333" clip-path="url(#z22820c2)" d="M 450 137 L 593 118 L 631 147 L 480 253 L 300 328"/>
    <path id="stroke-p3" style="stroke:#FF4444" pathLength="3333" clip-path="url(#z22820c3)" d="M 370 181 L 438 237"/>
    <path id="stroke-p4" style="stroke:#000" pathLength="3333" clip-path="url(#z22820c4)" d="M 457 288 L 525 314 L 540 350"/>
    <path id="stroke-p5" style="stroke:#000" pathLength="3333" clip-path="url(#z22820c5)" d="M 217 369 L 228 420 L 169 581"/>
    <path id="stroke-p6" style="stroke:#000" pathLength="3333" clip-path="url(#z22820c6)" d="M 245 425 L 773 355 L 848 412 L 750 485"/>
    <path id="stroke-p7" style="stroke:#000" pathLength="3333" clip-path="url(#z22820c7)" d="M 350 475 L 651 459"/>
    <path id="stroke-p8" style="stroke:#000" pathLength="3333" clip-path="url(#z22820c8)" d="M 293 562 L 334 601 L 381 762"/>
    <path id="stroke-p9" style="stroke:#000" pathLength="3333" clip-path="url(#z22820c9)" d="M 326 563 L 668 544 L 705 590 L 644 756"/>
    <path id="stroke-p10" style="stroke:#000" pathLength="3333" clip-path="url(#z22820c10)" d="M 405 656 L 610 638"/>
    <path id="stroke-p11" style="stroke:#000" pathLength="3333" clip-path="url(#z22820c11)" d="M 474 492 L 505 525 L 496 727"/>
    <path id="stroke-p12" style="stroke:#000" pathLength="3333" clip-path="url(#z22820c12)" d="M 385 751 L 631 721"/>
    <path id="stroke-p13" style="stroke:#000" pathLength="3333" clip-path="url(#z22820c13)" d="M 373 793 L 392 836 L 207 947"/>
    <path id="stroke-p14" style="stroke:#000" pathLength="3333" clip-path="url(#z22820c14)" d="M 575 794 L 703 880 L 748 947"/>
</g>
</svg>