<svg id="z22859" class="acjk" viewBox="0 0 1024 1024" xmlns="http://www.w3.org/2000/svg">
<style>
<![CDATA[
svg.acjk path[clip-path] {
    animation-duration: 8.9s;
    animation-timing-function: linear;
    animation-iteration-count: infinite;
    stroke-dasharray: 3337;
    stroke-dashoffset: 3339;
    stroke-width: 128;
    stroke-linecap: round;
    fill: none;
    stroke: #FF4444;
}
svg.acjk .bg { fill: #ccc; opacity: 0.5; }

/* Stroke 1: Starts at 0.0%, finishes at 9.0%, holds until 71.9% */
@keyframes zk1 {
    0%, 0.0% { stroke-dashoffset: 3339; }
    9.0%, 71.9% { stroke-dashoffset: 0; }
    72.0%, 100% { stroke-dashoffset: 3339; }
}
svg.acjk #stroke-p1 { animation-name: zk1; }
/* Stroke 2: Starts at 9.0%, finishes at 18.0%, holds until 71.9% */
@keyframes zk2 {
    0%, 9.0% { stroke-dashoffset: 3339; }
    18.0%, 71.9% { stroke-dashoffset: 0; }
    72.0%, 100% { stroke-dashoffset: 3339; }
}
svg.acjk #stroke-p2 { animation-name: zk2; }
/* Stroke 3: Starts at 18.0%, finishes at 27.0%, holds until 71.9% */
@keyframes zk3 {
    0%, 18.0% { stroke-dashoffset: 3339; }
    27.0%, 71.9% { stroke-dashoffset: 0; }
    72.0%, 100% { stroke-dashoffset: 3339; }
}
svg.acjk #stroke-p3 { animation-name: zk3; }
/* Stroke 4: Starts at 27.0%, finishes at 36.0%, holds until 71.9% */
@keyframes zk4 {
    0%, 27.0% { stroke-dashoffset: 3339; }
    36.0%, 71.9% { stroke-dashoffset: 0; }
    72.0%, 100% { stroke-dashoffset: 3339; }
}
svg.acjk #stroke-p4 { animation-name: zk4; }
/* Stroke 5: Starts at 36.0%, finishes at 44.9%, holds until 71.9% */
@keyframes zk5 {
    0%, 36.0% { stroke-dashoffset: 3339; }
    44.9%, 71.9% { stroke-dashoffset: 0; }
    72.0%, 100% { stroke-dashoffset: 3339; }
}
svg.acjk #stroke-p5 { animation-name: zk5; }
/* Stroke 6: Starts at 44.9%, finishes at 53.9%, holds until 71.9% */
@keyframes zk6 {
    0%, 44.9% { stroke-dashoffset: 3339; }
    53.9%, 71.9% { stroke-dashoffset: 0; }
    72.0%, 100% { stroke-dashoffset: 3339; }
}
svg.acjk #stroke-p6 { animation-name: zk6; }
/* Stroke 7: Starts at 53.9%, finishes at 62.9%, holds until 71.9% */
@keyframes zk7 {
    0%, 53.9% { stroke-dashoffset: 3339; }
    62.9%, 71.9% { stroke-dashoffset: 0; }
    72.0%, 100% { stroke-dashoffset: 3339; }
}
svg.acjk #stroke-p7 { animation-name: zk7; }
/* Stroke 8: Starts at 62.9%, finishes at 71.9%, holds until 71.9% */
@keyframes zk8 {
    0%, 62.9% { stroke-dashoffset: 3339; }
    71.9%, 71.9% { stroke-dashoffset: 0; }
    72.0%, 100% { stroke-dashoffset: 3339; }
}
svg.acjk #stroke-p8 { animation-name: zk8; }
]]>
</style>
<defs>
    <path id="p1" d="M 462 338 C 486 334 512 327 539 324 C 554 322 554 322 561 321 C 595 316 629 309 665 303 C 715 293 745 285 753 279 C 759 273 761 266 759 261 C 754 252 741 244 721 239 C 699 232 677 235 656 242 C 598 259 539 275 478 288 C 441 295 441 295 422 299 C 365 310 305 312 244 317 C 217 319 212 328 232 341 C 251 353 273 360 297 361 C 332 361 369 351 402 347 C 442 341 442 341 462 338 Z"/>
    <path id="p2" d="M 283 577 C 366 517 423 432 462 338 C 473 305 473 305 478 288 C 500 234 512 167 543 119 C 550 106 548 98 538 89 C 508 61 484 47 463 52 C 452 53 448 60 453 72 C 468 114 458 189 422 299 C 409 331 409 331 402 347 C 344 475 253 566 130 622 C 94 637 59 663 121 654 C 156 647 202 627 259 594 C 275 583 275 583 283 577 Z"/>
    <path id="p3" d="M 539 324 C 607 414 695 506 766 579 C 793 607 858 611 965 600 C 985 597 995 590 973 581 C 850 530 783 499 771 491 C 686 435 624 383 561 321 C 556 316 535 318 539 324 Z"/>
    <path id="p4" d="M 314 592 C 304 585 293 580 283 577 C 274 573 254 586 259 594 C 283 632 300 699 306 797 C 308 844 320 878 348 895 C 363 904 369 887 371 874 C 372 863 372 853 371 843 C 363 785 353 701 349 631 C 349 614 328 602 314 592 Z"/>
    <path id="p5" d="M 595 857 C 598 894 618 965 649 916 C 664 883 684 809 696 692 C 699 659 706 630 726 605 C 736 591 738 578 730 570 C 715 554 691 541 660 527 C 647 520 629 520 607 529 C 536 555 439 576 314 592 C 297 595 332 634 349 631 C 384 625 421 617 451 611 C 480 605 480 605 494 602 C 574 585 621 575 631 588 C 641 602 641 638 635 691 C 629 745 618 809 608 832 C 605 841 595 848 595 857 Z"/>
    <path id="p6" d="M 510 732 C 536 728 561 727 584 725 C 600 723 606 717 601 708 C 594 697 582 689 564 686 C 550 683 532 684 512 689 C 477 697 477 697 460 701 C 431 707 404 712 380 718 C 367 720 367 729 383 738 C 405 751 436 741 461 738 C 494 734 494 734 510 732 Z"/>
    <path id="p7" d="M 505 823 C 505 790 508 760 510 732 C 511 703 511 703 512 689 C 515 616 531 625 494 602 C 481 594 446 597 451 611 C 455 615 458 644 460 701 C 461 726 461 726 461 738 C 461 762 461 793 463 830 C 463 844 505 837 505 823 Z"/>
    <path id="p8" d="M 371 874 C 394 874 528 859 595 857 C 604 857 614 839 608 832 C 586 801 577 810 505 823 C 477 828 477 828 463 830 C 429 835 398 838 371 843 C 361 845 361 874 371 874 Z"/>

    <clipPath id="z22859c1"><use href="#p1"/></clipPath>
    <clipPath id="z22859c2"><use href="#p2"/></clipPath>
    <clipPath id="z22859c3"><use href="#p3"/></clipPath>
    <clipPath id="z22859c4"><use href="#p4"/></clipPath>
    <clipPath id="z22859c5"><use href="#p5"/></clipPath>
    <clipPath id="z22859c6"><use href="#p6"/></clipPath>
    <clipPath id="z22859c7"><use href="#p7"/></clipPath>
    <clipPath id="z22859c8"><use href="#p8"/></clipPath>
</defs>
<g id="bg-layer" class="bg">
<use href="#p1"/>
<use href="#p2"/>
<use href="#p3"/>
<use href="#p4"/>
<use href="#p5"/>
<use href="#p6"/>
<use href="#p7"/>
<use href="#p8"/>
</g>
<g id="anim-layer">
    <path id="stroke-p1" style="stroke:#FF4444" pathLength="3333" clip-path="url(#z22859c1)" d="M 225 325 L 352 332 L 755 262"/>
    <path id="stroke-p2" style="stroke:#FF4444" pathLength="3333" clip-path="url(#z22859c2)" d="M 458 56 L 503 112 L 388 427 L 254 572 L 95 647"/>
    <path id="stroke-p3" style="stroke:#FF4444" pathLength="3333" clip-path="url(#z22859c3)" d="M 549 325 L 793 549 L 977 590"/>
    <path id="stroke-p4" style="stroke:#000" pathLength="3333" clip-path="url(#z22859c4)" d="M 266 590 L 314 635 L 357 891"/>
    <path id="stroke-p5" style="stroke:#000" pathLength="3333" clip-path="url(#z22859c5)" d="M 317 599 L 362 607 L 620 553 L 673 575 L 687 601 L 620 925"/>
    <path id="stroke-p6" style="stroke:#000" pathLength="3333" clip-path="url(#z22859c6)" d="M 378 724 L 598 713"/>
    <path id="stroke-p7" style="stroke:#000" pathLength="3333" clip-path="url(#z22859c7)" d="M 459 605 L 487 638 L 480 835"/>
    <path id="stroke-p8" style="stroke:#000" pathLength="3333" clip-path="url(#z22859c8)" d="M 369 863 L 606 836"/>
</g>
</svg>