<svg id="z23048" class="acjk" viewBox="0 0 1024 1024" xmlns="http://www.w3.org/2000/svg">
<style>
<![CDATA[
svg.acjk path[clip-path] {
    animation-duration: 9.7s;
    animation-timing-function: linear;
    animation-iteration-count: infinite;
    stroke-dasharray: 3337;
    stroke-dashoffset: 3339;
    stroke-width: 128;
    stroke-linecap: round;
    fill: none;
    stroke: #FF4444;
}
svg.acjk .bg { fill: #ccc; opacity: 0.5; }

/* Stroke 1: Starts at 0.0%, finishes at 8.2%, holds until 74.2% */
@keyframes zk1 {
    0%, 0.0% { stroke-dashoffset: 3339; }
    8.2%, 74.2% { stroke-dashoffset: 0; }
    74.3%, 100% { stroke-dashoffset: 3339; }
}
svg.acjk #stroke-p1 { animation-name: zk1; }
/* Stroke 2: Starts at 8.2%, finishes at 16.5%, holds until 74.2% */
@keyframes zk2 {
    0%, 8.2% { stroke-dashoffset: 3339; }
    16.5%, 74.2% { stroke-dashoffset: 0; }
    74.3%, 100% { stroke-dashoffset: 3339; }
}
svg.acjk #stroke-p2 { animation-name: zk2; }
/* Stroke 3: Starts at 16.5%, finishes at 24.7%, holds until 74.2% */
@keyframes zk3 {
    0%, 16.5% { stroke-dashoffset: 3339; }
    24.7%, 74.2% { stroke-dashoffset: 0; }
    74.3%, 100% { stroke-dashoffset: 3339; }
}
svg.acjk #stroke-p3 { animation-name: zk3; }
/* Stroke 4: Starts at 24.7%, finishes at 33.0%, holds until 74.2% */
@keyframes zk4 {
    0%, 24.7% { stroke-dashoffset: 3339; }
    33.0%, 74.2% { stroke-dashoffset: 0; }
    74.3%, 100% { stroke-dashoffset: 3339; }
}
svg.acjk #stroke-p4 { animation-name: zk4; }
/* Stroke 5: Starts at 33.0%, finishes at 41.2%, holds until 74.2% */
@keyframes zk5 {
    0%, 33.0% { stroke-dashoffset: 3339; }
    41.2%, 74.2% { stroke-dashoffset: 0; }
    74.3%, 100% { stroke-dashoffset: 3339; }
}
svg.acjk #stroke-p5 { animation-name: zk5; }
/* Stroke 6: Starts at 41.2%, finishes at 49.5%, holds until 74.2% */
@keyframes zk6 {
    0%, 41.2% { stroke-dashoffset: 3339; }
    49.5%, 74.2% { stroke-dashoffset: 0; }
    74.3%, 100% { stroke-dashoffset: 3339; }
}
svg.acjk #stroke-p6 { animation-name: zk6; }
/* Stroke 7: Starts at 49.5%, finishes at 57.7%, holds until 74.2% */
@keyframes zk7 {
    0%, 49.5% { stroke-dashoffset: 3339; }
    57.7%, 74.2% { stroke-dashoffset: 0; }
    74.3%, 100% { stroke-dashoffset: 3339; }
}
svg.acjk #stroke-p7 { animation-name: zk7; }
/* Stroke 8: Starts at 57.7%, finishes at 66.0%, holds until 74.2% */
@keyframes zk8 {
    0%, 57.7% { stroke-dashoffset: 3339; }
    66.0%, 74.2% { stroke-dashoffset: 0; }
    74.3%, 100% { stroke-dashoffset: 3339; }
}
svg.acjk #stroke-p8 { animation-name: zk8; }
/* Stroke 9: Starts at 66.0%, finishes at 74.2%, holds until 74.2% */
@keyframes zk9 {
    0%, 66.0% { stroke-dashoffset: 3339; }
    74.2%, 74.2% { stroke-dashoffset: 0; }
    74.3%, 100% { stroke-dashoffset: 3339; }
}
svg.acjk #stroke-p9 { animation-name: zk9; }
]]>
</style>
<defs>
    <path id="p1" d="M 481 125 Q 511 144 544 169 Q 560 181 578 177 Q 588 176 593 160 Q 594 144 581 112 Q 565 82 467 74 Q 451 73 443 77 Q 439 81 442 95 Q 449 107 481 125 Z"/>
    <path id="p2" d="M 596 242 Q 623 235 779 224 Q 792 225 803 211 Q 804 198 778 184 Q 736 157 649 181 Q 403 220 271 230 Q 237 233 262 255 Q 301 289 334 281 Q 365 275 399 271 C 420 268 420 268 430 266 Q 490 254 560 246 C 584 243 584 243 596 242 Z"/>
    <path id="p3" d="M 399 271 Q 420 292 405 394 Q 402 419 393 446 Q 374 494 403 528 Q 412 541 421 529 Q 442 510 452 418 Q 461 327 467 309 Q 470 293 456 284 Q 443 272 430 266 C 420 262 393 263 399 271 Z"/>
    <path id="p4" d="M 560 246 Q 576 277 561 430 Q 560 431 560 434 Q 560 449 557 456 Q 551 505 592 548 C 594 549 594 549 595 550 Q 605 551 609 540 Q 613 524 615 466 Q 609 321 616 268 Q 617 258 612 253 Q 605 246 596 242 C 585 238 556 235 560 246 Z"/>
    <path id="p5" d="M 301 352 Q 271 394 235 429 Q 208 459 219 497 Q 223 516 247 508 Q 302 481 316 416 Q 328 385 325 357 Q 322 347 316 345 Q 307 345 301 352 Z"/>
    <path id="p6" d="M 670 362 Q 719 402 777 460 Q 793 479 809 483 Q 818 484 825 473 Q 837 460 822 417 Q 806 365 670 331 Q 660 327 659 339 Q 659 352 670 362 Z"/>
    <path id="p7" d="M 485 606 Q 506 572 506 570 Q 502 557 466 529 Q 456 520 446 523 Q 434 526 440 541 Q 446 560 431 610 C 420 640 420 640 415 655 Q 396 698 377 724 Q 367 740 370 753 Q 373 763 389 766 Q 464 782 497 807 C 526 823 526 823 541 831 Q 602 865 686 929 Q 711 948 728 947 Q 747 946 747 927 Q 747 908 718 866 Q 705 841 571 792 C 540 781 540 781 525 775 Q 470 754 431 746 Q 412 742 422 724 Q 446 678 461 651 C 477 621 477 621 485 606 Z"/>
    <path id="p8" d="M 497 807 Q 425 874 261 905 Q 243 911 262 916 Q 379 938 480 883 Q 514 864 541 831 C 561 805 561 805 571 792 Q 596 755 615 713 Q 631 673 643 662 Q 653 652 647 641 Q 646 640 645 639 C 633 619 570 620 574 643 Q 583 691 525 775 C 506 796 506 796 497 807 Z"/>
    <path id="p9" d="M 645 639 Q 760 627 897 647 Q 921 651 927 642 Q 934 629 923 617 Q 895 589 851 568 Q 838 561 811 569 Q 709 587 490 605 Q 487 605 485 606 C 449 609 449 609 431 610 Q 349 614 303 621 Q 234 630 131 628 Q 118 627 116 638 Q 115 651 133 666 Q 149 679 180 691 Q 190 695 209 688 Q 281 667 415 655 C 446 652 446 652 461 651 Q 480 648 574 643 C 621 640 621 640 645 639 Z"/>

    <clipPath id="z23048c1"><use href="#p1"/></clipPath>
    <clipPath id="z23048c2"><use href="#p2"/></clipPath>
    <clipPath id="z23048c3"><use href="#p3"/></clipPath>
    <clipPath id="z23048c4"><use href="#p4"/></clipPath>
    <clipPath id="z23048c5"><use href="#p5"/></clipPath>
    <clipPath id="z23048c6"><use href="#p6"/></clipPath>
    <clipPath id="z23048c7"><use href="#p7"/></clipPath>
    <clipPath id="z23048c8"><use href="#p8"/></clipPath>
    <clipPath id="z23048c9"><use href="#p9"/></clipPath>
</defs>
<g id="bg-layer" class="bg">
<use href="#p1"/>
<use href="#p2"/>
<use href="#p3"/>
<use href="#p4"/>
<use href="#p5"/>
<use href="#p6"/>
<use href="#p7"/>
<use href="#p8"/>
<use href="#p9"/>
</g>
<g id="anim-layer">
    <path id="stroke-p1" style="stroke:#FF4444" pathLength="3333" clip-path="url(#z23048c1)" d="M 445 84 L 587 165"/>
    <path id="stroke-p2" style="stroke:#FF4444" pathLength="3333" clip-path="url(#z23048c2)" d="M 258 241 L 317 254 L 709 199 L 798 205"/>
    <path id="stroke-p3" style="stroke:#FF4444" pathLength="3333" clip-path="url(#z23048c3)" d="M 408 271 L 439 309 L 406 528"/>
    <path id="stroke-p4" style="stroke:#FF4444" pathLength="3333" clip-path="url(#z23048c4)" d="M 567 245 L 591 276 L 597 544"/>
    <path id="stroke-p5" style="stroke:#FF4444" pathLength="3333" clip-path="url(#z23048c5)" d="M 315 352 L 233 507"/>
    <path id="stroke-p6" style="stroke:#FF4444" pathLength="3333" clip-path="url(#z23048c6)" d="M 666 339 L 763 400 L 824 470"/>
    <path id="stroke-p7" style="stroke:#000" pathLength="3333" clip-path="url(#z23048c7)" d="M 447 531 L 472 574 L 396 747 L 651 860 L 731 944"/>
    <path id="stroke-p8" style="stroke:#000" pathLength="3333" clip-path="url(#z23048c8)" d="M 580 636 L 608 671 L 494 843 L 366 900 L 260 910"/>
    <path id="stroke-p9" style="stroke:#000" pathLength="3333" clip-path="url(#z23048c9)" d="M 119 637 L 189 660 L 841 602 L 926 638"/>
</g>
</svg>