<svg id="z23113" class="acjk" viewBox="0 0 1024 1024" xmlns="http://www.w3.org/2000/svg">
<style>
<![CDATA[
svg.acjk path[clip-path] {
    animation-duration: 11.3s;
    animation-timing-function: linear;
    animation-iteration-count: infinite;
    stroke-dasharray: 3337;
    stroke-dashoffset: 3339;
    stroke-width: 128;
    stroke-linecap: round;
    fill: none;
    stroke: #FF4444;
}
svg.acjk .bg { fill: #ccc; opacity: 0.5; }

/* Stroke 1: Starts at 0.0%, finishes at 7.1%, holds until 77.9% */
@keyframes zk1 {
    0%, 0.0% { stroke-dashoffset: 3339; }
    7.1%, 77.9% { stroke-dashoffset: 0; }
    78.0%, 100% { stroke-dashoffset: 3339; }
}
svg.acjk #stroke-p1 { animation-name: zk1; }
/* Stroke 2: Starts at 7.1%, finishes at 14.2%, holds until 77.9% */
@keyframes zk2 {
    0%, 7.1% { stroke-dashoffset: 3339; }
    14.2%, 77.9% { stroke-dashoffset: 0; }
    78.0%, 100% { stroke-dashoffset: 3339; }
}
svg.acjk #stroke-p2 { animation-name: zk2; }
/* Stroke 3: Starts at 14.2%, finishes at 21.2%, holds until 77.9% */
@keyframes zk3 {
    0%, 14.2% { stroke-dashoffset: 3339; }
    21.2%, 77.9% { stroke-dashoffset: 0; }
    78.0%, 100% { stroke-dashoffset: 3339; }
}
svg.acjk #stroke-p3 { animation-name: zk3; }
/* Stroke 4: Starts at 21.2%, finishes at 28.3%, holds until 77.9% */
@keyframes zk4 {
    0%, 21.2% { stroke-dashoffset: 3339; }
    28.3%, 77.9% { stroke-dashoffset: 0; }
    78.0%, 100% { stroke-dashoffset: 3339; }
}
svg.acjk #stroke-p4 { animation-name: zk4; }
/* Stroke 5: Starts at 28.3%, finishes at 35.4%, holds until 77.9% */
@keyframes zk5 {
    0%, 28.3% { stroke-dashoffset: 3339; }
    35.4%, 77.9% { stroke-dashoffset: 0; }
    78.0%, 100% { stroke-dashoffset: 3339; }
}
svg.acjk #stroke-p5 { animation-name: zk5; }
/* Stroke 6: Starts at 35.4%, finishes at 42.5%, holds until 77.9% */
@keyframes zk6 {
    0%, 35.4% { stroke-dashoffset: 3339; }
    42.5%, 77.9% { stroke-dashoffset: 0; }
    78.0%, 100% { stroke-dashoffset: 3339; }
}
svg.acjk #stroke-p6 { animation-name: zk6; }
/* Stroke 7: Starts at 42.5%, finishes at 49.6%, holds until 77.9% */
@keyframes zk7 {
    0%, 42.5% { stroke-dashoffset: 3339; }
    49.6%, 77.9% { stroke-dashoffset: 0; }
    78.0%, 100% { stroke-dashoffset: 3339; }
}
svg.acjk #stroke-p7 { animation-name: zk7; }
/* Stroke 8: Starts at 49.6%, finishes at 56.6%, holds until 77.9% */
@keyframes zk8 {
    0%, 49.6% { stroke-dashoffset: 3339; }
    56.6%, 77.9% { stroke-dashoffset: 0; }
    78.0%, 100% { stroke-dashoffset: 3339; }
}
svg.acjk #stroke-p8 { animation-name: zk8; }
/* Stroke 9: Starts at 56.6%, finishes at 63.7%, holds until 77.9% */
@keyframes zk9 {
    0%, 56.6% { stroke-dashoffset: 3339; }
    63.7%, 77.9% { stroke-dashoffset: 0; }
    78.0%, 100% { stroke-dashoffset: 3339; }
}
svg.acjk #stroke-p9 { animation-name: zk9; }
/* Stroke 10: Starts at 63.7%, finishes at 70.8%, holds until 77.9% */
@keyframes zk10 {
    0%, 63.7% { stroke-dashoffset: 3339; }
    70.8%, 77.9% { stroke-dashoffset: 0; }
    78.0%, 100% { stroke-dashoffset: 3339; }
}
svg.acjk #stroke-p10 { animation-name: zk10; }
/* Stroke 11: Starts at 70.8%, finishes at 77.9%, holds until 77.9% */
@keyframes zk11 {
    0%, 70.8% { stroke-dashoffset: 3339; }
    77.9%, 77.9% { stroke-dashoffset: 0; }
    78.0%, 100% { stroke-dashoffset: 3339; }
}
svg.acjk #stroke-p11 { animation-name: zk11; }
]]>
</style>
<defs>
    <path id="p1" d="M 240 436 C 255 377 268 318 281 259 C 287 230 296 208 306 193 C 313 180 315 168 310 161 C 302 149 282 136 254 121 C 228 107 204 119 218 139 C 237 167 240 270 201 444 C 194 473 194 473 191 488 C 181 528 171 564 153 602 C 146 616 149 630 164 639 C 189 653 214 666 236 683 C 257 699 257 699 268 707 C 282 717 298 731 317 747 C 326 755 335 762 341 761 C 362 757 355 725 352 711 C 346 690 326 673 295 661 C 270 651 270 651 258 646 C 245 640 229 633 211 627 C 198 622 190 613 193 601 C 203 557 218 515 230 473 C 237 448 237 448 240 436 Z"/>
    <path id="p2" d="M 236 683 C 204 723 170 757 121 793 C 77 818 94 828 137 811 C 204 782 243 741 268 707 C 278 692 286 676 295 661 C 306 638 321 618 346 501 C 349 484 353 463 366 438 C 371 427 368 419 360 414 C 331 394 311 386 298 391 C 290 393 288 398 292 407 C 293 412 294 415 298 424 C 300 430 301 438 302 446 C 302 501 284 589 258 646 C 251 658 244 671 236 683 Z"/>
    <path id="p3" d="M 298 424 C 279 426 260 431 240 436 C 214 441 214 441 201 444 C 167 450 125 460 100 464 C 89 465 76 464 60 464 C 45 463 40 481 52 492 C 64 503 79 514 98 526 C 103 529 110 527 117 523 C 145 504 171 495 191 488 C 217 478 217 478 230 473 C 253 463 277 454 302 446 C 309 443 305 423 298 424 Z"/>
    <path id="p4" d="M 578 147 C 594 159 611 174 629 191 C 634 196 665 218 677 188 C 680 177 677 161 670 141 C 661 118 627 106 571 97 C 541 92 541 103 545 115 C 546 121 558 132 578 147 Z"/>
    <path id="p5" d="M 477 303 C 468 281 458 267 449 259 C 444 255 434 256 434 271 C 433 289 424 320 400 363 C 394 372 389 381 389 394 C 389 406 392 416 397 426 C 401 434 403 432 409 431 C 418 427 427 413 440 385 C 455 349 465 333 470 326 C 474 319 480 310 477 303 Z"/>
    <path id="p6" d="M 470 326 C 482 334 506 333 540 322 C 612 296 676 283 732 274 C 746 271 766 274 762 292 C 761 294 758 316 747 359 C 742 376 750 382 770 365 C 798 338 826 321 852 310 C 875 299 890 291 866 273 C 854 265 836 254 811 241 C 798 234 769 237 722 247 C 632 264 555 283 477 303 C 469 305 463 322 470 326 Z"/>
    <path id="p7" d="M 420 591 C 445 563 460 536 473 517 C 480 506 480 506 484 500 C 503 469 513 449 519 444 C 523 439 523 433 521 427 C 518 420 510 413 497 405 C 484 396 473 393 465 395 C 457 395 453 401 459 411 C 467 427 459 465 428 527 C 413 555 397 585 375 615 C 362 631 367 638 381 628 C 391 620 398 613 403 609 C 414 597 414 597 420 591 Z"/>
    <path id="p8" d="M 473 517 C 479 519 489 520 502 520 C 532 518 532 520 530 538 C 529 548 525 563 521 583 C 492 708 394 808 338 861 C 320 877 336 872 348 869 C 417 848 504 752 550 630 C 572 570 588 534 600 524 C 606 518 608 513 605 507 C 602 501 586 492 559 481 C 552 478 544 480 532 486 C 522 490 506 495 484 500 C 477 501 466 516 473 517 Z"/>
    <path id="p9" d="M 403 609 C 427 647 443 666 454 668 C 457 668 479 665 468 633 C 463 620 447 607 420 591 C 413 587 398 602 403 609 Z"/>
    <path id="p10" d="M 666 489 C 680 482 718 464 759 454 C 779 448 775 473 774 488 C 770 533 765 567 755 587 C 747 601 736 609 723 607 C 712 605 701 600 691 596 C 679 591 675 596 685 608 C 704 631 718 651 729 667 C 736 678 745 676 755 669 C 784 645 807 591 819 503 C 821 480 826 463 835 453 C 840 446 843 439 839 434 C 835 428 818 422 791 412 C 780 408 770 410 761 417 C 750 424 737 429 709 440 C 691 446 674 451 659 456 C 649 460 656 494 666 489 Z"/>
    <path id="p11" d="M 954 793 C 945 776 933 742 921 690 C 915 667 910 658 903 684 C 887 740 872 777 861 794 C 855 802 842 810 823 815 C 777 825 737 825 698 810 C 687 805 672 793 668 782 C 648 732 644 636 666 489 C 668 478 668 463 659 456 C 651 448 640 442 627 438 C 621 436 597 429 607 459 C 614 481 618 504 617 527 C 610 669 614 760 625 801 C 628 815 636 830 650 843 C 692 883 768 895 870 873 C 884 869 922 855 948 834 C 960 823 962 809 954 793 Z"/>

    <clipPath id="z23113c1"><use href="#p1"/></clipPath>
    <clipPath id="z23113c2"><use href="#p2"/></clipPath>
    <clipPath id="z23113c3"><use href="#p3"/></clipPath>
    <clipPath id="z23113c4"><use href="#p4"/></clipPath>
    <clipPath id="z23113c5"><use href="#p5"/></clipPath>
    <clipPath id="z23113c6"><use href="#p6"/></clipPath>
    <clipPath id="z23113c7"><use href="#p7"/></clipPath>
    <clipPath id="z23113c8"><use href="#p8"/></clipPath>
    <clipPath id="z23113c9"><use href="#p9"/></clipPath>
    <clipPath id="z23113c10"><use href="#p10"/></clipPath>
    <clipPath id="z23113c11"><use href="#p11"/></clipPath>
</defs>
<g id="bg-layer" class="bg">
<use href="#p1"/>
<use href="#p2"/>
<use href="#p3"/>
<use href="#p4"/>
<use href="#p5"/>
<use href="#p6"/>
<use href="#p7"/>
<use href="#p8"/>
<use href="#p9"/>
<use href="#p10"/>
<use href="#p11"/>
</g>
<g id="anim-layer">
    <path id="stroke-p1" style="stroke:#FF4444" pathLength="3333" clip-path="url(#z23113c1)" d="M 221 121 L 269 191 L 172 617 L 311 703 L 343 757"/>
    <path id="stroke-p2" style="stroke:#FF4444" pathLength="3333" clip-path="url(#z23113c2)" d="M 297 398 L 335 435 L 276 655 L 203 748 L 102 815"/>
    <path id="stroke-p3" style="stroke:#FF4444" pathLength="3333" clip-path="url(#z23113c3)" d="M 49 477 L 106 494 L 300 433"/>
    <path id="stroke-p4" style="stroke:#000" pathLength="3333" clip-path="url(#z23113c4)" d="M 547 105 L 638 152 L 666 197"/>
    <path id="stroke-p5" style="stroke:#000" pathLength="3333" clip-path="url(#z23113c5)" d="M 442 263 L 452 306 L 405 426"/>
    <path id="stroke-p6" style="stroke:#000" pathLength="3333" clip-path="url(#z23113c6)" d="M 473 320 L 777 258 L 823 302 L 753 369"/>
    <path id="stroke-p7" style="stroke:#000" pathLength="3333" clip-path="url(#z23113c7)" d="M 465 400 L 491 438 L 374 628"/>
    <path id="stroke-p8" style="stroke:#000" pathLength="3333" clip-path="url(#z23113c8)" d="M 477 511 L 543 501 L 568 523 L 527 633 L 451 766 L 340 866"/>
    <path id="stroke-p9" style="stroke:#000" pathLength="3333" clip-path="url(#z23113c9)" d="M 413 596 L 461 661"/>
    <path id="stroke-p10" style="stroke:#000" pathLength="3333" clip-path="url(#z23113c10)" d="M 658 482 L 758 436 L 806 447 L 760 623 L 738 640 L 687 601"/>
    <path id="stroke-p11" style="stroke:#000" pathLength="3333" clip-path="url(#z23113c11)" d="M 611 441 L 640 481 L 640 770 L 673 827 L 792 852 L 892 822 L 917 783 L 911 678"/>
</g>
</svg>