<svg id="z23156" class="acjk" viewBox="0 0 1024 1024" xmlns="http://www.w3.org/2000/svg">
<style>
<![CDATA[
svg.acjk path[clip-path] {
    animation-duration: 11.3s;
    animation-timing-function: linear;
    animation-iteration-count: infinite;
    stroke-dasharray: 3337;
    stroke-dashoffset: 3339;
    stroke-width: 128;
    stroke-linecap: round;
    fill: none;
    stroke: #FF4444;
}
svg.acjk .bg { fill: #ccc; opacity: 0.5; }

/* Stroke 1: Starts at 0.0%, finishes at 7.1%, holds until 77.9% */
@keyframes zk1 {
    0%, 0.0% { stroke-dashoffset: 3339; }
    7.1%, 77.9% { stroke-dashoffset: 0; }
    78.0%, 100% { stroke-dashoffset: 3339; }
}
svg.acjk #stroke-p1 { animation-name: zk1; }
/* Stroke 2: Starts at 7.1%, finishes at 14.2%, holds until 77.9% */
@keyframes zk2 {
    0%, 7.1% { stroke-dashoffset: 3339; }
    14.2%, 77.9% { stroke-dashoffset: 0; }
    78.0%, 100% { stroke-dashoffset: 3339; }
}
svg.acjk #stroke-p2 { animation-name: zk2; }
/* Stroke 3: Starts at 14.2%, finishes at 21.2%, holds until 77.9% */
@keyframes zk3 {
    0%, 14.2% { stroke-dashoffset: 3339; }
    21.2%, 77.9% { stroke-dashoffset: 0; }
    78.0%, 100% { stroke-dashoffset: 3339; }
}
svg.acjk #stroke-p3 { animation-name: zk3; }
/* Stroke 4: Starts at 21.2%, finishes at 28.3%, holds until 77.9% */
@keyframes zk4 {
    0%, 21.2% { stroke-dashoffset: 3339; }
    28.3%, 77.9% { stroke-dashoffset: 0; }
    78.0%, 100% { stroke-dashoffset: 3339; }
}
svg.acjk #stroke-p4 { animation-name: zk4; }
/* Stroke 5: Starts at 28.3%, finishes at 35.4%, holds until 77.9% */
@keyframes zk5 {
    0%, 28.3% { stroke-dashoffset: 3339; }
    35.4%, 77.9% { stroke-dashoffset: 0; }
    78.0%, 100% { stroke-dashoffset: 3339; }
}
svg.acjk #stroke-p5 { animation-name: zk5; }
/* Stroke 6: Starts at 35.4%, finishes at 42.5%, holds until 77.9% */
@keyframes zk6 {
    0%, 35.4% { stroke-dashoffset: 3339; }
    42.5%, 77.9% { stroke-dashoffset: 0; }
    78.0%, 100% { stroke-dashoffset: 3339; }
}
svg.acjk #stroke-p6 { animation-name: zk6; }
/* Stroke 7: Starts at 42.5%, finishes at 49.6%, holds until 77.9% */
@keyframes zk7 {
    0%, 42.5% { stroke-dashoffset: 3339; }
    49.6%, 77.9% { stroke-dashoffset: 0; }
    78.0%, 100% { stroke-dashoffset: 3339; }
}
svg.acjk #stroke-p7 { animation-name: zk7; }
/* Stroke 8: Starts at 49.6%, finishes at 56.6%, holds until 77.9% */
@keyframes zk8 {
    0%, 49.6% { stroke-dashoffset: 3339; }
    56.6%, 77.9% { stroke-dashoffset: 0; }
    78.0%, 100% { stroke-dashoffset: 3339; }
}
svg.acjk #stroke-p8 { animation-name: zk8; }
/* Stroke 9: Starts at 56.6%, finishes at 63.7%, holds until 77.9% */
@keyframes zk9 {
    0%, 56.6% { stroke-dashoffset: 3339; }
    63.7%, 77.9% { stroke-dashoffset: 0; }
    78.0%, 100% { stroke-dashoffset: 3339; }
}
svg.acjk #stroke-p9 { animation-name: zk9; }
/* Stroke 10: Starts at 63.7%, finishes at 70.8%, holds until 77.9% */
@keyframes zk10 {
    0%, 63.7% { stroke-dashoffset: 3339; }
    70.8%, 77.9% { stroke-dashoffset: 0; }
    78.0%, 100% { stroke-dashoffset: 3339; }
}
svg.acjk #stroke-p10 { animation-name: zk10; }
/* Stroke 11: Starts at 70.8%, finishes at 77.9%, holds until 77.9% */
@keyframes zk11 {
    0%, 70.8% { stroke-dashoffset: 3339; }
    77.9%, 77.9% { stroke-dashoffset: 0; }
    78.0%, 100% { stroke-dashoffset: 3339; }
}
svg.acjk #stroke-p11 { animation-name: zk11; }
]]>
</style>
<defs>
    <path id="p1" d="M 272 148 Q 256 136 238 131 Q 231 130 226 136 Q 225 140 230 149 Q 260 254 233 352 Q 221 389 248 422 Q 257 432 264 421 Q 282 400 283 271 Q 283 192 286 172 C 288 163 279 154 272 148 Z"/>
    <path id="p2" d="M 421 366 Q 415 382 425 400 Q 435 422 442 421 Q 452 420 465 396 Q 477 377 476 361 Q 458 214 486 165 Q 501 141 438 113 Q 432 110 428 109 Q 419 106 345 133 Q 312 142 272 148 C 263 150 277 174 286 172 Q 349 162 414 150 C 415 151 415 151 416 151 Q 423 167 426 210 Q 427 340 421 366 Z"/>
    <path id="p3" d="M 333 265 Q 334 422 273 477 Q 252 496 205 522 Q 196 525 194 528 Q 190 532 201 534 Q 223 537 291 504 Q 363 462 373 313 Q 377 264 385 242 Q 389 235 382 228 Q 369 216 343 206 Q 327 199 315 203 Q 300 209 312 221 Q 333 243 333 265 Z"/>
    <path id="p4" d="M 399 458 Q 447 497 455 497 Q 462 497 466 488 Q 469 478 462 457 Q 455 438 395 426 Q 385 425 380 426 Q 376 429 378 437 Q 381 444 399 458 Z"/>
    <path id="p5" d="M 568 128 Q 552 116 534 111 Q 527 110 522 116 Q 521 120 526 129 Q 556 234 529 332 Q 517 369 544 402 Q 553 412 560 401 Q 578 380 579 251 Q 580 172 583 151 C 585 142 575 133 568 128 Z"/>
    <path id="p6" d="M 730 347 Q 724 365 735 383 Q 747 407 754 405 Q 766 404 779 378 Q 791 357 789 340 Q 770 184 797 142 Q 809 123 770 101 Q 755 92 737 85 Q 724 81 705 88 Q 654 113 568 128 C 559 130 574 153 583 151 Q 595 151 654 135 Q 709 120 722 128 Q 729 144 733 188 Q 737 321 730 347 Z"/>
    <path id="p7" d="M 630 241 Q 639 400 578 463 Q 559 484 517 512 Q 507 516 505 520 Q 502 524 513 525 Q 567 525 623 464 Q 627 458 631 453 Q 667 402 671 290 Q 675 235 682 218 Q 686 209 679 204 Q 666 192 639 182 Q 623 175 611 180 Q 596 186 609 198 Q 630 219 630 241 Z"/>
    <path id="p8" d="M 691 456 Q 719 481 750 511 Q 760 521 773 522 Q 780 522 785 511 Q 789 501 783 477 Q 777 449 689 419 Q 677 415 672 417 Q 668 421 669 430 Q 670 439 691 456 Z"/>
    <path id="p9" d="M 471 604 Q 477 592 484 584 Q 494 577 491 567 Q 487 554 450 524 Q 440 515 428 519 Q 415 520 422 537 Q 429 556 413 609 C 401 639 401 639 395 654 Q 379 688 364 711 Q 354 729 357 741 Q 358 751 376 755 Q 422 768 471 795 C 503 813 503 813 519 822 Q 580 859 670 933 Q 695 954 713 953 Q 734 953 734 933 Q 735 914 706 867 Q 691 840 548 782 C 515 769 515 769 499 762 Q 454 744 421 735 Q 400 731 412 711 Q 433 671 447 647 C 463 618 463 618 471 604 Z"/>
    <path id="p10" d="M 618 589 Q 582 558 548 565 Q 535 568 540 584 Q 543 588 545 596 C 549 609 547 624 547 638 Q 544 695 499 762 C 480 784 480 784 471 795 Q 408 861 245 903 Q 226 910 248 915 Q 425 934 519 822 C 538 795 538 795 548 782 Q 581 734 598 680 Q 608 649 617 632 C 622 619 629 598 618 589 Z"/>
    <path id="p11" d="M 617 632 Q 770 620 906 635 Q 930 638 936 629 Q 943 616 931 604 Q 903 576 859 556 Q 844 550 819 558 Q 746 573 672 583 Q 644 584 618 589 C 569 594 569 594 545 596 Q 494 597 471 604 C 432 607 432 607 413 609 Q 335 615 290 621 Q 218 631 110 632 Q 97 632 95 643 Q 94 655 113 670 Q 129 683 160 695 Q 170 699 189 691 Q 243 673 395 654 C 430 649 430 649 447 647 Q 471 643 547 638 C 594 634 594 634 617 632 Z"/>

    <clipPath id="z23156c1"><use href="#p1"/></clipPath>
    <clipPath id="z23156c2"><use href="#p2"/></clipPath>
    <clipPath id="z23156c3"><use href="#p3"/></clipPath>
    <clipPath id="z23156c4"><use href="#p4"/></clipPath>
    <clipPath id="z23156c5"><use href="#p5"/></clipPath>
    <clipPath id="z23156c6"><use href="#p6"/></clipPath>
    <clipPath id="z23156c7"><use href="#p7"/></clipPath>
    <clipPath id="z23156c8"><use href="#p8"/></clipPath>
    <clipPath id="z23156c9"><use href="#p9"/></clipPath>
    <clipPath id="z23156c10"><use href="#p10"/></clipPath>
    <clipPath id="z23156c11"><use href="#p11"/></clipPath>
</defs>
<g id="bg-layer" class="bg">
<use href="#p1"/>
<use href="#p2"/>
<use href="#p3"/>
<use href="#p4"/>
<use href="#p5"/>
<use href="#p6"/>
<use href="#p7"/>
<use href="#p8"/>
<use href="#p9"/>
<use href="#p10"/>
<use href="#p11"/>
</g>
<g id="anim-layer">
    <path id="stroke-p1" style="stroke:#FF4444" pathLength="3333" clip-path="url(#z23156c1)" d="M 235 136 L 262 178 L 253 418"/>
    <path id="stroke-p2" style="stroke:#FF4444" pathLength="3333" clip-path="url(#z23156c2)" d="M 280 150 L 420 131 L 449 150 L 441 414"/>
    <path id="stroke-p3" style="stroke:#FF4444" pathLength="3333" clip-path="url(#z23156c3)" d="M 314 210 L 358 243 L 337 405 L 290 484 L 202 527"/>
    <path id="stroke-p4" style="stroke:#FF4444" pathLength="3333" clip-path="url(#z23156c4)" d="M 384 434 L 463 484"/>
    <path id="stroke-p5" style="stroke:#000" pathLength="3333" clip-path="url(#z23156c5)" d="M 531 118 L 559 160 L 551 397"/>
    <path id="stroke-p6" style="stroke:#000" pathLength="3333" clip-path="url(#z23156c6)" d="M 578 130 L 715 104 L 756 124 L 754 399"/>
    <path id="stroke-p7" style="stroke:#000" pathLength="3333" clip-path="url(#z23156c7)" d="M 610 185 L 655 218 L 635 399 L 599 465 L 515 519"/>
    <path id="stroke-p8" style="stroke:#000" pathLength="3333" clip-path="url(#z23156c8)" d="M 675 422 L 774 515"/>
    <path id="stroke-p9" style="stroke:#000" pathLength="3333" clip-path="url(#z23156c9)" d="M 429 527 L 456 576 L 384 736 L 589 831 L 728 942"/>
    <path id="stroke-p10" style="stroke:#000" pathLength="3333" clip-path="url(#z23156c10)" d="M 546 572 L 582 603 L 578 645 L 499 804 L 403 874 L 245 908"/>
    <path id="stroke-p11" style="stroke:#000" pathLength="3333" clip-path="url(#z23156c11)" d="M 99 644 L 169 663 L 833 591 L 933 623"/>
</g>
</svg>