<svg id="z23223" class="acjk" viewBox="0 0 1024 1024" xmlns="http://www.w3.org/2000/svg">
<style>
<![CDATA[
svg.acjk path[clip-path] {
    animation-duration: 12.9s;
    animation-timing-function: linear;
    animation-iteration-count: infinite;
    stroke-dasharray: 3337;
    stroke-dashoffset: 3339;
    stroke-width: 128;
    stroke-linecap: round;
    fill: none;
    stroke: #FF4444;
}
svg.acjk .bg { fill: #ccc; opacity: 0.5; }

/* Stroke 1: Starts at 0.0%, finishes at 6.2%, holds until 80.6% */
@keyframes zk1 {
    0%, 0.0% { stroke-dashoffset: 3339; }
    6.2%, 80.6% { stroke-dashoffset: 0; }
    80.7%, 100% { stroke-dashoffset: 3339; }
}
svg.acjk #stroke-p1 { animation-name: zk1; }
/* Stroke 2: Starts at 6.2%, finishes at 12.4%, holds until 80.6% */
@keyframes zk2 {
    0%, 6.2% { stroke-dashoffset: 3339; }
    12.4%, 80.6% { stroke-dashoffset: 0; }
    80.7%, 100% { stroke-dashoffset: 3339; }
}
svg.acjk #stroke-p2 { animation-name: zk2; }
/* Stroke 3: Starts at 12.4%, finishes at 18.6%, holds until 80.6% */
@keyframes zk3 {
    0%, 12.4% { stroke-dashoffset: 3339; }
    18.6%, 80.6% { stroke-dashoffset: 0; }
    80.7%, 100% { stroke-dashoffset: 3339; }
}
svg.acjk #stroke-p3 { animation-name: zk3; }
/* Stroke 4: Starts at 18.6%, finishes at 24.8%, holds until 80.6% */
@keyframes zk4 {
    0%, 18.6% { stroke-dashoffset: 3339; }
    24.8%, 80.6% { stroke-dashoffset: 0; }
    80.7%, 100% { stroke-dashoffset: 3339; }
}
svg.acjk #stroke-p4 { animation-name: zk4; }
/* Stroke 5: Starts at 24.8%, finishes at 31.0%, holds until 80.6% */
@keyframes zk5 {
    0%, 24.8% { stroke-dashoffset: 3339; }
    31.0%, 80.6% { stroke-dashoffset: 0; }
    80.7%, 100% { stroke-dashoffset: 3339; }
}
svg.acjk #stroke-p5 { animation-name: zk5; }
/* Stroke 6: Starts at 31.0%, finishes at 37.2%, holds until 80.6% */
@keyframes zk6 {
    0%, 31.0% { stroke-dashoffset: 3339; }
    37.2%, 80.6% { stroke-dashoffset: 0; }
    80.7%, 100% { stroke-dashoffset: 3339; }
}
svg.acjk #stroke-p6 { animation-name: zk6; }
/* Stroke 7: Starts at 37.2%, finishes at 43.4%, holds until 80.6% */
@keyframes zk7 {
    0%, 37.2% { stroke-dashoffset: 3339; }
    43.4%, 80.6% { stroke-dashoffset: 0; }
    80.7%, 100% { stroke-dashoffset: 3339; }
}
svg.acjk #stroke-p7 { animation-name: zk7; }
/* Stroke 8: Starts at 43.4%, finishes at 49.6%, holds until 80.6% */
@keyframes zk8 {
    0%, 43.4% { stroke-dashoffset: 3339; }
    49.6%, 80.6% { stroke-dashoffset: 0; }
    80.7%, 100% { stroke-dashoffset: 3339; }
}
svg.acjk #stroke-p8 { animation-name: zk8; }
/* Stroke 9: Starts at 49.6%, finishes at 55.8%, holds until 80.6% */
@keyframes zk9 {
    0%, 49.6% { stroke-dashoffset: 3339; }
    55.8%, 80.6% { stroke-dashoffset: 0; }
    80.7%, 100% { stroke-dashoffset: 3339; }
}
svg.acjk #stroke-p9 { animation-name: zk9; }
/* Stroke 10: Starts at 55.8%, finishes at 62.0%, holds until 80.6% */
@keyframes zk10 {
    0%, 55.8% { stroke-dashoffset: 3339; }
    62.0%, 80.6% { stroke-dashoffset: 0; }
    80.7%, 100% { stroke-dashoffset: 3339; }
}
svg.acjk #stroke-p10 { animation-name: zk10; }
/* Stroke 11: Starts at 62.0%, finishes at 68.2%, holds until 80.6% */
@keyframes zk11 {
    0%, 62.0% { stroke-dashoffset: 3339; }
    68.2%, 80.6% { stroke-dashoffset: 0; }
    80.7%, 100% { stroke-dashoffset: 3339; }
}
svg.acjk #stroke-p11 { animation-name: zk11; }
/* Stroke 12: Starts at 68.2%, finishes at 74.4%, holds until 80.6% */
@keyframes zk12 {
    0%, 68.2% { stroke-dashoffset: 3339; }
    74.4%, 80.6% { stroke-dashoffset: 0; }
    80.7%, 100% { stroke-dashoffset: 3339; }
}
svg.acjk #stroke-p12 { animation-name: zk12; }
/* Stroke 13: Starts at 74.4%, finishes at 80.6%, holds until 80.6% */
@keyframes zk13 {
    0%, 74.4% { stroke-dashoffset: 3339; }
    80.6%, 80.6% { stroke-dashoffset: 0; }
    80.7%, 100% { stroke-dashoffset: 3339; }
}
svg.acjk #stroke-p13 { animation-name: zk13; }
]]>
</style>
<defs>
    <path id="p1" d="M 287 685 Q 324 718 337 721 Q 344 720 350 710 Q 354 700 348 671 Q 339 641 313 632 C 285 621 285 621 271 615 Q 250 606 219 595 Q 200 588 201 569 Q 217 514 232 457 C 239 428 239 428 243 414 Q 292 192 299 183 Q 309 150 307 145 Q 294 129 250 105 Q 231 95 216 103 Q 206 110 215 124 Q 245 167 203 424 C 196 456 196 456 193 472 Q 175 544 160 571 Q 153 592 173 607 Q 227 632 250 656 C 275 675 275 675 287 685 Z"/>
    <path id="p2" d="M 250 656 Q 198 743 109 797 Q 93 806 89 811 Q 86 817 97 819 Q 130 825 203 776 Q 257 737 287 685 C 304 650 304 650 313 632 Q 341 562 384 416 Q 394 400 377 386 Q 338 355 324 355 Q 305 355 315 377 Q 318 384 319 394 C 320 413 320 413 320 423 Q 320 429 319 436 Q 310 524 271 615 C 257 642 257 642 250 656 Z"/>
    <path id="p3" d="M 319 394 Q 282 403 243 414 C 216 421 216 421 203 424 Q 148 436 92 450 Q 74 454 44 452 Q 32 453 30 462 Q 27 475 35 483 Q 56 499 86 519 Q 96 523 108 515 Q 109 514 193 472 C 219 462 219 462 232 457 Q 295 432 320 423 C 329 419 328 392 319 394 Z"/>
    <path id="p4" d="M 516 202 Q 558 217 611 204 Q 687 186 767 169 Q 806 159 811 154 Q 820 147 815 139 Q 808 129 782 122 Q 757 118 648 154 Q 540 175 520 178 Q 513 179 509 181 C 502 184 509 199 516 202 Z"/>
    <path id="p5" d="M 500 349 Q 506 220 516 202 C 519 195 514 186 509 181 Q 494 168 469 157 Q 451 148 439 153 Q 429 160 435 173 Q 454 197 455 263 Q 454 275 454 290 Q 451 464 413 584 Q 376 696 305 811 Q 301 818 299 823 Q 298 833 307 831 Q 334 828 407 706 Q 422 678 436 646 Q 482 529 499 369 C 500 356 500 356 500 349 Z"/>
    <path id="p6" d="M 568 257 Q 540 264 561 276 Q 588 289 651 275 Q 729 254 745 247 Q 752 240 747 233 Q 740 224 717 220 Q 699 217 627 244 Q 600 251 568 257 Z"/>
    <path id="p7" d="M 644 354 Q 722 335 835 315 Q 844 316 850 305 Q 851 296 832 288 Q 808 272 720 301 Q 597 329 500 349 C 493 350 493 366 499 369 Q 520 381 530 382 C 541 384 553 376 564 374 Q 585 368 610 362 C 633 357 633 357 644 354 Z"/>
    <path id="p8" d="M 530 382 Q 545 410 544 438 Q 541 492 524 516 Q 500 547 536 584 Q 536 585 539 587 Q 548 594 558 579 Q 582 552 661 486 Q 676 476 677 469 Q 680 459 662 466 Q 587 496 583 494 Q 576 490 577 472 Q 583 426 587 415 Q 591 399 580 389 Q 571 379 564 374 C 555 367 525 372 530 382 Z"/>
    <path id="p9" d="M 747 436 Q 804 400 834 387 Q 847 384 845 375 Q 841 362 826 347 Q 811 331 793 329 Q 781 329 782 344 Q 783 359 731 425 C 727 430 742 440 747 436 Z"/>
    <path id="p10" d="M 731 425 Q 700 400 665 369 Q 655 359 644 354 C 634 348 599 358 610 362 Q 638 374 706 450 Q 788 532 816 532 Q 874 531 921 520 Q 945 516 943 509 Q 856 479 767 448 Q 755 441 747 436 C 736 429 736 429 731 425 Z"/>
    <path id="p11" d="M 754 641 Q 809 634 884 633 Q 933 633 940 623 Q 944 613 929 601 Q 880 565 809 586 Q 785 592 756 599 C 723 606 723 606 707 609 Q 688 610 478 648 Q 459 651 474 665 Q 487 677 503 681 Q 522 685 537 681 Q 633 651 708 646 C 739 643 739 643 754 641 Z"/>
    <path id="p12" d="M 708 646 Q 711 844 696 860 Q 687 866 617 849 Q 607 848 607 853 Q 608 860 617 867 Q 681 922 703 956 Q 716 972 730 959 Q 763 926 761 864 Q 758 834 754 641 C 755 613 755 613 756 599 Q 757 583 764 568 Q 771 552 757 540 Q 733 521 707 512 Q 691 506 683 513 Q 677 519 687 533 Q 708 566 707 609 C 708 634 708 634 708 646 Z"/>
    <path id="p13" d="M 546 733 Q 564 752 582 774 Q 592 784 604 785 Q 613 785 617 775 Q 621 765 617 741 Q 610 714 545 696 Q 533 692 528 693 Q 524 696 524 706 Q 525 715 546 733 Z"/>

    <clipPath id="z23223c1"><use href="#p1"/></clipPath>
    <clipPath id="z23223c2"><use href="#p2"/></clipPath>
    <clipPath id="z23223c3"><use href="#p3"/></clipPath>
    <clipPath id="z23223c4"><use href="#p4"/></clipPath>
    <clipPath id="z23223c5"><use href="#p5"/></clipPath>
    <clipPath id="z23223c6"><use href="#p6"/></clipPath>
    <clipPath id="z23223c7"><use href="#p7"/></clipPath>
    <clipPath id="z23223c8"><use href="#p8"/></clipPath>
    <clipPath id="z23223c9"><use href="#p9"/></clipPath>
    <clipPath id="z23223c10"><use href="#p10"/></clipPath>
    <clipPath id="z23223c11"><use href="#p11"/></clipPath>
    <clipPath id="z23223c12"><use href="#p12"/></clipPath>
    <clipPath id="z23223c13"><use href="#p13"/></clipPath>
</defs>
<g id="bg-layer" class="bg">
<use href="#p1"/>
<use href="#p2"/>
<use href="#p3"/>
<use href="#p4"/>
<use href="#p5"/>
<use href="#p6"/>
<use href="#p7"/>
<use href="#p8"/>
<use href="#p9"/>
<use href="#p10"/>
<use href="#p11"/>
<use href="#p12"/>
<use href="#p13"/>
</g>
<g id="anim-layer">
    <path id="stroke-p1" style="stroke:#FF4444" pathLength="3333" clip-path="url(#z23223c1)" d="M 217 107 L 266 160 L 179 578 L 307 662 L 341 712"/>
    <path id="stroke-p2" style="stroke:#FF4444" pathLength="3333" clip-path="url(#z23223c2)" d="M 321 364 L 353 411 L 293 621 L 216 738 L 98 810"/>
    <path id="stroke-p3" style="stroke:#FF4444" pathLength="3333" clip-path="url(#z23223c3)" d="M 33 467 L 97 484 L 321 402"/>
    <path id="stroke-p4" style="stroke:#000" pathLength="3333" clip-path="url(#z23223c4)" d="M 514 185 L 812 146"/>
    <path id="stroke-p5" style="stroke:#000" pathLength="3333" clip-path="url(#z23223c5)" d="M 440 158 L 483 210 L 456 501 L 406 662 L 305 825"/>
    <path id="stroke-p6" style="stroke:#000" pathLength="3333" clip-path="url(#z23223c6)" d="M 563 267 L 743 234"/>
    <path id="stroke-p7" style="stroke:#000" pathLength="3333" clip-path="url(#z23223c7)" d="M 499 358 L 844 303"/>
    <path id="stroke-p8" style="stroke:#000" pathLength="3333" clip-path="url(#z23223c8)" d="M 537 380 L 565 413 L 547 515 L 561 540 L 670 469"/>
    <path id="stroke-p9" style="stroke:#000" pathLength="3333" clip-path="url(#z23223c9)" d="M 792 331 L 809 371 L 738 429"/>
    <path id="stroke-p10" style="stroke:#000" pathLength="3333" clip-path="url(#z23223c10)" d="M 615 359 L 805 495 L 935 512"/>
    <path id="stroke-p11" style="stroke:#000" pathLength="3333" clip-path="url(#z23223c11)" d="M 476 655 L 936 611"/>
    <path id="stroke-p12" style="stroke:#000" pathLength="3333" clip-path="url(#z23223c12)" d="M 687 517 L 734 559 L 725 887 L 701 911 L 616 854"/>
    <path id="stroke-p13" style="stroke:#000" pathLength="3333" clip-path="url(#z23223c13)" d="M 531 697 L 604 781"/>
</g>
</svg>