<svg id="z23476" class="acjk" viewBox="0 0 1024 1024" xmlns="http://www.w3.org/2000/svg">
<style>
<![CDATA[
svg.acjk path[clip-path] {
    animation-duration: 10.5s;
    animation-timing-function: linear;
    animation-iteration-count: infinite;
    stroke-dasharray: 3337;
    stroke-dashoffset: 3339;
    stroke-width: 128;
    stroke-linecap: round;
    fill: none;
    stroke: #FF4444;
}
svg.acjk .bg { fill: #ccc; opacity: 0.5; }

/* Stroke 1: Starts at 0.0%, finishes at 7.6%, holds until 76.2% */
@keyframes zk1 {
    0%, 0.0% { stroke-dashoffset: 3339; }
    7.6%, 76.2% { stroke-dashoffset: 0; }
    76.3%, 100% { stroke-dashoffset: 3339; }
}
svg.acjk #stroke-p1 { animation-name: zk1; }
/* Stroke 2: Starts at 7.6%, finishes at 15.2%, holds until 76.2% */
@keyframes zk2 {
    0%, 7.6% { stroke-dashoffset: 3339; }
    15.2%, 76.2% { stroke-dashoffset: 0; }
    76.3%, 100% { stroke-dashoffset: 3339; }
}
svg.acjk #stroke-p2 { animation-name: zk2; }
/* Stroke 3: Starts at 15.2%, finishes at 22.9%, holds until 76.2% */
@keyframes zk3 {
    0%, 15.2% { stroke-dashoffset: 3339; }
    22.9%, 76.2% { stroke-dashoffset: 0; }
    76.3%, 100% { stroke-dashoffset: 3339; }
}
svg.acjk #stroke-p3 { animation-name: zk3; }
/* Stroke 4: Starts at 22.9%, finishes at 30.5%, holds until 76.2% */
@keyframes zk4 {
    0%, 22.9% { stroke-dashoffset: 3339; }
    30.5%, 76.2% { stroke-dashoffset: 0; }
    76.3%, 100% { stroke-dashoffset: 3339; }
}
svg.acjk #stroke-p4 { animation-name: zk4; }
/* Stroke 5: Starts at 30.5%, finishes at 38.1%, holds until 76.2% */
@keyframes zk5 {
    0%, 30.5% { stroke-dashoffset: 3339; }
    38.1%, 76.2% { stroke-dashoffset: 0; }
    76.3%, 100% { stroke-dashoffset: 3339; }
}
svg.acjk #stroke-p5 { animation-name: zk5; }
/* Stroke 6: Starts at 38.1%, finishes at 45.7%, holds until 76.2% */
@keyframes zk6 {
    0%, 38.1% { stroke-dashoffset: 3339; }
    45.7%, 76.2% { stroke-dashoffset: 0; }
    76.3%, 100% { stroke-dashoffset: 3339; }
}
svg.acjk #stroke-p6 { animation-name: zk6; }
/* Stroke 7: Starts at 45.7%, finishes at 53.3%, holds until 76.2% */
@keyframes zk7 {
    0%, 45.7% { stroke-dashoffset: 3339; }
    53.3%, 76.2% { stroke-dashoffset: 0; }
    76.3%, 100% { stroke-dashoffset: 3339; }
}
svg.acjk #stroke-p7 { animation-name: zk7; }
/* Stroke 8: Starts at 53.3%, finishes at 61.0%, holds until 76.2% */
@keyframes zk8 {
    0%, 53.3% { stroke-dashoffset: 3339; }
    61.0%, 76.2% { stroke-dashoffset: 0; }
    76.3%, 100% { stroke-dashoffset: 3339; }
}
svg.acjk #stroke-p8 { animation-name: zk8; }
/* Stroke 9: Starts at 61.0%, finishes at 68.6%, holds until 76.2% */
@keyframes zk9 {
    0%, 61.0% { stroke-dashoffset: 3339; }
    68.6%, 76.2% { stroke-dashoffset: 0; }
    76.3%, 100% { stroke-dashoffset: 3339; }
}
svg.acjk #stroke-p9 { animation-name: zk9; }
/* Stroke 10: Starts at 68.6%, finishes at 76.2%, holds until 76.2% */
@keyframes zk10 {
    0%, 68.6% { stroke-dashoffset: 3339; }
    76.2%, 76.2% { stroke-dashoffset: 0; }
    76.3%, 100% { stroke-dashoffset: 3339; }
}
svg.acjk #stroke-p10 { animation-name: zk10; }
]]>
</style>
<defs>
    <path id="p1" d="M 473 71 C 504 100 528 123 551 131 C 561 134 570 129 575 120 C 579 111 580 100 577 89 C 572 72 563 61 550 53 C 543 49 521 40 481 30 C 471 27 463 29 457 32 C 452 33 452 37 454 46 C 455 53 462 60 473 71 Z"/>
    <path id="p2" d="M 285 209 C 277 193 269 182 262 177 C 249 167 239 170 241 188 C 242 212 226 246 187 290 C 172 305 175 332 195 369 C 204 387 221 389 230 368 C 266 281 266 281 284 237 C 287 228 289 217 285 209 Z"/>
    <path id="p3" d="M 284 237 C 302 249 325 252 351 245 C 449 215 561 194 689 182 C 715 179 734 176 743 180 C 756 185 759 194 758 200 C 757 200 750 225 733 273 C 729 282 728 287 733 291 C 737 293 745 290 758 282 C 793 257 827 241 857 232 C 881 224 893 216 893 211 C 892 204 866 183 816 147 C 799 135 765 136 711 145 C 644 155 538 169 392 194 C 357 199 300 208 285 209 C 276 211 277 231 284 237 Z"/>
    <path id="p4" d="M 354 326 C 346 323 335 321 324 319 C 315 317 311 318 309 321 C 304 326 305 332 311 343 C 328 378 342 426 353 485 C 356 501 362 516 372 528 C 384 542 391 544 395 535 C 396 530 398 524 398 518 C 398 511 398 497 398 497 C 397 486 391 457 389 437 C 387 421 387 421 386 413 C 382 384 379 366 379 356 C 379 343 366 331 354 326 Z"/>
    <path id="p5" d="M 575 499 C 587 517 598 528 609 535 C 615 539 624 535 634 522 C 643 509 654 467 674 398 C 679 377 690 359 706 344 C 714 335 715 327 708 319 C 698 308 680 293 653 277 C 642 270 615 274 572 284 C 568 284 525 291 443 308 C 410 314 380 320 354 326 C 341 328 367 361 379 356 C 379 355 379 355 380 355 C 428 341 494 327 578 315 C 596 312 609 314 615 321 C 621 328 624 337 623 345 C 608 423 595 467 583 475 C 577 481 570 492 575 499 Z"/>
    <path id="p6" d="M 389 437 C 403 435 501 422 543 417 C 557 415 562 410 557 403 C 550 394 539 387 525 385 C 506 381 460 391 386 413 C 379 416 381 439 389 437 Z"/>
    <path id="p7" d="M 444 515 C 492 509 535 503 575 499 C 583 498 590 479 583 475 C 580 472 575 470 569 469 C 563 468 506 477 398 497 C 391 498 391 518 398 518 C 404 518 410 518 416 518 C 435 516 435 516 444 515 Z"/>
    <path id="p8" d="M 455 615 C 476 577 488 574 486 560 C 484 549 462 527 444 515 C 436 510 413 509 416 518 C 420 527 422 558 417 575 C 411 591 406 606 400 621 C 389 645 389 645 384 657 C 375 675 365 690 357 703 C 349 713 347 723 349 733 C 349 739 356 743 369 747 C 403 755 438 769 476 789 C 476 789 477 790 479 791 C 511 808 511 808 527 817 C 574 842 631 883 699 937 C 716 950 730 957 742 957 C 756 956 763 950 763 937 C 763 924 752 903 734 872 C 725 857 712 845 693 837 C 642 814 597 793 556 778 C 523 765 523 765 507 759 C 470 744 439 733 413 727 C 400 724 397 716 404 704 C 414 683 425 666 434 651 C 448 627 448 627 455 615 Z"/>
    <path id="p9" d="M 628 593 C 609 569 582 567 566 570 C 557 571 554 576 558 588 C 559 592 560 597 562 603 C 564 615 564 627 562 639 C 554 680 539 716 507 759 C 498 770 489 781 479 791 C 431 835 350 866 237 892 C 223 894 225 900 239 903 C 319 918 440 900 527 817 C 538 805 547 791 556 778 C 579 741 592 721 608 684 C 617 661 623 652 631 636 C 637 623 636 604 628 593 Z"/>
    <path id="p10" d="M 631 636 C 643 635 728 635 888 635 C 902 635 910 633 914 627 C 918 618 915 608 903 599 C 860 566 818 560 776 570 C 733 579 684 584 628 593 C 584 600 584 600 562 603 C 539 606 504 609 455 615 C 418 619 418 619 400 621 C 312 630 219 639 122 649 C 107 650 104 656 116 669 C 125 679 137 686 150 690 C 164 694 177 695 189 692 C 249 675 314 665 384 657 C 417 653 417 653 434 651 C 472 646 530 640 562 639 C 608 637 608 637 631 636 Z"/>

    <clipPath id="z23476c1"><use href="#p1"/></clipPath>
    <clipPath id="z23476c2"><use href="#p2"/></clipPath>
    <clipPath id="z23476c3"><use href="#p3"/></clipPath>
    <clipPath id="z23476c4"><use href="#p4"/></clipPath>
    <clipPath id="z23476c5"><use href="#p5"/></clipPath>
    <clipPath id="z23476c6"><use href="#p6"/></clipPath>
    <clipPath id="z23476c7"><use href="#p7"/></clipPath>
    <clipPath id="z23476c8"><use href="#p8"/></clipPath>
    <clipPath id="z23476c9"><use href="#p9"/></clipPath>
    <clipPath id="z23476c10"><use href="#p10"/></clipPath>
</defs>
<g id="bg-layer" class="bg">
<use href="#p1"/>
<use href="#p2"/>
<use href="#p3"/>
<use href="#p4"/>
<use href="#p5"/>
<use href="#p6"/>
<use href="#p7"/>
<use href="#p8"/>
<use href="#p9"/>
<use href="#p10"/>
</g>
<g id="anim-layer">
    <path id="stroke-p1" style="stroke:#FF4444" pathLength="3333" clip-path="url(#z23476c1)" d="M 458 38 L 568 123"/>
    <path id="stroke-p2" style="stroke:#FF4444" pathLength="3333" clip-path="url(#z23476c2)" d="M 250 177 L 261 221 L 212 316 L 207 376"/>
    <path id="stroke-p3" style="stroke:#FF4444" pathLength="3333" clip-path="url(#z23476c3)" d="M 292 213 L 346 224 L 759 160 L 839 215 L 739 284"/>
    <path id="stroke-p4" style="stroke:#000" pathLength="3333" clip-path="url(#z23476c4)" d="M 314 329 L 348 360 L 384 535"/>
    <path id="stroke-p5" style="stroke:#000" pathLength="3333" clip-path="url(#z23476c5)" d="M 361 326 L 602 296 L 657 318 L 668 337 L 603 529"/>
    <path id="stroke-p6" style="stroke:#000" pathLength="3333" clip-path="url(#z23476c6)" d="M 393 430 L 552 407"/>
    <path id="stroke-p7" style="stroke:#000" pathLength="3333" clip-path="url(#z23476c7)" d="M 408 510 L 576 482"/>
    <path id="stroke-p8" style="stroke:#000" pathLength="3333" clip-path="url(#z23476c8)" d="M 425 527 L 450 573 L 380 733 L 638 848 L 758 943"/>
    <path id="stroke-p9" style="stroke:#000" pathLength="3333" clip-path="url(#z23476c9)" d="M 565 577 L 595 606 L 591 649 L 493 814 L 385 874 L 236 896"/>
    <path id="stroke-p10" style="stroke:#000" pathLength="3333" clip-path="url(#z23476c10)" d="M 115 656 L 185 668 L 795 600 L 913 620"/>
</g>
</svg>