<svg id="z23637" class="acjk" viewBox="0 0 1024 1024" xmlns="http://www.w3.org/2000/svg">
<style>
<![CDATA[
svg.acjk path[clip-path] {
    animation-duration: 10.5s;
    animation-timing-function: linear;
    animation-iteration-count: infinite;
    stroke-dasharray: 3337;
    stroke-dashoffset: 3339;
    stroke-width: 128;
    stroke-linecap: round;
    fill: none;
    stroke: #FF4444;
}
svg.acjk .bg { fill: #ccc; opacity: 0.5; }

/* Stroke 1: Starts at 0.0%, finishes at 7.6%, holds until 76.2% */
@keyframes zk1 {
    0%, 0.0% { stroke-dashoffset: 3339; }
    7.6%, 76.2% { stroke-dashoffset: 0; }
    76.3%, 100% { stroke-dashoffset: 3339; }
}
svg.acjk #stroke-p1 { animation-name: zk1; }
/* Stroke 2: Starts at 7.6%, finishes at 15.2%, holds until 76.2% */
@keyframes zk2 {
    0%, 7.6% { stroke-dashoffset: 3339; }
    15.2%, 76.2% { stroke-dashoffset: 0; }
    76.3%, 100% { stroke-dashoffset: 3339; }
}
svg.acjk #stroke-p2 { animation-name: zk2; }
/* Stroke 3: Starts at 15.2%, finishes at 22.9%, holds until 76.2% */
@keyframes zk3 {
    0%, 15.2% { stroke-dashoffset: 3339; }
    22.9%, 76.2% { stroke-dashoffset: 0; }
    76.3%, 100% { stroke-dashoffset: 3339; }
}
svg.acjk #stroke-p3 { animation-name: zk3; }
/* Stroke 4: Starts at 22.9%, finishes at 30.5%, holds until 76.2% */
@keyframes zk4 {
    0%, 22.9% { stroke-dashoffset: 3339; }
    30.5%, 76.2% { stroke-dashoffset: 0; }
    76.3%, 100% { stroke-dashoffset: 3339; }
}
svg.acjk #stroke-p4 { animation-name: zk4; }
/* Stroke 5: Starts at 30.5%, finishes at 38.1%, holds until 76.2% */
@keyframes zk5 {
    0%, 30.5% { stroke-dashoffset: 3339; }
    38.1%, 76.2% { stroke-dashoffset: 0; }
    76.3%, 100% { stroke-dashoffset: 3339; }
}
svg.acjk #stroke-p5 { animation-name: zk5; }
/* Stroke 6: Starts at 38.1%, finishes at 45.7%, holds until 76.2% */
@keyframes zk6 {
    0%, 38.1% { stroke-dashoffset: 3339; }
    45.7%, 76.2% { stroke-dashoffset: 0; }
    76.3%, 100% { stroke-dashoffset: 3339; }
}
svg.acjk #stroke-p6 { animation-name: zk6; }
/* Stroke 7: Starts at 45.7%, finishes at 53.3%, holds until 76.2% */
@keyframes zk7 {
    0%, 45.7% { stroke-dashoffset: 3339; }
    53.3%, 76.2% { stroke-dashoffset: 0; }
    76.3%, 100% { stroke-dashoffset: 3339; }
}
svg.acjk #stroke-p7 { animation-name: zk7; }
/* Stroke 8: Starts at 53.3%, finishes at 61.0%, holds until 76.2% */
@keyframes zk8 {
    0%, 53.3% { stroke-dashoffset: 3339; }
    61.0%, 76.2% { stroke-dashoffset: 0; }
    76.3%, 100% { stroke-dashoffset: 3339; }
}
svg.acjk #stroke-p8 { animation-name: zk8; }
/* Stroke 9: Starts at 61.0%, finishes at 68.6%, holds until 76.2% */
@keyframes zk9 {
    0%, 61.0% { stroke-dashoffset: 3339; }
    68.6%, 76.2% { stroke-dashoffset: 0; }
    76.3%, 100% { stroke-dashoffset: 3339; }
}
svg.acjk #stroke-p9 { animation-name: zk9; }
/* Stroke 10: Starts at 68.6%, finishes at 76.2%, holds until 76.2% */
@keyframes zk10 {
    0%, 68.6% { stroke-dashoffset: 3339; }
    76.2%, 76.2% { stroke-dashoffset: 0; }
    76.3%, 100% { stroke-dashoffset: 3339; }
}
svg.acjk #stroke-p10 { animation-name: zk10; }
]]>
</style>
<defs>
    <path id="p1" d="M 674 204 C 686 172 704 153 723 140 C 735 130 736 114 726 105 C 681 64 640 58 605 72 C 532 100 446 117 352 130 C 341 132 357 162 368 160 C 376 158 451 143 595 113 C 613 109 626 109 634 117 C 638 121 640 129 638 140 C 633 162 627 182 620 202 C 613 219 667 221 674 204 Z"/>
    <path id="p2" d="M 340 282 C 344 286 350 290 356 292 C 362 294 370 293 379 291 C 443 274 546 256 688 239 C 694 238 699 234 700 228 C 700 223 691 215 674 204 C 659 195 638 198 620 202 C 518 228 385 255 343 262 C 336 263 335 278 340 282 Z"/>
    <path id="p3" d="M 352 130 C 343 122 331 115 318 108 C 304 100 294 95 285 100 C 276 104 273 112 278 121 C 289 141 296 185 288 253 C 272 380 247 481 209 570 C 174 650 125 730 65 809 C 61 813 58 817 57 821 C 54 829 56 832 64 831 C 88 826 133 782 196 695 C 207 678 217 661 228 642 C 284 536 319 415 340 282 C 342 269 342 269 343 262 C 347 233 355 184 368 160 C 372 149 361 137 352 130 Z"/>
    <path id="p4" d="M 637 383 C 698 368 728 354 732 352 C 736 347 737 342 735 338 C 730 331 719 326 703 323 C 686 320 668 324 649 331 C 609 346 609 346 589 353 C 568 360 493 381 476 385 C 443 392 443 392 426 395 C 406 399 386 400 367 404 C 346 407 342 415 358 424 C 378 435 403 439 431 433 C 461 426 461 426 476 422 C 512 413 548 403 586 395 C 620 387 620 387 637 383 Z"/>
    <path id="p5" d="M 476 385 C 476 358 475 342 468 336 C 455 325 440 318 424 313 C 416 310 409 310 404 314 C 399 317 399 324 403 333 C 405 339 421 357 426 395 C 429 420 429 420 431 433 C 434 456 437 489 443 531 C 445 543 478 536 478 524 C 477 483 476 449 476 422 C 476 397 476 397 476 385 Z"/>
    <path id="p6" d="M 614 497 C 622 457 628 418 637 383 C 645 348 645 348 649 331 C 651 320 657 310 660 305 C 662 299 659 290 648 282 C 630 268 613 261 600 257 C 591 254 584 255 580 259 C 575 263 573 269 578 278 C 585 293 590 304 590 313 C 589 325 590 339 589 353 C 587 381 587 381 586 395 C 583 429 580 466 576 505 C 573 518 611 510 614 497 Z"/>
    <path id="p7" d="M 502 555 C 560 545 659 526 803 526 C 817 525 826 523 829 517 C 832 509 828 500 817 493 C 781 468 744 464 705 476 C 678 483 648 489 614 497 C 589 502 589 502 576 505 C 561 508 496 520 478 524 C 455 529 455 529 443 531 C 392 541 339 549 283 559 C 270 561 268 567 278 577 C 286 585 296 590 309 593 C 314 594 331 594 357 588 C 384 581 384 581 398 577 C 418 571 439 565 461 562 C 488 557 488 557 502 555 Z"/>
    <path id="p8" d="M 357 588 C 377 628 382 691 371 777 C 370 777 370 779 370 781 C 367 801 360 817 352 829 C 341 843 340 858 346 874 C 354 896 364 912 376 921 C 382 925 390 921 400 909 C 420 882 466 834 539 766 C 551 754 558 747 559 742 C 559 733 553 733 539 741 C 470 779 432 797 426 794 C 421 791 417 783 418 770 C 420 695 427 648 431 630 C 434 613 422 595 398 577 C 387 568 352 575 357 588 Z"/>
    <path id="p9" d="M 624 676 C 644 667 677 652 724 628 C 737 621 750 614 766 611 C 780 607 785 599 780 588 C 774 575 762 565 749 554 C 736 543 726 539 718 539 C 710 539 707 542 708 551 C 708 567 674 604 608 662 C 603 667 617 679 624 676 Z"/>
    <path id="p10" d="M 608 662 C 576 634 533 586 502 555 C 492 545 449 555 461 562 C 483 574 501 591 517 611 C 646 775 723 864 749 867 C 795 871 843 860 892 852 C 902 850 910 848 914 842 C 916 837 913 834 907 832 C 794 794 715 754 668 714 C 653 701 638 689 624 676 C 613 667 613 667 608 662 Z"/>

    <clipPath id="z23637c1"><use href="#p1"/></clipPath>
    <clipPath id="z23637c2"><use href="#p2"/></clipPath>
    <clipPath id="z23637c3"><use href="#p3"/></clipPath>
    <clipPath id="z23637c4"><use href="#p4"/></clipPath>
    <clipPath id="z23637c5"><use href="#p5"/></clipPath>
    <clipPath id="z23637c6"><use href="#p6"/></clipPath>
    <clipPath id="z23637c7"><use href="#p7"/></clipPath>
    <clipPath id="z23637c8"><use href="#p8"/></clipPath>
    <clipPath id="z23637c9"><use href="#p9"/></clipPath>
    <clipPath id="z23637c10"><use href="#p10"/></clipPath>
</defs>
<g id="bg-layer" class="bg">
<use href="#p1"/>
<use href="#p2"/>
<use href="#p3"/>
<use href="#p4"/>
<use href="#p5"/>
<use href="#p6"/>
<use href="#p7"/>
<use href="#p8"/>
<use href="#p9"/>
<use href="#p10"/>
</g>
<g id="anim-layer">
    <path id="stroke-p1" style="stroke:#FF4444" pathLength="3333" clip-path="url(#z23637c1)" d="M 361 131 L 642 89 L 685 124 L 640 202"/>
    <path id="stroke-p2" style="stroke:#FF4444" pathLength="3333" clip-path="url(#z23637c2)" d="M 346 277 L 692 226"/>
    <path id="stroke-p3" style="stroke:#FF4444" pathLength="3333" clip-path="url(#z23637c3)" d="M 282 108 L 329 172 L 263 497 L 188 664 L 63 822"/>
    <path id="stroke-p4" style="stroke:#000" pathLength="3333" clip-path="url(#z23637c4)" d="M 356 414 L 731 343"/>
    <path id="stroke-p5" style="stroke:#000" pathLength="3333" clip-path="url(#z23637c5)" d="M 408 322 L 450 376 L 453 528"/>
    <path id="stroke-p6" style="stroke:#000" pathLength="3333" clip-path="url(#z23637c6)" d="M 583 268 L 625 303 L 590 501"/>
    <path id="stroke-p7" style="stroke:#000" pathLength="3333" clip-path="url(#z23637c7)" d="M 278 567 L 732 498 L 824 511"/>
    <path id="stroke-p8" style="stroke:#000" pathLength="3333" clip-path="url(#z23637c8)" d="M 366 593 L 402 638 L 392 865 L 551 743"/>
    <path id="stroke-p9" style="stroke:#000" pathLength="3333" clip-path="url(#z23637c9)" d="M 718 549 L 735 586 L 616 668"/>
    <path id="stroke-p10" style="stroke:#000" pathLength="3333" clip-path="url(#z23637c10)" d="M 472 563 L 762 824 L 908 838"/>
</g>
</svg>