<svg id="z24124" class="acjk" viewBox="0 0 1024 1024" xmlns="http://www.w3.org/2000/svg">
<style>
<![CDATA[
svg.acjk path[clip-path] {
    animation-duration: 11.3s;
    animation-timing-function: linear;
    animation-iteration-count: infinite;
    stroke-dasharray: 3337;
    stroke-dashoffset: 3339;
    stroke-width: 128;
    stroke-linecap: round;
    fill: none;
    stroke: #FF4444;
}
svg.acjk .bg { fill: #ccc; opacity: 0.5; }

/* Stroke 1: Starts at 0.0%, finishes at 7.1%, holds until 77.9% */
@keyframes zk1 {
    0%, 0.0% { stroke-dashoffset: 3339; }
    7.1%, 77.9% { stroke-dashoffset: 0; }
    78.0%, 100% { stroke-dashoffset: 3339; }
}
svg.acjk #stroke-p1 { animation-name: zk1; }
/* Stroke 2: Starts at 7.1%, finishes at 14.2%, holds until 77.9% */
@keyframes zk2 {
    0%, 7.1% { stroke-dashoffset: 3339; }
    14.2%, 77.9% { stroke-dashoffset: 0; }
    78.0%, 100% { stroke-dashoffset: 3339; }
}
svg.acjk #stroke-p2 { animation-name: zk2; }
/* Stroke 3: Starts at 14.2%, finishes at 21.2%, holds until 77.9% */
@keyframes zk3 {
    0%, 14.2% { stroke-dashoffset: 3339; }
    21.2%, 77.9% { stroke-dashoffset: 0; }
    78.0%, 100% { stroke-dashoffset: 3339; }
}
svg.acjk #stroke-p3 { animation-name: zk3; }
/* Stroke 4: Starts at 21.2%, finishes at 28.3%, holds until 77.9% */
@keyframes zk4 {
    0%, 21.2% { stroke-dashoffset: 3339; }
    28.3%, 77.9% { stroke-dashoffset: 0; }
    78.0%, 100% { stroke-dashoffset: 3339; }
}
svg.acjk #stroke-p4 { animation-name: zk4; }
/* Stroke 5: Starts at 28.3%, finishes at 35.4%, holds until 77.9% */
@keyframes zk5 {
    0%, 28.3% { stroke-dashoffset: 3339; }
    35.4%, 77.9% { stroke-dashoffset: 0; }
    78.0%, 100% { stroke-dashoffset: 3339; }
}
svg.acjk #stroke-p5 { animation-name: zk5; }
/* Stroke 6: Starts at 35.4%, finishes at 42.5%, holds until 77.9% */
@keyframes zk6 {
    0%, 35.4% { stroke-dashoffset: 3339; }
    42.5%, 77.9% { stroke-dashoffset: 0; }
    78.0%, 100% { stroke-dashoffset: 3339; }
}
svg.acjk #stroke-p6 { animation-name: zk6; }
/* Stroke 7: Starts at 42.5%, finishes at 49.6%, holds until 77.9% */
@keyframes zk7 {
    0%, 42.5% { stroke-dashoffset: 3339; }
    49.6%, 77.9% { stroke-dashoffset: 0; }
    78.0%, 100% { stroke-dashoffset: 3339; }
}
svg.acjk #stroke-p7 { animation-name: zk7; }
/* Stroke 8: Starts at 49.6%, finishes at 56.6%, holds until 77.9% */
@keyframes zk8 {
    0%, 49.6% { stroke-dashoffset: 3339; }
    56.6%, 77.9% { stroke-dashoffset: 0; }
    78.0%, 100% { stroke-dashoffset: 3339; }
}
svg.acjk #stroke-p8 { animation-name: zk8; }
/* Stroke 9: Starts at 56.6%, finishes at 63.7%, holds until 77.9% */
@keyframes zk9 {
    0%, 56.6% { stroke-dashoffset: 3339; }
    63.7%, 77.9% { stroke-dashoffset: 0; }
    78.0%, 100% { stroke-dashoffset: 3339; }
}
svg.acjk #stroke-p9 { animation-name: zk9; }
/* Stroke 10: Starts at 63.7%, finishes at 70.8%, holds until 77.9% */
@keyframes zk10 {
    0%, 63.7% { stroke-dashoffset: 3339; }
    70.8%, 77.9% { stroke-dashoffset: 0; }
    78.0%, 100% { stroke-dashoffset: 3339; }
}
svg.acjk #stroke-p10 { animation-name: zk10; }
/* Stroke 11: Starts at 70.8%, finishes at 77.9%, holds until 77.9% */
@keyframes zk11 {
    0%, 70.8% { stroke-dashoffset: 3339; }
    77.9%, 77.9% { stroke-dashoffset: 0; }
    78.0%, 100% { stroke-dashoffset: 3339; }
}
svg.acjk #stroke-p11 { animation-name: zk11; }
]]>
</style>
<defs>
    <path id="p1" d="M 147 363 Q 129 345 100 348 Q 90 352 94 362 Q 124 420 103 532 Q 81 583 113 617 Q 120 629 128 623 Q 152 605 154 491 Q 154 418 155 394 C 155 383 156 369 147 363 Z"/>
    <path id="p2" d="M 277 533 Q 278 536 284 540 Q 330 573 357 598 Q 370 610 381 597 Q 402 569 404 506 Q 398 416 407 371 Q 410 353 400 345 Q 375 324 358 315 Q 346 311 339 319 Q 335 323 281 338 C 250 345 250 345 235 348 Q 201 352 147 363 C 137 365 144 394 155 394 Q 165 395 181 392 Q 208 385 235 380 C 265 375 265 375 280 373 Q 299 369 321 367 Q 348 360 353 378 Q 362 510 347 528 Q 340 534 293 526 Q 280 523 277 527 C 275 528 276 531 277 533 Z"/>
    <path id="p3" d="M 202 799 Q 190 839 216 902 Q 222 920 230 923 Q 236 930 244 921 Q 271 905 272 839 Q 271 802 277 533 C 277 529 277 529 277 527 Q 278 457 280 373 C 281 350 281 350 281 338 Q 281 233 302 164 Q 317 139 291 121 Q 275 109 246 91 Q 222 73 201 89 Q 197 93 202 110 Q 233 158 235 206 Q 235 273 235 348 C 235 369 235 369 235 380 Q 231 510 227 652 Q 223 728 202 799 Z"/>
    <path id="p4" d="M 474 234 Q 465 225 443 216 Q 433 212 419 216 Q 412 220 417 235 Q 438 302 442 343 Q 441 346 442 351 Q 452 600 414 756 Q 396 814 436 866 Q 448 881 459 867 Q 468 855 472 841 C 475 817 475 817 476 805 Q 480 774 480 724 Q 490 312 494 286 Q 495 277 495 271 C 495 257 485 243 474 234 Z"/>
    <path id="p5" d="M 797 817 Q 828 856 851 891 Q 861 910 872 909 Q 890 908 905 872 Q 923 832 918 783 Q 905 615 895 306 Q 894 272 911 247 Q 921 234 910 222 Q 889 201 832 175 Q 811 165 795 176 Q 729 203 629 218 Q 517 234 474 234 C 460 234 481 271 495 271 Q 528 272 764 232 Q 801 226 819 241 Q 861 289 845 757 Q 844 770 843 781 Q 839 797 824 795 C 812 795 790 808 797 817 Z"/>
    <path id="p6" d="M 641 386 Q 686 376 737 367 Q 762 361 767 358 Q 774 351 771 343 Q 764 333 738 325 Q 710 321 683 331 Q 653 340 621 348 Q 587 355 544 358 Q 511 364 535 379 Q 565 395 606 393 C 629 388 629 388 641 386 Z"/>
    <path id="p7" d="M 622 511 Q 601 515 583 519 Q 562 522 539 526 Q 514 530 534 545 Q 561 564 600 556 Q 609 553 623 552 C 652 546 652 546 666 543 Q 682 539 702 535 Q 732 531 757 527 Q 767 528 774 516 Q 775 506 754 497 Q 724 475 669 499 Q 668 499 667 500 C 637 507 637 507 622 511 Z"/>
    <path id="p8" d="M 667 500 Q 671 412 668 407 Q 655 394 641 386 C 631 380 602 382 606 393 Q 618 420 622 511 C 623 538 623 538 623 552 Q 623 601 625 672 C 625 685 664 677 664 664 Q 665 600 666 543 C 667 514 667 514 667 500 Z"/>
    <path id="p9" d="M 625 672 Q 573 682 509 693 Q 493 696 506 709 Q 530 730 573 720 Q 639 699 784 700 Q 800 700 804 692 Q 808 682 794 672 Q 746 641 692 657 Q 679 660 664 664 C 638 669 638 669 625 672 Z"/>
    <path id="p10" d="M 731 589 Q 776 643 797 643 Q 807 643 812 629 Q 813 619 805 603 Q 796 590 777 583 Q 746 570 734 568 Q 727 567 726 576 Q 725 583 731 589 Z"/>
    <path id="p11" d="M 472 841 Q 481 841 490 840 Q 589 822 797 817 C 809 817 831 804 824 795 Q 817 786 800 774 Q 784 764 750 769 Q 599 794 476 805 C 464 807 460 841 472 841 Z"/>

    <clipPath id="z24124c1"><use href="#p1"/></clipPath>
    <clipPath id="z24124c2"><use href="#p2"/></clipPath>
    <clipPath id="z24124c3"><use href="#p3"/></clipPath>
    <clipPath id="z24124c4"><use href="#p4"/></clipPath>
    <clipPath id="z24124c5"><use href="#p5"/></clipPath>
    <clipPath id="z24124c6"><use href="#p6"/></clipPath>
    <clipPath id="z24124c7"><use href="#p7"/></clipPath>
    <clipPath id="z24124c8"><use href="#p8"/></clipPath>
    <clipPath id="z24124c9"><use href="#p9"/></clipPath>
    <clipPath id="z24124c10"><use href="#p10"/></clipPath>
    <clipPath id="z24124c11"><use href="#p11"/></clipPath>
</defs>
<g id="bg-layer" class="bg">
<use href="#p1"/>
<use href="#p2"/>
<use href="#p3"/>
<use href="#p4"/>
<use href="#p5"/>
<use href="#p6"/>
<use href="#p7"/>
<use href="#p8"/>
<use href="#p9"/>
<use href="#p10"/>
<use href="#p11"/>
</g>
<g id="anim-layer">
    <path id="stroke-p1" style="stroke:#FF4444" pathLength="3333" clip-path="url(#z24124c1)" d="M 99 352 L 130 385 L 123 620"/>
    <path id="stroke-p2" style="stroke:#FF4444" pathLength="3333" clip-path="url(#z24124c2)" d="M 146 369 L 349 340 L 377 362 L 363 563 L 282 531"/>
    <path id="stroke-p3" style="stroke:#FF4444" pathLength="3333" clip-path="url(#z24124c3)" d="M 204 91 L 269 162 L 236 921"/>
    <path id="stroke-p4" style="stroke:#000" pathLength="3333" clip-path="url(#z24124c4)" d="M 424 220 L 462 271 L 466 326 L 449 870"/>
    <path id="stroke-p5" style="stroke:#000" pathLength="3333" clip-path="url(#z24124c5)" d="M 476 243 L 810 201 L 871 245 L 881 795 L 853 858 L 801 821"/>
    <path id="stroke-p6" style="stroke:#000" pathLength="3333" clip-path="url(#z24124c6)" d="M 531 368 L 768 347"/>
    <path id="stroke-p7" style="stroke:#000" pathLength="3333" clip-path="url(#z24124c7)" d="M 530 533 L 769 512"/>
    <path id="stroke-p8" style="stroke:#000" pathLength="3333" clip-path="url(#z24124c8)" d="M 612 392 L 642 426 L 643 676"/>
    <path id="stroke-p9" style="stroke:#000" pathLength="3333" clip-path="url(#z24124c9)" d="M 508 700 L 801 684"/>
    <path id="stroke-p10" style="stroke:#000" pathLength="3333" clip-path="url(#z24124c10)" d="M 733 578 L 803 636"/>
    <path id="stroke-p11" style="stroke:#000" pathLength="3333" clip-path="url(#z24124c11)" d="M 470 832 L 819 799"/>
</g>
</svg>