<svg id="z24185" class="acjk" viewBox="0 0 1024 1024" xmlns="http://www.w3.org/2000/svg">
<style>
<![CDATA[
svg.acjk path[clip-path] {
    animation-duration: 12.9s;
    animation-timing-function: linear;
    animation-iteration-count: infinite;
    stroke-dasharray: 3337;
    stroke-dashoffset: 3339;
    stroke-width: 128;
    stroke-linecap: round;
    fill: none;
    stroke: #FF4444;
}
svg.acjk .bg { fill: #ccc; opacity: 0.5; }

/* Stroke 1: Starts at 0.0%, finishes at 6.2%, holds until 80.6% */
@keyframes zk1 {
    0%, 0.0% { stroke-dashoffset: 3339; }
    6.2%, 80.6% { stroke-dashoffset: 0; }
    80.7%, 100% { stroke-dashoffset: 3339; }
}
svg.acjk #stroke-p1 { animation-name: zk1; }
/* Stroke 2: Starts at 6.2%, finishes at 12.4%, holds until 80.6% */
@keyframes zk2 {
    0%, 6.2% { stroke-dashoffset: 3339; }
    12.4%, 80.6% { stroke-dashoffset: 0; }
    80.7%, 100% { stroke-dashoffset: 3339; }
}
svg.acjk #stroke-p2 { animation-name: zk2; }
/* Stroke 3: Starts at 12.4%, finishes at 18.6%, holds until 80.6% */
@keyframes zk3 {
    0%, 12.4% { stroke-dashoffset: 3339; }
    18.6%, 80.6% { stroke-dashoffset: 0; }
    80.7%, 100% { stroke-dashoffset: 3339; }
}
svg.acjk #stroke-p3 { animation-name: zk3; }
/* Stroke 4: Starts at 18.6%, finishes at 24.8%, holds until 80.6% */
@keyframes zk4 {
    0%, 18.6% { stroke-dashoffset: 3339; }
    24.8%, 80.6% { stroke-dashoffset: 0; }
    80.7%, 100% { stroke-dashoffset: 3339; }
}
svg.acjk #stroke-p4 { animation-name: zk4; }
/* Stroke 5: Starts at 24.8%, finishes at 31.0%, holds until 80.6% */
@keyframes zk5 {
    0%, 24.8% { stroke-dashoffset: 3339; }
    31.0%, 80.6% { stroke-dashoffset: 0; }
    80.7%, 100% { stroke-dashoffset: 3339; }
}
svg.acjk #stroke-p5 { animation-name: zk5; }
/* Stroke 6: Starts at 31.0%, finishes at 37.2%, holds until 80.6% */
@keyframes zk6 {
    0%, 31.0% { stroke-dashoffset: 3339; }
    37.2%, 80.6% { stroke-dashoffset: 0; }
    80.7%, 100% { stroke-dashoffset: 3339; }
}
svg.acjk #stroke-p6 { animation-name: zk6; }
/* Stroke 7: Starts at 37.2%, finishes at 43.4%, holds until 80.6% */
@keyframes zk7 {
    0%, 37.2% { stroke-dashoffset: 3339; }
    43.4%, 80.6% { stroke-dashoffset: 0; }
    80.7%, 100% { stroke-dashoffset: 3339; }
}
svg.acjk #stroke-p7 { animation-name: zk7; }
/* Stroke 8: Starts at 43.4%, finishes at 49.6%, holds until 80.6% */
@keyframes zk8 {
    0%, 43.4% { stroke-dashoffset: 3339; }
    49.6%, 80.6% { stroke-dashoffset: 0; }
    80.7%, 100% { stroke-dashoffset: 3339; }
}
svg.acjk #stroke-p8 { animation-name: zk8; }
/* Stroke 9: Starts at 49.6%, finishes at 55.8%, holds until 80.6% */
@keyframes zk9 {
    0%, 49.6% { stroke-dashoffset: 3339; }
    55.8%, 80.6% { stroke-dashoffset: 0; }
    80.7%, 100% { stroke-dashoffset: 3339; }
}
svg.acjk #stroke-p9 { animation-name: zk9; }
/* Stroke 10: Starts at 55.8%, finishes at 62.0%, holds until 80.6% */
@keyframes zk10 {
    0%, 55.8% { stroke-dashoffset: 3339; }
    62.0%, 80.6% { stroke-dashoffset: 0; }
    80.7%, 100% { stroke-dashoffset: 3339; }
}
svg.acjk #stroke-p10 { animation-name: zk10; }
/* Stroke 11: Starts at 62.0%, finishes at 68.2%, holds until 80.6% */
@keyframes zk11 {
    0%, 62.0% { stroke-dashoffset: 3339; }
    68.2%, 80.6% { stroke-dashoffset: 0; }
    80.7%, 100% { stroke-dashoffset: 3339; }
}
svg.acjk #stroke-p11 { animation-name: zk11; }
/* Stroke 12: Starts at 68.2%, finishes at 74.4%, holds until 80.6% */
@keyframes zk12 {
    0%, 68.2% { stroke-dashoffset: 3339; }
    74.4%, 80.6% { stroke-dashoffset: 0; }
    80.7%, 100% { stroke-dashoffset: 3339; }
}
svg.acjk #stroke-p12 { animation-name: zk12; }
/* Stroke 13: Starts at 74.4%, finishes at 80.6%, holds until 80.6% */
@keyframes zk13 {
    0%, 74.4% { stroke-dashoffset: 3339; }
    80.6%, 80.6% { stroke-dashoffset: 0; }
    80.7%, 100% { stroke-dashoffset: 3339; }
}
svg.acjk #stroke-p13 { animation-name: zk13; }
]]>
</style>
<defs>
    <path id="p1" d="M 323 231 C 417 209 465 196 467 194 C 471 189 473 184 471 179 C 467 171 455 166 438 162 C 419 157 401 161 383 168 C 366 173 350 179 333 184 C 298 194 298 194 280 199 C 260 204 226 210 184 214 C 161 216 158 225 175 235 C 200 249 239 250 276 242 C 307 235 307 235 323 231 Z"/>
    <path id="p2" d="M 305 312 Q 314 270 323 231 C 330 200 330 200 333 184 Q 343 141 360 100 Q 364 90 348 75 Q 320 56 299 48 Q 286 44 278 50 Q 271 56 276 70 Q 288 92 287 107 Q 286 150 280 199 C 277 228 277 228 276 242 Q 272 279 266 321 C 263 334 302 325 305 312 Z"/>
    <path id="p3" d="M 184 342 C 176 338 161 335 142 332 C 135 330 130 330 128 334 C 125 337 126 344 131 354 C 149 394 166 448 177 516 C 180 535 185 552 197 566 C 207 578 215 580 218 571 C 219 566 221 560 221 553 C 220 536 220 536 220 527 C 218 498 211 476 208 459 C 205 441 205 441 203 432 C 198 405 195 385 193 373 C 191 362 194 346 184 342 Z"/>
    <path id="p4" d="M 357 534 C 360 542 367 551 375 551 C 383 550 389 544 395 536 C 402 524 413 491 429 435 C 437 403 454 379 476 361 C 486 352 487 342 478 333 C 467 322 446 311 417 295 C 400 285 357 299 305 312 C 279 318 279 318 266 321 C 259 322 232 328 184 342 C 174 345 183 377 193 373 C 217 361 274 346 364 331 C 376 328 384 329 389 332 C 395 335 397 348 393 369 C 378 445 367 491 360 507 C 359 507 359 507 359 508 C 355 515 354 526 357 534 Z"/>
    <path id="p5" d="M 208 459 C 256 448 299 440 337 434 C 351 431 354 426 349 419 C 342 410 331 404 317 403 C 299 401 261 412 203 432 C 194 435 199 461 208 459 Z"/>
    <path id="p6" d="M 291 543 C 313 538 335 535 357 534 C 366 534 367 511 359 508 C 354 505 348 503 341 502 C 324 498 284 506 220 527 C 212 530 212 552 221 553 C 231 555 246 552 259 550 C 280 545 280 545 291 543 Z"/>
    <path id="p7" d="M 313 657 C 339 650 369 644 402 640 C 412 638 418 634 418 630 C 418 622 413 615 402 610 C 384 602 355 603 316 615 C 281 624 281 624 264 628 C 162 650 94 663 60 667 C 51 667 46 670 45 676 C 43 682 47 689 57 697 C 83 713 108 716 133 708 C 181 691 210 683 262 669 C 296 661 296 661 313 657 Z"/>
    <path id="p8" d="M 262 669 C 260 697 257 763 246 801 C 236 832 250 869 271 895 C 285 912 295 903 299 896 C 305 881 308 853 309 813 C 309 761 309 708 313 657 C 315 629 315 629 316 615 C 318 583 316 564 311 559 C 304 552 297 547 291 543 C 282 537 257 539 259 550 C 263 562 265 588 264 628 C 263 655 263 655 262 669 Z"/>
    <path id="p9" d="M 677 181 C 686 159 692 144 698 139 C 701 134 703 129 701 123 C 699 117 693 110 684 105 C 661 90 639 85 618 92 C 612 93 612 99 615 107 C 631 149 610 227 547 337 C 519 383 491 417 443 477 C 439 481 440 486 447 484 C 524 455 597 360 665 208 C 673 190 673 190 677 181 Z"/>
    <path id="p10" d="M 665 208 C 709 276 759 346 818 418 C 835 439 891 442 982 429 C 988 428 991 426 992 423 C 992 420 989 415 981 412 C 888 369 823 330 786 294 C 752 261 715 224 677 181 C 670 174 659 200 665 208 Z"/>
    <path id="p11" d="M 649 471 C 723 453 763 442 768 438 C 773 433 774 428 771 423 C 766 416 755 410 737 407 C 718 403 700 408 683 415 C 663 422 642 429 621 435 C 597 441 570 445 543 450 C 520 453 517 462 534 471 C 551 480 580 487 603 482 C 634 475 634 475 649 471 Z"/>
    <path id="p12" d="M 681 622 C 735 614 795 610 862 610 C 874 609 882 606 885 601 C 888 593 884 584 873 577 C 835 551 797 549 758 561 C 736 567 711 573 682 579 C 645 586 645 586 626 590 C 576 599 523 608 467 619 C 454 621 452 627 462 637 C 470 645 481 650 493 653 C 505 655 517 656 527 653 C 557 643 590 635 626 630 C 663 625 663 625 681 622 Z"/>
    <path id="p13" d="M 626 630 C 626 680 627 739 627 806 C 627 902 631 958 642 973 C 645 978 650 980 655 978 C 666 972 671 949 675 913 C 678 876 680 839 680 803 C 679 776 678 716 681 622 C 682 593 682 593 682 579 C 682 556 686 537 691 515 C 693 504 689 495 680 489 C 667 480 657 474 649 471 C 634 465 595 468 603 482 C 620 509 626 547 626 590 C 626 617 626 617 626 630 Z"/>

    <clipPath id="z24185c1"><use href="#p1"/></clipPath>
    <clipPath id="z24185c2"><use href="#p2"/></clipPath>
    <clipPath id="z24185c3"><use href="#p3"/></clipPath>
    <clipPath id="z24185c4"><use href="#p4"/></clipPath>
    <clipPath id="z24185c5"><use href="#p5"/></clipPath>
    <clipPath id="z24185c6"><use href="#p6"/></clipPath>
    <clipPath id="z24185c7"><use href="#p7"/></clipPath>
    <clipPath id="z24185c8"><use href="#p8"/></clipPath>
    <clipPath id="z24185c9"><use href="#p9"/></clipPath>
    <clipPath id="z24185c10"><use href="#p10"/></clipPath>
    <clipPath id="z24185c11"><use href="#p11"/></clipPath>
    <clipPath id="z24185c12"><use href="#p12"/></clipPath>
    <clipPath id="z24185c13"><use href="#p13"/></clipPath>
</defs>
<g id="bg-layer" class="bg">
<use href="#p1"/>
<use href="#p2"/>
<use href="#p3"/>
<use href="#p4"/>
<use href="#p5"/>
<use href="#p6"/>
<use href="#p7"/>
<use href="#p8"/>
<use href="#p9"/>
<use href="#p10"/>
<use href="#p11"/>
<use href="#p12"/>
<use href="#p13"/>
</g>
<g id="anim-layer">
    <path id="stroke-p1" style="stroke:#FF4444" pathLength="3333" clip-path="url(#z24185c1)" d="M 173 223 L 464 186"/>
    <path id="stroke-p2" style="stroke:#FF4444" pathLength="3333" clip-path="url(#z24185c2)" d="M 282 59 L 323 98 L 282 324"/>
    <path id="stroke-p3" style="stroke:#FF4444" pathLength="3333" clip-path="url(#z24185c3)" d="M 134 339 L 163 358 L 209 570"/>
    <path id="stroke-p4" style="stroke:#FF4444" pathLength="3333" clip-path="url(#z24185c4)" d="M 182 354 L 374 312 L 427 332 L 438 357 L 371 546"/>
    <path id="stroke-p5" style="stroke:#FF4444" pathLength="3333" clip-path="url(#z24185c5)" d="M 203 442 L 344 424"/>
    <path id="stroke-p6" style="stroke:#FF4444" pathLength="3333" clip-path="url(#z24185c6)" d="M 216 540 L 359 523"/>
    <path id="stroke-p7" style="stroke:#FF4444" pathLength="3333" clip-path="url(#z24185c7)" d="M 51 676 L 116 685 L 410 623"/>
    <path id="stroke-p8" style="stroke:#FF4444" pathLength="3333" clip-path="url(#z24185c8)" d="M 268 550 L 290 585 L 279 899"/>
    <path id="stroke-p9" style="stroke:#FF4444" pathLength="3333" clip-path="url(#z24185c9)" d="M 621 98 L 661 139 L 624 236 L 554 365 L 448 477"/>
    <path id="stroke-p10" style="stroke:#FF4444" pathLength="3333" clip-path="url(#z24185c10)" d="M 676 191 L 843 387 L 983 421"/>
    <path id="stroke-p11" style="stroke:#000" pathLength="3333" clip-path="url(#z24185c11)" d="M 530 459 L 766 428"/>
    <path id="stroke-p12" style="stroke:#000" pathLength="3333" clip-path="url(#z24185c12)" d="M 464 626 L 796 582 L 882 593"/>
    <path id="stroke-p13" style="stroke:#000" pathLength="3333" clip-path="url(#z24185c13)" d="M 608 476 L 656 520 L 653 972"/>
</g>
</svg>