<svg id="z24215" class="acjk" viewBox="0 0 1024 1024" xmlns="http://www.w3.org/2000/svg">
<style>
<![CDATA[
svg.acjk path[clip-path] {
    animation-duration: 8.9s;
    animation-timing-function: linear;
    animation-iteration-count: infinite;
    stroke-dasharray: 3337;
    stroke-dashoffset: 3339;
    stroke-width: 128;
    stroke-linecap: round;
    fill: none;
    stroke: #FF4444;
}
svg.acjk .bg { fill: #ccc; opacity: 0.5; }

/* Stroke 1: Starts at 0.0%, finishes at 9.0%, holds until 71.9% */
@keyframes zk1 {
    0%, 0.0% { stroke-dashoffset: 3339; }
    9.0%, 71.9% { stroke-dashoffset: 0; }
    72.0%, 100% { stroke-dashoffset: 3339; }
}
svg.acjk #stroke-p1 { animation-name: zk1; }
/* Stroke 2: Starts at 9.0%, finishes at 18.0%, holds until 71.9% */
@keyframes zk2 {
    0%, 9.0% { stroke-dashoffset: 3339; }
    18.0%, 71.9% { stroke-dashoffset: 0; }
    72.0%, 100% { stroke-dashoffset: 3339; }
}
svg.acjk #stroke-p2 { animation-name: zk2; }
/* Stroke 3: Starts at 18.0%, finishes at 27.0%, holds until 71.9% */
@keyframes zk3 {
    0%, 18.0% { stroke-dashoffset: 3339; }
    27.0%, 71.9% { stroke-dashoffset: 0; }
    72.0%, 100% { stroke-dashoffset: 3339; }
}
svg.acjk #stroke-p3 { animation-name: zk3; }
/* Stroke 4: Starts at 27.0%, finishes at 36.0%, holds until 71.9% */
@keyframes zk4 {
    0%, 27.0% { stroke-dashoffset: 3339; }
    36.0%, 71.9% { stroke-dashoffset: 0; }
    72.0%, 100% { stroke-dashoffset: 3339; }
}
svg.acjk #stroke-p4 { animation-name: zk4; }
/* Stroke 5: Starts at 36.0%, finishes at 44.9%, holds until 71.9% */
@keyframes zk5 {
    0%, 36.0% { stroke-dashoffset: 3339; }
    44.9%, 71.9% { stroke-dashoffset: 0; }
    72.0%, 100% { stroke-dashoffset: 3339; }
}
svg.acjk #stroke-p5 { animation-name: zk5; }
/* Stroke 6: Starts at 44.9%, finishes at 53.9%, holds until 71.9% */
@keyframes zk6 {
    0%, 44.9% { stroke-dashoffset: 3339; }
    53.9%, 71.9% { stroke-dashoffset: 0; }
    72.0%, 100% { stroke-dashoffset: 3339; }
}
svg.acjk #stroke-p6 { animation-name: zk6; }
/* Stroke 7: Starts at 53.9%, finishes at 62.9%, holds until 71.9% */
@keyframes zk7 {
    0%, 53.9% { stroke-dashoffset: 3339; }
    62.9%, 71.9% { stroke-dashoffset: 0; }
    72.0%, 100% { stroke-dashoffset: 3339; }
}
svg.acjk #stroke-p7 { animation-name: zk7; }
/* Stroke 8: Starts at 62.9%, finishes at 71.9%, holds until 71.9% */
@keyframes zk8 {
    0%, 62.9% { stroke-dashoffset: 3339; }
    71.9%, 71.9% { stroke-dashoffset: 0; }
    72.0%, 100% { stroke-dashoffset: 3339; }
}
svg.acjk #stroke-p8 { animation-name: zk8; }
]]>
</style>
<defs>
    <path id="p1" d="M 506 96 C 528 110 550 127 574 144 C 584 151 595 153 606 152 C 612 151 618 146 621 136 C 623 125 619 109 610 90 C 600 69 561 55 494 47 C 483 45 475 46 472 49 C 468 51 467 58 470 67 C 472 74 486 83 506 96 Z"/>
    <path id="p2" d="M 348 268 C 370 278 413 280 477 271 C 553 259 631 245 712 231 C 754 223 779 215 785 211 C 791 205 793 198 791 193 C 786 184 773 176 753 171 C 731 165 689 174 628 191 C 534 216 388 234 346 238 C 336 240 339 264 348 268 Z"/>
    <path id="p3" d="M 346 238 C 334 225 317 214 297 204 C 282 196 271 192 262 197 C 253 201 249 210 255 220 C 267 241 270 300 267 345 C 258 459 239 561 205 650 C 177 720 134 798 76 883 C 72 888 69 891 68 896 C 65 904 68 907 77 906 C 98 902 138 862 195 781 C 207 762 219 742 230 721 C 278 621 311 507 328 379 C 334 325 341 278 348 268 C 352 259 352 246 346 238 Z"/>
    <path id="p4" d="M 587 637 C 589 581 594 527 597 476 C 598 453 598 453 599 442 C 601 401 606 376 609 368 C 611 357 613 347 616 339 C 618 332 614 322 599 313 C 575 298 553 292 537 289 C 526 286 518 288 512 295 C 507 299 506 308 513 318 C 525 337 534 353 535 367 C 541 453 544 546 542 646 C 542 661 587 652 587 637 Z"/>
    <path id="p5" d="M 597 476 C 629 478 665 475 707 466 C 759 453 789 446 793 443 C 799 437 799 430 796 425 C 789 416 776 410 756 407 C 741 404 705 415 646 433 C 631 437 615 438 599 442 C 588 444 586 476 597 476 Z"/>
    <path id="p6" d="M 398 665 C 389 661 375 658 358 655 C 349 653 344 653 341 657 C 336 662 338 669 344 682 C 367 730 385 794 398 875 C 401 899 409 919 422 935 C 435 951 443 954 448 942 C 452 929 452 911 450 887 C 445 858 445 858 443 844 C 430 774 422 727 420 703 C 418 689 412 670 398 665 Z"/>
    <path id="p7" d="M 765 815 C 787 748 812 708 835 688 C 849 675 850 657 838 645 C 826 633 799 618 759 599 C 744 591 728 592 712 599 C 668 615 626 629 587 637 C 557 643 557 643 542 646 C 495 655 447 659 398 665 C 384 667 406 706 420 703 C 426 702 435 699 446 697 C 526 681 605 669 682 655 C 702 651 715 652 724 661 C 730 667 734 679 732 695 C 725 735 715 773 706 807 C 702 826 758 833 765 815 Z"/>
    <path id="p8" d="M 450 887 C 456 887 640 867 782 862 C 790 861 796 857 798 850 C 799 843 787 831 765 815 C 748 805 726 804 706 807 C 637 822 519 838 443 844 C 428 844 435 887 450 887 Z"/>

    <clipPath id="z24215c1"><use href="#p1"/></clipPath>
    <clipPath id="z24215c2"><use href="#p2"/></clipPath>
    <clipPath id="z24215c3"><use href="#p3"/></clipPath>
    <clipPath id="z24215c4"><use href="#p4"/></clipPath>
    <clipPath id="z24215c5"><use href="#p5"/></clipPath>
    <clipPath id="z24215c6"><use href="#p6"/></clipPath>
    <clipPath id="z24215c7"><use href="#p7"/></clipPath>
    <clipPath id="z24215c8"><use href="#p8"/></clipPath>
</defs>
<g id="bg-layer" class="bg">
<use href="#p1"/>
<use href="#p2"/>
<use href="#p3"/>
<use href="#p4"/>
<use href="#p5"/>
<use href="#p6"/>
<use href="#p7"/>
<use href="#p8"/>
</g>
<g id="anim-layer">
    <path id="stroke-p1" style="stroke:#FF4444" pathLength="3333" clip-path="url(#z24215c1)" d="M 476 54 L 617 137"/>
    <path id="stroke-p2" style="stroke:#FF4444" pathLength="3333" clip-path="url(#z24215c2)" d="M 353 246 L 459 249 L 787 193"/>
    <path id="stroke-p3" style="stroke:#FF4444" pathLength="3333" clip-path="url(#z24215c3)" d="M 259 202 L 309 271 L 264 551 L 180 760 L 73 899"/>
    <path id="stroke-p4" style="stroke:#000" pathLength="3333" clip-path="url(#z24215c4)" d="M 517 301 L 575 349 L 554 641"/>
    <path id="stroke-p5" style="stroke:#000" pathLength="3333" clip-path="url(#z24215c5)" d="M 607 469 L 791 428"/>
    <path id="stroke-p6" style="stroke:#000" pathLength="3333" clip-path="url(#z24215c6)" d="M 346 663 L 391 715 L 436 943"/>
    <path id="stroke-p7" style="stroke:#000" pathLength="3333" clip-path="url(#z24215c7)" d="M 406 667 L 441 680 L 740 628 L 790 677 L 737 804 L 717 807"/>
    <path id="stroke-p8" style="stroke:#000" pathLength="3333" clip-path="url(#z24215c8)" d="M 450 849 L 474 863 L 792 842"/>
</g>
</svg>