<svg id="z24229" class="acjk" viewBox="0 0 1024 1024" xmlns="http://www.w3.org/2000/svg">
<style>
<![CDATA[
svg.acjk path[clip-path] {
    animation-duration: 9.7s;
    animation-timing-function: linear;
    animation-iteration-count: infinite;
    stroke-dasharray: 3337;
    stroke-dashoffset: 3339;
    stroke-width: 128;
    stroke-linecap: round;
    fill: none;
    stroke: #FF4444;
}
svg.acjk .bg { fill: #ccc; opacity: 0.5; }

/* Stroke 1: Starts at 0.0%, finishes at 8.2%, holds until 74.2% */
@keyframes zk1 {
    0%, 0.0% { stroke-dashoffset: 3339; }
    8.2%, 74.2% { stroke-dashoffset: 0; }
    74.3%, 100% { stroke-dashoffset: 3339; }
}
svg.acjk #stroke-p1 { animation-name: zk1; }
/* Stroke 2: Starts at 8.2%, finishes at 16.5%, holds until 74.2% */
@keyframes zk2 {
    0%, 8.2% { stroke-dashoffset: 3339; }
    16.5%, 74.2% { stroke-dashoffset: 0; }
    74.3%, 100% { stroke-dashoffset: 3339; }
}
svg.acjk #stroke-p2 { animation-name: zk2; }
/* Stroke 3: Starts at 16.5%, finishes at 24.7%, holds until 74.2% */
@keyframes zk3 {
    0%, 16.5% { stroke-dashoffset: 3339; }
    24.7%, 74.2% { stroke-dashoffset: 0; }
    74.3%, 100% { stroke-dashoffset: 3339; }
}
svg.acjk #stroke-p3 { animation-name: zk3; }
/* Stroke 4: Starts at 24.7%, finishes at 33.0%, holds until 74.2% */
@keyframes zk4 {
    0%, 24.7% { stroke-dashoffset: 3339; }
    33.0%, 74.2% { stroke-dashoffset: 0; }
    74.3%, 100% { stroke-dashoffset: 3339; }
}
svg.acjk #stroke-p4 { animation-name: zk4; }
/* Stroke 5: Starts at 33.0%, finishes at 41.2%, holds until 74.2% */
@keyframes zk5 {
    0%, 33.0% { stroke-dashoffset: 3339; }
    41.2%, 74.2% { stroke-dashoffset: 0; }
    74.3%, 100% { stroke-dashoffset: 3339; }
}
svg.acjk #stroke-p5 { animation-name: zk5; }
/* Stroke 6: Starts at 41.2%, finishes at 49.5%, holds until 74.2% */
@keyframes zk6 {
    0%, 41.2% { stroke-dashoffset: 3339; }
    49.5%, 74.2% { stroke-dashoffset: 0; }
    74.3%, 100% { stroke-dashoffset: 3339; }
}
svg.acjk #stroke-p6 { animation-name: zk6; }
/* Stroke 7: Starts at 49.5%, finishes at 57.7%, holds until 74.2% */
@keyframes zk7 {
    0%, 49.5% { stroke-dashoffset: 3339; }
    57.7%, 74.2% { stroke-dashoffset: 0; }
    74.3%, 100% { stroke-dashoffset: 3339; }
}
svg.acjk #stroke-p7 { animation-name: zk7; }
/* Stroke 8: Starts at 57.7%, finishes at 66.0%, holds until 74.2% */
@keyframes zk8 {
    0%, 57.7% { stroke-dashoffset: 3339; }
    66.0%, 74.2% { stroke-dashoffset: 0; }
    74.3%, 100% { stroke-dashoffset: 3339; }
}
svg.acjk #stroke-p8 { animation-name: zk8; }
/* Stroke 9: Starts at 66.0%, finishes at 74.2%, holds until 74.2% */
@keyframes zk9 {
    0%, 66.0% { stroke-dashoffset: 3339; }
    74.2%, 74.2% { stroke-dashoffset: 0; }
    74.3%, 100% { stroke-dashoffset: 3339; }
}
svg.acjk #stroke-p9 { animation-name: zk9; }
]]>
</style>
<defs>
    <path id="p1" d="M 476 103 C 494 113 513 127 534 142 C 544 149 555 150 567 149 C 573 148 579 142 581 132 C 582 121 577 106 568 87 C 562 74 548 65 528 61 C 478 50 448 49 439 57 C 436 59 435 66 439 75 C 442 82 455 91 476 103 Z"/>
    <path id="p2" d="M 326 265 C 360 269 404 269 459 261 C 635 233 730 216 744 212 C 752 209 757 207 761 205 C 767 200 770 194 767 188 C 762 179 750 172 730 167 C 710 162 667 175 597 190 C 500 209 398 225 319 231 C 307 231 315 263 326 265 Z"/>
    <path id="p3" d="M 319 231 C 308 221 294 212 278 204 C 264 196 254 193 245 197 C 236 201 233 209 239 219 C 250 241 254 281 250 338 C 242 438 223 541 190 628 C 163 696 121 769 68 848 C 64 853 61 856 60 861 C 57 868 60 872 68 871 C 91 866 132 824 187 742 C 196 727 205 711 214 694 C 261 596 292 487 307 369 C 312 325 317 290 326 265 C 330 254 328 238 319 231 Z"/>
    <path id="p4" d="M 377 518 C 400 489 426 454 452 412 C 464 392 474 377 484 367 C 489 361 490 353 488 346 C 485 339 476 328 459 316 C 444 305 431 301 420 302 C 409 302 406 309 412 322 C 423 346 407 397 360 476 C 338 512 311 550 281 590 C 276 596 272 600 271 604 C 268 610 271 612 280 611 C 291 608 319 588 355 545 C 370 527 370 527 377 518 Z"/>
    <path id="p5" d="M 355 545 C 375 587 363 686 346 775 C 343 789 336 809 355 851 C 357 857 360 862 365 866 C 374 874 383 871 389 857 C 397 834 400 810 401 785 C 404 676 409 610 416 587 C 419 572 419 562 414 556 C 397 536 385 523 377 518 C 368 511 351 534 355 545 Z"/>
    <path id="p6" d="M 661 473 C 675 470 725 459 813 448 C 819 447 828 446 833 436 C 836 428 825 420 810 413 C 777 397 737 408 661 427 C 634 434 634 434 620 437 C 568 449 509 454 484 458 C 464 460 461 468 477 480 C 500 496 528 500 599 486 C 640 477 640 477 661 473 Z"/>
    <path id="p7" d="M 661 427 C 661 388 664 354 674 327 C 677 317 683 308 679 303 C 670 292 649 281 626 267 C 612 258 600 256 589 266 C 586 268 585 275 590 283 C 606 309 617 334 618 360 C 618 384 619 409 620 437 C 621 517 621 517 621 557 C 621 656 618 744 614 782 C 606 842 600 864 601 881 C 601 895 609 909 616 922 C 621 931 625 936 629 939 C 632 941 634 942 640 938 C 644 934 650 928 655 916 C 660 902 662 886 662 869 C 661 844 661 732 661 532 C 661 499 661 499 661 482 C 661 476 661 476 661 473 C 661 442 661 442 661 427 Z"/>
    <path id="p8" d="M 599 486 C 574 568 513 657 417 754 C 410 762 410 767 416 767 C 422 769 428 768 435 764 C 488 734 534 682 590 607 C 599 595 613 572 621 557 C 656 499 612 419 599 486 Z"/>
    <path id="p9" d="M 661 532 C 699 604 742 669 788 730 C 799 745 810 754 824 754 C 860 752 893 750 924 749 C 936 748 943 746 944 743 C 944 739 938 731 924 724 C 846 682 790 642 755 602 C 716 557 685 518 661 482 C 652 468 654 517 661 532 Z"/>

    <clipPath id="z24229c1"><use href="#p1"/></clipPath>
    <clipPath id="z24229c2"><use href="#p2"/></clipPath>
    <clipPath id="z24229c3"><use href="#p3"/></clipPath>
    <clipPath id="z24229c4"><use href="#p4"/></clipPath>
    <clipPath id="z24229c5"><use href="#p5"/></clipPath>
    <clipPath id="z24229c6"><use href="#p6"/></clipPath>
    <clipPath id="z24229c7"><use href="#p7"/></clipPath>
    <clipPath id="z24229c8"><use href="#p8"/></clipPath>
    <clipPath id="z24229c9"><use href="#p9"/></clipPath>
</defs>
<g id="bg-layer" class="bg">
<use href="#p1"/>
<use href="#p2"/>
<use href="#p3"/>
<use href="#p4"/>
<use href="#p5"/>
<use href="#p6"/>
<use href="#p7"/>
<use href="#p8"/>
<use href="#p9"/>
</g>
<g id="anim-layer">
    <path id="stroke-p1" style="stroke:#FF4444" pathLength="3333" clip-path="url(#z24229c1)" d="M 441 61 L 529 96 L 575 141"/>
    <path id="stroke-p2" style="stroke:#FF4444" pathLength="3333" clip-path="url(#z24229c2)" d="M 327 239 L 422 243 L 761 188"/>
    <path id="stroke-p3" style="stroke:#FF4444" pathLength="3333" clip-path="url(#z24229c3)" d="M 242 205 L 288 269 L 240 557 L 168 729 L 65 864"/>
    <path id="stroke-p4" style="stroke:#000" pathLength="3333" clip-path="url(#z24229c4)" d="M 418 308 L 447 365 L 276 604"/>
    <path id="stroke-p5" style="stroke:#000" pathLength="3333" clip-path="url(#z24229c5)" d="M 377 526 L 392 582 L 374 866"/>
    <path id="stroke-p6" style="stroke:#000" pathLength="3333" clip-path="url(#z24229c6)" d="M 478 470 L 824 433"/>
    <path id="stroke-p7" style="stroke:#000" pathLength="3333" clip-path="url(#z24229c7)" d="M 593 268 L 647 323 L 632 936"/>
    <path id="stroke-p8" style="stroke:#000" pathLength="3333" clip-path="url(#z24229c8)" d="M 614 491 L 548 638 L 420 760"/>
    <path id="stroke-p9" style="stroke:#000" pathLength="3333" clip-path="url(#z24229c9)" d="M 664 492 L 728 606 L 821 710 L 936 738"/>
</g>
</svg>