<svg id="z24404" class="acjk" viewBox="0 0 1024 1024" xmlns="http://www.w3.org/2000/svg">
<style>
<![CDATA[
svg.acjk path[clip-path] {
    animation-duration: 8.9s;
    animation-timing-function: linear;
    animation-iteration-count: infinite;
    stroke-dasharray: 3337;
    stroke-dashoffset: 3339;
    stroke-width: 128;
    stroke-linecap: round;
    fill: none;
    stroke: #FF4444;
}
svg.acjk .bg { fill: #ccc; opacity: 0.5; }

/* Stroke 1: Starts at 0.0%, finishes at 9.0%, holds until 71.9% */
@keyframes zk1 {
    0%, 0.0% { stroke-dashoffset: 3339; }
    9.0%, 71.9% { stroke-dashoffset: 0; }
    72.0%, 100% { stroke-dashoffset: 3339; }
}
svg.acjk #stroke-p1 { animation-name: zk1; }
/* Stroke 2: Starts at 9.0%, finishes at 18.0%, holds until 71.9% */
@keyframes zk2 {
    0%, 9.0% { stroke-dashoffset: 3339; }
    18.0%, 71.9% { stroke-dashoffset: 0; }
    72.0%, 100% { stroke-dashoffset: 3339; }
}
svg.acjk #stroke-p2 { animation-name: zk2; }
/* Stroke 3: Starts at 18.0%, finishes at 27.0%, holds until 71.9% */
@keyframes zk3 {
    0%, 18.0% { stroke-dashoffset: 3339; }
    27.0%, 71.9% { stroke-dashoffset: 0; }
    72.0%, 100% { stroke-dashoffset: 3339; }
}
svg.acjk #stroke-p3 { animation-name: zk3; }
/* Stroke 4: Starts at 27.0%, finishes at 36.0%, holds until 71.9% */
@keyframes zk4 {
    0%, 27.0% { stroke-dashoffset: 3339; }
    36.0%, 71.9% { stroke-dashoffset: 0; }
    72.0%, 100% { stroke-dashoffset: 3339; }
}
svg.acjk #stroke-p4 { animation-name: zk4; }
/* Stroke 5: Starts at 36.0%, finishes at 44.9%, holds until 71.9% */
@keyframes zk5 {
    0%, 36.0% { stroke-dashoffset: 3339; }
    44.9%, 71.9% { stroke-dashoffset: 0; }
    72.0%, 100% { stroke-dashoffset: 3339; }
}
svg.acjk #stroke-p5 { animation-name: zk5; }
/* Stroke 6: Starts at 44.9%, finishes at 53.9%, holds until 71.9% */
@keyframes zk6 {
    0%, 44.9% { stroke-dashoffset: 3339; }
    53.9%, 71.9% { stroke-dashoffset: 0; }
    72.0%, 100% { stroke-dashoffset: 3339; }
}
svg.acjk #stroke-p6 { animation-name: zk6; }
/* Stroke 7: Starts at 53.9%, finishes at 62.9%, holds until 71.9% */
@keyframes zk7 {
    0%, 53.9% { stroke-dashoffset: 3339; }
    62.9%, 71.9% { stroke-dashoffset: 0; }
    72.0%, 100% { stroke-dashoffset: 3339; }
}
svg.acjk #stroke-p7 { animation-name: zk7; }
/* Stroke 8: Starts at 62.9%, finishes at 71.9%, holds until 71.9% */
@keyframes zk8 {
    0%, 62.9% { stroke-dashoffset: 3339; }
    71.9%, 71.9% { stroke-dashoffset: 0; }
    72.0%, 100% { stroke-dashoffset: 3339; }
}
svg.acjk #stroke-p8 { animation-name: zk8; }
]]>
</style>
<defs>
    <path id="p1" d="M 468 166 Q 496 133 508 125 Q 521 116 516 104 Q 510 91 466 64 Q 450 55 440 58 Q 427 62 431 84 Q 446 150 329 259 Q 307 275 276 292 Q 260 302 263 313 Q 266 329 288 353 Q 298 365 312 356 Q 346 338 497 333 Q 525 333 535 322 Q 548 310 520 308 Q 451 298 375 292 Q 368 292 366 290 Q 365 286 371 277 Q 425 213 459 176 C 465 169 465 169 468 166 Z"/>
    <path id="p2" d="M 526 416 Q 553 391 617 317 Q 672 251 726 216 Q 745 206 734 191 Q 721 178 684 151 Q 675 147 620 157 Q 506 167 468 166 C 464 166 456 173 459 176 Q 471 195 532 199 Q 616 195 622 202 Q 626 206 618 222 Q 555 337 516 391 Q 503 409 500 420 C 497 428 519 421 526 416 Z"/>
    <path id="p3" d="M 493 459 Q 589 446 864 446 Q 886 446 891 436 Q 898 423 879 408 Q 819 362 754 378 Q 664 394 526 416 C 509 419 509 419 500 420 Q 344 439 162 460 Q 140 461 156 481 Q 189 514 233 504 Q 336 476 451 464 C 479 461 479 461 493 459 Z"/>
    <path id="p4" d="M 531 609 Q 531 549 543 517 Q 552 498 535 485 Q 516 469 493 459 C 480 454 446 451 451 464 Q 452 468 458 477 Q 480 514 479 558 Q 486 730 477 819 Q 476 838 466 845 Q 459 849 378 829 Q 366 826 367 834 Q 368 841 378 849 Q 448 915 471 952 Q 484 970 501 956 Q 537 923 538 851 Q 534 820 531 645 C 531 621 531 621 531 609 Z"/>
    <path id="p5" d="M 293 593 Q 318 615 346 644 Q 359 657 373 656 Q 383 656 389 643 Q 393 630 386 601 Q 377 570 289 546 Q 274 542 268 545 Q 264 549 264 561 Q 268 571 293 593 Z"/>
    <path id="p6" d="M 165 795 Q 152 799 152 812 Q 153 827 165 833 Q 195 843 236 855 Q 248 856 258 843 Q 268 828 402 709 Q 420 694 431 679 Q 443 667 440 658 Q 433 654 420 659 Q 215 785 165 795 Z"/>
    <path id="p7" d="M 574 650 Q 595 640 709 576 Q 728 563 753 555 Q 775 548 766 529 Q 756 510 731 494 Q 709 478 697 480 Q 684 480 687 493 Q 687 515 607 598 Q 586 616 562 640 C 558 644 569 652 574 650 Z"/>
    <path id="p8" d="M 531 645 Q 609 751 709 861 Q 728 880 757 877 Q 857 870 890 862 Q 899 861 900 855 Q 900 851 887 843 Q 740 792 665 728 Q 620 692 574 650 C 566 643 566 643 562 640 Q 547 625 531 609 C 523 601 524 635 531 645 Z"/>

    <clipPath id="z24404c1"><use href="#p1"/></clipPath>
    <clipPath id="z24404c2"><use href="#p2"/></clipPath>
    <clipPath id="z24404c3"><use href="#p3"/></clipPath>
    <clipPath id="z24404c4"><use href="#p4"/></clipPath>
    <clipPath id="z24404c5"><use href="#p5"/></clipPath>
    <clipPath id="z24404c6"><use href="#p6"/></clipPath>
    <clipPath id="z24404c7"><use href="#p7"/></clipPath>
    <clipPath id="z24404c8"><use href="#p8"/></clipPath>
</defs>
<g id="bg-layer" class="bg">
<use href="#p1"/>
<use href="#p2"/>
<use href="#p3"/>
<use href="#p4"/>
<use href="#p5"/>
<use href="#p6"/>
<use href="#p7"/>
<use href="#p8"/>
</g>
<g id="anim-layer">
    <path id="stroke-p1" style="stroke:#FF4444" pathLength="3333" clip-path="url(#z24404c1)" d="M 439 64 L 473 117 L 315 302 L 336 325 L 529 319"/>
    <path id="stroke-p2" style="stroke:#FF4444" pathLength="3333" clip-path="url(#z24404c2)" d="M 466 174 L 637 177 L 684 207 L 508 419"/>
    <path id="stroke-p3" style="stroke:#FF4444" pathLength="3333" clip-path="url(#z24404c3)" d="M 158 470 L 214 480 L 779 410 L 887 432"/>
    <path id="stroke-p4" style="stroke:#000" pathLength="3333" clip-path="url(#z24404c4)" d="M 458 462 L 510 509 L 505 848 L 472 909 L 376 833"/>
    <path id="stroke-p5" style="stroke:#000" pathLength="3333" clip-path="url(#z24404c5)" d="M 272 554 L 348 602 L 378 650"/>
    <path id="stroke-p6" style="stroke:#000" pathLength="3333" clip-path="url(#z24404c6)" d="M 158 810 L 236 811 L 432 662"/>
    <path id="stroke-p7" style="stroke:#000" pathLength="3333" clip-path="url(#z24404c7)" d="M 695 484 L 718 536 L 569 643"/>
    <path id="stroke-p8" style="stroke:#000" pathLength="3333" clip-path="url(#z24404c8)" d="M 530 614 L 747 834 L 891 851"/>
</g>
</svg>