<svg id="z24443" class="acjk" viewBox="0 0 1024 1024" xmlns="http://www.w3.org/2000/svg">
<style>
<![CDATA[
svg.acjk path[clip-path] {
    animation-duration: 8.100000000000001s;
    animation-timing-function: linear;
    animation-iteration-count: infinite;
    stroke-dasharray: 3337;
    stroke-dashoffset: 3339;
    stroke-width: 128;
    stroke-linecap: round;
    fill: none;
    stroke: #FF4444;
}
svg.acjk .bg { fill: #ccc; opacity: 0.5; }

/* Stroke 1: Starts at 0.0%, finishes at 9.9%, holds until 69.1% */
@keyframes zk1 {
    0%, 0.0% { stroke-dashoffset: 3339; }
    9.9%, 69.1% { stroke-dashoffset: 0; }
    69.2%, 100% { stroke-dashoffset: 3339; }
}
svg.acjk #stroke-p1 { animation-name: zk1; }
/* Stroke 2: Starts at 9.9%, finishes at 19.8%, holds until 69.1% */
@keyframes zk2 {
    0%, 9.9% { stroke-dashoffset: 3339; }
    19.8%, 69.1% { stroke-dashoffset: 0; }
    69.2%, 100% { stroke-dashoffset: 3339; }
}
svg.acjk #stroke-p2 { animation-name: zk2; }
/* Stroke 3: Starts at 19.8%, finishes at 29.6%, holds until 69.1% */
@keyframes zk3 {
    0%, 19.8% { stroke-dashoffset: 3339; }
    29.6%, 69.1% { stroke-dashoffset: 0; }
    69.2%, 100% { stroke-dashoffset: 3339; }
}
svg.acjk #stroke-p3 { animation-name: zk3; }
/* Stroke 4: Starts at 29.6%, finishes at 39.5%, holds until 69.1% */
@keyframes zk4 {
    0%, 29.6% { stroke-dashoffset: 3339; }
    39.5%, 69.1% { stroke-dashoffset: 0; }
    69.2%, 100% { stroke-dashoffset: 3339; }
}
svg.acjk #stroke-p4 { animation-name: zk4; }
/* Stroke 5: Starts at 39.5%, finishes at 49.4%, holds until 69.1% */
@keyframes zk5 {
    0%, 39.5% { stroke-dashoffset: 3339; }
    49.4%, 69.1% { stroke-dashoffset: 0; }
    69.2%, 100% { stroke-dashoffset: 3339; }
}
svg.acjk #stroke-p5 { animation-name: zk5; }
/* Stroke 6: Starts at 49.4%, finishes at 59.3%, holds until 69.1% */
@keyframes zk6 {
    0%, 49.4% { stroke-dashoffset: 3339; }
    59.3%, 69.1% { stroke-dashoffset: 0; }
    69.2%, 100% { stroke-dashoffset: 3339; }
}
svg.acjk #stroke-p6 { animation-name: zk6; }
/* Stroke 7: Starts at 59.3%, finishes at 69.1%, holds until 69.1% */
@keyframes zk7 {
    0%, 59.3% { stroke-dashoffset: 3339; }
    69.1%, 69.1% { stroke-dashoffset: 0; }
    69.2%, 100% { stroke-dashoffset: 3339; }
}
svg.acjk #stroke-p7 { animation-name: zk7; }
]]>
</style>
<defs>
    <path id="p1" d="M 282 104 C 291 128 273 179 222 257 C 198 293 168 331 135 369 C 129 375 124 379 123 383 C 120 389 124 393 133 391 C 169 381 231 320 313 207 C 323 193 337 172 352 155 C 358 148 361 140 359 132 C 356 124 347 112 331 100 C 316 88 303 83 292 83 C 281 83 277 90 282 104 Z"/>
    <path id="p2" d="M 245 516 C 270 485 299 450 326 408 C 343 380 359 358 374 345 C 381 338 382 330 380 322 C 377 314 368 301 351 288 C 335 275 320 269 309 269 C 297 269 292 277 298 291 C 305 311 305 328 298 344 C 255 433 185 535 83 648 C 76 654 72 658 71 662 C 68 668 71 672 81 671 C 105 667 184 589 221 545 C 237 526 237 526 245 516 Z"/>
    <path id="p3" d="M 221 545 C 239 615 237 696 216 788 C 209 816 216 843 235 872 C 236 873 237 875 239 877 C 249 886 259 884 266 867 C 275 842 278 816 279 789 C 279 680 280 613 286 590 C 289 573 289 562 284 556 C 263 532 251 518 245 516 C 234 510 219 533 221 545 Z"/>
    <path id="p4" d="M 486 434 C 550 410 582 397 583 397 C 587 390 588 384 585 380 C 579 371 565 366 545 365 C 525 363 506 369 489 378 C 456 394 456 394 439 402 C 420 411 367 425 336 433 C 311 439 309 448 329 457 C 375 477 397 466 439 451 C 470 440 470 440 486 434 Z"/>
    <path id="p5" d="M 439 451 C 439 571 426 645 403 676 C 393 687 392 701 401 715 C 408 728 420 736 432 743 C 439 747 447 744 455 733 C 468 713 504 670 571 611 C 588 595 599 587 601 581 C 601 576 600 572 597 572 C 591 570 555 589 494 630 C 481 638 474 637 475 622 C 477 561 482 498 486 434 C 488 397 488 397 489 378 C 492 308 496 267 500 256 C 504 243 502 231 493 223 C 478 210 462 202 445 198 C 425 193 411 195 405 204 C 400 210 401 219 411 228 C 430 245 439 302 439 402 C 439 435 439 435 439 451 Z"/>
    <path id="p6" d="M 702 429 C 740 417 774 408 806 404 C 815 402 822 403 824 406 C 833 419 833 443 829 477 C 817 571 800 639 777 682 C 766 700 753 710 738 706 C 720 701 705 692 690 687 C 675 681 671 688 683 702 C 710 732 729 757 746 777 C 760 794 776 790 790 778 C 811 758 831 736 845 706 C 861 669 873 597 880 490 C 882 451 889 421 902 403 C 907 394 911 387 907 382 C 901 374 882 365 850 353 C 837 348 825 350 814 358 C 802 365 773 374 728 387 C 683 399 641 408 601 413 C 590 414 584 417 583 423 C 582 427 589 432 604 440 C 619 447 632 450 644 446 C 650 443 658 441 668 439 C 691 432 691 432 702 429 Z"/>
    <path id="p7" d="M 668 439 C 681 523 653 612 582 709 C 558 740 521 781 470 831 C 465 835 465 839 470 841 C 491 845 532 818 592 762 C 648 708 692 629 724 526 C 729 507 736 490 745 474 C 748 466 749 460 745 455 C 741 450 726 441 702 429 C 692 423 666 427 668 439 Z"/>

    <clipPath id="z24443c1"><use href="#p1"/></clipPath>
    <clipPath id="z24443c2"><use href="#p2"/></clipPath>
    <clipPath id="z24443c3"><use href="#p3"/></clipPath>
    <clipPath id="z24443c4"><use href="#p4"/></clipPath>
    <clipPath id="z24443c5"><use href="#p5"/></clipPath>
    <clipPath id="z24443c6"><use href="#p6"/></clipPath>
    <clipPath id="z24443c7"><use href="#p7"/></clipPath>
</defs>
<g id="bg-layer" class="bg">
<use href="#p1"/>
<use href="#p2"/>
<use href="#p3"/>
<use href="#p4"/>
<use href="#p5"/>
<use href="#p6"/>
<use href="#p7"/>
</g>
<g id="anim-layer">
    <path id="stroke-p1" style="stroke:#FF4444" pathLength="3333" clip-path="url(#z24443c1)" d="M 290 94 L 319 143 L 216 297 L 129 382"/>
    <path id="stroke-p2" style="stroke:#FF4444" pathLength="3333" clip-path="url(#z24443c2)" d="M 304 278 L 341 335 L 219 515 L 77 665"/>
    <path id="stroke-p3" style="stroke:#FF4444" pathLength="3333" clip-path="url(#z24443c3)" d="M 247 524 L 251 878"/>
    <path id="stroke-p4" style="stroke:#000" pathLength="3333" clip-path="url(#z24443c4)" d="M 324 446 L 582 382"/>
    <path id="stroke-p5" style="stroke:#000" pathLength="3333" clip-path="url(#z24443c5)" d="M 408 212 L 464 249 L 440 679 L 461 691 L 594 581"/>
    <path id="stroke-p6" style="stroke:#000" pathLength="3333" clip-path="url(#z24443c6)" d="M 590 424 L 819 379 L 868 404 L 833 631 L 798 715 L 758 746 L 684 690"/>
    <path id="stroke-p7" style="stroke:#000" pathLength="3333" clip-path="url(#z24443c7)" d="M 673 444 L 709 475 L 657 631 L 596 727 L 476 835"/>
</g>
</svg>