<svg id="z24450" class="acjk" viewBox="0 0 1024 1024" xmlns="http://www.w3.org/2000/svg">
<style>
<![CDATA[
svg.acjk path[clip-path] {
    animation-duration: 8.9s;
    animation-timing-function: linear;
    animation-iteration-count: infinite;
    stroke-dasharray: 3337;
    stroke-dashoffset: 3339;
    stroke-width: 128;
    stroke-linecap: round;
    fill: none;
    stroke: #FF4444;
}
svg.acjk .bg { fill: #ccc; opacity: 0.5; }

/* Stroke 1: Starts at 0.0%, finishes at 9.0%, holds until 71.9% */
@keyframes zk1 {
    0%, 0.0% { stroke-dashoffset: 3339; }
    9.0%, 71.9% { stroke-dashoffset: 0; }
    72.0%, 100% { stroke-dashoffset: 3339; }
}
svg.acjk #stroke-p1 { animation-name: zk1; }
/* Stroke 2: Starts at 9.0%, finishes at 18.0%, holds until 71.9% */
@keyframes zk2 {
    0%, 9.0% { stroke-dashoffset: 3339; }
    18.0%, 71.9% { stroke-dashoffset: 0; }
    72.0%, 100% { stroke-dashoffset: 3339; }
}
svg.acjk #stroke-p2 { animation-name: zk2; }
/* Stroke 3: Starts at 18.0%, finishes at 27.0%, holds until 71.9% */
@keyframes zk3 {
    0%, 18.0% { stroke-dashoffset: 3339; }
    27.0%, 71.9% { stroke-dashoffset: 0; }
    72.0%, 100% { stroke-dashoffset: 3339; }
}
svg.acjk #stroke-p3 { animation-name: zk3; }
/* Stroke 4: Starts at 27.0%, finishes at 36.0%, holds until 71.9% */
@keyframes zk4 {
    0%, 27.0% { stroke-dashoffset: 3339; }
    36.0%, 71.9% { stroke-dashoffset: 0; }
    72.0%, 100% { stroke-dashoffset: 3339; }
}
svg.acjk #stroke-p4 { animation-name: zk4; }
/* Stroke 5: Starts at 36.0%, finishes at 44.9%, holds until 71.9% */
@keyframes zk5 {
    0%, 36.0% { stroke-dashoffset: 3339; }
    44.9%, 71.9% { stroke-dashoffset: 0; }
    72.0%, 100% { stroke-dashoffset: 3339; }
}
svg.acjk #stroke-p5 { animation-name: zk5; }
/* Stroke 6: Starts at 44.9%, finishes at 53.9%, holds until 71.9% */
@keyframes zk6 {
    0%, 44.9% { stroke-dashoffset: 3339; }
    53.9%, 71.9% { stroke-dashoffset: 0; }
    72.0%, 100% { stroke-dashoffset: 3339; }
}
svg.acjk #stroke-p6 { animation-name: zk6; }
/* Stroke 7: Starts at 53.9%, finishes at 62.9%, holds until 71.9% */
@keyframes zk7 {
    0%, 53.9% { stroke-dashoffset: 3339; }
    62.9%, 71.9% { stroke-dashoffset: 0; }
    72.0%, 100% { stroke-dashoffset: 3339; }
}
svg.acjk #stroke-p7 { animation-name: zk7; }
/* Stroke 8: Starts at 62.9%, finishes at 71.9%, holds until 71.9% */
@keyframes zk8 {
    0%, 62.9% { stroke-dashoffset: 3339; }
    71.9%, 71.9% { stroke-dashoffset: 0; }
    72.0%, 100% { stroke-dashoffset: 3339; }
}
svg.acjk #stroke-p8 { animation-name: zk8; }
]]>
</style>
<defs>
    <path id="p1" d="M 310 91 Q 317 110 307 127 Q 259 212 148 319 Q 136 328 133 333 Q 127 343 142 343 Q 190 343 332 207 Q 357 174 383 158 Q 393 149 392 135 Q 391 122 366 95 Q 344 73 325 69 Q 306 68 310 91 Z"/>
    <path id="p2" d="M 252 507 Q 283 471 317 428 Q 345 388 368 369 Q 378 359 375 346 Q 372 333 346 308 Q 321 287 303 285 Q 284 286 290 308 Q 300 338 287 360 Q 221 489 61 650 Q 51 660 48 665 Q 44 675 58 675 Q 91 669 224 538 C 243 517 243 517 252 507 Z"/>
    <path id="p3" d="M 224 538 Q 255 604 219 780 Q 198 844 237 891 C 238 892 238 892 238 893 Q 254 908 266 883 Q 279 844 279 801 Q 283 621 291 581 Q 298 556 289 546 Q 258 509 252 507 C 240 500 219 525 224 538 Z"/>
    <path id="p4" d="M 505 217 Q 492 207 479 201 Q 466 197 456 202 Q 447 206 451 218 Q 473 269 478 302 Q 478 530 481 761 C 481 777 529 773 529 757 Q 529 661 529 576 C 529 557 529 557 529 547 Q 530 478 531 416 C 531 395 531 395 531 385 Q 532 319 535 253 C 535 237 517 226 505 217 Z"/>
    <path id="p5" d="M 767 728 Q 766 482 776 319 Q 779 277 797 250 Q 810 234 796 213 Q 784 200 727 168 Q 709 155 683 169 Q 646 184 592 201 Q 552 211 505 217 C 490 220 520 259 535 253 Q 541 250 549 248 Q 640 223 679 218 Q 695 214 699 220 Q 708 233 707 266 Q 708 534 706 736 C 706 757 767 749 767 728 Z"/>
    <path id="p6" d="M 657 401 Q 685 395 674 381 Q 661 365 631 360 Q 574 354 531 385 C 522 390 521 418 531 416 C 615 406 615 406 657 401 Z"/>
    <path id="p7" d="M 529 576 Q 530 576 658 557 Q 685 551 674 537 Q 661 521 631 517 Q 582 514 529 547 C 521 552 520 578 529 576 Z"/>
    <path id="p8" d="M 481 761 Q 412 765 340 774 Q 315 775 332 797 Q 368 833 413 823 Q 639 771 942 792 Q 943 791 945 792 Q 967 793 974 783 Q 981 770 962 753 Q 893 701 835 717 Q 804 721 767 728 C 726 733 726 733 706 736 Q 666 740 625 746 Q 579 750 529 757 C 497 760 497 760 481 761 Z"/>

    <clipPath id="z24450c1"><use href="#p1"/></clipPath>
    <clipPath id="z24450c2"><use href="#p2"/></clipPath>
    <clipPath id="z24450c3"><use href="#p3"/></clipPath>
    <clipPath id="z24450c4"><use href="#p4"/></clipPath>
    <clipPath id="z24450c5"><use href="#p5"/></clipPath>
    <clipPath id="z24450c6"><use href="#p6"/></clipPath>
    <clipPath id="z24450c7"><use href="#p7"/></clipPath>
    <clipPath id="z24450c8"><use href="#p8"/></clipPath>
</defs>
<g id="bg-layer" class="bg">
<use href="#p1"/>
<use href="#p2"/>
<use href="#p3"/>
<use href="#p4"/>
<use href="#p5"/>
<use href="#p6"/>
<use href="#p7"/>
<use href="#p8"/>
</g>
<g id="anim-layer">
    <path id="stroke-p1" style="stroke:#FF4444" pathLength="3333" clip-path="url(#z24450c1)" d="M 320 80 L 350 135 L 202 294 L 137 335"/>
    <path id="stroke-p2" style="stroke:#FF4444" pathLength="3333" clip-path="url(#z24450c2)" d="M 297 292 L 332 357 L 218 510 L 56 670"/>
    <path id="stroke-p3" style="stroke:#FF4444" pathLength="3333" clip-path="url(#z24450c3)" d="M 251 519 L 246 893"/>
    <path id="stroke-p4" style="stroke:#000" pathLength="3333" clip-path="url(#z24450c4)" d="M 458 211 L 505 287 L 496 759"/>
    <path id="stroke-p5" style="stroke:#000" pathLength="3333" clip-path="url(#z24450c5)" d="M 515 221 L 702 189 L 752 232 L 741 731"/>
    <path id="stroke-p6" style="stroke:#000" pathLength="3333" clip-path="url(#z24450c6)" d="M 536 408 L 604 383 L 672 388"/>
    <path id="stroke-p7" style="stroke:#000" pathLength="3333" clip-path="url(#z24450c7)" d="M 533 568 L 672 541"/>
    <path id="stroke-p8" style="stroke:#000" pathLength="3333" clip-path="url(#z24450c8)" d="M 331 780 L 402 796 L 852 750 L 972 777"/>
</g>
</svg>