<svg id="z24501" class="acjk" viewBox="0 0 1024 1024" xmlns="http://www.w3.org/2000/svg">
<style>
<![CDATA[
svg.acjk path[clip-path] {
    animation-duration: 14.5s;
    animation-timing-function: linear;
    animation-iteration-count: infinite;
    stroke-dasharray: 3337;
    stroke-dashoffset: 3339;
    stroke-width: 128;
    stroke-linecap: round;
    fill: none;
    stroke: #FF4444;
}
svg.acjk .bg { fill: #ccc; opacity: 0.5; }

/* Stroke 1: Starts at 0.0%, finishes at 5.5%, holds until 82.8% */
@keyframes zk1 {
    0%, 0.0% { stroke-dashoffset: 3339; }
    5.5%, 82.8% { stroke-dashoffset: 0; }
    82.9%, 100% { stroke-dashoffset: 3339; }
}
svg.acjk #stroke-p1 { animation-name: zk1; }
/* Stroke 2: Starts at 5.5%, finishes at 11.0%, holds until 82.8% */
@keyframes zk2 {
    0%, 5.5% { stroke-dashoffset: 3339; }
    11.0%, 82.8% { stroke-dashoffset: 0; }
    82.9%, 100% { stroke-dashoffset: 3339; }
}
svg.acjk #stroke-p2 { animation-name: zk2; }
/* Stroke 3: Starts at 11.0%, finishes at 16.6%, holds until 82.8% */
@keyframes zk3 {
    0%, 11.0% { stroke-dashoffset: 3339; }
    16.6%, 82.8% { stroke-dashoffset: 0; }
    82.9%, 100% { stroke-dashoffset: 3339; }
}
svg.acjk #stroke-p3 { animation-name: zk3; }
/* Stroke 4: Starts at 16.6%, finishes at 22.1%, holds until 82.8% */
@keyframes zk4 {
    0%, 16.6% { stroke-dashoffset: 3339; }
    22.1%, 82.8% { stroke-dashoffset: 0; }
    82.9%, 100% { stroke-dashoffset: 3339; }
}
svg.acjk #stroke-p4 { animation-name: zk4; }
/* Stroke 5: Starts at 22.1%, finishes at 27.6%, holds until 82.8% */
@keyframes zk5 {
    0%, 22.1% { stroke-dashoffset: 3339; }
    27.6%, 82.8% { stroke-dashoffset: 0; }
    82.9%, 100% { stroke-dashoffset: 3339; }
}
svg.acjk #stroke-p5 { animation-name: zk5; }
/* Stroke 6: Starts at 27.6%, finishes at 33.1%, holds until 82.8% */
@keyframes zk6 {
    0%, 27.6% { stroke-dashoffset: 3339; }
    33.1%, 82.8% { stroke-dashoffset: 0; }
    82.9%, 100% { stroke-dashoffset: 3339; }
}
svg.acjk #stroke-p6 { animation-name: zk6; }
/* Stroke 7: Starts at 33.1%, finishes at 38.6%, holds until 82.8% */
@keyframes zk7 {
    0%, 33.1% { stroke-dashoffset: 3339; }
    38.6%, 82.8% { stroke-dashoffset: 0; }
    82.9%, 100% { stroke-dashoffset: 3339; }
}
svg.acjk #stroke-p7 { animation-name: zk7; }
/* Stroke 8: Starts at 38.6%, finishes at 44.1%, holds until 82.8% */
@keyframes zk8 {
    0%, 38.6% { stroke-dashoffset: 3339; }
    44.1%, 82.8% { stroke-dashoffset: 0; }
    82.9%, 100% { stroke-dashoffset: 3339; }
}
svg.acjk #stroke-p8 { animation-name: zk8; }
/* Stroke 9: Starts at 44.1%, finishes at 49.7%, holds until 82.8% */
@keyframes zk9 {
    0%, 44.1% { stroke-dashoffset: 3339; }
    49.7%, 82.8% { stroke-dashoffset: 0; }
    82.9%, 100% { stroke-dashoffset: 3339; }
}
svg.acjk #stroke-p9 { animation-name: zk9; }
/* Stroke 10: Starts at 49.7%, finishes at 55.2%, holds until 82.8% */
@keyframes zk10 {
    0%, 49.7% { stroke-dashoffset: 3339; }
    55.2%, 82.8% { stroke-dashoffset: 0; }
    82.9%, 100% { stroke-dashoffset: 3339; }
}
svg.acjk #stroke-p10 { animation-name: zk10; }
/* Stroke 11: Starts at 55.2%, finishes at 60.7%, holds until 82.8% */
@keyframes zk11 {
    0%, 55.2% { stroke-dashoffset: 3339; }
    60.7%, 82.8% { stroke-dashoffset: 0; }
    82.9%, 100% { stroke-dashoffset: 3339; }
}
svg.acjk #stroke-p11 { animation-name: zk11; }
/* Stroke 12: Starts at 60.7%, finishes at 66.2%, holds until 82.8% */
@keyframes zk12 {
    0%, 60.7% { stroke-dashoffset: 3339; }
    66.2%, 82.8% { stroke-dashoffset: 0; }
    82.9%, 100% { stroke-dashoffset: 3339; }
}
svg.acjk #stroke-p12 { animation-name: zk12; }
/* Stroke 13: Starts at 66.2%, finishes at 71.7%, holds until 82.8% */
@keyframes zk13 {
    0%, 66.2% { stroke-dashoffset: 3339; }
    71.7%, 82.8% { stroke-dashoffset: 0; }
    82.9%, 100% { stroke-dashoffset: 3339; }
}
svg.acjk #stroke-p13 { animation-name: zk13; }
/* Stroke 14: Starts at 71.7%, finishes at 77.2%, holds until 82.8% */
@keyframes zk14 {
    0%, 71.7% { stroke-dashoffset: 3339; }
    77.2%, 82.8% { stroke-dashoffset: 0; }
    82.9%, 100% { stroke-dashoffset: 3339; }
}
svg.acjk #stroke-p14 { animation-name: zk14; }
/* Stroke 15: Starts at 77.2%, finishes at 82.8%, holds until 82.8% */
@keyframes zk15 {
    0%, 77.2% { stroke-dashoffset: 3339; }
    82.8%, 82.8% { stroke-dashoffset: 0; }
    82.9%, 100% { stroke-dashoffset: 3339; }
}
svg.acjk #stroke-p15 { animation-name: zk15; }
]]>
</style>
<defs>
    <path id="p1" d="M 242 134 C 249 154 234 197 191 261 C 171 290 146 320 119 353 C 113 359 109 363 108 367 C 105 373 108 376 117 375 C 143 372 200 326 277 228 C 285 217 293 201 312 186 C 318 180 320 173 318 165 C 316 157 306 145 291 132 C 275 119 263 114 252 114 C 241 114 237 120 242 134 Z"/>
    <path id="p2" d="M 225 530 C 272 469 295 429 307 419 C 313 412 314 405 312 397 C 309 389 300 377 283 364 C 267 352 253 347 242 347 C 231 347 227 354 232 368 C 249 414 194 515 63 672 C 56 679 52 683 51 687 C 48 693 52 696 61 695 C 82 692 131 651 198 565 C 216 542 216 542 225 530 Z"/>
    <path id="p3" d="M 198 565 C 214 607 207 688 190 775 C 185 798 182 823 202 859 C 205 864 207 869 211 873 C 221 882 231 880 238 863 C 247 838 250 812 251 785 C 251 683 253 620 258 598 C 261 581 261 570 256 564 C 245 551 235 540 225 530 C 215 520 193 551 198 565 Z"/>
    <path id="p4" d="M 484 299 C 490 262 496 227 502 194 C 502 188 506 175 513 158 C 515 151 512 143 501 136 C 483 124 466 118 454 115 C 445 112 438 114 434 118 C 429 122 428 128 434 137 C 440 147 444 155 445 162 C 447 206 448 255 448 307 C 448 319 482 311 484 299 Z"/>
    <path id="p5" d="M 554 284 C 529 286 506 294 484 299 C 460 304 460 304 448 307 C 428 311 409 317 393 324 C 384 327 381 322 383 311 C 384 299 385 287 388 275 C 390 262 388 251 383 244 C 374 233 364 224 351 218 C 345 214 339 213 334 215 C 327 216 326 223 331 234 C 348 277 347 314 324 341 C 314 351 310 359 316 367 C 322 374 330 381 340 388 C 346 391 353 392 359 387 C 382 361 431 342 510 324 C 527 320 539 316 548 318 C 559 320 566 284 554 284 Z"/>
    <path id="p6" d="M 548 318 C 550 330 552 340 556 349 C 558 357 563 359 571 354 C 585 341 591 314 601 274 C 609 238 620 222 622 221 C 627 214 627 206 622 199 C 614 189 601 180 586 169 C 579 164 572 163 567 166 C 562 167 559 172 562 179 C 570 198 570 232 555 282 C 554 282 554 282 554 284 C 550 295 546 307 548 318 Z"/>
    <path id="p7" d="M 368 431 Q 337 440 361 452 Q 394 464 465 445 Q 489 438 519 428 Q 535 424 538 420 Q 545 413 540 406 Q 533 396 507 393 Q 488 392 417 419 Q 395 426 368 431 Z"/>
    <path id="p8" d="M 444 548 C 467 542 490 535 515 530 C 531 525 541 521 544 519 C 548 514 550 509 547 505 C 542 498 532 493 517 491 C 500 488 484 492 469 499 C 450 506 430 512 409 519 C 386 525 360 529 333 534 C 314 537 311 544 326 552 C 347 564 374 564 406 557 C 431 551 431 551 444 548 Z"/>
    <path id="p9" d="M 461 650 C 512 635 541 627 545 623 C 549 618 550 613 547 609 C 542 602 532 598 517 596 C 492 592 477 602 463 608 C 430 620 430 620 414 626 C 393 633 369 636 344 641 C 325 644 322 652 337 660 C 356 670 383 672 415 663 C 446 654 446 654 461 650 Z"/>
    <path id="p10" d="M 457 718 C 457 693 460 670 461 650 C 462 622 462 622 463 608 C 464 584 471 566 444 548 C 433 541 403 544 406 557 C 408 563 412 585 414 626 C 415 651 415 651 415 663 C 415 681 415 703 417 730 C 417 744 457 732 457 718 Z"/>
    <path id="p11" d="M 417 730 C 375 742 332 750 290 759 C 281 760 276 762 275 769 C 274 775 278 782 288 788 C 312 802 343 804 378 790 C 424 771 481 751 552 736 C 561 733 567 730 567 726 C 567 717 560 711 549 707 C 528 699 499 705 457 718 C 430 726 430 726 417 730 Z"/>
    <path id="p12" d="M 656 395 C 686 350 711 302 746 218 C 754 196 764 166 780 146 C 785 138 784 129 780 122 C 775 113 762 104 743 94 C 723 84 708 82 696 85 C 685 87 682 95 691 109 C 717 147 686 258 591 443 C 589 446 587 449 585 454 C 581 461 576 466 576 471 C 574 478 579 481 588 478 C 593 475 612 459 637 423 C 650 404 650 404 656 395 Z"/>
    <path id="p13" d="M 733 423 C 765 413 891 371 894 369 C 898 363 899 357 896 352 C 891 344 878 338 858 336 C 837 334 817 338 797 349 C 775 357 752 366 729 375 C 706 381 682 388 656 395 C 645 397 626 419 637 423 C 657 429 678 432 702 431 C 723 426 723 426 733 423 Z"/>
    <path id="p14" d="M 732 686 C 743 664 767 588 779 501 C 781 484 783 473 788 467 C 791 461 793 456 789 450 C 785 445 757 432 733 423 C 723 419 698 421 702 431 C 731 486 716 583 695 637 C 683 667 683 667 677 682 C 657 731 595 782 519 827 C 504 835 506 839 524 839 C 534 839 549 834 571 828 C 597 819 622 809 645 795 C 664 782 693 755 707 731 C 724 701 724 701 732 686 Z"/>
    <path id="p15" d="M 707 731 C 756 811 798 853 825 860 C 838 863 877 863 941 863 C 949 863 958 862 966 860 C 971 858 970 851 964 845 C 956 837 916 817 848 784 C 810 765 768 734 732 686 C 707 653 707 653 695 637 C 677 613 660 585 642 556 C 631 540 617 528 599 522 C 592 519 585 519 579 523 C 574 526 575 531 580 537 C 584 541 587 545 592 549 C 607 561 631 608 677 682 C 697 715 697 715 707 731 Z"/>

    <clipPath id="z24501c1"><use href="#p1"/></clipPath>
    <clipPath id="z24501c2"><use href="#p2"/></clipPath>
    <clipPath id="z24501c3"><use href="#p3"/></clipPath>
    <clipPath id="z24501c4"><use href="#p4"/></clipPath>
    <clipPath id="z24501c5"><use href="#p5"/></clipPath>
    <clipPath id="z24501c6"><use href="#p6"/></clipPath>
    <clipPath id="z24501c7"><use href="#p7"/></clipPath>
    <clipPath id="z24501c8"><use href="#p8"/></clipPath>
    <clipPath id="z24501c9"><use href="#p9"/></clipPath>
    <clipPath id="z24501c10"><use href="#p10"/></clipPath>
    <clipPath id="z24501c11"><use href="#p11"/></clipPath>
    <clipPath id="z24501c12"><use href="#p12"/></clipPath>
    <clipPath id="z24501c13"><use href="#p13"/></clipPath>
    <clipPath id="z24501c14"><use href="#p14"/></clipPath>
    <clipPath id="z24501c15"><use href="#p15"/></clipPath>
</defs>
<g id="bg-layer" class="bg">
<use href="#p1"/>
<use href="#p2"/>
<use href="#p3"/>
<use href="#p4"/>
<use href="#p5"/>
<use href="#p6"/>
<use href="#p7"/>
<use href="#p8"/>
<use href="#p9"/>
<use href="#p10"/>
<use href="#p11"/>
<use href="#p12"/>
<use href="#p13"/>
<use href="#p14"/>
<use href="#p15"/>
</g>
<g id="anim-layer">
    <path id="stroke-p1" style="stroke:#FF4444" pathLength="3333" clip-path="url(#z24501c1)" d="M 249 119 L 278 175 L 116 368"/>
    <path id="stroke-p2" style="stroke:#FF4444" pathLength="3333" clip-path="url(#z24501c2)" d="M 240 358 L 273 403 L 265 422 L 59 689"/>
    <path id="stroke-p3" style="stroke:#FF4444" pathLength="3333" clip-path="url(#z24501c3)" d="M 229 540 L 218 874"/>
    <path id="stroke-p4" style="stroke:#000" pathLength="3333" clip-path="url(#z24501c4)" d="M 437 124 L 479 163 L 461 303"/>
    <path id="stroke-p5" style="stroke:#000" pathLength="3333" clip-path="url(#z24501c5)" d="M 339 225 L 365 264 L 350 342 L 366 357 L 551 295"/>
    <path id="stroke-p6" style="stroke:#000" pathLength="3333" clip-path="url(#z24501c6)" d="M 572 175 L 596 216 L 568 352"/>
    <path id="stroke-p7" style="stroke:#000" pathLength="3333" clip-path="url(#z24501c7)" d="M 356 441 L 537 407"/>
    <path id="stroke-p8" style="stroke:#000" pathLength="3333" clip-path="url(#z24501c8)" d="M 327 543 L 541 507"/>
    <path id="stroke-p9" style="stroke:#000" pathLength="3333" clip-path="url(#z24501c9)" d="M 335 649 L 544 610"/>
    <path id="stroke-p10" style="stroke:#000" pathLength="3333" clip-path="url(#z24501c10)" d="M 413 561 L 438 599 L 436 723"/>
    <path id="stroke-p11" style="stroke:#000" pathLength="3333" clip-path="url(#z24501c11)" d="M 283 771 L 562 722"/>
    <path id="stroke-p12" style="stroke:#000" pathLength="3333" clip-path="url(#z24501c12)" d="M 693 92 L 741 144 L 681 303 L 584 472"/>
    <path id="stroke-p13" style="stroke:#000" pathLength="3333" clip-path="url(#z24501c13)" d="M 645 419 L 892 356"/>
    <path id="stroke-p14" style="stroke:#000" pathLength="3333" clip-path="url(#z24501c14)" d="M 708 433 L 753 473 L 701 690 L 624 782 L 519 835"/>
    <path id="stroke-p15" style="stroke:#000" pathLength="3333" clip-path="url(#z24501c15)" d="M 584 529 L 815 810 L 961 853"/>
</g>
</svg>