<svg id="z25159" class="acjk" viewBox="0 0 1024 1024" xmlns="http://www.w3.org/2000/svg">
<style>
<![CDATA[
svg.acjk path[clip-path] {
    animation-duration: 10.5s;
    animation-timing-function: linear;
    animation-iteration-count: infinite;
    stroke-dasharray: 3337;
    stroke-dashoffset: 3339;
    stroke-width: 128;
    stroke-linecap: round;
    fill: none;
    stroke: #FF4444;
}
svg.acjk .bg { fill: #ccc; opacity: 0.5; }

/* Stroke 1: Starts at 0.0%, finishes at 7.6%, holds until 76.2% */
@keyframes zk1 {
    0%, 0.0% { stroke-dashoffset: 3339; }
    7.6%, 76.2% { stroke-dashoffset: 0; }
    76.3%, 100% { stroke-dashoffset: 3339; }
}
svg.acjk #stroke-p1 { animation-name: zk1; }
/* Stroke 2: Starts at 7.6%, finishes at 15.2%, holds until 76.2% */
@keyframes zk2 {
    0%, 7.6% { stroke-dashoffset: 3339; }
    15.2%, 76.2% { stroke-dashoffset: 0; }
    76.3%, 100% { stroke-dashoffset: 3339; }
}
svg.acjk #stroke-p2 { animation-name: zk2; }
/* Stroke 3: Starts at 15.2%, finishes at 22.9%, holds until 76.2% */
@keyframes zk3 {
    0%, 15.2% { stroke-dashoffset: 3339; }
    22.9%, 76.2% { stroke-dashoffset: 0; }
    76.3%, 100% { stroke-dashoffset: 3339; }
}
svg.acjk #stroke-p3 { animation-name: zk3; }
/* Stroke 4: Starts at 22.9%, finishes at 30.5%, holds until 76.2% */
@keyframes zk4 {
    0%, 22.9% { stroke-dashoffset: 3339; }
    30.5%, 76.2% { stroke-dashoffset: 0; }
    76.3%, 100% { stroke-dashoffset: 3339; }
}
svg.acjk #stroke-p4 { animation-name: zk4; }
/* Stroke 5: Starts at 30.5%, finishes at 38.1%, holds until 76.2% */
@keyframes zk5 {
    0%, 30.5% { stroke-dashoffset: 3339; }
    38.1%, 76.2% { stroke-dashoffset: 0; }
    76.3%, 100% { stroke-dashoffset: 3339; }
}
svg.acjk #stroke-p5 { animation-name: zk5; }
/* Stroke 6: Starts at 38.1%, finishes at 45.7%, holds until 76.2% */
@keyframes zk6 {
    0%, 38.1% { stroke-dashoffset: 3339; }
    45.7%, 76.2% { stroke-dashoffset: 0; }
    76.3%, 100% { stroke-dashoffset: 3339; }
}
svg.acjk #stroke-p6 { animation-name: zk6; }
/* Stroke 7: Starts at 45.7%, finishes at 53.3%, holds until 76.2% */
@keyframes zk7 {
    0%, 45.7% { stroke-dashoffset: 3339; }
    53.3%, 76.2% { stroke-dashoffset: 0; }
    76.3%, 100% { stroke-dashoffset: 3339; }
}
svg.acjk #stroke-p7 { animation-name: zk7; }
/* Stroke 8: Starts at 53.3%, finishes at 61.0%, holds until 76.2% */
@keyframes zk8 {
    0%, 53.3% { stroke-dashoffset: 3339; }
    61.0%, 76.2% { stroke-dashoffset: 0; }
    76.3%, 100% { stroke-dashoffset: 3339; }
}
svg.acjk #stroke-p8 { animation-name: zk8; }
/* Stroke 9: Starts at 61.0%, finishes at 68.6%, holds until 76.2% */
@keyframes zk9 {
    0%, 61.0% { stroke-dashoffset: 3339; }
    68.6%, 76.2% { stroke-dashoffset: 0; }
    76.3%, 100% { stroke-dashoffset: 3339; }
}
svg.acjk #stroke-p9 { animation-name: zk9; }
/* Stroke 10: Starts at 68.6%, finishes at 76.2%, holds until 76.2% */
@keyframes zk10 {
    0%, 68.6% { stroke-dashoffset: 3339; }
    76.2%, 76.2% { stroke-dashoffset: 0; }
    76.3%, 100% { stroke-dashoffset: 3339; }
}
svg.acjk #stroke-p10 { animation-name: zk10; }
]]>
</style>
<defs>
    <path id="p1" d="M 481 97 Q 508 115 536 136 Q 552 146 567 144 Q 577 143 581 128 Q 582 112 570 84 Q 555 54 469 51 Q 453 50 448 53 Q 444 57 447 70 Q 451 80 481 97 Z"/>
    <path id="p2" d="M 694 311 Q 718 260 748 242 Q 766 224 751 206 Q 735 191 684 165 Q 666 156 644 164 Q 527 209 357 229 C 344 232 366 267 378 262 Q 385 259 394 257 Q 508 235 616 213 Q 644 206 656 218 Q 665 228 642 303 C 635 319 687 327 694 311 Z"/>
    <path id="p3" d="M 347 392 Q 357 395 371 392 Q 476 367 704 342 Q 714 341 716 332 Q 716 325 694 311 C 680 300 660 303 642 303 Q 641 302 639 303 Q 480 342 352 360 C 341 362 336 390 347 392 Z"/>
    <path id="p4" d="M 357 229 Q 347 219 331 211 Q 312 199 299 203 Q 286 209 292 224 Q 310 255 298 341 Q 297 344 297 350 Q 273 528 216 652 Q 162 763 73 878 Q 67 884 65 890 Q 61 900 72 899 Q 88 899 132 852 Q 286 710 347 392 C 350 371 350 371 352 360 Q 356 335 362 312 Q 366 293 373 275 Q 377 268 378 262 C 381 249 367 237 357 229 Z"/>
    <path id="p5" d="M 434 851 Q 409 847 385 841 Q 367 837 369 844 Q 420 884 449 916 Q 461 932 474 936 Q 481 939 489 931 Q 525 889 523 843 Q 505 560 528 524 Q 538 508 528 498 Q 510 482 480 469 Q 465 463 419 485 Q 398 492 355 499 Q 342 500 349 507 Q 356 517 369 521 Q 387 525 442 508 Q 458 504 463 512 Q 467 522 469 541 Q 473 712 466 816 Q 465 841 456 851 Q 452 855 434 851 Z"/>
    <path id="p6" d="M 334 601 Q 367 640 393 654 Q 405 657 412 647 Q 416 637 416 624 Q 410 597 345 571 Q 332 567 325 570 Q 321 571 322 580 Q 323 589 334 601 Z"/>
    <path id="p7" d="M 254 770 Q 244 774 245 782 Q 246 794 255 798 Q 277 805 307 814 Q 316 814 323 805 Q 377 751 432 696 Q 441 687 439 680 Q 433 677 333 734 Q 264 767 254 770 Z"/>
    <path id="p8" d="M 725 870 Q 698 864 670 857 Q 651 851 653 861 Q 708 907 741 942 Q 754 960 769 964 Q 778 968 786 959 Q 826 905 820 829 Q 795 529 821 486 Q 833 467 821 457 Q 802 439 766 425 Q 750 418 734 424 Q 677 454 587 461 Q 572 462 581 470 Q 588 480 602 486 Q 621 490 723 468 Q 742 464 747 475 Q 756 505 761 690 Q 761 852 749 869 Q 745 875 725 870 Z"/>
    <path id="p9" d="M 605 589 Q 638 625 668 641 Q 681 642 688 631 Q 692 621 690 607 Q 684 588 669 577 Q 614 550 593 557 Q 589 558 590 568 Q 591 578 605 589 Z"/>
    <path id="p10" d="M 546 764 Q 536 768 538 778 Q 539 790 550 794 Q 572 800 605 806 Q 615 806 622 795 Q 637 770 708 695 Q 718 685 725 673 Q 732 663 731 656 Q 724 652 715 658 Q 576 755 546 764 Z"/>

    <clipPath id="z25159c1"><use href="#p1"/></clipPath>
    <clipPath id="z25159c2"><use href="#p2"/></clipPath>
    <clipPath id="z25159c3"><use href="#p3"/></clipPath>
    <clipPath id="z25159c4"><use href="#p4"/></clipPath>
    <clipPath id="z25159c5"><use href="#p5"/></clipPath>
    <clipPath id="z25159c6"><use href="#p6"/></clipPath>
    <clipPath id="z25159c7"><use href="#p7"/></clipPath>
    <clipPath id="z25159c8"><use href="#p8"/></clipPath>
    <clipPath id="z25159c9"><use href="#p9"/></clipPath>
    <clipPath id="z25159c10"><use href="#p10"/></clipPath>
</defs>
<g id="bg-layer" class="bg">
<use href="#p1"/>
<use href="#p2"/>
<use href="#p3"/>
<use href="#p4"/>
<use href="#p5"/>
<use href="#p6"/>
<use href="#p7"/>
<use href="#p8"/>
<use href="#p9"/>
<use href="#p10"/>
</g>
<g id="anim-layer">
    <path id="stroke-p1" style="stroke:#FF4444" pathLength="3333" clip-path="url(#z25159c1)" d="M 453 57 L 575 133"/>
    <path id="stroke-p2" style="stroke:#FF4444" pathLength="3333" clip-path="url(#z25159c2)" d="M 367 234 L 659 187 L 707 229 L 658 305"/>
    <path id="stroke-p3" style="stroke:#FF4444" pathLength="3333" clip-path="url(#z25159c3)" d="M 352 385 L 711 328"/>
    <path id="stroke-p4" style="stroke:#FF4444" pathLength="3333" clip-path="url(#z25159c4)" d="M 297 207 L 339 274 L 274 572 L 189 750 L 72 892"/>
    <path id="stroke-p5" style="stroke:#000" pathLength="3333" clip-path="url(#z25159c5)" d="M 354 503 L 465 488 L 499 516 L 487 868 L 463 894 L 377 846"/>
    <path id="stroke-p6" style="stroke:#000" pathLength="3333" clip-path="url(#z25159c6)" d="M 331 577 L 407 645"/>
    <path id="stroke-p7" style="stroke:#000" pathLength="3333" clip-path="url(#z25159c7)" d="M 251 777 L 303 783 L 431 688"/>
    <path id="stroke-p8" style="stroke:#000" pathLength="3333" clip-path="url(#z25159c8)" d="M 587 466 L 743 444 L 788 478 L 779 891 L 750 917 L 657 861"/>
    <path id="stroke-p9" style="stroke:#000" pathLength="3333" clip-path="url(#z25159c9)" d="M 599 564 L 683 633"/>
    <path id="stroke-p10" style="stroke:#000" pathLength="3333" clip-path="url(#z25159c10)" d="M 544 780 L 604 770 L 722 661"/>
</g>
</svg>