<svg id="z25239" class="acjk" viewBox="0 0 1024 1024" xmlns="http://www.w3.org/2000/svg">
<style>
<![CDATA[
svg.acjk path[clip-path] {
    animation-duration: 8.100000000000001s;
    animation-timing-function: linear;
    animation-iteration-count: infinite;
    stroke-dasharray: 3337;
    stroke-dashoffset: 3339;
    stroke-width: 128;
    stroke-linecap: round;
    fill: none;
    stroke: #FF4444;
}
svg.acjk .bg { fill: #ccc; opacity: 0.5; }

/* Stroke 1: Starts at 0.0%, finishes at 9.9%, holds until 69.1% */
@keyframes zk1 {
    0%, 0.0% { stroke-dashoffset: 3339; }
    9.9%, 69.1% { stroke-dashoffset: 0; }
    69.2%, 100% { stroke-dashoffset: 3339; }
}
svg.acjk #stroke-p1 { animation-name: zk1; }
/* Stroke 2: Starts at 9.9%, finishes at 19.8%, holds until 69.1% */
@keyframes zk2 {
    0%, 9.9% { stroke-dashoffset: 3339; }
    19.8%, 69.1% { stroke-dashoffset: 0; }
    69.2%, 100% { stroke-dashoffset: 3339; }
}
svg.acjk #stroke-p2 { animation-name: zk2; }
/* Stroke 3: Starts at 19.8%, finishes at 29.6%, holds until 69.1% */
@keyframes zk3 {
    0%, 19.8% { stroke-dashoffset: 3339; }
    29.6%, 69.1% { stroke-dashoffset: 0; }
    69.2%, 100% { stroke-dashoffset: 3339; }
}
svg.acjk #stroke-p3 { animation-name: zk3; }
/* Stroke 4: Starts at 29.6%, finishes at 39.5%, holds until 69.1% */
@keyframes zk4 {
    0%, 29.6% { stroke-dashoffset: 3339; }
    39.5%, 69.1% { stroke-dashoffset: 0; }
    69.2%, 100% { stroke-dashoffset: 3339; }
}
svg.acjk #stroke-p4 { animation-name: zk4; }
/* Stroke 5: Starts at 39.5%, finishes at 49.4%, holds until 69.1% */
@keyframes zk5 {
    0%, 39.5% { stroke-dashoffset: 3339; }
    49.4%, 69.1% { stroke-dashoffset: 0; }
    69.2%, 100% { stroke-dashoffset: 3339; }
}
svg.acjk #stroke-p5 { animation-name: zk5; }
/* Stroke 6: Starts at 49.4%, finishes at 59.3%, holds until 69.1% */
@keyframes zk6 {
    0%, 49.4% { stroke-dashoffset: 3339; }
    59.3%, 69.1% { stroke-dashoffset: 0; }
    69.2%, 100% { stroke-dashoffset: 3339; }
}
svg.acjk #stroke-p6 { animation-name: zk6; }
/* Stroke 7: Starts at 59.3%, finishes at 69.1%, holds until 69.1% */
@keyframes zk7 {
    0%, 59.3% { stroke-dashoffset: 3339; }
    69.1%, 69.1% { stroke-dashoffset: 0; }
    69.2%, 100% { stroke-dashoffset: 3339; }
}
svg.acjk #stroke-p7 { animation-name: zk7; }
]]>
</style>
<defs>
    <path id="p1" d="M 330 356 Q 415 326 418 323 Q 425 314 420 307 Q 413 297 383 292 Q 356 289 332 301 C 298 316 298 316 281 324 Q 197 352 133 367 Q 99 377 126 390 Q 171 409 221 390 Q 249 381 280 372 C 313 361 313 361 330 356 Z"/>
    <path id="p2" d="M 274 568 Q 273 656 270 765 Q 269 789 256 798 Q 247 802 189 790 Q 156 777 159 787 Q 160 794 180 810 Q 238 861 252 888 Q 268 921 283 923 Q 298 924 313 889 Q 332 844 331 771 Q 325 647 326 525 C 326 500 326 500 326 488 Q 326 421 330 356 C 331 319 331 319 332 301 Q 332 210 354 136 Q 370 106 316 83 Q 283 64 263 70 Q 247 77 261 100 Q 282 127 283 161 Q 284 179 281 324 C 280 356 280 356 280 372 Q 279 435 276 519 C 275 552 275 552 274 568 Z"/>
    <path id="p3" d="M 276 519 Q 188 573 110 626 Q 74 648 50 657 Q 37 664 35 672 Q 34 682 50 696 Q 71 712 96 719 Q 112 723 123 710 Q 198 629 274 568 C 309 539 309 539 326 525 Q 350 504 373 487 Q 395 474 405 457 Q 411 442 399 444 Q 390 444 326 488 C 293 509 293 509 276 519 Z"/>
    <path id="p4" d="M 596 153 Q 627 175 661 203 Q 677 216 696 213 Q 708 212 712 196 Q 716 178 702 146 Q 693 124 658 113 Q 577 92 560 100 Q 554 106 558 120 Q 562 133 596 153 Z"/>
    <path id="p5" d="M 469 346 Q 432 353 459 370 Q 504 394 559 379 Q 671 354 790 326 Q 844 313 851 305 Q 860 296 855 288 Q 848 276 818 269 Q 787 263 757 276 Q 696 298 629 317 Q 556 336 469 346 Z"/>
    <path id="p6" d="M 533 488 Q 500 464 476 476 Q 464 482 471 494 Q 501 533 482 653 Q 455 761 387 811 Q 374 823 362 834 Q 352 844 362 845 Q 410 839 465 780 Q 532 711 537 607 Q 546 526 551 518 C 555 507 542 495 533 488 Z"/>
    <path id="p7" d="M 551 518 Q 572 517 589 506 Q 608 497 630 489 Q 646 482 652 489 Q 658 493 656 513 Q 629 645 639 714 Q 639 780 704 847 Q 749 883 854 879 Q 915 878 966 852 Q 991 836 977 808 Q 946 738 938 658 Q 934 648 928 648 Q 924 648 917 663 Q 898 783 875 798 Q 836 819 752 806 Q 737 802 730 793 Q 700 768 689 710 Q 677 650 700 569 Q 713 521 741 495 Q 774 468 691 438 Q 664 428 648 439 Q 617 461 533 488 C 522 492 539 518 551 518 Z"/>

    <clipPath id="z25239c1"><use href="#p1"/></clipPath>
    <clipPath id="z25239c2"><use href="#p2"/></clipPath>
    <clipPath id="z25239c3"><use href="#p3"/></clipPath>
    <clipPath id="z25239c4"><use href="#p4"/></clipPath>
    <clipPath id="z25239c5"><use href="#p5"/></clipPath>
    <clipPath id="z25239c6"><use href="#p6"/></clipPath>
    <clipPath id="z25239c7"><use href="#p7"/></clipPath>
</defs>
<g id="bg-layer" class="bg">
<use href="#p1"/>
<use href="#p2"/>
<use href="#p3"/>
<use href="#p4"/>
<use href="#p5"/>
<use href="#p6"/>
<use href="#p7"/>
</g>
<g id="anim-layer">
    <path id="stroke-p1" style="stroke:#FF4444" pathLength="3333" clip-path="url(#z25239c1)" d="M 126 379 L 415 313"/>
    <path id="stroke-p2" style="stroke:#FF4444" pathLength="3333" clip-path="url(#z25239c2)" d="M 261 77 L 319 135 L 299 784 L 272 870 L 168 790"/>
    <path id="stroke-p3" style="stroke:#FF4444" pathLength="3333" clip-path="url(#z25239c3)" d="M 43 671 L 100 678 L 402 451"/>
    <path id="stroke-p4" style="stroke:#000" pathLength="3333" clip-path="url(#z25239c4)" d="M 562 110 L 665 157 L 705 204"/>
    <path id="stroke-p5" style="stroke:#000" pathLength="3333" clip-path="url(#z25239c5)" d="M 454 355 L 512 363 L 852 294"/>
    <path id="stroke-p6" style="stroke:#000" pathLength="3333" clip-path="url(#z25239c6)" d="M 475 485 L 519 526 L 502 672 L 447 774 L 365 840"/>
    <path id="stroke-p7" style="stroke:#000" pathLength="3333" clip-path="url(#z25239c7)" d="M 541 492 L 661 461 L 703 486 L 661 691 L 686 782 L 736 832 L 855 843 L 932 811 L 926 655"/>
</g>
</svg>