<svg id="z25284" class="acjk" viewBox="0 0 1024 1024" xmlns="http://www.w3.org/2000/svg">
<style>
<![CDATA[
svg.acjk path[clip-path] {
    animation-duration: 8.9s;
    animation-timing-function: linear;
    animation-iteration-count: infinite;
    stroke-dasharray: 3337;
    stroke-dashoffset: 3339;
    stroke-width: 128;
    stroke-linecap: round;
    fill: none;
    stroke: #FF4444;
}
svg.acjk .bg { fill: #ccc; opacity: 0.5; }

/* Stroke 1: Starts at 0.0%, finishes at 9.0%, holds until 71.9% */
@keyframes zk1 {
    0%, 0.0% { stroke-dashoffset: 3339; }
    9.0%, 71.9% { stroke-dashoffset: 0; }
    72.0%, 100% { stroke-dashoffset: 3339; }
}
svg.acjk #stroke-p1 { animation-name: zk1; }
/* Stroke 2: Starts at 9.0%, finishes at 18.0%, holds until 71.9% */
@keyframes zk2 {
    0%, 9.0% { stroke-dashoffset: 3339; }
    18.0%, 71.9% { stroke-dashoffset: 0; }
    72.0%, 100% { stroke-dashoffset: 3339; }
}
svg.acjk #stroke-p2 { animation-name: zk2; }
/* Stroke 3: Starts at 18.0%, finishes at 27.0%, holds until 71.9% */
@keyframes zk3 {
    0%, 18.0% { stroke-dashoffset: 3339; }
    27.0%, 71.9% { stroke-dashoffset: 0; }
    72.0%, 100% { stroke-dashoffset: 3339; }
}
svg.acjk #stroke-p3 { animation-name: zk3; }
/* Stroke 4: Starts at 27.0%, finishes at 36.0%, holds until 71.9% */
@keyframes zk4 {
    0%, 27.0% { stroke-dashoffset: 3339; }
    36.0%, 71.9% { stroke-dashoffset: 0; }
    72.0%, 100% { stroke-dashoffset: 3339; }
}
svg.acjk #stroke-p4 { animation-name: zk4; }
/* Stroke 5: Starts at 36.0%, finishes at 44.9%, holds until 71.9% */
@keyframes zk5 {
    0%, 36.0% { stroke-dashoffset: 3339; }
    44.9%, 71.9% { stroke-dashoffset: 0; }
    72.0%, 100% { stroke-dashoffset: 3339; }
}
svg.acjk #stroke-p5 { animation-name: zk5; }
/* Stroke 6: Starts at 44.9%, finishes at 53.9%, holds until 71.9% */
@keyframes zk6 {
    0%, 44.9% { stroke-dashoffset: 3339; }
    53.9%, 71.9% { stroke-dashoffset: 0; }
    72.0%, 100% { stroke-dashoffset: 3339; }
}
svg.acjk #stroke-p6 { animation-name: zk6; }
/* Stroke 7: Starts at 53.9%, finishes at 62.9%, holds until 71.9% */
@keyframes zk7 {
    0%, 53.9% { stroke-dashoffset: 3339; }
    62.9%, 71.9% { stroke-dashoffset: 0; }
    72.0%, 100% { stroke-dashoffset: 3339; }
}
svg.acjk #stroke-p7 { animation-name: zk7; }
/* Stroke 8: Starts at 62.9%, finishes at 71.9%, holds until 71.9% */
@keyframes zk8 {
    0%, 62.9% { stroke-dashoffset: 3339; }
    71.9%, 71.9% { stroke-dashoffset: 0; }
    72.0%, 100% { stroke-dashoffset: 3339; }
}
svg.acjk #stroke-p8 { animation-name: zk8; }
]]>
</style>
<defs>
    <path id="p1" d="M 343 371 Q 364 364 386 359 Q 423 349 428 343 Q 437 336 432 327 Q 425 317 396 310 Q 368 306 344 317 C 313 329 313 329 297 335 Q 216 359 139 372 Q 105 379 130 394 Q 175 415 225 400 Q 259 391 297 382 C 328 375 328 375 343 371 Z"/>
    <path id="p2" d="M 293 576 Q 292 657 291 756 Q 290 780 277 788 Q 268 795 248 788 Q 223 782 200 777 Q 169 765 171 775 Q 172 782 191 796 Q 255 845 271 874 Q 290 907 305 908 Q 318 909 333 876 Q 351 833 349 761 Q 342 650 341 539 C 341 518 341 518 341 507 Q 340 440 343 371 C 344 335 344 335 344 317 Q 351 179 365 137 Q 381 109 328 87 Q 297 69 277 75 Q 261 82 276 104 Q 295 129 297 162 Q 298 180 297 335 C 297 366 297 366 297 382 Q 296 446 294 534 C 293 562 293 562 293 576 Z"/>
    <path id="p3" d="M 341 539 Q 363 521 385 507 Q 407 494 417 480 Q 423 467 412 468 Q 402 469 380 485 Q 361 495 341 507 C 310 525 310 525 294 534 Q 209 583 132 631 Q 99 650 77 657 Q 65 663 63 670 Q 62 679 76 692 Q 95 707 117 715 Q 132 719 142 707 Q 208 641 293 576 C 325 551 325 551 341 539 Z"/>
    <path id="p4" d="M 606 170 Q 639 195 673 225 Q 689 238 707 237 Q 720 236 724 220 Q 728 202 716 169 Q 709 147 672 133 Q 590 109 572 116 Q 566 122 569 136 Q 573 149 606 170 Z"/>
    <path id="p5" d="M 657 374 Q 811 344 822 339 Q 832 330 827 321 Q 820 308 788 299 Q 764 293 646 325 Q 546 344 484 349 Q 444 353 472 373 Q 512 398 590 384 Q 597 383 607 382 C 640 377 640 377 657 374 Z"/>
    <path id="p6" d="M 672 572 Q 712 565 755 560 Q 792 553 797 549 Q 807 542 803 532 Q 796 519 766 511 Q 736 504 673 522 C 639 529 639 529 622 533 Q 621 532 619 533 Q 570 540 512 543 Q 475 547 500 566 Q 545 593 602 582 Q 609 581 623 579 C 656 574 656 574 672 572 Z"/>
    <path id="p7" d="M 667 741 Q 668 650 672 572 C 673 539 673 539 673 522 Q 676 393 677 393 Q 667 381 657 374 C 644 363 601 366 607 382 Q 622 419 622 533 C 623 564 623 564 623 579 Q 623 646 623 746 C 623 761 667 756 667 741 Z"/>
    <path id="p8" d="M 623 746 Q 514 756 390 769 Q 368 770 383 789 Q 398 804 416 810 Q 438 816 455 812 Q 668 761 927 782 Q 928 781 932 782 Q 953 782 958 773 Q 964 761 947 746 Q 893 704 855 712 Q 785 725 667 741 C 638 744 638 744 623 746 Z"/>

    <clipPath id="z25284c1"><use href="#p1"/></clipPath>
    <clipPath id="z25284c2"><use href="#p2"/></clipPath>
    <clipPath id="z25284c3"><use href="#p3"/></clipPath>
    <clipPath id="z25284c4"><use href="#p4"/></clipPath>
    <clipPath id="z25284c5"><use href="#p5"/></clipPath>
    <clipPath id="z25284c6"><use href="#p6"/></clipPath>
    <clipPath id="z25284c7"><use href="#p7"/></clipPath>
    <clipPath id="z25284c8"><use href="#p8"/></clipPath>
</defs>
<g id="bg-layer" class="bg">
<use href="#p1"/>
<use href="#p2"/>
<use href="#p3"/>
<use href="#p4"/>
<use href="#p5"/>
<use href="#p6"/>
<use href="#p7"/>
<use href="#p8"/>
</g>
<g id="anim-layer">
    <path id="stroke-p1" style="stroke:#FF4444" pathLength="3333" clip-path="url(#z25284c1)" d="M 129 382 L 430 331"/>
    <path id="stroke-p2" style="stroke:#FF4444" pathLength="3333" clip-path="url(#z25284c2)" d="M 275 80 L 331 133 L 319 779 L 287 857 L 179 776"/>
    <path id="stroke-p3" style="stroke:#FF4444" pathLength="3333" clip-path="url(#z25284c3)" d="M 68 670 L 123 677 L 410 474"/>
    <path id="stroke-p4" style="stroke:#000" pathLength="3333" clip-path="url(#z25284c4)" d="M 574 126 L 666 170 L 715 230"/>
    <path id="stroke-p5" style="stroke:#000" pathLength="3333" clip-path="url(#z25284c5)" d="M 468 358 L 544 366 L 824 324"/>
    <path id="stroke-p6" style="stroke:#000" pathLength="3333" clip-path="url(#z25284c6)" d="M 502 556 L 799 531"/>
    <path id="stroke-p7" style="stroke:#000" pathLength="3333" clip-path="url(#z25284c7)" d="M 615 386 L 646 413 L 637 743"/>
    <path id="stroke-p8" style="stroke:#000" pathLength="3333" clip-path="url(#z25284c8)" d="M 385 779 L 865 744 L 955 766"/>
</g>
</svg>