<svg id="z25421" class="acjk" viewBox="0 0 1024 1024" xmlns="http://www.w3.org/2000/svg">
<style>
<![CDATA[
svg.acjk path[clip-path] {
    animation-duration: 10.5s;
    animation-timing-function: linear;
    animation-iteration-count: infinite;
    stroke-dasharray: 3337;
    stroke-dashoffset: 3339;
    stroke-width: 128;
    stroke-linecap: round;
    fill: none;
    stroke: #FF4444;
}
svg.acjk .bg { fill: #ccc; opacity: 0.5; }

/* Stroke 1: Starts at 0.0%, finishes at 7.6%, holds until 76.2% */
@keyframes zk1 {
    0%, 0.0% { stroke-dashoffset: 3339; }
    7.6%, 76.2% { stroke-dashoffset: 0; }
    76.3%, 100% { stroke-dashoffset: 3339; }
}
svg.acjk #stroke-p1 { animation-name: zk1; }
/* Stroke 2: Starts at 7.6%, finishes at 15.2%, holds until 76.2% */
@keyframes zk2 {
    0%, 7.6% { stroke-dashoffset: 3339; }
    15.2%, 76.2% { stroke-dashoffset: 0; }
    76.3%, 100% { stroke-dashoffset: 3339; }
}
svg.acjk #stroke-p2 { animation-name: zk2; }
/* Stroke 3: Starts at 15.2%, finishes at 22.9%, holds until 76.2% */
@keyframes zk3 {
    0%, 15.2% { stroke-dashoffset: 3339; }
    22.9%, 76.2% { stroke-dashoffset: 0; }
    76.3%, 100% { stroke-dashoffset: 3339; }
}
svg.acjk #stroke-p3 { animation-name: zk3; }
/* Stroke 4: Starts at 22.9%, finishes at 30.5%, holds until 76.2% */
@keyframes zk4 {
    0%, 22.9% { stroke-dashoffset: 3339; }
    30.5%, 76.2% { stroke-dashoffset: 0; }
    76.3%, 100% { stroke-dashoffset: 3339; }
}
svg.acjk #stroke-p4 { animation-name: zk4; }
/* Stroke 5: Starts at 30.5%, finishes at 38.1%, holds until 76.2% */
@keyframes zk5 {
    0%, 30.5% { stroke-dashoffset: 3339; }
    38.1%, 76.2% { stroke-dashoffset: 0; }
    76.3%, 100% { stroke-dashoffset: 3339; }
}
svg.acjk #stroke-p5 { animation-name: zk5; }
/* Stroke 6: Starts at 38.1%, finishes at 45.7%, holds until 76.2% */
@keyframes zk6 {
    0%, 38.1% { stroke-dashoffset: 3339; }
    45.7%, 76.2% { stroke-dashoffset: 0; }
    76.3%, 100% { stroke-dashoffset: 3339; }
}
svg.acjk #stroke-p6 { animation-name: zk6; }
/* Stroke 7: Starts at 45.7%, finishes at 53.3%, holds until 76.2% */
@keyframes zk7 {
    0%, 45.7% { stroke-dashoffset: 3339; }
    53.3%, 76.2% { stroke-dashoffset: 0; }
    76.3%, 100% { stroke-dashoffset: 3339; }
}
svg.acjk #stroke-p7 { animation-name: zk7; }
/* Stroke 8: Starts at 53.3%, finishes at 61.0%, holds until 76.2% */
@keyframes zk8 {
    0%, 53.3% { stroke-dashoffset: 3339; }
    61.0%, 76.2% { stroke-dashoffset: 0; }
    76.3%, 100% { stroke-dashoffset: 3339; }
}
svg.acjk #stroke-p8 { animation-name: zk8; }
/* Stroke 9: Starts at 61.0%, finishes at 68.6%, holds until 76.2% */
@keyframes zk9 {
    0%, 61.0% { stroke-dashoffset: 3339; }
    68.6%, 76.2% { stroke-dashoffset: 0; }
    76.3%, 100% { stroke-dashoffset: 3339; }
}
svg.acjk #stroke-p9 { animation-name: zk9; }
/* Stroke 10: Starts at 68.6%, finishes at 76.2%, holds until 76.2% */
@keyframes zk10 {
    0%, 68.6% { stroke-dashoffset: 3339; }
    76.2%, 76.2% { stroke-dashoffset: 0; }
    76.3%, 100% { stroke-dashoffset: 3339; }
}
svg.acjk #stroke-p10 { animation-name: zk10; }
]]>
</style>
<defs>
    <path id="p1" d="M 342 322 Q 361 315 384 310 Q 423 298 428 293 Q 437 284 432 276 Q 425 264 394 258 Q 367 254 344 264 C 310 277 310 277 293 284 Q 265 291 240 301 Q 188 316 124 325 Q 87 334 114 349 Q 159 373 215 355 Q 252 345 292 335 C 325 326 325 326 342 322 Z"/>
    <path id="p2" d="M 290 494 Q 289 591 287 719 Q 286 743 273 751 Q 267 754 212 736 Q 181 720 182 731 Q 183 738 201 756 Q 256 811 268 841 Q 281 875 297 878 Q 312 879 328 846 Q 349 800 350 726 Q 341 588 341 451 C 341 430 341 430 341 420 Q 340 371 342 322 C 343 283 343 283 344 264 Q 344 177 362 115 Q 380 85 324 63 Q 290 44 271 51 Q 253 58 269 81 Q 291 108 292 142 Q 293 158 293 284 C 292 318 292 318 292 335 Q 291 387 290 456 C 290 481 290 481 290 494 Z"/>
    <path id="p3" d="M 341 451 Q 351 441 363 433 Q 387 417 397 400 Q 403 387 392 388 Q 373 392 341 420 C 307 444 307 444 290 456 Q 179 529 84 601 Q 53 622 30 630 Q 18 636 17 644 Q 17 653 31 665 Q 50 678 73 685 Q 85 686 105 668 Q 165 599 290 494 C 324 465 324 465 341 451 Z"/>
    <path id="p4" d="M 503 135 Q 490 131 472 127 Q 460 124 457 129 Q 450 135 459 151 Q 490 218 506 329 Q 510 362 528 384 Q 546 406 551 391 Q 554 381 555 367 C 554 350 554 350 554 341 Q 553 331 551 319 Q 547 291 542 269 C 539 253 539 253 538 245 Q 529 188 527 167 C 524 154 516 138 503 135 Z"/>
    <path id="p5" d="M 723 352 Q 738 374 752 383 Q 762 392 779 370 Q 794 349 826 231 Q 836 200 861 175 Q 876 163 864 148 Q 849 130 807 102 Q 788 92 770 98 Q 745 102 708 107 Q 662 113 601 121 Q 546 130 504 134 Q 503 134 503 135 C 490 137 514 167 527 167 Q 533 167 541 166 Q 610 151 730 141 Q 755 140 764 148 Q 776 161 773 176 Q 748 306 729 318 C 721 326 716 343 723 352 Z"/>
    <path id="p6" d="M 542 269 Q 546 270 553 269 Q 638 256 703 247 Q 725 243 717 231 Q 707 218 683 213 Q 655 210 538 245 C 530 248 534 269 542 269 Z"/>
    <path id="p7" d="M 555 367 Q 559 368 568 367 Q 655 357 723 352 C 735 352 740 320 729 318 Q 699 309 554 341 C 545 342 546 367 555 367 Z"/>
    <path id="p8" d="M 666 482 Q 793 460 801 455 Q 811 448 806 440 Q 800 428 772 419 Q 751 413 652 438 Q 564 453 503 457 Q 467 461 492 479 Q 528 503 588 493 Q 592 492 598 492 C 643 485 643 485 666 482 Z"/>
    <path id="p9" d="M 675 627 Q 760 618 882 618 Q 943 621 951 609 Q 957 597 940 583 Q 880 538 808 560 Q 751 569 676 584 C 635 590 635 590 615 593 Q 501 608 373 625 Q 351 626 367 645 Q 398 673 450 662 Q 526 641 615 634 C 655 629 655 629 675 627 Z"/>
    <path id="p10" d="M 669 913 Q 675 858 674 802 Q 673 762 675 627 C 676 598 676 598 676 584 Q 676 572 680 544 Q 687 499 676 488 Q 675 487 674 487 Q 670 484 666 482 C 646 470 589 471 598 492 Q 610 519 615 582 Q 614 586 615 593 C 615 620 615 620 615 634 Q 616 709 616 807 Q 617 957 634 977 Q 640 984 647 982 Q 662 972 669 913 Z"/>

    <clipPath id="z25421c1"><use href="#p1"/></clipPath>
    <clipPath id="z25421c2"><use href="#p2"/></clipPath>
    <clipPath id="z25421c3"><use href="#p3"/></clipPath>
    <clipPath id="z25421c4"><use href="#p4"/></clipPath>
    <clipPath id="z25421c5"><use href="#p5"/></clipPath>
    <clipPath id="z25421c6"><use href="#p6"/></clipPath>
    <clipPath id="z25421c7"><use href="#p7"/></clipPath>
    <clipPath id="z25421c8"><use href="#p8"/></clipPath>
    <clipPath id="z25421c9"><use href="#p9"/></clipPath>
    <clipPath id="z25421c10"><use href="#p10"/></clipPath>
</defs>
<g id="bg-layer" class="bg">
<use href="#p1"/>
<use href="#p2"/>
<use href="#p3"/>
<use href="#p4"/>
<use href="#p5"/>
<use href="#p6"/>
<use href="#p7"/>
<use href="#p8"/>
<use href="#p9"/>
<use href="#p10"/>
</g>
<g id="anim-layer">
    <path id="stroke-p1" style="stroke:#FF4444" pathLength="3333" clip-path="url(#z25421c1)" d="M 109 336 L 175 340 L 429 278"/>
    <path id="stroke-p2" style="stroke:#FF4444" pathLength="3333" clip-path="url(#z25421c2)" d="M 269 60 L 327 109 L 318 733 L 284 824 L 190 733"/>
    <path id="stroke-p3" style="stroke:#FF4444" pathLength="3333" clip-path="url(#z25421c3)" d="M 24 643 L 76 647 L 389 396"/>
    <path id="stroke-p4" style="stroke:#000" pathLength="3333" clip-path="url(#z25421c4)" d="M 461 134 L 501 180 L 542 390"/>
    <path id="stroke-p5" style="stroke:#000" pathLength="3333" clip-path="url(#z25421c5)" d="M 512 138 L 757 120 L 803 140 L 821 167 L 753 380"/>
    <path id="stroke-p6" style="stroke:#000" pathLength="3333" clip-path="url(#z25421c6)" d="M 544 247 L 712 233"/>
    <path id="stroke-p7" style="stroke:#000" pathLength="3333" clip-path="url(#z25421c7)" d="M 558 360 L 725 332"/>
    <path id="stroke-p8" style="stroke:#000" pathLength="3333" clip-path="url(#z25421c8)" d="M 490 467 L 803 443"/>
    <path id="stroke-p9" style="stroke:#000" pathLength="3333" clip-path="url(#z25421c9)" d="M 370 636 L 852 585 L 948 599"/>
    <path id="stroke-p10" style="stroke:#000" pathLength="3333" clip-path="url(#z25421c10)" d="M 607 494 L 646 527 L 643 976"/>
</g>
</svg>