<svg id="z25466" class="acjk" viewBox="0 0 1024 1024" xmlns="http://www.w3.org/2000/svg">
<style>
<![CDATA[
svg.acjk path[clip-path] {
    animation-duration: 11.3s;
    animation-timing-function: linear;
    animation-iteration-count: infinite;
    stroke-dasharray: 3337;
    stroke-dashoffset: 3339;
    stroke-width: 128;
    stroke-linecap: round;
    fill: none;
    stroke: #FF4444;
}
svg.acjk .bg { fill: #ccc; opacity: 0.5; }

/* Stroke 1: Starts at 0.0%, finishes at 7.1%, holds until 77.9% */
@keyframes zk1 {
    0%, 0.0% { stroke-dashoffset: 3339; }
    7.1%, 77.9% { stroke-dashoffset: 0; }
    78.0%, 100% { stroke-dashoffset: 3339; }
}
svg.acjk #stroke-p1 { animation-name: zk1; }
/* Stroke 2: Starts at 7.1%, finishes at 14.2%, holds until 77.9% */
@keyframes zk2 {
    0%, 7.1% { stroke-dashoffset: 3339; }
    14.2%, 77.9% { stroke-dashoffset: 0; }
    78.0%, 100% { stroke-dashoffset: 3339; }
}
svg.acjk #stroke-p2 { animation-name: zk2; }
/* Stroke 3: Starts at 14.2%, finishes at 21.2%, holds until 77.9% */
@keyframes zk3 {
    0%, 14.2% { stroke-dashoffset: 3339; }
    21.2%, 77.9% { stroke-dashoffset: 0; }
    78.0%, 100% { stroke-dashoffset: 3339; }
}
svg.acjk #stroke-p3 { animation-name: zk3; }
/* Stroke 4: Starts at 21.2%, finishes at 28.3%, holds until 77.9% */
@keyframes zk4 {
    0%, 21.2% { stroke-dashoffset: 3339; }
    28.3%, 77.9% { stroke-dashoffset: 0; }
    78.0%, 100% { stroke-dashoffset: 3339; }
}
svg.acjk #stroke-p4 { animation-name: zk4; }
/* Stroke 5: Starts at 28.3%, finishes at 35.4%, holds until 77.9% */
@keyframes zk5 {
    0%, 28.3% { stroke-dashoffset: 3339; }
    35.4%, 77.9% { stroke-dashoffset: 0; }
    78.0%, 100% { stroke-dashoffset: 3339; }
}
svg.acjk #stroke-p5 { animation-name: zk5; }
/* Stroke 6: Starts at 35.4%, finishes at 42.5%, holds until 77.9% */
@keyframes zk6 {
    0%, 35.4% { stroke-dashoffset: 3339; }
    42.5%, 77.9% { stroke-dashoffset: 0; }
    78.0%, 100% { stroke-dashoffset: 3339; }
}
svg.acjk #stroke-p6 { animation-name: zk6; }
/* Stroke 7: Starts at 42.5%, finishes at 49.6%, holds until 77.9% */
@keyframes zk7 {
    0%, 42.5% { stroke-dashoffset: 3339; }
    49.6%, 77.9% { stroke-dashoffset: 0; }
    78.0%, 100% { stroke-dashoffset: 3339; }
}
svg.acjk #stroke-p7 { animation-name: zk7; }
/* Stroke 8: Starts at 49.6%, finishes at 56.6%, holds until 77.9% */
@keyframes zk8 {
    0%, 49.6% { stroke-dashoffset: 3339; }
    56.6%, 77.9% { stroke-dashoffset: 0; }
    78.0%, 100% { stroke-dashoffset: 3339; }
}
svg.acjk #stroke-p8 { animation-name: zk8; }
/* Stroke 9: Starts at 56.6%, finishes at 63.7%, holds until 77.9% */
@keyframes zk9 {
    0%, 56.6% { stroke-dashoffset: 3339; }
    63.7%, 77.9% { stroke-dashoffset: 0; }
    78.0%, 100% { stroke-dashoffset: 3339; }
}
svg.acjk #stroke-p9 { animation-name: zk9; }
/* Stroke 10: Starts at 63.7%, finishes at 70.8%, holds until 77.9% */
@keyframes zk10 {
    0%, 63.7% { stroke-dashoffset: 3339; }
    70.8%, 77.9% { stroke-dashoffset: 0; }
    78.0%, 100% { stroke-dashoffset: 3339; }
}
svg.acjk #stroke-p10 { animation-name: zk10; }
/* Stroke 11: Starts at 70.8%, finishes at 77.9%, holds until 77.9% */
@keyframes zk11 {
    0%, 70.8% { stroke-dashoffset: 3339; }
    77.9%, 77.9% { stroke-dashoffset: 0; }
    78.0%, 100% { stroke-dashoffset: 3339; }
}
svg.acjk #stroke-p11 { animation-name: zk11; }
]]>
</style>
<defs>
    <path id="p1" d="M 306 393 Q 375 368 377 367 Q 384 360 380 351 Q 373 341 343 336 Q 324 333 308 338 C 277 351 277 351 261 357 Q 237 364 214 374 Q 171 387 122 395 Q 88 404 114 418 Q 148 433 218 417 Q 236 411 260 406 C 291 397 291 397 306 393 Z"/>
    <path id="p2" d="M 257 577 Q 254 665 253 775 Q 252 797 239 806 Q 236 810 180 811 Q 149 801 151 811 Q 152 818 173 831 Q 227 871 241 895 Q 257 923 270 923 Q 283 924 297 891 Q 313 848 309 778 Q 303 657 303 537 C 303 516 303 516 303 505 Q 303 447 306 393 C 307 356 307 356 308 338 Q 308 235 328 170 Q 344 142 292 119 Q 261 100 241 107 Q 225 113 239 135 Q 260 162 261 194 Q 262 210 261 357 C 260 390 260 390 260 406 Q 259 461 257 535 C 257 563 257 563 257 577 Z"/>
    <path id="p3" d="M 257 535 Q 182 580 117 625 Q 84 646 63 654 Q 51 660 50 668 Q 49 677 63 689 Q 82 702 105 709 Q 115 712 135 694 Q 174 649 257 577 C 288 550 288 550 303 537 Q 316 524 331 514 Q 349 501 357 488 Q 363 475 352 476 Q 351 476 303 505 C 272 525 272 525 257 535 Z"/>
    <path id="p4" d="M 654 304 Q 676 298 798 282 Q 808 283 817 270 Q 818 258 795 249 Q 762 225 701 248 Q 629 263 601 273 C 563 280 563 280 544 284 Q 523 284 428 299 Q 400 303 422 320 Q 434 330 448 338 Q 461 345 483 339 Q 502 335 526 330 C 566 322 566 322 586 318 Q 605 314 627 309 C 645 306 645 306 654 304 Z"/>
    <path id="p5" d="M 601 273 Q 611 239 621 198 Q 628 167 642 135 Q 649 125 641 115 Q 634 105 600 92 Q 576 83 567 87 Q 554 93 558 108 Q 574 183 544 284 C 532 315 532 315 526 330 Q 463 453 357 570 Q 350 574 345 582 Q 338 591 346 593 Q 353 594 364 588 Q 431 548 482 489 Q 536 435 563 370 Q 575 346 586 318 C 596 288 596 288 601 273 Z"/>
    <path id="p6" d="M 627 309 Q 640 336 783 493 Q 822 535 972 512 Q 990 511 991 506 Q 994 500 980 494 Q 827 434 797 416 Q 794 413 792 412 Q 735 376 654 304 C 647 298 623 301 627 309 Z"/>
    <path id="p7" d="M 503 503 Q 469 510 494 526 Q 534 544 601 528 Q 640 519 683 508 Q 705 502 708 499 Q 717 492 712 483 Q 705 473 676 467 Q 646 463 618 476 Q 593 485 567 492 Q 537 499 503 503 Z"/>
    <path id="p8" d="M 616 633 Q 674 623 771 619 Q 814 619 821 610 Q 825 600 810 588 Q 758 552 702 575 Q 657 584 593 600 Q 514 615 422 632 Q 404 635 418 649 Q 448 671 478 663 Q 524 648 577 640 C 603 635 603 635 616 633 Z"/>
    <path id="p9" d="M 577 640 Q 589 673 589 775 Q 589 820 584 831 Q 581 844 555 843 Q 533 840 507 837 Q 497 837 495 844 Q 494 848 504 857 Q 565 900 586 928 Q 601 940 611 937 Q 621 933 631 901 Q 646 870 642 812 Q 638 731 640 702 Q 647 665 630 645 Q 623 638 616 633 C 606 625 572 628 577 640 Z"/>
    <path id="p10" d="M 464 718 Q 440 757 410 791 Q 388 816 399 851 Q 403 867 425 859 Q 471 834 481 773 Q 490 745 486 720 Q 482 713 477 710 Q 470 711 464 718 Z"/>
    <path id="p11" d="M 721 734 Q 761 771 810 823 Q 826 842 841 846 Q 850 847 857 837 Q 869 824 856 781 Q 846 739 783 721 Q 743 708 722 704 Q 713 698 711 711 Q 711 724 721 734 Z"/>

    <clipPath id="z25466c1"><use href="#p1"/></clipPath>
    <clipPath id="z25466c2"><use href="#p2"/></clipPath>
    <clipPath id="z25466c3"><use href="#p3"/></clipPath>
    <clipPath id="z25466c4"><use href="#p4"/></clipPath>
    <clipPath id="z25466c5"><use href="#p5"/></clipPath>
    <clipPath id="z25466c6"><use href="#p6"/></clipPath>
    <clipPath id="z25466c7"><use href="#p7"/></clipPath>
    <clipPath id="z25466c8"><use href="#p8"/></clipPath>
    <clipPath id="z25466c9"><use href="#p9"/></clipPath>
    <clipPath id="z25466c10"><use href="#p10"/></clipPath>
    <clipPath id="z25466c11"><use href="#p11"/></clipPath>
</defs>
<g id="bg-layer" class="bg">
<use href="#p1"/>
<use href="#p2"/>
<use href="#p3"/>
<use href="#p4"/>
<use href="#p5"/>
<use href="#p6"/>
<use href="#p7"/>
<use href="#p8"/>
<use href="#p9"/>
<use href="#p10"/>
<use href="#p11"/>
</g>
<g id="anim-layer">
    <path id="stroke-p1" style="stroke:#FF4444" pathLength="3333" clip-path="url(#z25466c1)" d="M 111 407 L 376 357"/>
    <path id="stroke-p2" style="stroke:#FF4444" pathLength="3333" clip-path="url(#z25466c2)" d="M 240 119 L 294 163 L 281 788 L 252 872 L 158 812"/>
    <path id="stroke-p3" style="stroke:#FF4444" pathLength="3333" clip-path="url(#z25466c3)" d="M 58 669 L 105 673 L 352 483"/>
    <path id="stroke-p4" style="stroke:#000" pathLength="3333" clip-path="url(#z25466c4)" d="M 420 307 L 472 317 L 733 264 L 808 269"/>
    <path id="stroke-p5" style="stroke:#000" pathLength="3333" clip-path="url(#z25466c5)" d="M 564 95 L 603 142 L 555 326 L 487 446 L 350 587"/>
    <path id="stroke-p6" style="stroke:#000" pathLength="3333" clip-path="url(#z25466c6)" d="M 638 313 L 813 468 L 982 502"/>
    <path id="stroke-p7" style="stroke:#000" pathLength="3333" clip-path="url(#z25466c7)" d="M 492 512 L 704 491"/>
    <path id="stroke-p8" style="stroke:#000" pathLength="3333" clip-path="url(#z25466c8)" d="M 421 642 L 815 597"/>
    <path id="stroke-p9" style="stroke:#000" pathLength="3333" clip-path="url(#z25466c9)" d="M 586 644 L 614 682 L 611 855 L 587 890 L 501 846"/>
    <path id="stroke-p10" style="stroke:#000" pathLength="3333" clip-path="url(#z25466c10)" d="M 474 721 L 403 853"/>
    <path id="stroke-p11" style="stroke:#000" pathLength="3333" clip-path="url(#z25466c11)" d="M 718 711 L 804 766 L 846 839"/>
</g>
</svg>