<svg id="z25475" class="acjk" viewBox="0 0 1024 1024" xmlns="http://www.w3.org/2000/svg">
<style>
<![CDATA[
svg.acjk path[clip-path] {
    animation-duration: 11.3s;
    animation-timing-function: linear;
    animation-iteration-count: infinite;
    stroke-dasharray: 3337;
    stroke-dashoffset: 3339;
    stroke-width: 128;
    stroke-linecap: round;
    fill: none;
    stroke: #FF4444;
}
svg.acjk .bg { fill: #ccc; opacity: 0.5; }

/* Stroke 1: Starts at 0.0%, finishes at 7.1%, holds until 77.9% */
@keyframes zk1 {
    0%, 0.0% { stroke-dashoffset: 3339; }
    7.1%, 77.9% { stroke-dashoffset: 0; }
    78.0%, 100% { stroke-dashoffset: 3339; }
}
svg.acjk #stroke-p1 { animation-name: zk1; }
/* Stroke 2: Starts at 7.1%, finishes at 14.2%, holds until 77.9% */
@keyframes zk2 {
    0%, 7.1% { stroke-dashoffset: 3339; }
    14.2%, 77.9% { stroke-dashoffset: 0; }
    78.0%, 100% { stroke-dashoffset: 3339; }
}
svg.acjk #stroke-p2 { animation-name: zk2; }
/* Stroke 3: Starts at 14.2%, finishes at 21.2%, holds until 77.9% */
@keyframes zk3 {
    0%, 14.2% { stroke-dashoffset: 3339; }
    21.2%, 77.9% { stroke-dashoffset: 0; }
    78.0%, 100% { stroke-dashoffset: 3339; }
}
svg.acjk #stroke-p3 { animation-name: zk3; }
/* Stroke 4: Starts at 21.2%, finishes at 28.3%, holds until 77.9% */
@keyframes zk4 {
    0%, 21.2% { stroke-dashoffset: 3339; }
    28.3%, 77.9% { stroke-dashoffset: 0; }
    78.0%, 100% { stroke-dashoffset: 3339; }
}
svg.acjk #stroke-p4 { animation-name: zk4; }
/* Stroke 5: Starts at 28.3%, finishes at 35.4%, holds until 77.9% */
@keyframes zk5 {
    0%, 28.3% { stroke-dashoffset: 3339; }
    35.4%, 77.9% { stroke-dashoffset: 0; }
    78.0%, 100% { stroke-dashoffset: 3339; }
}
svg.acjk #stroke-p5 { animation-name: zk5; }
/* Stroke 6: Starts at 35.4%, finishes at 42.5%, holds until 77.9% */
@keyframes zk6 {
    0%, 35.4% { stroke-dashoffset: 3339; }
    42.5%, 77.9% { stroke-dashoffset: 0; }
    78.0%, 100% { stroke-dashoffset: 3339; }
}
svg.acjk #stroke-p6 { animation-name: zk6; }
/* Stroke 7: Starts at 42.5%, finishes at 49.6%, holds until 77.9% */
@keyframes zk7 {
    0%, 42.5% { stroke-dashoffset: 3339; }
    49.6%, 77.9% { stroke-dashoffset: 0; }
    78.0%, 100% { stroke-dashoffset: 3339; }
}
svg.acjk #stroke-p7 { animation-name: zk7; }
/* Stroke 8: Starts at 49.6%, finishes at 56.6%, holds until 77.9% */
@keyframes zk8 {
    0%, 49.6% { stroke-dashoffset: 3339; }
    56.6%, 77.9% { stroke-dashoffset: 0; }
    78.0%, 100% { stroke-dashoffset: 3339; }
}
svg.acjk #stroke-p8 { animation-name: zk8; }
/* Stroke 9: Starts at 56.6%, finishes at 63.7%, holds until 77.9% */
@keyframes zk9 {
    0%, 56.6% { stroke-dashoffset: 3339; }
    63.7%, 77.9% { stroke-dashoffset: 0; }
    78.0%, 100% { stroke-dashoffset: 3339; }
}
svg.acjk #stroke-p9 { animation-name: zk9; }
/* Stroke 10: Starts at 63.7%, finishes at 70.8%, holds until 77.9% */
@keyframes zk10 {
    0%, 63.7% { stroke-dashoffset: 3339; }
    70.8%, 77.9% { stroke-dashoffset: 0; }
    78.0%, 100% { stroke-dashoffset: 3339; }
}
svg.acjk #stroke-p10 { animation-name: zk10; }
/* Stroke 11: Starts at 70.8%, finishes at 77.9%, holds until 77.9% */
@keyframes zk11 {
    0%, 70.8% { stroke-dashoffset: 3339; }
    77.9%, 77.9% { stroke-dashoffset: 0; }
    78.0%, 100% { stroke-dashoffset: 3339; }
}
svg.acjk #stroke-p11 { animation-name: zk11; }
]]>
</style>
<defs>
    <path id="p1" d="M 326 330 C 379 313 405 300 406 299 C 411 293 410 287 408 283 C 402 276 390 271 371 269 C 354 266 340 269 327 275 C 294 290 294 290 277 297 C 247 310 178 328 137 339 C 114 344 110 354 129 362 C 169 378 193 370 277 345 C 310 335 310 335 326 330 Z"/>
    <path id="p2" d="M 274 501 C 272 571 273 651 272 742 C 271 758 267 770 258 776 C 256 777 233 775 196 764 C 173 757 165 751 166 759 C 166 762 173 770 186 783 C 223 818 246 846 254 866 C 263 887 271 901 283 903 C 291 904 304 893 314 870 C 327 839 335 799 334 750 C 329 651 324 553 324 455 C 324 445 324 435 324 425 C 324 393 325 361 326 330 C 327 293 327 293 327 275 C 328 180 338 123 347 103 C 356 82 342 67 308 51 C 283 40 267 34 255 39 C 243 43 241 53 253 69 C 267 86 275 106 276 130 C 276 141 277 197 277 297 C 277 313 277 329 277 345 C 277 377 276 415 275 459 C 274 487 274 487 274 501 Z"/>
    <path id="p3" d="M 275 459 C 199 511 135 570 58 606 C 49 609 45 615 45 621 C 44 627 48 634 59 642 C 70 651 84 656 102 660 C 111 662 119 658 126 651 C 169 598 220 550 274 501 C 307 470 307 470 324 455 C 330 448 367 418 373 408 C 377 399 375 395 368 396 C 362 396 348 408 324 425 C 291 448 291 448 275 459 Z"/>
    <path id="p4" d="M 776 282 C 792 214 813 171 837 149 C 849 137 848 123 838 113 C 828 103 804 92 769 78 C 757 73 743 73 730 80 C 675 105 605 127 519 141 C 508 142 502 145 505 152 C 506 157 514 161 526 165 C 542 171 561 168 583 162 C 629 149 675 140 719 130 C 729 127 737 127 743 132 C 751 138 754 149 752 164 C 745 204 737 240 729 273 C 726 289 773 298 776 282 Z"/>
    <path id="p5" d="M 522 240 C 511 243 512 248 526 257 C 532 261 542 261 555 259 C 615 246 667 235 712 227 C 726 224 731 219 725 211 C 718 202 707 195 691 194 C 674 192 618 209 522 240 Z"/>
    <path id="p6" d="M 729 273 C 704 281 569 314 505 326 C 492 328 489 334 498 344 C 507 354 520 358 536 354 C 588 340 670 324 782 309 C 788 308 792 305 792 299 C 792 295 786 289 776 282 C 762 274 745 270 729 273 Z"/>
    <path id="p7" d="M 446 415 C 446 408 443 387 434 389 C 429 389 425 391 424 396 C 412 425 398 453 383 481 C 371 502 373 519 383 534 C 387 542 395 545 405 538 C 430 519 443 487 445 447 C 446 426 446 426 446 415 Z"/>
    <path id="p8" d="M 633 421 C 699 408 764 397 829 389 C 849 386 861 388 862 398 C 862 405 852 428 833 461 C 820 482 829 486 851 473 C 900 442 933 422 954 418 C 968 414 976 409 976 402 C 975 393 951 375 906 350 C 891 342 876 341 859 346 C 740 373 602 397 446 415 C 435 417 435 444 445 447 C 455 453 473 453 499 447 C 526 440 555 435 584 430 C 617 424 617 424 633 421 Z"/>
    <path id="p9" d="M 510 538 C 499 527 483 521 464 525 C 456 526 454 531 458 538 C 458 540 461 543 463 549 C 475 579 474 633 465 676 C 461 693 453 708 468 740 C 472 749 484 764 492 759 C 508 747 516 710 517 648 C 517 611 517 586 519 573 C 521 561 520 545 510 538 Z"/>
    <path id="p10" d="M 661 546 C 691 540 716 536 735 534 C 769 529 779 552 779 577 C 778 597 778 618 779 643 C 779 658 776 672 771 680 C 768 683 751 684 721 679 C 709 677 703 675 699 679 C 696 681 699 685 708 694 C 736 719 757 744 773 766 C 779 773 788 776 799 773 C 805 770 811 761 818 747 C 829 723 835 697 835 670 C 834 605 835 563 843 543 C 846 532 849 522 844 519 C 790 481 777 483 748 493 C 720 502 697 509 662 516 C 625 523 625 523 607 526 C 578 531 538 537 510 538 C 498 538 507 575 519 573 C 534 570 559 565 608 556 C 643 549 643 549 661 546 Z"/>
    <path id="p11" d="M 608 556 C 610 624 608 685 608 738 C 606 854 604 919 617 967 C 620 977 630 984 635 982 C 646 976 652 953 655 917 C 655 915 655 854 657 736 C 657 682 658 620 661 546 C 662 526 662 526 662 516 C 664 438 679 447 633 421 C 619 412 578 415 584 430 C 598 465 605 489 607 526 C 608 546 608 546 608 556 Z"/>

    <clipPath id="z25475c1"><use href="#p1"/></clipPath>
    <clipPath id="z25475c2"><use href="#p2"/></clipPath>
    <clipPath id="z25475c3"><use href="#p3"/></clipPath>
    <clipPath id="z25475c4"><use href="#p4"/></clipPath>
    <clipPath id="z25475c5"><use href="#p5"/></clipPath>
    <clipPath id="z25475c6"><use href="#p6"/></clipPath>
    <clipPath id="z25475c7"><use href="#p7"/></clipPath>
    <clipPath id="z25475c8"><use href="#p8"/></clipPath>
    <clipPath id="z25475c9"><use href="#p9"/></clipPath>
    <clipPath id="z25475c10"><use href="#p10"/></clipPath>
    <clipPath id="z25475c11"><use href="#p11"/></clipPath>
</defs>
<g id="bg-layer" class="bg">
<use href="#p1"/>
<use href="#p2"/>
<use href="#p3"/>
<use href="#p4"/>
<use href="#p5"/>
<use href="#p6"/>
<use href="#p7"/>
<use href="#p8"/>
<use href="#p9"/>
<use href="#p10"/>
<use href="#p11"/>
</g>
<g id="anim-layer">
    <path id="stroke-p1" style="stroke:#FF4444" pathLength="3333" clip-path="url(#z25475c1)" d="M 123 350 L 406 290"/>
    <path id="stroke-p2" style="stroke:#FF4444" pathLength="3333" clip-path="url(#z25475c2)" d="M 253 50 L 312 106 L 300 778 L 273 850 L 172 762"/>
    <path id="stroke-p3" style="stroke:#FF4444" pathLength="3333" clip-path="url(#z25475c3)" d="M 50 621 L 111 619 L 368 404"/>
    <path id="stroke-p4" style="stroke:#000" pathLength="3333" clip-path="url(#z25475c4)" d="M 510 147 L 744 102 L 775 114 L 798 149 L 749 287"/>
    <path id="stroke-p5" style="stroke:#000" pathLength="3333" clip-path="url(#z25475c5)" d="M 521 247 L 721 216"/>
    <path id="stroke-p6" style="stroke:#000" pathLength="3333" clip-path="url(#z25475c6)" d="M 499 335 L 785 301"/>
    <path id="stroke-p7" style="stroke:#000" pathLength="3333" clip-path="url(#z25475c7)" d="M 435 395 L 394 536"/>
    <path id="stroke-p8" style="stroke:#000" pathLength="3333" clip-path="url(#z25475c8)" d="M 440 434 L 869 367 L 920 410 L 835 473"/>
    <path id="stroke-p9" style="stroke:#000" pathLength="3333" clip-path="url(#z25475c9)" d="M 464 531 L 494 565 L 484 754"/>
    <path id="stroke-p10" style="stroke:#000" pathLength="3333" clip-path="url(#z25475c10)" d="M 508 550 L 785 517 L 811 543 L 796 709 L 776 728 L 703 685"/>
    <path id="stroke-p11" style="stroke:#000" pathLength="3333" clip-path="url(#z25475c11)" d="M 589 424 L 633 465 L 632 978"/>
</g>
</svg>