<svg id="z25488" class="acjk" viewBox="0 0 1024 1024" xmlns="http://www.w3.org/2000/svg">
<style>
<![CDATA[
svg.acjk path[clip-path] {
    animation-duration: 11.3s;
    animation-timing-function: linear;
    animation-iteration-count: infinite;
    stroke-dasharray: 3337;
    stroke-dashoffset: 3339;
    stroke-width: 128;
    stroke-linecap: round;
    fill: none;
    stroke: #FF4444;
}
svg.acjk .bg { fill: #ccc; opacity: 0.5; }

/* Stroke 1: Starts at 0.0%, finishes at 7.1%, holds until 77.9% */
@keyframes zk1 {
    0%, 0.0% { stroke-dashoffset: 3339; }
    7.1%, 77.9% { stroke-dashoffset: 0; }
    78.0%, 100% { stroke-dashoffset: 3339; }
}
svg.acjk #stroke-p1 { animation-name: zk1; }
/* Stroke 2: Starts at 7.1%, finishes at 14.2%, holds until 77.9% */
@keyframes zk2 {
    0%, 7.1% { stroke-dashoffset: 3339; }
    14.2%, 77.9% { stroke-dashoffset: 0; }
    78.0%, 100% { stroke-dashoffset: 3339; }
}
svg.acjk #stroke-p2 { animation-name: zk2; }
/* Stroke 3: Starts at 14.2%, finishes at 21.2%, holds until 77.9% */
@keyframes zk3 {
    0%, 14.2% { stroke-dashoffset: 3339; }
    21.2%, 77.9% { stroke-dashoffset: 0; }
    78.0%, 100% { stroke-dashoffset: 3339; }
}
svg.acjk #stroke-p3 { animation-name: zk3; }
/* Stroke 4: Starts at 21.2%, finishes at 28.3%, holds until 77.9% */
@keyframes zk4 {
    0%, 21.2% { stroke-dashoffset: 3339; }
    28.3%, 77.9% { stroke-dashoffset: 0; }
    78.0%, 100% { stroke-dashoffset: 3339; }
}
svg.acjk #stroke-p4 { animation-name: zk4; }
/* Stroke 5: Starts at 28.3%, finishes at 35.4%, holds until 77.9% */
@keyframes zk5 {
    0%, 28.3% { stroke-dashoffset: 3339; }
    35.4%, 77.9% { stroke-dashoffset: 0; }
    78.0%, 100% { stroke-dashoffset: 3339; }
}
svg.acjk #stroke-p5 { animation-name: zk5; }
/* Stroke 6: Starts at 35.4%, finishes at 42.5%, holds until 77.9% */
@keyframes zk6 {
    0%, 35.4% { stroke-dashoffset: 3339; }
    42.5%, 77.9% { stroke-dashoffset: 0; }
    78.0%, 100% { stroke-dashoffset: 3339; }
}
svg.acjk #stroke-p6 { animation-name: zk6; }
/* Stroke 7: Starts at 42.5%, finishes at 49.6%, holds until 77.9% */
@keyframes zk7 {
    0%, 42.5% { stroke-dashoffset: 3339; }
    49.6%, 77.9% { stroke-dashoffset: 0; }
    78.0%, 100% { stroke-dashoffset: 3339; }
}
svg.acjk #stroke-p7 { animation-name: zk7; }
/* Stroke 8: Starts at 49.6%, finishes at 56.6%, holds until 77.9% */
@keyframes zk8 {
    0%, 49.6% { stroke-dashoffset: 3339; }
    56.6%, 77.9% { stroke-dashoffset: 0; }
    78.0%, 100% { stroke-dashoffset: 3339; }
}
svg.acjk #stroke-p8 { animation-name: zk8; }
/* Stroke 9: Starts at 56.6%, finishes at 63.7%, holds until 77.9% */
@keyframes zk9 {
    0%, 56.6% { stroke-dashoffset: 3339; }
    63.7%, 77.9% { stroke-dashoffset: 0; }
    78.0%, 100% { stroke-dashoffset: 3339; }
}
svg.acjk #stroke-p9 { animation-name: zk9; }
/* Stroke 10: Starts at 63.7%, finishes at 70.8%, holds until 77.9% */
@keyframes zk10 {
    0%, 63.7% { stroke-dashoffset: 3339; }
    70.8%, 77.9% { stroke-dashoffset: 0; }
    78.0%, 100% { stroke-dashoffset: 3339; }
}
svg.acjk #stroke-p10 { animation-name: zk10; }
/* Stroke 11: Starts at 70.8%, finishes at 77.9%, holds until 77.9% */
@keyframes zk11 {
    0%, 70.8% { stroke-dashoffset: 3339; }
    77.9%, 77.9% { stroke-dashoffset: 0; }
    78.0%, 100% { stroke-dashoffset: 3339; }
}
svg.acjk #stroke-p11 { animation-name: zk11; }
]]>
</style>
<defs>
    <path id="p1" d="M 324 363 Q 405 336 409 333 Q 418 324 412 316 Q 405 304 374 300 Q 349 296 326 306 C 293 320 293 320 277 327 Q 192 354 134 365 Q 97 375 126 389 Q 162 405 236 388 Q 255 382 277 376 C 308 367 308 367 324 363 Z"/>
    <path id="p2" d="M 274 558 Q 273 646 271 758 Q 270 780 258 789 Q 251 793 184 781 Q 153 769 155 779 Q 156 786 176 800 Q 237 848 253 875 Q 271 906 286 908 Q 299 909 314 875 Q 330 832 329 762 Q 322 641 321 520 C 321 500 321 500 321 490 Q 321 426 324 363 C 325 325 325 325 326 306 Q 326 222 345 161 Q 361 133 308 111 Q 277 93 257 99 Q 241 106 256 127 Q 275 154 277 186 Q 278 202 277 327 C 277 360 277 360 277 376 Q 276 437 274 519 C 274 545 274 545 274 558 Z"/>
    <path id="p3" d="M 274 519 Q 81 631 76 634 Q 64 640 60 648 Q 59 657 73 669 Q 91 682 111 689 Q 126 693 135 682 Q 222 595 274 558 C 305 533 305 533 321 520 Q 339 505 357 493 Q 376 481 385 467 Q 391 455 381 456 Q 369 456 321 490 C 290 509 290 509 274 519 Z"/>
    <path id="p4" d="M 589 268 Q 607 243 626 212 Q 642 181 658 166 Q 665 156 661 144 Q 657 132 631 113 Q 606 97 589 98 Q 573 99 580 119 Q 598 155 530 276 Q 499 331 453 392 Q 444 402 443 407 Q 440 417 452 415 Q 482 406 578 284 C 585 273 585 273 589 268 Z"/>
    <path id="p5" d="M 578 284 Q 594 299 664 286 Q 697 277 700 281 Q 704 285 699 296 Q 662 381 637 423 Q 628 439 626 447 Q 625 457 637 452 Q 652 445 718 364 Q 758 313 800 284 Q 818 274 805 260 Q 792 247 753 226 Q 735 220 721 230 Q 711 234 637 258 Q 615 264 589 268 C 583 269 573 280 578 284 Z"/>
    <path id="p6" d="M 460 565 Q 554 507 566 503 Q 582 496 575 482 Q 565 469 546 457 Q 530 445 519 447 Q 509 448 512 458 Q 512 476 445 553 C 440 558 455 569 460 565 Z"/>
    <path id="p7" d="M 445 553 Q 433 547 409 543 Q 396 539 393 544 Q 386 550 394 566 Q 428 648 442 781 Q 443 821 464 848 Q 480 870 487 855 Q 491 842 493 826 C 492 809 492 809 492 801 Q 491 785 489 768 Q 482 720 476 684 C 473 667 473 667 472 658 Q 462 595 462 577 Q 462 570 460 565 C 459 559 451 555 445 553 Z"/>
    <path id="p8" d="M 476 684 Q 476 683 477 683 Q 541 673 588 666 Q 609 662 601 651 Q 591 638 569 635 Q 542 632 472 658 C 464 661 468 688 476 684 Z"/>
    <path id="p9" d="M 735 810 Q 748 829 763 871 Q 772 890 788 880 Q 821 862 844 745 Q 877 573 899 543 Q 912 524 898 510 Q 843 455 804 468 Q 690 480 664 480 Q 655 480 654 490 Q 654 499 668 508 Q 690 520 746 512 Q 809 499 822 508 Q 831 514 829 537 Q 823 580 815 624 C 811 643 811 643 809 653 Q 796 714 779 779 Q 775 791 757 787 C 747 785 729 802 735 810 Z"/>
    <path id="p10" d="M 815 624 Q 793 612 677 635 Q 673 635 668 637 Q 652 640 669 654 Q 676 660 691 659 Q 758 655 809 653 C 819 653 824 628 815 624 Z"/>
    <path id="p11" d="M 493 826 Q 503 827 518 827 Q 642 814 735 810 C 746 810 765 795 757 787 Q 739 765 676 775 Q 579 788 492 801 C 484 803 485 826 493 826 Z"/>

    <clipPath id="z25488c1"><use href="#p1"/></clipPath>
    <clipPath id="z25488c2"><use href="#p2"/></clipPath>
    <clipPath id="z25488c3"><use href="#p3"/></clipPath>
    <clipPath id="z25488c4"><use href="#p4"/></clipPath>
    <clipPath id="z25488c5"><use href="#p5"/></clipPath>
    <clipPath id="z25488c6"><use href="#p6"/></clipPath>
    <clipPath id="z25488c7"><use href="#p7"/></clipPath>
    <clipPath id="z25488c8"><use href="#p8"/></clipPath>
    <clipPath id="z25488c9"><use href="#p9"/></clipPath>
    <clipPath id="z25488c10"><use href="#p10"/></clipPath>
    <clipPath id="z25488c11"><use href="#p11"/></clipPath>
</defs>
<g id="bg-layer" class="bg">
<use href="#p1"/>
<use href="#p2"/>
<use href="#p3"/>
<use href="#p4"/>
<use href="#p5"/>
<use href="#p6"/>
<use href="#p7"/>
<use href="#p8"/>
<use href="#p9"/>
<use href="#p10"/>
<use href="#p11"/>
</g>
<g id="anim-layer">
    <path id="stroke-p1" style="stroke:#FF4444" pathLength="3333" clip-path="url(#z25488c1)" d="M 121 377 L 410 325"/>
    <path id="stroke-p2" style="stroke:#FF4444" pathLength="3333" clip-path="url(#z25488c2)" d="M 255 107 L 311 155 L 299 776 L 276 854 L 160 781"/>
    <path id="stroke-p3" style="stroke:#FF4444" pathLength="3333" clip-path="url(#z25488c3)" d="M 66 650 L 111 655 L 379 463"/>
    <path id="stroke-p4" style="stroke:#000" pathLength="3333" clip-path="url(#z25488c4)" d="M 587 102 L 621 157 L 548 288 L 448 408"/>
    <path id="stroke-p5" style="stroke:#000" pathLength="3333" clip-path="url(#z25488c5)" d="M 584 280 L 726 254 L 757 281 L 632 446"/>
    <path id="stroke-p6" style="stroke:#000" pathLength="3333" clip-path="url(#z25488c6)" d="M 519 457 L 531 498 L 452 555"/>
    <path id="stroke-p7" style="stroke:#000" pathLength="3333" clip-path="url(#z25488c7)" d="M 398 551 L 434 589 L 476 856"/>
    <path id="stroke-p8" style="stroke:#000" pathLength="3333" clip-path="url(#z25488c8)" d="M 481 674 L 596 656"/>
    <path id="stroke-p9" style="stroke:#000" pathLength="3333" clip-path="url(#z25488c9)" d="M 659 488 L 817 485 L 866 529 L 804 793 L 761 864"/>
    <path id="stroke-p10" style="stroke:#000" pathLength="3333" clip-path="url(#z25488c10)" d="M 669 643 L 808 633"/>
    <path id="stroke-p11" style="stroke:#000" pathLength="3333" clip-path="url(#z25488c11)" d="M 496 818 L 748 795"/>
</g>
</svg>