<svg id="z25523" class="acjk" viewBox="0 0 1024 1024" xmlns="http://www.w3.org/2000/svg">
<style>
<![CDATA[
svg.acjk path[clip-path] {
    animation-duration: 11.3s;
    animation-timing-function: linear;
    animation-iteration-count: infinite;
    stroke-dasharray: 3337;
    stroke-dashoffset: 3339;
    stroke-width: 128;
    stroke-linecap: round;
    fill: none;
    stroke: #FF4444;
}
svg.acjk .bg { fill: #ccc; opacity: 0.5; }

/* Stroke 1: Starts at 0.0%, finishes at 7.1%, holds until 77.9% */
@keyframes zk1 {
    0%, 0.0% { stroke-dashoffset: 3339; }
    7.1%, 77.9% { stroke-dashoffset: 0; }
    78.0%, 100% { stroke-dashoffset: 3339; }
}
svg.acjk #stroke-p1 { animation-name: zk1; }
/* Stroke 2: Starts at 7.1%, finishes at 14.2%, holds until 77.9% */
@keyframes zk2 {
    0%, 7.1% { stroke-dashoffset: 3339; }
    14.2%, 77.9% { stroke-dashoffset: 0; }
    78.0%, 100% { stroke-dashoffset: 3339; }
}
svg.acjk #stroke-p2 { animation-name: zk2; }
/* Stroke 3: Starts at 14.2%, finishes at 21.2%, holds until 77.9% */
@keyframes zk3 {
    0%, 14.2% { stroke-dashoffset: 3339; }
    21.2%, 77.9% { stroke-dashoffset: 0; }
    78.0%, 100% { stroke-dashoffset: 3339; }
}
svg.acjk #stroke-p3 { animation-name: zk3; }
/* Stroke 4: Starts at 21.2%, finishes at 28.3%, holds until 77.9% */
@keyframes zk4 {
    0%, 21.2% { stroke-dashoffset: 3339; }
    28.3%, 77.9% { stroke-dashoffset: 0; }
    78.0%, 100% { stroke-dashoffset: 3339; }
}
svg.acjk #stroke-p4 { animation-name: zk4; }
/* Stroke 5: Starts at 28.3%, finishes at 35.4%, holds until 77.9% */
@keyframes zk5 {
    0%, 28.3% { stroke-dashoffset: 3339; }
    35.4%, 77.9% { stroke-dashoffset: 0; }
    78.0%, 100% { stroke-dashoffset: 3339; }
}
svg.acjk #stroke-p5 { animation-name: zk5; }
/* Stroke 6: Starts at 35.4%, finishes at 42.5%, holds until 77.9% */
@keyframes zk6 {
    0%, 35.4% { stroke-dashoffset: 3339; }
    42.5%, 77.9% { stroke-dashoffset: 0; }
    78.0%, 100% { stroke-dashoffset: 3339; }
}
svg.acjk #stroke-p6 { animation-name: zk6; }
/* Stroke 7: Starts at 42.5%, finishes at 49.6%, holds until 77.9% */
@keyframes zk7 {
    0%, 42.5% { stroke-dashoffset: 3339; }
    49.6%, 77.9% { stroke-dashoffset: 0; }
    78.0%, 100% { stroke-dashoffset: 3339; }
}
svg.acjk #stroke-p7 { animation-name: zk7; }
/* Stroke 8: Starts at 49.6%, finishes at 56.6%, holds until 77.9% */
@keyframes zk8 {
    0%, 49.6% { stroke-dashoffset: 3339; }
    56.6%, 77.9% { stroke-dashoffset: 0; }
    78.0%, 100% { stroke-dashoffset: 3339; }
}
svg.acjk #stroke-p8 { animation-name: zk8; }
/* Stroke 9: Starts at 56.6%, finishes at 63.7%, holds until 77.9% */
@keyframes zk9 {
    0%, 56.6% { stroke-dashoffset: 3339; }
    63.7%, 77.9% { stroke-dashoffset: 0; }
    78.0%, 100% { stroke-dashoffset: 3339; }
}
svg.acjk #stroke-p9 { animation-name: zk9; }
/* Stroke 10: Starts at 63.7%, finishes at 70.8%, holds until 77.9% */
@keyframes zk10 {
    0%, 63.7% { stroke-dashoffset: 3339; }
    70.8%, 77.9% { stroke-dashoffset: 0; }
    78.0%, 100% { stroke-dashoffset: 3339; }
}
svg.acjk #stroke-p10 { animation-name: zk10; }
/* Stroke 11: Starts at 70.8%, finishes at 77.9%, holds until 77.9% */
@keyframes zk11 {
    0%, 70.8% { stroke-dashoffset: 3339; }
    77.9%, 77.9% { stroke-dashoffset: 0; }
    78.0%, 100% { stroke-dashoffset: 3339; }
}
svg.acjk #stroke-p11 { animation-name: zk11; }
]]>
</style>
<defs>
    <path id="p1" d="M 313 360 Q 335 353 360 347 Q 396 337 400 331 Q 409 324 404 315 Q 397 305 368 299 Q 340 295 315 306 C 281 319 281 319 264 326 Q 245 330 227 337 Q 179 350 123 359 Q 89 368 114 382 Q 162 403 212 386 Q 234 379 262 373 C 296 364 296 364 313 360 Z"/>
    <path id="p2" d="M 254 572 Q 251 651 248 748 Q 247 770 235 779 Q 232 779 176 765 Q 145 749 146 759 Q 147 766 165 784 Q 217 839 229 869 Q 242 903 256 906 Q 271 907 288 874 Q 309 829 312 755 Q 308 641 308 528 C 308 505 308 505 308 494 Q 309 427 313 360 C 314 324 314 324 315 306 Q 316 297 317 289 Q 323 201 337 156 Q 355 126 300 103 Q 267 84 247 90 Q 229 96 245 119 Q 266 147 267 181 Q 268 197 264 326 C 263 357 263 357 262 373 Q 259 437 256 525 C 255 556 255 556 254 572 Z"/>
    <path id="p3" d="M 256 525 Q 187 564 127 603 Q 94 622 72 629 Q 60 635 59 643 Q 58 652 72 665 Q 91 678 113 686 Q 128 690 138 678 Q 189 623 254 572 C 290 543 290 543 308 528 Q 330 509 353 493 Q 372 481 381 468 Q 387 455 376 456 Q 366 456 308 494 C 273 515 273 515 256 525 Z"/>
    <path id="p4" d="M 658 266 Q 662 226 668 188 C 671 167 671 167 672 157 Q 675 142 684 106 Q 687 97 670 84 Q 642 68 620 64 Q 607 61 600 69 Q 593 75 600 88 Q 618 109 622 272 C 622 284 656 278 658 266 Z"/>
    <path id="p5" d="M 668 188 Q 689 194 801 167 Q 817 163 820 160 Q 827 153 823 146 Q 816 136 791 131 Q 779 130 705 150 Q 687 153 672 157 C 662 159 658 186 668 188 Z"/>
    <path id="p6" d="M 513 329 Q 591 299 751 277 Q 778 273 788 274 Q 800 280 799 285 Q 799 289 778 336 Q 771 348 777 352 Q 783 355 798 346 Q 843 324 879 318 Q 907 312 908 306 Q 907 297 847 250 Q 826 232 746 250 Q 722 253 658 266 C 634 270 634 270 622 272 Q 600 273 493 296 C 480 299 501 334 513 329 Z"/>
    <path id="p7" d="M 493 296 Q 481 287 464 281 Q 445 271 434 277 Q 422 284 429 297 Q 447 321 447 382 Q 446 391 446 402 Q 443 555 410 663 Q 377 763 314 866 Q 310 873 307 879 Q 306 889 315 887 Q 351 880 418 758 Q 425 740 435 722 Q 492 577 504 368 Q 505 343 513 329 C 520 318 503 304 493 296 Z"/>
    <path id="p8" d="M 647 422 Q 660 416 746 398 Q 753 398 759 388 Q 759 379 742 373 Q 714 358 653 384 Q 652 384 650 385 C 625 394 625 394 612 398 Q 576 404 525 418 Q 503 422 522 434 Q 531 440 543 446 Q 553 450 569 444 Q 587 438 612 432 C 635 425 635 425 647 422 Z"/>
    <path id="p9" d="M 819 466 Q 810 451 798 405 Q 797 395 792 391 Q 788 388 785 400 Q 766 451 754 466 Q 750 472 734 476 Q 698 485 668 472 Q 656 466 653 459 Q 647 446 647 422 C 649 397 649 397 650 385 Q 651 369 655 353 Q 659 340 649 331 Q 639 321 621 315 Q 611 312 605 316 Q 599 319 604 332 Q 610 354 612 398 C 612 421 612 421 612 432 Q 612 480 632 499 Q 680 538 771 517 Q 771 516 774 516 Q 795 509 815 493 Q 828 483 819 466 Z"/>
    <path id="p10" d="M 624 625 Q 563 637 510 640 Q 494 640 491 649 Q 490 656 512 668 Q 534 684 554 676 Q 585 667 616 660 C 653 651 653 651 672 647 Q 715 637 754 632 Q 773 631 776 636 Q 785 649 777 684 Q 761 780 735 821 Q 717 849 692 843 Q 670 834 650 825 Q 628 815 642 839 Q 678 884 694 917 Q 710 938 728 923 Q 779 893 810 793 Q 841 658 858 641 Q 871 628 865 618 Q 856 608 807 583 Q 788 574 769 586 Q 750 596 685 612 C 644 621 644 621 624 625 Z"/>
    <path id="p11" d="M 616 660 Q 586 774 446 908 Q 440 915 446 918 Q 453 919 463 914 Q 515 887 557 846 Q 626 786 672 647 C 681 624 681 624 685 612 Q 689 599 696 588 Q 702 579 696 570 Q 689 561 661 548 Q 640 539 632 542 Q 620 546 623 560 Q 627 591 624 625 C 619 648 619 648 616 660 Z"/>

    <clipPath id="z25523c1"><use href="#p1"/></clipPath>
    <clipPath id="z25523c2"><use href="#p2"/></clipPath>
    <clipPath id="z25523c3"><use href="#p3"/></clipPath>
    <clipPath id="z25523c4"><use href="#p4"/></clipPath>
    <clipPath id="z25523c5"><use href="#p5"/></clipPath>
    <clipPath id="z25523c6"><use href="#p6"/></clipPath>
    <clipPath id="z25523c7"><use href="#p7"/></clipPath>
    <clipPath id="z25523c8"><use href="#p8"/></clipPath>
    <clipPath id="z25523c9"><use href="#p9"/></clipPath>
    <clipPath id="z25523c10"><use href="#p10"/></clipPath>
    <clipPath id="z25523c11"><use href="#p11"/></clipPath>
</defs>
<g id="bg-layer" class="bg">
<use href="#p1"/>
<use href="#p2"/>
<use href="#p3"/>
<use href="#p4"/>
<use href="#p5"/>
<use href="#p6"/>
<use href="#p7"/>
<use href="#p8"/>
<use href="#p9"/>
<use href="#p10"/>
<use href="#p11"/>
</g>
<g id="anim-layer">
    <path id="stroke-p1" style="stroke:#FF4444" pathLength="3333" clip-path="url(#z25523c1)" d="M 110 369 L 402 319"/>
    <path id="stroke-p2" style="stroke:#FF4444" pathLength="3333" clip-path="url(#z25523c2)" d="M 246 99 L 302 150 L 279 764 L 248 852 L 154 761"/>
    <path id="stroke-p3" style="stroke:#FF4444" pathLength="3333" clip-path="url(#z25523c3)" d="M 66 644 L 115 651 L 375 461"/>
    <path id="stroke-p4" style="stroke:#000" pathLength="3333" clip-path="url(#z25523c4)" d="M 605 75 L 648 118 L 632 268"/>
    <path id="stroke-p5" style="stroke:#000" pathLength="3333" clip-path="url(#z25523c5)" d="M 672 182 L 819 152"/>
    <path id="stroke-p6" style="stroke:#000" pathLength="3333" clip-path="url(#z25523c6)" d="M 501 298 L 794 257 L 835 277 L 821 320 L 898 309"/>
    <path id="stroke-p7" style="stroke:#000" pathLength="3333" clip-path="url(#z25523c7)" d="M 433 283 L 477 331 L 451 591 L 394 759 L 313 879"/>
    <path id="stroke-p8" style="stroke:#000" pathLength="3333" clip-path="url(#z25523c8)" d="M 519 425 L 750 382"/>
    <path id="stroke-p9" style="stroke:#000" pathLength="3333" clip-path="url(#z25523c9)" d="M 609 318 L 631 348 L 633 459 L 663 493 L 779 483 L 790 398"/>
    <path id="stroke-p10" style="stroke:#000" pathLength="3333" clip-path="url(#z25523c10)" d="M 496 648 L 548 657 L 781 606 L 822 635 L 747 858 L 706 886 L 645 829"/>
    <path id="stroke-p11" style="stroke:#000" pathLength="3333" clip-path="url(#z25523c11)" d="M 631 547 L 661 588 L 619 719 L 555 819 L 453 910"/>
</g>
</svg>