<svg id="z25627" class="acjk" viewBox="0 0 1024 1024" xmlns="http://www.w3.org/2000/svg">
<style>
<![CDATA[
svg.acjk path[clip-path] {
    animation-duration: 12.9s;
    animation-timing-function: linear;
    animation-iteration-count: infinite;
    stroke-dasharray: 3337;
    stroke-dashoffset: 3339;
    stroke-width: 128;
    stroke-linecap: round;
    fill: none;
    stroke: #FF4444;
}
svg.acjk .bg { fill: #ccc; opacity: 0.5; }

/* Stroke 1: Starts at 0.0%, finishes at 6.2%, holds until 80.6% */
@keyframes zk1 {
    0%, 0.0% { stroke-dashoffset: 3339; }
    6.2%, 80.6% { stroke-dashoffset: 0; }
    80.7%, 100% { stroke-dashoffset: 3339; }
}
svg.acjk #stroke-p1 { animation-name: zk1; }
/* Stroke 2: Starts at 6.2%, finishes at 12.4%, holds until 80.6% */
@keyframes zk2 {
    0%, 6.2% { stroke-dashoffset: 3339; }
    12.4%, 80.6% { stroke-dashoffset: 0; }
    80.7%, 100% { stroke-dashoffset: 3339; }
}
svg.acjk #stroke-p2 { animation-name: zk2; }
/* Stroke 3: Starts at 12.4%, finishes at 18.6%, holds until 80.6% */
@keyframes zk3 {
    0%, 12.4% { stroke-dashoffset: 3339; }
    18.6%, 80.6% { stroke-dashoffset: 0; }
    80.7%, 100% { stroke-dashoffset: 3339; }
}
svg.acjk #stroke-p3 { animation-name: zk3; }
/* Stroke 4: Starts at 18.6%, finishes at 24.8%, holds until 80.6% */
@keyframes zk4 {
    0%, 18.6% { stroke-dashoffset: 3339; }
    24.8%, 80.6% { stroke-dashoffset: 0; }
    80.7%, 100% { stroke-dashoffset: 3339; }
}
svg.acjk #stroke-p4 { animation-name: zk4; }
/* Stroke 5: Starts at 24.8%, finishes at 31.0%, holds until 80.6% */
@keyframes zk5 {
    0%, 24.8% { stroke-dashoffset: 3339; }
    31.0%, 80.6% { stroke-dashoffset: 0; }
    80.7%, 100% { stroke-dashoffset: 3339; }
}
svg.acjk #stroke-p5 { animation-name: zk5; }
/* Stroke 6: Starts at 31.0%, finishes at 37.2%, holds until 80.6% */
@keyframes zk6 {
    0%, 31.0% { stroke-dashoffset: 3339; }
    37.2%, 80.6% { stroke-dashoffset: 0; }
    80.7%, 100% { stroke-dashoffset: 3339; }
}
svg.acjk #stroke-p6 { animation-name: zk6; }
/* Stroke 7: Starts at 37.2%, finishes at 43.4%, holds until 80.6% */
@keyframes zk7 {
    0%, 37.2% { stroke-dashoffset: 3339; }
    43.4%, 80.6% { stroke-dashoffset: 0; }
    80.7%, 100% { stroke-dashoffset: 3339; }
}
svg.acjk #stroke-p7 { animation-name: zk7; }
/* Stroke 8: Starts at 43.4%, finishes at 49.6%, holds until 80.6% */
@keyframes zk8 {
    0%, 43.4% { stroke-dashoffset: 3339; }
    49.6%, 80.6% { stroke-dashoffset: 0; }
    80.7%, 100% { stroke-dashoffset: 3339; }
}
svg.acjk #stroke-p8 { animation-name: zk8; }
/* Stroke 9: Starts at 49.6%, finishes at 55.8%, holds until 80.6% */
@keyframes zk9 {
    0%, 49.6% { stroke-dashoffset: 3339; }
    55.8%, 80.6% { stroke-dashoffset: 0; }
    80.7%, 100% { stroke-dashoffset: 3339; }
}
svg.acjk #stroke-p9 { animation-name: zk9; }
/* Stroke 10: Starts at 55.8%, finishes at 62.0%, holds until 80.6% */
@keyframes zk10 {
    0%, 55.8% { stroke-dashoffset: 3339; }
    62.0%, 80.6% { stroke-dashoffset: 0; }
    80.7%, 100% { stroke-dashoffset: 3339; }
}
svg.acjk #stroke-p10 { animation-name: zk10; }
/* Stroke 11: Starts at 62.0%, finishes at 68.2%, holds until 80.6% */
@keyframes zk11 {
    0%, 62.0% { stroke-dashoffset: 3339; }
    68.2%, 80.6% { stroke-dashoffset: 0; }
    80.7%, 100% { stroke-dashoffset: 3339; }
}
svg.acjk #stroke-p11 { animation-name: zk11; }
/* Stroke 12: Starts at 68.2%, finishes at 74.4%, holds until 80.6% */
@keyframes zk12 {
    0%, 68.2% { stroke-dashoffset: 3339; }
    74.4%, 80.6% { stroke-dashoffset: 0; }
    80.7%, 100% { stroke-dashoffset: 3339; }
}
svg.acjk #stroke-p12 { animation-name: zk12; }
/* Stroke 13: Starts at 74.4%, finishes at 80.6%, holds until 80.6% */
@keyframes zk13 {
    0%, 74.4% { stroke-dashoffset: 3339; }
    80.6%, 80.6% { stroke-dashoffset: 0; }
    80.7%, 100% { stroke-dashoffset: 3339; }
}
svg.acjk #stroke-p13 { animation-name: zk13; }
]]>
</style>
<defs>
    <path id="p1" d="M 315 372 Q 411 344 412 343 Q 419 336 415 327 Q 408 317 380 310 Q 334 304 317 320 C 304 331 286 333 269 336 Q 197 354 136 364 Q 100 371 127 386 Q 166 410 224 392 Q 243 386 268 383 C 299 376 299 376 315 372 Z"/>
    <path id="p2" d="M 265 550 Q 264 635 262 744 Q 261 766 249 776 Q 242 779 180 766 Q 149 753 151 763 Q 152 770 171 785 Q 229 834 244 862 Q 260 893 275 896 Q 288 897 304 864 Q 322 821 321 750 Q 314 630 313 512 C 313 494 313 494 313 485 Q 313 427 315 372 C 316 337 316 337 317 320 Q 317 209 337 145 Q 353 117 300 95 Q 269 77 249 83 Q 233 90 248 112 Q 267 137 269 170 Q 270 188 269 336 C 268 367 268 367 268 383 Q 267 438 265 512 C 265 537 265 537 265 550 Z"/>
    <path id="p3" d="M 265 512 Q 186 554 120 595 Q 87 614 65 621 Q 53 627 51 634 Q 50 643 64 656 Q 83 671 105 679 Q 120 682 132 668 Q 163 632 265 550 C 297 525 297 525 313 512 Q 322 505 331 499 Q 347 489 357 476 Q 363 463 352 464 Q 342 465 320 481 Q 316 482 313 485 C 281 503 281 503 265 512 Z"/>
    <path id="p4" d="M 484 163 Q 503 181 526 202 Q 538 212 552 212 Q 561 211 565 200 Q 569 187 561 161 Q 555 145 531 135 Q 471 117 460 121 Q 456 125 457 136 Q 461 146 484 163 Z"/>
    <path id="p5" d="M 683 90 Q 670 117 605 203 Q 598 219 613 214 Q 659 183 685 160 Q 745 109 761 101 Q 780 91 769 75 Q 756 62 731 49 Q 709 39 697 42 Q 687 43 691 56 Q 695 72 683 90 Z"/>
    <path id="p6" d="M 640 285 Q 781 251 783 250 Q 790 243 787 235 Q 780 225 754 217 Q 730 211 634 242 Q 541 266 453 274 Q 419 280 443 295 C 472 305 472 305 486 310 C 499 315 514 311 527 308 Q 528 307 610 291 C 630 287 630 287 640 285 Z"/>
    <path id="p7" d="M 754 544 Q 764 507 773 481 C 788 448 788 448 796 432 Q 809 410 823 399 Q 839 381 825 365 Q 809 352 761 329 Q 743 322 723 329 Q 690 342 661 352 C 632 359 632 359 618 363 Q 602 364 551 378 C 522 383 522 383 507 385 Q 471 389 436 393 Q 420 394 422 403 Q 425 410 442 417 Q 466 427 499 417 Q 503 416 509 416 C 536 410 536 410 549 407 Q 583 400 619 393 C 647 388 647 388 661 385 Q 721 370 734 381 Q 746 394 736 444 C 729 470 729 470 726 483 Q 719 513 709 541 C 704 555 751 559 754 544 Z"/>
    <path id="p8" d="M 773 481 Q 812 478 902 478 Q 918 477 923 470 Q 927 460 913 448 Q 865 412 807 430 Q 801 430 796 432 C 756 440 756 440 736 444 Q 700 448 662 456 C 634 461 634 461 620 463 Q 581 467 546 474 C 521 478 521 478 509 480 Q 446 487 382 497 Q 364 498 378 513 Q 390 525 406 529 Q 424 533 437 530 Q 471 520 509 513 C 533 508 533 508 545 505 Q 602 495 621 494 C 648 491 648 491 662 489 Q 690 485 726 483 C 757 482 757 482 773 481 Z"/>
    <path id="p9" d="M 668 592 Q 713 585 771 582 Q 781 581 783 572 Q 784 565 754 544 C 741 536 724 538 709 541 Q 684 544 662 552 C 635 557 635 557 621 560 Q 579 567 542 574 C 518 577 518 577 506 579 Q 460 585 419 589 Q 400 590 411 608 Q 418 618 427 621 Q 437 624 451 622 Q 470 616 498 613 C 526 609 526 609 540 607 Q 574 601 620 597 C 652 594 652 594 668 592 Z"/>
    <path id="p10" d="M 486 310 Q 486 313 496 340 Q 503 356 507 385 C 508 406 508 406 509 416 Q 509 420 509 425 Q 510 449 509 480 C 509 502 509 502 509 513 Q 508 543 506 579 C 502 648 502 648 500 682 Q 496 740 476 812 Q 460 864 494 907 Q 504 920 514 908 Q 533 884 534 762 Q 537 675 540 607 C 541 585 541 585 542 574 Q 543 537 545 505 C 546 484 546 484 546 474 Q 547 434 549 407 C 550 388 550 388 551 378 Q 551 362 553 359 Q 559 328 532 311 Q 531 310 527 308 C 515 301 483 297 486 310 Z"/>
    <path id="p11" d="M 661 352 Q 662 321 664 314 Q 667 304 659 297 Q 652 291 640 285 C 631 280 605 282 610 291 Q 617 301 618 325 Q 618 343 618 363 C 619 383 619 383 619 393 Q 619 427 620 463 C 621 484 621 484 621 494 Q 621 525 621 560 C 620 585 620 585 620 597 Q 620 777 609 876 Q 606 915 629 942 Q 639 955 648 940 Q 669 898 663 821 Q 663 797 662 626 C 662 577 662 577 662 552 Q 662 521 662 489 C 662 467 662 467 662 456 Q 662 428 662 401 Q 661 392 661 385 C 661 363 661 363 661 352 Z"/>
    <path id="p12" d="M 498 613 Q 449 691 333 800 Q 327 807 337 811 Q 349 814 433 751 Q 466 724 500 682 C 536 637 532 567 498 613 Z"/>
    <path id="p13" d="M 662 626 Q 723 716 800 814 Q 816 830 842 831 Q 930 830 958 825 Q 967 824 968 819 Q 969 815 957 808 Q 828 751 769 697 Q 720 651 668 592 C 651 575 647 606 662 626 Z"/>

    <clipPath id="z25627c1"><use href="#p1"/></clipPath>
    <clipPath id="z25627c2"><use href="#p2"/></clipPath>
    <clipPath id="z25627c3"><use href="#p3"/></clipPath>
    <clipPath id="z25627c4"><use href="#p4"/></clipPath>
    <clipPath id="z25627c5"><use href="#p5"/></clipPath>
    <clipPath id="z25627c6"><use href="#p6"/></clipPath>
    <clipPath id="z25627c7"><use href="#p7"/></clipPath>
    <clipPath id="z25627c8"><use href="#p8"/></clipPath>
    <clipPath id="z25627c9"><use href="#p9"/></clipPath>
    <clipPath id="z25627c10"><use href="#p10"/></clipPath>
    <clipPath id="z25627c11"><use href="#p11"/></clipPath>
    <clipPath id="z25627c12"><use href="#p12"/></clipPath>
    <clipPath id="z25627c13"><use href="#p13"/></clipPath>
</defs>
<g id="bg-layer" class="bg">
<use href="#p1"/>
<use href="#p2"/>
<use href="#p3"/>
<use href="#p4"/>
<use href="#p5"/>
<use href="#p6"/>
<use href="#p7"/>
<use href="#p8"/>
<use href="#p9"/>
<use href="#p10"/>
<use href="#p11"/>
<use href="#p12"/>
<use href="#p13"/>
</g>
<g id="anim-layer">
    <path id="stroke-p1" style="stroke:#FF4444" pathLength="3333" clip-path="url(#z25627c1)" d="M 126 375 L 412 331"/>
    <path id="stroke-p2" style="stroke:#FF4444" pathLength="3333" clip-path="url(#z25627c2)" d="M 248 93 L 303 140 L 291 760 L 267 842 L 157 767"/>
    <path id="stroke-p3" style="stroke:#FF4444" pathLength="3333" clip-path="url(#z25627c3)" d="M 55 633 L 110 641 L 350 470"/>
    <path id="stroke-p4" style="stroke:#000" pathLength="3333" clip-path="url(#z25627c4)" d="M 463 128 L 556 206"/>
    <path id="stroke-p5" style="stroke:#000" pathLength="3333" clip-path="url(#z25627c5)" d="M 698 51 L 726 92 L 612 208"/>
    <path id="stroke-p6" style="stroke:#000" pathLength="3333" clip-path="url(#z25627c6)" d="M 441 283 L 522 287 L 781 237"/>
    <path id="stroke-p7" style="stroke:#000" pathLength="3333" clip-path="url(#z25627c7)" d="M 427 399 L 749 356 L 785 395 L 717 536"/>
    <path id="stroke-p8" style="stroke:#000" pathLength="3333" clip-path="url(#z25627c8)" d="M 384 507 L 838 451 L 919 461"/>
    <path id="stroke-p9" style="stroke:#000" pathLength="3333" clip-path="url(#z25627c9)" d="M 413 597 L 777 569"/>
    <path id="stroke-p10" style="stroke:#000" pathLength="3333" clip-path="url(#z25627c10)" d="M 494 315 L 529 368 L 498 907"/>
    <path id="stroke-p11" style="stroke:#000" pathLength="3333" clip-path="url(#z25627c11)" d="M 619 293 L 641 321 L 634 940"/>
    <path id="stroke-p12" style="stroke:#000" pathLength="3333" clip-path="url(#z25627c12)" d="M 499 621 L 456 702 L 339 804"/>
    <path id="stroke-p13" style="stroke:#000" pathLength="3333" clip-path="url(#z25627c13)" d="M 666 599 L 831 789 L 961 817"/>
</g>
</svg>