<svg id="z25633" class="acjk" viewBox="0 0 1024 1024" xmlns="http://www.w3.org/2000/svg">
<style>
<![CDATA[
svg.acjk path[clip-path] {
    animation-duration: 12.9s;
    animation-timing-function: linear;
    animation-iteration-count: infinite;
    stroke-dasharray: 3337;
    stroke-dashoffset: 3339;
    stroke-width: 128;
    stroke-linecap: round;
    fill: none;
    stroke: #FF4444;
}
svg.acjk .bg { fill: #ccc; opacity: 0.5; }

/* Stroke 1: Starts at 0.0%, finishes at 6.2%, holds until 80.6% */
@keyframes zk1 {
    0%, 0.0% { stroke-dashoffset: 3339; }
    6.2%, 80.6% { stroke-dashoffset: 0; }
    80.7%, 100% { stroke-dashoffset: 3339; }
}
svg.acjk #stroke-p1 { animation-name: zk1; }
/* Stroke 2: Starts at 6.2%, finishes at 12.4%, holds until 80.6% */
@keyframes zk2 {
    0%, 6.2% { stroke-dashoffset: 3339; }
    12.4%, 80.6% { stroke-dashoffset: 0; }
    80.7%, 100% { stroke-dashoffset: 3339; }
}
svg.acjk #stroke-p2 { animation-name: zk2; }
/* Stroke 3: Starts at 12.4%, finishes at 18.6%, holds until 80.6% */
@keyframes zk3 {
    0%, 12.4% { stroke-dashoffset: 3339; }
    18.6%, 80.6% { stroke-dashoffset: 0; }
    80.7%, 100% { stroke-dashoffset: 3339; }
}
svg.acjk #stroke-p3 { animation-name: zk3; }
/* Stroke 4: Starts at 18.6%, finishes at 24.8%, holds until 80.6% */
@keyframes zk4 {
    0%, 18.6% { stroke-dashoffset: 3339; }
    24.8%, 80.6% { stroke-dashoffset: 0; }
    80.7%, 100% { stroke-dashoffset: 3339; }
}
svg.acjk #stroke-p4 { animation-name: zk4; }
/* Stroke 5: Starts at 24.8%, finishes at 31.0%, holds until 80.6% */
@keyframes zk5 {
    0%, 24.8% { stroke-dashoffset: 3339; }
    31.0%, 80.6% { stroke-dashoffset: 0; }
    80.7%, 100% { stroke-dashoffset: 3339; }
}
svg.acjk #stroke-p5 { animation-name: zk5; }
/* Stroke 6: Starts at 31.0%, finishes at 37.2%, holds until 80.6% */
@keyframes zk6 {
    0%, 31.0% { stroke-dashoffset: 3339; }
    37.2%, 80.6% { stroke-dashoffset: 0; }
    80.7%, 100% { stroke-dashoffset: 3339; }
}
svg.acjk #stroke-p6 { animation-name: zk6; }
/* Stroke 7: Starts at 37.2%, finishes at 43.4%, holds until 80.6% */
@keyframes zk7 {
    0%, 37.2% { stroke-dashoffset: 3339; }
    43.4%, 80.6% { stroke-dashoffset: 0; }
    80.7%, 100% { stroke-dashoffset: 3339; }
}
svg.acjk #stroke-p7 { animation-name: zk7; }
/* Stroke 8: Starts at 43.4%, finishes at 49.6%, holds until 80.6% */
@keyframes zk8 {
    0%, 43.4% { stroke-dashoffset: 3339; }
    49.6%, 80.6% { stroke-dashoffset: 0; }
    80.7%, 100% { stroke-dashoffset: 3339; }
}
svg.acjk #stroke-p8 { animation-name: zk8; }
/* Stroke 9: Starts at 49.6%, finishes at 55.8%, holds until 80.6% */
@keyframes zk9 {
    0%, 49.6% { stroke-dashoffset: 3339; }
    55.8%, 80.6% { stroke-dashoffset: 0; }
    80.7%, 100% { stroke-dashoffset: 3339; }
}
svg.acjk #stroke-p9 { animation-name: zk9; }
/* Stroke 10: Starts at 55.8%, finishes at 62.0%, holds until 80.6% */
@keyframes zk10 {
    0%, 55.8% { stroke-dashoffset: 3339; }
    62.0%, 80.6% { stroke-dashoffset: 0; }
    80.7%, 100% { stroke-dashoffset: 3339; }
}
svg.acjk #stroke-p10 { animation-name: zk10; }
/* Stroke 11: Starts at 62.0%, finishes at 68.2%, holds until 80.6% */
@keyframes zk11 {
    0%, 62.0% { stroke-dashoffset: 3339; }
    68.2%, 80.6% { stroke-dashoffset: 0; }
    80.7%, 100% { stroke-dashoffset: 3339; }
}
svg.acjk #stroke-p11 { animation-name: zk11; }
/* Stroke 12: Starts at 68.2%, finishes at 74.4%, holds until 80.6% */
@keyframes zk12 {
    0%, 68.2% { stroke-dashoffset: 3339; }
    74.4%, 80.6% { stroke-dashoffset: 0; }
    80.7%, 100% { stroke-dashoffset: 3339; }
}
svg.acjk #stroke-p12 { animation-name: zk12; }
/* Stroke 13: Starts at 74.4%, finishes at 80.6%, holds until 80.6% */
@keyframes zk13 {
    0%, 74.4% { stroke-dashoffset: 3339; }
    80.6%, 80.6% { stroke-dashoffset: 0; }
    80.7%, 100% { stroke-dashoffset: 3339; }
}
svg.acjk #stroke-p13 { animation-name: zk13; }
]]>
</style>
<defs>
    <path id="p1" d="M 315 357 Q 330 351 350 346 Q 384 336 389 330 Q 396 323 392 314 Q 385 304 357 300 Q 336 297 317 304 C 284 318 284 318 267 325 Q 171 355 121 365 Q 88 374 114 387 Q 151 405 211 386 Q 238 377 266 372 C 299 362 299 362 315 357 Z"/>
    <path id="p2" d="M 261 566 Q 260 656 258 770 Q 257 794 245 802 Q 239 805 177 797 Q 144 785 147 795 Q 148 802 168 817 Q 226 866 241 893 Q 259 924 273 927 Q 288 928 302 893 Q 321 848 319 774 Q 312 647 312 522 C 312 501 312 501 312 491 Q 312 424 315 357 C 316 322 316 322 317 304 Q 335 157 338 148 Q 354 117 300 95 Q 266 76 247 83 Q 229 89 245 112 Q 267 139 267 173 Q 268 189 267 325 C 266 356 266 356 266 372 Q 265 436 262 523 C 261 552 261 552 261 566 Z"/>
    <path id="p3" d="M 262 523 Q 178 577 104 629 Q 73 650 51 658 Q 39 664 37 672 Q 37 681 51 693 Q 70 706 93 713 Q 109 717 118 704 Q 178 634 261 566 C 295 537 295 537 312 522 Q 367 477 373 468 Q 379 455 368 456 Q 356 459 312 491 C 279 512 279 512 262 523 Z"/>
    <path id="p4" d="M 672 250 Q 691 228 715 197 Q 728 176 750 163 Q 763 157 763 150 Q 764 140 742 125 Q 715 106 703 105 Q 694 105 685 111 Q 562 148 525 153 Q 494 154 492 162 Q 491 165 497 169 Q 534 197 654 152 Q 667 149 673 154 Q 677 158 661 188 Q 648 212 626 235 Q 625 235 625 236 C 606 255 606 255 596 264 Q 548 304 478 325 Q 471 328 470 332 Q 470 336 476 336 Q 557 345 636 284 C 660 261 660 261 672 250 Z"/>
    <path id="p5" d="M 636 284 Q 720 326 724 327 Q 728 326 732 318 Q 736 308 720 282 Q 708 260 672 250 C 641 241 641 241 625 236 Q 580 221 516 210 Q 509 209 510 217 Q 513 226 521 230 Q 557 245 596 264 C 623 277 623 277 636 284 Z"/>
    <path id="p6" d="M 528 489 Q 594 408 604 402 Q 616 393 611 386 Q 610 379 561 361 Q 546 354 531 364 Q 518 373 494 380 Q 457 390 423 397 Q 407 398 418 410 Q 437 425 501 407 Q 516 403 521 409 Q 524 415 514 431 Q 504 452 489 473 C 475 492 475 492 468 502 Q 443 532 396 572 Q 386 582 397 582 Q 431 576 496 522 C 517 500 517 500 528 489 Z"/>
    <path id="p7" d="M 496 522 Q 512 532 530 546 Q 542 556 551 557 Q 557 557 560 550 Q 566 540 554 515 Q 545 494 528 489 C 502 478 502 478 489 473 Q 476 464 412 448 Q 406 445 406 453 Q 407 462 415 467 Q 440 482 468 502 C 487 515 487 515 496 522 Z"/>
    <path id="p8" d="M 764 465 Q 788 443 811 415 Q 827 393 857 369 Q 870 360 865 353 Q 864 346 813 324 Q 798 315 782 326 Q 763 336 734 344 Q 688 354 643 360 Q 627 361 637 374 Q 656 390 715 377 Q 761 365 768 373 Q 771 379 760 395 Q 745 422 723 449 C 708 466 708 466 700 474 Q 675 499 633 532 Q 621 541 633 543 Q 666 536 731 493 C 753 474 753 474 764 465 Z"/>
    <path id="p9" d="M 731 493 Q 771 517 816 547 Q 829 557 839 558 Q 845 558 848 550 Q 854 540 840 514 Q 825 489 764 465 C 737 454 737 454 723 449 Q 671 430 640 423 Q 633 422 634 429 Q 634 435 700 474 C 721 487 721 487 731 493 Z"/>
    <path id="p10" d="M 651 645 Q 711 639 879 639 Q 898 639 903 630 Q 907 620 892 606 Q 838 563 780 582 Q 725 591 646 606 C 610 611 610 611 592 614 Q 489 627 368 643 Q 347 644 363 661 Q 376 674 394 680 Q 413 684 430 680 Q 488 664 552 657 C 618 649 618 649 651 645 Z"/>
    <path id="p11" d="M 646 606 Q 649 569 645 565 Q 623 546 605 535 Q 593 531 584 539 Q 578 542 585 552 Q 591 561 592 614 C 591 662 591 662 590 686 Q 590 783 575 829 Q 565 872 605 928 Q 609 935 616 938 Q 626 939 632 927 Q 645 896 642 867 Q 642 765 643 675 C 645 629 645 629 646 606 Z"/>
    <path id="p12" d="M 552 657 Q 507 744 358 841 Q 342 851 356 854 Q 366 855 403 842 Q 442 830 477 804 Q 508 782 544 744 Q 572 713 590 686 C 611 651 570 621 552 657 Z"/>
    <path id="p13" d="M 643 675 Q 703 751 769 821 Q 788 843 822 845 Q 883 851 948 841 Q 964 840 966 836 Q 967 830 955 824 Q 781 754 715 701 Q 681 674 651 645 C 635 629 630 657 643 675 Z"/>

    <clipPath id="z25633c1"><use href="#p1"/></clipPath>
    <clipPath id="z25633c2"><use href="#p2"/></clipPath>
    <clipPath id="z25633c3"><use href="#p3"/></clipPath>
    <clipPath id="z25633c4"><use href="#p4"/></clipPath>
    <clipPath id="z25633c5"><use href="#p5"/></clipPath>
    <clipPath id="z25633c6"><use href="#p6"/></clipPath>
    <clipPath id="z25633c7"><use href="#p7"/></clipPath>
    <clipPath id="z25633c8"><use href="#p8"/></clipPath>
    <clipPath id="z25633c9"><use href="#p9"/></clipPath>
    <clipPath id="z25633c10"><use href="#p10"/></clipPath>
    <clipPath id="z25633c11"><use href="#p11"/></clipPath>
    <clipPath id="z25633c12"><use href="#p12"/></clipPath>
    <clipPath id="z25633c13"><use href="#p13"/></clipPath>
</defs>
<g id="bg-layer" class="bg">
<use href="#p1"/>
<use href="#p2"/>
<use href="#p3"/>
<use href="#p4"/>
<use href="#p5"/>
<use href="#p6"/>
<use href="#p7"/>
<use href="#p8"/>
<use href="#p9"/>
<use href="#p10"/>
<use href="#p11"/>
<use href="#p12"/>
<use href="#p13"/>
</g>
<g id="anim-layer">
    <path id="stroke-p1" style="stroke:#FF4444" pathLength="3333" clip-path="url(#z25633c1)" d="M 109 374 L 388 320"/>
    <path id="stroke-p2" style="stroke:#FF4444" pathLength="3333" clip-path="url(#z25633c2)" d="M 245 88 L 303 144 L 287 799 L 258 875 L 154 799"/>
    <path id="stroke-p3" style="stroke:#FF4444" pathLength="3333" clip-path="url(#z25633c3)" d="M 46 673 L 99 675 L 368 462"/>
    <path id="stroke-p4" style="stroke:#000" pathLength="3333" clip-path="url(#z25633c4)" d="M 504 164 L 683 130 L 717 157 L 605 282 L 481 331"/>
    <path id="stroke-p5" style="stroke:#000" pathLength="3333" clip-path="url(#z25633c5)" d="M 517 216 L 728 315"/>
    <path id="stroke-p6" style="stroke:#000" pathLength="3333" clip-path="url(#z25633c6)" d="M 422 405 L 531 386 L 566 400 L 479 514 L 401 576"/>
    <path id="stroke-p7" style="stroke:#000" pathLength="3333" clip-path="url(#z25633c7)" d="M 416 458 L 525 513 L 551 551"/>
    <path id="stroke-p8" style="stroke:#000" pathLength="3333" clip-path="url(#z25633c8)" d="M 643 368 L 782 346 L 816 368 L 741 460 L 636 537"/>
    <path id="stroke-p9" style="stroke:#000" pathLength="3333" clip-path="url(#z25633c9)" d="M 642 429 L 843 550"/>
    <path id="stroke-p10" style="stroke:#000" pathLength="3333" clip-path="url(#z25633c10)" d="M 366 653 L 817 607 L 898 625"/>
    <path id="stroke-p11" style="stroke:#000" pathLength="3333" clip-path="url(#z25633c11)" d="M 588 543 L 619 583 L 615 931"/>
    <path id="stroke-p12" style="stroke:#000" pathLength="3333" clip-path="url(#z25633c12)" d="M 584 660 L 482 774 L 359 847"/>
    <path id="stroke-p13" style="stroke:#000" pathLength="3333" clip-path="url(#z25633c13)" d="M 649 655 L 807 802 L 957 832"/>
</g>
</svg>