<svg id="z25773" class="acjk" viewBox="0 0 1024 1024" xmlns="http://www.w3.org/2000/svg">
<style>
<![CDATA[
svg.acjk path[clip-path] {
    animation-duration: 14.5s;
    animation-timing-function: linear;
    animation-iteration-count: infinite;
    stroke-dasharray: 3337;
    stroke-dashoffset: 3339;
    stroke-width: 128;
    stroke-linecap: round;
    fill: none;
    stroke: #FF4444;
}
svg.acjk .bg { fill: #ccc; opacity: 0.5; }

/* Stroke 1: Starts at 0.0%, finishes at 5.5%, holds until 82.8% */
@keyframes zk1 {
    0%, 0.0% { stroke-dashoffset: 3339; }
    5.5%, 82.8% { stroke-dashoffset: 0; }
    82.9%, 100% { stroke-dashoffset: 3339; }
}
svg.acjk #stroke-p1 { animation-name: zk1; }
/* Stroke 2: Starts at 5.5%, finishes at 11.0%, holds until 82.8% */
@keyframes zk2 {
    0%, 5.5% { stroke-dashoffset: 3339; }
    11.0%, 82.8% { stroke-dashoffset: 0; }
    82.9%, 100% { stroke-dashoffset: 3339; }
}
svg.acjk #stroke-p2 { animation-name: zk2; }
/* Stroke 3: Starts at 11.0%, finishes at 16.6%, holds until 82.8% */
@keyframes zk3 {
    0%, 11.0% { stroke-dashoffset: 3339; }
    16.6%, 82.8% { stroke-dashoffset: 0; }
    82.9%, 100% { stroke-dashoffset: 3339; }
}
svg.acjk #stroke-p3 { animation-name: zk3; }
/* Stroke 4: Starts at 16.6%, finishes at 22.1%, holds until 82.8% */
@keyframes zk4 {
    0%, 16.6% { stroke-dashoffset: 3339; }
    22.1%, 82.8% { stroke-dashoffset: 0; }
    82.9%, 100% { stroke-dashoffset: 3339; }
}
svg.acjk #stroke-p4 { animation-name: zk4; }
/* Stroke 5: Starts at 22.1%, finishes at 27.6%, holds until 82.8% */
@keyframes zk5 {
    0%, 22.1% { stroke-dashoffset: 3339; }
    27.6%, 82.8% { stroke-dashoffset: 0; }
    82.9%, 100% { stroke-dashoffset: 3339; }
}
svg.acjk #stroke-p5 { animation-name: zk5; }
/* Stroke 6: Starts at 27.6%, finishes at 33.1%, holds until 82.8% */
@keyframes zk6 {
    0%, 27.6% { stroke-dashoffset: 3339; }
    33.1%, 82.8% { stroke-dashoffset: 0; }
    82.9%, 100% { stroke-dashoffset: 3339; }
}
svg.acjk #stroke-p6 { animation-name: zk6; }
/* Stroke 7: Starts at 33.1%, finishes at 38.6%, holds until 82.8% */
@keyframes zk7 {
    0%, 33.1% { stroke-dashoffset: 3339; }
    38.6%, 82.8% { stroke-dashoffset: 0; }
    82.9%, 100% { stroke-dashoffset: 3339; }
}
svg.acjk #stroke-p7 { animation-name: zk7; }
/* Stroke 8: Starts at 38.6%, finishes at 44.1%, holds until 82.8% */
@keyframes zk8 {
    0%, 38.6% { stroke-dashoffset: 3339; }
    44.1%, 82.8% { stroke-dashoffset: 0; }
    82.9%, 100% { stroke-dashoffset: 3339; }
}
svg.acjk #stroke-p8 { animation-name: zk8; }
/* Stroke 9: Starts at 44.1%, finishes at 49.7%, holds until 82.8% */
@keyframes zk9 {
    0%, 44.1% { stroke-dashoffset: 3339; }
    49.7%, 82.8% { stroke-dashoffset: 0; }
    82.9%, 100% { stroke-dashoffset: 3339; }
}
svg.acjk #stroke-p9 { animation-name: zk9; }
/* Stroke 10: Starts at 49.7%, finishes at 55.2%, holds until 82.8% */
@keyframes zk10 {
    0%, 49.7% { stroke-dashoffset: 3339; }
    55.2%, 82.8% { stroke-dashoffset: 0; }
    82.9%, 100% { stroke-dashoffset: 3339; }
}
svg.acjk #stroke-p10 { animation-name: zk10; }
/* Stroke 11: Starts at 55.2%, finishes at 60.7%, holds until 82.8% */
@keyframes zk11 {
    0%, 55.2% { stroke-dashoffset: 3339; }
    60.7%, 82.8% { stroke-dashoffset: 0; }
    82.9%, 100% { stroke-dashoffset: 3339; }
}
svg.acjk #stroke-p11 { animation-name: zk11; }
/* Stroke 12: Starts at 60.7%, finishes at 66.2%, holds until 82.8% */
@keyframes zk12 {
    0%, 60.7% { stroke-dashoffset: 3339; }
    66.2%, 82.8% { stroke-dashoffset: 0; }
    82.9%, 100% { stroke-dashoffset: 3339; }
}
svg.acjk #stroke-p12 { animation-name: zk12; }
/* Stroke 13: Starts at 66.2%, finishes at 71.7%, holds until 82.8% */
@keyframes zk13 {
    0%, 66.2% { stroke-dashoffset: 3339; }
    71.7%, 82.8% { stroke-dashoffset: 0; }
    82.9%, 100% { stroke-dashoffset: 3339; }
}
svg.acjk #stroke-p13 { animation-name: zk13; }
/* Stroke 14: Starts at 71.7%, finishes at 77.2%, holds until 82.8% */
@keyframes zk14 {
    0%, 71.7% { stroke-dashoffset: 3339; }
    77.2%, 82.8% { stroke-dashoffset: 0; }
    82.9%, 100% { stroke-dashoffset: 3339; }
}
svg.acjk #stroke-p14 { animation-name: zk14; }
/* Stroke 15: Starts at 77.2%, finishes at 82.8%, holds until 82.8% */
@keyframes zk15 {
    0%, 77.2% { stroke-dashoffset: 3339; }
    82.8%, 82.8% { stroke-dashoffset: 0; }
    82.9%, 100% { stroke-dashoffset: 3339; }
}
svg.acjk #stroke-p15 { animation-name: zk15; }
]]>
</style>
<defs>
    <path id="p1" d="M 307 366 C 351 354 375 346 380 343 C 385 338 387 332 384 327 C 379 320 367 313 348 310 C 333 307 320 308 309 313 C 276 325 276 325 259 331 C 211 348 162 355 115 364 C 92 368 88 377 106 386 C 133 399 169 399 212 389 C 226 385 242 381 258 378 C 291 370 291 370 307 366 Z"/>
    <path id="p2" d="M 254 560 C 252 620 251 690 250 769 C 249 785 244 796 236 802 C 231 804 207 804 165 794 C 142 788 133 784 135 791 C 136 795 142 803 156 814 C 196 846 222 872 232 892 C 242 913 253 925 264 927 C 273 927 284 916 294 893 C 306 863 312 823 311 774 C 307 687 304 602 304 516 C 304 505 304 494 304 483 C 304 444 305 405 307 366 C 308 331 308 331 309 313 C 311 247 313 189 330 144 C 337 122 327 107 292 91 C 268 80 251 74 239 79 C 227 83 225 93 237 108 C 251 126 258 146 259 169 C 259 181 261 235 259 331 C 258 362 258 362 258 378 C 257 416 256 462 255 515 C 254 545 254 545 254 560 Z"/>
    <path id="p3" d="M 255 515 C 203 548 154 580 108 613 C 87 627 69 636 55 642 C 46 645 41 650 41 656 C 40 661 45 669 55 677 C 67 686 81 692 97 697 C 107 699 115 696 122 688 C 155 646 201 606 254 560 C 287 531 287 531 304 516 C 351 473 376 452 377 452 C 381 443 379 438 372 440 C 361 441 341 458 304 483 C 271 504 271 504 255 515 Z"/>
    <path id="p4" d="M 612 193 C 676 176 715 155 736 154 C 746 153 753 150 756 146 C 759 139 756 132 749 126 C 736 115 716 105 690 94 C 679 89 670 85 663 87 C 657 88 656 94 656 101 C 652 127 591 161 477 213 C 472 215 473 223 477 224 C 492 226 523 215 569 204 C 598 197 598 197 612 193 Z"/>
    <path id="p5" d="M 445 276 C 473 316 495 337 511 341 C 519 342 526 339 529 328 C 530 320 528 309 524 298 C 519 287 509 281 496 274 C 474 262 460 254 451 253 C 446 252 442 254 441 261 C 439 265 441 270 445 276 Z"/>
    <path id="p6" d="M 736 214 C 725 232 708 254 687 281 C 683 284 683 290 687 293 C 690 295 695 292 699 290 C 741 261 773 240 795 231 C 804 226 808 224 806 218 C 802 209 796 200 786 191 C 775 181 765 174 753 174 C 744 173 741 180 742 190 C 742 196 741 204 736 214 Z"/>
    <path id="p7" d="M 644 386 C 652 384 717 377 840 367 C 851 365 858 363 861 358 C 863 351 860 342 850 336 C 814 312 775 313 733 327 C 704 335 671 341 634 351 C 607 358 607 358 593 361 C 532 375 467 386 397 400 C 385 402 383 408 394 417 C 412 432 432 436 454 430 C 484 420 515 410 548 404 C 612 392 612 392 644 386 Z"/>
    <path id="p8" d="M 634 351 C 636 299 642 260 656 236 C 659 229 659 222 651 215 C 639 205 626 199 612 193 C 598 188 564 190 569 204 C 589 261 592 313 593 361 C 593 399 593 399 593 418 C 593 470 588 505 587 527 C 585 543 590 549 602 574 C 606 584 615 586 624 581 C 630 577 634 554 633 514 C 631 479 628 443 631 406 C 633 369 633 369 634 351 Z"/>
    <path id="p9" d="M 548 404 C 526 462 459 528 349 602 C 339 608 338 614 348 614 C 387 610 437 584 467 562 C 522 519 560 470 593 418 C 615 382 564 365 548 404 Z"/>
    <path id="p10" d="M 631 406 C 675 454 722 502 773 548 C 787 561 806 566 831 566 C 874 565 918 559 963 548 C 973 545 980 542 981 540 C 982 535 977 531 969 529 C 845 496 752 460 692 420 C 675 408 659 395 644 386 C 630 378 621 393 631 406 Z"/>
    <path id="p11" d="M 453 641 C 445 637 432 634 417 631 C 408 629 403 629 401 632 C 396 636 396 643 402 655 C 422 702 438 765 447 842 C 449 864 455 884 468 900 C 479 914 487 917 491 907 C 493 900 495 893 495 885 C 495 875 496 864 495 855 C 491 826 477 738 471 679 C 469 665 466 646 453 641 Z"/>
    <path id="p12" d="M 722 862 C 724 881 722 902 737 932 C 752 964 771 938 780 921 C 792 894 809 832 823 732 C 827 700 835 674 851 656 C 861 643 864 631 856 623 C 842 608 818 596 789 582 C 776 576 760 575 739 583 C 660 610 565 630 453 641 C 439 643 457 679 471 679 C 485 679 550 665 583 659 C 607 654 607 654 619 652 C 649 646 684 638 724 632 C 740 629 754 630 761 639 C 774 658 770 714 753 803 C 750 819 744 830 735 841 C 730 848 722 854 722 862 Z"/>
    <path id="p13" d="M 636 759 C 662 754 687 750 711 747 C 725 744 730 738 725 731 C 718 722 707 715 691 713 C 678 710 661 713 640 719 C 607 728 607 728 590 733 C 564 740 540 746 519 752 C 508 754 509 759 522 769 C 526 772 549 772 590 766 C 621 761 621 761 636 759 Z"/>
    <path id="p14" d="M 629 832 C 631 805 633 780 636 759 C 639 732 639 732 640 719 C 643 679 648 668 619 652 C 609 646 578 648 583 659 C 587 669 590 693 590 733 C 590 755 590 755 590 766 C 590 790 590 840 590 840 C 590 853 629 845 629 832 Z"/>
    <path id="p15" d="M 495 885 C 509 889 532 879 722 862 C 730 862 741 847 735 841 C 706 810 657 826 629 832 C 603 837 603 837 590 840 C 555 847 523 849 495 855 C 485 857 485 883 495 885 Z"/>

    <clipPath id="z25773c1"><use href="#p1"/></clipPath>
    <clipPath id="z25773c2"><use href="#p2"/></clipPath>
    <clipPath id="z25773c3"><use href="#p3"/></clipPath>
    <clipPath id="z25773c4"><use href="#p4"/></clipPath>
    <clipPath id="z25773c5"><use href="#p5"/></clipPath>
    <clipPath id="z25773c6"><use href="#p6"/></clipPath>
    <clipPath id="z25773c7"><use href="#p7"/></clipPath>
    <clipPath id="z25773c8"><use href="#p8"/></clipPath>
    <clipPath id="z25773c9"><use href="#p9"/></clipPath>
    <clipPath id="z25773c10"><use href="#p10"/></clipPath>
    <clipPath id="z25773c11"><use href="#p11"/></clipPath>
    <clipPath id="z25773c12"><use href="#p12"/></clipPath>
    <clipPath id="z25773c13"><use href="#p13"/></clipPath>
    <clipPath id="z25773c14"><use href="#p14"/></clipPath>
    <clipPath id="z25773c15"><use href="#p15"/></clipPath>
</defs>
<g id="bg-layer" class="bg">
<use href="#p1"/>
<use href="#p2"/>
<use href="#p3"/>
<use href="#p4"/>
<use href="#p5"/>
<use href="#p6"/>
<use href="#p7"/>
<use href="#p8"/>
<use href="#p9"/>
<use href="#p10"/>
<use href="#p11"/>
<use href="#p12"/>
<use href="#p13"/>
<use href="#p14"/>
<use href="#p15"/>
</g>
<g id="anim-layer">
    <path id="stroke-p1" style="stroke:#FF4444" pathLength="3333" clip-path="url(#z25773c1)" d="M 104 375 L 379 333"/>
    <path id="stroke-p2" style="stroke:#FF4444" pathLength="3333" clip-path="url(#z25773c2)" d="M 237 88 L 294 141 L 277 807 L 248 873 L 144 794"/>
    <path id="stroke-p3" style="stroke:#FF4444" pathLength="3333" clip-path="url(#z25773c3)" d="M 44 654 L 104 658 L 370 448"/>
    <path id="stroke-p4" style="stroke:#000" pathLength="3333" clip-path="url(#z25773c4)" d="M 665 96 L 697 140 L 483 218"/>
    <path id="stroke-p5" style="stroke:#000" pathLength="3333" clip-path="url(#z25773c5)" d="M 448 262 L 523 333"/>
    <path id="stroke-p6" style="stroke:#000" pathLength="3333" clip-path="url(#z25773c6)" d="M 753 177 L 769 220 L 692 286"/>
    <path id="stroke-p7" style="stroke:#000" pathLength="3333" clip-path="url(#z25773c7)" d="M 395 409 L 762 346 L 857 350"/>
    <path id="stroke-p8" style="stroke:#000" pathLength="3333" clip-path="url(#z25773c8)" d="M 577 204 L 620 239 L 613 579"/>
    <path id="stroke-p9" style="stroke:#000" pathLength="3333" clip-path="url(#z25773c9)" d="M 594 395 L 465 539 L 351 608"/>
    <path id="stroke-p10" style="stroke:#000" pathLength="3333" clip-path="url(#z25773c10)" d="M 636 394 L 793 515 L 975 535"/>
    <path id="stroke-p11" style="stroke:#000" pathLength="3333" clip-path="url(#z25773c11)" d="M 406 640 L 441 675 L 482 905"/>
    <path id="stroke-p12" style="stroke:#000" pathLength="3333" clip-path="url(#z25773c12)" d="M 455 649 L 754 605 L 802 630 L 814 650 L 747 940"/>
    <path id="stroke-p13" style="stroke:#000" pathLength="3333" clip-path="url(#z25773c13)" d="M 520 760 L 721 736"/>
    <path id="stroke-p14" style="stroke:#000" pathLength="3333" clip-path="url(#z25773c14)" d="M 591 656 L 615 692 L 605 844"/>
    <path id="stroke-p15" style="stroke:#000" pathLength="3333" clip-path="url(#z25773c15)" d="M 493 874 L 729 843"/>
</g>
</svg>