<svg id="z25912" class="acjk" viewBox="0 0 1024 1024" xmlns="http://www.w3.org/2000/svg">
<style>
<![CDATA[
svg.acjk path[clip-path] {
    animation-duration: 8.100000000000001s;
    animation-timing-function: linear;
    animation-iteration-count: infinite;
    stroke-dasharray: 3337;
    stroke-dashoffset: 3339;
    stroke-width: 128;
    stroke-linecap: round;
    fill: none;
    stroke: #FF4444;
}
svg.acjk .bg { fill: #ccc; opacity: 0.5; }

/* Stroke 1: Starts at 0.0%, finishes at 9.9%, holds until 69.1% */
@keyframes zk1 {
    0%, 0.0% { stroke-dashoffset: 3339; }
    9.9%, 69.1% { stroke-dashoffset: 0; }
    69.2%, 100% { stroke-dashoffset: 3339; }
}
svg.acjk #stroke-p1 { animation-name: zk1; }
/* Stroke 2: Starts at 9.9%, finishes at 19.8%, holds until 69.1% */
@keyframes zk2 {
    0%, 9.9% { stroke-dashoffset: 3339; }
    19.8%, 69.1% { stroke-dashoffset: 0; }
    69.2%, 100% { stroke-dashoffset: 3339; }
}
svg.acjk #stroke-p2 { animation-name: zk2; }
/* Stroke 3: Starts at 19.8%, finishes at 29.6%, holds until 69.1% */
@keyframes zk3 {
    0%, 19.8% { stroke-dashoffset: 3339; }
    29.6%, 69.1% { stroke-dashoffset: 0; }
    69.2%, 100% { stroke-dashoffset: 3339; }
}
svg.acjk #stroke-p3 { animation-name: zk3; }
/* Stroke 4: Starts at 29.6%, finishes at 39.5%, holds until 69.1% */
@keyframes zk4 {
    0%, 29.6% { stroke-dashoffset: 3339; }
    39.5%, 69.1% { stroke-dashoffset: 0; }
    69.2%, 100% { stroke-dashoffset: 3339; }
}
svg.acjk #stroke-p4 { animation-name: zk4; }
/* Stroke 5: Starts at 39.5%, finishes at 49.4%, holds until 69.1% */
@keyframes zk5 {
    0%, 39.5% { stroke-dashoffset: 3339; }
    49.4%, 69.1% { stroke-dashoffset: 0; }
    69.2%, 100% { stroke-dashoffset: 3339; }
}
svg.acjk #stroke-p5 { animation-name: zk5; }
/* Stroke 6: Starts at 49.4%, finishes at 59.3%, holds until 69.1% */
@keyframes zk6 {
    0%, 49.4% { stroke-dashoffset: 3339; }
    59.3%, 69.1% { stroke-dashoffset: 0; }
    69.2%, 100% { stroke-dashoffset: 3339; }
}
svg.acjk #stroke-p6 { animation-name: zk6; }
/* Stroke 7: Starts at 59.3%, finishes at 69.1%, holds until 69.1% */
@keyframes zk7 {
    0%, 59.3% { stroke-dashoffset: 3339; }
    69.1%, 69.1% { stroke-dashoffset: 0; }
    69.2%, 100% { stroke-dashoffset: 3339; }
}
svg.acjk #stroke-p7 { animation-name: zk7; }
]]>
</style>
<defs>
    <path id="p1" d="M 227 405 Q 272 344 320 263 Q 348 211 373 184 Q 383 174 377 158 Q 373 145 341 121 Q 313 102 292 102 Q 271 105 281 128 Q 297 162 284 191 Q 224 350 51 567 Q 41 577 38 585 Q 34 597 49 594 Q 89 585 193 450 Q 194 446 198 443 C 217 418 217 418 227 405 Z"/>
    <path id="p2" d="M 198 443 Q 198 444 200 447 Q 230 504 210 699 Q 203 753 189 809 Q 174 858 211 906 Q 212 909 216 912 Q 235 928 247 900 Q 262 858 262 810 Q 262 546 270 487 Q 277 459 267 448 Q 249 426 235 412 Q 231 408 227 405 C 214 395 191 429 198 443 Z"/>
    <path id="p3" d="M 338 382 Q 366 443 344 633 Q 337 666 363 701 C 364 702 364 702 364 702 Q 373 712 382 702 Q 400 672 401 586 Q 401 459 408 411 Q 415 389 395 379 Q 356 355 342 361 Q 335 368 338 382 Z"/>
    <path id="p4" d="M 535 357 Q 601 252 630 192 Q 643 156 659 138 Q 666 126 660 113 Q 654 100 622 82 Q 592 67 573 70 Q 554 74 566 96 Q 579 117 575 137 Q 560 206 532 272 Q 504 336 462 408 Q 453 420 452 426 Q 451 438 464 433 Q 479 427 520 377 C 530 364 530 364 535 357 Z"/>
    <path id="p5" d="M 683 372 Q 746 353 812 336 Q 855 323 861 317 Q 868 308 864 300 Q 857 288 826 283 Q 795 279 698 318 Q 553 354 535 357 C 527 359 513 372 520 377 Q 530 387 566 393 Q 593 396 635 384 C 667 376 667 376 683 372 Z"/>
    <path id="p6" d="M 644 666 Q 689 584 712 448 Q 716 421 722 410 Q 729 403 723 392 Q 717 385 687 373 Q 686 372 683 372 C 667 369 629 369 635 384 C 636 385 636 385 636 385 Q 669 499 607 626 C 593 650 593 650 586 662 Q 537 731 392 802 Q 367 815 397 815 Q 475 818 577 748 Q 598 732 617 707 C 617 706 617 706 617 706 C 635 679 635 679 644 666 Z"/>
    <path id="p7" d="M 617 706 Q 669 778 738 851 Q 756 873 785 875 Q 876 885 952 881 Q 991 880 989 869 Q 986 863 808 791 Q 729 751 644 666 C 619 639 619 639 607 626 Q 574 587 541 545 Q 507 503 473 499 Q 455 498 451 502 Q 450 509 463 521 Q 505 552 586 662 C 607 691 607 691 617 706 Z"/>

    <clipPath id="z25912c1"><use href="#p1"/></clipPath>
    <clipPath id="z25912c2"><use href="#p2"/></clipPath>
    <clipPath id="z25912c3"><use href="#p3"/></clipPath>
    <clipPath id="z25912c4"><use href="#p4"/></clipPath>
    <clipPath id="z25912c5"><use href="#p5"/></clipPath>
    <clipPath id="z25912c6"><use href="#p6"/></clipPath>
    <clipPath id="z25912c7"><use href="#p7"/></clipPath>
</defs>
<g id="bg-layer" class="bg">
<use href="#p1"/>
<use href="#p2"/>
<use href="#p3"/>
<use href="#p4"/>
<use href="#p5"/>
<use href="#p6"/>
<use href="#p7"/>
</g>
<g id="anim-layer">
    <path id="stroke-p1" style="stroke:#FF4444" pathLength="3333" clip-path="url(#z25912c1)" d="M 285 112 L 327 150 L 328 185 L 191 415 L 43 587"/>
    <path id="stroke-p2" style="stroke:#FF4444" pathLength="3333" clip-path="url(#z25912c2)" d="M 226 412 L 242 542 L 221 912"/>
    <path id="stroke-p3" style="stroke:#000" pathLength="3333" clip-path="url(#z25912c3)" d="M 346 370 L 378 404 L 368 703"/>
    <path id="stroke-p4" style="stroke:#000" pathLength="3333" clip-path="url(#z25912c4)" d="M 567 80 L 613 112 L 615 139 L 536 315 L 460 426"/>
    <path id="stroke-p5" style="stroke:#000" pathLength="3333" clip-path="url(#z25912c5)" d="M 528 375 L 860 300"/>
    <path id="stroke-p6" style="stroke:#000" pathLength="3333" clip-path="url(#z25912c6)" d="M 643 386 L 684 414 L 621 653 L 552 734 L 391 811"/>
    <path id="stroke-p7" style="stroke:#000" pathLength="3333" clip-path="url(#z25912c7)" d="M 459 505 L 769 821 L 982 872"/>
</g>
</svg>