<svg id="z26122" class="acjk" viewBox="0 0 1024 1024" xmlns="http://www.w3.org/2000/svg">
<style>
<![CDATA[
svg.acjk path[clip-path] {
    animation-duration: 8.9s;
    animation-timing-function: linear;
    animation-iteration-count: infinite;
    stroke-dasharray: 3337;
    stroke-dashoffset: 3339;
    stroke-width: 128;
    stroke-linecap: round;
    fill: none;
    stroke: #FF4444;
}
svg.acjk .bg { fill: #ccc; opacity: 0.5; }

/* Stroke 1: Starts at 0.0%, finishes at 9.0%, holds until 71.9% */
@keyframes zk1 {
    0%, 0.0% { stroke-dashoffset: 3339; }
    9.0%, 71.9% { stroke-dashoffset: 0; }
    72.0%, 100% { stroke-dashoffset: 3339; }
}
svg.acjk #stroke-p1 { animation-name: zk1; }
/* Stroke 2: Starts at 9.0%, finishes at 18.0%, holds until 71.9% */
@keyframes zk2 {
    0%, 9.0% { stroke-dashoffset: 3339; }
    18.0%, 71.9% { stroke-dashoffset: 0; }
    72.0%, 100% { stroke-dashoffset: 3339; }
}
svg.acjk #stroke-p2 { animation-name: zk2; }
/* Stroke 3: Starts at 18.0%, finishes at 27.0%, holds until 71.9% */
@keyframes zk3 {
    0%, 18.0% { stroke-dashoffset: 3339; }
    27.0%, 71.9% { stroke-dashoffset: 0; }
    72.0%, 100% { stroke-dashoffset: 3339; }
}
svg.acjk #stroke-p3 { animation-name: zk3; }
/* Stroke 4: Starts at 27.0%, finishes at 36.0%, holds until 71.9% */
@keyframes zk4 {
    0%, 27.0% { stroke-dashoffset: 3339; }
    36.0%, 71.9% { stroke-dashoffset: 0; }
    72.0%, 100% { stroke-dashoffset: 3339; }
}
svg.acjk #stroke-p4 { animation-name: zk4; }
/* Stroke 5: Starts at 36.0%, finishes at 44.9%, holds until 71.9% */
@keyframes zk5 {
    0%, 36.0% { stroke-dashoffset: 3339; }
    44.9%, 71.9% { stroke-dashoffset: 0; }
    72.0%, 100% { stroke-dashoffset: 3339; }
}
svg.acjk #stroke-p5 { animation-name: zk5; }
/* Stroke 6: Starts at 44.9%, finishes at 53.9%, holds until 71.9% */
@keyframes zk6 {
    0%, 44.9% { stroke-dashoffset: 3339; }
    53.9%, 71.9% { stroke-dashoffset: 0; }
    72.0%, 100% { stroke-dashoffset: 3339; }
}
svg.acjk #stroke-p6 { animation-name: zk6; }
/* Stroke 7: Starts at 53.9%, finishes at 62.9%, holds until 71.9% */
@keyframes zk7 {
    0%, 53.9% { stroke-dashoffset: 3339; }
    62.9%, 71.9% { stroke-dashoffset: 0; }
    72.0%, 100% { stroke-dashoffset: 3339; }
}
svg.acjk #stroke-p7 { animation-name: zk7; }
/* Stroke 8: Starts at 62.9%, finishes at 71.9%, holds until 71.9% */
@keyframes zk8 {
    0%, 62.9% { stroke-dashoffset: 3339; }
    71.9%, 71.9% { stroke-dashoffset: 0; }
    72.0%, 100% { stroke-dashoffset: 3339; }
}
svg.acjk #stroke-p8 { animation-name: zk8; }
]]>
</style>
<defs>
    <path id="p1" d="M 309 130 C 304 129 299 129 294 128 C 285 125 280 126 277 130 C 272 135 273 142 280 155 C 304 201 324 263 337 342 C 340 364 348 383 362 400 C 375 415 383 418 388 406 C 390 399 391 391 391 381 C 390 361 390 361 390 351 C 389 338 378 289 375 274 C 371 255 371 255 369 246 C 361 209 358 184 356 170 C 353 150 329 134 309 130 Z"/>
    <path id="p2" d="M 585 358 C 595 374 606 384 616 391 C 623 396 633 394 645 378 C 656 362 673 309 698 220 C 704 197 716 177 735 161 C 744 152 745 142 737 132 C 726 119 706 101 676 83 C 662 74 629 80 578 91 C 568 92 513 102 433 116 C 372 126 331 132 309 130 C 288 130 336 177 356 170 C 356 169 356 169 358 169 C 414 154 491 140 591 127 C 613 124 627 125 634 133 C 643 143 645 154 643 165 C 622 262 605 316 592 324 C 584 332 578 349 585 358 Z"/>
    <path id="p3" d="M 375 274 C 381 270 442 260 558 244 C 574 241 578 236 573 228 C 566 218 554 211 537 209 C 521 206 465 218 369 246 C 360 250 366 278 375 274 Z"/>
    <path id="p4" d="M 391 381 C 413 380 506 364 585 358 C 597 358 603 328 592 324 C 578 317 562 314 544 319 C 485 334 449 339 390 351 C 380 353 381 381 391 381 Z"/>
    <path id="p5" d="M 487 505 C 611 485 674 470 677 469 C 683 464 685 458 682 452 C 677 443 665 435 646 431 C 625 425 581 438 512 453 C 424 470 365 472 336 475 C 311 477 306 486 324 498 C 353 517 382 521 431 514 C 468 508 468 508 487 505 Z"/>
    <path id="p6" d="M 514 644 C 574 637 667 634 793 634 C 807 634 815 631 819 625 C 823 617 819 607 808 599 C 772 571 741 561 715 567 C 662 577 593 593 507 604 C 465 609 465 609 444 612 C 370 621 291 631 209 641 C 194 642 191 648 203 661 C 212 671 224 677 236 681 C 250 685 263 685 275 682 C 325 667 379 658 437 652 C 488 647 488 647 514 644 Z"/>
    <path id="p7" d="M 507 604 C 515 568 519 547 523 543 C 527 537 528 532 524 525 C 520 519 507 513 487 505 C 469 499 421 498 431 514 C 446 539 451 569 444 612 C 439 639 439 639 437 652 C 422 738 362 799 293 841 C 265 857 227 872 182 893 C 163 901 164 907 186 908 C 242 910 304 889 378 841 C 428 807 471 752 493 662 C 502 623 502 623 507 604 Z"/>
    <path id="p8" d="M 493 662 C 557 744 632 830 716 919 C 730 933 748 939 771 938 C 847 932 896 928 920 923 C 926 921 931 918 932 915 C 932 911 927 905 916 902 C 816 872 738 838 684 796 C 629 753 573 702 514 644 C 501 631 482 648 493 662 Z"/>

    <clipPath id="z26122c1"><use href="#p1"/></clipPath>
    <clipPath id="z26122c2"><use href="#p2"/></clipPath>
    <clipPath id="z26122c3"><use href="#p3"/></clipPath>
    <clipPath id="z26122c4"><use href="#p4"/></clipPath>
    <clipPath id="z26122c5"><use href="#p5"/></clipPath>
    <clipPath id="z26122c6"><use href="#p6"/></clipPath>
    <clipPath id="z26122c7"><use href="#p7"/></clipPath>
    <clipPath id="z26122c8"><use href="#p8"/></clipPath>
</defs>
<g id="bg-layer" class="bg">
<use href="#p1"/>
<use href="#p2"/>
<use href="#p3"/>
<use href="#p4"/>
<use href="#p5"/>
<use href="#p6"/>
<use href="#p7"/>
<use href="#p8"/>
</g>
<g id="anim-layer">
    <path id="stroke-p1" style="stroke:#FF4444" pathLength="3333" clip-path="url(#z26122c1)" d="M 282 136 L 327 185 L 376 407"/>
    <path id="stroke-p2" style="stroke:#FF4444" pathLength="3333" clip-path="url(#z26122c2)" d="M 318 133 L 368 147 L 603 105 L 664 114 L 693 151 L 613 387"/>
    <path id="stroke-p3" style="stroke:#FF4444" pathLength="3333" clip-path="url(#z26122c3)" d="M 376 251 L 570 230"/>
    <path id="stroke-p4" style="stroke:#FF4444" pathLength="3333" clip-path="url(#z26122c4)" d="M 395 373 L 589 332"/>
    <path id="stroke-p5" style="stroke:#000" pathLength="3333" clip-path="url(#z26122c5)" d="M 325 488 L 678 456"/>
    <path id="stroke-p6" style="stroke:#000" pathLength="3333" clip-path="url(#z26122c6)" d="M 206 652 L 726 600 L 816 617"/>
    <path id="stroke-p7" style="stroke:#000" pathLength="3333" clip-path="url(#z26122c7)" d="M 439 521 L 484 553 L 418 757 L 315 853 L 177 903"/>
    <path id="stroke-p8" style="stroke:#000" pathLength="3333" clip-path="url(#z26122c8)" d="M 503 649 L 748 888 L 927 913"/>
</g>
</svg>