<svg id="z26177" class="acjk" viewBox="0 0 1024 1024" xmlns="http://www.w3.org/2000/svg">
<style>
<![CDATA[
svg.acjk path[clip-path] {
    animation-duration: 10.5s;
    animation-timing-function: linear;
    animation-iteration-count: infinite;
    stroke-dasharray: 3337;
    stroke-dashoffset: 3339;
    stroke-width: 128;
    stroke-linecap: round;
    fill: none;
    stroke: #FF4444;
}
svg.acjk .bg { fill: #ccc; opacity: 0.5; }

/* Stroke 1: Starts at 0.0%, finishes at 7.6%, holds until 76.2% */
@keyframes zk1 {
    0%, 0.0% { stroke-dashoffset: 3339; }
    7.6%, 76.2% { stroke-dashoffset: 0; }
    76.3%, 100% { stroke-dashoffset: 3339; }
}
svg.acjk #stroke-p1 { animation-name: zk1; }
/* Stroke 2: Starts at 7.6%, finishes at 15.2%, holds until 76.2% */
@keyframes zk2 {
    0%, 7.6% { stroke-dashoffset: 3339; }
    15.2%, 76.2% { stroke-dashoffset: 0; }
    76.3%, 100% { stroke-dashoffset: 3339; }
}
svg.acjk #stroke-p2 { animation-name: zk2; }
/* Stroke 3: Starts at 15.2%, finishes at 22.9%, holds until 76.2% */
@keyframes zk3 {
    0%, 15.2% { stroke-dashoffset: 3339; }
    22.9%, 76.2% { stroke-dashoffset: 0; }
    76.3%, 100% { stroke-dashoffset: 3339; }
}
svg.acjk #stroke-p3 { animation-name: zk3; }
/* Stroke 4: Starts at 22.9%, finishes at 30.5%, holds until 76.2% */
@keyframes zk4 {
    0%, 22.9% { stroke-dashoffset: 3339; }
    30.5%, 76.2% { stroke-dashoffset: 0; }
    76.3%, 100% { stroke-dashoffset: 3339; }
}
svg.acjk #stroke-p4 { animation-name: zk4; }
/* Stroke 5: Starts at 30.5%, finishes at 38.1%, holds until 76.2% */
@keyframes zk5 {
    0%, 30.5% { stroke-dashoffset: 3339; }
    38.1%, 76.2% { stroke-dashoffset: 0; }
    76.3%, 100% { stroke-dashoffset: 3339; }
}
svg.acjk #stroke-p5 { animation-name: zk5; }
/* Stroke 6: Starts at 38.1%, finishes at 45.7%, holds until 76.2% */
@keyframes zk6 {
    0%, 38.1% { stroke-dashoffset: 3339; }
    45.7%, 76.2% { stroke-dashoffset: 0; }
    76.3%, 100% { stroke-dashoffset: 3339; }
}
svg.acjk #stroke-p6 { animation-name: zk6; }
/* Stroke 7: Starts at 45.7%, finishes at 53.3%, holds until 76.2% */
@keyframes zk7 {
    0%, 45.7% { stroke-dashoffset: 3339; }
    53.3%, 76.2% { stroke-dashoffset: 0; }
    76.3%, 100% { stroke-dashoffset: 3339; }
}
svg.acjk #stroke-p7 { animation-name: zk7; }
/* Stroke 8: Starts at 53.3%, finishes at 61.0%, holds until 76.2% */
@keyframes zk8 {
    0%, 53.3% { stroke-dashoffset: 3339; }
    61.0%, 76.2% { stroke-dashoffset: 0; }
    76.3%, 100% { stroke-dashoffset: 3339; }
}
svg.acjk #stroke-p8 { animation-name: zk8; }
/* Stroke 9: Starts at 61.0%, finishes at 68.6%, holds until 76.2% */
@keyframes zk9 {
    0%, 61.0% { stroke-dashoffset: 3339; }
    68.6%, 76.2% { stroke-dashoffset: 0; }
    76.3%, 100% { stroke-dashoffset: 3339; }
}
svg.acjk #stroke-p9 { animation-name: zk9; }
/* Stroke 10: Starts at 68.6%, finishes at 76.2%, holds until 76.2% */
@keyframes zk10 {
    0%, 68.6% { stroke-dashoffset: 3339; }
    76.2%, 76.2% { stroke-dashoffset: 0; }
    76.3%, 100% { stroke-dashoffset: 3339; }
}
svg.acjk #stroke-p10 { animation-name: zk10; }
]]>
</style>
<defs>
    <path id="p1" d="M 349 147 C 335 142 278 125 300 165 C 324 208 342 266 358 339 C 362 361 371 379 383 393 C 394 406 404 398 409 376 C 410 366 409 357 407 348 C 399 319 396 300 391 277 C 387 261 387 261 385 253 C 376 220 373 196 370 182 C 368 169 362 152 349 147 Z"/>
    <path id="p2" d="M 579 360 C 588 384 611 400 632 375 C 643 361 658 314 685 236 C 692 214 705 196 722 181 C 731 172 733 162 725 153 C 715 140 696 124 668 106 C 655 97 643 96 632 100 C 611 105 587 109 561 113 C 485 123 416 137 349 147 C 336 150 357 186 370 182 C 369 181 370 181 372 181 C 424 168 496 156 588 145 C 638 138 637 167 635 180 C 622 240 604 305 588 323 C 580 333 574 348 579 360 Z"/>
    <path id="p3" d="M 391 277 C 446 272 503 263 559 255 C 591 250 570 225 539 221 C 516 217 477 229 385 253 C 377 254 383 277 391 277 Z"/>
    <path id="p4" d="M 409 376 C 426 377 500 366 579 360 C 592 360 600 328 588 323 C 561 310 557 317 407 348 C 398 350 400 376 409 376 Z"/>
    <path id="p5" d="M 388 527 C 395 766 295 831 186 886 C 168 894 152 908 206 898 C 272 887 345 853 393 768 C 447 673 437 589 457 510 C 461 492 466 489 456 479 C 429 453 389 436 365 443 C 352 446 350 456 361 468 C 374 483 387 506 388 527 Z"/>
    <path id="p6" d="M 247 519 C 261 531 276 547 292 564 C 302 575 325 583 333 563 C 336 554 334 541 330 523 C 327 511 317 500 300 493 C 259 476 233 468 224 473 C 220 474 218 480 220 488 C 220 494 230 505 247 519 Z"/>
    <path id="p7" d="M 166 693 C 146 699 153 719 164 724 C 178 730 196 739 219 747 C 225 749 232 744 238 738 C 250 724 279 696 329 659 C 377 622 362 613 320 635 C 300 646 270 657 236 670 C 194 685 170 691 166 693 Z"/>
    <path id="p8" d="M 590 878 C 630 910 722 919 860 900 C 884 896 934 889 947 867 C 950 861 948 850 942 836 C 929 809 917 766 907 708 C 903 691 893 674 887 698 C 878 730 868 761 859 789 C 851 811 847 824 825 836 C 795 851 715 857 671 853 C 640 849 604 836 594 793 C 586 762 585 713 588 646 C 590 572 598 518 612 486 C 616 473 616 462 610 454 C 602 444 584 434 559 424 C 521 409 499 418 521 451 C 534 471 540 497 540 529 C 540 667 540 667 540 736 C 540 800 553 849 590 878 Z"/>
    <path id="p9" d="M 638 550 C 630 559 635 567 645 563 C 728 523 753 491 789 476 C 822 461 788 434 763 420 C 731 401 719 407 720 423 C 720 458 665 514 638 550 Z"/>
    <path id="p10" d="M 643 634 C 673 654 708 680 748 714 C 763 726 778 742 793 721 C 798 712 795 695 785 670 C 775 646 749 629 705 619 C 676 612 655 608 640 606 C 633 604 630 606 631 614 C 631 622 635 629 643 634 Z"/>

    <clipPath id="z26177c1"><use href="#p1"/></clipPath>
    <clipPath id="z26177c2"><use href="#p2"/></clipPath>
    <clipPath id="z26177c3"><use href="#p3"/></clipPath>
    <clipPath id="z26177c4"><use href="#p4"/></clipPath>
    <clipPath id="z26177c5"><use href="#p5"/></clipPath>
    <clipPath id="z26177c6"><use href="#p6"/></clipPath>
    <clipPath id="z26177c7"><use href="#p7"/></clipPath>
    <clipPath id="z26177c8"><use href="#p8"/></clipPath>
    <clipPath id="z26177c9"><use href="#p9"/></clipPath>
    <clipPath id="z26177c10"><use href="#p10"/></clipPath>
</defs>
<g id="bg-layer" class="bg">
<use href="#p1"/>
<use href="#p2"/>
<use href="#p3"/>
<use href="#p4"/>
<use href="#p5"/>
<use href="#p6"/>
<use href="#p7"/>
<use href="#p8"/>
<use href="#p9"/>
<use href="#p10"/>
</g>
<g id="anim-layer">
    <path id="stroke-p1" style="stroke:#FF4444" pathLength="3333" clip-path="url(#z26177c1)" d="M 301 149 L 342 186 L 395 394"/>
    <path id="stroke-p2" style="stroke:#FF4444" pathLength="3333" clip-path="url(#z26177c2)" d="M 352 154 L 616 124 L 673 150 L 682 173 L 598 382"/>
    <path id="stroke-p3" style="stroke:#FF4444" pathLength="3333" clip-path="url(#z26177c3)" d="M 383 261 L 569 244"/>
    <path id="stroke-p4" style="stroke:#FF4444" pathLength="3333" clip-path="url(#z26177c4)" d="M 403 362 L 591 335"/>
    <path id="stroke-p5" style="stroke:#000" pathLength="3333" clip-path="url(#z26177c5)" d="M 357 451 L 423 504 L 383 732 L 304 837 L 176 897"/>
    <path id="stroke-p6" style="stroke:#000" pathLength="3333" clip-path="url(#z26177c6)" d="M 226 481 L 288 518 L 323 570"/>
    <path id="stroke-p7" style="stroke:#000" pathLength="3333" clip-path="url(#z26177c7)" d="M 156 705 L 221 711 L 350 628"/>
    <path id="stroke-p8" style="stroke:#000" pathLength="3333" clip-path="url(#z26177c8)" d="M 518 426 L 576 481 L 565 769 L 609 859 L 710 882 L 876 855 L 900 837 L 897 693"/>
    <path id="stroke-p9" style="stroke:#000" pathLength="3333" clip-path="url(#z26177c9)" d="M 728 417 L 752 466 L 642 557"/>
    <path id="stroke-p10" style="stroke:#000" pathLength="3333" clip-path="url(#z26177c10)" d="M 639 614 L 743 668 L 783 725"/>
</g>
</svg>