<svg id="z26172" class="acjk" viewBox="0 0 1024 1024" xmlns="http://www.w3.org/2000/svg">
<style>
<![CDATA[
svg.acjk path[clip-path] {
    animation-duration: 9.7s;
    animation-timing-function: linear;
    animation-iteration-count: infinite;
    stroke-dasharray: 3337;
    stroke-dashoffset: 3339;
    stroke-width: 128;
    stroke-linecap: round;
    fill: none;
    stroke: #FF4444;
}
svg.acjk .bg { fill: #ccc; opacity: 0.5; }

/* Stroke 1: Starts at 0.0%, finishes at 8.2%, holds until 74.2% */
@keyframes zk1 {
    0%, 0.0% { stroke-dashoffset: 3339; }
    8.2%, 74.2% { stroke-dashoffset: 0; }
    74.3%, 100% { stroke-dashoffset: 3339; }
}
svg.acjk #stroke-p1 { animation-name: zk1; }
/* Stroke 2: Starts at 8.2%, finishes at 16.5%, holds until 74.2% */
@keyframes zk2 {
    0%, 8.2% { stroke-dashoffset: 3339; }
    16.5%, 74.2% { stroke-dashoffset: 0; }
    74.3%, 100% { stroke-dashoffset: 3339; }
}
svg.acjk #stroke-p2 { animation-name: zk2; }
/* Stroke 3: Starts at 16.5%, finishes at 24.7%, holds until 74.2% */
@keyframes zk3 {
    0%, 16.5% { stroke-dashoffset: 3339; }
    24.7%, 74.2% { stroke-dashoffset: 0; }
    74.3%, 100% { stroke-dashoffset: 3339; }
}
svg.acjk #stroke-p3 { animation-name: zk3; }
/* Stroke 4: Starts at 24.7%, finishes at 33.0%, holds until 74.2% */
@keyframes zk4 {
    0%, 24.7% { stroke-dashoffset: 3339; }
    33.0%, 74.2% { stroke-dashoffset: 0; }
    74.3%, 100% { stroke-dashoffset: 3339; }
}
svg.acjk #stroke-p4 { animation-name: zk4; }
/* Stroke 5: Starts at 33.0%, finishes at 41.2%, holds until 74.2% */
@keyframes zk5 {
    0%, 33.0% { stroke-dashoffset: 3339; }
    41.2%, 74.2% { stroke-dashoffset: 0; }
    74.3%, 100% { stroke-dashoffset: 3339; }
}
svg.acjk #stroke-p5 { animation-name: zk5; }
/* Stroke 6: Starts at 41.2%, finishes at 49.5%, holds until 74.2% */
@keyframes zk6 {
    0%, 41.2% { stroke-dashoffset: 3339; }
    49.5%, 74.2% { stroke-dashoffset: 0; }
    74.3%, 100% { stroke-dashoffset: 3339; }
}
svg.acjk #stroke-p6 { animation-name: zk6; }
/* Stroke 7: Starts at 49.5%, finishes at 57.7%, holds until 74.2% */
@keyframes zk7 {
    0%, 49.5% { stroke-dashoffset: 3339; }
    57.7%, 74.2% { stroke-dashoffset: 0; }
    74.3%, 100% { stroke-dashoffset: 3339; }
}
svg.acjk #stroke-p7 { animation-name: zk7; }
/* Stroke 8: Starts at 57.7%, finishes at 66.0%, holds until 74.2% */
@keyframes zk8 {
    0%, 57.7% { stroke-dashoffset: 3339; }
    66.0%, 74.2% { stroke-dashoffset: 0; }
    74.3%, 100% { stroke-dashoffset: 3339; }
}
svg.acjk #stroke-p8 { animation-name: zk8; }
/* Stroke 9: Starts at 66.0%, finishes at 74.2%, holds until 74.2% */
@keyframes zk9 {
    0%, 66.0% { stroke-dashoffset: 3339; }
    74.2%, 74.2% { stroke-dashoffset: 0; }
    74.3%, 100% { stroke-dashoffset: 3339; }
}
svg.acjk #stroke-p9 { animation-name: zk9; }
]]>
</style>
<defs>
    <path id="p1" d="M 645 238 Q 666 187 691 172 Q 707 154 693 138 Q 677 125 628 102 Q 615 96 519 129 Q 426 151 369 161 C 358 163 370 195 381 193 Q 390 192 403 187 Q 490 169 572 151 Q 594 145 603 154 Q 610 161 608 176 Q 601 213 592 246 C 588 264 638 255 645 238 Z"/>
    <path id="p2" d="M 577 292 Q 617 285 672 279 Q 682 278 684 269 Q 685 260 654 241 Q 650 240 645 238 C 628 231 610 243 592 246 Q 463 277 360 295 C 349 297 343 324 353 327 Q 354 327 356 328 Q 366 331 379 327 Q 436 312 535 298 C 563 294 563 294 577 292 Z"/>
    <path id="p3" d="M 369 161 Q 327 133 314 134 Q 295 135 307 158 Q 332 212 284 410 Q 268 455 240 505 Q 204 568 123 627 Q 107 637 104 643 Q 101 650 112 651 Q 149 654 221 595 Q 314 516 353 327 C 358 306 358 306 360 295 Q 366 261 373 221 Q 377 202 381 193 C 385 182 378 168 369 161 Z"/>
    <path id="p4" d="M 535 298 Q 577 326 657 444 Q 754 576 794 580 Q 872 587 936 584 Q 969 583 967 573 Q 967 569 936 555 Q 764 486 708 430 Q 657 382 606 320 Q 591 301 577 292 C 566 284 524 290 535 298 Z"/>
    <path id="p5" d="M 360 492 Q 350 488 330 482 Q 318 478 315 483 Q 308 487 315 504 Q 340 571 349 677 Q 349 710 366 732 Q 381 754 387 740 Q 388 733 391 726 C 392 709 392 709 393 700 Q 393 673 386 620 C 385 604 385 604 384 596 Q 380 538 379 520 C 379 509 370 496 360 492 Z"/>
    <path id="p6" d="M 550 708 Q 566 730 581 738 Q 591 745 603 725 Q 616 700 640 559 Q 647 531 667 509 Q 679 497 668 485 Q 655 472 616 449 Q 601 443 534 458 Q 510 458 360 492 C 349 494 368 524 379 520 Q 418 507 552 488 Q 574 485 583 493 Q 596 508 594 524 Q 573 668 565 678 C 561 688 543 699 550 708 Z"/>
    <path id="p7" d="M 386 620 Q 390 621 397 620 Q 470 607 524 599 Q 546 595 537 583 Q 527 570 503 566 Q 469 562 384 596 C 376 599 378 620 386 620 Z"/>
    <path id="p8" d="M 391 726 Q 394 726 399 726 Q 484 714 550 708 C 561 708 575 682 565 678 Q 558 674 549 672 Q 527 669 393 700 C 384 702 382 726 391 726 Z"/>
    <path id="p9" d="M 509 858 Q 558 855 604 851 Q 712 842 854 855 Q 878 858 884 849 Q 891 836 879 824 Q 851 796 807 776 Q 792 770 767 778 Q 620 803 248 837 Q 206 840 158 840 Q 145 840 143 851 Q 142 863 161 878 Q 177 891 208 903 Q 218 907 237 899 Q 252 895 318 884 Q 403 866 509 858 Z"/>

    <clipPath id="z26172c1"><use href="#p1"/></clipPath>
    <clipPath id="z26172c2"><use href="#p2"/></clipPath>
    <clipPath id="z26172c3"><use href="#p3"/></clipPath>
    <clipPath id="z26172c4"><use href="#p4"/></clipPath>
    <clipPath id="z26172c5"><use href="#p5"/></clipPath>
    <clipPath id="z26172c6"><use href="#p6"/></clipPath>
    <clipPath id="z26172c7"><use href="#p7"/></clipPath>
    <clipPath id="z26172c8"><use href="#p8"/></clipPath>
    <clipPath id="z26172c9"><use href="#p9"/></clipPath>
</defs>
<g id="bg-layer" class="bg">
<use href="#p1"/>
<use href="#p2"/>
<use href="#p3"/>
<use href="#p4"/>
<use href="#p5"/>
<use href="#p6"/>
<use href="#p7"/>
<use href="#p8"/>
<use href="#p9"/>
</g>
<g id="anim-layer">
    <path id="stroke-p1" style="stroke:#FF4444" pathLength="3333" clip-path="url(#z26172c1)" d="M 379 167 L 615 128 L 653 159 L 600 239"/>
    <path id="stroke-p2" style="stroke:#FF4444" pathLength="3333" clip-path="url(#z26172c2)" d="M 359 322 L 679 263"/>
    <path id="stroke-p3" style="stroke:#FF4444" pathLength="3333" clip-path="url(#z26172c3)" d="M 308 141 L 347 191 L 296 442 L 217 571 L 109 644"/>
    <path id="stroke-p4" style="stroke:#FF4444" pathLength="3333" clip-path="url(#z26172c4)" d="M 547 300 L 787 533 L 962 574"/>
    <path id="stroke-p5" style="stroke:#000" pathLength="3333" clip-path="url(#z26172c5)" d="M 321 489 L 353 536 L 375 737"/>
    <path id="stroke-p6" style="stroke:#000" pathLength="3333" clip-path="url(#z26172c6)" d="M 367 494 L 576 469 L 630 497 L 566 725"/>
    <path id="stroke-p7" style="stroke:#000" pathLength="3333" clip-path="url(#z26172c7)" d="M 392 612 L 534 588"/>
    <path id="stroke-p8" style="stroke:#000" pathLength="3333" clip-path="url(#z26172c8)" d="M 397 718 L 559 687"/>
    <path id="stroke-p9" style="stroke:#000" pathLength="3333" clip-path="url(#z26172c9)" d="M 147 851 L 216 871 L 772 812 L 882 838"/>
</g>
</svg>