<svg id="z26245" class="acjk" viewBox="0 0 1024 1024" xmlns="http://www.w3.org/2000/svg">
<style>
<![CDATA[
svg.acjk path[clip-path] {
    animation-duration: 12.9s;
    animation-timing-function: linear;
    animation-iteration-count: infinite;
    stroke-dasharray: 3337;
    stroke-dashoffset: 3339;
    stroke-width: 128;
    stroke-linecap: round;
    fill: none;
    stroke: #FF4444;
}
svg.acjk .bg { fill: #ccc; opacity: 0.5; }

/* Stroke 1: Starts at 0.0%, finishes at 6.2%, holds until 80.6% */
@keyframes zk1 {
    0%, 0.0% { stroke-dashoffset: 3339; }
    6.2%, 80.6% { stroke-dashoffset: 0; }
    80.7%, 100% { stroke-dashoffset: 3339; }
}
svg.acjk #stroke-p1 { animation-name: zk1; }
/* Stroke 2: Starts at 6.2%, finishes at 12.4%, holds until 80.6% */
@keyframes zk2 {
    0%, 6.2% { stroke-dashoffset: 3339; }
    12.4%, 80.6% { stroke-dashoffset: 0; }
    80.7%, 100% { stroke-dashoffset: 3339; }
}
svg.acjk #stroke-p2 { animation-name: zk2; }
/* Stroke 3: Starts at 12.4%, finishes at 18.6%, holds until 80.6% */
@keyframes zk3 {
    0%, 12.4% { stroke-dashoffset: 3339; }
    18.6%, 80.6% { stroke-dashoffset: 0; }
    80.7%, 100% { stroke-dashoffset: 3339; }
}
svg.acjk #stroke-p3 { animation-name: zk3; }
/* Stroke 4: Starts at 18.6%, finishes at 24.8%, holds until 80.6% */
@keyframes zk4 {
    0%, 18.6% { stroke-dashoffset: 3339; }
    24.8%, 80.6% { stroke-dashoffset: 0; }
    80.7%, 100% { stroke-dashoffset: 3339; }
}
svg.acjk #stroke-p4 { animation-name: zk4; }
/* Stroke 5: Starts at 24.8%, finishes at 31.0%, holds until 80.6% */
@keyframes zk5 {
    0%, 24.8% { stroke-dashoffset: 3339; }
    31.0%, 80.6% { stroke-dashoffset: 0; }
    80.7%, 100% { stroke-dashoffset: 3339; }
}
svg.acjk #stroke-p5 { animation-name: zk5; }
/* Stroke 6: Starts at 31.0%, finishes at 37.2%, holds until 80.6% */
@keyframes zk6 {
    0%, 31.0% { stroke-dashoffset: 3339; }
    37.2%, 80.6% { stroke-dashoffset: 0; }
    80.7%, 100% { stroke-dashoffset: 3339; }
}
svg.acjk #stroke-p6 { animation-name: zk6; }
/* Stroke 7: Starts at 37.2%, finishes at 43.4%, holds until 80.6% */
@keyframes zk7 {
    0%, 37.2% { stroke-dashoffset: 3339; }
    43.4%, 80.6% { stroke-dashoffset: 0; }
    80.7%, 100% { stroke-dashoffset: 3339; }
}
svg.acjk #stroke-p7 { animation-name: zk7; }
/* Stroke 8: Starts at 43.4%, finishes at 49.6%, holds until 80.6% */
@keyframes zk8 {
    0%, 43.4% { stroke-dashoffset: 3339; }
    49.6%, 80.6% { stroke-dashoffset: 0; }
    80.7%, 100% { stroke-dashoffset: 3339; }
}
svg.acjk #stroke-p8 { animation-name: zk8; }
/* Stroke 9: Starts at 49.6%, finishes at 55.8%, holds until 80.6% */
@keyframes zk9 {
    0%, 49.6% { stroke-dashoffset: 3339; }
    55.8%, 80.6% { stroke-dashoffset: 0; }
    80.7%, 100% { stroke-dashoffset: 3339; }
}
svg.acjk #stroke-p9 { animation-name: zk9; }
/* Stroke 10: Starts at 55.8%, finishes at 62.0%, holds until 80.6% */
@keyframes zk10 {
    0%, 55.8% { stroke-dashoffset: 3339; }
    62.0%, 80.6% { stroke-dashoffset: 0; }
    80.7%, 100% { stroke-dashoffset: 3339; }
}
svg.acjk #stroke-p10 { animation-name: zk10; }
/* Stroke 11: Starts at 62.0%, finishes at 68.2%, holds until 80.6% */
@keyframes zk11 {
    0%, 62.0% { stroke-dashoffset: 3339; }
    68.2%, 80.6% { stroke-dashoffset: 0; }
    80.7%, 100% { stroke-dashoffset: 3339; }
}
svg.acjk #stroke-p11 { animation-name: zk11; }
/* Stroke 12: Starts at 68.2%, finishes at 74.4%, holds until 80.6% */
@keyframes zk12 {
    0%, 68.2% { stroke-dashoffset: 3339; }
    74.4%, 80.6% { stroke-dashoffset: 0; }
    80.7%, 100% { stroke-dashoffset: 3339; }
}
svg.acjk #stroke-p12 { animation-name: zk12; }
/* Stroke 13: Starts at 74.4%, finishes at 80.6%, holds until 80.6% */
@keyframes zk13 {
    0%, 74.4% { stroke-dashoffset: 3339; }
    80.6%, 80.6% { stroke-dashoffset: 0; }
    80.7%, 100% { stroke-dashoffset: 3339; }
}
svg.acjk #stroke-p13 { animation-name: zk13; }
]]>
</style>
<defs>
    <path id="p1" d="M 161 221 Q 124 197 110 203 Q 103 207 108 219 Q 132 285 133 415 Q 129 598 110 668 Q 97 722 130 763 Q 140 776 150 764 Q 160 749 162 724 C 165 702 165 702 166 691 Q 167 669 167 640 Q 168 544 169 473 C 170 453 170 453 170 443 Q 171 277 175 263 Q 176 253 176 246 C 176 236 169 227 161 221 Z"/>
    <path id="p2" d="M 244 713 Q 254 731 267 748 Q 282 770 289 768 Q 302 765 317 730 Q 332 690 327 640 Q 300 288 330 232 Q 340 216 332 206 Q 325 196 278 183 Q 256 176 240 186 Q 197 210 161 221 C 152 225 167 249 176 246 Q 188 243 231 226 Q 252 219 260 225 Q 275 240 274 298 Q 277 538 265 669 Q 266 681 262 686 C 258 696 239 703 244 713 Z"/>
    <path id="p3" d="M 169 473 Q 214 464 246 459 Q 267 453 258 443 Q 248 431 224 429 Q 203 429 170 443 C 161 447 159 475 169 473 Z"/>
    <path id="p4" d="M 162 724 Q 208 717 244 713 C 255 711 271 692 262 686 Q 253 679 239 678 Q 202 674 166 691 C 156 695 151 726 162 724 Z"/>
    <path id="p5" d="M 355 563 C 345 555 338 522 341 495 C 343 479 345 471 351 451 C 360 423 366 395 368 365 C 370 346 370 343 373 339 C 375 335 379 335 383 341 C 392 351 398 374 399 405 C 402 459 392 525 377 553 C 371 565 363 569 355 563 Z"/>
    <path id="p6" d="M 489 253 C 502 257 522 261 533 267 C 554 277 566 292 569 312 C 571 328 568 339 559 345 C 552 349 544 347 530 337 C 521 330 505 310 488 292 C 480 282 476 250 489 253 Z"/>
    <path id="p7" d="M 454 906 C 443 899 428 868 423 840 C 421 830 422 805 426 786 C 438 720 442 663 445 530 C 446 475 446 432 445 353 C 442 196 441 148 436 129 C 433 117 430 112 422 102 C 400 75 411 64 449 77 C 493 91 509 103 510 121 C 510 127 507 137 502 151 C 498 161 495 173 493 193 C 491 213 489 251 489 253 C 488 279 488 279 488 292 C 487 306 488 250 487 335 C 487 359 487 474 488 590 C 490 804 490 829 486 854 C 481 894 468 915 454 906 Z"/>
    <path id="p8" d="M 624 252 C 609 250 597 246 591 240 C 582 232 589 228 616 223 C 630 221 671 213 685 209 C 702 205 719 199 736 192 C 780 175 808 167 823 167 C 841 167 860 174 870 184 C 878 192 875 199 858 207 C 829 222 739 245 687 251 C 671 253 640 254 624 252 Z"/>
    <path id="p9" d="M 606 379 C 588 371 570 370 567 373 C 559 382 562 393 571 410 C 580 429 586 444 592 467 C 601 497 608 535 615 581 C 619 616 629 645 637 655 C 644 661 659 653 659 640 C 658 619 658 619 658 608 C 658 596 651 535 647 515 C 645 501 645 501 644 494 C 644 494 632 431 627 410 C 625 398 618 384 606 379 Z"/>
    <path id="p10" d="M 826 321 C 818 321 809 324 797 329 C 776 337 694 362 606 379 C 594 381 615 412 627 410 C 701 390 760 377 790 377 C 819 377 823 379 826 392 C 830 410 823 489 813 554 C 811 564 805 584 800 586 C 791 595 793 616 802 625 C 814 639 829 642 837 634 C 850 620 861 590 871 540 C 896 421 898 411 912 399 C 918 394 922 385 922 380 C 922 375 918 368 912 363 C 905 358 879 342 858 331 C 845 325 836 321 826 321 Z"/>
    <path id="p11" d="M 647 515 C 663 515 682 516 704 512 C 754 503 774 495 779 484 C 782 478 780 473 775 468 C 768 462 756 460 742 461 C 729 463 710 469 683 479 C 669 483 657 489 644 494 C 637 497 640 515 647 515 Z"/>
    <path id="p12" d="M 659 640 C 686 635 728 631 765 627 C 781 625 802 625 802 625 C 815 625 813 586 800 586 C 781 585 765 588 754 590 C 739 592 695 600 658 608 C 647 610 649 642 659 640 Z"/>
    <path id="p13" d="M 567 800 C 554 796 531 785 524 780 C 519 775 518 767 526 761 C 532 757 547 760 562 761 C 582 761 608 759 618 758 C 703 749 800 733 872 716 C 917 705 940 706 959 718 C 973 727 988 748 988 757 C 988 763 984 766 975 768 C 970 769 963 769 945 768 C 911 765 875 766 801 775 C 713 785 647 794 627 799 C 606 804 583 805 567 800 Z"/>

    <clipPath id="z26245c1"><use href="#p1"/></clipPath>
    <clipPath id="z26245c2"><use href="#p2"/></clipPath>
    <clipPath id="z26245c3"><use href="#p3"/></clipPath>
    <clipPath id="z26245c4"><use href="#p4"/></clipPath>
    <clipPath id="z26245c5"><use href="#p5"/></clipPath>
    <clipPath id="z26245c6"><use href="#p6"/></clipPath>
    <clipPath id="z26245c7"><use href="#p7"/></clipPath>
    <clipPath id="z26245c8"><use href="#p8"/></clipPath>
    <clipPath id="z26245c9"><use href="#p9"/></clipPath>
    <clipPath id="z26245c10"><use href="#p10"/></clipPath>
    <clipPath id="z26245c11"><use href="#p11"/></clipPath>
    <clipPath id="z26245c12"><use href="#p12"/></clipPath>
    <clipPath id="z26245c13"><use href="#p13"/></clipPath>
</defs>
<g id="bg-layer" class="bg">
<use href="#p1"/>
<use href="#p2"/>
<use href="#p3"/>
<use href="#p4"/>
<use href="#p5"/>
<use href="#p6"/>
<use href="#p7"/>
<use href="#p8"/>
<use href="#p9"/>
<use href="#p10"/>
<use href="#p11"/>
<use href="#p12"/>
<use href="#p13"/>
</g>
<g id="anim-layer">
    <path id="stroke-p1" style="stroke:#FF4444" pathLength="3333" clip-path="url(#z26245c1)" d="M 115 212 L 149 285 L 136 764"/>
    <path id="stroke-p2" style="stroke:#FF4444" pathLength="3333" clip-path="url(#z26245c2)" d="M 171 223 L 251 201 L 301 227 L 297 658 L 275 756"/>
    <path id="stroke-p3" style="stroke:#FF4444" pathLength="3333" clip-path="url(#z26245c3)" d="M 174 464 L 253 450"/>
    <path id="stroke-p4" style="stroke:#FF4444" pathLength="3333" clip-path="url(#z26245c4)" d="M 171 716 L 255 689"/>
    <path id="stroke-p5" style="stroke:#000" pathLength="3333" clip-path="url(#z26245c5)" d="M 381 349 L 363 558"/>
    <path id="stroke-p6" style="stroke:#000" pathLength="3333" clip-path="url(#z26245c6)" d="M 496 263 L 556 340"/>
    <path id="stroke-p7" style="stroke:#000" pathLength="3333" clip-path="url(#z26245c7)" d="M 417 82 L 475 121 L 462 900"/>
    <path id="stroke-p8" style="stroke:#000" pathLength="3333" clip-path="url(#z26245c8)" d="M 594 234 L 866 190"/>
    <path id="stroke-p9" style="stroke:#000" pathLength="3333" clip-path="url(#z26245c9)" d="M 570 383 L 598 407 L 644 653"/>
    <path id="stroke-p10" style="stroke:#000" pathLength="3333" clip-path="url(#z26245c10)" d="M 631 382 L 830 345 L 871 387 L 829 623"/>
    <path id="stroke-p11" style="stroke:#000" pathLength="3333" clip-path="url(#z26245c11)" d="M 651 496 L 773 480"/>
    <path id="stroke-p12" style="stroke:#000" pathLength="3333" clip-path="url(#z26245c12)" d="M 669 612 L 791 618"/>
    <path id="stroke-p13" style="stroke:#000" pathLength="3333" clip-path="url(#z26245c13)" d="M 529 772 L 597 782 L 931 739 L 978 759"/>
</g>
</svg>