<svg id="z26252" class="acjk" viewBox="0 0 1024 1024" xmlns="http://www.w3.org/2000/svg">
<style>
<![CDATA[
svg.acjk path[clip-path] {
    animation-duration: 12.9s;
    animation-timing-function: linear;
    animation-iteration-count: infinite;
    stroke-dasharray: 3337;
    stroke-dashoffset: 3339;
    stroke-width: 128;
    stroke-linecap: round;
    fill: none;
    stroke: #FF4444;
}
svg.acjk .bg { fill: #ccc; opacity: 0.5; }

/* Stroke 1: Starts at 0.0%, finishes at 6.2%, holds until 80.6% */
@keyframes zk1 {
    0%, 0.0% { stroke-dashoffset: 3339; }
    6.2%, 80.6% { stroke-dashoffset: 0; }
    80.7%, 100% { stroke-dashoffset: 3339; }
}
svg.acjk #stroke-p1 { animation-name: zk1; }
/* Stroke 2: Starts at 6.2%, finishes at 12.4%, holds until 80.6% */
@keyframes zk2 {
    0%, 6.2% { stroke-dashoffset: 3339; }
    12.4%, 80.6% { stroke-dashoffset: 0; }
    80.7%, 100% { stroke-dashoffset: 3339; }
}
svg.acjk #stroke-p2 { animation-name: zk2; }
/* Stroke 3: Starts at 12.4%, finishes at 18.6%, holds until 80.6% */
@keyframes zk3 {
    0%, 12.4% { stroke-dashoffset: 3339; }
    18.6%, 80.6% { stroke-dashoffset: 0; }
    80.7%, 100% { stroke-dashoffset: 3339; }
}
svg.acjk #stroke-p3 { animation-name: zk3; }
/* Stroke 4: Starts at 18.6%, finishes at 24.8%, holds until 80.6% */
@keyframes zk4 {
    0%, 18.6% { stroke-dashoffset: 3339; }
    24.8%, 80.6% { stroke-dashoffset: 0; }
    80.7%, 100% { stroke-dashoffset: 3339; }
}
svg.acjk #stroke-p4 { animation-name: zk4; }
/* Stroke 5: Starts at 24.8%, finishes at 31.0%, holds until 80.6% */
@keyframes zk5 {
    0%, 24.8% { stroke-dashoffset: 3339; }
    31.0%, 80.6% { stroke-dashoffset: 0; }
    80.7%, 100% { stroke-dashoffset: 3339; }
}
svg.acjk #stroke-p5 { animation-name: zk5; }
/* Stroke 6: Starts at 31.0%, finishes at 37.2%, holds until 80.6% */
@keyframes zk6 {
    0%, 31.0% { stroke-dashoffset: 3339; }
    37.2%, 80.6% { stroke-dashoffset: 0; }
    80.7%, 100% { stroke-dashoffset: 3339; }
}
svg.acjk #stroke-p6 { animation-name: zk6; }
/* Stroke 7: Starts at 37.2%, finishes at 43.4%, holds until 80.6% */
@keyframes zk7 {
    0%, 37.2% { stroke-dashoffset: 3339; }
    43.4%, 80.6% { stroke-dashoffset: 0; }
    80.7%, 100% { stroke-dashoffset: 3339; }
}
svg.acjk #stroke-p7 { animation-name: zk7; }
/* Stroke 8: Starts at 43.4%, finishes at 49.6%, holds until 80.6% */
@keyframes zk8 {
    0%, 43.4% { stroke-dashoffset: 3339; }
    49.6%, 80.6% { stroke-dashoffset: 0; }
    80.7%, 100% { stroke-dashoffset: 3339; }
}
svg.acjk #stroke-p8 { animation-name: zk8; }
/* Stroke 9: Starts at 49.6%, finishes at 55.8%, holds until 80.6% */
@keyframes zk9 {
    0%, 49.6% { stroke-dashoffset: 3339; }
    55.8%, 80.6% { stroke-dashoffset: 0; }
    80.7%, 100% { stroke-dashoffset: 3339; }
}
svg.acjk #stroke-p9 { animation-name: zk9; }
/* Stroke 10: Starts at 55.8%, finishes at 62.0%, holds until 80.6% */
@keyframes zk10 {
    0%, 55.8% { stroke-dashoffset: 3339; }
    62.0%, 80.6% { stroke-dashoffset: 0; }
    80.7%, 100% { stroke-dashoffset: 3339; }
}
svg.acjk #stroke-p10 { animation-name: zk10; }
/* Stroke 11: Starts at 62.0%, finishes at 68.2%, holds until 80.6% */
@keyframes zk11 {
    0%, 62.0% { stroke-dashoffset: 3339; }
    68.2%, 80.6% { stroke-dashoffset: 0; }
    80.7%, 100% { stroke-dashoffset: 3339; }
}
svg.acjk #stroke-p11 { animation-name: zk11; }
/* Stroke 12: Starts at 68.2%, finishes at 74.4%, holds until 80.6% */
@keyframes zk12 {
    0%, 68.2% { stroke-dashoffset: 3339; }
    74.4%, 80.6% { stroke-dashoffset: 0; }
    80.7%, 100% { stroke-dashoffset: 3339; }
}
svg.acjk #stroke-p12 { animation-name: zk12; }
/* Stroke 13: Starts at 74.4%, finishes at 80.6%, holds until 80.6% */
@keyframes zk13 {
    0%, 74.4% { stroke-dashoffset: 3339; }
    80.6%, 80.6% { stroke-dashoffset: 0; }
    80.7%, 100% { stroke-dashoffset: 3339; }
}
svg.acjk #stroke-p13 { animation-name: zk13; }
]]>
</style>
<defs>
    <path id="p1" d="M 165 225 Q 153 210 124 200 Q 114 196 102 199 Q 95 203 101 217 Q 120 298 122 309 Q 121 310 122 315 Q 134 528 100 656 Q 85 713 121 758 Q 131 771 143 759 Q 155 744 156 716 C 159 693 159 693 160 681 Q 161 660 161 634 Q 162 549 164 482 C 165 458 165 458 165 446 Q 169 280 172 264 Q 173 258 173 254 C 173 244 171 233 165 225 Z"/>
    <path id="p2" d="M 330 533 Q 317 278 336 237 Q 346 219 337 209 Q 330 199 280 186 Q 256 179 240 190 Q 200 212 165 225 C 156 229 164 258 173 254 Q 180 251 188 249 Q 207 242 232 232 Q 254 225 262 230 Q 277 243 277 299 Q 283 525 274 648 Q 277 666 266 669 C 256 675 254 695 260 705 Q 269 718 278 732 Q 294 754 301 752 Q 313 749 327 715 Q 340 678 336 629 Q 333 596 330 550 C 330 539 330 539 330 533 Z"/>
    <path id="p3" d="M 164 482 Q 207 476 240 471 Q 265 464 254 452 Q 241 439 214 436 Q 193 435 165 446 C 154 450 152 484 164 482 Z"/>
    <path id="p4" d="M 156 716 Q 165 717 176 715 Q 203 709 260 705 C 272 705 276 675 266 669 Q 263 668 261 666 Q 249 659 160 681 C 148 683 144 716 156 716 Z"/>
    <path id="p5" d="M 588 218 Q 589 217 591 215 Q 603 206 596 198 Q 589 188 558 178 Q 539 168 524 177 Q 509 184 482 192 Q 452 198 407 201 Q 397 201 396 208 Q 395 214 406 220 Q 443 239 464 232 Q 510 216 515 216 Q 528 217 519 241 Q 476 358 435 414 Q 396 472 330 533 C 326 537 325 552 330 550 Q 456 508 574 242 Q 575 239 576 237 C 579 230 582 222 588 218 Z"/>
    <path id="p6" d="M 378 307 Q 406 343 438 362 Q 448 365 456 355 Q 460 346 460 334 Q 451 297 390 281 Q 389 280 388 280 Q 376 276 369 278 Q 365 279 366 288 Q 367 295 378 307 Z"/>
    <path id="p7" d="M 642 246 Q 669 227 686 212 Q 713 185 744 165 Q 760 156 750 143 Q 738 131 718 123 Q 699 114 689 117 Q 679 120 684 129 Q 687 145 632 235 C 629 239 638 249 642 246 Z"/>
    <path id="p8" d="M 720 331 Q 754 297 818 260 Q 825 254 835 250 Q 851 240 842 226 Q 832 213 808 202 Q 789 192 778 194 Q 768 195 771 207 Q 775 223 723 299 Q 714 308 708 319 C 705 324 715 334 720 331 Z"/>
    <path id="p9" d="M 708 319 Q 677 286 642 246 C 635 239 635 239 632 235 Q 617 213 588 218 C 581 219 569 234 576 237 C 577 237 577 237 577 237 Q 608 253 629 283 Q 804 506 839 513 Q 912 513 966 503 Q 981 502 986 494 Q 989 488 980 485 Q 836 439 763 371 Q 742 352 720 331 C 712 323 712 323 708 319 Z"/>
    <path id="p10" d="M 577 500 Q 701 467 704 465 Q 713 456 708 448 Q 701 436 670 430 Q 639 426 609 440 Q 579 450 548 459 Q 514 468 472 473 Q 435 482 462 497 Q 484 509 529 510 C 561 503 561 503 577 500 Z"/>
    <path id="p11" d="M 574 642 Q 652 626 801 626 Q 820 625 824 617 Q 828 605 813 593 Q 753 554 706 574 Q 655 584 586 599 C 547 606 547 606 528 609 Q 453 621 371 635 Q 352 638 366 653 Q 379 666 397 670 Q 416 674 431 669 Q 471 657 519 650 C 556 645 556 645 574 642 Z"/>
    <path id="p12" d="M 519 650 Q 480 782 374 842 Q 359 852 344 862 Q 332 869 343 873 Q 392 877 465 820 Q 502 792 523 759 Q 566 669 574 642 C 582 613 582 613 586 599 Q 595 559 606 542 Q 616 526 601 517 Q 588 507 577 500 C 563 492 524 494 529 510 Q 541 540 528 609 C 522 636 522 636 519 650 Z"/>
    <path id="p13" d="M 632 721 Q 687 779 752 861 Q 768 883 783 889 Q 793 892 801 881 Q 816 868 805 821 Q 793 764 635 689 Q 626 682 623 696 Q 622 709 632 721 Z"/>

    <clipPath id="z26252c1"><use href="#p1"/></clipPath>
    <clipPath id="z26252c2"><use href="#p2"/></clipPath>
    <clipPath id="z26252c3"><use href="#p3"/></clipPath>
    <clipPath id="z26252c4"><use href="#p4"/></clipPath>
    <clipPath id="z26252c5"><use href="#p5"/></clipPath>
    <clipPath id="z26252c6"><use href="#p6"/></clipPath>
    <clipPath id="z26252c7"><use href="#p7"/></clipPath>
    <clipPath id="z26252c8"><use href="#p8"/></clipPath>
    <clipPath id="z26252c9"><use href="#p9"/></clipPath>
    <clipPath id="z26252c10"><use href="#p10"/></clipPath>
    <clipPath id="z26252c11"><use href="#p11"/></clipPath>
    <clipPath id="z26252c12"><use href="#p12"/></clipPath>
    <clipPath id="z26252c13"><use href="#p13"/></clipPath>
</defs>
<g id="bg-layer" class="bg">
<use href="#p1"/>
<use href="#p2"/>
<use href="#p3"/>
<use href="#p4"/>
<use href="#p5"/>
<use href="#p6"/>
<use href="#p7"/>
<use href="#p8"/>
<use href="#p9"/>
<use href="#p10"/>
<use href="#p11"/>
<use href="#p12"/>
<use href="#p13"/>
</g>
<g id="anim-layer">
    <path id="stroke-p1" style="stroke:#FF4444" pathLength="3333" clip-path="url(#z26252c1)" d="M 106 205 L 139 241 L 145 304 L 128 758"/>
    <path id="stroke-p2" style="stroke:#FF4444" pathLength="3333" clip-path="url(#z26252c2)" d="M 164 241 L 256 206 L 305 231 L 288 744"/>
    <path id="stroke-p3" style="stroke:#FF4444" pathLength="3333" clip-path="url(#z26252c3)" d="M 158 470 L 252 460"/>
    <path id="stroke-p4" style="stroke:#FF4444" pathLength="3333" clip-path="url(#z26252c4)" d="M 154 707 L 269 681"/>
    <path id="stroke-p5" style="stroke:#000" pathLength="3333" clip-path="url(#z26252c5)" d="M 402 208 L 532 195 L 560 215 L 452 423 L 333 542"/>
    <path id="stroke-p6" style="stroke:#000" pathLength="3333" clip-path="url(#z26252c6)" d="M 373 285 L 451 357"/>
    <path id="stroke-p7" style="stroke:#000" pathLength="3333" clip-path="url(#z26252c7)" d="M 689 126 L 712 160 L 637 240"/>
    <path id="stroke-p8" style="stroke:#000" pathLength="3333" clip-path="url(#z26252c8)" d="M 779 199 L 803 238 L 713 321"/>
    <path id="stroke-p9" style="stroke:#000" pathLength="3333" clip-path="url(#z26252c9)" d="M 583 230 L 840 470 L 979 490"/>
    <path id="stroke-p10" style="stroke:#000" pathLength="3333" clip-path="url(#z26252c10)" d="M 457 486 L 704 450"/>
    <path id="stroke-p11" style="stroke:#000" pathLength="3333" clip-path="url(#z26252c11)" d="M 367 641 L 735 597 L 821 607"/>
    <path id="stroke-p12" style="stroke:#000" pathLength="3333" clip-path="url(#z26252c12)" d="M 534 503 L 571 540 L 506 740 L 445 812 L 346 866"/>
    <path id="stroke-p13" style="stroke:#000" pathLength="3333" clip-path="url(#z26252c13)" d="M 631 694 L 745 795 L 799 882"/>
</g>
</svg>