<svg id="z26342" class="acjk" viewBox="0 0 1024 1024" xmlns="http://www.w3.org/2000/svg">
<style>
<![CDATA[
svg.acjk path[clip-path] {
    animation-duration: 18.5s;
    animation-timing-function: linear;
    animation-iteration-count: infinite;
    stroke-dasharray: 3337;
    stroke-dashoffset: 3339;
    stroke-width: 128;
    stroke-linecap: round;
    fill: none;
    stroke: #FF4444;
}
svg.acjk .bg { fill: #ccc; opacity: 0.5; }

/* Stroke 1: Starts at 0.0%, finishes at 4.3%, holds until 86.5% */
@keyframes zk1 {
    0%, 0.0% { stroke-dashoffset: 3339; }
    4.3%, 86.5% { stroke-dashoffset: 0; }
    86.6%, 100% { stroke-dashoffset: 3339; }
}
svg.acjk #stroke-p1 { animation-name: zk1; }
/* Stroke 2: Starts at 4.3%, finishes at 8.6%, holds until 86.5% */
@keyframes zk2 {
    0%, 4.3% { stroke-dashoffset: 3339; }
    8.6%, 86.5% { stroke-dashoffset: 0; }
    86.6%, 100% { stroke-dashoffset: 3339; }
}
svg.acjk #stroke-p2 { animation-name: zk2; }
/* Stroke 3: Starts at 8.6%, finishes at 13.0%, holds until 86.5% */
@keyframes zk3 {
    0%, 8.6% { stroke-dashoffset: 3339; }
    13.0%, 86.5% { stroke-dashoffset: 0; }
    86.6%, 100% { stroke-dashoffset: 3339; }
}
svg.acjk #stroke-p3 { animation-name: zk3; }
/* Stroke 4: Starts at 13.0%, finishes at 17.3%, holds until 86.5% */
@keyframes zk4 {
    0%, 13.0% { stroke-dashoffset: 3339; }
    17.3%, 86.5% { stroke-dashoffset: 0; }
    86.6%, 100% { stroke-dashoffset: 3339; }
}
svg.acjk #stroke-p4 { animation-name: zk4; }
/* Stroke 5: Starts at 17.3%, finishes at 21.6%, holds until 86.5% */
@keyframes zk5 {
    0%, 17.3% { stroke-dashoffset: 3339; }
    21.6%, 86.5% { stroke-dashoffset: 0; }
    86.6%, 100% { stroke-dashoffset: 3339; }
}
svg.acjk #stroke-p5 { animation-name: zk5; }
/* Stroke 6: Starts at 21.6%, finishes at 25.9%, holds until 86.5% */
@keyframes zk6 {
    0%, 21.6% { stroke-dashoffset: 3339; }
    25.9%, 86.5% { stroke-dashoffset: 0; }
    86.6%, 100% { stroke-dashoffset: 3339; }
}
svg.acjk #stroke-p6 { animation-name: zk6; }
/* Stroke 7: Starts at 25.9%, finishes at 30.3%, holds until 86.5% */
@keyframes zk7 {
    0%, 25.9% { stroke-dashoffset: 3339; }
    30.3%, 86.5% { stroke-dashoffset: 0; }
    86.6%, 100% { stroke-dashoffset: 3339; }
}
svg.acjk #stroke-p7 { animation-name: zk7; }
/* Stroke 8: Starts at 30.3%, finishes at 34.6%, holds until 86.5% */
@keyframes zk8 {
    0%, 30.3% { stroke-dashoffset: 3339; }
    34.6%, 86.5% { stroke-dashoffset: 0; }
    86.6%, 100% { stroke-dashoffset: 3339; }
}
svg.acjk #stroke-p8 { animation-name: zk8; }
/* Stroke 9: Starts at 34.6%, finishes at 38.9%, holds until 86.5% */
@keyframes zk9 {
    0%, 34.6% { stroke-dashoffset: 3339; }
    38.9%, 86.5% { stroke-dashoffset: 0; }
    86.6%, 100% { stroke-dashoffset: 3339; }
}
svg.acjk #stroke-p9 { animation-name: zk9; }
/* Stroke 10: Starts at 38.9%, finishes at 43.2%, holds until 86.5% */
@keyframes zk10 {
    0%, 38.9% { stroke-dashoffset: 3339; }
    43.2%, 86.5% { stroke-dashoffset: 0; }
    86.6%, 100% { stroke-dashoffset: 3339; }
}
svg.acjk #stroke-p10 { animation-name: zk10; }
/* Stroke 11: Starts at 43.2%, finishes at 47.6%, holds until 86.5% */
@keyframes zk11 {
    0%, 43.2% { stroke-dashoffset: 3339; }
    47.6%, 86.5% { stroke-dashoffset: 0; }
    86.6%, 100% { stroke-dashoffset: 3339; }
}
svg.acjk #stroke-p11 { animation-name: zk11; }
/* Stroke 12: Starts at 47.6%, finishes at 51.9%, holds until 86.5% */
@keyframes zk12 {
    0%, 47.6% { stroke-dashoffset: 3339; }
    51.9%, 86.5% { stroke-dashoffset: 0; }
    86.6%, 100% { stroke-dashoffset: 3339; }
}
svg.acjk #stroke-p12 { animation-name: zk12; }
/* Stroke 13: Starts at 51.9%, finishes at 56.2%, holds until 86.5% */
@keyframes zk13 {
    0%, 51.9% { stroke-dashoffset: 3339; }
    56.2%, 86.5% { stroke-dashoffset: 0; }
    86.6%, 100% { stroke-dashoffset: 3339; }
}
svg.acjk #stroke-p13 { animation-name: zk13; }
/* Stroke 14: Starts at 56.2%, finishes at 60.5%, holds until 86.5% */
@keyframes zk14 {
    0%, 56.2% { stroke-dashoffset: 3339; }
    60.5%, 86.5% { stroke-dashoffset: 0; }
    86.6%, 100% { stroke-dashoffset: 3339; }
}
svg.acjk #stroke-p14 { animation-name: zk14; }
/* Stroke 15: Starts at 60.5%, finishes at 64.9%, holds until 86.5% */
@keyframes zk15 {
    0%, 60.5% { stroke-dashoffset: 3339; }
    64.9%, 86.5% { stroke-dashoffset: 0; }
    86.6%, 100% { stroke-dashoffset: 3339; }
}
svg.acjk #stroke-p15 { animation-name: zk15; }
/* Stroke 16: Starts at 64.9%, finishes at 69.2%, holds until 86.5% */
@keyframes zk16 {
    0%, 64.9% { stroke-dashoffset: 3339; }
    69.2%, 86.5% { stroke-dashoffset: 0; }
    86.6%, 100% { stroke-dashoffset: 3339; }
}
svg.acjk #stroke-p16 { animation-name: zk16; }
/* Stroke 17: Starts at 69.2%, finishes at 73.5%, holds until 86.5% */
@keyframes zk17 {
    0%, 69.2% { stroke-dashoffset: 3339; }
    73.5%, 86.5% { stroke-dashoffset: 0; }
    86.6%, 100% { stroke-dashoffset: 3339; }
}
svg.acjk #stroke-p17 { animation-name: zk17; }
/* Stroke 18: Starts at 73.5%, finishes at 77.8%, holds until 86.5% */
@keyframes zk18 {
    0%, 73.5% { stroke-dashoffset: 3339; }
    77.8%, 86.5% { stroke-dashoffset: 0; }
    86.6%, 100% { stroke-dashoffset: 3339; }
}
svg.acjk #stroke-p18 { animation-name: zk18; }
/* Stroke 19: Starts at 77.8%, finishes at 82.2%, holds until 86.5% */
@keyframes zk19 {
    0%, 77.8% { stroke-dashoffset: 3339; }
    82.2%, 86.5% { stroke-dashoffset: 0; }
    86.6%, 100% { stroke-dashoffset: 3339; }
}
svg.acjk #stroke-p19 { animation-name: zk19; }
/* Stroke 20: Starts at 82.2%, finishes at 86.5%, holds until 86.5% */
@keyframes zk20 {
    0%, 82.2% { stroke-dashoffset: 3339; }
    86.5%, 86.5% { stroke-dashoffset: 0; }
    86.6%, 100% { stroke-dashoffset: 3339; }
}
svg.acjk #stroke-p20 { animation-name: zk20; }
]]>
</style>
<defs>
    <path id="p1" d="M 142 217 C 134 209 123 203 111 199 C 96 194 84 198 90 214 C 93 222 94 231 98 239 C 116 275 120 391 108 589 C 106 617 99 647 91 680 C 82 714 89 744 111 771 C 117 778 124 780 130 772 C 141 754 141 741 143 724 C 144 704 144 704 145 694 C 149 622 148 545 148 478 C 148 457 148 457 148 446 C 148 378 151 262 155 242 C 157 233 150 223 142 217 Z"/>
    <path id="p2" d="M 235 719 C 259 771 274 789 303 737 C 316 711 312 680 310 646 C 290 405 291 266 310 232 C 315 220 317 212 312 206 C 307 199 289 191 259 183 C 244 178 231 179 220 185 C 191 199 165 210 142 217 C 133 220 146 244 155 242 C 165 240 184 234 212 225 C 257 208 254 278 255 299 C 256 445 256 571 252 646 C 251 659 249 686 241 697 C 237 704 232 712 235 719 Z"/>
    <path id="p3" d="M 148 478 C 178 471 204 467 226 463 C 240 460 243 453 238 447 C 231 439 220 434 204 433 C 190 432 171 436 148 446 C 138 450 138 480 148 478 Z"/>
    <path id="p4" d="M 143 724 C 160 723 210 719 235 719 C 243 719 245 704 241 697 C 223 667 200 684 145 694 C 135 696 133 724 143 724 Z"/>
    <path id="p5" d="M 470 117 C 483 127 494 140 508 153 C 515 160 524 163 532 163 C 538 162 542 158 545 151 C 547 143 545 131 541 115 C 537 105 529 96 514 91 C 478 78 455 73 448 77 C 444 78 443 84 445 91 C 446 97 455 105 470 117 Z"/>
    <path id="p6" d="M 641 71 C 630 89 611 111 591 141 C 582 153 588 160 604 150 C 648 119 681 98 704 89 C 713 85 717 82 715 76 C 711 67 705 57 694 47 C 683 36 671 29 659 29 C 650 28 646 35 647 46 C 647 54 645 62 641 71 Z"/>
    <path id="p7" d="M 584 213 C 686 191 737 175 739 175 C 743 170 744 165 742 161 C 738 154 728 149 713 146 C 699 142 655 154 582 176 C 545 186 494 194 431 202 C 410 204 406 213 422 221 C 465 242 505 229 546 221 C 571 216 571 216 584 213 Z"/>
    <path id="p8" d="M 596 293 C 626 287 655 282 683 279 C 697 276 702 271 697 263 C 690 254 679 248 663 245 C 651 244 618 248 601 253 C 566 262 566 262 548 267 C 510 275 475 284 443 292 C 432 294 433 299 446 309 C 454 315 466 316 482 313 C 504 308 527 304 549 302 C 580 296 580 296 596 293 Z"/>
    <path id="p9" d="M 590 342 C 592 323 594 307 596 293 C 599 266 599 266 601 253 C 603 230 609 231 584 213 C 574 205 546 208 546 221 C 546 232 547 241 548 267 C 549 290 549 290 549 302 C 549 317 549 350 549 350 C 549 364 587 356 590 342 Z"/>
    <path id="p10" d="M 549 350 C 493 360 432 370 369 381 C 358 382 356 388 366 397 C 383 412 403 416 423 411 C 529 379 647 363 778 364 C 785 364 797 362 800 356 C 803 349 799 342 790 336 C 758 314 723 311 687 321 C 659 328 626 334 590 342 C 563 347 563 347 549 350 Z"/>
    <path id="p11" d="M 479 472 C 493 466 520 457 535 455 C 550 452 552 444 543 436 C 519 414 498 407 485 411 C 482 411 480 414 480 420 C 479 435 436 460 352 500 C 347 501 350 507 353 508 C 366 509 398 501 446 484 C 468 476 468 476 479 472 Z"/>
    <path id="p12" d="M 662 537 C 688 533 751 523 788 522 C 814 520 810 503 787 491 C 774 484 757 480 736 483 C 710 487 682 494 660 500 C 627 507 627 507 611 511 C 571 519 528 529 493 534 C 467 537 467 537 454 539 C 441 540 402 544 336 552 C 319 553 316 559 330 569 C 362 592 391 583 424 578 C 467 570 467 570 489 566 C 527 558 570 549 617 543 C 647 539 647 539 662 537 Z"/>
    <path id="p13" d="M 493 534 C 498 488 509 490 479 472 C 469 466 444 472 446 484 C 446 484 453 520 454 539 C 455 577 455 577 455 596 C 455 621 456 642 465 653 C 479 671 481 648 482 639 C 483 624 484 599 489 566 C 492 545 492 545 493 534 Z"/>
    <path id="p14" d="M 424 578 C 403 606 373 631 336 656 C 319 667 334 669 351 664 C 377 656 413 636 455 596 C 478 573 443 552 424 578 Z"/>
    <path id="p15" d="M 520 598 C 551 621 568 636 573 636 C 577 636 580 632 582 628 C 584 622 583 613 579 601 C 575 589 554 577 517 570 C 510 568 506 569 504 570 C 502 570 501 574 502 580 C 502 584 509 589 520 598 Z"/>
    <path id="p16" d="M 426 712 C 452 706 496 692 561 683 C 565 682 572 682 575 675 C 577 669 568 665 559 660 C 543 651 516 655 474 668 C 427 681 382 687 346 695 C 332 697 330 702 342 710 C 348 714 354 719 361 722 C 366 724 377 722 394 719 C 415 714 415 714 426 712 Z"/>
    <path id="p17" d="M 481 774 C 515 776 493 830 488 842 C 477 863 463 875 454 882 C 447 886 438 882 425 877 C 413 872 402 872 393 870 C 371 864 376 873 395 892 C 409 906 420 921 429 935 C 434 943 441 943 450 940 C 473 930 492 918 500 899 C 504 886 542 810 551 797 C 556 789 558 784 554 778 C 548 769 540 760 527 751 C 517 744 485 748 432 765 C 414 770 421 759 426 750 C 431 741 437 730 435 724 C 433 719 430 716 426 712 C 418 704 396 708 394 719 C 394 723 392 730 390 738 C 383 754 375 764 367 771 C 359 776 357 784 359 791 C 361 797 365 803 370 808 C 374 812 382 811 393 804 C 417 788 449 771 481 774 Z"/>
    <path id="p18" d="M 696 785 C 724 839 760 887 811 922 C 853 951 883 955 897 948 C 908 941 914 929 910 906 C 906 883 906 829 910 745 C 910 718 902 719 897 738 C 871 818 846 863 831 855 C 782 828 750 789 730 749 C 715 718 715 718 708 703 C 682 643 666 587 662 537 C 661 512 661 512 660 500 C 660 477 661 459 666 447 C 670 432 660 417 635 403 C 614 391 598 387 588 389 C 577 390 572 399 581 415 C 591 436 603 467 611 511 C 615 532 615 532 617 543 C 633 623 653 691 677 746 C 690 772 690 772 696 785 Z"/>
    <path id="p19" d="M 677 746 C 630 800 596 822 576 840 C 570 844 570 849 575 850 C 598 855 638 837 696 785 C 708 773 719 762 730 749 C 766 701 778 669 791 645 C 796 632 803 621 811 610 C 815 603 816 597 813 592 C 809 585 798 577 782 568 C 769 560 760 557 755 559 C 746 560 743 566 744 575 C 747 609 738 651 708 703 C 698 718 688 732 677 746 Z"/>
    <path id="p20" d="M 821 433 C 837 447 853 464 870 483 C 876 490 885 495 895 495 C 901 495 906 491 909 483 C 912 474 911 461 908 445 C 905 432 895 420 876 412 C 834 393 808 385 800 389 C 796 390 794 396 796 404 C 796 410 806 420 821 433 Z"/>

    <clipPath id="z26342c1"><use href="#p1"/></clipPath>
    <clipPath id="z26342c2"><use href="#p2"/></clipPath>
    <clipPath id="z26342c3"><use href="#p3"/></clipPath>
    <clipPath id="z26342c4"><use href="#p4"/></clipPath>
    <clipPath id="z26342c5"><use href="#p5"/></clipPath>
    <clipPath id="z26342c6"><use href="#p6"/></clipPath>
    <clipPath id="z26342c7"><use href="#p7"/></clipPath>
    <clipPath id="z26342c8"><use href="#p8"/></clipPath>
    <clipPath id="z26342c9"><use href="#p9"/></clipPath>
    <clipPath id="z26342c10"><use href="#p10"/></clipPath>
    <clipPath id="z26342c11"><use href="#p11"/></clipPath>
    <clipPath id="z26342c12"><use href="#p12"/></clipPath>
    <clipPath id="z26342c13"><use href="#p13"/></clipPath>
    <clipPath id="z26342c14"><use href="#p14"/></clipPath>
    <clipPath id="z26342c15"><use href="#p15"/></clipPath>
    <clipPath id="z26342c16"><use href="#p16"/></clipPath>
    <clipPath id="z26342c17"><use href="#p17"/></clipPath>
    <clipPath id="z26342c18"><use href="#p18"/></clipPath>
    <clipPath id="z26342c19"><use href="#p19"/></clipPath>
    <clipPath id="z26342c20"><use href="#p20"/></clipPath>
</defs>
<g id="bg-layer" class="bg">
<use href="#p1"/>
<use href="#p2"/>
<use href="#p3"/>
<use href="#p4"/>
<use href="#p5"/>
<use href="#p6"/>
<use href="#p7"/>
<use href="#p8"/>
<use href="#p9"/>
<use href="#p10"/>
<use href="#p11"/>
<use href="#p12"/>
<use href="#p13"/>
<use href="#p14"/>
<use href="#p15"/>
<use href="#p16"/>
<use href="#p17"/>
<use href="#p18"/>
<use href="#p19"/>
<use href="#p20"/>
</g>
<g id="anim-layer">
    <path id="stroke-p1" style="stroke:#FF4444" pathLength="3333" clip-path="url(#z26342c1)" d="M 98 207 L 130 248 L 116 771"/>
    <path id="stroke-p2" style="stroke:#FF4444" pathLength="3333" clip-path="url(#z26342c2)" d="M 143 224 L 231 202 L 280 223 L 269 763"/>
    <path id="stroke-p3" style="stroke:#FF4444" pathLength="3333" clip-path="url(#z26342c3)" d="M 145 467 L 233 452"/>
    <path id="stroke-p4" style="stroke:#FF4444" pathLength="3333" clip-path="url(#z26342c4)" d="M 143 714 L 239 700"/>
    <path id="stroke-p5" style="stroke:#000" pathLength="3333" clip-path="url(#z26342c5)" d="M 449 86 L 509 117 L 532 157"/>
    <path id="stroke-p6" style="stroke:#000" pathLength="3333" clip-path="url(#z26342c6)" d="M 658 34 L 676 78 L 595 148"/>
    <path id="stroke-p7" style="stroke:#000" pathLength="3333" clip-path="url(#z26342c7)" d="M 419 212 L 736 166"/>
    <path id="stroke-p8" style="stroke:#000" pathLength="3333" clip-path="url(#z26342c8)" d="M 444 300 L 694 265"/>
    <path id="stroke-p9" style="stroke:#000" pathLength="3333" clip-path="url(#z26342c9)" d="M 553 217 L 575 249 L 566 354"/>
    <path id="stroke-p10" style="stroke:#000" pathLength="3333" clip-path="url(#z26342c10)" d="M 367 388 L 703 341 L 797 351"/>
    <path id="stroke-p11" style="stroke:#000" pathLength="3333" clip-path="url(#z26342c11)" d="M 488 416 L 500 448 L 358 503"/>
    <path id="stroke-p12" style="stroke:#000" pathLength="3333" clip-path="url(#z26342c12)" d="M 332 560 L 801 512"/>
    <path id="stroke-p13" style="stroke:#000" pathLength="3333" clip-path="url(#z26342c13)" d="M 454 480 L 476 512 L 473 651"/>
    <path id="stroke-p14" style="stroke:#000" pathLength="3333" clip-path="url(#z26342c14)" d="M 454 575 L 336 661"/>
    <path id="stroke-p15" style="stroke:#000" pathLength="3333" clip-path="url(#z26342c15)" d="M 508 574 L 577 629"/>
    <path id="stroke-p16" style="stroke:#000" pathLength="3333" clip-path="url(#z26342c16)" d="M 342 701 L 569 674"/>
    <path id="stroke-p17" style="stroke:#000" pathLength="3333" clip-path="url(#z26342c17)" d="M 423 715 L 398 786 L 493 762 L 527 793 L 463 905 L 438 911 L 386 875"/>
    <path id="stroke-p18" style="stroke:#000" pathLength="3333" clip-path="url(#z26342c18)" d="M 584 398 L 632 447 L 674 679 L 767 844 L 818 886 L 872 899 L 904 735"/>
    <path id="stroke-p19" style="stroke:#000" pathLength="3333" clip-path="url(#z26342c19)" d="M 752 566 L 778 604 L 733 705 L 659 792 L 579 843"/>
    <path id="stroke-p20" style="stroke:#000" pathLength="3333" clip-path="url(#z26342c20)" d="M 803 393 L 872 442 L 896 491"/>
</g>
</svg>