<svg id="z26388" class="acjk" viewBox="0 0 1024 1024" xmlns="http://www.w3.org/2000/svg">
<style>
<![CDATA[
svg.acjk path[clip-path] {
    animation-duration: 10.5s;
    animation-timing-function: linear;
    animation-iteration-count: infinite;
    stroke-dasharray: 3337;
    stroke-dashoffset: 3339;
    stroke-width: 128;
    stroke-linecap: round;
    fill: none;
    stroke: #FF4444;
}
svg.acjk .bg { fill: #ccc; opacity: 0.5; }

/* Stroke 1: Starts at 0.0%, finishes at 7.6%, holds until 76.2% */
@keyframes zk1 {
    0%, 0.0% { stroke-dashoffset: 3339; }
    7.6%, 76.2% { stroke-dashoffset: 0; }
    76.3%, 100% { stroke-dashoffset: 3339; }
}
svg.acjk #stroke-p1 { animation-name: zk1; }
/* Stroke 2: Starts at 7.6%, finishes at 15.2%, holds until 76.2% */
@keyframes zk2 {
    0%, 7.6% { stroke-dashoffset: 3339; }
    15.2%, 76.2% { stroke-dashoffset: 0; }
    76.3%, 100% { stroke-dashoffset: 3339; }
}
svg.acjk #stroke-p2 { animation-name: zk2; }
/* Stroke 3: Starts at 15.2%, finishes at 22.9%, holds until 76.2% */
@keyframes zk3 {
    0%, 15.2% { stroke-dashoffset: 3339; }
    22.9%, 76.2% { stroke-dashoffset: 0; }
    76.3%, 100% { stroke-dashoffset: 3339; }
}
svg.acjk #stroke-p3 { animation-name: zk3; }
/* Stroke 4: Starts at 22.9%, finishes at 30.5%, holds until 76.2% */
@keyframes zk4 {
    0%, 22.9% { stroke-dashoffset: 3339; }
    30.5%, 76.2% { stroke-dashoffset: 0; }
    76.3%, 100% { stroke-dashoffset: 3339; }
}
svg.acjk #stroke-p4 { animation-name: zk4; }
/* Stroke 5: Starts at 30.5%, finishes at 38.1%, holds until 76.2% */
@keyframes zk5 {
    0%, 30.5% { stroke-dashoffset: 3339; }
    38.1%, 76.2% { stroke-dashoffset: 0; }
    76.3%, 100% { stroke-dashoffset: 3339; }
}
svg.acjk #stroke-p5 { animation-name: zk5; }
/* Stroke 6: Starts at 38.1%, finishes at 45.7%, holds until 76.2% */
@keyframes zk6 {
    0%, 38.1% { stroke-dashoffset: 3339; }
    45.7%, 76.2% { stroke-dashoffset: 0; }
    76.3%, 100% { stroke-dashoffset: 3339; }
}
svg.acjk #stroke-p6 { animation-name: zk6; }
/* Stroke 7: Starts at 45.7%, finishes at 53.3%, holds until 76.2% */
@keyframes zk7 {
    0%, 45.7% { stroke-dashoffset: 3339; }
    53.3%, 76.2% { stroke-dashoffset: 0; }
    76.3%, 100% { stroke-dashoffset: 3339; }
}
svg.acjk #stroke-p7 { animation-name: zk7; }
/* Stroke 8: Starts at 53.3%, finishes at 61.0%, holds until 76.2% */
@keyframes zk8 {
    0%, 53.3% { stroke-dashoffset: 3339; }
    61.0%, 76.2% { stroke-dashoffset: 0; }
    76.3%, 100% { stroke-dashoffset: 3339; }
}
svg.acjk #stroke-p8 { animation-name: zk8; }
/* Stroke 9: Starts at 61.0%, finishes at 68.6%, holds until 76.2% */
@keyframes zk9 {
    0%, 61.0% { stroke-dashoffset: 3339; }
    68.6%, 76.2% { stroke-dashoffset: 0; }
    76.3%, 100% { stroke-dashoffset: 3339; }
}
svg.acjk #stroke-p9 { animation-name: zk9; }
/* Stroke 10: Starts at 68.6%, finishes at 76.2%, holds until 76.2% */
@keyframes zk10 {
    0%, 68.6% { stroke-dashoffset: 3339; }
    76.2%, 76.2% { stroke-dashoffset: 0; }
    76.3%, 100% { stroke-dashoffset: 3339; }
}
svg.acjk #stroke-p10 { animation-name: zk10; }
]]>
</style>
<defs>
    <path id="p1" d="M 228 183 Q 276 243 292 246 Q 302 247 309 235 Q 315 222 310 192 Q 306 165 229 137 Q 214 131 208 133 Q 204 136 203 149 Q 204 159 228 183 Z"/>
    <path id="p2" d="M 434 104 Q 425 128 356 254 Q 349 272 365 265 Q 402 229 482 137 Q 495 118 516 104 Q 534 91 520 77 Q 504 64 478 55 Q 453 48 442 53 Q 430 57 437 68 Q 444 84 434 104 Z"/>
    <path id="p3" d="M 328 350 Q 389 334 459 319 Q 511 306 519 298 Q 528 291 523 283 Q 516 273 490 266 Q 462 262 435 272 Q 374 294 309 313 Q 237 332 152 342 Q 118 348 143 363 Q 179 382 256 365 Q 274 361 293 358 C 316 353 316 353 328 350 Z"/>
    <path id="p4" d="M 342 585 Q 345 582 350 582 Q 416 564 434 569 C 446 571 449 529 437 531 Q 391 538 348 547 C 314 556 314 556 297 560 Q 248 570 206 586 Q 191 589 196 571 Q 211 475 205 462 Q 175 425 150 428 Q 140 431 147 449 Q 165 495 155 541 Q 148 584 129 602 Q 113 618 119 631 Q 129 644 145 655 Q 158 662 167 654 Q 185 632 291 599 C 307 592 328 596 342 585 Z"/>
    <path id="p5" d="M 434 569 Q 438 588 445 604 Q 452 619 464 609 Q 486 588 492 513 Q 510 449 514 444 Q 521 431 512 418 Q 496 405 467 386 Q 457 379 445 384 Q 438 388 440 400 Q 453 416 450 479 Q 446 510 437 531 C 432 543 432 557 434 569 Z"/>
    <path id="p6" d="M 291 599 Q 264 755 166 850 Q 150 863 132 880 Q 114 896 139 890 Q 152 893 180 876 Q 214 861 244 831 Q 305 774 342 585 C 346 560 346 560 348 547 Q 355 498 361 433 Q 364 400 368 386 Q 374 380 369 371 Q 362 362 328 350 C 317 346 289 347 293 358 Q 317 416 297 560 C 293 586 293 586 291 599 Z"/>
    <path id="p7" d="M 625 526 Q 628 514 637 408 C 638 387 638 387 638 376 Q 641 255 644 239 C 646 228 643 213 633 209 Q 585 185 569 188 Q 550 192 566 213 Q 599 270 586 482 Q 582 569 538 672 Q 502 759 406 850 Q 393 863 390 869 Q 389 876 400 875 Q 443 871 519 785 Q 597 691 621 558 C 624 537 624 537 625 526 Z"/>
    <path id="p8" d="M 756 212 Q 775 206 781 216 Q 794 255 799 554 Q 799 788 784 813 Q 780 819 760 814 Q 735 808 707 802 Q 688 795 688 805 Q 743 854 775 890 Q 788 909 804 914 Q 813 918 821 908 Q 863 860 861 805 Q 849 616 847 311 Q 844 253 858 227 Q 870 208 858 198 Q 836 179 799 165 Q 780 156 733 183 Q 696 198 633 209 C 622 211 634 241 644 239 C 719 221 719 221 756 212 Z"/>
    <path id="p9" d="M 637 408 Q 698 398 747 393 Q 769 389 761 376 Q 751 361 725 357 Q 688 354 638 376 C 628 380 627 410 637 408 Z"/>
    <path id="p10" d="M 621 558 Q 694 548 750 544 Q 772 541 765 528 Q 755 513 729 508 Q 698 502 625 526 C 615 529 610 560 621 558 Z"/>

    <clipPath id="z26388c1"><use href="#p1"/></clipPath>
    <clipPath id="z26388c2"><use href="#p2"/></clipPath>
    <clipPath id="z26388c3"><use href="#p3"/></clipPath>
    <clipPath id="z26388c4"><use href="#p4"/></clipPath>
    <clipPath id="z26388c5"><use href="#p5"/></clipPath>
    <clipPath id="z26388c6"><use href="#p6"/></clipPath>
    <clipPath id="z26388c7"><use href="#p7"/></clipPath>
    <clipPath id="z26388c8"><use href="#p8"/></clipPath>
    <clipPath id="z26388c9"><use href="#p9"/></clipPath>
    <clipPath id="z26388c10"><use href="#p10"/></clipPath>
</defs>
<g id="bg-layer" class="bg">
<use href="#p1"/>
<use href="#p2"/>
<use href="#p3"/>
<use href="#p4"/>
<use href="#p5"/>
<use href="#p6"/>
<use href="#p7"/>
<use href="#p8"/>
<use href="#p9"/>
<use href="#p10"/>
</g>
<g id="anim-layer">
    <path id="stroke-p1" style="stroke:#FF4444" pathLength="3333" clip-path="url(#z26388c1)" d="M 212 140 L 301 239"/>
    <path id="stroke-p2" style="stroke:#FF4444" pathLength="3333" clip-path="url(#z26388c2)" d="M 444 60 L 479 99 L 362 259"/>
    <path id="stroke-p3" style="stroke:#FF4444" pathLength="3333" clip-path="url(#z26388c3)" d="M 141 350 L 519 290"/>
    <path id="stroke-p4" style="stroke:#FF4444" pathLength="3333" clip-path="url(#z26388c4)" d="M 151 434 L 182 482 L 161 595 L 178 622 L 435 547"/>
    <path id="stroke-p5" style="stroke:#FF4444" pathLength="3333" clip-path="url(#z26388c5)" d="M 449 389 L 483 435 L 453 606"/>
    <path id="stroke-p6" style="stroke:#FF4444" pathLength="3333" clip-path="url(#z26388c6)" d="M 300 363 L 337 394 L 298 672 L 239 800 L 132 887"/>
    <path id="stroke-p7" style="stroke:#000" pathLength="3333" clip-path="url(#z26388c7)" d="M 564 195 L 611 246 L 595 571 L 519 751 L 399 869"/>
    <path id="stroke-p8" style="stroke:#000" pathLength="3333" clip-path="url(#z26388c8)" d="M 642 213 L 779 187 L 824 219 L 822 822 L 791 865 L 697 804"/>
    <path id="stroke-p9" style="stroke:#000" pathLength="3333" clip-path="url(#z26388c9)" d="M 643 399 L 756 380"/>
    <path id="stroke-p10" style="stroke:#000" pathLength="3333" clip-path="url(#z26388c10)" d="M 625 551 L 759 529"/>
</g>
</svg>