<svg id="z26471" class="acjk" viewBox="0 0 1024 1024" xmlns="http://www.w3.org/2000/svg">
<style>
<![CDATA[
svg.acjk path[clip-path] {
    animation-duration: 8.100000000000001s;
    animation-timing-function: linear;
    animation-iteration-count: infinite;
    stroke-dasharray: 3337;
    stroke-dashoffset: 3339;
    stroke-width: 128;
    stroke-linecap: round;
    fill: none;
    stroke: #FF4444;
}
svg.acjk .bg { fill: #ccc; opacity: 0.5; }

/* Stroke 1: Starts at 0.0%, finishes at 9.9%, holds until 69.1% */
@keyframes zk1 {
    0%, 0.0% { stroke-dashoffset: 3339; }
    9.9%, 69.1% { stroke-dashoffset: 0; }
    69.2%, 100% { stroke-dashoffset: 3339; }
}
svg.acjk #stroke-p1 { animation-name: zk1; }
/* Stroke 2: Starts at 9.9%, finishes at 19.8%, holds until 69.1% */
@keyframes zk2 {
    0%, 9.9% { stroke-dashoffset: 3339; }
    19.8%, 69.1% { stroke-dashoffset: 0; }
    69.2%, 100% { stroke-dashoffset: 3339; }
}
svg.acjk #stroke-p2 { animation-name: zk2; }
/* Stroke 3: Starts at 19.8%, finishes at 29.6%, holds until 69.1% */
@keyframes zk3 {
    0%, 19.8% { stroke-dashoffset: 3339; }
    29.6%, 69.1% { stroke-dashoffset: 0; }
    69.2%, 100% { stroke-dashoffset: 3339; }
}
svg.acjk #stroke-p3 { animation-name: zk3; }
/* Stroke 4: Starts at 29.6%, finishes at 39.5%, holds until 69.1% */
@keyframes zk4 {
    0%, 29.6% { stroke-dashoffset: 3339; }
    39.5%, 69.1% { stroke-dashoffset: 0; }
    69.2%, 100% { stroke-dashoffset: 3339; }
}
svg.acjk #stroke-p4 { animation-name: zk4; }
/* Stroke 5: Starts at 39.5%, finishes at 49.4%, holds until 69.1% */
@keyframes zk5 {
    0%, 39.5% { stroke-dashoffset: 3339; }
    49.4%, 69.1% { stroke-dashoffset: 0; }
    69.2%, 100% { stroke-dashoffset: 3339; }
}
svg.acjk #stroke-p5 { animation-name: zk5; }
/* Stroke 6: Starts at 49.4%, finishes at 59.3%, holds until 69.1% */
@keyframes zk6 {
    0%, 49.4% { stroke-dashoffset: 3339; }
    59.3%, 69.1% { stroke-dashoffset: 0; }
    69.2%, 100% { stroke-dashoffset: 3339; }
}
svg.acjk #stroke-p6 { animation-name: zk6; }
/* Stroke 7: Starts at 59.3%, finishes at 69.1%, holds until 69.1% */
@keyframes zk7 {
    0%, 59.3% { stroke-dashoffset: 3339; }
    69.1%, 69.1% { stroke-dashoffset: 0; }
    69.2%, 100% { stroke-dashoffset: 3339; }
}
svg.acjk #stroke-p7 { animation-name: zk7; }
]]>
</style>
<defs>
    <path id="p1" d="M 325 401 C 395 383 432 370 436 367 C 443 360 443 354 440 349 C 433 340 420 333 400 330 C 384 327 358 330 326 343 C 295 354 295 354 280 360 C 266 365 151 393 113 400 C 86 404 82 413 103 425 C 132 441 157 442 198 431 C 219 424 233 424 257 418 C 302 407 302 407 325 401 Z"/>
    <path id="p2" d="M 322 498 Q 322 452 325 401 C 326 362 326 362 326 343 Q 327 325 328 307 Q 329 207 350 139 Q 360 123 357 109 Q 350 99 293 63 Q 268 44 247 60 Q 241 66 248 82 Q 281 133 281 234 Q 281 297 280 360 C 276 455 276 455 274 502 Q 270 572 269 649 Q 263 728 241 803 Q 228 845 255 908 Q 261 927 269 931 Q 276 938 284 929 Q 291 925 303 903 Q 313 878 313 845 Q 313 805 321 530 C 322 509 322 509 322 498 Z"/>
    <path id="p3" d="M 257 418 C 221 512 165 633 50 782 C 46 788 48 792 56 794 C 74 794 99 767 175 677 C 229 600 248 563 275 502 C 305 426 283 340 257 417 C 257 418 257 418 257 418 Z"/>
    <path id="p4" d="M 321 530 Q 346 546 388 586 Q 400 596 413 595 Q 422 594 425 584 Q 429 571 421 547 Q 412 519 326 498 Q 323 497 322 498 C 311 498 312 524 321 530 Z"/>
    <path id="p5" d="M 625 199 Q 658 224 693 256 Q 709 269 727 268 Q 740 267 744 252 Q 748 234 737 201 Q 730 179 693 163 Q 608 138 592 144 Q 586 150 589 164 Q 593 177 625 199 Z"/>
    <path id="p6" d="M 536 466 C 641 437 755 422 921 423 C 935 423 945 420 949 413 C 952 404 947 395 936 387 C 901 362 869 352 842 359 C 767 376 640 402 420 441 C 405 443 403 450 415 461 C 436 479 461 485 488 479 C 489 478 490 478 492 478 C 521 470 521 470 536 466 Z"/>
    <path id="p7" d="M 492 478 C 524 544 529 614 497 683 C 485 706 481 726 495 745 C 498 750 503 755 510 761 C 518 768 528 765 540 757 C 591 719 663 702 795 702 C 813 702 834 701 856 704 C 872 705 884 706 891 701 C 896 696 896 689 892 681 C 887 672 871 659 844 644 C 830 635 792 635 741 643 C 706 648 669 655 577 678 C 570 679 566 680 565 679 C 559 673 559 666 560 655 C 565 583 568 536 576 515 C 579 504 577 496 568 488 C 558 480 548 472 536 466 C 523 458 486 464 492 478 Z"/>

    <clipPath id="z26471c1"><use href="#p1"/></clipPath>
    <clipPath id="z26471c2"><use href="#p2"/></clipPath>
    <clipPath id="z26471c3"><use href="#p3"/></clipPath>
    <clipPath id="z26471c4"><use href="#p4"/></clipPath>
    <clipPath id="z26471c5"><use href="#p5"/></clipPath>
    <clipPath id="z26471c6"><use href="#p6"/></clipPath>
    <clipPath id="z26471c7"><use href="#p7"/></clipPath>
</defs>
<g id="bg-layer" class="bg">
<use href="#p1"/>
<use href="#p2"/>
<use href="#p3"/>
<use href="#p4"/>
<use href="#p5"/>
<use href="#p6"/>
<use href="#p7"/>
</g>
<g id="anim-layer">
    <path id="stroke-p1" style="stroke:#FF4444" pathLength="3333" clip-path="url(#z26471c1)" d="M 95 410 L 169 412 L 435 349"/>
    <path id="stroke-p2" style="stroke:#FF4444" pathLength="3333" clip-path="url(#z26471c2)" d="M 250 63 L 314 125 L 275 927"/>
    <path id="stroke-p3" style="stroke:#FF4444" pathLength="3333" clip-path="url(#z26471c3)" d="M 270 422 L 186 631 L 54 785"/>
    <path id="stroke-p4" style="stroke:#FF4444" pathLength="3333" clip-path="url(#z26471c4)" d="M 328 503 L 415 587"/>
    <path id="stroke-p5" style="stroke:#000" pathLength="3333" clip-path="url(#z26471c5)" d="M 595 148 L 690 203 L 735 261"/>
    <path id="stroke-p6" style="stroke:#000" pathLength="3333" clip-path="url(#z26471c6)" d="M 418 450 L 470 457 L 817 394 L 937 407"/>
    <path id="stroke-p7" style="stroke:#000" pathLength="3333" clip-path="url(#z26471c7)" d="M 500 484 L 543 513 L 525 695 L 540 721 L 699 677 L 891 684"/>
</g>
</svg>