<svg id="z26525" class="acjk" viewBox="0 0 1024 1024" xmlns="http://www.w3.org/2000/svg">
<style>
<![CDATA[
svg.acjk path[clip-path] {
    animation-duration: 8.9s;
    animation-timing-function: linear;
    animation-iteration-count: infinite;
    stroke-dasharray: 3337;
    stroke-dashoffset: 3339;
    stroke-width: 128;
    stroke-linecap: round;
    fill: none;
    stroke: #FF4444;
}
svg.acjk .bg { fill: #ccc; opacity: 0.5; }

/* Stroke 1: Starts at 0.0%, finishes at 9.0%, holds until 71.9% */
@keyframes zk1 {
    0%, 0.0% { stroke-dashoffset: 3339; }
    9.0%, 71.9% { stroke-dashoffset: 0; }
    72.0%, 100% { stroke-dashoffset: 3339; }
}
svg.acjk #stroke-p1 { animation-name: zk1; }
/* Stroke 2: Starts at 9.0%, finishes at 18.0%, holds until 71.9% */
@keyframes zk2 {
    0%, 9.0% { stroke-dashoffset: 3339; }
    18.0%, 71.9% { stroke-dashoffset: 0; }
    72.0%, 100% { stroke-dashoffset: 3339; }
}
svg.acjk #stroke-p2 { animation-name: zk2; }
/* Stroke 3: Starts at 18.0%, finishes at 27.0%, holds until 71.9% */
@keyframes zk3 {
    0%, 18.0% { stroke-dashoffset: 3339; }
    27.0%, 71.9% { stroke-dashoffset: 0; }
    72.0%, 100% { stroke-dashoffset: 3339; }
}
svg.acjk #stroke-p3 { animation-name: zk3; }
/* Stroke 4: Starts at 27.0%, finishes at 36.0%, holds until 71.9% */
@keyframes zk4 {
    0%, 27.0% { stroke-dashoffset: 3339; }
    36.0%, 71.9% { stroke-dashoffset: 0; }
    72.0%, 100% { stroke-dashoffset: 3339; }
}
svg.acjk #stroke-p4 { animation-name: zk4; }
/* Stroke 5: Starts at 36.0%, finishes at 44.9%, holds until 71.9% */
@keyframes zk5 {
    0%, 36.0% { stroke-dashoffset: 3339; }
    44.9%, 71.9% { stroke-dashoffset: 0; }
    72.0%, 100% { stroke-dashoffset: 3339; }
}
svg.acjk #stroke-p5 { animation-name: zk5; }
/* Stroke 6: Starts at 44.9%, finishes at 53.9%, holds until 71.9% */
@keyframes zk6 {
    0%, 44.9% { stroke-dashoffset: 3339; }
    53.9%, 71.9% { stroke-dashoffset: 0; }
    72.0%, 100% { stroke-dashoffset: 3339; }
}
svg.acjk #stroke-p6 { animation-name: zk6; }
/* Stroke 7: Starts at 53.9%, finishes at 62.9%, holds until 71.9% */
@keyframes zk7 {
    0%, 53.9% { stroke-dashoffset: 3339; }
    62.9%, 71.9% { stroke-dashoffset: 0; }
    72.0%, 100% { stroke-dashoffset: 3339; }
}
svg.acjk #stroke-p7 { animation-name: zk7; }
/* Stroke 8: Starts at 62.9%, finishes at 71.9%, holds until 71.9% */
@keyframes zk8 {
    0%, 62.9% { stroke-dashoffset: 3339; }
    71.9%, 71.9% { stroke-dashoffset: 0; }
    72.0%, 100% { stroke-dashoffset: 3339; }
}
svg.acjk #stroke-p8 { animation-name: zk8; }
]]>
</style>
<defs>
    <path id="p1" d="M 344 405 C 406 389 438 377 440 375 C 444 370 446 364 443 359 C 438 352 427 345 408 342 C 377 336 359 346 345 352 C 316 363 316 363 302 368 C 274 378 177 397 144 404 C 120 408 116 417 134 426 C 163 440 196 441 287 419 C 325 410 325 410 344 405 Z"/>
    <path id="p2" d="M 342 509 C 343 476 343 441 344 405 C 345 370 345 370 345 352 C 346 273 348 208 365 162 C 371 143 369 130 350 117 C 339 109 326 101 310 91 C 294 81 280 79 267 89 C 263 91 263 99 269 109 C 287 142 300 183 301 235 C 301 279 303 323 302 368 C 299 472 299 472 297 524 C 293 640 290 712 284 742 C 270 806 265 841 267 850 C 269 866 272 876 282 896 C 287 907 294 915 299 919 C 304 922 305 921 312 917 C 328 904 339 880 339 838 C 338 813 335 714 341 542 C 342 520 342 520 342 509 Z"/>
    <path id="p3" d="M 287 419 C 254 507 182 623 74 769 C 68 776 71 780 80 781 C 84 781 90 778 97 773 C 177 702 244 620 298 524 C 349 440 318 325 287 418 C 287 419 287 419 287 419 Z"/>
    <path id="p4" d="M 341 542 C 355 550 374 567 402 591 C 410 598 419 600 428 600 C 434 599 438 595 441 588 C 443 579 441 566 435 549 C 430 538 420 528 403 522 C 385 516 359 511 342 509 C 331 507 332 535 341 542 Z"/>
    <path id="p5" d="M 666 360 C 773 336 827 319 831 317 C 837 311 838 305 835 300 C 830 292 818 285 798 281 C 777 276 757 280 736 288 C 714 295 692 304 670 310 C 637 319 637 319 621 323 C 585 332 546 335 505 342 C 480 346 476 355 495 366 C 524 382 561 382 620 370 C 651 363 651 363 666 360 Z"/>
    <path id="p6" d="M 657 489 C 659 444 662 401 666 360 C 669 327 669 327 670 310 C 675 237 679 173 694 118 C 695 111 692 101 678 92 C 655 77 634 71 618 68 C 607 65 599 68 594 74 C 589 78 588 86 594 96 C 608 119 617 138 618 154 C 619 208 622 264 621 323 C 620 354 620 354 620 370 C 619 412 617 456 615 502 C 615 517 657 504 657 489 Z"/>
    <path id="p7" d="M 673 723 C 711 670 739 622 754 581 C 761 561 770 540 793 521 C 805 510 807 500 799 491 C 790 482 775 473 754 466 C 740 461 709 472 657 489 C 629 498 629 498 615 502 C 586 510 550 515 507 521 C 497 522 490 524 488 530 C 485 534 490 540 503 545 C 527 554 557 553 592 542 C 643 524 673 515 683 516 C 697 516 703 525 699 542 C 683 604 667 641 634 689 C 626 700 618 711 608 720 C 559 764 495 794 421 816 C 411 818 409 823 418 829 C 421 831 438 834 468 831 C 525 824 577 800 637 758 C 650 748 663 736 673 723 Z"/>
    <path id="p8" d="M 637 758 C 667 797 713 839 771 887 C 789 902 813 905 843 900 C 879 893 912 888 940 883 C 948 881 957 879 965 875 C 970 871 969 863 961 859 C 951 853 905 839 826 815 C 775 799 725 768 673 723 C 647 700 647 700 634 689 C 609 667 587 641 564 615 C 551 600 534 590 512 588 C 504 586 496 587 491 593 C 487 596 488 603 495 608 C 522 625 562 660 608 720 C 627 745 627 745 637 758 Z"/>

    <clipPath id="z26525c1"><use href="#p1"/></clipPath>
    <clipPath id="z26525c2"><use href="#p2"/></clipPath>
    <clipPath id="z26525c3"><use href="#p3"/></clipPath>
    <clipPath id="z26525c4"><use href="#p4"/></clipPath>
    <clipPath id="z26525c5"><use href="#p5"/></clipPath>
    <clipPath id="z26525c6"><use href="#p6"/></clipPath>
    <clipPath id="z26525c7"><use href="#p7"/></clipPath>
    <clipPath id="z26525c8"><use href="#p8"/></clipPath>
</defs>
<g id="bg-layer" class="bg">
<use href="#p1"/>
<use href="#p2"/>
<use href="#p3"/>
<use href="#p4"/>
<use href="#p5"/>
<use href="#p6"/>
<use href="#p7"/>
<use href="#p8"/>
</g>
<g id="anim-layer">
    <path id="stroke-p1" style="stroke:#FF4444" pathLength="3333" clip-path="url(#z26525c1)" d="M 131 413 L 441 363"/>
    <path id="stroke-p2" style="stroke:#FF4444" pathLength="3333" clip-path="url(#z26525c2)" d="M 272 93 L 331 157 L 306 915"/>
    <path id="stroke-p3" style="stroke:#FF4444" pathLength="3333" clip-path="url(#z26525c3)" d="M 293 425 L 254 548 L 81 773"/>
    <path id="stroke-p4" style="stroke:#FF4444" pathLength="3333" clip-path="url(#z26525c4)" d="M 348 517 L 428 595"/>
    <path id="stroke-p5" style="stroke:#000" pathLength="3333" clip-path="url(#z26525c5)" d="M 493 354 L 832 306"/>
    <path id="stroke-p6" style="stroke:#000" pathLength="3333" clip-path="url(#z26525c6)" d="M 598 80 L 654 128 L 636 489 L 620 494"/>
    <path id="stroke-p7" style="stroke:#000" pathLength="3333" clip-path="url(#z26525c7)" d="M 491 532 L 720 494 L 752 521 L 622 739 L 531 797 L 421 824"/>
    <path id="stroke-p8" style="stroke:#000" pathLength="3333" clip-path="url(#z26525c8)" d="M 496 595 L 795 851 L 960 864"/>
</g>
</svg>