<svg id="z26522" class="acjk" viewBox="0 0 1024 1024" xmlns="http://www.w3.org/2000/svg">
<style>
<![CDATA[
svg.acjk path[clip-path] {
    animation-duration: 8.9s;
    animation-timing-function: linear;
    animation-iteration-count: infinite;
    stroke-dasharray: 3337;
    stroke-dashoffset: 3339;
    stroke-width: 128;
    stroke-linecap: round;
    fill: none;
    stroke: #FF4444;
}
svg.acjk .bg { fill: #ccc; opacity: 0.5; }

/* Stroke 1: Starts at 0.0%, finishes at 9.0%, holds until 71.9% */
@keyframes zk1 {
    0%, 0.0% { stroke-dashoffset: 3339; }
    9.0%, 71.9% { stroke-dashoffset: 0; }
    72.0%, 100% { stroke-dashoffset: 3339; }
}
svg.acjk #stroke-p1 { animation-name: zk1; }
/* Stroke 2: Starts at 9.0%, finishes at 18.0%, holds until 71.9% */
@keyframes zk2 {
    0%, 9.0% { stroke-dashoffset: 3339; }
    18.0%, 71.9% { stroke-dashoffset: 0; }
    72.0%, 100% { stroke-dashoffset: 3339; }
}
svg.acjk #stroke-p2 { animation-name: zk2; }
/* Stroke 3: Starts at 18.0%, finishes at 27.0%, holds until 71.9% */
@keyframes zk3 {
    0%, 18.0% { stroke-dashoffset: 3339; }
    27.0%, 71.9% { stroke-dashoffset: 0; }
    72.0%, 100% { stroke-dashoffset: 3339; }
}
svg.acjk #stroke-p3 { animation-name: zk3; }
/* Stroke 4: Starts at 27.0%, finishes at 36.0%, holds until 71.9% */
@keyframes zk4 {
    0%, 27.0% { stroke-dashoffset: 3339; }
    36.0%, 71.9% { stroke-dashoffset: 0; }
    72.0%, 100% { stroke-dashoffset: 3339; }
}
svg.acjk #stroke-p4 { animation-name: zk4; }
/* Stroke 5: Starts at 36.0%, finishes at 44.9%, holds until 71.9% */
@keyframes zk5 {
    0%, 36.0% { stroke-dashoffset: 3339; }
    44.9%, 71.9% { stroke-dashoffset: 0; }
    72.0%, 100% { stroke-dashoffset: 3339; }
}
svg.acjk #stroke-p5 { animation-name: zk5; }
/* Stroke 6: Starts at 44.9%, finishes at 53.9%, holds until 71.9% */
@keyframes zk6 {
    0%, 44.9% { stroke-dashoffset: 3339; }
    53.9%, 71.9% { stroke-dashoffset: 0; }
    72.0%, 100% { stroke-dashoffset: 3339; }
}
svg.acjk #stroke-p6 { animation-name: zk6; }
/* Stroke 7: Starts at 53.9%, finishes at 62.9%, holds until 71.9% */
@keyframes zk7 {
    0%, 53.9% { stroke-dashoffset: 3339; }
    62.9%, 71.9% { stroke-dashoffset: 0; }
    72.0%, 100% { stroke-dashoffset: 3339; }
}
svg.acjk #stroke-p7 { animation-name: zk7; }
/* Stroke 8: Starts at 62.9%, finishes at 71.9%, holds until 71.9% */
@keyframes zk8 {
    0%, 62.9% { stroke-dashoffset: 3339; }
    71.9%, 71.9% { stroke-dashoffset: 0; }
    72.0%, 100% { stroke-dashoffset: 3339; }
}
svg.acjk #stroke-p8 { animation-name: zk8; }
]]>
</style>
<defs>
    <path id="p1" d="M 337 393 Q 430 371 439 363 Q 448 356 443 347 Q 436 337 408 330 Q 386 326 339 341 C 310 350 310 350 296 355 Q 209 382 120 392 Q 86 399 111 414 Q 150 435 228 417 Q 250 411 277 407 C 317 398 317 398 337 393 Z"/>
    <path id="p2" d="M 334 499 Q 335 450 337 393 C 338 358 338 358 339 341 Q 339 233 362 157 Q 375 130 351 113 Q 335 101 306 83 Q 282 65 261 81 Q 257 85 262 101 Q 295 150 295 200 Q 295 272 296 355 C 292 447 292 447 290 493 Q 286 572 285 657 Q 279 735 258 807 Q 246 846 271 909 Q 278 928 286 931 Q 292 938 300 929 Q 307 925 318 904 Q 328 879 328 848 Q 327 808 333 513 C 334 504 334 504 334 499 Z"/>
    <path id="p3" d="M 277 407 Q 223 549 54 767 Q 48 777 60 778 Q 82 778 196 645 Q 245 584 291 493 C 332 425 302 330 277 406 C 277 407 277 407 277 407 Z"/>
    <path id="p4" d="M 333 513 Q 337 522 358 538 Q 380 557 404 581 Q 416 591 428 591 Q 437 590 441 579 Q 445 567 438 543 Q 434 527 408 515 Q 351 491 336 497 Q 335 497 334 499 C 330 501 330 509 333 513 Z"/>
    <path id="p5" d="M 570 384 Q 625 291 654 227 Q 669 187 685 167 Q 692 154 685 141 Q 679 129 646 110 Q 615 95 596 99 Q 577 103 589 125 Q 616 165 552 318 Q 522 388 478 467 Q 469 480 468 486 Q 467 498 480 493 Q 501 484 561 399 C 567 389 567 389 570 384 Z"/>
    <path id="p6" d="M 694 404 Q 869 353 873 349 Q 882 340 876 332 Q 869 320 838 315 Q 808 311 725 345 Q 649 369 579 381 Q 573 382 570 384 C 564 386 556 397 561 399 Q 607 421 657 414 C 682 407 682 407 694 404 Z"/>
    <path id="p7" d="M 679 696 Q 728 624 740 496 Q 741 469 746 451 Q 750 438 741 431 Q 720 413 694 404 C 682 399 652 402 657 414 Q 673 453 675 511 Q 676 598 643 660 C 626 684 626 684 618 696 Q 555 768 421 825 Q 411 826 407 832 Q 401 836 411 840 Q 444 847 552 801 Q 613 770 649 735 C 669 709 669 709 679 696 Z"/>
    <path id="p8" d="M 649 735 Q 709 808 763 870 Q 779 891 808 890 Q 911 886 950 880 Q 968 879 974 870 Q 978 863 967 859 Q 793 799 724 736 Q 702 718 679 696 C 655 672 655 672 643 660 Q 598 614 547 553 Q 534 534 516 532 Q 491 532 483 540 Q 480 546 489 551 Q 526 572 551 608 Q 585 654 618 696 C 639 722 639 722 649 735 Z"/>

    <clipPath id="z26522c1"><use href="#p1"/></clipPath>
    <clipPath id="z26522c2"><use href="#p2"/></clipPath>
    <clipPath id="z26522c3"><use href="#p3"/></clipPath>
    <clipPath id="z26522c4"><use href="#p4"/></clipPath>
    <clipPath id="z26522c5"><use href="#p5"/></clipPath>
    <clipPath id="z26522c6"><use href="#p6"/></clipPath>
    <clipPath id="z26522c7"><use href="#p7"/></clipPath>
    <clipPath id="z26522c8"><use href="#p8"/></clipPath>
</defs>
<g id="bg-layer" class="bg">
<use href="#p1"/>
<use href="#p2"/>
<use href="#p3"/>
<use href="#p4"/>
<use href="#p5"/>
<use href="#p6"/>
<use href="#p7"/>
<use href="#p8"/>
</g>
<g id="anim-layer">
    <path id="stroke-p1" style="stroke:#FF4444" pathLength="3333" clip-path="url(#z26522c1)" d="M 109 401 L 441 354"/>
    <path id="stroke-p2" style="stroke:#FF4444" pathLength="3333" clip-path="url(#z26522c2)" d="M 265 86 L 327 145 L 289 929"/>
    <path id="stroke-p3" style="stroke:#FF4444" pathLength="3333" clip-path="url(#z26522c3)" d="M 288 411 L 220 571 L 60 772"/>
    <path id="stroke-p4" style="stroke:#FF4444" pathLength="3333" clip-path="url(#z26522c4)" d="M 341 505 L 434 585"/>
    <path id="stroke-p5" style="stroke:#000" pathLength="3333" clip-path="url(#z26522c5)" d="M 590 107 L 641 164 L 568 341 L 476 485"/>
    <path id="stroke-p6" style="stroke:#000" pathLength="3333" clip-path="url(#z26522c6)" d="M 569 397 L 873 338"/>
    <path id="stroke-p7" style="stroke:#000" pathLength="3333" clip-path="url(#z26522c7)" d="M 664 416 L 708 452 L 695 593 L 661 678 L 545 783 L 411 834"/>
    <path id="stroke-p8" style="stroke:#000" pathLength="3333" clip-path="url(#z26522c8)" d="M 491 544 L 525 554 L 799 841 L 970 867"/>
</g>
</svg>