<svg id="z26547" class="acjk" viewBox="0 0 1024 1024" xmlns="http://www.w3.org/2000/svg">
<style>
<![CDATA[
svg.acjk path[clip-path] {
    animation-duration: 9.7s;
    animation-timing-function: linear;
    animation-iteration-count: infinite;
    stroke-dasharray: 3337;
    stroke-dashoffset: 3339;
    stroke-width: 128;
    stroke-linecap: round;
    fill: none;
    stroke: #FF4444;
}
svg.acjk .bg { fill: #ccc; opacity: 0.5; }

/* Stroke 1: Starts at 0.0%, finishes at 8.2%, holds until 74.2% */
@keyframes zk1 {
    0%, 0.0% { stroke-dashoffset: 3339; }
    8.2%, 74.2% { stroke-dashoffset: 0; }
    74.3%, 100% { stroke-dashoffset: 3339; }
}
svg.acjk #stroke-p1 { animation-name: zk1; }
/* Stroke 2: Starts at 8.2%, finishes at 16.5%, holds until 74.2% */
@keyframes zk2 {
    0%, 8.2% { stroke-dashoffset: 3339; }
    16.5%, 74.2% { stroke-dashoffset: 0; }
    74.3%, 100% { stroke-dashoffset: 3339; }
}
svg.acjk #stroke-p2 { animation-name: zk2; }
/* Stroke 3: Starts at 16.5%, finishes at 24.7%, holds until 74.2% */
@keyframes zk3 {
    0%, 16.5% { stroke-dashoffset: 3339; }
    24.7%, 74.2% { stroke-dashoffset: 0; }
    74.3%, 100% { stroke-dashoffset: 3339; }
}
svg.acjk #stroke-p3 { animation-name: zk3; }
/* Stroke 4: Starts at 24.7%, finishes at 33.0%, holds until 74.2% */
@keyframes zk4 {
    0%, 24.7% { stroke-dashoffset: 3339; }
    33.0%, 74.2% { stroke-dashoffset: 0; }
    74.3%, 100% { stroke-dashoffset: 3339; }
}
svg.acjk #stroke-p4 { animation-name: zk4; }
/* Stroke 5: Starts at 33.0%, finishes at 41.2%, holds until 74.2% */
@keyframes zk5 {
    0%, 33.0% { stroke-dashoffset: 3339; }
    41.2%, 74.2% { stroke-dashoffset: 0; }
    74.3%, 100% { stroke-dashoffset: 3339; }
}
svg.acjk #stroke-p5 { animation-name: zk5; }
/* Stroke 6: Starts at 41.2%, finishes at 49.5%, holds until 74.2% */
@keyframes zk6 {
    0%, 41.2% { stroke-dashoffset: 3339; }
    49.5%, 74.2% { stroke-dashoffset: 0; }
    74.3%, 100% { stroke-dashoffset: 3339; }
}
svg.acjk #stroke-p6 { animation-name: zk6; }
/* Stroke 7: Starts at 49.5%, finishes at 57.7%, holds until 74.2% */
@keyframes zk7 {
    0%, 49.5% { stroke-dashoffset: 3339; }
    57.7%, 74.2% { stroke-dashoffset: 0; }
    74.3%, 100% { stroke-dashoffset: 3339; }
}
svg.acjk #stroke-p7 { animation-name: zk7; }
/* Stroke 8: Starts at 57.7%, finishes at 66.0%, holds until 74.2% */
@keyframes zk8 {
    0%, 57.7% { stroke-dashoffset: 3339; }
    66.0%, 74.2% { stroke-dashoffset: 0; }
    74.3%, 100% { stroke-dashoffset: 3339; }
}
svg.acjk #stroke-p8 { animation-name: zk8; }
/* Stroke 9: Starts at 66.0%, finishes at 74.2%, holds until 74.2% */
@keyframes zk9 {
    0%, 66.0% { stroke-dashoffset: 3339; }
    74.2%, 74.2% { stroke-dashoffset: 0; }
    74.3%, 100% { stroke-dashoffset: 3339; }
}
svg.acjk #stroke-p9 { animation-name: zk9; }
]]>
</style>
<defs>
    <path id="p1" d="M 333 379 C 397 363 430 350 432 349 C 445 336 437 320 398 314 C 366 308 348 320 333 325 C 304 334 304 334 290 338 C 262 346 240 357 136 374 C 111 377 107 387 127 397 C 177 423 228 404 279 392 C 315 383 315 383 333 379 Z"/>
    <path id="p2" d="M 331 466 C 331 438 333 409 333 379 C 333 343 333 343 333 325 C 333 267 336 211 354 156 C 357 144 364 135 360 127 C 356 119 333 106 298 83 C 277 69 235 70 254 102 C 296 175 291 270 290 338 C 287 453 287 453 285 511 C 281 640 274 735 269 766 C 257 836 256 876 265 902 C 284 956 298 960 318 912 C 324 895 326 876 327 855 C 328 822 331 709 331 502 C 331 478 331 478 331 466 Z"/>
    <path id="p3" d="M 279 392 C 238 514 189 591 85 733 C 69 754 73 772 96 752 C 180 673 235 609 285 511 C 328 404 322 285 279 392 Z"/>
    <path id="p4" d="M 331 502 C 377 544 405 567 418 568 C 423 568 450 559 427 518 C 413 493 380 476 331 466 C 319 464 321 495 331 502 Z"/>
    <path id="p5" d="M 530 329 C 510 322 431 293 461 344 C 487 390 509 453 526 534 C 530 557 539 576 553 592 C 572 613 579 604 582 583 C 583 569 582 556 580 543 C 573 507 558 449 539 365 C 537 353 541 334 530 329 Z"/>
    <path id="p6" d="M 804 512 C 824 430 849 379 875 356 C 889 342 891 324 877 313 C 821 268 772 261 734 278 C 673 303 604 317 530 329 C 518 331 527 367 539 365 C 630 340 694 327 730 324 C 762 321 775 329 771 364 C 764 418 753 466 741 508 C 737 529 800 533 804 512 Z"/>
    <path id="p7" d="M 582 583 C 610 576 668 566 818 551 C 853 547 823 520 804 512 C 784 504 762 504 741 508 C 682 522 628 534 580 543 C 567 546 569 586 582 583 Z"/>
    <path id="p8" d="M 542 663 C 532 707 481 776 377 867 C 363 878 364 881 384 879 C 426 874 490 833 572 750 C 582 739 591 730 620 699 C 643 672 616 660 597 654 C 580 648 548 633 542 663 Z"/>
    <path id="p9" d="M 748 692 C 787 737 833 789 881 854 C 891 868 912 898 933 877 C 942 866 944 847 939 813 C 931 769 869 719 752 657 C 738 649 730 672 748 692 Z"/>

    <clipPath id="z26547c1"><use href="#p1"/></clipPath>
    <clipPath id="z26547c2"><use href="#p2"/></clipPath>
    <clipPath id="z26547c3"><use href="#p3"/></clipPath>
    <clipPath id="z26547c4"><use href="#p4"/></clipPath>
    <clipPath id="z26547c5"><use href="#p5"/></clipPath>
    <clipPath id="z26547c6"><use href="#p6"/></clipPath>
    <clipPath id="z26547c7"><use href="#p7"/></clipPath>
    <clipPath id="z26547c8"><use href="#p8"/></clipPath>
    <clipPath id="z26547c9"><use href="#p9"/></clipPath>
</defs>
<g id="bg-layer" class="bg">
<use href="#p1"/>
<use href="#p2"/>
<use href="#p3"/>
<use href="#p4"/>
<use href="#p5"/>
<use href="#p6"/>
<use href="#p7"/>
<use href="#p8"/>
<use href="#p9"/>
</g>
<g id="anim-layer">
    <path id="stroke-p1" style="stroke:#FF4444" pathLength="3333" clip-path="url(#z26547c1)" d="M 122 384 L 434 335"/>
    <path id="stroke-p2" style="stroke:#FF4444" pathLength="3333" clip-path="url(#z26547c2)" d="M 255 85 L 319 146 L 297 937"/>
    <path id="stroke-p3" style="stroke:#FF4444" pathLength="3333" clip-path="url(#z26547c3)" d="M 307 357 L 232 557 L 83 755"/>
    <path id="stroke-p4" style="stroke:#FF4444" pathLength="3333" clip-path="url(#z26547c4)" d="M 331 474 L 424 562"/>
    <path id="stroke-p5" style="stroke:#000" pathLength="3333" clip-path="url(#z26547c5)" d="M 460 321 L 509 360 L 571 596"/>
    <path id="stroke-p6" style="stroke:#000" pathLength="3333" clip-path="url(#z26547c6)" d="M 531 339 L 751 297 L 807 313 L 833 348 L 760 523"/>
    <path id="stroke-p7" style="stroke:#000" pathLength="3333" clip-path="url(#z26547c7)" d="M 572 566 L 829 532"/>
    <path id="stroke-p8" style="stroke:#000" pathLength="3333" clip-path="url(#z26547c8)" d="M 552 651 L 579 690 L 471 810 L 377 874"/>
    <path id="stroke-p9" style="stroke:#000" pathLength="3333" clip-path="url(#z26547c9)" d="M 745 664 L 883 792 L 919 880"/>
</g>
</svg>