<svg id="z26590" class="acjk" viewBox="0 0 1024 1024" xmlns="http://www.w3.org/2000/svg">
<style>
<![CDATA[
svg.acjk path[clip-path] {
    animation-duration: 9.7s;
    animation-timing-function: linear;
    animation-iteration-count: infinite;
    stroke-dasharray: 3337;
    stroke-dashoffset: 3339;
    stroke-width: 128;
    stroke-linecap: round;
    fill: none;
    stroke: #FF4444;
}
svg.acjk .bg { fill: #ccc; opacity: 0.5; }

/* Stroke 1: Starts at 0.0%, finishes at 8.2%, holds until 74.2% */
@keyframes zk1 {
    0%, 0.0% { stroke-dashoffset: 3339; }
    8.2%, 74.2% { stroke-dashoffset: 0; }
    74.3%, 100% { stroke-dashoffset: 3339; }
}
svg.acjk #stroke-p1 { animation-name: zk1; }
/* Stroke 2: Starts at 8.2%, finishes at 16.5%, holds until 74.2% */
@keyframes zk2 {
    0%, 8.2% { stroke-dashoffset: 3339; }
    16.5%, 74.2% { stroke-dashoffset: 0; }
    74.3%, 100% { stroke-dashoffset: 3339; }
}
svg.acjk #stroke-p2 { animation-name: zk2; }
/* Stroke 3: Starts at 16.5%, finishes at 24.7%, holds until 74.2% */
@keyframes zk3 {
    0%, 16.5% { stroke-dashoffset: 3339; }
    24.7%, 74.2% { stroke-dashoffset: 0; }
    74.3%, 100% { stroke-dashoffset: 3339; }
}
svg.acjk #stroke-p3 { animation-name: zk3; }
/* Stroke 4: Starts at 24.7%, finishes at 33.0%, holds until 74.2% */
@keyframes zk4 {
    0%, 24.7% { stroke-dashoffset: 3339; }
    33.0%, 74.2% { stroke-dashoffset: 0; }
    74.3%, 100% { stroke-dashoffset: 3339; }
}
svg.acjk #stroke-p4 { animation-name: zk4; }
/* Stroke 5: Starts at 33.0%, finishes at 41.2%, holds until 74.2% */
@keyframes zk5 {
    0%, 33.0% { stroke-dashoffset: 3339; }
    41.2%, 74.2% { stroke-dashoffset: 0; }
    74.3%, 100% { stroke-dashoffset: 3339; }
}
svg.acjk #stroke-p5 { animation-name: zk5; }
/* Stroke 6: Starts at 41.2%, finishes at 49.5%, holds until 74.2% */
@keyframes zk6 {
    0%, 41.2% { stroke-dashoffset: 3339; }
    49.5%, 74.2% { stroke-dashoffset: 0; }
    74.3%, 100% { stroke-dashoffset: 3339; }
}
svg.acjk #stroke-p6 { animation-name: zk6; }
/* Stroke 7: Starts at 49.5%, finishes at 57.7%, holds until 74.2% */
@keyframes zk7 {
    0%, 49.5% { stroke-dashoffset: 3339; }
    57.7%, 74.2% { stroke-dashoffset: 0; }
    74.3%, 100% { stroke-dashoffset: 3339; }
}
svg.acjk #stroke-p7 { animation-name: zk7; }
/* Stroke 8: Starts at 57.7%, finishes at 66.0%, holds until 74.2% */
@keyframes zk8 {
    0%, 57.7% { stroke-dashoffset: 3339; }
    66.0%, 74.2% { stroke-dashoffset: 0; }
    74.3%, 100% { stroke-dashoffset: 3339; }
}
svg.acjk #stroke-p8 { animation-name: zk8; }
/* Stroke 9: Starts at 66.0%, finishes at 74.2%, holds until 74.2% */
@keyframes zk9 {
    0%, 66.0% { stroke-dashoffset: 3339; }
    74.2%, 74.2% { stroke-dashoffset: 0; }
    74.3%, 100% { stroke-dashoffset: 3339; }
}
svg.acjk #stroke-p9 { animation-name: zk9; }
]]>
</style>
<defs>
    <path id="p1" d="M 330 378 Q 348 372 372 368 Q 414 358 420 351 Q 427 344 423 335 Q 416 325 388 318 Q 358 314 331 325 C 304 334 304 334 290 339 Q 188 370 108 380 Q 74 387 99 402 Q 139 426 193 410 Q 224 401 262 394 C 307 383 307 383 330 378 Z"/>
    <path id="p2" d="M 327 497 Q 328 442 330 378 C 331 343 331 343 331 325 Q 331 226 352 151 Q 361 138 358 124 Q 351 115 299 83 Q 277 67 258 81 Q 254 85 259 100 Q 290 148 290 195 Q 290 262 290 339 C 288 418 288 418 287 457 Q 283 541 282 631 Q 278 707 257 775 Q 245 814 270 871 Q 276 887 283 891 Q 289 897 296 889 Q 303 885 313 866 Q 323 842 322 813 Q 321 776 326 529 C 327 508 327 508 327 497 Z"/>
    <path id="p3" d="M 262 394 Q 214 515 58 714 Q 52 724 64 726 Q 86 726 192 606 Q 243 548 287 457 C 319 403 285 336 262 394 Z"/>
    <path id="p4" d="M 326 529 Q 347 545 386 581 Q 398 593 412 592 Q 421 591 425 580 Q 429 567 421 541 Q 412 514 335 498 Q 332 497 327 497 C 316 497 317 523 326 529 Z"/>
    <path id="p5" d="M 528 348 Q 571 285 619 196 Q 638 153 658 130 Q 667 120 661 106 Q 657 93 626 73 Q 598 57 580 59 Q 561 62 571 83 Q 586 111 578 135 Q 553 217 509 297 Q 467 373 408 457 Q 399 467 397 474 Q 396 486 409 482 Q 439 473 517 363 C 524 353 524 353 528 348 Z"/>
    <path id="p6" d="M 651 373 Q 745 349 848 326 Q 900 313 908 305 Q 917 296 911 288 Q 904 276 874 269 Q 843 265 812 277 Q 680 326 537 346 Q 533 346 528 348 C 522 350 513 359 517 363 Q 541 387 609 383 C 637 376 637 376 651 373 Z"/>
    <path id="p7" d="M 662 650 Q 662 593 663 537 C 664 518 664 518 664 508 Q 665 436 672 405 Q 673 392 667 386 Q 658 379 651 373 C 639 364 604 370 609 383 Q 633 452 609 740 Q 594 875 601 890 Q 613 941 640 958 Q 652 959 657 946 Q 670 915 666 883 Q 662 775 662 679 C 662 660 662 660 662 650 Z"/>
    <path id="p8" d="M 663 537 Q 669 538 679 537 Q 767 524 833 515 Q 858 511 849 497 Q 837 481 809 475 Q 782 472 664 508 C 655 511 653 537 663 537 Z"/>
    <path id="p9" d="M 662 679 Q 671 680 683 679 Q 785 666 860 659 Q 885 655 877 641 Q 865 625 838 618 Q 810 614 662 650 C 653 652 652 679 662 679 Z"/>

    <clipPath id="z26590c1"><use href="#p1"/></clipPath>
    <clipPath id="z26590c2"><use href="#p2"/></clipPath>
    <clipPath id="z26590c3"><use href="#p3"/></clipPath>
    <clipPath id="z26590c4"><use href="#p4"/></clipPath>
    <clipPath id="z26590c5"><use href="#p5"/></clipPath>
    <clipPath id="z26590c6"><use href="#p6"/></clipPath>
    <clipPath id="z26590c7"><use href="#p7"/></clipPath>
    <clipPath id="z26590c8"><use href="#p8"/></clipPath>
    <clipPath id="z26590c9"><use href="#p9"/></clipPath>
</defs>
<g id="bg-layer" class="bg">
<use href="#p1"/>
<use href="#p2"/>
<use href="#p3"/>
<use href="#p4"/>
<use href="#p5"/>
<use href="#p6"/>
<use href="#p7"/>
<use href="#p8"/>
<use href="#p9"/>
</g>
<g id="anim-layer">
    <path id="stroke-p1" style="stroke:#FF4444" pathLength="3333" clip-path="url(#z26590c1)" d="M 100 391 L 415 341"/>
    <path id="stroke-p2" style="stroke:#FF4444" pathLength="3333" clip-path="url(#z26590c2)" d="M 263 85 L 321 138 L 286 886"/>
    <path id="stroke-p3" style="stroke:#FF4444" pathLength="3333" clip-path="url(#z26590c3)" d="M 282 397 L 203 554 L 61 717"/>
    <path id="stroke-p4" style="stroke:#FF4444" pathLength="3333" clip-path="url(#z26590c4)" d="M 333 507 L 412 586"/>
    <path id="stroke-p5" style="stroke:#000" pathLength="3333" clip-path="url(#z26590c5)" d="M 576 66 L 620 125 L 528 309 L 403 476"/>
    <path id="stroke-p6" style="stroke:#000" pathLength="3333" clip-path="url(#z26590c6)" d="M 523 359 L 908 292"/>
    <path id="stroke-p7" style="stroke:#000" pathLength="3333" clip-path="url(#z26590c7)" d="M 617 390 L 645 419 L 645 952"/>
    <path id="stroke-p8" style="stroke:#000" pathLength="3333" clip-path="url(#z26590c8)" d="M 668 529 L 844 499"/>
    <path id="stroke-p9" style="stroke:#000" pathLength="3333" clip-path="url(#z26590c9)" d="M 669 671 L 874 646"/>
</g>
</svg>