<svg id="z26729" class="acjk" viewBox="0 0 1024 1024" xmlns="http://www.w3.org/2000/svg">
<style>
<![CDATA[
svg.acjk path[clip-path] {
    animation-duration: 10.5s;
    animation-timing-function: linear;
    animation-iteration-count: infinite;
    stroke-dasharray: 3337;
    stroke-dashoffset: 3339;
    stroke-width: 128;
    stroke-linecap: round;
    fill: none;
    stroke: #FF4444;
}
svg.acjk .bg { fill: #ccc; opacity: 0.5; }

/* Stroke 1: Starts at 0.0%, finishes at 7.6%, holds until 76.2% */
@keyframes zk1 {
    0%, 0.0% { stroke-dashoffset: 3339; }
    7.6%, 76.2% { stroke-dashoffset: 0; }
    76.3%, 100% { stroke-dashoffset: 3339; }
}
svg.acjk #stroke-p1 { animation-name: zk1; }
/* Stroke 2: Starts at 7.6%, finishes at 15.2%, holds until 76.2% */
@keyframes zk2 {
    0%, 7.6% { stroke-dashoffset: 3339; }
    15.2%, 76.2% { stroke-dashoffset: 0; }
    76.3%, 100% { stroke-dashoffset: 3339; }
}
svg.acjk #stroke-p2 { animation-name: zk2; }
/* Stroke 3: Starts at 15.2%, finishes at 22.9%, holds until 76.2% */
@keyframes zk3 {
    0%, 15.2% { stroke-dashoffset: 3339; }
    22.9%, 76.2% { stroke-dashoffset: 0; }
    76.3%, 100% { stroke-dashoffset: 3339; }
}
svg.acjk #stroke-p3 { animation-name: zk3; }
/* Stroke 4: Starts at 22.9%, finishes at 30.5%, holds until 76.2% */
@keyframes zk4 {
    0%, 22.9% { stroke-dashoffset: 3339; }
    30.5%, 76.2% { stroke-dashoffset: 0; }
    76.3%, 100% { stroke-dashoffset: 3339; }
}
svg.acjk #stroke-p4 { animation-name: zk4; }
/* Stroke 5: Starts at 30.5%, finishes at 38.1%, holds until 76.2% */
@keyframes zk5 {
    0%, 30.5% { stroke-dashoffset: 3339; }
    38.1%, 76.2% { stroke-dashoffset: 0; }
    76.3%, 100% { stroke-dashoffset: 3339; }
}
svg.acjk #stroke-p5 { animation-name: zk5; }
/* Stroke 6: Starts at 38.1%, finishes at 45.7%, holds until 76.2% */
@keyframes zk6 {
    0%, 38.1% { stroke-dashoffset: 3339; }
    45.7%, 76.2% { stroke-dashoffset: 0; }
    76.3%, 100% { stroke-dashoffset: 3339; }
}
svg.acjk #stroke-p6 { animation-name: zk6; }
/* Stroke 7: Starts at 45.7%, finishes at 53.3%, holds until 76.2% */
@keyframes zk7 {
    0%, 45.7% { stroke-dashoffset: 3339; }
    53.3%, 76.2% { stroke-dashoffset: 0; }
    76.3%, 100% { stroke-dashoffset: 3339; }
}
svg.acjk #stroke-p7 { animation-name: zk7; }
/* Stroke 8: Starts at 53.3%, finishes at 61.0%, holds until 76.2% */
@keyframes zk8 {
    0%, 53.3% { stroke-dashoffset: 3339; }
    61.0%, 76.2% { stroke-dashoffset: 0; }
    76.3%, 100% { stroke-dashoffset: 3339; }
}
svg.acjk #stroke-p8 { animation-name: zk8; }
/* Stroke 9: Starts at 61.0%, finishes at 68.6%, holds until 76.2% */
@keyframes zk9 {
    0%, 61.0% { stroke-dashoffset: 3339; }
    68.6%, 76.2% { stroke-dashoffset: 0; }
    76.3%, 100% { stroke-dashoffset: 3339; }
}
svg.acjk #stroke-p9 { animation-name: zk9; }
/* Stroke 10: Starts at 68.6%, finishes at 76.2%, holds until 76.2% */
@keyframes zk10 {
    0%, 68.6% { stroke-dashoffset: 3339; }
    76.2%, 76.2% { stroke-dashoffset: 0; }
    76.3%, 100% { stroke-dashoffset: 3339; }
}
svg.acjk #stroke-p10 { animation-name: zk10; }
]]>
</style>
<defs>
    <path id="p1" d="M 328 389 Q 349 382 374 376 Q 411 364 417 359 Q 426 349 420 341 Q 411 328 380 323 Q 352 319 330 329 C 303 340 303 340 289 345 Q 180 381 116 391 Q 77 401 106 417 Q 157 438 215 419 Q 237 412 265 406 C 307 395 307 395 328 389 Z"/>
    <path id="p2" d="M 325 482 Q 326 437 328 389 C 329 349 329 349 330 329 Q 330 214 353 134 Q 368 109 338 89 Q 323 77 298 63 Q 276 45 255 61 Q 251 65 256 81 Q 290 132 290 182 Q 290 257 290 341 Q 289 342 289 345 C 286 438 286 438 284 485 Q 280 564 279 649 Q 273 730 251 803 Q 239 846 265 902 Q 271 920 279 923 Q 285 929 292 921 Q 299 917 310 897 Q 320 872 319 842 Q 318 802 324 514 C 325 493 325 493 325 482 Z"/>
    <path id="p3" d="M 265 406 Q 211 550 46 774 Q 40 784 52 785 Q 58 786 68 777 Q 206 651 285 485 C 313 414 289 332 265 405 C 265 406 265 406 265 406 Z"/>
    <path id="p4" d="M 324 514 Q 333 518 390 575 Q 400 585 413 586 Q 420 586 425 575 Q 429 565 423 541 Q 417 513 329 483 Q 328 482 325 482 C 315 480 315 508 324 514 Z"/>
    <path id="p5" d="M 622 188 Q 650 209 679 234 Q 695 247 713 244 Q 723 243 728 228 Q 732 212 720 179 Q 713 160 679 149 Q 601 127 588 137 Q 582 141 585 155 Q 591 167 622 188 Z"/>
    <path id="p6" d="M 539 386 Q 579 398 643 387 Q 724 369 811 350 Q 853 340 859 333 Q 869 324 863 316 Q 856 304 826 297 Q 798 293 686 330 Q 617 348 541 358 Q 538 358 539 359 C 530 360 530 384 539 386 Z"/>
    <path id="p7" d="M 539 359 Q 523 344 497 333 Q 479 323 467 328 Q 457 335 463 347 Q 476 371 478 432 Q 477 438 477 447 Q 474 583 439 693 Q 414 768 346 883 Q 342 890 339 895 Q 338 905 347 903 Q 374 900 437 798 Q 450 776 463 749 Q 515 626 529 472 Q 530 424 539 386 C 541 377 546 364 539 359 Z"/>
    <path id="p8" d="M 703 625 Q 848 589 851 587 Q 860 580 855 571 Q 848 561 820 553 Q 796 549 705 578 C 673 587 673 587 657 591 Q 605 601 545 608 Q 509 614 535 630 Q 568 651 642 637 Q 648 636 657 635 C 688 628 688 628 703 625 Z"/>
    <path id="p9" d="M 692 792 Q 698 705 703 625 C 704 594 704 594 705 578 Q 708 529 723 469 Q 726 459 708 446 Q 677 428 654 425 Q 639 421 632 429 Q 625 436 633 450 Q 654 481 654 502 Q 655 545 657 591 C 657 620 657 620 657 635 Q 657 713 653 798 C 653 811 692 805 692 792 Z"/>
    <path id="p10" d="M 653 798 Q 572 808 480 823 Q 459 824 475 841 Q 488 854 506 859 Q 525 865 542 860 Q 668 827 903 827 Q 922 827 927 818 Q 933 808 916 794 Q 862 755 807 770 Q 759 779 692 792 C 666 796 666 796 653 798 Z"/>

    <clipPath id="z26729c1"><use href="#p1"/></clipPath>
    <clipPath id="z26729c2"><use href="#p2"/></clipPath>
    <clipPath id="z26729c3"><use href="#p3"/></clipPath>
    <clipPath id="z26729c4"><use href="#p4"/></clipPath>
    <clipPath id="z26729c5"><use href="#p5"/></clipPath>
    <clipPath id="z26729c6"><use href="#p6"/></clipPath>
    <clipPath id="z26729c7"><use href="#p7"/></clipPath>
    <clipPath id="z26729c8"><use href="#p8"/></clipPath>
    <clipPath id="z26729c9"><use href="#p9"/></clipPath>
    <clipPath id="z26729c10"><use href="#p10"/></clipPath>
</defs>
<g id="bg-layer" class="bg">
<use href="#p1"/>
<use href="#p2"/>
<use href="#p3"/>
<use href="#p4"/>
<use href="#p5"/>
<use href="#p6"/>
<use href="#p7"/>
<use href="#p8"/>
<use href="#p9"/>
<use href="#p10"/>
</g>
<g id="anim-layer">
    <path id="stroke-p1" style="stroke:#FF4444" pathLength="3333" clip-path="url(#z26729c1)" d="M 101 404 L 415 343"/>
    <path id="stroke-p2" style="stroke:#FF4444" pathLength="3333" clip-path="url(#z26729c2)" d="M 259 64 L 321 131 L 284 920"/>
    <path id="stroke-p3" style="stroke:#FF4444" pathLength="3333" clip-path="url(#z26729c3)" d="M 281 409 L 210 571 L 52 778"/>
    <path id="stroke-p4" style="stroke:#FF4444" pathLength="3333" clip-path="url(#z26729c4)" d="M 331 489 L 412 580"/>
    <path id="stroke-p5" style="stroke:#000" pathLength="3333" clip-path="url(#z26729c5)" d="M 592 146 L 723 230"/>
    <path id="stroke-p6" style="stroke:#000" pathLength="3333" clip-path="url(#z26729c6)" d="M 546 362 L 619 368 L 860 319"/>
    <path id="stroke-p7" style="stroke:#000" pathLength="3333" clip-path="url(#z26729c7)" d="M 471 335 L 506 375 L 482 617 L 429 771 L 347 895"/>
    <path id="stroke-p8" style="stroke:#000" pathLength="3333" clip-path="url(#z26729c8)" d="M 532 617 L 600 622 L 850 571"/>
    <path id="stroke-p9" style="stroke:#000" pathLength="3333" clip-path="url(#z26729c9)" d="M 637 435 L 687 477 L 665 795"/>
    <path id="stroke-p10" style="stroke:#000" pathLength="3333" clip-path="url(#z26729c10)" d="M 478 833 L 826 797 L 923 805"/>
</g>
</svg>