<svg id="z27428" class="acjk" viewBox="0 0 1024 1024" xmlns="http://www.w3.org/2000/svg">
<style>
<![CDATA[
svg.acjk path[clip-path] {
    animation-duration: 8.100000000000001s;
    animation-timing-function: linear;
    animation-iteration-count: infinite;
    stroke-dasharray: 3337;
    stroke-dashoffset: 3339;
    stroke-width: 128;
    stroke-linecap: round;
    fill: none;
    stroke: #FF4444;
}
svg.acjk .bg { fill: #ccc; opacity: 0.5; }

/* Stroke 1: Starts at 0.0%, finishes at 9.9%, holds until 69.1% */
@keyframes zk1 {
    0%, 0.0% { stroke-dashoffset: 3339; }
    9.9%, 69.1% { stroke-dashoffset: 0; }
    69.2%, 100% { stroke-dashoffset: 3339; }
}
svg.acjk #stroke-p1 { animation-name: zk1; }
/* Stroke 2: Starts at 9.9%, finishes at 19.8%, holds until 69.1% */
@keyframes zk2 {
    0%, 9.9% { stroke-dashoffset: 3339; }
    19.8%, 69.1% { stroke-dashoffset: 0; }
    69.2%, 100% { stroke-dashoffset: 3339; }
}
svg.acjk #stroke-p2 { animation-name: zk2; }
/* Stroke 3: Starts at 19.8%, finishes at 29.6%, holds until 69.1% */
@keyframes zk3 {
    0%, 19.8% { stroke-dashoffset: 3339; }
    29.6%, 69.1% { stroke-dashoffset: 0; }
    69.2%, 100% { stroke-dashoffset: 3339; }
}
svg.acjk #stroke-p3 { animation-name: zk3; }
/* Stroke 4: Starts at 29.6%, finishes at 39.5%, holds until 69.1% */
@keyframes zk4 {
    0%, 29.6% { stroke-dashoffset: 3339; }
    39.5%, 69.1% { stroke-dashoffset: 0; }
    69.2%, 100% { stroke-dashoffset: 3339; }
}
svg.acjk #stroke-p4 { animation-name: zk4; }
/* Stroke 5: Starts at 39.5%, finishes at 49.4%, holds until 69.1% */
@keyframes zk5 {
    0%, 39.5% { stroke-dashoffset: 3339; }
    49.4%, 69.1% { stroke-dashoffset: 0; }
    69.2%, 100% { stroke-dashoffset: 3339; }
}
svg.acjk #stroke-p5 { animation-name: zk5; }
/* Stroke 6: Starts at 49.4%, finishes at 59.3%, holds until 69.1% */
@keyframes zk6 {
    0%, 49.4% { stroke-dashoffset: 3339; }
    59.3%, 69.1% { stroke-dashoffset: 0; }
    69.2%, 100% { stroke-dashoffset: 3339; }
}
svg.acjk #stroke-p6 { animation-name: zk6; }
/* Stroke 7: Starts at 59.3%, finishes at 69.1%, holds until 69.1% */
@keyframes zk7 {
    0%, 59.3% { stroke-dashoffset: 3339; }
    69.1%, 69.1% { stroke-dashoffset: 0; }
    69.2%, 100% { stroke-dashoffset: 3339; }
}
svg.acjk #stroke-p7 { animation-name: zk7; }
]]>
</style>
<defs>
    <path id="p1" d="M 269 277 Q 324 295 376 280 Q 490 250 493 247 Q 502 237 496 228 Q 487 216 456 211 Q 423 207 392 222 Q 368 232 342 239 Q 314 246 279 251 Q 275 251 274 253 C 266 256 261 274 269 277 Z"/>
    <path id="p2" d="M 225 486 Q 264 461 379 446 Q 392 445 397 449 Q 418 470 412 511 Q 405 601 374 722 Q 365 747 346 762 Q 337 768 254 752 Q 235 745 235 754 Q 234 764 256 779 Q 298 819 315 855 Q 337 886 361 865 Q 416 823 436 759 Q 439 746 466 538 Q 470 492 489 471 Q 504 455 497 446 Q 487 433 439 409 Q 405 391 258 436 Q 237 432 246 420 Q 256 338 269 277 C 272 261 272 261 274 253 Q 286 195 300 160 Q 307 144 297 132 Q 281 116 264 109 Q 240 99 231 104 Q 222 110 228 124 Q 255 175 201 397 Q 194 410 171 436 Q 159 449 168 462 Q 177 474 198 489 Q 208 498 225 486 Z"/>
    <path id="p3" d="M 84 621 Q 71 625 68 633 Q 67 646 85 655 Q 133 679 173 658 Q 249 619 352 589 Q 368 585 369 577 Q 368 562 347 556 Q 316 547 293 556 Q 140 610 84 621 Z"/>
    <path id="p4" d="M 601 359 Q 619 340 659 206 Q 669 166 682 144 Q 688 131 679 120 Q 672 110 639 95 Q 608 85 590 90 Q 574 97 587 116 Q 638 171 518 461 Q 511 473 511 480 Q 511 492 523 485 Q 545 476 587 390 C 596 369 596 369 601 359 Z"/>
    <path id="p5" d="M 587 390 Q 597 399 637 390 Q 734 350 757 357 Q 772 369 766 379 Q 766 382 731 456 Q 724 466 729 471 Q 733 477 744 465 Q 837 395 879 378 Q 889 375 889 367 Q 890 354 861 339 Q 789 294 765 310 Q 701 337 601 359 C 590 361 578 383 587 390 Z"/>
    <path id="p6" d="M 649 625 Q 649 618 651 612 Q 664 531 675 510 Q 684 492 668 484 Q 623 451 596 460 Q 583 464 590 479 Q 620 539 587 662 Q 551 776 464 834 Q 449 846 435 857 Q 422 866 435 868 Q 486 868 555 804 Q 609 753 640 660 C 646 637 646 637 649 625 Z"/>
    <path id="p7" d="M 640 660 Q 692 754 762 856 Q 778 875 804 875 Q 897 876 926 873 Q 935 872 936 867 Q 937 863 926 855 Q 805 794 728 712 Q 689 673 649 625 C 640 616 635 649 640 660 Z"/>

    <clipPath id="z27428c1"><use href="#p1"/></clipPath>
    <clipPath id="z27428c2"><use href="#p2"/></clipPath>
    <clipPath id="z27428c3"><use href="#p3"/></clipPath>
    <clipPath id="z27428c4"><use href="#p4"/></clipPath>
    <clipPath id="z27428c5"><use href="#p5"/></clipPath>
    <clipPath id="z27428c6"><use href="#p6"/></clipPath>
    <clipPath id="z27428c7"><use href="#p7"/></clipPath>
</defs>
<g id="bg-layer" class="bg">
<use href="#p1"/>
<use href="#p2"/>
<use href="#p3"/>
<use href="#p4"/>
<use href="#p5"/>
<use href="#p6"/>
<use href="#p7"/>
</g>
<g id="anim-layer">
    <path id="stroke-p1" style="stroke:#FF4444" pathLength="3333" clip-path="url(#z27428c1)" d="M 277 273 L 493 234"/>
    <path id="stroke-p2" style="stroke:#FF4444" pathLength="3333" clip-path="url(#z27428c2)" d="M 233 109 L 269 158 L 206 446 L 241 460 L 393 426 L 455 465 L 388 775 L 340 819 L 242 756"/>
    <path id="stroke-p3" style="stroke:#FF4444" pathLength="3333" clip-path="url(#z27428c3)" d="M 72 635 L 146 636 L 364 575"/>
    <path id="stroke-p4" style="stroke:#000" pathLength="3333" clip-path="url(#z27428c4)" d="M 590 101 L 642 146 L 598 314 L 518 481"/>
    <path id="stroke-p5" style="stroke:#000" pathLength="3333" clip-path="url(#z27428c5)" d="M 593 386 L 777 332 L 833 380 L 735 463"/>
    <path id="stroke-p6" style="stroke:#000" pathLength="3333" clip-path="url(#z27428c6)" d="M 596 470 L 640 511 L 603 689 L 540 792 L 439 861"/>
    <path id="stroke-p7" style="stroke:#000" pathLength="3333" clip-path="url(#z27428c7)" d="M 650 635 L 799 831 L 929 866"/>
</g>
</svg>