<svg id="z27468" class="acjk" viewBox="0 0 1024 1024" xmlns="http://www.w3.org/2000/svg">
<style>
<![CDATA[
svg.acjk path[clip-path] {
    animation-duration: 13.700000000000001s;
    animation-timing-function: linear;
    animation-iteration-count: infinite;
    stroke-dasharray: 3337;
    stroke-dashoffset: 3339;
    stroke-width: 128;
    stroke-linecap: round;
    fill: none;
    stroke: #FF4444;
}
svg.acjk .bg { fill: #ccc; opacity: 0.5; }

/* Stroke 1: Starts at 0.0%, finishes at 5.8%, holds until 81.8% */
@keyframes zk1 {
    0%, 0.0% { stroke-dashoffset: 3339; }
    5.8%, 81.8% { stroke-dashoffset: 0; }
    81.9%, 100% { stroke-dashoffset: 3339; }
}
svg.acjk #stroke-p1 { animation-name: zk1; }
/* Stroke 2: Starts at 5.8%, finishes at 11.7%, holds until 81.8% */
@keyframes zk2 {
    0%, 5.8% { stroke-dashoffset: 3339; }
    11.7%, 81.8% { stroke-dashoffset: 0; }
    81.9%, 100% { stroke-dashoffset: 3339; }
}
svg.acjk #stroke-p2 { animation-name: zk2; }
/* Stroke 3: Starts at 11.7%, finishes at 17.5%, holds until 81.8% */
@keyframes zk3 {
    0%, 11.7% { stroke-dashoffset: 3339; }
    17.5%, 81.8% { stroke-dashoffset: 0; }
    81.9%, 100% { stroke-dashoffset: 3339; }
}
svg.acjk #stroke-p3 { animation-name: zk3; }
/* Stroke 4: Starts at 17.5%, finishes at 23.4%, holds until 81.8% */
@keyframes zk4 {
    0%, 17.5% { stroke-dashoffset: 3339; }
    23.4%, 81.8% { stroke-dashoffset: 0; }
    81.9%, 100% { stroke-dashoffset: 3339; }
}
svg.acjk #stroke-p4 { animation-name: zk4; }
/* Stroke 5: Starts at 23.4%, finishes at 29.2%, holds until 81.8% */
@keyframes zk5 {
    0%, 23.4% { stroke-dashoffset: 3339; }
    29.2%, 81.8% { stroke-dashoffset: 0; }
    81.9%, 100% { stroke-dashoffset: 3339; }
}
svg.acjk #stroke-p5 { animation-name: zk5; }
/* Stroke 6: Starts at 29.2%, finishes at 35.0%, holds until 81.8% */
@keyframes zk6 {
    0%, 29.2% { stroke-dashoffset: 3339; }
    35.0%, 81.8% { stroke-dashoffset: 0; }
    81.9%, 100% { stroke-dashoffset: 3339; }
}
svg.acjk #stroke-p6 { animation-name: zk6; }
/* Stroke 7: Starts at 35.0%, finishes at 40.9%, holds until 81.8% */
@keyframes zk7 {
    0%, 35.0% { stroke-dashoffset: 3339; }
    40.9%, 81.8% { stroke-dashoffset: 0; }
    81.9%, 100% { stroke-dashoffset: 3339; }
}
svg.acjk #stroke-p7 { animation-name: zk7; }
/* Stroke 8: Starts at 40.9%, finishes at 46.7%, holds until 81.8% */
@keyframes zk8 {
    0%, 40.9% { stroke-dashoffset: 3339; }
    46.7%, 81.8% { stroke-dashoffset: 0; }
    81.9%, 100% { stroke-dashoffset: 3339; }
}
svg.acjk #stroke-p8 { animation-name: zk8; }
/* Stroke 9: Starts at 46.7%, finishes at 52.6%, holds until 81.8% */
@keyframes zk9 {
    0%, 46.7% { stroke-dashoffset: 3339; }
    52.6%, 81.8% { stroke-dashoffset: 0; }
    81.9%, 100% { stroke-dashoffset: 3339; }
}
svg.acjk #stroke-p9 { animation-name: zk9; }
/* Stroke 10: Starts at 52.6%, finishes at 58.4%, holds until 81.8% */
@keyframes zk10 {
    0%, 52.6% { stroke-dashoffset: 3339; }
    58.4%, 81.8% { stroke-dashoffset: 0; }
    81.9%, 100% { stroke-dashoffset: 3339; }
}
svg.acjk #stroke-p10 { animation-name: zk10; }
/* Stroke 11: Starts at 58.4%, finishes at 64.2%, holds until 81.8% */
@keyframes zk11 {
    0%, 58.4% { stroke-dashoffset: 3339; }
    64.2%, 81.8% { stroke-dashoffset: 0; }
    81.9%, 100% { stroke-dashoffset: 3339; }
}
svg.acjk #stroke-p11 { animation-name: zk11; }
/* Stroke 12: Starts at 64.2%, finishes at 70.1%, holds until 81.8% */
@keyframes zk12 {
    0%, 64.2% { stroke-dashoffset: 3339; }
    70.1%, 81.8% { stroke-dashoffset: 0; }
    81.9%, 100% { stroke-dashoffset: 3339; }
}
svg.acjk #stroke-p12 { animation-name: zk12; }
/* Stroke 13: Starts at 70.1%, finishes at 75.9%, holds until 81.8% */
@keyframes zk13 {
    0%, 70.1% { stroke-dashoffset: 3339; }
    75.9%, 81.8% { stroke-dashoffset: 0; }
    81.9%, 100% { stroke-dashoffset: 3339; }
}
svg.acjk #stroke-p13 { animation-name: zk13; }
/* Stroke 14: Starts at 75.9%, finishes at 81.8%, holds until 81.8% */
@keyframes zk14 {
    0%, 75.9% { stroke-dashoffset: 3339; }
    81.8%, 81.8% { stroke-dashoffset: 0; }
    81.9%, 100% { stroke-dashoffset: 3339; }
}
svg.acjk #stroke-p14 { animation-name: zk14; }
]]>
</style>
<defs>
    <path id="p1" d="M 452 177 Q 461 173 471 172 Q 513 162 519 157 Q 528 150 523 140 Q 516 128 486 121 Q 455 114 424 127 Q 378 143 326 155 Q 268 168 202 174 Q 165 180 191 198 Q 234 222 291 209 Q 352 196 419 183 C 441 179 441 179 452 177 Z"/>
    <path id="p2" d="M 204 290 Q 194 286 180 285 Q 170 284 168 287 Q 164 291 171 304 Q 190 338 205 395 Q 208 413 219 423 Q 234 439 237 427 Q 238 421 239 413 C 240 405 237 396 236 388 Q 226 327 224 311 C 222 302 213 294 204 290 Z"/>
    <path id="p3" d="M 351 367 Q 364 324 379 310 Q 398 288 378 277 Q 362 267 339 253 Q 323 244 308 253 Q 287 266 261 275 Q 239 282 204 290 C 195 292 215 315 224 311 Q 224 310 290 296 Q 309 292 314 299 Q 317 302 305 368 C 302 383 348 382 351 367 Z"/>
    <path id="p4" d="M 239 413 Q 248 414 258 412 Q 291 402 364 393 Q 371 392 373 384 Q 373 378 351 367 C 338 359 320 363 305 368 Q 265 380 236 388 C 228 391 231 413 239 413 Z"/>
    <path id="p5" d="M 419 183 Q 434 231 416 324 Q 401 387 431 417 C 432 418 432 418 432 418 Q 447 427 455 399 Q 464 371 464 332 Q 473 260 484 230 Q 488 218 479 203 Q 466 188 452 177 C 443 170 417 172 419 183 Z"/>
    <path id="p6" d="M 427 496 Q 458 492 494 489 Q 512 488 512 480 Q 515 467 496 457 Q 469 442 445 447 Q 175 492 68 497 Q 55 497 51 505 Q 47 515 62 529 Q 101 560 144 548 Q 285 511 386 500 C 413 497 413 497 427 496 Z"/>
    <path id="p7" d="M 193 594 Q 183 588 155 584 Q 145 581 142 586 Q 138 590 144 605 Q 166 645 179 713 Q 182 732 194 746 Q 210 765 214 751 Q 217 741 216 726 C 213 706 213 706 212 696 Q 202 636 202 617 C 202 609 200 598 193 594 Z"/>
    <path id="p8" d="M 329 681 Q 345 629 362 614 Q 381 593 362 581 Q 310 553 308 553 Q 299 552 292 557 Q 264 575 193 594 C 185 596 194 620 202 617 Q 208 614 274 600 Q 293 596 298 603 Q 302 607 287 675 C 285 689 326 695 329 681 Z"/>
    <path id="p9" d="M 216 726 Q 220 726 225 725 Q 261 715 339 707 Q 348 706 349 698 Q 349 692 329 681 C 317 674 301 675 287 675 Q 281 675 281 676 Q 242 688 212 696 C 202 699 206 726 216 726 Z"/>
    <path id="p10" d="M 454 811 Q 454 640 459 579 Q 468 524 427 496 C 415 489 383 487 386 500 Q 386 503 388 507 Q 401 544 401 661 Q 402 799 389 831 Q 385 844 360 841 Q 338 837 313 833 Q 300 833 299 839 Q 298 846 308 856 Q 369 908 389 940 Q 404 953 414 952 Q 427 948 439 912 Q 455 879 454 821 C 454 814 454 814 454 811 Z"/>
    <path id="p11" d="M 622 345 Q 625 339 629 333 Q 662 279 696 198 Q 709 161 723 142 Q 730 130 724 118 Q 717 106 687 90 Q 659 77 640 81 Q 624 85 634 105 Q 649 126 645 147 Q 632 217 604 285 Q 577 351 537 426 Q 530 436 528 443 Q 527 455 540 450 Q 561 441 605 373 C 616 354 616 354 622 345 Z"/>
    <path id="p12" d="M 605 373 Q 620 383 648 375 Q 759 330 791 338 Q 801 350 796 357 Q 797 363 755 436 Q 748 446 753 451 Q 757 457 768 445 Q 862 376 904 359 Q 914 356 914 348 Q 915 335 887 322 Q 820 283 806 291 Q 736 321 622 345 C 611 347 595 368 605 373 Z"/>
    <path id="p13" d="M 659 598 Q 659 597 660 596 Q 672 530 685 505 Q 694 489 678 480 Q 636 446 610 455 Q 597 459 603 473 Q 631 518 597 637 Q 566 737 484 789 Q 471 799 455 810 Q 454 810 454 811 C 451 813 451 821 454 821 Q 508 821 568 765 Q 625 716 651 630 C 656 609 656 609 659 598 Z"/>
    <path id="p14" d="M 651 630 Q 717 727 798 832 Q 817 851 847 849 Q 949 845 981 838 Q 991 837 992 831 Q 993 827 980 818 Q 838 758 759 689 Q 711 647 659 598 C 651 590 644 621 651 630 Z"/>

    <clipPath id="z27468c1"><use href="#p1"/></clipPath>
    <clipPath id="z27468c2"><use href="#p2"/></clipPath>
    <clipPath id="z27468c3"><use href="#p3"/></clipPath>
    <clipPath id="z27468c4"><use href="#p4"/></clipPath>
    <clipPath id="z27468c5"><use href="#p5"/></clipPath>
    <clipPath id="z27468c6"><use href="#p6"/></clipPath>
    <clipPath id="z27468c7"><use href="#p7"/></clipPath>
    <clipPath id="z27468c8"><use href="#p8"/></clipPath>
    <clipPath id="z27468c9"><use href="#p9"/></clipPath>
    <clipPath id="z27468c10"><use href="#p10"/></clipPath>
    <clipPath id="z27468c11"><use href="#p11"/></clipPath>
    <clipPath id="z27468c12"><use href="#p12"/></clipPath>
    <clipPath id="z27468c13"><use href="#p13"/></clipPath>
    <clipPath id="z27468c14"><use href="#p14"/></clipPath>
</defs>
<g id="bg-layer" class="bg">
<use href="#p1"/>
<use href="#p2"/>
<use href="#p3"/>
<use href="#p4"/>
<use href="#p5"/>
<use href="#p6"/>
<use href="#p7"/>
<use href="#p8"/>
<use href="#p9"/>
<use href="#p10"/>
<use href="#p11"/>
<use href="#p12"/>
<use href="#p13"/>
<use href="#p14"/>
</g>
<g id="anim-layer">
    <path id="stroke-p1" style="stroke:#FF4444" pathLength="3333" clip-path="url(#z27468c1)" d="M 186 186 L 518 143"/>
    <path id="stroke-p2" style="stroke:#FF4444" pathLength="3333" clip-path="url(#z27468c2)" d="M 176 293 L 204 320 L 230 427"/>
    <path id="stroke-p3" style="stroke:#FF4444" pathLength="3333" clip-path="url(#z27468c3)" d="M 211 295 L 311 272 L 344 287 L 321 376"/>
    <path id="stroke-p4" style="stroke:#FF4444" pathLength="3333" clip-path="url(#z27468c4)" d="M 233 399 L 364 384"/>
    <path id="stroke-p5" style="stroke:#FF4444" pathLength="3333" clip-path="url(#z27468c5)" d="M 427 184 L 455 222 L 441 416"/>
    <path id="stroke-p6" style="stroke:#FF4444" pathLength="3333" clip-path="url(#z27468c6)" d="M 56 507 L 119 522 L 443 470 L 507 477"/>
    <path id="stroke-p7" style="stroke:#FF4444" pathLength="3333" clip-path="url(#z27468c7)" d="M 147 592 L 177 617 L 204 748"/>
    <path id="stroke-p8" style="stroke:#FF4444" pathLength="3333" clip-path="url(#z27468c8)" d="M 193 603 L 298 578 L 326 590 L 302 685"/>
    <path id="stroke-p9" style="stroke:#FF4444" pathLength="3333" clip-path="url(#z27468c9)" d="M 211 712 L 343 698"/>
    <path id="stroke-p10" style="stroke:#FF4444" pathLength="3333" clip-path="url(#z27468c10)" d="M 391 498 L 428 550 L 420 852 L 394 902 L 306 842"/>
    <path id="stroke-p11" style="stroke:#000" pathLength="3333" clip-path="url(#z27468c11)" d="M 637 91 L 683 121 L 684 143 L 536 445"/>
    <path id="stroke-p12" style="stroke:#000" pathLength="3333" clip-path="url(#z27468c12)" d="M 609 368 L 817 320 L 860 354 L 758 446"/>
    <path id="stroke-p13" style="stroke:#000" pathLength="3333" clip-path="url(#z27468c13)" d="M 608 461 L 651 506 L 611 668 L 554 754 L 461 816"/>
    <path id="stroke-p14" style="stroke:#000" pathLength="3333" clip-path="url(#z27468c14)" d="M 656 603 L 825 794 L 985 830"/>
</g>
</svg>