<svg id="z27491" class="acjk" viewBox="0 0 1024 1024" xmlns="http://www.w3.org/2000/svg">
<style>
<![CDATA[
svg.acjk path[clip-path] {
    animation-duration: 6.5s;
    animation-timing-function: linear;
    animation-iteration-count: infinite;
    stroke-dasharray: 3337;
    stroke-dashoffset: 3339;
    stroke-width: 128;
    stroke-linecap: round;
    fill: none;
    stroke: #FF4444;
}
svg.acjk .bg { fill: #ccc; opacity: 0.5; }

/* Stroke 1: Starts at 0.0%, finishes at 12.3%, holds until 61.5% */
@keyframes zk1 {
    0%, 0.0% { stroke-dashoffset: 3339; }
    12.3%, 61.5% { stroke-dashoffset: 0; }
    61.6%, 100% { stroke-dashoffset: 3339; }
}
svg.acjk #stroke-p1 { animation-name: zk1; }
/* Stroke 2: Starts at 12.3%, finishes at 24.6%, holds until 61.5% */
@keyframes zk2 {
    0%, 12.3% { stroke-dashoffset: 3339; }
    24.6%, 61.5% { stroke-dashoffset: 0; }
    61.6%, 100% { stroke-dashoffset: 3339; }
}
svg.acjk #stroke-p2 { animation-name: zk2; }
/* Stroke 3: Starts at 24.6%, finishes at 36.9%, holds until 61.5% */
@keyframes zk3 {
    0%, 24.6% { stroke-dashoffset: 3339; }
    36.9%, 61.5% { stroke-dashoffset: 0; }
    61.6%, 100% { stroke-dashoffset: 3339; }
}
svg.acjk #stroke-p3 { animation-name: zk3; }
/* Stroke 4: Starts at 36.9%, finishes at 49.2%, holds until 61.5% */
@keyframes zk4 {
    0%, 36.9% { stroke-dashoffset: 3339; }
    49.2%, 61.5% { stroke-dashoffset: 0; }
    61.6%, 100% { stroke-dashoffset: 3339; }
}
svg.acjk #stroke-p4 { animation-name: zk4; }
/* Stroke 5: Starts at 49.2%, finishes at 61.5%, holds until 61.5% */
@keyframes zk5 {
    0%, 49.2% { stroke-dashoffset: 3339; }
    61.5%, 61.5% { stroke-dashoffset: 0; }
    61.6%, 100% { stroke-dashoffset: 3339; }
}
svg.acjk #stroke-p5 { animation-name: zk5; }
]]>
</style>
<defs>
    <path id="p1" d="M 505 233 C 561 223 621 212 683 201 C 723 193 747 185 754 180 C 760 174 761 167 759 162 C 753 152 739 144 719 139 C 695 133 649 146 574 166 C 472 191 387 201 321 207 C 293 209 285 220 308 232 C 359 259 408 250 460 241 C 490 236 490 236 505 233 Z"/>
    <path id="p2" d="M 534 746 C 536 650 536 560 539 480 C 540 455 540 455 540 443 C 545 254 567 264 505 233 C 491 227 452 228 460 241 C 493 295 484 354 484 751 C 484 768 534 763 534 746 Z"/>
    <path id="p3" d="M 539 480 C 565 486 590 483 616 478 C 709 456 760 447 767 443 C 774 437 774 429 772 425 C 765 415 750 409 732 405 C 708 400 688 404 667 413 C 636 424 581 435 540 443 C 528 445 527 478 539 480 Z"/>
    <path id="p4" d="M 346 765 C 330 625 324 536 327 498 C 328 481 322 466 312 459 C 293 445 273 436 254 432 C 242 428 234 429 228 435 C 222 439 220 447 228 459 C 266 515 274 603 300 769 C 303 784 349 780 346 765 Z"/>
    <path id="p5" d="M 300 769 C 235 774 168 780 100 786 C 83 787 79 793 93 809 C 102 820 115 828 131 834 C 146 838 162 839 176 836 C 370 791 608 777 884 790 C 893 790 914 787 918 781 C 923 771 918 758 906 749 C 860 712 821 702 784 710 C 719 722 636 735 534 746 C 501 749 501 749 484 751 C 439 755 393 760 346 765 C 315 768 315 768 300 769 Z"/>

    <clipPath id="z27491c1"><use href="#p1"/></clipPath>
    <clipPath id="z27491c2"><use href="#p2"/></clipPath>
    <clipPath id="z27491c3"><use href="#p3"/></clipPath>
    <clipPath id="z27491c4"><use href="#p4"/></clipPath>
    <clipPath id="z27491c5"><use href="#p5"/></clipPath>
</defs>
<g id="bg-layer" class="bg">
<use href="#p1"/>
<use href="#p2"/>
<use href="#p3"/>
<use href="#p4"/>
<use href="#p5"/>
</g>
<g id="anim-layer">
    <path id="stroke-p1" style="stroke:#FF4444" pathLength="3333" clip-path="url(#z27491c1)" d="M 301 218 L 408 223 L 755 163"/>
    <path id="stroke-p2" style="stroke:#000" pathLength="3333" clip-path="url(#z27491c2)" d="M 466 238 L 508 267 L 514 297 L 500 759"/>
    <path id="stroke-p3" style="stroke:#000" pathLength="3333" clip-path="url(#z27491c3)" d="M 535 463 L 769 430"/>
    <path id="stroke-p4" style="stroke:#000" pathLength="3333" clip-path="url(#z27491c4)" d="M 228 440 L 289 495 L 322 776"/>
    <path id="stroke-p5" style="stroke:#000" pathLength="3333" clip-path="url(#z27491c5)" d="M 93 795 L 151 810 L 795 747 L 916 769"/>
</g>
</svg>