<svg id="z27496" class="acjk" viewBox="0 0 1024 1024" xmlns="http://www.w3.org/2000/svg">
<style>
<![CDATA[
svg.acjk path[clip-path] {
    animation-duration: 8.9s;
    animation-timing-function: linear;
    animation-iteration-count: infinite;
    stroke-dasharray: 3337;
    stroke-dashoffset: 3339;
    stroke-width: 128;
    stroke-linecap: round;
    fill: none;
    stroke: #FF4444;
}
svg.acjk .bg { fill: #ccc; opacity: 0.5; }

/* Stroke 1: Starts at 0.0%, finishes at 9.0%, holds until 71.9% */
@keyframes zk1 {
    0%, 0.0% { stroke-dashoffset: 3339; }
    9.0%, 71.9% { stroke-dashoffset: 0; }
    72.0%, 100% { stroke-dashoffset: 3339; }
}
svg.acjk #stroke-p1 { animation-name: zk1; }
/* Stroke 2: Starts at 9.0%, finishes at 18.0%, holds until 71.9% */
@keyframes zk2 {
    0%, 9.0% { stroke-dashoffset: 3339; }
    18.0%, 71.9% { stroke-dashoffset: 0; }
    72.0%, 100% { stroke-dashoffset: 3339; }
}
svg.acjk #stroke-p2 { animation-name: zk2; }
/* Stroke 3: Starts at 18.0%, finishes at 27.0%, holds until 71.9% */
@keyframes zk3 {
    0%, 18.0% { stroke-dashoffset: 3339; }
    27.0%, 71.9% { stroke-dashoffset: 0; }
    72.0%, 100% { stroke-dashoffset: 3339; }
}
svg.acjk #stroke-p3 { animation-name: zk3; }
/* Stroke 4: Starts at 27.0%, finishes at 36.0%, holds until 71.9% */
@keyframes zk4 {
    0%, 27.0% { stroke-dashoffset: 3339; }
    36.0%, 71.9% { stroke-dashoffset: 0; }
    72.0%, 100% { stroke-dashoffset: 3339; }
}
svg.acjk #stroke-p4 { animation-name: zk4; }
/* Stroke 5: Starts at 36.0%, finishes at 44.9%, holds until 71.9% */
@keyframes zk5 {
    0%, 36.0% { stroke-dashoffset: 3339; }
    44.9%, 71.9% { stroke-dashoffset: 0; }
    72.0%, 100% { stroke-dashoffset: 3339; }
}
svg.acjk #stroke-p5 { animation-name: zk5; }
/* Stroke 6: Starts at 44.9%, finishes at 53.9%, holds until 71.9% */
@keyframes zk6 {
    0%, 44.9% { stroke-dashoffset: 3339; }
    53.9%, 71.9% { stroke-dashoffset: 0; }
    72.0%, 100% { stroke-dashoffset: 3339; }
}
svg.acjk #stroke-p6 { animation-name: zk6; }
/* Stroke 7: Starts at 53.9%, finishes at 62.9%, holds until 71.9% */
@keyframes zk7 {
    0%, 53.9% { stroke-dashoffset: 3339; }
    62.9%, 71.9% { stroke-dashoffset: 0; }
    72.0%, 100% { stroke-dashoffset: 3339; }
}
svg.acjk #stroke-p7 { animation-name: zk7; }
/* Stroke 8: Starts at 62.9%, finishes at 71.9%, holds until 71.9% */
@keyframes zk8 {
    0%, 62.9% { stroke-dashoffset: 3339; }
    71.9%, 71.9% { stroke-dashoffset: 0; }
    72.0%, 100% { stroke-dashoffset: 3339; }
}
svg.acjk #stroke-p8 { animation-name: zk8; }
]]>
</style>
<defs>
    <path id="p1" d="M 533 400 C 537 349 541 300 546 255 C 548 234 548 234 549 224 C 556 150 585 141 549 116 C 526 100 505 95 489 92 C 473 88 450 97 465 120 C 498 175 488 223 490 408 C 490 423 533 415 533 400 Z"/>
    <path id="p2" d="M 546 255 C 576 265 606 264 639 256 C 672 247 707 240 743 232 C 813 215 763 191 735 186 C 713 181 692 186 670 195 C 624 212 597 217 549 224 C 539 226 536 253 546 255 Z"/>
    <path id="p3" d="M 389 424 C 383 341 381 290 383 271 C 384 254 379 241 369 234 C 352 221 334 213 314 208 C 298 204 274 206 289 233 C 304 261 325 325 344 430 C 346 445 389 439 389 424 Z"/>
    <path id="p4" d="M 526 438 C 562 433 687 423 900 414 C 933 412 938 393 915 376 C 875 347 836 339 800 348 C 730 363 640 379 533 400 C 504 405 504 405 490 408 C 457 414 423 419 389 424 C 359 428 359 428 344 430 C 273 439 198 451 120 463 C 105 465 102 473 115 485 C 141 511 176 510 192 505 C 297 471 391 454 477 444 C 510 440 510 440 526 438 Z"/>
    <path id="p5" d="M 533 730 C 535 684 538 643 540 605 C 541 586 541 586 541 576 C 545 452 574 468 526 438 C 512 430 471 429 477 444 C 497 480 492 578 490 704 C 490 721 533 747 533 730 Z"/>
    <path id="p6" d="M 540 605 C 560 609 672 591 729 577 C 776 565 737 534 701 532 C 679 530 627 544 541 576 C 532 580 531 603 540 605 Z"/>
    <path id="p7" d="M 379 615 C 390 597 409 574 391 559 C 361 535 340 525 322 527 C 314 527 311 531 312 544 C 315 657 206 776 105 892 C 97 901 101 908 112 903 C 233 839 317 713 362 642 C 373 624 373 624 379 615 Z"/>
    <path id="p8" d="M 362 642 C 442 715 505 770 598 838 C 643 870 710 922 758 923 C 779 923 846 913 914 897 C 964 884 966 869 942 865 C 886 855 842 851 811 846 C 715 831 634 791 533 730 C 504 713 504 713 490 704 C 448 678 417 646 379 615 C 371 608 353 636 362 642 Z"/>

    <clipPath id="z27496c1"><use href="#p1"/></clipPath>
    <clipPath id="z27496c2"><use href="#p2"/></clipPath>
    <clipPath id="z27496c3"><use href="#p3"/></clipPath>
    <clipPath id="z27496c4"><use href="#p4"/></clipPath>
    <clipPath id="z27496c5"><use href="#p5"/></clipPath>
    <clipPath id="z27496c6"><use href="#p6"/></clipPath>
    <clipPath id="z27496c7"><use href="#p7"/></clipPath>
    <clipPath id="z27496c8"><use href="#p8"/></clipPath>
</defs>
<g id="bg-layer" class="bg">
<use href="#p1"/>
<use href="#p2"/>
<use href="#p3"/>
<use href="#p4"/>
<use href="#p5"/>
<use href="#p6"/>
<use href="#p7"/>
<use href="#p8"/>
</g>
<g id="anim-layer">
    <path id="stroke-p1" style="stroke:#FF4444" pathLength="3333" clip-path="url(#z27496c1)" d="M 466 98 L 525 153 L 512 413"/>
    <path id="stroke-p2" style="stroke:#FF4444" pathLength="3333" clip-path="url(#z27496c2)" d="M 543 243 L 770 210"/>
    <path id="stroke-p3" style="stroke:#FF4444" pathLength="3333" clip-path="url(#z27496c3)" d="M 290 212 L 342 259 L 370 435"/>
    <path id="stroke-p4" style="stroke:#FF4444" pathLength="3333" clip-path="url(#z27496c4)" d="M 112 471 L 168 482 L 817 381 L 924 388"/>
    <path id="stroke-p5" style="stroke:#000" pathLength="3333" clip-path="url(#z27496c5)" d="M 484 441 L 520 474 L 520 731"/>
    <path id="stroke-p6" style="stroke:#000" pathLength="3333" clip-path="url(#z27496c6)" d="M 537 596 L 746 558"/>
    <path id="stroke-p7" style="stroke:#000" pathLength="3333" clip-path="url(#z27496c7)" d="M 320 530 L 353 581 L 318 655 L 232 778 L 107 900"/>
    <path id="stroke-p8" style="stroke:#000" pathLength="3333" clip-path="url(#z27496c8)" d="M 370 623 L 495 732 L 715 866 L 774 882 L 950 873"/>
</g>
</svg>