<svg id="z27695" class="acjk" viewBox="0 0 1024 1024" xmlns="http://www.w3.org/2000/svg">
<style>
<![CDATA[
svg.acjk path[clip-path] {
    animation-duration: 12.100000000000001s;
    animation-timing-function: linear;
    animation-iteration-count: infinite;
    stroke-dasharray: 3337;
    stroke-dashoffset: 3339;
    stroke-width: 128;
    stroke-linecap: round;
    fill: none;
    stroke: #FF4444;
}
svg.acjk .bg { fill: #ccc; opacity: 0.5; }

/* Stroke 1: Starts at 0.0%, finishes at 6.6%, holds until 79.3% */
@keyframes zk1 {
    0%, 0.0% { stroke-dashoffset: 3339; }
    6.6%, 79.3% { stroke-dashoffset: 0; }
    79.4%, 100% { stroke-dashoffset: 3339; }
}
svg.acjk #stroke-p1 { animation-name: zk1; }
/* Stroke 2: Starts at 6.6%, finishes at 13.2%, holds until 79.3% */
@keyframes zk2 {
    0%, 6.6% { stroke-dashoffset: 3339; }
    13.2%, 79.3% { stroke-dashoffset: 0; }
    79.4%, 100% { stroke-dashoffset: 3339; }
}
svg.acjk #stroke-p2 { animation-name: zk2; }
/* Stroke 3: Starts at 13.2%, finishes at 19.8%, holds until 79.3% */
@keyframes zk3 {
    0%, 13.2% { stroke-dashoffset: 3339; }
    19.8%, 79.3% { stroke-dashoffset: 0; }
    79.4%, 100% { stroke-dashoffset: 3339; }
}
svg.acjk #stroke-p3 { animation-name: zk3; }
/* Stroke 4: Starts at 19.8%, finishes at 26.4%, holds until 79.3% */
@keyframes zk4 {
    0%, 19.8% { stroke-dashoffset: 3339; }
    26.4%, 79.3% { stroke-dashoffset: 0; }
    79.4%, 100% { stroke-dashoffset: 3339; }
}
svg.acjk #stroke-p4 { animation-name: zk4; }
/* Stroke 5: Starts at 26.4%, finishes at 33.1%, holds until 79.3% */
@keyframes zk5 {
    0%, 26.4% { stroke-dashoffset: 3339; }
    33.1%, 79.3% { stroke-dashoffset: 0; }
    79.4%, 100% { stroke-dashoffset: 3339; }
}
svg.acjk #stroke-p5 { animation-name: zk5; }
/* Stroke 6: Starts at 33.1%, finishes at 39.7%, holds until 79.3% */
@keyframes zk6 {
    0%, 33.1% { stroke-dashoffset: 3339; }
    39.7%, 79.3% { stroke-dashoffset: 0; }
    79.4%, 100% { stroke-dashoffset: 3339; }
}
svg.acjk #stroke-p6 { animation-name: zk6; }
/* Stroke 7: Starts at 39.7%, finishes at 46.3%, holds until 79.3% */
@keyframes zk7 {
    0%, 39.7% { stroke-dashoffset: 3339; }
    46.3%, 79.3% { stroke-dashoffset: 0; }
    79.4%, 100% { stroke-dashoffset: 3339; }
}
svg.acjk #stroke-p7 { animation-name: zk7; }
/* Stroke 8: Starts at 46.3%, finishes at 52.9%, holds until 79.3% */
@keyframes zk8 {
    0%, 46.3% { stroke-dashoffset: 3339; }
    52.9%, 79.3% { stroke-dashoffset: 0; }
    79.4%, 100% { stroke-dashoffset: 3339; }
}
svg.acjk #stroke-p8 { animation-name: zk8; }
/* Stroke 9: Starts at 52.9%, finishes at 59.5%, holds until 79.3% */
@keyframes zk9 {
    0%, 52.9% { stroke-dashoffset: 3339; }
    59.5%, 79.3% { stroke-dashoffset: 0; }
    79.4%, 100% { stroke-dashoffset: 3339; }
}
svg.acjk #stroke-p9 { animation-name: zk9; }
/* Stroke 10: Starts at 59.5%, finishes at 66.1%, holds until 79.3% */
@keyframes zk10 {
    0%, 59.5% { stroke-dashoffset: 3339; }
    66.1%, 79.3% { stroke-dashoffset: 0; }
    79.4%, 100% { stroke-dashoffset: 3339; }
}
svg.acjk #stroke-p10 { animation-name: zk10; }
/* Stroke 11: Starts at 66.1%, finishes at 72.7%, holds until 79.3% */
@keyframes zk11 {
    0%, 66.1% { stroke-dashoffset: 3339; }
    72.7%, 79.3% { stroke-dashoffset: 0; }
    79.4%, 100% { stroke-dashoffset: 3339; }
}
svg.acjk #stroke-p11 { animation-name: zk11; }
/* Stroke 12: Starts at 72.7%, finishes at 79.3%, holds until 79.3% */
@keyframes zk12 {
    0%, 72.7% { stroke-dashoffset: 3339; }
    79.3%, 79.3% { stroke-dashoffset: 0; }
    79.4%, 100% { stroke-dashoffset: 3339; }
}
svg.acjk #stroke-p12 { animation-name: zk12; }
]]>
</style>
<defs>
    <path id="p1" d="M 383 156 Q 404 126 424 102 Q 436 90 422 75 Q 383 39 356 42 Q 346 43 346 58 Q 355 145 249 253 Q 246 254 245 257 Q 220 282 206 296 Q 196 311 212 307 Q 228 306 253 289 Q 323 243 367 180 C 378 164 378 164 383 156 Z"/>
    <path id="p2" d="M 367 180 Q 407 202 457 191 Q 554 173 654 155 Q 699 145 706 139 Q 715 132 711 124 Q 704 112 676 104 Q 648 98 618 109 Q 566 125 509 138 Q 451 150 383 156 C 373 156 358 176 367 180 Z"/>
    <path id="p3" d="M 379 250 Q 349 254 370 269 Q 397 284 469 274 Q 535 261 605 248 Q 641 239 647 235 Q 654 228 650 221 Q 644 212 621 206 Q 597 202 573 210 Q 531 223 487 235 Q 438 245 379 250 Z"/>
    <path id="p4" d="M 219 350 Q 194 349 207 367 Q 219 383 244 394 Q 268 407 299 395 Q 389 370 643 328 Q 668 324 663 348 Q 603 618 685 762 Q 692 777 705 792 Q 742 841 805 874 Q 853 899 903 901 Q 945 902 969 888 Q 981 884 977 866 Q 964 791 960 693 Q 957 668 947 689 Q 907 810 893 824 Q 880 834 861 826 Q 746 790 708 683 Q 663 548 715 397 Q 728 363 764 338 Q 780 329 778 316 Q 775 304 714 271 Q 695 259 672 272 Q 501 350 219 350 Z"/>
    <path id="p5" d="M 526 551 Q 544 479 574 453 Q 587 437 574 422 Q 561 412 515 391 Q 499 385 481 393 Q 439 409 400 420 Q 348 433 293 439 Q 278 440 280 449 Q 283 456 298 461 Q 320 471 350 460 Q 485 433 491 439 Q 500 446 499 463 Q 492 515 482 559 C 479 574 523 566 526 551 Z"/>
    <path id="p6" d="M 287 515 Q 266 518 282 530 Q 301 545 341 540 Q 411 527 456 523 Q 463 524 470 515 Q 471 506 454 499 Q 433 486 373 501 Q 325 510 287 515 Z"/>
    <path id="p7" d="M 426 602 Q 501 589 597 580 Q 612 579 612 573 Q 613 561 599 553 Q 572 541 526 551 C 497 556 497 556 482 559 Q 281 595 189 599 Q 179 600 175 607 Q 172 616 185 626 Q 218 650 273 635 Q 337 617 389 608 C 414 604 414 604 426 602 Z"/>
    <path id="p8" d="M 451 705 Q 451 680 454 656 Q 460 634 455 625 Q 448 615 426 602 C 415 596 387 596 389 608 Q 401 647 402 823 Q 399 839 393 848 Q 389 849 319 837 Q 309 834 309 840 Q 310 847 318 854 Q 369 896 402 931 Q 412 938 424 925 Q 452 886 454 797 Q 451 758 451 728 C 451 713 451 713 451 705 Z"/>
    <path id="p9" d="M 257 692 Q 308 734 319 734 Q 326 733 330 724 Q 333 712 325 691 Q 321 678 298 669 Q 246 651 236 658 Q 232 661 234 670 Q 237 677 257 692 Z"/>
    <path id="p10" d="M 186 813 Q 174 814 175 828 Q 176 843 199 856 Q 221 872 233 873 Q 242 873 250 855 Q 283 819 361 746 Q 368 742 365 734 Q 362 731 355 734 Q 229 809 205 812 Q 196 812 186 813 Z"/>
    <path id="p11" d="M 509 730 Q 573 690 605 675 Q 620 672 617 663 Q 613 650 598 634 Q 583 619 566 616 Q 554 616 554 632 Q 555 648 491 721 C 486 726 504 734 509 730 Z"/>
    <path id="p12" d="M 491 721 Q 457 706 451 705 C 443 703 446 723 451 728 Q 452 729 457 733 Q 527 785 612 860 Q 627 876 640 878 Q 647 879 653 870 Q 662 857 648 822 Q 635 776 512 731 C 510 730 510 730 509 730 C 497 724 497 724 491 721 Z"/>

    <clipPath id="z27695c1"><use href="#p1"/></clipPath>
    <clipPath id="z27695c2"><use href="#p2"/></clipPath>
    <clipPath id="z27695c3"><use href="#p3"/></clipPath>
    <clipPath id="z27695c4"><use href="#p4"/></clipPath>
    <clipPath id="z27695c5"><use href="#p5"/></clipPath>
    <clipPath id="z27695c6"><use href="#p6"/></clipPath>
    <clipPath id="z27695c7"><use href="#p7"/></clipPath>
    <clipPath id="z27695c8"><use href="#p8"/></clipPath>
    <clipPath id="z27695c9"><use href="#p9"/></clipPath>
    <clipPath id="z27695c10"><use href="#p10"/></clipPath>
    <clipPath id="z27695c11"><use href="#p11"/></clipPath>
    <clipPath id="z27695c12"><use href="#p12"/></clipPath>
</defs>
<g id="bg-layer" class="bg">
<use href="#p1"/>
<use href="#p2"/>
<use href="#p3"/>
<use href="#p4"/>
<use href="#p5"/>
<use href="#p6"/>
<use href="#p7"/>
<use href="#p8"/>
<use href="#p9"/>
<use href="#p10"/>
<use href="#p11"/>
<use href="#p12"/>
</g>
<g id="anim-layer">
    <path id="stroke-p1" style="stroke:#FF4444" pathLength="3333" clip-path="url(#z27695c1)" d="M 355 46 L 386 94 L 357 148 L 209 301"/>
    <path id="stroke-p2" style="stroke:#FF4444" pathLength="3333" clip-path="url(#z27695c2)" d="M 367 173 L 707 132"/>
    <path id="stroke-p3" style="stroke:#FF4444" pathLength="3333" clip-path="url(#z27695c3)" d="M 368 259 L 644 224"/>
    <path id="stroke-p4" style="stroke:#FF4444" pathLength="3333" clip-path="url(#z27695c4)" d="M 208 356 L 279 375 L 694 306 L 724 330 L 675 431 L 663 585 L 718 763 L 810 841 L 915 860 L 938 848 L 952 689"/>
    <path id="stroke-p5" style="stroke:#000" pathLength="3333" clip-path="url(#z27695c5)" d="M 287 448 L 518 422 L 538 450 L 490 561"/>
    <path id="stroke-p6" style="stroke:#000" pathLength="3333" clip-path="url(#z27695c6)" d="M 283 522 L 463 513"/>
    <path id="stroke-p7" style="stroke:#000" pathLength="3333" clip-path="url(#z27695c7)" d="M 180 611 L 607 568"/>
    <path id="stroke-p8" style="stroke:#000" pathLength="3333" clip-path="url(#z27695c8)" d="M 397 606 L 427 642 L 418 866 L 393 890 L 317 843"/>
    <path id="stroke-p9" style="stroke:#000" pathLength="3333" clip-path="url(#z27695c9)" d="M 240 666 L 324 726"/>
    <path id="stroke-p10" style="stroke:#000" pathLength="3333" clip-path="url(#z27695c10)" d="M 180 824 L 235 836 L 359 738"/>
    <path id="stroke-p11" style="stroke:#000" pathLength="3333" clip-path="url(#z27695c11)" d="M 565 619 L 581 661 L 499 722"/>
    <path id="stroke-p12" style="stroke:#000" pathLength="3333" clip-path="url(#z27695c12)" d="M 453 713 L 587 798 L 648 870"/>
</g>
</svg>