<svg id="z27718" class="acjk" viewBox="0 0 1024 1024" xmlns="http://www.w3.org/2000/svg">
<style>
<![CDATA[
svg.acjk path[clip-path] {
    animation-duration: 7.300000000000001s;
    animation-timing-function: linear;
    animation-iteration-count: infinite;
    stroke-dasharray: 3337;
    stroke-dashoffset: 3339;
    stroke-width: 128;
    stroke-linecap: round;
    fill: none;
    stroke: #FF4444;
}
svg.acjk .bg { fill: #ccc; opacity: 0.5; }

/* Stroke 1: Starts at 0.0%, finishes at 11.0%, holds until 65.8% */
@keyframes zk1 {
    0%, 0.0% { stroke-dashoffset: 3339; }
    11.0%, 65.8% { stroke-dashoffset: 0; }
    65.9%, 100% { stroke-dashoffset: 3339; }
}
svg.acjk #stroke-p1 { animation-name: zk1; }
/* Stroke 2: Starts at 11.0%, finishes at 21.9%, holds until 65.8% */
@keyframes zk2 {
    0%, 11.0% { stroke-dashoffset: 3339; }
    21.9%, 65.8% { stroke-dashoffset: 0; }
    65.9%, 100% { stroke-dashoffset: 3339; }
}
svg.acjk #stroke-p2 { animation-name: zk2; }
/* Stroke 3: Starts at 21.9%, finishes at 32.9%, holds until 65.8% */
@keyframes zk3 {
    0%, 21.9% { stroke-dashoffset: 3339; }
    32.9%, 65.8% { stroke-dashoffset: 0; }
    65.9%, 100% { stroke-dashoffset: 3339; }
}
svg.acjk #stroke-p3 { animation-name: zk3; }
/* Stroke 4: Starts at 32.9%, finishes at 43.8%, holds until 65.8% */
@keyframes zk4 {
    0%, 32.9% { stroke-dashoffset: 3339; }
    43.8%, 65.8% { stroke-dashoffset: 0; }
    65.9%, 100% { stroke-dashoffset: 3339; }
}
svg.acjk #stroke-p4 { animation-name: zk4; }
/* Stroke 5: Starts at 43.8%, finishes at 54.8%, holds until 65.8% */
@keyframes zk5 {
    0%, 43.8% { stroke-dashoffset: 3339; }
    54.8%, 65.8% { stroke-dashoffset: 0; }
    65.9%, 100% { stroke-dashoffset: 3339; }
}
svg.acjk #stroke-p5 { animation-name: zk5; }
/* Stroke 6: Starts at 54.8%, finishes at 65.8%, holds until 65.8% */
@keyframes zk6 {
    0%, 54.8% { stroke-dashoffset: 3339; }
    65.8%, 65.8% { stroke-dashoffset: 0; }
    65.9%, 100% { stroke-dashoffset: 3339; }
}
svg.acjk #stroke-p6 { animation-name: zk6; }
]]>
</style>
<defs>
    <path id="p1" d="M 483 147 Q 482 148 482 153 Q 464 285 302 396 Q 296 399 290 404 Q 244 438 135 488 Q 128 492 132 497 Q 138 501 149 500 Q 305 470 423 352 Q 460 312 503 251 Q 519 229 537 209 C 556 190 488 120 483 147 Z"/>
    <path id="p2" d="M 537 209 Q 567 245 593 280 Q 638 346 739 452 Q 758 476 798 472 Q 864 469 933 462 Q 957 461 969 453 Q 981 446 970 438 Q 958 432 940 429 Q 754 384 685 314 Q 625 260 569 191 Q 479 79 432 71 Q 410 67 388 73 Q 378 73 370 79 Q 366 83 369 87 Q 369 90 423 106 Q 460 118 483 147 C 519 188 519 188 537 209 Z"/>
    <path id="p3" d="M 530 574 Q 530 487 546 433 Q 561 406 512 387 Q 482 371 465 377 Q 450 383 464 403 Q 483 425 484 456 Q 487 478 484 814 Q 483 827 476 834 Q 467 838 382 816 Q 352 806 355 815 Q 356 822 374 834 Q 444 880 464 909 Q 486 942 503 942 Q 516 943 528 912 Q 543 872 540 808 Q 531 705 530 600 C 530 583 530 583 530 574 Z"/>
    <path id="p4" d="M 193 582 Q 181 581 179 589 Q 178 595 190 603 Q 227 628 253 623 Q 344 607 353 609 Q 366 613 354 637 Q 282 787 151 876 Q 136 886 145 889 Q 155 890 173 883 Q 240 855 295 806 Q 349 761 415 644 Q 427 625 437 617 Q 450 608 444 598 Q 437 586 405 572 Q 387 560 334 577 Q 256 583 193 582 Z"/>
    <path id="p5" d="M 590 613 Q 590 612 591 611 Q 693 550 741 527 Q 760 523 757 512 Q 753 494 734 474 Q 716 455 693 450 Q 678 449 677 469 Q 678 484 668 499 Q 637 538 577 597 C 572 602 585 618 590 613 Z"/>
    <path id="p6" d="M 577 597 Q 550 570 530 574 C 522 576 523 595 530 600 Q 552 616 569 641 Q 740 881 776 888 Q 845 888 906 875 Q 921 874 926 866 Q 930 860 920 856 Q 773 796 680 708 Q 638 668 590 613 C 581 602 581 602 577 597 Z"/>

    <clipPath id="z27718c1"><use href="#p1"/></clipPath>
    <clipPath id="z27718c2"><use href="#p2"/></clipPath>
    <clipPath id="z27718c3"><use href="#p3"/></clipPath>
    <clipPath id="z27718c4"><use href="#p4"/></clipPath>
    <clipPath id="z27718c5"><use href="#p5"/></clipPath>
    <clipPath id="z27718c6"><use href="#p6"/></clipPath>
</defs>
<g id="bg-layer" class="bg">
<use href="#p1"/>
<use href="#p2"/>
<use href="#p3"/>
<use href="#p4"/>
<use href="#p5"/>
<use href="#p6"/>
</g>
<g id="anim-layer">
    <path id="stroke-p1" style="stroke:#FF4444" pathLength="3333" clip-path="url(#z27718c1)" d="M 486 157 L 501 211 L 398 346 L 265 443 L 138 491"/>
    <path id="stroke-p2" style="stroke:#FF4444" pathLength="3333" clip-path="url(#z27718c2)" d="M 376 82 L 472 112 L 647 313 L 773 422 L 966 444"/>
    <path id="stroke-p3" style="stroke:#000" pathLength="3333" clip-path="url(#z27718c3)" d="M 464 384 L 516 434 L 509 841 L 486 888 L 362 816"/>
    <path id="stroke-p4" style="stroke:#000" pathLength="3333" clip-path="url(#z27718c4)" d="M 183 589 L 375 591 L 402 614 L 285 785 L 152 882"/>
    <path id="stroke-p5" style="stroke:#000" pathLength="3333" clip-path="url(#z27718c5)" d="M 687 456 L 713 507 L 583 603"/>
    <path id="stroke-p6" style="stroke:#000" pathLength="3333" clip-path="url(#z27718c6)" d="M 537 580 L 767 828 L 921 862"/>
</g>
</svg>