<svg id="z27739" class="acjk" viewBox="0 0 1024 1024" xmlns="http://www.w3.org/2000/svg">
<style>
<![CDATA[
svg.acjk path[clip-path] {
    animation-duration: 7.300000000000001s;
    animation-timing-function: linear;
    animation-iteration-count: infinite;
    stroke-dasharray: 3337;
    stroke-dashoffset: 3339;
    stroke-width: 128;
    stroke-linecap: round;
    fill: none;
    stroke: #FF4444;
}
svg.acjk .bg { fill: #ccc; opacity: 0.5; }

/* Stroke 1: Starts at 0.0%, finishes at 11.0%, holds until 65.8% */
@keyframes zk1 {
    0%, 0.0% { stroke-dashoffset: 3339; }
    11.0%, 65.8% { stroke-dashoffset: 0; }
    65.9%, 100% { stroke-dashoffset: 3339; }
}
svg.acjk #stroke-p1 { animation-name: zk1; }
/* Stroke 2: Starts at 11.0%, finishes at 21.9%, holds until 65.8% */
@keyframes zk2 {
    0%, 11.0% { stroke-dashoffset: 3339; }
    21.9%, 65.8% { stroke-dashoffset: 0; }
    65.9%, 100% { stroke-dashoffset: 3339; }
}
svg.acjk #stroke-p2 { animation-name: zk2; }
/* Stroke 3: Starts at 21.9%, finishes at 32.9%, holds until 65.8% */
@keyframes zk3 {
    0%, 21.9% { stroke-dashoffset: 3339; }
    32.9%, 65.8% { stroke-dashoffset: 0; }
    65.9%, 100% { stroke-dashoffset: 3339; }
}
svg.acjk #stroke-p3 { animation-name: zk3; }
/* Stroke 4: Starts at 32.9%, finishes at 43.8%, holds until 65.8% */
@keyframes zk4 {
    0%, 32.9% { stroke-dashoffset: 3339; }
    43.8%, 65.8% { stroke-dashoffset: 0; }
    65.9%, 100% { stroke-dashoffset: 3339; }
}
svg.acjk #stroke-p4 { animation-name: zk4; }
/* Stroke 5: Starts at 43.8%, finishes at 54.8%, holds until 65.8% */
@keyframes zk5 {
    0%, 43.8% { stroke-dashoffset: 3339; }
    54.8%, 65.8% { stroke-dashoffset: 0; }
    65.9%, 100% { stroke-dashoffset: 3339; }
}
svg.acjk #stroke-p5 { animation-name: zk5; }
/* Stroke 6: Starts at 54.8%, finishes at 65.8%, holds until 65.8% */
@keyframes zk6 {
    0%, 54.8% { stroke-dashoffset: 3339; }
    65.8%, 65.8% { stroke-dashoffset: 0; }
    65.9%, 100% { stroke-dashoffset: 3339; }
}
svg.acjk #stroke-p6 { animation-name: zk6; }
]]>
</style>
<defs>
    <path id="p1" d="M 225 177 C 247 196 269 219 293 243 C 303 253 314 259 326 259 C 334 258 339 252 344 243 C 348 232 347 215 341 192 C 334 167 295 143 221 122 C 209 118 200 118 196 121 C 191 123 189 130 191 140 C 192 148 205 160 225 177 Z"/>
    <path id="p2" d="M 128 398 C 169 439 198 467 221 475 C 231 478 241 473 247 463 C 251 454 252 443 250 432 C 242 403 206 376 141 356 C 129 352 119 353 113 355 C 108 356 107 360 109 370 C 110 378 116 386 128 398 Z"/>
    <path id="p3" d="M 116 774 C 109 778 104 784 107 796 C 118 848 137 878 161 891 C 166 894 171 896 179 895 C 183 893 185 884 187 867 C 189 830 221 723 286 545 C 289 534 291 526 291 522 C 289 515 287 514 281 519 C 273 523 232 592 157 728 C 148 742 136 759 116 774 Z"/>
    <path id="p4" d="M 416 227 C 405 228 399 233 398 238 C 396 242 400 247 411 252 C 428 259 448 257 472 252 C 542 235 610 219 676 202 C 682 200 687 203 690 206 C 692 208 689 245 676 319 C 655 431 652 539 667 643 C 690 816 782 902 949 900 C 961 899 967 896 971 891 C 976 881 974 868 969 847 C 959 812 958 764 961 704 C 961 695 958 688 954 682 C 949 676 943 679 940 694 C 918 772 902 815 890 820 C 882 823 874 823 868 823 C 845 820 823 805 799 782 C 739 724 708 633 710 508 C 711 361 740 260 798 207 C 805 199 806 194 800 186 C 790 174 774 162 749 151 C 726 140 709 138 698 145 C 623 183 529 209 416 227 Z"/>
    <path id="p5" d="M 496 511 C 518 505 554 496 605 491 C 611 490 618 488 622 480 C 624 473 615 468 602 461 C 584 450 553 453 503 467 C 474 475 474 475 459 479 C 413 491 373 495 339 502 C 322 505 320 511 334 521 C 350 533 373 538 402 533 C 416 530 433 525 453 521 C 482 514 482 514 496 511 Z"/>
    <path id="p6" d="M 453 521 C 436 638 405 713 379 751 C 363 772 365 801 379 834 C 380 837 383 841 386 846 C 391 856 396 860 404 857 C 430 843 454 791 469 702 C 475 662 482 598 496 511 C 501 482 501 482 503 467 C 512 410 518 371 523 352 C 527 333 523 317 508 307 C 487 293 470 285 458 286 C 447 286 443 293 447 303 C 461 345 469 404 459 479 C 455 507 455 507 453 521 Z"/>

    <clipPath id="z27739c1"><use href="#p1"/></clipPath>
    <clipPath id="z27739c2"><use href="#p2"/></clipPath>
    <clipPath id="z27739c3"><use href="#p3"/></clipPath>
    <clipPath id="z27739c4"><use href="#p4"/></clipPath>
    <clipPath id="z27739c5"><use href="#p5"/></clipPath>
    <clipPath id="z27739c6"><use href="#p6"/></clipPath>
</defs>
<g id="bg-layer" class="bg">
<use href="#p1"/>
<use href="#p2"/>
<use href="#p3"/>
<use href="#p4"/>
<use href="#p5"/>
<use href="#p6"/>
</g>
<g id="anim-layer">
    <path id="stroke-p1" style="stroke:#FF4444" pathLength="3333" clip-path="url(#z27739c1)" d="M 198 128 L 284 182 L 335 249"/>
    <path id="stroke-p2" style="stroke:#FF4444" pathLength="3333" clip-path="url(#z27739c2)" d="M 116 362 L 243 462"/>
    <path id="stroke-p3" style="stroke:#FF4444" pathLength="3333" clip-path="url(#z27739c3)" d="M 114 793 L 176 836 L 281 530"/>
    <path id="stroke-p4" style="stroke:#000" pathLength="3333" clip-path="url(#z27739c4)" d="M 405 238 L 700 173 L 733 186 L 748 210 L 710 293 L 684 482 L 688 603 L 722 732 L 809 835 L 915 858 L 937 844 L 950 688"/>
    <path id="stroke-p5" style="stroke:#000" pathLength="3333" clip-path="url(#z27739c5)" d="M 332 509 L 617 479"/>
    <path id="stroke-p6" style="stroke:#000" pathLength="3333" clip-path="url(#z27739c6)" d="M 453 294 L 491 337 L 485 440 L 396 852"/>
</g>
</svg>