<svg id="z27860" class="acjk" viewBox="0 0 1024 1024" xmlns="http://www.w3.org/2000/svg">
<style>
<![CDATA[
svg.acjk path[clip-path] {
    animation-duration: 8.9s;
    animation-timing-function: linear;
    animation-iteration-count: infinite;
    stroke-dasharray: 3337;
    stroke-dashoffset: 3339;
    stroke-width: 128;
    stroke-linecap: round;
    fill: none;
    stroke: #FF4444;
}
svg.acjk .bg { fill: #ccc; opacity: 0.5; }

/* Stroke 1: Starts at 0.0%, finishes at 9.0%, holds until 71.9% */
@keyframes zk1 {
    0%, 0.0% { stroke-dashoffset: 3339; }
    9.0%, 71.9% { stroke-dashoffset: 0; }
    72.0%, 100% { stroke-dashoffset: 3339; }
}
svg.acjk #stroke-p1 { animation-name: zk1; }
/* Stroke 2: Starts at 9.0%, finishes at 18.0%, holds until 71.9% */
@keyframes zk2 {
    0%, 9.0% { stroke-dashoffset: 3339; }
    18.0%, 71.9% { stroke-dashoffset: 0; }
    72.0%, 100% { stroke-dashoffset: 3339; }
}
svg.acjk #stroke-p2 { animation-name: zk2; }
/* Stroke 3: Starts at 18.0%, finishes at 27.0%, holds until 71.9% */
@keyframes zk3 {
    0%, 18.0% { stroke-dashoffset: 3339; }
    27.0%, 71.9% { stroke-dashoffset: 0; }
    72.0%, 100% { stroke-dashoffset: 3339; }
}
svg.acjk #stroke-p3 { animation-name: zk3; }
/* Stroke 4: Starts at 27.0%, finishes at 36.0%, holds until 71.9% */
@keyframes zk4 {
    0%, 27.0% { stroke-dashoffset: 3339; }
    36.0%, 71.9% { stroke-dashoffset: 0; }
    72.0%, 100% { stroke-dashoffset: 3339; }
}
svg.acjk #stroke-p4 { animation-name: zk4; }
/* Stroke 5: Starts at 36.0%, finishes at 44.9%, holds until 71.9% */
@keyframes zk5 {
    0%, 36.0% { stroke-dashoffset: 3339; }
    44.9%, 71.9% { stroke-dashoffset: 0; }
    72.0%, 100% { stroke-dashoffset: 3339; }
}
svg.acjk #stroke-p5 { animation-name: zk5; }
/* Stroke 6: Starts at 44.9%, finishes at 53.9%, holds until 71.9% */
@keyframes zk6 {
    0%, 44.9% { stroke-dashoffset: 3339; }
    53.9%, 71.9% { stroke-dashoffset: 0; }
    72.0%, 100% { stroke-dashoffset: 3339; }
}
svg.acjk #stroke-p6 { animation-name: zk6; }
/* Stroke 7: Starts at 53.9%, finishes at 62.9%, holds until 71.9% */
@keyframes zk7 {
    0%, 53.9% { stroke-dashoffset: 3339; }
    62.9%, 71.9% { stroke-dashoffset: 0; }
    72.0%, 100% { stroke-dashoffset: 3339; }
}
svg.acjk #stroke-p7 { animation-name: zk7; }
/* Stroke 8: Starts at 62.9%, finishes at 71.9%, holds until 71.9% */
@keyframes zk8 {
    0%, 62.9% { stroke-dashoffset: 3339; }
    71.9%, 71.9% { stroke-dashoffset: 0; }
    72.0%, 100% { stroke-dashoffset: 3339; }
}
svg.acjk #stroke-p8 { animation-name: zk8; }
]]>
</style>
<defs>
    <path id="p1" d="M 215 210 C 235 224 257 242 281 262 C 291 270 303 274 316 273 C 323 272 329 266 332 256 C 334 244 331 227 323 205 C 317 191 303 178 279 171 C 223 153 190 149 180 157 C 176 159 173 166 177 176 C 179 185 193 195 215 210 Z"/>
    <path id="p2" d="M 113 407 C 144 442 171 467 196 475 C 206 478 215 473 222 463 C 226 454 228 443 226 430 C 222 411 212 398 198 390 C 158 365 127 357 106 361 C 101 361 99 361 97 363 C 92 364 90 368 93 378 C 94 386 102 395 113 407 Z"/>
    <path id="p3" d="M 128 778 C 120 782 114 788 118 801 C 130 853 151 885 174 900 C 179 903 184 905 193 903 C 197 901 200 892 201 874 C 202 841 236 732 302 546 C 306 533 308 526 308 522 C 307 515 303 514 297 519 C 286 526 244 597 170 731 C 161 746 148 764 128 778 Z"/>
    <path id="p4" d="M 753 421 C 782 418 815 416 850 416 C 892 415 917 412 921 405 C 924 396 919 387 908 379 C 868 350 825 346 778 360 C 770 362 762 364 753 366 C 716 374 716 374 697 378 C 643 389 576 402 495 416 C 462 421 462 421 446 424 C 403 430 360 437 316 445 C 301 447 298 454 311 465 C 334 484 362 489 392 480 C 408 474 426 470 448 466 C 480 459 480 459 496 455 C 561 439 629 432 697 426 C 734 423 734 423 753 421 Z"/>
    <path id="p5" d="M 495 416 C 493 343 494 306 494 305 C 489 293 473 281 443 269 C 436 266 427 264 419 269 C 413 271 414 279 418 289 C 432 329 443 374 446 424 C 447 452 447 452 448 466 C 450 524 445 681 435 732 C 427 768 425 800 454 843 C 461 854 476 859 483 851 C 491 839 496 822 498 802 C 499 788 499 775 499 762 C 497 709 496 662 496 617 C 496 598 496 598 496 588 C 496 543 496 499 496 455 C 495 441 495 416 495 416 Z"/>
    <path id="p6" d="M 664 787 C 670 817 679 848 694 883 C 720 944 737 929 752 883 C 760 854 770 798 769 763 C 764 648 753 535 753 421 C 753 384 753 384 753 366 C 753 278 755 210 771 167 C 779 143 768 127 728 110 C 702 98 684 93 671 99 C 658 103 656 115 669 131 C 684 150 693 171 695 196 C 695 208 697 269 697 378 C 697 410 697 410 697 426 C 697 510 696 589 696 724 C 695 750 691 760 683 766 C 676 773 662 778 664 787 Z"/>
    <path id="p7" d="M 496 617 C 508 621 599 600 646 594 C 662 591 667 585 661 576 C 653 565 640 559 623 557 C 596 553 554 564 496 588 C 487 592 487 615 496 617 Z"/>
    <path id="p8" d="M 498 802 C 516 796 592 791 664 787 C 673 787 688 774 683 766 C 661 721 596 752 499 762 C 486 764 485 805 498 802 Z"/>

    <clipPath id="z27860c1"><use href="#p1"/></clipPath>
    <clipPath id="z27860c2"><use href="#p2"/></clipPath>
    <clipPath id="z27860c3"><use href="#p3"/></clipPath>
    <clipPath id="z27860c4"><use href="#p4"/></clipPath>
    <clipPath id="z27860c5"><use href="#p5"/></clipPath>
    <clipPath id="z27860c6"><use href="#p6"/></clipPath>
    <clipPath id="z27860c7"><use href="#p7"/></clipPath>
    <clipPath id="z27860c8"><use href="#p8"/></clipPath>
</defs>
<g id="bg-layer" class="bg">
<use href="#p1"/>
<use href="#p2"/>
<use href="#p3"/>
<use href="#p4"/>
<use href="#p5"/>
<use href="#p6"/>
<use href="#p7"/>
<use href="#p8"/>
</g>
<g id="anim-layer">
    <path id="stroke-p1" style="stroke:#FF4444" pathLength="3333" clip-path="url(#z27860c1)" d="M 179 163 L 273 207 L 326 263"/>
    <path id="stroke-p2" style="stroke:#FF4444" pathLength="3333" clip-path="url(#z27860c2)" d="M 99 371 L 220 458"/>
    <path id="stroke-p3" style="stroke:#FF4444" pathLength="3333" clip-path="url(#z27860c3)" d="M 121 791 L 181 850 L 300 521"/>
    <path id="stroke-p4" style="stroke:#000" pathLength="3333" clip-path="url(#z27860c4)" d="M 312 454 L 790 387 L 918 396"/>
    <path id="stroke-p5" style="stroke:#000" pathLength="3333" clip-path="url(#z27860c5)" d="M 422 275 L 461 313 L 467 371 L 466 850"/>
    <path id="stroke-p6" style="stroke:#000" pathLength="3333" clip-path="url(#z27860c6)" d="M 668 111 L 732 159 L 725 918"/>
    <path id="stroke-p7" style="stroke:#000" pathLength="3333" clip-path="url(#z27860c7)" d="M 492 607 L 656 578"/>
    <path id="stroke-p8" style="stroke:#000" pathLength="3333" clip-path="url(#z27860c8)" d="M 493 790 L 679 767"/>
</g>
</svg>