<svg id="z27976" class="acjk" viewBox="0 0 1024 1024" xmlns="http://www.w3.org/2000/svg">
<style>
<![CDATA[
svg.acjk path[clip-path] {
    animation-duration: 9.7s;
    animation-timing-function: linear;
    animation-iteration-count: infinite;
    stroke-dasharray: 3337;
    stroke-dashoffset: 3339;
    stroke-width: 128;
    stroke-linecap: round;
    fill: none;
    stroke: #FF4444;
}
svg.acjk .bg { fill: #ccc; opacity: 0.5; }

/* Stroke 1: Starts at 0.0%, finishes at 8.2%, holds until 74.2% */
@keyframes zk1 {
    0%, 0.0% { stroke-dashoffset: 3339; }
    8.2%, 74.2% { stroke-dashoffset: 0; }
    74.3%, 100% { stroke-dashoffset: 3339; }
}
svg.acjk #stroke-p1 { animation-name: zk1; }
/* Stroke 2: Starts at 8.2%, finishes at 16.5%, holds until 74.2% */
@keyframes zk2 {
    0%, 8.2% { stroke-dashoffset: 3339; }
    16.5%, 74.2% { stroke-dashoffset: 0; }
    74.3%, 100% { stroke-dashoffset: 3339; }
}
svg.acjk #stroke-p2 { animation-name: zk2; }
/* Stroke 3: Starts at 16.5%, finishes at 24.7%, holds until 74.2% */
@keyframes zk3 {
    0%, 16.5% { stroke-dashoffset: 3339; }
    24.7%, 74.2% { stroke-dashoffset: 0; }
    74.3%, 100% { stroke-dashoffset: 3339; }
}
svg.acjk #stroke-p3 { animation-name: zk3; }
/* Stroke 4: Starts at 24.7%, finishes at 33.0%, holds until 74.2% */
@keyframes zk4 {
    0%, 24.7% { stroke-dashoffset: 3339; }
    33.0%, 74.2% { stroke-dashoffset: 0; }
    74.3%, 100% { stroke-dashoffset: 3339; }
}
svg.acjk #stroke-p4 { animation-name: zk4; }
/* Stroke 5: Starts at 33.0%, finishes at 41.2%, holds until 74.2% */
@keyframes zk5 {
    0%, 33.0% { stroke-dashoffset: 3339; }
    41.2%, 74.2% { stroke-dashoffset: 0; }
    74.3%, 100% { stroke-dashoffset: 3339; }
}
svg.acjk #stroke-p5 { animation-name: zk5; }
/* Stroke 6: Starts at 41.2%, finishes at 49.5%, holds until 74.2% */
@keyframes zk6 {
    0%, 41.2% { stroke-dashoffset: 3339; }
    49.5%, 74.2% { stroke-dashoffset: 0; }
    74.3%, 100% { stroke-dashoffset: 3339; }
}
svg.acjk #stroke-p6 { animation-name: zk6; }
/* Stroke 7: Starts at 49.5%, finishes at 57.7%, holds until 74.2% */
@keyframes zk7 {
    0%, 49.5% { stroke-dashoffset: 3339; }
    57.7%, 74.2% { stroke-dashoffset: 0; }
    74.3%, 100% { stroke-dashoffset: 3339; }
}
svg.acjk #stroke-p7 { animation-name: zk7; }
/* Stroke 8: Starts at 57.7%, finishes at 66.0%, holds until 74.2% */
@keyframes zk8 {
    0%, 57.7% { stroke-dashoffset: 3339; }
    66.0%, 74.2% { stroke-dashoffset: 0; }
    74.3%, 100% { stroke-dashoffset: 3339; }
}
svg.acjk #stroke-p8 { animation-name: zk8; }
/* Stroke 9: Starts at 66.0%, finishes at 74.2%, holds until 74.2% */
@keyframes zk9 {
    0%, 66.0% { stroke-dashoffset: 3339; }
    74.2%, 74.2% { stroke-dashoffset: 0; }
    74.3%, 100% { stroke-dashoffset: 3339; }
}
svg.acjk #stroke-p9 { animation-name: zk9; }
]]>
</style>
<defs>
    <path id="p1" d="M 250 208 C 270 226 290 247 311 270 C 319 279 330 284 342 285 C 350 285 356 281 361 271 C 365 260 364 243 359 222 C 353 199 316 176 248 155 C 237 151 229 150 224 153 C 219 154 217 161 219 171 C 220 179 232 191 250 208 Z"/>
    <path id="p2" d="M 143 396 C 181 434 210 461 234 470 C 244 473 253 468 259 459 C 263 450 265 440 262 429 C 253 398 217 375 158 358 C 157 357 156 357 156 357 C 143 353 135 353 129 356 C 125 357 124 361 126 370 C 127 377 132 386 143 396 Z"/>
    <path id="p3" d="M 145 758 C 136 761 132 766 134 779 C 137 813 156 865 178 880 C 183 883 188 886 196 885 C 200 884 203 875 206 858 C 211 823 254 722 328 555 C 332 544 335 536 335 532 C 334 525 329 522 325 528 C 196 710 172 745 145 758 Z"/>
    <path id="p4" d="M 612 314 C 616 278 621 246 625 214 C 627 193 627 193 628 182 C 629 167 632 152 636 139 C 638 132 640 126 642 122 C 644 115 640 106 627 98 C 606 85 588 78 574 76 C 563 74 556 75 552 80 C 547 84 546 92 552 101 C 559 114 566 124 567 133 C 572 191 573 253 573 323 C 573 336 609 327 612 314 Z"/>
    <path id="p5" d="M 625 214 C 647 218 679 214 723 204 C 777 190 805 181 809 179 C 813 174 815 168 812 163 C 807 155 795 150 775 147 C 756 143 738 149 718 157 C 698 163 656 174 628 182 C 618 186 614 212 625 214 Z"/>
    <path id="p6" d="M 478 336 C 464 324 448 315 432 312 C 426 310 420 312 417 318 C 414 321 418 326 422 334 C 450 401 451 495 431 612 C 423 656 418 681 420 687 C 426 709 434 723 441 732 C 448 740 453 740 461 732 C 477 713 486 649 487 539 C 487 452 489 394 493 366 C 495 355 487 343 478 336 Z"/>
    <path id="p7" d="M 724 652 C 719 668 721 683 730 698 C 740 716 748 726 754 726 C 764 725 772 713 784 691 C 792 673 798 658 797 644 C 777 497 781 404 804 361 C 814 339 811 331 805 327 C 784 313 762 296 732 284 C 721 279 707 280 692 287 C 667 297 641 307 612 314 C 586 320 586 320 573 323 C 552 327 506 334 478 336 C 467 336 482 368 493 366 C 493 366 531 360 606 346 C 664 334 702 327 713 339 C 723 351 727 382 729 425 C 733 551 730 627 724 652 Z"/>
    <path id="p8" d="M 573 504 C 579 650 555 755 495 813 C 452 853 396 882 353 903 C 345 906 340 908 338 911 C 335 913 338 916 348 918 C 381 921 433 903 501 863 C 583 813 624 712 625 562 C 625 529 628 499 638 473 C 640 466 639 460 634 456 C 622 445 604 437 583 429 C 570 423 558 421 548 426 C 535 430 534 438 545 449 C 562 467 572 485 573 504 Z"/>
    <path id="p9" d="M 673 768 C 703 804 737 848 773 900 C 782 914 790 924 800 928 C 805 930 811 927 817 922 C 825 913 826 895 824 866 C 820 831 772 790 678 738 C 672 734 669 734 667 743 C 664 751 666 760 673 768 Z"/>

    <clipPath id="z27976c1"><use href="#p1"/></clipPath>
    <clipPath id="z27976c2"><use href="#p2"/></clipPath>
    <clipPath id="z27976c3"><use href="#p3"/></clipPath>
    <clipPath id="z27976c4"><use href="#p4"/></clipPath>
    <clipPath id="z27976c5"><use href="#p5"/></clipPath>
    <clipPath id="z27976c6"><use href="#p6"/></clipPath>
    <clipPath id="z27976c7"><use href="#p7"/></clipPath>
    <clipPath id="z27976c8"><use href="#p8"/></clipPath>
    <clipPath id="z27976c9"><use href="#p9"/></clipPath>
</defs>
<g id="bg-layer" class="bg">
<use href="#p1"/>
<use href="#p2"/>
<use href="#p3"/>
<use href="#p4"/>
<use href="#p5"/>
<use href="#p6"/>
<use href="#p7"/>
<use href="#p8"/>
<use href="#p9"/>
</g>
<g id="anim-layer">
    <path id="stroke-p1" style="stroke:#FF4444" pathLength="3333" clip-path="url(#z27976c1)" d="M 226 160 L 353 274"/>
    <path id="stroke-p2" style="stroke:#FF4444" pathLength="3333" clip-path="url(#z27976c2)" d="M 132 362 L 250 462"/>
    <path id="stroke-p3" style="stroke:#FF4444" pathLength="3333" clip-path="url(#z27976c3)" d="M 138 769 L 189 830 L 328 535"/>
    <path id="stroke-p4" style="stroke:#000" pathLength="3333" clip-path="url(#z27976c4)" d="M 553 83 L 605 129 L 589 326"/>
    <path id="stroke-p5" style="stroke:#000" pathLength="3333" clip-path="url(#z27976c5)" d="M 623 203 L 809 169"/>
    <path id="stroke-p6" style="stroke:#000" pathLength="3333" clip-path="url(#z27976c6)" d="M 422 317 L 465 385 L 448 732"/>
    <path id="stroke-p7" style="stroke:#000" pathLength="3333" clip-path="url(#z27976c7)" d="M 480 343 L 703 307 L 757 338 L 746 719"/>
    <path id="stroke-p8" style="stroke:#000" pathLength="3333" clip-path="url(#z27976c8)" d="M 544 433 L 605 480 L 570 740 L 494 842 L 346 910"/>
    <path id="stroke-p9" style="stroke:#000" pathLength="3333" clip-path="url(#z27976c9)" d="M 673 742 L 788 862 L 807 924"/>
</g>
</svg>