<svg id="z27971" class="acjk" viewBox="0 0 1024 1024" xmlns="http://www.w3.org/2000/svg">
<style>
<![CDATA[
svg.acjk path[clip-path] {
    animation-duration: 9.7s;
    animation-timing-function: linear;
    animation-iteration-count: infinite;
    stroke-dasharray: 3337;
    stroke-dashoffset: 3339;
    stroke-width: 128;
    stroke-linecap: round;
    fill: none;
    stroke: #FF4444;
}
svg.acjk .bg { fill: #ccc; opacity: 0.5; }

/* Stroke 1: Starts at 0.0%, finishes at 8.2%, holds until 74.2% */
@keyframes zk1 {
    0%, 0.0% { stroke-dashoffset: 3339; }
    8.2%, 74.2% { stroke-dashoffset: 0; }
    74.3%, 100% { stroke-dashoffset: 3339; }
}
svg.acjk #stroke-p1 { animation-name: zk1; }
/* Stroke 2: Starts at 8.2%, finishes at 16.5%, holds until 74.2% */
@keyframes zk2 {
    0%, 8.2% { stroke-dashoffset: 3339; }
    16.5%, 74.2% { stroke-dashoffset: 0; }
    74.3%, 100% { stroke-dashoffset: 3339; }
}
svg.acjk #stroke-p2 { animation-name: zk2; }
/* Stroke 3: Starts at 16.5%, finishes at 24.7%, holds until 74.2% */
@keyframes zk3 {
    0%, 16.5% { stroke-dashoffset: 3339; }
    24.7%, 74.2% { stroke-dashoffset: 0; }
    74.3%, 100% { stroke-dashoffset: 3339; }
}
svg.acjk #stroke-p3 { animation-name: zk3; }
/* Stroke 4: Starts at 24.7%, finishes at 33.0%, holds until 74.2% */
@keyframes zk4 {
    0%, 24.7% { stroke-dashoffset: 3339; }
    33.0%, 74.2% { stroke-dashoffset: 0; }
    74.3%, 100% { stroke-dashoffset: 3339; }
}
svg.acjk #stroke-p4 { animation-name: zk4; }
/* Stroke 5: Starts at 33.0%, finishes at 41.2%, holds until 74.2% */
@keyframes zk5 {
    0%, 33.0% { stroke-dashoffset: 3339; }
    41.2%, 74.2% { stroke-dashoffset: 0; }
    74.3%, 100% { stroke-dashoffset: 3339; }
}
svg.acjk #stroke-p5 { animation-name: zk5; }
/* Stroke 6: Starts at 41.2%, finishes at 49.5%, holds until 74.2% */
@keyframes zk6 {
    0%, 41.2% { stroke-dashoffset: 3339; }
    49.5%, 74.2% { stroke-dashoffset: 0; }
    74.3%, 100% { stroke-dashoffset: 3339; }
}
svg.acjk #stroke-p6 { animation-name: zk6; }
/* Stroke 7: Starts at 49.5%, finishes at 57.7%, holds until 74.2% */
@keyframes zk7 {
    0%, 49.5% { stroke-dashoffset: 3339; }
    57.7%, 74.2% { stroke-dashoffset: 0; }
    74.3%, 100% { stroke-dashoffset: 3339; }
}
svg.acjk #stroke-p7 { animation-name: zk7; }
/* Stroke 8: Starts at 57.7%, finishes at 66.0%, holds until 74.2% */
@keyframes zk8 {
    0%, 57.7% { stroke-dashoffset: 3339; }
    66.0%, 74.2% { stroke-dashoffset: 0; }
    74.3%, 100% { stroke-dashoffset: 3339; }
}
svg.acjk #stroke-p8 { animation-name: zk8; }
/* Stroke 9: Starts at 66.0%, finishes at 74.2%, holds until 74.2% */
@keyframes zk9 {
    0%, 66.0% { stroke-dashoffset: 3339; }
    74.2%, 74.2% { stroke-dashoffset: 0; }
    74.3%, 100% { stroke-dashoffset: 3339; }
}
svg.acjk #stroke-p9 { animation-name: zk9; }
]]>
</style>
<defs>
    <path id="p1" d="M 227 190 C 243 205 259 225 277 245 C 286 255 297 261 309 262 C 317 262 323 256 328 247 C 332 236 332 219 327 196 C 324 182 312 168 291 159 C 241 136 210 127 200 133 C 195 135 193 142 195 152 C 196 160 208 172 227 190 Z"/>
    <path id="p2" d="M 114 379 C 149 415 176 441 200 448 C 210 451 219 445 226 435 C 230 426 232 415 229 402 C 221 371 186 349 126 335 C 113 332 103 332 97 335 C 92 336 92 340 94 350 C 95 358 102 367 114 379 Z"/>
    <path id="p3" d="M 118 738 C 110 742 106 746 108 759 C 116 810 132 842 156 857 C 161 860 166 863 174 862 C 178 861 180 851 183 834 C 186 805 225 700 300 521 C 304 510 307 502 307 498 C 306 491 303 490 297 495 C 287 501 241 567 161 694 C 151 708 139 725 118 738 Z"/>
    <path id="p4" d="M 600 280 C 710 256 767 239 771 237 C 777 232 778 226 775 220 C 770 211 758 205 738 201 C 717 196 696 199 676 207 C 651 216 627 226 602 232 C 567 240 567 240 549 244 C 512 252 473 256 434 262 C 409 265 405 275 423 286 C 469 302 509 299 549 291 C 583 284 583 284 600 280 Z"/>
    <path id="p5" d="M 402 409 C 417 426 432 445 448 466 C 454 474 462 479 473 481 C 479 481 485 478 489 471 C 493 462 493 448 491 430 C 489 417 481 404 462 393 C 420 368 393 357 384 361 C 380 362 379 367 379 376 C 379 382 387 393 402 409 Z"/>
    <path id="p6" d="M 702 352 C 690 373 671 398 647 430 C 643 434 641 441 647 445 C 650 447 657 445 663 442 C 714 410 751 384 778 374 C 789 369 795 365 792 358 C 787 347 778 335 766 322 C 753 309 739 301 723 301 C 712 300 708 308 709 322 C 709 330 707 340 702 352 Z"/>
    <path id="p7" d="M 596 554 C 656 546 734 540 828 542 C 868 542 891 541 896 533 C 899 525 895 515 884 507 C 849 480 817 470 790 476 C 739 486 672 501 587 514 C 554 519 554 519 538 521 C 473 530 403 540 329 549 C 314 550 311 557 323 569 C 344 590 369 596 395 589 C 437 577 484 568 534 562 C 575 557 575 557 596 554 Z"/>
    <path id="p8" d="M 534 562 C 519 715 422 784 307 841 C 298 845 293 849 293 852 C 293 854 297 857 306 858 C 441 860 570 714 581 586 C 585 538 585 538 587 514 C 593 435 597 349 600 280 C 601 248 601 248 602 232 C 603 202 615 163 628 136 C 632 126 632 116 624 109 C 608 95 586 85 558 77 C 540 71 528 72 522 77 C 515 81 514 88 520 98 C 537 128 547 176 549 244 C 549 293 549 275 549 291 C 549 369 545 446 538 521 C 535 548 535 548 534 562 Z"/>
    <path id="p9" d="M 581 586 C 693 782 768 885 805 886 C 849 886 891 880 931 878 C 947 877 955 874 956 871 C 956 866 948 858 930 849 C 835 801 773 763 744 732 C 688 673 638 614 596 554 C 581 535 570 564 581 586 Z"/>

    <clipPath id="z27971c1"><use href="#p1"/></clipPath>
    <clipPath id="z27971c2"><use href="#p2"/></clipPath>
    <clipPath id="z27971c3"><use href="#p3"/></clipPath>
    <clipPath id="z27971c4"><use href="#p4"/></clipPath>
    <clipPath id="z27971c5"><use href="#p5"/></clipPath>
    <clipPath id="z27971c6"><use href="#p6"/></clipPath>
    <clipPath id="z27971c7"><use href="#p7"/></clipPath>
    <clipPath id="z27971c8"><use href="#p8"/></clipPath>
    <clipPath id="z27971c9"><use href="#p9"/></clipPath>
</defs>
<g id="bg-layer" class="bg">
<use href="#p1"/>
<use href="#p2"/>
<use href="#p3"/>
<use href="#p4"/>
<use href="#p5"/>
<use href="#p6"/>
<use href="#p7"/>
<use href="#p8"/>
<use href="#p9"/>
</g>
<g id="anim-layer">
    <path id="stroke-p1" style="stroke:#FF4444" pathLength="3333" clip-path="url(#z27971c1)" d="M 201 137 L 282 194 L 315 255"/>
    <path id="stroke-p2" style="stroke:#FF4444" pathLength="3333" clip-path="url(#z27971c2)" d="M 99 343 L 221 435"/>
    <path id="stroke-p3" style="stroke:#FF4444" pathLength="3333" clip-path="url(#z27971c3)" d="M 113 750 L 170 800 L 299 503"/>
    <path id="stroke-p4" style="stroke:#000" pathLength="3333" clip-path="url(#z27971c4)" d="M 420 274 L 772 224"/>
    <path id="stroke-p5" style="stroke:#000" pathLength="3333" clip-path="url(#z27971c5)" d="M 387 370 L 451 420 L 477 476"/>
    <path id="stroke-p6" style="stroke:#000" pathLength="3333" clip-path="url(#z27971c6)" d="M 718 304 L 746 358 L 649 439"/>
    <path id="stroke-p7" style="stroke:#000" pathLength="3333" clip-path="url(#z27971c7)" d="M 323 555 L 378 567 L 796 508 L 893 529"/>
    <path id="stroke-p8" style="stroke:#000" pathLength="3333" clip-path="url(#z27971c8)" d="M 523 85 L 584 136 L 546 632 L 457 771 L 302 850"/>
    <path id="stroke-p9" style="stroke:#000" pathLength="3333" clip-path="url(#z27971c9)" d="M 587 552 L 657 671 L 784 819 L 949 868"/>
</g>
</svg>