<svg id="z27998" class="acjk" viewBox="0 0 1024 1024" xmlns="http://www.w3.org/2000/svg">
<style>
<![CDATA[
svg.acjk path[clip-path] {
    animation-duration: 10.5s;
    animation-timing-function: linear;
    animation-iteration-count: infinite;
    stroke-dasharray: 3337;
    stroke-dashoffset: 3339;
    stroke-width: 128;
    stroke-linecap: round;
    fill: none;
    stroke: #FF4444;
}
svg.acjk .bg { fill: #ccc; opacity: 0.5; }

/* Stroke 1: Starts at 0.0%, finishes at 7.6%, holds until 76.2% */
@keyframes zk1 {
    0%, 0.0% { stroke-dashoffset: 3339; }
    7.6%, 76.2% { stroke-dashoffset: 0; }
    76.3%, 100% { stroke-dashoffset: 3339; }
}
svg.acjk #stroke-p1 { animation-name: zk1; }
/* Stroke 2: Starts at 7.6%, finishes at 15.2%, holds until 76.2% */
@keyframes zk2 {
    0%, 7.6% { stroke-dashoffset: 3339; }
    15.2%, 76.2% { stroke-dashoffset: 0; }
    76.3%, 100% { stroke-dashoffset: 3339; }
}
svg.acjk #stroke-p2 { animation-name: zk2; }
/* Stroke 3: Starts at 15.2%, finishes at 22.9%, holds until 76.2% */
@keyframes zk3 {
    0%, 15.2% { stroke-dashoffset: 3339; }
    22.9%, 76.2% { stroke-dashoffset: 0; }
    76.3%, 100% { stroke-dashoffset: 3339; }
}
svg.acjk #stroke-p3 { animation-name: zk3; }
/* Stroke 4: Starts at 22.9%, finishes at 30.5%, holds until 76.2% */
@keyframes zk4 {
    0%, 22.9% { stroke-dashoffset: 3339; }
    30.5%, 76.2% { stroke-dashoffset: 0; }
    76.3%, 100% { stroke-dashoffset: 3339; }
}
svg.acjk #stroke-p4 { animation-name: zk4; }
/* Stroke 5: Starts at 30.5%, finishes at 38.1%, holds until 76.2% */
@keyframes zk5 {
    0%, 30.5% { stroke-dashoffset: 3339; }
    38.1%, 76.2% { stroke-dashoffset: 0; }
    76.3%, 100% { stroke-dashoffset: 3339; }
}
svg.acjk #stroke-p5 { animation-name: zk5; }
/* Stroke 6: Starts at 38.1%, finishes at 45.7%, holds until 76.2% */
@keyframes zk6 {
    0%, 38.1% { stroke-dashoffset: 3339; }
    45.7%, 76.2% { stroke-dashoffset: 0; }
    76.3%, 100% { stroke-dashoffset: 3339; }
}
svg.acjk #stroke-p6 { animation-name: zk6; }
/* Stroke 7: Starts at 45.7%, finishes at 53.3%, holds until 76.2% */
@keyframes zk7 {
    0%, 45.7% { stroke-dashoffset: 3339; }
    53.3%, 76.2% { stroke-dashoffset: 0; }
    76.3%, 100% { stroke-dashoffset: 3339; }
}
svg.acjk #stroke-p7 { animation-name: zk7; }
/* Stroke 8: Starts at 53.3%, finishes at 61.0%, holds until 76.2% */
@keyframes zk8 {
    0%, 53.3% { stroke-dashoffset: 3339; }
    61.0%, 76.2% { stroke-dashoffset: 0; }
    76.3%, 100% { stroke-dashoffset: 3339; }
}
svg.acjk #stroke-p8 { animation-name: zk8; }
/* Stroke 9: Starts at 61.0%, finishes at 68.6%, holds until 76.2% */
@keyframes zk9 {
    0%, 61.0% { stroke-dashoffset: 3339; }
    68.6%, 76.2% { stroke-dashoffset: 0; }
    76.3%, 100% { stroke-dashoffset: 3339; }
}
svg.acjk #stroke-p9 { animation-name: zk9; }
/* Stroke 10: Starts at 68.6%, finishes at 76.2%, holds until 76.2% */
@keyframes zk10 {
    0%, 68.6% { stroke-dashoffset: 3339; }
    76.2%, 76.2% { stroke-dashoffset: 0; }
    76.3%, 100% { stroke-dashoffset: 3339; }
}
svg.acjk #stroke-p10 { animation-name: zk10; }
]]>
</style>
<defs>
    <path id="p1" d="M 230 206 C 251 223 272 243 295 265 C 305 274 315 279 327 279 C 335 278 341 273 345 263 C 348 252 346 236 340 215 C 332 190 293 170 224 154 C 213 151 205 150 200 153 C 195 155 193 161 196 171 C 197 179 210 190 230 206 Z"/>
    <path id="p2" d="M 145 397 C 182 433 209 459 233 467 C 243 470 253 465 259 455 C 263 446 264 435 261 424 C 253 393 218 371 157 356 C 145 353 135 353 129 355 C 124 356 124 360 126 370 C 127 378 134 386 145 397 Z"/>
    <path id="p3" d="M 127 766 C 119 770 114 776 117 788 C 128 840 147 871 169 884 C 174 887 179 889 187 888 C 191 886 193 877 195 860 C 197 829 232 727 297 553 C 301 542 303 534 303 530 C 302 523 296 520 293 527 C 182 705 165 742 127 766 Z"/>
    <path id="p4" d="M 462 215 C 453 210 437 207 414 204 C 405 202 400 202 397 206 C 392 211 393 218 400 231 C 422 273 441 329 455 400 C 458 420 465 437 478 452 C 500 477 505 462 507 434 C 507 421 505 409 503 397 C 496 362 478 274 477 249 C 477 237 474 220 462 215 Z"/>
    <path id="p5" d="M 730 363 C 748 299 772 257 799 235 C 812 223 814 207 801 196 C 750 153 709 145 678 159 C 616 185 543 201 462 215 C 450 217 465 251 477 249 C 540 236 610 221 668 209 C 698 202 708 224 705 247 C 697 287 686 325 676 359 C 672 377 726 381 730 363 Z"/>
    <path id="p6" d="M 603 420 C 647 412 695 406 747 403 C 781 400 764 382 730 363 C 715 354 694 355 676 359 C 618 372 555 387 503 397 C 491 399 495 434 507 434 C 519 435 540 430 555 428 C 587 423 587 423 603 420 Z"/>
    <path id="p7" d="M 621 767 C 623 706 626 650 629 598 C 630 577 630 577 630 567 C 631 440 651 453 603 420 C 590 410 550 413 555 428 C 583 489 570 515 573 738 C 573 757 621 786 621 767 Z"/>
    <path id="p8" d="M 629 598 C 642 602 745 583 796 577 C 814 574 820 567 813 557 C 804 546 790 538 771 535 C 746 530 699 541 630 567 C 620 571 619 596 629 598 Z"/>
    <path id="p9" d="M 453 652 C 463 631 473 612 485 596 C 491 586 490 577 480 569 C 450 547 426 539 411 543 C 402 545 399 551 403 561 C 433 642 297 819 260 864 C 252 872 258 879 268 874 C 341 832 405 741 437 682 C 448 662 448 662 453 652 Z"/>
    <path id="p10" d="M 437 682 C 466 705 560 781 661 854 C 693 877 742 913 783 909 C 822 904 865 893 899 885 C 923 878 940 871 945 862 C 949 853 942 849 929 848 C 804 832 771 828 740 822 C 703 814 665 793 621 767 C 589 748 589 748 573 738 C 533 713 494 683 453 652 C 444 645 428 675 437 682 Z"/>

    <clipPath id="z27998c1"><use href="#p1"/></clipPath>
    <clipPath id="z27998c2"><use href="#p2"/></clipPath>
    <clipPath id="z27998c3"><use href="#p3"/></clipPath>
    <clipPath id="z27998c4"><use href="#p4"/></clipPath>
    <clipPath id="z27998c5"><use href="#p5"/></clipPath>
    <clipPath id="z27998c6"><use href="#p6"/></clipPath>
    <clipPath id="z27998c7"><use href="#p7"/></clipPath>
    <clipPath id="z27998c8"><use href="#p8"/></clipPath>
    <clipPath id="z27998c9"><use href="#p9"/></clipPath>
    <clipPath id="z27998c10"><use href="#p10"/></clipPath>
</defs>
<g id="bg-layer" class="bg">
<use href="#p1"/>
<use href="#p2"/>
<use href="#p3"/>
<use href="#p4"/>
<use href="#p5"/>
<use href="#p6"/>
<use href="#p7"/>
<use href="#p8"/>
<use href="#p9"/>
<use href="#p10"/>
</g>
<g id="anim-layer">
    <path id="stroke-p1" style="stroke:#FF4444" pathLength="3333" clip-path="url(#z27998c1)" d="M 200 163 L 296 216 L 335 273"/>
    <path id="stroke-p2" style="stroke:#FF4444" pathLength="3333" clip-path="url(#z27998c2)" d="M 132 364 L 255 455"/>
    <path id="stroke-p3" style="stroke:#FF4444" pathLength="3333" clip-path="url(#z27998c3)" d="M 120 780 L 174 833 L 297 530"/>
    <path id="stroke-p4" style="stroke:#000" pathLength="3333" clip-path="url(#z27998c4)" d="M 403 212 L 447 254 L 489 457"/>
    <path id="stroke-p5" style="stroke:#000" pathLength="3333" clip-path="url(#z27998c5)" d="M 465 225 L 716 184 L 757 219 L 694 372"/>
    <path id="stroke-p6" style="stroke:#000" pathLength="3333" clip-path="url(#z27998c6)" d="M 498 414 L 757 387"/>
    <path id="stroke-p7" style="stroke:#000" pathLength="3333" clip-path="url(#z27998c7)" d="M 562 425 L 601 458 L 609 768"/>
    <path id="stroke-p8" style="stroke:#000" pathLength="3333" clip-path="url(#z27998c8)" d="M 627 587 L 811 558"/>
    <path id="stroke-p9" style="stroke:#000" pathLength="3333" clip-path="url(#z27998c9)" d="M 410 552 L 447 594 L 419 659 L 356 767 L 262 868"/>
    <path id="stroke-p10" style="stroke:#000" pathLength="3333" clip-path="url(#z27998c10)" d="M 448 658 L 717 852 L 786 869 L 937 859"/>
</g>
</svg>