<svg id="z28001" class="acjk" viewBox="0 0 1024 1024" xmlns="http://www.w3.org/2000/svg">
<style>
<![CDATA[
svg.acjk path[clip-path] {
    animation-duration: 10.5s;
    animation-timing-function: linear;
    animation-iteration-count: infinite;
    stroke-dasharray: 3337;
    stroke-dashoffset: 3339;
    stroke-width: 128;
    stroke-linecap: round;
    fill: none;
    stroke: #FF4444;
}
svg.acjk .bg { fill: #ccc; opacity: 0.5; }

/* Stroke 1: Starts at 0.0%, finishes at 7.6%, holds until 76.2% */
@keyframes zk1 {
    0%, 0.0% { stroke-dashoffset: 3339; }
    7.6%, 76.2% { stroke-dashoffset: 0; }
    76.3%, 100% { stroke-dashoffset: 3339; }
}
svg.acjk #stroke-p1 { animation-name: zk1; }
/* Stroke 2: Starts at 7.6%, finishes at 15.2%, holds until 76.2% */
@keyframes zk2 {
    0%, 7.6% { stroke-dashoffset: 3339; }
    15.2%, 76.2% { stroke-dashoffset: 0; }
    76.3%, 100% { stroke-dashoffset: 3339; }
}
svg.acjk #stroke-p2 { animation-name: zk2; }
/* Stroke 3: Starts at 15.2%, finishes at 22.9%, holds until 76.2% */
@keyframes zk3 {
    0%, 15.2% { stroke-dashoffset: 3339; }
    22.9%, 76.2% { stroke-dashoffset: 0; }
    76.3%, 100% { stroke-dashoffset: 3339; }
}
svg.acjk #stroke-p3 { animation-name: zk3; }
/* Stroke 4: Starts at 22.9%, finishes at 30.5%, holds until 76.2% */
@keyframes zk4 {
    0%, 22.9% { stroke-dashoffset: 3339; }
    30.5%, 76.2% { stroke-dashoffset: 0; }
    76.3%, 100% { stroke-dashoffset: 3339; }
}
svg.acjk #stroke-p4 { animation-name: zk4; }
/* Stroke 5: Starts at 30.5%, finishes at 38.1%, holds until 76.2% */
@keyframes zk5 {
    0%, 30.5% { stroke-dashoffset: 3339; }
    38.1%, 76.2% { stroke-dashoffset: 0; }
    76.3%, 100% { stroke-dashoffset: 3339; }
}
svg.acjk #stroke-p5 { animation-name: zk5; }
/* Stroke 6: Starts at 38.1%, finishes at 45.7%, holds until 76.2% */
@keyframes zk6 {
    0%, 38.1% { stroke-dashoffset: 3339; }
    45.7%, 76.2% { stroke-dashoffset: 0; }
    76.3%, 100% { stroke-dashoffset: 3339; }
}
svg.acjk #stroke-p6 { animation-name: zk6; }
/* Stroke 7: Starts at 45.7%, finishes at 53.3%, holds until 76.2% */
@keyframes zk7 {
    0%, 45.7% { stroke-dashoffset: 3339; }
    53.3%, 76.2% { stroke-dashoffset: 0; }
    76.3%, 100% { stroke-dashoffset: 3339; }
}
svg.acjk #stroke-p7 { animation-name: zk7; }
/* Stroke 8: Starts at 53.3%, finishes at 61.0%, holds until 76.2% */
@keyframes zk8 {
    0%, 53.3% { stroke-dashoffset: 3339; }
    61.0%, 76.2% { stroke-dashoffset: 0; }
    76.3%, 100% { stroke-dashoffset: 3339; }
}
svg.acjk #stroke-p8 { animation-name: zk8; }
/* Stroke 9: Starts at 61.0%, finishes at 68.6%, holds until 76.2% */
@keyframes zk9 {
    0%, 61.0% { stroke-dashoffset: 3339; }
    68.6%, 76.2% { stroke-dashoffset: 0; }
    76.3%, 100% { stroke-dashoffset: 3339; }
}
svg.acjk #stroke-p9 { animation-name: zk9; }
/* Stroke 10: Starts at 68.6%, finishes at 76.2%, holds until 76.2% */
@keyframes zk10 {
    0%, 68.6% { stroke-dashoffset: 3339; }
    76.2%, 76.2% { stroke-dashoffset: 0; }
    76.3%, 100% { stroke-dashoffset: 3339; }
}
svg.acjk #stroke-p10 { animation-name: zk10; }
]]>
</style>
<defs>
    <path id="p1" d="M 249 184 C 269 200 290 220 313 242 C 322 251 333 254 344 254 C 352 253 358 248 361 239 C 364 229 362 213 356 193 C 351 178 338 164 315 155 C 263 133 231 127 220 133 C 215 135 213 141 216 151 C 217 157 229 168 249 184 Z"/>
    <path id="p2" d="M 137 387 C 175 422 206 448 235 456 C 245 458 254 453 259 444 C 262 435 263 424 260 413 C 251 382 212 361 147 347 C 136 344 128 345 121 348 C 116 349 115 353 118 362 C 120 369 126 377 137 387 Z"/>
    <path id="p3" d="M 146 759 C 137 762 132 769 136 783 C 148 837 170 869 196 884 C 201 887 206 888 215 887 C 220 885 221 876 223 857 C 225 812 256 708 311 543 C 314 530 316 522 316 518 C 315 511 309 508 305 515 C 188 710 173 746 146 759 Z"/>
    <path id="p4" d="M 644 209 C 672 203 702 196 732 191 C 756 186 771 182 775 178 C 779 173 781 167 779 163 C 775 155 763 149 746 145 C 729 140 699 149 653 162 C 616 172 616 172 598 177 C 565 185 530 185 493 190 C 470 192 467 200 483 211 C 507 226 544 226 594 218 C 627 212 627 212 644 209 Z"/>
    <path id="p5" d="M 624 311 C 630 276 637 242 644 209 C 650 178 650 178 653 162 C 657 137 663 110 678 81 C 681 74 676 65 665 56 C 645 41 627 33 614 29 C 605 26 597 26 592 31 C 587 34 585 42 590 51 C 610 91 601 138 598 177 C 595 204 595 204 594 218 C 590 249 587 283 583 319 C 580 333 621 325 624 311 Z"/>
    <path id="p6" d="M 432 344 C 428 337 424 332 420 330 C 409 322 403 325 403 341 C 407 353 404 367 395 385 C 385 397 373 412 359 428 C 353 434 351 444 354 457 C 356 473 361 487 367 497 C 375 511 385 511 397 496 C 420 452 430 404 443 378 C 447 367 439 354 432 344 Z"/>
    <path id="p7" d="M 443 378 C 453 380 464 381 476 378 C 562 349 679 327 769 316 C 805 311 824 306 808 342 C 797 367 797 367 792 380 C 774 422 777 421 805 406 C 841 385 874 371 905 366 C 929 361 942 355 942 350 C 941 343 918 321 872 287 C 848 269 825 275 773 285 C 708 297 659 304 624 311 C 597 316 597 316 583 319 C 531 329 480 336 432 344 C 420 346 431 376 443 378 Z"/>
    <path id="p8" d="M 629 560 C 649 542 670 524 692 506 C 712 488 730 477 745 472 C 757 467 760 460 757 451 C 753 442 734 426 695 407 C 685 402 651 411 595 429 C 546 444 507 449 479 449 C 465 448 460 454 466 466 C 469 474 477 480 489 487 C 507 497 524 494 544 485 C 610 452 651 442 661 449 C 667 453 670 460 666 469 C 652 495 635 523 618 555 C 616 558 626 562 629 560 Z"/>
    <path id="p9" d="M 662 599 C 655 584 644 573 629 560 C 623 555 623 557 618 555 C 602 548 587 544 580 548 C 571 551 570 558 580 567 C 592 578 600 586 610 607 C 615 617 616 630 620 642 C 630 680 631 729 629 770 C 626 810 620 834 608 858 C 600 872 584 876 565 870 C 546 863 527 857 508 851 C 501 848 498 850 501 858 C 502 862 510 869 521 880 C 545 904 559 925 567 943 C 572 955 580 959 591 959 C 599 958 613 951 631 936 C 666 904 684 850 685 770 C 685 725 683 691 673 636 C 670 623 667 610 662 599 Z"/>
    <path id="p10" d="M 673 636 C 726 629 806 627 912 627 C 924 626 932 623 935 618 C 938 611 935 602 924 594 C 886 565 851 560 818 569 C 776 580 724 589 662 599 C 627 604 627 604 610 607 C 531 619 446 629 356 642 C 341 643 340 650 351 661 C 359 669 369 676 382 679 C 394 682 406 682 418 680 C 470 666 537 651 620 642 C 655 638 655 638 673 636 Z"/>

    <clipPath id="z28001c1"><use href="#p1"/></clipPath>
    <clipPath id="z28001c2"><use href="#p2"/></clipPath>
    <clipPath id="z28001c3"><use href="#p3"/></clipPath>
    <clipPath id="z28001c4"><use href="#p4"/></clipPath>
    <clipPath id="z28001c5"><use href="#p5"/></clipPath>
    <clipPath id="z28001c6"><use href="#p6"/></clipPath>
    <clipPath id="z28001c7"><use href="#p7"/></clipPath>
    <clipPath id="z28001c8"><use href="#p8"/></clipPath>
    <clipPath id="z28001c9"><use href="#p9"/></clipPath>
    <clipPath id="z28001c10"><use href="#p10"/></clipPath>
</defs>
<g id="bg-layer" class="bg">
<use href="#p1"/>
<use href="#p2"/>
<use href="#p3"/>
<use href="#p4"/>
<use href="#p5"/>
<use href="#p6"/>
<use href="#p7"/>
<use href="#p8"/>
<use href="#p9"/>
<use href="#p10"/>
</g>
<g id="anim-layer">
    <path id="stroke-p1" style="stroke:#FF4444" pathLength="3333" clip-path="url(#z28001c1)" d="M 219 140 L 304 185 L 353 247"/>
    <path id="stroke-p2" style="stroke:#FF4444" pathLength="3333" clip-path="url(#z28001c2)" d="M 120 353 L 257 440"/>
    <path id="stroke-p3" style="stroke:#FF4444" pathLength="3333" clip-path="url(#z28001c3)" d="M 140 768 L 205 833 L 310 517"/>
    <path id="stroke-p4" style="stroke:#000" pathLength="3333" clip-path="url(#z28001c4)" d="M 480 197 L 775 168"/>
    <path id="stroke-p5" style="stroke:#000" pathLength="3333" clip-path="url(#z28001c5)" d="M 593 36 L 640 83 L 598 323"/>
    <path id="stroke-p6" style="stroke:#000" pathLength="3333" clip-path="url(#z28001c6)" d="M 410 336 L 421 376 L 383 449 L 381 502"/>
    <path id="stroke-p7" style="stroke:#000" pathLength="3333" clip-path="url(#z28001c7)" d="M 433 353 L 826 295 L 888 348 L 788 407"/>
    <path id="stroke-p8" style="stroke:#000" pathLength="3333" clip-path="url(#z28001c8)" d="M 471 459 L 526 468 L 680 429 L 711 466 L 625 553"/>
    <path id="stroke-p9" style="stroke:#000" pathLength="3333" clip-path="url(#z28001c9)" d="M 578 554 L 617 577 L 645 634 L 651 825 L 628 888 L 593 914 L 507 856"/>
    <path id="stroke-p10" style="stroke:#000" pathLength="3333" clip-path="url(#z28001c10)" d="M 355 652 L 836 596 L 931 603"/>
</g>
</svg>