<svg id="z28071" class="acjk" viewBox="0 0 1024 1024" xmlns="http://www.w3.org/2000/svg">
<style>
<![CDATA[
svg.acjk path[clip-path] {
    animation-duration: 10.5s;
    animation-timing-function: linear;
    animation-iteration-count: infinite;
    stroke-dasharray: 3337;
    stroke-dashoffset: 3339;
    stroke-width: 128;
    stroke-linecap: round;
    fill: none;
    stroke: #FF4444;
}
svg.acjk .bg { fill: #ccc; opacity: 0.5; }

/* Stroke 1: Starts at 0.0%, finishes at 7.6%, holds until 76.2% */
@keyframes zk1 {
    0%, 0.0% { stroke-dashoffset: 3339; }
    7.6%, 76.2% { stroke-dashoffset: 0; }
    76.3%, 100% { stroke-dashoffset: 3339; }
}
svg.acjk #stroke-p1 { animation-name: zk1; }
/* Stroke 2: Starts at 7.6%, finishes at 15.2%, holds until 76.2% */
@keyframes zk2 {
    0%, 7.6% { stroke-dashoffset: 3339; }
    15.2%, 76.2% { stroke-dashoffset: 0; }
    76.3%, 100% { stroke-dashoffset: 3339; }
}
svg.acjk #stroke-p2 { animation-name: zk2; }
/* Stroke 3: Starts at 15.2%, finishes at 22.9%, holds until 76.2% */
@keyframes zk3 {
    0%, 15.2% { stroke-dashoffset: 3339; }
    22.9%, 76.2% { stroke-dashoffset: 0; }
    76.3%, 100% { stroke-dashoffset: 3339; }
}
svg.acjk #stroke-p3 { animation-name: zk3; }
/* Stroke 4: Starts at 22.9%, finishes at 30.5%, holds until 76.2% */
@keyframes zk4 {
    0%, 22.9% { stroke-dashoffset: 3339; }
    30.5%, 76.2% { stroke-dashoffset: 0; }
    76.3%, 100% { stroke-dashoffset: 3339; }
}
svg.acjk #stroke-p4 { animation-name: zk4; }
/* Stroke 5: Starts at 30.5%, finishes at 38.1%, holds until 76.2% */
@keyframes zk5 {
    0%, 30.5% { stroke-dashoffset: 3339; }
    38.1%, 76.2% { stroke-dashoffset: 0; }
    76.3%, 100% { stroke-dashoffset: 3339; }
}
svg.acjk #stroke-p5 { animation-name: zk5; }
/* Stroke 6: Starts at 38.1%, finishes at 45.7%, holds until 76.2% */
@keyframes zk6 {
    0%, 38.1% { stroke-dashoffset: 3339; }
    45.7%, 76.2% { stroke-dashoffset: 0; }
    76.3%, 100% { stroke-dashoffset: 3339; }
}
svg.acjk #stroke-p6 { animation-name: zk6; }
/* Stroke 7: Starts at 45.7%, finishes at 53.3%, holds until 76.2% */
@keyframes zk7 {
    0%, 45.7% { stroke-dashoffset: 3339; }
    53.3%, 76.2% { stroke-dashoffset: 0; }
    76.3%, 100% { stroke-dashoffset: 3339; }
}
svg.acjk #stroke-p7 { animation-name: zk7; }
/* Stroke 8: Starts at 53.3%, finishes at 61.0%, holds until 76.2% */
@keyframes zk8 {
    0%, 53.3% { stroke-dashoffset: 3339; }
    61.0%, 76.2% { stroke-dashoffset: 0; }
    76.3%, 100% { stroke-dashoffset: 3339; }
}
svg.acjk #stroke-p8 { animation-name: zk8; }
/* Stroke 9: Starts at 61.0%, finishes at 68.6%, holds until 76.2% */
@keyframes zk9 {
    0%, 61.0% { stroke-dashoffset: 3339; }
    68.6%, 76.2% { stroke-dashoffset: 0; }
    76.3%, 100% { stroke-dashoffset: 3339; }
}
svg.acjk #stroke-p9 { animation-name: zk9; }
/* Stroke 10: Starts at 68.6%, finishes at 76.2%, holds until 76.2% */
@keyframes zk10 {
    0%, 68.6% { stroke-dashoffset: 3339; }
    76.2%, 76.2% { stroke-dashoffset: 0; }
    76.3%, 100% { stroke-dashoffset: 3339; }
}
svg.acjk #stroke-p10 { animation-name: zk10; }
]]>
</style>
<defs>
    <path id="p1" d="M 202 190 C 219 205 235 223 253 243 C 261 251 271 256 283 257 C 290 257 297 252 301 243 C 305 233 303 217 298 196 C 294 183 284 170 263 161 C 217 139 187 131 176 137 C 171 139 169 145 171 154 C 172 162 184 174 202 190 Z"/>
    <path id="p2" d="M 126 381 C 163 422 192 450 218 461 C 227 464 236 460 243 451 C 248 442 249 432 247 421 C 240 390 204 364 140 342 C 129 338 120 337 113 340 C 109 341 107 345 109 354 C 109 361 116 370 126 381 Z"/>
    <path id="p3" d="M 120 754 C 112 758 109 763 112 774 C 124 822 141 850 163 862 C 168 865 173 867 180 865 C 184 863 186 855 187 839 C 188 804 219 703 278 535 C 281 524 283 517 283 514 C 281 507 276 504 273 511 C 163 696 163 729 120 754 Z"/>
    <path id="p4" d="M 417 210 C 457 252 485 275 502 276 C 510 276 517 270 520 258 C 521 249 518 238 511 227 C 503 215 490 208 475 202 C 448 191 430 185 420 184 C 414 183 410 186 410 194 C 409 198 411 204 417 210 Z"/>
    <path id="p5" d="M 339 302 C 370 379 370 499 341 657 C 336 679 330 702 322 726 C 310 758 315 789 337 819 C 344 828 350 828 358 820 C 379 795 391 740 393 654 C 396 491 403 385 413 335 C 415 323 409 314 400 307 C 384 295 369 284 351 279 C 344 276 339 279 335 285 C 332 289 335 293 339 302 Z"/>
    <path id="p6" d="M 586 213 C 576 214 572 216 576 222 C 580 228 589 235 603 242 C 611 246 634 244 673 232 C 737 211 775 207 786 226 C 791 236 795 258 798 291 C 809 437 808 594 801 763 C 799 787 796 803 787 810 C 776 816 746 812 697 799 C 686 796 681 798 682 805 C 682 809 687 813 696 819 C 739 849 770 879 795 904 C 808 917 820 922 829 921 C 837 919 844 908 852 889 C 862 859 868 822 867 779 C 857 546 850 386 852 301 C 852 276 856 256 864 241 C 871 226 872 216 866 209 C 859 200 840 188 811 172 C 798 165 786 162 775 167 C 758 172 733 182 699 191 C 663 200 625 208 586 213 Z"/>
    <path id="p7" d="M 514 400 C 502 390 490 384 474 379 C 469 377 464 379 462 384 C 460 386 462 390 466 397 C 484 432 491 498 475 590 C 467 631 465 660 484 682 C 489 688 494 687 500 681 C 505 673 509 663 513 648 C 515 639 515 630 517 621 C 520 597 519 558 519 536 C 519 517 519 517 519 508 C 519 469 519 442 521 428 C 523 419 522 406 514 400 Z"/>
    <path id="p8" d="M 641 637 C 645 654 653 669 662 683 C 685 720 700 714 714 683 C 727 652 726 636 724 611 C 720 574 715 522 711 454 C 709 437 714 422 723 410 C 727 403 728 396 723 391 C 712 379 692 368 663 356 C 652 351 643 351 635 357 C 606 373 566 387 514 400 C 505 402 512 430 521 428 C 533 426 569 416 632 399 C 664 390 665 435 667 452 C 669 481 669 520 665 571 C 664 581 660 608 650 620 C 647 625 640 631 641 637 Z"/>
    <path id="p9" d="M 519 536 C 557 529 591 525 620 522 C 634 520 638 514 633 507 C 626 498 615 491 601 490 C 578 487 551 494 519 508 C 510 511 510 538 519 536 Z"/>
    <path id="p10" d="M 513 648 C 530 649 608 638 641 637 C 647 637 655 625 650 620 C 622 588 581 609 517 621 C 508 623 504 648 513 648 Z"/>

    <clipPath id="z28071c1"><use href="#p1"/></clipPath>
    <clipPath id="z28071c2"><use href="#p2"/></clipPath>
    <clipPath id="z28071c3"><use href="#p3"/></clipPath>
    <clipPath id="z28071c4"><use href="#p4"/></clipPath>
    <clipPath id="z28071c5"><use href="#p5"/></clipPath>
    <clipPath id="z28071c6"><use href="#p6"/></clipPath>
    <clipPath id="z28071c7"><use href="#p7"/></clipPath>
    <clipPath id="z28071c8"><use href="#p8"/></clipPath>
    <clipPath id="z28071c9"><use href="#p9"/></clipPath>
    <clipPath id="z28071c10"><use href="#p10"/></clipPath>
</defs>
<g id="bg-layer" class="bg">
<use href="#p1"/>
<use href="#p2"/>
<use href="#p3"/>
<use href="#p4"/>
<use href="#p5"/>
<use href="#p6"/>
<use href="#p7"/>
<use href="#p8"/>
<use href="#p9"/>
<use href="#p10"/>
</g>
<g id="anim-layer">
    <path id="stroke-p1" style="stroke:#FF4444" pathLength="3333" clip-path="url(#z28071c1)" d="M 175 146 L 263 202 L 284 252"/>
    <path id="stroke-p2" style="stroke:#FF4444" pathLength="3333" clip-path="url(#z28071c2)" d="M 114 345 L 241 446"/>
    <path id="stroke-p3" style="stroke:#FF4444" pathLength="3333" clip-path="url(#z28071c3)" d="M 117 764 L 171 811 L 275 515"/>
    <path id="stroke-p4" style="stroke:#000" pathLength="3333" clip-path="url(#z28071c4)" d="M 417 194 L 515 263"/>
    <path id="stroke-p5" style="stroke:#000" pathLength="3333" clip-path="url(#z28071c5)" d="M 341 284 L 377 321 L 383 375 L 350 821"/>
    <path id="stroke-p6" style="stroke:#000" pathLength="3333" clip-path="url(#z28071c6)" d="M 586 222 L 770 190 L 830 227 L 828 821 L 800 871 L 687 806"/>
    <path id="stroke-p7" style="stroke:#000" pathLength="3333" clip-path="url(#z28071c7)" d="M 468 382 L 500 426 L 489 679"/>
    <path id="stroke-p8" style="stroke:#000" pathLength="3333" clip-path="url(#z28071c8)" d="M 514 413 L 648 375 L 692 404 L 677 700"/>
    <path id="stroke-p9" style="stroke:#000" pathLength="3333" clip-path="url(#z28071c9)" d="M 514 525 L 629 514"/>
    <path id="stroke-p10" style="stroke:#000" pathLength="3333" clip-path="url(#z28071c10)" d="M 516 639 L 647 622"/>
</g>
</svg>