<svg id="z28297" class="acjk" viewBox="0 0 1024 1024" xmlns="http://www.w3.org/2000/svg">
<style>
<![CDATA[
svg.acjk path[clip-path] {
    animation-duration: 12.100000000000001s;
    animation-timing-function: linear;
    animation-iteration-count: infinite;
    stroke-dasharray: 3337;
    stroke-dashoffset: 3339;
    stroke-width: 128;
    stroke-linecap: round;
    fill: none;
    stroke: #FF4444;
}
svg.acjk .bg { fill: #ccc; opacity: 0.5; }

/* Stroke 1: Starts at 0.0%, finishes at 6.6%, holds until 79.3% */
@keyframes zk1 {
    0%, 0.0% { stroke-dashoffset: 3339; }
    6.6%, 79.3% { stroke-dashoffset: 0; }
    79.4%, 100% { stroke-dashoffset: 3339; }
}
svg.acjk #stroke-p1 { animation-name: zk1; }
/* Stroke 2: Starts at 6.6%, finishes at 13.2%, holds until 79.3% */
@keyframes zk2 {
    0%, 6.6% { stroke-dashoffset: 3339; }
    13.2%, 79.3% { stroke-dashoffset: 0; }
    79.4%, 100% { stroke-dashoffset: 3339; }
}
svg.acjk #stroke-p2 { animation-name: zk2; }
/* Stroke 3: Starts at 13.2%, finishes at 19.8%, holds until 79.3% */
@keyframes zk3 {
    0%, 13.2% { stroke-dashoffset: 3339; }
    19.8%, 79.3% { stroke-dashoffset: 0; }
    79.4%, 100% { stroke-dashoffset: 3339; }
}
svg.acjk #stroke-p3 { animation-name: zk3; }
/* Stroke 4: Starts at 19.8%, finishes at 26.4%, holds until 79.3% */
@keyframes zk4 {
    0%, 19.8% { stroke-dashoffset: 3339; }
    26.4%, 79.3% { stroke-dashoffset: 0; }
    79.4%, 100% { stroke-dashoffset: 3339; }
}
svg.acjk #stroke-p4 { animation-name: zk4; }
/* Stroke 5: Starts at 26.4%, finishes at 33.1%, holds until 79.3% */
@keyframes zk5 {
    0%, 26.4% { stroke-dashoffset: 3339; }
    33.1%, 79.3% { stroke-dashoffset: 0; }
    79.4%, 100% { stroke-dashoffset: 3339; }
}
svg.acjk #stroke-p5 { animation-name: zk5; }
/* Stroke 6: Starts at 33.1%, finishes at 39.7%, holds until 79.3% */
@keyframes zk6 {
    0%, 33.1% { stroke-dashoffset: 3339; }
    39.7%, 79.3% { stroke-dashoffset: 0; }
    79.4%, 100% { stroke-dashoffset: 3339; }
}
svg.acjk #stroke-p6 { animation-name: zk6; }
/* Stroke 7: Starts at 39.7%, finishes at 46.3%, holds until 79.3% */
@keyframes zk7 {
    0%, 39.7% { stroke-dashoffset: 3339; }
    46.3%, 79.3% { stroke-dashoffset: 0; }
    79.4%, 100% { stroke-dashoffset: 3339; }
}
svg.acjk #stroke-p7 { animation-name: zk7; }
/* Stroke 8: Starts at 46.3%, finishes at 52.9%, holds until 79.3% */
@keyframes zk8 {
    0%, 46.3% { stroke-dashoffset: 3339; }
    52.9%, 79.3% { stroke-dashoffset: 0; }
    79.4%, 100% { stroke-dashoffset: 3339; }
}
svg.acjk #stroke-p8 { animation-name: zk8; }
/* Stroke 9: Starts at 52.9%, finishes at 59.5%, holds until 79.3% */
@keyframes zk9 {
    0%, 52.9% { stroke-dashoffset: 3339; }
    59.5%, 79.3% { stroke-dashoffset: 0; }
    79.4%, 100% { stroke-dashoffset: 3339; }
}
svg.acjk #stroke-p9 { animation-name: zk9; }
/* Stroke 10: Starts at 59.5%, finishes at 66.1%, holds until 79.3% */
@keyframes zk10 {
    0%, 59.5% { stroke-dashoffset: 3339; }
    66.1%, 79.3% { stroke-dashoffset: 0; }
    79.4%, 100% { stroke-dashoffset: 3339; }
}
svg.acjk #stroke-p10 { animation-name: zk10; }
/* Stroke 11: Starts at 66.1%, finishes at 72.7%, holds until 79.3% */
@keyframes zk11 {
    0%, 66.1% { stroke-dashoffset: 3339; }
    72.7%, 79.3% { stroke-dashoffset: 0; }
    79.4%, 100% { stroke-dashoffset: 3339; }
}
svg.acjk #stroke-p11 { animation-name: zk11; }
/* Stroke 12: Starts at 72.7%, finishes at 79.3%, holds until 79.3% */
@keyframes zk12 {
    0%, 72.7% { stroke-dashoffset: 3339; }
    79.3%, 79.3% { stroke-dashoffset: 0; }
    79.4%, 100% { stroke-dashoffset: 3339; }
}
svg.acjk #stroke-p12 { animation-name: zk12; }
]]>
</style>
<defs>
    <path id="p1" d="M 168 203 C 179 214 189 230 201 245 C 209 255 219 259 231 260 C 237 260 244 256 249 247 C 253 237 253 221 249 200 C 246 189 237 178 220 171 C 177 152 151 145 144 149 C 139 151 137 157 139 166 C 140 174 151 185 168 203 Z"/>
    <path id="p2" d="M 100 398 C 121 427 139 452 161 463 C 170 467 180 463 187 455 C 192 447 194 436 193 425 C 191 408 183 395 172 386 C 146 365 121 356 99 355 C 94 354 92 355 90 356 C 85 357 84 360 85 369 C 85 377 91 386 100 398 Z"/>
    <path id="p3" d="M 94 737 C 86 741 82 746 85 758 C 96 806 114 834 135 847 C 156 860 158 835 159 824 C 161 793 190 701 246 547 C 249 536 251 529 251 526 C 250 519 245 516 241 523 C 141 677 136 709 94 737 Z"/>
    <path id="p4" d="M 448 479 C 450 485 455 488 463 487 C 471 485 476 478 481 470 C 488 454 497 413 508 345 C 513 312 528 287 549 268 C 559 257 559 247 549 239 C 537 230 518 220 488 206 C 464 195 437 219 328 248 C 316 250 342 282 353 276 C 385 259 414 251 439 247 C 466 242 467 264 466 287 C 461 349 451 405 441 457 C 439 465 445 472 448 479 Z"/>
    <path id="p5" d="M 346 383 C 380 377 409 372 434 369 C 446 366 450 361 445 354 C 438 345 428 341 414 340 C 391 337 370 344 347 358 C 340 362 338 385 346 383 Z"/>
    <path id="p6" d="M 343 499 C 356 498 389 488 448 479 C 456 478 448 461 441 457 C 421 445 388 450 344 473 C 336 476 334 501 343 499 Z"/>
    <path id="p7" d="M 461 620 C 457 620 417 639 344 676 C 335 680 330 678 331 670 C 335 609 340 552 343 499 C 344 482 344 482 344 473 C 345 441 344 410 346 383 C 347 366 347 366 347 358 C 349 306 349 291 353 276 C 355 264 337 257 328 248 C 321 242 314 237 307 234 C 296 229 288 229 283 233 C 276 237 276 242 281 252 C 311 316 312 443 290 633 C 286 661 274 690 250 720 C 234 738 237 762 265 788 C 271 794 281 790 288 781 C 300 763 361 715 473 638 C 479 634 468 619 461 620 Z"/>
    <path id="p8" d="M 473 638 C 486 658 494 672 506 674 C 511 674 517 672 521 667 C 525 660 528 648 528 631 C 526 610 499 585 449 555 C 442 551 436 549 432 550 C 429 550 426 554 426 562 C 425 564 437 584 461 620 C 469 632 469 632 473 638 Z"/>
    <path id="p9" d="M 681 237 C 700 233 730 225 802 206 C 814 202 840 194 832 179 C 828 171 815 164 795 163 C 779 161 749 172 683 193 C 662 199 639 202 614 207 C 590 211 588 221 606 230 C 619 236 635 241 652 240 C 661 239 671 238 681 237 Z"/>
    <path id="p10" d="M 698 473 C 752 462 812 457 879 459 C 891 459 900 455 905 448 C 908 441 904 436 893 430 C 871 417 850 407 828 408 C 794 411 763 422 706 436 C 671 444 671 444 653 448 C 633 452 611 458 597 462 C 579 466 575 464 579 449 C 588 410 594 383 603 369 C 606 362 609 356 606 351 C 602 344 589 337 570 329 C 559 324 550 323 545 327 C 538 331 540 337 545 346 C 554 364 550 394 542 438 C 539 449 532 461 519 476 C 513 481 512 489 513 497 C 513 503 519 511 530 518 C 537 523 544 519 553 514 C 574 499 606 490 646 483 C 681 476 681 476 698 473 Z"/>
    <path id="p11" d="M 646 483 C 615 636 526 773 411 854 C 400 861 394 866 392 871 C 390 875 392 881 400 879 C 596 815 668 608 698 473 C 703 448 703 448 706 436 C 725 346 730 309 734 294 C 737 280 736 270 724 262 C 707 251 693 241 681 237 C 672 233 647 232 652 240 C 672 279 673 346 653 448 C 648 471 648 471 646 483 Z"/>
    <path id="p12" d="M 972 799 C 963 780 950 744 940 689 C 938 679 937 672 933 670 C 929 667 925 672 923 684 C 908 742 897 782 884 800 C 871 815 840 821 798 819 C 776 817 743 812 734 792 C 720 759 723 693 745 592 C 748 573 736 557 708 545 C 700 541 693 542 688 545 C 683 547 683 554 686 565 C 692 589 695 612 693 634 C 681 750 680 811 708 839 C 739 870 808 881 901 865 C 924 860 950 849 967 837 C 978 828 979 814 972 799 Z"/>

    <clipPath id="z28297c1"><use href="#p1"/></clipPath>
    <clipPath id="z28297c2"><use href="#p2"/></clipPath>
    <clipPath id="z28297c3"><use href="#p3"/></clipPath>
    <clipPath id="z28297c4"><use href="#p4"/></clipPath>
    <clipPath id="z28297c5"><use href="#p5"/></clipPath>
    <clipPath id="z28297c6"><use href="#p6"/></clipPath>
    <clipPath id="z28297c7"><use href="#p7"/></clipPath>
    <clipPath id="z28297c8"><use href="#p8"/></clipPath>
    <clipPath id="z28297c9"><use href="#p9"/></clipPath>
    <clipPath id="z28297c10"><use href="#p10"/></clipPath>
    <clipPath id="z28297c11"><use href="#p11"/></clipPath>
    <clipPath id="z28297c12"><use href="#p12"/></clipPath>
</defs>
<g id="bg-layer" class="bg">
<use href="#p1"/>
<use href="#p2"/>
<use href="#p3"/>
<use href="#p4"/>
<use href="#p5"/>
<use href="#p6"/>
<use href="#p7"/>
<use href="#p8"/>
<use href="#p9"/>
<use href="#p10"/>
<use href="#p11"/>
<use href="#p12"/>
</g>
<g id="anim-layer">
    <path id="stroke-p1" style="stroke:#FF4444" pathLength="3333" clip-path="url(#z28297c1)" d="M 146 154 L 210 202 L 237 253"/>
    <path id="stroke-p2" style="stroke:#FF4444" pathLength="3333" clip-path="url(#z28297c2)" d="M 91 362 L 181 457"/>
    <path id="stroke-p3" style="stroke:#FF4444" pathLength="3333" clip-path="url(#z28297c3)" d="M 90 747 L 147 796 L 243 529"/>
    <path id="stroke-p4" style="stroke:#000" pathLength="3333" clip-path="url(#z28297c4)" d="M 333 252 L 469 227 L 509 257 L 458 480"/>
    <path id="stroke-p5" style="stroke:#000" pathLength="3333" clip-path="url(#z28297c5)" d="M 349 375 L 440 358"/>
    <path id="stroke-p6" style="stroke:#000" pathLength="3333" clip-path="url(#z28297c6)" d="M 345 490 L 445 470"/>
    <path id="stroke-p7" style="stroke:#000" pathLength="3333" clip-path="url(#z28297c7)" d="M 284 239 L 322 277 L 325 346 L 314 611 L 283 718 L 300 741 L 466 627"/>
    <path id="stroke-p8" style="stroke:#000" pathLength="3333" clip-path="url(#z28297c8)" d="M 433 557 L 511 667"/>
    <path id="stroke-p9" style="stroke:#000" pathLength="3333" clip-path="url(#z28297c9)" d="M 600 217 L 827 185"/>
    <path id="stroke-p10" style="stroke:#000" pathLength="3333" clip-path="url(#z28297c10)" d="M 549 331 L 578 364 L 548 473 L 561 492 L 813 434 L 902 444"/>
    <path id="stroke-p11" style="stroke:#000" pathLength="3333" clip-path="url(#z28297c11)" d="M 659 239 L 700 300 L 626 622 L 521 783 L 397 873"/>
    <path id="stroke-p12" style="stroke:#000" pathLength="3333" clip-path="url(#z28297c12)" d="M 692 550 L 719 599 L 708 783 L 735 829 L 841 845 L 923 818 L 929 679"/>
</g>
</svg>