<svg id="z28461" class="acjk" viewBox="0 0 1024 1024" xmlns="http://www.w3.org/2000/svg">
<style>
<![CDATA[
svg.acjk path[clip-path] {
    animation-duration: 12.9s;
    animation-timing-function: linear;
    animation-iteration-count: infinite;
    stroke-dasharray: 3337;
    stroke-dashoffset: 3339;
    stroke-width: 128;
    stroke-linecap: round;
    fill: none;
    stroke: #FF4444;
}
svg.acjk .bg { fill: #ccc; opacity: 0.5; }

/* Stroke 1: Starts at 0.0%, finishes at 6.2%, holds until 80.6% */
@keyframes zk1 {
    0%, 0.0% { stroke-dashoffset: 3339; }
    6.2%, 80.6% { stroke-dashoffset: 0; }
    80.7%, 100% { stroke-dashoffset: 3339; }
}
svg.acjk #stroke-p1 { animation-name: zk1; }
/* Stroke 2: Starts at 6.2%, finishes at 12.4%, holds until 80.6% */
@keyframes zk2 {
    0%, 6.2% { stroke-dashoffset: 3339; }
    12.4%, 80.6% { stroke-dashoffset: 0; }
    80.7%, 100% { stroke-dashoffset: 3339; }
}
svg.acjk #stroke-p2 { animation-name: zk2; }
/* Stroke 3: Starts at 12.4%, finishes at 18.6%, holds until 80.6% */
@keyframes zk3 {
    0%, 12.4% { stroke-dashoffset: 3339; }
    18.6%, 80.6% { stroke-dashoffset: 0; }
    80.7%, 100% { stroke-dashoffset: 3339; }
}
svg.acjk #stroke-p3 { animation-name: zk3; }
/* Stroke 4: Starts at 18.6%, finishes at 24.8%, holds until 80.6% */
@keyframes zk4 {
    0%, 18.6% { stroke-dashoffset: 3339; }
    24.8%, 80.6% { stroke-dashoffset: 0; }
    80.7%, 100% { stroke-dashoffset: 3339; }
}
svg.acjk #stroke-p4 { animation-name: zk4; }
/* Stroke 5: Starts at 24.8%, finishes at 31.0%, holds until 80.6% */
@keyframes zk5 {
    0%, 24.8% { stroke-dashoffset: 3339; }
    31.0%, 80.6% { stroke-dashoffset: 0; }
    80.7%, 100% { stroke-dashoffset: 3339; }
}
svg.acjk #stroke-p5 { animation-name: zk5; }
/* Stroke 6: Starts at 31.0%, finishes at 37.2%, holds until 80.6% */
@keyframes zk6 {
    0%, 31.0% { stroke-dashoffset: 3339; }
    37.2%, 80.6% { stroke-dashoffset: 0; }
    80.7%, 100% { stroke-dashoffset: 3339; }
}
svg.acjk #stroke-p6 { animation-name: zk6; }
/* Stroke 7: Starts at 37.2%, finishes at 43.4%, holds until 80.6% */
@keyframes zk7 {
    0%, 37.2% { stroke-dashoffset: 3339; }
    43.4%, 80.6% { stroke-dashoffset: 0; }
    80.7%, 100% { stroke-dashoffset: 3339; }
}
svg.acjk #stroke-p7 { animation-name: zk7; }
/* Stroke 8: Starts at 43.4%, finishes at 49.6%, holds until 80.6% */
@keyframes zk8 {
    0%, 43.4% { stroke-dashoffset: 3339; }
    49.6%, 80.6% { stroke-dashoffset: 0; }
    80.7%, 100% { stroke-dashoffset: 3339; }
}
svg.acjk #stroke-p8 { animation-name: zk8; }
/* Stroke 9: Starts at 49.6%, finishes at 55.8%, holds until 80.6% */
@keyframes zk9 {
    0%, 49.6% { stroke-dashoffset: 3339; }
    55.8%, 80.6% { stroke-dashoffset: 0; }
    80.7%, 100% { stroke-dashoffset: 3339; }
}
svg.acjk #stroke-p9 { animation-name: zk9; }
/* Stroke 10: Starts at 55.8%, finishes at 62.0%, holds until 80.6% */
@keyframes zk10 {
    0%, 55.8% { stroke-dashoffset: 3339; }
    62.0%, 80.6% { stroke-dashoffset: 0; }
    80.7%, 100% { stroke-dashoffset: 3339; }
}
svg.acjk #stroke-p10 { animation-name: zk10; }
/* Stroke 11: Starts at 62.0%, finishes at 68.2%, holds until 80.6% */
@keyframes zk11 {
    0%, 62.0% { stroke-dashoffset: 3339; }
    68.2%, 80.6% { stroke-dashoffset: 0; }
    80.7%, 100% { stroke-dashoffset: 3339; }
}
svg.acjk #stroke-p11 { animation-name: zk11; }
/* Stroke 12: Starts at 68.2%, finishes at 74.4%, holds until 80.6% */
@keyframes zk12 {
    0%, 68.2% { stroke-dashoffset: 3339; }
    74.4%, 80.6% { stroke-dashoffset: 0; }
    80.7%, 100% { stroke-dashoffset: 3339; }
}
svg.acjk #stroke-p12 { animation-name: zk12; }
/* Stroke 13: Starts at 74.4%, finishes at 80.6%, holds until 80.6% */
@keyframes zk13 {
    0%, 74.4% { stroke-dashoffset: 3339; }
    80.6%, 80.6% { stroke-dashoffset: 0; }
    80.7%, 100% { stroke-dashoffset: 3339; }
}
svg.acjk #stroke-p13 { animation-name: zk13; }
]]>
</style>
<defs>
    <path id="p1" d="M 207 193 Q 235 218 265 248 Q 278 261 296 262 Q 306 261 313 247 Q 317 232 309 201 Q 303 179 271 164 Q 198 133 180 141 Q 174 145 176 158 Q 180 170 207 193 Z"/>
    <path id="p2" d="M 128 396 Q 176 447 210 463 Q 226 464 235 451 Q 241 438 238 421 Q 226 381 140 356 Q 122 352 113 356 Q 107 357 110 370 Q 111 382 128 396 Z"/>
    <path id="p3" d="M 121 737 Q 109 741 112 757 Q 124 829 158 848 Q 165 855 175 852 Q 182 851 183 826 Q 192 771 289 531 Q 296 515 295 510 Q 294 500 285 506 Q 276 512 161 695 Q 149 716 121 737 Z"/>
    <path id="p4" d="M 664 214 Q 737 205 806 210 Q 819 211 823 203 Q 827 193 816 181 Q 773 147 686 169 C 652 175 652 175 635 178 Q 574 188 506 199 C 477 203 477 203 463 205 Q 411 209 356 218 Q 331 221 349 234 Q 385 255 448 243 Q 458 240 471 239 C 496 234 496 234 508 231 Q 532 222 623 217 C 650 215 650 215 664 214 Z"/>
    <path id="p5" d="M 506 199 Q 503 172 503 151 Q 504 133 486 128 Q 453 110 432 118 Q 416 125 429 143 Q 453 170 462 201 Q 462 202 463 205 C 468 228 468 228 471 239 Q 475 267 492 286 Q 504 295 508 285 Q 514 264 508 231 C 507 210 507 210 506 199 Z"/>
    <path id="p6" d="M 686 169 Q 695 147 712 121 Q 725 108 717 99 Q 707 84 678 68 Q 665 59 649 66 Q 640 70 646 80 Q 653 101 635 178 C 627 204 627 204 623 217 Q 602 277 604 286 Q 604 299 618 289 Q 625 283 664 214 C 679 184 679 184 686 169 Z"/>
    <path id="p7" d="M 633 395 Q 685 388 730 384 Q 740 385 748 373 Q 749 363 728 352 Q 698 330 631 350 Q 600 357 568 365 Q 559 366 551 369 C 512 376 512 376 492 379 Q 470 380 448 384 Q 408 388 364 393 Q 337 396 358 413 Q 368 422 383 430 Q 395 437 416 431 Q 446 424 480 420 C 515 414 515 414 532 411 Q 568 401 609 398 C 625 396 625 396 633 395 Z"/>
    <path id="p8" d="M 551 369 Q 557 356 564 345 Q 571 336 566 328 Q 560 318 534 304 Q 515 294 506 296 Q 494 299 496 312 Q 499 343 492 379 C 484 406 484 406 480 420 Q 429 541 279 664 Q 273 671 279 674 Q 285 675 295 672 Q 352 647 399 607 Q 477 544 532 411 C 545 383 545 383 551 369 Z"/>
    <path id="p9" d="M 609 398 Q 610 402 615 407 Q 685 509 763 603 Q 797 646 940 634 Q 956 634 959 630 Q 960 624 949 618 Q 795 540 777 527 Q 729 491 633 395 C 627 389 605 391 609 398 Z"/>
    <path id="p10" d="M 756 311 Q 786 333 818 362 Q 830 372 844 372 Q 853 371 857 360 Q 861 347 852 321 Q 846 302 816 288 Q 746 264 732 269 Q 728 273 729 284 Q 733 294 756 311 Z"/>
    <path id="p11" d="M 676 698 Q 712 695 788 695 Q 807 695 812 686 Q 816 676 801 662 Q 741 620 680 642 Q 677 642 675 643 C 643 650 643 650 627 653 Q 539 666 527 671 C 494 676 494 676 477 679 Q 413 688 348 698 Q 327 701 343 717 Q 356 730 374 735 Q 395 739 410 735 Q 440 726 473 721 C 504 715 504 715 520 712 Q 563 703 626 700 C 659 699 659 699 676 698 Z"/>
    <path id="p12" d="M 527 671 Q 530 652 533 631 Q 537 615 539 605 Q 545 587 527 578 Q 487 556 474 558 Q 456 559 469 579 Q 481 600 477 679 C 474 707 474 707 473 721 Q 455 805 395 857 Q 383 867 380 873 Q 379 879 388 879 Q 415 882 458 841 Q 497 804 520 712 C 525 685 525 685 527 671 Z"/>
    <path id="p13" d="M 626 700 Q 623 811 617 831 Q 610 861 639 910 C 640 912 640 912 641 913 Q 651 931 659 934 Q 669 935 675 923 Q 685 893 682 865 Q 678 774 676 698 C 675 661 675 661 675 643 Q 675 556 674 555 Q 652 536 634 528 Q 622 525 614 532 Q 608 536 616 545 Q 622 554 627 653 C 626 684 626 684 626 700 Z"/>

    <clipPath id="z28461c1"><use href="#p1"/></clipPath>
    <clipPath id="z28461c2"><use href="#p2"/></clipPath>
    <clipPath id="z28461c3"><use href="#p3"/></clipPath>
    <clipPath id="z28461c4"><use href="#p4"/></clipPath>
    <clipPath id="z28461c5"><use href="#p5"/></clipPath>
    <clipPath id="z28461c6"><use href="#p6"/></clipPath>
    <clipPath id="z28461c7"><use href="#p7"/></clipPath>
    <clipPath id="z28461c8"><use href="#p8"/></clipPath>
    <clipPath id="z28461c9"><use href="#p9"/></clipPath>
    <clipPath id="z28461c10"><use href="#p10"/></clipPath>
    <clipPath id="z28461c11"><use href="#p11"/></clipPath>
    <clipPath id="z28461c12"><use href="#p12"/></clipPath>
    <clipPath id="z28461c13"><use href="#p13"/></clipPath>
</defs>
<g id="bg-layer" class="bg">
<use href="#p1"/>
<use href="#p2"/>
<use href="#p3"/>
<use href="#p4"/>
<use href="#p5"/>
<use href="#p6"/>
<use href="#p7"/>
<use href="#p8"/>
<use href="#p9"/>
<use href="#p10"/>
<use href="#p11"/>
<use href="#p12"/>
<use href="#p13"/>
</g>
<g id="anim-layer">
    <path id="stroke-p1" style="stroke:#FF4444" pathLength="3333" clip-path="url(#z28461c1)" d="M 179 147 L 269 203 L 300 257"/>
    <path id="stroke-p2" style="stroke:#FF4444" pathLength="3333" clip-path="url(#z28461c2)" d="M 116 362 L 230 451"/>
    <path id="stroke-p3" style="stroke:#FF4444" pathLength="3333" clip-path="url(#z28461c3)" d="M 114 748 L 174 793 L 288 511"/>
    <path id="stroke-p4" style="stroke:#000" pathLength="3333" clip-path="url(#z28461c4)" d="M 349 224 L 743 184 L 819 196"/>
    <path id="stroke-p5" style="stroke:#000" pathLength="3333" clip-path="url(#z28461c5)" d="M 428 127 L 475 155 L 499 284"/>
    <path id="stroke-p6" style="stroke:#000" pathLength="3333" clip-path="url(#z28461c6)" d="M 650 71 L 683 113 L 611 286"/>
    <path id="stroke-p7" style="stroke:#000" pathLength="3333" clip-path="url(#z28461c7)" d="M 357 401 L 743 367"/>
    <path id="stroke-p8" style="stroke:#000" pathLength="3333" clip-path="url(#z28461c8)" d="M 504 299 L 532 341 L 469 489 L 383 595 L 284 667"/>
    <path id="stroke-p9" style="stroke:#000" pathLength="3333" clip-path="url(#z28461c9)" d="M 618 400 L 791 579 L 953 624"/>
    <path id="stroke-p10" style="stroke:#000" pathLength="3333" clip-path="url(#z28461c10)" d="M 733 276 L 853 363"/>
    <path id="stroke-p11" style="stroke:#000" pathLength="3333" clip-path="url(#z28461c11)" d="M 346 709 L 713 665 L 809 680"/>
    <path id="stroke-p12" style="stroke:#000" pathLength="3333" clip-path="url(#z28461c12)" d="M 472 567 L 508 602 L 496 718 L 458 812 L 388 872"/>
    <path id="stroke-p13" style="stroke:#000" pathLength="3333" clip-path="url(#z28461c13)" d="M 620 536 L 648 573 L 657 929"/>
</g>
</svg>