<svg id="z28639" class="acjk" viewBox="0 0 1024 1024" xmlns="http://www.w3.org/2000/svg">
<style>
<![CDATA[
svg.acjk path[clip-path] {
    animation-duration: 16.1s;
    animation-timing-function: linear;
    animation-iteration-count: infinite;
    stroke-dasharray: 3337;
    stroke-dashoffset: 3339;
    stroke-width: 128;
    stroke-linecap: round;
    fill: none;
    stroke: #FF4444;
}
svg.acjk .bg { fill: #ccc; opacity: 0.5; }

/* Stroke 1: Starts at 0.0%, finishes at 5.0%, holds until 84.5% */
@keyframes zk1 {
    0%, 0.0% { stroke-dashoffset: 3339; }
    5.0%, 84.5% { stroke-dashoffset: 0; }
    84.6%, 100% { stroke-dashoffset: 3339; }
}
svg.acjk #stroke-p1 { animation-name: zk1; }
/* Stroke 2: Starts at 5.0%, finishes at 9.9%, holds until 84.5% */
@keyframes zk2 {
    0%, 5.0% { stroke-dashoffset: 3339; }
    9.9%, 84.5% { stroke-dashoffset: 0; }
    84.6%, 100% { stroke-dashoffset: 3339; }
}
svg.acjk #stroke-p2 { animation-name: zk2; }
/* Stroke 3: Starts at 9.9%, finishes at 14.9%, holds until 84.5% */
@keyframes zk3 {
    0%, 9.9% { stroke-dashoffset: 3339; }
    14.9%, 84.5% { stroke-dashoffset: 0; }
    84.6%, 100% { stroke-dashoffset: 3339; }
}
svg.acjk #stroke-p3 { animation-name: zk3; }
/* Stroke 4: Starts at 14.9%, finishes at 19.9%, holds until 84.5% */
@keyframes zk4 {
    0%, 14.9% { stroke-dashoffset: 3339; }
    19.9%, 84.5% { stroke-dashoffset: 0; }
    84.6%, 100% { stroke-dashoffset: 3339; }
}
svg.acjk #stroke-p4 { animation-name: zk4; }
/* Stroke 5: Starts at 19.9%, finishes at 24.8%, holds until 84.5% */
@keyframes zk5 {
    0%, 19.9% { stroke-dashoffset: 3339; }
    24.8%, 84.5% { stroke-dashoffset: 0; }
    84.6%, 100% { stroke-dashoffset: 3339; }
}
svg.acjk #stroke-p5 { animation-name: zk5; }
/* Stroke 6: Starts at 24.8%, finishes at 29.8%, holds until 84.5% */
@keyframes zk6 {
    0%, 24.8% { stroke-dashoffset: 3339; }
    29.8%, 84.5% { stroke-dashoffset: 0; }
    84.6%, 100% { stroke-dashoffset: 3339; }
}
svg.acjk #stroke-p6 { animation-name: zk6; }
/* Stroke 7: Starts at 29.8%, finishes at 34.8%, holds until 84.5% */
@keyframes zk7 {
    0%, 29.8% { stroke-dashoffset: 3339; }
    34.8%, 84.5% { stroke-dashoffset: 0; }
    84.6%, 100% { stroke-dashoffset: 3339; }
}
svg.acjk #stroke-p7 { animation-name: zk7; }
/* Stroke 8: Starts at 34.8%, finishes at 39.8%, holds until 84.5% */
@keyframes zk8 {
    0%, 34.8% { stroke-dashoffset: 3339; }
    39.8%, 84.5% { stroke-dashoffset: 0; }
    84.6%, 100% { stroke-dashoffset: 3339; }
}
svg.acjk #stroke-p8 { animation-name: zk8; }
/* Stroke 9: Starts at 39.8%, finishes at 44.7%, holds until 84.5% */
@keyframes zk9 {
    0%, 39.8% { stroke-dashoffset: 3339; }
    44.7%, 84.5% { stroke-dashoffset: 0; }
    84.6%, 100% { stroke-dashoffset: 3339; }
}
svg.acjk #stroke-p9 { animation-name: zk9; }
/* Stroke 10: Starts at 44.7%, finishes at 49.7%, holds until 84.5% */
@keyframes zk10 {
    0%, 44.7% { stroke-dashoffset: 3339; }
    49.7%, 84.5% { stroke-dashoffset: 0; }
    84.6%, 100% { stroke-dashoffset: 3339; }
}
svg.acjk #stroke-p10 { animation-name: zk10; }
/* Stroke 11: Starts at 49.7%, finishes at 54.7%, holds until 84.5% */
@keyframes zk11 {
    0%, 49.7% { stroke-dashoffset: 3339; }
    54.7%, 84.5% { stroke-dashoffset: 0; }
    84.6%, 100% { stroke-dashoffset: 3339; }
}
svg.acjk #stroke-p11 { animation-name: zk11; }
/* Stroke 12: Starts at 54.7%, finishes at 59.6%, holds until 84.5% */
@keyframes zk12 {
    0%, 54.7% { stroke-dashoffset: 3339; }
    59.6%, 84.5% { stroke-dashoffset: 0; }
    84.6%, 100% { stroke-dashoffset: 3339; }
}
svg.acjk #stroke-p12 { animation-name: zk12; }
/* Stroke 13: Starts at 59.6%, finishes at 64.6%, holds until 84.5% */
@keyframes zk13 {
    0%, 59.6% { stroke-dashoffset: 3339; }
    64.6%, 84.5% { stroke-dashoffset: 0; }
    84.6%, 100% { stroke-dashoffset: 3339; }
}
svg.acjk #stroke-p13 { animation-name: zk13; }
/* Stroke 14: Starts at 64.6%, finishes at 69.6%, holds until 84.5% */
@keyframes zk14 {
    0%, 64.6% { stroke-dashoffset: 3339; }
    69.6%, 84.5% { stroke-dashoffset: 0; }
    84.6%, 100% { stroke-dashoffset: 3339; }
}
svg.acjk #stroke-p14 { animation-name: zk14; }
/* Stroke 15: Starts at 69.6%, finishes at 74.5%, holds until 84.5% */
@keyframes zk15 {
    0%, 69.6% { stroke-dashoffset: 3339; }
    74.5%, 84.5% { stroke-dashoffset: 0; }
    84.6%, 100% { stroke-dashoffset: 3339; }
}
svg.acjk #stroke-p15 { animation-name: zk15; }
/* Stroke 16: Starts at 74.5%, finishes at 79.5%, holds until 84.5% */
@keyframes zk16 {
    0%, 74.5% { stroke-dashoffset: 3339; }
    79.5%, 84.5% { stroke-dashoffset: 0; }
    84.6%, 100% { stroke-dashoffset: 3339; }
}
svg.acjk #stroke-p16 { animation-name: zk16; }
/* Stroke 17: Starts at 79.5%, finishes at 84.5%, holds until 84.5% */
@keyframes zk17 {
    0%, 79.5% { stroke-dashoffset: 3339; }
    84.5%, 84.5% { stroke-dashoffset: 0; }
    84.6%, 100% { stroke-dashoffset: 3339; }
}
svg.acjk #stroke-p17 { animation-name: zk17; }
]]>
</style>
<defs>
    <path id="p1" d="M 196 175 C 209 186 221 201 235 216 C 244 226 255 230 267 230 C 274 229 281 225 285 215 C 288 204 287 187 281 166 C 276 149 245 135 192 122 C 181 119 173 118 168 121 C 163 123 161 129 164 139 C 165 147 177 158 196 175 Z"/>
    <path id="p2" d="M 94 385 C 123 418 146 443 170 453 C 179 456 188 452 195 443 C 200 434 201 424 199 413 C 195 396 187 383 176 375 C 144 352 115 342 90 342 C 86 342 83 343 81 344 C 77 345 75 349 77 358 C 77 365 84 373 94 385 Z"/>
    <path id="p3" d="M 93 738 C 86 743 81 747 84 758 C 95 806 114 833 135 846 C 157 859 158 835 159 824 C 161 799 169 767 182 729 C 224 594 247 526 247 526 C 247 519 240 516 237 523 C 137 688 125 713 93 738 Z"/>
    <path id="p4" d="M 543 71 C 558 83 573 98 590 114 C 598 122 608 125 618 125 C 624 124 630 120 633 112 C 636 102 634 87 628 69 C 621 50 591 36 537 25 C 527 22 519 22 516 25 C 512 27 511 33 513 41 C 514 48 526 57 543 71 Z"/>
    <path id="p5" d="M 342 200 C 329 202 327 207 338 217 C 346 225 356 230 368 233 C 380 235 391 235 401 232 C 532 189 679 168 840 168 C 847 167 861 165 864 159 C 866 152 863 144 853 137 C 823 115 795 107 772 114 C 703 131 560 160 342 200 Z"/>
    <path id="p6" d="M 460 266 C 480 298 496 315 509 317 C 515 317 521 313 525 305 C 527 298 526 289 522 279 C 518 270 509 265 500 261 C 483 253 472 247 466 246 C 461 245 458 247 457 253 C 456 256 457 261 460 266 Z"/>
    <path id="p7" d="M 575 357 C 639 287 673 250 678 248 C 686 242 687 235 681 228 C 674 221 664 216 651 212 C 638 208 629 207 624 210 C 619 212 621 215 621 221 C 620 257 604 277 563 350 C 561 354 572 361 575 357 Z"/>
    <path id="p8" d="M 563 350 C 556 346 549 342 543 340 C 527 335 517 345 524 358 C 536 383 543 432 537 508 C 535 522 540 537 554 554 C 558 559 565 559 569 553 C 577 537 580 510 580 475 C 578 434 576 401 580 378 C 581 369 580 362 575 357 C 573 353 567 352 563 350 Z"/>
    <path id="p9" d="M 350 398 Q 386 385 418 378 Q 428 377 430 379 Q 437 386 435 409 Q 434 470 422 499 Q 410 523 390 520 Q 378 519 367 515 Q 348 509 362 528 Q 387 556 397 579 Q 410 592 422 581 Q 465 551 481 423 Q 484 392 495 376 Q 504 366 499 358 Q 492 351 453 336 Q 437 332 424 342 Q 382 367 277 388 Q 265 389 263 396 Q 263 400 280 408 Q 295 414 320 408 C 340 401 340 401 350 398 Z"/>
    <path id="p10" d="M 320 408 Q 329 472 255 586 Q 252 590 252 595 Q 253 598 256 597 Q 304 582 360 458 Q 367 440 372 432 Q 376 425 369 415 Q 359 405 350 398 C 343 391 318 398 320 408 Z"/>
    <path id="p11" d="M 732 329 C 753 316 790 294 809 285 C 820 278 824 273 819 264 C 813 253 803 244 790 236 C 777 227 768 224 762 225 C 755 225 755 228 754 236 C 743 275 712 299 662 350 C 658 354 665 367 670 364 C 684 356 698 348 710 342 C 725 333 725 333 732 329 Z"/>
    <path id="p12" d="M 662 350 C 659 346 648 341 630 339 C 612 336 613 346 621 356 C 638 378 646 417 642 475 C 640 492 628 514 620 525 C 615 530 615 536 619 545 C 623 555 628 563 635 568 C 639 571 645 570 650 564 C 665 540 695 503 743 454 C 759 436 747 437 734 446 C 723 453 706 465 684 483 C 681 484 677 487 677 485 C 667 432 670 410 670 364 C 670 359 666 353 662 350 Z"/>
    <path id="p13" d="M 710 342 C 732 365 767 411 793 443 C 836 496 862 525 873 526 C 895 527 922 520 954 513 C 961 511 978 507 963 500 C 888 466 827 425 780 378 C 763 362 748 345 732 329 C 726 323 705 335 710 342 Z"/>
    <path id="p14" d="M 376 634 C 391 660 394 703 379 764 C 364 818 325 865 271 911 C 256 923 277 922 285 919 C 367 896 425 806 435 734 C 439 697 445 672 452 660 C 457 649 453 643 445 638 C 419 619 399 611 382 617 C 374 619 371 625 376 634 Z"/>
    <path id="p15" d="M 702 573 C 717 594 720 683 708 835 C 706 857 707 909 715 931 C 721 951 750 997 764 966 C 772 945 771 925 771 905 C 763 734 763 633 768 602 C 769 594 767 587 763 584 C 747 570 733 559 721 556 C 707 551 691 558 702 573 Z"/>
    <path id="p16" d="M 478 653 C 465 655 464 659 474 667 C 486 676 504 680 526 675 C 550 669 579 662 613 657 C 630 653 647 650 662 649 C 666 648 671 647 674 641 C 675 636 670 630 660 627 C 639 619 611 623 575 634 C 555 639 535 644 517 647 C 504 648 491 650 478 653 Z"/>
    <path id="p17" d="M 475 738 C 460 740 458 745 470 754 C 486 766 501 770 517 767 C 570 755 620 746 667 741 C 672 740 679 739 682 732 C 684 726 676 722 665 716 C 649 707 621 708 578 719 C 540 728 504 732 475 738 Z"/>

    <clipPath id="z28639c1"><use href="#p1"/></clipPath>
    <clipPath id="z28639c2"><use href="#p2"/></clipPath>
    <clipPath id="z28639c3"><use href="#p3"/></clipPath>
    <clipPath id="z28639c4"><use href="#p4"/></clipPath>
    <clipPath id="z28639c5"><use href="#p5"/></clipPath>
    <clipPath id="z28639c6"><use href="#p6"/></clipPath>
    <clipPath id="z28639c7"><use href="#p7"/></clipPath>
    <clipPath id="z28639c8"><use href="#p8"/></clipPath>
    <clipPath id="z28639c9"><use href="#p9"/></clipPath>
    <clipPath id="z28639c10"><use href="#p10"/></clipPath>
    <clipPath id="z28639c11"><use href="#p11"/></clipPath>
    <clipPath id="z28639c12"><use href="#p12"/></clipPath>
    <clipPath id="z28639c13"><use href="#p13"/></clipPath>
    <clipPath id="z28639c14"><use href="#p14"/></clipPath>
    <clipPath id="z28639c15"><use href="#p15"/></clipPath>
    <clipPath id="z28639c16"><use href="#p16"/></clipPath>
    <clipPath id="z28639c17"><use href="#p17"/></clipPath>
</defs>
<g id="bg-layer" class="bg">
<use href="#p1"/>
<use href="#p2"/>
<use href="#p3"/>
<use href="#p4"/>
<use href="#p5"/>
<use href="#p6"/>
<use href="#p7"/>
<use href="#p8"/>
<use href="#p9"/>
<use href="#p10"/>
<use href="#p11"/>
<use href="#p12"/>
<use href="#p13"/>
<use href="#p14"/>
<use href="#p15"/>
<use href="#p16"/>
<use href="#p17"/>
</g>
<g id="anim-layer">
    <path id="stroke-p1" style="stroke:#FF4444" pathLength="3333" clip-path="url(#z28639c1)" d="M 169 126 L 244 175 L 270 225"/>
    <path id="stroke-p2" style="stroke:#FF4444" pathLength="3333" clip-path="url(#z28639c2)" d="M 83 351 L 188 445"/>
    <path id="stroke-p3" style="stroke:#FF4444" pathLength="3333" clip-path="url(#z28639c3)" d="M 88 753 L 150 789 L 242 526"/>
    <path id="stroke-p4" style="stroke:#000" pathLength="3333" clip-path="url(#z28639c4)" d="M 519 31 L 597 78 L 617 122"/>
    <path id="stroke-p5" style="stroke:#000" pathLength="3333" clip-path="url(#z28639c5)" d="M 339 208 L 767 142 L 860 147"/>
    <path id="stroke-p6" style="stroke:#000" pathLength="3333" clip-path="url(#z28639c6)" d="M 464 251 L 513 312"/>
    <path id="stroke-p7" style="stroke:#000" pathLength="3333" clip-path="url(#z28639c7)" d="M 627 219 L 648 251 L 569 353"/>
    <path id="stroke-p8" style="stroke:#000" pathLength="3333" clip-path="url(#z28639c8)" d="M 531 346 L 556 376 L 562 552"/>
    <path id="stroke-p9" style="stroke:#000" pathLength="3333" clip-path="url(#z28639c9)" d="M 270 397 L 436 356 L 465 371 L 434 524 L 404 553 L 365 519"/>
    <path id="stroke-p10" style="stroke:#000" pathLength="3333" clip-path="url(#z28639c10)" d="M 329 406 L 344 445 L 260 588"/>
    <path id="stroke-p11" style="stroke:#000" pathLength="3333" clip-path="url(#z28639c11)" d="M 761 234 L 778 273 L 665 356"/>
    <path id="stroke-p12" style="stroke:#000" pathLength="3333" clip-path="url(#z28639c12)" d="M 623 346 L 651 369 L 656 526 L 743 445"/>
    <path id="stroke-p13" style="stroke:#000" pathLength="3333" clip-path="url(#z28639c13)" d="M 717 337 L 878 492 L 961 504"/>
    <path id="stroke-p14" style="stroke:#000" pathLength="3333" clip-path="url(#z28639c14)" d="M 383 626 L 420 658 L 402 770 L 358 849 L 274 915"/>
    <path id="stroke-p15" style="stroke:#000" pathLength="3333" clip-path="url(#z28639c15)" d="M 704 559 L 739 595 L 749 972"/>
    <path id="stroke-p16" style="stroke:#000" pathLength="3333" clip-path="url(#z28639c16)" d="M 475 660 L 669 638"/>
    <path id="stroke-p17" style="stroke:#000" pathLength="3333" clip-path="url(#z28639c17)" d="M 473 746 L 675 728"/>
</g>
</svg>