<svg id="z28784" class="acjk" viewBox="0 0 1024 1024" xmlns="http://www.w3.org/2000/svg">
<style>
<![CDATA[
svg.acjk path[clip-path] {
    animation-duration: 7.300000000000001s;
    animation-timing-function: linear;
    animation-iteration-count: infinite;
    stroke-dasharray: 3337;
    stroke-dashoffset: 3339;
    stroke-width: 128;
    stroke-linecap: round;
    fill: none;
    stroke: #FF4444;
}
svg.acjk .bg { fill: #ccc; opacity: 0.5; }

/* Stroke 1: Starts at 0.0%, finishes at 11.0%, holds until 65.8% */
@keyframes zk1 {
    0%, 0.0% { stroke-dashoffset: 3339; }
    11.0%, 65.8% { stroke-dashoffset: 0; }
    65.9%, 100% { stroke-dashoffset: 3339; }
}
svg.acjk #stroke-p1 { animation-name: zk1; }
/* Stroke 2: Starts at 11.0%, finishes at 21.9%, holds until 65.8% */
@keyframes zk2 {
    0%, 11.0% { stroke-dashoffset: 3339; }
    21.9%, 65.8% { stroke-dashoffset: 0; }
    65.9%, 100% { stroke-dashoffset: 3339; }
}
svg.acjk #stroke-p2 { animation-name: zk2; }
/* Stroke 3: Starts at 21.9%, finishes at 32.9%, holds until 65.8% */
@keyframes zk3 {
    0%, 21.9% { stroke-dashoffset: 3339; }
    32.9%, 65.8% { stroke-dashoffset: 0; }
    65.9%, 100% { stroke-dashoffset: 3339; }
}
svg.acjk #stroke-p3 { animation-name: zk3; }
/* Stroke 4: Starts at 32.9%, finishes at 43.8%, holds until 65.8% */
@keyframes zk4 {
    0%, 32.9% { stroke-dashoffset: 3339; }
    43.8%, 65.8% { stroke-dashoffset: 0; }
    65.9%, 100% { stroke-dashoffset: 3339; }
}
svg.acjk #stroke-p4 { animation-name: zk4; }
/* Stroke 5: Starts at 43.8%, finishes at 54.8%, holds until 65.8% */
@keyframes zk5 {
    0%, 43.8% { stroke-dashoffset: 3339; }
    54.8%, 65.8% { stroke-dashoffset: 0; }
    65.9%, 100% { stroke-dashoffset: 3339; }
}
svg.acjk #stroke-p5 { animation-name: zk5; }
/* Stroke 6: Starts at 54.8%, finishes at 65.8%, holds until 65.8% */
@keyframes zk6 {
    0%, 54.8% { stroke-dashoffset: 3339; }
    65.8%, 65.8% { stroke-dashoffset: 0; }
    65.9%, 100% { stroke-dashoffset: 3339; }
}
svg.acjk #stroke-p6 { animation-name: zk6; }
]]>
</style>
<defs>
    <path id="p1" d="M 454 341 Q 602 311 786 291 Q 798 292 808 278 Q 809 265 784 253 Q 745 229 673 250 Q 507 287 471 295 C 430 302 430 302 409 305 Q 390 305 241 323 Q 208 327 234 347 Q 273 377 314 367 Q 348 358 391 352 C 433 345 433 345 454 341 Z"/>
    <path id="p2" d="M 391 352 Q 310 547 138 700 Q 92 734 89 746 Q 88 753 104 745 Q 323 651 454 341 C 465 310 465 310 471 295 Q 472 288 476 283 Q 498 219 506 171 Q 510 143 527 115 Q 542 94 520 81 Q 490 60 450 52 Q 431 48 421 54 Q 414 60 421 78 Q 463 153 409 305 C 397 336 397 336 391 352 Z"/>
    <path id="p3" d="M 379 565 Q 421 631 448 634 Q 461 635 470 617 Q 471 604 464 582 Q 455 566 434 557 Q 400 541 385 537 Q 375 534 374 547 Q 373 554 379 565 Z"/>
    <path id="p4" d="M 708 456 Q 693 480 623 568 Q 611 587 631 583 Q 658 568 755 507 Q 777 488 804 477 Q 828 467 816 446 Q 801 427 772 410 Q 745 394 731 398 Q 716 399 721 415 Q 725 436 708 456 Z"/>
    <path id="p5" d="M 554 635 Q 572 574 585 482 Q 589 452 595 439 Q 602 432 596 421 Q 590 414 559 401 Q 525 383 508 390 Q 495 396 506 414 Q 545 562 464 712 Q 460 716 457 723 Q 412 804 260 885 Q 235 900 266 899 Q 285 900 324 886 Q 373 873 417 845 Q 492 803 544 666 C 551 645 551 645 554 635 Z"/>
    <path id="p6" d="M 544 666 Q 650 808 753 905 Q 777 929 799 926 Q 859 911 910 898 Q 932 894 932 888 Q 933 881 905 869 Q 758 812 712 776 Q 633 716 554 635 C 546 627 537 657 544 666 Z"/>

    <clipPath id="z28784c1"><use href="#p1"/></clipPath>
    <clipPath id="z28784c2"><use href="#p2"/></clipPath>
    <clipPath id="z28784c3"><use href="#p3"/></clipPath>
    <clipPath id="z28784c4"><use href="#p4"/></clipPath>
    <clipPath id="z28784c5"><use href="#p5"/></clipPath>
    <clipPath id="z28784c6"><use href="#p6"/></clipPath>
</defs>
<g id="bg-layer" class="bg">
<use href="#p1"/>
<use href="#p2"/>
<use href="#p3"/>
<use href="#p4"/>
<use href="#p5"/>
<use href="#p6"/>
</g>
<g id="anim-layer">
    <path id="stroke-p1" style="stroke:#FF4444" pathLength="3333" clip-path="url(#z28784c1)" d="M 232 333 L 305 342 L 718 269 L 801 273"/>
    <path id="stroke-p2" style="stroke:#FF4444" pathLength="3333" clip-path="url(#z28784c2)" d="M 425 58 L 485 114 L 402 392 L 269 598 L 97 741"/>
    <path id="stroke-p3" style="stroke:#000" pathLength="3333" clip-path="url(#z28784c3)" d="M 381 546 L 456 628"/>
    <path id="stroke-p4" style="stroke:#000" pathLength="3333" clip-path="url(#z28784c4)" d="M 726 404 L 765 470 L 626 578"/>
    <path id="stroke-p5" style="stroke:#000" pathLength="3333" clip-path="url(#z28784c5)" d="M 506 398 L 556 439 L 535 603 L 491 719 L 410 818 L 259 893"/>
    <path id="stroke-p6" style="stroke:#000" pathLength="3333" clip-path="url(#z28784c6)" d="M 555 642 L 617 727 L 776 866 L 924 886"/>
</g>
</svg>