<svg id="z28849" class="acjk" viewBox="0 0 1024 1024" xmlns="http://www.w3.org/2000/svg">
<style>
<![CDATA[
svg.acjk path[clip-path] {
    animation-duration: 9.7s;
    animation-timing-function: linear;
    animation-iteration-count: infinite;
    stroke-dasharray: 3337;
    stroke-dashoffset: 3339;
    stroke-width: 128;
    stroke-linecap: round;
    fill: none;
    stroke: #FF4444;
}
svg.acjk .bg { fill: #ccc; opacity: 0.5; }

/* Stroke 1: Starts at 0.0%, finishes at 8.2%, holds until 74.2% */
@keyframes zk1 {
    0%, 0.0% { stroke-dashoffset: 3339; }
    8.2%, 74.2% { stroke-dashoffset: 0; }
    74.3%, 100% { stroke-dashoffset: 3339; }
}
svg.acjk #stroke-p1 { animation-name: zk1; }
/* Stroke 2: Starts at 8.2%, finishes at 16.5%, holds until 74.2% */
@keyframes zk2 {
    0%, 8.2% { stroke-dashoffset: 3339; }
    16.5%, 74.2% { stroke-dashoffset: 0; }
    74.3%, 100% { stroke-dashoffset: 3339; }
}
svg.acjk #stroke-p2 { animation-name: zk2; }
/* Stroke 3: Starts at 16.5%, finishes at 24.7%, holds until 74.2% */
@keyframes zk3 {
    0%, 16.5% { stroke-dashoffset: 3339; }
    24.7%, 74.2% { stroke-dashoffset: 0; }
    74.3%, 100% { stroke-dashoffset: 3339; }
}
svg.acjk #stroke-p3 { animation-name: zk3; }
/* Stroke 4: Starts at 24.7%, finishes at 33.0%, holds until 74.2% */
@keyframes zk4 {
    0%, 24.7% { stroke-dashoffset: 3339; }
    33.0%, 74.2% { stroke-dashoffset: 0; }
    74.3%, 100% { stroke-dashoffset: 3339; }
}
svg.acjk #stroke-p4 { animation-name: zk4; }
/* Stroke 5: Starts at 33.0%, finishes at 41.2%, holds until 74.2% */
@keyframes zk5 {
    0%, 33.0% { stroke-dashoffset: 3339; }
    41.2%, 74.2% { stroke-dashoffset: 0; }
    74.3%, 100% { stroke-dashoffset: 3339; }
}
svg.acjk #stroke-p5 { animation-name: zk5; }
/* Stroke 6: Starts at 41.2%, finishes at 49.5%, holds until 74.2% */
@keyframes zk6 {
    0%, 41.2% { stroke-dashoffset: 3339; }
    49.5%, 74.2% { stroke-dashoffset: 0; }
    74.3%, 100% { stroke-dashoffset: 3339; }
}
svg.acjk #stroke-p6 { animation-name: zk6; }
/* Stroke 7: Starts at 49.5%, finishes at 57.7%, holds until 74.2% */
@keyframes zk7 {
    0%, 49.5% { stroke-dashoffset: 3339; }
    57.7%, 74.2% { stroke-dashoffset: 0; }
    74.3%, 100% { stroke-dashoffset: 3339; }
}
svg.acjk #stroke-p7 { animation-name: zk7; }
/* Stroke 8: Starts at 57.7%, finishes at 66.0%, holds until 74.2% */
@keyframes zk8 {
    0%, 57.7% { stroke-dashoffset: 3339; }
    66.0%, 74.2% { stroke-dashoffset: 0; }
    74.3%, 100% { stroke-dashoffset: 3339; }
}
svg.acjk #stroke-p8 { animation-name: zk8; }
/* Stroke 9: Starts at 66.0%, finishes at 74.2%, holds until 74.2% */
@keyframes zk9 {
    0%, 66.0% { stroke-dashoffset: 3339; }
    74.2%, 74.2% { stroke-dashoffset: 0; }
    74.3%, 100% { stroke-dashoffset: 3339; }
}
svg.acjk #stroke-p9 { animation-name: zk9; }
]]>
</style>
<defs>
    <path id="p1" d="M 678 243 Q 624 244 530 257 Q 403 273 349 287 Q 339 288 345 282 Q 364 264 418 225 Q 500 164 516 158 Q 528 151 535 144 Q 542 131 524 108 Q 490 69 461 61 Q 445 57 436 63 Q 432 69 439 81 Q 446 106 428 139 Q 320 256 276 282 Q 231 300 238 345 Q 242 369 256 371 Q 262 370 280 362 Q 331 338 442 311 Q 589 269 701 269 C 702 269 702 269 703 269 C 715 269 690 243 678 243 Z"/>
    <path id="p2" d="M 703 269 Q 724 291 746 316 Q 756 329 770 329 Q 780 330 785 319 Q 791 307 786 280 Q 783 252 744 224 Q 657 173 640 177 Q 636 180 635 191 Q 635 200 678 243 C 695 260 695 260 703 269 Z"/>
    <path id="p3" d="M 368 390 Q 359 381 316 377 Q 304 374 301 380 Q 295 387 304 402 Q 331 445 352 521 Q 356 543 371 558 Q 390 577 394 562 Q 397 553 396 539 C 393 517 393 517 391 506 Q 379 448 375 422 C 373 411 377 397 368 390 Z"/>
    <path id="p4" d="M 658 478 Q 679 427 706 408 Q 722 392 709 374 Q 693 361 645 336 Q 629 329 608 336 Q 515 370 368 390 C 357 392 364 424 375 422 Q 385 421 395 418 Q 492 400 584 384 Q 608 378 618 388 Q 627 397 609 472 C 606 488 652 493 658 478 Z"/>
    <path id="p5" d="M 396 539 Q 403 539 411 538 Q 493 523 670 514 Q 680 513 683 504 Q 683 497 658 478 C 645 468 625 469 609 472 Q 608 472 607 472 Q 486 496 391 506 C 380 508 385 539 396 539 Z"/>
    <path id="p6" d="M 254 674 Q 281 699 309 731 Q 322 744 339 745 Q 351 745 357 731 Q 363 716 355 684 Q 346 651 251 623 Q 235 619 228 621 Q 222 625 223 638 Q 227 650 254 674 Z"/>
    <path id="p7" d="M 716 588 Q 685 625 621 681 Q 614 688 618 697 Q 627 700 636 696 Q 744 642 794 623 Q 815 622 812 608 Q 808 589 790 566 Q 771 542 747 537 Q 731 536 729 556 Q 729 572 716 588 Z"/>
    <path id="p8" d="M 520 689 Q 530 631 546 612 Q 556 599 546 588 Q 533 572 504 565 Q 482 555 461 561 Q 448 565 455 582 Q 482 621 459 692 Q 431 818 276 889 Q 242 902 200 917 Q 181 927 204 930 Q 327 931 418 863 Q 476 817 512 718 C 517 699 517 699 520 689 Z"/>
    <path id="p9" d="M 512 718 Q 593 817 680 908 Q 702 932 742 934 Q 814 938 889 926 Q 908 925 909 919 Q 912 912 897 906 Q 729 843 697 823 Q 640 789 520 689 C 512 683 506 710 512 718 Z"/>

    <clipPath id="z28849c1"><use href="#p1"/></clipPath>
    <clipPath id="z28849c2"><use href="#p2"/></clipPath>
    <clipPath id="z28849c3"><use href="#p3"/></clipPath>
    <clipPath id="z28849c4"><use href="#p4"/></clipPath>
    <clipPath id="z28849c5"><use href="#p5"/></clipPath>
    <clipPath id="z28849c6"><use href="#p6"/></clipPath>
    <clipPath id="z28849c7"><use href="#p7"/></clipPath>
    <clipPath id="z28849c8"><use href="#p8"/></clipPath>
    <clipPath id="z28849c9"><use href="#p9"/></clipPath>
</defs>
<g id="bg-layer" class="bg">
<use href="#p1"/>
<use href="#p2"/>
<use href="#p3"/>
<use href="#p4"/>
<use href="#p5"/>
<use href="#p6"/>
<use href="#p7"/>
<use href="#p8"/>
<use href="#p9"/>
</g>
<g id="anim-layer">
    <path id="stroke-p1" style="stroke:#FF4444" pathLength="3333" clip-path="url(#z28849c1)" d="M 442 66 L 483 136 L 297 291 L 292 331 L 548 269 L 689 261"/>
    <path id="stroke-p2" style="stroke:#FF4444" pathLength="3333" clip-path="url(#z28849c2)" d="M 643 186 L 745 266 L 778 324"/>
    <path id="stroke-p3" style="stroke:#FF4444" pathLength="3333" clip-path="url(#z28849c3)" d="M 308 386 L 343 409 L 384 564"/>
    <path id="stroke-p4" style="stroke:#FF4444" pathLength="3333" clip-path="url(#z28849c4)" d="M 377 395 L 628 361 L 668 393 L 630 474"/>
    <path id="stroke-p5" style="stroke:#FF4444" pathLength="3333" clip-path="url(#z28849c5)" d="M 398 511 L 676 500"/>
    <path id="stroke-p6" style="stroke:#000" pathLength="3333" clip-path="url(#z28849c6)" d="M 230 627 L 322 693 L 348 740"/>
    <path id="stroke-p7" style="stroke:#000" pathLength="3333" clip-path="url(#z28849c7)" d="M 741 544 L 763 602 L 626 693"/>
    <path id="stroke-p8" style="stroke:#000" pathLength="3333" clip-path="url(#z28849c8)" d="M 458 571 L 509 614 L 441 797 L 346 878 L 202 924"/>
    <path id="stroke-p9" style="stroke:#000" pathLength="3333" clip-path="url(#z28849c9)" d="M 521 695 L 703 874 L 900 916"/>
</g>
</svg>