<svg id="z28889" class="acjk" viewBox="0 0 1024 1024" xmlns="http://www.w3.org/2000/svg">
<style>
<![CDATA[
svg.acjk path[clip-path] {
    animation-duration: 10.5s;
    animation-timing-function: linear;
    animation-iteration-count: infinite;
    stroke-dasharray: 3337;
    stroke-dashoffset: 3339;
    stroke-width: 128;
    stroke-linecap: round;
    fill: none;
    stroke: #FF4444;
}
svg.acjk .bg { fill: #ccc; opacity: 0.5; }

/* Stroke 1: Starts at 0.0%, finishes at 7.6%, holds until 76.2% */
@keyframes zk1 {
    0%, 0.0% { stroke-dashoffset: 3339; }
    7.6%, 76.2% { stroke-dashoffset: 0; }
    76.3%, 100% { stroke-dashoffset: 3339; }
}
svg.acjk #stroke-p1 { animation-name: zk1; }
/* Stroke 2: Starts at 7.6%, finishes at 15.2%, holds until 76.2% */
@keyframes zk2 {
    0%, 7.6% { stroke-dashoffset: 3339; }
    15.2%, 76.2% { stroke-dashoffset: 0; }
    76.3%, 100% { stroke-dashoffset: 3339; }
}
svg.acjk #stroke-p2 { animation-name: zk2; }
/* Stroke 3: Starts at 15.2%, finishes at 22.9%, holds until 76.2% */
@keyframes zk3 {
    0%, 15.2% { stroke-dashoffset: 3339; }
    22.9%, 76.2% { stroke-dashoffset: 0; }
    76.3%, 100% { stroke-dashoffset: 3339; }
}
svg.acjk #stroke-p3 { animation-name: zk3; }
/* Stroke 4: Starts at 22.9%, finishes at 30.5%, holds until 76.2% */
@keyframes zk4 {
    0%, 22.9% { stroke-dashoffset: 3339; }
    30.5%, 76.2% { stroke-dashoffset: 0; }
    76.3%, 100% { stroke-dashoffset: 3339; }
}
svg.acjk #stroke-p4 { animation-name: zk4; }
/* Stroke 5: Starts at 30.5%, finishes at 38.1%, holds until 76.2% */
@keyframes zk5 {
    0%, 30.5% { stroke-dashoffset: 3339; }
    38.1%, 76.2% { stroke-dashoffset: 0; }
    76.3%, 100% { stroke-dashoffset: 3339; }
}
svg.acjk #stroke-p5 { animation-name: zk5; }
/* Stroke 6: Starts at 38.1%, finishes at 45.7%, holds until 76.2% */
@keyframes zk6 {
    0%, 38.1% { stroke-dashoffset: 3339; }
    45.7%, 76.2% { stroke-dashoffset: 0; }
    76.3%, 100% { stroke-dashoffset: 3339; }
}
svg.acjk #stroke-p6 { animation-name: zk6; }
/* Stroke 7: Starts at 45.7%, finishes at 53.3%, holds until 76.2% */
@keyframes zk7 {
    0%, 45.7% { stroke-dashoffset: 3339; }
    53.3%, 76.2% { stroke-dashoffset: 0; }
    76.3%, 100% { stroke-dashoffset: 3339; }
}
svg.acjk #stroke-p7 { animation-name: zk7; }
/* Stroke 8: Starts at 53.3%, finishes at 61.0%, holds until 76.2% */
@keyframes zk8 {
    0%, 53.3% { stroke-dashoffset: 3339; }
    61.0%, 76.2% { stroke-dashoffset: 0; }
    76.3%, 100% { stroke-dashoffset: 3339; }
}
svg.acjk #stroke-p8 { animation-name: zk8; }
/* Stroke 9: Starts at 61.0%, finishes at 68.6%, holds until 76.2% */
@keyframes zk9 {
    0%, 61.0% { stroke-dashoffset: 3339; }
    68.6%, 76.2% { stroke-dashoffset: 0; }
    76.3%, 100% { stroke-dashoffset: 3339; }
}
svg.acjk #stroke-p9 { animation-name: zk9; }
/* Stroke 10: Starts at 68.6%, finishes at 76.2%, holds until 76.2% */
@keyframes zk10 {
    0%, 68.6% { stroke-dashoffset: 3339; }
    76.2%, 76.2% { stroke-dashoffset: 0; }
    76.3%, 100% { stroke-dashoffset: 3339; }
}
svg.acjk #stroke-p10 { animation-name: zk10; }
]]>
</style>
<defs>
    <path id="p1" d="M 130 330 Q 121 393 101 452 Q 97 464 100 479 Q 104 503 114 515 Q 126 530 142 513 Q 182 459 167 378 Q 164 347 152 325 Q 145 318 140 319 Q 133 322 130 330 Z"/>
    <path id="p2" d="M 285 374 Q 306 365 379 325 Q 395 312 418 305 Q 437 298 429 281 Q 419 265 397 251 Q 378 238 366 239 Q 354 240 357 252 Q 357 280 286 352 C 281 357 278 377 285 374 Z"/>
    <path id="p3" d="M 267 599 Q 276 548 285 374 C 286 359 286 359 286 352 Q 287 211 309 157 Q 316 142 304 131 Q 280 112 239 102 Q 212 96 204 103 Q 194 110 203 124 Q 264 217 227 542 Q 209 680 123 766 Q 99 788 71 812 Q 59 821 60 825 Q 61 829 73 828 Q 86 832 119 815 Q 221 773 260 630 C 265 609 265 609 267 599 Z"/>
    <path id="p4" d="M 260 630 Q 333 703 343 706 Q 344 706 347 706 Q 356 706 361 695 Q 365 683 360 657 Q 354 627 271 600 Q 270 599 267 599 C 257 597 253 623 260 630 Z"/>
    <path id="p5" d="M 563 230 Q 609 146 634 124 Q 641 114 638 101 Q 634 89 607 69 Q 582 53 564 52 Q 546 55 554 75 Q 563 93 550 140 Q 501 254 390 399 Q 380 409 378 415 Q 375 425 389 423 Q 419 414 490 327 C 499 315 499 315 504 309 Q 523 284 546 255 C 557 238 557 238 563 230 Z"/>
    <path id="p6" d="M 655 425 Q 701 364 749 291 Q 768 260 802 229 Q 818 216 811 207 Q 810 197 743 176 Q 728 167 684 192 Q 636 210 563 230 C 553 232 537 251 546 255 Q 576 268 643 246 Q 683 234 692 242 Q 696 249 684 272 Q 656 333 612 396 C 599 415 599 415 592 425 Q 514 524 398 629 Q 383 642 399 643 Q 441 637 546 545 Q 594 496 627 459 C 646 436 646 436 655 425 Z"/>
    <path id="p7" d="M 627 459 Q 775 594 810 604 Q 876 613 980 588 Q 999 585 1000 580 Q 1001 573 987 567 Q 759 494 659 428 Q 656 425 655 425 C 626 406 626 406 612 396 Q 596 383 578 369 Q 527 326 504 309 C 497 305 485 322 490 327 Q 527 364 592 425 C 615 448 615 448 627 459 Z"/>
    <path id="p8" d="M 485 676 Q 472 669 440 662 Q 427 658 423 664 Q 416 670 424 687 Q 452 751 465 855 Q 466 886 484 907 Q 502 931 507 915 Q 513 902 513 880 C 511 856 511 856 510 844 Q 497 742 496 709 C 496 697 496 680 485 676 Z"/>
    <path id="p9" d="M 752 822 Q 785 735 819 712 Q 838 693 822 672 Q 756 612 711 624 Q 708 624 705 626 Q 626 656 485 676 C 474 678 485 711 496 709 Q 499 708 684 676 Q 706 672 715 681 Q 725 691 721 712 Q 708 770 693 817 C 686 835 745 840 752 822 Z"/>
    <path id="p10" d="M 513 880 Q 520 880 530 879 Q 605 866 765 860 Q 777 859 779 850 Q 779 841 752 822 C 736 810 712 813 693 817 Q 593 836 510 844 C 498 846 501 880 513 880 Z"/>

    <clipPath id="z28889c1"><use href="#p1"/></clipPath>
    <clipPath id="z28889c2"><use href="#p2"/></clipPath>
    <clipPath id="z28889c3"><use href="#p3"/></clipPath>
    <clipPath id="z28889c4"><use href="#p4"/></clipPath>
    <clipPath id="z28889c5"><use href="#p5"/></clipPath>
    <clipPath id="z28889c6"><use href="#p6"/></clipPath>
    <clipPath id="z28889c7"><use href="#p7"/></clipPath>
    <clipPath id="z28889c8"><use href="#p8"/></clipPath>
    <clipPath id="z28889c9"><use href="#p9"/></clipPath>
    <clipPath id="z28889c10"><use href="#p10"/></clipPath>
</defs>
<g id="bg-layer" class="bg">
<use href="#p1"/>
<use href="#p2"/>
<use href="#p3"/>
<use href="#p4"/>
<use href="#p5"/>
<use href="#p6"/>
<use href="#p7"/>
<use href="#p8"/>
<use href="#p9"/>
<use href="#p10"/>
</g>
<g id="anim-layer">
    <path id="stroke-p1" style="stroke:#FF4444" pathLength="3333" clip-path="url(#z28889c1)" d="M 140 325 L 120 516"/>
    <path id="stroke-p2" style="stroke:#FF4444" pathLength="3333" clip-path="url(#z28889c2)" d="M 365 248 L 382 297 L 289 364"/>
    <path id="stroke-p3" style="stroke:#FF4444" pathLength="3333" clip-path="url(#z28889c3)" d="M 208 111 L 267 160 L 241 602 L 177 742 L 68 821"/>
    <path id="stroke-p4" style="stroke:#FF4444" pathLength="3333" clip-path="url(#z28889c4)" d="M 272 608 L 350 700"/>
    <path id="stroke-p5" style="stroke:#000" pathLength="3333" clip-path="url(#z28889c5)" d="M 558 61 L 592 122 L 481 306 L 384 415"/>
    <path id="stroke-p6" style="stroke:#000" pathLength="3333" clip-path="url(#z28889c6)" d="M 554 251 L 711 208 L 758 235 L 610 442 L 400 635"/>
    <path id="stroke-p7" style="stroke:#000" pathLength="3333" clip-path="url(#z28889c7)" d="M 504 317 L 794 545 L 994 576"/>
    <path id="stroke-p8" style="stroke:#000" pathLength="3333" clip-path="url(#z28889c8)" d="M 427 667 L 466 714 L 495 913"/>
    <path id="stroke-p9" style="stroke:#000" pathLength="3333" clip-path="url(#z28889c9)" d="M 496 685 L 743 658 L 775 696 L 709 817"/>
    <path id="stroke-p10" style="stroke:#000" pathLength="3333" clip-path="url(#z28889c10)" d="M 520 872 L 682 841 L 772 846"/>
</g>
</svg>