<svg id="z28891" class="acjk" viewBox="0 0 1024 1024" xmlns="http://www.w3.org/2000/svg">
<style>
<![CDATA[
svg.acjk path[clip-path] {
    animation-duration: 10.5s;
    animation-timing-function: linear;
    animation-iteration-count: infinite;
    stroke-dasharray: 3337;
    stroke-dashoffset: 3339;
    stroke-width: 128;
    stroke-linecap: round;
    fill: none;
    stroke: #FF4444;
}
svg.acjk .bg { fill: #ccc; opacity: 0.5; }

/* Stroke 1: Starts at 0.0%, finishes at 7.6%, holds until 76.2% */
@keyframes zk1 {
    0%, 0.0% { stroke-dashoffset: 3339; }
    7.6%, 76.2% { stroke-dashoffset: 0; }
    76.3%, 100% { stroke-dashoffset: 3339; }
}
svg.acjk #stroke-p1 { animation-name: zk1; }
/* Stroke 2: Starts at 7.6%, finishes at 15.2%, holds until 76.2% */
@keyframes zk2 {
    0%, 7.6% { stroke-dashoffset: 3339; }
    15.2%, 76.2% { stroke-dashoffset: 0; }
    76.3%, 100% { stroke-dashoffset: 3339; }
}
svg.acjk #stroke-p2 { animation-name: zk2; }
/* Stroke 3: Starts at 15.2%, finishes at 22.9%, holds until 76.2% */
@keyframes zk3 {
    0%, 15.2% { stroke-dashoffset: 3339; }
    22.9%, 76.2% { stroke-dashoffset: 0; }
    76.3%, 100% { stroke-dashoffset: 3339; }
}
svg.acjk #stroke-p3 { animation-name: zk3; }
/* Stroke 4: Starts at 22.9%, finishes at 30.5%, holds until 76.2% */
@keyframes zk4 {
    0%, 22.9% { stroke-dashoffset: 3339; }
    30.5%, 76.2% { stroke-dashoffset: 0; }
    76.3%, 100% { stroke-dashoffset: 3339; }
}
svg.acjk #stroke-p4 { animation-name: zk4; }
/* Stroke 5: Starts at 30.5%, finishes at 38.1%, holds until 76.2% */
@keyframes zk5 {
    0%, 30.5% { stroke-dashoffset: 3339; }
    38.1%, 76.2% { stroke-dashoffset: 0; }
    76.3%, 100% { stroke-dashoffset: 3339; }
}
svg.acjk #stroke-p5 { animation-name: zk5; }
/* Stroke 6: Starts at 38.1%, finishes at 45.7%, holds until 76.2% */
@keyframes zk6 {
    0%, 38.1% { stroke-dashoffset: 3339; }
    45.7%, 76.2% { stroke-dashoffset: 0; }
    76.3%, 100% { stroke-dashoffset: 3339; }
}
svg.acjk #stroke-p6 { animation-name: zk6; }
/* Stroke 7: Starts at 45.7%, finishes at 53.3%, holds until 76.2% */
@keyframes zk7 {
    0%, 45.7% { stroke-dashoffset: 3339; }
    53.3%, 76.2% { stroke-dashoffset: 0; }
    76.3%, 100% { stroke-dashoffset: 3339; }
}
svg.acjk #stroke-p7 { animation-name: zk7; }
/* Stroke 8: Starts at 53.3%, finishes at 61.0%, holds until 76.2% */
@keyframes zk8 {
    0%, 53.3% { stroke-dashoffset: 3339; }
    61.0%, 76.2% { stroke-dashoffset: 0; }
    76.3%, 100% { stroke-dashoffset: 3339; }
}
svg.acjk #stroke-p8 { animation-name: zk8; }
/* Stroke 9: Starts at 61.0%, finishes at 68.6%, holds until 76.2% */
@keyframes zk9 {
    0%, 61.0% { stroke-dashoffset: 3339; }
    68.6%, 76.2% { stroke-dashoffset: 0; }
    76.3%, 100% { stroke-dashoffset: 3339; }
}
svg.acjk #stroke-p9 { animation-name: zk9; }
/* Stroke 10: Starts at 68.6%, finishes at 76.2%, holds until 76.2% */
@keyframes zk10 {
    0%, 68.6% { stroke-dashoffset: 3339; }
    76.2%, 76.2% { stroke-dashoffset: 0; }
    76.3%, 100% { stroke-dashoffset: 3339; }
}
svg.acjk #stroke-p10 { animation-name: zk10; }
]]>
</style>
<defs>
    <path id="p1" d="M 130 307 Q 123 374 104 437 Q 100 449 103 464 Q 107 486 118 499 Q 130 514 146 496 Q 185 445 169 354 Q 165 323 152 301 Q 145 294 140 295 Q 133 298 130 307 Z"/>
    <path id="p2" d="M 294 384 Q 390 309 437 282 Q 467 273 426 234 Q 407 218 387 216 Q 372 216 374 235 Q 377 262 295 357 C 289 363 287 389 294 384 Z"/>
    <path id="p3" d="M 287 563 Q 290 467 294 384 C 295 366 295 366 295 357 Q 298 201 321 150 Q 328 134 316 123 Q 292 104 251 94 Q 224 87 216 95 Q 206 102 215 115 Q 275 211 236 578 Q 220 704 133 784 Q 81 823 80 829 Q 81 833 94 833 Q 106 836 137 821 Q 252 775 284 594 C 286 573 286 573 287 563 Z"/>
    <path id="p4" d="M 284 594 Q 290 595 362 664 Q 372 674 385 674 Q 392 674 397 663 Q 401 653 395 629 Q 391 607 358 589 Q 325 574 287 563 C 277 559 276 588 284 594 Z"/>
    <path id="p5" d="M 461 357 Q 446 350 419 348 Q 406 345 403 351 Q 396 358 406 374 Q 436 429 457 520 Q 461 547 479 565 Q 498 587 503 570 Q 506 561 506 549 C 506 538 507 527 503 517 Q 493 487 479 390 C 477 378 473 362 461 357 Z"/>
    <path id="p6" d="M 782 481 Q 809 397 843 371 Q 861 353 846 335 Q 771 275 710 305 Q 674 317 641 327 C 610 334 610 334 595 337 Q 531 347 461 357 C 449 359 467 392 479 390 Q 488 389 498 385 Q 544 375 596 367 C 625 362 625 362 640 359 Q 673 352 710 345 Q 737 338 747 350 Q 757 359 754 378 Q 745 427 733 470 C 728 486 776 497 782 481 Z"/>
    <path id="p7" d="M 638 528 Q 701 518 788 510 Q 798 509 800 500 Q 800 493 782 481 C 768 472 750 467 733 470 Q 721 470 639 492 C 610 498 610 498 596 501 Q 545 510 503 517 C 492 519 495 549 506 549 Q 516 550 527 548 Q 555 541 596 535 C 624 530 624 530 638 528 Z"/>
    <path id="p8" d="M 634 705 Q 635 614 638 528 C 639 504 639 504 639 492 Q 639 425 640 359 C 641 338 641 338 641 327 Q 641 246 663 136 Q 666 124 644 109 Q 607 90 580 86 Q 562 82 554 92 Q 547 101 555 116 Q 591 168 591 202 Q 594 268 595 337 C 596 357 596 357 596 367 Q 597 431 596 501 C 596 524 596 524 596 535 Q 595 622 590 716 C 590 731 634 720 634 705 Z"/>
    <path id="p9" d="M 762 673 Q 701 688 634 705 C 605 712 605 712 590 716 Q 521 731 447 747 Q 422 754 382 750 Q 369 751 366 761 Q 362 776 372 785 Q 394 804 429 827 Q 439 831 453 822 Q 502 792 741 712 Q 760 705 777 697 C 785 692 771 671 762 673 Z"/>
    <path id="p10" d="M 777 697 Q 846 821 852 826 Q 859 830 869 822 Q 885 813 884 768 Q 885 705 738 588 Q 731 581 726 592 Q 722 605 729 617 Q 745 642 762 673 C 772 689 772 689 777 697 Z"/>

    <clipPath id="z28891c1"><use href="#p1"/></clipPath>
    <clipPath id="z28891c2"><use href="#p2"/></clipPath>
    <clipPath id="z28891c3"><use href="#p3"/></clipPath>
    <clipPath id="z28891c4"><use href="#p4"/></clipPath>
    <clipPath id="z28891c5"><use href="#p5"/></clipPath>
    <clipPath id="z28891c6"><use href="#p6"/></clipPath>
    <clipPath id="z28891c7"><use href="#p7"/></clipPath>
    <clipPath id="z28891c8"><use href="#p8"/></clipPath>
    <clipPath id="z28891c9"><use href="#p9"/></clipPath>
    <clipPath id="z28891c10"><use href="#p10"/></clipPath>
</defs>
<g id="bg-layer" class="bg">
<use href="#p1"/>
<use href="#p2"/>
<use href="#p3"/>
<use href="#p4"/>
<use href="#p5"/>
<use href="#p6"/>
<use href="#p7"/>
<use href="#p8"/>
<use href="#p9"/>
<use href="#p10"/>
</g>
<g id="anim-layer">
    <path id="stroke-p1" style="stroke:#FF4444" pathLength="3333" clip-path="url(#z28891c1)" d="M 141 299 L 120 498"/>
    <path id="stroke-p2" style="stroke:#FF4444" pathLength="3333" clip-path="url(#z28891c2)" d="M 382 226 L 406 269 L 299 375"/>
    <path id="stroke-p3" style="stroke:#FF4444" pathLength="3333" clip-path="url(#z28891c3)" d="M 218 100 L 279 150 L 258 599 L 208 732 L 90 827"/>
    <path id="stroke-p4" style="stroke:#FF4444" pathLength="3333" clip-path="url(#z28891c4)" d="M 294 570 L 389 669"/>
    <path id="stroke-p5" style="stroke:#000" pathLength="3333" clip-path="url(#z28891c5)" d="M 409 357 L 453 406 L 493 571"/>
    <path id="stroke-p6" style="stroke:#000" pathLength="3333" clip-path="url(#z28891c6)" d="M 471 361 L 753 320 L 803 357 L 761 476"/>
    <path id="stroke-p7" style="stroke:#000" pathLength="3333" clip-path="url(#z28891c7)" d="M 515 542 L 727 493 L 795 500"/>
    <path id="stroke-p8" style="stroke:#000" pathLength="3333" clip-path="url(#z28891c8)" d="M 557 94 L 622 146 L 603 712"/>
    <path id="stroke-p9" style="stroke:#000" pathLength="3333" clip-path="url(#z28891c9)" d="M 370 764 L 443 787 L 769 684"/>
    <path id="stroke-p10" style="stroke:#000" pathLength="3333" clip-path="url(#z28891c10)" d="M 732 595 L 834 730 L 864 821"/>
</g>
</svg>