<svg id="z29135" class="acjk" viewBox="0 0 1024 1024" xmlns="http://www.w3.org/2000/svg">
<style>
<![CDATA[
svg.acjk path[clip-path] {
    animation-duration: 15.3s;
    animation-timing-function: linear;
    animation-iteration-count: infinite;
    stroke-dasharray: 3337;
    stroke-dashoffset: 3339;
    stroke-width: 128;
    stroke-linecap: round;
    fill: none;
    stroke: #FF4444;
}
svg.acjk .bg { fill: #ccc; opacity: 0.5; }

/* Stroke 1: Starts at 0.0%, finishes at 5.2%, holds until 83.7% */
@keyframes zk1 {
    0%, 0.0% { stroke-dashoffset: 3339; }
    5.2%, 83.7% { stroke-dashoffset: 0; }
    83.8%, 100% { stroke-dashoffset: 3339; }
}
svg.acjk #stroke-p1 { animation-name: zk1; }
/* Stroke 2: Starts at 5.2%, finishes at 10.5%, holds until 83.7% */
@keyframes zk2 {
    0%, 5.2% { stroke-dashoffset: 3339; }
    10.5%, 83.7% { stroke-dashoffset: 0; }
    83.8%, 100% { stroke-dashoffset: 3339; }
}
svg.acjk #stroke-p2 { animation-name: zk2; }
/* Stroke 3: Starts at 10.5%, finishes at 15.7%, holds until 83.7% */
@keyframes zk3 {
    0%, 10.5% { stroke-dashoffset: 3339; }
    15.7%, 83.7% { stroke-dashoffset: 0; }
    83.8%, 100% { stroke-dashoffset: 3339; }
}
svg.acjk #stroke-p3 { animation-name: zk3; }
/* Stroke 4: Starts at 15.7%, finishes at 20.9%, holds until 83.7% */
@keyframes zk4 {
    0%, 15.7% { stroke-dashoffset: 3339; }
    20.9%, 83.7% { stroke-dashoffset: 0; }
    83.8%, 100% { stroke-dashoffset: 3339; }
}
svg.acjk #stroke-p4 { animation-name: zk4; }
/* Stroke 5: Starts at 20.9%, finishes at 26.1%, holds until 83.7% */
@keyframes zk5 {
    0%, 20.9% { stroke-dashoffset: 3339; }
    26.1%, 83.7% { stroke-dashoffset: 0; }
    83.8%, 100% { stroke-dashoffset: 3339; }
}
svg.acjk #stroke-p5 { animation-name: zk5; }
/* Stroke 6: Starts at 26.1%, finishes at 31.4%, holds until 83.7% */
@keyframes zk6 {
    0%, 26.1% { stroke-dashoffset: 3339; }
    31.4%, 83.7% { stroke-dashoffset: 0; }
    83.8%, 100% { stroke-dashoffset: 3339; }
}
svg.acjk #stroke-p6 { animation-name: zk6; }
/* Stroke 7: Starts at 31.4%, finishes at 36.6%, holds until 83.7% */
@keyframes zk7 {
    0%, 31.4% { stroke-dashoffset: 3339; }
    36.6%, 83.7% { stroke-dashoffset: 0; }
    83.8%, 100% { stroke-dashoffset: 3339; }
}
svg.acjk #stroke-p7 { animation-name: zk7; }
/* Stroke 8: Starts at 36.6%, finishes at 41.8%, holds until 83.7% */
@keyframes zk8 {
    0%, 36.6% { stroke-dashoffset: 3339; }
    41.8%, 83.7% { stroke-dashoffset: 0; }
    83.8%, 100% { stroke-dashoffset: 3339; }
}
svg.acjk #stroke-p8 { animation-name: zk8; }
/* Stroke 9: Starts at 41.8%, finishes at 47.1%, holds until 83.7% */
@keyframes zk9 {
    0%, 41.8% { stroke-dashoffset: 3339; }
    47.1%, 83.7% { stroke-dashoffset: 0; }
    83.8%, 100% { stroke-dashoffset: 3339; }
}
svg.acjk #stroke-p9 { animation-name: zk9; }
/* Stroke 10: Starts at 47.1%, finishes at 52.3%, holds until 83.7% */
@keyframes zk10 {
    0%, 47.1% { stroke-dashoffset: 3339; }
    52.3%, 83.7% { stroke-dashoffset: 0; }
    83.8%, 100% { stroke-dashoffset: 3339; }
}
svg.acjk #stroke-p10 { animation-name: zk10; }
/* Stroke 11: Starts at 52.3%, finishes at 57.5%, holds until 83.7% */
@keyframes zk11 {
    0%, 52.3% { stroke-dashoffset: 3339; }
    57.5%, 83.7% { stroke-dashoffset: 0; }
    83.8%, 100% { stroke-dashoffset: 3339; }
}
svg.acjk #stroke-p11 { animation-name: zk11; }
/* Stroke 12: Starts at 57.5%, finishes at 62.7%, holds until 83.7% */
@keyframes zk12 {
    0%, 57.5% { stroke-dashoffset: 3339; }
    62.7%, 83.7% { stroke-dashoffset: 0; }
    83.8%, 100% { stroke-dashoffset: 3339; }
}
svg.acjk #stroke-p12 { animation-name: zk12; }
/* Stroke 13: Starts at 62.7%, finishes at 68.0%, holds until 83.7% */
@keyframes zk13 {
    0%, 62.7% { stroke-dashoffset: 3339; }
    68.0%, 83.7% { stroke-dashoffset: 0; }
    83.8%, 100% { stroke-dashoffset: 3339; }
}
svg.acjk #stroke-p13 { animation-name: zk13; }
/* Stroke 14: Starts at 68.0%, finishes at 73.2%, holds until 83.7% */
@keyframes zk14 {
    0%, 68.0% { stroke-dashoffset: 3339; }
    73.2%, 83.7% { stroke-dashoffset: 0; }
    83.8%, 100% { stroke-dashoffset: 3339; }
}
svg.acjk #stroke-p14 { animation-name: zk14; }
/* Stroke 15: Starts at 73.2%, finishes at 78.4%, holds until 83.7% */
@keyframes zk15 {
    0%, 73.2% { stroke-dashoffset: 3339; }
    78.4%, 83.7% { stroke-dashoffset: 0; }
    83.8%, 100% { stroke-dashoffset: 3339; }
}
svg.acjk #stroke-p15 { animation-name: zk15; }
/* Stroke 16: Starts at 78.4%, finishes at 83.7%, holds until 83.7% */
@keyframes zk16 {
    0%, 78.4% { stroke-dashoffset: 3339; }
    83.7%, 83.7% { stroke-dashoffset: 0; }
    83.8%, 100% { stroke-dashoffset: 3339; }
}
svg.acjk #stroke-p16 { animation-name: zk16; }
]]>
</style>
<defs>
    <path id="p1" d="M 103 352 Q 100 410 86 467 Q 82 506 106 528 Q 119 541 133 523 Q 169 469 145 396 Q 139 365 124 345 Q 117 339 112 340 Q 105 344 103 352 Z"/>
    <path id="p2" d="M 264 357 Q 268 356 272 355 Q 348 304 386 285 Q 402 282 398 272 Q 394 259 378 242 Q 362 226 343 224 Q 331 224 331 240 Q 332 261 264 340 C 260 344 258 358 264 357 Z"/>
    <path id="p3" d="M 251 614 Q 258 553 264 357 C 264 346 264 346 264 340 Q 265 237 287 175 Q 294 162 283 152 Q 262 136 226 125 Q 202 121 195 126 Q 186 133 194 144 Q 252 232 209 589 Q 190 695 138 762 Q 111 790 74 822 Q 64 829 64 834 Q 65 838 76 837 Q 88 840 117 825 Q 214 783 245 647 Q 246 643 246 638 C 249 622 249 622 251 614 Z"/>
    <path id="p4" d="M 246 638 Q 250 644 260 653 Q 285 678 311 709 Q 320 719 332 720 Q 341 721 345 711 Q 349 701 346 677 Q 342 649 261 616 Q 257 615 251 614 C 243 612 241 631 246 638 Z"/>
    <path id="p5" d="M 644 227 Q 737 167 774 160 Q 793 156 787 139 Q 786 124 727 88 Q 711 78 689 85 Q 629 107 539 131 Q 515 138 459 136 Q 437 135 445 154 Q 452 166 469 176 Q 496 191 531 172 Q 673 121 686 126 Q 696 130 693 142 Q 663 175 629 214 C 624 219 639 231 644 227 Z"/>
    <path id="p6" d="M 629 214 Q 626 208 582 198 Q 572 197 568 198 Q 564 201 566 209 Q 567 216 585 229 Q 603 242 621 261 Q 630 268 640 268 Q 647 268 650 260 Q 653 250 647 231 Q 646 228 644 227 C 634 218 634 218 629 214 Z"/>
    <path id="p7" d="M 631 308 C 667 300 704 293 740 287 C 758 283 770 285 771 294 C 771 304 756 329 732 370 C 726 378 727 384 731 387 C 735 389 740 387 749 381 C 798 342 833 322 854 314 C 869 307 877 303 876 294 C 875 287 853 271 810 249 C 796 242 759 248 701 264 C 627 282 529 299 408 317 C 391 319 389 326 402 340 C 412 352 430 353 458 345 C 490 336 525 330 555 324 C 606 313 606 313 631 308 Z"/>
    <path id="p8" d="M 607 313 C 621 343 622 369 623 406 C 623 418 620 432 617 435 C 609 439 593 437 553 434 C 548 433 544 434 541 436 C 538 437 541 439 550 445 C 578 464 600 484 621 498 C 630 504 640 501 648 492 C 666 468 673 427 665 371 C 661 346 651 326 631 308 C 625 302 604 305 607 313 Z"/>
    <path id="p9" d="M 555 324 C 519 374 473 419 417 459 C 408 465 408 468 416 470 C 422 470 435 466 456 459 C 474 452 518 426 534 411 C 561 386 575 368 607 312 C 616 297 566 310 555 324 Z"/>
    <path id="p10" d="M 441 536 Q 414 523 397 523 Q 384 527 390 539 Q 429 623 395 773 Q 380 818 381 827 Q 381 851 400 876 Q 407 888 416 883 Q 446 862 449 765 Q 453 617 456 576 C 456 562 454 541 441 536 Z"/>
    <path id="p11" d="M 456 576 C 500 561 589 543 724 522 C 738 519 750 522 758 530 C 764 532 767 546 769 570 C 775 652 777 739 774 833 C 774 845 771 854 766 859 C 757 865 730 864 685 854 C 674 852 669 854 670 861 C 670 865 675 870 684 874 C 724 904 755 930 776 952 C 790 964 801 970 810 969 C 818 967 825 956 833 938 C 843 907 848 870 847 827 C 838 722 833 651 832 613 C 832 587 836 566 844 550 C 852 536 852 525 846 517 C 839 507 820 494 788 479 C 775 472 762 470 750 474 C 638 512 551 520 441 536 C 427 538 443 581 456 576 Z"/>
    <path id="p12" d="M 532 586 Q 538 601 511 638 Q 498 656 481 676 Q 475 680 474 684 Q 471 690 479 689 Q 501 689 559 633 Q 566 624 573 621 Q 579 617 577 608 Q 576 601 562 587 Q 549 575 540 574 Q 530 574 532 586 Z"/>
    <path id="p13" d="M 653 591 Q 683 613 720 648 Q 730 658 739 660 Q 745 661 748 654 Q 755 647 745 621 Q 738 599 695 585 Q 667 576 652 573 Q 646 570 646 577 Q 646 584 653 591 Z"/>
    <path id="p14" d="M 546 700 Q 539 696 517 693 Q 508 690 506 694 Q 502 698 508 710 Q 524 743 536 797 Q 537 813 548 823 Q 561 839 565 828 Q 568 821 567 807 C 565 790 565 790 564 781 Q 558 738 558 722 C 558 714 554 703 546 700 Z"/>
    <path id="p15" d="M 696 766 Q 709 730 723 721 Q 742 702 724 690 Q 709 680 688 666 Q 676 657 630 680 Q 579 693 546 700 C 538 701 551 726 558 722 Q 567 716 636 704 Q 658 700 663 708 Q 667 711 663 728 Q 659 743 655 761 C 652 775 691 779 696 766 Z"/>
    <path id="p16" d="M 567 807 Q 574 808 586 806 Q 623 799 706 792 Q 715 791 716 784 Q 716 778 696 766 C 684 759 669 758 655 761 C 654 761 654 761 654 761 Q 605 774 564 781 C 555 782 558 807 567 807 Z"/>

    <clipPath id="z29135c1"><use href="#p1"/></clipPath>
    <clipPath id="z29135c2"><use href="#p2"/></clipPath>
    <clipPath id="z29135c3"><use href="#p3"/></clipPath>
    <clipPath id="z29135c4"><use href="#p4"/></clipPath>
    <clipPath id="z29135c5"><use href="#p5"/></clipPath>
    <clipPath id="z29135c6"><use href="#p6"/></clipPath>
    <clipPath id="z29135c7"><use href="#p7"/></clipPath>
    <clipPath id="z29135c8"><use href="#p8"/></clipPath>
    <clipPath id="z29135c9"><use href="#p9"/></clipPath>
    <clipPath id="z29135c10"><use href="#p10"/></clipPath>
    <clipPath id="z29135c11"><use href="#p11"/></clipPath>
    <clipPath id="z29135c12"><use href="#p12"/></clipPath>
    <clipPath id="z29135c13"><use href="#p13"/></clipPath>
    <clipPath id="z29135c14"><use href="#p14"/></clipPath>
    <clipPath id="z29135c15"><use href="#p15"/></clipPath>
    <clipPath id="z29135c16"><use href="#p16"/></clipPath>
</defs>
<g id="bg-layer" class="bg">
<use href="#p1"/>
<use href="#p2"/>
<use href="#p3"/>
<use href="#p4"/>
<use href="#p5"/>
<use href="#p6"/>
<use href="#p7"/>
<use href="#p8"/>
<use href="#p9"/>
<use href="#p10"/>
<use href="#p11"/>
<use href="#p12"/>
<use href="#p13"/>
<use href="#p14"/>
<use href="#p15"/>
<use href="#p16"/>
</g>
<g id="anim-layer">
    <path id="stroke-p1" style="stroke:#FF4444" pathLength="3333" clip-path="url(#z29135c1)" d="M 113 346 L 111 526"/>
    <path id="stroke-p2" style="stroke:#FF4444" pathLength="3333" clip-path="url(#z29135c2)" d="M 342 227 L 360 270 L 265 349"/>
    <path id="stroke-p3" style="stroke:#FF4444" pathLength="3333" clip-path="url(#z29135c3)" d="M 197 133 L 251 182 L 229 606 L 178 746 L 72 830"/>
    <path id="stroke-p4" style="stroke:#FF4444" pathLength="3333" clip-path="url(#z29135c4)" d="M 249 623 L 340 712"/>
    <path id="stroke-p5" style="stroke:#000" pathLength="3333" clip-path="url(#z29135c5)" d="M 451 146 L 503 159 L 704 106 L 733 157 L 637 220"/>
    <path id="stroke-p6" style="stroke:#000" pathLength="3333" clip-path="url(#z29135c6)" d="M 571 202 L 639 264"/>
    <path id="stroke-p7" style="stroke:#000" pathLength="3333" clip-path="url(#z29135c7)" d="M 398 326 L 774 266 L 822 307 L 736 381"/>
    <path id="stroke-p8" style="stroke:#000" pathLength="3333" clip-path="url(#z29135c8)" d="M 615 312 L 643 367 L 639 451 L 622 469 L 549 438"/>
    <path id="stroke-p9" style="stroke:#000" pathLength="3333" clip-path="url(#z29135c9)" d="M 600 311 L 503 412 L 418 465"/>
    <path id="stroke-p10" style="stroke:#000" pathLength="3333" clip-path="url(#z29135c10)" d="M 396 531 L 427 561 L 432 631 L 406 877"/>
    <path id="stroke-p11" style="stroke:#000" pathLength="3333" clip-path="url(#z29135c11)" d="M 442 544 L 741 498 L 806 531 L 802 891 L 785 920 L 676 860"/>
    <path id="stroke-p12" style="stroke:#000" pathLength="3333" clip-path="url(#z29135c12)" d="M 539 581 L 550 616 L 481 682"/>
    <path id="stroke-p13" style="stroke:#000" pathLength="3333" clip-path="url(#z29135c13)" d="M 653 578 L 745 652"/>
    <path id="stroke-p14" style="stroke:#000" pathLength="3333" clip-path="url(#z29135c14)" d="M 510 697 L 539 729 L 555 828"/>
    <path id="stroke-p15" style="stroke:#000" pathLength="3333" clip-path="url(#z29135c15)" d="M 550 707 L 675 687 L 698 712 L 668 770"/>
    <path id="stroke-p16" style="stroke:#000" pathLength="3333" clip-path="url(#z29135c16)" d="M 560 791 L 710 782"/>
</g>
</svg>