<svg id="z29233" class="acjk" viewBox="0 0 1024 1024" xmlns="http://www.w3.org/2000/svg">
<style>
<![CDATA[
svg.acjk path[clip-path] {
    animation-duration: 10.5s;
    animation-timing-function: linear;
    animation-iteration-count: infinite;
    stroke-dasharray: 3337;
    stroke-dashoffset: 3339;
    stroke-width: 128;
    stroke-linecap: round;
    fill: none;
    stroke: #FF4444;
}
svg.acjk .bg { fill: #ccc; opacity: 0.5; }

/* Stroke 1: Starts at 0.0%, finishes at 7.6%, holds until 76.2% */
@keyframes zk1 {
    0%, 0.0% { stroke-dashoffset: 3339; }
    7.6%, 76.2% { stroke-dashoffset: 0; }
    76.3%, 100% { stroke-dashoffset: 3339; }
}
svg.acjk #stroke-p1 { animation-name: zk1; }
/* Stroke 2: Starts at 7.6%, finishes at 15.2%, holds until 76.2% */
@keyframes zk2 {
    0%, 7.6% { stroke-dashoffset: 3339; }
    15.2%, 76.2% { stroke-dashoffset: 0; }
    76.3%, 100% { stroke-dashoffset: 3339; }
}
svg.acjk #stroke-p2 { animation-name: zk2; }
/* Stroke 3: Starts at 15.2%, finishes at 22.9%, holds until 76.2% */
@keyframes zk3 {
    0%, 15.2% { stroke-dashoffset: 3339; }
    22.9%, 76.2% { stroke-dashoffset: 0; }
    76.3%, 100% { stroke-dashoffset: 3339; }
}
svg.acjk #stroke-p3 { animation-name: zk3; }
/* Stroke 4: Starts at 22.9%, finishes at 30.5%, holds until 76.2% */
@keyframes zk4 {
    0%, 22.9% { stroke-dashoffset: 3339; }
    30.5%, 76.2% { stroke-dashoffset: 0; }
    76.3%, 100% { stroke-dashoffset: 3339; }
}
svg.acjk #stroke-p4 { animation-name: zk4; }
/* Stroke 5: Starts at 30.5%, finishes at 38.1%, holds until 76.2% */
@keyframes zk5 {
    0%, 30.5% { stroke-dashoffset: 3339; }
    38.1%, 76.2% { stroke-dashoffset: 0; }
    76.3%, 100% { stroke-dashoffset: 3339; }
}
svg.acjk #stroke-p5 { animation-name: zk5; }
/* Stroke 6: Starts at 38.1%, finishes at 45.7%, holds until 76.2% */
@keyframes zk6 {
    0%, 38.1% { stroke-dashoffset: 3339; }
    45.7%, 76.2% { stroke-dashoffset: 0; }
    76.3%, 100% { stroke-dashoffset: 3339; }
}
svg.acjk #stroke-p6 { animation-name: zk6; }
/* Stroke 7: Starts at 45.7%, finishes at 53.3%, holds until 76.2% */
@keyframes zk7 {
    0%, 45.7% { stroke-dashoffset: 3339; }
    53.3%, 76.2% { stroke-dashoffset: 0; }
    76.3%, 100% { stroke-dashoffset: 3339; }
}
svg.acjk #stroke-p7 { animation-name: zk7; }
/* Stroke 8: Starts at 53.3%, finishes at 61.0%, holds until 76.2% */
@keyframes zk8 {
    0%, 53.3% { stroke-dashoffset: 3339; }
    61.0%, 76.2% { stroke-dashoffset: 0; }
    76.3%, 100% { stroke-dashoffset: 3339; }
}
svg.acjk #stroke-p8 { animation-name: zk8; }
/* Stroke 9: Starts at 61.0%, finishes at 68.6%, holds until 76.2% */
@keyframes zk9 {
    0%, 61.0% { stroke-dashoffset: 3339; }
    68.6%, 76.2% { stroke-dashoffset: 0; }
    76.3%, 100% { stroke-dashoffset: 3339; }
}
svg.acjk #stroke-p9 { animation-name: zk9; }
/* Stroke 10: Starts at 68.6%, finishes at 76.2%, holds until 76.2% */
@keyframes zk10 {
    0%, 68.6% { stroke-dashoffset: 3339; }
    76.2%, 76.2% { stroke-dashoffset: 0; }
    76.3%, 100% { stroke-dashoffset: 3339; }
}
svg.acjk #stroke-p10 { animation-name: zk10; }
]]>
</style>
<defs>
    <path id="p1" d="M 334 172 C 327 174 328 182 334 184 C 348 189 386 183 491 160 C 526 152 546 146 607 133 C 635 126 638 114 627 100 C 614 85 592 70 575 62 C 560 56 533 45 533 68 C 531 107 381 153 334 172 Z"/>
    <path id="p2" d="M 319 266 C 332 279 344 295 358 312 C 364 320 372 325 382 326 C 388 326 393 322 397 315 C 400 306 401 293 398 276 C 394 259 367 242 319 224 C 310 220 303 219 300 221 C 296 222 294 228 295 236 C 295 242 305 252 319 266 Z"/>
    <path id="p3" d="M 448 224 C 470 269 490 295 508 300 C 516 302 525 298 531 286 C 534 277 533 265 529 252 C 525 241 515 232 502 224 C 481 210 466 201 457 198 C 451 195 447 198 445 206 C 443 212 444 217 448 224 Z"/>
    <path id="p4" d="M 641 199 C 636 206 613 238 574 295 C 566 305 570 311 580 307 C 611 290 644 265 679 236 C 690 226 701 218 715 212 C 727 205 730 196 723 187 C 715 176 703 168 688 161 C 673 154 662 152 656 153 C 648 154 646 158 649 167 C 652 177 648 187 641 199 Z"/>
    <path id="p5" d="M 246 389 C 246 374 237 360 221 348 C 208 338 198 341 199 360 C 200 380 193 408 166 441 C 145 466 132 484 135 498 C 138 520 144 537 151 549 C 161 567 173 567 187 548 C 198 531 208 510 217 485 C 224 460 232 439 239 423 C 244 400 244 400 246 389 Z"/>
    <path id="p6" d="M 464 384 C 628 356 725 340 755 349 C 765 352 768 358 768 363 C 767 365 754 390 730 438 C 716 464 733 460 753 449 C 791 425 825 410 856 403 C 882 396 894 390 894 384 C 893 377 869 356 823 320 C 806 306 774 308 725 316 C 538 345 412 363 246 389 C 235 391 228 419 239 423 C 253 429 268 430 284 426 C 330 411 377 398 428 390 C 452 386 452 386 464 384 Z"/>
    <path id="p7" d="M 460 517 C 486 511 554 497 666 482 C 672 481 681 479 685 470 C 687 462 676 457 663 449 C 641 435 612 435 569 449 C 541 457 513 463 484 470 C 434 481 434 481 409 486 C 368 494 324 498 288 503 C 269 505 267 512 282 524 C 303 540 315 545 336 541 C 352 537 373 534 391 531 C 437 522 437 522 460 517 Z"/>
    <path id="p8" d="M 419 599 C 434 568 447 545 460 517 C 476 486 476 486 484 470 C 490 455 504 447 502 432 C 496 420 483 404 464 384 C 455 375 428 378 428 390 C 431 425 423 456 409 486 C 397 516 397 516 391 531 C 329 661 249 757 151 841 C 126 858 143 864 162 858 C 254 810 343 720 403 627 C 414 608 414 608 419 599 Z"/>
    <path id="p9" d="M 570 769 C 590 743 606 710 620 673 C 627 651 637 635 651 625 C 661 616 661 606 651 596 C 638 583 622 572 602 563 C 588 556 573 555 560 563 C 535 577 453 593 419 599 C 408 601 392 625 403 627 C 417 631 435 630 458 625 C 488 618 519 614 551 607 C 562 604 567 607 568 621 C 568 656 558 698 529 739 C 521 749 514 760 506 770 C 435 845 335 862 266 883 C 235 891 273 901 294 900 C 387 893 474 870 542 803 C 552 792 560 780 570 769 Z"/>
    <path id="p10" d="M 542 803 C 634 887 691 934 723 932 C 777 927 827 919 872 909 C 894 903 904 898 903 892 C 902 889 890 884 866 879 C 745 851 671 831 645 817 C 628 808 603 793 570 769 C 543 749 543 749 529 739 C 510 725 493 710 476 695 C 450 672 426 662 404 664 C 393 664 386 666 385 670 C 383 674 388 680 399 686 C 422 697 457 725 506 770 C 530 792 530 792 542 803 Z"/>

    <clipPath id="z29233c1"><use href="#p1"/></clipPath>
    <clipPath id="z29233c2"><use href="#p2"/></clipPath>
    <clipPath id="z29233c3"><use href="#p3"/></clipPath>
    <clipPath id="z29233c4"><use href="#p4"/></clipPath>
    <clipPath id="z29233c5"><use href="#p5"/></clipPath>
    <clipPath id="z29233c6"><use href="#p6"/></clipPath>
    <clipPath id="z29233c7"><use href="#p7"/></clipPath>
    <clipPath id="z29233c8"><use href="#p8"/></clipPath>
    <clipPath id="z29233c9"><use href="#p9"/></clipPath>
    <clipPath id="z29233c10"><use href="#p10"/></clipPath>
</defs>
<g id="bg-layer" class="bg">
<use href="#p1"/>
<use href="#p2"/>
<use href="#p3"/>
<use href="#p4"/>
<use href="#p5"/>
<use href="#p6"/>
<use href="#p7"/>
<use href="#p8"/>
<use href="#p9"/>
<use href="#p10"/>
</g>
<g id="anim-layer">
    <path id="stroke-p1" style="stroke:#FF4444" pathLength="3333" clip-path="url(#z29233c1)" d="M 542 61 L 570 115 L 336 178"/>
    <path id="stroke-p2" style="stroke:#FF4444" pathLength="3333" clip-path="url(#z29233c2)" d="M 303 230 L 388 319"/>
    <path id="stroke-p3" style="stroke:#FF4444" pathLength="3333" clip-path="url(#z29233c3)" d="M 452 206 L 525 291"/>
    <path id="stroke-p4" style="stroke:#FF4444" pathLength="3333" clip-path="url(#z29233c4)" d="M 655 158 L 683 199 L 578 302"/>
    <path id="stroke-p5" style="stroke:#000" pathLength="3333" clip-path="url(#z29233c5)" d="M 209 348 L 219 394 L 162 557"/>
    <path id="stroke-p6" style="stroke:#000" pathLength="3333" clip-path="url(#z29233c6)" d="M 240 415 L 761 329 L 811 354 L 840 391 L 731 451"/>
    <path id="stroke-p7" style="stroke:#000" pathLength="3333" clip-path="url(#z29233c7)" d="M 283 514 L 677 468"/>
    <path id="stroke-p8" style="stroke:#000" pathLength="3333" clip-path="url(#z29233c8)" d="M 435 387 L 462 443 L 383 606 L 289 734 L 148 852"/>
    <path id="stroke-p9" style="stroke:#000" pathLength="3333" clip-path="url(#z29233c9)" d="M 404 620 L 580 584 L 612 622 L 568 725 L 453 839 L 262 890"/>
    <path id="stroke-p10" style="stroke:#000" pathLength="3333" clip-path="url(#z29233c10)" d="M 397 674 L 697 879 L 893 893"/>
</g>
</svg>