<svg id="z29247" class="acjk" viewBox="0 0 1024 1024" xmlns="http://www.w3.org/2000/svg">
<style>
<![CDATA[
svg.acjk path[clip-path] {
    animation-duration: 5.7s;
    animation-timing-function: linear;
    animation-iteration-count: infinite;
    stroke-dasharray: 3337;
    stroke-dashoffset: 3339;
    stroke-width: 128;
    stroke-linecap: round;
    fill: none;
    stroke: #FF4444;
}
svg.acjk .bg { fill: #ccc; opacity: 0.5; }

/* Stroke 1: Starts at 0.0%, finishes at 14.0%, holds until 56.1% */
@keyframes zk1 {
    0%, 0.0% { stroke-dashoffset: 3339; }
    14.0%, 56.1% { stroke-dashoffset: 0; }
    56.2%, 100% { stroke-dashoffset: 3339; }
}
svg.acjk #stroke-p1 { animation-name: zk1; }
/* Stroke 2: Starts at 14.0%, finishes at 28.1%, holds until 56.1% */
@keyframes zk2 {
    0%, 14.0% { stroke-dashoffset: 3339; }
    28.1%, 56.1% { stroke-dashoffset: 0; }
    56.2%, 100% { stroke-dashoffset: 3339; }
}
svg.acjk #stroke-p2 { animation-name: zk2; }
/* Stroke 3: Starts at 28.1%, finishes at 42.1%, holds until 56.1% */
@keyframes zk3 {
    0%, 28.1% { stroke-dashoffset: 3339; }
    42.1%, 56.1% { stroke-dashoffset: 0; }
    56.2%, 100% { stroke-dashoffset: 3339; }
}
svg.acjk #stroke-p3 { animation-name: zk3; }
/* Stroke 4: Starts at 42.1%, finishes at 56.1%, holds until 56.1% */
@keyframes zk4 {
    0%, 42.1% { stroke-dashoffset: 3339; }
    56.1%, 56.1% { stroke-dashoffset: 0; }
    56.2%, 100% { stroke-dashoffset: 3339; }
}
svg.acjk #stroke-p4 { animation-name: zk4; }
]]>
</style>
<defs>
    <path id="p1" d="M 652 333 Q 546 343 465 366 Q 443 370 449 345 Q 456 290 463 231 Q 467 204 457 188 Q 441 169 414 153 Q 401 146 390 149 Q 378 153 386 175 Q 413 238 402 300 Q 395 358 369 385 Q 348 404 357 420 Q 370 436 388 449 Q 403 458 416 447 Q 447 411 594 382 Q 634 375 646 378 Q 647 377 652 377 C 666 374 667 333 652 333 Z"/>
    <path id="p2" d="M 650 542 Q 650 723 633 802 Q 611 874 640 934 Q 641 938 644 944 Q 651 963 660 967 Q 667 974 675 965 Q 705 944 704 875 Q 703 821 705 333 Q 704 231 723 163 Q 733 147 729 131 Q 722 121 659 84 Q 634 65 610 83 Q 604 89 612 105 Q 646 156 648 206 Q 649 266 652 333 C 652 362 652 362 652 377 Q 651 435 650 498 C 650 527 650 527 650 542 Z"/>
    <path id="p3" d="M 474 571 Q 550 553 650 542 C 664 539 664 501 650 498 Q 634 494 618 497 Q 336 557 222 566 Q 209 567 205 576 Q 201 588 218 600 Q 257 627 314 614 Q 371 595 421 584 C 456 575 456 575 474 571 Z"/>
    <path id="p4" d="M 421 584 Q 443 722 258 905 Q 251 914 258 916 Q 291 920 369 853 Q 441 793 489 659 Q 498 637 509 617 Q 516 605 510 595 Q 503 585 474 571 C 458 562 417 566 421 584 Z"/>

    <clipPath id="z29247c1"><use href="#p1"/></clipPath>
    <clipPath id="z29247c2"><use href="#p2"/></clipPath>
    <clipPath id="z29247c3"><use href="#p3"/></clipPath>
    <clipPath id="z29247c4"><use href="#p4"/></clipPath>
</defs>
<g id="bg-layer" class="bg">
<use href="#p1"/>
<use href="#p2"/>
<use href="#p3"/>
<use href="#p4"/>
</g>
<g id="anim-layer">
    <path id="stroke-p1" style="stroke:#FF4444" pathLength="3333" clip-path="url(#z29247c1)" d="M 389 157 L 433 220 L 405 388 L 423 408 L 651 354"/>
    <path id="stroke-p2" style="stroke:#000" pathLength="3333" clip-path="url(#z29247c2)" d="M 614 85 L 685 152 L 666 965"/>
    <path id="stroke-p3" style="stroke:#000" pathLength="3333" clip-path="url(#z29247c3)" d="M 209 580 L 285 589 L 649 515"/>
    <path id="stroke-p4" style="stroke:#000" pathLength="3333" clip-path="url(#z29247c4)" d="M 427 590 L 467 625 L 419 742 L 357 831 L 261 908"/>
</g>
</svg>