<svg id="z29322" class="acjk" viewBox="0 0 1024 1024" xmlns="http://www.w3.org/2000/svg">
<style>
<![CDATA[
svg.acjk path[clip-path] {
    animation-duration: 12.100000000000001s;
    animation-timing-function: linear;
    animation-iteration-count: infinite;
    stroke-dasharray: 3337;
    stroke-dashoffset: 3339;
    stroke-width: 128;
    stroke-linecap: round;
    fill: none;
    stroke: #FF4444;
}
svg.acjk .bg { fill: #ccc; opacity: 0.5; }

/* Stroke 1: Starts at 0.0%, finishes at 6.6%, holds until 79.3% */
@keyframes zk1 {
    0%, 0.0% { stroke-dashoffset: 3339; }
    6.6%, 79.3% { stroke-dashoffset: 0; }
    79.4%, 100% { stroke-dashoffset: 3339; }
}
svg.acjk #stroke-p1 { animation-name: zk1; }
/* Stroke 2: Starts at 6.6%, finishes at 13.2%, holds until 79.3% */
@keyframes zk2 {
    0%, 6.6% { stroke-dashoffset: 3339; }
    13.2%, 79.3% { stroke-dashoffset: 0; }
    79.4%, 100% { stroke-dashoffset: 3339; }
}
svg.acjk #stroke-p2 { animation-name: zk2; }
/* Stroke 3: Starts at 13.2%, finishes at 19.8%, holds until 79.3% */
@keyframes zk3 {
    0%, 13.2% { stroke-dashoffset: 3339; }
    19.8%, 79.3% { stroke-dashoffset: 0; }
    79.4%, 100% { stroke-dashoffset: 3339; }
}
svg.acjk #stroke-p3 { animation-name: zk3; }
/* Stroke 4: Starts at 19.8%, finishes at 26.4%, holds until 79.3% */
@keyframes zk4 {
    0%, 19.8% { stroke-dashoffset: 3339; }
    26.4%, 79.3% { stroke-dashoffset: 0; }
    79.4%, 100% { stroke-dashoffset: 3339; }
}
svg.acjk #stroke-p4 { animation-name: zk4; }
/* Stroke 5: Starts at 26.4%, finishes at 33.1%, holds until 79.3% */
@keyframes zk5 {
    0%, 26.4% { stroke-dashoffset: 3339; }
    33.1%, 79.3% { stroke-dashoffset: 0; }
    79.4%, 100% { stroke-dashoffset: 3339; }
}
svg.acjk #stroke-p5 { animation-name: zk5; }
/* Stroke 6: Starts at 33.1%, finishes at 39.7%, holds until 79.3% */
@keyframes zk6 {
    0%, 33.1% { stroke-dashoffset: 3339; }
    39.7%, 79.3% { stroke-dashoffset: 0; }
    79.4%, 100% { stroke-dashoffset: 3339; }
}
svg.acjk #stroke-p6 { animation-name: zk6; }
/* Stroke 7: Starts at 39.7%, finishes at 46.3%, holds until 79.3% */
@keyframes zk7 {
    0%, 39.7% { stroke-dashoffset: 3339; }
    46.3%, 79.3% { stroke-dashoffset: 0; }
    79.4%, 100% { stroke-dashoffset: 3339; }
}
svg.acjk #stroke-p7 { animation-name: zk7; }
/* Stroke 8: Starts at 46.3%, finishes at 52.9%, holds until 79.3% */
@keyframes zk8 {
    0%, 46.3% { stroke-dashoffset: 3339; }
    52.9%, 79.3% { stroke-dashoffset: 0; }
    79.4%, 100% { stroke-dashoffset: 3339; }
}
svg.acjk #stroke-p8 { animation-name: zk8; }
/* Stroke 9: Starts at 52.9%, finishes at 59.5%, holds until 79.3% */
@keyframes zk9 {
    0%, 52.9% { stroke-dashoffset: 3339; }
    59.5%, 79.3% { stroke-dashoffset: 0; }
    79.4%, 100% { stroke-dashoffset: 3339; }
}
svg.acjk #stroke-p9 { animation-name: zk9; }
/* Stroke 10: Starts at 59.5%, finishes at 66.1%, holds until 79.3% */
@keyframes zk10 {
    0%, 59.5% { stroke-dashoffset: 3339; }
    66.1%, 79.3% { stroke-dashoffset: 0; }
    79.4%, 100% { stroke-dashoffset: 3339; }
}
svg.acjk #stroke-p10 { animation-name: zk10; }
/* Stroke 11: Starts at 66.1%, finishes at 72.7%, holds until 79.3% */
@keyframes zk11 {
    0%, 66.1% { stroke-dashoffset: 3339; }
    72.7%, 79.3% { stroke-dashoffset: 0; }
    79.4%, 100% { stroke-dashoffset: 3339; }
}
svg.acjk #stroke-p11 { animation-name: zk11; }
/* Stroke 12: Starts at 72.7%, finishes at 79.3%, holds until 79.3% */
@keyframes zk12 {
    0%, 72.7% { stroke-dashoffset: 3339; }
    79.3%, 79.3% { stroke-dashoffset: 0; }
    79.4%, 100% { stroke-dashoffset: 3339; }
}
svg.acjk #stroke-p12 { animation-name: zk12; }
]]>
</style>
<defs>
    <path id="p1" d="M 220 392 Q 224 377 258 311 Q 265 298 251 286 Q 208 261 185 268 Q 175 272 179 284 Q 203 368 124 483 Q 105 508 95 525 Q 91 540 103 533 Q 118 529 137 510 Q 180 467 207 418 C 216 401 216 401 220 392 Z"/>
    <path id="p2" d="M 359 397 Q 377 390 397 385 Q 422 378 425 374 Q 432 365 428 358 Q 421 348 393 344 Q 375 343 359 347 C 328 360 328 360 312 366 Q 296 370 282 376 Q 252 385 220 392 C 210 394 197 416 207 418 Q 249 431 291 416 Q 301 413 312 410 C 343 401 343 401 359 397 Z"/>
    <path id="p3" d="M 308 607 Q 308 715 284 800 Q 272 842 299 902 Q 306 920 314 923 Q 320 930 328 921 Q 335 917 346 896 Q 356 871 355 839 Q 354 805 356 572 C 357 552 357 552 357 542 Q 357 476 359 397 C 359 364 359 364 359 347 Q 359 346 360 346 Q 361 255 379 192 Q 388 177 385 163 Q 378 153 322 119 Q 298 103 277 118 Q 273 122 278 138 Q 309 184 310 231 Q 311 294 312 366 C 312 395 312 395 312 410 Q 311 486 308 568 C 308 594 308 594 308 607 Z"/>
    <path id="p4" d="M 308 568 Q 220 614 142 660 Q 108 679 86 684 Q 74 690 72 697 Q 71 706 84 720 Q 103 735 124 743 Q 139 747 150 736 Q 205 679 308 607 C 340 584 340 584 356 572 Q 410 529 412 528 Q 419 515 409 516 Q 399 516 357 542 C 324 559 324 559 308 568 Z"/>
    <path id="p5" d="M 616 231 Q 613 230 612 231 Q 563 241 505 246 Q 471 252 495 267 Q 529 288 594 274 Q 604 271 616 271 C 646 265 646 265 661 262 Q 775 238 783 234 Q 790 227 787 219 Q 780 209 754 201 Q 723 195 666 217 C 650 223 633 231 616 231 Z"/>
    <path id="p6" d="M 666 217 Q 667 174 685 124 Q 688 114 671 101 Q 640 85 619 80 Q 606 76 598 84 Q 591 90 598 104 Q 613 126 614 141 Q 615 184 616 231 C 616 258 616 258 616 271 Q 615 311 614 356 C 614 369 652 362 652 349 Q 656 304 661 262 C 664 232 664 232 666 217 Z"/>
    <path id="p7" d="M 614 356 Q 571 362 520 372 Q 480 379 439 385 Q 411 388 429 403 Q 457 425 486 417 Q 594 378 754 360 Q 802 351 803 368 Q 803 369 767 432 Q 760 442 765 448 Q 771 452 786 443 Q 837 415 878 407 Q 912 400 912 391 Q 911 382 850 333 Q 829 315 759 330 Q 704 336 652 349 C 627 354 627 354 614 356 Z"/>
    <path id="p8" d="M 488 482 Q 530 533 552 531 Q 564 532 568 516 Q 568 506 559 489 Q 543 467 490 460 Q 483 459 482 469 Q 481 476 488 482 Z"/>
    <path id="p9" d="M 472 570 Q 518 624 540 623 Q 552 624 556 608 Q 557 598 548 581 Q 527 554 474 548 Q 467 547 466 557 Q 465 564 472 570 Z"/>
    <path id="p10" d="M 657 684 Q 711 672 841 658 Q 851 659 861 646 Q 862 634 839 624 Q 806 600 711 631 Q 687 635 665 642 C 631 649 631 649 614 653 Q 553 662 420 679 Q 392 683 414 700 Q 445 727 475 719 Q 533 706 606 693 C 640 687 640 687 657 684 Z"/>
    <path id="p11" d="M 665 642 Q 683 501 692 484 Q 696 474 689 466 Q 673 450 640 436 Q 621 426 605 431 Q 586 438 601 454 Q 626 482 625 510 Q 625 595 614 653 C 609 680 609 680 606 693 Q 582 783 492 849 Q 467 864 433 883 Q 421 887 418 891 Q 414 895 428 898 Q 467 902 552 855 Q 621 813 657 684 C 662 656 662 656 665 642 Z"/>
    <path id="p12" d="M 705 762 Q 757 810 818 878 Q 834 897 849 902 Q 858 903 865 893 Q 877 880 865 837 Q 855 785 706 732 Q 697 726 695 739 Q 694 752 705 762 Z"/>

    <clipPath id="z29322c1"><use href="#p1"/></clipPath>
    <clipPath id="z29322c2"><use href="#p2"/></clipPath>
    <clipPath id="z29322c3"><use href="#p3"/></clipPath>
    <clipPath id="z29322c4"><use href="#p4"/></clipPath>
    <clipPath id="z29322c5"><use href="#p5"/></clipPath>
    <clipPath id="z29322c6"><use href="#p6"/></clipPath>
    <clipPath id="z29322c7"><use href="#p7"/></clipPath>
    <clipPath id="z29322c8"><use href="#p8"/></clipPath>
    <clipPath id="z29322c9"><use href="#p9"/></clipPath>
    <clipPath id="z29322c10"><use href="#p10"/></clipPath>
    <clipPath id="z29322c11"><use href="#p11"/></clipPath>
    <clipPath id="z29322c12"><use href="#p12"/></clipPath>
</defs>
<g id="bg-layer" class="bg">
<use href="#p1"/>
<use href="#p2"/>
<use href="#p3"/>
<use href="#p4"/>
<use href="#p5"/>
<use href="#p6"/>
<use href="#p7"/>
<use href="#p8"/>
<use href="#p9"/>
<use href="#p10"/>
<use href="#p11"/>
<use href="#p12"/>
</g>
<g id="anim-layer">
    <path id="stroke-p1" style="stroke:#FF4444" pathLength="3333" clip-path="url(#z29322c1)" d="M 184 272 L 222 310 L 207 360 L 102 526"/>
    <path id="stroke-p2" style="stroke:#FF4444" pathLength="3333" clip-path="url(#z29322c2)" d="M 217 414 L 425 367"/>
    <path id="stroke-p3" style="stroke:#FF4444" pathLength="3333" clip-path="url(#z29322c3)" d="M 281 122 L 345 181 L 322 919"/>
    <path id="stroke-p4" style="stroke:#FF4444" pathLength="3333" clip-path="url(#z29322c4)" d="M 78 700 L 133 705 L 407 523"/>
    <path id="stroke-p5" style="stroke:#000" pathLength="3333" clip-path="url(#z29322c5)" d="M 494 255 L 781 223"/>
    <path id="stroke-p6" style="stroke:#000" pathLength="3333" clip-path="url(#z29322c6)" d="M 602 92 L 649 127 L 631 352"/>
    <path id="stroke-p7" style="stroke:#000" pathLength="3333" clip-path="url(#z29322c7)" d="M 430 393 L 793 340 L 824 346 L 858 390 L 770 442"/>
    <path id="stroke-p8" style="stroke:#000" pathLength="3333" clip-path="url(#z29322c8)" d="M 489 467 L 558 525"/>
    <path id="stroke-p9" style="stroke:#000" pathLength="3333" clip-path="url(#z29322c9)" d="M 476 560 L 549 615"/>
    <path id="stroke-p10" style="stroke:#000" pathLength="3333" clip-path="url(#z29322c10)" d="M 413 688 L 464 697 L 855 638"/>
    <path id="stroke-p11" style="stroke:#000" pathLength="3333" clip-path="url(#z29322c11)" d="M 601 441 L 658 486 L 624 713 L 555 825 L 424 892"/>
    <path id="stroke-p12" style="stroke:#000" pathLength="3333" clip-path="url(#z29322c12)" d="M 702 737 L 817 826 L 858 894"/>
</g>
</svg>