<svg id="z29436" class="acjk" viewBox="0 0 1024 1024" xmlns="http://www.w3.org/2000/svg">
<style>
<![CDATA[
svg.acjk path[clip-path] {
    animation-duration: 10.5s;
    animation-timing-function: linear;
    animation-iteration-count: infinite;
    stroke-dasharray: 3337;
    stroke-dashoffset: 3339;
    stroke-width: 128;
    stroke-linecap: round;
    fill: none;
    stroke: #FF4444;
}
svg.acjk .bg { fill: #ccc; opacity: 0.5; }

/* Stroke 1: Starts at 0.0%, finishes at 7.6%, holds until 76.2% */
@keyframes zk1 {
    0%, 0.0% { stroke-dashoffset: 3339; }
    7.6%, 76.2% { stroke-dashoffset: 0; }
    76.3%, 100% { stroke-dashoffset: 3339; }
}
svg.acjk #stroke-p1 { animation-name: zk1; }
/* Stroke 2: Starts at 7.6%, finishes at 15.2%, holds until 76.2% */
@keyframes zk2 {
    0%, 7.6% { stroke-dashoffset: 3339; }
    15.2%, 76.2% { stroke-dashoffset: 0; }
    76.3%, 100% { stroke-dashoffset: 3339; }
}
svg.acjk #stroke-p2 { animation-name: zk2; }
/* Stroke 3: Starts at 15.2%, finishes at 22.9%, holds until 76.2% */
@keyframes zk3 {
    0%, 15.2% { stroke-dashoffset: 3339; }
    22.9%, 76.2% { stroke-dashoffset: 0; }
    76.3%, 100% { stroke-dashoffset: 3339; }
}
svg.acjk #stroke-p3 { animation-name: zk3; }
/* Stroke 4: Starts at 22.9%, finishes at 30.5%, holds until 76.2% */
@keyframes zk4 {
    0%, 22.9% { stroke-dashoffset: 3339; }
    30.5%, 76.2% { stroke-dashoffset: 0; }
    76.3%, 100% { stroke-dashoffset: 3339; }
}
svg.acjk #stroke-p4 { animation-name: zk4; }
/* Stroke 5: Starts at 30.5%, finishes at 38.1%, holds until 76.2% */
@keyframes zk5 {
    0%, 30.5% { stroke-dashoffset: 3339; }
    38.1%, 76.2% { stroke-dashoffset: 0; }
    76.3%, 100% { stroke-dashoffset: 3339; }
}
svg.acjk #stroke-p5 { animation-name: zk5; }
/* Stroke 6: Starts at 38.1%, finishes at 45.7%, holds until 76.2% */
@keyframes zk6 {
    0%, 38.1% { stroke-dashoffset: 3339; }
    45.7%, 76.2% { stroke-dashoffset: 0; }
    76.3%, 100% { stroke-dashoffset: 3339; }
}
svg.acjk #stroke-p6 { animation-name: zk6; }
/* Stroke 7: Starts at 45.7%, finishes at 53.3%, holds until 76.2% */
@keyframes zk7 {
    0%, 45.7% { stroke-dashoffset: 3339; }
    53.3%, 76.2% { stroke-dashoffset: 0; }
    76.3%, 100% { stroke-dashoffset: 3339; }
}
svg.acjk #stroke-p7 { animation-name: zk7; }
/* Stroke 8: Starts at 53.3%, finishes at 61.0%, holds until 76.2% */
@keyframes zk8 {
    0%, 53.3% { stroke-dashoffset: 3339; }
    61.0%, 76.2% { stroke-dashoffset: 0; }
    76.3%, 100% { stroke-dashoffset: 3339; }
}
svg.acjk #stroke-p8 { animation-name: zk8; }
/* Stroke 9: Starts at 61.0%, finishes at 68.6%, holds until 76.2% */
@keyframes zk9 {
    0%, 61.0% { stroke-dashoffset: 3339; }
    68.6%, 76.2% { stroke-dashoffset: 0; }
    76.3%, 100% { stroke-dashoffset: 3339; }
}
svg.acjk #stroke-p9 { animation-name: zk9; }
/* Stroke 10: Starts at 68.6%, finishes at 76.2%, holds until 76.2% */
@keyframes zk10 {
    0%, 68.6% { stroke-dashoffset: 3339; }
    76.2%, 76.2% { stroke-dashoffset: 0; }
    76.3%, 100% { stroke-dashoffset: 3339; }
}
svg.acjk #stroke-p10 { animation-name: zk10; }
]]>
</style>
<defs>
    <path id="p1" d="M 307 332 C 334 301 379 235 411 199 C 419 189 419 179 410 169 C 381 140 359 128 342 130 C 334 130 330 136 331 146 C 331 190 320 238 277 293 C 255 320 255 320 244 334 C 215 369 188 392 160 417 C 134 439 111 453 99 468 C 91 477 94 480 105 479 C 120 477 139 469 163 456 C 201 434 258 386 272 371 C 295 345 295 345 307 332 Z"/>
    <path id="p2" d="M 313 526 C 317 586 319 674 295 767 C 292 777 284 807 272 812 C 264 814 248 816 226 811 C 204 806 193 803 190 808 C 187 812 188 818 197 827 C 218 850 238 871 252 892 C 264 910 273 918 279 918 C 283 918 292 914 303 903 C 352 851 374 736 366 560 C 361 461 348 412 307 332 C 299 317 288 304 277 293 C 246 260 211 234 162 213 C 150 208 145 209 143 217 C 140 226 141 239 147 252 C 153 265 163 272 175 276 C 197 283 223 308 244 334 C 250 341 260 354 272 371 C 284 388 290 407 298 438 C 305 466 310 496 313 526 Z"/>
    <path id="p3" d="M 298 438 C 268 511 188 626 82 721 C 73 728 73 733 80 735 C 85 736 92 736 101 733 C 167 704 234 643 298 548 C 303 539 307 532 313 526 C 334 505 309 410 298 438 Z"/>
    <path id="p4" d="M 584 106 C 600 118 617 133 637 149 C 646 157 658 160 669 159 C 676 157 682 153 685 144 C 687 133 684 116 676 97 C 668 77 634 65 575 56 C 564 54 556 53 552 57 C 549 59 547 64 550 75 C 551 80 564 91 584 106 Z"/>
    <path id="p5" d="M 679 487 C 691 503 702 512 713 519 C 719 523 729 521 740 505 C 751 486 765 425 788 323 C 792 300 804 281 821 264 C 829 255 829 245 822 236 C 810 223 790 209 760 192 C 729 175 715 189 671 200 C 631 211 577 227 511 244 C 499 246 517 280 529 276 C 567 264 620 250 691 236 C 705 233 715 234 720 239 C 730 249 734 261 732 273 C 716 369 702 424 696 440 C 692 448 686 454 676 456 C 666 460 673 479 679 487 Z"/>
    <path id="p6" d="M 526 391 C 526 391 569 382 657 364 C 671 360 676 353 670 347 C 662 337 650 333 634 332 C 613 330 579 341 526 367 C 519 370 518 393 526 391 Z"/>
    <path id="p7" d="M 556 506 C 574 503 629 492 679 487 C 689 485 685 461 676 456 C 665 448 642 449 624 455 C 591 465 564 473 526 482 C 517 484 517 512 526 510 C 536 508 546 507 556 506 Z"/>
    <path id="p8" d="M 511 244 C 499 234 487 225 477 222 C 464 216 455 217 450 221 C 443 225 443 231 449 243 C 482 304 493 488 474 761 C 471 792 459 825 435 859 C 427 869 427 881 432 896 C 438 913 445 926 456 933 C 463 938 473 935 480 924 C 490 905 540 853 634 772 C 645 762 653 756 656 750 C 658 743 656 740 650 740 C 641 740 601 760 532 803 C 525 807 519 806 520 799 C 523 698 526 614 526 522 C 526 495 526 495 526 482 C 526 451 526 405 526 391 C 526 375 526 375 526 367 C 526 335 525 304 529 276 C 531 264 521 251 511 244 Z"/>
    <path id="p9" d="M 703 646 C 734 628 774 601 806 583 C 820 574 833 566 848 560 C 861 554 865 544 859 535 C 851 522 838 513 823 503 C 807 493 797 490 789 491 C 781 491 779 495 781 505 C 783 522 765 551 732 586 C 717 601 700 620 688 633 C 683 638 698 650 703 646 Z"/>
    <path id="p10" d="M 688 633 C 661 610 618 568 556 506 C 539 489 509 503 526 520 C 543 534 556 549 566 561 C 705 727 783 821 808 824 C 857 829 908 817 959 805 C 969 802 977 799 981 794 C 984 789 980 785 974 783 C 873 750 792 713 732 669 C 722 661 712 653 703 646 C 693 637 693 637 688 633 Z"/>

    <clipPath id="z29436c1"><use href="#p1"/></clipPath>
    <clipPath id="z29436c2"><use href="#p2"/></clipPath>
    <clipPath id="z29436c3"><use href="#p3"/></clipPath>
    <clipPath id="z29436c4"><use href="#p4"/></clipPath>
    <clipPath id="z29436c5"><use href="#p5"/></clipPath>
    <clipPath id="z29436c6"><use href="#p6"/></clipPath>
    <clipPath id="z29436c7"><use href="#p7"/></clipPath>
    <clipPath id="z29436c8"><use href="#p8"/></clipPath>
    <clipPath id="z29436c9"><use href="#p9"/></clipPath>
    <clipPath id="z29436c10"><use href="#p10"/></clipPath>
</defs>
<g id="bg-layer" class="bg">
<use href="#p1"/>
<use href="#p2"/>
<use href="#p3"/>
<use href="#p4"/>
<use href="#p5"/>
<use href="#p6"/>
<use href="#p7"/>
<use href="#p8"/>
<use href="#p9"/>
<use href="#p10"/>
</g>
<g id="anim-layer">
    <path id="stroke-p1" style="stroke:#FF4444" pathLength="3333" clip-path="url(#z29436c1)" d="M 342 134 L 371 186 L 291 314 L 103 473"/>
    <path id="stroke-p2" style="stroke:#FF4444" pathLength="3333" clip-path="url(#z29436c2)" d="M 150 216 L 290 355 L 339 542 L 336 705 L 301 840 L 267 866 L 195 816"/>
    <path id="stroke-p3" style="stroke:#FF4444" pathLength="3333" clip-path="url(#z29436c3)" d="M 297 449 L 289 514 L 234 596 L 84 728"/>
    <path id="stroke-p4" style="stroke:#000" pathLength="3333" clip-path="url(#z29436c4)" d="M 557 62 L 646 112 L 672 156"/>
    <path id="stroke-p5" style="stroke:#000" pathLength="3333" clip-path="url(#z29436c5)" d="M 520 245 L 708 213 L 771 243 L 723 460 L 708 484 L 681 481"/>
    <path id="stroke-p6" style="stroke:#000" pathLength="3333" clip-path="url(#z29436c6)" d="M 528 382 L 668 347"/>
    <path id="stroke-p7" style="stroke:#000" pathLength="3333" clip-path="url(#z29436c7)" d="M 531 504 L 677 474"/>
    <path id="stroke-p8" style="stroke:#000" pathLength="3333" clip-path="url(#z29436c8)" d="M 452 228 L 497 282 L 503 397 L 496 798 L 470 860 L 487 885 L 650 749"/>
    <path id="stroke-p9" style="stroke:#000" pathLength="3333" clip-path="url(#z29436c9)" d="M 789 499 L 814 545 L 695 636"/>
    <path id="stroke-p10" style="stroke:#000" pathLength="3333" clip-path="url(#z29436c10)" d="M 534 520 L 818 774 L 973 790"/>
</g>
</svg>