<svg id="z29470" class="acjk" viewBox="0 0 1024 1024" xmlns="http://www.w3.org/2000/svg">
<style>
<![CDATA[
svg.acjk path[clip-path] {
    animation-duration: 11.3s;
    animation-timing-function: linear;
    animation-iteration-count: infinite;
    stroke-dasharray: 3337;
    stroke-dashoffset: 3339;
    stroke-width: 128;
    stroke-linecap: round;
    fill: none;
    stroke: #FF4444;
}
svg.acjk .bg { fill: #ccc; opacity: 0.5; }

/* Stroke 1: Starts at 0.0%, finishes at 7.1%, holds until 77.9% */
@keyframes zk1 {
    0%, 0.0% { stroke-dashoffset: 3339; }
    7.1%, 77.9% { stroke-dashoffset: 0; }
    78.0%, 100% { stroke-dashoffset: 3339; }
}
svg.acjk #stroke-p1 { animation-name: zk1; }
/* Stroke 2: Starts at 7.1%, finishes at 14.2%, holds until 77.9% */
@keyframes zk2 {
    0%, 7.1% { stroke-dashoffset: 3339; }
    14.2%, 77.9% { stroke-dashoffset: 0; }
    78.0%, 100% { stroke-dashoffset: 3339; }
}
svg.acjk #stroke-p2 { animation-name: zk2; }
/* Stroke 3: Starts at 14.2%, finishes at 21.2%, holds until 77.9% */
@keyframes zk3 {
    0%, 14.2% { stroke-dashoffset: 3339; }
    21.2%, 77.9% { stroke-dashoffset: 0; }
    78.0%, 100% { stroke-dashoffset: 3339; }
}
svg.acjk #stroke-p3 { animation-name: zk3; }
/* Stroke 4: Starts at 21.2%, finishes at 28.3%, holds until 77.9% */
@keyframes zk4 {
    0%, 21.2% { stroke-dashoffset: 3339; }
    28.3%, 77.9% { stroke-dashoffset: 0; }
    78.0%, 100% { stroke-dashoffset: 3339; }
}
svg.acjk #stroke-p4 { animation-name: zk4; }
/* Stroke 5: Starts at 28.3%, finishes at 35.4%, holds until 77.9% */
@keyframes zk5 {
    0%, 28.3% { stroke-dashoffset: 3339; }
    35.4%, 77.9% { stroke-dashoffset: 0; }
    78.0%, 100% { stroke-dashoffset: 3339; }
}
svg.acjk #stroke-p5 { animation-name: zk5; }
/* Stroke 6: Starts at 35.4%, finishes at 42.5%, holds until 77.9% */
@keyframes zk6 {
    0%, 35.4% { stroke-dashoffset: 3339; }
    42.5%, 77.9% { stroke-dashoffset: 0; }
    78.0%, 100% { stroke-dashoffset: 3339; }
}
svg.acjk #stroke-p6 { animation-name: zk6; }
/* Stroke 7: Starts at 42.5%, finishes at 49.6%, holds until 77.9% */
@keyframes zk7 {
    0%, 42.5% { stroke-dashoffset: 3339; }
    49.6%, 77.9% { stroke-dashoffset: 0; }
    78.0%, 100% { stroke-dashoffset: 3339; }
}
svg.acjk #stroke-p7 { animation-name: zk7; }
/* Stroke 8: Starts at 49.6%, finishes at 56.6%, holds until 77.9% */
@keyframes zk8 {
    0%, 49.6% { stroke-dashoffset: 3339; }
    56.6%, 77.9% { stroke-dashoffset: 0; }
    78.0%, 100% { stroke-dashoffset: 3339; }
}
svg.acjk #stroke-p8 { animation-name: zk8; }
/* Stroke 9: Starts at 56.6%, finishes at 63.7%, holds until 77.9% */
@keyframes zk9 {
    0%, 56.6% { stroke-dashoffset: 3339; }
    63.7%, 77.9% { stroke-dashoffset: 0; }
    78.0%, 100% { stroke-dashoffset: 3339; }
}
svg.acjk #stroke-p9 { animation-name: zk9; }
/* Stroke 10: Starts at 63.7%, finishes at 70.8%, holds until 77.9% */
@keyframes zk10 {
    0%, 63.7% { stroke-dashoffset: 3339; }
    70.8%, 77.9% { stroke-dashoffset: 0; }
    78.0%, 100% { stroke-dashoffset: 3339; }
}
svg.acjk #stroke-p10 { animation-name: zk10; }
/* Stroke 11: Starts at 70.8%, finishes at 77.9%, holds until 77.9% */
@keyframes zk11 {
    0%, 70.8% { stroke-dashoffset: 3339; }
    77.9%, 77.9% { stroke-dashoffset: 0; }
    78.0%, 100% { stroke-dashoffset: 3339; }
}
svg.acjk #stroke-p11 { animation-name: zk11; }
]]>
</style>
<defs>
    <path id="p1" d="M 291 295 Q 300 285 309 273 Q 346 227 381 188 Q 393 178 380 161 Q 344 122 318 122 Q 306 123 307 137 Q 306 197 265 252 C 245 277 245 277 235 290 Q 232 293 229 297 Q 195 342 150 373 Q 113 400 95 416 Q 85 429 100 428 Q 157 425 257 331 C 280 307 280 307 291 295 Z"/>
    <path id="p2" d="M 290 498 Q 302 657 267 769 Q 261 784 253 785 Q 237 786 195 770 Q 167 758 162 764 Q 158 770 167 782 Q 207 819 234 854 Q 253 882 263 881 Q 270 882 286 866 Q 337 797 339 591 Q 339 438 306 334 Q 299 312 291 295 C 274 266 274 266 265 252 Q 223 198 156 171 Q 143 164 139 175 Q 136 188 143 206 Q 152 225 169 228 Q 199 237 235 290 C 250 317 250 317 257 331 Q 269 361 280 416 C 287 471 287 471 290 498 Z"/>
    <path id="p3" d="M 280 416 Q 223 530 64 690 Q 57 699 69 702 Q 88 706 189 618 Q 237 576 290 498 C 304 474 292 391 280 416 Z"/>
    <path id="p4" d="M 609 187 Q 612 174 626 161 Q 633 155 630 146 Q 629 136 615 126 Q 582 99 551 108 Q 542 111 546 122 Q 564 191 464 333 Q 461 334 460 338 Q 432 378 356 457 Q 349 461 359 464 Q 419 452 521 329 Q 522 325 526 322 Q 556 282 597 209 C 601 202 607 195 609 187 Z"/>
    <path id="p5" d="M 597 209 Q 675 317 778 429 Q 796 448 824 446 Q 923 440 954 434 Q 963 431 964 427 Q 964 423 951 416 Q 806 367 743 310 Q 680 256 609 187 C 603 181 592 202 597 209 Z"/>
    <path id="p6" d="M 585 438 Q 628 426 677 416 Q 704 409 708 406 Q 715 399 711 391 Q 704 381 677 374 Q 649 370 623 381 Q 593 391 561 401 Q 525 408 483 414 Q 450 420 474 435 Q 504 450 546 447 C 572 441 572 441 585 438 Z"/>
    <path id="p7" d="M 599 561 Q 681 548 806 548 Q 824 547 828 539 Q 832 529 817 517 Q 768 481 706 500 Q 663 510 602 523 C 569 529 569 529 552 532 Q 473 544 382 560 Q 363 563 378 577 Q 391 589 407 593 Q 426 597 441 593 Q 493 577 551 569 C 583 564 583 564 599 561 Z"/>
    <path id="p8" d="M 590 647 Q 594 601 599 561 C 601 536 601 536 602 523 Q 606 460 607 459 C 606 458 606 458 606 458 Q 596 446 585 438 C 574 430 541 435 546 447 Q 553 454 552 532 C 551 557 551 557 551 569 Q 550 603 549 655 C 549 669 590 661 590 647 Z"/>
    <path id="p9" d="M 464 667 Q 454 663 434 659 Q 422 656 419 661 Q 412 667 420 682 Q 448 742 462 840 Q 465 868 481 889 Q 497 910 503 895 Q 509 879 506 850 C 503 827 503 827 501 816 Q 488 725 485 698 C 483 686 476 672 464 667 Z"/>
    <path id="p10" d="M 724 790 Q 751 715 784 694 Q 802 676 787 658 Q 709 595 661 624 Q 624 636 590 647 C 563 652 563 652 549 655 Q 506 661 464 667 C 452 669 473 700 485 698 Q 495 697 507 693 Q 586 680 662 665 Q 681 661 690 669 Q 702 684 670 787 C 663 804 717 807 724 790 Z"/>
    <path id="p11" d="M 506 850 Q 512 851 523 849 Q 592 836 739 826 Q 749 825 751 817 Q 751 808 724 790 C 709 781 688 783 670 787 Q 576 806 501 816 C 490 818 495 850 506 850 Z"/>

    <clipPath id="z29470c1"><use href="#p1"/></clipPath>
    <clipPath id="z29470c2"><use href="#p2"/></clipPath>
    <clipPath id="z29470c3"><use href="#p3"/></clipPath>
    <clipPath id="z29470c4"><use href="#p4"/></clipPath>
    <clipPath id="z29470c5"><use href="#p5"/></clipPath>
    <clipPath id="z29470c6"><use href="#p6"/></clipPath>
    <clipPath id="z29470c7"><use href="#p7"/></clipPath>
    <clipPath id="z29470c8"><use href="#p8"/></clipPath>
    <clipPath id="z29470c9"><use href="#p9"/></clipPath>
    <clipPath id="z29470c10"><use href="#p10"/></clipPath>
    <clipPath id="z29470c11"><use href="#p11"/></clipPath>
</defs>
<g id="bg-layer" class="bg">
<use href="#p1"/>
<use href="#p2"/>
<use href="#p3"/>
<use href="#p4"/>
<use href="#p5"/>
<use href="#p6"/>
<use href="#p7"/>
<use href="#p8"/>
<use href="#p9"/>
<use href="#p10"/>
<use href="#p11"/>
</g>
<g id="anim-layer">
    <path id="stroke-p1" style="stroke:#FF4444" pathLength="3333" clip-path="url(#z29470c1)" d="M 314 127 L 344 175 L 303 241 L 215 343 L 101 423"/>
    <path id="stroke-p2" style="stroke:#FF4444" pathLength="3333" clip-path="url(#z29470c2)" d="M 147 173 L 236 253 L 279 324 L 316 570 L 284 804 L 257 833 L 167 772"/>
    <path id="stroke-p3" style="stroke:#FF4444" pathLength="3333" clip-path="url(#z29470c3)" d="M 278 427 L 265 490 L 223 548 L 70 694"/>
    <path id="stroke-p4" style="stroke:#000" pathLength="3333" clip-path="url(#z29470c4)" d="M 552 115 L 588 160 L 530 275 L 445 387 L 358 458"/>
    <path id="stroke-p5" style="stroke:#000" pathLength="3333" clip-path="url(#z29470c5)" d="M 609 194 L 804 399 L 956 427"/>
    <path id="stroke-p6" style="stroke:#000" pathLength="3333" clip-path="url(#z29470c6)" d="M 471 422 L 706 390"/>
    <path id="stroke-p7" style="stroke:#000" pathLength="3333" clip-path="url(#z29470c7)" d="M 382 572 L 718 523 L 824 533"/>
    <path id="stroke-p8" style="stroke:#000" pathLength="3333" clip-path="url(#z29470c8)" d="M 554 455 L 579 485 L 565 651"/>
    <path id="stroke-p9" style="stroke:#000" pathLength="3333" clip-path="url(#z29470c9)" d="M 423 668 L 459 707 L 495 894"/>
    <path id="stroke-p10" style="stroke:#000" pathLength="3333" clip-path="url(#z29470c10)" d="M 472 669 L 705 643 L 743 681 L 686 787"/>
    <path id="stroke-p11" style="stroke:#000" pathLength="3333" clip-path="url(#z29470c11)" d="M 509 822 L 744 817"/>
</g>
</svg>