<svg id="z29609" class="acjk" viewBox="0 0 1024 1024" xmlns="http://www.w3.org/2000/svg">
<style>
<![CDATA[
svg.acjk path[clip-path] {
    animation-duration: 8.9s;
    animation-timing-function: linear;
    animation-iteration-count: infinite;
    stroke-dasharray: 3337;
    stroke-dashoffset: 3339;
    stroke-width: 128;
    stroke-linecap: round;
    fill: none;
    stroke: #FF4444;
}
svg.acjk .bg { fill: #ccc; opacity: 0.5; }

/* Stroke 1: Starts at 0.0%, finishes at 9.0%, holds until 71.9% */
@keyframes zk1 {
    0%, 0.0% { stroke-dashoffset: 3339; }
    9.0%, 71.9% { stroke-dashoffset: 0; }
    72.0%, 100% { stroke-dashoffset: 3339; }
}
svg.acjk #stroke-p1 { animation-name: zk1; }
/* Stroke 2: Starts at 9.0%, finishes at 18.0%, holds until 71.9% */
@keyframes zk2 {
    0%, 9.0% { stroke-dashoffset: 3339; }
    18.0%, 71.9% { stroke-dashoffset: 0; }
    72.0%, 100% { stroke-dashoffset: 3339; }
}
svg.acjk #stroke-p2 { animation-name: zk2; }
/* Stroke 3: Starts at 18.0%, finishes at 27.0%, holds until 71.9% */
@keyframes zk3 {
    0%, 18.0% { stroke-dashoffset: 3339; }
    27.0%, 71.9% { stroke-dashoffset: 0; }
    72.0%, 100% { stroke-dashoffset: 3339; }
}
svg.acjk #stroke-p3 { animation-name: zk3; }
/* Stroke 4: Starts at 27.0%, finishes at 36.0%, holds until 71.9% */
@keyframes zk4 {
    0%, 27.0% { stroke-dashoffset: 3339; }
    36.0%, 71.9% { stroke-dashoffset: 0; }
    72.0%, 100% { stroke-dashoffset: 3339; }
}
svg.acjk #stroke-p4 { animation-name: zk4; }
/* Stroke 5: Starts at 36.0%, finishes at 44.9%, holds until 71.9% */
@keyframes zk5 {
    0%, 36.0% { stroke-dashoffset: 3339; }
    44.9%, 71.9% { stroke-dashoffset: 0; }
    72.0%, 100% { stroke-dashoffset: 3339; }
}
svg.acjk #stroke-p5 { animation-name: zk5; }
/* Stroke 6: Starts at 44.9%, finishes at 53.9%, holds until 71.9% */
@keyframes zk6 {
    0%, 44.9% { stroke-dashoffset: 3339; }
    53.9%, 71.9% { stroke-dashoffset: 0; }
    72.0%, 100% { stroke-dashoffset: 3339; }
}
svg.acjk #stroke-p6 { animation-name: zk6; }
/* Stroke 7: Starts at 53.9%, finishes at 62.9%, holds until 71.9% */
@keyframes zk7 {
    0%, 53.9% { stroke-dashoffset: 3339; }
    62.9%, 71.9% { stroke-dashoffset: 0; }
    72.0%, 100% { stroke-dashoffset: 3339; }
}
svg.acjk #stroke-p7 { animation-name: zk7; }
/* Stroke 8: Starts at 62.9%, finishes at 71.9%, holds until 71.9% */
@keyframes zk8 {
    0%, 62.9% { stroke-dashoffset: 3339; }
    71.9%, 71.9% { stroke-dashoffset: 0; }
    72.0%, 100% { stroke-dashoffset: 3339; }
}
svg.acjk #stroke-p8 { animation-name: zk8; }
]]>
</style>
<defs>
    <path id="p1" d="M 289 255 C 375 229 417 209 419 208 C 425 201 425 195 421 189 C 414 180 400 175 378 173 C 355 171 333 176 311 188 C 292 197 247 214 174 232 C 146 238 144 251 166 260 C 188 269 217 276 248 267 C 275 259 275 259 289 255 Z"/>
    <path id="p2" d="M 307 453 C 323 447 340 440 359 433 C 375 426 385 421 387 419 C 391 413 392 407 389 403 C 383 396 370 391 351 390 C 336 388 322 390 310 397 C 277 414 277 414 261 422 C 246 429 167 452 163 454 C 140 461 137 471 157 478 C 181 487 216 485 260 470 C 291 459 291 459 307 453 Z"/>
    <path id="p3" d="M 299 634 C 301 569 304 509 307 453 C 309 416 309 416 310 397 C 312 351 312 319 316 304 C 319 291 320 282 314 276 C 305 267 297 260 289 255 C 277 248 243 254 248 267 C 258 293 262 344 261 422 C 260 454 260 454 260 470 C 259 516 256 577 255 652 C 255 668 299 650 299 634 Z"/>
    <path id="p4" d="M 255 652 C 220 666 189 677 151 692 C 140 696 124 698 105 701 C 96 702 91 707 91 714 C 90 722 93 729 101 734 C 116 743 136 753 159 763 C 165 765 173 763 181 756 C 202 736 224 718 249 705 C 286 684 324 662 361 640 C 375 631 387 621 398 613 C 405 606 411 600 409 595 C 406 590 398 591 391 594 C 360 605 330 621 299 634 C 270 646 270 646 255 652 Z"/>
    <path id="p5" d="M 510 201 C 483 208 480 219 502 228 C 533 241 573 238 621 223 C 657 211 695 199 735 186 C 753 179 764 174 767 172 C 773 165 773 159 769 153 C 762 144 748 139 726 137 C 706 135 668 149 611 172 C 568 188 533 194 510 201 Z"/>
    <path id="p6" d="M 650 395 C 670 390 732 382 837 371 C 848 369 856 366 859 360 C 861 353 858 345 846 338 C 808 316 772 314 737 326 C 646 354 545 379 433 406 C 420 409 418 416 430 425 C 449 440 474 442 503 433 C 535 422 571 411 611 403 C 637 398 637 398 650 395 Z"/>
    <path id="p7" d="M 496 472 C 506 584 430 705 272 835 C 266 839 266 843 271 845 C 275 847 281 846 288 843 C 381 800 459 734 509 637 C 545 564 561 519 570 508 C 574 501 575 495 572 490 C 567 483 555 474 537 464 C 523 456 512 452 507 454 C 498 456 495 462 496 472 Z"/>
    <path id="p8" d="M 978 758 C 969 737 959 695 952 632 C 950 621 949 613 945 610 C 941 607 937 612 934 624 C 912 690 894 734 880 754 C 874 762 861 770 841 775 C 797 785 753 784 714 766 C 681 750 665 708 665 648 C 664 587 671 517 683 440 C 685 427 682 417 675 411 C 668 405 660 399 650 395 C 638 390 606 391 611 403 C 621 437 627 467 626 491 C 615 666 623 758 653 795 C 667 812 689 828 718 836 C 788 855 896 853 970 800 C 983 790 985 776 978 758 Z"/>

    <clipPath id="z29609c1"><use href="#p1"/></clipPath>
    <clipPath id="z29609c2"><use href="#p2"/></clipPath>
    <clipPath id="z29609c3"><use href="#p3"/></clipPath>
    <clipPath id="z29609c4"><use href="#p4"/></clipPath>
    <clipPath id="z29609c5"><use href="#p5"/></clipPath>
    <clipPath id="z29609c6"><use href="#p6"/></clipPath>
    <clipPath id="z29609c7"><use href="#p7"/></clipPath>
    <clipPath id="z29609c8"><use href="#p8"/></clipPath>
</defs>
<g id="bg-layer" class="bg">
<use href="#p1"/>
<use href="#p2"/>
<use href="#p3"/>
<use href="#p4"/>
<use href="#p5"/>
<use href="#p6"/>
<use href="#p7"/>
<use href="#p8"/>
</g>
<g id="anim-layer">
    <path id="stroke-p1" style="stroke:#FF4444" pathLength="3333" clip-path="url(#z29609c1)" d="M 157 247 L 420 195"/>
    <path id="stroke-p2" style="stroke:#FF4444" pathLength="3333" clip-path="url(#z29609c2)" d="M 149 468 L 384 415"/>
    <path id="stroke-p3" style="stroke:#FF4444" pathLength="3333" clip-path="url(#z29609c3)" d="M 255 270 L 288 301 L 269 646"/>
    <path id="stroke-p4" style="stroke:#FF4444" pathLength="3333" clip-path="url(#z29609c4)" d="M 95 712 L 158 728 L 402 600"/>
    <path id="stroke-p5" style="stroke:#000" pathLength="3333" clip-path="url(#z29609c5)" d="M 494 214 L 767 163"/>
    <path id="stroke-p6" style="stroke:#000" pathLength="3333" clip-path="url(#z29609c6)" d="M 430 413 L 762 349 L 854 350"/>
    <path id="stroke-p7" style="stroke:#000" pathLength="3333" clip-path="url(#z29609c7)" d="M 505 463 L 535 505 L 465 664 L 373 770 L 274 839"/>
    <path id="stroke-p8" style="stroke:#000" pathLength="3333" clip-path="url(#z29609c8)" d="M 618 409 L 653 439 L 645 669 L 690 786 L 792 815 L 911 786 L 935 762 L 944 615"/>
</g>
</svg>