<svg id="z29611" class="acjk" viewBox="0 0 1024 1024" xmlns="http://www.w3.org/2000/svg">
<style>
<![CDATA[
svg.acjk path[clip-path] {
    animation-duration: 8.9s;
    animation-timing-function: linear;
    animation-iteration-count: infinite;
    stroke-dasharray: 3337;
    stroke-dashoffset: 3339;
    stroke-width: 128;
    stroke-linecap: round;
    fill: none;
    stroke: #FF4444;
}
svg.acjk .bg { fill: #ccc; opacity: 0.5; }

/* Stroke 1: Starts at 0.0%, finishes at 9.0%, holds until 71.9% */
@keyframes zk1 {
    0%, 0.0% { stroke-dashoffset: 3339; }
    9.0%, 71.9% { stroke-dashoffset: 0; }
    72.0%, 100% { stroke-dashoffset: 3339; }
}
svg.acjk #stroke-p1 { animation-name: zk1; }
/* Stroke 2: Starts at 9.0%, finishes at 18.0%, holds until 71.9% */
@keyframes zk2 {
    0%, 9.0% { stroke-dashoffset: 3339; }
    18.0%, 71.9% { stroke-dashoffset: 0; }
    72.0%, 100% { stroke-dashoffset: 3339; }
}
svg.acjk #stroke-p2 { animation-name: zk2; }
/* Stroke 3: Starts at 18.0%, finishes at 27.0%, holds until 71.9% */
@keyframes zk3 {
    0%, 18.0% { stroke-dashoffset: 3339; }
    27.0%, 71.9% { stroke-dashoffset: 0; }
    72.0%, 100% { stroke-dashoffset: 3339; }
}
svg.acjk #stroke-p3 { animation-name: zk3; }
/* Stroke 4: Starts at 27.0%, finishes at 36.0%, holds until 71.9% */
@keyframes zk4 {
    0%, 27.0% { stroke-dashoffset: 3339; }
    36.0%, 71.9% { stroke-dashoffset: 0; }
    72.0%, 100% { stroke-dashoffset: 3339; }
}
svg.acjk #stroke-p4 { animation-name: zk4; }
/* Stroke 5: Starts at 36.0%, finishes at 44.9%, holds until 71.9% */
@keyframes zk5 {
    0%, 36.0% { stroke-dashoffset: 3339; }
    44.9%, 71.9% { stroke-dashoffset: 0; }
    72.0%, 100% { stroke-dashoffset: 3339; }
}
svg.acjk #stroke-p5 { animation-name: zk5; }
/* Stroke 6: Starts at 44.9%, finishes at 53.9%, holds until 71.9% */
@keyframes zk6 {
    0%, 44.9% { stroke-dashoffset: 3339; }
    53.9%, 71.9% { stroke-dashoffset: 0; }
    72.0%, 100% { stroke-dashoffset: 3339; }
}
svg.acjk #stroke-p6 { animation-name: zk6; }
/* Stroke 7: Starts at 53.9%, finishes at 62.9%, holds until 71.9% */
@keyframes zk7 {
    0%, 53.9% { stroke-dashoffset: 3339; }
    62.9%, 71.9% { stroke-dashoffset: 0; }
    72.0%, 100% { stroke-dashoffset: 3339; }
}
svg.acjk #stroke-p7 { animation-name: zk7; }
/* Stroke 8: Starts at 62.9%, finishes at 71.9%, holds until 71.9% */
@keyframes zk8 {
    0%, 62.9% { stroke-dashoffset: 3339; }
    71.9%, 71.9% { stroke-dashoffset: 0; }
    72.0%, 100% { stroke-dashoffset: 3339; }
}
svg.acjk #stroke-p8 { animation-name: zk8; }
]]>
</style>
<defs>
    <path id="p1" d="M 270 259 Q 405 223 409 220 Q 418 210 412 201 Q 403 188 370 182 Q 342 179 261 207 Q 197 225 145 233 Q 105 243 135 260 Q 177 281 231 270 C 257 263 257 263 270 259 Z"/>
    <path id="p2" d="M 300 459 Q 384 435 389 430 Q 396 423 392 415 Q 385 405 357 400 Q 329 396 303 409 Q 302 409 302 410 C 268 423 268 423 251 430 Q 241 431 230 436 Q 188 449 138 457 Q 105 466 130 479 Q 172 500 221 481 Q 234 477 251 474 C 284 464 284 464 300 459 Z"/>
    <path id="p3" d="M 295 651 Q 298 548 300 459 C 301 426 301 426 302 410 Q 302 355 306 314 Q 315 287 270 259 C 258 252 226 257 231 270 Q 250 310 251 430 C 251 459 251 459 251 474 Q 251 547 251 665 C 251 680 295 666 295 651 Z"/>
    <path id="p4" d="M 251 665 Q 193 683 130 703 Q 111 709 77 709 Q 64 710 61 722 Q 60 737 70 745 Q 95 761 131 781 Q 141 784 155 774 Q 185 750 376 657 Q 401 645 420 630 Q 433 621 434 611 Q 428 605 415 609 Q 357 628 295 651 C 266 660 266 660 251 665 Z"/>
    <path id="p5" d="M 521 356 Q 528 340 540 324 Q 571 272 604 192 Q 616 155 630 136 Q 637 124 630 111 Q 623 99 590 82 Q 559 69 541 73 Q 522 79 535 99 Q 562 135 510 276 Q 486 342 449 416 Q 440 428 440 435 Q 439 447 452 441 Q 462 435 508 377 C 517 363 517 363 521 356 Z"/>
    <path id="p6" d="M 658 375 Q 853 318 857 315 Q 866 305 860 297 Q 851 284 820 279 Q 790 275 688 315 Q 604 342 521 356 C 513 357 502 371 508 377 Q 529 398 610 388 Q 611 387 614 387 C 643 379 643 379 658 375 Z"/>
    <path id="p7" d="M 574 648 Q 523 726 346 801 Q 318 814 350 816 Q 398 819 508 772 Q 509 771 514 769 Q 557 750 606 692 C 624 665 624 665 633 651 Q 673 573 696 456 Q 700 431 707 419 Q 714 412 708 401 Q 695 385 658 375 C 644 369 608 373 614 387 Q 651 487 596 610 C 581 635 581 635 574 648 Z"/>
    <path id="p8" d="M 606 692 Q 658 762 750 852 Q 781 880 829 874 Q 893 868 940 865 Q 955 864 969 858 Q 978 851 965 841 Q 949 831 817 785 Q 727 752 633 651 C 608 624 608 624 596 610 Q 563 573 530 529 Q 509 501 472 493 Q 460 490 450 497 Q 446 504 454 511 Q 461 518 470 524 Q 494 536 574 648 C 595 677 595 677 606 692 Z"/>

    <clipPath id="z29611c1"><use href="#p1"/></clipPath>
    <clipPath id="z29611c2"><use href="#p2"/></clipPath>
    <clipPath id="z29611c3"><use href="#p3"/></clipPath>
    <clipPath id="z29611c4"><use href="#p4"/></clipPath>
    <clipPath id="z29611c5"><use href="#p5"/></clipPath>
    <clipPath id="z29611c6"><use href="#p6"/></clipPath>
    <clipPath id="z29611c7"><use href="#p7"/></clipPath>
    <clipPath id="z29611c8"><use href="#p8"/></clipPath>
</defs>
<g id="bg-layer" class="bg">
<use href="#p1"/>
<use href="#p2"/>
<use href="#p3"/>
<use href="#p4"/>
<use href="#p5"/>
<use href="#p6"/>
<use href="#p7"/>
<use href="#p8"/>
</g>
<g id="anim-layer">
    <path id="stroke-p1" style="stroke:#FF4444" pathLength="3333" clip-path="url(#z29611c1)" d="M 129 247 L 409 202"/>
    <path id="stroke-p2" style="stroke:#FF4444" pathLength="3333" clip-path="url(#z29611c2)" d="M 127 468 L 388 422"/>
    <path id="stroke-p3" style="stroke:#FF4444" pathLength="3333" clip-path="url(#z29611c3)" d="M 237 271 L 275 319 L 259 661"/>
    <path id="stroke-p4" style="stroke:#FF4444" pathLength="3333" clip-path="url(#z29611c4)" d="M 64 721 L 131 743 L 427 613"/>
    <path id="stroke-p5" style="stroke:#000" pathLength="3333" clip-path="url(#z29611c5)" d="M 536 83 L 587 137 L 536 280 L 448 435"/>
    <path id="stroke-p6" style="stroke:#000" pathLength="3333" clip-path="url(#z29611c6)" d="M 513 373 L 855 299"/>
    <path id="stroke-p7" style="stroke:#000" pathLength="3333" clip-path="url(#z29611c7)" d="M 621 393 L 667 419 L 646 546 L 596 661 L 507 745 L 341 809"/>
    <path id="stroke-p8" style="stroke:#000" pathLength="3333" clip-path="url(#z29611c8)" d="M 459 504 L 505 529 L 642 698 L 779 818 L 965 849"/>
</g>
</svg>