<svg id="z29669" class="acjk" viewBox="0 0 1024 1024" xmlns="http://www.w3.org/2000/svg">
<style>
<![CDATA[
svg.acjk path[clip-path] {
    animation-duration: 10.5s;
    animation-timing-function: linear;
    animation-iteration-count: infinite;
    stroke-dasharray: 3337;
    stroke-dashoffset: 3339;
    stroke-width: 128;
    stroke-linecap: round;
    fill: none;
    stroke: #FF4444;
}
svg.acjk .bg { fill: #ccc; opacity: 0.5; }

/* Stroke 1: Starts at 0.0%, finishes at 7.6%, holds until 76.2% */
@keyframes zk1 {
    0%, 0.0% { stroke-dashoffset: 3339; }
    7.6%, 76.2% { stroke-dashoffset: 0; }
    76.3%, 100% { stroke-dashoffset: 3339; }
}
svg.acjk #stroke-p1 { animation-name: zk1; }
/* Stroke 2: Starts at 7.6%, finishes at 15.2%, holds until 76.2% */
@keyframes zk2 {
    0%, 7.6% { stroke-dashoffset: 3339; }
    15.2%, 76.2% { stroke-dashoffset: 0; }
    76.3%, 100% { stroke-dashoffset: 3339; }
}
svg.acjk #stroke-p2 { animation-name: zk2; }
/* Stroke 3: Starts at 15.2%, finishes at 22.9%, holds until 76.2% */
@keyframes zk3 {
    0%, 15.2% { stroke-dashoffset: 3339; }
    22.9%, 76.2% { stroke-dashoffset: 0; }
    76.3%, 100% { stroke-dashoffset: 3339; }
}
svg.acjk #stroke-p3 { animation-name: zk3; }
/* Stroke 4: Starts at 22.9%, finishes at 30.5%, holds until 76.2% */
@keyframes zk4 {
    0%, 22.9% { stroke-dashoffset: 3339; }
    30.5%, 76.2% { stroke-dashoffset: 0; }
    76.3%, 100% { stroke-dashoffset: 3339; }
}
svg.acjk #stroke-p4 { animation-name: zk4; }
/* Stroke 5: Starts at 30.5%, finishes at 38.1%, holds until 76.2% */
@keyframes zk5 {
    0%, 30.5% { stroke-dashoffset: 3339; }
    38.1%, 76.2% { stroke-dashoffset: 0; }
    76.3%, 100% { stroke-dashoffset: 3339; }
}
svg.acjk #stroke-p5 { animation-name: zk5; }
/* Stroke 6: Starts at 38.1%, finishes at 45.7%, holds until 76.2% */
@keyframes zk6 {
    0%, 38.1% { stroke-dashoffset: 3339; }
    45.7%, 76.2% { stroke-dashoffset: 0; }
    76.3%, 100% { stroke-dashoffset: 3339; }
}
svg.acjk #stroke-p6 { animation-name: zk6; }
/* Stroke 7: Starts at 45.7%, finishes at 53.3%, holds until 76.2% */
@keyframes zk7 {
    0%, 45.7% { stroke-dashoffset: 3339; }
    53.3%, 76.2% { stroke-dashoffset: 0; }
    76.3%, 100% { stroke-dashoffset: 3339; }
}
svg.acjk #stroke-p7 { animation-name: zk7; }
/* Stroke 8: Starts at 53.3%, finishes at 61.0%, holds until 76.2% */
@keyframes zk8 {
    0%, 53.3% { stroke-dashoffset: 3339; }
    61.0%, 76.2% { stroke-dashoffset: 0; }
    76.3%, 100% { stroke-dashoffset: 3339; }
}
svg.acjk #stroke-p8 { animation-name: zk8; }
/* Stroke 9: Starts at 61.0%, finishes at 68.6%, holds until 76.2% */
@keyframes zk9 {
    0%, 61.0% { stroke-dashoffset: 3339; }
    68.6%, 76.2% { stroke-dashoffset: 0; }
    76.3%, 100% { stroke-dashoffset: 3339; }
}
svg.acjk #stroke-p9 { animation-name: zk9; }
/* Stroke 10: Starts at 68.6%, finishes at 76.2%, holds until 76.2% */
@keyframes zk10 {
    0%, 68.6% { stroke-dashoffset: 3339; }
    76.2%, 76.2% { stroke-dashoffset: 0; }
    76.3%, 100% { stroke-dashoffset: 3339; }
}
svg.acjk #stroke-p10 { animation-name: zk10; }
]]>
</style>
<defs>
    <path id="p1" d="M 270 229 Q 393 196 397 193 Q 404 184 400 176 Q 393 164 362 159 Q 331 155 301 168 Q 267 181 231 192 Q 191 202 144 209 Q 107 218 134 233 Q 173 254 227 241 C 256 233 256 233 270 229 Z"/>
    <path id="p2" d="M 292 420 Q 319 410 348 403 Q 376 394 381 390 Q 388 383 384 375 Q 377 365 349 360 Q 321 356 295 369 Q 294 369 294 370 C 259 383 259 383 242 390 Q 235 391 227 394 Q 188 406 142 413 Q 109 422 134 435 Q 176 456 223 438 Q 232 435 243 433 C 276 424 276 424 292 420 Z"/>
    <path id="p3" d="M 287 583 Q 290 495 292 420 C 293 387 293 387 294 370 Q 294 315 298 278 Q 307 253 270 229 C 257 221 222 227 227 241 Q 242 278 242 390 C 243 419 243 419 243 433 Q 243 499 243 601 C 243 617 287 599 287 583 Z"/>
    <path id="p4" d="M 243 601 Q 191 620 136 644 Q 120 651 92 653 Q 79 656 78 667 Q 77 682 88 689 Q 115 704 152 719 Q 164 720 175 710 Q 208 679 344 593 Q 363 580 377 566 Q 390 556 389 547 Q 383 541 370 546 Q 330 564 287 583 C 258 595 258 595 243 601 Z"/>
    <path id="p5" d="M 732 162 Q 783 153 827 148 Q 837 149 845 137 Q 846 127 824 116 Q 797 95 696 125 Q 660 132 448 169 Q 420 173 442 189 Q 457 199 473 208 C 484 215 499 206 512 204 Q 582 188 674 172 C 713 165 713 165 732 162 Z"/>
    <path id="p6" d="M 473 208 Q 491 253 494 341 Q 494 414 495 575 C 495 589 537 583 537 569 Q 538 511 539 460 C 540 440 540 440 540 430 Q 540 382 542 340 C 542 320 542 320 542 310 Q 542 280 545 253 Q 551 235 542 226 Q 526 213 512 204 C 501 197 468 196 473 208 Z"/>
    <path id="p7" d="M 751 534 Q 751 272 765 202 Q 769 184 754 175 Q 742 168 732 162 C 715 152 667 154 674 172 Q 702 229 703 295 Q 703 401 701 544 C 700 574 700 574 700 589 Q 690 916 714 945 Q 720 952 727 950 Q 742 941 748 880 Q 758 786 755 692 Q 752 658 752 586 C 751 551 751 551 751 534 Z"/>
    <path id="p8" d="M 542 340 Q 546 334 664 317 Q 686 313 678 300 Q 666 285 640 283 Q 601 280 542 310 C 533 315 533 344 542 340 Z"/>
    <path id="p9" d="M 539 460 Q 543 454 668 437 Q 690 433 681 420 Q 671 405 645 402 Q 618 401 540 430 C 531 434 530 464 539 460 Z"/>
    <path id="p10" d="M 752 586 Q 807 582 877 582 Q 937 585 944 573 Q 948 561 932 547 Q 872 502 800 524 Q 778 527 751 534 C 718 541 718 541 701 544 Q 670 548 636 554 Q 588 561 537 569 C 509 573 509 573 495 575 Q 443 581 389 589 Q 367 592 383 609 Q 414 637 466 626 Q 580 593 700 589 C 735 587 735 587 752 586 Z"/>

    <clipPath id="z29669c1"><use href="#p1"/></clipPath>
    <clipPath id="z29669c2"><use href="#p2"/></clipPath>
    <clipPath id="z29669c3"><use href="#p3"/></clipPath>
    <clipPath id="z29669c4"><use href="#p4"/></clipPath>
    <clipPath id="z29669c5"><use href="#p5"/></clipPath>
    <clipPath id="z29669c6"><use href="#p6"/></clipPath>
    <clipPath id="z29669c7"><use href="#p7"/></clipPath>
    <clipPath id="z29669c8"><use href="#p8"/></clipPath>
    <clipPath id="z29669c9"><use href="#p9"/></clipPath>
    <clipPath id="z29669c10"><use href="#p10"/></clipPath>
</defs>
<g id="bg-layer" class="bg">
<use href="#p1"/>
<use href="#p2"/>
<use href="#p3"/>
<use href="#p4"/>
<use href="#p5"/>
<use href="#p6"/>
<use href="#p7"/>
<use href="#p8"/>
<use href="#p9"/>
<use href="#p10"/>
</g>
<g id="anim-layer">
    <path id="stroke-p1" style="stroke:#FF4444" pathLength="3333" clip-path="url(#z29669c1)" d="M 130 221 L 397 180"/>
    <path id="stroke-p2" style="stroke:#FF4444" pathLength="3333" clip-path="url(#z29669c2)" d="M 130 423 L 380 378"/>
    <path id="stroke-p3" style="stroke:#FF4444" pathLength="3333" clip-path="url(#z29669c3)" d="M 234 247 L 268 277 L 252 594"/>
    <path id="stroke-p4" style="stroke:#FF4444" pathLength="3333" clip-path="url(#z29669c4)" d="M 82 669 L 155 678 L 383 552"/>
    <path id="stroke-p5" style="stroke:#000" pathLength="3333" clip-path="url(#z29669c5)" d="M 442 180 L 839 132"/>
    <path id="stroke-p6" style="stroke:#000" pathLength="3333" clip-path="url(#z29669c6)" d="M 482 212 L 516 244 L 509 573"/>
    <path id="stroke-p7" style="stroke:#000" pathLength="3333" clip-path="url(#z29669c7)" d="M 682 176 L 729 214 L 721 945"/>
    <path id="stroke-p8" style="stroke:#000" pathLength="3333" clip-path="url(#z29669c8)" d="M 550 330 L 675 304"/>
    <path id="stroke-p9" style="stroke:#000" pathLength="3333" clip-path="url(#z29669c9)" d="M 542 451 L 677 423"/>
    <path id="stroke-p10" style="stroke:#000" pathLength="3333" clip-path="url(#z29669c10)" d="M 387 598 L 841 549 L 939 560"/>
</g>
</svg>