<svg id="z29693" class="acjk" viewBox="0 0 1024 1024" xmlns="http://www.w3.org/2000/svg">
<style>
<![CDATA[
svg.acjk path[clip-path] {
    animation-duration: 10.5s;
    animation-timing-function: linear;
    animation-iteration-count: infinite;
    stroke-dasharray: 3337;
    stroke-dashoffset: 3339;
    stroke-width: 128;
    stroke-linecap: round;
    fill: none;
    stroke: #FF4444;
}
svg.acjk .bg { fill: #ccc; opacity: 0.5; }

/* Stroke 1: Starts at 0.0%, finishes at 7.6%, holds until 76.2% */
@keyframes zk1 {
    0%, 0.0% { stroke-dashoffset: 3339; }
    7.6%, 76.2% { stroke-dashoffset: 0; }
    76.3%, 100% { stroke-dashoffset: 3339; }
}
svg.acjk #stroke-p1 { animation-name: zk1; }
/* Stroke 2: Starts at 7.6%, finishes at 15.2%, holds until 76.2% */
@keyframes zk2 {
    0%, 7.6% { stroke-dashoffset: 3339; }
    15.2%, 76.2% { stroke-dashoffset: 0; }
    76.3%, 100% { stroke-dashoffset: 3339; }
}
svg.acjk #stroke-p2 { animation-name: zk2; }
/* Stroke 3: Starts at 15.2%, finishes at 22.9%, holds until 76.2% */
@keyframes zk3 {
    0%, 15.2% { stroke-dashoffset: 3339; }
    22.9%, 76.2% { stroke-dashoffset: 0; }
    76.3%, 100% { stroke-dashoffset: 3339; }
}
svg.acjk #stroke-p3 { animation-name: zk3; }
/* Stroke 4: Starts at 22.9%, finishes at 30.5%, holds until 76.2% */
@keyframes zk4 {
    0%, 22.9% { stroke-dashoffset: 3339; }
    30.5%, 76.2% { stroke-dashoffset: 0; }
    76.3%, 100% { stroke-dashoffset: 3339; }
}
svg.acjk #stroke-p4 { animation-name: zk4; }
/* Stroke 5: Starts at 30.5%, finishes at 38.1%, holds until 76.2% */
@keyframes zk5 {
    0%, 30.5% { stroke-dashoffset: 3339; }
    38.1%, 76.2% { stroke-dashoffset: 0; }
    76.3%, 100% { stroke-dashoffset: 3339; }
}
svg.acjk #stroke-p5 { animation-name: zk5; }
/* Stroke 6: Starts at 38.1%, finishes at 45.7%, holds until 76.2% */
@keyframes zk6 {
    0%, 38.1% { stroke-dashoffset: 3339; }
    45.7%, 76.2% { stroke-dashoffset: 0; }
    76.3%, 100% { stroke-dashoffset: 3339; }
}
svg.acjk #stroke-p6 { animation-name: zk6; }
/* Stroke 7: Starts at 45.7%, finishes at 53.3%, holds until 76.2% */
@keyframes zk7 {
    0%, 45.7% { stroke-dashoffset: 3339; }
    53.3%, 76.2% { stroke-dashoffset: 0; }
    76.3%, 100% { stroke-dashoffset: 3339; }
}
svg.acjk #stroke-p7 { animation-name: zk7; }
/* Stroke 8: Starts at 53.3%, finishes at 61.0%, holds until 76.2% */
@keyframes zk8 {
    0%, 53.3% { stroke-dashoffset: 3339; }
    61.0%, 76.2% { stroke-dashoffset: 0; }
    76.3%, 100% { stroke-dashoffset: 3339; }
}
svg.acjk #stroke-p8 { animation-name: zk8; }
/* Stroke 9: Starts at 61.0%, finishes at 68.6%, holds until 76.2% */
@keyframes zk9 {
    0%, 61.0% { stroke-dashoffset: 3339; }
    68.6%, 76.2% { stroke-dashoffset: 0; }
    76.3%, 100% { stroke-dashoffset: 3339; }
}
svg.acjk #stroke-p9 { animation-name: zk9; }
/* Stroke 10: Starts at 68.6%, finishes at 76.2%, holds until 76.2% */
@keyframes zk10 {
    0%, 68.6% { stroke-dashoffset: 3339; }
    76.2%, 76.2% { stroke-dashoffset: 0; }
    76.3%, 100% { stroke-dashoffset: 3339; }
}
svg.acjk #stroke-p10 { animation-name: zk10; }
]]>
</style>
<defs>
    <path id="p1" d="M 228 279 Q 343 239 346 237 Q 355 227 349 220 Q 340 208 309 205 Q 278 202 249 218 Q 221 231 191 242 Q 157 252 117 261 Q 80 271 109 285 Q 145 300 188 291 C 215 283 215 283 228 279 Z"/>
    <path id="p2" d="M 251 471 Q 341 440 342 438 Q 349 429 344 422 Q 337 412 309 409 Q 281 408 255 421 Q 254 421 253 422 C 220 436 220 436 203 443 Q 158 456 120 465 Q 89 475 113 487 Q 158 502 204 486 C 235 476 235 476 251 471 Z"/>
    <path id="p3" d="M 246 632 Q 249 545 251 471 C 252 438 252 438 253 422 Q 253 365 257 328 Q 266 304 228 279 C 216 272 183 278 188 291 Q 203 328 203 443 C 204 472 204 472 204 486 Q 204 550 204 648 C 204 663 246 647 246 632 Z"/>
    <path id="p4" d="M 204 648 Q 155 667 103 689 Q 85 696 56 699 Q 43 702 42 713 Q 42 726 52 734 Q 77 747 114 763 Q 124 764 136 755 Q 157 733 317 634 Q 339 621 354 606 Q 366 596 365 587 Q 359 583 347 586 Q 298 608 246 632 C 218 643 218 643 204 648 Z"/>
    <path id="p5" d="M 695 293 Q 765 250 805 234 Q 821 231 823 223 Q 824 213 812 205 Q 751 172 721 183 Q 715 187 716 197 Q 717 233 563 341 Q 559 350 566 352 Q 569 351 579 346 Q 604 339 651 315 Q 658 311 666 308 C 685 298 685 298 695 293 Z"/>
    <path id="p6" d="M 720 469 Q 757 457 842 445 Q 852 446 858 435 Q 859 425 839 417 Q 815 399 731 427 Q 725 428 722 430 C 693 438 693 438 678 442 Q 638 449 582 459 Q 558 463 578 477 Q 608 498 634 490 Q 653 484 678 480 C 706 473 706 473 720 469 Z"/>
    <path id="p7" d="M 716 619 Q 717 537 720 469 C 721 443 721 443 722 430 Q 722 367 726 340 Q 732 324 724 315 Q 709 302 695 293 C 686 287 664 297 666 308 Q 678 356 678 442 C 678 467 678 467 678 480 Q 678 538 678 627 C 678 640 716 632 716 619 Z"/>
    <path id="p8" d="M 678 627 Q 632 636 581 646 Q 565 649 577 661 Q 589 671 603 675 Q 619 679 632 674 Q 707 652 841 651 Q 857 650 860 643 Q 864 633 850 623 Q 802 590 740 613 Q 728 614 716 619 C 691 624 691 624 678 627 Z"/>
    <path id="p9" d="M 491 658 Q 504 627 517 594 Q 533 542 546 524 Q 555 514 547 506 Q 537 494 521 489 Q 508 483 486 489 Q 470 493 466 490 Q 462 487 467 473 Q 494 418 518 356 Q 540 316 557 297 Q 573 281 561 269 Q 551 259 519 248 Q 495 238 480 251 Q 440 282 407 294 Q 394 298 402 305 Q 420 317 473 297 Q 483 294 488 300 Q 495 316 477 365 Q 452 452 426 478 Q 416 491 420 504 Q 424 511 442 511 Q 481 511 481 546 Q 480 549 480 556 Q 473 596 457 638 C 448 659 448 659 443 670 Q 415 728 357 805 Q 348 818 352 820 Q 356 823 364 816 Q 433 771 476 690 C 486 669 486 669 491 658 Z"/>
    <path id="p10" d="M 476 690 Q 489 697 504 707 Q 651 821 768 868 Q 814 878 978 828 Q 988 822 992 814 Q 993 805 973 806 Q 913 799 847 797 Q 688 787 502 663 Q 496 660 491 658 C 468 645 468 645 457 638 Q 400 607 349 620 Q 339 624 344 634 Q 351 641 362 642 Q 398 643 443 670 C 465 683 465 683 476 690 Z"/>

    <clipPath id="z29693c1"><use href="#p1"/></clipPath>
    <clipPath id="z29693c2"><use href="#p2"/></clipPath>
    <clipPath id="z29693c3"><use href="#p3"/></clipPath>
    <clipPath id="z29693c4"><use href="#p4"/></clipPath>
    <clipPath id="z29693c5"><use href="#p5"/></clipPath>
    <clipPath id="z29693c6"><use href="#p6"/></clipPath>
    <clipPath id="z29693c7"><use href="#p7"/></clipPath>
    <clipPath id="z29693c8"><use href="#p8"/></clipPath>
    <clipPath id="z29693c9"><use href="#p9"/></clipPath>
    <clipPath id="z29693c10"><use href="#p10"/></clipPath>
</defs>
<g id="bg-layer" class="bg">
<use href="#p1"/>
<use href="#p2"/>
<use href="#p3"/>
<use href="#p4"/>
<use href="#p5"/>
<use href="#p6"/>
<use href="#p7"/>
<use href="#p8"/>
<use href="#p9"/>
<use href="#p10"/>
</g>
<g id="anim-layer">
    <path id="stroke-p1" style="stroke:#FF4444" pathLength="3333" clip-path="url(#z29693c1)" d="M 104 271 L 347 228"/>
    <path id="stroke-p2" style="stroke:#FF4444" pathLength="3333" clip-path="url(#z29693c2)" d="M 107 478 L 341 424"/>
    <path id="stroke-p3" style="stroke:#FF4444" pathLength="3333" clip-path="url(#z29693c3)" d="M 194 286 L 228 325 L 218 651"/>
    <path id="stroke-p4" style="stroke:#FF4444" pathLength="3333" clip-path="url(#z29693c4)" d="M 45 710 L 116 724 L 356 590"/>
    <path id="stroke-p5" style="stroke:#000" pathLength="3333" clip-path="url(#z29693c5)" d="M 724 187 L 767 225 L 567 346"/>
    <path id="stroke-p6" style="stroke:#000" pathLength="3333" clip-path="url(#z29693c6)" d="M 578 465 L 851 429"/>
    <path id="stroke-p7" style="stroke:#000" pathLength="3333" clip-path="url(#z29693c7)" d="M 672 302 L 700 333 L 696 631"/>
    <path id="stroke-p8" style="stroke:#000" pathLength="3333" clip-path="url(#z29693c8)" d="M 579 652 L 775 628 L 855 638"/>
    <path id="stroke-p9" style="stroke:#000" pathLength="3333" clip-path="url(#z29693c9)" d="M 407 300 L 489 270 L 527 291 L 443 496 L 515 529 L 459 682 L 360 813"/>
    <path id="stroke-p10" style="stroke:#000" pathLength="3333" clip-path="url(#z29693c10)" d="M 352 629 L 431 644 L 773 828 L 984 816"/>
</g>
</svg>