<svg id="z29788" class="acjk" viewBox="0 0 1024 1024" xmlns="http://www.w3.org/2000/svg">
<style>
<![CDATA[
svg.acjk path[clip-path] {
    animation-duration: 12.9s;
    animation-timing-function: linear;
    animation-iteration-count: infinite;
    stroke-dasharray: 3337;
    stroke-dashoffset: 3339;
    stroke-width: 128;
    stroke-linecap: round;
    fill: none;
    stroke: #FF4444;
}
svg.acjk .bg { fill: #ccc; opacity: 0.5; }

/* Stroke 1: Starts at 0.0%, finishes at 6.2%, holds until 80.6% */
@keyframes zk1 {
    0%, 0.0% { stroke-dashoffset: 3339; }
    6.2%, 80.6% { stroke-dashoffset: 0; }
    80.7%, 100% { stroke-dashoffset: 3339; }
}
svg.acjk #stroke-p1 { animation-name: zk1; }
/* Stroke 2: Starts at 6.2%, finishes at 12.4%, holds until 80.6% */
@keyframes zk2 {
    0%, 6.2% { stroke-dashoffset: 3339; }
    12.4%, 80.6% { stroke-dashoffset: 0; }
    80.7%, 100% { stroke-dashoffset: 3339; }
}
svg.acjk #stroke-p2 { animation-name: zk2; }
/* Stroke 3: Starts at 12.4%, finishes at 18.6%, holds until 80.6% */
@keyframes zk3 {
    0%, 12.4% { stroke-dashoffset: 3339; }
    18.6%, 80.6% { stroke-dashoffset: 0; }
    80.7%, 100% { stroke-dashoffset: 3339; }
}
svg.acjk #stroke-p3 { animation-name: zk3; }
/* Stroke 4: Starts at 18.6%, finishes at 24.8%, holds until 80.6% */
@keyframes zk4 {
    0%, 18.6% { stroke-dashoffset: 3339; }
    24.8%, 80.6% { stroke-dashoffset: 0; }
    80.7%, 100% { stroke-dashoffset: 3339; }
}
svg.acjk #stroke-p4 { animation-name: zk4; }
/* Stroke 5: Starts at 24.8%, finishes at 31.0%, holds until 80.6% */
@keyframes zk5 {
    0%, 24.8% { stroke-dashoffset: 3339; }
    31.0%, 80.6% { stroke-dashoffset: 0; }
    80.7%, 100% { stroke-dashoffset: 3339; }
}
svg.acjk #stroke-p5 { animation-name: zk5; }
/* Stroke 6: Starts at 31.0%, finishes at 37.2%, holds until 80.6% */
@keyframes zk6 {
    0%, 31.0% { stroke-dashoffset: 3339; }
    37.2%, 80.6% { stroke-dashoffset: 0; }
    80.7%, 100% { stroke-dashoffset: 3339; }
}
svg.acjk #stroke-p6 { animation-name: zk6; }
/* Stroke 7: Starts at 37.2%, finishes at 43.4%, holds until 80.6% */
@keyframes zk7 {
    0%, 37.2% { stroke-dashoffset: 3339; }
    43.4%, 80.6% { stroke-dashoffset: 0; }
    80.7%, 100% { stroke-dashoffset: 3339; }
}
svg.acjk #stroke-p7 { animation-name: zk7; }
/* Stroke 8: Starts at 43.4%, finishes at 49.6%, holds until 80.6% */
@keyframes zk8 {
    0%, 43.4% { stroke-dashoffset: 3339; }
    49.6%, 80.6% { stroke-dashoffset: 0; }
    80.7%, 100% { stroke-dashoffset: 3339; }
}
svg.acjk #stroke-p8 { animation-name: zk8; }
/* Stroke 9: Starts at 49.6%, finishes at 55.8%, holds until 80.6% */
@keyframes zk9 {
    0%, 49.6% { stroke-dashoffset: 3339; }
    55.8%, 80.6% { stroke-dashoffset: 0; }
    80.7%, 100% { stroke-dashoffset: 3339; }
}
svg.acjk #stroke-p9 { animation-name: zk9; }
/* Stroke 10: Starts at 55.8%, finishes at 62.0%, holds until 80.6% */
@keyframes zk10 {
    0%, 55.8% { stroke-dashoffset: 3339; }
    62.0%, 80.6% { stroke-dashoffset: 0; }
    80.7%, 100% { stroke-dashoffset: 3339; }
}
svg.acjk #stroke-p10 { animation-name: zk10; }
/* Stroke 11: Starts at 62.0%, finishes at 68.2%, holds until 80.6% */
@keyframes zk11 {
    0%, 62.0% { stroke-dashoffset: 3339; }
    68.2%, 80.6% { stroke-dashoffset: 0; }
    80.7%, 100% { stroke-dashoffset: 3339; }
}
svg.acjk #stroke-p11 { animation-name: zk11; }
/* Stroke 12: Starts at 68.2%, finishes at 74.4%, holds until 80.6% */
@keyframes zk12 {
    0%, 68.2% { stroke-dashoffset: 3339; }
    74.4%, 80.6% { stroke-dashoffset: 0; }
    80.7%, 100% { stroke-dashoffset: 3339; }
}
svg.acjk #stroke-p12 { animation-name: zk12; }
/* Stroke 13: Starts at 74.4%, finishes at 80.6%, holds until 80.6% */
@keyframes zk13 {
    0%, 74.4% { stroke-dashoffset: 3339; }
    80.6%, 80.6% { stroke-dashoffset: 0; }
    80.7%, 100% { stroke-dashoffset: 3339; }
}
svg.acjk #stroke-p13 { animation-name: zk13; }
]]>
</style>
<defs>
    <path id="p1" d="M 256 281 Q 391 239 393 239 Q 402 229 396 220 Q 387 208 356 203 Q 323 199 292 215 Q 259 228 223 240 Q 183 252 135 259 Q 96 269 126 285 Q 165 301 212 293 C 241 285 241 285 256 281 Z"/>
    <path id="p2" d="M 275 480 Q 353 450 354 450 Q 361 441 356 434 Q 349 424 321 421 Q 299 420 276 429 C 244 444 244 444 228 451 Q 165 472 140 477 Q 107 487 133 499 Q 175 514 223 497 Q 224 496 228 496 C 259 485 259 485 275 480 Z"/>
    <path id="p3" d="M 270 633 Q 271 551 275 480 C 276 446 276 446 276 429 Q 279 303 280 303 Q 268 291 256 281 C 245 270 206 279 212 293 Q 227 320 228 451 C 228 481 228 481 228 496 Q 228 559 228 650 C 228 665 270 648 270 633 Z"/>
    <path id="p4" d="M 228 650 Q 174 669 118 691 Q 102 698 73 699 Q 60 702 59 712 Q 58 727 69 734 Q 94 747 130 764 Q 140 767 152 756 Q 176 734 326 644 Q 347 631 361 618 Q 374 608 373 599 Q 366 593 270 633 C 242 644 242 644 228 650 Z"/>
    <path id="p5" d="M 609 142 Q 622 123 634 112 Q 641 102 638 89 Q 634 77 607 57 Q 582 41 564 40 Q 546 41 554 63 Q 567 88 557 111 Q 509 238 382 399 Q 372 409 371 415 Q 367 425 381 423 Q 441 405 586 182 Q 590 173 597 163 C 605 149 605 149 609 142 Z"/>
    <path id="p6" d="M 597 163 Q 682 262 777 352 Q 799 374 837 376 Q 904 379 976 364 Q 994 361 996 357 Q 997 350 983 345 Q 782 273 712 223 Q 685 205 660 184 Q 627 156 609 142 C 603 137 592 157 597 163 Z"/>
    <path id="p7" d="M 486 357 Q 453 364 478 379 Q 517 397 568 383 Q 617 370 669 356 Q 693 349 697 346 Q 704 339 699 331 Q 692 321 665 315 Q 637 312 611 324 Q 584 334 556 343 Q 525 352 486 357 Z"/>
    <path id="p8" d="M 427 679 Q 428 639 431 609 C 432 592 432 592 433 584 Q 436 535 439 517 Q 439 514 439 512 C 439 503 436 494 430 488 Q 412 470 382 470 Q 370 474 375 485 Q 414 572 374 740 Q 356 798 356 800 Q 356 827 373 848 Q 379 860 389 855 Q 425 828 425 712 Q 425 708 426 705 C 427 688 427 688 427 679 Z"/>
    <path id="p9" d="M 439 512 Q 451 509 514 490 Q 529 484 534 492 Q 538 502 540 520 Q 550 686 545 789 Q 544 811 537 821 Q 501 820 465 818 Q 464 818 465 820 Q 507 854 531 882 Q 541 897 555 901 Q 562 904 568 896 Q 601 857 599 813 Q 577 533 594 501 Q 604 486 594 478 Q 576 463 547 452 Q 534 446 520 453 Q 495 469 478 475 Q 462 481 430 488 C 422 489 431 514 439 512 Z"/>
    <path id="p10" d="M 431 609 Q 479 600 512 592 Q 528 588 521 578 Q 512 568 492 566 Q 459 566 433 584 C 426 588 423 611 431 609 Z"/>
    <path id="p11" d="M 426 705 Q 427 706 435 705 Q 478 696 510 691 Q 531 685 522 675 Q 512 663 488 661 Q 445 661 427 679 C 421 685 417 705 426 705 Z"/>
    <path id="p12" d="M 636 508 Q 660 550 647 667 Q 644 688 665 718 Q 674 727 681 717 Q 694 699 695 623 Q 695 548 698 531 Q 702 512 686 503 Q 673 496 658 488 Q 648 484 639 489 Q 632 495 636 508 Z"/>
    <path id="p13" d="M 765 492 Q 768 513 772 828 Q 772 841 764 847 Q 757 853 699 840 Q 668 830 671 839 Q 672 846 691 859 Q 748 904 763 930 Q 779 960 794 961 Q 807 962 820 929 Q 836 887 833 820 Q 802 577 829 466 Q 844 438 792 419 Q 761 403 743 409 Q 727 416 742 436 Q 763 461 765 492 Z"/>

    <clipPath id="z29788c1"><use href="#p1"/></clipPath>
    <clipPath id="z29788c2"><use href="#p2"/></clipPath>
    <clipPath id="z29788c3"><use href="#p3"/></clipPath>
    <clipPath id="z29788c4"><use href="#p4"/></clipPath>
    <clipPath id="z29788c5"><use href="#p5"/></clipPath>
    <clipPath id="z29788c6"><use href="#p6"/></clipPath>
    <clipPath id="z29788c7"><use href="#p7"/></clipPath>
    <clipPath id="z29788c8"><use href="#p8"/></clipPath>
    <clipPath id="z29788c9"><use href="#p9"/></clipPath>
    <clipPath id="z29788c10"><use href="#p10"/></clipPath>
    <clipPath id="z29788c11"><use href="#p11"/></clipPath>
    <clipPath id="z29788c12"><use href="#p12"/></clipPath>
    <clipPath id="z29788c13"><use href="#p13"/></clipPath>
</defs>
<g id="bg-layer" class="bg">
<use href="#p1"/>
<use href="#p2"/>
<use href="#p3"/>
<use href="#p4"/>
<use href="#p5"/>
<use href="#p6"/>
<use href="#p7"/>
<use href="#p8"/>
<use href="#p9"/>
<use href="#p10"/>
<use href="#p11"/>
<use href="#p12"/>
<use href="#p13"/>
</g>
<g id="anim-layer">
    <path id="stroke-p1" style="stroke:#FF4444" pathLength="3333" clip-path="url(#z29788c1)" d="M 121 272 L 393 223"/>
    <path id="stroke-p2" style="stroke:#FF4444" pathLength="3333" clip-path="url(#z29788c2)" d="M 128 487 L 350 436"/>
    <path id="stroke-p3" style="stroke:#FF4444" pathLength="3333" clip-path="url(#z29788c3)" d="M 219 296 L 251 321 L 241 644"/>
    <path id="stroke-p4" style="stroke:#FF4444" pathLength="3333" clip-path="url(#z29788c4)" d="M 63 710 L 131 726 L 365 604"/>
    <path id="stroke-p5" style="stroke:#000" pathLength="3333" clip-path="url(#z29788c5)" d="M 557 48 L 597 106 L 477 303 L 376 415"/>
    <path id="stroke-p6" style="stroke:#000" pathLength="3333" clip-path="url(#z29788c6)" d="M 610 149 L 814 326 L 987 354"/>
    <path id="stroke-p7" style="stroke:#000" pathLength="3333" clip-path="url(#z29788c7)" d="M 476 368 L 693 336"/>
    <path id="stroke-p8" style="stroke:#000" pathLength="3333" clip-path="url(#z29788c8)" d="M 382 482 L 414 530 L 386 848"/>
    <path id="stroke-p9" style="stroke:#000" pathLength="3333" clip-path="url(#z29788c9)" d="M 437 492 L 527 469 L 567 491 L 566 835 L 542 861 L 473 821"/>
    <path id="stroke-p10" style="stroke:#000" pathLength="3333" clip-path="url(#z29788c10)" d="M 437 601 L 514 580"/>
    <path id="stroke-p11" style="stroke:#000" pathLength="3333" clip-path="url(#z29788c11)" d="M 436 696 L 518 680"/>
    <path id="stroke-p12" style="stroke:#000" pathLength="3333" clip-path="url(#z29788c12)" d="M 644 494 L 671 522 L 670 717"/>
    <path id="stroke-p13" style="stroke:#000" pathLength="3333" clip-path="url(#z29788c13)" d="M 741 415 L 797 463 L 801 850 L 776 910 L 678 840"/>
</g>
</svg>