<svg id="z30009" class="acjk" viewBox="0 0 1024 1024" xmlns="http://www.w3.org/2000/svg">
<style>
<![CDATA[
svg.acjk path[clip-path] {
    animation-duration: 8.100000000000001s;
    animation-timing-function: linear;
    animation-iteration-count: infinite;
    stroke-dasharray: 3337;
    stroke-dashoffset: 3339;
    stroke-width: 128;
    stroke-linecap: round;
    fill: none;
    stroke: #FF4444;
}
svg.acjk .bg { fill: #ccc; opacity: 0.5; }

/* Stroke 1: Starts at 0.0%, finishes at 9.9%, holds until 69.1% */
@keyframes zk1 {
    0%, 0.0% { stroke-dashoffset: 3339; }
    9.9%, 69.1% { stroke-dashoffset: 0; }
    69.2%, 100% { stroke-dashoffset: 3339; }
}
svg.acjk #stroke-p1 { animation-name: zk1; }
/* Stroke 2: Starts at 9.9%, finishes at 19.8%, holds until 69.1% */
@keyframes zk2 {
    0%, 9.9% { stroke-dashoffset: 3339; }
    19.8%, 69.1% { stroke-dashoffset: 0; }
    69.2%, 100% { stroke-dashoffset: 3339; }
}
svg.acjk #stroke-p2 { animation-name: zk2; }
/* Stroke 3: Starts at 19.8%, finishes at 29.6%, holds until 69.1% */
@keyframes zk3 {
    0%, 19.8% { stroke-dashoffset: 3339; }
    29.6%, 69.1% { stroke-dashoffset: 0; }
    69.2%, 100% { stroke-dashoffset: 3339; }
}
svg.acjk #stroke-p3 { animation-name: zk3; }
/* Stroke 4: Starts at 29.6%, finishes at 39.5%, holds until 69.1% */
@keyframes zk4 {
    0%, 29.6% { stroke-dashoffset: 3339; }
    39.5%, 69.1% { stroke-dashoffset: 0; }
    69.2%, 100% { stroke-dashoffset: 3339; }
}
svg.acjk #stroke-p4 { animation-name: zk4; }
/* Stroke 5: Starts at 39.5%, finishes at 49.4%, holds until 69.1% */
@keyframes zk5 {
    0%, 39.5% { stroke-dashoffset: 3339; }
    49.4%, 69.1% { stroke-dashoffset: 0; }
    69.2%, 100% { stroke-dashoffset: 3339; }
}
svg.acjk #stroke-p5 { animation-name: zk5; }
/* Stroke 6: Starts at 49.4%, finishes at 59.3%, holds until 69.1% */
@keyframes zk6 {
    0%, 49.4% { stroke-dashoffset: 3339; }
    59.3%, 69.1% { stroke-dashoffset: 0; }
    69.2%, 100% { stroke-dashoffset: 3339; }
}
svg.acjk #stroke-p6 { animation-name: zk6; }
/* Stroke 7: Starts at 59.3%, finishes at 69.1%, holds until 69.1% */
@keyframes zk7 {
    0%, 59.3% { stroke-dashoffset: 3339; }
    69.1%, 69.1% { stroke-dashoffset: 0; }
    69.2%, 100% { stroke-dashoffset: 3339; }
}
svg.acjk #stroke-p7 { animation-name: zk7; }
]]>
</style>
<defs>
    <path id="p1" d="M 334 221 C 314 208 244 184 272 233 C 298 280 316 345 330 425 C 334 449 342 468 356 485 C 379 512 380 489 382 468 C 382 458 381 448 380 439 C 372 398 353 326 343 260 C 341 247 345 229 334 221 Z"/>
    <path id="p2" d="M 474 196 C 452 199 389 211 334 221 C 321 224 330 262 343 260 C 360 260 366 247 476 233 C 511 228 511 228 528 226 C 602 215 643 211 654 219 C 660 223 661 236 657 259 C 640 341 630 382 618 409 C 614 419 608 432 614 442 C 637 483 655 454 661 445 C 669 434 683 401 701 347 C 713 308 734 278 762 257 C 776 245 778 233 766 221 C 753 208 729 190 691 171 C 657 153 670 164 530 187 C 493 193 493 193 474 196 Z"/>
    <path id="p3" d="M 521 339 C 550 334 576 329 602 326 C 637 321 615 293 579 288 C 564 285 545 287 524 294 C 493 303 493 303 478 307 C 449 315 422 323 396 330 C 384 333 383 343 400 350 C 422 358 458 347 478 345 C 507 341 507 341 521 339 Z"/>
    <path id="p4" d="M 530 187 C 531 161 538 135 545 110 C 546 103 542 94 529 86 C 507 72 487 67 473 65 C 454 61 437 71 451 91 C 475 125 471 156 474 196 C 475 221 475 221 476 233 C 477 256 478 281 478 307 C 478 332 478 332 478 345 C 478 369 477 395 477 423 C 477 436 516 428 516 415 C 518 388 519 362 521 339 C 523 309 523 309 524 294 C 525 278 527 240 528 226 C 529 200 529 200 530 187 Z"/>
    <path id="p5" d="M 382 468 C 405 475 400 456 614 442 C 625 442 628 413 618 409 C 599 400 565 404 516 415 C 490 420 490 420 477 423 C 442 430 410 435 380 439 C 370 441 372 466 382 468 Z"/>
    <path id="p6" d="M 442 561 C 488 555 628 544 864 544 C 901 543 898 521 879 507 C 838 475 797 470 754 479 C 628 504 429 526 158 556 C 143 557 141 565 152 577 C 157 583 186 609 226 600 C 280 586 337 573 399 566 C 428 563 428 563 442 561 Z"/>
    <path id="p7" d="M 399 566 C 405 590 408 606 406 614 C 402 628 393 643 382 660 C 377 666 367 673 354 683 C 340 692 336 702 338 712 C 339 722 344 733 356 744 C 364 752 375 754 386 748 C 423 724 474 700 540 679 C 576 666 606 664 626 677 C 640 686 643 703 639 726 C 629 765 613 799 590 828 C 574 846 562 858 550 862 C 536 866 520 859 501 855 C 469 847 469 847 453 843 C 432 837 424 838 447 862 C 473 890 493 918 511 944 C 517 953 524 956 532 957 C 542 957 554 954 568 946 C 616 914 661 852 694 758 C 702 734 705 714 717 704 C 725 696 727 687 720 677 C 710 664 690 652 663 637 C 649 629 635 626 619 631 C 578 642 524 657 456 672 C 442 675 437 668 445 656 C 458 632 470 620 476 615 C 500 588 464 571 442 561 C 429 556 396 552 399 566 Z"/>

    <clipPath id="z30009c1"><use href="#p1"/></clipPath>
    <clipPath id="z30009c2"><use href="#p2"/></clipPath>
    <clipPath id="z30009c3"><use href="#p3"/></clipPath>
    <clipPath id="z30009c4"><use href="#p4"/></clipPath>
    <clipPath id="z30009c5"><use href="#p5"/></clipPath>
    <clipPath id="z30009c6"><use href="#p6"/></clipPath>
    <clipPath id="z30009c7"><use href="#p7"/></clipPath>
</defs>
<g id="bg-layer" class="bg">
<use href="#p1"/>
<use href="#p2"/>
<use href="#p3"/>
<use href="#p4"/>
<use href="#p5"/>
<use href="#p6"/>
<use href="#p7"/>
</g>
<g id="anim-layer">
    <path id="stroke-p1" style="stroke:#FF4444" pathLength="3333" clip-path="url(#z30009c1)" d="M 273 212 L 315 253 L 365 492"/>
    <path id="stroke-p2" style="stroke:#FF4444" pathLength="3333" clip-path="url(#z30009c2)" d="M 331 239 L 678 198 L 720 247 L 626 456"/>
    <path id="stroke-p3" style="stroke:#FF4444" pathLength="3333" clip-path="url(#z30009c3)" d="M 393 340 L 614 310"/>
    <path id="stroke-p4" style="stroke:#FF4444" pathLength="3333" clip-path="url(#z30009c4)" d="M 453 73 L 506 118 L 497 426"/>
    <path id="stroke-p5" style="stroke:#FF4444" pathLength="3333" clip-path="url(#z30009c5)" d="M 378 455 L 621 424"/>
    <path id="stroke-p6" style="stroke:#000" pathLength="3333" clip-path="url(#z30009c6)" d="M 154 564 L 228 574 L 775 510 L 889 525"/>
    <path id="stroke-p7" style="stroke:#000" pathLength="3333" clip-path="url(#z30009c7)" d="M 407 562 L 445 600 L 393 685 L 401 712 L 613 650 L 682 693 L 634 820 L 569 897 L 528 908 L 441 846"/>
</g>
</svg>