<svg id="z30571" class="acjk" viewBox="0 0 1024 1024" xmlns="http://www.w3.org/2000/svg">
<style>
<![CDATA[
svg.acjk path[clip-path] {
    animation-duration: 12.9s;
    animation-timing-function: linear;
    animation-iteration-count: infinite;
    stroke-dasharray: 3337;
    stroke-dashoffset: 3339;
    stroke-width: 128;
    stroke-linecap: round;
    fill: none;
    stroke: #FF4444;
}
svg.acjk .bg { fill: #ccc; opacity: 0.5; }

/* Stroke 1: Starts at 0.0%, finishes at 6.2%, holds until 80.6% */
@keyframes zk1 {
    0%, 0.0% { stroke-dashoffset: 3339; }
    6.2%, 80.6% { stroke-dashoffset: 0; }
    80.7%, 100% { stroke-dashoffset: 3339; }
}
svg.acjk #stroke-p1 { animation-name: zk1; }
/* Stroke 2: Starts at 6.2%, finishes at 12.4%, holds until 80.6% */
@keyframes zk2 {
    0%, 6.2% { stroke-dashoffset: 3339; }
    12.4%, 80.6% { stroke-dashoffset: 0; }
    80.7%, 100% { stroke-dashoffset: 3339; }
}
svg.acjk #stroke-p2 { animation-name: zk2; }
/* Stroke 3: Starts at 12.4%, finishes at 18.6%, holds until 80.6% */
@keyframes zk3 {
    0%, 12.4% { stroke-dashoffset: 3339; }
    18.6%, 80.6% { stroke-dashoffset: 0; }
    80.7%, 100% { stroke-dashoffset: 3339; }
}
svg.acjk #stroke-p3 { animation-name: zk3; }
/* Stroke 4: Starts at 18.6%, finishes at 24.8%, holds until 80.6% */
@keyframes zk4 {
    0%, 18.6% { stroke-dashoffset: 3339; }
    24.8%, 80.6% { stroke-dashoffset: 0; }
    80.7%, 100% { stroke-dashoffset: 3339; }
}
svg.acjk #stroke-p4 { animation-name: zk4; }
/* Stroke 5: Starts at 24.8%, finishes at 31.0%, holds until 80.6% */
@keyframes zk5 {
    0%, 24.8% { stroke-dashoffset: 3339; }
    31.0%, 80.6% { stroke-dashoffset: 0; }
    80.7%, 100% { stroke-dashoffset: 3339; }
}
svg.acjk #stroke-p5 { animation-name: zk5; }
/* Stroke 6: Starts at 31.0%, finishes at 37.2%, holds until 80.6% */
@keyframes zk6 {
    0%, 31.0% { stroke-dashoffset: 3339; }
    37.2%, 80.6% { stroke-dashoffset: 0; }
    80.7%, 100% { stroke-dashoffset: 3339; }
}
svg.acjk #stroke-p6 { animation-name: zk6; }
/* Stroke 7: Starts at 37.2%, finishes at 43.4%, holds until 80.6% */
@keyframes zk7 {
    0%, 37.2% { stroke-dashoffset: 3339; }
    43.4%, 80.6% { stroke-dashoffset: 0; }
    80.7%, 100% { stroke-dashoffset: 3339; }
}
svg.acjk #stroke-p7 { animation-name: zk7; }
/* Stroke 8: Starts at 43.4%, finishes at 49.6%, holds until 80.6% */
@keyframes zk8 {
    0%, 43.4% { stroke-dashoffset: 3339; }
    49.6%, 80.6% { stroke-dashoffset: 0; }
    80.7%, 100% { stroke-dashoffset: 3339; }
}
svg.acjk #stroke-p8 { animation-name: zk8; }
/* Stroke 9: Starts at 49.6%, finishes at 55.8%, holds until 80.6% */
@keyframes zk9 {
    0%, 49.6% { stroke-dashoffset: 3339; }
    55.8%, 80.6% { stroke-dashoffset: 0; }
    80.7%, 100% { stroke-dashoffset: 3339; }
}
svg.acjk #stroke-p9 { animation-name: zk9; }
/* Stroke 10: Starts at 55.8%, finishes at 62.0%, holds until 80.6% */
@keyframes zk10 {
    0%, 55.8% { stroke-dashoffset: 3339; }
    62.0%, 80.6% { stroke-dashoffset: 0; }
    80.7%, 100% { stroke-dashoffset: 3339; }
}
svg.acjk #stroke-p10 { animation-name: zk10; }
/* Stroke 11: Starts at 62.0%, finishes at 68.2%, holds until 80.6% */
@keyframes zk11 {
    0%, 62.0% { stroke-dashoffset: 3339; }
    68.2%, 80.6% { stroke-dashoffset: 0; }
    80.7%, 100% { stroke-dashoffset: 3339; }
}
svg.acjk #stroke-p11 { animation-name: zk11; }
/* Stroke 12: Starts at 68.2%, finishes at 74.4%, holds until 80.6% */
@keyframes zk12 {
    0%, 68.2% { stroke-dashoffset: 3339; }
    74.4%, 80.6% { stroke-dashoffset: 0; }
    80.7%, 100% { stroke-dashoffset: 3339; }
}
svg.acjk #stroke-p12 { animation-name: zk12; }
/* Stroke 13: Starts at 74.4%, finishes at 80.6%, holds until 80.6% */
@keyframes zk13 {
    0%, 74.4% { stroke-dashoffset: 3339; }
    80.6%, 80.6% { stroke-dashoffset: 0; }
    80.7%, 100% { stroke-dashoffset: 3339; }
}
svg.acjk #stroke-p13 { animation-name: zk13; }
]]>
</style>
<defs>
    <path id="p1" d="M 178 225 Q 157 210 141 204 Q 131 200 120 203 Q 113 209 119 221 Q 140 294 141 306 Q 141 312 142 319 Q 154 536 124 665 Q 111 719 146 763 Q 156 776 167 763 Q 179 748 179 724 C 181 703 181 703 182 693 Q 182 678 183 543 C 184 522 184 522 184 512 Q 184 455 185 413 C 185 393 185 393 185 383 Q 186 277 188 265 Q 189 256 189 251 C 189 242 186 231 178 225 Z"/>
    <path id="p2" d="M 287 712 Q 299 730 310 747 Q 326 771 333 768 Q 346 765 361 730 Q 376 691 371 642 Q 364 542 361 323 Q 360 266 376 238 Q 386 220 378 210 Q 371 200 322 185 Q 298 176 281 186 Q 226 213 178 225 C 169 227 180 253 189 251 Q 216 245 263 230 Q 291 220 302 230 Q 317 243 316 301 Q 319 536 307 664 Q 311 688 292 684 C 283 682 281 704 287 712 Z"/>
    <path id="p3" d="M 185 413 Q 231 403 269 398 Q 290 394 281 383 Q 271 370 248 368 Q 203 365 185 383 C 178 390 175 415 185 413 Z"/>
    <path id="p4" d="M 183 543 Q 232 534 272 530 Q 293 526 285 515 Q 275 502 253 499 Q 213 493 184 512 C 175 517 173 545 183 543 Z"/>
    <path id="p5" d="M 179 724 Q 239 715 287 712 C 296 712 301 688 292 684 Q 283 680 271 677 Q 246 671 182 693 C 172 697 169 726 179 724 Z"/>
    <path id="p6" d="M 638 229 Q 770 190 776 186 Q 783 179 779 171 Q 772 161 745 155 Q 718 151 641 183 C 604 195 604 195 586 201 Q 537 213 482 222 Q 449 229 474 243 Q 508 259 574 245 Q 578 244 586 243 C 621 234 621 234 638 229 Z"/>
    <path id="p7" d="M 755 496 Q 762 453 772 424 C 783 396 783 396 789 382 Q 802 351 821 333 Q 837 314 822 299 Q 806 287 755 266 Q 737 260 718 269 Q 675 288 635 302 C 602 312 602 312 585 317 Q 518 333 451 345 Q 435 346 437 356 Q 440 363 458 369 Q 483 378 515 365 Q 548 356 584 348 C 617 339 617 339 634 335 Q 718 310 732 320 Q 745 333 742 359 Q 738 377 735 396 C 730 419 730 419 728 430 Q 721 460 713 488 C 708 502 752 510 755 496 Z"/>
    <path id="p8" d="M 772 424 Q 811 418 929 409 Q 945 408 949 400 Q 953 390 938 380 Q 890 350 825 371 Q 807 375 789 382 C 753 391 753 391 735 396 Q 645 415 633 420 C 600 427 600 427 584 431 Q 494 447 397 469 Q 379 472 393 485 Q 421 506 451 497 Q 512 473 584 458 C 617 451 617 451 633 447 Q 673 437 728 430 C 757 426 757 426 772 424 Z"/>
    <path id="p9" d="M 631 549 Q 688 537 765 527 Q 775 526 777 516 Q 777 509 755 496 C 743 489 727 485 713 488 Q 683 494 632 511 C 599 520 599 520 583 524 Q 519 537 465 548 Q 446 552 459 568 Q 466 575 476 579 Q 477 579 583 558 C 615 552 615 552 631 549 Z"/>
    <path id="p10" d="M 629 781 Q 629 723 630 668 C 630 649 630 649 630 639 Q 630 593 631 549 C 632 524 632 524 632 511 Q 632 478 633 447 C 633 429 633 429 633 420 Q 633 392 634 364 Q 634 349 634 335 C 635 313 635 313 635 302 Q 636 262 638 229 C 640 198 640 198 641 183 Q 641 141 652 104 Q 664 83 650 70 Q 613 42 585 35 Q 569 31 555 43 Q 549 50 556 62 Q 589 116 587 177 Q 587 189 586 201 C 586 229 586 229 586 243 Q 585 279 585 317 C 584 338 584 338 584 348 Q 583 388 584 431 C 584 449 584 449 584 458 Q 583 489 583 524 C 583 547 583 547 583 558 Q 583 655 583 758 C 583 775 629 798 629 781 Z"/>
    <path id="p11" d="M 630 668 Q 669 672 755 652 Q 765 649 779 646 Q 795 642 797 639 Q 804 632 800 623 Q 793 613 763 608 Q 735 604 706 618 Q 688 624 630 639 C 621 641 620 668 630 668 Z"/>
    <path id="p12" d="M 492 703 Q 501 690 512 677 Q 522 665 509 651 Q 470 615 446 618 Q 436 619 436 634 Q 443 722 327 847 Q 308 856 278 893 Q 269 906 284 903 Q 332 899 420 802 Q 445 772 478 722 C 487 709 487 709 492 703 Z"/>
    <path id="p13" d="M 478 722 Q 763 933 823 934 Q 877 934 973 896 Q 989 890 990 885 Q 991 878 976 876 Q 916 864 847 854 Q 738 836 629 781 C 598 766 598 766 583 758 Q 570 751 556 742 Q 516 717 492 703 C 485 699 472 717 478 722 Z"/>

    <clipPath id="z30571c1"><use href="#p1"/></clipPath>
    <clipPath id="z30571c2"><use href="#p2"/></clipPath>
    <clipPath id="z30571c3"><use href="#p3"/></clipPath>
    <clipPath id="z30571c4"><use href="#p4"/></clipPath>
    <clipPath id="z30571c5"><use href="#p5"/></clipPath>
    <clipPath id="z30571c6"><use href="#p6"/></clipPath>
    <clipPath id="z30571c7"><use href="#p7"/></clipPath>
    <clipPath id="z30571c8"><use href="#p8"/></clipPath>
    <clipPath id="z30571c9"><use href="#p9"/></clipPath>
    <clipPath id="z30571c10"><use href="#p10"/></clipPath>
    <clipPath id="z30571c11"><use href="#p11"/></clipPath>
    <clipPath id="z30571c12"><use href="#p12"/></clipPath>
    <clipPath id="z30571c13"><use href="#p13"/></clipPath>
</defs>
<g id="bg-layer" class="bg">
<use href="#p1"/>
<use href="#p2"/>
<use href="#p3"/>
<use href="#p4"/>
<use href="#p5"/>
<use href="#p6"/>
<use href="#p7"/>
<use href="#p8"/>
<use href="#p9"/>
<use href="#p10"/>
<use href="#p11"/>
<use href="#p12"/>
<use href="#p13"/>
</g>
<g id="anim-layer">
    <path id="stroke-p1" style="stroke:#FF4444" pathLength="3333" clip-path="url(#z30571c1)" d="M 126 211 L 163 294 L 160 765"/>
    <path id="stroke-p2" style="stroke:#FF4444" pathLength="3333" clip-path="url(#z30571c2)" d="M 185 227 L 297 203 L 346 232 L 340 672 L 313 749"/>
    <path id="stroke-p3" style="stroke:#FF4444" pathLength="3333" clip-path="url(#z30571c3)" d="M 190 404 L 275 386"/>
    <path id="stroke-p4" style="stroke:#FF4444" pathLength="3333" clip-path="url(#z30571c4)" d="M 189 534 L 280 518"/>
    <path id="stroke-p5" style="stroke:#FF4444" pathLength="3333" clip-path="url(#z30571c5)" d="M 184 716 L 288 694"/>
    <path id="stroke-p6" style="stroke:#000" pathLength="3333" clip-path="url(#z30571c6)" d="M 469 231 L 775 173"/>
    <path id="stroke-p7" style="stroke:#000" pathLength="3333" clip-path="url(#z30571c7)" d="M 445 354 L 752 297 L 785 325 L 726 489"/>
    <path id="stroke-p8" style="stroke:#000" pathLength="3333" clip-path="url(#z30571c8)" d="M 393 475 L 850 390 L 945 398"/>
    <path id="stroke-p9" style="stroke:#000" pathLength="3333" clip-path="url(#z30571c9)" d="M 461 557 L 769 515"/>
    <path id="stroke-p10" style="stroke:#000" pathLength="3333" clip-path="url(#z30571c10)" d="M 558 44 L 618 97 L 606 748 L 622 773"/>
    <path id="stroke-p11" style="stroke:#000" pathLength="3333" clip-path="url(#z30571c11)" d="M 639 661 L 797 632"/>
    <path id="stroke-p12" style="stroke:#000" pathLength="3333" clip-path="url(#z30571c12)" d="M 446 624 L 474 672 L 436 740 L 284 898"/>
    <path id="stroke-p13" style="stroke:#000" pathLength="3333" clip-path="url(#z30571c13)" d="M 494 710 L 669 828 L 801 886 L 984 883"/>
</g>
</svg>