<svg id="z30717" class="acjk" viewBox="0 0 1024 1024" xmlns="http://www.w3.org/2000/svg">
<style>
<![CDATA[
svg.acjk path[clip-path] {
    animation-duration: 8.9s;
    animation-timing-function: linear;
    animation-iteration-count: infinite;
    stroke-dasharray: 3337;
    stroke-dashoffset: 3339;
    stroke-width: 128;
    stroke-linecap: round;
    fill: none;
    stroke: #FF4444;
}
svg.acjk .bg { fill: #ccc; opacity: 0.5; }

/* Stroke 1: Starts at 0.0%, finishes at 9.0%, holds until 71.9% */
@keyframes zk1 {
    0%, 0.0% { stroke-dashoffset: 3339; }
    9.0%, 71.9% { stroke-dashoffset: 0; }
    72.0%, 100% { stroke-dashoffset: 3339; }
}
svg.acjk #stroke-p1 { animation-name: zk1; }
/* Stroke 2: Starts at 9.0%, finishes at 18.0%, holds until 71.9% */
@keyframes zk2 {
    0%, 9.0% { stroke-dashoffset: 3339; }
    18.0%, 71.9% { stroke-dashoffset: 0; }
    72.0%, 100% { stroke-dashoffset: 3339; }
}
svg.acjk #stroke-p2 { animation-name: zk2; }
/* Stroke 3: Starts at 18.0%, finishes at 27.0%, holds until 71.9% */
@keyframes zk3 {
    0%, 18.0% { stroke-dashoffset: 3339; }
    27.0%, 71.9% { stroke-dashoffset: 0; }
    72.0%, 100% { stroke-dashoffset: 3339; }
}
svg.acjk #stroke-p3 { animation-name: zk3; }
/* Stroke 4: Starts at 27.0%, finishes at 36.0%, holds until 71.9% */
@keyframes zk4 {
    0%, 27.0% { stroke-dashoffset: 3339; }
    36.0%, 71.9% { stroke-dashoffset: 0; }
    72.0%, 100% { stroke-dashoffset: 3339; }
}
svg.acjk #stroke-p4 { animation-name: zk4; }
/* Stroke 5: Starts at 36.0%, finishes at 44.9%, holds until 71.9% */
@keyframes zk5 {
    0%, 36.0% { stroke-dashoffset: 3339; }
    44.9%, 71.9% { stroke-dashoffset: 0; }
    72.0%, 100% { stroke-dashoffset: 3339; }
}
svg.acjk #stroke-p5 { animation-name: zk5; }
/* Stroke 6: Starts at 44.9%, finishes at 53.9%, holds until 71.9% */
@keyframes zk6 {
    0%, 44.9% { stroke-dashoffset: 3339; }
    53.9%, 71.9% { stroke-dashoffset: 0; }
    72.0%, 100% { stroke-dashoffset: 3339; }
}
svg.acjk #stroke-p6 { animation-name: zk6; }
/* Stroke 7: Starts at 53.9%, finishes at 62.9%, holds until 71.9% */
@keyframes zk7 {
    0%, 53.9% { stroke-dashoffset: 3339; }
    62.9%, 71.9% { stroke-dashoffset: 0; }
    72.0%, 100% { stroke-dashoffset: 3339; }
}
svg.acjk #stroke-p7 { animation-name: zk7; }
/* Stroke 8: Starts at 62.9%, finishes at 71.9%, holds until 71.9% */
@keyframes zk8 {
    0%, 62.9% { stroke-dashoffset: 3339; }
    71.9%, 71.9% { stroke-dashoffset: 0; }
    72.0%, 100% { stroke-dashoffset: 3339; }
}
svg.acjk #stroke-p8 { animation-name: zk8; }
]]>
</style>
<defs>
    <path id="p1" d="M 298 257 C 399 230 452 215 455 213 C 461 208 462 202 459 197 C 454 189 442 182 422 179 C 404 176 360 191 286 212 C 232 227 191 232 164 237 C 140 242 137 250 155 260 C 179 272 211 279 248 270 C 281 261 281 261 298 257 Z"/>
    <path id="p2" d="M 249 465 C 270 427 288 380 313 322 C 323 298 328 284 328 282 C 327 277 317 266 298 257 C 282 251 245 253 248 270 C 258 314 241 378 201 463 C 187 492 187 492 180 507 C 153 563 99 628 31 709 C 27 713 27 717 35 716 C 71 707 161 618 195 559 C 231 496 231 496 249 465 Z"/>
    <path id="p3" d="M 201 463 C 197 461 191 460 185 459 C 176 457 171 457 169 460 C 164 465 165 472 170 483 C 173 489 177 497 180 507 C 190 542 190 542 195 559 C 202 585 209 616 213 651 C 215 671 220 689 232 704 C 244 718 251 720 255 711 C 258 700 261 685 259 666 C 256 643 256 643 255 632 C 247 565 239 521 238 501 C 238 483 217 470 201 463 Z"/>
    <path id="p4" d="M 406 599 C 416 541 431 504 448 486 C 463 468 461 453 445 445 C 401 422 378 412 378 412 C 371 412 364 413 357 419 C 332 437 298 455 249 465 C 233 467 216 467 201 463 C 184 460 221 507 238 501 C 264 493 297 483 337 473 C 353 468 363 469 368 475 C 373 481 369 522 353 600 C 350 617 403 616 406 599 Z"/>
    <path id="p5" d="M 259 666 C 282 661 352 642 423 631 C 429 629 433 626 434 620 C 434 615 424 608 406 599 C 390 592 370 594 353 600 C 316 612 283 622 255 632 C 244 636 248 668 259 666 Z"/>
    <path id="p6" d="M 599 320 C 618 296 634 269 649 243 C 668 208 687 175 706 147 C 712 137 712 127 701 118 C 669 93 644 85 628 89 C 619 90 617 96 619 107 C 631 177 593 267 512 362 C 506 368 480 396 461 419 C 453 428 457 432 468 430 C 491 424 532 399 579 344 C 592 328 592 328 599 320 Z"/>
    <path id="p7" d="M 762 396 C 703 606 562 776 335 905 C 328 908 325 912 326 916 C 326 920 330 921 336 921 C 354 919 384 909 424 892 C 466 873 509 845 553 811 C 605 769 655 716 702 650 C 748 583 792 496 838 392 C 848 368 864 349 885 336 C 896 328 902 322 902 315 C 901 304 888 294 866 282 C 836 266 817 257 807 258 C 798 258 791 265 780 270 C 703 301 629 314 599 320 C 589 322 570 339 579 344 C 611 362 663 355 735 327 C 752 319 766 318 774 323 C 780 326 774 350 762 396 Z"/>
    <path id="p8" d="M 548 494 C 569 514 590 535 612 559 C 620 567 628 571 638 571 C 644 571 649 568 653 559 C 656 551 656 538 652 519 C 647 497 613 473 547 450 C 538 447 531 446 527 448 C 524 450 523 456 524 463 C 524 470 532 480 548 494 Z"/>

    <clipPath id="z30717c1"><use href="#p1"/></clipPath>
    <clipPath id="z30717c2"><use href="#p2"/></clipPath>
    <clipPath id="z30717c3"><use href="#p3"/></clipPath>
    <clipPath id="z30717c4"><use href="#p4"/></clipPath>
    <clipPath id="z30717c5"><use href="#p5"/></clipPath>
    <clipPath id="z30717c6"><use href="#p6"/></clipPath>
    <clipPath id="z30717c7"><use href="#p7"/></clipPath>
    <clipPath id="z30717c8"><use href="#p8"/></clipPath>
</defs>
<g id="bg-layer" class="bg">
<use href="#p1"/>
<use href="#p2"/>
<use href="#p3"/>
<use href="#p4"/>
<use href="#p5"/>
<use href="#p6"/>
<use href="#p7"/>
<use href="#p8"/>
</g>
<g id="anim-layer">
    <path id="stroke-p1" style="stroke:#FF4444" pathLength="3333" clip-path="url(#z30717c1)" d="M 145 247 L 221 250 L 461 200"/>
    <path id="stroke-p2" style="stroke:#FF4444" pathLength="3333" clip-path="url(#z30717c2)" d="M 253 278 L 287 303 L 227 458 L 142 599 L 37 711"/>
    <path id="stroke-p3" style="stroke:#FF4444" pathLength="3333" clip-path="url(#z30717c3)" d="M 176 465 L 211 512 L 242 709"/>
    <path id="stroke-p4" style="stroke:#FF4444" pathLength="3333" clip-path="url(#z30717c4)" d="M 210 472 L 241 483 L 370 442 L 412 467 L 369 599"/>
    <path id="stroke-p5" style="stroke:#FF4444" pathLength="3333" clip-path="url(#z30717c5)" d="M 261 658 L 427 618"/>
    <path id="stroke-p6" style="stroke:#000" pathLength="3333" clip-path="url(#z30717c6)" d="M 626 92 L 664 138 L 631 221 L 558 337 L 465 423"/>
    <path id="stroke-p7" style="stroke:#000" pathLength="3333" clip-path="url(#z30717c7)" d="M 589 342 L 789 291 L 847 328 L 728 558 L 625 707 L 470 844 L 335 914"/>
    <path id="stroke-p8" style="stroke:#000" pathLength="3333" clip-path="url(#z30717c8)" d="M 527 453 L 625 527 L 640 571"/>
</g>
</svg>