<svg id="z31072" class="acjk" viewBox="0 0 1024 1024" xmlns="http://www.w3.org/2000/svg">
<style>
<![CDATA[
svg.acjk path[clip-path] {
    animation-duration: 9.7s;
    animation-timing-function: linear;
    animation-iteration-count: infinite;
    stroke-dasharray: 3337;
    stroke-dashoffset: 3339;
    stroke-width: 128;
    stroke-linecap: round;
    fill: none;
    stroke: #FF4444;
}
svg.acjk .bg { fill: #ccc; opacity: 0.5; }

/* Stroke 1: Starts at 0.0%, finishes at 8.2%, holds until 74.2% */
@keyframes zk1 {
    0%, 0.0% { stroke-dashoffset: 3339; }
    8.2%, 74.2% { stroke-dashoffset: 0; }
    74.3%, 100% { stroke-dashoffset: 3339; }
}
svg.acjk #stroke-p1 { animation-name: zk1; }
/* Stroke 2: Starts at 8.2%, finishes at 16.5%, holds until 74.2% */
@keyframes zk2 {
    0%, 8.2% { stroke-dashoffset: 3339; }
    16.5%, 74.2% { stroke-dashoffset: 0; }
    74.3%, 100% { stroke-dashoffset: 3339; }
}
svg.acjk #stroke-p2 { animation-name: zk2; }
/* Stroke 3: Starts at 16.5%, finishes at 24.7%, holds until 74.2% */
@keyframes zk3 {
    0%, 16.5% { stroke-dashoffset: 3339; }
    24.7%, 74.2% { stroke-dashoffset: 0; }
    74.3%, 100% { stroke-dashoffset: 3339; }
}
svg.acjk #stroke-p3 { animation-name: zk3; }
/* Stroke 4: Starts at 24.7%, finishes at 33.0%, holds until 74.2% */
@keyframes zk4 {
    0%, 24.7% { stroke-dashoffset: 3339; }
    33.0%, 74.2% { stroke-dashoffset: 0; }
    74.3%, 100% { stroke-dashoffset: 3339; }
}
svg.acjk #stroke-p4 { animation-name: zk4; }
/* Stroke 5: Starts at 33.0%, finishes at 41.2%, holds until 74.2% */
@keyframes zk5 {
    0%, 33.0% { stroke-dashoffset: 3339; }
    41.2%, 74.2% { stroke-dashoffset: 0; }
    74.3%, 100% { stroke-dashoffset: 3339; }
}
svg.acjk #stroke-p5 { animation-name: zk5; }
/* Stroke 6: Starts at 41.2%, finishes at 49.5%, holds until 74.2% */
@keyframes zk6 {
    0%, 41.2% { stroke-dashoffset: 3339; }
    49.5%, 74.2% { stroke-dashoffset: 0; }
    74.3%, 100% { stroke-dashoffset: 3339; }
}
svg.acjk #stroke-p6 { animation-name: zk6; }
/* Stroke 7: Starts at 49.5%, finishes at 57.7%, holds until 74.2% */
@keyframes zk7 {
    0%, 49.5% { stroke-dashoffset: 3339; }
    57.7%, 74.2% { stroke-dashoffset: 0; }
    74.3%, 100% { stroke-dashoffset: 3339; }
}
svg.acjk #stroke-p7 { animation-name: zk7; }
/* Stroke 8: Starts at 57.7%, finishes at 66.0%, holds until 74.2% */
@keyframes zk8 {
    0%, 57.7% { stroke-dashoffset: 3339; }
    66.0%, 74.2% { stroke-dashoffset: 0; }
    74.3%, 100% { stroke-dashoffset: 3339; }
}
svg.acjk #stroke-p8 { animation-name: zk8; }
/* Stroke 9: Starts at 66.0%, finishes at 74.2%, holds until 74.2% */
@keyframes zk9 {
    0%, 66.0% { stroke-dashoffset: 3339; }
    74.2%, 74.2% { stroke-dashoffset: 0; }
    74.3%, 100% { stroke-dashoffset: 3339; }
}
svg.acjk #stroke-p9 { animation-name: zk9; }
]]>
</style>
<defs>
    <path id="p1" d="M 280 119 Q 328 174 367 195 Q 383 198 394 183 Q 401 170 399 150 Q 387 102 297 77 Q 296 76 295 76 Q 276 72 266 75 Q 259 76 261 90 Q 262 103 280 119 Z"/>
    <path id="p2" d="M 271 526 Q 302 483 335 431 Q 371 373 420 335 Q 436 323 423 308 Q 404 293 374 283 Q 352 274 334 286 Q 253 346 97 358 Q 85 357 82 364 Q 79 374 95 385 Q 134 410 151 408 Q 167 405 293 349 Q 309 342 314 349 Q 320 359 306 384 Q 231 534 48 717 Q 33 727 36 731 Q 39 734 52 729 Q 154 677 247 558 C 263 537 263 537 271 526 Z"/>
    <path id="p3" d="M 247 558 Q 274 585 254 745 Q 241 830 241 835 Q 250 880 266 897 Q 282 912 294 887 Q 307 848 307 805 Q 308 642 315 605 Q 322 580 313 570 Q 280 531 271 526 C 261 518 239 547 247 558 Z"/>
    <path id="p4" d="M 355 512 Q 409 561 417 562 Q 424 561 429 551 Q 433 541 427 517 Q 421 495 353 475 Q 341 472 336 474 Q 332 477 333 486 Q 334 495 355 512 Z"/>
    <path id="p5" d="M 479 204 Q 457 204 457 216 Q 458 226 481 242 Q 508 260 558 244 Q 792 175 800 214 Q 801 239 799 352 Q 795 565 799 698 Q 803 795 794 807 Q 791 817 779 819 Q 767 820 695 820 Q 682 819 679 825 Q 678 834 708 848 Q 757 873 793 902 Q 824 927 834 922 Q 844 919 851 902 Q 875 845 868 809 Q 826 277 881 222 Q 888 210 887 205 Q 888 193 856 172 Q 807 139 777 148 Q 645 196 479 204 Z"/>
    <path id="p6" d="M 508 353 Q 471 362 498 377 Q 543 401 599 383 Q 642 373 689 362 Q 710 356 712 353 Q 721 344 716 336 Q 709 324 678 318 Q 654 315 571 342 Q 541 349 508 353 Z"/>
    <path id="p7" d="M 506 498 Q 496 492 471 487 Q 461 483 457 488 Q 451 494 458 508 Q 480 560 491 643 Q 492 668 506 685 Q 521 706 526 692 Q 530 682 531 664 C 530 643 530 643 529 633 Q 519 549 518 524 C 518 514 515 502 506 498 Z"/>
    <path id="p8" d="M 669 613 Q 687 544 709 523 Q 731 499 710 486 Q 691 476 667 458 Q 649 448 605 472 Q 556 490 506 498 C 497 500 509 528 518 524 Q 518 523 521 523 Q 567 513 605 504 Q 632 498 637 509 Q 644 515 636 545 Q 629 575 621 610 C 618 626 666 629 669 613 Z"/>
    <path id="p9" d="M 531 664 Q 538 665 548 663 Q 590 653 681 645 Q 691 644 692 635 Q 692 628 669 613 C 656 603 637 607 621 610 C 620 610 620 610 620 610 Q 571 623 529 633 C 519 635 521 664 531 664 Z"/>

    <clipPath id="z31072c1"><use href="#p1"/></clipPath>
    <clipPath id="z31072c2"><use href="#p2"/></clipPath>
    <clipPath id="z31072c3"><use href="#p3"/></clipPath>
    <clipPath id="z31072c4"><use href="#p4"/></clipPath>
    <clipPath id="z31072c5"><use href="#p5"/></clipPath>
    <clipPath id="z31072c6"><use href="#p6"/></clipPath>
    <clipPath id="z31072c7"><use href="#p7"/></clipPath>
    <clipPath id="z31072c8"><use href="#p8"/></clipPath>
    <clipPath id="z31072c9"><use href="#p9"/></clipPath>
</defs>
<g id="bg-layer" class="bg">
<use href="#p1"/>
<use href="#p2"/>
<use href="#p3"/>
<use href="#p4"/>
<use href="#p5"/>
<use href="#p6"/>
<use href="#p7"/>
<use href="#p8"/>
<use href="#p9"/>
</g>
<g id="anim-layer">
    <path id="stroke-p1" style="stroke:#FF4444" pathLength="3333" clip-path="url(#z31072c1)" d="M 267 82 L 393 180"/>
    <path id="stroke-p2" style="stroke:#FF4444" pathLength="3333" clip-path="url(#z31072c2)" d="M 90 365 L 160 378 L 332 313 L 376 339 L 185 599 L 45 726"/>
    <path id="stroke-p3" style="stroke:#FF4444" pathLength="3333" clip-path="url(#z31072c3)" d="M 270 536 L 289 592 L 277 896"/>
    <path id="stroke-p4" style="stroke:#FF4444" pathLength="3333" clip-path="url(#z31072c4)" d="M 339 483 L 400 519 L 420 557"/>
    <path id="stroke-p5" style="stroke:#000" pathLength="3333" clip-path="url(#z31072c5)" d="M 465 216 L 546 223 L 782 173 L 843 216 L 824 387 L 830 832 L 807 873 L 685 826"/>
    <path id="stroke-p6" style="stroke:#000" pathLength="3333" clip-path="url(#z31072c6)" d="M 495 365 L 713 340"/>
    <path id="stroke-p7" style="stroke:#000" pathLength="3333" clip-path="url(#z31072c7)" d="M 463 496 L 494 532 L 517 691"/>
    <path id="stroke-p8" style="stroke:#000" pathLength="3333" clip-path="url(#z31072c8)" d="M 515 499 L 644 480 L 674 501 L 632 607"/>
    <path id="stroke-p9" style="stroke:#000" pathLength="3333" clip-path="url(#z31072c9)" d="M 539 656 L 620 630 L 686 635"/>
</g>
</svg>