<svg id="z31090" class="acjk" viewBox="0 0 1024 1024" xmlns="http://www.w3.org/2000/svg">
<style>
<![CDATA[
svg.acjk path[clip-path] {
    animation-duration: 11.3s;
    animation-timing-function: linear;
    animation-iteration-count: infinite;
    stroke-dasharray: 3337;
    stroke-dashoffset: 3339;
    stroke-width: 128;
    stroke-linecap: round;
    fill: none;
    stroke: #FF4444;
}
svg.acjk .bg { fill: #ccc; opacity: 0.5; }

/* Stroke 1: Starts at 0.0%, finishes at 7.1%, holds until 77.9% */
@keyframes zk1 {
    0%, 0.0% { stroke-dashoffset: 3339; }
    7.1%, 77.9% { stroke-dashoffset: 0; }
    78.0%, 100% { stroke-dashoffset: 3339; }
}
svg.acjk #stroke-p1 { animation-name: zk1; }
/* Stroke 2: Starts at 7.1%, finishes at 14.2%, holds until 77.9% */
@keyframes zk2 {
    0%, 7.1% { stroke-dashoffset: 3339; }
    14.2%, 77.9% { stroke-dashoffset: 0; }
    78.0%, 100% { stroke-dashoffset: 3339; }
}
svg.acjk #stroke-p2 { animation-name: zk2; }
/* Stroke 3: Starts at 14.2%, finishes at 21.2%, holds until 77.9% */
@keyframes zk3 {
    0%, 14.2% { stroke-dashoffset: 3339; }
    21.2%, 77.9% { stroke-dashoffset: 0; }
    78.0%, 100% { stroke-dashoffset: 3339; }
}
svg.acjk #stroke-p3 { animation-name: zk3; }
/* Stroke 4: Starts at 21.2%, finishes at 28.3%, holds until 77.9% */
@keyframes zk4 {
    0%, 21.2% { stroke-dashoffset: 3339; }
    28.3%, 77.9% { stroke-dashoffset: 0; }
    78.0%, 100% { stroke-dashoffset: 3339; }
}
svg.acjk #stroke-p4 { animation-name: zk4; }
/* Stroke 5: Starts at 28.3%, finishes at 35.4%, holds until 77.9% */
@keyframes zk5 {
    0%, 28.3% { stroke-dashoffset: 3339; }
    35.4%, 77.9% { stroke-dashoffset: 0; }
    78.0%, 100% { stroke-dashoffset: 3339; }
}
svg.acjk #stroke-p5 { animation-name: zk5; }
/* Stroke 6: Starts at 35.4%, finishes at 42.5%, holds until 77.9% */
@keyframes zk6 {
    0%, 35.4% { stroke-dashoffset: 3339; }
    42.5%, 77.9% { stroke-dashoffset: 0; }
    78.0%, 100% { stroke-dashoffset: 3339; }
}
svg.acjk #stroke-p6 { animation-name: zk6; }
/* Stroke 7: Starts at 42.5%, finishes at 49.6%, holds until 77.9% */
@keyframes zk7 {
    0%, 42.5% { stroke-dashoffset: 3339; }
    49.6%, 77.9% { stroke-dashoffset: 0; }
    78.0%, 100% { stroke-dashoffset: 3339; }
}
svg.acjk #stroke-p7 { animation-name: zk7; }
/* Stroke 8: Starts at 49.6%, finishes at 56.6%, holds until 77.9% */
@keyframes zk8 {
    0%, 49.6% { stroke-dashoffset: 3339; }
    56.6%, 77.9% { stroke-dashoffset: 0; }
    78.0%, 100% { stroke-dashoffset: 3339; }
}
svg.acjk #stroke-p8 { animation-name: zk8; }
/* Stroke 9: Starts at 56.6%, finishes at 63.7%, holds until 77.9% */
@keyframes zk9 {
    0%, 56.6% { stroke-dashoffset: 3339; }
    63.7%, 77.9% { stroke-dashoffset: 0; }
    78.0%, 100% { stroke-dashoffset: 3339; }
}
svg.acjk #stroke-p9 { animation-name: zk9; }
/* Stroke 10: Starts at 63.7%, finishes at 70.8%, holds until 77.9% */
@keyframes zk10 {
    0%, 63.7% { stroke-dashoffset: 3339; }
    70.8%, 77.9% { stroke-dashoffset: 0; }
    78.0%, 100% { stroke-dashoffset: 3339; }
}
svg.acjk #stroke-p10 { animation-name: zk10; }
/* Stroke 11: Starts at 70.8%, finishes at 77.9%, holds until 77.9% */
@keyframes zk11 {
    0%, 70.8% { stroke-dashoffset: 3339; }
    77.9%, 77.9% { stroke-dashoffset: 0; }
    78.0%, 100% { stroke-dashoffset: 3339; }
}
svg.acjk #stroke-p11 { animation-name: zk11; }
]]>
</style>
<defs>
    <path id="p1" d="M 293 128 Q 324 153 357 186 Q 372 199 388 198 Q 400 197 405 183 Q 409 168 400 137 Q 393 115 359 99 Q 281 69 264 77 Q 258 81 260 95 Q 264 105 293 128 Z"/>
    <path id="p2" d="M 265 498 Q 287 464 311 425 Q 342 370 389 334 Q 404 322 392 308 Q 373 293 344 283 Q 322 274 305 286 Q 224 337 87 343 Q 75 342 73 349 Q 69 358 83 369 Q 123 396 156 388 Q 165 385 177 381 Q 279 342 284 351 Q 290 360 279 382 Q 204 538 47 696 Q 34 708 36 711 Q 39 714 52 708 Q 148 657 240 533 C 257 510 257 510 265 498 Z"/>
    <path id="p3" d="M 240 533 Q 271 608 235 781 Q 219 803 244 864 Q 248 874 255 881 Q 271 896 282 871 Q 295 834 295 793 Q 296 612 302 570 Q 309 545 300 536 Q 284 517 265 498 C 255 488 235 520 240 533 Z"/>
    <path id="p4" d="M 327 517 Q 381 574 390 575 Q 397 576 402 567 Q 406 557 402 537 Q 398 513 327 484 Q 317 480 312 482 Q 308 483 308 493 Q 309 500 327 517 Z"/>
    <path id="p5" d="M 754 326 Q 776 224 812 194 Q 828 175 812 159 Q 796 147 744 126 Q 726 119 706 128 Q 637 161 539 177 Q 523 178 525 188 Q 529 195 546 201 Q 561 207 630 192 Q 714 174 719 179 Q 737 197 708 323 C 705 338 751 341 754 326 Z"/>
    <path id="p6" d="M 522 279 Q 506 283 526 297 Q 535 301 551 299 Q 630 283 688 272 Q 710 268 701 255 Q 691 242 667 239 Q 643 238 522 279 Z"/>
    <path id="p7" d="M 708 323 Q 704 323 703 324 Q 607 354 529 368 Q 510 372 523 388 Q 538 403 564 398 Q 628 379 769 359 Q 779 358 781 348 Q 781 341 754 326 C 741 318 723 320 708 323 Z"/>
    <path id="p8" d="M 495 464 Q 477 437 464 431 Q 460 427 455 432 Q 451 435 451 446 Q 458 474 433 540 Q 420 570 441 603 Q 448 613 453 605 Q 459 604 466 588 Q 470 581 476 555 Q 486 512 494 495 C 498 485 501 472 495 464 Z"/>
    <path id="p9" d="M 494 495 Q 512 502 545 492 Q 668 459 781 436 Q 812 432 815 446 Q 815 461 787 517 Q 780 532 787 535 Q 794 539 805 527 Q 875 470 903 459 Q 925 452 924 439 Q 923 427 853 395 Q 832 386 808 393 Q 732 415 668 431 Q 595 446 495 464 C 485 466 484 493 494 495 Z"/>
    <path id="p10" d="M 668 773 Q 705 721 739 638 Q 752 610 772 591 Q 791 576 778 563 Q 765 550 734 539 Q 712 532 684 544 Q 659 554 624 565 Q 590 575 531 583 Q 518 584 513 590 Q 509 597 527 605 Q 563 618 611 604 Q 657 586 666 586 Q 688 589 682 613 Q 666 686 634 736 Q 633 737 630 741 C 614 762 614 762 606 772 Q 546 835 432 868 Q 419 872 430 881 Q 436 885 475 883 Q 559 876 637 807 C 658 784 658 784 668 773 Z"/>
    <path id="p11" d="M 637 807 Q 682 858 762 924 Q 787 942 844 931 Q 929 913 946 907 Q 953 900 941 892 Q 928 885 812 853 Q 745 832 668 773 C 643 752 643 752 630 741 Q 596 710 560 672 Q 541 651 511 648 Q 501 647 492 653 Q 488 660 496 666 Q 529 684 597 762 Q 600 766 606 772 C 627 795 627 795 637 807 Z"/>

    <clipPath id="z31090c1"><use href="#p1"/></clipPath>
    <clipPath id="z31090c2"><use href="#p2"/></clipPath>
    <clipPath id="z31090c3"><use href="#p3"/></clipPath>
    <clipPath id="z31090c4"><use href="#p4"/></clipPath>
    <clipPath id="z31090c5"><use href="#p5"/></clipPath>
    <clipPath id="z31090c6"><use href="#p6"/></clipPath>
    <clipPath id="z31090c7"><use href="#p7"/></clipPath>
    <clipPath id="z31090c8"><use href="#p8"/></clipPath>
    <clipPath id="z31090c9"><use href="#p9"/></clipPath>
    <clipPath id="z31090c10"><use href="#p10"/></clipPath>
    <clipPath id="z31090c11"><use href="#p11"/></clipPath>
</defs>
<g id="bg-layer" class="bg">
<use href="#p1"/>
<use href="#p2"/>
<use href="#p3"/>
<use href="#p4"/>
<use href="#p5"/>
<use href="#p6"/>
<use href="#p7"/>
<use href="#p8"/>
<use href="#p9"/>
<use href="#p10"/>
<use href="#p11"/>
</g>
<g id="anim-layer">
    <path id="stroke-p1" style="stroke:#FF4444" pathLength="3333" clip-path="url(#z31090c1)" d="M 264 86 L 350 131 L 396 190"/>
    <path id="stroke-p2" style="stroke:#FF4444" pathLength="3333" clip-path="url(#z31090c2)" d="M 78 354 L 158 361 L 302 318 L 345 337 L 188 566 L 43 706"/>
    <path id="stroke-p3" style="stroke:#FF4444" pathLength="3333" clip-path="url(#z31090c3)" d="M 268 511 L 266 882"/>
    <path id="stroke-p4" style="stroke:#FF4444" pathLength="3333" clip-path="url(#z31090c4)" d="M 316 489 L 397 567"/>
    <path id="stroke-p5" style="stroke:#000" pathLength="3333" clip-path="url(#z31090c5)" d="M 534 186 L 747 160 L 773 189 L 721 323"/>
    <path id="stroke-p6" style="stroke:#000" pathLength="3333" clip-path="url(#z31090c6)" d="M 521 286 L 697 258"/>
    <path id="stroke-p7" style="stroke:#000" pathLength="3333" clip-path="url(#z31090c7)" d="M 524 376 L 773 348"/>
    <path id="stroke-p8" style="stroke:#000" pathLength="3333" clip-path="url(#z31090c8)" d="M 461 437 L 473 478 L 451 602"/>
    <path id="stroke-p9" style="stroke:#000" pathLength="3333" clip-path="url(#z31090c9)" d="M 501 489 L 821 414 L 870 448 L 791 529"/>
    <path id="stroke-p10" style="stroke:#000" pathLength="3333" clip-path="url(#z31090c10)" d="M 521 593 L 688 564 L 732 588 L 617 793 L 523 854 L 436 876"/>
    <path id="stroke-p11" style="stroke:#000" pathLength="3333" clip-path="url(#z31090c11)" d="M 498 657 L 784 888 L 942 899"/>
</g>
</svg>