<svg id="z31105" class="acjk" viewBox="0 0 1024 1024" xmlns="http://www.w3.org/2000/svg">
<style>
<![CDATA[
svg.acjk path[clip-path] {
    animation-duration: 12.9s;
    animation-timing-function: linear;
    animation-iteration-count: infinite;
    stroke-dasharray: 3337;
    stroke-dashoffset: 3339;
    stroke-width: 128;
    stroke-linecap: round;
    fill: none;
    stroke: #FF4444;
}
svg.acjk .bg { fill: #ccc; opacity: 0.5; }

/* Stroke 1: Starts at 0.0%, finishes at 6.2%, holds until 80.6% */
@keyframes zk1 {
    0%, 0.0% { stroke-dashoffset: 3339; }
    6.2%, 80.6% { stroke-dashoffset: 0; }
    80.7%, 100% { stroke-dashoffset: 3339; }
}
svg.acjk #stroke-p1 { animation-name: zk1; }
/* Stroke 2: Starts at 6.2%, finishes at 12.4%, holds until 80.6% */
@keyframes zk2 {
    0%, 6.2% { stroke-dashoffset: 3339; }
    12.4%, 80.6% { stroke-dashoffset: 0; }
    80.7%, 100% { stroke-dashoffset: 3339; }
}
svg.acjk #stroke-p2 { animation-name: zk2; }
/* Stroke 3: Starts at 12.4%, finishes at 18.6%, holds until 80.6% */
@keyframes zk3 {
    0%, 12.4% { stroke-dashoffset: 3339; }
    18.6%, 80.6% { stroke-dashoffset: 0; }
    80.7%, 100% { stroke-dashoffset: 3339; }
}
svg.acjk #stroke-p3 { animation-name: zk3; }
/* Stroke 4: Starts at 18.6%, finishes at 24.8%, holds until 80.6% */
@keyframes zk4 {
    0%, 18.6% { stroke-dashoffset: 3339; }
    24.8%, 80.6% { stroke-dashoffset: 0; }
    80.7%, 100% { stroke-dashoffset: 3339; }
}
svg.acjk #stroke-p4 { animation-name: zk4; }
/* Stroke 5: Starts at 24.8%, finishes at 31.0%, holds until 80.6% */
@keyframes zk5 {
    0%, 24.8% { stroke-dashoffset: 3339; }
    31.0%, 80.6% { stroke-dashoffset: 0; }
    80.7%, 100% { stroke-dashoffset: 3339; }
}
svg.acjk #stroke-p5 { animation-name: zk5; }
/* Stroke 6: Starts at 31.0%, finishes at 37.2%, holds until 80.6% */
@keyframes zk6 {
    0%, 31.0% { stroke-dashoffset: 3339; }
    37.2%, 80.6% { stroke-dashoffset: 0; }
    80.7%, 100% { stroke-dashoffset: 3339; }
}
svg.acjk #stroke-p6 { animation-name: zk6; }
/* Stroke 7: Starts at 37.2%, finishes at 43.4%, holds until 80.6% */
@keyframes zk7 {
    0%, 37.2% { stroke-dashoffset: 3339; }
    43.4%, 80.6% { stroke-dashoffset: 0; }
    80.7%, 100% { stroke-dashoffset: 3339; }
}
svg.acjk #stroke-p7 { animation-name: zk7; }
/* Stroke 8: Starts at 43.4%, finishes at 49.6%, holds until 80.6% */
@keyframes zk8 {
    0%, 43.4% { stroke-dashoffset: 3339; }
    49.6%, 80.6% { stroke-dashoffset: 0; }
    80.7%, 100% { stroke-dashoffset: 3339; }
}
svg.acjk #stroke-p8 { animation-name: zk8; }
/* Stroke 9: Starts at 49.6%, finishes at 55.8%, holds until 80.6% */
@keyframes zk9 {
    0%, 49.6% { stroke-dashoffset: 3339; }
    55.8%, 80.6% { stroke-dashoffset: 0; }
    80.7%, 100% { stroke-dashoffset: 3339; }
}
svg.acjk #stroke-p9 { animation-name: zk9; }
/* Stroke 10: Starts at 55.8%, finishes at 62.0%, holds until 80.6% */
@keyframes zk10 {
    0%, 55.8% { stroke-dashoffset: 3339; }
    62.0%, 80.6% { stroke-dashoffset: 0; }
    80.7%, 100% { stroke-dashoffset: 3339; }
}
svg.acjk #stroke-p10 { animation-name: zk10; }
/* Stroke 11: Starts at 62.0%, finishes at 68.2%, holds until 80.6% */
@keyframes zk11 {
    0%, 62.0% { stroke-dashoffset: 3339; }
    68.2%, 80.6% { stroke-dashoffset: 0; }
    80.7%, 100% { stroke-dashoffset: 3339; }
}
svg.acjk #stroke-p11 { animation-name: zk11; }
/* Stroke 12: Starts at 68.2%, finishes at 74.4%, holds until 80.6% */
@keyframes zk12 {
    0%, 68.2% { stroke-dashoffset: 3339; }
    74.4%, 80.6% { stroke-dashoffset: 0; }
    80.7%, 100% { stroke-dashoffset: 3339; }
}
svg.acjk #stroke-p12 { animation-name: zk12; }
/* Stroke 13: Starts at 74.4%, finishes at 80.6%, holds until 80.6% */
@keyframes zk13 {
    0%, 74.4% { stroke-dashoffset: 3339; }
    80.6%, 80.6% { stroke-dashoffset: 0; }
    80.7%, 100% { stroke-dashoffset: 3339; }
}
svg.acjk #stroke-p13 { animation-name: zk13; }
]]>
</style>
<defs>
    <path id="p1" d="M 376 267 C 444 253 479 241 483 239 C 489 234 490 228 487 223 C 482 216 470 209 452 205 C 436 201 412 205 382 215 C 351 224 351 224 336 229 C 258 252 211 250 201 252 C 177 255 173 263 191 274 C 214 288 251 290 299 281 C 303 280 308 280 315 279 C 356 271 356 271 376 267 Z"/>
    <path id="p2" d="M 333 330 C 331 380 325 414 323 436 C 321 449 329 472 338 486 C 344 495 352 499 361 493 C 368 487 372 452 372 389 C 372 347 371 306 376 267 C 380 232 380 232 382 215 C 386 177 393 149 404 132 C 407 125 407 117 399 110 C 366 81 339 72 322 78 C 313 80 309 87 315 96 C 328 118 338 162 336 229 C 334 296 334 296 333 330 Z"/>
    <path id="p3" d="M 315 279 C 282 339 225 401 146 467 C 138 473 138 477 144 479 C 149 481 154 480 162 478 C 217 456 274 408 332 332 C 332 331 332 330 333 330 C 359 287 337 235 315 279 Z"/>
    <path id="p4" d="M 396 325 C 427 357 449 375 465 376 C 471 376 477 371 480 361 C 481 354 477 345 471 336 C 459 319 434 308 397 304 C 392 303 390 306 390 312 C 389 316 391 320 396 325 Z"/>
    <path id="p5" d="M 673 231 C 705 223 740 215 778 207 C 802 201 815 196 819 193 C 825 186 826 181 823 176 C 818 168 806 160 786 157 C 765 153 745 157 725 165 C 709 170 693 176 678 181 C 649 189 649 189 634 193 C 601 201 567 204 533 210 C 508 213 504 222 523 233 C 546 246 578 253 615 245 C 654 236 654 236 673 231 Z"/>
    <path id="p6" d="M 672 237 C 672 234 672 232 673 231 C 676 198 676 198 678 181 C 682 139 689 107 701 88 C 704 81 704 73 696 66 C 682 53 665 44 648 37 C 637 32 627 31 618 35 C 609 37 606 44 611 53 C 624 77 634 123 634 193 C 633 259 633 259 633 292 C 632 344 626 381 623 404 C 620 420 626 437 637 454 C 643 464 653 468 661 461 C 667 454 668 400 669 290 C 669 282 669 274 670 267 C 671 247 671 247 672 237 Z"/>
    <path id="p7" d="M 615 245 C 614 245 614 246 614 248 C 580 308 527 367 456 426 C 447 432 447 436 456 437 C 462 437 474 431 495 422 C 518 410 541 396 562 377 C 584 356 608 328 633 292 C 663 255 636 203 615 245 Z"/>
    <path id="p8" d="M 670 267 C 710 317 756 369 808 422 C 818 432 831 435 848 433 C 902 426 938 421 956 417 C 960 415 963 414 964 411 C 964 408 960 404 953 402 C 875 378 808 346 753 304 C 726 283 700 261 672 237 C 664 231 664 259 670 267 Z"/>
    <path id="p9" d="M 363 519 C 338 521 334 530 352 542 C 380 560 413 563 451 557 C 501 547 553 541 607 532 C 631 527 646 523 650 521 C 656 516 658 510 655 504 C 650 495 638 488 618 483 C 598 477 577 480 557 487 C 529 495 500 502 471 508 C 438 513 402 515 363 519 Z"/>
    <path id="p10" d="M 531 657 C 589 651 703 649 871 649 C 885 649 895 646 899 640 C 903 631 899 621 887 612 C 845 579 802 574 758 583 C 620 610 411 634 134 664 C 119 665 116 672 128 685 C 138 696 150 703 163 707 C 178 711 192 710 204 708 C 321 677 413 668 478 662 C 513 659 513 659 531 657 Z"/>
    <path id="p11" d="M 478 662 C 484 688 489 738 489 810 C 489 832 486 846 485 851 C 482 859 471 863 456 860 C 434 855 413 848 393 845 C 383 843 379 847 379 851 C 378 855 379 861 388 868 C 433 907 464 937 482 959 C 491 970 502 974 510 972 C 518 969 524 955 535 932 C 545 907 552 874 550 830 C 547 779 546 750 547 721 C 547 689 545 673 531 657 C 520 643 475 645 478 662 Z"/>
    <path id="p12" d="M 309 733 C 290 759 268 784 245 809 C 226 828 223 851 231 877 C 234 889 243 895 259 888 C 294 871 313 838 325 797 C 331 774 337 754 334 737 C 332 729 328 725 324 725 C 318 724 312 727 309 733 Z"/>
    <path id="p13" d="M 651 752 C 685 780 722 815 762 858 C 774 871 785 880 796 883 C 802 884 807 879 813 873 C 820 863 820 844 811 813 C 802 784 775 762 730 745 C 721 741 694 732 651 719 C 644 716 639 718 639 727 C 638 737 643 745 651 752 Z"/>

    <clipPath id="z31105c1"><use href="#p1"/></clipPath>
    <clipPath id="z31105c2"><use href="#p2"/></clipPath>
    <clipPath id="z31105c3"><use href="#p3"/></clipPath>
    <clipPath id="z31105c4"><use href="#p4"/></clipPath>
    <clipPath id="z31105c5"><use href="#p5"/></clipPath>
    <clipPath id="z31105c6"><use href="#p6"/></clipPath>
    <clipPath id="z31105c7"><use href="#p7"/></clipPath>
    <clipPath id="z31105c8"><use href="#p8"/></clipPath>
    <clipPath id="z31105c9"><use href="#p9"/></clipPath>
    <clipPath id="z31105c10"><use href="#p10"/></clipPath>
    <clipPath id="z31105c11"><use href="#p11"/></clipPath>
    <clipPath id="z31105c12"><use href="#p12"/></clipPath>
    <clipPath id="z31105c13"><use href="#p13"/></clipPath>
</defs>
<g id="bg-layer" class="bg">
<use href="#p1"/>
<use href="#p2"/>
<use href="#p3"/>
<use href="#p4"/>
<use href="#p5"/>
<use href="#p6"/>
<use href="#p7"/>
<use href="#p8"/>
<use href="#p9"/>
<use href="#p10"/>
<use href="#p11"/>
<use href="#p12"/>
<use href="#p13"/>
</g>
<g id="anim-layer">
    <path id="stroke-p1" style="stroke:#FF4444" pathLength="3333" clip-path="url(#z31105c1)" d="M 189 262 L 482 223"/>
    <path id="stroke-p2" style="stroke:#FF4444" pathLength="3333" clip-path="url(#z31105c2)" d="M 321 87 L 368 134 L 350 492"/>
    <path id="stroke-p3" style="stroke:#FF4444" pathLength="3333" clip-path="url(#z31105c3)" d="M 327 284 L 260 387 L 147 473"/>
    <path id="stroke-p4" style="stroke:#FF4444" pathLength="3333" clip-path="url(#z31105c4)" d="M 395 310 L 472 366"/>
    <path id="stroke-p5" style="stroke:#FF4444" pathLength="3333" clip-path="url(#z31105c5)" d="M 517 219 L 603 223 L 820 182"/>
    <path id="stroke-p6" style="stroke:#FF4444" pathLength="3333" clip-path="url(#z31105c6)" d="M 617 42 L 664 88 L 654 457"/>
    <path id="stroke-p7" style="stroke:#FF4444" pathLength="3333" clip-path="url(#z31105c7)" d="M 628 248 L 575 337 L 458 429"/>
    <path id="stroke-p8" style="stroke:#FF4444" pathLength="3333" clip-path="url(#z31105c8)" d="M 674 244 L 836 397 L 956 409"/>
    <path id="stroke-p9" style="stroke:#000" pathLength="3333" clip-path="url(#z31105c9)" d="M 347 527 L 651 512"/>
    <path id="stroke-p10" style="stroke:#000" pathLength="3333" clip-path="url(#z31105c10)" d="M 126 671 L 180 685 L 795 613 L 896 630"/>
    <path id="stroke-p11" style="stroke:#000" pathLength="3333" clip-path="url(#z31105c11)" d="M 487 670 L 516 706 L 500 908 L 480 917 L 386 851"/>
    <path id="stroke-p12" style="stroke:#000" pathLength="3333" clip-path="url(#z31105c12)" d="M 324 728 L 236 883"/>
    <path id="stroke-p13" style="stroke:#000" pathLength="3333" clip-path="url(#z31105c13)" d="M 645 724 L 768 810 L 798 878"/>
</g>
</svg>