<svg id="z31207" class="acjk" viewBox="0 0 1024 1024" xmlns="http://www.w3.org/2000/svg">
<style>
<![CDATA[
svg.acjk path[clip-path] {
    animation-duration: 10.5s;
    animation-timing-function: linear;
    animation-iteration-count: infinite;
    stroke-dasharray: 3337;
    stroke-dashoffset: 3339;
    stroke-width: 128;
    stroke-linecap: round;
    fill: none;
    stroke: #FF4444;
}
svg.acjk .bg { fill: #ccc; opacity: 0.5; }

/* Stroke 1: Starts at 0.0%, finishes at 7.6%, holds until 76.2% */
@keyframes zk1 {
    0%, 0.0% { stroke-dashoffset: 3339; }
    7.6%, 76.2% { stroke-dashoffset: 0; }
    76.3%, 100% { stroke-dashoffset: 3339; }
}
svg.acjk #stroke-p1 { animation-name: zk1; }
/* Stroke 2: Starts at 7.6%, finishes at 15.2%, holds until 76.2% */
@keyframes zk2 {
    0%, 7.6% { stroke-dashoffset: 3339; }
    15.2%, 76.2% { stroke-dashoffset: 0; }
    76.3%, 100% { stroke-dashoffset: 3339; }
}
svg.acjk #stroke-p2 { animation-name: zk2; }
/* Stroke 3: Starts at 15.2%, finishes at 22.9%, holds until 76.2% */
@keyframes zk3 {
    0%, 15.2% { stroke-dashoffset: 3339; }
    22.9%, 76.2% { stroke-dashoffset: 0; }
    76.3%, 100% { stroke-dashoffset: 3339; }
}
svg.acjk #stroke-p3 { animation-name: zk3; }
/* Stroke 4: Starts at 22.9%, finishes at 30.5%, holds until 76.2% */
@keyframes zk4 {
    0%, 22.9% { stroke-dashoffset: 3339; }
    30.5%, 76.2% { stroke-dashoffset: 0; }
    76.3%, 100% { stroke-dashoffset: 3339; }
}
svg.acjk #stroke-p4 { animation-name: zk4; }
/* Stroke 5: Starts at 30.5%, finishes at 38.1%, holds until 76.2% */
@keyframes zk5 {
    0%, 30.5% { stroke-dashoffset: 3339; }
    38.1%, 76.2% { stroke-dashoffset: 0; }
    76.3%, 100% { stroke-dashoffset: 3339; }
}
svg.acjk #stroke-p5 { animation-name: zk5; }
/* Stroke 6: Starts at 38.1%, finishes at 45.7%, holds until 76.2% */
@keyframes zk6 {
    0%, 38.1% { stroke-dashoffset: 3339; }
    45.7%, 76.2% { stroke-dashoffset: 0; }
    76.3%, 100% { stroke-dashoffset: 3339; }
}
svg.acjk #stroke-p6 { animation-name: zk6; }
/* Stroke 7: Starts at 45.7%, finishes at 53.3%, holds until 76.2% */
@keyframes zk7 {
    0%, 45.7% { stroke-dashoffset: 3339; }
    53.3%, 76.2% { stroke-dashoffset: 0; }
    76.3%, 100% { stroke-dashoffset: 3339; }
}
svg.acjk #stroke-p7 { animation-name: zk7; }
/* Stroke 8: Starts at 53.3%, finishes at 61.0%, holds until 76.2% */
@keyframes zk8 {
    0%, 53.3% { stroke-dashoffset: 3339; }
    61.0%, 76.2% { stroke-dashoffset: 0; }
    76.3%, 100% { stroke-dashoffset: 3339; }
}
svg.acjk #stroke-p8 { animation-name: zk8; }
/* Stroke 9: Starts at 61.0%, finishes at 68.6%, holds until 76.2% */
@keyframes zk9 {
    0%, 61.0% { stroke-dashoffset: 3339; }
    68.6%, 76.2% { stroke-dashoffset: 0; }
    76.3%, 100% { stroke-dashoffset: 3339; }
}
svg.acjk #stroke-p9 { animation-name: zk9; }
/* Stroke 10: Starts at 68.6%, finishes at 76.2%, holds until 76.2% */
@keyframes zk10 {
    0%, 68.6% { stroke-dashoffset: 3339; }
    76.2%, 76.2% { stroke-dashoffset: 0; }
    76.3%, 100% { stroke-dashoffset: 3339; }
}
svg.acjk #stroke-p10 { animation-name: zk10; }
]]>
</style>
<defs>
    <path id="p1" d="M 295 229 C 340 206 377 183 411 174 C 421 170 428 168 430 163 C 432 156 429 148 420 142 C 405 132 382 125 352 117 C 341 113 331 111 323 114 C 317 115 316 121 317 130 C 318 155 256 202 140 280 C 134 283 137 293 142 292 C 192 278 221 265 263 245 C 284 234 284 234 295 229 Z"/>
    <path id="p2" d="M 314 428 C 338 421 366 414 399 408 C 409 405 415 402 415 398 C 415 389 408 383 397 379 C 374 370 349 377 316 387 C 289 395 289 395 275 399 C 165 430 92 445 58 451 C 50 452 45 455 44 461 C 42 467 45 474 56 481 C 82 497 108 498 133 489 C 180 470 220 454 254 445 C 294 434 294 434 314 428 Z"/>
    <path id="p3" d="M 313 478 C 313 462 313 445 314 428 C 315 401 315 401 316 387 C 318 333 322 293 327 269 C 330 249 319 243 295 229 C 285 223 259 234 263 245 C 273 265 278 317 275 399 C 272 476 272 476 270 514 C 266 586 260 694 245 774 C 240 798 237 825 263 872 C 272 888 291 910 301 887 C 309 865 311 843 311 823 C 308 711 309 606 312 511 C 313 489 313 489 313 478 Z"/>
    <path id="p4" d="M 254 445 C 223 521 162 625 58 745 C 42 764 47 779 67 763 C 150 692 219 610 271 514 C 306 455 280 381 254 445 Z"/>
    <path id="p5" d="M 312 511 C 316 513 333 527 362 554 C 368 560 376 563 385 563 C 391 562 394 558 397 552 C 399 543 397 532 393 517 C 389 507 381 497 364 491 C 348 485 331 482 313 478 C 302 476 303 504 312 511 Z"/>
    <path id="p6" d="M 487 390 C 475 383 462 377 449 375 C 429 370 417 384 430 397 C 463 431 475 522 486 571 C 488 583 525 577 523 565 C 511 481 509 440 507 417 C 507 406 497 395 487 390 Z"/>
    <path id="p7" d="M 788 518 C 800 456 818 414 840 391 C 850 379 850 365 840 356 C 830 347 807 336 774 323 C 762 318 749 319 736 325 C 703 339 671 351 641 359 C 612 366 612 366 598 369 C 561 377 524 384 487 390 C 476 392 496 419 507 417 C 537 409 570 402 598 396 C 627 389 627 389 641 386 C 665 380 689 375 714 369 C 743 360 759 380 757 404 C 752 450 745 492 736 529 C 733 546 785 535 788 518 Z"/>
    <path id="p8" d="M 632 581 C 710 569 805 560 918 560 C 930 559 937 556 940 551 C 942 544 939 536 929 529 C 910 515 890 508 870 505 C 839 503 815 512 788 518 C 753 525 753 525 736 529 C 715 533 649 544 636 547 C 604 552 604 552 588 555 C 567 558 545 561 523 565 C 498 569 498 569 486 571 C 457 575 428 579 399 584 C 386 585 384 590 394 601 C 402 609 412 614 423 617 C 435 619 446 619 456 617 C 496 605 539 594 584 588 C 616 583 616 583 632 581 Z"/>
    <path id="p9" d="M 629 596 C 629 591 631 586 632 581 C 635 558 635 558 636 547 C 642 493 641 434 641 386 C 641 368 641 368 641 359 C 641 274 648 207 666 158 C 669 148 670 140 662 133 C 648 121 626 112 600 106 C 583 101 572 102 567 107 C 561 111 560 118 566 126 C 582 150 591 176 593 207 C 596 261 598 315 598 369 C 598 387 598 387 598 396 C 598 453 594 504 588 555 C 585 577 585 577 584 588 C 568 715 478 783 382 834 C 367 841 363 850 381 850 C 494 849 609 722 624 629 C 627 607 627 607 629 596 Z"/>
    <path id="p10" d="M 624 629 C 670 703 723 782 784 863 C 795 877 812 883 832 884 C 900 884 946 885 969 882 C 989 879 976 865 968 862 C 870 816 793 768 739 714 C 703 678 666 638 629 596 C 622 587 617 620 624 629 Z"/>

    <clipPath id="z31207c1"><use href="#p1"/></clipPath>
    <clipPath id="z31207c2"><use href="#p2"/></clipPath>
    <clipPath id="z31207c3"><use href="#p3"/></clipPath>
    <clipPath id="z31207c4"><use href="#p4"/></clipPath>
    <clipPath id="z31207c5"><use href="#p5"/></clipPath>
    <clipPath id="z31207c6"><use href="#p6"/></clipPath>
    <clipPath id="z31207c7"><use href="#p7"/></clipPath>
    <clipPath id="z31207c8"><use href="#p8"/></clipPath>
    <clipPath id="z31207c9"><use href="#p9"/></clipPath>
    <clipPath id="z31207c10"><use href="#p10"/></clipPath>
</defs>
<g id="bg-layer" class="bg">
<use href="#p1"/>
<use href="#p2"/>
<use href="#p3"/>
<use href="#p4"/>
<use href="#p5"/>
<use href="#p6"/>
<use href="#p7"/>
<use href="#p8"/>
<use href="#p9"/>
<use href="#p10"/>
</g>
<g id="anim-layer">
    <path id="stroke-p1" style="stroke:#FF4444" pathLength="3333" clip-path="url(#z31207c1)" d="M 325 122 L 373 165 L 144 285"/>
    <path id="stroke-p2" style="stroke:#FF4444" pathLength="3333" clip-path="url(#z31207c2)" d="M 50 463 L 112 467 L 410 393"/>
    <path id="stroke-p3" style="stroke:#FF4444" pathLength="3333" clip-path="url(#z31207c3)" d="M 268 237 L 299 271 L 278 890"/>
    <path id="stroke-p4" style="stroke:#FF4444" pathLength="3333" clip-path="url(#z31207c4)" d="M 276 427 L 188 608 L 56 761"/>
    <path id="stroke-p5" style="stroke:#FF4444" pathLength="3333" clip-path="url(#z31207c5)" d="M 313 486 L 387 558"/>
    <path id="stroke-p6" style="stroke:#000" pathLength="3333" clip-path="url(#z31207c6)" d="M 432 382 L 478 420 L 502 575"/>
    <path id="stroke-p7" style="stroke:#000" pathLength="3333" clip-path="url(#z31207c7)" d="M 492 396 L 761 348 L 801 382 L 748 534"/>
    <path id="stroke-p8" style="stroke:#000" pathLength="3333" clip-path="url(#z31207c8)" d="M 396 590 L 843 533 L 935 545"/>
    <path id="stroke-p9" style="stroke:#000" pathLength="3333" clip-path="url(#z31207c9)" d="M 569 114 L 627 157 L 600 628 L 522 761 L 376 844"/>
    <path id="stroke-p10" style="stroke:#000" pathLength="3333" clip-path="url(#z31207c10)" d="M 626 603 L 814 831 L 972 874"/>
</g>
</svg>