<svg id="z31309" class="acjk" viewBox="0 0 1024 1024" xmlns="http://www.w3.org/2000/svg">
<style>
<![CDATA[
svg.acjk path[clip-path] {
    animation-duration: 15.3s;
    animation-timing-function: linear;
    animation-iteration-count: infinite;
    stroke-dasharray: 3337;
    stroke-dashoffset: 3339;
    stroke-width: 128;
    stroke-linecap: round;
    fill: none;
    stroke: #FF4444;
}
svg.acjk .bg { fill: #ccc; opacity: 0.5; }

/* Stroke 1: Starts at 0.0%, finishes at 5.2%, holds until 83.7% */
@keyframes zk1 {
    0%, 0.0% { stroke-dashoffset: 3339; }
    5.2%, 83.7% { stroke-dashoffset: 0; }
    83.8%, 100% { stroke-dashoffset: 3339; }
}
svg.acjk #stroke-p1 { animation-name: zk1; }
/* Stroke 2: Starts at 5.2%, finishes at 10.5%, holds until 83.7% */
@keyframes zk2 {
    0%, 5.2% { stroke-dashoffset: 3339; }
    10.5%, 83.7% { stroke-dashoffset: 0; }
    83.8%, 100% { stroke-dashoffset: 3339; }
}
svg.acjk #stroke-p2 { animation-name: zk2; }
/* Stroke 3: Starts at 10.5%, finishes at 15.7%, holds until 83.7% */
@keyframes zk3 {
    0%, 10.5% { stroke-dashoffset: 3339; }
    15.7%, 83.7% { stroke-dashoffset: 0; }
    83.8%, 100% { stroke-dashoffset: 3339; }
}
svg.acjk #stroke-p3 { animation-name: zk3; }
/* Stroke 4: Starts at 15.7%, finishes at 20.9%, holds until 83.7% */
@keyframes zk4 {
    0%, 15.7% { stroke-dashoffset: 3339; }
    20.9%, 83.7% { stroke-dashoffset: 0; }
    83.8%, 100% { stroke-dashoffset: 3339; }
}
svg.acjk #stroke-p4 { animation-name: zk4; }
/* Stroke 5: Starts at 20.9%, finishes at 26.1%, holds until 83.7% */
@keyframes zk5 {
    0%, 20.9% { stroke-dashoffset: 3339; }
    26.1%, 83.7% { stroke-dashoffset: 0; }
    83.8%, 100% { stroke-dashoffset: 3339; }
}
svg.acjk #stroke-p5 { animation-name: zk5; }
/* Stroke 6: Starts at 26.1%, finishes at 31.4%, holds until 83.7% */
@keyframes zk6 {
    0%, 26.1% { stroke-dashoffset: 3339; }
    31.4%, 83.7% { stroke-dashoffset: 0; }
    83.8%, 100% { stroke-dashoffset: 3339; }
}
svg.acjk #stroke-p6 { animation-name: zk6; }
/* Stroke 7: Starts at 31.4%, finishes at 36.6%, holds until 83.7% */
@keyframes zk7 {
    0%, 31.4% { stroke-dashoffset: 3339; }
    36.6%, 83.7% { stroke-dashoffset: 0; }
    83.8%, 100% { stroke-dashoffset: 3339; }
}
svg.acjk #stroke-p7 { animation-name: zk7; }
/* Stroke 8: Starts at 36.6%, finishes at 41.8%, holds until 83.7% */
@keyframes zk8 {
    0%, 36.6% { stroke-dashoffset: 3339; }
    41.8%, 83.7% { stroke-dashoffset: 0; }
    83.8%, 100% { stroke-dashoffset: 3339; }
}
svg.acjk #stroke-p8 { animation-name: zk8; }
/* Stroke 9: Starts at 41.8%, finishes at 47.1%, holds until 83.7% */
@keyframes zk9 {
    0%, 41.8% { stroke-dashoffset: 3339; }
    47.1%, 83.7% { stroke-dashoffset: 0; }
    83.8%, 100% { stroke-dashoffset: 3339; }
}
svg.acjk #stroke-p9 { animation-name: zk9; }
/* Stroke 10: Starts at 47.1%, finishes at 52.3%, holds until 83.7% */
@keyframes zk10 {
    0%, 47.1% { stroke-dashoffset: 3339; }
    52.3%, 83.7% { stroke-dashoffset: 0; }
    83.8%, 100% { stroke-dashoffset: 3339; }
}
svg.acjk #stroke-p10 { animation-name: zk10; }
/* Stroke 11: Starts at 52.3%, finishes at 57.5%, holds until 83.7% */
@keyframes zk11 {
    0%, 52.3% { stroke-dashoffset: 3339; }
    57.5%, 83.7% { stroke-dashoffset: 0; }
    83.8%, 100% { stroke-dashoffset: 3339; }
}
svg.acjk #stroke-p11 { animation-name: zk11; }
/* Stroke 12: Starts at 57.5%, finishes at 62.7%, holds until 83.7% */
@keyframes zk12 {
    0%, 57.5% { stroke-dashoffset: 3339; }
    62.7%, 83.7% { stroke-dashoffset: 0; }
    83.8%, 100% { stroke-dashoffset: 3339; }
}
svg.acjk #stroke-p12 { animation-name: zk12; }
/* Stroke 13: Starts at 62.7%, finishes at 68.0%, holds until 83.7% */
@keyframes zk13 {
    0%, 62.7% { stroke-dashoffset: 3339; }
    68.0%, 83.7% { stroke-dashoffset: 0; }
    83.8%, 100% { stroke-dashoffset: 3339; }
}
svg.acjk #stroke-p13 { animation-name: zk13; }
/* Stroke 14: Starts at 68.0%, finishes at 73.2%, holds until 83.7% */
@keyframes zk14 {
    0%, 68.0% { stroke-dashoffset: 3339; }
    73.2%, 83.7% { stroke-dashoffset: 0; }
    83.8%, 100% { stroke-dashoffset: 3339; }
}
svg.acjk #stroke-p14 { animation-name: zk14; }
/* Stroke 15: Starts at 73.2%, finishes at 78.4%, holds until 83.7% */
@keyframes zk15 {
    0%, 73.2% { stroke-dashoffset: 3339; }
    78.4%, 83.7% { stroke-dashoffset: 0; }
    83.8%, 100% { stroke-dashoffset: 3339; }
}
svg.acjk #stroke-p15 { animation-name: zk15; }
/* Stroke 16: Starts at 78.4%, finishes at 83.7%, holds until 83.7% */
@keyframes zk16 {
    0%, 78.4% { stroke-dashoffset: 3339; }
    83.7%, 83.7% { stroke-dashoffset: 0; }
    83.8%, 100% { stroke-dashoffset: 3339; }
}
svg.acjk #stroke-p16 { animation-name: zk16; }
]]>
</style>
<defs>
    <path id="p1" d="M 316 219 Q 397 174 427 166 Q 443 165 445 156 Q 446 146 435 137 Q 414 125 372 114 Q 357 108 345 111 Q 339 115 340 125 Q 341 159 188 257 Q 184 266 189 268 Q 201 268 273 237 Q 279 234 285 232 C 306 223 306 223 316 219 Z"/>
    <path id="p2" d="M 341 379 Q 377 369 423 360 Q 439 357 439 350 Q 439 337 421 331 Q 394 319 343 337 C 314 346 314 346 299 350 Q 134 395 78 403 Q 66 404 64 413 Q 61 423 76 433 Q 116 457 153 441 Q 225 414 277 397 C 320 385 320 385 341 379 Z"/>
    <path id="p3" d="M 338 481 Q 338 442 341 379 C 342 351 342 351 343 337 Q 344 288 351 261 Q 354 248 347 242 Q 331 227 316 219 C 306 213 281 222 285 232 Q 298 253 299 350 C 298 425 298 425 297 463 Q 281 761 268 793 Q 259 832 292 883 Q 304 902 312 906 Q 324 907 329 894 Q 342 863 338 831 Q 335 654 337 503 C 338 488 338 488 338 481 Z"/>
    <path id="p4" d="M 277 397 Q 222 533 54 743 Q 50 753 60 754 Q 66 755 75 746 Q 214 632 298 463 C 322 403 297 335 277 396 C 277 397 277 397 277 397 Z"/>
    <path id="p5" d="M 337 503 Q 344 510 361 522 Q 386 543 414 567 Q 427 577 440 576 Q 449 575 453 564 Q 457 551 448 525 Q 435 497 355 481 Q 342 480 338 481 C 331 481 331 499 337 503 Z"/>
    <path id="p6" d="M 698 184 Q 741 171 787 161 Q 830 149 836 143 Q 843 136 839 129 Q 832 120 809 115 Q 784 111 761 122 Q 731 132 701 144 C 666 154 666 154 648 159 Q 596 172 534 182 Q 504 188 526 200 Q 559 218 608 205 Q 627 199 649 195 C 682 188 682 188 698 184 Z"/>
    <path id="p7" d="M 691 281 Q 728 271 768 263 Q 799 256 804 251 Q 811 244 807 237 Q 800 228 777 223 Q 755 219 694 241 C 665 250 665 250 650 255 Q 610 264 562 270 Q 532 276 554 288 Q 593 307 648 291 C 649 291 649 291 650 291 C 677 284 677 284 691 281 Z"/>
    <path id="p8" d="M 687 348 Q 688 314 691 281 C 693 254 693 254 694 241 Q 695 211 698 184 C 700 157 700 157 701 144 Q 704 114 714 83 Q 717 73 699 61 Q 668 45 647 41 Q 634 38 626 45 Q 619 52 627 65 Q 643 89 648 159 C 649 183 649 183 649 195 Q 650 223 650 255 C 650 279 650 279 650 291 Q 650 321 650 354 C 650 366 687 360 687 348 Z"/>
    <path id="p9" d="M 650 354 Q 548 370 433 389 Q 417 392 430 405 Q 457 429 487 420 Q 688 357 949 356 Q 950 356 952 356 Q 968 355 972 348 Q 976 338 962 328 Q 917 298 887 306 Q 812 322 687 348 C 662 352 662 352 650 354 Z"/>
    <path id="p10" d="M 562 459 Q 546 449 529 444 Q 522 443 517 449 Q 514 453 520 462 Q 553 546 529 667 Q 520 694 525 713 Q 534 740 543 750 Q 553 760 560 749 Q 564 742 568 733 C 573 712 573 712 576 701 Q 577 688 578 641 C 578 626 578 626 578 618 Q 578 591 578 562 C 578 545 578 545 578 537 Q 578 498 581 485 C 583 474 571 465 562 459 Z"/>
    <path id="p11" d="M 762 713 Q 762 728 772 743 Q 785 771 794 770 Q 807 769 823 737 Q 833 716 835 683 Q 813 530 844 479 Q 854 464 847 456 Q 822 434 778 415 Q 765 409 743 417 Q 692 438 562 459 C 551 461 571 488 581 485 Q 581 484 582 484 Q 667 465 728 454 Q 749 450 756 461 Q 768 476 769 527 Q 772 651 766 690 C 763 705 763 705 762 713 Z"/>
    <path id="p12" d="M 578 562 Q 647 562 723 537 Q 723 536 724 536 Q 730 530 726 524 Q 722 517 701 511 Q 679 508 659 517 Q 650 520 578 537 C 570 538 570 562 578 562 Z"/>
    <path id="p13" d="M 578 641 Q 593 644 697 628 Q 701 627 707 626 Q 725 622 727 620 Q 733 614 730 608 Q 726 601 705 595 Q 684 591 663 599 Q 644 606 621 611 Q 600 615 578 618 C 570 620 570 641 578 641 Z"/>
    <path id="p14" d="M 568 733 Q 574 734 584 732 Q 639 720 762 713 C 770 713 772 695 766 690 Q 759 684 748 677 Q 732 668 704 675 Q 634 691 576 701 C 565 703 557 733 568 733 Z"/>
    <path id="p15" d="M 565 776 Q 550 833 394 941 Q 372 953 398 952 Q 450 955 580 857 Q 583 850 628 815 Q 638 805 638 796 Q 637 783 613 774 Q 588 762 576 764 Q 569 764 565 776 Z"/>
    <path id="p16" d="M 713 809 Q 755 861 804 935 Q 817 957 831 964 Q 840 967 849 958 Q 864 946 858 900 Q 855 846 719 778 Q 710 771 707 784 Q 704 797 713 809 Z"/>

    <clipPath id="z31309c1"><use href="#p1"/></clipPath>
    <clipPath id="z31309c2"><use href="#p2"/></clipPath>
    <clipPath id="z31309c3"><use href="#p3"/></clipPath>
    <clipPath id="z31309c4"><use href="#p4"/></clipPath>
    <clipPath id="z31309c5"><use href="#p5"/></clipPath>
    <clipPath id="z31309c6"><use href="#p6"/></clipPath>
    <clipPath id="z31309c7"><use href="#p7"/></clipPath>
    <clipPath id="z31309c8"><use href="#p8"/></clipPath>
    <clipPath id="z31309c9"><use href="#p9"/></clipPath>
    <clipPath id="z31309c10"><use href="#p10"/></clipPath>
    <clipPath id="z31309c11"><use href="#p11"/></clipPath>
    <clipPath id="z31309c12"><use href="#p12"/></clipPath>
    <clipPath id="z31309c13"><use href="#p13"/></clipPath>
    <clipPath id="z31309c14"><use href="#p14"/></clipPath>
    <clipPath id="z31309c15"><use href="#p15"/></clipPath>
    <clipPath id="z31309c16"><use href="#p16"/></clipPath>
</defs>
<g id="bg-layer" class="bg">
<use href="#p1"/>
<use href="#p2"/>
<use href="#p3"/>
<use href="#p4"/>
<use href="#p5"/>
<use href="#p6"/>
<use href="#p7"/>
<use href="#p8"/>
<use href="#p9"/>
<use href="#p10"/>
<use href="#p11"/>
<use href="#p12"/>
<use href="#p13"/>
<use href="#p14"/>
<use href="#p15"/>
<use href="#p16"/>
</g>
<g id="anim-layer">
    <path id="stroke-p1" style="stroke:#FF4444" pathLength="3333" clip-path="url(#z31309c1)" d="M 349 114 L 388 163 L 194 261"/>
    <path id="stroke-p2" style="stroke:#FF4444" pathLength="3333" clip-path="url(#z31309c2)" d="M 71 415 L 136 419 L 431 345"/>
    <path id="stroke-p3" style="stroke:#FF4444" pathLength="3333" clip-path="url(#z31309c3)" d="M 291 226 L 322 257 L 311 901"/>
    <path id="stroke-p4" style="stroke:#FF4444" pathLength="3333" clip-path="url(#z31309c4)" d="M 294 381 L 217 557 L 62 746"/>
    <path id="stroke-p5" style="stroke:#FF4444" pathLength="3333" clip-path="url(#z31309c5)" d="M 339 490 L 419 533 L 437 572"/>
    <path id="stroke-p6" style="stroke:#000" pathLength="3333" clip-path="url(#z31309c6)" d="M 526 192 L 834 135"/>
    <path id="stroke-p7" style="stroke:#000" pathLength="3333" clip-path="url(#z31309c7)" d="M 556 280 L 801 240"/>
    <path id="stroke-p8" style="stroke:#000" pathLength="3333" clip-path="url(#z31309c8)" d="M 630 50 L 677 90 L 668 357"/>
    <path id="stroke-p9" style="stroke:#000" pathLength="3333" clip-path="url(#z31309c9)" d="M 432 395 L 882 332 L 969 340"/>
    <path id="stroke-p10" style="stroke:#000" pathLength="3333" clip-path="url(#z31309c10)" d="M 524 451 L 556 496 L 544 748"/>
    <path id="stroke-p11" style="stroke:#000" pathLength="3333" clip-path="url(#z31309c11)" d="M 567 464 L 757 433 L 792 454 L 808 480 L 791 762"/>
    <path id="stroke-p12" style="stroke:#000" pathLength="3333" clip-path="url(#z31309c12)" d="M 574 551 L 720 528"/>
    <path id="stroke-p13" style="stroke:#000" pathLength="3333" clip-path="url(#z31309c13)" d="M 575 631 L 727 611"/>
    <path id="stroke-p14" style="stroke:#000" pathLength="3333" clip-path="url(#z31309c14)" d="M 570 724 L 765 700"/>
    <path id="stroke-p15" style="stroke:#000" pathLength="3333" clip-path="url(#z31309c15)" d="M 578 767 L 597 798 L 556 842 L 395 946"/>
    <path id="stroke-p16" style="stroke:#000" pathLength="3333" clip-path="url(#z31309c16)" d="M 714 781 L 817 889 L 841 958"/>
</g>
</svg>