<svg id="z31360" class="acjk" viewBox="0 0 1024 1024" xmlns="http://www.w3.org/2000/svg">
<style>
<![CDATA[
svg.acjk path[clip-path] {
    animation-duration: 9.7s;
    animation-timing-function: linear;
    animation-iteration-count: infinite;
    stroke-dasharray: 3337;
    stroke-dashoffset: 3339;
    stroke-width: 128;
    stroke-linecap: round;
    fill: none;
    stroke: #FF4444;
}
svg.acjk .bg { fill: #ccc; opacity: 0.5; }

/* Stroke 1: Starts at 0.0%, finishes at 8.2%, holds until 74.2% */
@keyframes zk1 {
    0%, 0.0% { stroke-dashoffset: 3339; }
    8.2%, 74.2% { stroke-dashoffset: 0; }
    74.3%, 100% { stroke-dashoffset: 3339; }
}
svg.acjk #stroke-p1 { animation-name: zk1; }
/* Stroke 2: Starts at 8.2%, finishes at 16.5%, holds until 74.2% */
@keyframes zk2 {
    0%, 8.2% { stroke-dashoffset: 3339; }
    16.5%, 74.2% { stroke-dashoffset: 0; }
    74.3%, 100% { stroke-dashoffset: 3339; }
}
svg.acjk #stroke-p2 { animation-name: zk2; }
/* Stroke 3: Starts at 16.5%, finishes at 24.7%, holds until 74.2% */
@keyframes zk3 {
    0%, 16.5% { stroke-dashoffset: 3339; }
    24.7%, 74.2% { stroke-dashoffset: 0; }
    74.3%, 100% { stroke-dashoffset: 3339; }
}
svg.acjk #stroke-p3 { animation-name: zk3; }
/* Stroke 4: Starts at 24.7%, finishes at 33.0%, holds until 74.2% */
@keyframes zk4 {
    0%, 24.7% { stroke-dashoffset: 3339; }
    33.0%, 74.2% { stroke-dashoffset: 0; }
    74.3%, 100% { stroke-dashoffset: 3339; }
}
svg.acjk #stroke-p4 { animation-name: zk4; }
/* Stroke 5: Starts at 33.0%, finishes at 41.2%, holds until 74.2% */
@keyframes zk5 {
    0%, 33.0% { stroke-dashoffset: 3339; }
    41.2%, 74.2% { stroke-dashoffset: 0; }
    74.3%, 100% { stroke-dashoffset: 3339; }
}
svg.acjk #stroke-p5 { animation-name: zk5; }
/* Stroke 6: Starts at 41.2%, finishes at 49.5%, holds until 74.2% */
@keyframes zk6 {
    0%, 41.2% { stroke-dashoffset: 3339; }
    49.5%, 74.2% { stroke-dashoffset: 0; }
    74.3%, 100% { stroke-dashoffset: 3339; }
}
svg.acjk #stroke-p6 { animation-name: zk6; }
/* Stroke 7: Starts at 49.5%, finishes at 57.7%, holds until 74.2% */
@keyframes zk7 {
    0%, 49.5% { stroke-dashoffset: 3339; }
    57.7%, 74.2% { stroke-dashoffset: 0; }
    74.3%, 100% { stroke-dashoffset: 3339; }
}
svg.acjk #stroke-p7 { animation-name: zk7; }
/* Stroke 8: Starts at 57.7%, finishes at 66.0%, holds until 74.2% */
@keyframes zk8 {
    0%, 57.7% { stroke-dashoffset: 3339; }
    66.0%, 74.2% { stroke-dashoffset: 0; }
    74.3%, 100% { stroke-dashoffset: 3339; }
}
svg.acjk #stroke-p8 { animation-name: zk8; }
/* Stroke 9: Starts at 66.0%, finishes at 74.2%, holds until 74.2% */
@keyframes zk9 {
    0%, 66.0% { stroke-dashoffset: 3339; }
    74.2%, 74.2% { stroke-dashoffset: 0; }
    74.3%, 100% { stroke-dashoffset: 3339; }
}
svg.acjk #stroke-p9 { animation-name: zk9; }
]]>
</style>
<defs>
    <path id="p1" d="M 450 105 Q 481 127 514 153 Q 527 165 543 162 Q 553 161 557 148 Q 560 133 549 106 Q 542 87 509 74 Q 433 53 420 61 Q 416 65 418 77 Q 422 87 450 105 Z"/>
    <path id="p2" d="M 258 237 Q 248 216 237 209 Q 218 194 216 221 Q 220 252 188 292 Q 143 337 175 397 Q 191 424 211 396 Q 227 372 237 338 Q 249 296 261 270 C 265 260 263 247 258 237 Z"/>
    <path id="p3" d="M 261 270 Q 282 279 334 269 Q 460 232 662 213 Q 702 209 717 211 Q 736 223 735 231 Q 722 273 707 318 C 708 319 708 319 709 319 Q 716 323 731 311 Q 782 274 824 261 Q 858 248 858 241 Q 857 231 786 180 Q 765 162 684 178 Q 542 196 362 224 Q 310 231 258 237 C 247 239 251 266 261 270 Z"/>
    <path id="p4" d="M 355 306 Q 359 318 353 327 Q 322 381 254 443 Q 244 449 242 453 Q 238 460 248 461 Q 288 461 382 377 Q 395 364 407 358 Q 414 352 414 341 Q 413 331 396 311 Q 380 293 367 290 Q 354 289 355 306 Z"/>
    <path id="p5" d="M 582 324 Q 610 349 642 380 Q 654 392 667 391 Q 677 391 681 379 Q 685 366 678 341 Q 674 320 643 305 Q 577 275 560 281 Q 556 285 557 296 Q 560 306 582 324 Z"/>
    <path id="p6" d="M 516 491 Q 633 464 639 459 Q 648 452 643 443 Q 636 433 608 425 Q 578 419 533 437 C 485 451 485 451 461 458 Q 410 470 349 476 Q 313 482 339 498 Q 372 519 444 505 Q 450 504 458 503 C 497 495 497 495 516 491 Z"/>
    <path id="p7" d="M 496 697 Q 599 663 643 672 C 656 675 660 628 647 631 Q 568 641 496 657 C 467 664 467 664 453 667 Q 389 680 335 700 Q 322 701 327 685 Q 334 655 342 624 Q 349 600 341 585 Q 328 566 306 549 Q 296 542 284 542 Q 274 546 279 566 Q 292 612 280 656 Q 270 698 251 714 Q 232 730 238 745 Q 248 761 266 773 Q 279 782 290 773 Q 311 748 453 709 C 482 701 482 701 496 697 Z"/>
    <path id="p8" d="M 643 672 Q 647 694 656 712 Q 665 728 676 717 Q 698 690 702 615 Q 715 560 721 554 Q 728 539 719 527 Q 701 512 671 495 Q 659 488 648 494 Q 641 498 643 510 Q 650 517 657 581 Q 654 609 647 631 C 643 644 640 659 643 672 Z"/>
    <path id="p9" d="M 897 829 Q 878 777 864 688 Q 861 672 854 666 Q 845 662 842 682 Q 829 794 813 814 Q 783 848 650 853 Q 577 852 546 840 Q 519 827 513 808 Q 500 774 496 697 C 496 670 496 670 496 657 Q 496 576 516 491 C 527 455 527 455 533 437 Q 537 415 523 400 Q 471 358 455 363 Q 439 369 446 387 Q 461 417 461 458 C 459 488 459 488 458 503 Q 454 597 453 667 C 453 695 453 695 453 709 Q 454 835 500 869 Q 558 911 754 903 Q 844 899 879 879 Q 910 863 897 829 Z"/>

    <clipPath id="z31360c1"><use href="#p1"/></clipPath>
    <clipPath id="z31360c2"><use href="#p2"/></clipPath>
    <clipPath id="z31360c3"><use href="#p3"/></clipPath>
    <clipPath id="z31360c4"><use href="#p4"/></clipPath>
    <clipPath id="z31360c5"><use href="#p5"/></clipPath>
    <clipPath id="z31360c6"><use href="#p6"/></clipPath>
    <clipPath id="z31360c7"><use href="#p7"/></clipPath>
    <clipPath id="z31360c8"><use href="#p8"/></clipPath>
    <clipPath id="z31360c9"><use href="#p9"/></clipPath>
</defs>
<g id="bg-layer" class="bg">
<use href="#p1"/>
<use href="#p2"/>
<use href="#p3"/>
<use href="#p4"/>
<use href="#p5"/>
<use href="#p6"/>
<use href="#p7"/>
<use href="#p8"/>
<use href="#p9"/>
</g>
<g id="anim-layer">
    <path id="stroke-p1" style="stroke:#FF4444" pathLength="3333" clip-path="url(#z31360c1)" d="M 425 66 L 552 151"/>
    <path id="stroke-p2" style="stroke:#FF4444" pathLength="3333" clip-path="url(#z31360c2)" d="M 226 210 L 234 265 L 185 405"/>
    <path id="stroke-p3" style="stroke:#FF4444" pathLength="3333" clip-path="url(#z31360c3)" d="M 265 241 L 314 251 L 723 191 L 780 218 L 804 252 L 716 314"/>
    <path id="stroke-p4" style="stroke:#FF4444" pathLength="3333" clip-path="url(#z31360c4)" d="M 364 297 L 378 345 L 248 454"/>
    <path id="stroke-p5" style="stroke:#FF4444" pathLength="3333" clip-path="url(#z31360c5)" d="M 564 288 L 674 383"/>
    <path id="stroke-p6" style="stroke:#000" pathLength="3333" clip-path="url(#z31360c6)" d="M 336 484 L 638 449"/>
    <path id="stroke-p7" style="stroke:#000" pathLength="3333" clip-path="url(#z31360c7)" d="M 287 547 L 315 608 L 282 718 L 299 736 L 642 640"/>
    <path id="stroke-p8" style="stroke:#000" pathLength="3333" clip-path="url(#z31360c8)" d="M 650 499 L 689 552 L 663 715"/>
    <path id="stroke-p9" style="stroke:#000" pathLength="3333" clip-path="url(#z31360c9)" d="M 451 368 L 497 434 L 474 707 L 508 844 L 641 878 L 850 844 L 852 670"/>
</g>
</svg>