<svg id="z31456" class="acjk" viewBox="0 0 1024 1024" xmlns="http://www.w3.org/2000/svg">
<style>
<![CDATA[
svg.acjk path[clip-path] {
    animation-duration: 11.3s;
    animation-timing-function: linear;
    animation-iteration-count: infinite;
    stroke-dasharray: 3337;
    stroke-dashoffset: 3339;
    stroke-width: 128;
    stroke-linecap: round;
    fill: none;
    stroke: #FF4444;
}
svg.acjk .bg { fill: #ccc; opacity: 0.5; }

/* Stroke 1: Starts at 0.0%, finishes at 7.1%, holds until 77.9% */
@keyframes zk1 {
    0%, 0.0% { stroke-dashoffset: 3339; }
    7.1%, 77.9% { stroke-dashoffset: 0; }
    78.0%, 100% { stroke-dashoffset: 3339; }
}
svg.acjk #stroke-p1 { animation-name: zk1; }
/* Stroke 2: Starts at 7.1%, finishes at 14.2%, holds until 77.9% */
@keyframes zk2 {
    0%, 7.1% { stroke-dashoffset: 3339; }
    14.2%, 77.9% { stroke-dashoffset: 0; }
    78.0%, 100% { stroke-dashoffset: 3339; }
}
svg.acjk #stroke-p2 { animation-name: zk2; }
/* Stroke 3: Starts at 14.2%, finishes at 21.2%, holds until 77.9% */
@keyframes zk3 {
    0%, 14.2% { stroke-dashoffset: 3339; }
    21.2%, 77.9% { stroke-dashoffset: 0; }
    78.0%, 100% { stroke-dashoffset: 3339; }
}
svg.acjk #stroke-p3 { animation-name: zk3; }
/* Stroke 4: Starts at 21.2%, finishes at 28.3%, holds until 77.9% */
@keyframes zk4 {
    0%, 21.2% { stroke-dashoffset: 3339; }
    28.3%, 77.9% { stroke-dashoffset: 0; }
    78.0%, 100% { stroke-dashoffset: 3339; }
}
svg.acjk #stroke-p4 { animation-name: zk4; }
/* Stroke 5: Starts at 28.3%, finishes at 35.4%, holds until 77.9% */
@keyframes zk5 {
    0%, 28.3% { stroke-dashoffset: 3339; }
    35.4%, 77.9% { stroke-dashoffset: 0; }
    78.0%, 100% { stroke-dashoffset: 3339; }
}
svg.acjk #stroke-p5 { animation-name: zk5; }
/* Stroke 6: Starts at 35.4%, finishes at 42.5%, holds until 77.9% */
@keyframes zk6 {
    0%, 35.4% { stroke-dashoffset: 3339; }
    42.5%, 77.9% { stroke-dashoffset: 0; }
    78.0%, 100% { stroke-dashoffset: 3339; }
}
svg.acjk #stroke-p6 { animation-name: zk6; }
/* Stroke 7: Starts at 42.5%, finishes at 49.6%, holds until 77.9% */
@keyframes zk7 {
    0%, 42.5% { stroke-dashoffset: 3339; }
    49.6%, 77.9% { stroke-dashoffset: 0; }
    78.0%, 100% { stroke-dashoffset: 3339; }
}
svg.acjk #stroke-p7 { animation-name: zk7; }
/* Stroke 8: Starts at 49.6%, finishes at 56.6%, holds until 77.9% */
@keyframes zk8 {
    0%, 49.6% { stroke-dashoffset: 3339; }
    56.6%, 77.9% { stroke-dashoffset: 0; }
    78.0%, 100% { stroke-dashoffset: 3339; }
}
svg.acjk #stroke-p8 { animation-name: zk8; }
/* Stroke 9: Starts at 56.6%, finishes at 63.7%, holds until 77.9% */
@keyframes zk9 {
    0%, 56.6% { stroke-dashoffset: 3339; }
    63.7%, 77.9% { stroke-dashoffset: 0; }
    78.0%, 100% { stroke-dashoffset: 3339; }
}
svg.acjk #stroke-p9 { animation-name: zk9; }
/* Stroke 10: Starts at 63.7%, finishes at 70.8%, holds until 77.9% */
@keyframes zk10 {
    0%, 63.7% { stroke-dashoffset: 3339; }
    70.8%, 77.9% { stroke-dashoffset: 0; }
    78.0%, 100% { stroke-dashoffset: 3339; }
}
svg.acjk #stroke-p10 { animation-name: zk10; }
/* Stroke 11: Starts at 70.8%, finishes at 77.9%, holds until 77.9% */
@keyframes zk11 {
    0%, 70.8% { stroke-dashoffset: 3339; }
    77.9%, 77.9% { stroke-dashoffset: 0; }
    78.0%, 100% { stroke-dashoffset: 3339; }
}
svg.acjk #stroke-p11 { animation-name: zk11; }
]]>
</style>
<defs>
    <path id="p1" d="M 476 88 Q 500 104 526 126 Q 539 136 553 133 Q 562 132 565 120 Q 568 107 557 82 Q 545 55 466 48 Q 453 47 448 49 Q 444 53 446 64 Q 450 73 476 88 Z"/>
    <path id="p2" d="M 616 191 Q 709 173 713 171 Q 722 164 718 156 Q 712 143 684 135 Q 651 125 568 151 Q 427 175 344 177 Q 308 181 332 199 Q 365 221 446 213 Q 513 204 583 195 C 605 192 605 192 616 191 Z"/>
    <path id="p3" d="M 370 261 Q 406 330 427 335 Q 437 339 447 324 Q 451 314 446 294 Q 440 278 421 266 Q 393 244 379 239 Q 372 236 369 246 Q 366 252 370 261 Z"/>
    <path id="p4" d="M 575 339 Q 581 332 620 274 Q 627 261 642 244 Q 655 234 649 224 Q 642 208 616 191 C 606 185 581 184 583 195 Q 583 196 584 198 Q 591 225 550 325 Q 546 334 543 343 C 539 353 569 348 575 339 Z"/>
    <path id="p5" d="M 543 343 Q 527 343 509 346 Q 335 365 129 385 Q 107 386 123 405 Q 138 420 156 426 Q 178 432 195 427 Q 504 349 892 370 Q 893 369 896 370 Q 917 370 922 361 Q 929 349 911 335 Q 857 293 819 301 Q 725 319 575 339 C 554 342 554 342 543 343 Z"/>
    <path id="p6" d="M 352 443 Q 342 439 316 437 Q 304 434 301 440 Q 295 447 304 462 Q 335 514 357 602 Q 361 629 379 646 Q 398 665 402 650 Q 403 643 404 635 C 403 619 403 619 403 611 Q 397 578 391 554 C 387 539 387 539 385 531 Q 376 491 374 474 C 372 462 364 448 352 443 Z"/>
    <path id="p7" d="M 594 619 Q 607 638 621 646 Q 630 653 645 635 Q 657 619 684 525 Q 693 497 716 474 Q 729 464 718 450 Q 705 434 665 408 Q 650 399 590 411 Q 578 412 565 414 Q 421 435 352 443 C 340 445 362 476 374 474 Q 437 458 590 444 Q 618 441 628 451 Q 637 463 635 473 Q 617 570 601 588 C 596 597 588 611 594 619 Z"/>
    <path id="p8" d="M 391 554 Q 392 554 395 554 Q 495 541 568 532 Q 587 529 580 518 Q 573 506 551 501 Q 533 498 385 531 C 377 533 383 554 391 554 Z"/>
    <path id="p9" d="M 527 625 Q 561 621 594 619 C 605 619 610 593 601 588 Q 597 585 590 584 Q 574 581 403 611 C 395 612 396 634 404 635 Q 411 636 425 636 Q 450 632 477 630 C 510 627 510 627 527 625 Z"/>
    <path id="p10" d="M 526 745 Q 632 738 788 743 Q 860 746 866 737 Q 872 725 855 710 Q 801 668 763 675 Q 673 690 526 707 C 491 711 491 711 473 713 Q 341 723 190 738 Q 168 739 183 757 Q 198 772 216 778 Q 238 785 254 781 Q 354 757 468 749 Q 469 748 472 749 C 508 746 508 746 526 745 Z"/>
    <path id="p11" d="M 472 749 Q 469 957 488 978 Q 498 988 509 966 Q 525 932 526 745 C 526 720 526 720 526 707 Q 526 667 527 625 C 527 608 477 613 477 630 Q 476 670 473 713 C 472 737 472 737 472 749 Z"/>

    <clipPath id="z31456c1"><use href="#p1"/></clipPath>
    <clipPath id="z31456c2"><use href="#p2"/></clipPath>
    <clipPath id="z31456c3"><use href="#p3"/></clipPath>
    <clipPath id="z31456c4"><use href="#p4"/></clipPath>
    <clipPath id="z31456c5"><use href="#p5"/></clipPath>
    <clipPath id="z31456c6"><use href="#p6"/></clipPath>
    <clipPath id="z31456c7"><use href="#p7"/></clipPath>
    <clipPath id="z31456c8"><use href="#p8"/></clipPath>
    <clipPath id="z31456c9"><use href="#p9"/></clipPath>
    <clipPath id="z31456c10"><use href="#p10"/></clipPath>
    <clipPath id="z31456c11"><use href="#p11"/></clipPath>
</defs>
<g id="bg-layer" class="bg">
<use href="#p1"/>
<use href="#p2"/>
<use href="#p3"/>
<use href="#p4"/>
<use href="#p5"/>
<use href="#p6"/>
<use href="#p7"/>
<use href="#p8"/>
<use href="#p9"/>
<use href="#p10"/>
<use href="#p11"/>
</g>
<g id="anim-layer">
    <path id="stroke-p1" style="stroke:#FF4444" pathLength="3333" clip-path="url(#z31456c1)" d="M 452 53 L 557 127"/>
    <path id="stroke-p2" style="stroke:#FF4444" pathLength="3333" clip-path="url(#z31456c2)" d="M 329 187 L 714 159"/>
    <path id="stroke-p3" style="stroke:#FF4444" pathLength="3333" clip-path="url(#z31456c3)" d="M 375 246 L 433 332"/>
    <path id="stroke-p4" style="stroke:#FF4444" pathLength="3333" clip-path="url(#z31456c4)" d="M 591 195 L 615 237 L 553 344"/>
    <path id="stroke-p5" style="stroke:#FF4444" pathLength="3333" clip-path="url(#z31456c5)" d="M 123 394 L 180 405 L 826 333 L 918 351"/>
    <path id="stroke-p6" style="stroke:#000" pathLength="3333" clip-path="url(#z31456c6)" d="M 307 445 L 341 470 L 391 652"/>
    <path id="stroke-p7" style="stroke:#000" pathLength="3333" clip-path="url(#z31456c7)" d="M 355 448 L 650 431 L 679 466 L 617 641"/>
    <path id="stroke-p8" style="stroke:#000" pathLength="3333" clip-path="url(#z31456c8)" d="M 386 541 L 577 519"/>
    <path id="stroke-p9" style="stroke:#000" pathLength="3333" clip-path="url(#z31456c9)" d="M 401 624 L 601 606"/>
    <path id="stroke-p10" style="stroke:#000" pathLength="3333" clip-path="url(#z31456c10)" d="M 186 747 L 767 708 L 863 725"/>
    <path id="stroke-p11" style="stroke:#000" pathLength="3333" clip-path="url(#z31456c11)" d="M 515 618 L 499 976"/>
</g>
</svg>