<svg id="z31491" class="acjk" viewBox="0 0 1024 1024" xmlns="http://www.w3.org/2000/svg">
<style>
<![CDATA[
svg.acjk path[clip-path] {
    animation-duration: 9.7s;
    animation-timing-function: linear;
    animation-iteration-count: infinite;
    stroke-dasharray: 3337;
    stroke-dashoffset: 3339;
    stroke-width: 128;
    stroke-linecap: round;
    fill: none;
    stroke: #FF4444;
}
svg.acjk .bg { fill: #ccc; opacity: 0.5; }

/* Stroke 1: Starts at 0.0%, finishes at 8.2%, holds until 74.2% */
@keyframes zk1 {
    0%, 0.0% { stroke-dashoffset: 3339; }
    8.2%, 74.2% { stroke-dashoffset: 0; }
    74.3%, 100% { stroke-dashoffset: 3339; }
}
svg.acjk #stroke-p1 { animation-name: zk1; }
/* Stroke 2: Starts at 8.2%, finishes at 16.5%, holds until 74.2% */
@keyframes zk2 {
    0%, 8.2% { stroke-dashoffset: 3339; }
    16.5%, 74.2% { stroke-dashoffset: 0; }
    74.3%, 100% { stroke-dashoffset: 3339; }
}
svg.acjk #stroke-p2 { animation-name: zk2; }
/* Stroke 3: Starts at 16.5%, finishes at 24.7%, holds until 74.2% */
@keyframes zk3 {
    0%, 16.5% { stroke-dashoffset: 3339; }
    24.7%, 74.2% { stroke-dashoffset: 0; }
    74.3%, 100% { stroke-dashoffset: 3339; }
}
svg.acjk #stroke-p3 { animation-name: zk3; }
/* Stroke 4: Starts at 24.7%, finishes at 33.0%, holds until 74.2% */
@keyframes zk4 {
    0%, 24.7% { stroke-dashoffset: 3339; }
    33.0%, 74.2% { stroke-dashoffset: 0; }
    74.3%, 100% { stroke-dashoffset: 3339; }
}
svg.acjk #stroke-p4 { animation-name: zk4; }
/* Stroke 5: Starts at 33.0%, finishes at 41.2%, holds until 74.2% */
@keyframes zk5 {
    0%, 33.0% { stroke-dashoffset: 3339; }
    41.2%, 74.2% { stroke-dashoffset: 0; }
    74.3%, 100% { stroke-dashoffset: 3339; }
}
svg.acjk #stroke-p5 { animation-name: zk5; }
/* Stroke 6: Starts at 41.2%, finishes at 49.5%, holds until 74.2% */
@keyframes zk6 {
    0%, 41.2% { stroke-dashoffset: 3339; }
    49.5%, 74.2% { stroke-dashoffset: 0; }
    74.3%, 100% { stroke-dashoffset: 3339; }
}
svg.acjk #stroke-p6 { animation-name: zk6; }
/* Stroke 7: Starts at 49.5%, finishes at 57.7%, holds until 74.2% */
@keyframes zk7 {
    0%, 49.5% { stroke-dashoffset: 3339; }
    57.7%, 74.2% { stroke-dashoffset: 0; }
    74.3%, 100% { stroke-dashoffset: 3339; }
}
svg.acjk #stroke-p7 { animation-name: zk7; }
/* Stroke 8: Starts at 57.7%, finishes at 66.0%, holds until 74.2% */
@keyframes zk8 {
    0%, 57.7% { stroke-dashoffset: 3339; }
    66.0%, 74.2% { stroke-dashoffset: 0; }
    74.3%, 100% { stroke-dashoffset: 3339; }
}
svg.acjk #stroke-p8 { animation-name: zk8; }
/* Stroke 9: Starts at 66.0%, finishes at 74.2%, holds until 74.2% */
@keyframes zk9 {
    0%, 66.0% { stroke-dashoffset: 3339; }
    74.2%, 74.2% { stroke-dashoffset: 0; }
    74.3%, 100% { stroke-dashoffset: 3339; }
}
svg.acjk #stroke-p9 { animation-name: zk9; }
]]>
</style>
<defs>
    <path id="p1" d="M 326 186 Q 339 164 353 144 Q 363 131 347 117 Q 305 86 279 91 Q 267 94 271 108 Q 286 193 206 290 Q 187 314 177 328 Q 170 344 184 338 Q 199 335 218 320 Q 279 271 312 210 C 321 194 321 194 326 186 Z"/>
    <path id="p2" d="M 312 210 Q 352 223 434 206 Q 492 194 500 190 Q 507 183 503 175 Q 496 165 469 158 Q 468 158 326 186 C 317 188 303 208 312 210 Z"/>
    <path id="p3" d="M 351 297 Q 369 312 388 330 Q 400 340 413 339 Q 422 339 425 328 Q 429 315 420 291 Q 416 278 393 268 Q 339 253 328 257 Q 324 261 325 271 Q 329 280 351 297 Z"/>
    <path id="p4" d="M 601 166 Q 617 133 635 107 Q 644 94 628 80 Q 582 52 558 57 Q 548 61 551 75 Q 569 150 501 250 Q 494 253 472 292 Q 465 308 480 302 Q 534 284 589 189 C 597 174 597 174 601 166 Z"/>
    <path id="p5" d="M 589 189 Q 625 204 691 194 Q 811 170 819 166 Q 826 159 823 151 Q 816 141 790 133 Q 762 129 735 139 Q 705 148 673 156 Q 640 162 601 166 C 592 167 581 186 589 189 Z"/>
    <path id="p6" d="M 637 280 Q 665 296 695 319 Q 708 328 721 326 Q 731 325 733 312 Q 734 299 724 274 Q 717 258 687 248 Q 618 233 608 241 Q 604 245 607 256 Q 611 265 637 280 Z"/>
    <path id="p7" d="M 597 573 Q 609 558 628 489 Q 641 437 676 406 Q 694 390 677 374 Q 658 358 607 335 Q 595 328 536 342 Q 518 342 425 366 Q 377 378 347 381 Q 331 382 328 387 Q 324 393 341 403 Q 375 421 396 413 Q 444 397 552 382 Q 571 381 578 383 Q 588 387 584 416 Q 571 519 562 541 Q 556 556 563 576 C 567 587 590 582 597 573 Z"/>
    <path id="p8" d="M 563 576 Q 502 583 412 597 Q 396 604 390 590 Q 423 494 423 489 C 422 488 422 488 422 488 Q 412 469 390 454 Q 375 445 366 451 Q 360 454 365 466 Q 368 500 338 596 Q 335 600 334 605 Q 327 624 339 642 Q 355 661 377 650 Q 425 620 577 604 Q 736 583 743 618 Q 743 633 712 775 Q 702 821 680 850 Q 670 865 641 864 Q 601 854 565 846 Q 550 842 551 849 Q 551 855 560 862 Q 626 913 651 950 Q 660 969 677 959 Q 738 928 752 866 Q 774 784 792 691 Q 801 654 821 623 Q 834 607 823 593 Q 807 572 769 549 Q 748 536 719 548 Q 667 567 619 570 Q 609 570 597 573 C 574 575 574 575 563 576 Z"/>
    <path id="p9" d="M 395 755 Q 428 752 459 748 Q 544 738 632 745 Q 654 746 658 738 Q 665 726 653 716 Q 625 692 584 675 Q 571 671 548 679 Q 461 698 352 713 Q 165 738 133 740 Q 120 741 120 751 Q 120 763 137 775 Q 153 785 182 795 Q 192 799 208 790 Q 218 786 264 778 Q 322 763 395 755 Z"/>

    <clipPath id="z31491c1"><use href="#p1"/></clipPath>
    <clipPath id="z31491c2"><use href="#p2"/></clipPath>
    <clipPath id="z31491c3"><use href="#p3"/></clipPath>
    <clipPath id="z31491c4"><use href="#p4"/></clipPath>
    <clipPath id="z31491c5"><use href="#p5"/></clipPath>
    <clipPath id="z31491c6"><use href="#p6"/></clipPath>
    <clipPath id="z31491c7"><use href="#p7"/></clipPath>
    <clipPath id="z31491c8"><use href="#p8"/></clipPath>
    <clipPath id="z31491c9"><use href="#p9"/></clipPath>
</defs>
<g id="bg-layer" class="bg">
<use href="#p1"/>
<use href="#p2"/>
<use href="#p3"/>
<use href="#p4"/>
<use href="#p5"/>
<use href="#p6"/>
<use href="#p7"/>
<use href="#p8"/>
<use href="#p9"/>
</g>
<g id="anim-layer">
    <path id="stroke-p1" style="stroke:#FF4444" pathLength="3333" clip-path="url(#z31491c1)" d="M 277 96 L 314 133 L 298 180 L 181 331"/>
    <path id="stroke-p2" style="stroke:#FF4444" pathLength="3333" clip-path="url(#z31491c2)" d="M 321 207 L 498 179"/>
    <path id="stroke-p3" style="stroke:#FF4444" pathLength="3333" clip-path="url(#z31491c3)" d="M 332 263 L 416 332"/>
    <path id="stroke-p4" style="stroke:#FF4444" pathLength="3333" clip-path="url(#z31491c4)" d="M 557 62 L 595 111 L 536 233 L 478 297"/>
    <path id="stroke-p5" style="stroke:#FF4444" pathLength="3333" clip-path="url(#z31491c5)" d="M 595 184 L 817 155"/>
    <path id="stroke-p6" style="stroke:#FF4444" pathLength="3333" clip-path="url(#z31491c6)" d="M 613 248 L 690 280 L 724 318"/>
    <path id="stroke-p7" style="stroke:#000" pathLength="3333" clip-path="url(#z31491c7)" d="M 333 390 L 550 360 L 611 370 L 634 397 L 576 574"/>
    <path id="stroke-p8" style="stroke:#000" pathLength="3333" clip-path="url(#z31491c8)" d="M 373 452 L 393 490 L 362 608 L 378 626 L 724 572 L 784 608 L 728 832 L 692 896 L 650 911 L 559 851"/>
    <path id="stroke-p9" style="stroke:#000" pathLength="3333" clip-path="url(#z31491c9)" d="M 124 749 L 189 765 L 563 708 L 656 730"/>
</g>
</svg>