<svg id="z31598" class="acjk" viewBox="0 0 1024 1024" xmlns="http://www.w3.org/2000/svg">
<style>
<![CDATA[
svg.acjk path[clip-path] {
    animation-duration: 12.9s;
    animation-timing-function: linear;
    animation-iteration-count: infinite;
    stroke-dasharray: 3337;
    stroke-dashoffset: 3339;
    stroke-width: 128;
    stroke-linecap: round;
    fill: none;
    stroke: #FF4444;
}
svg.acjk .bg { fill: #ccc; opacity: 0.5; }

/* Stroke 1: Starts at 0.0%, finishes at 6.2%, holds until 80.6% */
@keyframes zk1 {
    0%, 0.0% { stroke-dashoffset: 3339; }
    6.2%, 80.6% { stroke-dashoffset: 0; }
    80.7%, 100% { stroke-dashoffset: 3339; }
}
svg.acjk #stroke-p1 { animation-name: zk1; }
/* Stroke 2: Starts at 6.2%, finishes at 12.4%, holds until 80.6% */
@keyframes zk2 {
    0%, 6.2% { stroke-dashoffset: 3339; }
    12.4%, 80.6% { stroke-dashoffset: 0; }
    80.7%, 100% { stroke-dashoffset: 3339; }
}
svg.acjk #stroke-p2 { animation-name: zk2; }
/* Stroke 3: Starts at 12.4%, finishes at 18.6%, holds until 80.6% */
@keyframes zk3 {
    0%, 12.4% { stroke-dashoffset: 3339; }
    18.6%, 80.6% { stroke-dashoffset: 0; }
    80.7%, 100% { stroke-dashoffset: 3339; }
}
svg.acjk #stroke-p3 { animation-name: zk3; }
/* Stroke 4: Starts at 18.6%, finishes at 24.8%, holds until 80.6% */
@keyframes zk4 {
    0%, 18.6% { stroke-dashoffset: 3339; }
    24.8%, 80.6% { stroke-dashoffset: 0; }
    80.7%, 100% { stroke-dashoffset: 3339; }
}
svg.acjk #stroke-p4 { animation-name: zk4; }
/* Stroke 5: Starts at 24.8%, finishes at 31.0%, holds until 80.6% */
@keyframes zk5 {
    0%, 24.8% { stroke-dashoffset: 3339; }
    31.0%, 80.6% { stroke-dashoffset: 0; }
    80.7%, 100% { stroke-dashoffset: 3339; }
}
svg.acjk #stroke-p5 { animation-name: zk5; }
/* Stroke 6: Starts at 31.0%, finishes at 37.2%, holds until 80.6% */
@keyframes zk6 {
    0%, 31.0% { stroke-dashoffset: 3339; }
    37.2%, 80.6% { stroke-dashoffset: 0; }
    80.7%, 100% { stroke-dashoffset: 3339; }
}
svg.acjk #stroke-p6 { animation-name: zk6; }
/* Stroke 7: Starts at 37.2%, finishes at 43.4%, holds until 80.6% */
@keyframes zk7 {
    0%, 37.2% { stroke-dashoffset: 3339; }
    43.4%, 80.6% { stroke-dashoffset: 0; }
    80.7%, 100% { stroke-dashoffset: 3339; }
}
svg.acjk #stroke-p7 { animation-name: zk7; }
/* Stroke 8: Starts at 43.4%, finishes at 49.6%, holds until 80.6% */
@keyframes zk8 {
    0%, 43.4% { stroke-dashoffset: 3339; }
    49.6%, 80.6% { stroke-dashoffset: 0; }
    80.7%, 100% { stroke-dashoffset: 3339; }
}
svg.acjk #stroke-p8 { animation-name: zk8; }
/* Stroke 9: Starts at 49.6%, finishes at 55.8%, holds until 80.6% */
@keyframes zk9 {
    0%, 49.6% { stroke-dashoffset: 3339; }
    55.8%, 80.6% { stroke-dashoffset: 0; }
    80.7%, 100% { stroke-dashoffset: 3339; }
}
svg.acjk #stroke-p9 { animation-name: zk9; }
/* Stroke 10: Starts at 55.8%, finishes at 62.0%, holds until 80.6% */
@keyframes zk10 {
    0%, 55.8% { stroke-dashoffset: 3339; }
    62.0%, 80.6% { stroke-dashoffset: 0; }
    80.7%, 100% { stroke-dashoffset: 3339; }
}
svg.acjk #stroke-p10 { animation-name: zk10; }
/* Stroke 11: Starts at 62.0%, finishes at 68.2%, holds until 80.6% */
@keyframes zk11 {
    0%, 62.0% { stroke-dashoffset: 3339; }
    68.2%, 80.6% { stroke-dashoffset: 0; }
    80.7%, 100% { stroke-dashoffset: 3339; }
}
svg.acjk #stroke-p11 { animation-name: zk11; }
/* Stroke 12: Starts at 68.2%, finishes at 74.4%, holds until 80.6% */
@keyframes zk12 {
    0%, 68.2% { stroke-dashoffset: 3339; }
    74.4%, 80.6% { stroke-dashoffset: 0; }
    80.7%, 100% { stroke-dashoffset: 3339; }
}
svg.acjk #stroke-p12 { animation-name: zk12; }
/* Stroke 13: Starts at 74.4%, finishes at 80.6%, holds until 80.6% */
@keyframes zk13 {
    0%, 74.4% { stroke-dashoffset: 3339; }
    80.6%, 80.6% { stroke-dashoffset: 0; }
    80.7%, 100% { stroke-dashoffset: 3339; }
}
svg.acjk #stroke-p13 { animation-name: zk13; }
]]>
</style>
<defs>
    <path id="p1" d="M 342 215 C 354 194 366 176 379 161 C 385 152 385 142 375 134 C 347 110 323 101 307 104 C 300 105 296 111 298 121 C 311 227 195 341 176 359 C 161 373 168 382 186 373 C 270 328 318 252 325 242 C 336 224 336 224 342 215 Z"/>
    <path id="p2" d="M 325 242 C 357 252 385 250 413 244 C 439 237 466 233 494 227 C 505 224 528 218 519 203 C 514 196 502 189 484 186 C 464 182 445 189 425 195 C 404 201 369 210 342 215 C 332 217 315 240 325 242 Z"/>
    <path id="p3" d="M 353 338 C 381 366 397 382 408 382 C 429 381 423 348 419 335 C 416 326 408 317 394 312 C 360 298 338 293 332 297 C 328 298 328 304 329 311 C 329 317 339 324 353 338 Z"/>
    <path id="p4" d="M 649 191 C 663 164 678 140 693 120 C 699 111 698 101 687 93 C 659 71 636 63 619 67 C 610 68 609 74 611 84 C 627 178 561 253 504 320 C 478 350 502 343 518 335 C 569 312 624 234 635 216 C 644 199 644 199 649 191 Z"/>
    <path id="p5" d="M 635 216 C 661 230 690 230 725 222 C 758 213 793 208 828 201 C 840 198 867 193 859 175 C 855 167 842 162 824 158 C 804 153 785 157 766 165 C 718 182 685 186 649 191 C 640 193 626 212 635 216 Z"/>
    <path id="p6" d="M 677 313 C 689 322 701 333 714 345 C 719 349 749 366 757 340 C 759 330 756 316 749 298 C 744 288 735 279 719 276 C 677 266 652 264 648 269 C 633 286 665 304 677 313 Z"/>
    <path id="p7" d="M 523 468 C 631 453 687 439 693 435 C 706 424 697 405 664 399 C 643 395 602 405 535 420 C 451 438 384 441 335 445 C 310 446 306 455 324 467 C 349 484 398 484 469 475 C 505 470 505 470 523 468 Z"/>
    <path id="p8" d="M 469 475 C 485 520 484 536 485 819 C 485 835 532 832 532 816 C 536 630 538 533 543 513 C 546 497 541 483 523 468 C 510 455 462 458 469 475 Z"/>
    <path id="p9" d="M 298 541 C 306 629 252 688 192 750 C 158 785 191 775 205 767 C 257 739 304 682 316 663 C 325 648 325 648 330 640 C 344 616 358 596 373 578 C 378 570 379 562 369 553 C 345 531 323 523 307 525 C 300 525 296 531 298 541 Z"/>
    <path id="p10" d="M 316 663 C 322 672 343 686 398 742 C 409 753 444 768 432 709 C 429 694 418 679 397 668 C 376 656 354 648 330 640 C 322 637 311 656 316 663 Z"/>
    <path id="p11" d="M 665 496 C 682 586 627 650 575 712 C 546 747 579 732 588 728 C 612 716 640 691 670 650 C 680 636 680 636 685 629 C 695 614 724 562 744 530 C 749 521 749 513 739 505 C 713 484 690 475 672 479 C 665 480 663 486 665 496 Z"/>
    <path id="p12" d="M 670 650 C 689 665 706 675 772 727 C 782 735 803 743 809 724 C 811 715 808 703 803 687 C 797 672 784 658 761 649 C 737 639 711 634 685 629 C 677 627 663 645 670 650 Z"/>
    <path id="p13" d="M 485 819 C 464 820 320 837 250 847 C 214 851 179 854 147 852 C 135 851 116 859 127 875 C 133 885 155 901 193 921 C 202 925 214 924 229 919 C 328 882 432 857 541 854 C 683 849 742 857 898 889 C 925 894 939 877 913 855 C 859 810 819 796 792 799 C 711 807 588 812 532 816 C 501 818 501 818 485 819 Z"/>

    <clipPath id="z31598c1"><use href="#p1"/></clipPath>
    <clipPath id="z31598c2"><use href="#p2"/></clipPath>
    <clipPath id="z31598c3"><use href="#p3"/></clipPath>
    <clipPath id="z31598c4"><use href="#p4"/></clipPath>
    <clipPath id="z31598c5"><use href="#p5"/></clipPath>
    <clipPath id="z31598c6"><use href="#p6"/></clipPath>
    <clipPath id="z31598c7"><use href="#p7"/></clipPath>
    <clipPath id="z31598c8"><use href="#p8"/></clipPath>
    <clipPath id="z31598c9"><use href="#p9"/></clipPath>
    <clipPath id="z31598c10"><use href="#p10"/></clipPath>
    <clipPath id="z31598c11"><use href="#p11"/></clipPath>
    <clipPath id="z31598c12"><use href="#p12"/></clipPath>
    <clipPath id="z31598c13"><use href="#p13"/></clipPath>
</defs>
<g id="bg-layer" class="bg">
<use href="#p1"/>
<use href="#p2"/>
<use href="#p3"/>
<use href="#p4"/>
<use href="#p5"/>
<use href="#p6"/>
<use href="#p7"/>
<use href="#p8"/>
<use href="#p9"/>
<use href="#p10"/>
<use href="#p11"/>
<use href="#p12"/>
<use href="#p13"/>
</g>
<g id="anim-layer">
    <path id="stroke-p1" style="stroke:#FF4444" pathLength="3333" clip-path="url(#z31598c1)" d="M 306 109 L 340 150 L 316 204 L 264 287 L 176 369"/>
    <path id="stroke-p2" style="stroke:#FF4444" pathLength="3333" clip-path="url(#z31598c2)" d="M 329 236 L 517 206"/>
    <path id="stroke-p3" style="stroke:#FF4444" pathLength="3333" clip-path="url(#z31598c3)" d="M 335 305 L 415 375"/>
    <path id="stroke-p4" style="stroke:#FF4444" pathLength="3333" clip-path="url(#z31598c4)" d="M 617 75 L 654 121 L 595 236 L 499 336"/>
    <path id="stroke-p5" style="stroke:#FF4444" pathLength="3333" clip-path="url(#z31598c5)" d="M 635 209 L 856 179"/>
    <path id="stroke-p6" style="stroke:#FF4444" pathLength="3333" clip-path="url(#z31598c6)" d="M 651 279 L 717 307 L 749 346"/>
    <path id="stroke-p7" style="stroke:#000" pathLength="3333" clip-path="url(#z31598c7)" d="M 321 454 L 695 425"/>
    <path id="stroke-p8" style="stroke:#000" pathLength="3333" clip-path="url(#z31598c8)" d="M 473 467 L 511 510 L 513 827"/>
    <path id="stroke-p9" style="stroke:#000" pathLength="3333" clip-path="url(#z31598c9)" d="M 304 529 L 336 579 L 275 684 L 185 769"/>
    <path id="stroke-p10" style="stroke:#000" pathLength="3333" clip-path="url(#z31598c10)" d="M 320 650 L 398 702 L 418 748"/>
    <path id="stroke-p11" style="stroke:#000" pathLength="3333" clip-path="url(#z31598c11)" d="M 672 487 L 705 522 L 700 548 L 643 655 L 569 728"/>
    <path id="stroke-p12" style="stroke:#000" pathLength="3333" clip-path="url(#z31598c12)" d="M 673 642 L 761 681 L 804 728"/>
    <path id="stroke-p13" style="stroke:#000" pathLength="3333" clip-path="url(#z31598c13)" d="M 130 866 L 200 887 L 482 838 L 736 831 L 831 840 L 921 877"/>
</g>
</svg>