<svg id="z31607" class="acjk" viewBox="0 0 1024 1024" xmlns="http://www.w3.org/2000/svg">
<style>
<![CDATA[
svg.acjk path[clip-path] {
    animation-duration: 12.9s;
    animation-timing-function: linear;
    animation-iteration-count: infinite;
    stroke-dasharray: 3337;
    stroke-dashoffset: 3339;
    stroke-width: 128;
    stroke-linecap: round;
    fill: none;
    stroke: #FF4444;
}
svg.acjk .bg { fill: #ccc; opacity: 0.5; }

/* Stroke 1: Starts at 0.0%, finishes at 6.2%, holds until 80.6% */
@keyframes zk1 {
    0%, 0.0% { stroke-dashoffset: 3339; }
    6.2%, 80.6% { stroke-dashoffset: 0; }
    80.7%, 100% { stroke-dashoffset: 3339; }
}
svg.acjk #stroke-p1 { animation-name: zk1; }
/* Stroke 2: Starts at 6.2%, finishes at 12.4%, holds until 80.6% */
@keyframes zk2 {
    0%, 6.2% { stroke-dashoffset: 3339; }
    12.4%, 80.6% { stroke-dashoffset: 0; }
    80.7%, 100% { stroke-dashoffset: 3339; }
}
svg.acjk #stroke-p2 { animation-name: zk2; }
/* Stroke 3: Starts at 12.4%, finishes at 18.6%, holds until 80.6% */
@keyframes zk3 {
    0%, 12.4% { stroke-dashoffset: 3339; }
    18.6%, 80.6% { stroke-dashoffset: 0; }
    80.7%, 100% { stroke-dashoffset: 3339; }
}
svg.acjk #stroke-p3 { animation-name: zk3; }
/* Stroke 4: Starts at 18.6%, finishes at 24.8%, holds until 80.6% */
@keyframes zk4 {
    0%, 18.6% { stroke-dashoffset: 3339; }
    24.8%, 80.6% { stroke-dashoffset: 0; }
    80.7%, 100% { stroke-dashoffset: 3339; }
}
svg.acjk #stroke-p4 { animation-name: zk4; }
/* Stroke 5: Starts at 24.8%, finishes at 31.0%, holds until 80.6% */
@keyframes zk5 {
    0%, 24.8% { stroke-dashoffset: 3339; }
    31.0%, 80.6% { stroke-dashoffset: 0; }
    80.7%, 100% { stroke-dashoffset: 3339; }
}
svg.acjk #stroke-p5 { animation-name: zk5; }
/* Stroke 6: Starts at 31.0%, finishes at 37.2%, holds until 80.6% */
@keyframes zk6 {
    0%, 31.0% { stroke-dashoffset: 3339; }
    37.2%, 80.6% { stroke-dashoffset: 0; }
    80.7%, 100% { stroke-dashoffset: 3339; }
}
svg.acjk #stroke-p6 { animation-name: zk6; }
/* Stroke 7: Starts at 37.2%, finishes at 43.4%, holds until 80.6% */
@keyframes zk7 {
    0%, 37.2% { stroke-dashoffset: 3339; }
    43.4%, 80.6% { stroke-dashoffset: 0; }
    80.7%, 100% { stroke-dashoffset: 3339; }
}
svg.acjk #stroke-p7 { animation-name: zk7; }
/* Stroke 8: Starts at 43.4%, finishes at 49.6%, holds until 80.6% */
@keyframes zk8 {
    0%, 43.4% { stroke-dashoffset: 3339; }
    49.6%, 80.6% { stroke-dashoffset: 0; }
    80.7%, 100% { stroke-dashoffset: 3339; }
}
svg.acjk #stroke-p8 { animation-name: zk8; }
/* Stroke 9: Starts at 49.6%, finishes at 55.8%, holds until 80.6% */
@keyframes zk9 {
    0%, 49.6% { stroke-dashoffset: 3339; }
    55.8%, 80.6% { stroke-dashoffset: 0; }
    80.7%, 100% { stroke-dashoffset: 3339; }
}
svg.acjk #stroke-p9 { animation-name: zk9; }
/* Stroke 10: Starts at 55.8%, finishes at 62.0%, holds until 80.6% */
@keyframes zk10 {
    0%, 55.8% { stroke-dashoffset: 3339; }
    62.0%, 80.6% { stroke-dashoffset: 0; }
    80.7%, 100% { stroke-dashoffset: 3339; }
}
svg.acjk #stroke-p10 { animation-name: zk10; }
/* Stroke 11: Starts at 62.0%, finishes at 68.2%, holds until 80.6% */
@keyframes zk11 {
    0%, 62.0% { stroke-dashoffset: 3339; }
    68.2%, 80.6% { stroke-dashoffset: 0; }
    80.7%, 100% { stroke-dashoffset: 3339; }
}
svg.acjk #stroke-p11 { animation-name: zk11; }
/* Stroke 12: Starts at 68.2%, finishes at 74.4%, holds until 80.6% */
@keyframes zk12 {
    0%, 68.2% { stroke-dashoffset: 3339; }
    74.4%, 80.6% { stroke-dashoffset: 0; }
    80.7%, 100% { stroke-dashoffset: 3339; }
}
svg.acjk #stroke-p12 { animation-name: zk12; }
/* Stroke 13: Starts at 74.4%, finishes at 80.6%, holds until 80.6% */
@keyframes zk13 {
    0%, 74.4% { stroke-dashoffset: 3339; }
    80.6%, 80.6% { stroke-dashoffset: 0; }
    80.7%, 100% { stroke-dashoffset: 3339; }
}
svg.acjk #stroke-p13 { animation-name: zk13; }
]]>
</style>
<defs>
    <path id="p1" d="M 322 176 C 332 158 341 140 352 126 C 358 117 357 109 347 101 C 321 80 298 71 280 75 C 273 76 271 82 273 92 C 285 149 260 216 198 291 C 183 308 170 320 164 332 C 158 341 161 344 172 342 C 182 339 194 332 208 321 C 250 284 283 244 308 201 C 317 184 317 184 322 176 Z"/>
    <path id="p2" d="M 308 201 C 330 211 364 212 409 203 C 433 197 458 191 484 187 C 498 184 505 181 508 179 C 512 174 514 168 511 163 C 506 155 495 147 476 146 C 437 142 432 157 322 176 C 313 178 299 197 308 201 Z"/>
    <path id="p3" d="M 352 295 C 364 306 376 319 388 334 C 394 341 402 346 412 346 C 418 346 422 342 425 335 C 427 327 427 314 424 299 C 419 282 394 268 350 255 C 341 252 335 251 332 253 C 329 254 326 259 328 267 C 328 273 338 282 352 295 Z"/>
    <path id="p4" d="M 626 164 C 637 143 648 124 661 106 C 667 97 665 87 655 80 C 626 59 603 51 588 56 C 581 57 578 63 581 73 C 592 123 567 188 506 268 C 499 275 494 282 492 288 C 486 298 489 301 500 298 C 508 295 519 290 532 280 C 566 251 594 219 614 185 C 622 171 622 171 626 164 Z"/>
    <path id="p5" d="M 614 185 C 636 199 673 201 723 192 C 753 186 783 179 815 173 C 831 169 840 165 843 163 C 848 157 850 152 847 147 C 842 140 830 134 812 130 C 792 125 773 129 754 137 C 711 152 666 159 626 164 C 618 166 607 181 614 185 Z"/>
    <path id="p6" d="M 641 293 C 659 307 676 324 696 342 C 704 349 713 352 723 352 C 729 352 734 347 737 339 C 739 330 737 317 732 299 C 725 280 693 264 636 250 C 625 247 619 246 616 249 C 613 251 611 257 613 265 C 614 272 625 280 641 293 Z"/>
    <path id="p7" d="M 172 523 C 160 557 147 591 129 625 C 117 645 118 666 132 689 C 138 699 147 701 160 691 C 190 665 202 626 202 576 C 201 555 201 536 195 521 C 192 515 187 513 184 513 C 179 513 174 516 172 523 Z"/>
    <path id="p8" d="M 309 511 C 345 539 369 551 384 550 C 391 549 397 543 398 532 C 398 523 393 514 385 505 C 372 490 347 483 311 483 C 302 483 302 505 309 511 Z"/>
    <path id="p9" d="M 311 483 C 313 447 316 416 325 392 C 328 382 332 374 330 368 C 327 361 308 349 278 330 C 265 321 252 320 241 329 C 237 331 237 338 242 346 C 256 370 266 400 266 438 C 266 640 262 767 253 820 C 251 830 247 842 245 855 C 239 879 244 907 257 941 C 260 950 264 955 269 959 C 272 961 274 961 280 958 C 294 947 303 925 304 889 C 304 864 306 545 309 511 C 310 492 310 492 311 483 Z"/>
    <path id="p10" d="M 718 611 C 734 565 753 538 771 524 C 783 513 783 499 774 489 C 764 479 741 467 709 452 C 698 446 685 447 672 452 C 641 462 614 472 588 478 C 554 485 554 485 537 488 C 501 494 465 496 429 500 C 418 500 413 504 415 511 C 415 515 421 521 434 525 C 470 536 503 524 538 519 C 570 514 570 514 586 511 C 606 507 629 503 653 499 C 677 494 690 509 688 529 C 682 561 675 591 667 619 C 661 635 712 627 718 611 Z"/>
    <path id="p11" d="M 582 668 C 626 662 723 659 871 659 C 883 659 892 656 895 650 C 898 643 894 634 884 626 C 848 597 809 591 768 602 C 752 605 735 608 718 611 C 684 616 684 616 667 619 C 648 621 606 628 577 632 C 547 636 547 636 532 638 C 475 645 415 651 352 659 C 339 660 336 666 347 677 C 364 694 390 702 413 697 C 449 687 487 680 528 675 C 564 670 564 670 582 668 Z"/>
    <path id="p12" d="M 588 478 C 589 447 597 419 608 397 C 611 388 611 379 604 373 C 590 361 569 352 545 345 C 529 340 518 341 513 346 C 507 350 506 356 511 364 C 527 390 535 431 537 488 C 538 509 538 509 538 519 C 539 558 536 598 532 638 C 529 663 529 663 528 675 C 515 793 438 850 350 899 C 324 912 352 917 366 914 C 503 881 557 773 569 690 C 574 651 574 651 577 632 C 582 591 583 547 586 511 C 587 489 587 489 588 478 Z"/>
    <path id="p13" d="M 569 690 C 615 756 668 826 727 899 C 737 911 752 917 772 917 C 835 915 878 914 898 910 C 904 908 907 905 908 903 C 908 900 905 895 896 892 C 802 851 736 816 701 784 C 662 750 623 711 582 668 C 569 655 558 676 569 690 Z"/>

    <clipPath id="z31607c1"><use href="#p1"/></clipPath>
    <clipPath id="z31607c2"><use href="#p2"/></clipPath>
    <clipPath id="z31607c3"><use href="#p3"/></clipPath>
    <clipPath id="z31607c4"><use href="#p4"/></clipPath>
    <clipPath id="z31607c5"><use href="#p5"/></clipPath>
    <clipPath id="z31607c6"><use href="#p6"/></clipPath>
    <clipPath id="z31607c7"><use href="#p7"/></clipPath>
    <clipPath id="z31607c8"><use href="#p8"/></clipPath>
    <clipPath id="z31607c9"><use href="#p9"/></clipPath>
    <clipPath id="z31607c10"><use href="#p10"/></clipPath>
    <clipPath id="z31607c11"><use href="#p11"/></clipPath>
    <clipPath id="z31607c12"><use href="#p12"/></clipPath>
    <clipPath id="z31607c13"><use href="#p13"/></clipPath>
</defs>
<g id="bg-layer" class="bg">
<use href="#p1"/>
<use href="#p2"/>
<use href="#p3"/>
<use href="#p4"/>
<use href="#p5"/>
<use href="#p6"/>
<use href="#p7"/>
<use href="#p8"/>
<use href="#p9"/>
<use href="#p10"/>
<use href="#p11"/>
<use href="#p12"/>
<use href="#p13"/>
</g>
<g id="anim-layer">
    <path id="stroke-p1" style="stroke:#FF4444" pathLength="3333" clip-path="url(#z31607c1)" d="M 280 79 L 316 119 L 291 182 L 169 335"/>
    <path id="stroke-p2" style="stroke:#FF4444" pathLength="3333" clip-path="url(#z31607c2)" d="M 310 194 L 508 169"/>
    <path id="stroke-p3" style="stroke:#FF4444" pathLength="3333" clip-path="url(#z31607c3)" d="M 334 258 L 418 340"/>
    <path id="stroke-p4" style="stroke:#FF4444" pathLength="3333" clip-path="url(#z31607c4)" d="M 588 61 L 623 105 L 564 220 L 496 291"/>
    <path id="stroke-p5" style="stroke:#FF4444" pathLength="3333" clip-path="url(#z31607c5)" d="M 618 179 L 844 151"/>
    <path id="stroke-p6" style="stroke:#FF4444" pathLength="3333" clip-path="url(#z31607c6)" d="M 618 254 L 734 340"/>
    <path id="stroke-p7" style="stroke:#000" pathLength="3333" clip-path="url(#z31607c7)" d="M 185 518 L 143 691"/>
    <path id="stroke-p8" style="stroke:#000" pathLength="3333" clip-path="url(#z31607c8)" d="M 309 494 L 394 533"/>
    <path id="stroke-p9" style="stroke:#000" pathLength="3333" clip-path="url(#z31607c9)" d="M 244 334 L 296 387 L 269 953"/>
    <path id="stroke-p10" style="stroke:#000" pathLength="3333" clip-path="url(#z31607c10)" d="M 422 509 L 698 480 L 734 514 L 677 623"/>
    <path id="stroke-p11" style="stroke:#000" pathLength="3333" clip-path="url(#z31607c11)" d="M 346 664 L 416 674 L 789 628 L 891 639"/>
    <path id="stroke-p12" style="stroke:#000" pathLength="3333" clip-path="url(#z31607c12)" d="M 515 353 L 569 397 L 537 734 L 466 842 L 349 907"/>
    <path id="stroke-p13" style="stroke:#000" pathLength="3333" clip-path="url(#z31607c13)" d="M 573 669 L 747 864 L 903 901"/>
</g>
</svg>