<svg id="z31914" class="acjk" viewBox="0 0 1024 1024" xmlns="http://www.w3.org/2000/svg">
<style>
<![CDATA[
svg.acjk path[clip-path] {
    animation-duration: 12.100000000000001s;
    animation-timing-function: linear;
    animation-iteration-count: infinite;
    stroke-dasharray: 3337;
    stroke-dashoffset: 3339;
    stroke-width: 128;
    stroke-linecap: round;
    fill: none;
    stroke: #FF4444;
}
svg.acjk .bg { fill: #ccc; opacity: 0.5; }

/* Stroke 1: Starts at 0.0%, finishes at 6.6%, holds until 79.3% */
@keyframes zk1 {
    0%, 0.0% { stroke-dashoffset: 3339; }
    6.6%, 79.3% { stroke-dashoffset: 0; }
    79.4%, 100% { stroke-dashoffset: 3339; }
}
svg.acjk #stroke-p1 { animation-name: zk1; }
/* Stroke 2: Starts at 6.6%, finishes at 13.2%, holds until 79.3% */
@keyframes zk2 {
    0%, 6.6% { stroke-dashoffset: 3339; }
    13.2%, 79.3% { stroke-dashoffset: 0; }
    79.4%, 100% { stroke-dashoffset: 3339; }
}
svg.acjk #stroke-p2 { animation-name: zk2; }
/* Stroke 3: Starts at 13.2%, finishes at 19.8%, holds until 79.3% */
@keyframes zk3 {
    0%, 13.2% { stroke-dashoffset: 3339; }
    19.8%, 79.3% { stroke-dashoffset: 0; }
    79.4%, 100% { stroke-dashoffset: 3339; }
}
svg.acjk #stroke-p3 { animation-name: zk3; }
/* Stroke 4: Starts at 19.8%, finishes at 26.4%, holds until 79.3% */
@keyframes zk4 {
    0%, 19.8% { stroke-dashoffset: 3339; }
    26.4%, 79.3% { stroke-dashoffset: 0; }
    79.4%, 100% { stroke-dashoffset: 3339; }
}
svg.acjk #stroke-p4 { animation-name: zk4; }
/* Stroke 5: Starts at 26.4%, finishes at 33.1%, holds until 79.3% */
@keyframes zk5 {
    0%, 26.4% { stroke-dashoffset: 3339; }
    33.1%, 79.3% { stroke-dashoffset: 0; }
    79.4%, 100% { stroke-dashoffset: 3339; }
}
svg.acjk #stroke-p5 { animation-name: zk5; }
/* Stroke 6: Starts at 33.1%, finishes at 39.7%, holds until 79.3% */
@keyframes zk6 {
    0%, 33.1% { stroke-dashoffset: 3339; }
    39.7%, 79.3% { stroke-dashoffset: 0; }
    79.4%, 100% { stroke-dashoffset: 3339; }
}
svg.acjk #stroke-p6 { animation-name: zk6; }
/* Stroke 7: Starts at 39.7%, finishes at 46.3%, holds until 79.3% */
@keyframes zk7 {
    0%, 39.7% { stroke-dashoffset: 3339; }
    46.3%, 79.3% { stroke-dashoffset: 0; }
    79.4%, 100% { stroke-dashoffset: 3339; }
}
svg.acjk #stroke-p7 { animation-name: zk7; }
/* Stroke 8: Starts at 46.3%, finishes at 52.9%, holds until 79.3% */
@keyframes zk8 {
    0%, 46.3% { stroke-dashoffset: 3339; }
    52.9%, 79.3% { stroke-dashoffset: 0; }
    79.4%, 100% { stroke-dashoffset: 3339; }
}
svg.acjk #stroke-p8 { animation-name: zk8; }
/* Stroke 9: Starts at 52.9%, finishes at 59.5%, holds until 79.3% */
@keyframes zk9 {
    0%, 52.9% { stroke-dashoffset: 3339; }
    59.5%, 79.3% { stroke-dashoffset: 0; }
    79.4%, 100% { stroke-dashoffset: 3339; }
}
svg.acjk #stroke-p9 { animation-name: zk9; }
/* Stroke 10: Starts at 59.5%, finishes at 66.1%, holds until 79.3% */
@keyframes zk10 {
    0%, 59.5% { stroke-dashoffset: 3339; }
    66.1%, 79.3% { stroke-dashoffset: 0; }
    79.4%, 100% { stroke-dashoffset: 3339; }
}
svg.acjk #stroke-p10 { animation-name: zk10; }
/* Stroke 11: Starts at 66.1%, finishes at 72.7%, holds until 79.3% */
@keyframes zk11 {
    0%, 66.1% { stroke-dashoffset: 3339; }
    72.7%, 79.3% { stroke-dashoffset: 0; }
    79.4%, 100% { stroke-dashoffset: 3339; }
}
svg.acjk #stroke-p11 { animation-name: zk11; }
/* Stroke 12: Starts at 72.7%, finishes at 79.3%, holds until 79.3% */
@keyframes zk12 {
    0%, 72.7% { stroke-dashoffset: 3339; }
    79.3%, 79.3% { stroke-dashoffset: 0; }
    79.4%, 100% { stroke-dashoffset: 3339; }
}
svg.acjk #stroke-p12 { animation-name: zk12; }
]]>
</style>
<defs>
    <path id="p1" d="M 348 195 C 361 206 374 220 390 234 C 397 240 406 244 416 244 C 422 243 426 239 429 232 C 431 223 430 210 425 193 C 421 182 411 172 395 167 C 355 153 330 149 324 153 C 320 154 319 160 321 168 C 322 174 333 182 348 195 Z"/>
    <path id="p2" d="M 641 140 C 629 156 609 176 588 204 C 577 217 591 219 601 215 C 648 191 681 171 705 164 C 715 160 719 157 718 151 C 715 141 709 129 698 118 C 687 107 675 99 662 97 C 653 95 648 102 649 114 C 649 122 647 131 641 140 Z"/>
    <path id="p3" d="M 548 300 C 570 296 639 287 756 277 C 762 276 771 275 776 266 C 779 258 768 251 755 243 C 731 227 701 228 658 239 C 603 251 559 260 534 265 C 507 270 507 270 493 272 C 455 278 380 285 269 296 C 250 297 248 302 262 316 C 281 334 300 341 323 337 C 358 329 398 323 442 317 C 513 306 513 306 548 300 Z"/>
    <path id="p4" d="M 534 265 C 537 197 545 146 563 114 C 566 107 565 98 557 91 C 523 62 496 52 477 59 C 468 61 463 68 469 78 C 493 122 494 175 493 272 C 492 311 492 311 492 331 C 491 383 484 419 482 442 C 480 457 482 468 493 485 C 499 495 512 507 521 501 C 530 493 533 480 533 462 C 532 437 531 413 531 390 C 529 366 529 342 531 319 C 533 283 533 283 534 265 Z"/>
    <path id="p5" d="M 442 317 C 402 373 338 430 245 480 C 208 499 223 506 251 500 C 347 477 436 409 492 331 C 521 295 469 280 442 317 Z"/>
    <path id="p6" d="M 531 319 C 579 371 631 421 685 470 C 700 483 718 490 743 490 C 786 489 830 482 875 473 C 895 468 897 458 881 454 C 852 445 821 437 788 429 C 711 409 632 366 548 300 C 534 289 520 304 531 319 Z"/>
    <path id="p7" d="M 617 591 C 689 583 726 571 728 570 C 734 565 736 560 734 555 C 730 546 719 539 702 534 C 678 527 654 533 629 539 C 591 548 591 548 572 552 C 523 562 481 568 447 572 C 410 575 410 575 391 577 C 361 579 330 578 299 580 C 276 580 271 588 288 599 C 326 624 360 619 397 616 C 430 613 430 613 446 611 C 486 606 527 600 569 596 C 601 593 601 593 617 591 Z"/>
    <path id="p8" d="M 447 572 C 448 531 459 533 438 519 C 423 508 407 500 390 494 C 368 486 358 498 367 515 C 378 537 387 555 391 577 C 395 603 395 603 397 616 C 400 637 403 668 408 706 C 410 719 447 715 447 702 C 446 666 445 635 446 611 C 447 585 447 585 447 572 Z"/>
    <path id="p9" d="M 595 687 C 601 654 609 622 617 591 C 625 556 625 556 629 539 C 635 509 659 506 631 485 C 614 472 599 464 586 461 C 566 456 557 465 564 481 C 570 495 574 518 572 552 C 570 581 570 581 569 596 C 566 626 562 657 558 691 C 556 703 593 699 595 687 Z"/>
    <path id="p10" d="M 408 706 C 315 715 217 721 114 730 C 99 731 96 737 107 749 C 116 759 127 766 140 770 C 154 774 167 775 178 773 C 369 726 610 712 899 725 C 909 725 924 726 930 717 C 934 709 930 699 919 690 C 883 661 852 650 827 655 C 766 665 689 676 595 687 C 570 690 570 690 558 691 C 520 695 482 698 447 702 C 421 705 421 705 408 706 Z"/>
    <path id="p11" d="M 382 785 C 369 818 319 866 227 921 C 212 929 212 934 231 933 C 284 927 336 903 400 863 C 413 854 429 840 446 830 C 454 824 458 817 458 811 C 457 802 448 794 433 786 C 415 776 403 772 395 773 C 390 773 385 776 382 785 Z"/>
    <path id="p12" d="M 586 791 C 622 824 664 862 708 910 C 719 923 729 932 741 935 C 746 936 751 931 757 925 C 764 915 764 897 756 867 C 747 834 691 798 586 759 C 579 756 575 758 575 767 C 574 775 578 784 586 791 Z"/>

    <clipPath id="z31914c1"><use href="#p1"/></clipPath>
    <clipPath id="z31914c2"><use href="#p2"/></clipPath>
    <clipPath id="z31914c3"><use href="#p3"/></clipPath>
    <clipPath id="z31914c4"><use href="#p4"/></clipPath>
    <clipPath id="z31914c5"><use href="#p5"/></clipPath>
    <clipPath id="z31914c6"><use href="#p6"/></clipPath>
    <clipPath id="z31914c7"><use href="#p7"/></clipPath>
    <clipPath id="z31914c8"><use href="#p8"/></clipPath>
    <clipPath id="z31914c9"><use href="#p9"/></clipPath>
    <clipPath id="z31914c10"><use href="#p10"/></clipPath>
    <clipPath id="z31914c11"><use href="#p11"/></clipPath>
    <clipPath id="z31914c12"><use href="#p12"/></clipPath>
</defs>
<g id="bg-layer" class="bg">
<use href="#p1"/>
<use href="#p2"/>
<use href="#p3"/>
<use href="#p4"/>
<use href="#p5"/>
<use href="#p6"/>
<use href="#p7"/>
<use href="#p8"/>
<use href="#p9"/>
<use href="#p10"/>
<use href="#p11"/>
<use href="#p12"/>
</g>
<g id="anim-layer">
    <path id="stroke-p1" style="stroke:#FF4444" pathLength="3333" clip-path="url(#z31914c1)" d="M 326 162 L 395 199 L 417 239"/>
    <path id="stroke-p2" style="stroke:#FF4444" pathLength="3333" clip-path="url(#z31914c2)" d="M 658 107 L 675 152 L 594 210"/>
    <path id="stroke-p3" style="stroke:#FF4444" pathLength="3333" clip-path="url(#z31914c3)" d="M 259 302 L 310 315 L 772 262"/>
    <path id="stroke-p4" style="stroke:#FF4444" pathLength="3333" clip-path="url(#z31914c4)" d="M 475 69 L 526 124 L 508 495"/>
    <path id="stroke-p5" style="stroke:#FF4444" pathLength="3333" clip-path="url(#z31914c5)" d="M 493 307 L 365 426 L 230 497"/>
    <path id="stroke-p6" style="stroke:#FF4444" pathLength="3333" clip-path="url(#z31914c6)" d="M 533 300 L 710 443 L 885 462"/>
    <path id="stroke-p7" style="stroke:#000" pathLength="3333" clip-path="url(#z31914c7)" d="M 286 588 L 372 598 L 730 562"/>
    <path id="stroke-p8" style="stroke:#000" pathLength="3333" clip-path="url(#z31914c8)" d="M 371 501 L 417 543 L 427 710"/>
    <path id="stroke-p9" style="stroke:#000" pathLength="3333" clip-path="url(#z31914c9)" d="M 572 466 L 607 506 L 572 695"/>
    <path id="stroke-p10" style="stroke:#000" pathLength="3333" clip-path="url(#z31914c10)" d="M 106 736 L 167 750 L 827 688 L 927 707"/>
    <path id="stroke-p11" style="stroke:#000" pathLength="3333" clip-path="url(#z31914c11)" d="M 392 780 L 408 819 L 228 927"/>
    <path id="stroke-p12" style="stroke:#000" pathLength="3333" clip-path="url(#z31914c12)" d="M 582 764 L 713 863 L 742 929"/>
</g>
</svg>