<svg id="z31933" class="acjk" viewBox="0 0 1024 1024" xmlns="http://www.w3.org/2000/svg">
<style>
<![CDATA[
svg.acjk path[clip-path] {
    animation-duration: 13.700000000000001s;
    animation-timing-function: linear;
    animation-iteration-count: infinite;
    stroke-dasharray: 3337;
    stroke-dashoffset: 3339;
    stroke-width: 128;
    stroke-linecap: round;
    fill: none;
    stroke: #FF4444;
}
svg.acjk .bg { fill: #ccc; opacity: 0.5; }

/* Stroke 1: Starts at 0.0%, finishes at 5.8%, holds until 81.8% */
@keyframes zk1 {
    0%, 0.0% { stroke-dashoffset: 3339; }
    5.8%, 81.8% { stroke-dashoffset: 0; }
    81.9%, 100% { stroke-dashoffset: 3339; }
}
svg.acjk #stroke-p1 { animation-name: zk1; }
/* Stroke 2: Starts at 5.8%, finishes at 11.7%, holds until 81.8% */
@keyframes zk2 {
    0%, 5.8% { stroke-dashoffset: 3339; }
    11.7%, 81.8% { stroke-dashoffset: 0; }
    81.9%, 100% { stroke-dashoffset: 3339; }
}
svg.acjk #stroke-p2 { animation-name: zk2; }
/* Stroke 3: Starts at 11.7%, finishes at 17.5%, holds until 81.8% */
@keyframes zk3 {
    0%, 11.7% { stroke-dashoffset: 3339; }
    17.5%, 81.8% { stroke-dashoffset: 0; }
    81.9%, 100% { stroke-dashoffset: 3339; }
}
svg.acjk #stroke-p3 { animation-name: zk3; }
/* Stroke 4: Starts at 17.5%, finishes at 23.4%, holds until 81.8% */
@keyframes zk4 {
    0%, 17.5% { stroke-dashoffset: 3339; }
    23.4%, 81.8% { stroke-dashoffset: 0; }
    81.9%, 100% { stroke-dashoffset: 3339; }
}
svg.acjk #stroke-p4 { animation-name: zk4; }
/* Stroke 5: Starts at 23.4%, finishes at 29.2%, holds until 81.8% */
@keyframes zk5 {
    0%, 23.4% { stroke-dashoffset: 3339; }
    29.2%, 81.8% { stroke-dashoffset: 0; }
    81.9%, 100% { stroke-dashoffset: 3339; }
}
svg.acjk #stroke-p5 { animation-name: zk5; }
/* Stroke 6: Starts at 29.2%, finishes at 35.0%, holds until 81.8% */
@keyframes zk6 {
    0%, 29.2% { stroke-dashoffset: 3339; }
    35.0%, 81.8% { stroke-dashoffset: 0; }
    81.9%, 100% { stroke-dashoffset: 3339; }
}
svg.acjk #stroke-p6 { animation-name: zk6; }
/* Stroke 7: Starts at 35.0%, finishes at 40.9%, holds until 81.8% */
@keyframes zk7 {
    0%, 35.0% { stroke-dashoffset: 3339; }
    40.9%, 81.8% { stroke-dashoffset: 0; }
    81.9%, 100% { stroke-dashoffset: 3339; }
}
svg.acjk #stroke-p7 { animation-name: zk7; }
/* Stroke 8: Starts at 40.9%, finishes at 46.7%, holds until 81.8% */
@keyframes zk8 {
    0%, 40.9% { stroke-dashoffset: 3339; }
    46.7%, 81.8% { stroke-dashoffset: 0; }
    81.9%, 100% { stroke-dashoffset: 3339; }
}
svg.acjk #stroke-p8 { animation-name: zk8; }
/* Stroke 9: Starts at 46.7%, finishes at 52.6%, holds until 81.8% */
@keyframes zk9 {
    0%, 46.7% { stroke-dashoffset: 3339; }
    52.6%, 81.8% { stroke-dashoffset: 0; }
    81.9%, 100% { stroke-dashoffset: 3339; }
}
svg.acjk #stroke-p9 { animation-name: zk9; }
/* Stroke 10: Starts at 52.6%, finishes at 58.4%, holds until 81.8% */
@keyframes zk10 {
    0%, 52.6% { stroke-dashoffset: 3339; }
    58.4%, 81.8% { stroke-dashoffset: 0; }
    81.9%, 100% { stroke-dashoffset: 3339; }
}
svg.acjk #stroke-p10 { animation-name: zk10; }
/* Stroke 11: Starts at 58.4%, finishes at 64.2%, holds until 81.8% */
@keyframes zk11 {
    0%, 58.4% { stroke-dashoffset: 3339; }
    64.2%, 81.8% { stroke-dashoffset: 0; }
    81.9%, 100% { stroke-dashoffset: 3339; }
}
svg.acjk #stroke-p11 { animation-name: zk11; }
/* Stroke 12: Starts at 64.2%, finishes at 70.1%, holds until 81.8% */
@keyframes zk12 {
    0%, 64.2% { stroke-dashoffset: 3339; }
    70.1%, 81.8% { stroke-dashoffset: 0; }
    81.9%, 100% { stroke-dashoffset: 3339; }
}
svg.acjk #stroke-p12 { animation-name: zk12; }
/* Stroke 13: Starts at 70.1%, finishes at 75.9%, holds until 81.8% */
@keyframes zk13 {
    0%, 70.1% { stroke-dashoffset: 3339; }
    75.9%, 81.8% { stroke-dashoffset: 0; }
    81.9%, 100% { stroke-dashoffset: 3339; }
}
svg.acjk #stroke-p13 { animation-name: zk13; }
/* Stroke 14: Starts at 75.9%, finishes at 81.8%, holds until 81.8% */
@keyframes zk14 {
    0%, 75.9% { stroke-dashoffset: 3339; }
    81.8%, 81.8% { stroke-dashoffset: 0; }
    81.9%, 100% { stroke-dashoffset: 3339; }
}
svg.acjk #stroke-p14 { animation-name: zk14; }
]]>
</style>
<defs>
    <path id="p1" d="M 145 276 Q 164 336 187 358 Q 199 365 212 358 Q 222 349 225 334 Q 228 312 217 294 Q 208 279 169 248 Q 157 238 148 238 Q 142 237 140 248 Q 137 258 145 276 Z"/>
    <path id="p2" d="M 385 230 Q 372 258 346 305 Q 342 312 347 317 Q 354 317 359 312 Q 417 258 445 237 Q 458 231 454 223 Q 447 211 430 199 Q 412 187 394 188 Q 384 189 386 205 Q 390 215 385 230 Z"/>
    <path id="p3" d="M 314 441 Q 348 431 392 423 Q 407 420 406 413 Q 407 401 390 395 Q 363 383 315 400 C 287 408 287 408 273 412 Q 135 448 82 457 Q 70 458 68 466 Q 67 476 80 485 Q 113 504 160 490 Q 203 472 241 462 C 290 448 290 448 314 441 Z"/>
    <path id="p4" d="M 312 525 Q 312 485 314 441 C 315 414 315 414 315 400 Q 315 217 336 139 Q 345 126 342 112 Q 335 103 283 71 Q 261 55 242 69 Q 236 73 243 88 Q 273 133 274 209 Q 274 381 273 412 C 270 485 270 485 269 522 Q 265 657 255 705 Q 237 793 251 832 Q 252 839 257 847 Q 264 863 271 867 Q 277 873 284 865 Q 291 861 301 842 Q 311 818 310 789 Q 309 756 312 554 C 312 535 312 535 312 525 Z"/>
    <path id="p5" d="M 241 462 Q 192 604 41 762 Q 31 775 40 775 Q 49 778 59 771 Q 162 711 247 563 Q 257 542 269 522 C 301 468 264 404 241 462 Z"/>
    <path id="p6" d="M 312 554 Q 325 563 363 595 Q 373 605 386 603 Q 393 602 397 592 Q 400 580 392 557 Q 383 538 317 525 Q 314 524 312 525 C 302 525 304 548 312 554 Z"/>
    <path id="p7" d="M 602 131 Q 624 150 649 175 Q 664 188 681 187 Q 691 186 697 172 Q 701 156 691 125 Q 679 98 595 81 Q 579 78 572 81 Q 566 85 569 99 Q 573 109 602 131 Z"/>
    <path id="p8" d="M 516 293 Q 504 269 486 256 Q 482 252 477 256 Q 471 260 471 271 Q 472 304 446 364 Q 436 382 436 400 Q 440 419 449 434 Q 456 446 462 438 Q 474 435 491 389 Q 507 344 515 329 Q 518 325 520 320 C 525 312 520 301 516 293 Z"/>
    <path id="p9" d="M 520 320 Q 544 332 592 316 Q 673 285 784 272 Q 797 269 804 270 Q 817 277 816 283 Q 816 287 810 299 Q 776 362 781 367 Q 788 371 803 361 Q 855 330 899 320 Q 933 310 933 302 Q 932 292 866 243 Q 839 222 742 249 Q 735 249 585 280 Q 552 287 518 292 Q 517 292 516 293 C 507 295 512 317 520 320 Z"/>
    <path id="p10" d="M 551 437 Q 514 447 542 461 Q 581 477 653 461 Q 689 452 727 442 Q 746 436 749 433 Q 758 424 752 416 Q 745 404 714 399 Q 690 396 611 425 Q 581 432 551 437 Z"/>
    <path id="p11" d="M 656 592 Q 729 580 850 578 Q 898 578 904 569 Q 908 557 893 545 Q 835 506 776 528 Q 725 537 655 552 Q 570 567 467 583 Q 448 586 462 601 Q 475 614 493 618 Q 512 622 527 618 Q 567 605 613 599 C 642 594 642 594 656 592 Z"/>
    <path id="p12" d="M 613 599 Q 626 635 627 747 Q 627 805 622 818 Q 618 828 598 823 Q 570 814 541 806 Q 529 805 527 811 Q 524 818 535 828 Q 596 886 617 920 Q 630 935 643 933 Q 653 929 667 895 Q 686 861 684 797 Q 681 703 682 668 Q 689 626 671 605 Q 662 598 656 592 C 646 582 608 586 613 599 Z"/>
    <path id="p13" d="M 466 660 Q 445 708 417 750 Q 399 780 414 809 Q 421 824 439 813 Q 484 782 488 711 Q 492 683 487 660 Q 483 653 477 652 Q 470 653 466 660 Z"/>
    <path id="p14" d="M 755 685 Q 804 724 865 782 Q 881 800 897 803 Q 906 804 913 793 Q 923 780 908 737 Q 896 698 824 675 Q 778 660 754 655 Q 744 651 743 663 Q 744 676 755 685 Z"/>

    <clipPath id="z31933c1"><use href="#p1"/></clipPath>
    <clipPath id="z31933c2"><use href="#p2"/></clipPath>
    <clipPath id="z31933c3"><use href="#p3"/></clipPath>
    <clipPath id="z31933c4"><use href="#p4"/></clipPath>
    <clipPath id="z31933c5"><use href="#p5"/></clipPath>
    <clipPath id="z31933c6"><use href="#p6"/></clipPath>
    <clipPath id="z31933c7"><use href="#p7"/></clipPath>
    <clipPath id="z31933c8"><use href="#p8"/></clipPath>
    <clipPath id="z31933c9"><use href="#p9"/></clipPath>
    <clipPath id="z31933c10"><use href="#p10"/></clipPath>
    <clipPath id="z31933c11"><use href="#p11"/></clipPath>
    <clipPath id="z31933c12"><use href="#p12"/></clipPath>
    <clipPath id="z31933c13"><use href="#p13"/></clipPath>
    <clipPath id="z31933c14"><use href="#p14"/></clipPath>
</defs>
<g id="bg-layer" class="bg">
<use href="#p1"/>
<use href="#p2"/>
<use href="#p3"/>
<use href="#p4"/>
<use href="#p5"/>
<use href="#p6"/>
<use href="#p7"/>
<use href="#p8"/>
<use href="#p9"/>
<use href="#p10"/>
<use href="#p11"/>
<use href="#p12"/>
<use href="#p13"/>
<use href="#p14"/>
</g>
<g id="anim-layer">
    <path id="stroke-p1" style="stroke:#FF4444" pathLength="3333" clip-path="url(#z31933c1)" d="M 148 242 L 210 356"/>
    <path id="stroke-p2" style="stroke:#FF4444" pathLength="3333" clip-path="url(#z31933c2)" d="M 395 193 L 418 230 L 352 311"/>
    <path id="stroke-p3" style="stroke:#FF4444" pathLength="3333" clip-path="url(#z31933c3)" d="M 72 467 L 126 472 L 401 408"/>
    <path id="stroke-p4" style="stroke:#FF4444" pathLength="3333" clip-path="url(#z31933c4)" d="M 246 75 L 303 128 L 276 863"/>
    <path id="stroke-p5" style="stroke:#FF4444" pathLength="3333" clip-path="url(#z31933c5)" d="M 263 463 L 168 643 L 42 767"/>
    <path id="stroke-p6" style="stroke:#FF4444" pathLength="3333" clip-path="url(#z31933c6)" d="M 318 531 L 390 597"/>
    <path id="stroke-p7" style="stroke:#000" pathLength="3333" clip-path="url(#z31933c7)" d="M 575 87 L 690 177"/>
    <path id="stroke-p8" style="stroke:#000" pathLength="3333" clip-path="url(#z31933c8)" d="M 481 261 L 492 311 L 457 435"/>
    <path id="stroke-p9" style="stroke:#000" pathLength="3333" clip-path="url(#z31933c9)" d="M 523 299 L 824 254 L 876 309 L 787 363"/>
    <path id="stroke-p10" style="stroke:#000" pathLength="3333" clip-path="url(#z31933c10)" d="M 538 450 L 748 415"/>
    <path id="stroke-p11" style="stroke:#000" pathLength="3333" clip-path="url(#z31933c11)" d="M 462 591 L 817 549 L 899 563"/>
    <path id="stroke-p12" style="stroke:#000" pathLength="3333" clip-path="url(#z31933c12)" d="M 621 606 L 653 646 L 647 849 L 623 880 L 531 814"/>
    <path id="stroke-p13" style="stroke:#000" pathLength="3333" clip-path="url(#z31933c13)" d="M 475 658 L 420 809"/>
    <path id="stroke-p14" style="stroke:#000" pathLength="3333" clip-path="url(#z31933c14)" d="M 750 661 L 858 728 L 901 797"/>
</g>
</svg>