<svg id="z32005" class="acjk" viewBox="0 0 1024 1024" xmlns="http://www.w3.org/2000/svg">
<style>
<![CDATA[
svg.acjk path[clip-path] {
    animation-duration: 9.7s;
    animation-timing-function: linear;
    animation-iteration-count: infinite;
    stroke-dasharray: 3337;
    stroke-dashoffset: 3339;
    stroke-width: 128;
    stroke-linecap: round;
    fill: none;
    stroke: #FF4444;
}
svg.acjk .bg { fill: #ccc; opacity: 0.5; }

/* Stroke 1: Starts at 0.0%, finishes at 8.2%, holds until 74.2% */
@keyframes zk1 {
    0%, 0.0% { stroke-dashoffset: 3339; }
    8.2%, 74.2% { stroke-dashoffset: 0; }
    74.3%, 100% { stroke-dashoffset: 3339; }
}
svg.acjk #stroke-p1 { animation-name: zk1; }
/* Stroke 2: Starts at 8.2%, finishes at 16.5%, holds until 74.2% */
@keyframes zk2 {
    0%, 8.2% { stroke-dashoffset: 3339; }
    16.5%, 74.2% { stroke-dashoffset: 0; }
    74.3%, 100% { stroke-dashoffset: 3339; }
}
svg.acjk #stroke-p2 { animation-name: zk2; }
/* Stroke 3: Starts at 16.5%, finishes at 24.7%, holds until 74.2% */
@keyframes zk3 {
    0%, 16.5% { stroke-dashoffset: 3339; }
    24.7%, 74.2% { stroke-dashoffset: 0; }
    74.3%, 100% { stroke-dashoffset: 3339; }
}
svg.acjk #stroke-p3 { animation-name: zk3; }
/* Stroke 4: Starts at 24.7%, finishes at 33.0%, holds until 74.2% */
@keyframes zk4 {
    0%, 24.7% { stroke-dashoffset: 3339; }
    33.0%, 74.2% { stroke-dashoffset: 0; }
    74.3%, 100% { stroke-dashoffset: 3339; }
}
svg.acjk #stroke-p4 { animation-name: zk4; }
/* Stroke 5: Starts at 33.0%, finishes at 41.2%, holds until 74.2% */
@keyframes zk5 {
    0%, 33.0% { stroke-dashoffset: 3339; }
    41.2%, 74.2% { stroke-dashoffset: 0; }
    74.3%, 100% { stroke-dashoffset: 3339; }
}
svg.acjk #stroke-p5 { animation-name: zk5; }
/* Stroke 6: Starts at 41.2%, finishes at 49.5%, holds until 74.2% */
@keyframes zk6 {
    0%, 41.2% { stroke-dashoffset: 3339; }
    49.5%, 74.2% { stroke-dashoffset: 0; }
    74.3%, 100% { stroke-dashoffset: 3339; }
}
svg.acjk #stroke-p6 { animation-name: zk6; }
/* Stroke 7: Starts at 49.5%, finishes at 57.7%, holds until 74.2% */
@keyframes zk7 {
    0%, 49.5% { stroke-dashoffset: 3339; }
    57.7%, 74.2% { stroke-dashoffset: 0; }
    74.3%, 100% { stroke-dashoffset: 3339; }
}
svg.acjk #stroke-p7 { animation-name: zk7; }
/* Stroke 8: Starts at 57.7%, finishes at 66.0%, holds until 74.2% */
@keyframes zk8 {
    0%, 57.7% { stroke-dashoffset: 3339; }
    66.0%, 74.2% { stroke-dashoffset: 0; }
    74.3%, 100% { stroke-dashoffset: 3339; }
}
svg.acjk #stroke-p8 { animation-name: zk8; }
/* Stroke 9: Starts at 66.0%, finishes at 74.2%, holds until 74.2% */
@keyframes zk9 {
    0%, 66.0% { stroke-dashoffset: 3339; }
    74.2%, 74.2% { stroke-dashoffset: 0; }
    74.3%, 100% { stroke-dashoffset: 3339; }
}
svg.acjk #stroke-p9 { animation-name: zk9; }
]]>
</style>
<defs>
    <path id="p1" d="M 339 393 Q 285 396 240 399 Q 209 400 224 382 Q 299 261 369 172 Q 384 153 381 145 Q 380 129 338 96 Q 320 81 300 85 Q 288 88 295 104 Q 311 149 218 319 Q 197 356 155 394 Q 136 410 137 423 Q 141 444 158 462 Q 168 474 183 466 Q 222 442 319 422 C 331 420 351 393 339 393 Z"/>
    <path id="p2" d="M 408 519 Q 347 532 275 557 Q 254 564 267 547 Q 393 385 453 337 Q 466 327 460 317 Q 450 296 416 276 Q 400 266 390 269 Q 380 272 382 288 Q 383 321 339 393 C 326 412 326 412 319 422 Q 210 563 188 574 Q 175 583 177 597 Q 178 610 205 630 Q 215 643 231 630 Q 303 576 416 537 C 417 537 417 537 418 537 C 425 536 415 518 408 519 Z"/>
    <path id="p3" d="M 418 537 Q 425 562 449 570 Q 462 574 472 559 Q 476 547 473 526 Q 461 490 404 464 Q 397 460 392 470 Q 389 476 408 519 C 415 531 415 531 418 537 Z"/>
    <path id="p4" d="M 114 758 Q 136 804 159 856 Q 166 875 183 881 Q 193 885 205 874 Q 215 861 220 828 Q 224 801 197 767 Q 124 698 109 697 Q 102 698 98 712 Q 97 725 114 758 Z"/>
    <path id="p5" d="M 269 715 Q 285 737 301 766 Q 310 781 324 783 Q 334 784 341 775 Q 348 763 348 735 Q 345 708 276 671 Q 263 664 256 665 Q 252 668 249 679 Q 250 689 269 715 Z"/>
    <path id="p6" d="M 371 649 Q 399 703 419 708 Q 431 711 439 696 Q 442 686 437 666 Q 425 641 379 627 Q 372 624 369 633 Q 366 640 371 649 Z"/>
    <path id="p7" d="M 687 433 Q 876 390 883 384 Q 893 375 888 365 Q 879 352 846 344 Q 819 340 711 374 Q 611 398 547 406 Q 505 413 535 432 Q 583 459 646 442 C 673 436 673 436 687 433 Z"/>
    <path id="p8" d="M 646 442 Q 658 461 653 550 Q 650 599 645 689 C 645 707 695 699 698 682 Q 714 549 725 501 Q 735 482 725 469 Q 706 447 687 433 C 676 425 640 429 646 442 Z"/>
    <path id="p9" d="M 645 689 Q 564 698 477 709 Q 455 710 471 729 Q 486 744 504 749 Q 526 755 543 750 Q 670 717 961 718 Q 982 718 987 709 Q 993 697 976 683 Q 922 641 883 650 Q 816 665 700 681 Q 699 681 698 682 C 663 687 663 687 645 689 Z"/>

    <clipPath id="z32005c1"><use href="#p1"/></clipPath>
    <clipPath id="z32005c2"><use href="#p2"/></clipPath>
    <clipPath id="z32005c3"><use href="#p3"/></clipPath>
    <clipPath id="z32005c4"><use href="#p4"/></clipPath>
    <clipPath id="z32005c5"><use href="#p5"/></clipPath>
    <clipPath id="z32005c6"><use href="#p6"/></clipPath>
    <clipPath id="z32005c7"><use href="#p7"/></clipPath>
    <clipPath id="z32005c8"><use href="#p8"/></clipPath>
    <clipPath id="z32005c9"><use href="#p9"/></clipPath>
</defs>
<g id="bg-layer" class="bg">
<use href="#p1"/>
<use href="#p2"/>
<use href="#p3"/>
<use href="#p4"/>
<use href="#p5"/>
<use href="#p6"/>
<use href="#p7"/>
<use href="#p8"/>
<use href="#p9"/>
</g>
<g id="anim-layer">
    <path id="stroke-p1" style="stroke:#FF4444" pathLength="3333" clip-path="url(#z32005c1)" d="M 301 92 L 336 151 L 183 408 L 202 433 L 334 399"/>
    <path id="stroke-p2" style="stroke:#FF4444" pathLength="3333" clip-path="url(#z32005c2)" d="M 390 279 L 418 325 L 228 567 L 252 595 L 413 526"/>
    <path id="stroke-p3" style="stroke:#FF4444" pathLength="3333" clip-path="url(#z32005c3)" d="M 400 470 L 456 566"/>
    <path id="stroke-p4" style="stroke:#FF4444" pathLength="3333" clip-path="url(#z32005c4)" d="M 108 701 L 183 817 L 190 878"/>
    <path id="stroke-p5" style="stroke:#FF4444" pathLength="3333" clip-path="url(#z32005c5)" d="M 259 671 L 333 776"/>
    <path id="stroke-p6" style="stroke:#FF4444" pathLength="3333" clip-path="url(#z32005c6)" d="M 377 633 L 432 700"/>
    <path id="stroke-p7" style="stroke:#000" pathLength="3333" clip-path="url(#z32005c7)" d="M 532 417 L 611 422 L 883 369"/>
    <path id="stroke-p8" style="stroke:#000" pathLength="3333" clip-path="url(#z32005c8)" d="M 654 438 L 692 481 L 663 696"/>
    <path id="stroke-p9" style="stroke:#000" pathLength="3333" clip-path="url(#z32005c9)" d="M 471 718 L 897 683 L 983 698"/>
</g>
</svg>