<svg id="z32244" class="acjk" viewBox="0 0 1024 1024" xmlns="http://www.w3.org/2000/svg">
<style>
<![CDATA[
svg.acjk path[clip-path] {
    animation-duration: 14.5s;
    animation-timing-function: linear;
    animation-iteration-count: infinite;
    stroke-dasharray: 3337;
    stroke-dashoffset: 3339;
    stroke-width: 128;
    stroke-linecap: round;
    fill: none;
    stroke: #FF4444;
}
svg.acjk .bg { fill: #ccc; opacity: 0.5; }

/* Stroke 1: Starts at 0.0%, finishes at 5.5%, holds until 82.8% */
@keyframes zk1 {
    0%, 0.0% { stroke-dashoffset: 3339; }
    5.5%, 82.8% { stroke-dashoffset: 0; }
    82.9%, 100% { stroke-dashoffset: 3339; }
}
svg.acjk #stroke-p1 { animation-name: zk1; }
/* Stroke 2: Starts at 5.5%, finishes at 11.0%, holds until 82.8% */
@keyframes zk2 {
    0%, 5.5% { stroke-dashoffset: 3339; }
    11.0%, 82.8% { stroke-dashoffset: 0; }
    82.9%, 100% { stroke-dashoffset: 3339; }
}
svg.acjk #stroke-p2 { animation-name: zk2; }
/* Stroke 3: Starts at 11.0%, finishes at 16.6%, holds until 82.8% */
@keyframes zk3 {
    0%, 11.0% { stroke-dashoffset: 3339; }
    16.6%, 82.8% { stroke-dashoffset: 0; }
    82.9%, 100% { stroke-dashoffset: 3339; }
}
svg.acjk #stroke-p3 { animation-name: zk3; }
/* Stroke 4: Starts at 16.6%, finishes at 22.1%, holds until 82.8% */
@keyframes zk4 {
    0%, 16.6% { stroke-dashoffset: 3339; }
    22.1%, 82.8% { stroke-dashoffset: 0; }
    82.9%, 100% { stroke-dashoffset: 3339; }
}
svg.acjk #stroke-p4 { animation-name: zk4; }
/* Stroke 5: Starts at 22.1%, finishes at 27.6%, holds until 82.8% */
@keyframes zk5 {
    0%, 22.1% { stroke-dashoffset: 3339; }
    27.6%, 82.8% { stroke-dashoffset: 0; }
    82.9%, 100% { stroke-dashoffset: 3339; }
}
svg.acjk #stroke-p5 { animation-name: zk5; }
/* Stroke 6: Starts at 27.6%, finishes at 33.1%, holds until 82.8% */
@keyframes zk6 {
    0%, 27.6% { stroke-dashoffset: 3339; }
    33.1%, 82.8% { stroke-dashoffset: 0; }
    82.9%, 100% { stroke-dashoffset: 3339; }
}
svg.acjk #stroke-p6 { animation-name: zk6; }
/* Stroke 7: Starts at 33.1%, finishes at 38.6%, holds until 82.8% */
@keyframes zk7 {
    0%, 33.1% { stroke-dashoffset: 3339; }
    38.6%, 82.8% { stroke-dashoffset: 0; }
    82.9%, 100% { stroke-dashoffset: 3339; }
}
svg.acjk #stroke-p7 { animation-name: zk7; }
/* Stroke 8: Starts at 38.6%, finishes at 44.1%, holds until 82.8% */
@keyframes zk8 {
    0%, 38.6% { stroke-dashoffset: 3339; }
    44.1%, 82.8% { stroke-dashoffset: 0; }
    82.9%, 100% { stroke-dashoffset: 3339; }
}
svg.acjk #stroke-p8 { animation-name: zk8; }
/* Stroke 9: Starts at 44.1%, finishes at 49.7%, holds until 82.8% */
@keyframes zk9 {
    0%, 44.1% { stroke-dashoffset: 3339; }
    49.7%, 82.8% { stroke-dashoffset: 0; }
    82.9%, 100% { stroke-dashoffset: 3339; }
}
svg.acjk #stroke-p9 { animation-name: zk9; }
/* Stroke 10: Starts at 49.7%, finishes at 55.2%, holds until 82.8% */
@keyframes zk10 {
    0%, 49.7% { stroke-dashoffset: 3339; }
    55.2%, 82.8% { stroke-dashoffset: 0; }
    82.9%, 100% { stroke-dashoffset: 3339; }
}
svg.acjk #stroke-p10 { animation-name: zk10; }
/* Stroke 11: Starts at 55.2%, finishes at 60.7%, holds until 82.8% */
@keyframes zk11 {
    0%, 55.2% { stroke-dashoffset: 3339; }
    60.7%, 82.8% { stroke-dashoffset: 0; }
    82.9%, 100% { stroke-dashoffset: 3339; }
}
svg.acjk #stroke-p11 { animation-name: zk11; }
/* Stroke 12: Starts at 60.7%, finishes at 66.2%, holds until 82.8% */
@keyframes zk12 {
    0%, 60.7% { stroke-dashoffset: 3339; }
    66.2%, 82.8% { stroke-dashoffset: 0; }
    82.9%, 100% { stroke-dashoffset: 3339; }
}
svg.acjk #stroke-p12 { animation-name: zk12; }
/* Stroke 13: Starts at 66.2%, finishes at 71.7%, holds until 82.8% */
@keyframes zk13 {
    0%, 66.2% { stroke-dashoffset: 3339; }
    71.7%, 82.8% { stroke-dashoffset: 0; }
    82.9%, 100% { stroke-dashoffset: 3339; }
}
svg.acjk #stroke-p13 { animation-name: zk13; }
/* Stroke 14: Starts at 71.7%, finishes at 77.2%, holds until 82.8% */
@keyframes zk14 {
    0%, 71.7% { stroke-dashoffset: 3339; }
    77.2%, 82.8% { stroke-dashoffset: 0; }
    82.9%, 100% { stroke-dashoffset: 3339; }
}
svg.acjk #stroke-p14 { animation-name: zk14; }
/* Stroke 15: Starts at 77.2%, finishes at 82.8%, holds until 82.8% */
@keyframes zk15 {
    0%, 77.2% { stroke-dashoffset: 3339; }
    82.8%, 82.8% { stroke-dashoffset: 0; }
    82.9%, 100% { stroke-dashoffset: 3339; }
}
svg.acjk #stroke-p15 { animation-name: zk15; }
]]>
</style>
<defs>
    <path id="p1" d="M 260 375 Q 220 378 186 382 Q 161 385 172 368 Q 232 269 289 195 Q 302 177 300 170 Q 297 157 258 125 Q 242 112 224 116 Q 212 119 219 134 Q 237 174 159 317 Q 143 350 108 381 Q 90 397 92 409 Q 98 428 113 445 Q 125 455 137 447 Q 156 431 230 406 Q 236 405 244 403 C 255 401 271 375 260 375 Z"/>
    <path id="p2" d="M 303 518 Q 257 528 206 547 Q 181 557 196 536 Q 232 484 315 378 Q 343 339 368 316 Q 380 306 373 295 Q 363 276 327 258 Q 311 248 301 252 Q 291 256 293 272 Q 296 299 260 375 C 249 394 249 394 244 403 Q 243 404 243 406 Q 146 550 118 567 Q 105 577 108 591 Q 111 604 138 623 Q 150 635 164 622 Q 225 570 315 537 C 322 534 310 517 303 518 Z"/>
    <path id="p3" d="M 315 537 Q 339 561 349 564 Q 362 567 371 551 Q 374 538 368 518 Q 361 500 340 489 Q 307 467 292 462 Q 285 459 281 470 Q 278 477 303 518 C 311 531 311 531 315 537 Z"/>
    <path id="p4" d="M 69 755 Q 85 788 101 826 Q 108 842 122 848 Q 132 852 141 842 Q 151 832 155 802 Q 156 766 84 711 Q 71 701 65 701 Q 59 702 55 715 Q 54 725 69 755 Z"/>
    <path id="p5" d="M 193 700 Q 223 752 237 755 Q 246 756 253 747 Q 260 735 259 709 Q 256 688 199 659 Q 186 652 180 653 Q 176 656 174 667 Q 175 677 193 700 Z"/>
    <path id="p6" d="M 303 645 Q 333 690 347 692 Q 354 693 361 683 Q 367 673 364 647 Q 363 634 344 623 Q 299 598 288 601 Q 284 604 283 615 Q 284 624 303 645 Z"/>
    <path id="p7" d="M 625 239 Q 727 208 729 206 Q 736 199 732 191 Q 725 181 697 176 Q 669 172 629 191 C 595 203 595 203 578 209 Q 575 209 574 210 Q 534 222 486 229 Q 453 236 478 251 Q 520 272 569 253 Q 572 252 579 251 C 610 243 610 243 625 239 Z"/>
    <path id="p8" d="M 429 347 Q 416 343 398 340 Q 388 339 384 343 Q 380 349 387 362 Q 417 420 436 515 Q 440 543 457 562 Q 473 581 478 567 Q 479 560 481 549 C 483 539 480 529 478 519 Q 477 512 476 504 Q 455 410 449 378 C 447 366 441 349 429 347 Z"/>
    <path id="p9" d="M 711 519 Q 715 535 728 536 Q 741 535 751 521 Q 764 509 793 442 Q 814 391 852 365 Q 871 350 857 334 Q 841 315 793 286 Q 777 274 696 293 Q 681 293 622 307 C 594 313 594 313 580 316 Q 558 319 539 325 Q 475 340 429 347 C 417 349 437 378 449 378 Q 459 379 469 376 Q 509 361 581 347 C 608 341 608 341 622 338 Q 742 313 761 323 Q 770 330 761 358 Q 728 464 717 484 Q 716 487 713 491 C 708 499 708 510 711 519 Z"/>
    <path id="p10" d="M 489 419 Q 519 470 540 473 Q 550 474 558 460 Q 559 450 553 432 Q 547 420 531 413 Q 506 400 494 398 Q 487 395 485 405 Q 484 412 489 419 Z"/>
    <path id="p11" d="M 664 394 Q 657 416 638 454 Q 634 461 639 465 Q 645 465 650 460 Q 698 417 722 399 Q 735 392 730 385 Q 706 351 672 354 Q 662 355 665 370 Q 669 380 664 394 Z"/>
    <path id="p12" d="M 620 528 Q 660 522 711 519 C 720 519 720 498 713 491 Q 710 488 706 485 Q 684 473 621 495 C 592 500 592 500 578 503 Q 526 513 478 519 C 468 521 471 549 481 549 Q 487 549 493 548 Q 520 541 562 537 C 601 531 601 531 620 528 Z"/>
    <path id="p13" d="M 619 545 Q 619 536 620 528 C 621 506 621 506 621 495 Q 621 422 622 338 C 622 317 622 317 622 307 Q 622 297 625 239 C 628 207 628 207 629 191 Q 633 148 644 115 Q 653 99 650 85 Q 643 75 585 39 Q 560 21 539 38 Q 533 42 540 59 Q 577 114 578 209 C 579 237 579 237 579 251 Q 579 282 580 316 C 581 337 581 337 581 347 Q 580 423 578 503 C 576 576 576 576 575 612 Q 568 768 549 836 Q 533 884 562 953 Q 569 972 577 975 Q 584 982 591 973 Q 600 969 610 947 Q 620 922 620 888 Q 619 848 619 586 C 619 559 619 559 619 545 Z"/>
    <path id="p14" d="M 562 537 Q 505 670 315 824 Q 309 828 303 834 Q 291 846 300 847 Q 309 851 320 846 Q 440 797 548 649 Q 560 630 575 612 C 617 560 587 475 562 537 Z"/>
    <path id="p15" d="M 619 586 Q 689 680 768 767 Q 790 792 832 796 Q 907 803 985 793 Q 1004 792 1007 786 Q 1010 779 994 772 Q 816 697 810 694 Q 714 631 633 557 Q 624 550 619 545 C 608 536 611 575 619 586 Z"/>

    <clipPath id="z32244c1"><use href="#p1"/></clipPath>
    <clipPath id="z32244c2"><use href="#p2"/></clipPath>
    <clipPath id="z32244c3"><use href="#p3"/></clipPath>
    <clipPath id="z32244c4"><use href="#p4"/></clipPath>
    <clipPath id="z32244c5"><use href="#p5"/></clipPath>
    <clipPath id="z32244c6"><use href="#p6"/></clipPath>
    <clipPath id="z32244c7"><use href="#p7"/></clipPath>
    <clipPath id="z32244c8"><use href="#p8"/></clipPath>
    <clipPath id="z32244c9"><use href="#p9"/></clipPath>
    <clipPath id="z32244c10"><use href="#p10"/></clipPath>
    <clipPath id="z32244c11"><use href="#p11"/></clipPath>
    <clipPath id="z32244c12"><use href="#p12"/></clipPath>
    <clipPath id="z32244c13"><use href="#p13"/></clipPath>
    <clipPath id="z32244c14"><use href="#p14"/></clipPath>
    <clipPath id="z32244c15"><use href="#p15"/></clipPath>
</defs>
<g id="bg-layer" class="bg">
<use href="#p1"/>
<use href="#p2"/>
<use href="#p3"/>
<use href="#p4"/>
<use href="#p5"/>
<use href="#p6"/>
<use href="#p7"/>
<use href="#p8"/>
<use href="#p9"/>
<use href="#p10"/>
<use href="#p11"/>
<use href="#p12"/>
<use href="#p13"/>
<use href="#p14"/>
<use href="#p15"/>
</g>
<g id="anim-layer">
    <path id="stroke-p1" style="stroke:#FF4444" pathLength="3333" clip-path="url(#z32244c1)" d="M 226 120 L 259 174 L 132 392 L 150 415 L 258 385"/>
    <path id="stroke-p2" style="stroke:#FF4444" pathLength="3333" clip-path="url(#z32244c2)" d="M 301 255 L 329 313 L 152 569 L 177 588 L 309 528"/>
    <path id="stroke-p3" style="stroke:#FF4444" pathLength="3333" clip-path="url(#z32244c3)" d="M 288 467 L 365 553"/>
    <path id="stroke-p4" style="stroke:#FF4444" pathLength="3333" clip-path="url(#z32244c4)" d="M 64 708 L 135 844"/>
    <path id="stroke-p5" style="stroke:#FF4444" pathLength="3333" clip-path="url(#z32244c5)" d="M 184 663 L 241 749"/>
    <path id="stroke-p6" style="stroke:#FF4444" pathLength="3333" clip-path="url(#z32244c6)" d="M 291 609 L 354 683"/>
    <path id="stroke-p7" style="stroke:#000" pathLength="3333" clip-path="url(#z32244c7)" d="M 476 240 L 729 195"/>
    <path id="stroke-p8" style="stroke:#000" pathLength="3333" clip-path="url(#z32244c8)" d="M 391 348 L 422 375 L 466 567"/>
    <path id="stroke-p9" style="stroke:#000" pathLength="3333" clip-path="url(#z32244c9)" d="M 433 355 L 777 306 L 813 350 L 723 531"/>
    <path id="stroke-p10" style="stroke:#000" pathLength="3333" clip-path="url(#z32244c10)" d="M 492 403 L 548 465"/>
    <path id="stroke-p11" style="stroke:#000" pathLength="3333" clip-path="url(#z32244c11)" d="M 673 363 L 695 397 L 643 459"/>
    <path id="stroke-p12" style="stroke:#000" pathLength="3333" clip-path="url(#z32244c12)" d="M 475 533 L 714 506"/>
    <path id="stroke-p13" style="stroke:#000" pathLength="3333" clip-path="url(#z32244c13)" d="M 543 43 L 608 103 L 582 973"/>
    <path id="stroke-p14" style="stroke:#000" pathLength="3333" clip-path="url(#z32244c14)" d="M 581 524 L 563 588 L 488 690 L 306 844"/>
    <path id="stroke-p15" style="stroke:#000" pathLength="3333" clip-path="url(#z32244c15)" d="M 617 552 L 801 739 L 1000 783"/>
</g>
</svg>