<svg id="z32650" class="acjk" viewBox="0 0 1024 1024" xmlns="http://www.w3.org/2000/svg">
<style>
<![CDATA[
svg.acjk path[clip-path] {
    animation-duration: 7.300000000000001s;
    animation-timing-function: linear;
    animation-iteration-count: infinite;
    stroke-dasharray: 3337;
    stroke-dashoffset: 3339;
    stroke-width: 128;
    stroke-linecap: round;
    fill: none;
    stroke: #FF4444;
}
svg.acjk .bg { fill: #ccc; opacity: 0.5; }

/* Stroke 1: Starts at 0.0%, finishes at 11.0%, holds until 65.8% */
@keyframes zk1 {
    0%, 0.0% { stroke-dashoffset: 3339; }
    11.0%, 65.8% { stroke-dashoffset: 0; }
    65.9%, 100% { stroke-dashoffset: 3339; }
}
svg.acjk #stroke-p1 { animation-name: zk1; }
/* Stroke 2: Starts at 11.0%, finishes at 21.9%, holds until 65.8% */
@keyframes zk2 {
    0%, 11.0% { stroke-dashoffset: 3339; }
    21.9%, 65.8% { stroke-dashoffset: 0; }
    65.9%, 100% { stroke-dashoffset: 3339; }
}
svg.acjk #stroke-p2 { animation-name: zk2; }
/* Stroke 3: Starts at 21.9%, finishes at 32.9%, holds until 65.8% */
@keyframes zk3 {
    0%, 21.9% { stroke-dashoffset: 3339; }
    32.9%, 65.8% { stroke-dashoffset: 0; }
    65.9%, 100% { stroke-dashoffset: 3339; }
}
svg.acjk #stroke-p3 { animation-name: zk3; }
/* Stroke 4: Starts at 32.9%, finishes at 43.8%, holds until 65.8% */
@keyframes zk4 {
    0%, 32.9% { stroke-dashoffset: 3339; }
    43.8%, 65.8% { stroke-dashoffset: 0; }
    65.9%, 100% { stroke-dashoffset: 3339; }
}
svg.acjk #stroke-p4 { animation-name: zk4; }
/* Stroke 5: Starts at 43.8%, finishes at 54.8%, holds until 65.8% */
@keyframes zk5 {
    0%, 43.8% { stroke-dashoffset: 3339; }
    54.8%, 65.8% { stroke-dashoffset: 0; }
    65.9%, 100% { stroke-dashoffset: 3339; }
}
svg.acjk #stroke-p5 { animation-name: zk5; }
/* Stroke 6: Starts at 54.8%, finishes at 65.8%, holds until 65.8% */
@keyframes zk6 {
    0%, 54.8% { stroke-dashoffset: 3339; }
    65.8%, 65.8% { stroke-dashoffset: 0; }
    65.9%, 100% { stroke-dashoffset: 3339; }
}
svg.acjk #stroke-p6 { animation-name: zk6; }
]]>
</style>
<defs>
    <path id="p1" d="M 366 131 Q 391 155 419 184 Q 432 197 448 197 Q 458 197 465 183 Q 469 168 462 139 Q 453 109 362 82 Q 346 78 340 81 Q 336 85 336 98 Q 339 108 366 131 Z"/>
    <path id="p2" d="M 637 81 Q 624 103 551 189 Q 541 207 558 203 Q 609 176 637 157 Q 707 109 726 102 Q 748 92 738 73 Q 725 54 697 39 Q 672 24 659 26 Q 646 27 649 42 Q 653 61 637 81 Z"/>
    <path id="p3" d="M 539 296 Q 731 260 737 255 Q 747 246 743 237 Q 736 224 705 215 Q 671 208 583 235 Q 441 268 316 277 Q 276 281 304 301 Q 349 328 409 317 Q 445 311 482 305 C 520 299 520 299 539 296 Z"/>
    <path id="p4" d="M 539 455 Q 584 445 631 437 Q 679 427 686 421 Q 696 414 691 404 Q 684 392 654 384 Q 623 377 593 388 Q 565 397 539 405 C 500 414 500 414 480 419 Q 414 432 339 439 Q 302 443 328 462 Q 364 484 444 472 Q 460 469 479 466 C 519 459 519 459 539 455 Z"/>
    <path id="p5" d="M 539 611 Q 746 587 903 604 Q 936 604 941 600 Q 941 599 942 599 Q 949 586 937 573 Q 864 507 799 529 Q 715 544 539 564 C 498 569 498 569 478 571 Q 354 583 290 591 Q 217 601 109 602 Q 96 602 94 614 Q 93 627 112 642 Q 130 655 162 667 Q 174 671 192 663 Q 210 657 286 645 Q 373 626 478 615 C 519 612 519 612 539 611 Z"/>
    <path id="p6" d="M 478 615 Q 478 940 499 962 Q 511 974 522 949 Q 538 910 539 705 Q 539 657 539 611 C 539 580 539 580 539 564 Q 539 509 539 455 C 539 422 539 422 539 405 Q 539 350 539 296 C 539 277 482 286 482 305 Q 481 360 480 419 C 479 450 479 450 479 466 Q 478 518 478 571 C 478 600 478 600 478 615 Z"/>

    <clipPath id="z32650c1"><use href="#p1"/></clipPath>
    <clipPath id="z32650c2"><use href="#p2"/></clipPath>
    <clipPath id="z32650c3"><use href="#p3"/></clipPath>
    <clipPath id="z32650c4"><use href="#p4"/></clipPath>
    <clipPath id="z32650c5"><use href="#p5"/></clipPath>
    <clipPath id="z32650c6"><use href="#p6"/></clipPath>
</defs>
<g id="bg-layer" class="bg">
<use href="#p1"/>
<use href="#p2"/>
<use href="#p3"/>
<use href="#p4"/>
<use href="#p5"/>
<use href="#p6"/>
</g>
<g id="anim-layer">
    <path id="stroke-p1" style="stroke:#FF4444" pathLength="3333" clip-path="url(#z32650c1)" d="M 343 88 L 456 188"/>
    <path id="stroke-p2" style="stroke:#FF4444" pathLength="3333" clip-path="url(#z32650c2)" d="M 656 34 L 691 82 L 555 197"/>
    <path id="stroke-p3" style="stroke:#FF4444" pathLength="3333" clip-path="url(#z32650c3)" d="M 300 285 L 386 295 L 737 237"/>
    <path id="stroke-p4" style="stroke:#000" pathLength="3333" clip-path="url(#z32650c4)" d="M 323 449 L 688 410"/>
    <path id="stroke-p5" style="stroke:#000" pathLength="3333" clip-path="url(#z32650c5)" d="M 99 612 L 174 634 L 817 561 L 941 591"/>
    <path id="stroke-p6" style="stroke:#000" pathLength="3333" clip-path="url(#z32650c6)" d="M 526 289 L 510 328 L 506 958"/>
</g>
</svg>