<svg id="z32696" class="acjk" viewBox="0 0 1024 1024" xmlns="http://www.w3.org/2000/svg">
<style>
<![CDATA[
svg.acjk path[clip-path] {
    animation-duration: 17.700000000000003s;
    animation-timing-function: linear;
    animation-iteration-count: infinite;
    stroke-dasharray: 3337;
    stroke-dashoffset: 3339;
    stroke-width: 128;
    stroke-linecap: round;
    fill: none;
    stroke: #FF4444;
}
svg.acjk .bg { fill: #ccc; opacity: 0.5; }

/* Stroke 1: Starts at 0.0%, finishes at 4.5%, holds until 85.9% */
@keyframes zk1 {
    0%, 0.0% { stroke-dashoffset: 3339; }
    4.5%, 85.9% { stroke-dashoffset: 0; }
    86.0%, 100% { stroke-dashoffset: 3339; }
}
svg.acjk #stroke-p1 { animation-name: zk1; }
/* Stroke 2: Starts at 4.5%, finishes at 9.0%, holds until 85.9% */
@keyframes zk2 {
    0%, 4.5% { stroke-dashoffset: 3339; }
    9.0%, 85.9% { stroke-dashoffset: 0; }
    86.0%, 100% { stroke-dashoffset: 3339; }
}
svg.acjk #stroke-p2 { animation-name: zk2; }
/* Stroke 3: Starts at 9.0%, finishes at 13.6%, holds until 85.9% */
@keyframes zk3 {
    0%, 9.0% { stroke-dashoffset: 3339; }
    13.6%, 85.9% { stroke-dashoffset: 0; }
    86.0%, 100% { stroke-dashoffset: 3339; }
}
svg.acjk #stroke-p3 { animation-name: zk3; }
/* Stroke 4: Starts at 13.6%, finishes at 18.1%, holds until 85.9% */
@keyframes zk4 {
    0%, 13.6% { stroke-dashoffset: 3339; }
    18.1%, 85.9% { stroke-dashoffset: 0; }
    86.0%, 100% { stroke-dashoffset: 3339; }
}
svg.acjk #stroke-p4 { animation-name: zk4; }
/* Stroke 5: Starts at 18.1%, finishes at 22.6%, holds until 85.9% */
@keyframes zk5 {
    0%, 18.1% { stroke-dashoffset: 3339; }
    22.6%, 85.9% { stroke-dashoffset: 0; }
    86.0%, 100% { stroke-dashoffset: 3339; }
}
svg.acjk #stroke-p5 { animation-name: zk5; }
/* Stroke 6: Starts at 22.6%, finishes at 27.1%, holds until 85.9% */
@keyframes zk6 {
    0%, 22.6% { stroke-dashoffset: 3339; }
    27.1%, 85.9% { stroke-dashoffset: 0; }
    86.0%, 100% { stroke-dashoffset: 3339; }
}
svg.acjk #stroke-p6 { animation-name: zk6; }
/* Stroke 7: Starts at 27.1%, finishes at 31.6%, holds until 85.9% */
@keyframes zk7 {
    0%, 27.1% { stroke-dashoffset: 3339; }
    31.6%, 85.9% { stroke-dashoffset: 0; }
    86.0%, 100% { stroke-dashoffset: 3339; }
}
svg.acjk #stroke-p7 { animation-name: zk7; }
/* Stroke 8: Starts at 31.6%, finishes at 36.2%, holds until 85.9% */
@keyframes zk8 {
    0%, 31.6% { stroke-dashoffset: 3339; }
    36.2%, 85.9% { stroke-dashoffset: 0; }
    86.0%, 100% { stroke-dashoffset: 3339; }
}
svg.acjk #stroke-p8 { animation-name: zk8; }
/* Stroke 9: Starts at 36.2%, finishes at 40.7%, holds until 85.9% */
@keyframes zk9 {
    0%, 36.2% { stroke-dashoffset: 3339; }
    40.7%, 85.9% { stroke-dashoffset: 0; }
    86.0%, 100% { stroke-dashoffset: 3339; }
}
svg.acjk #stroke-p9 { animation-name: zk9; }
/* Stroke 10: Starts at 40.7%, finishes at 45.2%, holds until 85.9% */
@keyframes zk10 {
    0%, 40.7% { stroke-dashoffset: 3339; }
    45.2%, 85.9% { stroke-dashoffset: 0; }
    86.0%, 100% { stroke-dashoffset: 3339; }
}
svg.acjk #stroke-p10 { animation-name: zk10; }
/* Stroke 11: Starts at 45.2%, finishes at 49.7%, holds until 85.9% */
@keyframes zk11 {
    0%, 45.2% { stroke-dashoffset: 3339; }
    49.7%, 85.9% { stroke-dashoffset: 0; }
    86.0%, 100% { stroke-dashoffset: 3339; }
}
svg.acjk #stroke-p11 { animation-name: zk11; }
/* Stroke 12: Starts at 49.7%, finishes at 54.2%, holds until 85.9% */
@keyframes zk12 {
    0%, 49.7% { stroke-dashoffset: 3339; }
    54.2%, 85.9% { stroke-dashoffset: 0; }
    86.0%, 100% { stroke-dashoffset: 3339; }
}
svg.acjk #stroke-p12 { animation-name: zk12; }
/* Stroke 13: Starts at 54.2%, finishes at 58.8%, holds until 85.9% */
@keyframes zk13 {
    0%, 54.2% { stroke-dashoffset: 3339; }
    58.8%, 85.9% { stroke-dashoffset: 0; }
    86.0%, 100% { stroke-dashoffset: 3339; }
}
svg.acjk #stroke-p13 { animation-name: zk13; }
/* Stroke 14: Starts at 58.8%, finishes at 63.3%, holds until 85.9% */
@keyframes zk14 {
    0%, 58.8% { stroke-dashoffset: 3339; }
    63.3%, 85.9% { stroke-dashoffset: 0; }
    86.0%, 100% { stroke-dashoffset: 3339; }
}
svg.acjk #stroke-p14 { animation-name: zk14; }
/* Stroke 15: Starts at 63.3%, finishes at 67.8%, holds until 85.9% */
@keyframes zk15 {
    0%, 63.3% { stroke-dashoffset: 3339; }
    67.8%, 85.9% { stroke-dashoffset: 0; }
    86.0%, 100% { stroke-dashoffset: 3339; }
}
svg.acjk #stroke-p15 { animation-name: zk15; }
/* Stroke 16: Starts at 67.8%, finishes at 72.3%, holds until 85.9% */
@keyframes zk16 {
    0%, 67.8% { stroke-dashoffset: 3339; }
    72.3%, 85.9% { stroke-dashoffset: 0; }
    86.0%, 100% { stroke-dashoffset: 3339; }
}
svg.acjk #stroke-p16 { animation-name: zk16; }
/* Stroke 17: Starts at 72.3%, finishes at 76.8%, holds until 85.9% */
@keyframes zk17 {
    0%, 72.3% { stroke-dashoffset: 3339; }
    76.8%, 85.9% { stroke-dashoffset: 0; }
    86.0%, 100% { stroke-dashoffset: 3339; }
}
svg.acjk #stroke-p17 { animation-name: zk17; }
/* Stroke 18: Starts at 76.8%, finishes at 81.4%, holds until 85.9% */
@keyframes zk18 {
    0%, 76.8% { stroke-dashoffset: 3339; }
    81.4%, 85.9% { stroke-dashoffset: 0; }
    86.0%, 100% { stroke-dashoffset: 3339; }
}
svg.acjk #stroke-p18 { animation-name: zk18; }
/* Stroke 19: Starts at 81.4%, finishes at 85.9%, holds until 85.9% */
@keyframes zk19 {
    0%, 81.4% { stroke-dashoffset: 3339; }
    85.9%, 85.9% { stroke-dashoffset: 0; }
    86.0%, 100% { stroke-dashoffset: 3339; }
}
svg.acjk #stroke-p19 { animation-name: zk19; }
]]>
</style>
<defs>
    <path id="p1" d="M 450 82 Q 481 101 513 126 Q 525 135 538 133 Q 547 132 549 120 Q 552 107 541 84 Q 529 57 441 44 Q 428 43 424 45 Q 420 49 422 59 Q 426 68 450 82 Z"/>
    <path id="p2" d="M 386 210 Q 560 180 728 169 Q 738 170 747 158 Q 748 146 727 135 Q 696 111 599 137 Q 467 161 290 179 Q 262 180 234 184 Q 206 185 226 204 Q 236 214 251 223 Q 264 232 286 226 Q 308 222 332 219 C 368 213 368 213 386 210 Z"/>
    <path id="p3" d="M 332 219 Q 338 235 336 266 Q 335 282 315 302 Q 300 320 327 341 Q 339 347 348 337 Q 444 283 682 289 Q 700 290 707 280 Q 711 271 695 262 Q 647 226 598 247 Q 456 272 391 289 Q 363 299 371 273 Q 378 239 384 226 Q 391 217 386 210 C 380 193 325 202 332 219 Z"/>
    <path id="p4" d="M 370 363 Q 361 359 336 358 Q 326 357 324 361 Q 320 367 328 378 Q 349 408 367 460 Q 371 475 382 484 Q 398 500 401 487 Q 402 483 402 476 C 399 459 399 459 398 450 Q 388 408 384 390 C 382 380 379 367 370 363 Z"/>
    <path id="p5" d="M 645 418 Q 663 391 683 378 Q 699 363 687 348 Q 629 297 576 319 Q 492 347 370 363 C 360 365 374 392 384 390 Q 390 390 577 355 Q 598 351 607 358 Q 611 362 609 372 Q 605 394 598 414 C 593 429 636 431 645 418 Z"/>
    <path id="p6" d="M 402 476 Q 408 476 417 475 Q 492 459 654 444 Q 661 443 663 436 Q 663 430 645 418 C 632 410 614 411 598 414 Q 486 439 398 450 C 389 452 393 476 402 476 Z"/>
    <path id="p7" d="M 210 737 Q 211 733 212 731 Q 216 703 221 674 C 222 655 222 655 223 646 Q 223 610 230 568 C 232 560 234 549 228 544 Q 216 534 196 525 Q 183 518 173 522 Q 164 528 170 537 Q 200 576 171 750 Q 168 765 164 780 Q 148 834 104 916 Q 100 920 99 926 Q 98 933 105 932 Q 136 922 182 826 Q 183 823 185 820 Q 195 792 204 762 C 208 745 208 745 210 737 Z"/>
    <path id="p8" d="M 230 568 Q 236 567 290 549 Q 303 545 308 551 Q 327 599 318 833 Q 317 855 310 865 Q 307 868 251 860 Q 236 856 237 864 Q 280 895 306 922 Q 316 935 328 939 Q 335 942 341 934 Q 371 898 365 819 Q 364 797 362 771 C 361 763 361 763 361 759 Q 349 588 364 560 Q 373 545 364 538 Q 348 525 321 514 Q 309 508 263 532 Q 248 536 228 544 C 221 547 222 570 230 568 Z"/>
    <path id="p9" d="M 221 674 Q 258 667 287 663 Q 305 659 297 650 Q 288 640 268 637 Q 250 636 223 646 C 214 649 212 676 221 674 Z"/>
    <path id="p10" d="M 204 762 Q 207 762 282 751 Q 300 747 293 738 Q 284 728 264 725 Q 225 722 210 737 C 204 743 196 764 204 762 Z"/>
    <path id="p11" d="M 415 520 Q 439 562 454 564 Q 464 565 469 554 Q 472 545 467 531 Q 463 521 449 515 Q 430 505 421 502 Q 414 501 413 508 Q 412 514 415 520 Z"/>
    <path id="p12" d="M 517 571 Q 551 528 571 509 Q 581 503 577 497 Q 570 487 554 479 Q 538 472 524 474 Q 514 477 519 489 Q 525 502 492 579 C 489 587 512 578 517 571 Z"/>
    <path id="p13" d="M 500 610 Q 528 603 560 597 Q 587 591 591 588 Q 597 582 594 576 Q 590 569 569 563 Q 551 560 517 571 C 500 576 500 576 492 579 Q 390 597 385 598 Q 360 602 378 614 Q 405 629 448 620 Q 449 619 455 619 C 485 613 485 613 500 610 Z"/>
    <path id="p14" d="M 509 685 Q 528 679 550 675 Q 572 669 576 666 Q 580 662 578 655 Q 574 648 554 644 Q 523 640 511 651 C 498 661 481 664 465 667 Q 432 673 395 680 Q 373 684 389 695 Q 416 704 466 696 C 495 689 495 689 509 685 Z"/>
    <path id="p15" d="M 362 771 Q 380 786 427 776 Q 445 772 467 769 C 494 764 494 764 507 761 Q 514 760 525 758 Q 591 749 598 741 Q 599 734 584 727 Q 560 711 510 729 Q 509 729 508 730 C 481 737 481 737 467 741 Q 439 747 415 750 Q 393 753 366 757 Q 362 757 361 759 C 357 760 359 769 362 771 Z"/>
    <path id="p16" d="M 467 769 Q 468 788 468 811 Q 469 898 481 918 Q 485 922 490 921 Q 505 909 507 773 Q 507 767 507 761 C 508 740 508 740 508 730 Q 508 709 509 685 C 510 662 510 662 511 651 Q 512 641 515 633 Q 516 621 507 614 Q 503 611 500 610 C 486 604 450 604 455 619 Q 458 622 465 667 C 466 686 466 686 466 696 Q 466 715 467 741 C 467 760 467 760 467 769 Z"/>
    <path id="p17" d="M 675 664 Q 679 613 681 551 Q 682 541 684 534 C 686 526 684 513 677 509 Q 676 508 674 507 Q 638 489 627 492 Q 614 495 625 510 Q 659 565 630 737 Q 621 773 605 815 Q 584 864 517 933 Q 507 943 504 947 Q 503 951 512 952 Q 545 948 595 892 Q 659 819 673 689 C 674 672 674 672 675 664 Z"/>
    <path id="p18" d="M 684 534 Q 699 531 760 508 Q 767 507 771 510 Q 765 735 772 769 Q 796 952 962 946 Q 965 945 968 945 Q 981 944 984 937 Q 990 927 981 905 Q 971 865 972 797 Q 972 787 966 780 Q 960 774 957 789 Q 942 856 933 876 Q 929 885 922 887 Q 915 890 908 889 Q 886 888 864 866 Q 804 812 802 697 Q 799 562 851 506 Q 861 499 851 491 Q 841 478 812 467 Q 785 457 774 465 Q 734 490 677 509 C 669 512 676 536 684 534 Z"/>
    <path id="p19" d="M 673 689 Q 679 695 712 749 Q 718 758 727 760 Q 733 761 738 755 Q 742 748 743 729 Q 743 713 724 696 Q 687 663 675 664 C 667 663 668 682 673 689 Z"/>

    <clipPath id="z32696c1"><use href="#p1"/></clipPath>
    <clipPath id="z32696c2"><use href="#p2"/></clipPath>
    <clipPath id="z32696c3"><use href="#p3"/></clipPath>
    <clipPath id="z32696c4"><use href="#p4"/></clipPath>
    <clipPath id="z32696c5"><use href="#p5"/></clipPath>
    <clipPath id="z32696c6"><use href="#p6"/></clipPath>
    <clipPath id="z32696c7"><use href="#p7"/></clipPath>
    <clipPath id="z32696c8"><use href="#p8"/></clipPath>
    <clipPath id="z32696c9"><use href="#p9"/></clipPath>
    <clipPath id="z32696c10"><use href="#p10"/></clipPath>
    <clipPath id="z32696c11"><use href="#p11"/></clipPath>
    <clipPath id="z32696c12"><use href="#p12"/></clipPath>
    <clipPath id="z32696c13"><use href="#p13"/></clipPath>
    <clipPath id="z32696c14"><use href="#p14"/></clipPath>
    <clipPath id="z32696c15"><use href="#p15"/></clipPath>
    <clipPath id="z32696c16"><use href="#p16"/></clipPath>
    <clipPath id="z32696c17"><use href="#p17"/></clipPath>
    <clipPath id="z32696c18"><use href="#p18"/></clipPath>
    <clipPath id="z32696c19"><use href="#p19"/></clipPath>
</defs>
<g id="bg-layer" class="bg">
<use href="#p1"/>
<use href="#p2"/>
<use href="#p3"/>
<use href="#p4"/>
<use href="#p5"/>
<use href="#p6"/>
<use href="#p7"/>
<use href="#p8"/>
<use href="#p9"/>
<use href="#p10"/>
<use href="#p11"/>
<use href="#p12"/>
<use href="#p13"/>
<use href="#p14"/>
<use href="#p15"/>
<use href="#p16"/>
<use href="#p17"/>
<use href="#p18"/>
<use href="#p19"/>
</g>
<g id="anim-layer">
    <path id="stroke-p1" style="stroke:#FF4444" pathLength="3333" clip-path="url(#z32696c1)" d="M 427 51 L 545 124"/>
    <path id="stroke-p2" style="stroke:#FF4444" pathLength="3333" clip-path="url(#z32696c2)" d="M 226 193 L 741 155"/>
    <path id="stroke-p3" style="stroke:#FF4444" pathLength="3333" clip-path="url(#z32696c3)" d="M 373 204 L 341 302 L 354 317 L 553 272 L 703 274"/>
    <path id="stroke-p4" style="stroke:#FF4444" pathLength="3333" clip-path="url(#z32696c4)" d="M 331 365 L 359 384 L 393 487"/>
    <path id="stroke-p5" style="stroke:#FF4444" pathLength="3333" clip-path="url(#z32696c5)" d="M 371 368 L 611 334 L 650 365 L 609 422"/>
    <path id="stroke-p6" style="stroke:#FF4444" pathLength="3333" clip-path="url(#z32696c6)" d="M 397 464 L 656 431"/>
    <path id="stroke-p7" style="stroke:#FF4444" pathLength="3333" clip-path="url(#z32696c7)" d="M 176 525 L 207 564 L 194 721 L 167 821 L 106 924"/>
    <path id="stroke-p8" style="stroke:#FF4444" pathLength="3333" clip-path="url(#z32696c8)" d="M 229 559 L 306 531 L 339 551 L 336 879 L 317 902 L 244 863"/>
    <path id="stroke-p9" style="stroke:#FF4444" pathLength="3333" clip-path="url(#z32696c9)" d="M 223 665 L 292 655"/>
    <path id="stroke-p10" style="stroke:#FF4444" pathLength="3333" clip-path="url(#z32696c10)" d="M 206 754 L 290 743"/>
    <path id="stroke-p11" style="stroke:#000" pathLength="3333" clip-path="url(#z32696c11)" d="M 420 512 L 460 557"/>
    <path id="stroke-p12" style="stroke:#000" pathLength="3333" clip-path="url(#z32696c12)" d="M 525 478 L 545 512 L 498 575"/>
    <path id="stroke-p13" style="stroke:#000" pathLength="3333" clip-path="url(#z32696c13)" d="M 378 604 L 590 579"/>
    <path id="stroke-p14" style="stroke:#000" pathLength="3333" clip-path="url(#z32696c14)" d="M 388 688 L 573 658"/>
    <path id="stroke-p15" style="stroke:#000" pathLength="3333" clip-path="url(#z32696c15)" d="M 365 765 L 590 736"/>
    <path id="stroke-p16" style="stroke:#000" pathLength="3333" clip-path="url(#z32696c16)" d="M 461 612 L 488 639 L 487 916"/>
    <path id="stroke-p17" style="stroke:#000" pathLength="3333" clip-path="url(#z32696c17)" d="M 629 500 L 661 534 L 642 762 L 592 870 L 513 948"/>
    <path id="stroke-p18" style="stroke:#000" pathLength="3333" clip-path="url(#z32696c18)" d="M 677 521 L 778 485 L 812 505 L 786 734 L 808 828 L 852 889 L 909 916 L 954 910 L 965 787"/>
    <path id="stroke-p19" style="stroke:#000" pathLength="3333" clip-path="url(#z32696c19)" d="M 677 675 L 728 753"/>
</g>
</svg>