<svg id="z32697" class="acjk" viewBox="0 0 1024 1024" xmlns="http://www.w3.org/2000/svg">
<style>
<![CDATA[
svg.acjk path[clip-path] {
    animation-duration: 17.700000000000003s;
    animation-timing-function: linear;
    animation-iteration-count: infinite;
    stroke-dasharray: 3337;
    stroke-dashoffset: 3339;
    stroke-width: 128;
    stroke-linecap: round;
    fill: none;
    stroke: #FF4444;
}
svg.acjk .bg { fill: #ccc; opacity: 0.5; }

/* Stroke 1: Starts at 0.0%, finishes at 4.5%, holds until 85.9% */
@keyframes zk1 {
    0%, 0.0% { stroke-dashoffset: 3339; }
    4.5%, 85.9% { stroke-dashoffset: 0; }
    86.0%, 100% { stroke-dashoffset: 3339; }
}
svg.acjk #stroke-p1 { animation-name: zk1; }
/* Stroke 2: Starts at 4.5%, finishes at 9.0%, holds until 85.9% */
@keyframes zk2 {
    0%, 4.5% { stroke-dashoffset: 3339; }
    9.0%, 85.9% { stroke-dashoffset: 0; }
    86.0%, 100% { stroke-dashoffset: 3339; }
}
svg.acjk #stroke-p2 { animation-name: zk2; }
/* Stroke 3: Starts at 9.0%, finishes at 13.6%, holds until 85.9% */
@keyframes zk3 {
    0%, 9.0% { stroke-dashoffset: 3339; }
    13.6%, 85.9% { stroke-dashoffset: 0; }
    86.0%, 100% { stroke-dashoffset: 3339; }
}
svg.acjk #stroke-p3 { animation-name: zk3; }
/* Stroke 4: Starts at 13.6%, finishes at 18.1%, holds until 85.9% */
@keyframes zk4 {
    0%, 13.6% { stroke-dashoffset: 3339; }
    18.1%, 85.9% { stroke-dashoffset: 0; }
    86.0%, 100% { stroke-dashoffset: 3339; }
}
svg.acjk #stroke-p4 { animation-name: zk4; }
/* Stroke 5: Starts at 18.1%, finishes at 22.6%, holds until 85.9% */
@keyframes zk5 {
    0%, 18.1% { stroke-dashoffset: 3339; }
    22.6%, 85.9% { stroke-dashoffset: 0; }
    86.0%, 100% { stroke-dashoffset: 3339; }
}
svg.acjk #stroke-p5 { animation-name: zk5; }
/* Stroke 6: Starts at 22.6%, finishes at 27.1%, holds until 85.9% */
@keyframes zk6 {
    0%, 22.6% { stroke-dashoffset: 3339; }
    27.1%, 85.9% { stroke-dashoffset: 0; }
    86.0%, 100% { stroke-dashoffset: 3339; }
}
svg.acjk #stroke-p6 { animation-name: zk6; }
/* Stroke 7: Starts at 27.1%, finishes at 31.6%, holds until 85.9% */
@keyframes zk7 {
    0%, 27.1% { stroke-dashoffset: 3339; }
    31.6%, 85.9% { stroke-dashoffset: 0; }
    86.0%, 100% { stroke-dashoffset: 3339; }
}
svg.acjk #stroke-p7 { animation-name: zk7; }
/* Stroke 8: Starts at 31.6%, finishes at 36.2%, holds until 85.9% */
@keyframes zk8 {
    0%, 31.6% { stroke-dashoffset: 3339; }
    36.2%, 85.9% { stroke-dashoffset: 0; }
    86.0%, 100% { stroke-dashoffset: 3339; }
}
svg.acjk #stroke-p8 { animation-name: zk8; }
/* Stroke 9: Starts at 36.2%, finishes at 40.7%, holds until 85.9% */
@keyframes zk9 {
    0%, 36.2% { stroke-dashoffset: 3339; }
    40.7%, 85.9% { stroke-dashoffset: 0; }
    86.0%, 100% { stroke-dashoffset: 3339; }
}
svg.acjk #stroke-p9 { animation-name: zk9; }
/* Stroke 10: Starts at 40.7%, finishes at 45.2%, holds until 85.9% */
@keyframes zk10 {
    0%, 40.7% { stroke-dashoffset: 3339; }
    45.2%, 85.9% { stroke-dashoffset: 0; }
    86.0%, 100% { stroke-dashoffset: 3339; }
}
svg.acjk #stroke-p10 { animation-name: zk10; }
/* Stroke 11: Starts at 45.2%, finishes at 49.7%, holds until 85.9% */
@keyframes zk11 {
    0%, 45.2% { stroke-dashoffset: 3339; }
    49.7%, 85.9% { stroke-dashoffset: 0; }
    86.0%, 100% { stroke-dashoffset: 3339; }
}
svg.acjk #stroke-p11 { animation-name: zk11; }
/* Stroke 12: Starts at 49.7%, finishes at 54.2%, holds until 85.9% */
@keyframes zk12 {
    0%, 49.7% { stroke-dashoffset: 3339; }
    54.2%, 85.9% { stroke-dashoffset: 0; }
    86.0%, 100% { stroke-dashoffset: 3339; }
}
svg.acjk #stroke-p12 { animation-name: zk12; }
/* Stroke 13: Starts at 54.2%, finishes at 58.8%, holds until 85.9% */
@keyframes zk13 {
    0%, 54.2% { stroke-dashoffset: 3339; }
    58.8%, 85.9% { stroke-dashoffset: 0; }
    86.0%, 100% { stroke-dashoffset: 3339; }
}
svg.acjk #stroke-p13 { animation-name: zk13; }
/* Stroke 14: Starts at 58.8%, finishes at 63.3%, holds until 85.9% */
@keyframes zk14 {
    0%, 58.8% { stroke-dashoffset: 3339; }
    63.3%, 85.9% { stroke-dashoffset: 0; }
    86.0%, 100% { stroke-dashoffset: 3339; }
}
svg.acjk #stroke-p14 { animation-name: zk14; }
/* Stroke 15: Starts at 63.3%, finishes at 67.8%, holds until 85.9% */
@keyframes zk15 {
    0%, 63.3% { stroke-dashoffset: 3339; }
    67.8%, 85.9% { stroke-dashoffset: 0; }
    86.0%, 100% { stroke-dashoffset: 3339; }
}
svg.acjk #stroke-p15 { animation-name: zk15; }
/* Stroke 16: Starts at 67.8%, finishes at 72.3%, holds until 85.9% */
@keyframes zk16 {
    0%, 67.8% { stroke-dashoffset: 3339; }
    72.3%, 85.9% { stroke-dashoffset: 0; }
    86.0%, 100% { stroke-dashoffset: 3339; }
}
svg.acjk #stroke-p16 { animation-name: zk16; }
/* Stroke 17: Starts at 72.3%, finishes at 76.8%, holds until 85.9% */
@keyframes zk17 {
    0%, 72.3% { stroke-dashoffset: 3339; }
    76.8%, 85.9% { stroke-dashoffset: 0; }
    86.0%, 100% { stroke-dashoffset: 3339; }
}
svg.acjk #stroke-p17 { animation-name: zk17; }
/* Stroke 18: Starts at 76.8%, finishes at 81.4%, holds until 85.9% */
@keyframes zk18 {
    0%, 76.8% { stroke-dashoffset: 3339; }
    81.4%, 85.9% { stroke-dashoffset: 0; }
    86.0%, 100% { stroke-dashoffset: 3339; }
}
svg.acjk #stroke-p18 { animation-name: zk18; }
/* Stroke 19: Starts at 81.4%, finishes at 85.9%, holds until 85.9% */
@keyframes zk19 {
    0%, 81.4% { stroke-dashoffset: 3339; }
    85.9%, 85.9% { stroke-dashoffset: 0; }
    86.0%, 100% { stroke-dashoffset: 3339; }
}
svg.acjk #stroke-p19 { animation-name: zk19; }
]]>
</style>
<defs>
    <path id="p1" d="M 412 124 Q 427 139 442 156 Q 452 166 465 166 Q 472 166 477 155 Q 481 145 475 121 Q 471 108 451 99 Q 405 81 392 85 Q 388 89 389 98 Q 392 107 412 124 Z"/>
    <path id="p2" d="M 577 75 Q 568 93 526 148 Q 519 161 532 159 Q 565 141 583 129 Q 637 90 645 88 Q 661 81 653 66 Q 643 53 621 41 Q 602 31 592 33 Q 582 34 585 45 Q 588 60 577 75 Z"/>
    <path id="p3" d="M 511 215 Q 563 206 620 200 Q 669 193 677 187 Q 684 181 682 174 Q 676 164 654 156 Q 633 150 519 177 Q 429 192 341 195 Q 311 198 331 213 Q 364 232 430 225 Q 451 222 474 220 C 499 217 499 217 511 215 Z"/>
    <path id="p4" d="M 522 291 Q 583 284 635 279 Q 654 278 648 266 Q 641 253 620 248 Q 590 242 527 257 C 494 262 494 262 477 265 Q 414 274 359 282 Q 346 283 361 298 Q 374 308 402 305 Q 441 299 478 297 C 507 293 507 293 522 291 Z"/>
    <path id="p5" d="M 516 338 Q 517 311 522 291 C 525 268 525 268 527 257 Q 527 256 528 255 Q 535 240 528 231 Q 519 221 511 215 C 501 207 472 208 474 220 Q 477 226 477 265 C 478 286 478 286 478 297 Q 478 316 478 343 C 478 356 516 351 516 338 Z"/>
    <path id="p6" d="M 478 343 Q 376 353 262 367 Q 246 368 257 382 Q 281 403 322 395 Q 451 361 723 361 Q 739 361 754 362 Q 770 362 774 355 Q 778 346 765 335 Q 723 304 666 315 Q 605 325 516 338 C 491 341 491 341 478 343 Z"/>
    <path id="p7" d="M 272 421 Q 250 454 220 483 Q 198 508 208 543 Q 212 559 233 552 Q 278 528 287 477 Q 297 449 294 424 Q 290 417 285 414 Q 278 414 272 421 Z"/>
    <path id="p8" d="M 392 425 Q 420 470 438 473 Q 448 474 453 462 Q 454 452 450 437 Q 444 427 429 420 Q 407 408 397 406 Q 390 405 389 412 Q 388 418 392 425 Z"/>
    <path id="p9" d="M 487 409 Q 518 461 534 464 Q 543 467 550 454 Q 551 444 548 429 Q 539 410 493 390 Q 487 389 485 396 Q 484 402 487 409 Z"/>
    <path id="p10" d="M 646 414 Q 697 451 758 508 Q 774 524 787 527 Q 794 527 801 518 Q 810 505 796 468 Q 778 419 644 387 Q 635 383 635 394 Q 635 406 646 414 Z"/>
    <path id="p11" d="M 390 509 Q 417 548 438 550 Q 448 551 452 538 Q 453 528 446 513 Q 437 497 393 489 Q 386 488 386 496 Q 385 502 390 509 Z"/>
    <path id="p12" d="M 567 475 Q 560 490 534 523 Q 527 533 538 531 Q 553 525 593 505 Q 606 495 622 489 Q 635 483 629 471 Q 622 461 604 450 Q 589 440 581 442 Q 572 443 575 452 Q 576 464 567 475 Z"/>
    <path id="p13" d="M 505 592 Q 548 585 596 581 Q 639 574 645 569 Q 652 563 649 557 Q 645 547 623 540 Q 605 536 498 559 Q 393 571 352 573 Q 324 574 343 590 Q 370 609 432 600 Q 448 597 467 597 C 492 594 492 594 505 592 Z"/>
    <path id="p14" d="M 470 639 Q 409 646 355 654 Q 342 655 357 670 Q 369 680 397 678 Q 436 674 472 671 C 501 668 501 668 516 666 Q 576 659 627 655 Q 646 654 640 642 Q 633 629 612 624 Q 588 618 521 631 C 487 636 487 636 470 639 Z"/>
    <path id="p15" d="M 521 631 Q 521 630 522 630 Q 528 615 521 607 Q 514 598 505 592 C 495 584 465 584 467 597 Q 470 609 470 639 C 471 660 471 660 472 671 Q 472 689 474 714 C 474 727 513 722 513 709 Q 514 685 516 666 C 518 654 516 642 521 631 Z"/>
    <path id="p16" d="M 474 714 Q 363 724 235 737 Q 217 738 230 754 Q 242 766 257 771 Q 275 775 289 772 Q 368 753 458 745 C 481 743 481 743 493 742 Q 535 736 768 737 Q 786 737 790 730 Q 794 720 781 708 Q 736 672 704 680 Q 632 693 513 709 C 487 712 487 712 474 714 Z"/>
    <path id="p17" d="M 455 796 Q 388 800 314 808 Q 298 809 309 822 Q 331 844 360 839 Q 402 830 449 826 C 508 823 508 823 538 821 Q 590 817 665 822 Q 705 825 713 818 Q 717 809 705 798 Q 666 765 612 777 Q 573 781 519 790 C 476 794 476 794 455 796 Z"/>
    <path id="p18" d="M 458 745 Q 459 766 455 796 C 451 816 451 816 449 826 Q 422 896 355 931 Q 327 946 257 958 Q 248 958 244 961 Q 240 964 246 969 Q 321 993 411 946 Q 420 940 429 934 Q 459 912 480 878 Q 493 850 505 824 C 514 801 514 801 519 790 Q 520 789 521 787 Q 527 778 521 770 Q 508 751 493 742 C 483 736 458 733 458 745 Z"/>
    <path id="p19" d="M 505 824 Q 569 894 639 959 Q 660 978 694 978 Q 755 977 819 961 Q 835 958 836 954 Q 837 948 824 944 Q 658 898 588 854 Q 572 845 557 834 Q 547 827 538 821 C 529 814 499 814 505 823 C 505 824 505 824 505 824 Z"/>

    <clipPath id="z32697c1"><use href="#p1"/></clipPath>
    <clipPath id="z32697c2"><use href="#p2"/></clipPath>
    <clipPath id="z32697c3"><use href="#p3"/></clipPath>
    <clipPath id="z32697c4"><use href="#p4"/></clipPath>
    <clipPath id="z32697c5"><use href="#p5"/></clipPath>
    <clipPath id="z32697c6"><use href="#p6"/></clipPath>
    <clipPath id="z32697c7"><use href="#p7"/></clipPath>
    <clipPath id="z32697c8"><use href="#p8"/></clipPath>
    <clipPath id="z32697c9"><use href="#p9"/></clipPath>
    <clipPath id="z32697c10"><use href="#p10"/></clipPath>
    <clipPath id="z32697c11"><use href="#p11"/></clipPath>
    <clipPath id="z32697c12"><use href="#p12"/></clipPath>
    <clipPath id="z32697c13"><use href="#p13"/></clipPath>
    <clipPath id="z32697c14"><use href="#p14"/></clipPath>
    <clipPath id="z32697c15"><use href="#p15"/></clipPath>
    <clipPath id="z32697c16"><use href="#p16"/></clipPath>
    <clipPath id="z32697c17"><use href="#p17"/></clipPath>
    <clipPath id="z32697c18"><use href="#p18"/></clipPath>
    <clipPath id="z32697c19"><use href="#p19"/></clipPath>
</defs>
<g id="bg-layer" class="bg">
<use href="#p1"/>
<use href="#p2"/>
<use href="#p3"/>
<use href="#p4"/>
<use href="#p5"/>
<use href="#p6"/>
<use href="#p7"/>
<use href="#p8"/>
<use href="#p9"/>
<use href="#p10"/>
<use href="#p11"/>
<use href="#p12"/>
<use href="#p13"/>
<use href="#p14"/>
<use href="#p15"/>
<use href="#p16"/>
<use href="#p17"/>
<use href="#p18"/>
<use href="#p19"/>
</g>
<g id="anim-layer">
    <path id="stroke-p1" style="stroke:#FF4444" pathLength="3333" clip-path="url(#z32697c1)" d="M 393 91 L 471 158"/>
    <path id="stroke-p2" style="stroke:#FF4444" pathLength="3333" clip-path="url(#z32697c2)" d="M 593 42 L 613 82 L 531 150"/>
    <path id="stroke-p3" style="stroke:#FF4444" pathLength="3333" clip-path="url(#z32697c3)" d="M 332 201 L 676 179"/>
    <path id="stroke-p4" style="stroke:#FF4444" pathLength="3333" clip-path="url(#z32697c4)" d="M 362 288 L 643 266"/>
    <path id="stroke-p5" style="stroke:#FF4444" pathLength="3333" clip-path="url(#z32697c5)" d="M 481 225 L 504 256 L 490 341"/>
    <path id="stroke-p6" style="stroke:#FF4444" pathLength="3333" clip-path="url(#z32697c6)" d="M 264 375 L 691 336 L 769 351"/>
    <path id="stroke-p7" style="stroke:#000" pathLength="3333" clip-path="url(#z32697c7)" d="M 285 421 L 214 546"/>
    <path id="stroke-p8" style="stroke:#000" pathLength="3333" clip-path="url(#z32697c8)" d="M 395 413 L 447 462"/>
    <path id="stroke-p9" style="stroke:#000" pathLength="3333" clip-path="url(#z32697c9)" d="M 492 398 L 538 459"/>
    <path id="stroke-p10" style="stroke:#000" pathLength="3333" clip-path="url(#z32697c10)" d="M 641 396 L 744 454 L 792 522"/>
    <path id="stroke-p11" style="stroke:#000" pathLength="3333" clip-path="url(#z32697c11)" d="M 394 496 L 443 542"/>
    <path id="stroke-p12" style="stroke:#000" pathLength="3333" clip-path="url(#z32697c12)" d="M 584 445 L 596 482 L 539 524"/>
    <path id="stroke-p13" style="stroke:#000" pathLength="3333" clip-path="url(#z32697c13)" d="M 341 581 L 643 557"/>
    <path id="stroke-p14" style="stroke:#000" pathLength="3333" clip-path="url(#z32697c14)" d="M 360 662 L 635 641"/>
    <path id="stroke-p15" style="stroke:#000" pathLength="3333" clip-path="url(#z32697c15)" d="M 474 604 L 498 636 L 494 711"/>
    <path id="stroke-p16" style="stroke:#000" pathLength="3333" clip-path="url(#z32697c16)" d="M 232 744 L 707 708 L 786 721"/>
    <path id="stroke-p17" style="stroke:#000" pathLength="3333" clip-path="url(#z32697c17)" d="M 314 815 L 709 808"/>
    <path id="stroke-p18" style="stroke:#000" pathLength="3333" clip-path="url(#z32697c18)" d="M 464 750 L 488 790 L 434 898 L 349 953 L 251 964"/>
    <path id="stroke-p19" style="stroke:#000" pathLength="3333" clip-path="url(#z32697c19)" d="M 517 829 L 681 939 L 830 953"/>
</g>
</svg>