<svg id="z32728" class="acjk" viewBox="0 0 1024 1024" xmlns="http://www.w3.org/2000/svg">
<style>
<![CDATA[
svg.acjk path[clip-path] {
    animation-duration: 12.100000000000001s;
    animation-timing-function: linear;
    animation-iteration-count: infinite;
    stroke-dasharray: 3337;
    stroke-dashoffset: 3339;
    stroke-width: 128;
    stroke-linecap: round;
    fill: none;
    stroke: #FF4444;
}
svg.acjk .bg { fill: #ccc; opacity: 0.5; }

/* Stroke 1: Starts at 0.0%, finishes at 6.6%, holds until 79.3% */
@keyframes zk1 {
    0%, 0.0% { stroke-dashoffset: 3339; }
    6.6%, 79.3% { stroke-dashoffset: 0; }
    79.4%, 100% { stroke-dashoffset: 3339; }
}
svg.acjk #stroke-p1 { animation-name: zk1; }
/* Stroke 2: Starts at 6.6%, finishes at 13.2%, holds until 79.3% */
@keyframes zk2 {
    0%, 6.6% { stroke-dashoffset: 3339; }
    13.2%, 79.3% { stroke-dashoffset: 0; }
    79.4%, 100% { stroke-dashoffset: 3339; }
}
svg.acjk #stroke-p2 { animation-name: zk2; }
/* Stroke 3: Starts at 13.2%, finishes at 19.8%, holds until 79.3% */
@keyframes zk3 {
    0%, 13.2% { stroke-dashoffset: 3339; }
    19.8%, 79.3% { stroke-dashoffset: 0; }
    79.4%, 100% { stroke-dashoffset: 3339; }
}
svg.acjk #stroke-p3 { animation-name: zk3; }
/* Stroke 4: Starts at 19.8%, finishes at 26.4%, holds until 79.3% */
@keyframes zk4 {
    0%, 19.8% { stroke-dashoffset: 3339; }
    26.4%, 79.3% { stroke-dashoffset: 0; }
    79.4%, 100% { stroke-dashoffset: 3339; }
}
svg.acjk #stroke-p4 { animation-name: zk4; }
/* Stroke 5: Starts at 26.4%, finishes at 33.1%, holds until 79.3% */
@keyframes zk5 {
    0%, 26.4% { stroke-dashoffset: 3339; }
    33.1%, 79.3% { stroke-dashoffset: 0; }
    79.4%, 100% { stroke-dashoffset: 3339; }
}
svg.acjk #stroke-p5 { animation-name: zk5; }
/* Stroke 6: Starts at 33.1%, finishes at 39.7%, holds until 79.3% */
@keyframes zk6 {
    0%, 33.1% { stroke-dashoffset: 3339; }
    39.7%, 79.3% { stroke-dashoffset: 0; }
    79.4%, 100% { stroke-dashoffset: 3339; }
}
svg.acjk #stroke-p6 { animation-name: zk6; }
/* Stroke 7: Starts at 39.7%, finishes at 46.3%, holds until 79.3% */
@keyframes zk7 {
    0%, 39.7% { stroke-dashoffset: 3339; }
    46.3%, 79.3% { stroke-dashoffset: 0; }
    79.4%, 100% { stroke-dashoffset: 3339; }
}
svg.acjk #stroke-p7 { animation-name: zk7; }
/* Stroke 8: Starts at 46.3%, finishes at 52.9%, holds until 79.3% */
@keyframes zk8 {
    0%, 46.3% { stroke-dashoffset: 3339; }
    52.9%, 79.3% { stroke-dashoffset: 0; }
    79.4%, 100% { stroke-dashoffset: 3339; }
}
svg.acjk #stroke-p8 { animation-name: zk8; }
/* Stroke 9: Starts at 52.9%, finishes at 59.5%, holds until 79.3% */
@keyframes zk9 {
    0%, 52.9% { stroke-dashoffset: 3339; }
    59.5%, 79.3% { stroke-dashoffset: 0; }
    79.4%, 100% { stroke-dashoffset: 3339; }
}
svg.acjk #stroke-p9 { animation-name: zk9; }
/* Stroke 10: Starts at 59.5%, finishes at 66.1%, holds until 79.3% */
@keyframes zk10 {
    0%, 59.5% { stroke-dashoffset: 3339; }
    66.1%, 79.3% { stroke-dashoffset: 0; }
    79.4%, 100% { stroke-dashoffset: 3339; }
}
svg.acjk #stroke-p10 { animation-name: zk10; }
/* Stroke 11: Starts at 66.1%, finishes at 72.7%, holds until 79.3% */
@keyframes zk11 {
    0%, 66.1% { stroke-dashoffset: 3339; }
    72.7%, 79.3% { stroke-dashoffset: 0; }
    79.4%, 100% { stroke-dashoffset: 3339; }
}
svg.acjk #stroke-p11 { animation-name: zk11; }
/* Stroke 12: Starts at 72.7%, finishes at 79.3%, holds until 79.3% */
@keyframes zk12 {
    0%, 72.7% { stroke-dashoffset: 3339; }
    79.3%, 79.3% { stroke-dashoffset: 0; }
    79.4%, 100% { stroke-dashoffset: 3339; }
}
svg.acjk #stroke-p12 { animation-name: zk12; }
]]>
</style>
<defs>
    <path id="p1" d="M 323 261 Q 449 213 455 206 Q 462 197 457 190 Q 448 180 421 178 Q 393 177 368 192 Q 340 207 309 221 C 287 231 287 231 276 236 Q 224 255 163 273 Q 132 283 157 295 Q 190 307 262 284 Q 272 280 287 275 C 311 266 311 266 323 261 Z"/>
    <path id="p2" d="M 359 412 Q 410 485 479 498 Q 498 497 496 472 Q 490 451 494 357 Q 494 348 490 347 Q 486 347 484 355 Q 474 374 464 393 Q 452 417 443 416 Q 428 415 396 382 C 379 361 379 361 371 351 Q 346 315 323 261 C 314 234 314 234 309 221 Q 297 160 309 127 Q 313 111 284 92 Q 254 73 245 75 Q 235 79 238 93 Q 254 115 260 152 Q 266 198 276 236 C 283 262 283 262 287 275 Q 306 329 338 380 C 352 401 352 401 359 412 Z"/>
    <path id="p3" d="M 338 380 Q 286 419 180 459 Q 173 463 176 467 Q 197 480 283 451 Q 326 438 359 412 C 384 392 384 392 396 382 Q 418 361 443 333 Q 479 293 479 292 Q 478 282 460 263 Q 447 250 440 248 Q 430 247 427 259 Q 418 296 371 351 C 349 370 349 370 338 380 Z"/>
    <path id="p4" d="M 372 563 Q 373 560 461 547 Q 471 548 478 536 Q 479 526 458 517 Q 434 499 355 524 Q 253 549 163 566 Q 138 570 158 585 Q 185 604 223 596 Q 229 595 236 594 C 263 587 263 587 276 584 Q 303 577 336 571 C 360 566 360 566 372 563 Z"/>
    <path id="p5" d="M 236 594 Q 254 709 91 870 Q 85 876 90 878 Q 117 882 183 822 Q 247 765 283 653 Q 290 634 300 616 Q 306 609 300 600 Q 296 593 276 584 C 263 579 233 581 236 594 Z"/>
    <path id="p6" d="M 940 821 Q 924 772 917 689 Q 916 676 909 670 Q 902 666 898 684 Q 882 786 867 804 Q 816 861 604 858 Q 489 854 440 833 Q 397 809 388 781 Q 373 711 402 640 Q 411 601 411 598 Q 405 580 372 563 C 361 557 331 560 336 571 Q 352 607 347 658 Q 338 781 357 814 Q 370 842 398 861 Q 476 921 750 900 Q 874 891 923 863 Q 951 850 940 821 Z"/>
    <path id="p7" d="M 670 564 Q 666 321 677 301 Q 686 283 677 274 Q 661 259 631 248 Q 616 242 578 264 Q 562 271 526 280 Q 513 281 521 288 Q 528 297 540 300 Q 555 303 598 286 Q 613 280 618 287 Q 630 326 627 500 C 627 515 627 515 627 523 Q 624 683 614 700 Q 608 704 548 689 Q 532 685 533 692 Q 579 732 606 761 Q 616 777 629 780 Q 636 784 643 776 Q 673 740 674 674 Q 671 634 670 589 C 670 572 670 572 670 564 Z"/>
    <path id="p8" d="M 524 406 Q 557 461 577 465 Q 587 466 594 453 Q 595 443 591 427 Q 576 399 530 386 Q 523 385 521 393 Q 520 399 524 406 Z"/>
    <path id="p9" d="M 627 500 Q 500 582 462 594 Q 453 598 454 606 Q 455 616 463 619 Q 482 626 510 633 Q 517 633 525 624 Q 531 614 618 532 Q 622 528 627 523 C 632 518 633 495 627 500 Z"/>
    <path id="p10" d="M 778 716 Q 751 710 725 705 Q 707 701 709 708 Q 763 748 794 780 Q 804 796 818 800 Q 825 803 833 795 Q 867 750 866 706 Q 845 319 869 274 Q 879 258 870 249 Q 852 233 821 220 Q 805 213 759 235 Q 738 242 695 247 Q 682 247 689 255 Q 696 265 709 270 Q 728 274 782 258 Q 800 255 804 264 Q 808 280 811 304 Q 818 539 808 680 Q 807 705 800 715 Q 796 721 778 716 Z"/>
    <path id="p11" d="M 704 392 Q 735 431 757 441 Q 767 442 773 435 Q 777 428 776 417 Q 767 390 713 368 Q 703 365 697 367 Q 693 368 694 375 Q 695 382 704 392 Z"/>
    <path id="p12" d="M 670 589 Q 689 593 715 595 Q 722 594 728 585 Q 734 570 790 498 Q 797 489 802 479 Q 808 472 805 465 Q 801 464 793 468 Q 747 508 687 554 Q 680 558 670 564 C 663 568 662 587 670 589 Z"/>

    <clipPath id="z32728c1"><use href="#p1"/></clipPath>
    <clipPath id="z32728c2"><use href="#p2"/></clipPath>
    <clipPath id="z32728c3"><use href="#p3"/></clipPath>
    <clipPath id="z32728c4"><use href="#p4"/></clipPath>
    <clipPath id="z32728c5"><use href="#p5"/></clipPath>
    <clipPath id="z32728c6"><use href="#p6"/></clipPath>
    <clipPath id="z32728c7"><use href="#p7"/></clipPath>
    <clipPath id="z32728c8"><use href="#p8"/></clipPath>
    <clipPath id="z32728c9"><use href="#p9"/></clipPath>
    <clipPath id="z32728c10"><use href="#p10"/></clipPath>
    <clipPath id="z32728c11"><use href="#p11"/></clipPath>
    <clipPath id="z32728c12"><use href="#p12"/></clipPath>
</defs>
<g id="bg-layer" class="bg">
<use href="#p1"/>
<use href="#p2"/>
<use href="#p3"/>
<use href="#p4"/>
<use href="#p5"/>
<use href="#p6"/>
<use href="#p7"/>
<use href="#p8"/>
<use href="#p9"/>
<use href="#p10"/>
<use href="#p11"/>
<use href="#p12"/>
</g>
<g id="anim-layer">
    <path id="stroke-p1" style="stroke:#FF4444" pathLength="3333" clip-path="url(#z32728c1)" d="M 152 285 L 454 197"/>
    <path id="stroke-p2" style="stroke:#FF4444" pathLength="3333" clip-path="url(#z32728c2)" d="M 245 83 L 282 127 L 315 293 L 396 419 L 472 451 L 489 357"/>
    <path id="stroke-p3" style="stroke:#FF4444" pathLength="3333" clip-path="url(#z32728c3)" d="M 438 252 L 447 289 L 355 391 L 183 463"/>
    <path id="stroke-p4" style="stroke:#FF4444" pathLength="3333" clip-path="url(#z32728c4)" d="M 157 574 L 470 532"/>
    <path id="stroke-p5" style="stroke:#FF4444" pathLength="3333" clip-path="url(#z32728c5)" d="M 242 599 L 268 629 L 230 725 L 96 871"/>
    <path id="stroke-p6" style="stroke:#FF4444" pathLength="3333" clip-path="url(#z32728c6)" d="M 343 574 L 378 606 L 373 799 L 409 841 L 473 868 L 689 880 L 861 852 L 904 825 L 906 678"/>
    <path id="stroke-p7" style="stroke:#000" pathLength="3333" clip-path="url(#z32728c7)" d="M 527 286 L 619 265 L 651 298 L 641 712 L 619 739 L 541 692"/>
    <path id="stroke-p8" style="stroke:#000" pathLength="3333" clip-path="url(#z32728c8)" d="M 528 394 L 586 455"/>
    <path id="stroke-p9" style="stroke:#000" pathLength="3333" clip-path="url(#z32728c9)" d="M 459 607 L 512 601 L 620 508"/>
    <path id="stroke-p10" style="stroke:#000" pathLength="3333" clip-path="url(#z32728c10)" d="M 695 252 L 795 238 L 840 265 L 835 715 L 805 759 L 719 709"/>
    <path id="stroke-p11" style="stroke:#000" pathLength="3333" clip-path="url(#z32728c11)" d="M 702 374 L 762 436"/>
    <path id="stroke-p12" style="stroke:#000" pathLength="3333" clip-path="url(#z32728c12)" d="M 674 582 L 799 472"/>
</g>
</svg>