<svg id="z32810" class="acjk" viewBox="0 0 1024 1024" xmlns="http://www.w3.org/2000/svg">
<style>
<![CDATA[
svg.acjk path[clip-path] {
    animation-duration: 15.3s;
    animation-timing-function: linear;
    animation-iteration-count: infinite;
    stroke-dasharray: 3337;
    stroke-dashoffset: 3339;
    stroke-width: 128;
    stroke-linecap: round;
    fill: none;
    stroke: #FF4444;
}
svg.acjk .bg { fill: #ccc; opacity: 0.5; }

/* Stroke 1: Starts at 0.0%, finishes at 5.2%, holds until 83.7% */
@keyframes zk1 {
    0%, 0.0% { stroke-dashoffset: 3339; }
    5.2%, 83.7% { stroke-dashoffset: 0; }
    83.8%, 100% { stroke-dashoffset: 3339; }
}
svg.acjk #stroke-p1 { animation-name: zk1; }
/* Stroke 2: Starts at 5.2%, finishes at 10.5%, holds until 83.7% */
@keyframes zk2 {
    0%, 5.2% { stroke-dashoffset: 3339; }
    10.5%, 83.7% { stroke-dashoffset: 0; }
    83.8%, 100% { stroke-dashoffset: 3339; }
}
svg.acjk #stroke-p2 { animation-name: zk2; }
/* Stroke 3: Starts at 10.5%, finishes at 15.7%, holds until 83.7% */
@keyframes zk3 {
    0%, 10.5% { stroke-dashoffset: 3339; }
    15.7%, 83.7% { stroke-dashoffset: 0; }
    83.8%, 100% { stroke-dashoffset: 3339; }
}
svg.acjk #stroke-p3 { animation-name: zk3; }
/* Stroke 4: Starts at 15.7%, finishes at 20.9%, holds until 83.7% */
@keyframes zk4 {
    0%, 15.7% { stroke-dashoffset: 3339; }
    20.9%, 83.7% { stroke-dashoffset: 0; }
    83.8%, 100% { stroke-dashoffset: 3339; }
}
svg.acjk #stroke-p4 { animation-name: zk4; }
/* Stroke 5: Starts at 20.9%, finishes at 26.1%, holds until 83.7% */
@keyframes zk5 {
    0%, 20.9% { stroke-dashoffset: 3339; }
    26.1%, 83.7% { stroke-dashoffset: 0; }
    83.8%, 100% { stroke-dashoffset: 3339; }
}
svg.acjk #stroke-p5 { animation-name: zk5; }
/* Stroke 6: Starts at 26.1%, finishes at 31.4%, holds until 83.7% */
@keyframes zk6 {
    0%, 26.1% { stroke-dashoffset: 3339; }
    31.4%, 83.7% { stroke-dashoffset: 0; }
    83.8%, 100% { stroke-dashoffset: 3339; }
}
svg.acjk #stroke-p6 { animation-name: zk6; }
/* Stroke 7: Starts at 31.4%, finishes at 36.6%, holds until 83.7% */
@keyframes zk7 {
    0%, 31.4% { stroke-dashoffset: 3339; }
    36.6%, 83.7% { stroke-dashoffset: 0; }
    83.8%, 100% { stroke-dashoffset: 3339; }
}
svg.acjk #stroke-p7 { animation-name: zk7; }
/* Stroke 8: Starts at 36.6%, finishes at 41.8%, holds until 83.7% */
@keyframes zk8 {
    0%, 36.6% { stroke-dashoffset: 3339; }
    41.8%, 83.7% { stroke-dashoffset: 0; }
    83.8%, 100% { stroke-dashoffset: 3339; }
}
svg.acjk #stroke-p8 { animation-name: zk8; }
/* Stroke 9: Starts at 41.8%, finishes at 47.1%, holds until 83.7% */
@keyframes zk9 {
    0%, 41.8% { stroke-dashoffset: 3339; }
    47.1%, 83.7% { stroke-dashoffset: 0; }
    83.8%, 100% { stroke-dashoffset: 3339; }
}
svg.acjk #stroke-p9 { animation-name: zk9; }
/* Stroke 10: Starts at 47.1%, finishes at 52.3%, holds until 83.7% */
@keyframes zk10 {
    0%, 47.1% { stroke-dashoffset: 3339; }
    52.3%, 83.7% { stroke-dashoffset: 0; }
    83.8%, 100% { stroke-dashoffset: 3339; }
}
svg.acjk #stroke-p10 { animation-name: zk10; }
/* Stroke 11: Starts at 52.3%, finishes at 57.5%, holds until 83.7% */
@keyframes zk11 {
    0%, 52.3% { stroke-dashoffset: 3339; }
    57.5%, 83.7% { stroke-dashoffset: 0; }
    83.8%, 100% { stroke-dashoffset: 3339; }
}
svg.acjk #stroke-p11 { animation-name: zk11; }
/* Stroke 12: Starts at 57.5%, finishes at 62.7%, holds until 83.7% */
@keyframes zk12 {
    0%, 57.5% { stroke-dashoffset: 3339; }
    62.7%, 83.7% { stroke-dashoffset: 0; }
    83.8%, 100% { stroke-dashoffset: 3339; }
}
svg.acjk #stroke-p12 { animation-name: zk12; }
/* Stroke 13: Starts at 62.7%, finishes at 68.0%, holds until 83.7% */
@keyframes zk13 {
    0%, 62.7% { stroke-dashoffset: 3339; }
    68.0%, 83.7% { stroke-dashoffset: 0; }
    83.8%, 100% { stroke-dashoffset: 3339; }
}
svg.acjk #stroke-p13 { animation-name: zk13; }
/* Stroke 14: Starts at 68.0%, finishes at 73.2%, holds until 83.7% */
@keyframes zk14 {
    0%, 68.0% { stroke-dashoffset: 3339; }
    73.2%, 83.7% { stroke-dashoffset: 0; }
    83.8%, 100% { stroke-dashoffset: 3339; }
}
svg.acjk #stroke-p14 { animation-name: zk14; }
/* Stroke 15: Starts at 73.2%, finishes at 78.4%, holds until 83.7% */
@keyframes zk15 {
    0%, 73.2% { stroke-dashoffset: 3339; }
    78.4%, 83.7% { stroke-dashoffset: 0; }
    83.8%, 100% { stroke-dashoffset: 3339; }
}
svg.acjk #stroke-p15 { animation-name: zk15; }
/* Stroke 16: Starts at 78.4%, finishes at 83.7%, holds until 83.7% */
@keyframes zk16 {
    0%, 78.4% { stroke-dashoffset: 3339; }
    83.7%, 83.7% { stroke-dashoffset: 0; }
    83.8%, 100% { stroke-dashoffset: 3339; }
}
svg.acjk #stroke-p16 { animation-name: zk16; }
]]>
</style>
<defs>
    <path id="p1" d="M 340 289 Q 449 253 453 251 Q 460 244 456 235 Q 449 225 419 219 Q 382 216 343 238 C 314 249 314 249 300 254 Q 287 257 276 262 Q 225 277 166 287 Q 132 296 158 310 Q 203 328 256 312 Q 275 305 300 300 C 327 293 327 293 340 289 Z"/>
    <path id="p2" d="M 337 411 Q 365 402 398 395 Q 428 386 432 382 Q 439 375 435 367 Q 428 357 401 351 Q 383 348 338 363 C 313 372 313 372 300 377 Q 191 401 186 402 Q 153 409 178 423 Q 212 439 277 425 Q 286 422 298 421 C 324 414 324 414 337 411 Z"/>
    <path id="p3" d="M 334 532 Q 365 522 408 513 Q 423 509 423 502 Q 423 489 405 483 Q 375 473 335 489 C 308 498 308 498 295 502 Q 145 547 93 555 Q 81 556 79 565 Q 78 575 92 584 Q 128 605 184 584 Q 232 563 270 552 C 313 539 313 539 334 532 Z"/>
    <path id="p4" d="M 333 590 Q 333 562 334 532 C 335 503 335 503 335 489 Q 335 452 337 411 C 338 379 338 379 338 363 Q 338 327 340 289 C 342 255 342 255 343 238 Q 347 178 361 134 Q 370 119 367 106 Q 360 96 306 63 Q 284 47 263 61 Q 259 65 264 81 Q 300 133 300 186 Q 300 219 300 254 C 300 285 300 285 300 300 Q 300 337 300 377 C 299 406 299 406 298 421 Q 297 460 295 502 C 293 570 293 570 292 604 Q 286 754 263 831 Q 251 867 276 930 Q 283 948 290 951 Q 297 958 304 949 Q 331 933 331 870 Q 330 833 332 621 C 333 600 333 600 333 590 Z"/>
    <path id="p5" d="M 270 552 Q 212 663 60 832 Q 54 841 64 842 Q 70 843 79 836 Q 208 746 292 604 C 320 558 294 504 270 552 Z"/>
    <path id="p6" d="M 332 621 Q 386 687 410 690 Q 423 691 429 675 Q 430 663 423 644 Q 413 625 388 614 Q 352 595 333 590 C 323 587 326 613 332 621 Z"/>
    <path id="p7" d="M 619 123 Q 644 142 670 167 Q 683 179 698 177 Q 708 176 713 164 Q 717 149 707 121 Q 701 103 673 92 Q 604 71 592 77 Q 588 81 589 93 Q 593 103 619 123 Z"/>
    <path id="p8" d="M 750 241 Q 762 237 777 234 Q 814 224 820 218 Q 827 211 823 203 Q 816 193 789 187 Q 764 183 670 217 Q 574 241 535 246 Q 501 253 526 267 Q 568 288 616 273 Q 667 260 720 248 C 740 243 740 243 750 241 Z"/>
    <path id="p9" d="M 554 332 Q 578 374 598 387 Q 608 391 616 383 Q 623 374 623 362 Q 622 344 610 333 Q 579 302 554 302 Q 551 301 550 302 Q 546 302 545 312 Q 545 319 554 332 Z"/>
    <path id="p10" d="M 719 381 Q 738 354 760 320 Q 767 308 779 293 Q 792 283 785 274 Q 778 259 752 242 Q 751 241 750 241 C 741 236 715 239 720 248 Q 721 249 722 251 Q 731 278 697 366 Q 691 378 689 388 C 687 398 713 389 719 381 Z"/>
    <path id="p11" d="M 507 427 Q 494 400 476 390 Q 473 386 467 390 Q 463 393 462 404 Q 468 428 440 495 Q 431 511 433 528 Q 436 546 445 559 Q 452 569 457 561 Q 469 558 483 514 Q 496 472 503 457 C 507 448 512 436 507 427 Z"/>
    <path id="p12" d="M 503 457 Q 525 466 571 451 Q 718 400 814 392 Q 818 391 823 392 Q 839 401 838 408 Q 825 450 811 493 C 812 494 812 494 813 495 Q 820 499 834 487 Q 880 450 922 435 Q 955 422 954 413 Q 953 404 885 361 Q 866 348 844 353 Q 795 363 734 378 Q 727 379 719 381 C 699 386 699 386 689 388 Q 638 395 573 413 Q 539 420 507 427 C 497 429 494 453 503 457 Z"/>
    <path id="p13" d="M 622 502 Q 665 545 680 547 Q 689 546 693 535 Q 697 523 690 499 Q 684 478 618 462 Q 605 459 600 461 Q 596 465 597 475 Q 600 485 622 502 Z"/>
    <path id="p14" d="M 668 606 Q 713 596 897 579 Q 913 578 917 570 Q 921 560 906 548 Q 855 517 802 536 Q 657 572 469 612 Q 451 616 466 629 Q 479 639 494 643 Q 513 647 526 641 Q 572 625 625 614 C 654 609 654 609 668 606 Z"/>
    <path id="p15" d="M 663 684 Q 675 691 715 699 Q 757 705 750 752 Q 749 758 747 766 Q 731 827 706 863 Q 694 875 673 873 Q 663 870 637 859 Q 603 844 598 850 Q 594 859 610 870 Q 650 901 663 940 Q 667 956 679 961 Q 692 967 723 946 Q 769 907 793 807 Q 805 756 822 744 Q 832 740 835 731 Q 836 722 814 698 Q 784 668 731 668 Q 707 665 683 657 C 673 653 653 679 663 684 Z"/>
    <path id="p16" d="M 683 657 Q 695 639 696 636 Q 693 618 668 606 C 654 601 625 599 625 614 Q 629 678 525 796 Q 521 799 516 805 Q 483 839 401 906 Q 394 910 403 913 Q 475 900 572 799 Q 599 771 663 684 C 676 666 676 666 683 657 Z"/>

    <clipPath id="z32810c1"><use href="#p1"/></clipPath>
    <clipPath id="z32810c2"><use href="#p2"/></clipPath>
    <clipPath id="z32810c3"><use href="#p3"/></clipPath>
    <clipPath id="z32810c4"><use href="#p4"/></clipPath>
    <clipPath id="z32810c5"><use href="#p5"/></clipPath>
    <clipPath id="z32810c6"><use href="#p6"/></clipPath>
    <clipPath id="z32810c7"><use href="#p7"/></clipPath>
    <clipPath id="z32810c8"><use href="#p8"/></clipPath>
    <clipPath id="z32810c9"><use href="#p9"/></clipPath>
    <clipPath id="z32810c10"><use href="#p10"/></clipPath>
    <clipPath id="z32810c11"><use href="#p11"/></clipPath>
    <clipPath id="z32810c12"><use href="#p12"/></clipPath>
    <clipPath id="z32810c13"><use href="#p13"/></clipPath>
    <clipPath id="z32810c14"><use href="#p14"/></clipPath>
    <clipPath id="z32810c15"><use href="#p15"/></clipPath>
    <clipPath id="z32810c16"><use href="#p16"/></clipPath>
</defs>
<g id="bg-layer" class="bg">
<use href="#p1"/>
<use href="#p2"/>
<use href="#p3"/>
<use href="#p4"/>
<use href="#p5"/>
<use href="#p6"/>
<use href="#p7"/>
<use href="#p8"/>
<use href="#p9"/>
<use href="#p10"/>
<use href="#p11"/>
<use href="#p12"/>
<use href="#p13"/>
<use href="#p14"/>
<use href="#p15"/>
<use href="#p16"/>
</g>
<g id="anim-layer">
    <path id="stroke-p1" style="stroke:#FF4444" pathLength="3333" clip-path="url(#z32810c1)" d="M 154 298 L 452 241"/>
    <path id="stroke-p2" style="stroke:#FF4444" pathLength="3333" clip-path="url(#z32810c2)" d="M 174 412 L 431 373"/>
    <path id="stroke-p3" style="stroke:#FF4444" pathLength="3333" clip-path="url(#z32810c3)" d="M 86 565 L 150 568 L 418 499"/>
    <path id="stroke-p4" style="stroke:#FF4444" pathLength="3333" clip-path="url(#z32810c4)" d="M 267 65 L 329 119 L 300 948"/>
    <path id="stroke-p5" style="stroke:#FF4444" pathLength="3333" clip-path="url(#z32810c5)" d="M 287 554 L 204 693 L 67 832"/>
    <path id="stroke-p6" style="stroke:#FF4444" pathLength="3333" clip-path="url(#z32810c6)" d="M 339 602 L 424 677"/>
    <path id="stroke-p7" style="stroke:#000" pathLength="3333" clip-path="url(#z32810c7)" d="M 597 86 L 672 126 L 699 173"/>
    <path id="stroke-p8" style="stroke:#000" pathLength="3333" clip-path="url(#z32810c8)" d="M 525 256 L 820 207"/>
    <path id="stroke-p9" style="stroke:#000" pathLength="3333" clip-path="url(#z32810c9)" d="M 552 308 L 609 384"/>
    <path id="stroke-p10" style="stroke:#000" pathLength="3333" clip-path="url(#z32810c10)" d="M 728 250 L 754 284 L 697 382"/>
    <path id="stroke-p11" style="stroke:#000" pathLength="3333" clip-path="url(#z32810c11)" d="M 472 394 L 483 432 L 452 559"/>
    <path id="stroke-p12" style="stroke:#000" pathLength="3333" clip-path="url(#z32810c12)" d="M 509 452 L 836 374 L 899 425 L 818 491"/>
    <path id="stroke-p13" style="stroke:#000" pathLength="3333" clip-path="url(#z32810c13)" d="M 605 470 L 684 539"/>
    <path id="stroke-p14" style="stroke:#000" pathLength="3333" clip-path="url(#z32810c14)" d="M 467 620 L 815 559 L 913 567"/>
    <path id="stroke-p15" style="stroke:#000" pathLength="3333" clip-path="url(#z32810c15)" d="M 672 682 L 751 690 L 793 735 L 706 909 L 673 915 L 606 855"/>
    <path id="stroke-p16" style="stroke:#000" pathLength="3333" clip-path="url(#z32810c16)" d="M 632 622 L 654 652 L 579 762 L 406 906"/>
</g>
</svg>