<svg id="z32920" class="acjk" viewBox="0 0 1024 1024" xmlns="http://www.w3.org/2000/svg">
<style>
<![CDATA[
svg.acjk path[clip-path] {
    animation-duration: 8.100000000000001s;
    animation-timing-function: linear;
    animation-iteration-count: infinite;
    stroke-dasharray: 3337;
    stroke-dashoffset: 3339;
    stroke-width: 128;
    stroke-linecap: round;
    fill: none;
    stroke: #FF4444;
}
svg.acjk .bg { fill: #ccc; opacity: 0.5; }

/* Stroke 1: Starts at 0.0%, finishes at 9.9%, holds until 69.1% */
@keyframes zk1 {
    0%, 0.0% { stroke-dashoffset: 3339; }
    9.9%, 69.1% { stroke-dashoffset: 0; }
    69.2%, 100% { stroke-dashoffset: 3339; }
}
svg.acjk #stroke-p1 { animation-name: zk1; }
/* Stroke 2: Starts at 9.9%, finishes at 19.8%, holds until 69.1% */
@keyframes zk2 {
    0%, 9.9% { stroke-dashoffset: 3339; }
    19.8%, 69.1% { stroke-dashoffset: 0; }
    69.2%, 100% { stroke-dashoffset: 3339; }
}
svg.acjk #stroke-p2 { animation-name: zk2; }
/* Stroke 3: Starts at 19.8%, finishes at 29.6%, holds until 69.1% */
@keyframes zk3 {
    0%, 19.8% { stroke-dashoffset: 3339; }
    29.6%, 69.1% { stroke-dashoffset: 0; }
    69.2%, 100% { stroke-dashoffset: 3339; }
}
svg.acjk #stroke-p3 { animation-name: zk3; }
/* Stroke 4: Starts at 29.6%, finishes at 39.5%, holds until 69.1% */
@keyframes zk4 {
    0%, 29.6% { stroke-dashoffset: 3339; }
    39.5%, 69.1% { stroke-dashoffset: 0; }
    69.2%, 100% { stroke-dashoffset: 3339; }
}
svg.acjk #stroke-p4 { animation-name: zk4; }
/* Stroke 5: Starts at 39.5%, finishes at 49.4%, holds until 69.1% */
@keyframes zk5 {
    0%, 39.5% { stroke-dashoffset: 3339; }
    49.4%, 69.1% { stroke-dashoffset: 0; }
    69.2%, 100% { stroke-dashoffset: 3339; }
}
svg.acjk #stroke-p5 { animation-name: zk5; }
/* Stroke 6: Starts at 49.4%, finishes at 59.3%, holds until 69.1% */
@keyframes zk6 {
    0%, 49.4% { stroke-dashoffset: 3339; }
    59.3%, 69.1% { stroke-dashoffset: 0; }
    69.2%, 100% { stroke-dashoffset: 3339; }
}
svg.acjk #stroke-p6 { animation-name: zk6; }
/* Stroke 7: Starts at 59.3%, finishes at 69.1%, holds until 69.1% */
@keyframes zk7 {
    0%, 59.3% { stroke-dashoffset: 3339; }
    69.1%, 69.1% { stroke-dashoffset: 0; }
    69.2%, 100% { stroke-dashoffset: 3339; }
}
svg.acjk #stroke-p7 { animation-name: zk7; }
]]>
</style>
<defs>
    <path id="p1" d="M 210 503 Q 216 481 223 381 C 224 360 224 360 225 349 Q 226 330 226 310 Q 229 217 232 204 Q 233 201 233 200 C 235 189 227 177 218 170 Q 205 160 185 154 Q 166 145 155 151 Q 145 158 152 171 Q 170 193 176 259 Q 176 475 150 582 Q 149 585 148 590 Q 115 707 48 827 Q 44 834 43 839 Q 42 849 51 846 Q 67 843 98 793 Q 167 703 204 535 C 208 514 208 514 210 503 Z"/>
    <path id="p2" d="M 303 181 Q 322 177 328 187 Q 335 206 338 237 Q 350 532 338 712 Q 337 737 329 749 Q 325 752 258 741 Q 239 735 241 745 Q 292 788 321 822 Q 334 840 349 844 Q 358 848 366 838 Q 403 789 402 740 Q 380 356 390 237 Q 393 212 401 197 Q 413 179 401 169 Q 380 151 346 137 Q 328 130 313 137 Q 285 153 268 158 Q 249 164 218 170 C 207 172 222 202 233 200 C 280 187 280 187 303 181 Z"/>
    <path id="p3" d="M 223 381 Q 266 371 302 366 Q 321 362 313 351 Q 303 338 280 336 Q 259 335 225 349 C 215 353 213 383 223 381 Z"/>
    <path id="p4" d="M 204 535 Q 261 526 301 520 Q 323 516 313 503 Q 303 490 278 487 Q 262 486 210 503 C 200 507 193 537 204 535 Z"/>
    <path id="p5" d="M 733 398 Q 796 391 878 391 Q 932 394 940 382 Q 944 372 929 358 Q 871 318 816 336 Q 780 342 733 353 C 699 360 699 360 682 363 Q 669 364 655 367 Q 552 383 428 402 Q 407 405 423 421 Q 436 434 454 439 Q 475 443 490 439 Q 590 409 682 403 C 716 400 716 400 733 398 Z"/>
    <path id="p6" d="M 682 403 Q 683 542 686 768 Q 686 792 674 801 Q 668 805 594 793 Q 560 781 563 792 Q 564 799 586 814 Q 653 865 670 894 Q 691 928 707 929 Q 722 930 736 894 Q 754 846 750 770 Q 734 584 733 398 C 733 368 733 368 733 353 Q 733 205 749 140 Q 765 109 708 86 Q 672 68 653 76 Q 634 83 652 106 Q 674 134 677 169 Q 678 188 682 363 C 682 390 682 390 682 403 Z"/>
    <path id="p7" d="M 493 569 Q 515 597 540 630 Q 550 643 565 645 Q 575 646 581 635 Q 588 622 584 594 Q 583 575 555 555 Q 491 518 476 521 Q 472 524 471 536 Q 472 546 493 569 Z"/>

    <clipPath id="z32920c1"><use href="#p1"/></clipPath>
    <clipPath id="z32920c2"><use href="#p2"/></clipPath>
    <clipPath id="z32920c3"><use href="#p3"/></clipPath>
    <clipPath id="z32920c4"><use href="#p4"/></clipPath>
    <clipPath id="z32920c5"><use href="#p5"/></clipPath>
    <clipPath id="z32920c6"><use href="#p6"/></clipPath>
    <clipPath id="z32920c7"><use href="#p7"/></clipPath>
</defs>
<g id="bg-layer" class="bg">
<use href="#p1"/>
<use href="#p2"/>
<use href="#p3"/>
<use href="#p4"/>
<use href="#p5"/>
<use href="#p6"/>
<use href="#p7"/>
</g>
<g id="anim-layer">
    <path id="stroke-p1" style="stroke:#FF4444" pathLength="3333" clip-path="url(#z32920c1)" d="M 155 154 L 201 210 L 186 510 L 121 722 L 49 840"/>
    <path id="stroke-p2" style="stroke:#FF4444" pathLength="3333" clip-path="url(#z32920c2)" d="M 225 172 L 322 157 L 369 189 L 366 753 L 343 797 L 252 746"/>
    <path id="stroke-p3" style="stroke:#FF4444" pathLength="3333" clip-path="url(#z32920c3)" d="M 230 373 L 308 359"/>
    <path id="stroke-p4" style="stroke:#FF4444" pathLength="3333" clip-path="url(#z32920c4)" d="M 210 527 L 309 508"/>
    <path id="stroke-p5" style="stroke:#000" pathLength="3333" clip-path="url(#z32920c5)" d="M 426 414 L 840 361 L 936 374"/>
    <path id="stroke-p6" style="stroke:#000" pathLength="3333" clip-path="url(#z32920c6)" d="M 650 81 L 712 135 L 717 795 L 694 877 L 572 796"/>
    <path id="stroke-p7" style="stroke:#000" pathLength="3333" clip-path="url(#z32920c7)" d="M 480 527 L 573 639"/>
</g>
</svg>