<svg id="z32999" class="acjk" viewBox="0 0 1024 1024" xmlns="http://www.w3.org/2000/svg">
<style>
<![CDATA[
svg.acjk path[clip-path] {
    animation-duration: 9.7s;
    animation-timing-function: linear;
    animation-iteration-count: infinite;
    stroke-dasharray: 3337;
    stroke-dashoffset: 3339;
    stroke-width: 128;
    stroke-linecap: round;
    fill: none;
    stroke: #FF4444;
}
svg.acjk .bg { fill: #ccc; opacity: 0.5; }

/* Stroke 1: Starts at 0.0%, finishes at 8.2%, holds until 74.2% */
@keyframes zk1 {
    0%, 0.0% { stroke-dashoffset: 3339; }
    8.2%, 74.2% { stroke-dashoffset: 0; }
    74.3%, 100% { stroke-dashoffset: 3339; }
}
svg.acjk #stroke-p1 { animation-name: zk1; }
/* Stroke 2: Starts at 8.2%, finishes at 16.5%, holds until 74.2% */
@keyframes zk2 {
    0%, 8.2% { stroke-dashoffset: 3339; }
    16.5%, 74.2% { stroke-dashoffset: 0; }
    74.3%, 100% { stroke-dashoffset: 3339; }
}
svg.acjk #stroke-p2 { animation-name: zk2; }
/* Stroke 3: Starts at 16.5%, finishes at 24.7%, holds until 74.2% */
@keyframes zk3 {
    0%, 16.5% { stroke-dashoffset: 3339; }
    24.7%, 74.2% { stroke-dashoffset: 0; }
    74.3%, 100% { stroke-dashoffset: 3339; }
}
svg.acjk #stroke-p3 { animation-name: zk3; }
/* Stroke 4: Starts at 24.7%, finishes at 33.0%, holds until 74.2% */
@keyframes zk4 {
    0%, 24.7% { stroke-dashoffset: 3339; }
    33.0%, 74.2% { stroke-dashoffset: 0; }
    74.3%, 100% { stroke-dashoffset: 3339; }
}
svg.acjk #stroke-p4 { animation-name: zk4; }
/* Stroke 5: Starts at 33.0%, finishes at 41.2%, holds until 74.2% */
@keyframes zk5 {
    0%, 33.0% { stroke-dashoffset: 3339; }
    41.2%, 74.2% { stroke-dashoffset: 0; }
    74.3%, 100% { stroke-dashoffset: 3339; }
}
svg.acjk #stroke-p5 { animation-name: zk5; }
/* Stroke 6: Starts at 41.2%, finishes at 49.5%, holds until 74.2% */
@keyframes zk6 {
    0%, 41.2% { stroke-dashoffset: 3339; }
    49.5%, 74.2% { stroke-dashoffset: 0; }
    74.3%, 100% { stroke-dashoffset: 3339; }
}
svg.acjk #stroke-p6 { animation-name: zk6; }
/* Stroke 7: Starts at 49.5%, finishes at 57.7%, holds until 74.2% */
@keyframes zk7 {
    0%, 49.5% { stroke-dashoffset: 3339; }
    57.7%, 74.2% { stroke-dashoffset: 0; }
    74.3%, 100% { stroke-dashoffset: 3339; }
}
svg.acjk #stroke-p7 { animation-name: zk7; }
/* Stroke 8: Starts at 57.7%, finishes at 66.0%, holds until 74.2% */
@keyframes zk8 {
    0%, 57.7% { stroke-dashoffset: 3339; }
    66.0%, 74.2% { stroke-dashoffset: 0; }
    74.3%, 100% { stroke-dashoffset: 3339; }
}
svg.acjk #stroke-p8 { animation-name: zk8; }
/* Stroke 9: Starts at 66.0%, finishes at 74.2%, holds until 74.2% */
@keyframes zk9 {
    0%, 66.0% { stroke-dashoffset: 3339; }
    74.2%, 74.2% { stroke-dashoffset: 0; }
    74.3%, 100% { stroke-dashoffset: 3339; }
}
svg.acjk #stroke-p9 { animation-name: zk9; }
]]>
</style>
<defs>
    <path id="p1" d="M 224 181 C 213 174 199 169 184 163 C 171 157 160 156 153 161 C 146 165 144 173 151 181 C 164 197 174 226 177 269 C 177 277 178 285 179 296 C 186 402 180 500 161 591 C 145 665 114 743 71 826 C 68 830 66 835 66 839 C 65 845 68 848 75 846 C 93 840 125 796 166 714 C 175 694 183 673 190 652 C 201 615 211 576 218 535 C 222 509 222 509 224 496 C 229 459 232 422 232 386 C 232 361 232 361 232 348 C 232 272 233 226 235 210 C 237 200 232 187 224 181 Z"/>
    <path id="p2" d="M 402 763 C 402 749 400 736 400 722 C 394 592 392 436 392 254 C 392 231 395 213 403 202 C 410 189 411 180 403 174 C 389 163 370 153 348 143 C 335 137 316 145 286 161 C 265 171 243 175 224 181 C 214 184 225 212 235 210 C 245 208 270 201 308 188 C 320 183 328 184 331 191 C 341 216 347 326 346 518 C 345 672 338 757 328 772 C 325 776 317 775 303 773 C 284 769 265 767 247 764 C 234 761 224 765 229 769 C 266 800 301 821 323 844 C 333 854 341 863 351 866 C 357 867 363 866 368 860 C 392 828 402 797 402 767 C 402 764 402 764 402 763 Z"/>
    <path id="p3" d="M 232 386 C 258 381 282 379 304 375 C 321 371 325 364 318 356 C 309 346 296 340 278 339 C 265 338 250 341 232 348 C 220 353 220 388 232 386 Z"/>
    <path id="p4" d="M 218 535 C 250 529 279 526 303 523 C 320 520 324 512 318 504 C 309 493 296 488 278 487 C 263 486 245 489 224 496 C 212 501 205 538 218 535 Z"/>
    <path id="p5" d="M 545 358 C 527 362 494 364 447 375 C 428 379 426 386 441 396 C 474 418 502 410 540 402 C 575 394 575 394 592 390 C 618 383 679 367 776 351 C 782 349 790 348 794 338 C 796 330 786 325 772 318 C 750 307 720 308 677 322 C 629 336 617 340 598 345 C 563 354 563 354 545 358 Z"/>
    <path id="p6" d="M 598 345 C 614 221 613 155 616 149 C 620 138 621 129 616 122 C 606 110 588 103 568 94 C 554 88 544 84 536 89 C 527 93 526 101 532 110 C 555 145 559 227 545 358 C 542 387 542 387 540 402 C 525 526 476 641 409 749 C 406 753 404 758 403 762 C 402 762 402 762 402 763 C 402 764 401 766 402 767 C 402 769 405 770 411 770 C 419 768 435 749 462 718 C 525 641 572 533 592 390 C 596 360 596 360 598 345 Z"/>
    <path id="p7" d="M 610 718 C 610 782 623 822 647 841 C 676 864 743 875 851 873 C 899 871 933 866 953 856 C 971 845 977 830 970 811 C 958 780 948 737 942 682 C 940 671 938 664 933 662 C 928 659 924 664 922 677 C 911 743 903 783 893 796 C 879 812 836 823 768 825 C 731 825 704 821 689 815 C 674 809 667 800 664 791 C 656 770 648 735 651 687 C 653 652 653 652 654 634 C 656 591 665 558 675 535 C 683 516 681 500 669 490 C 637 464 615 453 606 457 C 595 460 593 468 599 479 C 611 503 615 532 613 568 C 610 608 610 644 610 676 C 610 690 610 718 610 718 Z"/>
    <path id="p8" d="M 610 676 C 562 721 535 740 534 743 C 530 749 532 752 541 752 C 547 752 573 745 610 718 C 637 697 637 697 651 687 C 678 666 732 621 771 580 C 788 561 803 547 817 539 C 823 534 826 527 825 519 C 824 511 817 498 803 483 C 790 468 778 460 767 459 C 756 457 751 464 754 478 C 759 506 716 574 654 634 C 625 662 625 662 610 676 Z"/>
    <path id="p9" d="M 721 201 C 741 217 763 235 787 255 C 797 263 807 267 818 266 C 824 265 830 260 833 252 C 836 241 833 226 826 207 C 817 184 780 166 714 153 C 703 150 695 150 692 153 C 688 155 687 161 689 170 C 690 177 702 186 721 201 Z"/>

    <clipPath id="z32999c1"><use href="#p1"/></clipPath>
    <clipPath id="z32999c2"><use href="#p2"/></clipPath>
    <clipPath id="z32999c3"><use href="#p3"/></clipPath>
    <clipPath id="z32999c4"><use href="#p4"/></clipPath>
    <clipPath id="z32999c5"><use href="#p5"/></clipPath>
    <clipPath id="z32999c6"><use href="#p6"/></clipPath>
    <clipPath id="z32999c7"><use href="#p7"/></clipPath>
    <clipPath id="z32999c8"><use href="#p8"/></clipPath>
    <clipPath id="z32999c9"><use href="#p9"/></clipPath>
</defs>
<g id="bg-layer" class="bg">
<use href="#p1"/>
<use href="#p2"/>
<use href="#p3"/>
<use href="#p4"/>
<use href="#p5"/>
<use href="#p6"/>
<use href="#p7"/>
<use href="#p8"/>
<use href="#p9"/>
</g>
<g id="anim-layer">
    <path id="stroke-p1" style="stroke:#FF4444" pathLength="3333" clip-path="url(#z32999c1)" d="M 154 165 L 202 216 L 199 502 L 163 664 L 72 839"/>
    <path id="stroke-p2" style="stroke:#FF4444" pathLength="3333" clip-path="url(#z32999c2)" d="M 230 183 L 334 164 L 371 195 L 366 774 L 334 820 L 237 771"/>
    <path id="stroke-p3" style="stroke:#FF4444" pathLength="3333" clip-path="url(#z32999c3)" d="M 239 377 L 314 362"/>
    <path id="stroke-p4" style="stroke:#FF4444" pathLength="3333" clip-path="url(#z32999c4)" d="M 223 527 L 314 513"/>
    <path id="stroke-p5" style="stroke:#000" pathLength="3333" clip-path="url(#z32999c5)" d="M 438 383 L 787 335"/>
    <path id="stroke-p6" style="stroke:#000" pathLength="3333" clip-path="url(#z32999c6)" d="M 539 98 L 583 142 L 557 444 L 494 633 L 412 761"/>
    <path id="stroke-p7" style="stroke:#000" pathLength="3333" clip-path="url(#z32999c7)" d="M 604 461 L 646 517 L 634 764 L 674 832 L 817 848 L 914 830 L 935 809 L 932 670"/>
    <path id="stroke-p8" style="stroke:#000" pathLength="3333" clip-path="url(#z32999c8)" d="M 762 469 L 782 527 L 656 659 L 539 745"/>
    <path id="stroke-p9" style="stroke:#000" pathLength="3333" clip-path="url(#z32999c9)" d="M 696 161 L 828 254"/>
</g>
</svg>