<svg id="z33004" class="acjk" viewBox="0 0 1024 1024" xmlns="http://www.w3.org/2000/svg">
<style>
<![CDATA[
svg.acjk path[clip-path] {
    animation-duration: 11.3s;
    animation-timing-function: linear;
    animation-iteration-count: infinite;
    stroke-dasharray: 3337;
    stroke-dashoffset: 3339;
    stroke-width: 128;
    stroke-linecap: round;
    fill: none;
    stroke: #FF4444;
}
svg.acjk .bg { fill: #ccc; opacity: 0.5; }

/* Stroke 1: Starts at 0.0%, finishes at 7.1%, holds until 77.9% */
@keyframes zk1 {
    0%, 0.0% { stroke-dashoffset: 3339; }
    7.1%, 77.9% { stroke-dashoffset: 0; }
    78.0%, 100% { stroke-dashoffset: 3339; }
}
svg.acjk #stroke-p1 { animation-name: zk1; }
/* Stroke 2: Starts at 7.1%, finishes at 14.2%, holds until 77.9% */
@keyframes zk2 {
    0%, 7.1% { stroke-dashoffset: 3339; }
    14.2%, 77.9% { stroke-dashoffset: 0; }
    78.0%, 100% { stroke-dashoffset: 3339; }
}
svg.acjk #stroke-p2 { animation-name: zk2; }
/* Stroke 3: Starts at 14.2%, finishes at 21.2%, holds until 77.9% */
@keyframes zk3 {
    0%, 14.2% { stroke-dashoffset: 3339; }
    21.2%, 77.9% { stroke-dashoffset: 0; }
    78.0%, 100% { stroke-dashoffset: 3339; }
}
svg.acjk #stroke-p3 { animation-name: zk3; }
/* Stroke 4: Starts at 21.2%, finishes at 28.3%, holds until 77.9% */
@keyframes zk4 {
    0%, 21.2% { stroke-dashoffset: 3339; }
    28.3%, 77.9% { stroke-dashoffset: 0; }
    78.0%, 100% { stroke-dashoffset: 3339; }
}
svg.acjk #stroke-p4 { animation-name: zk4; }
/* Stroke 5: Starts at 28.3%, finishes at 35.4%, holds until 77.9% */
@keyframes zk5 {
    0%, 28.3% { stroke-dashoffset: 3339; }
    35.4%, 77.9% { stroke-dashoffset: 0; }
    78.0%, 100% { stroke-dashoffset: 3339; }
}
svg.acjk #stroke-p5 { animation-name: zk5; }
/* Stroke 6: Starts at 35.4%, finishes at 42.5%, holds until 77.9% */
@keyframes zk6 {
    0%, 35.4% { stroke-dashoffset: 3339; }
    42.5%, 77.9% { stroke-dashoffset: 0; }
    78.0%, 100% { stroke-dashoffset: 3339; }
}
svg.acjk #stroke-p6 { animation-name: zk6; }
/* Stroke 7: Starts at 42.5%, finishes at 49.6%, holds until 77.9% */
@keyframes zk7 {
    0%, 42.5% { stroke-dashoffset: 3339; }
    49.6%, 77.9% { stroke-dashoffset: 0; }
    78.0%, 100% { stroke-dashoffset: 3339; }
}
svg.acjk #stroke-p7 { animation-name: zk7; }
/* Stroke 8: Starts at 49.6%, finishes at 56.6%, holds until 77.9% */
@keyframes zk8 {
    0%, 49.6% { stroke-dashoffset: 3339; }
    56.6%, 77.9% { stroke-dashoffset: 0; }
    78.0%, 100% { stroke-dashoffset: 3339; }
}
svg.acjk #stroke-p8 { animation-name: zk8; }
/* Stroke 9: Starts at 56.6%, finishes at 63.7%, holds until 77.9% */
@keyframes zk9 {
    0%, 56.6% { stroke-dashoffset: 3339; }
    63.7%, 77.9% { stroke-dashoffset: 0; }
    78.0%, 100% { stroke-dashoffset: 3339; }
}
svg.acjk #stroke-p9 { animation-name: zk9; }
/* Stroke 10: Starts at 63.7%, finishes at 70.8%, holds until 77.9% */
@keyframes zk10 {
    0%, 63.7% { stroke-dashoffset: 3339; }
    70.8%, 77.9% { stroke-dashoffset: 0; }
    78.0%, 100% { stroke-dashoffset: 3339; }
}
svg.acjk #stroke-p10 { animation-name: zk10; }
/* Stroke 11: Starts at 70.8%, finishes at 77.9%, holds until 77.9% */
@keyframes zk11 {
    0%, 70.8% { stroke-dashoffset: 3339; }
    77.9%, 77.9% { stroke-dashoffset: 0; }
    78.0%, 100% { stroke-dashoffset: 3339; }
}
svg.acjk #stroke-p11 { animation-name: zk11; }
]]>
</style>
<defs>
    <path id="p1" d="M 356 221 Q 386 140 404 122 Q 417 104 412 93 Q 402 75 365 47 Q 349 34 333 40 Q 321 44 328 60 Q 346 96 306 229 C 297 257 297 257 292 271 Q 265 331 259 341 Q 252 363 271 378 Q 311 391 344 412 C 369 426 369 426 381 433 Q 405 446 433 467 Q 449 477 457 477 Q 464 476 468 465 Q 472 455 463 429 Q 450 401 415 391 C 386 382 386 382 371 378 Q 346 371 314 362 Q 299 358 298 345 Q 319 303 340 259 C 351 234 351 234 356 221 Z"/>
    <path id="p2" d="M 344 412 Q 284 469 199 507 Q 186 513 196 517 Q 208 520 239 514 Q 282 505 319 483 Q 358 461 381 433 C 404 405 404 405 415 391 Q 419 382 470 277 Q 479 253 494 233 Q 504 220 493 209 Q 456 172 436 175 Q 423 176 427 190 Q 428 199 430 209 C 432 218 430 228 427 237 Q 408 303 371 378 C 366 391 356 403 344 412 Z"/>
    <path id="p3" d="M 430 209 Q 394 213 356 221 C 323 226 323 226 306 229 Q 248 235 184 245 Q 165 249 132 243 Q 120 243 117 252 Q 113 262 121 272 Q 139 290 166 311 Q 175 315 187 309 Q 242 281 292 271 C 324 263 324 263 340 259 Q 380 247 424 237 Q 425 236 427 237 C 436 237 439 207 430 209 Z"/>
    <path id="p4" d="M 611 347 Q 554 398 498 424 Q 489 428 490 432 Q 491 436 498 436 Q 570 436 641 378 C 664 355 664 355 676 344 Q 727 277 747 237 Q 763 212 786 194 Q 801 187 801 178 Q 801 166 774 151 Q 740 129 727 129 Q 717 130 706 138 Q 603 171 552 177 Q 518 177 515 186 Q 514 189 520 193 Q 533 205 563 209 Q 600 210 669 183 Q 688 176 697 182 Q 698 183 697 197 Q 697 193 698 194 C 698 195 698 195 698 196 C 698 197 698 197 698 197 C 657 276 657 276 636 315 C 629 327 622 339 611 347 Z"/>
    <path id="p5" d="M 636 315 Q 612 296 588 274 Q 552 243 521 244 Q 505 245 502 250 Q 501 256 516 264 Q 549 282 611 347 C 631 368 631 368 641 378 Q 740 472 770 474 Q 834 474 909 457 Q 940 451 937 443 Q 937 440 787 397 Q 747 385 676 344 C 649 325 649 325 636 315 Z"/>
    <path id="p6" d="M 325 566 Q 306 550 283 543 Q 273 542 267 549 Q 263 555 271 566 Q 302 629 274 795 Q 256 852 261 872 Q 268 906 281 919 Q 291 934 302 919 Q 329 891 335 726 Q 338 600 354 600 C 366 591 337 575 325 566 Z"/>
    <path id="p7" d="M 514 572 Q 578 560 652 552 Q 674 548 685 561 Q 692 565 695 599 Q 704 711 699 840 Q 699 859 692 864 Q 676 877 592 865 Q 576 864 578 873 Q 579 880 593 884 Q 669 921 710 953 Q 731 971 742 968 Q 754 964 763 937 Q 778 889 761 713 Q 752 613 767 580 Q 779 561 769 549 Q 759 534 714 512 Q 695 502 677 507 Q 628 522 526 542 C 489 547 489 547 470 550 Q 397 559 325 566 C 310 569 339 603 354 600 Q 403 588 461 581 C 496 575 496 575 514 572 Z"/>
    <path id="p8" d="M 500 605 Q 507 589 514 572 C 522 552 522 552 526 542 Q 527 538 529 534 Q 536 518 540 510 Q 550 494 535 481 Q 501 450 487 450 Q 469 449 478 470 Q 484 488 470 550 C 464 571 464 571 461 581 Q 436 650 373 688 Q 358 695 354 700 Q 351 704 361 707 Q 382 713 430 689 Q 466 668 491 624 C 497 611 497 611 500 605 Z"/>
    <path id="p9" d="M 491 624 Q 537 652 592 696 Q 616 720 628 702 Q 635 692 621 661 Q 606 630 500 605 C 493 604 485 620 491 624 Z"/>
    <path id="p10" d="M 499 745 Q 514 727 529 713 Q 538 706 528 692 Q 500 664 481 663 Q 472 664 473 675 Q 473 738 391 810 Q 375 823 358 839 Q 351 849 362 848 Q 375 848 393 838 Q 448 807 485 763 C 494 751 494 751 499 745 Z"/>
    <path id="p11" d="M 485 763 Q 528 791 582 836 Q 595 848 606 849 Q 612 850 616 842 Q 623 832 611 803 Q 593 763 499 745 C 492 744 479 758 485 763 Z"/>

    <clipPath id="z33004c1"><use href="#p1"/></clipPath>
    <clipPath id="z33004c2"><use href="#p2"/></clipPath>
    <clipPath id="z33004c3"><use href="#p3"/></clipPath>
    <clipPath id="z33004c4"><use href="#p4"/></clipPath>
    <clipPath id="z33004c5"><use href="#p5"/></clipPath>
    <clipPath id="z33004c6"><use href="#p6"/></clipPath>
    <clipPath id="z33004c7"><use href="#p7"/></clipPath>
    <clipPath id="z33004c8"><use href="#p8"/></clipPath>
    <clipPath id="z33004c9"><use href="#p9"/></clipPath>
    <clipPath id="z33004c10"><use href="#p10"/></clipPath>
    <clipPath id="z33004c11"><use href="#p11"/></clipPath>
</defs>
<g id="bg-layer" class="bg">
<use href="#p1"/>
<use href="#p2"/>
<use href="#p3"/>
<use href="#p4"/>
<use href="#p5"/>
<use href="#p6"/>
<use href="#p7"/>
<use href="#p8"/>
<use href="#p9"/>
<use href="#p10"/>
<use href="#p11"/>
</g>
<g id="anim-layer">
    <path id="stroke-p1" style="stroke:#FF4444" pathLength="3333" clip-path="url(#z33004c1)" d="M 333 43 L 373 101 L 278 354 L 427 427 L 458 470"/>
    <path id="stroke-p2" style="stroke:#FF4444" pathLength="3333" clip-path="url(#z33004c2)" d="M 434 181 L 463 228 L 388 391 L 311 465 L 201 512"/>
    <path id="stroke-p3" style="stroke:#FF4444" pathLength="3333" clip-path="url(#z33004c3)" d="M 120 255 L 171 279 L 423 217"/>
    <path id="stroke-p4" style="stroke:#FF4444" pathLength="3333" clip-path="url(#z33004c4)" d="M 525 186 L 708 155 L 749 185 L 630 359 L 498 431"/>
    <path id="stroke-p5" style="stroke:#FF4444" pathLength="3333" clip-path="url(#z33004c5)" d="M 511 252 L 762 429 L 927 446"/>
    <path id="stroke-p6" style="stroke:#000" pathLength="3333" clip-path="url(#z33004c6)" d="M 272 551 L 318 607 L 292 920"/>
    <path id="stroke-p7" style="stroke:#000" pathLength="3333" clip-path="url(#z33004c7)" d="M 336 569 L 375 579 L 667 530 L 724 556 L 724 904 L 712 919 L 586 873"/>
    <path id="stroke-p8" style="stroke:#000" pathLength="3333" clip-path="url(#z33004c8)" d="M 483 458 L 511 501 L 469 617 L 411 681 L 360 698"/>
    <path id="stroke-p9" style="stroke:#000" pathLength="3333" clip-path="url(#z33004c9)" d="M 497 621 L 580 656 L 622 704"/>
    <path id="stroke-p10" style="stroke:#000" pathLength="3333" clip-path="url(#z33004c10)" d="M 482 668 L 500 705 L 481 734 L 360 841"/>
    <path id="stroke-p11" style="stroke:#000" pathLength="3333" clip-path="url(#z33004c11)" d="M 492 761 L 560 787 L 608 842"/>
</g>
</svg>