<svg id="z33073" class="acjk" viewBox="0 0 1024 1024" xmlns="http://www.w3.org/2000/svg">
<style>
<![CDATA[
svg.acjk path[clip-path] {
    animation-duration: 11.3s;
    animation-timing-function: linear;
    animation-iteration-count: infinite;
    stroke-dasharray: 3337;
    stroke-dashoffset: 3339;
    stroke-width: 128;
    stroke-linecap: round;
    fill: none;
    stroke: #FF4444;
}
svg.acjk .bg { fill: #ccc; opacity: 0.5; }

/* Stroke 1: Starts at 0.0%, finishes at 7.1%, holds until 77.9% */
@keyframes zk1 {
    0%, 0.0% { stroke-dashoffset: 3339; }
    7.1%, 77.9% { stroke-dashoffset: 0; }
    78.0%, 100% { stroke-dashoffset: 3339; }
}
svg.acjk #stroke-p1 { animation-name: zk1; }
/* Stroke 2: Starts at 7.1%, finishes at 14.2%, holds until 77.9% */
@keyframes zk2 {
    0%, 7.1% { stroke-dashoffset: 3339; }
    14.2%, 77.9% { stroke-dashoffset: 0; }
    78.0%, 100% { stroke-dashoffset: 3339; }
}
svg.acjk #stroke-p2 { animation-name: zk2; }
/* Stroke 3: Starts at 14.2%, finishes at 21.2%, holds until 77.9% */
@keyframes zk3 {
    0%, 14.2% { stroke-dashoffset: 3339; }
    21.2%, 77.9% { stroke-dashoffset: 0; }
    78.0%, 100% { stroke-dashoffset: 3339; }
}
svg.acjk #stroke-p3 { animation-name: zk3; }
/* Stroke 4: Starts at 21.2%, finishes at 28.3%, holds until 77.9% */
@keyframes zk4 {
    0%, 21.2% { stroke-dashoffset: 3339; }
    28.3%, 77.9% { stroke-dashoffset: 0; }
    78.0%, 100% { stroke-dashoffset: 3339; }
}
svg.acjk #stroke-p4 { animation-name: zk4; }
/* Stroke 5: Starts at 28.3%, finishes at 35.4%, holds until 77.9% */
@keyframes zk5 {
    0%, 28.3% { stroke-dashoffset: 3339; }
    35.4%, 77.9% { stroke-dashoffset: 0; }
    78.0%, 100% { stroke-dashoffset: 3339; }
}
svg.acjk #stroke-p5 { animation-name: zk5; }
/* Stroke 6: Starts at 35.4%, finishes at 42.5%, holds until 77.9% */
@keyframes zk6 {
    0%, 35.4% { stroke-dashoffset: 3339; }
    42.5%, 77.9% { stroke-dashoffset: 0; }
    78.0%, 100% { stroke-dashoffset: 3339; }
}
svg.acjk #stroke-p6 { animation-name: zk6; }
/* Stroke 7: Starts at 42.5%, finishes at 49.6%, holds until 77.9% */
@keyframes zk7 {
    0%, 42.5% { stroke-dashoffset: 3339; }
    49.6%, 77.9% { stroke-dashoffset: 0; }
    78.0%, 100% { stroke-dashoffset: 3339; }
}
svg.acjk #stroke-p7 { animation-name: zk7; }
/* Stroke 8: Starts at 49.6%, finishes at 56.6%, holds until 77.9% */
@keyframes zk8 {
    0%, 49.6% { stroke-dashoffset: 3339; }
    56.6%, 77.9% { stroke-dashoffset: 0; }
    78.0%, 100% { stroke-dashoffset: 3339; }
}
svg.acjk #stroke-p8 { animation-name: zk8; }
/* Stroke 9: Starts at 56.6%, finishes at 63.7%, holds until 77.9% */
@keyframes zk9 {
    0%, 56.6% { stroke-dashoffset: 3339; }
    63.7%, 77.9% { stroke-dashoffset: 0; }
    78.0%, 100% { stroke-dashoffset: 3339; }
}
svg.acjk #stroke-p9 { animation-name: zk9; }
/* Stroke 10: Starts at 63.7%, finishes at 70.8%, holds until 77.9% */
@keyframes zk10 {
    0%, 63.7% { stroke-dashoffset: 3339; }
    70.8%, 77.9% { stroke-dashoffset: 0; }
    78.0%, 100% { stroke-dashoffset: 3339; }
}
svg.acjk #stroke-p10 { animation-name: zk10; }
/* Stroke 11: Starts at 70.8%, finishes at 77.9%, holds until 77.9% */
@keyframes zk11 {
    0%, 70.8% { stroke-dashoffset: 3339; }
    77.9%, 77.9% { stroke-dashoffset: 0; }
    78.0%, 100% { stroke-dashoffset: 3339; }
}
svg.acjk #stroke-p11 { animation-name: zk11; }
]]>
</style>
<defs>
    <path id="p1" d="M 211 520 Q 223 429 226 397 C 227 374 227 374 228 363 Q 229 344 230 324 Q 230 252 236 221 C 238 210 233 197 224 191 Q 209 181 189 174 Q 170 165 159 171 Q 149 178 156 190 Q 177 214 177 254 Q 177 464 157 563 Q 154 575 151 587 Q 123 687 56 811 Q 52 818 51 823 Q 50 833 59 830 Q 74 827 105 779 Q 171 695 203 553 C 208 531 208 531 211 520 Z"/>
    <path id="p2" d="M 296 202 Q 314 198 319 207 Q 334 244 335 502 Q 335 712 322 731 Q 319 734 254 722 Q 235 715 236 724 Q 285 770 312 804 Q 325 823 339 827 Q 348 831 356 822 Q 395 777 394 724 Q 372 373 382 258 Q 383 231 392 218 Q 404 199 392 189 Q 371 173 337 158 Q 319 151 305 158 Q 272 177 224 191 C 214 195 226 224 236 221 C 276 208 276 208 296 202 Z"/>
    <path id="p3" d="M 226 397 Q 266 387 299 379 Q 318 372 310 362 Q 298 352 276 350 Q 257 350 228 363 C 217 367 215 399 226 397 Z"/>
    <path id="p4" d="M 203 553 Q 255 541 297 534 Q 318 530 309 519 Q 299 506 276 504 Q 248 501 211 520 C 200 524 192 555 203 553 Z"/>
    <path id="p5" d="M 483 191 Q 505 218 530 250 Q 540 265 556 266 Q 566 267 573 255 Q 580 242 575 212 Q 571 182 485 145 Q 470 139 464 141 Q 460 144 459 157 Q 460 167 483 191 Z"/>
    <path id="p6" d="M 726 118 Q 695 167 631 245 Q 624 254 631 261 Q 640 262 649 257 Q 758 172 812 140 Q 833 134 828 122 Q 821 103 798 82 Q 774 61 748 60 Q 732 61 733 83 Q 736 99 726 118 Z"/>
    <path id="p7" d="M 499 339 Q 489 333 457 328 Q 447 324 443 329 Q 436 335 445 350 Q 470 405 486 496 Q 489 523 505 541 Q 521 562 526 547 Q 529 538 530 525 C 528 504 528 504 527 493 Q 527 490 509 369 C 507 359 508 344 499 339 Z"/>
    <path id="p8" d="M 733 462 Q 758 381 787 360 Q 803 342 789 325 Q 773 312 723 290 Q 707 283 686 291 Q 608 321 499 339 C 489 341 499 371 509 369 Q 687 333 696 339 C 697 340 697 340 697 340 Q 710 353 685 461 C 682 477 730 478 733 462 Z"/>
    <path id="p9" d="M 653 506 Q 693 500 748 496 Q 758 495 760 487 Q 760 480 733 462 C 719 454 701 458 685 461 Q 597 482 527 493 C 516 495 519 525 530 525 Q 534 525 540 524 Q 568 517 617 511 C 641 508 641 508 653 506 Z"/>
    <path id="p10" d="M 500 589 Q 516 709 351 856 Q 345 863 351 866 Q 375 872 445 815 Q 508 767 551 656 Q 558 637 569 620 Q 576 613 570 603 Q 564 594 537 580 Q 518 570 510 572 Q 498 576 500 589 Z"/>
    <path id="p11" d="M 980 815 Q 965 788 945 703 Q 945 687 937 682 Q 930 679 926 697 Q 901 788 883 816 Q 859 846 770 841 Q 736 837 710 825 Q 685 812 679 796 Q 652 741 685 551 Q 691 526 653 506 C 643 500 615 499 617 511 Q 617 515 620 523 Q 632 562 629 599 Q 617 768 632 815 Q 636 839 657 859 Q 727 925 885 900 Q 892 897 902 896 Q 938 886 974 860 Q 995 844 980 815 Z"/>

    <clipPath id="z33073c1"><use href="#p1"/></clipPath>
    <clipPath id="z33073c2"><use href="#p2"/></clipPath>
    <clipPath id="z33073c3"><use href="#p3"/></clipPath>
    <clipPath id="z33073c4"><use href="#p4"/></clipPath>
    <clipPath id="z33073c5"><use href="#p5"/></clipPath>
    <clipPath id="z33073c6"><use href="#p6"/></clipPath>
    <clipPath id="z33073c7"><use href="#p7"/></clipPath>
    <clipPath id="z33073c8"><use href="#p8"/></clipPath>
    <clipPath id="z33073c9"><use href="#p9"/></clipPath>
    <clipPath id="z33073c10"><use href="#p10"/></clipPath>
    <clipPath id="z33073c11"><use href="#p11"/></clipPath>
</defs>
<g id="bg-layer" class="bg">
<use href="#p1"/>
<use href="#p2"/>
<use href="#p3"/>
<use href="#p4"/>
<use href="#p5"/>
<use href="#p6"/>
<use href="#p7"/>
<use href="#p8"/>
<use href="#p9"/>
<use href="#p10"/>
<use href="#p11"/>
</g>
<g id="anim-layer">
    <path id="stroke-p1" style="stroke:#FF4444" pathLength="3333" clip-path="url(#z33073c1)" d="M 159 176 L 205 228 L 188 516 L 144 672 L 58 825"/>
    <path id="stroke-p2" style="stroke:#FF4444" pathLength="3333" clip-path="url(#z33073c2)" d="M 230 193 L 320 179 L 359 207 L 357 741 L 327 779 L 245 724"/>
    <path id="stroke-p3" style="stroke:#FF4444" pathLength="3333" clip-path="url(#z33073c3)" d="M 231 388 L 306 369"/>
    <path id="stroke-p4" style="stroke:#FF4444" pathLength="3333" clip-path="url(#z33073c4)" d="M 208 547 L 304 521"/>
    <path id="stroke-p5" style="stroke:#000" pathLength="3333" clip-path="url(#z33073c5)" d="M 469 147 L 542 215 L 558 261"/>
    <path id="stroke-p6" style="stroke:#000" pathLength="3333" clip-path="url(#z33073c6)" d="M 743 67 L 777 124 L 636 254"/>
    <path id="stroke-p7" style="stroke:#000" pathLength="3333" clip-path="url(#z33073c7)" d="M 449 337 L 478 359 L 515 548"/>
    <path id="stroke-p8" style="stroke:#000" pathLength="3333" clip-path="url(#z33073c8)" d="M 508 346 L 715 317 L 748 348 L 699 461"/>
    <path id="stroke-p9" style="stroke:#000" pathLength="3333" clip-path="url(#z33073c9)" d="M 535 518 L 750 484"/>
    <path id="stroke-p10" style="stroke:#000" pathLength="3333" clip-path="url(#z33073c10)" d="M 509 580 L 536 620 L 497 716 L 356 858"/>
    <path id="stroke-p11" style="stroke:#000" pathLength="3333" clip-path="url(#z33073c11)" d="M 624 514 L 656 550 L 651 790 L 704 856 L 807 874 L 916 845 L 942 809 L 936 690"/>
</g>
</svg>