<svg id="z33109" class="acjk" viewBox="0 0 1024 1024" xmlns="http://www.w3.org/2000/svg">
<style>
<![CDATA[
svg.acjk path[clip-path] {
    animation-duration: 12.100000000000001s;
    animation-timing-function: linear;
    animation-iteration-count: infinite;
    stroke-dasharray: 3337;
    stroke-dashoffset: 3339;
    stroke-width: 128;
    stroke-linecap: round;
    fill: none;
    stroke: #FF4444;
}
svg.acjk .bg { fill: #ccc; opacity: 0.5; }

/* Stroke 1: Starts at 0.0%, finishes at 6.6%, holds until 79.3% */
@keyframes zk1 {
    0%, 0.0% { stroke-dashoffset: 3339; }
    6.6%, 79.3% { stroke-dashoffset: 0; }
    79.4%, 100% { stroke-dashoffset: 3339; }
}
svg.acjk #stroke-p1 { animation-name: zk1; }
/* Stroke 2: Starts at 6.6%, finishes at 13.2%, holds until 79.3% */
@keyframes zk2 {
    0%, 6.6% { stroke-dashoffset: 3339; }
    13.2%, 79.3% { stroke-dashoffset: 0; }
    79.4%, 100% { stroke-dashoffset: 3339; }
}
svg.acjk #stroke-p2 { animation-name: zk2; }
/* Stroke 3: Starts at 13.2%, finishes at 19.8%, holds until 79.3% */
@keyframes zk3 {
    0%, 13.2% { stroke-dashoffset: 3339; }
    19.8%, 79.3% { stroke-dashoffset: 0; }
    79.4%, 100% { stroke-dashoffset: 3339; }
}
svg.acjk #stroke-p3 { animation-name: zk3; }
/* Stroke 4: Starts at 19.8%, finishes at 26.4%, holds until 79.3% */
@keyframes zk4 {
    0%, 19.8% { stroke-dashoffset: 3339; }
    26.4%, 79.3% { stroke-dashoffset: 0; }
    79.4%, 100% { stroke-dashoffset: 3339; }
}
svg.acjk #stroke-p4 { animation-name: zk4; }
/* Stroke 5: Starts at 26.4%, finishes at 33.1%, holds until 79.3% */
@keyframes zk5 {
    0%, 26.4% { stroke-dashoffset: 3339; }
    33.1%, 79.3% { stroke-dashoffset: 0; }
    79.4%, 100% { stroke-dashoffset: 3339; }
}
svg.acjk #stroke-p5 { animation-name: zk5; }
/* Stroke 6: Starts at 33.1%, finishes at 39.7%, holds until 79.3% */
@keyframes zk6 {
    0%, 33.1% { stroke-dashoffset: 3339; }
    39.7%, 79.3% { stroke-dashoffset: 0; }
    79.4%, 100% { stroke-dashoffset: 3339; }
}
svg.acjk #stroke-p6 { animation-name: zk6; }
/* Stroke 7: Starts at 39.7%, finishes at 46.3%, holds until 79.3% */
@keyframes zk7 {
    0%, 39.7% { stroke-dashoffset: 3339; }
    46.3%, 79.3% { stroke-dashoffset: 0; }
    79.4%, 100% { stroke-dashoffset: 3339; }
}
svg.acjk #stroke-p7 { animation-name: zk7; }
/* Stroke 8: Starts at 46.3%, finishes at 52.9%, holds until 79.3% */
@keyframes zk8 {
    0%, 46.3% { stroke-dashoffset: 3339; }
    52.9%, 79.3% { stroke-dashoffset: 0; }
    79.4%, 100% { stroke-dashoffset: 3339; }
}
svg.acjk #stroke-p8 { animation-name: zk8; }
/* Stroke 9: Starts at 52.9%, finishes at 59.5%, holds until 79.3% */
@keyframes zk9 {
    0%, 52.9% { stroke-dashoffset: 3339; }
    59.5%, 79.3% { stroke-dashoffset: 0; }
    79.4%, 100% { stroke-dashoffset: 3339; }
}
svg.acjk #stroke-p9 { animation-name: zk9; }
/* Stroke 10: Starts at 59.5%, finishes at 66.1%, holds until 79.3% */
@keyframes zk10 {
    0%, 59.5% { stroke-dashoffset: 3339; }
    66.1%, 79.3% { stroke-dashoffset: 0; }
    79.4%, 100% { stroke-dashoffset: 3339; }
}
svg.acjk #stroke-p10 { animation-name: zk10; }
/* Stroke 11: Starts at 66.1%, finishes at 72.7%, holds until 79.3% */
@keyframes zk11 {
    0%, 66.1% { stroke-dashoffset: 3339; }
    72.7%, 79.3% { stroke-dashoffset: 0; }
    79.4%, 100% { stroke-dashoffset: 3339; }
}
svg.acjk #stroke-p11 { animation-name: zk11; }
/* Stroke 12: Starts at 72.7%, finishes at 79.3%, holds until 79.3% */
@keyframes zk12 {
    0%, 72.7% { stroke-dashoffset: 3339; }
    79.3%, 79.3% { stroke-dashoffset: 0; }
    79.4%, 100% { stroke-dashoffset: 3339; }
}
svg.acjk #stroke-p12 { animation-name: zk12; }
]]>
</style>
<defs>
    <path id="p1" d="M 190 528 Q 202 417 203 397 C 204 376 204 376 204 366 Q 204 228 208 209 C 210 200 205 188 197 183 Q 184 173 162 166 Q 144 159 134 164 Q 125 171 132 182 Q 153 212 158 281 Q 158 288 159 299 Q 166 467 137 597 Q 107 709 43 833 Q 39 839 38 844 Q 37 854 46 851 Q 80 836 140 708 Q 165 645 184 563 C 188 540 188 540 190 528 Z"/>
    <path id="p2" d="M 262 192 Q 278 188 284 196 Q 303 248 294 613 Q 288 739 279 752 Q 275 758 257 753 Q 238 752 217 748 Q 199 744 201 752 Q 247 789 274 817 Q 286 833 299 836 Q 306 839 314 831 Q 347 786 346 742 Q 337 565 338 278 Q 337 229 349 207 Q 359 191 349 181 Q 330 165 299 153 Q 281 146 234 172 Q 219 176 197 183 C 188 186 199 212 208 209 C 244 198 244 198 262 192 Z"/>
    <path id="p3" d="M 203 397 Q 236 391 262 389 Q 281 385 273 374 Q 263 362 242 360 Q 226 359 204 366 C 194 369 193 399 203 397 Z"/>
    <path id="p4" d="M 184 563 Q 227 554 261 550 Q 282 546 273 535 Q 263 522 241 520 Q 220 519 190 528 C 179 532 172 565 184 563 Z"/>
    <path id="p5" d="M 591 129 Q 612 148 633 172 Q 646 185 664 186 Q 674 185 681 171 Q 685 156 677 125 Q 673 107 645 95 Q 578 71 564 77 Q 558 81 560 94 Q 564 106 591 129 Z"/>
    <path id="p6" d="M 461 252 Q 446 228 437 220 Q 434 216 428 219 Q 424 223 422 233 Q 423 261 393 323 Q 383 338 383 355 Q 384 373 393 386 Q 400 396 405 390 Q 418 387 434 344 Q 440 326 464 281 C 469 273 467 260 461 252 Z"/>
    <path id="p7" d="M 464 281 Q 480 291 519 281 Q 622 253 717 232 Q 753 231 754 246 Q 755 262 726 329 Q 720 344 727 347 Q 734 350 745 337 Q 817 270 846 255 Q 871 246 867 232 Q 866 220 793 188 Q 771 179 746 188 Q 679 207 621 222 Q 555 235 464 251 Q 461 251 461 252 C 451 254 455 277 464 281 Z"/>
    <path id="p8" d="M 417 557 Q 427 545 458 505 C 465 496 465 496 468 491 Q 484 466 502 434 Q 512 412 523 399 Q 529 392 525 383 Q 521 374 501 361 Q 482 351 469 351 Q 457 354 464 368 Q 473 383 452 442 Q 416 518 383 571 Q 376 578 375 582 Q 374 589 383 588 Q 390 585 403 572 C 412 562 412 562 417 557 Z"/>
    <path id="p9" d="M 458 505 Q 467 512 491 508 Q 528 501 531 505 Q 537 517 523 565 Q 513 617 466 691 Q 423 770 341 849 Q 325 862 340 860 Q 445 842 551 612 Q 587 516 600 503 Q 609 496 604 486 Q 600 479 556 463 Q 546 460 530 470 Q 511 480 468 491 C 462 492 453 502 458 505 Z"/>
    <path id="p10" d="M 403 572 Q 440 633 465 637 Q 475 638 481 625 Q 484 615 478 599 Q 465 572 417 557 C 411 554 399 567 403 572 Z"/>
    <path id="p11" d="M 677 472 Q 731 453 770 443 Q 779 442 780 444 Q 787 453 785 476 Q 784 542 771 572 Q 758 599 734 596 Q 715 592 696 586 Q 677 582 691 600 Q 727 631 744 657 Q 757 672 770 659 Q 809 634 829 527 Q 833 463 850 441 Q 859 431 853 422 Q 846 415 804 399 Q 788 392 773 404 Q 763 411 720 425 Q 689 435 663 442 C 652 444 667 476 677 472 Z"/>
    <path id="p12" d="M 976 791 Q 963 766 945 693 Q 944 678 937 674 Q 931 671 927 688 Q 905 767 888 792 Q 860 823 767 821 Q 731 820 704 808 Q 679 796 672 780 Q 636 711 677 472 C 679 461 672 449 663 442 Q 653 435 640 430 Q 630 426 622 431 Q 616 434 620 449 Q 630 483 628 515 Q 609 797 654 836 Q 714 887 863 872 Q 879 868 898 864 Q 935 854 971 830 Q 987 814 976 791 Z"/>

    <clipPath id="z33109c1"><use href="#p1"/></clipPath>
    <clipPath id="z33109c2"><use href="#p2"/></clipPath>
    <clipPath id="z33109c3"><use href="#p3"/></clipPath>
    <clipPath id="z33109c4"><use href="#p4"/></clipPath>
    <clipPath id="z33109c5"><use href="#p5"/></clipPath>
    <clipPath id="z33109c6"><use href="#p6"/></clipPath>
    <clipPath id="z33109c7"><use href="#p7"/></clipPath>
    <clipPath id="z33109c8"><use href="#p8"/></clipPath>
    <clipPath id="z33109c9"><use href="#p9"/></clipPath>
    <clipPath id="z33109c10"><use href="#p10"/></clipPath>
    <clipPath id="z33109c11"><use href="#p11"/></clipPath>
    <clipPath id="z33109c12"><use href="#p12"/></clipPath>
</defs>
<g id="bg-layer" class="bg">
<use href="#p1"/>
<use href="#p2"/>
<use href="#p3"/>
<use href="#p4"/>
<use href="#p5"/>
<use href="#p6"/>
<use href="#p7"/>
<use href="#p8"/>
<use href="#p9"/>
<use href="#p10"/>
<use href="#p11"/>
<use href="#p12"/>
</g>
<g id="anim-layer">
    <path id="stroke-p1" style="stroke:#FF4444" pathLength="3333" clip-path="url(#z33109c1)" d="M 138 171 L 179 221 L 172 510 L 130 683 L 46 844"/>
    <path id="stroke-p2" style="stroke:#FF4444" pathLength="3333" clip-path="url(#z33109c2)" d="M 204 187 L 284 172 L 320 200 L 313 755 L 287 796 L 209 752"/>
    <path id="stroke-p3" style="stroke:#FF4444" pathLength="3333" clip-path="url(#z33109c3)" d="M 208 388 L 266 380"/>
    <path id="stroke-p4" style="stroke:#FF4444" pathLength="3333" clip-path="url(#z33109c4)" d="M 194 555 L 270 538"/>
    <path id="stroke-p5" style="stroke:#000" pathLength="3333" clip-path="url(#z33109c5)" d="M 567 86 L 640 130 L 672 176"/>
    <path id="stroke-p6" style="stroke:#000" pathLength="3333" clip-path="url(#z33109c6)" d="M 433 229 L 439 276 L 398 386"/>
    <path id="stroke-p7" style="stroke:#000" pathLength="3333" clip-path="url(#z33109c7)" d="M 467 257 L 770 213 L 813 249 L 732 342"/>
    <path id="stroke-p8" style="stroke:#000" pathLength="3333" clip-path="url(#z33109c8)" d="M 469 360 L 494 400 L 382 581"/>
    <path id="stroke-p9" style="stroke:#000" pathLength="3333" clip-path="url(#z33109c9)" d="M 464 501 L 534 484 L 567 497 L 535 597 L 442 763 L 338 854"/>
    <path id="stroke-p10" style="stroke:#000" pathLength="3333" clip-path="url(#z33109c10)" d="M 413 569 L 473 631"/>
    <path id="stroke-p11" style="stroke:#000" pathLength="3333" clip-path="url(#z33109c11)" d="M 670 443 L 784 420 L 819 442 L 768 620 L 747 630 L 693 591"/>
    <path id="stroke-p12" style="stroke:#000" pathLength="3333" clip-path="url(#z33109c12)" d="M 626 438 L 651 480 L 641 736 L 676 820 L 774 848 L 907 824 L 939 792 L 933 681"/>
</g>
</svg>