<svg id="z33105" class="acjk" viewBox="0 0 1024 1024" xmlns="http://www.w3.org/2000/svg">
<style>
<![CDATA[
svg.acjk path[clip-path] {
    animation-duration: 12.100000000000001s;
    animation-timing-function: linear;
    animation-iteration-count: infinite;
    stroke-dasharray: 3337;
    stroke-dashoffset: 3339;
    stroke-width: 128;
    stroke-linecap: round;
    fill: none;
    stroke: #FF4444;
}
svg.acjk .bg { fill: #ccc; opacity: 0.5; }

/* Stroke 1: Starts at 0.0%, finishes at 6.6%, holds until 79.3% */
@keyframes zk1 {
    0%, 0.0% { stroke-dashoffset: 3339; }
    6.6%, 79.3% { stroke-dashoffset: 0; }
    79.4%, 100% { stroke-dashoffset: 3339; }
}
svg.acjk #stroke-p1 { animation-name: zk1; }
/* Stroke 2: Starts at 6.6%, finishes at 13.2%, holds until 79.3% */
@keyframes zk2 {
    0%, 6.6% { stroke-dashoffset: 3339; }
    13.2%, 79.3% { stroke-dashoffset: 0; }
    79.4%, 100% { stroke-dashoffset: 3339; }
}
svg.acjk #stroke-p2 { animation-name: zk2; }
/* Stroke 3: Starts at 13.2%, finishes at 19.8%, holds until 79.3% */
@keyframes zk3 {
    0%, 13.2% { stroke-dashoffset: 3339; }
    19.8%, 79.3% { stroke-dashoffset: 0; }
    79.4%, 100% { stroke-dashoffset: 3339; }
}
svg.acjk #stroke-p3 { animation-name: zk3; }
/* Stroke 4: Starts at 19.8%, finishes at 26.4%, holds until 79.3% */
@keyframes zk4 {
    0%, 19.8% { stroke-dashoffset: 3339; }
    26.4%, 79.3% { stroke-dashoffset: 0; }
    79.4%, 100% { stroke-dashoffset: 3339; }
}
svg.acjk #stroke-p4 { animation-name: zk4; }
/* Stroke 5: Starts at 26.4%, finishes at 33.1%, holds until 79.3% */
@keyframes zk5 {
    0%, 26.4% { stroke-dashoffset: 3339; }
    33.1%, 79.3% { stroke-dashoffset: 0; }
    79.4%, 100% { stroke-dashoffset: 3339; }
}
svg.acjk #stroke-p5 { animation-name: zk5; }
/* Stroke 6: Starts at 33.1%, finishes at 39.7%, holds until 79.3% */
@keyframes zk6 {
    0%, 33.1% { stroke-dashoffset: 3339; }
    39.7%, 79.3% { stroke-dashoffset: 0; }
    79.4%, 100% { stroke-dashoffset: 3339; }
}
svg.acjk #stroke-p6 { animation-name: zk6; }
/* Stroke 7: Starts at 39.7%, finishes at 46.3%, holds until 79.3% */
@keyframes zk7 {
    0%, 39.7% { stroke-dashoffset: 3339; }
    46.3%, 79.3% { stroke-dashoffset: 0; }
    79.4%, 100% { stroke-dashoffset: 3339; }
}
svg.acjk #stroke-p7 { animation-name: zk7; }
/* Stroke 8: Starts at 46.3%, finishes at 52.9%, holds until 79.3% */
@keyframes zk8 {
    0%, 46.3% { stroke-dashoffset: 3339; }
    52.9%, 79.3% { stroke-dashoffset: 0; }
    79.4%, 100% { stroke-dashoffset: 3339; }
}
svg.acjk #stroke-p8 { animation-name: zk8; }
/* Stroke 9: Starts at 52.9%, finishes at 59.5%, holds until 79.3% */
@keyframes zk9 {
    0%, 52.9% { stroke-dashoffset: 3339; }
    59.5%, 79.3% { stroke-dashoffset: 0; }
    79.4%, 100% { stroke-dashoffset: 3339; }
}
svg.acjk #stroke-p9 { animation-name: zk9; }
/* Stroke 10: Starts at 59.5%, finishes at 66.1%, holds until 79.3% */
@keyframes zk10 {
    0%, 59.5% { stroke-dashoffset: 3339; }
    66.1%, 79.3% { stroke-dashoffset: 0; }
    79.4%, 100% { stroke-dashoffset: 3339; }
}
svg.acjk #stroke-p10 { animation-name: zk10; }
/* Stroke 11: Starts at 66.1%, finishes at 72.7%, holds until 79.3% */
@keyframes zk11 {
    0%, 66.1% { stroke-dashoffset: 3339; }
    72.7%, 79.3% { stroke-dashoffset: 0; }
    79.4%, 100% { stroke-dashoffset: 3339; }
}
svg.acjk #stroke-p11 { animation-name: zk11; }
/* Stroke 12: Starts at 72.7%, finishes at 79.3%, holds until 79.3% */
@keyframes zk12 {
    0%, 72.7% { stroke-dashoffset: 3339; }
    79.3%, 79.3% { stroke-dashoffset: 0; }
    79.4%, 100% { stroke-dashoffset: 3339; }
}
svg.acjk #stroke-p12 { animation-name: zk12; }
]]>
</style>
<defs>
    <path id="p1" d="M 194 465 Q 194 464 195 462 Q 199 408 201 356 C 200 335 200 335 200 324 Q 200 207 203 202 C 205 191 193 181 183 175 Q 171 168 153 163 Q 135 156 125 161 Q 115 168 122 180 Q 168 226 147 491 Q 144 518 139 545 Q 118 641 63 756 Q 59 762 58 768 Q 57 778 66 774 Q 81 771 107 724 Q 161 649 189 502 C 192 477 192 477 194 465 Z"/>
    <path id="p2" d="M 203 202 Q 213 202 272 183 Q 290 177 295 186 Q 307 219 304 464 Q 301 657 289 677 Q 285 681 270 678 Q 251 671 230 664 Q 212 654 212 664 Q 252 716 273 751 Q 285 770 299 776 Q 306 780 316 771 Q 358 723 358 656 Q 342 242 367 199 Q 377 180 367 171 Q 346 153 312 139 Q 296 132 280 139 Q 256 154 241 160 Q 222 167 183 175 C 172 177 192 204 203 202 Z"/>
    <path id="p3" d="M 201 356 Q 240 347 270 343 Q 291 337 282 327 Q 272 315 248 313 Q 229 313 200 324 C 190 327 191 358 201 356 Z"/>
    <path id="p4" d="M 189 502 Q 232 493 265 489 Q 287 483 278 471 Q 265 458 240 456 Q 221 455 194 465 C 182 470 177 504 189 502 Z"/>
    <path id="p5" d="M 609 108 Q 631 127 653 150 Q 668 163 684 162 Q 696 162 701 148 Q 705 132 695 101 Q 689 83 662 72 Q 593 51 580 57 Q 574 61 576 75 Q 580 85 609 108 Z"/>
    <path id="p6" d="M 498 264 Q 537 273 568 266 Q 829 218 846 206 Q 855 199 851 191 Q 844 181 818 173 Q 790 167 763 177 Q 705 196 641 212 Q 571 227 489 234 Q 486 234 484 236 C 474 240 488 262 498 264 Z"/>
    <path id="p7" d="M 484 236 Q 445 209 426 218 Q 416 225 423 236 Q 442 260 443 328 Q 443 511 412 619 Q 381 718 316 833 Q 312 839 311 844 Q 310 854 318 851 Q 349 845 418 714 Q 425 696 434 676 Q 485 534 489 365 Q 492 269 498 264 C 502 254 492 242 484 236 Z"/>
    <path id="p8" d="M 544 486 Q 583 429 610 380 Q 620 358 630 346 Q 636 337 631 328 Q 627 319 605 305 Q 583 295 570 296 Q 557 299 564 314 Q 579 338 540 429 Q 521 469 494 517 Q 487 524 487 530 Q 486 539 495 535 Q 502 534 520 514 Q 520 513 521 513 C 536 495 536 495 544 486 Z"/>
    <path id="p9" d="M 521 513 Q 558 588 516 769 Q 498 794 527 848 Q 530 854 534 858 Q 547 871 557 850 Q 569 817 568 780 Q 572 594 579 552 Q 585 528 552 494 Q 548 490 544 486 C 536 478 517 502 521 513 Z"/>
    <path id="p10" d="M 815 470 Q 855 464 912 463 Q 951 463 957 454 Q 961 444 946 432 Q 894 396 821 424 Q 817 424 813 426 C 780 434 780 434 763 438 Q 762 438 609 468 Q 591 471 606 485 Q 636 507 666 499 Q 711 484 765 477 C 798 472 798 472 815 470 Z"/>
    <path id="p11" d="M 738 818 Q 704 812 670 805 Q 658 802 659 810 Q 660 817 671 824 Q 744 885 770 922 Q 786 938 800 924 Q 836 888 831 817 Q 825 768 815 470 C 814 441 814 441 813 426 Q 813 353 821 327 Q 828 308 811 296 Q 784 275 755 267 Q 736 261 728 270 Q 722 277 734 291 Q 758 327 763 438 C 764 464 764 464 765 477 Q 781 798 759 815 Q 752 822 738 818 Z"/>
    <path id="p12" d="M 644 590 Q 687 641 700 644 Q 707 645 713 635 Q 719 625 715 601 Q 711 577 645 552 Q 633 548 628 550 Q 624 551 624 562 Q 625 571 644 590 Z"/>

    <clipPath id="z33105c1"><use href="#p1"/></clipPath>
    <clipPath id="z33105c2"><use href="#p2"/></clipPath>
    <clipPath id="z33105c3"><use href="#p3"/></clipPath>
    <clipPath id="z33105c4"><use href="#p4"/></clipPath>
    <clipPath id="z33105c5"><use href="#p5"/></clipPath>
    <clipPath id="z33105c6"><use href="#p6"/></clipPath>
    <clipPath id="z33105c7"><use href="#p7"/></clipPath>
    <clipPath id="z33105c8"><use href="#p8"/></clipPath>
    <clipPath id="z33105c9"><use href="#p9"/></clipPath>
    <clipPath id="z33105c10"><use href="#p10"/></clipPath>
    <clipPath id="z33105c11"><use href="#p11"/></clipPath>
    <clipPath id="z33105c12"><use href="#p12"/></clipPath>
</defs>
<g id="bg-layer" class="bg">
<use href="#p1"/>
<use href="#p2"/>
<use href="#p3"/>
<use href="#p4"/>
<use href="#p5"/>
<use href="#p6"/>
<use href="#p7"/>
<use href="#p8"/>
<use href="#p9"/>
<use href="#p10"/>
<use href="#p11"/>
<use href="#p12"/>
</g>
<g id="anim-layer">
    <path id="stroke-p1" style="stroke:#FF4444" pathLength="3333" clip-path="url(#z33105c1)" d="M 126 169 L 172 215 L 170 479 L 132 637 L 65 767"/>
    <path id="stroke-p2" style="stroke:#FF4444" pathLength="3333" clip-path="url(#z33105c2)" d="M 191 177 L 298 160 L 334 189 L 321 687 L 293 728 L 219 663"/>
    <path id="stroke-p3" style="stroke:#FF4444" pathLength="3333" clip-path="url(#z33105c3)" d="M 204 348 L 278 331"/>
    <path id="stroke-p4" style="stroke:#FF4444" pathLength="3333" clip-path="url(#z33105c4)" d="M 196 495 L 276 476"/>
    <path id="stroke-p5" style="stroke:#000" pathLength="3333" clip-path="url(#z33105c5)" d="M 581 67 L 661 109 L 684 158"/>
    <path id="stroke-p6" style="stroke:#000" pathLength="3333" clip-path="url(#z33105c6)" d="M 492 239 L 549 248 L 848 196"/>
    <path id="stroke-p7" style="stroke:#000" pathLength="3333" clip-path="url(#z33105c7)" d="M 428 223 L 467 271 L 453 523 L 401 704 L 318 844"/>
    <path id="stroke-p8" style="stroke:#000" pathLength="3333" clip-path="url(#z33105c8)" d="M 572 305 L 598 349 L 492 529"/>
    <path id="stroke-p9" style="stroke:#000" pathLength="3333" clip-path="url(#z33105c9)" d="M 541 495 L 557 551 L 544 857"/>
    <path id="stroke-p10" style="stroke:#000" pathLength="3333" clip-path="url(#z33105c10)" d="M 605 474 L 876 438 L 952 448"/>
    <path id="stroke-p11" style="stroke:#000" pathLength="3333" clip-path="url(#z33105c11)" d="M 734 274 L 786 321 L 797 819 L 769 878 L 668 811"/>
    <path id="stroke-p12" style="stroke:#000" pathLength="3333" clip-path="url(#z33105c12)" d="M 632 558 L 693 608 L 700 639"/>
</g>
</svg>