<svg id="z33280" class="acjk" viewBox="0 0 1024 1024" xmlns="http://www.w3.org/2000/svg">
<style>
<![CDATA[
svg.acjk path[clip-path] {
    animation-duration: 10.5s;
    animation-timing-function: linear;
    animation-iteration-count: infinite;
    stroke-dasharray: 3337;
    stroke-dashoffset: 3339;
    stroke-width: 128;
    stroke-linecap: round;
    fill: none;
    stroke: #FF4444;
}
svg.acjk .bg { fill: #ccc; opacity: 0.5; }

/* Stroke 1: Starts at 0.0%, finishes at 7.6%, holds until 76.2% */
@keyframes zk1 {
    0%, 0.0% { stroke-dashoffset: 3339; }
    7.6%, 76.2% { stroke-dashoffset: 0; }
    76.3%, 100% { stroke-dashoffset: 3339; }
}
svg.acjk #stroke-p1 { animation-name: zk1; }
/* Stroke 2: Starts at 7.6%, finishes at 15.2%, holds until 76.2% */
@keyframes zk2 {
    0%, 7.6% { stroke-dashoffset: 3339; }
    15.2%, 76.2% { stroke-dashoffset: 0; }
    76.3%, 100% { stroke-dashoffset: 3339; }
}
svg.acjk #stroke-p2 { animation-name: zk2; }
/* Stroke 3: Starts at 15.2%, finishes at 22.9%, holds until 76.2% */
@keyframes zk3 {
    0%, 15.2% { stroke-dashoffset: 3339; }
    22.9%, 76.2% { stroke-dashoffset: 0; }
    76.3%, 100% { stroke-dashoffset: 3339; }
}
svg.acjk #stroke-p3 { animation-name: zk3; }
/* Stroke 4: Starts at 22.9%, finishes at 30.5%, holds until 76.2% */
@keyframes zk4 {
    0%, 22.9% { stroke-dashoffset: 3339; }
    30.5%, 76.2% { stroke-dashoffset: 0; }
    76.3%, 100% { stroke-dashoffset: 3339; }
}
svg.acjk #stroke-p4 { animation-name: zk4; }
/* Stroke 5: Starts at 30.5%, finishes at 38.1%, holds until 76.2% */
@keyframes zk5 {
    0%, 30.5% { stroke-dashoffset: 3339; }
    38.1%, 76.2% { stroke-dashoffset: 0; }
    76.3%, 100% { stroke-dashoffset: 3339; }
}
svg.acjk #stroke-p5 { animation-name: zk5; }
/* Stroke 6: Starts at 38.1%, finishes at 45.7%, holds until 76.2% */
@keyframes zk6 {
    0%, 38.1% { stroke-dashoffset: 3339; }
    45.7%, 76.2% { stroke-dashoffset: 0; }
    76.3%, 100% { stroke-dashoffset: 3339; }
}
svg.acjk #stroke-p6 { animation-name: zk6; }
/* Stroke 7: Starts at 45.7%, finishes at 53.3%, holds until 76.2% */
@keyframes zk7 {
    0%, 45.7% { stroke-dashoffset: 3339; }
    53.3%, 76.2% { stroke-dashoffset: 0; }
    76.3%, 100% { stroke-dashoffset: 3339; }
}
svg.acjk #stroke-p7 { animation-name: zk7; }
/* Stroke 8: Starts at 53.3%, finishes at 61.0%, holds until 76.2% */
@keyframes zk8 {
    0%, 53.3% { stroke-dashoffset: 3339; }
    61.0%, 76.2% { stroke-dashoffset: 0; }
    76.3%, 100% { stroke-dashoffset: 3339; }
}
svg.acjk #stroke-p8 { animation-name: zk8; }
/* Stroke 9: Starts at 61.0%, finishes at 68.6%, holds until 76.2% */
@keyframes zk9 {
    0%, 61.0% { stroke-dashoffset: 3339; }
    68.6%, 76.2% { stroke-dashoffset: 0; }
    76.3%, 100% { stroke-dashoffset: 3339; }
}
svg.acjk #stroke-p9 { animation-name: zk9; }
/* Stroke 10: Starts at 68.6%, finishes at 76.2%, holds until 76.2% */
@keyframes zk10 {
    0%, 68.6% { stroke-dashoffset: 3339; }
    76.2%, 76.2% { stroke-dashoffset: 0; }
    76.3%, 100% { stroke-dashoffset: 3339; }
}
svg.acjk #stroke-p10 { animation-name: zk10; }
]]>
</style>
<defs>
    <path id="p1" d="M 294 211 C 286 213 286 223 294 224 C 372 235 554 162 628 147 C 656 140 654 126 646 115 C 633 97 618 81 600 68 C 573 48 561 52 550 78 C 528 125 473 148 294 211 Z"/>
    <path id="p2" d="M 263 331 C 279 347 295 366 313 388 C 321 398 331 403 343 404 C 352 404 372 405 361 344 C 356 322 324 299 263 280 C 252 276 244 275 240 277 C 235 278 233 285 235 294 C 236 302 246 314 263 331 Z"/>
    <path id="p3" d="M 435 275 C 467 333 491 363 506 371 C 514 374 546 380 531 319 C 524 292 492 268 446 247 C 439 243 435 247 433 255 C 430 261 431 267 435 275 Z"/>
    <path id="p4" d="M 588 376 C 577 386 582 397 595 392 C 692 344 764 288 804 274 C 854 255 779 207 776 205 C 742 181 725 185 725 206 C 721 274 631 329 588 376 Z"/>
    <path id="p5" d="M 266 573 C 374 519 414 497 432 491 C 467 478 432 444 411 429 C 380 406 370 411 367 427 C 359 462 320 491 253 555 C 248 560 259 576 266 573 Z"/>
    <path id="p6" d="M 308 832 C 297 786 286 733 283 708 C 280 689 280 689 279 680 C 272 636 268 578 266 573 C 265 566 259 559 253 555 C 193 518 155 520 178 550 C 214 597 234 685 245 808 C 249 853 263 886 293 904 C 311 914 312 889 313 871 C 313 857 310 844 308 832 Z"/>
    <path id="p7" d="M 283 708 C 299 706 330 702 438 684 C 477 677 447 649 413 645 C 383 641 338 654 279 680 C 270 684 274 710 283 708 Z"/>
    <path id="p8" d="M 688 850 C 692 880 696 944 733 923 C 756 909 775 859 790 768 C 811 633 830 558 841 542 C 842 540 842 539 843 538 C 852 523 850 511 839 501 C 796 461 762 449 734 458 C 684 473 624 478 558 481 C 551 481 547 484 547 493 C 547 499 553 506 564 512 C 579 520 602 523 632 517 C 702 501 743 494 755 502 C 761 506 765 517 764 535 C 761 567 756 599 752 632 C 749 651 749 651 748 661 C 737 739 720 798 701 821 C 695 829 686 840 688 850 Z"/>
    <path id="p9" d="M 752 632 C 695 606 606 634 545 647 C 533 649 533 654 547 667 C 553 672 563 674 577 673 C 641 667 698 663 748 661 C 758 661 761 636 752 632 Z"/>
    <path id="p10" d="M 701 821 C 629 767 655 803 308 832 C 295 832 300 871 313 871 C 328 871 399 852 688 850 C 699 850 709 827 701 821 Z"/>

    <clipPath id="z33280c1"><use href="#p1"/></clipPath>
    <clipPath id="z33280c2"><use href="#p2"/></clipPath>
    <clipPath id="z33280c3"><use href="#p3"/></clipPath>
    <clipPath id="z33280c4"><use href="#p4"/></clipPath>
    <clipPath id="z33280c5"><use href="#p5"/></clipPath>
    <clipPath id="z33280c6"><use href="#p6"/></clipPath>
    <clipPath id="z33280c7"><use href="#p7"/></clipPath>
    <clipPath id="z33280c8"><use href="#p8"/></clipPath>
    <clipPath id="z33280c9"><use href="#p9"/></clipPath>
    <clipPath id="z33280c10"><use href="#p10"/></clipPath>
</defs>
<g id="bg-layer" class="bg">
<use href="#p1"/>
<use href="#p2"/>
<use href="#p3"/>
<use href="#p4"/>
<use href="#p5"/>
<use href="#p6"/>
<use href="#p7"/>
<use href="#p8"/>
<use href="#p9"/>
<use href="#p10"/>
</g>
<g id="anim-layer">
    <path id="stroke-p1" style="stroke:#FF4444" pathLength="3333" clip-path="url(#z33280c1)" d="M 569 59 L 591 121 L 296 216"/>
    <path id="stroke-p2" style="stroke:#FF4444" pathLength="3333" clip-path="url(#z33280c2)" d="M 241 286 L 318 341 L 351 398"/>
    <path id="stroke-p3" style="stroke:#FF4444" pathLength="3333" clip-path="url(#z33280c3)" d="M 439 252 L 522 367"/>
    <path id="stroke-p4" style="stroke:#FF4444" pathLength="3333" clip-path="url(#z33280c4)" d="M 733 195 L 764 257 L 590 389"/>
    <path id="stroke-p5" style="stroke:#000" pathLength="3333" clip-path="url(#z33280c5)" d="M 377 418 L 396 472 L 259 564"/>
    <path id="stroke-p6" style="stroke:#000" pathLength="3333" clip-path="url(#z33280c6)" d="M 178 533 L 233 581 L 300 902"/>
    <path id="stroke-p7" style="stroke:#000" pathLength="3333" clip-path="url(#z33280c7)" d="M 277 695 L 449 664"/>
    <path id="stroke-p8" style="stroke:#000" pathLength="3333" clip-path="url(#z33280c8)" d="M 552 491 L 747 477 L 805 518 L 713 923"/>
    <path id="stroke-p9" style="stroke:#000" pathLength="3333" clip-path="url(#z33280c9)" d="M 546 656 L 754 650"/>
    <path id="stroke-p10" style="stroke:#000" pathLength="3333" clip-path="url(#z33280c10)" d="M 305 843 L 698 826"/>
</g>
</svg>