<svg id="z33320" class="acjk" viewBox="0 0 1024 1024" xmlns="http://www.w3.org/2000/svg">
<style>
<![CDATA[
svg.acjk path[clip-path] {
    animation-duration: 10.5s;
    animation-timing-function: linear;
    animation-iteration-count: infinite;
    stroke-dasharray: 3337;
    stroke-dashoffset: 3339;
    stroke-width: 128;
    stroke-linecap: round;
    fill: none;
    stroke: #FF4444;
}
svg.acjk .bg { fill: #ccc; opacity: 0.5; }

/* Stroke 1: Starts at 0.0%, finishes at 7.6%, holds until 76.2% */
@keyframes zk1 {
    0%, 0.0% { stroke-dashoffset: 3339; }
    7.6%, 76.2% { stroke-dashoffset: 0; }
    76.3%, 100% { stroke-dashoffset: 3339; }
}
svg.acjk #stroke-p1 { animation-name: zk1; }
/* Stroke 2: Starts at 7.6%, finishes at 15.2%, holds until 76.2% */
@keyframes zk2 {
    0%, 7.6% { stroke-dashoffset: 3339; }
    15.2%, 76.2% { stroke-dashoffset: 0; }
    76.3%, 100% { stroke-dashoffset: 3339; }
}
svg.acjk #stroke-p2 { animation-name: zk2; }
/* Stroke 3: Starts at 15.2%, finishes at 22.9%, holds until 76.2% */
@keyframes zk3 {
    0%, 15.2% { stroke-dashoffset: 3339; }
    22.9%, 76.2% { stroke-dashoffset: 0; }
    76.3%, 100% { stroke-dashoffset: 3339; }
}
svg.acjk #stroke-p3 { animation-name: zk3; }
/* Stroke 4: Starts at 22.9%, finishes at 30.5%, holds until 76.2% */
@keyframes zk4 {
    0%, 22.9% { stroke-dashoffset: 3339; }
    30.5%, 76.2% { stroke-dashoffset: 0; }
    76.3%, 100% { stroke-dashoffset: 3339; }
}
svg.acjk #stroke-p4 { animation-name: zk4; }
/* Stroke 5: Starts at 30.5%, finishes at 38.1%, holds until 76.2% */
@keyframes zk5 {
    0%, 30.5% { stroke-dashoffset: 3339; }
    38.1%, 76.2% { stroke-dashoffset: 0; }
    76.3%, 100% { stroke-dashoffset: 3339; }
}
svg.acjk #stroke-p5 { animation-name: zk5; }
/* Stroke 6: Starts at 38.1%, finishes at 45.7%, holds until 76.2% */
@keyframes zk6 {
    0%, 38.1% { stroke-dashoffset: 3339; }
    45.7%, 76.2% { stroke-dashoffset: 0; }
    76.3%, 100% { stroke-dashoffset: 3339; }
}
svg.acjk #stroke-p6 { animation-name: zk6; }
/* Stroke 7: Starts at 45.7%, finishes at 53.3%, holds until 76.2% */
@keyframes zk7 {
    0%, 45.7% { stroke-dashoffset: 3339; }
    53.3%, 76.2% { stroke-dashoffset: 0; }
    76.3%, 100% { stroke-dashoffset: 3339; }
}
svg.acjk #stroke-p7 { animation-name: zk7; }
/* Stroke 8: Starts at 53.3%, finishes at 61.0%, holds until 76.2% */
@keyframes zk8 {
    0%, 53.3% { stroke-dashoffset: 3339; }
    61.0%, 76.2% { stroke-dashoffset: 0; }
    76.3%, 100% { stroke-dashoffset: 3339; }
}
svg.acjk #stroke-p8 { animation-name: zk8; }
/* Stroke 9: Starts at 61.0%, finishes at 68.6%, holds until 76.2% */
@keyframes zk9 {
    0%, 61.0% { stroke-dashoffset: 3339; }
    68.6%, 76.2% { stroke-dashoffset: 0; }
    76.3%, 100% { stroke-dashoffset: 3339; }
}
svg.acjk #stroke-p9 { animation-name: zk9; }
/* Stroke 10: Starts at 68.6%, finishes at 76.2%, holds until 76.2% */
@keyframes zk10 {
    0%, 68.6% { stroke-dashoffset: 3339; }
    76.2%, 76.2% { stroke-dashoffset: 0; }
    76.3%, 100% { stroke-dashoffset: 3339; }
}
svg.acjk #stroke-p10 { animation-name: zk10; }
]]>
</style>
<defs>
    <path id="p1" d="M 233 270 Q 276 231 300 205 Q 354 142 378 126 Q 397 111 383 95 Q 365 80 336 71 Q 308 62 296 67 Q 283 71 290 85 Q 300 112 218 261 C 215 266 228 273 233 270 Z"/>
    <path id="p2" d="M 236 272 Q 235 271 233 270 C 223 264 223 264 218 261 Q 188 243 171 251 Q 161 258 168 271 Q 183 286 190 353 Q 189 440 187 528 C 183 559 183 559 181 575 Q 168 689 80 859 Q 76 866 75 871 Q 74 881 83 878 Q 95 875 127 828 Q 199 738 230 561 Q 230 560 230 559 C 234 532 234 532 236 518 Q 243 457 243 398 Q 243 332 248 303 C 250 292 245 279 236 272 Z"/>
    <path id="p3" d="M 365 514 Q 365 763 349 789 Q 343 793 275 778 Q 256 771 256 781 Q 308 830 338 866 Q 351 885 367 890 Q 376 894 384 884 Q 421 845 426 790 C 425 773 425 773 424 764 Q 403 347 430 300 Q 442 281 430 270 Q 408 251 372 236 Q 354 229 338 236 Q 308 254 288 260 Q 269 266 236 272 C 225 274 237 305 248 303 C 301 289 301 289 328 282 Q 347 278 353 287 Q 359 305 362 332 Q 363 416 365 490 C 365 506 365 506 365 514 Z"/>
    <path id="p4" d="M 267 389 Q 297 446 319 452 Q 331 455 339 440 Q 342 430 337 410 Q 322 383 275 366 Q 268 363 265 373 Q 262 380 267 389 Z"/>
    <path id="p5" d="M 230 559 Q 282 540 339 523 Q 352 519 365 514 C 372 511 373 489 365 490 Q 304 503 236 518 C 203 525 203 525 187 528 Q 148 534 108 542 Q 89 546 58 543 Q 46 543 43 552 Q 40 564 48 572 Q 67 588 95 608 Q 105 612 116 605 Q 147 587 181 575 C 214 564 214 564 230 559 Z"/>
    <path id="p6" d="M 252 611 Q 288 678 313 684 Q 326 687 335 671 Q 338 658 332 638 Q 317 605 260 586 Q 253 583 249 594 Q 246 601 252 611 Z"/>
    <path id="p7" d="M 578 306 Q 668 285 717 263 Q 762 245 801 238 Q 817 237 822 229 Q 825 219 813 207 Q 792 191 749 174 Q 733 167 720 168 Q 713 172 712 183 Q 712 213 565 289 C 559 293 571 307 578 306 Z"/>
    <path id="p8" d="M 426 790 Q 463 768 512 670 Q 540 592 550 549 C 553 533 553 533 555 525 Q 558 501 562 478 C 563 459 563 459 564 450 Q 565 423 568 398 Q 571 338 575 321 Q 578 314 578 306 C 578 299 570 294 565 289 Q 552 277 529 270 Q 510 261 499 266 Q 489 273 495 286 Q 510 304 514 371 Q 514 518 494 596 Q 472 672 424 764 C 421 772 419 795 426 790 Z"/>
    <path id="p9" d="M 656 683 Q 587 759 487 796 Q 474 802 486 808 Q 492 814 531 811 Q 606 802 685 724 C 706 697 706 697 716 684 Q 753 627 794 504 Q 804 473 824 454 Q 843 436 829 423 Q 816 411 782 401 Q 767 397 700 421 Q 595 445 564 450 C 555 452 553 476 562 478 Q 593 485 636 474 Q 699 453 710 453 Q 738 454 734 485 Q 718 570 680 647 C 664 671 664 671 656 683 Z"/>
    <path id="p10" d="M 550 549 Q 566 561 656 683 C 675 710 675 710 685 724 Q 728 782 769 830 Q 784 849 809 849 Q 944 843 954 830 Q 958 823 948 820 Q 798 760 720 687 Q 717 686 716 684 C 692 659 692 659 680 647 Q 637 602 587 543 Q 577 527 560 525 Q 557 524 555 525 C 547 525 543 544 550 549 Z"/>

    <clipPath id="z33320c1"><use href="#p1"/></clipPath>
    <clipPath id="z33320c2"><use href="#p2"/></clipPath>
    <clipPath id="z33320c3"><use href="#p3"/></clipPath>
    <clipPath id="z33320c4"><use href="#p4"/></clipPath>
    <clipPath id="z33320c5"><use href="#p5"/></clipPath>
    <clipPath id="z33320c6"><use href="#p6"/></clipPath>
    <clipPath id="z33320c7"><use href="#p7"/></clipPath>
    <clipPath id="z33320c8"><use href="#p8"/></clipPath>
    <clipPath id="z33320c9"><use href="#p9"/></clipPath>
    <clipPath id="z33320c10"><use href="#p10"/></clipPath>
</defs>
<g id="bg-layer" class="bg">
<use href="#p1"/>
<use href="#p2"/>
<use href="#p3"/>
<use href="#p4"/>
<use href="#p5"/>
<use href="#p6"/>
<use href="#p7"/>
<use href="#p8"/>
<use href="#p9"/>
<use href="#p10"/>
</g>
<g id="anim-layer">
    <path id="stroke-p1" style="stroke:#FF4444" pathLength="3333" clip-path="url(#z33320c1)" d="M 294 72 L 338 112 L 226 264"/>
    <path id="stroke-p2" style="stroke:#FF4444" pathLength="3333" clip-path="url(#z33320c2)" d="M 174 260 L 216 304 L 209 544 L 161 731 L 80 870"/>
    <path id="stroke-p3" style="stroke:#FF4444" pathLength="3333" clip-path="url(#z33320c3)" d="M 238 278 L 352 258 L 397 295 L 387 795 L 362 840 L 266 782"/>
    <path id="stroke-p4" style="stroke:#FF4444" pathLength="3333" clip-path="url(#z33320c4)" d="M 271 376 L 329 446"/>
    <path id="stroke-p5" style="stroke:#FF4444" pathLength="3333" clip-path="url(#z33320c5)" d="M 47 554 L 103 576 L 367 499"/>
    <path id="stroke-p6" style="stroke:#FF4444" pathLength="3333" clip-path="url(#z33320c6)" d="M 255 595 L 327 676"/>
    <path id="stroke-p7" style="stroke:#000" pathLength="3333" clip-path="url(#z33320c7)" d="M 724 172 L 763 219 L 571 300"/>
    <path id="stroke-p8" style="stroke:#000" pathLength="3333" clip-path="url(#z33320c8)" d="M 500 270 L 543 315 L 534 501 L 494 660 L 427 784"/>
    <path id="stroke-p9" style="stroke:#000" pathLength="3333" clip-path="url(#z33320c9)" d="M 559 468 L 730 433 L 784 456 L 667 707 L 572 779 L 485 801"/>
    <path id="stroke-p10" style="stroke:#000" pathLength="3333" clip-path="url(#z33320c10)" d="M 556 535 L 791 792 L 946 826"/>
</g>
</svg>