<svg id="z33433" class="acjk" viewBox="0 0 1024 1024" xmlns="http://www.w3.org/2000/svg">
<style>
<![CDATA[
svg.acjk path[clip-path] {
    animation-duration: 8.100000000000001s;
    animation-timing-function: linear;
    animation-iteration-count: infinite;
    stroke-dasharray: 3337;
    stroke-dashoffset: 3339;
    stroke-width: 128;
    stroke-linecap: round;
    fill: none;
    stroke: #FF4444;
}
svg.acjk .bg { fill: #ccc; opacity: 0.5; }

/* Stroke 1: Starts at 0.0%, finishes at 9.9%, holds until 69.1% */
@keyframes zk1 {
    0%, 0.0% { stroke-dashoffset: 3339; }
    9.9%, 69.1% { stroke-dashoffset: 0; }
    69.2%, 100% { stroke-dashoffset: 3339; }
}
svg.acjk #stroke-p1 { animation-name: zk1; }
/* Stroke 2: Starts at 9.9%, finishes at 19.8%, holds until 69.1% */
@keyframes zk2 {
    0%, 9.9% { stroke-dashoffset: 3339; }
    19.8%, 69.1% { stroke-dashoffset: 0; }
    69.2%, 100% { stroke-dashoffset: 3339; }
}
svg.acjk #stroke-p2 { animation-name: zk2; }
/* Stroke 3: Starts at 19.8%, finishes at 29.6%, holds until 69.1% */
@keyframes zk3 {
    0%, 19.8% { stroke-dashoffset: 3339; }
    29.6%, 69.1% { stroke-dashoffset: 0; }
    69.2%, 100% { stroke-dashoffset: 3339; }
}
svg.acjk #stroke-p3 { animation-name: zk3; }
/* Stroke 4: Starts at 29.6%, finishes at 39.5%, holds until 69.1% */
@keyframes zk4 {
    0%, 29.6% { stroke-dashoffset: 3339; }
    39.5%, 69.1% { stroke-dashoffset: 0; }
    69.2%, 100% { stroke-dashoffset: 3339; }
}
svg.acjk #stroke-p4 { animation-name: zk4; }
/* Stroke 5: Starts at 39.5%, finishes at 49.4%, holds until 69.1% */
@keyframes zk5 {
    0%, 39.5% { stroke-dashoffset: 3339; }
    49.4%, 69.1% { stroke-dashoffset: 0; }
    69.2%, 100% { stroke-dashoffset: 3339; }
}
svg.acjk #stroke-p5 { animation-name: zk5; }
/* Stroke 6: Starts at 49.4%, finishes at 59.3%, holds until 69.1% */
@keyframes zk6 {
    0%, 49.4% { stroke-dashoffset: 3339; }
    59.3%, 69.1% { stroke-dashoffset: 0; }
    69.2%, 100% { stroke-dashoffset: 3339; }
}
svg.acjk #stroke-p6 { animation-name: zk6; }
/* Stroke 7: Starts at 59.3%, finishes at 69.1%, holds until 69.1% */
@keyframes zk7 {
    0%, 59.3% { stroke-dashoffset: 3339; }
    69.1%, 69.1% { stroke-dashoffset: 0; }
    69.2%, 100% { stroke-dashoffset: 3339; }
}
svg.acjk #stroke-p7 { animation-name: zk7; }
]]>
</style>
<defs>
    <path id="p1" d="M 642 239 Q 666 227 800 239 Q 816 240 822 230 Q 828 218 814 203 Q 760 157 676 179 Q 670 179 664 181 C 623 188 623 188 602 191 Q 511 203 409 217 C 374 220 374 220 357 222 Q 284 229 201 237 Q 170 240 191 257 Q 237 287 295 276 Q 332 267 370 261 C 399 256 399 256 414 254 Q 442 245 593 239 C 609 239 627 245 642 239 Z"/>
    <path id="p2" d="M 409 217 Q 405 192 404 170 Q 405 151 385 146 Q 346 128 323 137 Q 305 146 321 165 Q 345 190 357 222 C 366 248 366 248 370 261 Q 388 334 403 349 Q 416 359 420 347 Q 423 335 414 254 C 411 229 411 229 409 217 Z"/>
    <path id="p3" d="M 664 181 Q 671 162 684 141 Q 697 125 687 115 Q 674 97 637 81 Q 621 71 602 81 Q 592 88 600 99 Q 612 123 602 191 C 596 223 596 223 593 239 Q 578 317 578 324 Q 579 339 596 327 Q 614 309 642 239 C 657 200 657 200 664 181 Z"/>
    <path id="p4" d="M 519 459 Q 565 449 615 443 Q 663 433 670 427 Q 679 420 674 412 Q 668 400 640 392 Q 612 385 582 395 Q 554 402 526 411 C 485 420 485 420 464 425 Q 398 435 326 441 Q 292 445 316 462 Q 349 486 426 474 Q 442 471 461 469 C 500 462 500 462 519 459 Z"/>
    <path id="p5" d="M 513 601 Q 579 595 809 594 Q 830 594 835 585 Q 841 573 824 559 Q 770 517 731 526 Q 646 544 500 565 C 463 570 463 570 445 572 Q 324 585 185 601 Q 163 602 179 621 Q 194 636 212 641 Q 234 647 251 643 Q 338 621 435 610 C 487 604 487 604 513 601 Z"/>
    <path id="p6" d="M 435 610 Q 392 742 292 819 Q 255 846 198 881 Q 174 897 205 894 Q 224 897 264 879 Q 315 863 358 831 Q 436 777 488 613 C 496 581 496 581 500 565 Q 510 519 519 459 C 524 427 524 427 526 411 Q 526 384 538 354 Q 545 347 539 336 Q 533 329 503 317 Q 469 301 454 306 Q 441 312 452 329 Q 462 377 464 425 C 462 454 462 454 461 469 Q 457 521 447 567 Q 446 568 445 572 C 438 597 438 597 435 610 Z"/>
    <path id="p7" d="M 488 613 Q 566 739 669 874 Q 688 896 720 897 Q 829 898 864 894 Q 874 893 876 887 Q 877 881 863 873 Q 704 804 634 729 Q 576 672 513 601 C 501 589 478 599 488 613 Z"/>

    <clipPath id="z33433c1"><use href="#p1"/></clipPath>
    <clipPath id="z33433c2"><use href="#p2"/></clipPath>
    <clipPath id="z33433c3"><use href="#p3"/></clipPath>
    <clipPath id="z33433c4"><use href="#p4"/></clipPath>
    <clipPath id="z33433c5"><use href="#p5"/></clipPath>
    <clipPath id="z33433c6"><use href="#p6"/></clipPath>
    <clipPath id="z33433c7"><use href="#p7"/></clipPath>
</defs>
<g id="bg-layer" class="bg">
<use href="#p1"/>
<use href="#p2"/>
<use href="#p3"/>
<use href="#p4"/>
<use href="#p5"/>
<use href="#p6"/>
<use href="#p7"/>
</g>
<g id="anim-layer">
    <path id="stroke-p1" style="stroke:#FF4444" pathLength="3333" clip-path="url(#z33433c1)" d="M 190 245 L 274 254 L 703 203 L 819 216"/>
    <path id="stroke-p2" style="stroke:#FF4444" pathLength="3333" clip-path="url(#z33433c2)" d="M 317 148 L 372 176 L 411 347"/>
    <path id="stroke-p3" style="stroke:#FF4444" pathLength="3333" clip-path="url(#z33433c3)" d="M 604 88 L 648 132 L 587 327"/>
    <path id="stroke-p4" style="stroke:#000" pathLength="3333" clip-path="url(#z33433c4)" d="M 313 449 L 392 456 L 671 416"/>
    <path id="stroke-p5" style="stroke:#000" pathLength="3333" clip-path="url(#z33433c5)" d="M 179 608 L 237 620 L 744 559 L 832 577"/>
    <path id="stroke-p6" style="stroke:#000" pathLength="3333" clip-path="url(#z33433c6)" d="M 452 311 L 501 367 L 475 558 L 433 685 L 334 817 L 193 888"/>
    <path id="stroke-p7" style="stroke:#000" pathLength="3333" clip-path="url(#z33433c7)" d="M 496 607 L 697 838 L 869 887"/>
</g>
</svg>