<svg id="z33603" class="acjk" viewBox="0 0 1024 1024" xmlns="http://www.w3.org/2000/svg">
<style>
<![CDATA[
svg.acjk path[clip-path] {
    animation-duration: 9.7s;
    animation-timing-function: linear;
    animation-iteration-count: infinite;
    stroke-dasharray: 3337;
    stroke-dashoffset: 3339;
    stroke-width: 128;
    stroke-linecap: round;
    fill: none;
    stroke: #FF4444;
}
svg.acjk .bg { fill: #ccc; opacity: 0.5; }

/* Stroke 1: Starts at 0.0%, finishes at 8.2%, holds until 74.2% */
@keyframes zk1 {
    0%, 0.0% { stroke-dashoffset: 3339; }
    8.2%, 74.2% { stroke-dashoffset: 0; }
    74.3%, 100% { stroke-dashoffset: 3339; }
}
svg.acjk #stroke-p1 { animation-name: zk1; }
/* Stroke 2: Starts at 8.2%, finishes at 16.5%, holds until 74.2% */
@keyframes zk2 {
    0%, 8.2% { stroke-dashoffset: 3339; }
    16.5%, 74.2% { stroke-dashoffset: 0; }
    74.3%, 100% { stroke-dashoffset: 3339; }
}
svg.acjk #stroke-p2 { animation-name: zk2; }
/* Stroke 3: Starts at 16.5%, finishes at 24.7%, holds until 74.2% */
@keyframes zk3 {
    0%, 16.5% { stroke-dashoffset: 3339; }
    24.7%, 74.2% { stroke-dashoffset: 0; }
    74.3%, 100% { stroke-dashoffset: 3339; }
}
svg.acjk #stroke-p3 { animation-name: zk3; }
/* Stroke 4: Starts at 24.7%, finishes at 33.0%, holds until 74.2% */
@keyframes zk4 {
    0%, 24.7% { stroke-dashoffset: 3339; }
    33.0%, 74.2% { stroke-dashoffset: 0; }
    74.3%, 100% { stroke-dashoffset: 3339; }
}
svg.acjk #stroke-p4 { animation-name: zk4; }
/* Stroke 5: Starts at 33.0%, finishes at 41.2%, holds until 74.2% */
@keyframes zk5 {
    0%, 33.0% { stroke-dashoffset: 3339; }
    41.2%, 74.2% { stroke-dashoffset: 0; }
    74.3%, 100% { stroke-dashoffset: 3339; }
}
svg.acjk #stroke-p5 { animation-name: zk5; }
/* Stroke 6: Starts at 41.2%, finishes at 49.5%, holds until 74.2% */
@keyframes zk6 {
    0%, 41.2% { stroke-dashoffset: 3339; }
    49.5%, 74.2% { stroke-dashoffset: 0; }
    74.3%, 100% { stroke-dashoffset: 3339; }
}
svg.acjk #stroke-p6 { animation-name: zk6; }
/* Stroke 7: Starts at 49.5%, finishes at 57.7%, holds until 74.2% */
@keyframes zk7 {
    0%, 49.5% { stroke-dashoffset: 3339; }
    57.7%, 74.2% { stroke-dashoffset: 0; }
    74.3%, 100% { stroke-dashoffset: 3339; }
}
svg.acjk #stroke-p7 { animation-name: zk7; }
/* Stroke 8: Starts at 57.7%, finishes at 66.0%, holds until 74.2% */
@keyframes zk8 {
    0%, 57.7% { stroke-dashoffset: 3339; }
    66.0%, 74.2% { stroke-dashoffset: 0; }
    74.3%, 100% { stroke-dashoffset: 3339; }
}
svg.acjk #stroke-p8 { animation-name: zk8; }
/* Stroke 9: Starts at 66.0%, finishes at 74.2%, holds until 74.2% */
@keyframes zk9 {
    0%, 66.0% { stroke-dashoffset: 3339; }
    74.2%, 74.2% { stroke-dashoffset: 0; }
    74.3%, 100% { stroke-dashoffset: 3339; }
}
svg.acjk #stroke-p9 { animation-name: zk9; }
]]>
</style>
<defs>
    <path id="p1" d="M 624 241 C 656 239 712 235 792 243 C 802 243 810 240 814 234 C 818 226 816 215 806 207 C 758 167 706 177 646 186 C 609 191 609 191 591 194 C 532 202 470 211 405 218 C 372 221 372 221 355 223 C 304 228 251 231 197 237 C 176 239 172 246 187 257 C 217 278 260 282 315 271 C 331 267 347 264 364 262 C 393 257 393 257 407 255 C 432 250 494 246 580 243 C 609 242 609 242 624 241 Z"/>
    <path id="p2" d="M 405 218 C 403 193 403 171 403 151 C 403 137 396 129 384 124 C 357 111 336 104 321 110 C 308 114 306 124 317 139 C 341 172 349 200 355 223 C 361 249 361 249 364 262 C 370 291 373 314 387 328 C 395 336 402 335 406 327 C 410 315 409 291 407 255 C 406 230 406 230 405 218 Z"/>
    <path id="p3" d="M 646 186 C 646 184 648 182 649 180 C 655 165 661 146 674 127 C 681 115 683 108 678 102 C 669 91 652 81 630 69 C 618 63 607 62 596 69 C 589 72 589 78 594 86 C 603 103 603 140 591 194 C 584 227 584 227 580 243 C 572 277 565 300 566 313 C 566 321 572 322 583 315 C 590 309 606 285 624 241 C 639 204 639 204 646 186 Z"/>
    <path id="p4" d="M 523 362 C 524 360 526 358 529 356 C 537 348 540 340 539 334 C 537 324 526 316 509 310 C 488 302 474 298 466 300 C 460 301 456 305 454 315 C 428 401 316 512 119 649 C 112 653 105 658 98 663 C 82 673 84 678 104 676 C 176 668 279 606 407 483 C 455 435 486 399 505 380 C 517 368 517 368 523 362 Z"/>
    <path id="p5" d="M 505 380 Q 730 599 782 606 Q 836 615 947 586 Q 966 582 967 577 Q 968 570 954 565 Q 756 507 721 489 Q 646 452 526 364 Q 523 363 523 362 C 516 357 498 375 505 380 Z"/>
    <path id="p6" d="M 504 589 C 599 575 647 561 650 559 C 656 554 656 549 654 544 C 649 535 638 528 620 524 C 601 519 582 521 562 527 C 530 536 496 544 462 551 C 424 558 382 561 339 565 C 314 566 311 575 328 587 C 361 609 391 605 456 596 C 488 591 488 591 504 589 Z"/>
    <path id="p7" d="M 517 729 C 599 717 641 705 645 703 C 651 698 652 693 650 688 C 645 679 634 672 616 667 C 598 662 566 670 520 681 C 484 689 484 689 466 693 C 444 697 385 702 343 705 C 318 706 314 716 332 727 C 364 747 399 745 466 736 C 500 731 500 731 517 729 Z"/>
    <path id="p8" d="M 511 833 Q 514 778 517 729 C 519 697 519 697 520 681 Q 520 657 523 632 Q 530 611 505 590 C 504 589 504 589 504 589 C 493 578 451 581 456 596 Q 462 609 466 687 Q 465 688 466 693 C 466 722 466 722 466 736 Q 466 776 466 836 C 466 851 511 848 511 833 Z"/>
    <path id="p9" d="M 466 836 C 391 840 313 848 230 854 C 215 855 212 861 223 873 C 232 884 244 891 256 895 C 270 899 282 900 294 898 C 423 871 584 866 775 881 C 789 882 797 879 801 873 C 805 865 802 855 791 846 C 755 816 724 806 700 810 C 652 817 589 827 511 833 C 481 835 481 835 466 836 Z"/>

    <clipPath id="z33603c1"><use href="#p1"/></clipPath>
    <clipPath id="z33603c2"><use href="#p2"/></clipPath>
    <clipPath id="z33603c3"><use href="#p3"/></clipPath>
    <clipPath id="z33603c4"><use href="#p4"/></clipPath>
    <clipPath id="z33603c5"><use href="#p5"/></clipPath>
    <clipPath id="z33603c6"><use href="#p6"/></clipPath>
    <clipPath id="z33603c7"><use href="#p7"/></clipPath>
    <clipPath id="z33603c8"><use href="#p8"/></clipPath>
    <clipPath id="z33603c9"><use href="#p9"/></clipPath>
</defs>
<g id="bg-layer" class="bg">
<use href="#p1"/>
<use href="#p2"/>
<use href="#p3"/>
<use href="#p4"/>
<use href="#p5"/>
<use href="#p6"/>
<use href="#p7"/>
<use href="#p8"/>
<use href="#p9"/>
</g>
<g id="anim-layer">
    <path id="stroke-p1" style="stroke:#FF4444" pathLength="3333" clip-path="url(#z33603c1)" d="M 187 245 L 259 254 L 705 206 L 812 227"/>
    <path id="stroke-p2" style="stroke:#FF4444" pathLength="3333" clip-path="url(#z33603c2)" d="M 317 116 L 370 155 L 396 329"/>
    <path id="stroke-p3" style="stroke:#FF4444" pathLength="3333" clip-path="url(#z33603c3)" d="M 599 74 L 640 116 L 575 313"/>
    <path id="stroke-p4" style="stroke:#000" pathLength="3333" clip-path="url(#z33603c4)" d="M 468 312 L 487 340 L 402 448 L 262 573 L 95 670"/>
    <path id="stroke-p5" style="stroke:#000" pathLength="3333" clip-path="url(#z33603c5)" d="M 519 375 L 761 550 L 958 573"/>
    <path id="stroke-p6" style="stroke:#000" pathLength="3333" clip-path="url(#z33603c6)" d="M 327 576 L 650 548"/>
    <path id="stroke-p7" style="stroke:#000" pathLength="3333" clip-path="url(#z33603c7)" d="M 332 717 L 647 692"/>
    <path id="stroke-p8" style="stroke:#000" pathLength="3333" clip-path="url(#z33603c8)" d="M 464 598 L 493 630 L 479 833"/>
    <path id="stroke-p9" style="stroke:#000" pathLength="3333" clip-path="url(#z33603c9)" d="M 226 865 L 713 843 L 799 866"/>
</g>
</svg>