<svg id="z33631" class="acjk" viewBox="0 0 1024 1024" xmlns="http://www.w3.org/2000/svg">
<style>
<![CDATA[
svg.acjk path[clip-path] {
    animation-duration: 9.7s;
    animation-timing-function: linear;
    animation-iteration-count: infinite;
    stroke-dasharray: 3337;
    stroke-dashoffset: 3339;
    stroke-width: 128;
    stroke-linecap: round;
    fill: none;
    stroke: #FF4444;
}
svg.acjk .bg { fill: #ccc; opacity: 0.5; }

/* Stroke 1: Starts at 0.0%, finishes at 8.2%, holds until 74.2% */
@keyframes zk1 {
    0%, 0.0% { stroke-dashoffset: 3339; }
    8.2%, 74.2% { stroke-dashoffset: 0; }
    74.3%, 100% { stroke-dashoffset: 3339; }
}
svg.acjk #stroke-p1 { animation-name: zk1; }
/* Stroke 2: Starts at 8.2%, finishes at 16.5%, holds until 74.2% */
@keyframes zk2 {
    0%, 8.2% { stroke-dashoffset: 3339; }
    16.5%, 74.2% { stroke-dashoffset: 0; }
    74.3%, 100% { stroke-dashoffset: 3339; }
}
svg.acjk #stroke-p2 { animation-name: zk2; }
/* Stroke 3: Starts at 16.5%, finishes at 24.7%, holds until 74.2% */
@keyframes zk3 {
    0%, 16.5% { stroke-dashoffset: 3339; }
    24.7%, 74.2% { stroke-dashoffset: 0; }
    74.3%, 100% { stroke-dashoffset: 3339; }
}
svg.acjk #stroke-p3 { animation-name: zk3; }
/* Stroke 4: Starts at 24.7%, finishes at 33.0%, holds until 74.2% */
@keyframes zk4 {
    0%, 24.7% { stroke-dashoffset: 3339; }
    33.0%, 74.2% { stroke-dashoffset: 0; }
    74.3%, 100% { stroke-dashoffset: 3339; }
}
svg.acjk #stroke-p4 { animation-name: zk4; }
/* Stroke 5: Starts at 33.0%, finishes at 41.2%, holds until 74.2% */
@keyframes zk5 {
    0%, 33.0% { stroke-dashoffset: 3339; }
    41.2%, 74.2% { stroke-dashoffset: 0; }
    74.3%, 100% { stroke-dashoffset: 3339; }
}
svg.acjk #stroke-p5 { animation-name: zk5; }
/* Stroke 6: Starts at 41.2%, finishes at 49.5%, holds until 74.2% */
@keyframes zk6 {
    0%, 41.2% { stroke-dashoffset: 3339; }
    49.5%, 74.2% { stroke-dashoffset: 0; }
    74.3%, 100% { stroke-dashoffset: 3339; }
}
svg.acjk #stroke-p6 { animation-name: zk6; }
/* Stroke 7: Starts at 49.5%, finishes at 57.7%, holds until 74.2% */
@keyframes zk7 {
    0%, 49.5% { stroke-dashoffset: 3339; }
    57.7%, 74.2% { stroke-dashoffset: 0; }
    74.3%, 100% { stroke-dashoffset: 3339; }
}
svg.acjk #stroke-p7 { animation-name: zk7; }
/* Stroke 8: Starts at 57.7%, finishes at 66.0%, holds until 74.2% */
@keyframes zk8 {
    0%, 57.7% { stroke-dashoffset: 3339; }
    66.0%, 74.2% { stroke-dashoffset: 0; }
    74.3%, 100% { stroke-dashoffset: 3339; }
}
svg.acjk #stroke-p8 { animation-name: zk8; }
/* Stroke 9: Starts at 66.0%, finishes at 74.2%, holds until 74.2% */
@keyframes zk9 {
    0%, 66.0% { stroke-dashoffset: 3339; }
    74.2%, 74.2% { stroke-dashoffset: 0; }
    74.3%, 100% { stroke-dashoffset: 3339; }
}
svg.acjk #stroke-p9 { animation-name: zk9; }
]]>
</style>
<defs>
    <path id="p1" d="M 632 240 C 676 237 733 234 805 241 C 815 242 822 239 826 233 C 830 225 827 215 818 206 C 786 175 707 181 655 189 C 620 194 620 194 602 197 C 542 206 464 215 404 221 C 375 224 375 224 360 225 C 313 229 265 233 216 238 C 196 239 192 247 207 257 C 238 277 280 281 331 270 C 343 267 355 264 368 263 C 394 259 394 259 407 257 C 439 252 500 246 591 242 C 618 241 618 241 632 240 Z"/>
    <path id="p2" d="M 404 221 C 401 192 399 167 400 147 C 400 134 396 127 383 122 C 354 111 335 105 324 110 C 311 114 310 123 321 137 C 338 159 352 188 360 225 C 365 250 365 250 368 263 C 372 283 378 299 388 309 C 395 316 402 315 405 308 C 406 304 409 286 407 257 C 405 233 405 233 404 221 Z"/>
    <path id="p3" d="M 655 189 C 662 172 668 151 684 130 C 692 118 694 112 688 105 C 679 95 664 83 643 72 C 632 66 621 65 610 72 C 603 75 604 80 608 88 C 617 107 614 145 602 197 C 595 227 595 227 591 242 C 586 261 582 276 583 289 C 583 297 589 299 599 292 C 607 285 617 272 627 251 C 628 247 630 243 632 240 C 647 206 647 206 655 189 Z"/>
    <path id="p4" d="M 536 356 C 543 349 535 335 528 325 C 520 314 510 306 499 300 C 486 293 476 290 469 290 C 463 290 460 294 460 303 C 460 361 400 440 280 538 C 277 539 275 540 273 543 C 239 569 181 606 99 653 C 93 656 92 660 100 661 C 138 665 205 638 296 578 C 363 532 432 464 509 382 C 511 379 513 376 516 374 C 522 368 532 364 536 356 Z"/>
    <path id="p5" d="M 516 374 Q 622 488 738 590 Q 763 614 804 613 Q 879 614 956 596 Q 975 593 977 588 Q 980 581 963 575 Q 908 556 845 538 Q 709 498 539 358 Q 536 357 536 356 C 528 351 511 367 516 374 Z"/>
    <path id="p6" d="M 396 534 C 371 537 368 546 387 557 C 416 573 449 573 487 564 C 515 556 545 551 576 545 C 590 542 597 539 600 537 C 605 530 607 525 604 520 C 598 511 585 505 566 502 C 548 499 512 507 459 523 C 439 528 417 530 396 534 Z"/>
    <path id="p7" d="M 508 672 C 547 666 598 664 658 664 C 690 663 708 661 712 654 C 715 646 711 637 701 630 C 662 601 624 601 581 611 C 412 648 311 661 283 666 C 270 668 268 674 279 685 C 287 693 298 699 310 702 C 324 704 336 704 346 702 C 374 693 415 685 439 682 C 485 675 485 675 508 672 Z"/>
    <path id="p8" d="M 619 806 C 550 812 480 819 408 827 C 402 827 398 827 398 826 C 397 825 398 822 402 818 C 454 755 490 717 510 702 C 520 693 522 685 517 680 C 514 677 511 674 508 672 C 489 658 439 659 439 682 C 439 714 414 751 369 797 C 355 810 337 824 311 835 C 292 842 282 848 282 855 C 281 865 283 878 289 892 C 294 906 302 914 310 918 C 314 920 321 921 329 917 C 396 881 493 855 632 825 C 640 824 627 806 619 806 Z"/>
    <path id="p9" d="M 632 825 C 670 880 694 909 700 912 C 705 914 711 911 717 906 C 725 897 727 879 725 850 C 722 814 674 772 582 722 C 576 718 573 718 571 727 C 568 735 587 760 619 806 C 628 819 628 819 632 825 Z"/>

    <clipPath id="z33631c1"><use href="#p1"/></clipPath>
    <clipPath id="z33631c2"><use href="#p2"/></clipPath>
    <clipPath id="z33631c3"><use href="#p3"/></clipPath>
    <clipPath id="z33631c4"><use href="#p4"/></clipPath>
    <clipPath id="z33631c5"><use href="#p5"/></clipPath>
    <clipPath id="z33631c6"><use href="#p6"/></clipPath>
    <clipPath id="z33631c7"><use href="#p7"/></clipPath>
    <clipPath id="z33631c8"><use href="#p8"/></clipPath>
    <clipPath id="z33631c9"><use href="#p9"/></clipPath>
</defs>
<g id="bg-layer" class="bg">
<use href="#p1"/>
<use href="#p2"/>
<use href="#p3"/>
<use href="#p4"/>
<use href="#p5"/>
<use href="#p6"/>
<use href="#p7"/>
<use href="#p8"/>
<use href="#p9"/>
</g>
<g id="anim-layer">
    <path id="stroke-p1" style="stroke:#FF4444" pathLength="3333" clip-path="url(#z33631c1)" d="M 205 246 L 714 207 L 823 219"/>
    <path id="stroke-p2" style="stroke:#FF4444" pathLength="3333" clip-path="url(#z33631c2)" d="M 322 118 L 371 155 L 398 306"/>
    <path id="stroke-p3" style="stroke:#FF4444" pathLength="3333" clip-path="url(#z33631c3)" d="M 614 77 L 652 119 L 594 291"/>
    <path id="stroke-p4" style="stroke:#000" pathLength="3333" clip-path="url(#z33631c4)" d="M 468 295 L 494 347 L 390 470 L 249 584 L 105 656"/>
    <path id="stroke-p5" style="stroke:#000" pathLength="3333" clip-path="url(#z33631c5)" d="M 532 364 L 781 564 L 971 585"/>
    <path id="stroke-p6" style="stroke:#000" pathLength="3333" clip-path="url(#z33631c6)" d="M 383 544 L 598 524"/>
    <path id="stroke-p7" style="stroke:#000" pathLength="3333" clip-path="url(#z33631c7)" d="M 278 674 L 612 634 L 709 647"/>
    <path id="stroke-p8" style="stroke:#000" pathLength="3333" clip-path="url(#z33631c8)" d="M 448 687 L 483 695 L 339 838 L 344 877 L 625 819"/>
    <path id="stroke-p9" style="stroke:#000" pathLength="3333" clip-path="url(#z33631c9)" d="M 578 728 L 686 840 L 706 904"/>
</g>
</svg>