<svg id="z33644" class="acjk" viewBox="0 0 1024 1024" xmlns="http://www.w3.org/2000/svg">
<style>
<![CDATA[
svg.acjk path[clip-path] {
    animation-duration: 9.7s;
    animation-timing-function: linear;
    animation-iteration-count: infinite;
    stroke-dasharray: 3337;
    stroke-dashoffset: 3339;
    stroke-width: 128;
    stroke-linecap: round;
    fill: none;
    stroke: #FF4444;
}
svg.acjk .bg { fill: #ccc; opacity: 0.5; }

/* Stroke 1: Starts at 0.0%, finishes at 8.2%, holds until 74.2% */
@keyframes zk1 {
    0%, 0.0% { stroke-dashoffset: 3339; }
    8.2%, 74.2% { stroke-dashoffset: 0; }
    74.3%, 100% { stroke-dashoffset: 3339; }
}
svg.acjk #stroke-p1 { animation-name: zk1; }
/* Stroke 2: Starts at 8.2%, finishes at 16.5%, holds until 74.2% */
@keyframes zk2 {
    0%, 8.2% { stroke-dashoffset: 3339; }
    16.5%, 74.2% { stroke-dashoffset: 0; }
    74.3%, 100% { stroke-dashoffset: 3339; }
}
svg.acjk #stroke-p2 { animation-name: zk2; }
/* Stroke 3: Starts at 16.5%, finishes at 24.7%, holds until 74.2% */
@keyframes zk3 {
    0%, 16.5% { stroke-dashoffset: 3339; }
    24.7%, 74.2% { stroke-dashoffset: 0; }
    74.3%, 100% { stroke-dashoffset: 3339; }
}
svg.acjk #stroke-p3 { animation-name: zk3; }
/* Stroke 4: Starts at 24.7%, finishes at 33.0%, holds until 74.2% */
@keyframes zk4 {
    0%, 24.7% { stroke-dashoffset: 3339; }
    33.0%, 74.2% { stroke-dashoffset: 0; }
    74.3%, 100% { stroke-dashoffset: 3339; }
}
svg.acjk #stroke-p4 { animation-name: zk4; }
/* Stroke 5: Starts at 33.0%, finishes at 41.2%, holds until 74.2% */
@keyframes zk5 {
    0%, 33.0% { stroke-dashoffset: 3339; }
    41.2%, 74.2% { stroke-dashoffset: 0; }
    74.3%, 100% { stroke-dashoffset: 3339; }
}
svg.acjk #stroke-p5 { animation-name: zk5; }
/* Stroke 6: Starts at 41.2%, finishes at 49.5%, holds until 74.2% */
@keyframes zk6 {
    0%, 41.2% { stroke-dashoffset: 3339; }
    49.5%, 74.2% { stroke-dashoffset: 0; }
    74.3%, 100% { stroke-dashoffset: 3339; }
}
svg.acjk #stroke-p6 { animation-name: zk6; }
/* Stroke 7: Starts at 49.5%, finishes at 57.7%, holds until 74.2% */
@keyframes zk7 {
    0%, 49.5% { stroke-dashoffset: 3339; }
    57.7%, 74.2% { stroke-dashoffset: 0; }
    74.3%, 100% { stroke-dashoffset: 3339; }
}
svg.acjk #stroke-p7 { animation-name: zk7; }
/* Stroke 8: Starts at 57.7%, finishes at 66.0%, holds until 74.2% */
@keyframes zk8 {
    0%, 57.7% { stroke-dashoffset: 3339; }
    66.0%, 74.2% { stroke-dashoffset: 0; }
    74.3%, 100% { stroke-dashoffset: 3339; }
}
svg.acjk #stroke-p8 { animation-name: zk8; }
/* Stroke 9: Starts at 66.0%, finishes at 74.2%, holds until 74.2% */
@keyframes zk9 {
    0%, 66.0% { stroke-dashoffset: 3339; }
    74.2%, 74.2% { stroke-dashoffset: 0; }
    74.3%, 100% { stroke-dashoffset: 3339; }
}
svg.acjk #stroke-p9 { animation-name: zk9; }
]]>
</style>
<defs>
    <path id="p1" d="M 628 236 Q 734 229 832 235 Q 848 236 855 226 Q 859 214 846 199 Q 794 154 706 175 Q 678 179 649 185 C 612 191 612 191 593 194 Q 518 204 438 216 C 406 220 406 220 390 222 Q 300 229 201 241 Q 170 244 191 261 Q 236 289 309 276 Q 355 264 400 258 C 429 253 429 253 443 251 Q 507 242 581 239 C 612 237 612 237 628 236 Z"/>
    <path id="p2" d="M 438 216 Q 434 179 432 151 Q 433 132 413 126 Q 373 108 351 116 Q 333 126 349 144 Q 379 177 390 222 C 397 246 397 246 400 258 Q 418 312 427 321 Q 440 331 445 319 Q 448 304 443 251 C 440 228 440 228 438 216 Z"/>
    <path id="p3" d="M 649 185 Q 650 182 651 180 Q 660 158 677 128 Q 692 112 681 102 Q 669 86 634 68 Q 618 59 600 68 Q 590 74 598 85 Q 607 106 605 131 Q 601 159 593 194 C 585 224 585 224 581 239 Q 565 299 566 313 Q 567 326 583 316 Q 602 300 628 236 C 642 202 642 202 649 185 Z"/>
    <path id="p4" d="M 296 431 Q 386 403 614 373 Q 684 364 703 368 Q 719 372 719 379 Q 719 383 671 455 Q 664 467 669 472 Q 675 476 692 467 Q 750 433 797 425 Q 836 415 836 407 Q 835 397 770 341 Q 746 322 680 334 Q 560 347 349 381 Q 297 388 243 394 Q 212 397 232 413 Q 263 440 296 431 Z"/>
    <path id="p5" d="M 347 480 Q 416 535 438 534 Q 451 533 454 514 Q 454 501 441 484 Q 428 469 403 465 Q 363 455 347 454 Q 338 454 339 465 Q 339 472 347 480 Z"/>
    <path id="p6" d="M 337 603 Q 362 619 391 639 Q 404 649 418 646 Q 427 645 429 632 Q 430 619 419 594 Q 412 578 384 570 Q 315 560 307 565 Q 304 569 307 580 Q 311 589 337 603 Z"/>
    <path id="p7" d="M 537 708 Q 591 702 871 703 Q 893 704 898 695 Q 905 682 887 667 Q 830 625 791 632 Q 697 650 547 669 C 511 674 511 674 493 676 Q 328 694 134 713 Q 112 714 128 733 Q 143 748 162 754 Q 184 761 201 756 Q 331 723 483 712 C 519 709 519 709 537 708 Z"/>
    <path id="p8" d="M 483 712 Q 444 814 294 889 Q 266 901 232 915 Q 219 919 215 922 Q 209 928 225 932 Q 322 938 446 854 Q 465 838 482 819 Q 516 779 536 714 Q 536 711 537 708 C 544 682 544 682 547 669 Q 557 615 566 535 Q 567 507 580 475 Q 586 463 577 456 Q 558 438 522 423 Q 500 413 483 419 Q 464 426 479 444 Q 525 496 494 674 Q 493 674 493 676 C 486 700 486 700 483 712 Z"/>
    <path id="p9" d="M 586 794 Q 662 846 757 924 Q 776 943 793 945 Q 803 945 809 933 Q 819 917 800 873 Q 773 807 582 762 Q 572 758 572 771 Q 573 784 586 794 Z"/>

    <clipPath id="z33644c1"><use href="#p1"/></clipPath>
    <clipPath id="z33644c2"><use href="#p2"/></clipPath>
    <clipPath id="z33644c3"><use href="#p3"/></clipPath>
    <clipPath id="z33644c4"><use href="#p4"/></clipPath>
    <clipPath id="z33644c5"><use href="#p5"/></clipPath>
    <clipPath id="z33644c6"><use href="#p6"/></clipPath>
    <clipPath id="z33644c7"><use href="#p7"/></clipPath>
    <clipPath id="z33644c8"><use href="#p8"/></clipPath>
    <clipPath id="z33644c9"><use href="#p9"/></clipPath>
</defs>
<g id="bg-layer" class="bg">
<use href="#p1"/>
<use href="#p2"/>
<use href="#p3"/>
<use href="#p4"/>
<use href="#p5"/>
<use href="#p6"/>
<use href="#p7"/>
<use href="#p8"/>
<use href="#p9"/>
</g>
<g id="anim-layer">
    <path id="stroke-p1" style="stroke:#FF4444" pathLength="3333" clip-path="url(#z33644c1)" d="M 192 250 L 748 200 L 852 217"/>
    <path id="stroke-p2" style="stroke:#FF4444" pathLength="3333" clip-path="url(#z33644c2)" d="M 346 126 L 401 158 L 433 318"/>
    <path id="stroke-p3" style="stroke:#FF4444" pathLength="3333" clip-path="url(#z33644c3)" d="M 601 70 L 644 119 L 575 314"/>
    <path id="stroke-p4" style="stroke:#000" pathLength="3333" clip-path="url(#z33644c4)" d="M 230 403 L 731 352 L 776 407 L 674 465"/>
    <path id="stroke-p5" style="stroke:#000" pathLength="3333" clip-path="url(#z33644c5)" d="M 344 463 L 448 525"/>
    <path id="stroke-p6" style="stroke:#000" pathLength="3333" clip-path="url(#z33644c6)" d="M 313 571 L 425 635"/>
    <path id="stroke-p7" style="stroke:#000" pathLength="3333" clip-path="url(#z33644c7)" d="M 130 723 L 195 732 L 795 667 L 897 688"/>
    <path id="stroke-p8" style="stroke:#000" pathLength="3333" clip-path="url(#z33644c8)" d="M 478 427 L 541 476 L 521 666 L 488 762 L 379 867 L 225 925"/>
    <path id="stroke-p9" style="stroke:#000" pathLength="3333" clip-path="url(#z33644c9)" d="M 579 771 L 725 850 L 804 936"/>
</g>
</svg>