<svg id="z33705" class="acjk" viewBox="0 0 1024 1024" xmlns="http://www.w3.org/2000/svg">
<style>
<![CDATA[
svg.acjk path[clip-path] {
    animation-duration: 10.5s;
    animation-timing-function: linear;
    animation-iteration-count: infinite;
    stroke-dasharray: 3337;
    stroke-dashoffset: 3339;
    stroke-width: 128;
    stroke-linecap: round;
    fill: none;
    stroke: #FF4444;
}
svg.acjk .bg { fill: #ccc; opacity: 0.5; }

/* Stroke 1: Starts at 0.0%, finishes at 7.6%, holds until 76.2% */
@keyframes zk1 {
    0%, 0.0% { stroke-dashoffset: 3339; }
    7.6%, 76.2% { stroke-dashoffset: 0; }
    76.3%, 100% { stroke-dashoffset: 3339; }
}
svg.acjk #stroke-p1 { animation-name: zk1; }
/* Stroke 2: Starts at 7.6%, finishes at 15.2%, holds until 76.2% */
@keyframes zk2 {
    0%, 7.6% { stroke-dashoffset: 3339; }
    15.2%, 76.2% { stroke-dashoffset: 0; }
    76.3%, 100% { stroke-dashoffset: 3339; }
}
svg.acjk #stroke-p2 { animation-name: zk2; }
/* Stroke 3: Starts at 15.2%, finishes at 22.9%, holds until 76.2% */
@keyframes zk3 {
    0%, 15.2% { stroke-dashoffset: 3339; }
    22.9%, 76.2% { stroke-dashoffset: 0; }
    76.3%, 100% { stroke-dashoffset: 3339; }
}
svg.acjk #stroke-p3 { animation-name: zk3; }
/* Stroke 4: Starts at 22.9%, finishes at 30.5%, holds until 76.2% */
@keyframes zk4 {
    0%, 22.9% { stroke-dashoffset: 3339; }
    30.5%, 76.2% { stroke-dashoffset: 0; }
    76.3%, 100% { stroke-dashoffset: 3339; }
}
svg.acjk #stroke-p4 { animation-name: zk4; }
/* Stroke 5: Starts at 30.5%, finishes at 38.1%, holds until 76.2% */
@keyframes zk5 {
    0%, 30.5% { stroke-dashoffset: 3339; }
    38.1%, 76.2% { stroke-dashoffset: 0; }
    76.3%, 100% { stroke-dashoffset: 3339; }
}
svg.acjk #stroke-p5 { animation-name: zk5; }
/* Stroke 6: Starts at 38.1%, finishes at 45.7%, holds until 76.2% */
@keyframes zk6 {
    0%, 38.1% { stroke-dashoffset: 3339; }
    45.7%, 76.2% { stroke-dashoffset: 0; }
    76.3%, 100% { stroke-dashoffset: 3339; }
}
svg.acjk #stroke-p6 { animation-name: zk6; }
/* Stroke 7: Starts at 45.7%, finishes at 53.3%, holds until 76.2% */
@keyframes zk7 {
    0%, 45.7% { stroke-dashoffset: 3339; }
    53.3%, 76.2% { stroke-dashoffset: 0; }
    76.3%, 100% { stroke-dashoffset: 3339; }
}
svg.acjk #stroke-p7 { animation-name: zk7; }
/* Stroke 8: Starts at 53.3%, finishes at 61.0%, holds until 76.2% */
@keyframes zk8 {
    0%, 53.3% { stroke-dashoffset: 3339; }
    61.0%, 76.2% { stroke-dashoffset: 0; }
    76.3%, 100% { stroke-dashoffset: 3339; }
}
svg.acjk #stroke-p8 { animation-name: zk8; }
/* Stroke 9: Starts at 61.0%, finishes at 68.6%, holds until 76.2% */
@keyframes zk9 {
    0%, 61.0% { stroke-dashoffset: 3339; }
    68.6%, 76.2% { stroke-dashoffset: 0; }
    76.3%, 100% { stroke-dashoffset: 3339; }
}
svg.acjk #stroke-p9 { animation-name: zk9; }
/* Stroke 10: Starts at 68.6%, finishes at 76.2%, holds until 76.2% */
@keyframes zk10 {
    0%, 68.6% { stroke-dashoffset: 3339; }
    76.2%, 76.2% { stroke-dashoffset: 0; }
    76.3%, 100% { stroke-dashoffset: 3339; }
}
svg.acjk #stroke-p10 { animation-name: zk10; }
]]>
</style>
<defs>
    <path id="p1" d="M 621 207 C 665 204 718 204 786 209 C 811 210 816 190 798 174 C 761 140 695 148 646 157 C 609 164 609 164 590 167 C 537 176 481 183 422 191 C 390 195 390 195 374 197 C 323 203 270 207 216 214 C 195 216 191 223 206 233 C 233 250 272 255 322 247 C 342 243 362 237 384 234 C 411 229 411 229 425 227 C 449 222 501 212 579 209 C 607 208 607 208 621 207 Z"/>
    <path id="p2" d="M 422 191 C 420 170 418 151 419 135 C 419 122 412 115 400 110 C 372 99 352 93 339 99 C 326 104 324 115 336 127 C 356 148 365 169 374 197 C 381 222 381 222 384 234 C 388 256 395 274 407 285 C 415 292 422 291 425 283 C 430 268 429 249 425 227 C 423 203 423 203 422 191 Z"/>
    <path id="p3" d="M 646 157 C 646 156 646 156 647 156 C 652 144 658 129 670 116 C 677 106 679 100 674 93 C 666 82 653 71 632 59 C 612 47 587 56 598 73 C 605 85 602 117 590 167 C 583 195 583 195 579 209 C 572 234 567 254 567 261 C 567 269 573 271 583 265 C 587 261 604 240 621 207 C 638 174 638 174 646 157 Z"/>
    <path id="p4" d="M 478 282 C 449 303 396 326 322 358 C 316 360 317 368 321 368 C 406 357 533 324 566 319 C 590 314 590 300 579 289 C 568 278 549 268 524 256 C 497 242 493 250 492 261 C 491 269 486 275 478 282 Z"/>
    <path id="p5" d="M 293 430 C 308 443 323 459 340 476 C 347 483 369 495 377 475 C 379 467 379 455 375 439 C 372 428 363 416 345 409 C 305 391 280 385 272 389 C 268 390 267 396 269 403 C 270 409 279 418 293 430 Z"/>
    <path id="p6" d="M 439 388 C 454 414 468 434 486 443 C 499 449 510 435 510 418 C 509 405 504 396 497 389 C 470 365 449 354 434 358 C 431 358 429 361 429 368 C 428 372 433 378 439 388 Z"/>
    <path id="p7" d="M 572 427 C 563 436 566 443 577 440 C 674 403 685 384 721 373 C 754 362 724 331 700 314 C 669 293 657 298 657 314 C 654 359 601 395 572 427 Z"/>
    <path id="p8" d="M 519 620 C 585 569 628 542 647 538 C 659 534 663 526 661 516 C 658 505 637 487 596 463 C 583 455 570 456 556 461 C 513 474 459 487 396 504 C 379 508 351 508 312 506 C 297 504 291 511 297 524 C 300 533 309 540 321 548 C 340 560 360 557 383 548 C 398 541 448 528 530 504 C 545 499 571 509 560 528 C 545 552 525 576 506 605 C 503 611 514 624 519 620 Z"/>
    <path id="p9" d="M 533 644 C 530 637 524 627 519 620 C 515 614 510 609 506 605 C 477 579 457 579 470 606 C 477 620 479 631 485 649 C 488 661 491 674 493 687 C 501 763 495 807 488 835 C 482 858 477 863 455 864 C 438 864 413 861 380 858 C 361 856 361 861 376 872 C 416 900 446 927 471 952 C 482 963 494 965 505 959 C 519 950 529 928 539 893 C 559 813 545 695 543 684 C 539 666 538 656 533 644 Z"/>
    <path id="p10" d="M 543 684 C 617 679 707 679 814 684 C 867 686 897 684 902 678 C 907 669 903 658 890 648 C 850 614 807 605 762 613 C 701 623 625 634 533 644 C 501 647 501 647 485 649 C 376 660 258 668 131 679 C 115 680 111 687 124 701 C 145 724 173 733 203 727 C 289 708 386 693 493 687 C 526 685 526 685 543 684 Z"/>

    <clipPath id="z33705c1"><use href="#p1"/></clipPath>
    <clipPath id="z33705c2"><use href="#p2"/></clipPath>
    <clipPath id="z33705c3"><use href="#p3"/></clipPath>
    <clipPath id="z33705c4"><use href="#p4"/></clipPath>
    <clipPath id="z33705c5"><use href="#p5"/></clipPath>
    <clipPath id="z33705c6"><use href="#p6"/></clipPath>
    <clipPath id="z33705c7"><use href="#p7"/></clipPath>
    <clipPath id="z33705c8"><use href="#p8"/></clipPath>
    <clipPath id="z33705c9"><use href="#p9"/></clipPath>
    <clipPath id="z33705c10"><use href="#p10"/></clipPath>
</defs>
<g id="bg-layer" class="bg">
<use href="#p1"/>
<use href="#p2"/>
<use href="#p3"/>
<use href="#p4"/>
<use href="#p5"/>
<use href="#p6"/>
<use href="#p7"/>
<use href="#p8"/>
<use href="#p9"/>
<use href="#p10"/>
</g>
<g id="anim-layer">
    <path id="stroke-p1" style="stroke:#FF4444" pathLength="3333" clip-path="url(#z33705c1)" d="M 204 222 L 304 227 L 693 177 L 804 185"/>
    <path id="stroke-p2" style="stroke:#FF4444" pathLength="3333" clip-path="url(#z33705c2)" d="M 334 112 L 387 141 L 414 285"/>
    <path id="stroke-p3" style="stroke:#FF4444" pathLength="3333" clip-path="url(#z33705c3)" d="M 603 62 L 638 106 L 575 263"/>
    <path id="stroke-p4" style="stroke:#000" pathLength="3333" clip-path="url(#z33705c4)" d="M 502 254 L 525 310 L 324 362"/>
    <path id="stroke-p5" style="stroke:#000" pathLength="3333" clip-path="url(#z33705c5)" d="M 273 394 L 338 435 L 367 482"/>
    <path id="stroke-p6" style="stroke:#000" pathLength="3333" clip-path="url(#z33705c6)" d="M 437 363 L 502 436"/>
    <path id="stroke-p7" style="stroke:#000" pathLength="3333" clip-path="url(#z33705c7)" d="M 668 306 L 683 365 L 573 434"/>
    <path id="stroke-p8" style="stroke:#000" pathLength="3333" clip-path="url(#z33705c8)" d="M 299 515 L 367 530 L 571 483 L 609 529 L 513 613"/>
    <path id="stroke-p9" style="stroke:#000" pathLength="3333" clip-path="url(#z33705c9)" d="M 473 594 L 518 685 L 510 875 L 479 912 L 377 862"/>
    <path id="stroke-p10" style="stroke:#000" pathLength="3333" clip-path="url(#z33705c10)" d="M 122 686 L 188 701 L 786 646 L 899 669"/>
</g>
</svg>