<svg id="z33728" class="acjk" viewBox="0 0 1024 1024" xmlns="http://www.w3.org/2000/svg">
<style>
<![CDATA[
svg.acjk path[clip-path] {
    animation-duration: 11.3s;
    animation-timing-function: linear;
    animation-iteration-count: infinite;
    stroke-dasharray: 3337;
    stroke-dashoffset: 3339;
    stroke-width: 128;
    stroke-linecap: round;
    fill: none;
    stroke: #FF4444;
}
svg.acjk .bg { fill: #ccc; opacity: 0.5; }

/* Stroke 1: Starts at 0.0%, finishes at 7.1%, holds until 77.9% */
@keyframes zk1 {
    0%, 0.0% { stroke-dashoffset: 3339; }
    7.1%, 77.9% { stroke-dashoffset: 0; }
    78.0%, 100% { stroke-dashoffset: 3339; }
}
svg.acjk #stroke-p1 { animation-name: zk1; }
/* Stroke 2: Starts at 7.1%, finishes at 14.2%, holds until 77.9% */
@keyframes zk2 {
    0%, 7.1% { stroke-dashoffset: 3339; }
    14.2%, 77.9% { stroke-dashoffset: 0; }
    78.0%, 100% { stroke-dashoffset: 3339; }
}
svg.acjk #stroke-p2 { animation-name: zk2; }
/* Stroke 3: Starts at 14.2%, finishes at 21.2%, holds until 77.9% */
@keyframes zk3 {
    0%, 14.2% { stroke-dashoffset: 3339; }
    21.2%, 77.9% { stroke-dashoffset: 0; }
    78.0%, 100% { stroke-dashoffset: 3339; }
}
svg.acjk #stroke-p3 { animation-name: zk3; }
/* Stroke 4: Starts at 21.2%, finishes at 28.3%, holds until 77.9% */
@keyframes zk4 {
    0%, 21.2% { stroke-dashoffset: 3339; }
    28.3%, 77.9% { stroke-dashoffset: 0; }
    78.0%, 100% { stroke-dashoffset: 3339; }
}
svg.acjk #stroke-p4 { animation-name: zk4; }
/* Stroke 5: Starts at 28.3%, finishes at 35.4%, holds until 77.9% */
@keyframes zk5 {
    0%, 28.3% { stroke-dashoffset: 3339; }
    35.4%, 77.9% { stroke-dashoffset: 0; }
    78.0%, 100% { stroke-dashoffset: 3339; }
}
svg.acjk #stroke-p5 { animation-name: zk5; }
/* Stroke 6: Starts at 35.4%, finishes at 42.5%, holds until 77.9% */
@keyframes zk6 {
    0%, 35.4% { stroke-dashoffset: 3339; }
    42.5%, 77.9% { stroke-dashoffset: 0; }
    78.0%, 100% { stroke-dashoffset: 3339; }
}
svg.acjk #stroke-p6 { animation-name: zk6; }
/* Stroke 7: Starts at 42.5%, finishes at 49.6%, holds until 77.9% */
@keyframes zk7 {
    0%, 42.5% { stroke-dashoffset: 3339; }
    49.6%, 77.9% { stroke-dashoffset: 0; }
    78.0%, 100% { stroke-dashoffset: 3339; }
}
svg.acjk #stroke-p7 { animation-name: zk7; }
/* Stroke 8: Starts at 49.6%, finishes at 56.6%, holds until 77.9% */
@keyframes zk8 {
    0%, 49.6% { stroke-dashoffset: 3339; }
    56.6%, 77.9% { stroke-dashoffset: 0; }
    78.0%, 100% { stroke-dashoffset: 3339; }
}
svg.acjk #stroke-p8 { animation-name: zk8; }
/* Stroke 9: Starts at 56.6%, finishes at 63.7%, holds until 77.9% */
@keyframes zk9 {
    0%, 56.6% { stroke-dashoffset: 3339; }
    63.7%, 77.9% { stroke-dashoffset: 0; }
    78.0%, 100% { stroke-dashoffset: 3339; }
}
svg.acjk #stroke-p9 { animation-name: zk9; }
/* Stroke 10: Starts at 63.7%, finishes at 70.8%, holds until 77.9% */
@keyframes zk10 {
    0%, 63.7% { stroke-dashoffset: 3339; }
    70.8%, 77.9% { stroke-dashoffset: 0; }
    78.0%, 100% { stroke-dashoffset: 3339; }
}
svg.acjk #stroke-p10 { animation-name: zk10; }
/* Stroke 11: Starts at 70.8%, finishes at 77.9%, holds until 77.9% */
@keyframes zk11 {
    0%, 70.8% { stroke-dashoffset: 3339; }
    77.9%, 77.9% { stroke-dashoffset: 0; }
    78.0%, 100% { stroke-dashoffset: 3339; }
}
svg.acjk #stroke-p11 { animation-name: zk11; }
]]>
</style>
<defs>
    <path id="p1" d="M 616 216 Q 676 203 789 211 Q 805 212 811 202 Q 817 190 802 175 Q 747 130 654 156 Q 645 157 637 160 C 600 167 600 167 582 170 Q 497 183 398 198 C 366 202 366 202 350 204 Q 283 211 212 220 Q 181 224 203 240 Q 249 270 329 252 Q 342 248 360 246 C 387 240 387 240 401 237 Q 443 227 572 218 C 601 217 601 217 616 216 Z"/>
    <path id="p2" d="M 398 198 Q 395 165 395 140 Q 396 121 376 115 Q 339 94 315 103 Q 296 112 312 131 Q 339 164 350 204 C 357 232 357 232 360 246 Q 363 282 383 304 Q 396 314 401 303 Q 408 284 403 261 Q 402 248 401 237 C 399 211 399 211 398 198 Z"/>
    <path id="p3" d="M 637 160 Q 644 141 657 119 Q 670 106 660 96 Q 648 80 616 65 Q 600 56 584 65 Q 575 71 583 81 Q 592 103 582 170 C 575 202 575 202 572 218 Q 557 272 559 290 Q 560 303 574 292 Q 589 280 616 216 C 630 179 630 179 637 160 Z"/>
    <path id="p4" d="M 534 352 Q 535 340 532 323 Q 525 295 454 275 Q 441 271 436 273 Q 432 276 432 287 Q 432 290 495 357 C 504 366 534 365 534 352 Z"/>
    <path id="p5" d="M 270 390 Q 260 368 251 359 Q 235 344 231 368 Q 231 401 191 442 Q 146 479 171 537 Q 183 564 205 539 Q 223 517 237 484 Q 253 444 267 420 C 272 411 274 399 270 390 Z"/>
    <path id="p6" d="M 267 420 Q 291 433 316 427 Q 466 381 654 365 Q 687 361 699 364 Q 715 374 713 382 Q 713 383 681 458 Q 674 471 681 475 Q 688 479 704 467 Q 759 430 804 416 Q 841 404 840 395 Q 839 385 768 334 Q 744 316 688 329 Q 597 338 534 352 C 508 355 508 355 495 357 Q 437 364 364 377 Q 316 384 270 390 C 260 392 258 416 267 420 Z"/>
    <path id="p7" d="M 315 565 Q 319 561 323 555 Q 339 530 354 519 Q 361 512 359 500 Q 356 490 336 472 Q 317 456 302 456 Q 289 456 293 473 Q 306 506 238 601 Q 207 644 163 693 Q 154 700 152 705 Q 149 712 160 712 Q 196 705 296 589 C 309 573 309 573 315 565 Z"/>
    <path id="p8" d="M 318 753 Q 317 753 317 755 Q 271 825 192 892 Q 170 907 190 905 Q 253 901 339 798 Q 394 734 436 647 Q 455 605 469 593 Q 481 584 475 573 Q 471 563 422 542 Q 410 538 390 547 Q 365 557 315 565 C 305 567 286 589 296 589 Q 306 590 324 589 Q 385 580 388 588 Q 400 624 337 725 C 324 744 324 744 318 753 Z"/>
    <path id="p9" d="M 337 725 Q 322 683 262 662 Q 255 661 253 669 Q 250 679 296 736 Q 306 749 318 753 C 328 757 341 735 337 725 Z"/>
    <path id="p10" d="M 560 571 Q 614 553 670 543 Q 680 542 682 545 Q 689 552 687 575 Q 686 636 673 665 Q 660 690 637 687 Q 613 678 593 668 Q 572 659 586 681 Q 625 723 643 755 Q 656 770 668 758 Q 716 728 738 593 Q 742 559 755 543 Q 765 533 760 523 Q 753 514 709 496 Q 691 489 675 501 Q 663 508 617 522 Q 581 532 553 538 C 542 540 550 575 560 571 Z"/>
    <path id="p11" d="M 909 828 Q 896 803 873 722 Q 872 706 865 702 Q 859 699 855 717 Q 833 804 817 831 Q 783 871 673 866 Q 630 865 597 850 Q 567 835 559 816 Q 529 761 560 571 C 562 560 562 545 553 538 Q 540 525 518 517 Q 505 513 497 518 Q 490 522 496 540 Q 509 577 506 615 Q 496 787 511 835 Q 517 860 540 882 Q 621 948 788 920 Q 803 916 821 912 Q 864 899 904 870 Q 923 854 909 828 Z"/>

    <clipPath id="z33728c1"><use href="#p1"/></clipPath>
    <clipPath id="z33728c2"><use href="#p2"/></clipPath>
    <clipPath id="z33728c3"><use href="#p3"/></clipPath>
    <clipPath id="z33728c4"><use href="#p4"/></clipPath>
    <clipPath id="z33728c5"><use href="#p5"/></clipPath>
    <clipPath id="z33728c6"><use href="#p6"/></clipPath>
    <clipPath id="z33728c7"><use href="#p7"/></clipPath>
    <clipPath id="z33728c8"><use href="#p8"/></clipPath>
    <clipPath id="z33728c9"><use href="#p9"/></clipPath>
    <clipPath id="z33728c10"><use href="#p10"/></clipPath>
    <clipPath id="z33728c11"><use href="#p11"/></clipPath>
</defs>
<g id="bg-layer" class="bg">
<use href="#p1"/>
<use href="#p2"/>
<use href="#p3"/>
<use href="#p4"/>
<use href="#p5"/>
<use href="#p6"/>
<use href="#p7"/>
<use href="#p8"/>
<use href="#p9"/>
<use href="#p10"/>
<use href="#p11"/>
</g>
<g id="anim-layer">
    <path id="stroke-p1" style="stroke:#FF4444" pathLength="3333" clip-path="url(#z33728c1)" d="M 204 229 L 273 236 L 698 177 L 809 193"/>
    <path id="stroke-p2" style="stroke:#FF4444" pathLength="3333" clip-path="url(#z33728c2)" d="M 310 114 L 365 150 L 390 302"/>
    <path id="stroke-p3" style="stroke:#FF4444" pathLength="3333" clip-path="url(#z33728c3)" d="M 587 68 L 625 110 L 567 292"/>
    <path id="stroke-p4" style="stroke:#000" pathLength="3333" clip-path="url(#z33728c4)" d="M 438 277 L 523 350"/>
    <path id="stroke-p5" style="stroke:#000" pathLength="3333" clip-path="url(#z33728c5)" d="M 241 360 L 246 405 L 183 546"/>
    <path id="stroke-p6" style="stroke:#000" pathLength="3333" clip-path="url(#z33728c6)" d="M 273 415 L 711 345 L 756 368 L 786 403 L 685 468"/>
    <path id="stroke-p7" style="stroke:#000" pathLength="3333" clip-path="url(#z33728c7)" d="M 300 461 L 326 504 L 160 705"/>
    <path id="stroke-p8" style="stroke:#000" pathLength="3333" clip-path="url(#z33728c8)" d="M 306 584 L 400 564 L 433 589 L 330 775 L 193 899"/>
    <path id="stroke-p9" style="stroke:#000" pathLength="3333" clip-path="url(#z33728c9)" d="M 261 672 L 323 743"/>
    <path id="stroke-p10" style="stroke:#000" pathLength="3333" clip-path="url(#z33728c10)" d="M 561 562 L 678 519 L 723 539 L 674 709 L 647 722 L 588 671"/>
    <path id="stroke-p11" style="stroke:#000" pathLength="3333" clip-path="url(#z33728c11)" d="M 501 521 L 531 565 L 533 821 L 585 877 L 716 897 L 836 867 L 870 832 L 863 709"/>
</g>
</svg>