<svg id="z33994" class="acjk" viewBox="0 0 1024 1024" xmlns="http://www.w3.org/2000/svg">
<style>
<![CDATA[
svg.acjk path[clip-path] {
    animation-duration: 12.9s;
    animation-timing-function: linear;
    animation-iteration-count: infinite;
    stroke-dasharray: 3337;
    stroke-dashoffset: 3339;
    stroke-width: 128;
    stroke-linecap: round;
    fill: none;
    stroke: #FF4444;
}
svg.acjk .bg { fill: #ccc; opacity: 0.5; }

/* Stroke 1: Starts at 0.0%, finishes at 6.2%, holds until 80.6% */
@keyframes zk1 {
    0%, 0.0% { stroke-dashoffset: 3339; }
    6.2%, 80.6% { stroke-dashoffset: 0; }
    80.7%, 100% { stroke-dashoffset: 3339; }
}
svg.acjk #stroke-p1 { animation-name: zk1; }
/* Stroke 2: Starts at 6.2%, finishes at 12.4%, holds until 80.6% */
@keyframes zk2 {
    0%, 6.2% { stroke-dashoffset: 3339; }
    12.4%, 80.6% { stroke-dashoffset: 0; }
    80.7%, 100% { stroke-dashoffset: 3339; }
}
svg.acjk #stroke-p2 { animation-name: zk2; }
/* Stroke 3: Starts at 12.4%, finishes at 18.6%, holds until 80.6% */
@keyframes zk3 {
    0%, 12.4% { stroke-dashoffset: 3339; }
    18.6%, 80.6% { stroke-dashoffset: 0; }
    80.7%, 100% { stroke-dashoffset: 3339; }
}
svg.acjk #stroke-p3 { animation-name: zk3; }
/* Stroke 4: Starts at 18.6%, finishes at 24.8%, holds until 80.6% */
@keyframes zk4 {
    0%, 18.6% { stroke-dashoffset: 3339; }
    24.8%, 80.6% { stroke-dashoffset: 0; }
    80.7%, 100% { stroke-dashoffset: 3339; }
}
svg.acjk #stroke-p4 { animation-name: zk4; }
/* Stroke 5: Starts at 24.8%, finishes at 31.0%, holds until 80.6% */
@keyframes zk5 {
    0%, 24.8% { stroke-dashoffset: 3339; }
    31.0%, 80.6% { stroke-dashoffset: 0; }
    80.7%, 100% { stroke-dashoffset: 3339; }
}
svg.acjk #stroke-p5 { animation-name: zk5; }
/* Stroke 6: Starts at 31.0%, finishes at 37.2%, holds until 80.6% */
@keyframes zk6 {
    0%, 31.0% { stroke-dashoffset: 3339; }
    37.2%, 80.6% { stroke-dashoffset: 0; }
    80.7%, 100% { stroke-dashoffset: 3339; }
}
svg.acjk #stroke-p6 { animation-name: zk6; }
/* Stroke 7: Starts at 37.2%, finishes at 43.4%, holds until 80.6% */
@keyframes zk7 {
    0%, 37.2% { stroke-dashoffset: 3339; }
    43.4%, 80.6% { stroke-dashoffset: 0; }
    80.7%, 100% { stroke-dashoffset: 3339; }
}
svg.acjk #stroke-p7 { animation-name: zk7; }
/* Stroke 8: Starts at 43.4%, finishes at 49.6%, holds until 80.6% */
@keyframes zk8 {
    0%, 43.4% { stroke-dashoffset: 3339; }
    49.6%, 80.6% { stroke-dashoffset: 0; }
    80.7%, 100% { stroke-dashoffset: 3339; }
}
svg.acjk #stroke-p8 { animation-name: zk8; }
/* Stroke 9: Starts at 49.6%, finishes at 55.8%, holds until 80.6% */
@keyframes zk9 {
    0%, 49.6% { stroke-dashoffset: 3339; }
    55.8%, 80.6% { stroke-dashoffset: 0; }
    80.7%, 100% { stroke-dashoffset: 3339; }
}
svg.acjk #stroke-p9 { animation-name: zk9; }
/* Stroke 10: Starts at 55.8%, finishes at 62.0%, holds until 80.6% */
@keyframes zk10 {
    0%, 55.8% { stroke-dashoffset: 3339; }
    62.0%, 80.6% { stroke-dashoffset: 0; }
    80.7%, 100% { stroke-dashoffset: 3339; }
}
svg.acjk #stroke-p10 { animation-name: zk10; }
/* Stroke 11: Starts at 62.0%, finishes at 68.2%, holds until 80.6% */
@keyframes zk11 {
    0%, 62.0% { stroke-dashoffset: 3339; }
    68.2%, 80.6% { stroke-dashoffset: 0; }
    80.7%, 100% { stroke-dashoffset: 3339; }
}
svg.acjk #stroke-p11 { animation-name: zk11; }
/* Stroke 12: Starts at 68.2%, finishes at 74.4%, holds until 80.6% */
@keyframes zk12 {
    0%, 68.2% { stroke-dashoffset: 3339; }
    74.4%, 80.6% { stroke-dashoffset: 0; }
    80.7%, 100% { stroke-dashoffset: 3339; }
}
svg.acjk #stroke-p12 { animation-name: zk12; }
/* Stroke 13: Starts at 74.4%, finishes at 80.6%, holds until 80.6% */
@keyframes zk13 {
    0%, 74.4% { stroke-dashoffset: 3339; }
    80.6%, 80.6% { stroke-dashoffset: 0; }
    80.7%, 100% { stroke-dashoffset: 3339; }
}
svg.acjk #stroke-p13 { animation-name: zk13; }
]]>
</style>
<defs>
    <path id="p1" d="M 631 169 C 662 167 714 168 794 175 C 813 176 826 160 807 142 C 774 111 700 115 653 123 C 612 130 612 130 591 133 C 536 141 478 147 418 153 C 383 156 383 156 365 158 C 314 162 262 166 211 171 C 192 172 189 179 202 189 C 229 209 270 213 323 202 C 339 198 357 195 376 193 C 405 188 405 188 420 186 C 442 182 498 174 584 171 C 615 170 615 170 631 169 Z"/>
    <path id="p2" d="M 418 153 C 417 139 415 126 415 115 C 414 102 408 95 396 90 C 368 79 348 73 335 79 C 322 84 321 95 332 107 C 346 122 358 138 365 158 C 372 181 372 181 376 193 C 387 229 396 250 403 256 C 411 263 418 262 421 255 C 424 243 422 220 420 186 C 419 164 419 164 418 153 Z"/>
    <path id="p3" d="M 587 236 C 605 219 619 191 631 169 C 646 138 646 138 653 123 C 656 115 661 108 667 102 C 675 92 676 85 671 78 C 663 67 649 56 627 44 C 616 38 606 36 595 42 C 588 45 587 51 592 59 C 598 70 597 95 591 133 C 586 158 586 158 584 171 C 578 199 570 222 571 233 C 571 238 583 240 587 236 Z"/>
    <path id="p4" d="M 335 282 C 323 326 259 389 145 469 C 132 477 134 482 150 480 C 242 467 362 347 396 317 C 414 299 402 286 381 278 C 340 262 338 270 335 282 Z"/>
    <path id="p5" d="M 571 233 C 559 232 543 238 541 245 C 539 249 542 253 548 255 C 569 263 588 275 604 291 C 678 362 745 420 805 469 C 815 477 828 481 843 478 C 920 457 960 440 965 431 C 967 426 965 423 959 422 C 859 399 773 364 702 318 C 633 273 601 243 587 236 C 582 233 576 233 571 233 Z"/>
    <path id="p6" d="M 579 432 C 530 438 479 448 428 462 C 418 464 412 463 421 455 C 468 406 497 378 508 372 C 532 356 502 337 472 318 C 454 306 438 309 442 334 C 447 376 418 420 348 463 C 339 466 330 474 332 485 C 334 495 342 505 356 519 C 361 524 367 526 376 521 C 396 506 468 483 593 452 C 601 450 587 430 579 432 Z"/>
    <path id="p7" d="M 593 452 C 610 476 622 489 629 490 C 647 491 646 465 646 453 C 644 430 617 405 566 378 C 551 370 547 373 547 384 C 546 387 558 403 579 432 C 588 445 588 445 593 452 Z"/>
    <path id="p8" d="M 363 846 C 349 843 334 841 321 837 C 310 833 307 841 320 853 C 343 875 363 893 377 911 C 382 917 401 943 416 927 C 438 901 452 865 450 822 C 443 693 441 620 455 600 C 461 589 461 580 455 575 C 443 564 426 554 407 546 C 396 541 387 541 378 546 C 345 563 302 577 250 583 C 231 585 243 601 265 605 C 273 606 308 601 370 585 C 381 582 388 581 391 587 C 400 614 401 691 395 815 C 393 838 387 850 363 846 Z"/>
    <path id="p9" d="M 220 653 Q 244 671 271 692 Q 281 701 294 699 Q 303 698 305 688 Q 308 676 299 654 Q 293 638 267 628 Q 212 612 196 617 Q 192 621 194 631 Q 198 638 220 653 Z"/>
    <path id="p10" d="M 150 807 Q 138 810 139 823 Q 140 836 155 839 Q 194 851 210 853 Q 229 854 244 837 Q 259 816 337 734 Q 352 722 356 714 Q 360 704 348 704 Q 339 704 196 792 Q 177 802 150 807 Z"/>
    <path id="p11" d="M 652 854 C 635 852 619 850 603 848 C 590 845 577 847 606 869 C 633 891 656 910 673 929 C 683 940 705 965 720 947 C 746 913 762 878 759 843 C 745 688 743 596 761 569 C 769 556 770 546 762 539 C 748 526 729 514 705 504 C 689 497 666 509 631 522 C 582 539 538 541 503 544 C 476 545 502 567 519 571 C 530 573 578 565 660 549 C 672 546 682 547 685 554 C 697 592 697 677 692 810 C 690 839 687 857 652 854 Z"/>
    <path id="p12" d="M 517 643 Q 536 658 556 676 Q 569 686 581 684 Q 590 683 593 672 Q 596 659 587 636 Q 577 612 510 605 Q 497 604 492 605 Q 488 609 490 619 Q 494 628 517 643 Z"/>
    <path id="p13" d="M 469 781 Q 459 782 459 795 Q 460 805 473 809 Q 507 821 520 823 Q 536 824 551 810 Q 567 791 647 714 Q 660 704 663 697 Q 667 687 657 688 Q 494 773 470 781 Q 469 780 469 781 Z"/>

    <clipPath id="z33994c1"><use href="#p1"/></clipPath>
    <clipPath id="z33994c2"><use href="#p2"/></clipPath>
    <clipPath id="z33994c3"><use href="#p3"/></clipPath>
    <clipPath id="z33994c4"><use href="#p4"/></clipPath>
    <clipPath id="z33994c5"><use href="#p5"/></clipPath>
    <clipPath id="z33994c6"><use href="#p6"/></clipPath>
    <clipPath id="z33994c7"><use href="#p7"/></clipPath>
    <clipPath id="z33994c8"><use href="#p8"/></clipPath>
    <clipPath id="z33994c9"><use href="#p9"/></clipPath>
    <clipPath id="z33994c10"><use href="#p10"/></clipPath>
    <clipPath id="z33994c11"><use href="#p11"/></clipPath>
    <clipPath id="z33994c12"><use href="#p12"/></clipPath>
    <clipPath id="z33994c13"><use href="#p13"/></clipPath>
</defs>
<g id="bg-layer" class="bg">
<use href="#p1"/>
<use href="#p2"/>
<use href="#p3"/>
<use href="#p4"/>
<use href="#p5"/>
<use href="#p6"/>
<use href="#p7"/>
<use href="#p8"/>
<use href="#p9"/>
<use href="#p10"/>
<use href="#p11"/>
<use href="#p12"/>
<use href="#p13"/>
</g>
<g id="anim-layer">
    <path id="stroke-p1" style="stroke:#FF4444" pathLength="3333" clip-path="url(#z33994c1)" d="M 204 181 L 691 143 L 810 160"/>
    <path id="stroke-p2" style="stroke:#FF4444" pathLength="3333" clip-path="url(#z33994c2)" d="M 329 87 L 384 121 L 409 256"/>
    <path id="stroke-p3" style="stroke:#FF4444" pathLength="3333" clip-path="url(#z33994c3)" d="M 597 44 L 634 91 L 580 234"/>
    <path id="stroke-p4" style="stroke:#000" pathLength="3333" clip-path="url(#z33994c4)" d="M 347 272 L 363 307 L 308 365 L 143 474"/>
    <path id="stroke-p5" style="stroke:#000" pathLength="3333" clip-path="url(#z33994c5)" d="M 547 246 L 832 432 L 961 431"/>
    <path id="stroke-p6" style="stroke:#000" pathLength="3333" clip-path="url(#z33994c6)" d="M 450 318 L 478 362 L 380 466 L 391 492 L 588 442"/>
    <path id="stroke-p7" style="stroke:#000" pathLength="3333" clip-path="url(#z33994c7)" d="M 554 381 L 633 486"/>
    <path id="stroke-p8" style="stroke:#000" pathLength="3333" clip-path="url(#z33994c8)" d="M 249 592 L 386 563 L 426 592 L 415 860 L 388 889 L 319 840"/>
    <path id="stroke-p9" style="stroke:#000" pathLength="3333" clip-path="url(#z33994c9)" d="M 199 623 L 297 693"/>
    <path id="stroke-p10" style="stroke:#000" pathLength="3333" clip-path="url(#z33994c10)" d="M 143 820 L 215 819 L 350 712"/>
    <path id="stroke-p11" style="stroke:#000" pathLength="3333" clip-path="url(#z33994c11)" d="M 503 553 L 692 526 L 728 561 L 721 860 L 688 902 L 595 854"/>
    <path id="stroke-p12" style="stroke:#000" pathLength="3333" clip-path="url(#z33994c12)" d="M 494 612 L 585 677"/>
    <path id="stroke-p13" style="stroke:#000" pathLength="3333" clip-path="url(#z33994c13)" d="M 462 793 L 522 792 L 659 695"/>
</g>
</svg>