<svg id="z34019" class="acjk" viewBox="0 0 1024 1024" xmlns="http://www.w3.org/2000/svg">
<style>
<![CDATA[
svg.acjk path[clip-path] {
    animation-duration: 12.9s;
    animation-timing-function: linear;
    animation-iteration-count: infinite;
    stroke-dasharray: 3337;
    stroke-dashoffset: 3339;
    stroke-width: 128;
    stroke-linecap: round;
    fill: none;
    stroke: #FF4444;
}
svg.acjk .bg { fill: #ccc; opacity: 0.5; }

/* Stroke 1: Starts at 0.0%, finishes at 6.2%, holds until 80.6% */
@keyframes zk1 {
    0%, 0.0% { stroke-dashoffset: 3339; }
    6.2%, 80.6% { stroke-dashoffset: 0; }
    80.7%, 100% { stroke-dashoffset: 3339; }
}
svg.acjk #stroke-p1 { animation-name: zk1; }
/* Stroke 2: Starts at 6.2%, finishes at 12.4%, holds until 80.6% */
@keyframes zk2 {
    0%, 6.2% { stroke-dashoffset: 3339; }
    12.4%, 80.6% { stroke-dashoffset: 0; }
    80.7%, 100% { stroke-dashoffset: 3339; }
}
svg.acjk #stroke-p2 { animation-name: zk2; }
/* Stroke 3: Starts at 12.4%, finishes at 18.6%, holds until 80.6% */
@keyframes zk3 {
    0%, 12.4% { stroke-dashoffset: 3339; }
    18.6%, 80.6% { stroke-dashoffset: 0; }
    80.7%, 100% { stroke-dashoffset: 3339; }
}
svg.acjk #stroke-p3 { animation-name: zk3; }
/* Stroke 4: Starts at 18.6%, finishes at 24.8%, holds until 80.6% */
@keyframes zk4 {
    0%, 18.6% { stroke-dashoffset: 3339; }
    24.8%, 80.6% { stroke-dashoffset: 0; }
    80.7%, 100% { stroke-dashoffset: 3339; }
}
svg.acjk #stroke-p4 { animation-name: zk4; }
/* Stroke 5: Starts at 24.8%, finishes at 31.0%, holds until 80.6% */
@keyframes zk5 {
    0%, 24.8% { stroke-dashoffset: 3339; }
    31.0%, 80.6% { stroke-dashoffset: 0; }
    80.7%, 100% { stroke-dashoffset: 3339; }
}
svg.acjk #stroke-p5 { animation-name: zk5; }
/* Stroke 6: Starts at 31.0%, finishes at 37.2%, holds until 80.6% */
@keyframes zk6 {
    0%, 31.0% { stroke-dashoffset: 3339; }
    37.2%, 80.6% { stroke-dashoffset: 0; }
    80.7%, 100% { stroke-dashoffset: 3339; }
}
svg.acjk #stroke-p6 { animation-name: zk6; }
/* Stroke 7: Starts at 37.2%, finishes at 43.4%, holds until 80.6% */
@keyframes zk7 {
    0%, 37.2% { stroke-dashoffset: 3339; }
    43.4%, 80.6% { stroke-dashoffset: 0; }
    80.7%, 100% { stroke-dashoffset: 3339; }
}
svg.acjk #stroke-p7 { animation-name: zk7; }
/* Stroke 8: Starts at 43.4%, finishes at 49.6%, holds until 80.6% */
@keyframes zk8 {
    0%, 43.4% { stroke-dashoffset: 3339; }
    49.6%, 80.6% { stroke-dashoffset: 0; }
    80.7%, 100% { stroke-dashoffset: 3339; }
}
svg.acjk #stroke-p8 { animation-name: zk8; }
/* Stroke 9: Starts at 49.6%, finishes at 55.8%, holds until 80.6% */
@keyframes zk9 {
    0%, 49.6% { stroke-dashoffset: 3339; }
    55.8%, 80.6% { stroke-dashoffset: 0; }
    80.7%, 100% { stroke-dashoffset: 3339; }
}
svg.acjk #stroke-p9 { animation-name: zk9; }
/* Stroke 10: Starts at 55.8%, finishes at 62.0%, holds until 80.6% */
@keyframes zk10 {
    0%, 55.8% { stroke-dashoffset: 3339; }
    62.0%, 80.6% { stroke-dashoffset: 0; }
    80.7%, 100% { stroke-dashoffset: 3339; }
}
svg.acjk #stroke-p10 { animation-name: zk10; }
/* Stroke 11: Starts at 62.0%, finishes at 68.2%, holds until 80.6% */
@keyframes zk11 {
    0%, 62.0% { stroke-dashoffset: 3339; }
    68.2%, 80.6% { stroke-dashoffset: 0; }
    80.7%, 100% { stroke-dashoffset: 3339; }
}
svg.acjk #stroke-p11 { animation-name: zk11; }
/* Stroke 12: Starts at 68.2%, finishes at 74.4%, holds until 80.6% */
@keyframes zk12 {
    0%, 68.2% { stroke-dashoffset: 3339; }
    74.4%, 80.6% { stroke-dashoffset: 0; }
    80.7%, 100% { stroke-dashoffset: 3339; }
}
svg.acjk #stroke-p12 { animation-name: zk12; }
/* Stroke 13: Starts at 74.4%, finishes at 80.6%, holds until 80.6% */
@keyframes zk13 {
    0%, 74.4% { stroke-dashoffset: 3339; }
    80.6%, 80.6% { stroke-dashoffset: 0; }
    80.7%, 100% { stroke-dashoffset: 3339; }
}
svg.acjk #stroke-p13 { animation-name: zk13; }
]]>
</style>
<defs>
    <path id="p1" d="M 625 206 Q 688 196 795 203 Q 810 204 815 195 Q 819 185 807 170 Q 759 130 664 153 Q 655 153 647 156 C 610 162 610 162 592 165 Q 507 178 411 191 C 379 196 379 196 363 198 Q 287 205 203 215 Q 175 218 194 233 Q 231 257 307 245 Q 340 236 372 232 C 399 227 399 227 413 225 Q 434 216 580 208 C 610 207 610 207 625 206 Z"/>
    <path id="p2" d="M 411 191 Q 410 164 409 143 Q 410 124 391 118 Q 349 100 332 106 Q 316 113 329 133 Q 354 161 363 198 C 369 221 369 221 372 232 Q 379 283 396 301 Q 409 311 413 300 Q 417 285 413 225 C 412 202 412 202 411 191 Z"/>
    <path id="p3" d="M 647 156 Q 654 137 671 112 Q 684 99 675 89 Q 665 73 632 56 Q 617 46 601 54 Q 591 60 598 70 Q 608 101 592 165 C 584 194 584 194 580 208 Q 558 274 559 289 Q 560 302 575 292 Q 590 280 625 206 C 640 173 640 173 647 156 Z"/>
    <path id="p4" d="M 349 466 Q 428 396 455 387 Q 471 383 466 368 Q 463 355 409 325 Q 396 318 313 343 Q 240 361 204 359 Q 185 358 191 375 Q 197 385 212 395 Q 237 410 265 395 Q 359 353 376 364 Q 386 371 380 383 Q 359 417 335 456 C 332 461 344 469 349 466 Z"/>
    <path id="p5" d="M 335 456 Q 323 450 265 440 Q 255 439 252 441 Q 248 445 250 455 Q 254 462 276 477 Q 303 495 331 517 Q 341 526 354 524 Q 363 523 365 512 Q 368 500 359 478 Q 356 471 349 466 C 340 459 340 459 335 456 Z"/>
    <path id="p6" d="M 332 568 Q 362 561 396 555 Q 427 554 428 566 Q 428 579 407 631 Q 401 644 407 647 Q 413 650 423 639 Q 484 585 509 574 Q 530 567 527 555 Q 526 545 462 516 Q 441 507 335 539 Q 209 564 107 582 Q 85 585 102 604 Q 115 620 156 608 Q 225 590 294 576 C 319 571 319 571 332 568 Z"/>
    <path id="p7" d="M 263 842 Q 238 833 207 825 Q 197 822 197 828 Q 198 835 206 842 Q 267 888 306 927 Q 316 934 328 921 Q 364 872 357 780 Q 351 702 358 620 Q 364 598 359 589 Q 352 579 332 568 C 321 561 289 564 294 576 Q 303 597 307 723 Q 307 757 307 805 Q 306 833 297 844 Q 287 850 263 842 Z"/>
    <path id="p8" d="M 658 338 Q 727 323 824 310 Q 834 311 842 300 Q 842 290 822 280 Q 785 262 696 291 Q 693 291 691 292 Q 648 302 539 318 Q 514 322 534 337 Q 564 358 600 350 Q 610 347 625 345 C 647 340 647 340 658 338 Z"/>
    <path id="p9" d="M 630 443 Q 652 413 677 384 Q 690 375 683 366 Q 676 353 658 338 C 649 331 625 334 625 345 Q 628 366 602 436 Q 598 442 596 448 C 592 459 623 452 630 443 Z"/>
    <path id="p10" d="M 568 450 Q 553 440 537 435 Q 530 434 524 440 Q 523 444 528 454 Q 564 548 530 683 Q 509 702 536 750 Q 537 756 543 761 Q 553 771 560 761 Q 581 736 582 612 Q 582 507 588 477 C 590 466 577 457 568 450 Z"/>
    <path id="p11" d="M 756 695 Q 750 716 762 734 Q 774 759 782 758 Q 795 757 808 728 Q 820 706 818 688 Q 794 517 824 471 Q 833 458 826 448 Q 801 426 759 409 Q 744 405 724 412 Q 690 428 647 439 Q 638 440 630 443 C 607 446 607 446 596 448 Q 581 449 568 450 C 557 450 577 477 588 477 Q 594 477 600 476 Q 639 469 668 463 Q 729 448 743 457 Q 752 475 757 522 Q 763 667 756 695 Z"/>
    <path id="p12" d="M 647 580 Q 656 766 581 837 Q 575 840 569 846 Q 541 870 476 901 Q 466 904 462 907 Q 458 911 470 915 Q 512 919 592 876 Q 655 843 675 765 Q 691 704 693 640 Q 697 574 705 554 Q 709 544 702 538 Q 687 525 657 513 Q 639 506 626 511 Q 610 518 623 531 Q 647 555 647 580 Z"/>
    <path id="p13" d="M 717 812 Q 762 852 817 909 Q 832 927 846 930 Q 853 931 861 922 Q 871 909 859 870 Q 844 818 717 784 Q 708 780 707 791 Q 707 803 717 812 Z"/>

    <clipPath id="z34019c1"><use href="#p1"/></clipPath>
    <clipPath id="z34019c2"><use href="#p2"/></clipPath>
    <clipPath id="z34019c3"><use href="#p3"/></clipPath>
    <clipPath id="z34019c4"><use href="#p4"/></clipPath>
    <clipPath id="z34019c5"><use href="#p5"/></clipPath>
    <clipPath id="z34019c6"><use href="#p6"/></clipPath>
    <clipPath id="z34019c7"><use href="#p7"/></clipPath>
    <clipPath id="z34019c8"><use href="#p8"/></clipPath>
    <clipPath id="z34019c9"><use href="#p9"/></clipPath>
    <clipPath id="z34019c10"><use href="#p10"/></clipPath>
    <clipPath id="z34019c11"><use href="#p11"/></clipPath>
    <clipPath id="z34019c12"><use href="#p12"/></clipPath>
    <clipPath id="z34019c13"><use href="#p13"/></clipPath>
</defs>
<g id="bg-layer" class="bg">
<use href="#p1"/>
<use href="#p2"/>
<use href="#p3"/>
<use href="#p4"/>
<use href="#p5"/>
<use href="#p6"/>
<use href="#p7"/>
<use href="#p8"/>
<use href="#p9"/>
<use href="#p10"/>
<use href="#p11"/>
<use href="#p12"/>
<use href="#p13"/>
</g>
<g id="anim-layer">
    <path id="stroke-p1" style="stroke:#FF4444" pathLength="3333" clip-path="url(#z34019c1)" d="M 193 224 L 709 172 L 812 189"/>
    <path id="stroke-p2" style="stroke:#FF4444" pathLength="3333" clip-path="url(#z34019c2)" d="M 330 116 L 379 150 L 403 301"/>
    <path id="stroke-p3" style="stroke:#FF4444" pathLength="3333" clip-path="url(#z34019c3)" d="M 602 58 L 640 98 L 566 287"/>
    <path id="stroke-p4" style="stroke:#000" pathLength="3333" clip-path="url(#z34019c4)" d="M 196 366 L 252 378 L 400 350 L 424 378 L 342 455"/>
    <path id="stroke-p5" style="stroke:#000" pathLength="3333" clip-path="url(#z34019c5)" d="M 257 448 L 334 487 L 354 521"/>
    <path id="stroke-p6" style="stroke:#000" pathLength="3333" clip-path="url(#z34019c6)" d="M 103 590 L 439 536 L 477 563 L 412 640"/>
    <path id="stroke-p7" style="stroke:#000" pathLength="3333" clip-path="url(#z34019c7)" d="M 301 581 L 331 613 L 324 861 L 297 886 L 204 832"/>
    <path id="stroke-p8" style="stroke:#000" pathLength="3333" clip-path="url(#z34019c8)" d="M 533 327 L 833 300"/>
    <path id="stroke-p9" style="stroke:#000" pathLength="3333" clip-path="url(#z34019c9)" d="M 630 350 L 650 383 L 603 443"/>
    <path id="stroke-p10" style="stroke:#000" pathLength="3333" clip-path="url(#z34019c10)" d="M 530 443 L 564 491 L 549 757"/>
    <path id="stroke-p11" style="stroke:#000" pathLength="3333" clip-path="url(#z34019c11)" d="M 578 453 L 735 431 L 788 464 L 776 750"/>
    <path id="stroke-p12" style="stroke:#000" pathLength="3333" clip-path="url(#z34019c12)" d="M 623 518 L 675 555 L 646 779 L 589 855 L 468 908"/>
    <path id="stroke-p13" style="stroke:#000" pathLength="3333" clip-path="url(#z34019c13)" d="M 715 790 L 819 864 L 849 923"/>
</g>
</svg>