<svg id="z34074" class="acjk" viewBox="0 0 1024 1024" xmlns="http://www.w3.org/2000/svg">
<style>
<![CDATA[
svg.acjk path[clip-path] {
    animation-duration: 13.700000000000001s;
    animation-timing-function: linear;
    animation-iteration-count: infinite;
    stroke-dasharray: 3337;
    stroke-dashoffset: 3339;
    stroke-width: 128;
    stroke-linecap: round;
    fill: none;
    stroke: #FF4444;
}
svg.acjk .bg { fill: #ccc; opacity: 0.5; }

/* Stroke 1: Starts at 0.0%, finishes at 5.8%, holds until 81.8% */
@keyframes zk1 {
    0%, 0.0% { stroke-dashoffset: 3339; }
    5.8%, 81.8% { stroke-dashoffset: 0; }
    81.9%, 100% { stroke-dashoffset: 3339; }
}
svg.acjk #stroke-p1 { animation-name: zk1; }
/* Stroke 2: Starts at 5.8%, finishes at 11.7%, holds until 81.8% */
@keyframes zk2 {
    0%, 5.8% { stroke-dashoffset: 3339; }
    11.7%, 81.8% { stroke-dashoffset: 0; }
    81.9%, 100% { stroke-dashoffset: 3339; }
}
svg.acjk #stroke-p2 { animation-name: zk2; }
/* Stroke 3: Starts at 11.7%, finishes at 17.5%, holds until 81.8% */
@keyframes zk3 {
    0%, 11.7% { stroke-dashoffset: 3339; }
    17.5%, 81.8% { stroke-dashoffset: 0; }
    81.9%, 100% { stroke-dashoffset: 3339; }
}
svg.acjk #stroke-p3 { animation-name: zk3; }
/* Stroke 4: Starts at 17.5%, finishes at 23.4%, holds until 81.8% */
@keyframes zk4 {
    0%, 17.5% { stroke-dashoffset: 3339; }
    23.4%, 81.8% { stroke-dashoffset: 0; }
    81.9%, 100% { stroke-dashoffset: 3339; }
}
svg.acjk #stroke-p4 { animation-name: zk4; }
/* Stroke 5: Starts at 23.4%, finishes at 29.2%, holds until 81.8% */
@keyframes zk5 {
    0%, 23.4% { stroke-dashoffset: 3339; }
    29.2%, 81.8% { stroke-dashoffset: 0; }
    81.9%, 100% { stroke-dashoffset: 3339; }
}
svg.acjk #stroke-p5 { animation-name: zk5; }
/* Stroke 6: Starts at 29.2%, finishes at 35.0%, holds until 81.8% */
@keyframes zk6 {
    0%, 29.2% { stroke-dashoffset: 3339; }
    35.0%, 81.8% { stroke-dashoffset: 0; }
    81.9%, 100% { stroke-dashoffset: 3339; }
}
svg.acjk #stroke-p6 { animation-name: zk6; }
/* Stroke 7: Starts at 35.0%, finishes at 40.9%, holds until 81.8% */
@keyframes zk7 {
    0%, 35.0% { stroke-dashoffset: 3339; }
    40.9%, 81.8% { stroke-dashoffset: 0; }
    81.9%, 100% { stroke-dashoffset: 3339; }
}
svg.acjk #stroke-p7 { animation-name: zk7; }
/* Stroke 8: Starts at 40.9%, finishes at 46.7%, holds until 81.8% */
@keyframes zk8 {
    0%, 40.9% { stroke-dashoffset: 3339; }
    46.7%, 81.8% { stroke-dashoffset: 0; }
    81.9%, 100% { stroke-dashoffset: 3339; }
}
svg.acjk #stroke-p8 { animation-name: zk8; }
/* Stroke 9: Starts at 46.7%, finishes at 52.6%, holds until 81.8% */
@keyframes zk9 {
    0%, 46.7% { stroke-dashoffset: 3339; }
    52.6%, 81.8% { stroke-dashoffset: 0; }
    81.9%, 100% { stroke-dashoffset: 3339; }
}
svg.acjk #stroke-p9 { animation-name: zk9; }
/* Stroke 10: Starts at 52.6%, finishes at 58.4%, holds until 81.8% */
@keyframes zk10 {
    0%, 52.6% { stroke-dashoffset: 3339; }
    58.4%, 81.8% { stroke-dashoffset: 0; }
    81.9%, 100% { stroke-dashoffset: 3339; }
}
svg.acjk #stroke-p10 { animation-name: zk10; }
/* Stroke 11: Starts at 58.4%, finishes at 64.2%, holds until 81.8% */
@keyframes zk11 {
    0%, 58.4% { stroke-dashoffset: 3339; }
    64.2%, 81.8% { stroke-dashoffset: 0; }
    81.9%, 100% { stroke-dashoffset: 3339; }
}
svg.acjk #stroke-p11 { animation-name: zk11; }
/* Stroke 12: Starts at 64.2%, finishes at 70.1%, holds until 81.8% */
@keyframes zk12 {
    0%, 64.2% { stroke-dashoffset: 3339; }
    70.1%, 81.8% { stroke-dashoffset: 0; }
    81.9%, 100% { stroke-dashoffset: 3339; }
}
svg.acjk #stroke-p12 { animation-name: zk12; }
/* Stroke 13: Starts at 70.1%, finishes at 75.9%, holds until 81.8% */
@keyframes zk13 {
    0%, 70.1% { stroke-dashoffset: 3339; }
    75.9%, 81.8% { stroke-dashoffset: 0; }
    81.9%, 100% { stroke-dashoffset: 3339; }
}
svg.acjk #stroke-p13 { animation-name: zk13; }
/* Stroke 14: Starts at 75.9%, finishes at 81.8%, holds until 81.8% */
@keyframes zk14 {
    0%, 75.9% { stroke-dashoffset: 3339; }
    81.8%, 81.8% { stroke-dashoffset: 0; }
    81.9%, 100% { stroke-dashoffset: 3339; }
}
svg.acjk #stroke-p14 { animation-name: zk14; }
]]>
</style>
<defs>
    <path id="p1" d="M 647 202 Q 717 192 811 199 Q 826 200 831 191 Q 835 181 823 166 Q 772 123 673 150 Q 670 150 669 151 C 632 157 632 157 614 160 Q 532 172 441 186 C 411 189 411 189 396 191 Q 326 198 251 207 Q 223 210 242 225 Q 279 249 356 237 Q 380 230 406 227 C 431 222 431 222 444 220 Q 481 210 603 204 C 632 203 632 203 647 202 Z"/>
    <path id="p2" d="M 441 186 Q 438 153 436 128 Q 437 110 419 105 Q 383 87 362 95 Q 346 102 360 121 Q 385 149 395 186 Q 395 187 396 191 C 403 215 403 215 406 227 Q 410 260 428 277 Q 441 287 444 276 Q 450 255 444 220 C 442 197 442 197 441 186 Z"/>
    <path id="p3" d="M 669 151 Q 676 132 692 108 Q 705 95 695 85 Q 685 69 652 52 Q 637 43 621 51 Q 611 57 618 67 Q 627 89 614 160 C 607 189 607 189 603 204 Q 585 258 587 277 Q 588 290 603 280 Q 615 271 647 202 C 662 168 662 168 669 151 Z"/>
    <path id="p4" d="M 476 422 Q 497 374 519 359 Q 532 344 520 329 Q 507 319 464 299 Q 451 293 386 318 Q 320 336 284 345 C 275 347 283 374 292 372 Q 322 366 422 341 Q 435 337 442 343 Q 448 349 446 361 Q 440 392 433 418 C 430 432 471 435 476 422 Z"/>
    <path id="p5" d="M 265 485 Q 271 491 292 486 Q 355 470 490 453 Q 500 452 500 443 Q 500 436 476 422 C 464 415 447 415 433 418 Q 429 418 428 419 Q 341 444 271 457 C 262 459 256 481 265 485 Z"/>
    <path id="p6" d="M 284 345 Q 271 333 253 323 Q 237 313 225 316 Q 215 322 219 334 Q 231 356 227 399 Q 206 553 167 650 Q 130 731 64 817 Q 60 823 57 828 Q 54 837 63 836 Q 102 829 176 720 Q 179 713 185 705 Q 242 603 265 485 C 269 466 269 466 271 457 Q 277 430 282 406 Q 286 381 292 372 C 297 364 292 351 284 345 Z"/>
    <path id="p7" d="M 303 544 Q 272 550 294 564 Q 321 579 393 568 Q 423 562 455 555 Q 473 551 476 548 Q 483 541 479 534 Q 472 524 447 518 Q 422 514 396 525 Q 354 540 303 544 Z"/>
    <path id="p8" d="M 406 654 Q 410 653 486 641 Q 495 642 502 630 Q 503 620 483 612 Q 455 597 379 620 Q 372 620 365 623 Q 331 630 235 647 Q 210 651 230 665 Q 260 686 283 680 Q 319 671 364 663 C 392 657 392 657 406 654 Z"/>
    <path id="p9" d="M 364 663 Q 371 696 372 774 Q 371 817 367 827 Q 363 839 343 835 Q 318 828 290 823 Q 280 822 279 827 Q 278 833 287 840 Q 345 886 363 914 Q 376 926 387 924 Q 397 920 406 892 Q 421 864 419 811 Q 416 735 418 708 Q 425 674 409 656 Q 408 655 406 654 C 396 644 361 649 364 663 Z"/>
    <path id="p10" d="M 255 724 Q 233 758 204 786 Q 182 807 192 840 Q 196 856 215 848 Q 258 826 267 775 Q 276 750 274 728 Q 271 721 266 719 Q 259 718 255 724 Z"/>
    <path id="p11" d="M 442 734 Q 490 789 509 790 Q 519 791 524 777 Q 525 767 518 751 Q 509 738 490 730 Q 459 715 446 713 Q 439 712 438 720 Q 437 727 442 734 Z"/>
    <path id="p12" d="M 772 497 Q 829 491 925 492 Q 943 491 947 483 Q 951 473 937 461 Q 886 422 820 443 Q 798 447 771 454 C 736 460 736 460 719 463 Q 710 463 511 496 Q 492 497 506 513 Q 519 525 535 530 Q 554 534 568 530 Q 671 503 720 502 C 755 499 755 499 772 497 Z"/>
    <path id="p13" d="M 681 850 Q 645 846 611 840 Q 598 839 599 846 Q 600 853 612 860 Q 691 920 720 957 Q 736 975 751 959 Q 788 920 782 848 Q 778 796 772 497 C 771 468 771 468 771 454 Q 771 370 781 338 Q 790 319 772 305 Q 744 283 714 274 Q 695 267 686 276 Q 680 283 691 298 Q 716 338 716 383 Q 717 423 719 463 C 720 489 720 489 720 502 Q 727 700 719 815 Q 718 839 706 847 Q 696 854 681 850 Z"/>
    <path id="p14" d="M 565 635 Q 586 657 608 682 Q 620 695 634 695 Q 644 695 649 683 Q 653 670 648 642 Q 641 615 564 591 Q 551 587 544 589 Q 540 593 540 604 Q 541 614 565 635 Z"/>

    <clipPath id="z34074c1"><use href="#p1"/></clipPath>
    <clipPath id="z34074c2"><use href="#p2"/></clipPath>
    <clipPath id="z34074c3"><use href="#p3"/></clipPath>
    <clipPath id="z34074c4"><use href="#p4"/></clipPath>
    <clipPath id="z34074c5"><use href="#p5"/></clipPath>
    <clipPath id="z34074c6"><use href="#p6"/></clipPath>
    <clipPath id="z34074c7"><use href="#p7"/></clipPath>
    <clipPath id="z34074c8"><use href="#p8"/></clipPath>
    <clipPath id="z34074c9"><use href="#p9"/></clipPath>
    <clipPath id="z34074c10"><use href="#p10"/></clipPath>
    <clipPath id="z34074c11"><use href="#p11"/></clipPath>
    <clipPath id="z34074c12"><use href="#p12"/></clipPath>
    <clipPath id="z34074c13"><use href="#p13"/></clipPath>
    <clipPath id="z34074c14"><use href="#p14"/></clipPath>
</defs>
<g id="bg-layer" class="bg">
<use href="#p1"/>
<use href="#p2"/>
<use href="#p3"/>
<use href="#p4"/>
<use href="#p5"/>
<use href="#p6"/>
<use href="#p7"/>
<use href="#p8"/>
<use href="#p9"/>
<use href="#p10"/>
<use href="#p11"/>
<use href="#p12"/>
<use href="#p13"/>
<use href="#p14"/>
</g>
<g id="anim-layer">
    <path id="stroke-p1" style="stroke:#FF4444" pathLength="3333" clip-path="url(#z34074c1)" d="M 243 217 L 726 168 L 828 183"/>
    <path id="stroke-p2" style="stroke:#FF4444" pathLength="3333" clip-path="url(#z34074c2)" d="M 360 103 L 408 136 L 438 275"/>
    <path id="stroke-p3" style="stroke:#FF4444" pathLength="3333" clip-path="url(#z34074c3)" d="M 623 58 L 659 105 L 597 279"/>
    <path id="stroke-p4" style="stroke:#000" pathLength="3333" clip-path="url(#z34074c4)" d="M 291 350 L 457 323 L 485 351 L 453 419"/>
    <path id="stroke-p5" style="stroke:#000" pathLength="3333" clip-path="url(#z34074c5)" d="M 274 481 L 495 442"/>
    <path id="stroke-p6" style="stroke:#000" pathLength="3333" clip-path="url(#z34074c6)" d="M 227 322 L 260 372 L 209 600 L 157 713 L 63 827"/>
    <path id="stroke-p7" style="stroke:#000" pathLength="3333" clip-path="url(#z34074c7)" d="M 291 554 L 475 537"/>
    <path id="stroke-p8" style="stroke:#000" pathLength="3333" clip-path="url(#z34074c8)" d="M 233 656 L 496 630"/>
    <path id="stroke-p9" style="stroke:#000" pathLength="3333" clip-path="url(#z34074c9)" d="M 370 667 L 395 700 L 390 850 L 368 879 L 284 832"/>
    <path id="stroke-p10" style="stroke:#000" pathLength="3333" clip-path="url(#z34074c10)" d="M 266 725 L 196 841"/>
    <path id="stroke-p11" style="stroke:#000" pathLength="3333" clip-path="url(#z34074c11)" d="M 445 721 L 518 783"/>
    <path id="stroke-p12" style="stroke:#000" pathLength="3333" clip-path="url(#z34074c12)" d="M 509 503 L 853 464 L 943 475"/>
    <path id="stroke-p13" style="stroke:#000" pathLength="3333" clip-path="url(#z34074c13)" d="M 691 281 L 747 338 L 749 840 L 723 914 L 608 846"/>
    <path id="stroke-p14" style="stroke:#000" pathLength="3333" clip-path="url(#z34074c14)" d="M 549 598 L 608 638 L 635 689"/>
</g>
</svg>