<svg id="z34414" class="acjk" viewBox="0 0 1024 1024" xmlns="http://www.w3.org/2000/svg">
<style>
<![CDATA[
svg.acjk path[clip-path] {
    animation-duration: 8.9s;
    animation-timing-function: linear;
    animation-iteration-count: infinite;
    stroke-dasharray: 3337;
    stroke-dashoffset: 3339;
    stroke-width: 128;
    stroke-linecap: round;
    fill: none;
    stroke: #FF4444;
}
svg.acjk .bg { fill: #ccc; opacity: 0.5; }

/* Stroke 1: Starts at 0.0%, finishes at 9.0%, holds until 71.9% */
@keyframes zk1 {
    0%, 0.0% { stroke-dashoffset: 3339; }
    9.0%, 71.9% { stroke-dashoffset: 0; }
    72.0%, 100% { stroke-dashoffset: 3339; }
}
svg.acjk #stroke-p1 { animation-name: zk1; }
/* Stroke 2: Starts at 9.0%, finishes at 18.0%, holds until 71.9% */
@keyframes zk2 {
    0%, 9.0% { stroke-dashoffset: 3339; }
    18.0%, 71.9% { stroke-dashoffset: 0; }
    72.0%, 100% { stroke-dashoffset: 3339; }
}
svg.acjk #stroke-p2 { animation-name: zk2; }
/* Stroke 3: Starts at 18.0%, finishes at 27.0%, holds until 71.9% */
@keyframes zk3 {
    0%, 18.0% { stroke-dashoffset: 3339; }
    27.0%, 71.9% { stroke-dashoffset: 0; }
    72.0%, 100% { stroke-dashoffset: 3339; }
}
svg.acjk #stroke-p3 { animation-name: zk3; }
/* Stroke 4: Starts at 27.0%, finishes at 36.0%, holds until 71.9% */
@keyframes zk4 {
    0%, 27.0% { stroke-dashoffset: 3339; }
    36.0%, 71.9% { stroke-dashoffset: 0; }
    72.0%, 100% { stroke-dashoffset: 3339; }
}
svg.acjk #stroke-p4 { animation-name: zk4; }
/* Stroke 5: Starts at 36.0%, finishes at 44.9%, holds until 71.9% */
@keyframes zk5 {
    0%, 36.0% { stroke-dashoffset: 3339; }
    44.9%, 71.9% { stroke-dashoffset: 0; }
    72.0%, 100% { stroke-dashoffset: 3339; }
}
svg.acjk #stroke-p5 { animation-name: zk5; }
/* Stroke 6: Starts at 44.9%, finishes at 53.9%, holds until 71.9% */
@keyframes zk6 {
    0%, 44.9% { stroke-dashoffset: 3339; }
    53.9%, 71.9% { stroke-dashoffset: 0; }
    72.0%, 100% { stroke-dashoffset: 3339; }
}
svg.acjk #stroke-p6 { animation-name: zk6; }
/* Stroke 7: Starts at 53.9%, finishes at 62.9%, holds until 71.9% */
@keyframes zk7 {
    0%, 53.9% { stroke-dashoffset: 3339; }
    62.9%, 71.9% { stroke-dashoffset: 0; }
    72.0%, 100% { stroke-dashoffset: 3339; }
}
svg.acjk #stroke-p7 { animation-name: zk7; }
/* Stroke 8: Starts at 62.9%, finishes at 71.9%, holds until 71.9% */
@keyframes zk8 {
    0%, 62.9% { stroke-dashoffset: 3339; }
    71.9%, 71.9% { stroke-dashoffset: 0; }
    72.0%, 100% { stroke-dashoffset: 3339; }
}
svg.acjk #stroke-p8 { animation-name: zk8; }
]]>
</style>
<defs>
    <path id="p1" d="M 161 388 C 153 383 136 380 112 376 C 103 374 99 375 97 378 C 92 383 93 389 99 400 C 119 437 135 487 147 550 C 150 568 157 584 168 597 C 180 611 187 613 191 603 C 193 594 194 582 193 568 C 190 547 190 547 189 536 C 185 511 171 441 169 421 C 167 410 171 393 161 388 Z"/>
    <path id="p2" d="M 423 503 C 443 448 464 418 483 404 C 496 393 496 377 485 368 C 437 326 394 321 355 340 C 340 347 324 351 310 356 C 277 365 277 365 260 370 C 228 379 189 385 161 388 C 150 390 158 425 169 421 C 177 417 207 411 261 400 C 293 393 293 393 309 390 C 357 379 384 375 391 382 C 395 386 398 395 396 407 C 390 437 382 465 375 491 C 372 507 417 518 423 503 Z"/>
    <path id="p3" d="M 306 549 C 340 542 379 534 429 531 C 435 530 439 526 440 520 C 440 516 434 510 423 503 C 409 495 391 488 375 491 C 360 494 328 504 307 510 C 277 517 277 517 262 521 C 235 527 205 532 189 536 C 178 538 182 570 193 568 C 206 567 239 560 262 557 C 291 552 291 552 306 549 Z"/>
    <path id="p4" d="M 302 692 C 302 643 304 595 306 549 C 307 523 307 523 307 510 C 308 469 307 429 309 390 C 310 367 310 367 310 356 C 311 304 316 248 331 188 C 332 180 327 169 312 161 C 288 147 265 141 248 138 C 235 135 227 137 222 144 C 217 148 216 157 223 168 C 242 199 254 224 255 245 C 256 285 258 327 260 370 C 261 390 261 390 261 400 C 262 438 262 479 262 521 C 262 545 262 545 262 557 C 262 605 260 654 258 706 C 258 721 302 707 302 692 Z"/>
    <path id="p5" d="M 389 664 C 360 672 331 682 302 692 C 273 701 273 701 258 706 C 167 734 112 742 98 743 C 89 743 83 747 82 756 C 80 764 83 772 90 778 C 105 789 124 801 148 813 C 154 816 162 813 171 807 C 197 787 269 750 401 686 C 409 683 397 662 389 664 Z"/>
    <path id="p6" d="M 401 686 C 419 719 431 737 438 740 C 442 741 448 741 454 735 C 459 728 462 717 463 701 C 464 678 438 647 388 609 C 381 604 376 601 372 602 C 369 602 366 606 365 613 C 364 618 373 635 389 664 C 397 679 397 679 401 686 Z"/>
    <path id="p7" d="M 573 319 C 546 302 513 295 503 297 C 489 299 489 307 500 323 C 523 358 530 444 519 578 C 516 612 503 651 488 694 C 471 738 438 787 386 840 C 377 848 370 854 369 860 C 367 864 372 866 380 866 C 406 865 440 840 483 791 C 536 728 570 627 577 488 C 580 406 581 359 583 348 C 585 338 581 325 573 319 Z"/>
    <path id="p8" d="M 962 865 C 987 856 995 840 986 815 C 971 776 961 727 958 667 C 957 650 954 640 950 637 C 943 632 938 636 936 648 C 916 734 899 783 885 794 C 877 799 864 800 848 798 C 805 792 777 771 760 739 C 742 705 731 660 730 602 C 729 543 735 482 753 419 C 765 372 787 337 814 315 C 833 298 832 286 809 277 C 796 271 777 265 752 256 C 737 251 713 259 675 280 C 655 290 620 301 573 319 C 564 323 573 350 583 348 C 603 344 637 335 685 323 C 693 320 701 320 705 325 C 711 333 706 388 692 491 C 662 698 709 826 831 870 C 844 874 861 877 879 878 C 907 879 934 873 962 865 Z"/>

    <clipPath id="z34414c1"><use href="#p1"/></clipPath>
    <clipPath id="z34414c2"><use href="#p2"/></clipPath>
    <clipPath id="z34414c3"><use href="#p3"/></clipPath>
    <clipPath id="z34414c4"><use href="#p4"/></clipPath>
    <clipPath id="z34414c5"><use href="#p5"/></clipPath>
    <clipPath id="z34414c6"><use href="#p6"/></clipPath>
    <clipPath id="z34414c7"><use href="#p7"/></clipPath>
    <clipPath id="z34414c8"><use href="#p8"/></clipPath>
</defs>
<g id="bg-layer" class="bg">
<use href="#p1"/>
<use href="#p2"/>
<use href="#p3"/>
<use href="#p4"/>
<use href="#p5"/>
<use href="#p6"/>
<use href="#p7"/>
<use href="#p8"/>
</g>
<g id="anim-layer">
    <path id="stroke-p1" style="stroke:#FF4444" pathLength="3333" clip-path="url(#z34414c1)" d="M 101 381 L 134 403 L 181 604"/>
    <path id="stroke-p2" style="stroke:#FF4444" pathLength="3333" clip-path="url(#z34414c2)" d="M 169 390 L 417 362 L 443 389 L 401 497"/>
    <path id="stroke-p3" style="stroke:#FF4444" pathLength="3333" clip-path="url(#z34414c3)" d="M 197 560 L 435 516"/>
    <path id="stroke-p4" style="stroke:#FF4444" pathLength="3333" clip-path="url(#z34414c4)" d="M 224 148 L 291 204 L 268 698"/>
    <path id="stroke-p5" style="stroke:#FF4444" pathLength="3333" clip-path="url(#z34414c5)" d="M 86 758 L 158 772 L 393 673"/>
    <path id="stroke-p6" style="stroke:#FF4444" pathLength="3333" clip-path="url(#z34414c6)" d="M 375 613 L 445 735"/>
    <path id="stroke-p7" style="stroke:#000" pathLength="3333" clip-path="url(#z34414c7)" d="M 499 307 L 548 354 L 540 598 L 484 753 L 377 859"/>
    <path id="stroke-p8" style="stroke:#000" pathLength="3333" clip-path="url(#z34414c8)" d="M 581 320 L 722 290 L 776 309 L 726 419 L 707 619 L 724 720 L 774 801 L 848 836 L 942 817 L 948 641"/>
</g>
</svg>