<svg id="z34476" class="acjk" viewBox="0 0 1024 1024" xmlns="http://www.w3.org/2000/svg">
<style>
<![CDATA[
svg.acjk path[clip-path] {
    animation-duration: 10.5s;
    animation-timing-function: linear;
    animation-iteration-count: infinite;
    stroke-dasharray: 3337;
    stroke-dashoffset: 3339;
    stroke-width: 128;
    stroke-linecap: round;
    fill: none;
    stroke: #FF4444;
}
svg.acjk .bg { fill: #ccc; opacity: 0.5; }

/* Stroke 1: Starts at 0.0%, finishes at 7.6%, holds until 76.2% */
@keyframes zk1 {
    0%, 0.0% { stroke-dashoffset: 3339; }
    7.6%, 76.2% { stroke-dashoffset: 0; }
    76.3%, 100% { stroke-dashoffset: 3339; }
}
svg.acjk #stroke-p1 { animation-name: zk1; }
/* Stroke 2: Starts at 7.6%, finishes at 15.2%, holds until 76.2% */
@keyframes zk2 {
    0%, 7.6% { stroke-dashoffset: 3339; }
    15.2%, 76.2% { stroke-dashoffset: 0; }
    76.3%, 100% { stroke-dashoffset: 3339; }
}
svg.acjk #stroke-p2 { animation-name: zk2; }
/* Stroke 3: Starts at 15.2%, finishes at 22.9%, holds until 76.2% */
@keyframes zk3 {
    0%, 15.2% { stroke-dashoffset: 3339; }
    22.9%, 76.2% { stroke-dashoffset: 0; }
    76.3%, 100% { stroke-dashoffset: 3339; }
}
svg.acjk #stroke-p3 { animation-name: zk3; }
/* Stroke 4: Starts at 22.9%, finishes at 30.5%, holds until 76.2% */
@keyframes zk4 {
    0%, 22.9% { stroke-dashoffset: 3339; }
    30.5%, 76.2% { stroke-dashoffset: 0; }
    76.3%, 100% { stroke-dashoffset: 3339; }
}
svg.acjk #stroke-p4 { animation-name: zk4; }
/* Stroke 5: Starts at 30.5%, finishes at 38.1%, holds until 76.2% */
@keyframes zk5 {
    0%, 30.5% { stroke-dashoffset: 3339; }
    38.1%, 76.2% { stroke-dashoffset: 0; }
    76.3%, 100% { stroke-dashoffset: 3339; }
}
svg.acjk #stroke-p5 { animation-name: zk5; }
/* Stroke 6: Starts at 38.1%, finishes at 45.7%, holds until 76.2% */
@keyframes zk6 {
    0%, 38.1% { stroke-dashoffset: 3339; }
    45.7%, 76.2% { stroke-dashoffset: 0; }
    76.3%, 100% { stroke-dashoffset: 3339; }
}
svg.acjk #stroke-p6 { animation-name: zk6; }
/* Stroke 7: Starts at 45.7%, finishes at 53.3%, holds until 76.2% */
@keyframes zk7 {
    0%, 45.7% { stroke-dashoffset: 3339; }
    53.3%, 76.2% { stroke-dashoffset: 0; }
    76.3%, 100% { stroke-dashoffset: 3339; }
}
svg.acjk #stroke-p7 { animation-name: zk7; }
/* Stroke 8: Starts at 53.3%, finishes at 61.0%, holds until 76.2% */
@keyframes zk8 {
    0%, 53.3% { stroke-dashoffset: 3339; }
    61.0%, 76.2% { stroke-dashoffset: 0; }
    76.3%, 100% { stroke-dashoffset: 3339; }
}
svg.acjk #stroke-p8 { animation-name: zk8; }
/* Stroke 9: Starts at 61.0%, finishes at 68.6%, holds until 76.2% */
@keyframes zk9 {
    0%, 61.0% { stroke-dashoffset: 3339; }
    68.6%, 76.2% { stroke-dashoffset: 0; }
    76.3%, 100% { stroke-dashoffset: 3339; }
}
svg.acjk #stroke-p9 { animation-name: zk9; }
/* Stroke 10: Starts at 68.6%, finishes at 76.2%, holds until 76.2% */
@keyframes zk10 {
    0%, 68.6% { stroke-dashoffset: 3339; }
    76.2%, 76.2% { stroke-dashoffset: 0; }
    76.3%, 100% { stroke-dashoffset: 3339; }
}
svg.acjk #stroke-p10 { animation-name: zk10; }
]]>
</style>
<defs>
    <path id="p1" d="M 152 342 Q 139 336 108 332 Q 96 328 93 334 Q 86 340 95 356 Q 120 407 137 491 Q 141 516 156 533 Q 174 555 179 539 Q 183 526 182 506 C 180 487 180 487 179 478 Q 166 396 163 370 C 161 360 161 346 152 342 Z"/>
    <path id="p2" d="M 399 438 Q 420 369 450 344 Q 465 328 451 313 Q 385 262 332 292 Q 314 298 299 305 C 268 314 268 314 252 319 Q 203 332 152 342 C 142 344 154 374 163 370 Q 167 366 252 347 C 283 340 283 340 298 336 Q 316 330 337 326 Q 359 320 368 329 Q 375 336 374 351 Q 367 394 356 429 C 351 443 396 452 399 438 Z"/>
    <path id="p3" d="M 294 484 Q 340 474 406 465 Q 416 464 417 455 Q 417 448 399 438 C 386 430 370 426 356 429 Q 338 432 295 447 C 266 456 266 456 252 460 Q 212 470 179 478 C 170 480 173 508 182 506 Q 185 506 252 493 C 280 487 280 487 294 484 Z"/>
    <path id="p4" d="M 289 607 Q 290 544 294 484 C 295 459 295 459 295 447 Q 296 390 298 336 C 299 315 299 315 299 305 Q 303 205 320 146 Q 323 134 302 120 Q 268 101 242 97 Q 226 94 218 103 Q 211 110 219 126 Q 247 168 248 197 Q 251 255 252 319 C 252 338 252 338 252 347 Q 252 402 252 460 C 252 482 252 482 252 493 Q 251 554 247 621 C 247 636 289 622 289 607 Z"/>
    <path id="p5" d="M 379 574 Q 333 589 289 607 C 261 616 261 616 247 621 Q 192 637 136 657 Q 118 663 88 663 Q 75 664 73 676 Q 72 689 82 698 Q 106 714 141 731 Q 151 734 164 725 Q 198 695 358 615 Q 374 605 390 595 C 396 590 386 571 379 574 Z"/>
    <path id="p6" d="M 390 595 Q 417 653 430 660 Q 437 663 446 655 Q 453 645 456 622 Q 459 586 384 525 Q 374 518 368 518 Q 364 519 361 529 Q 360 538 373 561 Q 376 567 379 574 C 386 588 386 588 390 595 Z"/>
    <path id="p7" d="M 514 202 Q 498 189 477 184 Q 470 183 463 190 Q 460 194 467 205 Q 509 301 477 491 Q 461 545 466 565 Q 475 596 485 608 Q 495 621 505 608 Q 529 578 530 420 Q 533 324 536 228 C 536 217 523 209 514 202 Z"/>
    <path id="p8" d="M 720 540 Q 713 564 726 586 Q 741 614 750 614 Q 765 613 780 579 Q 795 554 793 532 Q 780 439 781 295 Q 780 252 803 217 Q 813 201 805 191 Q 777 169 730 149 Q 715 143 692 152 Q 611 191 514 202 C 503 204 525 232 536 228 Q 686 185 710 199 Q 722 224 727 293 Q 731 501 720 540 Z"/>
    <path id="p9" d="M 627 547 Q 636 493 642 414 Q 645 377 660 335 Q 664 325 657 318 Q 641 302 608 288 Q 589 278 573 283 Q 554 290 569 306 Q 594 334 593 362 Q 592 495 573 582 Q 549 714 448 799 Q 412 827 349 862 Q 336 866 334 871 Q 330 875 344 878 Q 357 879 406 862 Q 440 850 492 816 Q 586 755 620 584 C 625 559 625 559 627 547 Z"/>
    <path id="p10" d="M 620 584 Q 627 614 626 643 Q 614 817 650 856 Q 668 874 710 890 Q 858 933 962 859 Q 981 844 969 819 Q 956 789 940 698 Q 940 682 933 678 Q 927 675 923 692 Q 898 788 881 818 Q 857 848 766 843 Q 732 839 705 827 Q 680 814 674 798 Q 653 750 679 597 Q 685 570 639 549 Q 632 546 627 547 C 614 547 618 572 620 584 Z"/>

    <clipPath id="z34476c1"><use href="#p1"/></clipPath>
    <clipPath id="z34476c2"><use href="#p2"/></clipPath>
    <clipPath id="z34476c3"><use href="#p3"/></clipPath>
    <clipPath id="z34476c4"><use href="#p4"/></clipPath>
    <clipPath id="z34476c5"><use href="#p5"/></clipPath>
    <clipPath id="z34476c6"><use href="#p6"/></clipPath>
    <clipPath id="z34476c7"><use href="#p7"/></clipPath>
    <clipPath id="z34476c8"><use href="#p8"/></clipPath>
    <clipPath id="z34476c9"><use href="#p9"/></clipPath>
    <clipPath id="z34476c10"><use href="#p10"/></clipPath>
</defs>
<g id="bg-layer" class="bg">
<use href="#p1"/>
<use href="#p2"/>
<use href="#p3"/>
<use href="#p4"/>
<use href="#p5"/>
<use href="#p6"/>
<use href="#p7"/>
<use href="#p8"/>
<use href="#p9"/>
<use href="#p10"/>
</g>
<g id="anim-layer">
    <path id="stroke-p1" style="stroke:#FF4444" pathLength="3333" clip-path="url(#z34476c1)" d="M 97 338 L 134 375 L 166 538"/>
    <path id="stroke-p2" style="stroke:#FF4444" pathLength="3333" clip-path="url(#z34476c2)" d="M 159 346 L 374 303 L 415 332 L 376 433"/>
    <path id="stroke-p3" style="stroke:#FF4444" pathLength="3333" clip-path="url(#z34476c3)" d="M 184 499 L 411 452"/>
    <path id="stroke-p4" style="stroke:#FF4444" pathLength="3333" clip-path="url(#z34476c4)" d="M 222 109 L 281 160 L 268 607 L 253 613"/>
    <path id="stroke-p5" style="stroke:#FF4444" pathLength="3333" clip-path="url(#z34476c5)" d="M 76 674 L 147 693 L 384 586"/>
    <path id="stroke-p6" style="stroke:#FF4444" pathLength="3333" clip-path="url(#z34476c6)" d="M 370 527 L 442 653"/>
    <path id="stroke-p7" style="stroke:#000" pathLength="3333" clip-path="url(#z34476c7)" d="M 468 192 L 510 264 L 493 606"/>
    <path id="stroke-p8" style="stroke:#000" pathLength="3333" clip-path="url(#z34476c8)" d="M 522 203 L 712 171 L 763 214 L 743 607"/>
    <path id="stroke-p9" style="stroke:#000" pathLength="3333" clip-path="url(#z34476c9)" d="M 568 292 L 626 341 L 576 659 L 491 789 L 343 870"/>
    <path id="stroke-p10" style="stroke:#000" pathLength="3333" clip-path="url(#z34476c10)" d="M 632 557 L 651 592 L 649 792 L 695 853 L 818 874 L 908 847 L 931 821 L 931 686"/>
</g>
</svg>