<svg id="z34586" class="acjk" viewBox="0 0 1024 1024" xmlns="http://www.w3.org/2000/svg">
<style>
<![CDATA[
svg.acjk path[clip-path] {
    animation-duration: 13.700000000000001s;
    animation-timing-function: linear;
    animation-iteration-count: infinite;
    stroke-dasharray: 3337;
    stroke-dashoffset: 3339;
    stroke-width: 128;
    stroke-linecap: round;
    fill: none;
    stroke: #FF4444;
}
svg.acjk .bg { fill: #ccc; opacity: 0.5; }

/* Stroke 1: Starts at 0.0%, finishes at 5.8%, holds until 81.8% */
@keyframes zk1 {
    0%, 0.0% { stroke-dashoffset: 3339; }
    5.8%, 81.8% { stroke-dashoffset: 0; }
    81.9%, 100% { stroke-dashoffset: 3339; }
}
svg.acjk #stroke-p1 { animation-name: zk1; }
/* Stroke 2: Starts at 5.8%, finishes at 11.7%, holds until 81.8% */
@keyframes zk2 {
    0%, 5.8% { stroke-dashoffset: 3339; }
    11.7%, 81.8% { stroke-dashoffset: 0; }
    81.9%, 100% { stroke-dashoffset: 3339; }
}
svg.acjk #stroke-p2 { animation-name: zk2; }
/* Stroke 3: Starts at 11.7%, finishes at 17.5%, holds until 81.8% */
@keyframes zk3 {
    0%, 11.7% { stroke-dashoffset: 3339; }
    17.5%, 81.8% { stroke-dashoffset: 0; }
    81.9%, 100% { stroke-dashoffset: 3339; }
}
svg.acjk #stroke-p3 { animation-name: zk3; }
/* Stroke 4: Starts at 17.5%, finishes at 23.4%, holds until 81.8% */
@keyframes zk4 {
    0%, 17.5% { stroke-dashoffset: 3339; }
    23.4%, 81.8% { stroke-dashoffset: 0; }
    81.9%, 100% { stroke-dashoffset: 3339; }
}
svg.acjk #stroke-p4 { animation-name: zk4; }
/* Stroke 5: Starts at 23.4%, finishes at 29.2%, holds until 81.8% */
@keyframes zk5 {
    0%, 23.4% { stroke-dashoffset: 3339; }
    29.2%, 81.8% { stroke-dashoffset: 0; }
    81.9%, 100% { stroke-dashoffset: 3339; }
}
svg.acjk #stroke-p5 { animation-name: zk5; }
/* Stroke 6: Starts at 29.2%, finishes at 35.0%, holds until 81.8% */
@keyframes zk6 {
    0%, 29.2% { stroke-dashoffset: 3339; }
    35.0%, 81.8% { stroke-dashoffset: 0; }
    81.9%, 100% { stroke-dashoffset: 3339; }
}
svg.acjk #stroke-p6 { animation-name: zk6; }
/* Stroke 7: Starts at 35.0%, finishes at 40.9%, holds until 81.8% */
@keyframes zk7 {
    0%, 35.0% { stroke-dashoffset: 3339; }
    40.9%, 81.8% { stroke-dashoffset: 0; }
    81.9%, 100% { stroke-dashoffset: 3339; }
}
svg.acjk #stroke-p7 { animation-name: zk7; }
/* Stroke 8: Starts at 40.9%, finishes at 46.7%, holds until 81.8% */
@keyframes zk8 {
    0%, 40.9% { stroke-dashoffset: 3339; }
    46.7%, 81.8% { stroke-dashoffset: 0; }
    81.9%, 100% { stroke-dashoffset: 3339; }
}
svg.acjk #stroke-p8 { animation-name: zk8; }
/* Stroke 9: Starts at 46.7%, finishes at 52.6%, holds until 81.8% */
@keyframes zk9 {
    0%, 46.7% { stroke-dashoffset: 3339; }
    52.6%, 81.8% { stroke-dashoffset: 0; }
    81.9%, 100% { stroke-dashoffset: 3339; }
}
svg.acjk #stroke-p9 { animation-name: zk9; }
/* Stroke 10: Starts at 52.6%, finishes at 58.4%, holds until 81.8% */
@keyframes zk10 {
    0%, 52.6% { stroke-dashoffset: 3339; }
    58.4%, 81.8% { stroke-dashoffset: 0; }
    81.9%, 100% { stroke-dashoffset: 3339; }
}
svg.acjk #stroke-p10 { animation-name: zk10; }
/* Stroke 11: Starts at 58.4%, finishes at 64.2%, holds until 81.8% */
@keyframes zk11 {
    0%, 58.4% { stroke-dashoffset: 3339; }
    64.2%, 81.8% { stroke-dashoffset: 0; }
    81.9%, 100% { stroke-dashoffset: 3339; }
}
svg.acjk #stroke-p11 { animation-name: zk11; }
/* Stroke 12: Starts at 64.2%, finishes at 70.1%, holds until 81.8% */
@keyframes zk12 {
    0%, 64.2% { stroke-dashoffset: 3339; }
    70.1%, 81.8% { stroke-dashoffset: 0; }
    81.9%, 100% { stroke-dashoffset: 3339; }
}
svg.acjk #stroke-p12 { animation-name: zk12; }
/* Stroke 13: Starts at 70.1%, finishes at 75.9%, holds until 81.8% */
@keyframes zk13 {
    0%, 70.1% { stroke-dashoffset: 3339; }
    75.9%, 81.8% { stroke-dashoffset: 0; }
    81.9%, 100% { stroke-dashoffset: 3339; }
}
svg.acjk #stroke-p13 { animation-name: zk13; }
/* Stroke 14: Starts at 75.9%, finishes at 81.8%, holds until 81.8% */
@keyframes zk14 {
    0%, 75.9% { stroke-dashoffset: 3339; }
    81.8%, 81.8% { stroke-dashoffset: 0; }
    81.9%, 100% { stroke-dashoffset: 3339; }
}
svg.acjk #stroke-p14 { animation-name: zk14; }
]]>
</style>
<defs>
    <path id="p1" d="M 393 401 Q 393 411 409 448 Q 413 461 419 463 Q 423 467 429 462 Q 447 444 448 404 Q 447 386 451 225 Q 452 192 458 170 Q 464 160 462 149 Q 458 142 417 118 Q 401 106 386 117 Q 382 121 387 132 Q 396 144 401 199 C 402 222 402 222 403 234 Q 403 261 403 290 C 403 310 403 310 403 320 Q 403 321 404 324 Q 404 349 397 373 C 394 382 391 392 393 401 Z"/>
    <path id="p2" d="M 401 199 Q 400 198 397 197 Q 373 191 349 199 Q 321 206 291 212 Q 258 218 220 219 Q 190 222 211 237 Q 239 253 310 246 Q 398 233 403 234 C 415 234 411 204 401 199 Z"/>
    <path id="p3" d="M 403 290 Q 400 287 393 286 Q 378 283 297 302 Q 267 306 231 310 Q 201 314 223 329 Q 256 350 301 338 Q 347 331 394 322 Q 398 321 403 320 C 413 318 411 296 403 290 Z"/>
    <path id="p4" d="M 397 373 Q 192 419 157 416 Q 144 417 142 426 Q 139 439 147 447 Q 168 463 198 483 Q 208 487 220 480 Q 241 465 383 405 Q 387 404 393 401 C 401 397 406 371 397 373 Z"/>
    <path id="p5" d="M 608 373 Q 608 345 609 295 C 609 279 609 279 609 271 Q 610 229 611 186 C 613 167 613 167 614 158 Q 615 145 619 136 Q 626 124 623 115 Q 619 108 576 82 Q 560 70 543 82 Q 539 86 545 97 Q 558 116 564 311 Q 563 314 564 319 Q 563 350 556 380 Q 547 408 567 456 Q 573 469 579 471 Q 583 475 589 470 Q 607 455 608 405 C 608 384 608 384 608 373 Z"/>
    <path id="p6" d="M 611 186 Q 644 195 736 180 Q 763 174 791 170 Q 815 166 819 162 Q 826 155 823 147 Q 816 137 790 129 Q 769 125 690 146 Q 657 153 614 158 C 605 160 602 184 611 186 Z"/>
    <path id="p7" d="M 609 295 Q 649 307 692 296 Q 785 275 796 270 Q 803 263 799 255 Q 792 245 765 239 Q 753 236 666 260 Q 641 266 611 270 Q 608 270 609 271 C 601 272 601 293 609 295 Z"/>
    <path id="p8" d="M 608 405 Q 636 408 740 396 Q 795 392 847 389 Q 860 388 861 381 Q 862 369 841 353 Q 805 326 758 347 Q 749 348 608 373 C 597 375 597 405 608 405 Z"/>
    <path id="p9" d="M 343 577 Q 342 576 341 575 Q 329 568 292 565 Q 280 562 277 568 Q 271 575 281 590 Q 309 638 331 718 Q 335 743 351 758 Q 370 779 374 762 Q 375 753 376 742 C 378 731 373 719 371 708 Q 355 638 351 610 C 349 599 352 584 343 577 Z"/>
    <path id="p10" d="M 695 679 Q 722 616 754 600 Q 773 581 758 562 Q 742 547 688 518 Q 669 509 646 517 Q 592 535 542 548 C 501 556 501 556 481 560 Q 411 570 343 577 C 332 579 340 610 351 610 Q 364 610 381 606 Q 430 597 482 590 C 519 584 519 584 538 581 Q 575 574 615 567 Q 645 561 656 574 Q 663 581 661 598 Q 652 635 642 667 C 636 684 688 696 695 679 Z"/>
    <path id="p11" d="M 530 726 Q 602 717 702 712 Q 712 711 715 702 Q 715 695 695 679 C 681 668 660 667 642 667 Q 630 667 533 688 C 501 693 501 693 485 696 Q 424 703 371 708 C 360 710 365 740 376 742 Q 386 745 402 743 Q 436 736 486 731 C 515 728 515 728 530 726 Z"/>
    <path id="p12" d="M 525 811 Q 526 768 530 726 C 532 701 532 701 533 688 Q 534 633 538 581 C 541 559 541 559 542 548 Q 543 535 546 526 Q 550 510 554 496 Q 557 486 538 471 Q 504 453 480 449 Q 464 446 456 454 Q 449 461 457 476 Q 475 501 481 560 C 482 580 482 580 482 590 Q 483 641 485 696 C 486 719 486 719 486 731 Q 485 771 484 816 C 484 830 525 825 525 811 Z"/>
    <path id="p13" d="M 667 790 Q 598 799 525 811 C 498 814 498 814 484 816 Q 405 825 319 836 Q 294 839 252 831 Q 239 830 234 841 Q 230 854 238 865 Q 259 887 290 913 Q 300 917 315 911 Q 363 887 626 829 Q 657 822 682 812 C 690 809 676 788 667 790 Z"/>
    <path id="p14" d="M 682 812 Q 712 855 746 910 Q 758 932 772 939 Q 779 942 789 934 Q 804 924 799 879 Q 799 837 733 793 Q 690 765 666 751 Q 659 744 654 756 Q 651 768 667 790 C 677 805 677 805 682 812 Z"/>

    <clipPath id="z34586c1"><use href="#p1"/></clipPath>
    <clipPath id="z34586c2"><use href="#p2"/></clipPath>
    <clipPath id="z34586c3"><use href="#p3"/></clipPath>
    <clipPath id="z34586c4"><use href="#p4"/></clipPath>
    <clipPath id="z34586c5"><use href="#p5"/></clipPath>
    <clipPath id="z34586c6"><use href="#p6"/></clipPath>
    <clipPath id="z34586c7"><use href="#p7"/></clipPath>
    <clipPath id="z34586c8"><use href="#p8"/></clipPath>
    <clipPath id="z34586c9"><use href="#p9"/></clipPath>
    <clipPath id="z34586c10"><use href="#p10"/></clipPath>
    <clipPath id="z34586c11"><use href="#p11"/></clipPath>
    <clipPath id="z34586c12"><use href="#p12"/></clipPath>
    <clipPath id="z34586c13"><use href="#p13"/></clipPath>
    <clipPath id="z34586c14"><use href="#p14"/></clipPath>
</defs>
<g id="bg-layer" class="bg">
<use href="#p1"/>
<use href="#p2"/>
<use href="#p3"/>
<use href="#p4"/>
<use href="#p5"/>
<use href="#p6"/>
<use href="#p7"/>
<use href="#p8"/>
<use href="#p9"/>
<use href="#p10"/>
<use href="#p11"/>
<use href="#p12"/>
<use href="#p13"/>
<use href="#p14"/>
</g>
<g id="anim-layer">
    <path id="stroke-p1" style="stroke:#FF4444" pathLength="3333" clip-path="url(#z34586c1)" d="M 391 119 L 430 167 L 423 457"/>
    <path id="stroke-p2" style="stroke:#FF4444" pathLength="3333" clip-path="url(#z34586c2)" d="M 213 229 L 401 214"/>
    <path id="stroke-p3" style="stroke:#FF4444" pathLength="3333" clip-path="url(#z34586c3)" d="M 223 319 L 401 300"/>
    <path id="stroke-p4" style="stroke:#FF4444" pathLength="3333" clip-path="url(#z34586c4)" d="M 147 425 L 205 448 L 390 381"/>
    <path id="stroke-p5" style="stroke:#FF4444" pathLength="3333" clip-path="url(#z34586c5)" d="M 548 84 L 589 131 L 576 466"/>
    <path id="stroke-p6" style="stroke:#FF4444" pathLength="3333" clip-path="url(#z34586c6)" d="M 617 179 L 820 152"/>
    <path id="stroke-p7" style="stroke:#FF4444" pathLength="3333" clip-path="url(#z34586c7)" d="M 616 274 L 793 257"/>
    <path id="stroke-p8" style="stroke:#FF4444" pathLength="3333" clip-path="url(#z34586c8)" d="M 614 398 L 856 371"/>
    <path id="stroke-p9" style="stroke:#000" pathLength="3333" clip-path="url(#z34586c9)" d="M 285 574 L 318 597 L 364 764"/>
    <path id="stroke-p10" style="stroke:#000" pathLength="3333" clip-path="url(#z34586c10)" d="M 351 585 L 664 542 L 712 587 L 665 672"/>
    <path id="stroke-p11" style="stroke:#000" pathLength="3333" clip-path="url(#z34586c11)" d="M 379 716 L 709 697"/>
    <path id="stroke-p12" style="stroke:#000" pathLength="3333" clip-path="url(#z34586c12)" d="M 460 458 L 514 507 L 502 813"/>
    <path id="stroke-p13" style="stroke:#000" pathLength="3333" clip-path="url(#z34586c13)" d="M 237 841 L 307 875 L 676 803"/>
    <path id="stroke-p14" style="stroke:#000" pathLength="3333" clip-path="url(#z34586c14)" d="M 662 760 L 759 864 L 781 935"/>
</g>
</svg>