<svg id="z34683" class="acjk" viewBox="0 0 1024 1024" xmlns="http://www.w3.org/2000/svg">
<style>
<![CDATA[
svg.acjk path[clip-path] {
    animation-duration: 14.5s;
    animation-timing-function: linear;
    animation-iteration-count: infinite;
    stroke-dasharray: 3337;
    stroke-dashoffset: 3339;
    stroke-width: 128;
    stroke-linecap: round;
    fill: none;
    stroke: #FF4444;
}
svg.acjk .bg { fill: #ccc; opacity: 0.5; }

/* Stroke 1: Starts at 0.0%, finishes at 5.5%, holds until 82.8% */
@keyframes zk1 {
    0%, 0.0% { stroke-dashoffset: 3339; }
    5.5%, 82.8% { stroke-dashoffset: 0; }
    82.9%, 100% { stroke-dashoffset: 3339; }
}
svg.acjk #stroke-p1 { animation-name: zk1; }
/* Stroke 2: Starts at 5.5%, finishes at 11.0%, holds until 82.8% */
@keyframes zk2 {
    0%, 5.5% { stroke-dashoffset: 3339; }
    11.0%, 82.8% { stroke-dashoffset: 0; }
    82.9%, 100% { stroke-dashoffset: 3339; }
}
svg.acjk #stroke-p2 { animation-name: zk2; }
/* Stroke 3: Starts at 11.0%, finishes at 16.6%, holds until 82.8% */
@keyframes zk3 {
    0%, 11.0% { stroke-dashoffset: 3339; }
    16.6%, 82.8% { stroke-dashoffset: 0; }
    82.9%, 100% { stroke-dashoffset: 3339; }
}
svg.acjk #stroke-p3 { animation-name: zk3; }
/* Stroke 4: Starts at 16.6%, finishes at 22.1%, holds until 82.8% */
@keyframes zk4 {
    0%, 16.6% { stroke-dashoffset: 3339; }
    22.1%, 82.8% { stroke-dashoffset: 0; }
    82.9%, 100% { stroke-dashoffset: 3339; }
}
svg.acjk #stroke-p4 { animation-name: zk4; }
/* Stroke 5: Starts at 22.1%, finishes at 27.6%, holds until 82.8% */
@keyframes zk5 {
    0%, 22.1% { stroke-dashoffset: 3339; }
    27.6%, 82.8% { stroke-dashoffset: 0; }
    82.9%, 100% { stroke-dashoffset: 3339; }
}
svg.acjk #stroke-p5 { animation-name: zk5; }
/* Stroke 6: Starts at 27.6%, finishes at 33.1%, holds until 82.8% */
@keyframes zk6 {
    0%, 27.6% { stroke-dashoffset: 3339; }
    33.1%, 82.8% { stroke-dashoffset: 0; }
    82.9%, 100% { stroke-dashoffset: 3339; }
}
svg.acjk #stroke-p6 { animation-name: zk6; }
/* Stroke 7: Starts at 33.1%, finishes at 38.6%, holds until 82.8% */
@keyframes zk7 {
    0%, 33.1% { stroke-dashoffset: 3339; }
    38.6%, 82.8% { stroke-dashoffset: 0; }
    82.9%, 100% { stroke-dashoffset: 3339; }
}
svg.acjk #stroke-p7 { animation-name: zk7; }
/* Stroke 8: Starts at 38.6%, finishes at 44.1%, holds until 82.8% */
@keyframes zk8 {
    0%, 38.6% { stroke-dashoffset: 3339; }
    44.1%, 82.8% { stroke-dashoffset: 0; }
    82.9%, 100% { stroke-dashoffset: 3339; }
}
svg.acjk #stroke-p8 { animation-name: zk8; }
/* Stroke 9: Starts at 44.1%, finishes at 49.7%, holds until 82.8% */
@keyframes zk9 {
    0%, 44.1% { stroke-dashoffset: 3339; }
    49.7%, 82.8% { stroke-dashoffset: 0; }
    82.9%, 100% { stroke-dashoffset: 3339; }
}
svg.acjk #stroke-p9 { animation-name: zk9; }
/* Stroke 10: Starts at 49.7%, finishes at 55.2%, holds until 82.8% */
@keyframes zk10 {
    0%, 49.7% { stroke-dashoffset: 3339; }
    55.2%, 82.8% { stroke-dashoffset: 0; }
    82.9%, 100% { stroke-dashoffset: 3339; }
}
svg.acjk #stroke-p10 { animation-name: zk10; }
/* Stroke 11: Starts at 55.2%, finishes at 60.7%, holds until 82.8% */
@keyframes zk11 {
    0%, 55.2% { stroke-dashoffset: 3339; }
    60.7%, 82.8% { stroke-dashoffset: 0; }
    82.9%, 100% { stroke-dashoffset: 3339; }
}
svg.acjk #stroke-p11 { animation-name: zk11; }
/* Stroke 12: Starts at 60.7%, finishes at 66.2%, holds until 82.8% */
@keyframes zk12 {
    0%, 60.7% { stroke-dashoffset: 3339; }
    66.2%, 82.8% { stroke-dashoffset: 0; }
    82.9%, 100% { stroke-dashoffset: 3339; }
}
svg.acjk #stroke-p12 { animation-name: zk12; }
/* Stroke 13: Starts at 66.2%, finishes at 71.7%, holds until 82.8% */
@keyframes zk13 {
    0%, 66.2% { stroke-dashoffset: 3339; }
    71.7%, 82.8% { stroke-dashoffset: 0; }
    82.9%, 100% { stroke-dashoffset: 3339; }
}
svg.acjk #stroke-p13 { animation-name: zk13; }
/* Stroke 14: Starts at 71.7%, finishes at 77.2%, holds until 82.8% */
@keyframes zk14 {
    0%, 71.7% { stroke-dashoffset: 3339; }
    77.2%, 82.8% { stroke-dashoffset: 0; }
    82.9%, 100% { stroke-dashoffset: 3339; }
}
svg.acjk #stroke-p14 { animation-name: zk14; }
/* Stroke 15: Starts at 77.2%, finishes at 82.8%, holds until 82.8% */
@keyframes zk15 {
    0%, 77.2% { stroke-dashoffset: 3339; }
    82.8%, 82.8% { stroke-dashoffset: 0; }
    82.9%, 100% { stroke-dashoffset: 3339; }
}
svg.acjk #stroke-p15 { animation-name: zk15; }
]]>
</style>
<defs>
    <path id="p1" d="M 142 379 Q 132 373 97 368 Q 87 365 83 370 Q 77 376 85 391 Q 112 443 130 527 Q 133 552 148 569 Q 166 590 170 575 Q 173 565 173 552 C 171 531 171 531 170 520 Q 155 439 151 409 C 149 399 152 383 142 379 Z"/>
    <path id="p2" d="M 386 489 Q 407 414 438 388 Q 453 372 439 355 Q 372 307 322 332 Q 303 338 285 346 C 253 355 253 355 237 359 Q 189 369 142 379 C 132 381 141 411 151 409 Q 158 408 172 403 Q 205 396 238 390 C 269 383 269 383 285 379 Q 345 366 353 373 Q 360 380 360 396 Q 353 442 343 480 C 340 494 383 503 386 489 Z"/>
    <path id="p3" d="M 281 532 Q 329 523 393 517 Q 403 516 404 507 Q 404 500 386 489 C 373 481 357 477 343 480 Q 334 480 282 496 C 253 503 253 503 238 507 Q 202 514 170 520 C 159 522 162 552 173 552 Q 177 552 184 551 Q 206 544 238 539 C 267 534 267 534 281 532 Z"/>
    <path id="p4" d="M 277 650 Q 278 589 281 532 C 282 508 282 508 282 496 Q 283 436 285 379 C 285 357 285 357 285 346 Q 288 276 305 175 Q 309 163 287 148 Q 250 129 225 126 Q 209 122 200 132 Q 193 139 201 155 Q 232 198 232 229 Q 235 292 237 359 C 238 380 238 380 238 390 Q 238 447 238 507 C 238 528 238 528 238 539 Q 237 600 234 665 C 234 680 277 665 277 650 Z"/>
    <path id="p5" d="M 356 623 Q 316 636 277 650 C 248 660 248 660 234 665 Q 179 681 117 700 Q 98 706 69 705 Q 56 706 54 717 Q 53 730 62 738 Q 84 754 118 772 Q 128 775 140 766 Q 176 738 337 661 Q 352 654 365 646 C 372 642 364 620 356 623 Z"/>
    <path id="p6" d="M 365 646 Q 383 697 396 702 Q 403 705 410 699 Q 417 692 421 670 Q 427 637 357 569 Q 350 562 344 562 Q 340 563 337 571 C 350 606 350 606 356 623 C 362 638 362 638 365 646 Z"/>
    <path id="p7" d="M 684 330 Q 844 300 854 291 Q 863 284 859 276 Q 852 264 824 256 Q 796 250 765 261 Q 729 271 692 283 C 653 293 653 293 634 298 Q 576 307 510 312 Q 474 318 499 334 Q 532 358 606 344 Q 618 341 631 340 C 666 333 666 333 684 330 Z"/>
    <path id="p8" d="M 665 441 Q 674 384 684 330 C 689 299 689 299 692 283 Q 695 220 727 139 Q 731 129 712 111 Q 678 89 653 81 Q 637 77 628 84 Q 619 91 626 107 Q 644 138 642 158 Q 641 225 634 298 C 632 326 632 326 631 340 Q 625 391 619 448 C 616 463 662 456 665 441 Z"/>
    <path id="p9" d="M 480 474 Q 462 456 436 450 Q 430 447 426 453 Q 422 459 425 472 Q 450 521 452 563 Q 455 660 441 766 Q 437 788 445 808 Q 457 827 472 839 Q 485 849 488 838 Q 495 834 497 813 Q 503 789 497 709 Q 491 567 496 515 Q 497 509 497 504 C 497 493 489 481 480 474 Z"/>
    <path id="p10" d="M 497 504 Q 506 494 706 469 C 726 468 726 468 736 467 Q 773 463 830 461 Q 842 461 845 466 Q 852 472 854 507 Q 863 657 846 742 Q 840 775 812 772 Q 782 766 756 761 Q 743 757 742 763 Q 741 770 751 781 Q 815 839 832 868 Q 841 881 850 879 Q 863 878 874 854 Q 895 820 901 778 Q 913 723 917 529 Q 918 493 929 474 Q 945 455 932 450 Q 917 435 883 421 Q 865 411 804 424 Q 728 428 665 441 C 634 446 634 446 619 448 Q 598 451 581 455 Q 529 465 480 474 C 469 476 487 509 497 504 Z"/>
    <path id="p11" d="M 568 518 Q 595 575 610 582 Q 619 586 627 574 Q 631 565 629 549 Q 619 518 577 500 Q 571 496 568 505 Q 565 509 568 518 Z"/>
    <path id="p12" d="M 706 469 Q 715 493 687 565 Q 683 572 682 579 C 680 588 705 580 710 572 Q 711 569 714 566 Q 726 550 739 527 Q 743 517 754 505 Q 764 498 759 489 Q 753 479 736 467 C 728 461 704 459 706 469 Z"/>
    <path id="p13" d="M 682 579 Q 678 579 675 581 Q 638 590 604 595 Q 580 598 555 602 Q 533 606 550 618 Q 571 634 608 628 Q 618 625 634 624 C 664 617 664 617 679 614 Q 698 610 722 606 Q 792 597 798 588 Q 799 579 781 572 Q 756 554 710 572 C 691 577 691 577 682 579 Z"/>
    <path id="p14" d="M 640 673 Q 594 683 551 692 Q 535 695 554 710 Q 564 717 587 715 Q 615 711 642 707 C 673 703 673 703 688 701 Q 731 694 770 690 Q 792 687 785 675 Q 775 662 751 656 Q 729 652 691 661 C 657 669 657 669 640 673 Z"/>
    <path id="p15" d="M 634 624 Q 634 627 640 673 C 641 696 641 696 642 707 Q 642 825 656 850 Q 660 854 666 853 Q 675 847 682 804 Q 683 789 688 701 C 690 674 690 674 691 661 Q 691 652 695 640 Q 698 627 687 619 Q 683 616 679 614 C 666 606 634 609 634 624 Z"/>

    <clipPath id="z34683c1"><use href="#p1"/></clipPath>
    <clipPath id="z34683c2"><use href="#p2"/></clipPath>
    <clipPath id="z34683c3"><use href="#p3"/></clipPath>
    <clipPath id="z34683c4"><use href="#p4"/></clipPath>
    <clipPath id="z34683c5"><use href="#p5"/></clipPath>
    <clipPath id="z34683c6"><use href="#p6"/></clipPath>
    <clipPath id="z34683c7"><use href="#p7"/></clipPath>
    <clipPath id="z34683c8"><use href="#p8"/></clipPath>
    <clipPath id="z34683c9"><use href="#p9"/></clipPath>
    <clipPath id="z34683c10"><use href="#p10"/></clipPath>
    <clipPath id="z34683c11"><use href="#p11"/></clipPath>
    <clipPath id="z34683c12"><use href="#p12"/></clipPath>
    <clipPath id="z34683c13"><use href="#p13"/></clipPath>
    <clipPath id="z34683c14"><use href="#p14"/></clipPath>
    <clipPath id="z34683c15"><use href="#p15"/></clipPath>
</defs>
<g id="bg-layer" class="bg">
<use href="#p1"/>
<use href="#p2"/>
<use href="#p3"/>
<use href="#p4"/>
<use href="#p5"/>
<use href="#p6"/>
<use href="#p7"/>
<use href="#p8"/>
<use href="#p9"/>
<use href="#p10"/>
<use href="#p11"/>
<use href="#p12"/>
<use href="#p13"/>
<use href="#p14"/>
<use href="#p15"/>
</g>
<g id="anim-layer">
    <path id="stroke-p1" style="stroke:#FF4444" pathLength="3333" clip-path="url(#z34683c1)" d="M 89 378 L 122 406 L 163 574"/>
    <path id="stroke-p2" style="stroke:#FF4444" pathLength="3333" clip-path="url(#z34683c2)" d="M 149 384 L 350 347 L 387 359 L 402 383 L 367 484"/>
    <path id="stroke-p3" style="stroke:#FF4444" pathLength="3333" clip-path="url(#z34683c3)" d="M 180 544 L 330 503 L 399 507"/>
    <path id="stroke-p4" style="stroke:#FF4444" pathLength="3333" clip-path="url(#z34683c4)" d="M 205 137 L 266 190 L 242 656"/>
    <path id="stroke-p5" style="stroke:#FF4444" pathLength="3333" clip-path="url(#z34683c5)" d="M 57 716 L 118 737 L 360 635"/>
    <path id="stroke-p6" style="stroke:#FF4444" pathLength="3333" clip-path="url(#z34683c6)" d="M 346 572 L 404 696"/>
    <path id="stroke-p7" style="stroke:#000" pathLength="3333" clip-path="url(#z34683c7)" d="M 500 323 L 856 282"/>
    <path id="stroke-p8" style="stroke:#000" pathLength="3333" clip-path="url(#z34683c8)" d="M 630 90 L 685 142 L 635 445"/>
    <path id="stroke-p9" style="stroke:#000" pathLength="3333" clip-path="url(#z34683c9)" d="M 433 454 L 471 522 L 475 837"/>
    <path id="stroke-p10" style="stroke:#000" pathLength="3333" clip-path="url(#z34683c10)" d="M 490 477 L 877 450 L 895 476 L 866 786 L 834 826 L 752 766"/>
    <path id="stroke-p11" style="stroke:#000" pathLength="3333" clip-path="url(#z34683c11)" d="M 574 504 L 618 574"/>
    <path id="stroke-p12" style="stroke:#000" pathLength="3333" clip-path="url(#z34683c12)" d="M 713 478 L 730 510 L 690 571"/>
    <path id="stroke-p13" style="stroke:#000" pathLength="3333" clip-path="url(#z34683c13)" d="M 551 609 L 790 585"/>
    <path id="stroke-p14" style="stroke:#000" pathLength="3333" clip-path="url(#z34683c14)" d="M 555 701 L 779 675"/>
    <path id="stroke-p15" style="stroke:#000" pathLength="3333" clip-path="url(#z34683c15)" d="M 640 626 L 667 651 L 663 846"/>
</g>
</svg>