<svg id="z34835" class="acjk" viewBox="0 0 1024 1024" xmlns="http://www.w3.org/2000/svg">
<style>
<![CDATA[
svg.acjk path[clip-path] {
    animation-duration: 17.700000000000003s;
    animation-timing-function: linear;
    animation-iteration-count: infinite;
    stroke-dasharray: 3337;
    stroke-dashoffset: 3339;
    stroke-width: 128;
    stroke-linecap: round;
    fill: none;
    stroke: #FF4444;
}
svg.acjk .bg { fill: #ccc; opacity: 0.5; }

/* Stroke 1: Starts at 0.0%, finishes at 4.5%, holds until 85.9% */
@keyframes zk1 {
    0%, 0.0% { stroke-dashoffset: 3339; }
    4.5%, 85.9% { stroke-dashoffset: 0; }
    86.0%, 100% { stroke-dashoffset: 3339; }
}
svg.acjk #stroke-p1 { animation-name: zk1; }
/* Stroke 2: Starts at 4.5%, finishes at 9.0%, holds until 85.9% */
@keyframes zk2 {
    0%, 4.5% { stroke-dashoffset: 3339; }
    9.0%, 85.9% { stroke-dashoffset: 0; }
    86.0%, 100% { stroke-dashoffset: 3339; }
}
svg.acjk #stroke-p2 { animation-name: zk2; }
/* Stroke 3: Starts at 9.0%, finishes at 13.6%, holds until 85.9% */
@keyframes zk3 {
    0%, 9.0% { stroke-dashoffset: 3339; }
    13.6%, 85.9% { stroke-dashoffset: 0; }
    86.0%, 100% { stroke-dashoffset: 3339; }
}
svg.acjk #stroke-p3 { animation-name: zk3; }
/* Stroke 4: Starts at 13.6%, finishes at 18.1%, holds until 85.9% */
@keyframes zk4 {
    0%, 13.6% { stroke-dashoffset: 3339; }
    18.1%, 85.9% { stroke-dashoffset: 0; }
    86.0%, 100% { stroke-dashoffset: 3339; }
}
svg.acjk #stroke-p4 { animation-name: zk4; }
/* Stroke 5: Starts at 18.1%, finishes at 22.6%, holds until 85.9% */
@keyframes zk5 {
    0%, 18.1% { stroke-dashoffset: 3339; }
    22.6%, 85.9% { stroke-dashoffset: 0; }
    86.0%, 100% { stroke-dashoffset: 3339; }
}
svg.acjk #stroke-p5 { animation-name: zk5; }
/* Stroke 6: Starts at 22.6%, finishes at 27.1%, holds until 85.9% */
@keyframes zk6 {
    0%, 22.6% { stroke-dashoffset: 3339; }
    27.1%, 85.9% { stroke-dashoffset: 0; }
    86.0%, 100% { stroke-dashoffset: 3339; }
}
svg.acjk #stroke-p6 { animation-name: zk6; }
/* Stroke 7: Starts at 27.1%, finishes at 31.6%, holds until 85.9% */
@keyframes zk7 {
    0%, 27.1% { stroke-dashoffset: 3339; }
    31.6%, 85.9% { stroke-dashoffset: 0; }
    86.0%, 100% { stroke-dashoffset: 3339; }
}
svg.acjk #stroke-p7 { animation-name: zk7; }
/* Stroke 8: Starts at 31.6%, finishes at 36.2%, holds until 85.9% */
@keyframes zk8 {
    0%, 31.6% { stroke-dashoffset: 3339; }
    36.2%, 85.9% { stroke-dashoffset: 0; }
    86.0%, 100% { stroke-dashoffset: 3339; }
}
svg.acjk #stroke-p8 { animation-name: zk8; }
/* Stroke 9: Starts at 36.2%, finishes at 40.7%, holds until 85.9% */
@keyframes zk9 {
    0%, 36.2% { stroke-dashoffset: 3339; }
    40.7%, 85.9% { stroke-dashoffset: 0; }
    86.0%, 100% { stroke-dashoffset: 3339; }
}
svg.acjk #stroke-p9 { animation-name: zk9; }
/* Stroke 10: Starts at 40.7%, finishes at 45.2%, holds until 85.9% */
@keyframes zk10 {
    0%, 40.7% { stroke-dashoffset: 3339; }
    45.2%, 85.9% { stroke-dashoffset: 0; }
    86.0%, 100% { stroke-dashoffset: 3339; }
}
svg.acjk #stroke-p10 { animation-name: zk10; }
/* Stroke 11: Starts at 45.2%, finishes at 49.7%, holds until 85.9% */
@keyframes zk11 {
    0%, 45.2% { stroke-dashoffset: 3339; }
    49.7%, 85.9% { stroke-dashoffset: 0; }
    86.0%, 100% { stroke-dashoffset: 3339; }
}
svg.acjk #stroke-p11 { animation-name: zk11; }
/* Stroke 12: Starts at 49.7%, finishes at 54.2%, holds until 85.9% */
@keyframes zk12 {
    0%, 49.7% { stroke-dashoffset: 3339; }
    54.2%, 85.9% { stroke-dashoffset: 0; }
    86.0%, 100% { stroke-dashoffset: 3339; }
}
svg.acjk #stroke-p12 { animation-name: zk12; }
/* Stroke 13: Starts at 54.2%, finishes at 58.8%, holds until 85.9% */
@keyframes zk13 {
    0%, 54.2% { stroke-dashoffset: 3339; }
    58.8%, 85.9% { stroke-dashoffset: 0; }
    86.0%, 100% { stroke-dashoffset: 3339; }
}
svg.acjk #stroke-p13 { animation-name: zk13; }
/* Stroke 14: Starts at 58.8%, finishes at 63.3%, holds until 85.9% */
@keyframes zk14 {
    0%, 58.8% { stroke-dashoffset: 3339; }
    63.3%, 85.9% { stroke-dashoffset: 0; }
    86.0%, 100% { stroke-dashoffset: 3339; }
}
svg.acjk #stroke-p14 { animation-name: zk14; }
/* Stroke 15: Starts at 63.3%, finishes at 67.8%, holds until 85.9% */
@keyframes zk15 {
    0%, 63.3% { stroke-dashoffset: 3339; }
    67.8%, 85.9% { stroke-dashoffset: 0; }
    86.0%, 100% { stroke-dashoffset: 3339; }
}
svg.acjk #stroke-p15 { animation-name: zk15; }
/* Stroke 16: Starts at 67.8%, finishes at 72.3%, holds until 85.9% */
@keyframes zk16 {
    0%, 67.8% { stroke-dashoffset: 3339; }
    72.3%, 85.9% { stroke-dashoffset: 0; }
    86.0%, 100% { stroke-dashoffset: 3339; }
}
svg.acjk #stroke-p16 { animation-name: zk16; }
/* Stroke 17: Starts at 72.3%, finishes at 76.8%, holds until 85.9% */
@keyframes zk17 {
    0%, 72.3% { stroke-dashoffset: 3339; }
    76.8%, 85.9% { stroke-dashoffset: 0; }
    86.0%, 100% { stroke-dashoffset: 3339; }
}
svg.acjk #stroke-p17 { animation-name: zk17; }
/* Stroke 18: Starts at 76.8%, finishes at 81.4%, holds until 85.9% */
@keyframes zk18 {
    0%, 76.8% { stroke-dashoffset: 3339; }
    81.4%, 85.9% { stroke-dashoffset: 0; }
    86.0%, 100% { stroke-dashoffset: 3339; }
}
svg.acjk #stroke-p18 { animation-name: zk18; }
/* Stroke 19: Starts at 81.4%, finishes at 85.9%, holds until 85.9% */
@keyframes zk19 {
    0%, 81.4% { stroke-dashoffset: 3339; }
    85.9%, 85.9% { stroke-dashoffset: 0; }
    86.0%, 100% { stroke-dashoffset: 3339; }
}
svg.acjk #stroke-p19 { animation-name: zk19; }
]]>
</style>
<defs>
    <path id="p1" d="M 115 388 Q 106 384 83 380 Q 73 379 70 382 Q 66 388 73 401 Q 97 450 113 530 Q 116 555 130 571 Q 146 589 150 575 Q 153 565 152 547 C 149 526 149 526 147 516 Q 134 441 130 416 C 128 406 125 392 115 388 Z"/>
    <path id="p2" d="M 349 479 Q 371 410 396 394 Q 409 378 397 363 Q 330 317 281 344 Q 268 348 256 354 C 227 363 227 363 212 368 Q 163 378 115 388 C 105 390 120 418 130 416 Q 140 415 150 411 Q 181 404 213 397 C 241 390 241 390 255 387 Q 271 383 290 378 Q 308 374 316 380 Q 325 389 308 474 C 306 488 344 492 349 479 Z"/>
    <path id="p3" d="M 252 527 Q 295 517 362 509 Q 372 508 373 499 Q 373 492 349 479 C 337 472 322 472 308 474 Q 301 474 253 490 C 226 497 226 497 213 501 Q 177 508 147 516 C 137 518 142 547 152 547 Q 159 547 168 545 Q 184 541 212 535 C 239 530 239 530 252 527 Z"/>
    <path id="p4" d="M 248 649 Q 249 586 252 527 C 253 502 253 502 253 490 Q 254 438 255 387 C 256 365 256 365 256 354 Q 256 257 275 180 Q 278 168 258 155 Q 224 137 200 133 Q 184 130 176 139 Q 169 146 177 161 Q 207 204 207 234 Q 211 298 212 368 C 213 387 213 387 213 397 Q 213 448 213 501 C 212 524 212 524 212 535 Q 211 596 208 662 C 208 676 248 663 248 649 Z"/>
    <path id="p5" d="M 316 627 Q 282 637 248 649 C 221 658 221 658 208 662 Q 84 695 65 696 Q 52 697 51 707 Q 50 720 58 727 Q 80 742 112 759 Q 122 762 133 753 Q 151 738 299 662 Q 312 655 325 646 C 331 642 323 626 316 627 Z"/>
    <path id="p6" d="M 325 646 Q 346 694 356 699 Q 363 702 370 695 Q 377 688 380 666 Q 383 639 322 585 Q 313 578 308 578 Q 304 579 301 587 Q 301 596 316 627 C 322 640 322 640 325 646 Z"/>
    <path id="p7" d="M 701 203 Q 734 194 826 198 Q 839 199 844 191 Q 848 181 836 169 Q 791 133 724 155 C 689 162 689 162 671 165 Q 622 174 566 184 C 538 188 538 188 524 190 Q 472 197 416 205 Q 391 209 409 222 Q 440 240 509 230 Q 519 226 534 224 C 557 219 557 219 569 217 Q 603 208 661 206 C 688 204 688 204 701 203 Z"/>
    <path id="p8" d="M 566 184 Q 563 159 562 140 Q 563 124 546 119 Q 512 104 494 111 Q 478 118 492 135 Q 514 160 524 190 C 531 213 531 213 534 224 Q 537 255 556 274 Q 568 283 571 273 Q 575 260 569 217 C 567 195 567 195 566 184 Z"/>
    <path id="p9" d="M 724 155 Q 730 142 741 124 Q 754 112 745 103 Q 735 88 706 72 Q 693 63 677 71 Q 668 75 674 86 Q 681 101 671 165 C 664 192 664 192 661 206 Q 660 213 657 223 Q 651 242 651 254 Q 652 267 666 257 Q 678 247 701 203 C 716 171 716 171 724 155 Z"/>
    <path id="p10" d="M 479 327 Q 469 302 448 290 Q 445 286 440 289 Q 436 293 434 303 Q 438 337 409 399 Q 400 415 401 431 Q 405 450 413 463 Q 420 473 425 466 Q 437 463 452 417 Q 467 371 475 355 C 479 346 483 336 479 327 Z"/>
    <path id="p11" d="M 475 355 Q 488 359 521 353 Q 587 323 740 305 Q 762 302 771 303 Q 783 310 781 316 Q 781 319 757 377 Q 751 387 757 391 Q 763 395 776 385 Q 821 354 858 344 Q 889 334 888 328 Q 887 319 827 277 Q 806 261 695 287 Q 668 287 479 327 C 470 329 466 353 475 355 Z"/>
    <path id="p12" d="M 510 402 Q 497 405 513 417 Q 522 423 540 420 Q 625 404 689 392 Q 708 389 701 378 Q 692 366 671 363 Q 659 362 510 402 Z"/>
    <path id="p13" d="M 556 503 Q 607 488 707 469 Q 716 470 723 459 Q 723 449 703 441 Q 670 426 602 451 Q 599 451 598 452 Q 582 456 494 475 Q 469 479 489 493 Q 502 502 520 509 C 531 514 544 505 556 503 Z"/>
    <path id="p14" d="M 559 542 Q 563 538 566 537 Q 572 534 572 528 Q 572 519 556 503 C 547 494 526 499 520 509 Q 484 573 394 637 Q 388 638 394 642 Q 452 642 540 560 C 553 548 553 548 559 542 Z"/>
    <path id="p15" d="M 641 611 Q 605 566 559 542 C 552 538 533 556 540 560 Q 549 564 558 573 C 571 586 588 595 597 610 Q 604 620 612 631 C 624 647 631 667 635 686 Q 647 734 629 811 Q 622 841 612 844 Q 603 850 538 842 Q 513 836 512 844 Q 511 851 523 861 Q 578 901 602 930 Q 614 946 627 941 Q 643 938 657 916 Q 709 811 675 680 C 658 641 658 641 649 621 C 647 617 644 614 641 611 Z"/>
    <path id="p16" d="M 558 573 Q 540 630 408 716 Q 392 725 411 724 Q 468 724 567 637 Q 586 619 597 610 C 611 599 565 556 558 573 Z"/>
    <path id="p17" d="M 612 631 Q 546 742 392 843 Q 379 853 388 855 Q 403 864 471 831 Q 556 789 634 687 Q 634 686 635 686 C 647 670 624 615 612 631 Z"/>
    <path id="p18" d="M 649 621 Q 652 621 657 619 Q 745 567 788 548 Q 804 545 802 535 Q 798 520 782 502 Q 766 484 747 481 Q 734 480 733 497 Q 733 516 641 611 C 638 614 645 622 649 621 Z"/>
    <path id="p19" d="M 675 680 Q 798 803 828 811 Q 877 820 967 799 Q 982 798 983 793 Q 984 787 972 783 Q 782 723 691 654 Q 687 651 684 649 Q 663 633 649 621 C 634 606 660 665 675 680 Z"/>

    <clipPath id="z34835c1"><use href="#p1"/></clipPath>
    <clipPath id="z34835c2"><use href="#p2"/></clipPath>
    <clipPath id="z34835c3"><use href="#p3"/></clipPath>
    <clipPath id="z34835c4"><use href="#p4"/></clipPath>
    <clipPath id="z34835c5"><use href="#p5"/></clipPath>
    <clipPath id="z34835c6"><use href="#p6"/></clipPath>
    <clipPath id="z34835c7"><use href="#p7"/></clipPath>
    <clipPath id="z34835c8"><use href="#p8"/></clipPath>
    <clipPath id="z34835c9"><use href="#p9"/></clipPath>
    <clipPath id="z34835c10"><use href="#p10"/></clipPath>
    <clipPath id="z34835c11"><use href="#p11"/></clipPath>
    <clipPath id="z34835c12"><use href="#p12"/></clipPath>
    <clipPath id="z34835c13"><use href="#p13"/></clipPath>
    <clipPath id="z34835c14"><use href="#p14"/></clipPath>
    <clipPath id="z34835c15"><use href="#p15"/></clipPath>
    <clipPath id="z34835c16"><use href="#p16"/></clipPath>
    <clipPath id="z34835c17"><use href="#p17"/></clipPath>
    <clipPath id="z34835c18"><use href="#p18"/></clipPath>
    <clipPath id="z34835c19"><use href="#p19"/></clipPath>
</defs>
<g id="bg-layer" class="bg">
<use href="#p1"/>
<use href="#p2"/>
<use href="#p3"/>
<use href="#p4"/>
<use href="#p5"/>
<use href="#p6"/>
<use href="#p7"/>
<use href="#p8"/>
<use href="#p9"/>
<use href="#p10"/>
<use href="#p11"/>
<use href="#p12"/>
<use href="#p13"/>
<use href="#p14"/>
<use href="#p15"/>
<use href="#p16"/>
<use href="#p17"/>
<use href="#p18"/>
<use href="#p19"/>
</g>
<g id="anim-layer">
    <path id="stroke-p1" style="stroke:#FF4444" pathLength="3333" clip-path="url(#z34835c1)" d="M 76 389 L 105 414 L 139 576"/>
    <path id="stroke-p2" style="stroke:#FF4444" pathLength="3333" clip-path="url(#z34835c2)" d="M 117 393 L 337 361 L 361 385 L 322 484"/>
    <path id="stroke-p3" style="stroke:#FF4444" pathLength="3333" clip-path="url(#z34835c3)" d="M 143 528 L 367 499"/>
    <path id="stroke-p4" style="stroke:#FF4444" pathLength="3333" clip-path="url(#z34835c4)" d="M 178 140 L 239 196 L 218 664"/>
    <path id="stroke-p5" style="stroke:#FF4444" pathLength="3333" clip-path="url(#z34835c5)" d="M 54 706 L 120 721 L 320 636"/>
    <path id="stroke-p6" style="stroke:#FF4444" pathLength="3333" clip-path="url(#z34835c6)" d="M 309 584 L 365 694"/>
    <path id="stroke-p7" style="stroke:#000" pathLength="3333" clip-path="url(#z34835c7)" d="M 410 213 L 777 171 L 839 186"/>
    <path id="stroke-p8" style="stroke:#000" pathLength="3333" clip-path="url(#z34835c8)" d="M 490 118 L 538 152 L 563 274"/>
    <path id="stroke-p9" style="stroke:#000" pathLength="3333" clip-path="url(#z34835c9)" d="M 679 73 L 712 115 L 657 252"/>
    <path id="stroke-p10" style="stroke:#000" pathLength="3333" clip-path="url(#z34835c10)" d="M 444 294 L 456 334 L 421 462"/>
    <path id="stroke-p11" style="stroke:#000" pathLength="3333" clip-path="url(#z34835c11)" d="M 474 346 L 787 289 L 831 328 L 762 386"/>
    <path id="stroke-p12" style="stroke:#000" pathLength="3333" clip-path="url(#z34835c12)" d="M 509 407 L 697 385"/>
    <path id="stroke-p13" style="stroke:#000" pathLength="3333" clip-path="url(#z34835c13)" d="M 486 482 L 717 458"/>
    <path id="stroke-p14" style="stroke:#000" pathLength="3333" clip-path="url(#z34835c14)" d="M 547 501 L 506 564 L 402 638"/>
    <path id="stroke-p15" style="stroke:#000" pathLength="3333" clip-path="url(#z34835c15)" d="M 547 556 L 634 631 L 663 772 L 647 855 L 618 892 L 519 847"/>
    <path id="stroke-p16" style="stroke:#000" pathLength="3333" clip-path="url(#z34835c16)" d="M 564 574 L 570 604 L 538 637 L 410 720"/>
    <path id="stroke-p17" style="stroke:#000" pathLength="3333" clip-path="url(#z34835c17)" d="M 617 636 L 611 676 L 547 750 L 393 850"/>
    <path id="stroke-p18" style="stroke:#000" pathLength="3333" clip-path="url(#z34835c18)" d="M 744 484 L 763 527 L 647 614"/>
    <path id="stroke-p19" style="stroke:#000" pathLength="3333" clip-path="url(#z34835c19)" d="M 650 627 L 832 772 L 976 789"/>
</g>
</svg>