<svg id="z34989" class="acjk" viewBox="0 0 1024 1024" xmlns="http://www.w3.org/2000/svg">
<style>
<![CDATA[
svg.acjk path[clip-path] {
    animation-duration: 11.3s;
    animation-timing-function: linear;
    animation-iteration-count: infinite;
    stroke-dasharray: 3337;
    stroke-dashoffset: 3339;
    stroke-width: 128;
    stroke-linecap: round;
    fill: none;
    stroke: #FF4444;
}
svg.acjk .bg { fill: #ccc; opacity: 0.5; }

/* Stroke 1: Starts at 0.0%, finishes at 7.1%, holds until 77.9% */
@keyframes zk1 {
    0%, 0.0% { stroke-dashoffset: 3339; }
    7.1%, 77.9% { stroke-dashoffset: 0; }
    78.0%, 100% { stroke-dashoffset: 3339; }
}
svg.acjk #stroke-p1 { animation-name: zk1; }
/* Stroke 2: Starts at 7.1%, finishes at 14.2%, holds until 77.9% */
@keyframes zk2 {
    0%, 7.1% { stroke-dashoffset: 3339; }
    14.2%, 77.9% { stroke-dashoffset: 0; }
    78.0%, 100% { stroke-dashoffset: 3339; }
}
svg.acjk #stroke-p2 { animation-name: zk2; }
/* Stroke 3: Starts at 14.2%, finishes at 21.2%, holds until 77.9% */
@keyframes zk3 {
    0%, 14.2% { stroke-dashoffset: 3339; }
    21.2%, 77.9% { stroke-dashoffset: 0; }
    78.0%, 100% { stroke-dashoffset: 3339; }
}
svg.acjk #stroke-p3 { animation-name: zk3; }
/* Stroke 4: Starts at 21.2%, finishes at 28.3%, holds until 77.9% */
@keyframes zk4 {
    0%, 21.2% { stroke-dashoffset: 3339; }
    28.3%, 77.9% { stroke-dashoffset: 0; }
    78.0%, 100% { stroke-dashoffset: 3339; }
}
svg.acjk #stroke-p4 { animation-name: zk4; }
/* Stroke 5: Starts at 28.3%, finishes at 35.4%, holds until 77.9% */
@keyframes zk5 {
    0%, 28.3% { stroke-dashoffset: 3339; }
    35.4%, 77.9% { stroke-dashoffset: 0; }
    78.0%, 100% { stroke-dashoffset: 3339; }
}
svg.acjk #stroke-p5 { animation-name: zk5; }
/* Stroke 6: Starts at 35.4%, finishes at 42.5%, holds until 77.9% */
@keyframes zk6 {
    0%, 35.4% { stroke-dashoffset: 3339; }
    42.5%, 77.9% { stroke-dashoffset: 0; }
    78.0%, 100% { stroke-dashoffset: 3339; }
}
svg.acjk #stroke-p6 { animation-name: zk6; }
/* Stroke 7: Starts at 42.5%, finishes at 49.6%, holds until 77.9% */
@keyframes zk7 {
    0%, 42.5% { stroke-dashoffset: 3339; }
    49.6%, 77.9% { stroke-dashoffset: 0; }
    78.0%, 100% { stroke-dashoffset: 3339; }
}
svg.acjk #stroke-p7 { animation-name: zk7; }
/* Stroke 8: Starts at 49.6%, finishes at 56.6%, holds until 77.9% */
@keyframes zk8 {
    0%, 49.6% { stroke-dashoffset: 3339; }
    56.6%, 77.9% { stroke-dashoffset: 0; }
    78.0%, 100% { stroke-dashoffset: 3339; }
}
svg.acjk #stroke-p8 { animation-name: zk8; }
/* Stroke 9: Starts at 56.6%, finishes at 63.7%, holds until 77.9% */
@keyframes zk9 {
    0%, 56.6% { stroke-dashoffset: 3339; }
    63.7%, 77.9% { stroke-dashoffset: 0; }
    78.0%, 100% { stroke-dashoffset: 3339; }
}
svg.acjk #stroke-p9 { animation-name: zk9; }
/* Stroke 10: Starts at 63.7%, finishes at 70.8%, holds until 77.9% */
@keyframes zk10 {
    0%, 63.7% { stroke-dashoffset: 3339; }
    70.8%, 77.9% { stroke-dashoffset: 0; }
    78.0%, 100% { stroke-dashoffset: 3339; }
}
svg.acjk #stroke-p10 { animation-name: zk10; }
/* Stroke 11: Starts at 70.8%, finishes at 77.9%, holds until 77.9% */
@keyframes zk11 {
    0%, 70.8% { stroke-dashoffset: 3339; }
    77.9%, 77.9% { stroke-dashoffset: 0; }
    78.0%, 100% { stroke-dashoffset: 3339; }
}
svg.acjk #stroke-p11 { animation-name: zk11; }
]]>
</style>
<defs>
    <path id="p1" d="M 556 216 Q 682 188 686 186 Q 693 179 690 171 Q 684 161 658 152 Q 630 145 603 155 Q 554 168 504 182 C 465 191 465 191 445 195 Q 363 208 270 215 Q 236 219 259 235 Q 298 260 348 249 Q 388 242 430 236 C 468 231 468 231 487 228 Q 502 225 518 223 C 543 218 543 218 556 216 Z"/>
    <path id="p2" d="M 504 182 Q 504 179 532 116 Q 544 100 527 84 Q 490 48 475 47 Q 456 46 465 69 Q 472 103 445 195 C 435 222 435 222 430 236 Q 361 417 203 498 Q 187 505 182 510 Q 178 516 189 519 Q 222 528 305 483 Q 392 432 447 319 Q 466 279 487 228 C 498 197 498 197 504 182 Z"/>
    <path id="p3" d="M 541 416 Q 542 417 543 420 Q 550 448 571 464 Q 613 497 765 489 Q 834 485 860 470 Q 888 455 875 427 Q 859 393 846 333 Q 845 318 837 314 Q 830 310 827 328 Q 814 401 802 414 Q 778 441 685 445 Q 633 446 611 438 Q 587 426 582 401 C 581 378 581 378 580 367 Q 580 313 595 279 Q 605 251 588 236 Q 569 223 556 216 C 545 209 509 214 518 223 Q 539 244 537 313 Q 536 365 538 393 C 538 401 538 409 541 416 Z"/>
    <path id="p4" d="M 538 393 Q 511 403 504 412 Q 498 419 509 421 Q 518 422 541 416 C 568 406 568 406 582 401 Q 595 394 613 386 Q 656 367 710 331 Q 734 313 750 308 Q 760 304 761 292 Q 762 282 748 257 Q 735 236 722 231 Q 709 227 707 244 Q 708 275 616 344 Q 600 354 580 367 C 552 384 552 384 538 393 Z"/>
    <path id="p5" d="M 699 121 Q 730 140 762 165 Q 775 175 789 173 Q 798 172 801 160 Q 804 147 793 122 Q 786 103 755 92 Q 682 74 672 81 Q 668 85 670 96 Q 674 106 699 121 Z"/>
    <path id="p6" d="M 545 543 Q 546 530 542 509 Q 533 485 459 466 Q 446 463 440 465 Q 436 469 437 480 Q 440 490 463 508 Q 490 533 509 552 C 518 561 545 555 545 543 Z"/>
    <path id="p7" d="M 467 602 Q 479 599 661 573 Q 671 574 681 562 Q 682 550 659 540 Q 629 519 545 543 C 521 549 521 549 509 552 Q 494 553 481 557 Q 427 569 249 591 Q 221 595 242 612 Q 269 637 316 629 Q 359 620 409 612 C 448 605 448 605 467 602 Z"/>
    <path id="p8" d="M 482 628 Q 479 615 467 602 C 453 588 419 595 409 612 Q 345 735 149 841 Q 131 850 111 862 Q 104 865 112 869 Q 170 878 310 788 Q 316 782 324 778 Q 343 763 367 743 C 389 724 389 724 400 714 Q 466 651 472 648 C 478 644 483 635 482 628 Z"/>
    <path id="p9" d="M 367 743 Q 380 783 369 830 Q 363 858 351 873 Q 338 892 344 914 Q 354 945 369 958 Q 379 965 392 948 Q 426 911 539 818 Q 557 805 558 798 Q 559 785 540 795 Q 431 850 419 846 Q 412 842 413 821 Q 419 770 423 757 Q 427 739 415 728 Q 408 719 400 714 C 387 706 364 729 367 743 Z"/>
    <path id="p10" d="M 610 720 Q 656 701 686 685 Q 746 651 775 643 Q 794 637 788 619 Q 778 603 757 586 Q 738 570 725 571 Q 713 571 716 583 Q 716 613 597 710 C 593 713 605 722 610 720 Z"/>
    <path id="p11" d="M 597 710 Q 575 688 550 664 Q 513 627 482 628 C 475 628 466 644 472 648 Q 517 673 614 785 Q 725 911 781 911 Q 856 910 918 899 Q 952 895 950 885 Q 947 875 785 830 Q 697 797 610 720 C 601 713 601 713 597 710 Z"/>

    <clipPath id="z34989c1"><use href="#p1"/></clipPath>
    <clipPath id="z34989c2"><use href="#p2"/></clipPath>
    <clipPath id="z34989c3"><use href="#p3"/></clipPath>
    <clipPath id="z34989c4"><use href="#p4"/></clipPath>
    <clipPath id="z34989c5"><use href="#p5"/></clipPath>
    <clipPath id="z34989c6"><use href="#p6"/></clipPath>
    <clipPath id="z34989c7"><use href="#p7"/></clipPath>
    <clipPath id="z34989c8"><use href="#p8"/></clipPath>
    <clipPath id="z34989c9"><use href="#p9"/></clipPath>
    <clipPath id="z34989c10"><use href="#p10"/></clipPath>
    <clipPath id="z34989c11"><use href="#p11"/></clipPath>
</defs>
<g id="bg-layer" class="bg">
<use href="#p1"/>
<use href="#p2"/>
<use href="#p3"/>
<use href="#p4"/>
<use href="#p5"/>
<use href="#p6"/>
<use href="#p7"/>
<use href="#p8"/>
<use href="#p9"/>
<use href="#p10"/>
<use href="#p11"/>
</g>
<g id="anim-layer">
    <path id="stroke-p1" style="stroke:#FF4444" pathLength="3333" clip-path="url(#z34989c1)" d="M 258 225 L 335 230 L 686 174"/>
    <path id="stroke-p2" style="stroke:#FF4444" pathLength="3333" clip-path="url(#z34989c2)" d="M 469 54 L 499 112 L 402 350 L 316 448 L 188 511"/>
    <path id="stroke-p3" style="stroke:#FF4444" pathLength="3333" clip-path="url(#z34989c3)" d="M 525 222 L 566 259 L 565 420 L 616 461 L 822 446 L 842 424 L 837 319"/>
    <path id="stroke-p4" style="stroke:#FF4444" pathLength="3333" clip-path="url(#z34989c4)" d="M 717 233 L 726 287 L 509 415"/>
    <path id="stroke-p5" style="stroke:#FF4444" pathLength="3333" clip-path="url(#z34989c5)" d="M 675 87 L 760 126 L 792 167"/>
    <path id="stroke-p6" style="stroke:#000" pathLength="3333" clip-path="url(#z34989c6)" d="M 445 473 L 537 549"/>
    <path id="stroke-p7" style="stroke:#000" pathLength="3333" clip-path="url(#z34989c7)" d="M 239 598 L 295 608 L 673 560"/>
    <path id="stroke-p8" style="stroke:#000" pathLength="3333" clip-path="url(#z34989c8)" d="M 430 598 L 441 631 L 327 747 L 115 864"/>
    <path id="stroke-p9" style="stroke:#000" pathLength="3333" clip-path="url(#z34989c9)" d="M 390 716 L 392 908 L 552 797"/>
    <path id="stroke-p10" style="stroke:#000" pathLength="3333" clip-path="url(#z34989c10)" d="M 724 575 L 739 629 L 602 713"/>
    <path id="stroke-p11" style="stroke:#000" pathLength="3333" clip-path="url(#z34989c11)" d="M 474 639 L 751 859 L 943 886"/>
</g>
</svg>