<svg id="z35029" class="acjk" viewBox="0 0 1024 1024" xmlns="http://www.w3.org/2000/svg">
<style>
<![CDATA[
svg.acjk path[clip-path] {
    animation-duration: 12.100000000000001s;
    animation-timing-function: linear;
    animation-iteration-count: infinite;
    stroke-dasharray: 3337;
    stroke-dashoffset: 3339;
    stroke-width: 128;
    stroke-linecap: round;
    fill: none;
    stroke: #FF4444;
}
svg.acjk .bg { fill: #ccc; opacity: 0.5; }

/* Stroke 1: Starts at 0.0%, finishes at 6.6%, holds until 79.3% */
@keyframes zk1 {
    0%, 0.0% { stroke-dashoffset: 3339; }
    6.6%, 79.3% { stroke-dashoffset: 0; }
    79.4%, 100% { stroke-dashoffset: 3339; }
}
svg.acjk #stroke-p1 { animation-name: zk1; }
/* Stroke 2: Starts at 6.6%, finishes at 13.2%, holds until 79.3% */
@keyframes zk2 {
    0%, 6.6% { stroke-dashoffset: 3339; }
    13.2%, 79.3% { stroke-dashoffset: 0; }
    79.4%, 100% { stroke-dashoffset: 3339; }
}
svg.acjk #stroke-p2 { animation-name: zk2; }
/* Stroke 3: Starts at 13.2%, finishes at 19.8%, holds until 79.3% */
@keyframes zk3 {
    0%, 13.2% { stroke-dashoffset: 3339; }
    19.8%, 79.3% { stroke-dashoffset: 0; }
    79.4%, 100% { stroke-dashoffset: 3339; }
}
svg.acjk #stroke-p3 { animation-name: zk3; }
/* Stroke 4: Starts at 19.8%, finishes at 26.4%, holds until 79.3% */
@keyframes zk4 {
    0%, 19.8% { stroke-dashoffset: 3339; }
    26.4%, 79.3% { stroke-dashoffset: 0; }
    79.4%, 100% { stroke-dashoffset: 3339; }
}
svg.acjk #stroke-p4 { animation-name: zk4; }
/* Stroke 5: Starts at 26.4%, finishes at 33.1%, holds until 79.3% */
@keyframes zk5 {
    0%, 26.4% { stroke-dashoffset: 3339; }
    33.1%, 79.3% { stroke-dashoffset: 0; }
    79.4%, 100% { stroke-dashoffset: 3339; }
}
svg.acjk #stroke-p5 { animation-name: zk5; }
/* Stroke 6: Starts at 33.1%, finishes at 39.7%, holds until 79.3% */
@keyframes zk6 {
    0%, 33.1% { stroke-dashoffset: 3339; }
    39.7%, 79.3% { stroke-dashoffset: 0; }
    79.4%, 100% { stroke-dashoffset: 3339; }
}
svg.acjk #stroke-p6 { animation-name: zk6; }
/* Stroke 7: Starts at 39.7%, finishes at 46.3%, holds until 79.3% */
@keyframes zk7 {
    0%, 39.7% { stroke-dashoffset: 3339; }
    46.3%, 79.3% { stroke-dashoffset: 0; }
    79.4%, 100% { stroke-dashoffset: 3339; }
}
svg.acjk #stroke-p7 { animation-name: zk7; }
/* Stroke 8: Starts at 46.3%, finishes at 52.9%, holds until 79.3% */
@keyframes zk8 {
    0%, 46.3% { stroke-dashoffset: 3339; }
    52.9%, 79.3% { stroke-dashoffset: 0; }
    79.4%, 100% { stroke-dashoffset: 3339; }
}
svg.acjk #stroke-p8 { animation-name: zk8; }
/* Stroke 9: Starts at 52.9%, finishes at 59.5%, holds until 79.3% */
@keyframes zk9 {
    0%, 52.9% { stroke-dashoffset: 3339; }
    59.5%, 79.3% { stroke-dashoffset: 0; }
    79.4%, 100% { stroke-dashoffset: 3339; }
}
svg.acjk #stroke-p9 { animation-name: zk9; }
/* Stroke 10: Starts at 59.5%, finishes at 66.1%, holds until 79.3% */
@keyframes zk10 {
    0%, 59.5% { stroke-dashoffset: 3339; }
    66.1%, 79.3% { stroke-dashoffset: 0; }
    79.4%, 100% { stroke-dashoffset: 3339; }
}
svg.acjk #stroke-p10 { animation-name: zk10; }
/* Stroke 11: Starts at 66.1%, finishes at 72.7%, holds until 79.3% */
@keyframes zk11 {
    0%, 66.1% { stroke-dashoffset: 3339; }
    72.7%, 79.3% { stroke-dashoffset: 0; }
    79.4%, 100% { stroke-dashoffset: 3339; }
}
svg.acjk #stroke-p11 { animation-name: zk11; }
/* Stroke 12: Starts at 72.7%, finishes at 79.3%, holds until 79.3% */
@keyframes zk12 {
    0%, 72.7% { stroke-dashoffset: 3339; }
    79.3%, 79.3% { stroke-dashoffset: 0; }
    79.4%, 100% { stroke-dashoffset: 3339; }
}
svg.acjk #stroke-p12 { animation-name: zk12; }
]]>
</style>
<defs>
    <path id="p1" d="M 282 135 C 301 150 320 168 341 187 C 350 195 361 199 373 199 C 379 198 385 193 389 184 C 392 173 390 157 383 137 C 375 116 339 98 275 85 C 264 82 256 82 252 85 C 247 87 246 93 249 103 C 251 109 263 119 282 135 Z"/>
    <path id="p2" d="M 245 533 C 266 505 288 472 310 436 C 330 401 354 372 383 350 C 393 342 395 331 385 323 C 372 312 354 306 335 300 C 319 294 305 297 295 305 C 246 341 172 368 73 380 C 65 380 60 381 59 386 C 57 392 61 399 71 405 C 97 421 122 429 142 421 C 232 379 277 358 284 366 C 287 370 285 380 278 395 C 235 480 164 580 60 688 C 50 697 45 700 48 703 C 50 704 55 704 64 700 C 114 674 169 629 223 561 C 238 542 238 542 245 533 Z"/>
    <path id="p3" d="M 223 561 C 243 633 244 715 224 808 C 217 836 225 867 247 897 C 255 908 267 904 274 887 C 283 862 287 836 287 809 C 286 700 285 633 290 610 C 293 593 293 582 288 576 C 267 553 253 539 245 533 C 236 526 221 549 223 561 Z"/>
    <path id="p4" d="M 369 508 C 397 484 417 466 434 458 C 442 453 446 450 443 445 C 439 438 432 431 422 423 C 412 415 401 411 391 412 C 384 412 381 417 383 427 C 384 435 375 458 351 500 C 348 506 364 512 369 508 Z"/>
    <path id="p5" d="M 351 500 C 340 495 319 490 312 494 C 309 495 307 499 309 505 C 310 509 318 516 330 527 C 344 539 359 553 375 568 C 381 573 387 577 395 577 C 399 576 403 573 406 567 C 408 560 409 549 403 537 C 398 527 393 519 369 508 C 357 503 357 503 351 500 Z"/>
    <path id="p6" d="M 518 187 C 523 231 502 280 453 335 C 440 348 430 357 425 365 C 419 373 422 376 431 375 C 464 370 501 340 546 285 C 560 267 574 247 591 227 C 596 219 598 210 589 202 C 563 178 541 169 527 171 C 520 171 516 177 518 187 Z"/>
    <path id="p7" d="M 714 228 C 739 248 766 271 794 297 C 802 305 812 309 822 309 C 828 308 834 303 837 295 C 840 286 844 269 833 253 C 813 222 783 203 709 182 C 699 179 691 178 688 181 C 684 183 683 189 685 197 C 686 203 696 214 714 228 Z"/>
    <path id="p8" d="M 631 401 C 641 385 648 376 653 374 C 657 371 659 366 658 359 C 657 353 653 346 646 339 C 627 320 607 312 586 315 C 580 315 577 320 579 328 C 587 384 502 507 459 558 C 415 609 379 639 309 693 C 304 696 304 699 311 700 C 345 701 430 648 481 595 C 541 532 586 468 618 421 C 627 408 627 408 631 401 Z"/>
    <path id="p9" d="M 618 421 C 670 483 725 542 783 600 C 797 614 815 622 839 623 C 881 625 925 623 972 616 C 982 614 989 611 991 608 C 991 603 987 599 979 596 C 851 549 758 503 700 459 C 690 451 641 409 631 401 C 625 396 613 415 618 421 Z"/>
    <path id="p10" d="M 492 670 C 473 661 454 659 447 665 C 442 668 443 676 449 688 C 467 726 482 777 492 840 C 494 858 500 874 511 888 C 523 902 531 904 535 895 C 538 886 540 874 539 858 C 537 846 536 835 535 824 C 526 754 521 712 521 698 C 520 697 520 697 521 697 C 521 684 504 675 492 670 Z"/>
    <path id="p11" d="M 746 792 C 760 740 780 708 800 691 C 812 680 811 665 801 655 C 791 645 767 633 733 618 C 721 612 692 622 645 637 C 599 651 548 660 492 670 C 479 673 508 700 521 697 C 637 674 691 662 703 666 C 715 670 709 718 693 793 C 690 810 743 809 746 792 Z"/>
    <path id="p12" d="M 539 858 C 559 858 666 838 763 830 C 769 829 773 826 775 820 C 775 815 766 806 746 792 C 732 781 710 790 693 793 C 634 805 581 816 535 824 C 524 826 528 858 539 858 Z"/>

    <clipPath id="z35029c1"><use href="#p1"/></clipPath>
    <clipPath id="z35029c2"><use href="#p2"/></clipPath>
    <clipPath id="z35029c3"><use href="#p3"/></clipPath>
    <clipPath id="z35029c4"><use href="#p4"/></clipPath>
    <clipPath id="z35029c5"><use href="#p5"/></clipPath>
    <clipPath id="z35029c6"><use href="#p6"/></clipPath>
    <clipPath id="z35029c7"><use href="#p7"/></clipPath>
    <clipPath id="z35029c8"><use href="#p8"/></clipPath>
    <clipPath id="z35029c9"><use href="#p9"/></clipPath>
    <clipPath id="z35029c10"><use href="#p10"/></clipPath>
    <clipPath id="z35029c11"><use href="#p11"/></clipPath>
    <clipPath id="z35029c12"><use href="#p12"/></clipPath>
</defs>
<g id="bg-layer" class="bg">
<use href="#p1"/>
<use href="#p2"/>
<use href="#p3"/>
<use href="#p4"/>
<use href="#p5"/>
<use href="#p6"/>
<use href="#p7"/>
<use href="#p8"/>
<use href="#p9"/>
<use href="#p10"/>
<use href="#p11"/>
<use href="#p12"/>
</g>
<g id="anim-layer">
    <path id="stroke-p1" style="stroke:#FF4444" pathLength="3333" clip-path="url(#z35029c1)" d="M 255 93 L 347 145 L 374 194"/>
    <path id="stroke-p2" style="stroke:#FF4444" pathLength="3333" clip-path="url(#z35029c2)" d="M 68 391 L 131 396 L 296 333 L 337 354 L 193 565 L 56 699"/>
    <path id="stroke-p3" style="stroke:#FF4444" pathLength="3333" clip-path="url(#z35029c3)" d="M 245 540 L 263 604 L 252 896"/>
    <path id="stroke-p4" style="stroke:#FF4444" pathLength="3333" clip-path="url(#z35029c4)" d="M 392 416 L 409 453 L 361 502"/>
    <path id="stroke-p5" style="stroke:#FF4444" pathLength="3333" clip-path="url(#z35029c5)" d="M 314 500 L 380 540 L 393 571"/>
    <path id="stroke-p6" style="stroke:#000" pathLength="3333" clip-path="url(#z35029c6)" d="M 527 180 L 555 224 L 432 366"/>
    <path id="stroke-p7" style="stroke:#000" pathLength="3333" clip-path="url(#z35029c7)" d="M 692 190 L 790 250 L 827 303"/>
    <path id="stroke-p8" style="stroke:#000" pathLength="3333" clip-path="url(#z35029c8)" d="M 587 324 L 617 368 L 540 491 L 441 603 L 314 694"/>
    <path id="stroke-p9" style="stroke:#000" pathLength="3333" clip-path="url(#z35029c9)" d="M 630 408 L 816 574 L 985 604"/>
    <path id="stroke-p10" style="stroke:#000" pathLength="3333" clip-path="url(#z35029c10)" d="M 452 669 L 491 709 L 524 895"/>
    <path id="stroke-p11" style="stroke:#000" pathLength="3333" clip-path="url(#z35029c11)" d="M 500 670 L 710 641 L 739 654 L 757 684 L 703 789"/>
    <path id="stroke-p12" style="stroke:#000" pathLength="3333" clip-path="url(#z35029c12)" d="M 546 849 L 700 814 L 768 820"/>
</g>
</svg>