<svg id="z35124" class="acjk" viewBox="0 0 1024 1024" xmlns="http://www.w3.org/2000/svg">
<style>
<![CDATA[
svg.acjk path[clip-path] {
    animation-duration: 14.5s;
    animation-timing-function: linear;
    animation-iteration-count: infinite;
    stroke-dasharray: 3337;
    stroke-dashoffset: 3339;
    stroke-width: 128;
    stroke-linecap: round;
    fill: none;
    stroke: #FF4444;
}
svg.acjk .bg { fill: #ccc; opacity: 0.5; }

/* Stroke 1: Starts at 0.0%, finishes at 5.5%, holds until 82.8% */
@keyframes zk1 {
    0%, 0.0% { stroke-dashoffset: 3339; }
    5.5%, 82.8% { stroke-dashoffset: 0; }
    82.9%, 100% { stroke-dashoffset: 3339; }
}
svg.acjk #stroke-p1 { animation-name: zk1; }
/* Stroke 2: Starts at 5.5%, finishes at 11.0%, holds until 82.8% */
@keyframes zk2 {
    0%, 5.5% { stroke-dashoffset: 3339; }
    11.0%, 82.8% { stroke-dashoffset: 0; }
    82.9%, 100% { stroke-dashoffset: 3339; }
}
svg.acjk #stroke-p2 { animation-name: zk2; }
/* Stroke 3: Starts at 11.0%, finishes at 16.6%, holds until 82.8% */
@keyframes zk3 {
    0%, 11.0% { stroke-dashoffset: 3339; }
    16.6%, 82.8% { stroke-dashoffset: 0; }
    82.9%, 100% { stroke-dashoffset: 3339; }
}
svg.acjk #stroke-p3 { animation-name: zk3; }
/* Stroke 4: Starts at 16.6%, finishes at 22.1%, holds until 82.8% */
@keyframes zk4 {
    0%, 16.6% { stroke-dashoffset: 3339; }
    22.1%, 82.8% { stroke-dashoffset: 0; }
    82.9%, 100% { stroke-dashoffset: 3339; }
}
svg.acjk #stroke-p4 { animation-name: zk4; }
/* Stroke 5: Starts at 22.1%, finishes at 27.6%, holds until 82.8% */
@keyframes zk5 {
    0%, 22.1% { stroke-dashoffset: 3339; }
    27.6%, 82.8% { stroke-dashoffset: 0; }
    82.9%, 100% { stroke-dashoffset: 3339; }
}
svg.acjk #stroke-p5 { animation-name: zk5; }
/* Stroke 6: Starts at 27.6%, finishes at 33.1%, holds until 82.8% */
@keyframes zk6 {
    0%, 27.6% { stroke-dashoffset: 3339; }
    33.1%, 82.8% { stroke-dashoffset: 0; }
    82.9%, 100% { stroke-dashoffset: 3339; }
}
svg.acjk #stroke-p6 { animation-name: zk6; }
/* Stroke 7: Starts at 33.1%, finishes at 38.6%, holds until 82.8% */
@keyframes zk7 {
    0%, 33.1% { stroke-dashoffset: 3339; }
    38.6%, 82.8% { stroke-dashoffset: 0; }
    82.9%, 100% { stroke-dashoffset: 3339; }
}
svg.acjk #stroke-p7 { animation-name: zk7; }
/* Stroke 8: Starts at 38.6%, finishes at 44.1%, holds until 82.8% */
@keyframes zk8 {
    0%, 38.6% { stroke-dashoffset: 3339; }
    44.1%, 82.8% { stroke-dashoffset: 0; }
    82.9%, 100% { stroke-dashoffset: 3339; }
}
svg.acjk #stroke-p8 { animation-name: zk8; }
/* Stroke 9: Starts at 44.1%, finishes at 49.7%, holds until 82.8% */
@keyframes zk9 {
    0%, 44.1% { stroke-dashoffset: 3339; }
    49.7%, 82.8% { stroke-dashoffset: 0; }
    82.9%, 100% { stroke-dashoffset: 3339; }
}
svg.acjk #stroke-p9 { animation-name: zk9; }
/* Stroke 10: Starts at 49.7%, finishes at 55.2%, holds until 82.8% */
@keyframes zk10 {
    0%, 49.7% { stroke-dashoffset: 3339; }
    55.2%, 82.8% { stroke-dashoffset: 0; }
    82.9%, 100% { stroke-dashoffset: 3339; }
}
svg.acjk #stroke-p10 { animation-name: zk10; }
/* Stroke 11: Starts at 55.2%, finishes at 60.7%, holds until 82.8% */
@keyframes zk11 {
    0%, 55.2% { stroke-dashoffset: 3339; }
    60.7%, 82.8% { stroke-dashoffset: 0; }
    82.9%, 100% { stroke-dashoffset: 3339; }
}
svg.acjk #stroke-p11 { animation-name: zk11; }
/* Stroke 12: Starts at 60.7%, finishes at 66.2%, holds until 82.8% */
@keyframes zk12 {
    0%, 60.7% { stroke-dashoffset: 3339; }
    66.2%, 82.8% { stroke-dashoffset: 0; }
    82.9%, 100% { stroke-dashoffset: 3339; }
}
svg.acjk #stroke-p12 { animation-name: zk12; }
/* Stroke 13: Starts at 66.2%, finishes at 71.7%, holds until 82.8% */
@keyframes zk13 {
    0%, 66.2% { stroke-dashoffset: 3339; }
    71.7%, 82.8% { stroke-dashoffset: 0; }
    82.9%, 100% { stroke-dashoffset: 3339; }
}
svg.acjk #stroke-p13 { animation-name: zk13; }
/* Stroke 14: Starts at 71.7%, finishes at 77.2%, holds until 82.8% */
@keyframes zk14 {
    0%, 71.7% { stroke-dashoffset: 3339; }
    77.2%, 82.8% { stroke-dashoffset: 0; }
    82.9%, 100% { stroke-dashoffset: 3339; }
}
svg.acjk #stroke-p14 { animation-name: zk14; }
/* Stroke 15: Starts at 77.2%, finishes at 82.8%, holds until 82.8% */
@keyframes zk15 {
    0%, 77.2% { stroke-dashoffset: 3339; }
    82.8%, 82.8% { stroke-dashoffset: 0; }
    82.9%, 100% { stroke-dashoffset: 3339; }
}
svg.acjk #stroke-p15 { animation-name: zk15; }
]]>
</style>
<defs>
    <path id="p1" d="M 276 141 Q 301 166 330 195 Q 342 208 357 208 Q 367 208 373 195 Q 377 182 371 153 Q 365 125 273 95 Q 258 91 252 93 Q 248 97 248 109 Q 251 119 276 141 Z"/>
    <path id="p2" d="M 254 497 Q 282 457 311 410 Q 342 356 388 321 Q 403 311 391 296 Q 373 281 346 272 Q 324 265 309 275 Q 225 332 82 339 Q 70 338 68 345 Q 65 355 79 365 Q 118 392 152 383 Q 281 325 291 338 Q 297 347 284 369 Q 212 516 51 674 Q 38 684 40 687 Q 43 690 54 685 Q 147 637 231 528 C 246 507 246 507 254 497 Z"/>
    <path id="p3" d="M 231 528 Q 264 597 229 768 Q 208 831 246 876 C 247 877 247 877 247 877 Q 263 892 274 867 Q 287 830 287 789 Q 291 614 298 574 Q 305 549 296 540 Q 266 504 254 497 C 243 490 226 516 231 528 Z"/>
    <path id="p4" d="M 336 497 Q 373 457 395 440 Q 405 436 402 429 Q 396 420 382 411 Q 369 402 354 404 Q 345 405 348 417 Q 352 426 322 492 C 320 497 333 501 336 497 Z"/>
    <path id="p5" d="M 322 492 Q 319 489 314 488 Q 304 484 300 486 Q 296 487 297 496 Q 298 503 314 518 Q 339 542 365 570 Q 372 579 383 579 Q 390 579 394 571 Q 398 562 393 543 Q 389 518 336 497 C 331 495 326 495 322 492 Z"/>
    <path id="p6" d="M 428 255 Q 455 313 438 464 Q 434 488 457 522 Q 466 531 473 521 Q 488 502 488 424 Q 484 331 490 279 Q 494 260 478 251 Q 465 244 450 236 Q 440 232 431 237 Q 424 243 428 255 Z"/>
    <path id="p7" d="M 550 528 Q 554 549 559 557 Q 563 564 570 561 Q 580 557 590 505 Q 596 462 596 418 Q 595 382 603 241 Q 603 237 610 194 Q 613 178 601 170 Q 574 151 562 149 Q 552 145 538 152 Q 531 159 536 168 Q 549 189 550 211 Q 551 293 548 421 Q 547 500 550 528 Z"/>
    <path id="p8" d="M 712 343 Q 740 291 770 218 Q 780 182 794 164 Q 800 154 794 143 Q 788 133 759 118 Q 734 108 717 110 Q 701 116 712 133 Q 751 187 628 432 Q 621 442 621 449 Q 620 459 631 454 Q 650 445 699 366 C 708 351 708 351 712 343 Z"/>
    <path id="p9" d="M 699 366 Q 735 381 778 369 Q 826 357 874 346 Q 896 339 900 336 Q 907 329 903 322 Q 896 312 871 307 Q 847 303 772 331 Q 769 331 712 343 C 703 344 691 363 699 366 Z"/>
    <path id="p10" d="M 748 466 Q 770 487 796 512 Q 808 524 822 524 Q 832 523 837 511 Q 841 498 834 471 Q 825 443 744 422 Q 729 419 724 421 Q 720 425 720 436 Q 724 446 748 466 Z"/>
    <path id="p11" d="M 448 605 Q 441 602 427 599 Q 417 595 413 600 Q 407 604 414 620 Q 439 681 449 779 Q 450 801 459 819 C 463 829 490 826 490 816 Q 490 812 474 639 C 474 625 461 610 448 605 Z"/>
    <path id="p12" d="M 799 785 Q 830 670 860 625 Q 870 615 867 604 Q 860 588 805 561 Q 789 554 776 557 Q 629 585 448 605 C 434 607 460 639 474 639 Q 486 640 497 635 Q 519 631 545 626 C 558 624 558 624 565 623 Q 605 614 649 608 C 680 604 680 604 696 602 Q 751 587 774 600 Q 781 606 780 625 Q 770 694 745 792 C 741 810 795 803 799 785 Z"/>
    <path id="p13" d="M 590 808 Q 596 774 573 643 Q 572 631 565 623 C 561 618 545 619 545 626 Q 551 693 551 711 Q 554 796 567 810 C 571 817 588 816 590 808 Z"/>
    <path id="p14" d="M 658 801 Q 673 780 694 681 Q 698 659 710 630 Q 719 618 710 611 Q 706 607 696 602 C 682 594 641 594 649 608 Q 667 636 643 778 Q 642 793 642 803 C 642 808 655 805 658 801 Z"/>
    <path id="p15" d="M 459 819 Q 401 822 345 827 Q 324 828 339 846 Q 352 859 369 865 Q 388 872 405 868 Q 612 822 925 842 Q 944 842 949 834 Q 955 824 940 809 Q 885 767 829 780 Q 814 781 799 785 C 763 790 763 790 745 792 Q 705 795 658 801 C 647 802 647 802 642 803 Q 633 802 625 804 Q 607 805 590 808 C 575 809 575 809 567 810 Q 527 811 490 816 C 469 818 469 818 459 819 Z"/>

    <clipPath id="z35124c1"><use href="#p1"/></clipPath>
    <clipPath id="z35124c2"><use href="#p2"/></clipPath>
    <clipPath id="z35124c3"><use href="#p3"/></clipPath>
    <clipPath id="z35124c4"><use href="#p4"/></clipPath>
    <clipPath id="z35124c5"><use href="#p5"/></clipPath>
    <clipPath id="z35124c6"><use href="#p6"/></clipPath>
    <clipPath id="z35124c7"><use href="#p7"/></clipPath>
    <clipPath id="z35124c8"><use href="#p8"/></clipPath>
    <clipPath id="z35124c9"><use href="#p9"/></clipPath>
    <clipPath id="z35124c10"><use href="#p10"/></clipPath>
    <clipPath id="z35124c11"><use href="#p11"/></clipPath>
    <clipPath id="z35124c12"><use href="#p12"/></clipPath>
    <clipPath id="z35124c13"><use href="#p13"/></clipPath>
    <clipPath id="z35124c14"><use href="#p14"/></clipPath>
    <clipPath id="z35124c15"><use href="#p15"/></clipPath>
</defs>
<g id="bg-layer" class="bg">
<use href="#p1"/>
<use href="#p2"/>
<use href="#p3"/>
<use href="#p4"/>
<use href="#p5"/>
<use href="#p6"/>
<use href="#p7"/>
<use href="#p8"/>
<use href="#p9"/>
<use href="#p10"/>
<use href="#p11"/>
<use href="#p12"/>
<use href="#p13"/>
<use href="#p14"/>
<use href="#p15"/>
</g>
<g id="anim-layer">
    <path id="stroke-p1" style="stroke:#FF4444" pathLength="3333" clip-path="url(#z35124c1)" d="M 255 101 L 368 196"/>
    <path id="stroke-p2" style="stroke:#FF4444" pathLength="3333" clip-path="url(#z35124c2)" d="M 73 346 L 143 359 L 307 303 L 343 330 L 183 557 L 48 681"/>
    <path id="stroke-p3" style="stroke:#FF4444" pathLength="3333" clip-path="url(#z35124c3)" d="M 254 507 L 272 566 L 252 878"/>
    <path id="stroke-p4" style="stroke:#FF4444" pathLength="3333" clip-path="url(#z35124c4)" d="M 394 427 L 361 433 L 331 490"/>
    <path id="stroke-p5" style="stroke:#FF4444" pathLength="3333" clip-path="url(#z35124c5)" d="M 304 493 L 387 572"/>
    <path id="stroke-p6" style="stroke:#000" pathLength="3333" clip-path="url(#z35124c6)" d="M 436 240 L 464 281 L 462 521"/>
    <path id="stroke-p7" style="stroke:#000" pathLength="3333" clip-path="url(#z35124c7)" d="M 541 157 L 579 195 L 563 556"/>
    <path id="stroke-p8" style="stroke:#000" pathLength="3333" clip-path="url(#z35124c8)" d="M 714 115 L 756 171 L 628 449"/>
    <path id="stroke-p9" style="stroke:#000" pathLength="3333" clip-path="url(#z35124c9)" d="M 704 362 L 898 325"/>
    <path id="stroke-p10" style="stroke:#000" pathLength="3333" clip-path="url(#z35124c10)" d="M 725 426 L 801 475 L 825 520"/>
    <path id="stroke-p11" style="stroke:#000" pathLength="3333" clip-path="url(#z35124c11)" d="M 420 607 L 450 650 L 472 817"/>
    <path id="stroke-p12" style="stroke:#000" pathLength="3333" clip-path="url(#z35124c12)" d="M 456 607 L 799 586 L 822 622 L 774 779 L 755 787"/>
    <path id="stroke-p13" style="stroke:#000" pathLength="3333" clip-path="url(#z35124c13)" d="M 564 629 L 578 808"/>
    <path id="stroke-p14" style="stroke:#000" pathLength="3333" clip-path="url(#z35124c14)" d="M 658 614 L 685 642 L 651 797"/>
    <path id="stroke-p15" style="stroke:#000" pathLength="3333" clip-path="url(#z35124c15)" d="M 339 833 L 393 846 L 854 807 L 945 820"/>
</g>
</svg>