<svg id="z35469" class="acjk" viewBox="0 0 1024 1024" xmlns="http://www.w3.org/2000/svg">
<style>
<![CDATA[
svg.acjk path[clip-path] {
    animation-duration: 13.700000000000001s;
    animation-timing-function: linear;
    animation-iteration-count: infinite;
    stroke-dasharray: 3337;
    stroke-dashoffset: 3339;
    stroke-width: 128;
    stroke-linecap: round;
    fill: none;
    stroke: #FF4444;
}
svg.acjk .bg { fill: #ccc; opacity: 0.5; }

/* Stroke 1: Starts at 0.0%, finishes at 5.8%, holds until 81.8% */
@keyframes zk1 {
    0%, 0.0% { stroke-dashoffset: 3339; }
    5.8%, 81.8% { stroke-dashoffset: 0; }
    81.9%, 100% { stroke-dashoffset: 3339; }
}
svg.acjk #stroke-p1 { animation-name: zk1; }
/* Stroke 2: Starts at 5.8%, finishes at 11.7%, holds until 81.8% */
@keyframes zk2 {
    0%, 5.8% { stroke-dashoffset: 3339; }
    11.7%, 81.8% { stroke-dashoffset: 0; }
    81.9%, 100% { stroke-dashoffset: 3339; }
}
svg.acjk #stroke-p2 { animation-name: zk2; }
/* Stroke 3: Starts at 11.7%, finishes at 17.5%, holds until 81.8% */
@keyframes zk3 {
    0%, 11.7% { stroke-dashoffset: 3339; }
    17.5%, 81.8% { stroke-dashoffset: 0; }
    81.9%, 100% { stroke-dashoffset: 3339; }
}
svg.acjk #stroke-p3 { animation-name: zk3; }
/* Stroke 4: Starts at 17.5%, finishes at 23.4%, holds until 81.8% */
@keyframes zk4 {
    0%, 17.5% { stroke-dashoffset: 3339; }
    23.4%, 81.8% { stroke-dashoffset: 0; }
    81.9%, 100% { stroke-dashoffset: 3339; }
}
svg.acjk #stroke-p4 { animation-name: zk4; }
/* Stroke 5: Starts at 23.4%, finishes at 29.2%, holds until 81.8% */
@keyframes zk5 {
    0%, 23.4% { stroke-dashoffset: 3339; }
    29.2%, 81.8% { stroke-dashoffset: 0; }
    81.9%, 100% { stroke-dashoffset: 3339; }
}
svg.acjk #stroke-p5 { animation-name: zk5; }
/* Stroke 6: Starts at 29.2%, finishes at 35.0%, holds until 81.8% */
@keyframes zk6 {
    0%, 29.2% { stroke-dashoffset: 3339; }
    35.0%, 81.8% { stroke-dashoffset: 0; }
    81.9%, 100% { stroke-dashoffset: 3339; }
}
svg.acjk #stroke-p6 { animation-name: zk6; }
/* Stroke 7: Starts at 35.0%, finishes at 40.9%, holds until 81.8% */
@keyframes zk7 {
    0%, 35.0% { stroke-dashoffset: 3339; }
    40.9%, 81.8% { stroke-dashoffset: 0; }
    81.9%, 100% { stroke-dashoffset: 3339; }
}
svg.acjk #stroke-p7 { animation-name: zk7; }
/* Stroke 8: Starts at 40.9%, finishes at 46.7%, holds until 81.8% */
@keyframes zk8 {
    0%, 40.9% { stroke-dashoffset: 3339; }
    46.7%, 81.8% { stroke-dashoffset: 0; }
    81.9%, 100% { stroke-dashoffset: 3339; }
}
svg.acjk #stroke-p8 { animation-name: zk8; }
/* Stroke 9: Starts at 46.7%, finishes at 52.6%, holds until 81.8% */
@keyframes zk9 {
    0%, 46.7% { stroke-dashoffset: 3339; }
    52.6%, 81.8% { stroke-dashoffset: 0; }
    81.9%, 100% { stroke-dashoffset: 3339; }
}
svg.acjk #stroke-p9 { animation-name: zk9; }
/* Stroke 10: Starts at 52.6%, finishes at 58.4%, holds until 81.8% */
@keyframes zk10 {
    0%, 52.6% { stroke-dashoffset: 3339; }
    58.4%, 81.8% { stroke-dashoffset: 0; }
    81.9%, 100% { stroke-dashoffset: 3339; }
}
svg.acjk #stroke-p10 { animation-name: zk10; }
/* Stroke 11: Starts at 58.4%, finishes at 64.2%, holds until 81.8% */
@keyframes zk11 {
    0%, 58.4% { stroke-dashoffset: 3339; }
    64.2%, 81.8% { stroke-dashoffset: 0; }
    81.9%, 100% { stroke-dashoffset: 3339; }
}
svg.acjk #stroke-p11 { animation-name: zk11; }
/* Stroke 12: Starts at 64.2%, finishes at 70.1%, holds until 81.8% */
@keyframes zk12 {
    0%, 64.2% { stroke-dashoffset: 3339; }
    70.1%, 81.8% { stroke-dashoffset: 0; }
    81.9%, 100% { stroke-dashoffset: 3339; }
}
svg.acjk #stroke-p12 { animation-name: zk12; }
/* Stroke 13: Starts at 70.1%, finishes at 75.9%, holds until 81.8% */
@keyframes zk13 {
    0%, 70.1% { stroke-dashoffset: 3339; }
    75.9%, 81.8% { stroke-dashoffset: 0; }
    81.9%, 100% { stroke-dashoffset: 3339; }
}
svg.acjk #stroke-p13 { animation-name: zk13; }
/* Stroke 14: Starts at 75.9%, finishes at 81.8%, holds until 81.8% */
@keyframes zk14 {
    0%, 75.9% { stroke-dashoffset: 3339; }
    81.8%, 81.8% { stroke-dashoffset: 0; }
    81.9%, 100% { stroke-dashoffset: 3339; }
}
svg.acjk #stroke-p14 { animation-name: zk14; }
]]>
</style>
<defs>
    <path id="p1" d="M 312 127 C 329 142 348 159 367 180 C 376 189 387 194 399 194 C 407 193 413 189 417 179 C 420 168 418 151 413 131 C 407 109 371 91 308 74 C 296 71 289 70 284 73 C 279 75 277 81 280 91 C 281 99 292 111 312 127 Z"/>
    <path id="p2" d="M 65 318 C 56 319 50 321 48 328 C 45 335 49 344 61 352 C 88 372 118 375 149 365 C 241 332 333 310 424 296 C 436 294 441 290 442 285 C 442 276 435 268 423 262 C 403 253 386 251 370 256 C 240 287 138 307 65 318 Z"/>
    <path id="p3" d="M 205 409 C 182 413 179 422 198 431 C 223 443 253 442 287 433 C 336 420 336 420 361 413 C 372 409 379 407 381 406 C 385 401 387 394 384 390 C 379 382 366 378 349 376 C 336 374 306 382 258 398 C 242 402 224 405 205 409 Z"/>
    <path id="p4" d="M 204 513 C 183 518 179 528 197 535 C 223 545 258 542 296 531 C 316 525 337 520 359 514 C 370 510 376 507 378 506 C 383 500 382 494 380 490 C 374 483 362 479 345 477 C 327 475 299 484 256 501 C 240 507 222 508 204 513 Z"/>
    <path id="p5" d="M 186 631 C 177 628 165 626 152 624 C 143 622 139 623 137 627 C 133 631 134 638 140 649 C 158 683 175 729 187 787 C 190 803 196 817 207 829 C 219 843 227 845 231 834 C 234 823 235 807 231 787 C 227 767 227 767 225 757 C 214 703 208 669 208 656 C 208 645 197 633 186 631 Z"/>
    <path id="p6" d="M 365 739 C 379 694 393 667 407 654 C 422 638 421 624 407 615 C 367 590 344 579 338 580 C 333 580 329 582 325 585 C 300 601 254 616 186 631 C 175 633 198 660 208 656 C 208 655 237 647 298 634 C 316 629 327 631 332 639 C 333 641 328 671 316 730 C 313 746 359 754 365 739 Z"/>
    <path id="p7" d="M 231 787 C 250 785 279 777 370 765 C 376 764 380 761 381 755 C 381 751 375 745 365 739 C 351 730 332 727 316 730 C 285 738 252 749 225 757 C 215 760 221 789 231 787 Z"/>
    <path id="p8" d="M 685 237 C 727 225 751 217 781 215 C 814 212 808 259 808 275 C 804 350 796 406 780 440 C 769 462 753 472 736 470 C 722 468 710 466 700 463 C 682 457 679 463 693 480 C 717 507 734 532 749 552 C 761 568 775 565 789 553 C 808 535 826 514 839 487 C 854 454 864 389 870 291 C 872 256 878 229 890 213 C 897 202 899 194 895 188 C 887 179 866 168 829 156 C 814 150 801 154 788 164 C 776 172 731 185 702 195 C 650 212 575 227 535 232 C 522 233 515 236 514 243 C 513 249 521 254 538 262 C 555 270 564 274 579 270 C 583 268 627 251 650 246 C 673 240 673 240 685 237 Z"/>
    <path id="p9" d="M 526 551 C 522 554 521 559 521 563 C 521 566 523 568 527 567 C 572 550 615 498 668 401 C 702 337 714 312 724 294 C 733 277 703 248 685 237 C 675 230 646 235 650 246 C 658 269 660 304 632 372 C 598 450 562 502 526 551 Z"/>
    <path id="p10" d="M 541 312 C 523 348 503 382 478 413 C 464 429 462 445 470 467 C 473 476 480 480 493 474 C 506 467 517 454 526 438 C 543 411 553 386 558 362 C 561 344 563 328 561 315 C 560 310 556 307 552 306 C 548 305 544 307 541 312 Z"/>
    <path id="p11" d="M 465 642 C 451 684 436 725 415 764 C 403 784 404 802 417 825 C 422 834 430 837 443 828 C 456 818 465 801 473 782 C 485 749 492 720 493 693 C 493 673 492 654 487 641 C 485 635 480 633 476 633 C 471 633 466 636 465 642 Z"/>
    <path id="p12" d="M 534 670 C 538 679 548 698 557 728 C 576 789 618 833 687 856 C 744 875 688 857 692 858 C 782 884 869 872 950 826 C 959 820 963 815 962 811 C 959 801 952 790 940 780 C 919 760 881 719 829 655 C 824 648 821 645 817 646 C 814 646 813 648 815 655 C 822 686 830 720 838 757 C 840 770 837 783 828 792 C 814 804 772 808 708 802 C 658 796 625 778 608 749 C 594 728 583 706 576 684 C 571 668 563 658 551 652 C 541 647 534 647 531 651 C 528 653 529 658 534 670 Z"/>
    <path id="p13" d="M 647 644 C 671 671 691 692 712 700 C 720 703 729 698 735 689 C 739 681 740 670 738 661 C 734 643 724 632 714 625 C 692 610 668 604 638 604 C 636 604 634 605 633 606 C 629 607 628 609 630 619 C 631 625 636 633 647 644 Z"/>
    <path id="p14" d="M 843 593 C 871 614 904 641 937 674 C 948 685 957 693 970 695 C 973 695 979 692 985 685 C 991 676 989 656 979 629 C 970 603 944 585 903 575 C 875 568 854 566 842 563 C 834 561 831 563 831 571 C 831 579 835 586 843 593 Z"/>

    <clipPath id="z35469c1"><use href="#p1"/></clipPath>
    <clipPath id="z35469c2"><use href="#p2"/></clipPath>
    <clipPath id="z35469c3"><use href="#p3"/></clipPath>
    <clipPath id="z35469c4"><use href="#p4"/></clipPath>
    <clipPath id="z35469c5"><use href="#p5"/></clipPath>
    <clipPath id="z35469c6"><use href="#p6"/></clipPath>
    <clipPath id="z35469c7"><use href="#p7"/></clipPath>
    <clipPath id="z35469c8"><use href="#p8"/></clipPath>
    <clipPath id="z35469c9"><use href="#p9"/></clipPath>
    <clipPath id="z35469c10"><use href="#p10"/></clipPath>
    <clipPath id="z35469c11"><use href="#p11"/></clipPath>
    <clipPath id="z35469c12"><use href="#p12"/></clipPath>
    <clipPath id="z35469c13"><use href="#p13"/></clipPath>
    <clipPath id="z35469c14"><use href="#p14"/></clipPath>
</defs>
<g id="bg-layer" class="bg">
<use href="#p1"/>
<use href="#p2"/>
<use href="#p3"/>
<use href="#p4"/>
<use href="#p5"/>
<use href="#p6"/>
<use href="#p7"/>
<use href="#p8"/>
<use href="#p9"/>
<use href="#p10"/>
<use href="#p11"/>
<use href="#p12"/>
<use href="#p13"/>
<use href="#p14"/>
</g>
<g id="anim-layer">
    <path id="stroke-p1" style="stroke:#FF4444" pathLength="3333" clip-path="url(#z35469c1)" d="M 285 77 L 367 130 L 400 190"/>
    <path id="stroke-p2" style="stroke:#FF4444" pathLength="3333" clip-path="url(#z35469c2)" d="M 52 332 L 118 340 L 435 282"/>
    <path id="stroke-p3" style="stroke:#FF4444" pathLength="3333" clip-path="url(#z35469c3)" d="M 195 419 L 379 391"/>
    <path id="stroke-p4" style="stroke:#FF4444" pathLength="3333" clip-path="url(#z35469c4)" d="M 191 526 L 378 497"/>
    <path id="stroke-p5" style="stroke:#FF4444" pathLength="3333" clip-path="url(#z35469c5)" d="M 142 631 L 181 666 L 217 834"/>
    <path id="stroke-p6" style="stroke:#FF4444" pathLength="3333" clip-path="url(#z35469c6)" d="M 194 637 L 329 608 L 371 629 L 342 744"/>
    <path id="stroke-p7" style="stroke:#FF4444" pathLength="3333" clip-path="url(#z35469c7)" d="M 224 772 L 373 751"/>
    <path id="stroke-p8" style="stroke:#000" pathLength="3333" clip-path="url(#z35469c8)" d="M 522 244 L 570 249 L 808 186 L 850 211 L 802 476 L 759 516 L 691 469"/>
    <path id="stroke-p9" style="stroke:#000" pathLength="3333" clip-path="url(#z35469c9)" d="M 658 242 L 690 286 L 669 345 L 528 559"/>
    <path id="stroke-p10" style="stroke:#000" pathLength="3333" clip-path="url(#z35469c10)" d="M 551 314 L 474 470"/>
    <path id="stroke-p11" style="stroke:#000" pathLength="3333" clip-path="url(#z35469c11)" d="M 476 643 L 420 825"/>
    <path id="stroke-p12" style="stroke:#000" pathLength="3333" clip-path="url(#z35469c12)" d="M 537 653 L 611 785 L 669 821 L 763 838 L 847 828 L 911 794 L 821 654"/>
    <path id="stroke-p13" style="stroke:#000" pathLength="3333" clip-path="url(#z35469c13)" d="M 635 611 L 731 688"/>
    <path id="stroke-p14" style="stroke:#000" pathLength="3333" clip-path="url(#z35469c14)" d="M 837 569 L 935 624 L 974 690"/>
</g>
</svg>