<svg id="z35750" class="acjk" viewBox="0 0 1024 1024" xmlns="http://www.w3.org/2000/svg">
<style>
<![CDATA[
svg.acjk path[clip-path] {
    animation-duration: 6.5s;
    animation-timing-function: linear;
    animation-iteration-count: infinite;
    stroke-dasharray: 3337;
    stroke-dashoffset: 3339;
    stroke-width: 128;
    stroke-linecap: round;
    fill: none;
    stroke: #FF4444;
}
svg.acjk .bg { fill: #ccc; opacity: 0.5; }

/* Stroke 1: Starts at 0.0%, finishes at 12.3%, holds until 61.5% */
@keyframes zk1 {
    0%, 0.0% { stroke-dashoffset: 3339; }
    12.3%, 61.5% { stroke-dashoffset: 0; }
    61.6%, 100% { stroke-dashoffset: 3339; }
}
svg.acjk #stroke-p1 { animation-name: zk1; }
/* Stroke 2: Starts at 12.3%, finishes at 24.6%, holds until 61.5% */
@keyframes zk2 {
    0%, 12.3% { stroke-dashoffset: 3339; }
    24.6%, 61.5% { stroke-dashoffset: 0; }
    61.6%, 100% { stroke-dashoffset: 3339; }
}
svg.acjk #stroke-p2 { animation-name: zk2; }
/* Stroke 3: Starts at 24.6%, finishes at 36.9%, holds until 61.5% */
@keyframes zk3 {
    0%, 24.6% { stroke-dashoffset: 3339; }
    36.9%, 61.5% { stroke-dashoffset: 0; }
    61.6%, 100% { stroke-dashoffset: 3339; }
}
svg.acjk #stroke-p3 { animation-name: zk3; }
/* Stroke 4: Starts at 36.9%, finishes at 49.2%, holds until 61.5% */
@keyframes zk4 {
    0%, 36.9% { stroke-dashoffset: 3339; }
    49.2%, 61.5% { stroke-dashoffset: 0; }
    61.6%, 100% { stroke-dashoffset: 3339; }
}
svg.acjk #stroke-p4 { animation-name: zk4; }
/* Stroke 5: Starts at 49.2%, finishes at 61.5%, holds until 61.5% */
@keyframes zk5 {
    0%, 49.2% { stroke-dashoffset: 3339; }
    61.5%, 61.5% { stroke-dashoffset: 0; }
    61.6%, 100% { stroke-dashoffset: 3339; }
}
svg.acjk #stroke-p5 { animation-name: zk5; }
]]>
</style>
<defs>
    <path id="p1" d="M 283 163 Q 317 188 353 220 Q 369 233 385 231 Q 395 230 401 216 Q 405 200 394 169 Q 387 147 350 132 Q 265 104 252 113 Q 246 117 249 131 Q 253 141 283 163 Z"/>
    <path id="p2" d="M 141 418 Q 95 437 67 441 Q 54 442 51 450 Q 48 457 60 465 Q 100 486 126 473 Q 276 395 279 396 Q 282 396 285 398 Q 295 402 291 427 Q 297 595 262 726 Q 247 760 290 805 Q 302 817 311 810 Q 318 803 328 779 Q 368 724 453 629 Q 465 617 462 610 Q 461 603 450 612 Q 405 643 362 680 Q 320 717 326 664 Q 325 598 344 433 Q 345 411 367 386 Q 379 376 369 364 Q 357 348 319 333 Q 307 329 291 339 Q 197 397 141 418 Z"/>
    <path id="p3" d="M 656 246 Q 825 213 830 209 Q 840 202 835 192 Q 828 180 798 172 Q 771 166 665 197 Q 589 212 515 219 Q 478 223 504 242 Q 541 264 598 257 C 637 250 637 250 656 246 Z"/>
    <path id="p4" d="M 678 478 Q 750 471 922 470 Q 943 470 947 461 Q 953 449 936 435 Q 876 390 806 411 Q 754 420 678 434 C 643 439 643 439 625 441 Q 531 454 421 469 Q 399 472 415 489 Q 448 519 487 510 Q 551 492 625 484 C 660 480 660 480 678 478 Z"/>
    <path id="p5" d="M 629 894 Q 635 919 642 929 Q 648 936 655 934 Q 670 925 676 864 Q 683 783 681 704 Q 677 650 678 478 C 678 449 678 449 678 434 Q 678 338 690 286 Q 693 268 678 259 Q 666 252 656 246 C 639 236 591 239 598 257 Q 622 312 623 317 Q 623 378 625 441 C 625 470 625 470 625 484 Q 625 862 629 894 Z"/>

    <clipPath id="z35750c1"><use href="#p1"/></clipPath>
    <clipPath id="z35750c2"><use href="#p2"/></clipPath>
    <clipPath id="z35750c3"><use href="#p3"/></clipPath>
    <clipPath id="z35750c4"><use href="#p4"/></clipPath>
    <clipPath id="z35750c5"><use href="#p5"/></clipPath>
</defs>
<g id="bg-layer" class="bg">
<use href="#p1"/>
<use href="#p2"/>
<use href="#p3"/>
<use href="#p4"/>
<use href="#p5"/>
</g>
<g id="anim-layer">
    <path id="stroke-p1" style="stroke:#FF4444" pathLength="3333" clip-path="url(#z35750c1)" d="M 256 121 L 351 171 L 393 223"/>
    <path id="stroke-p2" style="stroke:#FF4444" pathLength="3333" clip-path="url(#z35750c2)" d="M 57 453 L 108 455 L 278 371 L 328 382 L 293 720 L 319 760 L 455 615"/>
    <path id="stroke-p3" style="stroke:#000" pathLength="3333" clip-path="url(#z35750c3)" d="M 500 229 L 830 198"/>
    <path id="stroke-p4" style="stroke:#000" pathLength="3333" clip-path="url(#z35750c4)" d="M 418 478 L 850 437 L 943 446"/>
    <path id="stroke-p5" style="stroke:#000" pathLength="3333" clip-path="url(#z35750c5)" d="M 607 259 L 654 288 L 653 929"/>
</g>
</svg>