<svg id="z35795" class="acjk" viewBox="0 0 1024 1024" xmlns="http://www.w3.org/2000/svg">
<style>
<![CDATA[
svg.acjk path[clip-path] {
    animation-duration: 8.9s;
    animation-timing-function: linear;
    animation-iteration-count: infinite;
    stroke-dasharray: 3337;
    stroke-dashoffset: 3339;
    stroke-width: 128;
    stroke-linecap: round;
    fill: none;
    stroke: #FF4444;
}
svg.acjk .bg { fill: #ccc; opacity: 0.5; }

/* Stroke 1: Starts at 0.0%, finishes at 9.0%, holds until 71.9% */
@keyframes zk1 {
    0%, 0.0% { stroke-dashoffset: 3339; }
    9.0%, 71.9% { stroke-dashoffset: 0; }
    72.0%, 100% { stroke-dashoffset: 3339; }
}
svg.acjk #stroke-p1 { animation-name: zk1; }
/* Stroke 2: Starts at 9.0%, finishes at 18.0%, holds until 71.9% */
@keyframes zk2 {
    0%, 9.0% { stroke-dashoffset: 3339; }
    18.0%, 71.9% { stroke-dashoffset: 0; }
    72.0%, 100% { stroke-dashoffset: 3339; }
}
svg.acjk #stroke-p2 { animation-name: zk2; }
/* Stroke 3: Starts at 18.0%, finishes at 27.0%, holds until 71.9% */
@keyframes zk3 {
    0%, 18.0% { stroke-dashoffset: 3339; }
    27.0%, 71.9% { stroke-dashoffset: 0; }
    72.0%, 100% { stroke-dashoffset: 3339; }
}
svg.acjk #stroke-p3 { animation-name: zk3; }
/* Stroke 4: Starts at 27.0%, finishes at 36.0%, holds until 71.9% */
@keyframes zk4 {
    0%, 27.0% { stroke-dashoffset: 3339; }
    36.0%, 71.9% { stroke-dashoffset: 0; }
    72.0%, 100% { stroke-dashoffset: 3339; }
}
svg.acjk #stroke-p4 { animation-name: zk4; }
/* Stroke 5: Starts at 36.0%, finishes at 44.9%, holds until 71.9% */
@keyframes zk5 {
    0%, 36.0% { stroke-dashoffset: 3339; }
    44.9%, 71.9% { stroke-dashoffset: 0; }
    72.0%, 100% { stroke-dashoffset: 3339; }
}
svg.acjk #stroke-p5 { animation-name: zk5; }
/* Stroke 6: Starts at 44.9%, finishes at 53.9%, holds until 71.9% */
@keyframes zk6 {
    0%, 44.9% { stroke-dashoffset: 3339; }
    53.9%, 71.9% { stroke-dashoffset: 0; }
    72.0%, 100% { stroke-dashoffset: 3339; }
}
svg.acjk #stroke-p6 { animation-name: zk6; }
/* Stroke 7: Starts at 53.9%, finishes at 62.9%, holds until 71.9% */
@keyframes zk7 {
    0%, 53.9% { stroke-dashoffset: 3339; }
    62.9%, 71.9% { stroke-dashoffset: 0; }
    72.0%, 100% { stroke-dashoffset: 3339; }
}
svg.acjk #stroke-p7 { animation-name: zk7; }
/* Stroke 8: Starts at 62.9%, finishes at 71.9%, holds until 71.9% */
@keyframes zk8 {
    0%, 62.9% { stroke-dashoffset: 3339; }
    71.9%, 71.9% { stroke-dashoffset: 0; }
    72.0%, 100% { stroke-dashoffset: 3339; }
}
svg.acjk #stroke-p8 { animation-name: zk8; }
]]>
</style>
<defs>
    <path id="p1" d="M 257 152 Q 291 180 329 214 Q 344 227 360 226 Q 372 226 377 212 Q 381 196 371 165 Q 359 129 251 101 Q 235 98 228 101 Q 222 105 224 119 Q 228 129 257 152 Z"/>
    <path id="p2" d="M 146 426 Q 97 444 68 447 Q 53 448 51 456 Q 47 465 59 472 Q 102 494 129 483 Q 244 423 250 423 Q 254 422 258 425 Q 267 431 260 537 Q 259 651 226 755 Q 208 785 253 839 Q 263 852 274 845 Q 281 838 293 813 Q 329 764 404 681 Q 417 669 414 662 Q 413 653 401 663 Q 367 685 332 711 Q 286 748 294 693 Q 294 626 319 465 Q 322 440 345 416 Q 357 406 347 393 Q 335 377 296 359 Q 284 353 267 365 Q 191 410 146 426 Z"/>
    <path id="p3" d="M 525 251 Q 576 258 601 254 Q 835 206 846 200 Q 846 199 847 199 Q 854 192 851 183 Q 844 173 816 165 Q 794 159 666 196 Q 527 218 517 220 Q 516 220 516 221 C 506 225 515 249 525 251 Z"/>
    <path id="p4" d="M 697 384 Q 830 356 835 352 Q 842 345 839 338 Q 832 328 807 322 Q 782 316 756 326 Q 717 339 676 349 Q 630 359 576 364 Q 545 368 567 384 Q 604 405 651 393 Q 654 392 658 393 C 684 387 684 387 697 384 Z"/>
    <path id="p5" d="M 712 514 Q 760 504 803 499 Q 825 495 817 483 Q 807 470 783 465 Q 753 462 714 474 C 683 483 683 483 667 487 Q 621 497 579 508 Q 563 511 582 526 Q 591 532 668 521 C 697 516 697 516 712 514 Z"/>
    <path id="p6" d="M 708 616 Q 709 561 712 514 C 713 487 713 487 714 474 Q 720 405 715 400 Q 706 390 697 384 C 686 377 653 381 658 393 Q 664 405 667 487 C 668 510 668 510 668 521 Q 668 561 669 624 C 669 637 708 629 708 616 Z"/>
    <path id="p7" d="M 669 624 Q 608 634 537 646 Q 521 649 533 661 Q 545 671 559 676 Q 575 679 588 675 Q 693 645 843 643 Q 856 643 868 642 Q 884 642 887 635 Q 891 625 878 615 Q 833 585 779 601 Q 748 607 708 616 C 682 621 682 621 669 624 Z"/>
    <path id="p8" d="M 516 221 Q 506 211 479 196 Q 457 184 449 191 Q 442 198 449 214 Q 467 250 467 315 Q 474 714 422 801 Q 412 817 420 837 Q 427 859 438 868 Q 448 875 466 864 Q 524 827 610 809 Q 710 791 901 794 Q 925 795 926 783 Q 925 770 897 749 Q 881 734 758 756 Q 509 783 508 784 Q 501 783 500 765 Q 510 573 518 331 Q 518 282 525 251 C 527 241 524 227 516 221 Z"/>

    <clipPath id="z35795c1"><use href="#p1"/></clipPath>
    <clipPath id="z35795c2"><use href="#p2"/></clipPath>
    <clipPath id="z35795c3"><use href="#p3"/></clipPath>
    <clipPath id="z35795c4"><use href="#p4"/></clipPath>
    <clipPath id="z35795c5"><use href="#p5"/></clipPath>
    <clipPath id="z35795c6"><use href="#p6"/></clipPath>
    <clipPath id="z35795c7"><use href="#p7"/></clipPath>
    <clipPath id="z35795c8"><use href="#p8"/></clipPath>
</defs>
<g id="bg-layer" class="bg">
<use href="#p1"/>
<use href="#p2"/>
<use href="#p3"/>
<use href="#p4"/>
<use href="#p5"/>
<use href="#p6"/>
<use href="#p7"/>
<use href="#p8"/>
</g>
<g id="anim-layer">
    <path id="stroke-p1" style="stroke:#FF4444" pathLength="3333" clip-path="url(#z35795c1)" d="M 228 111 L 322 162 L 369 219"/>
    <path id="stroke-p2" style="stroke:#FF4444" pathLength="3333" clip-path="url(#z35795c2)" d="M 58 461 L 120 460 L 286 398 L 306 417 L 265 768 L 287 794 L 409 667"/>
    <path id="stroke-p3" style="stroke:#000" pathLength="3333" clip-path="url(#z35795c3)" d="M 523 223 L 601 230 L 846 183"/>
    <path id="stroke-p4" style="stroke:#000" pathLength="3333" clip-path="url(#z35795c4)" d="M 568 373 L 834 344"/>
    <path id="stroke-p5" style="stroke:#000" pathLength="3333" clip-path="url(#z35795c5)" d="M 584 518 L 811 485"/>
    <path id="stroke-p6" style="stroke:#000" pathLength="3333" clip-path="url(#z35795c6)" d="M 666 396 L 691 425 L 680 618"/>
    <path id="stroke-p7" style="stroke:#000" pathLength="3333" clip-path="url(#z35795c7)" d="M 535 653 L 883 623"/>
    <path id="stroke-p8" style="stroke:#000" pathLength="3333" clip-path="url(#z35795c8)" d="M 454 193 L 494 253 L 468 821 L 674 782 L 921 774"/>
</g>
</svg>