<svg id="z35889" class="acjk" viewBox="0 0 1024 1024" xmlns="http://www.w3.org/2000/svg">
<style>
<![CDATA[
svg.acjk path[clip-path] {
    animation-duration: 13.700000000000001s;
    animation-timing-function: linear;
    animation-iteration-count: infinite;
    stroke-dasharray: 3337;
    stroke-dashoffset: 3339;
    stroke-width: 128;
    stroke-linecap: round;
    fill: none;
    stroke: #FF4444;
}
svg.acjk .bg { fill: #ccc; opacity: 0.5; }

/* Stroke 1: Starts at 0.0%, finishes at 5.8%, holds until 81.8% */
@keyframes zk1 {
    0%, 0.0% { stroke-dashoffset: 3339; }
    5.8%, 81.8% { stroke-dashoffset: 0; }
    81.9%, 100% { stroke-dashoffset: 3339; }
}
svg.acjk #stroke-p1 { animation-name: zk1; }
/* Stroke 2: Starts at 5.8%, finishes at 11.7%, holds until 81.8% */
@keyframes zk2 {
    0%, 5.8% { stroke-dashoffset: 3339; }
    11.7%, 81.8% { stroke-dashoffset: 0; }
    81.9%, 100% { stroke-dashoffset: 3339; }
}
svg.acjk #stroke-p2 { animation-name: zk2; }
/* Stroke 3: Starts at 11.7%, finishes at 17.5%, holds until 81.8% */
@keyframes zk3 {
    0%, 11.7% { stroke-dashoffset: 3339; }
    17.5%, 81.8% { stroke-dashoffset: 0; }
    81.9%, 100% { stroke-dashoffset: 3339; }
}
svg.acjk #stroke-p3 { animation-name: zk3; }
/* Stroke 4: Starts at 17.5%, finishes at 23.4%, holds until 81.8% */
@keyframes zk4 {
    0%, 17.5% { stroke-dashoffset: 3339; }
    23.4%, 81.8% { stroke-dashoffset: 0; }
    81.9%, 100% { stroke-dashoffset: 3339; }
}
svg.acjk #stroke-p4 { animation-name: zk4; }
/* Stroke 5: Starts at 23.4%, finishes at 29.2%, holds until 81.8% */
@keyframes zk5 {
    0%, 23.4% { stroke-dashoffset: 3339; }
    29.2%, 81.8% { stroke-dashoffset: 0; }
    81.9%, 100% { stroke-dashoffset: 3339; }
}
svg.acjk #stroke-p5 { animation-name: zk5; }
/* Stroke 6: Starts at 29.2%, finishes at 35.0%, holds until 81.8% */
@keyframes zk6 {
    0%, 29.2% { stroke-dashoffset: 3339; }
    35.0%, 81.8% { stroke-dashoffset: 0; }
    81.9%, 100% { stroke-dashoffset: 3339; }
}
svg.acjk #stroke-p6 { animation-name: zk6; }
/* Stroke 7: Starts at 35.0%, finishes at 40.9%, holds until 81.8% */
@keyframes zk7 {
    0%, 35.0% { stroke-dashoffset: 3339; }
    40.9%, 81.8% { stroke-dashoffset: 0; }
    81.9%, 100% { stroke-dashoffset: 3339; }
}
svg.acjk #stroke-p7 { animation-name: zk7; }
/* Stroke 8: Starts at 40.9%, finishes at 46.7%, holds until 81.8% */
@keyframes zk8 {
    0%, 40.9% { stroke-dashoffset: 3339; }
    46.7%, 81.8% { stroke-dashoffset: 0; }
    81.9%, 100% { stroke-dashoffset: 3339; }
}
svg.acjk #stroke-p8 { animation-name: zk8; }
/* Stroke 9: Starts at 46.7%, finishes at 52.6%, holds until 81.8% */
@keyframes zk9 {
    0%, 46.7% { stroke-dashoffset: 3339; }
    52.6%, 81.8% { stroke-dashoffset: 0; }
    81.9%, 100% { stroke-dashoffset: 3339; }
}
svg.acjk #stroke-p9 { animation-name: zk9; }
/* Stroke 10: Starts at 52.6%, finishes at 58.4%, holds until 81.8% */
@keyframes zk10 {
    0%, 52.6% { stroke-dashoffset: 3339; }
    58.4%, 81.8% { stroke-dashoffset: 0; }
    81.9%, 100% { stroke-dashoffset: 3339; }
}
svg.acjk #stroke-p10 { animation-name: zk10; }
/* Stroke 11: Starts at 58.4%, finishes at 64.2%, holds until 81.8% */
@keyframes zk11 {
    0%, 58.4% { stroke-dashoffset: 3339; }
    64.2%, 81.8% { stroke-dashoffset: 0; }
    81.9%, 100% { stroke-dashoffset: 3339; }
}
svg.acjk #stroke-p11 { animation-name: zk11; }
/* Stroke 12: Starts at 64.2%, finishes at 70.1%, holds until 81.8% */
@keyframes zk12 {
    0%, 64.2% { stroke-dashoffset: 3339; }
    70.1%, 81.8% { stroke-dashoffset: 0; }
    81.9%, 100% { stroke-dashoffset: 3339; }
}
svg.acjk #stroke-p12 { animation-name: zk12; }
/* Stroke 13: Starts at 70.1%, finishes at 75.9%, holds until 81.8% */
@keyframes zk13 {
    0%, 70.1% { stroke-dashoffset: 3339; }
    75.9%, 81.8% { stroke-dashoffset: 0; }
    81.9%, 100% { stroke-dashoffset: 3339; }
}
svg.acjk #stroke-p13 { animation-name: zk13; }
/* Stroke 14: Starts at 75.9%, finishes at 81.8%, holds until 81.8% */
@keyframes zk14 {
    0%, 75.9% { stroke-dashoffset: 3339; }
    81.8%, 81.8% { stroke-dashoffset: 0; }
    81.9%, 100% { stroke-dashoffset: 3339; }
}
svg.acjk #stroke-p14 { animation-name: zk14; }
]]>
</style>
<defs>
    <path id="p1" d="M 278 141 Q 309 169 341 203 Q 354 216 371 217 Q 383 217 389 203 Q 393 188 386 156 Q 377 120 275 91 Q 259 87 252 89 Q 246 93 248 106 Q 251 118 278 141 Z"/>
    <path id="p2" d="M 125 412 Q 79 428 53 430 Q 40 430 38 437 Q 34 446 45 452 Q 67 465 81 467 Q 99 470 214 412 Q 239 399 248 406 Q 258 412 253 437 Q 259 614 228 740 Q 213 771 256 815 Q 266 825 275 819 Q 282 812 292 789 Q 322 743 386 660 Q 396 650 394 642 Q 393 635 382 644 Q 351 668 320 694 Q 284 728 288 681 Q 285 612 303 442 Q 306 420 326 397 Q 338 387 328 375 Q 318 360 281 346 Q 269 340 254 351 Q 172 396 125 412 Z"/>
    <path id="p3" d="M 521 145 Q 543 166 566 191 Q 576 203 591 203 Q 600 203 605 191 Q 609 178 603 153 Q 599 135 574 122 Q 513 97 500 101 Q 496 105 496 116 Q 499 126 521 145 Z"/>
    <path id="p4" d="M 721 94 Q 706 127 661 199 Q 654 215 669 210 Q 709 180 731 159 Q 776 114 800 100 Q 818 88 806 74 Q 793 61 767 50 Q 743 41 733 45 Q 721 48 727 59 Q 731 75 721 94 Z"/>
    <path id="p5" d="M 684 260 Q 810 233 818 228 Q 825 221 822 214 Q 816 204 792 197 Q 768 191 672 221 Q 569 245 480 252 Q 449 256 471 272 Q 498 287 533 287 C 559 283 559 283 572 281 Q 609 274 651 266 C 673 262 673 262 684 260 Z"/>
    <path id="p6" d="M 533 287 Q 542 305 546 508 C 546 520 582 516 582 504 Q 585 407 587 334 Q 590 294 575 283 Q 574 282 572 281 C 562 273 528 275 533 287 Z"/>
    <path id="p7" d="M 696 488 Q 711 284 710 283 C 709 282 709 282 709 282 Q 696 269 684 260 C 675 253 647 256 651 266 Q 661 293 662 309 Q 662 328 659 493 C 659 505 696 500 696 488 Z"/>
    <path id="p8" d="M 432 386 Q 471 455 494 460 Q 506 463 515 447 Q 518 435 512 416 Q 505 400 485 388 Q 454 367 440 362 Q 431 359 429 370 Q 426 377 432 386 Z"/>
    <path id="p9" d="M 784 336 Q 771 363 743 404 Q 739 411 743 417 Q 750 418 757 413 Q 820 368 851 351 Q 867 345 862 336 Q 856 323 838 307 Q 820 291 800 291 Q 787 292 788 309 Q 791 321 784 336 Z"/>
    <path id="p10" d="M 546 508 Q 464 517 375 528 Q 356 529 370 545 Q 383 558 399 563 Q 418 567 432 564 Q 612 516 944 515 Q 962 515 967 507 Q 971 497 957 485 Q 905 446 847 463 Q 784 473 696 488 C 671 491 671 491 659 493 Q 653 493 651 494 Q 617 498 582 504 C 558 507 558 507 546 508 Z"/>
    <path id="p11" d="M 531 612 Q 513 597 492 591 Q 485 590 479 596 Q 475 600 482 610 Q 512 721 480 819 Q 467 867 495 897 Q 505 909 513 897 Q 523 885 527 862 C 531 841 531 841 533 830 Q 534 818 536 807 Q 536 779 537 749 C 538 731 538 731 538 722 Q 539 658 544 639 C 546 629 539 618 531 612 Z"/>
    <path id="p12" d="M 712 846 Q 730 876 744 906 Q 754 925 764 928 Q 774 928 784 906 Q 800 861 793 701 Q 793 652 801 632 Q 810 613 798 603 Q 791 593 756 575 Q 740 566 703 579 Q 622 603 531 612 C 521 614 534 639 544 639 Q 553 639 564 637 Q 624 621 701 614 Q 723 613 731 621 Q 740 630 736 762 Q 737 810 732 819 Q 731 819 731 820 C 726 830 706 837 712 846 Z"/>
    <path id="p13" d="M 537 749 Q 538 749 542 749 Q 621 737 679 731 Q 701 727 693 715 Q 683 702 659 697 Q 626 691 538 722 C 529 725 528 749 537 749 Z"/>
    <path id="p14" d="M 527 862 Q 534 863 544 861 Q 598 851 712 846 C 723 846 739 828 731 820 Q 725 814 716 808 Q 701 799 672 805 Q 596 821 533 830 C 522 832 516 862 527 862 Z"/>

    <clipPath id="z35889c1"><use href="#p1"/></clipPath>
    <clipPath id="z35889c2"><use href="#p2"/></clipPath>
    <clipPath id="z35889c3"><use href="#p3"/></clipPath>
    <clipPath id="z35889c4"><use href="#p4"/></clipPath>
    <clipPath id="z35889c5"><use href="#p5"/></clipPath>
    <clipPath id="z35889c6"><use href="#p6"/></clipPath>
    <clipPath id="z35889c7"><use href="#p7"/></clipPath>
    <clipPath id="z35889c8"><use href="#p8"/></clipPath>
    <clipPath id="z35889c9"><use href="#p9"/></clipPath>
    <clipPath id="z35889c10"><use href="#p10"/></clipPath>
    <clipPath id="z35889c11"><use href="#p11"/></clipPath>
    <clipPath id="z35889c12"><use href="#p12"/></clipPath>
    <clipPath id="z35889c13"><use href="#p13"/></clipPath>
    <clipPath id="z35889c14"><use href="#p14"/></clipPath>
</defs>
<g id="bg-layer" class="bg">
<use href="#p1"/>
<use href="#p2"/>
<use href="#p3"/>
<use href="#p4"/>
<use href="#p5"/>
<use href="#p6"/>
<use href="#p7"/>
<use href="#p8"/>
<use href="#p9"/>
<use href="#p10"/>
<use href="#p11"/>
<use href="#p12"/>
<use href="#p13"/>
<use href="#p14"/>
</g>
<g id="anim-layer">
    <path id="stroke-p1" style="stroke:#FF4444" pathLength="3333" clip-path="url(#z35889c1)" d="M 255 96 L 352 163 L 369 213"/>
    <path id="stroke-p2" style="stroke:#FF4444" pathLength="3333" clip-path="url(#z35889c2)" d="M 42 439 L 95 443 L 232 384 L 279 384 L 265 746 L 288 760 L 388 646"/>
    <path id="stroke-p3" style="stroke:#000" pathLength="3333" clip-path="url(#z35889c3)" d="M 504 109 L 598 193"/>
    <path id="stroke-p4" style="stroke:#000" pathLength="3333" clip-path="url(#z35889c4)" d="M 735 51 L 764 93 L 665 205"/>
    <path id="stroke-p5" style="stroke:#000" pathLength="3333" clip-path="url(#z35889c5)" d="M 471 259 L 531 267 L 816 217"/>
    <path id="stroke-p6" style="stroke:#000" pathLength="3333" clip-path="url(#z35889c6)" d="M 542 293 L 563 323 L 564 505"/>
    <path id="stroke-p7" style="stroke:#000" pathLength="3333" clip-path="url(#z35889c7)" d="M 660 270 L 686 302 L 668 489"/>
    <path id="stroke-p8" style="stroke:#000" pathLength="3333" clip-path="url(#z35889c8)" d="M 437 371 L 506 454"/>
    <path id="stroke-p9" style="stroke:#000" pathLength="3333" clip-path="url(#z35889c9)" d="M 798 296 L 823 339 L 749 409"/>
    <path id="stroke-p10" style="stroke:#000" pathLength="3333" clip-path="url(#z35889c10)" d="M 372 535 L 875 487 L 963 500"/>
    <path id="stroke-p11" style="stroke:#000" pathLength="3333" clip-path="url(#z35889c11)" d="M 487 599 L 516 643 L 503 897"/>
    <path id="stroke-p12" style="stroke:#000" pathLength="3333" clip-path="url(#z35889c12)" d="M 540 617 L 721 594 L 768 617 L 764 921"/>
    <path id="stroke-p13" style="stroke:#000" pathLength="3333" clip-path="url(#z35889c13)" d="M 543 741 L 688 716"/>
    <path id="stroke-p14" style="stroke:#000" pathLength="3333" clip-path="url(#z35889c14)" d="M 536 854 L 724 823"/>
</g>
</svg>