<svg id="z35890" class="acjk" viewBox="0 0 1024 1024" xmlns="http://www.w3.org/2000/svg">
<style>
<![CDATA[
svg.acjk path[clip-path] {
    animation-duration: 13.700000000000001s;
    animation-timing-function: linear;
    animation-iteration-count: infinite;
    stroke-dasharray: 3337;
    stroke-dashoffset: 3339;
    stroke-width: 128;
    stroke-linecap: round;
    fill: none;
    stroke: #FF4444;
}
svg.acjk .bg { fill: #ccc; opacity: 0.5; }

/* Stroke 1: Starts at 0.0%, finishes at 5.8%, holds until 81.8% */
@keyframes zk1 {
    0%, 0.0% { stroke-dashoffset: 3339; }
    5.8%, 81.8% { stroke-dashoffset: 0; }
    81.9%, 100% { stroke-dashoffset: 3339; }
}
svg.acjk #stroke-p1 { animation-name: zk1; }
/* Stroke 2: Starts at 5.8%, finishes at 11.7%, holds until 81.8% */
@keyframes zk2 {
    0%, 5.8% { stroke-dashoffset: 3339; }
    11.7%, 81.8% { stroke-dashoffset: 0; }
    81.9%, 100% { stroke-dashoffset: 3339; }
}
svg.acjk #stroke-p2 { animation-name: zk2; }
/* Stroke 3: Starts at 11.7%, finishes at 17.5%, holds until 81.8% */
@keyframes zk3 {
    0%, 11.7% { stroke-dashoffset: 3339; }
    17.5%, 81.8% { stroke-dashoffset: 0; }
    81.9%, 100% { stroke-dashoffset: 3339; }
}
svg.acjk #stroke-p3 { animation-name: zk3; }
/* Stroke 4: Starts at 17.5%, finishes at 23.4%, holds until 81.8% */
@keyframes zk4 {
    0%, 17.5% { stroke-dashoffset: 3339; }
    23.4%, 81.8% { stroke-dashoffset: 0; }
    81.9%, 100% { stroke-dashoffset: 3339; }
}
svg.acjk #stroke-p4 { animation-name: zk4; }
/* Stroke 5: Starts at 23.4%, finishes at 29.2%, holds until 81.8% */
@keyframes zk5 {
    0%, 23.4% { stroke-dashoffset: 3339; }
    29.2%, 81.8% { stroke-dashoffset: 0; }
    81.9%, 100% { stroke-dashoffset: 3339; }
}
svg.acjk #stroke-p5 { animation-name: zk5; }
/* Stroke 6: Starts at 29.2%, finishes at 35.0%, holds until 81.8% */
@keyframes zk6 {
    0%, 29.2% { stroke-dashoffset: 3339; }
    35.0%, 81.8% { stroke-dashoffset: 0; }
    81.9%, 100% { stroke-dashoffset: 3339; }
}
svg.acjk #stroke-p6 { animation-name: zk6; }
/* Stroke 7: Starts at 35.0%, finishes at 40.9%, holds until 81.8% */
@keyframes zk7 {
    0%, 35.0% { stroke-dashoffset: 3339; }
    40.9%, 81.8% { stroke-dashoffset: 0; }
    81.9%, 100% { stroke-dashoffset: 3339; }
}
svg.acjk #stroke-p7 { animation-name: zk7; }
/* Stroke 8: Starts at 40.9%, finishes at 46.7%, holds until 81.8% */
@keyframes zk8 {
    0%, 40.9% { stroke-dashoffset: 3339; }
    46.7%, 81.8% { stroke-dashoffset: 0; }
    81.9%, 100% { stroke-dashoffset: 3339; }
}
svg.acjk #stroke-p8 { animation-name: zk8; }
/* Stroke 9: Starts at 46.7%, finishes at 52.6%, holds until 81.8% */
@keyframes zk9 {
    0%, 46.7% { stroke-dashoffset: 3339; }
    52.6%, 81.8% { stroke-dashoffset: 0; }
    81.9%, 100% { stroke-dashoffset: 3339; }
}
svg.acjk #stroke-p9 { animation-name: zk9; }
/* Stroke 10: Starts at 52.6%, finishes at 58.4%, holds until 81.8% */
@keyframes zk10 {
    0%, 52.6% { stroke-dashoffset: 3339; }
    58.4%, 81.8% { stroke-dashoffset: 0; }
    81.9%, 100% { stroke-dashoffset: 3339; }
}
svg.acjk #stroke-p10 { animation-name: zk10; }
/* Stroke 11: Starts at 58.4%, finishes at 64.2%, holds until 81.8% */
@keyframes zk11 {
    0%, 58.4% { stroke-dashoffset: 3339; }
    64.2%, 81.8% { stroke-dashoffset: 0; }
    81.9%, 100% { stroke-dashoffset: 3339; }
}
svg.acjk #stroke-p11 { animation-name: zk11; }
/* Stroke 12: Starts at 64.2%, finishes at 70.1%, holds until 81.8% */
@keyframes zk12 {
    0%, 64.2% { stroke-dashoffset: 3339; }
    70.1%, 81.8% { stroke-dashoffset: 0; }
    81.9%, 100% { stroke-dashoffset: 3339; }
}
svg.acjk #stroke-p12 { animation-name: zk12; }
/* Stroke 13: Starts at 70.1%, finishes at 75.9%, holds until 81.8% */
@keyframes zk13 {
    0%, 70.1% { stroke-dashoffset: 3339; }
    75.9%, 81.8% { stroke-dashoffset: 0; }
    81.9%, 100% { stroke-dashoffset: 3339; }
}
svg.acjk #stroke-p13 { animation-name: zk13; }
/* Stroke 14: Starts at 75.9%, finishes at 81.8%, holds until 81.8% */
@keyframes zk14 {
    0%, 75.9% { stroke-dashoffset: 3339; }
    81.8%, 81.8% { stroke-dashoffset: 0; }
    81.9%, 100% { stroke-dashoffset: 3339; }
}
svg.acjk #stroke-p14 { animation-name: zk14; }
]]>
</style>
<defs>
    <path id="p1" d="M 258 163 Q 288 188 319 220 Q 332 233 349 233 Q 359 233 365 219 Q 369 204 361 175 Q 352 142 254 114 Q 238 110 232 113 Q 228 117 228 130 Q 232 140 258 163 Z"/>
    <path id="p2" d="M 133 424 Q 87 440 61 442 Q 48 442 46 449 Q 42 458 53 464 Q 75 477 89 479 Q 108 482 202 432 Q 226 419 234 426 Q 243 432 238 456 Q 238 618 201 734 Q 186 767 226 811 Q 236 823 245 816 Q 252 810 263 787 Q 300 739 377 656 Q 389 646 386 638 Q 385 631 374 639 Q 335 664 298 694 Q 258 728 264 678 Q 264 615 289 463 Q 292 441 313 419 Q 325 409 315 397 Q 305 382 269 366 Q 259 360 242 371 Q 173 410 133 424 Z"/>
    <path id="p3" d="M 623 208 Q 710 145 740 139 Q 756 135 751 120 Q 750 107 695 76 Q 680 67 661 74 Q 613 92 540 114 Q 521 120 474 119 Q 455 119 462 135 Q 469 145 484 155 Q 509 168 537 152 Q 643 104 660 111 Q 670 117 666 127 Q 639 160 608 200 C 605 205 618 211 623 208 Z"/>
    <path id="p4" d="M 637 246 Q 637 245 638 244 Q 639 226 623 208 C 620 203 613 203 608 200 Q 602 194 548 188 Q 539 188 535 190 Q 534 193 535 200 Q 574 225 616 252 C 622 256 636 253 637 246 Z"/>
    <path id="p5" d="M 622 277 Q 674 264 728 255 Q 758 251 760 263 Q 760 275 736 322 Q 729 335 735 339 Q 741 343 753 332 Q 819 286 845 277 Q 866 273 864 261 Q 863 251 798 217 Q 779 208 754 214 Q 691 232 637 246 C 630 247 623 252 616 252 Q 609 251 606 253 Q 528 268 419 285 Q 395 288 414 308 Q 429 326 470 313 Q 518 300 568 289 C 604 281 604 281 622 277 Z"/>
    <path id="p6" d="M 612 303 Q 639 330 630 371 Q 629 387 621 398 Q 614 411 595 407 Q 577 403 561 399 Q 554 396 557 404 Q 558 408 570 418 Q 592 440 599 458 Q 606 470 617 467 Q 627 466 644 448 Q 674 415 668 351 Q 665 320 657 303 Q 645 284 622 277 C 613 274 606 296 612 303 Z"/>
    <path id="p7" d="M 568 289 Q 535 355 382 431 Q 367 438 379 442 Q 388 445 421 437 Q 455 430 488 412 Q 516 396 552 367 Q 580 345 597 322 Q 606 309 612 303 C 648 267 591 244 568 289 Z"/>
    <path id="p8" d="M 440 497 Q 437 493 432 491 Q 405 478 389 479 Q 376 483 382 494 Q 425 587 387 774 Q 369 837 369 838 Q 369 863 388 888 Q 395 900 404 895 Q 437 871 440 760 Q 444 585 448 535 C 448 522 449 506 440 497 Z"/>
    <path id="p9" d="M 448 535 Q 455 536 467 533 Q 738 464 763 488 Q 770 492 774 531 Q 783 661 775 807 Q 774 829 766 835 Q 756 845 695 845 Q 679 844 682 852 Q 683 859 696 863 Q 753 894 784 920 Q 803 936 815 934 Q 825 930 835 904 Q 847 864 843 803 Q 822 541 840 506 Q 850 487 841 475 Q 831 462 788 440 Q 770 431 701 451 Q 584 479 440 497 C 427 500 435 535 448 535 Z"/>
    <path id="p10" d="M 524 548 Q 527 555 524 562 Q 490 604 454 648 Q 451 652 459 653 Q 486 653 547 598 Q 556 589 563 585 Q 569 581 568 573 Q 567 566 554 551 Q 542 538 532 537 Q 522 536 524 548 Z"/>
    <path id="p11" d="M 661 561 Q 721 606 732 606 Q 739 605 742 596 Q 743 586 736 566 Q 730 550 706 541 Q 649 525 640 530 Q 636 533 638 541 Q 641 548 661 561 Z"/>
    <path id="p12" d="M 543 666 Q 533 662 504 656 Q 495 655 492 658 Q 488 662 494 676 Q 513 710 526 770 Q 527 788 539 799 Q 552 815 557 804 Q 558 797 559 786 C 558 769 558 769 557 760 Q 550 709 548 690 C 546 682 550 671 543 667 C 543 666 543 666 543 666 Z"/>
    <path id="p13" d="M 684 738 Q 700 699 716 688 Q 735 667 716 655 Q 700 645 679 630 Q 663 620 648 629 Q 627 642 601 651 Q 576 658 543 667 C 535 669 540 692 548 690 Q 557 689 568 686 Q 602 679 630 672 Q 649 668 654 675 Q 658 679 652 699 Q 646 717 639 738 C 634 752 678 752 684 738 Z"/>
    <path id="p14" d="M 559 786 Q 568 787 578 784 Q 615 774 696 765 Q 703 764 705 756 Q 705 750 684 738 C 671 730 654 735 639 738 Q 593 751 557 760 C 548 761 550 786 559 786 Z"/>

    <clipPath id="z35890c1"><use href="#p1"/></clipPath>
    <clipPath id="z35890c2"><use href="#p2"/></clipPath>
    <clipPath id="z35890c3"><use href="#p3"/></clipPath>
    <clipPath id="z35890c4"><use href="#p4"/></clipPath>
    <clipPath id="z35890c5"><use href="#p5"/></clipPath>
    <clipPath id="z35890c6"><use href="#p6"/></clipPath>
    <clipPath id="z35890c7"><use href="#p7"/></clipPath>
    <clipPath id="z35890c8"><use href="#p8"/></clipPath>
    <clipPath id="z35890c9"><use href="#p9"/></clipPath>
    <clipPath id="z35890c10"><use href="#p10"/></clipPath>
    <clipPath id="z35890c11"><use href="#p11"/></clipPath>
    <clipPath id="z35890c12"><use href="#p12"/></clipPath>
    <clipPath id="z35890c13"><use href="#p13"/></clipPath>
    <clipPath id="z35890c14"><use href="#p14"/></clipPath>
</defs>
<g id="bg-layer" class="bg">
<use href="#p1"/>
<use href="#p2"/>
<use href="#p3"/>
<use href="#p4"/>
<use href="#p5"/>
<use href="#p6"/>
<use href="#p7"/>
<use href="#p8"/>
<use href="#p9"/>
<use href="#p10"/>
<use href="#p11"/>
<use href="#p12"/>
<use href="#p13"/>
<use href="#p14"/>
</g>
<g id="anim-layer">
    <path id="stroke-p1" style="stroke:#FF4444" pathLength="3333" clip-path="url(#z35890c1)" d="M 236 122 L 360 222"/>
    <path id="stroke-p2" style="stroke:#FF4444" pathLength="3333" clip-path="url(#z35890c2)" d="M 51 452 L 101 456 L 242 397 L 278 418 L 232 723 L 253 766 L 380 643"/>
    <path id="stroke-p3" style="stroke:#000" pathLength="3333" clip-path="url(#z35890c3)" d="M 465 127 L 515 139 L 676 94 L 708 130 L 616 199"/>
    <path id="stroke-p4" style="stroke:#000" pathLength="3333" clip-path="url(#z35890c4)" d="M 544 196 L 629 245"/>
    <path id="stroke-p5" style="stroke:#000" pathLength="3333" clip-path="url(#z35890c5)" d="M 413 295 L 760 234 L 811 268 L 739 334"/>
    <path id="stroke-p6" style="stroke:#000" pathLength="3333" clip-path="url(#z35890c6)" d="M 626 282 L 649 343 L 636 419 L 607 437 L 564 404"/>
    <path id="stroke-p7" style="stroke:#000" pathLength="3333" clip-path="url(#z35890c7)" d="M 612 284 L 492 389 L 382 437"/>
    <path id="stroke-p8" style="stroke:#000" pathLength="3333" clip-path="url(#z35890c8)" d="M 388 487 L 417 513 L 424 576 L 398 891"/>
    <path id="stroke-p9" style="stroke:#000" pathLength="3333" clip-path="url(#z35890c9)" d="M 447 501 L 485 511 L 739 461 L 800 481 L 804 854 L 786 888 L 690 853"/>
    <path id="stroke-p10" style="stroke:#000" pathLength="3333" clip-path="url(#z35890c10)" d="M 532 544 L 541 577 L 461 647"/>
    <path id="stroke-p11" style="stroke:#000" pathLength="3333" clip-path="url(#z35890c11)" d="M 643 536 L 736 594"/>
    <path id="stroke-p12" style="stroke:#000" pathLength="3333" clip-path="url(#z35890c12)" d="M 498 663 L 524 686 L 550 799"/>
    <path id="stroke-p13" style="stroke:#000" pathLength="3333" clip-path="url(#z35890c13)" d="M 549 671 L 667 652 L 689 681 L 648 734"/>
    <path id="stroke-p14" style="stroke:#000" pathLength="3333" clip-path="url(#z35890c14)" d="M 565 778 L 695 755"/>
</g>
</svg>