<svg id="z35970" class="acjk" viewBox="0 0 1024 1024" xmlns="http://www.w3.org/2000/svg">
<style>
<![CDATA[
svg.acjk path[clip-path] {
    animation-duration: 12.100000000000001s;
    animation-timing-function: linear;
    animation-iteration-count: infinite;
    stroke-dasharray: 3337;
    stroke-dashoffset: 3339;
    stroke-width: 128;
    stroke-linecap: round;
    fill: none;
    stroke: #FF4444;
}
svg.acjk .bg { fill: #ccc; opacity: 0.5; }

/* Stroke 1: Starts at 0.0%, finishes at 6.6%, holds until 79.3% */
@keyframes zk1 {
    0%, 0.0% { stroke-dashoffset: 3339; }
    6.6%, 79.3% { stroke-dashoffset: 0; }
    79.4%, 100% { stroke-dashoffset: 3339; }
}
svg.acjk #stroke-p1 { animation-name: zk1; }
/* Stroke 2: Starts at 6.6%, finishes at 13.2%, holds until 79.3% */
@keyframes zk2 {
    0%, 6.6% { stroke-dashoffset: 3339; }
    13.2%, 79.3% { stroke-dashoffset: 0; }
    79.4%, 100% { stroke-dashoffset: 3339; }
}
svg.acjk #stroke-p2 { animation-name: zk2; }
/* Stroke 3: Starts at 13.2%, finishes at 19.8%, holds until 79.3% */
@keyframes zk3 {
    0%, 13.2% { stroke-dashoffset: 3339; }
    19.8%, 79.3% { stroke-dashoffset: 0; }
    79.4%, 100% { stroke-dashoffset: 3339; }
}
svg.acjk #stroke-p3 { animation-name: zk3; }
/* Stroke 4: Starts at 19.8%, finishes at 26.4%, holds until 79.3% */
@keyframes zk4 {
    0%, 19.8% { stroke-dashoffset: 3339; }
    26.4%, 79.3% { stroke-dashoffset: 0; }
    79.4%, 100% { stroke-dashoffset: 3339; }
}
svg.acjk #stroke-p4 { animation-name: zk4; }
/* Stroke 5: Starts at 26.4%, finishes at 33.1%, holds until 79.3% */
@keyframes zk5 {
    0%, 26.4% { stroke-dashoffset: 3339; }
    33.1%, 79.3% { stroke-dashoffset: 0; }
    79.4%, 100% { stroke-dashoffset: 3339; }
}
svg.acjk #stroke-p5 { animation-name: zk5; }
/* Stroke 6: Starts at 33.1%, finishes at 39.7%, holds until 79.3% */
@keyframes zk6 {
    0%, 33.1% { stroke-dashoffset: 3339; }
    39.7%, 79.3% { stroke-dashoffset: 0; }
    79.4%, 100% { stroke-dashoffset: 3339; }
}
svg.acjk #stroke-p6 { animation-name: zk6; }
/* Stroke 7: Starts at 39.7%, finishes at 46.3%, holds until 79.3% */
@keyframes zk7 {
    0%, 39.7% { stroke-dashoffset: 3339; }
    46.3%, 79.3% { stroke-dashoffset: 0; }
    79.4%, 100% { stroke-dashoffset: 3339; }
}
svg.acjk #stroke-p7 { animation-name: zk7; }
/* Stroke 8: Starts at 46.3%, finishes at 52.9%, holds until 79.3% */
@keyframes zk8 {
    0%, 46.3% { stroke-dashoffset: 3339; }
    52.9%, 79.3% { stroke-dashoffset: 0; }
    79.4%, 100% { stroke-dashoffset: 3339; }
}
svg.acjk #stroke-p8 { animation-name: zk8; }
/* Stroke 9: Starts at 52.9%, finishes at 59.5%, holds until 79.3% */
@keyframes zk9 {
    0%, 52.9% { stroke-dashoffset: 3339; }
    59.5%, 79.3% { stroke-dashoffset: 0; }
    79.4%, 100% { stroke-dashoffset: 3339; }
}
svg.acjk #stroke-p9 { animation-name: zk9; }
/* Stroke 10: Starts at 59.5%, finishes at 66.1%, holds until 79.3% */
@keyframes zk10 {
    0%, 59.5% { stroke-dashoffset: 3339; }
    66.1%, 79.3% { stroke-dashoffset: 0; }
    79.4%, 100% { stroke-dashoffset: 3339; }
}
svg.acjk #stroke-p10 { animation-name: zk10; }
/* Stroke 11: Starts at 66.1%, finishes at 72.7%, holds until 79.3% */
@keyframes zk11 {
    0%, 66.1% { stroke-dashoffset: 3339; }
    72.7%, 79.3% { stroke-dashoffset: 0; }
    79.4%, 100% { stroke-dashoffset: 3339; }
}
svg.acjk #stroke-p11 { animation-name: zk11; }
/* Stroke 12: Starts at 72.7%, finishes at 79.3%, holds until 79.3% */
@keyframes zk12 {
    0%, 72.7% { stroke-dashoffset: 3339; }
    79.3%, 79.3% { stroke-dashoffset: 0; }
    79.4%, 100% { stroke-dashoffset: 3339; }
}
svg.acjk #stroke-p12 { animation-name: zk12; }
]]>
</style>
<defs>
    <path id="p1" d="M 251 227 C 277 216 364 173 423 154 C 444 146 449 129 432 118 C 417 108 394 101 364 93 C 353 89 343 87 335 90 C 329 91 328 97 329 106 C 329 128 280 165 190 230 C 166 248 170 255 192 249 C 202 246 212 242 226 237 C 243 230 243 230 251 227 Z"/>
    <path id="p2" d="M 141 327 C 152 339 162 354 174 371 C 180 379 188 384 198 385 C 204 385 209 382 213 375 C 217 367 217 354 215 336 C 213 326 206 315 191 307 C 155 286 132 277 124 281 C 120 282 119 287 119 295 C 119 301 127 311 141 327 Z"/>
    <path id="p3" d="M 226 237 C 243 258 266 301 296 306 C 319 309 313 278 308 265 C 302 252 283 240 251 227 C 243 224 221 230 226 237 Z"/>
    <path id="p4" d="M 280 418 C 340 374 412 314 476 278 C 490 269 496 259 481 249 C 463 236 448 227 434 222 C 425 219 415 221 412 231 C 388 291 241 413 113 489 C 79 509 87 513 119 506 C 162 497 233 451 255 436 C 272 424 272 424 280 418 Z"/>
    <path id="p5" d="M 363 589 C 373 636 358 716 346 756 C 338 780 327 797 314 802 C 302 806 280 800 258 795 C 224 787 200 785 226 811 C 258 843 283 867 297 888 C 304 900 313 904 323 903 C 335 900 351 891 363 872 C 399 811 417 727 414 646 C 411 583 394 545 386 530 C 359 481 325 444 280 418 C 271 413 246 431 255 436 C 263 442 271 448 279 455 C 294 468 308 481 320 497 C 328 508 334 516 340 527 C 349 546 358 567 363 589 Z"/>
    <path id="p6" d="M 279 455 C 248 519 193 551 125 595 C 101 610 106 616 132 610 C 215 593 279 534 320 497 C 327 490 283 447 279 455 Z"/>
    <path id="p7" d="M 340 527 C 294 607 223 682 112 756 C 81 777 82 797 121 780 C 235 730 332 635 363 589 C 369 581 346 519 340 527 Z"/>
    <path id="p8" d="M 647 236 C 695 225 739 216 780 213 C 816 210 808 240 804 268 C 793 335 780 384 763 413 C 750 434 734 444 715 440 C 702 437 690 434 679 431 C 662 426 659 432 672 447 C 694 473 709 496 721 515 C 731 530 743 530 757 521 C 793 495 827 447 845 370 C 864 284 876 234 889 221 C 897 212 900 204 896 198 C 890 189 870 176 836 160 C 822 153 808 154 795 163 C 780 171 745 180 690 191 C 634 201 582 208 535 210 C 503 211 518 228 536 240 C 564 259 581 250 610 244 C 635 239 635 239 647 236 Z"/>
    <path id="p9" d="M 610 244 C 625 361 536 462 457 553 C 450 560 444 582 478 559 C 534 520 572 476 622 402 C 650 360 669 325 685 301 C 697 280 659 244 647 236 C 637 228 608 232 610 244 Z"/>
    <path id="p10" d="M 543 614 C 523 606 465 581 487 628 C 505 674 520 733 530 807 C 532 828 538 847 551 863 C 578 898 581 850 581 828 C 580 815 579 803 578 791 C 568 726 562 668 562 647 C 562 634 555 619 543 614 Z"/>
    <path id="p11" d="M 813 769 C 833 709 856 674 878 657 C 892 645 894 627 882 616 C 831 569 783 561 740 577 C 680 597 614 607 543 614 C 530 616 550 649 562 647 C 589 642 683 630 744 620 C 781 613 780 642 778 654 C 770 694 761 731 752 764 C 748 784 805 788 813 769 Z"/>
    <path id="p12" d="M 581 828 C 592 827 669 819 829 810 C 835 809 864 804 813 769 C 797 756 772 761 752 764 C 687 776 629 785 578 791 C 566 793 569 828 581 828 Z"/>

    <clipPath id="z35970c1"><use href="#p1"/></clipPath>
    <clipPath id="z35970c2"><use href="#p2"/></clipPath>
    <clipPath id="z35970c3"><use href="#p3"/></clipPath>
    <clipPath id="z35970c4"><use href="#p4"/></clipPath>
    <clipPath id="z35970c5"><use href="#p5"/></clipPath>
    <clipPath id="z35970c6"><use href="#p6"/></clipPath>
    <clipPath id="z35970c7"><use href="#p7"/></clipPath>
    <clipPath id="z35970c8"><use href="#p8"/></clipPath>
    <clipPath id="z35970c9"><use href="#p9"/></clipPath>
    <clipPath id="z35970c10"><use href="#p10"/></clipPath>
    <clipPath id="z35970c11"><use href="#p11"/></clipPath>
    <clipPath id="z35970c12"><use href="#p12"/></clipPath>
</defs>
<g id="bg-layer" class="bg">
<use href="#p1"/>
<use href="#p2"/>
<use href="#p3"/>
<use href="#p4"/>
<use href="#p5"/>
<use href="#p6"/>
<use href="#p7"/>
<use href="#p8"/>
<use href="#p9"/>
<use href="#p10"/>
<use href="#p11"/>
<use href="#p12"/>
</g>
<g id="anim-layer">
    <path id="stroke-p1" style="stroke:#FF4444" pathLength="3333" clip-path="url(#z35970c1)" d="M 337 93 L 378 153 L 181 244"/>
    <path id="stroke-p2" style="stroke:#FF4444" pathLength="3333" clip-path="url(#z35970c2)" d="M 126 287 L 185 336 L 201 381"/>
    <path id="stroke-p3" style="stroke:#FF4444" pathLength="3333" clip-path="url(#z35970c3)" d="M 234 234 L 302 301"/>
    <path id="stroke-p4" style="stroke:#FF4444" pathLength="3333" clip-path="url(#z35970c4)" d="M 423 223 L 437 268 L 227 434 L 102 504"/>
    <path id="stroke-p5" style="stroke:#FF4444" pathLength="3333" clip-path="url(#z35970c5)" d="M 260 429 L 323 473 L 369 542 L 388 686 L 336 841 L 306 851 L 222 798"/>
    <path id="stroke-p6" style="stroke:#FF4444" pathLength="3333" clip-path="url(#z35970c6)" d="M 281 462 L 287 495 L 257 523 L 119 608"/>
    <path id="stroke-p7" style="stroke:#FF4444" pathLength="3333" clip-path="url(#z35970c7)" d="M 341 535 L 336 582 L 269 657 L 96 778"/>
    <path id="stroke-p8" style="stroke:#000" pathLength="3333" clip-path="url(#z35970c8)" d="M 524 219 L 576 229 L 803 185 L 851 212 L 773 455 L 724 482 L 670 435"/>
    <path id="stroke-p9" style="stroke:#000" pathLength="3333" clip-path="url(#z35970c9)" d="M 616 243 L 649 292 L 611 377 L 455 563"/>
    <path id="stroke-p10" style="stroke:#000" pathLength="3333" clip-path="url(#z35970c10)" d="M 489 605 L 530 651 L 564 871"/>
    <path id="stroke-p11" style="stroke:#000" pathLength="3333" clip-path="url(#z35970c11)" d="M 547 623 L 800 603 L 836 645 L 770 778"/>
    <path id="stroke-p12" style="stroke:#000" pathLength="3333" clip-path="url(#z35970c12)" d="M 572 810 L 838 797"/>
</g>
</svg>