<svg id="z36141" class="acjk" viewBox="0 0 1024 1024" xmlns="http://www.w3.org/2000/svg">
<style>
<![CDATA[
svg.acjk path[clip-path] {
    animation-duration: 8.9s;
    animation-timing-function: linear;
    animation-iteration-count: infinite;
    stroke-dasharray: 3337;
    stroke-dashoffset: 3339;
    stroke-width: 128;
    stroke-linecap: round;
    fill: none;
    stroke: #FF4444;
}
svg.acjk .bg { fill: #ccc; opacity: 0.5; }

/* Stroke 1: Starts at 0.0%, finishes at 9.0%, holds until 71.9% */
@keyframes zk1 {
    0%, 0.0% { stroke-dashoffset: 3339; }
    9.0%, 71.9% { stroke-dashoffset: 0; }
    72.0%, 100% { stroke-dashoffset: 3339; }
}
svg.acjk #stroke-p1 { animation-name: zk1; }
/* Stroke 2: Starts at 9.0%, finishes at 18.0%, holds until 71.9% */
@keyframes zk2 {
    0%, 9.0% { stroke-dashoffset: 3339; }
    18.0%, 71.9% { stroke-dashoffset: 0; }
    72.0%, 100% { stroke-dashoffset: 3339; }
}
svg.acjk #stroke-p2 { animation-name: zk2; }
/* Stroke 3: Starts at 18.0%, finishes at 27.0%, holds until 71.9% */
@keyframes zk3 {
    0%, 18.0% { stroke-dashoffset: 3339; }
    27.0%, 71.9% { stroke-dashoffset: 0; }
    72.0%, 100% { stroke-dashoffset: 3339; }
}
svg.acjk #stroke-p3 { animation-name: zk3; }
/* Stroke 4: Starts at 27.0%, finishes at 36.0%, holds until 71.9% */
@keyframes zk4 {
    0%, 27.0% { stroke-dashoffset: 3339; }
    36.0%, 71.9% { stroke-dashoffset: 0; }
    72.0%, 100% { stroke-dashoffset: 3339; }
}
svg.acjk #stroke-p4 { animation-name: zk4; }
/* Stroke 5: Starts at 36.0%, finishes at 44.9%, holds until 71.9% */
@keyframes zk5 {
    0%, 36.0% { stroke-dashoffset: 3339; }
    44.9%, 71.9% { stroke-dashoffset: 0; }
    72.0%, 100% { stroke-dashoffset: 3339; }
}
svg.acjk #stroke-p5 { animation-name: zk5; }
/* Stroke 6: Starts at 44.9%, finishes at 53.9%, holds until 71.9% */
@keyframes zk6 {
    0%, 44.9% { stroke-dashoffset: 3339; }
    53.9%, 71.9% { stroke-dashoffset: 0; }
    72.0%, 100% { stroke-dashoffset: 3339; }
}
svg.acjk #stroke-p6 { animation-name: zk6; }
/* Stroke 7: Starts at 53.9%, finishes at 62.9%, holds until 71.9% */
@keyframes zk7 {
    0%, 53.9% { stroke-dashoffset: 3339; }
    62.9%, 71.9% { stroke-dashoffset: 0; }
    72.0%, 100% { stroke-dashoffset: 3339; }
}
svg.acjk #stroke-p7 { animation-name: zk7; }
/* Stroke 8: Starts at 62.9%, finishes at 71.9%, holds until 71.9% */
@keyframes zk8 {
    0%, 62.9% { stroke-dashoffset: 3339; }
    71.9%, 71.9% { stroke-dashoffset: 0; }
    72.0%, 100% { stroke-dashoffset: 3339; }
}
svg.acjk #stroke-p8 { animation-name: zk8; }
]]>
</style>
<defs>
    <path id="p1" d="M 220 193 Q 201 177 179 171 Q 170 170 165 177 Q 162 181 169 192 Q 212 325 171 510 Q 158 537 164 563 Q 171 593 182 605 Q 192 617 201 604 Q 225 574 226 462 Q 226 269 233 220 C 235 210 228 199 220 193 Z"/>
    <path id="p2" d="M 370 543 Q 363 565 376 587 Q 389 615 398 614 Q 411 613 427 581 Q 442 556 441 537 Q 429 443 432 295 Q 432 252 456 216 Q 466 201 458 192 Q 433 170 390 152 Q 375 146 354 154 Q 306 176 220 193 C 210 195 223 222 233 220 Q 350 187 368 197 Q 380 222 383 293 Q 383 503 370 543 Z"/>
    <path id="p3" d="M 282 352 Q 288 637 211 729 Q 205 733 201 740 Q 176 767 121 804 Q 111 808 109 811 Q 106 815 118 817 Q 166 817 253 740 Q 262 728 271 715 Q 320 631 322 416 Q 322 371 335 327 Q 339 318 332 312 Q 319 300 290 290 Q 274 283 261 288 Q 246 294 259 307 Q 281 329 282 352 Z"/>
    <path id="p4" d="M 343 678 Q 374 712 407 751 Q 416 763 428 764 Q 435 765 441 755 Q 447 745 443 721 Q 442 699 411 676 Q 342 634 328 638 Q 324 639 323 650 Q 324 659 343 678 Z"/>
    <path id="p5" d="M 563 322 Q 597 265 632 186 Q 645 149 659 130 Q 666 118 660 106 Q 653 94 623 78 Q 595 65 576 68 Q 560 74 570 93 Q 609 142 478 400 Q 466 416 464 427 Q 463 439 476 434 Q 495 425 548 346 C 558 330 558 330 563 322 Z"/>
    <path id="p6" d="M 718 826 Q 699 826 617 771 Q 607 767 607 772 Q 606 776 616 787 Q 668 847 691 890 Q 704 917 720 916 Q 742 917 762 894 Q 837 831 853 674 Q 866 568 870 405 Q 870 368 892 339 Q 905 326 904 317 Q 903 310 883 296 Q 855 277 820 267 Q 793 258 776 268 Q 757 275 712 287 Q 649 305 604 313 Q 582 317 563 322 C 554 324 539 344 548 346 Q 578 352 724 325 Q 785 313 797 323 Q 818 362 804 584 Q 794 710 756 786 Q 740 823 718 826 Z"/>
    <path id="p7" d="M 679 579 Q 624 585 565 598 Q 559 599 557 598 Q 556 595 560 587 Q 633 473 649 454 Q 659 444 653 433 Q 646 423 601 405 Q 586 399 577 404 Q 567 410 573 428 Q 597 479 516 580 Q 500 596 478 615 Q 466 627 470 636 Q 476 652 500 668 Q 510 677 521 667 Q 536 651 691 599 C 698 596 687 577 679 579 Z"/>
    <path id="p8" d="M 691 599 Q 724 650 734 654 Q 741 655 749 647 Q 756 637 757 611 Q 757 577 677 528 Q 667 521 660 522 Q 656 523 654 534 Q 654 537 679 579 C 687 592 687 592 691 599 Z"/>

    <clipPath id="z36141c1"><use href="#p1"/></clipPath>
    <clipPath id="z36141c2"><use href="#p2"/></clipPath>
    <clipPath id="z36141c3"><use href="#p3"/></clipPath>
    <clipPath id="z36141c4"><use href="#p4"/></clipPath>
    <clipPath id="z36141c5"><use href="#p5"/></clipPath>
    <clipPath id="z36141c6"><use href="#p6"/></clipPath>
    <clipPath id="z36141c7"><use href="#p7"/></clipPath>
    <clipPath id="z36141c8"><use href="#p8"/></clipPath>
</defs>
<g id="bg-layer" class="bg">
<use href="#p1"/>
<use href="#p2"/>
<use href="#p3"/>
<use href="#p4"/>
<use href="#p5"/>
<use href="#p6"/>
<use href="#p7"/>
<use href="#p8"/>
</g>
<g id="anim-layer">
    <path id="stroke-p1" style="stroke:#FF4444" pathLength="3333" clip-path="url(#z36141c1)" d="M 171 179 L 207 238 L 192 605"/>
    <path id="stroke-p2" style="stroke:#FF4444" pathLength="3333" clip-path="url(#z36141c2)" d="M 228 196 L 370 172 L 419 212 L 391 608"/>
    <path id="stroke-p3" style="stroke:#FF4444" pathLength="3333" clip-path="url(#z36141c3)" d="M 260 292 L 308 332 L 276 645 L 232 733 L 118 812"/>
    <path id="stroke-p4" style="stroke:#FF4444" pathLength="3333" clip-path="url(#z36141c4)" d="M 333 648 L 408 710 L 430 760"/>
    <path id="stroke-p5" style="stroke:#000" pathLength="3333" clip-path="url(#z36141c5)" d="M 573 72 L 620 129 L 544 312 L 470 425"/>
    <path id="stroke-p6" style="stroke:#000" pathLength="3333" clip-path="url(#z36141c6)" d="M 555 341 L 787 291 L 854 335 L 823 673 L 777 821 L 717 870 L 614 775"/>
    <path id="stroke-p7" style="stroke:#000" pathLength="3333" clip-path="url(#z36141c7)" d="M 579 410 L 616 447 L 513 616 L 531 634 L 685 590"/>
    <path id="stroke-p8" style="stroke:#000" pathLength="3333" clip-path="url(#z36141c8)" d="M 662 527 L 742 648"/>
</g>
</svg>