<svg id="z36179" class="acjk" viewBox="0 0 1024 1024" xmlns="http://www.w3.org/2000/svg">
<style>
<![CDATA[
svg.acjk path[clip-path] {
    animation-duration: 12.100000000000001s;
    animation-timing-function: linear;
    animation-iteration-count: infinite;
    stroke-dasharray: 3337;
    stroke-dashoffset: 3339;
    stroke-width: 128;
    stroke-linecap: round;
    fill: none;
    stroke: #FF4444;
}
svg.acjk .bg { fill: #ccc; opacity: 0.5; }

/* Stroke 1: Starts at 0.0%, finishes at 6.6%, holds until 79.3% */
@keyframes zk1 {
    0%, 0.0% { stroke-dashoffset: 3339; }
    6.6%, 79.3% { stroke-dashoffset: 0; }
    79.4%, 100% { stroke-dashoffset: 3339; }
}
svg.acjk #stroke-p1 { animation-name: zk1; }
/* Stroke 2: Starts at 6.6%, finishes at 13.2%, holds until 79.3% */
@keyframes zk2 {
    0%, 6.6% { stroke-dashoffset: 3339; }
    13.2%, 79.3% { stroke-dashoffset: 0; }
    79.4%, 100% { stroke-dashoffset: 3339; }
}
svg.acjk #stroke-p2 { animation-name: zk2; }
/* Stroke 3: Starts at 13.2%, finishes at 19.8%, holds until 79.3% */
@keyframes zk3 {
    0%, 13.2% { stroke-dashoffset: 3339; }
    19.8%, 79.3% { stroke-dashoffset: 0; }
    79.4%, 100% { stroke-dashoffset: 3339; }
}
svg.acjk #stroke-p3 { animation-name: zk3; }
/* Stroke 4: Starts at 19.8%, finishes at 26.4%, holds until 79.3% */
@keyframes zk4 {
    0%, 19.8% { stroke-dashoffset: 3339; }
    26.4%, 79.3% { stroke-dashoffset: 0; }
    79.4%, 100% { stroke-dashoffset: 3339; }
}
svg.acjk #stroke-p4 { animation-name: zk4; }
/* Stroke 5: Starts at 26.4%, finishes at 33.1%, holds until 79.3% */
@keyframes zk5 {
    0%, 26.4% { stroke-dashoffset: 3339; }
    33.1%, 79.3% { stroke-dashoffset: 0; }
    79.4%, 100% { stroke-dashoffset: 3339; }
}
svg.acjk #stroke-p5 { animation-name: zk5; }
/* Stroke 6: Starts at 33.1%, finishes at 39.7%, holds until 79.3% */
@keyframes zk6 {
    0%, 33.1% { stroke-dashoffset: 3339; }
    39.7%, 79.3% { stroke-dashoffset: 0; }
    79.4%, 100% { stroke-dashoffset: 3339; }
}
svg.acjk #stroke-p6 { animation-name: zk6; }
/* Stroke 7: Starts at 39.7%, finishes at 46.3%, holds until 79.3% */
@keyframes zk7 {
    0%, 39.7% { stroke-dashoffset: 3339; }
    46.3%, 79.3% { stroke-dashoffset: 0; }
    79.4%, 100% { stroke-dashoffset: 3339; }
}
svg.acjk #stroke-p7 { animation-name: zk7; }
/* Stroke 8: Starts at 46.3%, finishes at 52.9%, holds until 79.3% */
@keyframes zk8 {
    0%, 46.3% { stroke-dashoffset: 3339; }
    52.9%, 79.3% { stroke-dashoffset: 0; }
    79.4%, 100% { stroke-dashoffset: 3339; }
}
svg.acjk #stroke-p8 { animation-name: zk8; }
/* Stroke 9: Starts at 52.9%, finishes at 59.5%, holds until 79.3% */
@keyframes zk9 {
    0%, 52.9% { stroke-dashoffset: 3339; }
    59.5%, 79.3% { stroke-dashoffset: 0; }
    79.4%, 100% { stroke-dashoffset: 3339; }
}
svg.acjk #stroke-p9 { animation-name: zk9; }
/* Stroke 10: Starts at 59.5%, finishes at 66.1%, holds until 79.3% */
@keyframes zk10 {
    0%, 59.5% { stroke-dashoffset: 3339; }
    66.1%, 79.3% { stroke-dashoffset: 0; }
    79.4%, 100% { stroke-dashoffset: 3339; }
}
svg.acjk #stroke-p10 { animation-name: zk10; }
/* Stroke 11: Starts at 66.1%, finishes at 72.7%, holds until 79.3% */
@keyframes zk11 {
    0%, 66.1% { stroke-dashoffset: 3339; }
    72.7%, 79.3% { stroke-dashoffset: 0; }
    79.4%, 100% { stroke-dashoffset: 3339; }
}
svg.acjk #stroke-p11 { animation-name: zk11; }
/* Stroke 12: Starts at 72.7%, finishes at 79.3%, holds until 79.3% */
@keyframes zk12 {
    0%, 72.7% { stroke-dashoffset: 3339; }
    79.3%, 79.3% { stroke-dashoffset: 0; }
    79.4%, 100% { stroke-dashoffset: 3339; }
}
svg.acjk #stroke-p12 { animation-name: zk12; }
]]>
</style>
<defs>
    <path id="p1" d="M 475 84 Q 497 100 522 119 Q 537 129 552 127 Q 562 126 565 112 Q 568 97 555 70 Q 548 54 521 47 Q 457 32 444 41 Q 440 45 442 57 Q 446 67 475 84 Z"/>
    <path id="p2" d="M 499 193 Q 709 159 721 150 Q 730 143 726 135 Q 720 123 694 116 Q 669 109 543 144 Q 387 171 310 175 Q 309 175 309 176 C 300 178 306 202 315 204 Q 351 214 421 204 Q 445 200 473 197 C 490 194 490 194 499 193 Z"/>
    <path id="p3" d="M 309 176 Q 293 160 267 148 Q 248 138 235 142 Q 222 149 229 163 Q 250 202 243 277 Q 242 283 241 292 Q 226 479 176 606 Q 134 712 44 845 Q 38 852 36 858 Q 33 868 44 867 Q 86 861 180 708 Q 187 692 197 675 Q 272 522 294 320 Q 304 214 315 204 C 320 196 317 182 309 176 Z"/>
    <path id="p4" d="M 657 397 Q 664 366 673 346 C 685 320 685 320 691 307 Q 701 291 712 282 Q 727 266 714 251 Q 701 239 656 218 Q 640 211 622 218 Q 577 234 536 244 C 498 252 498 252 479 256 Q 427 263 374 267 Q 359 268 361 276 Q 362 283 378 289 Q 400 299 430 290 Q 452 286 475 283 C 508 277 508 277 525 274 Q 562 267 600 261 Q 622 257 630 266 Q 640 273 637 292 Q 636 304 633 317 C 629 338 629 338 627 349 Q 621 374 615 398 C 612 412 654 411 657 397 Z"/>
    <path id="p5" d="M 673 346 Q 715 343 823 342 Q 839 342 843 335 Q 847 326 834 315 Q 786 282 736 298 Q 714 301 691 307 C 652 314 652 314 633 317 Q 579 323 508 336 C 477 341 477 341 461 343 Q 388 350 310 362 Q 294 363 305 378 Q 332 402 360 393 Q 403 380 452 371 C 483 366 483 366 499 364 Q 526 355 627 349 C 658 347 658 347 673 346 Z"/>
    <path id="p6" d="M 463 461 Q 515 451 588 446 C 609 444 609 444 619 443 Q 647 440 683 438 Q 693 437 695 429 Q 696 420 666 400 Q 663 399 657 397 C 644 392 629 396 615 398 Q 542 414 478 425 C 447 430 447 430 432 432 Q 389 436 351 441 Q 332 442 343 461 Q 355 476 402 470 Q 408 469 417 468 C 448 463 448 463 463 461 Z"/>
    <path id="p7" d="M 417 552 Q 441 513 463 461 C 473 437 473 437 478 425 Q 488 397 499 364 C 505 345 505 345 508 336 Q 515 306 525 274 C 532 254 532 254 536 244 Q 536 243 537 243 Q 546 228 531 216 Q 512 200 499 193 C 492 188 471 188 473 197 Q 473 201 476 207 Q 482 229 479 256 C 476 274 476 274 475 283 Q 471 307 461 343 C 455 362 455 362 452 371 Q 445 392 438 417 Q 435 424 432 432 C 422 456 422 456 417 468 Q 354 588 233 661 Q 218 668 210 676 Q 207 682 217 684 Q 274 693 383 594 Q 386 590 390 586 C 408 563 408 563 417 552 Z"/>
    <path id="p8" d="M 588 446 Q 676 537 771 619 Q 792 638 826 638 Q 887 637 951 621 Q 967 618 968 614 Q 969 608 957 604 Q 741 541 632 453 Q 625 447 619 443 C 610 438 582 438 588 446 Z"/>
    <path id="p9" d="M 427 559 Q 423 555 417 552 C 405 545 390 572 390 586 Q 390 590 391 597 Q 392 682 382 723 Q 370 762 396 794 Q 405 804 412 793 Q 425 778 433 663 Q 434 603 437 584 C 439 575 434 564 427 559 Z"/>
    <path id="p10" d="M 603 734 Q 596 753 608 771 Q 618 795 626 793 Q 638 792 651 766 Q 663 745 661 728 Q 649 602 669 574 Q 678 561 671 552 Q 647 533 607 516 Q 594 512 574 519 Q 522 546 427 559 C 418 561 428 585 437 584 Q 444 584 522 568 Q 580 552 594 560 Q 600 573 603 608 Q 607 714 603 734 Z"/>
    <path id="p11" d="M 488 671 Q 491 819 408 877 Q 377 899 308 926 Q 298 929 294 931 Q 290 935 302 939 Q 381 948 472 879 Q 473 875 477 873 Q 523 819 534 712 Q 537 669 548 647 Q 552 638 545 631 Q 530 618 501 605 Q 485 596 470 601 Q 454 607 466 621 Q 488 646 488 671 Z"/>
    <path id="p12" d="M 574 840 Q 623 880 683 938 Q 699 956 714 959 Q 721 960 729 949 Q 739 936 725 895 Q 704 841 573 811 Q 564 807 563 819 Q 563 832 574 840 Z"/>

    <clipPath id="z36179c1"><use href="#p1"/></clipPath>
    <clipPath id="z36179c2"><use href="#p2"/></clipPath>
    <clipPath id="z36179c3"><use href="#p3"/></clipPath>
    <clipPath id="z36179c4"><use href="#p4"/></clipPath>
    <clipPath id="z36179c5"><use href="#p5"/></clipPath>
    <clipPath id="z36179c6"><use href="#p6"/></clipPath>
    <clipPath id="z36179c7"><use href="#p7"/></clipPath>
    <clipPath id="z36179c8"><use href="#p8"/></clipPath>
    <clipPath id="z36179c9"><use href="#p9"/></clipPath>
    <clipPath id="z36179c10"><use href="#p10"/></clipPath>
    <clipPath id="z36179c11"><use href="#p11"/></clipPath>
    <clipPath id="z36179c12"><use href="#p12"/></clipPath>
</defs>
<g id="bg-layer" class="bg">
<use href="#p1"/>
<use href="#p2"/>
<use href="#p3"/>
<use href="#p4"/>
<use href="#p5"/>
<use href="#p6"/>
<use href="#p7"/>
<use href="#p8"/>
<use href="#p9"/>
<use href="#p10"/>
<use href="#p11"/>
<use href="#p12"/>
</g>
<g id="anim-layer">
    <path id="stroke-p1" style="stroke:#FF4444" pathLength="3333" clip-path="url(#z36179c1)" d="M 448 46 L 559 114"/>
    <path id="stroke-p2" style="stroke:#FF4444" pathLength="3333" clip-path="url(#z36179c2)" d="M 316 178 L 395 187 L 720 135"/>
    <path id="stroke-p3" style="stroke:#FF4444" pathLength="3333" clip-path="url(#z36179c3)" d="M 233 150 L 278 204 L 229 523 L 159 699 L 44 860"/>
    <path id="stroke-p4" style="stroke:#FF4444" pathLength="3333" clip-path="url(#z36179c4)" d="M 369 275 L 641 240 L 679 274 L 626 394"/>
    <path id="stroke-p5" style="stroke:#FF4444" pathLength="3333" clip-path="url(#z36179c5)" d="M 310 369 L 749 319 L 839 327"/>
    <path id="stroke-p6" style="stroke:#FF4444" pathLength="3333" clip-path="url(#z36179c6)" d="M 346 450 L 685 423"/>
    <path id="stroke-p7" style="stroke:#FF4444" pathLength="3333" clip-path="url(#z36179c7)" d="M 481 200 L 510 234 L 422 501 L 325 618 L 218 677"/>
    <path id="stroke-p8" style="stroke:#FF4444" pathLength="3333" clip-path="url(#z36179c8)" d="M 597 447 L 800 592 L 961 613"/>
    <path id="stroke-p9" style="stroke:#000" pathLength="3333" clip-path="url(#z36179c9)" d="M 417 559 L 402 794"/>
    <path id="stroke-p10" style="stroke:#000" pathLength="3333" clip-path="url(#z36179c10)" d="M 435 560 L 580 537 L 623 551 L 621 787"/>
    <path id="stroke-p11" style="stroke:#000" pathLength="3333" clip-path="url(#z36179c11)" d="M 469 610 L 518 651 L 481 825 L 412 896 L 300 934"/>
    <path id="stroke-p12" style="stroke:#000" pathLength="3333" clip-path="url(#z36179c12)" d="M 569 818 L 688 897 L 709 954"/>
</g>
</svg>