<svg id="z36287" class="acjk" viewBox="0 0 1024 1024" xmlns="http://www.w3.org/2000/svg">
<style>
<![CDATA[
svg.acjk path[clip-path] {
    animation-duration: 10.5s;
    animation-timing-function: linear;
    animation-iteration-count: infinite;
    stroke-dasharray: 3337;
    stroke-dashoffset: 3339;
    stroke-width: 128;
    stroke-linecap: round;
    fill: none;
    stroke: #FF4444;
}
svg.acjk .bg { fill: #ccc; opacity: 0.5; }

/* Stroke 1: Starts at 0.0%, finishes at 7.6%, holds until 76.2% */
@keyframes zk1 {
    0%, 0.0% { stroke-dashoffset: 3339; }
    7.6%, 76.2% { stroke-dashoffset: 0; }
    76.3%, 100% { stroke-dashoffset: 3339; }
}
svg.acjk #stroke-p1 { animation-name: zk1; }
/* Stroke 2: Starts at 7.6%, finishes at 15.2%, holds until 76.2% */
@keyframes zk2 {
    0%, 7.6% { stroke-dashoffset: 3339; }
    15.2%, 76.2% { stroke-dashoffset: 0; }
    76.3%, 100% { stroke-dashoffset: 3339; }
}
svg.acjk #stroke-p2 { animation-name: zk2; }
/* Stroke 3: Starts at 15.2%, finishes at 22.9%, holds until 76.2% */
@keyframes zk3 {
    0%, 15.2% { stroke-dashoffset: 3339; }
    22.9%, 76.2% { stroke-dashoffset: 0; }
    76.3%, 100% { stroke-dashoffset: 3339; }
}
svg.acjk #stroke-p3 { animation-name: zk3; }
/* Stroke 4: Starts at 22.9%, finishes at 30.5%, holds until 76.2% */
@keyframes zk4 {
    0%, 22.9% { stroke-dashoffset: 3339; }
    30.5%, 76.2% { stroke-dashoffset: 0; }
    76.3%, 100% { stroke-dashoffset: 3339; }
}
svg.acjk #stroke-p4 { animation-name: zk4; }
/* Stroke 5: Starts at 30.5%, finishes at 38.1%, holds until 76.2% */
@keyframes zk5 {
    0%, 30.5% { stroke-dashoffset: 3339; }
    38.1%, 76.2% { stroke-dashoffset: 0; }
    76.3%, 100% { stroke-dashoffset: 3339; }
}
svg.acjk #stroke-p5 { animation-name: zk5; }
/* Stroke 6: Starts at 38.1%, finishes at 45.7%, holds until 76.2% */
@keyframes zk6 {
    0%, 38.1% { stroke-dashoffset: 3339; }
    45.7%, 76.2% { stroke-dashoffset: 0; }
    76.3%, 100% { stroke-dashoffset: 3339; }
}
svg.acjk #stroke-p6 { animation-name: zk6; }
/* Stroke 7: Starts at 45.7%, finishes at 53.3%, holds until 76.2% */
@keyframes zk7 {
    0%, 45.7% { stroke-dashoffset: 3339; }
    53.3%, 76.2% { stroke-dashoffset: 0; }
    76.3%, 100% { stroke-dashoffset: 3339; }
}
svg.acjk #stroke-p7 { animation-name: zk7; }
/* Stroke 8: Starts at 53.3%, finishes at 61.0%, holds until 76.2% */
@keyframes zk8 {
    0%, 53.3% { stroke-dashoffset: 3339; }
    61.0%, 76.2% { stroke-dashoffset: 0; }
    76.3%, 100% { stroke-dashoffset: 3339; }
}
svg.acjk #stroke-p8 { animation-name: zk8; }
/* Stroke 9: Starts at 61.0%, finishes at 68.6%, holds until 76.2% */
@keyframes zk9 {
    0%, 61.0% { stroke-dashoffset: 3339; }
    68.6%, 76.2% { stroke-dashoffset: 0; }
    76.3%, 100% { stroke-dashoffset: 3339; }
}
svg.acjk #stroke-p9 { animation-name: zk9; }
/* Stroke 10: Starts at 68.6%, finishes at 76.2%, holds until 76.2% */
@keyframes zk10 {
    0%, 68.6% { stroke-dashoffset: 3339; }
    76.2%, 76.2% { stroke-dashoffset: 0; }
    76.3%, 100% { stroke-dashoffset: 3339; }
}
svg.acjk #stroke-p10 { animation-name: zk10; }
]]>
</style>
<defs>
    <path id="p1" d="M 210 218 Q 200 212 170 208 Q 160 207 156 211 Q 152 215 159 230 Q 187 285 205 374 Q 209 401 225 418 Q 241 437 246 423 Q 250 410 248 389 C 245 370 245 370 243 360 Q 225 275 221 246 C 219 236 219 222 210 218 Z"/>
    <path id="p2" d="M 400 328 Q 416 255 438 231 Q 459 206 436 192 Q 417 182 389 165 Q 370 155 352 167 Q 313 194 210 218 C 200 220 211 248 221 246 Q 228 245 240 241 Q 286 228 327 217 Q 354 210 361 220 Q 368 226 362 257 Q 358 288 350 327 C 347 343 397 344 400 328 Z"/>
    <path id="p3" d="M 319 373 Q 356 363 412 355 Q 421 354 421 346 Q 421 339 400 328 C 386 319 365 321 350 327 Q 289 346 243 360 C 234 364 238 391 248 389 C 269 384 269 384 280 382 C 306 376 306 376 319 373 Z"/>
    <path id="p4" d="M 338 665 Q 339 592 342 531 C 343 511 343 511 344 501 Q 344 449 348 421 Q 355 397 319 373 C 308 365 273 371 280 382 Q 293 404 294 435 Q 295 460 295 680 C 295 695 338 680 338 665 Z"/>
    <path id="p5" d="M 342 531 Q 405 519 449 512 Q 471 506 461 495 Q 451 482 426 479 Q 399 478 344 501 C 335 505 332 533 342 531 Z"/>
    <path id="p6" d="M 231 701 Q 218 581 221 550 Q 222 528 208 518 Q 186 502 158 495 Q 145 491 137 498 Q 130 505 137 518 Q 156 546 166 578 Q 173 606 192 713 C 195 726 234 714 231 701 Z"/>
    <path id="p7" d="M 192 713 Q 110 737 81 739 Q 68 740 66 752 Q 65 765 74 774 Q 98 790 133 808 Q 143 811 155 802 Q 198 768 376 685 Q 401 672 421 657 Q 434 650 434 640 Q 428 634 416 637 Q 379 650 338 665 C 309 675 309 675 295 680 Q 262 690 231 701 C 205 709 205 709 192 713 Z"/>
    <path id="p8" d="M 532 292 Q 547 328 540 383 Q 507 576 465 665 Q 426 747 340 860 Q 336 866 333 871 Q 329 881 339 880 Q 381 873 465 753 Q 472 740 481 727 Q 521 655 553 556 C 556 545 556 545 558 540 Q 573 486 584 433 Q 596 363 606 341 Q 615 328 609 316 Q 596 298 570 284 C 559 277 527 280 532 292 Z"/>
    <path id="p9" d="M 682 717 Q 592 807 490 847 Q 466 854 468 858 Q 471 870 534 850 Q 624 823 712 756 C 737 731 737 731 749 718 Q 813 637 835 536 Q 848 496 871 478 Q 875 474 875 466 Q 872 445 823 419 Q 804 412 779 422 Q 770 429 741 436 Q 708 446 734 395 Q 806 269 816 265 Q 828 255 841 243 Q 845 231 804 208 Q 758 181 721 204 Q 633 243 491 259 Q 488 258 485 259 Q 464 260 465 271 Q 466 280 496 289 Q 509 293 532 292 C 557 287 557 287 570 284 Q 586 278 718 245 Q 734 241 738 249 Q 745 267 698 374 Q 682 399 665 416 Q 650 432 657 447 Q 664 462 674 470 Q 683 477 690 476 Q 696 476 710 469 Q 758 445 783 472 Q 793 484 780 522 Q 761 619 721 669 Q 717 675 712 682 C 692 705 692 705 682 717 Z"/>
    <path id="p10" d="M 553 556 Q 554 557 557 559 Q 605 598 681 715 C 682 716 682 716 682 717 C 702 743 702 743 712 756 Q 787 850 819 855 Q 898 864 963 861 Q 997 860 995 851 Q 992 842 841 780 Q 780 749 749 718 C 724 694 724 694 712 682 Q 669 636 626 582 Q 596 543 565 540 Q 561 539 558 540 C 552 540 549 553 553 556 Z"/>

    <clipPath id="z36287c1"><use href="#p1"/></clipPath>
    <clipPath id="z36287c2"><use href="#p2"/></clipPath>
    <clipPath id="z36287c3"><use href="#p3"/></clipPath>
    <clipPath id="z36287c4"><use href="#p4"/></clipPath>
    <clipPath id="z36287c5"><use href="#p5"/></clipPath>
    <clipPath id="z36287c6"><use href="#p6"/></clipPath>
    <clipPath id="z36287c7"><use href="#p7"/></clipPath>
    <clipPath id="z36287c8"><use href="#p8"/></clipPath>
    <clipPath id="z36287c9"><use href="#p9"/></clipPath>
    <clipPath id="z36287c10"><use href="#p10"/></clipPath>
</defs>
<g id="bg-layer" class="bg">
<use href="#p1"/>
<use href="#p2"/>
<use href="#p3"/>
<use href="#p4"/>
<use href="#p5"/>
<use href="#p6"/>
<use href="#p7"/>
<use href="#p8"/>
<use href="#p9"/>
<use href="#p10"/>
</g>
<g id="anim-layer">
    <path id="stroke-p1" style="stroke:#FF4444" pathLength="3333" clip-path="url(#z36287c1)" d="M 163 218 L 199 261 L 236 422"/>
    <path id="stroke-p2" style="stroke:#FF4444" pathLength="3333" clip-path="url(#z36287c2)" d="M 218 222 L 365 189 L 401 209 L 363 325"/>
    <path id="stroke-p3" style="stroke:#FF4444" pathLength="3333" clip-path="url(#z36287c3)" d="M 253 381 L 413 344"/>
    <path id="stroke-p4" style="stroke:#FF4444" pathLength="3333" clip-path="url(#z36287c4)" d="M 288 384 L 321 416 L 305 673"/>
    <path id="stroke-p5" style="stroke:#FF4444" pathLength="3333" clip-path="url(#z36287c5)" d="M 350 523 L 454 497"/>
    <path id="stroke-p6" style="stroke:#FF4444" pathLength="3333" clip-path="url(#z36287c6)" d="M 140 503 L 191 551 L 203 709"/>
    <path id="stroke-p7" style="stroke:#FF4444" pathLength="3333" clip-path="url(#z36287c7)" d="M 70 753 L 138 768 L 425 643"/>
    <path id="stroke-p8" style="stroke:#000" pathLength="3333" clip-path="url(#z36287c8)" d="M 540 298 L 576 337 L 505 625 L 443 748 L 339 873"/>
    <path id="stroke-p9" style="stroke:#000" pathLength="3333" clip-path="url(#z36287c9)" d="M 474 268 L 762 223 L 790 248 L 690 439 L 799 445 L 831 474 L 771 637 L 719 713 L 598 808 L 479 858"/>
    <path id="stroke-p10" style="stroke:#000" pathLength="3333" clip-path="url(#z36287c10)" d="M 564 543 L 798 799 L 989 850"/>
</g>
</svg>