<svg id="z36335" class="acjk" viewBox="0 0 1024 1024" xmlns="http://www.w3.org/2000/svg">
<style>
<![CDATA[
svg.acjk path[clip-path] {
    animation-duration: 12.9s;
    animation-timing-function: linear;
    animation-iteration-count: infinite;
    stroke-dasharray: 3337;
    stroke-dashoffset: 3339;
    stroke-width: 128;
    stroke-linecap: round;
    fill: none;
    stroke: #FF4444;
}
svg.acjk .bg { fill: #ccc; opacity: 0.5; }

/* Stroke 1: Starts at 0.0%, finishes at 6.2%, holds until 80.6% */
@keyframes zk1 {
    0%, 0.0% { stroke-dashoffset: 3339; }
    6.2%, 80.6% { stroke-dashoffset: 0; }
    80.7%, 100% { stroke-dashoffset: 3339; }
}
svg.acjk #stroke-p1 { animation-name: zk1; }
/* Stroke 2: Starts at 6.2%, finishes at 12.4%, holds until 80.6% */
@keyframes zk2 {
    0%, 6.2% { stroke-dashoffset: 3339; }
    12.4%, 80.6% { stroke-dashoffset: 0; }
    80.7%, 100% { stroke-dashoffset: 3339; }
}
svg.acjk #stroke-p2 { animation-name: zk2; }
/* Stroke 3: Starts at 12.4%, finishes at 18.6%, holds until 80.6% */
@keyframes zk3 {
    0%, 12.4% { stroke-dashoffset: 3339; }
    18.6%, 80.6% { stroke-dashoffset: 0; }
    80.7%, 100% { stroke-dashoffset: 3339; }
}
svg.acjk #stroke-p3 { animation-name: zk3; }
/* Stroke 4: Starts at 18.6%, finishes at 24.8%, holds until 80.6% */
@keyframes zk4 {
    0%, 18.6% { stroke-dashoffset: 3339; }
    24.8%, 80.6% { stroke-dashoffset: 0; }
    80.7%, 100% { stroke-dashoffset: 3339; }
}
svg.acjk #stroke-p4 { animation-name: zk4; }
/* Stroke 5: Starts at 24.8%, finishes at 31.0%, holds until 80.6% */
@keyframes zk5 {
    0%, 24.8% { stroke-dashoffset: 3339; }
    31.0%, 80.6% { stroke-dashoffset: 0; }
    80.7%, 100% { stroke-dashoffset: 3339; }
}
svg.acjk #stroke-p5 { animation-name: zk5; }
/* Stroke 6: Starts at 31.0%, finishes at 37.2%, holds until 80.6% */
@keyframes zk6 {
    0%, 31.0% { stroke-dashoffset: 3339; }
    37.2%, 80.6% { stroke-dashoffset: 0; }
    80.7%, 100% { stroke-dashoffset: 3339; }
}
svg.acjk #stroke-p6 { animation-name: zk6; }
/* Stroke 7: Starts at 37.2%, finishes at 43.4%, holds until 80.6% */
@keyframes zk7 {
    0%, 37.2% { stroke-dashoffset: 3339; }
    43.4%, 80.6% { stroke-dashoffset: 0; }
    80.7%, 100% { stroke-dashoffset: 3339; }
}
svg.acjk #stroke-p7 { animation-name: zk7; }
/* Stroke 8: Starts at 43.4%, finishes at 49.6%, holds until 80.6% */
@keyframes zk8 {
    0%, 43.4% { stroke-dashoffset: 3339; }
    49.6%, 80.6% { stroke-dashoffset: 0; }
    80.7%, 100% { stroke-dashoffset: 3339; }
}
svg.acjk #stroke-p8 { animation-name: zk8; }
/* Stroke 9: Starts at 49.6%, finishes at 55.8%, holds until 80.6% */
@keyframes zk9 {
    0%, 49.6% { stroke-dashoffset: 3339; }
    55.8%, 80.6% { stroke-dashoffset: 0; }
    80.7%, 100% { stroke-dashoffset: 3339; }
}
svg.acjk #stroke-p9 { animation-name: zk9; }
/* Stroke 10: Starts at 55.8%, finishes at 62.0%, holds until 80.6% */
@keyframes zk10 {
    0%, 55.8% { stroke-dashoffset: 3339; }
    62.0%, 80.6% { stroke-dashoffset: 0; }
    80.7%, 100% { stroke-dashoffset: 3339; }
}
svg.acjk #stroke-p10 { animation-name: zk10; }
/* Stroke 11: Starts at 62.0%, finishes at 68.2%, holds until 80.6% */
@keyframes zk11 {
    0%, 62.0% { stroke-dashoffset: 3339; }
    68.2%, 80.6% { stroke-dashoffset: 0; }
    80.7%, 100% { stroke-dashoffset: 3339; }
}
svg.acjk #stroke-p11 { animation-name: zk11; }
/* Stroke 12: Starts at 68.2%, finishes at 74.4%, holds until 80.6% */
@keyframes zk12 {
    0%, 68.2% { stroke-dashoffset: 3339; }
    74.4%, 80.6% { stroke-dashoffset: 0; }
    80.7%, 100% { stroke-dashoffset: 3339; }
}
svg.acjk #stroke-p12 { animation-name: zk12; }
/* Stroke 13: Starts at 74.4%, finishes at 80.6%, holds until 80.6% */
@keyframes zk13 {
    0%, 74.4% { stroke-dashoffset: 3339; }
    80.6%, 80.6% { stroke-dashoffset: 0; }
    80.7%, 100% { stroke-dashoffset: 3339; }
}
svg.acjk #stroke-p13 { animation-name: zk13; }
]]>
</style>
<defs>
    <path id="p1" d="M 195 198 C 187 194 174 190 157 187 C 148 184 143 185 141 188 C 136 192 136 199 142 210 C 158 244 171 290 179 349 C 181 365 186 380 196 392 C 212 412 220 404 223 382 C 224 372 224 361 223 352 C 220 329 214 296 210 226 C 210 215 205 202 195 198 Z"/>
    <path id="p2" d="M 385 325 C 399 272 415 239 432 225 C 449 209 449 193 433 183 C 392 156 369 145 363 146 C 357 146 351 147 347 151 C 316 169 265 185 195 198 C 185 200 200 229 210 226 C 210 224 245 216 315 202 C 355 193 358 218 351 245 C 344 268 338 295 330 324 C 326 342 381 343 385 325 Z"/>
    <path id="p3" d="M 297 367 C 321 361 354 355 395 351 C 400 350 404 347 405 342 C 405 338 398 332 385 325 C 369 316 348 320 330 324 C 289 334 253 344 223 352 C 213 354 213 384 223 382 C 234 380 245 378 255 376 C 283 370 283 370 297 367 Z"/>
    <path id="p4" d="M 311 639 C 313 590 315 546 318 506 C 319 483 319 483 320 472 C 324 389 339 395 297 367 C 286 358 250 362 255 376 C 271 425 267 553 267 656 C 267 672 311 655 311 639 Z"/>
    <path id="p5" d="M 416 491 C 432 488 436 479 430 472 C 421 461 408 455 390 455 C 374 454 350 460 320 472 C 309 476 307 508 318 506 C 383 496 383 496 416 491 Z"/>
    <path id="p6" d="M 199 680 C 193 607 192 559 195 535 C 196 520 191 509 183 503 C 168 492 152 483 134 478 C 125 475 117 475 112 480 C 107 483 106 491 112 501 C 121 518 131 535 137 555 C 141 573 148 619 160 693 C 163 706 199 694 199 680 Z"/>
    <path id="p7" d="M 160 693 C 114 708 84 714 71 715 C 62 715 56 719 56 728 C 54 736 57 744 65 750 C 81 760 101 771 125 782 C 131 784 139 782 148 775 C 168 757 236 719 352 657 C 363 650 412 623 406 611 C 402 603 368 616 311 639 C 282 650 282 650 267 656 C 244 664 222 672 199 680 C 173 689 173 689 160 693 Z"/>
    <path id="p8" d="M 575 238 C 596 203 628 139 635 132 C 640 124 640 116 637 108 C 634 100 622 89 602 77 C 584 66 569 63 557 65 C 545 67 541 74 549 88 C 557 102 559 116 556 130 C 543 174 528 218 507 262 C 486 302 461 346 431 394 C 426 400 422 406 421 411 C 419 417 424 420 432 418 C 440 415 464 398 494 358 C 503 346 503 346 507 340 C 518 323 538 296 563 257 C 571 244 571 244 575 238 Z"/>
    <path id="p9" d="M 442 670 C 510 618 572 555 626 481 C 643 458 643 458 651 446 C 679 405 708 361 738 315 C 750 296 768 276 792 256 C 801 247 803 241 801 235 C 798 228 778 218 736 203 C 726 199 709 205 678 215 C 624 231 589 235 575 238 C 568 239 557 253 563 257 C 581 271 611 270 654 258 C 670 253 682 254 687 262 C 693 273 669 326 613 414 C 600 435 600 435 593 445 C 529 543 444 625 357 706 C 347 714 348 718 358 718 C 364 717 392 707 434 676 C 439 672 439 672 442 670 Z"/>
    <path id="p10" d="M 626 481 C 684 544 739 599 789 648 C 801 660 817 666 835 664 C 935 649 987 636 993 626 C 995 621 993 618 986 616 C 875 585 792 551 738 513 C 711 494 682 472 651 446 C 626 425 626 425 613 414 C 592 396 571 375 550 355 C 538 344 524 337 507 340 C 500 341 487 355 494 358 C 518 366 549 397 593 445 C 615 469 615 469 626 481 Z"/>
    <path id="p11" d="M 493 682 C 470 670 453 666 442 670 C 439 671 434 673 434 676 C 433 680 435 686 439 695 C 457 736 473 791 481 860 C 483 880 488 897 500 912 C 512 926 519 928 523 919 C 526 908 528 895 527 879 C 525 867 524 854 523 843 C 515 791 507 735 506 714 C 506 702 503 687 493 682 Z"/>
    <path id="p12" d="M 746 820 C 764 764 785 730 805 714 C 817 703 817 687 807 676 C 797 665 773 653 737 636 C 724 629 710 630 696 636 C 646 654 578 669 493 682 C 482 684 495 716 506 714 C 563 702 627 693 678 684 C 704 678 716 698 713 718 C 707 752 699 784 692 813 C 688 831 739 837 746 820 Z"/>
    <path id="p13" d="M 527 879 C 540 878 692 860 758 856 C 766 855 770 852 771 846 C 771 841 762 832 746 820 C 730 811 710 810 692 813 C 646 821 575 836 523 843 C 511 845 515 879 527 879 Z"/>

    <clipPath id="z36335c1"><use href="#p1"/></clipPath>
    <clipPath id="z36335c2"><use href="#p2"/></clipPath>
    <clipPath id="z36335c3"><use href="#p3"/></clipPath>
    <clipPath id="z36335c4"><use href="#p4"/></clipPath>
    <clipPath id="z36335c5"><use href="#p5"/></clipPath>
    <clipPath id="z36335c6"><use href="#p6"/></clipPath>
    <clipPath id="z36335c7"><use href="#p7"/></clipPath>
    <clipPath id="z36335c8"><use href="#p8"/></clipPath>
    <clipPath id="z36335c9"><use href="#p9"/></clipPath>
    <clipPath id="z36335c10"><use href="#p10"/></clipPath>
    <clipPath id="z36335c11"><use href="#p11"/></clipPath>
    <clipPath id="z36335c12"><use href="#p12"/></clipPath>
    <clipPath id="z36335c13"><use href="#p13"/></clipPath>
</defs>
<g id="bg-layer" class="bg">
<use href="#p1"/>
<use href="#p2"/>
<use href="#p3"/>
<use href="#p4"/>
<use href="#p5"/>
<use href="#p6"/>
<use href="#p7"/>
<use href="#p8"/>
<use href="#p9"/>
<use href="#p10"/>
<use href="#p11"/>
<use href="#p12"/>
<use href="#p13"/>
</g>
<g id="anim-layer">
    <path id="stroke-p1" style="stroke:#FF4444" pathLength="3333" clip-path="url(#z36335c1)" d="M 144 193 L 182 230 L 204 398"/>
    <path id="stroke-p2" style="stroke:#FF4444" pathLength="3333" clip-path="url(#z36335c2)" d="M 199 203 L 358 176 L 391 197 L 341 333"/>
    <path id="stroke-p3" style="stroke:#FF4444" pathLength="3333" clip-path="url(#z36335c3)" d="M 218 372 L 400 342"/>
    <path id="stroke-p4" style="stroke:#FF4444" pathLength="3333" clip-path="url(#z36335c4)" d="M 261 373 L 294 406 L 279 658"/>
    <path id="stroke-p5" style="stroke:#FF4444" pathLength="3333" clip-path="url(#z36335c5)" d="M 316 496 L 427 478"/>
    <path id="stroke-p6" style="stroke:#FF4444" pathLength="3333" clip-path="url(#z36335c6)" d="M 113 484 L 164 532 L 176 695"/>
    <path id="stroke-p7" style="stroke:#FF4444" pathLength="3333" clip-path="url(#z36335c7)" d="M 62 728 L 136 741 L 396 614"/>
    <path id="stroke-p8" style="stroke:#000" pathLength="3333" clip-path="url(#z36335c8)" d="M 553 74 L 596 128 L 527 272 L 427 411"/>
    <path id="stroke-p9" style="stroke:#000" pathLength="3333" clip-path="url(#z36335c9)" d="M 565 251 L 704 230 L 745 261 L 548 542 L 356 712"/>
    <path id="stroke-p10" style="stroke:#000" pathLength="3333" clip-path="url(#z36335c10)" d="M 500 351 L 819 611 L 987 624"/>
    <path id="stroke-p11" style="stroke:#000" pathLength="3333" clip-path="url(#z36335c11)" d="M 440 678 L 477 712 L 511 919"/>
    <path id="stroke-p12" style="stroke:#000" pathLength="3333" clip-path="url(#z36335c12)" d="M 496 690 L 725 664 L 763 699 L 711 826"/>
    <path id="stroke-p13" style="stroke:#000" pathLength="3333" clip-path="url(#z36335c13)" d="M 518 862 L 715 835 L 766 846"/>
</g>
</svg>