<svg id="z36394" class="acjk" viewBox="0 0 1024 1024" xmlns="http://www.w3.org/2000/svg">
<style>
<![CDATA[
svg.acjk path[clip-path] {
    animation-duration: 14.5s;
    animation-timing-function: linear;
    animation-iteration-count: infinite;
    stroke-dasharray: 3337;
    stroke-dashoffset: 3339;
    stroke-width: 128;
    stroke-linecap: round;
    fill: none;
    stroke: #FF4444;
}
svg.acjk .bg { fill: #ccc; opacity: 0.5; }

/* Stroke 1: Starts at 0.0%, finishes at 5.5%, holds until 82.8% */
@keyframes zk1 {
    0%, 0.0% { stroke-dashoffset: 3339; }
    5.5%, 82.8% { stroke-dashoffset: 0; }
    82.9%, 100% { stroke-dashoffset: 3339; }
}
svg.acjk #stroke-p1 { animation-name: zk1; }
/* Stroke 2: Starts at 5.5%, finishes at 11.0%, holds until 82.8% */
@keyframes zk2 {
    0%, 5.5% { stroke-dashoffset: 3339; }
    11.0%, 82.8% { stroke-dashoffset: 0; }
    82.9%, 100% { stroke-dashoffset: 3339; }
}
svg.acjk #stroke-p2 { animation-name: zk2; }
/* Stroke 3: Starts at 11.0%, finishes at 16.6%, holds until 82.8% */
@keyframes zk3 {
    0%, 11.0% { stroke-dashoffset: 3339; }
    16.6%, 82.8% { stroke-dashoffset: 0; }
    82.9%, 100% { stroke-dashoffset: 3339; }
}
svg.acjk #stroke-p3 { animation-name: zk3; }
/* Stroke 4: Starts at 16.6%, finishes at 22.1%, holds until 82.8% */
@keyframes zk4 {
    0%, 16.6% { stroke-dashoffset: 3339; }
    22.1%, 82.8% { stroke-dashoffset: 0; }
    82.9%, 100% { stroke-dashoffset: 3339; }
}
svg.acjk #stroke-p4 { animation-name: zk4; }
/* Stroke 5: Starts at 22.1%, finishes at 27.6%, holds until 82.8% */
@keyframes zk5 {
    0%, 22.1% { stroke-dashoffset: 3339; }
    27.6%, 82.8% { stroke-dashoffset: 0; }
    82.9%, 100% { stroke-dashoffset: 3339; }
}
svg.acjk #stroke-p5 { animation-name: zk5; }
/* Stroke 6: Starts at 27.6%, finishes at 33.1%, holds until 82.8% */
@keyframes zk6 {
    0%, 27.6% { stroke-dashoffset: 3339; }
    33.1%, 82.8% { stroke-dashoffset: 0; }
    82.9%, 100% { stroke-dashoffset: 3339; }
}
svg.acjk #stroke-p6 { animation-name: zk6; }
/* Stroke 7: Starts at 33.1%, finishes at 38.6%, holds until 82.8% */
@keyframes zk7 {
    0%, 33.1% { stroke-dashoffset: 3339; }
    38.6%, 82.8% { stroke-dashoffset: 0; }
    82.9%, 100% { stroke-dashoffset: 3339; }
}
svg.acjk #stroke-p7 { animation-name: zk7; }
/* Stroke 8: Starts at 38.6%, finishes at 44.1%, holds until 82.8% */
@keyframes zk8 {
    0%, 38.6% { stroke-dashoffset: 3339; }
    44.1%, 82.8% { stroke-dashoffset: 0; }
    82.9%, 100% { stroke-dashoffset: 3339; }
}
svg.acjk #stroke-p8 { animation-name: zk8; }
/* Stroke 9: Starts at 44.1%, finishes at 49.7%, holds until 82.8% */
@keyframes zk9 {
    0%, 44.1% { stroke-dashoffset: 3339; }
    49.7%, 82.8% { stroke-dashoffset: 0; }
    82.9%, 100% { stroke-dashoffset: 3339; }
}
svg.acjk #stroke-p9 { animation-name: zk9; }
/* Stroke 10: Starts at 49.7%, finishes at 55.2%, holds until 82.8% */
@keyframes zk10 {
    0%, 49.7% { stroke-dashoffset: 3339; }
    55.2%, 82.8% { stroke-dashoffset: 0; }
    82.9%, 100% { stroke-dashoffset: 3339; }
}
svg.acjk #stroke-p10 { animation-name: zk10; }
/* Stroke 11: Starts at 55.2%, finishes at 60.7%, holds until 82.8% */
@keyframes zk11 {
    0%, 55.2% { stroke-dashoffset: 3339; }
    60.7%, 82.8% { stroke-dashoffset: 0; }
    82.9%, 100% { stroke-dashoffset: 3339; }
}
svg.acjk #stroke-p11 { animation-name: zk11; }
/* Stroke 12: Starts at 60.7%, finishes at 66.2%, holds until 82.8% */
@keyframes zk12 {
    0%, 60.7% { stroke-dashoffset: 3339; }
    66.2%, 82.8% { stroke-dashoffset: 0; }
    82.9%, 100% { stroke-dashoffset: 3339; }
}
svg.acjk #stroke-p12 { animation-name: zk12; }
/* Stroke 13: Starts at 66.2%, finishes at 71.7%, holds until 82.8% */
@keyframes zk13 {
    0%, 66.2% { stroke-dashoffset: 3339; }
    71.7%, 82.8% { stroke-dashoffset: 0; }
    82.9%, 100% { stroke-dashoffset: 3339; }
}
svg.acjk #stroke-p13 { animation-name: zk13; }
/* Stroke 14: Starts at 71.7%, finishes at 77.2%, holds until 82.8% */
@keyframes zk14 {
    0%, 71.7% { stroke-dashoffset: 3339; }
    77.2%, 82.8% { stroke-dashoffset: 0; }
    82.9%, 100% { stroke-dashoffset: 3339; }
}
svg.acjk #stroke-p14 { animation-name: zk14; }
/* Stroke 15: Starts at 77.2%, finishes at 82.8%, holds until 82.8% */
@keyframes zk15 {
    0%, 77.2% { stroke-dashoffset: 3339; }
    82.8%, 82.8% { stroke-dashoffset: 0; }
    82.9%, 100% { stroke-dashoffset: 3339; }
}
svg.acjk #stroke-p15 { animation-name: zk15; }
]]>
</style>
<defs>
    <path id="p1" d="M 183 233 Q 173 227 145 224 Q 135 221 131 226 Q 125 232 133 247 Q 158 298 175 383 Q 178 408 193 425 Q 209 446 214 431 Q 217 422 218 409 C 220 399 215 390 215 380 Q 215 379 215 376 Q 200 282 197 258 C 195 249 192 237 183 233 Z"/>
    <path id="p2" d="M 355 352 Q 373 273 395 250 Q 416 226 394 213 Q 375 203 350 186 Q 332 176 290 201 Q 239 220 183 233 C 174 235 188 260 197 258 Q 204 257 213 254 Q 256 242 292 234 Q 316 228 322 238 Q 329 244 322 277 Q 316 311 307 351 C 304 367 352 368 355 352 Z"/>
    <path id="p3" d="M 275 396 Q 311 387 368 379 Q 377 378 377 370 Q 377 363 355 352 C 340 346 322 346 307 351 Q 256 367 215 380 C 206 384 208 409 218 409 Q 224 409 238 406 C 263 399 263 399 275 396 Z"/>
    <path id="p4" d="M 297 693 Q 298 611 300 542 C 301 519 301 519 301 508 Q 301 475 303 442 Q 312 420 275 396 C 264 389 234 394 238 406 Q 250 427 254 533 Q 254 596 256 708 C 256 723 297 708 297 693 Z"/>
    <path id="p5" d="M 300 542 Q 349 532 386 524 Q 407 518 398 507 Q 386 494 362 493 Q 340 492 302 507 Q 301 507 301 508 C 291 513 289 544 300 542 Z"/>
    <path id="p6" d="M 204 724 Q 189 592 193 557 Q 194 538 181 527 Q 160 514 137 506 Q 124 502 117 509 Q 110 513 117 527 Q 135 555 144 585 Q 151 615 169 735 C 171 747 206 736 204 724 Z"/>
    <path id="p7" d="M 169 735 Q 150 739 132 747 Q 114 753 84 753 Q 71 754 70 765 Q 69 778 78 786 Q 100 802 134 819 Q 144 822 156 813 Q 190 785 230 765 Q 291 737 350 706 Q 372 694 389 681 Q 402 674 402 664 Q 396 658 384 662 Q 342 677 297 693 C 270 703 270 703 256 708 Q 231 715 204 724 C 181 731 181 731 169 735 Z"/>
    <path id="p8" d="M 585 147 Q 610 169 637 194 Q 652 207 668 206 Q 680 206 685 191 Q 689 175 679 145 Q 669 118 579 97 Q 563 94 556 97 Q 550 101 553 115 Q 557 125 585 147 Z"/>
    <path id="p9" d="M 486 298 Q 473 271 456 262 Q 453 258 448 261 Q 444 265 442 275 Q 446 309 417 371 Q 408 387 409 403 Q 413 422 421 435 Q 428 445 433 438 Q 445 435 460 389 Q 475 344 485 324 C 488 316 490 306 486 298 Z"/>
    <path id="p10" d="M 485 324 Q 504 333 550 321 Q 668 281 763 271 Q 769 270 774 271 Q 790 283 787 290 Q 787 293 767 359 Q 763 372 769 375 Q 776 378 789 366 Q 834 327 873 311 Q 904 298 903 289 Q 900 282 834 240 Q 815 228 744 244 Q 620 265 486 298 C 477 299 477 321 485 324 Z"/>
    <path id="p11" d="M 522 437 Q 485 447 514 461 Q 559 480 614 463 Q 728 430 738 425 Q 745 416 740 408 Q 733 396 702 392 Q 671 388 641 403 Q 584 425 522 437 Z"/>
    <path id="p12" d="M 620 586 Q 653 577 819 552 Q 829 553 837 541 Q 838 531 816 520 Q 782 502 710 525 Q 620 546 440 577 Q 412 581 434 597 Q 467 621 492 614 Q 538 602 593 591 C 611 588 611 588 620 586 Z"/>
    <path id="p13" d="M 593 591 Q 592 595 596 604 Q 609 638 609 745 Q 609 803 603 816 Q 599 829 576 825 Q 554 821 532 818 Q 520 817 519 823 Q 518 830 528 838 Q 585 887 603 916 Q 616 929 627 927 Q 637 923 649 890 Q 665 857 663 797 Q 659 703 661 669 Q 668 629 651 609 Q 633 593 620 586 C 612 581 593 582 593 591 Z"/>
    <path id="p14" d="M 469 670 Q 445 713 414 751 Q 392 781 407 811 Q 411 827 432 819 Q 454 806 469 778 Q 485 750 487 725 Q 494 695 490 672 Q 486 665 481 663 Q 474 663 469 670 Z"/>
    <path id="p15" d="M 742 675 Q 791 718 852 782 Q 868 803 885 807 Q 894 808 901 797 Q 914 784 899 739 Q 889 699 820 671 Q 796 659 742 643 Q 733 639 731 651 Q 731 664 742 675 Z"/>

    <clipPath id="z36394c1"><use href="#p1"/></clipPath>
    <clipPath id="z36394c2"><use href="#p2"/></clipPath>
    <clipPath id="z36394c3"><use href="#p3"/></clipPath>
    <clipPath id="z36394c4"><use href="#p4"/></clipPath>
    <clipPath id="z36394c5"><use href="#p5"/></clipPath>
    <clipPath id="z36394c6"><use href="#p6"/></clipPath>
    <clipPath id="z36394c7"><use href="#p7"/></clipPath>
    <clipPath id="z36394c8"><use href="#p8"/></clipPath>
    <clipPath id="z36394c9"><use href="#p9"/></clipPath>
    <clipPath id="z36394c10"><use href="#p10"/></clipPath>
    <clipPath id="z36394c11"><use href="#p11"/></clipPath>
    <clipPath id="z36394c12"><use href="#p12"/></clipPath>
    <clipPath id="z36394c13"><use href="#p13"/></clipPath>
    <clipPath id="z36394c14"><use href="#p14"/></clipPath>
    <clipPath id="z36394c15"><use href="#p15"/></clipPath>
</defs>
<g id="bg-layer" class="bg">
<use href="#p1"/>
<use href="#p2"/>
<use href="#p3"/>
<use href="#p4"/>
<use href="#p5"/>
<use href="#p6"/>
<use href="#p7"/>
<use href="#p8"/>
<use href="#p9"/>
<use href="#p10"/>
<use href="#p11"/>
<use href="#p12"/>
<use href="#p13"/>
<use href="#p14"/>
<use href="#p15"/>
</g>
<g id="anim-layer">
    <path id="stroke-p1" style="stroke:#FF4444" pathLength="3333" clip-path="url(#z36394c1)" d="M 136 232 L 170 263 L 209 429"/>
    <path id="stroke-p2" style="stroke:#FF4444" pathLength="3333" clip-path="url(#z36394c2)" d="M 192 238 L 323 208 L 352 222 L 364 243 L 320 350"/>
    <path id="stroke-p3" style="stroke:#FF4444" pathLength="3333" clip-path="url(#z36394c3)" d="M 225 401 L 304 371 L 370 373"/>
    <path id="stroke-p4" style="stroke:#FF4444" pathLength="3333" clip-path="url(#z36394c4)" d="M 247 412 L 276 443 L 269 702"/>
    <path id="stroke-p5" style="stroke:#FF4444" pathLength="3333" clip-path="url(#z36394c5)" d="M 304 533 L 392 509"/>
    <path id="stroke-p6" style="stroke:#FF4444" pathLength="3333" clip-path="url(#z36394c6)" d="M 119 514 L 164 554 L 180 731"/>
    <path id="stroke-p7" style="stroke:#FF4444" pathLength="3333" clip-path="url(#z36394c7)" d="M 74 766 L 141 782 L 395 668"/>
    <path id="stroke-p8" style="stroke:#000" pathLength="3333" clip-path="url(#z36394c8)" d="M 559 105 L 649 159 L 669 201"/>
    <path id="stroke-p9" style="stroke:#000" pathLength="3333" clip-path="url(#z36394c9)" d="M 452 266 L 460 323 L 424 432"/>
    <path id="stroke-p10" style="stroke:#000" pathLength="3333" clip-path="url(#z36394c10)" d="M 488 317 L 783 255 L 848 298 L 770 370"/>
    <path id="stroke-p11" style="stroke:#000" pathLength="3333" clip-path="url(#z36394c11)" d="M 510 449 L 736 411"/>
    <path id="stroke-p12" style="stroke:#000" pathLength="3333" clip-path="url(#z36394c12)" d="M 432 587 L 831 536"/>
    <path id="stroke-p13" style="stroke:#000" pathLength="3333" clip-path="url(#z36394c13)" d="M 601 594 L 633 637 L 628 848 L 601 875 L 528 825"/>
    <path id="stroke-p14" style="stroke:#000" pathLength="3333" clip-path="url(#z36394c14)" d="M 481 669 L 409 812"/>
    <path id="stroke-p15" style="stroke:#000" pathLength="3333" clip-path="url(#z36394c15)" d="M 738 648 L 853 731 L 891 800"/>
</g>
</svg>