<svg id="z36450" class="acjk" viewBox="0 0 1024 1024" xmlns="http://www.w3.org/2000/svg">
<style>
<![CDATA[
svg.acjk path[clip-path] {
    animation-duration: 16.9s;
    animation-timing-function: linear;
    animation-iteration-count: infinite;
    stroke-dasharray: 3337;
    stroke-dashoffset: 3339;
    stroke-width: 128;
    stroke-linecap: round;
    fill: none;
    stroke: #FF4444;
}
svg.acjk .bg { fill: #ccc; opacity: 0.5; }

/* Stroke 1: Starts at 0.0%, finishes at 4.7%, holds until 85.2% */
@keyframes zk1 {
    0%, 0.0% { stroke-dashoffset: 3339; }
    4.7%, 85.2% { stroke-dashoffset: 0; }
    85.3%, 100% { stroke-dashoffset: 3339; }
}
svg.acjk #stroke-p1 { animation-name: zk1; }
/* Stroke 2: Starts at 4.7%, finishes at 9.5%, holds until 85.2% */
@keyframes zk2 {
    0%, 4.7% { stroke-dashoffset: 3339; }
    9.5%, 85.2% { stroke-dashoffset: 0; }
    85.3%, 100% { stroke-dashoffset: 3339; }
}
svg.acjk #stroke-p2 { animation-name: zk2; }
/* Stroke 3: Starts at 9.5%, finishes at 14.2%, holds until 85.2% */
@keyframes zk3 {
    0%, 9.5% { stroke-dashoffset: 3339; }
    14.2%, 85.2% { stroke-dashoffset: 0; }
    85.3%, 100% { stroke-dashoffset: 3339; }
}
svg.acjk #stroke-p3 { animation-name: zk3; }
/* Stroke 4: Starts at 14.2%, finishes at 18.9%, holds until 85.2% */
@keyframes zk4 {
    0%, 14.2% { stroke-dashoffset: 3339; }
    18.9%, 85.2% { stroke-dashoffset: 0; }
    85.3%, 100% { stroke-dashoffset: 3339; }
}
svg.acjk #stroke-p4 { animation-name: zk4; }
/* Stroke 5: Starts at 18.9%, finishes at 23.7%, holds until 85.2% */
@keyframes zk5 {
    0%, 18.9% { stroke-dashoffset: 3339; }
    23.7%, 85.2% { stroke-dashoffset: 0; }
    85.3%, 100% { stroke-dashoffset: 3339; }
}
svg.acjk #stroke-p5 { animation-name: zk5; }
/* Stroke 6: Starts at 23.7%, finishes at 28.4%, holds until 85.2% */
@keyframes zk6 {
    0%, 23.7% { stroke-dashoffset: 3339; }
    28.4%, 85.2% { stroke-dashoffset: 0; }
    85.3%, 100% { stroke-dashoffset: 3339; }
}
svg.acjk #stroke-p6 { animation-name: zk6; }
/* Stroke 7: Starts at 28.4%, finishes at 33.1%, holds until 85.2% */
@keyframes zk7 {
    0%, 28.4% { stroke-dashoffset: 3339; }
    33.1%, 85.2% { stroke-dashoffset: 0; }
    85.3%, 100% { stroke-dashoffset: 3339; }
}
svg.acjk #stroke-p7 { animation-name: zk7; }
/* Stroke 8: Starts at 33.1%, finishes at 37.9%, holds until 85.2% */
@keyframes zk8 {
    0%, 33.1% { stroke-dashoffset: 3339; }
    37.9%, 85.2% { stroke-dashoffset: 0; }
    85.3%, 100% { stroke-dashoffset: 3339; }
}
svg.acjk #stroke-p8 { animation-name: zk8; }
/* Stroke 9: Starts at 37.9%, finishes at 42.6%, holds until 85.2% */
@keyframes zk9 {
    0%, 37.9% { stroke-dashoffset: 3339; }
    42.6%, 85.2% { stroke-dashoffset: 0; }
    85.3%, 100% { stroke-dashoffset: 3339; }
}
svg.acjk #stroke-p9 { animation-name: zk9; }
/* Stroke 10: Starts at 42.6%, finishes at 47.3%, holds until 85.2% */
@keyframes zk10 {
    0%, 42.6% { stroke-dashoffset: 3339; }
    47.3%, 85.2% { stroke-dashoffset: 0; }
    85.3%, 100% { stroke-dashoffset: 3339; }
}
svg.acjk #stroke-p10 { animation-name: zk10; }
/* Stroke 11: Starts at 47.3%, finishes at 52.1%, holds until 85.2% */
@keyframes zk11 {
    0%, 47.3% { stroke-dashoffset: 3339; }
    52.1%, 85.2% { stroke-dashoffset: 0; }
    85.3%, 100% { stroke-dashoffset: 3339; }
}
svg.acjk #stroke-p11 { animation-name: zk11; }
/* Stroke 12: Starts at 52.1%, finishes at 56.8%, holds until 85.2% */
@keyframes zk12 {
    0%, 52.1% { stroke-dashoffset: 3339; }
    56.8%, 85.2% { stroke-dashoffset: 0; }
    85.3%, 100% { stroke-dashoffset: 3339; }
}
svg.acjk #stroke-p12 { animation-name: zk12; }
/* Stroke 13: Starts at 56.8%, finishes at 61.5%, holds until 85.2% */
@keyframes zk13 {
    0%, 56.8% { stroke-dashoffset: 3339; }
    61.5%, 85.2% { stroke-dashoffset: 0; }
    85.3%, 100% { stroke-dashoffset: 3339; }
}
svg.acjk #stroke-p13 { animation-name: zk13; }
/* Stroke 14: Starts at 61.5%, finishes at 66.3%, holds until 85.2% */
@keyframes zk14 {
    0%, 61.5% { stroke-dashoffset: 3339; }
    66.3%, 85.2% { stroke-dashoffset: 0; }
    85.3%, 100% { stroke-dashoffset: 3339; }
}
svg.acjk #stroke-p14 { animation-name: zk14; }
/* Stroke 15: Starts at 66.3%, finishes at 71.0%, holds until 85.2% */
@keyframes zk15 {
    0%, 66.3% { stroke-dashoffset: 3339; }
    71.0%, 85.2% { stroke-dashoffset: 0; }
    85.3%, 100% { stroke-dashoffset: 3339; }
}
svg.acjk #stroke-p15 { animation-name: zk15; }
/* Stroke 16: Starts at 71.0%, finishes at 75.7%, holds until 85.2% */
@keyframes zk16 {
    0%, 71.0% { stroke-dashoffset: 3339; }
    75.7%, 85.2% { stroke-dashoffset: 0; }
    85.3%, 100% { stroke-dashoffset: 3339; }
}
svg.acjk #stroke-p16 { animation-name: zk16; }
/* Stroke 17: Starts at 75.7%, finishes at 80.5%, holds until 85.2% */
@keyframes zk17 {
    0%, 75.7% { stroke-dashoffset: 3339; }
    80.5%, 85.2% { stroke-dashoffset: 0; }
    85.3%, 100% { stroke-dashoffset: 3339; }
}
svg.acjk #stroke-p17 { animation-name: zk17; }
/* Stroke 18: Starts at 80.5%, finishes at 85.2%, holds until 85.2% */
@keyframes zk18 {
    0%, 80.5% { stroke-dashoffset: 3339; }
    85.2%, 85.2% { stroke-dashoffset: 0; }
    85.3%, 100% { stroke-dashoffset: 3339; }
}
svg.acjk #stroke-p18 { animation-name: zk18; }
]]>
</style>
<defs>
    <path id="p1" d="M 202 230 C 195 227 183 224 167 222 C 160 220 155 220 153 224 C 149 228 149 235 155 245 C 171 279 185 324 197 381 C 199 397 205 411 215 423 C 225 437 232 439 236 429 C 238 422 240 417 240 407 C 238 385 238 385 237 374 C 227 310 221 270 219 255 C 217 245 211 234 202 230 Z"/>
    <path id="p2" d="M 372 354 C 382 301 395 267 410 251 C 424 235 423 222 409 214 C 369 192 348 181 346 182 C 340 182 334 184 329 188 C 302 204 260 218 202 230 C 192 232 209 258 219 255 C 221 253 249 246 305 235 C 321 231 332 232 336 239 C 340 243 341 255 337 277 C 334 297 330 320 325 346 C 322 362 369 370 372 354 Z"/>
    <path id="p3" d="M 289 394 C 311 388 341 382 378 377 C 384 376 387 373 387 368 C 387 364 382 359 372 354 C 358 346 341 343 325 346 C 323 346 321 346 319 348 C 289 358 261 367 237 374 C 226 376 229 409 240 407 C 244 407 248 404 253 403 C 277 397 277 397 289 394 Z"/>
    <path id="p4" d="M 306 680 C 306 624 308 573 311 527 C 312 504 312 504 312 492 C 312 482 313 472 314 463 C 316 433 316 416 314 413 C 305 405 297 398 289 394 C 278 388 247 392 253 403 C 261 417 265 433 266 452 C 266 468 267 549 268 693 C 268 706 306 693 306 680 Z"/>
    <path id="p5" d="M 311 527 C 311 526 311 526 312 526 C 344 517 383 505 407 499 C 421 494 425 488 418 481 C 410 473 398 469 382 469 C 367 469 337 479 313 491 C 312 491 312 491 312 492 C 302 498 301 532 311 527 Z"/>
    <path id="p6" d="M 205 714 C 198 644 196 598 199 577 C 199 564 195 554 187 547 C 173 538 158 531 142 526 C 134 523 127 524 123 528 C 118 532 118 538 122 547 C 132 563 141 582 148 602 C 152 618 159 660 169 726 C 171 738 205 727 205 714 Z"/>
    <path id="p7" d="M 169 726 C 154 730 140 733 126 739 C 114 743 97 744 78 745 C 69 745 64 749 64 757 C 63 765 65 773 72 778 C 86 789 104 800 128 811 C 134 813 142 811 150 805 C 169 789 248 745 361 690 C 377 682 399 668 411 661 C 419 655 426 650 424 644 C 422 638 414 639 406 642 C 380 650 333 670 306 680 C 281 689 281 689 268 693 C 248 699 224 707 205 714 C 181 722 181 722 169 726 Z"/>
    <path id="p8" d="M 613 117 Q 647 139 682 167 Q 698 179 714 176 Q 724 175 729 160 Q 732 144 719 114 Q 704 80 603 67 Q 587 66 580 69 Q 576 73 578 87 Q 582 97 613 117 Z"/>
    <path id="p9" d="M 745 250 C 749 249 782 242 846 236 C 852 235 860 234 865 225 C 867 218 857 213 844 204 C 824 191 775 197 714 213 C 675 222 598 234 516 245 C 498 247 495 254 510 265 C 532 281 551 285 568 282 C 609 272 658 263 713 255 C 734 252 734 252 745 250 Z"/>
    <path id="p10" d="M 547 336 Q 569 402 588 409 Q 598 413 608 401 Q 612 391 611 373 Q 605 343 559 317 Q 552 313 548 321 Q 544 327 547 336 Z"/>
    <path id="p11" d="M 719 403 Q 776 307 779 303 Q 791 291 783 282 Q 774 267 745 250 C 736 244 710 245 713 255 Q 713 258 716 263 Q 726 287 695 388 Q 691 401 688 411 C 685 421 713 412 719 403 Z"/>
    <path id="p12" d="M 517 439 C 503 425 485 418 465 418 C 456 420 453 425 457 433 C 483 514 470 620 452 751 C 448 776 431 817 432 824 C 433 842 438 857 448 871 C 453 879 458 882 464 879 C 488 864 502 815 506 732 C 512 594 518 507 523 473 C 525 462 526 446 517 439 Z"/>
    <path id="p13" d="M 523 473 Q 523 472 526 472 Q 646 441 792 418 Q 808 417 814 425 Q 824 431 828 478 Q 838 635 829 813 Q 829 838 819 846 Q 807 855 749 843 Q 733 839 734 849 Q 735 856 748 863 Q 800 906 827 939 Q 848 960 860 957 Q 873 954 884 926 Q 900 880 900 815 Q 887 592 888 509 Q 889 472 900 451 Q 912 432 902 420 Q 892 405 849 382 Q 831 373 813 377 Q 780 387 719 403 C 698 408 698 408 688 411 Q 684 410 678 412 Q 599 428 517 439 C 506 441 512 475 523 473 Z"/>
    <path id="p14" d="M 678 560 Q 780 530 784 528 Q 790 522 786 516 Q 782 509 760 504 Q 736 501 686 523 C 655 533 655 533 639 538 Q 608 544 576 550 Q 551 554 569 566 Q 594 578 637 571 C 664 564 664 564 678 560 Z"/>
    <path id="p15" d="M 662 629 Q 669 593 678 560 C 683 535 683 535 686 523 Q 692 508 698 492 Q 701 485 689 474 Q 667 458 650 453 Q 640 450 634 455 Q 628 459 632 470 Q 641 485 639 538 C 638 560 638 560 637 571 Q 636 601 631 636 C 629 646 660 639 662 629 Z"/>
    <path id="p16" d="M 585 643 Q 578 639 562 636 Q 553 633 550 637 Q 546 641 551 653 Q 567 690 577 752 Q 578 771 588 783 Q 601 799 605 788 Q 609 779 608 765 C 607 749 607 749 607 741 Q 601 683 601 666 C 601 657 594 646 585 643 Z"/>
    <path id="p17" d="M 751 723 C 761 694 771 675 781 667 C 793 653 794 642 782 634 C 771 627 758 618 744 608 C 734 601 723 601 713 607 C 697 615 680 623 662 629 C 641 634 641 634 631 636 C 617 638 601 640 585 643 C 576 645 592 666 601 666 C 614 666 667 654 687 648 C 703 645 713 647 717 653 C 717 653 714 675 706 718 C 704 733 745 737 751 723 Z"/>
    <path id="p18" d="M 608 765 Q 609 765 611 766 Q 620 767 630 766 Q 670 756 759 748 Q 766 747 768 740 Q 768 734 751 723 C 738 715 721 715 706 718 Q 651 733 607 741 C 599 743 600 763 608 765 Z"/>

    <clipPath id="z36450c1"><use href="#p1"/></clipPath>
    <clipPath id="z36450c2"><use href="#p2"/></clipPath>
    <clipPath id="z36450c3"><use href="#p3"/></clipPath>
    <clipPath id="z36450c4"><use href="#p4"/></clipPath>
    <clipPath id="z36450c5"><use href="#p5"/></clipPath>
    <clipPath id="z36450c6"><use href="#p6"/></clipPath>
    <clipPath id="z36450c7"><use href="#p7"/></clipPath>
    <clipPath id="z36450c8"><use href="#p8"/></clipPath>
    <clipPath id="z36450c9"><use href="#p9"/></clipPath>
    <clipPath id="z36450c10"><use href="#p10"/></clipPath>
    <clipPath id="z36450c11"><use href="#p11"/></clipPath>
    <clipPath id="z36450c12"><use href="#p12"/></clipPath>
    <clipPath id="z36450c13"><use href="#p13"/></clipPath>
    <clipPath id="z36450c14"><use href="#p14"/></clipPath>
    <clipPath id="z36450c15"><use href="#p15"/></clipPath>
    <clipPath id="z36450c16"><use href="#p16"/></clipPath>
    <clipPath id="z36450c17"><use href="#p17"/></clipPath>
    <clipPath id="z36450c18"><use href="#p18"/></clipPath>
</defs>
<g id="bg-layer" class="bg">
<use href="#p1"/>
<use href="#p2"/>
<use href="#p3"/>
<use href="#p4"/>
<use href="#p5"/>
<use href="#p6"/>
<use href="#p7"/>
<use href="#p8"/>
<use href="#p9"/>
<use href="#p10"/>
<use href="#p11"/>
<use href="#p12"/>
<use href="#p13"/>
<use href="#p14"/>
<use href="#p15"/>
<use href="#p16"/>
<use href="#p17"/>
<use href="#p18"/>
</g>
<g id="anim-layer">
    <path id="stroke-p1" style="stroke:#FF4444" pathLength="3333" clip-path="url(#z36450c1)" d="M 158 231 L 191 260 L 232 427"/>
    <path id="stroke-p2" style="stroke:#FF4444" pathLength="3333" clip-path="url(#z36450c2)" d="M 211 235 L 325 210 L 372 227 L 347 349"/>
    <path id="stroke-p3" style="stroke:#FF4444" pathLength="3333" clip-path="url(#z36450c3)" d="M 245 396 L 324 366 L 380 371"/>
    <path id="stroke-p4" style="stroke:#FF4444" pathLength="3333" clip-path="url(#z36450c4)" d="M 261 407 L 290 432 L 274 683"/>
    <path id="stroke-p5" style="stroke:#FF4444" pathLength="3333" clip-path="url(#z36450c5)" d="M 319 516 L 417 486"/>
    <path id="stroke-p6" style="stroke:#FF4444" pathLength="3333" clip-path="url(#z36450c6)" d="M 125 532 L 170 577 L 185 720"/>
    <path id="stroke-p7" style="stroke:#FF4444" pathLength="3333" clip-path="url(#z36450c7)" d="M 69 760 L 130 775 L 419 649"/>
    <path id="stroke-p8" style="stroke:#000" pathLength="3333" clip-path="url(#z36450c8)" d="M 584 75 L 683 124 L 721 169"/>
    <path id="stroke-p9" style="stroke:#000" pathLength="3333" clip-path="url(#z36450c9)" d="M 511 254 L 859 220"/>
    <path id="stroke-p10" style="stroke:#000" pathLength="3333" clip-path="url(#z36450c10)" d="M 554 324 L 599 402"/>
    <path id="stroke-p11" style="stroke:#000" pathLength="3333" clip-path="url(#z36450c11)" d="M 722 257 L 751 297 L 694 404"/>
    <path id="stroke-p12" style="stroke:#000" pathLength="3333" clip-path="url(#z36450c12)" d="M 463 426 L 493 455 L 499 557 L 459 875"/>
    <path id="stroke-p13" style="stroke:#000" pathLength="3333" clip-path="url(#z36450c13)" d="M 525 441 L 551 447 L 810 398 L 863 437 L 861 856 L 832 907 L 741 847"/>
    <path id="stroke-p14" style="stroke:#000" pathLength="3333" clip-path="url(#z36450c14)" d="M 570 557 L 782 523"/>
    <path id="stroke-p15" style="stroke:#000" pathLength="3333" clip-path="url(#z36450c15)" d="M 641 462 L 668 500 L 640 629"/>
    <path id="stroke-p16" style="stroke:#000" pathLength="3333" clip-path="url(#z36450c16)" d="M 557 642 L 581 675 L 597 786"/>
    <path id="stroke-p17" style="stroke:#000" pathLength="3333" clip-path="url(#z36450c17)" d="M 597 648 L 734 632 L 753 656 L 724 719"/>
    <path id="stroke-p18" style="stroke:#000" pathLength="3333" clip-path="url(#z36450c18)" d="M 616 758 L 763 735"/>
</g>
</svg>