<svg id="z36495" class="acjk" viewBox="0 0 1024 1024" xmlns="http://www.w3.org/2000/svg">
<style>
<![CDATA[
svg.acjk path[clip-path] {
    animation-duration: 19.3s;
    animation-timing-function: linear;
    animation-iteration-count: infinite;
    stroke-dasharray: 3337;
    stroke-dashoffset: 3339;
    stroke-width: 128;
    stroke-linecap: round;
    fill: none;
    stroke: #FF4444;
}
svg.acjk .bg { fill: #ccc; opacity: 0.5; }

/* Stroke 1: Starts at 0.0%, finishes at 4.1%, holds until 87.0% */
@keyframes zk1 {
    0%, 0.0% { stroke-dashoffset: 3339; }
    4.1%, 87.0% { stroke-dashoffset: 0; }
    87.1%, 100% { stroke-dashoffset: 3339; }
}
svg.acjk #stroke-p1 { animation-name: zk1; }
/* Stroke 2: Starts at 4.1%, finishes at 8.3%, holds until 87.0% */
@keyframes zk2 {
    0%, 4.1% { stroke-dashoffset: 3339; }
    8.3%, 87.0% { stroke-dashoffset: 0; }
    87.1%, 100% { stroke-dashoffset: 3339; }
}
svg.acjk #stroke-p2 { animation-name: zk2; }
/* Stroke 3: Starts at 8.3%, finishes at 12.4%, holds until 87.0% */
@keyframes zk3 {
    0%, 8.3% { stroke-dashoffset: 3339; }
    12.4%, 87.0% { stroke-dashoffset: 0; }
    87.1%, 100% { stroke-dashoffset: 3339; }
}
svg.acjk #stroke-p3 { animation-name: zk3; }
/* Stroke 4: Starts at 12.4%, finishes at 16.6%, holds until 87.0% */
@keyframes zk4 {
    0%, 12.4% { stroke-dashoffset: 3339; }
    16.6%, 87.0% { stroke-dashoffset: 0; }
    87.1%, 100% { stroke-dashoffset: 3339; }
}
svg.acjk #stroke-p4 { animation-name: zk4; }
/* Stroke 5: Starts at 16.6%, finishes at 20.7%, holds until 87.0% */
@keyframes zk5 {
    0%, 16.6% { stroke-dashoffset: 3339; }
    20.7%, 87.0% { stroke-dashoffset: 0; }
    87.1%, 100% { stroke-dashoffset: 3339; }
}
svg.acjk #stroke-p5 { animation-name: zk5; }
/* Stroke 6: Starts at 20.7%, finishes at 24.9%, holds until 87.0% */
@keyframes zk6 {
    0%, 20.7% { stroke-dashoffset: 3339; }
    24.9%, 87.0% { stroke-dashoffset: 0; }
    87.1%, 100% { stroke-dashoffset: 3339; }
}
svg.acjk #stroke-p6 { animation-name: zk6; }
/* Stroke 7: Starts at 24.9%, finishes at 29.0%, holds until 87.0% */
@keyframes zk7 {
    0%, 24.9% { stroke-dashoffset: 3339; }
    29.0%, 87.0% { stroke-dashoffset: 0; }
    87.1%, 100% { stroke-dashoffset: 3339; }
}
svg.acjk #stroke-p7 { animation-name: zk7; }
/* Stroke 8: Starts at 29.0%, finishes at 33.2%, holds until 87.0% */
@keyframes zk8 {
    0%, 29.0% { stroke-dashoffset: 3339; }
    33.2%, 87.0% { stroke-dashoffset: 0; }
    87.1%, 100% { stroke-dashoffset: 3339; }
}
svg.acjk #stroke-p8 { animation-name: zk8; }
/* Stroke 9: Starts at 33.2%, finishes at 37.3%, holds until 87.0% */
@keyframes zk9 {
    0%, 33.2% { stroke-dashoffset: 3339; }
    37.3%, 87.0% { stroke-dashoffset: 0; }
    87.1%, 100% { stroke-dashoffset: 3339; }
}
svg.acjk #stroke-p9 { animation-name: zk9; }
/* Stroke 10: Starts at 37.3%, finishes at 41.5%, holds until 87.0% */
@keyframes zk10 {
    0%, 37.3% { stroke-dashoffset: 3339; }
    41.5%, 87.0% { stroke-dashoffset: 0; }
    87.1%, 100% { stroke-dashoffset: 3339; }
}
svg.acjk #stroke-p10 { animation-name: zk10; }
/* Stroke 11: Starts at 41.5%, finishes at 45.6%, holds until 87.0% */
@keyframes zk11 {
    0%, 41.5% { stroke-dashoffset: 3339; }
    45.6%, 87.0% { stroke-dashoffset: 0; }
    87.1%, 100% { stroke-dashoffset: 3339; }
}
svg.acjk #stroke-p11 { animation-name: zk11; }
/* Stroke 12: Starts at 45.6%, finishes at 49.7%, holds until 87.0% */
@keyframes zk12 {
    0%, 45.6% { stroke-dashoffset: 3339; }
    49.7%, 87.0% { stroke-dashoffset: 0; }
    87.1%, 100% { stroke-dashoffset: 3339; }
}
svg.acjk #stroke-p12 { animation-name: zk12; }
/* Stroke 13: Starts at 49.7%, finishes at 53.9%, holds until 87.0% */
@keyframes zk13 {
    0%, 49.7% { stroke-dashoffset: 3339; }
    53.9%, 87.0% { stroke-dashoffset: 0; }
    87.1%, 100% { stroke-dashoffset: 3339; }
}
svg.acjk #stroke-p13 { animation-name: zk13; }
/* Stroke 14: Starts at 53.9%, finishes at 58.0%, holds until 87.0% */
@keyframes zk14 {
    0%, 53.9% { stroke-dashoffset: 3339; }
    58.0%, 87.0% { stroke-dashoffset: 0; }
    87.1%, 100% { stroke-dashoffset: 3339; }
}
svg.acjk #stroke-p14 { animation-name: zk14; }
/* Stroke 15: Starts at 58.0%, finishes at 62.2%, holds until 87.0% */
@keyframes zk15 {
    0%, 58.0% { stroke-dashoffset: 3339; }
    62.2%, 87.0% { stroke-dashoffset: 0; }
    87.1%, 100% { stroke-dashoffset: 3339; }
}
svg.acjk #stroke-p15 { animation-name: zk15; }
/* Stroke 16: Starts at 62.2%, finishes at 66.3%, holds until 87.0% */
@keyframes zk16 {
    0%, 62.2% { stroke-dashoffset: 3339; }
    66.3%, 87.0% { stroke-dashoffset: 0; }
    87.1%, 100% { stroke-dashoffset: 3339; }
}
svg.acjk #stroke-p16 { animation-name: zk16; }
/* Stroke 17: Starts at 66.3%, finishes at 70.5%, holds until 87.0% */
@keyframes zk17 {
    0%, 66.3% { stroke-dashoffset: 3339; }
    70.5%, 87.0% { stroke-dashoffset: 0; }
    87.1%, 100% { stroke-dashoffset: 3339; }
}
svg.acjk #stroke-p17 { animation-name: zk17; }
/* Stroke 18: Starts at 70.5%, finishes at 74.6%, holds until 87.0% */
@keyframes zk18 {
    0%, 70.5% { stroke-dashoffset: 3339; }
    74.6%, 87.0% { stroke-dashoffset: 0; }
    87.1%, 100% { stroke-dashoffset: 3339; }
}
svg.acjk #stroke-p18 { animation-name: zk18; }
/* Stroke 19: Starts at 74.6%, finishes at 78.8%, holds until 87.0% */
@keyframes zk19 {
    0%, 74.6% { stroke-dashoffset: 3339; }
    78.8%, 87.0% { stroke-dashoffset: 0; }
    87.1%, 100% { stroke-dashoffset: 3339; }
}
svg.acjk #stroke-p19 { animation-name: zk19; }
/* Stroke 20: Starts at 78.8%, finishes at 82.9%, holds until 87.0% */
@keyframes zk20 {
    0%, 78.8% { stroke-dashoffset: 3339; }
    82.9%, 87.0% { stroke-dashoffset: 0; }
    87.1%, 100% { stroke-dashoffset: 3339; }
}
svg.acjk #stroke-p20 { animation-name: zk20; }
/* Stroke 21: Starts at 82.9%, finishes at 87.0%, holds until 87.0% */
@keyframes zk21 {
    0%, 82.9% { stroke-dashoffset: 3339; }
    87.0%, 87.0% { stroke-dashoffset: 0; }
    87.1%, 100% { stroke-dashoffset: 3339; }
}
svg.acjk #stroke-p21 { animation-name: zk21; }
]]>
</style>
<defs>
    <path id="p1" d="M 180 194 Q 170 190 143 184 Q 131 180 129 185 Q 123 191 130 205 Q 152 251 166 327 Q 169 349 182 365 Q 197 386 202 371 Q 206 361 206 345 C 205 332 205 332 204 326 Q 204 325 204 322 Q 194 244 191 220 C 189 211 189 197 180 194 Z"/>
    <path id="p2" d="M 341 303 Q 357 227 379 206 Q 400 181 377 169 Q 358 159 333 143 Q 315 134 298 145 Q 262 172 180 194 C 171 196 182 223 191 220 Q 233 207 279 194 Q 300 187 307 195 Q 314 201 308 230 Q 302 261 294 298 C 291 314 338 318 341 303 Z"/>
    <path id="p3" d="M 271 339 Q 299 332 348 325 Q 357 324 357 316 Q 357 312 341 303 C 327 295 309 292 294 298 Q 245 316 206 325 Q 203 325 204 326 C 198 328 200 343 206 345 Q 224 351 235 347 C 259 342 259 342 271 339 Z"/>
    <path id="p4" d="M 292 647 Q 293 562 295 490 C 295 471 295 471 295 462 Q 299 363 296 359 Q 283 346 271 339 C 261 332 230 336 235 347 Q 247 374 251 456 Q 251 519 253 660 C 253 674 292 661 292 647 Z"/>
    <path id="p5" d="M 295 490 Q 341 484 377 478 Q 398 474 389 463 Q 379 450 356 448 Q 313 445 295 462 C 288 469 286 492 295 490 Z"/>
    <path id="p6" d="M 204 675 Q 191 498 190 497 Q 186 491 182 489 Q 160 473 135 467 Q 122 463 115 469 Q 108 475 115 488 Q 133 516 142 546 Q 149 574 167 687 C 170 700 204 688 204 675 Z"/>
    <path id="p7" d="M 167 687 Q 113 702 92 702 Q 80 703 79 713 Q 78 725 86 732 Q 107 745 138 762 Q 147 765 158 757 Q 185 735 341 659 Q 362 649 378 636 Q 388 629 389 621 Q 385 617 373 618 Q 333 631 292 647 C 266 656 266 656 253 660 Q 228 667 204 675 C 179 683 179 683 167 687 Z"/>
    <path id="p8" d="M 741 215 Q 805 206 881 214 Q 894 215 899 207 Q 903 197 892 185 Q 847 146 768 169 Q 765 169 762 170 C 729 175 729 175 713 178 Q 652 185 584 196 C 557 199 557 199 543 201 Q 483 207 420 214 Q 395 215 413 230 Q 450 254 519 239 Q 534 235 550 233 C 575 230 575 230 587 228 Q 606 219 700 217 C 727 216 727 216 741 215 Z"/>
    <path id="p9" d="M 584 196 Q 581 162 579 134 Q 580 118 562 112 Q 529 94 508 102 Q 492 111 506 127 Q 525 151 543 201 C 548 222 548 222 550 233 Q 553 266 572 286 Q 584 295 588 284 Q 592 269 587 228 C 585 207 585 207 584 196 Z"/>
    <path id="p10" d="M 762 170 Q 765 157 792 117 Q 805 104 797 95 Q 787 80 758 63 Q 745 54 729 61 Q 720 65 726 76 Q 735 103 713 178 C 704 204 704 204 700 217 Q 682 268 684 278 Q 684 291 698 281 Q 708 274 741 215 C 755 185 755 185 762 170 Z"/>
    <path id="p11" d="M 522 334 Q 565 389 585 390 Q 595 391 601 377 Q 602 367 595 351 Q 588 338 568 330 Q 538 315 526 313 Q 519 312 518 321 Q 517 327 522 334 Z"/>
    <path id="p12" d="M 452 620 Q 461 377 461 376 Q 455 355 418 343 Q 409 339 398 342 Q 391 346 396 359 Q 415 431 416 543 Q 412 706 391 780 Q 378 834 410 875 Q 420 888 430 876 Q 448 855 448 757 Q 449 687 452 632 C 452 624 452 624 452 620 Z"/>
    <path id="p13" d="M 796 845 Q 768 841 738 836 Q 719 832 721 840 Q 782 880 818 911 Q 831 927 845 931 Q 852 935 860 925 Q 896 879 891 830 Q 854 395 882 347 Q 892 328 882 319 Q 863 303 829 288 Q 813 281 798 288 Q 743 315 664 318 Q 649 318 657 327 Q 664 337 677 342 Q 695 348 786 329 Q 807 328 810 339 Q 822 369 831 619 Q 832 823 821 843 Q 817 849 796 845 Z"/>
    <path id="p14" d="M 526 561 Q 547 534 570 498 Q 580 477 591 467 Q 597 461 594 453 Q 591 446 574 432 Q 558 422 547 422 Q 535 423 541 437 Q 548 450 543 462 Q 522 525 454 619 Q 453 619 452 620 C 449 623 448 633 452 632 Q 451 632 455 632 Q 470 628 510 580 C 521 567 521 567 526 561 Z"/>
    <path id="p15" d="M 566 771 Q 563 651 564 622 Q 568 601 542 573 C 541 572 541 572 541 572 Q 534 565 526 561 C 519 557 506 573 510 580 Q 541 634 518 767 Q 506 804 535 835 C 536 836 536 836 536 836 Q 549 846 556 828 Q 560 815 564 799 C 565 780 565 780 566 771 Z"/>
    <path id="p16" d="M 636 434 Q 681 476 687 476 Q 694 476 698 467 Q 701 458 696 439 Q 693 426 674 417 Q 629 399 620 402 Q 616 403 617 412 Q 618 419 636 434 Z"/>
    <path id="p17" d="M 685 533 Q 769 512 771 512 Q 778 506 774 500 Q 770 493 749 487 Q 727 483 707 492 Q 656 507 605 514 Q 580 518 598 530 Q 619 542 650 539 C 673 535 673 535 685 533 Z"/>
    <path id="p18" d="M 699 612 Q 730 608 757 604 Q 776 601 769 590 Q 760 578 739 574 Q 723 573 701 578 C 672 586 672 586 658 590 Q 627 597 598 606 Q 585 609 601 621 Q 604 622 659 619 C 686 614 686 614 699 612 Z"/>
    <path id="p19" d="M 695 692 Q 726 686 756 684 Q 775 681 769 670 Q 760 658 739 654 Q 721 650 696 657 C 671 664 671 664 659 667 Q 626 674 598 682 Q 585 685 601 697 Q 605 700 659 697 C 683 694 683 694 695 692 Z"/>
    <path id="p20" d="M 693 750 Q 694 719 695 692 C 696 669 696 669 696 657 Q 697 633 699 612 C 700 589 700 589 701 578 Q 707 554 701 547 Q 694 540 685 533 C 676 526 646 528 650 539 Q 657 554 658 590 C 659 609 659 609 659 619 Q 659 638 659 667 C 659 687 659 687 659 697 Q 659 722 660 756 C 660 767 693 761 693 750 Z"/>
    <path id="p21" d="M 660 756 Q 657 755 655 756 Q 612 763 566 771 C 557 773 555 799 564 799 Q 577 800 585 798 Q 660 779 794 779 Q 807 779 810 773 Q 814 766 803 757 Q 764 730 716 744 Q 704 745 693 750 C 671 754 671 754 660 756 Z"/>

    <clipPath id="z36495c1"><use href="#p1"/></clipPath>
    <clipPath id="z36495c2"><use href="#p2"/></clipPath>
    <clipPath id="z36495c3"><use href="#p3"/></clipPath>
    <clipPath id="z36495c4"><use href="#p4"/></clipPath>
    <clipPath id="z36495c5"><use href="#p5"/></clipPath>
    <clipPath id="z36495c6"><use href="#p6"/></clipPath>
    <clipPath id="z36495c7"><use href="#p7"/></clipPath>
    <clipPath id="z36495c8"><use href="#p8"/></clipPath>
    <clipPath id="z36495c9"><use href="#p9"/></clipPath>
    <clipPath id="z36495c10"><use href="#p10"/></clipPath>
    <clipPath id="z36495c11"><use href="#p11"/></clipPath>
    <clipPath id="z36495c12"><use href="#p12"/></clipPath>
    <clipPath id="z36495c13"><use href="#p13"/></clipPath>
    <clipPath id="z36495c14"><use href="#p14"/></clipPath>
    <clipPath id="z36495c15"><use href="#p15"/></clipPath>
    <clipPath id="z36495c16"><use href="#p16"/></clipPath>
    <clipPath id="z36495c17"><use href="#p17"/></clipPath>
    <clipPath id="z36495c18"><use href="#p18"/></clipPath>
    <clipPath id="z36495c19"><use href="#p19"/></clipPath>
    <clipPath id="z36495c20"><use href="#p20"/></clipPath>
    <clipPath id="z36495c21"><use href="#p21"/></clipPath>
</defs>
<g id="bg-layer" class="bg">
<use href="#p1"/>
<use href="#p2"/>
<use href="#p3"/>
<use href="#p4"/>
<use href="#p5"/>
<use href="#p6"/>
<use href="#p7"/>
<use href="#p8"/>
<use href="#p9"/>
<use href="#p10"/>
<use href="#p11"/>
<use href="#p12"/>
<use href="#p13"/>
<use href="#p14"/>
<use href="#p15"/>
<use href="#p16"/>
<use href="#p17"/>
<use href="#p18"/>
<use href="#p19"/>
<use href="#p20"/>
<use href="#p21"/>
</g>
<g id="anim-layer">
    <path id="stroke-p1" style="stroke:#FF4444" pathLength="3333" clip-path="url(#z36495c1)" d="M 134 191 L 166 226 L 192 370"/>
    <path id="stroke-p2" style="stroke:#FF4444" pathLength="3333" clip-path="url(#z36495c2)" d="M 188 199 L 331 176 L 349 199 L 318 300"/>
    <path id="stroke-p3" style="stroke:#FF4444" pathLength="3333" clip-path="url(#z36495c3)" d="M 211 330 L 348 317"/>
    <path id="stroke-p4" style="stroke:#FF4444" pathLength="3333" clip-path="url(#z36495c4)" d="M 242 352 L 271 378 L 266 655"/>
    <path id="stroke-p5" style="stroke:#FF4444" pathLength="3333" clip-path="url(#z36495c5)" d="M 298 482 L 386 467"/>
    <path id="stroke-p6" style="stroke:#FF4444" pathLength="3333" clip-path="url(#z36495c6)" d="M 117 473 L 163 514 L 177 679"/>
    <path id="stroke-p7" style="stroke:#FF4444" pathLength="3333" clip-path="url(#z36495c7)" d="M 85 712 L 140 729 L 378 624"/>
    <path id="stroke-p8" style="stroke:#000" pathLength="3333" clip-path="url(#z36495c8)" d="M 413 219 L 814 185 L 895 199"/>
    <path id="stroke-p9" style="stroke:#000" pathLength="3333" clip-path="url(#z36495c9)" d="M 506 112 L 550 139 L 574 283"/>
    <path id="stroke-p10" style="stroke:#000" pathLength="3333" clip-path="url(#z36495c10)" d="M 731 70 L 763 112 L 690 277"/>
    <path id="stroke-p11" style="stroke:#000" pathLength="3333" clip-path="url(#z36495c11)" d="M 525 321 L 591 382"/>
    <path id="stroke-p12" style="stroke:#000" pathLength="3333" clip-path="url(#z36495c12)" d="M 403 349 L 433 394 L 420 876"/>
    <path id="stroke-p13" style="stroke:#000" pathLength="3333" clip-path="url(#z36495c13)" d="M 660 323 L 810 308 L 849 338 L 854 856 L 829 889 L 732 840"/>
    <path id="stroke-p14" style="stroke:#000" pathLength="3333" clip-path="url(#z36495c14)" d="M 547 427 L 566 468 L 457 624"/>
    <path id="stroke-p15" style="stroke:#000" pathLength="3333" clip-path="url(#z36495c15)" d="M 526 568 L 545 638 L 539 835"/>
    <path id="stroke-p16" style="stroke:#000" pathLength="3333" clip-path="url(#z36495c16)" d="M 624 410 L 688 471"/>
    <path id="stroke-p17" style="stroke:#000" pathLength="3333" clip-path="url(#z36495c17)" d="M 598 521 L 770 503"/>
    <path id="stroke-p18" style="stroke:#000" pathLength="3333" clip-path="url(#z36495c18)" d="M 598 610 L 764 595"/>
    <path id="stroke-p19" style="stroke:#000" pathLength="3333" clip-path="url(#z36495c19)" d="M 599 687 L 765 671"/>
    <path id="stroke-p20" style="stroke:#000" pathLength="3333" clip-path="url(#z36495c20)" d="M 657 540 L 680 566 L 673 753"/>
    <path id="stroke-p21" style="stroke:#000" pathLength="3333" clip-path="url(#z36495c21)" d="M 573 791 L 805 766"/>
</g>
</svg>