<svg id="z36635" class="acjk" viewBox="0 0 1024 1024" xmlns="http://www.w3.org/2000/svg">
<style>
<![CDATA[
svg.acjk path[clip-path] {
    animation-duration: 14.5s;
    animation-timing-function: linear;
    animation-iteration-count: infinite;
    stroke-dasharray: 3337;
    stroke-dashoffset: 3339;
    stroke-width: 128;
    stroke-linecap: round;
    fill: none;
    stroke: #FF4444;
}
svg.acjk .bg { fill: #ccc; opacity: 0.5; }

/* Stroke 1: Starts at 0.0%, finishes at 5.5%, holds until 82.8% */
@keyframes zk1 {
    0%, 0.0% { stroke-dashoffset: 3339; }
    5.5%, 82.8% { stroke-dashoffset: 0; }
    82.9%, 100% { stroke-dashoffset: 3339; }
}
svg.acjk #stroke-p1 { animation-name: zk1; }
/* Stroke 2: Starts at 5.5%, finishes at 11.0%, holds until 82.8% */
@keyframes zk2 {
    0%, 5.5% { stroke-dashoffset: 3339; }
    11.0%, 82.8% { stroke-dashoffset: 0; }
    82.9%, 100% { stroke-dashoffset: 3339; }
}
svg.acjk #stroke-p2 { animation-name: zk2; }
/* Stroke 3: Starts at 11.0%, finishes at 16.6%, holds until 82.8% */
@keyframes zk3 {
    0%, 11.0% { stroke-dashoffset: 3339; }
    16.6%, 82.8% { stroke-dashoffset: 0; }
    82.9%, 100% { stroke-dashoffset: 3339; }
}
svg.acjk #stroke-p3 { animation-name: zk3; }
/* Stroke 4: Starts at 16.6%, finishes at 22.1%, holds until 82.8% */
@keyframes zk4 {
    0%, 16.6% { stroke-dashoffset: 3339; }
    22.1%, 82.8% { stroke-dashoffset: 0; }
    82.9%, 100% { stroke-dashoffset: 3339; }
}
svg.acjk #stroke-p4 { animation-name: zk4; }
/* Stroke 5: Starts at 22.1%, finishes at 27.6%, holds until 82.8% */
@keyframes zk5 {
    0%, 22.1% { stroke-dashoffset: 3339; }
    27.6%, 82.8% { stroke-dashoffset: 0; }
    82.9%, 100% { stroke-dashoffset: 3339; }
}
svg.acjk #stroke-p5 { animation-name: zk5; }
/* Stroke 6: Starts at 27.6%, finishes at 33.1%, holds until 82.8% */
@keyframes zk6 {
    0%, 27.6% { stroke-dashoffset: 3339; }
    33.1%, 82.8% { stroke-dashoffset: 0; }
    82.9%, 100% { stroke-dashoffset: 3339; }
}
svg.acjk #stroke-p6 { animation-name: zk6; }
/* Stroke 7: Starts at 33.1%, finishes at 38.6%, holds until 82.8% */
@keyframes zk7 {
    0%, 33.1% { stroke-dashoffset: 3339; }
    38.6%, 82.8% { stroke-dashoffset: 0; }
    82.9%, 100% { stroke-dashoffset: 3339; }
}
svg.acjk #stroke-p7 { animation-name: zk7; }
/* Stroke 8: Starts at 38.6%, finishes at 44.1%, holds until 82.8% */
@keyframes zk8 {
    0%, 38.6% { stroke-dashoffset: 3339; }
    44.1%, 82.8% { stroke-dashoffset: 0; }
    82.9%, 100% { stroke-dashoffset: 3339; }
}
svg.acjk #stroke-p8 { animation-name: zk8; }
/* Stroke 9: Starts at 44.1%, finishes at 49.7%, holds until 82.8% */
@keyframes zk9 {
    0%, 44.1% { stroke-dashoffset: 3339; }
    49.7%, 82.8% { stroke-dashoffset: 0; }
    82.9%, 100% { stroke-dashoffset: 3339; }
}
svg.acjk #stroke-p9 { animation-name: zk9; }
/* Stroke 10: Starts at 49.7%, finishes at 55.2%, holds until 82.8% */
@keyframes zk10 {
    0%, 49.7% { stroke-dashoffset: 3339; }
    55.2%, 82.8% { stroke-dashoffset: 0; }
    82.9%, 100% { stroke-dashoffset: 3339; }
}
svg.acjk #stroke-p10 { animation-name: zk10; }
/* Stroke 11: Starts at 55.2%, finishes at 60.7%, holds until 82.8% */
@keyframes zk11 {
    0%, 55.2% { stroke-dashoffset: 3339; }
    60.7%, 82.8% { stroke-dashoffset: 0; }
    82.9%, 100% { stroke-dashoffset: 3339; }
}
svg.acjk #stroke-p11 { animation-name: zk11; }
/* Stroke 12: Starts at 60.7%, finishes at 66.2%, holds until 82.8% */
@keyframes zk12 {
    0%, 60.7% { stroke-dashoffset: 3339; }
    66.2%, 82.8% { stroke-dashoffset: 0; }
    82.9%, 100% { stroke-dashoffset: 3339; }
}
svg.acjk #stroke-p12 { animation-name: zk12; }
/* Stroke 13: Starts at 66.2%, finishes at 71.7%, holds until 82.8% */
@keyframes zk13 {
    0%, 66.2% { stroke-dashoffset: 3339; }
    71.7%, 82.8% { stroke-dashoffset: 0; }
    82.9%, 100% { stroke-dashoffset: 3339; }
}
svg.acjk #stroke-p13 { animation-name: zk13; }
/* Stroke 14: Starts at 71.7%, finishes at 77.2%, holds until 82.8% */
@keyframes zk14 {
    0%, 71.7% { stroke-dashoffset: 3339; }
    77.2%, 82.8% { stroke-dashoffset: 0; }
    82.9%, 100% { stroke-dashoffset: 3339; }
}
svg.acjk #stroke-p14 { animation-name: zk14; }
/* Stroke 15: Starts at 77.2%, finishes at 82.8%, holds until 82.8% */
@keyframes zk15 {
    0%, 77.2% { stroke-dashoffset: 3339; }
    82.8%, 82.8% { stroke-dashoffset: 0; }
    82.9%, 100% { stroke-dashoffset: 3339; }
}
svg.acjk #stroke-p15 { animation-name: zk15; }
]]>
</style>
<defs>
    <path id="p1" d="M 331 259 C 395 239 428 226 429 226 C 434 220 434 214 432 210 C 427 203 415 198 397 196 C 388 194 367 199 334 211 C 305 221 305 221 290 226 C 265 234 236 241 205 249 C 182 253 180 262 198 271 C 233 288 265 278 291 271 C 318 263 318 263 331 259 Z"/>
    <path id="p2" d="M 169 379 C 162 376 150 375 133 373 C 111 369 116 386 122 396 C 143 432 161 481 174 544 C 177 562 184 577 196 590 C 208 602 215 604 218 595 C 219 590 220 584 220 577 C 219 567 219 556 218 547 C 211 510 197 453 187 406 C 185 395 179 383 169 379 Z"/>
    <path id="p3" d="M 374 545 C 391 580 411 591 427 565 C 435 550 444 504 460 427 C 463 408 473 391 486 377 C 492 369 493 360 486 353 C 477 343 460 331 434 318 C 408 304 395 317 330 336 C 305 343 305 343 292 347 C 250 359 208 368 169 379 C 158 381 177 410 187 406 C 213 395 248 386 292 376 C 317 370 317 370 330 367 C 368 357 392 354 403 361 C 411 366 414 375 413 387 C 402 467 393 515 384 525 C 380 531 371 538 374 545 Z"/>
    <path id="p4" d="M 330 459 C 340 456 352 454 366 451 C 378 447 383 440 378 435 C 365 422 345 417 330 422 C 317 425 304 428 292 433 C 263 442 243 453 225 460 C 215 463 216 468 230 476 C 233 478 255 476 291 468 C 304 465 316 462 330 459 Z"/>
    <path id="p5" d="M 329 553 C 341 550 358 547 374 545 C 381 544 389 530 384 525 C 364 501 345 509 329 515 C 303 523 303 523 290 527 C 264 535 238 541 218 547 C 208 550 210 579 220 577 C 243 572 268 565 289 561 C 316 556 316 556 329 553 Z"/>
    <path id="p6" d="M 328 664 Q 377 651 435 640 Q 450 637 450 630 Q 451 617 433 610 Q 408 600 328 623 C 301 631 301 631 287 635 Q 113 678 55 687 Q 43 688 40 696 Q 39 706 53 717 Q 92 741 129 726 Q 252 678 285 674 C 314 667 314 667 328 664 Z"/>
    <path id="p7" d="M 285 674 C 282 722 273 770 261 816 C 253 844 258 876 276 915 C 292 951 306 939 321 908 C 328 892 330 874 330 854 C 329 833 328 770 328 664 C 328 637 328 637 328 623 C 328 601 329 577 329 553 C 329 528 329 528 329 515 C 329 497 330 477 330 459 C 330 434 330 434 330 422 C 330 385 330 385 330 367 C 330 346 330 346 330 336 C 330 310 329 284 331 259 C 333 227 333 227 334 211 C 336 178 340 148 350 122 C 354 110 359 101 356 93 C 352 86 330 73 295 51 C 278 40 264 39 251 50 C 248 52 246 60 253 70 C 285 122 288 173 290 226 C 291 256 291 256 291 271 C 291 295 292 320 292 347 C 292 366 292 366 292 376 C 292 394 292 413 292 433 C 291 456 291 456 291 468 C 290 486 290 506 290 527 C 289 550 289 550 289 561 C 288 584 288 609 287 635 C 286 661 286 661 285 674 Z"/>
    <path id="p8" d="M 682 296 C 797 265 854 243 857 241 C 863 235 863 229 860 224 C 854 216 842 210 822 207 C 806 204 766 220 699 241 C 619 265 574 271 567 273 C 542 278 539 286 558 297 C 580 308 609 315 644 306 C 669 299 669 299 682 296 Z"/>
    <path id="p9" d="M 500 469 C 479 457 446 452 458 474 C 486 527 486 610 466 694 C 456 734 454 761 474 785 C 479 791 482 795 488 791 C 506 777 515 717 516 612 C 516 556 517 520 519 504 C 522 491 512 475 500 469 Z"/>
    <path id="p10" d="M 702 460 C 733 453 823 437 859 442 C 885 445 884 479 885 492 C 891 608 888 699 877 766 C 873 784 864 795 848 793 C 827 789 808 783 791 778 C 767 770 771 783 786 797 C 826 837 854 865 865 886 C 870 896 878 899 886 897 C 894 894 902 885 911 868 C 930 827 943 750 945 634 C 946 523 947 460 955 448 C 964 433 965 428 957 423 C 944 415 928 404 906 394 C 890 386 867 384 850 388 C 811 396 724 418 703 424 C 676 431 676 431 663 434 C 634 441 550 457 500 469 C 487 471 507 509 519 504 C 541 493 589 483 663 468 C 689 463 689 463 702 460 Z"/>
    <path id="p11" d="M 663 468 C 663 516 660 594 656 658 C 653 696 649 728 661 756 C 664 764 667 768 671 771 C 674 772 677 773 681 770 C 695 756 701 736 700 712 C 699 694 697 609 702 460 C 703 436 703 436 703 424 C 706 310 736 326 682 296 C 671 289 637 295 644 306 C 669 346 663 392 663 434 C 663 457 663 457 663 468 Z"/>
    <path id="p12" d="M 574 602 C 568 626 555 654 531 685 C 518 700 532 697 543 692 C 569 680 586 649 603 626 C 609 615 576 590 574 602 Z"/>
    <path id="p13" d="M 603 626 C 616 637 625 646 632 648 C 634 648 637 645 640 642 C 643 637 643 627 637 611 C 631 595 599 579 543 561 C 539 559 538 560 538 565 C 537 568 549 581 574 602 C 593 618 593 618 603 626 Z"/>
    <path id="p14" d="M 760 554 C 757 576 747 606 720 641 C 704 660 722 651 731 646 C 761 631 776 608 793 586 C 803 574 763 539 760 554 Z"/>
    <path id="p15" d="M 793 586 C 825 617 842 635 846 636 C 849 637 852 634 856 630 C 860 624 862 613 856 595 C 847 568 807 543 741 517 C 736 515 734 516 734 522 C 733 524 741 536 760 554 C 782 575 782 575 793 586 Z"/>

    <clipPath id="z36635c1"><use href="#p1"/></clipPath>
    <clipPath id="z36635c2"><use href="#p2"/></clipPath>
    <clipPath id="z36635c3"><use href="#p3"/></clipPath>
    <clipPath id="z36635c4"><use href="#p4"/></clipPath>
    <clipPath id="z36635c5"><use href="#p5"/></clipPath>
    <clipPath id="z36635c6"><use href="#p6"/></clipPath>
    <clipPath id="z36635c7"><use href="#p7"/></clipPath>
    <clipPath id="z36635c8"><use href="#p8"/></clipPath>
    <clipPath id="z36635c9"><use href="#p9"/></clipPath>
    <clipPath id="z36635c10"><use href="#p10"/></clipPath>
    <clipPath id="z36635c11"><use href="#p11"/></clipPath>
    <clipPath id="z36635c12"><use href="#p12"/></clipPath>
    <clipPath id="z36635c13"><use href="#p13"/></clipPath>
    <clipPath id="z36635c14"><use href="#p14"/></clipPath>
    <clipPath id="z36635c15"><use href="#p15"/></clipPath>
</defs>
<g id="bg-layer" class="bg">
<use href="#p1"/>
<use href="#p2"/>
<use href="#p3"/>
<use href="#p4"/>
<use href="#p5"/>
<use href="#p6"/>
<use href="#p7"/>
<use href="#p8"/>
<use href="#p9"/>
<use href="#p10"/>
<use href="#p11"/>
<use href="#p12"/>
<use href="#p13"/>
<use href="#p14"/>
<use href="#p15"/>
</g>
<g id="anim-layer">
    <path id="stroke-p1" style="stroke:#FF4444" pathLength="3333" clip-path="url(#z36635c1)" d="M 194 259 L 427 212"/>
    <path id="stroke-p2" style="stroke:#FF4444" pathLength="3333" clip-path="url(#z36635c2)" d="M 123 380 L 158 405 L 212 593"/>
    <path id="stroke-p3" style="stroke:#FF4444" pathLength="3333" clip-path="url(#z36635c3)" d="M 169 385 L 395 335 L 440 354 L 452 370 L 400 573"/>
    <path id="stroke-p4" style="stroke:#FF4444" pathLength="3333" clip-path="url(#z36635c4)" d="M 227 468 L 373 441"/>
    <path id="stroke-p5" style="stroke:#FF4444" pathLength="3333" clip-path="url(#z36635c5)" d="M 216 566 L 380 526"/>
    <path id="stroke-p6" style="stroke:#FF4444" pathLength="3333" clip-path="url(#z36635c6)" d="M 45 698 L 99 706 L 444 627"/>
    <path id="stroke-p7" style="stroke:#FF4444" pathLength="3333" clip-path="url(#z36635c7)" d="M 253 51 L 317 114 L 296 928"/>
    <path id="stroke-p8" style="stroke:#000" pathLength="3333" clip-path="url(#z36635c8)" d="M 555 285 L 857 228"/>
    <path id="stroke-p9" style="stroke:#000" pathLength="3333" clip-path="url(#z36635c9)" d="M 464 469 L 497 530 L 482 785"/>
    <path id="stroke-p10" style="stroke:#000" pathLength="3333" clip-path="url(#z36635c10)" d="M 504 477 L 857 413 L 921 446 L 896 806 L 866 845 L 781 782"/>
    <path id="stroke-p11" style="stroke:#000" pathLength="3333" clip-path="url(#z36635c11)" d="M 652 305 L 687 336 L 674 768"/>
    <path id="stroke-p12" style="stroke:#000" pathLength="3333" clip-path="url(#z36635c12)" d="M 582 605 L 533 691"/>
    <path id="stroke-p13" style="stroke:#000" pathLength="3333" clip-path="url(#z36635c13)" d="M 546 567 L 635 643"/>
    <path id="stroke-p14" style="stroke:#000" pathLength="3333" clip-path="url(#z36635c14)" d="M 767 559 L 769 592 L 722 646"/>
    <path id="stroke-p15" style="stroke:#000" pathLength="3333" clip-path="url(#z36635c15)" d="M 741 524 L 820 582 L 844 627"/>
</g>
</svg>