<svg id="z36712" class="acjk" viewBox="0 0 1024 1024" xmlns="http://www.w3.org/2000/svg">
<style>
<![CDATA[
svg.acjk path[clip-path] {
    animation-duration: 7.300000000000001s;
    animation-timing-function: linear;
    animation-iteration-count: infinite;
    stroke-dasharray: 3337;
    stroke-dashoffset: 3339;
    stroke-width: 128;
    stroke-linecap: round;
    fill: none;
    stroke: #FF4444;
}
svg.acjk .bg { fill: #ccc; opacity: 0.5; }

/* Stroke 1: Starts at 0.0%, finishes at 11.0%, holds until 65.8% */
@keyframes zk1 {
    0%, 0.0% { stroke-dashoffset: 3339; }
    11.0%, 65.8% { stroke-dashoffset: 0; }
    65.9%, 100% { stroke-dashoffset: 3339; }
}
svg.acjk #stroke-p1 { animation-name: zk1; }
/* Stroke 2: Starts at 11.0%, finishes at 21.9%, holds until 65.8% */
@keyframes zk2 {
    0%, 11.0% { stroke-dashoffset: 3339; }
    21.9%, 65.8% { stroke-dashoffset: 0; }
    65.9%, 100% { stroke-dashoffset: 3339; }
}
svg.acjk #stroke-p2 { animation-name: zk2; }
/* Stroke 3: Starts at 21.9%, finishes at 32.9%, holds until 65.8% */
@keyframes zk3 {
    0%, 21.9% { stroke-dashoffset: 3339; }
    32.9%, 65.8% { stroke-dashoffset: 0; }
    65.9%, 100% { stroke-dashoffset: 3339; }
}
svg.acjk #stroke-p3 { animation-name: zk3; }
/* Stroke 4: Starts at 32.9%, finishes at 43.8%, holds until 65.8% */
@keyframes zk4 {
    0%, 32.9% { stroke-dashoffset: 3339; }
    43.8%, 65.8% { stroke-dashoffset: 0; }
    65.9%, 100% { stroke-dashoffset: 3339; }
}
svg.acjk #stroke-p4 { animation-name: zk4; }
/* Stroke 5: Starts at 43.8%, finishes at 54.8%, holds until 65.8% */
@keyframes zk5 {
    0%, 43.8% { stroke-dashoffset: 3339; }
    54.8%, 65.8% { stroke-dashoffset: 0; }
    65.9%, 100% { stroke-dashoffset: 3339; }
}
svg.acjk #stroke-p5 { animation-name: zk5; }
/* Stroke 6: Starts at 54.8%, finishes at 65.8%, holds until 65.8% */
@keyframes zk6 {
    0%, 54.8% { stroke-dashoffset: 3339; }
    65.8%, 65.8% { stroke-dashoffset: 0; }
    65.9%, 100% { stroke-dashoffset: 3339; }
}
svg.acjk #stroke-p6 { animation-name: zk6; }
]]>
</style>
<defs>
    <path id="p1" d="M 293 304 Q 348 288 405 276 Q 442 266 448 259 Q 457 252 452 243 Q 445 233 416 226 Q 391 223 316 251 C 280 262 280 262 262 267 Q 211 279 155 288 Q 121 295 146 310 Q 194 331 241 316 Q 242 315 245 316 C 277 308 277 308 293 304 Z"/>
    <path id="p2" d="M 312 484 Q 275 493 233 504 Q 220 507 219 504 Q 218 503 219 493 Q 249 406 293 304 C 308 269 308 269 316 251 Q 317 245 321 240 Q 352 164 368 150 Q 381 137 364 117 Q 337 90 316 77 Q 303 70 292 72 Q 283 76 290 98 Q 302 137 262 267 C 251 300 251 300 245 316 Q 244 317 244 321 Q 192 457 149 509 Q 133 525 139 541 Q 146 560 157 572 Q 167 581 178 576 Q 212 554 297 526 Q 303 523 312 522 C 341 514 341 514 355 510 Q 386 500 417 497 Q 447 493 437 480 Q 427 467 409 461 Q 393 455 356 471 C 327 480 327 480 312 484 Z"/>
    <path id="p3" d="M 356 471 Q 357 444 361 429 Q 364 417 357 412 Q 335 393 317 384 Q 307 380 298 387 Q 292 391 299 400 Q 311 419 312 484 C 312 509 312 509 312 522 Q 311 573 309 626 C 308 655 308 655 307 669 Q 298 795 291 818 Q 282 854 314 901 Q 324 917 331 922 Q 341 923 347 911 Q 359 881 355 853 Q 352 744 353 649 C 353 624 353 624 353 612 Q 353 545 355 510 C 356 484 356 484 356 471 Z"/>
    <path id="p4" d="M 309 626 Q 236 650 155 675 Q 134 682 101 681 Q 88 682 87 693 Q 86 706 94 714 Q 116 730 150 748 Q 160 751 172 742 Q 215 709 307 669 C 338 656 338 656 353 649 Q 428 613 445 601 Q 458 594 458 584 Q 452 578 440 581 Q 397 596 353 612 C 324 621 324 621 309 626 Z"/>
    <path id="p5" d="M 579 437 Q 560 620 415 856 Q 409 863 408 869 Q 405 881 416 878 Q 443 874 525 755 Q 544 721 563 682 Q 614 568 637 418 C 641 393 641 393 643 380 Q 646 352 649 325 Q 655 247 663 214 Q 673 199 665 185 Q 647 167 615 153 Q 594 143 581 147 Q 568 154 575 169 Q 597 203 594 259 Q 593 275 592 297 Q 591 351 584 402 C 581 425 581 425 579 437 Z"/>
    <path id="p6" d="M 637 418 Q 715 388 723 393 Q 729 399 726 416 Q 690 714 764 818 Q 848 924 940 919 Q 943 918 946 918 Q 962 915 959 893 Q 946 827 951 710 Q 951 694 947 694 Q 943 693 936 707 Q 926 738 915 783 Q 908 816 888 829 Q 881 835 856 822 Q 771 771 763 663 Q 756 590 780 478 Q 792 426 812 400 Q 837 382 833 370 Q 829 354 771 330 Q 752 320 733 336 Q 703 355 643 380 C 604 395 604 395 584 402 Q 502 426 453 431 Q 429 435 445 446 Q 476 468 544 447 Q 559 441 579 437 C 618 424 618 424 637 418 Z"/>

    <clipPath id="z36712c1"><use href="#p1"/></clipPath>
    <clipPath id="z36712c2"><use href="#p2"/></clipPath>
    <clipPath id="z36712c3"><use href="#p3"/></clipPath>
    <clipPath id="z36712c4"><use href="#p4"/></clipPath>
    <clipPath id="z36712c5"><use href="#p5"/></clipPath>
    <clipPath id="z36712c6"><use href="#p6"/></clipPath>
</defs>
<g id="bg-layer" class="bg">
<use href="#p1"/>
<use href="#p2"/>
<use href="#p3"/>
<use href="#p4"/>
<use href="#p5"/>
<use href="#p6"/>
</g>
<g id="anim-layer">
    <path id="stroke-p1" style="stroke:#FF4444" pathLength="3333" clip-path="url(#z36712c1)" d="M 147 299 L 450 248"/>
    <path id="stroke-p2" style="stroke:#FF4444" pathLength="3333" clip-path="url(#z36712c2)" d="M 297 81 L 331 143 L 180 525 L 196 540 L 434 481"/>
    <path id="stroke-p3" style="stroke:#FF4444" pathLength="3333" clip-path="url(#z36712c3)" d="M 303 392 L 335 426 L 333 917"/>
    <path id="stroke-p4" style="stroke:#FF4444" pathLength="3333" clip-path="url(#z36712c4)" d="M 91 694 L 159 711 L 449 586"/>
    <path id="stroke-p5" style="stroke:#000" pathLength="3333" clip-path="url(#z36712c5)" d="M 578 154 L 630 215 L 590 523 L 516 722 L 413 871"/>
    <path id="stroke-p6" style="stroke:#000" pathLength="3333" clip-path="url(#z36712c6)" d="M 446 438 L 764 370 L 780 386 L 750 470 L 738 632 L 768 772 L 836 848 L 920 870 L 945 704"/>
</g>
</svg>