<svg id="z36715" class="acjk" viewBox="0 0 1024 1024" xmlns="http://www.w3.org/2000/svg">
<style>
<![CDATA[
svg.acjk path[clip-path] {
    animation-duration: 8.100000000000001s;
    animation-timing-function: linear;
    animation-iteration-count: infinite;
    stroke-dasharray: 3337;
    stroke-dashoffset: 3339;
    stroke-width: 128;
    stroke-linecap: round;
    fill: none;
    stroke: #FF4444;
}
svg.acjk .bg { fill: #ccc; opacity: 0.5; }

/* Stroke 1: Starts at 0.0%, finishes at 9.9%, holds until 69.1% */
@keyframes zk1 {
    0%, 0.0% { stroke-dashoffset: 3339; }
    9.9%, 69.1% { stroke-dashoffset: 0; }
    69.2%, 100% { stroke-dashoffset: 3339; }
}
svg.acjk #stroke-p1 { animation-name: zk1; }
/* Stroke 2: Starts at 9.9%, finishes at 19.8%, holds until 69.1% */
@keyframes zk2 {
    0%, 9.9% { stroke-dashoffset: 3339; }
    19.8%, 69.1% { stroke-dashoffset: 0; }
    69.2%, 100% { stroke-dashoffset: 3339; }
}
svg.acjk #stroke-p2 { animation-name: zk2; }
/* Stroke 3: Starts at 19.8%, finishes at 29.6%, holds until 69.1% */
@keyframes zk3 {
    0%, 19.8% { stroke-dashoffset: 3339; }
    29.6%, 69.1% { stroke-dashoffset: 0; }
    69.2%, 100% { stroke-dashoffset: 3339; }
}
svg.acjk #stroke-p3 { animation-name: zk3; }
/* Stroke 4: Starts at 29.6%, finishes at 39.5%, holds until 69.1% */
@keyframes zk4 {
    0%, 29.6% { stroke-dashoffset: 3339; }
    39.5%, 69.1% { stroke-dashoffset: 0; }
    69.2%, 100% { stroke-dashoffset: 3339; }
}
svg.acjk #stroke-p4 { animation-name: zk4; }
/* Stroke 5: Starts at 39.5%, finishes at 49.4%, holds until 69.1% */
@keyframes zk5 {
    0%, 39.5% { stroke-dashoffset: 3339; }
    49.4%, 69.1% { stroke-dashoffset: 0; }
    69.2%, 100% { stroke-dashoffset: 3339; }
}
svg.acjk #stroke-p5 { animation-name: zk5; }
/* Stroke 6: Starts at 49.4%, finishes at 59.3%, holds until 69.1% */
@keyframes zk6 {
    0%, 49.4% { stroke-dashoffset: 3339; }
    59.3%, 69.1% { stroke-dashoffset: 0; }
    69.2%, 100% { stroke-dashoffset: 3339; }
}
svg.acjk #stroke-p6 { animation-name: zk6; }
/* Stroke 7: Starts at 59.3%, finishes at 69.1%, holds until 69.1% */
@keyframes zk7 {
    0%, 59.3% { stroke-dashoffset: 3339; }
    69.1%, 69.1% { stroke-dashoffset: 0; }
    69.2%, 100% { stroke-dashoffset: 3339; }
}
svg.acjk #stroke-p7 { animation-name: zk7; }
]]>
</style>
<defs>
    <path id="p1" d="M 314 282 Q 498 240 503 237 Q 512 230 507 220 Q 500 208 470 201 Q 439 194 408 207 Q 374 217 337 229 C 300 238 300 238 282 243 Q 230 253 174 258 Q 137 265 163 282 Q 208 306 263 292 Q 264 291 266 292 C 298 285 298 285 314 282 Z"/>
    <path id="p2" d="M 392 501 Q 425 494 459 493 Q 489 492 480 477 Q 471 464 454 456 Q 436 450 395 464 C 362 471 362 471 346 475 Q 303 482 252 492 Q 236 495 234 492 Q 228 480 314 282 C 329 247 329 247 337 229 Q 368 159 384 146 Q 397 133 380 113 Q 353 86 332 72 Q 319 65 308 68 Q 299 72 306 94 Q 312 127 282 243 C 271 276 271 276 266 292 Q 197 457 164 492 Q 148 508 153 524 Q 160 545 172 556 Q 182 565 192 560 Q 231 539 326 515 Q 333 512 345 511 C 376 504 376 504 392 501 Z"/>
    <path id="p3" d="M 336 658 Q 321 793 315 812 Q 303 846 337 903 Q 347 922 356 927 Q 368 928 373 915 Q 386 884 384 852 Q 384 738 387 639 C 388 618 388 618 388 607 Q 388 565 392 501 C 394 476 394 476 395 464 Q 396 428 402 409 Q 405 397 398 391 Q 374 369 356 359 Q 343 355 334 362 Q 328 366 335 376 Q 344 392 346 475 C 345 499 345 499 345 511 Q 342 601 338 621 C 337 646 337 646 336 658 Z"/>
    <path id="p4" d="M 387 639 Q 388 638 393 636 Q 453 614 454 596 Q 450 592 437 593 Q 412 600 388 607 C 355 616 355 616 338 621 Q 247 643 149 667 Q 130 671 96 670 Q 83 671 81 681 Q 78 694 87 702 Q 109 720 141 739 Q 151 743 163 735 Q 217 699 336 658 C 370 645 370 645 387 639 Z"/>
    <path id="p5" d="M 664 363 Q 731 344 801 335 Q 814 334 819 341 Q 826 360 823 408 Q 810 585 775 679 Q 759 737 738 756 Q 726 769 700 762 Q 664 752 631 743 Q 609 737 625 757 Q 674 805 700 842 Q 712 863 732 855 Q 753 852 778 823 Q 851 745 874 452 Q 878 386 903 348 Q 919 326 910 316 Q 894 297 858 283 Q 833 270 806 283 Q 668 341 530 343 Q 511 342 511 352 Q 510 362 532 376 Q 559 394 584 385 Q 603 378 626 373 C 651 366 651 366 664 363 Z"/>
    <path id="p6" d="M 626 373 Q 626 374 627 378 Q 658 514 540 683 Q 537 686 535 689 Q 504 738 417 827 Q 411 834 418 837 Q 425 838 436 833 Q 500 796 550 741 Q 638 654 687 466 Q 696 435 708 406 Q 715 396 708 387 Q 701 377 668 364 Q 667 363 664 363 C 651 360 623 360 626 373 Z"/>
    <path id="p7" d="M 536 460 Q 518 509 491 553 Q 476 581 491 606 Q 497 619 513 610 Q 553 579 558 505 Q 561 480 555 460 Q 551 453 546 453 Q 539 454 536 460 Z"/>

    <clipPath id="z36715c1"><use href="#p1"/></clipPath>
    <clipPath id="z36715c2"><use href="#p2"/></clipPath>
    <clipPath id="z36715c3"><use href="#p3"/></clipPath>
    <clipPath id="z36715c4"><use href="#p4"/></clipPath>
    <clipPath id="z36715c5"><use href="#p5"/></clipPath>
    <clipPath id="z36715c6"><use href="#p6"/></clipPath>
    <clipPath id="z36715c7"><use href="#p7"/></clipPath>
</defs>
<g id="bg-layer" class="bg">
<use href="#p1"/>
<use href="#p2"/>
<use href="#p3"/>
<use href="#p4"/>
<use href="#p5"/>
<use href="#p6"/>
<use href="#p7"/>
</g>
<g id="anim-layer">
    <path id="stroke-p1" style="stroke:#FF4444" pathLength="3333" clip-path="url(#z36715c1)" d="M 159 270 L 501 226"/>
    <path id="stroke-p2" style="stroke:#FF4444" pathLength="3333" clip-path="url(#z36715c2)" d="M 312 72 L 345 142 L 196 512 L 217 526 L 477 478"/>
    <path id="stroke-p3" style="stroke:#FF4444" pathLength="3333" clip-path="url(#z36715c3)" d="M 340 367 L 372 405 L 353 919"/>
    <path id="stroke-p4" style="stroke:#FF4444" pathLength="3333" clip-path="url(#z36715c4)" d="M 87 683 L 150 703 L 448 599"/>
    <path id="stroke-p5" style="stroke:#000" pathLength="3333" clip-path="url(#z36715c5)" d="M 516 353 L 573 364 L 818 307 L 866 335 L 826 608 L 777 762 L 719 810 L 626 749"/>
    <path id="stroke-p6" style="stroke:#000" pathLength="3333" clip-path="url(#z36715c6)" d="M 633 375 L 672 405 L 621 589 L 550 708 L 422 833"/>
    <path id="stroke-p7" style="stroke:#000" pathLength="3333" clip-path="url(#z36715c7)" d="M 547 460 L 499 608"/>
</g>
</svg>