<svg id="z36722" class="acjk" viewBox="0 0 1024 1024" xmlns="http://www.w3.org/2000/svg">
<style>
<![CDATA[
svg.acjk path[clip-path] {
    animation-duration: 9.7s;
    animation-timing-function: linear;
    animation-iteration-count: infinite;
    stroke-dasharray: 3337;
    stroke-dashoffset: 3339;
    stroke-width: 128;
    stroke-linecap: round;
    fill: none;
    stroke: #FF4444;
}
svg.acjk .bg { fill: #ccc; opacity: 0.5; }

/* Stroke 1: Starts at 0.0%, finishes at 8.2%, holds until 74.2% */
@keyframes zk1 {
    0%, 0.0% { stroke-dashoffset: 3339; }
    8.2%, 74.2% { stroke-dashoffset: 0; }
    74.3%, 100% { stroke-dashoffset: 3339; }
}
svg.acjk #stroke-p1 { animation-name: zk1; }
/* Stroke 2: Starts at 8.2%, finishes at 16.5%, holds until 74.2% */
@keyframes zk2 {
    0%, 8.2% { stroke-dashoffset: 3339; }
    16.5%, 74.2% { stroke-dashoffset: 0; }
    74.3%, 100% { stroke-dashoffset: 3339; }
}
svg.acjk #stroke-p2 { animation-name: zk2; }
/* Stroke 3: Starts at 16.5%, finishes at 24.7%, holds until 74.2% */
@keyframes zk3 {
    0%, 16.5% { stroke-dashoffset: 3339; }
    24.7%, 74.2% { stroke-dashoffset: 0; }
    74.3%, 100% { stroke-dashoffset: 3339; }
}
svg.acjk #stroke-p3 { animation-name: zk3; }
/* Stroke 4: Starts at 24.7%, finishes at 33.0%, holds until 74.2% */
@keyframes zk4 {
    0%, 24.7% { stroke-dashoffset: 3339; }
    33.0%, 74.2% { stroke-dashoffset: 0; }
    74.3%, 100% { stroke-dashoffset: 3339; }
}
svg.acjk #stroke-p4 { animation-name: zk4; }
/* Stroke 5: Starts at 33.0%, finishes at 41.2%, holds until 74.2% */
@keyframes zk5 {
    0%, 33.0% { stroke-dashoffset: 3339; }
    41.2%, 74.2% { stroke-dashoffset: 0; }
    74.3%, 100% { stroke-dashoffset: 3339; }
}
svg.acjk #stroke-p5 { animation-name: zk5; }
/* Stroke 6: Starts at 41.2%, finishes at 49.5%, holds until 74.2% */
@keyframes zk6 {
    0%, 41.2% { stroke-dashoffset: 3339; }
    49.5%, 74.2% { stroke-dashoffset: 0; }
    74.3%, 100% { stroke-dashoffset: 3339; }
}
svg.acjk #stroke-p6 { animation-name: zk6; }
/* Stroke 7: Starts at 49.5%, finishes at 57.7%, holds until 74.2% */
@keyframes zk7 {
    0%, 49.5% { stroke-dashoffset: 3339; }
    57.7%, 74.2% { stroke-dashoffset: 0; }
    74.3%, 100% { stroke-dashoffset: 3339; }
}
svg.acjk #stroke-p7 { animation-name: zk7; }
/* Stroke 8: Starts at 57.7%, finishes at 66.0%, holds until 74.2% */
@keyframes zk8 {
    0%, 57.7% { stroke-dashoffset: 3339; }
    66.0%, 74.2% { stroke-dashoffset: 0; }
    74.3%, 100% { stroke-dashoffset: 3339; }
}
svg.acjk #stroke-p8 { animation-name: zk8; }
/* Stroke 9: Starts at 66.0%, finishes at 74.2%, holds until 74.2% */
@keyframes zk9 {
    0%, 66.0% { stroke-dashoffset: 3339; }
    74.2%, 74.2% { stroke-dashoffset: 0; }
    74.3%, 100% { stroke-dashoffset: 3339; }
}
svg.acjk #stroke-p9 { animation-name: zk9; }
]]>
</style>
<defs>
    <path id="p1" d="M 283 264 Q 461 222 463 221 Q 472 214 467 204 Q 460 192 430 185 Q 399 178 368 191 Q 337 201 306 210 C 271 219 271 219 254 223 Q 202 232 146 238 Q 109 244 135 262 Q 178 286 235 273 Q 236 272 239 273 C 268 267 268 267 283 264 Z"/>
    <path id="p2" d="M 361 474 Q 395 465 428 464 Q 456 461 447 448 Q 438 435 422 428 Q 413 425 363 438 C 330 446 330 446 314 450 Q 272 457 224 469 Q 209 472 207 469 Q 201 457 283 264 C 298 228 298 228 306 210 Q 337 140 351 127 Q 363 115 347 96 Q 322 71 301 58 Q 288 51 278 53 Q 271 57 276 79 Q 285 109 254 223 C 244 256 244 256 239 273 Q 173 436 141 470 Q 126 486 131 501 Q 138 520 149 531 Q 158 540 168 535 Q 222 502 314 484 C 345 477 345 477 361 474 Z"/>
    <path id="p3" d="M 304 644 Q 285 809 291 827 Q 297 848 309 867 Q 319 886 328 890 Q 340 893 345 879 Q 358 846 355 816 Q 355 713 356 621 C 357 598 357 598 357 586 Q 358 553 360 524 Q 360 496 361 474 C 362 450 362 450 363 438 Q 364 401 370 381 Q 373 369 366 362 Q 344 341 323 331 Q 311 327 302 335 Q 296 338 303 348 Q 316 370 314 450 C 314 473 314 473 314 484 Q 311 568 307 603 C 305 630 305 630 304 644 Z"/>
    <path id="p4" d="M 356 621 Q 366 615 379 610 Q 406 600 425 585 Q 438 578 438 568 Q 432 562 420 565 Q 389 575 357 586 C 324 597 324 597 307 603 Q 228 625 139 652 Q 120 658 86 658 Q 73 659 71 669 Q 70 682 78 690 Q 100 706 134 725 Q 144 728 156 719 Q 192 692 304 644 C 339 629 339 629 356 621 Z"/>
    <path id="p5" d="M 796 274 Q 839 270 894 268 Q 948 268 953 258 Q 957 246 941 234 Q 884 195 826 215 Q 642 251 471 282 Q 452 285 467 301 Q 480 314 498 318 Q 519 322 534 318 Q 634 287 742 278 C 778 275 778 275 796 274 Z"/>
    <path id="p6" d="M 518 428 Q 508 424 487 420 Q 475 416 472 421 Q 468 427 474 441 Q 499 493 513 579 Q 514 604 530 622 Q 546 641 550 627 Q 554 617 554 598 C 551 577 551 577 550 566 Q 537 479 535 454 C 535 444 528 432 518 428 Z"/>
    <path id="p7" d="M 668 549 Q 687 477 710 455 Q 731 431 710 418 Q 649 385 648 385 Q 639 385 631 390 Q 600 411 518 428 C 508 430 525 456 535 454 Q 547 451 612 437 Q 633 433 638 441 Q 645 447 637 479 Q 630 510 621 545 C 618 561 665 564 668 549 Z"/>
    <path id="p8" d="M 554 598 Q 561 598 569 596 Q 603 587 679 577 Q 689 576 689 567 Q 689 560 668 549 C 655 541 636 542 621 545 Q 617 545 616 546 Q 579 558 550 566 C 540 570 543 598 554 598 Z"/>
    <path id="p9" d="M 709 817 Q 684 808 653 800 Q 640 796 641 804 Q 641 811 652 822 Q 718 879 761 924 Q 773 934 787 917 Q 830 863 826 779 Q 814 494 825 336 Q 832 308 825 297 Q 818 287 796 274 C 781 265 736 261 742 278 Q 757 326 760 348 Q 759 352 760 359 Q 769 792 749 818 Q 737 825 709 817 Z"/>

    <clipPath id="z36722c1"><use href="#p1"/></clipPath>
    <clipPath id="z36722c2"><use href="#p2"/></clipPath>
    <clipPath id="z36722c3"><use href="#p3"/></clipPath>
    <clipPath id="z36722c4"><use href="#p4"/></clipPath>
    <clipPath id="z36722c5"><use href="#p5"/></clipPath>
    <clipPath id="z36722c6"><use href="#p6"/></clipPath>
    <clipPath id="z36722c7"><use href="#p7"/></clipPath>
    <clipPath id="z36722c8"><use href="#p8"/></clipPath>
    <clipPath id="z36722c9"><use href="#p9"/></clipPath>
</defs>
<g id="bg-layer" class="bg">
<use href="#p1"/>
<use href="#p2"/>
<use href="#p3"/>
<use href="#p4"/>
<use href="#p5"/>
<use href="#p6"/>
<use href="#p7"/>
<use href="#p8"/>
<use href="#p9"/>
</g>
<g id="anim-layer">
    <path id="stroke-p1" style="stroke:#FF4444" pathLength="3333" clip-path="url(#z36722c1)" d="M 133 249 L 465 209"/>
    <path id="stroke-p2" style="stroke:#FF4444" pathLength="3333" clip-path="url(#z36722c2)" d="M 282 60 L 315 119 L 173 493 L 443 453"/>
    <path id="stroke-p3" style="stroke:#FF4444" pathLength="3333" clip-path="url(#z36722c3)" d="M 305 336 L 341 376 L 330 885"/>
    <path id="stroke-p4" style="stroke:#FF4444" pathLength="3333" clip-path="url(#z36722c4)" d="M 77 670 L 140 689 L 433 574"/>
    <path id="stroke-p5" style="stroke:#000" pathLength="3333" clip-path="url(#z36722c5)" d="M 468 292 L 860 238 L 949 251"/>
    <path id="stroke-p6" style="stroke:#000" pathLength="3333" clip-path="url(#z36722c6)" d="M 478 427 L 509 459 L 543 626"/>
    <path id="stroke-p7" style="stroke:#000" pathLength="3333" clip-path="url(#z36722c7)" d="M 525 429 L 638 412 L 678 434 L 645 546"/>
    <path id="stroke-p8" style="stroke:#000" pathLength="3333" clip-path="url(#z36722c8)" d="M 558 591 L 681 563"/>
    <path id="stroke-p9" style="stroke:#000" pathLength="3333" clip-path="url(#z36722c9)" d="M 751 284 L 791 312 L 789 814 L 754 876 L 650 806"/>
</g>
</svg>