<svg id="z36777" class="acjk" viewBox="0 0 1024 1024" xmlns="http://www.w3.org/2000/svg">
<style>
<![CDATA[
svg.acjk path[clip-path] {
    animation-duration: 15.3s;
    animation-timing-function: linear;
    animation-iteration-count: infinite;
    stroke-dasharray: 3337;
    stroke-dashoffset: 3339;
    stroke-width: 128;
    stroke-linecap: round;
    fill: none;
    stroke: #FF4444;
}
svg.acjk .bg { fill: #ccc; opacity: 0.5; }

/* Stroke 1: Starts at 0.0%, finishes at 5.2%, holds until 83.7% */
@keyframes zk1 {
    0%, 0.0% { stroke-dashoffset: 3339; }
    5.2%, 83.7% { stroke-dashoffset: 0; }
    83.8%, 100% { stroke-dashoffset: 3339; }
}
svg.acjk #stroke-p1 { animation-name: zk1; }
/* Stroke 2: Starts at 5.2%, finishes at 10.5%, holds until 83.7% */
@keyframes zk2 {
    0%, 5.2% { stroke-dashoffset: 3339; }
    10.5%, 83.7% { stroke-dashoffset: 0; }
    83.8%, 100% { stroke-dashoffset: 3339; }
}
svg.acjk #stroke-p2 { animation-name: zk2; }
/* Stroke 3: Starts at 10.5%, finishes at 15.7%, holds until 83.7% */
@keyframes zk3 {
    0%, 10.5% { stroke-dashoffset: 3339; }
    15.7%, 83.7% { stroke-dashoffset: 0; }
    83.8%, 100% { stroke-dashoffset: 3339; }
}
svg.acjk #stroke-p3 { animation-name: zk3; }
/* Stroke 4: Starts at 15.7%, finishes at 20.9%, holds until 83.7% */
@keyframes zk4 {
    0%, 15.7% { stroke-dashoffset: 3339; }
    20.9%, 83.7% { stroke-dashoffset: 0; }
    83.8%, 100% { stroke-dashoffset: 3339; }
}
svg.acjk #stroke-p4 { animation-name: zk4; }
/* Stroke 5: Starts at 20.9%, finishes at 26.1%, holds until 83.7% */
@keyframes zk5 {
    0%, 20.9% { stroke-dashoffset: 3339; }
    26.1%, 83.7% { stroke-dashoffset: 0; }
    83.8%, 100% { stroke-dashoffset: 3339; }
}
svg.acjk #stroke-p5 { animation-name: zk5; }
/* Stroke 6: Starts at 26.1%, finishes at 31.4%, holds until 83.7% */
@keyframes zk6 {
    0%, 26.1% { stroke-dashoffset: 3339; }
    31.4%, 83.7% { stroke-dashoffset: 0; }
    83.8%, 100% { stroke-dashoffset: 3339; }
}
svg.acjk #stroke-p6 { animation-name: zk6; }
/* Stroke 7: Starts at 31.4%, finishes at 36.6%, holds until 83.7% */
@keyframes zk7 {
    0%, 31.4% { stroke-dashoffset: 3339; }
    36.6%, 83.7% { stroke-dashoffset: 0; }
    83.8%, 100% { stroke-dashoffset: 3339; }
}
svg.acjk #stroke-p7 { animation-name: zk7; }
/* Stroke 8: Starts at 36.6%, finishes at 41.8%, holds until 83.7% */
@keyframes zk8 {
    0%, 36.6% { stroke-dashoffset: 3339; }
    41.8%, 83.7% { stroke-dashoffset: 0; }
    83.8%, 100% { stroke-dashoffset: 3339; }
}
svg.acjk #stroke-p8 { animation-name: zk8; }
/* Stroke 9: Starts at 41.8%, finishes at 47.1%, holds until 83.7% */
@keyframes zk9 {
    0%, 41.8% { stroke-dashoffset: 3339; }
    47.1%, 83.7% { stroke-dashoffset: 0; }
    83.8%, 100% { stroke-dashoffset: 3339; }
}
svg.acjk #stroke-p9 { animation-name: zk9; }
/* Stroke 10: Starts at 47.1%, finishes at 52.3%, holds until 83.7% */
@keyframes zk10 {
    0%, 47.1% { stroke-dashoffset: 3339; }
    52.3%, 83.7% { stroke-dashoffset: 0; }
    83.8%, 100% { stroke-dashoffset: 3339; }
}
svg.acjk #stroke-p10 { animation-name: zk10; }
/* Stroke 11: Starts at 52.3%, finishes at 57.5%, holds until 83.7% */
@keyframes zk11 {
    0%, 52.3% { stroke-dashoffset: 3339; }
    57.5%, 83.7% { stroke-dashoffset: 0; }
    83.8%, 100% { stroke-dashoffset: 3339; }
}
svg.acjk #stroke-p11 { animation-name: zk11; }
/* Stroke 12: Starts at 57.5%, finishes at 62.7%, holds until 83.7% */
@keyframes zk12 {
    0%, 57.5% { stroke-dashoffset: 3339; }
    62.7%, 83.7% { stroke-dashoffset: 0; }
    83.8%, 100% { stroke-dashoffset: 3339; }
}
svg.acjk #stroke-p12 { animation-name: zk12; }
/* Stroke 13: Starts at 62.7%, finishes at 68.0%, holds until 83.7% */
@keyframes zk13 {
    0%, 62.7% { stroke-dashoffset: 3339; }
    68.0%, 83.7% { stroke-dashoffset: 0; }
    83.8%, 100% { stroke-dashoffset: 3339; }
}
svg.acjk #stroke-p13 { animation-name: zk13; }
/* Stroke 14: Starts at 68.0%, finishes at 73.2%, holds until 83.7% */
@keyframes zk14 {
    0%, 68.0% { stroke-dashoffset: 3339; }
    73.2%, 83.7% { stroke-dashoffset: 0; }
    83.8%, 100% { stroke-dashoffset: 3339; }
}
svg.acjk #stroke-p14 { animation-name: zk14; }
/* Stroke 15: Starts at 73.2%, finishes at 78.4%, holds until 83.7% */
@keyframes zk15 {
    0%, 73.2% { stroke-dashoffset: 3339; }
    78.4%, 83.7% { stroke-dashoffset: 0; }
    83.8%, 100% { stroke-dashoffset: 3339; }
}
svg.acjk #stroke-p15 { animation-name: zk15; }
/* Stroke 16: Starts at 78.4%, finishes at 83.7%, holds until 83.7% */
@keyframes zk16 {
    0%, 78.4% { stroke-dashoffset: 3339; }
    83.7%, 83.7% { stroke-dashoffset: 0; }
    83.8%, 100% { stroke-dashoffset: 3339; }
}
svg.acjk #stroke-p16 { animation-name: zk16; }
]]>
</style>
<defs>
    <path id="p1" d="M 240 123 Q 262 141 286 163 Q 299 175 314 173 Q 324 172 329 160 Q 333 145 323 117 Q 311 90 233 77 Q 218 74 212 77 Q 208 81 209 93 Q 213 103 240 123 Z"/>
    <path id="p2" d="M 165 245 Q 137 252 158 264 Q 188 279 269 259 Q 312 247 360 235 Q 388 228 392 223 Q 399 216 395 209 Q 388 200 365 196 Q 340 192 317 203 Q 286 216 250 227 Q 211 239 165 245 Z"/>
    <path id="p3" d="M 151 337 Q 169 403 191 413 Q 201 417 213 405 Q 217 395 217 375 Q 208 342 163 317 Q 156 313 152 322 Q 148 328 151 337 Z"/>
    <path id="p4" d="M 288 423 Q 336 339 356 311 Q 369 301 361 293 Q 354 280 329 263 Q 317 254 303 260 Q 296 264 300 273 Q 309 307 267 408 Q 263 420 261 430 C 259 439 284 431 288 423 Z"/>
    <path id="p5" d="M 268 467 Q 280 464 391 441 Q 400 442 407 431 Q 407 421 387 413 Q 356 397 291 422 Q 290 422 288 423 C 270 428 270 428 261 430 Q 257 430 254 432 Q 251 432 94 467 Q 70 471 90 485 Q 117 503 153 495 Q 184 486 225 477 C 254 470 254 470 268 467 Z"/>
    <path id="p6" d="M 288 588 Q 331 575 385 562 Q 398 558 399 552 Q 399 542 383 535 Q 353 526 292 549 C 254 560 254 560 235 566 Q 171 584 121 594 Q 111 597 108 603 Q 107 613 120 621 Q 150 637 195 624 Q 213 615 233 609 C 270 595 270 595 288 588 Z"/>
    <path id="p7" d="M 233 609 Q 221 726 153 854 Q 152 857 150 860 Q 146 866 143 872 Q 142 881 151 879 Q 184 872 237 773 Q 237 770 240 767 Q 276 689 288 588 C 291 562 291 562 292 549 Q 299 489 300 488 Q 287 476 268 467 C 255 459 216 466 225 477 Q 243 495 235 566 C 234 595 234 595 233 609 Z"/>
    <path id="p8" d="M 467 146 Q 488 167 510 193 Q 520 206 534 206 Q 544 206 549 195 Q 555 183 549 157 Q 542 127 467 104 Q 454 100 448 101 Q 444 104 444 116 Q 445 126 467 146 Z"/>
    <path id="p9" d="M 430 312 Q 388 327 366 329 Q 353 329 351 336 Q 348 343 358 349 Q 391 368 415 358 Q 433 346 449 334 Q 471 322 478 328 Q 487 332 483 355 Q 483 509 456 603 Q 443 630 481 670 Q 491 680 498 674 Q 505 668 513 648 Q 538 605 596 531 Q 605 521 602 514 Q 601 507 592 516 Q 564 538 537 561 Q 509 588 512 550 Q 511 495 528 360 Q 531 341 549 320 Q 559 311 551 301 Q 541 288 509 273 Q 499 269 484 278 Q 450 302 430 312 Z"/>
    <path id="p10" d="M 695 88 Q 734 136 766 150 Q 782 153 791 139 Q 797 126 794 109 Q 788 85 770 72 Q 712 35 681 48 Q 675 49 678 62 Q 679 74 695 88 Z"/>
    <path id="p11" d="M 638 241 Q 605 248 630 263 Q 672 284 719 266 Q 782 250 847 231 Q 877 222 881 218 Q 888 211 884 203 Q 877 193 849 188 Q 821 184 795 197 Q 762 210 726 222 Q 686 234 638 241 Z"/>
    <path id="p12" d="M 637 334 Q 662 401 686 410 Q 698 414 708 400 Q 712 388 709 368 Q 705 352 687 340 Q 660 318 648 312 Q 641 308 636 318 Q 633 325 637 334 Z"/>
    <path id="p13" d="M 794 410 Q 795 406 800 401 Q 818 376 837 342 Q 844 329 860 309 Q 873 299 866 288 Q 859 272 830 254 Q 817 244 802 249 Q 792 253 798 264 Q 805 295 765 399 Q 761 409 757 420 C 752 432 788 421 794 410 Z"/>
    <path id="p14" d="M 741 459 Q 759 447 922 435 Q 965 431 969 424 Q 973 414 958 404 Q 907 373 846 396 Q 822 402 794 410 C 769 417 769 417 757 420 Q 756 420 585 457 Q 567 460 581 473 Q 608 494 655 479 Q 671 473 690 470 C 724 463 724 463 741 459 Z"/>
    <path id="p15" d="M 766 589 Q 826 576 905 575 Q 918 576 922 567 Q 925 557 913 545 Q 868 512 788 541 Q 778 542 767 547 C 729 556 729 556 710 561 Q 658 571 602 584 Q 577 588 596 601 Q 629 619 702 602 Q 705 601 710 600 C 747 593 747 593 766 589 Z"/>
    <path id="p16" d="M 715 928 Q 719 952 726 961 Q 732 968 739 966 Q 752 957 759 901 Q 765 846 764 790 Q 763 745 766 589 C 767 561 767 561 767 547 Q 767 535 775 499 Q 778 483 764 473 Q 751 464 741 459 C 726 450 684 454 690 470 Q 689 470 690 471 Q 703 495 710 556 Q 709 557 710 561 C 710 587 710 587 710 600 Q 711 682 711 793 Q 711 895 715 928 Z"/>

    <clipPath id="z36777c1"><use href="#p1"/></clipPath>
    <clipPath id="z36777c2"><use href="#p2"/></clipPath>
    <clipPath id="z36777c3"><use href="#p3"/></clipPath>
    <clipPath id="z36777c4"><use href="#p4"/></clipPath>
    <clipPath id="z36777c5"><use href="#p5"/></clipPath>
    <clipPath id="z36777c6"><use href="#p6"/></clipPath>
    <clipPath id="z36777c7"><use href="#p7"/></clipPath>
    <clipPath id="z36777c8"><use href="#p8"/></clipPath>
    <clipPath id="z36777c9"><use href="#p9"/></clipPath>
    <clipPath id="z36777c10"><use href="#p10"/></clipPath>
    <clipPath id="z36777c11"><use href="#p11"/></clipPath>
    <clipPath id="z36777c12"><use href="#p12"/></clipPath>
    <clipPath id="z36777c13"><use href="#p13"/></clipPath>
    <clipPath id="z36777c14"><use href="#p14"/></clipPath>
    <clipPath id="z36777c15"><use href="#p15"/></clipPath>
    <clipPath id="z36777c16"><use href="#p16"/></clipPath>
</defs>
<g id="bg-layer" class="bg">
<use href="#p1"/>
<use href="#p2"/>
<use href="#p3"/>
<use href="#p4"/>
<use href="#p5"/>
<use href="#p6"/>
<use href="#p7"/>
<use href="#p8"/>
<use href="#p9"/>
<use href="#p10"/>
<use href="#p11"/>
<use href="#p12"/>
<use href="#p13"/>
<use href="#p14"/>
<use href="#p15"/>
<use href="#p16"/>
</g>
<g id="anim-layer">
    <path id="stroke-p1" style="stroke:#FF4444" pathLength="3333" clip-path="url(#z36777c1)" d="M 216 82 L 320 167"/>
    <path id="stroke-p2" style="stroke:#FF4444" pathLength="3333" clip-path="url(#z36777c2)" d="M 158 254 L 392 218"/>
    <path id="stroke-p3" style="stroke:#FF4444" pathLength="3333" clip-path="url(#z36777c3)" d="M 159 324 L 201 409"/>
    <path id="stroke-p4" style="stroke:#FF4444" pathLength="3333" clip-path="url(#z36777c4)" d="M 308 264 L 331 305 L 267 422"/>
    <path id="stroke-p5" style="stroke:#FF4444" pathLength="3333" clip-path="url(#z36777c5)" d="M 90 476 L 401 429"/>
    <path id="stroke-p6" style="stroke:#FF4444" pathLength="3333" clip-path="url(#z36777c6)" d="M 116 604 L 393 551"/>
    <path id="stroke-p7" style="stroke:#FF4444" pathLength="3333" clip-path="url(#z36777c7)" d="M 235 481 L 268 508 L 250 662 L 215 770 L 150 870"/>
    <path id="stroke-p8" style="stroke:#000" pathLength="3333" clip-path="url(#z36777c8)" d="M 451 110 L 542 200"/>
    <path id="stroke-p9" style="stroke:#000" pathLength="3333" clip-path="url(#z36777c9)" d="M 358 339 L 408 340 L 480 301 L 516 316 L 487 571 L 500 621 L 596 519"/>
    <path id="stroke-p10" style="stroke:#000" pathLength="3333" clip-path="url(#z36777c10)" d="M 684 54 L 782 145"/>
    <path id="stroke-p11" style="stroke:#000" pathLength="3333" clip-path="url(#z36777c11)" d="M 629 252 L 877 208"/>
    <path id="stroke-p12" style="stroke:#000" pathLength="3333" clip-path="url(#z36777c12)" d="M 643 319 L 701 405"/>
    <path id="stroke-p13" style="stroke:#000" pathLength="3333" clip-path="url(#z36777c13)" d="M 805 252 L 832 296 L 763 411"/>
    <path id="stroke-p14" style="stroke:#000" pathLength="3333" clip-path="url(#z36777c14)" d="M 581 464 L 891 411 L 964 418"/>
    <path id="stroke-p15" style="stroke:#000" pathLength="3333" clip-path="url(#z36777c15)" d="M 602 594 L 830 554 L 916 563"/>
    <path id="stroke-p16" style="stroke:#000" pathLength="3333" clip-path="url(#z36777c16)" d="M 698 476 L 739 504 L 737 960"/>
</g>
</svg>