<svg id="z36785" class="acjk" viewBox="0 0 1024 1024" xmlns="http://www.w3.org/2000/svg">
<style>
<![CDATA[
svg.acjk path[clip-path] {
    animation-duration: 10.5s;
    animation-timing-function: linear;
    animation-iteration-count: infinite;
    stroke-dasharray: 3337;
    stroke-dashoffset: 3339;
    stroke-width: 128;
    stroke-linecap: round;
    fill: none;
    stroke: #FF4444;
}
svg.acjk .bg { fill: #ccc; opacity: 0.5; }

/* Stroke 1: Starts at 0.0%, finishes at 7.6%, holds until 76.2% */
@keyframes zk1 {
    0%, 0.0% { stroke-dashoffset: 3339; }
    7.6%, 76.2% { stroke-dashoffset: 0; }
    76.3%, 100% { stroke-dashoffset: 3339; }
}
svg.acjk #stroke-p1 { animation-name: zk1; }
/* Stroke 2: Starts at 7.6%, finishes at 15.2%, holds until 76.2% */
@keyframes zk2 {
    0%, 7.6% { stroke-dashoffset: 3339; }
    15.2%, 76.2% { stroke-dashoffset: 0; }
    76.3%, 100% { stroke-dashoffset: 3339; }
}
svg.acjk #stroke-p2 { animation-name: zk2; }
/* Stroke 3: Starts at 15.2%, finishes at 22.9%, holds until 76.2% */
@keyframes zk3 {
    0%, 15.2% { stroke-dashoffset: 3339; }
    22.9%, 76.2% { stroke-dashoffset: 0; }
    76.3%, 100% { stroke-dashoffset: 3339; }
}
svg.acjk #stroke-p3 { animation-name: zk3; }
/* Stroke 4: Starts at 22.9%, finishes at 30.5%, holds until 76.2% */
@keyframes zk4 {
    0%, 22.9% { stroke-dashoffset: 3339; }
    30.5%, 76.2% { stroke-dashoffset: 0; }
    76.3%, 100% { stroke-dashoffset: 3339; }
}
svg.acjk #stroke-p4 { animation-name: zk4; }
/* Stroke 5: Starts at 30.5%, finishes at 38.1%, holds until 76.2% */
@keyframes zk5 {
    0%, 30.5% { stroke-dashoffset: 3339; }
    38.1%, 76.2% { stroke-dashoffset: 0; }
    76.3%, 100% { stroke-dashoffset: 3339; }
}
svg.acjk #stroke-p5 { animation-name: zk5; }
/* Stroke 6: Starts at 38.1%, finishes at 45.7%, holds until 76.2% */
@keyframes zk6 {
    0%, 38.1% { stroke-dashoffset: 3339; }
    45.7%, 76.2% { stroke-dashoffset: 0; }
    76.3%, 100% { stroke-dashoffset: 3339; }
}
svg.acjk #stroke-p6 { animation-name: zk6; }
/* Stroke 7: Starts at 45.7%, finishes at 53.3%, holds until 76.2% */
@keyframes zk7 {
    0%, 45.7% { stroke-dashoffset: 3339; }
    53.3%, 76.2% { stroke-dashoffset: 0; }
    76.3%, 100% { stroke-dashoffset: 3339; }
}
svg.acjk #stroke-p7 { animation-name: zk7; }
/* Stroke 8: Starts at 53.3%, finishes at 61.0%, holds until 76.2% */
@keyframes zk8 {
    0%, 53.3% { stroke-dashoffset: 3339; }
    61.0%, 76.2% { stroke-dashoffset: 0; }
    76.3%, 100% { stroke-dashoffset: 3339; }
}
svg.acjk #stroke-p8 { animation-name: zk8; }
/* Stroke 9: Starts at 61.0%, finishes at 68.6%, holds until 76.2% */
@keyframes zk9 {
    0%, 61.0% { stroke-dashoffset: 3339; }
    68.6%, 76.2% { stroke-dashoffset: 0; }
    76.3%, 100% { stroke-dashoffset: 3339; }
}
svg.acjk #stroke-p9 { animation-name: zk9; }
/* Stroke 10: Starts at 68.6%, finishes at 76.2%, holds until 76.2% */
@keyframes zk10 {
    0%, 68.6% { stroke-dashoffset: 3339; }
    76.2%, 76.2% { stroke-dashoffset: 0; }
    76.3%, 100% { stroke-dashoffset: 3339; }
}
svg.acjk #stroke-p10 { animation-name: zk10; }
]]>
</style>
<defs>
    <path id="p1" d="M 356 154 C 382 158 404 158 424 155 C 605 120 703 101 717 95 C 717 94 717 94 718 94 C 724 89 725 84 722 79 C 717 72 707 65 690 61 C 670 55 635 65 585 80 C 505 103 424 115 346 123 C 335 125 345 152 356 154 Z"/>
    <path id="p2" d="M 327 355 C 328 349 336 291 351 182 C 352 173 353 164 355 156 C 355 155 355 154 356 154 C 359 144 355 129 346 123 C 337 116 326 111 313 105 C 301 99 292 97 285 101 C 278 104 275 111 280 119 C 308 171 296 277 279 364 C 266 425 220 531 189 580 C 186 584 183 587 183 592 C 181 597 185 600 191 599 C 209 594 241 564 273 501 C 285 477 285 477 291 465 C 305 435 316 401 325 364 C 326 358 326 358 327 355 Z"/>
    <path id="p3" d="M 399 238 C 376 241 373 250 390 259 C 417 274 447 274 480 266 C 528 254 579 244 631 232 C 655 226 668 221 672 218 C 676 213 678 208 675 203 C 670 196 659 189 641 186 C 625 182 587 195 527 213 C 481 226 438 231 399 238 Z"/>
    <path id="p4" d="M 505 353 C 558 342 619 324 759 325 C 771 325 778 322 781 316 C 783 309 780 302 770 296 C 738 275 702 274 660 285 C 536 315 395 341 327 355 C 324 356 323 362 325 364 C 337 376 354 388 373 384 C 398 379 398 379 410 376 C 418 374 436 366 463 361 C 477 358 491 355 505 353 Z"/>
    <path id="p5" d="M 373 384 Q 398 435 386 497 Q 383 522 372 537 Q 362 556 370 574 Q 380 602 396 611 Q 406 618 416 601 Q 438 565 516 474 Q 529 459 531 453 Q 531 441 514 453 Q 439 504 431 504 Q 427 501 425 488 Q 429 430 433 416 Q 437 400 426 390 Q 417 381 410 376 C 400 368 368 372 373 384 Z"/>
    <path id="p6" d="M 651 452 Q 712 421 744 413 Q 760 409 756 395 Q 749 382 732 367 Q 717 354 708 355 Q 698 354 699 364 Q 699 380 659 417 Q 646 427 631 441 C 626 446 644 455 651 452 Z"/>
    <path id="p7" d="M 631 441 Q 576 408 518 362 Q 511 356 505 353 C 493 346 450 356 463 361 Q 499 376 602 464 Q 719 563 756 557 Q 823 548 878 531 Q 906 524 902 515 Q 901 512 871 507 Q 732 489 687 470 Q 666 461 651 452 C 638 445 638 445 631 441 Z"/>
    <path id="p8" d="M 615 656 C 627 655 712 655 872 655 C 886 655 894 653 898 647 C 902 638 899 628 887 619 C 844 586 803 580 761 590 C 720 599 671 605 615 613 C 582 618 582 618 565 620 C 544 622 277 653 150 665 C 135 666 132 672 144 685 C 153 695 165 702 178 706 C 192 710 205 711 217 708 C 333 677 450 666 567 659 C 599 657 599 657 615 656 Z"/>
    <path id="p9" d="M 533 860 Q 499 853 466 845 Q 454 842 455 850 Q 456 856 466 863 Q 536 923 563 959 Q 576 975 591 961 Q 624 931 623 861 Q 620 833 615 656 C 615 627 615 627 615 613 Q 618 586 626 567 Q 633 549 618 537 Q 593 516 565 507 Q 547 501 540 508 Q 534 515 545 529 Q 564 562 565 620 C 566 646 566 646 567 659 Q 571 845 554 858 Q 547 864 533 860 Z"/>
    <path id="p10" d="M 386 750 Q 410 766 434 788 Q 447 798 460 797 Q 470 796 473 784 Q 476 771 466 746 Q 460 730 434 720 Q 371 702 360 709 Q 356 713 358 724 Q 362 734 386 750 Z"/>

    <clipPath id="z36785c1"><use href="#p1"/></clipPath>
    <clipPath id="z36785c2"><use href="#p2"/></clipPath>
    <clipPath id="z36785c3"><use href="#p3"/></clipPath>
    <clipPath id="z36785c4"><use href="#p4"/></clipPath>
    <clipPath id="z36785c5"><use href="#p5"/></clipPath>
    <clipPath id="z36785c6"><use href="#p6"/></clipPath>
    <clipPath id="z36785c7"><use href="#p7"/></clipPath>
    <clipPath id="z36785c8"><use href="#p8"/></clipPath>
    <clipPath id="z36785c9"><use href="#p9"/></clipPath>
    <clipPath id="z36785c10"><use href="#p10"/></clipPath>
</defs>
<g id="bg-layer" class="bg">
<use href="#p1"/>
<use href="#p2"/>
<use href="#p3"/>
<use href="#p4"/>
<use href="#p5"/>
<use href="#p6"/>
<use href="#p7"/>
<use href="#p8"/>
<use href="#p9"/>
<use href="#p10"/>
</g>
<g id="anim-layer">
    <path id="stroke-p1" style="stroke:#FF4444" pathLength="3333" clip-path="url(#z36785c1)" d="M 355 129 L 719 81"/>
    <path id="stroke-p2" style="stroke:#FF4444" pathLength="3333" clip-path="url(#z36785c2)" d="M 286 107 L 325 160 L 304 353 L 255 496 L 189 592"/>
    <path id="stroke-p3" style="stroke:#FF4444" pathLength="3333" clip-path="url(#z36785c3)" d="M 387 246 L 461 249 L 669 200"/>
    <path id="stroke-p4" style="stroke:#FF4444" pathLength="3333" clip-path="url(#z36785c4)" d="M 332 362 L 681 303 L 777 310"/>
    <path id="stroke-p5" style="stroke:#FF4444" pathLength="3333" clip-path="url(#z36785c5)" d="M 381 388 L 410 414 L 402 527 L 418 561 L 524 455"/>
    <path id="stroke-p6" style="stroke:#FF4444" pathLength="3333" clip-path="url(#z36785c6)" d="M 709 364 L 717 392 L 640 443"/>
    <path id="stroke-p7" style="stroke:#FF4444" pathLength="3333" clip-path="url(#z36785c7)" d="M 475 363 L 713 510 L 894 518"/>
    <path id="stroke-p8" style="stroke:#000" pathLength="3333" clip-path="url(#z36785c8)" d="M 145 674 L 204 685 L 779 620 L 896 641"/>
    <path id="stroke-p9" style="stroke:#000" pathLength="3333" clip-path="url(#z36785c9)" d="M 545 514 L 594 563 L 586 887 L 562 916 L 463 852"/>
    <path id="stroke-p10" style="stroke:#000" pathLength="3333" clip-path="url(#z36785c10)" d="M 367 717 L 468 786"/>
</g>
</svg>