<svg id="z36902" class="acjk" viewBox="0 0 1024 1024" xmlns="http://www.w3.org/2000/svg">
<style>
<![CDATA[
svg.acjk path[clip-path] {
    animation-duration: 10.5s;
    animation-timing-function: linear;
    animation-iteration-count: infinite;
    stroke-dasharray: 3337;
    stroke-dashoffset: 3339;
    stroke-width: 128;
    stroke-linecap: round;
    fill: none;
    stroke: #FF4444;
}
svg.acjk .bg { fill: #ccc; opacity: 0.5; }

/* Stroke 1: Starts at 0.0%, finishes at 7.6%, holds until 76.2% */
@keyframes zk1 {
    0%, 0.0% { stroke-dashoffset: 3339; }
    7.6%, 76.2% { stroke-dashoffset: 0; }
    76.3%, 100% { stroke-dashoffset: 3339; }
}
svg.acjk #stroke-p1 { animation-name: zk1; }
/* Stroke 2: Starts at 7.6%, finishes at 15.2%, holds until 76.2% */
@keyframes zk2 {
    0%, 7.6% { stroke-dashoffset: 3339; }
    15.2%, 76.2% { stroke-dashoffset: 0; }
    76.3%, 100% { stroke-dashoffset: 3339; }
}
svg.acjk #stroke-p2 { animation-name: zk2; }
/* Stroke 3: Starts at 15.2%, finishes at 22.9%, holds until 76.2% */
@keyframes zk3 {
    0%, 15.2% { stroke-dashoffset: 3339; }
    22.9%, 76.2% { stroke-dashoffset: 0; }
    76.3%, 100% { stroke-dashoffset: 3339; }
}
svg.acjk #stroke-p3 { animation-name: zk3; }
/* Stroke 4: Starts at 22.9%, finishes at 30.5%, holds until 76.2% */
@keyframes zk4 {
    0%, 22.9% { stroke-dashoffset: 3339; }
    30.5%, 76.2% { stroke-dashoffset: 0; }
    76.3%, 100% { stroke-dashoffset: 3339; }
}
svg.acjk #stroke-p4 { animation-name: zk4; }
/* Stroke 5: Starts at 30.5%, finishes at 38.1%, holds until 76.2% */
@keyframes zk5 {
    0%, 30.5% { stroke-dashoffset: 3339; }
    38.1%, 76.2% { stroke-dashoffset: 0; }
    76.3%, 100% { stroke-dashoffset: 3339; }
}
svg.acjk #stroke-p5 { animation-name: zk5; }
/* Stroke 6: Starts at 38.1%, finishes at 45.7%, holds until 76.2% */
@keyframes zk6 {
    0%, 38.1% { stroke-dashoffset: 3339; }
    45.7%, 76.2% { stroke-dashoffset: 0; }
    76.3%, 100% { stroke-dashoffset: 3339; }
}
svg.acjk #stroke-p6 { animation-name: zk6; }
/* Stroke 7: Starts at 45.7%, finishes at 53.3%, holds until 76.2% */
@keyframes zk7 {
    0%, 45.7% { stroke-dashoffset: 3339; }
    53.3%, 76.2% { stroke-dashoffset: 0; }
    76.3%, 100% { stroke-dashoffset: 3339; }
}
svg.acjk #stroke-p7 { animation-name: zk7; }
/* Stroke 8: Starts at 53.3%, finishes at 61.0%, holds until 76.2% */
@keyframes zk8 {
    0%, 53.3% { stroke-dashoffset: 3339; }
    61.0%, 76.2% { stroke-dashoffset: 0; }
    76.3%, 100% { stroke-dashoffset: 3339; }
}
svg.acjk #stroke-p8 { animation-name: zk8; }
/* Stroke 9: Starts at 61.0%, finishes at 68.6%, holds until 76.2% */
@keyframes zk9 {
    0%, 61.0% { stroke-dashoffset: 3339; }
    68.6%, 76.2% { stroke-dashoffset: 0; }
    76.3%, 100% { stroke-dashoffset: 3339; }
}
svg.acjk #stroke-p9 { animation-name: zk9; }
/* Stroke 10: Starts at 68.6%, finishes at 76.2%, holds until 76.2% */
@keyframes zk10 {
    0%, 68.6% { stroke-dashoffset: 3339; }
    76.2%, 76.2% { stroke-dashoffset: 0; }
    76.3%, 100% { stroke-dashoffset: 3339; }
}
svg.acjk #stroke-p10 { animation-name: zk10; }
]]>
</style>
<defs>
    <path id="p1" d="M 447 199 Q 410 203 436 222 Q 478 247 535 235 Q 643 216 755 195 Q 807 183 814 177 Q 824 170 819 160 Q 812 148 782 140 Q 757 134 641 168 Q 533 189 447 199 Z"/>
    <path id="p2" d="M 434 457 Q 435 390 439 370 C 441 361 432 352 425 346 Q 409 333 389 327 Q 382 326 376 332 Q 373 336 380 345 Q 413 435 387 584 Q 375 657 375 660 Q 382 687 391 697 Q 401 707 408 697 Q 429 673 431 575 Q 431 527 433 479 C 434 464 434 464 434 457 Z"/>
    <path id="p3" d="M 439 370 Q 460 366 510 352 Q 525 348 529 355 Q 533 365 534 380 Q 541 527 534 617 Q 533 636 527 644 Q 524 648 510 645 Q 495 642 480 638 Q 464 631 465 639 Q 499 679 516 706 Q 526 722 538 726 Q 545 730 553 722 Q 587 688 588 642 Q 570 399 590 366 Q 600 350 590 342 Q 574 327 544 315 Q 532 309 480 333 Q 459 339 425 346 C 416 348 430 372 439 370 Z"/>
    <path id="p4" d="M 433 479 Q 436 483 441 490 Q 460 514 480 542 Q 486 551 495 553 Q 501 554 506 547 Q 510 540 509 521 Q 509 505 489 489 Q 444 456 434 457 C 427 456 429 473 433 479 Z"/>
    <path id="p5" d="M 661 332 Q 648 323 633 319 Q 626 318 621 325 Q 618 329 624 338 Q 663 428 637 596 Q 622 651 626 668 Q 633 695 643 705 Q 653 715 660 705 Q 679 683 680 470 C 680 455 680 455 680 447 Q 681 402 684 357 C 684 346 670 339 661 332 Z"/>
    <path id="p6" d="M 764 680 Q 742 673 717 666 Q 701 659 700 668 Q 746 714 773 750 Q 785 766 798 772 Q 807 775 814 767 Q 853 716 852 675 Q 830 381 849 345 Q 859 327 848 319 Q 829 303 796 290 Q 780 283 766 291 Q 741 307 724 314 Q 702 323 661 332 C 650 334 673 359 684 357 Q 708 351 760 332 Q 776 325 781 333 Q 785 345 788 364 Q 797 541 791 648 Q 790 670 784 679 Q 780 683 764 680 Z"/>
    <path id="p7" d="M 680 470 Q 681 473 686 477 Q 740 543 747 545 Q 754 546 758 539 Q 762 532 761 513 Q 758 486 689 449 Q 683 446 680 447 C 672 447 675 464 680 470 Z"/>
    <path id="p8" d="M 245 183 Q 272 205 301 232 Q 317 245 335 244 Q 348 243 352 228 Q 356 210 345 177 Q 338 158 305 144 Q 274 135 237 128 Q 219 125 212 129 Q 206 133 209 148 Q 213 161 245 183 Z"/>
    <path id="p9" d="M 293 714 Q 309 704 315 686 Q 327 644 284 579 Q 251 524 323 437 Q 326 431 330 428 Q 352 409 332 394 Q 311 378 277 364 Q 256 352 211 387 Q 147 424 119 423 Q 112 422 110 427 Q 109 433 117 437 Q 156 453 228 423 Q 238 420 246 432 Q 268 453 247 481 Q 202 529 243 592 Q 276 647 275 678 Q 275 699 268 713 C 265 721 286 719 293 714 Z"/>
    <path id="p10" d="M 268 713 Q 228 713 188 727 Q 157 739 107 743 Q 100 743 97 752 Q 93 759 102 769 Q 120 787 144 798 Q 156 804 174 790 Q 237 742 305 755 Q 371 770 503 828 Q 734 934 816 906 Q 879 884 932 847 Q 954 831 931 831 Q 717 840 576 800 Q 489 776 377 734 Q 335 716 293 714 C 276 713 276 713 268 713 Z"/>

    <clipPath id="z36902c1"><use href="#p1"/></clipPath>
    <clipPath id="z36902c2"><use href="#p2"/></clipPath>
    <clipPath id="z36902c3"><use href="#p3"/></clipPath>
    <clipPath id="z36902c4"><use href="#p4"/></clipPath>
    <clipPath id="z36902c5"><use href="#p5"/></clipPath>
    <clipPath id="z36902c6"><use href="#p6"/></clipPath>
    <clipPath id="z36902c7"><use href="#p7"/></clipPath>
    <clipPath id="z36902c8"><use href="#p8"/></clipPath>
    <clipPath id="z36902c9"><use href="#p9"/></clipPath>
    <clipPath id="z36902c10"><use href="#p10"/></clipPath>
</defs>
<g id="bg-layer" class="bg">
<use href="#p1"/>
<use href="#p2"/>
<use href="#p3"/>
<use href="#p4"/>
<use href="#p5"/>
<use href="#p6"/>
<use href="#p7"/>
<use href="#p8"/>
<use href="#p9"/>
<use href="#p10"/>
</g>
<g id="anim-layer">
    <path id="stroke-p1" style="stroke:#FF4444" pathLength="3333" clip-path="url(#z36902c1)" d="M 432 208 L 500 216 L 814 164"/>
    <path id="stroke-p2" style="stroke:#FF4444" pathLength="3333" clip-path="url(#z36902c2)" d="M 384 335 L 415 379 L 398 693"/>
    <path id="stroke-p3" style="stroke:#FF4444" pathLength="3333" clip-path="url(#z36902c3)" d="M 433 349 L 529 333 L 562 354 L 558 648 L 527 686 L 474 642"/>
    <path id="stroke-p4" style="stroke:#FF4444" pathLength="3333" clip-path="url(#z36902c4)" d="M 440 467 L 497 548"/>
    <path id="stroke-p5" style="stroke:#FF4444" pathLength="3333" clip-path="url(#z36902c5)" d="M 629 326 L 661 379 L 650 705"/>
    <path id="stroke-p6" style="stroke:#FF4444" pathLength="3333" clip-path="url(#z36902c6)" d="M 670 333 L 782 309 L 819 340 L 815 694 L 789 725 L 709 669"/>
    <path id="stroke-p7" style="stroke:#FF4444" pathLength="3333" clip-path="url(#z36902c7)" d="M 685 459 L 752 539"/>
    <path id="stroke-p8" style="stroke:#000" pathLength="3333" clip-path="url(#z36902c8)" d="M 216 135 L 303 184 L 337 238"/>
    <path id="stroke-p9" style="stroke:#000" pathLength="3333" clip-path="url(#z36902c9)" d="M 119 430 L 236 395 L 296 423 L 249 539 L 294 654 L 277 709"/>
    <path id="stroke-p10" style="stroke:#000" pathLength="3333" clip-path="url(#z36902c10)" d="M 103 755 L 156 767 L 306 735 L 618 843 L 769 871 L 935 836"/>
</g>
</svg>