<svg id="z36981" class="acjk" viewBox="0 0 1024 1024" xmlns="http://www.w3.org/2000/svg">
<style>
<![CDATA[
svg.acjk path[clip-path] {
    animation-duration: 14.5s;
    animation-timing-function: linear;
    animation-iteration-count: infinite;
    stroke-dasharray: 3337;
    stroke-dashoffset: 3339;
    stroke-width: 128;
    stroke-linecap: round;
    fill: none;
    stroke: #FF4444;
}
svg.acjk .bg { fill: #ccc; opacity: 0.5; }

/* Stroke 1: Starts at 0.0%, finishes at 5.5%, holds until 82.8% */
@keyframes zk1 {
    0%, 0.0% { stroke-dashoffset: 3339; }
    5.5%, 82.8% { stroke-dashoffset: 0; }
    82.9%, 100% { stroke-dashoffset: 3339; }
}
svg.acjk #stroke-p1 { animation-name: zk1; }
/* Stroke 2: Starts at 5.5%, finishes at 11.0%, holds until 82.8% */
@keyframes zk2 {
    0%, 5.5% { stroke-dashoffset: 3339; }
    11.0%, 82.8% { stroke-dashoffset: 0; }
    82.9%, 100% { stroke-dashoffset: 3339; }
}
svg.acjk #stroke-p2 { animation-name: zk2; }
/* Stroke 3: Starts at 11.0%, finishes at 16.6%, holds until 82.8% */
@keyframes zk3 {
    0%, 11.0% { stroke-dashoffset: 3339; }
    16.6%, 82.8% { stroke-dashoffset: 0; }
    82.9%, 100% { stroke-dashoffset: 3339; }
}
svg.acjk #stroke-p3 { animation-name: zk3; }
/* Stroke 4: Starts at 16.6%, finishes at 22.1%, holds until 82.8% */
@keyframes zk4 {
    0%, 16.6% { stroke-dashoffset: 3339; }
    22.1%, 82.8% { stroke-dashoffset: 0; }
    82.9%, 100% { stroke-dashoffset: 3339; }
}
svg.acjk #stroke-p4 { animation-name: zk4; }
/* Stroke 5: Starts at 22.1%, finishes at 27.6%, holds until 82.8% */
@keyframes zk5 {
    0%, 22.1% { stroke-dashoffset: 3339; }
    27.6%, 82.8% { stroke-dashoffset: 0; }
    82.9%, 100% { stroke-dashoffset: 3339; }
}
svg.acjk #stroke-p5 { animation-name: zk5; }
/* Stroke 6: Starts at 27.6%, finishes at 33.1%, holds until 82.8% */
@keyframes zk6 {
    0%, 27.6% { stroke-dashoffset: 3339; }
    33.1%, 82.8% { stroke-dashoffset: 0; }
    82.9%, 100% { stroke-dashoffset: 3339; }
}
svg.acjk #stroke-p6 { animation-name: zk6; }
/* Stroke 7: Starts at 33.1%, finishes at 38.6%, holds until 82.8% */
@keyframes zk7 {
    0%, 33.1% { stroke-dashoffset: 3339; }
    38.6%, 82.8% { stroke-dashoffset: 0; }
    82.9%, 100% { stroke-dashoffset: 3339; }
}
svg.acjk #stroke-p7 { animation-name: zk7; }
/* Stroke 8: Starts at 38.6%, finishes at 44.1%, holds until 82.8% */
@keyframes zk8 {
    0%, 38.6% { stroke-dashoffset: 3339; }
    44.1%, 82.8% { stroke-dashoffset: 0; }
    82.9%, 100% { stroke-dashoffset: 3339; }
}
svg.acjk #stroke-p8 { animation-name: zk8; }
/* Stroke 9: Starts at 44.1%, finishes at 49.7%, holds until 82.8% */
@keyframes zk9 {
    0%, 44.1% { stroke-dashoffset: 3339; }
    49.7%, 82.8% { stroke-dashoffset: 0; }
    82.9%, 100% { stroke-dashoffset: 3339; }
}
svg.acjk #stroke-p9 { animation-name: zk9; }
/* Stroke 10: Starts at 49.7%, finishes at 55.2%, holds until 82.8% */
@keyframes zk10 {
    0%, 49.7% { stroke-dashoffset: 3339; }
    55.2%, 82.8% { stroke-dashoffset: 0; }
    82.9%, 100% { stroke-dashoffset: 3339; }
}
svg.acjk #stroke-p10 { animation-name: zk10; }
/* Stroke 11: Starts at 55.2%, finishes at 60.7%, holds until 82.8% */
@keyframes zk11 {
    0%, 55.2% { stroke-dashoffset: 3339; }
    60.7%, 82.8% { stroke-dashoffset: 0; }
    82.9%, 100% { stroke-dashoffset: 3339; }
}
svg.acjk #stroke-p11 { animation-name: zk11; }
/* Stroke 12: Starts at 60.7%, finishes at 66.2%, holds until 82.8% */
@keyframes zk12 {
    0%, 60.7% { stroke-dashoffset: 3339; }
    66.2%, 82.8% { stroke-dashoffset: 0; }
    82.9%, 100% { stroke-dashoffset: 3339; }
}
svg.acjk #stroke-p12 { animation-name: zk12; }
/* Stroke 13: Starts at 66.2%, finishes at 71.7%, holds until 82.8% */
@keyframes zk13 {
    0%, 66.2% { stroke-dashoffset: 3339; }
    71.7%, 82.8% { stroke-dashoffset: 0; }
    82.9%, 100% { stroke-dashoffset: 3339; }
}
svg.acjk #stroke-p13 { animation-name: zk13; }
/* Stroke 14: Starts at 71.7%, finishes at 77.2%, holds until 82.8% */
@keyframes zk14 {
    0%, 71.7% { stroke-dashoffset: 3339; }
    77.2%, 82.8% { stroke-dashoffset: 0; }
    82.9%, 100% { stroke-dashoffset: 3339; }
}
svg.acjk #stroke-p14 { animation-name: zk14; }
/* Stroke 15: Starts at 77.2%, finishes at 82.8%, holds until 82.8% */
@keyframes zk15 {
    0%, 77.2% { stroke-dashoffset: 3339; }
    82.8%, 82.8% { stroke-dashoffset: 0; }
    82.9%, 100% { stroke-dashoffset: 3339; }
}
svg.acjk #stroke-p15 { animation-name: zk15; }
]]>
</style>
<defs>
    <path id="p1" d="M 489 102 C 514 142 535 162 550 165 C 558 166 566 162 570 151 C 572 143 569 132 565 120 C 561 109 551 103 539 97 C 518 87 504 79 496 77 C 490 75 486 79 485 86 C 484 90 485 96 489 102 Z"/>
    <path id="p2" d="M 645 169 C 689 119 709 97 728 84 C 742 73 737 56 697 44 C 669 35 662 41 664 55 C 666 78 655 108 619 173 C 614 181 640 176 645 169 Z"/>
    <path id="p3" d="M 653 202 C 682 198 755 192 811 187 C 820 186 844 174 811 158 C 763 135 720 157 645 169 C 628 172 628 172 619 173 C 588 177 469 187 413 192 C 396 193 393 198 406 209 C 438 235 481 224 519 219 C 538 216 538 216 547 215 C 565 212 585 209 607 207 C 638 204 638 204 653 202 Z"/>
    <path id="p4" d="M 451 292 C 412 279 393 275 406 304 C 424 346 436 401 444 469 C 446 489 450 507 462 521 C 474 535 480 530 485 517 C 487 510 487 502 487 495 C 483 443 472 385 466 321 C 464 310 461 296 451 292 Z"/>
    <path id="p5" d="M 720 497 C 732 520 740 534 759 506 C 768 490 782 444 799 363 C 802 344 812 328 827 315 C 834 307 835 300 829 292 C 820 281 803 269 778 255 C 758 243 757 247 650 265 C 630 268 630 268 620 270 C 602 272 585 274 569 277 C 544 280 544 280 532 282 C 501 286 474 289 451 292 C 440 294 456 324 466 321 C 479 317 512 312 531 309 C 554 305 554 305 565 303 C 581 300 600 297 620 295 C 639 292 639 292 648 291 C 700 283 731 283 743 296 C 751 304 754 313 753 323 C 742 402 730 453 719 471 C 715 478 716 489 720 497 Z"/>
    <path id="p6" d="M 519 219 C 528 231 533 242 532 282 C 531 300 531 300 531 309 C 530 327 524 359 510 399 C 504 416 505 421 520 407 C 541 386 562 316 565 303 C 568 286 568 286 569 277 C 575 234 584 226 547 215 C 538 211 513 211 519 219 Z"/>
    <path id="p7" d="M 650 265 C 653 225 673 209 653 202 C 640 194 597 195 607 207 C 615 215 620 236 620 270 C 620 287 620 287 620 295 C 620 303 621 312 621 322 C 620 348 626 364 637 373 C 644 378 669 383 695 381 C 709 379 719 376 725 369 C 728 364 729 360 726 357 C 724 355 706 353 673 350 C 652 347 645 326 648 291 C 649 274 649 274 650 265 Z"/>
    <path id="p8" d="M 521 435 C 509 438 517 455 545 452 C 589 446 628 439 661 435 C 689 430 668 410 645 407 C 631 404 589 414 521 435 Z"/>
    <path id="p9" d="M 485 517 C 505 519 551 509 720 497 C 729 497 726 475 719 471 C 697 455 656 469 487 495 C 480 496 478 517 485 517 Z"/>
    <path id="p10" d="M 714 591 C 756 589 805 591 860 594 C 899 595 949 597 916 568 C 886 541 852 535 814 542 C 787 546 757 551 724 555 C 683 560 683 560 662 562 C 562 573 462 578 363 586 C 351 586 348 592 358 602 C 375 620 398 625 427 619 C 507 600 631 594 666 593 C 698 592 698 592 714 591 Z"/>
    <path id="p11" d="M 664 821 C 671 831 680 831 689 824 C 712 801 723 764 718 713 C 712 656 710 615 714 591 C 715 578 720 567 724 555 C 725 549 720 543 715 539 C 700 526 684 517 668 512 C 652 506 635 508 650 531 C 655 540 660 550 662 562 C 665 583 665 583 666 593 C 667 602 671 639 669 706 C 668 718 664 725 658 730 C 653 732 631 728 589 721 C 573 718 579 729 589 738 C 626 771 649 800 664 821 Z"/>
    <path id="p12" d="M 489 671 C 517 706 533 726 539 727 C 544 728 549 724 553 719 C 556 712 558 700 557 685 C 555 670 533 653 493 634 C 484 630 479 628 476 630 C 473 630 471 634 471 642 C 471 648 478 657 489 671 Z"/>
    <path id="p13" d="M 237 192 C 254 206 273 223 293 242 C 302 251 313 254 324 254 C 331 253 337 249 341 239 C 343 229 341 213 335 193 C 330 180 319 167 297 159 C 247 140 217 135 208 141 C 203 143 202 149 205 159 C 207 165 218 176 237 192 Z"/>
    <path id="p14" d="M 305 745 C 323 727 328 700 319 666 C 314 651 302 629 284 599 C 268 573 274 540 296 501 C 308 477 320 457 334 445 C 348 431 349 421 336 411 C 323 400 304 391 282 380 C 266 372 254 374 241 385 C 221 400 196 410 171 420 C 134 434 111 439 100 438 C 93 437 84 444 97 452 C 122 466 168 459 231 438 C 241 434 281 461 250 498 C 216 536 217 571 247 618 C 274 661 279 695 279 711 C 278 723 277 734 275 742 C 273 752 299 753 305 745 Z"/>
    <path id="p15" d="M 275 742 C 246 740 217 743 188 753 C 168 759 143 762 113 762 C 108 762 105 764 103 770 C 100 774 101 780 107 787 C 117 799 131 810 147 820 C 153 824 163 822 177 813 C 217 785 258 776 303 785 C 348 794 418 816 509 857 C 599 896 688 925 777 940 C 791 942 808 939 827 933 C 865 918 901 899 935 876 C 949 865 949 861 935 862 C 781 868 649 854 541 822 C 490 806 433 789 372 765 C 349 756 327 748 305 745 C 285 743 285 743 275 742 Z"/>

    <clipPath id="z36981c1"><use href="#p1"/></clipPath>
    <clipPath id="z36981c2"><use href="#p2"/></clipPath>
    <clipPath id="z36981c3"><use href="#p3"/></clipPath>
    <clipPath id="z36981c4"><use href="#p4"/></clipPath>
    <clipPath id="z36981c5"><use href="#p5"/></clipPath>
    <clipPath id="z36981c6"><use href="#p6"/></clipPath>
    <clipPath id="z36981c7"><use href="#p7"/></clipPath>
    <clipPath id="z36981c8"><use href="#p8"/></clipPath>
    <clipPath id="z36981c9"><use href="#p9"/></clipPath>
    <clipPath id="z36981c10"><use href="#p10"/></clipPath>
    <clipPath id="z36981c11"><use href="#p11"/></clipPath>
    <clipPath id="z36981c12"><use href="#p12"/></clipPath>
    <clipPath id="z36981c13"><use href="#p13"/></clipPath>
    <clipPath id="z36981c14"><use href="#p14"/></clipPath>
    <clipPath id="z36981c15"><use href="#p15"/></clipPath>
</defs>
<g id="bg-layer" class="bg">
<use href="#p1"/>
<use href="#p2"/>
<use href="#p3"/>
<use href="#p4"/>
<use href="#p5"/>
<use href="#p6"/>
<use href="#p7"/>
<use href="#p8"/>
<use href="#p9"/>
<use href="#p10"/>
<use href="#p11"/>
<use href="#p12"/>
<use href="#p13"/>
<use href="#p14"/>
<use href="#p15"/>
</g>
<g id="anim-layer">
    <path id="stroke-p1" style="stroke:#FF4444" pathLength="3333" clip-path="url(#z36981c1)" d="M 491 84 L 554 161"/>
    <path id="stroke-p2" style="stroke:#FF4444" pathLength="3333" clip-path="url(#z36981c2)" d="M 671 47 L 695 85 L 628 170"/>
    <path id="stroke-p3" style="stroke:#FF4444" pathLength="3333" clip-path="url(#z36981c3)" d="M 408 200 L 820 171"/>
    <path id="stroke-p4" style="stroke:#FF4444" pathLength="3333" clip-path="url(#z36981c4)" d="M 409 289 L 439 316 L 475 522"/>
    <path id="stroke-p5" style="stroke:#FF4444" pathLength="3333" clip-path="url(#z36981c5)" d="M 452 297 L 726 269 L 768 281 L 792 315 L 737 517"/>
    <path id="stroke-p6" style="stroke:#FF4444" pathLength="3333" clip-path="url(#z36981c6)" d="M 526 220 L 553 252 L 513 409"/>
    <path id="stroke-p7" style="stroke:#FF4444" pathLength="3333" clip-path="url(#z36981c7)" d="M 615 206 L 640 231 L 642 351 L 721 364"/>
    <path id="stroke-p8" style="stroke:#FF4444" pathLength="3333" clip-path="url(#z36981c8)" d="M 521 441 L 670 423"/>
    <path id="stroke-p9" style="stroke:#FF4444" pathLength="3333" clip-path="url(#z36981c9)" d="M 483 508 L 721 481"/>
    <path id="stroke-p10" style="stroke:#FF4444" pathLength="3333" clip-path="url(#z36981c10)" d="M 359 591 L 919 576"/>
    <path id="stroke-p11" style="stroke:#FF4444" pathLength="3333" clip-path="url(#z36981c11)" d="M 653 520 L 692 555 L 685 758 L 658 779 L 586 727"/>
    <path id="stroke-p12" style="stroke:#FF4444" pathLength="3333" clip-path="url(#z36981c12)" d="M 477 637 L 543 722"/>
    <path id="stroke-p13" style="stroke:#000" pathLength="3333" clip-path="url(#z36981c13)" d="M 208 150 L 293 195 L 331 248"/>
    <path id="stroke-p14" style="stroke:#000" pathLength="3333" clip-path="url(#z36981c14)" d="M 98 444 L 243 412 L 301 440 L 249 565 L 298 682 L 289 747"/>
    <path id="stroke-p15" style="stroke:#000" pathLength="3333" clip-path="url(#z36981c15)" d="M 106 771 L 161 790 L 245 762 L 315 767 L 594 863 L 784 901 L 936 866"/>
</g>
</svg>