<svg id="z36991" class="acjk" viewBox="0 0 1024 1024" xmlns="http://www.w3.org/2000/svg">
<style>
<![CDATA[
svg.acjk path[clip-path] {
    animation-duration: 15.3s;
    animation-timing-function: linear;
    animation-iteration-count: infinite;
    stroke-dasharray: 3337;
    stroke-dashoffset: 3339;
    stroke-width: 128;
    stroke-linecap: round;
    fill: none;
    stroke: #FF4444;
}
svg.acjk .bg { fill: #ccc; opacity: 0.5; }

/* Stroke 1: Starts at 0.0%, finishes at 5.2%, holds until 83.7% */
@keyframes zk1 {
    0%, 0.0% { stroke-dashoffset: 3339; }
    5.2%, 83.7% { stroke-dashoffset: 0; }
    83.8%, 100% { stroke-dashoffset: 3339; }
}
svg.acjk #stroke-p1 { animation-name: zk1; }
/* Stroke 2: Starts at 5.2%, finishes at 10.5%, holds until 83.7% */
@keyframes zk2 {
    0%, 5.2% { stroke-dashoffset: 3339; }
    10.5%, 83.7% { stroke-dashoffset: 0; }
    83.8%, 100% { stroke-dashoffset: 3339; }
}
svg.acjk #stroke-p2 { animation-name: zk2; }
/* Stroke 3: Starts at 10.5%, finishes at 15.7%, holds until 83.7% */
@keyframes zk3 {
    0%, 10.5% { stroke-dashoffset: 3339; }
    15.7%, 83.7% { stroke-dashoffset: 0; }
    83.8%, 100% { stroke-dashoffset: 3339; }
}
svg.acjk #stroke-p3 { animation-name: zk3; }
/* Stroke 4: Starts at 15.7%, finishes at 20.9%, holds until 83.7% */
@keyframes zk4 {
    0%, 15.7% { stroke-dashoffset: 3339; }
    20.9%, 83.7% { stroke-dashoffset: 0; }
    83.8%, 100% { stroke-dashoffset: 3339; }
}
svg.acjk #stroke-p4 { animation-name: zk4; }
/* Stroke 5: Starts at 20.9%, finishes at 26.1%, holds until 83.7% */
@keyframes zk5 {
    0%, 20.9% { stroke-dashoffset: 3339; }
    26.1%, 83.7% { stroke-dashoffset: 0; }
    83.8%, 100% { stroke-dashoffset: 3339; }
}
svg.acjk #stroke-p5 { animation-name: zk5; }
/* Stroke 6: Starts at 26.1%, finishes at 31.4%, holds until 83.7% */
@keyframes zk6 {
    0%, 26.1% { stroke-dashoffset: 3339; }
    31.4%, 83.7% { stroke-dashoffset: 0; }
    83.8%, 100% { stroke-dashoffset: 3339; }
}
svg.acjk #stroke-p6 { animation-name: zk6; }
/* Stroke 7: Starts at 31.4%, finishes at 36.6%, holds until 83.7% */
@keyframes zk7 {
    0%, 31.4% { stroke-dashoffset: 3339; }
    36.6%, 83.7% { stroke-dashoffset: 0; }
    83.8%, 100% { stroke-dashoffset: 3339; }
}
svg.acjk #stroke-p7 { animation-name: zk7; }
/* Stroke 8: Starts at 36.6%, finishes at 41.8%, holds until 83.7% */
@keyframes zk8 {
    0%, 36.6% { stroke-dashoffset: 3339; }
    41.8%, 83.7% { stroke-dashoffset: 0; }
    83.8%, 100% { stroke-dashoffset: 3339; }
}
svg.acjk #stroke-p8 { animation-name: zk8; }
/* Stroke 9: Starts at 41.8%, finishes at 47.1%, holds until 83.7% */
@keyframes zk9 {
    0%, 41.8% { stroke-dashoffset: 3339; }
    47.1%, 83.7% { stroke-dashoffset: 0; }
    83.8%, 100% { stroke-dashoffset: 3339; }
}
svg.acjk #stroke-p9 { animation-name: zk9; }
/* Stroke 10: Starts at 47.1%, finishes at 52.3%, holds until 83.7% */
@keyframes zk10 {
    0%, 47.1% { stroke-dashoffset: 3339; }
    52.3%, 83.7% { stroke-dashoffset: 0; }
    83.8%, 100% { stroke-dashoffset: 3339; }
}
svg.acjk #stroke-p10 { animation-name: zk10; }
/* Stroke 11: Starts at 52.3%, finishes at 57.5%, holds until 83.7% */
@keyframes zk11 {
    0%, 52.3% { stroke-dashoffset: 3339; }
    57.5%, 83.7% { stroke-dashoffset: 0; }
    83.8%, 100% { stroke-dashoffset: 3339; }
}
svg.acjk #stroke-p11 { animation-name: zk11; }
/* Stroke 12: Starts at 57.5%, finishes at 62.7%, holds until 83.7% */
@keyframes zk12 {
    0%, 57.5% { stroke-dashoffset: 3339; }
    62.7%, 83.7% { stroke-dashoffset: 0; }
    83.8%, 100% { stroke-dashoffset: 3339; }
}
svg.acjk #stroke-p12 { animation-name: zk12; }
/* Stroke 13: Starts at 62.7%, finishes at 68.0%, holds until 83.7% */
@keyframes zk13 {
    0%, 62.7% { stroke-dashoffset: 3339; }
    68.0%, 83.7% { stroke-dashoffset: 0; }
    83.8%, 100% { stroke-dashoffset: 3339; }
}
svg.acjk #stroke-p13 { animation-name: zk13; }
/* Stroke 14: Starts at 68.0%, finishes at 73.2%, holds until 83.7% */
@keyframes zk14 {
    0%, 68.0% { stroke-dashoffset: 3339; }
    73.2%, 83.7% { stroke-dashoffset: 0; }
    83.8%, 100% { stroke-dashoffset: 3339; }
}
svg.acjk #stroke-p14 { animation-name: zk14; }
/* Stroke 15: Starts at 73.2%, finishes at 78.4%, holds until 83.7% */
@keyframes zk15 {
    0%, 73.2% { stroke-dashoffset: 3339; }
    78.4%, 83.7% { stroke-dashoffset: 0; }
    83.8%, 100% { stroke-dashoffset: 3339; }
}
svg.acjk #stroke-p15 { animation-name: zk15; }
/* Stroke 16: Starts at 78.4%, finishes at 83.7%, holds until 83.7% */
@keyframes zk16 {
    0%, 78.4% { stroke-dashoffset: 3339; }
    83.7%, 83.7% { stroke-dashoffset: 0; }
    83.8%, 100% { stroke-dashoffset: 3339; }
}
svg.acjk #stroke-p16 { animation-name: zk16; }
]]>
</style>
<defs>
    <path id="p1" d="M 556 341 Q 574 274 594 255 Q 613 231 593 219 Q 575 209 551 193 Q 535 183 493 208 Q 469 218 418 234 C 410 237 416 263 424 260 Q 427 257 500 239 Q 519 233 525 242 Q 532 246 524 276 Q 517 304 508 338 C 505 354 553 357 556 341 Z"/>
    <path id="p2" d="M 410 395 Q 425 399 441 395 Q 480 383 567 369 Q 577 368 578 359 Q 577 352 556 341 C 542 333 524 335 508 338 Q 505 338 504 339 Q 452 358 413 368 C 404 370 401 393 410 395 Z"/>
    <path id="p3" d="M 389 488 Q 402 440 410 395 C 412 377 412 377 413 368 Q 414 346 417 324 Q 420 273 424 260 C 426 251 425 240 418 234 Q 406 224 387 217 Q 372 210 363 214 Q 354 220 360 230 Q 382 252 369 402 Q 354 513 288 632 Q 284 636 283 641 Q 282 650 290 648 Q 315 641 368 541 Q 369 537 371 535 C 383 504 383 504 389 488 Z"/>
    <path id="p4" d="M 407 495 Q 403 491 389 488 C 373 485 368 519 371 535 Q 384 578 390 639 Q 391 664 404 682 Q 417 700 422 688 Q 428 673 426 646 C 424 627 424 627 423 617 Q 414 542 414 518 C 414 510 413 500 407 495 Z"/>
    <path id="p5" d="M 552 602 Q 565 533 584 513 Q 603 491 583 479 Q 567 470 543 456 Q 527 449 512 458 Q 484 476 407 495 C 399 497 406 518 414 518 Q 421 518 436 514 Q 512 496 518 503 Q 525 507 520 537 Q 516 562 510 594 C 508 608 549 616 552 602 Z"/>
    <path id="p6" d="M 426 646 Q 432 647 441 645 Q 478 635 559 627 Q 568 626 569 618 Q 569 611 552 602 C 540 595 524 592 510 594 Q 504 594 501 596 Q 458 609 423 617 C 413 619 416 646 426 646 Z"/>
    <path id="p7" d="M 668 138 Q 693 159 722 183 Q 735 195 750 194 Q 760 193 765 180 Q 769 165 759 137 Q 747 110 661 93 Q 645 90 640 93 Q 636 97 637 109 Q 641 119 668 138 Z"/>
    <path id="p8" d="M 792 272 Q 810 266 834 261 Q 864 252 868 248 Q 875 241 871 234 Q 864 224 839 219 Q 818 216 746 241 Q 686 257 630 268 Q 599 274 622 288 Q 652 304 727 287 Q 742 283 760 280 C 781 275 781 275 792 272 Z"/>
    <path id="p9" d="M 620 361 Q 642 409 661 421 Q 671 425 680 419 Q 687 412 688 398 Q 688 368 636 336 Q 626 329 618 330 Q 614 330 613 339 Q 612 348 620 361 Z"/>
    <path id="p10" d="M 763 432 Q 766 426 770 421 Q 786 393 802 357 Q 809 341 823 321 Q 835 309 827 301 Q 818 288 792 272 C 783 265 754 271 760 280 Q 760 281 762 284 Q 774 309 737 422 Q 734 432 732 441 C 730 452 758 442 763 432 Z"/>
    <path id="p11" d="M 722 482 Q 785 464 862 453 Q 872 454 878 443 Q 879 433 859 425 Q 835 407 763 432 C 742 438 742 438 732 441 Q 672 456 602 467 Q 578 471 598 485 Q 625 503 660 496 Q 667 493 678 492 C 707 485 707 485 722 482 Z"/>
    <path id="p12" d="M 741 604 Q 784 597 850 594 Q 883 594 888 585 Q 892 576 879 567 Q 834 540 782 556 Q 764 560 743 566 C 709 574 709 574 692 578 Q 643 587 592 599 Q 576 600 589 613 Q 599 623 614 626 Q 630 629 642 625 Q 664 618 693 612 C 725 607 725 607 741 604 Z"/>
    <path id="p13" d="M 698 793 Q 702 814 708 822 Q 712 828 718 825 Q 730 819 736 771 Q 736 756 741 604 C 742 579 742 579 743 566 Q 743 550 750 515 Q 751 502 741 493 Q 731 486 722 482 C 708 476 670 479 678 492 Q 687 505 692 574 Q 691 575 692 578 C 693 601 693 601 693 612 Q 694 652 694 704 Q 695 771 698 793 Z"/>
    <path id="p14" d="M 195 164 Q 250 248 277 250 Q 293 253 302 232 Q 306 216 297 191 Q 287 172 261 160 Q 221 138 203 133 Q 193 130 190 144 Q 187 153 195 164 Z"/>
    <path id="p15" d="M 257 701 Q 264 694 268 679 Q 274 646 233 573 Q 206 522 284 428 Q 303 412 286 397 Q 267 382 236 370 Q 218 358 175 391 Q 103 430 83 428 Q 76 428 75 433 Q 74 437 82 441 Q 116 456 193 423 Q 200 419 208 427 Q 229 449 206 477 Q 158 525 204 599 Q 238 666 234 699 Q 233 699 233 700 C 231 708 252 707 257 701 Z"/>
    <path id="p16" d="M 233 700 Q 193 699 152 713 Q 119 726 70 731 Q 63 731 60 740 Q 57 747 66 757 Q 84 775 108 786 Q 120 792 138 777 Q 195 728 266 738 Q 339 756 485 824 Q 725 941 818 921 Q 819 920 822 920 Q 882 901 933 867 Q 955 854 933 852 Q 686 852 495 784 Q 422 757 336 721 Q 297 705 257 701 C 241 700 241 700 233 700 Z"/>

    <clipPath id="z36991c1"><use href="#p1"/></clipPath>
    <clipPath id="z36991c2"><use href="#p2"/></clipPath>
    <clipPath id="z36991c3"><use href="#p3"/></clipPath>
    <clipPath id="z36991c4"><use href="#p4"/></clipPath>
    <clipPath id="z36991c5"><use href="#p5"/></clipPath>
    <clipPath id="z36991c6"><use href="#p6"/></clipPath>
    <clipPath id="z36991c7"><use href="#p7"/></clipPath>
    <clipPath id="z36991c8"><use href="#p8"/></clipPath>
    <clipPath id="z36991c9"><use href="#p9"/></clipPath>
    <clipPath id="z36991c10"><use href="#p10"/></clipPath>
    <clipPath id="z36991c11"><use href="#p11"/></clipPath>
    <clipPath id="z36991c12"><use href="#p12"/></clipPath>
    <clipPath id="z36991c13"><use href="#p13"/></clipPath>
    <clipPath id="z36991c14"><use href="#p14"/></clipPath>
    <clipPath id="z36991c15"><use href="#p15"/></clipPath>
    <clipPath id="z36991c16"><use href="#p16"/></clipPath>
</defs>
<g id="bg-layer" class="bg">
<use href="#p1"/>
<use href="#p2"/>
<use href="#p3"/>
<use href="#p4"/>
<use href="#p5"/>
<use href="#p6"/>
<use href="#p7"/>
<use href="#p8"/>
<use href="#p9"/>
<use href="#p10"/>
<use href="#p11"/>
<use href="#p12"/>
<use href="#p13"/>
<use href="#p14"/>
<use href="#p15"/>
<use href="#p16"/>
</g>
<g id="anim-layer">
    <path id="stroke-p1" style="stroke:#FF4444" pathLength="3333" clip-path="url(#z36991c1)" d="M 426 239 L 532 214 L 565 238 L 520 338"/>
    <path id="stroke-p2" style="stroke:#FF4444" pathLength="3333" clip-path="url(#z36991c2)" d="M 419 388 L 572 357"/>
    <path id="stroke-p3" style="stroke:#FF4444" pathLength="3333" clip-path="url(#z36991c3)" d="M 366 218 L 396 258 L 388 406 L 353 533 L 290 642"/>
    <path id="stroke-p4" style="stroke:#FF4444" pathLength="3333" clip-path="url(#z36991c4)" d="M 393 494 L 415 685"/>
    <path id="stroke-p5" style="stroke:#FF4444" pathLength="3333" clip-path="url(#z36991c5)" d="M 414 499 L 549 490 L 527 596"/>
    <path id="stroke-p6" style="stroke:#FF4444" pathLength="3333" clip-path="url(#z36991c6)" d="M 433 639 L 562 618"/>
    <path id="stroke-p7" style="stroke:#FF4444" pathLength="3333" clip-path="url(#z36991c7)" d="M 646 102 L 721 142 L 753 188"/>
    <path id="stroke-p8" style="stroke:#FF4444" pathLength="3333" clip-path="url(#z36991c8)" d="M 621 278 L 865 239"/>
    <path id="stroke-p9" style="stroke:#FF4444" pathLength="3333" clip-path="url(#z36991c9)" d="M 620 338 L 673 418"/>
    <path id="stroke-p10" style="stroke:#FF4444" pathLength="3333" clip-path="url(#z36991c10)" d="M 767 286 L 795 321 L 737 433"/>
    <path id="stroke-p11" style="stroke:#FF4444" pathLength="3333" clip-path="url(#z36991c11)" d="M 598 476 L 870 439"/>
    <path id="stroke-p12" style="stroke:#FF4444" pathLength="3333" clip-path="url(#z36991c12)" d="M 592 605 L 882 580"/>
    <path id="stroke-p13" style="stroke:#FF4444" pathLength="3333" clip-path="url(#z36991c13)" d="M 685 495 L 719 527 L 716 820"/>
    <path id="stroke-p14" style="stroke:#000" pathLength="3333" clip-path="url(#z36991c14)" d="M 198 139 L 292 242"/>
    <path id="stroke-p15" style="stroke:#000" pathLength="3333" clip-path="url(#z36991c15)" d="M 82 435 L 216 395 L 255 425 L 204 527 L 247 698"/>
    <path id="stroke-p16" style="stroke:#000" pathLength="3333" clip-path="url(#z36991c16)" d="M 64 741 L 114 756 L 181 726 L 269 720 L 581 839 L 765 883 L 933 857"/>
</g>
</svg>