<svg id="z36995" class="acjk" viewBox="0 0 1024 1024" xmlns="http://www.w3.org/2000/svg">
<style>
<![CDATA[
svg.acjk path[clip-path] {
    animation-duration: 16.1s;
    animation-timing-function: linear;
    animation-iteration-count: infinite;
    stroke-dasharray: 3337;
    stroke-dashoffset: 3339;
    stroke-width: 128;
    stroke-linecap: round;
    fill: none;
    stroke: #FF4444;
}
svg.acjk .bg { fill: #ccc; opacity: 0.5; }

/* Stroke 1: Starts at 0.0%, finishes at 5.0%, holds until 84.5% */
@keyframes zk1 {
    0%, 0.0% { stroke-dashoffset: 3339; }
    5.0%, 84.5% { stroke-dashoffset: 0; }
    84.6%, 100% { stroke-dashoffset: 3339; }
}
svg.acjk #stroke-p1 { animation-name: zk1; }
/* Stroke 2: Starts at 5.0%, finishes at 9.9%, holds until 84.5% */
@keyframes zk2 {
    0%, 5.0% { stroke-dashoffset: 3339; }
    9.9%, 84.5% { stroke-dashoffset: 0; }
    84.6%, 100% { stroke-dashoffset: 3339; }
}
svg.acjk #stroke-p2 { animation-name: zk2; }
/* Stroke 3: Starts at 9.9%, finishes at 14.9%, holds until 84.5% */
@keyframes zk3 {
    0%, 9.9% { stroke-dashoffset: 3339; }
    14.9%, 84.5% { stroke-dashoffset: 0; }
    84.6%, 100% { stroke-dashoffset: 3339; }
}
svg.acjk #stroke-p3 { animation-name: zk3; }
/* Stroke 4: Starts at 14.9%, finishes at 19.9%, holds until 84.5% */
@keyframes zk4 {
    0%, 14.9% { stroke-dashoffset: 3339; }
    19.9%, 84.5% { stroke-dashoffset: 0; }
    84.6%, 100% { stroke-dashoffset: 3339; }
}
svg.acjk #stroke-p4 { animation-name: zk4; }
/* Stroke 5: Starts at 19.9%, finishes at 24.8%, holds until 84.5% */
@keyframes zk5 {
    0%, 19.9% { stroke-dashoffset: 3339; }
    24.8%, 84.5% { stroke-dashoffset: 0; }
    84.6%, 100% { stroke-dashoffset: 3339; }
}
svg.acjk #stroke-p5 { animation-name: zk5; }
/* Stroke 6: Starts at 24.8%, finishes at 29.8%, holds until 84.5% */
@keyframes zk6 {
    0%, 24.8% { stroke-dashoffset: 3339; }
    29.8%, 84.5% { stroke-dashoffset: 0; }
    84.6%, 100% { stroke-dashoffset: 3339; }
}
svg.acjk #stroke-p6 { animation-name: zk6; }
/* Stroke 7: Starts at 29.8%, finishes at 34.8%, holds until 84.5% */
@keyframes zk7 {
    0%, 29.8% { stroke-dashoffset: 3339; }
    34.8%, 84.5% { stroke-dashoffset: 0; }
    84.6%, 100% { stroke-dashoffset: 3339; }
}
svg.acjk #stroke-p7 { animation-name: zk7; }
/* Stroke 8: Starts at 34.8%, finishes at 39.8%, holds until 84.5% */
@keyframes zk8 {
    0%, 34.8% { stroke-dashoffset: 3339; }
    39.8%, 84.5% { stroke-dashoffset: 0; }
    84.6%, 100% { stroke-dashoffset: 3339; }
}
svg.acjk #stroke-p8 { animation-name: zk8; }
/* Stroke 9: Starts at 39.8%, finishes at 44.7%, holds until 84.5% */
@keyframes zk9 {
    0%, 39.8% { stroke-dashoffset: 3339; }
    44.7%, 84.5% { stroke-dashoffset: 0; }
    84.6%, 100% { stroke-dashoffset: 3339; }
}
svg.acjk #stroke-p9 { animation-name: zk9; }
/* Stroke 10: Starts at 44.7%, finishes at 49.7%, holds until 84.5% */
@keyframes zk10 {
    0%, 44.7% { stroke-dashoffset: 3339; }
    49.7%, 84.5% { stroke-dashoffset: 0; }
    84.6%, 100% { stroke-dashoffset: 3339; }
}
svg.acjk #stroke-p10 { animation-name: zk10; }
/* Stroke 11: Starts at 49.7%, finishes at 54.7%, holds until 84.5% */
@keyframes zk11 {
    0%, 49.7% { stroke-dashoffset: 3339; }
    54.7%, 84.5% { stroke-dashoffset: 0; }
    84.6%, 100% { stroke-dashoffset: 3339; }
}
svg.acjk #stroke-p11 { animation-name: zk11; }
/* Stroke 12: Starts at 54.7%, finishes at 59.6%, holds until 84.5% */
@keyframes zk12 {
    0%, 54.7% { stroke-dashoffset: 3339; }
    59.6%, 84.5% { stroke-dashoffset: 0; }
    84.6%, 100% { stroke-dashoffset: 3339; }
}
svg.acjk #stroke-p12 { animation-name: zk12; }
/* Stroke 13: Starts at 59.6%, finishes at 64.6%, holds until 84.5% */
@keyframes zk13 {
    0%, 59.6% { stroke-dashoffset: 3339; }
    64.6%, 84.5% { stroke-dashoffset: 0; }
    84.6%, 100% { stroke-dashoffset: 3339; }
}
svg.acjk #stroke-p13 { animation-name: zk13; }
/* Stroke 14: Starts at 64.6%, finishes at 69.6%, holds until 84.5% */
@keyframes zk14 {
    0%, 64.6% { stroke-dashoffset: 3339; }
    69.6%, 84.5% { stroke-dashoffset: 0; }
    84.6%, 100% { stroke-dashoffset: 3339; }
}
svg.acjk #stroke-p14 { animation-name: zk14; }
/* Stroke 15: Starts at 69.6%, finishes at 74.5%, holds until 84.5% */
@keyframes zk15 {
    0%, 69.6% { stroke-dashoffset: 3339; }
    74.5%, 84.5% { stroke-dashoffset: 0; }
    84.6%, 100% { stroke-dashoffset: 3339; }
}
svg.acjk #stroke-p15 { animation-name: zk15; }
/* Stroke 16: Starts at 74.5%, finishes at 79.5%, holds until 84.5% */
@keyframes zk16 {
    0%, 74.5% { stroke-dashoffset: 3339; }
    79.5%, 84.5% { stroke-dashoffset: 0; }
    84.6%, 100% { stroke-dashoffset: 3339; }
}
svg.acjk #stroke-p16 { animation-name: zk16; }
/* Stroke 17: Starts at 79.5%, finishes at 84.5%, holds until 84.5% */
@keyframes zk17 {
    0%, 79.5% { stroke-dashoffset: 3339; }
    84.5%, 84.5% { stroke-dashoffset: 0; }
    84.6%, 100% { stroke-dashoffset: 3339; }
}
svg.acjk #stroke-p17 { animation-name: zk17; }
]]>
</style>
<defs>
    <path id="p1" d="M 563 85 Q 590 103 618 125 Q 631 135 645 133 Q 654 132 657 120 Q 660 107 649 82 Q 637 55 554 44 Q 541 43 536 45 Q 532 49 534 60 Q 538 70 563 85 Z"/>
    <path id="p2" d="M 421 200 Q 421 199 421 197 Q 411 178 401 170 Q 385 157 384 179 Q 388 209 341 259 Q 323 280 347 326 Q 359 348 376 325 Q 382 315 418 224 C 421 217 423 208 421 200 Z"/>
    <path id="p3" d="M 418 224 Q 434 233 470 225 Q 569 189 724 173 Q 749 170 759 171 Q 771 178 769 184 Q 769 187 741 249 Q 735 259 741 263 Q 747 267 761 257 Q 807 224 845 214 Q 876 204 876 196 Q 875 189 815 145 Q 794 130 727 146 Q 664 155 494 187 Q 457 194 421 200 C 413 201 411 221 418 224 Z"/>
    <path id="p4" d="M 478 253 Q 482 262 478 269 Q 457 312 410 359 Q 404 363 402 367 Q 399 373 407 373 Q 435 373 503 306 Q 513 296 520 291 Q 527 287 525 278 Q 524 271 510 255 Q 497 242 486 241 Q 476 240 478 253 Z"/>
    <path id="p5" d="M 651 270 Q 673 289 697 312 Q 707 322 718 321 Q 725 321 729 311 Q 733 301 727 279 Q 721 255 648 235 Q 636 232 632 234 Q 628 237 629 246 Q 632 253 651 270 Z"/>
    <path id="p6" d="M 494 365 Q 513 398 533 407 Q 542 411 549 403 Q 553 396 553 385 Q 552 369 541 360 Q 505 336 489 339 Q 485 339 486 347 Q 486 354 494 365 Z"/>
    <path id="p7" d="M 626 397 Q 668 354 676 349 Q 688 340 679 331 Q 669 322 652 317 Q 636 311 629 315 Q 622 316 625 325 Q 631 340 597 404 C 592 413 620 405 626 397 Z"/>
    <path id="p8" d="M 540 448 C 594 436 665 419 754 411 C 762 410 784 401 752 384 C 720 367 657 389 626 397 C 607 402 607 402 597 404 C 572 409 501 421 383 441 C 368 443 366 449 378 458 C 394 470 415 474 441 469 C 457 465 476 461 498 457 C 526 451 526 451 540 448 Z"/>
    <path id="p9" d="M 539 485 C 555 469 568 461 540 448 C 528 441 505 445 498 457 C 478 489 447 526 401 561 C 376 578 377 585 409 577 C 440 570 477 543 523 500 C 534 490 534 490 539 485 Z"/>
    <path id="p10" d="M 662 586 C 658 576 656 569 652 561 C 649 555 645 551 641 546 C 620 519 573 488 539 485 C 532 484 516 499 523 500 C 531 502 538 506 547 510 C 565 518 581 528 592 538 C 597 542 605 549 610 557 C 622 576 625 588 629 606 C 641 667 628 719 612 726 C 592 733 569 731 553 733 C 538 735 519 734 543 750 C 572 769 595 785 609 800 C 616 808 624 811 631 807 C 654 791 667 753 672 693 C 674 660 672 636 669 612 C 667 603 664 594 662 586 Z"/>
    <path id="p11" d="M 547 510 C 532 542 490 592 396 656 C 386 662 387 664 399 664 C 443 664 552 585 592 538 C 598 529 550 501 547 510 Z"/>
    <path id="p12" d="M 610 557 C 575 606 534 661 432 728 C 425 734 424 737 428 739 C 503 734 587 659 629 606 C 636 595 615 548 610 557 Z"/>
    <path id="p13" d="M 652 561 C 702 532 738 509 764 502 C 791 493 768 469 758 458 C 744 442 711 423 711 454 C 710 470 699 480 641 546 C 637 550 647 565 652 561 Z"/>
    <path id="p14" d="M 669 612 Q 736 654 817 719 Q 833 734 848 735 Q 855 735 861 725 Q 870 712 852 676 Q 834 628 668 586 Q 664 585 662 586 C 653 586 662 607 669 612 Z"/>
    <path id="p15" d="M 193 215 Q 218 240 247 271 Q 260 284 276 284 Q 286 284 293 271 Q 297 256 291 226 Q 282 195 190 167 Q 174 163 168 165 Q 164 169 164 182 Q 167 192 193 215 Z"/>
    <path id="p16" d="M 310 739 Q 319 732 322 718 Q 328 687 288 623 Q 257 566 320 481 Q 323 477 327 473 Q 349 454 328 439 Q 309 424 273 411 Q 251 399 233 417 Q 205 438 169 452 Q 120 473 104 470 Q 97 470 94 475 Q 93 479 101 484 Q 140 503 223 471 Q 235 467 244 481 Q 266 500 247 528 Q 202 582 255 646 Q 289 701 285 736 C 285 744 303 744 310 739 Z"/>
    <path id="p17" d="M 285 736 Q 245 735 204 748 Q 167 763 108 766 Q 101 767 97 775 Q 94 782 103 792 Q 119 811 143 823 Q 155 829 174 815 Q 249 764 319 778 Q 380 793 506 852 Q 722 955 802 932 Q 862 913 912 878 Q 934 865 912 864 Q 690 864 545 817 Q 473 795 388 760 Q 349 742 310 739 C 293 737 293 737 285 736 Z"/>

    <clipPath id="z36995c1"><use href="#p1"/></clipPath>
    <clipPath id="z36995c2"><use href="#p2"/></clipPath>
    <clipPath id="z36995c3"><use href="#p3"/></clipPath>
    <clipPath id="z36995c4"><use href="#p4"/></clipPath>
    <clipPath id="z36995c5"><use href="#p5"/></clipPath>
    <clipPath id="z36995c6"><use href="#p6"/></clipPath>
    <clipPath id="z36995c7"><use href="#p7"/></clipPath>
    <clipPath id="z36995c8"><use href="#p8"/></clipPath>
    <clipPath id="z36995c9"><use href="#p9"/></clipPath>
    <clipPath id="z36995c10"><use href="#p10"/></clipPath>
    <clipPath id="z36995c11"><use href="#p11"/></clipPath>
    <clipPath id="z36995c12"><use href="#p12"/></clipPath>
    <clipPath id="z36995c13"><use href="#p13"/></clipPath>
    <clipPath id="z36995c14"><use href="#p14"/></clipPath>
    <clipPath id="z36995c15"><use href="#p15"/></clipPath>
    <clipPath id="z36995c16"><use href="#p16"/></clipPath>
    <clipPath id="z36995c17"><use href="#p17"/></clipPath>
</defs>
<g id="bg-layer" class="bg">
<use href="#p1"/>
<use href="#p2"/>
<use href="#p3"/>
<use href="#p4"/>
<use href="#p5"/>
<use href="#p6"/>
<use href="#p7"/>
<use href="#p8"/>
<use href="#p9"/>
<use href="#p10"/>
<use href="#p11"/>
<use href="#p12"/>
<use href="#p13"/>
<use href="#p14"/>
<use href="#p15"/>
<use href="#p16"/>
<use href="#p17"/>
</g>
<g id="anim-layer">
    <path id="stroke-p1" style="stroke:#FF4444" pathLength="3333" clip-path="url(#z36995c1)" d="M 538 52 L 619 90 L 646 127"/>
    <path id="stroke-p2" style="stroke:#FF4444" pathLength="3333" clip-path="url(#z36995c2)" d="M 392 175 L 398 213 L 355 332"/>
    <path id="stroke-p3" style="stroke:#FF4444" pathLength="3333" clip-path="url(#z36995c3)" d="M 416 213 L 784 157 L 823 209 L 745 258"/>
    <path id="stroke-p4" style="stroke:#FF4444" pathLength="3333" clip-path="url(#z36995c4)" d="M 485 249 L 496 285 L 408 367"/>
    <path id="stroke-p5" style="stroke:#FF4444" pathLength="3333" clip-path="url(#z36995c5)" d="M 635 242 L 726 311"/>
    <path id="stroke-p6" style="stroke:#000" pathLength="3333" clip-path="url(#z36995c6)" d="M 492 347 L 544 404"/>
    <path id="stroke-p7" style="stroke:#000" pathLength="3333" clip-path="url(#z36995c7)" d="M 632 319 L 649 351 L 603 401"/>
    <path id="stroke-p8" style="stroke:#000" pathLength="3333" clip-path="url(#z36995c8)" d="M 378 448 L 764 400"/>
    <path id="stroke-p9" style="stroke:#000" pathLength="3333" clip-path="url(#z36995c9)" d="M 544 452 L 393 574"/>
    <path id="stroke-p10" style="stroke:#000" pathLength="3333" clip-path="url(#z36995c10)" d="M 529 496 L 631 559 L 653 656 L 626 760 L 541 739"/>
    <path id="stroke-p11" style="stroke:#000" pathLength="3333" clip-path="url(#z36995c11)" d="M 551 516 L 557 543 L 521 578 L 398 658"/>
    <path id="stroke-p12" style="stroke:#000" pathLength="3333" clip-path="url(#z36995c12)" d="M 614 563 L 561 649 L 434 733"/>
    <path id="stroke-p13" style="stroke:#000" pathLength="3333" clip-path="url(#z36995c13)" d="M 722 442 L 738 485 L 647 554"/>
    <path id="stroke-p14" style="stroke:#000" pathLength="3333" clip-path="url(#z36995c14)" d="M 665 593 L 808 672 L 850 729"/>
    <path id="stroke-p15" style="stroke:#000" pathLength="3333" clip-path="url(#z36995c15)" d="M 171 174 L 286 277"/>
    <path id="stroke-p16" style="stroke:#000" pathLength="3333" clip-path="url(#z36995c16)" d="M 101 475 L 251 441 L 295 471 L 252 579 L 297 683 L 297 739"/>
    <path id="stroke-p17" style="stroke:#000" pathLength="3333" clip-path="url(#z36995c17)" d="M 102 776 L 151 793 L 254 758 L 336 762 L 740 895 L 917 869"/>
</g>
</svg>