<svg id="z37082" class="acjk" viewBox="0 0 1024 1024" xmlns="http://www.w3.org/2000/svg">
<style>
<![CDATA[
svg.acjk path[clip-path] {
    animation-duration: 9.7s;
    animation-timing-function: linear;
    animation-iteration-count: infinite;
    stroke-dasharray: 3337;
    stroke-dashoffset: 3339;
    stroke-width: 128;
    stroke-linecap: round;
    fill: none;
    stroke: #FF4444;
}
svg.acjk .bg { fill: #ccc; opacity: 0.5; }

/* Stroke 1: Starts at 0.0%, finishes at 8.2%, holds until 74.2% */
@keyframes zk1 {
    0%, 0.0% { stroke-dashoffset: 3339; }
    8.2%, 74.2% { stroke-dashoffset: 0; }
    74.3%, 100% { stroke-dashoffset: 3339; }
}
svg.acjk #stroke-p1 { animation-name: zk1; }
/* Stroke 2: Starts at 8.2%, finishes at 16.5%, holds until 74.2% */
@keyframes zk2 {
    0%, 8.2% { stroke-dashoffset: 3339; }
    16.5%, 74.2% { stroke-dashoffset: 0; }
    74.3%, 100% { stroke-dashoffset: 3339; }
}
svg.acjk #stroke-p2 { animation-name: zk2; }
/* Stroke 3: Starts at 16.5%, finishes at 24.7%, holds until 74.2% */
@keyframes zk3 {
    0%, 16.5% { stroke-dashoffset: 3339; }
    24.7%, 74.2% { stroke-dashoffset: 0; }
    74.3%, 100% { stroke-dashoffset: 3339; }
}
svg.acjk #stroke-p3 { animation-name: zk3; }
/* Stroke 4: Starts at 24.7%, finishes at 33.0%, holds until 74.2% */
@keyframes zk4 {
    0%, 24.7% { stroke-dashoffset: 3339; }
    33.0%, 74.2% { stroke-dashoffset: 0; }
    74.3%, 100% { stroke-dashoffset: 3339; }
}
svg.acjk #stroke-p4 { animation-name: zk4; }
/* Stroke 5: Starts at 33.0%, finishes at 41.2%, holds until 74.2% */
@keyframes zk5 {
    0%, 33.0% { stroke-dashoffset: 3339; }
    41.2%, 74.2% { stroke-dashoffset: 0; }
    74.3%, 100% { stroke-dashoffset: 3339; }
}
svg.acjk #stroke-p5 { animation-name: zk5; }
/* Stroke 6: Starts at 41.2%, finishes at 49.5%, holds until 74.2% */
@keyframes zk6 {
    0%, 41.2% { stroke-dashoffset: 3339; }
    49.5%, 74.2% { stroke-dashoffset: 0; }
    74.3%, 100% { stroke-dashoffset: 3339; }
}
svg.acjk #stroke-p6 { animation-name: zk6; }
/* Stroke 7: Starts at 49.5%, finishes at 57.7%, holds until 74.2% */
@keyframes zk7 {
    0%, 49.5% { stroke-dashoffset: 3339; }
    57.7%, 74.2% { stroke-dashoffset: 0; }
    74.3%, 100% { stroke-dashoffset: 3339; }
}
svg.acjk #stroke-p7 { animation-name: zk7; }
/* Stroke 8: Starts at 57.7%, finishes at 66.0%, holds until 74.2% */
@keyframes zk8 {
    0%, 57.7% { stroke-dashoffset: 3339; }
    66.0%, 74.2% { stroke-dashoffset: 0; }
    74.3%, 100% { stroke-dashoffset: 3339; }
}
svg.acjk #stroke-p8 { animation-name: zk8; }
/* Stroke 9: Starts at 66.0%, finishes at 74.2%, holds until 74.2% */
@keyframes zk9 {
    0%, 66.0% { stroke-dashoffset: 3339; }
    74.2%, 74.2% { stroke-dashoffset: 0; }
    74.3%, 100% { stroke-dashoffset: 3339; }
}
svg.acjk #stroke-p9 { animation-name: zk9; }
]]>
</style>
<defs>
    <path id="p1" d="M 273 198 C 254 201 226 198 210 194 C 192 188 176 179 177 173 C 178 166 182 162 235 156 C 286 149 347 136 371 130 C 412 117 459 107 479 114 C 498 121 508 127 508 135 C 508 140 505 144 500 147 C 493 149 455 158 403 170 C 372 176 350 182 324 188 C 290 195 290 195 273 198 Z"/>
    <path id="p2" d="M 273 198 C 288 215 289 245 288 268 C 287 280 286 294 282 316 C 279 339 279 339 277 351 C 271 383 263 442 254 480 C 251 493 290 487 293 474 C 303 435 320 365 326 340 C 332 314 332 314 335 301 C 339 285 353 241 360 229 C 367 217 349 202 324 188 C 309 179 263 184 273 198 Z"/>
    <path id="p3" d="M 428 269 C 419 269 409 272 391 280 C 374 287 357 295 335 301 C 300 311 300 311 282 316 C 265 320 221 328 185 334 C 149 340 145 342 145 348 C 145 354 160 363 176 367 C 186 369 200 368 211 365 C 226 362 241 359 277 351 C 310 344 310 344 326 340 C 344 336 364 330 381 326 C 409 320 419 321 423 331 C 426 337 426 358 421 378 C 416 396 406 433 400 456 C 397 474 447 461 453 444 C 452 443 464 415 471 400 C 482 379 492 364 504 352 C 517 339 520 334 520 325 C 520 311 513 305 470 284 C 450 274 439 269 428 269 Z"/>
    <path id="p4" d="M 400 456 C 379 460 321 469 293 474 C 267 478 267 478 254 480 C 232 483 206 486 184 489 C 152 492 96 498 87 502 C 84 502 82 504 82 506 C 79 508 82 516 87 522 C 94 530 114 541 129 546 C 132 546 141 548 147 548 C 158 548 162 547 199 538 C 311 507 417 488 524 478 C 543 476 559 474 562 473 C 575 468 568 451 549 442 C 527 432 496 434 453 444 C 418 452 418 452 400 456 Z"/>
    <path id="p5" d="M 175 601 C 171 601 166 607 166 611 C 166 613 169 622 173 632 C 188 665 201 706 209 753 C 214 782 216 793 221 803 C 234 827 246 836 252 830 C 256 827 260 810 258 798 C 256 774 256 774 255 762 C 253 750 241 665 240 648 C 240 635 237 618 225 613 C 214 608 183 601 175 601 Z"/>
    <path id="p6" d="M 394 579 C 358 591 313 601 261 610 C 250 612 237 613 225 613 C 212 613 228 650 240 648 C 251 644 403 616 409 616 C 416 616 422 619 424 624 C 429 636 427 670 404 733 C 398 749 450 754 456 738 C 472 698 489 665 505 648 C 512 642 519 633 521 626 C 522 620 519 610 515 606 C 506 596 476 580 457 572 C 436 564 414 573 394 579 Z"/>
    <path id="p7" d="M 404 733 C 372 742 321 750 255 762 C 243 764 246 800 258 798 C 300 791 393 781 444 777 C 476 774 482 773 482 762 C 482 750 467 743 456 738 C 440 732 421 730 404 733 Z"/>
    <path id="p8" d="M 661 292 C 696 280 751 255 757 253 C 766 248 775 240 784 233 C 794 222 808 221 824 227 C 844 235 890 269 893 279 C 894 287 889 296 874 305 C 859 314 843 329 820 358 C 795 389 780 416 783 434 C 784 443 787 448 801 458 C 864 506 904 555 920 601 C 925 619 928 632 927 651 C 925 691 911 728 886 759 C 878 769 862 777 854 773 C 839 763 804 731 760 703 C 742 692 730 678 738 675 C 749 670 748 675 759 677 C 835 685 842 685 853 668 C 865 646 867 622 857 591 C 844 553 823 522 798 498 C 785 486 779 481 761 469 C 731 449 729 444 743 418 C 753 398 763 374 779 336 C 793 301 794 294 789 288 C 780 279 755 289 736 296 C 710 305 688 315 673 322 C 663 326 651 296 661 292 Z"/>
    <path id="p9" d="M 623 973 C 617 962 613 948 610 916 C 606 875 605 837 607 672 C 609 479 608 378 605 363 C 601 340 593 315 584 295 C 582 289 580 283 580 281 C 580 276 588 269 600 268 C 616 266 645 275 661 292 C 669 300 675 311 673 322 C 670 335 667 356 666 376 C 662 418 662 447 661 628 C 659 907 658 941 644 967 C 639 977 627 981 623 973 Z"/>

    <clipPath id="z37082c1"><use href="#p1"/></clipPath>
    <clipPath id="z37082c2"><use href="#p2"/></clipPath>
    <clipPath id="z37082c3"><use href="#p3"/></clipPath>
    <clipPath id="z37082c4"><use href="#p4"/></clipPath>
    <clipPath id="z37082c5"><use href="#p5"/></clipPath>
    <clipPath id="z37082c6"><use href="#p6"/></clipPath>
    <clipPath id="z37082c7"><use href="#p7"/></clipPath>
    <clipPath id="z37082c8"><use href="#p8"/></clipPath>
    <clipPath id="z37082c9"><use href="#p9"/></clipPath>
</defs>
<g id="bg-layer" class="bg">
<use href="#p1"/>
<use href="#p2"/>
<use href="#p3"/>
<use href="#p4"/>
<use href="#p5"/>
<use href="#p6"/>
<use href="#p7"/>
<use href="#p8"/>
<use href="#p9"/>
</g>
<g id="anim-layer">
    <path id="stroke-p1" style="stroke:#FF4444" pathLength="3333" clip-path="url(#z37082c1)" d="M 186 173 L 500 138"/>
    <path id="stroke-p2" style="stroke:#FF4444" pathLength="3333" clip-path="url(#z37082c2)" d="M 287 201 L 329 226 L 261 474"/>
    <path id="stroke-p3" style="stroke:#FF4444" pathLength="3333" clip-path="url(#z37082c3)" d="M 153 347 L 430 298 L 474 325 L 408 448"/>
    <path id="stroke-p4" style="stroke:#FF4444" pathLength="3333" clip-path="url(#z37082c4)" d="M 87 511 L 176 520 L 517 456 L 558 466"/>
    <path id="stroke-p5" style="stroke:#FF4444" pathLength="3333" clip-path="url(#z37082c5)" d="M 177 608 L 216 640 L 248 823"/>
    <path id="stroke-p6" style="stroke:#FF4444" pathLength="3333" clip-path="url(#z37082c6)" d="M 236 619 L 430 593 L 485 627 L 417 726"/>
    <path id="stroke-p7" style="stroke:#FF4444" pathLength="3333" clip-path="url(#z37082c7)" d="M 263 768 L 476 762"/>
    <path id="stroke-p8" style="stroke:#000" pathLength="3333" clip-path="url(#z37082c8)" d="M 665 298 L 811 248 L 852 289 L 747 430 L 852 538 L 898 666 L 857 733 L 744 682"/>
    <path id="stroke-p9" style="stroke:#000" pathLength="3333" clip-path="url(#z37082c9)" d="M 589 281 L 631 304 L 632 966"/>
</g>
</svg>