<svg id="z37231" class="acjk" viewBox="0 0 1024 1024" xmlns="http://www.w3.org/2000/svg">
<style>
<![CDATA[
svg.acjk path[clip-path] {
    animation-duration: 12.9s;
    animation-timing-function: linear;
    animation-iteration-count: infinite;
    stroke-dasharray: 3337;
    stroke-dashoffset: 3339;
    stroke-width: 128;
    stroke-linecap: round;
    fill: none;
    stroke: #FF4444;
}
svg.acjk .bg { fill: #ccc; opacity: 0.5; }

/* Stroke 1: Starts at 0.0%, finishes at 6.2%, holds until 80.6% */
@keyframes zk1 {
    0%, 0.0% { stroke-dashoffset: 3339; }
    6.2%, 80.6% { stroke-dashoffset: 0; }
    80.7%, 100% { stroke-dashoffset: 3339; }
}
svg.acjk #stroke-p1 { animation-name: zk1; }
/* Stroke 2: Starts at 6.2%, finishes at 12.4%, holds until 80.6% */
@keyframes zk2 {
    0%, 6.2% { stroke-dashoffset: 3339; }
    12.4%, 80.6% { stroke-dashoffset: 0; }
    80.7%, 100% { stroke-dashoffset: 3339; }
}
svg.acjk #stroke-p2 { animation-name: zk2; }
/* Stroke 3: Starts at 12.4%, finishes at 18.6%, holds until 80.6% */
@keyframes zk3 {
    0%, 12.4% { stroke-dashoffset: 3339; }
    18.6%, 80.6% { stroke-dashoffset: 0; }
    80.7%, 100% { stroke-dashoffset: 3339; }
}
svg.acjk #stroke-p3 { animation-name: zk3; }
/* Stroke 4: Starts at 18.6%, finishes at 24.8%, holds until 80.6% */
@keyframes zk4 {
    0%, 18.6% { stroke-dashoffset: 3339; }
    24.8%, 80.6% { stroke-dashoffset: 0; }
    80.7%, 100% { stroke-dashoffset: 3339; }
}
svg.acjk #stroke-p4 { animation-name: zk4; }
/* Stroke 5: Starts at 24.8%, finishes at 31.0%, holds until 80.6% */
@keyframes zk5 {
    0%, 24.8% { stroke-dashoffset: 3339; }
    31.0%, 80.6% { stroke-dashoffset: 0; }
    80.7%, 100% { stroke-dashoffset: 3339; }
}
svg.acjk #stroke-p5 { animation-name: zk5; }
/* Stroke 6: Starts at 31.0%, finishes at 37.2%, holds until 80.6% */
@keyframes zk6 {
    0%, 31.0% { stroke-dashoffset: 3339; }
    37.2%, 80.6% { stroke-dashoffset: 0; }
    80.7%, 100% { stroke-dashoffset: 3339; }
}
svg.acjk #stroke-p6 { animation-name: zk6; }
/* Stroke 7: Starts at 37.2%, finishes at 43.4%, holds until 80.6% */
@keyframes zk7 {
    0%, 37.2% { stroke-dashoffset: 3339; }
    43.4%, 80.6% { stroke-dashoffset: 0; }
    80.7%, 100% { stroke-dashoffset: 3339; }
}
svg.acjk #stroke-p7 { animation-name: zk7; }
/* Stroke 8: Starts at 43.4%, finishes at 49.6%, holds until 80.6% */
@keyframes zk8 {
    0%, 43.4% { stroke-dashoffset: 3339; }
    49.6%, 80.6% { stroke-dashoffset: 0; }
    80.7%, 100% { stroke-dashoffset: 3339; }
}
svg.acjk #stroke-p8 { animation-name: zk8; }
/* Stroke 9: Starts at 49.6%, finishes at 55.8%, holds until 80.6% */
@keyframes zk9 {
    0%, 49.6% { stroke-dashoffset: 3339; }
    55.8%, 80.6% { stroke-dashoffset: 0; }
    80.7%, 100% { stroke-dashoffset: 3339; }
}
svg.acjk #stroke-p9 { animation-name: zk9; }
/* Stroke 10: Starts at 55.8%, finishes at 62.0%, holds until 80.6% */
@keyframes zk10 {
    0%, 55.8% { stroke-dashoffset: 3339; }
    62.0%, 80.6% { stroke-dashoffset: 0; }
    80.7%, 100% { stroke-dashoffset: 3339; }
}
svg.acjk #stroke-p10 { animation-name: zk10; }
/* Stroke 11: Starts at 62.0%, finishes at 68.2%, holds until 80.6% */
@keyframes zk11 {
    0%, 62.0% { stroke-dashoffset: 3339; }
    68.2%, 80.6% { stroke-dashoffset: 0; }
    80.7%, 100% { stroke-dashoffset: 3339; }
}
svg.acjk #stroke-p11 { animation-name: zk11; }
/* Stroke 12: Starts at 68.2%, finishes at 74.4%, holds until 80.6% */
@keyframes zk12 {
    0%, 68.2% { stroke-dashoffset: 3339; }
    74.4%, 80.6% { stroke-dashoffset: 0; }
    80.7%, 100% { stroke-dashoffset: 3339; }
}
svg.acjk #stroke-p12 { animation-name: zk12; }
/* Stroke 13: Starts at 74.4%, finishes at 80.6%, holds until 80.6% */
@keyframes zk13 {
    0%, 74.4% { stroke-dashoffset: 3339; }
    80.6%, 80.6% { stroke-dashoffset: 0; }
    80.7%, 100% { stroke-dashoffset: 3339; }
}
svg.acjk #stroke-p13 { animation-name: zk13; }
]]>
</style>
<defs>
    <path id="p1" d="M 342 208 Q 444 183 451 178 Q 458 171 455 163 Q 448 153 422 146 Q 401 142 290 176 Q 235 191 148 202 Q 114 208 139 223 Q 175 242 220 235 C 241 230 241 230 251 228 Q 278 221 306 216 C 330 211 330 211 342 208 Z"/>
    <path id="p2" d="M 174 369 Q 165 353 135 343 Q 126 339 116 342 Q 109 346 114 358 Q 132 424 133 529 Q 127 658 115 708 Q 102 760 135 799 Q 144 811 154 800 Q 161 788 165 775 C 169 765 168 753 168 742 Q 169 723 170 696 Q 173 420 178 399 C 180 389 180 377 174 369 Z"/>
    <path id="p3" d="M 388 760 Q 413 793 433 824 Q 442 842 453 841 Q 468 840 483 808 Q 499 771 495 727 Q 486 621 479 426 Q 478 398 493 376 Q 502 364 493 354 Q 475 336 426 314 Q 408 305 394 314 Q 375 323 354 331 C 332 338 332 338 321 341 Q 297 345 276 352 C 251 357 251 357 239 359 Q 199 365 174 369 C 164 371 168 401 178 399 Q 206 395 237 390 C 260 385 260 385 272 383 Q 294 377 319 373 C 340 369 340 369 350 367 Q 396 354 413 366 Q 431 384 431 493 C 432 514 432 514 432 524 Q 433 600 427 725 Q 423 735 416 737 C 406 743 381 750 388 760 Z"/>
    <path id="p4" d="M 220 235 Q 238 253 239 359 C 238 380 238 380 237 390 Q 234 454 190 550 Q 187 554 187 559 Q 186 566 192 564 Q 222 554 253 468 Q 265 435 271 395 Q 271 389 272 383 C 275 362 275 362 276 352 Q 277 330 277 309 Q 277 272 279 260 Q 283 250 278 242 Q 268 235 251 228 C 241 224 214 227 220 235 Z"/>
    <path id="p5" d="M 354 331 Q 358 288 373 238 Q 377 226 370 219 Q 360 212 342 208 C 330 206 301 205 306 216 Q 322 249 324 269 Q 324 275 321 341 C 320 362 320 362 319 373 Q 318 392 316 413 Q 310 491 343 517 Q 355 529 408 527 Q 421 527 432 524 C 442 522 441 495 431 493 Q 430 492 426 492 Q 375 489 367 482 Q 343 463 350 367 C 353 343 353 343 354 331 Z"/>
    <path id="p6" d="M 206 632 Q 190 636 210 649 Q 217 655 233 652 Q 308 639 364 631 Q 386 627 377 615 Q 367 602 343 598 Q 325 595 206 632 Z"/>
    <path id="p7" d="M 165 775 Q 175 776 187 775 Q 251 763 388 760 C 400 760 425 746 416 737 Q 409 730 394 719 Q 378 709 347 715 Q 248 734 168 742 C 157 744 154 775 165 775 Z"/>
    <path id="p8" d="M 591 297 Q 783 225 800 223 Q 822 219 818 199 Q 811 180 789 159 Q 770 140 758 139 Q 745 138 745 151 Q 742 181 593 273 C 586 277 584 300 591 297 Z"/>
    <path id="p9" d="M 880 397 Q 862 358 851 288 Q 850 276 844 272 Q 837 266 834 279 Q 807 370 785 383 Q 761 405 666 403 Q 609 397 596 369 Q 592 359 591 297 C 592 281 592 281 593 273 Q 597 185 608 157 Q 614 139 588 121 Q 567 108 549 98 Q 533 88 519 98 Q 509 104 528 126 Q 552 157 555 289 Q 543 364 568 407 Q 593 459 754 452 Q 815 448 862 427 Q 890 420 880 397 Z"/>
    <path id="p10" d="M 592 533 Q 583 524 561 515 Q 552 511 543 515 Q 537 519 542 529 Q 554 580 557 623 Q 557 732 549 773 Q 536 818 568 856 Q 577 866 585 856 Q 594 843 595 828 C 596 808 596 808 597 798 Q 597 792 598 696 C 598 679 598 679 598 670 Q 599 574 601 566 Q 601 563 601 561 C 601 551 600 539 592 533 Z"/>
    <path id="p11" d="M 747 810 Q 772 841 791 873 Q 798 889 809 888 Q 824 887 837 857 Q 853 823 850 781 Q 826 570 850 539 Q 857 527 849 519 Q 833 501 786 481 Q 770 474 756 482 Q 719 500 592 533 C 582 535 591 563 601 561 Q 605 561 745 527 Q 764 523 775 529 Q 802 556 786 771 Q 785 774 785 779 Q 781 794 770 790 C 760 788 741 802 747 810 Z"/>
    <path id="p12" d="M 598 696 Q 601 696 724 677 Q 746 673 737 660 Q 727 645 701 642 Q 670 641 598 670 C 590 673 590 698 598 696 Z"/>
    <path id="p13" d="M 595 828 Q 604 829 616 827 Q 658 817 747 810 C 757 810 778 796 770 790 Q 763 783 748 773 Q 732 766 704 773 Q 646 788 597 798 C 587 800 585 828 595 828 Z"/>

    <clipPath id="z37231c1"><use href="#p1"/></clipPath>
    <clipPath id="z37231c2"><use href="#p2"/></clipPath>
    <clipPath id="z37231c3"><use href="#p3"/></clipPath>
    <clipPath id="z37231c4"><use href="#p4"/></clipPath>
    <clipPath id="z37231c5"><use href="#p5"/></clipPath>
    <clipPath id="z37231c6"><use href="#p6"/></clipPath>
    <clipPath id="z37231c7"><use href="#p7"/></clipPath>
    <clipPath id="z37231c8"><use href="#p8"/></clipPath>
    <clipPath id="z37231c9"><use href="#p9"/></clipPath>
    <clipPath id="z37231c10"><use href="#p10"/></clipPath>
    <clipPath id="z37231c11"><use href="#p11"/></clipPath>
    <clipPath id="z37231c12"><use href="#p12"/></clipPath>
    <clipPath id="z37231c13"><use href="#p13"/></clipPath>
</defs>
<g id="bg-layer" class="bg">
<use href="#p1"/>
<use href="#p2"/>
<use href="#p3"/>
<use href="#p4"/>
<use href="#p5"/>
<use href="#p6"/>
<use href="#p7"/>
<use href="#p8"/>
<use href="#p9"/>
<use href="#p10"/>
<use href="#p11"/>
<use href="#p12"/>
<use href="#p13"/>
</g>
<g id="anim-layer">
    <path id="stroke-p1" style="stroke:#FF4444" pathLength="3333" clip-path="url(#z37231c1)" d="M 137 210 L 209 215 L 452 167"/>
    <path id="stroke-p2" style="stroke:#FF4444" pathLength="3333" clip-path="url(#z37231c2)" d="M 122 349 L 151 411 L 142 801"/>
    <path id="stroke-p3" style="stroke:#FF4444" pathLength="3333" clip-path="url(#z37231c3)" d="M 181 376 L 397 336 L 457 370 L 444 834"/>
    <path id="stroke-p4" style="stroke:#FF4444" pathLength="3333" clip-path="url(#z37231c4)" d="M 227 237 L 256 257 L 253 400 L 194 556"/>
    <path id="stroke-p5" style="stroke:#FF4444" pathLength="3333" clip-path="url(#z37231c5)" d="M 314 221 L 348 247 L 338 473 L 360 502 L 429 513"/>
    <path id="stroke-p6" style="stroke:#FF4444" pathLength="3333" clip-path="url(#z37231c6)" d="M 208 640 L 374 618"/>
    <path id="stroke-p7" style="stroke:#FF4444" pathLength="3333" clip-path="url(#z37231c7)" d="M 169 768 L 405 735"/>
    <path id="stroke-p8" style="stroke:#000" pathLength="3333" clip-path="url(#z37231c8)" d="M 756 142 L 770 198 L 597 288"/>
    <path id="stroke-p9" style="stroke:#000" pathLength="3333" clip-path="url(#z37231c9)" d="M 522 100 L 576 157 L 573 359 L 603 410 L 710 428 L 813 408 L 842 388 L 842 277"/>
    <path id="stroke-p10" style="stroke:#000" pathLength="3333" clip-path="url(#z37231c10)" d="M 547 519 L 575 563 L 578 856"/>
    <path id="stroke-p11" style="stroke:#000" pathLength="3333" clip-path="url(#z37231c11)" d="M 601 539 L 761 502 L 818 536 L 816 793 L 782 858"/>
    <path id="stroke-p12" style="stroke:#000" pathLength="3333" clip-path="url(#z37231c12)" d="M 606 687 L 733 665"/>
    <path id="stroke-p13" style="stroke:#000" pathLength="3333" clip-path="url(#z37231c13)" d="M 605 821 L 760 793"/>
</g>
</svg>