<svg id="z37306" class="acjk" viewBox="0 0 1024 1024" xmlns="http://www.w3.org/2000/svg">
<style>
<![CDATA[
svg.acjk path[clip-path] {
    animation-duration: 19.3s;
    animation-timing-function: linear;
    animation-iteration-count: infinite;
    stroke-dasharray: 3337;
    stroke-dashoffset: 3339;
    stroke-width: 128;
    stroke-linecap: round;
    fill: none;
    stroke: #FF4444;
}
svg.acjk .bg { fill: #ccc; opacity: 0.5; }

/* Stroke 1: Starts at 0.0%, finishes at 4.1%, holds until 87.0% */
@keyframes zk1 {
    0%, 0.0% { stroke-dashoffset: 3339; }
    4.1%, 87.0% { stroke-dashoffset: 0; }
    87.1%, 100% { stroke-dashoffset: 3339; }
}
svg.acjk #stroke-p1 { animation-name: zk1; }
/* Stroke 2: Starts at 4.1%, finishes at 8.3%, holds until 87.0% */
@keyframes zk2 {
    0%, 4.1% { stroke-dashoffset: 3339; }
    8.3%, 87.0% { stroke-dashoffset: 0; }
    87.1%, 100% { stroke-dashoffset: 3339; }
}
svg.acjk #stroke-p2 { animation-name: zk2; }
/* Stroke 3: Starts at 8.3%, finishes at 12.4%, holds until 87.0% */
@keyframes zk3 {
    0%, 8.3% { stroke-dashoffset: 3339; }
    12.4%, 87.0% { stroke-dashoffset: 0; }
    87.1%, 100% { stroke-dashoffset: 3339; }
}
svg.acjk #stroke-p3 { animation-name: zk3; }
/* Stroke 4: Starts at 12.4%, finishes at 16.6%, holds until 87.0% */
@keyframes zk4 {
    0%, 12.4% { stroke-dashoffset: 3339; }
    16.6%, 87.0% { stroke-dashoffset: 0; }
    87.1%, 100% { stroke-dashoffset: 3339; }
}
svg.acjk #stroke-p4 { animation-name: zk4; }
/* Stroke 5: Starts at 16.6%, finishes at 20.7%, holds until 87.0% */
@keyframes zk5 {
    0%, 16.6% { stroke-dashoffset: 3339; }
    20.7%, 87.0% { stroke-dashoffset: 0; }
    87.1%, 100% { stroke-dashoffset: 3339; }
}
svg.acjk #stroke-p5 { animation-name: zk5; }
/* Stroke 6: Starts at 20.7%, finishes at 24.9%, holds until 87.0% */
@keyframes zk6 {
    0%, 20.7% { stroke-dashoffset: 3339; }
    24.9%, 87.0% { stroke-dashoffset: 0; }
    87.1%, 100% { stroke-dashoffset: 3339; }
}
svg.acjk #stroke-p6 { animation-name: zk6; }
/* Stroke 7: Starts at 24.9%, finishes at 29.0%, holds until 87.0% */
@keyframes zk7 {
    0%, 24.9% { stroke-dashoffset: 3339; }
    29.0%, 87.0% { stroke-dashoffset: 0; }
    87.1%, 100% { stroke-dashoffset: 3339; }
}
svg.acjk #stroke-p7 { animation-name: zk7; }
/* Stroke 8: Starts at 29.0%, finishes at 33.2%, holds until 87.0% */
@keyframes zk8 {
    0%, 29.0% { stroke-dashoffset: 3339; }
    33.2%, 87.0% { stroke-dashoffset: 0; }
    87.1%, 100% { stroke-dashoffset: 3339; }
}
svg.acjk #stroke-p8 { animation-name: zk8; }
/* Stroke 9: Starts at 33.2%, finishes at 37.3%, holds until 87.0% */
@keyframes zk9 {
    0%, 33.2% { stroke-dashoffset: 3339; }
    37.3%, 87.0% { stroke-dashoffset: 0; }
    87.1%, 100% { stroke-dashoffset: 3339; }
}
svg.acjk #stroke-p9 { animation-name: zk9; }
/* Stroke 10: Starts at 37.3%, finishes at 41.5%, holds until 87.0% */
@keyframes zk10 {
    0%, 37.3% { stroke-dashoffset: 3339; }
    41.5%, 87.0% { stroke-dashoffset: 0; }
    87.1%, 100% { stroke-dashoffset: 3339; }
}
svg.acjk #stroke-p10 { animation-name: zk10; }
/* Stroke 11: Starts at 41.5%, finishes at 45.6%, holds until 87.0% */
@keyframes zk11 {
    0%, 41.5% { stroke-dashoffset: 3339; }
    45.6%, 87.0% { stroke-dashoffset: 0; }
    87.1%, 100% { stroke-dashoffset: 3339; }
}
svg.acjk #stroke-p11 { animation-name: zk11; }
/* Stroke 12: Starts at 45.6%, finishes at 49.7%, holds until 87.0% */
@keyframes zk12 {
    0%, 45.6% { stroke-dashoffset: 3339; }
    49.7%, 87.0% { stroke-dashoffset: 0; }
    87.1%, 100% { stroke-dashoffset: 3339; }
}
svg.acjk #stroke-p12 { animation-name: zk12; }
/* Stroke 13: Starts at 49.7%, finishes at 53.9%, holds until 87.0% */
@keyframes zk13 {
    0%, 49.7% { stroke-dashoffset: 3339; }
    53.9%, 87.0% { stroke-dashoffset: 0; }
    87.1%, 100% { stroke-dashoffset: 3339; }
}
svg.acjk #stroke-p13 { animation-name: zk13; }
/* Stroke 14: Starts at 53.9%, finishes at 58.0%, holds until 87.0% */
@keyframes zk14 {
    0%, 53.9% { stroke-dashoffset: 3339; }
    58.0%, 87.0% { stroke-dashoffset: 0; }
    87.1%, 100% { stroke-dashoffset: 3339; }
}
svg.acjk #stroke-p14 { animation-name: zk14; }
/* Stroke 15: Starts at 58.0%, finishes at 62.2%, holds until 87.0% */
@keyframes zk15 {
    0%, 58.0% { stroke-dashoffset: 3339; }
    62.2%, 87.0% { stroke-dashoffset: 0; }
    87.1%, 100% { stroke-dashoffset: 3339; }
}
svg.acjk #stroke-p15 { animation-name: zk15; }
/* Stroke 16: Starts at 62.2%, finishes at 66.3%, holds until 87.0% */
@keyframes zk16 {
    0%, 62.2% { stroke-dashoffset: 3339; }
    66.3%, 87.0% { stroke-dashoffset: 0; }
    87.1%, 100% { stroke-dashoffset: 3339; }
}
svg.acjk #stroke-p16 { animation-name: zk16; }
/* Stroke 17: Starts at 66.3%, finishes at 70.5%, holds until 87.0% */
@keyframes zk17 {
    0%, 66.3% { stroke-dashoffset: 3339; }
    70.5%, 87.0% { stroke-dashoffset: 0; }
    87.1%, 100% { stroke-dashoffset: 3339; }
}
svg.acjk #stroke-p17 { animation-name: zk17; }
/* Stroke 18: Starts at 70.5%, finishes at 74.6%, holds until 87.0% */
@keyframes zk18 {
    0%, 70.5% { stroke-dashoffset: 3339; }
    74.6%, 87.0% { stroke-dashoffset: 0; }
    87.1%, 100% { stroke-dashoffset: 3339; }
}
svg.acjk #stroke-p18 { animation-name: zk18; }
/* Stroke 19: Starts at 74.6%, finishes at 78.8%, holds until 87.0% */
@keyframes zk19 {
    0%, 74.6% { stroke-dashoffset: 3339; }
    78.8%, 87.0% { stroke-dashoffset: 0; }
    87.1%, 100% { stroke-dashoffset: 3339; }
}
svg.acjk #stroke-p19 { animation-name: zk19; }
/* Stroke 20: Starts at 78.8%, finishes at 82.9%, holds until 87.0% */
@keyframes zk20 {
    0%, 78.8% { stroke-dashoffset: 3339; }
    82.9%, 87.0% { stroke-dashoffset: 0; }
    87.1%, 100% { stroke-dashoffset: 3339; }
}
svg.acjk #stroke-p20 { animation-name: zk20; }
/* Stroke 21: Starts at 82.9%, finishes at 87.0%, holds until 87.0% */
@keyframes zk21 {
    0%, 82.9% { stroke-dashoffset: 3339; }
    87.0%, 87.0% { stroke-dashoffset: 0; }
    87.1%, 100% { stroke-dashoffset: 3339; }
}
svg.acjk #stroke-p21 { animation-name: zk21; }
]]>
</style>
<defs>
    <path id="p1" d="M 308 193 C 349 183 398 174 407 166 C 423 149 396 138 378 134 C 362 130 322 143 258 160 C 192 177 145 182 120 186 C 97 189 94 197 111 207 C 129 217 147 220 168 220 C 181 219 195 217 209 215 C 230 210 246 206 267 202 C 294 196 294 196 308 193 Z"/>
    <path id="p2" d="M 131 344 C 97 315 67 318 82 343 C 110 407 117 506 92 638 C 85 673 77 696 81 710 C 85 728 92 741 99 749 C 106 756 111 756 117 749 C 122 741 127 732 130 718 C 132 707 134 696 136 686 C 138 661 140 648 140 630 C 140 474 141 387 144 369 C 146 360 139 350 131 344 Z"/>
    <path id="p3" d="M 347 702 C 357 733 373 812 408 747 C 418 727 421 688 418 631 C 407 460 409 365 423 346 C 427 339 428 332 423 327 C 412 315 392 304 364 291 C 353 286 344 286 336 291 C 325 296 314 300 302 305 C 283 312 283 312 273 315 C 260 319 246 322 232 326 C 208 331 208 331 196 334 C 165 340 143 343 131 344 C 122 346 135 369 144 369 C 161 368 183 365 197 362 C 220 357 220 357 232 354 C 242 351 255 348 270 345 C 288 340 288 340 297 338 C 323 331 342 328 353 336 C 369 348 371 447 362 630 C 360 643 359 669 352 684 C 350 690 346 696 347 702 Z"/>
    <path id="p4" d="M 168 220 C 186 238 194 281 196 334 C 197 353 197 353 197 362 C 198 400 189 443 173 490 C 160 528 162 538 195 489 C 219 451 232 406 232 354 C 232 335 232 335 232 326 C 232 223 251 239 209 215 C 197 208 160 209 168 220 Z"/>
    <path id="p5" d="M 302 305 C 306 276 311 246 322 215 C 326 202 319 196 308 193 C 295 188 257 192 267 202 C 275 210 282 220 273 315 C 271 335 271 335 270 345 C 265 394 251 469 292 494 C 307 503 334 497 353 486 C 361 480 364 474 354 473 C 321 468 305 456 302 445 C 295 424 289 388 297 338 C 300 316 300 316 302 305 Z"/>
    <path id="p6" d="M 174 580 C 163 583 164 588 178 597 C 182 599 189 601 198 600 C 242 593 280 588 312 583 C 343 577 322 554 291 550 C 275 547 236 558 174 580 Z"/>
    <path id="p7" d="M 130 718 C 145 720 157 708 347 702 C 353 702 356 688 352 684 C 297 632 325 661 136 686 C 125 688 119 718 130 718 Z"/>
    <path id="p8" d="M 647 151 C 690 140 718 130 758 122 C 785 115 779 105 771 97 C 742 70 716 55 695 57 C 689 57 687 63 687 69 C 683 93 618 123 497 170 C 491 171 493 179 497 180 C 500 181 538 178 607 161 C 634 154 634 154 647 151 Z"/>
    <path id="p9" d="M 669 268 C 718 261 807 259 934 259 C 966 259 955 239 945 231 C 915 208 890 201 872 206 C 780 225 697 234 670 238 C 643 241 643 241 629 243 C 566 250 500 257 430 266 C 419 267 417 272 426 282 C 441 298 460 304 482 299 C 528 287 577 279 629 273 C 656 270 656 270 669 268 Z"/>
    <path id="p10" d="M 477 358 C 454 352 438 351 451 376 C 469 411 484 459 495 519 C 498 536 504 551 515 563 C 530 579 534 572 535 557 C 535 551 536 544 535 539 C 530 509 514 444 504 386 C 502 373 490 361 477 358 Z"/>
    <path id="p11" d="M 756 535 C 762 563 777 578 800 555 C 815 539 820 501 839 432 C 844 413 854 397 869 384 C 876 376 877 369 871 361 C 862 350 845 337 822 321 C 806 310 811 315 668 334 C 642 337 642 337 629 339 C 597 343 512 355 477 358 C 464 360 492 391 504 386 C 508 381 549 376 629 366 C 655 363 655 363 668 361 C 712 355 744 353 763 355 C 797 359 794 380 793 387 C 778 461 767 503 757 512 C 752 517 754 527 756 535 Z"/>
    <path id="p12" d="M 545 435 C 556 465 568 483 579 487 C 597 492 598 468 595 457 C 588 438 572 427 552 420 C 547 418 545 419 544 424 C 543 426 543 430 545 435 Z"/>
    <path id="p13" d="M 682 472 C 676 481 683 485 692 477 C 717 448 735 428 751 418 C 768 406 742 393 739 392 C 728 386 703 375 707 398 C 710 418 691 455 682 472 Z"/>
    <path id="p14" d="M 666 545 C 694 541 730 537 756 535 C 764 535 762 517 757 512 C 741 496 730 501 666 515 C 640 520 640 520 627 523 C 594 529 563 533 535 539 C 529 540 529 556 535 557 C 553 560 597 553 627 550 C 653 547 653 547 666 545 Z"/>
    <path id="p15" d="M 665 687 C 665 687 665 649 665 630 C 665 607 665 607 665 596 C 665 578 666 561 666 545 C 666 525 666 525 666 515 C 666 460 668 409 668 361 C 668 343 668 343 668 334 C 668 311 668 289 669 268 C 670 248 670 248 670 238 C 672 174 679 173 647 151 C 636 143 602 148 607 161 C 619 185 629 212 629 243 C 629 263 629 263 629 273 C 629 295 629 317 629 339 C 629 357 629 357 629 366 C 629 406 627 458 627 523 C 627 541 627 541 627 550 C 627 566 626 585 626 605 C 625 626 625 626 625 636 C 624 654 625 693 625 693 C 625 706 665 700 665 687 Z"/>
    <path id="p16" d="M 665 630 C 693 625 721 623 747 620 C 774 616 760 595 731 589 C 713 584 691 589 665 596 C 639 602 639 602 626 605 C 592 612 560 616 531 622 C 520 623 520 630 533 638 C 555 651 599 639 625 636 C 652 632 652 632 665 630 Z"/>
    <path id="p17" d="M 625 693 C 583 699 537 702 489 708 C 479 709 477 713 485 722 C 505 743 523 738 534 737 C 589 727 678 718 804 718 C 819 717 832 710 814 694 C 798 680 778 674 757 672 C 735 671 705 680 665 687 C 638 691 638 691 625 693 Z"/>
    <path id="p18" d="M 434 785 C 414 815 394 843 371 870 C 356 885 353 904 360 927 C 363 937 371 942 384 936 C 419 917 438 882 448 838 C 452 818 456 802 454 788 C 452 783 449 779 446 779 C 441 778 436 780 434 785 Z"/>
    <path id="p19" d="M 531 819 C 540 851 548 878 564 893 C 577 905 593 891 597 874 C 601 850 587 830 566 809 C 552 795 543 787 535 787 C 532 786 530 789 528 795 C 526 801 527 808 531 819 Z"/>
    <path id="p20" d="M 641 802 C 659 836 674 862 692 874 C 699 879 718 875 720 849 C 720 829 705 807 675 787 C 656 774 644 769 638 770 C 635 770 633 773 633 780 C 632 786 635 792 641 802 Z"/>
    <path id="p21" d="M 767 789 C 799 820 836 856 874 902 C 886 917 901 933 917 918 C 925 910 924 892 918 866 C 910 834 862 799 769 760 C 764 757 760 759 759 767 C 757 774 760 782 767 789 Z"/>

    <clipPath id="z37306c1"><use href="#p1"/></clipPath>
    <clipPath id="z37306c2"><use href="#p2"/></clipPath>
    <clipPath id="z37306c3"><use href="#p3"/></clipPath>
    <clipPath id="z37306c4"><use href="#p4"/></clipPath>
    <clipPath id="z37306c5"><use href="#p5"/></clipPath>
    <clipPath id="z37306c6"><use href="#p6"/></clipPath>
    <clipPath id="z37306c7"><use href="#p7"/></clipPath>
    <clipPath id="z37306c8"><use href="#p8"/></clipPath>
    <clipPath id="z37306c9"><use href="#p9"/></clipPath>
    <clipPath id="z37306c10"><use href="#p10"/></clipPath>
    <clipPath id="z37306c11"><use href="#p11"/></clipPath>
    <clipPath id="z37306c12"><use href="#p12"/></clipPath>
    <clipPath id="z37306c13"><use href="#p13"/></clipPath>
    <clipPath id="z37306c14"><use href="#p14"/></clipPath>
    <clipPath id="z37306c15"><use href="#p15"/></clipPath>
    <clipPath id="z37306c16"><use href="#p16"/></clipPath>
    <clipPath id="z37306c17"><use href="#p17"/></clipPath>
    <clipPath id="z37306c18"><use href="#p18"/></clipPath>
    <clipPath id="z37306c19"><use href="#p19"/></clipPath>
    <clipPath id="z37306c20"><use href="#p20"/></clipPath>
    <clipPath id="z37306c21"><use href="#p21"/></clipPath>
</defs>
<g id="bg-layer" class="bg">
<use href="#p1"/>
<use href="#p2"/>
<use href="#p3"/>
<use href="#p4"/>
<use href="#p5"/>
<use href="#p6"/>
<use href="#p7"/>
<use href="#p8"/>
<use href="#p9"/>
<use href="#p10"/>
<use href="#p11"/>
<use href="#p12"/>
<use href="#p13"/>
<use href="#p14"/>
<use href="#p15"/>
<use href="#p16"/>
<use href="#p17"/>
<use href="#p18"/>
<use href="#p19"/>
<use href="#p20"/>
<use href="#p21"/>
</g>
<g id="anim-layer">
    <path id="stroke-p1" style="stroke:#FF4444" pathLength="3333" clip-path="url(#z37306c1)" d="M 109 195 L 405 151"/>
    <path id="stroke-p2" style="stroke:#FF4444" pathLength="3333" clip-path="url(#z37306c2)" d="M 86 332 L 117 365 L 123 427 L 107 748"/>
    <path id="stroke-p3" style="stroke:#FF4444" pathLength="3333" clip-path="url(#z37306c3)" d="M 137 351 L 343 309 L 394 344 L 385 767"/>
    <path id="stroke-p4" style="stroke:#FF4444" pathLength="3333" clip-path="url(#z37306c4)" d="M 174 216 L 211 248 L 214 373 L 173 510"/>
    <path id="stroke-p5" style="stroke:#FF4444" pathLength="3333" clip-path="url(#z37306c5)" d="M 274 199 L 300 225 L 285 453 L 307 478 L 353 478"/>
    <path id="stroke-p6" style="stroke:#FF4444" pathLength="3333" clip-path="url(#z37306c6)" d="M 174 587 L 321 568"/>
    <path id="stroke-p7" style="stroke:#FF4444" pathLength="3333" clip-path="url(#z37306c7)" d="M 131 709 L 348 689"/>
    <path id="stroke-p8" style="stroke:#000" pathLength="3333" clip-path="url(#z37306c8)" d="M 696 61 L 715 109 L 500 175"/>
    <path id="stroke-p9" style="stroke:#000" pathLength="3333" clip-path="url(#z37306c9)" d="M 428 273 L 879 232 L 951 243"/>
    <path id="stroke-p10" style="stroke:#000" pathLength="3333" clip-path="url(#z37306c10)" d="M 454 359 L 480 386 L 526 566"/>
    <path id="stroke-p11" style="stroke:#000" pathLength="3333" clip-path="url(#z37306c11)" d="M 481 362 L 802 341 L 833 383 L 771 562"/>
    <path id="stroke-p12" style="stroke:#000" pathLength="3333" clip-path="url(#z37306c12)" d="M 550 425 L 581 483"/>
    <path id="stroke-p13" style="stroke:#000" pathLength="3333" clip-path="url(#z37306c13)" d="M 715 389 L 728 421 L 685 475"/>
    <path id="stroke-p14" style="stroke:#000" pathLength="3333" clip-path="url(#z37306c14)" d="M 534 548 L 757 520"/>
    <path id="stroke-p15" style="stroke:#000" pathLength="3333" clip-path="url(#z37306c15)" d="M 614 158 L 649 214 L 645 697"/>
    <path id="stroke-p16" style="stroke:#000" pathLength="3333" clip-path="url(#z37306c16)" d="M 531 627 L 755 609"/>
    <path id="stroke-p17" style="stroke:#000" pathLength="3333" clip-path="url(#z37306c17)" d="M 488 714 L 816 702"/>
    <path id="stroke-p18" style="stroke:#000" pathLength="3333" clip-path="url(#z37306c18)" d="M 447 783 L 363 928"/>
    <path id="stroke-p19" style="stroke:#000" pathLength="3333" clip-path="url(#z37306c19)" d="M 535 794 L 578 894"/>
    <path id="stroke-p20" style="stroke:#000" pathLength="3333" clip-path="url(#z37306c20)" d="M 640 778 L 713 864"/>
    <path id="stroke-p21" style="stroke:#000" pathLength="3333" clip-path="url(#z37306c21)" d="M 763 766 L 873 853 L 910 920"/>
</g>
</svg>