<svg id="z37467" class="acjk" viewBox="0 0 1024 1024" xmlns="http://www.w3.org/2000/svg">
<style>
<![CDATA[
svg.acjk path[clip-path] {
    animation-duration: 12.9s;
    animation-timing-function: linear;
    animation-iteration-count: infinite;
    stroke-dasharray: 3337;
    stroke-dashoffset: 3339;
    stroke-width: 128;
    stroke-linecap: round;
    fill: none;
    stroke: #FF4444;
}
svg.acjk .bg { fill: #ccc; opacity: 0.5; }

/* Stroke 1: Starts at 0.0%, finishes at 6.2%, holds until 80.6% */
@keyframes zk1 {
    0%, 0.0% { stroke-dashoffset: 3339; }
    6.2%, 80.6% { stroke-dashoffset: 0; }
    80.7%, 100% { stroke-dashoffset: 3339; }
}
svg.acjk #stroke-p1 { animation-name: zk1; }
/* Stroke 2: Starts at 6.2%, finishes at 12.4%, holds until 80.6% */
@keyframes zk2 {
    0%, 6.2% { stroke-dashoffset: 3339; }
    12.4%, 80.6% { stroke-dashoffset: 0; }
    80.7%, 100% { stroke-dashoffset: 3339; }
}
svg.acjk #stroke-p2 { animation-name: zk2; }
/* Stroke 3: Starts at 12.4%, finishes at 18.6%, holds until 80.6% */
@keyframes zk3 {
    0%, 12.4% { stroke-dashoffset: 3339; }
    18.6%, 80.6% { stroke-dashoffset: 0; }
    80.7%, 100% { stroke-dashoffset: 3339; }
}
svg.acjk #stroke-p3 { animation-name: zk3; }
/* Stroke 4: Starts at 18.6%, finishes at 24.8%, holds until 80.6% */
@keyframes zk4 {
    0%, 18.6% { stroke-dashoffset: 3339; }
    24.8%, 80.6% { stroke-dashoffset: 0; }
    80.7%, 100% { stroke-dashoffset: 3339; }
}
svg.acjk #stroke-p4 { animation-name: zk4; }
/* Stroke 5: Starts at 24.8%, finishes at 31.0%, holds until 80.6% */
@keyframes zk5 {
    0%, 24.8% { stroke-dashoffset: 3339; }
    31.0%, 80.6% { stroke-dashoffset: 0; }
    80.7%, 100% { stroke-dashoffset: 3339; }
}
svg.acjk #stroke-p5 { animation-name: zk5; }
/* Stroke 6: Starts at 31.0%, finishes at 37.2%, holds until 80.6% */
@keyframes zk6 {
    0%, 31.0% { stroke-dashoffset: 3339; }
    37.2%, 80.6% { stroke-dashoffset: 0; }
    80.7%, 100% { stroke-dashoffset: 3339; }
}
svg.acjk #stroke-p6 { animation-name: zk6; }
/* Stroke 7: Starts at 37.2%, finishes at 43.4%, holds until 80.6% */
@keyframes zk7 {
    0%, 37.2% { stroke-dashoffset: 3339; }
    43.4%, 80.6% { stroke-dashoffset: 0; }
    80.7%, 100% { stroke-dashoffset: 3339; }
}
svg.acjk #stroke-p7 { animation-name: zk7; }
/* Stroke 8: Starts at 43.4%, finishes at 49.6%, holds until 80.6% */
@keyframes zk8 {
    0%, 43.4% { stroke-dashoffset: 3339; }
    49.6%, 80.6% { stroke-dashoffset: 0; }
    80.7%, 100% { stroke-dashoffset: 3339; }
}
svg.acjk #stroke-p8 { animation-name: zk8; }
/* Stroke 9: Starts at 49.6%, finishes at 55.8%, holds until 80.6% */
@keyframes zk9 {
    0%, 49.6% { stroke-dashoffset: 3339; }
    55.8%, 80.6% { stroke-dashoffset: 0; }
    80.7%, 100% { stroke-dashoffset: 3339; }
}
svg.acjk #stroke-p9 { animation-name: zk9; }
/* Stroke 10: Starts at 55.8%, finishes at 62.0%, holds until 80.6% */
@keyframes zk10 {
    0%, 55.8% { stroke-dashoffset: 3339; }
    62.0%, 80.6% { stroke-dashoffset: 0; }
    80.7%, 100% { stroke-dashoffset: 3339; }
}
svg.acjk #stroke-p10 { animation-name: zk10; }
/* Stroke 11: Starts at 62.0%, finishes at 68.2%, holds until 80.6% */
@keyframes zk11 {
    0%, 62.0% { stroke-dashoffset: 3339; }
    68.2%, 80.6% { stroke-dashoffset: 0; }
    80.7%, 100% { stroke-dashoffset: 3339; }
}
svg.acjk #stroke-p11 { animation-name: zk11; }
/* Stroke 12: Starts at 68.2%, finishes at 74.4%, holds until 80.6% */
@keyframes zk12 {
    0%, 68.2% { stroke-dashoffset: 3339; }
    74.4%, 80.6% { stroke-dashoffset: 0; }
    80.7%, 100% { stroke-dashoffset: 3339; }
}
svg.acjk #stroke-p12 { animation-name: zk12; }
/* Stroke 13: Starts at 74.4%, finishes at 80.6%, holds until 80.6% */
@keyframes zk13 {
    0%, 74.4% { stroke-dashoffset: 3339; }
    80.6%, 80.6% { stroke-dashoffset: 0; }
    80.7%, 100% { stroke-dashoffset: 3339; }
}
svg.acjk #stroke-p13 { animation-name: zk13; }
]]>
</style>
<defs>
    <path id="p1" d="M 377 197 C 393 166 411 149 384 127 C 359 107 336 99 315 107 C 308 109 309 114 310 123 C 319 268 165 448 44 572 C 39 576 40 580 47 580 C 75 577 134 535 214 451 C 263 397 313 317 367 216 C 374 203 374 203 377 197 Z"/>
    <path id="p2" d="M 367 216 C 398 240 434 265 463 288 C 470 293 477 296 486 295 C 490 294 494 290 497 284 C 499 276 500 262 491 250 C 469 221 398 198 377 197 C 370 196 361 212 367 216 Z"/>
    <path id="p3" d="M 325 462 C 354 453 383 441 415 431 C 429 426 436 422 439 419 C 443 412 444 407 441 403 C 435 396 422 391 403 390 C 383 388 364 394 346 404 C 319 417 271 432 236 442 C 212 448 210 459 229 466 C 248 473 269 478 287 473 C 312 466 312 466 325 462 Z"/>
    <path id="p4" d="M 347 578 C 408 555 437 540 438 540 C 442 535 443 530 440 526 C 435 519 424 515 407 514 C 391 513 371 519 349 530 C 316 545 316 545 300 553 C 270 566 230 577 183 591 C 162 597 159 607 177 611 C 224 619 278 602 300 595 C 331 584 331 584 347 578 Z"/>
    <path id="p5" d="M 341 762 C 343 694 344 632 347 578 C 348 546 348 546 349 530 C 351 481 361 482 325 462 C 314 455 282 461 287 473 C 300 499 300 531 300 553 C 300 581 300 581 300 595 C 300 655 300 775 300 775 C 300 789 341 776 341 762 Z"/>
    <path id="p6" d="M 188 694 C 198 704 207 717 219 732 C 224 739 231 742 240 744 C 244 744 249 741 253 735 C 257 728 256 717 254 701 C 252 692 246 682 232 675 C 200 657 180 651 172 654 C 169 654 167 658 168 666 C 168 672 175 681 188 694 Z"/>
    <path id="p7" d="M 404 628 C 397 642 387 662 374 687 C 371 690 371 694 375 696 C 378 697 382 695 385 693 C 415 664 438 644 455 635 C 461 631 464 628 462 623 C 459 616 452 610 442 603 C 432 596 423 593 413 594 C 406 594 403 599 406 608 C 407 614 407 620 404 628 Z"/>
    <path id="p8" d="M 300 775 C 240 793 181 814 129 817 C 120 817 115 821 115 829 C 114 837 116 845 122 850 C 136 861 154 872 178 884 C 184 886 191 883 200 878 C 219 864 255 845 285 832 C 350 801 427 763 465 741 C 473 735 480 730 478 724 C 476 718 467 718 460 721 C 421 733 382 748 341 762 C 314 771 314 771 300 775 Z"/>
    <path id="p9" d="M 606 245 C 584 234 569 230 563 232 C 552 234 554 239 560 253 C 596 338 564 469 498 550 C 491 558 484 561 483 566 C 481 569 485 571 492 571 C 510 570 537 559 561 527 C 622 443 621 304 626 282 C 629 268 619 251 606 245 Z"/>
    <path id="p10" d="M 626 282 C 678 256 712 244 729 243 C 739 241 743 255 743 261 C 740 297 737 332 733 364 C 727 402 729 433 737 459 C 741 475 750 490 766 500 C 787 513 820 519 864 518 C 906 516 937 508 959 498 C 969 493 972 486 965 476 C 955 462 942 453 929 446 C 920 441 908 442 892 450 C 871 460 847 464 820 464 C 803 463 792 457 786 445 C 776 427 775 395 782 346 C 786 315 798 283 827 253 C 838 241 839 231 827 221 C 810 207 792 197 774 189 C 765 185 757 187 746 194 C 703 217 656 233 606 245 C 592 248 613 288 626 282 Z"/>
    <path id="p11" d="M 571 636 C 564 631 550 627 529 623 C 520 621 515 621 513 624 C 508 628 509 635 514 646 C 534 693 549 756 556 833 C 557 855 563 875 576 892 C 600 924 603 888 605 860 C 605 847 602 834 601 822 C 592 760 584 695 582 670 C 582 658 581 643 571 636 Z"/>
    <path id="p12" d="M 829 792 C 847 729 870 688 896 666 C 909 654 911 638 899 626 C 888 614 862 602 824 584 C 811 578 796 577 780 584 C 725 605 656 623 571 636 C 559 638 570 672 582 670 C 642 656 708 644 763 635 C 777 632 787 632 792 638 C 804 651 796 704 769 794 C 762 813 825 812 829 792 Z"/>
    <path id="p13" d="M 605 860 C 624 860 782 841 853 838 C 861 837 868 833 867 827 C 863 812 846 801 829 792 C 812 782 789 790 769 794 C 706 806 650 816 601 822 C 589 824 592 860 605 860 Z"/>

    <clipPath id="z37467c1"><use href="#p1"/></clipPath>
    <clipPath id="z37467c2"><use href="#p2"/></clipPath>
    <clipPath id="z37467c3"><use href="#p3"/></clipPath>
    <clipPath id="z37467c4"><use href="#p4"/></clipPath>
    <clipPath id="z37467c5"><use href="#p5"/></clipPath>
    <clipPath id="z37467c6"><use href="#p6"/></clipPath>
    <clipPath id="z37467c7"><use href="#p7"/></clipPath>
    <clipPath id="z37467c8"><use href="#p8"/></clipPath>
    <clipPath id="z37467c9"><use href="#p9"/></clipPath>
    <clipPath id="z37467c10"><use href="#p10"/></clipPath>
    <clipPath id="z37467c11"><use href="#p11"/></clipPath>
    <clipPath id="z37467c12"><use href="#p12"/></clipPath>
    <clipPath id="z37467c13"><use href="#p13"/></clipPath>
</defs>
<g id="bg-layer" class="bg">
<use href="#p1"/>
<use href="#p2"/>
<use href="#p3"/>
<use href="#p4"/>
<use href="#p5"/>
<use href="#p6"/>
<use href="#p7"/>
<use href="#p8"/>
<use href="#p9"/>
<use href="#p10"/>
<use href="#p11"/>
<use href="#p12"/>
<use href="#p13"/>
</g>
<g id="anim-layer">
    <path id="stroke-p1" style="stroke:#FF4444" pathLength="3333" clip-path="url(#z37467c1)" d="M 315 112 L 353 156 L 290 299 L 189 444 L 47 574"/>
    <path id="stroke-p2" style="stroke:#FF4444" pathLength="3333" clip-path="url(#z37467c2)" d="M 371 208 L 493 284"/>
    <path id="stroke-p3" style="stroke:#FF4444" pathLength="3333" clip-path="url(#z37467c3)" d="M 223 455 L 436 407"/>
    <path id="stroke-p4" style="stroke:#FF4444" pathLength="3333" clip-path="url(#z37467c4)" d="M 169 602 L 436 531"/>
    <path id="stroke-p5" style="stroke:#FF4444" pathLength="3333" clip-path="url(#z37467c5)" d="M 295 471 L 325 501 L 311 777"/>
    <path id="stroke-p6" style="stroke:#FF4444" pathLength="3333" clip-path="url(#z37467c6)" d="M 174 661 L 242 739"/>
    <path id="stroke-p7" style="stroke:#FF4444" pathLength="3333" clip-path="url(#z37467c7)" d="M 414 600 L 429 634 L 380 688"/>
    <path id="stroke-p8" style="stroke:#FF4444" pathLength="3333" clip-path="url(#z37467c8)" d="M 120 831 L 187 846 L 471 729"/>
    <path id="stroke-p9" style="stroke:#000" pathLength="3333" clip-path="url(#z37467c9)" d="M 563 238 L 598 278 L 589 402 L 547 512 L 492 563"/>
    <path id="stroke-p10" style="stroke:#000" pathLength="3333" clip-path="url(#z37467c10)" d="M 606 252 L 743 219 L 774 229 L 789 250 L 754 389 L 772 471 L 820 490 L 964 481"/>
    <path id="stroke-p11" style="stroke:#000" pathLength="3333" clip-path="url(#z37467c11)" d="M 518 629 L 553 663 L 588 895"/>
    <path id="stroke-p12" style="stroke:#000" pathLength="3333" clip-path="url(#z37467c12)" d="M 571 646 L 782 607 L 826 621 L 851 653 L 784 805"/>
    <path id="stroke-p13" style="stroke:#000" pathLength="3333" clip-path="url(#z37467c13)" d="M 596 843 L 861 821"/>
</g>
</svg>