<svg id="z38078" class="acjk" viewBox="0 0 1024 1024" xmlns="http://www.w3.org/2000/svg">
<style>
<![CDATA[
svg.acjk path[clip-path] {
    animation-duration: 10.5s;
    animation-timing-function: linear;
    animation-iteration-count: infinite;
    stroke-dasharray: 3337;
    stroke-dashoffset: 3339;
    stroke-width: 128;
    stroke-linecap: round;
    fill: none;
    stroke: #FF4444;
}
svg.acjk .bg { fill: #ccc; opacity: 0.5; }

/* Stroke 1: Starts at 0.0%, finishes at 7.6%, holds until 76.2% */
@keyframes zk1 {
    0%, 0.0% { stroke-dashoffset: 3339; }
    7.6%, 76.2% { stroke-dashoffset: 0; }
    76.3%, 100% { stroke-dashoffset: 3339; }
}
svg.acjk #stroke-p1 { animation-name: zk1; }
/* Stroke 2: Starts at 7.6%, finishes at 15.2%, holds until 76.2% */
@keyframes zk2 {
    0%, 7.6% { stroke-dashoffset: 3339; }
    15.2%, 76.2% { stroke-dashoffset: 0; }
    76.3%, 100% { stroke-dashoffset: 3339; }
}
svg.acjk #stroke-p2 { animation-name: zk2; }
/* Stroke 3: Starts at 15.2%, finishes at 22.9%, holds until 76.2% */
@keyframes zk3 {
    0%, 15.2% { stroke-dashoffset: 3339; }
    22.9%, 76.2% { stroke-dashoffset: 0; }
    76.3%, 100% { stroke-dashoffset: 3339; }
}
svg.acjk #stroke-p3 { animation-name: zk3; }
/* Stroke 4: Starts at 22.9%, finishes at 30.5%, holds until 76.2% */
@keyframes zk4 {
    0%, 22.9% { stroke-dashoffset: 3339; }
    30.5%, 76.2% { stroke-dashoffset: 0; }
    76.3%, 100% { stroke-dashoffset: 3339; }
}
svg.acjk #stroke-p4 { animation-name: zk4; }
/* Stroke 5: Starts at 30.5%, finishes at 38.1%, holds until 76.2% */
@keyframes zk5 {
    0%, 30.5% { stroke-dashoffset: 3339; }
    38.1%, 76.2% { stroke-dashoffset: 0; }
    76.3%, 100% { stroke-dashoffset: 3339; }
}
svg.acjk #stroke-p5 { animation-name: zk5; }
/* Stroke 6: Starts at 38.1%, finishes at 45.7%, holds until 76.2% */
@keyframes zk6 {
    0%, 38.1% { stroke-dashoffset: 3339; }
    45.7%, 76.2% { stroke-dashoffset: 0; }
    76.3%, 100% { stroke-dashoffset: 3339; }
}
svg.acjk #stroke-p6 { animation-name: zk6; }
/* Stroke 7: Starts at 45.7%, finishes at 53.3%, holds until 76.2% */
@keyframes zk7 {
    0%, 45.7% { stroke-dashoffset: 3339; }
    53.3%, 76.2% { stroke-dashoffset: 0; }
    76.3%, 100% { stroke-dashoffset: 3339; }
}
svg.acjk #stroke-p7 { animation-name: zk7; }
/* Stroke 8: Starts at 53.3%, finishes at 61.0%, holds until 76.2% */
@keyframes zk8 {
    0%, 53.3% { stroke-dashoffset: 3339; }
    61.0%, 76.2% { stroke-dashoffset: 0; }
    76.3%, 100% { stroke-dashoffset: 3339; }
}
svg.acjk #stroke-p8 { animation-name: zk8; }
/* Stroke 9: Starts at 61.0%, finishes at 68.6%, holds until 76.2% */
@keyframes zk9 {
    0%, 61.0% { stroke-dashoffset: 3339; }
    68.6%, 76.2% { stroke-dashoffset: 0; }
    76.3%, 100% { stroke-dashoffset: 3339; }
}
svg.acjk #stroke-p9 { animation-name: zk9; }
/* Stroke 10: Starts at 68.6%, finishes at 76.2%, holds until 76.2% */
@keyframes zk10 {
    0%, 68.6% { stroke-dashoffset: 3339; }
    76.2%, 76.2% { stroke-dashoffset: 0; }
    76.3%, 100% { stroke-dashoffset: 3339; }
}
svg.acjk #stroke-p10 { animation-name: zk10; }
]]>
</style>
<defs>
    <path id="p1" d="M 324 278 Q 369 191 403 159 Q 413 149 408 134 Q 404 121 374 97 Q 346 78 326 78 Q 307 79 315 103 Q 331 139 317 168 Q 275 270 212 363 Q 151 453 67 552 Q 57 562 54 569 Q 50 581 65 578 Q 77 577 103 553 Q 152 510 213 432 Q 256 380 305 308 C 318 288 318 288 324 278 Z"/>
    <path id="p2" d="M 305 308 Q 368 314 463 283 Q 464 282 465 282 Q 472 275 468 266 Q 461 256 433 252 Q 406 249 349 272 Q 346 272 324 278 C 312 280 293 308 305 308 Z"/>
    <path id="p3" d="M 339 445 Q 448 409 450 407 Q 457 398 452 391 Q 445 381 415 376 Q 385 375 358 389 Q 333 399 303 410 Q 272 420 233 427 Q 199 437 226 450 Q 244 459 289 459 C 306 459 323 451 339 445 Z"/>
    <path id="p4" d="M 358 595 Q 386 585 420 577 Q 456 567 461 561 Q 470 552 464 544 Q 457 532 426 527 Q 395 523 365 538 Q 361 539 359 541 C 326 554 326 554 310 560 Q 208 587 175 593 Q 138 602 166 617 Q 208 635 284 615 Q 296 611 311 608 C 342 599 342 599 358 595 Z"/>
    <path id="p5" d="M 311 608 Q 307 726 281 771 Q 233 832 283 873 Q 296 880 307 864 Q 323 834 469 712 Q 488 699 492 690 Q 496 680 486 680 Q 476 680 361 744 Q 351 751 350 740 Q 357 661 358 595 C 359 559 359 559 359 541 Q 359 511 364 486 Q 368 471 339 445 C 325 434 283 443 289 459 Q 310 504 310 560 C 311 592 311 592 311 608 Z"/>
    <path id="p6" d="M 560 264 Q 547 257 516 250 Q 503 246 499 252 Q 492 258 500 275 Q 534 362 548 501 Q 549 541 572 571 Q 588 595 595 579 Q 599 569 601 555 C 602 538 602 538 602 529 Q 601 510 598 488 Q 576 340 572 296 C 570 285 570 269 560 264 Z"/>
    <path id="p7" d="M 792 531 Q 811 562 829 571 Q 839 580 855 557 Q 874 523 912 338 Q 922 307 945 282 Q 958 269 947 255 Q 932 237 889 211 Q 871 202 780 223 Q 756 223 560 264 C 549 266 561 298 572 296 Q 605 286 647 279 C 677 273 677 273 692 270 Q 831 240 849 257 Q 865 279 862 299 Q 826 486 808 505 C 802 513 786 523 792 531 Z"/>
    <path id="p8" d="M 730 415 Q 764 408 796 403 Q 818 399 809 387 Q 799 374 775 370 Q 757 367 732 374 C 694 385 694 385 675 391 Q 638 401 606 412 Q 590 416 610 429 Q 616 432 675 425 C 712 418 712 418 730 415 Z"/>
    <path id="p9" d="M 728 539 Q 761 533 792 531 C 802 531 816 511 808 505 Q 792 489 732 501 Q 729 501 729 502 C 693 510 693 510 675 514 Q 636 521 602 529 C 593 530 592 555 601 555 Q 605 555 675 546 C 710 541 710 541 728 539 Z"/>
    <path id="p10" d="M 677 914 Q 683 939 690 949 Q 696 956 703 954 Q 718 945 724 884 Q 733 805 730 727 Q 727 681 728 539 C 729 514 729 514 729 502 Q 729 462 730 415 C 731 388 731 388 732 374 Q 732 371 741 318 Q 745 300 730 291 Q 708 276 692 270 C 678 264 642 264 647 279 Q 646 282 662 308 Q 674 330 675 391 C 675 414 675 414 675 425 Q 675 465 675 514 C 675 535 675 535 675 546 Q 669 837 677 914 Z"/>

    <clipPath id="z38078c1"><use href="#p1"/></clipPath>
    <clipPath id="z38078c2"><use href="#p2"/></clipPath>
    <clipPath id="z38078c3"><use href="#p3"/></clipPath>
    <clipPath id="z38078c4"><use href="#p4"/></clipPath>
    <clipPath id="z38078c5"><use href="#p5"/></clipPath>
    <clipPath id="z38078c6"><use href="#p6"/></clipPath>
    <clipPath id="z38078c7"><use href="#p7"/></clipPath>
    <clipPath id="z38078c8"><use href="#p8"/></clipPath>
    <clipPath id="z38078c9"><use href="#p9"/></clipPath>
    <clipPath id="z38078c10"><use href="#p10"/></clipPath>
</defs>
<g id="bg-layer" class="bg">
<use href="#p1"/>
<use href="#p2"/>
<use href="#p3"/>
<use href="#p4"/>
<use href="#p5"/>
<use href="#p6"/>
<use href="#p7"/>
<use href="#p8"/>
<use href="#p9"/>
<use href="#p10"/>
</g>
<g id="anim-layer">
    <path id="stroke-p1" style="stroke:#FF4444" pathLength="3333" clip-path="url(#z38078c1)" d="M 321 88 L 366 147 L 231 374 L 59 572"/>
    <path id="stroke-p2" style="stroke:#FF4444" pathLength="3333" clip-path="url(#z38078c2)" d="M 313 303 L 465 273"/>
    <path id="stroke-p3" style="stroke:#FF4444" pathLength="3333" clip-path="url(#z38078c3)" d="M 223 437 L 447 394"/>
    <path id="stroke-p4" style="stroke:#FF4444" pathLength="3333" clip-path="url(#z38078c4)" d="M 162 605 L 462 553"/>
    <path id="stroke-p5" style="stroke:#FF4444" pathLength="3333" clip-path="url(#z38078c5)" d="M 297 463 L 334 494 L 309 823 L 487 689"/>
    <path id="stroke-p6" style="stroke:#000" pathLength="3333" clip-path="url(#z38078c6)" d="M 503 257 L 546 321 L 583 577"/>
    <path id="stroke-p7" style="stroke:#000" pathLength="3333" clip-path="url(#z38078c7)" d="M 567 268 L 823 232 L 869 235 L 903 267 L 819 562"/>
    <path id="stroke-p8" style="stroke:#000" pathLength="3333" clip-path="url(#z38078c8)" d="M 609 420 L 805 387"/>
    <path id="stroke-p9" style="stroke:#000" pathLength="3333" clip-path="url(#z38078c9)" d="M 607 547 L 801 508"/>
    <path id="stroke-p10" style="stroke:#000" pathLength="3333" clip-path="url(#z38078c10)" d="M 656 281 L 705 317 L 698 949"/>
</g>
</svg>