<svg id="z38124" class="acjk" viewBox="0 0 1024 1024" xmlns="http://www.w3.org/2000/svg">
<style>
<![CDATA[
svg.acjk path[clip-path] {
    animation-duration: 11.3s;
    animation-timing-function: linear;
    animation-iteration-count: infinite;
    stroke-dasharray: 3337;
    stroke-dashoffset: 3339;
    stroke-width: 128;
    stroke-linecap: round;
    fill: none;
    stroke: #FF4444;
}
svg.acjk .bg { fill: #ccc; opacity: 0.5; }

/* Stroke 1: Starts at 0.0%, finishes at 7.1%, holds until 77.9% */
@keyframes zk1 {
    0%, 0.0% { stroke-dashoffset: 3339; }
    7.1%, 77.9% { stroke-dashoffset: 0; }
    78.0%, 100% { stroke-dashoffset: 3339; }
}
svg.acjk #stroke-p1 { animation-name: zk1; }
/* Stroke 2: Starts at 7.1%, finishes at 14.2%, holds until 77.9% */
@keyframes zk2 {
    0%, 7.1% { stroke-dashoffset: 3339; }
    14.2%, 77.9% { stroke-dashoffset: 0; }
    78.0%, 100% { stroke-dashoffset: 3339; }
}
svg.acjk #stroke-p2 { animation-name: zk2; }
/* Stroke 3: Starts at 14.2%, finishes at 21.2%, holds until 77.9% */
@keyframes zk3 {
    0%, 14.2% { stroke-dashoffset: 3339; }
    21.2%, 77.9% { stroke-dashoffset: 0; }
    78.0%, 100% { stroke-dashoffset: 3339; }
}
svg.acjk #stroke-p3 { animation-name: zk3; }
/* Stroke 4: Starts at 21.2%, finishes at 28.3%, holds until 77.9% */
@keyframes zk4 {
    0%, 21.2% { stroke-dashoffset: 3339; }
    28.3%, 77.9% { stroke-dashoffset: 0; }
    78.0%, 100% { stroke-dashoffset: 3339; }
}
svg.acjk #stroke-p4 { animation-name: zk4; }
/* Stroke 5: Starts at 28.3%, finishes at 35.4%, holds until 77.9% */
@keyframes zk5 {
    0%, 28.3% { stroke-dashoffset: 3339; }
    35.4%, 77.9% { stroke-dashoffset: 0; }
    78.0%, 100% { stroke-dashoffset: 3339; }
}
svg.acjk #stroke-p5 { animation-name: zk5; }
/* Stroke 6: Starts at 35.4%, finishes at 42.5%, holds until 77.9% */
@keyframes zk6 {
    0%, 35.4% { stroke-dashoffset: 3339; }
    42.5%, 77.9% { stroke-dashoffset: 0; }
    78.0%, 100% { stroke-dashoffset: 3339; }
}
svg.acjk #stroke-p6 { animation-name: zk6; }
/* Stroke 7: Starts at 42.5%, finishes at 49.6%, holds until 77.9% */
@keyframes zk7 {
    0%, 42.5% { stroke-dashoffset: 3339; }
    49.6%, 77.9% { stroke-dashoffset: 0; }
    78.0%, 100% { stroke-dashoffset: 3339; }
}
svg.acjk #stroke-p7 { animation-name: zk7; }
/* Stroke 8: Starts at 49.6%, finishes at 56.6%, holds until 77.9% */
@keyframes zk8 {
    0%, 49.6% { stroke-dashoffset: 3339; }
    56.6%, 77.9% { stroke-dashoffset: 0; }
    78.0%, 100% { stroke-dashoffset: 3339; }
}
svg.acjk #stroke-p8 { animation-name: zk8; }
/* Stroke 9: Starts at 56.6%, finishes at 63.7%, holds until 77.9% */
@keyframes zk9 {
    0%, 56.6% { stroke-dashoffset: 3339; }
    63.7%, 77.9% { stroke-dashoffset: 0; }
    78.0%, 100% { stroke-dashoffset: 3339; }
}
svg.acjk #stroke-p9 { animation-name: zk9; }
/* Stroke 10: Starts at 63.7%, finishes at 70.8%, holds until 77.9% */
@keyframes zk10 {
    0%, 63.7% { stroke-dashoffset: 3339; }
    70.8%, 77.9% { stroke-dashoffset: 0; }
    78.0%, 100% { stroke-dashoffset: 3339; }
}
svg.acjk #stroke-p10 { animation-name: zk10; }
/* Stroke 11: Starts at 70.8%, finishes at 77.9%, holds until 77.9% */
@keyframes zk11 {
    0%, 70.8% { stroke-dashoffset: 3339; }
    77.9%, 77.9% { stroke-dashoffset: 0; }
    78.0%, 100% { stroke-dashoffset: 3339; }
}
svg.acjk #stroke-p11 { animation-name: zk11; }
]]>
</style>
<defs>
    <path id="p1" d="M 196 422 Q 236 368 281 298 C 294 277 294 277 300 267 Q 336 195 368 161 Q 378 149 372 136 Q 368 123 338 101 Q 310 83 291 84 Q 272 85 281 108 Q 297 142 284 170 Q 247 267 190 357 Q 135 445 58 541 Q 48 551 46 558 Q 43 568 57 566 Q 94 557 186 436 C 193 427 193 427 196 422 Z"/>
    <path id="p2" d="M 281 298 Q 347 305 447 274 C 448 274 448 274 448 274 Q 455 267 451 259 Q 444 249 417 243 Q 390 239 329 261 Q 322 261 300 267 C 289 271 269 298 281 298 Z"/>
    <path id="p3" d="M 279 439 Q 399 400 401 399 Q 408 392 403 385 Q 396 376 373 373 Q 348 370 325 382 Q 300 394 270 404 Q 239 414 200 421 Q 199 421 196 422 C 190 423 181 434 186 436 Q 213 448 242 448 C 267 442 267 442 279 439 Z"/>
    <path id="p4" d="M 311 572 Q 338 562 369 553 Q 400 543 406 538 Q 413 529 408 522 Q 401 512 373 508 Q 331 504 312 523 C 299 533 282 535 267 541 Q 222 557 149 573 Q 116 582 141 595 Q 183 613 231 596 Q 247 590 269 585 C 297 576 297 576 311 572 Z"/>
    <path id="p5" d="M 269 585 Q 265 705 238 748 Q 204 799 244 834 Q 256 841 267 826 Q 279 799 401 686 Q 417 673 420 665 Q 423 656 414 657 Q 405 657 310 715 Q 304 719 303 714 Q 310 636 311 572 C 312 539 312 539 312 523 Q 312 504 316 486 Q 322 465 279 439 C 268 432 233 439 242 448 Q 261 467 267 541 C 268 570 268 570 269 585 Z"/>
    <path id="p6" d="M 587 262 Q 635 163 653 145 Q 660 135 655 122 Q 651 112 623 93 Q 598 80 580 81 Q 564 84 573 103 Q 609 164 447 412 Q 440 422 438 427 Q 435 437 448 434 Q 461 430 510 374 C 519 363 519 363 523 357 Q 536 339 567 294 C 580 273 580 273 587 262 Z"/>
    <path id="p7" d="M 655 456 Q 656 453 659 451 Q 701 393 744 319 Q 760 289 792 258 Q 805 245 800 237 Q 797 227 734 210 Q 715 201 696 217 Q 666 238 587 262 C 575 267 555 292 567 294 Q 594 298 662 274 Q 681 267 688 275 Q 692 282 681 303 Q 654 366 615 429 C 602 448 602 448 596 457 Q 529 545 441 633 Q 428 646 442 646 Q 452 645 494 617 Q 534 593 577 548 Q 602 520 630 487 C 647 466 647 466 655 456 Z"/>
    <path id="p8" d="M 630 487 Q 777 620 810 628 Q 873 637 971 612 Q 990 608 991 604 Q 992 597 978 592 Q 923 573 857 555 Q 758 525 655 456 C 628 438 628 438 615 429 Q 605 420 593 412 Q 544 372 523 357 C 517 353 505 369 510 374 Q 513 380 596 457 C 619 477 619 477 630 487 Z"/>
    <path id="p9" d="M 520 681 Q 510 674 472 667 Q 460 664 457 669 Q 450 675 459 691 Q 487 752 504 854 Q 507 884 524 904 Q 542 926 547 911 Q 551 896 551 873 C 548 851 548 851 547 840 Q 531 746 528 713 C 526 702 530 686 520 681 Z"/>
    <path id="p10" d="M 742 808 Q 764 730 797 701 Q 813 682 798 665 Q 782 652 729 630 Q 711 623 690 631 Q 615 664 520 681 C 509 683 517 715 528 713 Q 531 713 680 680 Q 696 676 703 683 Q 713 692 711 712 Q 702 767 691 811 C 688 828 739 825 742 808 Z"/>
    <path id="p11" d="M 551 873 Q 561 874 571 872 Q 632 859 764 846 Q 774 845 776 836 Q 776 829 746 809 Q 745 808 742 808 C 708 810 708 810 691 811 Q 610 830 547 840 C 536 842 540 873 551 873 Z"/>

    <clipPath id="z38124c1"><use href="#p1"/></clipPath>
    <clipPath id="z38124c2"><use href="#p2"/></clipPath>
    <clipPath id="z38124c3"><use href="#p3"/></clipPath>
    <clipPath id="z38124c4"><use href="#p4"/></clipPath>
    <clipPath id="z38124c5"><use href="#p5"/></clipPath>
    <clipPath id="z38124c6"><use href="#p6"/></clipPath>
    <clipPath id="z38124c7"><use href="#p7"/></clipPath>
    <clipPath id="z38124c8"><use href="#p8"/></clipPath>
    <clipPath id="z38124c9"><use href="#p9"/></clipPath>
    <clipPath id="z38124c10"><use href="#p10"/></clipPath>
    <clipPath id="z38124c11"><use href="#p11"/></clipPath>
</defs>
<g id="bg-layer" class="bg">
<use href="#p1"/>
<use href="#p2"/>
<use href="#p3"/>
<use href="#p4"/>
<use href="#p5"/>
<use href="#p6"/>
<use href="#p7"/>
<use href="#p8"/>
<use href="#p9"/>
<use href="#p10"/>
<use href="#p11"/>
</g>
<g id="anim-layer">
    <path id="stroke-p1" style="stroke:#FF4444" pathLength="3333" clip-path="url(#z38124c1)" d="M 286 92 L 327 160 L 195 388 L 52 558"/>
    <path id="stroke-p2" style="stroke:#FF4444" pathLength="3333" clip-path="url(#z38124c2)" d="M 290 293 L 447 261"/>
    <path id="stroke-p3" style="stroke:#FF4444" pathLength="3333" clip-path="url(#z38124c3)" d="M 196 434 L 400 391"/>
    <path id="stroke-p4" style="stroke:#FF4444" pathLength="3333" clip-path="url(#z38124c4)" d="M 138 584 L 405 529"/>
    <path id="stroke-p5" style="stroke:#FF4444" pathLength="3333" clip-path="url(#z38124c5)" d="M 249 448 L 289 494 L 266 778 L 413 663"/>
    <path id="stroke-p6" style="stroke:#000" pathLength="3333" clip-path="url(#z38124c6)" d="M 577 86 L 615 124 L 612 150 L 541 297 L 445 427"/>
    <path id="stroke-p7" style="stroke:#000" pathLength="3333" clip-path="url(#z38124c7)" d="M 577 289 L 701 240 L 750 262 L 605 482 L 444 640"/>
    <path id="stroke-p8" style="stroke:#000" pathLength="3333" clip-path="url(#z38124c8)" d="M 519 375 L 817 586 L 983 601"/>
    <path id="stroke-p9" style="stroke:#000" pathLength="3333" clip-path="url(#z38124c9)" d="M 462 677 L 497 706 L 534 912"/>
    <path id="stroke-p10" style="stroke:#000" pathLength="3333" clip-path="url(#z38124c10)" d="M 527 688 L 705 653 L 738 669 L 758 692 L 704 809"/>
    <path id="stroke-p11" style="stroke:#000" pathLength="3333" clip-path="url(#z38124c11)" d="M 554 845 L 766 832"/>
</g>
</svg>