<svg id="z38130" class="acjk" viewBox="0 0 1024 1024" xmlns="http://www.w3.org/2000/svg">
<style>
<![CDATA[
svg.acjk path[clip-path] {
    animation-duration: 11.3s;
    animation-timing-function: linear;
    animation-iteration-count: infinite;
    stroke-dasharray: 3337;
    stroke-dashoffset: 3339;
    stroke-width: 128;
    stroke-linecap: round;
    fill: none;
    stroke: #FF4444;
}
svg.acjk .bg { fill: #ccc; opacity: 0.5; }

/* Stroke 1: Starts at 0.0%, finishes at 7.1%, holds until 77.9% */
@keyframes zk1 {
    0%, 0.0% { stroke-dashoffset: 3339; }
    7.1%, 77.9% { stroke-dashoffset: 0; }
    78.0%, 100% { stroke-dashoffset: 3339; }
}
svg.acjk #stroke-p1 { animation-name: zk1; }
/* Stroke 2: Starts at 7.1%, finishes at 14.2%, holds until 77.9% */
@keyframes zk2 {
    0%, 7.1% { stroke-dashoffset: 3339; }
    14.2%, 77.9% { stroke-dashoffset: 0; }
    78.0%, 100% { stroke-dashoffset: 3339; }
}
svg.acjk #stroke-p2 { animation-name: zk2; }
/* Stroke 3: Starts at 14.2%, finishes at 21.2%, holds until 77.9% */
@keyframes zk3 {
    0%, 14.2% { stroke-dashoffset: 3339; }
    21.2%, 77.9% { stroke-dashoffset: 0; }
    78.0%, 100% { stroke-dashoffset: 3339; }
}
svg.acjk #stroke-p3 { animation-name: zk3; }
/* Stroke 4: Starts at 21.2%, finishes at 28.3%, holds until 77.9% */
@keyframes zk4 {
    0%, 21.2% { stroke-dashoffset: 3339; }
    28.3%, 77.9% { stroke-dashoffset: 0; }
    78.0%, 100% { stroke-dashoffset: 3339; }
}
svg.acjk #stroke-p4 { animation-name: zk4; }
/* Stroke 5: Starts at 28.3%, finishes at 35.4%, holds until 77.9% */
@keyframes zk5 {
    0%, 28.3% { stroke-dashoffset: 3339; }
    35.4%, 77.9% { stroke-dashoffset: 0; }
    78.0%, 100% { stroke-dashoffset: 3339; }
}
svg.acjk #stroke-p5 { animation-name: zk5; }
/* Stroke 6: Starts at 35.4%, finishes at 42.5%, holds until 77.9% */
@keyframes zk6 {
    0%, 35.4% { stroke-dashoffset: 3339; }
    42.5%, 77.9% { stroke-dashoffset: 0; }
    78.0%, 100% { stroke-dashoffset: 3339; }
}
svg.acjk #stroke-p6 { animation-name: zk6; }
/* Stroke 7: Starts at 42.5%, finishes at 49.6%, holds until 77.9% */
@keyframes zk7 {
    0%, 42.5% { stroke-dashoffset: 3339; }
    49.6%, 77.9% { stroke-dashoffset: 0; }
    78.0%, 100% { stroke-dashoffset: 3339; }
}
svg.acjk #stroke-p7 { animation-name: zk7; }
/* Stroke 8: Starts at 49.6%, finishes at 56.6%, holds until 77.9% */
@keyframes zk8 {
    0%, 49.6% { stroke-dashoffset: 3339; }
    56.6%, 77.9% { stroke-dashoffset: 0; }
    78.0%, 100% { stroke-dashoffset: 3339; }
}
svg.acjk #stroke-p8 { animation-name: zk8; }
/* Stroke 9: Starts at 56.6%, finishes at 63.7%, holds until 77.9% */
@keyframes zk9 {
    0%, 56.6% { stroke-dashoffset: 3339; }
    63.7%, 77.9% { stroke-dashoffset: 0; }
    78.0%, 100% { stroke-dashoffset: 3339; }
}
svg.acjk #stroke-p9 { animation-name: zk9; }
/* Stroke 10: Starts at 63.7%, finishes at 70.8%, holds until 77.9% */
@keyframes zk10 {
    0%, 63.7% { stroke-dashoffset: 3339; }
    70.8%, 77.9% { stroke-dashoffset: 0; }
    78.0%, 100% { stroke-dashoffset: 3339; }
}
svg.acjk #stroke-p10 { animation-name: zk10; }
/* Stroke 11: Starts at 70.8%, finishes at 77.9%, holds until 77.9% */
@keyframes zk11 {
    0%, 70.8% { stroke-dashoffset: 3339; }
    77.9%, 77.9% { stroke-dashoffset: 0; }
    78.0%, 100% { stroke-dashoffset: 3339; }
}
svg.acjk #stroke-p11 { animation-name: zk11; }
]]>
</style>
<defs>
    <path id="p1" d="M 187 401 Q 230 347 278 275 C 291 254 291 254 297 244 Q 315 198 354 159 Q 364 149 359 135 Q 355 122 326 101 Q 299 82 281 83 Q 262 84 270 107 Q 285 138 273 165 Q 237 256 181 339 Q 129 421 54 509 Q 44 519 42 526 Q 39 536 53 534 Q 83 530 172 420 C 182 407 182 407 187 401 Z"/>
    <path id="p2" d="M 278 275 Q 320 287 361 272 Q 395 263 431 254 Q 447 250 449 247 Q 456 240 452 231 Q 445 221 415 216 Q 387 212 358 226 Q 354 226 297 244 C 286 248 266 273 278 275 Z"/>
    <path id="p3" d="M 284 421 Q 393 388 397 386 Q 404 379 400 370 Q 393 360 365 356 Q 337 353 311 366 Q 284 376 255 386 Q 224 395 187 401 C 179 403 166 414 172 420 Q 188 436 242 432 C 270 425 270 425 284 421 Z"/>
    <path id="p4" d="M 307 557 Q 407 527 413 522 Q 420 515 416 507 Q 409 497 381 492 Q 351 488 308 509 C 279 520 279 520 264 526 Q 180 550 122 561 Q 89 568 114 583 Q 156 604 203 586 Q 233 577 265 569 C 293 561 293 561 307 557 Z"/>
    <path id="p5" d="M 265 569 Q 261 705 230 750 Q 197 792 238 829 C 239 830 239 830 240 830 Q 252 837 262 822 Q 274 797 388 690 Q 404 677 408 669 Q 412 660 403 661 Q 391 661 307 712 Q 300 716 299 710 Q 306 626 307 557 C 308 525 308 525 308 509 Q 308 482 313 462 Q 319 447 284 421 C 273 412 237 419 242 432 Q 260 474 264 526 C 265 555 265 555 265 569 Z"/>
    <path id="p6" d="M 612 126 Q 646 151 682 180 Q 695 192 711 190 Q 721 189 725 176 Q 729 161 718 133 Q 706 102 605 81 Q 589 78 584 81 Q 580 85 581 97 Q 585 107 612 126 Z"/>
    <path id="p7" d="M 753 257 Q 778 250 810 246 Q 859 236 866 229 Q 876 222 871 212 Q 864 200 834 192 Q 806 186 705 216 Q 558 243 515 247 Q 478 251 504 270 Q 540 291 619 280 Q 670 271 726 262 C 744 259 744 259 753 257 Z"/>
    <path id="p8" d="M 542 337 Q 581 415 603 423 Q 613 427 623 412 Q 627 402 623 382 Q 619 363 597 349 Q 566 322 551 315 Q 544 312 540 322 Q 537 328 542 337 Z"/>
    <path id="p9" d="M 726 428 Q 750 386 769 347 Q 776 331 791 311 Q 804 299 796 290 Q 784 272 753 257 C 745 254 726 253 726 262 Q 725 265 728 271 Q 740 305 702 412 Q 698 424 696 434 C 694 444 721 437 726 428 Z"/>
    <path id="p10" d="M 537 499 Q 544 499 555 497 Q 666 476 868 457 Q 878 458 888 446 Q 889 434 867 423 Q 837 399 753 422 Q 740 423 726 428 C 706 432 706 432 696 434 Q 636 444 585 449 Q 554 450 520 455 C 504 458 521 499 537 499 Z"/>
    <path id="p11" d="M 520 455 Q 484 436 472 437 Q 454 440 468 460 Q 493 505 467 673 Q 457 716 434 766 Q 406 829 340 880 Q 327 890 324 897 Q 321 903 332 903 Q 365 906 425 847 Q 507 763 530 552 Q 531 516 537 499 C 543 484 534 462 520 455 Z"/>

    <clipPath id="z38130c1"><use href="#p1"/></clipPath>
    <clipPath id="z38130c2"><use href="#p2"/></clipPath>
    <clipPath id="z38130c3"><use href="#p3"/></clipPath>
    <clipPath id="z38130c4"><use href="#p4"/></clipPath>
    <clipPath id="z38130c5"><use href="#p5"/></clipPath>
    <clipPath id="z38130c6"><use href="#p6"/></clipPath>
    <clipPath id="z38130c7"><use href="#p7"/></clipPath>
    <clipPath id="z38130c8"><use href="#p8"/></clipPath>
    <clipPath id="z38130c9"><use href="#p9"/></clipPath>
    <clipPath id="z38130c10"><use href="#p10"/></clipPath>
    <clipPath id="z38130c11"><use href="#p11"/></clipPath>
</defs>
<g id="bg-layer" class="bg">
<use href="#p1"/>
<use href="#p2"/>
<use href="#p3"/>
<use href="#p4"/>
<use href="#p5"/>
<use href="#p6"/>
<use href="#p7"/>
<use href="#p8"/>
<use href="#p9"/>
<use href="#p10"/>
<use href="#p11"/>
</g>
<g id="anim-layer">
    <path id="stroke-p1" style="stroke:#FF4444" pathLength="3333" clip-path="url(#z38130c1)" d="M 275 90 L 318 152 L 154 413 L 47 526"/>
    <path id="stroke-p2" style="stroke:#FF4444" pathLength="3333" clip-path="url(#z38130c2)" d="M 290 271 L 447 238"/>
    <path id="stroke-p3" style="stroke:#FF4444" pathLength="3333" clip-path="url(#z38130c3)" d="M 181 419 L 397 374"/>
    <path id="stroke-p4" style="stroke:#FF4444" pathLength="3333" clip-path="url(#z38130c4)" d="M 113 573 L 409 508"/>
    <path id="stroke-p5" style="stroke:#FF4444" pathLength="3333" clip-path="url(#z38130c5)" d="M 249 434 L 284 465 L 260 772 L 280 779 L 401 667"/>
    <path id="stroke-p6" style="stroke:#000" pathLength="3333" clip-path="url(#z38130c6)" d="M 590 91 L 677 135 L 718 182"/>
    <path id="stroke-p7" style="stroke:#000" pathLength="3333" clip-path="url(#z38130c7)" d="M 500 256 L 866 218"/>
    <path id="stroke-p8" style="stroke:#000" pathLength="3333" clip-path="url(#z38130c8)" d="M 547 318 L 605 418"/>
    <path id="stroke-p9" style="stroke:#000" pathLength="3333" clip-path="url(#z38130c9)" d="M 735 268 L 764 304 L 703 428"/>
    <path id="stroke-p10" style="stroke:#000" pathLength="3333" clip-path="url(#z38130c10)" d="M 529 460 L 555 474 L 881 443"/>
    <path id="stroke-p11" style="stroke:#000" pathLength="3333" clip-path="url(#z38130c11)" d="M 469 446 L 507 502 L 481 700 L 421 824 L 331 897"/>
</g>
</svg>