<svg id="z38186" class="acjk" viewBox="0 0 1024 1024" xmlns="http://www.w3.org/2000/svg">
<style>
<![CDATA[
svg.acjk path[clip-path] {
    animation-duration: 12.9s;
    animation-timing-function: linear;
    animation-iteration-count: infinite;
    stroke-dasharray: 3337;
    stroke-dashoffset: 3339;
    stroke-width: 128;
    stroke-linecap: round;
    fill: none;
    stroke: #FF4444;
}
svg.acjk .bg { fill: #ccc; opacity: 0.5; }

/* Stroke 1: Starts at 0.0%, finishes at 6.2%, holds until 80.6% */
@keyframes zk1 {
    0%, 0.0% { stroke-dashoffset: 3339; }
    6.2%, 80.6% { stroke-dashoffset: 0; }
    80.7%, 100% { stroke-dashoffset: 3339; }
}
svg.acjk #stroke-p1 { animation-name: zk1; }
/* Stroke 2: Starts at 6.2%, finishes at 12.4%, holds until 80.6% */
@keyframes zk2 {
    0%, 6.2% { stroke-dashoffset: 3339; }
    12.4%, 80.6% { stroke-dashoffset: 0; }
    80.7%, 100% { stroke-dashoffset: 3339; }
}
svg.acjk #stroke-p2 { animation-name: zk2; }
/* Stroke 3: Starts at 12.4%, finishes at 18.6%, holds until 80.6% */
@keyframes zk3 {
    0%, 12.4% { stroke-dashoffset: 3339; }
    18.6%, 80.6% { stroke-dashoffset: 0; }
    80.7%, 100% { stroke-dashoffset: 3339; }
}
svg.acjk #stroke-p3 { animation-name: zk3; }
/* Stroke 4: Starts at 18.6%, finishes at 24.8%, holds until 80.6% */
@keyframes zk4 {
    0%, 18.6% { stroke-dashoffset: 3339; }
    24.8%, 80.6% { stroke-dashoffset: 0; }
    80.7%, 100% { stroke-dashoffset: 3339; }
}
svg.acjk #stroke-p4 { animation-name: zk4; }
/* Stroke 5: Starts at 24.8%, finishes at 31.0%, holds until 80.6% */
@keyframes zk5 {
    0%, 24.8% { stroke-dashoffset: 3339; }
    31.0%, 80.6% { stroke-dashoffset: 0; }
    80.7%, 100% { stroke-dashoffset: 3339; }
}
svg.acjk #stroke-p5 { animation-name: zk5; }
/* Stroke 6: Starts at 31.0%, finishes at 37.2%, holds until 80.6% */
@keyframes zk6 {
    0%, 31.0% { stroke-dashoffset: 3339; }
    37.2%, 80.6% { stroke-dashoffset: 0; }
    80.7%, 100% { stroke-dashoffset: 3339; }
}
svg.acjk #stroke-p6 { animation-name: zk6; }
/* Stroke 7: Starts at 37.2%, finishes at 43.4%, holds until 80.6% */
@keyframes zk7 {
    0%, 37.2% { stroke-dashoffset: 3339; }
    43.4%, 80.6% { stroke-dashoffset: 0; }
    80.7%, 100% { stroke-dashoffset: 3339; }
}
svg.acjk #stroke-p7 { animation-name: zk7; }
/* Stroke 8: Starts at 43.4%, finishes at 49.6%, holds until 80.6% */
@keyframes zk8 {
    0%, 43.4% { stroke-dashoffset: 3339; }
    49.6%, 80.6% { stroke-dashoffset: 0; }
    80.7%, 100% { stroke-dashoffset: 3339; }
}
svg.acjk #stroke-p8 { animation-name: zk8; }
/* Stroke 9: Starts at 49.6%, finishes at 55.8%, holds until 80.6% */
@keyframes zk9 {
    0%, 49.6% { stroke-dashoffset: 3339; }
    55.8%, 80.6% { stroke-dashoffset: 0; }
    80.7%, 100% { stroke-dashoffset: 3339; }
}
svg.acjk #stroke-p9 { animation-name: zk9; }
/* Stroke 10: Starts at 55.8%, finishes at 62.0%, holds until 80.6% */
@keyframes zk10 {
    0%, 55.8% { stroke-dashoffset: 3339; }
    62.0%, 80.6% { stroke-dashoffset: 0; }
    80.7%, 100% { stroke-dashoffset: 3339; }
}
svg.acjk #stroke-p10 { animation-name: zk10; }
/* Stroke 11: Starts at 62.0%, finishes at 68.2%, holds until 80.6% */
@keyframes zk11 {
    0%, 62.0% { stroke-dashoffset: 3339; }
    68.2%, 80.6% { stroke-dashoffset: 0; }
    80.7%, 100% { stroke-dashoffset: 3339; }
}
svg.acjk #stroke-p11 { animation-name: zk11; }
/* Stroke 12: Starts at 68.2%, finishes at 74.4%, holds until 80.6% */
@keyframes zk12 {
    0%, 68.2% { stroke-dashoffset: 3339; }
    74.4%, 80.6% { stroke-dashoffset: 0; }
    80.7%, 100% { stroke-dashoffset: 3339; }
}
svg.acjk #stroke-p12 { animation-name: zk12; }
/* Stroke 13: Starts at 74.4%, finishes at 80.6%, holds until 80.6% */
@keyframes zk13 {
    0%, 74.4% { stroke-dashoffset: 3339; }
    80.6%, 80.6% { stroke-dashoffset: 0; }
    80.7%, 100% { stroke-dashoffset: 3339; }
}
svg.acjk #stroke-p13 { animation-name: zk13; }
]]>
</style>
<defs>
    <path id="p1" d="M 290 283 Q 338 199 362 176 Q 371 166 366 152 Q 362 139 334 116 Q 307 98 289 99 Q 270 100 278 122 Q 293 153 281 181 Q 244 272 187 356 Q 133 437 59 526 Q 49 536 46 542 Q 43 552 57 550 Q 114 541 267 318 Q 268 314 272 310 C 284 292 284 292 290 283 Z"/>
    <path id="p2" d="M 272 310 Q 308 320 378 304 Q 399 298 423 293 Q 439 289 441 286 Q 448 279 444 270 Q 437 260 409 256 Q 384 253 324 276 Q 321 276 290 283 C 279 285 261 308 272 310 Z"/>
    <path id="p3" d="M 278 449 Q 281 448 285 446 Q 393 413 398 408 Q 405 401 400 394 Q 393 384 367 381 Q 343 380 271 411 Q 241 420 208 427 Q 177 436 201 448 Q 213 452 230 455 C 246 458 263 455 278 449 Z"/>
    <path id="p4" d="M 295 577 Q 404 541 409 538 Q 416 529 412 522 Q 405 512 377 508 Q 349 505 296 531 C 267 542 267 542 252 547 Q 248 547 246 549 Q 203 562 149 573 Q 116 582 142 595 Q 181 614 231 596 Q 240 593 253 590 C 281 581 281 581 295 577 Z"/>
    <path id="p5" d="M 253 590 Q 249 713 220 759 Q 187 801 231 839 Q 243 846 253 830 Q 265 803 386 683 Q 401 670 404 661 Q 407 652 398 653 Q 391 653 293 718 Q 289 722 287 718 Q 294 640 295 577 C 296 546 296 546 296 531 Q 296 506 300 486 Q 304 471 278 449 C 267 438 224 440 230 455 Q 249 497 252 547 C 253 576 253 576 253 590 Z"/>
    <path id="p6" d="M 531 262 Q 555 223 581 170 Q 593 142 605 127 Q 612 117 606 107 Q 602 97 576 81 Q 552 69 537 72 Q 522 76 531 92 Q 561 140 446 342 Q 439 352 438 357 Q 437 366 447 363 Q 471 353 522 276 C 528 267 528 267 531 262 Z"/>
    <path id="p7" d="M 700 269 Q 728 262 759 260 Q 775 259 779 264 Q 789 280 780 322 Q 761 437 729 487 Q 711 517 685 512 Q 663 506 642 499 Q 620 492 635 514 Q 674 551 692 580 Q 711 602 730 584 Q 761 563 783 525 Q 810 480 831 340 Q 838 291 856 266 Q 868 256 863 245 Q 854 235 808 212 Q 789 203 772 215 Q 730 239 565 260 Q 535 260 531 262 C 526 263 518 272 522 276 Q 540 294 567 298 C 579 300 592 294 604 290 Q 629 283 656 278 C 685 272 685 272 700 269 Z"/>
    <path id="p8" d="M 567 298 Q 566 302 565 310 Q 538 388 465 470 Q 461 474 461 478 Q 461 482 465 481 Q 498 481 595 352 Q 595 342 614 322 Q 618 315 614 304 Q 610 297 604 290 C 596 280 569 286 567 298 Z"/>
    <path id="p9" d="M 656 278 Q 669 335 592 458 Q 591 459 589 462 Q 565 496 504 566 Q 498 572 506 572 Q 558 560 640 451 Q 641 448 644 445 Q 672 403 714 321 Q 720 309 724 305 Q 728 301 727 292 Q 720 273 700 269 C 685 267 653 263 656 278 Z"/>
    <path id="p10" d="M 430 661 Q 411 721 380 775 Q 365 808 381 833 Q 388 849 407 837 Q 455 794 455 711 Q 458 681 451 660 Q 447 653 441 653 Q 434 654 430 661 Z"/>
    <path id="p11" d="M 486 678 Q 498 774 566 825 Q 650 885 823 886 Q 860 883 892 872 Q 914 865 918 850 Q 922 841 888 816 Q 837 767 801 718 Q 789 700 785 707 Q 781 714 784 728 Q 803 807 795 817 Q 786 827 748 827 Q 613 821 559 764 Q 534 739 526 698 Q 520 676 510 669 Q 497 662 490 665 Q 484 666 486 678 Z"/>
    <path id="p12" d="M 591 622 Q 633 686 657 703 Q 670 709 680 699 Q 687 689 688 674 Q 685 635 608 591 Q 595 584 586 585 Q 582 585 581 596 Q 580 606 591 622 Z"/>
    <path id="p13" d="M 804 611 Q 844 645 891 694 Q 904 710 919 714 Q 926 715 933 706 Q 943 693 930 656 Q 921 620 862 601 Q 825 589 804 584 Q 797 580 795 590 Q 795 602 804 611 Z"/>

    <clipPath id="z38186c1"><use href="#p1"/></clipPath>
    <clipPath id="z38186c2"><use href="#p2"/></clipPath>
    <clipPath id="z38186c3"><use href="#p3"/></clipPath>
    <clipPath id="z38186c4"><use href="#p4"/></clipPath>
    <clipPath id="z38186c5"><use href="#p5"/></clipPath>
    <clipPath id="z38186c6"><use href="#p6"/></clipPath>
    <clipPath id="z38186c7"><use href="#p7"/></clipPath>
    <clipPath id="z38186c8"><use href="#p8"/></clipPath>
    <clipPath id="z38186c9"><use href="#p9"/></clipPath>
    <clipPath id="z38186c10"><use href="#p10"/></clipPath>
    <clipPath id="z38186c11"><use href="#p11"/></clipPath>
    <clipPath id="z38186c12"><use href="#p12"/></clipPath>
    <clipPath id="z38186c13"><use href="#p13"/></clipPath>
</defs>
<g id="bg-layer" class="bg">
<use href="#p1"/>
<use href="#p2"/>
<use href="#p3"/>
<use href="#p4"/>
<use href="#p5"/>
<use href="#p6"/>
<use href="#p7"/>
<use href="#p8"/>
<use href="#p9"/>
<use href="#p10"/>
<use href="#p11"/>
<use href="#p12"/>
<use href="#p13"/>
</g>
<g id="anim-layer">
    <path id="stroke-p1" style="stroke:#FF4444" pathLength="3333" clip-path="url(#z38186c1)" d="M 284 109 L 323 172 L 183 399 L 51 543"/>
    <path id="stroke-p2" style="stroke:#FF4444" pathLength="3333" clip-path="url(#z38186c2)" d="M 278 306 L 439 270"/>
    <path id="stroke-p3" style="stroke:#FF4444" pathLength="3333" clip-path="url(#z38186c3)" d="M 196 436 L 398 399"/>
    <path id="stroke-p4" style="stroke:#FF4444" pathLength="3333" clip-path="url(#z38186c4)" d="M 137 582 L 407 530"/>
    <path id="stroke-p5" style="stroke:#FF4444" pathLength="3333" clip-path="url(#z38186c5)" d="M 238 457 L 272 491 L 252 785 L 398 660"/>
    <path id="stroke-p6" style="stroke:#000" pathLength="3333" clip-path="url(#z38186c6)" d="M 535 81 L 573 121 L 445 355"/>
    <path id="stroke-p7" style="stroke:#000" pathLength="3333" clip-path="url(#z38186c7)" d="M 527 273 L 780 235 L 824 264 L 747 519 L 701 552 L 634 504"/>
    <path id="stroke-p8" style="stroke:#000" pathLength="3333" clip-path="url(#z38186c8)" d="M 598 297 L 469 476"/>
    <path id="stroke-p9" style="stroke:#000" pathLength="3333" clip-path="url(#z38186c9)" d="M 662 285 L 690 313 L 638 418 L 508 566"/>
    <path id="stroke-p10" style="stroke:#000" pathLength="3333" clip-path="url(#z38186c10)" d="M 443 656 L 390 838"/>
    <path id="stroke-p11" style="stroke:#000" pathLength="3333" clip-path="url(#z38186c11)" d="M 494 669 L 565 797 L 707 850 L 810 852 L 866 833 L 789 713"/>
    <path id="stroke-p12" style="stroke:#000" pathLength="3333" clip-path="url(#z38186c12)" d="M 589 593 L 676 698"/>
    <path id="stroke-p13" style="stroke:#000" pathLength="3333" clip-path="url(#z38186c13)" d="M 802 590 L 891 650 L 922 709"/>
</g>
</svg>