<svg id="z38192" class="acjk" viewBox="0 0 1024 1024" xmlns="http://www.w3.org/2000/svg">
<style>
<![CDATA[
svg.acjk path[clip-path] {
    animation-duration: 12.9s;
    animation-timing-function: linear;
    animation-iteration-count: infinite;
    stroke-dasharray: 3337;
    stroke-dashoffset: 3339;
    stroke-width: 128;
    stroke-linecap: round;
    fill: none;
    stroke: #FF4444;
}
svg.acjk .bg { fill: #ccc; opacity: 0.5; }

/* Stroke 1: Starts at 0.0%, finishes at 6.2%, holds until 80.6% */
@keyframes zk1 {
    0%, 0.0% { stroke-dashoffset: 3339; }
    6.2%, 80.6% { stroke-dashoffset: 0; }
    80.7%, 100% { stroke-dashoffset: 3339; }
}
svg.acjk #stroke-p1 { animation-name: zk1; }
/* Stroke 2: Starts at 6.2%, finishes at 12.4%, holds until 80.6% */
@keyframes zk2 {
    0%, 6.2% { stroke-dashoffset: 3339; }
    12.4%, 80.6% { stroke-dashoffset: 0; }
    80.7%, 100% { stroke-dashoffset: 3339; }
}
svg.acjk #stroke-p2 { animation-name: zk2; }
/* Stroke 3: Starts at 12.4%, finishes at 18.6%, holds until 80.6% */
@keyframes zk3 {
    0%, 12.4% { stroke-dashoffset: 3339; }
    18.6%, 80.6% { stroke-dashoffset: 0; }
    80.7%, 100% { stroke-dashoffset: 3339; }
}
svg.acjk #stroke-p3 { animation-name: zk3; }
/* Stroke 4: Starts at 18.6%, finishes at 24.8%, holds until 80.6% */
@keyframes zk4 {
    0%, 18.6% { stroke-dashoffset: 3339; }
    24.8%, 80.6% { stroke-dashoffset: 0; }
    80.7%, 100% { stroke-dashoffset: 3339; }
}
svg.acjk #stroke-p4 { animation-name: zk4; }
/* Stroke 5: Starts at 24.8%, finishes at 31.0%, holds until 80.6% */
@keyframes zk5 {
    0%, 24.8% { stroke-dashoffset: 3339; }
    31.0%, 80.6% { stroke-dashoffset: 0; }
    80.7%, 100% { stroke-dashoffset: 3339; }
}
svg.acjk #stroke-p5 { animation-name: zk5; }
/* Stroke 6: Starts at 31.0%, finishes at 37.2%, holds until 80.6% */
@keyframes zk6 {
    0%, 31.0% { stroke-dashoffset: 3339; }
    37.2%, 80.6% { stroke-dashoffset: 0; }
    80.7%, 100% { stroke-dashoffset: 3339; }
}
svg.acjk #stroke-p6 { animation-name: zk6; }
/* Stroke 7: Starts at 37.2%, finishes at 43.4%, holds until 80.6% */
@keyframes zk7 {
    0%, 37.2% { stroke-dashoffset: 3339; }
    43.4%, 80.6% { stroke-dashoffset: 0; }
    80.7%, 100% { stroke-dashoffset: 3339; }
}
svg.acjk #stroke-p7 { animation-name: zk7; }
/* Stroke 8: Starts at 43.4%, finishes at 49.6%, holds until 80.6% */
@keyframes zk8 {
    0%, 43.4% { stroke-dashoffset: 3339; }
    49.6%, 80.6% { stroke-dashoffset: 0; }
    80.7%, 100% { stroke-dashoffset: 3339; }
}
svg.acjk #stroke-p8 { animation-name: zk8; }
/* Stroke 9: Starts at 49.6%, finishes at 55.8%, holds until 80.6% */
@keyframes zk9 {
    0%, 49.6% { stroke-dashoffset: 3339; }
    55.8%, 80.6% { stroke-dashoffset: 0; }
    80.7%, 100% { stroke-dashoffset: 3339; }
}
svg.acjk #stroke-p9 { animation-name: zk9; }
/* Stroke 10: Starts at 55.8%, finishes at 62.0%, holds until 80.6% */
@keyframes zk10 {
    0%, 55.8% { stroke-dashoffset: 3339; }
    62.0%, 80.6% { stroke-dashoffset: 0; }
    80.7%, 100% { stroke-dashoffset: 3339; }
}
svg.acjk #stroke-p10 { animation-name: zk10; }
/* Stroke 11: Starts at 62.0%, finishes at 68.2%, holds until 80.6% */
@keyframes zk11 {
    0%, 62.0% { stroke-dashoffset: 3339; }
    68.2%, 80.6% { stroke-dashoffset: 0; }
    80.7%, 100% { stroke-dashoffset: 3339; }
}
svg.acjk #stroke-p11 { animation-name: zk11; }
/* Stroke 12: Starts at 68.2%, finishes at 74.4%, holds until 80.6% */
@keyframes zk12 {
    0%, 68.2% { stroke-dashoffset: 3339; }
    74.4%, 80.6% { stroke-dashoffset: 0; }
    80.7%, 100% { stroke-dashoffset: 3339; }
}
svg.acjk #stroke-p12 { animation-name: zk12; }
/* Stroke 13: Starts at 74.4%, finishes at 80.6%, holds until 80.6% */
@keyframes zk13 {
    0%, 74.4% { stroke-dashoffset: 3339; }
    80.6%, 80.6% { stroke-dashoffset: 0; }
    80.7%, 100% { stroke-dashoffset: 3339; }
}
svg.acjk #stroke-p13 { animation-name: zk13; }
]]>
</style>
<defs>
    <path id="p1" d="M 281 270 Q 320 195 347 170 Q 356 160 351 146 Q 347 134 318 113 Q 293 95 274 96 Q 256 99 264 119 Q 279 150 268 176 Q 207 329 62 510 Q 52 520 50 526 Q 47 536 61 534 Q 109 528 258 308 Q 259 304 263 300 C 275 280 275 280 281 270 Z"/>
    <path id="p2" d="M 263 300 Q 296 307 385 286 Q 398 282 416 278 Q 434 272 437 270 Q 444 263 440 254 Q 433 244 405 240 Q 381 237 313 262 Q 295 266 281 270 C 270 272 252 298 263 300 Z"/>
    <path id="p3" d="M 267 451 Q 330 430 394 408 Q 401 401 396 394 Q 389 384 363 381 Q 336 378 312 391 Q 288 401 261 411 Q 231 421 196 427 Q 165 436 189 448 Q 202 452 220 456 C 235 459 252 457 267 451 Z"/>
    <path id="p4" d="M 289 581 Q 329 566 377 553 Q 408 543 414 538 Q 421 529 416 522 Q 409 512 381 508 Q 362 505 289 536 C 260 547 260 547 245 552 Q 202 564 157 573 Q 124 582 149 595 Q 189 611 246 594 C 275 585 275 585 289 581 Z"/>
    <path id="p5" d="M 246 594 Q 249 730 205 791 Q 184 818 224 859 Q 236 866 247 850 Q 259 823 381 710 Q 397 697 400 689 Q 403 680 394 681 Q 385 681 290 739 Q 284 745 282 738 Q 288 651 289 581 C 289 551 289 551 289 536 Q 289 511 293 490 Q 297 474 267 451 C 255 441 212 442 220 456 Q 242 499 245 552 C 246 580 246 580 246 594 Z"/>
    <path id="p6" d="M 651 304 Q 754 220 780 212 Q 799 205 793 189 Q 790 174 726 140 Q 707 130 686 139 Q 637 158 564 180 Q 545 187 498 186 Q 476 186 484 205 Q 491 217 510 228 Q 540 244 571 225 Q 586 218 662 183 Q 675 179 687 185 Q 699 192 693 206 Q 668 246 637 295 C 634 300 647 307 651 304 Z"/>
    <path id="p7" d="M 677 347 Q 668 316 651 304 C 642 298 642 298 637 295 Q 628 289 617 287 Q 599 283 591 288 Q 581 295 593 305 Q 621 323 633 355 C 638 378 638 378 641 390 Q 653 456 635 499 Q 625 521 597 517 Q 572 513 547 510 Q 537 509 541 517 Q 545 524 562 533 Q 596 558 610 579 Q 620 594 633 591 Q 643 590 665 565 Q 704 517 686 385 Q 686 384 686 383 C 680 359 680 359 677 347 Z"/>
    <path id="p8" d="M 686 383 Q 750 373 841 371 Q 889 371 896 362 Q 900 352 886 340 Q 835 309 779 325 Q 736 334 677 347 C 648 352 648 352 633 355 Q 545 371 442 388 Q 424 391 438 405 Q 451 417 466 420 Q 484 424 498 420 Q 562 401 635 390 Q 636 389 641 390 C 671 385 671 385 686 383 Z"/>
    <path id="p9" d="M 481 620 Q 481 619 480 618 Q 470 614 439 608 Q 429 607 426 610 Q 422 616 429 629 Q 457 686 474 780 Q 475 796 484 812 C 490 821 517 820 517 809 Q 517 793 512 769 Q 494 687 488 653 C 486 642 490 627 481 620 Z"/>
    <path id="p10" d="M 796 778 Q 821 676 847 637 Q 857 627 853 616 Q 847 601 791 575 Q 775 568 762 571 Q 635 599 481 620 C 470 622 477 653 488 653 Q 500 654 511 650 Q 532 644 556 640 C 567 638 567 638 573 637 Q 609 628 649 621 C 670 618 670 618 681 617 Q 741 602 761 613 Q 767 617 767 635 Q 758 696 739 786 C 735 805 792 797 796 778 Z"/>
    <path id="p11" d="M 603 801 Q 604 798 605 796 Q 612 742 583 651 Q 580 642 573 637 C 569 633 556 634 556 640 Q 559 676 564 713 Q 567 779 586 803 C 590 807 601 806 603 801 Z"/>
    <path id="p12" d="M 667 794 Q 682 755 696 700 Q 700 681 713 654 Q 722 642 713 636 Q 703 626 681 617 C 671 613 647 610 649 621 Q 648 625 652 630 Q 668 661 644 785 Q 643 789 642 796 C 641 804 664 802 667 794 Z"/>
    <path id="p13" d="M 484 812 Q 417 816 344 824 Q 325 825 339 842 Q 351 855 368 860 Q 387 866 402 862 Q 642 808 935 828 Q 936 827 938 828 Q 957 829 961 821 Q 967 811 952 797 Q 900 755 837 771 Q 818 772 796 778 C 758 783 758 783 739 786 Q 705 787 667 794 C 650 795 650 795 642 796 Q 636 796 633 797 Q 618 798 603 801 C 592 802 592 802 586 803 Q 552 804 517 809 C 495 811 495 811 484 812 Z"/>

    <clipPath id="z38192c1"><use href="#p1"/></clipPath>
    <clipPath id="z38192c2"><use href="#p2"/></clipPath>
    <clipPath id="z38192c3"><use href="#p3"/></clipPath>
    <clipPath id="z38192c4"><use href="#p4"/></clipPath>
    <clipPath id="z38192c5"><use href="#p5"/></clipPath>
    <clipPath id="z38192c6"><use href="#p6"/></clipPath>
    <clipPath id="z38192c7"><use href="#p7"/></clipPath>
    <clipPath id="z38192c8"><use href="#p8"/></clipPath>
    <clipPath id="z38192c9"><use href="#p9"/></clipPath>
    <clipPath id="z38192c10"><use href="#p10"/></clipPath>
    <clipPath id="z38192c11"><use href="#p11"/></clipPath>
    <clipPath id="z38192c12"><use href="#p12"/></clipPath>
    <clipPath id="z38192c13"><use href="#p13"/></clipPath>
</defs>
<g id="bg-layer" class="bg">
<use href="#p1"/>
<use href="#p2"/>
<use href="#p3"/>
<use href="#p4"/>
<use href="#p5"/>
<use href="#p6"/>
<use href="#p7"/>
<use href="#p8"/>
<use href="#p9"/>
<use href="#p10"/>
<use href="#p11"/>
<use href="#p12"/>
<use href="#p13"/>
</g>
<g id="anim-layer">
    <path id="stroke-p1" style="stroke:#FF4444" pathLength="3333" clip-path="url(#z38192c1)" d="M 268 103 L 312 158 L 177 388 L 56 526"/>
    <path id="stroke-p2" style="stroke:#FF4444" pathLength="3333" clip-path="url(#z38192c2)" d="M 268 296 L 437 261"/>
    <path id="stroke-p3" style="stroke:#FF4444" pathLength="3333" clip-path="url(#z38192c3)" d="M 184 436 L 393 400"/>
    <path id="stroke-p4" style="stroke:#FF4444" pathLength="3333" clip-path="url(#z38192c4)" d="M 149 585 L 413 528"/>
    <path id="stroke-p5" style="stroke:#FF4444" pathLength="3333" clip-path="url(#z38192c5)" d="M 230 460 L 266 511 L 242 797 L 265 801 L 393 687"/>
    <path id="stroke-p6" style="stroke:#000" pathLength="3333" clip-path="url(#z38192c6)" d="M 488 198 L 540 210 L 674 162 L 714 167 L 744 198 L 646 298"/>
    <path id="stroke-p7" style="stroke:#000" pathLength="3333" clip-path="url(#z38192c7)" d="M 595 293 L 654 348 L 664 495 L 616 554 L 550 514"/>
    <path id="stroke-p8" style="stroke:#000" pathLength="3333" clip-path="url(#z38192c8)" d="M 441 398 L 798 346 L 893 355"/>
    <path id="stroke-p9" style="stroke:#000" pathLength="3333" clip-path="url(#z38192c9)" d="M 432 617 L 460 637 L 502 810"/>
    <path id="stroke-p10" style="stroke:#000" pathLength="3333" clip-path="url(#z38192c10)" d="M 490 625 L 784 599 L 810 629 L 768 774 L 747 777"/>
    <path id="stroke-p11" style="stroke:#000" pathLength="3333" clip-path="url(#z38192c11)" d="M 564 643 L 590 798"/>
    <path id="stroke-p12" style="stroke:#000" pathLength="3333" clip-path="url(#z38192c12)" d="M 657 626 L 687 656 L 650 789"/>
    <path id="stroke-p13" style="stroke:#000" pathLength="3333" clip-path="url(#z38192c13)" d="M 340 831 L 868 795 L 958 811"/>
</g>
</svg>