<svg id="z38240" class="acjk" viewBox="0 0 1024 1024" xmlns="http://www.w3.org/2000/svg">
<style>
<![CDATA[
svg.acjk path[clip-path] {
    animation-duration: 15.3s;
    animation-timing-function: linear;
    animation-iteration-count: infinite;
    stroke-dasharray: 3337;
    stroke-dashoffset: 3339;
    stroke-width: 128;
    stroke-linecap: round;
    fill: none;
    stroke: #FF4444;
}
svg.acjk .bg { fill: #ccc; opacity: 0.5; }

/* Stroke 1: Starts at 0.0%, finishes at 5.2%, holds until 83.7% */
@keyframes zk1 {
    0%, 0.0% { stroke-dashoffset: 3339; }
    5.2%, 83.7% { stroke-dashoffset: 0; }
    83.8%, 100% { stroke-dashoffset: 3339; }
}
svg.acjk #stroke-p1 { animation-name: zk1; }
/* Stroke 2: Starts at 5.2%, finishes at 10.5%, holds until 83.7% */
@keyframes zk2 {
    0%, 5.2% { stroke-dashoffset: 3339; }
    10.5%, 83.7% { stroke-dashoffset: 0; }
    83.8%, 100% { stroke-dashoffset: 3339; }
}
svg.acjk #stroke-p2 { animation-name: zk2; }
/* Stroke 3: Starts at 10.5%, finishes at 15.7%, holds until 83.7% */
@keyframes zk3 {
    0%, 10.5% { stroke-dashoffset: 3339; }
    15.7%, 83.7% { stroke-dashoffset: 0; }
    83.8%, 100% { stroke-dashoffset: 3339; }
}
svg.acjk #stroke-p3 { animation-name: zk3; }
/* Stroke 4: Starts at 15.7%, finishes at 20.9%, holds until 83.7% */
@keyframes zk4 {
    0%, 15.7% { stroke-dashoffset: 3339; }
    20.9%, 83.7% { stroke-dashoffset: 0; }
    83.8%, 100% { stroke-dashoffset: 3339; }
}
svg.acjk #stroke-p4 { animation-name: zk4; }
/* Stroke 5: Starts at 20.9%, finishes at 26.1%, holds until 83.7% */
@keyframes zk5 {
    0%, 20.9% { stroke-dashoffset: 3339; }
    26.1%, 83.7% { stroke-dashoffset: 0; }
    83.8%, 100% { stroke-dashoffset: 3339; }
}
svg.acjk #stroke-p5 { animation-name: zk5; }
/* Stroke 6: Starts at 26.1%, finishes at 31.4%, holds until 83.7% */
@keyframes zk6 {
    0%, 26.1% { stroke-dashoffset: 3339; }
    31.4%, 83.7% { stroke-dashoffset: 0; }
    83.8%, 100% { stroke-dashoffset: 3339; }
}
svg.acjk #stroke-p6 { animation-name: zk6; }
/* Stroke 7: Starts at 31.4%, finishes at 36.6%, holds until 83.7% */
@keyframes zk7 {
    0%, 31.4% { stroke-dashoffset: 3339; }
    36.6%, 83.7% { stroke-dashoffset: 0; }
    83.8%, 100% { stroke-dashoffset: 3339; }
}
svg.acjk #stroke-p7 { animation-name: zk7; }
/* Stroke 8: Starts at 36.6%, finishes at 41.8%, holds until 83.7% */
@keyframes zk8 {
    0%, 36.6% { stroke-dashoffset: 3339; }
    41.8%, 83.7% { stroke-dashoffset: 0; }
    83.8%, 100% { stroke-dashoffset: 3339; }
}
svg.acjk #stroke-p8 { animation-name: zk8; }
/* Stroke 9: Starts at 41.8%, finishes at 47.1%, holds until 83.7% */
@keyframes zk9 {
    0%, 41.8% { stroke-dashoffset: 3339; }
    47.1%, 83.7% { stroke-dashoffset: 0; }
    83.8%, 100% { stroke-dashoffset: 3339; }
}
svg.acjk #stroke-p9 { animation-name: zk9; }
/* Stroke 10: Starts at 47.1%, finishes at 52.3%, holds until 83.7% */
@keyframes zk10 {
    0%, 47.1% { stroke-dashoffset: 3339; }
    52.3%, 83.7% { stroke-dashoffset: 0; }
    83.8%, 100% { stroke-dashoffset: 3339; }
}
svg.acjk #stroke-p10 { animation-name: zk10; }
/* Stroke 11: Starts at 52.3%, finishes at 57.5%, holds until 83.7% */
@keyframes zk11 {
    0%, 52.3% { stroke-dashoffset: 3339; }
    57.5%, 83.7% { stroke-dashoffset: 0; }
    83.8%, 100% { stroke-dashoffset: 3339; }
}
svg.acjk #stroke-p11 { animation-name: zk11; }
/* Stroke 12: Starts at 57.5%, finishes at 62.7%, holds until 83.7% */
@keyframes zk12 {
    0%, 57.5% { stroke-dashoffset: 3339; }
    62.7%, 83.7% { stroke-dashoffset: 0; }
    83.8%, 100% { stroke-dashoffset: 3339; }
}
svg.acjk #stroke-p12 { animation-name: zk12; }
/* Stroke 13: Starts at 62.7%, finishes at 68.0%, holds until 83.7% */
@keyframes zk13 {
    0%, 62.7% { stroke-dashoffset: 3339; }
    68.0%, 83.7% { stroke-dashoffset: 0; }
    83.8%, 100% { stroke-dashoffset: 3339; }
}
svg.acjk #stroke-p13 { animation-name: zk13; }
/* Stroke 14: Starts at 68.0%, finishes at 73.2%, holds until 83.7% */
@keyframes zk14 {
    0%, 68.0% { stroke-dashoffset: 3339; }
    73.2%, 83.7% { stroke-dashoffset: 0; }
    83.8%, 100% { stroke-dashoffset: 3339; }
}
svg.acjk #stroke-p14 { animation-name: zk14; }
/* Stroke 15: Starts at 73.2%, finishes at 78.4%, holds until 83.7% */
@keyframes zk15 {
    0%, 73.2% { stroke-dashoffset: 3339; }
    78.4%, 83.7% { stroke-dashoffset: 0; }
    83.8%, 100% { stroke-dashoffset: 3339; }
}
svg.acjk #stroke-p15 { animation-name: zk15; }
/* Stroke 16: Starts at 78.4%, finishes at 83.7%, holds until 83.7% */
@keyframes zk16 {
    0%, 78.4% { stroke-dashoffset: 3339; }
    83.7%, 83.7% { stroke-dashoffset: 0; }
    83.8%, 100% { stroke-dashoffset: 3339; }
}
svg.acjk #stroke-p16 { animation-name: zk16; }
]]>
</style>
<defs>
    <path id="p1" d="M 280 272 C 318 210 343 172 356 160 C 362 153 363 145 360 136 C 357 127 347 114 328 100 C 310 87 295 82 283 83 C 270 83 265 91 272 106 C 281 127 282 146 275 165 C 250 225 218 283 181 340 C 144 393 122 431 73 490 C 66 497 61 501 60 506 C 57 512 61 515 71 514 C 101 509 151 453 260 304 C 261 301 263 299 265 296 C 275 280 275 280 280 272 Z"/>
    <path id="p2" d="M 265 296 C 289 304 335 300 363 292 C 381 287 390 284 411 278 C 423 274 429 271 431 270 C 435 265 436 260 434 254 C 429 247 417 242 399 240 C 390 239 378 244 323 262 C 308 266 294 269 280 272 C 271 274 256 294 265 296 Z"/>
    <path id="p3" d="M 284 439 C 284 438 283 438 285 438 C 369 410 413 396 416 394 C 421 388 421 382 418 378 C 413 371 401 367 383 365 C 364 363 346 367 329 377 C 311 385 292 392 273 399 C 252 405 228 410 202 417 C 181 422 178 431 195 439 C 208 445 224 449 240 447 C 255 447 271 446 284 439 Z"/>
    <path id="p4" d="M 310 568 C 369 552 400 540 403 538 C 408 533 409 528 406 523 C 401 516 389 510 371 508 C 343 503 326 514 311 520 C 279 532 279 532 263 538 C 200 561 159 562 148 565 C 125 569 122 578 140 587 C 165 600 201 598 245 585 C 251 583 257 581 265 580 C 295 572 295 572 310 568 Z"/>
    <path id="p5" d="M 265 580 C 267 626 253 733 221 779 C 205 800 199 812 227 850 C 228 851 229 854 233 857 C 241 862 250 859 257 849 C 268 830 317 781 412 706 C 423 697 431 691 434 686 C 436 679 434 675 428 676 C 418 676 378 696 310 735 C 303 738 298 737 299 731 C 303 670 309 616 310 568 C 311 536 311 536 311 520 C 311 507 313 495 316 484 C 318 475 317 467 311 461 C 302 452 293 445 284 439 C 271 431 234 433 240 447 C 252 475 261 505 263 538 C 264 566 264 566 265 580 Z"/>
    <path id="p6" d="M 461 199 C 453 199 448 200 447 203 C 445 205 447 210 457 215 C 468 220 486 222 508 217 C 542 207 563 201 572 206 C 578 209 580 220 579 241 C 572 317 566 362 561 378 C 558 386 558 395 562 403 C 565 411 571 414 577 413 C 583 411 587 405 591 399 C 598 385 604 348 614 287 C 618 259 631 238 648 222 C 656 213 657 205 649 198 C 639 189 620 181 595 170 C 580 163 538 172 467 198 C 464 198 462 198 461 199 Z"/>
    <path id="p7" d="M 472 265 C 493 290 510 304 525 305 C 531 305 536 301 538 292 C 539 286 536 278 531 270 C 521 254 501 248 474 247 C 469 246 468 248 468 254 C 467 258 469 261 472 265 Z"/>
    <path id="p8" d="M 448 369 C 443 369 440 373 440 380 C 440 386 446 392 457 399 C 467 406 475 410 481 410 C 485 409 487 405 493 397 C 502 382 523 361 552 333 C 554 330 555 327 554 325 C 553 323 551 323 548 325 C 494 353 460 367 448 369 Z"/>
    <path id="p9" d="M 673 168 C 664 168 659 169 657 173 C 655 175 658 181 668 186 C 683 193 707 195 736 188 C 768 179 789 172 799 177 C 806 180 807 196 802 220 C 782 306 768 359 760 377 C 755 387 754 398 757 408 C 759 416 765 421 773 421 C 781 420 787 415 793 407 C 803 391 816 349 836 281 C 845 249 863 226 885 209 C 895 200 897 190 888 181 C 877 170 856 157 828 141 C 817 135 767 144 675 168 C 674 168 674 167 673 168 Z"/>
    <path id="p10" d="M 678 240 C 703 264 722 275 733 274 C 739 273 744 268 745 260 C 745 254 741 246 735 239 C 730 232 722 229 712 227 C 695 223 684 222 678 222 C 673 222 671 224 672 230 C 672 232 673 236 678 240 Z"/>
    <path id="p11" d="M 643 343 C 638 343 635 347 635 354 C 635 362 642 368 654 375 C 665 382 673 387 679 387 C 683 386 685 380 691 373 C 702 355 725 332 756 301 C 758 298 759 295 758 293 C 757 291 754 290 751 293 C 694 324 659 341 643 343 Z"/>
    <path id="p12" d="M 667 438 C 669 431 675 425 675 419 C 673 409 664 406 650 402 C 634 397 622 395 616 397 C 612 397 609 401 608 409 C 596 461 496 555 414 624 C 368 661 399 661 431 643 C 469 622 562 556 619 492 C 630 479 641 466 653 453 C 657 448 664 444 667 438 Z"/>
    <path id="p13" d="M 653 453 C 703 505 745 555 800 604 C 813 616 830 622 852 622 C 890 621 920 615 961 606 C 970 603 976 601 977 599 C 977 595 973 592 966 590 C 939 581 919 573 888 565 C 823 547 764 512 667 438 C 662 434 649 448 653 453 Z"/>
    <path id="p14" d="M 619 519 C 623 535 608 564 574 606 C 558 624 539 645 517 667 C 513 670 509 672 508 676 C 505 680 507 684 514 683 C 542 678 586 645 643 585 C 652 575 660 567 667 562 C 672 558 673 553 672 547 C 671 541 665 532 655 521 C 645 510 636 505 628 505 C 620 504 616 509 619 519 Z"/>
    <path id="p15" d="M 671 589 C 674 601 673 611 668 621 C 641 666 595 724 526 791 C 520 796 516 798 515 801 C 512 805 515 808 522 808 C 550 808 607 755 685 666 C 697 651 708 647 724 636 C 729 632 730 625 730 619 C 729 613 723 603 711 591 C 700 580 690 574 681 574 C 672 573 668 578 671 589 Z"/>
    <path id="p16" d="M 737 653 C 738 705 696 772 607 855 C 605 856 603 857 602 859 C 576 882 531 915 468 959 C 463 962 463 966 470 967 C 492 969 545 947 619 896 C 674 857 728 795 790 721 C 796 713 801 707 806 705 C 810 702 813 697 813 691 C 813 685 810 677 803 670 C 781 647 761 637 745 640 C 740 640 736 645 737 653 Z"/>

    <clipPath id="z38240c1"><use href="#p1"/></clipPath>
    <clipPath id="z38240c2"><use href="#p2"/></clipPath>
    <clipPath id="z38240c3"><use href="#p3"/></clipPath>
    <clipPath id="z38240c4"><use href="#p4"/></clipPath>
    <clipPath id="z38240c5"><use href="#p5"/></clipPath>
    <clipPath id="z38240c6"><use href="#p6"/></clipPath>
    <clipPath id="z38240c7"><use href="#p7"/></clipPath>
    <clipPath id="z38240c8"><use href="#p8"/></clipPath>
    <clipPath id="z38240c9"><use href="#p9"/></clipPath>
    <clipPath id="z38240c10"><use href="#p10"/></clipPath>
    <clipPath id="z38240c11"><use href="#p11"/></clipPath>
    <clipPath id="z38240c12"><use href="#p12"/></clipPath>
    <clipPath id="z38240c13"><use href="#p13"/></clipPath>
    <clipPath id="z38240c14"><use href="#p14"/></clipPath>
    <clipPath id="z38240c15"><use href="#p15"/></clipPath>
    <clipPath id="z38240c16"><use href="#p16"/></clipPath>
</defs>
<g id="bg-layer" class="bg">
<use href="#p1"/>
<use href="#p2"/>
<use href="#p3"/>
<use href="#p4"/>
<use href="#p5"/>
<use href="#p6"/>
<use href="#p7"/>
<use href="#p8"/>
<use href="#p9"/>
<use href="#p10"/>
<use href="#p11"/>
<use href="#p12"/>
<use href="#p13"/>
<use href="#p14"/>
<use href="#p15"/>
<use href="#p16"/>
</g>
<g id="anim-layer">
    <path id="stroke-p1" style="stroke:#FF4444" pathLength="3333" clip-path="url(#z38240c1)" d="M 278 92 L 318 155 L 163 403 L 65 507"/>
    <path id="stroke-p2" style="stroke:#FF4444" pathLength="3333" clip-path="url(#z38240c2)" d="M 275 292 L 429 258"/>
    <path id="stroke-p3" style="stroke:#FF4444" pathLength="3333" clip-path="url(#z38240c3)" d="M 193 427 L 415 384"/>
    <path id="stroke-p4" style="stroke:#FF4444" pathLength="3333" clip-path="url(#z38240c4)" d="M 139 577 L 399 528"/>
    <path id="stroke-p5" style="stroke:#FF4444" pathLength="3333" clip-path="url(#z38240c5)" d="M 248 448 L 286 488 L 256 801 L 428 684"/>
    <path id="stroke-p6" style="stroke:#000" pathLength="3333" clip-path="url(#z38240c6)" d="M 454 205 L 566 186 L 616 215 L 573 407"/>
    <path id="stroke-p7" style="stroke:#000" pathLength="3333" clip-path="url(#z38240c7)" d="M 474 254 L 529 299"/>
    <path id="stroke-p8" style="stroke:#000" pathLength="3333" clip-path="url(#z38240c8)" d="M 444 378 L 485 382 L 545 331"/>
    <path id="stroke-p9" style="stroke:#000" pathLength="3333" clip-path="url(#z38240c9)" d="M 665 175 L 812 158 L 842 186 L 776 417"/>
    <path id="stroke-p10" style="stroke:#000" pathLength="3333" clip-path="url(#z38240c10)" d="M 678 227 L 739 262"/>
    <path id="stroke-p11" style="stroke:#000" pathLength="3333" clip-path="url(#z38240c11)" d="M 640 353 L 684 356 L 750 300"/>
    <path id="stroke-p12" style="stroke:#000" pathLength="3333" clip-path="url(#z38240c12)" d="M 669 420 L 632 427 L 543 540 L 402 648"/>
    <path id="stroke-p13" style="stroke:#000" pathLength="3333" clip-path="url(#z38240c13)" d="M 670 455 L 826 580 L 967 597"/>
    <path id="stroke-p14" style="stroke:#000" pathLength="3333" clip-path="url(#z38240c14)" d="M 626 511 L 642 552 L 514 676"/>
    <path id="stroke-p15" style="stroke:#000" pathLength="3333" clip-path="url(#z38240c15)" d="M 680 581 L 696 628 L 525 800"/>
    <path id="stroke-p16" style="stroke:#000" pathLength="3333" clip-path="url(#z38240c16)" d="M 745 650 L 771 697 L 695 795 L 601 885 L 475 962"/>
</g>
</svg>