<svg id="z38248" class="acjk" viewBox="0 0 1024 1024" xmlns="http://www.w3.org/2000/svg">
<style>
<![CDATA[
svg.acjk path[clip-path] {
    animation-duration: 16.1s;
    animation-timing-function: linear;
    animation-iteration-count: infinite;
    stroke-dasharray: 3337;
    stroke-dashoffset: 3339;
    stroke-width: 128;
    stroke-linecap: round;
    fill: none;
    stroke: #FF4444;
}
svg.acjk .bg { fill: #ccc; opacity: 0.5; }

/* Stroke 1: Starts at 0.0%, finishes at 5.0%, holds until 84.5% */
@keyframes zk1 {
    0%, 0.0% { stroke-dashoffset: 3339; }
    5.0%, 84.5% { stroke-dashoffset: 0; }
    84.6%, 100% { stroke-dashoffset: 3339; }
}
svg.acjk #stroke-p1 { animation-name: zk1; }
/* Stroke 2: Starts at 5.0%, finishes at 9.9%, holds until 84.5% */
@keyframes zk2 {
    0%, 5.0% { stroke-dashoffset: 3339; }
    9.9%, 84.5% { stroke-dashoffset: 0; }
    84.6%, 100% { stroke-dashoffset: 3339; }
}
svg.acjk #stroke-p2 { animation-name: zk2; }
/* Stroke 3: Starts at 9.9%, finishes at 14.9%, holds until 84.5% */
@keyframes zk3 {
    0%, 9.9% { stroke-dashoffset: 3339; }
    14.9%, 84.5% { stroke-dashoffset: 0; }
    84.6%, 100% { stroke-dashoffset: 3339; }
}
svg.acjk #stroke-p3 { animation-name: zk3; }
/* Stroke 4: Starts at 14.9%, finishes at 19.9%, holds until 84.5% */
@keyframes zk4 {
    0%, 14.9% { stroke-dashoffset: 3339; }
    19.9%, 84.5% { stroke-dashoffset: 0; }
    84.6%, 100% { stroke-dashoffset: 3339; }
}
svg.acjk #stroke-p4 { animation-name: zk4; }
/* Stroke 5: Starts at 19.9%, finishes at 24.8%, holds until 84.5% */
@keyframes zk5 {
    0%, 19.9% { stroke-dashoffset: 3339; }
    24.8%, 84.5% { stroke-dashoffset: 0; }
    84.6%, 100% { stroke-dashoffset: 3339; }
}
svg.acjk #stroke-p5 { animation-name: zk5; }
/* Stroke 6: Starts at 24.8%, finishes at 29.8%, holds until 84.5% */
@keyframes zk6 {
    0%, 24.8% { stroke-dashoffset: 3339; }
    29.8%, 84.5% { stroke-dashoffset: 0; }
    84.6%, 100% { stroke-dashoffset: 3339; }
}
svg.acjk #stroke-p6 { animation-name: zk6; }
/* Stroke 7: Starts at 29.8%, finishes at 34.8%, holds until 84.5% */
@keyframes zk7 {
    0%, 29.8% { stroke-dashoffset: 3339; }
    34.8%, 84.5% { stroke-dashoffset: 0; }
    84.6%, 100% { stroke-dashoffset: 3339; }
}
svg.acjk #stroke-p7 { animation-name: zk7; }
/* Stroke 8: Starts at 34.8%, finishes at 39.8%, holds until 84.5% */
@keyframes zk8 {
    0%, 34.8% { stroke-dashoffset: 3339; }
    39.8%, 84.5% { stroke-dashoffset: 0; }
    84.6%, 100% { stroke-dashoffset: 3339; }
}
svg.acjk #stroke-p8 { animation-name: zk8; }
/* Stroke 9: Starts at 39.8%, finishes at 44.7%, holds until 84.5% */
@keyframes zk9 {
    0%, 39.8% { stroke-dashoffset: 3339; }
    44.7%, 84.5% { stroke-dashoffset: 0; }
    84.6%, 100% { stroke-dashoffset: 3339; }
}
svg.acjk #stroke-p9 { animation-name: zk9; }
/* Stroke 10: Starts at 44.7%, finishes at 49.7%, holds until 84.5% */
@keyframes zk10 {
    0%, 44.7% { stroke-dashoffset: 3339; }
    49.7%, 84.5% { stroke-dashoffset: 0; }
    84.6%, 100% { stroke-dashoffset: 3339; }
}
svg.acjk #stroke-p10 { animation-name: zk10; }
/* Stroke 11: Starts at 49.7%, finishes at 54.7%, holds until 84.5% */
@keyframes zk11 {
    0%, 49.7% { stroke-dashoffset: 3339; }
    54.7%, 84.5% { stroke-dashoffset: 0; }
    84.6%, 100% { stroke-dashoffset: 3339; }
}
svg.acjk #stroke-p11 { animation-name: zk11; }
/* Stroke 12: Starts at 54.7%, finishes at 59.6%, holds until 84.5% */
@keyframes zk12 {
    0%, 54.7% { stroke-dashoffset: 3339; }
    59.6%, 84.5% { stroke-dashoffset: 0; }
    84.6%, 100% { stroke-dashoffset: 3339; }
}
svg.acjk #stroke-p12 { animation-name: zk12; }
/* Stroke 13: Starts at 59.6%, finishes at 64.6%, holds until 84.5% */
@keyframes zk13 {
    0%, 59.6% { stroke-dashoffset: 3339; }
    64.6%, 84.5% { stroke-dashoffset: 0; }
    84.6%, 100% { stroke-dashoffset: 3339; }
}
svg.acjk #stroke-p13 { animation-name: zk13; }
/* Stroke 14: Starts at 64.6%, finishes at 69.6%, holds until 84.5% */
@keyframes zk14 {
    0%, 64.6% { stroke-dashoffset: 3339; }
    69.6%, 84.5% { stroke-dashoffset: 0; }
    84.6%, 100% { stroke-dashoffset: 3339; }
}
svg.acjk #stroke-p14 { animation-name: zk14; }
/* Stroke 15: Starts at 69.6%, finishes at 74.5%, holds until 84.5% */
@keyframes zk15 {
    0%, 69.6% { stroke-dashoffset: 3339; }
    74.5%, 84.5% { stroke-dashoffset: 0; }
    84.6%, 100% { stroke-dashoffset: 3339; }
}
svg.acjk #stroke-p15 { animation-name: zk15; }
/* Stroke 16: Starts at 74.5%, finishes at 79.5%, holds until 84.5% */
@keyframes zk16 {
    0%, 74.5% { stroke-dashoffset: 3339; }
    79.5%, 84.5% { stroke-dashoffset: 0; }
    84.6%, 100% { stroke-dashoffset: 3339; }
}
svg.acjk #stroke-p16 { animation-name: zk16; }
/* Stroke 17: Starts at 79.5%, finishes at 84.5%, holds until 84.5% */
@keyframes zk17 {
    0%, 79.5% { stroke-dashoffset: 3339; }
    84.5%, 84.5% { stroke-dashoffset: 0; }
    84.6%, 100% { stroke-dashoffset: 3339; }
}
svg.acjk #stroke-p17 { animation-name: zk17; }
]]>
</style>
<defs>
    <path id="p1" d="M 299 258 Q 336 189 366 160 Q 375 150 370 136 Q 366 123 338 100 Q 311 82 293 83 Q 274 84 282 106 Q 297 137 285 165 Q 248 256 191 340 Q 137 421 63 510 Q 53 520 50 526 Q 47 536 61 534 Q 113 525 274 297 Q 277 291 280 288 C 293 268 293 268 299 258 Z"/>
    <path id="p2" d="M 280 288 Q 310 297 379 281 Q 409 274 442 266 Q 461 262 464 258 Q 471 251 467 243 Q 460 233 433 227 Q 414 224 335 250 Q 317 254 299 258 C 287 260 268 286 280 288 Z"/>
    <path id="p3" d="M 288 434 Q 292 431 400 399 Q 422 392 426 387 Q 433 378 428 371 Q 421 361 391 357 Q 361 354 334 369 Q 309 381 281 390 Q 250 400 213 407 Q 179 417 205 430 Q 220 436 244 439 C 259 441 274 439 288 434 Z"/>
    <path id="p4" d="M 317 571 Q 344 561 377 553 Q 408 543 413 538 Q 420 531 416 522 Q 409 512 381 508 Q 365 507 317 522 C 286 535 286 535 270 542 Q 261 543 252 547 Q 209 560 157 569 Q 124 578 150 591 Q 190 610 239 593 Q 254 589 272 584 C 302 575 302 575 317 571 Z"/>
    <path id="p5" d="M 272 584 Q 272 719 239 771 Q 196 813 241 860 C 242 861 242 861 243 861 Q 256 868 267 853 Q 282 825 422 710 Q 440 698 444 690 Q 448 680 438 680 Q 423 681 320 739 Q 310 745 308 735 Q 315 644 317 571 C 317 538 317 538 317 522 Q 317 498 322 480 Q 328 461 288 434 C 276 425 239 425 244 439 Q 244 440 247 445 Q 268 488 270 542 C 271 570 271 570 272 584 Z"/>
    <path id="p6" d="M 542 187 Q 558 205 576 226 Q 588 239 602 239 Q 612 239 617 227 Q 621 214 616 187 Q 610 163 540 143 Q 527 139 520 141 Q 516 145 516 156 Q 519 166 542 187 Z"/>
    <path id="p7" d="M 715 120 Q 706 147 664 219 Q 658 235 673 229 Q 685 219 759 153 Q 774 137 793 123 Q 811 111 798 97 Q 785 84 759 75 Q 735 66 724 71 Q 714 74 719 85 Q 725 101 715 120 Z"/>
    <path id="p8" d="M 714 296 Q 744 289 780 284 Q 823 275 830 270 Q 839 263 834 255 Q 828 245 802 236 Q 778 230 673 260 Q 577 278 517 283 Q 484 287 507 303 Q 529 318 560 319 C 587 317 587 317 600 316 Q 639 309 679 302 C 702 298 702 298 714 296 Z"/>
    <path id="p9" d="M 560 319 Q 567 328 577 435 Q 578 468 582 518 C 582 530 618 525 618 513 Q 618 324 611 324 Q 605 318 600 316 C 589 309 555 307 560 319 Z"/>
    <path id="p10" d="M 719 498 Q 726 416 731 353 Q 734 316 724 304 Q 718 300 714 296 C 706 288 677 290 679 302 Q 688 330 683 504 C 683 516 719 510 719 498 Z"/>
    <path id="p11" d="M 460 402 Q 494 465 518 468 Q 530 471 538 455 Q 541 443 535 424 Q 523 399 468 378 Q 459 375 457 386 Q 456 393 460 402 Z"/>
    <path id="p12" d="M 805 354 Q 786 382 748 424 Q 742 431 747 437 Q 754 438 761 435 Q 834 392 870 376 Q 886 372 883 362 Q 879 349 862 330 Q 846 314 826 310 Q 813 310 813 327 Q 814 340 805 354 Z"/>
    <path id="p13" d="M 582 518 Q 510 525 431 536 Q 412 537 426 553 Q 439 566 455 571 Q 474 575 488 571 Q 641 531 924 531 Q 942 531 947 523 Q 951 513 937 501 Q 886 462 825 479 Q 779 486 719 498 C 695 502 695 502 683 504 Q 674 504 666 506 Q 642 509 618 513 C 594 516 594 516 582 518 Z"/>
    <path id="p14" d="M 558 619 Q 540 606 520 599 Q 513 598 507 605 Q 504 609 510 619 Q 538 700 514 803 Q 505 839 509 854 Q 516 882 527 893 Q 537 905 545 893 Q 554 883 558 862 C 562 841 562 841 564 830 Q 565 817 566 805 Q 566 778 567 753 C 568 735 568 735 568 726 Q 569 665 572 646 C 574 636 566 625 558 619 Z"/>
    <path id="p15" d="M 715 850 Q 742 884 761 916 Q 770 934 781 933 Q 796 932 811 900 Q 827 863 824 819 Q 818 771 810 682 Q 809 654 825 634 Q 834 622 825 613 Q 809 594 760 572 Q 744 565 729 572 Q 681 594 558 619 C 548 621 562 646 572 646 Q 593 646 717 618 Q 736 615 745 622 Q 755 631 757 808 Q 756 812 756 817 Q 752 833 737 829 C 727 827 709 842 715 850 Z"/>
    <path id="p16" d="M 567 753 Q 570 753 575 753 Q 656 741 715 735 Q 737 731 729 719 Q 719 706 695 701 Q 671 697 568 726 C 559 728 558 753 567 753 Z"/>
    <path id="p17" d="M 558 862 Q 565 863 576 861 Q 621 852 715 850 C 725 850 744 836 737 829 Q 730 822 716 812 Q 701 803 672 810 Q 614 823 564 830 C 553 832 547 862 558 862 Z"/>

    <clipPath id="z38248c1"><use href="#p1"/></clipPath>
    <clipPath id="z38248c2"><use href="#p2"/></clipPath>
    <clipPath id="z38248c3"><use href="#p3"/></clipPath>
    <clipPath id="z38248c4"><use href="#p4"/></clipPath>
    <clipPath id="z38248c5"><use href="#p5"/></clipPath>
    <clipPath id="z38248c6"><use href="#p6"/></clipPath>
    <clipPath id="z38248c7"><use href="#p7"/></clipPath>
    <clipPath id="z38248c8"><use href="#p8"/></clipPath>
    <clipPath id="z38248c9"><use href="#p9"/></clipPath>
    <clipPath id="z38248c10"><use href="#p10"/></clipPath>
    <clipPath id="z38248c11"><use href="#p11"/></clipPath>
    <clipPath id="z38248c12"><use href="#p12"/></clipPath>
    <clipPath id="z38248c13"><use href="#p13"/></clipPath>
    <clipPath id="z38248c14"><use href="#p14"/></clipPath>
    <clipPath id="z38248c15"><use href="#p15"/></clipPath>
    <clipPath id="z38248c16"><use href="#p16"/></clipPath>
    <clipPath id="z38248c17"><use href="#p17"/></clipPath>
</defs>
<g id="bg-layer" class="bg">
<use href="#p1"/>
<use href="#p2"/>
<use href="#p3"/>
<use href="#p4"/>
<use href="#p5"/>
<use href="#p6"/>
<use href="#p7"/>
<use href="#p8"/>
<use href="#p9"/>
<use href="#p10"/>
<use href="#p11"/>
<use href="#p12"/>
<use href="#p13"/>
<use href="#p14"/>
<use href="#p15"/>
<use href="#p16"/>
<use href="#p17"/>
</g>
<g id="anim-layer">
    <path id="stroke-p1" style="stroke:#FF4444" pathLength="3333" clip-path="url(#z38248c1)" d="M 287 91 L 328 154 L 182 389 L 54 526"/>
    <path id="stroke-p2" style="stroke:#FF4444" pathLength="3333" clip-path="url(#z38248c2)" d="M 287 284 L 462 248"/>
    <path id="stroke-p3" style="stroke:#FF4444" pathLength="3333" clip-path="url(#z38248c3)" d="M 201 416 L 423 383"/>
    <path id="stroke-p4" style="stroke:#FF4444" pathLength="3333" clip-path="url(#z38248c4)" d="M 146 578 L 413 524"/>
    <path id="stroke-p5" style="stroke:#FF4444" pathLength="3333" clip-path="url(#z38248c5)" d="M 252 441 L 292 481 L 265 805 L 437 687"/>
    <path id="stroke-p6" style="stroke:#000" pathLength="3333" clip-path="url(#z38248c6)" d="M 524 148 L 583 190 L 603 233"/>
    <path id="stroke-p7" style="stroke:#000" pathLength="3333" clip-path="url(#z38248c7)" d="M 725 78 L 758 116 L 669 224"/>
    <path id="stroke-p8" style="stroke:#000" pathLength="3333" clip-path="url(#z38248c8)" d="M 507 293 L 831 258"/>
    <path id="stroke-p9" style="stroke:#000" pathLength="3333" clip-path="url(#z38248c9)" d="M 569 325 L 592 357 L 596 516"/>
    <path id="stroke-p10" style="stroke:#000" pathLength="3333" clip-path="url(#z38248c10)" d="M 686 305 L 708 342 L 692 498"/>
    <path id="stroke-p11" style="stroke:#000" pathLength="3333" clip-path="url(#z38248c11)" d="M 465 384 L 526 463"/>
    <path id="stroke-p12" style="stroke:#000" pathLength="3333" clip-path="url(#z38248c12)" d="M 823 313 L 844 360 L 753 430"/>
    <path id="stroke-p13" style="stroke:#000" pathLength="3333" clip-path="url(#z38248c13)" d="M 429 543 L 847 503 L 943 512"/>
    <path id="stroke-p14" style="stroke:#000" pathLength="3333" clip-path="url(#z38248c14)" d="M 516 607 L 547 677 L 532 891"/>
    <path id="stroke-p15" style="stroke:#000" pathLength="3333" clip-path="url(#z38248c15)" d="M 565 622 L 735 593 L 775 611 L 790 820 L 760 880 L 769 924"/>
    <path id="stroke-p16" style="stroke:#000" pathLength="3333" clip-path="url(#z38248c16)" d="M 577 745 L 723 722"/>
    <path id="stroke-p17" style="stroke:#000" pathLength="3333" clip-path="url(#z38248c17)" d="M 566 854 L 731 832"/>
</g>
</svg>