<svg id="z38261" class="acjk" viewBox="0 0 1024 1024" xmlns="http://www.w3.org/2000/svg">
<style>
<![CDATA[
svg.acjk path[clip-path] {
    animation-duration: 20.1s;
    animation-timing-function: linear;
    animation-iteration-count: infinite;
    stroke-dasharray: 3337;
    stroke-dashoffset: 3339;
    stroke-width: 128;
    stroke-linecap: round;
    fill: none;
    stroke: #FF4444;
}
svg.acjk .bg { fill: #ccc; opacity: 0.5; }

/* Stroke 1: Starts at 0.0%, finishes at 4.0%, holds until 87.6% */
@keyframes zk1 {
    0%, 0.0% { stroke-dashoffset: 3339; }
    4.0%, 87.6% { stroke-dashoffset: 0; }
    87.7%, 100% { stroke-dashoffset: 3339; }
}
svg.acjk #stroke-p1 { animation-name: zk1; }
/* Stroke 2: Starts at 4.0%, finishes at 8.0%, holds until 87.6% */
@keyframes zk2 {
    0%, 4.0% { stroke-dashoffset: 3339; }
    8.0%, 87.6% { stroke-dashoffset: 0; }
    87.7%, 100% { stroke-dashoffset: 3339; }
}
svg.acjk #stroke-p2 { animation-name: zk2; }
/* Stroke 3: Starts at 8.0%, finishes at 11.9%, holds until 87.6% */
@keyframes zk3 {
    0%, 8.0% { stroke-dashoffset: 3339; }
    11.9%, 87.6% { stroke-dashoffset: 0; }
    87.7%, 100% { stroke-dashoffset: 3339; }
}
svg.acjk #stroke-p3 { animation-name: zk3; }
/* Stroke 4: Starts at 11.9%, finishes at 15.9%, holds until 87.6% */
@keyframes zk4 {
    0%, 11.9% { stroke-dashoffset: 3339; }
    15.9%, 87.6% { stroke-dashoffset: 0; }
    87.7%, 100% { stroke-dashoffset: 3339; }
}
svg.acjk #stroke-p4 { animation-name: zk4; }
/* Stroke 5: Starts at 15.9%, finishes at 19.9%, holds until 87.6% */
@keyframes zk5 {
    0%, 15.9% { stroke-dashoffset: 3339; }
    19.9%, 87.6% { stroke-dashoffset: 0; }
    87.7%, 100% { stroke-dashoffset: 3339; }
}
svg.acjk #stroke-p5 { animation-name: zk5; }
/* Stroke 6: Starts at 19.9%, finishes at 23.9%, holds until 87.6% */
@keyframes zk6 {
    0%, 19.9% { stroke-dashoffset: 3339; }
    23.9%, 87.6% { stroke-dashoffset: 0; }
    87.7%, 100% { stroke-dashoffset: 3339; }
}
svg.acjk #stroke-p6 { animation-name: zk6; }
/* Stroke 7: Starts at 23.9%, finishes at 27.9%, holds until 87.6% */
@keyframes zk7 {
    0%, 23.9% { stroke-dashoffset: 3339; }
    27.9%, 87.6% { stroke-dashoffset: 0; }
    87.7%, 100% { stroke-dashoffset: 3339; }
}
svg.acjk #stroke-p7 { animation-name: zk7; }
/* Stroke 8: Starts at 27.9%, finishes at 31.8%, holds until 87.6% */
@keyframes zk8 {
    0%, 27.9% { stroke-dashoffset: 3339; }
    31.8%, 87.6% { stroke-dashoffset: 0; }
    87.7%, 100% { stroke-dashoffset: 3339; }
}
svg.acjk #stroke-p8 { animation-name: zk8; }
/* Stroke 9: Starts at 31.8%, finishes at 35.8%, holds until 87.6% */
@keyframes zk9 {
    0%, 31.8% { stroke-dashoffset: 3339; }
    35.8%, 87.6% { stroke-dashoffset: 0; }
    87.7%, 100% { stroke-dashoffset: 3339; }
}
svg.acjk #stroke-p9 { animation-name: zk9; }
/* Stroke 10: Starts at 35.8%, finishes at 39.8%, holds until 87.6% */
@keyframes zk10 {
    0%, 35.8% { stroke-dashoffset: 3339; }
    39.8%, 87.6% { stroke-dashoffset: 0; }
    87.7%, 100% { stroke-dashoffset: 3339; }
}
svg.acjk #stroke-p10 { animation-name: zk10; }
/* Stroke 11: Starts at 39.8%, finishes at 43.8%, holds until 87.6% */
@keyframes zk11 {
    0%, 39.8% { stroke-dashoffset: 3339; }
    43.8%, 87.6% { stroke-dashoffset: 0; }
    87.7%, 100% { stroke-dashoffset: 3339; }
}
svg.acjk #stroke-p11 { animation-name: zk11; }
/* Stroke 12: Starts at 43.8%, finishes at 47.8%, holds until 87.6% */
@keyframes zk12 {
    0%, 43.8% { stroke-dashoffset: 3339; }
    47.8%, 87.6% { stroke-dashoffset: 0; }
    87.7%, 100% { stroke-dashoffset: 3339; }
}
svg.acjk #stroke-p12 { animation-name: zk12; }
/* Stroke 13: Starts at 47.8%, finishes at 51.7%, holds until 87.6% */
@keyframes zk13 {
    0%, 47.8% { stroke-dashoffset: 3339; }
    51.7%, 87.6% { stroke-dashoffset: 0; }
    87.7%, 100% { stroke-dashoffset: 3339; }
}
svg.acjk #stroke-p13 { animation-name: zk13; }
/* Stroke 14: Starts at 51.7%, finishes at 55.7%, holds until 87.6% */
@keyframes zk14 {
    0%, 51.7% { stroke-dashoffset: 3339; }
    55.7%, 87.6% { stroke-dashoffset: 0; }
    87.7%, 100% { stroke-dashoffset: 3339; }
}
svg.acjk #stroke-p14 { animation-name: zk14; }
/* Stroke 15: Starts at 55.7%, finishes at 59.7%, holds until 87.6% */
@keyframes zk15 {
    0%, 55.7% { stroke-dashoffset: 3339; }
    59.7%, 87.6% { stroke-dashoffset: 0; }
    87.7%, 100% { stroke-dashoffset: 3339; }
}
svg.acjk #stroke-p15 { animation-name: zk15; }
/* Stroke 16: Starts at 59.7%, finishes at 63.7%, holds until 87.6% */
@keyframes zk16 {
    0%, 59.7% { stroke-dashoffset: 3339; }
    63.7%, 87.6% { stroke-dashoffset: 0; }
    87.7%, 100% { stroke-dashoffset: 3339; }
}
svg.acjk #stroke-p16 { animation-name: zk16; }
/* Stroke 17: Starts at 63.7%, finishes at 67.7%, holds until 87.6% */
@keyframes zk17 {
    0%, 63.7% { stroke-dashoffset: 3339; }
    67.7%, 87.6% { stroke-dashoffset: 0; }
    87.7%, 100% { stroke-dashoffset: 3339; }
}
svg.acjk #stroke-p17 { animation-name: zk17; }
/* Stroke 18: Starts at 67.7%, finishes at 71.6%, holds until 87.6% */
@keyframes zk18 {
    0%, 67.7% { stroke-dashoffset: 3339; }
    71.6%, 87.6% { stroke-dashoffset: 0; }
    87.7%, 100% { stroke-dashoffset: 3339; }
}
svg.acjk #stroke-p18 { animation-name: zk18; }
/* Stroke 19: Starts at 71.6%, finishes at 75.6%, holds until 87.6% */
@keyframes zk19 {
    0%, 71.6% { stroke-dashoffset: 3339; }
    75.6%, 87.6% { stroke-dashoffset: 0; }
    87.7%, 100% { stroke-dashoffset: 3339; }
}
svg.acjk #stroke-p19 { animation-name: zk19; }
/* Stroke 20: Starts at 75.6%, finishes at 79.6%, holds until 87.6% */
@keyframes zk20 {
    0%, 75.6% { stroke-dashoffset: 3339; }
    79.6%, 87.6% { stroke-dashoffset: 0; }
    87.7%, 100% { stroke-dashoffset: 3339; }
}
svg.acjk #stroke-p20 { animation-name: zk20; }
/* Stroke 21: Starts at 79.6%, finishes at 83.6%, holds until 87.6% */
@keyframes zk21 {
    0%, 79.6% { stroke-dashoffset: 3339; }
    83.6%, 87.6% { stroke-dashoffset: 0; }
    87.7%, 100% { stroke-dashoffset: 3339; }
}
svg.acjk #stroke-p21 { animation-name: zk21; }
/* Stroke 22: Starts at 83.6%, finishes at 87.6%, holds until 87.6% */
@keyframes zk22 {
    0%, 83.6% { stroke-dashoffset: 3339; }
    87.6%, 87.6% { stroke-dashoffset: 0; }
    87.7%, 100% { stroke-dashoffset: 3339; }
}
svg.acjk #stroke-p22 { animation-name: zk22; }
]]>
</style>
<defs>
    <path id="p1" d="M 355 114 C 355 110 349 102 337 92 C 316 74 297 65 280 66 C 268 66 264 74 270 89 C 276 104 277 130 265 167 C 238 244 175 344 77 469 C 71 475 68 481 67 485 C 64 492 67 494 77 492 C 92 488 121 461 167 410 C 172 405 172 405 174 402 C 240 325 258 289 269 270 C 281 249 281 249 287 238 C 330 161 357 123 357 120 C 356 117 355 115 355 114 Z"/>
    <path id="p2" d="M 269 270 C 299 274 341 268 396 251 C 397 250 396 249 398 249 C 403 244 402 240 400 236 C 395 229 385 224 368 221 C 356 218 307 235 287 238 C 275 240 257 268 269 270 Z"/>
    <path id="p3" d="M 167 410 C 175 420 201 433 233 424 C 259 416 259 416 272 412 C 294 405 318 393 347 385 C 359 381 366 377 368 375 C 372 369 372 364 369 360 C 364 354 357 350 345 349 C 324 346 305 351 286 361 C 251 378 209 391 174 402 C 171 403 165 407 167 410 Z"/>
    <path id="p4" d="M 253 506 C 199 529 160 528 145 532 C 122 537 121 544 139 553 C 160 563 183 566 208 561 C 230 556 238 553 254 549 C 267 545 295 537 295 537 C 306 533 319 530 333 526 C 355 519 367 514 370 512 C 374 507 376 502 373 496 C 371 492 365 488 358 486 C 336 478 315 478 296 487 C 267 500 267 500 253 506 Z"/>
    <path id="p5" d="M 233 424 C 244 448 252 475 253 506 C 254 535 254 535 254 549 C 254 572 244 706 225 733 C 203 762 202 786 229 814 C 236 821 243 820 251 807 C 259 792 296 749 367 684 C 376 675 383 670 385 665 C 387 658 385 656 380 657 C 373 657 344 671 294 702 C 289 704 285 704 286 700 C 288 633 294 579 295 537 C 296 504 296 504 296 487 C 296 471 302 453 301 440 C 299 430 290 421 272 412 C 259 407 228 411 233 424 Z"/>
    <path id="p6" d="M 606 99 C 593 107 582 113 563 132 C 535 160 493 189 463 201 C 449 208 439 210 427 210 C 418 210 416 210 416 208 C 415 204 422 198 441 186 C 511 138 548 94 555 50 C 556 37 557 36 560 35 C 564 32 574 35 583 41 C 591 46 603 57 611 71 C 616 79 614 93 606 99 Z"/>
    <path id="p7" d="M 631 187 C 648 162 665 136 676 116 C 683 105 689 94 689 92 C 689 89 689 89 684 89 C 681 88 664 89 647 91 C 633 93 619 96 606 99 C 597 101 602 73 611 71 C 650 64 688 58 707 51 C 717 47 727 47 733 52 C 749 62 767 77 769 82 C 771 88 769 92 762 96 C 752 102 728 121 715 132 C 696 148 679 162 660 181 C 653 188 625 195 631 187 Z"/>
    <path id="p8" d="M 465 205 C 458 205 456 206 455 210 C 454 214 456 217 468 237 C 478 256 485 274 496 298 C 501 310 508 322 519 335 C 523 340 537 340 534 323 C 531 305 531 305 529 296 C 525 276 520 255 515 235 C 513 225 510 211 500 209 C 488 206 475 205 465 205 Z"/>
    <path id="p9" d="M 740 157 C 732 157 685 174 660 181 C 641 185 641 185 631 187 C 617 191 603 194 570 200 C 508 211 508 211 500 209 C 496 208 515 235 515 235 C 517 234 517 234 518 234 C 519 234 564 224 617 213 C 719 191 722 190 731 195 C 734 197 735 198 735 203 C 735 210 736 224 725 244 C 719 255 719 255 716 260 C 708 273 753 279 761 266 C 768 256 775 245 782 234 C 784 231 791 226 796 223 C 806 216 810 210 809 202 C 809 199 807 195 806 193 C 803 189 780 174 762 164 C 750 157 749 156 740 157 Z"/>
    <path id="p10" d="M 534 323 C 609 308 684 298 728 295 C 754 293 767 292 771 284 C 774 278 770 273 761 266 C 749 257 731 257 716 260 C 665 267 575 287 529 296 C 520 298 525 325 534 323 Z"/>
    <path id="p11" d="M 477 384 C 492 380 529 368 539 365 C 545 364 555 361 561 360 C 570 359 572 359 578 360 C 587 363 598 369 601 373 C 603 376 603 377 602 379 C 600 383 593 385 565 390 C 550 392 527 397 513 399 C 499 402 475 406 475 406 C 468 407 470 385 477 384 Z"/>
    <path id="p12" d="M 419 532 C 412 525 407 507 408 497 C 408 484 430 463 435 454 C 441 440 443 431 443 412 C 443 386 439 363 431 340 C 429 334 427 328 428 327 C 429 324 436 322 442 323 C 448 324 455 329 467 338 C 477 346 478 361 477 384 C 476 399 476 399 475 406 C 474 421 472 432 471 441 C 470 457 470 461 475 461 C 476 461 499 453 526 445 C 552 436 575 428 577 428 C 580 428 582 431 579 435 C 577 438 576 439 544 457 C 515 474 473 497 439 527 C 428 537 424 538 419 532 Z"/>
    <path id="p13" d="M 679 391 C 748 352 770 334 784 320 C 796 309 801 301 803 292 C 805 279 821 284 837 302 C 848 314 855 324 855 330 C 855 337 851 341 836 344 C 812 348 731 386 679 407 C 674 409 674 393 679 391 Z"/>
    <path id="p14" d="M 737 503 C 720 501 703 497 689 489 C 672 481 665 475 658 462 C 651 446 649 437 648 397 C 647 363 647 363 643 351 C 639 338 638 330 641 327 C 647 323 670 331 679 341 C 684 346 684 346 683 354 C 683 359 678 380 679 391 C 679 402 679 402 679 407 C 679 423 682 440 690 446 C 703 458 736 466 765 463 C 787 461 816 453 825 446 C 834 438 844 421 856 390 C 860 381 864 372 865 371 C 869 367 871 372 874 394 C 877 416 879 428 883 441 C 887 456 887 459 880 466 C 873 473 862 480 852 485 C 827 498 772 507 737 503 Z"/>
    <path id="p15" d="M 571 532 C 550 555 517 576 499 583 C 487 588 472 590 472 587 C 472 586 478 580 486 574 C 502 560 522 540 533 526 C 550 505 557 490 557 475 C 557 468 557 467 560 465 C 564 463 571 464 582 470 C 595 476 603 486 603 494 C 603 497 596 505 589 513 C 577 526 577 526 571 532 Z"/>
    <path id="p16" d="M 590 611 C 597 601 632 536 629 533 C 625 527 579 532 571 532 C 561 532 581 512 591 510 C 613 507 656 493 665 498 C 678 506 687 512 694 520 C 702 528 703 532 697 536 C 677 551 640 582 613 606 C 607 611 585 617 590 611 Z"/>
    <path id="p17" d="M 423 621 C 421 621 418 622 417 623 C 413 627 414 631 423 645 C 436 668 449 696 460 728 C 467 750 469 754 477 762 C 484 769 489 772 493 771 C 495 770 499 761 498 753 C 495 738 495 738 494 730 C 490 706 480 671 478 652 C 476 641 470 627 459 625 C 451 623 430 621 423 621 Z"/>
    <path id="p18" d="M 590 611 C 567 614 518 621 500 623 C 469 627 467 627 459 625 C 448 623 468 655 478 652 C 483 650 509 645 538 640 C 538 640 559 636 570 635 C 593 632 593 632 604 631 C 636 626 683 618 705 614 C 717 612 723 613 728 620 C 732 628 725 656 712 690 C 707 703 745 709 752 697 C 762 679 768 667 776 658 C 780 652 787 646 792 643 C 799 638 802 635 804 631 C 808 622 805 613 795 606 C 786 599 766 587 754 580 C 744 575 743 575 734 575 C 726 575 721 575 706 580 C 679 591 634 603 613 606 C 598 609 598 609 590 611 Z"/>
    <path id="p19" d="M 565 720 C 541 724 518 727 494 730 C 486 731 490 754 498 753 C 518 751 537 750 557 747 C 588 743 588 743 604 741 C 631 737 688 728 742 724 C 758 723 765 722 764 716 C 763 711 760 705 752 697 C 742 687 725 688 712 690 C 686 697 647 705 615 712 C 582 717 582 717 565 720 Z"/>
    <path id="p20" d="M 570 635 C 581 659 570 703 565 720 C 560 738 560 738 557 747 C 536 813 492 871 440 911 C 425 923 411 931 388 943 C 362 956 351 962 349 964 C 347 965 347 965 349 967 C 351 969 353 970 363 970 C 383 970 405 964 431 951 C 449 943 476 928 488 918 C 562 852 583 803 604 741 C 611 722 611 722 615 712 C 619 698 628 684 633 676 C 641 665 641 662 627 649 C 619 642 611 637 604 631 C 595 624 566 624 570 635 Z"/>
    <path id="p21" d="M 765 986 C 726 982 697 974 666 957 C 657 952 653 949 649 944 C 635 925 629 891 632 842 C 633 817 633 802 628 784 C 624 766 624 761 627 758 C 629 756 631 756 636 756 C 649 756 673 772 678 784 C 680 791 680 796 675 820 C 665 864 667 894 678 907 C 695 926 740 937 795 935 C 852 933 892 921 904 902 C 912 890 923 857 933 818 C 939 798 941 793 944 793 C 946 793 951 800 952 806 C 953 817 964 858 968 873 C 971 882 976 895 979 901 C 989 922 987 932 973 941 C 963 948 933 963 920 968 C 900 975 865 982 830 985 C 815 987 777 987 765 986 Z"/>
    <path id="p22" d="M 813 851 C 806 848 799 842 790 832 C 785 826 772 812 761 801 C 750 789 740 778 739 776 C 737 772 736 762 738 758 C 740 755 744 755 756 758 C 767 762 798 773 807 779 C 816 783 827 793 830 799 C 834 808 836 832 833 841 C 830 850 822 854 813 851 Z"/>

    <clipPath id="z38261c1"><use href="#p1"/></clipPath>
    <clipPath id="z38261c2"><use href="#p2"/></clipPath>
    <clipPath id="z38261c3"><use href="#p3"/></clipPath>
    <clipPath id="z38261c4"><use href="#p4"/></clipPath>
    <clipPath id="z38261c5"><use href="#p5"/></clipPath>
    <clipPath id="z38261c6"><use href="#p6"/></clipPath>
    <clipPath id="z38261c7"><use href="#p7"/></clipPath>
    <clipPath id="z38261c8"><use href="#p8"/></clipPath>
    <clipPath id="z38261c9"><use href="#p9"/></clipPath>
    <clipPath id="z38261c10"><use href="#p10"/></clipPath>
    <clipPath id="z38261c11"><use href="#p11"/></clipPath>
    <clipPath id="z38261c12"><use href="#p12"/></clipPath>
    <clipPath id="z38261c13"><use href="#p13"/></clipPath>
    <clipPath id="z38261c14"><use href="#p14"/></clipPath>
    <clipPath id="z38261c15"><use href="#p15"/></clipPath>
    <clipPath id="z38261c16"><use href="#p16"/></clipPath>
    <clipPath id="z38261c17"><use href="#p17"/></clipPath>
    <clipPath id="z38261c18"><use href="#p18"/></clipPath>
    <clipPath id="z38261c19"><use href="#p19"/></clipPath>
    <clipPath id="z38261c20"><use href="#p20"/></clipPath>
    <clipPath id="z38261c21"><use href="#p21"/></clipPath>
    <clipPath id="z38261c22"><use href="#p22"/></clipPath>
</defs>
<g id="bg-layer" class="bg">
<use href="#p1"/>
<use href="#p2"/>
<use href="#p3"/>
<use href="#p4"/>
<use href="#p5"/>
<use href="#p6"/>
<use href="#p7"/>
<use href="#p8"/>
<use href="#p9"/>
<use href="#p10"/>
<use href="#p11"/>
<use href="#p12"/>
<use href="#p13"/>
<use href="#p14"/>
<use href="#p15"/>
<use href="#p16"/>
<use href="#p17"/>
<use href="#p18"/>
<use href="#p19"/>
<use href="#p20"/>
<use href="#p21"/>
<use href="#p22"/>
</g>
<g id="anim-layer">
    <path id="stroke-p1" style="stroke:#FF4444" pathLength="3333" clip-path="url(#z38261c1)" d="M 276 76 L 315 121 L 290 180 L 74 487"/>
    <path id="stroke-p2" style="stroke:#FF4444" pathLength="3333" clip-path="url(#z38261c2)" d="M 278 266 L 397 241"/>
    <path id="stroke-p3" style="stroke:#FF4444" pathLength="3333" clip-path="url(#z38261c3)" d="M 172 409 L 365 360"/>
    <path id="stroke-p4" style="stroke:#FF4444" pathLength="3333" clip-path="url(#z38261c4)" d="M 139 544 L 369 499"/>
    <path id="stroke-p5" style="stroke:#FF4444" pathLength="3333" clip-path="url(#z38261c5)" d="M 239 428 L 274 454 L 251 755 L 266 768 L 377 664"/>
    <path id="stroke-p6" style="stroke:#000" pathLength="3333" clip-path="url(#z38261c6)" d="M 563 38 L 581 84 L 481 180 L 423 203"/>
    <path id="stroke-p7" style="stroke:#000" pathLength="3333" clip-path="url(#z38261c7)" d="M 616 75 L 716 65 L 736 84 L 641 181"/>
    <path id="stroke-p8" style="stroke:#000" pathLength="3333" clip-path="url(#z38261c8)" d="M 463 211 L 492 227 L 526 329"/>
    <path id="stroke-p9" style="stroke:#000" pathLength="3333" clip-path="url(#z38261c9)" d="M 511 214 L 594 207 L 741 175 L 776 201 L 726 255"/>
    <path id="stroke-p10" style="stroke:#000" pathLength="3333" clip-path="url(#z38261c10)" d="M 534 300 L 765 281"/>
    <path id="stroke-p11" style="stroke:#000" pathLength="3333" clip-path="url(#z38261c11)" d="M 482 402 L 596 377"/>
    <path id="stroke-p12" style="stroke:#000" pathLength="3333" clip-path="url(#z38261c12)" d="M 436 330 L 457 364 L 455 450 L 434 486 L 442 502 L 573 432"/>
    <path id="stroke-p13" style="stroke:#000" pathLength="3333" clip-path="url(#z38261c13)" d="M 824 329 L 812 292 L 686 394"/>
    <path id="stroke-p14" style="stroke:#000" pathLength="3333" clip-path="url(#z38261c14)" d="M 642 331 L 666 354 L 666 449 L 751 490 L 864 454 L 864 376"/>
    <path id="stroke-p15" style="stroke:#000" pathLength="3333" clip-path="url(#z38261c15)" d="M 562 471 L 580 493 L 543 540 L 479 583"/>
    <path id="stroke-p16" style="stroke:#000" pathLength="3333" clip-path="url(#z38261c16)" d="M 584 526 L 651 512 L 667 531 L 599 604"/>
    <path id="stroke-p17" style="stroke:#000" pathLength="3333" clip-path="url(#z38261c17)" d="M 420 630 L 454 646 L 491 759"/>
    <path id="stroke-p18" style="stroke:#000" pathLength="3333" clip-path="url(#z38261c18)" d="M 473 634 L 507 636 L 725 593 L 770 617 L 721 688"/>
    <path id="stroke-p19" style="stroke:#000" pathLength="3333" clip-path="url(#z38261c19)" d="M 502 735 L 756 714"/>
    <path id="stroke-p20" style="stroke:#000" pathLength="3333" clip-path="url(#z38261c20)" d="M 579 639 L 611 670 L 542 834 L 448 933 L 357 963"/>
    <path id="stroke-p21" style="stroke:#000" pathLength="3333" clip-path="url(#z38261c21)" d="M 631 760 L 655 792 L 654 909 L 704 954 L 862 959 L 932 927 L 945 803"/>
    <path id="stroke-p22" style="stroke:#000" pathLength="3333" clip-path="url(#z38261c22)" d="M 743 760 L 826 844"/>
</g>
</svg>