<svg id="z38423" class="acjk" viewBox="0 0 1024 1024" xmlns="http://www.w3.org/2000/svg">
<style>
<![CDATA[
svg.acjk path[clip-path] {
    animation-duration: 12.9s;
    animation-timing-function: linear;
    animation-iteration-count: infinite;
    stroke-dasharray: 3337;
    stroke-dashoffset: 3339;
    stroke-width: 128;
    stroke-linecap: round;
    fill: none;
    stroke: #FF4444;
}
svg.acjk .bg { fill: #ccc; opacity: 0.5; }

/* Stroke 1: Starts at 0.0%, finishes at 6.2%, holds until 80.6% */
@keyframes zk1 {
    0%, 0.0% { stroke-dashoffset: 3339; }
    6.2%, 80.6% { stroke-dashoffset: 0; }
    80.7%, 100% { stroke-dashoffset: 3339; }
}
svg.acjk #stroke-p1 { animation-name: zk1; }
/* Stroke 2: Starts at 6.2%, finishes at 12.4%, holds until 80.6% */
@keyframes zk2 {
    0%, 6.2% { stroke-dashoffset: 3339; }
    12.4%, 80.6% { stroke-dashoffset: 0; }
    80.7%, 100% { stroke-dashoffset: 3339; }
}
svg.acjk #stroke-p2 { animation-name: zk2; }
/* Stroke 3: Starts at 12.4%, finishes at 18.6%, holds until 80.6% */
@keyframes zk3 {
    0%, 12.4% { stroke-dashoffset: 3339; }
    18.6%, 80.6% { stroke-dashoffset: 0; }
    80.7%, 100% { stroke-dashoffset: 3339; }
}
svg.acjk #stroke-p3 { animation-name: zk3; }
/* Stroke 4: Starts at 18.6%, finishes at 24.8%, holds until 80.6% */
@keyframes zk4 {
    0%, 18.6% { stroke-dashoffset: 3339; }
    24.8%, 80.6% { stroke-dashoffset: 0; }
    80.7%, 100% { stroke-dashoffset: 3339; }
}
svg.acjk #stroke-p4 { animation-name: zk4; }
/* Stroke 5: Starts at 24.8%, finishes at 31.0%, holds until 80.6% */
@keyframes zk5 {
    0%, 24.8% { stroke-dashoffset: 3339; }
    31.0%, 80.6% { stroke-dashoffset: 0; }
    80.7%, 100% { stroke-dashoffset: 3339; }
}
svg.acjk #stroke-p5 { animation-name: zk5; }
/* Stroke 6: Starts at 31.0%, finishes at 37.2%, holds until 80.6% */
@keyframes zk6 {
    0%, 31.0% { stroke-dashoffset: 3339; }
    37.2%, 80.6% { stroke-dashoffset: 0; }
    80.7%, 100% { stroke-dashoffset: 3339; }
}
svg.acjk #stroke-p6 { animation-name: zk6; }
/* Stroke 7: Starts at 37.2%, finishes at 43.4%, holds until 80.6% */
@keyframes zk7 {
    0%, 37.2% { stroke-dashoffset: 3339; }
    43.4%, 80.6% { stroke-dashoffset: 0; }
    80.7%, 100% { stroke-dashoffset: 3339; }
}
svg.acjk #stroke-p7 { animation-name: zk7; }
/* Stroke 8: Starts at 43.4%, finishes at 49.6%, holds until 80.6% */
@keyframes zk8 {
    0%, 43.4% { stroke-dashoffset: 3339; }
    49.6%, 80.6% { stroke-dashoffset: 0; }
    80.7%, 100% { stroke-dashoffset: 3339; }
}
svg.acjk #stroke-p8 { animation-name: zk8; }
/* Stroke 9: Starts at 49.6%, finishes at 55.8%, holds until 80.6% */
@keyframes zk9 {
    0%, 49.6% { stroke-dashoffset: 3339; }
    55.8%, 80.6% { stroke-dashoffset: 0; }
    80.7%, 100% { stroke-dashoffset: 3339; }
}
svg.acjk #stroke-p9 { animation-name: zk9; }
/* Stroke 10: Starts at 55.8%, finishes at 62.0%, holds until 80.6% */
@keyframes zk10 {
    0%, 55.8% { stroke-dashoffset: 3339; }
    62.0%, 80.6% { stroke-dashoffset: 0; }
    80.7%, 100% { stroke-dashoffset: 3339; }
}
svg.acjk #stroke-p10 { animation-name: zk10; }
/* Stroke 11: Starts at 62.0%, finishes at 68.2%, holds until 80.6% */
@keyframes zk11 {
    0%, 62.0% { stroke-dashoffset: 3339; }
    68.2%, 80.6% { stroke-dashoffset: 0; }
    80.7%, 100% { stroke-dashoffset: 3339; }
}
svg.acjk #stroke-p11 { animation-name: zk11; }
/* Stroke 12: Starts at 68.2%, finishes at 74.4%, holds until 80.6% */
@keyframes zk12 {
    0%, 68.2% { stroke-dashoffset: 3339; }
    74.4%, 80.6% { stroke-dashoffset: 0; }
    80.7%, 100% { stroke-dashoffset: 3339; }
}
svg.acjk #stroke-p12 { animation-name: zk12; }
/* Stroke 13: Starts at 74.4%, finishes at 80.6%, holds until 80.6% */
@keyframes zk13 {
    0%, 74.4% { stroke-dashoffset: 3339; }
    80.6%, 80.6% { stroke-dashoffset: 0; }
    80.7%, 100% { stroke-dashoffset: 3339; }
}
svg.acjk #stroke-p13 { animation-name: zk13; }
]]>
</style>
<defs>
    <path id="p1" d="M 306 134 Q 373 209 398 208 Q 414 209 420 188 Q 421 172 410 150 Q 397 131 371 123 Q 328 105 310 103 Q 300 102 299 115 Q 298 125 306 134 Z"/>
    <path id="p2" d="M 180 216 Q 207 288 206 357 Q 210 645 162 786 Q 144 843 177 885 C 178 886 178 886 179 887 Q 192 902 202 887 Q 239 847 241 676 Q 241 385 257 268 Q 258 258 260 251 Q 263 232 246 221 Q 221 200 193 192 Q 183 189 176 198 Q 172 205 180 216 Z"/>
    <path id="p3" d="M 508 146 Q 492 145 495 156 Q 502 168 524 180 Q 537 189 561 185 Q 738 137 758 173 Q 789 222 784 629 Q 783 701 779 776 Q 779 818 763 828 Q 753 838 690 830 Q 672 827 674 837 Q 675 844 689 851 Q 746 894 775 927 Q 797 946 811 944 Q 824 940 835 911 Q 851 863 849 794 Q 828 400 830 253 Q 831 213 844 189 Q 857 167 846 154 Q 836 138 788 113 Q 770 103 705 118 Q 579 140 508 146 Z"/>
    <path id="p4" d="M 509 345 Q 557 335 611 327 Q 656 318 662 312 Q 669 305 666 298 Q 660 288 636 281 Q 611 275 584 284 Q 551 294 517 303 C 486 310 486 310 471 314 Q 413 324 349 329 Q 318 333 339 348 Q 369 364 443 356 Q 455 353 468 352 C 495 347 495 347 509 345 Z"/>
    <path id="p5" d="M 496 408 Q 502 375 509 345 C 514 317 514 317 517 303 Q 517 302 518 300 Q 522 285 525 276 Q 529 269 531 262 Q 535 255 522 242 Q 498 226 481 222 Q 471 218 464 223 Q 458 227 463 240 Q 473 256 471 314 C 469 339 469 339 468 352 Q 465 382 462 417 C 462 429 494 419 496 408 Z"/>
    <path id="p6" d="M 411 422 Q 402 415 393 410 Q 383 407 376 411 Q 369 415 371 423 Q 383 450 387 534 Q 387 585 390 677 C 390 689 427 685 427 673 Q 427 655 427 639 C 428 626 428 626 428 619 Q 428 597 429 575 C 430 562 430 562 430 556 Q 430 534 431 515 C 431 500 431 500 431 493 Q 432 471 435 448 C 437 436 420 429 411 422 Z"/>
    <path id="p7" d="M 607 649 Q 613 469 632 447 Q 642 435 632 421 Q 623 412 584 389 Q 571 380 553 389 Q 529 398 496 408 C 473 414 473 414 462 417 Q 437 420 411 422 C 399 422 423 448 435 448 Q 444 448 455 445 Q 558 420 564 427 Q 570 434 563 656 C 563 671 607 664 607 649 Z"/>
    <path id="p8" d="M 431 515 Q 434 515 438 515 Q 493 505 534 499 Q 552 495 545 486 Q 536 476 517 472 Q 483 469 431 493 C 424 496 424 515 431 515 Z"/>
    <path id="p9" d="M 530 563 Q 548 559 541 550 Q 532 538 513 535 Q 483 532 430 556 C 424 558 423 576 429 575 C 496 567 496 567 530 563 Z"/>
    <path id="p10" d="M 427 639 Q 428 640 438 639 Q 496 629 538 623 Q 556 619 549 610 Q 540 600 521 596 Q 494 593 428 619 C 422 621 420 639 427 639 Z"/>
    <path id="p11" d="M 390 677 Q 335 681 279 689 Q 261 690 274 706 Q 286 718 301 723 Q 319 727 333 724 Q 471 688 685 696 Q 701 696 716 697 Q 734 697 738 690 Q 742 680 729 668 Q 678 628 613 648 Q 610 648 607 649 C 578 654 578 654 563 656 Q 526 660 485 666 Q 457 669 427 673 C 402 676 402 676 390 677 Z"/>
    <path id="p12" d="M 402 752 Q 396 792 296 878 Q 278 890 301 888 Q 364 878 458 784 Q 459 783 461 782 Q 471 772 468 764 Q 467 754 445 746 Q 421 737 411 739 Q 404 740 402 752 Z"/>
    <path id="p13" d="M 534 764 Q 571 795 616 843 Q 629 858 640 861 Q 647 862 653 854 Q 662 844 651 810 Q 639 773 535 740 Q 528 736 526 746 Q 526 756 534 764 Z"/>

    <clipPath id="z38423c1"><use href="#p1"/></clipPath>
    <clipPath id="z38423c2"><use href="#p2"/></clipPath>
    <clipPath id="z38423c3"><use href="#p3"/></clipPath>
    <clipPath id="z38423c4"><use href="#p4"/></clipPath>
    <clipPath id="z38423c5"><use href="#p5"/></clipPath>
    <clipPath id="z38423c6"><use href="#p6"/></clipPath>
    <clipPath id="z38423c7"><use href="#p7"/></clipPath>
    <clipPath id="z38423c8"><use href="#p8"/></clipPath>
    <clipPath id="z38423c9"><use href="#p9"/></clipPath>
    <clipPath id="z38423c10"><use href="#p10"/></clipPath>
    <clipPath id="z38423c11"><use href="#p11"/></clipPath>
    <clipPath id="z38423c12"><use href="#p12"/></clipPath>
    <clipPath id="z38423c13"><use href="#p13"/></clipPath>
</defs>
<g id="bg-layer" class="bg">
<use href="#p1"/>
<use href="#p2"/>
<use href="#p3"/>
<use href="#p4"/>
<use href="#p5"/>
<use href="#p6"/>
<use href="#p7"/>
<use href="#p8"/>
<use href="#p9"/>
<use href="#p10"/>
<use href="#p11"/>
<use href="#p12"/>
<use href="#p13"/>
</g>
<g id="anim-layer">
    <path id="stroke-p1" style="stroke:#FF4444" pathLength="3333" clip-path="url(#z38423c1)" d="M 306 114 L 409 201"/>
    <path id="stroke-p2" style="stroke:#FF4444" pathLength="3333" clip-path="url(#z38423c2)" d="M 182 199 L 220 236 L 228 286 L 186 888"/>
    <path id="stroke-p3" style="stroke:#FF4444" pathLength="3333" clip-path="url(#z38423c3)" d="M 503 154 L 751 135 L 807 177 L 809 838 L 781 894 L 679 837"/>
    <path id="stroke-p4" style="stroke:#000" pathLength="3333" clip-path="url(#z38423c4)" d="M 342 340 L 662 297"/>
    <path id="stroke-p5" style="stroke:#000" pathLength="3333" clip-path="url(#z38423c5)" d="M 469 227 L 501 267 L 476 412"/>
    <path id="stroke-p6" style="stroke:#000" pathLength="3333" clip-path="url(#z38423c6)" d="M 378 416 L 408 462 L 401 673"/>
    <path id="stroke-p7" style="stroke:#000" pathLength="3333" clip-path="url(#z38423c7)" d="M 419 423 L 561 405 L 593 422 L 574 651"/>
    <path id="stroke-p8" style="stroke:#000" pathLength="3333" clip-path="url(#z38423c8)" d="M 437 507 L 539 488"/>
    <path id="stroke-p9" style="stroke:#000" pathLength="3333" clip-path="url(#z38423c9)" d="M 435 568 L 538 553"/>
    <path id="stroke-p10" style="stroke:#000" pathLength="3333" clip-path="url(#z38423c10)" d="M 433 632 L 543 610"/>
    <path id="stroke-p11" style="stroke:#000" pathLength="3333" clip-path="url(#z38423c11)" d="M 276 696 L 636 668 L 734 685"/>
    <path id="stroke-p12" style="stroke:#000" pathLength="3333" clip-path="url(#z38423c12)" d="M 462 765 L 418 775 L 299 884"/>
    <path id="stroke-p13" style="stroke:#000" pathLength="3333" clip-path="url(#z38423c13)" d="M 533 745 L 614 803 L 644 855"/>
</g>
</svg>