<svg id="z38430" class="acjk" viewBox="0 0 1024 1024" xmlns="http://www.w3.org/2000/svg">
<style>
<![CDATA[
svg.acjk path[clip-path] {
    animation-duration: 5.7s;
    animation-timing-function: linear;
    animation-iteration-count: infinite;
    stroke-dasharray: 3337;
    stroke-dashoffset: 3339;
    stroke-width: 128;
    stroke-linecap: round;
    fill: none;
    stroke: #FF4444;
}
svg.acjk .bg { fill: #ccc; opacity: 0.5; }

/* Stroke 1: Starts at 0.0%, finishes at 14.0%, holds until 56.1% */
@keyframes zk1 {
    0%, 0.0% { stroke-dashoffset: 3339; }
    14.0%, 56.1% { stroke-dashoffset: 0; }
    56.2%, 100% { stroke-dashoffset: 3339; }
}
svg.acjk #stroke-p1 { animation-name: zk1; }
/* Stroke 2: Starts at 14.0%, finishes at 28.1%, holds until 56.1% */
@keyframes zk2 {
    0%, 14.0% { stroke-dashoffset: 3339; }
    28.1%, 56.1% { stroke-dashoffset: 0; }
    56.2%, 100% { stroke-dashoffset: 3339; }
}
svg.acjk #stroke-p2 { animation-name: zk2; }
/* Stroke 3: Starts at 28.1%, finishes at 42.1%, holds until 56.1% */
@keyframes zk3 {
    0%, 28.1% { stroke-dashoffset: 3339; }
    42.1%, 56.1% { stroke-dashoffset: 0; }
    56.2%, 100% { stroke-dashoffset: 3339; }
}
svg.acjk #stroke-p3 { animation-name: zk3; }
/* Stroke 4: Starts at 42.1%, finishes at 56.1%, holds until 56.1% */
@keyframes zk4 {
    0%, 42.1% { stroke-dashoffset: 3339; }
    56.1%, 56.1% { stroke-dashoffset: 0; }
    56.2%, 100% { stroke-dashoffset: 3339; }
}
svg.acjk #stroke-p4 { animation-name: zk4; }
]]>
</style>
<defs>
    <path id="p1" d="M 237 237 Q 280 227 325 205 Q 347 193 359 206 Q 366 213 352 234 Q 327 277 305 321 Q 289 348 304 371 Q 373 479 355 503 Q 348 509 332 502 Q 313 493 289 487 Q 264 480 289 502 Q 335 542 375 588 Q 391 601 406 587 Q 422 575 430 547 Q 443 492 378 404 Q 330 349 338 331 Q 341 307 406 243 Q 427 219 442 210 Q 464 197 454 182 Q 441 160 399 138 Q 377 128 361 140 Q 301 188 218 206 C 206 208 225 239 237 237 Z"/>
    <path id="p2" d="M 218 206 Q 212 196 182 185 Q 170 179 157 184 Q 150 190 156 204 Q 183 304 184 308 Q 199 491 178 707 Q 172 762 155 828 Q 139 888 179 942 Q 192 957 204 943 Q 225 913 224 778 Q 231 288 235 256 Q 236 244 237 237 C 239 225 225 216 218 206 Z"/>
    <path id="p3" d="M 674 436 Q 731 420 787 412 Q 805 411 809 419 Q 818 435 814 482 Q 804 650 773 740 Q 757 795 739 813 Q 726 829 695 821 Q 661 814 629 806 Q 604 800 623 823 Q 672 872 700 912 Q 710 934 732 927 Q 790 915 831 794 Q 861 710 876 529 Q 880 465 905 426 Q 924 401 913 391 Q 895 370 855 354 Q 827 341 797 354 Q 748 375 682 394 C 643 404 643 404 624 409 Q 620 409 616 410 Q 522 431 466 432 Q 444 431 444 443 Q 443 453 468 468 Q 498 487 525 477 Q 571 462 615 450 C 654 441 654 441 674 436 Z"/>
    <path id="p4" d="M 615 450 Q 560 676 452 809 Q 425 840 385 878 Q 372 885 369 890 Q 365 897 382 896 Q 433 896 536 775 Q 549 757 562 737 Q 632 623 674 436 C 679 408 679 408 682 394 Q 700 277 728 217 Q 735 205 727 196 Q 711 177 675 157 Q 653 144 635 148 Q 613 154 628 174 Q 653 208 650 240 Q 640 333 624 409 C 618 436 618 436 615 450 Z"/>

    <clipPath id="z38430c1"><use href="#p1"/></clipPath>
    <clipPath id="z38430c2"><use href="#p2"/></clipPath>
    <clipPath id="z38430c3"><use href="#p3"/></clipPath>
    <clipPath id="z38430c4"><use href="#p4"/></clipPath>
</defs>
<g id="bg-layer" class="bg">
<use href="#p1"/>
<use href="#p2"/>
<use href="#p3"/>
<use href="#p4"/>
</g>
<g id="anim-layer">
    <path id="stroke-p1" style="stroke:#FF4444" pathLength="3333" clip-path="url(#z38430c1)" d="M 221 211 L 367 168 L 408 200 L 317 342 L 389 477 L 388 535 L 367 547 L 286 491"/>
    <path id="stroke-p2" style="stroke:#FF4444" pathLength="3333" clip-path="url(#z38430c2)" d="M 161 188 L 202 238 L 209 324 L 192 945"/>
    <path id="stroke-p3" style="stroke:#000" pathLength="3333" clip-path="url(#z38430c3)" d="M 450 443 L 518 453 L 799 381 L 866 417 L 818 708 L 778 826 L 718 875 L 622 812"/>
    <path id="stroke-p4" style="stroke:#000" pathLength="3333" clip-path="url(#z38430c4)" d="M 628 157 L 690 215 L 603 587 L 498 785 L 373 890"/>
</g>
</svg>