<svg id="z38446" class="acjk" viewBox="0 0 1024 1024" xmlns="http://www.w3.org/2000/svg">
<style>
<![CDATA[
svg.acjk path[clip-path] {
    animation-duration: 7.300000000000001s;
    animation-timing-function: linear;
    animation-iteration-count: infinite;
    stroke-dasharray: 3337;
    stroke-dashoffset: 3339;
    stroke-width: 128;
    stroke-linecap: round;
    fill: none;
    stroke: #FF4444;
}
svg.acjk .bg { fill: #ccc; opacity: 0.5; }

/* Stroke 1: Starts at 0.0%, finishes at 11.0%, holds until 65.8% */
@keyframes zk1 {
    0%, 0.0% { stroke-dashoffset: 3339; }
    11.0%, 65.8% { stroke-dashoffset: 0; }
    65.9%, 100% { stroke-dashoffset: 3339; }
}
svg.acjk #stroke-p1 { animation-name: zk1; }
/* Stroke 2: Starts at 11.0%, finishes at 21.9%, holds until 65.8% */
@keyframes zk2 {
    0%, 11.0% { stroke-dashoffset: 3339; }
    21.9%, 65.8% { stroke-dashoffset: 0; }
    65.9%, 100% { stroke-dashoffset: 3339; }
}
svg.acjk #stroke-p2 { animation-name: zk2; }
/* Stroke 3: Starts at 21.9%, finishes at 32.9%, holds until 65.8% */
@keyframes zk3 {
    0%, 21.9% { stroke-dashoffset: 3339; }
    32.9%, 65.8% { stroke-dashoffset: 0; }
    65.9%, 100% { stroke-dashoffset: 3339; }
}
svg.acjk #stroke-p3 { animation-name: zk3; }
/* Stroke 4: Starts at 32.9%, finishes at 43.8%, holds until 65.8% */
@keyframes zk4 {
    0%, 32.9% { stroke-dashoffset: 3339; }
    43.8%, 65.8% { stroke-dashoffset: 0; }
    65.9%, 100% { stroke-dashoffset: 3339; }
}
svg.acjk #stroke-p4 { animation-name: zk4; }
/* Stroke 5: Starts at 43.8%, finishes at 54.8%, holds until 65.8% */
@keyframes zk5 {
    0%, 43.8% { stroke-dashoffset: 3339; }
    54.8%, 65.8% { stroke-dashoffset: 0; }
    65.9%, 100% { stroke-dashoffset: 3339; }
}
svg.acjk #stroke-p5 { animation-name: zk5; }
/* Stroke 6: Starts at 54.8%, finishes at 65.8%, holds until 65.8% */
@keyframes zk6 {
    0%, 54.8% { stroke-dashoffset: 3339; }
    65.8%, 65.8% { stroke-dashoffset: 0; }
    65.9%, 100% { stroke-dashoffset: 3339; }
}
svg.acjk #stroke-p6 { animation-name: zk6; }
]]>
</style>
<defs>
    <path id="p1" d="M 238 238 Q 275 229 312 214 Q 330 204 341 215 Q 347 221 336 240 Q 317 280 300 319 Q 285 344 300 365 Q 352 458 337 476 Q 333 483 313 481 Q 291 477 265 477 Q 240 476 267 491 Q 313 522 353 557 Q 366 570 381 558 Q 396 549 403 524 Q 421 464 352 379 Q 312 339 347 304 Q 396 234 422 218 Q 444 205 433 191 Q 420 172 380 150 Q 358 140 342 153 Q 288 192 220 208 C 208 210 227 240 238 238 Z"/>
    <path id="p2" d="M 220 208 Q 198 187 169 180 Q 159 179 152 188 Q 148 194 157 205 Q 185 274 186 341 Q 198 609 158 748 Q 146 781 152 809 Q 162 845 175 859 Q 188 874 198 859 Q 229 819 231 675 Q 225 332 238 238 C 240 227 229 215 220 208 Z"/>
    <path id="p3" d="M 496 237 Q 456 247 487 264 Q 535 288 597 268 Q 663 252 730 234 Q 761 224 765 220 Q 775 210 769 201 Q 759 188 726 182 Q 692 178 659 194 Q 625 207 587 219 Q 545 229 496 237 Z"/>
    <path id="p4" d="M 628 437 Q 670 427 859 408 Q 878 407 883 398 Q 887 386 870 374 Q 810 341 756 361 Q 630 395 426 442 Q 407 446 422 461 Q 458 486 491 474 Q 537 456 590 446 C 615 440 615 440 628 437 Z"/>
    <path id="p5" d="M 474 517 Q 489 661 291 836 Q 284 843 290 845 Q 297 848 307 843 Q 448 782 518 611 Q 524 587 546 550 Q 553 541 547 532 Q 541 523 513 508 Q 494 498 484 500 Q 472 504 474 517 Z"/>
    <path id="p6" d="M 983 794 Q 964 745 951 663 Q 950 647 941 642 Q 934 638 930 658 Q 918 761 903 779 Q 878 807 768 808 Q 708 807 683 796 Q 661 784 656 769 Q 644 736 646 650 Q 653 554 671 510 Q 684 480 666 463 Q 644 445 628 437 C 616 432 585 434 590 446 Q 590 447 592 451 Q 611 488 606 544 Q 597 734 608 772 Q 615 805 639 823 Q 684 862 857 859 Q 935 858 966 842 Q 997 826 983 794 Z"/>

    <clipPath id="z38446c1"><use href="#p1"/></clipPath>
    <clipPath id="z38446c2"><use href="#p2"/></clipPath>
    <clipPath id="z38446c3"><use href="#p3"/></clipPath>
    <clipPath id="z38446c4"><use href="#p4"/></clipPath>
    <clipPath id="z38446c5"><use href="#p5"/></clipPath>
    <clipPath id="z38446c6"><use href="#p6"/></clipPath>
</defs>
<g id="bg-layer" class="bg">
<use href="#p1"/>
<use href="#p2"/>
<use href="#p3"/>
<use href="#p4"/>
<use href="#p5"/>
<use href="#p6"/>
</g>
<g id="anim-layer">
    <path id="stroke-p1" style="stroke:#FF4444" pathLength="3333" clip-path="url(#z38446c1)" d="M 228 211 L 352 181 L 389 208 L 312 334 L 370 461 L 365 508 L 350 522 L 265 482"/>
    <path id="stroke-p2" style="stroke:#FF4444" pathLength="3333" clip-path="url(#z38446c2)" d="M 158 189 L 206 249 L 185 861"/>
    <path id="stroke-p3" style="stroke:#000" pathLength="3333" clip-path="url(#z38446c3)" d="M 484 252 L 766 213"/>
    <path id="stroke-p4" style="stroke:#000" pathLength="3333" clip-path="url(#z38446c4)" d="M 422 451 L 785 384 L 879 388"/>
    <path id="stroke-p5" style="stroke:#000" pathLength="3333" clip-path="url(#z38446c5)" d="M 483 505 L 512 544 L 453 686 L 296 838"/>
    <path id="stroke-p6" style="stroke:#000" pathLength="3333" clip-path="url(#z38446c6)" d="M 599 451 L 640 484 L 625 734 L 663 811 L 807 833 L 941 804 L 937 648"/>
</g>
</svg>