<svg id="z38506" class="acjk" viewBox="0 0 1024 1024" xmlns="http://www.w3.org/2000/svg">
<style>
<![CDATA[
svg.acjk path[clip-path] {
    animation-duration: 10.5s;
    animation-timing-function: linear;
    animation-iteration-count: infinite;
    stroke-dasharray: 3337;
    stroke-dashoffset: 3339;
    stroke-width: 128;
    stroke-linecap: round;
    fill: none;
    stroke: #FF4444;
}
svg.acjk .bg { fill: #ccc; opacity: 0.5; }

/* Stroke 1: Starts at 0.0%, finishes at 7.6%, holds until 76.2% */
@keyframes zk1 {
    0%, 0.0% { stroke-dashoffset: 3339; }
    7.6%, 76.2% { stroke-dashoffset: 0; }
    76.3%, 100% { stroke-dashoffset: 3339; }
}
svg.acjk #stroke-p1 { animation-name: zk1; }
/* Stroke 2: Starts at 7.6%, finishes at 15.2%, holds until 76.2% */
@keyframes zk2 {
    0%, 7.6% { stroke-dashoffset: 3339; }
    15.2%, 76.2% { stroke-dashoffset: 0; }
    76.3%, 100% { stroke-dashoffset: 3339; }
}
svg.acjk #stroke-p2 { animation-name: zk2; }
/* Stroke 3: Starts at 15.2%, finishes at 22.9%, holds until 76.2% */
@keyframes zk3 {
    0%, 15.2% { stroke-dashoffset: 3339; }
    22.9%, 76.2% { stroke-dashoffset: 0; }
    76.3%, 100% { stroke-dashoffset: 3339; }
}
svg.acjk #stroke-p3 { animation-name: zk3; }
/* Stroke 4: Starts at 22.9%, finishes at 30.5%, holds until 76.2% */
@keyframes zk4 {
    0%, 22.9% { stroke-dashoffset: 3339; }
    30.5%, 76.2% { stroke-dashoffset: 0; }
    76.3%, 100% { stroke-dashoffset: 3339; }
}
svg.acjk #stroke-p4 { animation-name: zk4; }
/* Stroke 5: Starts at 30.5%, finishes at 38.1%, holds until 76.2% */
@keyframes zk5 {
    0%, 30.5% { stroke-dashoffset: 3339; }
    38.1%, 76.2% { stroke-dashoffset: 0; }
    76.3%, 100% { stroke-dashoffset: 3339; }
}
svg.acjk #stroke-p5 { animation-name: zk5; }
/* Stroke 6: Starts at 38.1%, finishes at 45.7%, holds until 76.2% */
@keyframes zk6 {
    0%, 38.1% { stroke-dashoffset: 3339; }
    45.7%, 76.2% { stroke-dashoffset: 0; }
    76.3%, 100% { stroke-dashoffset: 3339; }
}
svg.acjk #stroke-p6 { animation-name: zk6; }
/* Stroke 7: Starts at 45.7%, finishes at 53.3%, holds until 76.2% */
@keyframes zk7 {
    0%, 45.7% { stroke-dashoffset: 3339; }
    53.3%, 76.2% { stroke-dashoffset: 0; }
    76.3%, 100% { stroke-dashoffset: 3339; }
}
svg.acjk #stroke-p7 { animation-name: zk7; }
/* Stroke 8: Starts at 53.3%, finishes at 61.0%, holds until 76.2% */
@keyframes zk8 {
    0%, 53.3% { stroke-dashoffset: 3339; }
    61.0%, 76.2% { stroke-dashoffset: 0; }
    76.3%, 100% { stroke-dashoffset: 3339; }
}
svg.acjk #stroke-p8 { animation-name: zk8; }
/* Stroke 9: Starts at 61.0%, finishes at 68.6%, holds until 76.2% */
@keyframes zk9 {
    0%, 61.0% { stroke-dashoffset: 3339; }
    68.6%, 76.2% { stroke-dashoffset: 0; }
    76.3%, 100% { stroke-dashoffset: 3339; }
}
svg.acjk #stroke-p9 { animation-name: zk9; }
/* Stroke 10: Starts at 68.6%, finishes at 76.2%, holds until 76.2% */
@keyframes zk10 {
    0%, 68.6% { stroke-dashoffset: 3339; }
    76.2%, 76.2% { stroke-dashoffset: 0; }
    76.3%, 100% { stroke-dashoffset: 3339; }
}
svg.acjk #stroke-p10 { animation-name: zk10; }
]]>
</style>
<defs>
    <path id="p1" d="M 218 240 Q 255 233 295 215 Q 311 205 321 215 Q 327 221 318 238 Q 300 274 285 309 Q 272 333 286 351 Q 334 426 322 444 Q 316 454 295 451 Q 268 447 239 449 Q 217 448 243 461 Q 292 486 340 517 Q 353 527 364 517 Q 377 508 382 486 Q 395 435 333 361 Q 296 324 340 279 Q 374 231 395 218 Q 414 206 405 193 Q 392 175 357 156 Q 338 149 323 159 Q 269 201 201 211 C 190 213 207 242 218 240 Z"/>
    <path id="p2" d="M 201 211 Q 177 192 149 184 Q 139 183 132 192 Q 128 198 137 209 Q 200 356 160 678 Q 151 729 135 783 Q 128 811 132 833 Q 142 870 155 883 Q 168 898 178 883 Q 208 841 210 646 Q 210 301 218 240 C 220 229 210 218 201 211 Z"/>
    <path id="p3" d="M 593 132 Q 620 154 649 182 Q 664 195 680 194 Q 692 194 697 179 Q 701 164 691 133 Q 685 114 653 99 Q 578 74 564 81 Q 558 85 561 99 Q 565 109 593 132 Z"/>
    <path id="p4" d="M 724 288 Q 743 282 766 279 Q 815 267 823 261 Q 832 254 827 244 Q 820 232 790 224 Q 763 218 644 256 Q 494 283 466 286 Q 429 292 455 310 Q 498 334 555 321 Q 619 308 687 295 C 712 290 712 290 724 288 Z"/>
    <path id="p5" d="M 467 391 Q 506 467 529 475 Q 542 479 551 463 Q 555 451 551 430 Q 544 411 523 398 Q 492 373 476 367 Q 469 363 465 374 Q 461 381 467 391 Z"/>
    <path id="p6" d="M 671 504 Q 755 351 760 345 Q 773 332 765 322 Q 755 306 724 288 C 713 282 679 285 687 295 Q 699 307 691 346 Q 678 404 643 488 Q 639 498 637 509 C 635 520 666 514 671 504 Z"/>
    <path id="p7" d="M 637 509 Q 504 527 344 550 Q 323 553 339 569 Q 352 582 370 587 Q 391 591 406 588 Q 607 527 945 527 C 947 527 947 527 948 527 Q 967 527 971 518 Q 977 508 960 494 Q 909 457 873 465 Q 797 481 671 504 C 648 507 648 507 637 509 Z"/>
    <path id="p8" d="M 479 656 Q 467 652 442 647 Q 429 643 425 648 Q 418 655 427 673 Q 455 733 471 830 Q 474 860 490 879 Q 509 904 516 886 Q 520 874 521 854 C 518 832 518 832 517 821 Q 502 712 502 686 C 502 673 491 658 479 656 Z"/>
    <path id="p9" d="M 755 793 Q 779 705 811 680 Q 827 661 812 642 Q 796 629 741 603 Q 722 596 700 605 Q 628 632 479 656 C 467 658 490 688 502 686 C 621 663 621 663 681 652 Q 702 648 710 657 Q 720 666 719 686 Q 712 744 700 791 C 696 809 751 811 755 793 Z"/>
    <path id="p10" d="M 521 854 Q 528 855 539 854 Q 612 839 771 830 Q 781 829 783 821 Q 783 812 755 793 C 739 784 718 788 700 791 Q 598 812 517 821 C 506 823 510 854 521 854 Z"/>

    <clipPath id="z38506c1"><use href="#p1"/></clipPath>
    <clipPath id="z38506c2"><use href="#p2"/></clipPath>
    <clipPath id="z38506c3"><use href="#p3"/></clipPath>
    <clipPath id="z38506c4"><use href="#p4"/></clipPath>
    <clipPath id="z38506c5"><use href="#p5"/></clipPath>
    <clipPath id="z38506c6"><use href="#p6"/></clipPath>
    <clipPath id="z38506c7"><use href="#p7"/></clipPath>
    <clipPath id="z38506c8"><use href="#p8"/></clipPath>
    <clipPath id="z38506c9"><use href="#p9"/></clipPath>
    <clipPath id="z38506c10"><use href="#p10"/></clipPath>
</defs>
<g id="bg-layer" class="bg">
<use href="#p1"/>
<use href="#p2"/>
<use href="#p3"/>
<use href="#p4"/>
<use href="#p5"/>
<use href="#p6"/>
<use href="#p7"/>
<use href="#p8"/>
<use href="#p9"/>
<use href="#p10"/>
</g>
<g id="anim-layer">
    <path id="stroke-p1" style="stroke:#FF4444" pathLength="3333" clip-path="url(#z38506c1)" d="M 212 217 L 333 184 L 364 208 L 297 327 L 350 430 L 344 478 L 236 455"/>
    <path id="stroke-p2" style="stroke:#FF4444" pathLength="3333" clip-path="url(#z38506c2)" d="M 137 192 L 185 247 L 191 332 L 167 885"/>
    <path id="stroke-p3" style="stroke:#000" pathLength="3333" clip-path="url(#z38506c3)" d="M 568 91 L 653 139 L 685 188"/>
    <path id="stroke-p4" style="stroke:#000" pathLength="3333" clip-path="url(#z38506c4)" d="M 453 298 L 824 244"/>
    <path id="stroke-p5" style="stroke:#000" pathLength="3333" clip-path="url(#z38506c5)" d="M 473 371 L 535 471"/>
    <path id="stroke-p6" style="stroke:#000" pathLength="3333" clip-path="url(#z38506c6)" d="M 696 295 L 730 332 L 645 502"/>
    <path id="stroke-p7" style="stroke:#000" pathLength="3333" clip-path="url(#z38506c7)" d="M 343 563 L 872 496 L 965 512"/>
    <path id="stroke-p8" style="stroke:#000" pathLength="3333" clip-path="url(#z38506c8)" d="M 429 655 L 472 700 L 506 888"/>
    <path id="stroke-p9" style="stroke:#000" pathLength="3333" clip-path="url(#z38506c9)" d="M 487 656 L 740 638 L 769 674 L 713 790"/>
    <path id="stroke-p10" style="stroke:#000" pathLength="3333" clip-path="url(#z38506c10)" d="M 524 826 L 778 819"/>
</g>
</svg>