<svg id="z38567" class="acjk" viewBox="0 0 1024 1024" xmlns="http://www.w3.org/2000/svg">
<style>
<![CDATA[
svg.acjk path[clip-path] {
    animation-duration: 13.700000000000001s;
    animation-timing-function: linear;
    animation-iteration-count: infinite;
    stroke-dasharray: 3337;
    stroke-dashoffset: 3339;
    stroke-width: 128;
    stroke-linecap: round;
    fill: none;
    stroke: #FF4444;
}
svg.acjk .bg { fill: #ccc; opacity: 0.5; }

/* Stroke 1: Starts at 0.0%, finishes at 5.8%, holds until 81.8% */
@keyframes zk1 {
    0%, 0.0% { stroke-dashoffset: 3339; }
    5.8%, 81.8% { stroke-dashoffset: 0; }
    81.9%, 100% { stroke-dashoffset: 3339; }
}
svg.acjk #stroke-p1 { animation-name: zk1; }
/* Stroke 2: Starts at 5.8%, finishes at 11.7%, holds until 81.8% */
@keyframes zk2 {
    0%, 5.8% { stroke-dashoffset: 3339; }
    11.7%, 81.8% { stroke-dashoffset: 0; }
    81.9%, 100% { stroke-dashoffset: 3339; }
}
svg.acjk #stroke-p2 { animation-name: zk2; }
/* Stroke 3: Starts at 11.7%, finishes at 17.5%, holds until 81.8% */
@keyframes zk3 {
    0%, 11.7% { stroke-dashoffset: 3339; }
    17.5%, 81.8% { stroke-dashoffset: 0; }
    81.9%, 100% { stroke-dashoffset: 3339; }
}
svg.acjk #stroke-p3 { animation-name: zk3; }
/* Stroke 4: Starts at 17.5%, finishes at 23.4%, holds until 81.8% */
@keyframes zk4 {
    0%, 17.5% { stroke-dashoffset: 3339; }
    23.4%, 81.8% { stroke-dashoffset: 0; }
    81.9%, 100% { stroke-dashoffset: 3339; }
}
svg.acjk #stroke-p4 { animation-name: zk4; }
/* Stroke 5: Starts at 23.4%, finishes at 29.2%, holds until 81.8% */
@keyframes zk5 {
    0%, 23.4% { stroke-dashoffset: 3339; }
    29.2%, 81.8% { stroke-dashoffset: 0; }
    81.9%, 100% { stroke-dashoffset: 3339; }
}
svg.acjk #stroke-p5 { animation-name: zk5; }
/* Stroke 6: Starts at 29.2%, finishes at 35.0%, holds until 81.8% */
@keyframes zk6 {
    0%, 29.2% { stroke-dashoffset: 3339; }
    35.0%, 81.8% { stroke-dashoffset: 0; }
    81.9%, 100% { stroke-dashoffset: 3339; }
}
svg.acjk #stroke-p6 { animation-name: zk6; }
/* Stroke 7: Starts at 35.0%, finishes at 40.9%, holds until 81.8% */
@keyframes zk7 {
    0%, 35.0% { stroke-dashoffset: 3339; }
    40.9%, 81.8% { stroke-dashoffset: 0; }
    81.9%, 100% { stroke-dashoffset: 3339; }
}
svg.acjk #stroke-p7 { animation-name: zk7; }
/* Stroke 8: Starts at 40.9%, finishes at 46.7%, holds until 81.8% */
@keyframes zk8 {
    0%, 40.9% { stroke-dashoffset: 3339; }
    46.7%, 81.8% { stroke-dashoffset: 0; }
    81.9%, 100% { stroke-dashoffset: 3339; }
}
svg.acjk #stroke-p8 { animation-name: zk8; }
/* Stroke 9: Starts at 46.7%, finishes at 52.6%, holds until 81.8% */
@keyframes zk9 {
    0%, 46.7% { stroke-dashoffset: 3339; }
    52.6%, 81.8% { stroke-dashoffset: 0; }
    81.9%, 100% { stroke-dashoffset: 3339; }
}
svg.acjk #stroke-p9 { animation-name: zk9; }
/* Stroke 10: Starts at 52.6%, finishes at 58.4%, holds until 81.8% */
@keyframes zk10 {
    0%, 52.6% { stroke-dashoffset: 3339; }
    58.4%, 81.8% { stroke-dashoffset: 0; }
    81.9%, 100% { stroke-dashoffset: 3339; }
}
svg.acjk #stroke-p10 { animation-name: zk10; }
/* Stroke 11: Starts at 58.4%, finishes at 64.2%, holds until 81.8% */
@keyframes zk11 {
    0%, 58.4% { stroke-dashoffset: 3339; }
    64.2%, 81.8% { stroke-dashoffset: 0; }
    81.9%, 100% { stroke-dashoffset: 3339; }
}
svg.acjk #stroke-p11 { animation-name: zk11; }
/* Stroke 12: Starts at 64.2%, finishes at 70.1%, holds until 81.8% */
@keyframes zk12 {
    0%, 64.2% { stroke-dashoffset: 3339; }
    70.1%, 81.8% { stroke-dashoffset: 0; }
    81.9%, 100% { stroke-dashoffset: 3339; }
}
svg.acjk #stroke-p12 { animation-name: zk12; }
/* Stroke 13: Starts at 70.1%, finishes at 75.9%, holds until 81.8% */
@keyframes zk13 {
    0%, 70.1% { stroke-dashoffset: 3339; }
    75.9%, 81.8% { stroke-dashoffset: 0; }
    81.9%, 100% { stroke-dashoffset: 3339; }
}
svg.acjk #stroke-p13 { animation-name: zk13; }
/* Stroke 14: Starts at 75.9%, finishes at 81.8%, holds until 81.8% */
@keyframes zk14 {
    0%, 75.9% { stroke-dashoffset: 3339; }
    81.8%, 81.8% { stroke-dashoffset: 0; }
    81.9%, 100% { stroke-dashoffset: 3339; }
}
svg.acjk #stroke-p14 { animation-name: zk14; }
]]>
</style>
<defs>
    <path id="p1" d="M 196 221 Q 233 214 272 197 Q 288 190 297 198 Q 300 202 280 244 Q 238 313 262 338 Q 292 378 302 405 Q 306 421 301 428 Q 295 440 273 438 Q 245 437 215 440 Q 193 441 219 452 Q 273 473 322 501 Q 335 511 346 500 Q 359 490 364 467 Q 374 410 307 342 Q 271 306 307 269 Q 347 217 370 203 Q 389 193 380 179 Q 368 160 333 140 Q 314 131 299 143 Q 248 180 185 191 C 174 193 186 223 196 221 Z"/>
    <path id="p2" d="M 185 191 Q 184 190 182 189 Q 158 168 129 160 Q 119 159 112 167 Q 108 174 116 185 Q 173 326 134 651 Q 124 702 108 755 Q 101 783 105 804 Q 115 841 127 855 Q 140 870 150 855 Q 184 809 186 585 Q 186 282 196 221 C 198 210 194 197 185 191 Z"/>
    <path id="p3" d="M 537 186 Q 555 223 585 254 Q 597 260 608 250 Q 615 241 617 226 Q 614 190 556 156 Q 543 149 535 149 Q 529 149 529 160 Q 528 170 537 186 Z"/>
    <path id="p4" d="M 721 127 Q 711 154 656 246 Q 649 264 665 257 Q 764 158 806 131 Q 825 118 812 103 Q 796 88 769 78 Q 744 69 732 74 Q 720 77 726 89 Q 732 107 721 127 Z"/>
    <path id="p5" d="M 628 346 C 742 315 800 296 804 294 C 808 289 810 284 807 279 C 802 272 791 266 773 263 C 754 259 736 264 719 272 C 692 283 664 292 634 302 C 601 312 565 318 526 325 C 503 328 500 337 518 347 C 537 357 562 363 590 356 C 615 349 615 349 628 346 Z"/>
    <path id="p6" d="M 598 426 C 606 418 624 404 647 379 C 663 360 641 349 628 346 C 615 343 595 344 590 356 C 582 386 550 429 491 483 C 482 491 482 492 496 491 C 510 489 541 476 580 442 C 592 431 592 431 598 426 Z"/>
    <path id="p7" d="M 735 543 C 729 528 722 514 711 500 C 707 495 703 492 700 489 C 673 465 633 439 598 426 C 591 423 573 439 580 442 C 590 446 596 451 600 453 C 612 459 633 472 645 482 C 651 487 658 492 666 501 C 678 515 688 529 695 546 C 708 582 706 619 691 677 C 685 697 679 710 673 714 C 668 716 645 713 605 704 C 563 694 583 716 589 721 C 621 749 644 773 657 793 C 664 805 674 810 683 807 C 725 789 756 671 744 579 C 742 566 739 554 735 543 Z"/>
    <path id="p8" d="M 600 453 C 590 475 589 501 475 588 C 466 594 467 597 479 596 C 549 584 613 510 645 482 C 658 469 607 436 600 453 Z"/>
    <path id="p9" d="M 666 501 C 634 567 572 633 487 703 C 470 716 492 718 502 715 C 595 686 665 590 695 546 C 701 536 671 491 666 501 Z"/>
    <path id="p10" d="M 711 500 C 772 467 820 433 843 422 C 871 407 841 384 821 372 C 795 356 780 359 783 374 C 786 395 766 420 700 489 C 696 493 706 502 711 500 Z"/>
    <path id="p11" d="M 744 579 C 776 601 812 629 851 665 C 886 698 909 681 887 626 C 875 596 825 568 735 543 C 723 541 734 572 744 579 Z"/>
    <path id="p12" d="M 390 320 Q 411 365 435 382 Q 445 388 456 379 Q 463 369 464 355 Q 463 336 452 322 Q 412 282 386 286 Q 382 286 381 296 Q 380 306 390 320 Z"/>
    <path id="p13" d="M 428 763 C 440 757 447 747 452 736 C 456 723 457 712 454 700 C 451 690 442 676 430 659 C 411 633 419 599 450 558 C 452 554 455 551 458 548 C 473 532 457 517 413 499 C 402 494 388 499 367 514 C 330 537 302 547 288 546 C 280 545 276 552 286 557 C 306 566 335 560 374 547 C 380 544 411 562 393 589 C 375 613 382 642 407 685 C 419 705 420 723 420 731 C 420 741 418 750 414 758 C 412 763 424 765 428 763 Z"/>
    <path id="p14" d="M 414 758 C 396 751 375 748 353 752 C 336 754 320 755 305 752 C 294 749 288 750 286 756 C 283 762 287 770 297 780 C 309 792 324 795 341 793 C 385 786 424 793 456 809 C 530 846 610 889 697 937 C 721 950 749 951 784 938 C 828 921 872 906 915 890 C 962 871 906 863 883 863 C 754 859 675 852 645 842 C 572 816 500 788 428 763 C 419 760 419 760 414 758 Z"/>

    <clipPath id="z38567c1"><use href="#p1"/></clipPath>
    <clipPath id="z38567c2"><use href="#p2"/></clipPath>
    <clipPath id="z38567c3"><use href="#p3"/></clipPath>
    <clipPath id="z38567c4"><use href="#p4"/></clipPath>
    <clipPath id="z38567c5"><use href="#p5"/></clipPath>
    <clipPath id="z38567c6"><use href="#p6"/></clipPath>
    <clipPath id="z38567c7"><use href="#p7"/></clipPath>
    <clipPath id="z38567c8"><use href="#p8"/></clipPath>
    <clipPath id="z38567c9"><use href="#p9"/></clipPath>
    <clipPath id="z38567c10"><use href="#p10"/></clipPath>
    <clipPath id="z38567c11"><use href="#p11"/></clipPath>
    <clipPath id="z38567c12"><use href="#p12"/></clipPath>
    <clipPath id="z38567c13"><use href="#p13"/></clipPath>
    <clipPath id="z38567c14"><use href="#p14"/></clipPath>
</defs>
<g id="bg-layer" class="bg">
<use href="#p1"/>
<use href="#p2"/>
<use href="#p3"/>
<use href="#p4"/>
<use href="#p5"/>
<use href="#p6"/>
<use href="#p7"/>
<use href="#p8"/>
<use href="#p9"/>
<use href="#p10"/>
<use href="#p11"/>
<use href="#p12"/>
<use href="#p13"/>
<use href="#p14"/>
</g>
<g id="anim-layer">
    <path id="stroke-p1" style="stroke:#FF4444" pathLength="3333" clip-path="url(#z38567c1)" d="M 188 202 L 302 166 L 339 197 L 272 302 L 327 404 L 329 456 L 313 470 L 215 444"/>
    <path id="stroke-p2" style="stroke:#FF4444" pathLength="3333" clip-path="url(#z38567c2)" d="M 118 171 L 161 214 L 168 325 L 136 858"/>
    <path id="stroke-p3" style="stroke:#000" pathLength="3333" clip-path="url(#z38567c3)" d="M 536 155 L 603 250"/>
    <path id="stroke-p4" style="stroke:#000" pathLength="3333" clip-path="url(#z38567c4)" d="M 731 80 L 770 120 L 660 252"/>
    <path id="stroke-p5" style="stroke:#000" pathLength="3333" clip-path="url(#z38567c5)" d="M 514 333 L 593 334 L 800 280"/>
    <path id="stroke-p6" style="stroke:#000" pathLength="3333" clip-path="url(#z38567c6)" d="M 634 349 L 495 489"/>
    <path id="stroke-p7" style="stroke:#000" pathLength="3333" clip-path="url(#z38567c7)" d="M 586 438 L 697 511 L 725 613 L 678 760 L 583 710"/>
    <path id="stroke-p8" style="stroke:#000" pathLength="3333" clip-path="url(#z38567c8)" d="M 606 455 L 606 492 L 478 592"/>
    <path id="stroke-p9" style="stroke:#000" pathLength="3333" clip-path="url(#z38567c9)" d="M 670 510 L 669 543 L 605 623 L 486 709"/>
    <path id="stroke-p10" style="stroke:#000" pathLength="3333" clip-path="url(#z38567c10)" d="M 792 367 L 814 407 L 707 493"/>
    <path id="stroke-p11" style="stroke:#000" pathLength="3333" clip-path="url(#z38567c11)" d="M 735 548 L 847 622 L 881 677"/>
    <path id="stroke-p12" style="stroke:#000" pathLength="3333" clip-path="url(#z38567c12)" d="M 388 295 L 448 380"/>
    <path id="stroke-p13" style="stroke:#000" pathLength="3333" clip-path="url(#z38567c13)" d="M 291 552 L 389 523 L 429 547 L 401 629 L 437 717 L 422 759"/>
    <path id="stroke-p14" style="stroke:#000" pathLength="3333" clip-path="url(#z38567c14)" d="M 289 759 L 420 777 L 730 901 L 924 879"/>
</g>
</svg>