<svg id="z38902" class="acjk" viewBox="0 0 1024 1024" xmlns="http://www.w3.org/2000/svg">
<style>
<![CDATA[
svg.acjk path[clip-path] {
    animation-duration: 13.700000000000001s;
    animation-timing-function: linear;
    animation-iteration-count: infinite;
    stroke-dasharray: 3337;
    stroke-dashoffset: 3339;
    stroke-width: 128;
    stroke-linecap: round;
    fill: none;
    stroke: #FF4444;
}
svg.acjk .bg { fill: #ccc; opacity: 0.5; }

/* Stroke 1: Starts at 0.0%, finishes at 5.8%, holds until 81.8% */
@keyframes zk1 {
    0%, 0.0% { stroke-dashoffset: 3339; }
    5.8%, 81.8% { stroke-dashoffset: 0; }
    81.9%, 100% { stroke-dashoffset: 3339; }
}
svg.acjk #stroke-p1 { animation-name: zk1; }
/* Stroke 2: Starts at 5.8%, finishes at 11.7%, holds until 81.8% */
@keyframes zk2 {
    0%, 5.8% { stroke-dashoffset: 3339; }
    11.7%, 81.8% { stroke-dashoffset: 0; }
    81.9%, 100% { stroke-dashoffset: 3339; }
}
svg.acjk #stroke-p2 { animation-name: zk2; }
/* Stroke 3: Starts at 11.7%, finishes at 17.5%, holds until 81.8% */
@keyframes zk3 {
    0%, 11.7% { stroke-dashoffset: 3339; }
    17.5%, 81.8% { stroke-dashoffset: 0; }
    81.9%, 100% { stroke-dashoffset: 3339; }
}
svg.acjk #stroke-p3 { animation-name: zk3; }
/* Stroke 4: Starts at 17.5%, finishes at 23.4%, holds until 81.8% */
@keyframes zk4 {
    0%, 17.5% { stroke-dashoffset: 3339; }
    23.4%, 81.8% { stroke-dashoffset: 0; }
    81.9%, 100% { stroke-dashoffset: 3339; }
}
svg.acjk #stroke-p4 { animation-name: zk4; }
/* Stroke 5: Starts at 23.4%, finishes at 29.2%, holds until 81.8% */
@keyframes zk5 {
    0%, 23.4% { stroke-dashoffset: 3339; }
    29.2%, 81.8% { stroke-dashoffset: 0; }
    81.9%, 100% { stroke-dashoffset: 3339; }
}
svg.acjk #stroke-p5 { animation-name: zk5; }
/* Stroke 6: Starts at 29.2%, finishes at 35.0%, holds until 81.8% */
@keyframes zk6 {
    0%, 29.2% { stroke-dashoffset: 3339; }
    35.0%, 81.8% { stroke-dashoffset: 0; }
    81.9%, 100% { stroke-dashoffset: 3339; }
}
svg.acjk #stroke-p6 { animation-name: zk6; }
/* Stroke 7: Starts at 35.0%, finishes at 40.9%, holds until 81.8% */
@keyframes zk7 {
    0%, 35.0% { stroke-dashoffset: 3339; }
    40.9%, 81.8% { stroke-dashoffset: 0; }
    81.9%, 100% { stroke-dashoffset: 3339; }
}
svg.acjk #stroke-p7 { animation-name: zk7; }
/* Stroke 8: Starts at 40.9%, finishes at 46.7%, holds until 81.8% */
@keyframes zk8 {
    0%, 40.9% { stroke-dashoffset: 3339; }
    46.7%, 81.8% { stroke-dashoffset: 0; }
    81.9%, 100% { stroke-dashoffset: 3339; }
}
svg.acjk #stroke-p8 { animation-name: zk8; }
/* Stroke 9: Starts at 46.7%, finishes at 52.6%, holds until 81.8% */
@keyframes zk9 {
    0%, 46.7% { stroke-dashoffset: 3339; }
    52.6%, 81.8% { stroke-dashoffset: 0; }
    81.9%, 100% { stroke-dashoffset: 3339; }
}
svg.acjk #stroke-p9 { animation-name: zk9; }
/* Stroke 10: Starts at 52.6%, finishes at 58.4%, holds until 81.8% */
@keyframes zk10 {
    0%, 52.6% { stroke-dashoffset: 3339; }
    58.4%, 81.8% { stroke-dashoffset: 0; }
    81.9%, 100% { stroke-dashoffset: 3339; }
}
svg.acjk #stroke-p10 { animation-name: zk10; }
/* Stroke 11: Starts at 58.4%, finishes at 64.2%, holds until 81.8% */
@keyframes zk11 {
    0%, 58.4% { stroke-dashoffset: 3339; }
    64.2%, 81.8% { stroke-dashoffset: 0; }
    81.9%, 100% { stroke-dashoffset: 3339; }
}
svg.acjk #stroke-p11 { animation-name: zk11; }
/* Stroke 12: Starts at 64.2%, finishes at 70.1%, holds until 81.8% */
@keyframes zk12 {
    0%, 64.2% { stroke-dashoffset: 3339; }
    70.1%, 81.8% { stroke-dashoffset: 0; }
    81.9%, 100% { stroke-dashoffset: 3339; }
}
svg.acjk #stroke-p12 { animation-name: zk12; }
/* Stroke 13: Starts at 70.1%, finishes at 75.9%, holds until 81.8% */
@keyframes zk13 {
    0%, 70.1% { stroke-dashoffset: 3339; }
    75.9%, 81.8% { stroke-dashoffset: 0; }
    81.9%, 100% { stroke-dashoffset: 3339; }
}
svg.acjk #stroke-p13 { animation-name: zk13; }
/* Stroke 14: Starts at 75.9%, finishes at 81.8%, holds until 81.8% */
@keyframes zk14 {
    0%, 75.9% { stroke-dashoffset: 3339; }
    81.8%, 81.8% { stroke-dashoffset: 0; }
    81.9%, 100% { stroke-dashoffset: 3339; }
}
svg.acjk #stroke-p14 { animation-name: zk14; }
]]>
</style>
<defs>
    <path id="p1" d="M 334 132 Q 359 151 388 176 Q 401 189 418 187 Q 428 186 433 172 Q 437 156 425 127 Q 412 96 326 84 Q 310 83 304 85 Q 300 89 301 102 Q 305 112 334 132 Z"/>
    <path id="p2" d="M 422 270 Q 482 255 487 251 Q 496 244 491 235 Q 484 225 456 217 Q 432 214 351 239 Q 276 258 220 264 Q 186 271 211 286 Q 251 310 305 295 Q 344 286 388 280 C 411 273 411 273 422 270 Z"/>
    <path id="p3" d="M 210 378 Q 243 453 266 458 Q 278 462 288 448 Q 292 436 288 416 Q 275 380 220 355 Q 213 352 208 362 Q 205 369 210 378 Z"/>
    <path id="p4" d="M 378 463 Q 379 459 383 455 Q 404 416 425 368 Q 434 346 452 319 Q 464 307 456 298 Q 446 283 422 270 C 412 264 386 268 388 280 Q 401 317 349 456 Q 346 463 345 471 C 343 482 374 474 378 463 Z"/>
    <path id="p5" d="M 345 471 Q 177 507 89 518 Q 76 519 73 527 Q 70 537 85 549 Q 124 576 165 562 Q 324 508 493 485 Q 509 482 510 475 Q 511 462 493 454 Q 466 442 444 447 Q 408 454 378 463 C 356 468 356 468 345 471 Z"/>
    <path id="p6" d="M 251 617 Q 235 604 214 600 Q 207 599 203 605 Q 200 609 206 618 Q 239 687 216 805 Q 206 815 214 843 Q 223 868 232 878 Q 241 888 248 877 Q 254 870 257 856 C 261 833 261 833 263 821 Q 264 808 264 794 Q 263 769 263 746 C 262 727 262 727 262 718 Q 261 663 263 643 C 263 633 259 623 251 617 Z"/>
    <path id="p7" d="M 399 838 Q 400 842 404 848 Q 416 870 422 869 Q 432 868 445 843 Q 455 824 454 808 Q 435 669 459 632 Q 466 619 461 611 Q 437 592 397 576 Q 384 572 366 579 Q 321 603 251 617 C 242 619 254 645 263 643 Q 270 643 328 628 Q 376 613 388 620 Q 395 635 399 674 Q 403 774 400 807 C 400 817 395 828 399 838 Z"/>
    <path id="p8" d="M 263 746 Q 320 734 362 726 Q 381 722 373 711 Q 363 698 340 696 Q 318 695 262 718 C 253 721 254 748 263 746 Z"/>
    <path id="p9" d="M 257 856 Q 257 855 260 855 Q 303 845 399 838 C 409 838 408 813 400 807 Q 396 804 392 801 Q 376 794 348 801 Q 302 813 263 821 C 251 823 245 858 257 856 Z"/>
    <path id="p10" d="M 684 247 Q 739 232 788 227 Q 806 226 810 230 Q 820 245 813 282 Q 801 385 776 432 Q 760 459 737 454 Q 716 447 698 437 Q 676 427 690 451 Q 724 497 740 530 Q 759 551 776 534 Q 833 495 858 365 Q 873 251 891 230 Q 904 217 898 207 Q 888 195 837 173 Q 818 163 798 177 Q 777 189 698 206 Q 619 225 550 230 Q 532 231 529 240 Q 528 247 552 260 Q 577 276 597 269 Q 621 262 644 257 C 671 250 671 250 684 247 Z"/>
    <path id="p11" d="M 644 257 Q 651 264 647 294 Q 622 414 516 550 Q 512 554 511 561 Q 512 565 517 565 Q 586 550 686 352 Q 695 330 713 297 Q 719 287 710 274 Q 697 255 684 247 C 672 240 636 246 644 257 Z"/>
    <path id="p12" d="M 577 625 Q 565 618 529 611 Q 516 607 513 613 Q 506 619 515 635 Q 542 696 557 797 Q 558 828 576 848 Q 594 870 599 855 Q 603 843 604 825 C 601 800 601 800 600 788 Q 585 692 583 658 C 583 647 586 633 577 626 C 577 625 577 625 577 625 Z"/>
    <path id="p13" d="M 811 773 Q 833 680 866 652 Q 882 633 868 616 Q 852 603 799 579 Q 780 572 759 581 Q 699 605 577 626 C 566 628 572 660 583 658 Q 592 658 746 629 Q 762 625 770 633 Q 780 642 779 662 Q 772 719 762 766 C 759 782 808 789 811 773 Z"/>
    <path id="p14" d="M 604 825 Q 613 825 622 824 Q 686 814 825 812 Q 835 811 838 802 Q 839 793 811 773 C 797 765 778 766 762 766 Q 761 765 758 766 Q 670 782 600 788 C 588 790 592 825 604 825 Z"/>

    <clipPath id="z38902c1"><use href="#p1"/></clipPath>
    <clipPath id="z38902c2"><use href="#p2"/></clipPath>
    <clipPath id="z38902c3"><use href="#p3"/></clipPath>
    <clipPath id="z38902c4"><use href="#p4"/></clipPath>
    <clipPath id="z38902c5"><use href="#p5"/></clipPath>
    <clipPath id="z38902c6"><use href="#p6"/></clipPath>
    <clipPath id="z38902c7"><use href="#p7"/></clipPath>
    <clipPath id="z38902c8"><use href="#p8"/></clipPath>
    <clipPath id="z38902c9"><use href="#p9"/></clipPath>
    <clipPath id="z38902c10"><use href="#p10"/></clipPath>
    <clipPath id="z38902c11"><use href="#p11"/></clipPath>
    <clipPath id="z38902c12"><use href="#p12"/></clipPath>
    <clipPath id="z38902c13"><use href="#p13"/></clipPath>
    <clipPath id="z38902c14"><use href="#p14"/></clipPath>
</defs>
<g id="bg-layer" class="bg">
<use href="#p1"/>
<use href="#p2"/>
<use href="#p3"/>
<use href="#p4"/>
<use href="#p5"/>
<use href="#p6"/>
<use href="#p7"/>
<use href="#p8"/>
<use href="#p9"/>
<use href="#p10"/>
<use href="#p11"/>
<use href="#p12"/>
<use href="#p13"/>
<use href="#p14"/>
</g>
<g id="anim-layer">
    <path id="stroke-p1" style="stroke:#FF4444" pathLength="3333" clip-path="url(#z38902c1)" d="M 309 91 L 389 134 L 423 179"/>
    <path id="stroke-p2" style="stroke:#FF4444" pathLength="3333" clip-path="url(#z38902c2)" d="M 210 274 L 489 242"/>
    <path id="stroke-p3" style="stroke:#FF4444" pathLength="3333" clip-path="url(#z38902c3)" d="M 216 359 L 280 453"/>
    <path id="stroke-p4" style="stroke:#FF4444" pathLength="3333" clip-path="url(#z38902c4)" d="M 393 285 L 423 316 L 355 466"/>
    <path id="stroke-p5" style="stroke:#FF4444" pathLength="3333" clip-path="url(#z38902c5)" d="M 78 527 L 148 537 L 503 466"/>
    <path id="stroke-p6" style="stroke:#FF4444" pathLength="3333" clip-path="url(#z38902c6)" d="M 210 607 L 240 647 L 238 873"/>
    <path id="stroke-p7" style="stroke:#FF4444" pathLength="3333" clip-path="url(#z38902c7)" d="M 258 618 L 384 596 L 428 627 L 425 864"/>
    <path id="stroke-p8" style="stroke:#FF4444" pathLength="3333" clip-path="url(#z38902c8)" d="M 266 737 L 370 713"/>
    <path id="stroke-p9" style="stroke:#FF4444" pathLength="3333" clip-path="url(#z38902c9)" d="M 267 847 L 399 822"/>
    <path id="stroke-p10" style="stroke:#000" pathLength="3333" clip-path="url(#z38902c10)" d="M 535 239 L 589 248 L 814 199 L 854 221 L 790 468 L 748 497 L 692 441"/>
    <path id="stroke-p11" style="stroke:#000" pathLength="3333" clip-path="url(#z38902c11)" d="M 651 261 L 679 298 L 650 369 L 518 559"/>
    <path id="stroke-p12" style="stroke:#000" pathLength="3333" clip-path="url(#z38902c12)" d="M 518 613 L 549 639 L 586 853"/>
    <path id="stroke-p13" style="stroke:#000" pathLength="3333" clip-path="url(#z38902c13)" d="M 586 632 L 761 605 L 805 618 L 825 645 L 776 767"/>
    <path id="stroke-p14" style="stroke:#000" pathLength="3333" clip-path="url(#z38902c14)" d="M 608 792 L 831 797"/>
</g>
</svg>