<svg id="z39069" class="acjk" viewBox="0 0 1024 1024" xmlns="http://www.w3.org/2000/svg">
<style>
<![CDATA[
svg.acjk path[clip-path] {
    animation-duration: 14.5s;
    animation-timing-function: linear;
    animation-iteration-count: infinite;
    stroke-dasharray: 3337;
    stroke-dashoffset: 3339;
    stroke-width: 128;
    stroke-linecap: round;
    fill: none;
    stroke: #FF4444;
}
svg.acjk .bg { fill: #ccc; opacity: 0.5; }

/* Stroke 1: Starts at 0.0%, finishes at 5.5%, holds until 82.8% */
@keyframes zk1 {
    0%, 0.0% { stroke-dashoffset: 3339; }
    5.5%, 82.8% { stroke-dashoffset: 0; }
    82.9%, 100% { stroke-dashoffset: 3339; }
}
svg.acjk #stroke-p1 { animation-name: zk1; }
/* Stroke 2: Starts at 5.5%, finishes at 11.0%, holds until 82.8% */
@keyframes zk2 {
    0%, 5.5% { stroke-dashoffset: 3339; }
    11.0%, 82.8% { stroke-dashoffset: 0; }
    82.9%, 100% { stroke-dashoffset: 3339; }
}
svg.acjk #stroke-p2 { animation-name: zk2; }
/* Stroke 3: Starts at 11.0%, finishes at 16.6%, holds until 82.8% */
@keyframes zk3 {
    0%, 11.0% { stroke-dashoffset: 3339; }
    16.6%, 82.8% { stroke-dashoffset: 0; }
    82.9%, 100% { stroke-dashoffset: 3339; }
}
svg.acjk #stroke-p3 { animation-name: zk3; }
/* Stroke 4: Starts at 16.6%, finishes at 22.1%, holds until 82.8% */
@keyframes zk4 {
    0%, 16.6% { stroke-dashoffset: 3339; }
    22.1%, 82.8% { stroke-dashoffset: 0; }
    82.9%, 100% { stroke-dashoffset: 3339; }
}
svg.acjk #stroke-p4 { animation-name: zk4; }
/* Stroke 5: Starts at 22.1%, finishes at 27.6%, holds until 82.8% */
@keyframes zk5 {
    0%, 22.1% { stroke-dashoffset: 3339; }
    27.6%, 82.8% { stroke-dashoffset: 0; }
    82.9%, 100% { stroke-dashoffset: 3339; }
}
svg.acjk #stroke-p5 { animation-name: zk5; }
/* Stroke 6: Starts at 27.6%, finishes at 33.1%, holds until 82.8% */
@keyframes zk6 {
    0%, 27.6% { stroke-dashoffset: 3339; }
    33.1%, 82.8% { stroke-dashoffset: 0; }
    82.9%, 100% { stroke-dashoffset: 3339; }
}
svg.acjk #stroke-p6 { animation-name: zk6; }
/* Stroke 7: Starts at 33.1%, finishes at 38.6%, holds until 82.8% */
@keyframes zk7 {
    0%, 33.1% { stroke-dashoffset: 3339; }
    38.6%, 82.8% { stroke-dashoffset: 0; }
    82.9%, 100% { stroke-dashoffset: 3339; }
}
svg.acjk #stroke-p7 { animation-name: zk7; }
/* Stroke 8: Starts at 38.6%, finishes at 44.1%, holds until 82.8% */
@keyframes zk8 {
    0%, 38.6% { stroke-dashoffset: 3339; }
    44.1%, 82.8% { stroke-dashoffset: 0; }
    82.9%, 100% { stroke-dashoffset: 3339; }
}
svg.acjk #stroke-p8 { animation-name: zk8; }
/* Stroke 9: Starts at 44.1%, finishes at 49.7%, holds until 82.8% */
@keyframes zk9 {
    0%, 44.1% { stroke-dashoffset: 3339; }
    49.7%, 82.8% { stroke-dashoffset: 0; }
    82.9%, 100% { stroke-dashoffset: 3339; }
}
svg.acjk #stroke-p9 { animation-name: zk9; }
/* Stroke 10: Starts at 49.7%, finishes at 55.2%, holds until 82.8% */
@keyframes zk10 {
    0%, 49.7% { stroke-dashoffset: 3339; }
    55.2%, 82.8% { stroke-dashoffset: 0; }
    82.9%, 100% { stroke-dashoffset: 3339; }
}
svg.acjk #stroke-p10 { animation-name: zk10; }
/* Stroke 11: Starts at 55.2%, finishes at 60.7%, holds until 82.8% */
@keyframes zk11 {
    0%, 55.2% { stroke-dashoffset: 3339; }
    60.7%, 82.8% { stroke-dashoffset: 0; }
    82.9%, 100% { stroke-dashoffset: 3339; }
}
svg.acjk #stroke-p11 { animation-name: zk11; }
/* Stroke 12: Starts at 60.7%, finishes at 66.2%, holds until 82.8% */
@keyframes zk12 {
    0%, 60.7% { stroke-dashoffset: 3339; }
    66.2%, 82.8% { stroke-dashoffset: 0; }
    82.9%, 100% { stroke-dashoffset: 3339; }
}
svg.acjk #stroke-p12 { animation-name: zk12; }
/* Stroke 13: Starts at 66.2%, finishes at 71.7%, holds until 82.8% */
@keyframes zk13 {
    0%, 66.2% { stroke-dashoffset: 3339; }
    71.7%, 82.8% { stroke-dashoffset: 0; }
    82.9%, 100% { stroke-dashoffset: 3339; }
}
svg.acjk #stroke-p13 { animation-name: zk13; }
/* Stroke 14: Starts at 71.7%, finishes at 77.2%, holds until 82.8% */
@keyframes zk14 {
    0%, 71.7% { stroke-dashoffset: 3339; }
    77.2%, 82.8% { stroke-dashoffset: 0; }
    82.9%, 100% { stroke-dashoffset: 3339; }
}
svg.acjk #stroke-p14 { animation-name: zk14; }
/* Stroke 15: Starts at 77.2%, finishes at 82.8%, holds until 82.8% */
@keyframes zk15 {
    0%, 77.2% { stroke-dashoffset: 3339; }
    82.8%, 82.8% { stroke-dashoffset: 0; }
    82.9%, 100% { stroke-dashoffset: 3339; }
}
svg.acjk #stroke-p15 { animation-name: zk15; }
]]>
</style>
<defs>
    <path id="p1" d="M 333 118 Q 363 143 396 173 Q 409 185 423 184 Q 433 184 437 172 Q 441 159 433 131 Q 424 100 328 74 Q 313 71 308 73 Q 304 77 305 89 Q 308 99 333 118 Z"/>
    <path id="p2" d="M 206 261 Q 196 242 185 235 Q 169 225 168 245 Q 174 278 129 332 Q 114 353 139 398 Q 152 419 168 395 Q 171 389 207 284 C 209 277 209 268 206 261 Z"/>
    <path id="p3" d="M 207 284 Q 220 290 257 282 Q 350 246 438 236 Q 441 236 445 236 Q 458 243 458 249 Q 459 252 436 306 Q 432 316 437 319 Q 441 322 454 313 Q 494 283 527 272 Q 554 262 553 255 Q 552 248 496 210 Q 474 195 385 221 Q 376 221 206 261 C 198 263 200 281 207 284 Z"/>
    <path id="p4" d="M 293 392 Q 332 326 333 320 Q 332 319 332 318 Q 328 308 304 306 Q 279 302 270 307 Q 263 308 264 321 Q 264 382 154 517 Q 139 533 161 525 Q 206 510 275 418 C 287 401 287 401 293 392 Z"/>
    <path id="p5" d="M 235 655 Q 298 601 357 532 C 375 511 375 511 384 500 Q 444 419 469 401 Q 481 391 477 384 Q 476 377 424 356 Q 409 347 393 359 Q 377 369 350 377 Q 319 386 293 392 C 283 394 265 416 275 418 Q 296 422 361 404 Q 374 401 380 407 Q 383 413 373 428 Q 357 458 335 490 C 322 507 322 507 316 516 Q 229 621 93 728 Q 81 738 93 738 Q 126 738 212 673 C 227 661 227 661 235 655 Z"/>
    <path id="p6" d="M 357 532 Q 478 583 481 583 Q 485 582 488 574 Q 492 564 475 541 Q 457 517 384 500 C 351 493 351 493 335 490 Q 280 478 247 474 Q 240 473 242 481 Q 245 488 254 492 Q 284 502 316 516 C 343 527 343 527 357 532 Z"/>
    <path id="p7" d="M 258 661 Q 251 657 235 655 C 225 653 208 664 212 673 Q 234 719 247 796 Q 248 818 262 834 Q 277 853 282 840 Q 286 827 284 802 C 281 781 281 781 280 771 Q 270 707 269 686 C 269 677 266 664 258 661 Z"/>
    <path id="p8" d="M 445 739 Q 458 693 475 678 Q 496 654 474 641 Q 455 631 430 614 Q 412 604 370 629 Q 313 648 258 661 C 249 663 260 688 269 686 Q 318 674 370 662 Q 395 656 402 666 Q 406 670 395 738 C 392 754 442 755 445 739 Z"/>
    <path id="p9" d="M 284 802 Q 291 803 300 800 Q 349 785 459 769 Q 469 768 469 759 Q 469 752 445 739 C 431 730 410 732 395 738 Q 329 759 280 771 C 270 773 274 802 284 802 Z"/>
    <path id="p10" d="M 695 195 Q 864 153 867 151 Q 876 144 871 135 Q 864 125 836 117 Q 806 113 777 124 Q 734 140 687 152 Q 635 165 572 172 Q 538 179 563 194 Q 605 218 657 203 Q 658 202 662 202 C 684 197 684 197 695 195 Z"/>
    <path id="p11" d="M 658 318 Q 668 306 697 268 Q 704 258 716 246 Q 729 236 723 227 Q 716 212 695 195 C 686 188 662 191 662 202 Q 665 230 635 303 Q 628 315 626 325 C 623 335 651 327 658 318 Z"/>
    <path id="p12" d="M 573 332 Q 569 328 549 319 Q 540 315 531 319 Q 525 323 530 333 Q 531 340 535 347 Q 556 389 544 555 Q 529 643 550 672 Q 551 675 556 680 Q 565 690 573 680 Q 588 659 586 596 Q 586 368 590 361 C 592 350 582 339 573 332 Z"/>
    <path id="p13" d="M 778 619 Q 771 641 784 663 Q 797 691 806 690 Q 819 689 835 657 Q 850 632 848 612 Q 821 407 860 348 Q 879 315 794 282 Q 791 279 788 279 Q 772 275 749 283 Q 710 302 660 317 Q 657 317 658 318 C 637 323 637 323 626 325 Q 596 329 573 332 C 562 334 579 361 590 361 Q 597 361 605 359 Q 758 322 771 330 Q 781 352 785 410 Q 788 585 778 619 Z"/>
    <path id="p14" d="M 655 458 Q 659 701 580 796 Q 570 805 560 815 Q 529 843 462 880 Q 452 884 450 887 Q 446 891 458 894 Q 528 894 619 813 Q 628 801 637 790 Q 689 712 697 543 Q 701 462 712 433 Q 716 423 709 418 Q 694 405 666 393 Q 650 386 636 391 Q 620 397 633 411 Q 655 433 655 458 Z"/>
    <path id="p15" d="M 716 759 Q 765 805 823 873 Q 838 892 853 898 Q 862 899 869 889 Q 882 877 870 833 Q 861 787 718 728 Q 709 724 707 735 Q 706 748 716 759 Z"/>

    <clipPath id="z39069c1"><use href="#p1"/></clipPath>
    <clipPath id="z39069c2"><use href="#p2"/></clipPath>
    <clipPath id="z39069c3"><use href="#p3"/></clipPath>
    <clipPath id="z39069c4"><use href="#p4"/></clipPath>
    <clipPath id="z39069c5"><use href="#p5"/></clipPath>
    <clipPath id="z39069c6"><use href="#p6"/></clipPath>
    <clipPath id="z39069c7"><use href="#p7"/></clipPath>
    <clipPath id="z39069c8"><use href="#p8"/></clipPath>
    <clipPath id="z39069c9"><use href="#p9"/></clipPath>
    <clipPath id="z39069c10"><use href="#p10"/></clipPath>
    <clipPath id="z39069c11"><use href="#p11"/></clipPath>
    <clipPath id="z39069c12"><use href="#p12"/></clipPath>
    <clipPath id="z39069c13"><use href="#p13"/></clipPath>
    <clipPath id="z39069c14"><use href="#p14"/></clipPath>
    <clipPath id="z39069c15"><use href="#p15"/></clipPath>
</defs>
<g id="bg-layer" class="bg">
<use href="#p1"/>
<use href="#p2"/>
<use href="#p3"/>
<use href="#p4"/>
<use href="#p5"/>
<use href="#p6"/>
<use href="#p7"/>
<use href="#p8"/>
<use href="#p9"/>
<use href="#p10"/>
<use href="#p11"/>
<use href="#p12"/>
<use href="#p13"/>
<use href="#p14"/>
<use href="#p15"/>
</g>
<g id="anim-layer">
    <path id="stroke-p1" style="stroke:#FF4444" pathLength="3333" clip-path="url(#z39069c1)" d="M 313 77 L 402 137 L 422 180"/>
    <path id="stroke-p2" style="stroke:#FF4444" pathLength="3333" clip-path="url(#z39069c2)" d="M 176 237 L 186 274 L 151 404"/>
    <path id="stroke-p3" style="stroke:#FF4444" pathLength="3333" clip-path="url(#z39069c3)" d="M 205 274 L 460 221 L 503 258 L 440 312"/>
    <path id="stroke-p4" style="stroke:#FF4444" pathLength="3333" clip-path="url(#z39069c4)" d="M 270 316 L 294 340 L 273 381 L 156 523"/>
    <path id="stroke-p5" style="stroke:#FF4444" pathLength="3333" clip-path="url(#z39069c5)" d="M 277 412 L 393 380 L 428 400 L 244 622 L 97 730"/>
    <path id="stroke-p6" style="stroke:#FF4444" pathLength="3333" clip-path="url(#z39069c6)" d="M 249 481 L 482 571"/>
    <path id="stroke-p7" style="stroke:#FF4444" pathLength="3333" clip-path="url(#z39069c7)" d="M 217 664 L 246 690 L 271 840"/>
    <path id="stroke-p8" style="stroke:#FF4444" pathLength="3333" clip-path="url(#z39069c8)" d="M 257 667 L 414 638 L 444 662 L 410 748"/>
    <path id="stroke-p9" style="stroke:#FF4444" pathLength="3333" clip-path="url(#z39069c9)" d="M 278 788 L 463 759"/>
    <path id="stroke-p10" style="stroke:#000" pathLength="3333" clip-path="url(#z39069c10)" d="M 558 182 L 624 187 L 865 135"/>
    <path id="stroke-p11" style="stroke:#000" pathLength="3333" clip-path="url(#z39069c11)" d="M 668 200 L 690 239 L 634 325"/>
    <path id="stroke-p12" style="stroke:#000" pathLength="3333" clip-path="url(#z39069c12)" d="M 535 323 L 566 370 L 564 680"/>
    <path id="stroke-p13" style="stroke:#000" pathLength="3333" clip-path="url(#z39069c13)" d="M 576 339 L 768 303 L 819 339 L 804 685"/>
    <path id="stroke-p14" style="stroke:#000" pathLength="3333" clip-path="url(#z39069c14)" d="M 634 399 L 683 439 L 650 707 L 592 811 L 458 888"/>
    <path id="stroke-p15" style="stroke:#000" pathLength="3333" clip-path="url(#z39069c15)" d="M 715 737 L 833 832 L 862 890"/>
</g>
</svg>