<svg id="z39269" class="acjk" viewBox="0 0 1024 1024" xmlns="http://www.w3.org/2000/svg">
<style>
<![CDATA[
svg.acjk path[clip-path] {
    animation-duration: 6.5s;
    animation-timing-function: linear;
    animation-iteration-count: infinite;
    stroke-dasharray: 3337;
    stroke-dashoffset: 3339;
    stroke-width: 128;
    stroke-linecap: round;
    fill: none;
    stroke: #FF4444;
}
svg.acjk .bg { fill: #ccc; opacity: 0.5; }

/* Stroke 1: Starts at 0.0%, finishes at 12.3%, holds until 61.5% */
@keyframes zk1 {
    0%, 0.0% { stroke-dashoffset: 3339; }
    12.3%, 61.5% { stroke-dashoffset: 0; }
    61.6%, 100% { stroke-dashoffset: 3339; }
}
svg.acjk #stroke-p1 { animation-name: zk1; }
/* Stroke 2: Starts at 12.3%, finishes at 24.6%, holds until 61.5% */
@keyframes zk2 {
    0%, 12.3% { stroke-dashoffset: 3339; }
    24.6%, 61.5% { stroke-dashoffset: 0; }
    61.6%, 100% { stroke-dashoffset: 3339; }
}
svg.acjk #stroke-p2 { animation-name: zk2; }
/* Stroke 3: Starts at 24.6%, finishes at 36.9%, holds until 61.5% */
@keyframes zk3 {
    0%, 24.6% { stroke-dashoffset: 3339; }
    36.9%, 61.5% { stroke-dashoffset: 0; }
    61.6%, 100% { stroke-dashoffset: 3339; }
}
svg.acjk #stroke-p3 { animation-name: zk3; }
/* Stroke 4: Starts at 36.9%, finishes at 49.2%, holds until 61.5% */
@keyframes zk4 {
    0%, 36.9% { stroke-dashoffset: 3339; }
    49.2%, 61.5% { stroke-dashoffset: 0; }
    61.6%, 100% { stroke-dashoffset: 3339; }
}
svg.acjk #stroke-p4 { animation-name: zk4; }
/* Stroke 5: Starts at 49.2%, finishes at 61.5%, holds until 61.5% */
@keyframes zk5 {
    0%, 49.2% { stroke-dashoffset: 3339; }
    61.5%, 61.5% { stroke-dashoffset: 0; }
    61.6%, 100% { stroke-dashoffset: 3339; }
}
svg.acjk #stroke-p5 { animation-name: zk5; }
]]>
</style>
<defs>
    <path id="p1" d="M 290 308 Q 320 250 358 165 Q 365 147 372 140 Q 379 133 375 123 Q 372 113 357 102 Q 315 75 285 87 Q 276 91 281 104 Q 309 185 197 376 Q 188 386 182 398 Q 145 453 52 563 Q 43 570 55 571 Q 121 550 229 409 Q 271 343 279 329 C 286 315 286 315 290 308 Z"/>
    <path id="p2" d="M 279 329 Q 298 336 383 320 Q 392 319 395 321 Q 398 322 395 331 Q 374 398 360 429 Q 354 442 354 448 Q 353 458 365 452 Q 375 446 426 384 Q 457 344 489 321 Q 507 311 494 298 Q 481 286 444 268 Q 428 262 414 273 Q 405 277 329 300 Q 311 304 290 308 C 282 309 271 327 279 329 Z"/>
    <path id="p3" d="M 323 498 Q 327 485 319 474 Q 295 452 274 441 Q 255 434 247 439 Q 237 445 245 461 Q 281 542 262 696 Q 259 745 220 793 Q 208 808 215 830 Q 225 857 238 868 Q 251 875 263 860 Q 278 832 421 712 Q 440 699 444 690 Q 448 680 438 680 Q 426 680 317 740 Q 308 747 306 737 Q 318 628 318 545 Q 318 520 323 498 Z"/>
    <path id="p4" d="M 600 304 Q 555 282 540 284 Q 522 287 537 307 Q 573 368 547 564 Q 538 616 513 680 Q 485 752 406 824 Q 394 836 391 841 Q 390 848 400 847 Q 434 847 501 774 Q 564 704 587 587 Q 605 424 606 357 Q 607 344 609 336 C 611 325 610 308 600 304 Z"/>
    <path id="p5" d="M 978 801 Q 997 791 989 769 Q 973 727 961 669 Q 955 638 948 632 Q 941 628 938 639 Q 920 735 887 765 Q 874 772 845 775 Q 808 776 786 770 Q 764 763 755 752 Q 722 704 758 462 Q 764 413 775 373 Q 782 337 814 310 Q 827 294 812 280 Q 791 264 745 248 Q 726 244 708 255 Q 666 286 600 304 C 589 306 598 338 609 336 Q 633 333 692 309 Q 704 305 710 308 Q 714 312 709 414 Q 687 739 718 779 Q 763 842 892 826 Q 935 822 978 801 Z"/>

    <clipPath id="z39269c1"><use href="#p1"/></clipPath>
    <clipPath id="z39269c2"><use href="#p2"/></clipPath>
    <clipPath id="z39269c3"><use href="#p3"/></clipPath>
    <clipPath id="z39269c4"><use href="#p4"/></clipPath>
    <clipPath id="z39269c5"><use href="#p5"/></clipPath>
</defs>
<g id="bg-layer" class="bg">
<use href="#p1"/>
<use href="#p2"/>
<use href="#p3"/>
<use href="#p4"/>
<use href="#p5"/>
</g>
<g id="anim-layer">
    <path id="stroke-p1" style="stroke:#FF4444" pathLength="3333" clip-path="url(#z39269c1)" d="M 284 92 L 331 137 L 267 299 L 184 433 L 57 565"/>
    <path id="stroke-p2" style="stroke:#FF4444" pathLength="3333" clip-path="url(#z39269c2)" d="M 286 324 L 413 296 L 445 313 L 360 446"/>
    <path id="stroke-p3" style="stroke:#FF4444" pathLength="3333" clip-path="url(#z39269c3)" d="M 249 445 L 292 504 L 264 818 L 438 688"/>
    <path id="stroke-p4" style="stroke:#000" pathLength="3333" clip-path="url(#z39269c4)" d="M 539 294 L 580 345 L 562 597 L 499 747 L 398 839"/>
    <path id="stroke-p5" style="stroke:#000" pathLength="3333" clip-path="url(#z39269c5)" d="M 612 328 L 719 277 L 767 306 L 722 568 L 742 772 L 830 802 L 929 779 L 951 758 L 944 640"/>
</g>
</svg>