<svg id="z39279" class="acjk" viewBox="0 0 1024 1024" xmlns="http://www.w3.org/2000/svg">
<style>
<![CDATA[
svg.acjk path[clip-path] {
    animation-duration: 8.9s;
    animation-timing-function: linear;
    animation-iteration-count: infinite;
    stroke-dasharray: 3337;
    stroke-dashoffset: 3339;
    stroke-width: 128;
    stroke-linecap: round;
    fill: none;
    stroke: #FF4444;
}
svg.acjk .bg { fill: #ccc; opacity: 0.5; }

/* Stroke 1: Starts at 0.0%, finishes at 9.0%, holds until 71.9% */
@keyframes zk1 {
    0%, 0.0% { stroke-dashoffset: 3339; }
    9.0%, 71.9% { stroke-dashoffset: 0; }
    72.0%, 100% { stroke-dashoffset: 3339; }
}
svg.acjk #stroke-p1 { animation-name: zk1; }
/* Stroke 2: Starts at 9.0%, finishes at 18.0%, holds until 71.9% */
@keyframes zk2 {
    0%, 9.0% { stroke-dashoffset: 3339; }
    18.0%, 71.9% { stroke-dashoffset: 0; }
    72.0%, 100% { stroke-dashoffset: 3339; }
}
svg.acjk #stroke-p2 { animation-name: zk2; }
/* Stroke 3: Starts at 18.0%, finishes at 27.0%, holds until 71.9% */
@keyframes zk3 {
    0%, 18.0% { stroke-dashoffset: 3339; }
    27.0%, 71.9% { stroke-dashoffset: 0; }
    72.0%, 100% { stroke-dashoffset: 3339; }
}
svg.acjk #stroke-p3 { animation-name: zk3; }
/* Stroke 4: Starts at 27.0%, finishes at 36.0%, holds until 71.9% */
@keyframes zk4 {
    0%, 27.0% { stroke-dashoffset: 3339; }
    36.0%, 71.9% { stroke-dashoffset: 0; }
    72.0%, 100% { stroke-dashoffset: 3339; }
}
svg.acjk #stroke-p4 { animation-name: zk4; }
/* Stroke 5: Starts at 36.0%, finishes at 44.9%, holds until 71.9% */
@keyframes zk5 {
    0%, 36.0% { stroke-dashoffset: 3339; }
    44.9%, 71.9% { stroke-dashoffset: 0; }
    72.0%, 100% { stroke-dashoffset: 3339; }
}
svg.acjk #stroke-p5 { animation-name: zk5; }
/* Stroke 6: Starts at 44.9%, finishes at 53.9%, holds until 71.9% */
@keyframes zk6 {
    0%, 44.9% { stroke-dashoffset: 3339; }
    53.9%, 71.9% { stroke-dashoffset: 0; }
    72.0%, 100% { stroke-dashoffset: 3339; }
}
svg.acjk #stroke-p6 { animation-name: zk6; }
/* Stroke 7: Starts at 53.9%, finishes at 62.9%, holds until 71.9% */
@keyframes zk7 {
    0%, 53.9% { stroke-dashoffset: 3339; }
    62.9%, 71.9% { stroke-dashoffset: 0; }
    72.0%, 100% { stroke-dashoffset: 3339; }
}
svg.acjk #stroke-p7 { animation-name: zk7; }
/* Stroke 8: Starts at 62.9%, finishes at 71.9%, holds until 71.9% */
@keyframes zk8 {
    0%, 62.9% { stroke-dashoffset: 3339; }
    71.9%, 71.9% { stroke-dashoffset: 0; }
    72.0%, 100% { stroke-dashoffset: 3339; }
}
svg.acjk #stroke-p8 { animation-name: zk8; }
]]>
</style>
<defs>
    <path id="p1" d="M 268 332 Q 296 278 331 199 Q 346 163 346 160 Q 343 151 329 141 Q 290 116 261 128 Q 252 132 257 144 Q 282 222 179 399 Q 176 400 175 405 Q 144 454 63 552 Q 56 559 67 560 Q 143 532 240 383 Q 241 379 245 375 Q 251 363 259 350 C 265 338 265 338 268 332 Z"/>
    <path id="p2" d="M 259 350 Q 275 357 366 333 Q 375 330 378 333 Q 381 336 377 344 Q 346 413 327 445 Q 320 458 318 464 Q 317 474 328 468 Q 341 462 397 397 Q 431 355 466 332 Q 482 322 471 309 Q 458 299 421 280 Q 411 277 345 305 Q 279 329 268 332 C 262 334 252 349 259 350 Z"/>
    <path id="p3" d="M 306 531 Q 312 518 302 506 Q 280 484 258 473 Q 240 466 231 471 Q 221 477 229 492 Q 262 565 244 712 Q 243 761 203 810 Q 193 826 200 848 Q 210 875 224 885 Q 237 892 248 876 Q 264 842 416 698 Q 432 683 437 674 Q 440 664 430 665 Q 421 665 292 753 Q 291 757 287 753 Q 300 653 301 574 Q 302 550 306 531 Z"/>
    <path id="p4" d="M 614 388 Q 749 339 760 329 Q 767 319 761 311 Q 752 301 721 298 Q 690 297 662 314 Q 634 327 605 342 C 576 354 576 354 561 360 Q 527 370 491 380 Q 455 393 485 405 Q 519 420 570 405 C 599 394 599 394 614 388 Z"/>
    <path id="p5" d="M 645 514 Q 684 499 811 461 Q 823 461 830 445 Q 829 432 802 425 Q 760 407 678 451 Q 657 458 638 467 Q 635 468 634 469 C 605 480 605 480 590 486 Q 580 489 443 532 Q 413 542 440 556 Q 482 577 510 565 Q 552 549 602 531 C 631 520 631 520 645 514 Z"/>
    <path id="p6" d="M 684 733 Q 744 841 824 904 Q 888 952 917 950 Q 938 944 929 916 Q 925 861 935 701 Q 935 679 927 677 Q 924 677 880 787 Q 862 835 837 826 Q 825 820 810 808 Q 762 762 723 701 C 706 671 706 671 698 656 Q 667 592 645 514 C 638 484 638 484 634 469 Q 622 427 614 388 C 608 357 608 357 605 342 Q 584 230 593 143 Q 605 100 544 79 Q 507 64 485 73 Q 463 80 475 102 Q 526 144 528 179 Q 544 278 561 360 C 567 390 567 390 570 405 Q 579 448 590 486 C 598 516 598 516 602 531 Q 618 594 662 688 C 677 718 677 718 684 733 Z"/>
    <path id="p7" d="M 662 688 Q 590 749 437 807 Q 427 811 433 817 Q 460 836 579 791 Q 639 772 684 733 C 710 712 710 712 723 701 Q 757 670 796 624 Q 815 603 836 584 Q 846 578 844 567 Q 841 555 818 530 Q 802 511 792 511 Q 779 510 775 525 Q 763 577 698 656 C 674 677 674 677 662 688 Z"/>
    <path id="p8" d="M 718 180 Q 752 208 790 241 Q 803 254 818 253 Q 828 252 833 239 Q 837 226 828 197 Q 822 175 787 157 Q 706 126 692 133 Q 688 137 689 149 Q 692 159 718 180 Z"/>

    <clipPath id="z39279c1"><use href="#p1"/></clipPath>
    <clipPath id="z39279c2"><use href="#p2"/></clipPath>
    <clipPath id="z39279c3"><use href="#p3"/></clipPath>
    <clipPath id="z39279c4"><use href="#p4"/></clipPath>
    <clipPath id="z39279c5"><use href="#p5"/></clipPath>
    <clipPath id="z39279c6"><use href="#p6"/></clipPath>
    <clipPath id="z39279c7"><use href="#p7"/></clipPath>
    <clipPath id="z39279c8"><use href="#p8"/></clipPath>
</defs>
<g id="bg-layer" class="bg">
<use href="#p1"/>
<use href="#p2"/>
<use href="#p3"/>
<use href="#p4"/>
<use href="#p5"/>
<use href="#p6"/>
<use href="#p7"/>
<use href="#p8"/>
</g>
<g id="anim-layer">
    <path id="stroke-p1" style="stroke:#FF4444" pathLength="3333" clip-path="url(#z39279c1)" d="M 260 133 L 304 167 L 258 297 L 183 429 L 68 553"/>
    <path id="stroke-p2" style="stroke:#FF4444" pathLength="3333" clip-path="url(#z39279c2)" d="M 269 345 L 383 309 L 426 327 L 325 464"/>
    <path id="stroke-p3" style="stroke:#FF4444" pathLength="3333" clip-path="url(#z39279c3)" d="M 233 473 L 275 533 L 244 831 L 431 672"/>
    <path id="stroke-p4" style="stroke:#000" pathLength="3333" clip-path="url(#z39279c4)" d="M 478 395 L 757 317"/>
    <path id="stroke-p5" style="stroke:#000" pathLength="3333" clip-path="url(#z39279c5)" d="M 435 545 L 492 544 L 770 445 L 824 448"/>
    <path id="stroke-p6" style="stroke:#000" pathLength="3333" clip-path="url(#z39279c6)" d="M 477 88 L 558 138 L 627 536 L 747 782 L 828 862 L 904 895 L 926 686"/>
    <path id="stroke-p7" style="stroke:#000" pathLength="3333" clip-path="url(#z39279c7)" d="M 790 514 L 803 566 L 708 681 L 601 758 L 442 813"/>
    <path id="stroke-p8" style="stroke:#000" pathLength="3333" clip-path="url(#z39279c8)" d="M 696 140 L 829 243"/>
</g>
</svg>