<svg id="z39564" class="acjk" viewBox="0 0 1024 1024" xmlns="http://www.w3.org/2000/svg">
<style>
<![CDATA[
svg.acjk path[clip-path] {
    animation-duration: 10.5s;
    animation-timing-function: linear;
    animation-iteration-count: infinite;
    stroke-dasharray: 3337;
    stroke-dashoffset: 3339;
    stroke-width: 128;
    stroke-linecap: round;
    fill: none;
    stroke: #FF4444;
}
svg.acjk .bg { fill: #ccc; opacity: 0.5; }

/* Stroke 1: Starts at 0.0%, finishes at 7.6%, holds until 76.2% */
@keyframes zk1 {
    0%, 0.0% { stroke-dashoffset: 3339; }
    7.6%, 76.2% { stroke-dashoffset: 0; }
    76.3%, 100% { stroke-dashoffset: 3339; }
}
svg.acjk #stroke-p1 { animation-name: zk1; }
/* Stroke 2: Starts at 7.6%, finishes at 15.2%, holds until 76.2% */
@keyframes zk2 {
    0%, 7.6% { stroke-dashoffset: 3339; }
    15.2%, 76.2% { stroke-dashoffset: 0; }
    76.3%, 100% { stroke-dashoffset: 3339; }
}
svg.acjk #stroke-p2 { animation-name: zk2; }
/* Stroke 3: Starts at 15.2%, finishes at 22.9%, holds until 76.2% */
@keyframes zk3 {
    0%, 15.2% { stroke-dashoffset: 3339; }
    22.9%, 76.2% { stroke-dashoffset: 0; }
    76.3%, 100% { stroke-dashoffset: 3339; }
}
svg.acjk #stroke-p3 { animation-name: zk3; }
/* Stroke 4: Starts at 22.9%, finishes at 30.5%, holds until 76.2% */
@keyframes zk4 {
    0%, 22.9% { stroke-dashoffset: 3339; }
    30.5%, 76.2% { stroke-dashoffset: 0; }
    76.3%, 100% { stroke-dashoffset: 3339; }
}
svg.acjk #stroke-p4 { animation-name: zk4; }
/* Stroke 5: Starts at 30.5%, finishes at 38.1%, holds until 76.2% */
@keyframes zk5 {
    0%, 30.5% { stroke-dashoffset: 3339; }
    38.1%, 76.2% { stroke-dashoffset: 0; }
    76.3%, 100% { stroke-dashoffset: 3339; }
}
svg.acjk #stroke-p5 { animation-name: zk5; }
/* Stroke 6: Starts at 38.1%, finishes at 45.7%, holds until 76.2% */
@keyframes zk6 {
    0%, 38.1% { stroke-dashoffset: 3339; }
    45.7%, 76.2% { stroke-dashoffset: 0; }
    76.3%, 100% { stroke-dashoffset: 3339; }
}
svg.acjk #stroke-p6 { animation-name: zk6; }
/* Stroke 7: Starts at 45.7%, finishes at 53.3%, holds until 76.2% */
@keyframes zk7 {
    0%, 45.7% { stroke-dashoffset: 3339; }
    53.3%, 76.2% { stroke-dashoffset: 0; }
    76.3%, 100% { stroke-dashoffset: 3339; }
}
svg.acjk #stroke-p7 { animation-name: zk7; }
/* Stroke 8: Starts at 53.3%, finishes at 61.0%, holds until 76.2% */
@keyframes zk8 {
    0%, 53.3% { stroke-dashoffset: 3339; }
    61.0%, 76.2% { stroke-dashoffset: 0; }
    76.3%, 100% { stroke-dashoffset: 3339; }
}
svg.acjk #stroke-p8 { animation-name: zk8; }
/* Stroke 9: Starts at 61.0%, finishes at 68.6%, holds until 76.2% */
@keyframes zk9 {
    0%, 61.0% { stroke-dashoffset: 3339; }
    68.6%, 76.2% { stroke-dashoffset: 0; }
    76.3%, 100% { stroke-dashoffset: 3339; }
}
svg.acjk #stroke-p9 { animation-name: zk9; }
/* Stroke 10: Starts at 68.6%, finishes at 76.2%, holds until 76.2% */
@keyframes zk10 {
    0%, 68.6% { stroke-dashoffset: 3339; }
    76.2%, 76.2% { stroke-dashoffset: 0; }
    76.3%, 100% { stroke-dashoffset: 3339; }
}
svg.acjk #stroke-p10 { animation-name: zk10; }
]]>
</style>
<defs>
    <path id="p1" d="M 360 478 Q 378 438 396 288 Q 406 236 439 205 Q 455 189 439 174 Q 420 159 370 139 Q 355 132 302 150 Q 295 150 211 179 Q 171 192 145 199 Q 129 200 127 206 Q 124 210 141 220 Q 175 233 193 225 Q 232 207 322 185 Q 338 181 344 184 Q 360 191 354 239 Q 333 417 320 453 Q 314 471 324 492 C 329 504 355 490 360 478 Z"/>
    <path id="p2" d="M 324 492 Q 290 498 230 515 Q 205 519 203 500 Q 206 359 219 328 Q 225 313 218 303 Q 203 287 180 277 Q 164 271 156 279 Q 150 283 157 294 Q 169 319 159 491 Q 156 509 152 527 Q 145 546 159 561 Q 177 576 199 563 Q 220 542 328 526 Q 359 523 372 535 Q 384 545 372 589 Q 365 655 355 724 Q 348 778 324 812 Q 317 822 297 822 Q 267 813 240 807 Q 227 803 227 809 Q 227 813 235 821 Q 284 867 301 900 Q 308 919 325 910 Q 386 877 397 810 Q 413 716 426 614 Q 433 577 450 547 Q 462 532 451 520 Q 435 501 398 480 Q 380 470 360 478 C 336 487 336 487 324 492 Z"/>
    <path id="p3" d="M 52 693 Q 39 694 37 705 Q 36 718 46 726 Q 68 742 103 758 Q 113 761 124 752 Q 155 727 189 707 Q 243 680 295 652 Q 314 642 329 629 Q 342 622 342 612 Q 336 606 324 610 Q 99 691 52 693 Z"/>
    <path id="p4" d="M 644 219 Q 663 177 682 156 Q 689 146 685 133 Q 679 120 650 101 Q 623 86 605 87 Q 587 91 597 111 Q 612 136 603 160 Q 561 296 444 466 Q 435 476 434 483 Q 431 493 444 490 Q 454 487 477 464 Q 513 430 554 369 Q 591 317 631 244 C 640 227 640 227 644 219 Z"/>
    <path id="p5" d="M 631 244 Q 701 353 793 471 Q 809 490 839 490 Q 938 490 969 486 Q 979 483 980 479 Q 981 475 968 467 Q 827 407 749 329 Q 698 280 644 219 C 638 212 625 236 631 244 Z"/>
    <path id="p6" d="M 525 491 Q 491 501 518 514 Q 560 532 613 515 Q 656 502 702 489 Q 723 482 726 479 Q 733 472 728 463 Q 721 453 691 448 Q 670 445 589 476 Q 559 485 525 491 Z"/>
    <path id="p7" d="M 477 674 Q 496 701 517 732 Q 526 745 538 747 Q 547 748 553 739 Q 560 729 558 703 Q 555 676 482 634 Q 470 628 464 630 Q 460 631 458 642 Q 459 652 477 674 Z"/>
    <path id="p8" d="M 558 596 Q 597 672 616 679 Q 626 683 635 669 Q 639 659 635 641 Q 628 608 567 575 Q 560 572 556 581 Q 553 588 558 596 Z"/>
    <path id="p9" d="M 675 803 Q 708 746 743 668 Q 756 638 780 601 Q 795 588 785 578 Q 775 562 744 543 Q 731 533 713 540 Q 703 544 710 556 Q 722 598 668 735 Q 643 792 640 810 C 638 822 670 814 675 803 Z"/>
    <path id="p10" d="M 640 810 Q 631 810 623 812 Q 544 824 448 838 Q 427 839 443 857 Q 474 885 513 876 Q 622 849 843 849 Q 862 848 867 840 Q 873 828 856 814 Q 801 772 734 791 Q 707 795 675 803 C 652 808 652 808 640 810 Z"/>

    <clipPath id="z39564c1"><use href="#p1"/></clipPath>
    <clipPath id="z39564c2"><use href="#p2"/></clipPath>
    <clipPath id="z39564c3"><use href="#p3"/></clipPath>
    <clipPath id="z39564c4"><use href="#p4"/></clipPath>
    <clipPath id="z39564c5"><use href="#p5"/></clipPath>
    <clipPath id="z39564c6"><use href="#p6"/></clipPath>
    <clipPath id="z39564c7"><use href="#p7"/></clipPath>
    <clipPath id="z39564c8"><use href="#p8"/></clipPath>
    <clipPath id="z39564c9"><use href="#p9"/></clipPath>
    <clipPath id="z39564c10"><use href="#p10"/></clipPath>
</defs>
<g id="bg-layer" class="bg">
<use href="#p1"/>
<use href="#p2"/>
<use href="#p3"/>
<use href="#p4"/>
<use href="#p5"/>
<use href="#p6"/>
<use href="#p7"/>
<use href="#p8"/>
<use href="#p9"/>
<use href="#p10"/>
</g>
<g id="anim-layer">
    <path id="stroke-p1" style="stroke:#FF4444" pathLength="3333" clip-path="url(#z39564c1)" d="M 134 206 L 336 161 L 400 196 L 334 487"/>
    <path id="stroke-p2" style="stroke:#FF4444" pathLength="3333" clip-path="url(#z39564c2)" d="M 162 283 L 191 319 L 183 534 L 372 502 L 417 542 L 347 842 L 305 867 L 233 811"/>
    <path id="stroke-p3" style="stroke:#FF4444" pathLength="3333" clip-path="url(#z39564c3)" d="M 42 708 L 111 720 L 336 616"/>
    <path id="stroke-p4" style="stroke:#000" pathLength="3333" clip-path="url(#z39564c4)" d="M 600 96 L 644 151 L 563 315 L 441 483"/>
    <path id="stroke-p5" style="stroke:#000" pathLength="3333" clip-path="url(#z39564c5)" d="M 647 229 L 815 435 L 974 475"/>
    <path id="stroke-p6" style="stroke:#000" pathLength="3333" clip-path="url(#z39564c6)" d="M 516 502 L 721 473"/>
    <path id="stroke-p7" style="stroke:#000" pathLength="3333" clip-path="url(#z39564c7)" d="M 468 637 L 542 741"/>
    <path id="stroke-p8" style="stroke:#000" pathLength="3333" clip-path="url(#z39564c8)" d="M 563 584 L 620 675"/>
    <path id="stroke-p9" style="stroke:#000" pathLength="3333" clip-path="url(#z39564c9)" d="M 712 543 L 749 591 L 647 803"/>
    <path id="stroke-p10" style="stroke:#000" pathLength="3333" clip-path="url(#z39564c10)" d="M 444 846 L 775 817 L 864 832"/>
</g>
</svg>