<svg id="z39610" class="acjk" viewBox="0 0 1024 1024" xmlns="http://www.w3.org/2000/svg">
<style>
<![CDATA[
svg.acjk path[clip-path] {
    animation-duration: 14.5s;
    animation-timing-function: linear;
    animation-iteration-count: infinite;
    stroke-dasharray: 3337;
    stroke-dashoffset: 3339;
    stroke-width: 128;
    stroke-linecap: round;
    fill: none;
    stroke: #FF4444;
}
svg.acjk .bg { fill: #ccc; opacity: 0.5; }

/* Stroke 1: Starts at 0.0%, finishes at 5.5%, holds until 82.8% */
@keyframes zk1 {
    0%, 0.0% { stroke-dashoffset: 3339; }
    5.5%, 82.8% { stroke-dashoffset: 0; }
    82.9%, 100% { stroke-dashoffset: 3339; }
}
svg.acjk #stroke-p1 { animation-name: zk1; }
/* Stroke 2: Starts at 5.5%, finishes at 11.0%, holds until 82.8% */
@keyframes zk2 {
    0%, 5.5% { stroke-dashoffset: 3339; }
    11.0%, 82.8% { stroke-dashoffset: 0; }
    82.9%, 100% { stroke-dashoffset: 3339; }
}
svg.acjk #stroke-p2 { animation-name: zk2; }
/* Stroke 3: Starts at 11.0%, finishes at 16.6%, holds until 82.8% */
@keyframes zk3 {
    0%, 11.0% { stroke-dashoffset: 3339; }
    16.6%, 82.8% { stroke-dashoffset: 0; }
    82.9%, 100% { stroke-dashoffset: 3339; }
}
svg.acjk #stroke-p3 { animation-name: zk3; }
/* Stroke 4: Starts at 16.6%, finishes at 22.1%, holds until 82.8% */
@keyframes zk4 {
    0%, 16.6% { stroke-dashoffset: 3339; }
    22.1%, 82.8% { stroke-dashoffset: 0; }
    82.9%, 100% { stroke-dashoffset: 3339; }
}
svg.acjk #stroke-p4 { animation-name: zk4; }
/* Stroke 5: Starts at 22.1%, finishes at 27.6%, holds until 82.8% */
@keyframes zk5 {
    0%, 22.1% { stroke-dashoffset: 3339; }
    27.6%, 82.8% { stroke-dashoffset: 0; }
    82.9%, 100% { stroke-dashoffset: 3339; }
}
svg.acjk #stroke-p5 { animation-name: zk5; }
/* Stroke 6: Starts at 27.6%, finishes at 33.1%, holds until 82.8% */
@keyframes zk6 {
    0%, 27.6% { stroke-dashoffset: 3339; }
    33.1%, 82.8% { stroke-dashoffset: 0; }
    82.9%, 100% { stroke-dashoffset: 3339; }
}
svg.acjk #stroke-p6 { animation-name: zk6; }
/* Stroke 7: Starts at 33.1%, finishes at 38.6%, holds until 82.8% */
@keyframes zk7 {
    0%, 33.1% { stroke-dashoffset: 3339; }
    38.6%, 82.8% { stroke-dashoffset: 0; }
    82.9%, 100% { stroke-dashoffset: 3339; }
}
svg.acjk #stroke-p7 { animation-name: zk7; }
/* Stroke 8: Starts at 38.6%, finishes at 44.1%, holds until 82.8% */
@keyframes zk8 {
    0%, 38.6% { stroke-dashoffset: 3339; }
    44.1%, 82.8% { stroke-dashoffset: 0; }
    82.9%, 100% { stroke-dashoffset: 3339; }
}
svg.acjk #stroke-p8 { animation-name: zk8; }
/* Stroke 9: Starts at 44.1%, finishes at 49.7%, holds until 82.8% */
@keyframes zk9 {
    0%, 44.1% { stroke-dashoffset: 3339; }
    49.7%, 82.8% { stroke-dashoffset: 0; }
    82.9%, 100% { stroke-dashoffset: 3339; }
}
svg.acjk #stroke-p9 { animation-name: zk9; }
/* Stroke 10: Starts at 49.7%, finishes at 55.2%, holds until 82.8% */
@keyframes zk10 {
    0%, 49.7% { stroke-dashoffset: 3339; }
    55.2%, 82.8% { stroke-dashoffset: 0; }
    82.9%, 100% { stroke-dashoffset: 3339; }
}
svg.acjk #stroke-p10 { animation-name: zk10; }
/* Stroke 11: Starts at 55.2%, finishes at 60.7%, holds until 82.8% */
@keyframes zk11 {
    0%, 55.2% { stroke-dashoffset: 3339; }
    60.7%, 82.8% { stroke-dashoffset: 0; }
    82.9%, 100% { stroke-dashoffset: 3339; }
}
svg.acjk #stroke-p11 { animation-name: zk11; }
/* Stroke 12: Starts at 60.7%, finishes at 66.2%, holds until 82.8% */
@keyframes zk12 {
    0%, 60.7% { stroke-dashoffset: 3339; }
    66.2%, 82.8% { stroke-dashoffset: 0; }
    82.9%, 100% { stroke-dashoffset: 3339; }
}
svg.acjk #stroke-p12 { animation-name: zk12; }
/* Stroke 13: Starts at 66.2%, finishes at 71.7%, holds until 82.8% */
@keyframes zk13 {
    0%, 66.2% { stroke-dashoffset: 3339; }
    71.7%, 82.8% { stroke-dashoffset: 0; }
    82.9%, 100% { stroke-dashoffset: 3339; }
}
svg.acjk #stroke-p13 { animation-name: zk13; }
/* Stroke 14: Starts at 71.7%, finishes at 77.2%, holds until 82.8% */
@keyframes zk14 {
    0%, 71.7% { stroke-dashoffset: 3339; }
    77.2%, 82.8% { stroke-dashoffset: 0; }
    82.9%, 100% { stroke-dashoffset: 3339; }
}
svg.acjk #stroke-p14 { animation-name: zk14; }
/* Stroke 15: Starts at 77.2%, finishes at 82.8%, holds until 82.8% */
@keyframes zk15 {
    0%, 77.2% { stroke-dashoffset: 3339; }
    82.8%, 82.8% { stroke-dashoffset: 0; }
    82.9%, 100% { stroke-dashoffset: 3339; }
}
svg.acjk #stroke-p15 { animation-name: zk15; }
]]>
</style>
<defs>
    <path id="p1" d="M 225 184 Q 204 169 180 162 Q 168 158 160 164 Q 154 168 160 182 Q 178 213 187 245 Q 194 278 210 407 C 212 419 245 415 245 403 Q 241 351 238 312 C 237 295 237 295 236 287 Q 236 283 236 279 Q 236 228 236 212 C 236 202 233 190 225 184 Z"/>
    <path id="p2" d="M 424 367 Q 437 243 475 199 Q 490 180 475 165 Q 406 120 352 147 Q 291 169 225 184 C 215 186 226 214 236 212 Q 246 211 258 206 Q 378 179 384 185 Q 397 195 397 223 Q 390 310 376 378 C 373 394 421 383 424 367 Z"/>
    <path id="p3" d="M 330 388 Q 336 321 352 300 Q 365 278 347 270 Q 331 264 310 254 Q 294 248 282 259 Q 272 269 258 276 Q 248 280 236 287 C 229 291 230 313 238 312 Q 262 306 286 301 Q 293 300 294 303 Q 300 307 294 395 C 294 407 330 400 330 388 Z"/>
    <path id="p4" d="M 155 414 Q 154 411 154 409 Q 144 390 133 383 Q 117 371 116 393 Q 122 423 84 473 Q 57 506 83 554 Q 96 575 112 551 C 137 480 137 480 150 445 C 154 435 157 424 155 414 Z"/>
    <path id="p5" d="M 150 445 Q 165 448 189 442 Q 313 414 427 396 Q 455 395 457 407 Q 457 417 439 460 Q 433 472 439 475 Q 445 478 455 468 Q 512 425 535 416 Q 553 412 552 401 Q 551 391 491 361 Q 467 351 424 367 C 392 374 392 374 376 378 Q 351 382 330 388 C 306 393 306 393 294 395 Q 270 398 245 403 C 222 406 222 406 210 407 Q 183 408 155 414 C 145 416 140 443 150 445 Z"/>
    <path id="p6" d="M 229 714 Q 232 674 236 642 C 237 625 237 625 238 617 Q 242 554 247 533 C 248 525 251 514 245 508 Q 227 486 196 485 Q 184 489 189 499 Q 229 599 178 784 Q 156 844 156 846 Q 156 871 170 892 Q 176 904 185 899 Q 218 875 226 768 Q 227 749 228 732 C 229 720 229 720 229 714 Z"/>
    <path id="p7" d="M 247 533 Q 260 533 343 510 Q 359 504 364 513 Q 368 523 370 540 Q 380 702 376 801 Q 375 823 368 833 Q 364 836 305 825 Q 289 819 289 828 Q 335 868 361 899 Q 371 915 385 919 Q 392 922 400 914 Q 434 869 433 826 Q 411 559 428 523 Q 438 507 428 498 Q 409 482 379 470 Q 364 464 312 491 Q 285 500 245 508 C 237 509 239 533 247 533 Z"/>
    <path id="p8" d="M 236 642 Q 239 642 329 632 Q 351 626 341 615 Q 331 602 306 599 Q 260 596 238 617 C 231 622 228 642 236 642 Z"/>
    <path id="p9" d="M 228 732 Q 231 735 328 727 Q 350 723 341 711 Q 331 698 307 694 Q 262 688 229 714 C 224 717 222 731 228 732 Z"/>
    <path id="p10" d="M 637 256 Q 719 234 749 221 Q 792 203 829 196 Q 845 195 849 187 Q 853 177 841 166 Q 822 151 779 135 Q 764 128 751 130 Q 744 133 744 144 Q 744 168 621 239 C 614 243 629 258 637 256 Z"/>
    <path id="p11" d="M 586 580 Q 607 505 618 434 C 620 414 620 414 621 404 Q 627 298 635 278 Q 641 266 637 256 C 635 248 627 244 621 239 Q 608 229 588 221 Q 569 211 556 217 Q 544 224 551 237 Q 569 258 569 329 Q 569 480 536 587 Q 509 671 446 782 Q 442 788 439 794 Q 438 804 448 802 Q 484 795 547 678 Q 554 662 563 644 Q 572 622 579 600 C 584 587 584 587 586 580 Z"/>
    <path id="p12" d="M 618 434 Q 664 447 751 430 Q 803 418 860 408 Q 894 399 899 395 Q 909 386 904 377 Q 895 364 864 357 Q 831 350 799 364 Q 762 377 719 388 Q 673 398 621 404 C 611 406 608 432 618 434 Z"/>
    <path id="p13" d="M 633 596 Q 611 580 586 580 C 579 580 576 593 579 600 Q 609 681 616 805 Q 616 842 634 869 Q 649 890 654 876 Q 661 860 661 830 C 660 806 660 806 659 794 Q 643 670 641 629 C 641 618 642 603 633 596 Z"/>
    <path id="p14" d="M 838 774 Q 860 654 898 625 Q 914 604 898 586 Q 820 532 762 561 Q 687 585 633 596 C 622 598 630 631 641 629 Q 644 629 778 607 Q 790 604 794 609 Q 806 619 805 642 Q 799 712 787 769 C 784 786 835 791 838 774 Z"/>
    <path id="p15" d="M 661 830 Q 674 833 690 830 Q 742 820 854 814 Q 866 813 867 803 Q 867 794 838 774 C 823 765 804 769 787 769 Q 783 768 780 769 Q 713 785 659 794 C 647 796 649 828 661 830 Z"/>

    <clipPath id="z39610c1"><use href="#p1"/></clipPath>
    <clipPath id="z39610c2"><use href="#p2"/></clipPath>
    <clipPath id="z39610c3"><use href="#p3"/></clipPath>
    <clipPath id="z39610c4"><use href="#p4"/></clipPath>
    <clipPath id="z39610c5"><use href="#p5"/></clipPath>
    <clipPath id="z39610c6"><use href="#p6"/></clipPath>
    <clipPath id="z39610c7"><use href="#p7"/></clipPath>
    <clipPath id="z39610c8"><use href="#p8"/></clipPath>
    <clipPath id="z39610c9"><use href="#p9"/></clipPath>
    <clipPath id="z39610c10"><use href="#p10"/></clipPath>
    <clipPath id="z39610c11"><use href="#p11"/></clipPath>
    <clipPath id="z39610c12"><use href="#p12"/></clipPath>
    <clipPath id="z39610c13"><use href="#p13"/></clipPath>
    <clipPath id="z39610c14"><use href="#p14"/></clipPath>
    <clipPath id="z39610c15"><use href="#p15"/></clipPath>
</defs>
<g id="bg-layer" class="bg">
<use href="#p1"/>
<use href="#p2"/>
<use href="#p3"/>
<use href="#p4"/>
<use href="#p5"/>
<use href="#p6"/>
<use href="#p7"/>
<use href="#p8"/>
<use href="#p9"/>
<use href="#p10"/>
<use href="#p11"/>
<use href="#p12"/>
<use href="#p13"/>
<use href="#p14"/>
<use href="#p15"/>
</g>
<g id="anim-layer">
    <path id="stroke-p1" style="stroke:#FF4444" pathLength="3333" clip-path="url(#z39610c1)" d="M 165 169 L 208 218 L 219 403"/>
    <path id="stroke-p2" style="stroke:#FF4444" pathLength="3333" clip-path="url(#z39610c2)" d="M 233 189 L 380 161 L 427 180 L 438 202 L 386 374"/>
    <path id="stroke-p3" style="stroke:#FF4444" pathLength="3333" clip-path="url(#z39610c3)" d="M 244 303 L 290 277 L 326 292 L 307 391"/>
    <path id="stroke-p4" style="stroke:#FF4444" pathLength="3333" clip-path="url(#z39610c4)" d="M 125 384 L 133 423 L 97 559"/>
    <path id="stroke-p5" style="stroke:#FF4444" pathLength="3333" clip-path="url(#z39610c5)" d="M 156 439 L 453 378 L 502 415 L 442 468"/>
    <path id="stroke-p6" style="stroke:#FF4444" pathLength="3333" clip-path="url(#z39610c6)" d="M 196 496 L 223 528 L 223 594 L 177 892"/>
    <path id="stroke-p7" style="stroke:#FF4444" pathLength="3333" clip-path="url(#z39610c7)" d="M 252 524 L 352 490 L 401 520 L 399 843 L 372 876 L 300 830"/>
    <path id="stroke-p8" style="stroke:#FF4444" pathLength="3333" clip-path="url(#z39610c8)" d="M 243 635 L 339 620"/>
    <path id="stroke-p9" style="stroke:#FF4444" pathLength="3333" clip-path="url(#z39610c9)" d="M 235 725 L 337 714"/>
    <path id="stroke-p10" style="stroke:#000" pathLength="3333" clip-path="url(#z39610c10)" d="M 846 183 L 764 171 L 628 246"/>
    <path id="stroke-p11" style="stroke:#000" pathLength="3333" clip-path="url(#z39610c11)" d="M 556 222 L 602 274 L 587 466 L 541 639 L 447 794"/>
    <path id="stroke-p12" style="stroke:#000" pathLength="3333" clip-path="url(#z39610c12)" d="M 622 427 L 901 384"/>
    <path id="stroke-p13" style="stroke:#000" pathLength="3333" clip-path="url(#z39610c13)" d="M 589 591 L 614 623 L 648 874"/>
    <path id="stroke-p14" style="stroke:#000" pathLength="3333" clip-path="url(#z39610c14)" d="M 639 599 L 793 578 L 843 600 L 855 621 L 804 770"/>
    <path id="stroke-p15" style="stroke:#000" pathLength="3333" clip-path="url(#z39610c15)" d="M 669 824 L 771 795 L 861 799"/>
</g>
</svg>