<svg id="z39749" class="acjk" viewBox="0 0 1024 1024" xmlns="http://www.w3.org/2000/svg">
<style>
<![CDATA[
svg.acjk path[clip-path] {
    animation-duration: 13.700000000000001s;
    animation-timing-function: linear;
    animation-iteration-count: infinite;
    stroke-dasharray: 3337;
    stroke-dashoffset: 3339;
    stroke-width: 128;
    stroke-linecap: round;
    fill: none;
    stroke: #FF4444;
}
svg.acjk .bg { fill: #ccc; opacity: 0.5; }

/* Stroke 1: Starts at 0.0%, finishes at 5.8%, holds until 81.8% */
@keyframes zk1 {
    0%, 0.0% { stroke-dashoffset: 3339; }
    5.8%, 81.8% { stroke-dashoffset: 0; }
    81.9%, 100% { stroke-dashoffset: 3339; }
}
svg.acjk #stroke-p1 { animation-name: zk1; }
/* Stroke 2: Starts at 5.8%, finishes at 11.7%, holds until 81.8% */
@keyframes zk2 {
    0%, 5.8% { stroke-dashoffset: 3339; }
    11.7%, 81.8% { stroke-dashoffset: 0; }
    81.9%, 100% { stroke-dashoffset: 3339; }
}
svg.acjk #stroke-p2 { animation-name: zk2; }
/* Stroke 3: Starts at 11.7%, finishes at 17.5%, holds until 81.8% */
@keyframes zk3 {
    0%, 11.7% { stroke-dashoffset: 3339; }
    17.5%, 81.8% { stroke-dashoffset: 0; }
    81.9%, 100% { stroke-dashoffset: 3339; }
}
svg.acjk #stroke-p3 { animation-name: zk3; }
/* Stroke 4: Starts at 17.5%, finishes at 23.4%, holds until 81.8% */
@keyframes zk4 {
    0%, 17.5% { stroke-dashoffset: 3339; }
    23.4%, 81.8% { stroke-dashoffset: 0; }
    81.9%, 100% { stroke-dashoffset: 3339; }
}
svg.acjk #stroke-p4 { animation-name: zk4; }
/* Stroke 5: Starts at 23.4%, finishes at 29.2%, holds until 81.8% */
@keyframes zk5 {
    0%, 23.4% { stroke-dashoffset: 3339; }
    29.2%, 81.8% { stroke-dashoffset: 0; }
    81.9%, 100% { stroke-dashoffset: 3339; }
}
svg.acjk #stroke-p5 { animation-name: zk5; }
/* Stroke 6: Starts at 29.2%, finishes at 35.0%, holds until 81.8% */
@keyframes zk6 {
    0%, 29.2% { stroke-dashoffset: 3339; }
    35.0%, 81.8% { stroke-dashoffset: 0; }
    81.9%, 100% { stroke-dashoffset: 3339; }
}
svg.acjk #stroke-p6 { animation-name: zk6; }
/* Stroke 7: Starts at 35.0%, finishes at 40.9%, holds until 81.8% */
@keyframes zk7 {
    0%, 35.0% { stroke-dashoffset: 3339; }
    40.9%, 81.8% { stroke-dashoffset: 0; }
    81.9%, 100% { stroke-dashoffset: 3339; }
}
svg.acjk #stroke-p7 { animation-name: zk7; }
/* Stroke 8: Starts at 40.9%, finishes at 46.7%, holds until 81.8% */
@keyframes zk8 {
    0%, 40.9% { stroke-dashoffset: 3339; }
    46.7%, 81.8% { stroke-dashoffset: 0; }
    81.9%, 100% { stroke-dashoffset: 3339; }
}
svg.acjk #stroke-p8 { animation-name: zk8; }
/* Stroke 9: Starts at 46.7%, finishes at 52.6%, holds until 81.8% */
@keyframes zk9 {
    0%, 46.7% { stroke-dashoffset: 3339; }
    52.6%, 81.8% { stroke-dashoffset: 0; }
    81.9%, 100% { stroke-dashoffset: 3339; }
}
svg.acjk #stroke-p9 { animation-name: zk9; }
/* Stroke 10: Starts at 52.6%, finishes at 58.4%, holds until 81.8% */
@keyframes zk10 {
    0%, 52.6% { stroke-dashoffset: 3339; }
    58.4%, 81.8% { stroke-dashoffset: 0; }
    81.9%, 100% { stroke-dashoffset: 3339; }
}
svg.acjk #stroke-p10 { animation-name: zk10; }
/* Stroke 11: Starts at 58.4%, finishes at 64.2%, holds until 81.8% */
@keyframes zk11 {
    0%, 58.4% { stroke-dashoffset: 3339; }
    64.2%, 81.8% { stroke-dashoffset: 0; }
    81.9%, 100% { stroke-dashoffset: 3339; }
}
svg.acjk #stroke-p11 { animation-name: zk11; }
/* Stroke 12: Starts at 64.2%, finishes at 70.1%, holds until 81.8% */
@keyframes zk12 {
    0%, 64.2% { stroke-dashoffset: 3339; }
    70.1%, 81.8% { stroke-dashoffset: 0; }
    81.9%, 100% { stroke-dashoffset: 3339; }
}
svg.acjk #stroke-p12 { animation-name: zk12; }
/* Stroke 13: Starts at 70.1%, finishes at 75.9%, holds until 81.8% */
@keyframes zk13 {
    0%, 70.1% { stroke-dashoffset: 3339; }
    75.9%, 81.8% { stroke-dashoffset: 0; }
    81.9%, 100% { stroke-dashoffset: 3339; }
}
svg.acjk #stroke-p13 { animation-name: zk13; }
/* Stroke 14: Starts at 75.9%, finishes at 81.8%, holds until 81.8% */
@keyframes zk14 {
    0%, 75.9% { stroke-dashoffset: 3339; }
    81.8%, 81.8% { stroke-dashoffset: 0; }
    81.9%, 100% { stroke-dashoffset: 3339; }
}
svg.acjk #stroke-p14 { animation-name: zk14; }
]]>
</style>
<defs>
    <path id="p1" d="M 239 252 Q 273 212 323 145 Q 336 124 356 108 Q 374 93 358 79 Q 342 67 313 61 Q 286 54 275 61 Q 263 65 271 77 Q 281 99 236 205 Q 223 230 211 259 C 207 268 233 260 239 252 Z"/>
    <path id="p2" d="M 165 267 Q 155 263 135 260 Q 123 257 121 261 Q 115 267 122 281 Q 153 348 169 458 Q 169 488 190 514 Q 206 533 210 519 Q 211 512 213 503 C 213 484 213 484 213 475 Q 212 462 210 447 Q 188 332 183 297 C 181 286 176 271 165 267 Z"/>
    <path id="p3" d="M 394 477 Q 400 493 412 491 Q 425 490 432 475 Q 445 456 466 365 Q 481 316 514 288 Q 532 272 516 258 Q 500 242 452 218 Q 439 209 371 226 Q 349 226 239 252 C 220 257 220 257 211 259 Q 186 263 165 267 C 154 269 172 301 183 297 Q 182 296 184 296 Q 215 284 271 274 C 295 270 295 270 307 268 Q 400 247 419 257 Q 429 263 425 296 Q 406 420 395 445 Q 394 446 393 450 C 390 458 391 469 394 477 Z"/>
    <path id="p4" d="M 326 380 Q 351 373 378 369 Q 397 365 389 354 Q 379 342 358 340 Q 348 339 333 343 C 298 354 298 354 281 359 Q 247 371 217 381 Q 204 385 221 397 Q 225 400 276 391 C 309 384 309 384 326 380 Z"/>
    <path id="p5" d="M 304 487 Q 343 480 394 477 C 403 477 401 455 393 450 Q 381 438 311 455 C 279 462 279 462 263 466 Q 235 470 213 475 C 204 477 204 506 213 503 Q 231 497 257 494 C 288 489 288 489 304 487 Z"/>
    <path id="p6" d="M 257 494 Q 211 677 80 850 Q 76 854 73 860 Q 70 869 79 868 Q 104 865 180 772 Q 199 745 219 713 Q 273 614 304 487 C 309 466 309 466 311 455 Q 315 434 320 414 Q 323 396 326 380 C 331 355 331 355 333 343 Q 343 298 344 297 Q 331 281 307 268 C 297 262 266 263 271 274 Q 272 275 273 278 Q 285 303 281 359 C 278 380 278 380 276 391 Q 270 428 263 466 C 259 485 259 485 257 494 Z"/>
    <path id="p7" d="M 950 817 Q 934 771 926 694 Q 925 679 917 674 Q 910 670 906 688 Q 888 782 874 799 Q 817 859 596 859 Q 475 855 423 833 Q 377 809 368 779 Q 359 754 361 688 Q 368 618 382 583 Q 395 555 377 538 Q 329 501 314 505 Q 299 511 307 527 Q 325 563 320 616 Q 313 785 343 826 Q 379 887 513 903 Q 606 913 751 902 Q 881 890 932 861 Q 960 846 950 817 Z"/>
    <path id="p8" d="M 510 672 Q 479 676 446 684 Q 442 685 441 685 Q 440 684 442 677 Q 493 595 504 581 Q 511 574 507 565 Q 501 556 466 544 Q 454 540 447 543 Q 440 549 445 562 Q 466 616 384 696 Q 381 697 380 700 Q 370 709 374 717 Q 378 727 398 741 Q 407 748 415 739 Q 434 718 518 692 C 525 689 517 671 510 672 Z"/>
    <path id="p9" d="M 530 647 Q 520 635 513 633 Q 507 629 504 637 Q 500 641 503 650 Q 506 660 510 672 C 515 685 515 685 518 692 Q 519 693 520 696 Q 527 712 538 717 Q 547 721 556 711 Q 560 702 560 686 Q 557 674 534 651 C 531 648 531 648 530 647 Z"/>
    <path id="p10" d="M 710 332 Q 743 323 778 316 Q 803 309 808 306 Q 815 299 811 291 Q 804 281 777 274 Q 740 268 711 287 C 700 294 686 299 673 299 Q 667 299 663 301 Q 629 308 587 314 Q 554 321 578 335 Q 617 354 668 342 Q 669 341 673 342 C 686 342 697 335 710 332 Z"/>
    <path id="p11" d="M 715 458 Q 727 454 848 440 Q 857 441 865 430 Q 866 420 847 411 Q 813 393 732 417 Q 720 420 709 423 C 684 428 684 428 671 431 Q 595 440 536 448 Q 511 451 530 465 Q 558 486 595 479 Q 620 473 651 469 C 694 462 694 462 715 458 Z"/>
    <path id="p12" d="M 709 423 Q 709 380 710 332 C 711 302 711 302 711 287 Q 711 205 726 152 Q 733 139 731 127 Q 725 120 678 91 Q 659 76 641 90 Q 637 94 642 107 Q 670 147 671 189 Q 671 240 673 299 C 673 328 673 328 673 342 Q 672 385 671 431 C 671 486 671 486 671 514 Q 671 619 651 692 Q 642 722 664 778 Q 670 793 677 795 Q 681 801 688 794 Q 695 790 703 772 Q 712 751 711 725 Q 710 694 709 496 C 709 447 709 447 709 423 Z"/>
    <path id="p13" d="M 651 469 Q 608 550 532 642 Q 531 643 530 647 C 529 649 532 651 534 651 Q 573 651 664 525 Q 667 519 671 514 C 698 480 670 430 651 469 Z"/>
    <path id="p14" d="M 709 496 Q 743 557 789 625 Q 799 638 820 639 Q 887 642 908 639 Q 915 638 916 635 Q 917 632 909 626 Q 810 575 733 480 Q 724 470 715 458 C 700 439 698 474 709 496 Z"/>

    <clipPath id="z39749c1"><use href="#p1"/></clipPath>
    <clipPath id="z39749c2"><use href="#p2"/></clipPath>
    <clipPath id="z39749c3"><use href="#p3"/></clipPath>
    <clipPath id="z39749c4"><use href="#p4"/></clipPath>
    <clipPath id="z39749c5"><use href="#p5"/></clipPath>
    <clipPath id="z39749c6"><use href="#p6"/></clipPath>
    <clipPath id="z39749c7"><use href="#p7"/></clipPath>
    <clipPath id="z39749c8"><use href="#p8"/></clipPath>
    <clipPath id="z39749c9"><use href="#p9"/></clipPath>
    <clipPath id="z39749c10"><use href="#p10"/></clipPath>
    <clipPath id="z39749c11"><use href="#p11"/></clipPath>
    <clipPath id="z39749c12"><use href="#p12"/></clipPath>
    <clipPath id="z39749c13"><use href="#p13"/></clipPath>
    <clipPath id="z39749c14"><use href="#p14"/></clipPath>
</defs>
<g id="bg-layer" class="bg">
<use href="#p1"/>
<use href="#p2"/>
<use href="#p3"/>
<use href="#p4"/>
<use href="#p5"/>
<use href="#p6"/>
<use href="#p7"/>
<use href="#p8"/>
<use href="#p9"/>
<use href="#p10"/>
<use href="#p11"/>
<use href="#p12"/>
<use href="#p13"/>
<use href="#p14"/>
</g>
<g id="anim-layer">
    <path id="stroke-p1" style="stroke:#FF4444" pathLength="3333" clip-path="url(#z39749c1)" d="M 274 64 L 316 105 L 218 253"/>
    <path id="stroke-p2" style="stroke:#FF4444" pathLength="3333" clip-path="url(#z39749c2)" d="M 127 268 L 164 324 L 198 520"/>
    <path id="stroke-p3" style="stroke:#FF4444" pathLength="3333" clip-path="url(#z39749c3)" d="M 177 273 L 413 235 L 452 249 L 473 288 L 405 487"/>
    <path id="stroke-p4" style="stroke:#FF4444" pathLength="3333" clip-path="url(#z39749c4)" d="M 219 388 L 383 354"/>
    <path id="stroke-p5" style="stroke:#FF4444" pathLength="3333" clip-path="url(#z39749c5)" d="M 217 494 L 392 462"/>
    <path id="stroke-p6" style="stroke:#FF4444" pathLength="3333" clip-path="url(#z39749c6)" d="M 279 276 L 312 312 L 261 559 L 196 710 L 79 861"/>
    <path id="stroke-p7" style="stroke:#FF4444" pathLength="3333" clip-path="url(#z39749c7)" d="M 311 512 L 352 560 L 353 800 L 438 863 L 633 883 L 855 853 L 913 818 L 916 681"/>
    <path id="stroke-p8" style="stroke:#FF4444" pathLength="3333" clip-path="url(#z39749c8)" d="M 452 552 L 478 584 L 411 701 L 511 687"/>
    <path id="stroke-p9" style="stroke:#FF4444" pathLength="3333" clip-path="url(#z39749c9)" d="M 510 641 L 542 713"/>
    <path id="stroke-p10" style="stroke:#000" pathLength="3333" clip-path="url(#z39749c10)" d="M 577 324 L 807 296"/>
    <path id="stroke-p11" style="stroke:#000" pathLength="3333" clip-path="url(#z39749c11)" d="M 528 454 L 858 424"/>
    <path id="stroke-p12" style="stroke:#000" pathLength="3333" clip-path="url(#z39749c12)" d="M 646 95 L 699 147 L 679 793"/>
    <path id="stroke-p13" style="stroke:#000" pathLength="3333" clip-path="url(#z39749c13)" d="M 665 474 L 541 643"/>
    <path id="stroke-p14" style="stroke:#000" pathLength="3333" clip-path="url(#z39749c14)" d="M 714 464 L 810 601 L 907 632"/>
</g>
</svg>