<svg id="z40103" class="acjk" viewBox="0 0 1024 1024" xmlns="http://www.w3.org/2000/svg">
<style>
<![CDATA[
svg.acjk path[clip-path] {
    animation-duration: 14.5s;
    animation-timing-function: linear;
    animation-iteration-count: infinite;
    stroke-dasharray: 3337;
    stroke-dashoffset: 3339;
    stroke-width: 128;
    stroke-linecap: round;
    fill: none;
    stroke: #FF4444;
}
svg.acjk .bg { fill: #ccc; opacity: 0.5; }

/* Stroke 1: Starts at 0.0%, finishes at 5.5%, holds until 82.8% */
@keyframes zk1 {
    0%, 0.0% { stroke-dashoffset: 3339; }
    5.5%, 82.8% { stroke-dashoffset: 0; }
    82.9%, 100% { stroke-dashoffset: 3339; }
}
svg.acjk #stroke-p1 { animation-name: zk1; }
/* Stroke 2: Starts at 5.5%, finishes at 11.0%, holds until 82.8% */
@keyframes zk2 {
    0%, 5.5% { stroke-dashoffset: 3339; }
    11.0%, 82.8% { stroke-dashoffset: 0; }
    82.9%, 100% { stroke-dashoffset: 3339; }
}
svg.acjk #stroke-p2 { animation-name: zk2; }
/* Stroke 3: Starts at 11.0%, finishes at 16.6%, holds until 82.8% */
@keyframes zk3 {
    0%, 11.0% { stroke-dashoffset: 3339; }
    16.6%, 82.8% { stroke-dashoffset: 0; }
    82.9%, 100% { stroke-dashoffset: 3339; }
}
svg.acjk #stroke-p3 { animation-name: zk3; }
/* Stroke 4: Starts at 16.6%, finishes at 22.1%, holds until 82.8% */
@keyframes zk4 {
    0%, 16.6% { stroke-dashoffset: 3339; }
    22.1%, 82.8% { stroke-dashoffset: 0; }
    82.9%, 100% { stroke-dashoffset: 3339; }
}
svg.acjk #stroke-p4 { animation-name: zk4; }
/* Stroke 5: Starts at 22.1%, finishes at 27.6%, holds until 82.8% */
@keyframes zk5 {
    0%, 22.1% { stroke-dashoffset: 3339; }
    27.6%, 82.8% { stroke-dashoffset: 0; }
    82.9%, 100% { stroke-dashoffset: 3339; }
}
svg.acjk #stroke-p5 { animation-name: zk5; }
/* Stroke 6: Starts at 27.6%, finishes at 33.1%, holds until 82.8% */
@keyframes zk6 {
    0%, 27.6% { stroke-dashoffset: 3339; }
    33.1%, 82.8% { stroke-dashoffset: 0; }
    82.9%, 100% { stroke-dashoffset: 3339; }
}
svg.acjk #stroke-p6 { animation-name: zk6; }
/* Stroke 7: Starts at 33.1%, finishes at 38.6%, holds until 82.8% */
@keyframes zk7 {
    0%, 33.1% { stroke-dashoffset: 3339; }
    38.6%, 82.8% { stroke-dashoffset: 0; }
    82.9%, 100% { stroke-dashoffset: 3339; }
}
svg.acjk #stroke-p7 { animation-name: zk7; }
/* Stroke 8: Starts at 38.6%, finishes at 44.1%, holds until 82.8% */
@keyframes zk8 {
    0%, 38.6% { stroke-dashoffset: 3339; }
    44.1%, 82.8% { stroke-dashoffset: 0; }
    82.9%, 100% { stroke-dashoffset: 3339; }
}
svg.acjk #stroke-p8 { animation-name: zk8; }
/* Stroke 9: Starts at 44.1%, finishes at 49.7%, holds until 82.8% */
@keyframes zk9 {
    0%, 44.1% { stroke-dashoffset: 3339; }
    49.7%, 82.8% { stroke-dashoffset: 0; }
    82.9%, 100% { stroke-dashoffset: 3339; }
}
svg.acjk #stroke-p9 { animation-name: zk9; }
/* Stroke 10: Starts at 49.7%, finishes at 55.2%, holds until 82.8% */
@keyframes zk10 {
    0%, 49.7% { stroke-dashoffset: 3339; }
    55.2%, 82.8% { stroke-dashoffset: 0; }
    82.9%, 100% { stroke-dashoffset: 3339; }
}
svg.acjk #stroke-p10 { animation-name: zk10; }
/* Stroke 11: Starts at 55.2%, finishes at 60.7%, holds until 82.8% */
@keyframes zk11 {
    0%, 55.2% { stroke-dashoffset: 3339; }
    60.7%, 82.8% { stroke-dashoffset: 0; }
    82.9%, 100% { stroke-dashoffset: 3339; }
}
svg.acjk #stroke-p11 { animation-name: zk11; }
/* Stroke 12: Starts at 60.7%, finishes at 66.2%, holds until 82.8% */
@keyframes zk12 {
    0%, 60.7% { stroke-dashoffset: 3339; }
    66.2%, 82.8% { stroke-dashoffset: 0; }
    82.9%, 100% { stroke-dashoffset: 3339; }
}
svg.acjk #stroke-p12 { animation-name: zk12; }
/* Stroke 13: Starts at 66.2%, finishes at 71.7%, holds until 82.8% */
@keyframes zk13 {
    0%, 66.2% { stroke-dashoffset: 3339; }
    71.7%, 82.8% { stroke-dashoffset: 0; }
    82.9%, 100% { stroke-dashoffset: 3339; }
}
svg.acjk #stroke-p13 { animation-name: zk13; }
/* Stroke 14: Starts at 71.7%, finishes at 77.2%, holds until 82.8% */
@keyframes zk14 {
    0%, 71.7% { stroke-dashoffset: 3339; }
    77.2%, 82.8% { stroke-dashoffset: 0; }
    82.9%, 100% { stroke-dashoffset: 3339; }
}
svg.acjk #stroke-p14 { animation-name: zk14; }
/* Stroke 15: Starts at 77.2%, finishes at 82.8%, holds until 82.8% */
@keyframes zk15 {
    0%, 77.2% { stroke-dashoffset: 3339; }
    82.8%, 82.8% { stroke-dashoffset: 0; }
    82.9%, 100% { stroke-dashoffset: 3339; }
}
svg.acjk #stroke-p15 { animation-name: zk15; }
]]>
</style>
<defs>
    <path id="p1" d="M 295 217 Q 346 141 368 124 Q 377 115 373 103 Q 370 93 347 72 Q 325 56 310 54 Q 294 55 300 74 Q 307 95 300 113 Q 273 171 235 225 Q 198 277 147 334 Q 138 343 136 347 Q 132 357 144 355 Q 180 349 283 231 C 291 222 291 222 295 217 Z"/>
    <path id="p2" d="M 342 364 Q 361 343 395 302 Q 432 254 470 227 Q 486 217 475 205 Q 462 195 427 175 Q 417 172 345 200 Q 312 212 295 217 C 289 219 278 228 283 231 Q 298 243 372 226 Q 379 225 381 226 Q 385 229 380 239 Q 343 320 320 358 Q 316 365 313 371 C 309 380 336 372 342 364 Z"/>
    <path id="p3" d="M 188 399 Q 178 395 158 392 Q 148 389 144 393 Q 140 399 146 413 Q 174 476 190 578 Q 193 609 210 630 Q 226 649 230 635 Q 233 625 234 613 C 233 597 233 597 233 589 Q 232 579 230 568 Q 211 456 207 426 C 205 415 198 403 188 399 Z"/>
    <path id="p4" d="M 387 590 Q 400 608 413 614 Q 423 621 436 602 Q 449 580 474 456 Q 481 428 501 406 Q 513 396 502 383 Q 489 368 450 346 Q 435 340 368 358 Q 358 358 342 364 C 323 369 323 369 313 371 Q 292 374 188 399 C 177 401 197 430 207 426 Q 240 416 286 405 C 309 400 309 400 321 398 Q 405 376 419 389 Q 431 402 428 416 Q 409 531 400 549 Q 396 558 388 562 C 380 567 381 583 387 590 Z"/>
    <path id="p5" d="M 336 497 Q 361 490 385 488 Q 404 484 397 474 Q 388 462 367 459 Q 354 458 337 462 C 310 471 310 471 296 475 Q 272 482 253 489 Q 240 493 257 505 Q 260 508 297 503 C 323 499 323 499 336 497 Z"/>
    <path id="p6" d="M 333 563 Q 334 527 336 497 C 337 474 337 474 337 462 Q 337 447 339 432 Q 345 413 321 398 C 311 392 282 394 286 405 Q 292 411 296 475 C 297 494 297 494 297 503 Q 297 531 298 572 C 298 584 333 575 333 563 Z"/>
    <path id="p7" d="M 234 613 Q 238 613 243 612 Q 325 597 387 590 C 396 588 397 565 388 562 Q 382 559 375 558 Q 359 557 333 563 C 310 569 310 569 298 572 Q 262 579 233 589 C 226 592 226 613 234 613 Z"/>
    <path id="p8" d="M 124 746 Q 111 747 109 757 Q 106 770 115 778 Q 137 796 169 815 Q 179 819 191 811 Q 227 787 398 718 Q 423 709 440 696 Q 453 689 454 680 Q 450 676 437 677 Q 319 710 173 743 Q 154 747 124 746 Z"/>
    <path id="p9" d="M 650 192 Q 699 176 737 156 Q 777 140 811 132 Q 826 131 829 124 Q 832 114 821 105 Q 767 68 738 72 Q 731 76 731 85 Q 731 124 541 213 Q 537 222 541 224 Q 556 224 631 199 C 644 194 644 194 650 192 Z"/>
    <path id="p10" d="M 694 391 Q 642 390 601 390 Q 576 389 590 374 Q 639 310 686 263 Q 699 250 698 243 Q 697 231 666 202 Q 659 195 650 192 C 644 189 630 192 631 199 Q 631 200 633 206 Q 642 242 562 356 Q 550 368 534 380 Q 507 396 532 433 Q 539 443 551 438 Q 579 425 668 414 Q 669 413 672 414 C 683 414 705 391 694 391 Z"/>
    <path id="p11" d="M 689 541 Q 740 525 794 518 C 801 517 790 501 783 501 Q 711 505 627 522 Q 605 526 620 510 Q 662 470 755 390 Q 788 359 814 343 Q 827 336 823 325 Q 816 306 788 283 Q 775 273 765 274 Q 755 275 755 290 Q 752 323 694 391 C 679 406 679 406 672 414 Q 569 516 545 524 Q 532 531 532 544 Q 531 557 553 578 Q 560 591 576 582 Q 616 563 658 550 C 679 544 679 544 689 541 Z"/>
    <path id="p12" d="M 794 518 Q 816 554 828 557 Q 835 558 842 551 Q 848 541 848 519 Q 848 488 771 439 Q 761 433 756 434 Q 752 435 750 445 C 772 482 772 482 783 501 C 790 512 790 512 794 518 Z"/>
    <path id="p13" d="M 658 550 Q 658 551 660 556 Q 673 590 673 697 Q 674 784 667 804 Q 664 819 638 816 Q 607 810 575 805 Q 565 805 563 812 Q 562 818 573 826 Q 643 875 666 905 Q 682 918 694 915 Q 704 911 715 878 Q 731 844 726 784 Q 723 664 726 621 Q 733 581 715 561 Q 700 548 689 541 C 680 535 654 540 658 550 Z"/>
    <path id="p14" d="M 532 649 Q 507 691 474 727 Q 453 751 463 787 Q 467 803 489 795 Q 535 770 548 705 Q 557 677 554 652 Q 550 645 545 642 Q 538 643 532 649 Z"/>
    <path id="p15" d="M 774 670 Q 814 713 861 775 Q 874 796 889 801 Q 896 802 905 794 Q 918 782 909 740 Q 903 700 840 670 Q 800 651 778 641 Q 769 635 767 647 Q 766 660 774 670 Z"/>

    <clipPath id="z40103c1"><use href="#p1"/></clipPath>
    <clipPath id="z40103c2"><use href="#p2"/></clipPath>
    <clipPath id="z40103c3"><use href="#p3"/></clipPath>
    <clipPath id="z40103c4"><use href="#p4"/></clipPath>
    <clipPath id="z40103c5"><use href="#p5"/></clipPath>
    <clipPath id="z40103c6"><use href="#p6"/></clipPath>
    <clipPath id="z40103c7"><use href="#p7"/></clipPath>
    <clipPath id="z40103c8"><use href="#p8"/></clipPath>
    <clipPath id="z40103c9"><use href="#p9"/></clipPath>
    <clipPath id="z40103c10"><use href="#p10"/></clipPath>
    <clipPath id="z40103c11"><use href="#p11"/></clipPath>
    <clipPath id="z40103c12"><use href="#p12"/></clipPath>
    <clipPath id="z40103c13"><use href="#p13"/></clipPath>
    <clipPath id="z40103c14"><use href="#p14"/></clipPath>
    <clipPath id="z40103c15"><use href="#p15"/></clipPath>
</defs>
<g id="bg-layer" class="bg">
<use href="#p1"/>
<use href="#p2"/>
<use href="#p3"/>
<use href="#p4"/>
<use href="#p5"/>
<use href="#p6"/>
<use href="#p7"/>
<use href="#p8"/>
<use href="#p9"/>
<use href="#p10"/>
<use href="#p11"/>
<use href="#p12"/>
<use href="#p13"/>
<use href="#p14"/>
<use href="#p15"/>
</g>
<g id="anim-layer">
    <path id="stroke-p1" style="stroke:#FF4444" pathLength="3333" clip-path="url(#z40103c1)" d="M 307 65 L 337 113 L 145 348"/>
    <path id="stroke-p2" style="stroke:#FF4444" pathLength="3333" clip-path="url(#z40103c2)" d="M 292 228 L 391 203 L 427 225 L 322 366"/>
    <path id="stroke-p3" style="stroke:#FF4444" pathLength="3333" clip-path="url(#z40103c3)" d="M 150 396 L 182 436 L 219 633"/>
    <path id="stroke-p4" style="stroke:#FF4444" pathLength="3333" clip-path="url(#z40103c4)" d="M 197 403 L 418 365 L 455 383 L 467 404 L 415 611"/>
    <path id="stroke-p5" style="stroke:#FF4444" pathLength="3333" clip-path="url(#z40103c5)" d="M 253 494 L 394 475"/>
    <path id="stroke-p6" style="stroke:#FF4444" pathLength="3333" clip-path="url(#z40103c6)" d="M 295 408 L 316 432 L 310 568"/>
    <path id="stroke-p7" style="stroke:#FF4444" pathLength="3333" clip-path="url(#z40103c7)" d="M 237 605 L 384 573"/>
    <path id="stroke-p8" style="stroke:#FF4444" pathLength="3333" clip-path="url(#z40103c8)" d="M 115 760 L 180 778 L 447 681"/>
    <path id="stroke-p9" style="stroke:#000" pathLength="3333" clip-path="url(#z40103c9)" d="M 826 119 L 745 112 L 545 217"/>
    <path id="stroke-p10" style="stroke:#000" pathLength="3333" clip-path="url(#z40103c10)" d="M 638 201 L 662 244 L 556 398 L 568 414 L 680 395"/>
    <path id="stroke-p11" style="stroke:#000" pathLength="3333" clip-path="url(#z40103c11)" d="M 764 279 L 782 330 L 573 531 L 590 554 L 785 513"/>
    <path id="stroke-p12" style="stroke:#000" pathLength="3333" clip-path="url(#z40103c12)" d="M 759 440 L 835 550"/>
    <path id="stroke-p13" style="stroke:#000" pathLength="3333" clip-path="url(#z40103c13)" d="M 666 557 L 698 598 L 691 836 L 665 864 L 571 810"/>
    <path id="stroke-p14" style="stroke:#000" pathLength="3333" clip-path="url(#z40103c14)" d="M 543 650 L 468 790"/>
    <path id="stroke-p15" style="stroke:#000" pathLength="3333" clip-path="url(#z40103c15)" d="M 774 646 L 863 723 L 900 796"/>
</g>
</svg>