<svg id="z40536" class="acjk" viewBox="0 0 1024 1024" xmlns="http://www.w3.org/2000/svg">
<style>
<![CDATA[
svg.acjk path[clip-path] {
    animation-duration: 13.700000000000001s;
    animation-timing-function: linear;
    animation-iteration-count: infinite;
    stroke-dasharray: 3337;
    stroke-dashoffset: 3339;
    stroke-width: 128;
    stroke-linecap: round;
    fill: none;
    stroke: #FF4444;
}
svg.acjk .bg { fill: #ccc; opacity: 0.5; }

/* Stroke 1: Starts at 0.0%, finishes at 5.8%, holds until 81.8% */
@keyframes zk1 {
    0%, 0.0% { stroke-dashoffset: 3339; }
    5.8%, 81.8% { stroke-dashoffset: 0; }
    81.9%, 100% { stroke-dashoffset: 3339; }
}
svg.acjk #stroke-p1 { animation-name: zk1; }
/* Stroke 2: Starts at 5.8%, finishes at 11.7%, holds until 81.8% */
@keyframes zk2 {
    0%, 5.8% { stroke-dashoffset: 3339; }
    11.7%, 81.8% { stroke-dashoffset: 0; }
    81.9%, 100% { stroke-dashoffset: 3339; }
}
svg.acjk #stroke-p2 { animation-name: zk2; }
/* Stroke 3: Starts at 11.7%, finishes at 17.5%, holds until 81.8% */
@keyframes zk3 {
    0%, 11.7% { stroke-dashoffset: 3339; }
    17.5%, 81.8% { stroke-dashoffset: 0; }
    81.9%, 100% { stroke-dashoffset: 3339; }
}
svg.acjk #stroke-p3 { animation-name: zk3; }
/* Stroke 4: Starts at 17.5%, finishes at 23.4%, holds until 81.8% */
@keyframes zk4 {
    0%, 17.5% { stroke-dashoffset: 3339; }
    23.4%, 81.8% { stroke-dashoffset: 0; }
    81.9%, 100% { stroke-dashoffset: 3339; }
}
svg.acjk #stroke-p4 { animation-name: zk4; }
/* Stroke 5: Starts at 23.4%, finishes at 29.2%, holds until 81.8% */
@keyframes zk5 {
    0%, 23.4% { stroke-dashoffset: 3339; }
    29.2%, 81.8% { stroke-dashoffset: 0; }
    81.9%, 100% { stroke-dashoffset: 3339; }
}
svg.acjk #stroke-p5 { animation-name: zk5; }
/* Stroke 6: Starts at 29.2%, finishes at 35.0%, holds until 81.8% */
@keyframes zk6 {
    0%, 29.2% { stroke-dashoffset: 3339; }
    35.0%, 81.8% { stroke-dashoffset: 0; }
    81.9%, 100% { stroke-dashoffset: 3339; }
}
svg.acjk #stroke-p6 { animation-name: zk6; }
/* Stroke 7: Starts at 35.0%, finishes at 40.9%, holds until 81.8% */
@keyframes zk7 {
    0%, 35.0% { stroke-dashoffset: 3339; }
    40.9%, 81.8% { stroke-dashoffset: 0; }
    81.9%, 100% { stroke-dashoffset: 3339; }
}
svg.acjk #stroke-p7 { animation-name: zk7; }
/* Stroke 8: Starts at 40.9%, finishes at 46.7%, holds until 81.8% */
@keyframes zk8 {
    0%, 40.9% { stroke-dashoffset: 3339; }
    46.7%, 81.8% { stroke-dashoffset: 0; }
    81.9%, 100% { stroke-dashoffset: 3339; }
}
svg.acjk #stroke-p8 { animation-name: zk8; }
/* Stroke 9: Starts at 46.7%, finishes at 52.6%, holds until 81.8% */
@keyframes zk9 {
    0%, 46.7% { stroke-dashoffset: 3339; }
    52.6%, 81.8% { stroke-dashoffset: 0; }
    81.9%, 100% { stroke-dashoffset: 3339; }
}
svg.acjk #stroke-p9 { animation-name: zk9; }
/* Stroke 10: Starts at 52.6%, finishes at 58.4%, holds until 81.8% */
@keyframes zk10 {
    0%, 52.6% { stroke-dashoffset: 3339; }
    58.4%, 81.8% { stroke-dashoffset: 0; }
    81.9%, 100% { stroke-dashoffset: 3339; }
}
svg.acjk #stroke-p10 { animation-name: zk10; }
/* Stroke 11: Starts at 58.4%, finishes at 64.2%, holds until 81.8% */
@keyframes zk11 {
    0%, 58.4% { stroke-dashoffset: 3339; }
    64.2%, 81.8% { stroke-dashoffset: 0; }
    81.9%, 100% { stroke-dashoffset: 3339; }
}
svg.acjk #stroke-p11 { animation-name: zk11; }
/* Stroke 12: Starts at 64.2%, finishes at 70.1%, holds until 81.8% */
@keyframes zk12 {
    0%, 64.2% { stroke-dashoffset: 3339; }
    70.1%, 81.8% { stroke-dashoffset: 0; }
    81.9%, 100% { stroke-dashoffset: 3339; }
}
svg.acjk #stroke-p12 { animation-name: zk12; }
/* Stroke 13: Starts at 70.1%, finishes at 75.9%, holds until 81.8% */
@keyframes zk13 {
    0%, 70.1% { stroke-dashoffset: 3339; }
    75.9%, 81.8% { stroke-dashoffset: 0; }
    81.9%, 100% { stroke-dashoffset: 3339; }
}
svg.acjk #stroke-p13 { animation-name: zk13; }
/* Stroke 14: Starts at 75.9%, finishes at 81.8%, holds until 81.8% */
@keyframes zk14 {
    0%, 75.9% { stroke-dashoffset: 3339; }
    81.8%, 81.8% { stroke-dashoffset: 0; }
    81.9%, 100% { stroke-dashoffset: 3339; }
}
svg.acjk #stroke-p14 { animation-name: zk14; }
]]>
</style>
<defs>
    <path id="p1" d="M 225 184 Q 209 172 188 166 Q 176 162 168 167 Q 162 173 168 186 Q 184 216 194 249 Q 200 280 214 411 C 216 423 249 419 249 407 Q 245 355 243 315 C 242 298 242 298 242 290 Q 242 251 243 212 C 243 201 234 191 225 184 Z"/>
    <path id="p2" d="M 423 370 Q 436 244 475 203 Q 490 184 475 169 Q 459 159 409 138 Q 391 132 372 142 Q 320 164 225 184 C 214 186 232 214 243 212 Q 252 211 262 207 Q 377 183 384 188 Q 397 200 397 226 Q 390 314 375 382 C 372 398 420 386 423 370 Z"/>
    <path id="p3" d="M 330 393 Q 336 326 352 304 Q 365 282 347 274 Q 293 255 283 262 Q 274 269 242 290 C 235 294 235 316 243 315 Q 253 314 268 308 Q 292 305 295 307 Q 301 310 294 399 C 294 411 330 405 330 393 Z"/>
    <path id="p4" d="M 163 418 Q 162 415 162 413 Q 152 394 141 387 Q 125 375 124 397 Q 128 421 107 455 Q 62 501 89 550 Q 89 551 91 554 Q 104 575 120 551 Q 133 530 142 498 Q 151 467 158 448 C 162 439 165 428 163 418 Z"/>
    <path id="p5" d="M 158 448 Q 171 452 197 445 Q 315 418 423 401 Q 451 398 452 410 Q 453 420 436 460 Q 429 472 435 475 Q 441 478 451 468 Q 508 428 531 421 Q 549 417 548 406 Q 547 396 487 366 Q 469 359 423 370 C 391 378 391 378 375 382 Q 350 386 330 393 C 306 397 306 397 294 399 Q 272 402 249 407 C 226 410 226 410 214 411 Q 189 412 163 418 C 153 420 148 446 158 448 Z"/>
    <path id="p6" d="M 236 711 Q 237 671 242 642 C 243 623 243 623 244 614 Q 248 556 252 534 C 253 526 253 516 249 509 Q 246 503 239 499 Q 215 486 200 486 Q 188 489 193 499 Q 235 604 185 784 Q 178 805 168 821 Q 152 854 178 892 Q 184 904 193 899 Q 223 877 233 768 Q 234 750 235 734 C 236 719 236 719 236 711 Z"/>
    <path id="p7" d="M 252 534 Q 261 534 343 513 Q 359 509 364 516 Q 368 526 369 543 Q 378 703 373 800 Q 372 822 365 833 Q 361 836 305 825 Q 289 819 289 828 Q 332 868 356 898 Q 368 914 380 919 Q 387 922 395 914 Q 431 866 430 826 Q 408 564 428 527 Q 438 511 428 502 Q 410 486 379 474 Q 363 467 350 474 Q 314 495 249 509 C 241 511 244 536 252 534 Z"/>
    <path id="p8" d="M 329 632 Q 351 626 342 615 Q 330 602 306 600 Q 284 599 246 612 Q 245 613 244 614 C 236 619 233 644 242 642 C 300 635 300 635 329 632 Z"/>
    <path id="p9" d="M 235 734 Q 236 734 328 727 Q 350 723 341 711 Q 331 698 307 694 Q 256 691 236 711 C 231 716 227 734 235 734 Z"/>
    <path id="p10" d="M 609 282 Q 636 252 653 232 Q 698 169 720 153 Q 736 137 722 124 Q 706 111 677 105 Q 650 98 639 104 Q 627 108 635 121 Q 648 145 613 219 Q 600 247 585 280 C 582 287 604 288 609 282 Z"/>
    <path id="p11" d="M 615 323 Q 648 308 756 271 Q 760 270 768 272 Q 780 279 779 298 Q 775 346 753 431 Q 749 453 727 450 Q 694 443 669 437 Q 656 434 659 442 Q 660 451 684 468 Q 718 496 737 527 Q 744 537 755 533 Q 762 532 778 508 Q 799 477 813 399 Q 823 300 839 286 Q 849 277 845 267 Q 838 257 806 234 Q 793 225 777 230 Q 767 234 734 243 Q 689 256 654 268 Q 629 275 609 282 C 564 297 571 341 615 323 Z"/>
    <path id="p12" d="M 648 365 Q 699 408 713 408 Q 723 408 727 393 Q 727 383 718 368 Q 694 344 649 344 Q 642 343 642 352 Q 642 359 648 365 Z"/>
    <path id="p13" d="M 585 280 Q 578 276 571 273 Q 553 267 545 276 Q 539 280 547 292 Q 562 320 560 382 Q 559 430 558 491 Q 558 551 546 599 Q 542 620 556 633 Q 574 648 595 634 Q 649 598 804 580 Q 861 565 852 630 Q 851 631 851 635 Q 847 698 838 763 Q 834 814 812 847 Q 805 857 785 854 Q 746 841 712 831 Q 699 827 699 833 Q 699 837 707 845 Q 767 897 789 932 Q 798 951 814 941 Q 871 910 880 843 Q 893 755 903 657 Q 907 623 923 592 Q 933 576 923 565 Q 905 547 870 530 Q 849 520 824 533 Q 791 549 759 554 Q 716 561 624 584 Q 602 588 600 570 Q 600 369 615 323 C 618 306 601 288 585 280 Z"/>
    <path id="p14" d="M 646 751 Q 733 735 769 738 Q 787 737 790 730 Q 794 720 784 712 Q 759 696 725 685 Q 713 682 696 691 Q 555 730 484 741 Q 474 742 475 751 Q 475 760 491 769 Q 504 776 529 781 Q 538 782 550 775 Q 598 759 646 751 Z"/>

    <clipPath id="z40536c1"><use href="#p1"/></clipPath>
    <clipPath id="z40536c2"><use href="#p2"/></clipPath>
    <clipPath id="z40536c3"><use href="#p3"/></clipPath>
    <clipPath id="z40536c4"><use href="#p4"/></clipPath>
    <clipPath id="z40536c5"><use href="#p5"/></clipPath>
    <clipPath id="z40536c6"><use href="#p6"/></clipPath>
    <clipPath id="z40536c7"><use href="#p7"/></clipPath>
    <clipPath id="z40536c8"><use href="#p8"/></clipPath>
    <clipPath id="z40536c9"><use href="#p9"/></clipPath>
    <clipPath id="z40536c10"><use href="#p10"/></clipPath>
    <clipPath id="z40536c11"><use href="#p11"/></clipPath>
    <clipPath id="z40536c12"><use href="#p12"/></clipPath>
    <clipPath id="z40536c13"><use href="#p13"/></clipPath>
    <clipPath id="z40536c14"><use href="#p14"/></clipPath>
</defs>
<g id="bg-layer" class="bg">
<use href="#p1"/>
<use href="#p2"/>
<use href="#p3"/>
<use href="#p4"/>
<use href="#p5"/>
<use href="#p6"/>
<use href="#p7"/>
<use href="#p8"/>
<use href="#p9"/>
<use href="#p10"/>
<use href="#p11"/>
<use href="#p12"/>
<use href="#p13"/>
<use href="#p14"/>
</g>
<g id="anim-layer">
    <path id="stroke-p1" style="stroke:#FF4444" pathLength="3333" clip-path="url(#z40536c1)" d="M 171 173 L 216 224 L 238 404"/>
    <path id="stroke-p2" style="stroke:#FF4444" pathLength="3333" clip-path="url(#z40536c2)" d="M 234 188 L 387 161 L 437 194 L 401 367 L 383 376"/>
    <path id="stroke-p3" style="stroke:#FF4444" pathLength="3333" clip-path="url(#z40536c3)" d="M 247 306 L 288 284 L 326 299 L 303 394"/>
    <path id="stroke-p4" style="stroke:#FF4444" pathLength="3333" clip-path="url(#z40536c4)" d="M 133 394 L 99 558"/>
    <path id="stroke-p5" style="stroke:#FF4444" pathLength="3333" clip-path="url(#z40536c5)" d="M 169 442 L 463 384 L 499 412 L 440 467"/>
    <path id="stroke-p6" style="stroke:#FF4444" pathLength="3333" clip-path="url(#z40536c6)" d="M 200 495 L 227 528 L 228 610 L 186 893"/>
    <path id="stroke-p7" style="stroke:#FF4444" pathLength="3333" clip-path="url(#z40536c7)" d="M 256 527 L 359 491 L 400 520 L 398 838 L 373 876 L 300 829"/>
    <path id="stroke-p8" style="stroke:#FF4444" pathLength="3333" clip-path="url(#z40536c8)" d="M 249 633 L 337 617"/>
    <path id="stroke-p9" style="stroke:#FF4444" pathLength="3333" clip-path="url(#z40536c9)" d="M 245 727 L 337 714"/>
    <path id="stroke-p10" style="stroke:#000" pathLength="3333" clip-path="url(#z40536c10)" d="M 638 106 L 682 148 L 596 277"/>
    <path id="stroke-p11" style="stroke:#000" pathLength="3333" clip-path="url(#z40536c11)" d="M 595 284 L 627 297 L 774 251 L 811 278 L 756 484 L 740 492 L 666 441"/>
    <path id="stroke-p12" style="stroke:#000" pathLength="3333" clip-path="url(#z40536c12)" d="M 649 353 L 717 401"/>
    <path id="stroke-p13" style="stroke:#000" pathLength="3333" clip-path="url(#z40536c13)" d="M 551 280 L 586 328 L 585 610 L 834 553 L 889 587 L 832 877 L 800 899 L 704 835"/>
    <path id="stroke-p14" style="stroke:#000" pathLength="3333" clip-path="url(#z40536c14)" d="M 482 750 L 707 713 L 783 722"/>
</g>
</svg>