<svg id="z40637" class="acjk" viewBox="0 0 1024 1024" xmlns="http://www.w3.org/2000/svg">
<style>
<![CDATA[
svg.acjk path[clip-path] {
    animation-duration: 13.700000000000001s;
    animation-timing-function: linear;
    animation-iteration-count: infinite;
    stroke-dasharray: 3337;
    stroke-dashoffset: 3339;
    stroke-width: 128;
    stroke-linecap: round;
    fill: none;
    stroke: #FF4444;
}
svg.acjk .bg { fill: #ccc; opacity: 0.5; }

/* Stroke 1: Starts at 0.0%, finishes at 5.8%, holds until 81.8% */
@keyframes zk1 {
    0%, 0.0% { stroke-dashoffset: 3339; }
    5.8%, 81.8% { stroke-dashoffset: 0; }
    81.9%, 100% { stroke-dashoffset: 3339; }
}
svg.acjk #stroke-p1 { animation-name: zk1; }
/* Stroke 2: Starts at 5.8%, finishes at 11.7%, holds until 81.8% */
@keyframes zk2 {
    0%, 5.8% { stroke-dashoffset: 3339; }
    11.7%, 81.8% { stroke-dashoffset: 0; }
    81.9%, 100% { stroke-dashoffset: 3339; }
}
svg.acjk #stroke-p2 { animation-name: zk2; }
/* Stroke 3: Starts at 11.7%, finishes at 17.5%, holds until 81.8% */
@keyframes zk3 {
    0%, 11.7% { stroke-dashoffset: 3339; }
    17.5%, 81.8% { stroke-dashoffset: 0; }
    81.9%, 100% { stroke-dashoffset: 3339; }
}
svg.acjk #stroke-p3 { animation-name: zk3; }
/* Stroke 4: Starts at 17.5%, finishes at 23.4%, holds until 81.8% */
@keyframes zk4 {
    0%, 17.5% { stroke-dashoffset: 3339; }
    23.4%, 81.8% { stroke-dashoffset: 0; }
    81.9%, 100% { stroke-dashoffset: 3339; }
}
svg.acjk #stroke-p4 { animation-name: zk4; }
/* Stroke 5: Starts at 23.4%, finishes at 29.2%, holds until 81.8% */
@keyframes zk5 {
    0%, 23.4% { stroke-dashoffset: 3339; }
    29.2%, 81.8% { stroke-dashoffset: 0; }
    81.9%, 100% { stroke-dashoffset: 3339; }
}
svg.acjk #stroke-p5 { animation-name: zk5; }
/* Stroke 6: Starts at 29.2%, finishes at 35.0%, holds until 81.8% */
@keyframes zk6 {
    0%, 29.2% { stroke-dashoffset: 3339; }
    35.0%, 81.8% { stroke-dashoffset: 0; }
    81.9%, 100% { stroke-dashoffset: 3339; }
}
svg.acjk #stroke-p6 { animation-name: zk6; }
/* Stroke 7: Starts at 35.0%, finishes at 40.9%, holds until 81.8% */
@keyframes zk7 {
    0%, 35.0% { stroke-dashoffset: 3339; }
    40.9%, 81.8% { stroke-dashoffset: 0; }
    81.9%, 100% { stroke-dashoffset: 3339; }
}
svg.acjk #stroke-p7 { animation-name: zk7; }
/* Stroke 8: Starts at 40.9%, finishes at 46.7%, holds until 81.8% */
@keyframes zk8 {
    0%, 40.9% { stroke-dashoffset: 3339; }
    46.7%, 81.8% { stroke-dashoffset: 0; }
    81.9%, 100% { stroke-dashoffset: 3339; }
}
svg.acjk #stroke-p8 { animation-name: zk8; }
/* Stroke 9: Starts at 46.7%, finishes at 52.6%, holds until 81.8% */
@keyframes zk9 {
    0%, 46.7% { stroke-dashoffset: 3339; }
    52.6%, 81.8% { stroke-dashoffset: 0; }
    81.9%, 100% { stroke-dashoffset: 3339; }
}
svg.acjk #stroke-p9 { animation-name: zk9; }
/* Stroke 10: Starts at 52.6%, finishes at 58.4%, holds until 81.8% */
@keyframes zk10 {
    0%, 52.6% { stroke-dashoffset: 3339; }
    58.4%, 81.8% { stroke-dashoffset: 0; }
    81.9%, 100% { stroke-dashoffset: 3339; }
}
svg.acjk #stroke-p10 { animation-name: zk10; }
/* Stroke 11: Starts at 58.4%, finishes at 64.2%, holds until 81.8% */
@keyframes zk11 {
    0%, 58.4% { stroke-dashoffset: 3339; }
    64.2%, 81.8% { stroke-dashoffset: 0; }
    81.9%, 100% { stroke-dashoffset: 3339; }
}
svg.acjk #stroke-p11 { animation-name: zk11; }
/* Stroke 12: Starts at 64.2%, finishes at 70.1%, holds until 81.8% */
@keyframes zk12 {
    0%, 64.2% { stroke-dashoffset: 3339; }
    70.1%, 81.8% { stroke-dashoffset: 0; }
    81.9%, 100% { stroke-dashoffset: 3339; }
}
svg.acjk #stroke-p12 { animation-name: zk12; }
/* Stroke 13: Starts at 70.1%, finishes at 75.9%, holds until 81.8% */
@keyframes zk13 {
    0%, 70.1% { stroke-dashoffset: 3339; }
    75.9%, 81.8% { stroke-dashoffset: 0; }
    81.9%, 100% { stroke-dashoffset: 3339; }
}
svg.acjk #stroke-p13 { animation-name: zk13; }
/* Stroke 14: Starts at 75.9%, finishes at 81.8%, holds until 81.8% */
@keyframes zk14 {
    0%, 75.9% { stroke-dashoffset: 3339; }
    81.8%, 81.8% { stroke-dashoffset: 0; }
    81.9%, 100% { stroke-dashoffset: 3339; }
}
svg.acjk #stroke-p14 { animation-name: zk14; }
]]>
</style>
<defs>
    <path id="p1" d="M 482 92 Q 507 110 534 131 Q 550 143 566 140 Q 576 139 581 124 Q 584 108 570 78 Q 563 62 533 52 Q 458 37 448 45 Q 444 49 446 63 Q 452 73 482 92 Z"/>
    <path id="p2" d="M 310 222 Q 355 231 420 222 Q 721 180 755 170 Q 761 167 765 166 Q 774 159 770 151 Q 764 139 738 131 Q 711 124 605 152 Q 427 186 303 191 Q 297 191 294 193 C 284 196 299 220 310 222 Z"/>
    <path id="p3" d="M 294 193 Q 246 160 226 167 Q 214 174 221 188 Q 239 212 239 274 Q 238 290 237 311 Q 231 476 186 613 Q 153 701 67 845 Q 61 852 60 858 Q 57 868 68 866 Q 105 860 188 720 Q 198 701 209 679 Q 269 541 295 310 Q 298 258 310 222 C 314 212 303 200 294 193 Z"/>
    <path id="p4" d="M 441 402 Q 463 396 492 392 Q 516 386 519 383 Q 526 376 522 369 Q 516 360 493 354 Q 469 350 446 359 C 419 368 419 368 405 372 Q 324 384 318 386 Q 290 390 310 405 Q 338 420 388 413 C 423 406 423 406 441 402 Z"/>
    <path id="p5" d="M 438 439 Q 439 420 441 402 C 444 373 444 373 446 359 Q 446 355 447 352 Q 447 330 462 302 Q 466 295 458 283 Q 410 250 392 258 Q 382 262 386 273 Q 404 303 405 372 C 405 435 405 435 405 466 Q 404 524 398 550 Q 397 562 411 591 Q 418 604 430 597 Q 442 588 438 511 Q 437 486 438 463 C 438 447 438 447 438 439 Z"/>
    <path id="p6" d="M 388 413 Q 357 485 260 602 Q 256 609 264 611 Q 268 612 277 605 Q 355 548 405 466 C 430 424 406 367 388 413 Z"/>
    <path id="p7" d="M 438 463 Q 469 509 491 513 Q 500 514 505 502 Q 506 493 501 479 Q 489 455 438 439 C 431 436 433 457 438 463 Z"/>
    <path id="p8" d="M 689 377 Q 729 365 776 355 Q 807 346 812 342 Q 819 335 815 327 Q 808 317 781 311 Q 759 308 694 331 C 666 340 666 340 652 344 Q 609 354 559 362 Q 525 369 550 383 Q 583 399 630 392 C 669 382 669 382 689 377 Z"/>
    <path id="p9" d="M 688 378 Q 688 377 689 377 C 692 346 692 346 694 331 Q 694 298 712 264 Q 716 257 707 245 Q 688 229 665 220 Q 650 213 639 218 Q 627 222 633 234 Q 651 264 652 344 C 652 404 652 404 652 434 Q 646 542 655 555 Q 656 558 659 563 Q 666 576 679 569 Q 691 559 687 480 Q 686 446 687 413 C 688 390 688 390 688 378 Z"/>
    <path id="p10" d="M 630 392 Q 599 458 512 566 Q 508 573 516 575 Q 520 576 529 569 Q 599 518 652 434 C 678 399 646 352 630 392 Z"/>
    <path id="p11" d="M 687 413 Q 732 482 791 556 Q 803 569 824 569 Q 894 568 916 564 Q 923 563 924 559 Q 924 555 915 550 Q 813 505 762 454 Q 726 420 688 378 C 680 370 680 404 687 413 Z"/>
    <path id="p12" d="M 450 604 Q 434 665 296 778 Q 278 790 301 787 Q 371 781 470 674 Q 497 646 510 634 Q 519 624 517 616 Q 514 606 492 598 Q 470 589 458 592 Q 452 593 450 604 Z"/>
    <path id="p13" d="M 663 815 Q 566 822 448 846 Q 429 850 443 836 Q 578 716 630 687 Q 643 680 640 668 Q 633 647 603 622 Q 588 609 578 610 Q 568 611 567 628 Q 563 682 375 844 Q 366 847 360 850 Q 345 857 346 872 Q 345 885 368 909 Q 378 922 394 913 Q 487 868 675 831 C 682 830 670 815 663 815 Z"/>
    <path id="p14" d="M 675 831 Q 732 915 741 919 Q 748 922 757 914 Q 770 904 766 860 Q 763 815 634 738 Q 627 732 622 743 Q 621 756 628 767 Q 644 789 663 815 C 671 826 671 826 675 831 Z"/>

    <clipPath id="z40637c1"><use href="#p1"/></clipPath>
    <clipPath id="z40637c2"><use href="#p2"/></clipPath>
    <clipPath id="z40637c3"><use href="#p3"/></clipPath>
    <clipPath id="z40637c4"><use href="#p4"/></clipPath>
    <clipPath id="z40637c5"><use href="#p5"/></clipPath>
    <clipPath id="z40637c6"><use href="#p6"/></clipPath>
    <clipPath id="z40637c7"><use href="#p7"/></clipPath>
    <clipPath id="z40637c8"><use href="#p8"/></clipPath>
    <clipPath id="z40637c9"><use href="#p9"/></clipPath>
    <clipPath id="z40637c10"><use href="#p10"/></clipPath>
    <clipPath id="z40637c11"><use href="#p11"/></clipPath>
    <clipPath id="z40637c12"><use href="#p12"/></clipPath>
    <clipPath id="z40637c13"><use href="#p13"/></clipPath>
    <clipPath id="z40637c14"><use href="#p14"/></clipPath>
</defs>
<g id="bg-layer" class="bg">
<use href="#p1"/>
<use href="#p2"/>
<use href="#p3"/>
<use href="#p4"/>
<use href="#p5"/>
<use href="#p6"/>
<use href="#p7"/>
<use href="#p8"/>
<use href="#p9"/>
<use href="#p10"/>
<use href="#p11"/>
<use href="#p12"/>
<use href="#p13"/>
<use href="#p14"/>
</g>
<g id="anim-layer">
    <path id="stroke-p1" style="stroke:#FF4444" pathLength="3333" clip-path="url(#z40637c1)" d="M 449 51 L 575 130"/>
    <path id="stroke-p2" style="stroke:#FF4444" pathLength="3333" clip-path="url(#z40637c2)" d="M 296 199 L 367 207 L 765 153"/>
    <path id="stroke-p3" style="stroke:#FF4444" pathLength="3333" clip-path="url(#z40637c3)" d="M 225 176 L 273 224 L 236 520 L 187 672 L 68 861"/>
    <path id="stroke-p4" style="stroke:#FF4444" pathLength="3333" clip-path="url(#z40637c4)" d="M 308 395 L 520 372"/>
    <path id="stroke-p5" style="stroke:#FF4444" pathLength="3333" clip-path="url(#z40637c5)" d="M 391 264 L 431 305 L 424 595"/>
    <path id="stroke-p6" style="stroke:#FF4444" pathLength="3333" clip-path="url(#z40637c6)" d="M 403 406 L 368 488 L 264 605"/>
    <path id="stroke-p7" style="stroke:#FF4444" pathLength="3333" clip-path="url(#z40637c7)" d="M 439 446 L 495 508"/>
    <path id="stroke-p8" style="stroke:#FF4444" pathLength="3333" clip-path="url(#z40637c8)" d="M 549 374 L 812 330"/>
    <path id="stroke-p9" style="stroke:#FF4444" pathLength="3333" clip-path="url(#z40637c9)" d="M 638 225 L 679 266 L 674 566"/>
    <path id="stroke-p10" style="stroke:#FF4444" pathLength="3333" clip-path="url(#z40637c10)" d="M 643 385 L 604 472 L 519 567"/>
    <path id="stroke-p11" style="stroke:#FF4444" pathLength="3333" clip-path="url(#z40637c11)" d="M 688 391 L 814 534 L 917 556"/>
    <path id="stroke-p12" style="stroke:#000" pathLength="3333" clip-path="url(#z40637c12)" d="M 457 599 L 475 632 L 297 784"/>
    <path id="stroke-p13" style="stroke:#000" pathLength="3333" clip-path="url(#z40637c13)" d="M 578 615 L 596 670 L 393 863 L 414 881 L 668 826"/>
    <path id="stroke-p14" style="stroke:#000" pathLength="3333" clip-path="url(#z40637c14)" d="M 629 742 L 731 854 L 749 914"/>
</g>
</svg>