<svg id="z40647" class="acjk" viewBox="0 0 1024 1024" xmlns="http://www.w3.org/2000/svg">
<style>
<![CDATA[
svg.acjk path[clip-path] {
    animation-duration: 15.3s;
    animation-timing-function: linear;
    animation-iteration-count: infinite;
    stroke-dasharray: 3337;
    stroke-dashoffset: 3339;
    stroke-width: 128;
    stroke-linecap: round;
    fill: none;
    stroke: #FF4444;
}
svg.acjk .bg { fill: #ccc; opacity: 0.5; }

/* Stroke 1: Starts at 0.0%, finishes at 5.2%, holds until 83.7% */
@keyframes zk1 {
    0%, 0.0% { stroke-dashoffset: 3339; }
    5.2%, 83.7% { stroke-dashoffset: 0; }
    83.8%, 100% { stroke-dashoffset: 3339; }
}
svg.acjk #stroke-p1 { animation-name: zk1; }
/* Stroke 2: Starts at 5.2%, finishes at 10.5%, holds until 83.7% */
@keyframes zk2 {
    0%, 5.2% { stroke-dashoffset: 3339; }
    10.5%, 83.7% { stroke-dashoffset: 0; }
    83.8%, 100% { stroke-dashoffset: 3339; }
}
svg.acjk #stroke-p2 { animation-name: zk2; }
/* Stroke 3: Starts at 10.5%, finishes at 15.7%, holds until 83.7% */
@keyframes zk3 {
    0%, 10.5% { stroke-dashoffset: 3339; }
    15.7%, 83.7% { stroke-dashoffset: 0; }
    83.8%, 100% { stroke-dashoffset: 3339; }
}
svg.acjk #stroke-p3 { animation-name: zk3; }
/* Stroke 4: Starts at 15.7%, finishes at 20.9%, holds until 83.7% */
@keyframes zk4 {
    0%, 15.7% { stroke-dashoffset: 3339; }
    20.9%, 83.7% { stroke-dashoffset: 0; }
    83.8%, 100% { stroke-dashoffset: 3339; }
}
svg.acjk #stroke-p4 { animation-name: zk4; }
/* Stroke 5: Starts at 20.9%, finishes at 26.1%, holds until 83.7% */
@keyframes zk5 {
    0%, 20.9% { stroke-dashoffset: 3339; }
    26.1%, 83.7% { stroke-dashoffset: 0; }
    83.8%, 100% { stroke-dashoffset: 3339; }
}
svg.acjk #stroke-p5 { animation-name: zk5; }
/* Stroke 6: Starts at 26.1%, finishes at 31.4%, holds until 83.7% */
@keyframes zk6 {
    0%, 26.1% { stroke-dashoffset: 3339; }
    31.4%, 83.7% { stroke-dashoffset: 0; }
    83.8%, 100% { stroke-dashoffset: 3339; }
}
svg.acjk #stroke-p6 { animation-name: zk6; }
/* Stroke 7: Starts at 31.4%, finishes at 36.6%, holds until 83.7% */
@keyframes zk7 {
    0%, 31.4% { stroke-dashoffset: 3339; }
    36.6%, 83.7% { stroke-dashoffset: 0; }
    83.8%, 100% { stroke-dashoffset: 3339; }
}
svg.acjk #stroke-p7 { animation-name: zk7; }
/* Stroke 8: Starts at 36.6%, finishes at 41.8%, holds until 83.7% */
@keyframes zk8 {
    0%, 36.6% { stroke-dashoffset: 3339; }
    41.8%, 83.7% { stroke-dashoffset: 0; }
    83.8%, 100% { stroke-dashoffset: 3339; }
}
svg.acjk #stroke-p8 { animation-name: zk8; }
/* Stroke 9: Starts at 41.8%, finishes at 47.1%, holds until 83.7% */
@keyframes zk9 {
    0%, 41.8% { stroke-dashoffset: 3339; }
    47.1%, 83.7% { stroke-dashoffset: 0; }
    83.8%, 100% { stroke-dashoffset: 3339; }
}
svg.acjk #stroke-p9 { animation-name: zk9; }
/* Stroke 10: Starts at 47.1%, finishes at 52.3%, holds until 83.7% */
@keyframes zk10 {
    0%, 47.1% { stroke-dashoffset: 3339; }
    52.3%, 83.7% { stroke-dashoffset: 0; }
    83.8%, 100% { stroke-dashoffset: 3339; }
}
svg.acjk #stroke-p10 { animation-name: zk10; }
/* Stroke 11: Starts at 52.3%, finishes at 57.5%, holds until 83.7% */
@keyframes zk11 {
    0%, 52.3% { stroke-dashoffset: 3339; }
    57.5%, 83.7% { stroke-dashoffset: 0; }
    83.8%, 100% { stroke-dashoffset: 3339; }
}
svg.acjk #stroke-p11 { animation-name: zk11; }
/* Stroke 12: Starts at 57.5%, finishes at 62.7%, holds until 83.7% */
@keyframes zk12 {
    0%, 57.5% { stroke-dashoffset: 3339; }
    62.7%, 83.7% { stroke-dashoffset: 0; }
    83.8%, 100% { stroke-dashoffset: 3339; }
}
svg.acjk #stroke-p12 { animation-name: zk12; }
/* Stroke 13: Starts at 62.7%, finishes at 68.0%, holds until 83.7% */
@keyframes zk13 {
    0%, 62.7% { stroke-dashoffset: 3339; }
    68.0%, 83.7% { stroke-dashoffset: 0; }
    83.8%, 100% { stroke-dashoffset: 3339; }
}
svg.acjk #stroke-p13 { animation-name: zk13; }
/* Stroke 14: Starts at 68.0%, finishes at 73.2%, holds until 83.7% */
@keyframes zk14 {
    0%, 68.0% { stroke-dashoffset: 3339; }
    73.2%, 83.7% { stroke-dashoffset: 0; }
    83.8%, 100% { stroke-dashoffset: 3339; }
}
svg.acjk #stroke-p14 { animation-name: zk14; }
/* Stroke 15: Starts at 73.2%, finishes at 78.4%, holds until 83.7% */
@keyframes zk15 {
    0%, 73.2% { stroke-dashoffset: 3339; }
    78.4%, 83.7% { stroke-dashoffset: 0; }
    83.8%, 100% { stroke-dashoffset: 3339; }
}
svg.acjk #stroke-p15 { animation-name: zk15; }
/* Stroke 16: Starts at 78.4%, finishes at 83.7%, holds until 83.7% */
@keyframes zk16 {
    0%, 78.4% { stroke-dashoffset: 3339; }
    83.7%, 83.7% { stroke-dashoffset: 0; }
    83.8%, 100% { stroke-dashoffset: 3339; }
}
svg.acjk #stroke-p16 { animation-name: zk16; }
]]>
</style>
<defs>
    <path id="p1" d="M 433 284 C 446 281 460 278 475 276 C 508 270 527 264 532 260 C 537 255 539 249 536 244 C 532 237 521 230 503 226 C 484 220 466 222 448 229 C 446 229 444 230 443 231 C 409 241 409 241 392 246 C 351 258 318 264 295 268 C 264 272 264 272 249 274 C 229 276 208 278 187 280 C 165 282 161 289 177 300 C 194 311 221 322 255 316 C 282 311 282 311 295 308 C 325 301 357 297 389 292 C 418 287 418 287 433 284 Z"/>
    <path id="p2" d="M 295 268 C 295 251 296 240 297 234 C 299 220 295 210 287 204 C 273 194 259 186 244 181 C 236 178 228 178 224 182 C 219 185 218 192 223 200 C 236 225 245 250 249 274 C 253 302 253 302 255 316 C 258 337 260 368 265 406 C 267 418 300 412 300 400 C 297 364 295 333 295 308 C 295 281 295 281 295 268 Z"/>
    <path id="p3" d="M 414 382 C 420 348 427 315 433 284 C 440 249 440 249 443 231 C 447 207 454 186 464 166 C 466 160 462 152 452 144 C 434 130 418 122 406 119 C 398 116 390 117 386 121 C 381 124 379 131 384 140 C 392 156 396 167 396 178 C 394 200 393 222 392 246 C 390 277 390 277 389 292 C 387 321 383 353 379 388 C 377 400 412 394 414 382 Z"/>
    <path id="p4" d="M 340 425 C 395 418 466 410 556 410 C 589 409 608 407 612 402 C 615 396 611 389 603 382 C 573 358 540 354 503 364 C 477 370 447 376 414 382 C 391 386 391 386 379 388 C 369 389 316 397 300 400 C 277 404 277 404 265 406 C 221 413 176 418 130 424 C 118 425 116 430 125 440 C 132 448 141 452 151 455 C 162 457 172 457 181 455 C 219 443 260 434 305 429 C 328 426 328 426 340 425 Z"/>
    <path id="p5" d="M 213 522 C 206 519 195 517 182 514 C 175 512 171 512 169 515 C 165 519 166 524 171 534 C 187 568 199 613 208 668 C 210 685 216 698 225 710 C 234 722 241 724 244 715 C 245 711 246 708 247 704 C 248 691 248 691 248 684 C 248 676 247 668 246 661 C 236 604 230 568 229 550 C 229 539 223 526 213 522 Z"/>
    <path id="p6" d="M 423 681 C 433 699 444 712 455 719 C 461 722 468 719 478 707 C 486 695 498 657 517 592 C 522 573 532 557 546 544 C 553 536 554 529 548 522 C 539 512 523 499 499 483 C 480 470 421 484 365 496 C 334 502 334 502 319 505 C 296 509 236 517 213 522 C 202 524 218 552 229 550 C 253 544 283 538 319 532 C 350 527 350 527 365 524 C 421 514 454 512 464 522 C 470 528 473 536 472 544 C 461 602 450 640 441 658 C 437 667 419 672 423 681 Z"/>
    <path id="p7" d="M 360 606 C 382 602 402 599 422 597 C 433 595 437 591 434 585 C 429 577 419 572 407 570 C 395 568 380 570 362 575 C 334 582 334 582 320 586 C 302 590 285 595 269 599 C 261 601 262 605 272 613 C 274 614 290 618 320 613 C 347 608 347 608 360 606 Z"/>
    <path id="p8" d="M 365 496 C 365 487 364 478 367 469 C 370 458 370 451 365 445 C 357 437 349 430 340 425 C 330 419 301 418 305 429 C 311 445 319 470 319 505 C 319 523 319 523 319 532 C 319 546 320 564 320 586 C 320 604 320 604 320 613 C 320 632 320 670 320 670 C 320 683 358 675 358 662 C 358 642 358 623 360 606 C 361 585 361 585 362 575 C 363 557 365 540 365 524 C 365 505 365 505 365 496 Z"/>
    <path id="p9" d="M 247 704 C 251 704 256 704 263 703 C 323 694 376 686 423 681 C 433 679 450 662 441 658 C 437 656 432 654 427 653 C 409 648 387 655 358 662 C 333 667 333 667 320 670 C 294 675 270 678 248 684 C 241 685 240 704 247 704 Z"/>
    <path id="p10" d="M 255 747 C 244 779 196 824 107 879 C 94 887 95 889 112 890 C 148 890 206 864 284 807 C 296 798 306 791 313 786 C 320 780 323 774 323 769 C 322 761 314 753 301 747 C 285 739 274 734 266 735 C 262 735 257 739 255 747 Z"/>
    <path id="p11" d="M 404 770 C 430 796 460 828 491 867 C 501 879 510 888 519 891 C 524 892 529 889 535 883 C 542 875 542 857 536 830 C 530 805 507 784 467 766 C 440 754 420 746 407 741 C 400 738 397 740 396 748 C 395 755 397 763 404 770 Z"/>
    <path id="p12" d="M 720 592 C 724 526 729 444 731 382 C 732 364 732 364 732 355 C 733 302 739 244 753 184 C 754 176 751 166 737 158 C 714 145 691 139 676 135 C 665 133 657 134 652 140 C 647 145 647 154 653 163 C 668 188 677 208 678 225 C 683 334 683 472 678 599 C 678 613 720 606 720 592 Z"/>
    <path id="p13" d="M 731 382 C 747 388 777 389 825 380 C 847 375 869 370 892 364 C 905 361 912 358 914 356 C 920 351 921 346 918 341 C 914 334 902 327 884 323 C 870 321 838 330 786 344 C 769 349 752 350 732 355 C 723 356 723 379 731 382 Z"/>
    <path id="p14" d="M 604 608 C 598 603 581 599 558 594 C 550 592 545 592 543 596 C 538 600 539 607 545 617 C 564 663 579 734 589 810 C 591 833 598 852 610 867 C 621 881 629 884 632 874 C 636 862 640 848 638 829 C 635 803 635 803 633 790 C 621 721 614 667 612 642 C 612 630 613 615 604 608 Z"/>
    <path id="p15" d="M 852 774 C 874 712 898 664 920 646 C 933 636 934 621 924 609 C 914 599 889 585 853 567 C 841 561 828 561 813 566 C 780 577 751 588 720 592 C 692 597 692 597 678 599 C 652 603 629 604 604 608 C 593 610 601 644 612 642 C 618 641 623 639 631 638 C 686 630 740 623 792 615 C 806 613 816 614 821 620 C 827 626 830 635 828 649 C 820 688 812 732 801 763 C 796 779 846 790 852 774 Z"/>
    <path id="p16" d="M 638 829 C 705 818 766 815 858 810 C 866 810 871 806 871 800 C 872 796 866 786 852 774 C 839 761 817 759 799 763 C 767 769 680 785 633 790 C 620 792 625 832 638 829 Z"/>

    <clipPath id="z40647c1"><use href="#p1"/></clipPath>
    <clipPath id="z40647c2"><use href="#p2"/></clipPath>
    <clipPath id="z40647c3"><use href="#p3"/></clipPath>
    <clipPath id="z40647c4"><use href="#p4"/></clipPath>
    <clipPath id="z40647c5"><use href="#p5"/></clipPath>
    <clipPath id="z40647c6"><use href="#p6"/></clipPath>
    <clipPath id="z40647c7"><use href="#p7"/></clipPath>
    <clipPath id="z40647c8"><use href="#p8"/></clipPath>
    <clipPath id="z40647c9"><use href="#p9"/></clipPath>
    <clipPath id="z40647c10"><use href="#p10"/></clipPath>
    <clipPath id="z40647c11"><use href="#p11"/></clipPath>
    <clipPath id="z40647c12"><use href="#p12"/></clipPath>
    <clipPath id="z40647c13"><use href="#p13"/></clipPath>
    <clipPath id="z40647c14"><use href="#p14"/></clipPath>
    <clipPath id="z40647c15"><use href="#p15"/></clipPath>
    <clipPath id="z40647c16"><use href="#p16"/></clipPath>
</defs>
<g id="bg-layer" class="bg">
<use href="#p1"/>
<use href="#p2"/>
<use href="#p3"/>
<use href="#p4"/>
<use href="#p5"/>
<use href="#p6"/>
<use href="#p7"/>
<use href="#p8"/>
<use href="#p9"/>
<use href="#p10"/>
<use href="#p11"/>
<use href="#p12"/>
<use href="#p13"/>
<use href="#p14"/>
<use href="#p15"/>
<use href="#p16"/>
</g>
<g id="anim-layer">
    <path id="stroke-p1" style="stroke:#FF4444" pathLength="3333" clip-path="url(#z40647c1)" d="M 174 288 L 248 295 L 533 252"/>
    <path id="stroke-p2" style="stroke:#FF4444" pathLength="3333" clip-path="url(#z40647c2)" d="M 229 189 L 269 233 L 274 402"/>
    <path id="stroke-p3" style="stroke:#FF4444" pathLength="3333" clip-path="url(#z40647c3)" d="M 389 125 L 430 165 L 391 385"/>
    <path id="stroke-p4" style="stroke:#FF4444" pathLength="3333" clip-path="url(#z40647c4)" d="M 127 430 L 608 388"/>
    <path id="stroke-p5" style="stroke:#FF4444" pathLength="3333" clip-path="url(#z40647c5)" d="M 174 521 L 205 558 L 237 716"/>
    <path id="stroke-p6" style="stroke:#FF4444" pathLength="3333" clip-path="url(#z40647c6)" d="M 221 523 L 486 505 L 511 538 L 440 703"/>
    <path id="stroke-p7" style="stroke:#FF4444" pathLength="3333" clip-path="url(#z40647c7)" d="M 274 605 L 430 587"/>
    <path id="stroke-p8" style="stroke:#FF4444" pathLength="3333" clip-path="url(#z40647c8)" d="M 313 433 L 342 464 L 337 667"/>
    <path id="stroke-p9" style="stroke:#FF4444" pathLength="3333" clip-path="url(#z40647c9)" d="M 250 698 L 434 660"/>
    <path id="stroke-p10" style="stroke:#FF4444" pathLength="3333" clip-path="url(#z40647c10)" d="M 318 767 L 275 772 L 178 853 L 104 884"/>
    <path id="stroke-p11" style="stroke:#FF4444" pathLength="3333" clip-path="url(#z40647c11)" d="M 401 745 L 492 818 L 530 884"/>
    <path id="stroke-p12" style="stroke:#000" pathLength="3333" clip-path="url(#z40647c12)" d="M 657 147 L 713 197 L 692 596"/>
    <path id="stroke-p13" style="stroke:#000" pathLength="3333" clip-path="url(#z40647c13)" d="M 733 375 L 910 343"/>
    <path id="stroke-p14" style="stroke:#000" pathLength="3333" clip-path="url(#z40647c14)" d="M 547 601 L 581 633 L 622 874"/>
    <path id="stroke-p15" style="stroke:#000" pathLength="3333" clip-path="url(#z40647c15)" d="M 609 609 L 848 598 L 877 638 L 815 766"/>
    <path id="stroke-p16" style="stroke:#000" pathLength="3333" clip-path="url(#z40647c16)" d="M 637 793 L 865 795"/>
</g>
</svg>