<svg id="z40679" class="acjk" viewBox="0 0 1024 1024" xmlns="http://www.w3.org/2000/svg">
<style>
<![CDATA[
svg.acjk path[clip-path] {
    animation-duration: 18.5s;
    animation-timing-function: linear;
    animation-iteration-count: infinite;
    stroke-dasharray: 3337;
    stroke-dashoffset: 3339;
    stroke-width: 128;
    stroke-linecap: round;
    fill: none;
    stroke: #FF4444;
}
svg.acjk .bg { fill: #ccc; opacity: 0.5; }

/* Stroke 1: Starts at 0.0%, finishes at 4.3%, holds until 86.5% */
@keyframes zk1 {
    0%, 0.0% { stroke-dashoffset: 3339; }
    4.3%, 86.5% { stroke-dashoffset: 0; }
    86.6%, 100% { stroke-dashoffset: 3339; }
}
svg.acjk #stroke-p1 { animation-name: zk1; }
/* Stroke 2: Starts at 4.3%, finishes at 8.6%, holds until 86.5% */
@keyframes zk2 {
    0%, 4.3% { stroke-dashoffset: 3339; }
    8.6%, 86.5% { stroke-dashoffset: 0; }
    86.6%, 100% { stroke-dashoffset: 3339; }
}
svg.acjk #stroke-p2 { animation-name: zk2; }
/* Stroke 3: Starts at 8.6%, finishes at 13.0%, holds until 86.5% */
@keyframes zk3 {
    0%, 8.6% { stroke-dashoffset: 3339; }
    13.0%, 86.5% { stroke-dashoffset: 0; }
    86.6%, 100% { stroke-dashoffset: 3339; }
}
svg.acjk #stroke-p3 { animation-name: zk3; }
/* Stroke 4: Starts at 13.0%, finishes at 17.3%, holds until 86.5% */
@keyframes zk4 {
    0%, 13.0% { stroke-dashoffset: 3339; }
    17.3%, 86.5% { stroke-dashoffset: 0; }
    86.6%, 100% { stroke-dashoffset: 3339; }
}
svg.acjk #stroke-p4 { animation-name: zk4; }
/* Stroke 5: Starts at 17.3%, finishes at 21.6%, holds until 86.5% */
@keyframes zk5 {
    0%, 17.3% { stroke-dashoffset: 3339; }
    21.6%, 86.5% { stroke-dashoffset: 0; }
    86.6%, 100% { stroke-dashoffset: 3339; }
}
svg.acjk #stroke-p5 { animation-name: zk5; }
/* Stroke 6: Starts at 21.6%, finishes at 25.9%, holds until 86.5% */
@keyframes zk6 {
    0%, 21.6% { stroke-dashoffset: 3339; }
    25.9%, 86.5% { stroke-dashoffset: 0; }
    86.6%, 100% { stroke-dashoffset: 3339; }
}
svg.acjk #stroke-p6 { animation-name: zk6; }
/* Stroke 7: Starts at 25.9%, finishes at 30.3%, holds until 86.5% */
@keyframes zk7 {
    0%, 25.9% { stroke-dashoffset: 3339; }
    30.3%, 86.5% { stroke-dashoffset: 0; }
    86.6%, 100% { stroke-dashoffset: 3339; }
}
svg.acjk #stroke-p7 { animation-name: zk7; }
/* Stroke 8: Starts at 30.3%, finishes at 34.6%, holds until 86.5% */
@keyframes zk8 {
    0%, 30.3% { stroke-dashoffset: 3339; }
    34.6%, 86.5% { stroke-dashoffset: 0; }
    86.6%, 100% { stroke-dashoffset: 3339; }
}
svg.acjk #stroke-p8 { animation-name: zk8; }
/* Stroke 9: Starts at 34.6%, finishes at 38.9%, holds until 86.5% */
@keyframes zk9 {
    0%, 34.6% { stroke-dashoffset: 3339; }
    38.9%, 86.5% { stroke-dashoffset: 0; }
    86.6%, 100% { stroke-dashoffset: 3339; }
}
svg.acjk #stroke-p9 { animation-name: zk9; }
/* Stroke 10: Starts at 38.9%, finishes at 43.2%, holds until 86.5% */
@keyframes zk10 {
    0%, 38.9% { stroke-dashoffset: 3339; }
    43.2%, 86.5% { stroke-dashoffset: 0; }
    86.6%, 100% { stroke-dashoffset: 3339; }
}
svg.acjk #stroke-p10 { animation-name: zk10; }
/* Stroke 11: Starts at 43.2%, finishes at 47.6%, holds until 86.5% */
@keyframes zk11 {
    0%, 43.2% { stroke-dashoffset: 3339; }
    47.6%, 86.5% { stroke-dashoffset: 0; }
    86.6%, 100% { stroke-dashoffset: 3339; }
}
svg.acjk #stroke-p11 { animation-name: zk11; }
/* Stroke 12: Starts at 47.6%, finishes at 51.9%, holds until 86.5% */
@keyframes zk12 {
    0%, 47.6% { stroke-dashoffset: 3339; }
    51.9%, 86.5% { stroke-dashoffset: 0; }
    86.6%, 100% { stroke-dashoffset: 3339; }
}
svg.acjk #stroke-p12 { animation-name: zk12; }
/* Stroke 13: Starts at 51.9%, finishes at 56.2%, holds until 86.5% */
@keyframes zk13 {
    0%, 51.9% { stroke-dashoffset: 3339; }
    56.2%, 86.5% { stroke-dashoffset: 0; }
    86.6%, 100% { stroke-dashoffset: 3339; }
}
svg.acjk #stroke-p13 { animation-name: zk13; }
/* Stroke 14: Starts at 56.2%, finishes at 60.5%, holds until 86.5% */
@keyframes zk14 {
    0%, 56.2% { stroke-dashoffset: 3339; }
    60.5%, 86.5% { stroke-dashoffset: 0; }
    86.6%, 100% { stroke-dashoffset: 3339; }
}
svg.acjk #stroke-p14 { animation-name: zk14; }
/* Stroke 15: Starts at 60.5%, finishes at 64.9%, holds until 86.5% */
@keyframes zk15 {
    0%, 60.5% { stroke-dashoffset: 3339; }
    64.9%, 86.5% { stroke-dashoffset: 0; }
    86.6%, 100% { stroke-dashoffset: 3339; }
}
svg.acjk #stroke-p15 { animation-name: zk15; }
/* Stroke 16: Starts at 64.9%, finishes at 69.2%, holds until 86.5% */
@keyframes zk16 {
    0%, 64.9% { stroke-dashoffset: 3339; }
    69.2%, 86.5% { stroke-dashoffset: 0; }
    86.6%, 100% { stroke-dashoffset: 3339; }
}
svg.acjk #stroke-p16 { animation-name: zk16; }
/* Stroke 17: Starts at 69.2%, finishes at 73.5%, holds until 86.5% */
@keyframes zk17 {
    0%, 69.2% { stroke-dashoffset: 3339; }
    73.5%, 86.5% { stroke-dashoffset: 0; }
    86.6%, 100% { stroke-dashoffset: 3339; }
}
svg.acjk #stroke-p17 { animation-name: zk17; }
/* Stroke 18: Starts at 73.5%, finishes at 77.8%, holds until 86.5% */
@keyframes zk18 {
    0%, 73.5% { stroke-dashoffset: 3339; }
    77.8%, 86.5% { stroke-dashoffset: 0; }
    86.6%, 100% { stroke-dashoffset: 3339; }
}
svg.acjk #stroke-p18 { animation-name: zk18; }
/* Stroke 19: Starts at 77.8%, finishes at 82.2%, holds until 86.5% */
@keyframes zk19 {
    0%, 77.8% { stroke-dashoffset: 3339; }
    82.2%, 86.5% { stroke-dashoffset: 0; }
    86.6%, 100% { stroke-dashoffset: 3339; }
}
svg.acjk #stroke-p19 { animation-name: zk19; }
/* Stroke 20: Starts at 82.2%, finishes at 86.5%, holds until 86.5% */
@keyframes zk20 {
    0%, 82.2% { stroke-dashoffset: 3339; }
    86.5%, 86.5% { stroke-dashoffset: 0; }
    86.6%, 100% { stroke-dashoffset: 3339; }
}
svg.acjk #stroke-p20 { animation-name: zk20; }
]]>
</style>
<defs>
    <path id="p1" d="M 399 165 Q 441 147 487 142 Q 500 142 504 137 Q 507 128 499 119 Q 451 80 430 83 Q 423 84 422 93 Q 416 126 233 191 Q 229 198 233 200 Q 237 201 357 176 C 385 169 385 169 399 165 Z"/>
    <path id="p2" d="M 406 272 Q 442 265 486 260 Q 499 259 501 253 Q 502 241 487 234 Q 460 222 411 235 C 382 241 382 241 367 244 Q 217 271 160 275 Q 150 276 147 283 Q 144 292 156 302 Q 189 326 234 312 Q 297 291 345 283 C 386 276 386 276 406 272 Z"/>
    <path id="p3" d="M 403 304 Q 404 288 406 272 C 409 247 409 247 411 235 Q 411 234 412 232 Q 413 216 424 195 Q 428 188 420 178 Q 410 171 399 165 C 387 158 352 163 357 176 Q 366 195 367 244 C 367 295 367 295 367 321 Q 367 355 364 372 Q 364 375 375 412 Q 382 424 394 417 Q 403 411 403 325 C 403 311 403 311 403 304 Z"/>
    <path id="p4" d="M 345 283 Q 288 352 155 448 Q 148 455 157 459 Q 175 462 268 406 Q 316 376 366 322 Q 366 321 367 321 C 391 291 368 252 345 283 Z"/>
    <path id="p5" d="M 403 325 Q 463 370 479 368 Q 489 368 491 354 Q 490 344 480 331 Q 470 318 448 313 Q 417 303 403 304 C 396 304 397 321 403 325 Z"/>
    <path id="p6" d="M 623 188 Q 662 139 664 132 Q 663 131 663 130 Q 660 120 641 104 Q 622 91 609 90 Q 596 91 601 106 Q 610 127 571 194 Q 552 225 525 258 Q 518 265 516 270 Q 513 277 524 276 Q 539 273 608 206 C 618 194 618 194 623 188 Z"/>
    <path id="p7" d="M 659 210 Q 720 192 768 186 Q 780 185 782 188 Q 786 195 783 217 Q 776 277 761 302 Q 743 330 717 325 Q 693 321 672 314 Q 651 310 668 327 Q 705 358 724 383 Q 734 399 748 388 Q 790 369 823 261 Q 829 216 851 194 Q 861 184 857 176 Q 850 167 812 149 Q 797 142 782 151 Q 733 175 623 188 C 615 189 601 202 608 206 Q 609 206 612 208 Q 625 217 636 215 C 651 212 651 212 659 210 Z"/>
    <path id="p8" d="M 637 217 Q 637 283 546 370 Q 542 374 541 378 Q 541 382 545 382 Q 602 367 667 279 Q 677 264 684 258 Q 688 251 684 241 Q 671 216 659 210 C 652 206 637 209 637 217 Z"/>
    <path id="p9" d="M 318 442 Q 306 438 286 437 Q 276 434 272 439 Q 268 445 276 459 Q 303 507 322 587 Q 326 611 341 626 Q 357 645 362 631 Q 363 627 364 620 C 363 604 363 604 363 596 Q 351 535 338 473 C 336 461 330 444 318 442 Z"/>
    <path id="p10" d="M 632 589 Q 644 610 656 618 Q 665 627 681 608 Q 693 595 725 511 Q 735 483 759 461 Q 772 451 762 437 Q 749 421 712 394 Q 694 384 629 398 Q 613 398 440 424 Q 373 436 318 442 C 306 444 326 477 338 473 Q 337 472 340 472 Q 392 459 468 447 C 494 443 494 443 507 441 Q 658 414 676 434 Q 683 444 681 454 Q 654 553 635 560 C 627 565 626 581 632 589 Z"/>
    <path id="p11" d="M 384 505 Q 420 560 438 564 Q 447 567 454 554 Q 455 544 451 529 Q 438 505 389 486 Q 382 485 381 492 Q 380 498 384 505 Z"/>
    <path id="p12" d="M 582 481 Q 572 503 547 539 Q 543 543 547 548 Q 551 549 557 546 Q 608 506 632 492 Q 644 488 641 481 Q 637 471 622 459 Q 609 447 594 447 Q 584 448 585 461 Q 588 470 582 481 Z"/>
    <path id="p13" d="M 529 602 Q 584 595 632 589 C 642 587 643 565 635 560 Q 622 547 530 568 C 499 574 499 574 483 577 Q 420 586 363 596 C 355 598 356 622 364 620 C 444 612 444 612 484 608 C 514 604 514 604 529 602 Z"/>
    <path id="p14" d="M 525 729 Q 525 707 526 686 C 527 664 527 664 527 653 Q 527 626 529 602 C 530 579 530 579 530 568 Q 531 537 533 509 Q 536 467 532 461 Q 520 449 507 441 C 496 434 461 436 468 447 Q 472 454 477 462 Q 483 480 483 577 C 484 598 484 598 484 608 Q 484 630 484 660 C 484 681 484 681 484 692 Q 484 711 485 734 C 485 747 525 742 525 729 Z"/>
    <path id="p15" d="M 526 686 Q 550 680 634 672 Q 641 673 649 664 Q 650 655 633 647 Q 612 626 531 652 Q 528 652 527 653 C 498 658 498 658 484 660 Q 481 660 388 670 Q 366 673 382 686 Q 403 702 446 698 Q 462 695 484 692 C 512 688 512 688 526 686 Z"/>
    <path id="p16" d="M 485 734 Q 386 744 275 757 Q 257 758 270 774 Q 282 786 297 790 Q 315 796 329 792 Q 453 759 716 760 Q 729 760 744 761 Q 762 761 766 754 Q 770 744 757 732 Q 711 696 655 709 Q 600 718 525 729 C 498 732 498 732 485 734 Z"/>
    <path id="p17" d="M 270 817 Q 245 856 212 888 Q 187 918 199 954 Q 203 973 226 963 Q 277 939 286 878 Q 296 847 294 821 Q 290 811 285 810 Q 276 810 270 817 Z"/>
    <path id="p18" d="M 392 842 Q 423 920 446 929 Q 458 933 468 920 Q 472 910 471 889 Q 467 870 447 855 Q 419 827 404 820 Q 397 816 392 826 Q 388 833 392 842 Z"/>
    <path id="p19" d="M 540 834 Q 594 912 614 916 Q 626 919 634 903 Q 637 891 631 872 Q 624 853 600 840 Q 564 815 548 810 Q 539 807 537 818 Q 536 825 540 834 Z"/>
    <path id="p20" d="M 696 826 Q 745 872 804 942 Q 819 961 833 965 Q 842 966 849 958 Q 861 945 850 903 Q 843 866 776 832 Q 770 826 698 796 Q 689 792 687 803 Q 686 816 696 826 Z"/>

    <clipPath id="z40679c1"><use href="#p1"/></clipPath>
    <clipPath id="z40679c2"><use href="#p2"/></clipPath>
    <clipPath id="z40679c3"><use href="#p3"/></clipPath>
    <clipPath id="z40679c4"><use href="#p4"/></clipPath>
    <clipPath id="z40679c5"><use href="#p5"/></clipPath>
    <clipPath id="z40679c6"><use href="#p6"/></clipPath>
    <clipPath id="z40679c7"><use href="#p7"/></clipPath>
    <clipPath id="z40679c8"><use href="#p8"/></clipPath>
    <clipPath id="z40679c9"><use href="#p9"/></clipPath>
    <clipPath id="z40679c10"><use href="#p10"/></clipPath>
    <clipPath id="z40679c11"><use href="#p11"/></clipPath>
    <clipPath id="z40679c12"><use href="#p12"/></clipPath>
    <clipPath id="z40679c13"><use href="#p13"/></clipPath>
    <clipPath id="z40679c14"><use href="#p14"/></clipPath>
    <clipPath id="z40679c15"><use href="#p15"/></clipPath>
    <clipPath id="z40679c16"><use href="#p16"/></clipPath>
    <clipPath id="z40679c17"><use href="#p17"/></clipPath>
    <clipPath id="z40679c18"><use href="#p18"/></clipPath>
    <clipPath id="z40679c19"><use href="#p19"/></clipPath>
    <clipPath id="z40679c20"><use href="#p20"/></clipPath>
</defs>
<g id="bg-layer" class="bg">
<use href="#p1"/>
<use href="#p2"/>
<use href="#p3"/>
<use href="#p4"/>
<use href="#p5"/>
<use href="#p6"/>
<use href="#p7"/>
<use href="#p8"/>
<use href="#p9"/>
<use href="#p10"/>
<use href="#p11"/>
<use href="#p12"/>
<use href="#p13"/>
<use href="#p14"/>
<use href="#p15"/>
<use href="#p16"/>
<use href="#p17"/>
<use href="#p18"/>
<use href="#p19"/>
<use href="#p20"/>
</g>
<g id="anim-layer">
    <path id="stroke-p1" style="stroke:#FF4444" pathLength="3333" clip-path="url(#z40679c1)" d="M 497 132 L 437 116 L 238 193"/>
    <path id="stroke-p2" style="stroke:#FF4444" pathLength="3333" clip-path="url(#z40679c2)" d="M 154 288 L 494 249"/>
    <path id="stroke-p3" style="stroke:#FF4444" pathLength="3333" clip-path="url(#z40679c3)" d="M 364 179 L 395 207 L 383 415"/>
    <path id="stroke-p4" style="stroke:#FF4444" pathLength="3333" clip-path="url(#z40679c4)" d="M 361 287 L 278 376 L 157 452"/>
    <path id="stroke-p5" style="stroke:#FF4444" pathLength="3333" clip-path="url(#z40679c5)" d="M 409 312 L 485 358"/>
    <path id="stroke-p6" style="stroke:#FF4444" pathLength="3333" clip-path="url(#z40679c6)" d="M 608 95 L 631 136 L 523 269"/>
    <path id="stroke-p7" style="stroke:#FF4444" pathLength="3333" clip-path="url(#z40679c7)" d="M 616 203 L 779 167 L 821 194 L 755 347 L 731 358 L 669 318"/>
    <path id="stroke-p8" style="stroke:#FF4444" pathLength="3333" clip-path="url(#z40679c8)" d="M 655 215 L 633 292 L 549 374"/>
    <path id="stroke-p9" style="stroke:#000" pathLength="3333" clip-path="url(#z40679c9)" d="M 279 445 L 314 480 L 353 630"/>
    <path id="stroke-p10" style="stroke:#000" pathLength="3333" clip-path="url(#z40679c10)" d="M 328 447 L 693 413 L 721 457 L 655 614"/>
    <path id="stroke-p11" style="stroke:#000" pathLength="3333" clip-path="url(#z40679c11)" d="M 389 495 L 447 554"/>
    <path id="stroke-p12" style="stroke:#000" pathLength="3333" clip-path="url(#z40679c12)" d="M 593 452 L 609 486 L 553 540"/>
    <path id="stroke-p13" style="stroke:#000" pathLength="3333" clip-path="url(#z40679c13)" d="M 371 611 L 631 576"/>
    <path id="stroke-p14" style="stroke:#000" pathLength="3333" clip-path="url(#z40679c14)" d="M 479 451 L 507 480 L 507 731"/>
    <path id="stroke-p15" style="stroke:#000" pathLength="3333" clip-path="url(#z40679c15)" d="M 383 678 L 644 664"/>
    <path id="stroke-p16" style="stroke:#000" pathLength="3333" clip-path="url(#z40679c16)" d="M 271 762 L 679 733 L 762 747"/>
    <path id="stroke-p17" style="stroke:#000" pathLength="3333" clip-path="url(#z40679c17)" d="M 282 816 L 206 959"/>
    <path id="stroke-p18" style="stroke:#000" pathLength="3333" clip-path="url(#z40679c18)" d="M 400 823 L 453 926"/>
    <path id="stroke-p19" style="stroke:#000" pathLength="3333" clip-path="url(#z40679c19)" d="M 546 821 L 628 909"/>
    <path id="stroke-p20" style="stroke:#000" pathLength="3333" clip-path="url(#z40679c20)" d="M 694 800 L 811 898 L 840 960"/>
</g>
</svg>