<svg id="z40763" class="acjk" viewBox="0 0 1024 1024" xmlns="http://www.w3.org/2000/svg">
<style>
<![CDATA[
svg.acjk path[clip-path] {
    animation-duration: 13.700000000000001s;
    animation-timing-function: linear;
    animation-iteration-count: infinite;
    stroke-dasharray: 3337;
    stroke-dashoffset: 3339;
    stroke-width: 128;
    stroke-linecap: round;
    fill: none;
    stroke: #FF4444;
}
svg.acjk .bg { fill: #ccc; opacity: 0.5; }

/* Stroke 1: Starts at 0.0%, finishes at 5.8%, holds until 81.8% */
@keyframes zk1 {
    0%, 0.0% { stroke-dashoffset: 3339; }
    5.8%, 81.8% { stroke-dashoffset: 0; }
    81.9%, 100% { stroke-dashoffset: 3339; }
}
svg.acjk #stroke-p1 { animation-name: zk1; }
/* Stroke 2: Starts at 5.8%, finishes at 11.7%, holds until 81.8% */
@keyframes zk2 {
    0%, 5.8% { stroke-dashoffset: 3339; }
    11.7%, 81.8% { stroke-dashoffset: 0; }
    81.9%, 100% { stroke-dashoffset: 3339; }
}
svg.acjk #stroke-p2 { animation-name: zk2; }
/* Stroke 3: Starts at 11.7%, finishes at 17.5%, holds until 81.8% */
@keyframes zk3 {
    0%, 11.7% { stroke-dashoffset: 3339; }
    17.5%, 81.8% { stroke-dashoffset: 0; }
    81.9%, 100% { stroke-dashoffset: 3339; }
}
svg.acjk #stroke-p3 { animation-name: zk3; }
/* Stroke 4: Starts at 17.5%, finishes at 23.4%, holds until 81.8% */
@keyframes zk4 {
    0%, 17.5% { stroke-dashoffset: 3339; }
    23.4%, 81.8% { stroke-dashoffset: 0; }
    81.9%, 100% { stroke-dashoffset: 3339; }
}
svg.acjk #stroke-p4 { animation-name: zk4; }
/* Stroke 5: Starts at 23.4%, finishes at 29.2%, holds until 81.8% */
@keyframes zk5 {
    0%, 23.4% { stroke-dashoffset: 3339; }
    29.2%, 81.8% { stroke-dashoffset: 0; }
    81.9%, 100% { stroke-dashoffset: 3339; }
}
svg.acjk #stroke-p5 { animation-name: zk5; }
/* Stroke 6: Starts at 29.2%, finishes at 35.0%, holds until 81.8% */
@keyframes zk6 {
    0%, 29.2% { stroke-dashoffset: 3339; }
    35.0%, 81.8% { stroke-dashoffset: 0; }
    81.9%, 100% { stroke-dashoffset: 3339; }
}
svg.acjk #stroke-p6 { animation-name: zk6; }
/* Stroke 7: Starts at 35.0%, finishes at 40.9%, holds until 81.8% */
@keyframes zk7 {
    0%, 35.0% { stroke-dashoffset: 3339; }
    40.9%, 81.8% { stroke-dashoffset: 0; }
    81.9%, 100% { stroke-dashoffset: 3339; }
}
svg.acjk #stroke-p7 { animation-name: zk7; }
/* Stroke 8: Starts at 40.9%, finishes at 46.7%, holds until 81.8% */
@keyframes zk8 {
    0%, 40.9% { stroke-dashoffset: 3339; }
    46.7%, 81.8% { stroke-dashoffset: 0; }
    81.9%, 100% { stroke-dashoffset: 3339; }
}
svg.acjk #stroke-p8 { animation-name: zk8; }
/* Stroke 9: Starts at 46.7%, finishes at 52.6%, holds until 81.8% */
@keyframes zk9 {
    0%, 46.7% { stroke-dashoffset: 3339; }
    52.6%, 81.8% { stroke-dashoffset: 0; }
    81.9%, 100% { stroke-dashoffset: 3339; }
}
svg.acjk #stroke-p9 { animation-name: zk9; }
/* Stroke 10: Starts at 52.6%, finishes at 58.4%, holds until 81.8% */
@keyframes zk10 {
    0%, 52.6% { stroke-dashoffset: 3339; }
    58.4%, 81.8% { stroke-dashoffset: 0; }
    81.9%, 100% { stroke-dashoffset: 3339; }
}
svg.acjk #stroke-p10 { animation-name: zk10; }
/* Stroke 11: Starts at 58.4%, finishes at 64.2%, holds until 81.8% */
@keyframes zk11 {
    0%, 58.4% { stroke-dashoffset: 3339; }
    64.2%, 81.8% { stroke-dashoffset: 0; }
    81.9%, 100% { stroke-dashoffset: 3339; }
}
svg.acjk #stroke-p11 { animation-name: zk11; }
/* Stroke 12: Starts at 64.2%, finishes at 70.1%, holds until 81.8% */
@keyframes zk12 {
    0%, 64.2% { stroke-dashoffset: 3339; }
    70.1%, 81.8% { stroke-dashoffset: 0; }
    81.9%, 100% { stroke-dashoffset: 3339; }
}
svg.acjk #stroke-p12 { animation-name: zk12; }
/* Stroke 13: Starts at 70.1%, finishes at 75.9%, holds until 81.8% */
@keyframes zk13 {
    0%, 70.1% { stroke-dashoffset: 3339; }
    75.9%, 81.8% { stroke-dashoffset: 0; }
    81.9%, 100% { stroke-dashoffset: 3339; }
}
svg.acjk #stroke-p13 { animation-name: zk13; }
/* Stroke 14: Starts at 75.9%, finishes at 81.8%, holds until 81.8% */
@keyframes zk14 {
    0%, 75.9% { stroke-dashoffset: 3339; }
    81.8%, 81.8% { stroke-dashoffset: 0; }
    81.9%, 100% { stroke-dashoffset: 3339; }
}
svg.acjk #stroke-p14 { animation-name: zk14; }
]]>
</style>
<defs>
    <path id="p1" d="M 411 150 C 465 108 494 85 498 84 C 508 79 510 70 504 63 C 497 54 486 48 474 43 C 461 37 453 35 447 37 C 441 37 440 40 442 48 C 445 59 424 94 386 152 C 382 159 404 155 411 150 Z"/>
    <path id="p2" d="M 386 152 C 375 144 362 139 350 136 C 345 134 343 135 339 138 C 334 141 334 145 340 154 C 360 189 371 246 375 326 C 376 369 386 401 411 409 C 425 413 428 392 429 383 C 429 374 428 367 428 359 C 427 346 421 322 421 314 C 420 299 420 299 419 291 C 418 281 415 251 415 246 C 414 230 414 230 413 222 C 411 207 413 180 413 180 C 413 167 396 160 386 152 Z"/>
    <path id="p3" d="M 601 364 C 613 382 625 393 637 399 C 643 402 653 399 662 385 C 672 367 682 311 700 220 C 703 199 713 181 729 165 C 737 156 738 148 730 140 C 719 129 700 114 672 100 C 660 93 630 99 583 111 C 532 123 440 145 411 150 C 402 151 394 151 386 152 C 373 155 401 184 413 180 C 457 167 519 155 599 142 C 625 137 650 150 647 177 C 635 273 623 326 613 338 C 608 346 595 356 601 364 Z"/>
    <path id="p4" d="M 415 246 C 430 245 453 236 593 218 C 604 216 609 212 605 206 C 599 197 589 192 577 190 C 568 188 513 198 413 222 C 405 223 407 248 415 246 Z"/>
    <path id="p5" d="M 421 314 C 436 316 469 308 596 292 C 608 290 613 284 609 278 C 603 269 592 264 579 261 C 569 259 517 269 419 291 C 411 292 413 314 421 314 Z"/>
    <path id="p6" d="M 429 383 C 446 383 466 376 601 364 C 611 364 621 344 613 338 C 589 319 565 338 428 359 C 420 361 421 383 429 383 Z"/>
    <path id="p7" d="M 334 449 C 319 441 305 433 290 431 C 286 430 282 432 280 434 C 275 438 276 442 282 449 C 300 472 316 517 327 585 C 332 621 344 648 368 661 C 377 666 383 649 383 647 C 382 639 383 630 382 623 C 374 585 370 569 363 534 C 358 513 356 497 354 481 C 352 469 345 455 334 449 Z"/>
    <path id="p8" d="M 677 623 C 681 631 686 635 694 635 C 702 635 707 629 714 620 C 718 613 730 593 743 558 C 753 526 771 500 795 481 C 807 471 808 459 799 450 C 787 439 765 424 734 407 C 725 402 694 404 643 412 C 595 419 485 435 334 449 C 321 449 343 487 354 481 C 359 475 411 466 491 458 C 516 455 516 455 528 454 C 622 443 685 437 700 448 C 703 450 707 461 704 478 C 691 549 681 587 677 592 C 673 602 671 615 677 623 Z"/>
    <path id="p9" d="M 543 546 C 573 542 603 538 634 537 C 649 536 653 531 649 523 C 643 514 633 506 617 504 C 588 500 569 504 546 509 C 513 516 513 516 497 519 C 464 525 434 528 406 534 C 394 536 394 541 408 551 C 413 555 426 558 442 557 C 460 555 478 553 497 551 C 528 548 528 548 543 546 Z"/>
    <path id="p10" d="M 539 604 C 539 583 540 563 542 546 C 544 521 544 521 545 509 C 546 490 559 466 528 454 C 516 449 486 446 491 458 C 496 469 498 500 499 518 C 500 539 500 539 500 550 C 500 564 500 585 502 609 C 502 621 539 616 539 604 Z"/>
    <path id="p11" d="M 383 647 C 396 651 590 629 677 623 C 687 623 687 594 677 592 C 647 586 626 592 539 604 C 514 607 514 607 502 609 C 463 614 416 617 382 623 C 374 625 375 647 383 647 Z"/>
    <path id="p12" d="M 660 708 C 713 706 800 709 918 715 C 932 715 941 713 945 707 C 949 698 946 688 935 679 C 898 648 866 637 840 642 C 716 661 469 684 99 713 C 84 714 81 720 92 733 C 100 743 111 750 125 755 C 139 759 153 760 165 758 C 229 743 296 733 367 726 C 403 722 403 722 421 720 C 465 715 530 710 616 709 C 645 708 645 708 660 708 Z"/>
    <path id="p13" d="M 367 726 C 377 746 376 780 364 830 C 352 876 328 909 293 931 C 282 937 273 944 264 950 C 256 954 255 959 263 961 C 288 964 319 951 354 925 C 386 901 409 864 422 816 C 430 784 437 767 442 756 C 449 735 434 729 421 720 C 405 711 360 709 367 726 Z"/>
    <path id="p14" d="M 616 709 C 626 761 624 824 619 862 C 611 912 623 951 655 979 C 663 986 673 978 675 971 C 678 959 682 933 681 896 C 677 827 673 774 678 736 C 679 720 672 715 660 708 C 647 700 613 695 616 709 Z"/>

    <clipPath id="z40763c1"><use href="#p1"/></clipPath>
    <clipPath id="z40763c2"><use href="#p2"/></clipPath>
    <clipPath id="z40763c3"><use href="#p3"/></clipPath>
    <clipPath id="z40763c4"><use href="#p4"/></clipPath>
    <clipPath id="z40763c5"><use href="#p5"/></clipPath>
    <clipPath id="z40763c6"><use href="#p6"/></clipPath>
    <clipPath id="z40763c7"><use href="#p7"/></clipPath>
    <clipPath id="z40763c8"><use href="#p8"/></clipPath>
    <clipPath id="z40763c9"><use href="#p9"/></clipPath>
    <clipPath id="z40763c10"><use href="#p10"/></clipPath>
    <clipPath id="z40763c11"><use href="#p11"/></clipPath>
    <clipPath id="z40763c12"><use href="#p12"/></clipPath>
    <clipPath id="z40763c13"><use href="#p13"/></clipPath>
    <clipPath id="z40763c14"><use href="#p14"/></clipPath>
</defs>
<g id="bg-layer" class="bg">
<use href="#p1"/>
<use href="#p2"/>
<use href="#p3"/>
<use href="#p4"/>
<use href="#p5"/>
<use href="#p6"/>
<use href="#p7"/>
<use href="#p8"/>
<use href="#p9"/>
<use href="#p10"/>
<use href="#p11"/>
<use href="#p12"/>
<use href="#p13"/>
<use href="#p14"/>
</g>
<g id="anim-layer">
    <path id="stroke-p1" style="stroke:#FF4444" pathLength="3333" clip-path="url(#z40763c1)" d="M 447 47 L 464 84 L 395 150"/>
    <path id="stroke-p2" style="stroke:#FF4444" pathLength="3333" clip-path="url(#z40763c2)" d="M 343 143 L 384 185 L 413 404"/>
    <path id="stroke-p3" style="stroke:#FF4444" pathLength="3333" clip-path="url(#z40763c3)" d="M 392 158 L 622 121 L 678 143 L 691 160 L 638 395"/>
    <path id="stroke-p4" style="stroke:#FF4444" pathLength="3333" clip-path="url(#z40763c4)" d="M 410 234 L 601 208"/>
    <path id="stroke-p5" style="stroke:#FF4444" pathLength="3333" clip-path="url(#z40763c5)" d="M 421 303 L 604 281"/>
    <path id="stroke-p6" style="stroke:#FF4444" pathLength="3333" clip-path="url(#z40763c6)" d="M 426 372 L 612 347"/>
    <path id="stroke-p7" style="stroke:#000" pathLength="3333" clip-path="url(#z40763c7)" d="M 286 440 L 326 477 L 373 657"/>
    <path id="stroke-p8" style="stroke:#000" pathLength="3333" clip-path="url(#z40763c8)" d="M 338 454 L 716 427 L 754 471 L 687 628"/>
    <path id="stroke-p9" style="stroke:#000" pathLength="3333" clip-path="url(#z40763c9)" d="M 407 541 L 643 526"/>
    <path id="stroke-p10" style="stroke:#000" pathLength="3333" clip-path="url(#z40763c10)" d="M 501 459 L 523 492 L 516 612"/>
    <path id="stroke-p11" style="stroke:#000" pathLength="3333" clip-path="url(#z40763c11)" d="M 380 636 L 681 606"/>
    <path id="stroke-p12" style="stroke:#000" pathLength="3333" clip-path="url(#z40763c12)" d="M 92 719 L 150 734 L 839 676 L 943 694"/>
    <path id="stroke-p13" style="stroke:#000" pathLength="3333" clip-path="url(#z40763c13)" d="M 374 721 L 409 756 L 378 862 L 329 923 L 266 953"/>
    <path id="stroke-p14" style="stroke:#000" pathLength="3333" clip-path="url(#z40763c14)" d="M 622 706 L 649 736 L 658 977"/>
</g>
</svg>