<svg id="z40860" class="acjk" viewBox="0 0 1024 1024" xmlns="http://www.w3.org/2000/svg">
<style>
<![CDATA[
svg.acjk path[clip-path] {
    animation-duration: 15.3s;
    animation-timing-function: linear;
    animation-iteration-count: infinite;
    stroke-dasharray: 3337;
    stroke-dashoffset: 3339;
    stroke-width: 128;
    stroke-linecap: round;
    fill: none;
    stroke: #FF4444;
}
svg.acjk .bg { fill: #ccc; opacity: 0.5; }

/* Stroke 1: Starts at 0.0%, finishes at 5.2%, holds until 83.7% */
@keyframes zk1 {
    0%, 0.0% { stroke-dashoffset: 3339; }
    5.2%, 83.7% { stroke-dashoffset: 0; }
    83.8%, 100% { stroke-dashoffset: 3339; }
}
svg.acjk #stroke-p1 { animation-name: zk1; }
/* Stroke 2: Starts at 5.2%, finishes at 10.5%, holds until 83.7% */
@keyframes zk2 {
    0%, 5.2% { stroke-dashoffset: 3339; }
    10.5%, 83.7% { stroke-dashoffset: 0; }
    83.8%, 100% { stroke-dashoffset: 3339; }
}
svg.acjk #stroke-p2 { animation-name: zk2; }
/* Stroke 3: Starts at 10.5%, finishes at 15.7%, holds until 83.7% */
@keyframes zk3 {
    0%, 10.5% { stroke-dashoffset: 3339; }
    15.7%, 83.7% { stroke-dashoffset: 0; }
    83.8%, 100% { stroke-dashoffset: 3339; }
}
svg.acjk #stroke-p3 { animation-name: zk3; }
/* Stroke 4: Starts at 15.7%, finishes at 20.9%, holds until 83.7% */
@keyframes zk4 {
    0%, 15.7% { stroke-dashoffset: 3339; }
    20.9%, 83.7% { stroke-dashoffset: 0; }
    83.8%, 100% { stroke-dashoffset: 3339; }
}
svg.acjk #stroke-p4 { animation-name: zk4; }
/* Stroke 5: Starts at 20.9%, finishes at 26.1%, holds until 83.7% */
@keyframes zk5 {
    0%, 20.9% { stroke-dashoffset: 3339; }
    26.1%, 83.7% { stroke-dashoffset: 0; }
    83.8%, 100% { stroke-dashoffset: 3339; }
}
svg.acjk #stroke-p5 { animation-name: zk5; }
/* Stroke 6: Starts at 26.1%, finishes at 31.4%, holds until 83.7% */
@keyframes zk6 {
    0%, 26.1% { stroke-dashoffset: 3339; }
    31.4%, 83.7% { stroke-dashoffset: 0; }
    83.8%, 100% { stroke-dashoffset: 3339; }
}
svg.acjk #stroke-p6 { animation-name: zk6; }
/* Stroke 7: Starts at 31.4%, finishes at 36.6%, holds until 83.7% */
@keyframes zk7 {
    0%, 31.4% { stroke-dashoffset: 3339; }
    36.6%, 83.7% { stroke-dashoffset: 0; }
    83.8%, 100% { stroke-dashoffset: 3339; }
}
svg.acjk #stroke-p7 { animation-name: zk7; }
/* Stroke 8: Starts at 36.6%, finishes at 41.8%, holds until 83.7% */
@keyframes zk8 {
    0%, 36.6% { stroke-dashoffset: 3339; }
    41.8%, 83.7% { stroke-dashoffset: 0; }
    83.8%, 100% { stroke-dashoffset: 3339; }
}
svg.acjk #stroke-p8 { animation-name: zk8; }
/* Stroke 9: Starts at 41.8%, finishes at 47.1%, holds until 83.7% */
@keyframes zk9 {
    0%, 41.8% { stroke-dashoffset: 3339; }
    47.1%, 83.7% { stroke-dashoffset: 0; }
    83.8%, 100% { stroke-dashoffset: 3339; }
}
svg.acjk #stroke-p9 { animation-name: zk9; }
/* Stroke 10: Starts at 47.1%, finishes at 52.3%, holds until 83.7% */
@keyframes zk10 {
    0%, 47.1% { stroke-dashoffset: 3339; }
    52.3%, 83.7% { stroke-dashoffset: 0; }
    83.8%, 100% { stroke-dashoffset: 3339; }
}
svg.acjk #stroke-p10 { animation-name: zk10; }
/* Stroke 11: Starts at 52.3%, finishes at 57.5%, holds until 83.7% */
@keyframes zk11 {
    0%, 52.3% { stroke-dashoffset: 3339; }
    57.5%, 83.7% { stroke-dashoffset: 0; }
    83.8%, 100% { stroke-dashoffset: 3339; }
}
svg.acjk #stroke-p11 { animation-name: zk11; }
/* Stroke 12: Starts at 57.5%, finishes at 62.7%, holds until 83.7% */
@keyframes zk12 {
    0%, 57.5% { stroke-dashoffset: 3339; }
    62.7%, 83.7% { stroke-dashoffset: 0; }
    83.8%, 100% { stroke-dashoffset: 3339; }
}
svg.acjk #stroke-p12 { animation-name: zk12; }
/* Stroke 13: Starts at 62.7%, finishes at 68.0%, holds until 83.7% */
@keyframes zk13 {
    0%, 62.7% { stroke-dashoffset: 3339; }
    68.0%, 83.7% { stroke-dashoffset: 0; }
    83.8%, 100% { stroke-dashoffset: 3339; }
}
svg.acjk #stroke-p13 { animation-name: zk13; }
/* Stroke 14: Starts at 68.0%, finishes at 73.2%, holds until 83.7% */
@keyframes zk14 {
    0%, 68.0% { stroke-dashoffset: 3339; }
    73.2%, 83.7% { stroke-dashoffset: 0; }
    83.8%, 100% { stroke-dashoffset: 3339; }
}
svg.acjk #stroke-p14 { animation-name: zk14; }
/* Stroke 15: Starts at 73.2%, finishes at 78.4%, holds until 83.7% */
@keyframes zk15 {
    0%, 73.2% { stroke-dashoffset: 3339; }
    78.4%, 83.7% { stroke-dashoffset: 0; }
    83.8%, 100% { stroke-dashoffset: 3339; }
}
svg.acjk #stroke-p15 { animation-name: zk15; }
/* Stroke 16: Starts at 78.4%, finishes at 83.7%, holds until 83.7% */
@keyframes zk16 {
    0%, 78.4% { stroke-dashoffset: 3339; }
    83.7%, 83.7% { stroke-dashoffset: 0; }
    83.8%, 100% { stroke-dashoffset: 3339; }
}
svg.acjk #stroke-p16 { animation-name: zk16; }
]]>
</style>
<defs>
    <path id="p1" d="M 402 246 C 452 199 494 169 526 155 C 538 149 541 141 534 133 C 509 106 480 92 458 96 C 419 102 441 120 439 144 C 436 164 385 229 364 253 C 356 263 392 254 402 246 Z"/>
    <path id="p2" d="M 287 265 Q 275 259 243 259 Q 233 258 230 262 Q 226 268 235 280 Q 262 317 285 382 Q 291 401 305 412 Q 323 428 325 415 Q 325 412 325 410 C 324 393 324 393 323 385 Q 322 378 320 371 Q 304 322 298 298 C 296 287 298 269 287 265 Z"/>
    <path id="p3" d="M 685 235 C 697 234 705 236 709 242 C 711 250 701 279 677 329 C 671 344 718 350 726 336 C 746 300 766 277 784 268 C 796 255 795 243 780 231 C 766 218 751 206 737 196 C 728 188 716 186 702 191 C 659 203 461 234 402 246 C 377 251 377 251 364 253 C 346 257 310 260 287 265 C 276 267 287 300 298 298 C 442 261 560 247 685 235 Z"/>
    <path id="p4" d="M 588 380 C 640 372 692 365 734 362 C 740 361 743 358 744 354 C 744 350 738 344 726 336 C 712 328 693 326 677 329 C 642 337 609 344 583 350 C 573 352 578 382 588 380 Z"/>
    <path id="p5" d="M 535 366 C 537 378 541 404 542 423 C 542 478 538 599 536 658 C 531 770 536 836 547 854 C 549 858 553 859 558 857 C 562 855 566 850 569 842 C 571 833 576 803 580 752 C 581 731 581 731 582 721 C 587 633 581 541 582 472 C 582 452 582 452 582 442 C 582 412 585 396 588 380 C 590 370 591 356 583 350 C 553 326 530 332 535 366 Z"/>
    <path id="p6" d="M 416 520 C 415 527 416 542 416 542 C 416 646 416 707 418 727 C 419 741 419 741 420 748 C 430 816 444 862 460 888 C 476 910 500 928 532 940 C 572 952 637 958 726 958 C 798 957 855 951 897 940 C 929 933 947 926 951 918 C 955 910 955 900 950 889 C 937 856 927 815 920 766 C 917 754 913 746 908 744 C 903 741 899 746 896 759 C 874 827 858 865 849 871 C 843 879 827 885 803 889 C 725 903 661 909 612 907 C 556 904 515 885 490 850 C 470 819 460 728 462 578 C 462 491 463 415 476 395 C 487 379 473 373 456 358 C 445 348 437 349 418 358 C 397 369 366 373 323 385 C 315 387 317 412 325 410 C 382 401 418 380 418 409 C 417 450 416 478 416 520 Z"/>
    <path id="p7" d="M 366 515 C 368 508 372 503 378 498 C 390 485 389 475 378 468 C 368 461 358 453 344 445 C 334 438 324 438 315 445 C 306 450 295 455 282 459 C 267 463 248 467 226 470 C 220 470 218 471 219 475 C 219 477 221 481 229 486 C 233 488 259 487 306 484 C 312 483 316 485 319 488 C 322 491 323 501 319 521 C 318 523 317 525 317 529 C 312 548 312 548 310 558 C 307 566 305 576 303 587 C 301 600 339 603 341 591 C 343 576 346 562 351 551 C 361 527 361 527 366 515 Z"/>
    <path id="p8" d="M 416 520 C 416 519 415 519 415 519 C 401 510 384 509 366 515 C 333 524 333 524 317 529 C 253 543 185 553 134 561 C 121 562 120 567 130 575 C 140 583 159 588 187 583 C 223 576 263 565 310 558 C 337 553 337 553 351 551 C 373 547 395 544 416 542 C 423 541 422 524 416 520 Z"/>
    <path id="p9" d="M 303 587 C 281 591 248 599 206 609 C 193 611 192 615 202 623 C 214 632 231 635 255 630 C 289 622 319 616 346 614 C 377 611 350 595 341 591 C 329 586 315 585 303 587 Z"/>
    <path id="p10" d="M 322 812 C 326 792 330 774 336 761 C 345 739 345 739 350 728 C 352 721 356 716 361 712 C 373 698 372 687 360 680 C 349 674 337 666 324 658 C 315 652 294 659 260 675 C 242 682 220 687 194 691 C 187 691 184 691 186 696 C 186 698 190 702 197 706 C 206 711 220 711 238 707 C 276 697 295 695 300 701 C 303 705 302 719 298 740 C 294 759 294 759 292 769 C 289 781 286 794 283 808 C 280 821 319 825 322 812 Z"/>
    <path id="p11" d="M 336 761 C 360 756 391 752 420 748 C 427 747 425 728 418 727 C 390 720 370 723 350 728 C 315 736 315 736 298 740 C 229 755 130 769 95 772 C 88 772 83 774 83 779 C 81 783 85 789 92 795 C 109 809 138 809 177 797 C 230 780 269 773 292 769 C 321 764 321 764 336 761 Z"/>
    <path id="p12" d="M 283 808 Q 276 809 272 811 Q 218 830 175 841 Q 157 845 170 860 Q 177 867 187 870 Q 197 871 209 867 Q 248 855 335 841 Q 345 840 346 831 Q 345 824 322 812 C 311 805 296 805 283 808 Z"/>
    <path id="p13" d="M 710 738 C 720 750 730 769 743 794 C 748 805 757 805 767 799 C 785 786 800 730 809 629 C 816 541 825 487 837 467 C 844 454 841 444 832 437 C 793 407 762 400 736 409 C 678 427 626 436 582 442 C 572 444 572 470 582 472 C 590 474 611 472 645 463 C 712 444 749 437 761 443 C 767 446 771 454 771 470 C 770 546 762 625 748 706 C 746 712 741 715 731 715 C 721 715 704 730 710 738 Z"/>
    <path id="p14" d="M 691 583 C 704 564 714 545 727 528 C 734 512 717 495 706 488 C 699 483 694 481 688 482 C 681 482 679 486 683 494 C 683 494 684 495 685 498 C 688 515 681 538 666 567 C 657 584 657 584 652 593 C 651 593 650 595 649 598 C 636 618 622 639 605 660 C 602 662 601 664 601 667 C 601 669 602 670 604 670 C 620 667 643 648 671 611 C 684 592 684 592 691 583 Z"/>
    <path id="p15" d="M 671 611 C 699 638 713 654 716 655 C 718 656 720 653 724 650 C 728 645 727 637 724 622 C 721 612 713 597 691 583 C 674 572 674 572 666 567 C 639 550 618 538 603 530 C 600 528 594 529 597 533 C 597 533 632 573 652 593 C 658 599 671 611 671 611 Z"/>
    <path id="p16" d="M 580 752 Q 584 752 589 751 Q 628 742 710 738 C 720 738 738 722 731 715 Q 725 709 714 702 Q 699 695 673 701 Q 622 713 582 721 C 572 723 570 752 580 752 Z"/>

    <clipPath id="z40860c1"><use href="#p1"/></clipPath>
    <clipPath id="z40860c2"><use href="#p2"/></clipPath>
    <clipPath id="z40860c3"><use href="#p3"/></clipPath>
    <clipPath id="z40860c4"><use href="#p4"/></clipPath>
    <clipPath id="z40860c5"><use href="#p5"/></clipPath>
    <clipPath id="z40860c6"><use href="#p6"/></clipPath>
    <clipPath id="z40860c7"><use href="#p7"/></clipPath>
    <clipPath id="z40860c8"><use href="#p8"/></clipPath>
    <clipPath id="z40860c9"><use href="#p9"/></clipPath>
    <clipPath id="z40860c10"><use href="#p10"/></clipPath>
    <clipPath id="z40860c11"><use href="#p11"/></clipPath>
    <clipPath id="z40860c12"><use href="#p12"/></clipPath>
    <clipPath id="z40860c13"><use href="#p13"/></clipPath>
    <clipPath id="z40860c14"><use href="#p14"/></clipPath>
    <clipPath id="z40860c15"><use href="#p15"/></clipPath>
    <clipPath id="z40860c16"><use href="#p16"/></clipPath>
</defs>
<g id="bg-layer" class="bg">
<use href="#p1"/>
<use href="#p2"/>
<use href="#p3"/>
<use href="#p4"/>
<use href="#p5"/>
<use href="#p6"/>
<use href="#p7"/>
<use href="#p8"/>
<use href="#p9"/>
<use href="#p10"/>
<use href="#p11"/>
<use href="#p12"/>
<use href="#p13"/>
<use href="#p14"/>
<use href="#p15"/>
<use href="#p16"/>
</g>
<g id="anim-layer">
    <path id="stroke-p1" style="stroke:#FF4444" pathLength="3333" clip-path="url(#z40860c1)" d="M 452 110 L 488 135 L 375 247"/>
    <path id="stroke-p2" style="stroke:#000" pathLength="3333" clip-path="url(#z40860c2)" d="M 238 269 L 270 289 L 316 416"/>
    <path id="stroke-p3" style="stroke:#000" pathLength="3333" clip-path="url(#z40860c3)" d="M 296 273 L 711 213 L 750 254 L 687 329"/>
    <path id="stroke-p4" style="stroke:#000" pathLength="3333" clip-path="url(#z40860c4)" d="M 595 372 L 735 353"/>
    <path id="stroke-p5" style="stroke:#000" pathLength="3333" clip-path="url(#z40860c5)" d="M 551 350 L 565 383 L 556 852"/>
    <path id="stroke-p6" style="stroke:#000" pathLength="3333" clip-path="url(#z40860c6)" d="M 331 401 L 432 380 L 445 415 L 443 749 L 489 886 L 550 920 L 638 932 L 866 909 L 907 883 L 905 749"/>
    <path id="stroke-p7" style="stroke:#000" pathLength="3333" clip-path="url(#z40860c7)" d="M 227 475 L 328 468 L 353 490 L 318 588"/>
    <path id="stroke-p8" style="stroke:#000" pathLength="3333" clip-path="url(#z40860c8)" d="M 131 568 L 413 530"/>
    <path id="stroke-p9" style="stroke:#000" pathLength="3333" clip-path="url(#z40860c9)" d="M 203 615 L 348 602"/>
    <path id="stroke-p10" style="stroke:#000" pathLength="3333" clip-path="url(#z40860c10)" d="M 192 694 L 310 678 L 335 697 L 302 809"/>
    <path id="stroke-p11" style="stroke:#000" pathLength="3333" clip-path="url(#z40860c11)" d="M 90 782 L 416 736"/>
    <path id="stroke-p12" style="stroke:#000" pathLength="3333" clip-path="url(#z40860c12)" d="M 171 847 L 337 827"/>
    <path id="stroke-p13" style="stroke:#000" pathLength="3333" clip-path="url(#z40860c13)" d="M 587 464 L 752 423 L 806 457 L 749 797"/>
    <path id="stroke-p14" style="stroke:#000" pathLength="3333" clip-path="url(#z40860c14)" d="M 690 484 L 700 533 L 610 663"/>
    <path id="stroke-p15" style="stroke:#000" pathLength="3333" clip-path="url(#z40860c15)" d="M 603 534 L 723 643"/>
    <path id="stroke-p16" style="stroke:#000" pathLength="3333" clip-path="url(#z40860c16)" d="M 586 745 L 723 717"/>
</g>
</svg>